<svg viewBox="0 0 48 48" xmlns="http://www.w3.org/2000/svg" xmlns:xlink="http://www.w3.org/1999/xlink">
  <linearGradient id="a" gradientTransform="matrix(0 -1 1 0 -.0000015 47.999998)" gradientUnits="userSpaceOnUse" x1="1" x2="47">
    <stop offset="0" stop-color="#ecc200"/>
    <stop offset="1" stop-color="#ffd401"/>
  </linearGradient>
  <path d="m47 24c0 22.703-.297 23-23 23-22.703 0-23-.297-23-23 0-22.703.297-23 23-23 22.703 0 23 .297 23 23z" fill="url(#a)"/>
  <path d="m11 11v26h26v-26" opacity=".1" transform="translate(1 1)"/>
  <path d="m11 11v26h26v-26m-25 1h24v24h-24m0-24" fill="#b9b095"/>
  <path d="m12 11.996h12v12h-12m0-12" fill="#ececd4"/>
  <path d="m24 11.996h12v12h-12m0-12" fill="#e5d6ab"/>
  <path d="m12 24h12v12h-12m0-12" fill="#ffcf53"/>
  <path d="m24 24h12v12h-12m0-12" fill="#ffb95b"/>
  <path d="m22 33h-1v2h-2v-2h-4v-2l3.5-6h2.5v6h1zm-3-2v-4l-2 4" fill="#957f4c"/>
  <path d="m21 23h-6v-2c3.117-3.117 4.891-4.234 3.539-5.582-.629-.629-1.336-.113-2.539.582l-1-2c1.77-1.172 3.695-1.324 5 0 2.691 2.73-1.125 5.367-2.559 7 1.504 0 2.055 0 3.559 0" fill="#957f4c"/>
  <path d="m30 25c-1.656 0-3 1.344-3 3 0 .773.52 1.469 1 2-.48.531-1 1.227-1 2 0 1.656 1.344 3 3 3 1.656 0 3-1.344 3-3 0-.773-.52-1.469-1-2 .48-.531 1-1.227 1-2 0-1.656-1.344-3-3-3m0 2c .551 0 1 .449 1 1 0 .551-.664 1-1 1-.336 0-1-.449-1-1 0-.551.449-1 1-1m0 4c .367 0 1 .449 1 1 0 .551-.449 1-1 1-.551 0-1-.449-1-1 0-.551.633-1 1-1m0 0" fill="#957f4c"/>
</svg>
