<svg xmlns="http://www.w3.org/2000/svg" viewBox="0 0 48 48">
 <defs>
  <linearGradient id="linearGradient3764" x1="1" x2="47" gradientUnits="userSpaceOnUse" gradientTransform="matrix(0,-1,1,0,-1.5e-6,47.999998)">
   <stop style="stop-color:#ecc200;stop-opacity:1"/>
   <stop offset="1" style="stop-color:#ffd401;stop-opacity:1"/>
  </linearGradient>
 </defs>
 <g>
  
  
  
 </g>
 <g>
  <path d="m 47,24 C 47,46.703 46.703,47 24,47 1.297,47 1,46.703 1,24 1,1.297 1.297,1 24,1 46.703,1 47,1.297 47,24 z" style="fill:url(#linearGradient3764);fill-opacity:1"/>
 </g>
 <g>
  <g>
   <g transform="translate(1,1)">
    <g style="opacity:0.1">
     <!-- color: #ffd401 -->
     <g>
      <path d="m 11 11 0 26 26 0 0 -26" style="fill:#000;fill-opacity:1;stroke:none;fill-rule:nonzero"/>
     </g>
    </g>
   </g>
  </g>
 </g>
 <g>
  <g>
   <!-- color: #ffd401 -->
   <g>
    <path d="m 11 11 0 26 26 0 0 -26 m -25 1 24 0 0 24 -24 0 m 0 -24" style="fill:#b9b095;fill-opacity:1;stroke:none;fill-rule:nonzero"/>
    <path d="m 12 11.996 12 0 0 12 -12 0 m 0 -12" style="fill:#ececd4;fill-opacity:1;stroke:none;fill-rule:nonzero"/>
    <path d="m 24 11.996 12 0 0 12 -12 0 m 0 -12" style="fill:#e5d6ab;fill-opacity:1;stroke:none;fill-rule:nonzero"/>
    <path d="m 12 24 12 0 0 12 -12 0 m 0 -12" style="fill:#ffcf53;fill-opacity:1;stroke:none;fill-rule:nonzero"/>
    <path d="m 24 24 12 0 0 12 -12 0 m 0 -12" style="fill:#ffb95b;fill-opacity:1;stroke:none;fill-rule:nonzero"/>
    <path d="m 22 33 -1 0 0 2 -2 0 0 -2 -4 0 0 -2 3.5 -6 2.5 0 0 6 1 0 0 2 m -3 -2 0 -4 -2 4" style="fill:#957f4c;fill-opacity:1;stroke:none;fill-rule:nonzero"/>
    <path d="m 21,23 -6,0 0,-2 c 3.117,-3.117 4.891,-4.234 3.539,-5.582 C 17.91,14.789 17.203,15.305 16,16 l -1,-2 c 1.77,-1.172 3.695,-1.324 5,0 2.691,2.73 -1.125,5.367 -2.559,7 1.504,0 2.055,0 3.559,0" style="fill:#957f4c;fill-opacity:1;stroke:none;fill-rule:nonzero"/>
    <path d="m 30 25 c -1.656 0 -3 1.344 -3 3 0 0.773 0.52 1.469 1 2 -0.48 0.531 -1 1.227 -1 2 0 1.656 1.344 3 3 3 1.656 0 3 -1.344 3 -3 0 -0.773 -0.52 -1.469 -1 -2 0.48 -0.531 1 -1.227 1 -2 0 -1.656 -1.344 -3 -3 -3 m 0 2 c 0.551 0 1 0.449 1 1 0 0.551 -0.664 1 -1 1 -0.336 0 -1 -0.449 -1 -1 0 -0.551 0.449 -1 1 -1 m 0 4 c 0.367 0 1 0.449 1 1 0 0.551 -0.449 1 -1 1 -0.551 0 -1 -0.449 -1 -1 0 -0.551 0.633 -1 1 -1 m 0 0" style="fill:#957f4c;fill-opacity:1;stroke:none;fill-rule:nonzero"/>
   </g>
  </g>
 </g>
 <g>
  
 </g>
</svg>
