<svg viewBox="0 0 48 48" xmlns="http://www.w3.org/2000/svg" xmlns:xlink="http://www.w3.org/1999/xlink">
  <linearGradient id="a" gradientTransform="matrix(0 -1 1 0 -.0000015 47.999998)" gradientUnits="userSpaceOnUse" x1="1" x2="47">
    <stop offset="0" stop-color="#39569d"/>
    <stop offset="1" stop-color="#3f5eab"/>
  </linearGradient>
  <path d="m47 24c0 22.703-.297 23-23 23-22.703 0-23-.297-23-23 0-22.703.297-23 23-23 22.703 0 23 .297 23 23z" fill="url(#a)"/>
  <g transform="translate(0 2)">
    <path d="m23 10l-11 17.5v4.5h11v4h5v-9h2c5 0 8-4 8-8.5 0-4.5-3-8.5-8-8.5-2.333 0-4.667 0-7 0zm5 5h1.5c2.5 0 3.5 2 3.5 3.5 0 1.5-1 3.5-3.5 3.5h-1.5m-5-3.096v8.096h-5" opacity=".1"/>
    <path d="m22 11l-11 17.5v4.5h11v4h5v-9h2c5 0 8-4 8-8.5 0-4.5-3-8.5-8-8.5-2.333 0-4.667 0-7 0zm5 5h1.5c2.5 0 3.5 2 3.5 3.5 0 1.5-1 3.5-3.5 3.5h-1.5m-5-3.096v8.096h-5" fill="#f3f5f5" transform="translate(0 -2)"/>
  </g>
</svg>
