<svg viewBox="0 0 48 48" xmlns="http://www.w3.org/2000/svg" xmlns:xlink="http://www.w3.org/1999/xlink">
  <linearGradient id="a" gradientTransform="matrix(0 -1 1 0 -.0000015 47.999998)" gradientUnits="userSpaceOnUse" x1="1" x2="47">
    <stop offset="0" stop-color="#e1e1e1"/>
    <stop offset="1" stop-color="#ebebeb"/>
  </linearGradient>
  <path d="m47 24c0 22.703-.297 23-23 23-22.703 0-23-.297-23-23 0-22.703.297-23 23-23 22.703 0 23 .297 23 23z" fill="url(#a)"/>
  <path d="m39 24c-.004 8.285-6.719 14.996-15 14.996-8.281 0-14.996-6.711-15-14.996-.004-8.285 6.715-15 15-15 8.285 0 15 6.719 15 15m0 0" opacity=".1" transform="translate(1 1)"/>
  <g transform="translate(.00000179)">
    <path d="m39 24c-.004 8.285-6.719 14.996-15 14.996-8.281 0-14.996-6.711-15-14.996-.004-8.285 6.715-15 15-15 8.285 0 15 6.719 15 15m0 0" fill="#2d2d2d"/>
    <path d="m32 24c0 4.418-3.582 8-8 8-4.418 0-8-3.582-8-8 0-4.418 3.582-8 8-8 4.418 0 8 3.582 8 8m0 0" fill="#f9f9f9"/>
    <path d="m24 19c3 0 4 3 1 4.75 1.457.602 2 1.141 2 2.75 0 1.5-1 2.5-3 2.5-2 0-3-1-3-2.5 0-1 .727-2.191 2-2.75-3-1.75-2-4.75 1-4.75m-2 7.5c0 2.5 4 2.5 4 0 0-1.5-1-2.223-2-2.285-1.371.078-2 .785-2 2.285m1.988-6.75c-2.988.25-1.988 3.25.059 3.613 1.953-.363 2.953-3.363-.047-3.613" fill="#2d2d2d"/>
  </g>
</svg>
