<svg viewBox="0 0 48 48" xmlns="http://www.w3.org/2000/svg" xmlns:xlink="http://www.w3.org/1999/xlink">
  <linearGradient id="a" gradientTransform="matrix(0 -1 1 0 -.0000015 47.999998)" gradientUnits="userSpaceOnUse" x1="1" x2="47">
    <stop offset="0" stop-color="#f2eeba"/>
    <stop offset="1" stop-color="#f5f2cb"/>
  </linearGradient>
  <path d="m24 1c22.297 0 23 1.297 23 23 0 22.297-1.297 23-23 23-22.297 0-23-1.297-23-23 0-22.297 1.297-23 23-23z" fill="url(#a)"/>
  <path d="m23.832031 11.001953c-.169116-.0138-.367745.02786-.583984.144531-5.870149 3.167298-9.299681 8.886315-9.248047 12.699219.0751 5.546096 4.331174 10.085567 10.677734 9.931641-.29176 1.478921-1.168311 1.968439-1.039062 2.671875.05112.278212.45822.755541 1.009766.455078 5.633825-3.06912 9.236614-8.549676 9.347656-12.496094.151725-5.392342-3.950847-10.507231-10.705078-10.164062.160068-.746276.53497-1.408152 1.003906-2.181641.292477-.482427.04446-1.019137-.462891-1.060547zm.167969 8.998047a4 4 0 0 1 4 4 4 4 0 0 1-4 4 4 4 0 0 1-4-4 4 4 0 0 1  4-4z" fill-rule="evenodd" opacity=".1" transform="matrix(.99999999 0 0 .99999996 .99957494 .99989144)"/>
  <path d="m23.832031 11.001953c-.169116-.013803-.367745.027858-.583984.144531-5.870149 3.167298-9.299681 8.886315-9.248047 12.699219.075103 5.546096 4.331174 10.085567 10.677734 9.931641-.29176 1.478921-1.168311 1.968439-1.039062 2.671875.051121.278212.45822.755541 1.009766.455078 5.633825-3.06912 9.236614-8.549676 9.347656-12.496094.151725-5.392342-3.950847-10.507231-10.705078-10.164062.160068-.746276.53497-1.408152 1.003906-2.181641.292477-.482427.044459-1.019137-.462891-1.060547zm.167969 8.998047a4 4 0 0 1 4 4 4 4 0 0 1-4 4 4 4 0 0 1-4-4 4 4 0 0 1  4-4z" fill="#e66432" fill-rule="evenodd" transform="matrix(.99999999 0 0 .99999996 .00000004 .00000004)"/>
</svg>
