<svg xmlns="http://www.w3.org/2000/svg" viewBox="0 0 48 48">
 <defs>
  <linearGradient id="linearGradient3844" x1="1" x2="47" gradientUnits="userSpaceOnUse" gradientTransform="translate(-48,0)">
   <stop style="stop-color:#65d965;stop-opacity:1"/>
   <stop offset="1" style="stop-color:#75dd75;stop-opacity:1"/>
  </linearGradient>
 </defs>
 <g>
  
  
  
 </g>
 <path d="m 47,24 C 47,46.703 46.703,47 24,47 1.297,47 1,46.703 1,24 1,1.297 1.297,1 24,1 46.703,1 47,1.297 47,24 z" style="fill:url(#linearGradient3844);fill-opacity:1"/>
 <g>
  <g>
   <g transform="translate(1,1)">
    <g style="opacity:0.1">
     <!-- color: #e08659 -->
     <g>
      <path d="m 24 12 c -6.633 0 -12 5.363 -12 11.984 c 0 6.621 5.367 12.02 12 12.02 c 6.633 0 12 -5.395 12 -12.02 c 0 -6.621 -5.367 -11.984 -12 -11.984 m 6.543 4.973 c 2.879 0.871 3.633 4.992 1.402 6.598 l 1.809 6.84 l -2.508 0.617 l -1.789 -6.789 c -3.184 -0.785 -3.914 -3.563 -2.01 -6.406 l 2.043 3.793 l 1.188 -0.352 m -6.68 0.512 c 1.23 0 2.203 0.98 2.203 2.199 c 0 1.219 -0.977 2.23 -2.203 2.23 c -1.223 0 -2.195 -1.012 -2.195 -2.23 c 0 -1.219 0.977 -2.199 2.195 -2.199 m 0 0" style="fill:#000;fill-opacity:1;stroke:none;fill-rule:nonzero"/>
     </g>
    </g>
   </g>
  </g>
 </g>
 <g>
  <path d="m 24,12 c -6.633,0 -12,5.363 -12,11.984 0,6.621 5.367,12.02 12,12.02 6.633,0 12,-5.395 12,-12.02 C 36,17.363 30.633,12 24,12 m 6.543,4.973 c 2.879,0.871 3.633,4.992 1.402,6.598 l 1.809,6.84 -2.508,0.617 -1.789,-6.789 c -3.184,-0.785 -3.914,-3.563 -2.01,-6.406 l 2.043,3.793 1.188,-0.352 m -6.68,0.512 c 1.23,0 2.203,0.98 2.203,2.199 0,1.219 -0.977,2.23 -2.203,2.23 -1.223,0 -2.195,-1.012 -2.195,-2.23 0,-1.219 0.977,-2.199 2.195,-2.199 m 0,0" style="fill:#fff;fill-opacity:1;stroke:none;fill-rule:nonzero"/>
 </g>
 <g>
  
 </g>
</svg>
