<svg viewBox="0 0 48 48" xmlns="http://www.w3.org/2000/svg" xmlns:xlink="http://www.w3.org/1999/xlink">
  <linearGradient id="a" gradientTransform="translate(-48)" gradientUnits="userSpaceOnUse" x1="1" x2="47">
    <stop offset="0" stop-color="#65d965"/>
    <stop offset="1" stop-color="#75dd75"/>
  </linearGradient>
  <path d="m47 24c0 22.703-.297 23-23 23-22.703 0-23-.297-23-23 0-22.703.297-23 23-23 22.703 0 23 .297 23 23z" fill="url(#a)"/>
  <path d="m24 12c-6.633 0-12 5.363-12 11.984 0 6.621 5.367 12.02 12 12.02 6.633 0 12-5.395 12-12.02 0-6.621-5.367-11.984-12-11.984m6.543 4.973c2.879.871 3.633 4.992 1.402 6.598l1.809 6.84-2.508.617-1.789-6.789c-3.184-.785-3.914-3.563-2.01-6.406l2.043 3.793 1.188-.352m-6.68.512c1.23 0 2.203.98 2.203 2.199 0 1.219-.977 2.23-2.203 2.23-1.223 0-2.195-1.012-2.195-2.23 0-1.219.977-2.199 2.195-2.199m0 0" opacity=".1" transform="translate(1 1)"/>
  <path d="m24 12c-6.633 0-12 5.363-12 11.984 0 6.621 5.367 12.02 12 12.02 6.633 0 12-5.395 12-12.02 0-6.621-5.367-11.984-12-11.984m6.543 4.973c2.879.871 3.633 4.992 1.402 6.598l1.809 6.84-2.508.617-1.789-6.789c-3.184-.785-3.914-3.563-2.01-6.406l2.043 3.793 1.188-.352m-6.68.512c1.23 0 2.203.98 2.203 2.199 0 1.219-.977 2.23-2.203 2.23-1.223 0-2.195-1.012-2.195-2.23 0-1.219.977-2.199 2.195-2.199m0 0" fill="#fff"/>
</svg>
