<svg xmlns="http://www.w3.org/2000/svg" viewBox="0 0 48 48">
 <defs>
  <linearGradient id="linearGradient3764" x1="1" x2="47" gradientUnits="userSpaceOnUse" gradientTransform="matrix(0,-1,1,0,-1.5e-6,47.999998)">
   <stop style="stop-color:#97b2d3;stop-opacity:1"/>
   <stop offset="1" style="stop-color:#a5bcd9;stop-opacity:1"/>
  </linearGradient>
 </defs>
 <g>
  
  
  
 </g>
 <g>
  <path d="m 47,24 C 47,46.703 46.703,47 24,47 1.297,47 1,46.703 1,24 1,1.297 1.297,1 24,1 46.703,1 47,1.297 47,24 z" style="fill:url(#linearGradient3764);fill-opacity:1"/>
 </g>
 <g>
  <g>
   <g transform="translate(1,1)">
    <g style="opacity:0.1">
     <!-- color: #a5bcd9 -->
     <g>
      <path d="m 12 32.48 c -0.012 -5.758 8.316 -22.395 12.195 -22.477 c 1.938 -0.047 4.844 3.637 7.285 8.398 c 2.445 4.758 4.426 10.598 4.52 14.863 c 0 0 -9.383 -18.328 -11.723 -18.379 c -2.379 -0.066 -8.852 12.91 -8.08 14.352 c 0.754 1.41 14.695 -3.133 14.695 -3.133 c -0.301 0.461 -9.402 6.48 -16.227 7.895 c -1.031 -0.043 -2.578 0 -2.664 -1.52 m 0 0" style="fill:#000;fill-opacity:1;stroke:none;fill-rule:evenodd"/>
     </g>
    </g>
   </g>
  </g>
 </g>
 <g>
  <g>
   <!-- color: #a5bcd9 -->
   <g>
    <path d="m 12 32.48 c -0.012 -5.758 8.316 -22.395 12.195 -22.477 c 1.938 -0.047 4.844 3.637 7.285 8.398 c 2.445 4.758 4.426 10.598 4.52 14.863 c 0 0 -9.383 -18.328 -11.723 -18.379 c -2.379 -0.066 -8.852 12.91 -8.08 14.352 c 0.754 1.41 14.695 -3.133 14.695 -3.133 c -0.301 0.461 -9.402 6.48 -16.227 7.895 c -1.031 -0.043 -2.578 0 -2.664 -1.52 m 0 0" style="fill:#4c627f;fill-opacity:1;stroke:none;fill-rule:evenodd"/>
   </g>
  </g>
 </g>
 <g>
  
 </g>
</svg>
