<svg xmlns="http://www.w3.org/2000/svg" viewBox="0 0 48 48">
 <defs>
  <linearGradient id="linearGradient3764" x1="1" x2="47" gradientUnits="userSpaceOnUse" gradientTransform="matrix(0,-1,1,0,-1.5e-6,47.999998)">
   <stop style="stop-color:#93c848;stop-opacity:1"/>
   <stop offset="1" style="stop-color:#9ccd57;stop-opacity:1"/>
  </linearGradient>
 </defs>
 <g>
  
  
  
 </g>
 <g>
  <path d="m 47,24 C 47,46.703 46.703,47 24,47 1.297,47 1,46.703 1,24 1,1.297 1.297,1 24,1 46.703,1 47,1.297 47,24 z" style="fill:url(#linearGradient3764);fill-opacity:1"/>
 </g>
 <rect y="14" x="12" height="22" width="26" rx="2" style="fill:#000;opacity:0.1;fill-opacity:1;stroke:none"/>
 <g>
  <g>
   <g transform="translate(1,1)">
    <g style="opacity:0.1">
     <!-- color: #9ccd57 -->
    </g>
   </g>
  </g>
 </g>
 <g>
  
 </g>
 <g>
  <g>
   <g>
    <!-- color: #9ccd57 -->
    <g>
     <path d="m 11.801 13.801 l 0 20.398 l 24.398 0 l 0 -20.398 l -24.398 0 z" style="fill:#2c86d5;fill-opacity:1;stroke:none;fill-rule:nonzero"/>
     <path d="m 17 26 -5.2 5 0.001 3.199 l 11.217 0.001 l 0 -2.223" style="fill:#f4f4f4;fill-opacity:1;stroke:none;fill-rule:nonzero"/>
     <path d="M 17.02,25.977 18,30 l -2,2.5 1.02,1.7 5.98,0 0,-2.2" style="fill:#dedede;fill-opacity:1;stroke:none;fill-rule:nonzero"/>
     <path d="m 30 22 -9 12.2 15.2 0 -0.08 -5.7" style="fill:#f4f4f4;fill-opacity:1;stroke:none;fill-rule:nonzero"/>
     <path d="M 30.02,21.977 31.5,27 30,31.5 l 2,2.7 4.2,0 0,-5.7" style="fill:#dedede;fill-opacity:1;stroke:none;fill-rule:nonzero"/>
     <path d="m 11.801 13.801 0 10.1 c 0.397 0.063 0.798 0.099 1.199 0.1 c 4.418 0.003 8 -3.582 8 -8 0 -0.744 -0.105 -1.484 -0.311 -2.199 z" style="fill:#fff;fill-opacity:0.2;stroke:none;fill-rule:nonzero"/>
     <path d="m 11.801 13.801 0 5.758 c 0.52 0.289 1.105 0.441 1.699 0.441 1.933 0 3.5 -1.567 3.5 -3.5 0 -1.045 -0.467 -2.035 -1.273 -2.699 z" style="fill:#fbc06e;fill-opacity:1;stroke:none;fill-rule:nonzero"/>
    </g>
   </g>
  </g>
  <path d="m 13 13 c -1.108 0 -2 0.892 -2 2 l 0 18 c 0 1.108 0.892 2 2 2 l 22 0 c 1.108 0 2 -0.892 2 -2 l 0 -18 c 0 -1.108 -0.892 -2 -2 -2 l -22 0 z m 0 1 22 0 c 0.554 0 1 0.446 1 1 l 0 18 c 0 0.554 -0.446 1 -1 1 l -22 0 c -0.554 0 -1 -0.446 -1 -1 l 0 -18 c 0 -0.554 0.446 -1 1 -1 z" style="fill:#f9f9f9;opacity:1;fill-opacity:1;stroke:none"/>
 </g>
</svg>
