<svg viewBox="0 0 48 48" xmlns="http://www.w3.org/2000/svg" xmlns:xlink="http://www.w3.org/1999/xlink">
  <linearGradient id="a" gradientTransform="matrix(0 -1 1 0 -.0000015 47.999998)" gradientUnits="userSpaceOnUse" x1="1" x2="47">
    <stop offset="0" stop-color="#3d3d3d"/>
    <stop offset="1" stop-color="#474747"/>
  </linearGradient>
  <path d="m47 24c0 22.703-.297 23-23 23-22.703 0-23-.297-23-23 0-22.703.297-23 23-23 22.703 0 23 .297 23 23z" fill="url(#a)"/>
  <g opacity=".1" transform="translate(1 1)">
    <path d="m23.953 34.17l-3.035-2.598c-1.563-.527-2.566 1.156-2.098 2.434.848 2.27 4.449 2.395 5.133.164m0 0"/>
    <path d="m21.938 18.637h1.039l2.59-1.488c-.395-4.93-4.957-2.863-3.629 1.488m0 0"/>
    <path d="m12.453 24.504c.34 4.113 5.629 3.055 6.242-.473.246-1.434-1.223-3.836-2.988-2.797m-3.254 3.27"/>
    <path d="m35.992 21.613l-5.03-4.289c-2.594-.891-4.254 1.918-3.477 4.02 1.398 3.77 7.375 3.973 8.504.27m0 0"/>
    <path d="m12.08 36c3.918-.996 5.195-2.125 4.848-4.785-2.746-.238-3.316.926-4.93 4.078l.984-.777m-.902 1.484"/>
    <path d="m16.926 31.33c4.887.852 17.04-15.664 19.07-19.32-3.855 1.977-20.15 14.605-19.07 19.32m0 0"/>
    <path d="m33.01 30.566c-.898-1.539-2.211-2.402-4.16-2.215-2.621.93-.191 3.195-.426 3.738 1.02 2.77 4.977-.102 4.586-1.523m0 0"/>
  </g>
  <path d="m23.953 34.17l-3.035-2.598c-1.563-.527-2.566 1.156-2.098 2.434.848 2.27 4.449 2.395 5.133.164m0 0" fill="#9add9c"/>
  <path d="m21.938 18.637h1.039l2.59-1.488c-.395-4.93-4.957-2.863-3.629 1.488m0 0" fill="#ed8e68"/>
  <path d="m12.453 24.504c.34 4.113 5.629 3.055 6.242-.473.246-1.434-1.223-3.836-2.988-2.797m-3.254 3.27" fill="#9ab9dd"/>
  <path d="m35.992 21.613l-5.03-4.289c-2.594-.891-4.254 1.918-3.477 4.02 1.398 3.77 7.375 3.973 8.504.27m0 0" fill="#f3f284"/>
  <path d="m12.08 36c3.918-.996 5.195-2.125 4.848-4.785-2.746-.238-3.316.926-4.93 4.078l.984-.777m-.902 1.484" fill="#edb968"/>
  <path d="m16.926 31.33c4.887.852 17.04-15.664 19.07-19.32-3.855 1.977-20.15 14.605-19.07 19.32m0 0" fill="#936662"/>
  <path d="m16.926 31.33c1.32.23 3.172-.852 5.211-2.563l-2.82-2.637c-1.66 2.066-2.676 3.922-2.391 5.199m0 0" fill="#f9f9f9"/>
  <path d="m33.01 30.566c-.898-1.539-2.211-2.402-4.16-2.215-2.621.93-.191 3.195-.426 3.738 1.02 2.77 4.977-.102 4.586-1.523m0 0" fill="#edb968"/>
</svg>
