<svg xmlns="http://www.w3.org/2000/svg" viewBox="0 0 48 48">
 <defs>
  <linearGradient id="linearGradient3844" x1="1" x2="47" gradientUnits="userSpaceOnUse">
   <stop style="stop-color:#dbe6be;stop-opacity:1"/>
   <stop offset="1" style="stop-color:#e3eccc;stop-opacity:1"/>
  </linearGradient>
 </defs>
 <g>
  
  
  
 </g>
 <path d="m 47,24 C 47,46.703 46.703,47 24,47 1.297,47 1,46.703 1,24 1,1.297 1.297,1 24,1 46.703,1 47,1.297 47,24 z" style="fill:url(#linearGradient3844);fill-opacity:1"/>
 <path d="m 13 13 0 2 -2 0 0 10 2 0 0 9 2 0 0 1 1 0 0 2 9 0 9 0 0 -2 1 0 0 -1 2 0 0 -9 2 0 0 -10 -2 0 0 -2 -12 0 -12 0 z" style="fill:#000;opacity:0.1;fill-opacity:1;stroke:none;fill-rule:nonzero"/>
 <g>
  
 </g>
 <path d="m 12 12 l 0 2 l -2 0 l 0 10 l 14 0 l 14 0 l 0 -10 l -2 0 l 0 -2 l -12 0 l -12 0 z" style="fill:#789911;opacity:1;fill-opacity:1;stroke:none;fill-rule:nonzero"/>
 <path d="m 12 14 l 0 10 l 12 0 l 12 0 l 0 -10 l -12 0 l -12 0 z" style="fill:#9ac011;opacity:1;fill-opacity:1;stroke:none;fill-rule:nonzero"/>
 <path d="m 14 24 l 0 10 l 10 0 l 10 0 l 0 -10 l -10 0 l -10 0 z" style="fill:#ecc593;opacity:1;fill-opacity:1;stroke:none;fill-rule:nonzero"/>
 <path d="m 15 34 l 0 2 l 9 0 l 9 0 l 0 -2 l -9 0 l -9 0 z" style="fill:#cbaf75;opacity:1;fill-opacity:1;stroke:none;fill-rule:nonzero"/>
 <rect width="2" height="9" x="12" y="24" style="fill:#cbaf75;opacity:1;fill-opacity:1;stroke:none;fill-rule:nonzero"/>
 <rect width="4" height="4" x="16" y="24" style="fill:#353535;opacity:1;fill-opacity:1;stroke:none;fill-rule:nonzero"/>
 <path d="m 22 24 l 0 3 l 2 0 l 2 0 l 0 -3 l -2 0 l -2 0 z" style="fill:#e3a258;opacity:1;fill-opacity:1;stroke:none;fill-rule:nonzero"/>
 <path d="m 21 30 0 2 4 0 0 -2 z" style="fill:#717169;opacity:1;fill-opacity:1;stroke:none;fill-rule:nonzero"/>
 <rect y="24" x="-36" height="9" width="2" transform="scale(-1,1)" style="fill:#cbaf75;opacity:1;fill-opacity:1;stroke:none;fill-rule:nonzero"/>
 <rect y="24" x="-32" height="4" width="4" transform="scale(-1,1)" style="fill:#353535;opacity:1;fill-opacity:1;stroke:none;fill-rule:nonzero"/>
 <path d="m 26 29 l -1 1 l 0 2 l 2 0 l 1 -1 l -2 0 l 0 -2 z" style="fill:#554025;opacity:1;fill-opacity:1;stroke:none;fill-rule:nonzero"/>
 <rect width="2" height="2" x="26" y="29" style="fill:#e6dc35;opacity:1;fill-opacity:1;stroke:none;fill-rule:nonzero"/>
</svg>
