<svg xmlns="http://www.w3.org/2000/svg" viewBox="0 0 48 48">
 <defs>
  <linearGradient id="linearGradient3764" x1="1" x2="47" gradientUnits="userSpaceOnUse" gradientTransform="matrix(0,-1,1,0,-1.5e-6,47.999998)">
   <stop style="stop-color:#b4b4b4;stop-opacity:1"/>
   <stop offset="1" style="stop-color:#bebebe;stop-opacity:1"/>
  </linearGradient>
 </defs>
 <g>
  
  
  
 </g>
 <g>
  <path d="m 47,24 C 47,46.703 46.703,47 24,47 1.297,47 1,46.703 1,24 1,1.297 1.297,1 24,1 46.703,1 47,1.297 47,24 z" style="fill:url(#linearGradient3764);fill-opacity:1"/>
 </g>
 <g>
  <g>
   <g transform="translate(1,1)">
    <g style="opacity:0.1">
     <!-- color: #bebebe -->
     <g>
      <path d="m 25 13 c -2.762 0 -5 2.238 -5 5 c 0 0.211 0.018 0.419 0.043 0.623 c -0.657 0.962 -1.043 2.124 -1.043 3.377 c 0 0.03 0.003 0.06 0.004 0.09 c -1.395 0.233 -2.626 0.944 -3.518 1.963 c -1.965 0.254 -3.486 1.912 -3.486 3.947 c 0 2.032 1.522 3.693 3.488 3.947 c 0.175 0.2 0.363 0.387 0.563 0.563 c -0.02 0.163 -0.051 0.322 -0.051 0.49 c 0 2.207 1.789 4 4 4 c 2.207 0 4 -1.793 4 -4 c 0 -0.169 -0.031 -0.329 -0.051 -0.492 c 0.4 -0.351 0.755 -0.751 1.051 -1.195 c 0.296 0.445 0.65 0.846 1.051 1.197 c -0.02 0.163 -0.051 0.322 -0.051 0.49 c 0 2.207 1.789 4 4 4 c 2.207 0 4 -1.793 4 -4 c 0 -0.169 -0.031 -0.329 -0.051 -0.492 c 0.199 -0.175 0.386 -0.361 0.561 -0.561 c 1.964 -0.254 3.49 -1.915 3.49 -3.947 c 0 -2.035 -1.525 -3.693 -3.488 -3.947 c -0.892 -1.019 -2.121 -1.729 -3.516 -1.963 c 0 -0.03 0.004 -0.06 0.004 -0.09 c 0 -1.252 -0.386 -2.415 -1.043 -3.377 c 0.025 -0.204 0.043 -0.412 0.043 -0.623 c 0 -2.762 -2.238 -5 -5 -5 z" transform="translate(-1,-1)"/>
     </g>
    </g>
   </g>
  </g>
 </g>
 <g>
  <g>
   <!-- color: #bebebe -->
   <g>
    <path d="m 23 32 c 0 2.207 -1.793 4 -4 4 -2.211 0 -4 -1.793 -4 -4 0 -2.211 1.789 -4 4 -4 2.207 0 4 1.789 4 4 m 0 0" style="fill:#ccc;fill-opacity:1;stroke:none;fill-rule:nonzero"/>
    <path d="m 25 27 c 0 3.313 -2.688 6 -6 6 -3.316 0 -6 -2.688 -6 -6 0 -3.316 2.684 -6 6 -6 3.313 0 6 2.684 6 6 m 0 0" style="fill:#333;fill-opacity:1;stroke:none;fill-rule:nonzero"/>
    <path d="m 25 32 c 0 2.207 1.789 4 4 4 2.207 0 4 -1.793 4 -4 0 -2.211 -1.793 -4 -4 -4 -2.211 0 -4 1.789 -4 4 m 0 0" style="fill:#ccc;fill-opacity:1;stroke:none;fill-rule:nonzero"/>
    <path d="m 35 27 c 0 3.313 -2.688 6 -6 6 -3.316 0 -6 -2.688 -6 -6 0 -3.316 2.684 -6 6 -6 3.313 0 6 2.684 6 6 m 0 0" style="fill:#333;fill-opacity:1;stroke:none;fill-rule:nonzero"/>
    <path d="m 30 21 c 0 3.313 -2.688 6 -6 6 -3.313 0 -6 -2.688 -6 -6 0 -3.313 2.688 -6 6 -6 3.313 0 6 2.688 6 6 m 0 0" style="fill:#4c4c4c;fill-opacity:1;stroke:none;fill-rule:nonzero"/>
    <path d="m 19 27 c 0 2.207 -1.793 4 -4 4 -2.211 0 -4 -1.793 -4 -4 0 -2.211 1.789 -4 4 -4 2.207 0 4 1.789 4 4 m 0 0" style="fill:#e5e5e5;fill-opacity:1;stroke:none;fill-rule:nonzero"/>
    <path d="m 29 27 c 0 2.207 1.789 4 4 4 2.207 0 4 -1.793 4 -4 0 -2.211 -1.793 -4 -4 -4 -2.211 0 -4 1.789 -4 4 m 0 0" style="fill:#e5e5e5;fill-opacity:1;stroke:none;fill-rule:nonzero"/>
    <path d="m 29 17 c 0 2.762 -2.238 5 -5 5 -2.762 0 -5 -2.238 -5 -5 0 -2.762 2.238 -5 5 -5 2.762 0 5 2.238 5 5 m 0 0" style="fill:#69007f;fill-opacity:1;stroke:none;fill-rule:nonzero"/>
   </g>
  </g>
 </g>
 <g>
  
 </g>
</svg>
