<svg viewBox="0 0 48 48" xmlns="http://www.w3.org/2000/svg" xmlns:xlink="http://www.w3.org/1999/xlink">
  <linearGradient id="a" gradientTransform="matrix(0 -1 1 0 -.0000015 47.999998)" gradientUnits="userSpaceOnUse" x1="1" x2="47">
    <stop offset="0" stop-color="#b4b4b4"/>
    <stop offset="1" stop-color="#bebebe"/>
  </linearGradient>
  <path d="m47 24c0 22.703-.297 23-23 23-22.703 0-23-.297-23-23 0-22.703.297-23 23-23 22.703 0 23 .297 23 23z" fill="url(#a)"/>
  <path d="m25 13c-2.762 0-5 2.238-5 5 0 .211.018.419.043.623-.657.962-1.043 2.124-1.043 3.377 0 .03.003.06.004.09-1.395.233-2.626.944-3.518 1.963-1.965.254-3.486 1.912-3.486 3.947 0 2.032 1.522 3.693 3.488 3.947.175.2.363.387.563.563-.02.163-.051.322-.051.49 0 2.207 1.789 4 4 4 2.207 0 4-1.793 4-4 0-.169-.031-.329-.051-.492.4-.351.755-.751 1.051-1.195.296.445.65.846 1.051 1.197-.02.163-.051.322-.051.49 0 2.207 1.789 4 4 4 2.207 0 4-1.793 4-4 0-.169-.031-.329-.051-.492.199-.175.386-.361.561-.561 1.964-.254 3.49-1.915 3.49-3.947 0-2.035-1.525-3.693-3.488-3.947-.892-1.019-2.121-1.729-3.516-1.963 0-.03.004-.06.004-.09 0-1.252-.386-2.415-1.043-3.377.025-.204.043-.412.043-.623 0-2.762-2.238-5-5-5z" opacity=".1" transform=""/>
  <path d="m23 32c0 2.207-1.793 4-4 4-2.211 0-4-1.793-4-4 0-2.211 1.789-4 4-4 2.207 0 4 1.789 4 4m0 0" fill="#ccc"/>
  <path d="m25 27c0 3.313-2.688 6-6 6-3.316 0-6-2.688-6-6 0-3.316 2.684-6 6-6 3.313 0 6 2.684 6 6m0 0" fill="#333"/>
  <path d="m25 32c0 2.207 1.789 4 4 4 2.207 0 4-1.793 4-4 0-2.211-1.793-4-4-4-2.211 0-4 1.789-4 4m0 0" fill="#ccc"/>
  <path d="m35 27c0 3.313-2.688 6-6 6-3.316 0-6-2.688-6-6 0-3.316 2.684-6 6-6 3.313 0 6 2.684 6 6m0 0" fill="#333"/>
  <path d="m30 21c0 3.313-2.688 6-6 6-3.313 0-6-2.688-6-6 0-3.313 2.688-6 6-6 3.313 0 6 2.688 6 6m0 0" fill="#4c4c4c"/>
  <path d="m19 27c0 2.207-1.793 4-4 4-2.211 0-4-1.793-4-4 0-2.211 1.789-4 4-4 2.207 0 4 1.789 4 4m0 0" fill="#e5e5e5"/>
  <path d="m29 27c0 2.207 1.789 4 4 4 2.207 0 4-1.793 4-4 0-2.211-1.793-4-4-4-2.211 0-4 1.789-4 4m0 0" fill="#e5e5e5"/>
  <path d="m29 17c0 2.762-2.238 5-5 5-2.762 0-5-2.238-5-5 0-2.762 2.238-5 5-5 2.762 0 5 2.238 5 5m0 0" fill="#69007f"/>
</svg>
