<svg viewBox="0 0 48 48" xmlns="http://www.w3.org/2000/svg" xmlns:xlink="http://www.w3.org/1999/xlink">
  <linearGradient id="a" gradientTransform="matrix(0 -1 1 0 -.0000015 47.999998)" gradientUnits="userSpaceOnUse" x1="1" x2="47">
    <stop offset="0" stop-color="#b93b3b"/>
    <stop offset="1" stop-color="#c34545"/>
  </linearGradient>
  <path d="m47 24c0 22.703-.297 23-23 23-22.703 0-23-.297-23-23 0-22.703.297-23 23-23 22.703 0 23 .297 23 23z" fill="url(#a)"/>
  <path d="m36.883 27.625c-.285-.535-.727-.977-4.359-.867-1.234.035-2.078.078-2.785.141-1.289-.738-2.559-1.68-3.527-2.836-1.109-1.328-1.793-2.863-2.234-4.371.691-3.082.594-5.141.563-5.582-.004-.059-.008-.094-.008-.094 0 0-.004.012-.004.012-.043-.301-.215-1.406-.563-1.754-.406-.398-.762-.406-1.168.285-.402.691-.586 2.621-.254 4.477.105.602.328 1.465.629 2.41-.246.883-.52 1.809-.813 2.727-.918 2.859-2.582 5.805-3.992 8.08-.258.082-1.879.664-3.863 2.398-2.164 1.895-1.504 2.844-.992 3.133.516.293 1.945 1.422 6.828-6.988 1.707-2.945 2.727-5.629 3.336-7.887.602 1.586 1.375 3.199 2.242 4.207.605.703 1.43 1.371 2.348 1.965-.77.125-1.617.297-2.969.547-3.34.621-4.992 1.969-4.992 1.969 0 0 4.484-1.445 8.91-1.945 1.422.785 2.961 1.387 4.266 1.652 2.496.512 3.258-.684 3.258-.684.102-.109.441-.547.148-.996m0 0" opacity=".1" transform="translate(1 1)"/>
  <path d="m36.883 27.625c-.285-.535-.727-.977-4.359-.867-1.234.035-2.078.078-2.785.141-1.289-.738-2.559-1.68-3.527-2.836-1.109-1.328-1.793-2.863-2.234-4.371.691-3.082.594-5.141.563-5.582-.004-.059-.008-.094-.008-.094 0 0-.004.012-.004.012-.043-.301-.215-1.406-.563-1.754-.406-.398-.762-.406-1.168.285-.402.691-.586 2.621-.254 4.477.105.602.328 1.465.629 2.41-.246.883-.52 1.809-.813 2.727-.918 2.859-2.582 5.805-3.992 8.08-.258.082-1.879.664-3.863 2.398-2.164 1.895-1.504 2.844-.992 3.133.516.293 1.945 1.422 6.828-6.988 1.707-2.945 2.727-5.629 3.336-7.887.602 1.586 1.375 3.199 2.242 4.207.605.703 1.43 1.371 2.348 1.965-.77.125-1.617.297-2.969.547-3.34.621-4.992 1.969-4.992 1.969 0 0 4.484-1.445 8.91-1.945 1.422.785 2.961 1.387 4.266 1.652 2.496.512 3.258-.684 3.258-.684.102-.109.441-.547.148-.996m0 0" fill="#fff"/>
</svg>
