<svg viewBox="0 0 48 48" xmlns="http://www.w3.org/2000/svg" xmlns:xlink="http://www.w3.org/1999/xlink">
  <linearGradient id="a" gradientTransform="matrix(0 -1 1 0 -.0000015 47.999998)" gradientUnits="userSpaceOnUse" x1="1" x2="47">
    <stop offset="0" stop-color="#ad897f"/>
    <stop offset="1" stop-color="#b5948b"/>
  </linearGradient>
  <path d="m47 24c0 22.703-.297 23-23 23-22.703 0-23-.297-23-23 0-22.703.297-23 23-23 22.703 0 23 .297 23 23z" fill="url(#a)"/>
  <g transform="matrix(3.543307 0 0 3.543307 -.00118111 -.00000012)">
    <path d="m18.543 13c-1.777 0-3.226 1.299-3.488 3h-1.523c-.294 0-.531.237-.531.531v.938c0 .294.237.531.531.531h1.469v2h-1.469c-.294 0-.531.237-.531.531v.938c0 .294.237.531.531.531h1.469v2h-1.469c-.294 0-.531.237-.531.531v.938c0 .294.237.531.531.531h1.469v2h-1.469c-.294 0-.531.237-.531.531v.938c0 .294.237.531.531.531h1.469v2h-1.469c-.294 0-.531.237-.531.531v.938c0 .294.237.531.531.531h1.523c.262 1.701 1.712 3 3.488 3h12.914c1.777 0 3.226-1.299 3.488-3h1.168c.491 0 .887-.396.887-.887v-2.227c0-.491-.396-.887-.887-.887h-1.113v-3h1.113c.491 0 .887-.396.887-.887v-2.227c0-.491-.396-.887-.887-.887h-1.113v-3h1.113c.491 0 .887-.396.887-.887v-2.227c0-.491-.396-.887-.887-.887h-1.168c-.262-1.701-1.712-3-3.488-3h-12.914z" opacity=".1" transform="scale(.28222223)"/>
    <rect fill="#45485b" height="1.129" rx=".25" width=".847" x="9.313" y="8.184"/>
    <rect fill="#e44933" height="1.129" rx=".25" width=".847" x="9.313" y="6.209"/>
    <rect fill="#ffca08" height="1.129" rx=".25" width=".847" x="9.313" y="4.233"/>
    <rect fill="#f9f9f9" height="6.773" rx="1" width="5.644" x="3.951" y="3.387"/>
    <path d="m4.948 3.387c-.554 0-.997.443-.997.997v4.78c0 .554.443.997.997.997h.132v-6.773z" fill="#b1c9c9"/>
    <rect fill="#81584a" height=".564" rx=".15" width="1.129" x="3.387" y="5.362"/>
    <rect fill="#81584a" height=".564" rx=".15" width="1.129" x="3.387" y="6.491"/>
    <rect fill="#81584a" height=".564" rx=".15" width="1.129" x="3.387" y="7.62"/>
    <rect fill="#81584a" height=".564" rx=".15" width="1.129" x="3.387" y="8.749"/>
    <rect fill="#81584a" height=".564" rx=".15" width="1.129" x="3.387" y="4.233"/>
    <path d="m6.819 8.746c-.412-.017-.691-.048-.906-.102-.247-.062-.423-.155-.495-.263-.05-.075-.059-.113-.055-.254.003-.119.003-.12.031-.178.069-.143.198-.265.435-.412.117-.073.359-.191.531-.259.171-.068.21-.095.247-.175.019-.04.023-.059.023-.108 0-.094-.017-.142-.075-.206-.244-.273-.401-.678-.401-1.037 0-.397.172-.707.474-.856.128-.063.24-.09.394-.096.423-.016.772.218.891.6.063.201.064.47.004.707-.059.23-.191.492-.327.647-.071.081-.078.093-.093.162-.017.083-.013.166.012.219.028.059.064.085.171.123.559.2.953.465 1.051.706.017.041.018.057.018.183 0 .134 0 .139-.022.184-.09.192-.374.315-.871.378-.219.028-.782.049-1.037.039z" fill="#6a6e84"/>
  </g>
</svg>
