<svg viewBox="0 0 48 48" xmlns="http://www.w3.org/2000/svg" xmlns:xlink="http://www.w3.org/1999/xlink">
  <linearGradient id="a" gradientTransform="matrix(0 -1 1 0 -.0000015 47.999998)" gradientUnits="userSpaceOnUse" x1="1" x2="47">
    <stop offset="0" stop-color="#2c3d60"/>
    <stop offset="1" stop-color="#32466e"/>
  </linearGradient>
  <path d="m47 24c0 22.703-.297 23-23 23-22.703 0-23-.297-23-23 0-22.703.297-23 23-23 22.703 0 23 .297 23 23z" fill="url(#a)"/>
  <path d="m20 18c-3.867 0-7 3.133-7 7 0 3.867 3.133 7 7 7 1.316 0 2.542-.369 3.594-1h9.08c2.39 0 4.328-1.937 4.328-4.324v-3.348c0-2.39-1.937-4.328-4.328-4.328h-9.08c-1.051-.631-2.278-1-3.594-1z" opacity=".1" transform=""/>
  <path d="m20.328 18h11.344c2.391 0 4.328 1.938 4.328 4.328v3.348c0 2.387-1.938 4.324-4.328 4.324h-11.344c-2.391 0-4.328-1.938-4.328-4.324v-3.348c0-2.391 1.938-4.328 4.328-4.328m0 0" fill="#f9f9f9"/>
  <path d="m26 24c0 3.867-3.133 7-7 7-3.867 0-7-3.133-7-7 0-3.867 3.133-7 7-7 3.867 0 7 3.133 7 7m0 0" fill="#7695d6"/>
  <path d="m23 24c0 2.211-1.789 4-4 4-2.211 0-4-1.789-4-4 0-2.211 1.789-4 4-4 2.211 0 4 1.789 4 4m0 0" fill="#2f59a3"/>
</svg>
