<svg xmlns="http://www.w3.org/2000/svg" viewBox="0 0 48 48">
 <defs>
  <linearGradient id="linearGradient3764" x1="1" x2="47" gradientUnits="userSpaceOnUse" gradientTransform="matrix(0,-1,1,0,-1.5e-6,47.999998)">
   <stop style="stop-color:#466537;stop-opacity:1"/>
   <stop offset="1" style="stop-color:#4f723e;stop-opacity:1"/>
  </linearGradient>
 </defs>
 <g>
  
  
  
 </g>
 <g>
  <path d="m 47,24 C 47,46.703 46.703,47 24,47 1.297,47 1,46.703 1,24 1,1.297 1.297,1 24,1 46.703,1 47,1.297 47,24 z" style="fill:url(#linearGradient3764);fill-opacity:1"/>
 </g>
 <g>
  <g>
   <g transform="translate(1,1)">
    <g style="opacity:0.1">
     <!-- color: #4f723e -->
     <g>
      <g>
       <g>
        <path d="m 12 16.488 l 0 14.496 c 0.789 0.109 1.859 0.195 3.285 0.195 c 2.594 0 4.711 -0.676 6.04 -2.01 c 1.27 -1.266 2.082 -3.234 2.082 -5.859 c 0 -2.516 -0.793 -4.262 -2.082 -5.422 c -1.227 -1.137 -2.949 -1.707 -5.441 -1.707 c -1.445 0 -2.813 0.109 -3.879 0.309 m 3.777 12.551 c -0.492 0 -1.01 0 -1.344 -0.063 l 0 -10.539 c 0.336 -0.09 0.891 -0.152 1.664 -0.152 c 3.047 0 4.75 1.855 4.727 5.113 c 0 3.719 -1.855 5.648 -4.992 5.648 c -0.016 0 -0.035 0 -0.055 0" style="fill:#000;fill-opacity:1;stroke:none;fill-rule:nonzero"/>
       </g>
      </g>
      <g>
       <g>
        <path d="m 35.2 20.379 l -1.035 4.727 c -0.25 1.246 -0.461 2.402 -0.617 3.563 l -0.035 0 c -0.211 -1.16 -0.461 -2.316 -0.75 -3.563 l -1.168 -4.727 l -1.918 0 l -1.211 4.855 c -0.266 1.094 -0.574 2.273 -0.766 3.434 l -0.039 0 c -0.172 -1.16 -0.383 -2.316 -0.594 -3.453 l -0.977 -4.836 l -2.418 0 l 2.762 10.652 l 2.203 0 l 1.191 -4.332 c 0.27 -1.047 0.516 -2.098 0.707 -3.41 l 0.039 0 c 0.211 1.289 0.426 2.297 0.711 3.41 l 1.113 4.332 l 2.188 0 l 2.934 -10.652 m -2.32 0" style="fill:#000;fill-opacity:1;stroke:none;fill-rule:nonzero"/>
       </g>
      </g>
     </g>
    </g>
   </g>
  </g>
 </g>
 <g>
  <g>
   <!-- color: #4f723e -->
   <g>
    <g>
     <g>
      <path d="m 12 16.488 l 0 14.496 c 0.789 0.109 1.859 0.195 3.285 0.195 c 2.594 0 4.711 -0.676 6.04 -2.01 c 1.27 -1.266 2.082 -3.234 2.082 -5.859 c 0 -2.516 -0.793 -4.262 -2.082 -5.422 c -1.227 -1.137 -2.949 -1.707 -5.441 -1.707 c -1.445 0 -2.813 0.109 -3.879 0.309 m 3.777 12.551 c -0.492 0 -1.01 0 -1.344 -0.063 l 0 -10.539 c 0.336 -0.09 0.891 -0.152 1.664 -0.152 c 3.047 0 4.75 1.855 4.727 5.113 c 0 3.719 -1.855 5.648 -4.992 5.648 c -0.016 0 -0.035 0 -0.055 0" style="fill:#86e603;fill-opacity:1;stroke:none;fill-rule:nonzero"/>
     </g>
    </g>
    <g>
     <g>
      <path d="m 35.2 20.379 l -1.035 4.727 c -0.25 1.246 -0.461 2.402 -0.617 3.563 l -0.035 0 c -0.211 -1.16 -0.461 -2.316 -0.75 -3.563 l -1.168 -4.727 l -1.918 0 l -1.211 4.855 c -0.266 1.094 -0.574 2.273 -0.766 3.434 l -0.039 0 c -0.172 -1.16 -0.383 -2.316 -0.594 -3.453 l -0.977 -4.836 l -2.418 0 l 2.762 10.652 l 2.203 0 l 1.191 -4.332 c 0.27 -1.047 0.516 -2.098 0.707 -3.41 l 0.039 0 c 0.211 1.289 0.426 2.297 0.711 3.41 l 1.113 4.332 l 2.188 0 l 2.934 -10.652 m -2.32 0" style="fill:#86e603;fill-opacity:1;stroke:none;fill-rule:nonzero"/>
     </g>
    </g>
   </g>
  </g>
 </g>
 <g>
  
 </g>
</svg>
