<svg xmlns="http://www.w3.org/2000/svg" viewBox="0 0 48 48">
 <defs>
  <linearGradient id="linearGradient3764" x1="1" x2="47" gradientUnits="userSpaceOnUse" gradientTransform="matrix(0,-1,1,0,-1.5e-6,47.999998)">
   <stop style="stop-color:#3c3779;stop-opacity:1"/>
   <stop offset="1" style="stop-color:#423d87;stop-opacity:1"/>
  </linearGradient>
 </defs>
 <g>
  
  
  
 </g>
 <g>
  <path d="m 47,24 C 47,46.703 46.703,47 24,47 1.297,47 1,46.703 1,24 1,1.297 1.297,1 24,1 46.703,1 47,1.297 47,24 z" style="fill:url(#linearGradient3764);fill-opacity:1"/>
 </g>
 <g>
  <g>
   <g transform="translate(1,1)">
    <g style="opacity:0.1">
     <!-- color: #423d87 -->
     <g>
      <g>
       <path d="m 17.359 31.01 l 2.563 0 l 0 -14.02 l -2.563 0 m 0 14.02" style="fill:#000;fill-opacity:1;stroke:none;fill-rule:nonzero"/>
      </g>
      <g>
       <g>
        <path d="m 28.734 16.234 l 0 5.742 l -0.039 0 c -0.418 -0.746 -1.336 -1.332 -2.613 -1.332 c -2.23 0 -4.176 2.02 -4.156 5.41 c 0 3.121 1.754 5.18 3.965 5.18 c 1.355 0 2.48 -0.707 3.035 -1.828 l 0.039 0 l 0.094 1.602 l 2.098 0 c -0.039 -0.688 -0.078 -1.809 -0.078 -2.852 l 0 -11.922 m -6.77 9.738 c 0 -1.895 0.84 -3.348 2.348 -3.348 c 1.066 0 1.809 0.809 2.02 1.809 c 0.039 0.207 0.059 0.457 0.059 0.664 l 0 1.52 c 0 0.273 -0.02 0.52 -0.078 0.75 c -0.227 1.102 -1.063 1.809 -2.02 1.809 c -1.488 0 -2.328 -1.352 -2.328 -3.203" style="fill:#000;fill-opacity:1;stroke:none;fill-rule:nonzero"/>
       </g>
      </g>
     </g>
    </g>
   </g>
  </g>
 </g>
 <g>
  <g>
   <!-- color: #423d87 -->
   <g>
    <g>
     <path d="m 17.359 31.01 l 2.563 0 l 0 -14.02 l -2.563 0 m 0 14.02" style="fill:#e54da8;fill-opacity:1;stroke:none;fill-rule:nonzero"/>
    </g>
    <g>
     <g>
      <path d="m 28.734 16.234 l 0 5.742 l -0.039 0 c -0.418 -0.746 -1.336 -1.332 -2.613 -1.332 c -2.23 0 -4.176 2.02 -4.156 5.41 c 0 3.121 1.754 5.18 3.965 5.18 c 1.355 0 2.48 -0.707 3.035 -1.828 l 0.039 0 l 0.094 1.602 l 2.098 0 c -0.039 -0.688 -0.078 -1.809 -0.078 -2.852 l 0 -11.922 m -6.77 9.738 c 0 -1.895 0.84 -3.348 2.348 -3.348 c 1.066 0 1.809 0.809 2.02 1.809 c 0.039 0.207 0.059 0.457 0.059 0.664 l 0 1.52 c 0 0.273 -0.02 0.52 -0.078 0.75 c -0.227 1.102 -1.063 1.809 -2.02 1.809 c -1.488 0 -2.328 -1.352 -2.328 -3.203" style="fill:#e54da8;fill-opacity:1;stroke:none;fill-rule:nonzero"/>
     </g>
    </g>
   </g>
  </g>
 </g>
 <g>
  
 </g>
</svg>
