<svg viewBox="0 0 48 48" xmlns="http://www.w3.org/2000/svg" xmlns:xlink="http://www.w3.org/1999/xlink">
  <linearGradient id="a" gradientTransform="matrix(0 -1 1 0 -.0000015 47.999998)" gradientUnits="userSpaceOnUse" x1="1" x2="47">
    <stop offset="0" stop-color="#755723"/>
    <stop offset="1" stop-color="#846228"/>
  </linearGradient>
  <path d="m47 24c0 22.703-.297 23-23 23-22.703 0-23-.297-23-23 0-22.703.297-23 23-23 22.703 0 23 .297 23 23z" fill="url(#a)"/>
  <g opacity=".1" transform="translate(1 1)">
    <path d="m19.695 16.332l-4.695 14.652h2.762l1.262-4.152h4.652l1.324 4.152h2.871l-4.762-14.652m-2.523 4.871c.262-.871.48-1.895.699-2.742h.043c.215.848.457 1.848.738 2.742l1.152 3.605h-3.762l1.129-3.609m0 .004"/>
    <path d="m28.762 17.441c0 .805.586 1.434 1.477 1.434.934 0 1.523-.629 1.523-1.434-.023-.828-.59-1.457-1.5-1.457-.891 0-1.5.629-1.5 1.457m.152 13.543h2.695v-10.586h-2.695m0 10.586"/>
  </g>
  <path d="m19.695 16.332l-4.695 14.652h2.762l1.262-4.152h4.652l1.324 4.152h2.871l-4.762-14.652m-2.523 4.871c.262-.871.48-1.895.699-2.742h.043c.215.848.457 1.848.738 2.742l1.152 3.605h-3.762l1.129-3.609m0 .004" fill="#fbb036"/>
  <path d="m28.762 17.441c0 .805.586 1.434 1.477 1.434.934 0 1.523-.629 1.523-1.434-.023-.828-.59-1.457-1.5-1.457-.891 0-1.5.629-1.5 1.457m.152 13.543h2.695v-10.586h-2.695m0 10.586" fill="#fbb036"/>
</svg>
