<svg viewBox="0 0 48 48" xmlns="http://www.w3.org/2000/svg" xmlns:xlink="http://www.w3.org/1999/xlink">
  <linearGradient id="a" gradientTransform="matrix(0 -1 1 0 -.0000015 47.999998)" gradientUnits="userSpaceOnUse" x1="1" x2="47">
    <stop offset="0" stop-color="#844a30"/>
    <stop offset="1" stop-color="#935235"/>
  </linearGradient>
  <path d="m47 24c0 22.703-.297 23-23 23-22.703 0-23-.297-23-23 0-22.703.297-23 23-23 22.703 0 23 .297 23 23z" fill="url(#a)"/>
  <g opacity=".1" transform="translate(1 1)">
    <path d="m15.5 16.977v14.02h2.559v-5.949h5.16v-2.102h-5.16v-3.871h5.535v-2.102m-8.094 0"/>
    <path d="m25.09 16.32v11.922c0 1.043-.035 2.164-.074 2.852h2.094l.094-1.602h.039c.555 1.121 1.676 1.828 3.03 1.828 2.207 0 3.961-2.059 3.961-5.18.02-3.391-1.926-5.41-4.152-5.41-1.277 0-2.191.586-2.609 1.332h-.039v-5.742m.078 11.133c-.059-.23-.078-.48-.078-.75v-1.52c0-.207.02-.457.059-.664.207-1 .949-1.813 2.02-1.813 1.5 0 2.34 1.457 2.34 3.352 0 1.852-.836 3.203-2.324 3.203-.949 0-1.789-.707-2.02-1.809"/>
  </g>
  <path d="m15.5 16.977v14.02h2.559v-5.949h5.16v-2.102h-5.16v-3.871h5.535v-2.102m-8.094 0" fill="#fb7f35"/>
  <path d="m25.09 16.32v11.922c0 1.043-.035 2.164-.074 2.852h2.094l.094-1.602h.039c.555 1.121 1.676 1.828 3.03 1.828 2.207 0 3.961-2.059 3.961-5.18.02-3.391-1.926-5.41-4.152-5.41-1.277 0-2.191.586-2.609 1.332h-.039v-5.742m.078 11.133c-.059-.23-.078-.48-.078-.75v-1.52c0-.207.02-.457.059-.664.207-1 .949-1.813 2.02-1.813 1.5 0 2.34 1.457 2.34 3.352 0 1.852-.836 3.203-2.324 3.203-.949 0-1.789-.707-2.02-1.809" fill="#fb7f35"/>
</svg>
