<svg viewBox="0 0 48 48" xmlns="http://www.w3.org/2000/svg" xmlns:xlink="http://www.w3.org/1999/xlink">
  <linearGradient id="a" gradientTransform="matrix(0 -1 1 0 -.0000015 47.999998)" gradientUnits="userSpaceOnUse" x1="1" x2="47">
    <stop offset="0" stop-color="#53532d"/>
    <stop offset="1" stop-color="#606034"/>
  </linearGradient>
  <path d="m47 24c0 22.703-.297 23-23 23-22.703 0-23-.297-23-23 0-22.703.297-23 23-23 22.703 0 23 .297 23 23z" fill="url(#a)"/>
  <g opacity=".1" transform="translate(1 1)">
    <path d="m13 16v15h2.738v-6.363h5.52v-2.25h-5.52v-4.137h5.922v-2.25m-8.66 0"/>
    <path d="m34.383 20.16l-1.113 4.805c-.266 1.27-.492 2.449-.656 3.629h-.043c-.227-1.18-.492-2.359-.805-3.629l-1.254-4.805h-2.063l-1.297 4.941c-.289 1.113-.621 2.313-.828 3.492h-.039c-.188-1.18-.414-2.359-.641-3.516l-1.051-4.918h-2.594l2.965 10.836h2.371l1.277-4.406c.289-1.066.555-2.137.762-3.473h.043c.227 1.313.453 2.336.762 3.473l1.195 4.406h2.348l3.156-10.836m-2.496 0"/>
  </g>
  <path d="m13 16v15h2.738v-6.363h5.52v-2.25h-5.52v-4.137h5.922v-2.25m-8.66 0" fill="#e5d703"/>
  <path d="m34.383 20.16l-1.113 4.805c-.266 1.27-.492 2.449-.656 3.629h-.043c-.227-1.18-.492-2.359-.805-3.629l-1.254-4.805h-2.063l-1.297 4.941c-.289 1.113-.621 2.313-.828 3.492h-.039c-.188-1.18-.414-2.359-.641-3.516l-1.051-4.918h-2.594l2.965 10.836h2.371l1.277-4.406c.289-1.066.555-2.137.762-3.473h.043c.227 1.313.453 2.336.762 3.473l1.195 4.406h2.348l3.156-10.836m-2.496 0" fill="#e5d703"/>
</svg>
