<svg xmlns="http://www.w3.org/2000/svg" viewBox="0 0 48 48">
 <defs>
  <linearGradient id="linearGradient3764" x1="1" x2="47" gradientUnits="userSpaceOnUse" gradientTransform="matrix(0,-1,1,0,-1.5e-6,47.999998)">
   <stop style="stop-color:#53532d;stop-opacity:1"/>
   <stop offset="1" style="stop-color:#606034;stop-opacity:1"/>
  </linearGradient>
 </defs>
 <g>
  
  
  
 </g>
 <g>
  <path d="m 47,24 C 47,46.703 46.703,47 24,47 1.297,47 1,46.703 1,24 1,1.297 1.297,1 24,1 46.703,1 47,1.297 47,24 z" style="fill:url(#linearGradient3764);fill-opacity:1"/>
 </g>
 <g>
  <g>
   <g transform="translate(1,1)">
    <g style="opacity:0.1">
     <!-- color: #606034 -->
     <g>
      <g>
       <path d="m 13 16 l 0 15 l 2.738 0 l 0 -6.363 l 5.52 0 l 0 -2.25 l -5.52 0 l 0 -4.137 l 5.922 0 l 0 -2.25 m -8.66 0" style="fill:#000;fill-opacity:1;stroke:none;fill-rule:nonzero"/>
      </g>
      <g>
       <g>
        <path d="m 34.383 20.16 l -1.113 4.805 c -0.266 1.27 -0.492 2.449 -0.656 3.629 l -0.043 0 c -0.227 -1.18 -0.492 -2.359 -0.805 -3.629 l -1.254 -4.805 l -2.063 0 l -1.297 4.941 c -0.289 1.113 -0.621 2.313 -0.828 3.492 l -0.039 0 c -0.188 -1.18 -0.414 -2.359 -0.641 -3.516 l -1.051 -4.918 l -2.594 0 l 2.965 10.836 l 2.371 0 l 1.277 -4.406 c 0.289 -1.066 0.555 -2.137 0.762 -3.473 l 0.043 0 c 0.227 1.313 0.453 2.336 0.762 3.473 l 1.195 4.406 l 2.348 0 l 3.156 -10.836 m -2.496 0" style="fill:#000;fill-opacity:1;stroke:none;fill-rule:nonzero"/>
       </g>
      </g>
     </g>
    </g>
   </g>
  </g>
 </g>
 <g>
  <g>
   <!-- color: #606034 -->
   <g>
    <g>
     <path d="m 13 16 l 0 15 l 2.738 0 l 0 -6.363 l 5.52 0 l 0 -2.25 l -5.52 0 l 0 -4.137 l 5.922 0 l 0 -2.25 m -8.66 0" style="fill:#e5d703;fill-opacity:1;stroke:none;fill-rule:nonzero"/>
    </g>
    <g>
     <g>
      <path d="m 34.383 20.16 l -1.113 4.805 c -0.266 1.27 -0.492 2.449 -0.656 3.629 l -0.043 0 c -0.227 -1.18 -0.492 -2.359 -0.805 -3.629 l -1.254 -4.805 l -2.063 0 l -1.297 4.941 c -0.289 1.113 -0.621 2.313 -0.828 3.492 l -0.039 0 c -0.188 -1.18 -0.414 -2.359 -0.641 -3.516 l -1.051 -4.918 l -2.594 0 l 2.965 10.836 l 2.371 0 l 1.277 -4.406 c 0.289 -1.066 0.555 -2.137 0.762 -3.473 l 0.043 0 c 0.227 1.313 0.453 2.336 0.762 3.473 l 1.195 4.406 l 2.348 0 l 3.156 -10.836 m -2.496 0" style="fill:#e5d703;fill-opacity:1;stroke:none;fill-rule:nonzero"/>
     </g>
    </g>
   </g>
  </g>
 </g>
 <g>
  
 </g>
</svg>
