<svg xmlns="http://www.w3.org/2000/svg" viewBox="0 0 48 48">
 <defs>
  <linearGradient id="linearGradient3764" x1="1" x2="47" gradientUnits="userSpaceOnUse" gradientTransform="matrix(0,-1,1,0,-1.5e-6,47.999998)">
   <stop style="stop-color:#453789;stop-opacity:1"/>
   <stop offset="1" style="stop-color:#4b3d97;stop-opacity:1"/>
  </linearGradient>
 </defs>
 <g>
  
  
  
 </g>
 <g>
  <path d="m 47,24 C 47,46.703 46.703,47 24,47 1.297,47 1,46.703 1,24 1,1.297 1.297,1 24,1 46.703,1 47,1.297 47,24 z" style="fill:url(#linearGradient3764);fill-opacity:1"/>
 </g>
 <g>
  <g>
   <g transform="translate(1,1)">
    <g style="opacity:0.1">
     <!-- color: #4b3d97 -->
     <g>
      <g>
       <path d="m 14 16 l 0 15 l 9.06 0 l 0 -2.25 l -6.32 0 l 0 -4.406 l 5.652 0 l 0 -2.223 l -5.652 0 l 0 -3.875 l 5.984 0 l 0 -2.246 m -8.723 0" style="fill:#000;fill-opacity:1;stroke:none;fill-rule:nonzero"/>
      </g>
      <g>
       <g>
        <path d="m 27.652 21.785 l -0.063 0 l -0.121 -1.625 l -2.207 0 c 0.063 0.934 0.082 1.98 0.082 3.227 l 0 7.613 l 2.531 0 l 0 -6.367 c 0 -0.309 0.02 -0.645 0.102 -0.887 c 0.266 -0.824 0.961 -1.605 1.961 -1.605 c 1.367 0 1.898 1.18 1.898 2.738 l 0 6.121 l 2.512 0 l 0 -6.434 c 0 -3.426 -1.797 -4.648 -3.531 -4.648 c -1.652 0 -2.738 1.023 -3.164 1.867" style="fill:#000;fill-opacity:1;stroke:none;fill-rule:nonzero"/>
       </g>
      </g>
     </g>
    </g>
   </g>
  </g>
 </g>
 <g>
  <g>
   <!-- color: #4b3d97 -->
   <g>
    <g>
     <path d="m 14 16 l 0 15 l 9.06 0 l 0 -2.25 l -6.32 0 l 0 -4.406 l 5.652 0 l 0 -2.223 l -5.652 0 l 0 -3.875 l 5.984 0 l 0 -2.246 m -8.723 0" style="fill:#9caff8;fill-opacity:1;stroke:none;fill-rule:nonzero"/>
    </g>
    <g>
     <g>
      <path d="m 27.652 21.785 l -0.063 0 l -0.121 -1.625 l -2.207 0 c 0.063 0.934 0.082 1.98 0.082 3.227 l 0 7.613 l 2.531 0 l 0 -6.367 c 0 -0.309 0.02 -0.645 0.102 -0.887 c 0.266 -0.824 0.961 -1.605 1.961 -1.605 c 1.367 0 1.898 1.18 1.898 2.738 l 0 6.121 l 2.512 0 l 0 -6.434 c 0 -3.426 -1.797 -4.648 -3.531 -4.648 c -1.652 0 -2.738 1.023 -3.164 1.867" style="fill:#9caff8;fill-opacity:1;stroke:none;fill-rule:nonzero"/>
     </g>
    </g>
   </g>
  </g>
 </g>
 <g>
  
 </g>
</svg>
