<svg xmlns="http://www.w3.org/2000/svg" viewBox="0 0 48 48">
 <defs>
  <linearGradient id="linearGradient3764" x1="1" x2="47" gradientUnits="userSpaceOnUse" gradientTransform="matrix(0,-1,1,0,-1.5e-6,47.999998)">
   <stop style="stop-color:#844a30;stop-opacity:1"/>
   <stop offset="1" style="stop-color:#935235;stop-opacity:1"/>
  </linearGradient>
 </defs>
 <g>
  
  
  
 </g>
 <g>
  <path d="m 47,24 C 47,46.703 46.703,47 24,47 1.297,47 1,46.703 1,24 1,1.297 1.297,1 24,1 46.703,1 47,1.297 47,24 z" style="fill:url(#linearGradient3764);fill-opacity:1"/>
 </g>
 <g>
  <g>
   <g transform="translate(1,1)">
    <g style="opacity:0.1">
     <!-- color: #935235 -->
     <g>
      <g>
       <path d="m 15.5 16.977 l 0 14.02 l 2.559 0 l 0 -5.949 l 5.16 0 l 0 -2.102 l -5.16 0 l 0 -3.871 l 5.535 0 l 0 -2.102 m -8.094 0" style="fill:#000;fill-opacity:1;stroke:none;fill-rule:nonzero"/>
      </g>
      <g>
       <g>
        <path d="m 25.09 16.32 l 0 11.922 c 0 1.043 -0.035 2.164 -0.074 2.852 l 2.094 0 l 0.094 -1.602 l 0.039 0 c 0.555 1.121 1.676 1.828 3.03 1.828 c 2.207 0 3.961 -2.059 3.961 -5.18 c 0.02 -3.391 -1.926 -5.41 -4.152 -5.41 c -1.277 0 -2.191 0.586 -2.609 1.332 l -0.039 0 l 0 -5.742 m 0.078 11.133 c -0.059 -0.23 -0.078 -0.48 -0.078 -0.75 l 0 -1.52 c 0 -0.207 0.02 -0.457 0.059 -0.664 c 0.207 -1 0.949 -1.813 2.02 -1.813 c 1.5 0 2.34 1.457 2.34 3.352 c 0 1.852 -0.836 3.203 -2.324 3.203 c -0.949 0 -1.789 -0.707 -2.02 -1.809" style="fill:#000;fill-opacity:1;stroke:none;fill-rule:nonzero"/>
       </g>
      </g>
     </g>
    </g>
   </g>
  </g>
 </g>
 <g>
  <g>
   <!-- color: #935235 -->
   <g>
    <g>
     <path d="m 15.5 16.977 l 0 14.02 l 2.559 0 l 0 -5.949 l 5.16 0 l 0 -2.102 l -5.16 0 l 0 -3.871 l 5.535 0 l 0 -2.102 m -8.094 0" style="fill:#fb7f35;fill-opacity:1;stroke:none;fill-rule:nonzero"/>
    </g>
    <g>
     <g>
      <path d="m 25.09 16.32 l 0 11.922 c 0 1.043 -0.035 2.164 -0.074 2.852 l 2.094 0 l 0.094 -1.602 l 0.039 0 c 0.555 1.121 1.676 1.828 3.03 1.828 c 2.207 0 3.961 -2.059 3.961 -5.18 c 0.02 -3.391 -1.926 -5.41 -4.152 -5.41 c -1.277 0 -2.191 0.586 -2.609 1.332 l -0.039 0 l 0 -5.742 m 0.078 11.133 c -0.059 -0.23 -0.078 -0.48 -0.078 -0.75 l 0 -1.52 c 0 -0.207 0.02 -0.457 0.059 -0.664 c 0.207 -1 0.949 -1.813 2.02 -1.813 c 1.5 0 2.34 1.457 2.34 3.352 c 0 1.852 -0.836 3.203 -2.324 3.203 c -0.949 0 -1.789 -0.707 -2.02 -1.809" style="fill:#fb7f35;fill-opacity:1;stroke:none;fill-rule:nonzero"/>
     </g>
    </g>
   </g>
  </g>
 </g>
 <g>
  
 </g>
</svg>
