<svg xmlns="http://www.w3.org/2000/svg" viewBox="0 0 48 48">
 <defs>
  <linearGradient id="linearGradient3764" x1="1" x2="47" gradientUnits="userSpaceOnUse" gradientTransform="matrix(0,-1,1,0,-1.5e-6,47.999998)">
   <stop style="stop-color:#685030;stop-opacity:1"/>
   <stop offset="1" style="stop-color:#765a36;stop-opacity:1"/>
  </linearGradient>
 </defs>
 <g>
  
  
  
 </g>
 <g>
  <path d="m 47,24 C 47,46.703 46.703,47 24,47 1.297,47 1,46.703 1,24 1,1.297 1.297,1 24,1 46.703,1 47,1.297 47,24 z" style="fill:url(#linearGradient3764);fill-opacity:1"/>
 </g>
 <g>
  <g>
   <g transform="translate(1,1)">
    <g style="opacity:0.1">
     <!-- color: #765a36 -->
     <g>
      <g>
       <g>
        <path d="m 15 16.457 l 0 14.496 c 0.68 0.086 1.816 0.195 3.301 0.195 c 2.691 0 4.418 -0.457 5.469 -1.375 c 0.852 -0.699 1.422 -1.73 1.422 -3.039 c 0 -2.035 -1.422 -3.258 -2.977 -3.652 l 0 -0.043 c 1.598 -0.594 2.453 -1.84 2.453 -3.195 c 0 -1.246 -0.613 -2.207 -1.531 -2.754 c -1.01 -0.699 -2.23 -0.941 -4.223 -0.941 c -1.508 0 -3.059 0.133 -3.914 0.309 m 2.672 1.793 c 0.281 -0.066 0.742 -0.109 1.527 -0.109 c 1.707 0 2.758 0.633 2.758 2.01 c 0 1.246 -1.051 2.121 -2.91 2.121 l -1.375 0 m 0 6.777 l 0 -4.809 l 1.332 0 c 1.859 0 3.344 0.699 3.344 2.402 c 0 1.816 -1.531 2.473 -3.258 2.473 c -0.609 0 -1.07 0 -1.422 -0.066" style="fill:#000;fill-opacity:1;stroke:none;fill-rule:nonzero"/>
       </g>
      </g>
      <g>
       <g>
        <path d="m 29.91 22.383 l -0.086 0 l -0.086 -2.035 l -2.34 0 c 0.063 0.961 0.086 1.992 0.086 3.434 l 0 7.215 l 2.691 0 l 0 -5.512 c 0 -0.305 0.043 -0.59 0.086 -0.828 c 0.242 -1.203 1.113 -2.035 2.406 -2.035 c 0.328 0 0.566 0.043 0.785 0.086 l 0 -2.535 c -0.219 -0.043 -0.371 -0.066 -0.633 -0.066 c -1.137 0 -2.383 0.766 -2.91 2.273" style="fill:#000;fill-opacity:1;stroke:none;fill-rule:nonzero"/>
       </g>
      </g>
     </g>
    </g>
   </g>
  </g>
 </g>
 <g>
  <g>
   <!-- color: #765a36 -->
   <g>
    <g>
     <g>
      <path d="m 15 16.457 l 0 14.496 c 0.68 0.086 1.816 0.195 3.301 0.195 c 2.691 0 4.418 -0.457 5.469 -1.375 c 0.852 -0.699 1.422 -1.73 1.422 -3.039 c 0 -2.035 -1.422 -3.258 -2.977 -3.652 l 0 -0.043 c 1.598 -0.594 2.453 -1.84 2.453 -3.195 c 0 -1.246 -0.613 -2.207 -1.531 -2.754 c -1.01 -0.699 -2.23 -0.941 -4.223 -0.941 c -1.508 0 -3.059 0.133 -3.914 0.309 m 2.672 1.793 c 0.281 -0.066 0.742 -0.109 1.527 -0.109 c 1.707 0 2.758 0.633 2.758 2.01 c 0 1.246 -1.051 2.121 -2.91 2.121 l -1.375 0 m 0 6.777 l 0 -4.809 l 1.332 0 c 1.859 0 3.344 0.699 3.344 2.402 c 0 1.816 -1.531 2.473 -3.258 2.473 c -0.609 0 -1.07 0 -1.422 -0.066" style="fill:#ecbf03;fill-opacity:1;stroke:none;fill-rule:nonzero"/>
     </g>
    </g>
    <g>
     <g>
      <path d="m 29.91 22.383 l -0.086 0 l -0.086 -2.035 l -2.34 0 c 0.063 0.961 0.086 1.992 0.086 3.434 l 0 7.215 l 2.691 0 l 0 -5.512 c 0 -0.305 0.043 -0.59 0.086 -0.828 c 0.242 -1.203 1.113 -2.035 2.406 -2.035 c 0.328 0 0.566 0.043 0.785 0.086 l 0 -2.535 c -0.219 -0.043 -0.371 -0.066 -0.633 -0.066 c -1.137 0 -2.383 0.766 -2.91 2.273" style="fill:#ecbf03;fill-opacity:1;stroke:none;fill-rule:nonzero"/>
     </g>
    </g>
   </g>
  </g>
 </g>
 <g>
  
 </g>
</svg>
