<svg viewBox="0 0 48 48" xmlns="http://www.w3.org/2000/svg" xmlns:xlink="http://www.w3.org/1999/xlink">
  <linearGradient id="a" gradientTransform="matrix(0 -1 1 0 -.0000015 47.999998)" gradientUnits="userSpaceOnUse" x1="1" x2="47">
    <stop offset="0" stop-color="#3e435e"/>
    <stop offset="1" stop-color="#464c6a"/>
  </linearGradient>
  <linearGradient id="b" gradientTransform="matrix(16.743704 0 0 16.743704 16.034973 23.499984)" gradientUnits="userSpaceOnUse" x1="0" x2="1">
    <stop offset="0" stop-color="#c1deec"/>
    <stop offset="1" stop-color="#99c1cd"/>
  </linearGradient>
  <path d="m24 1c22.703 0 23 .297 23 23 0 22.703-.297 23-23 23-22.703 0-23-.297-23-23 0-22.703.297-23 23-23z" fill="url(#a)"/>
  <path d="m17 17v15h8.902v-2.293h-6.168v-12.707m-2.734 0" opacity=".1"/>
  <path d="m30.332 23.23h-.09l-.09-2.07h-2.379c.066.98.09 2.027.09 3.496v7.344h2.734v-5.609c0-.309.047-.602.09-.844.246-1.227 1.137-2.07 2.449-2.07.332 0 .578.043.801.09v-2.582c-.223-.043-.379-.066-.645-.066-1.156 0-2.426.777-2.961 2.313" opacity=".1"/>
  <path d="m16 16v15h8.902v-2.293h-6.168v-12.707m-2.734 0" fill="url(#b)"/>
  <path d="m29.332 22.23h-.09l-.09-2.07h-2.379c.066.98.09 2.027.09 3.496v7.344h2.734v-5.609c0-.309.047-.602.09-.844.246-1.227 1.137-2.07 2.449-2.07.332 0 .578.043.801.09v-2.582c-.223-.043-.379-.066-.645-.066-1.156 0-2.426.777-2.961 2.313" fill="url(#b)"/>
</svg>
