<svg xmlns="http://www.w3.org/2000/svg" viewBox="0 0 48 48">
 <defs>
  <linearGradient id="linearGradient3764" x1="1" x2="47" gradientUnits="userSpaceOnUse" gradientTransform="matrix(0,-1,1,0,-1.5e-6,47.999998)">
   <stop style="stop-color:#553c64;stop-opacity:1"/>
   <stop offset="1" style="stop-color:#5f4371;stop-opacity:1"/>
  </linearGradient>
 </defs>
 <g>
  
  
  
 </g>
 <g>
  <path d="m 47,24 C 47,46.703 46.703,47 24,47 1.297,47 1,46.703 1,24 1,1.297 1.297,1 24,1 46.703,1 47,1.297 47,24 z" style="fill:url(#linearGradient3764);fill-opacity:1"/>
 </g>
 <g>
  <g>
   <g transform="translate(1,1)">
    <g style="opacity:0.1">
     <!-- color: #5f4371 -->
     <g>
      <g>
       <g>
        <path d="m 16 16.309 l 0 14.691 l 2.695 0 l 0 -5.609 c 0.355 0.066 0.816 0.09 1.324 0.09 c 1.922 0 3.625 -0.508 4.707 -1.594 c 0.84 -0.793 1.281 -1.965 1.281 -3.379 c 0 -1.391 -0.574 -2.563 -1.461 -3.289 c -0.949 -0.797 -2.406 -1.219 -4.395 -1.219 c -1.832 0 -3.18 0.133 -4.152 0.313 m 2.695 6.938 l 0 -5.04 c 0.289 -0.066 0.816 -0.133 1.57 -0.133 c 1.875 0 3.03 0.883 3.03 2.543 c 0 1.742 -1.238 2.738 -3.27 2.738 c -0.555 0 -0.996 -0.023 -1.328 -0.109" style="fill:#000;fill-opacity:1;stroke:none;fill-rule:nonzero"/>
       </g>
      </g>
      <g>
       <g>
        <path d="m 30.426 22.297 l -0.09 0 l -0.086 -2.055 l -2.363 0 c 0.066 0.973 0.086 2.01 0.086 3.469 l 0 7.289 l 2.719 0 l 0 -5.566 c 0 -0.309 0.043 -0.594 0.086 -0.84 c 0.246 -1.215 1.129 -2.055 2.43 -2.055 c 0.332 0 0.578 0.047 0.797 0.09 l 0 -2.563 c -0.219 -0.043 -0.375 -0.066 -0.641 -0.066 c -1.148 0 -2.406 0.773 -2.938 2.297" style="fill:#000;fill-opacity:1;stroke:none;fill-rule:nonzero"/>
       </g>
      </g>
     </g>
    </g>
   </g>
  </g>
 </g>
 <g>
  <g>
   <!-- color: #5f4371 -->
   <g>
    <g>
     <g>
      <path d="m 16 16.309 l 0 14.691 l 2.695 0 l 0 -5.609 c 0.355 0.066 0.816 0.09 1.324 0.09 c 1.922 0 3.625 -0.508 4.707 -1.594 c 0.84 -0.793 1.281 -1.965 1.281 -3.379 c 0 -1.391 -0.574 -2.563 -1.461 -3.289 c -0.949 -0.797 -2.406 -1.219 -4.395 -1.219 c -1.832 0 -3.18 0.133 -4.152 0.313 m 2.695 6.938 l 0 -5.04 c 0.289 -0.066 0.816 -0.133 1.57 -0.133 c 1.875 0 3.03 0.883 3.03 2.543 c 0 1.742 -1.238 2.738 -3.27 2.738 c -0.555 0 -0.996 -0.023 -1.328 -0.109" style="fill:#d77cfb;fill-opacity:1;stroke:none;fill-rule:nonzero"/>
     </g>
    </g>
    <g>
     <g>
      <path d="m 30.426 22.297 l -0.09 0 l -0.086 -2.055 l -2.363 0 c 0.066 0.973 0.086 2.01 0.086 3.469 l 0 7.289 l 2.719 0 l 0 -5.566 c 0 -0.309 0.043 -0.594 0.086 -0.84 c 0.246 -1.215 1.129 -2.055 2.43 -2.055 c 0.332 0 0.578 0.047 0.797 0.09 l 0 -2.563 c -0.219 -0.043 -0.375 -0.066 -0.641 -0.066 c -1.148 0 -2.406 0.773 -2.938 2.297" style="fill:#d77cfb;fill-opacity:1;stroke:none;fill-rule:nonzero"/>
     </g>
    </g>
   </g>
  </g>
 </g>
 <g>
  
 </g>
</svg>
