<svg viewBox="0 0 48 48" xmlns="http://www.w3.org/2000/svg" xmlns:xlink="http://www.w3.org/1999/xlink">
  <linearGradient id="a" gradientTransform="matrix(0 -1 1 0 -.0000015 47.999998)" gradientUnits="userSpaceOnUse" x1="1" x2="47">
    <stop offset="0" stop-color="#3c3779"/>
    <stop offset="1" stop-color="#423d87"/>
  </linearGradient>
  <path d="m47 24c0 22.703-.297 23-23 23-22.703 0-23-.297-23-23 0-22.703.297-23 23-23 22.703 0 23 .297 23 23z" fill="url(#a)"/>
  <g opacity=".1" transform="translate(1 1)">
    <path d="m17.359 31.01h2.563v-14.02h-2.563m0 14.02"/>
    <path d="m28.734 16.234v5.742h-.039c-.418-.746-1.336-1.332-2.613-1.332-2.23 0-4.176 2.02-4.156 5.41 0 3.121 1.754 5.18 3.965 5.18 1.355 0 2.48-.707 3.035-1.828h.039l.094 1.602h2.098c-.039-.688-.078-1.809-.078-2.852v-11.922m-6.77 9.738c0-1.895.84-3.348 2.348-3.348 1.066 0 1.809.809 2.02 1.809.039.207.059.457.059.664v1.52c0 .273-.02.52-.078.75-.227 1.102-1.063 1.809-2.02 1.809-1.488 0-2.328-1.352-2.328-3.203"/>
  </g>
  <path d="m17.359 31.01h2.563v-14.02h-2.563m0 14.02" fill="#e54da8"/>
  <path d="m28.734 16.234v5.742h-.039c-.418-.746-1.336-1.332-2.613-1.332-2.23 0-4.176 2.02-4.156 5.41 0 3.121 1.754 5.18 3.965 5.18 1.355 0 2.48-.707 3.035-1.828h.039l.094 1.602h2.098c-.039-.688-.078-1.809-.078-2.852v-11.922m-6.77 9.738c0-1.895.84-3.348 2.348-3.348 1.066 0 1.809.809 2.02 1.809.039.207.059.457.059.664v1.52c0 .273-.02.52-.078.75-.227 1.102-1.063 1.809-2.02 1.809-1.488 0-2.328-1.352-2.328-3.203" fill="#e54da8"/>
</svg>
