<svg viewBox="0 0 48 48" xmlns="http://www.w3.org/2000/svg" xmlns:xlink="http://www.w3.org/1999/xlink">
  <linearGradient id="a" gradientTransform="matrix(0 -1 1 0 -.0000015 47.999998)" gradientUnits="userSpaceOnUse" x1="1" x2="47">
    <stop offset="0" stop-color="#b93b3b"/>
    <stop offset="1" stop-color="#c34545"/>
  </linearGradient>
  <path d="m47 24c0 22.703-.297 23-23 23-22.703 0-23-.297-23-23 0-22.703.297-23 23-23 22.703 0 23 .297 23 23z" fill="url(#a)"/>
  <path d="m26.16 11.02c-2.156.164-3.715 1.547-4.602 4.141-1.289 3.742-3.465 5.969-7.281 7.422-2.258.855-3.051 1.43-3.754 2.781-.566 1.086-.684 2.68-.316 4.01.246.887 1.523 2.352 2.523 2.871.941.496 2.715.559 5.328.16 1.531-.234 1.901-.246 3.313.031 1.98.391 3.852 1.336 5.453 2.719 1.48 1.281 2.07 1.587 3.215 1.771 1.109.172 1.965.063 3.09-.41 1-.422 2.105-1.551 2.555-2.594.168-.383.313-1.236.316-1.928.004-1.492-.453-2.512-1.641-3.887-1.16-1.34-1.984-2.675-2.461-3.979-.563-1.547-.684-4.658-.25-6.604.484-2.18.078-3.69-1.355-5.05-1.012-.957-1.828-1.344-3.188-1.453-.332-.027-.637-.023-.945 0v-.004zm-1.66 9.98a4.5 4.5 0 0 1 4.5 4.5 4.5 4.5 0 0 1-4.5 4.5 4.5 4.5 0 0 1-4.5-4.5 4.5 4.5 0 0 1  4.5-4.5" opacity=".1" transform="translate(1.003932 .99752248)"/>
  <path d="m26.16 11.02c-2.156.164-3.715 1.547-4.602 4.141-1.289 3.742-3.465 5.969-7.281 7.422-2.258.855-3.051 1.43-3.754 2.781-.566 1.086-.684 2.68-.316 4.01.246.887 1.523 2.352 2.523 2.871.941.496 2.715.559 5.328.16 1.531-.234 1.902-.246 3.313.031 1.98.391 3.852 1.336 5.453 2.719 1.48 1.281 2.07 1.587 3.215 1.771 1.109.172 1.965.063 3.09-.41 1-.422 2.105-1.551 2.555-2.594.168-.383.313-1.236.316-1.928.004-1.492-.453-2.512-1.641-3.887-1.16-1.34-1.984-2.675-2.461-3.979-.563-1.547-.684-4.658-.25-6.604.484-2.18.078-3.69-1.355-5.05-1.012-.957-1.828-1.344-3.188-1.453-.332-.027-.637-.023-.945 0v-.004zm-1.66 9.98a4.5 4.5 0 0 1 4.5 4.5 4.5 4.5 0 0 1-4.5 4.5 4.5 4.5 0 0 1-4.5-4.5 4.5 4.5 0 0 1  4.5-4.5z" fill="#f9f9f9"/>
</svg>
