<svg viewBox="0 0 48 48" xmlns="http://www.w3.org/2000/svg" xmlns:xlink="http://www.w3.org/1999/xlink">
  <linearGradient id="a" gradientTransform="matrix(0 -1 1 0 -.0000015 47.999998)" gradientUnits="userSpaceOnUse" x1="1" x2="47">
    <stop offset="0" stop-color="#685030"/>
    <stop offset="1" stop-color="#765a36"/>
  </linearGradient>
  <path d="m47 24c0 22.703-.297 23-23 23-22.703 0-23-.297-23-23 0-22.703.297-23 23-23 22.703 0 23 .297 23 23z" fill="url(#a)"/>
  <g opacity=".1" transform="translate(1 1)">
    <path d="m15 16.457v14.496c.68.086 1.816.195 3.301.195 2.691 0 4.418-.457 5.469-1.375.852-.699 1.422-1.73 1.422-3.039 0-2.035-1.422-3.258-2.977-3.652v-.043c1.598-.594 2.453-1.84 2.453-3.195 0-1.246-.613-2.207-1.531-2.754-1.01-.699-2.23-.941-4.223-.941-1.508 0-3.059.133-3.914.309m2.672 1.793c.281-.066.742-.109 1.527-.109 1.707 0 2.758.633 2.758 2.01 0 1.246-1.051 2.121-2.91 2.121h-1.375m0 6.777v-4.809h1.332c1.859 0 3.344.699 3.344 2.402 0 1.816-1.531 2.473-3.258 2.473-.609 0-1.07 0-1.422-.066"/>
    <path d="m29.91 22.383h-.086l-.086-2.035h-2.34c.063.961.086 1.992.086 3.434v7.215h2.691v-5.512c0-.305.043-.59.086-.828.242-1.203 1.113-2.035 2.406-2.035.328 0 .566.043.785.086v-2.535c-.219-.043-.371-.066-.633-.066-1.137 0-2.383.766-2.91 2.273"/>
  </g>
  <path d="m15 16.457v14.496c.68.086 1.816.195 3.301.195 2.691 0 4.418-.457 5.469-1.375.852-.699 1.422-1.73 1.422-3.039 0-2.035-1.422-3.258-2.977-3.652v-.043c1.598-.594 2.453-1.84 2.453-3.195 0-1.246-.613-2.207-1.531-2.754-1.01-.699-2.23-.941-4.223-.941-1.508 0-3.059.133-3.914.309m2.672 1.793c.281-.066.742-.109 1.527-.109 1.707 0 2.758.633 2.758 2.01 0 1.246-1.051 2.121-2.91 2.121h-1.375m0 6.777v-4.809h1.332c1.859 0 3.344.699 3.344 2.402 0 1.816-1.531 2.473-3.258 2.473-.609 0-1.07 0-1.422-.066" fill="#ecbf03"/>
  <path d="m29.91 22.383h-.086l-.086-2.035h-2.34c.063.961.086 1.992.086 3.434v7.215h2.691v-5.512c0-.305.043-.59.086-.828.242-1.203 1.113-2.035 2.406-2.035.328 0 .566.043.785.086v-2.535c-.219-.043-.371-.066-.633-.066-1.137 0-2.383.766-2.91 2.273" fill="#ecbf03"/>
</svg>
