<svg viewBox="0 0 48 48" xmlns="http://www.w3.org/2000/svg" xmlns:xlink="http://www.w3.org/1999/xlink">
  <linearGradient id="a" gradientTransform="matrix(0 -1 1 0 -.0000015 47.999998)" gradientUnits="userSpaceOnUse" x1="1" x2="47">
    <stop offset="0" stop-color="#383488"/>
    <stop offset="1" stop-color="#3e3997"/>
  </linearGradient>
  <path d="m47 24c0 22.703-.297 23-23 23-22.703 0-23-.297-23-23 0-22.703.297-23 23-23 22.703 0 23 .297 23 23z" fill="url(#a)"/>
  <g opacity=".1" transform="translate(1 1)">
    <path d="m15.988 16.523v14.453h2.652v-5.52c.348.066.805.086 1.305.086 1.891 0 3.566-.5 4.633-1.566.824-.781 1.258-1.934 1.258-3.324 0-1.371-.563-2.523-1.434-3.238-.934-.785-2.371-1.195-4.324-1.195-1.805 0-3.133.129-4.09.305m2.652 6.824v-4.953c.285-.066.805-.133 1.543-.133 1.848 0 2.98.871 2.98 2.5 0 1.719-1.219 2.695-3.219 2.695-.543 0-.977-.023-1.305-.109"/>
    <path d="m26.422 23.477c-.02 1.242.848 2.371 2.914 3.09 1.305.453 1.738.824 1.738 1.543 0 .695-.52 1.172-1.695 1.172-.957 0-2.109-.391-2.719-.758l-.52 1.934c.781.434 1.934.762 3.219.762 2.805 0 4.305-1.414 4.305-3.328-.023-1.566-.914-2.543-2.828-3.238-1.348-.477-1.848-.805-1.848-1.477 0-.648.523-1.105 1.477-1.105.938 0 1.785.352 2.238.605l.523-1.895c-.609-.32-1.629-.629-2.805-.629-2.457 0-4 1.457-4 3.324"/>
  </g>
  <path d="m15.988 16.523v14.453h2.652v-5.52c.348.066.805.086 1.305.086 1.891 0 3.566-.5 4.633-1.566.824-.781 1.258-1.934 1.258-3.324 0-1.371-.563-2.523-1.434-3.238-.934-.785-2.371-1.195-4.324-1.195-1.805 0-3.133.129-4.09.305m2.652 6.824v-4.953c.285-.066.805-.133 1.543-.133 1.848 0 2.98.871 2.98 2.5 0 1.719-1.219 2.695-3.219 2.695-.543 0-.977-.023-1.305-.109" fill="#7cb9f4"/>
  <path d="m26.422 23.477c-.02 1.242.848 2.371 2.914 3.09 1.305.453 1.738.824 1.738 1.543 0 .695-.52 1.172-1.695 1.172-.957 0-2.109-.391-2.719-.758l-.52 1.934c.781.434 1.934.762 3.219.762 2.805 0 4.305-1.414 4.305-3.328-.023-1.566-.914-2.543-2.828-3.238-1.348-.477-1.848-.805-1.848-1.477 0-.648.523-1.105 1.477-1.105.938 0 1.785.352 2.238.605l.523-1.895c-.609-.32-1.629-.629-2.805-.629-2.457 0-4 1.457-4 3.324" fill="#7cb9f4"/>
</svg>
