<svg xmlns="http://www.w3.org/2000/svg" viewBox="0 0 48 48">
 <defs>
  <linearGradient id="linearGradient3764" x1="1" x2="47" gradientUnits="userSpaceOnUse" gradientTransform="matrix(0,-1,1,0,-1.5e-6,47.999998)">
   <stop style="stop-color:#b93b3b;stop-opacity:1"/>
   <stop offset="1" style="stop-color:#c34545;stop-opacity:1"/>
  </linearGradient>
 </defs>
 <g>
  
  
  
 </g>
 <g>
  <path d="m 47,24 C 47,46.703 46.703,47 24,47 1.297,47 1,46.703 1,24 1,1.297 1.297,1 24,1 46.703,1 47,1.297 47,24 z" style="fill:url(#linearGradient3764);fill-opacity:1"/>
 </g>
 <g>
  <g>
   <g transform="translate(1,1)">
    <g style="opacity:0.1">
     <!-- color: #c34545 -->
    </g>
   </g>
  </g>
 </g>
 <g transform="translate(1.003932,0.99752248)" style="fill:#000;opacity:0.1">
  <g style="fill:#000">
   <!-- color: #c34545 -->
   <g style="fill:#000">
    <path d="m 26.16 11.02 c -2.156 0.164 -3.715 1.547 -4.602 4.141 -1.289 3.742 -3.465 5.969 -7.281 7.422 -2.258 0.855 -3.051 1.43 -3.754 2.781 -0.566 1.086 -0.684 2.68 -0.316 4.01 0.246 0.887 1.523 2.352 2.523 2.871 0.941 0.496 2.715 0.559 5.328 0.16 1.531 -0.234 1.901 -0.246 3.313 0.031 1.98 0.391 3.852 1.336 5.453 2.719 1.48 1.281 2.07 1.587 3.215 1.771 1.109 0.172 1.965 0.063 3.09 -0.41 1 -0.422 2.105 -1.551 2.555 -2.594 0.168 -0.383 0.313 -1.236 0.316 -1.928 0.004 -1.492 -0.453 -2.512 -1.641 -3.887 -1.16 -1.34 -1.984 -2.675 -2.461 -3.979 -0.563 -1.547 -0.684 -4.658 -0.25 -6.604 0.484 -2.18 0.078 -3.69 -1.355 -5.05 -1.012 -0.957 -1.828 -1.344 -3.188 -1.453 -0.332 -0.027 -0.637 -0.023 -0.945 0 l 0 -0.004 z m -1.66 9.98 a 4.5 4.5 0 0 1 4.5 4.5 4.5 4.5 0 0 1 -4.5 4.5 4.5 4.5 0 0 1 -4.5 -4.5 4.5 4.5 0 0 1 4.5 -4.5" style="fill:#000;fill-opacity:1;stroke:none;fill-rule:nonzero"/>
   </g>
  </g>
 </g>
 <g>
  <g>
   <!-- color: #c34545 -->
   <g>
    <path d="m 26.16 11.02 c -2.156 0.164 -3.715 1.547 -4.602 4.141 c -1.289 3.742 -3.465 5.969 -7.281 7.422 c -2.258 0.855 -3.051 1.43 -3.754 2.781 c -0.566 1.086 -0.684 2.68 -0.316 4.01 c 0.246 0.887 1.523 2.352 2.523 2.871 c 0.941 0.496 2.715 0.559 5.328 0.16 c 1.531 -0.234 1.902 -0.246 3.313 0.031 c 1.98 0.391 3.852 1.336 5.453 2.719 c 1.48 1.281 2.07 1.587 3.215 1.771 c 1.109 0.172 1.965 0.063 3.09 -0.41 c 1 -0.422 2.105 -1.551 2.555 -2.594 c 0.168 -0.383 0.313 -1.236 0.316 -1.928 c 0.004 -1.492 -0.453 -2.512 -1.641 -3.887 c -1.16 -1.34 -1.984 -2.675 -2.461 -3.979 c -0.563 -1.547 -0.684 -4.658 -0.25 -6.604 c 0.484 -2.18 0.078 -3.69 -1.355 -5.05 c -1.012 -0.957 -1.828 -1.344 -3.188 -1.453 c -0.332 -0.027 -0.637 -0.023 -0.945 0 l 0 -0.004 z m -1.66 9.98 a 4.5 4.5 0 0 1 4.5 4.5 a 4.5 4.5 0 0 1 -4.5 4.5 a 4.5 4.5 0 0 1 -4.5 -4.5 a 4.5 4.5 0 0 1 4.5 -4.5 z" style="fill:#f9f9f9;fill-opacity:1;stroke:none;fill-rule:nonzero"/>
   </g>
  </g>
 </g>
 <g>
  
 </g>
</svg>
