<svg viewBox="0 0 48 48" xmlns="http://www.w3.org/2000/svg" xmlns:xlink="http://www.w3.org/1999/xlink">
  <linearGradient id="a" gradientTransform="matrix(0 -1 1 0 -.0000015 47.999998)" gradientUnits="userSpaceOnUse" x1="1" x2="47">
    <stop offset="0" stop-color="#453789"/>
    <stop offset="1" stop-color="#4b3d97"/>
  </linearGradient>
  <path d="m47 24c0 22.703-.297 23-23 23-22.703 0-23-.297-23-23 0-22.703.297-23 23-23 22.703 0 23 .297 23 23z" fill="url(#a)"/>
  <g opacity=".1" transform="translate(1 1)">
    <path d="m14 16v15h9.06v-2.25h-6.32v-4.406h5.652v-2.223h-5.652v-3.875h5.984v-2.246m-8.723 0"/>
    <path d="m27.652 21.785h-.063l-.121-1.625h-2.207c.063.934.082 1.98.082 3.227v7.613h2.531v-6.367c0-.309.02-.645.102-.887.266-.824.961-1.605 1.961-1.605 1.367 0 1.898 1.18 1.898 2.738v6.121h2.512v-6.434c0-3.426-1.797-4.648-3.531-4.648-1.652 0-2.738 1.023-3.164 1.867"/>
  </g>
  <path d="m14 16v15h9.06v-2.25h-6.32v-4.406h5.652v-2.223h-5.652v-3.875h5.984v-2.246m-8.723 0" fill="#9caff8"/>
  <path d="m27.652 21.785h-.063l-.121-1.625h-2.207c.063.934.082 1.98.082 3.227v7.613h2.531v-6.367c0-.309.02-.645.102-.887.266-.824.961-1.605 1.961-1.605 1.367 0 1.898 1.18 1.898 2.738v6.121h2.512v-6.434c0-3.426-1.797-4.648-3.531-4.648-1.652 0-2.738 1.023-3.164 1.867" fill="#9caff8"/>
</svg>
