<svg xmlns="http://www.w3.org/2000/svg" viewBox="0 0 48 48">
 <defs>
  <linearGradient id="linearGradient3764" x1="1" x2="47" gradientUnits="userSpaceOnUse" gradientTransform="matrix(0,-1,1,0,-1.5e-6,47.999998)">
   <stop style="stop-color:#394d77;stop-opacity:1"/>
   <stop offset="1" style="stop-color:#3f5685;stop-opacity:1"/>
  </linearGradient>
 </defs>
 <g>
  
  
  
 </g>
 <g>
  <path d="m 47,24 C 47,46.703 46.703,47 24,47 1.297,47 1,46.703 1,24 1,1.297 1.297,1 24,1 46.703,1 47,1.297 47,24 z" style="fill:url(#linearGradient3764);fill-opacity:1"/>
 </g>
 <g>
  <g>
   <g transform="translate(1,1)">
    <g style="opacity:0.1">
     <!-- color: #3f5685 -->
     <g>
      <g>
       <g>
        <path d="m 13.734 20.13 c 0 2.063 1.508 3.316 3.867 4.164 c 1.824 0.66 2.547 1.293 2.547 2.379 c 0 1.168 -0.934 1.953 -2.613 1.953 c -1.336 0 -2.609 -0.426 -3.461 -0.914 l -0.574 2.168 c 0.789 0.465 2.359 0.91 3.867 0.91 c 3.695 0 5.438 -2.02 5.438 -4.309 c 0 -2.059 -1.211 -3.313 -3.695 -4.246 c -1.91 -0.746 -2.738 -1.254 -2.738 -2.359 c 0 -0.828 0.719 -1.723 2.375 -1.723 c 1.34 0 2.336 0.406 2.848 0.68 l 0.637 -2.102 c -0.742 -0.383 -1.891 -0.723 -3.441 -0.723 c -3.098 0 -5.05 1.785 -5.05 4.121" style="fill:#000;fill-opacity:1;stroke:none;fill-rule:nonzero"/>
       </g>
      </g>
      <g>
       <g>
        <path d="m 24.395 25.445 c 0 2.93 1.828 5.05 4.398 5.05 c 1.359 0 2.418 -0.617 3.02 -1.531 l 0.039 0 l 0 0.891 c 0 2.23 -1.273 3.125 -2.973 3.125 c -1.25 0 -2.355 -0.406 -3.02 -0.785 l -0.57 1.973 c 0.891 0.555 2.293 0.828 3.609 0.828 c 1.422 0 2.91 -0.297 3.992 -1.254 c 1.082 -0.977 1.527 -2.523 1.527 -4.691 l 0 -5.863 c 0 -1.422 0.043 -2.27 0.086 -2.973 l -2.273 0 l -0.105 1.383 l -0.043 0 c -0.488 -0.852 -1.422 -1.617 -2.992 -1.617 c -2.484 0 -4.695 2.063 -4.695 5.461 m 2.656 -0.086 c 0 -2.102 1.082 -3.375 2.547 -3.375 c 1.105 0 1.848 0.719 2.125 1.676 c 0.063 0.211 0.086 0.469 0.086 0.699 l 0 1.68 c 0 0.297 -0.043 0.656 -0.109 0.934 c -0.297 0.934 -1.145 1.57 -2.121 1.57 c -1.637 0 -2.527 -1.422 -2.527 -3.184" style="fill:#000;fill-opacity:1;stroke:none;fill-rule:nonzero"/>
       </g>
      </g>
     </g>
    </g>
   </g>
  </g>
 </g>
 <g>
  <g>
   <!-- color: #3f5685 -->
   <g>
    <g>
     <g>
      <path d="m 13.734 20.13 c 0 2.063 1.508 3.316 3.867 4.164 c 1.824 0.66 2.547 1.293 2.547 2.379 c 0 1.168 -0.934 1.953 -2.613 1.953 c -1.336 0 -2.609 -0.426 -3.461 -0.914 l -0.574 2.168 c 0.789 0.465 2.359 0.91 3.867 0.91 c 3.695 0 5.438 -2.02 5.438 -4.309 c 0 -2.059 -1.211 -3.313 -3.695 -4.246 c -1.91 -0.746 -2.738 -1.254 -2.738 -2.359 c 0 -0.828 0.719 -1.723 2.375 -1.723 c 1.34 0 2.336 0.406 2.848 0.68 l 0.637 -2.102 c -0.742 -0.383 -1.891 -0.723 -3.441 -0.723 c -3.098 0 -5.05 1.785 -5.05 4.121" style="fill:#2cccc1;fill-opacity:1;stroke:none;fill-rule:nonzero"/>
     </g>
    </g>
    <g>
     <g>
      <path d="m 24.395 25.445 c 0 2.93 1.828 5.05 4.398 5.05 c 1.359 0 2.418 -0.617 3.02 -1.531 l 0.039 0 l 0 0.891 c 0 2.23 -1.273 3.125 -2.973 3.125 c -1.25 0 -2.355 -0.406 -3.02 -0.785 l -0.57 1.973 c 0.891 0.555 2.293 0.828 3.609 0.828 c 1.422 0 2.91 -0.297 3.992 -1.254 c 1.082 -0.977 1.527 -2.523 1.527 -4.691 l 0 -5.863 c 0 -1.422 0.043 -2.27 0.086 -2.973 l -2.273 0 l -0.105 1.383 l -0.043 0 c -0.488 -0.852 -1.422 -1.617 -2.992 -1.617 c -2.484 0 -4.695 2.063 -4.695 5.461 m 2.656 -0.086 c 0 -2.102 1.082 -3.375 2.547 -3.375 c 1.105 0 1.848 0.719 2.125 1.676 c 0.063 0.211 0.086 0.469 0.086 0.699 l 0 1.68 c 0 0.297 -0.043 0.656 -0.109 0.934 c -0.297 0.934 -1.145 1.57 -2.121 1.57 c -1.637 0 -2.527 -1.422 -2.527 -3.184" style="fill:#2cccc1;fill-opacity:1;stroke:none;fill-rule:nonzero"/>
     </g>
    </g>
   </g>
  </g>
 </g>
 <g>
  
 </g>
</svg>
