<svg viewBox="0 0 48 48" xmlns="http://www.w3.org/2000/svg" xmlns:xlink="http://www.w3.org/1999/xlink">
  <linearGradient id="a" gradientTransform="matrix(0 -1 1 0 -.0000015 47.999998)" gradientUnits="userSpaceOnUse" x1="1" x2="47">
    <stop offset="0" stop-color="#466537"/>
    <stop offset="1" stop-color="#4f723e"/>
  </linearGradient>
  <path d="m47 24c0 22.703-.297 23-23 23-22.703 0-23-.297-23-23 0-22.703.297-23 23-23 22.703 0 23 .297 23 23z" fill="url(#a)"/>
  <g opacity=".1" transform="translate(1 1)">
    <path d="m12 16.488v14.496c.789.109 1.859.195 3.285.195 2.594 0 4.711-.676 6.04-2.01 1.27-1.266 2.082-3.234 2.082-5.859 0-2.516-.793-4.262-2.082-5.422-1.227-1.137-2.949-1.707-5.441-1.707-1.445 0-2.813.109-3.879.309m3.777 12.551c-.492 0-1.01 0-1.344-.063v-10.539c.336-.09.891-.152 1.664-.152 3.047 0 4.75 1.855 4.727 5.113 0 3.719-1.855 5.648-4.992 5.648-.016 0-.035 0-.055 0"/>
    <path d="m35.2 20.379l-1.035 4.727c-.25 1.246-.461 2.402-.617 3.563h-.035c-.211-1.16-.461-2.316-.75-3.563l-1.168-4.727h-1.918l-1.211 4.855c-.266 1.094-.574 2.273-.766 3.434h-.039c-.172-1.16-.383-2.316-.594-3.453l-.977-4.836h-2.418l2.762 10.652h2.203l1.191-4.332c.27-1.047.516-2.098.707-3.41h.039c.211 1.289.426 2.297.711 3.41l1.113 4.332h2.188l2.934-10.652m-2.32 0"/>
  </g>
  <path d="m12 16.488v14.496c.789.109 1.859.195 3.285.195 2.594 0 4.711-.676 6.04-2.01 1.27-1.266 2.082-3.234 2.082-5.859 0-2.516-.793-4.262-2.082-5.422-1.227-1.137-2.949-1.707-5.441-1.707-1.445 0-2.813.109-3.879.309m3.777 12.551c-.492 0-1.01 0-1.344-.063v-10.539c.336-.09.891-.152 1.664-.152 3.047 0 4.75 1.855 4.727 5.113 0 3.719-1.855 5.648-4.992 5.648-.016 0-.035 0-.055 0" fill="#86e603"/>
  <path d="m35.2 20.379l-1.035 4.727c-.25 1.246-.461 2.402-.617 3.563h-.035c-.211-1.16-.461-2.316-.75-3.563l-1.168-4.727h-1.918l-1.211 4.855c-.266 1.094-.574 2.273-.766 3.434h-.039c-.172-1.16-.383-2.316-.594-3.453l-.977-4.836h-2.418l2.762 10.652h2.203l1.191-4.332c.27-1.047.516-2.098.707-3.41h.039c.211 1.289.426 2.297.711 3.41l1.113 4.332h2.188l2.934-10.652m-2.32 0" fill="#86e603"/>
</svg>
