<svg viewBox="0 0 48 48" xmlns="http://www.w3.org/2000/svg" xmlns:xlink="http://www.w3.org/1999/xlink">
  <linearGradient id="a" gradientTransform="matrix(0 -1 1 0 -.0000015 47.999998)" gradientUnits="userSpaceOnUse" x1="1" x2="47">
    <stop offset="0" stop-color="#2d3a7b"/>
    <stop offset="1" stop-color="#334189"/>
  </linearGradient>
  <path d="m47 24c0 22.703-.297 23-23 23-22.703 0-23-.297-23-23 0-22.703.297-23 23-23 22.703 0 23 .297 23 23z" fill="url(#a)"/>
  <g opacity=".1" transform="translate(1 1)">
    <path d="m17 16.949v14.05h2.578v-5.363c.336.063.781.082 1.266.082 1.84 0 3.465-.484 4.504-1.52.801-.762 1.223-1.883 1.223-3.234 0-1.328-.547-2.449-1.395-3.148-.906-.758-2.301-1.16-4.203-1.16-1.754 0-3.043.125-3.973.297m2.578 6.633v-4.816c.277-.063.781-.129 1.5-.129 1.797 0 2.895.848 2.895 2.43 0 1.672-1.184 2.621-3.129 2.621-.527 0-.949-.02-1.266-.105"/>
    <path d="m28.641 31h2.621v-15h-2.621m0 15"/>
  </g>
  <path d="m17 16.949v14.05h2.578v-5.363c.336.063.781.082 1.266.082 1.84 0 3.465-.484 4.504-1.52.801-.762 1.223-1.883 1.223-3.234 0-1.328-.547-2.449-1.395-3.148-.906-.758-2.301-1.16-4.203-1.16-1.754 0-3.043.125-3.973.297m2.578 6.633v-4.816c.277-.063.781-.129 1.5-.129 1.797 0 2.895.848 2.895 2.43 0 1.672-1.184 2.621-3.129 2.621-.527 0-.949-.02-1.266-.105" fill="#5bc1e6"/>
  <path d="m28.641 31h2.621v-15h-2.621m0 15" fill="#5bc1e6"/>
</svg>
