<svg xmlns="http://www.w3.org/2000/svg" viewBox="0 0 48 48">
 <defs>
  <linearGradient id="linearGradient3764" x1="1" x2="47" gradientUnits="userSpaceOnUse" gradientTransform="matrix(0,-1,1,0,-1.5e-6,47.999998)">
   <stop style="stop-color:#755723;stop-opacity:1"/>
   <stop offset="1" style="stop-color:#846228;stop-opacity:1"/>
  </linearGradient>
 </defs>
 <g>
  
  
  
 </g>
 <g>
  <path d="m 47,24 C 47,46.703 46.703,47 24,47 1.297,47 1,46.703 1,24 1,1.297 1.297,1 24,1 46.703,1 47,1.297 47,24 z" style="fill:url(#linearGradient3764);fill-opacity:1"/>
 </g>
 <g>
  <g>
   <g transform="translate(1,1)">
    <g style="opacity:0.1">
     <!-- color: #846228 -->
     <g>
      <g>
       <g>
        <path d="m 19.695 16.332 l -4.695 14.652 l 2.762 0 l 1.262 -4.152 l 4.652 0 l 1.324 4.152 l 2.871 0 l -4.762 -14.652 m -2.523 4.871 c 0.262 -0.871 0.48 -1.895 0.699 -2.742 l 0.043 0 c 0.215 0.848 0.457 1.848 0.738 2.742 l 1.152 3.605 l -3.762 0 l 1.129 -3.609 m 0 0.004" style="fill:#000;fill-opacity:1;stroke:none;fill-rule:nonzero"/>
       </g>
      </g>
      <g>
       <g>
        <path d="m 28.762 17.441 c 0 0.805 0.586 1.434 1.477 1.434 c 0.934 0 1.523 -0.629 1.523 -1.434 c -0.023 -0.828 -0.59 -1.457 -1.5 -1.457 c -0.891 0 -1.5 0.629 -1.5 1.457 m 0.152 13.543 l 2.695 0 l 0 -10.586 l -2.695 0 m 0 10.586" style="fill:#000;fill-opacity:1;stroke:none;fill-rule:nonzero"/>
       </g>
      </g>
     </g>
    </g>
   </g>
  </g>
 </g>
 <g>
  <g>
   <!-- color: #846228 -->
   <g>
    <g>
     <g>
      <path d="m 19.695 16.332 l -4.695 14.652 l 2.762 0 l 1.262 -4.152 l 4.652 0 l 1.324 4.152 l 2.871 0 l -4.762 -14.652 m -2.523 4.871 c 0.262 -0.871 0.48 -1.895 0.699 -2.742 l 0.043 0 c 0.215 0.848 0.457 1.848 0.738 2.742 l 1.152 3.605 l -3.762 0 l 1.129 -3.609 m 0 0.004" style="fill:#fbb036;fill-opacity:1;stroke:none;fill-rule:nonzero"/>
     </g>
    </g>
    <g>
     <g>
      <path d="m 28.762 17.441 c 0 0.805 0.586 1.434 1.477 1.434 c 0.934 0 1.523 -0.629 1.523 -1.434 c -0.023 -0.828 -0.59 -1.457 -1.5 -1.457 c -0.891 0 -1.5 0.629 -1.5 1.457 m 0.152 13.543 l 2.695 0 l 0 -10.586 l -2.695 0 m 0 10.586" style="fill:#fbb036;fill-opacity:1;stroke:none;fill-rule:nonzero"/>
     </g>
    </g>
   </g>
  </g>
 </g>
 <g>
  
 </g>
</svg>
