<svg viewBox="0 0 48 48" xmlns="http://www.w3.org/2000/svg" xmlns:xlink="http://www.w3.org/1999/xlink">
  <linearGradient id="a" gradientTransform="matrix(0 -1 1 0 -.0000015 47.999998)" gradientUnits="userSpaceOnUse" x1="1" x2="47">
    <stop offset="0" stop-color="#553c64"/>
    <stop offset="1" stop-color="#5f4371"/>
  </linearGradient>
  <path d="m47 24c0 22.703-.297 23-23 23-22.703 0-23-.297-23-23 0-22.703.297-23 23-23 22.703 0 23 .297 23 23z" fill="url(#a)"/>
  <g opacity=".1" transform="translate(1 1)">
    <path d="m16 16.309v14.691h2.695v-5.609c.355.066.816.09 1.324.09 1.922 0 3.625-.508 4.707-1.594.84-.793 1.281-1.965 1.281-3.379 0-1.391-.574-2.563-1.461-3.289-.949-.797-2.406-1.219-4.395-1.219-1.832 0-3.18.133-4.152.313m2.695 6.938v-5.04c.289-.066.816-.133 1.57-.133 1.875 0 3.03.883 3.03 2.543 0 1.742-1.238 2.738-3.27 2.738-.555 0-.996-.023-1.328-.109"/>
    <path d="m30.426 22.297h-.09l-.086-2.055h-2.363c.066.973.086 2.01.086 3.469v7.289h2.719v-5.566c0-.309.043-.594.086-.84.246-1.215 1.129-2.055 2.43-2.055.332 0 .578.047.797.09v-2.563c-.219-.043-.375-.066-.641-.066-1.148 0-2.406.773-2.938 2.297"/>
  </g>
  <path d="m16 16.309v14.691h2.695v-5.609c.355.066.816.09 1.324.09 1.922 0 3.625-.508 4.707-1.594.84-.793 1.281-1.965 1.281-3.379 0-1.391-.574-2.563-1.461-3.289-.949-.797-2.406-1.219-4.395-1.219-1.832 0-3.18.133-4.152.313m2.695 6.938v-5.04c.289-.066.816-.133 1.57-.133 1.875 0 3.03.883 3.03 2.543 0 1.742-1.238 2.738-3.27 2.738-.555 0-.996-.023-1.328-.109" fill="#d77cfb"/>
  <path d="m30.426 22.297h-.09l-.086-2.055h-2.363c.066.973.086 2.01.086 3.469v7.289h2.719v-5.566c0-.309.043-.594.086-.84.246-1.215 1.129-2.055 2.43-2.055.332 0 .578.047.797.09v-2.563c-.219-.043-.375-.066-.641-.066-1.148 0-2.406.773-2.938 2.297" fill="#d77cfb"/>
</svg>
