<svg viewBox="0 0 48 48" xmlns="http://www.w3.org/2000/svg" xmlns:xlink="http://www.w3.org/1999/xlink">
  <linearGradient id="a" gradientTransform="matrix(0 -1 1 0 -.0000015 47.999998)" gradientUnits="userSpaceOnUse" x1="1" x2="47">
    <stop offset="0" stop-color="#394d77"/>
    <stop offset="1" stop-color="#3f5685"/>
  </linearGradient>
  <path d="m47 24c0 22.703-.297 23-23 23-22.703 0-23-.297-23-23 0-22.703.297-23 23-23 22.703 0 23 .297 23 23z" fill="url(#a)"/>
  <g opacity=".1" transform="translate(1 1)">
    <path d="m13.734 20.13c0 2.063 1.508 3.316 3.867 4.164 1.824.66 2.547 1.293 2.547 2.379 0 1.168-.934 1.953-2.613 1.953-1.336 0-2.609-.426-3.461-.914l-.574 2.168c.789.465 2.359.91 3.867.91 3.695 0 5.438-2.02 5.438-4.309 0-2.059-1.211-3.313-3.695-4.246-1.91-.746-2.738-1.254-2.738-2.359 0-.828.719-1.723 2.375-1.723 1.34 0 2.336.406 2.848.68l.637-2.102c-.742-.383-1.891-.723-3.441-.723-3.098 0-5.05 1.785-5.05 4.121"/>
    <path d="m24.395 25.445c0 2.93 1.828 5.05 4.398 5.05 1.359 0 2.418-.617 3.02-1.531h.039v.891c0 2.23-1.273 3.125-2.973 3.125-1.25 0-2.355-.406-3.02-.785l-.57 1.973c.891.555 2.293.828 3.609.828 1.422 0 2.91-.297 3.992-1.254 1.082-.977 1.527-2.523 1.527-4.691v-5.863c0-1.422.043-2.27.086-2.973h-2.273l-.105 1.383h-.043c-.488-.852-1.422-1.617-2.992-1.617-2.484 0-4.695 2.063-4.695 5.461m2.656-.086c0-2.102 1.082-3.375 2.547-3.375 1.105 0 1.848.719 2.125 1.676.063.211.086.469.086.699v1.68c0 .297-.043.656-.109.934-.297.934-1.145 1.57-2.121 1.57-1.637 0-2.527-1.422-2.527-3.184"/>
  </g>
  <path d="m13.734 20.13c0 2.063 1.508 3.316 3.867 4.164 1.824.66 2.547 1.293 2.547 2.379 0 1.168-.934 1.953-2.613 1.953-1.336 0-2.609-.426-3.461-.914l-.574 2.168c.789.465 2.359.91 3.867.91 3.695 0 5.438-2.02 5.438-4.309 0-2.059-1.211-3.313-3.695-4.246-1.91-.746-2.738-1.254-2.738-2.359 0-.828.719-1.723 2.375-1.723 1.34 0 2.336.406 2.848.68l.637-2.102c-.742-.383-1.891-.723-3.441-.723-3.098 0-5.05 1.785-5.05 4.121" fill="#2cccc1"/>
  <path d="m24.395 25.445c0 2.93 1.828 5.05 4.398 5.05 1.359 0 2.418-.617 3.02-1.531h.039v.891c0 2.23-1.273 3.125-2.973 3.125-1.25 0-2.355-.406-3.02-.785l-.57 1.973c.891.555 2.293.828 3.609.828 1.422 0 2.91-.297 3.992-1.254 1.082-.977 1.527-2.523 1.527-4.691v-5.863c0-1.422.043-2.27.086-2.973h-2.273l-.105 1.383h-.043c-.488-.852-1.422-1.617-2.992-1.617-2.484 0-4.695 2.063-4.695 5.461m2.656-.086c0-2.102 1.082-3.375 2.547-3.375 1.105 0 1.848.719 2.125 1.676.063.211.086.469.086.699v1.68c0 .297-.043.656-.109.934-.297.934-1.145 1.57-2.121 1.57-1.637 0-2.527-1.422-2.527-3.184" fill="#2cccc1"/>
</svg>
