<svg viewBox="0 0 48 48" xmlns="http://www.w3.org/2000/svg" xmlns:xlink="http://www.w3.org/1999/xlink">
  <linearGradient id="a" gradientTransform="matrix(0 -1 1 0 -.0000015 47.999998)" gradientUnits="userSpaceOnUse" x1="1" x2="47">
    <stop offset="0" stop-color="#e4e4e4"/>
    <stop offset="1" stop-color="#eee"/>
  </linearGradient>
  <path d="m47 24c0 22.703-.297 23-23 23-22.703 0-23-.297-23-23 0-22.703.297-23 23-23 22.703 0 23 .297 23 23z" fill="url(#a)"/>
  <path d="m37.26 12.01c-.165.026-.329.082-.488.172-.884.42-2.32 1.919-3.871 3.799-2.121-1.857-4.888-2.984-7.898-2.984-6.555 0-12 5.316-12 12 0 6.684 5.445 12 12 12 6.555 0 12-5.316 12-12 0-2.576-.814-4.944-2.182-6.887 1.365-1.748 2.709-3.23 3.869-4.064.886-.954-.274-2.216-1.43-2.035zm-12.258 3.01c2.581 0 4.91.936 6.691 2.461-2.927 3.788-5.945 8.475-6.551 10.354l-3.348-4.625c-1.219-1.766-3.641.215-2.492 1.914l4.418 5.857c1.32 1.344 2.816 1.344 3.32 0 1.29-3 3.891-7.549 6.58-11.289.992 1.544 1.568 3.363 1.568 5.305 0 5.449-4.496 9.973-10.188 9.973-5.699 0-10.191-4.523-10.191-9.973 0-5.449 4.496-9.977 10.191-9.977z" opacity=".1"/>
  <path d="m24 12c-6.555 0-12 5.316-12 12 0 6.684 5.445 12 12 12 6.555 0 12-5.316 12-12 0-6.688-5.441-12-12-12m0 2.027c5.695 0 10.188 4.527 10.188 9.977 0 5.449-4.496 9.973-10.188 9.973-5.699 0-10.191-4.523-10.191-9.973 0-5.449 4.496-9.977 10.191-9.977m0 0" fill="#999"/>
  <path d="m18.301 24.13l4.418 5.859c1.32 1.344 2.816 1.344 3.32 0 2.137-4.977 7.863-14.219 11.648-16.941 1.012-1.09-.645-2.582-1.918-1.863-2.738 1.301-10.609 12.492-11.629 15.656l-3.348-4.625c-1.219-1.766-3.641.215-2.492 1.914m0 0" fill="#323232" fill-rule="evenodd"/>
  <path d="m18.75 13.219c-3.977 1.941-6.75 6.01-6.75 10.781 0 1.469.27 2.859.75 4.156l1.594-.969c-.348-1.012-.531-2.074-.531-3.188 0-3.684 2.066-6.93 5.156-8.656m-.219-2.125" fill="#0095cf"/>
</svg>
