<svg viewBox="0 0 48 48" xmlns="http://www.w3.org/2000/svg" xmlns:xlink="http://www.w3.org/1999/xlink">
  <linearGradient id="a" gradientTransform="matrix(0 -1 1 0 -.0000015 47.999998)" gradientUnits="userSpaceOnUse" x1="1" x2="47">
    <stop offset="0" stop-color="#e4e4e4"/>
    <stop offset="1" stop-color="#eee"/>
  </linearGradient>
  <path d="m47 24c0 22.703-.297 23-23 23-22.703 0-23-.297-23-23 0-22.703.297-23 23-23 22.703 0 23 .297 23 23z" fill="url(#a)"/>
  <path d="m22.471 13.01l.002.004c-1.102.019-2.175.369-3.197.939-2.957-.734-6.226-1.313-7.139-.391l-.016.004c-1.048 1.345.245 4.01 1.576 6.611-.553 1.047-1.019 2.143-1.385 3.24-1.509.461-2.981 1.481-3.777 3.02 1.288-.827 2.111-.72 3.062-.107-.047.298-.085.592-.113.883-.981.551-1.807 1.221-2.621 2.535.903-.78 1.854-.675 2.637-.166.049.394.114.776.217 1.131-1.701.833-1.616 2.01-1.432 2.695.568-.764 1.11-1.35 1.904-1.582.213.384.46.737.771 1.027.32.25.614.44.895.598.011.278.044.555.117.84.379-.154.696-.26 1.033-.383 1.217.302 2.262.012 3.893.422 1.895.48 2.73 2.832 6 2.66l.098-.02.094.02c3.273.172 4.109-2.18 6-2.66 1.646-.413 2.687-.119 3.918-.436.279.104.53.186.836.311.059-.229.092-.453.111-.676.332-.17.679-.375 1.068-.676.318-.295.579-.648.795-1.041.691.267 1.192.813 1.715 1.514.175-.666.263-1.786-1.264-2.611.122-.421.205-.87.252-1.346.74-.396 1.605-.418 2.43.297-.771-1.249-1.548-1.916-2.463-2.453-.034-.353-.069-.705-.131-1.068.895-.534 1.695-.581 2.922.207-.771-1.482-2.172-2.492-3.629-2.975-.408-1.217-.932-2.429-1.568-3.576 1.258-2.478 2.382-4.951 1.383-6.23l-.016-.004c-.882-.892-3.969-.38-6.846.318-.989-.534-2.026-.853-3.088-.871-1.305-.082-1.762.52-2.523.871-.762-.355-1.217-.953-2.521-.871z" opacity=".1" transform=""/>
  <path d="m11.12 12.563c-1.488 1.91 1.742 6.484 3.105 9.758l7.539-8.43c-3.105-.887-9.316-2.66-10.629-1.332m-.02.004" fill="#f9f9f9"/>
  <path d="m36.465 12.563c1.492 1.91-1.742 6.484-3.105 9.758l-7.539-8.43c3.105-.887 9.316-2.66 10.629-1.332m.016.004" fill="#f9f9f9"/>
  <path d="m35.391 13.535c1.18 1.508-1.375 5.133-2.457 7.715l-5.957-6.664c2.453-.699 7.363-2.102 8.414-1.051m0 0" fill="#b97820"/>
  <path d="m12.11 13.457c-1.18 1.512 1.375 5.133 2.457 7.715l5.961-6.66c-2.457-.703-7.363-2.105-8.418-1.055m0 0" fill="#b97820"/>
  <path d="m21.473 12.01c-5.098.086-9.652 6.914-10.785 12.75-.574 2.949-.273 5.645 1.273 7.086 2.375 1.852 3.492.863 5.937 1.477 1.895.48 2.73 2.832 6 2.66l.098-.02.094.02c3.273.172 4.109-2.18 6-2.66 2.445-.613 3.543.367 5.934-1.477 4.609-4.285-1.836-19.711-9.508-19.84-1.305-.082-1.762.52-2.523.871-.762-.355-1.219-.953-2.523-.871m0 .004" fill="#ffb354"/>
  <path d="m19.535 21.07c.461 1.09-3.215 2.133-3.793 2.164-.781-.012-.699-.844-2.137-1.078-2.09-.23-4.859.941-6.07 3.273 1.582-1.016 2.449-.664 3.734.363-1.352.656-2.383 1.297-3.406 2.949 1.293-1.117 2.691-.438 3.539.676-2.422.828-2.324 2.211-2.117 2.984.938-1.262 1.793-2.055 3.855-1.531-.359.895-.371 1.621-.168 2.414 5.04-2.055 6.191-1.117 9.449-1.223-.66-3.543.059-7.766-1.07-10.762-.457-.793-.531-1.441-1.77-1.465-1.598.07-1.664.504-1.715.934.266-.23 1.301-.676 1.664.297m.004.004" fill="#f9f9f9"/>
  <path d="m27.605 33.75c0 .965-1.68 1.75-3.75 1.75-2.07 0-3.75-.785-3.75-1.75 0-.965 1.68-1.75 3.75-1.75 2.07 0 3.75.785 3.75 1.75m0 0" fill="#de2819"/>
  <path d="m28.28 20.988c-.461 1.086 3.215 2.133 3.793 2.16.781-.012.703-.844 2.137-1.078 2.09-.23 4.859.945 6.07 3.273-1.582-1.016-2.449-.664-3.734.363 1.352.66 2.383 1.297 3.406 2.953-1.293-1.121-2.691-.441-3.539.676 2.422.824 2.324 2.211 2.121 2.984-.941-1.262-1.793-2.059-3.859-1.531.359.891.371 1.617.168 2.41-5.04-2.055-6.191-1.113-9.449-1.223.66-3.543-.059-7.766 1.07-10.758.457-.797.531-1.441 1.77-1.477 1.598.078 1.664.516 1.719.941-.266-.227-1.305-.68-1.668.297m-.004.004" fill="#f9f9f9"/>
  <path d="m24.04 17.895c-.527.07-1.543 4.715-2.41 7.086-.883-1.656-1.25-2.223-2.023-2.219-1.461.008-4.438 3.543-4.449 6.336.02 4.313 4.449 4.754 8.883 4.754v-.008c4.441 0 8.875-.422 8.895-4.734-.02-2.785-2.988-6.328-4.449-6.336-.773-.004-1.141.563-2.023 2.219-.867-2.383-1.883-7.04-2.414-7.125m0 .027" fill="#714319"/>
  <path d="m21.17 24.813c0 .887-.727 1.605-1.605 1.605-.883 0-1.602-.719-1.602-1.605 0-.883.719-1.602 1.602-1.602.887 0 1.605.719 1.605 1.602m0 0" fill="#f9f9f9"/>
  <path d="m30.15 24.75c0 .887-.719 1.605-1.602 1.605-.887 0-1.605-.719-1.605-1.605 0-.887.719-1.602 1.605-1.602.883 0 1.602.715 1.602 1.602m0 0" fill="#f9f9f9"/>
  <path d="m24.04 24.1c-3.102 0-7.086 3.992-7.086 6.656-.016 2.52 2.664 2.652 3.996 2.652 1.281.023 2.633.098 3.102-.438.473.535 1.824.465 3.105.438 1.332 0 4.01-.133 3.992-2.652 0-2.664-3.992-6.656-7.086-6.656m-.023 0" fill="#f9f9f9"/>
  <path d="m26.26 29.418c0 1.227-.992 2.219-2.227 2.219-1.227 0-2.219-.992-2.219-2.219 0-1.223.992-2.215 2.219-2.215 1.23 0 2.227.992 2.227 2.215m0 0" fill="#2d2d2d"/>
  <path d="m25.375 28.531c0 .246-.199.445-.445.445-.246 0-.441-.199-.441-.445 0-.242.195-.441.441-.441.246 0 .445.199.445.441m0 0" fill="#f9f9f9"/>
  <path d="m20.715 24.734c0 .66-.535 1.195-1.195 1.195-.66 0-1.195-.535-1.195-1.195 0-.66.535-1.195 1.195-1.195.66 0 1.195.535 1.195 1.195m0 0" fill="#9cf"/>
  <path d="m29.742 24.734c0 .66-.539 1.195-1.199 1.195-.66 0-1.195-.535-1.195-1.195 0-.66.535-1.195 1.195-1.195.66 0 1.199.535 1.199 1.195m0 0" fill="#9cf"/>
  <path d="m20.09 24.617c0 .379-.309.684-.688.684-.379 0-.688-.305-.688-.684 0-.383.309-.688.688-.688.379 0 .688.305.688.688m0 0" fill="#2d2d2d"/>
  <path d="m19.422 24.383c0 .16-.133.293-.293.293-.164 0-.293-.133-.293-.293 0-.164.129-.297.293-.297.16 0 .293.133.293.297m0 0" fill="#f9f9f9"/>
  <path d="m29.07 24.676c0 .371-.297.668-.668.668-.367 0-.664-.297-.664-.668 0-.367.297-.668.664-.668.371 0 .668.301.668.668m0 0" fill="#2d2d2d"/>
  <path d="m28.508 24.461c0 .164-.133.297-.293.297-.164 0-.297-.133-.297-.297 0-.16.133-.293.297-.293.16 0 .293.133.293.293m0 0" fill="#f9f9f9"/>
  <path d="m24.91 32.25l-1.422 1.594c.859 0 1.703 0 2.539-.035l.859-1.184c.359-.535.547-1.039-.004-1.238-1.168-.383-1.551.387-1.973.863m0 0" fill="#c84545"/>
</svg>
