<svg xmlns="http://www.w3.org/2000/svg" viewBox="0 0 48 48">
 <defs>
  <linearGradient id="linearGradient3764" x1="1" x2="47" gradientUnits="userSpaceOnUse" gradientTransform="matrix(0,-1,1,0,-1.5e-6,47.999998)">
   <stop style="stop-color:#2290ee;stop-opacity:1"/>
   <stop offset="1" style="stop-color:#359bef;stop-opacity:1"/>
  </linearGradient>
 </defs>
 <g>
  
  
  
 </g>
 <g>
  <path d="m 47,24 C 47,46.703 46.703,47 24,47 1.297,47 1,46.703 1,24 1,1.297 1.297,1 24,1 46.703,1 47,1.297 47,24 z" style="fill:url(#linearGradient3764);fill-opacity:1"/>
 </g>
 <g>
  <g>
   <g transform="translate(1,1)">
    <g style="opacity:0.1">
     <!-- color: #359bef -->
     <g>
      <path d="m 24 14 c -5.52 0 -10.668 1.883 -15 5.152 l 0.289 0.473 l 2.813 3.941 c 3.492 -2.484 7.57 -3.941 11.934 -3.941 c 4.355 0 8.406 1.461 11.898 3.941 l 2.773 -3.941 l 0.289 -0.473 c -4.336 -3.27 -9.48 -5.152 -14.996 -5.152 m 0.035 7.445 c -3.996 0 -7.73 1.285 -10.949 3.508 l 2.664 3.766 c 2.469 -1.559 5.305 -2.465 8.285 -2.465 c 2.98 0 5.785 0.906 8.246 2.465 l 2.668 -3.766 c -3.207 -2.219 -6.918 -3.508 -10.914 -3.508 m 0 6.621 c -2.621 0 -5.109 0.766 -7.301 2.078 l 2.738 3.852 c 1.406 -0.684 2.926 -1.082 4.527 -1.082 c 1.609 0 3.156 0.391 4.563 1.082 l 2.699 -3.852 c -2.176 -1.301 -4.617 -2.078 -7.223 -2.078 m -0.004 0" style="fill:#000;fill-opacity:1;stroke:none;fill-rule:nonzero"/>
     </g>
    </g>
   </g>
  </g>
 </g>
 <g>
  <g>
   <!-- color: #359bef -->
   <g>
    <path d="m 24 14 c -5.52 0 -10.668 1.883 -15 5.152 l 0.289 0.473 l 2.813 3.941 c 3.492 -2.484 7.57 -3.941 11.934 -3.941 c 4.355 0 8.406 1.461 11.898 3.941 l 2.773 -3.941 l 0.289 -0.473 c -4.336 -3.27 -9.48 -5.152 -14.996 -5.152 m 0.035 7.445 c -3.996 0 -7.73 1.285 -10.949 3.508 l 2.664 3.766 c 2.469 -1.559 5.305 -2.465 8.285 -2.465 c 2.98 0 5.785 0.906 8.246 2.465 l 2.668 -3.766 c -3.207 -2.219 -6.918 -3.508 -10.914 -3.508 m 0 6.621 c -2.621 0 -5.109 0.766 -7.301 2.078 l 2.738 3.852 c 1.406 -0.684 2.926 -1.082 4.527 -1.082 c 1.609 0 3.156 0.391 4.563 1.082 l 2.699 -3.852 c -2.176 -1.301 -4.617 -2.078 -7.223 -2.078 m -0.004 0" style="fill:#f9f9f9;fill-opacity:1;stroke:none;fill-rule:nonzero"/>
   </g>
  </g>
 </g>
 <g>
  
 </g>
</svg>
