<svg viewBox="0 0 48 48" xmlns="http://www.w3.org/2000/svg" xmlns:xlink="http://www.w3.org/1999/xlink">
  <linearGradient id="a" gradientTransform="matrix(0 -1 1 0 -.0000015 47.999998)" gradientUnits="userSpaceOnUse" x1="1" x2="47">
    <stop offset="0" stop-color="#2290ee"/>
    <stop offset="1" stop-color="#359bef"/>
  </linearGradient>
  <path d="m47 24c0 22.703-.297 23-23 23-22.703 0-23-.297-23-23 0-22.703.297-23 23-23 22.703 0 23 .297 23 23z" fill="url(#a)"/>
  <path d="m24 14c-5.52 0-10.668 1.883-15 5.152l.289.473 2.813 3.941c3.492-2.484 7.57-3.941 11.934-3.941 4.355 0 8.406 1.461 11.898 3.941l2.773-3.941.289-.473c-4.336-3.27-9.48-5.152-14.996-5.152m.035 7.445c-3.996 0-7.73 1.285-10.949 3.508l2.664 3.766c2.469-1.559 5.305-2.465 8.285-2.465 2.98 0 5.785.906 8.246 2.465l2.668-3.766c-3.207-2.219-6.918-3.508-10.914-3.508m0 6.621c-2.621 0-5.109.766-7.301 2.078l2.738 3.852c1.406-.684 2.926-1.082 4.527-1.082 1.609 0 3.156.391 4.563 1.082l2.699-3.852c-2.176-1.301-4.617-2.078-7.223-2.078m-.004 0" opacity=".1" transform="translate(1 1)"/>
  <path d="m24 14c-5.52 0-10.668 1.883-15 5.152l.289.473 2.813 3.941c3.492-2.484 7.57-3.941 11.934-3.941 4.355 0 8.406 1.461 11.898 3.941l2.773-3.941.289-.473c-4.336-3.27-9.48-5.152-14.996-5.152m.035 7.445c-3.996 0-7.73 1.285-10.949 3.508l2.664 3.766c2.469-1.559 5.305-2.465 8.285-2.465 2.98 0 5.785.906 8.246 2.465l2.668-3.766c-3.207-2.219-6.918-3.508-10.914-3.508m0 6.621c-2.621 0-5.109.766-7.301 2.078l2.738 3.852c1.406-.684 2.926-1.082 4.527-1.082 1.609 0 3.156.391 4.563 1.082l2.699-3.852c-2.176-1.301-4.617-2.078-7.223-2.078m-.004 0" fill="#f9f9f9"/>
</svg>
