<svg xmlns="http://www.w3.org/2000/svg" viewBox="0 0 48 48">
 <defs>
  <linearGradient id="linearGradient3764" x1="1" x2="47" gradientUnits="userSpaceOnUse" gradientTransform="matrix(0,-1,1,0,-1.5e-6,47.999998)">
   <stop style="stop-color:#33466d;stop-opacity:1"/>
   <stop offset="1" style="stop-color:#3a4f7a;stop-opacity:1"/>
  </linearGradient>
 </defs>
 <g>
  
  
  
 </g>
 <g>
  <path d="m 47,24 C 47,46.703 46.703,47 24,47 1.297,47 1,46.703 1,24 1,1.297 1.297,1 24,1 46.703,1 47,1.297 47,24 z" style="fill:url(#linearGradient3764);fill-opacity:1"/>
 </g>
 <g>
  <g>
   <g transform="translate(1,1)">
    <g style="opacity:0.1">
     <!-- color: #3a4f7a -->
     <g>
      <path d="m 24 12 c -6.504 0 -11.762 5.109 -12 11.551 c 1.715 4.508 6.074 7.691 11.199 7.691 c 3.625 0 6.848 -1.59 9.04 -4.117 c -0.902 4.223 -4.01 7.598 -8.07 8.879 c 6.578 -0.082 11.836 -5.398 11.836 -12 c 0 -6.656 -5.348 -12 -12 -12 m 0.004 0" style="fill:#000;fill-opacity:1;stroke:none;fill-rule:nonzero"/>
     </g>
    </g>
   </g>
  </g>
 </g>
 <g>
  <g>
   <!-- color: #3a4f7a -->
   <g>
    <path d="m 24 12 c -6.504 0 -11.762 5.109 -12 11.551 c 1.715 4.508 6.074 7.691 11.199 7.691 c 3.625 0 6.848 -1.59 9.04 -4.117 c -0.902 4.223 -4.01 7.598 -8.07 8.879 c 6.578 -0.082 11.836 -5.398 11.836 -12 c 0 -6.656 -5.348 -12 -12 -12 m 0.004 0" style="fill:#ecedf1;fill-opacity:1;stroke:none;fill-rule:nonzero"/>
   </g>
  </g>
 </g>
 <g>
  
 </g>
</svg>
