<svg viewBox="0 0 48 48" xmlns="http://www.w3.org/2000/svg" xmlns:xlink="http://www.w3.org/1999/xlink">
  <linearGradient id="a" gradientTransform="matrix(0 -1 1 0 -.0000015 47.999998)" gradientUnits="userSpaceOnUse" x1="1" x2="47">
    <stop offset="0" stop-color="#575757"/>
    <stop offset="1" stop-color="#616161"/>
  </linearGradient>
  <path d="m47 24c0 22.703-.297 23-23 23-22.703 0-23-.297-23-23 0-22.703.297-23 23-23 22.703 0 23 .297 23 23z" fill="url(#a)"/>
  <path d="m22.272 17c-3.521-.004-6.094 2.696-7.739 5.841-2.144 4.098-4.406 10.155-.041 10.155 4.594 0 8.411-2.55 11.11-4.477.979 1.785 2.404 4.477 4.395 4.477 1.991 0 3.806-.784 4.693-1.482l3.307-4.606-.358-.412c-4.186 2.074-5.614 3.5-7.966-.976l2.969-2.73 4.36-5.397-.321-.398-7.845 6.87c-1.27-2.629-3.879-6.862-6.567-6.865m-2.937 3.396c2.493 0 3.955 3.672 5.422 6.393-2.163 1.23-4.989 2.747-7.06 2.323-2.455-.503-3.08-3.071-2.091-5 .877-1.808 1.953-3.714 3.726-3.714" opacity=".1"/>
  <path d="m21.272 16c-3.521-.004-6.094 2.696-7.739 5.841-2.144 4.098-4.406 10.155-.041 10.155 4.594 0 8.411-2.55 11.11-4.477.979 1.785 2.404 4.477 4.395 4.477 1.991 0 3.806-.784 4.693-1.482l3.307-4.606-.358-.412c-4.186 2.074-5.614 3.5-7.966-.976l2.969-2.73 4.36-5.397-.321-.398-7.845 6.87c-1.27-2.629-3.879-6.862-6.567-6.865m-2.937 3.396c2.493 0 3.955 3.672 5.422 6.393-2.163 1.23-4.989 2.747-7.06 2.323-2.455-.503-3.08-3.071-2.091-5 .877-1.808 1.953-3.714 3.726-3.714" fill="#c5f533"/>
</svg>
