<svg xmlns="http://www.w3.org/2000/svg" viewBox="0 0 48 48">
 <defs>
  <linearGradient id="linearGradient3764" x1="1" x2="47" gradientUnits="userSpaceOnUse" gradientTransform="matrix(0,-1,1,0,-1.5e-6,47.999998)">
   <stop style="stop-color:#575757;stop-opacity:1"/>
   <stop offset="1" style="stop-color:#616161;stop-opacity:1"/>
  </linearGradient>
 </defs>
 <g>
  
  
  
 </g>
 <g>
  <path d="m 47,24 C 47,46.703 46.703,47 24,47 1.297,47 1,46.703 1,24 1,1.297 1.297,1 24,1 46.703,1 47,1.297 47,24 z" style="fill:url(#linearGradient3764);fill-opacity:1"/>
 </g>
 <g>
  
 </g>
 <path d="m 22.272 17 c -3.521 -0.004 -6.094 2.696 -7.739 5.841 -2.144 4.098 -4.406 10.155 -0.041 10.155 4.594 0 8.411 -2.55 11.11 -4.477 0.979 1.785 2.404 4.477 4.395 4.477 c 1.991 0 3.806 -0.784 4.693 -1.482 l 3.307 -4.606 -0.358 -0.412 c -4.186 2.074 -5.614 3.5 -7.966 -0.976 l 2.969 -2.73 4.36 -5.397 -0.321 -0.398 -7.845 6.87 c -1.27 -2.629 -3.879 -6.862 -6.567 -6.865 m -2.937 3.396 c 2.493 0 3.955 3.672 5.422 6.393 -2.163 1.23 -4.989 2.747 -7.06 2.323 -2.455 -0.503 -3.08 -3.071 -2.091 -5 c 0.877 -1.808 1.953 -3.714 3.726 -3.714" style="fill:#000;opacity:0.1;fill-opacity:1;stroke:none"/>
 <path d="m 21.272 16 c -3.521 -0.004 -6.094 2.696 -7.739 5.841 -2.144 4.098 -4.406 10.155 -0.041 10.155 4.594 0 8.411 -2.55 11.11 -4.477 0.979 1.785 2.404 4.477 4.395 4.477 c 1.991 0 3.806 -0.784 4.693 -1.482 l 3.307 -4.606 -0.358 -0.412 c -4.186 2.074 -5.614 3.5 -7.966 -0.976 l 2.969 -2.73 4.36 -5.397 -0.321 -0.398 -7.845 6.87 c -1.27 -2.629 -3.879 -6.862 -6.567 -6.865 m -2.937 3.396 c 2.493 0 3.955 3.672 5.422 6.393 -2.163 1.23 -4.989 2.747 -7.06 2.323 -2.455 -0.503 -3.08 -3.071 -2.091 -5 c 0.877 -1.808 1.953 -3.714 3.726 -3.714" style="fill:#c5f533;opacity:1;fill-opacity:1;stroke:none"/>
</svg>
