<svg viewBox="0 0 48 48" xmlns="http://www.w3.org/2000/svg" xmlns:xlink="http://www.w3.org/1999/xlink">
  <linearGradient id="a" gradientTransform="matrix(0 -1 1 0 -.0000015 47.999998)" gradientUnits="userSpaceOnUse" x1="1" x2="47">
    <stop offset="0" stop-color="#e4e4e4"/>
    <stop offset="1" stop-color="#eee"/>
  </linearGradient>
  <path d="m47 24c0 22.703-.297 23-23 23-22.703 0-23-.297-23-23 0-22.703.297-23 23-23 22.703 0 23 .297 23 23z" fill="url(#a)"/>
  <path d="m19 13v2h2v-2zm2 2v1h .996v-1zm7-1v2h2v-2zm0 2h-1v .996h1zm-5-1v1h-1v .996h1v3h-9v14.996h22v-14.996h-9l .02-3h-1v1h-2.02v-2-1z" opacity=".1" transform=""/>
  <path d="m13 19h22v14.996h-22m0-14.996" fill="#2d2d2d"/>
  <path d="m15 21h18v11h-18m0-11" fill="#868686"/>
  <path d="m22 17h4v4h-4m0-4" fill="#2d2d2d"/>
  <path d="m22 15h1v1.996h-1m0-1.996" fill="#2d2d2d"/>
  <path d="m22 14h1v1h-1m0-1" fill="#2d2d2d"/>
  <path d="m21 15h1v .996h-1m0-.996" fill="#2d2d2d"/>
  <path d="m20 14h .996v1h-.996m0-1" fill="#2d2d2d"/>
  <path d="m18 12h2v2h-2m0-2" fill="#2d2d2d"/>
  <path d="m25.02 16h1v1h-1m0-1" fill="#2d2d2d"/>
  <path d="m26 15h1v .996h-1m0-.996" fill="#2d2d2d"/>
  <path d="m27 13h2v2h-2m0-2" fill="#2d2d2d"/>
  <path d="m16 30h4v1h-4m0-1" fill="#2d2d2d"/>
  <path d="m25.02 30h3v1h-3m0-1" fill="#2d2d2d"/>
  <path d="m21 30h3v1h-3m0-1" fill="#2d2d2d"/>
  <path d="m29 30h3v1h-3m0-1" fill="#2d2d2d"/>
  <path d="m16 22h1v4h-1m0-4" fill="#2d2d2d"/>
  <path d="m17 22h2v1h-2m0-1" fill="#2d2d2d"/>
  <path d="m18 23h1v3h-1m0-3" fill="#2d2d2d"/>
  <path d="m17 24h1v1h-1m0-1" fill="#2d2d2d"/>
  <path d="m20 22h1v4h-1m0-4" fill="#2d2d2d"/>
  <path d="m22 22h1v4h-1m0-4" fill="#2d2d2d"/>
  <path d="m23 25h2v1h-2m0-1" fill="#2d2d2d"/>
  <path d="m23 22h2v2h-2m0-2" fill="#2d2d2d"/>
  <path d="m26 22h1v2h-1m0-2" fill="#2d2d2d"/>
  <path d="m27 25h1v1h-1m0-1" fill="#2d2d2d"/>
  <path d="m28 22h1v3h-1m0-3" fill="#2d2d2d"/>
  <path d="m26 24h1v1h-1m0-1" fill="#2d2d2d"/>
  <path d="m30 22h1v4h-1m0-4" fill="#2d2d2d"/>
  <path d="m31 23h1v1h-1m0-1" fill="#2d2d2d"/>
</svg>
