<svg xmlns="http://www.w3.org/2000/svg" viewBox="0 0 48 48">
 <defs>
  <linearGradient id="linearGradient3764" x1="1" x2="47" gradientUnits="userSpaceOnUse" gradientTransform="matrix(0,-1,1,0,-1.5e-6,47.999998)">
   <stop style="stop-color:#3d3d3d;stop-opacity:1"/>
   <stop offset="1" style="stop-color:#474747;stop-opacity:1"/>
  </linearGradient>
 </defs>
 <g>
  
  
  
 </g>
 <g>
  <path d="m 47,24 C 47,46.703 46.703,47 24,47 1.297,47 1,46.703 1,24 1,1.297 1.297,1 24,1 46.703,1 47,1.297 47,24 z" style="fill:url(#linearGradient3764);fill-opacity:1"/>
 </g>
 <g>
  <g>
   <g transform="translate(1,1)">
    <g style="opacity:0.1">
     <!-- color: #474747 -->
    </g>
   </g>
  </g>
 </g>
 <g>
  
 </g>
 <path d="m 27.75,12 c 2.623,0 4.75,2.127 4.75,4.75 -0.003,1.803 -1.026,3.45 -2.643,4.25 L 31,21 c 0.554,0 1,0.446 1,1 l 0,1.5 7,-2.5 0,13 -7,-2.5 0,1.5 c 0,0.554 -0.446,1 -1,1 l -16,0 c -0.554,0 -1,-0.446 -1,-1 l 0,-11 c 0,-0.554 0.446,-1 1,-1 l 1.135,0 C 14.522,20.198 13.501,18.552 13.5,16.75 13.5,14.127 15.627,12 18.25,12 20.873,12 23,14.127 23,16.75 22.997,18.553 21.974,20.2 20.357,21 l 5.277,0 C 24.021,20.198 23,18.552 22.999,16.75 c 0,-2.623 2.127,-4.75 4.75,-4.75" style="fill:#000;fill-opacity:0.098;stroke:none;fill-rule:evenodd"/>
 <path d="M 26.75 11 A 4.75 4.75 0 0 1 31.5 15.75 4.75 4.75 0 0 1 28.857 20 L 30 20 c 0.554 0 1 0.446 1 1 l 0 1.5 7 -2.5 0 13 -7 -2.5 0 1.5 c 0 0.554 -0.446 1 -1 1 l -16 0 c -0.554 0 -1 -0.446 -1 -1 l 0 -11 c 0 -0.554 0.446 -1 1 -1 l 1.135 0 A 4.75 4.75 0 0 1 12.5 15.75 4.75 4.75 0 0 1 17.25 11 4.75 4.75 0 0 1 22 15.75 4.75 4.75 0 0 1 19.357 20 l 5.277 0 A 4.75 4.75 0 0 1 22 15.75 4.75 4.75 0 0 1 26.75 11" style="fill:#14ca78;fill-opacity:1;stroke:none;fill-rule:evenodd"/>
</svg>
