<svg viewBox="0 0 48 48" xmlns="http://www.w3.org/2000/svg" xmlns:xlink="http://www.w3.org/1999/xlink">
  <linearGradient id="a" gradientTransform="matrix(0 -1 1 0 -.0000015 47.999998)" gradientUnits="userSpaceOnUse" x1="1" x2="47">
    <stop offset="0" stop-color="#3d3d3d"/>
    <stop offset="1" stop-color="#474747"/>
  </linearGradient>
  <path d="m47 24c0 22.703-.297 23-23 23-22.703 0-23-.297-23-23 0-22.703.297-23 23-23 22.703 0 23 .297 23 23z" fill="url(#a)"/>
  <path d="m27.75 12c2.623 0 4.75 2.127 4.75 4.75-.003 1.803-1.026 3.45-2.643 4.25h1.143c.554 0 1 .446 1 1v1.5l7-2.5v13l-7-2.5v1.5c0 .554-.446 1-1 1h-16c-.554 0-1-.446-1-1v-11c0-.554.446-1 1-1h1.135c-1.613-.802-2.634-2.448-2.635-4.25 0-2.623 2.127-4.75 4.75-4.75 2.623 0 4.75 2.127 4.75 4.75-.003 1.803-1.026 3.45-2.643 4.25h5.277c-1.613-.802-2.634-2.448-2.635-4.25 0-2.623 2.127-4.75 4.75-4.75" fill-opacity=".098" fill-rule="evenodd"/>
  <path d="m26.75 11a4.75 4.75 0 0 1 4.75 4.75 4.75 4.75 0 0 1-2.643 4.25h1.143c.554 0 1 .446 1 1v1.5l7-2.5v13l-7-2.5v1.5c0 .554-.446 1-1 1h-16c-.554 0-1-.446-1-1v-11c0-.554.446-1 1-1h1.135a4.75 4.75 0 0 1-2.635-4.25 4.75 4.75 0 0 1  4.75-4.75 4.75 4.75 0 0 1  4.75 4.75 4.75 4.75 0 0 1-2.643 4.25h5.277a4.75 4.75 0 0 1-2.634-4.25 4.75 4.75 0 0 1  4.75-4.75" fill="#14ca78" fill-rule="evenodd"/>
</svg>
