<svg xmlns="http://www.w3.org/2000/svg" viewBox="0 0 48 48">
 <defs>
  <linearGradient id="linearGradient3764" x1="1" x2="47" gradientUnits="userSpaceOnUse" gradientTransform="matrix(0,-1,1,0,-1.5e-6,47.999998)">
   <stop style="stop-color:#439412;stop-opacity:1"/>
   <stop offset="1" style="stop-color:#4aa614;stop-opacity:1"/>
  </linearGradient>
 </defs>
 <g>
  
  
  
 </g>
 <g>
  <path d="m 47,24 C 47,46.703 46.703,47 24,47 1.297,47 1,46.703 1,24 1,1.297 1.297,1 24,1 46.703,1 47,1.297 47,24 z" style="fill:url(#linearGradient3764);fill-opacity:1"/>
 </g>
 <g>
  <g>
   <g transform="translate(1,1)">
    <g style="opacity:0.1">
     <!-- color: #4aa614 -->
     <g>
      <path d="m 23.746 11.156 c -9.773 0.234 -13.523 10.121 -8.551 17.219 2.121 2.289 2.945 3.793 2.559 4.652 0.195 5.652 13.734 5.359 13.664 0 -0.219 -0.863 0.691 -3.727 1.512 -4.652 5.152 -8.934 0.148 -17.191 -9.188 -17.219" style="fill:#000;fill-opacity:1;stroke:none;fill-rule:nonzero"/>
     </g>
    </g>
   </g>
  </g>
 </g>
 <g transform="translate(-2.3529492e-4,0)">
  <g>
   <!-- color: #4aa614 -->
   <g>
    <path d="m 18.473 30.434 12.336 0 0 3.988 -12.336 0 m 0 -3.988" style="fill:#f9f9f9;fill-opacity:1;stroke:none;fill-rule:nonzero"/>
    <path d="m 23.746 11.156 c -9.773 0.234 -13.523 10.121 -8.551 17.219 2.121 2.289 2.945 3.793 2.559 4.652 0.195 5.652 13.734 5.359 13.664 0 -0.219 -0.863 0.691 -3.727 1.512 -4.652 5.152 -8.934 0.148 -17.191 -9.188 -17.219 m 5.695 19.766 c 1.188 -0.055 1.699 0.633 0.762 1.598 -1.172 1.211 -3.828 1.031 -3.828 -0.25 0 -0.203 0.758 -0.66 1.68 -1.016 0.52 -0.203 0.992 -0.309 1.387 -0.328 m -9.559 0.016 c 1.242 -0.047 3.398 0.867 3.133 1.559 -0.125 0.32 -0.797 0.66 -1.5 0.746 -1.57 0.199 -3.234 -1.32 -2.313 -2.109 0.148 -0.129 0.387 -0.191 0.676 -0.199 m 0.004 0.004" style="fill:#2d2d2d;fill-opacity:1;stroke:none;fill-rule:nonzero"/>
   </g>
  </g>
 </g>
 <g>
  
 </g>
</svg>
