<svg viewBox="0 0 48 48" xmlns="http://www.w3.org/2000/svg" xmlns:xlink="http://www.w3.org/1999/xlink">
  <linearGradient id="a" gradientTransform="matrix(0 -1 1 0 -.0000015 47.999998)" gradientUnits="userSpaceOnUse" x1="1" x2="47">
    <stop offset="0" stop-color="#439412"/>
    <stop offset="1" stop-color="#4aa614"/>
  </linearGradient>
  <path d="m47 24c0 22.703-.297 23-23 23-22.703 0-23-.297-23-23 0-22.703.297-23 23-23 22.703 0 23 .297 23 23z" fill="url(#a)"/>
  <path d="m23.746 11.156c-9.773.234-13.523 10.121-8.551 17.219 2.121 2.289 2.945 3.793 2.559 4.652.195 5.652 13.734 5.359 13.664 0-.219-.863.691-3.727 1.512-4.652 5.152-8.934.148-17.191-9.188-17.219" opacity=".1" transform="translate(1 1)"/>
  <g transform="translate(-.00023529)">
    <path d="m18.473 30.434h12.336v3.988h-12.336m0-3.988" fill="#f9f9f9"/>
    <path d="m23.746 11.156c-9.773.234-13.523 10.121-8.551 17.219 2.121 2.289 2.945 3.793 2.559 4.652.195 5.652 13.734 5.359 13.664 0-.219-.863.691-3.727 1.512-4.652 5.152-8.934.148-17.191-9.188-17.219m5.695 19.766c1.188-.055 1.699.633.762 1.598-1.172 1.211-3.828 1.031-3.828-.25 0-.203.758-.66 1.68-1.016.52-.203.992-.309 1.387-.328m-9.559.016c1.242-.047 3.398.867 3.133 1.559-.125.32-.797.66-1.5.746-1.57.199-3.234-1.32-2.313-2.109.148-.129.387-.191.676-.199m.004.004" fill="#2d2d2d"/>
  </g>
</svg>
