<svg viewBox="0 0 48 48" xmlns="http://www.w3.org/2000/svg" xmlns:xlink="http://www.w3.org/1999/xlink">
  <linearGradient id="a" gradientTransform="matrix(0 -1 1 0 -.0000015 47.999998)" gradientUnits="userSpaceOnUse" x1="1" x2="47">
    <stop offset="0" stop-color="#3d3d3d"/>
    <stop offset="1" stop-color="#474747"/>
  </linearGradient>
  <path d="m47 24c0 22.703-.297 23-23 23-22.703 0-23-.297-23-23 0-22.703.297-23 23-23 22.703 0 23 .297 23 23z" fill="url(#a)"/>
  <path d="m23 10l-3 7-10-1 5.996 6-7 4 8 1-5.996 8 9-3 .996 6 5-5 8 5-3-9 8-1-7-4 5-2-4-1.996 5-9-11 4.996m-4.465 1h2.938c.293 0 .531.238.531.531v7.938c0 .293-.238.531-.531.531h-2.938c-.293 0-.531-.238-.531-.531v-7.938c0-.293.238-.531.531-.531m0 10h2.938c.293 0 .531.238.531.531v2.938c0 .293-.238.531-.531.531h-2.938c-.293 0-.531-.238-.531-.531v-2.938c0-.293.238-.531.531-.531m0 0" opacity=".1" transform="translate(1.004 1)"/>
  <path d="m23 10l-3 7-10-1 5.996 6-7 4 8 1-5.996 8 9-3 .996 6 5-5 8 5-3-9 8-1-7-4 5-2-4-1.996 5-9-11 4.996m-4.465 1h2.938c.293 0 .531.238.531.531v7.938c0 .293-.238.531-.531.531h-2.938c-.293 0-.531-.238-.531-.531v-7.938c0-.293.238-.531.531-.531m0 10h2.938c.293 0 .531.238.531.531v2.938c0 .293-.238.531-.531.531h-2.938c-.293 0-.531-.238-.531-.531v-2.938c0-.293.238-.531.531-.531m0 0" fill="#ffeb45" transform="translate(.004)"/>
</svg>
