<svg xmlns="http://www.w3.org/2000/svg" viewBox="0 0 48 48">
 <defs>
  <linearGradient id="linearGradient3764" x1="1" x2="47" gradientUnits="userSpaceOnUse" gradientTransform="matrix(0,-1,1,0,-1.5e-6,47.999998)">
   <stop style="stop-color:#3b5869;stop-opacity:1"/>
   <stop offset="1" style="stop-color:#426276;stop-opacity:1"/>
  </linearGradient>
 </defs>
 <g>
  
  
  
 </g>
 <g>
  <path d="m 47,24 C 47,46.703 46.703,47 24,47 1.297,47 1,46.703 1,24 1,1.297 1.297,1 24,1 46.703,1 47,1.297 47,24 z" style="fill:url(#linearGradient3764);fill-opacity:1"/>
 </g>
 <g>
  
 </g>
 <path d="m 23.5 15 c -7.5 0 -11.5 9.518 -11.5 12.801 0 4.2 2 7.199 6.5 7.199 l 1.5 0 c 3.305 0 7.311 -4 8.5 -6 0.5 1 1.5 6 5.5 6 1.712 0 4 -2 4 -2 -5 1.54 -6.5 -7.5 -6.5 -7.5 l 6 -9.5 -5 0 -2.5 4.25 c -0.368 -0.991 -2 -5.25 -6.5 -5.25 m -0.156 2.518 c 1.531 0.168 2.906 2.107 3.656 6.982 c -1.276 2.5 -5.54 8.02 -9 8 -5.25 -0.035 0.75 -15.486 5.344 -14.982 z" style="fill:#000;opacity:0.1;fill-opacity:1;stroke:none"/>
 <path d="m 22.5 14 c -7.5 0 -11.5 9.518 -11.5 12.801 0 4.2 2 7.199 6.5 7.199 l 1.5 0 c 3.305 0 7.311 -4 8.5 -6 0.5 1 1.5 6 5.5 6 1.712 0 4 -2 4 -2 -5 1.54 -6.5 -7.5 -6.5 -7.5 l 6 -9.5 -5 0 -2.5 4.25 c -0.368 -0.991 -2 -5.25 -6.5 -5.25 m -0.156 2.518 c 1.531 0.168 2.906 2.107 3.656 6.982 c -1.276 2.5 -5.54 8.02 -9 8 -5.25 -0.035 0.75 -15.486 5.344 -14.982 z" style="fill:#f6634a;opacity:1;fill-opacity:1;stroke:none"/>
</svg>
