<svg viewBox="0 0 48 48" xmlns="http://www.w3.org/2000/svg" xmlns:xlink="http://www.w3.org/1999/xlink">
  <linearGradient id="a" gradientTransform="matrix(0 -1 1 0 -.0000015 47.999998)" gradientUnits="userSpaceOnUse" x1="1" x2="47">
    <stop offset="0" stop-color="#3b5869"/>
    <stop offset="1" stop-color="#426276"/>
  </linearGradient>
  <path d="m47 24c0 22.703-.297 23-23 23-22.703 0-23-.297-23-23 0-22.703.297-23 23-23 22.703 0 23 .297 23 23z" fill="url(#a)"/>
  <path d="m23.5 15c-7.5 0-11.5 9.518-11.5 12.801 0 4.2 2 7.199 6.5 7.199h1.5c3.305 0 7.311-4 8.5-6 .5 1 1.5 6 5.5 6 1.712 0 4-2 4-2-5 1.54-6.5-7.5-6.5-7.5l6-9.5h-5l-2.5 4.25c-.368-.991-2-5.25-6.5-5.25m-.156 2.518c1.531.168 2.906 2.107 3.656 6.982-1.276 2.5-5.54 8.02-9 8-5.25-.035.75-15.486 5.344-14.982z" opacity=".1"/>
  <path d="m22.5 14c-7.5 0-11.5 9.518-11.5 12.801 0 4.2 2 7.199 6.5 7.199h1.5c3.305 0 7.311-4 8.5-6 .5 1 1.5 6 5.5 6 1.712 0 4-2 4-2-5 1.54-6.5-7.5-6.5-7.5l6-9.5h-5l-2.5 4.25c-.368-.991-2-5.25-6.5-5.25m-.156 2.518c1.531.168 2.906 2.107 3.656 6.982-1.276 2.5-5.54 8.02-9 8-5.25-.035.75-15.486 5.344-14.982z" fill="#f6634a"/>
</svg>
