<svg viewBox="0 0 48 48" xmlns="http://www.w3.org/2000/svg" xmlns:xlink="http://www.w3.org/1999/xlink">
  <linearGradient id="a" gradientTransform="matrix(0 -1 1 0 -.0000015 47.999998)" gradientUnits="userSpaceOnUse" x1="1" x2="47">
    <stop offset="0" stop-color="#93b6c1"/>
    <stop offset="1" stop-color="#a0bfc8"/>
  </linearGradient>
  <path d="m47 24c0 22.703-.297 23-23 23-22.703 0-23-.297-23-23 0-22.703.297-23 23-23 22.703 0 23 .297 23 23z" fill="url(#a)"/>
  <path d="m13 12c-.554 0-1 .446-1 1v12 12c0 .554.446 1 1 1h24c .554 0 1-.446 1-1v-12-12c0-.554-.446-1-1-1z" opacity=".1"/>
  <rect fill="#dedede" fill-opacity=".765" height="14" rx="1" width="26" x="11" y="23"/>
  <path d="m12 11h24c .554 0 1 .446 1 1v12h-26v-12c0-.554.446-1 1-1z" fill="#5c5c5c"/>
  <g opacity=".1" transform="translate(1 1)">
    <path d="m28 22v-1.996h-6v1.996m6 0"/>
    <path d="m15.668 21.332l-1.668-1.699 3.754-2.969-3.754-2.969 1.668-1.699 5.633 4.664-5.633 4.664m0 .008"/>
  </g>
  <path d="m28 22v-1.996h-6v1.996m6 0" fill="#fff"/>
  <path d="m15.668 21.332l-1.668-1.699 3.754-2.969-3.754-2.969 1.668-1.699 5.633 4.664-5.633 4.664m0 .008" fill="#fff"/>
</svg>
