<svg viewBox="0 0 48 48" xmlns="http://www.w3.org/2000/svg" xmlns:xlink="http://www.w3.org/1999/xlink">
  <linearGradient id="a" gradientUnits="userSpaceOnUse" x1="1" x2="47">
    <stop offset="0" stop-color="#e52f33"/>
    <stop offset="1" stop-color="#e74145"/>
  </linearGradient>
  <path d="m24 1c22.703 0 23 .297 23 23 0 22.703-.297 23-23 23-22.703 0-23-.297-23-23 0-22.703.297-23 23-23z" fill="url(#a)" transform="matrix(0 -1 1 0 0 48)"/>
  <path d="m39.75 7.344l-.063.063-7.75 4.313-14.938 8.281v9l2.344.938 1.406.563-.969 1.031-1.031 1.094-3.531 3.719-5.5 5.844c.401.357.824.703 1.25 1.031l8.06-4.469 13.969-7.75v-9l-2.344-.938-1.406-.563.969-1.031 3.781-4 1.281-1.344 5.406-5.719.125-.094c-.347-.329-.696-.662-1.063-.969zm-14.75 2.656c-8.284 0-15 6.716-15 15 0 4.04 1.595 7.683 4.188 10.375l4.188-4.438-2.375-.938v-11l14.375-7.969c-1.67-.642-3.479-1.031-5.375-1.031zm11.594.688l-2.375 2.5-10.219 10.813 1 1 3.281-3.469 3.719 1.469v7l-14.438 8-4.156 2.313 2.906-3.094 9.688-10.219-1-1-3.281 3.469-3.719-1.469v-7zm-.344 4.438l-4.625 4.938 2.375.938v11l-13.25 7.375c1.346.396 2.776.625 4.25.625 8.284 0 15-6.716 15-15 0-3.791-1.431-7.241-3.75-9.875z" opacity=".108"/>
  <path d="m38.75 6.344l-.063.063-7.75 4.313-14.938 8.281v9l2.344.938 1.406.563-.969 1.031-1.031 1.094-3.531 3.719-5.5 5.844c.401.357.824.703 1.25 1.031l8.06-4.469 13.969-7.75v-9l-2.344-.938-1.406-.563.969-1.031 3.781-4 1.281-1.344 5.406-5.719.125-.094c-.347-.329-.696-.662-1.063-.969zm-14.75 2.656c-8.284 0-15 6.716-15 15 0 4.04 1.595 7.683 4.188 10.375l4.188-4.438-2.375-.938v-11l14.375-7.969c-1.67-.642-3.479-1.031-5.375-1.031zm11.594.688l-2.375 2.5-10.219 10.813 1 1 3.281-3.469 3.719 1.469v7l-14.438 8-4.156 2.313 2.906-3.094 9.688-10.219-1-1-3.281 3.469-3.719-1.469v-7zm-.344 4.438l-4.625 4.938 2.375.938v11l-13.25 7.375c1.346.396 2.776.625 4.25.625 8.284 0 15-6.716 15-15 0-3.791-1.431-7.241-3.75-9.875z" fill="#f8e10f"/>
</svg>
