<svg xmlns="http://www.w3.org/2000/svg" viewBox="0 0 48 48">
 <defs>
  <linearGradient id="linearGradient3764" x1="1" x2="47" gradientUnits="userSpaceOnUse" gradientTransform="matrix(0,-1,1,0,-1.5e-6,47.999998)">
   <stop style="stop-color:#e4e4e4;stop-opacity:1"/>
   <stop offset="1" style="stop-color:#eee;stop-opacity:1"/>
  </linearGradient>
 </defs>
 <g>
  
  
  
 </g>
 <g>
  <path d="m 47,24 C 47,46.703 46.703,47 24,47 1.297,47 1,46.703 1,24 1,1.297 1.297,1 24,1 46.703,1 47,1.297 47,24 z" style="fill:url(#linearGradient3764);fill-opacity:1"/>
 </g>
 <g>
  <g>
   <!-- color: #eeeeee -->
   <g>
    <path d="m 27.854 12.01 c -2.497 -0.081 -5.01 1.903 -5.143 5.789 0.009 0.101 0.042 0.218 0.061 0.326 -0.306 -0.074 -0.617 -0.119 -0.928 -0.129 l -0.004 0.001 c -2.496 -0.082 -4.992 1.895 -5.121 5.785 0.082 0.953 0.628 2.289 1.188 2.781 0.383 0.393 0.811 0.83 1.152 1.188 -0.232 0.457 -0.808 0.94 -1.215 1.34 c -2.199 1.07 -4.391 3.197 -4.844 5.529 l 0 1.375 18 0 0 -1.375 c -0.357 -1.579 -1.856 -3.328 -3.869 -4.623 l 9.865 0 0 -1.383 c -0.461 -2.024 -2.767 -4.336 -5.666 -5.596 l -1.189 -1.236 c 0.328 -0.321 1.08 -0.936 1.375 -1.439 0.692 -0.322 1.099 -1.154 1.391 -1.748 -0.072 -4.369 -2.555 -6.513 -5.05 -6.594 z" style="fill:#000;fill-opacity:0.098"/>
    <path d="m 26.857 11 c -2.497 -0.081 -5.01 1.903 -5.143 5.789 0.08 0.955 0.642 2.286 1.195 2.777 0.37 0.418 0.789 0.816 1.186 1.217 -0.386 0.417 -0.833 0.872 -1.244 1.299 -2.205 1.07 -4.402 3.194 -4.854 5.527 l 0.002 1.387 l 18 0 0 -1.383 c -0.461 -2.024 -2.767 -4.336 -5.666 -5.596 l -1.189 -1.236 c 0.328 -0.321 1.08 -0.936 1.375 -1.439 0.692 -0.322 1.099 -1.154 1.391 -1.748 -0.073 -4.369 -2.555 -6.513 -5.05 -6.594 z" style="fill:#52c737;fill-opacity:1"/>
    <path d="m 20.844 17 c -2.496 -0.082 -4.992 1.895 -5.121 5.785 0.082 0.953 0.629 2.289 1.188 2.781 0.383 0.393 0.811 0.829 1.152 1.187 -0.232 0.457 -0.81 0.94 -1.216 1.34 -2.199 1.07 -4.391 3.199 -4.844 5.531 l 0 1.375 18 0 0 -1.375 c -0.457 -2.02 -2.766 -4.332 -5.656 -5.594 -0.619 -0.201 -0.962 -1.271 -1.028 -1.41 0.363 -0.336 0.953 -0.813 1.219 -1.25 0.563 -0.219 1.254 -1.059 1.375 -1.785 -0.074 -4.367 -2.566 -6.512 -5.066 -6.594" style="fill:#70b4f8;fill-opacity:1;stroke:none;fill-rule:nonzero"/>
   </g>
  </g>
 </g>
 <g>
  
 </g>
</svg>
