<svg xmlns="http://www.w3.org/2000/svg" viewBox="0 0 48 48">
 <defs>
  <linearGradient id="linearGradient3764" y1="47" x2="0" y2="1" gradientUnits="userSpaceOnUse">
   <stop style="stop-color:#2aa3ef;stop-opacity:1"/>
   <stop offset="1" style="stop-color:#3cabf0;stop-opacity:1"/>
  </linearGradient>
 </defs>
 <path d="M 24,1 C 46.703,1 47,1.297 47,24 47,46.703 46.703,47 24,47 1.297,47 1,46.703 1,24 1,1.297 1.297,1 24,1 Z" style="fill:url(#linearGradient3764);fill-opacity:1"/>
 <path d="m 25 11 c -7.72 0 -14 6.28 -14 14 0.001 2.313 0.634 4.569 1.73 6.6 l -1.73 7.4 6.904 -2.02 c 2.152 1.277 4.587 2.01 7.096 2.02 7.72 0.009 14 -6.276 14 -13.996 0 -7.72 -6.28 -14 -14 -14 z m -1.34 5 c 1.011 0.024 1.945 0.337 2.699 1.139 0.212 0.225 0.622 0.543 1.383 0.217 0.151 -0.065 0.095 0.567 -0.406 0.646 0.233 0.069 0.395 0.164 0.34 0.359 -0.333 0.025 -0.596 0.014 -0.572 0.121 0.469 2.141 -0.279 3.988 -1.734 4.801 -0.508 0.284 -0.85 0.344 -0.85 0.344 1.65 0.076 2.845 0.359 3.783 0.914 1.109 0.656 2.151 -0.19 2.74 -1.053 0.679 -0.994 1.468 -0.43 1.727 0.676 0.836 3.581 -0.64 7.347 -3.822 8.895 -1.754 0.853 -3.724 1.015 -5.633 0.912 -2.22 -0.12 -4.985 -1.221 -5.922 -3.381 -0.542 -1.25 -0.569 -2.618 0.24 -3.9 0.793 -1.257 2.777 -2.377 2.701 -3.838 -0.069 -1.34 -1.01 -0.934 -1.816 -0.994 -1.625 -0.121 -1.509 -0.605 -0.602 -0.912 0.399 -0.135 0.59 -0.232 0.59 -0.232 0 0 -0.938 -0.687 -1.254 -1.227 -0.435 -0.743 -0.349 -1.64 0.605 -1.174 0.652 0.319 1.861 0.295 1.975 0.021 0.649 -1.568 1.782 -2.128 2.795 -2.27 0.351 -0.049 0.696 -0.072 1.033 -0.064 z" style="fill:#000;opacity:0.1;fill-opacity:1;stroke:none"/>
 <path d="m 24 10 c -7.72 0 -14 6.28 -14 14 0.001 2.313 0.634 4.569 1.73 6.6 l -1.73 7.4 6.904 -2.02 c 2.152 1.277 4.587 2.01 7.096 2.02 7.72 0.009 14 -6.276 14 -13.996 0 -7.72 -6.28 -14 -14 -14 m -1.34 5 c 1.011 0.024 1.945 0.337 2.699 1.139 0.212 0.225 0.622 0.543 1.383 0.217 0.151 -0.065 0.095 0.567 -0.406 0.646 0.233 0.069 0.395 0.164 0.34 0.359 -0.333 0.025 -0.596 0.014 -0.572 0.121 0.469 2.141 -0.279 3.988 -1.734 4.801 -0.508 0.284 -0.85 0.344 -0.85 0.344 1.65 0.076 2.845 0.359 3.783 0.914 1.109 0.656 2.151 -0.19 2.74 -1.053 0.679 -0.994 1.468 -0.43 1.727 0.676 0.836 3.581 -0.64 7.347 -3.822 8.895 -1.754 0.853 -3.724 1.015 -5.633 0.912 -2.22 -0.12 -4.985 -1.221 -5.922 -3.381 -0.542 -1.25 -0.569 -2.618 0.24 -3.9 0.793 -1.257 2.777 -2.377 2.701 -3.838 -0.069 -1.34 -1.01 -0.934 -1.816 -0.994 -1.625 -0.121 -1.509 -0.605 -0.602 -0.912 0.399 -0.135 0.59 -0.232 0.59 -0.232 0 0 -0.938 -0.687 -1.254 -1.227 -0.435 -0.743 -0.349 -1.64 0.605 -1.174 0.652 0.319 1.861 0.295 1.975 0.021 0.649 -1.568 1.782 -2.128 2.795 -2.27 0.351 -0.049 0.696 -0.072 1.033 -0.064 z" style="fill:#f9f9f9;opacity:1;fill-opacity:1;stroke:none"/>
</svg>
