<svg viewBox="0 0 48 48" xmlns="http://www.w3.org/2000/svg" xmlns:xlink="http://www.w3.org/1999/xlink">
  <linearGradient id="a" gradientUnits="userSpaceOnUse" x1="1" x2="47">
    <stop offset="0" stop-color="#e8a803"/>
    <stop offset="1" stop-color="#fcb704"/>
  </linearGradient>
  <path d="m24 1c22.703 0 23 .297 23 23 0 22.703-.297 23-23 23-22.703 0-23-.297-23-23 0-22.703.297-23 23-23z" fill="url(#a)" transform="matrix(0 -1 1 0 0 48)"/>
  <path d="m20.291 12l .002.002c-.229.01-.364.261-.246.457l.947 1.629c-1.873 1.122-2.989 2.956-2.99 4.914h14c-.004-1.957-1.121-3.79-2.994-4.91l.951-1.633c.119-.2-.023-.454-.256-.457-.111-.002-.213.058-.268.154l-.959 1.646c-1.057-.522-2.257-.802-3.477-.803-1.22-.001-2.419.278-3.477.799l-.957-1.645c-.056-.1-.163-.159-.277-.154m1.211 4c .276 0 .5.224.5.5 0 .276-.224.5-.5.5-.276 0-.5-.224-.5-.5 0-.276.224-.5.5-.5zm7 0c .276 0 .5.224.5.5 0 .276-.224.5-.5.5-.276 0-.5-.224-.5-.5 0-.276.224-.5.5-.5zm-13 4c-.831 0-1.5.669-1.5 1.5v7c0 .831.669 1.5 1.5 1.5.831 0 1.5-.669 1.5-1.5v-7c0-.831-.669-1.5-1.5-1.5zm2.5 0v11c0 1.108.892 2 2 2h1v3.5c0 .831.669 1.5 1.5 1.5.831 0 1.5-.669 1.5-1.5v-3.5h2v3.5c0 .831.669 1.5 1.5 1.5.831 0 1.5-.669 1.5-1.5v-3.5h1c1.108 0 2-.892 2-2v-11zm16.5 0c-.831 0-1.5.669-1.5 1.5v7c0 .831.669 1.5 1.5 1.5.831 0 1.5-.669 1.5-1.5v-7c0-.831-.669-1.5-1.5-1.5zm-9.498 1c2.376-.001 4.423 1.672 4.898 4h-3.17c-.357-.618-1.015-1-1.729-1-.351 0-.695.094-.998.27l-1.5-2.596c.759-.44 1.621-.673 2.498-.674zm-3.313 1.262l1.58 2.74c-.175.304-.267.648-.268.998.001.714.382 1.373 1 1.73l-1.498 2.594c-1.546-.892-2.502-2.54-2.502-4.324 0-1.43.616-2.791 1.688-3.738zm3.313 2.738c.552 0 1 .448 1 1 0 .552-.448 1-1 1-.552 0-1-.448-1-1 0-.552.448-1 1-1zm2 1h3c0 2.761-2.239 5-5 5-.537 0-1.071-.09-1.58-.262l1.58-2.738c1.105 0 2-.895 2-2z" fill-opacity=".098"/>
  <path d="m19.289 10.998l.002.002c-.229.01-.364.261-.246.457l.947 1.629c-1.873 1.122-2.989 2.956-2.99 4.914h14c-.004-1.957-1.121-3.79-2.994-4.91l.951-1.633c.119-.2-.023-.454-.256-.457-.111-.002-.213.058-.268.154l-.959 1.646c-1.057-.522-2.257-.802-3.477-.803-1.22-.001-2.419.278-3.477.799l-.957-1.645c-.056-.1-.163-.159-.277-.154zm1.211 4c .276 0 .5.224.5.5 0 .276-.224.5-.5.5-.276 0-.5-.224-.5-.5 0-.276.224-.5.5-.5zm7 0c .276 0 .5.224.5.5 0 .276-.224.5-.5.5-.276 0-.5-.224-.5-.5 0-.276.224-.5.5-.5zm-13 4c-.831 0-1.5.669-1.5 1.5v7c0 .831.669 1.5 1.5 1.5.831 0 1.5-.669 1.5-1.5v-7c0-.831-.669-1.5-1.5-1.5zm2.5 0v11c0 1.108.892 2 2 2h1v3.5c0 .831.669 1.5 1.5 1.5.831 0 1.5-.669 1.5-1.5v-3.5h2v3.5c0 .831.669 1.5 1.5 1.5.831 0 1.5-.669 1.5-1.5v-3.5h1c1.108 0 2-.892 2-2v-11zm16.5 0c-.831 0-1.5.669-1.5 1.5v7c0 .831.669 1.5 1.5 1.5.831 0 1.5-.669 1.5-1.5v-7c0-.831-.669-1.5-1.5-1.5zm-9.498 1c2.376-.001 4.423 1.672 4.898 4h-3.17c-.357-.618-1.015-1-1.729-1-.351 0-.695.094-.998.27l-1.5-2.596c.759-.44 1.621-.673 2.498-.674m-3.313 1.262l1.58 2.74c-.175.304-.267.648-.268.998.001.714.382 1.373 1 1.73l-1.498 2.594c-1.546-.892-2.502-2.54-2.502-4.324 0-1.43.616-2.791 1.688-3.738zm3.313 2.738c.552 0 1 .448 1 1 0 .552-.448 1-1 1-.552 0-1-.448-1-1 0-.552.448-1 1-1zm2 1h3c0 2.761-2.239 5-5 5-.537 0-1.071-.09-1.58-.262l1.58-2.738c1.105 0 2-.895 2-2z" fill="#f9f9f9"/>
</svg>
