<svg viewBox="0 0 48 48" xmlns="http://www.w3.org/2000/svg" xmlns:xlink="http://www.w3.org/1999/xlink">
  <linearGradient id="a" gradientTransform="matrix(0 -1 1 0 -.0000015 47.999998)" gradientUnits="userSpaceOnUse" x1="1" x2="47">
    <stop offset="0" stop-color="#7ca339"/>
    <stop offset="1" stop-color="#87b23e"/>
  </linearGradient>
  <path d="m47 24c0 22.703-.297 23-23 23-22.703 0-23-.297-23-23 0-22.703.297-23 23-23 22.703 0 23 .297 23 23z" fill="url(#a)"/>
  <path d="m20.289 12l .002.002c-.229.01-.364.261-.246.457l.947 1.629c-1.873 1.122-2.989 2.956-2.99 4.914h14c-.004-1.957-1.121-3.79-2.994-4.91l.951-1.633c.119-.2-.023-.454-.256-.457-.111-.002-.213.058-.268.154l-.959 1.646c-1.057-.522-2.257-.802-3.477-.803-1.22-.001-2.419.278-3.477.799l-.957-1.645c-.056-.1-.163-.159-.277-.154m1.211 4c .276 0 .5.224.5.5 0 .276-.224.5-.5.5-.276 0-.5-.224-.5-.5 0-.276.224-.5.5-.5m7 0c .276 0 .5.224.5.5 0 .276-.224.5-.5.5-.276 0-.5-.224-.5-.5 0-.276.224-.5.5-.5m-13 4c-.831 0-1.5.669-1.5 1.5v7c0 .831.669 1.5 1.5 1.5.831 0 1.5-.669 1.5-1.5v-7c0-.831-.669-1.5-1.5-1.5m2.5 0v11c0 1.108.892 2 2 2h1v3.5c0 .831.669 1.5 1.5 1.5.831 0 1.5-.669 1.5-1.5v-3.5h2v3.5c0 .831.669 1.5 1.5 1.5.831 0 1.5-.669 1.5-1.5v-3.5h1c1.108 0 2-.892 2-2v-11zm16.5 0c-.831 0-1.5.669-1.5 1.5v7c0 .831.669 1.5 1.5 1.5.831 0 1.5-.669 1.5-1.5v-7c0-.831-.669-1.5-1.5-1.5m-9.496 1c1.596-.002.501 1.335 1.883 2.053 1.382.718 2.116-.807 2.914.439.798 1.246-1.031 1.062-1.031 2.502 0 1.44 1.828 1.249 1.029 2.498-.798 1.249-1.532-.273-2.914.449-1.382.722-.289 2.056-1.885 2.059-1.596.002-.501-1.335-1.883-2.053-1.382-.718-2.116.807-2.914-.439-.798-1.246 1.031-1.062 1.031-2.502 0-1.44-1.828-1.249-1.029-2.498.798-1.249 1.532.273 2.914-.449 1.382-.722.289-2.056 1.885-2.059zm-.002 4a1 1 0 0 0-1 1 1 1 0 0 0  1 1 1 1 0 0 0  1-1 1 1 0 0 0-1-1z" opacity=".1"/>
  <path d="m19.287 10.998l.002.002c-.229.01-.364.261-.246.457l.947 1.629c-1.873 1.122-2.989 2.956-2.99 4.914h14c-.004-1.957-1.121-3.79-2.994-4.91l.951-1.633c.119-.2-.023-.454-.256-.457-.111-.002-.213.058-.268.154l-.959 1.646c-1.057-.522-2.257-.802-3.477-.803-1.22-.001-2.419.278-3.477.799l-.957-1.645c-.056-.1-.163-.159-.277-.154zm1.211 4c .276 0 .5.224.5.5 0 .276-.224.5-.5.5-.276 0-.5-.224-.5-.5 0-.276.224-.5.5-.5zm7 0c .276 0 .5.224.5.5 0 .276-.224.5-.5.5-.276 0-.5-.224-.5-.5 0-.276.224-.5.5-.5zm-13 4c-.831 0-1.5.669-1.5 1.5v7c0 .831.669 1.5 1.5 1.5.831 0 1.5-.669 1.5-1.5v-7c0-.831-.669-1.5-1.5-1.5zm2.5 0v11c0 1.108.892 2 2 2h1v3.5c0 .831.669 1.5 1.5 1.5.831 0 1.5-.669 1.5-1.5v-3.5h2v3.5c0 .831.669 1.5 1.5 1.5.831 0 1.5-.669 1.5-1.5v-3.5h1c1.108 0 2-.892 2-2v-11zm16.5 0c-.831 0-1.5.669-1.5 1.5v7c0 .831.669 1.5 1.5 1.5.831 0 1.5-.669 1.5-1.5v-7c0-.831-.669-1.5-1.5-1.5zm-9.496 1c1.596-.002.501 1.335 1.883 2.053 1.382.718 2.116-.807 2.914.439.798 1.246-1.031 1.062-1.031 2.502 0 1.44 1.828 1.249 1.029 2.498-.798 1.249-1.532-.273-2.914.449-1.382.722-.289 2.056-1.885 2.059-1.596.002-.501-1.335-1.883-2.053-1.382-.718-2.116.807-2.914-.439-.798-1.246 1.031-1.062 1.031-2.502 0-1.44-1.828-1.249-1.029-2.498.798-1.249 1.532.273 2.914-.449 1.382-.722.289-2.056 1.885-2.059zm-.002 4a1 1 0 0 0-1 1 1 1 0 0 0  1 1 1 1 0 0 0  1-1 1 1 0 0 0-1-1z" fill="#f9f9f9"/>
</svg>
