<svg xmlns="http://www.w3.org/2000/svg" viewBox="0 0 48 48">
 <defs>
  <linearGradient id="linearGradient3764" x1="1" x2="47" gradientUnits="userSpaceOnUse" gradientTransform="matrix(0,-1,1,0,-1.5e-6,47.999998)">
   <stop style="stop-color:#7ca339;stop-opacity:1"/>
   <stop offset="1" style="stop-color:#87b23e;stop-opacity:1"/>
  </linearGradient>
 </defs>
 <g>
  
  
  
 </g>
 <g>
  <path d="m 47,24 C 47,46.703 46.703,47 24,47 1.297,47 1,46.703 1,24 1,1.297 1.297,1 24,1 46.703,1 47,1.297 47,24 z" style="fill:url(#linearGradient3764);fill-opacity:1"/>
 </g>
 <g>
  <g>
   <g transform="translate(1,1)">
    <g style="opacity:0.1">
     <!-- color: #87b23e -->
    </g>
   </g>
  </g>
 </g>
 <g>
  <g>
   <!-- color: #87b23e -->
  </g>
 </g>
 <g>
  
 </g>
 <path d="m 20.289 12 0.002 0.002 c -0.229 0.01 -0.364 0.261 -0.246 0.457 l 0.947 1.629 c -1.873 1.122 -2.989 2.956 -2.99 4.914 l 14 0 c -0.004 -1.957 -1.121 -3.79 -2.994 -4.91 l 0.951 -1.633 c 0.119 -0.2 -0.023 -0.454 -0.256 -0.457 -0.111 -0.002 -0.213 0.058 -0.268 0.154 l -0.959 1.646 c -1.057 -0.522 -2.257 -0.802 -3.477 -0.803 -1.22 -0.001 -2.419 0.278 -3.477 0.799 l -0.957 -1.645 c -0.056 -0.1 -0.163 -0.159 -0.277 -0.154 m 1.211 4 c 0.276 0 0.5 0.224 0.5 0.5 0 0.276 -0.224 0.5 -0.5 0.5 -0.276 0 -0.5 -0.224 -0.5 -0.5 0 -0.276 0.224 -0.5 0.5 -0.5 m 7 0 c 0.276 0 0.5 0.224 0.5 0.5 0 0.276 -0.224 0.5 -0.5 0.5 -0.276 0 -0.5 -0.224 -0.5 -0.5 0 -0.276 0.224 -0.5 0.5 -0.5 m -13 4 c -0.831 0 -1.5 0.669 -1.5 1.5 l 0 7 c 0 0.831 0.669 1.5 1.5 1.5 0.831 0 1.5 -0.669 1.5 -1.5 l 0 -7 c 0 -0.831 -0.669 -1.5 -1.5 -1.5 m 2.5 0 0 11 c 0 1.108 0.892 2 2 2 l 1 0 0 3.5 c 0 0.831 0.669 1.5 1.5 1.5 0.831 0 1.5 -0.669 1.5 -1.5 l 0 -3.5 2 0 0 3.5 c 0 0.831 0.669 1.5 1.5 1.5 0.831 0 1.5 -0.669 1.5 -1.5 l 0 -3.5 1 0 c 1.108 0 2 -0.892 2 -2 l 0 -11 -14 0 z m 16.5 0 c -0.831 0 -1.5 0.669 -1.5 1.5 l 0 7 c 0 0.831 0.669 1.5 1.5 1.5 0.831 0 1.5 -0.669 1.5 -1.5 l 0 -7 c 0 -0.831 -0.669 -1.5 -1.5 -1.5 m -9.496 1 c 1.596 -0.002 0.501 1.335 1.883 2.053 1.382 0.718 2.116 -0.807 2.914 0.439 0.798 1.246 -1.031 1.062 -1.031 2.502 0 1.44 1.828 1.249 1.029 2.498 c -0.798 1.249 -1.532 -0.273 -2.914 0.449 -1.382 0.722 -0.289 2.056 -1.885 2.059 c -1.596 0.002 -0.501 -1.335 -1.883 -2.053 -1.382 -0.718 -2.116 0.807 -2.914 -0.439 -0.798 -1.246 1.031 -1.062 1.031 -2.502 0 -1.44 -1.828 -1.249 -1.029 -2.498 0.798 -1.249 1.532 0.273 2.914 -0.449 1.382 -0.722 0.289 -2.056 1.885 -2.059 z m -0.002 4 a 1 1 0 0 0 -1 1 1 1 0 0 0 1 1 1 1 0 0 0 1 -1 1 1 0 0 0 -1 -1 z" style="fill:#000;opacity:0.1;fill-opacity:1;stroke:none"/>
 <path d="m 19.287 10.998 l 0.002 0.002 c -0.229 0.01 -0.364 0.261 -0.246 0.457 l 0.947 1.629 c -1.873 1.122 -2.989 2.956 -2.99 4.914 l 14 0 c -0.004 -1.957 -1.121 -3.79 -2.994 -4.91 l 0.951 -1.633 c 0.119 -0.2 -0.023 -0.454 -0.256 -0.457 c -0.111 -0.002 -0.213 0.058 -0.268 0.154 l -0.959 1.646 c -1.057 -0.522 -2.257 -0.802 -3.477 -0.803 c -1.22 -0.001 -2.419 0.278 -3.477 0.799 l -0.957 -1.645 c -0.056 -0.1 -0.163 -0.159 -0.277 -0.154 z m 1.211 4 c 0.276 0 0.5 0.224 0.5 0.5 c 0 0.276 -0.224 0.5 -0.5 0.5 c -0.276 0 -0.5 -0.224 -0.5 -0.5 c 0 -0.276 0.224 -0.5 0.5 -0.5 z m 7 0 c 0.276 0 0.5 0.224 0.5 0.5 c 0 0.276 -0.224 0.5 -0.5 0.5 c -0.276 0 -0.5 -0.224 -0.5 -0.5 c 0 -0.276 0.224 -0.5 0.5 -0.5 z m -13 4 c -0.831 0 -1.5 0.669 -1.5 1.5 l 0 7 c 0 0.831 0.669 1.5 1.5 1.5 c 0.831 0 1.5 -0.669 1.5 -1.5 l 0 -7 c 0 -0.831 -0.669 -1.5 -1.5 -1.5 z m 2.5 0 l 0 11 c 0 1.108 0.892 2 2 2 l 1 0 l 0 3.5 c 0 0.831 0.669 1.5 1.5 1.5 c 0.831 0 1.5 -0.669 1.5 -1.5 l 0 -3.5 l 2 0 l 0 3.5 c 0 0.831 0.669 1.5 1.5 1.5 c 0.831 0 1.5 -0.669 1.5 -1.5 l 0 -3.5 l 1 0 c 1.108 0 2 -0.892 2 -2 l 0 -11 l -14 0 z m 16.5 0 c -0.831 0 -1.5 0.669 -1.5 1.5 l 0 7 c 0 0.831 0.669 1.5 1.5 1.5 c 0.831 0 1.5 -0.669 1.5 -1.5 l 0 -7 c 0 -0.831 -0.669 -1.5 -1.5 -1.5 z m -9.496 1 c 1.596 -0.002 0.501 1.335 1.883 2.053 c 1.382 0.718 2.116 -0.807 2.914 0.439 c 0.798 1.246 -1.031 1.062 -1.031 2.502 c 0 1.44 1.828 1.249 1.029 2.498 c -0.798 1.249 -1.532 -0.273 -2.914 0.449 c -1.382 0.722 -0.289 2.056 -1.885 2.059 c -1.596 0.002 -0.501 -1.335 -1.883 -2.053 c -1.382 -0.718 -2.116 0.807 -2.914 -0.439 c -0.798 -1.246 1.031 -1.062 1.031 -2.502 c 0 -1.44 -1.828 -1.249 -1.029 -2.498 c 0.798 -1.249 1.532 0.273 2.914 -0.449 c 1.382 -0.722 0.289 -2.056 1.885 -2.059 z m -0.002 4 a 1 1 0 0 0 -1 1 a 1 1 0 0 0 1 1 a 1 1 0 0 0 1 -1 a 1 1 0 0 0 -1 -1 z" style="fill:#f9f9f9;opacity:1;fill-opacity:1;stroke:none"/>
</svg>
