<svg viewBox="0 0 48 48" xmlns="http://www.w3.org/2000/svg" xmlns:xlink="http://www.w3.org/1999/xlink">
  <linearGradient id="a" gradientTransform="matrix(0 -1 1 0 -.0000015 47.999998)" gradientUnits="userSpaceOnUse" x1="1" x2="47">
    <stop offset="0" stop-color="#d05858"/>
    <stop offset="1" stop-color="#d46868"/>
  </linearGradient>
  <path d="m47 24c0 22.703-.297 23-23 23-22.703 0-23-.297-23-23 0-22.703.297-23 23-23 22.703 0 23 .297 23 23z" fill="url(#a)"/>
  <path d="m29 11.996c-4.971 0-9 4.03-9 9 .004 2.01.684 3.97 1.932 5.553l-4.748 4.748 1.504 1.504 4.74-4.74c1.587 1.253 3.55 1.935 5.572 1.936 4.971 0 9-4.03 9-9 0-4.971-4.03-9-9-9zm-12.266 19.13l-4.734 4.734 2.145 2.145 4.734-4.734" opacity=".1"/>
  <path d="m28 11.494c-4.699 0-8.5 3.809-8.5 8.504 0 4.699 3.801 8.504 8.5 8.504 4.695 0 8.498-3.803 8.498-8.502 0-4.695-3.803-8.506-8.498-8.506z" fill="#86b7d5"/>
  <path d="m21.02 25.466l-4.834 4.835 1.504 1.504 4.834-4.835zm-5.284 4.659l-4.734 4.734 2.145 2.145 4.734-4.734z" fill="#dcdcdc"/>
  <path d="m28.311 11.51a9 9 0 0 0-8.799 8.68c.102 4.609 3.856 8.312 8.488 8.312 4.697 0 8.5-3.803 8.5-8.502 0-4.591-3.639-8.326-8.189-8.49zm.189 1.49a7.5 7.5 0 0 1 7.5 7.5 7.5 7.5 0 0 1-7.5 7.5 7.5 7.5 0 0 1-7.5-7.5 7.5 7.5 0 0 1  7.5-7.5z" opacity=".1"/>
  <path d="m28 11a9 9 0 0 0-9 9 9 9 0 0 0  9 9 9 9 0 0 0  9-9 9 9 0 0 0-9-9zm0 1.5a7.5 7.5 0 0 1 7.5 7.5 7.5 7.5 0 0 1-7.5 7.5 7.5 7.5 0 0 1-7.5-7.5 7.5 7.5 0 0 1  7.5-7.5" fill="#dcdcdc"/>
</svg>
