<svg xmlns="http://www.w3.org/2000/svg" viewBox="0 0 48 48">
 <g>
  
  
  
 </g>
 <g style="fill:#ee992e;fill-opacity:1">
  <path d="M 24,1 C 46.703,1 47,1.297 47,24 47,46.703 46.703,47 24,47 1.297,47 1,46.703 1,24 1,1.297 1.297,1 24,1 Z"/>
 </g>
 <path d="M 41 25 A 16 16 0 0 1 25 41 16 16 0 0 1 9 25 16 16 0 0 1 25 9 16 16 0 0 1 41 25" style="fill:#000;opacity:0.1;fill-opacity:1;stroke:none"/>
 <g>
  
 </g>
 <g>
  <path d="M 40 24 A 16 16 0 0 1 24 40 16 16 0 0 1 8 24 16 16 0 0 1 24 8 16 16 0 0 1 40 24" style="fill:#fff;opacity:1;fill-opacity:1;stroke:none"/>
  <path d="m 20.721 14.25 a 1.25 1.25 0 0 0 -0.822 2.166 L 28.881 25 19.898 33.584 a 1.25 1.25 0 1 0 1.729 1.807 L 32.5 25 21.627 14.607 A 1.25 1.25 0 0 0 20.721 14.25" mix-blend-mode="normal" isolation="auto" white-space="normal" solid-opacity="1" solid-color="#000000" style="visibility:visible;shape-rendering:auto;color-interpolation-filters:linearRGB;fill:#000;opacity:0.1;image-rendering:auto;fill-opacity:1;stroke:none;display:inline;color:#000;fill-rule:evenodd;color-rendering:auto;color-interpolation:sRGB"/>
  <path d="m 19.721 13.25 a 1.25 1.25 0 0 0 -0.822 2.166 L 27.881 24 18.898 32.584 a 1.25 1.25 0 1 0 1.729 1.807 L 31.5 24 20.627 13.609 A 1.25 1.25 0 0 0 19.721 13.25" mix-blend-mode="normal" isolation="auto" white-space="normal" solid-opacity="1" solid-color="#000000" style="visibility:visible;shape-rendering:auto;color-interpolation-filters:linearRGB;fill:#353535;opacity:1;image-rendering:auto;fill-opacity:1;stroke:none;display:inline;color:#000;fill-rule:evenodd;color-rendering:auto;color-interpolation:sRGB"/>
 </g>
</svg>
