<svg viewBox="0 0 48 48" xmlns="http://www.w3.org/2000/svg">
  <path d="m24 1c22.703 0 23 .297 23 23 0 22.703-.297 23-23 23-22.703 0-23-.297-23-23 0-22.703.297-23 23-23z" fill="#ee992e"/>
  <path d="m41 25a16 16 0 0 1-16 16 16 16 0 0 1-16-16 16 16 0 0 1  16-16 16 16 0 0 1  16 16" opacity=".1"/>
  <path d="m40 24a16 16 0 0 1-16 16 16 16 0 0 1-16-16 16 16 0 0 1  16-16 16 16 0 0 1  16 16" fill="#fff"/>
  <path d="m20.721 14.25a1.25 1.25 0 0 0-.822 2.166l8.982 8.584-8.983 8.584a1.25 1.25 0 1 0 1.729 1.807l10.873-10.391-10.873-10.393a1.25 1.25 0 0 0-.906-.357" fill-rule="evenodd" opacity=".1"/>
  <path d="m19.721 13.25a1.25 1.25 0 0 0-.822 2.166l8.982 8.584-8.983 8.584a1.25 1.25 0 1 0 1.729 1.807l10.873-10.391-10.873-10.391a1.25 1.25 0 0 0-.906-.359" fill="#353535" fill-rule="evenodd"/>
</svg>
