<svg xmlns="http://www.w3.org/2000/svg" viewBox="0 0 48 48">
 <defs>
  <linearGradient id="linearGradient3764" x1="1" x2="47" gradientUnits="userSpaceOnUse" gradientTransform="matrix(0,-1,1,0,-1.5e-6,47.999998)">
   <stop style="stop-color:#ed6d17;stop-opacity:1"/>
   <stop offset="1" style="stop-color:#ef772a;stop-opacity:1"/>
  </linearGradient>
 </defs>
 <g>
  
  
  
 </g>
 <g>
  <path d="m 47,24 C 47,46.703 46.703,47 24,47 1.297,47 1,46.703 1,24 1,1.297 1.297,1 24,1 46.703,1 47,1.297 47,24 z" style="fill:url(#linearGradient3764);fill-opacity:1"/>
 </g>
 <g>
  <g>
   <g transform="translate(1,1)">
    <g style="opacity:0.1">
     <!-- color: #ef772a -->
     <g>
      <path d="m 19.18 14.949 l 1.531 0 l 3.813 10 l -1.406 0 l -0.906 -2.563 l -4.5 0 l -0.941 2.563 l -1.406 0 m 4.566 -8.656 l -1.813 4.969 l 3.656 0 m -1.844 -4.969" style="fill:#000;fill-opacity:1;stroke:none;fill-rule:nonzero"/>
      <path d="m 30.12 32.27 l 2.145 -2.145 l 4.738 4.734 l -2.145 2.145 m -4.738 -4.734" style="fill:#000;fill-opacity:1;stroke:none;fill-rule:nonzero"/>
      <path d="m 25.574 27.08 l 1.504 -1.504 l 4.734 4.734 l -1.504 1.504 m -4.734 -4.734" style="fill:#000;fill-opacity:1;stroke:none;fill-rule:nonzero"/>
      <path d="m 19.93 10.965 c -2.293 0 -4.566 0.914 -6.309 2.656 c -3.488 3.484 -3.488 9.133 0 12.625 c 3.484 3.484 9.133 3.484 12.625 0 c 3.484 -3.488 3.484 -9.137 0 -12.625 c -1.742 -1.742 -4.02 -2.656 -6.313 -2.656 m -0.004 1.551 c 1.91 0 3.852 0.641 5.316 2.105 c 2.926 2.926 2.926 7.703 0 10.629 c -2.926 2.926 -7.703 2.926 -10.629 0 c -2.93 -2.926 -2.93 -7.703 0 -10.629 c 1.461 -1.465 3.402 -2.105 5.312 -2.105 m 0 0" style="fill:#000;fill-opacity:1;stroke:none;fill-rule:nonzero"/>
     </g>
    </g>
   </g>
  </g>
 </g>
 <g>
  <g>
   <!-- color: #ef772a -->
   <g>
    <path d="m 19.18 14.949 l 1.531 0 l 3.813 10 l -1.406 0 l -0.906 -2.563 l -4.5 0 l -0.941 2.563 l -1.406 0 m 4.566 -8.656 l -1.813 4.969 l 3.656 0 m -1.844 -4.969" style="fill:#f9f9f9;fill-opacity:1;stroke:none;fill-rule:nonzero"/>
    <path d="m 30.12 32.27 l 2.145 -2.145 l 4.738 4.734 l -2.145 2.145 m -4.738 -4.734" style="fill:#f9f9f9;fill-opacity:1;stroke:none;fill-rule:nonzero"/>
    <path d="m 25.574 27.08 l 1.504 -1.504 l 4.734 4.734 l -1.504 1.504 m -4.734 -4.734" style="fill:#f9f9f9;fill-opacity:1;stroke:none;fill-rule:nonzero"/>
    <path d="m 19.93 10.965 c -2.293 0 -4.566 0.914 -6.309 2.656 c -3.488 3.484 -3.488 9.133 0 12.625 c 3.484 3.484 9.133 3.484 12.625 0 c 3.484 -3.488 3.484 -9.137 0 -12.625 c -1.742 -1.742 -4.02 -2.656 -6.313 -2.656 m -0.004 1.551 c 1.91 0 3.852 0.641 5.316 2.105 c 2.926 2.926 2.926 7.703 0 10.629 c -2.926 2.926 -7.703 2.926 -10.629 0 c -2.93 -2.926 -2.93 -7.703 0 -10.629 c 1.461 -1.465 3.402 -2.105 5.312 -2.105 m 0 0" style="fill:#f9f9f9;fill-opacity:1;stroke:none;fill-rule:nonzero"/>
   </g>
  </g>
 </g>
 <g>
  
 </g>
</svg>
