<svg viewBox="0 0 48 48" xmlns="http://www.w3.org/2000/svg" xmlns:xlink="http://www.w3.org/1999/xlink">
  <linearGradient id="a" gradientTransform="matrix(0 -1 1 0 -.0000015 47.999998)" gradientUnits="userSpaceOnUse" x1="1" x2="47">
    <stop offset="0" stop-color="#ed6d17"/>
    <stop offset="1" stop-color="#ef772a"/>
  </linearGradient>
  <path d="m47 24c0 22.703-.297 23-23 23-22.703 0-23-.297-23-23 0-22.703.297-23 23-23 22.703 0 23 .297 23 23z" fill="url(#a)"/>
  <g opacity=".1" transform="translate(1 1)">
    <path d="m19.18 14.949h1.531l3.813 10h-1.406l-.906-2.563h-4.5l-.941 2.563h-1.406m4.566-8.656l-1.813 4.969h3.656m-1.844-4.969"/>
    <path d="m30.12 32.27l2.145-2.145 4.738 4.734-2.145 2.145m-4.738-4.734"/>
    <path d="m25.574 27.08l1.504-1.504 4.734 4.734-1.504 1.504m-4.734-4.734"/>
    <path d="m19.93 10.965c-2.293 0-4.566.914-6.309 2.656-3.488 3.484-3.488 9.133 0 12.625 3.484 3.484 9.133 3.484 12.625 0 3.484-3.488 3.484-9.137 0-12.625-1.742-1.742-4.02-2.656-6.313-2.656m-.004 1.551c1.91 0 3.852.641 5.316 2.105 2.926 2.926 2.926 7.703 0 10.629-2.926 2.926-7.703 2.926-10.629 0-2.93-2.926-2.93-7.703 0-10.629 1.461-1.465 3.402-2.105 5.312-2.105m0 0"/>
  </g>
  <path d="m19.18 14.949h1.531l3.813 10h-1.406l-.906-2.563h-4.5l-.941 2.563h-1.406m4.566-8.656l-1.813 4.969h3.656m-1.844-4.969" fill="#f9f9f9"/>
  <path d="m30.12 32.27l2.145-2.145 4.738 4.734-2.145 2.145m-4.738-4.734" fill="#f9f9f9"/>
  <path d="m25.574 27.08l1.504-1.504 4.734 4.734-1.504 1.504m-4.734-4.734" fill="#f9f9f9"/>
  <path d="m19.93 10.965c-2.293 0-4.566.914-6.309 2.656-3.488 3.484-3.488 9.133 0 12.625 3.484 3.484 9.133 3.484 12.625 0 3.484-3.488 3.484-9.137 0-12.625-1.742-1.742-4.02-2.656-6.313-2.656m-.004 1.551c1.91 0 3.852.641 5.316 2.105 2.926 2.926 2.926 7.703 0 10.629-2.926 2.926-7.703 2.926-10.629 0-2.93-2.926-2.93-7.703 0-10.629 1.461-1.465 3.402-2.105 5.312-2.105m0 0" fill="#f9f9f9"/>
</svg>
