<svg viewBox="0 0 48 48" xmlns="http://www.w3.org/2000/svg" xmlns:xlink="http://www.w3.org/1999/xlink">
  <linearGradient id="a" gradientUnits="userSpaceOnUse" x2="0" y1="1" y2="47">
    <stop offset="0" stop-color="#97d957"/>
    <stop offset="1" stop-color="#8dd548"/>
  </linearGradient>
  <path d="m24 1c22.703 0 23 .297 23 23 0 22.703-.297 23-23 23-22.703 0-23-.297-23-23 0-22.703.297-23 23-23z" fill="url(#a)"/>
  <path d="m18.232 16.723c-.719.029-1.311.337-1.719.646-2.41 1.828-4.514 9.452-4.514 13.486 0 4.03.928 3.863 1.732 3.863.805 0 1.817-.553 2.701-1.332 2.442-2.149 3.566-4.387 5.994-4.387 1.715 0 3.43 0 5.145 0 2.428 0 3.553 2.237 5.994 4.387.884.779 1.896 1.332 2.701 1.332.805 0 1.732.172 1.732-3.863 0-4.03-2.104-11.659-4.514-13.486-.652-.495-1.774-.987-3.141-.338-.916.435-1.735.969-2.932.969-1.609 0-3.219 0-4.828 0-1.197 0-2.02-.533-2.932-.969-.512-.243-.99-.326-1.422-.309z" fill-rule="evenodd" opacity=".1"/>
  <g transform="translate(-1 -48)">
    <path d="m18.232 63.723c-.719.029-1.311.337-1.719.646-2.41 1.828-4.514 9.452-4.514 13.486 0 4.03.928 3.863 1.732 3.863.805 0 1.817-.553 2.701-1.332 2.442-2.149 3.566-4.387 5.994-4.387 1.715 0 3.43 0 5.145 0 2.428 0 3.553 2.237 5.994 4.387.884.779 1.896 1.332 2.701 1.332.805 0 1.732.172 1.732-3.863 0-4.03-2.104-11.659-4.514-13.486-.652-.495-1.774-.987-3.141-.338-.916.435-1.735.969-2.932.969-1.609 0-3.219 0-4.828 0-1.197 0-2.02-.533-2.932-.969-.512-.243-.99-.326-1.422-.309z" fill="#fffee0" fill-rule="evenodd"/>
    <circle cx="19" cy="70" fill="#3b3b3b" r="2"/>
    <circle cx="32" cy="68" fill="#df8003" r="1"/>
    <circle cx="34" cy="70" fill="#e45146" r="1"/>
    <circle cx="32" cy="72" fill="#68bf45" r="1"/>
    <circle cx="30" cy="70" fill="#5b6dc1" r="1"/>
    <circle cx="25.5" cy="70" fill="none" r=".6" stroke="#3b3b3b" stroke-linecap="round" stroke-width=".3"/>
    <circle cx="23.75" cy="70" fill="#3b3b3b" r=".5"/>
    <circle cx="27.25" cy="70" fill="#3b3b3b" r=".5"/>
  </g>
</svg>
