<svg viewBox="0 0 48 48" xmlns="http://www.w3.org/2000/svg" xmlns:xlink="http://www.w3.org/1999/xlink">
  <linearGradient id="a" gradientTransform="matrix(0 -1 1 0 -.0000015 47.999998)" gradientUnits="userSpaceOnUse" x1="1" x2="47">
    <stop offset="0" stop-color="#c73838"/>
    <stop offset="1" stop-color="#cc4848"/>
  </linearGradient>
  <path d="m47 24c0 22.703-.297 23-23 23-22.703 0-23-.297-23-23 0-22.703.297-23 23-23 22.703 0 23 .297 23 23z" fill="url(#a)"/>
  <g transform="matrix(3.543307 0 0 3.543307 .00000022 -.00039272)">
    <path d="m7.06 2.822c-2.338 0-4.233 1.895-4.233 4.233 0 2.338 1.895 4.233 4.233 4.233 2.338 0 4.233-1.895 4.233-4.233 0-2.338-1.895-4.233-4.233-4.233zm0 .564c2.026 0 3.669 1.643 3.669 3.669 0 2.026-1.643 3.669-3.669 3.669-2.026 0-3.669-1.643-3.669-3.669 0-2.026 1.643-3.669 3.669-3.669zm-1.129 1.693v3.951l3.104-1.976z" opacity=".1"/>
    <path d="m24 9c-8.284 0-15 6.716-15 15 0 8.284 6.716 15 15 15 8.284 0 15-6.716 15-15 0-8.284-6.716-15-15-15m0 2c7.18 0 13 5.82 13 13 0 7.18-5.82 13-13 13-7.18 0-13-5.82-13-13 0-7.18 5.82-13 13-13zm-4 6v14l11-7z" fill="#fdebeb" transform="matrix(.28222223 0 0 .28222223 -.00000006 .00011084)"/>
  </g>
</svg>
