<svg xmlns="http://www.w3.org/2000/svg" viewBox="0 0 48 48">
 <defs>
  <linearGradient id="linearGradient3764" x1="1" x2="47" gradientUnits="userSpaceOnUse" gradientTransform="matrix(0,-1,1,0,-1.5e-6,47.999998)">
   <stop style="stop-color:#c73838;stop-opacity:1"/>
   <stop offset="1" style="stop-color:#cc4848;stop-opacity:1"/>
  </linearGradient>
 </defs>
 <g>
  
  
  
 </g>
 <g>
  <path d="m 47,24 C 47,46.703 46.703,47 24,47 1.297,47 1,46.703 1,24 1,1.297 1.297,1 24,1 46.703,1 47,1.297 47,24 z" style="fill:url(#linearGradient3764);fill-opacity:1"/>
 </g>
 <g>
  
 </g>
 <g transform="matrix(3.543307,0,0,3.543307,2.2e-7,-3.92723e-4)">
  <path d="m 7.06 2.822 c -2.338 0 -4.233 1.895 -4.233 4.233 0 2.338 1.895 4.233 4.233 4.233 2.338 0 4.233 -1.895 4.233 -4.233 0 -2.338 -1.895 -4.233 -4.233 -4.233 z m 0 0.564 c 2.026 0 3.669 1.643 3.669 3.669 0 2.026 -1.643 3.669 -3.669 3.669 -2.026 0 -3.669 -1.643 -3.669 -3.669 0 -2.026 1.643 -3.669 3.669 -3.669 z m -1.129 1.693 0 3.951 3.104 -1.976 z" style="fill:#000;opacity:0.1;fill-opacity:1;stroke:none;fill-rule:nonzero"/>
  <path d="m 24 9 c -8.284 0 -15 6.716 -15 15 0 8.284 6.716 15 15 15 8.284 0 15 -6.716 15 -15 0 -8.284 -6.716 -15 -15 -15 m 0 2 c 7.18 0 13 5.82 13 13 0 7.18 -5.82 13 -13 13 -7.18 0 -13 -5.82 -13 -13 0 -7.18 5.82 -13 13 -13 z m -4 6 0 14 11 -7 z" transform="matrix(0.28222223,0,0,0.28222223,-6.208889e-8,1.1083516e-4)" style="fill:#fdebeb;fill-opacity:1;stroke:none;fill-rule:nonzero"/>
 </g>
</svg>
