<svg viewBox="0 0 48 48" xmlns="http://www.w3.org/2000/svg" xmlns:xlink="http://www.w3.org/1999/xlink">
  <linearGradient id="a" gradientTransform="matrix(0 -1 1 0 -.0000015 47.999998)" gradientUnits="userSpaceOnUse" x1="1" x2="47">
    <stop offset="0" stop-color="#527fb2"/>
    <stop offset="1" stop-color="#5f88b8"/>
  </linearGradient>
  <path d="m47 24c0 22.703-.297 23-23 23-22.703 0-23-.297-23-23 0-22.703.297-23 23-23 22.703 0 23 .297 23 23z" fill="url(#a)"/>
  <g opacity=".1" transform="translate(1 1)">
    <path d="m10 29.801l2.207-10.785h5.105c2.207.137 3.309 1.199 3.309 3.063 0 3.195-2.621 5.05-4.965 4.926h-2.484l-.555 2.797h-2.621m3.727-4.793l.691-3.992h1.793c.969 0 1.656.398 1.656 1.199-.141 2.262-1.242 2.66-2.484 2.793m-1.656 0" fill-rule="evenodd"/>
    <path d="m19.797 27l2.207-10.781h2.621l-.551 2.793h2.484c2.207.137 3.035 1.199 2.758 2.531l-.965 5.457h-2.762l.969-4.926c.137-.664.137-1.066-.832-1.066h-2.066l-1.242 5.988h-2.621m0 .004"/>
    <path d="m28.13 29.801l2.211-10.785h5.105c2.207.137 3.309 1.199 3.309 3.063 0 3.195-2.621 5.05-4.969 4.926h-2.484l-.551 2.797m1.105-4.793l.691-3.992h1.793c.965 0 1.652.398 1.652 1.199-.137 2.262-1.238 2.66-2.484 2.793m-1.652 0" fill-rule="evenodd"/>
  </g>
  <path d="m10 29.801l2.207-10.785h5.105c2.207.137 3.309 1.199 3.309 3.063 0 3.195-2.621 5.05-4.965 4.926h-2.484l-.555 2.797h-2.621m3.727-4.793l.691-3.992h1.793c.969 0 1.656.398 1.656 1.199-.141 2.262-1.242 2.66-2.484 2.793m-1.656 0" fill="#fff" fill-rule="evenodd"/>
  <path d="m19.797 27l2.207-10.781h2.621l-.551 2.793h2.484c2.207.137 3.035 1.199 2.758 2.531l-.965 5.457h-2.762l.969-4.926c.137-.664.137-1.066-.832-1.066h-2.066l-1.242 5.988h-2.621m0 .004" fill="#fff"/>
  <path d="m28.13 29.801l2.211-10.785h5.105c2.207.137 3.309 1.199 3.309 3.063 0 3.195-2.621 5.05-4.969 4.926h-2.484l-.551 2.797m1.105-4.793l.691-3.992h1.793c.965 0 1.652.398 1.652 1.199-.137 2.262-1.238 2.66-2.484 2.793m-1.652 0" fill="#fff" fill-rule="evenodd"/>
</svg>
