<svg xmlns="http://www.w3.org/2000/svg" viewBox="0 0 48 48">
 <defs>
  <linearGradient id="linearGradient3764" x1="1" x2="47" gradientUnits="userSpaceOnUse" gradientTransform="matrix(0,-1,1,0,-1.5e-6,47.999998)">
   <stop style="stop-color:#527fb2;stop-opacity:1"/>
   <stop offset="1" style="stop-color:#5f88b8;stop-opacity:1"/>
  </linearGradient>
 </defs>
 <g>
  
  
  
 </g>
 <g>
  <path d="m 47,24 C 47,46.703 46.703,47 24,47 1.297,47 1,46.703 1,24 1,1.297 1.297,1 24,1 46.703,1 47,1.297 47,24 z" style="fill:url(#linearGradient3764);fill-opacity:1"/>
 </g>
 <g>
  <g>
   <g transform="translate(1,1)">
    <g style="opacity:0.1">
     <!-- color: #5f88b8 -->
     <g>
      <path d="m 10 29.801 l 2.207 -10.785 l 5.105 0 c 2.207 0.137 3.309 1.199 3.309 3.063 c 0 3.195 -2.621 5.05 -4.965 4.926 l -2.484 0 l -0.555 2.797 l -2.621 0 m 3.727 -4.793 l 0.691 -3.992 l 1.793 0 c 0.969 0 1.656 0.398 1.656 1.199 c -0.141 2.262 -1.242 2.66 -2.484 2.793 m -1.656 0" style="fill:#000;fill-opacity:1;stroke:none;fill-rule:evenodd"/>
      <path d="m 19.797 27 l 2.207 -10.781 l 2.621 0 l -0.551 2.793 l 2.484 0 c 2.207 0.137 3.035 1.199 2.758 2.531 l -0.965 5.457 l -2.762 0 l 0.969 -4.926 c 0.137 -0.664 0.137 -1.066 -0.832 -1.066 l -2.066 0 l -1.242 5.988 l -2.621 0 m 0 0.004" style="fill:#000;fill-opacity:1;stroke:none;fill-rule:nonzero"/>
      <path d="m 28.13 29.801 l 2.211 -10.785 l 5.105 0 c 2.207 0.137 3.309 1.199 3.309 3.063 c 0 3.195 -2.621 5.05 -4.969 4.926 l -2.484 0 l -0.551 2.797 m 1.105 -4.793 l 0.691 -3.992 l 1.793 0 c 0.965 0 1.652 0.398 1.652 1.199 c -0.137 2.262 -1.238 2.66 -2.484 2.793 m -1.652 0" style="fill:#000;fill-opacity:1;stroke:none;fill-rule:evenodd"/>
     </g>
    </g>
   </g>
  </g>
 </g>
 <g>
  <g>
   <!-- color: #5f88b8 -->
   <g>
    <path d="m 10 29.801 l 2.207 -10.785 l 5.105 0 c 2.207 0.137 3.309 1.199 3.309 3.063 c 0 3.195 -2.621 5.05 -4.965 4.926 l -2.484 0 l -0.555 2.797 l -2.621 0 m 3.727 -4.793 l 0.691 -3.992 l 1.793 0 c 0.969 0 1.656 0.398 1.656 1.199 c -0.141 2.262 -1.242 2.66 -2.484 2.793 m -1.656 0" style="fill:#fff;fill-opacity:1;stroke:none;fill-rule:evenodd"/>
    <path d="m 19.797 27 l 2.207 -10.781 l 2.621 0 l -0.551 2.793 l 2.484 0 c 2.207 0.137 3.035 1.199 2.758 2.531 l -0.965 5.457 l -2.762 0 l 0.969 -4.926 c 0.137 -0.664 0.137 -1.066 -0.832 -1.066 l -2.066 0 l -1.242 5.988 l -2.621 0 m 0 0.004" style="fill:#fff;fill-opacity:1;stroke:none;fill-rule:nonzero"/>
    <path d="m 28.13 29.801 l 2.211 -10.785 l 5.105 0 c 2.207 0.137 3.309 1.199 3.309 3.063 c 0 3.195 -2.621 5.05 -4.969 4.926 l -2.484 0 l -0.551 2.797 m 1.105 -4.793 l 0.691 -3.992 l 1.793 0 c 0.965 0 1.652 0.398 1.652 1.199 c -0.137 2.262 -1.238 2.66 -2.484 2.793 m -1.652 0" style="fill:#fff;fill-opacity:1;stroke:none;fill-rule:evenodd"/>
   </g>
  </g>
 </g>
 <g>
  
 </g>
</svg>
