<svg viewBox="0 0 48 48" xmlns="http://www.w3.org/2000/svg" xmlns:xlink="http://www.w3.org/1999/xlink">
  <linearGradient id="a" gradientTransform="matrix(0 -1 1 0 -.0000015 47.999998)" gradientUnits="userSpaceOnUse" x1="1" x2="47">
    <stop offset="0" stop-color="#333"/>
    <stop offset="1" stop-color="#3d3d3d"/>
  </linearGradient>
  <path d="m47 24c0 22.703-.297 23-23 23-22.703 0-23-.297-23-23 0-22.703.297-23 23-23 22.703 0 23 .297 23 23z" fill="url(#a)"/>
  <g opacity=".1" transform="translate(1 1)">
    <path d="m31.13 20.06c1.086.348.133 1.965 1.691 2.754 1.777.902 2.664-1.379 3.73.25 1.066 1.629-1.477 1.379-1.406 3.297.074 1.918 2.59 1.508 1.645 3.203-.941 1.691-1.988-.527-3.699.484-1.707 1.016-.074 2.887-2.086 2.953-2.01.063-.516-1.906-2.297-2.813-1.777-.902-2.664 1.379-3.73-.25-1.066-1.629 1.473-1.379 1.402-3.297-.07-1.914-2.586-1.508-1.645-3.203.945-1.691 1.992.531 3.699-.484 1.711-1.012.078-2.887 2.09-2.949.25-.008.449.004.605.055m-.023 4.883c-.895-.184-1.777.363-1.969 1.23-.191.855.383 1.707 1.281 1.887.895.184 1.777-.363 1.969-1.23.191-.852-.383-1.707-1.281-1.887m0 0"/>
    <path d="m22.484 12.06c1.09.348.137 1.961 1.691 2.754 1.777.902 2.664-1.379 3.73.25 1.066 1.629-1.473 1.379-1.402 3.297.07 1.914 2.586 1.508 1.645 3.203-.941 1.691-1.992-.531-3.699.484-1.707 1.012-.074 2.887-2.086 2.949-2.02.066-.52-1.906-2.297-2.809-1.781-.902-2.664 1.379-3.73-.25-1.066-1.629 1.473-1.379 1.402-3.297-.07-1.918-2.586-1.508-1.645-3.203.941-1.691 1.992.527 3.699-.484 1.707-1.016.074-2.887 2.086-2.953.254-.008.449.008.605.059m-.02 4.883c-.898-.184-1.777.363-1.977 1.23-.188.855.391 1.707 1.277 1.887.898.184 1.777-.363 1.969-1.23.191-.852-.383-1.707-1.27-1.887m0 0"/>
    <path d="m19.605 23.05c1.086.348.133 1.965 1.691 2.754 1.777.906 2.664-1.379 3.73.254 1.066 1.629-1.477 1.375-1.402 3.293.07 1.918 2.586 1.512 1.641 3.203-.941 1.695-1.988-.527-3.699.484-1.707 1.016-.074 2.891-2.086 2.953-2.01.063-.516-1.906-2.297-2.809-1.777-.906-2.664 1.379-3.73-.254-1.066-1.629 1.477-1.375 1.402-3.293-.07-1.918-2.586-1.52-1.641-3.203.941-1.695 1.988.527 3.699-.484 1.707-1.016.074-2.891 2.086-2.953.25-.008.449.008.605.055m-.023 4.883c-.895-.184-1.777.367-1.969 1.227-.191.863.383 1.707 1.281 1.891.895.184 1.777-.367 1.969-1.227.191-.863-.383-1.707-1.281-1.891m0 0"/>
  </g>
  <path d="m31.13 20.06c1.086.348.133 1.965 1.691 2.754 1.777.902 2.664-1.379 3.73.25 1.066 1.629-1.477 1.379-1.406 3.297.074 1.918 2.59 1.508 1.645 3.203-.941 1.691-1.988-.527-3.699.484-1.707 1.016-.074 2.887-2.086 2.953-2.01.063-.516-1.906-2.297-2.813-1.777-.902-2.664 1.379-3.73-.25-1.066-1.629 1.473-1.379 1.402-3.297-.07-1.914-2.586-1.508-1.645-3.203.945-1.691 1.992.531 3.699-.484 1.711-1.012.078-2.887 2.09-2.949.25-.008.449.004.605.055m-.023 4.883c-.895-.184-1.777.363-1.969 1.23-.191.855.383 1.707 1.281 1.887.895.184 1.777-.363 1.969-1.23.191-.852-.383-1.707-1.281-1.887m0 0" fill="#4dde5b"/>
  <path d="m22.484 12.06c1.09.348.137 1.961 1.691 2.754 1.777.902 2.664-1.379 3.73.25 1.066 1.629-1.473 1.379-1.402 3.297.07 1.914 2.586 1.508 1.645 3.203-.941 1.691-1.992-.531-3.699.484-1.707 1.012-.074 2.887-2.086 2.949-2.02.066-.52-1.906-2.297-2.809-1.781-.902-2.664 1.379-3.73-.25-1.066-1.629 1.473-1.379 1.402-3.297-.07-1.918-2.586-1.508-1.645-3.203.941-1.691 1.992.527 3.699-.484 1.707-1.016.074-2.887 2.086-2.953.254-.008.449.008.605.059m-.02 4.883c-.898-.184-1.777.363-1.977 1.23-.188.855.391 1.707 1.277 1.887.898.184 1.777-.363 1.969-1.23.191-.852-.383-1.707-1.27-1.887m0 0" fill="#fb5969"/>
  <path d="m19.605 23.05c1.086.348.133 1.965 1.691 2.754 1.777.906 2.664-1.379 3.73.254 1.066 1.629-1.477 1.375-1.402 3.293.07 1.918 2.586 1.512 1.641 3.203-.941 1.695-1.988-.527-3.699.484-1.707 1.016-.074 2.891-2.086 2.953-2.01.063-.516-1.906-2.297-2.809-1.777-.906-2.664 1.379-3.73-.254-1.066-1.629 1.477-1.375 1.402-3.293-.07-1.918-2.586-1.52-1.641-3.203.941-1.695 1.988.527 3.699-.484 1.707-1.016.074-2.891 2.086-2.953.25-.008.449.008.605.055m-.023 4.883c-.895-.184-1.777.367-1.969 1.227-.191.863.383 1.707 1.281 1.891.895.184 1.777-.367 1.969-1.227.191-.863-.383-1.707-1.281-1.891m0 0" fill="#2cb0de"/>
</svg>
