<svg viewBox="0 0 48 48" xmlns="http://www.w3.org/2000/svg" xmlns:xlink="http://www.w3.org/1999/xlink">
  <linearGradient id="a" gradientTransform="matrix(0 -1 1 0 -.0000015 47.999998)" gradientUnits="userSpaceOnUse" x1="1" x2="47">
    <stop offset="0" stop-color="#71bcbf"/>
    <stop offset="1" stop-color="#7ec2c5"/>
  </linearGradient>
  <path d="m47 24c0 22.703-.297 23-23 23-22.703 0-23-.297-23-23 0-22.703.297-23 23-23 22.703 0 23 .297 23 23z" fill="url(#a)"/>
  <path d="m24 9c-8.285 0-15 6.715-15 15 0 8.285 6.715 15 15 15 8.285 0 15-6.715 15-15 0-8.285-6.715-15-15-15" opacity=".1" transform="translate(1 1)"/>
  <path d="m38 24c0 7.734-6.266 14-14 14-7.734 0-14-6.27-14-14 0-7.734 6.266-14 14-14 7.734 0 14 6.27 14 14m0 0" fill="#abcd69"/>
  <path d="m23 20v12h2v-12m-2 0" fill="#ececec"/>
  <path d="m25 17c0 .551-.449 1-1 1-.551 0-1-.449-1-1 0-.551.449-1 1-1 .551 0 1 .449 1 1m0 0" fill="#ececec"/>
  <path d="m24 9c-8.285 0-15 6.715-15 15 0 8.285 6.715 15 15 15 8.285 0 15-6.715 15-15 0-8.285-6.715-15-15-15m0 2c7.18 0 13 5.82 13 13 0 7.18-5.82 13-13 13-7.18 0-13-5.82-13-13 0-7.18 5.82-13 13-13m0 0" fill="#ececec"/>
</svg>
