<svg xmlns="http://www.w3.org/2000/svg" viewBox="0 0 48 48">
 <defs>
  <linearGradient id="linearGradient3764" x1="1" x2="47" gradientUnits="userSpaceOnUse" gradientTransform="matrix(0,-1,1,0,-1.5e-6,47.999998)">
   <stop style="stop-color:#008bb8;stop-opacity:1"/>
   <stop offset="1" style="stop-color:#009acd;stop-opacity:1"/>
  </linearGradient>
 </defs>
 <g>
  
  
  
 </g>
 <g>
  <path d="m 47,24 C 47,46.703 46.703,47 24,47 1.297,47 1,46.703 1,24 1,1.297 1.297,1 24,1 46.703,1 47,1.297 47,24 z" style="fill:url(#linearGradient3764);fill-opacity:1"/>
 </g>
 <g>
  <g>
   <g transform="translate(1,1)">
    <g style="opacity:0.1">
     <!-- color: #009acd -->
     <g>
      <path d="m 11.965 20 c -0.57 0.027 -0.961 0.156 -0.961 0.766 l 0 12.773 c 0 0.809 0.695 1.457 1.57 1.457 l 22.828 0 c 0.879 0 1.602 -0.648 1.602 -1.457 l 0 -12.773 c 0 -0.805 -0.723 -0.766 -1.602 -0.766 l -22.828 0 c -0.219 0 -0.418 -0.008 -0.609 0 m 0 0" style="fill:#000;fill-opacity:1;stroke:none;fill-rule:nonzero"/>
      <path d="m 15.05 13.402 l -3.25 4.598 l 11.199 0 l 0 -7 l -5.512 0 c -0.809 0 -2.438 2.402 -2.438 2.402 m 9.941 -2.402 l 0 7 l 11.184 0 l -3.25 -4.598 c 0 0 -1.625 -2.402 -2.441 -2.402 m -5.492 0" style="fill:#000;fill-opacity:1;stroke:none;fill-rule:nonzero"/>
     </g>
    </g>
   </g>
  </g>
 </g>
 <g>
  <g>
   <!-- color: #009acd -->
   <g>
    <path d="m 11.965 20 c -0.57 0.027 -0.961 0.156 -0.961 0.766 l 0 12.773 c 0 0.809 0.695 1.457 1.57 1.457 l 22.828 0 c 0.879 0 1.602 -0.648 1.602 -1.457 l 0 -12.773 c 0 -0.805 -0.723 -0.766 -1.602 -0.766 l -22.828 0 c -0.219 0 -0.418 -0.008 -0.609 0 m 0 0" style="fill:#f9f9f9;fill-opacity:1;stroke:none;fill-rule:nonzero"/>
    <path d="m 15.05 13.402 l -3.25 4.598 l 11.199 0 l 0 -7 l -5.512 0 c -0.809 0 -2.438 2.402 -2.438 2.402 m 9.941 -2.402 l 0 7 l 11.184 0 l -3.25 -4.598 c 0 0 -1.625 -2.402 -2.441 -2.402 m -5.492 0" style="fill:#f9f9f9;fill-opacity:1;stroke:none;fill-rule:nonzero"/>
   </g>
  </g>
 </g>
 <g>
  
 </g>
</svg>
