<svg viewBox="0 0 48 48" xmlns="http://www.w3.org/2000/svg" xmlns:xlink="http://www.w3.org/1999/xlink">
  <linearGradient id="a" gradientTransform="matrix(0 -1 1 0 -.0000015 47.999998)" gradientUnits="userSpaceOnUse" x1="1" x2="47">
    <stop offset="0" stop-color="#46aea8"/>
    <stop offset="1" stop-color="#50b8b2"/>
  </linearGradient>
  <linearGradient id="b" gradientTransform="matrix(2.797157 0 0 2.797157 -332.97333 -741.65338)" gradientUnits="userSpaceOnUse" x2="0" y1="279.1" y2="268.33">
    <stop offset="0" stop-color="#c8c8c8"/>
    <stop offset="1" stop-color="#eaeaea"/>
  </linearGradient>
  <path d="m47 24c0 22.703-.297 23-23 23-22.703 0-23-.297-23-23 0-22.703.297-23 23-23 22.703 0 23 .297 23 23z" fill="url(#a)"/>
  <path d="m24 9c8.281 0 14.996 6.715 14.996 15 0 8.281-6.715 14.996-14.996 14.996-8.285 0-15-6.715-15-14.996 0-8.285 6.715-15 15-15m0 0" fill-rule="evenodd" opacity=".1" transform="translate(1 1)"/>
  <path d="m24 9c8.281 0 14.996 6.715 14.996 15 0 8.281-6.715 14.996-14.996 14.996-8.285 0-15-6.715-15-14.996 0-8.285 6.715-15 15-15m0 0" fill="url(#b)" fill-rule="evenodd"/>
  <path d="m34.527 34.746c.691-.691 1.313-1.457 1.863-2.27.547-.809 1.023-1.688 1.41-2.602.387-.914.68-1.871.883-2.867.199-.996.309-2.027.309-3.078h-10.699c0 .633-.129 1.242-.359 1.789-.227.547-.563 1.039-.977 1.453l7.574 7.574m-.004 0" fill="#fff" fill-opacity=".498"/>
  <path d="m13.496 13.289c-.688.688-1.309 1.449-1.855 2.262-.547.813-1.02 1.684-1.402 2.594-.387.91-.68 1.863-.879 2.852-.203.992-.309 2.02-.309 3.07h10.664c0-.633.125-1.238.359-1.781.23-.547.563-1.039.973-1.449l-7.539-7.543m-.012-.004" fill="#fff" fill-opacity=".498"/>
  <path d="m28.29 24c0 2.367-1.918 4.285-4.285 4.285-2.367 0-4.285-1.918-4.285-4.285 0-2.367 1.918-4.285 4.285-4.285 2.367 0 4.285 1.918 4.285 4.285m0 0" fill="#999" fill-opacity=".498"/>
  <path d="m20.12 25.762l-9.777 4.445c.75 1.652 1.793 3.133 3.059 4.398l7.563-7.566c-.359-.363-.633-.801-.844-1.273m0-.004" fill="#fff" fill-opacity=".498"/>
  <path d="m34.602 13.398l-7.566 7.562c.363.363.633.801.848 1.273l9.777-4.445c-.754-1.648-1.793-3.129-3.059-4.395m0 .004" fill="#fff" fill-opacity=".498"/>
  <path d="m39 24c0 1.344-.18 2.68-.535 3.973l-14.465-3.973m15 0" fill="#999" fill-opacity=".498"/>
  <path d="m9 24c0-1.34.18-2.676.535-3.973l14.465 3.973m-15 0" fill="#999" fill-opacity=".498"/>
  <path d="m24 21.859c.59 0 1.129.238 1.516.621.387.387.625.926.625 1.52 0 .59-.238 1.129-.625 1.516-.387.387-.926.625-1.516.625-.594 0-1.133-.238-1.52-.625-.383-.387-.621-.926-.621-1.516 0-.594.238-1.133.621-1.52.387-.383.926-.621 1.52-.621m0 0" fill="#fff" fill-opacity=".498"/>
  <path d="m20.996 14h6v13h5l-8 7-8-7h4.996m.004-13" fill="#e55b42"/>
</svg>
