<svg viewBox="0 0 48 48" xmlns="http://www.w3.org/2000/svg" xmlns:xlink="http://www.w3.org/1999/xlink">
  <linearGradient id="a" gradientTransform="matrix(0 -1 1 0 -.0000015 47.999998)" gradientUnits="userSpaceOnUse" x1="1" x2="47">
    <stop offset="0" stop-color="#e4e4e4"/>
    <stop offset="1" stop-color="#eee"/>
  </linearGradient>
  <path d="m47 24c0 22.703-.297 23-23 23-22.703 0-23-.297-23-23 0-22.703.297-23 23-23 22.703 0 23 .297 23 23z" fill="url(#a)"/>
  <path d="m25 12l-13 13 12 12v10c .674 0 1.34-.035 2-.092v-9.908l12-12zm0 3l10 10-10 10-10-10zm0 3l-7 7 7 7 7-7z" fill-opacity=".098" fill-rule="evenodd"/>
  <path d="m23 35v11.975c.332.014.665.025 1 .025.335 0 .668-.011 1-.025v-11.975z" fill="#808080"/>
  <path d="m24 11l-13 13 13 13 13-13zm0 3l10 10-10 10-10-10z" fill="#808080" fill-rule="evenodd"/>
  <path d="m-4.95 28.991h9.899v9.899h-9.899z" fill="#0ec6a2" fill-rule="evenodd" transform="matrix(.70710678 -.70710678 .70710678 .70710678 0 0)"/>
</svg>
