<svg viewBox="0 0 48 48" xmlns="http://www.w3.org/2000/svg" xmlns:xlink="http://www.w3.org/1999/xlink">
  <linearGradient id="a" gradientTransform="matrix(0 -1 1 0 -.0000015 47.999998)" gradientUnits="userSpaceOnUse" x1="1" x2="47">
    <stop offset="0" stop-color="#83b5e9"/>
    <stop offset="1" stop-color="#93c0ec"/>
  </linearGradient>
  <path d="m47 24c0 22.703-.297 23-23 23-22.703 0-23-.297-23-23 0-22.703.297-23 23-23 22.703 0 23 .297 23 23z" fill="url(#a)"/>
  <path d="m23.348 10.844c-.059.328-.121.66-.188.992-5.316.336-10.762 4.512-11.07 11.293h-.113v1.238c-1.188.41-1.648 2.336-1.5 3.43.105 1.41.457 2.465 1.91 2.941.012-.145.027-.301.039-.449l.02.504c.441.09.75.129.957.059l.016.695c.371.148.578.18.695-.094.004.078.016.164.02.246.461.223 1.234.277 1.703.09.152-.094.258-.41.355-.844 2.535 3.711 7.492 4.844 11.973 3.09 1.375-.449 2.758-1.359 3.727-2.547.078.23.16.422.262.488.469.184 1.238.125 1.703-.094.004-.078.016-.164.023-.246.113.273.316.242.691.094l.02-.695c.207.07.516.031.957-.055l.02-.508c.008.148.027.305.039.449 1.453-.473 1.805-1.535 1.91-2.941.145-1.094-.316-3.02-1.5-3.43v-1.234h-.094c-.203-2.539-1.086-5.102-2.695-7.16-1.98-2.531-5.066-4.305-9.254-4.348-.074 0-.152 0-.23 0-.141-.32-.27-.641-.391-.973m.672 1.578c3.992.055 6.844 1.73 8.715 4.121 1.523 1.941 2.359 4.371 2.566 6.785h-.129v1.105c-.195-.031-.379-.066-.41-.066-.023.023-.039.035-.063.066l.023-.891c0 0-.586-.188-.641-.188-.008.004-.016.027-.02.039-.016-.012-.027-.035-.039-.039h-1.219c-.395.172-.613.563-.77.992-2.082-4.156-5.93-7.637-8.02-11.934m-1.105.059c.035 0 .074 0 .113 0-.086.379-.18.75-.281 1.121-.816 3.988-4 6.805-6.16 10.1-.188.273-.355.578-.512.883-.16-.59-.383-1.18-.895-1.41h-1.219c-.02.008-.023.031-.039.039-.012-.008-.02-.027-.02-.039-.055 0-.641.191-.641.191l.02.879c-.02-.02-.035-.043-.059-.055-.031 0-.219.027-.41.055v-1.105h-.133c.305-6.344 5.301-10.219 10.23-10.664m1.316 12.11c2.473 0 4.941.219 7.566.563-.027.105-.051.219-.074.316-.035.16-.066.359-.09.566-.246-.027-.492-.047-.73-.074.363.637.301 2.082-.094 2.695-.496.766-1.473 1.348-2.719 1.426-.57.023-1.199 0-1.777-.133-.574-.133-1.09-.383-1.406-.824v-.02c-.359-.449-.465-.957-.469-1.461-.004-.508.074-1.73.059-2.152-.313 0-.625.012-.938.016-.02.418.043 1.637.039 2.133-.004.512-.082 1.031-.449 1.484-.316.449-.848.691-1.426.824-.574.137-1.207.156-1.777.133-1.238-.078-2.223-.656-2.719-1.426-.359-.559-.453-1.93-.191-2.527-.215.039-.422.07-.637.113-.031-.344-.059-.652-.113-.898 2.785-.535 5.367-.754 7.945-.754m1.379.914c-.289.039-.535.09-.711.152 0 .418-.059.848-.055 1.254 0 .465.086.883.375 1.234v.02c.227.32.656.535 1.18.656.523.117 1.121.156 1.668.129 1.125-.066 1.988-.598 2.398-1.234.391-.609.383-1.262-.148-1.836-1.613-.184-3.164-.328-4.703-.375m-3.301.02c-1.547.07-3.129.238-4.758.508-.004.008.004.012 0 .016-.387.531-.352 1.125 0 1.672.41.645 1.27 1.168 2.398 1.234.543.023 1.145-.012 1.668-.129.52-.121.953-.336 1.18-.656v-.02c.289-.355.367-.77.375-1.234.004-.406-.039-.836-.039-1.258-.16-.055-.391-.094-.656-.129h-.168m0-.004" fill-rule="evenodd" opacity=".1" transform="translate(1 1)"/>
  <path d="m23.348 10.844c-.059.328-.121.66-.188.992-5.316.336-10.762 4.512-11.07 11.293h-.113v1.238c-1.188.41-1.648 2.336-1.5 3.43.105 1.41.457 2.465 1.91 2.941.012-.145.027-.301.039-.449l.02.504c.441.09.75.129.957.059l.016.695c.371.148.578.18.695-.094.004.078.016.164.02.246.461.223 1.234.277 1.703.09.152-.094.258-.41.355-.844 2.535 3.711 7.492 4.844 11.973 3.09 1.375-.449 2.758-1.359 3.727-2.547.078.23.16.422.262.488.469.184 1.238.125 1.703-.094.004-.078.016-.164.023-.246.113.273.316.242.691.094l.02-.695c.207.07.516.031.957-.055l.02-.508c.008.148.027.305.039.449 1.453-.473 1.805-1.535 1.91-2.941.145-1.094-.316-3.02-1.5-3.43v-1.234h-.094c-.203-2.539-1.086-5.102-2.695-7.16-1.98-2.531-5.066-4.305-9.254-4.348-.074 0-.152 0-.23 0-.141-.32-.27-.641-.391-.973m.672 1.578c3.992.055 6.844 1.73 8.715 4.121 1.523 1.941 2.359 4.371 2.566 6.785h-.129v1.105c-.195-.031-.379-.066-.41-.066-.023.023-.039.035-.063.066l.023-.891c0 0-.586-.188-.641-.188-.008.004-.016.027-.02.039-.016-.012-.027-.035-.039-.039h-1.219c-.395.172-.613.563-.77.992-2.082-4.156-5.93-7.637-8.02-11.934m-1.105.059c.035 0 .074 0 .113 0-.086.379-.18.75-.281 1.121-.816 3.988-4 6.805-6.16 10.1-.188.273-.355.578-.512.883-.16-.59-.383-1.18-.895-1.41h-1.219c-.02.008-.023.031-.039.039-.012-.008-.02-.027-.02-.039-.055 0-.641.191-.641.191l.02.879c-.02-.02-.035-.043-.059-.055-.031 0-.219.027-.41.055v-1.105h-.133c.305-6.344 5.301-10.219 10.23-10.664m1.316 12.11c2.473 0 4.941.219 7.566.563-.027.105-.051.219-.074.316-.035.16-.066.359-.09.566-.246-.027-.492-.047-.73-.074.363.637.301 2.082-.094 2.695-.496.766-1.473 1.348-2.719 1.426-.57.023-1.199 0-1.777-.133-.574-.133-1.09-.383-1.406-.824v-.02c-.359-.449-.465-.957-.469-1.461-.004-.508.074-1.73.059-2.152-.313 0-.625.012-.938.016-.02.418.043 1.637.039 2.133-.004.512-.082 1.031-.449 1.484-.316.449-.848.691-1.426.824-.574.137-1.207.156-1.777.133-1.238-.078-2.223-.656-2.719-1.426-.359-.559-.453-1.93-.191-2.527-.215.039-.422.07-.637.113-.031-.344-.059-.652-.113-.898 2.785-.535 5.367-.754 7.945-.754m1.379.914c-.289.039-.535.09-.711.152 0 .418-.059.848-.055 1.254 0 .465.086.883.375 1.234v.02c.227.32.656.535 1.18.656.523.117 1.121.156 1.668.129 1.125-.066 1.988-.598 2.398-1.234.391-.609.383-1.262-.148-1.836-1.613-.184-3.164-.328-4.703-.375m-3.301.02c-1.547.07-3.129.238-4.758.508-.004.008.004.012 0 .016-.387.531-.352 1.125 0 1.672.41.645 1.27 1.168 2.398 1.234.543.023 1.145-.012 1.668-.129.52-.121.953-.336 1.18-.656v-.02c.289-.355.367-.77.375-1.234.004-.406-.039-.836-.039-1.258-.16-.055-.391-.094-.656-.129h-.168m0-.004" fill="#fff" fill-rule="evenodd"/>
</svg>
