<svg xmlns="http://www.w3.org/2000/svg" viewBox="0 0 48 48">
 <defs>
  <linearGradient id="linearGradient3898" y1="47" x2="0" y2="1" gradientUnits="userSpaceOnUse">
   <stop style="stop-color:#1f56a9;stop-opacity:1"/>
   <stop offset="1" style="stop-color:#225fba;stop-opacity:1"/>
  </linearGradient>
 </defs>
 <g>
  
  
  
 </g>
 <g>
  <path d="m 24 1 c 22.703 0 23 0.297 23 23 c 0 22.703 -0.297 23 -23 23 -22.703 0 -23 -0.297 -23 -23 0 -22.703 0.297 -23 23 -23 z" style="fill:url(#linearGradient3898);fill-opacity:1"/>
 </g>
 <g>
  
 </g>
 <g>
  <path d="m 25 12 c -7.18 0 -13 5.82 -13 13 0 7.18 5.82 13 13 13 3.181 0 6.116 -1.134 8.375 -3.03 l 3.03 3.03 1.594 -1.594 -3.03 -3.03 c 1.898 -2.259 3.03 -5.194 3.03 -8.375 0 -7.18 -5.82 -13 -13 -13 z m 0 2 c 5.833 0 10.597 4.542 10.969 10.281 l -17.563 -8.06 c 1.84 -1.384 4.114 -2.219 6.594 -2.219 z m -8.813 4.438 8.03 17.531 c -5.709 -0.402 -10.219 -5.157 -10.219 -10.969 c 0 -2.463 0.82 -4.729 2.188 -6.563 z m 2.875 0.656 9.719 4.594 -5.125 5.094 -4.594 -9.688 z m 11.906 5.594 4.844 2.375 c -0.346 1.827 -1.151 3.489 -2.281 4.875 l -1.906 -1.906 -1.594 1.594 1.906 1.906 c -1.394 1.133 -3.07 1.938 -4.906 2.281 l -2.344 -4.844 6.281 -6.281 z" style="fill:#000;fill-opacity:0.118;stroke:none;fill-rule:nonzero"/>
  <path d="m 24 11 c -7.18 0 -13 5.82 -13 13 c 0 7.18 5.82 13 13 13 c 3.181 0 6.116 -1.134 8.375 -3.03 l 3.03 3.03 l 1.594 -1.594 l -3.03 -3.03 c 1.898 -2.259 3.03 -5.194 3.03 -8.375 c 0 -7.18 -5.82 -13 -13 -13 z m 0 2 c 5.833 0 10.597 4.542 10.969 10.281 l -17.563 -8.06 c 1.84 -1.384 4.114 -2.219 6.594 -2.219 z m -8.813 4.438 l 8.03 17.531 c -5.709 -0.402 -10.219 -5.157 -10.219 -10.969 c 0 -2.463 0.82 -4.729 2.188 -6.563 z m 2.875 0.656 l 9.719 4.594 l -5.125 5.094 l -4.594 -9.688 z m 11.906 5.594 l 4.844 2.375 c -0.346 1.827 -1.151 3.489 -2.281 4.875 l -1.906 -1.906 l -1.594 1.594 l 1.906 1.906 c -1.394 1.133 -3.07 1.938 -4.906 2.281 l -2.344 -4.844 l 6.281 -6.281 z" style="fill:#93c2e9;fill-opacity:1;stroke:none;fill-rule:nonzero"/>
 </g>
</svg>
