<svg viewBox="0 0 48 48" xmlns="http://www.w3.org/2000/svg" xmlns:xlink="http://www.w3.org/1999/xlink">
  <linearGradient id="a" gradientTransform="matrix(0 -1 1 0 -.0000015 47.999998)" gradientUnits="userSpaceOnUse" x1="1" x2="47">
    <stop offset="0" stop-color="#333"/>
    <stop offset="1" stop-color="#3d3d3d"/>
  </linearGradient>
  <path d="m47 24c0 22.703-.297 23-23 23-22.703 0-23-.297-23-23 0-22.703.297-23 23-23 22.703 0 23 .297 23 23z" fill="url(#a)"/>
  <path d="m12 35l12-22 12 22c-.391-.02-.84-.305-1.27-.348-.285-.031-.566.164-.84.148-.238-.012-.441-.766-.684-.801-.273-.039-.438.629-.863.574-.516-.07-.176-1.395-.691-1.395-.367 0-.34 1.121-.797 1.133-.621.016-.18-2.316-.727-2.316-.535 0-.27 2.027-.828 2.01-.496-.016-.301-3.332-.762-3.285-.398.035-.242 3.01-.75 2.977-.59-.039-.352-4.309-.789-4.328-.355-.012-.258 4.03-.746 4.01-.621-.02-.27-5.641-.746-5.52-.508.125-.344 5.207-.824 5.203-.445-.004-.281-6.453-.684-6.469-.484-.023-.195 6.188-.855 6.188-.531.004-.141-7.01-.711-6.98-.434.016-.227 6.848-.762 6.781-.668-.078-.305-6.973-.836-6.977-.516-.004-.281 6.941-.613 7.04-.711.078-.34-6.453-.883-6.457-.34-.004-.211 6.543-.766 6.797-.305.141-.289-5.152-.777-5.266-.273-.063-.043 5.492-.754 5.723-.621.199-.324-3.141-.77-3.148-.453-.004-.059 3.5-.684 3.695-.598.184-.324-1.484-.891-1.453-.508.027-.02 1.84-.645 2.01-.363.102-.543-.504-.836-.449-.418.082-.887.891-1.23.891m.004.008" opacity=".1" transform="translate(1 1)"/>
  <path d="m12 35l12-22 12 22c-.391-.02-.84-.305-1.27-.348-.285-.031-.566.164-.84.148-.238-.012-.441-.766-.684-.801-.273-.039-.438.629-.863.574-.516-.07-.176-1.395-.691-1.395-.367 0-.34 1.121-.797 1.133-.621.016-.18-2.316-.727-2.316-.535 0-.27 2.027-.828 2.01-.496-.016-.301-3.332-.762-3.285-.398.035-.242 3.01-.75 2.977-.59-.039-.352-4.309-.789-4.328-.355-.012-.258 4.03-.746 4.01-.621-.02-.27-5.641-.746-5.52-.508.125-.344 5.207-.824 5.203-.445-.004-.281-6.453-.684-6.469-.484-.023-.195 6.188-.855 6.188-.531.004-.141-7.01-.711-6.98-.434.016-.227 6.848-.762 6.781-.668-.078-.305-6.973-.836-6.977-.516-.004-.281 6.941-.613 7.04-.711.078-.34-6.453-.883-6.457-.34-.004-.211 6.543-.766 6.797-.305.141-.289-5.152-.777-5.266-.273-.063-.043 5.492-.754 5.723-.621.199-.324-3.141-.77-3.148-.453-.004-.059 3.5-.684 3.695-.598.184-.324-1.484-.891-1.453-.508.027-.02 1.84-.645 2.01-.363.102-.543-.504-.836-.449-.418.082-.887.891-1.23.891m.004.008" fill="#ff5353"/>
</svg>
