<svg viewBox="0 0 48 48" xmlns="http://www.w3.org/2000/svg" xmlns:xlink="http://www.w3.org/1999/xlink">
  <linearGradient id="a" gradientTransform="matrix(0 -1 1 0 -.0000015 47.999998)" gradientUnits="userSpaceOnUse" x1="1" x2="47">
    <stop offset="0" stop-color="#e4e4e4"/>
    <stop offset="1" stop-color="#eee"/>
  </linearGradient>
  <path d="m47 24c0 22.703-.297 23-23 23-22.703 0-23-.297-23-23 0-22.703.297-23 23-23 22.703 0 23 .297 23 23z" fill="url(#a)"/>
  <g opacity=".1" transform="translate(1 1)">
    <path d="m17.328 18c-1.66 0-3.273.629-4.461 1.742-1.188 1.117-1.867 2.664-1.867 4.258 0 1.594.684 3.137 1.867 4.25 1.172 1.102 2.762 1.727 4.402 1.738v.004c.02 0 .035 0 .059 0 1.957.082 3.539-.637 4.695-1.676.797-.723 1.406-1.57 1.977-2.438.57.867 1.18 1.715 1.977 2.438 1.156 1.039 2.734 1.758 4.695 1.676.016 0 .035 0 .055 0v-.004c1.641-.016 3.234-.637 4.406-1.738 1.188-1.117 1.867-2.656 1.867-4.25 0-1.594-.684-3.145-1.867-4.258-1.188-1.113-2.801-1.742-4.461-1.742-2.066 0-3.695.785-4.902 1.875-.695.633-1.258 1.355-1.77 2.098-.516-.742-1.074-1.465-1.773-2.098-1.203-1.09-2.836-1.875-4.898-1.875m0 2.117c1.539 0 2.523.496 3.43 1.309.711.645 1.332 1.543 1.953 2.496-.707 1.113-1.387 2.145-2.152 2.836-.852.766-1.73 1.191-3.172 1.117l-.031-.004h-.027c-1.086 0-2.188-.43-2.941-1.137l-.02-.012c-.758-.711-1.203-1.738-1.203-2.727 0-.992.445-2.02 1.203-2.73.766-.711 1.871-1.148 2.961-1.148m13.352 0c1.086 0 2.191.438 2.957 1.148.758.715 1.207 1.742 1.207 2.73 0 .992-.449 2.02-1.207 2.727l-.02.012c-.758.703-1.855 1.137-2.938 1.137h-.031l-.027.004c-1.438.074-2.324-.352-3.176-1.117-.762-.691-1.445-1.723-2.148-2.836.621-.953 1.238-1.855 1.953-2.496.902-.816 1.887-1.309 3.43-1.309m0 0"/>
    <path d="m30 21v2h-1.996v1.996h1.996v2h2v-2h1.996v-1.996h-1.996v-2m-2 0"/>
    <path d="m15 23v1.996h5v-1.996m-5 0"/>
  </g>
  <path d="m17.328 18c-1.66 0-3.273.629-4.461 1.742-1.188 1.117-1.867 2.664-1.867 4.258 0 1.594.684 3.137 1.867 4.25 1.172 1.102 2.762 1.727 4.402 1.738v.004c.02 0 .035 0 .059 0 1.957.082 3.539-.637 4.695-1.676.797-.723 1.406-1.57 1.977-2.438.57.867 1.18 1.715 1.977 2.438 1.156 1.039 2.734 1.758 4.695 1.676.016 0 .035 0 .055 0v-.004c1.641-.016 3.234-.637 4.406-1.738 1.188-1.117 1.867-2.656 1.867-4.25 0-1.594-.684-3.145-1.867-4.258-1.188-1.113-2.801-1.742-4.461-1.742-2.066 0-3.695.785-4.902 1.875-.695.633-1.258 1.355-1.77 2.098-.516-.742-1.074-1.465-1.773-2.098-1.203-1.09-2.836-1.875-4.898-1.875m0 2.117c1.539 0 2.523.496 3.43 1.309.711.645 1.332 1.543 1.953 2.496-.707 1.113-1.387 2.145-2.152 2.836-.852.766-1.73 1.191-3.172 1.117l-.031-.004h-.027c-1.086 0-2.188-.43-2.941-1.137l-.02-.012c-.758-.711-1.203-1.738-1.203-2.727 0-.992.445-2.02 1.203-2.73.766-.711 1.871-1.148 2.961-1.148m13.352 0c1.086 0 2.191.438 2.957 1.148.758.715 1.207 1.742 1.207 2.73 0 .992-.449 2.02-1.207 2.727l-.02.012c-.758.703-1.855 1.137-2.938 1.137h-.031l-.027.004c-1.438.074-2.324-.352-3.176-1.117-.762-.691-1.445-1.723-2.148-2.836.621-.953 1.238-1.855 1.953-2.496.902-.816 1.887-1.309 3.43-1.309m0 0" fill="#00959c"/>
  <path d="m30 21v2h-1.996v1.996h1.996v2h2v-2h1.996v-1.996h-1.996v-2m-2 0" fill="#00959c"/>
  <path d="m15 23v1.996h5v-1.996m-5 0" fill="#00959c"/>
</svg>
