<svg viewBox="0 0 48 48" xmlns="http://www.w3.org/2000/svg" xmlns:xlink="http://www.w3.org/1999/xlink">
  <linearGradient id="a" gradientTransform="matrix(0 -1 1 0 -.0000015 47.999998)" gradientUnits="userSpaceOnUse" x1="1" x2="47">
    <stop offset="0" stop-color="#4f7caf"/>
    <stop offset="1" stop-color="#5c86b6"/>
  </linearGradient>
  <path d="m47 24c0 22.703-.297 23-23 23-22.703 0-23-.297-23-23 0-22.703.297-23 23-23 22.703 0 23 .297 23 23z" fill="url(#a)"/>
  <path d="m36 13v19c-7 4-12 5-19 3-5-5-5.996-9-7-14.08 7 6.082 17 6.082 26 4.07l-17 4 5.73-12.477 6.27 10.477-4-4m9-10" opacity=".1" transform="translate(1 1)"/>
  <path d="m36 13v19c-7 4-12 5-19 3-5-5-5.996-9-7-14.08 7 6.082 17 6.082 26 4.07l-17 4 5.73-12.477 6.27 10.477-4-4m9-10" fill="#ececeb"/>
</svg>
