<svg xmlns="http://www.w3.org/2000/svg" viewBox="0 0 48 48">
 <defs>
  <linearGradient id="linearGradient3764" x1="1" x2="47" gradientUnits="userSpaceOnUse" gradientTransform="matrix(0,-1,1,0,-1.5e-6,47.999998)">
   <stop style="stop-color:#3d3d3d;stop-opacity:1"/>
   <stop offset="1" style="stop-color:#474747;stop-opacity:1"/>
  </linearGradient>
 </defs>
 <g>
  
  
  
 </g>
 <g>
  <path d="m 47,24 C 47,46.703 46.703,47 24,47 1.297,47 1,46.703 1,24 1,1.297 1.297,1 24,1 46.703,1 47,1.297 47,24 z" style="fill:url(#linearGradient3764);fill-opacity:1"/>
 </g>
 <g>
  
 </g>
 <g transform="translate(-1,0)">
  <g transform="translate(1,1)" style="fill:#000;fill-opacity:0.118">
   <path d="m 18 18 -6 6 6 6 1.5 -1.5 -3.5 -3.5 l 0 -2 3.5 -3.5 z" style="stroke:none;fill-rule:nonzero"/>
   <path d="m 30.5 30.5 -6 -6 -6 6 1.5 1.5 3.5 -3.5 2 0 3.5 3.5 z" style="stroke:none;fill-rule:nonzero"/>
   <path d="m 30.5 17.5 -6 6 l -6 -6 1.5 -1.5 l 3.5 3.5 2 0 l 3.5 -3.5 z" style="stroke:none;fill-rule:nonzero"/>
   <path d="m 31 18 6 6 -6 6 -1.5 -1.5 3.5 -3.5 0 -2 -3.5 -3.5 z" style="stroke:none;fill-rule:nonzero"/>
  </g>
  <g>
   <g>
    <path d="m 18 18 -6 6 6 6 1.5 -1.5 -3.5 -3.5 l 0 -2 3.5 -3.5 z" style="fill:#ec5303;fill-opacity:1;stroke:none;fill-rule:nonzero"/>
    <path d="m 30.5 30.5 -6 -6 -6 6 1.5 1.5 3.5 -3.5 2 0 3.5 3.5 z" style="fill:#437bd3;fill-opacity:1;stroke:none;fill-rule:nonzero"/>
    <path d="m 30.5 17.5 -6 6 l -6 -6 1.5 -1.5 l 3.5 3.5 2 0 l 3.5 -3.5 z" style="fill:#437bd3;fill-opacity:1;stroke:none;fill-rule:nonzero"/>
    <path d="m 31 18 6 6 -6 6 -1.5 -1.5 3.5 -3.5 0 -2 -3.5 -3.5 z" style="fill:#437bd3;fill-opacity:1;stroke:none;fill-rule:nonzero"/>
   </g>
  </g>
 </g>
</svg>
