<svg viewBox="0 0 48 48" xmlns="http://www.w3.org/2000/svg" xmlns:xlink="http://www.w3.org/1999/xlink">
  <linearGradient id="a" gradientTransform="matrix(0 -1 1 0 -.0000015 47.999998)" gradientUnits="userSpaceOnUse" x1="1" x2="47">
    <stop offset="0" stop-color="#3d3d3d"/>
    <stop offset="1" stop-color="#474747"/>
  </linearGradient>
  <path d="m47 24c0 22.703-.297 23-23 23-22.703 0-23-.297-23-23 0-22.703.297-23 23-23 22.703 0 23 .297 23 23z" fill="url(#a)"/>
  <g transform="translate(-1)">
    <g fill-opacity=".118" transform="translate(1 1)">
      <path d="m18 18l-6 6 6 6 1.5-1.5-3.5-3.5v-2l3.5-3.5z"/>
      <path d="m30.5 30.5l-6-6-6 6 1.5 1.5 3.5-3.5h2l3.5 3.5z"/>
      <path d="m30.5 17.5l-6 6-6-6 1.5-1.5 3.5 3.5h2l3.5-3.5z"/>
      <path d="m31 18l6 6-6 6-1.5-1.5 3.5-3.5v-2l-3.5-3.5z"/>
    </g>
    <path d="m18 18l-6 6 6 6 1.5-1.5-3.5-3.5v-2l3.5-3.5z" fill="#7ee13d"/>
    <path d="m30.5 30.5l-6-6-6 6 1.5 1.5 3.5-3.5h2l3.5 3.5z" fill="#437bd3"/>
    <path d="m30.5 17.5l-6 6-6-6 1.5-1.5 3.5 3.5h2l3.5-3.5z" fill="#437bd3"/>
    <path d="m31 18l6 6-6 6-1.5-1.5 3.5-3.5v-2l-3.5-3.5z" fill="#437bd3"/>
  </g>
</svg>
