<svg viewBox="0 0 48 48" xmlns="http://www.w3.org/2000/svg" xmlns:xlink="http://www.w3.org/1999/xlink">
  <linearGradient id="a" gradientTransform="matrix(0 -1 1 0 -.0000015 47.999998)" gradientUnits="userSpaceOnUse" x1="1" x2="47">
    <stop offset="0" stop-color="#3d3d3d"/>
    <stop offset="1" stop-color="#474747"/>
  </linearGradient>
  <path d="m47 24c0 22.703-.297 23-23 23-22.703 0-23-.297-23-23 0-22.703.297-23 23-23 22.703 0 23 .297 23 23z" fill="url(#a)"/>
  <path d="m26 14c5 0 12 1.433 12 7v13h-10v-5.5c0 0-2.689.765-4.05 1.5-1.95 1.054-2.681 2-.531 4h-9.07c-1.18 0-2.35-1.166-2.35-3 0-4.507 3.747-5.595 7.3-6.3 2.864-.569 7.05-.992 7.85-1.45 1.795-1.025.663-3.25-1.15-3.25-3 0-4 .63-4 3h-9c0-6.656 7-9 13-9z" opacity=".1"/>
  <path d="m25 13c5 0 12 1.433 12 7v13h-10v-5.5c0 0-2.689.765-4.05 1.5-1.95 1.054-2.681 2-.531 4h-9.07c-1.18 0-2.35-1.166-2.35-3 0-4.507 3.747-5.595 7.3-6.3 2.864-.569 7.05-.992 7.85-1.45 1.795-1.025.663-3.25-1.15-3.25-3 0-4 .63-4 3h-9c0-6.656 7-9 13-9z" fill="#f05d30"/>
</svg>
