<svg viewBox="0 0 48 48" xmlns="http://www.w3.org/2000/svg" xmlns:xlink="http://www.w3.org/1999/xlink">
  <linearGradient id="a" gradientUnits="userSpaceOnUse" x2="0" y1="1" y2="47">
    <stop offset="0" stop-color="#e26878"/>
    <stop offset="1" stop-color="#df5769"/>
  </linearGradient>
  <path d="m24 1c22.703 0 23 .297 23 23 0 22.703-.297 23-23 23-22.703 0-23-.297-23-23 0-22.703.297-23 23-23z" fill="url(#a)"/>
  <path d="m12 14.09v21.913h10.154l.923 1.043h1.846l.923-1.043h10.154v-21.913h-10.154l-.923 1.043h-1.846l-.923-1.043" fill-rule="evenodd" opacity=".1" transform="matrix(1.0833333 0 0 .95833333 -1.0000007 .50000037)"/>
  <g fill-rule="evenodd" transform="translate(1 -2)">
    <path d="m22 36l-1-1h-11v1h11l1 1h2l1-1c4 0 11 0 11 0v-1h-11l-1 1" fill="#3e263b"/>
    <path d="m10 31v1h11l1 1h-12v1h11l1 1h2l1-1h11v-1h-12l1-1h11v-1z" fill="#969795"/>
    <path d="m36 15h-11l-1 1h-2l-1-1h-11v16c4 0 7 0 11 0l1 1h2l1-1c4 0 7 0 11 0" fill="#f2f2f2"/>
    <path d="m21 15v16l1 1h2l1-1c0-5.667 0-10.333 0-16l-1 1h-2" fill="#aeb2b7" fill-opacity=".471"/>
    <path d="m10 34v1h11l1 1h2l1-1h11v-1h-11l-1 1h-2l-1-1z" fill="#ddd8d8"/>
    <path d="m22 16v16h2v-16" fill="#9bb5b9" fill-opacity=".688"/>
    <path d="m10 32v1h11l1 1h2l1-1h11v-1h-11l-1 1h-2l-1-1z" fill="#ddd8d8"/>
  </g>
  <path d="m27 16h9v1h-9z" fill="#ccc"/>
  <path d="m27 22h9v1h-9z" fill="#ccc"/>
  <path d="m12 13h6v6h-6z" fill="#c54444"/>
  <path d="m16.12 16.869h-1.505l-.276.712h-1.024l1.447-3.907h1.201l1.447 3.907h-1.024m-1.495-1.534h.942l-.471-1.396" fill="#f2f2f2" transform="scale(.97672596 1.0238286)"/>
  <path d="m12 20h9v1h-9z" fill="#ccc"/>
  <path d="m12 22h9v1h-9z" fill="#ccc"/>
  <path d="m12 24h9v1h-9z" fill="#ccc"/>
  <path d="m12 26h9v1h-9z" fill="#ccc"/>
  <path d="m27 26h9v1h-9z" fill="#ccc"/>
  <path d="m27 24h9v1h-9z" fill="#ccc"/>
  <path d="m27 20h9v1h-9z" fill="#ccc"/>
  <path d="m27 18h9v1h-9z" fill="#ccc"/>
  <path d="m29 13v11l1-1 1 1v-11" fill-opacity=".118" fill-rule="evenodd"/>
  <path d="m28 13v10l1-1 1 1v-10" fill="#c54444" fill-rule="evenodd"/>
</svg>
