<svg viewBox="0 0 48 48" xmlns="http://www.w3.org/2000/svg" xmlns:xlink="http://www.w3.org/1999/xlink">
  <linearGradient id="a" gradientTransform="matrix(0 -1 1 0 -.0000015 47.999998)" gradientUnits="userSpaceOnUse" x1="1" x2="47">
    <stop offset="0" stop-color="#1093e6"/>
    <stop offset="1" stop-color="#1b9def"/>
  </linearGradient>
  <path d="m47 24c0 22.703-.297 23-23 23-22.703 0-23-.297-23-23 0-22.703.297-23 23-23 22.703 0 23 .297 23 23z" fill="url(#a)"/>
  <path d="m12 19v12h1v-5h2v5h1v-12zm6 0v6h3v5h-3v1h4v-7h-3v-4h3v-1zm6 0v12h4v-1h-3v-10h3v-1zm6 0v1h1v10h-1v1h3v-1h-1v-10h1v-1zm5 0v1h1v10h-1v1h3v-1h-1v-10h1v-1zm-22 1h2v5h-2z" fill-rule="evenodd" opacity=".1"/>
  <path d="m11 18v12h1v-5h2v5h1v-12zm6 0v6h3v5h-3v1h4v-7h-3v-4h3v-1zm6 0v12h4v-1h-3v-10h3v-1zm6 0v1h1v10h-1v1h3v-1h-1v-10h1v-1zm5 0v1h1v10h-1v1h3v-1h-1v-10h1v-1zm-22 1h2v5h-2z" fill="#f9f9f9" fill-rule="evenodd"/>
</svg>
