<svg viewBox="0 0 48 48" xmlns="http://www.w3.org/2000/svg" xmlns:xlink="http://www.w3.org/1999/xlink">
  <linearGradient id="a" gradientTransform="matrix(0 -1 1 0 -.0000015 47.999998)" gradientUnits="userSpaceOnUse" x1="1" x2="47">
    <stop offset="0" stop-color="#133847"/>
    <stop offset="1" stop-color="#174457"/>
  </linearGradient>
  <path d="m47 24c0 22.703-.297 23-23 23-22.703 0-23-.297-23-23 0-22.703.297-23 23-23 22.703 0 23 .297 23 23z" fill="url(#a)"/>
  <path d="m15 18a1 1 0 0 0-1 1 1 1 0 0 0  1 1 1 1 0 0 0  1-1 1 1 0 0 0-1-1zm10 0a1 1 0 0 0-1 1 1 1 0 0 0  1 1 1 1 0 0 0  1-1 1 1 0 0 0-1-1zm3 0a1 1 0 0 0-1 1 1 1 0 0 0  1 1 1 1 0 0 0  1-1 1 1 0 0 0-1-1zm4 0a1 1 0 0 0-1 1 1 1 0 0 0  1 1 1 1 0 0 0  1-1 1 1 0 0 0-1-1zm3 0a1 1 0 0 0-1 1 1 1 0 0 0  1 1 1 1 0 0 0  1-1 1 1 0 0 0-1-1zm3 0a1 1 0 0 0-1 1 1 1 0 0 0  1 1 1 1 0 0 0  1-1 1 1 0 0 0-1-1zm-26 3a1 1 0 0 0-1 1 1 1 0 0 0  1 1 1 1 0 0 0  1-1 1 1 0 0 0-1-1zm6 0a1 1 0 0 0-1 1 1 1 0 0 0  1 1 1 1 0 0 0  1-1 1 1 0 0 0-1-1zm5 0a1 1 0 0 0-1 1 1 1 0 0 0  1 1 1 1 0 0 0  1-1 1 1 0 0 0-1-1zm9 0a1 1 0 0 0-1 1 1 1 0 0 0  1 1 1 1 0 0 0  1-1 1 1 0 0 0-1-1zm-20 3a1 1 0 0 0-1 1 1 1 0 0 0  1 1 1 1 0 0 0  1-1 1 1 0 0 0-1-1zm3 0a1 1 0 0 0-1 1 1 1 0 0 0  1 1 1 1 0 0 0  1-1 1 1 0 0 0-1-1zm3 0a1 1 0 0 0-1 1 1 1 0 0 0  1 1 1 1 0 0 0  1-1 1 1 0 0 0-1-1zm7 0a1 1 0 0 0-1 1 1 1 0 0 0  1 1 1 1 0 0 0  1-1 1 1 0 0 0-1-1zm7 0a1 1 0 0 0-1 1 1 1 0 0 0  1 1 1 1 0 0 0  1-1 1 1 0 0 0-1-1zm3 0a1 1 0 0 0-1 1 1 1 0 0 0  1 1 1 1 0 0 0  1-1 1 1 0 0 0-1-1zm-23 3a1 1 0 0 0-1 1 1 1 0 0 0  1 1 1 1 0 0 0  1-1 1 1 0 0 0-1-1zm6 0a1 1 0 0 0-1 1 1 1 0 0 0  1 1 1 1 0 0 0  1-1 1 1 0 0 0-1-1zm10 0a1 1 0 0 0-1 1 1 1 0 0 0  1 1 1 1 0 0 0  1-1 1 1 0 0 0-1-1zm4 0a1 1 0 0 0-1 1 1 1 0 0 0  1 1 1 1 0 0 0  1-1 1 1 0 0 0-1-1zm-20 3a1 1 0 0 0-1 1 1 1 0 0 0  1 1 1 1 0 0 0  1-1 1 1 0 0 0-1-1zm6 0a1 1 0 0 0-1 1 1 1 0 0 0  1 1 1 1 0 0 0  1-1 1 1 0 0 0-1-1zm4 0a1 1 0 0 0-1 1 1 1 0 0 0  1 1 1 1 0 0 0  1-1 1 1 0 0 0-1-1zm3 0a1 1 0 0 0-1 1 1 1 0 0 0  1 1 1 1 0 0 0  1-1 1 1 0 0 0-1-1zm7 0a1 1 0 0 0-1 1 1 1 0 0 0  1 1 1 1 0 0 0  1-1 1 1 0 0 0-1-1zm3 0a1 1 0 0 0-1 1 1 1 0 0 0  1 1 1 1 0 0 0  1-1 1 1 0 0 0-1-1zm3 0a1 1 0 0 0-1 1 1 1 0 0 0  1 1 1 1 0 0 0  1-1 1 1 0 0 0-1-1z" opacity=".1"/>
  <path d="m14 17a1 1 0 0 0-1 1 1 1 0 0 0  1 1 1 1 0 0 0  1-1 1 1 0 0 0-1-1zm10 0a1 1 0 0 0-1 1 1 1 0 0 0  1 1 1 1 0 0 0  1-1 1 1 0 0 0-1-1zm3 0a1 1 0 0 0-1 1 1 1 0 0 0  1 1 1 1 0 0 0  1-1 1 1 0 0 0-1-1zm4 0a1 1 0 0 0-1 1 1 1 0 0 0  1 1 1 1 0 0 0  1-1 1 1 0 0 0-1-1zm3 0a1 1 0 0 0-1 1 1 1 0 0 0  1 1 1 1 0 0 0  1-1 1 1 0 0 0-1-1zm3 0a1 1 0 0 0-1 1 1 1 0 0 0  1 1 1 1 0 0 0  1-1 1 1 0 0 0-1-1zm-26 3a1 1 0 0 0-1 1 1 1 0 0 0  1 1 1 1 0 0 0  1-1 1 1 0 0 0-1-1zm6 0a1 1 0 0 0-1 1 1 1 0 0 0  1 1 1 1 0 0 0  1-1 1 1 0 0 0-1-1zm5 0a1 1 0 0 0-1 1 1 1 0 0 0  1 1 1 1 0 0 0  1-1 1 1 0 0 0-1-1zm9 0a1 1 0 0 0-1 1 1 1 0 0 0  1 1 1 1 0 0 0  1-1 1 1 0 0 0-1-1zm-20 3a1 1 0 0 0-1 1 1 1 0 0 0  1 1 1 1 0 0 0  1-1 1 1 0 0 0-1-1zm3 0a1 1 0 0 0-1 1 1 1 0 0 0  1 1 1 1 0 0 0  1-1 1 1 0 0 0-1-1zm3 0a1 1 0 0 0-1 1 1 1 0 0 0  1 1 1 1 0 0 0  1-1 1 1 0 0 0-1-1zm7 0a1 1 0 0 0-1 1 1 1 0 0 0  1 1 1 1 0 0 0  1-1 1 1 0 0 0-1-1zm7 0a1 1 0 0 0-1 1 1 1 0 0 0  1 1 1 1 0 0 0  1-1 1 1 0 0 0-1-1zm3 0a1 1 0 0 0-1 1 1 1 0 0 0  1 1 1 1 0 0 0  1-1 1 1 0 0 0-1-1zm-23 3a1 1 0 0 0-1 1 1 1 0 0 0  1 1 1 1 0 0 0  1-1 1 1 0 0 0-1-1zm6 0a1 1 0 0 0-1 1 1 1 0 0 0  1 1 1 1 0 0 0  1-1 1 1 0 0 0-1-1zm10 0a1 1 0 0 0-1 1 1 1 0 0 0  1 1 1 1 0 0 0  1-1 1 1 0 0 0-1-1zm4 0a1 1 0 0 0-1 1 1 1 0 0 0  1 1 1 1 0 0 0  1-1 1 1 0 0 0-1-1zm-20 3a1 1 0 0 0-1 1 1 1 0 0 0  1 1 1 1 0 0 0  1-1 1 1 0 0 0-1-1zm6 0a1 1 0 0 0-1 1 1 1 0 0 0  1 1 1 1 0 0 0  1-1 1 1 0 0 0-1-1zm4 0a1 1 0 0 0-1 1 1 1 0 0 0  1 1 1 1 0 0 0  1-1 1 1 0 0 0-1-1zm3 0a1 1 0 0 0-1 1 1 1 0 0 0  1 1 1 1 0 0 0  1-1 1 1 0 0 0-1-1zm7 0a1 1 0 0 0-1 1 1 1 0 0 0  1 1 1 1 0 0 0  1-1 1 1 0 0 0-1-1zm3 0a1 1 0 0 0-1 1 1 1 0 0 0  1 1 1 1 0 0 0  1-1 1 1 0 0 0-1-1zm3 0a1 1 0 0 0-1 1 1 1 0 0 0  1 1 1 1 0 0 0  1-1 1 1 0 0 0-1-1z" fill="#eabb26"/>
</svg>
