<svg viewBox="0 0 48 48" xmlns="http://www.w3.org/2000/svg" xmlns:xlink="http://www.w3.org/1999/xlink">
  <linearGradient id="a" gradientTransform="matrix(0 -1 1 0 -.0000015 47.999998)" gradientUnits="userSpaceOnUse" x1="1" x2="47">
    <stop offset="0" stop-color="#b2c1ca"/>
    <stop offset="1" stop-color="#becbd2"/>
  </linearGradient>
  <path d="m47 24c0 22.703-.297 23-23 23-22.703 0-23-.297-23-23 0-22.703.297-23 23-23 22.703 0 23 .297 23 23z" fill="url(#a)"/>
  <g transform="matrix(3.543307 0 0 3.543307 -.00009829 .00050041)">
    <path d="m33.474 26.25v12.501h-11.669v125.01h11.669v12.501h116.69v-12.501h11.669v-125.01h-11.669v-12.501z" fill-opacity=".098" transform="matrix(.04837074 0 0 .04515119 2.6141654 2.4836422)"/>
    <rect fill="#f9f9f9" height="4.798" rx=".003" width="5.644" x="3.951" y="3.951"/>
    <g transform="matrix(.04837074 0 0 .04515119 2.6141654 2.4836422)">
      <path d="m27.64 20v12.501h-11.669v125.01h11.669v12.501h116.69v-12.501h11.669v-125.01h-11.669v-12.501zm11.669 12.501h93.35l11.669 12.501v81.26h-11.669v12.501h-93.35v-12.501h-11.669v-81.26z" fill="#859fad"/>
      <path d="m39.31 157.51h-11.669v-12.501h-11.669v-100.01h11.669v-12.501h11.669v-12.501h93.35v12.501h11.669v12.501h11.669v100.01h-11.669v12.501h-11.669v12.501h-93.35zm93.35-12.501h11.669v-100.01h-11.669v-12.501h-93.35v12.501h-11.669v100.01h11.669v12.501h93.35zm-75.849-87.51h11.669v43.754h-11.669zm46.677 0h11.669v43.754h-11.669z" fill="#645460"/>
    </g>
  </g>
</svg>
