<svg xmlns="http://www.w3.org/2000/svg" viewBox="0 0 48 48">
 <defs>
  <linearGradient id="linearGradient3764" x1="1" x2="47" gradientUnits="userSpaceOnUse" gradientTransform="matrix(0,-1,1,0,-1.5e-6,47.999998)">
   <stop style="stop-color:#b2c1ca;stop-opacity:1"/>
   <stop offset="1" style="stop-color:#becbd2;stop-opacity:1"/>
  </linearGradient>
 </defs>
 <g>
  
  
  
 </g>
 <g>
  <path d="m 47,24 C 47,46.703 46.703,47 24,47 1.297,47 1,46.703 1,24 1,1.297 1.297,1 24,1 46.703,1 47,1.297 47,24 z" style="fill:url(#linearGradient3764);fill-opacity:1"/>
 </g>
 <g>
  
 </g>
 <g transform="matrix(3.543307,0,0,3.543307,-9.8288105e-5,5.00406e-4)" style="display:inline">
  <g>
   <path d="m 33.474 26.25 0 12.501 -11.669 0 0 125.01 11.669 0 0 12.501 116.69 0 0 -12.501 11.669 0 0 -125.01 -11.669 0 0 -12.501 z" transform="matrix(0.04837074,0,0,0.04515119,2.6141654,2.4836422)" style="fill:#000;fill-opacity:0.098"/>
   <g>
    <rect width="5.644" height="4.798" x="3.951" y="3.951" rx="0.003" style="fill:#f9f9f9;fill-opacity:1;stroke:none;fill-rule:nonzero"/>
    <g transform="matrix(0.04837074,0,0,0.04515119,2.6141654,2.4836422)">
     <path d="m 27.64 20 0 12.501 -11.669 0 0 125.01 11.669 0 0 12.501 116.69 0 0 -12.501 11.669 0 0 -125.01 -11.669 0 0 -12.501 z m 11.669 12.501 93.35 0 11.669 12.501 0 81.26 -11.669 0 0 12.501 -93.35 0 0 -12.501 -11.669 0 0 -81.26 z" style="fill:#859fad;fill-opacity:1"/>
     <path d="m 39.31 157.51 -11.669 0 0 -12.501 -11.669 0 0 -100.01 11.669 0 0 -12.501 11.669 0 0 -12.501 93.35 0 0 12.501 11.669 0 0 12.501 11.669 0 0 100.01 -11.669 0 0 12.501 -11.669 0 0 12.501 -93.35 0 z m 93.35 -12.501 11.669 0 0 -100.01 -11.669 0 0 -12.501 -93.35 0 0 12.501 -11.669 0 0 100.01 11.669 0 0 12.501 93.35 0 z m -75.849 -87.51 11.669 0 0 43.754 -11.669 0 z m 46.677 0 11.669 0 0 43.754 -11.669 0 z" style="fill:#645460"/>
    </g>
   </g>
  </g>
 </g>
</svg>
