<svg xmlns="http://www.w3.org/2000/svg" viewBox="0 0 48 48">
 <defs>
  <linearGradient id="linearGradient3013" y1="47" x2="0" y2="1" gradientUnits="userSpaceOnUse">
   <stop style="stop-color:#c7cfc1;stop-opacity:1"/>
   <stop offset="1" style="stop-color:#d1d8cc;stop-opacity:1"/>
  </linearGradient>
 </defs>
 <g>
  
  
  
 </g>
 <g style="fill:#bec8b7">
  <path d="m 24 1 c 22.703 0 23 0.297 23 23 c 0 22.703 -0.297 23 -23 23 -22.703 0 -23 -0.297 -23 -23 0 -22.703 0.297 -23 23 -23 z" style="fill:url(#linearGradient3013);fill-opacity:1"/>
 </g>
 <g>
  
 </g>
 <g transform="translate(2.8813902,-0.88138972)" style="fill:#000;opacity:0.1">
  <path d="m 28.28 12.881 c 0 0 -3.732 0.648 -5.467 1.367 -3.682 1.525 -10.251 6.151 -10.251 6.151 0 0 -3.112 1.835 -3.417 3.417 -0.328 1.704 2.05 4.784 2.05 4.784 l 4.784 -2.05 0.683 0.683 c 0 0 -0.966 3.134 0 4.1 0.966 0.966 4.1 0 4.1 0 l 0.683 0.683 -2.05 4.784 c 0 0 3.08 2.378 4.784 2.05 1.582 -0.305 3.417 -3.417 3.417 -3.417 0 0 4.626 -6.569 6.151 -10.251 0.719 -1.735 1.367 -5.467 1.367 -5.467 0 0 -8.03 10.934 -10.934 10.934 -2.899 0 -1.367 -1.367 -1.367 -1.367 0 0 1.133 -1.742 1.367 -2.734 0.209 -0.887 0.509 -2.224 0 -2.734 -0.509 -0.509 -1.847 -0.209 -2.734 0 -0.991 0.234 -2.734 1.367 -2.734 1.367 0 0 -1.367 1.533 -1.367 -1.367 0 -2.899 10.934 -10.934 10.934 -10.934 z" style="stroke:none"/>
 </g>
 <g transform="translate(1.8813902,-1.8813899)">
  <path d="m 28.28 12.881 c 0 0 -3.732 0.648 -5.467 1.367 -3.682 1.525 -10.251 6.151 -10.251 6.151 0 0 -3.112 1.835 -3.417 3.417 -0.328 1.704 2.05 4.784 2.05 4.784 l 4.784 -2.05 0.683 0.683 c 0 0 -0.966 3.134 0 4.1 0.966 0.966 4.1 0 4.1 0 l 0.683 0.683 -2.05 4.784 c 0 0 3.08 2.378 4.784 2.05 1.582 -0.305 3.417 -3.417 3.417 -3.417 0 0 4.626 -6.569 6.151 -10.251 0.719 -1.735 1.367 -5.467 1.367 -5.467 0 0 -8.03 10.934 -10.934 10.934 -2.899 0 -1.367 -1.367 -1.367 -1.367 0 0 1.133 -1.742 1.367 -2.734 0.209 -0.887 0.509 -2.224 0 -2.734 -0.509 -0.509 -1.847 -0.209 -2.734 0 -0.991 0.234 -2.734 1.367 -2.734 1.367 0 0 -1.367 1.533 -1.367 -1.367 0 -2.899 10.934 -10.934 10.934 -10.934 z" style="fill:#535d6c;stroke:none"/>
  <path d="m 20.08 25.18 c -1.233 0.411 -0.644 2.089 0 2.734 0.644 0.644 2.317 1.251 2.734 0 l 0.683 -2.05 c 0 0 0.322 -1.045 0 -1.367 -0.322 -0.322 -1.367 0 -1.367 0 z" style="fill:#acf;stroke:none"/>
 </g>
</svg>
