<svg viewBox="0 0 48 48" xmlns="http://www.w3.org/2000/svg" xmlns:xlink="http://www.w3.org/1999/xlink">
  <linearGradient id="a" gradientTransform="matrix(0 -1 1 0 -.0000015 47.999998)" gradientUnits="userSpaceOnUse" x1="1" x2="47">
    <stop offset="0" stop-color="#333"/>
    <stop offset="1" stop-color="#3d3d3d"/>
  </linearGradient>
  <path d="m47 24c0 22.703-.297 23-23 23-22.703 0-23-.297-23-23 0-22.703.297-23 23-23 22.703 0 23 .297 23 23z" fill="url(#a)"/>
  <path d="m25.04 10l .314 3.375-1.281 2.094 2.875 3.281-.854 1.373c2.286.508 3.915 2.535 3.916 4.877.001 2.761-2.239 5-5 5-2.761 0-5-2.239-5-5 0-2.755 2.228-4.99 4.982-5l .359-.875-3.156-3.531 1.5-2.719-1.344-2.625c-7.02 1.254-12.355 7.371-12.355 14.75 0 8.285 6.727 15 15 15 8.285 0 15-6.715 15-15 0-8.269-6.684-14.978-14.957-15zm-.029 11c-2.209 0-4 1.791-4 4 0 2.209 1.791 4 4 4 2.209 0 4-1.791 4-4 0-2.209-1.791-4-4-4zm0 2c1.105 0 2 .895 2 2 0 1.105-.895 2-2 2-1.105 0-2-.895-2-2 0-1.105.895-2 2-2z" opacity=".1"/>
  <path d="m24.04 9l .314 3.375-1.281 2.094 2.875 3.281-.854 1.373c2.286.508 3.915 2.535 3.916 4.877.001 2.761-2.239 5-5 5-2.761 0-5-2.239-5-5 0-2.755 2.228-4.99 4.982-5l .359-.875-3.156-3.531 1.5-2.719-1.344-2.625c-7.02 1.254-12.355 7.371-12.355 14.75 0 8.285 6.727 15 15 15 8.285 0 15-6.715 15-15 0-8.269-6.684-14.978-14.957-15m-.029 11c-2.209 0-4 1.791-4 4 0 2.209 1.791 4 4 4 2.209 0 4-1.791 4-4 0-2.209-1.791-4-4-4zm0 2c1.105 0 2 .895 2 2 0 1.105-.895 2-2 2-1.105 0-2-.895-2-2 0-1.105.895-2 2-2z" fill="#cc93ff"/>
</svg>
