<svg xmlns="http://www.w3.org/2000/svg" viewBox="0 0 48 48">
 <defs>
  <linearGradient id="linearGradient3764" x1="1" x2="47" gradientUnits="userSpaceOnUse" gradientTransform="matrix(0,-1,1,0,-1.5e-6,47.999998)">
   <stop style="stop-color:#333;stop-opacity:1"/>
   <stop offset="1" style="stop-color:#3d3d3d;stop-opacity:1"/>
  </linearGradient>
 </defs>
 <g>
  
  
  
 </g>
 <g>
  <path d="m 47,24 C 47,46.703 46.703,47 24,47 1.297,47 1,46.703 1,24 1,1.297 1.297,1 24,1 46.703,1 47,1.297 47,24 z" style="fill:url(#linearGradient3764);fill-opacity:1"/>
 </g>
 <g>
  <g>
   <g transform="translate(1,1)">
    <g style="opacity:0.1">
     <!-- color: #3d3d3d -->
    </g>
   </g>
  </g>
 </g>
 <g>
  <g>
   <!-- color: #3d3d3d -->
   <g>
    <path d="m 25.04 10 0.314 3.375 -1.281 2.094 2.875 3.281 -0.854 1.373 c 2.286 0.508 3.915 2.535 3.916 4.877 0.001 2.761 -2.239 5 -5 5 -2.761 0 -5 -2.239 -5 -5 0 -2.755 2.228 -4.99 4.982 -5 l 0.359 -0.875 -3.156 -3.531 1.5 -2.719 -1.344 -2.625 c -7.02 1.254 -12.355 7.371 -12.355 14.75 c 0 8.285 6.727 15 15 15 8.285 0 15 -6.715 15 -15 0 -8.269 -6.684 -14.978 -14.957 -15 z m -0.029 11 c -2.209 0 -4 1.791 -4 4 0 2.209 1.791 4 4 4 2.209 0 4 -1.791 4 -4 0 -2.209 -1.791 -4 -4 -4 z m 0 2 c 1.105 0 2 0.895 2 2 0 1.105 -0.895 2 -2 2 -1.105 0 -2 -0.895 -2 -2 0 -1.105 0.895 -2 2 -2 z" style="fill:#000;opacity:0.1;fill-opacity:1;stroke:none;fill-rule:nonzero"/>
    <path d="m 24.04 9 0.314 3.375 -1.281 2.094 2.875 3.281 -0.854 1.373 c 2.286 0.508 3.915 2.535 3.916 4.877 0.001 2.761 -2.239 5 -5 5 -2.761 0 -5 -2.239 -5 -5 0 -2.755 2.228 -4.99 4.982 -5 l 0.359 -0.875 -3.156 -3.531 1.5 -2.719 -1.344 -2.625 c -7.02 1.254 -12.355 7.371 -12.355 14.75 0 8.285 6.727 15 15 15 8.285 0 15 -6.715 15 -15 0 -8.269 -6.684 -14.978 -14.957 -15 m -0.029 11 c -2.209 0 -4 1.791 -4 4 0 2.209 1.791 4 4 4 2.209 0 4 -1.791 4 -4 0 -2.209 -1.791 -4 -4 -4 z m 0 2 c 1.105 0 2 0.895 2 2 0 1.105 -0.895 2 -2 2 -1.105 0 -2 -0.895 -2 -2 0 -1.105 0.895 -2 2 -2 z" style="fill:#cc93ff;fill-opacity:1;stroke:none;fill-rule:nonzero"/>
   </g>
  </g>
 </g>
 <g>
  
 </g>
</svg>
