<svg viewBox="0 0 48 48" xmlns="http://www.w3.org/2000/svg" xmlns:xlink="http://www.w3.org/1999/xlink">
  <linearGradient id="a" gradientTransform="matrix(0 -1 1 0 -.0000015 47.999998)" gradientUnits="userSpaceOnUse" x1="1" x2="47">
    <stop offset="0" stop-color="#b44732"/>
    <stop offset="1" stop-color="#c44e36"/>
  </linearGradient>
  <path d="m47 24c0 22.703-.297 23-23 23-22.703 0-23-.297-23-23 0-22.703.297-23 23-23 22.703 0 23 .297 23 23z" fill="url(#a)"/>
  <path d="m14 16c-.5 0-1 .5-1 1 0 5.667 0 11.333 0 17h24v-14.934c0-.533-.5-1.066-1-1.066-3.333 0-6.667 0-10 0l-1-2z" opacity=".1" transform="matrix(1 0 0 1 .00000001 -.00000001)"/>
  <path d="m12 16v14h23v-7l-1-6h-9l-1-2h-11c-.5 0-1 .5-1 1z" fill="#ff8f00"/>
  <path d="m14 18h11v4h-11z" fill="#fffdf0"/>
  <path d="m36 18.07v14.933h-24v-14h12l1-2h10c .5 0 1 .533 1 1.067z" fill="#ffca28"/>
  <path d="m24 18.98l-.715 1.641.191.434c-1.152.078-.926.313-.926.313 0 0-1.328.246-1.328.43 0 .012 0 .008 0 .016-.266.129-.527.309-.777.504-3.34 4.488.234 5.527-.559 8.133-.172.566-.891 1.527-.891 1.527 0 0 1.449.18 2.047-1.516.484-1.371-1.156-4.129.066-5.363 1.734-1.75 3.02 1.855 2.477 2.355-.551.5-.414.637-.414.637l.82 1.656.816-1.656c0 0 .141-.137-.41-.637-.547-.5.742-4.109 2.473-2.355 1.227 1.238-.418 3.992.07 5.363.598 1.695 2.047 1.516 2.047 1.516 0 0-.715-.969-.891-1.527-.793-2.602 2.77-3.641-.566-8.133-.25-.188-.512-.371-.773-.5 0-.008 0-.004 0-.016 0-.188-1.324-.43-1.324-.43 0 0 .227-.234-.93-.313l.188-.434-.711-1.641m.016-.004" fill="#403018" opacity=".4"/>
</svg>
