<svg xmlns="http://www.w3.org/2000/svg" viewBox="0 0 48 48">
 <defs>
  <linearGradient id="linearGradient4171" x1="1" x2="47" gradientUnits="userSpaceOnUse">
   <stop style="stop-color:#424242;stop-opacity:1"/>
   <stop offset="1" style="stop-color:#4c4c4c;stop-opacity:1"/>
  </linearGradient>
 </defs>
 <g>
  
  
  
 </g>
 <g transform="matrix(0,-1,1,0,0,48)" style="fill:url(#linearGradient4171);fill-opacity:1">
  <path d="M 24,1 C 46.703,1 47,1.297 47,24 47,46.703 46.703,47 24,47 1.297,47 1,46.703 1,24 1,1.297 1.297,1 24,1 Z"/>
 </g>
 <g>
  <g>
   <g transform="translate(1,1)">
    <g style="opacity:0.1">
     <!-- color: #79be69 -->
     <g>
      <path d="m 12 12 l 0 8 l 8 0 l 0 -8 m 0 8 l 0 4 l -4 0 l 0 12 l 4 0 l 0 -4 l 8 0 l 0 4 l 4 0 l 0 -12 l -4 0 l 0 -4 m 0 0 l 8 0 l 0 -8 l -8 0 m 0 8" style="fill:#000;fill-opacity:1;stroke:none;fill-rule:nonzero"/>
     </g>
    </g>
   </g>
  </g>
 </g>
 <g style="fill:#78ab2f;fill-opacity:1">
  <g>
   <!-- color: #79be69 -->
   <g>
    <path d="m 12 12 l 0 8 l 8 0 l 0 -8 m 0 8 l 0 4 l -4 0 l 0 12 l 4 0 l 0 -4 l 8 0 l 0 4 l 4 0 l 0 -12 l -4 0 l 0 -4 m 0 0 l 8 0 l 0 -8 l -8 0 m 0 8" style="stroke:none;fill-rule:nonzero"/>
   </g>
  </g>
 </g>
 <g>
  
 </g>
</svg>
