<svg viewBox="0 0 48 48" xmlns="http://www.w3.org/2000/svg" xmlns:xlink="http://www.w3.org/1999/xlink">
  <linearGradient id="a" gradientTransform="matrix(0 -1 1 0 -.0000015 47.999998)" gradientUnits="userSpaceOnUse" x1="1" x2="47">
    <stop offset="0" stop-color="#e4e4e4"/>
    <stop offset="1" stop-color="#eee"/>
  </linearGradient>
  <path d="m47 24c0 22.703-.297 23-23 23-22.703 0-23-.297-23-23 0-22.703.297-23 23-23 22.703 0 23 .297 23 23z" fill="url(#a)"/>
  <path d="m20.346 13c-.296-.008-.576.019-.762.082-.91.316-1.481.996-1.797 2.131-.273.989-.266 2.769.02 4.318.05.269.101.513.113.553.015.056-.082.09-.512.189-2.103.486-3.638 1.211-4.561 2.152-.414.419-.644.785-.777 1.248-.094.321-.094.957 0 1.273.258.871.985 1.688 2.133 2.412.797.498 1.035.554 1.293.293.121-.122.148-.181.148-.328 0-.284-.086-.4-.461-.617-2.352-1.34-2.766-2.684-1.195-3.879.797-.605 1.912-1.084 3.412-1.455.657-.162.805-.183.805-.096 0 .118.484 1.685.734 2.361l.258.707-.34.666c-1.359 2.657-2.231 5.365-2.336 7.346-.086 1.527.187 2.619.852 3.295.726.736 1.75.894 3.066.467.496-.162 1.481-.669 2.055-1.064.414-.28.506-.363.561-.51.055-.147.055-.194 0-.348-.082-.23-.254-.359-.488-.359-.152 0-.257.049-.648.318-.887.609-1.719.989-2.41 1.107-.957.166-1.57-.261-1.852-1.273-.121-.439-.114-1.846.02-2.574.203-1.158.558-2.36 1.066-3.625.301-.751.875-2.01.953-2.092.039-.044.09.027.219.328.657 1.494 1.66 3.318 2.641 4.793 2.341 3.517 4.903 5.805 6.877 6.133l-.021.004c.867.142 1.6-.075 2.166-.648.461-.475.765-1.143.938-2.072.105-.581.105-2.209 0-3-.32-2.369-1.174-5.082-2.451-7.787-.199-.423-.31-.527-.568-.527-.289-.004-.523.221-.523.506 0 .099.098.366.262.719 1.574 3.396 2.42 6.682 2.334 9.06-.053 1.416-.402 2.27-1.063 2.598-.347.173-.787.167-1.365-.023-2.654-.909-6.248-5.456-8.564-10.834l-.23-.537.336-.58c.379-.66 1.336-2.135 1.777-2.74l.297-.402h.783c4.748 0 9.447 1.087 11.939 2.752.508.34 1.121.961 1.305 1.324.133.253.145.32.145.656 0 .329-.012.408-.121.609-.305.593-1.109 1.209-2.145 1.648-.48.205-.609.341-.609.621 0 .237.153.435.383.506.149.044.199.036.465-.07 1.672-.669 2.821-1.708 3.055-2.76.066-.284.062-.819-.004-1.096-.125-.543-.572-1.238-1.084-1.705-2.282-2.072-7.122-3.408-12.865-3.547l-.41-.012.48-.545c.258-.305.717-.811 1.033-1.135 1.633-1.68 3.15-2.78 4.475-3.238.422-.15.507-.168.945-.168.407 0 .506.012.682.104.239.114.507.395.645.66.269.542.36 1.492.23 2.504-.043.348-.078.75-.078.889 0 .234.008.27.141.385.109.103.183.129.324.129.227 0 .437-.121.5-.287.187-.49.285-2.227.164-2.959-.188-1.124-.664-1.883-1.422-2.25-1.34-.656-3.286-.014-5.557 1.828-1.187.965-2.752 2.602-3.83 4l-.105.125-.637.037c-.535.031-1.406.118-2.418.24l-.219.027-.096-.541c-.183-1.079-.197-1.241-.197-2.273 0-.906.012-1.08.098-1.443.211-.917.629-1.487 1.18-1.605.758-.162 1.699.221 3.02 1.213.422.321.936.047.873-.459-.027-.221-.228-.411-.9-.865-.563-.384-1.195-.7-1.711-.854-.254-.077-.567-.12-.863-.129zm1.01 7.783c0 .02-.179.301-.402.633-.223.328-.539.811-.703 1.084-.16.265-.317.506-.348.541-.043.047-.106-.079-.297-.695-.273-.85-.39-1.308-.355-1.348.058-.06 2.105-.275 2.105-.215zm4.146 3.215a1.5 1.5 0 0 0-1.5 1.5 1.5 1.5 0 0 0  1.5 1.5 1.5 1.5 0 0 0  1.5-1.5 1.5 1.5 0 0 0-1.5-1.5z" opacity=".1"/>
  <path d="m19.346 12c-.296-.008-.576.019-.762.082-.91.316-1.481.996-1.797 2.131-.273.989-.266 2.769.02 4.318.05.269.101.513.113.553.015.056-.082.09-.512.189-2.103.486-3.638 1.211-4.561 2.152-.414.419-.644.785-.777 1.248-.094.321-.094.957 0 1.273.258.871.985 1.688 2.133 2.412.797.498 1.035.554 1.293.293.121-.122.148-.181.148-.328 0-.284-.086-.4-.461-.617-2.352-1.34-2.766-2.684-1.195-3.879.797-.605 1.912-1.084 3.412-1.455.657-.162.805-.183.805-.096 0 .118.484 1.685.734 2.361l.258.707-.34.666c-1.359 2.657-2.231 5.365-2.336 7.346-.086 1.527.187 2.619.852 3.295.726.736 1.75.894 3.066.467.496-.162 1.481-.669 2.055-1.064.414-.28.506-.363.561-.51.055-.147.055-.194 0-.348-.082-.23-.254-.359-.488-.359-.152 0-.257.049-.648.318-.887.609-1.719.989-2.41 1.107-.957.166-1.57-.261-1.852-1.273-.121-.439-.114-1.846.02-2.574.203-1.158.558-2.36 1.066-3.625.301-.751.875-2.01.953-2.092.039-.044.09.027.219.328.657 1.494 1.66 3.318 2.641 4.793 2.341 3.517 4.903 5.805 6.877 6.133l-.021.004c.867.142 1.6-.075 2.166-.648.461-.475.765-1.143.938-2.072.105-.581.105-2.209 0-3-.32-2.369-1.174-5.082-2.451-7.787-.199-.423-.31-.527-.568-.527-.289-.004-.523.221-.523.506 0 .099.098.366.262.719 1.574 3.396 2.42 6.682 2.334 9.06-.053 1.416-.402 2.27-1.063 2.598-.347.173-.787.167-1.365-.023-2.654-.909-6.248-5.456-8.564-10.834l-.23-.537.336-.58c.379-.66 1.336-2.135 1.777-2.74l.297-.402h.783c4.748 0 9.447 1.087 11.939 2.752.508.34 1.121.961 1.305 1.324.133.253.145.32.145.656 0 .329-.012.408-.121.609-.305.593-1.109 1.209-2.145 1.648-.48.205-.609.341-.609.621 0 .237.153.435.383.506.149.044.199.036.465-.07 1.672-.669 2.821-1.708 3.055-2.76.066-.284.062-.819-.004-1.096-.125-.543-.572-1.238-1.084-1.705-2.282-2.072-7.122-3.408-12.865-3.547l-.41-.012.48-.545c.258-.305.717-.811 1.033-1.135 1.633-1.68 3.15-2.78 4.475-3.238.422-.15.507-.168.945-.168.407 0 .506.012.682.104.239.114.507.395.645.66.269.542.36 1.492.23 2.504-.043.348-.078.75-.078.889 0 .234.008.27.141.385.109.103.183.129.324.129.227 0 .437-.121.5-.287.187-.49.285-2.227.164-2.959-.188-1.124-.664-1.883-1.422-2.25-1.34-.656-3.286-.014-5.557 1.828-1.187.965-2.752 2.602-3.83 4l-.105.125-.637.037c-.535.031-1.406.118-2.418.24l-.219.027-.096-.541c-.183-1.079-.197-1.241-.197-2.273 0-.906.012-1.08.098-1.443.211-.917.629-1.487 1.18-1.605.758-.162 1.699.221 3.02 1.213.422.321.936.047.873-.459-.027-.221-.228-.411-.9-.865-.563-.384-1.195-.7-1.711-.854-.254-.077-.567-.12-.863-.129zm1.01 7.783c0 .02-.179.301-.402.633-.223.328-.539.811-.703 1.084-.16.265-.317.506-.348.541-.043.047-.106-.079-.297-.695-.273-.85-.39-1.308-.355-1.348.058-.06 2.105-.275 2.105-.215zm4.146 3.215a1.5 1.5 0 0 0-1.5 1.5 1.5 1.5 0 0 0  1.5 1.5 1.5 1.5 0 0 0  1.5-1.5 1.5 1.5 0 0 0-1.5-1.5z" fill="#d9b367"/>
</svg>
