<svg xmlns="http://www.w3.org/2000/svg" viewBox="0 0 48 48">
 <defs>
  <linearGradient id="linearGradient3764" x1="1" x2="47" gradientUnits="userSpaceOnUse" gradientTransform="matrix(0,-1,1,0,-1.5e-6,47.999998)">
   <stop style="stop-color:#c74d95;stop-opacity:1"/>
   <stop offset="1" style="stop-color:#cc5d9d;stop-opacity:1"/>
  </linearGradient>
 </defs>
 <g>
  
  
  
 </g>
 <g>
  <path d="m 47,24 C 47,46.703 46.703,47 24,47 1.297,47 1,46.703 1,24 1,1.297 1.297,1 24,1 46.703,1 47,1.297 47,24 z" style="fill:url(#linearGradient3764);fill-opacity:1"/>
 </g>
 <g transform="matrix(1.0032829,0,0,0.99962514,0.87278723,1.0084968)" style="fill:#000;opacity:0.1">
  <g>
   <!-- color: #cc5d9d -->
   <g>
    <path d="m 23.504 12 c -1.742 0 -3.398 0.294 -4.906 0.941 -2.427 1.042 -4.103 2.565 -5.563 4.469 9.945 -5.652 16.652 0.398 16.559 2.313 -0.066 1.406 -1.297 1.145 -4.03 0.375 -5.816 -1.633 -12.407 0.315 -13.344 5.469 -1.183 6.506 5.8 10.4 11.289 10.438 c 7.01 -0.005 12.491 -5.01 12.5 -12.01 -0.009 -7 -5.917 -11.958 -12.5 -12 m -0.91 12.04 c 1.816 -0.086 3.602 0.383 4.844 1.27 1.238 0.887 1.801 2.098 1.531 3.293 -0.563 2.141 -3.59 3.59 -6.836 3.27 -3.242 -0.316 -5.516 -2.301 -5.105 -4.457 0.422 -1.852 2.738 -3.254 5.566 -3.371" style="fill-opacity:1;stroke:none;fill-rule:nonzero"/>
   </g>
  </g>
 </g>
 <g>
  
 </g>
 <path d="m 23.471 12 c -1.745 0 -3.404 0.294 -4.915 0.941 -2.432 1.041 -4.11 2.564 -5.573 4.467 9.964 -5.65 16.683 0.398 16.59 2.312 -0.066 1.405 -1.299 1.145 -4.04 0.375 -5.827 -1.632 -12.353 0.764 -13.369 5.467 c -1.351 6.25 5.811 10.396 11.31 10.434 7.02 -0.005 12.515 -5 12.524 -12 -0.009 -6.997 -5.928 -11.954 -12.524 -12 m -0.912 12.04 c 1.819 -0.086 3.609 0.383 4.853 1.27 1.24 0.887 1.804 2.097 1.534 3.292 -0.564 2.14 -3.597 3.589 -6.849 3.269 -3.248 -0.316 -5.526 -2.3 -5.115 -4.455 0.423 -1.851 2.743 -3.253 5.576 -3.37" style="fill:#fbf4fa;fill-opacity:1;stroke:none;fill-rule:nonzero"/>
</svg>
