<svg viewBox="0 0 48 48" xmlns="http://www.w3.org/2000/svg" xmlns:xlink="http://www.w3.org/1999/xlink">
  <linearGradient id="a" gradientTransform="matrix(0 -1 1 0 -.0000015 47.999998)" gradientUnits="userSpaceOnUse" x1="1" x2="47">
    <stop offset="0" stop-color="#c74d95"/>
    <stop offset="1" stop-color="#cc5d9d"/>
  </linearGradient>
  <path d="m47 24c0 22.703-.297 23-23 23-22.703 0-23-.297-23-23 0-22.703.297-23 23-23 22.703 0 23 .297 23 23z" fill="url(#a)"/>
  <path d="m23.504 12c-1.742 0-3.398.294-4.906.941-2.427 1.042-4.103 2.565-5.563 4.469 9.945-5.652 16.652.398 16.559 2.313-.066 1.406-1.297 1.145-4.03.375-5.816-1.633-12.407.315-13.344 5.469-1.183 6.506 5.8 10.4 11.289 10.438 7.01-.005 12.491-5.01 12.5-12.01-.009-7-5.917-11.958-12.5-12m-.91 12.04c1.816-.086 3.602.383 4.844 1.27 1.238.887 1.801 2.098 1.531 3.293-.563 2.141-3.59 3.59-6.836 3.27-3.242-.316-5.516-2.301-5.105-4.457.422-1.852 2.738-3.254 5.566-3.371" opacity=".1" transform="matrix(1.0032829 0 0 .99962514 .87278723 1.0084968)"/>
  <path d="m23.471 12c-1.745 0-3.404.294-4.915.941-2.432 1.041-4.11 2.564-5.573 4.467 9.964-5.65 16.683.398 16.59 2.312-.066 1.405-1.299 1.145-4.04.375-5.827-1.632-12.353.764-13.369 5.467-1.351 6.25 5.811 10.396 11.31 10.434 7.02-.005 12.515-5 12.524-12-.009-6.997-5.928-11.954-12.524-12m-.912 12.04c1.819-.086 3.609.383 4.853 1.27 1.24.887 1.804 2.097 1.534 3.292-.564 2.14-3.597 3.589-6.849 3.269-3.248-.316-5.526-2.3-5.115-4.455.423-1.851 2.743-3.253 5.576-3.37" fill="#fbf4fa"/>
</svg>
