<svg viewBox="0 0 48 48" xmlns="http://www.w3.org/2000/svg" xmlns:xlink="http://www.w3.org/1999/xlink">
  <linearGradient id="a" gradientUnits="userSpaceOnUse" x2="0" y1="47" y2="1">
    <stop offset="0" stop-color="#e88ac6"/>
    <stop offset="1" stop-color="#eb9bce"/>
  </linearGradient>
  <path d="m24 1c22.703 0 23 .297 23 23 0 22.703-.297 23-23 23-22.703 0-23-.297-23-23 0-22.703.297-23 23-23z" fill="url(#a)"/>
  <g opacity=".1" transform="matrix(.875 0 0 .86666667 4 5.1999999)">
    <path d="m16 28l1 7 1-2 1 4 2-6 1 8 2-5 1 3 1-7 2 7 1-6 2 6 1-9-1-6-1 3-1-7-1 4-2-5-1 7-2-8-1 7-1-6-2 8-2-5z" fill-rule="evenodd"/>
    <path d="m24 11c-4.87 0-7.554 2.835-8.781 5.563-.85 1.888-1.078 3.709-1.156 4.688-3.483.866-6.06 3.999-6.06 7.75 0 4.418 3.582 8 8 8v-15c0 0 .009-2.321 1.031-4.593 1.023-2.272 2.839-4.406 6.969-4.406 4.13 0 5.946 2.134 6.969 4.406 1.023 2.273 1.031 4.594 1.031 4.594v15c4.418 0 8-3.582 8-8 0-3.751-2.58-6.884-6.06-7.75-.078-.978-.307-2.799-1.156-4.688-1.227-2.727-3.911-5.563-8.781-5.563" transform="translate(0 -2)"/>
  </g>
  <path d="m17 28.466l.875 6.067.875-1.733.875 3.467 1.75-5.2.875 6.933 1.75-4.333.875 2.6.875-6.067 1.75 6.067.875-5.2 1.75 5.2.875-7.8-.875-5.2-.875 2.6-.875-6.067-.875 3.467-1.75-4.333-.875 6.067-1.75-6.933-.875 6.067-.875-5.2-1.75 6.933-1.75-4.333z" fill="#f6e82d" fill-rule="evenodd"/>
  <path d="m24 12c-4.262 0-6.61 2.457-7.684 4.821-.743 1.636-.944 3.215-1.012 4.063-3.048.75-5.305 3.466-5.305 6.717 0 3.829 3.134 6.933 7 6.933v-13c0 0 .008-2.01.902-3.981.895-1.969 2.484-3.819 6.098-3.819 3.613 0 5.203 1.849 6.098 3.819.895 1.969.902 3.981.902 3.981v13c3.866 0 7-3.104 7-6.933 0-3.251-2.257-5.966-5.305-6.717-.068-.848-.268-2.426-1.012-4.063-1.074-2.364-3.422-4.821-7.684-4.821" fill="#2e2e7b"/>
  <path d="m17 28.467l.875 2.6.875-2.6.875 4.333 1.75-5.2.875 6.933 1.75-4.333.875 2.6.875-6.067 1.75 6.067.875-5.2 1.75 5.2.875-4.333-.875-1.733-.875 2.6-.875-6.067-.875 3.467-1.75-4.333-.875 6.067-1.75-6.933-.875 6.067-.875-5.2-1.75 6.933-1.75-4.333" fill="#e83628" fill-rule="evenodd"/>
</svg>
