<svg viewBox="0 0 48 48" xmlns="http://www.w3.org/2000/svg" xmlns:xlink="http://www.w3.org/1999/xlink">
  <linearGradient id="a" gradientTransform="matrix(0 -1 1 0 -.0000015 47.999998)" gradientUnits="userSpaceOnUse" x1="1" x2="47">
    <stop offset="0" stop-color="#e4e4e4"/>
    <stop offset="1" stop-color="#eee"/>
  </linearGradient>
  <path d="m47 24c0 22.703-.297 23-23 23-22.703 0-23-.297-23-23 0-22.703.297-23 23-23 22.703 0 23 .297 23 23z" fill="url(#a)"/>
  <path d="m28.945 13c-.962.034-1.945.306-2.945.971v9.03h-7l-4 2 1.736.867c-2.952 1.778-4.446 4.919-3.404 7.584 1.207 3.101 5.383 4.398 9.332 2.906 3.113-1.176 5.203-3.73 5.336-6.281v-3.076h6.438c0 0 .564-.324.564-1.996 0-1.613-.621-2-.621-2-2.158-.002-6.381-.004-6.381-.004v-5.02c.094-.082 1.203-.539 4 0 3 0 5-3 5-3-3.1.209-5.604-1.926-8.05-1.973z" opacity=".1" transform=""/>
  <g transform="translate(.00038962)">
    <path d="m36 13.977c0 0-2 3-5 3-2.797-.539-3.906-.082-4 0v12.1c-.133 2.551-2.223 5.105-5.336 6.281-3.949 1.492-8.125.195-9.332-2.906-1.211-3.098 1-6.848 4.953-8.34 3.059-1.156 5.867-.871 7.715.863v-12c4-2.66 7.719.961 11 1m0 0" fill="#2d4c78"/>
    <path d="m17.969 22h13.773v4h-13.773m0-4" fill="#ff6f03"/>
    <path d="m31 22v4h2.438c0 0 .563-.324.563-1.996 0-1.613-.621-2-.621-2h-2.375m-.004-.004" fill="#ff2d5b"/>
    <path d="m18 22l-4 2 4 1.996v-4m0 .004" fill="#ffc13d"/>
    <path d="m16 22.98l-1.996 1.02 1.996 1.016m0-2.035" fill="#2d2d2d"/>
  </g>
</svg>
