<svg viewBox="0 0 48 48" xmlns="http://www.w3.org/2000/svg" xmlns:xlink="http://www.w3.org/1999/xlink">
  <linearGradient id="a" gradientTransform="matrix(0 -1 1 0 -.0000015 47.999998)" gradientUnits="userSpaceOnUse" x1="1" x2="47">
    <stop offset="0" stop-color="#bd3c39"/>
    <stop offset="1" stop-color="#c64844"/>
  </linearGradient>
  <path d="m47 24c0 22.703-.297 23-23 23-22.703 0-23-.297-23-23 0-22.703.297-23 23-23 22.703 0 23 .297 23 23z" fill="url(#a)"/>
  <path d="m17 12c-1 0-2 .261-2 1v23c0 1.309 2 2 3 2l15.816-.002c.901 0 1.184-.314 1.184-1v-21.5c0-.82-.537-1.494-1.367-1.494h-14.633l-2-1.01 16 .006c.656 0-.77-1-1.426-1l-14.574-.006zm2 4h14v20h-14zm7 4.998l-3.625 4h-1.375v4h1.375l3.625 4zm1.309.5l-.367 1.102c0 0 3.059 1.016 3.059 4.148 0 3.133-3.059 4.148-3.059 4.148l.367 1.102c0 0 3.691-1.336 3.691-5.25 0-3.918-3.691-5.25-3.691-5.25zm-.418 2.188l-.215.641c0 0 1.574.596 1.574 2.424 0 1.824-1.574 2.418-1.574 2.418l.215.645c0 0 2.109-.781 2.109-3.063 0-2.285-2.109-3.064-2.109-3.064z" opacity=".1" transform=""/>
  <path d="m16 11c-1 0-2 .261-2 1v23c0 1.309 2 2 3 2l15.816-.002c.901 0 1.184-.314 1.184-1v-21.5c0-.82-.537-1.494-1.367-1.494h-14.633l-2-1.01 16 .006c.656 0-.77-1-1.426-1zm2 4h14v20h-14z" fill="#fffffb"/>
  <path d="m20 24v4h1.375l3.625 4v-12l-3.625 4m-1.375 0" fill="#fffffb"/>
  <path d="m25.891 22.688l-.215.641c0 0 1.574.594 1.574 2.422 0 1.824-1.574 2.418-1.574 2.418l.215.645c0 0 2.109-.781 2.109-3.063 0-2.285-2.109-3.063-2.109-3.063" fill="#fff"/>
  <path d="m26.309 20.5l-.367 1.102c0 0 3.058 1.016 3.058 4.148 0 3.133-3.058 4.148-3.058 4.148l.367 1.102c0 0 3.691-1.336 3.691-5.25 0-3.918-3.691-5.25-3.691-5.25" fill="#fff"/>
</svg>
