<svg viewBox="0 0 48 48" xmlns="http://www.w3.org/2000/svg" xmlns:xlink="http://www.w3.org/1999/xlink">
  <linearGradient id="a" gradientUnits="userSpaceOnUse" x2="0" y1="46.986" y2="1.014">
    <stop offset="0" stop-color="#6ed660"/>
    <stop offset="1" stop-color="#7dda70"/>
  </linearGradient>
  <path d="m36.31 5c5.859 4.062 9.688 10.831 9.688 18.5 0 12.426-10.07 22.5-22.5 22.5-7.669 0-14.438-3.828-18.5-9.688 1.037 1.822 2.306 3.499 3.781 4.969 4.085 3.712 9.514 5.969 15.469 5.969 22.703 0 23-10.298 23-23 0-5.954-2.256-11.384-5.969-15.469-1.469-1.475-3.147-2.744-4.969-3.781zm4.969 3.781c3.854 4.113 6.219 9.637 6.219 15.719 0 22.703-.297 23-23 23-6.081 0-11.606-2.364-15.719-6.219 4.16 4.144 9.883 6.719 16.219 6.719 22.703 0 23-10.298 23-23 0-6.335-2.575-12.06-6.719-16.219z" opacity=".05"/>
  <path d="m41.28 8.781c3.712 4.085 5.969 9.514 5.969 15.469 0 22.703-.297 23-23 23-5.954 0-11.384-2.256-15.469-5.969 4.113 3.854 9.637 6.219 15.719 6.219 22.703 0 23-10.298 23-23 0-6.081-2.364-11.606-6.219-15.719z" opacity=".1"/>
  <path d="m31.25 2.375c8.615 3.154 14.75 11.417 14.75 21.13 0 12.426-10.07 22.5-22.5 22.5-9.708 0-17.971-6.135-21.12-14.75a23 23 0 0 0 44.875-7 23 23 0 0 0-16-21.875z" opacity=".2"/>
  <path d="m24 1c22.703 0 23 .297 23 23s-.297 23-23 23-23-.297-23-23 .297-23 23-23z" fill="url(#a)"/>
  <path d="m20.12 12c-.597.04-1.235.571-1.775 1.777-.58 1.295-.795 2.596-.24 5.088l.244 1.092c-1.812 1.558-4.089 3.551-4.332 6.393-.306 3.595 3.525 6.266 6.965 5.43l.488 2.193c.241 1.082.08 2.57-.98 3.254-.52.336-2.345.565-2.822-.217.067.01.135.016.203.018.876.016 1.6-.658 1.617-1.506.017-.849-.68-1.549-1.557-1.564-.876-.015-1.599.66-1.615 1.508-.001.069.003.138.012.207.001.012.003.025.004.037.01.069.025.136.045.203.202.889 1.086 2.038 2.592 2.084 2.256.069 3.697-1.573 3.03-4.254l-.482-2.121c2.178-.857 3.258-4.054 1.863-5.732-1.092-1.314-2.368-1.654-3.5-1.455l-.613-2.693c1.247-1.414 2.303-2.937 2.709-4.84.575-2.698-.537-4.988-1.85-4.9zm.531 1.846c.192-.014.347.039.434.16.198.278.678 1.574-.688 3.898-.297.506-.907 1.064-1.625 1.686l-.146-.641c-.401-1.761-.101-2.716.113-3.285.428-1.139 1.337-1.776 1.912-1.818zm10.848 4.152c-3 0-4.5 1.525-4.5 5h3c0-2 1.5-2 1.5-2 0 0 1.5 0 1.5 1.5 0 2.956-3 .5-3 6.5h3c .012-4.5 3-2.149 3-7 0-3-1.5-4-4.5-4zm-12.65 4.209l.523 2.348c-2.524.84-3.963 4.401.002 5.689-.643-.482-1.082-.855-1.164-1.311-.298-1.667.503-2.543 1.521-2.764l1.123 5.04c-1.265.381-2.905.149-4.02-.814-1.497-1.294-2.163-3.788-.496-5.578.821-.882 1.695-1.73 2.51-2.613zm1.408 3.906c1.595-.009 3.343 1.397 2.281 3.764-.222.495-.648.862-1.17 1.117zm9.742 3.885v3h3v-3z" opacity=".1"/>
  <g fill="#25578f" transform="matrix(.42501 0 0 .40452 4.4641 8.5278)">
    <path d="m34.485 5.996c-1.404.098-2.902 1.406-4.173 4.389-1.364 3.202-1.876 6.417-.57 12.578l.574 2.704c-4.262 3.851-9.621 8.778-10.193 15.803-.719 8.886 8.295 15.488 16.387 13.423l1.149 5.422c.567 2.674.189 6.353-2.307 8.04-1.236.838-5.612 1.411-6.682-.589l-3.079-4.09c-.392 2.092 1.79 6.439 6.181 6.581 5.308.172 8.698-3.889 7.118-10.516l-1.135-5.248c5.124-2.12 7.665-10.02 4.384-14.166-2.569-3.249-5.571-4.093-8.235-3.602l-1.443-6.653c2.934-3.495 5.419-7.26 6.374-11.964 1.354-6.671-1.264-12.329-4.352-12.11m1.255 4.558c.451-.035.811.095 1.016.396.467.686 1.594 3.895-1.618 9.642-.699 1.25-2.134 2.629-3.823 4.167l-.345-1.584c-.943-4.353-.237-6.719.267-8.126 1.01-2.816 3.152-4.391 4.504-4.495zm-4.246 20.67l1.232 5.804c-5.938 2.076-9.324 10.88.005 14.06-1.514-1.192-2.546-2.113-2.739-3.24-.702-4.121 1.183-6.281 3.58-6.827l2.642 12.462c-2.977.942-6.835.373-9.457-2.01-3.523-3.199-5.088-9.364-1.167-13.789 1.931-2.18 3.988-4.282 5.905-6.465zm3.313 9.657c3.754-.022 7.866 3.459 5.368 9.309-.523 1.225-1.525 2.13-2.753 2.762l-2.615-12.07z"/>
    <ellipse cx="-30.461" cy="-63.51" rx="3.733" ry="3.797" transform="matrix(-.99982388 -.01876731 .01876731 -.99982388 0 0)"/>
  </g>
  <path d="m30.5 17c-3 0-4.5 1.525-4.5 5h3c0-2 1.5-2 1.5-2 0 0 1.5 0 1.5 1.5 0 2.956-3 .5-3 6.5h3c .012-4.5 3-2.149 3-7 0-3-1.5-4-4.5-4zm-1.5 12v3h3v-3z" fill="#25578f"/>
</svg>
