<svg xmlns="http://www.w3.org/2000/svg" viewBox="0 0 48 48">
 <defs>
  <linearGradient id="linearGradient4221" y1="47" x2="0" y2="1" gradientUnits="userSpaceOnUse">
   <stop style="stop-color:#ffa5a5;stop-opacity:1"/>
   <stop offset="1" style="stop-color:#ffb9b9;stop-opacity:1"/>
  </linearGradient>
 </defs>
 <g>
  
  
  
 </g>
 <g style="fill:url(#linearGradient4221);fill-opacity:1">
  <path d="m 24 1 c 22.703 0 23 0.297 23 23 c 0 22.703 -0.297 23 -23 23 -22.703 0 -23 -0.297 -23 -23 0 -22.703 0.297 -23 23 -23 z"/>
 </g>
 <g>
  
 </g>
 <g transform="translate(1,2)" style="fill:#000;opacity:0.1">
  <path d="m 25 10 -12 24 2 3 4 0 0.666 -3 10.668 0 l 0.666 3 l 4 0 2 -3 z" transform="translate(-1,-2)" style="stroke:none;fill-rule:evenodd"/>
 </g>
 <g transform="translate(0,1)">
  <path d="m 12 32 2 3 4 0 6 -27 z" style="fill:#ff2a2a;stroke:none;fill-rule:evenodd"/>
  <path d="m 36 32 -2 3 -4 0 -6 -27" style="fill:#ff2a2a;stroke:none;fill-rule:evenodd"/>
  <path d="m 12 32 12 -24 12 24" style="fill:#f55;opacity:0.7;stroke:none;fill-rule:evenodd"/>
  <path d="m 12 32 1.775 -3.55 16.938 -7.02 5.287 10.573" style="fill:#800000;opacity:0.1;stroke:none;fill-rule:evenodd"/>
 </g>
</svg>
