<svg viewBox="0 0 48 48" xmlns="http://www.w3.org/2000/svg" xmlns:xlink="http://www.w3.org/1999/xlink">
  <linearGradient id="a" gradientTransform="matrix(0 -1 1 0 -.0000015 47.999998)" gradientUnits="userSpaceOnUse" x1="1" x2="47">
    <stop offset="0" stop-color="#48a1e0"/>
    <stop offset="1" stop-color="#5aa9e3"/>
  </linearGradient>
  <path d="m47 24c0 22.703-.297 23-23 23-22.703 0-23-.297-23-23 0-22.703.297-23 23-23 22.703 0 23 .297 23 23z" fill="url(#a)"/>
  <g opacity=".1" transform="translate(1 1)">
    <path d="m9 30l-1 5h32l-1-5m-30 0"/>
    <path d="m13.328 26h3.344c.734 0 1.328.594 1.328 1.328v3.344c0 .734-.594 1.328-1.328 1.328h-3.344c-.73 0-1.328-.594-1.328-1.328v-3.344c0-.734.598-1.328 1.328-1.328m0 0"/>
    <path d="m22.328 26h3.344c.734 0 1.328.594 1.328 1.328v3.344c0 .734-.594 1.328-1.328 1.328h-3.344c-.73 0-1.328-.594-1.328-1.328v-3.344c0-.734.598-1.328 1.328-1.328m0 0"/>
    <path d="m31.33 26h3.352c.727 0 1.328.594 1.328 1.328v3.344c0 .734-.602 1.328-1.328 1.328h-3.352c-.727 0-1.32-.594-1.32-1.328v-3.344c0-.734.598-1.328 1.32-1.328m0 0"/>
  </g>
  <path d="m9 30l-1 5h32l-1-5m-30 0" fill="#2d2d2d"/>
  <path d="m13.328 26h3.344c.734 0 1.328.594 1.328 1.328v3.344c0 .734-.594 1.328-1.328 1.328h-3.344c-.73 0-1.328-.594-1.328-1.328v-3.344c0-.734.598-1.328 1.328-1.328m0 0" fill="#f9f9f9"/>
  <path d="m22.328 26h3.344c.734 0 1.328.594 1.328 1.328v3.344c0 .734-.594 1.328-1.328 1.328h-3.344c-.73 0-1.328-.594-1.328-1.328v-3.344c0-.734.598-1.328 1.328-1.328m0 0" fill="#f9f9f9"/>
  <path d="m31.33 26h3.352c.727 0 1.328.594 1.328 1.328v3.344c0 .734-.602 1.328-1.328 1.328h-3.352c-.727 0-1.32-.594-1.32-1.328v-3.344c0-.734.598-1.328 1.32-1.328m0 0" fill="#f9f9f9"/>
</svg>
