<svg viewBox="0 0 48 48" xmlns="http://www.w3.org/2000/svg" xmlns:xlink="http://www.w3.org/1999/xlink">
  <linearGradient id="a">
    <stop offset="0" stop-color="#e7a431"/>
    <stop offset="1" stop-color="#d6911a"/>
  </linearGradient>
  <linearGradient id="b" gradientTransform="matrix(0 -1 1 0 -.0000015 47.999998)" gradientUnits="userSpaceOnUse" x1="1" x2="47">
    <stop offset="0" stop-color="#eec37a"/>
    <stop offset="1" stop-color="#f0cb8c"/>
  </linearGradient>
  <radialGradient id="c" cx="15" cy="63.5" gradientTransform="matrix(1 0 0 .63321134 0 23.290335)" gradientUnits="userSpaceOnUse" r="15" xlink:href="#a"/>
  <radialGradient id="d" cx="14.999" cy="63.5" gradientTransform="matrix(1 0 0 .63321134 9.0007883 -16.709661)" gradientUnits="userSpaceOnUse" r="15" xlink:href="#a"/>
  <radialGradient id="e" cx="25.5" cy="60.5" gradientUnits="userSpaceOnUse" r="2.5" xlink:href="#a"/>
  <radialGradient id="f" cx="7.5" cy="55.5" gradientUnits="userSpaceOnUse" r="3.5" xlink:href="#a"/>
  <path d="m47 24c0 22.703-.297 23-23 23-22.703 0-23-.297-23-23 0-22.703.297-23 23-23 22.703 0 23 .297 23 23z" fill="url(#b)"/>
  <path d="m21.999 11l-1.365 3.947a3.5 3.5 0 0 0-3.135-1.947 3.5 3.5 0 0 0-3.205 2.098 17.04 4.99 29.747 0 0-1.336-.098 17.04 4.99 29.747 0 0-2.748 1.035 17.04 4.99 29.747 0 0  5.846 8.465 4.99 17.04 60.25 0 0-5.846 8.465 4.99 17.04 60.25 0 0  3.85.969l-1.061 3.066h5.6l1.471-4.643a4.99 17.04 60.25 0 0 3.213-1.357h3.434a17.04 4.99 29.747 0 0 3.213 1.357l1.471 4.643h5.6l-1.061-3.066a17.04 4.99 29.747 0 0 3.85-.969 17.04 4.99 29.747 0 0-5.844-8.471 4.99 17.04 60.25 0 0  .766-.625 2.5 2.5 0 0 0  .789.131 2.5 2.5 0 0 0  2.5-2.5 2.5 2.5 0 0 0-.096-.682 4.99 17.04 60.25 0 0  1.885-4.783 4.99 17.04 60.25 0 0-2.748-1.035 4.99 17.04 60.25 0 0-7.09 1.633l-1.951-5.633h-6zm3 5.416l.654 2.09a4.99 17.04 60.25 0 0-.654.33 17.04 4.99 29.747 0 0-.654-.328zm10.805.65a2.994 14.03 60.23 0 1 1.373.463 2.994 14.03 60.23 0 1-.523 1.756 2.5 2.5 0 0 0-1.154-.285 2.5 2.5 0 0 0-2.5 2.5 2.5 2.5 0 0 0  .25 1.086 2.994 14.03 60.23 0 1-.912.707 17.04 4.99 29.747 0 0-.109-.078l-1.65-4.766a2.994 14.03 60.23 0 1 5.227-1.383zm-21.756.008a3.5 3.5 0 0 0 3.451 2.926 3.5 3.5 0 0 0  1.504-.344l-1.23 3.555a4.99 17.04 60.25 0 0-.109.08 14.03 2.994 29.767 0 1-4.842-5.762 14.03 2.994 29.767 0 1  1.227-.455zm10.949 4.01a14.03 2.994 29.767 0 1 1.508.832 14.03 2.994 29.767 0 1  .264.154l1.23 3.934h-6l1.232-3.936a2.994 14.03 60.23 0 1  .262-.152 2.994 14.03 60.23 0 1  1.504-.832zm8.367 5.42a14.03 2.994 29.767 0 1 3.813 4.971 14.03 2.994 29.767 0 1-1.947.414l-1.865-5.385zm-16.73.002l-1.865 5.383a2.994 14.03 60.23 0 1-1.947-.414 2.994 14.03 60.23 0 1  3.813-4.969z" opacity=".1"/>
  <g transform="translate(9.0007883 -39.999996)">
    <path d="m12 50l-9 26h5.6l1.9-6h9l1.9 6h5.6l-9-26zm3 5.416l3 9.584h-6z" fill="#2a2a2a"/>
    <path d="m10.693 53.777l-2.156 6.225c1.013-.01 1.972-.459 2.629-1.23.775.324 1.595.704 2.436 1.109l.598-1.906c-.758-.351-1.507-.68-2.238-.975.025-.164.038-.33.039-.496 0-1.06-.481-2.062-1.307-2.727m9.686 3.096c-1.39.547-2.839 1.191-4.316 1.939l.875 2.795c.189.103.376.199.568.309 2.27 1.299 4.287 2.641 5.973 3.912l-1.104-3.189c-1.207-.831-2.48-1.656-3.863-2.447-.121-.069-.241-.129-.361-.197 1-.489 1.952-.91 2.863-1.287zm-6.871 3.307c-.007.004-.013.008-.02.012-2.462 1.41-4.676 2.913-6.537 4.393l-1.258 3.635c1.571-1.533 3.981-3.354 6.918-5.17z" opacity=".1"/>
    <path d="m2.959 54a17.04 4.99 29.747 0 0-2.748 1.035 17.04 4.99 29.747 0 0  6.85 9.234l.439-1.269.229-.66a14.03 2.994 29.767 0 1-4.906-5.813 14.03 2.994 29.767 0 1  13.684 4.383 14.03 2.994 29.767 0 1  10.672 9.559 14.03 2.994 29.767 0 1-1.947.414l.706 2.051a17.04 4.99 29.747 0 0 3.851-.969 17.04 4.99 29.747 0 0-12.277-12.775 17.04 4.99 29.747 0 0-14.553-5.19m13.758 16a17.04 4.99 29.747 0 0 3.213 1.357l-.43-1.357z" fill="url(#c)"/>
    <path d="m16.459 58.6c-.71.356-1.42.73-2.125 1.121.695.363 1.392.743 2.084 1.137.715-.377 1.426-.736 2.125-1.07-.341-.204-.685-.406-1.031-.604-.349-.199-.7-.393-1.053-.584z" opacity=".1"/>
    <path d="m36.04 14a4.99 17.04 60.25 0 0-14.552 5.19 4.99 17.04 60.25 0 0-12.277 12.775 4.99 17.04 60.25 0 0  3.849.969l.711-2.049a2.994 14.03 60.23 0 1-1.947-.414 2.994 14.03 60.23 0 1  10.672-9.559 2.994 14.03 60.23 0 1  13.684-4.383 2.994 14.03 60.23 0 1-4.84 5.766 17.04 4.99 29.747 0 1  1.592 1.209 4.99 17.04 60.25 0 0  5.857-8.464 4.99 17.04 60.25 0 0-2.749-1.04zm-16.54 16l-.43 1.359a4.99 17.04 60.25 0 0 3.213-1.359z" fill="url(#d)" transform="translate(-9.0007883 39.999996)"/>
    <circle cx="25.5" cy="60.5" fill="url(#e)" r="2.5"/>
    <circle cx="7.5" cy="55.5" fill="url(#f)" r="3.5"/>
  </g>
</svg>
