<svg viewBox="0 0 48 48" xmlns="http://www.w3.org/2000/svg" xmlns:xlink="http://www.w3.org/1999/xlink">
  <linearGradient id="a" gradientUnits="userSpaceOnUse" x2="0" y1="47" y2="1">
    <stop offset="0" stop-color="#f3ab2f"/>
    <stop offset="1" stop-color="#f4b242"/>
  </linearGradient>
  <path d="m47 24c0 22.703-.297 23-23 23-22.703 0-23-.297-23-23 0-22.703.297-23 23-23 22.703 0 23 .297 23 23z" fill="url(#a)"/>
  <path d="m19.73 35.953c-.941-.184-3.285-1.25-4.492-2.039-1.5-.984-3.543-2.945-3.855-3.703-.168-.402-.176-.594-.031-.91.18-.391.215-.398 1.223-.309l1.039.098.59-.848c.324-.469.531-.848.457-.848-.266 0-.66-1.102-.66-1.832 0-1.238.934-1.883 2.73-1.883.871 0 .988-.035.988-.297 0-.324-.895-2.969-1.785-5.273-.867-2.238-.875-2.289-.578-2.922.301-.645.438-.766 1.59-1.375.957-.512 1.738-.754 4.414-1.363 1.711-.395 2.125-.426 5.266-.438l3.406-.012.695.461c.938.621 1.242.977 1.238 1.457 0 .223-.211 1.238-.473 2.258-.262 1.023-.535 2.137-.613 2.477-.074.34-.277 1.141-.449 1.781-.453 1.672-.434 1.793.336 2.18.363.184.973.551 1.355.82.383.27 1.098.621 1.586.785.906.305 1.152.59.977 1.141-.059.191.082.465.43.836.285.301.785 1.078 1.109 1.723.52 1.035.578 1.266.496 1.941-.148 1.277-1.137 2.793-2.078 3.191-.863.359-3.047.457-3.961.168-.676-.211-.785-.207-1.199.027-.25.145-.453.313-.457.375 0 .063-.063.117-.137.117-.074 0-.867.344-1.762.762-2.625 1.234-3.363 1.441-5.301 1.488-.938.023-1.879.008-2.094-.035" opacity=".1" transform="translate(1 1)"/>
  <g transform="translate(.00033078)">
    <path d="m19.73 35.953c-.941-.184-3.285-1.25-4.492-2.039-1.5-.984-3.543-2.945-3.855-3.703-.168-.402-.176-.594-.031-.91.18-.391.215-.398 1.223-.309l1.039.098.59-.848c.324-.469.531-.848.457-.848-.266 0-.66-1.102-.66-1.832 0-1.238.934-1.883 2.73-1.883.871 0 .988-.035.988-.297 0-.324-.895-2.969-1.785-5.273-.867-2.238-.875-2.289-.578-2.922.301-.645.438-.766 1.59-1.375.957-.512 1.738-.754 4.414-1.363 1.711-.395 2.125-.426 5.266-.438l3.406-.012.695.461c.938.621 1.242.977 1.238 1.457 0 .223-.211 1.238-.473 2.258-.262 1.023-.535 2.137-.613 2.477-.074.34-.277 1.141-.449 1.781-.453 1.672-.434 1.793.336 2.18.363.184.973.551 1.355.82.383.27 1.098.621 1.586.785.906.305 1.152.59.977 1.141-.059.191.082.465.43.836.285.301.785 1.078 1.109 1.723.52 1.035.578 1.266.496 1.941-.148 1.277-1.137 2.793-2.078 3.191-.863.359-3.047.457-3.961.168-.676-.211-.785-.207-1.199.027-.25.145-.453.313-.457.375 0 .063-.063.117-.137.117-.074 0-.867.344-1.762.762-2.625 1.234-3.363 1.441-5.301 1.488-.938.023-1.879.008-2.094-.035m2.789-.676c.977-.156 1.762-.363 2.398-.629.172-.074.66-.246 1.086-.383.668-.219 2.465-.969 3.605-1.504.258-.121.668-.113 1.484.023 1.301.219 2.059.133 3.039-.34 1.492-.715 2.066-2.75 1.234-4.367-.414-.805-1.414-1.734-2-1.863-.215-.047-.563-.148-.777-.227-.297-.109-.199-.129.426-.086.703.047.789.023.625-.172-.148-.18-.41-.207-1.199-.129-1.809.176-1.98.234-2.242.762-.309.629-.539.906-1.012 1.23-.379.262-.371.266.66.266h1.043l.539.844c.297.461.543.98.543 1.148 0 .168-.262.52-.578.781-.566.465-.609.473-2.285.477-.938 0-2.23-.07-2.867-.16-.641-.086-2.348-.301-3.797-.473-1.449-.176-3.41-.414-4.363-.531-.953-.117-2.684-.262-3.844-.32l-2.117-.113.254.605c.141.332.41.777.605.988.195.215.488.535.652.715.664.734 3.109 2.313 4.867 3.141.898.422 2.539.551 4.02.316m8.02-4.707c.129-.113-.195-.551-.484-.648-.375-.129-.336-.129-.914.008-.32.074-.426.043-.426-.137 0-.324-1.473-.313-2.668.02-.711.199-.977.215-1.246.074-.34-.176-.34-.176.043-.105.375.074 1.422-.199 1.648-.426.168-.168 2.531-.125 2.531.051 0 .297 1.316.172 1.676-.16.621-.578.328-1.078-.633-1.078-1.293 0-7.289.801-9.559 1.281l-.848.176.539.117c.297.063 1.027.125 1.625.141.594.012 1.121.082 1.168.16.078.121 2.281.473 4.098.652.578.059 3.355-.043 3.449-.125m-9.18-1.73c.852-.133 2.035-.289 2.633-.348.594-.055 1.223-.184 1.391-.285.25-.148.262-.188.059-.191-.305-.004-1.684-.758-1.684-.922 0-.063-.316-.277-.707-.48-.781-.398-2.035-.488-2.402-.172-.121.105-.359.297-.531.426-.215.164-.25.262-.113.316.324.137.215.391-.156.348-.191-.02-.598.07-.906.203-.852.371-1.68.461-2.609.281l-.844-.16-.59.574c-.324.316-.586.641-.586.719 0 .211 5.16-.016 7.05-.309m-2.559-1.563c.215-.129.492-.332.621-.449.129-.117.406-.344.621-.508.543-.422.313-.727-1.121-1.461-2.199-1.129-4.27-.906-4.551.484-.113.574.281 1.469.801 1.809.828.543 2.844.613 3.629.125m9.484.199c.695-.289 1.449-1.152 1.684-1.926.207-.691.387-.773 1.766-.805.512-.012 1.137-.066 1.395-.125l.465-.109-.465-.098c-.258-.055-.957-.141-1.559-.195-1.039-.094-1.102-.082-1.254.258l-.16.359-.203-.387c-.285-.535-.949-1.078-1.316-1.078-.66.004-2.051.297-2.895.613-1.223.461-2.602 1.5-2.602 1.965 0 .199.055.363.129.363.07 0 .438.234.813.52.375.289.891.598 1.148.684.691.242 2.438.219 3.055-.039m-5.609-1.863c0-.18-.207-.23-.93-.23-.723 0-.93.051-.93.23 0 .184.207.234.93.234.723 0 .93-.051.93-.234m.895-.926c.859-.797 2.758-1.508 4.602-1.719.656-.078.859-.031 1.332.289.496.34 2 .727 2 .512 0-.188-1.391-.793-2.402-1.051-2.086-.523-3.941-.289-5.547.699-1.758 1.082-1.867 1.117-2.684.805-.402-.152-.895-.363-1.102-.473-.375-.195-1.105-.102-1.129.145-.008.074.367.352.84.617.77.438.992.488 2.277.508 1.293.023 1.457-.008 1.813-.332m0 0" fill="#900000"/>
    <path d="m25.801 27.1c-.461-.086-1.141-.422-1.359-.668-.125-.141-.168-.25-.168-.395 0-.176.043-.242.344-.531.801-.77 2.137-1.289 3.324-1.285.75 0 1.063.203 1.238.805.113.387.078.809-.086 1.074-.102.164-.238.258-.734.496-.977.477-1.824.641-2.559.504m0 0" fill="#ffd60a"/>
    <path d="m16.305 26.949c-.266-.055-.617-.152-.781-.219-.273-.113-.313-.148-.434-.426-.098-.219-.137-.406-.141-.691-.012-.645.109-.734 1.121-.855.883-.109 1.602.059 2.309.527.688.457.805.66.594 1.063-.133.258-.695.59-1.07.629-.715.074-1.133.066-1.598-.027m0 0" fill="#ffd60a"/>
    <path d="m16.715 27.578c-.887-.109-1.559-.363-1.844-.699-.078-.094-.219-.332-.313-.527-.145-.301-.168-.418-.168-.766 0-.457.074-.641.367-.934.316-.316.699-.449 1.363-.477.953-.039 1.668.141 2.816.707.691.344 1.117.629 1.301.883.152.207.082.32-.496.785-.801.648-1.01.785-1.367.895-.344.105-1.266.18-1.66.133m1.191-.598c.242-.023.578-.172.852-.375.297-.219.398-.598.227-.84-.125-.18-.73-.598-1.129-.777-.621-.281-1.281-.344-2.109-.195-.723.125-.801.207-.793.828.004.539.168.918.457 1.063.199.102.918.293 1.277.34.172.023.816 0 1.219-.043m0 0" fill="#dd454e"/>
    <path d="m21.238 25.813c-.379-.039-.504-.16-.344-.32.082-.082.199-.098.766-.098.809 0 .969.035.969.215 0 .07-.039.145-.086.164-.141.055-.953.078-1.305.039m0 0" fill="#f2eec3"/>
    <path d="m25.641 27.605c-.395-.066-.957-.344-1.531-.766-.258-.188-.563-.391-.684-.457-.242-.125-.32-.324-.234-.59.117-.344 1.246-1.215 2.082-1.598.848-.391 2.129-.719 3.035-.777.492-.035.508-.031.766.133.344.223.613.508.879.926l.211.344.148-.301c.109-.223.184-.309.297-.336.258-.063 2.797.227 2.902.332.047.047-.742.148-1.602.199-1.109.066-1.465.129-1.645.289-.074.066-.219.324-.324.57-.266.645-.434.914-.82 1.293-.426.422-.789.617-1.32.719-.457.086-1.664.098-2.16.02m1.699-.602c.227-.063.684-.242 1.02-.406.496-.242.633-.332.734-.496.168-.27.199-.688.086-1.078-.191-.656-.527-.836-1.473-.789-1.211.063-2.504.617-3.203 1.371-.297.324-.313.543-.059.828.199.227.926.598 1.332.68.371.074 1.063.027 1.563-.109m0 0" fill="#dd454e"/>
    <path d="m26.434 30.609c-1.848-.234-3.051-.438-3.48-.586-.207-.074-.59-.121-1.273-.164-1.027-.063-1.73-.152-1.805-.223-.145-.137 5.934-1.066 8.949-1.367 1.379-.141 2.074-.043 2.16.297.043.176-.051.41-.242.594-.387.371-1.449.52-1.73.238-.117-.117-.637-.16-1.594-.137-.762.02-.836.031-1.094.168-.379.203-.855.32-1.328.324-.215 0-.395.012-.395.023 0 .012.074.059.168.105.242.125.656.109 1.285-.051 1.367-.344 2.527-.34 2.656.004.051.133.07.141.328.105.797-.098.781-.098 1.039.031.254.133.527.469.445.551-.133.133-3.215.199-4.09.086m0 0" fill="#eeebc3"/>
    <path d="m19.957 35.32c-1.016-.145-1.742-.449-3.359-1.414-2.418-1.441-3.66-2.574-4.23-3.852-.117-.262-.203-.492-.188-.504.027-.027 1.32.035 2.813.137 1.82.121 3.199.273 9.117 1.01 2.891.359 3.887.434 5.418.402 1.359-.027 1.391-.035 1.961-.563.402-.371.523-.598.453-.844-.063-.219-.352-.75-.754-1.387l-.301-.48h-.953c-.523 0-.953-.016-.949-.039 0-.023.129-.137.289-.25.332-.238.633-.605.918-1.125.156-.289.242-.383.438-.48.281-.145 1.18-.281 2.133-.328.59-.031.637-.023.777.09.25.195.145.234-.512.191-.355-.023-.598-.02-.598.012 0 .027.293.141.645.25.527.168.711.254 1.02.484.449.34.992.961 1.234 1.41.5.941.512 2.289.02 3.195-.223.41-.727.922-1.109 1.125-.926.496-1.695.59-3.219.395-.648-.082-.961-.098-1.148-.063-.145.027-.715.25-1.273.496-1.301.574-1.797.77-3.219 1.277-1.266.449-1.75.59-2.641.75-.66.121-2.242.18-2.781.105m0 0" fill="#c2b26b"/>
    <path d="m14.379 29.16c-.078-.059.359-.582.852-1.023l.281-.258.668.113c1.125.191 1.641.145 2.781-.242.313-.105.656-.191.766-.191.457-.004.586-.133.348-.359l-.148-.141.246-.215c.137-.121.332-.277.441-.352.684-.48 2.328-.152 3.145.629.281.266 1.117.742 1.5.855l.293.086-.156.098c-.266.164-.402.184-4.266.684-.57.074-1.617.172-2.328.219-1.539.105-4.324.164-4.422.098m0 0" fill="#d0c542"/>
    <path d="m20.449 24.895c-.52-.105-1.727-.793-1.73-.984 0-.148.391-.27.711-.219.152.023.508.145.785.27.281.125.699.289.934.363.402.125.445.125.766.004.188-.074.742-.359 1.227-.641 1.59-.918 2.172-1.109 3.555-1.164 1.137-.051 1.996.074 3.109.445 1.098.367 1.977.844 1.555.844-.332 0-1.391-.324-1.793-.555-.574-.324-.828-.371-1.535-.285-1.418.172-3.109.746-3.996 1.363-.293.203-.625.43-.738.504-.172.113-.379.133-1.363.125-.641-.004-1.309-.035-1.484-.07m0 0" fill="#d0c542"/>
    <path d="m21.08 25.797c-.223-.051-.313-.207-.172-.313.145-.105 1.496-.113 1.641-.008.145.109.09.277-.105.32-.211.043-1.156.043-1.363 0m0 0" fill="#de464e"/>
  </g>
</svg>
