<svg xmlns="http://www.w3.org/2000/svg" viewBox="0 0 48 48">
 <defs>
  <linearGradient id="linearGradient3764" x1="1" x2="47" gradientUnits="userSpaceOnUse" gradientTransform="matrix(0,-1,1,0,-1.5e-6,47.999998)">
   <stop style="stop-color:#333;stop-opacity:1"/>
   <stop offset="1" style="stop-color:#3d3d3d;stop-opacity:1"/>
  </linearGradient>
 </defs>
 <g>
  
  
  
 </g>
 <g>
  <path d="m 47,24 C 47,46.703 46.703,47 24,47 1.297,47 1,46.703 1,24 1,1.297 1.297,1 24,1 46.703,1 47,1.297 47,24 z" style="fill:url(#linearGradient3764);fill-opacity:1"/>
 </g>
 <g>
  <g>
   <g transform="translate(1,1)">
    <g style="opacity:0.1">
     <!-- color: #3d3d3d -->
     <g>
      <path d="m 29 13 -15 4 0 16 15 4 7 -3 0 -18 z m -5 7.316 0 9.02 l -2 -0.334 0 -8.359" transform="translate(-1,-1)"/>
     </g>
    </g>
   </g>
  </g>
 </g>
 <g>
  <g>
   <!-- color: #3d3d3d -->
   <g>
    <path d="M 21,19.633 25,19 23,16 16,19.91 m 5,-0.277" style="fill:#4980c1;fill-opacity:1;stroke:none;fill-rule:nonzero"/>
    <path d="m 17 28 4 0 6 1 -5 1 -5 -1 m 0 -1" style="fill:#4980c1;fill-opacity:1;stroke:none;fill-rule:nonzero"/>
    <path d="m 16 19.641 5 0 0 8.359 -5 0 m 0 -8.359" style="fill:#b9cfe5;fill-opacity:1;stroke:none;fill-rule:nonzero"/>
    <path d="m 28 12 -15 4 0 16 15 4 m -5 -17.18 0 10.16 -6 -0.984 -0.031 -8.379 m 6.03 -0.797" style="fill:#709ccf;fill-opacity:1;stroke:none;fill-rule:nonzero"/>
    <path d="m 28 12 7 3 0 18 -7 3 m 0 -24" style="fill:#b9cfe5;fill-opacity:1;stroke:none;fill-rule:nonzero"/>
   </g>
  </g>
 </g>
 <g>
  
 </g>
</svg>
