<svg viewBox="0 0 48 48" xmlns="http://www.w3.org/2000/svg" xmlns:xlink="http://www.w3.org/1999/xlink">
  <linearGradient id="a" gradientTransform="matrix(0 -1 1 0 -.0000015 47.999998)" gradientUnits="userSpaceOnUse" x1="1" x2="47">
    <stop offset="0" stop-color="#48a1e0"/>
    <stop offset="1" stop-color="#5aa9e3"/>
  </linearGradient>
  <path d="m47 24c0 22.703-.297 23-23 23-22.703 0-23-.297-23-23 0-22.703.297-23 23-23 22.703 0 23 .297 23 23z" fill="url(#a)"/>
  <path d="m25 11.01c-3.879 0-7 3.117-7 6.992 0 3.875 3.121 6.988 7 6.988 3.875 0 7-3.113 7-6.988 0-3.875-3.121-6.992-7-6.992zm0 1.52c3.035 0 5.477 2.443 5.477 5.475 0 3.035-2.445 5.477-5.477 5.477-3.039 0-5.48-2.441-5.48-5.477 0-3.03 2.445-5.475 5.48-5.475zm-1.854 3.354c-.071 0-.141.026-.193.078l-.004.004c-.109.11-.109.282 0 .391l1.221 1.221c-.062.134-.094.28-.084.434.015.257.143.478.328.633l-1.68 3.092c-.039.074-.015.164.055.207.066.043.152.019.195-.055l1.678-3.088c.104.041.217.063.334.063.373 0 .691-.224.834-.545h3.143c.16 0 .285-.129.285-.285v-.043c0-.156-.125-.281-.285-.281h-3.102c-.062-.219-.2-.411-.402-.533-.282-.18-.635-.181-.924-.001l-1.201-1.203c-.055-.053-.126-.078-.197-.078zm-8.818 11.12c-.73 0-1.328.594-1.328 1.328v2.672h-3l-1 5h32l-1-5h-2.99v-2.672c0-.734-.601-1.328-1.328-1.328h-3.352c-.722 0-1.32.594-1.32 1.328v2.672h-3.01v-2.672c0-.734-.594-1.328-1.328-1.328h-3.344c-.73 0-1.328.594-1.328 1.328v2.672h-3v-2.672c0-.734-.594-1.328-1.328-1.328z" opacity=".1" transform=""/>
  <path d="m9 30l-1 5h32l-1-5m-30 0" fill="#2d2d2d"/>
  <path d="m13.328 26h3.344c.734 0 1.328.594 1.328 1.328v3.344c0 .734-.594 1.328-1.328 1.328h-3.344c-.73 0-1.328-.594-1.328-1.328v-3.344c0-.734.598-1.328 1.328-1.328m0 0" fill="#f9f9f9"/>
  <path d="m22.328 26h3.344c.734 0 1.328.594 1.328 1.328v3.344c0 .734-.594 1.328-1.328 1.328h-3.344c-.73 0-1.328-.594-1.328-1.328v-3.344c0-.734.598-1.328 1.328-1.328m0 0" fill="#f9f9f9"/>
  <path d="m31.33 26h3.352c.727 0 1.328.594 1.328 1.328v3.344c0 .734-.602 1.328-1.328 1.328h-3.352c-.727 0-1.32-.594-1.32-1.328v-3.344c0-.734.598-1.328 1.32-1.328m0 0" fill="#f9f9f9"/>
  <path d="m24 10.01c-3.879 0-7 3.117-7 6.992 0 3.875 3.121 6.988 7 6.988 3.875 0 7-3.113 7-6.988 0-3.875-3.121-6.992-7-6.992m0 1.52c3.035 0 5.477 2.441 5.477 5.473 0 3.035-2.445 5.477-5.477 5.477-3.039 0-5.48-2.441-5.48-5.477 0-3.03 2.445-5.473 5.48-5.473m0 0" fill="#fff" fill-rule="evenodd"/>
  <path d="m23.523 16.93l-1.574-1.574c-.109-.109-.109-.281 0-.391l.004-.004c.105-.105.281-.105.391 0l1.574 1.578c.109.105.109.281 0 .391-.109.109-.285.109-.395 0m0 0" fill="#fff"/>
  <path d="m23.977 16.707h3.996c.16 0 .285.125.285.281v.043c0 .156-.125.285-.285.285h-3.996c-.156 0-.281-.129-.281-.285v-.043c0-.156.125-.281.281-.281m0 0" fill="#fff"/>
  <path d="m21.734 20.734l2.148-3.953c.039-.074.129-.098.195-.055.07.043.094.133.055.207l-2.148 3.953c-.043.074-.129.098-.195.055-.07-.043-.094-.133-.055-.207m0 0" fill="#fff"/>
  <path d="m24.91 17.01c-.031.477-.43.852-.914.852-.48 0-.883-.375-.91-.852-.023-.34.148-.66.438-.836.293-.184.656-.184.945 0 .293.176.461.496.441.836m0 0" fill="#fff"/>
</svg>
