<svg viewBox="0 0 48 48" xmlns="http://www.w3.org/2000/svg" xmlns:xlink="http://www.w3.org/1999/xlink">
  <linearGradient id="a" gradientTransform="matrix(0 -1 1 0 -.0000015 47.999998)" gradientUnits="userSpaceOnUse" x1="1" x2="47">
    <stop offset="0" stop-color="#48a1e0"/>
    <stop offset="1" stop-color="#5aa9e3"/>
  </linearGradient>
  <path d="m47 24c0 22.703-.297 23-23 23-22.703 0-23-.297-23-23 0-22.703.297-23 23-23 22.703 0 23 .297 23 23z" fill="url(#a)"/>
  <path d="m24.832 11c-3.5 0-1.75 2.914-1.75 2.914h-4.082v4.082c0 0 2.918-2.023 2.918 1.461 0 3.496-2.918 1.461-2.918 1.461v4.082h4.082c0 0-1.398-2.918 1.75-2.918 3.223 0 1.75 2.918 1.75 2.918h4.082v-4.082c0 0 2.336 1.457 2.336-1.461 0-2.336-1.168-2.039-2.336-1.461v-4.082h-4.082c0 0 1.75-2.914-1.75-2.914zm-10.504 16c-.73 0-1.328.594-1.328 1.328v2.672h-3l-1 5h32l-1-5h-2.99v-2.672c0-.734-.601-1.328-1.328-1.328h-3.352c-.722 0-1.32.594-1.32 1.328v2.672h-3.01v-2.672c0-.734-.594-1.328-1.328-1.328h-3.344c-.73 0-1.328.594-1.328 1.328v2.672h-3v-2.672c0-.734-.594-1.328-1.328-1.328z" opacity=".1" transform=""/>
  <path d="m9 30l-1 5h32l-1-5m-30 0" fill="#2d2d2d"/>
  <path d="m13.328 26h3.344c.734 0 1.328.594 1.328 1.328v3.344c0 .734-.594 1.328-1.328 1.328h-3.344c-.73 0-1.328-.594-1.328-1.328v-3.344c0-.734.598-1.328 1.328-1.328m0 0" fill="#f9f9f9"/>
  <path d="m22.328 26h3.344c.734 0 1.328.594 1.328 1.328v3.344c0 .734-.594 1.328-1.328 1.328h-3.344c-.73 0-1.328-.594-1.328-1.328v-3.344c0-.734.598-1.328 1.328-1.328m0 0" fill="#f9f9f9"/>
  <path d="m31.33 26h3.352c.727 0 1.328.594 1.328 1.328v3.344c0 .734-.602 1.328-1.328 1.328h-3.352c-.727 0-1.32-.594-1.32-1.328v-3.344c0-.734.598-1.328 1.32-1.328m0 0" fill="#f9f9f9"/>
  <path d="m18 12.914v4.082c0 0 2.918-2.023 2.918 1.461 0 3.496-2.918 1.461-2.918 1.461v4.082h4.082c0 0-1.398-2.918 1.75-2.918 3.223 0 1.75 2.918 1.75 2.918h4.082v-4.082c0 0 2.336 1.457 2.336-1.461 0-2.336-1.168-2.039-2.336-1.461v-4.082h-4.082c0 0 1.75-2.914-1.75-2.914-3.5 0-1.75 2.914-1.75 2.914m-4.082 0" fill="#fff"/>
</svg>
