<svg viewBox="0 0 48 48" xmlns="http://www.w3.org/2000/svg" xmlns:xlink="http://www.w3.org/1999/xlink">
  <linearGradient id="a" gradientUnits="userSpaceOnUse" x1="1" x2="47">
    <stop offset="0" stop-color="#2f3890"/>
    <stop offset="1" stop-color="#343ea0"/>
  </linearGradient>
  <path d="m24 1c22.703 0 23 .297 23 23 0 22.703-.297 23-23 23-22.703 0-23-.297-23-23 0-22.703.297-23 23-23z" fill="url(#a)" transform="matrix(0 -1 1 0 0 48)"/>
  <path d="m707 1295c-144-39-188-84-227-230-34-123-50-146-136-188-71-35-74-38-74-71 0-19 4-38 10-41 6-4 1-18-12-36l-22-29-21 20c-12 11-28 20-36 20-25 0-66-51-98-120-17-40-42-74-61-88-26-20-31-29-25-50 10-44 59-82 105-82 38 0 80-26 80-49 0-6 13-18 29-27 16-10 37-34 47-55 20-46 95-122 141-144 18-9 66-23 106-31 39-8 102-28 139-45 73-33 138-48 138-32 0 15-20 29-62 42-46 15-68 39-47 51 8 5 34 12 59 15 108 15 224 65 202 87-7 7-27 4-65-10l-55-21-6 31c-8 42-71 99-132 121-28 10-61 25-73 33l-22 16 46 41c57 50 85 93 115 177 13 36 27 69 32 74 12 15 62-38 88-94 13-28 20-53 16-57-4-5-37-10-72-13-35-3-64-9-64-15 0-6 41-13 93-16 51-4 88.56-6.531 124.57-6.715 115.58 4.364 146.97 32.496 191.77 36.17 99.97 8.22 101.51 33.508 91.8 49.618-23.715 39.34-60.53-14.257-79.21-19.226-20.06-5.335-119.94-11.512-123.29-3.557-6.528 15.504 13.681 68.812 48.41 91.18 57.46 37.01 79.54 89.85 28.548 94.8-22.342 2.167-51.575-32.457-54.56-68.68-2.674-32.436-63.56-95.58-83.5-91.51-10.921 2.229-20.568 11.233-31.539 21.915-45 43-63 88-83 204-9 48-7 55 24 105 78 126 58 364-35 407-30 14-95 12-155-4z" fill-opacity=".118" transform="matrix(.01993813 0 0 -.02009259 12.614811 39.451231)"/>
  <path d="m707 1295c-144-39-188-84-227-230-34-123-50-146-136-188-71-35-74-38-74-71 0-19 4-38 10-41 6-4 1-18-12-36l-22-29-21 20c-12 11-28 20-36 20-25 0-66-51-98-120-17-40-42-74-61-88-26-20-31-29-25-50 10-44 59-82 105-82 38 0 80-26 80-49 0-6 13-18 29-27 16-10 37-34 47-55 20-46 95-122 141-144 18-9 66-23 106-31 39-8 102-28 139-45 73-33 138-48 138-32 0 15-20 29-62 42-46 15-68 39-47 51 8 5 34 12 59 15 108 15 224 65 202 87-7 7-27 4-65-10l-55-21-6 31c-8 42-71 99-132 121-28 10-61 25-73 33l-22 16 46 41c57 50 85 93 115 177 13 36 27 69 32 74 12 15 62-38 88-94 13-28 20-53 16-57-4-5-37-10-72-13-35-3-64-9-64-15 0-6 41-13 93-16 51-4 88.56-6.531 124.57-6.715 115.58 4.364 146.97 32.496 191.77 36.17 99.97 8.22 101.51 33.508 91.8 49.618-23.715 39.34-60.53-14.257-79.21-19.226-20.06-5.335-119.94-11.512-123.29-3.557-6.528 15.504 13.681 68.812 48.41 91.18 57.46 37.01 79.54 89.85 28.548 94.8-22.342 2.167-51.575-32.457-54.56-68.68-2.674-32.436-63.56-95.58-83.5-91.51-10.921 2.229-20.568 11.233-31.539 21.915-45 43-63 88-83 204-9 48-7 55 24 105 78 126 58 364-35 407-30 14-95 12-155-4z" fill="#6fa3e1" transform="matrix(.01993813 0 0 -.02009259 11.614918 38.451231)"/>
</svg>
