<svg xmlns="http://www.w3.org/2000/svg" viewBox="0 0 48 48">
 <defs>
  <linearGradient id="linearGradient3764" x1="1" x2="47" gradientUnits="userSpaceOnUse" gradientTransform="matrix(0,-1,1,0,-1.5e-6,47.999998)">
   <stop style="stop-color:#333;stop-opacity:1"/>
   <stop offset="1" style="stop-color:#3d3d3d;stop-opacity:1"/>
  </linearGradient>
 </defs>
 <g>
  
  
  
 </g>
 <g>
  <path d="m 47,24 C 47,46.703 46.703,47 24,47 1.297,47 1,46.703 1,24 1,1.297 1.297,1 24,1 46.703,1 47,1.297 47,24 z" style="fill:url(#linearGradient3764);fill-opacity:1"/>
 </g>
 <g>
  
 </g>
 <g transform="translate(0,1)">
  <path d="m 14.11 12.5 c -0.345 0 -0.695 0.06 -0.965 0.33 -0.391 0.391 -0.564 0.943 -0.713 1.619 -0.149 0.676 -0.243 1.482 -0.307 2.346 c -0.127 1.728 -0.127 3.69 -0.127 5.205 c 0 5.598 1.662 9.614 4.137 12.219 c 2.474 2.604 5.738 3.781 8.863 3.781 3.125 0 6.389 -1.177 8.863 -3.781 2.474 -2.604 4.137 -6.62 4.137 -12.219 c 0 -1.5 0 -3.463 -0.127 -5.195 -0.064 -0.866 -0.157 -1.674 -0.307 -2.352 -0.149 -0.678 -0.321 -1.231 -0.713 -1.623 c -0.27 -0.27 -0.619 -0.329 -0.965 -0.33 -0.345 0 -0.722 0.064 -1.139 0.172 -0.833 0.215 -1.821 0.608 -2.84 1.094 -1.95 0.93 -3.905 2.171 -5.04 3.234 l -3.75 0 c -1.13 -1.064 -3.085 -2.304 -5.04 -3.234 -1.019 -0.486 -2.01 -0.879 -2.84 -1.094 -0.416 -0.107 -0.793 -0.173 -1.139 -0.172 m 0.004 1 c 0.209 0 0.52 0.045 0.885 0.139 0.73 0.188 1.679 0.562 2.66 1.029 1.961 0.936 4.08 2.279 4.986 3.186 a 0.5 0.5 0 0 0 0.354 0.146 l 4 0 a 0.5 0.5 0 0 0 0.354 -0.146 c 0.906 -0.906 3.02 -2.25 4.986 -3.186 c 0.981 -0.468 1.931 -0.841 2.66 -1.029 0.365 -0.094 0.676 -0.14 0.885 -0.139 c 0.209 0 0.281 0.057 0.262 0.037 0.108 0.108 0.311 0.533 0.443 1.133 0.132 0.6 0.226 1.371 0.287 2.209 c 0.123 1.676 0.123 3.621 0.123 5.121 0 5.402 -1.588 9.136 -3.863 11.531 -2.276 2.396 -5.262 3.469 -8.137 3.469 -2.875 0 -5.861 -1.073 -8.137 -3.469 -2.276 -2.396 -3.863 -6.13 -3.863 -11.531 c 0 -1.515 0 -3.461 0.123 -5.133 0.061 -0.836 0.155 -1.604 0.287 -2.201 0.132 -0.598 0.334 -1.02 0.443 -1.129 -0.02 0.02 0.053 -0.036 0.262 -0.037 z m 5.635 6 a 4.5 5 0 0 0 -4.5 5 4.5 5 0 0 0 4.5 5 4.5 5 0 0 0 4.5 -5 4.5 5 0 0 0 -4.5 -5 z m 10.5 0 a 4.5 5 0 0 0 -4.5 5 4.5 5 0 0 0 4.5 5 4.5 5 0 0 0 4.5 -5 4.5 5 0 0 0 -4.5 -5 z m -10.5 2 a 2.5 3 0 0 1 2.5 3 2.5 3 0 0 1 -2.5 3 2.5 3 0 0 1 -2.5 -3 2.5 3 0 0 1 2.5 -3 z m 10.5 0 a 2.5 3 0 0 1 2.5 3 2.5 3 0 0 1 -2.5 3 2.5 3 0 0 1 -2.5 -3 2.5 3 0 0 1 2.5 -3 z m -5.25 8.498 c -1.313 0 -2.625 0.363 -2.625 1.088 0 1.45 1.175 2.625 2.625 2.625 1.45 0 2.625 -1.175 2.625 -2.625 0 -0.725 -1.312 -1.088 -2.625 -1.088 z" style="fill:#000;opacity:0.1;fill-opacity:1"/>
  <path d="m 26.625 30.09 c 0 1.45 -1.175 2.625 -2.625 2.625 -1.45 0 -2.625 -1.175 -2.625 -2.625 0 -1.45 5.25 -1.45 5.25 0 z" style="fill:#f9f9f9;fill-opacity:1"/>
  <path d="m 18.75 18.5 a 4.5 5 0 0 0 -4.5 5 4.5 5 0 0 0 4.5 5 4.5 5 0 0 0 4.5 -5 4.5 5 0 0 0 -4.5 -5 z m 0 2 a 2.5 3 0 0 1 2.5 3 2.5 3 0 0 1 -2.5 3 2.5 3 0 0 1 -2.5 -3 2.5 3 0 0 1 2.5 -3 z" style="fill:#f9f9f9;fill-opacity:1;stroke:none;fill-rule:evenodd"/>
  <path d="m 29.25 18.5 a 4.5 5 0 0 0 -4.5 5 4.5 5 0 0 0 4.5 5 4.5 5 0 0 0 4.5 -5 4.5 5 0 0 0 -4.5 -5 z m 0 2 a 2.5 3 0 0 1 2.5 3 2.5 3 0 0 1 -2.5 3 2.5 3 0 0 1 -2.5 -3 2.5 3 0 0 1 2.5 -3 z" style="fill:#f9f9f9;fill-opacity:1;stroke:none;fill-rule:evenodd"/>
  <path d="m 12.5 12.184 c -1 1 -1 5.786 -1 8.816 0 11 6.5 15.5 12.5 15.5 6 0 12.5 -4.5 12.5 -15.5 0 -3 0 -7.816 -1 -8.816 -1 -1 -7.5 2.316 -9.5 4.316 l -4 0 c -2 -2 -8.5 -5.316 -9.5 -4.316 z" style="stroke-dasharray:none;stroke-opacity:1;fill:none;stroke-miterlimit:4;stroke:#f9f9f9;fill-rule:evenodd;stroke-linecap:butt;stroke-linejoin:round;stroke-width:1"/>
 </g>
</svg>
