<svg viewBox="0 0 48 48" xmlns="http://www.w3.org/2000/svg" xmlns:xlink="http://www.w3.org/1999/xlink">
  <linearGradient id="a" gradientUnits="userSpaceOnUse" x1="1" x2="47">
    <stop offset="0" stop-color="#b86a64"/>
    <stop offset="1" stop-color="#be7772"/>
  </linearGradient>
  <path d="m24 1c22.703 0 23 .297 23 23 0 22.703-.297 23-23 23-22.703 0-23-.297-23-23 0-22.703.297-23 23-23z" fill="url(#a)" transform="matrix(0 -1 1 0 0 48)"/>
  <g opacity=".1" transform="translate(1 1)">
    <path d="m16 13c0 0-1 0-1 1v22c0 0 0 1 1 1h18c0 0 .996 0 .996-1v-3h1.441c0 0 .564-.328.564-2 0-1.609-.625-1.996-.625-1.996h-1.381v-8l-8-8c-3.711-.004-8.742-.004-10.996-.004z" transform="translate(-1 -1)"/>
    <path d="m34 20l-8-8c-.004 4 0 6 0 7 0 1 0 1 1 1 1 0 4.098.008 7 0m0 0"/>
    <path d="m18 28.984l-2 1.016 2 1.02m0-2.035"/>
  </g>
  <path d="m15 12c0 0-1 0-1 1v22c0 0 0 1 1 1h18c0 0 .996 0 .996-1v-14.996l-8-8c-3.711-.004-8.742-.004-10.996-.004m0 .004" fill="#f9f9f9"/>
  <path d="m19 21v1h10v-1m-10 0" fill="#aaa"/>
  <path d="m19 23v1h10v-1m-10 0" fill="#aaa"/>
  <path d="m19 25v1h10v-1m-10 0" fill="#aaa"/>
  <path d="m34 20l-8-8c-.004 4 0 6 0 7 0 1 0 1 1 1 1 0 4.098.008 7 0m0 0" fill="#dedede"/>
  <path d="m19.965 28h13.773v4h-13.773m0-4" fill="#aaa"/>
  <path d="m33 28v4h2.438c0 0 .563-.328.563-2 0-1.609-.625-1.996-.625-1.996h-2.371m-.004-.004" fill="#333"/>
  <path d="m20 28l-2 .998v-.014l-1.555.789-.445.223.004.002-.004.002 2 1.02v-.023l2 1v .004h3v-4h-3z" fill="#333"/>
</svg>
