<svg viewBox="0 0 48 48" xmlns="http://www.w3.org/2000/svg" xmlns:xlink="http://www.w3.org/1999/xlink">
  <linearGradient id="a" gradientUnits="userSpaceOnUse" x2="0" y1="47" y2="1">
    <stop offset="0" stop-color="#f8e653"/>
    <stop offset="1" stop-color="#f9e967"/>
  </linearGradient>
  <linearGradient id="b" gradientTransform="translate(-1 9.9999986)" gradientUnits="userSpaceOnUse" x2="0" xlink:href="#c" y1="18" y2="20"/>
  <linearGradient id="c">
    <stop offset="0" stop-color="#9b9b9b"/>
    <stop offset="1" stop-color="#b4b4b4"/>
  </linearGradient>
  <linearGradient id="d" gradientTransform="translate(-1)" gradientUnits="userSpaceOnUse" x2="0" xlink:href="#c" y1="18" y2="20"/>
  <path d="m24 1c22.703 0 23 .297 23 23 0 22.703-.297 23-23 23-22.703 0-23-.297-23-23 0-22.703.297-23 23-23z" fill="url(#a)"/>
  <path d="m13.5 14c-.831 0-1.5.669-1.5 1.5v19c0 .831.669 1.5 1.5 1.5h15c .831 0 1.5-.669 1.5-1.5v-3.1l3 3.6 5-6h-3v-6h-4v6h-1v-8h2l-2-2.4v-3.1c0-.831-.669-1.5-1.5-1.5z" fill-opacity=".098" fill-rule="evenodd"/>
  <rect fill="#ececec" fill-rule="evenodd" height="22" rx="1.5" width="18" x="11" y="13"/>
  <rect fill="#d2d2d2" height="8" rx="1" ry="1.143" width="14" x="13" y="15"/>
  <rect fill="#d2d2d2" height="8" rx="1" ry="1.143" width="14" x="13" y="25"/>
  <path d="m15 18h10v2h-10z" fill="url(#d)"/>
  <path d="m15 28h10v2h-10z" fill="url(#b)"/>
  <path d="m27 15l-5 6h3v6h4v-6-3.6z" fill-opacity=".098"/>
  <path d="m26 14l-5 6h3v6h4v-6h3zm4 8v6h-3l5 6 5-6h-3v-6z" fill="#606060"/>
</svg>
