<svg xmlns="http://www.w3.org/2000/svg" xmlns:xlink="http://www.w3.org/1999/xlink" viewBox="0 0 48 48">
 <defs>
  <linearGradient id="linearGradient4283" y1="47" x2="0" y2="1" gradientUnits="userSpaceOnUse">
   <stop style="stop-color:#f8e653;stop-opacity:1"/>
   <stop offset="1" style="stop-color:#f9e967;stop-opacity:1"/>
  </linearGradient>
  <linearGradient xlink:href="#linearGradient4205" id="linearGradient4215" gradientUnits="userSpaceOnUse" y1="18" x2="0" y2="20" gradientTransform="translate(-1,9.9999986)"/>
  <linearGradient id="linearGradient4205">
   <stop style="stop-color:#9b9b9b;stop-opacity:1"/>
   <stop offset="1" style="stop-color:#b4b4b4;stop-opacity:1"/>
  </linearGradient>
  <linearGradient gradientTransform="translate(-1,0)" xlink:href="#linearGradient4205" id="linearGradient4211" y1="18" x2="0" y2="20" gradientUnits="userSpaceOnUse"/>
 </defs>
 <g>
  
  
  
 </g>
 <g>
  <path d="m 24 1 c 22.703 0 23 0.297 23 23 c 0 22.703 -0.297 23 -23 23 -22.703 0 -23 -0.297 -23 -23 0 -22.703 0.297 -23 23 -23 z" style="fill:url(#linearGradient4283);fill-opacity:1"/>
 </g>
 <g>
  <g>
   <!-- color: #7dc06d -->
  </g>
 </g>
 <g>
  
 </g>
 <g>
  <path d="m 13.5 14 c -0.831 0 -1.5 0.669 -1.5 1.5 l 0 19 c 0 0.831 0.669 1.5 1.5 1.5 l 15 0 c 0.831 0 1.5 -0.669 1.5 -1.5 l 0 -3.1 l 3 3.6 l 5 -6 l -3 0 l 0 -6 l -4 0 l 0 6 l -1 0 l 0 -8 l 2 0 l -2 -2.4 l 0 -3.1 c 0 -0.831 -0.669 -1.5 -1.5 -1.5 l -15 0 z" style="fill:#000;fill-opacity:0.098;stroke:none;fill-rule:evenodd"/>
  <rect rx="1.5" y="13" x="11" height="22" width="18" style="fill:#ececec;fill-opacity:1;stroke:none;fill-rule:evenodd"/>
  <rect ry="1.143" rx="1" y="15" x="13" height="8" width="14" style="fill:#d2d2d2;fill-opacity:1;stroke:none"/>
  <rect width="14" height="8" x="13" y="25" rx="1" ry="1.143" style="fill:#d2d2d2;fill-opacity:1;stroke:none"/>
  <rect rx="0" y="18" x="15" height="2" width="10" style="fill:url(#linearGradient4211);fill-opacity:1;stroke:none"/>
  <rect width="10" height="2" x="15" y="28" rx="0" style="fill:url(#linearGradient4215);fill-opacity:1;stroke:none"/>
  <path d="m 27 15 -5 6 3 0 0 6 4 0 0 -6 0 -3.6 z" style="fill:#000;fill-opacity:0.098;stroke:none"/>
  <path d="m 26 14 -5 6 3 0 0 6 4 0 0 -6 3 0 z m 4 8 0 6 -3 0 5 6 5 -6 -3 0 0 -6 z" style="fill:#606060;fill-opacity:1;stroke:none"/>
 </g>
</svg>
