<svg viewBox="0 0 48 48" xmlns="http://www.w3.org/2000/svg" xmlns:xlink="http://www.w3.org/1999/xlink">
  <linearGradient id="a" gradientTransform="matrix(0 -1 1 0 -.0000015 47.999998)" gradientUnits="userSpaceOnUse" x1="1" x2="47">
    <stop offset="0" stop-color="#c94943"/>
    <stop offset="1" stop-color="#ce5952"/>
  </linearGradient>
  <g transform="translate(1 1)">
    <path d="m11 11l4.215 6.422c1.449-2.273 7.914 6.871 6.883-3.121l-2.16-3.301m5.129 4.543c-16.711 21.637-8.355 10.82 0 0m0 0c .262.195.523.398.762.637 3.824 7.762 3.344 16.281-8.203 10.734l-6.625 10.08h8.934l4.066-6.188 4.063 6.188h8.941l-8.531-13 8.531-13h-8.941m-13.05 6.129l4.52 6.887-2 3.063c2.102 1.168 7.391 3.32 9.176 1.535 2.156-2.16 2.336-9.926.176-12.09-.164-.168-1.539-.977-1.723-1.117l-1.227 1.859-1.844-2.969c-3.145-.195-8.813.254-7.07 2.832m0-.004"/>
    <path d="m23.992 12.02c-.652 0-.965 2.051-1.078 3.02-.023.293-.047.559-.047.828v2.902c-.008.168-.039.211-.137.297l-2.355 1.949c-.16.105-.371.102-.355-.262v-.258c0-.145-.117-.262-.27-.262h-.336c-.152 0-.273.117-.273.262v1.52c0 .047-.008.051-.043.082l-2.234 1.887c-.227.152-.313.004-.324-.262v-.473c0-.145-.117-.262-.27-.262h-.336c-.152 0-.273.117-.273.262v1.574c0 .02-.008.023-.02.031l-2.395 1.969c-.152.184-.242.27-.234.582l-.012.887c-.02.117.102.168.184.129 0 0 4.09-2.402 5.656-3.063 1.57-.656 3.66-1.109 3.66-1.109.16-.035.305-.043.367.121v6.648c.004.793.316 1.273 0 1.559l-2.609 2.414c-.156.16-.25.297-.266.555l.004.277c.008.125.059.191.18.176l3.336-.777c.086-.027.156-.02.219.063l.34.715.418-.734c.059-.078.168-.113.25-.086 1.027.23 2.055.461 3.086.695.129.016.238.012.254-.156v-.422c-.066-.289-.242-.422-.426-.598l-2.617-2.121c-.246-.234-.004-.734.082-1.535v-6.57h.004v-.008h.008c0-.012.004-.02.004-.027.004-.012.008-.02.012-.027 0-.008.004-.016.008-.02.004-.008.004-.02.008-.023.004-.008.016-.016.02-.02.004-.008.008-.02.016-.023.004-.008.008-.012.016-.02.004-.004.012-.012.016-.016.008-.004.012-.008.02-.012.008-.008.016-.012.023-.016.008-.004.012-.004.02-.008.012-.004.02-.004.027-.008.012 0 .02 0 .027-.004.012 0 .023 0 .031 0 .012 0 .023.004.035.004.012 0 .023 0 .035.004 0 0 1.898.391 3.5 1.035 1.602.645 5.871 3.074 5.871 3.074.098.02.18.008.191-.086v-.82c.004-.219-.141-.418-.234-.504l-2.34-1.973c-.082-.094-.105-.113-.105-.168v-1.559c0-.145-.125-.262-.27-.262h-.34c-.148 0-.273.117-.273.262v.473c.027.281-.051.387-.23.254l-2.305-1.879c-.051-.043-.063-.043-.063-.086v-1.516c0-.145-.121-.262-.273-.262h-.336c-.145 0-.27.117-.27.262v.258c.039.363-.211.434-.379.262l-2.344-1.957c-.105-.094-.113-.148-.129-.281v-2.91c-.008-.285-.02-.609-.059-.871-.137-1.02-.551-3.219-1.066-2.973m0 0" fill-rule="evenodd"/>
  </g>
  <path d="m24 1c22.703 0 23 .297 23 23 0 22.703-.297 23-23 23-22.703 0-23-.297-23-23 0-22.703.297-23 23-23z" fill="url(#a)"/>
  <path d="m12 38h8.667l4.333-6.5 4.333 6.5h8.667l-8.667-13 8.667-13h-8.667l-4.333 6.5-4.333-6.5h-8.667l8.667 13m-8.667 13" fill-opacity=".098"/>
  <path d="m11 37h8.667l4.333-6.5 4.333 6.5h8.667l-8.667-13 8.667-13h-8.667l-4.333 6.5-4.333-6.5h-8.667l8.667 13m-8.667 13" fill="#2d2d2d"/>
</svg>
