<svg xmlns="http://www.w3.org/2000/svg" viewBox="0 0 48 48">
 <defs>
  <linearGradient id="linearGradient3764" x1="1" x2="47" gradientUnits="userSpaceOnUse" gradientTransform="matrix(0,-1,1,0,-1.5e-6,47.999998)">
   <stop style="stop-color:#32a8ce;stop-opacity:1"/>
   <stop offset="1" style="stop-color:#41afd2;stop-opacity:1"/>
  </linearGradient>
 </defs>
 <g>
  
  
  
 </g>
 <g>
  <path d="m 47,24 C 47,46.703 46.703,47 24,47 1.297,47 1,46.703 1,24 1,1.297 1.297,1 24,1 46.703,1 47,1.297 47,24 z" style="fill:url(#linearGradient3764);fill-opacity:1"/>
 </g>
 <g>
  <g>
   <g transform="translate(1,1)">
    <g style="opacity:0.1">
     <!-- color: #41afd2 -->
     <g>
      <path d="m 14 12 l 20 0 c 1.105 0 2 0.895 2 2 l 0 20 c 0 1.105 -0.895 2 -2 2 l -20 0 c -1.105 0 -2 -0.895 -2 -2 l 0 -20 c 0 -1.105 0.895 -2 2 -2 m 0 0" style="fill:#000;fill-opacity:1;stroke:none;fill-rule:nonzero"/>
     </g>
    </g>
   </g>
  </g>
 </g>
 <g>
  <g>
   <!-- color: #41afd2 -->
   <g>
    <path d="m 14 12 20 0 c 1.105 0 2 0.895 2 2 l 0 20 c 0 1.105 -0.895 2 -2 2 l -20 0 c -1.105 0 -2 -0.895 -2 -2 l 0 -20 c 0 -1.105 0.895 -2 2 -2 m 0 0" style="fill:#fff;fill-opacity:1;stroke:none;fill-rule:nonzero"/>
    <path d="m 14 12 c -1.109 0 -2 0.891 -2 2 l 0 20 c 0 1.109 0.891 2 2 2 l 10 0 0 -24 m -10 0" style="fill:#fbebcf;fill-opacity:1;stroke:none;fill-rule:nonzero"/>
    <path d="m 14 12 c -1.109 0 -2 0.891 -2 2 l 0 20 c 0 1.109 0.891 2 2 2 l 1 0 c -1.109 0 -2 -0.891 -2 -2 l 0 -20 c 0 -1.109 0.891 -2 2 -2 m -1 0" style="fill:#fff;fill-opacity:1;stroke:none;fill-rule:nonzero"/>
    <path d="m 33 12 c 1.109 0 2 0.891 2 2 l 0 20 c 0 1.109 -0.891 2 -2 2 l 1 0 c 1.109 0 2 -0.891 2 -2 l 0 -20 c 0 -1.109 -0.891 -2 -2 -2 m -1 0" style="fill:#fbebcf;fill-opacity:1;stroke:none;fill-rule:nonzero"/>
    <path d="m 15 14 7 0 0 2 -7 0 m 0 -2" style="fill:#2d2d2d;fill-opacity:0.4;stroke:none;fill-rule:nonzero"/>
    <path d="m 26 32 7 0 0 2 -7 0 m 0 -2" style="fill:#2d2d2d;fill-opacity:0.4;stroke:none;fill-rule:nonzero"/>
    <path d="m 15 19 18 0 0 1 -18 0 m 0 -1" style="fill:#2d2d2d;fill-opacity:0.4;stroke:none;fill-rule:nonzero"/>
    <path d="m 15 22 18 0 0 1 -18 0 m 0 -1" style="fill:#2d2d2d;fill-opacity:0.4;stroke:none;fill-rule:nonzero"/>
    <path d="m 15 25 18 0 0 1 -18 0 m 0 -1" style="fill:#2d2d2d;fill-opacity:0.4;stroke:none;fill-rule:nonzero"/>
    <path d="m 15 28 18 0 0 1 -18 0 m 0 -1" style="fill:#2d2d2d;fill-opacity:0.4;stroke:none;fill-rule:nonzero"/>
   </g>
  </g>
 </g>
 <g>
  
 </g>
</svg>
