<svg viewBox="0 0 48 48" xmlns="http://www.w3.org/2000/svg" xmlns:xlink="http://www.w3.org/1999/xlink">
  <linearGradient id="a" gradientTransform="matrix(0 -1 1 0 -.0000015 47.999998)" gradientUnits="userSpaceOnUse" x1="1" x2="47">
    <stop offset="0" stop-color="#32a8ce"/>
    <stop offset="1" stop-color="#41afd2"/>
  </linearGradient>
  <path d="m47 24c0 22.703-.297 23-23 23-22.703 0-23-.297-23-23 0-22.703.297-23 23-23 22.703 0 23 .297 23 23z" fill="url(#a)"/>
  <path d="m14 12h20c1.105 0 2 .895 2 2v20c0 1.105-.895 2-2 2h-20c-1.105 0-2-.895-2-2v-20c0-1.105.895-2 2-2m0 0" opacity=".1" transform="translate(1 1)"/>
  <path d="m14 12h20c1.105 0 2 .895 2 2v20c0 1.105-.895 2-2 2h-20c-1.105 0-2-.895-2-2v-20c0-1.105.895-2 2-2m0 0" fill="#fff"/>
  <path d="m14 12c-1.109 0-2 .891-2 2v20c0 1.109.891 2 2 2h10v-24m-10 0" fill="#fbebcf"/>
  <path d="m14 12c-1.109 0-2 .891-2 2v20c0 1.109.891 2 2 2h1c-1.109 0-2-.891-2-2v-20c0-1.109.891-2 2-2m-1 0" fill="#fff"/>
  <path d="m33 12c1.109 0 2 .891 2 2v20c0 1.109-.891 2-2 2h1c1.109 0 2-.891 2-2v-20c0-1.109-.891-2-2-2m-1 0" fill="#fbebcf"/>
  <path d="m15 14h7v2h-7m0-2" fill="#2d2d2d" fill-opacity=".4"/>
  <path d="m26 32h7v2h-7m0-2" fill="#2d2d2d" fill-opacity=".4"/>
  <path d="m15 19h18v1h-18m0-1" fill="#2d2d2d" fill-opacity=".4"/>
  <path d="m15 22h18v1h-18m0-1" fill="#2d2d2d" fill-opacity=".4"/>
  <path d="m15 25h18v1h-18m0-1" fill="#2d2d2d" fill-opacity=".4"/>
  <path d="m15 28h18v1h-18m0-1" fill="#2d2d2d" fill-opacity=".4"/>
</svg>
