<svg viewBox="0 0 48 48" xmlns="http://www.w3.org/2000/svg" xmlns:xlink="http://www.w3.org/1999/xlink">
  <linearGradient id="a" gradientTransform="matrix(0 -1 1 0 -.0000015 47.999998)" gradientUnits="userSpaceOnUse" x1="1" x2="47">
    <stop offset="0" stop-color="#b5d9f3"/>
    <stop offset="1" stop-color="#c6e2f6"/>
  </linearGradient>
  <path d="m47 24c0 22.703-.297 23-23 23-22.703 0-23-.297-23-23 0-22.703.297-23 23-23 22.703 0 23 .297 23 23z" fill="url(#a)"/>
  <path d="m13 13h24v18c0 4-10 8-12 8-2 0-12-4-12-8z" opacity=".1"/>
  <path d="m12 12h24v18c0 4-10 8-12 8-2 0-12-4-12-8z" fill="#1470aa"/>
  <path d="m19 17v14h9.6c1.33 0 2.4-1.115 2.4-2.5v-5c0-1.385-1.071-2.5-2.4-2.5h-7.6v-4m0 6h7c .554 0 1 .446 1 1v4c0 .554-.446 1-1 1h-7z" opacity=".1"/>
  <path d="m18 16v14h9.6c1.33 0 2.4-1.115 2.4-2.5v-5c0-1.385-1.071-2.5-2.4-2.5h-7.6v-4m0 6h7c .554 0 1 .446 1 1v4c0 .554-.446 1-1 1h-7z" fill="#f9f9f9"/>
</svg>
