<svg viewBox="0 0 48 48" xmlns="http://www.w3.org/2000/svg" xmlns:xlink="http://www.w3.org/1999/xlink">
  <filter id="a" color-interpolation-filters="sRGB">
    <feColorMatrix result="result7" values="1 0 0 0 0 0 1 0 0 0 0 0 1 0 0 0 0 0 1 0"/>
    <feGaussianBlur result="result6" stdDeviation="5"/>
    <feComposite in="result6" in2="result7" operator="atop" result="result91"/>
    <feComposite in2="result91" operator="in"/>
  </filter>
  <path d="m23.924.212c22.703 0 23 .297 23 23 0 22.703-.297 23-23 23-22.703 0-23-.297-23-23 0-22.703.297-23 23-23z" fill="#313131" fill-opacity=".992" transform="translate(.07627118 .7881356)"/>
  <g transform="translate(-.0001461 1.000342)">
    <path d="m25.06 12.689c-3.867 0-7 3.133-7 7 0 .196.014.389.029.58-.357-.056-.719-.094-1.092-.094-3.867 0-7 3.133-7 7 0 3.867 3.133 7 7 7 1.653 0 3.17-.575 4.367-1.533h.01l.041-.039 9.369-8.652c.583-.387 1.108-.571 1.75-.625.214-.018.438-.011.688 0 1.448.066 2.596.818 3.25 2.125.213.426.333.861.391 1.297.028.227.037.453.027.676 0 .004 0 .008 0 .012h.002c.069.781.732 1.393 1.533 1.393.802 0 1.464-.611 1.533-1.393 0-.004.002-.008.002-.012h-.002c.002-.079 0-.158 0-.238 0-.12-.01-.24-.02-.359h.002c-.001-.017-.005-.032-.006-.049-.003-.041-.003-.083-.006-.123h-.006c-.28-3.61-3.269-6.453-6.951-6.453-.321 0-.633.029-.941.072.016-.193.029-.387.029-.584 0-3.867-3.133-7-7-7zm .029 3.074c2.181.001 3.949 1.768 3.949 3.949 0 .937-.333 1.844-.939 2.559l-.004-.004-.688.639c-.673.491-1.485.757-2.318.758-2.182.002-3.952-1.769-3.951-3.951.001-2.182 1.769-3.95 3.951-3.949zm-8.06 7.486c2.181.001 3.949 1.768 3.949 3.949 0 .926-.326 1.823-.92 2.533l-.705.656c-.675.493-1.488.761-2.324.762-2.182.002-3.952-1.769-3.951-3.951.001-2.182 1.769-3.95 3.951-3.949zm21.471 6.75c-.828 0-1.5.672-1.5 1.5 0 .828.672 1.5 1.5 1.5.828 0 1.5-.672 1.5-1.5 0-.828-.672-1.5-1.5-1.5z" opacity=".1"/>
    <path d="m24.06 11.689c-3.867 0-7 3.133-7 7 0 3.867 3.133 7 7 7 3.867 0 7-3.133 7-7 0-3.867-3.133-7-7-7zm .029 3.074a3.95 3.95 0 0 1 3.949 3.949 3.95 3.95 0 0 1-3.949 3.951 3.95 3.95 0 0 1-3.951-3.951 3.95 3.95 0 0 1  3.951-3.949z" fill="#1793e6"/>
    <path d="m31.975 19.2c-1.832 0-3.471.724-4.719 1.875l2 2.314c.159-.151.341-.312.531-.439.583-.387 1.108-.571 1.75-.625.214-.018.438-.011.688 0 1.448.066 2.596.818 3.25 2.125.213.426.333.861.391 1.297.028.227.037.453.027.676 0 .004 0 .008 0 .012h.002c.069.781.732 1.393 1.533 1.393.802 0 1.464-.611 1.533-1.393 0-.004.002-.008.002-.012h-.002c.002-.079 0-.158 0-.238 0-.12-.01-.24-.02-.359h.002c-.001-.017-.005-.032-.006-.049-.003-.041-.003-.083-.006-.123h-.006c-.28-3.61-3.269-6.453-6.951-6.453" fill="#1793e6"/>
    <path d="m16 19.18c-3.867 0-7 3.133-7 7 0 3.867 3.133 7 7 7 3.867 0 7-3.133 7-7 0-3.867-3.133-7-7-7zm .029 3.074a3.95 3.95 0 0 1 3.949 3.949 3.95 3.95 0 0 1-3.949 3.951 3.95 3.95 0 0 1-3.951-3.951 3.95 3.95 0 0 1  3.951-3.949z" fill="#1793e6"/>
    <path d="m15.973 19.16c-.365 0-.744.04-1.094.094.999.422 1.719 1.441 1.719 2.594 0 .16-.036.316-.063.469 1.306.172 2.39.972 2.938 2.063.791 1.577.522 3.357-.719 4.594.962-.959 2.934-2.702 4.156-3.844-.512-3.375-3.409-5.969-6.938-5.969z" fill="#f00" filter="url(#a)"/>
    <path d="m19.04 31.6l-3.201.127 11.262-10.459 2.01 2.257-8.731 8.117z" fill="#1793e6"/>
    <circle cx="37.5" cy="30.5" fill="#1793e6" r="1.5"/>
  </g>
</svg>
