<svg viewBox="0 0 48 48" xmlns="http://www.w3.org/2000/svg" xmlns:xlink="http://www.w3.org/1999/xlink">
  <linearGradient id="a" gradientTransform="matrix(0 -1 1 0 -.0000015 47.999998)" gradientUnits="userSpaceOnUse" x1="1" x2="47">
    <stop offset="0" stop-color="#dbdbdb"/>
    <stop offset="1" stop-color="#e5e5e5"/>
  </linearGradient>
  <path d="m47 24c0 22.703-.297 23-23 23-22.703 0-23-.297-23-23 0-22.703.297-23 23-23 22.703 0 23 .297 23 23z" fill="url(#a)"/>
  <path d="m13 13c0 8.08 0 16.898 0 24h24c0-24 0-14.242 0-24m-24 0" fill-rule="evenodd" opacity=".1"/>
  <path d="m12 12c0 8.08 0 16.898 0 24h24c0-24 0-14.242 0-24m-24 0" fill="#c3832d" fill-rule="evenodd"/>
  <path d="m13 31c0 1.348 0 2.816 0 4h23v-4" fill="#979898" fill-rule="evenodd"/>
  <path d="m12 12c0 6.06 0 12.672 0 18h24c0-18 0-10.699 0-18m-24 0" fill="#e09f4a" fill-rule="evenodd"/>
  <path d="m13 31.996c0 .336 0 .707 0 1h23c0-1 0-1 0-1" fill="#d6d8d9" fill-rule="evenodd"/>
  <path d="m13 34c0 .34 0 .707 0 1h23v-1" fill="#d6d8d9" fill-rule="evenodd"/>
  <path d="m14 12h-2v24h2v-1h-1v-4h1" fill="#987658" fill-rule="evenodd"/>
  <path d="m14 30h-2v6h2v-1h-1v-4h1" fill="#7f6249" fill-rule="evenodd"/>
  <ellipse cx="24.5" cy="21" fill="#ba7436" fill-rule="evenodd" rx="6.5" ry="6"/>
  <path d="m24.842 15.478c-.175.064-.079.31.303.038-.038-.017-.067-.02-.1-.029-.068-.004-.135-.007-.203-.009zm-1.283.056c-.526.078-1.038.221-1.523.424.012.195.11.389.299.485.525.105 1.019-.508 1.225-.909zm2.783.198c-.121.125-.105.297.172.106.012-.011.016-.028.027-.04-.066-.023-.132-.046-.199-.067zm.66.242c-.393.173-.734.397-1.35.543.123-.262.039-.562-.428-.514-.342-.097-.868.526-.512.627.302-.272.655-.183.527.072-.579.112-.835.258-.963.436-.401.114-.745 1.101-.061.712.209-.265.523-.281.729.004-.139-.324-.189-.275 0-.009.382.333.922-.818 1.063-.036-.454-.144-.518.192-.213.44-.206.574-.851-.238-1.295-.169-.89-.013-1.706 1.117-1.123 1.853.357.501 1.299.102 1.305.894.178.558-.091 1.365.461 1.743.738.067.779-.813 1.023-1.285.11-.503.503-1.117.234-1.59-.252-.162-.604-1.108-.178-.463.32.884 1.361-.339.514-.6.66-.137.998.535 1.342.943.542.484.536-1.069 1.09-.279.188.295.71.75.672.099.075-.112.164-.246.246-.389-.565-1.343-1.675-2.43-3.094-3.03zm-5.393.18c-.123.06-.243.125-.361.193.134.102.303.084.361-.193zm1.834.031c-.038.007-.088.025-.152.061.081.443.415-.108.152-.061zm-2.248.449c-.174-.011-.38.068-.576.151h-.002c-.196.155-.382.321-.555.498.315.176.037.664-.254.274-.281.327-.52.682-.715 1.058.03-.021.047-.041.086-.063.465.12 1.057-.077 1.336-.563.236-.407.787-.807 1.053-.968-.061-.276-.2-.377-.373-.388zm2.797.043c-.371.226.361.645.109.195l-.07-.096zm-.195.287c-.157.017.033.268.063.085zm2.758.449h.002c.332.158.381.845-.068.442-.121-.136-.053-.329.066-.442zm-1.994.287c-.185.046.037.407.047.114zm-.314.182c.002.036-.015.057.039.038zm.543.114c-.11.043.074.212.102.092zm-5.863.972c-.051.117-.098.235-.141.355.093.16.222.302.402.413.314.27.798.262.455-.184-.189-.191-.608-.374-.717-.584zm.963.032c-.046-.005-.104-.002-.178.011.182.429.498.027.178-.011m.248.761c-.583.535-.289 1.356-.012 1.962.395.588.183 1.3.465 1.9.49.613.325-.375.568-.561.576-.658 1.092-1.65.543-2.463-.319-.424-.828-.74-1.361-.838-.067 0-.134 0-.201 0zm9.195.119c-.059.113.473.909.314.348zm-.908.016c-.246.098.169.323.031.038zm1.99.18c-.496.024-.564.745.018.64.028-.016.036-.041.055-.061-.013-.194-.037-.387-.072-.579zm-1.109.099l-.002.002.002.002c0 0 0-.003 0-.004zm0 .004c-.105.35.613 1.01.723.728-.252-.237-.494-.47-.723-.728zm-2.648 1.177c-.314.126-.426 1.01 0 .559.089-.172.09-.371.07-.557zm3.807.251c-.383.202-.519.771-.262 1.111.128-.361.216-.733.262-1.111zm-8.973 2.044c-.223.093.231.094 0 0zm-.215.047c-.245.121.209.151 0 0zm .381.999c-.246.381-.654.463-1.084.487 1.09.873 2.484 1.355 3.928 1.356 1.663-.002 3.25-.642 4.383-1.765-.854.018-1.69.232-2.549.182-.882-.016-1.773.018-2.625.252-.605.081-1.358.293-1.855-.168-.094-.098-.157-.218-.197-.344zm.084.772c.48.029.048.196-.178.074l-.066-.05z" fill="#f6c27f"/>
</svg>
