<svg viewBox="0 0 48 48" xmlns="http://www.w3.org/2000/svg" xmlns:xlink="http://www.w3.org/1999/xlink">
  <linearGradient id="a" gradientUnits="userSpaceOnUse" x2="0" y1="47" y2="1">
    <stop offset="0" stop-color="#e4e4e4"/>
    <stop offset="1" stop-color="#eee"/>
  </linearGradient>
  <path d="m47 24c0 22.703-.297 23-23 23-22.703 0-23-.297-23-23 0-22.703.297-23 23-23 22.703 0 23 .297 23 23z" fill="url(#a)"/>
  <g opacity=".1" transform="translate(1 1)">
    <path d="m29.04 29.645l-.527-2.75h-.125c-.871 1.211-1.742 2.031-2.613 2.473-.859.418-1.938.633-3.234.633-1.727 0-3.09-.496-4.066-1.484-.98-.984-1.477-2.391-1.477-4.215 0-3.902 2.82-5.945 8.457-6.137l2.977-.102v-1.203c0-1.516-.309-2.633-.898-3.348-.59-.73-1.52-1.094-2.813-1.094-1.457 0-3.105.496-4.941 1.48l-.816-2.238c.859-.52 1.805-.926 2.82-1.219 1.027-.293 2.063-.441 3.09-.441 2.082 0 3.621.512 4.621 1.531 1.012 1.027 1.512 2.664 1.512 4.922v13.184h-1.957m-5.977-2.063c1.648 0 2.941-.5 3.875-1.5.945-1 1.414-2.395 1.414-4.199v-1.742l-2.641.121c-2.105.082-3.621.445-4.566 1.094-.926.637-1.383 1.629-1.383 2.977 0 1.059.285 1.867.859 2.414.586.555 1.398.828 2.438.828"/>
    <path d="m19.295 34l-4.299 2 4.299 1.996h15.14c0 0 .563-.324.563-1.996 0-1.613-.633-2-.633-2z" transform="translate(-1 -1)"/>
  </g>
  <path d="m29.04 29.645l-.527-2.75h-.125c-.871 1.211-1.742 2.031-2.613 2.473-.859.418-1.938.633-3.234.633-1.727 0-3.09-.496-4.066-1.484-.98-.984-1.477-2.391-1.477-4.215 0-3.902 2.82-5.945 8.457-6.137l2.977-.102v-1.203c0-1.516-.309-2.633-.898-3.348-.59-.73-1.52-1.094-2.813-1.094-1.457 0-3.105.496-4.941 1.48l-.816-2.238c.859-.52 1.805-.926 2.82-1.219 1.027-.293 2.063-.441 3.09-.441 2.082 0 3.621.512 4.621 1.531 1.012 1.027 1.512 2.664 1.512 4.922v13.184h-1.957m-5.977-2.063c1.648 0 2.941-.5 3.875-1.5.945-1 1.414-2.395 1.414-4.199v-1.742l-2.641.121c-2.105.082-3.621.445-4.566 1.094-.926.637-1.383 1.629-1.383 2.977 0 1.059.285 1.867.859 2.414.586.555 1.398.828 2.438.828" fill="#5b5b5b"/>
  <path d="m33.434 37c0 0 .563-.324.563-1.996 0-1.613-.633-2-.633-2h-15.07l-4.297 2 4.297 1.996m15.14 0" fill="#ff6f03"/>
  <path d="m18.3 33l-4.3 2 4.3 1.996" fill="#ffc13d"/>
  <path d="m16 34.06l-2 .938 2 .941m0-1.879" fill="#2d2d2d"/>
  <path d="m31 33v4h2.438c0 0 .563-.324.563-2 0-1.613-.625-2-.625-2m-2.375 0" fill="#ff2d5b"/>
</svg>
