<svg viewBox="0 0 48 48" xmlns="http://www.w3.org/2000/svg" xmlns:xlink="http://www.w3.org/1999/xlink">
  <linearGradient id="a" gradientTransform="matrix(0 -1 1 0 -.0000015 47.999998)" gradientUnits="userSpaceOnUse" x1="1" x2="47">
    <stop offset="0" stop-color="#ec9b28"/>
    <stop offset="1" stop-color="#eea53a"/>
  </linearGradient>
  <path d="m47 24c0 22.703-.297 23-23 23-22.703 0-23-.297-23-23 0-22.703.297-23 23-23 22.703 0 23 .297 23 23z" fill="url(#a)"/>
  <path d="m29.668 23.11c1.332-.656 2.168-1.805 1.973-3.723-.262-2.621-2.676-3.137-5.641-3.387v-4h-2v4c-.605 0-1.387.012-2 .023v-4.02h-2v4c-1.676 0-3.504-.016-5-.016v2.02c0 0 1.695-.031 1.668 0 .93 0 1.246.52 1.332.969v9.961c-.039.281-.348 1.066-1 1.066.031.023-1 0-1 0l-1 2 2.988-.012c.559 0 1.473.008 2.01.012v4h2v-4.02c.641.012 1.406.016 2 .016v4h2v-4c3.863-.215 6.637-.82 6.973-4.316.27-2.813-1.105-4.07-3.293-4.574m-7.68-4.945c1.305 0 5.355-.398 5.355 2.211 0 2.5-4.059 2.207-5.355 2.207m0 7.102v-4.871c1.566 0 6.434-.43 6.434 2.438 0 2.746-4.867 2.434-6.434 2.434m0 0" opacity=".1" transform="translate(1 1)"/>
  <path d="m29.668 23.11c1.332-.656 2.168-1.805 1.973-3.723-.262-2.621-2.676-3.137-5.641-3.387v-4h-2v4c-.605 0-1.387.012-2 .023v-4.02h-2v4c-1.676 0-3.504-.016-5-.016v2.02c0 0 1.695-.031 1.668 0 .93 0 1.246.52 1.332.969v9.961c-.039.281-.348 1.066-1 1.066.031.023-1 0-1 0l-1 2 2.988-.012c.559 0 1.473.008 2.01.012v4h2v-4.02c.641.012 1.406.016 2 .016v4h2v-4c3.863-.215 6.637-.82 6.973-4.316.27-2.813-1.105-4.07-3.293-4.574m-7.68-4.945c1.305 0 5.355-.398 5.355 2.211 0 2.5-4.059 2.207-5.355 2.207m0 7.102v-4.871c1.566 0 6.434-.43 6.434 2.438 0 2.746-4.867 2.434-6.434 2.434m0 0" fill="#f9f9f9"/>
</svg>
