<svg viewBox="0 0 48 48" xmlns="http://www.w3.org/2000/svg" xmlns:xlink="http://www.w3.org/1999/xlink">
  <linearGradient id="a" gradientTransform="matrix(0 -1 1 0 -.0000015 47.999998)" gradientUnits="userSpaceOnUse" x1="1" x2="47">
    <stop offset="0" stop-color="#e4e4e4"/>
    <stop offset="1" stop-color="#eee"/>
  </linearGradient>
  <path d="m47 24c0 22.703-.297 23-23 23-22.703 0-23-.297-23-23 0-22.703.297-23 23-23 22.703 0 23 .297 23 23z" fill="url(#a)"/>
  <path d="m23.656 9l-6.656 16.563 21.375 2.688c.016-.051.016-.105.031-.156l-16.406-7.594 1.719-11.5c-.02 0-.043 0-.063 0m5.063 1.125c-.109.02-.211.137-.25.125l-4.563 8.938 13.512 7.242c.352-.016.34-.227.207-.43l-9.219-8.406.563-7.03c-.027-.367-.141-.457-.25-.438m-10.813.188c-5.246 2.336-8.906 7.574-8.906 13.688 0 8.285 6.715 15 15 15 6.152 0 11.438-3.699 13.75-9h-23.438m17.188-18.16l-1.656 5.094 7.449 7.227c.215.313 1.395.5 1.645-.414 0-4.898-2.277-8.984-5.906-11.719-.848-.438-1.395-.543-1.531-.188m0 0" opacity=".1" transform="translate(1 1)"/>
  <path d="m23.656 9l-6.656 16.563 21.375 2.688c.016-.051.016-.105.031-.156l-16.406-7.594 1.719-11.5c-.02 0-.043 0-.063 0m5.063 1.125c-.109.02-.211.137-.25.125l-4.563 8.938 13.512 7.242c.352-.016.34-.227.207-.43l-9.219-8.406.563-7.03c-.027-.367-.141-.457-.25-.438m-10.813.188c-5.246 2.336-8.906 7.574-8.906 13.688 0 8.285 6.715 15 15 15 6.152 0 11.438-3.699 13.75-9h-23.438m17.188-18.16l-1.656 5.094 7.449 7.227c.215.313 1.395.5 1.645-.414 0-4.898-2.277-8.984-5.906-11.719-.848-.438-1.395-.543-1.531-.188m0 0" fill="#f85353"/>
</svg>
