<svg xmlns="http://www.w3.org/2000/svg" viewBox="0 0 48 48">
 <defs>
  <linearGradient id="linearGradient3764" x1="1" x2="47" gradientUnits="userSpaceOnUse" gradientTransform="matrix(0,-1,1,0,-1.5e-6,47.999998)">
   <stop style="stop-color:#783193;stop-opacity:1"/>
   <stop offset="1" style="stop-color:#8436a2;stop-opacity:1"/>
  </linearGradient>
 </defs>
 <g>
  
  
  
 </g>
 <g>
  <path d="m 47,24 C 47,46.703 46.703,47 24,47 1.297,47 1,46.703 1,24 1,1.297 1.297,1 24,1 46.703,1 47,1.297 47,24 z" style="fill:url(#linearGradient3764);fill-opacity:1"/>
  <path d="m 25.734 9.762 c -6.658 0.185 -16.532 6.04 -17.371 16.832 c -0.807 9.416 5.01 16.616 12.479 20.18 c 1.033 0.142 2.086 0.223 3.158 0.223 c 2.503 0 4.91 -0.405 7.166 -1.145 c -13.738 -1.727 -19.287 -7.921 -19.627 -18.352 c 1.324 -13.847 15.11 -14.554 15.48 -14.449 l 0 -3.254 c -0.412 -0.038 -0.841 -0.051 -1.285 -0.039 z m 1.578 4.264 l 0 0.004 c -0.359 -0.004 -0.734 0.008 -1.094 0.031 c -0.961 0.066 -1.922 0.211 -2.875 0.469 c -3.746 1.01 -6.823 3.375 -8.688 6.625 c -3.914 6.832 -1.841 15.188 4.938 19.844 c 3.195 1.773 8.222 3.189 14.553 3.645 c 1.427 -0.703 2.77 -1.55 4.01 -2.521 c -9.366 -0.08 -12.58 -0.96 -16.689 -3.777 c -5.352 -3.672 -7.05 -10.235 -4 -15.564 c 1.434 -2.492 3.848 -4.316 6.75 -5.094 c 2.977 -0.805 6.04 -0.383 8.656 1.125 l 1.625 -2.816 c -2.215 -1.273 -4.676 -1.949 -7.188 -1.969 z m -0.313 4.412 c -1.648 0.055 -3.313 0.5 -4.781 1.344 c -3.25 1.875 -5.03 5.273 -5.03 8.781 c 0 1.625 0.367 3.294 1.191 4.814 c 0.056 0.104 0.096 0.159 0.156 0.258 c 0.516 0.875 2.504 3.863 6.816 5.438 c 4.141 1.108 9.775 1.411 14.709 1.383 c 0.77 -0.751 1.486 -1.556 2.145 -2.408 c -5.701 -0.021 -12.263 -0.32 -15.797 -2.035 c -3.395 -1.234 -4.801 -3.504 -5.063 -3.969 c -0.621 -1.082 -0.906 -2.307 -0.906 -3.471 c 0 -2.379 1.23 -4.691 3.441 -5.969 c 1.594 -0.914 3.438 -1.164 5.219 -0.691 c 1.77 0.48 3.266 1.631 4.188 3.225 l 2.813 -1.6 c -1.355 -2.344 -3.508 -4.04 -6.125 -4.75 c -0.98 -0.262 -1.98 -0.375 -2.969 -0.344 l -0.008 -0.006 z" style="fill:#000;opacity:0.1;fill-opacity:1"/>
 </g>
 <g>
  <g>
   <g transform="translate(1,1)">
    <g style="opacity:0.1">
     <!-- color: #8436a2 -->
    </g>
   </g>
  </g>
 </g>
 <path d="M 24.719,8.75 C 18.061,8.935 8.214,14.8 7.375,25.594 c -0.91,10.618 6.607,18.429 15.406,21.375 0.011,10e-4 0.021,-10e-4 0.031,0 C 23.204,46.989 23.603,47 24,47 27.21,47 30.256,46.344 33.03,45.156 17.194,43.95 10.89,37.626 10.53,26.5 11.854,12.653 25.66,11.957 26.03,12.062 l 0,-3.25 C 25.618,8.774 25.161,8.737 24.717,8.749 Z m 1.594,4.281 c -0.359,-0.004 -0.734,0.008 -1.094,0.031 -0.961,0.066 -1.922,0.211 -2.875,0.469 -3.746,1.01 -6.823,3.375 -8.688,6.625 -3.914,6.832 -1.841,15.188 4.938,19.844 3.621,2.01 9.595,3.539 17.16,3.75 1.287,-0.766 2.485,-1.631 3.594,-2.625 -11.01,0.029 -14.474,-0.764 -18.875,-3.781 -5.352,-3.672 -7.05,-10.234 -4,-15.563 1.434,-2.492 3.848,-4.316 6.75,-5.094 2.977,-0.805 6.04,-0.383 8.656,1.125 l 1.625,-2.813 C 31.289,13.726 28.828,13.05 26.316,13.03 Z M 26,17.437 c -1.648,0.055 -3.313,0.5 -4.781,1.344 -3.25,1.875 -5.03,5.273 -5.03,8.781 0,1.625 0.363,3.293 1.188,4.813 0.06534,0.11198 0.09782,0.156387 0.157,0.251 0.516,0.875 2.5,3.862 6.813,5.438 4.717,1.262 11.378,1.476 16.719,1.344 0.679,-0.752 1.299,-1.538 1.875,-2.375 -6.05,0.029 -13.625,-0.136 -17.531,-2.031 -3.395,-1.234 -4.801,-3.504 -5.063,-3.969 -0.621,-1.082 -0.906,-2.305 -0.906,-3.469 0,-2.379 1.227,-4.691 3.438,-5.969 1.594,-0.914 3.438,-1.16 5.219,-0.688 1.77,0.48 3.265,1.625 4.188,3.219 l 2.812,-1.594 c -1.355,-2.344 -3.508,-4.04 -6.125,-4.75 -0.98,-0.262 -1.98,-0.375 -2.969,-0.344 z" style="fill:#f9f9f9;fill-opacity:1;stroke:none;fill-rule:nonzero"/>
 <g>
  
 </g>
</svg>
