<svg viewBox="0 0 48 48" xmlns="http://www.w3.org/2000/svg" xmlns:xlink="http://www.w3.org/1999/xlink">
  <linearGradient id="a" gradientTransform="matrix(0 -1 1 0 -.0000015 47.999998)" gradientUnits="userSpaceOnUse" x1="1" x2="47">
    <stop offset="0" stop-color="#783193"/>
    <stop offset="1" stop-color="#8436a2"/>
  </linearGradient>
  <path d="m47 24c0 22.703-.297 23-23 23-22.703 0-23-.297-23-23 0-22.703.297-23 23-23 22.703 0 23 .297 23 23z" fill="url(#a)"/>
  <path d="m25.734 9.762c-6.658.185-16.532 6.04-17.371 16.832-.807 9.416 5.01 16.616 12.479 20.18 1.033.142 2.086.223 3.158.223 2.503 0 4.91-.405 7.166-1.145-13.738-1.727-19.287-7.921-19.627-18.352 1.324-13.847 15.11-14.554 15.48-14.449v-3.254c-.412-.038-.841-.051-1.285-.039zm1.578 4.264v.004c-.359-.004-.734.008-1.094.031-.961.066-1.922.211-2.875.469-3.746 1.01-6.823 3.375-8.688 6.625-3.914 6.832-1.841 15.188 4.938 19.844 3.195 1.773 8.222 3.189 14.553 3.645 1.427-.703 2.77-1.55 4.01-2.521-9.366-.08-12.58-.96-16.689-3.777-5.352-3.672-7.05-10.235-4-15.564 1.434-2.492 3.848-4.316 6.75-5.094 2.977-.805 6.04-.383 8.656 1.125l1.625-2.816c-2.215-1.273-4.676-1.949-7.188-1.969zm-.313 4.412c-1.648.055-3.313.5-4.781 1.344-3.25 1.875-5.03 5.273-5.03 8.781 0 1.625.367 3.294 1.191 4.814.056.104.096.159.156.258.516.875 2.504 3.863 6.816 5.438 4.141 1.108 9.775 1.411 14.709 1.383.77-.751 1.486-1.556 2.145-2.408-5.701-.021-12.263-.32-15.797-2.035-3.395-1.234-4.801-3.504-5.063-3.969-.621-1.082-.906-2.307-.906-3.471 0-2.379 1.23-4.691 3.441-5.969 1.594-.914 3.438-1.164 5.219-.691 1.77.48 3.266 1.631 4.188 3.225l2.813-1.6c-1.355-2.344-3.508-4.04-6.125-4.75-.98-.262-1.98-.375-2.969-.344l-.008-.006z" opacity=".1"/>
  <path d="m24.719 8.75c-6.658.185-16.505 6.05-17.344 16.844-.91 10.618 6.607 18.429 15.406 21.375.011.001.021-.001.031 0 .392.02.791.031 1.188.031 3.21 0 6.256-.656 9.03-1.844-15.836-1.206-22.14-7.53-22.5-18.656 1.324-13.847 15.13-14.543 15.5-14.438v-3.25c-.412-.038-.869-.075-1.313-.063zm1.594 4.281c-.359-.004-.734.008-1.094.031-.961.066-1.922.211-2.875.469-3.746 1.01-6.823 3.375-8.688 6.625-3.914 6.832-1.841 15.188 4.938 19.844 3.621 2.01 9.595 3.539 17.16 3.75 1.287-.766 2.485-1.631 3.594-2.625-11.01.029-14.474-.764-18.875-3.781-5.352-3.672-7.05-10.234-4-15.563 1.434-2.492 3.848-4.316 6.75-5.094 2.977-.805 6.04-.383 8.656 1.125l1.625-2.813c-2.215-1.273-4.676-1.949-7.188-1.969zm-.313 4.406c-1.648.055-3.313.5-4.781 1.344-3.25 1.875-5.03 5.273-5.03 8.781 0 1.625.363 3.293 1.188 4.813.06534.11198.09782.156387.157.251.516.875 2.5 3.862 6.813 5.438 4.717 1.262 11.378 1.476 16.719 1.344.679-.752 1.299-1.538 1.875-2.375-6.05.029-13.625-.136-17.531-2.031-3.395-1.234-4.801-3.504-5.063-3.969-.621-1.082-.906-2.305-.906-3.469 0-2.379 1.227-4.691 3.438-5.969 1.594-.914 3.438-1.16 5.219-.688 1.77.48 3.265 1.625 4.188 3.219l2.812-1.594c-1.355-2.344-3.508-4.04-6.125-4.75-.98-.262-1.98-.375-2.969-.344z" fill="#f9f9f9"/>
</svg>
