<svg xmlns="http://www.w3.org/2000/svg" viewBox="0 0 48 48">
 <defs>
  <linearGradient id="linearGradient4309" x1="1" x2="47" gradientUnits="userSpaceOnUse" gradientTransform="matrix(0,-1,1,0,0,48)">
   <stop style="stop-color:#afd9ed;stop-opacity:1"/>
   <stop offset="1" style="stop-color:#bfe1f1;stop-opacity:1"/>
  </linearGradient>
 </defs>
 <path d="M 1,24 C 1,1.297 1.297,1 24,1 46.703,1 47,1.297 47,24 47,46.703 46.703,47 24,47 1.297,47 1,46.703 1,24 Z" style="fill:url(#linearGradient4309);fill-opacity:1"/>
 <path d="m 17,13 0,9 0,6 0,9 10.5,0 C 31.655,37 35,33.655 35,29.5 35,27.806 34.438,26.253 33.498,25 34.438,23.747 35,22.194 35,20.5 35,16.345 31.655,13 27.5,13 L 17,13 m 3,3 7.5,0 c 2.493,0 4.5,2.01 4.5,4.5 0,0.928 -0.278,1.787 -0.756,2.502 -1.102,-0.634 -2.377,-1 -3.744,-1 l -7.5,0 0,-6 M 31.244,27 c 0.477,0.715 0.756,1.574 0.756,2.502 0,2.493 -2.01,4.5 -4.5,4.5 l -7.5,0 0,-6 7.5,0 c 1.367,0 2.643,-0.368 3.744,-1 z" style="fill:#000;opacity:0.1;fill-opacity:1;stroke:none"/>
 <path d="m 16,12 0,15 10.5,0 C 30.655,27 34,23.655 34,19.5 34,15.345 30.655,12 26.5,12 L 16,12 Z m 3,3 7.5,0 c 2.493,0 4.5,2.007 4.5,4.5 0,2.493 -2.007,4.5 -4.5,4.5 l -7.5,0 0,-9 z" style="fill:#1887c0;opacity:1;fill-opacity:1;stroke:none"/>
 <path d="m 16,21 0,15 10.5,0 C 30.655,36 34,32.655 34,28.5 34,26.806 33.438,25.253 32.498,24 31.892,24.81 31.123,25.488 30.242,25.996 30.72,26.711 31,27.571 31,28.5 31,30.993 28.99,33 26.5,33 l -7.5,0 0,-9 6,0 1.5,0 c 1.567,0 2.916,-0.806 3.715,-2.02 -1.095,-0.624 -2.36,-0.984 -3.715,-0.984 l -10.5,0" style="fill:#181878;opacity:1;fill-opacity:1;stroke:none"/>
</svg>
