<svg viewBox="0 0 48 48" xmlns="http://www.w3.org/2000/svg" xmlns:xlink="http://www.w3.org/1999/xlink">
  <linearGradient id="a" gradientTransform="matrix(0 -1 1 0 -.0000015 47.999998)" gradientUnits="userSpaceOnUse" x1="1" x2="47">
    <stop offset="0" stop-color="#e4e4e4"/>
    <stop offset="1" stop-color="#eee"/>
  </linearGradient>
  <path d="m47 24c0 22.703-.297 23-23 23-22.703 0-23-.297-23-23 0-22.703.297-23 23-23 22.703 0 23 .297 23 23z" fill="url(#a)"/>
  <path d="m20 13l-3 5.598 5 3.402 3-5.5 1 1.5-1 2h6.5l2.5-5.4-2 1.1-1.5-2.699h-10.5m14 8l-5 2 3.5 6h-2.5l-1-2-3 5 3 5v-2h4l5-7zm-22 2l1.719 1.078-1.719 2.922 5 8h7v-5h-6l1-2h2l-3-5z" opacity=".1"/>
  <path d="m23 34v-5h-6l1-2h2l-3-5h-6l1.719 1.078-1.719 2.922 5 8" fill="#db0000"/>
  <path d="m33 20l-5 2 3.5 6h-2.5l-1-2-3 5 3 5v-2h4l5-7" fill="#c80000"/>
  <path d="m16 17.598l5 3.402 3-5.5 1 1.5-1 2h6.5l2.5-5.4-2 1.1-1.5-2.7h-10.5" fill="#b20000"/>
</svg>
