<svg viewBox="0 0 48 48" xmlns="http://www.w3.org/2000/svg" xmlns:xlink="http://www.w3.org/1999/xlink">
  <linearGradient id="a" gradientTransform="matrix(0 -1 1 0 -.0000015 47.999998)" gradientUnits="userSpaceOnUse" x1="1" x2="47">
    <stop offset="0" stop-color="#487ca8"/>
    <stop offset="1" stop-color="#5086b4"/>
  </linearGradient>
  <linearGradient id="b" gradientUnits="userSpaceOnUse" x1="27.71894312" x2="27.53469116" y1="36.03188888" y2="10.73622021">
    <stop offset="0" stop-color="#f48537"/>
    <stop offset="1" stop-color="#fbb270"/>
  </linearGradient>
  <path d="m47 24c0 22.703-.297 23-23 23-22.703 0-23-.297-23-23 0-22.703.297-23 23-23 22.703 0 23 .297 23 23z" fill="url(#a)"/>
  <g fill-rule="evenodd" transform="translate(-.00034754 -1)">
    <path d="m25.681 12.996v.004c-.43 0-.863.16-1.223.449-.363.285-.598.664-.633 1.109-.027.449.141.902.473 1.211l2.391 2.23h-9.688c-1.108 0-2 .892-2 2 0 1.108.892 2 2 2h3.75l-7.715 6.82c-.492.426-.844 1.02-.973 1.621-.133.605-.066 1.242.281 1.75.715 1.031 2.148 1 3.148.098l3.623-3.361c.705 4.639 4.692 8.07 9.385 8.07 5.247 0 9.501-4.253 9.5-9.5-.001-2.998-1.549-5.67-3.234-7.145l-7.895-6.91c-.34-.293-.769-.449-1.191-.449z" opacity=".1"/>
    <path d="m24.68 11.996v.004c-.43 0-.863.16-1.223.449-.363.285-.598.664-.633 1.109-.027.449.141.902.473 1.211l2.391 2.23h-9.688c-1.108 0-2 .892-2 2 0 1.108.892 2 2 2h3.75l-7.715 6.82c-.492.426-.844 1.02-.973 1.621-.133.605-.066 1.242.281 1.75.715 1.031 2.148 1 3.148.098l3.623-3.361c.705 4.639 4.692 8.07 9.385 8.07 5.247 0 9.501-4.253 9.5-9.5-.001-2.998-1.549-5.67-3.234-7.145l-7.895-6.91c-.34-.293-.769-.449-1.191-.449z" fill="url(#b)" transform="translate(.00034754)"/>
  </g>
  <circle cx="27.5" cy="25.5" fill="#f9f9f9" r="7.5"/>
  <path d="m27.5 18a7.5 7.5 0 0 0-7.5 7.5 7.5 7.5 0 0 0  2.455 5.54 7.5 7.5 0 0 1-1.955-5.04 7.5 7.5 0 0 1  7.5-7.5 7.5 7.5 0 0 1  5.04 1.963 7.5 7.5 0 0 0-5.54-2.463m.5 3.504c-2.485 0-4.5 2.01-4.5 4.5 0 2.485 2.01 4.5 4.5 4.5 2.485 0 4.5-2.01 4.5-4.5 0-2.485-2.01-4.5-4.5-4.5z" fill-rule="evenodd" opacity=".1"/>
  <circle cx="27.5" cy="25.5" fill="#2f70a3" r="4.5"/>
</svg>
