<svg xmlns="http://www.w3.org/2000/svg" viewBox="0 0 48 48">
 <defs>
  <linearGradient id="linearGradient3764" x1="1" x2="47" gradientUnits="userSpaceOnUse" gradientTransform="matrix(0,-1,1,0,-1.5e-6,47.999998)">
   <stop style="stop-color:#487ca8;stop-opacity:1"/>
   <stop offset="1" style="stop-color:#5086b4;stop-opacity:1"/>
  </linearGradient>
  <linearGradient id="linear0" gradientUnits="userSpaceOnUse" x1="7.823" y1="10.169" x2="7.771" y2="3.03" gradientTransform="matrix(3.543307,0,0,3.543307,-3.4753907e-4,0)">
   <stop style="stop-color:#f48537;stop-opacity:1"/>
   <stop offset="1" style="stop-color:#fbb270;stop-opacity:1"/>
  </linearGradient>
 </defs>
 <g>
  
  
  
 </g>
 <g>
  <path d="m 47,24 C 47,46.703 46.703,47 24,47 1.297,47 1,46.703 1,24 1,1.297 1.297,1 24,1 46.703,1 47,1.297 47,24 z" style="fill:url(#linearGradient3764);fill-opacity:1"/>
 </g>
 <g>
  <g>
   <g transform="translate(1,1)">
    <g style="opacity:0.1">
     <!-- color: #5086b4 -->
    </g>
   </g>
  </g>
 </g>
 <g>
  
 </g>
 <g>
  <g transform="translate(-3.4753907e-4,-1)">
   <!-- color: #5086b4 -->
   <g>
    <path d="m 25.681 12.996 0 0.004 c -0.43 0 -0.863 0.16 -1.223 0.449 -0.363 0.285 -0.598 0.664 -0.633 1.109 -0.027 0.449 0.141 0.902 0.473 1.211 l 2.391 2.23 l -9.688 0 c -1.108 0 -2 0.892 -2 2 0 1.108 0.892 2 2 2 l 3.75 0 -7.715 6.82 c -0.492 0.426 -0.844 1.02 -0.973 1.621 -0.133 0.605 -0.066 1.242 0.281 1.75 0.715 1.031 2.148 1 3.148 0.098 l 3.623 -3.361 c 0.705 4.639 4.692 8.07 9.385 8.07 5.247 0 9.501 -4.253 9.5 -9.5 -0.001 -2.998 -1.549 -5.67 -3.234 -7.145 l -7.895 -6.91 c -0.34 -0.293 -0.769 -0.449 -1.191 -0.449 z" style="fill:#000;opacity:0.1;stroke:none;fill-rule:evenodd"/>
    <path d="m 24.68 11.996 0 0.004 c -0.43 0 -0.863 0.16 -1.223 0.449 -0.363 0.285 -0.598 0.664 -0.633 1.109 -0.027 0.449 0.141 0.902 0.473 1.211 l 2.391 2.23 -9.688 0 c -1.108 0 -2 0.892 -2 2 0 1.108 0.892 2 2 2 l 3.75 0 -7.715 6.82 c -0.492 0.426 -0.844 1.02 -0.973 1.621 -0.133 0.605 -0.066 1.242 0.281 1.75 0.715 1.031 2.148 1 3.148 0.098 l 3.623 -3.361 c 0.705 4.639 4.692 8.07 9.385 8.07 c 5.247 0 9.501 -4.253 9.5 -9.5 -0.001 -2.998 -1.549 -5.67 -3.234 -7.145 l -7.895 -6.91 c -0.34 -0.293 -0.769 -0.449 -1.191 -0.449 z" transform="translate(3.4753907e-4,0)" style="fill:url(#linear0);stroke:none;fill-rule:evenodd"/>
   </g>
  </g>
  <circle r="7.5" cy="25.5" cx="27.5" style="fill:#f9f9f9;opacity:1;fill-opacity:1;stroke:none"/>
  <path d="m 27.5 18 a 7.5 7.5 0 0 0 -7.5 7.5 A 7.5 7.5 0 0 0 22.455 31.04 7.5 7.5 0 0 1 20.5 26 a 7.5 7.5 0 0 1 7.5 -7.5 7.5 7.5 0 0 1 5.04 1.963 A 7.5 7.5 0 0 0 27.5 18 m 0.5 3.504 c -2.485 0 -4.5 2.01 -4.5 4.5 0 2.485 2.01 4.5 4.5 4.5 2.485 0 4.5 -2.01 4.5 -4.5 0 -2.485 -2.01 -4.5 -4.5 -4.5 z" style="fill:#000;opacity:0.1;fill-opacity:1;stroke:none;fill-rule:evenodd"/>
  <circle r="4.5" cy="25.5" cx="27.5" style="fill:#2f70a3;opacity:1;fill-opacity:1;stroke:none"/>
 </g>
</svg>
