<svg viewBox="0 0 48 48" xmlns="http://www.w3.org/2000/svg">
  <path d="m24 1c-22.703 0-23 .297-23 23h23z" fill="#d1eb55" fill-rule="evenodd"/>
  <path d="m24 1v23h23c0-22.703-.297-23-23-23z" fill="#eb6755" fill-rule="evenodd"/>
  <path d="m24 24v23c22.703 0 23-.297 23-23z" fill="#83be5a" fill-rule="evenodd"/>
  <path d="m1 24c0 22.703.297 23 23 23v-23z" fill="#6593c7" fill-rule="evenodd"/>
  <circle cx="25" cy="25" fill-opacity=".098" r="15"/>
  <circle cx="23.8" cy="24" fill="#434343" r="15"/>
  <path d="m25.498 12.01l-4.501.6v17.404l4.501-.6v-7.686c1.922 2.901 3.428 5.481 6 8.286l4.501-1.5c-2.458-2.848-4.384-5.056-6.06-7.79 1.744-2.569 3.926-4.906 6.06-7.214l-4.501-1.5c-2.221 2.502-4.233 4.904-6 7.502m-10.316-3.886c-.063.008-.137.046-.195.104-.523.494-1.017.988-1.535 1.482-.228.22.004.481.104.664l1.054 1.457.788 1.063c.112.154.146.17.087.278-.07.112-.129.203-.195.316-1.025 1.722-.307 1.855-2.502 2.415l-1.681.278c-.249.083-.573.074-.59.42 0 .697-.021 1.391-.021 2.084-.013.32.344.349.556.403l1.789.311 1.341.244c.183.024.224-.017.266.12.548 2.312 1.265 1.781.07 3.802l-.963 1.341c-.129.233-.366.461-.124.697.507.503.992 1.01 1.502 1.511.224.22.514-.004.697-.104l1.482-1.03 1.108-.747c.154-.124.174-.154.287-.087 2.221 1.357 2.299.377 2.946 2.66l.32 1.635c.083.244.091.56.431.573h2.158c.324 0 .353-.37.394-.573l.303-1.739.216-1.287c.013-.124.009-.187.033-.228 2.602-.535 1.955-1.291 4.072-.087l1.374.938c.253.124.494.34.734.108.51-.481 1.017-.967 1.528-1.444.228-.233.004-.498-.104-.677h-.021l-1-1.374-.66.224c-.17.112-.394.07-.594-.191l-1.444-1.859c-1.349 1.818-3.532 2.992-6.01 2.992-4.072 0-7.396-3.233-7.396-7.201 0-2.818 1.677-5.258 4.109-6.439v-1.656c-.083.041-.178.063-.249.087-.951.386-1.013.56-2.569-.311l-1.374-.954c-.191-.083-.361-.241-.536-.2m4.719 3.702c-2.067 1.137-3.47 3.316-3.47 5.794 0 3.656 3.063 6.645 6.832 6.645 2.328 0 4.37-1.15 5.603-2.897l-.067-.141c-1.444 1.561-3.076 2.573-5.557 2.628-3.092.054-6.221-2.628-6.238-6.159-.024-2.279 1.054-3.81 2.893-4.901" fill="#e9e9e9" fill-rule="evenodd" transform="matrix(.66651912 0 0 .66651912 8.0053117 7.99798)"/>
</svg>
