<svg viewBox="0 0 48 48" xmlns="http://www.w3.org/2000/svg" xmlns:xlink="http://www.w3.org/1999/xlink">
  <linearGradient id="a" gradientTransform="matrix(0 -1 1 0 -.0000015 47.999998)" gradientUnits="userSpaceOnUse" x1="1" x2="47">
    <stop offset="0" stop-color="#e77301"/>
    <stop offset="1" stop-color="#fc7b01"/>
  </linearGradient>
  <path d="m47 24c0 22.703-.297 23-23 23-22.703 0-23-.297-23-23 0-22.703.297-23 23-23 22.703 0 23 .297 23 23z" fill="url(#a)"/>
  <path d="m20 13c-3.878 0-7 3.122-7 7v10c0 3.878 3.122 7 7 7h10c3.878 0 7-3.122 7-7v-6.5c0-.831-.669-1.5-1.5-1.5h-1.5c-.554 0-1-.446-1-1v-1c0-3.878-3.122-7-7-7zm .5 6h5c .831 0 1.5.669 1.5 1.5 0 .831-.669 1.5-1.5 1.5h-5c-.831 0-1.5-.669-1.5-1.5 0-.831.669-1.5 1.5-1.5zm0 9h9c .831 0 1.5.669 1.5 1.5 0 .831-.669 1.5-1.5 1.5h-9c-.831 0-1.5-.669-1.5-1.5 0-.831.669-1.5 1.5-1.5z" opacity=".1"/>
  <path d="m19 12c-3.878 0-7 3.122-7 7v10c0 3.878 3.122 7 7 7h10c3.878 0 7-3.122 7-7v-6.5c0-.831-.669-1.5-1.5-1.5h-1.5c-.554 0-1-.446-1-1v-1c0-3.878-3.122-7-7-7zm .5 6h5c .831 0 1.5.669 1.5 1.5 0 .831-.669 1.5-1.5 1.5h-5c-.831 0-1.5-.669-1.5-1.5 0-.831.669-1.5 1.5-1.5zm0 9h9c .831 0 1.5.669 1.5 1.5 0 .831-.669 1.5-1.5 1.5h-9c-.831 0-1.5-.669-1.5-1.5 0-.831.669-1.5 1.5-1.5z" fill="#f9f9f9"/>
</svg>
