<svg xmlns="http://www.w3.org/2000/svg" viewBox="0 0 48 48">
 <defs>
  <linearGradient id="linearGradient3764" x1="1" x2="47" gradientUnits="userSpaceOnUse" gradientTransform="matrix(0,-1,1,0,-1.5e-6,47.999998)">
   <stop style="stop-color:#e77301;stop-opacity:1"/>
   <stop offset="1" style="stop-color:#fc7b01;stop-opacity:1"/>
  </linearGradient>
 </defs>
 <g>
  
  
  
 </g>
 <g>
  <path d="m 47,24 C 47,46.703 46.703,47 24,47 1.297,47 1,46.703 1,24 1,1.297 1.297,1 24,1 46.703,1 47,1.297 47,24 z" style="fill:url(#linearGradient3764);fill-opacity:1"/>
 </g>
 <g>
  <g>
   <g transform="translate(1,1)">
    <g style="opacity:0.1">
     <!-- color: #fc7b01 -->
    </g>
   </g>
  </g>
 </g>
 <g>
  <g>
   <!-- color: #fc7b01 -->
  </g>
 </g>
 <g>
  
 </g>
 <path d="m 20,13 c -3.878,0 -7,3.122 -7,7 l 0,10 c 0,3.878 3.122,7 7,7 l 10,0 c 3.878,0 7,-3.122 7,-7 l 0,-6.5 C 37,22.669 36.331,22 35.5,22 L 34,22 c -0.554,0 -1,-0.446 -1,-1 l 0,-1 c 0,-3.878 -3.122,-7 -7,-7 l -6,0 z m 0.5,6 5,0 c 0.831,0 1.5,0.669 1.5,1.5 0,0.831 -0.669,1.5 -1.5,1.5 l -5,0 C 19.669,22 19,21.331 19,20.5 19,19.669 19.669,19 20.5,19 Z m 0,9 9,0 c 0.831,0 1.5,0.669 1.5,1.5 0,0.831 -0.669,1.5 -1.5,1.5 l -9,0 C 19.669,31 19,30.331 19,29.5 19,28.669 19.669,28 20.5,28 Z" style="fill:#000;opacity:0.1;fill-opacity:1;stroke:none"/>
 <path d="m 19,12 c -3.878,0 -7,3.122 -7,7 l 0,10 c 0,3.878 3.122,7 7,7 l 10,0 c 3.878,0 7,-3.122 7,-7 l 0,-6.5 C 36,21.669 35.331,21 34.5,21 L 33,21 c -0.554,0 -1,-0.446 -1,-1 l 0,-1 c 0,-3.878 -3.122,-7 -7,-7 l -6,0 z m 0.5,6 5,0 c 0.831,0 1.5,0.669 1.5,1.5 0,0.831 -0.669,1.5 -1.5,1.5 l -5,0 C 18.669,21 18,20.331 18,19.5 18,18.669 18.669,18 19.5,18 Z m 0,9 9,0 c 0.831,0 1.5,0.669 1.5,1.5 0,0.831 -0.669,1.5 -1.5,1.5 l -9,0 C 18.669,30 18,29.331 18,28.5 18,27.669 18.669,27 19.5,27 Z" style="fill:#f9f9f9;opacity:1;fill-opacity:1;stroke:none"/>
</svg>
