<svg xmlns="http://www.w3.org/2000/svg" viewBox="0 0 48 48">
 <defs>
  <linearGradient id="linearGradient3764" x1="1" x2="47" gradientUnits="userSpaceOnUse" gradientTransform="matrix(0,-1,1,0,-1.5e-6,47.999998)">
   <stop style="stop-color:#5796b3;stop-opacity:1"/>
   <stop offset="1" style="stop-color:#659eb9;stop-opacity:1"/>
  </linearGradient>
 </defs>
 <g>
  
  
  
 </g>
 <g>
  <path d="m 47,24 C 47,46.703 46.703,47 24,47 1.297,47 1,46.703 1,24 1,1.297 1.297,1 24,1 46.703,1 47,1.297 47,24 z" style="fill:url(#linearGradient3764);fill-opacity:1"/>
 </g>
 <g>
  <g>
   <g transform="translate(1,1)">
    <g style="opacity:0.1">
     <!-- color: #659eb9 -->
     <g>
      <path d="m 22 9 l 0 12 l -6 -6 l -2 2 l 7.5 7 l -7.5 7 l 2 2 l 6 -6 l 0 12 l 12 -9 l -7.691 -6 l 7.691 -6 m -9 -3 l 4 3 l -4 3 m 0 6 l 4 3 l -4 3 m 0 -6" style="fill:#000;fill-opacity:1;stroke:none;fill-rule:evenodd"/>
     </g>
    </g>
   </g>
  </g>
 </g>
 <g>
  <g>
   <!-- color: #659eb9 -->
   <g>
    <path d="m 22 9 l 0 12 l -6 -6 l -2 2 l 7.5 7 l -7.5 7 l 2 2 l 6 -6 l 0 12 l 12 -9 l -7.691 -6 l 7.691 -6 m -9 -3 l 4 3 l -4 3 m 0 6 l 4 3 l -4 3 m 0 -6" style="fill:#f9f9f9;fill-opacity:1;stroke:none;fill-rule:evenodd"/>
   </g>
  </g>
 </g>
 <g>
  
 </g>
</svg>
