<svg viewBox="0 0 48 48" xmlns="http://www.w3.org/2000/svg" xmlns:xlink="http://www.w3.org/1999/xlink">
  <linearGradient id="a" gradientTransform="matrix(0 -1 1 0 -.0000015 47.999998)" gradientUnits="userSpaceOnUse" x1="1" x2="47">
    <stop offset="0" stop-color="#537fb1"/>
    <stop offset="1" stop-color="#6189b7"/>
  </linearGradient>
  <path d="m47 24c0 22.703-.297 23-23 23-22.703 0-23-.297-23-23 0-22.703.297-23 23-23 22.703 0 23 .297 23 23z" fill="url(#a)"/>
  <g transform="matrix(1 0 0 -1 -3 48)">
    <path d="m23 37v-4c-1.108 0-2-.892-2-2v-20c0-1.108.892-2 2-2h10c1.108 0 2 .892 2 2v20c0 1.108-.892 2-2 2v4zm2-1h1.996v-2h-1.996m3.996 2h2v-2h-2zm-2-5.5l6.75-5.5-4.5-4 4.5-4-6.75-5.5v7.25l-3-2.75-1.25 1.25 4.25 3.75-4.25 3.75 1.25 1.25 3-2.75m2 3.55v-3.8l2.2 2zm0-7.8v-3.8l2.2 1.8z" opacity=".1"/>
    <path d="m19 10v4c-1.108 0-2 .892-2 2v20c0 1.108.892 2 2 2h10c1.108 0 2-.892 2-2v-20c0-1.108-.892-2-2-2v-4zm2.003906 1h1.996094v2h-1.996094zm3.996094 0h2v2h-2zm-2 5.5l6.75 5.5-4.5 4 4.5 4-6.75 5.5v-7.25l-3 2.75-1.25-1.25 4.25-3.75-4.25-3.75 1.25-1.25 3 2.75zm2 3.7v3.8l2.2-2zm0 7.8v3.8l2.2-1.8z" fill="#f9f9f9" transform="matrix(1 0 0 -1 3 48)"/>
  </g>
</svg>
