<svg xmlns="http://www.w3.org/2000/svg" viewBox="0 0 48 48">
 <defs>
  <linearGradient id="linearGradient3764" x1="1" x2="47" gradientUnits="userSpaceOnUse" gradientTransform="matrix(0,-1,1,0,-1.5e-6,47.999998)">
   <stop style="stop-color:#5796b3;stop-opacity:1"/>
   <stop offset="1" style="stop-color:#659eb9;stop-opacity:1"/>
  </linearGradient>
 </defs>
 <g>
  
  
  
 </g>
 <g>
  <path d="m 47,24 C 47,46.703 46.703,47 24,47 1.297,47 1,46.703 1,24 1,1.297 1.297,1 24,1 46.703,1 47,1.297 47,24 z" style="fill:url(#linearGradient3764);fill-opacity:1"/>
 </g>
 <g>
  <g>
   <g transform="translate(1,1)">
    <g style="opacity:0.1">
     <!-- color: #659eb9 -->
     <g>
      <path d="m 34.19 15.996 l -2.41 2.357 c 3.758 3.676 3.786 9.609 0.021 13.289 l 2.41 2.354 c 5.07 -4.953 5.04 -13.05 -0.021 -18 z m -18.379 0.023 l -0.004 0.002 l 0.002 0.002 c 0.001 -0.001 0.001 -0.003 0.002 -0.004 z m -0.002 0.004 c -5.067 4.953 -5.083 13.01 -0.021 17.953 l 2.41 -2.355 c -3.762 -3.676 -3.742 -9.568 0.023 -13.244 l -2.412 -2.354 z m 8.189 3.477 l 0 4.25 l -2 -1.5 l -0.75 0.75 l 2.75 2 l -2.75 2 l 0.75 0.75 l 2 -1.5 l 0 4.25 l 5 -3.5 l -3 -2 l 3 -2 l -5 -3.5 z m 6.04 0.568 l -1.32 1.289 c 2.059 2.023 2.074 5.273 0.012 7.289 l 1.32 1.289 c 2.781 -2.715 2.766 -7.156 -0.012 -9.867 z m -10.08 0.012 c -2.777 2.723 -2.789 7.141 -0.012 9.852 l 1.32 -1.293 c -2.059 -2.01 -2.051 -5.242 0.016 -7.27 l -1.324 -1.289 z m 5.04 1.42 l 2.25 1.5 l -2.25 1.4 l 0 -2.9 z m 0 4 l 2.25 1.5 l -2.25 1.5 l 0 -3 z" transform="translate(-1,-1)" style="fill:#000;fill-opacity:1;stroke:none;fill-rule:nonzero"/>
     </g>
    </g>
   </g>
  </g>
 </g>
 <g>
  <g>
   <!-- color: #659eb9 -->
   <g>
    <path d="m 29.04 19.07 l -1.32 1.289 c 2.059 2.023 2.074 5.273 0.012 7.289 l 1.32 1.289 c 2.781 -2.715 2.766 -7.156 -0.012 -9.867 z m -10.08 0.012 c -2.777 2.723 -2.789 7.141 -0.012 9.852 l 1.32 -1.293 c -2.059 -2.01 -2.051 -5.242 0.016 -7.27 l -1.324 -1.289 z" style="fill:#f9f9f9;fill-opacity:1;stroke:none;fill-rule:nonzero"/>
    <path d="m 33.19 14.996 l -2.41 2.357 c 3.758 3.676 3.786 9.609 0.021 13.289 l 2.41 2.354 c 5.07 -4.953 5.04 -13.05 -0.021 -18 z m -18.379 0.023 l -0.004 0.002 l 0.002 0.002 c 0.001 -0.001 0.001 -0.003 0.002 -0.004 z m -0.002 0.004 c -5.067 4.953 -5.083 13.01 -0.021 17.953 l 2.41 -2.355 c -3.762 -3.676 -3.742 -9.568 0.023 -13.244 l -2.412 -2.354 z" style="fill:#f9f9f9;fill-opacity:1;stroke:none;fill-rule:nonzero"/>
    <path d="m 23 18.5 0 4.25 -2 -1.5 -0.75 0.75 2.75 2 -2.75 2 0.75 0.75 2 -1.5 0 4.25 5 -3.5 -3 -2 3 -2 z m 1 2 2.25 1.5 -2.25 1.4 z m 0 4 2.25 1.5 -2.25 1.5 z" style="fill:#f9f9f9;fill-opacity:1;stroke:none;fill-rule:evenodd"/>
   </g>
  </g>
 </g>
 <g>
  
 </g>
</svg>
