<svg viewBox="0 0 48 48" xmlns="http://www.w3.org/2000/svg" xmlns:xlink="http://www.w3.org/1999/xlink">
  <linearGradient id="a" gradientTransform="matrix(0 -1 1 0 -.0000015 47.999998)" gradientUnits="userSpaceOnUse" x1="1" x2="47">
    <stop offset="0" stop-color="#5796b3"/>
    <stop offset="1" stop-color="#659eb9"/>
  </linearGradient>
  <path d="m47 24c0 22.703-.297 23-23 23-22.703 0-23-.297-23-23 0-22.703.297-23 23-23 22.703 0 23 .297 23 23z" fill="url(#a)"/>
  <path d="m22 9v12l-6-6-2 2 7.5 7-7.5 7 2 2 6-6v12l12-9-7.691-6 7.691-6m-9-3l4 3-4 3m0 6l4 3-4 3m0-6" fill-rule="evenodd" opacity=".1" transform="translate(1 1)"/>
  <path d="m22 9v12l-6-6-2 2 7.5 7-7.5 7 2 2 6-6v12l12-9-7.691-6 7.691-6m-9-3l4 3-4 3m0 6l4 3-4 3m0-6" fill="#f9f9f9" fill-rule="evenodd"/>
</svg>
