<svg xmlns="http://www.w3.org/2000/svg" viewBox="0 0 48 48">
 <defs>
  <linearGradient id="linearGradient3764" x1="1" x2="47" gradientUnits="userSpaceOnUse" gradientTransform="matrix(0,-1,1,0,-1.5e-6,47.999998)">
   <stop style="stop-color:#537fb1;stop-opacity:1"/>
   <stop offset="1" style="stop-color:#6189b7;stop-opacity:1"/>
  </linearGradient>
 </defs>
 <g>
  
  
  
 </g>
 <g>
  <path d="m 47,24 C 47,46.703 46.703,47 24,47 1.297,47 1,46.703 1,24 1,1.297 1.297,1 24,1 46.703,1 47,1.297 47,24 z" style="fill:url(#linearGradient3764);fill-opacity:1"/>
 </g>
 <g>
  <g>
   <g transform="translate(1,1)">
    <g style="opacity:0.1">
     <!-- color: #659eb9 -->
    </g>
   </g>
  </g>
 </g>
 <g>
  <g>
   <!-- color: #659eb9 -->
  </g>
 </g>
 <g>
  
 </g>
 <g transform="matrix(1,0,0,-1,-3,48)">
  <g>
   <!-- color: #004c8c -->
   <g>
    <path d="m 23 37 0 -4 c -1.108 0 -2 -0.892 -2 -2 l 0 -20 c 0 -1.108 0.892 -2 2 -2 l 10 0 c 1.108 0 2 0.892 2 2 l 0 20 c 0 1.108 -0.892 2 -2 2 l 0 4 z m 2 -1 1.996 0 0 -2 -1.996 0 m 3.996 2 l 2 0 0 -2 -2 0 z m -2 -5.5 6.75 -5.5 -4.5 -4 4.5 -4 -6.75 -5.5 0 7.25 -3 -2.75 -1.25 1.25 4.25 3.75 -4.25 3.75 1.25 1.25 3 -2.75 m 2 3.55 0 -3.8 2.2 2 z m 0 -7.8 0 -3.8 2.2 1.8 z" style="fill:#000;opacity:0.1;fill-opacity:1;stroke:none;fill-rule:nonzero"/>
    <path d="m 19,10 0,4 c -1.108,0 -2,0.892 -2,2 l 0,20 c 0,1.108 0.892,2 2,2 l 10,0 c 1.108,0 2,-0.892 2,-2 l 0,-20 c 0,-1.108 -0.892,-2 -2,-2 l 0,-4 z M 21.003906,11 23,11 l 0,2 -1.996094,0 z M 25,11 l 2,0 0,2 -2,0 z m -2,5.5 6.75,5.5 -4.5,4 4.5,4 L 23,35.5 23,28.25 20,31 18.75,29.75 23,26 18.75,22.25 20,21 l 3,2.75 z m 2,3.7 0,3.8 2.2,-2 z m 0,7.8 0,3.8 2.2,-1.8 z" transform="matrix(1,0,0,-1,3,48)" style="fill:#f9f9f9;fill-opacity:1;stroke:none;fill-rule:nonzero"/>
   </g>
  </g>
 </g>
 <g transform="matrix(0.66666667,0,0,0.66666667,8.3333333,9.9999999)" style="fill:#ff0">
  <g style="fill:#ff0">
   <!-- color: #659eb9 -->
  </g>
 </g>
</svg>
