<svg xmlns="http://www.w3.org/2000/svg" viewBox="0 0 48 48">
 <defs>
  <linearGradient id="linearGradient3764" x1="1" x2="47" gradientUnits="userSpaceOnUse" gradientTransform="matrix(0,-1,1,0,-1.5e-6,47.999998)">
   <stop style="stop-color:#c94943;stop-opacity:1"/>
   <stop offset="1" style="stop-color:#ce5952;stop-opacity:1"/>
  </linearGradient>
  <radialGradient id="radialGradient4192" cx="33.367" cy="32.5" r="33.367" gradientTransform="matrix(0.14985046,0,0,0.05394617,-21,22.246751)" gradientUnits="userSpaceOnUse">
   <stop style="stop-color:#fcfce5;stop-opacity:1"/>
   <stop offset="1" style="stop-color:#f5f59b;stop-opacity:1"/>
  </radialGradient>
  <linearGradient id="linearGradient4402" y1="26" x2="0" y2="21" gradientUnits="userSpaceOnUse">
   <stop style="stop-color:#464646;stop-opacity:1"/>
   <stop offset="0.492" style="stop-color:#555;stop-opacity:1"/>
   <stop offset="1" style="stop-color:#464646;stop-opacity:1"/>
  </linearGradient>
  <linearGradient id="linearGradient4164" x1="88.93" y1="27.21" x2="98.71" y2="7.766" gradientUnits="userSpaceOnUse" gradientTransform="matrix(0.22496903,0,0,0.22467588,8.7540247,15.935675)">
   <stop style="stop-color:#3c3c3c;stop-opacity:1"/>
   <stop offset="1" style="stop-color:#5a5a5a;stop-opacity:1"/>
  </linearGradient>
  <linearGradient id="linearGradient4182" x1="62.39" y1="62.68" x2="55" y2="40.977" gradientUnits="userSpaceOnUse" gradientTransform="matrix(0.22496903,0,0,0.22467588,8.7540247,15.935675)">
   <stop style="stop-color:#4b6056;stop-opacity:0.275"/>
   <stop offset="0.394" style="stop-color:#569a7b;stop-opacity:0.157"/>
   <stop offset="1" style="stop-color:#57a883;stop-opacity:0.157"/>
  </linearGradient>
  <linearGradient id="linearGradient4394" x1="15" x2="17.11" gradientUnits="userSpaceOnUse">
   <stop style="stop-color:#000;stop-opacity:0.098"/>
   <stop offset="1" style="stop-color:#000;stop-opacity:0"/>
  </linearGradient>
 </defs>
 <g>
  
  
  
 </g>
 <g>
  <path d="m 47,24 C 47,46.703 46.703,47 24,47 1.297,47 1,46.703 1,24 1,1.297 1.297,1 24,1 46.703,1 47,1.297 47,24 z" style="fill:url(#linearGradient3764);fill-opacity:1"/>
 </g>
 <g>
  
 </g>
 <path d="m 17.512 17 c -0.293 -0.008 -0.498 0.036 -0.586 0.146 -0.505 0.634 0.821 2.991 1.623 4.301 -0.865 0.548 -1.436 1.077 -1.52 1.449 l -1.025 -0.096 0 0.436 a 5 1.8 0 0 0 -4 1.764 5 1.8 0 0 0 4 1.762 l 0 0.438 l 2.113 -0.199 l 3.127 0 c -3.091 1.031 -11.275 3.964 -10.137 6 1.946 -0.179 15.286 -3.801 21.352 -5.467 3.863 -0.711 6.545 -2.271 6.545 -4.082 0 -2.482 -5.04 -4.494 -11.248 -4.494 -1.045 0 -2.058 0.095 -3.02 0.256 c -1.863 -0.733 -5.683 -2.169 -7.223 -2.213" style="fill:#000;fill-opacity:0.098;stroke:none"/>
 <g transform="translate(3.1239733e-4,-2.9999999e-7)">
  <ellipse transform="scale(-1,1)" ry="1.8" rx="5" cy="24" cx="-16" style="fill:url(#radialGradient4192);fill-opacity:1;stroke:none"/>
  <path d="m 15 21.8 0 4.399 2.113 -0.199 l 8.486 0 0 -4 -8.486 0 z" style="fill:url(#linearGradient4402);fill-opacity:1;stroke:none"/>
  <path d="m 24.857 18.663 -6.746 2.69 c 0 0 -2.894 -4.32 -2.188 -5.206 0.706 -0.885 8.934 2.515 8.934 2.515 z" style="fill:#b9b9b9;fill-opacity:1;stroke:none"/>
  <path d="m 24.07 19.03 -5.959 2.325 c 0 0 -2.894 -4.32 -2.188 -5.206 0.537 -0.661 8.147 2.881 8.147 2.881 z" style="fill:#c3c3c3;fill-opacity:1;stroke:none"/>
  <path d="m 25.574 18 c -5.13 0.34 -9.302 2.794 -9.549 3.896 l 1.088 0.127 c 3.608 0.114 5.814 0.794 5.814 2.213 0 0.685 -0.479 0.924 -1.322 1.305 c -1.054 0.331 -12.827 4.09 -11.502 6.459 1.946 -0.179 15.286 -3.801 21.352 -5.467 3.863 -0.711 6.545 -2.271 6.545 -4.082 0 -0.152 -0.02 -0.303 -0.057 -0.451 -7.943 -2 -7.943 -2 -12.369 -4" style="fill:#ccc;fill-opacity:1;stroke:none"/>
  <path d="m 26.752 17.958 c -0.402 0 -0.794 0.026 -1.179 0.042 0.04 2.515 3.407 4 12.371 4 -0.48 -2.367 -5.271 -4.04 -11.192 -4.04 z" style="fill:url(#linearGradient4164);fill-opacity:1;stroke:none"/>
  <path d="m 29.18 24.344 c -2.422 -0.011 -5.223 0.31 -7.445 1.134 0 0 0 0 0 0 -0.043 0.021 -0.083 0.043 -0.129 0.063 c -1.054 0.331 -12.826 4.09 -11.501 6.459 c 1.946 -0.179 15.285 -3.802 21.351 -5.467 1.176 -0.217 2.241 -0.513 3.156 -0.87 0.169 -0.743 -2.318 -1.305 -5.431 -1.319 z" style="fill:url(#linearGradient4182);fill-opacity:1;stroke:none"/>
  <path d="m 15 21.8 2.114 0.2 0 4 l -2.114 0.2" style="fill:url(#linearGradient4394);fill-opacity:1"/>
 </g>
</svg>
