<svg viewBox="0 0 48 48" xmlns="http://www.w3.org/2000/svg" xmlns:xlink="http://www.w3.org/1999/xlink">
  <linearGradient id="a" gradientTransform="matrix(0 -1 1 0 -.0000015 47.999998)" gradientUnits="userSpaceOnUse" x1="1" x2="47">
    <stop offset="0" stop-color="#e33562"/>
    <stop offset="1" stop-color="#e64772"/>
  </linearGradient>
  <path d="m47 24c0 22.703-.297 23-23 23-22.703 0-23-.297-23-23 0-22.703.297-23 23-23 22.703 0 23 .297 23 23z" fill="url(#a)"/>
  <path d="m25 10c-1.025 0-2.033.117-3 .313v22.688c0 .554-.446 1-1 1h-2c-.554 0-1-.446-1-1v-21.25c-4.757 2.515-8 7.495-8 13.25 0 8.284 6.716 15 15 15 8.284 0 15-6.716 15-15 0-8.284-6.716-15-15-15zm-1.25 8.094c.031-.002.063-.002.094 0 .031-.002.063-.002.094 0 .141.004.282.047.406.125l5.03 3.375 5 3.375c.561.362.561 1.481 0 1.844l-5 3.375-5.03 3.375c-.543.355-1.336-.18-1.344-.906v-6.75-6.781c.003-.49.337-.948.75-1.031z" opacity=".09"/>
  <path d="m24 9c-1.025 0-2.033.117-3 .313v22.688c0 .554-.446 1-1 1h-2c-.554 0-1-.446-1-1v-21.25c-4.757 2.515-8 7.495-8 13.25 0 8.284 6.716 15 15 15 8.284 0 15-6.716 15-15 0-8.284-6.716-15-15-15zm-1.25 8.094c.031-.002.063-.002.094 0 .031-.002.063-.002.094 0 .141.004.282.047.406.125l5.03 3.375 5 3.375c.561.362.561 1.481 0 1.844l-5 3.375-5.03 3.375c-.543.355-1.336-.18-1.344-.906v-6.75-6.781c.003-.49.337-.948.75-1.031z" fill="#f9f9f9"/>
</svg>
