<svg xmlns="http://www.w3.org/2000/svg" viewBox="0 0 48 48">
 <defs>
  <linearGradient id="linearGradient3764" x1="1" x2="47" gradientUnits="userSpaceOnUse" gradientTransform="matrix(0,-1,1,0,-1.5e-6,47.999998)">
   <stop style="stop-color:#e94d4d;stop-opacity:1"/>
   <stop offset="1" style="stop-color:#eb5f5f;stop-opacity:1"/>
  </linearGradient>
 </defs>
 
 
 
 <path d="M 24,1 C 46.703,1 47,1.297 47,24 47,46.703 46.703,47 24,47 1.297,47 1,46.703 1,24 1,1.297 1.297,1 24,1 Z" style="fill:url(#linearGradient3764);fill-opacity:1"/>
 
 <g>
  <g>
   <g transform="translate(1,1)">
    <g style="opacity:0.1">
     <!-- color: #41afd2 -->
     <g>
      <path d="m 14 12 20 0 c 1.105 0 2 0.895 2 2 l 0 20 c 0 1.105 -0.895 2 -2 2 l -20 0 c -1.105 0 -2 -0.895 -2 -2 l 0 -20 c 0 -1.105 0.895 -2 2 -2 m 0 0" style="fill:#000;fill-opacity:1;stroke:none;fill-rule:nonzero"/>
     </g>
    </g>
   </g>
  </g>
 </g>
 <g>
  <g>
   <!-- color: #41afd2 -->
   <g>
    <path d="m 14 12 20 0 c 1.105 0 2 0.895 2 2 l 0 20 c 0 1.105 -0.895 2 -2 2 l -20 0 c -1.105 0 -2 -0.895 -2 -2 l 0 -20 c 0 -1.105 0.895 -2 2 -2 m 0 0" style="fill:#f9f9f9;fill-opacity:1;stroke:none;fill-rule:nonzero"/>
    <path d="m 14 12 c -1.109 0 -2 0.891 -2 2 l 0 20 c 0 1.109 0.891 2 2 2 l 10 0 0 -24 m -10 0" style="fill:#f9e4bf;fill-opacity:1;stroke:none;fill-rule:nonzero"/>
    <path d="m 14 12 c -1.109 0 -2 0.891 -2 2 l 0 20 c 0 1.109 0.891 2 2 2 l 1 0 c -1.109 0 -2 -0.891 -2 -2 l 0 -20 c 0 -1.109 0.891 -2 2 -2 m -1 0" style="fill:#fff;fill-opacity:1;stroke:none;fill-rule:nonzero"/>
    <path d="m 33 12 c 1.109 0 2 0.891 2 2 l 0 20 c 0 1.109 -0.891 2 -2 2 l 1 0 c 1.109 0 2 -0.891 2 -2 l 0 -20 c 0 -1.109 -0.891 -2 -2 -2 m -1 0" style="fill:#fbebcf;fill-opacity:1;stroke:none;fill-rule:nonzero"/>
   </g>
  </g>
 </g>
 <path d="m 23 14.5 -0.752 2.246 -2.248 0.752 2.248 0.75 0.752 2.252 0.752 -2.252 l 2.248 -0.75 -2.248 -0.752 -0.752 -2.246 m 7.91 0.5 c -0.518 -0.009 -1.033 0.232 -1.354 0.689 l -3.186 4.543 -8.578 12.227 c -0.514 0.733 -0.337 1.736 0.396 2.248 0.734 0.513 1.739 0.335 2.252 -0.396 l 8.578 -12.227 3.186 -4.545 c 0.514 -0.733 0.337 -1.734 -0.396 -2.246 -0.275 -0.192 -0.587 -0.288 -0.898 -0.293 z m -11.91 3.398 -1 2.998 l -3 1 3 1 l 1 2.998 l 1 -2.998 3 -1 -3 -1 -1 -2.998 z m 11.996 5.102 -1.252 3.752 -3.744 1.252 l 3.744 1.242 1.252 3.754 1.25 -3.754 3.756 -1.242 -3.756 -1.252 -1.25 -3.752 z" style="fill:#000;opacity:0.1;fill-opacity:1;stroke:none"/>
 <path d="m 22 13.5 l -0.752 2.246 l -2.248 0.752 l 2.248 0.75 l 0.752 2.252 l 0.752 -2.252 l 2.248 -0.75 l -2.248 -0.752 l -0.752 -2.246 z m -4 3.898 l -1 2.998 l -3 1 l 3 1 l 1 2.998 l 1 -2.998 l 3 -1 l -3 -1 l -1 -2.998 z m 11.996 5.102 l -1.252 3.752 l -3.744 1.252 l 3.744 1.242 l 1.252 3.754 l 1.25 -3.754 l 3.756 -1.242 l -3.756 -1.252 l -1.25 -3.752 z" style="fill:#e9db62;fill-opacity:1;stroke:none;fill-rule:nonzero"/>
 <g transform="matrix(-0.57951622,0.82610873,0.82763492,0.57844757,7.549812,16.503244)">
  <path d="m -7.9 16 c -0.73 -0.001 -2.102 0.448 -2.101 1.6 0.001 1.183 1.37 1.6 2.101 1.6 l 14.801 0 c 0.886 0 1.6 -0.713 1.6 -1.6 0 -0.886 -0.713 -1.6 -1.6 -1.6 z" style="fill:#566072;opacity:1;fill-opacity:1;stroke:none"/>
  <path d="m 29.91 14 c -0.518 -0.009 -1.033 0.232 -1.354 0.689 l -3.186 4.543 c 0.314 -0.449 1.247 -0.484 1.961 0.016 c 0.714 0.499 1.01 1.375 0.688 1.836 l 3.186 -4.545 c 0.514 -0.733 0.337 -1.734 -0.396 -2.246 c -0.275 -0.192 -0.587 -0.288 -0.898 -0.293 z" transform="matrix(-0.56769755,0.8107561,0.81225393,0.56874634,-9.1188151,-15.507216)" style="fill:#bc9094;opacity:1;fill-opacity:1;stroke:none"/>
 </g>
</svg>
