<svg viewBox="0 0 48 48" xmlns="http://www.w3.org/2000/svg" xmlns:xlink="http://www.w3.org/1999/xlink">
  <linearGradient id="a" gradientTransform="matrix(0 -1 1 0 -.0000015 47.999998)" gradientUnits="userSpaceOnUse" x1="1" x2="47">
    <stop offset="0" stop-color="#e94d4d"/>
    <stop offset="1" stop-color="#eb5f5f"/>
  </linearGradient>
  <path d="m24 1c22.703 0 23 .297 23 23 0 22.703-.297 23-23 23-22.703 0-23-.297-23-23 0-22.703.297-23 23-23z" fill="url(#a)"/>
  <path d="m14 12h20c1.105 0 2 .895 2 2v20c0 1.105-.895 2-2 2h-20c-1.105 0-2-.895-2-2v-20c0-1.105.895-2 2-2m0 0" opacity=".1" transform="translate(1 1)"/>
  <path d="m14 12h20c1.105 0 2 .895 2 2v20c0 1.105-.895 2-2 2h-20c-1.105 0-2-.895-2-2v-20c0-1.105.895-2 2-2m0 0" fill="#f9f9f9"/>
  <path d="m14 12c-1.109 0-2 .891-2 2v20c0 1.109.891 2 2 2h10v-24m-10 0" fill="#f9e4bf"/>
  <path d="m14 12c-1.109 0-2 .891-2 2v20c0 1.109.891 2 2 2h1c-1.109 0-2-.891-2-2v-20c0-1.109.891-2 2-2m-1 0" fill="#fff"/>
  <path d="m33 12c1.109 0 2 .891 2 2v20c0 1.109-.891 2-2 2h1c1.109 0 2-.891 2-2v-20c0-1.109-.891-2-2-2m-1 0" fill="#fbebcf"/>
  <path d="m23 14.5l-.752 2.246-2.248.752 2.248.75.752 2.252.752-2.252 2.248-.75-2.248-.752zm7.91.5c-.518-.009-1.033.232-1.354.689l-3.186 4.543-8.578 12.227c-.514.733-.337 1.736.396 2.248.734.513 1.739.335 2.252-.396l8.578-12.227 3.186-4.545c.514-.733.337-1.734-.396-2.246-.275-.192-.587-.288-.898-.293zm-11.91 3.398l-1 2.998-3 1 3 1 1 2.998 1-2.998 3-1-3-1zm11.996 5.102l-1.252 3.752-3.744 1.252 3.744 1.242 1.252 3.754 1.25-3.754 3.756-1.242-3.756-1.252z" opacity=".1"/>
  <path d="m22 13.5l-.752 2.246-2.248.752 2.248.75.752 2.252.752-2.252 2.248-.75-2.248-.752zm-4 3.898l-1 2.998-3 1 3 1 1 2.998 1-2.998 3-1-3-1zm11.996 5.102l-1.252 3.752-3.744 1.252 3.744 1.242 1.252 3.754 1.25-3.754 3.756-1.242-3.756-1.252z" fill="#e9db62"/>
  <g transform="matrix(-.57951622 .82610873 .82763492 .57844757 7.549812 16.503244)">
    <path d="m-7.9 16c-.73-.001-2.102.448-2.101 1.6.001 1.183 1.37 1.6 2.101 1.6h14.801c.886 0 1.6-.713 1.6-1.6 0-.886-.713-1.6-1.6-1.6z" fill="#566072"/>
    <path d="m29.91 14c-.518-.009-1.033.232-1.354.689l-3.186 4.543c.314-.449 1.247-.484 1.961.016.714.499 1.01 1.375.688 1.836l3.186-4.545c.514-.733.337-1.734-.396-2.246-.275-.192-.587-.288-.898-.293z" fill="#bc9094" transform="matrix(-.56769755 .8107561 .81225393 .56874634 -9.1188151 -15.507216)"/>
  </g>
</svg>
