<svg xmlns="http://www.w3.org/2000/svg" xmlns:xlink="http://www.w3.org/1999/xlink" viewBox="0 0 48 48">
 <defs>
  <linearGradient id="linearGradient3764" x1="1" x2="47" gradientUnits="userSpaceOnUse" gradientTransform="matrix(0,-1,1,0,-1.5e-6,47.999998)">
   <stop style="stop-color:#219ccf;stop-opacity:1"/>
   <stop offset="1" style="stop-color:#27a6dc;stop-opacity:1"/>
  </linearGradient>
 </defs>
 <g>
  
  
  
 </g>
 <g>
  <path d="m 47,24 C 47,46.703 46.703,47 24,47 1.297,47 1,46.703 1,24 1,1.297 1.297,1 24,1 46.703,1 47,1.297 47,24 z" style="fill:url(#linearGradient3764);fill-opacity:1"/>
 </g>
 <g>
  
 </g>
 <g>
  <g>
   <g transform="translate(1,1)">
    <g style="opacity:0.1">
     <!-- color: #61ced7 -->
     <g>
      <path d="m 12.773,17 22.453,0 c 0.98,0 1.773,0.793 1.773,1.773 l 0,12.453 c 0,0.98 -0.793,1.773 -1.773,1.773 l -22.453,0 C 11.793,32.999 11,32.206 11,31.226 L 11,18.773 C 11,17.793 11.793,17 12.773,17 m 0,0" style="fill:#000;fill-opacity:1;stroke:none;fill-rule:nonzero"/>
      <path d="m 11,25 0,6.219 C 11,32.199 11.801,33 12.781,33 l 22.438,0 C 36.199,33 37,32.199 37,31.219 L 37,25 m -26,0" style="fill:#000;fill-opacity:1;stroke:none;fill-rule:nonzero"/>
      <path d="m 15 20 18 0 0 2 -18 0 m 0 -2" style="fill:#000;fill-opacity:1;stroke:none;fill-rule:nonzero"/>
      <path d="M 16.875,11 C 16.383,11 16,11.383 16,11.875 l 0,9.125 16,0 0,-7 -3,-3 m -12.12,0" style="fill:#000;fill-opacity:1;stroke:none;fill-rule:nonzero"/>
      <path d="m 15 28 18 0 0 2 -18 0 m 0 -2" style="fill:#000;fill-opacity:1;stroke:none;fill-rule:nonzero"/>
      <path d="m 32,29 0,7.113 C 32,36.605 31.605,37 31.113,37 l -14.227,0 c -0.492,0 -0.887,-0.395 -0.887,-0.887 l 0,-7.113 m 16,0" style="fill:#000;fill-opacity:1;stroke:none;fill-rule:nonzero"/>
      <path d="m 29 11 0 3 3 0 m -3 -3" style="fill:#000;fill-opacity:1;stroke:none;fill-rule:nonzero"/>
      <use height="48" width="48" xlink:href="#SVGCleanerId_0"/>
      <path d="m 19 13 9 0 0 1 -9 0 m 0 -1" style="fill:#000;fill-opacity:0.702;stroke:none;fill-rule:nonzero"/>
      <path d="m 19 15 9 0 0 1 -9 0 m 0 -1" style="fill:#000;fill-opacity:0.702;stroke:none;fill-rule:nonzero"/>
      <path d="m 19 17 9 0 0 1 -9 0 m 0 -1" style="fill:#000;fill-opacity:0.702;stroke:none;fill-rule:nonzero"/>
      <path d="m 19 19 6 0 0 1 -6 0 m 0 -1" style="fill:#000;fill-opacity:0.702;stroke:none;fill-rule:nonzero"/>
     </g>
    </g>
   </g>
  </g>
 </g>
 <g>
  <g>
   <!-- color: #61ced7 -->
   <g>
    <path d="m 12.773,17 22.453,0 c 0.98,0 1.773,0.793 1.773,1.773 l 0,12.453 c 0,0.98 -0.793,1.773 -1.773,1.773 l -22.453,0 C 11.793,32.999 11,32.206 11,31.226 L 11,18.773 C 11,17.793 11.793,17 12.773,17 m 0,0" style="fill:#737481;fill-opacity:1;stroke:none;fill-rule:nonzero"/>
    <path d="m 11 25 0 6.219 c 0 0.98 0.801 1.781 1.781 1.781 l 22.438 0 c 0.98 0 1.781 -0.801 1.781 -1.781 l 0 -6.219 -26 0 m 4 3 18 0 0 2 -18 0 0 -2 z" style="fill:#3e4a5c;fill-opacity:1"/>
    <path d="m 15 20 18 0 0 2 -18 0 m 0 -2" style="fill:#3e4a5c;fill-opacity:1;stroke:none;fill-rule:nonzero"/>
    <path d="M 16.875,11 C 16.383,11 16,11.383 16,11.875 l 0,9.125 16,0 0,-7 -3,-3 m -12.12,0" style="fill:#ececde;fill-opacity:1;stroke:none;fill-rule:nonzero"/>
    <path d="m 32,29 0,7.113 C 32,36.605 31.605,37 31.113,37 l -14.227,0 c -0.492,0 -0.887,-0.395 -0.887,-0.887 l 0,-7.113 m 16,0" style="fill:#ececde;fill-opacity:1;stroke:none;fill-rule:nonzero"/>
    <path d="m 29 11 0 3 3 0 m -3 -3" style="fill:#fff;fill-opacity:1;stroke:none;fill-rule:nonzero"/>
    <path d="m 29 14 3 0 0 3 m -3 -3" id="SVGCleanerId_0" style="fill:#000;fill-opacity:0.2;stroke:none;fill-rule:nonzero"/>
   </g>
  </g>
 </g>
</svg>
