<svg viewBox="0 0 48 48" xmlns="http://www.w3.org/2000/svg" xmlns:xlink="http://www.w3.org/1999/xlink">
  <linearGradient id="a" gradientTransform="matrix(0 -1 1 0 -.0000015 47.999998)" gradientUnits="userSpaceOnUse" x1="1" x2="47">
    <stop offset="0" stop-color="#08985f"/>
    <stop offset="1" stop-color="#09ab6b"/>
  </linearGradient>
  <path d="m47 24c0 22.703-.297 23-23 23-22.703 0-23-.297-23-23 0-22.703.297-23 23-23 22.703 0 23 .297 23 23z" fill="url(#a)"/>
  <g fill="#f9f9f9" transform="matrix(1.0999984 0 0 1.1058146 2.597177 -5.3043246)">
    <path d="m27.657 23.24c-.642-.713-1.602-1.135-2.567-1.092-.745.058-1.492.148-2.24.211-2.143-2.453-5.194-3.964-8.354-4.605-1.303-.231-2.655-.467-3.961-.136-.327 1.329-.12 2.735.121 4.061l.004.013c.631 3.041 2.057 5.982 4.381 8.088.086.098.261.171.212.325-.081.65-.151 1.305-.209 1.96-.08 1.15.5 2.321 1.457 2.947 1.147.736 2.309 1.461 3.457 2.186.527.342 1.315.078 1.547-.504l.544-3.528c1.119-.043 2.03-.316 2.874-1.159.843-.843 1.109-1.895 1.127-2.867l3.398-.506c.714-.083 1.159-.983.781-1.591-.767-1.179-1.543-2.323-2.316-3.479-.078-.113-.164-.221-.256-.323m.282 7.463c-.211-.198-.544-.157-.733.031-.063.063-.111.142-.132.233-.366 1.596-1.609 2.822-3.202 3.236-.388.084-.512.568-.225.843l1.995 1.995c.286.292.728.059.77-.348.019-.323.025-.626.025-.947.775.242 1.522.496 2.289.741.362.11.759-.287.641-.652-.242-.77-.495-1.512-.745-2.279.324-.009.63-.011.953-.031.401-.042.683-.515.385-.801-.591-.596-1.422-1.428-2.02-2.02zm-6.944-6.936l.794.794-5.878 2.756-.794-.794zm-2.369-1.29l-.719.719-2.892-1.093 1.093 2.892-.719.719-1.475-4.28.433-.433 4.28 1.475zm2.878 2.878l1.475 4.28-.433.433-4.28-1.475.719-.719 2.892 1.093-1.093-2.892.719-.719z" fill="#000" opacity=".1"/>
    <path d="m26.748 22.338c-.642-.713-1.602-1.135-2.567-1.092-.745.058-1.492.148-2.24.211-2.143-2.453-5.194-3.964-8.354-4.605-1.303-.231-2.655-.467-3.961-.136-.327 1.329-.12 2.735.121 4.061l.004.013c.631 3.041 2.057 5.982 4.381 8.088.086.098.261.171.212.325-.081.65-.151 1.305-.209 1.96-.08 1.15.5 2.321 1.457 2.947 1.147.736 2.309 1.461 3.457 2.186.527.342 1.315.078 1.547-.504l.544-3.528c1.119-.043 2.03-.316 2.874-1.159.843-.843 1.109-1.895 1.127-2.867l3.398-.506c.714-.083 1.159-.983.781-1.591-.767-1.179-1.543-2.323-2.316-3.479-.078-.113-.164-.221-.256-.323zm.282 7.463c-.211-.198-.544-.157-.733.031-.063.063-.111.142-.132.233-.366 1.596-1.609 2.822-3.202 3.236-.388.084-.512.568-.225.843l1.995 1.995c.286.292.728.059.77-.348.019-.323.025-.626.025-.947.775.242 1.522.496 2.289.741.362.11.759-.287.641-.652-.242-.77-.495-1.512-.745-2.279.324-.009.63-.011.953-.031.401-.042.683-.515.385-.801-.591-.596-1.422-1.428-2.02-2.02zm-6.944-6.936l.794.794-5.878 2.756-.794-.794zm-2.369-1.29l-.719.719-2.892-1.093 1.093 2.892-.719.719-1.475-4.28.433-.433 4.28 1.475zm2.878 2.878l1.475 4.28-.433.433-4.28-1.475.719-.719 2.892 1.093-1.093-2.892.719-.719z"/>
  </g>
</svg>
