<svg viewBox="0 0 48 48" xmlns="http://www.w3.org/2000/svg" xmlns:xlink="http://www.w3.org/1999/xlink">
  <linearGradient id="a" gradientTransform="matrix(0 -1 1 0 -.0000015 47.999998)" gradientUnits="userSpaceOnUse" x1="1" x2="47">
    <stop offset="0" stop-color="#717171"/>
    <stop offset="1" stop-color="#7b7b7b"/>
  </linearGradient>
  <path d="m47 24c0 22.703-.297 23-23 23-22.703 0-23-.297-23-23 0-22.703.297-23 23-23 22.703 0 23 .297 23 23z" fill="url(#a)"/>
  <g opacity=".1" transform="translate(1 1)">
    <path d="m26 9h-4v15h4m0-15"/>
    <path d="m20 9.5c-6.363 1.766-11 7.613-11 14.469 0 8.23 6.715 15.03 15 15.03 8.285 0 14.996-6.797 14.996-15.03 0-6.855-4.641-12.703-10.996-14.469v3.875c4.184 1.645 7.25 5.75 7.25 10.594 0 6.316-5.05 11.375-11.25 11.375-6.207 0-11.25-5.063-11.25-11.375 0-4.891 3.02-9.04 7.25-10.664v-3.813m0 .008"/>
  </g>
  <path d="m26 9h-4v15h4m0-15" fill="#f9f9f9"/>
  <path d="m20 9.5c-6.363 1.766-11 7.613-11 14.469 0 8.23 6.715 15.03 15 15.03 8.285 0 14.996-6.797 14.996-15.03 0-6.855-4.641-12.703-10.996-14.469v3.875c4.184 1.645 7.25 5.75 7.25 10.594 0 6.316-5.05 11.375-11.25 11.375-6.207 0-11.25-5.063-11.25-11.375 0-4.891 3.02-9.04 7.25-10.664v-3.813m0 .008" fill="#f9f9f9"/>
</svg>
