<svg viewBox="0 0 48 48" xmlns="http://www.w3.org/2000/svg" xmlns:xlink="http://www.w3.org/1999/xlink">
  <linearGradient id="a" gradientTransform="matrix(0 -1 1 0 -.0000015 47.999998)" gradientUnits="userSpaceOnUse" x1="1" x2="47">
    <stop offset="0" stop-color="#e4e4e4"/>
    <stop offset="1" stop-color="#eee"/>
  </linearGradient>
  <path d="m47 24c0 22.703-.297 23-23 23-22.703 0-23-.297-23-23 0-22.703.297-23 23-23 22.703 0 23 .297 23 23z" fill="url(#a)"/>
  <path d="m24 12v12h-12v2h12v12h2v-12h12v-2h-12v-12zm8 1a5 5 0 0 0-5 5 5 5 0 0 0  5 5 5 5 0 0 0  5-5 5 5 0 0 0-5-5zm-17.19.408l-1.414 1.414 3.182 3.182-3.182 3.182 1.414 1.414 3.182-3.182 3.182 3.182 1.414-1.414-3.182-3.182 3.182-3.182-1.414-1.414-3.182 3.182zm17.19 1.592a3 3 0 0 1 3 3 3 3 0 0 1-3 3 3 3 0 0 1-3-3 3 3 0 0 1  3-3zm-14 12a5 5 0 0 0-5 5 5 5 0 0 0  5 5 5 5 0 0 0  5-5 5 5 0 0 0-5-5zm10.814.408l-1.414 1.414 3.182 3.182-3.182 3.182 1.414 1.414 3.182-3.182 3.182 3.182 1.414-1.414-3.182-3.182 3.182-3.182-1.414-1.414-3.182 3.182zm-10.814 1.592a3 3 0 0 1 3 3 3 3 0 0 1-3 3 3 3 0 0 1-3-3 3 3 0 0 1  3-3z" fill-opacity=".098"/>
  <path d="m23 11v12h-12v2h12v12h2v-12h12v-2h-12v-12z" fill="#636363"/>
  <path d="m31 12a5 5 0 0 0-5 5 5 5 0 0 0  5 5 5 5 0 0 0  5-5 5 5 0 0 0-5-5zm0 2a3 3 0 0 1 3 3 3 3 0 0 1-3 3 3 3 0 0 1-3-3 3 3 0 0 1  3-3z" fill="#e67878"/>
  <path d="m17 26a5 5 0 0 0-5 5 5 5 0 0 0  5 5 5 5 0 0 0  5-5 5 5 0 0 0-5-5zm0 2a3 3 0 0 1 3 3 3 3 0 0 1-3 3 3 3 0 0 1-3-3 3 3 0 0 1  3-3z" fill="#e67878"/>
  <path d="m13.814 12.408l-1.414 1.414 3.182 3.182-3.182 3.182 1.414 1.414 3.182-3.182 3.182 3.182 1.414-1.414-3.182-3.182 3.182-3.182-1.414-1.414-3.182 3.182z" fill="#8484bc"/>
  <path d="m27.814 26.409l-1.414 1.414 3.182 3.182-3.182 3.182 1.414 1.414 3.182-3.182 3.182 3.182 1.414-1.414-3.182-3.182 3.182-3.182-1.414-1.414-3.182 3.182z" fill="#8484bc"/>
</svg>
