<svg xmlns="http://www.w3.org/2000/svg" viewBox="0 0 48 48">
 <defs>
  <linearGradient id="linearGradient3764" x1="1" x2="47" gradientUnits="userSpaceOnUse" gradientTransform="matrix(0,-1,1,0,-1.5e-6,47.999998)">
   <stop style="stop-color:#c3c3c3;stop-opacity:1"/>
   <stop offset="1" style="stop-color:#cdcdcd;stop-opacity:1"/>
  </linearGradient>
 </defs>
 <g>
  
  
  
 </g>
 <g>
  <path d="m 47,24 C 47,46.703 46.703,47 24,47 1.297,47 1,46.703 1,24 1,1.297 1.297,1 24,1 46.703,1 47,1.297 47,24 z" style="fill:url(#linearGradient3764);fill-opacity:1"/>
 </g>
 <g>
  
 </g>
 <path d="m 20.02,12 c -2,0 -6,0.25 -6,3.25 L 14.01,28 l 7.01,0 0.006,6.75 c 0,3 4,3.25 6,3.25 2,0 6,-0.25 6,-3.25 l 0,-2.75 -6,0 0,-4 1.99,0 c 1.662,0 3,-1.115 3,-2.5 l 0,-1.5 2,0 c 1.108,0 2,0.669 2,1.5 l 0,2 c 0,0.831 -0.892,1.5 -2,1.5 l -5.99,0 0,2 6.99,0 c 1.662,0 3,-1.115 3,-2.5 l 0,-4 c 0,-1.385 -1.338,-2.5 -3,-2.5 l -3,0 0,-0.5 c 0,-1.385 -1.338,-2.5 -3,-2.5 l -8,0 0,2 7,0 c 0.872,0 1.604,0.418 1.879,1 l -8.879,0 0.004,4 -1,0 0,-8 6,0 0,-2.75 c 0,-3 -4,-3.25 -6,-3.25 z m 3,2 c 0.552,0 1,0.448 1,1 0,0.552 -0.448,1 -1,1 -0.552,0 -1,-0.448 -1,-1 0,-0.552 0.448,-1 1,-1 z m 4.01,10 2.99,0 0,0.5 c 0,0.831 -0.892,1.5 -2,1.5 l -0.99,0 z m 2.99,10 c 0.552,0 1,0.448 1,1 0,0.552 -0.448,1 -1,1 -0.552,0 -1,-0.448 -1,-1 0,-0.552 0.448,-1 1,-1 z" style="fill:#000;opacity:0.1;fill-opacity:1;stroke:none;fill-rule:nonzero"/>
 <path d="m 19.01,11 c -2,0 -6,0.25 -6,3.25 L 13,27 28.01,27 c -0.062,-0.743 -0.255,-2.02 -1,-2 l -8,0 0,-8 6,0 0,-2.75 c 0,-3 -4,-3.25 -6,-3.25 m 3,2 c 0.552,0 1,0.448 1,1 0,0.552 -0.448,1 -1,1 -0.552,0 -1,-0.448 -1,-1 0,-0.552 0.448,-1 1,-1 z" style="fill:#4085b0;fill-opacity:1;stroke:none;fill-rule:nonzero"/>
 <path d="m 20.01 21 0.01 12.75 c 0 3 4 3.25 6 3.25 2 0 6 -0.25 6 -3.25 l 0 -2.75 -6 0 0 -8 6.99 0 c 1.108 0 2 0.669 2 1.5 l 0 2 c 0 0.831 -0.892 1.5 -2 1.5 l -5.99 0 0 2 6.99 0 c 1.662 0 3 -1.115 3 -2.5 l 0 -4 c 0 -1.385 -1.338 -2.5 -3 -2.5 m -5 12 c 0.552 0 1 0.448 1 1 0 0.552 -0.448 1 -1 1 -0.552 0 -1 -0.448 -1 -1 0 -0.552 0.448 -1 1 -1 z" style="fill:#f9f747;fill-opacity:1;stroke:none;fill-rule:nonzero"/>
 <path d="m 27.01 27 1 0 c 1.662 0 3 -1.115 3 -2.5 l 0 -4 c 0 -1.385 -1.338 -2.5 -3 -2.5 l -8 0 0 2 7 0 c 1.108 0 2 0.669 2 1.5 l 0 2 c 0 0.831 -0.892 1.5 -2 1.5 z" style="fill:#4085b0;fill-opacity:1;stroke:none;fill-rule:nonzero"/>
 <path d="m 31.01 21 0 2 1 0 0 -2 z m -5 4 0 2 1 0 0 -2 z" style="fill:#000;opacity:0.1;fill-opacity:1;stroke:none"/>
</svg>
