<svg viewBox="0 0 48 48" xmlns="http://www.w3.org/2000/svg" xmlns:xlink="http://www.w3.org/1999/xlink">
  <linearGradient id="a" gradientTransform="matrix(0 -1 1 0 -.0000015 47.999998)" gradientUnits="userSpaceOnUse" x1="1" x2="47">
    <stop offset="0" stop-color="#c3c3c3"/>
    <stop offset="1" stop-color="#cdcdcd"/>
  </linearGradient>
  <path d="m47 24c0 22.703-.297 23-23 23-22.703 0-23-.297-23-23 0-22.703.297-23 23-23 22.703 0 23 .297 23 23z" fill="url(#a)"/>
  <path d="m20.02 12c-2 0-6 .25-6 3.25l-.01 12.75h7.01l.006 6.75c0 3 4 3.25 6 3.25 2 0 6-.25 6-3.25v-2.75h-6v-4h1.99c1.662 0 3-1.115 3-2.5v-1.5h2c1.108 0 2 .669 2 1.5v2c0 .831-.892 1.5-2 1.5h-5.99v2h6.99c1.662 0 3-1.115 3-2.5v-4c0-1.385-1.338-2.5-3-2.5h-3v-.5c0-1.385-1.338-2.5-3-2.5h-8v2h7c .872 0 1.604.418 1.879 1h-8.879l.004 4h-1v-8h6v-2.75c0-3-4-3.25-6-3.25zm3 2c .552 0 1 .448 1 1 0 .552-.448 1-1 1-.552 0-1-.448-1-1 0-.552.448-1 1-1zm4.01 10h2.99v.5c0 .831-.892 1.5-2 1.5h-.99zm2.99 10c .552 0 1 .448 1 1 0 .552-.448 1-1 1-.552 0-1-.448-1-1 0-.552.448-1 1-1z" opacity=".1"/>
  <path d="m19.01 11c-2 0-6 .25-6 3.25l-.01 12.75h15.01c-.062-.743-.255-2.02-1-2h-8v-8h6v-2.75c0-3-4-3.25-6-3.25m3 2c .552 0 1 .448 1 1 0 .552-.448 1-1 1-.552 0-1-.448-1-1 0-.552.448-1 1-1z" fill="#4085b0"/>
  <path d="m20.01 21l .01 12.75c0 3 4 3.25 6 3.25 2 0 6-.25 6-3.25v-2.75h-6v-8h6.99c1.108 0 2 .669 2 1.5v2c0 .831-.892 1.5-2 1.5h-5.99v2h6.99c1.662 0 3-1.115 3-2.5v-4c0-1.385-1.338-2.5-3-2.5m-5 12c .552 0 1 .448 1 1 0 .552-.448 1-1 1-.552 0-1-.448-1-1 0-.552.448-1 1-1z" fill="#f9f747"/>
  <path d="m27.01 27h1c1.662 0 3-1.115 3-2.5v-4c0-1.385-1.338-2.5-3-2.5h-8v2h7c1.108 0 2 .669 2 1.5v2c0 .831-.892 1.5-2 1.5z" fill="#4085b0"/>
  <path d="m31.01 21v2h1v-2zm-5 4v2h1v-2z" opacity=".1"/>
</svg>
