<svg viewBox="0 0 48 48" xmlns="http://www.w3.org/2000/svg" xmlns:xlink="http://www.w3.org/1999/xlink">
  <linearGradient id="a" gradientTransform="matrix(0 -1 1 0 -.0000015 47.999998)" gradientUnits="userSpaceOnUse" x1="1" x2="47">
    <stop offset="0" stop-color="#219ccf"/>
    <stop offset="1" stop-color="#27a6dc"/>
  </linearGradient>
  <path d="m47 24c0 22.703-.297 23-23 23-22.703 0-23-.297-23-23 0-22.703.297-23 23-23 22.703 0 23 .297 23 23z" fill="url(#a)"/>
  <path d="m24 9h .004c8.281 0 14.996 6.715 14.996 15v .004c0 8.281-6.715 14.996-14.996 14.996h-.004c-8.285 0-15-6.715-15-14.996v-.004c0-8.285 6.715-15 15-15m0 0" fill-rule="evenodd" opacity=".1" transform="translate(1 1)"/>
  <path d="m24 9h .004c8.281 0 14.996 6.715 14.996 15v .004c0 8.281-6.715 14.996-14.996 14.996h-.004c-8.285 0-15-6.715-15-14.996v-.004c0-8.285 6.715-15 15-15m0 0" fill="#f9f9f9" fill-rule="evenodd"/>
  <path d="m15 16v16h8v-3h-5v-10h5v-3" fill="#535353"/>
  <path d="m33.01 16v16h-8.01v-3h5.01v-10h-5.01v-3" fill="#535353"/>
</svg>
