<svg xmlns="http://www.w3.org/2000/svg" viewBox="0 0 48 48">
 <defs>
  <linearGradient id="linearGradient3764" x1="1" x2="47" gradientUnits="userSpaceOnUse" gradientTransform="matrix(0,-1,1,0,-1.5e-6,47.999998)">
   <stop style="stop-color:#219ccf;stop-opacity:1"/>
   <stop offset="1" style="stop-color:#27a6dc;stop-opacity:1"/>
  </linearGradient>
 </defs>
 <g>
  
  
  
 </g>
 <g>
  <path d="m 47,24 C 47,46.703 46.703,47 24,47 1.297,47 1,46.703 1,24 1,1.297 1.297,1 24,1 46.703,1 47,1.297 47,24 z" style="fill:url(#linearGradient3764);fill-opacity:1"/>
 </g>
 <g>
  <g>
   <g transform="translate(1,1)">
    <g style="opacity:0.1">
     <!-- color: #27a6dc -->
     <g>
      <path d="m 24 9 l 0.004 0 c 8.281 0 14.996 6.715 14.996 15 l 0 0.004 c 0 8.281 -6.715 14.996 -14.996 14.996 l -0.004 0 c -8.285 0 -15 -6.715 -15 -14.996 l 0 -0.004 c 0 -8.285 6.715 -15 15 -15 m 0 0" style="fill:#000;fill-opacity:1;stroke:none;fill-rule:evenodd"/>
     </g>
    </g>
   </g>
  </g>
 </g>
 <g>
  <g>
   <!-- color: #27a6dc -->
   <g>
    <path d="m 24,9 0.004,0 C 32.285,9 39,15.715 39,24 l 0,0.004 C 39,32.285 32.285,39 24.004,39 L 24,39 C 15.715,39 9,32.285 9,24.004 L 9,24 C 9,15.715 15.715,9 24,9 m 0,0" style="fill:#f9f9f9;fill-opacity:1;stroke:none;fill-rule:evenodd"/>
    <path d="m 15 16 0 16 8 0 0 -3 -5 0 0 -10 5 0 0 -3" style="fill:#535353;fill-opacity:1;stroke:none;fill-rule:nonzero"/>
    <path d="m 33.01 16 0 16 -8.01 0 0 -3 5.01 0 0 -10 -5.01 0 0 -3" style="fill:#535353;fill-opacity:1;stroke:none;fill-rule:nonzero"/>
   </g>
  </g>
 </g>
 <g>
  
 </g>
</svg>
