<svg viewBox="0 0 48 48" xmlns="http://www.w3.org/2000/svg" xmlns:xlink="http://www.w3.org/1999/xlink">
  <linearGradient id="a" gradientUnits="userSpaceOnUse" x2="0" y1="47" y2="1">
    <stop offset="0" stop-color="#575757"/>
    <stop offset="1" stop-color="#616161"/>
  </linearGradient>
  <path d="m47 24c0 22.703-.297 23-23 23-22.703 0-23-.297-23-23 0-22.703.297-23 23-23 22.703 0 23 .297 23 23z" fill="url(#a)"/>
  <g transform="matrix(1.0259162 -.22357668 .23317416 1.124724 -5.8287907 3.9769849)">
    <path d="m28.713 14.619c0 0-5.125-.753-5.313-.804-.187-.051 2.102 1.198 2.102 1.198l.285 1.877-3.262 2.608.135 3.5 2.934-1.501 4.675-1.931 4.02.398 1.132-.355-2.219-2.719-4.491-2.27zm-6.574-.795l-3.216.344-3.402 2.571-2.789 3.702.433 3.755 1.745 2.617 2.977-.148 3.945-3.446-.022-3.913 2.737-2.469.047-1.68-2.456-1.332zm12.284 6.915l-4.681.148 2.223 1.878.425 3.801 4.349-.245-.664-4.743zm-6.374.747l-4.675 2.023-4.066 2.469-.142 3.207 3.969 1.383 2.93-.687 4.395-2.172 1.132-2.125-.943-2.567-2.599-1.531zm7.882 5.785l-4.579.43-3.94 2.483 1.908 2.336 2.219-.122 2.294-.878c0 0 1.089-.798 1.132-1.095.051-.293.967-3.156.967-3.156z" opacity=".1"/>
    <path d="m12.426 23.16l1.746 2.617 2.977-.148 3.945-3.445-.023-3.914 2.738-2.469.047-1.68-2.457-1.332-3.215.344-3.402 2.57-2.789 3.703m.434 3.754" fill="#a9b2ed"/>
    <path d="m18.426 28.15l3.969 1.383 2.93-.688 4.395-2.172 1.133-2.125-.945-2.566-2.598-1.531-4.676 2.023-4.066 2.469m-.141 3.211" fill="#7abb70"/>
    <path d="m36 25.285l-4.348.246-.426-3.801-2.223-1.879 4.68-.148 1.652.84m.664 4.742" fill="#f8f864"/>
    <path d="m21.922 21.961l-.137-3.5 3.262-2.609-.285-1.875c0 0-2.289-1.25-2.102-1.199.188.051 5.313.805 5.313.805l4.492 2.27 2.219 2.719-1.133.355-4.02-.398-4.676 1.93m-2.938 1.512" fill="#e67175"/>
    <path d="m26.672 29.15l3.941-2.484 4.578-.43c0 0-.914 2.863-.965 3.156-.043.297-1.133 1.094-1.133 1.094l-2.293.879-2.219.121m-1.91-2.336" fill="#e891ea"/>
  </g>
</svg>
