<svg viewBox="0 0 48 48" xmlns="http://www.w3.org/2000/svg" xmlns:xlink="http://www.w3.org/1999/xlink">
  <linearGradient id="a" gradientTransform="matrix(0 -1 1 0 0 48)" gradientUnits="userSpaceOnUse" x1="1" x2="47">
    <stop offset="0" stop-color="#f4ed74"/>
    <stop offset="1" stop-color="#f6ef86"/>
  </linearGradient>
  <linearGradient id="b" gradientTransform="translate(37.000026 3.9999998)" gradientUnits="userSpaceOnUse" x2="0" y1="33" y2="7">
    <stop offset="0" stop-color="#f0772f"/>
    <stop offset="1" stop-color="#f19039"/>
  </linearGradient>
  <path d="m1 24c0-22.703.297-23 23-23 22.703 0 23 .297 23 23 0 22.703-.297 23-23 23-22.703 0-23-.297-23-23z" fill="url(#a)"/>
  <path d="m21 12c-.5 0-2.25 2-2.5 2h-1.25c-.5 0-2.25 1.75-2.25 2.25v1.5c0 .25-1.989 2-2 2.5-.011.5 3.5 12.25 4 12.75.5.5 6 5 7.5 5 .333 0 .667 0 1 0 1.5 0 7-4.5 7.5-5 .5-.5 4.01-12.25 4-12.75-.011-.497-2-2.25-2-2.5v-1.5c0-.5-1.75-2.25-2.25-2.25h-1.25c-.25 0-2-2-2.5-2-2.667 0-5.333 0-8 0z" opacity=".1"/>
  <path d="m20 11c-.5 0-2.25 2-2.5 2h-1.25c-.5 0-2.25 1.75-2.25 2.25v1.5c0 .25-1.989 2-2 2.5-.011.5 3.5 12.25 4 12.75.5.5 6 5 7.5 5 .333 0 .667 0 1 0 1.5 0 7-4.5 7.5-5 .5-.5 4.01-12.25 4-12.75-.011-.497-2-2.25-2-2.5v-1.5c0-.5-1.75-2.25-2.25-2.25h-1.25c-.25 0-2-2-2.5-2-2.667 0-5.333 0-8 0z" fill="url(#b)"/>
  <path d="m25 15.492c-.498 0-.994.171-1.5.508-1.5 1-3.5-.5-4-.5-.5 0-3.5 3.643-3.5 5 0 1 3.75 3.3 3.75 4 0 .5-.75.74-.75 1.801 0 .699 1 1.949 2 1.949 1 0 3.502-1.963 3.5-2.449v-.301c0-.6-2.25-1.356-2.25-2.5 0-1 .75-1.37.75-2.5 0-.972-2-1.25-3.5-1.5-.5 0 1.5-1.645 4.25.133.696.45-.75 2.229-.5 3.867.375.35 1.063.525 1.75.525.688 0 1.375-.175 1.75-.525.25-1.638-1.196-3.417-.5-3.867 2.75-1.778 4.75-.133 4.25-.133-1.5.25-3.5.528-3.5 1.5 0 1.13.75 1.5.75 2.5 0 1.144-2.25 1.9-2.25 2.5v.301c-.002.486 2.5 2.449 3.5 2.449 1 0 2-1.25 2-1.949 0-1.06-.75-1.301-.75-1.801 0-.7 3.75-3 3.75-4 0-1.357-3-5-3.5-5-.5 0-2.5 1.5-4 .5-.506-.337-1-.508-1.5-.508zm0 11.908c-1 0-3.25 1.55-3.25 1.85 0 .3 2.25 2.75 3.25 2.75 1 0 3.25-2.45 3.25-2.75 0-.3-2.25-1.85-3.25-1.85z" opacity=".1"/>
  <path d="m24 14.492c-.498 0-.994.171-1.5.508-1.5 1-3.5-.5-4-.5-.5 0-3.5 3.643-3.5 5 0 1 3.75 3.3 3.75 4 0 .5-.75.74-.75 1.801 0 .699 1 1.949 2 1.949 1 0 3.502-1.963 3.5-2.449v-.301c0-.6-2.25-1.356-2.25-2.5 0-1 .75-1.37.75-2.5 0-.972-2-1.25-3.5-1.5-.5 0 1.5-1.645 4.25.133.696.45-.75 2.229-.5 3.867.375.35 1.063.525 1.75.525.688 0 1.375-.175 1.75-.525.25-1.638-1.196-3.417-.5-3.867 2.75-1.778 4.75-.133 4.25-.133-1.5.25-3.5.528-3.5 1.5 0 1.13.75 1.5.75 2.5 0 1.144-2.25 1.9-2.25 2.5v.301c-.002.486 2.5 2.449 3.5 2.449 1 0 2-1.25 2-1.949 0-1.06-.75-1.301-.75-1.801 0-.7 3.75-3 3.75-4 0-1.357-3-5-3.5-5-.5 0-2.5 1.5-4 .5-.506-.337-1-.508-1.5-.508zm0 11.908c-1 0-3.25 1.55-3.25 1.85 0 .3 2.25 2.75 3.25 2.75 1 0 3.25-2.45 3.25-2.75 0-.3-2.25-1.85-3.25-1.85z" fill="#f9f9f9"/>
</svg>
