<svg xmlns="http://www.w3.org/2000/svg" viewBox="0 0 48 48">
 <defs>
  <linearGradient id="linearGradient3825" x1="1" x2="47" gradientUnits="userSpaceOnUse" gradientTransform="matrix(0,-1,1,0,0,48)">
   <stop style="stop-color:#f4ed74;stop-opacity:1"/>
   <stop offset="1" style="stop-color:#f6ef86;stop-opacity:1"/>
  </linearGradient>
  <linearGradient id="linearGradient4202" y1="33" x2="0" y2="7" gradientUnits="userSpaceOnUse" gradientTransform="translate(37.000026,3.9999998)">
   <stop style="stop-color:#f0772f;stop-opacity:1"/>
   <stop offset="1" style="stop-color:#f19039;stop-opacity:1"/>
  </linearGradient>
 </defs>
 <g>
  
  
  
 </g>
 <path d="M 1,24 C 1,1.297 1.297,1 24,1 46.703,1 47,1.297 47,24 47,46.703 46.703,47 24,47 1.297,47 1,46.703 1,24 z" style="fill:url(#linearGradient3825);fill-opacity:1"/>
 <g>
  
 </g>
 <path d="m 21 12 c -0.5 0 -2.25 2 -2.5 2 l -1.25 0 c -0.5 0 -2.25 1.75 -2.25 2.25 l 0 1.5 c 0 0.25 -1.989 2 -2 2.5 -0.011 0.5 3.5 12.25 4 12.75 0.5 0.5 6 5 7.5 5 0.333 0 0.667 0 1 0 1.5 0 7 -4.5 7.5 -5 0.5 -0.5 4.01 -12.25 4 -12.75 -0.011 -0.497 -2 -2.25 -2 -2.5 l 0 -1.5 c 0 -0.5 -1.75 -2.25 -2.25 -2.25 l -1.25 0 c -0.25 0 -2 -2 -2.5 -2 -2.667 0 -5.333 0 -8 0 z" style="fill:#000;opacity:0.1;fill-opacity:1;stroke:none"/>
 <path d="m 20 11 c -0.5 0 -2.25 2 -2.5 2 l -1.25 0 c -0.5 0 -2.25 1.75 -2.25 2.25 l 0 1.5 c 0 0.25 -1.989 2 -2 2.5 -0.011 0.5 3.5 12.25 4 12.75 0.5 0.5 6 5 7.5 5 0.333 0 0.667 0 1 0 1.5 0 7 -4.5 7.5 -5 0.5 -0.5 4.01 -12.25 4 -12.75 -0.011 -0.497 -2 -2.25 -2 -2.5 l 0 -1.5 c 0 -0.5 -1.75 -2.25 -2.25 -2.25 l -1.25 0 c -0.25 0 -2 -2 -2.5 -2 -2.667 0 -5.333 0 -8 0 z" style="fill:url(#linearGradient4202);opacity:1;fill-opacity:1;stroke:none"/>
 <path d="m 25 15.492 c -0.498 0 -0.994 0.171 -1.5 0.508 c -1.5 1 -3.5 -0.5 -4 -0.5 c -0.5 0 -3.5 3.643 -3.5 5 0 1 3.75 3.3 3.75 4 c 0 0.5 -0.75 0.74 -0.75 1.801 0 0.699 1 1.949 2 1.949 c 1 0 3.502 -1.963 3.5 -2.449 l 0 -0.301 c 0 -0.6 -2.25 -1.356 -2.25 -2.5 0 -1 0.75 -1.37 0.75 -2.5 c 0 -0.972 -2 -1.25 -3.5 -1.5 c -0.5 0 1.5 -1.645 4.25 0.133 0.696 0.45 -0.75 2.229 -0.5 3.867 0.375 0.35 1.063 0.525 1.75 0.525 0.688 0 1.375 -0.175 1.75 -0.525 0.25 -1.638 -1.196 -3.417 -0.5 -3.867 2.75 -1.778 4.75 -0.133 4.25 -0.133 -1.5 0.25 -3.5 0.528 -3.5 1.5 0 1.13 0.75 1.5 0.75 2.5 0 1.144 -2.25 1.9 -2.25 2.5 l 0 0.301 c -0.002 0.486 2.5 2.449 3.5 2.449 1 0 2 -1.25 2 -1.949 0 -1.06 -0.75 -1.301 -0.75 -1.801 0 -0.7 3.75 -3 3.75 -4 0 -1.357 -3 -5 -3.5 -5 -0.5 0 -2.5 1.5 -4 0.5 -0.506 -0.337 -1 -0.508 -1.5 -0.508 z m 0 11.908 c -1 0 -3.25 1.55 -3.25 1.85 0 0.3 2.25 2.75 3.25 2.75 1 0 3.25 -2.45 3.25 -2.75 0 -0.3 -2.25 -1.85 -3.25 -1.85 z" style="fill:#000;opacity:0.1;fill-opacity:1;stroke:none"/>
 <path d="m 24 14.492 c -0.498 0 -0.994 0.171 -1.5 0.508 c -1.5 1 -3.5 -0.5 -4 -0.5 c -0.5 0 -3.5 3.643 -3.5 5 0 1 3.75 3.3 3.75 4 c 0 0.5 -0.75 0.74 -0.75 1.801 0 0.699 1 1.949 2 1.949 c 1 0 3.502 -1.963 3.5 -2.449 l 0 -0.301 c 0 -0.6 -2.25 -1.356 -2.25 -2.5 0 -1 0.75 -1.37 0.75 -2.5 c 0 -0.972 -2 -1.25 -3.5 -1.5 c -0.5 0 1.5 -1.645 4.25 0.133 0.696 0.45 -0.75 2.229 -0.5 3.867 0.375 0.35 1.063 0.525 1.75 0.525 0.688 0 1.375 -0.175 1.75 -0.525 0.25 -1.638 -1.196 -3.417 -0.5 -3.867 2.75 -1.778 4.75 -0.133 4.25 -0.133 -1.5 0.25 -3.5 0.528 -3.5 1.5 0 1.13 0.75 1.5 0.75 2.5 0 1.144 -2.25 1.9 -2.25 2.5 l 0 0.301 c -0.002 0.486 2.5 2.449 3.5 2.449 1 0 2 -1.25 2 -1.949 0 -1.06 -0.75 -1.301 -0.75 -1.801 0 -0.7 3.75 -3 3.75 -4 0 -1.357 -3 -5 -3.5 -5 -0.5 0 -2.5 1.5 -4 0.5 -0.506 -0.337 -1 -0.508 -1.5 -0.508 z m 0 11.908 c -1 0 -3.25 1.55 -3.25 1.85 0 0.3 2.25 2.75 3.25 2.75 1 0 3.25 -2.45 3.25 -2.75 0 -0.3 -2.25 -1.85 -3.25 -1.85 z" style="fill:#f9f9f9;opacity:1;fill-opacity:1;stroke:none"/>
</svg>
