<svg xmlns="http://www.w3.org/2000/svg" viewBox="0 0 48 48">
 <defs>
  <linearGradient id="linearGradient3764" x1="1" x2="47" gradientUnits="userSpaceOnUse" gradientTransform="matrix(0,-1,1,0,-1.5e-6,47.999998)">
   <stop style="stop-color:#003c80;stop-opacity:1"/>
   <stop offset="1" style="stop-color:#004794;stop-opacity:1"/>
  </linearGradient>
 </defs>
 <g>
  
  
  
 </g>
 <g>
  <path d="m 47,24 C 47,46.703 46.703,47 24,47 1.297,47 1,46.703 1,24 1,1.297 1.297,1 24,1 46.703,1 47,1.297 47,24 z" style="fill:url(#linearGradient3764);fill-opacity:1"/>
 </g>
 <g>
  <g>
   <g transform="translate(1,1)">
    <g style="opacity:0.1">
     <!-- color: #004794 -->
     <g>
      <path d="m 34.555 19.613 c -1.828 -4.02 -5.918 -6.613 -10.527 -6.613 c -4.719 0 -9.04 2.832 -10.73 7.04 l 3.574 1.324 c 1.133 -2.809 4.01 -4.688 7.156 -4.688 c 3.03 0 5.715 1.68 6.957 4.301 l -2.605 1 l 6.668 3.684 l 1.953 -6.973 m -2.445 0.93" style="fill:#000;fill-opacity:1;stroke:none;fill-rule:nonzero"/>
      <path d="m 24.03 31.34 c -3.01 0 -5.75 -1.734 -6.977 -4.344 l 2.563 -0.949 l -6.598 -3.605 l -2.023 6.793 l 2.469 -0.91 c 1.789 4.01 5.977 6.68 10.563 6.68 c 4.73 0 8.922 -2.719 10.676 -6.926 l -3.559 -1.355 c -1.168 2.805 -3.965 4.617 -7.117 4.617 m 0 0" style="fill:#000;fill-opacity:1;stroke:none;fill-rule:nonzero"/>
     </g>
    </g>
   </g>
  </g>
 </g>
 <g>
  <g>
   <!-- color: #004794 -->
   <g>
    <path d="m 34.555 19.613 c -1.828 -4.02 -5.918 -6.613 -10.527 -6.613 c -4.719 0 -9.04 2.832 -10.73 7.04 l 3.574 1.324 c 1.133 -2.809 4.01 -4.688 7.156 -4.688 c 3.03 0 5.715 1.68 6.957 4.301 l -2.605 1 l 6.668 3.684 l 1.953 -6.973 m -2.445 0.93" style="fill:#f9f9f9;fill-opacity:1;stroke:none;fill-rule:nonzero"/>
    <path d="m 24.03 31.34 c -3.01 0 -5.75 -1.734 -6.977 -4.344 l 2.563 -0.949 l -6.598 -3.605 l -2.023 6.793 l 2.469 -0.91 c 1.789 4.01 5.977 6.68 10.563 6.68 c 4.73 0 8.922 -2.719 10.676 -6.926 l -3.559 -1.355 c -1.168 2.805 -3.965 4.617 -7.117 4.617 m 0 0" style="fill:#f9f9f9;fill-opacity:1;stroke:none;fill-rule:nonzero"/>
   </g>
  </g>
 </g>
 <g>
  
 </g>
</svg>
