<svg viewBox="0 0 48 48" xmlns="http://www.w3.org/2000/svg" xmlns:xlink="http://www.w3.org/1999/xlink">
  <linearGradient id="a" gradientTransform="matrix(0 -1 1 0 -.0000015 47.999998)" gradientUnits="userSpaceOnUse" x1="1" x2="47">
    <stop offset="0" stop-color="#003c80"/>
    <stop offset="1" stop-color="#004794"/>
  </linearGradient>
  <path d="m47 24c0 22.703-.297 23-23 23-22.703 0-23-.297-23-23 0-22.703.297-23 23-23 22.703 0 23 .297 23 23z" fill="url(#a)"/>
  <g opacity=".1" transform="translate(1 1)">
    <path d="m34.555 19.613c-1.828-4.02-5.918-6.613-10.527-6.613-4.719 0-9.04 2.832-10.73 7.04l3.574 1.324c1.133-2.809 4.01-4.688 7.156-4.688 3.03 0 5.715 1.68 6.957 4.301l-2.605 1 6.668 3.684 1.953-6.973m-2.445.93"/>
    <path d="m24.03 31.34c-3.01 0-5.75-1.734-6.977-4.344l2.563-.949-6.598-3.605-2.023 6.793 2.469-.91c1.789 4.01 5.977 6.68 10.563 6.68 4.73 0 8.922-2.719 10.676-6.926l-3.559-1.355c-1.168 2.805-3.965 4.617-7.117 4.617m0 0"/>
  </g>
  <path d="m34.555 19.613c-1.828-4.02-5.918-6.613-10.527-6.613-4.719 0-9.04 2.832-10.73 7.04l3.574 1.324c1.133-2.809 4.01-4.688 7.156-4.688 3.03 0 5.715 1.68 6.957 4.301l-2.605 1 6.668 3.684 1.953-6.973m-2.445.93" fill="#f9f9f9"/>
  <path d="m24.03 31.34c-3.01 0-5.75-1.734-6.977-4.344l2.563-.949-6.598-3.605-2.023 6.793 2.469-.91c1.789 4.01 5.977 6.68 10.563 6.68 4.73 0 8.922-2.719 10.676-6.926l-3.559-1.355c-1.168 2.805-3.965 4.617-7.117 4.617m0 0" fill="#f9f9f9"/>
</svg>
