<svg viewBox="0 0 48 48" xmlns="http://www.w3.org/2000/svg" xmlns:xlink="http://www.w3.org/1999/xlink">
  <linearGradient id="a" gradientUnits="userSpaceOnUse" x2="0" y1="47" y2="1">
    <stop offset="0" stop-color="#575757"/>
    <stop offset="1" stop-color="#616161"/>
  </linearGradient>
  <path d="m47 24c0 22.703-.297 23-23 23-22.703 0-23-.297-23-23 0-22.703.297-23 23-23 22.703 0 23 .297 23 23z" fill="url(#a)"/>
  <circle cx="25" cy="25" fill-opacity=".098" r="15"/>
  <path d="m34.607 34.607c-4.572 4.572-11.56 5.7-17.339 2.798-5.778-2.902-9.05-9.18-8.11-15.578.937-6.398 5.869-11.475 12.237-12.598 3.257 4.327 2.494 9.659 2.605 14.772 5.177 2.168 9.404 5.127 10.607 10.607z" fill="#f2a78a"/>
  <path d="m37.595 17.661c2.665 5.715 1.471 12.487-2.988 16.946l-10.607-10.607c3.109-5.275 7.488-7.727 13.595-6.339z" fill="#c6d6e8"/>
  <path d="m21.395 9.228a15 15 0 0 1 16.2 8.433l-13.595 6.339" fill="#f3f29d"/>
  <path d="m24 17v2.061c-.842.109-1.519.399-2.02.877-.652.62-.979 1.505-.979 2.656 0 .919.233 1.649.699 2.191.471.542 1.214.938 2.229 1.186l1.012.256c.616.155 1.025.331 1.229.527.208.196.313.474.313.836 0 .403-.152.713-.455.93-.303.217-.74.326-1.311.326-.561 0-1.145-.099-1.752-.295-.602-.201-1.228-.498-1.875-.891v2.518c.647.274 1.296.48 1.943.619.324.07.646.123.969.158v2.045h2v-2.066c.85-.123 1.522-.405 2-.855.666-.625.998-1.576.998-2.852 0-.971-.238-1.719-.713-2.246-.475-.527-1.277-.92-2.404-1.178l-1.113-.256c-.53-.124-.898-.271-1.102-.441-.199-.176-.297-.419-.297-.729 0-.413.148-.718.447-.914.299-.196.76-.295 1.385-.295.471 0 .972.072 1.502.217.53.145 1.072.359 1.629.643v-2.447c-.629-.191-1.238-.333-1.826-.426-.172-.029-.339-.044-.508-.064v-2.09z" fill-opacity=".098" fill-rule="evenodd"/>
  <path d="m23 16v2.061c-.842.109-1.519.399-2.02.877-.652.62-.979 1.505-.979 2.656 0 .919.233 1.649.699 2.191.471.542 1.214.938 2.229 1.186l1.012.256c.616.155 1.025.331 1.229.527.208.196.313.474.313.836 0 .403-.152.713-.455.93-.303.217-.74.326-1.311.326-.561 0-1.145-.099-1.752-.295-.602-.201-1.228-.498-1.875-.891v2.518c.647.274 1.296.48 1.943.619.324.07.646.123.969.158v2.045h2v-2.066c.85-.123 1.522-.405 2-.855.666-.625.998-1.576.998-2.852 0-.971-.238-1.719-.713-2.246-.475-.527-1.277-.92-2.404-1.178l-1.113-.256c-.53-.124-.898-.271-1.102-.441-.199-.176-.297-.419-.297-.729 0-.413.148-.718.447-.914.299-.196.76-.295 1.385-.295.471 0 .972.072 1.502.217.53.145 1.072.359 1.629.643v-2.447c-.629-.191-1.238-.333-1.826-.426-.172-.029-.339-.044-.508-.064v-2.09z" fill="#4d4d4d" fill-rule="evenodd"/>
</svg>
