<svg viewBox="0 0 48 48" xmlns="http://www.w3.org/2000/svg" xmlns:xlink="http://www.w3.org/1999/xlink">
  <linearGradient id="a" gradientTransform="matrix(0 -1 1 0 -.0000015 47.999998)" gradientUnits="userSpaceOnUse" x1="1" x2="47">
    <stop offset="0" stop-color="#64a7a8"/>
    <stop offset="1" stop-color="#70afaf"/>
  </linearGradient>
  <path d="m47 24c0 22.703-.297 23-23 23-22.703 0-23-.297-23-23 0-22.703.297-23 23-23 22.703 0 23 .297 23 23z" fill="url(#a)"/>
  <g opacity=".1" transform="translate(1 1)">
    <path d="m25.18 21.988c-.093-.004-.167.001-.23.018v.021c-.421-.035-1.228.057-2.887 1.629-1.949 1.828-2.066 3.543-2.066 3.543l.002.016c0 0 .367.218.959.465.175.345.569.883 1.582 1.473 1.43.832 2.125.864 2.469.844h.004c.043.004.086.008.141.008.387-.008 1.077-.133 2.307-.848 1.058-.616 1.445-1.178 1.607-1.518.573-.241.93-.451.93-.451 0 0-.117-1.695-2.07-3.543-1.465-1.383-2.289-1.629-2.75-1.645l.004-.012z" transform="translate(-1 -1)"/>
    <path d="m11.05 14.988c.32 2.141 2.238 3.434 4.285 2.891 2.047-.543 3.445-2.719 3.121-4.863-.32-2.141-2.238-3.434-4.281-2.891-2.047.543-3.445 2.723-3.125 4.863m0 0" fill-rule="evenodd"/>
    <path d="m36.461 14.988c-.32 2.141-2.242 3.434-4.285 2.891-2.047-.543-3.445-2.719-3.125-4.863.32-2.141 2.238-3.434 4.285-2.891 2.047.543 3.445 2.723 3.125 4.863m0 0" fill-rule="evenodd"/>
  </g>
  <g transform="translate(-.00039348)">
    <path d="m24.02 25.57c.086.008 1.148.098 2.332.289 1.137.18 1.848.457 1.848.457 0 0-.102.887-1.738 1.84-1.23.715-1.918.84-2.305.848-.055 0-.098-.004-.141-.008 0 0-.004 0-.004 0-.344.02-1.039-.012-2.469-.844-1.637-.953-1.734-1.84-1.734-1.84 0 0 .707-.277 1.844-.457 1.184-.188 2.246-.281 2.332-.285v-.004c0 0 .016 0 .016 0 0 0 .016 0 .016 0m .004.004" fill="#c04c25"/>
    <path d="m19 26.2c0 0 .117-1.715 2.066-3.543 1.949-1.848 2.758-1.66 3.098-1.613.34.047-.082 2.332-.082 2.332l-.066 4.289c0 0-1.344-.18-2.816-.563-1.352-.352-2.199-.887-2.199-.887m0-.016" fill="#fad5b9"/>
    <path d="m24.18 21c .461.016 1.285.262 2.75 1.645 1.953 1.848 2.07 3.543 2.07 3.543 0 0-.848.535-2.203.887-1.469.383-2.816.559-2.816.559l-.027-1.789v-4.84c.063-.008.137-.02.23-.016m-.004.012" fill="#ff7f28"/>
    <path d="m11.05 14.988c.32 2.141 2.238 3.434 4.285 2.891 2.047-.543 3.445-2.719 3.121-4.863-.32-2.141-2.238-3.434-4.281-2.891-2.047.543-3.445 2.723-3.125 4.863m0 0" fill="#192028" fill-rule="evenodd"/>
    <path d="m14.805 13.176c-.59.426-1.281.465-1.551.09-.27-.379-.008-1.031.582-1.461.59-.426 1.285-.465 1.551-.086.27.379.008 1.031-.582 1.457m0 0" fill="#fff" fill-opacity=".765" fill-rule="evenodd"/>
    <path d="m12.434 12.844c-.324.531-.477 1.16-.383 1.773.203 1.363 1.52 2.16 2.938 1.781 1.422-.375 2.402-1.785 2.199-3.145-.086-.559-.352-1.023-.738-1.348.699.375 1.211 1.055 1.34 1.926.246 1.637-.938 3.328-2.645 3.781-1.703.453-3.285-.504-3.531-2.141-.141-.941.191-1.898.82-2.629m0 0" fill="#fff" fill-opacity=".102" fill-rule="evenodd"/>
    <path d="m36.461 14.988c-.32 2.141-2.242 3.434-4.285 2.891-2.047-.543-3.445-2.719-3.125-4.863.32-2.141 2.238-3.434 4.285-2.891 2.047.543 3.445 2.723 3.125 4.863m0 0" fill="#192028" fill-rule="evenodd"/>
    <path d="m30.977 12.06c.367-.629.988-.941 1.387-.703.395.242.418.945.047 1.57-.371.625-.992.941-1.387.699-.398-.238-.418-.941-.047-1.566m0 0" fill="#fff" fill-opacity=".765" fill-rule="evenodd"/>
    <path d="m34.656 12.422c.324.535.477 1.16.383 1.777-.203 1.359-1.52 2.156-2.938 1.781-1.422-.379-2.402-1.785-2.199-3.148.082-.555.352-1.02.738-1.348-.703.379-1.211 1.059-1.34 1.926-.246 1.637.938 3.328 2.645 3.781 1.703.453 3.285-.504 3.531-2.141.141-.938-.191-1.898-.82-2.629m0 0" fill="#fff" fill-opacity=".102" fill-rule="evenodd"/>
  </g>
</svg>
