<svg viewBox="0 0 48 48" xmlns="http://www.w3.org/2000/svg" xmlns:xlink="http://www.w3.org/1999/xlink">
  <linearGradient id="a" gradientTransform="matrix(0 -1 1 0 -.0000015 47.999998)" gradientUnits="userSpaceOnUse" x1="1" x2="47">
    <stop offset="0" stop-color="#ef4343"/>
    <stop offset="1" stop-color="#f15555"/>
  </linearGradient>
  <path d="m47 24c0 22.703-.297 23-23 23-22.703 0-23-.297-23-23 0-22.703.297-23 23-23 22.703 0 23 .297 23 23z" fill="url(#a)"/>
  <g opacity=".1" transform="translate(1 1)">
    <path d="m26.625 11c-.172 0-.355.039-.516.141-.156.098-.297.262-.289.477.02.078.012.152.008.234 0 .242.211.438.477.438.258 0 .473-.195.473-.438 0-.238-.207-.434-.469-.438.09-.055.223-.082.32-.09.375 0 .652.195.852.488.203.297.301.684.301 1-.02.789-.441 1.461-1.074 1.969-.629.516-1.461.863-2.25.996l.063.324c.855-.145 1.738-.516 2.426-1.07.691-.559 1.176-1.316 1.195-2.215.008-.387-.105-.828-.355-1.184-.234-.363-.641-.641-1.148-.641m-.004.004"/>
    <path d="m21.367 11c .168 0 .352.039.512.141.16.098.297.262.293.477-.023.078-.012.152-.008.234 0 .242-.215.438-.48.438-.258 0-.469-.195-.469-.438 0-.238.203-.434.465-.438-.086-.055-.223-.082-.316-.09-.375 0-.652.195-.855.488-.199.297-.301.684-.297 1 .016.789.441 1.461 1.074 1.969.625.516 1.461.863 2.25.996l-.063.324c-.855-.145-1.742-.516-2.43-1.07-.684-.559-1.172-1.316-1.195-2.215-.004-.387.109-.828.355-1.184.246-.363.641-.641 1.16-.641m.004.004"/>
    <path d="m23.656 14.156c-2.035.082-4 1.02-5.313 2.438-.68.68-1.332 1.445-1.625 2.344.004.141.051.27.094.406-.434.027-.949-.039-1.25.313-.547.559-.699 1.348-.969 2.031-1.227 3.906-.582 8.371 2.031 11.688 1.418 1.785 3.52 3.172 5.938 3.531.402.035.879.133 1.25-.063.137-.109.32-.051.438.063.504.238 1.074 0 1.594-.063 2.469-.5 4.578-2.055 5.906-4 2.457-3.492 2.867-8.07 1.344-11.969-.203-.465-.383-.988-.781-1.344-.266-.172-.617-.23-.938-.25.207-.391.09-.844-.219-1.156-1.109-1.672-2.773-3.121-4.844-3.688-.871-.227-1.758-.285-2.656-.281m-6.438 6.06l.281 1.063 1.094.375-1 .566-.063 1.094-.875-.719-1.156.313.469-1.023-.594-.816c.008-.023.023-.043.031-.066l1.063.066.75-.844m3.656 1.023l2.125 2.223.688-.066 2.469-.281-1.625 2.5 1.313 2.656-2.156-.438-.938-.188-2.344 1.969-.281-2.906-2.781-1.438 2.906-1.156m10.188-1.531l.281 1.031 1.094.375-1 .563-.063 1.094-.875-.688-1.125.281.438-1-.656-.906 1.188.063m-13.402 4.344l.875 1.656 2 .25-1.438 1.281.344 1.813-1.781-.844-.406.156c-.469-.77-.805-1.473-1.094-2.375l.625-.281m15.469-1.5l.5 2.375 1.227.469c-.566 1.262-1.363 2.473-2.281 3.375l-1-.875-2.594.531 1.094-2.219-1.344-2.125 2.625.281m-7 3.156l.273 1.031 1.102.406-1 .563-.031 1.063-.906-.688-1.125.281.441-1-.656-.906 1.188.094.719-.844m-.004 0"/>
    <path d="m23.91 14.625c-.012 0-.023 0-.043.004-.711.051-1.438.113-2.117.336-1.941.625-3.426 2.082-4.441 3.695-.152.246-.047.594.266.617 2.176.004 4.355 0 6.531.004 0 0 0 0 .008 0 2.176-.004 4.355 0 6.527-.004.313-.023.422-.371.27-.617-1.023-1.613-2.504-3.07-4.445-3.695-.68-.223-1.406-.285-2.117-.336-.184-.012-.152.039-.234.039-.086-.004-.055-.047-.203-.043m0 0"/>
    <path d="m29.14 18.254c0 2.07-2.273 3.754-5.074 3.754-2.805 0-5.074-1.684-5.074-3.754 0-2.074 2.27-3.75 5.074-3.75 2.805 0 5.074 1.676 5.074 3.75m0 0" fill-rule="evenodd"/>
    <path d="m21.992 11.734c0 .145-.129.266-.281.266-.152 0-.273-.121-.273-.266 0-.148.121-.27.273-.27.152 0 .281.121.281.27m0 0" fill-rule="evenodd"/>
    <path d="m26.566 11.734c0 .145-.125.266-.277.266-.152 0-.281-.121-.281-.266 0-.148.129-.27.281-.27.152 0 .277.121.277.27m0 0" fill-rule="evenodd"/>
  </g>
  <path d="m26.625 11c-.172 0-.355.039-.516.141-.156.098-.297.262-.289.477.02.078.012.152.008.234 0 .242.211.438.477.438.258 0 .473-.195.473-.438 0-.238-.207-.434-.469-.438.09-.055.223-.082.32-.09.375 0 .652.195.852.488.203.297.301.684.301 1-.02.789-.441 1.461-1.074 1.969-.629.516-1.461.863-2.25.996l.063.324c.855-.145 1.738-.516 2.426-1.07.691-.559 1.176-1.316 1.195-2.215.008-.387-.105-.828-.355-1.184-.234-.363-.641-.641-1.148-.641m-.004.004" fill="#f9f9f9"/>
  <path d="m21.367 11c .168 0 .352.039.512.141.16.098.297.262.293.477-.023.078-.012.152-.008.234 0 .242-.215.438-.48.438-.258 0-.469-.195-.469-.438 0-.238.203-.434.465-.438-.086-.055-.223-.082-.316-.09-.375 0-.652.195-.855.488-.199.297-.301.684-.297 1 .016.789.441 1.461 1.074 1.969.625.516 1.461.863 2.25.996l-.063.324c-.855-.145-1.742-.516-2.43-1.07-.684-.559-1.172-1.316-1.195-2.215-.004-.387.109-.828.355-1.184.246-.363.641-.641 1.16-.641m.004.004" fill="#f9f9f9"/>
  <path d="m23.656 14.156c-2.035.082-4 1.02-5.313 2.438-.68.68-1.332 1.445-1.625 2.344.004.141.051.27.094.406-.434.027-.949-.039-1.25.313-.547.559-.699 1.348-.969 2.031-1.227 3.906-.582 8.371 2.031 11.688 1.418 1.785 3.52 3.172 5.938 3.531.402.035.879.133 1.25-.063.137-.109.32-.051.438.063.504.238 1.074 0 1.594-.063 2.469-.5 4.578-2.055 5.906-4 2.457-3.492 2.867-8.07 1.344-11.969-.203-.465-.383-.988-.781-1.344-.266-.172-.617-.23-.938-.25.207-.391.09-.844-.219-1.156-1.109-1.672-2.773-3.121-4.844-3.688-.871-.227-1.758-.285-2.656-.281m-6.438 6.06l.281 1.063 1.094.375-1 .566-.063 1.094-.875-.719-1.156.313.469-1.023-.594-.816c.008-.023.023-.043.031-.066l1.063.066.75-.844m3.656 1.023l2.125 2.223.688-.066 2.469-.281-1.625 2.5 1.313 2.656-2.156-.438-.938-.188-2.344 1.969-.281-2.906-2.781-1.438 2.906-1.156m10.188-1.531l.281 1.031 1.094.375-1 .563-.063 1.094-.875-.688-1.125.281.438-1-.656-.906 1.188.063m-13.402 4.344l.875 1.656 2 .25-1.438 1.281.344 1.813-1.781-.844-.406.156c-.469-.77-.805-1.473-1.094-2.375l.625-.281m15.469-1.5l.5 2.375 1.227.469c-.566 1.262-1.363 2.473-2.281 3.375l-1-.875-2.594.531 1.094-2.219-1.344-2.125 2.625.281m-7 3.156l.273 1.031 1.102.406-1 .563-.031 1.063-.906-.688-1.125.281.441-1-.656-.906 1.188.094.719-.844m-.004 0" fill="#f9f9f9"/>
  <path d="m23.91 14.625c-.012 0-.023 0-.043.004-.711.051-1.438.113-2.117.336-1.941.625-3.426 2.082-4.441 3.695-.152.246-.047.594.266.617 2.176.004 4.355 0 6.531.004 0 0 0 0 .008 0 2.176-.004 4.355 0 6.527-.004.313-.023.422-.371.27-.617-1.023-1.613-2.504-3.07-4.445-3.695-.68-.223-1.406-.285-2.117-.336-.184-.012-.152.039-.234.039-.086-.004-.055-.047-.203-.043m0 0" fill="#f9f9f9"/>
  <path d="m29.14 18.254c0 2.07-2.273 3.754-5.074 3.754-2.805 0-5.074-1.684-5.074-3.754 0-2.074 2.27-3.75 5.074-3.75 2.805 0 5.074 1.676 5.074 3.75m0 0" fill="#f9f9f9" fill-rule="evenodd"/>
  <path d="m21.992 11.734c0 .145-.129.266-.281.266-.152 0-.273-.121-.273-.266 0-.148.121-.27.273-.27.152 0 .281.121.281.27m0 0" fill="#f9f9f9" fill-rule="evenodd"/>
  <path d="m26.566 11.734c0 .145-.125.266-.277.266-.152 0-.281-.121-.281-.266 0-.148.129-.27.281-.27.152 0 .277.121.277.27m0 0" fill="#f9f9f9" fill-rule="evenodd"/>
</svg>
