<svg viewBox="0 0 48 48" xmlns="http://www.w3.org/2000/svg" xmlns:xlink="http://www.w3.org/1999/xlink">
  <linearGradient id="a" gradientUnits="userSpaceOnUse" x1=".938" x2="46.938">
    <stop offset="0" stop-color="#5faee1"/>
    <stop offset="1" stop-color="#4ea5de"/>
  </linearGradient>
  <path d="m23.938.953c22.703 0 23 .297 23 23 0 22.703-.297 23-23 23-22.703 0-23-.297-23-23 0-22.703.297-23 23-23z" fill="url(#a)" transform="matrix(0 -1 1 0 -.01562497 47.890625)"/>
  <path d="m24.5 13c-1.657 0-3 1.343-3 3 0 .709.245 1.362.656 1.875l-2.375 5.188c-1.614.261-2.944 1.381-3.5 2.875-.375-.031-.741-.044-1.063-.031-.699.028-1.274.159-1.75.375-.82.372-1.316 1.03-1.375 1.719-.009.111-.014.233 0 .344.101.799.812 1.435 1.813 1.594.712.113 1.588-.005 2.594-.406.518 1.019 1.411 1.799 2.5 2.188v.281l-3 2h-1v3h11v-3h-1l-3-2v-.281c1.742-.621 3-2.264 3-4.219 0-1.153-.443-2.204-1.156-3l1.625-5.688c.238-.083.481-.176.688-.313.567.701 1.096 1.346 1.563 1.844.677.723 1.251 1.235 1.906 1.438.328.101.707.101 1.031-.031.324-.132.576-.375.813-.688.391-.515.745-1.252 1.094-2.25.141.058.285.094.438.125v6.06h-2v2h1l-1.313 1.531-.563.656 1.656 2-.344-2.031h.031l1-1.156h.531v1l .5 1.469.5-1.469v-1h .531l1 1.156-.313 2.031 1.625-2-.531-.656-1.313-1.531h1v-2h-.406c.233-1.654.911-3.679 1.219-4.188.094-.155.205-.317.25-.531.045-.214.005-.467-.094-.688-.17-.38-.779-1.196-1.375-1.75.247-.388.406-.85.406-1.344 0-1.381-1.119-2.5-2.5-2.5-1.071 0-1.987.679-2.344 1.625l-3.813-.5c-.38-1.221-1.498-2.125-2.844-2.125zm3 3.063l3.531.156c-.011.094-.031.184-.031.281 0 .151.037.294.063.438l-3.656-.219c.053-.214.089-.427.094-.656zm-.438 1.469l4.188.031c.113.238.258.467.438.656-.359 1.078-.707 1.863-1 2.25-.165.218-.301.301-.406.344-.106.043-.19.079-.344.031-.307-.095-.833-.508-1.469-1.188-.445-.476-.974-1.136-1.563-1.844.064-.085.101-.189.156-.281zm7.813 1.063c.571.518 1.143 1.307 1.188 1.406.025.055.007.031 0 .063-.007.031-.024.134-.094.25-.237.391-1.106 2.779-1.375 4.688h-.594v-6.06c.312-.064.617-.176.875-.344zm-19.594 8.313c.236-.009.495.024.781.063-.021.177-.063.349-.063.531 0 .356.047.699.125 1.031-.885.364-1.576.483-2.063.406-.684-.109-.93-.448-.969-.75-.007-.057-.008-.126 0-.188.036-.268.237-.565.781-.813.335-.152.813-.257 1.406-.281z" opacity=".1"/>
  <g transform="translate(.00016625)">
    <path d="m25.13 15.906l-.75.625c.925 1.127 1.667 2.089 2.344 2.813.677.723 1.251 1.235 1.906 1.438.328.101.707.101 1.031-.031.324-.132.576-.375.813-.688.474-.625.887-1.549 1.313-2.906l-.969-.313c-.411 1.312-.794 2.189-1.125 2.625-.165.218-.301.301-.406.344-.106.043-.19.079-.344.031-.307-.095-.833-.508-1.469-1.188-.636-.679-1.417-1.62-2.344-2.75z" fill="#0e334c"/>
    <path d="m17.215447 25.475194l4.784553-10.475194 3 1-3 10.5z" fill="#e4ae00"/>
    <path d="m14 33h11v3h-11z" fill="#0e334c"/>
    <path d="m15 33l3-2v-2h3v2l3 2z" fill="#e4ae00"/>
    <path d="m25.522 15l5.478.274v-.552l-5.655-.722" fill="#0e334c"/>
    <path d="m24.05 16.516l6.98.036-.031-.552-7.229-.475" fill="#0e334c"/>
    <path d="m18 26l5-11 1.313.68-3.656 11.32" fill="#0e334c"/>
    <path d="m14.219 24.906c-.699.028-1.274.159-1.75.375-.82.372-1.316 1.03-1.375 1.719h1c .036-.268.237-.565.781-.813.335-.152.813-.257 1.406-.281.49-.02 1.106.092 1.781.219l-.031.875h1l .031-1.344v-.406l-.375-.094c-.936-.215-1.77-.278-2.469-.25z" fill="#0e334c"/>
    <circle cx="19.487" cy="28" fill="#ffcf36" r="4" transform="matrix(1.125 0 0 1.125 -2.4233056 -4.9999998)"/>
    <circle cx="19.487" cy="28" fill="#0e334c" r="4" transform="matrix(.625 0 0 .625 7.3203857 9)"/>
    <circle cx="23.406" cy="14.531" fill="#ffcf36" r="2.594" transform="matrix(1.1566265 0 0 1.1566265 -3.572289 -1.807229)"/>
    <circle cx="23.406" cy="14.531" fill="#0e334c" r="2.594" transform="matrix(.57831319 0 0 .57831319 9.9638571 6.5963864)"/>
    <path d="m32 17h1v8h-1z" fill="#0e334c"/>
    <path d="m34.31 16.594l-.625.813c.634.484 1.319 1.496 1.368 1.607.025.055.007.031 0 .063-.007.031-.024.134-.094.25-.281.463-1.462 3.719-1.462 5.675h1c0-1.719.931-4.557 1.306-5.175.094-.155.205-.317.25-.531.045-.214.005-.467-.094-.688-.196-.441-.973-1.497-1.65-2.01z" fill="#0e334c"/>
    <circle cx="32" cy="16" fill="#ffcf36" r="2" transform="matrix(1.25 0 0 1.25 -7.5 -4.5)"/>
    <circle cx="32" cy="16" fill="#0e334c" r="1" transform="matrix(1.5 0 0 1.5 -15.5 -8.5)"/>
    <path d="m30 24h5v2h-5z" fill="#ffcf36"/>
    <path d="m31 26h3v1h-3z" fill="#0e334c"/>
    <path d="m11.09 27c-.009.111-.014.233 0 .344.101.799.812 1.435 1.813 1.594 1 .159 2.301-.108 3.875-1.031l-.75-.781c-1.304.71-2.329.914-2.969.813-.684-.109-.93-.448-.969-.75-.007-.057-.008-.126 0-.188z" fill="#0e334c"/>
    <path d="m40.457-.514h1v2h-1z" fill="#0e334c" transform="rotate(40.71558426)"/>
    <path d="m32 26h1v2h-1z" fill="#0e334c"/>
    <path d="m-8.81 41.885h1v2h-1z" fill="#0e334c" transform="matrix(-.75795694 .65230459 .65230459 .75795694 0 0)"/>
    <path d="m29.699 27.528l-.559.66 1.648 2.01-.336-2.047z" fill="#0e334c"/>
    <path d="m35.3 27.518l.559.66-1.648 2.01.336-2.047z" fill="#0e334c"/>
    <path d="m32 28l .492 1.469.508-1.469" fill="#0e334c"/>
  </g>
</svg>
