<svg viewBox="0 0 48 48" xmlns="http://www.w3.org/2000/svg" xmlns:xlink="http://www.w3.org/1999/xlink">
  <linearGradient id="a" gradientTransform="matrix(0 -1 1 0 -.0000015 47.999998)" gradientUnits="userSpaceOnUse" x1="1" x2="47">
    <stop offset="0" stop-color="#3d3d3d"/>
    <stop offset="1" stop-color="#474747"/>
  </linearGradient>
  <path d="m47 24c0 22.703-.297 23-23 23-22.703 0-23-.297-23-23 0-22.703.297-23 23-23 22.703 0 23 .297 23 23z" fill="url(#a)"/>
  <path d="m13.801 15c-.443 0-.801.358-.801.801v5.398c0 .443.358.801.801.801h2.328l4.293 7.107c-.248.136-.422.39-.422.693v5.398c0 .443.358.801.801.801h8.398c.443 0 .801-.358.801-.801v-5.398c0-.272-.145-.5-.352-.645l4.322-7.156h2.229c.443 0 .801-.358.801-.801v-5.398c0-.443-.358-.801-.801-.801h-8.398c-.443 0-.801.358-.801.801v5.398c0 .443.358.801.801.801h2.314l-4.227 7h-1.676l-4.229-7h2.215c.443 0 .801-.358.801-.801v-5.398c0-.443-.358-.801-.801-.801h-8.398z" fill-opacity=".098" fill-rule="evenodd"/>
  <path d="m17 17.721c-.942.568-1.884 1.135-2.826 1.703l7.518 12.449 2.826-1.703z" fill="#808080" fill-rule="evenodd"/>
  <path d="m31.1 17.721c.942.568 1.884 1.135 2.826 1.703l-7.518 12.449-2.826-1.703" fill="#808080" fill-rule="evenodd"/>
  <path d="m16.834 18.406l-1.969 1.188 7 11.594 1.969-1.188z" fill="#969696" fill-rule="evenodd"/>
  <rect fill="#c37c14" fill-rule="evenodd" height="7" rx=".8" width="10" x="12" y="14"/>
  <path d="m31.27 18.406l1.969 1.188-7 11.594-1.969-1.188z" fill="#969696" fill-rule="evenodd"/>
  <rect fill="#5e9d23" fill-rule="evenodd" height="7" rx=".8" width="10" x="26" y="14"/>
  <rect fill="#3465a4" fill-rule="evenodd" height="7" rx=".8" width="10" x="19" y="28"/>
  <rect fill="#f3ad47" fill-rule="evenodd" height="5" rx=".2" width="8" x="13" y="15"/>
  <rect fill="#82d530" fill-rule="evenodd" height="5" rx=".2" width="8" x="27" y="15"/>
  <rect fill="#729fcf" fill-rule="evenodd" height="5" rx=".2" width="8" x="20" y="29"/>
</svg>
