<svg viewBox="0 0 48 48" xmlns="http://www.w3.org/2000/svg" xmlns:xlink="http://www.w3.org/1999/xlink">
  <linearGradient id="a" gradientTransform="matrix(0 -1 1 0 -.0000015 47.999998)" gradientUnits="userSpaceOnUse" x1="1" x2="47">
    <stop offset="0" stop-color="#d1a9a1"/>
    <stop offset="1" stop-color="#d8b5ae"/>
  </linearGradient>
  <path d="m47 24c0 22.703-.297 23-23 23-22.703 0-23-.297-23-23 0-22.703.297-23 23-23 22.703 0 23 .297 23 23z" fill="url(#a)"/>
  <g transform="translate(-.00004947)">
    <path d="m29.848 12.05l-8.65 1.262-9.197-1.012.003 25.48 9.378-.977 7.982 1.197 8.636-.58.008-24.67" fill-opacity=".098"/>
    <path d="m28.848 11.05l-8.65 1.262-9.197-1.012.003 25.48 9.378-.977 7.982 1.197 8.636-.58.008-24.67z" fill="#2d2d2d" transform="translate(.00004947)"/>
    <path d="m28.877 12.06l-8.68 1.285-8.191-.926-.006 23.254 8.402-.875 8 1.199 7.598-.506-.006-22.82z" fill="#ffcca3" transform="translate(.00004947)"/>
    <path d="m204.42 10.35l-39.99-33.464-24.444-11.606-14.1-29.616-23.982-21.888-.462-12.868 7.973-30.909" fill="none" stroke="#4c4336" stroke-width="2.364" transform="matrix(.126886 0 0 .126886 7.757504 34.151562)"/>
    <path d="m162.55-24.838l37.62-18.471" fill="none" stroke="#4c4336" stroke-width="2.364" transform="matrix(.126886 0 0 .126886 7.757504 34.151562)"/>
    <path d="m155.99-28.29l30.539-25.737" fill="none" stroke="#4c4336" stroke-width="2.364" transform="matrix(.126886 0 0 .126886 7.757504 34.151562)"/>
    <path d="m147.5-31.703l-26.322 18.441" fill="none" stroke="#4c4336" stroke-width="2.364" transform="matrix(.126886 0 0 .126886 7.757504 34.151562)"/>
    <path d="m138.44-39.8l-28.877 13.11-17.301-14.346-46.18 2.863" fill="none" stroke="#4c4336" stroke-width="2.364" transform="matrix(.126886 0 0 .126886 7.757504 34.151562)"/>
    <path d="m124.93-66.06l21.642-25.737 41.838-27.892 14.592-2.155h.462" fill="none" stroke="#4c4336" stroke-width="2.364" transform="matrix(.126886 0 0 .126886 7.757504 34.151562)"/>
    <path d="m136.23-80.22l-4.71-18.01 20.688-11.175" fill="none" stroke="#4c4336" stroke-width="2.364" transform="matrix(.126886 0 0 .126886 7.757504 34.151562)"/>
    <path d="m143.28-104.26l-.462-18.872 13.145.862 37.62-32.2" fill="none" stroke="#4c4336" stroke-width="2.364" transform="matrix(.126886 0 0 .126886 7.757504 34.151562)"/>
    <path d="m101.44-97.37l22.566-20.626" fill="none" stroke="#4c4336" stroke-width="2.364" transform="matrix(.126886 0 0 .126886 7.757504 34.151562)"/>
    <path d="m100.95-93.52l-20.2 7.727-23.52-18.471-8.466-1.262" fill="none" stroke="#4c4336" stroke-width="2.364" transform="matrix(.126886 0 0 .126886 7.757504 34.151562)"/>
    <path d="m102.36-102.97l-32.448-17.15-19.734.862 3.294-14.623" fill="none" stroke="#4c4336" stroke-width="2.364" transform="matrix(.126886 0 0 .126886 7.757504 34.151562)"/>
    <path d="m19.77 12.808v22.547h1v-22.547z" fill="#2d2d2d"/>
    <path d="m28 11.5v24.891h1v-24.891z" fill="#2d2d2d"/>
    <path d="m17097.2 140.57c0 5.429-4.184 9.871-9.333 9.871-5.149 0-9.333-4.442-9.333-9.871 0-5.429 4.184-9.801 9.333-9.801 5.149 0 9.333 4.372 9.333 9.801m0 0" fill="#a00" stroke="#a00" stroke-width="2.587" transform="matrix(.0606908 0 0 .0554009 -1002.6311 10.630156)"/>
    <path d="m17064.8 167.64c0 2.961-1.287 5.782-3.476 7.262-2.124 1.551-4.763 1.551-6.887 0-2.124-1.481-3.476-4.301-3.411-7.262-.06-3.03 1.287-5.852 3.411-7.333 2.124-1.551 4.763-1.551 6.887 0 2.188 1.481 3.476 4.301 3.476 7.333m0 0" fill="#a00" stroke="#a00" stroke-width="2.587" transform="matrix(.0606908 0 0 .0554009 -1001.4378 10.466769)"/>
    <path d="m17046.06 147.47c.06 3.878-2.188 7.474-5.857 9.448-3.669 1.974-8.174 1.974-11.843 0-3.669-1.974-5.921-5.57-5.857-9.448-.06-3.878 2.188-7.474 5.857-9.448 3.669-1.974 8.174-1.974 11.843 0 3.669 1.974 5.921 5.57 5.857 9.448m0 0" fill="#a00" stroke="#a00" stroke-width="2.587" transform="matrix(.0606908 0 0 .0554009 -1001.1992 9.486443)"/>
    <path d="m17067.74 110.1c0 3.173-1.287 6.134-3.411 7.756-2.188 1.622-4.827 1.622-6.951 0-2.124-1.622-3.476-4.583-3.411-7.756-.06-3.173 1.287-6.134 3.411-7.756 2.124-1.622 4.763-1.622 6.951 0 2.124 1.622 3.411 4.583 3.411 7.756m0 0" fill="#a00" stroke="#a00" stroke-width="2.587" transform="matrix(.0606908 0 0 .0554009 -1003.1085 9.486443)"/>
    <path d="m17030.35 110.11c0 5.429-4.634 9.801-10.298 9.801-5.728 0-10.362-4.372-10.362-9.801 0-5.429 4.634-9.871 10.362-9.871 5.664 0 10.298 4.442 10.298 9.871m0 0" fill="#a00" stroke="#a00" stroke-width="2.587" transform="matrix(.0606908 0 0 .0554009 -1002.2732 8.669507)"/>
    <path d="m17026.43 256.59c0 2.679-2.446 4.936-5.407 4.936-2.961 0-5.407-2.256-5.407-4.936 0-2.75 2.446-4.936 5.407-4.936 2.961 0 5.407 2.186 5.407 4.936m0 0" fill="#a00" stroke="#a00" stroke-width="2.587" transform="matrix(.0606908 0 0 .0554009 -1001.6169 13.897905)"/>
    <path d="m17037.24 282.66c0 5.147-4.634 9.307-10.298 9.307-5.728 0-10.362-4.16-10.362-9.307 0-5.218 4.634-9.378 10.362-9.378 5.664 0 10.298 4.16 10.298 9.378m0 0" fill="#a00" stroke="#a00" stroke-width="2.587" transform="matrix(.0606908 0 0 .0554009 -1001.6169 10.848006)"/>
    <path d="m17051.04 307.2c0 3.737-1.867 7.192-4.892 9.03-3.089 1.833-6.887 1.833-9.912 0-3.089-1.833-4.956-5.288-4.892-9.03-.06-3.737 1.802-7.192 4.892-9.03 3.03-1.904 6.822-1.904 9.912 0 3.03 1.833 4.892 5.288 4.892 9.03m0 0" fill="#a00" stroke="#a00" stroke-width="2.587" transform="matrix(.0606908 0 0 .0554009 -1003.8842 9.922144)"/>
    <path d="m17088.34 335.73c.06 2.961-2.188 5.782-5.857 7.262-3.669 1.551-8.174 1.551-11.843 0-3.669-1.481-5.921-4.301-5.857-7.262-.06-3.03 2.188-5.782 5.857-7.333 3.669-1.481 8.174-1.481 11.843 0 3.669 1.551 5.921 4.301 5.857 7.333m0 0" fill="#a00" stroke="#a00" stroke-width="2.587" transform="matrix(.0606908 0 0 .0554009 -1002.2732 10.466769)"/>
    <path d="m17035.29 360.74c0 2.186-2.446 3.948-5.407 3.948-3.03 0-5.407-1.763-5.407-3.948 0-2.115 2.381-3.878 5.407-3.878 2.961 0 5.407 1.763 5.407 3.878m0 0" fill="#a00" stroke="#a00" stroke-width="2.587" transform="matrix(.0606908 0 0 .0554009 -1006.1511 .82691)"/>
    <path d="m17051 354.88c0 3.807-3.733 6.91-8.367 6.91-4.57 0-8.367-3.102-8.367-6.91 0-3.807 3.797-6.91 8.367-6.91 4.634 0 8.367 3.102 8.367 6.91m0 0" fill="#a00" stroke="#a00" stroke-width="2.587" transform="matrix(.0606908 0 0 .0554009 -1001.3782 10.139991)"/>
    <path d="m16905.55 414.36c0 5.147-4.184 9.307-9.397 9.307-5.149 0-9.333-4.16-9.333-9.307 0-5.147 4.184-9.378 9.333-9.378 5.213 0 9.397 4.231 9.397 9.378m0 0" fill="#a00" stroke="#a00" stroke-width="2.587" transform="matrix(.0606908 0 0 .0554009 -1002.9293 8.832896)"/>
    <path d="m16959.61 339.18c0 3.525-1.03 6.839-2.703 8.602-1.673 1.763-3.797 1.763-5.471 0-1.673-1.763-2.703-5.077-2.639-8.602-.06-3.596.965-6.839 2.639-8.673 1.673-1.763 3.797-1.763 5.471 0 1.673 1.833 2.703 5.077 2.703 8.673m0 0" fill="#a00" stroke="#a00" stroke-width="2.587" transform="matrix(.0606908 0 0 .0554009 -1005.0774 14.170217)"/>
    <path d="m16923.2 338.67c0 4.09-4.184 7.333-9.333 7.333-5.149 0-9.333-3.243-9.333-7.333 0-4.09 4.184-7.403 9.333-7.403 5.149 0 9.333 3.314 9.333 7.403m0 0" fill="#a00" stroke="#a00" stroke-width="2.587" transform="matrix(.0606908 0 0 .0554009 -994.45743 -4.891647)"/>
    <path d="m16962.51 287.54c.06 3.384-1.545 6.487-4.119 8.179-2.639 1.692-5.857 1.692-8.432 0-2.575-1.692-4.184-4.795-4.119-8.179-.06-3.384 1.545-6.487 4.119-8.179 2.575-1.692 5.793-1.692 8.432 0 2.575 1.692 4.184 4.795 4.119 8.179m0 0" fill="#a00" stroke="#a00" stroke-width="2.587" transform="matrix(.0606908 0 0 .0554009 -1004.8983 2.460786)"/>
    <path d="m16931.07 260.02c0 5.147-3.283 9.307-7.402 9.307-4.055 0-7.337-4.16-7.337-9.307 0-5.147 3.283-9.307 7.337-9.307 4.119 0 7.402 4.16 7.402 9.307m0 0" fill="#a00" stroke="#a00" stroke-width="2.587" transform="matrix(.0606908 0 0 .0554009 -1000.185 5.074985)"/>
    <path d="m16927.15 211.37c0 2.82-1.673 5.429-4.441 6.839-2.703 1.481-6.114 1.481-8.882 0-2.768-1.41-4.441-4.02-4.377-6.839-.06-2.82 1.609-5.5 4.377-6.91 2.768-1.41 6.179-1.41 8.882 0 2.768 1.41 4.441 4.09 4.441 6.91m0 0" fill="#a00" stroke="#a00" stroke-width="2.587" transform="matrix(.0606908 0 0 .0554009 -1002.6311 7.907033)"/>
    <path d="m16904.52 131.74c.129 3.525-2.317 6.816-6.308 8.578-3.991 1.763-8.882 1.763-12.873 0-3.991-1.763-6.308-5.05-6.308-8.578 0-3.525 2.317-6.816 6.308-8.578 3.991-1.821 8.882-1.821 12.873 0 3.991 1.763 6.436 5.05 6.308 8.578m0 0" fill="#a00" stroke="#a00" stroke-width="3.339" transform="matrix(.0303447 0 0 .0664818 -491.32968 8.02685)"/>
    <path d="m16769.83 129.25c.06 4.795-1.802 9.237-4.892 11.634-3.03 2.397-6.822 2.397-9.848 0-3.089-2.397-4.956-6.839-4.892-11.634-.06-4.724 1.802-9.166 4.892-11.563 3.03-2.397 6.822-2.397 9.848 0 3.089 2.397 4.956 6.839 4.892 11.563m0 0" fill="#a00" stroke="#a00" stroke-width="2.587" transform="matrix(.0606908 0 0 .0554009 -1003.6454 10.139991)"/>
    <path d="m16819.99 191.16c0 6.83-6.61 12.339-14.779 12.339-8.095 0-14.705-5.508-14.705-12.339 0-6.72 6.61-12.229 14.705-12.229 8.169 0 14.779 5.508 14.779 12.229m0 0" fill="#a00" stroke="#a00" stroke-width="3.473" transform="matrix(.052598 0 0 .035457 -869.32677 13.272676)"/>
    <path d="m16774.77 220.66c0 5.711-5.535 10.365-12.293 10.365-6.758 0-12.293-4.654-12.293-10.365 0-5.641 5.535-10.294 12.293-10.294 6.758 0 12.293 4.654 12.293 10.294m0 0" fill="#a00" stroke="#a00" stroke-width="2.587" transform="matrix(.0606908 0 0 .0554009 -1003.1681 9.540906)"/>
    <path d="m16826.89 308.65c0 2.468-1.673 4.795-4.441 6.06-2.703 1.199-6.114 1.199-8.882 0-2.768-1.269-4.441-3.596-4.377-6.06-.06-2.468 1.609-4.724 4.377-5.993 2.768-1.269 6.179-1.269 8.882 0 2.768 1.269 4.441 3.525 4.441 5.993m0 0" fill="#a00" stroke="#a00" stroke-width="2.587" transform="matrix(.0606908 0 0 .0554009 -1006.3897 -.861426)"/>
    <path d="m16837.67 331.31c0 5.429-2.832 9.801-6.372 9.801-3.54 0-6.372-4.372-6.372-9.801 0-5.429 2.832-9.871 6.372-9.871 3.54 0 6.372 4.442 6.372 9.871m0 0" fill="#a00" stroke="#a00" stroke-width="2.587" transform="matrix(.0606908 0 0 .0554009 -1008.2393 2.242936)"/>
    <path d="m16817.06 382.88c0 3.525-2.896 6.416-6.436 6.416-3.476 0-6.372-2.891-6.372-6.416 0-3.525 2.896-6.346 6.372-6.346 3.54 0 6.436 2.82 6.436 6.346m0 0" fill="#a00" stroke="#a00" stroke-width="2.587" transform="matrix(.0606908 0 0 .0554009 -992.48851 -1.079275)"/>
    <path d="m16835.71 393.73c.06 2.961-1.609 5.782-4.377 7.262-2.768 1.551-6.179 1.551-8.882 0-2.768-1.481-4.441-4.301-4.441-7.262 0-3.03 1.673-5.782 4.441-7.333 2.703-1.481 6.114-1.481 8.882 0 2.768 1.551 4.441 4.301 4.377 7.333m0 0" fill="#a00" stroke="#a00" stroke-width="2.587" transform="matrix(.0606908 0 0 .0554009 -1008.3587 8.179345)"/>
    <path d="m16793.4 385.4c.264 4.231-3.822 8.25-10.412 10.365-6.59 2.221-14.761 2.221-21.35 0-6.59-2.115-10.675-6.134-10.412-10.365-.264-4.336 3.822-8.355 10.412-10.471 6.59-2.115 14.761-2.115 21.35 0 6.59 2.115 10.675 6.134 10.412 10.471m0 0" fill="#a00" stroke="#a00" stroke-width="4.533" transform="matrix(.0296393 0 0 .0369339 -482.6704 15.949325)"/>
    <path d="m16796.4 348.95c.06 2.82-1.802 5.5-4.892 6.91-3.03 1.41-6.822 1.41-9.912 0-3.03-1.41-4.892-4.09-4.827-6.91-.06-2.82 1.802-5.429 4.827-6.839 3.089-1.41 6.887-1.41 9.912 0 3.089 1.41 4.956 4.02 4.892 6.839m0 0" fill="#a00" stroke="#a00" stroke-width="2.587" transform="matrix(.0606908 0 0 .0554009 -1005.1369 9.105207)"/>
    <path d="m16805.24 333.76c0 4.09-2.832 7.333-6.372 7.333-3.54 0-6.372-3.243-6.372-7.333 0-4.09 2.832-7.403 6.372-7.403 3.54 0 6.372 3.314 6.372 7.403m0 0" fill="#a00" stroke="#a00" stroke-width="2.587" transform="matrix(.0606908 0 0 .0554009 -997.14235 -.861426)"/>
    <path d="m16774.75 341.12c0 4.339-4.618 7.897-10.306 7.897-5.688 0-10.306-3.558-10.306-7.897 0-4.339 4.618-7.897 10.306-7.897 5.688 0 10.306 3.558 10.306 7.897m0 0" fill="#a00" stroke="#a00" stroke-width="2.684" transform="matrix(.0693609 0 0 .045014 -1140.2539 1.293247)"/>
    <path d="m16895.7 284.11c0 2.82-1.287 5.429-3.411 6.91-2.124 1.41-4.827 1.41-6.951 0-2.124-1.481-3.411-4.09-3.411-6.91 0-2.82 1.287-5.5 3.411-6.91 2.124-1.41 4.827-1.41 6.951 0 2.124 1.41 3.411 4.09 3.411 6.91m0 0" fill="#a00" stroke="#a00" stroke-width="2.587" transform="matrix(.0606908 0 0 .0554009 -1002.0345 2.842025)"/>
    <path d="m17088.38 289.97c0 8.179-5.085 14.807-11.328 14.807-6.243 0-11.328-6.628-11.328-14.807 0-8.109 5.085-14.736 11.328-14.736 6.243 0 11.328 6.628 11.328 14.736m0 0" fill="#a00" stroke="#a00" stroke-width="2.587" transform="matrix(.0606908 0 0 .0554009 -1003.0486 11.447094)"/>
    <path d="m16837.69 146.99c0 2.609-2.188 5.077-5.857 6.416-3.669 1.34-8.238 1.34-11.907 0-3.604-1.34-5.857-3.807-5.857-6.416 0-2.679 2.253-5.147 5.857-6.487 3.669-1.34 8.238-1.34 11.907 0 3.669 1.34 5.857 3.807 5.857 6.487m0 0" fill="#a00" stroke="#a00" stroke-width="2.587" transform="matrix(.0606908 0 0 .0554009 -1005.6739 8.778432)"/>
    <path d="m16945.8 414.32c.06 2.327-1.416 4.442-3.862 5.641-2.446 1.128-5.471 1.128-7.917 0-2.446-1.199-3.991-3.314-3.926-5.641-.06-2.256 1.48-4.372 3.926-5.57 2.446-1.128 5.471-1.128 7.917 0 2.446 1.199 3.926 3.314 3.862 5.57m0 0" fill="#a00" stroke="#a00" stroke-width="2.587" transform="matrix(.0606908 0 0 .0554009 -1005.1965 10.19446)"/>
  </g>
</svg>
