<svg viewBox="0 0 48 48" xmlns="http://www.w3.org/2000/svg" xmlns:xlink="http://www.w3.org/1999/xlink">
  <linearGradient id="a" gradientTransform="matrix(0 -1 1 0 -.0000015 47.999998)" gradientUnits="userSpaceOnUse" x1="1" x2="47">
    <stop offset="0" stop-color="#d7d7d7"/>
    <stop offset="1" stop-color="#e1e1e1"/>
  </linearGradient>
  <path d="m47 24c0 22.703-.297 23-23 23-22.703 0-23-.297-23-23 0-22.703.297-23 23-23 22.703 0 23 .297 23 23z" fill="url(#a)"/>
  <g transform="translate(.00026853)">
    <path d="m25.15 12c-.429 0-.887.328-1.904 1.25-1.018.922-2.58 2.473-5.084 5.01-3.02 3.059-4.647 4.743-5.463 5.807-.408.532-.62.912-.684 1.258-.063.346.05.638.217.895.025.038.042.053.07.086.16.179.347.366.488.516.317.327.76.78 1.299 1.324 1.078 1.088 2.537 2.546 4.115 4.109 2.103 2.083 3.581 3.504 4.596 4.41.507.453.898.777 1.199.992.301.216.489.342.719.342.088 0 .141-.025.203-.055.062-.029.126-.069.199-.117.147-.096.326-.23.537-.4.423-.34.973-.822 1.607-1.402 1.27-1.161 2.879-2.717 4.461-4.299 1.581-1.582 3.136-3.189 4.297-4.459.581-.635 1.062-1.185 1.402-1.607.17-.211.304-.39.4-.537.048-.073.088-.139.117-.201.029-.062.055-.115.055-.203 0-.126-.047-.217-.111-.332-.064-.115-.154-.246-.273-.404-.238-.316-.593-.732-1.078-1.266-.97-1.067-2.46-2.602-4.555-4.697-2.426-2.428-3.949-3.917-4.947-4.807-.998-.89-1.457-1.213-1.883-1.213" fill-opacity=".098"/>
    <path d="m11.225 24.356l12.919-12.993c4.57 3.848 8.748 7.94 12.551 12.267-3.991 4.448-8.197 8.831-13.14 12.993z" fill="#f8e653"/>
    <path d="m24.15 11c-.429 0-.887.328-1.904 1.25-1.018.922-2.58 2.473-5.084 5.01-3.02 3.059-4.647 4.743-5.463 5.807-.408.532-.62.912-.684 1.258-.063.346.05.638.217.895.025.038.042.053.07.086.16.179.347.366.488.516.317.327.76.78 1.299 1.324 1.078 1.088 2.537 2.546 4.115 4.109 2.103 2.083 3.581 3.504 4.596 4.41.507.453.898.777 1.199.992.301.216.489.342.719.342.088 0 .141-.025.203-.055.062-.029.126-.069.199-.117.147-.096.326-.23.537-.4.423-.34.973-.822 1.607-1.402 1.27-1.161 2.879-2.717 4.461-4.299 1.581-1.582 3.136-3.189 4.297-4.459.581-.635 1.062-1.185 1.402-1.607.17-.211.304-.39.4-.537.048-.073.088-.139.117-.201.029-.062.055-.115.055-.203 0-.126-.047-.217-.111-.332-.064-.115-.154-.246-.273-.404-.238-.316-.593-.732-1.078-1.266-.97-1.067-2.46-2.602-4.555-4.697-2.426-2.428-3.949-3.917-4.947-4.807-.998-.89-1.457-1.213-1.883-1.213m.012.693c.028.016.06.036.105.068.11.078.263.199.447.355.369.313.867.769 1.447 1.316 1.161 1.095 2.653 2.565 4.125 4.057 1.472 1.492 2.925 3.01 4.01 4.184.541.589.99 1.094 1.301 1.469.155.188.277.345.355.457.039.056.067.102.082.131.002.004 0 .005.002.008-.002-.016-.008.026-.057.107-.055.092-.146.22-.268.377-.244.315-.617.749-1.119 1.301-1 1.104-2.525 2.678-4.574 4.738-1.672 1.681-3.235 3.21-4.404 4.316-.584.553-1.07 1-1.42 1.311-.175.154-.316.273-.416.35-.043.033-.074.053-.098.068-.058-.002-.105-.002-.266-.113-.177-.122-.455-.357-.902-.777-.894-.84-2.47-2.419-5.377-5.348-2.665-2.684-4.067-4.115-4.732-4.947-.333-.416-.473-.679-.51-.846-.037-.167 0-.258.098-.436.014-.025.087-.128.195-.258.109-.13.256-.298.436-.496.359-.396.847-.914 1.42-1.51 1.146-1.192 2.63-2.695 4.113-4.17 1.483-1.475 2.964-2.923 4.1-4 .568-.539 1.05-.985 1.4-1.295.175-.155.319-.274.42-.354.038-.03.064-.048.088-.064zm-.594 3.808c-.274-.051-1.057.835-2.098 2.373-2.301 3.402-2.297 3.164-.828 3.164h1.355v10.529c.608.433 2.1.399 3 .432v-3.691c0 0 1.023.264 1.635.824.94.86 1.185.962 1.57.662 1.294-1.048-3.466-5.942-3.223-8.37.342-.73 2.332-.1 2.545-.551.219-.462-3.53-5.294-3.957-5.373z" fill="#3c3c3c"/>
  </g>
</svg>
