<svg viewBox="0 0 48 48" xmlns="http://www.w3.org/2000/svg" xmlns:xlink="http://www.w3.org/1999/xlink">
  <linearGradient id="a" gradientTransform="matrix(0 -1 1 0 -.0000015 47.999998)" gradientUnits="userSpaceOnUse" x1="1" x2="47">
    <stop offset="0" stop-color="#97713f"/>
    <stop offset="1" stop-color="#a57b44"/>
  </linearGradient>
  <path d="m47 24c0 22.703-.297 23-23 23-22.703 0-23-.297-23-23 0-22.703.297-23 23-23 22.703 0 23 .297 23 23z" fill="url(#a)"/>
  <path d="m19 13c-2 0-3.5 1.6-3.5 2.6 0 1.844 2.5 2.4 2.5 3.4 0 1.2-1 1.508-2 2 2 0 3.5-.9 3.5-2 0-2-2.5-2.328-2.5-3.5 0-1.5 2.281-2.5 2-2.5m6 0c-2 0-3.5 1.6-3.5 2.6 0 1.844 2.5 2.4 2.5 3.4 0 1.2-1 1.508-2 2 2 0 3.5-.9 3.5-2 0-2-2.5-2.328-2.5-3.5 0-1.5 2.281-2.5 2-2.5m5.5 0c-2 0-3.5 1.6-3.5 2.6 0 1.844 2.5 2.4 2.5 3.4 0 1.2-1 1.508-2 2 2 0 3.5-.9 3.5-2 0-2-2.5-2.328-2.5-3.5 0-1.5 2.281-2.5 2-2.5zm-15.5 9v11c0 2.216 1.784 4 4 4h10c2.216 0 4-1.784 4-4h1c2.216 0 4-1.784 4-4v-1c0-2.216-1.784-4-4-4h-1v-2zm18 4h1c1.108 0 2 .892 2 2v1c0 1.108-.892 2-2 2h-1z" opacity=".1"/>
  <path d="m14 21v11c0 2.216 1.784 4 4 4h10c2.216 0 4-1.784 4-4h1c2.216 0 4-1.784 4-4v-1c0-2.216-1.784-4-4-4h-1v-2zm18 4h1c1.108 0 2 .892 2 2v1c0 1.108-.892 2-2 2h-1z" fill="#edce8e"/>
  <path d="m18 12c-2 0-3.5 1.6-3.5 2.6 0 1.844 2.5 2.4 2.5 3.4 0 1.2-1 1.508-2 2 2 0 3.5-.9 3.5-2 0-2-2.5-2.328-2.5-3.5 0-1.5 2.281-2.5 2-2.5zm6 0c-2 0-3.5 1.6-3.5 2.6 0 1.844 2.5 2.4 2.5 3.4 0 1.2-1 1.508-2 2 2 0 3.5-.9 3.5-2 0-2-2.5-2.328-2.5-3.5 0-1.5 2.281-2.5 2-2.5zm5.5 0c-2 0-3.5 1.6-3.5 2.6 0 1.844 2.5 2.4 2.5 3.4 0 1.2-1 1.508-2 2 2 0 3.5-.9 3.5-2 0-2-2.5-2.328-2.5-3.5 0-1.5 2.281-2.5 2-2.5z" fill="#edce8e"/>
</svg>
