<svg viewBox="0 0 48 48" xmlns="http://www.w3.org/2000/svg">
  <path d="m24 1c-22.703 0-23 .297-23 23h23z" fill="#4cbed6" fill-rule="evenodd"/>
  <path d="m24 1v23h23c0-22.703-.297-23-23-23z" fill="#86d0e3" fill-rule="evenodd"/>
  <path d="m24 24v23c22.703 0 23-.297 23-23z" fill="#f4ba5f" fill-rule="evenodd"/>
  <path d="m1 24c0 22.703.297 23 23 23v-23z" fill="#28a9c8" fill-rule="evenodd"/>
  <path d="m15 12v3h-3v2h3v3h2v-3h3v-2h-3v-3zm15 3v2h8v-2zm-15.03 15v2h2v-2zm15.03 1v2h8v-2zm-18 1.969v2h8v-2zm18 2.031v2h8v-2zm-15.03 1v2h2v-2z" opacity=".1"/>
  <path d="m37 30v2h-8v-2m8 0" fill="#f9f9f9"/>
  <path d="m37 34v2h-8v-2m8 0" fill="#f9f9f9"/>
  <path d="m37 14v1.996h-8v-1.996m8 0" fill="#f9f9f9"/>
  <path d="m19 31.961v2h-8v-2m8 0" fill="#f9f9f9"/>
  <path d="m15.969 29v2h-2v-2m2 0" fill="#f9f9f9"/>
  <path d="m15.969 35v2h-2v-2m2 0" fill="#f9f9f9"/>
  <path d="m14 11h1.996v8h-1.996m0-8" fill="#f9f9f9"/>
  <path d="m19 13.996v2h-8v-2m8 0" fill="#f9f9f9"/>
</svg>
