<svg xmlns="http://www.w3.org/2000/svg" viewBox="0 0 48 48">
 <g>
  
  
  
 </g>
 <path d="M 24 1 C 1.297 1 1 1.297 1 24 L 24 24 L 24 1 z " style="fill:#4cbed6;fill-opacity:1;stroke:none;fill-rule:evenodd"/>
 <path d="M 24 1 L 24 24 L 47 24 C 47 1.297 46.703 1 24 1 z " style="fill:#86d0e3;fill-opacity:1;stroke:none;fill-rule:evenodd"/>
 <path d="m 24 24 l 0 23 c 22.703 0 23 -0.297 23 -23 l -23 0 z" style="fill:#f4ba5f;fill-opacity:1;stroke:none;fill-rule:evenodd"/>
 <path d="m 1 24 c 0 22.703 0.297 23 23 23 l 0 -23 l -23 0 z" style="fill:#28a9c8;fill-opacity:1;stroke:none;fill-rule:evenodd"/>
 <path d="m 15 12 0 3 -3 0 0 2 3 0 0 3 2 0 0 -3 3 0 0 -2 -3 0 0 -3 -2 0 z m 15 3 0 2 8 0 0 -2 -8 0 z m -15.03 15 0 2 2 0 0 -2 -2 0 z m 15.03 1 l 0 2 8 0 0 -2 -8 0 z m -18 1.969 0 2 8 0 0 -2 -8 0 z m 18 2.031 l 0 2 8 0 0 -2 -8 0 z m -15.03 1 0 2 2 0 0 -2 -2 0 z" style="fill:#000;opacity:0.1;fill-opacity:1;stroke:none;fill-rule:nonzero"/>
 <path d="m 37 30 0 2 -8 0 0 -2 m 8 0" style="fill:#f9f9f9;fill-opacity:1;stroke:none;fill-rule:nonzero"/>
 <path d="m 37 34 0 2 -8 0 0 -2 m 8 0" style="fill:#f9f9f9;fill-opacity:1;stroke:none;fill-rule:nonzero"/>
 <path d="m 37,14 0,1.996 -8,0 L 29,14 m 8,0" style="fill:#f9f9f9;fill-opacity:1;stroke:none;fill-rule:nonzero"/>
 <path d="m 19 31.961 0 2 -8 0 0 -2 m 8 0" style="fill:#f9f9f9;fill-opacity:1;stroke:none;fill-rule:nonzero"/>
 <path d="m 15.969 29 0 2 -2 0 0 -2 m 2 0" style="fill:#f9f9f9;fill-opacity:1;stroke:none;fill-rule:nonzero"/>
 <path d="m 15.969 35 0 2 -2 0 0 -2 m 2 0" style="fill:#f9f9f9;fill-opacity:1;stroke:none;fill-rule:nonzero"/>
 <path d="m 14,11 1.996,0 0,8 L 14,19 m 0,-8" style="fill:#f9f9f9;fill-opacity:1;stroke:none;fill-rule:nonzero"/>
 <path d="m 19 13.996 0 2 -8 0 0 -2 m 8 0" style="fill:#f9f9f9;fill-opacity:1;stroke:none;fill-rule:nonzero"/>
 <g>
  
 </g>
</svg>
