<svg viewBox="0 0 48 48" xmlns="http://www.w3.org/2000/svg" xmlns:xlink="http://www.w3.org/1999/xlink">
  <linearGradient id="a" gradientUnits="userSpaceOnUse" x2="0" y1="1" y2="47">
    <stop offset="0" stop-color="#82d070"/>
    <stop offset="1" stop-color="#75cb61"/>
  </linearGradient>
  <path d="m24 1c22.703 0 23 .297 23 23 0 22.703-.297 23-23 23-22.703 0-23-.297-23-23 0-22.703.297-23 23-23z" fill="url(#a)"/>
  <path d="m15.375 12.584c-1.688-.052-4.375 2.559-4.375 2.559 0 0 2.784 3.641 4.787 3.879.681.081 1.517-.199 2.326-.59l-1.594 4.775c0 0-2.185 4.226-1.879 6.441.091.661.532 1.468 1.029 2.205 1.01 3.237 4.794 5.646 9.32 5.646 3.81 0 7.09-1.709 8.639-4.18.732-.87 1.985-2.49 2.148-3.672.306-2.215-1.877-6.441-1.877-6.441l-1.518-4.551c.647.264 1.288.429 1.83.365 2-.238 4.787-3.879 4.787-3.879 0 0-2.687-2.611-4.375-2.559-1.636.051-3.817 1.944-4.973 3.064-1.077-.423-2.536-.892-4.408-.889-2.045.003-3.682.541-4.775 1.01-1.12-1.1-3.403-3.129-5.094-3.182z" opacity=".1"/>
  <g transform="matrix(.89240973 0 0 .89240973 2.5718496 3.6606354)">
    <path d="m39.699 11.746c0 0-3.01-2.926-4.902-2.867-2.598.081-6.474 4.347-6.474 4.347 0 0 3.767 3.133 6.01 2.867 2.245-.266 5.364-4.347 5.364-4.347z" fill="#1a1a1a" fill-rule="evenodd"/>
    <path d="m33.663 10.951c.549-.121 1.125.133 1.656.316.867.299 2.445 1.261 2.445 1.261l-.042.108c-.926 1.047-2.534 2.657-3.823 2.81-1.248.148-3.034-.928-4.136-1.701 0 0 2.337-2.451 3.899-2.795z" fill="#d7a2a2" fill-rule="evenodd"/>
    <path d="m24.21 11.311v.006c-4.76.171-7.293 2.248-7.293 2.248l-2.406 7.219c0 0-2.449 4.735-2.105 7.217.259 1.874 3.01 4.812 3.01 4.812h17.67c0 0 2.747-2.939 3.01-4.813.343-2.482-2.104-7.217-2.104-7.217l-2.406-7.219c0 0-2.533-2.077-7.293-2.248v-.006c-.014 0-.025.003-.039.004-.013 0-.024-.004-.037-.004z" fill="#f9f9f9" fill-rule="evenodd"/>
    <path d="m8.324 11.746c0 0 3.01-2.926 4.902-2.867 2.598.081 6.474 4.347 6.474 4.347 0 0-3.767 3.133-6.01 2.867-2.245-.266-5.364-4.347-5.364-4.347z" fill="#1a1a1a" fill-rule="evenodd"/>
    <path d="m14.425 11.04c-.549-.121-1.125.133-1.656.316-.867.299-2.445 1.261-2.445 1.261l.042.108c.926 1.047 2.534 2.657 3.823 2.81 1.248.148 3.034-.928 4.136-1.701 0 0-2.337-2.451-3.899-2.795z" fill="#d7a2a2" fill-rule="evenodd"/>
    <path d="m24.21 11.311v.006c-4.76.171-7.293 2.248-7.293 2.248l-2.406 7.219c0 0-.359.751-.766 1.697 0 0 8.775 6.428 12.02 3.763 2.774-2.279-.819-7.133-1.162-10.707-.135-1.406-.352-4.223-.352-4.223-.014 0-.029-.003-.041-.004z" fill="#1a1a1a" fill-rule="evenodd"/>
    <path d="m32.902 17.535c0 0-2.038.095-2.66.777-1.417 1.555-1.665 4.144-1.201 6.195.389 1.72 3.145 4.256 3.145 4.256l2.248 2.414c.737-.982 1.521-2.215 1.654-3.178.343-2.482-2.104-7.217-2.104-7.217" fill="#1a1a1a" fill-rule="evenodd"/>
    <g transform="matrix(.54461206 0 0 .54461206 10.751382 8.4752945)">
      <ellipse cx="25.19" cy="8" fill="#1a1a1a" rx="7.177" ry="10.253" transform="rotate(30.29974689)"/>
      <ellipse cx="-16.819" cy="32.551" fill="#1a1a1a" rx="7.177" ry="10.253" transform="matrix(-.86339778 .50452381 .50452381 .86339778 0 0)"/>
      <ellipse cx="25.19" cy="8" fill="#f9f9f9" rx="6.668" ry="9.526" transform="rotate(30.29974689)"/>
      <ellipse cx="-16.819" cy="32.551" fill="#f9f9f9" rx="6.668" ry="9.526" transform="matrix(-.86339778 .50452381 .50452381 .86339778 0 0)"/>
      <path d="m24.76 18.19a2.5 2.5 0 0 1-2.5 2.5 2.5 2.5 0 0 1-2.5-2.5 2.5 2.5 0 0 1  2.5-2.5 2.5 2.5 0 0 1  2.5 2.5z" fill="#1a1a1a"/>
      <path d="m31.488 18.09a4 4 0 0 1-4 4 4 4 0 0 1-4-4 4 4 0 0 1  4-4 4 4 0 0 1  4 4z" fill="#1a1a1a"/>
    </g>
    <g transform="translate(-1.046243 .18497115)">
      <path d="m35.796 28.361c0 4.558-4.813 8.253-10.75 8.253-5.937 0-10.75-3.695-10.75-8.253 0-2.279 1.268-4.43 3.403-5.497 2.134-1.067 4.785.799 7.347.799 2.562 0 5.467-1.867 7.601-.799 2.134 1.067 3.149 3.218 3.149 5.497z" fill="#d7a2a2"/>
      <circle cx="20.01" cy="27.07" fill="#1a1a1a" r="2.25"/>
      <circle cx="29.672" cy="27.07" fill="#1a1a1a" r="2.25"/>
    </g>
  </g>
</svg>
