<svg xmlns="http://www.w3.org/2000/svg" viewBox="0 0 48 48">
 <defs>
  <linearGradient id="linearGradient3764" x1="1" x2="47" gradientUnits="userSpaceOnUse" gradientTransform="matrix(0,-1,1,0,-1.5e-6,47.999998)">
   <stop style="stop-color:#084d4e;stop-opacity:1"/>
   <stop offset="1" style="stop-color:#0a6161;stop-opacity:1"/>
  </linearGradient>
 </defs>
 <g>
  
  
  
 </g>
 <g>
  <path d="m 47,24 C 47,46.703 46.703,47 24,47 1.297,47 1,46.703 1,24 1,1.297 1.297,1 24,1 46.703,1 47,1.297 47,24 z" style="fill:url(#linearGradient3764);fill-opacity:1"/>
 </g>
 <g>
  <g>
   <g transform="translate(1,1)">
    <g style="opacity:0.1">
     <!-- color: #0a6161 -->
    </g>
   </g>
  </g>
 </g>
 <g>
  <g>
   <!-- color: #0a6161 -->
   <g>
    <path d="m 13 14 0 17 9 6 0 -17.5 -9 -5.5 z m 2 0 8 5 4 0 8 -5 c -4 0 -6 0.52 -10 4 -4 -3.395 -6 -4 -10 -4 z m 22 0 -9 5.5 0 5.844 a 5.5 5.5 0 0 1 4.5 -2.344 5.5 5.5 0 0 1 4.5 2.35 l 0 -11.35 m -14 6 0 18 4 0 0 -9.5 0 -8.5 -4 0 z m 9.5 4 a 4.5 4.5 0 0 0 -4.5 4.5 4.5 4.5 0 0 0 4.5 4.5 4.5 4.5 0 0 0 2.805 -0.988 l 1.791 1.791 -0.211 0.213 2.475 2.475 1.131 -1.131 -2.475 -2.477 -0.213 0.213 -1.787 -1.787 a 4.5 4.5 0 0 0 0.984 -2.809 4.5 4.5 0 0 0 -4.5 -4.5 m 0 1 a 3.5 3.5 0 0 1 3.5 3.5 3.5 3.5 0 0 1 -3.5 3.5 3.5 3.5 0 0 1 -3.5 -3.5 3.5 3.5 0 0 1 3.5 -3.5 m -4.5 6.65 0 5.352 4.5 -3 a 5.5 5.5 0 0 1 -4.5 -2.35" style="fill:#000;opacity:0.1;fill-opacity:1;stroke:none;fill-rule:nonzero"/>
   </g>
  </g>
 </g>
 <g>
  
 </g>
 <g transform="matrix(0.70710678,-0.70710678,0.70710678,0.70710678,-10.219303,30.550861)">
  <g>
   <path transform="matrix(0.70710678,0.70710678,-0.70710678,0.70710678,28.828859,-14.376583)" d="m 12 13 l 0 17 l 9 6 l 0 -17.5 l -9 -5.5 z m 2 0 l 8 5 l 4 0 l 8 -5 c -4 0 -6 0.52 -10 4 c -4 -3.395 -6 -4 -10 -4 z m 22 0 l -9 5.5 l 0 5.844 a 5.5 5.5 0 0 1 4.5 -2.344 a 5.5 5.5 0 0 1 4.5 2.35 l 0 -11.35 z m -14 6 l 0 18 l 4 0 l 0 -9.5 l 0 -8.5 l -4 0 z m 5 11.65 l 0 5.352 l 4.5 -3 a 5.5 5.5 0 0 1 -4.5 -2.35 z" style="fill:#f9f9f9;fill-opacity:1;stroke:none;fill-rule:nonzero"/>
   <path transform="matrix(0.70710678,0.70710678,-0.70710678,0.70710678,28.828859,-14.376583)" d="M 31.5 23 A 4.5 4.5 0 0 0 27 27.5 A 4.5 4.5 0 0 0 31.5 32 A 4.5 4.5 0 0 0 36 27.5 A 4.5 4.5 0 0 0 31.5 23 z M 31.5 24 A 3.5 3.5 0 0 1 35 27.5 A 3.5 3.5 0 0 1 31.5 31 A 3.5 3.5 0 0 1 28 27.5 A 3.5 3.5 0 0 1 31.5 24 z" style="fill:#f9f9f9;opacity:1;fill-opacity:1;stroke:none"/>
   <rect y="31.22" x="31.16" height="3.625" width="1" style="fill:#f9f9f9;opacity:1;fill-opacity:1;stroke:none"/>
   <rect y="34.34" x="30.858" height="3.5" width="1.6" style="fill:#f9f9f9;opacity:1;fill-opacity:1;stroke:none"/>
  </g>
 </g>
</svg>
