<svg xmlns="http://www.w3.org/2000/svg" viewBox="0 0 48 48">
 <defs>
  <linearGradient id="linearGradient3764" x1="1" x2="47" gradientUnits="userSpaceOnUse" gradientTransform="matrix(0,-1,1,0,-1.5e-6,47.999998)">
   <stop style="stop-color:#cc4848;stop-opacity:1"/>
   <stop offset="1" style="stop-color:#d05858;stop-opacity:1"/>
  </linearGradient>
 </defs>
 <g>
  
  
  
 </g>
 <g>
  <path d="m 47,24 C 47,46.703 46.703,47 24,47 1.297,47 1,46.703 1,24 1,1.297 1.297,1 24,1 46.703,1 47,1.297 47,24 z" style="fill:url(#linearGradient3764);fill-opacity:1"/>
 </g>
 <g>
  <g>
   <g transform="translate(1,1)">
    <g style="opacity:0.1">
     <!-- color: #d05858 -->
     <g>
      <path d="m 12.996 14 l 0 17 l 9 6 l 0 -17.5 l -9 -5.5 z m 2 0 l 8 5 l 4 0 l 8 -5 c -4 0 -6 0.52 -10 4 c -4 -3.395 -6 -4 -10 -4 z m 22 0 l -9 5.5 l 0 17.5 l 9 -6 l 0 -17 z m -14 6 l 0 18 l 4 0 l 0 -18 l -4 0 z" transform="translate(-1,-1)" style="fill:#000;fill-opacity:1;stroke:none;fill-rule:nonzero"/>
     </g>
    </g>
   </g>
  </g>
 </g>
 <g>
  <g>
   <!-- color: #d05858 -->
   <g>
    <path d="m 11.996 13 l 0 17 l 9 6 l 0 -17.5 l -9 -5.5 z m 2 0 l 8 5 l 4 0 l 8 -5 c -4 0 -6 0.52 -10 4 c -4 -3.395 -6 -4 -10 -4 z m 22 0 l -9 5.5 l 0 17.5 l 9 -6 l 0 -17 z m -14 6 l 0 18 l 4 0 l 0 -18 l -4 0 z" style="fill:#f9f9f9;fill-opacity:1;stroke:none;fill-rule:nonzero"/>
   </g>
  </g>
 </g>
 <g>
  
 </g>
</svg>
