<svg viewBox="0 0 48 48" xmlns="http://www.w3.org/2000/svg" xmlns:xlink="http://www.w3.org/1999/xlink">
  <linearGradient id="a" gradientTransform="matrix(0 -1 1 0 -.0000015 47.999998)" gradientUnits="userSpaceOnUse" x1="1" x2="47">
    <stop offset="0" stop-color="#cc4848"/>
    <stop offset="1" stop-color="#d05858"/>
  </linearGradient>
  <path d="m47 24c0 22.703-.297 23-23 23-22.703 0-23-.297-23-23 0-22.703.297-23 23-23 22.703 0 23 .297 23 23z" fill="url(#a)"/>
  <path d="m12.996 14v17l9 6v-17.5zm2 0l8 5h4l8-5c-4 0-6 .52-10 4-4-3.395-6-4-10-4zm22 0l-9 5.5v17.5l9-6zm-14 6v18h4v-18z" opacity=".1" transform=""/>
  <path d="m11.996 13v17l9 6v-17.5zm2 0l8 5h4l8-5c-4 0-6 .52-10 4-4-3.395-6-4-10-4zm22 0l-9 5.5v17.5l9-6zm-14 6v18h4v-18z" fill="#f9f9f9"/>
</svg>
