<svg viewBox="0 0 48 48" xmlns="http://www.w3.org/2000/svg" xmlns:xlink="http://www.w3.org/1999/xlink">
  <linearGradient id="a" gradientTransform="matrix(0 -1 1 0 -.0000015 47.999998)" gradientUnits="userSpaceOnUse" x1="1" x2="47">
    <stop offset="0" stop-color="#205414"/>
    <stop offset="1" stop-color="#266318"/>
  </linearGradient>
  <path d="m47 24c0 22.703-.297 23-23 23-22.703 0-23-.297-23-23 0-22.703.297-23 23-23 22.703 0 23 .297 23 23z" fill="url(#a)"/>
  <path d="m13 14v17l9 6v-17.5zm2 0l8 5h4l8-5c-4 0-6 .52-10 4-4-3.395-6-4-10-4zm22 0l-9 5.5v6.908l2.01 2.02c.392.392 1.022.392 1.414 0 .392-.392.392-1.022 0-1.414l-2.387-2.389c.628-.383 1.322-.586 2.02-.617 1.162-.053 2.331.372 3.197 1.238 1.11 1.109 1.515 2.739 1.059 4.24l1.584 1.584.1-.066m-14-11v18h4v-18zm8.598 5.02c-.244-.026-.492-.025-.74.006l1.277 1.277c.783.783.783 2.045 0 2.828-.783.783-2.045.783-2.828 0l-1.279-1.279c-.122.992.219 1.987.926 2.693.996.995 2.522 1.235 3.775.594l1.625 1.625 3.793 3.793c.294.294.721.368 1.082.221.12-.049.234-.123.332-.221.098-.098.172-.212.221-.332.147-.362.073-.79-.221-1.084l-3.51-3.508-1.906-1.906c.642-1.255.401-2.781-.596-3.777-.53-.53-1.22-.852-1.951-.93m-3.598 5.941v6.04l5.506-3.67-1.02-1.02c-1.5.457-3.131.05-4.24-1.059-.091-.091-.165-.193-.246-.291" opacity=".1"/>
  <path d="m11.996 13v17l9 6v-17.5zm2 0l8 5h4l8-5c-4 0-6 .52-10 4-4-3.395-6-4-10-4zm22 0l-9 5.5v6.908l2.01 2.02c.392.392 1.022.392 1.414 0 .392-.392.392-1.022 0-1.414l-2.387-2.389c.628-.383 1.322-.586 2.02-.617 1.162-.053 2.331.372 3.197 1.238 1.11 1.109 1.515 2.739 1.059 4.24l1.584 1.584.1-.066m-14-11v18h4v-18zm8.598 5.02c-.244-.026-.492-.025-.74.006l1.277 1.277c.783.783.783 2.045 0 2.828-.783.783-2.045.783-2.828 0l-1.279-1.279c-.122.992.219 1.987.926 2.693.996.995 2.522 1.235 3.775.594l1.625 1.625 3.793 3.793c.294.294.721.368 1.082.221.12-.049.234-.123.332-.221.098-.098.172-.212.221-.332.147-.362.073-.79-.221-1.084l-3.51-3.508-1.906-1.906c.642-1.255.401-2.781-.596-3.777-.53-.53-1.22-.852-1.951-.93zm-3.598 5.941v6.04l5.506-3.67-1.02-1.02c-1.5.457-3.131.05-4.24-1.059-.091-.091-.165-.193-.246-.291z" fill="#f9f9f9"/>
</svg>
