<svg viewBox="0 0 48 48" xmlns="http://www.w3.org/2000/svg" xmlns:xlink="http://www.w3.org/1999/xlink">
  <linearGradient id="a" gradientTransform="matrix(0 -1 1 0 -.0000015 47.999998)" gradientUnits="userSpaceOnUse" x1="1" x2="47">
    <stop offset="0" stop-color="#084d4e"/>
    <stop offset="1" stop-color="#0a6161"/>
  </linearGradient>
  <path d="m47 24c0 22.703-.297 23-23 23-22.703 0-23-.297-23-23 0-22.703.297-23 23-23 22.703 0 23 .297 23 23z" fill="url(#a)"/>
  <path d="m13 14v17l9 6v-17.5zm2 0l8 5h4l8-5c-4 0-6 .52-10 4-4-3.395-6-4-10-4zm22 0l-9 5.5v5.844a5.5 5.5 0 0 1 4.5-2.344 5.5 5.5 0 0 1  4.5 2.35zm-14 6v18h4v-9.5-8.5zm9.5 4a4.5 4.5 0 0 0-4.5 4.5 4.5 4.5 0 0 0  4.5 4.5 4.5 4.5 0 0 0  2.805-.988l1.791 1.791-.211.213 2.475 2.475 1.131-1.131-2.475-2.477-.213.213-1.787-1.787a4.5 4.5 0 0 0  .984-2.809 4.5 4.5 0 0 0-4.5-4.5m0 1a3.5 3.5 0 0 1 3.5 3.5 3.5 3.5 0 0 1-3.5 3.5 3.5 3.5 0 0 1-3.5-3.5 3.5 3.5 0 0 1  3.5-3.5m-4.5 6.65v5.352l4.5-3a5.5 5.5 0 0 1-4.5-2.35" opacity=".1"/>
  <g fill="#f9f9f9" transform="matrix(.70710678 -.70710678 .70710678 .70710678 -10.219303 30.550861)">
    <path d="m12 13v17l9 6v-17.5zm2 0l8 5h4l8-5c-4 0-6 .52-10 4-4-3.395-6-4-10-4zm22 0l-9 5.5v5.844a5.5 5.5 0 0 1 4.5-2.344 5.5 5.5 0 0 1  4.5 2.35zm-14 6v18h4v-9.5-8.5zm5 11.65v5.352l4.5-3a5.5 5.5 0 0 1-4.5-2.35z" transform="matrix(.70710678 .70710678 -.70710678 .70710678 28.828859 -14.376583)"/>
    <path d="m31.5 23a4.5 4.5 0 0 0-4.5 4.5 4.5 4.5 0 0 0  4.5 4.5 4.5 4.5 0 0 0  4.5-4.5 4.5 4.5 0 0 0-4.5-4.5zm0 1a3.5 3.5 0 0 1 3.5 3.5 3.5 3.5 0 0 1-3.5 3.5 3.5 3.5 0 0 1-3.5-3.5 3.5 3.5 0 0 1  3.5-3.5z" transform="matrix(.70710678 .70710678 -.70710678 .70710678 28.828859 -14.376583)"/>
    <path d="m31.16 31.22h1v3.625h-1z"/>
    <path d="m30.858 34.34h1.6v3.5h-1.6z"/>
  </g>
</svg>
