<svg xmlns="http://www.w3.org/2000/svg" viewBox="0 0 48 48">
 <defs>
  <linearGradient id="linearGradient3764" x1="1" x2="47" gradientUnits="userSpaceOnUse" gradientTransform="matrix(0,-1,1,0,-1.5e-6,47.999998)">
   <stop style="stop-color:#f2d5c6;stop-opacity:1"/>
   <stop offset="1" style="stop-color:#f6e1d6;stop-opacity:1"/>
  </linearGradient>
 </defs>
 <g>
  
  
  
 </g>
 <g>
  <path d="m 47,24 C 47,46.703 46.703,47 24,47 1.297,47 1,46.703 1,24 1,1.297 1.297,1 24,1 46.703,1 47,1.297 47,24 z" style="fill:url(#linearGradient3764);fill-opacity:1"/>
 </g>
 <g>
  
 </g>
 <path white-space="normal" isolation="auto" mix-blend-mode="normal" d="m 25.43 8.88 c -8.274 0 -14.999 6.725 -14.999 14.999 0 8.274 6.725 14.999 14.999 14.999 4.84 0 9.138 -2.314 11.881 -5.878 l -2.448 0 c -2.385 2.466 -5.722 4 -9.432 4 -7.26 0 -13.12 -5.864 -13.12 -13.12 0 -7.26 5.864 -13.12 13.12 -13.12 3.827 0 7.257 1.641 9.656 4.245 l 2.409 0 c -2.732 -3.703 -7.122 -6.123 -12.06 -6.123" solid-color="#000000" solid-opacity="1" style="visibility:visible;shape-rendering:auto;color-interpolation-filters:linearRGB;fill:#1a1a1a;opacity:0.6;image-rendering:auto;fill-opacity:1;stroke:none;display:inline;color:#000;fill-rule:nonzero;color-rendering:auto;color-interpolation:sRGB"/>
 <g transform="matrix(3.7014079,2.6051347,-2.651867,3.6361799,15.871616,-15.589035)" style="fill:#000;opacity:0.1">
  <path d="m 35.852 10.688 c -1.625 0.944 -3.567 1.787 -5.03 2.676 -2.917 1.827 -6.104 3.487 -8.316 6.125 -2.107 2.513 -3.587 5.633 -4.359 8.824 -0.338 1.392 -0.313 3.588 -0.24 5.229 l -3.91 5.459 l 2.107 -0.199 2.893 -4.119 4.357 0.025 -2.951 -1.363 4.436 -0.709 -1.035 -0.744 4.752 -4.445 z" transform="matrix(0.17972561,-0.12876409,0.12876409,0.17972561,-0.76462439,4.9533987)" style="stroke:none;fill-rule:evenodd"/>
 </g>
 <g transform="matrix(3.7016014,2.6052792,-2.6520056,3.6363819,14.871935,-16.592073)">
  <path d="M 6.844,8.933 7.902,8.184 7.196,8.319 7.902,7.62 7.62,7.62 7.902,6.209 7.055,2.258 l 0,5.362 -0.282,0" style="fill:#3771c8;stroke:none;fill-rule:evenodd"/>
  <path d="M 7.06,9.03 C 7.06,9.03 6.344,8.203 6.143,7.705 5.871,7.032 5.735,6.281 5.79,5.558 5.848,4.799 6.207,4.09 6.496,3.386 6.576,3.191 6.778,2.822 6.778,2.822" style="fill:#3771c8;stroke:none;fill-rule:evenodd"/>
  <path d="m 7.126 9.853 -0.353 0.307 0 -7.338 0.282 -0.564 z" style="fill:#214478;stroke:none;fill-rule:evenodd"/>
 </g>
</svg>
