<svg xmlns="http://www.w3.org/2000/svg" viewBox="0 0 48 48">
 <defs>
  <linearGradient id="linearGradient3764" x1="1" x2="47" gradientUnits="userSpaceOnUse" gradientTransform="matrix(0,-1,1,0,-1.5e-6,47.999998)">
   <stop style="stop-color:#d6ecf6;stop-opacity:1"/>
   <stop offset="1" style="stop-color:#e6f4fa;stop-opacity:1"/>
  </linearGradient>
 </defs>
 <g>
  
  
  
 </g>
 <g>
  <path d="m 47,24 C 47,46.703 46.703,47 24,47 1.297,47 1,46.703 1,24 1,1.297 1.297,1 24,1 46.703,1 47,1.297 47,24 z" style="fill:url(#linearGradient3764);fill-opacity:1"/>
 </g>
 <path d="m 25.43 8.879 c -8.274 0 -14.999 6.725 -14.999 14.999 0 8.274 6.725 14.999 14.999 14.999 4.84 0 9.138 -2.314 11.881 -5.878 l -2.448 0 c -2.385 2.466 -5.722 4 -9.432 4 -7.26 0 -13.12 -5.864 -13.12 -13.12 0 -7.26 5.864 -13.12 13.12 -13.12 3.827 0 7.257 1.641 9.656 4.245 l 2.409 0 c -2.732 -3.703 -7.122 -6.123 -12.06 -6.123" mix-blend-mode="normal" isolation="auto" white-space="normal" solid-color="#000000" solid-opacity="1" style="visibility:visible;shape-rendering:auto;color-interpolation-filters:linearRGB;fill:#1a1a1a;opacity:0.6;image-rendering:auto;fill-opacity:1;stroke:none;display:inline;color:#000;fill-rule:nonzero;color-rendering:auto;color-interpolation:sRGB"/>
 <g>
  
 </g>
 <g>
  <g transform="matrix(3.543307,0,0,3.543307,3.9413086e-4,-0.00236059)">
   <g>
    <path d="M 9.215 4.516 A 1.199 1.199 0 0 0 8.02 5.644 l -0.681 0 0 -0.846 -3.104 0 0 1.693 1.411 0 0 0.282 -1.411 0 0 2.822 3.104 0 0 -0.848 0.564 0 0 0.848 2.54 0 0 -1.976 -1.129 0 0 -0.709 A 1.199 1.199 0 0 0 10.414 5.716 1.199 1.199 0 0 0 9.215 4.516 m -1.877 1.41 0.696 0 a 1.199 1.199 0 0 0 0.997 0.973 l 0 0.72 -1.129 0 0 0.846 -0.564 0 0 -1.692 -1.411 0 0 -0.282 1.411 0 0 -0.566 z" style="fill:#000;fill-opacity:0.098;stroke:none;fill-rule:nonzero"/>
    <rect width="0.282" height="0.452" x="5.362" y="6.096" style="fill:#b3b3b3;fill-opacity:1;stroke:none;fill-rule:nonzero"/>
    <rect width="0.847" height="0.282" x="6.947" y="5.362" style="fill:#b3b3b3;fill-opacity:1;stroke:none;fill-rule:nonzero"/>
    <rect width="3.104" height="1.693" x="3.951" y="4.516" style="fill:#cd87de;fill-opacity:1;stroke:none;fill-rule:nonzero"/>
    <rect y="6.576" x="8.749" height="0.847" width="0.282" style="fill:#b3b3b3;fill-opacity:1;stroke:none;fill-rule:nonzero"/>
    <rect y="8.184" x="6.975" height="0.282" width="0.705" style="fill:#b3b3b3;fill-opacity:1;stroke:none;fill-rule:nonzero"/>
    <rect width="3.104" height="2.822" x="3.951" y="6.492" style="fill:#87aade;fill-opacity:1;stroke:none;fill-rule:nonzero"/>
    <rect width="2.54" height="1.976" x="7.62" y="7.338" style="fill:#5fd38d;fill-opacity:1;stroke:none;fill-rule:nonzero"/>
   </g>
  </g>
  <circle r="4.25" cy="19.25" cx="31.65" style="fill:#de8787;fill-opacity:1"/>
 </g>
</svg>
