<svg xmlns="http://www.w3.org/2000/svg" viewBox="0 0 48 48">
 <defs>
  <linearGradient id="linearGradient3764" x1="1" x2="47" gradientUnits="userSpaceOnUse" gradientTransform="matrix(0,-1,1,0,-1.5e-6,47.999998)">
   <stop style="stop-color:#d1ccd8;stop-opacity:1"/>
   <stop offset="1" style="stop-color:#dbd7e1;stop-opacity:1"/>
  </linearGradient>
 </defs>
 <g>
  
  
  
 </g>
 <g>
  <path d="m 47,24 C 47,46.703 46.703,47 24,47 1.297,47 1,46.703 1,24 1,1.297 1.297,1 24,1 46.703,1 47,1.297 47,24 z" style="fill:url(#linearGradient3764);fill-opacity:1"/>
 </g>
 <g>
  
 </g>
 <path d="m 25.43 8.879 c -8.274 0 -14.999 6.725 -14.999 14.999 0 8.274 6.725 14.999 14.999 14.999 4.84 0 9.138 -2.314 11.881 -5.878 l -2.448 0 c -2.385 2.466 -5.722 4 -9.432 4 -7.26 0 -13.12 -5.864 -13.12 -13.12 0 -7.26 5.864 -13.12 13.12 -13.12 3.827 0 7.257 1.641 9.656 4.245 l 2.409 0 c -2.732 -3.703 -7.122 -6.123 -12.06 -6.123" mix-blend-mode="normal" isolation="auto" white-space="normal" solid-color="#000000" solid-opacity="1" style="visibility:visible;shape-rendering:auto;color-interpolation-filters:linearRGB;fill:#1a1a1a;opacity:0.6;image-rendering:auto;fill-opacity:1;stroke:none;display:inline;color:#000;fill-rule:nonzero;color-rendering:auto;color-interpolation:sRGB"/>
 <g transform="matrix(3.543307,0,0,3.543307,-4.9604e-4,-1.642e-4)">
  <g>
   <g>
    <path d="m 4.233 3.951 0 6.209 5.927 0 0 -6.209 -5.927 0 z m 0.564 0.564 a 0.212 0.212 0 0 1 0.212 0.212 0.212 0.212 0 0 1 -0.212 0.212 0.212 0.212 0 0 1 -0.212 -0.212 0.212 0.212 0 0 1 0.212 -0.212 m 0 1.157 a 0.212 0.212 0 0 1 0.212 0.212 0.212 0.212 0 0 1 -0.212 0.212 0.212 0.212 0 0 1 -0.212 -0.212 0.212 0.212 0 0 1 0.212 -0.212 m 0 1.157 a 0.212 0.212 0 0 1 0.212 0.212 0.212 0.212 0 0 1 -0.212 0.212 0.212 0.212 0 0 1 -0.212 -0.212 0.212 0.212 0 0 1 0.212 -0.212 m 0 1.158 a 0.212 0.212 0 0 1 0.212 0.212 0.212 0.212 0 0 1 -0.212 0.212 0.212 0.212 0 0 1 -0.212 -0.212 0.212 0.212 0 0 1 0.212 -0.212 m 0 1.185 a 0.212 0.212 0 0 1 0.212 0.212 0.212 0.212 0 0 1 -0.212 0.212 0.212 0.212 0 0 1 -0.212 -0.212 0.212 0.212 0 0 1 0.212 -0.212" style="fill:#000;fill-opacity:0.098;stroke:none;fill-rule:nonzero"/>
    <path d="m 14 13 0 22 21 0 0 -22 -21 0 z m 2 2 a 0.75 0.75 0 0 1 0.75 0.75 0.75 0.75 0 0 1 -0.75 0.75 0.75 0.75 0 0 1 -0.75 -0.75 0.75 0.75 0 0 1 0.75 -0.75 m 0 4.1 a 0.75 0.75 0 0 1 0.75 0.75 0.75 0.75 0 0 1 -0.75 0.75 0.75 0.75 0 0 1 -0.75 -0.75 0.75 0.75 0 0 1 0.75 -0.75 z m 0 4.1 a 0.75 0.75 0 0 1 0.75 0.75 0.75 0.75 0 0 1 -0.75 0.75 0.75 0.75 0 0 1 -0.75 -0.75 0.75 0.75 0 0 1 0.75 -0.75 z m 0 4.102 a 0.75 0.75 0 0 1 0.75 0.75 0.75 0.75 0 0 1 -0.75 0.75 0.75 0.75 0 0 1 -0.75 -0.75 0.75 0.75 0 0 1 0.75 -0.75 z m 0 4.199 a 0.75 0.75 0 0 1 0.75 0.75 0.75 0.75 0 0 1 -0.75 0.75 0.75 0.75 0 0 1 -0.75 -0.75 0.75 0.75 0 0 1 0.75 -0.75" transform="scale(0.28222223,0.28222223)" style="fill:#f9f9f9;fill-opacity:1;stroke:none;fill-rule:nonzero"/>
    <path d="m 6.773 5.644 1.129 0 0 2.258 -1.129 0 z" style="fill:#87deaa;opacity:1;fill-opacity:1;stroke:none;fill-rule:nonzero"/>
    <path transform="scale(0.28222223,0.28222223)" d="m 18 16 c 0 5.333 0 10.667 0 16 5.333 0 10.667 0 16 0 0 -5.333 0 -10.667 0 -16 -5.333 0 -10.667 0 -16 0 z m 1 1 4 0 0 2 -4 0 z m 5 0 4 0 0 2 -4 0 z m 5 0 4 0 0 2 -4 0 z m -10 3 4 0 0 2 -4 0 z m 5 0 4 0 0 2 -4 0 z m 5 0 4 0 0 2 -4 0 z m -10 3 4 0 0 2 -4 0 z m 5 0 4 0 0 2 -4 0 z m 5 0 4 0 0 2 -4 0 z m -10 3 4 0 0 2 -4 0 z m 5 0 4 0 0 2 -4 0 z m 5 0 4 0 0 2 -4 0 z m -10 3 4 0 0 2 -4 0 z m 5 0 4 0 0 2 -4 0 z m 5 0 4 0 0 2 -4 0 z" style="fill:#999;stroke:none;fill-rule:evenodd"/>
    <path d="m 5.362 5.644 1.129 0 0 0.564 -1.129 0 z" style="fill:#87deaa;opacity:1;fill-opacity:1;stroke:none;fill-rule:nonzero"/>
   </g>
  </g>
 </g>
</svg>
