<svg viewBox="0 0 48 48" xmlns="http://www.w3.org/2000/svg" xmlns:xlink="http://www.w3.org/1999/xlink">
  <linearGradient id="a" gradientTransform="matrix(0 -1 1 0 -.0000015 47.999998)" gradientUnits="userSpaceOnUse" x1="1" x2="47">
    <stop offset="0" stop-color="#d6ecf6"/>
    <stop offset="1" stop-color="#e6f4fa"/>
  </linearGradient>
  <path d="m47 24c0 22.703-.297 23-23 23-22.703 0-23-.297-23-23 0-22.703.297-23 23-23 22.703 0 23 .297 23 23z" fill="url(#a)"/>
  <path d="m25.43 8.879c-8.274 0-14.999 6.725-14.999 14.999 0 8.274 6.725 14.999 14.999 14.999 4.84 0 9.138-2.314 11.881-5.878h-2.448c-2.385 2.466-5.722 4-9.432 4-7.26 0-13.12-5.864-13.12-13.12 0-7.26 5.864-13.12 13.12-13.12 3.827 0 7.257 1.641 9.656 4.245h2.409c-2.732-3.703-7.122-6.123-12.06-6.123" fill="#1a1a1a" opacity=".6"/>
  <g transform="matrix(3.543307 0 0 3.543307 .00039413 -.00236059)">
    <path d="m9.215 4.516a1.199 1.199 0 0 0-1.195 1.128h-.681v-.846h-3.104v1.693h1.411v.282h-1.411v2.822h3.104v-.848h.564v.848h2.54v-1.976h-1.129v-.709a1.199 1.199 0 0 0 1.1-1.194 1.199 1.199 0 0 0-1.199-1.2m-1.877 1.41h.696a1.199 1.199 0 0 0  .997.973v.72h-1.129v.846h-.564v-1.692h-1.411v-.282h1.411v-.566z" fill-opacity=".098"/>
    <path d="m5.362 6.096h.282v.452h-.282z" fill="#b3b3b3"/>
    <path d="m6.947 5.362h.847v.282h-.847z" fill="#b3b3b3"/>
    <path d="m3.951 4.516h3.104v1.693h-3.104z" fill="#cd87de"/>
    <path d="m8.749 6.576h.282v.847h-.282z" fill="#b3b3b3"/>
    <path d="m6.975 8.184h.705v.282h-.705z" fill="#b3b3b3"/>
    <path d="m3.951 6.492h3.104v2.822h-3.104z" fill="#87aade"/>
    <path d="m7.62 7.338h2.54v1.976h-2.54z" fill="#5fd38d"/>
  </g>
  <circle cx="31.65" cy="19.25" fill="#de8787" r="4.25"/>
</svg>
