<svg xmlns="http://www.w3.org/2000/svg" viewBox="0 0 48 48">
 <defs>
  <linearGradient id="linearGradient3764" x1="1" x2="47" gradientUnits="userSpaceOnUse" gradientTransform="matrix(0,-1,1,0,-1.5e-6,47.999998)">
   <stop style="stop-color:#fd5;stop-opacity:1"/>
   <stop offset="1" style="stop-color:#ffe169;stop-opacity:1"/>
  </linearGradient>
 </defs>
 <g>
  
  
  
 </g>
 <g>
  <path d="m 47,24 C 47,46.703 46.703,47 24,47 1.297,47 1,46.703 1,24 1,1.297 1.297,1 24,1 46.703,1 47,1.297 47,24 z" style="fill:url(#linearGradient3764);fill-opacity:1"/>
 </g>
 <g>
  
 </g>
 <path d="m 25.43 8.879 c -8.274 0 -14.999 6.725 -14.999 14.999 0 8.274 6.725 14.999 14.999 14.999 4.84 0 9.138 -2.314 11.881 -5.878 l -2.448 0 c -2.385 2.466 -5.722 4 -9.432 4 -7.26 0 -13.12 -5.864 -13.12 -13.12 0 -7.26 5.864 -13.12 13.12 -13.12 3.827 0 7.257 1.641 9.656 4.245 l 2.409 0 c -2.732 -3.703 -7.122 -6.123 -12.06 -6.123" mix-blend-mode="normal" isolation="auto" white-space="normal" solid-color="#000000" solid-opacity="1" style="visibility:visible;shape-rendering:auto;color-interpolation-filters:linearRGB;fill:#1a1a1a;opacity:0.6;image-rendering:auto;fill-opacity:1;stroke:none;display:inline;color:#000;fill-rule:nonzero;color-rendering:auto;color-interpolation:sRGB"/>
 <g transform="matrix(3.543307,0,0,3.543307,-4.96e-4,-1.639e-4)">
  <path d="m 4.816 3.668 -0.018 6.473 4.781 0.018 0.018 -6.474 -4.78 -0.018 m 0.477 0.564 a 0.212 0.212 0 0 1 0.212 0.212 0.212 0.212 0 0 1 -0.212 0.212 0.212 0.212 0 0 1 -0.212 -0.212 0.212 0.212 0 0 1 0.212 -0.212 m 0 1.637 a 0.212 0.212 0 0 1 0.212 0.212 0.212 0.212 0 0 1 -0.212 0.212 0.212 0.212 0 0 1 -0.212 -0.212 0.212 0.212 0 0 1 0.212 -0.212 m 0 1.637 a 0.212 0.212 0 0 1 0.212 0.212 0.212 0.212 0 0 1 -0.212 0.212 0.212 0.212 0 0 1 -0.212 -0.212 0.212 0.212 0 0 1 0.212 -0.212 m 0 1.665 a 0.212 0.212 0 0 1 0.212 0.212 0.212 0.212 0 0 1 -0.212 0.212 0.212 0.212 0 0 1 -0.212 -0.212 0.212 0.212 0 0 1 0.212 -0.212" style="fill:#000;fill-opacity:0.098;stroke:none;fill-rule:nonzero"/>
  <path d="m 16.06 12 -0.064 22.938 16.939 0.064 0.062 -22.939 -16.938 -0.063 m 1.689 2 a 0.75 0.75 0 0 1 0.75 0.75 0.75 0.75 0 0 1 -0.75 0.75 0.75 0.75 0 0 1 -0.75 -0.75 0.75 0.75 0 0 1 0.75 -0.75 m 0 5.801 a 0.75 0.75 0 0 1 0.75 0.75 0.75 0.75 0 0 1 -0.75 0.75 0.75 0.75 0 0 1 -0.75 -0.75 0.75 0.75 0 0 1 0.75 -0.75 z m 0 5.799 a 0.75 0.75 0 0 1 0.75 0.75 0.75 0.75 0 0 1 -0.75 0.75 0.75 0.75 0 0 1 -0.75 -0.75 0.75 0.75 0 0 1 0.75 -0.75 z m 0 5.9 a 0.75 0.75 0 0 1 0.75 0.75 0.75 0.75 0 0 1 -0.75 0.75 0.75 0.75 0 0 1 -0.75 -0.75 0.75 0.75 0 0 1 0.75 -0.75" transform="scale(0.28222223,0.28222223)" style="fill:#f9f9f9;fill-opacity:1;stroke:none;fill-rule:nonzero"/>
  <path d="m 7.737,4.45 c 0,0 0.502,0.613 0.671,0.978 0.074,0.16 0.128,0.337 0.144,0.516 C 8.642,6.938 8.28,8.922 8.28,8.922 L 7.216,5.983 6.902,6.182 6.293,8.485 6.052,6.229 6.259,6.047 5.882,6.068 6.047,9.313 6.361,9.114 7.049,6.593 7.957,9.192 8.353,9.186 c 0,0 0.372,-2.266 0.399,-3.414 C 8.761,5.403 8.675,4.667 8.675,4.667 Z" style="fill:#000;opacity:0.1;stroke:none;fill-rule:evenodd"/>
  <path d="m 7.502,4.127 c 0,0 0.502,0.613 0.671,0.978 0.074,0.16 0.128,0.337 0.144,0.516 0.09,0.994 -0.272,2.978 -0.272,2.978 L 6.981,5.66 6.667,5.859 6.058,8.162 5.817,5.906 6.024,5.724 5.647,5.745 5.812,8.99 6.126,8.791 6.814,6.27 7.722,8.869 8.118,8.863 c 0,0 0.372,-2.266 0.399,-3.414 C 8.526,5.08 8.44,4.344 8.44,4.344 Z" style="fill:#71c837;stroke:none;fill-rule:evenodd"/>
 </g>
</svg>
