<svg viewBox="0 0 48 48" xmlns="http://www.w3.org/2000/svg" xmlns:xlink="http://www.w3.org/1999/xlink">
  <linearGradient id="a" gradientTransform="matrix(0 -1 1 0 -.0000015 47.999998)" gradientUnits="userSpaceOnUse" x1="1" x2="47">
    <stop offset="0" stop-color="#d1ccd8"/>
    <stop offset="1" stop-color="#dbd7e1"/>
  </linearGradient>
  <path d="m47 24c0 22.703-.297 23-23 23-22.703 0-23-.297-23-23 0-22.703.297-23 23-23 22.703 0 23 .297 23 23z" fill="url(#a)"/>
  <path d="m25.43 8.879c-8.274 0-14.999 6.725-14.999 14.999 0 8.274 6.725 14.999 14.999 14.999 4.84 0 9.138-2.314 11.881-5.878h-2.448c-2.385 2.466-5.722 4-9.432 4-7.26 0-13.12-5.864-13.12-13.12 0-7.26 5.864-13.12 13.12-13.12 3.827 0 7.257 1.641 9.656 4.245h2.409c-2.732-3.703-7.122-6.123-12.06-6.123" fill="#1a1a1a" opacity=".6"/>
  <g transform="matrix(3.543307 0 0 3.543307 -.00049604 -.0001642)">
    <path d="m4.233 3.951v6.209h5.927v-6.209zm.564.564a.212.212 0 0 1  .212.212.212.212 0 0 1-.212.212.212.212 0 0 1-.212-.212.212.212 0 0 1  .212-.212m0 1.157a.212.212 0 0 1  .212.212.212.212 0 0 1-.212.212.212.212 0 0 1-.212-.212.212.212 0 0 1  .212-.212m0 1.157a.212.212 0 0 1  .212.212.212.212 0 0 1-.212.212.212.212 0 0 1-.212-.212.212.212 0 0 1  .212-.212m0 1.158a.212.212 0 0 1  .212.212.212.212 0 0 1-.212.212.212.212 0 0 1-.212-.212.212.212 0 0 1  .212-.212m0 1.185a.212.212 0 0 1  .212.212.212.212 0 0 1-.212.212.212.212 0 0 1-.212-.212.212.212 0 0 1  .212-.212" fill-opacity=".098"/>
    <path d="m14 13v22h21v-22zm2 2a .75.75 0 0 1  .75.75.75.75 0 0 1-.75.75.75.75 0 0 1-.75-.75.75.75 0 0 1  .75-.75m0 4.1a.75.75 0 0 1  .75.75.75.75 0 0 1-.75.75.75.75 0 0 1-.75-.75.75.75 0 0 1  .75-.75zm0 4.1a.75.75 0 0 1  .75.75.75.75 0 0 1-.75.75.75.75 0 0 1-.75-.75.75.75 0 0 1  .75-.75zm0 4.102a.75.75 0 0 1  .75.75.75.75 0 0 1-.75.75.75.75 0 0 1-.75-.75.75.75 0 0 1  .75-.75zm0 4.199a.75.75 0 0 1  .75.75.75.75 0 0 1-.75.75.75.75 0 0 1-.75-.75.75.75 0 0 1  .75-.75" fill="#f9f9f9" transform="scale(.28222223)"/>
    <path d="m6.773 5.644h1.129v2.258h-1.129z" fill="#87deaa"/>
    <path d="m18 16c0 5.333 0 10.667 0 16 5.333 0 10.667 0 16 0 0-5.333 0-10.667 0-16-5.333 0-10.667 0-16 0zm1 1h4v2h-4zm5 0h4v2h-4zm5 0h4v2h-4zm-10 3h4v2h-4zm5 0h4v2h-4zm5 0h4v2h-4zm-10 3h4v2h-4zm5 0h4v2h-4zm5 0h4v2h-4zm-10 3h4v2h-4zm5 0h4v2h-4zm5 0h4v2h-4zm-10 3h4v2h-4zm5 0h4v2h-4zm5 0h4v2h-4z" fill="#999" fill-rule="evenodd" transform="scale(.28222223)"/>
    <path d="m5.362 5.644h1.129v.564h-1.129z" fill="#87deaa"/>
  </g>
</svg>
