<svg viewBox="0 0 48 48" xmlns="http://www.w3.org/2000/svg" xmlns:xlink="http://www.w3.org/1999/xlink">
  <linearGradient id="a" gradientTransform="matrix(0 -1 1 0 -.0000015 47.999998)" gradientUnits="userSpaceOnUse" x1="1" x2="47">
    <stop offset="0" stop-color="#fd5"/>
    <stop offset="1" stop-color="#ffe169"/>
  </linearGradient>
  <path d="m47 24c0 22.703-.297 23-23 23-22.703 0-23-.297-23-23 0-22.703.297-23 23-23 22.703 0 23 .297 23 23z" fill="url(#a)"/>
  <path d="m25.43 8.879c-8.274 0-14.999 6.725-14.999 14.999 0 8.274 6.725 14.999 14.999 14.999 4.84 0 9.138-2.314 11.881-5.878h-2.448c-2.385 2.466-5.722 4-9.432 4-7.26 0-13.12-5.864-13.12-13.12 0-7.26 5.864-13.12 13.12-13.12 3.827 0 7.257 1.641 9.656 4.245h2.409c-2.732-3.703-7.122-6.123-12.06-6.123" fill="#1a1a1a" opacity=".6"/>
  <g transform="matrix(3.543307 0 0 3.543307 -.000496 -.0001639)">
    <path d="m4.816 3.668l-.018 6.473 4.781.018.018-6.474-4.78-.018m.477.564a.212.212 0 0 1  .212.212.212.212 0 0 1-.212.212.212.212 0 0 1-.212-.212.212.212 0 0 1  .212-.212m0 1.637a.212.212 0 0 1  .212.212.212.212 0 0 1-.212.212.212.212 0 0 1-.212-.212.212.212 0 0 1  .212-.212m0 1.637a.212.212 0 0 1  .212.212.212.212 0 0 1-.212.212.212.212 0 0 1-.212-.212.212.212 0 0 1  .212-.212m0 1.665a.212.212 0 0 1  .212.212.212.212 0 0 1-.212.212.212.212 0 0 1-.212-.212.212.212 0 0 1  .212-.212" fill-opacity=".098"/>
    <path d="m16.06 12l-.064 22.938 16.939.064.062-22.939-16.938-.063m1.689 2a .75.75 0 0 1  .75.75.75.75 0 0 1-.75.75.75.75 0 0 1-.75-.75.75.75 0 0 1  .75-.75m0 5.801a.75.75 0 0 1  .75.75.75.75 0 0 1-.75.75.75.75 0 0 1-.75-.75.75.75 0 0 1  .75-.75zm0 5.799a.75.75 0 0 1  .75.75.75.75 0 0 1-.75.75.75.75 0 0 1-.75-.75.75.75 0 0 1  .75-.75zm0 5.9a.75.75 0 0 1  .75.75.75.75 0 0 1-.75.75.75.75 0 0 1-.75-.75.75.75 0 0 1  .75-.75" fill="#f9f9f9" transform="scale(.28222223)"/>
    <path d="m7.737 4.45c0 0 .502.613.671.978.074.16.128.337.144.516.09.994-.272 2.978-.272 2.978l-1.064-2.939-.314.199-.609 2.303-.241-2.256.207-.182-.377.021.165 3.245.314-.199.688-2.521.908 2.599.396-.006c0 0 .372-2.266.399-3.414.009-.369-.077-1.105-.077-1.105z" fill-rule="evenodd" opacity=".1"/>
    <path d="m7.502 4.127c0 0 .502.613.671.978.074.16.128.337.144.516.09.994-.272 2.978-.272 2.978l-1.064-2.939-.314.199-.609 2.303-.241-2.256.207-.182-.377.021.165 3.245.314-.199.688-2.521.908 2.599.396-.006c0 0 .372-2.266.399-3.414.009-.369-.077-1.105-.077-1.105z" fill="#71c837" fill-rule="evenodd"/>
  </g>
</svg>
