<svg xmlns="http://www.w3.org/2000/svg" viewBox="0 0 48 48">
 <defs>
  <linearGradient id="linearGradient3845" y1="47" x2="0" y2="1" gradientUnits="userSpaceOnUse">
   <stop style="stop-color:#7d4972;stop-opacity:1"/>
   <stop offset="1" style="stop-color:#8a507e;stop-opacity:1"/>
  </linearGradient>
 </defs>
 <g>
  
  
  
 </g>
 <g>
  <path d="m 24 1 c 22.703 0 23 0.297 23 23 c 0 22.703 -0.297 23 -23 23 -22.703 0 -23 -0.297 -23 -23 0 -22.703 0.297 -23 23 -23 z" style="fill:url(#linearGradient3845);fill-opacity:1"/>
 </g>
 <g>
  
 </g>
 <path d="m 23 12 -0.674 3.373 c -0.792 0.22 -1.544 0.529 -2.244 0.926 l -2.859 -1.906 -2.83 2.83 1.906 2.859 c -0.397 0.7 -0.706 1.452 -0.926 2.244 l -3.373 0.674 l 0 4 3.373 0.674 c 0.22 0.792 0.529 1.544 0.926 2.244 l -1.906 2.859 2.83 2.83 2.859 -1.906 c 0.7 0.397 1.452 0.706 2.244 0.926 l 0.674 3.373 l 4 0 0.674 -3.373 c 0.792 -0.22 1.544 -0.529 2.244 -0.926 l 2.859 1.906 2.83 -2.83 -1.906 -2.859 c 0.397 -0.7 0.706 -1.452 0.926 -2.244 l 3.373 -0.674 0 -4 -3.373 -0.674 c -0.22 -0.792 -0.529 -1.544 -0.926 -2.244 l 1.906 -2.859 -2.83 -2.83 -2.859 1.906 c -0.7 -0.397 -1.452 -0.706 -2.244 -0.926 l -0.674 -3.373 -4 0 m 2 10 a 3 3 0 0 1 3 3 3 3 0 0 1 -3 3 3 3 0 0 1 -3 -3 3 3 0 0 1 3 -3 z" style="fill:#000;opacity:1;fill-opacity:0.098;stroke:none;fill-rule:nonzero"/>
 <path d="m 22 11 l -0.674 3.373 c -0.792 0.22 -1.544 0.529 -2.244 0.926 l -2.859 -1.906 l -2.83 2.83 l 1.906 2.859 c -0.397 0.7 -0.706 1.452 -0.926 2.244 l -3.373 0.674 l 0 4 l 3.373 0.674 c 0.22 0.792 0.529 1.544 0.926 2.244 l -1.906 2.859 l 2.83 2.83 l 2.859 -1.906 c 0.7 0.397 1.452 0.706 2.244 0.926 l 0.674 3.373 l 4 0 l 0.674 -3.373 c 0.792 -0.22 1.544 -0.529 2.244 -0.926 l 2.859 1.906 l 2.83 -2.83 l -1.906 -2.859 c 0.397 -0.7 0.706 -1.452 0.926 -2.244 l 3.373 -0.674 l 0 -4 l -3.373 -0.674 c -0.22 -0.792 -0.529 -1.544 -0.926 -2.244 l 1.906 -2.859 l -2.83 -2.83 l -2.859 1.906 c -0.7 -0.397 -1.452 -0.706 -2.244 -0.926 l -0.674 -3.373 l -4 0 z m 2 10 a 3 3 0 0 1 3 3 a 3 3 0 0 1 -3 3 a 3 3 0 0 1 -3 -3 a 3 3 0 0 1 3 -3 z" style="fill:#c8c8c8;opacity:1;fill-opacity:1;stroke:none;fill-rule:nonzero"/>
</svg>
