<svg viewBox="0 0 48 48" xmlns="http://www.w3.org/2000/svg" xmlns:xlink="http://www.w3.org/1999/xlink">
  <linearGradient id="a" gradientTransform="matrix(0 -1 1 0 -.0000015 47.999998)" gradientUnits="userSpaceOnUse" x1="1" x2="47">
    <stop offset="0" stop-color="#e4e4e4"/>
    <stop offset="1" stop-color="#eee"/>
  </linearGradient>
  <path d="m47 24c0 22.703-.297 23-23 23-22.703 0-23-.297-23-23 0-22.703.297-23 23-23 22.703 0 23 .297 23 23z" fill="url(#a)"/>
  <g opacity=".1" transform="translate(1 1)">
    <path d="m11.785 11.781c-.68.676-1.125 1.336-.449 2.02l22.801 22.813c.676.676 1.516.406 2.195-.27.68-.676.953-1.512.277-2.188l-22.801-22.813c-.676-.68-1.344-.23-2.02.441m4.34 4.348c.348-.348.672-.559 1.02-.211l18.84 18.844c.348.348.074.613-.273.961-.344.348-.613.613-.957.27l-18.84-18.848c-.348-.348-.133-.668.215-1.016m-.004 0"/>
    <path d="m17.5 24.805l-.813 2.43-2.438.813 2.438.809.813 2.434.813-2.434 2.438-.809-2.438-.813m-.813-2.43"/>
    <path d="m31.719 11.438l-1.219 3.645-3.656 1.219 3.656 1.215 1.219 3.645 1.219-3.645 3.656-1.215-3.656-1.219m-1.219-3.645"/>
    <path d="m21.563 11.03l-.813 2.43-2.438.813 2.438.809.813 2.434.809-2.434 2.438-.809-2.438-.813m-.809-2.43"/>
  </g>
  <path d="m11.785 11.781c-.68.676-1.125 1.336-.449 2.02l22.801 22.813c.676.676 1.516.406 2.195-.27.68-.676.953-1.512.277-2.188l-22.801-22.813c-.676-.68-1.344-.23-2.02.441m4.34 4.348c.348-.348.672-.559 1.02-.211l18.84 18.844c.348.348.074.613-.273.961-.344.348-.613.613-.957.27l-18.84-18.848c-.348-.348-.133-.668.215-1.016m-.004 0" fill="#2d2d2d"/>
  <path d="m17.5 24.805l-.813 2.43-2.438.813 2.438.809.813 2.434.813-2.434 2.438-.809-2.438-.813m-.813-2.43" fill="#09f"/>
  <path d="m31.719 11.438l-1.219 3.645-3.656 1.219 3.656 1.215 1.219 3.645 1.219-3.645 3.656-1.215-3.656-1.219m-1.219-3.645" fill="#d42093"/>
  <path d="m21.563 11.03l-.813 2.43-2.438.813 2.438.809.813 2.434.809-2.434 2.438-.809-2.438-.813m-.809-2.43" fill="#ff5b00"/>
</svg>
