<svg viewBox="0 0 48 48" xmlns="http://www.w3.org/2000/svg" xmlns:xlink="http://www.w3.org/1999/xlink">
  <linearGradient id="a" gradientUnits="userSpaceOnUse" x2="0" y1="47" y2="1">
    <stop offset="0" stop-color="#a9c5e2"/>
    <stop offset="1" stop-color="#b9d0e7"/>
  </linearGradient>
  <linearGradient id="b" gradientUnits="userSpaceOnUse" x2="0" y1="37" y2="24">
    <stop offset="0" stop-opacity=".2"/>
    <stop offset="1" stop-opacity="0"/>
  </linearGradient>
  <path d="m24 1c22.703 0 23 .297 23 23 0 22.703-.297 23-23 23-22.703 0-23-.297-23-23 0-22.703.297-23 23-23z" fill="url(#a)"/>
  <ellipse cx="25" cy="25" opacity=".1" rx="15" ry="13"/>
  <ellipse cx="24" cy="24" fill="#888a85" rx="15" ry="13"/>
  <path d="m39 24c0 7.18-6.716 13-15 13-8.284 0-15-5.82-15-13" fill="url(#b)"/>
  <path d="m14.675 22.502a3.725 3.259 45 0 0-1.631.361 3.725 3.259 45 0 0-.947 4.689 3.725 3.259 45 0 0  4.857 1.584 3.725 3.259 45 0 0  .947-4.689 3.725 3.259 45 0 0-3.227-1.945zm19.648 0a3.259 3.725 45 0 0-3.227 1.945 3.259 3.725 45 0 0  .947 4.689 3.259 3.725 45 0 0  4.857-1.584 3.259 3.725 45 0 0-.947-4.689 3.259 3.725 45 0 0-1.631-.361zm-9.823 6.998c-5 0-9 1.5-10 2.5 3 .5 6 1.5 10 4.5 4-3 7-4 10-4.5-1-1-5-2.5-10-2.5z" opacity=".1"/>
  <ellipse cx="-1.186" cy="29.389" fill="#fdf5dd" opacity=".99" rx="3.292" ry="3.696" transform="matrix(.88182788 -.47157141 .52897687 .84863624 0 0)"/>
  <ellipse cx="15" cy="26.5" fill="#2e3436" opacity=".99" rx="1" ry="1.5"/>
  <ellipse cx="-42.01" cy="6.704" fill="#fdf5dd" opacity=".99" rx="3.292" ry="3.696" transform="matrix(-.88182788 -.47157141 -.52897687 .84863624 0 0)"/>
  <ellipse cx="-33" cy="26.5" fill="#2e3436" opacity=".99" rx="1" ry="1.5" transform="scale(-1 1)"/>
  <path d="m14 31.5c1-1 5-2.5 10-2.5 5 0 9 1.5 10 2.5-3 .5-6 1.5-10 4.5-4-3-7-4-10-4.5" fill="#fded68" opacity=".99"/>
  <ellipse cx="22.5" cy="32" fill="#2e3436" opacity=".99" rx=".5" ry="1"/>
  <ellipse cx="25.5" cy="32" fill="#2e3436" opacity=".99" rx=".5" ry="1"/>
</svg>
