<svg xmlns="http://www.w3.org/2000/svg" viewBox="0 0 48 48">
 <defs>
  <linearGradient id="linearGradient3764" x1="1" x2="47" gradientUnits="userSpaceOnUse" gradientTransform="matrix(0,-1,1,0,-1.5e-6,47.999998)">
   <stop style="stop-color:#7d94af;stop-opacity:1"/>
   <stop offset="1" style="stop-color:#8a9eb6;stop-opacity:1"/>
  </linearGradient>
 </defs>
 <g>
  
  
  
 </g>
 <g>
  <path d="m 47,24 C 47,46.703 46.703,47 24,47 1.297,47 1,46.703 1,24 1,1.297 1.297,1 24,1 46.703,1 47,1.297 47,24 z" style="fill:url(#linearGradient3764);fill-opacity:1"/>
 </g>
 <g>
  
 </g>
 <path d="m 25 12 c -7.18 0 -13 5.82 -13 13 0 7.18 5.82 13 13 13 4.385 0 7.788 -0.678 10.426 -1.742 c 0.211 -1.989 0.574 -4.258 0.574 -6.258 l -1.939 0 c -1.45 3.678 -4.37 5.995 -7.561 6 -4.694 0 -8.5 -4.925 -8.5 -11 c 0 -6.075 3.806 -11 8.5 -11 3.195 -0.001 6.12 2.317 7.572 6 l 1.928 0 c 0 -2 -0.364 -4.269 -0.574 -6.258 -2.638 -1.064 -6.04 -1.742 -10.426 -1.742 m 7 9 c 0 1.333 0 2.667 0 4 l 2 0 c 0.554 0 1 0.446 1 1 l 0 1 c 0 0.554 -0.446 1 -1 1 l -2 0 0 1 2 0 c 1.108 0 2 -0.892 2 -2 l 0 -1 c 0 -1.108 -0.892 -2 -2 -2 l -1 0 0 -2 3 0 0 -1 z" style="fill:#000;opacity:0.1;fill-opacity:1;stroke:none"/>
 <path d="m 24 11 c -7.18 0 -13 5.82 -13 13 0 7.18 5.82 13 13 13 4.385 0 7.788 -0.678 10.426 -1.742 c 0.211 -1.989 0.574 -4.258 0.574 -6.258 l -1.939 0 c -1.45 3.678 -4.37 5.995 -7.561 6 -4.694 0 -8.5 -4.925 -8.5 -11 c 0 -6.075 3.806 -11 8.5 -11 3.195 -0.001 6.12 2.317 7.572 6 l 1.928 0 c 0 -2 -0.364 -4.269 -0.574 -6.258 -2.638 -1.064 -6.04 -1.742 -10.426 -1.742 m 7 9 c 0 1.333 0 2.667 0 4 l 2 0 c 0.554 0 1 0.446 1 1 l 0 1 c 0 0.554 -0.446 1 -1 1 l -2 0 0 1 2 0 c 1.108 0 2 -0.892 2 -2 l 0 -1 c 0 -1.108 -0.892 -2 -2 -2 l -1 0 0 -2 3 0 0 -1 z" style="fill:#484848;opacity:1;fill-opacity:1;stroke:none"/>
</svg>
