<svg xmlns="http://www.w3.org/2000/svg" viewBox="0 0 48 48">
 <defs>
  <linearGradient id="linearGradient3764" x1="1" x2="47" gradientUnits="userSpaceOnUse" gradientTransform="matrix(0,-1,1,0,-1.5e-6,47.999998)">
   <stop style="stop-color:#e56925;stop-opacity:1"/>
   <stop offset="1" style="stop-color:#e77537;stop-opacity:1"/>
  </linearGradient>
 </defs>
 <g>
  
  
  
 </g>
 <g>
  <path d="m 47,24 C 47,46.703 46.703,47 24,47 1.297,47 1,46.703 1,24 1,1.297 1.297,1 24,1 46.703,1 47,1.297 47,24 z" style="fill:url(#linearGradient3764);fill-opacity:1"/>
 </g>
 <g>
  <g>
   <!-- color: #5dba7c -->
  </g>
 </g>
 <g>
  
 </g>
 <path d="m 22.996 11 -0.965 2.895 c -0.974 0.263 -1.909 0.653 -2.781 1.16 l -2.738 -1.369 -2.83 2.83 1.367 2.734 c -0.503 0.873 -0.889 1.808 -1.148 2.781 l -2.9 0.969 l 0 4 2.895 0.965 c 0.263 0.974 0.653 1.909 1.16 2.781 l -1.369 2.738 2.83 2.83 l 2.734 -1.367 c 0.873 0.503 1.804 0.889 2.777 1.148 l 0.973 2.9 l 1.998 0 0 -6.996 c -3.866 0 -7 -3.134 -7 -7 0 -3.866 3.134 -7 7 -7 l 0 -7 z m 13.752 4 -9.75 10.5 -3.75 -3.75 -2.25 2.25 6 6 12 -12.75 z" style="fill:#000;opacity:0.1;fill-opacity:1;stroke:none"/>
 <path d="m 21.996 10 -0.965 2.895 c -0.974 0.263 -1.909 0.653 -2.781 1.16 l -2.738 -1.369 -2.83 2.83 1.367 2.734 c -0.503 0.873 -0.889 1.808 -1.148 2.781 l -2.9 0.969 l 0 4 2.895 0.965 c 0.263 0.974 0.653 1.909 1.16 2.781 l -1.369 2.738 2.83 2.83 l 2.734 -1.367 c 0.873 0.503 1.804 0.889 2.777 1.148 l 0.973 2.9 l 1.998 0 0 -6.996 c -3.866 0 -7 -3.134 -7 -7 0 -3.866 3.134 -7 7 -7 l 0 -7 z m 13.752 4 -9.75 10.5 -3.75 -3.75 -2.25 2.25 6 6 12 -12.75 z" style="fill:#f9f9f9;opacity:1;fill-opacity:0.983;stroke:none"/>
</svg>
