<svg viewBox="0 0 48 48" xmlns="http://www.w3.org/2000/svg" xmlns:xlink="http://www.w3.org/1999/xlink">
  <linearGradient id="a" gradientTransform="matrix(0 -1 1 0 -.0000015 47.999998)" gradientUnits="userSpaceOnUse" x1="1" x2="47">
    <stop offset="0" stop-color="#e56925"/>
    <stop offset="1" stop-color="#e77537"/>
  </linearGradient>
  <path d="m47 24c0 22.703-.297 23-23 23-22.703 0-23-.297-23-23 0-22.703.297-23 23-23 22.703 0 23 .297 23 23z" fill="url(#a)"/>
  <path d="m22.996 11l-.965 2.895c-.974.263-1.909.653-2.781 1.16l-2.738-1.369-2.83 2.83 1.367 2.734c-.503.873-.889 1.808-1.148 2.781l-2.9.969v4l2.895.965c.263.974.653 1.909 1.16 2.781l-1.369 2.738 2.83 2.83 2.734-1.367c.873.503 1.804.889 2.777 1.148l.973 2.9h1.998v-6.996c-3.866 0-7-3.134-7-7 0-3.866 3.134-7 7-7v-7zm13.752 4l-9.75 10.5-3.75-3.75-2.25 2.25 6 6 12-12.75z" opacity=".1"/>
  <path d="m21.996 10l-.965 2.895c-.974.263-1.909.653-2.781 1.16l-2.738-1.369-2.83 2.83 1.367 2.734c-.503.873-.889 1.808-1.148 2.781l-2.9.969v4l2.895.965c.263.974.653 1.909 1.16 2.781l-1.369 2.738 2.83 2.83 2.734-1.367c.873.503 1.804.889 2.777 1.148l.973 2.9h1.998v-6.996c-3.866 0-7-3.134-7-7 0-3.866 3.134-7 7-7v-7zm13.752 4l-9.75 10.5-3.75-3.75-2.25 2.25 6 6 12-12.75z" fill="#f9f9f9" fill-opacity=".983"/>
</svg>
