<svg viewBox="0 0 48 48" xmlns="http://www.w3.org/2000/svg" xmlns:xlink="http://www.w3.org/1999/xlink">
  <linearGradient id="a" gradientTransform="matrix(0 -1 1 0 -.0000015 47.999998)" gradientUnits="userSpaceOnUse" x1="1" x2="47">
    <stop offset="0" stop-color="#936f97"/>
    <stop offset="1" stop-color="#9c7aa0"/>
  </linearGradient>
  <path d="m47 24c0 22.703-.297 23-23 23-22.703 0-23-.297-23-23 0-22.703.297-23 23-23 22.703 0 23 .297 23 23z" fill="url(#a)"/>
  <g opacity=".1" transform="translate(1 1)">
    <path d="m15.609 30c-.926 0-1.613.621-1.613 1.57v3.43h20v-3.43c0-.949-.469-1.57-1.391-1.57-7 0-10 0-17 0m0 0"/>
    <path d="m34 21c0 5.523-4.477 10-10 10-5.523 0-10-4.477-10-10 0-5.523 4.477-10 10-10 5.523 0 10 4.477 10 10m0 0"/>
  </g>
  <path d="m15.609 30c-.926 0-1.613.621-1.613 1.57v3.43h20v-3.43c0-.949-.469-1.57-1.391-1.57-7 0-10 0-17 0m0 0" fill="#f9f9f9"/>
  <path d="m34 21c0 5.523-4.477 10-10 10-5.523 0-10-4.477-10-10 0-5.523 4.477-10 10-10 5.523 0 10 4.477 10 10m0 0" fill="#f9f9f9"/>
  <path d="m30 21c0 3.313-2.684 6-6 6-3.313 0-6-2.688-6-6 0-3.313 2.688-6 6-6 3.316 0 6 2.688 6 6m0 0" fill="#dcdcdc"/>
  <path d="m27 21c0 1.656-1.344 3-3 3-1.656 0-3-1.344-3-3 0-1.656 1.344-3 3-3 1.656 0 3 1.344 3 3m0 0" fill="#999"/>
</svg>
