<svg viewBox="0 0 48 48" xmlns="http://www.w3.org/2000/svg" xmlns:xlink="http://www.w3.org/1999/xlink">
  <linearGradient id="a" gradientTransform="matrix(0 -1 1 0 -.0000015 47.999998)" gradientUnits="userSpaceOnUse" x1="1" x2="47">
    <stop offset="0" stop-color="#333"/>
    <stop offset="1" stop-color="#3d3d3d"/>
  </linearGradient>
  <path d="m47 24c0 22.703-.297 23-23 23-22.703 0-23-.297-23-23 0-22.703.297-23 23-23 22.703 0 23 .297 23 23z" fill="url(#a)"/>
  <path d="m17.563 11.996c-.313 0-.566.25-.566.566v4.875c0 .313.25.563.566.563h.434l-1 1 1 1-.906 10.996h-.094c-1.109 0-1.996.895-1.996 2 0 .363.109.703.277 1h-.277l-1 1.996h19.996l-.996-1.996h-.281c.172-.297.281-.637.281-1 0-1.109-.895-2-2-2h-.09l-.91-10.996 1-1-1-1h .438c.316 0 .566-.246.566-.563v-4.875c0-.313-.246-.566-.566-.566h-1.438v2h-2v-2h-2v2h-1.996v-2h-2v2h-1.996v-2m-1.445 0" opacity=".1" transform="translate(1 1)"/>
  <path d="m17.563 11.996c-.313 0-.566.25-.566.566v4.875c0 .313.25.563.566.563h.434l-1 1 1 1-.906 10.996h-.094c-1.109 0-1.996.895-1.996 2 0 .363.109.703.277 1h-.277l-1 1.996h19.996l-.996-1.996h-.281c.172-.297.281-.637.281-1 0-1.109-.895-2-2-2h-.09l-.91-10.996 1-1-1-1h .438c.316 0 .566-.246.566-.563v-4.875c0-.313-.246-.566-.566-.566h-1.438v2h-2v-2h-2v2h-1.996v-2h-2v2h-1.996v-2m-1.445 0" fill="#f9f9f9"/>
</svg>
