<svg viewBox="0 0 48 48" xmlns="http://www.w3.org/2000/svg" xmlns:xlink="http://www.w3.org/1999/xlink">
  <linearGradient id="a" gradientTransform="matrix(0 -1 1 0 -.0000015 47.999998)" gradientUnits="userSpaceOnUse" x1="1" x2="47">
    <stop offset="0" stop-color="#658ab7"/>
    <stop offset="1" stop-color="#7394bd"/>
  </linearGradient>
  <path d="m47 24c0 22.703-.297 23-23 23-22.703 0-23-.297-23-23 0-22.703.297-23 23-23 22.703 0 23 .297 23 23z" fill="url(#a)"/>
  <path d="m25.14 29.957c-.082-2.723.578-5.363 3.363-7.234 2.941-2.117 5.777-4.766 5.477-7.887-.066-3.01-3.863-5.367-7.957-5.707-4.605-.59-10.18.867-11.723 4.188-.781 1.613-.059 4.512 2.57 4.512 1.535 0 2.242-.918 2.355-1.754.09-.637-.191-1.203-.359-1.727-.188-.598.621-1.754 1.504-2.223.738-.395 1.508-.527 1.621-.551 2.648-.59 5.289.707 6.387 2.289 1.102 1.578-.109 3.973-1.852 6.301-1.742 2.332-3.613 4.977-3.605 7.785 0 1.07-.102 1.434-.031 1.867.059.344 1.301.305 2.25.141m-1.207 3.664c-2.531-.125-4.285 2.523-2.766 4.211 1.359 1.863 5.168 1.402 5.82-.707.68-1.641-.953-3.531-3.055-3.504m0 0" opacity=".1" transform="translate(1 1)"/>
  <path d="m25.14 29.957c-.082-2.723.578-5.363 3.363-7.234 2.941-2.117 5.777-4.766 5.477-7.887-.066-3.01-3.863-5.367-7.957-5.707-4.605-.59-10.18.867-11.723 4.188-.781 1.613-.059 4.512 2.57 4.512 1.535 0 2.242-.918 2.355-1.754.09-.637-.191-1.203-.359-1.727-.188-.598.621-1.754 1.504-2.223.738-.395 1.508-.527 1.621-.551 2.648-.59 5.289.707 6.387 2.289 1.102 1.578-.109 3.973-1.852 6.301-1.742 2.332-3.613 4.977-3.605 7.785 0 1.07-.102 1.434-.031 1.867.059.344 1.301.305 2.25.141m-1.207 3.664c-2.531-.125-4.285 2.523-2.766 4.211 1.359 1.863 5.168 1.402 5.82-.707.68-1.641-.953-3.531-3.055-3.504m0 0" fill="#fff"/>
</svg>
