<svg viewBox="0 0 48 48" xmlns="http://www.w3.org/2000/svg" xmlns:xlink="http://www.w3.org/1999/xlink">
  <linearGradient id="a" gradientUnits="userSpaceOnUse" x2="0" y1="47" y2="1">
    <stop offset="0" stop-color="#c3e5f1"/>
    <stop offset="1" stop-color="#d3ecf5"/>
  </linearGradient>
  <path d="m24 1c22.703 0 23 .297 23 23 0 22.703-.297 23-23 23-22.703 0-23-.297-23-23 0-22.703.297-23 23-23z" fill="url(#a)"/>
  <path d="m26 11c-1.061 0-1.979.866-2.721 1.344-1.346 1.019-2.744 3.08-3.266 4.619-4.268 1.706-7.01 5.432-7.01 9.537-.004 5.799 5.373 10.5 12 10.5 6.627 0 12-4.701 12-10.5-.002-4.094-2.75-7.787-7-9.5 1-.356 1.908-1.252 2-2-1-2-2-2-4.158-1.563.075-.168.172-.336.188-.531.137-1.214-1.092-1.906-2.029-1.906" opacity=".1"/>
  <path d="m25 10c-1.061 0-1.979.866-2.721 1.344-1.346 1.019-2.744 3.08-3.266 4.619-4.268 1.706-7.01 5.432-7.01 9.537-.004 5.799 5.373 10.5 12 10.5 6.627 0 12-4.701 12-10.5-.002-4.094-2.75-7.787-7-9.5 1-.356 1.908-1.252 2-2-1-2-2-2-4.158-1.563.075-.168.172-.336.188-.531.137-1.214-1.092-1.906-2.029-1.906" fill="#ace14d"/>
  <path d="m19.95 24.05l-4.375.156.031 1 4.375-.156z" fill="#353535"/>
  <ellipse cx="29.694" cy="20.988" fill="#f9f9f9" rx="1.978" ry="3.01" transform="matrix(.9943045 .10657657 -.12032336 .99273475 0 0)"/>
  <ellipse cx="30.19" cy="22.04" fill="#353535" rx="1.185" ry="1.512" transform="matrix(.99603499 .08896232 -.14393993 .98958643 0 0)"/>
  <path d="m19.583 29.885c1.171 2.796 4.535 3.066 4.489-.683z" fill="#e66200"/>
  <path d="m17.969 30.31c1.968-1.513 3.66-4.71 6.454-1.158-1.012 1.561-4.01 1.077-6.454 1.158z" fill="#f7cf0f"/>
</svg>
