<svg viewBox="0 0 48 48" xmlns="http://www.w3.org/2000/svg" xmlns:xlink="http://www.w3.org/1999/xlink">
  <linearGradient id="a" gradientTransform="matrix(0 -1 1 0 -.0000015 47.999998)" gradientUnits="userSpaceOnUse" x1="1" x2="47">
    <stop offset="0" stop-color="#e4e4e4"/>
    <stop offset="1" stop-color="#eee"/>
  </linearGradient>
  <path d="m47 24c0 22.703-.297 23-23 23-22.703 0-23-.297-23-23 0-22.703.297-23 23-23 22.703 0 23 .297 23 23z" fill="url(#a)"/>
  <g opacity=".1" transform="translate(1 1)">
    <path d="m24 13c-5.922 0-10.949 3.641-13 8.813l11 4.125 3-12.906c-.332-.023-.66-.031-1-.031m1 .031c-16.668 23.313-8.332 11.656 0 0m0 0" fill-rule="evenodd"/>
    <path d="m25 13.03l1 12.969h.094l10.906-4.188c-1.934-4.879-6.52-8.398-12-8.781m0 0"/>
    <path d="m24 25.02c-2.762 0-5 2.238-5 5 0 2.762 2.238 5 5 5 2.758 0 5-2.238 5-5 0-2.762-2.242-5-5-5m0 3c1.105 0 1.996.898 1.996 2 0 1.105-.895 2-1.996 2-1.105 0-2-.898-2-2 0-1.105.898-2 2-2m0 0"/>
  </g>
  <path d="m24 13c-5.922 0-10.949 3.641-13 8.813l11 4.125 3-12.906c-.332-.023-.66-.031-1-.031m1 .031c-16.668 23.313-8.332 11.656 0 0m0 0" fill="#76a4fa" fill-rule="evenodd"/>
  <path d="m25 13.03l1 12.969h.094l10.906-4.188c-1.934-4.879-6.52-8.398-12-8.781m0 0" fill="#427fec"/>
  <path d="m24 25.02c-2.762 0-5 2.238-5 5 0 2.762 2.238 5 5 5 2.758 0 5-2.238 5-5 0-2.762-2.242-5-5-5m0 3c1.105 0 1.996.898 1.996 2 0 1.105-.895 2-1.996 2-1.105 0-2-.898-2-2 0-1.105.898-2 2-2m0 0" fill="#999"/>
</svg>
