<svg viewBox="0 0 48 48" xmlns="http://www.w3.org/2000/svg" xmlns:xlink="http://www.w3.org/1999/xlink">
  <linearGradient id="a" gradientTransform="matrix(0 -1 1 0 -.0000015 47.999998)" gradientUnits="userSpaceOnUse" x1="1" x2="47">
    <stop offset="0" stop-color="#e4e4e4"/>
    <stop offset="1" stop-color="#eee"/>
  </linearGradient>
  <path d="m47 24c0 22.703-.297 23-23 23-22.703 0-23-.297-23-23 0-22.703.297-23 23-23 22.703 0 23 .297 23 23z" fill="url(#a)"/>
  <g opacity=".1" transform="translate(1 1)">
    <path d="m16.887 13h .227c.488 0 .887.398.887.887v20.227c0 .492-.398.887-.887.887h-.227c-.488 0-.887-.395-.887-.887v-20.227c0-.488.398-.887.887-.887m0 0"/>
    <path d="m24 13.887v.227c0 .488-.398.887-.887.887h-12.227c-.492 0-.887-.398-.887-.887v-.227c0-.488.395-.887.887-.887h12.227c.488 0 .887.398.887.887m0 0"/>
    <path d="m25.984 13h2.988c11.969 0 13.965 22.539-5.984 21.988h-2.988c0-.996 0-1.988 1.492-1.988h1.496c15.01.996 14.816-18 5.984-18h-2.988c1.496 0 1.465-2 0-2m0 0"/>
  </g>
  <path d="m16.887 13h .227c.488 0 .887.398.887.887v20.227c0 .492-.398.887-.887.887h-.227c-.488 0-.887-.395-.887-.887v-20.227c0-.488.398-.887.887-.887m0 0" fill="#f25a1f"/>
  <path d="m24 13.887v.227c0 .488-.398.887-.887.887h-12.227c-.492 0-.887-.398-.887-.887v-.227c0-.488.395-.887.887-.887h12.227c.488 0 .887.398.887.887m0 0" fill="#f25a1f"/>
  <path d="m25.984 13h2.988c11.969 0 13.965 22.539-5.984 21.988h-2.988c0-.996 0-1.988 1.492-1.988h1.496c15.01.996 14.816-18 5.984-18h-2.988c1.496 0 1.465-2 0-2m0 0" fill="#f25a1f"/>
</svg>
