<svg viewBox="0 0 48 48" xmlns="http://www.w3.org/2000/svg" xmlns:xlink="http://www.w3.org/1999/xlink">
  <linearGradient id="a" gradientTransform="matrix(0 -1 1 0 -.0000015 47.999998)" gradientUnits="userSpaceOnUse" x1="1" x2="47">
    <stop offset="0" stop-color="#e4e4e4"/>
    <stop offset="1" stop-color="#eee"/>
  </linearGradient>
  <path d="m47 24c0 22.703-.297 23-23 23-22.703 0-23-.297-23-23 0-22.703.297-23 23-23 22.703 0 23 .297 23 23z" fill="url(#a)"/>
  <g opacity=".1" transform="translate(1 1)">
    <path d="m24 11l-13 22h26m-13-13c1.66 0 3 .992 3 2.219v5.563c0 1.227-1.34 2.219-3 2.219-1.66 0-3-.992-3-2.219v-5.563c0-1.227 1.34-2.219 3-2.219m0 0"/>
    <path d="m18 29h .004c1.102 0 2 .793 2 1.77v4.457c0 .98-.898 1.773-2 1.773h-.004c-1.105 0-2-.793-2-1.773v-4.457c0-.977.895-1.77 2-1.77m0 0"/>
    <path d="m29.996 29h .004c1.105 0 2 .793 2 1.77v4.457c0 .98-.895 1.773-2 1.773h-.004c-1.102 0-1.996-.793-1.996-1.773v-4.457c0-.977.895-1.77 1.996-1.77m0 0"/>
    <path d="m24 21h .004c1.102 0 1.996.793 1.996 1.773v4.457c0 .977-.895 1.773-1.996 1.773h-.004c-1.105 0-2-.797-2-1.773v-4.457c0-.98.895-1.773 2-1.773m0 0"/>
    <path d="m15.5 18h .004c.824 0 1.496.793 1.496 1.773v8.457c0 .977-.672 1.77-1.496 1.77h-.004c-.828 0-1.5-.793-1.5-1.77v-8.457c0-.98.672-1.773 1.5-1.773m0 0"/>
    <path d="m32.5 18h .004c.828 0 1.496.793 1.496 1.773v8.457c0 .977-.668 1.77-1.496 1.77h-.004c-.828 0-1.5-.793-1.5-1.77v-8.457c0-.98.672-1.773 1.5-1.773m0 0"/>
  </g>
  <path d="m24 11l-13 22h26m-13-13c1.66 0 3 .992 3 2.219v5.563c0 1.227-1.34 2.219-3 2.219-1.66 0-3-.992-3-2.219v-5.563c0-1.227 1.34-2.219 3-2.219m0 0" fill="#863db9"/>
  <path d="m18 29h .004c1.102 0 2 .793 2 1.77v4.457c0 .98-.898 1.773-2 1.773h-.004c-1.105 0-2-.793-2-1.773v-4.457c0-.977.895-1.77 2-1.77m0 0" fill="#863db9"/>
  <path d="m29.996 29h .004c1.105 0 2 .793 2 1.77v4.457c0 .98-.895 1.773-2 1.773h-.004c-1.102 0-1.996-.793-1.996-1.773v-4.457c0-.977.895-1.77 1.996-1.77m0 0" fill="#863db9"/>
  <path d="m24 21h .004c1.102 0 1.996.793 1.996 1.773v4.457c0 .977-.895 1.773-1.996 1.773h-.004c-1.105 0-2-.797-2-1.773v-4.457c0-.98.895-1.773 2-1.773m0 0" fill="#863db9"/>
  <path d="m15.5 18h .004c.824 0 1.496.793 1.496 1.773v8.457c0 .977-.672 1.77-1.496 1.77h-.004c-.828 0-1.5-.793-1.5-1.77v-8.457c0-.98.672-1.773 1.5-1.773m0 0" fill="#863db9"/>
  <path d="m32.5 18h .004c.828 0 1.496.793 1.496 1.773v8.457c0 .977-.668 1.77-1.496 1.77h-.004c-.828 0-1.5-.793-1.5-1.77v-8.457c0-.98.672-1.773 1.5-1.773m0 0" fill="#863db9"/>
</svg>
