<svg viewBox="0 0 48 48" xmlns="http://www.w3.org/2000/svg" xmlns:xlink="http://www.w3.org/1999/xlink">
  <linearGradient id="a" gradientTransform="matrix(0 -1 1 0 -.0000015 47.999998)" gradientUnits="userSpaceOnUse" x1="1" x2="47">
    <stop offset="0" stop-color="#3d3d3d"/>
    <stop offset="1" stop-color="#474747"/>
  </linearGradient>
  <path d="m47 24c0 22.703-.297 23-23 23-22.703 0-23-.297-23-23 0-22.703.297-23 23-23 22.703 0 23 .297 23 23z" fill="url(#a)"/>
  <path d="m16.063 12c-2.244 0-4.063 1.819-4.063 4.063v17.875c0 2.244 1.819 4.063 4.063 4.063h17.875c2.244 0 4.063-1.819 4.063-4.063v-17.875c0-2.244-1.819-4.063-4.063-4.063zm8.938 29.25a1.375 1.375 0 0 0-1.375 1.375 1.375 1.375 0 0 0  1.375 1.375 1.375 1.375 0 0 0  1.375-1.375 1.375 1.375 0 0 0-1.375-1.375z" opacity=".1"/>
  <g transform="matrix(.65000002 0 0 .64999874 11.74785531 5.80003965)">
    <path d="m8.849 8h10v40h-10z" fill="#f67152"/>
    <path d="m8.849 8v40h-3.715c-3.481.011-6.274-2.782-6.285-6.285v-27.43c.007-3.506 2.811-6.292 6.285-6.285z" fill="#d14e40"/>
    <path d="m18.849 8h10v40h-10z" fill="#fca069"/>
    <path d="m28.849 8v40h3.715c3.481.011 6.274-2.782 6.285-6.285v-27.43c-.007-3.506-2.811-6.292-6.285-6.285z" fill="#fbc77c"/>
  </g>
  <g opacity=".1" transform="matrix(3.6929165 0 0 3.5932358 -.46445411 1.5068157)">
    <path d="m5 48c-3.064-.007-6.145-2.536-6.154-6.285v-.987c3.4.007 6.17 2.909 6.154 7.273z" opacity="1" transform="matrix(.18344445 0 0 .15522192 3.3155058 2.4271205)"/>
    <g transform="matrix(.24374774 0 0 .24374774 .28197305 1.035413)">
      <path d="m75.65 7.661h-4c0 9.94-8.06 18-18 18v4c12.15 0 22-9.85 22-22z" transform="matrix(0 -.74831793 .74831793 0 5.8465669 76.42122)"/>
      <path d="m67.65 7.661h-4c0 5.52-4.48 10-10 10v4c7.73 0 14-6.27 14-14z" transform="matrix(0 -.74831793 .74831793 0 5.8465669 76.42122)"/>
    </g>
  </g>
  <g fill="#fff" transform="matrix(3.5433071 0 0 3.5433071 -.0000001 1.9999997)">
    <path d="m5 48c-3.064-.007-6.145-2.536-6.154-6.285v-.987c3.4.007 6.17 2.909 6.154 7.273z" transform="matrix(.18344445 0 0 .15522192 3.3155058 2.4271205)"/>
    <g transform="matrix(.24374774 0 0 .24374774 .28197305 1.035413)">
      <path d="m75.65 7.661h-4c0 9.94-8.06 18-18 18v4c12.15 0 22-9.85 22-22z" transform="matrix(0 -.74831793 .74831793 0 5.8465669 76.42122)"/>
      <path d="m67.65 7.661h-4c0 5.52-4.48 10-10 10v4c7.73 0 14-6.27 14-14z" transform="matrix(0 -.74831793 .74831793 0 5.8465669 76.42122)"/>
    </g>
  </g>
  <circle cx="24" cy="41.625" fill="#fff" fill-rule="evenodd" r="1.375"/>
</svg>
