<svg viewBox="0 0 48 48" xmlns="http://www.w3.org/2000/svg" xmlns:xlink="http://www.w3.org/1999/xlink">
  <linearGradient id="a" gradientTransform="matrix(0 -1 1 0 -.0000015 47.999998)" gradientUnits="userSpaceOnUse" x1="1" x2="47">
    <stop offset="0" stop-color="#333"/>
    <stop offset="1" stop-color="#3d3d3d"/>
  </linearGradient>
  <path d="m47 24c0 22.703-.297 23-23 23-22.703 0-23-.297-23-23 0-22.703.297-23 23-23 22.703 0 23 .297 23 23z" fill="url(#a)"/>
  <g opacity=".1" transform="translate(1 1)">
    <path d="m28.03 38.445c-2.566.719-5.332.758-8.03.012l1.402-3.398c1.754.414 3.535.391 5.215-.008m1.41 3.395"/>
    <path d="m18.04 33.668c-1.535-.941-2.785-2.215-3.691-3.684l-3.395 1.41c1.309 2.316 3.246 4.301 5.684 5.672m1.402-3.398"/>
    <path d="m10.934 16.637l3.398 1.402c.941-1.535 2.215-2.785 3.688-3.691l-1.41-3.395c-2.32 1.309-4.305 3.246-5.676 5.684m0 0"/>
    <path d="m12.949 26.621c-.398-1.68-.422-3.465-.004-5.215l-3.398-1.402c-.754 2.695-.711 5.465.008 8.03m3.395-1.41"/>
    <path d="m33.668 29.961c-.941 1.535-2.215 2.785-3.684 3.695l1.41 3.391c2.316-1.309 4.301-3.242 5.672-5.68m-3.398-1.406"/>
    <path d="m21.367 12.949c1.68-.398 3.465-.422 5.215-.004l1.402-3.398c-2.695-.754-5.465-.711-8.03.008m1.41 3.395"/>
    <path d="m29.961 14.332c1.535.941 2.785 2.215 3.695 3.688l3.391-1.41c-1.309-2.32-3.242-4.305-5.68-5.676m-1.406 3.398"/>
    <path d="m35.05 21.367c.398 1.68.422 3.465.008 5.215l3.398 1.402c.75-2.695.707-5.465-.012-8.03m-3.395 1.41"/>
    <path d="m24 15c-4.973 0-9 4.03-9 9 0 4.973 4.03 9 9 9 4.973 0 9-4.03 9-9 0-4.973-4.03-9-9-9m0 4c2.762 0 5 2.238 5 5 0 2.762-2.238 5-5 5-2.762 0-5-2.238-5-5 0-2.762 2.238-5 5-5m0 0"/>
  </g>
  <path d="m28.03 38.445c-2.566.719-5.332.758-8.03.012l1.402-3.398c1.754.414 3.535.391 5.215-.008m1.41 3.395" fill="#ff8600"/>
  <path d="m18.04 33.668c-1.535-.941-2.785-2.215-3.691-3.684l-3.395 1.41c1.309 2.316 3.246 4.301 5.684 5.672m1.402-3.398" fill="#dc2c2e"/>
  <path d="m10.934 16.637l3.398 1.402c.941-1.535 2.215-2.785 3.688-3.691l-1.41-3.395c-2.32 1.309-4.305 3.246-5.676 5.684m0 0" fill="#c769ff"/>
  <path d="m12.949 26.621c-.398-1.68-.422-3.465-.004-5.215l-3.398-1.402c-.754 2.695-.711 5.465.008 8.03m3.395-1.41" fill="#de28b1"/>
  <path d="m33.668 29.961c-.941 1.535-2.215 2.785-3.684 3.695l1.41 3.391c2.316-1.309 4.301-3.242 5.672-5.68m-3.398-1.406" fill="#e5d717"/>
  <path d="m21.367 12.949c1.68-.398 3.465-.422 5.215-.004l1.402-3.398c-2.695-.754-5.465-.711-8.03.008m1.41 3.395" fill="#20b9ce"/>
  <path d="m29.961 14.332c1.535.941 2.785 2.215 3.695 3.688l3.391-1.41c-1.309-2.32-3.242-4.305-5.68-5.676m-1.406 3.398" fill="#20c145"/>
  <path d="m35.05 21.367c.398 1.68.422 3.465.008 5.215l3.398 1.402c.75-2.695.707-5.465-.012-8.03m-3.395 1.41" fill="#a2d620"/>
  <path d="m24 15c-4.973 0-9 4.03-9 9 0 4.973 4.03 9 9 9 4.973 0 9-4.03 9-9 0-4.973-4.03-9-9-9m0 4c2.762 0 5 2.238 5 5 0 2.762-2.238 5-5 5-2.762 0-5-2.238-5-5 0-2.762 2.238-5 5-5m0 0" fill="#dedede"/>
</svg>
