<svg viewBox="0 0 48 48" xmlns="http://www.w3.org/2000/svg" xmlns:xlink="http://www.w3.org/1999/xlink">
  <linearGradient id="a" gradientUnits="userSpaceOnUse" x1="1" x2="47">
    <stop offset="0" stop-color="#a4c40c"/>
    <stop offset="1" stop-color="#b4d70d"/>
  </linearGradient>
  <path d="m24 1c22.703 0 23 .297 23 23 0 22.703-.297 23-23 23-22.703 0-23-.297-23-23 0-22.703.297-23 23-23z" fill="url(#a)" transform="matrix(0 -1 1 0 0 48)"/>
  <path d="m11 14v22h4v-19l8.992 13.145-3.992 5.855h2l3-4.385 3 4.385h2l-3.992-5.855 8.992-13.145v19h4v-22h-4l-10 14.666-10-14.666z" opacity=".1"/>
  <path d="m10 35v-22h4l15 22h-2l-13-19v19z" fill="#334802"/>
  <path d="m38 35v-22h-4l-15 22h2l13-19v19z" fill="#334802"/>
</svg>
