<svg viewBox="0 0 48 48" xmlns="http://www.w3.org/2000/svg" xmlns:xlink="http://www.w3.org/1999/xlink">
  <linearGradient id="a" gradientTransform="matrix(0 -1 1 0 -.0000015 47.999998)" gradientUnits="userSpaceOnUse" x1="1" x2="47">
    <stop offset="0" stop-color="#f2a95a"/>
    <stop offset="1" stop-color="#f4b46d"/>
  </linearGradient>
  <path d="m47 24c0 22.703-.297 23-23 23-22.703 0-23-.297-23-23 0-22.703.297-23 23-23 22.703 0 23 .297 23 23z" fill="url(#a)"/>
  <path d="m19 13v6h-4.227c-.98 0-1.773.793-1.773 1.773v14.453c0 .98.793 1.771 1.773 1.771h20.453c.98 0 1.771-.791 1.771-1.771v-14.453c0-.98-.791-1.773-1.771-1.773h-4.227v-6h-12zm2 2h8v4h-8z" opacity=".1" transform=""/>
  <path d="m13.773 18h20.453c.98 0 1.773.793 1.773 1.773v14.453c0 .98-.793 1.773-1.773 1.773h-20.453c-.98 0-1.773-.793-1.773-1.773v-14.453c0-.98.793-1.773 1.773-1.773m0 0" fill="#a98054"/>
  <path d="m18 20v-8h12v8h-1.996v-6h-8v6m-2 0" fill="#a98054"/>
  <path d="m14 18h1.996v2h-1.996m0-2" fill="#ffe453"/>
  <path d="m31.996 18h2v2h-2m0-2" fill="#ffe453"/>
  <path d="m14 20h2v16h-2m0-16" fill="#78512f"/>
  <path d="m31.996 20h2v16h-2m0-16" fill="#78512f"/>
  <path d="m36 20l-22 16h20.22c.98 0 1.781-.801 1.781-1.781m0-14.219" fill-opacity=".102"/>
</svg>
