<svg xmlns="http://www.w3.org/2000/svg" viewBox="0 0 48 48">
 <defs>
  <linearGradient id="linearGradient3764" x1="1" x2="47" gradientUnits="userSpaceOnUse" gradientTransform="matrix(0,-1,1,0,-1.5e-6,47.999998)">
   <stop style="stop-color:#333;stop-opacity:1"/>
   <stop offset="1" style="stop-color:#3d3d3d;stop-opacity:1"/>
  </linearGradient>
 </defs>
 <g>
  
  
  
 </g>
 <g>
  <path d="m 47,24 C 47,46.703 46.703,47 24,47 1.297,47 1,46.703 1,24 1,1.297 1.297,1 24,1 46.703,1 47,1.297 47,24 z" style="fill:url(#linearGradient3764);fill-opacity:1"/>
 </g>
 <g>
  <g>
   <g transform="translate(1,1)">
    <g style="opacity:0.1">
     <!-- color: #3d3d3d -->
     <g>
      <path d="m 18 11.996 c -0.555 0 -1 0.449 -1 1 l 0 4 -4 0 c -0.551 0 -1 0.449 -1 1 l 0 17 c 0 0.551 0.449 1 1 1 l 22 0 c 0.555 0 1 -0.449 1 -1 l 0 -17 c 0 -0.551 -0.445 -1 -1 -1 l -4 0 0 -4 c 0 -0.551 -0.445 -1 -1 -1 l -11.996 0 z m 2 2 8 0 c 0.551 0 1 0.445 1 1 l 0 2 -10 0 0 -2 c 0 -0.555 0.445 -1 1 -1 z"/>
     </g>
    </g>
   </g>
  </g>
 </g>
 <g transform="translate(0.004,0)">
  <g>
   <!-- color: #3d3d3d -->
   <g>
    <path d="m 12.996 17 22 0 c 0.555 0 1 0.449 1 1 l 0 17 c 0 0.551 -0.445 1 -1 1 l -22 0 c -0.551 0 -1 -0.449 -1 -1 l 0 -17 c 0 -0.551 0.449 -1 1 -1 m 0 0" style="fill:#de3c28;fill-opacity:1;stroke:none;fill-rule:nonzero"/>
    <path d="m 11.996 20.996 24 0 0 1 -24 0 m 0 -1" style="fill:#333;fill-opacity:1;stroke:none;fill-rule:nonzero"/>
    <path d="m 13.5,34 c -0.277,0 -0.5,0.223 -0.5,0.5 0,0.277 0.223,0.5 0.5,0.5 l 21,0 C 34.777,35 35,34.777 35,34.5 35,34.223 34.777,34 34.5,34 m -21,0" style="fill:#333;fill-opacity:1;stroke:none;fill-rule:nonzero"/>
    <path d="m 13.332 32 c -0.273 0 -0.5 0.223 -0.5 0.5 0 0.273 0.227 0.5 0.5 0.5 l 21 0 c 0.277 0 0.5 -0.227 0.5 -0.5 0 -0.277 -0.223 -0.5 -0.5 -0.5 m -21 0" style="fill:#333;fill-opacity:1;stroke:none;fill-rule:nonzero"/>
    <path d="m 23 20 2 0 c 0.551 0 1 0.445 1 1 l 0 4 c 0 0.551 -0.449 1 -1 1 l -2 0 c -0.555 0 -1 -0.449 -1 -1 l 0 -4 c 0 -0.555 0.445 -1 1 -1 m 0 0" style="fill:#b2b2b2;fill-opacity:1;stroke:none;fill-rule:nonzero"/>
    <path d="m 24 21 c 0.551 0 1 0.445 1 1 l 0 2 c 0 0.551 -0.449 1 -1 1 -0.555 0 -1 -0.449 -1 -1 l 0 -2 c 0 -0.555 0.445 -1 1 -1 m 0 0" style="fill:#333;fill-opacity:1;stroke:none;fill-rule:nonzero"/>
    <path d="m 18,11.996 c -0.555,0 -1,0.449 -1,1 l 0,4 2,0 L 19,15 c 0,-0.555 0.445,-1 1,-1 l 8,0 c 0.551,0 1,0.445 1,1 l 0,1.996 1.996,0 0,-4 c 0,-0.551 -0.445,-1 -1,-1 m -11.996,0" style="fill:#b2b2b2;fill-opacity:1;stroke:none;fill-rule:nonzero"/>
   </g>
  </g>
 </g>
 <g>
  
 </g>
</svg>
