<svg xmlns="http://www.w3.org/2000/svg" viewBox="0 0 48 48">
 <defs>
  <linearGradient id="linearGradient3764" x1="1" x2="47" gradientUnits="userSpaceOnUse" gradientTransform="matrix(0,-1,1,0,-1.5e-6,47.999998)">
   <stop style="stop-color:#d7d7d7;stop-opacity:1"/>
   <stop offset="1" style="stop-color:#e1e1e1;stop-opacity:1"/>
  </linearGradient>
 </defs>
 <g>
  
  
  
 </g>
 <g>
  <path d="m 47,24 C 47,46.703 46.703,47 24,47 1.297,47 1,46.703 1,24 1,1.297 1.297,1 24,1 46.703,1 47,1.297 47,24 z" style="fill:url(#linearGradient3764);fill-opacity:1"/>
 </g>
 <g>
  <g>
   <g transform="translate(1,1)">
    <g style="opacity:0.1">
     <!-- color: #d7d7d7 -->
     <g>
      <path d="m 30.656 16 l 4.674 8.773 l -1.307 2.652 l 0 -3.117 c 0 -2.881 -2.321 -3.488 -4.367 -3.488 l -0.002 0 l -0.002 0 c -4.242 0.002 -4.652 2.809 -4.652 3.18 l 2.113 0 c 0 0 0.25 -1.84 2.398 -1.84 c 1.395 0 2.477 0.637 2.477 1.867 l 0 0.438 l -2.477 0 c -2.036 0 -3.475 0.372 -4.279 1.115 c -0.624 -0.459 -1.394 -0.732 -2.303 -0.732 c -2.391 0 -2.93 1.15 -2.93 1.15 l 0 -5 l -2 0.002 l 0 1.35 c -0.781 -0.915 -2.069 -1.631 -4.082 -1.631 c -2.82 0 -5.172 1.199 -5.172 4.809 c 0 2.863 1.59 4.475 5.254 4.475 c 2.058 0 3.274 -0.684 4 -1.398 l 0 5.396 l 2 0 l 0 -1 c 0 0 0.586 1.32 2.887 1.32 c 2.235 0 3.826 -1.675 4.064 -4.131 c 0.405 0.095 0.839 0.154 1.307 0.154 c 2.957 0 3.91 -1.633 3.91 -1.633 c 0 0.648 0.051 1.289 0.051 1.289 l 1.879 0 c 0 0 -0.074 -0.793 -0.074 -1.301 l 0 -0.699 l 1.975 0 l 6 -12 l -2.15 0 l -3.402 6.832 l -3.414 -6.832 l -2.375 0 z m -16.809 6.07 c 1.688 0 2.84 1.035 2.84 2.586 l -5.828 0 c 0 -1.645 1.504 -2.586 2.988 -2.586 z m 18.14 3.707 l 0 0.586 c 0 0.758 -0.468 2.648 -3.229 2.648 c -0.994 0 -1.61 -0.331 -1.918 -0.803 c -0.061 -0.273 -0.14 -0.534 -0.238 -0.783 c 0 -0.015 -0.004 -0.028 -0.004 -0.043 c 0 -1.594 2.183 -1.605 5.389 -1.605 z m -21.17 0.229 l 7.188 0 l 0 1 l -1.09 0 c 0 0 -0.793 1.326 -2.973 1.326 c -1.773 0 -3.125 -0.646 -3.125 -2.326 z m 11.674 0.225 l 0.002 0 c 0.853 0 1.539 0.386 2.01 1.018 c -0.002 0.047 -0.016 0.087 -0.016 0.135 c 0 0.751 0.252 1.363 0.68 1.836 c 0.008 0.113 0.023 0.223 0.023 0.34 c 0 2.047 -1.25 3.383 -2.723 3.383 c -1.758 0 -2.707 -1.594 -2.707 -3.363 c 0 -1.648 0.889 -3.348 2.732 -3.348 z" transform="translate(-1,-1)" style="fill:#000;fill-opacity:1;stroke:none;fill-rule:nonzero"/>
     </g>
    </g>
   </g>
  </g>
 </g>
 <g>
  <g>
   <!-- color: #d7d7d7 -->
   <g>
    <path d="m 29.656 15 l 2.375 0 l 3.414 6.832 l 3.402 -6.832 l 2.152 0 l -6 12 l -2.258 0 l 1.59 -3.227 m -4.676 -8.773" style="fill:#67b117;fill-opacity:1;stroke:none;fill-rule:nonzero"/>
    <path d="m 28.656 19.82 c -4.246 0 -4.656 2.809 -4.656 3.18 l 2.113 0 c 0 0 0.25 -1.84 2.398 -1.84 c 1.395 0 2.477 0.637 2.477 1.867 l 0 0.438 l -2.477 0 c -3.289 0 -5.03 0.961 -5.03 2.914 c 0 1.922 1.605 2.965 3.777 2.965 c 2.957 0 3.91 -1.633 3.91 -1.633 c 0 0.648 0.051 1.289 0.051 1.289 l 1.879 0 c 0 0 -0.074 -0.793 -0.074 -1.301 l 0 -4.391 c 0 -2.883 -2.324 -3.488 -4.371 -3.488 m 2.332 4.953 l 0 0.586 c 0 0.758 -0.469 2.648 -3.23 2.648 c -1.512 0 -2.16 -0.754 -2.16 -1.629 c 0 -1.594 2.184 -1.605 5.391 -1.605 m 0 0" style="fill:#e4b60c;fill-opacity:1;stroke:none;fill-rule:nonzero"/>
    <path d="m 17 20 0 13 2 0 0 -1 c 0 0 0.586 1.32 2.887 1.32 2.426 0 4.113 -1.961 4.113 -4.766 0 -2.609 -1.512 -4.707 -4.07 -4.707 -2.391 0 -2.93 1.152 -2.93 1.152 l 0 -5 m 2.488 5.227 c 1.648 0 2.695 1.422 2.695 3.328 0 2.047 -1.25 3.383 -2.723 3.383 -1.758 0 -2.707 -1.594 -2.707 -3.363 0 -1.648 0.891 -3.348 2.734 -3.348" style="fill:#1263bd;fill-opacity:1;stroke:none;fill-rule:nonzero"/>
    <path d="m 12.918 19.719 c -2.82 0 -5.172 1.199 -5.172 4.809 c 0 2.863 1.59 4.473 5.254 4.473 c 4.313 0 5 -3 5 -3 l -2.09 0 c 0 0 -0.793 1.328 -2.973 1.328 c -1.773 0 -3.125 -0.648 -3.125 -2.328 l 8.188 0 l 0 -1.055 c 0 -1.66 -1.254 -4.227 -5.082 -4.227 m -0.07 1.348 c 1.688 0 2.84 1.035 2.84 2.586 l -5.828 0 c 0 -1.645 1.504 -2.586 2.988 -2.586 m 0 0" style="fill:#e63239;fill-opacity:1;stroke:none;fill-rule:nonzero"/>
   </g>
  </g>
 </g>
 <g>
  
 </g>
</svg>
