<svg viewBox="0 0 48 48" xmlns="http://www.w3.org/2000/svg" xmlns:xlink="http://www.w3.org/1999/xlink">
  <linearGradient id="a" gradientTransform="matrix(0 -1 1 0 -.0000015 47.999998)" gradientUnits="userSpaceOnUse" x1="1" x2="47">
    <stop offset="0" stop-color="#506d94"/>
    <stop offset="1" stop-color="#5776a1"/>
  </linearGradient>
  <path d="m47 24c0 22.703-.297 23-23 23-22.703 0-23-.297-23-23 0-22.703.297-23 23-23 22.703 0 23 .297 23 23z" fill="url(#a)"/>
  <path d="m21.375 11c-.516 0-.91.262-1.156.625-.25.355-.348.801-.344 1.188.02.809.422 1.496 1 2.031-.957.426-1.848 1.012-2.531 1.75-.68.68-1.332 1.445-1.625 2.344.004.141.051.27.094.406-.434.027-.945-.039-1.25.313-.547.559-.699 1.348-.969 2.031-1.227 3.906-.582 8.371 2.031 11.688 1.418 1.785 3.523 3.172 5.938 3.531 1.305.188 2.07.242 3.281-.063 2.469-.496 4.578-2.055 5.906-4 2.457-3.492 2.867-8.07 1.344-11.969-.203-.465-.383-.988-.781-1.344-.266-.172-.617-.23-.938-.25.207-.391.09-.844-.219-1.156-.941-1.418-2.289-2.68-3.938-3.375.527-.523.918-1.172.938-1.938.004-.387-.125-.832-.375-1.188-.246-.363-.641-.625-1.156-.625-.172 0-.34.027-.5.125-.16.098-.316.285-.313.5.02.078.004.137 0 .219 0 .238.234.438.5.438.258 0 .469-.199.469-.438 0-.238-.211-.434-.469-.438.09-.055.215-.09.313-.094.379 0 .641.207.844.5.203.293.316.68.313 1-.012.715-.371 1.324-.906 1.813-.188-.07-.367-.137-.563-.188-.871-.227-1.758-.289-2.656-.281-.844.031-1.656.227-2.438.531-.574-.5-.984-1.129-1-1.875-.004-.32.109-.707.313-1 .203-.293.469-.5.844-.5.098.004.223.039.313.094-.258.004-.438.195-.438.438 0 .238.211.438.469.438.266 0 .469-.199.469-.438-.004-.082-.02-.141 0-.219.008-.215-.121-.402-.281-.5-.148-.098-.352-.125-.52-.125m-.16 5.969c1.375 2.246 3.758 4.797 3.281 6.469-2.031 2.777-4.57 2.648-6.406 0-.41-1.441 1.727-4.184 3.125-6.469m7.094 7.125c.977 1.602 2.652 3.402 2.313 4.594-1.445 1.977-3.254 1.887-4.563 0-.289-1.027 1.258-2.969 2.25-4.594m-6.688 6.03c.691 1.148 1.895 2.438 1.648 3.281-1.035 1.41-2.313 1.344-3.25 0-.207-.727.883-2.121 1.602-3.281m0 0" opacity=".1" transform="translate(1 1)"/>
  <path d="m21.375 11c-.516 0-.91.262-1.156.625-.25.355-.348.801-.344 1.188.02.809.422 1.496 1 2.031-.957.426-1.848 1.012-2.531 1.75-.68.68-1.332 1.445-1.625 2.344.004.141.051.27.094.406-.434.027-.945-.039-1.25.313-.547.559-.699 1.348-.969 2.031-1.227 3.906-.582 8.371 2.031 11.688 1.418 1.785 3.523 3.172 5.938 3.531 1.305.188 2.07.242 3.281-.063 2.469-.496 4.578-2.055 5.906-4 2.457-3.492 2.867-8.07 1.344-11.969-.203-.465-.383-.988-.781-1.344-.266-.172-.617-.23-.938-.25.207-.391.09-.844-.219-1.156-.941-1.418-2.289-2.68-3.938-3.375.527-.523.918-1.172.938-1.938.004-.387-.125-.832-.375-1.188-.246-.363-.641-.625-1.156-.625-.172 0-.34.027-.5.125-.16.098-.316.285-.313.5.02.078.004.137 0 .219 0 .238.234.438.5.438.258 0 .469-.199.469-.438 0-.238-.211-.434-.469-.438.09-.055.215-.09.313-.094.379 0 .641.207.844.5.203.293.316.68.313 1-.012.715-.371 1.324-.906 1.813-.188-.07-.367-.137-.563-.188-.871-.227-1.758-.289-2.656-.281-.844.031-1.656.227-2.438.531-.574-.5-.984-1.129-1-1.875-.004-.32.109-.707.313-1 .203-.293.469-.5.844-.5.098.004.223.039.313.094-.258.004-.438.195-.438.438 0 .238.211.438.469.438.266 0 .469-.199.469-.438-.004-.082-.02-.141 0-.219.008-.215-.121-.402-.281-.5-.148-.098-.352-.125-.52-.125m-.16 5.969c1.375 2.246 3.758 4.797 3.281 6.469-2.031 2.777-4.57 2.648-6.406 0-.41-1.441 1.727-4.184 3.125-6.469m7.094 7.125c.977 1.602 2.652 3.402 2.313 4.594-1.445 1.977-3.254 1.887-4.563 0-.289-1.027 1.258-2.969 2.25-4.594m-6.688 6.03c.691 1.148 1.895 2.438 1.648 3.281-1.035 1.41-2.313 1.344-3.25 0-.207-.727.883-2.121 1.602-3.281m0 0" fill="#f9f9f9"/>
</svg>
