<svg xmlns="http://www.w3.org/2000/svg" viewBox="0 0 48 48">
 <defs>
  <linearGradient id="linearGradient3764" x1="1" x2="47" gradientUnits="userSpaceOnUse" gradientTransform="matrix(0,-1,1,0,-1.5e-6,47.999998)">
   <stop style="stop-color:#f2a95a;stop-opacity:1"/>
   <stop offset="1" style="stop-color:#f4b46d;stop-opacity:1"/>
  </linearGradient>
 </defs>
 <g>
  
  
  
 </g>
 <g>
  <path d="m 47,24 C 47,46.703 46.703,47 24,47 1.297,47 1,46.703 1,24 1,1.297 1.297,1 24,1 46.703,1 47,1.297 47,24 z" style="fill:url(#linearGradient3764);fill-opacity:1"/>
 </g>
 <g>
  <g>
   <g transform="translate(1,1)">
    <g style="opacity:0.1">
     <!-- color: #f4b46d -->
     <g>
      <path d="m 19 13 l 0 6 l -4.227 0 c -0.98 0 -1.773 0.793 -1.773 1.773 l 0 14.453 c 0 0.98 0.793 1.771 1.773 1.771 l 20.453 0 c 0.98 0 1.771 -0.791 1.771 -1.771 l 0 -14.453 c 0 -0.98 -0.791 -1.773 -1.771 -1.773 l -4.227 0 l 0 -6 l -12 0 z m 2 2 l 8 0 l 0 4 l -8 0 l 0 -4 z" transform="translate(-1,-1)"/>
     </g>
    </g>
   </g>
  </g>
 </g>
 <g>
  <g>
   <!-- color: #f4b46d -->
   <g>
    <path d="m 13.773,18 20.453,0 c 0.98,0 1.773,0.793 1.773,1.773 l 0,14.453 c 0,0.98 -0.793,1.773 -1.773,1.773 l -20.453,0 C 12.793,35.999 12,35.206 12,34.226 L 12,19.773 C 12,18.793 12.793,18 13.773,18 m 0,0" style="fill:#a98054;fill-opacity:1;stroke:none;fill-rule:nonzero"/>
    <path d="m 18 20 0 -8 12 0 0 8 -1.996 0 0 -6 -8 0 0 6 m -2 0" style="fill:#a98054;fill-opacity:1;stroke:none;fill-rule:nonzero"/>
    <path d="m 14,18 1.996,0 0,2 L 14,20 m 0,-2" style="fill:#ffe453;fill-opacity:1;stroke:none;fill-rule:nonzero"/>
    <path d="m 31.996 18 2 0 0 2 -2 0 m 0 -2" style="fill:#ffe453;fill-opacity:1;stroke:none;fill-rule:nonzero"/>
    <path d="m 14 20 2 0 0 16 -2 0 m 0 -16" style="fill:#78512f;fill-opacity:1;stroke:none;fill-rule:nonzero"/>
    <path d="m 31.996 20 2 0 0 16 -2 0 m 0 -16" style="fill:#78512f;fill-opacity:1;stroke:none;fill-rule:nonzero"/>
    <path d="m 36 20 -22 16 20.22 0 c 0.98 0 1.781 -0.801 1.781 -1.781 m 0 -14.219" style="fill:#000;fill-opacity:0.102;stroke:none;fill-rule:nonzero"/>
   </g>
  </g>
 </g>
 <g>
  
 </g>
</svg>
