<svg viewBox="0 0 48 48" xmlns="http://www.w3.org/2000/svg" xmlns:xlink="http://www.w3.org/1999/xlink">
  <linearGradient id="a" gradientTransform="matrix(0 -1 1 0 -.0000015 47.999998)" gradientUnits="userSpaceOnUse" x1="1" x2="47">
    <stop offset="0" stop-color="#3487a2"/>
    <stop offset="1" stop-color="#3993b1"/>
  </linearGradient>
  <path d="m47 24c0 22.703-.297 23-23 23-22.703 0-23-.297-23-23 0-22.703.297-23 23-23 22.703 0 23 .297 23 23z" fill="url(#a)"/>
  <path d="m28 13c-3.059 0-5.676 1.844-6.844 4.469-.461-.289-.977-.469-1.563-.469-1.656 0-3 1.344-3 3 0 .5.125.961.344 1.375-2.297.84-3.939 3.035-3.939 5.625 0 3.313 2.688 6 6 6h1v4l4-4h8c2.762 0 5-2.238 5-5 0-1.75-.918-3.293-2.281-4.188.496-1 .779-2.118.779-3.314 0-4.141-3.357-7.498-7.498-7.498m-8 6h3l3 6.5 3-6.5h3c .554 0 1 .446 1 1 0 .554-.446 1-1 1v8c .554 0 1 .446 1 1 0 .554-.446 1-1 1h-3c-.554 0-1-.446-1-1 0-.554.446-1 1-1h1v-7.355l-3 6.355h-2l-3-6.355v7.355h1c .554 0 1 .446 1 1 0 .554-.446 1-1 1h-3c-.554 0-1-.446-1-1 0-.554.446-1 1-1v-8c-.554 0-1-.446-1-1 0-.554.446-1 1-1z" opacity=".1"/>
  <path d="m27 12c-3.059 0-5.676 1.844-6.844 4.469-.461-.289-.977-.469-1.563-.469-1.656 0-3 1.344-3 3 0 .5.125.961.344 1.375-2.297.84-3.939 3.035-3.939 5.625 0 3.313 2.688 6 6 6h1v4l4-4h8c2.762 0 5-2.238 5-5 0-1.75-.918-3.293-2.281-4.188.496-1 .779-2.118.779-3.314 0-4.141-3.357-7.498-7.498-7.498m-8 6h3l3 6.5 3-6.5h3c .554 0 1 .446 1 1 0 .554-.446 1-1 1v8c .554 0 1 .446 1 1 0 .554-.446 1-1 1h-3c-.554 0-1-.446-1-1 0-.554.446-1 1-1h1v-7.355l-3 6.355h-2l-3-6.355v7.355h1c .554 0 1 .446 1 1 0 .554-.446 1-1 1h-3c-.554 0-1-.446-1-1 0-.554.446-1 1-1v-8c-.554 0-1-.446-1-1 0-.554.446-1 1-1z" fill="#f9f9f9"/>
</svg>
