<svg viewBox="0 0 48 48" xmlns="http://www.w3.org/2000/svg" xmlns:xlink="http://www.w3.org/1999/xlink">
  <linearGradient id="a" gradientTransform="matrix(0 -1 1 0 -.0000015 47.999998)" gradientUnits="userSpaceOnUse" x1="1" x2="47">
    <stop offset="0" stop-color="#94d04e"/>
    <stop offset="1" stop-color="#9ed45e"/>
  </linearGradient>
  <path d="m47 24c0 22.703-.297 23-23 23-22.703 0-23-.297-23-23 0-22.703.297-23 23-23 22.703 0 23 .297 23 23z" fill="url(#a)"/>
  <g transform="translate(.000429)">
    <path d="m18.46 14l-6.544 11 6.544 10.996h13.08l6.54-10.996-6.54-11" fill-opacity=".098"/>
    <path d="m30.25 34.5h-12.5l-6.25-10.5 6.25-10.5h12.5l6.246 10.5m-6.246 10.5" fill="#a3cd95"/>
    <path d="m17.527 13.05l-4.914 8.336c1.469.852 3.359 1.648 5.414 1.648 1.379 0 2.965-1.277 4.418-2.988-.867-1.566-1.43-3.242-1.43-4.977 0-.738.129-1.398.313-2.023h-3.797m5.848.004c-.246.559-.371 1.23-.371 2.023 0 1.043.352 2.133.871 3.234.023-.043.066-.055.09-.094.957-1.629 1.566-3.441 1.836-5.16h-2.426m4.543-.004c-.316 2.102-1.094 4.254-2.207 6.148-.207.355-.523.566-.75.906.566.859 1.176 1.73 1.902 2.551.227-.145.375-.352.621-.496 2.379-1.352 4.113-3.352 5.195-5.352l-2.207-3.762h-2.551m5.938 5.719c-1.258 1.953-3.051 3.801-5.383 5.133-.094.066-.156.129-.246.191.879.891 1.586 1.535 2.426 2.305.609-.563 1.262-1.02 1.805-1.648 1.164-1.355 2.102-2.699 2.738-3.699l-1.34-2.273m-10.203 2.887c-1.633 1.863-3.461 3.359-5.633 3.359-2.746 0-4.855-.887-6.438-1.867l-.527.871 3.422 5.754c.203-.047.367-.078.594-.125 2.215-.461 4.805-.73 7.309-.715.512-1.773 1.445-3.543 2.922-5.04-.617-.703-1.105-1.477-1.645-2.238m12.656 1.273c-.586.875-1.359 1.938-2.363 3.113-.539.625-1.25 1.121-1.867 1.711.488.449 1.203 1.145 1.586 1.523.031.031.059.063.094.094l3.168-5.352-.621-1.09m-9.641 2.398c-1.059 1.07-1.586 2.352-2.023 3.668.156.023.34-.023.496 0 1.176.195 2.43-.191 3.699-.992.113-.074.203-.207.313-.281-.867-.793-1.551-1.441-2.484-2.395m3.918 3.762c-.25.184-.426.457-.684.625-1.527.965-3.262 1.574-5.07 1.273-.234-.039-.535-.004-.777-.031-.035.219-.16.438-.188.652-.16 1.273-.145 2.418-.094 3.328h6.691l2.27-3.828c-.172-.125-.344-.246-.496-.402-.352-.355-1.148-1.164-1.645-1.621m-8.625 1.84c-2.164.027-4.43.238-6.438.652l1.988 3.359h4.266c-.063-.996-.078-2.211.09-3.578.02-.145.07-.297.094-.438m0 .004" fill="#535453"/>
    <path d="m17.46 13l-6.544 11 6.544 10.996h13.08l6.54-10.996-6.54-11m-11.911 1.989h10.742l5.367 9.02-5.367 9.02h-10.742l-5.371-9.02z" fill="#dedede"/>
  </g>
</svg>
