<svg xmlns="http://www.w3.org/2000/svg" viewBox="0 0 48 48">
 <defs>
  <linearGradient id="linearGradient3764" x1="1" x2="47" gradientUnits="userSpaceOnUse" gradientTransform="matrix(0,-1,1,0,-1.5e-6,47.999998)">
   <stop style="stop-color:#c33d43;stop-opacity:1"/>
   <stop offset="1" style="stop-color:#c84c53;stop-opacity:1"/>
  </linearGradient>
 </defs>
 <g>
  
  
  
 </g>
 <g>
  <path d="m 47,24 C 47,46.703 46.703,47 24,47 1.297,47 1,46.703 1,24 1,1.297 1.297,1 24,1 46.703,1 47,1.297 47,24 z" style="fill:url(#linearGradient3764);fill-opacity:1"/>
 </g>
 <g transform="translate(2.3710018e-4,0)">
  <g>
   <!-- color: #c84c53 -->
   <g>
    <path d="m 25.09 15 c -1.044 -0.042 -1.871 0.668 -2.498 1.599 -1.219 2.063 -1.648 3.867 -2.519 5.931 -0.561 -1.46 -0.998 -2.962 -1.515 -4.381 -0.316 -0.796 -0.537 -1.358 -0.927 -1.848 -1.28 -1.625 -3.776 -1.561 -5.073 0.062 -0.259 0.318 -0.464 0.77 -0.526 1.253 -0.062 0.483 -0.017 0.992 0.104 1.619 0.241 1.255 0.796 3.038 1.779 6.01 0.636 1.938 1.332 3.816 1.945 5.301 0.307 0.743 0.589 1.383 0.844 1.896 0.255 0.514 0.41 0.854 0.754 1.211 l 0.014 -0.014 c 0.613 0.644 1.294 1.101 2.055 1.273 0.764 0.173 1.579 0.004 2.235 -0.415 1.313 -0.839 2.158 -2.465 2.796 -4.727 0.258 -0.916 0.432 -1.155 0.651 -1.619 0.515 1.709 1.012 3.259 1.543 4.263 0.645 1.218 1.408 2.073 2.457 2.346 0.671 0.174 1.399 0.227 2.09 -0.042 0.691 -0.268 1.25 -0.806 1.737 -1.523 0.975 -1.433 1.831 -3.713 3.1 -7.509 1.215 -3.627 1.866 -5.812 1.875 -7.453 0.005 -0.821 -0.19 -1.584 -0.692 -2.138 -0.502 -0.554 -1.18 -0.799 -1.875 -0.941 l -0.007 0 c -1.087 -0.212 -2.295 0.264 -3 1.26 -1.279 2.249 -1.572 4.087 -2.291 6.304 -0.871 -1.982 -1.422 -4.197 -2.595 -5.982 -0.643 -0.962 -1.413 -1.695 -2.457 -1.737" mix-blend-mode="normal" isolation="auto" white-space="normal" solid-color="#000000" solid-opacity="1" style="visibility:visible;shape-rendering:auto;color-interpolation-filters:linearRGB;fill:#000;opacity:1;image-rendering:auto;fill-opacity:0.098;stroke:none;display:inline;color:#000;fill-rule:nonzero;color-rendering:auto;color-interpolation:sRGB"/>
    <path d="m 24.09 14 c -1.044 -0.042 -1.871 0.668 -2.498 1.599 -1.219 2.063 -1.648 3.867 -2.519 5.931 -0.561 -1.46 -0.998 -2.962 -1.515 -4.381 -0.316 -0.796 -0.537 -1.358 -0.927 -1.848 -1.28 -1.625 -3.776 -1.561 -5.073 0.062 -0.259 0.318 -0.464 0.77 -0.526 1.253 -0.062 0.483 -0.017 0.992 0.104 1.619 0.241 1.255 0.796 3.038 1.779 6.01 0.636 1.938 1.332 3.816 1.945 5.301 0.416 1.122 1.01 2.241 1.598 3.107 l 0.004 -0.014 c 0.523 0.698 1.304 1.101 2.065 1.273 0.764 0.173 1.579 0.004 2.235 -0.415 1.313 -0.839 2.158 -2.465 2.796 -4.727 0.258 -0.916 0.432 -1.155 0.651 -1.619 0.515 1.709 1.012 3.259 1.543 4.263 0.645 1.218 1.408 2.073 2.457 2.346 0.671 0.174 1.399 0.227 2.09 -0.042 0.691 -0.268 1.25 -0.806 1.737 -1.523 0.975 -1.433 1.831 -3.713 3.1 -7.509 1.215 -3.627 1.866 -5.812 1.875 -7.453 0.005 -0.821 -0.19 -1.584 -0.692 -2.138 -0.502 -0.554 -1.18 -0.799 -1.875 -0.941 l -0.007 0 c -1.087 -0.212 -2.295 0.264 -3 1.26 -1.279 2.249 -1.572 4.087 -2.291 6.304 -0.871 -1.982 -1.422 -4.197 -2.595 -5.982 -0.643 -0.962 -1.413 -1.695 -2.457 -1.737 z" mix-blend-mode="normal" isolation="auto" white-space="normal" solid-color="#000000" solid-opacity="1" style="visibility:visible;shape-rendering:auto;color-interpolation-filters:linearRGB;fill:#f9f9f9;opacity:1;image-rendering:auto;fill-opacity:1;stroke:none;display:inline;color:#000;fill-rule:nonzero;color-rendering:auto;color-interpolation:sRGB"/>
    <path d="m 17.18 31.961 c -0.559 -0.59 -2.051 -4.203 -3.316 -8.03 -1.961 -5.922 -2.188 -7.121 -1.527 -7.926 0.965 -1.203 2.594 -1.242 3.52 -0.086 0.387 0.48 1.137 2.383 1.668 4.227 0.535 1.84 1.219 3.359 1.531 3.367 0.313 0.004 1.113 -1.676 1.781 -3.738 2.086 -6.453 4.297 -6.367 6.582 0.273 0.758 2.195 1.566 3.992 1.805 3.992 0.234 0 0.883 -1.742 1.441 -3.879 1.074 -4.094 1.961 -5.344 3.578 -5.02 2.375 0.48 2.363 2.027 -0.055 9.242 -2.535 7.555 -3.516 9 -5.738 8.422 -1.309 -0.34 -2.352 -2.32 -3.605 -6.82 -0.449 -1.629 -1.367 -0.598 -2.25 2.531 -1.207 4.289 -3.316 5.637 -5.402 3.445 m -0.012 0" style="fill:#f90;fill-opacity:1;stroke:none;fill-rule:nonzero"/>
   </g>
  </g>
 </g>
 <g>
  
 </g>
</svg>
