<svg xmlns="http://www.w3.org/2000/svg" viewBox="0 0 48 48">
 <defs>
  <linearGradient id="linearGradient3865" x1="1" x2="47" gradientUnits="userSpaceOnUse">
   <stop style="stop-color:#ff8a00;stop-opacity:1"/>
   <stop offset="1" style="stop-color:#ff9415;stop-opacity:1"/>
  </linearGradient>
 </defs>
 <g>
  
  
  
 </g>
 <g transform="matrix(0,-1,1,0,0,48)" style="fill:url(#linearGradient3865);fill-opacity:1">
  <path d="M 24,1 C 46.703,1 47,1.297 47,24 47,46.703 46.703,47 24,47 1.297,47 1,46.703 1,24 1,1.297 1.297,1 24,1 z"/>
 </g>
 <g>
  
 </g>
 <path d="m 16 37 22 -11 c 1 -0.497 1 -1.431 0 -2 l -22 -11 c -0.324 -0.135 -1 0.409 -1 1 l 0 6 c 0 0.659 0.734 0.874 1 1 l 8 4 -8 4 c -0.313 0.218 -1 0.469 -1 1 l 0 6 c 0 0.589 0.59 1.161 1 1 z" style="fill:#000;opacity:0.1;fill-opacity:1;stroke:none"/>
 <path d="m 15 36 22 -11 c 1 -0.497 1 -1.431 0 -2 l -22 -11 c -0.324 -0.135 -1 0.409 -1 1 l 0 6 c 0 0.659 0.734 0.874 1 1 l 8 4 -8 4 c -0.313 0.218 -1 0.469 -1 1 l 0 6 c 0 0.589 0.59 1.161 1 1 z" style="fill:#f9f9f9;fill-opacity:1;stroke:none"/>
</svg>
