<svg viewBox="0 0 48 48" xmlns="http://www.w3.org/2000/svg" xmlns:xlink="http://www.w3.org/1999/xlink">
  <linearGradient id="a" gradientTransform="matrix(0 -1 1 0 -.0000015 47.999998)" gradientUnits="userSpaceOnUse" x1="1" x2="47">
    <stop offset="0" stop-color="#31ace5"/>
    <stop offset="1" stop-color="#43b4e7"/>
  </linearGradient>
  <path d="m47 24c0 22.703-.297 23-23 23-22.703 0-23-.297-23-23 0-22.703.297-23 23-23 22.703 0 23 .297 23 23z" fill="url(#a)"/>
  <path d="m32.3 14.895v3.086c-.703-1.059-1.566-1.98-2.594-2.746-2.133-1.582-4.672-2.289-7.156-2.168-.355.02-.688.066-1.039.113-2.809.398-5.496 1.871-7.324 4.285-3.656 4.824-2.625 11.742 2.25 15.363 4.875 3.621 11.855 2.602 15.508-2.227.23-.316.355-.707.352-1.098.008-.094.008-.191 0-.285v-1.543h-1.672c-.055-.004-.117-.004-.172 0-.582-.004-1.156.281-1.5.746-2.461 3.246-7.04 3.859-10.32 1.426-3.281-2.434-3.902-6.977-1.445-10.223 2.461-3.246 7.05-3.859 10.324-1.426.793.586 1.418 1.34 1.902 2.168h-2.656c-.965 0-1.844.871-1.844 1.828-.016.133-.016.266 0 .398v1.43h11.07v-9.137c.008-.113.008-.23 0-.352v-1.477h-1.5c-1.492-.066-2.074.938-2.199 1.836m.016 0" opacity=".1" transform="translate(1 1)"/>
  <path d="m32.3 14.895v3.086c-.703-1.059-1.566-1.98-2.594-2.746-2.133-1.582-4.672-2.289-7.156-2.168-.355.02-.688.066-1.039.113-2.809.398-5.496 1.871-7.324 4.285-3.656 4.824-2.625 11.742 2.25 15.363 4.875 3.621 11.855 2.602 15.508-2.227.23-.316.355-.707.352-1.098.008-.094.008-.191 0-.285v-1.543h-1.672c-.055-.004-.117-.004-.172 0-.582-.004-1.156.281-1.5.746-2.461 3.246-7.04 3.859-10.32 1.426-3.281-2.434-3.902-6.977-1.445-10.223 2.461-3.246 7.05-3.859 10.324-1.426.793.586 1.418 1.34 1.902 2.168h-2.656c-.965 0-1.844.871-1.844 1.828-.016.133-.016.266 0 .398v1.43h11.07v-9.137c.008-.113.008-.23 0-.352v-1.477h-1.5c-1.492-.066-2.074.938-2.199 1.836m.016 0" fill="#288b2c"/>
</svg>
