<svg xmlns="http://www.w3.org/2000/svg" viewBox="0 0 48 48">
 <defs>
  <linearGradient id="linearGradient3764" y1="47" x2="0" y2="1" gradientUnits="userSpaceOnUse">
   <stop style="stop-color:#efefef;stop-opacity:1"/>
   <stop offset="1" style="stop-color:#f9f9f9;stop-opacity:1"/>
  </linearGradient>
 </defs>
 <g>
  
  
  
 </g>
 <g>
  <path d="m 47,24 C 47,46.703 46.703,47 24,47 1.297,47 1,46.703 1,24 1,1.297 1.297,1 24,1 46.703,1 47,1.297 47,24 z" style="fill:url(#linearGradient3764);fill-opacity:1"/>
 </g>
 <g>
  <g>
   <g transform="translate(1,1)">
    <g style="opacity:0.1">
     <!-- color: #f9f9f9 -->
     <g>
      <path d="m 12 13 l 6 0 l 0 6 l -6 0 m 0 -6" style="fill:#000;fill-opacity:1;stroke:none;fill-rule:nonzero"/>
      <path d="m 21 13 l 6 0 l 0 6 l -6 0 m 0 -6" style="fill:#000;fill-opacity:1;stroke:none;fill-rule:nonzero"/>
      <path d="m 30 13 l 6 0 l 0 6 l -6 0 m 0 -6" style="fill:#000;fill-opacity:1;stroke:none;fill-rule:nonzero"/>
      <path d="m 12 21 l 6 0 l 0 6 l -6 0 m 0 -6" style="fill:#000;fill-opacity:1;stroke:none;fill-rule:nonzero"/>
      <path d="m 21 21 l 6 0 l 0 6 l -6 0 m 0 -6" style="fill:#000;fill-opacity:1;stroke:none;fill-rule:nonzero"/>
      <path d="m 30 21 l 6 0 l 0 6 l -6 0 m 0 -6" style="fill:#000;fill-opacity:1;stroke:none;fill-rule:nonzero"/>
      <path d="m 12 29 l 6 0 l 0 6 l -6 0 m 0 -6" style="fill:#000;fill-opacity:1;stroke:none;fill-rule:nonzero"/>
      <path d="m 21 29 l 6 0 l 0 6 l -6 0 m 0 -6" style="fill:#000;fill-opacity:1;stroke:none;fill-rule:nonzero"/>
      <path d="m 30 29 l 6 0 l 0 6 l -6 0 m 0 -6" style="fill:#000;fill-opacity:1;stroke:none;fill-rule:nonzero"/>
     </g>
    </g>
   </g>
  </g>
 </g>
 <g>
  <g>
   <!-- color: #f9f9f9 -->
   <g>
    <path d="m 12 13 l 6 0 l 0 6 l -6 0 m 0 -6" style="fill:#85a1d4;fill-opacity:1;stroke:none;fill-rule:nonzero"/>
    <path d="m 21 13 l 6 0 l 0 6 l -6 0 m 0 -6" style="fill:#85a1d4;fill-opacity:1;stroke:none;fill-rule:nonzero"/>
    <path d="m 30 13 l 6 0 l 0 6 l -6 0 m 0 -6" style="fill:#85a1d4;fill-opacity:1;stroke:none;fill-rule:nonzero"/>
    <path d="m 12 21 l 6 0 l 0 6 l -6 0 m 0 -6" style="fill:#85a1d4;fill-opacity:1;stroke:none;fill-rule:nonzero"/>
    <path d="m 21 21 l 6 0 l 0 6 l -6 0 m 0 -6" style="fill:#85a1d4;fill-opacity:1;stroke:none;fill-rule:nonzero"/>
    <path d="m 30 21 l 6 0 l 0 6 l -6 0 m 0 -6" style="fill:#85a1d4;fill-opacity:1;stroke:none;fill-rule:nonzero"/>
    <path d="m 12 29 l 6 0 l 0 6 l -6 0 m 0 -6" style="fill:#85a1d4;fill-opacity:1;stroke:none;fill-rule:nonzero"/>
    <path d="m 21 29 l 6 0 l 0 6 l -6 0 m 0 -6" style="fill:#85a1d4;fill-opacity:1;stroke:none;fill-rule:nonzero"/>
    <path d="m 30 29 l 6 0 l 0 6 l -6 0 m 0 -6" style="fill:#85a1d4;fill-opacity:1;stroke:none;fill-rule:nonzero"/>
   </g>
  </g>
 </g>
 <g>
  
 </g>
</svg>
