<svg xmlns="http://www.w3.org/2000/svg" viewBox="0 0 48 48">
 <defs>
  <linearGradient id="linearGradient3807" x1="1" x2="47" gradientUnits="userSpaceOnUse">
   <stop style="stop-color:#205081;stop-opacity:1"/>
   <stop offset="1" style="stop-color:#245990;stop-opacity:1"/>
  </linearGradient>
 </defs>
 <g>
  
  
  
 </g>
 <g transform="matrix(0,-1,1,0,0,48)" style="fill:url(#linearGradient3807);fill-opacity:1">
  <path d="M 24,1 C 46.703,1 47,1.297 47,24 47,46.703 46.703,47 24,47 1.297,47 1,46.703 1,24 1,1.297 1.297,1 24,1 z"/>
 </g>
 <g>
  
 </g>
 <path d="m 25 12 c -6.627 0 -12 1.343 -12 3 0 0.104 0.022 0.212 0.063 0.313 l 2.594 14.219 c 2.362 1.528 5.681 2.469 9.375 2.469 c 3.67 0 6.954 -0.958 9.313 -2.469 l 2.594 -14.219 c 0.041 -0.101 0.063 -0.209 0.063 -0.313 0 -1.657 -5.373 -3 -12 -3 z m 0 2 c 4.418 0 8 0.672 8 1.5 0 0.828 -3.582 1.5 -8 1.5 -4.418 0 -8 -0.672 -8 -1.5 0 -0.828 3.582 -1.5 8 -1.5 z m 0 7 c 2.209 0 4 1.791 4 4 0 2.209 -1.791 4 -4 4 -2.209 0 -4 -1.791 -4 -4 0 -2.209 1.791 -4 4 -4 z m 0 2 c -1.105 0 -2 0.895 -2 2 0 1.105 0.895 2 2 2 1.105 0 2 -0.895 2 -2 0 -1.105 -0.895 -2 -2 -2 z m -8.938 8.75 0.938 5.25 c 2 2 4 3 8 3 4 0 6 -1 8 -3 l 0.938 -5.188 c -2.324 1.359 -5.45 2.188 -8.906 2.188 -3.493 0 -6.637 -0.865 -8.969 -2.25 z" style="fill:#000;opacity:0.1;fill-opacity:1;stroke:none;fill-rule:nonzero"/>
 <path d="m 24 11 c -6.627 0 -12 1.343 -12 3 c 0 0.104 0.022 0.212 0.063 0.313 l 2.594 14.219 c 2.362 1.528 5.681 2.469 9.375 2.469 c 3.67 0 6.954 -0.958 9.313 -2.469 l 2.594 -14.219 c 0.041 -0.101 0.063 -0.209 0.063 -0.313 c 0 -1.657 -5.373 -3 -12 -3 z m 0 2 c 4.418 0 8 0.672 8 1.5 c 0 0.828 -3.582 1.5 -8 1.5 c -4.418 0 -8 -0.672 -8 -1.5 c 0 -0.828 3.582 -1.5 8 -1.5 z m 0 7 c 2.209 0 4 1.791 4 4 c 0 2.209 -1.791 4 -4 4 c -2.209 0 -4 -1.791 -4 -4 c 0 -2.209 1.791 -4 4 -4 z m 0 2 c -1.105 0 -2 0.895 -2 2 c 0 1.105 0.895 2 2 2 c 1.105 0 2 -0.895 2 -2 c 0 -1.105 -0.895 -2 -2 -2 z m -8.938 8.75 l 0.938 5.25 c 2 2 4 3 8 3 c 4 0 6 -1 8 -3 l 0.938 -5.188 c -2.324 1.359 -5.45 2.188 -8.906 2.188 c -3.493 0 -6.637 -0.865 -8.969 -2.25 z" style="fill:#eff3f6;opacity:1;fill-opacity:1;stroke:none;fill-rule:nonzero"/>
</svg>
