<svg viewBox="0 0 48 48" xmlns="http://www.w3.org/2000/svg" xmlns:xlink="http://www.w3.org/1999/xlink">
  <linearGradient id="a" gradientTransform="matrix(0 -1 1 0 -.0000015 47.999998)" gradientUnits="userSpaceOnUse" x1="1" x2="47">
    <stop offset="0" stop-color="#e4e4e4"/>
    <stop offset="1" stop-color="#eee"/>
  </linearGradient>
  <path d="m47 24c0 22.703-.297 23-23 23-22.703 0-23-.297-23-23 0-22.703.297-23 23-23 22.703 0 23 .297 23 23z" fill="url(#a)"/>
  <path d="m13.563 15c-.855 0-1.563.801-1.563 1.781v14.438c0 .984.707 1.785 1.563 1.785h14.375c.023 0 .043 0 .066 0h1l9-9-9-9h-1c-.023 0-.043 0-.066 0h-14.375m13.625 5.992c.535-.016 1.512.332 1.719.813.207.48.051.555-.344.906-1.773 1.176-5.656 5.598-5.656 5.598-.883.84-1.281.957-2.156.121l-3.25-3.156c-.602-.438-.688-1.418-.156-1.938.531-.52 1.543-.457 2 .125l2.313 2.25 4.625-4.344c.242-.234.566-.367.906-.379m0 .004" opacity=".1" transform="translate(1 1)"/>
  <path d="m13.563 15c-.855 0-1.563.801-1.563 1.781v14.438c0 .984.707 1.785 1.563 1.785h14.375c.023 0 .043 0 .066 0h1l9-9-9-9h-1c-.023 0-.043 0-.066 0h-14.375m13.625 5.992c.535-.016 1.512.332 1.719.813.207.48.051.555-.344.906-1.773 1.176-5.656 5.598-5.656 5.598-.883.84-1.281.957-2.156.121l-3.25-3.156c-.602-.438-.688-1.418-.156-1.938.531-.52 1.543-.457 2 .125l2.313 2.25 4.625-4.344c.242-.234.566-.367.906-.379m0 .004" fill="#09c"/>
</svg>
