<svg xmlns="http://www.w3.org/2000/svg" viewBox="0 0 48 48">
 <defs>
  <linearGradient id="linearGradient3764" x1="1" x2="47" gradientUnits="userSpaceOnUse" gradientTransform="matrix(0,-1,1,0,-1.5e-6,47.999998)">
   <stop style="stop-color:#0d96dd;stop-opacity:1"/>
   <stop offset="1" style="stop-color:#0fa3ef;stop-opacity:1"/>
  </linearGradient>
 </defs>
 <g>
  
  
  
 </g>
 <g style="fill-rule:nonzero">
  <path d="m 47,24 C 47,46.703 46.703,47 24,47 1.297,47 1,46.703 1,24 1,1.297 1.297,1 24,1 46.703,1 47,1.297 47,24 z" style="fill:url(#linearGradient3764);fill-opacity:1"/>
  <path d="m 11.946 18.801 c 3.664 1.823 7.368 3.605 10.753 5.707 l -5.264 6.02 -3.517 -0.598 -0.939 0.939 c 1.431 0.583 2.858 1.246 4.084 2.034 0.788 1.226 1.452 2.653 2.034 4.084 l 0.939 -0.939 -0.598 -3.517 6.02 -5.264 c 2.101 3.385 3.884 7.09 5.707 10.753 l 1 -1 -2.422 -14.05 4.589 -4.713 c 0.863 -0.886 2.051 -3.337 1.382 -4.01 -0.669 -0.669 -3.12 0.519 -4.01 1.382 l -4.713 4.589 -14.05 -2.422 -1 1 z" style="fill:#000;opacity:0.1;fill-opacity:1;stroke:none"/>
  <path d="m 10.946 17.801 c 3.664 1.823 7.368 3.605 10.753 5.707 l -5.264 6.02 -3.517 -0.598 -0.939 0.939 c 1.431 0.583 2.858 1.246 4.084 2.034 0.788 1.226 1.452 2.653 2.034 4.084 l 0.939 -0.939 -0.598 -3.517 6.02 -5.264 c 2.101 3.385 3.884 7.09 5.707 10.753 l 1 -1 -2.422 -14.05 4.589 -4.713 c 0.863 -0.886 2.051 -3.337 1.382 -4.01 -0.669 -0.669 -3.12 0.519 -4.01 1.382 l -4.713 4.589 -14.05 -2.422 -1 1 z" style="fill:#efefef;fill-opacity:1;stroke:none"/>
 </g>
 <g>
  
 </g>
</svg>
