<svg viewBox="0 0 48 48" xmlns="http://www.w3.org/2000/svg" xmlns:xlink="http://www.w3.org/1999/xlink">
  <linearGradient id="a" gradientTransform="matrix(0 -1 1 0 -.0000015 47.999998)" gradientUnits="userSpaceOnUse" x1="1" x2="47">
    <stop offset="0" stop-color="#4e83be"/>
    <stop offset="1" stop-color="#5c8dc3"/>
  </linearGradient>
  <path d="m47 24c0 22.703-.297 23-23 23-22.703 0-23-.297-23-23 0-22.703.297-23 23-23 22.703 0 23 .297 23 23z" fill="url(#a)"/>
  <path d="m29.406 12c-2.031.781-4.426 1.438-6.594 1.617.371.586.699.785 1.32 1.078-3.07 4.656-7.461 6.113-12.13 8.902 3.145 4.574 7.988 8.441 11.859 12.402 4.16-2.996 9.203-8.152 12.133-12.402-2.672-1.598-5.73-3.691-8.699-4.586.363-.625.734-1.234 1.055-1.887.801.34 1.574.738 2.375 1.078-.148-1.867-.371-4.59-1.32-6.203m-7.648 7.281c-.758 3.766-.602 6.988-.527 10.785-2.484-1.18-5.543-4.188-7.121-6.469 2.211-1.617 5.03-3.543 7.648-4.316m5.01.27c1.012.305 1.813.684 2.375 1.617-1.07.012-2.105.184-3.168.27.195-.691.445-1.258.793-1.887m3.164 1.887c1.449.438 2.969 1.254 3.957 2.43-2.676 2.727-6.06 6.73-9.496 8.359.02-2.473 2.285-9.371 5.539-7.281m-4.484-2.969c.48 0 .402.004.793.27-.352.477-.594.723-1.055 1.082.086-.449.176-.898.262-1.348m0-.004" opacity=".1" transform="translate(1 1)"/>
  <path d="m29.406 12c-2.031.781-4.426 1.438-6.594 1.617.371.586.699.785 1.32 1.078-3.07 4.656-7.461 6.113-12.13 8.902 3.145 4.574 7.988 8.441 11.859 12.402 4.16-2.996 9.203-8.152 12.133-12.402-2.672-1.598-5.73-3.691-8.699-4.586.363-.625.734-1.234 1.055-1.887.801.34 1.574.738 2.375 1.078-.148-1.867-.371-4.59-1.32-6.203m-7.648 7.281c-.758 3.766-.602 6.988-.527 10.785-2.484-1.18-5.543-4.188-7.121-6.469 2.211-1.617 5.03-3.543 7.648-4.316m5.01.27c1.012.305 1.813.684 2.375 1.617-1.07.012-2.105.184-3.168.27.195-.691.445-1.258.793-1.887m3.164 1.887c1.449.438 2.969 1.254 3.957 2.43-2.676 2.727-6.06 6.73-9.496 8.359.02-2.473 2.285-9.371 5.539-7.281m-4.484-2.969c.48 0 .402.004.793.27-.352.477-.594.723-1.055 1.082.086-.449.176-.898.262-1.348m0-.004" fill="#f9f9f9"/>
</svg>
