<svg viewBox="0 0 48 48" xmlns="http://www.w3.org/2000/svg">
  <path d="m24 .99804688c-11.048671 0-16.7818986.07860172-19.765625 2.76757812l10.845703 18.884766.033203-.007813c.656407-4.323481 4.379566-7.642578 8.886719-7.642578 3.132577 0 5.886297 1.601513 7.498047 4.027344l15.478515-.027344c-.174953-17.7020362-2.096444-18.00195312-22.976562-18.00195312z" fill="#688ab0"/>
  <path d="m6.7929688 2.2734375c-5.6740029 2.0701196-5.7929688 7.4976244-5.7929688 21.7246095 0 21.120428.2813231 22.845913 18.595703 22.984375l7.65625-14.574219-.019531-.015625c-1.00425.386969-2.091798.607422-3.232422.607422-4.969 0-9-4.03-9-9 0-.370316.028779-.733181.072266-1.091797l-.001954-.001953c.001472-.011534.006174-.018025.007813-.029297.12651-1.013171.42088-1.971784.855469-2.851562z" fill="#6598c7"/>
  <path d="m46.943359 16.521484l-17.294921.47461c2.719257 7.466053 4.010786 6.883491-2.753907 15.519531l-8.308593 14.453125c1.661442.01949 3.422803.0293 5.414062.0293 11.3515 0 17.101547-.0742 20.013672-2.986328.181664-.181665.353424-.373703.513672-.578125v-.002c.160186-.204438.311052-.419904.451172-.648438v-.002c.140072-.228571.271226-.468648.392578-.722656v-.002c.121316-.254068.233951-.521886.33789-.802735v-.002c.416307-1.125482.69934-2.470735.890625-4.080078v-.002c.191228-1.609711.291274-3.484088.34375-5.664063v-.002c.052463-2.180311.056641-4.667705.056641-7.50558 0-2.82602-.0048-5.30225-.05664-7.476563z" fill="#95b9dd"/>
  <path d="m33 24c0 4.973-4.03 9-9 9-4.969 0-9-4.03-9-9 0-4.969 4.03-9 9-9 4.973 0 9 4.03 9 9m0 0" fill="#f9f9f9"/>
  <path d="m32 25c0 3.867-3.133 7-7 7-3.867 0-7-3.133-7-7 0-3.867 3.133-7 7-7 3.867 0 7 3.133 7 7m0 0" fill-opacity=".098"/>
  <path d="m24 15c-4.97 0-9 4.03-9 9 0 2.701 1.196 5.118 3.08 6.768-.082-.098-.163-.199-.24-.301-.703-.934-1.234-2.02-1.531-3.125-.612-2.722.002-5.192 1.25-7.346.738-1.102 1.738-2.043 2.969-2.75 2.186-1.182 4.604-1.494 6.844-.906 1.113.301 2.162.797 3.096 1.5.105.101.224.185.336.278-1.65-1.906-4.082-3.117-6.803-3.117z" fill-opacity=".098"/>
  <path d="m31 23.998c0 3.867-3.133 7-7 7-3.867 0-7-3.133-7-7 0-3.867 3.133-7 7-7 3.867 0 7 3.133 7 7m0 0" fill="#4e92de"/>
  <path d="m24 .99804688c-11.048671 0-16.7818986.07860172-19.765625 2.76757812l10.845703 18.884766.033203-.007813c.656407-4.323481 4.379566-7.642578 8.886719-7.642578 3.132577 0 5.886297 1.601513 7.498047 4.027344l15.478515-.027344c-.174953-17.7020362-2.096444-18.00195312-22.976562-18.00195312z" fill="#688ab0"/>
  <path d="m6.7929688 2.2734375c-5.6740029 2.0701196-5.7929688 7.4976244-5.7929688 21.7246095 0 21.120428.2813231 22.845913 18.595703 22.984375l7.65625-14.574219-.019531-.015625c-1.00425.386969-2.091798.607422-3.232422.607422-4.969 0-9-4.03-9-9 0-.370316.028779-.733181.072266-1.091797l-.001954-.001953c.001472-.011534.006174-.018025.007813-.029297.12651-1.013171.42088-1.971784.855469-2.851562z" fill="#6598c7"/>
  <path d="m24 .99804688c-11.048671 0-16.7818986.07860172-19.765625 2.76757812l10.845703 18.884766.033203-.007813c.656407-4.323481 4.379566-7.642578 8.886719-7.642578 3.132577 0 5.886297 1.601513 7.498047 4.027344l15.478515-.027344c-.174953-17.7020362-2.096444-18.00195312-22.976562-18.00195312z" fill="#688ab0"/>
</svg>
