<svg viewBox="0 0 48 48" xmlns="http://www.w3.org/2000/svg" xmlns:xlink="http://www.w3.org/1999/xlink">
  <linearGradient id="a" gradientTransform="matrix(0 -1 1 0 -.0000015 47.999998)" gradientUnits="userSpaceOnUse" x1="1" x2="47">
    <stop offset="0" stop-color="#007fba"/>
    <stop offset="1" stop-color="#008cce"/>
  </linearGradient>
  <path d="m24 1c22.703 0 23 .297 23 23 0 22.703-.297 23-23 23-22.703 0-23-.297-23-23 0-22.703.297-23 23-23z" fill="url(#a)"/>
  <path d="m25 10c-.338 0-.668.009-1 .031v2c .327-.025.666-.031 1-.031.334 0 .673.007 1 .031v-2c-.332-.022-.662-.031-1-.031zm-1.938.125c-.365.047-.737.115-1.094.188-.296.061-.585.141-.875.219l.406 1.969c.641-.179 1.292-.327 1.969-.406l-.406-1.969zm3.875 0l-.406 1.969c.677.079 1.328.228 1.969.406l.406-1.969c-.29-.078-.579-.158-.875-.219-.356-.073-.729-.14-1.094-.188zm-6.719.688c-.358.12-.717.229-1.063.375-.276.117-.545.242-.813.375l.781 1.844c.594-.302 1.202-.541 1.844-.75l-.75-1.844zm9.563 0l-.75 1.844c.642.209 1.25.448 1.844.75l.781-1.844c-.267-.133-.536-.258-.813-.375-.345-.146-.704-.255-1.063-.375zm-12.25 1.188c-.312.18-.609.362-.906.563-.258.174-.504.373-.75.563l1.094 1.656c.519-.408 1.078-.799 1.656-1.125l-1.094-1.656zm14.938 0l-1.094 1.656c.579.326 1.137.717 1.656 1.125l1.094-1.656c-.246-.19-.492-.388-.75-.563-.297-.201-.594-.383-.906-.563zm-7.469 1c-6.627 0-12 5.373-12 12 0 6.627 5.373 12 12 12 6.627 0 12-5.373 12-12 0-6.627-5.373-12-12-12zm-9.844.75c-.25.219-.515.421-.75.656-.235.235-.437.5-.656.75l1.375 1.375c.435-.507.899-.971 1.406-1.406zm19.688 0l-1.375 1.375c.507.435.971.899 1.406 1.406l1.375-1.375c-.219-.25-.421-.515-.656-.75-.235-.235-.5-.437-.75-.656zm-9.844.25c6.075 0 11 4.925 11 11 0 6.075-4.925 11-11 11-6.075 0-11-4.925-11-11 0-6.075 4.925-11 11-11zm0 1c-5.523 0-10 4.477-10 10 0 5.523 4.477 10 10 10 5.523 0 10-4.477 10-10 0-5.523-4.477-10-10-10zm-11.875.875c-.19.246-.388.492-.563.75-.201.297-.383.594-.563.906l1.656 1.094c.326-.579.717-1.137 1.125-1.656l-1.656-1.094zm23.75 0l-1.656 1.094c.408.519.799 1.078 1.125 1.656l1.656-1.094c-.18-.312-.362-.609-.563-.906-.174-.258-.373-.504-.563-.75zm-11.875.125c4.971 0 9 4.03 9 9 0 4.971-4.03 9-9 9-4.971 0-9-4.03-9-9 0-4.971 4.03-9 9-9zm0 1c-4.418 0-8 3.582-8 8 0 4.418 3.582 8 8 8 4.418 0 8-3.582 8-8 0-4.418-3.582-8-8-8zm0 1c3.866 0 7 3.134 7 7 0 3.866-3.134 7-7 7-3.866 0-7-3.134-7-7 0-3.866 3.134-7 7-7zm-13.438.344c-.133.267-.258.536-.375.813-.146.345-.255.704-.375 1.063l1.844.75c.209-.642.448-1.25.75-1.844l-1.844-.781zm26.875 0l-1.844.781c.302.594.541 1.202.75 1.844l1.844-.75c-.12-.358-.229-.717-.375-1.063-.117-.276-.242-.545-.375-.813zm-13.438.656c-.339 0-.677.039-1 .094v11.813c.323.055.661.094 1 .094.34 0 .676-.039 1-.094v-11.813c-.324-.055-.66-.094-1-.094zm-2 .375c-.348.125-.685.255-1 .438v10.375c.315.183.652.313 1 .438v-11.25zm4 0v11.25c.353-.126.68-.286 1-.469v-10.313c-.32-.183-.647-.343-1-.469zm-6 1.156c-.383.342-.715.728-1 1.156v6.625c.285.428.617.814 1 1.156v-8.938zm8 .031v8.875c.375-.332.721-.705 1-1.125v-6.625c-.279-.42-.625-.793-1-1.125zm-18.469.531c-.078.29-.158.579-.219.875-.073.356-.14.729-.188 1.094l1.969.406c.079-.677.228-1.328.406-1.969l-1.969-.406zm28.938 0l-1.969.406c.179.641.327 1.292.406 1.969l1.969-.406c-.047-.365-.115-.737-.188-1.094-.061-.296-.141-.585-.219-.875zm-20.19 2.125c-.175.564-.281 1.16-.281 1.781 0 .621.106 1.218.281 1.781v-3.563zm11.438 0v3.563c.175-.564.281-1.16.281-1.781 0-.621-.106-1.218-.281-1.781zm-20.688.781c-.022.332-.031.662-.031 1 0 .338.009.668.031 1h2c-.025-.327-.031-.666-.031-1 0-.334.007-.673.031-1zm27.938 0c .025.327.031.666.031 1 0 .334-.007.673-.031 1h2c .022-.332.031-.662.031-1 0-.338-.009-.668-.031-1zm-25.875 2.531l-1.969.406c.047.365.115.737.188 1.094.061.296.141.585.219.875l1.969-.406c-.179-.641-.327-1.292-.406-1.969zm25.813 0c-.079.677-.228 1.328-.406 1.969l1.969.406c.078-.29.158-.579.219-.875.073-.356.14-.729.188-1.094l-1.969-.406zm-25.25 2.5l-1.844.75c.12.358.229.717.375 1.063.117.276.242.545.375.813l1.844-.781c-.302-.594-.541-1.202-.75-1.844zm24.688 0c-.209.642-.448 1.25-.75 1.844l1.844.781c.133-.267.258-.536.375-.813.146-.345.255-.704.375-1.063l-1.844-.75zm-23.688 2.344l-1.656 1.094c.18.312.362.609.563.906.174.258.373.504.563.75l1.656-1.094c-.408-.519-.799-1.078-1.125-1.656zm22.688 0c-.326.579-.717 1.137-1.125 1.656l1.656 1.094c.19-.246.388-.492.563-.75.201-.297.383-.594.563-.906l-1.656-1.094zm-21.22 2.094l-1.375 1.375c.219.25.421.515.656.75.235.235.5.437.75.656l1.375-1.375c-.507-.435-.971-.899-1.406-1.406zm19.75 0c-.435.507-.899.971-1.406 1.406l1.375 1.375c.25-.219.515-.421.75-.656.235-.235.437-.5.656-.75zm-17.906 1.75l-1.094 1.656c.246.19.492.388.75.563.297.201.594.383.906.563l1.094-1.656c-.579-.326-1.137-.717-1.656-1.125zm16.06 0c-.519.408-1.078.799-1.656 1.125l1.094 1.656c.312-.18.609-.362.906-.563.258-.174.504-.373.75-.563l-1.094-1.656zm-13.906 1.375l-.781 1.844c.267.133.536.258.813.375.345.146.704.255 1.063.375l.75-1.844c-.642-.209-1.25-.448-1.844-.75zm11.75 0c-.594.302-1.202.541-1.844.75l.75 1.844c.358-.12.717-.229 1.063-.375.276-.117.545-.242.813-.375l-.781-1.844zm-9.375.906l-.406 1.969c.29.078.579.158.875.219.356.073.729.14 1.094.188l.406-1.969c-.677-.079-1.328-.228-1.969-.406zm7 0c-.641.179-1.292.327-1.969.406l.406 1.969c.365-.047.737-.115 1.094-.188.296-.061.585-.141.875-.219l-.406-1.969zm-4.5.469v2c .332.022.662.031 1 .031.338 0 .668-.009 1-.031v-2c-.327.025-.666.031-1 .031-.334 0-.673-.007-1-.031z" opacity=".1"/>
  <path d="m24 12c-6.627 0-12 5.373-12 12 0 6.627 5.373 12 12 12 6.627 0 12-5.373 12-12 0-6.627-5.373-12-12-12zm0 1c6.075 0 11 4.925 11 11 0 6.075-4.925 11-11 11-6.075 0-11-4.925-11-11 0-6.075 4.925-11 11-11z" fill="#fff"/>
  <path d="m24 14c-5.523 0-10 4.477-10 10 0 5.523 4.477 10 10 10 5.523 0 10-4.477 10-10 0-5.523-4.477-10-10-10zm0 1c4.971 0 9 4.03 9 9 0 4.971-4.03 9-9 9-4.971 0-9-4.03-9-9 0-4.971 4.03-9 9-9z" fill="#fff"/>
  <path d="m24 16c-4.418 0-8 3.582-8 8 0 4.418 3.582 8 8 8 4.418 0 8-3.582 8-8 0-4.418-3.582-8-8-8zm0 1c3.866 0 7 3.134 7 7 0 3.866-3.134 7-7 7-3.866 0-7-3.134-7-7 0-3.866 3.134-7 7-7z" fill="#fff"/>
  <path d="m24 18c-.339 0-.677.039-1 .094v11.813c.323.055.661.094 1 .094.34 0 .676-.039 1-.094v-11.813c-.324-.055-.66-.094-1-.094zm-2 .375c-.348.125-.685.255-1 .438v10.375c.315.183.652.313 1 .438v-11.25zm4 0v11.25c.353-.126.68-.286 1-.469v-10.313c-.32-.183-.647-.343-1-.469zm-6 1.156c-.383.342-.715.728-1 1.156v6.625c.285.428.617.814 1 1.156v-8.938zm8 .031v8.875c.375-.332.721-.705 1-1.125v-6.625c-.279-.42-.625-.793-1-1.125zm-9.719 2.656c-.175.564-.281 1.16-.281 1.781 0 .621.106 1.218.281 1.781v-3.563zm11.438 0v3.563c.175-.564.281-1.16.281-1.781 0-.621-.106-1.218-.281-1.781z" fill="#fff"/>
  <path d="m16.531 11c-.312.18-.609.362-.906.563-.258.174-.504.373-.75.563l1.094 1.656c.519-.408 1.078-.799 1.656-1.125l-1.094-1.656zm15.5 23.22c-.519.408-1.078.799-1.656 1.125l1.094 1.656c.312-.18.609-.362.906-.563.258-.174.504-.373.75-.563l-1.094-1.656z" fill="#fff"/>
  <path d="m35.875 14.875l-1.656 1.094c.408.519.799 1.078 1.125 1.656l1.656-1.094c-.18-.312-.362-.609-.563-.906-.174-.258-.373-.504-.563-.75zm-23.22 15.5l-1.656 1.094c.18.312.362.609.563.906.174.258.373.504.563.75l1.656-1.094c-.408-.519-.799-1.078-1.125-1.656z" fill="#fff"/>
  <path d="m9.531 20.09c-.078.29-.158.579-.219.875-.073.356-.14.729-.188 1.094l1.969.406c.079-.677.228-1.328.406-1.969l-1.969-.406zm27.375 5.438c-.079.677-.228 1.328-.406 1.969l1.969.406c.078-.29.158-.579.219-.875.073-.356.14-.729.188-1.094l-1.969-.406z" fill="#fff"/>
  <path d="m25.938 9.125l-.406 1.969c.677.079 1.328.228 1.969.406l.406-1.969c-.29-.078-.579-.158-.875-.219-.356-.073-.729-.14-1.094-.188zm-5.438 27.375l-.406 1.969c.29.078.579.158.875.219.356.073.729.14 1.094.188l.406-1.969c-.677-.079-1.328-.228-1.969-.406z" fill="#fff"/>
  <path d="m12.13 14.875c-.19.246-.388.492-.563.75-.201.297-.383.594-.563.906l1.656 1.094c.326-.579.717-1.137 1.125-1.656l-1.656-1.094zm23.22 15.5c-.326.579-.717 1.137-1.125 1.656l1.656 1.094c.19-.246.388-.492.563-.75.201-.297.383-.594.563-.906l-1.656-1.094z" fill="#fff"/>
  <path d="m31.469 11l-1.094 1.656c.579.326 1.137.717 1.656 1.125l1.094-1.656c-.246-.19-.492-.388-.75-.563-.297-.201-.594-.383-.906-.563zm-15.5 23.22l-1.094 1.656c.246.19.492.388.75.563.297.201.594.383.906.563l1.094-1.656c-.579-.326-1.137-.717-1.656-1.125z" fill="#fff"/>
  <path d="m38.469 20.09l-1.969.406c.179.641.327 1.292.406 1.969l1.969-.406c-.047-.365-.115-.737-.188-1.094-.061-.296-.141-.585-.219-.875zm-27.375 5.438l-1.969.406c.047.365.115.737.188 1.094.061.296.141.585.219.875l1.969-.406c-.179-.641-.327-1.292-.406-1.969z" fill="#fff"/>
  <path d="m22.06 9.125c-.365.047-.737.115-1.094.188-.296.061-.585.141-.875.219l.406 1.969c.641-.179 1.292-.327 1.969-.406l-.406-1.969zm5.438 27.375c-.641.179-1.292.327-1.969.406l.406 1.969c.365-.047.737-.115 1.094-.188.296-.061.585-.141.875-.219l-.406-1.969z" fill="#fff"/>
  <path d="m14.156 12.75c-.25.219-.515.421-.75.656-.235.235-.437.5-.656.75l1.375 1.375c.435-.507.899-.971 1.406-1.406zm19.719 19.719c-.435.507-.899.971-1.406 1.406l1.375 1.375c.25-.219.515-.421.75-.656.235-.235.437-.5.656-.75z" fill="#fff"/>
  <path d="m33.844 12.75l-1.375 1.375c.507.435.971.899 1.406 1.406l1.375-1.375c-.219-.25-.421-.515-.656-.75-.235-.235-.5-.437-.75-.656zm-19.719 19.719l-1.375 1.375c.219.25.421.515.656.75.235.235.5.437.75.656l1.375-1.375c-.507-.435-.971-.899-1.406-1.406z" fill="#fff"/>
  <path d="m9.03 23c-.022.332-.031.662-.031 1 0 .338.009.668.031 1h2c-.025-.327-.031-.666-.031-1 0-.334.007-.673.031-1zm27.938 0c .025.327.031.666.031 1 0 .334-.007.673-.031 1h2c .022-.332.031-.662.031-1 0-.338-.009-.668-.031-1z" fill="#fff"/>
  <path d="m24 9c-.338 0-.668.009-1 .031v2c .327-.025.666-.031 1-.031.334 0 .673.007 1 .031v-2c-.332-.022-.662-.031-1-.031zm-1 27.969v2c .332.022.662.031 1 .031.338 0 .668-.009 1-.031v-2c-.327.025-.666.031-1 .031-.334 0-.673-.007-1-.031z" fill="#fff"/>
  <path d="m10.563 17.344c-.133.267-.258.536-.375.813-.146.345-.255.704-.375 1.063l1.844.75c.209-.642.448-1.25.75-1.844l-1.844-.781zm25.781 10.688c-.209.642-.448 1.25-.75 1.844l1.844.781c.133-.267.258-.536.375-.813.146-.345.255-.704.375-1.063l-1.844-.75z" fill="#fff"/>
  <path d="m28.781 9.813l-.75 1.844c.642.209 1.25.448 1.844.75l.781-1.844c-.267-.133-.536-.258-.813-.375-.345-.146-.704-.255-1.063-.375zm-10.656 25.781l-.781 1.844c.267.133.536.258.813.375.345.146.704.255 1.063.375l.75-1.844c-.642-.209-1.25-.448-1.844-.75z" fill="#fff"/>
  <path d="m37.438 17.344l-1.844.781c.302.594.541 1.202.75 1.844l1.844-.75c-.12-.358-.229-.717-.375-1.063-.117-.276-.242-.545-.375-.813zm-25.781 10.688l-1.844.75c.12.358.229.717.375 1.063.117.276.242.545.375.813l1.844-.781c-.302-.594-.541-1.202-.75-1.844z" fill="#fff"/>
  <path d="m19.219 9.813c-.358.12-.717.229-1.063.375-.276.117-.545.242-.813.375l.781 1.844c.594-.302 1.202-.541 1.844-.75l-.75-1.844zm10.656 25.781c-.594.302-1.202.541-1.844.75l.75 1.844c.358-.12.717-.229 1.063-.375.276-.117.545-.242.813-.375l-.781-1.844z" fill="#fff"/>
</svg>
