<svg xmlns="http://www.w3.org/2000/svg" viewBox="0 0 48 48">
 <defs>
  <linearGradient id="linearGradient3764" x1="1" x2="47" gradientUnits="userSpaceOnUse" gradientTransform="matrix(0,-1,1,0,-1.5e-6,47.999998)">
   <stop style="stop-color:#e4e4e4;stop-opacity:1"/>
   <stop offset="1" style="stop-color:#eee;stop-opacity:1"/>
  </linearGradient>
 </defs>
 <g>
  
  
  
 </g>
 <g>
  <path d="m 47,24 C 47,46.703 46.703,47 24,47 1.297,47 1,46.703 1,24 1,1.297 1.297,1 24,1 46.703,1 47,1.297 47,24 z" style="fill:url(#linearGradient3764);fill-opacity:1"/>
 </g>
 <g>
  <g>
   <g transform="translate(1,1)">
    <g style="opacity:0.1">
     <!-- color: #eeeeee -->
     <g>
      <path d="m 13.563 15 c -0.855 0 -1.563 0.801 -1.563 1.781 l 0 14.438 c 0 0.984 0.707 1.785 1.563 1.785 l 14.375 0 c 0.023 0 0.043 0 0.066 0 l 1 0 l 9 -9 l -9 -9 l -1 0 c -0.023 0 -0.043 0 -0.066 0 l -14.375 0 m 13.625 5.992 c 0.535 -0.016 1.512 0.332 1.719 0.813 c 0.207 0.48 0.051 0.555 -0.344 0.906 c -1.773 1.176 -5.656 5.598 -5.656 5.598 c -0.883 0.84 -1.281 0.957 -2.156 0.121 l -3.25 -3.156 c -0.602 -0.438 -0.688 -1.418 -0.156 -1.938 c 0.531 -0.52 1.543 -0.457 2 0.125 l 2.313 2.25 l 4.625 -4.344 c 0.242 -0.234 0.566 -0.367 0.906 -0.379 m 0 0.004" style="fill:#000;fill-opacity:1;stroke:none;fill-rule:nonzero"/>
     </g>
    </g>
   </g>
  </g>
 </g>
 <g>
  <g>
   <!-- color: #eeeeee -->
   <g>
    <path d="m 13.563 15 c -0.855 0 -1.563 0.801 -1.563 1.781 l 0 14.438 c 0 0.984 0.707 1.785 1.563 1.785 l 14.375 0 c 0.023 0 0.043 0 0.066 0 l 1 0 l 9 -9 l -9 -9 l -1 0 c -0.023 0 -0.043 0 -0.066 0 l -14.375 0 m 13.625 5.992 c 0.535 -0.016 1.512 0.332 1.719 0.813 c 0.207 0.48 0.051 0.555 -0.344 0.906 c -1.773 1.176 -5.656 5.598 -5.656 5.598 c -0.883 0.84 -1.281 0.957 -2.156 0.121 l -3.25 -3.156 c -0.602 -0.438 -0.688 -1.418 -0.156 -1.938 c 0.531 -0.52 1.543 -0.457 2 0.125 l 2.313 2.25 l 4.625 -4.344 c 0.242 -0.234 0.566 -0.367 0.906 -0.379 m 0 0.004" style="fill:#09c;fill-opacity:1;stroke:none;fill-rule:nonzero"/>
   </g>
  </g>
 </g>
 <g>
  
 </g>
</svg>
