<svg viewBox="0 0 48 48" xmlns="http://www.w3.org/2000/svg" xmlns:xlink="http://www.w3.org/1999/xlink">
  <linearGradient id="a" gradientTransform="matrix(0 -1 1 0 -.0000015 47.999998)" gradientUnits="userSpaceOnUse" x1="1" x2="47">
    <stop offset="0" stop-color="#d0241c"/>
    <stop offset="1" stop-color="#e12a20"/>
  </linearGradient>
  <path d="m47 24c0 22.703-.297 23-23 23-22.703 0-23-.297-23-23 0-22.703.297-23 23-23 22.703 0 23 .297 23 23z" fill="url(#a)"/>
  <path d="m18.586 13l-6.586 6.586v10.828l6.586 6.586h10.828l6.586-6.586v-10.828l-6.586-6.586zm.828 2h9.172l5.414 5.414v9.172l-5.414 5.414h-9.172l-5.414-5.414v-9.172zm4.586 1c-.554 0-1 .446-1 1v7.02a6.5 5 0 0 0-1 .125v-6.141c0-.554-.446-1-1-1-.554 0-1 .446-1 1v6.787a6.5 5 0 0 0-1 .607v-5.172c0-.677-.446-1.223-1-1.223-.554 0-1 .546-1 1.223v8.555c0 .023.009.042.01.064a6.5 5 0 0 0-.01.158 6.5 5 0 0 0  6.5 5 6.5 5 0 0 0  6.348-3.934l.021.053c0 0 .043-.285.084-.551a6.5 5 0 0 0  .016-.1c.212-1.311.831-4.527 2.16-6.967 0-.566-.566-.566-.566-.566-.815.17-1.464.381-1.902 1.031l-1.646 2.441a6.5 5 0 0 0-.014-.01v-7.398c0-.554-.446-1-1-1-.554 0-1 .446-1 1v6.387a6.5 5 0 0 0-1-.246v-7.141c0-.554-.446-1-1-1z" opacity=".1" transform="translate(.99999733)"/>
  <path d="m18.586 12l-6.586 6.586v10.828l6.586 6.586h10.828l6.586-6.586v-10.828l-6.586-6.586m-10 2h9.172l5.414 5.414v9.172l-5.414 5.414h-9.172l-5.414-5.414v-9.172" fill="#f9f9f9" fill-rule="evenodd"/>
  <ellipse cx="23.5" cy="28" fill="#f9f9f9" rx="6.5" ry="5"/>
  <rect fill="#f9f9f9" height="11" rx="1" width="2" x="26" y="16"/>
  <rect fill="#f9f9f9" height="11" rx="1" width="2" x="23" y="15"/>
  <rect fill="#f9f9f9" height="11" rx="1" width="2" x="20" y="16"/>
  <rect fill="#f9f9f9" height="11" rx="1" ry="1.222" width="2" x="17" y="18"/>
  <path d="m31.563 20.935c-.815.17-1.464.38-1.903 1.031l-1.73 2.567 1.939 4.586c0 0 .564-4.504 2.26-7.617 0-.566-.566-.566-.566-.566z" fill="#f9f9f9"/>
</svg>
