<svg xmlns="http://www.w3.org/2000/svg" viewBox="0 0 48 48">
 <defs>
  <linearGradient id="linearGradient3764" y1="47" x2="0" y2="1" gradientUnits="userSpaceOnUse">
   <stop style="stop-color:#67ac5e;stop-opacity:1"/>
   <stop offset="1" style="stop-color:#74b36b;stop-opacity:1"/>
  </linearGradient>
 </defs>
 <g>
  
  
  
 </g>
 <g>
  <path d="m 47,24 C 47,46.703 46.703,47 24,47 1.297,47 1,46.703 1,24 1,1.297 1.297,1 24,1 46.703,1 47,1.297 47,24 z" style="fill:url(#linearGradient3764);fill-opacity:1"/>
 </g>
 <g>
  <g>
   <g transform="translate(1,1)">
    <g style="opacity:0.1">
     <!-- color: #74b36b -->
     <g>
      <path d="m 25.23 11.371 c -6.313 0 -11.426 5.074 -11.426 11.328 c 0 2.141 0.598 4.145 1.641 5.852 l -2.063 6.074 l 6.324 -2.01 c 1.637 0.898 3.52 1.41 5.523 1.41 c 6.309 0 11.422 -5.07 11.422 -11.328 c 0 -6.254 -5.113 -11.328 -11.422 -11.328 m 0 20.852 c -1.953 0 -3.77 -0.578 -5.285 -1.574 l -3.691 1.172 l 1.199 -3.535 c -1.148 -1.57 -1.828 -3.5 -1.828 -5.586 c 0 -5.25 4.309 -9.523 9.605 -9.523 c 5.293 0 9.602 4.273 9.602 9.523 c 0 5.254 -4.309 9.523 -9.602 9.523 m 0 0" style="fill:#000;fill-rule:evenodd"/>
      <path d="m 22.547 18.02 c -0.188 -0.441 -0.328 -0.457 -0.613 -0.473 c -0.098 -0.004 -0.207 -0.008 -0.32 -0.008 c -0.371 0 -0.75 0.109 -0.98 0.34 c -0.281 0.285 -0.98 0.949 -0.98 2.316 c 0 1.367 1 2.688 1.141 2.871 c 0.141 0.188 1.961 3.03 4.785 4.191 c 2.207 0.906 2.863 0.828 3.367 0.719 c 0.73 -0.16 1.652 -0.695 1.883 -1.344 c 0.234 -0.648 0.234 -1.203 0.164 -1.32 c -0.07 -0.113 -0.258 -0.184 -0.535 -0.324 c -0.281 -0.137 -1.656 -0.809 -1.914 -0.902 c -0.258 -0.094 -0.496 -0.063 -0.691 0.207 c -0.273 0.375 -0.535 0.758 -0.754 0.984 c -0.168 0.18 -0.441 0.207 -0.68 0.105 c -0.309 -0.129 -1.18 -0.434 -2.25 -1.379 c -0.832 -0.734 -1.395 -1.645 -1.559 -1.922 c -0.164 -0.277 -0.016 -0.441 0.113 -0.594 c 0.141 -0.172 0.273 -0.297 0.414 -0.457 c 0.141 -0.164 0.219 -0.25 0.313 -0.438 c 0.094 -0.184 0.031 -0.375 -0.039 -0.512 c -0.07 -0.141 -0.633 -1.508 -0.863 -2.063 m 0 0" style="fill:#000;fill-rule:evenodd"/>
     </g>
    </g>
   </g>
  </g>
 </g>
 <g>
  <g>
   <!-- color: #74b36b -->
   <g>
    <path d="m 25.23 11.371 c -6.313 0 -11.426 5.074 -11.426 11.328 c 0 2.141 0.598 4.145 1.641 5.852 l -2.063 6.074 l 6.324 -2.01 c 1.637 0.898 3.52 1.41 5.523 1.41 c 6.309 0 11.422 -5.07 11.422 -11.328 c 0 -6.254 -5.113 -11.328 -11.422 -11.328 m 0 20.852 c -1.953 0 -3.77 -0.578 -5.285 -1.574 l -3.691 1.172 l 1.199 -3.535 c -1.148 -1.57 -1.828 -3.5 -1.828 -5.586 c 0 -5.25 4.309 -9.523 9.605 -9.523 c 5.293 0 9.602 4.273 9.602 9.523 c 0 5.254 -4.309 9.523 -9.602 9.523 m 0 0" style="fill:#fff;fill-rule:evenodd"/>
    <path d="m 22.547 18.02 c -0.188 -0.441 -0.328 -0.457 -0.613 -0.473 c -0.098 -0.004 -0.207 -0.008 -0.32 -0.008 c -0.371 0 -0.75 0.109 -0.98 0.34 c -0.281 0.285 -0.98 0.949 -0.98 2.316 c 0 1.367 1 2.688 1.141 2.871 c 0.141 0.188 1.961 3.03 4.785 4.191 c 2.207 0.906 2.863 0.828 3.367 0.719 c 0.73 -0.16 1.652 -0.695 1.883 -1.344 c 0.234 -0.648 0.234 -1.203 0.164 -1.32 c -0.07 -0.113 -0.258 -0.184 -0.535 -0.324 c -0.281 -0.137 -1.656 -0.809 -1.914 -0.902 c -0.258 -0.094 -0.496 -0.063 -0.691 0.207 c -0.273 0.375 -0.535 0.758 -0.754 0.984 c -0.168 0.18 -0.441 0.207 -0.68 0.105 c -0.309 -0.129 -1.18 -0.434 -2.25 -1.379 c -0.832 -0.734 -1.395 -1.645 -1.559 -1.922 c -0.164 -0.277 -0.016 -0.441 0.113 -0.594 c 0.141 -0.172 0.273 -0.297 0.414 -0.457 c 0.141 -0.164 0.219 -0.25 0.313 -0.438 c 0.094 -0.184 0.031 -0.375 -0.039 -0.512 c -0.07 -0.141 -0.633 -1.508 -0.863 -2.063 m 0 0" style="fill:#fff;fill-rule:evenodd"/>
   </g>
  </g>
 </g>
 <g>
  
 </g>
</svg>
