<svg viewBox="0 0 48 48" xmlns="http://www.w3.org/2000/svg" xmlns:xlink="http://www.w3.org/1999/xlink">
  <linearGradient id="a" gradientTransform="matrix(0 -1 1 0 -.0000015 47.999998)" gradientUnits="userSpaceOnUse" x1="1" x2="47">
    <stop offset="0" stop-color="#333"/>
    <stop offset="1" stop-color="#3d3d3d"/>
  </linearGradient>
  <path d="m47 24c0 22.703-.297 23-23 23-22.703 0-23-.297-23-23 0-22.703.297-23 23-23 22.703 0 23 .297 23 23z" fill="url(#a)"/>
  <g opacity=".1" transform="translate(1 1)">
    <path d="m17.281 12c-2.934 0-5.281 1.867-5.281 4.188v13.625c0 2.32 2.348 4.188 5.281 4.188h13.438c2.934 0 5.281-1.867 5.281-4.188v-13.625c0-2.32-2.348-4.188-5.281-4.188m-12.719 4h4v1h9c .609 0 1 .422 1 1v10c0 .594-.391 1-1 1h-14c-.586 0-1-.391-1-1v-10c0-.602.324-1 1-1h1m12 1c-.551 0-1 .449-1 1 0 .551.449 1 1 1 .551 0 1-.449 1-1 0-.551-.449-1-1-1m-6 1c-2.211 0-4 1.789-4 4 0 2.211 1.789 4 4 4 2.211 0 4-1.789 4-4 0-2.211-1.789-4-4-4m0 0"/>
    <path d="m16 30h15l3 8m-18-8"/>
  </g>
  <path d="m17.281 12c-2.934 0-5.281 1.867-5.281 4.188v13.625c0 2.32 2.348 4.188 5.281 4.188h13.438c2.934 0 5.281-1.867 5.281-4.188v-13.625c0-2.32-2.348-4.188-5.281-4.188m-12.719 4h4v1h9c .609 0 1 .422 1 1v10c0 .594-.391 1-1 1h-14c-.586 0-1-.391-1-1v-10c0-.602.324-1 1-1h1m12 1c-.551 0-1 .449-1 1 0 .551.449 1 1 1 .551 0 1-.449 1-1 0-.551-.449-1-1-1m-6 1c-2.211 0-4 1.789-4 4 0 2.211 1.789 4 4 4 2.211 0 4-1.789 4-4 0-2.211-1.789-4-4-4m0 0" fill="#f9f9f9"/>
  <path d="m16 30h15l3 8m-18-8" fill="#f9f9f9"/>
</svg>
