<svg xmlns="http://www.w3.org/2000/svg" viewBox="0 0 48 48">
 <defs>
  <linearGradient id="linearGradient3764" x1="1" x2="47" gradientUnits="userSpaceOnUse" gradientTransform="matrix(0,-1,1,0,-1.5e-6,47.999998)">
   <stop style="stop-color:#e4e4e4;stop-opacity:1"/>
   <stop offset="1" style="stop-color:#eee;stop-opacity:1"/>
  </linearGradient>
 </defs>
 <g>
  
  
  
 </g>
 <g>
  <path d="m 47,24 C 47,46.703 46.703,47 24,47 1.297,47 1,46.703 1,24 1,1.297 1.297,1 24,1 46.703,1 47,1.297 47,24 z" style="fill:url(#linearGradient3764);fill-opacity:1"/>
 </g>
 <g>
  <g>
   <g transform="translate(1,1)">
    <g style="opacity:0.1">
     <!-- color: #eeeeee -->
     <g>
      <path d="m 24 11 l -13 22 l 26 0 m -13 -13 c 1.66 0 3 0.992 3 2.219 l 0 5.563 c 0 1.227 -1.34 2.219 -3 2.219 c -1.66 0 -3 -0.992 -3 -2.219 l 0 -5.563 c 0 -1.227 1.34 -2.219 3 -2.219 m 0 0" style="fill:#000;fill-opacity:1;stroke:none;fill-rule:nonzero"/>
      <path d="m 18 29 l 0.004 0 c 1.102 0 2 0.793 2 1.77 l 0 4.457 c 0 0.98 -0.898 1.773 -2 1.773 l -0.004 0 c -1.105 0 -2 -0.793 -2 -1.773 l 0 -4.457 c 0 -0.977 0.895 -1.77 2 -1.77 m 0 0" style="fill:#000;fill-opacity:1;stroke:none;fill-rule:nonzero"/>
      <path d="m 29.996 29 l 0.004 0 c 1.105 0 2 0.793 2 1.77 l 0 4.457 c 0 0.98 -0.895 1.773 -2 1.773 l -0.004 0 c -1.102 0 -1.996 -0.793 -1.996 -1.773 l 0 -4.457 c 0 -0.977 0.895 -1.77 1.996 -1.77 m 0 0" style="fill:#000;fill-opacity:1;stroke:none;fill-rule:nonzero"/>
      <path d="m 24 21 l 0.004 0 c 1.102 0 1.996 0.793 1.996 1.773 l 0 4.457 c 0 0.977 -0.895 1.773 -1.996 1.773 l -0.004 0 c -1.105 0 -2 -0.797 -2 -1.773 l 0 -4.457 c 0 -0.98 0.895 -1.773 2 -1.773 m 0 0" style="fill:#000;fill-opacity:1;stroke:none;fill-rule:nonzero"/>
      <path d="m 15.5 18 l 0.004 0 c 0.824 0 1.496 0.793 1.496 1.773 l 0 8.457 c 0 0.977 -0.672 1.77 -1.496 1.77 l -0.004 0 c -0.828 0 -1.5 -0.793 -1.5 -1.77 l 0 -8.457 c 0 -0.98 0.672 -1.773 1.5 -1.773 m 0 0" style="fill:#000;fill-opacity:1;stroke:none;fill-rule:nonzero"/>
      <path d="m 32.5 18 l 0.004 0 c 0.828 0 1.496 0.793 1.496 1.773 l 0 8.457 c 0 0.977 -0.668 1.77 -1.496 1.77 l -0.004 0 c -0.828 0 -1.5 -0.793 -1.5 -1.77 l 0 -8.457 c 0 -0.98 0.672 -1.773 1.5 -1.773 m 0 0" style="fill:#000;fill-opacity:1;stroke:none;fill-rule:nonzero"/>
     </g>
    </g>
   </g>
  </g>
 </g>
 <g>
  <g>
   <!-- color: #eeeeee -->
   <g>
    <path d="m 24 11 l -13 22 l 26 0 m -13 -13 c 1.66 0 3 0.992 3 2.219 l 0 5.563 c 0 1.227 -1.34 2.219 -3 2.219 c -1.66 0 -3 -0.992 -3 -2.219 l 0 -5.563 c 0 -1.227 1.34 -2.219 3 -2.219 m 0 0" style="fill:#863db9;fill-opacity:1;stroke:none;fill-rule:nonzero"/>
    <path d="m 18 29 l 0.004 0 c 1.102 0 2 0.793 2 1.77 l 0 4.457 c 0 0.98 -0.898 1.773 -2 1.773 l -0.004 0 c -1.105 0 -2 -0.793 -2 -1.773 l 0 -4.457 c 0 -0.977 0.895 -1.77 2 -1.77 m 0 0" style="fill:#863db9;fill-opacity:1;stroke:none;fill-rule:nonzero"/>
    <path d="m 29.996 29 l 0.004 0 c 1.105 0 2 0.793 2 1.77 l 0 4.457 c 0 0.98 -0.895 1.773 -2 1.773 l -0.004 0 c -1.102 0 -1.996 -0.793 -1.996 -1.773 l 0 -4.457 c 0 -0.977 0.895 -1.77 1.996 -1.77 m 0 0" style="fill:#863db9;fill-opacity:1;stroke:none;fill-rule:nonzero"/>
    <path d="m 24 21 l 0.004 0 c 1.102 0 1.996 0.793 1.996 1.773 l 0 4.457 c 0 0.977 -0.895 1.773 -1.996 1.773 l -0.004 0 c -1.105 0 -2 -0.797 -2 -1.773 l 0 -4.457 c 0 -0.98 0.895 -1.773 2 -1.773 m 0 0" style="fill:#863db9;fill-opacity:1;stroke:none;fill-rule:nonzero"/>
    <path d="m 15.5 18 l 0.004 0 c 0.824 0 1.496 0.793 1.496 1.773 l 0 8.457 c 0 0.977 -0.672 1.77 -1.496 1.77 l -0.004 0 c -0.828 0 -1.5 -0.793 -1.5 -1.77 l 0 -8.457 c 0 -0.98 0.672 -1.773 1.5 -1.773 m 0 0" style="fill:#863db9;fill-opacity:1;stroke:none;fill-rule:nonzero"/>
    <path d="m 32.5 18 l 0.004 0 c 0.828 0 1.496 0.793 1.496 1.773 l 0 8.457 c 0 0.977 -0.668 1.77 -1.496 1.77 l -0.004 0 c -0.828 0 -1.5 -0.793 -1.5 -1.77 l 0 -8.457 c 0 -0.98 0.672 -1.773 1.5 -1.773 m 0 0" style="fill:#863db9;fill-opacity:1;stroke:none;fill-rule:nonzero"/>
   </g>
  </g>
 </g>
 <g>
  
 </g>
</svg>
