<svg xmlns="http://www.w3.org/2000/svg" viewBox="0 0 48 48">
 <defs>
  <linearGradient id="linearGradient3999" gradientUnits="userSpaceOnUse" x1="1" x2="47" gradientTransform="matrix(0,-1,1,0,0,48)">
   <stop style="stop-color:#a63771;stop-opacity:1"/>
   <stop offset="1" style="stop-color:#b43c7b;stop-opacity:1"/>
  </linearGradient>
 </defs>
 
 
 
 <path d="M 1,24 C 1,1.297 1.297,1 24,1 46.703,1 47,1.297 47,24 47,46.703 46.703,47 24,47 1.297,47 1,46.703 1,24 z" style="fill:url(#linearGradient3999);fill-opacity:1"/>
 
 <path d="m 13 13 0 4 4 0 0 -4 -4 0 z m 5 0 0 4 4 0 0 -4 -4 0 z m 5 0 0 4 4 0 0 -4 -4 0 z m 5 0 0 4 4 0 0 -4 -4 0 z m 5 0 0 4 4 0 0 -1 2 0 0 1 1 0 0 -4 -1 0 0 1 -2 0 0 -1 -4 0 z m -20 5 0 4 4 0 0 -4 -4 0 z m 0 5 0 4 4 0 0 -4 -4 0 z m 5 0 0 4 4 0 0 -4 -4 0 z m 5 0 0 4 4 0 0 -4 -4 0 z m 5 0 0 4 4 0 0 -4 -4 0 z m 5 0 0 4 4 0 0 -4 -4 0 z m 0 5 0 4 4 0 0 -4 -4 0 z m -20 5 0 4 4 0 0 -4 -4 0 z m 5 0 0 4 4 0 0 -4 -4 0 z m 5 0 0 4 4 0 0 -4 -4 0 z m 5 0 0 4 4 0 0 -4 -4 0 z m 5 0 0 4 4 0 0 -4 -4 0 z" style="fill:#000;opacity:0.1;fill-opacity:1;stroke:none;fill-rule:nonzero"/>
 <rect width="4" height="4" x="12" y="-16" transform="matrix(0,1,-1,0,0,0)" style="fill:#e0d0a0;fill-opacity:1;stroke:none;fill-rule:nonzero"/>
 <rect width="4" height="4" x="12" y="-21" transform="matrix(0,1,-1,0,0,0)" style="fill:#e0d0a0;fill-opacity:1;stroke:none;fill-rule:nonzero"/>
 <rect width="4" height="4" x="12" y="-31" transform="matrix(0,1,-1,0,0,0)" style="fill:#e0d0a0;fill-opacity:1;stroke:none;fill-rule:nonzero"/>
 <rect width="4" height="4" x="12" y="-26" transform="matrix(0,1,-1,0,0,0)" style="fill:#e0d0a0;fill-opacity:1;stroke:none;fill-rule:nonzero"/>
 <rect width="2" height="2" x="-38" y="-15" transform="scale(-1,-1)" style="fill:#fc5454;fill-opacity:1;stroke:none;fill-rule:nonzero"/>
 <rect width="1" height="4" x="-39" y="-16" transform="scale(-1,-1)" style="fill:#fc5454;fill-opacity:1;stroke:none;fill-rule:nonzero"/>
 <rect width="4" height="4" x="12" y="17" style="fill:#e0d0a0;fill-opacity:1;stroke:none;fill-rule:nonzero"/>
 <rect width="4" height="4" x="12" y="22" style="fill:#e0d0a0;fill-opacity:1;stroke:none;fill-rule:nonzero"/>
 <rect width="4" height="4" x="12" y="-36" transform="matrix(0,1,-1,0,0,0)" style="fill:#e0d0a0;fill-opacity:1;stroke:none;fill-rule:nonzero"/>
 <rect width="4" height="4" x="-26" y="17" transform="matrix(0,-1,1,0,0,0)" style="fill:#e0d0a0;fill-opacity:1;stroke:none;fill-rule:nonzero"/>
 <rect width="4" height="4" x="-26" y="22" transform="matrix(0,-1,1,0,0,0)" style="fill:#e0d0a0;fill-opacity:1;stroke:none;fill-rule:nonzero"/>
 <rect width="4" height="4" x="-26" y="27" transform="matrix(0,-1,1,0,0,0)" style="fill:#e0d0a0;fill-opacity:1;stroke:none;fill-rule:nonzero"/>
 <rect width="4" height="4" x="-26" y="32" transform="matrix(0,-1,1,0,0,0)" style="fill:#e0d0a0;fill-opacity:1;stroke:none;fill-rule:nonzero"/>
 <rect width="4" height="4" x="32" y="27" style="fill:#e0d0a0;fill-opacity:1;stroke:none;fill-rule:nonzero"/>
 <rect width="4" height="4" x="32" y="32" style="fill:#e0d0a0;fill-opacity:1;stroke:none;fill-rule:nonzero"/>
 <rect width="4" height="4" x="12" y="32" style="fill:#e0d0a0;fill-opacity:1;stroke:none;fill-rule:nonzero"/>
 <rect width="4" height="4" x="-36" y="17" transform="matrix(0,-1,1,0,0,0)" style="fill:#e0d0a0;fill-opacity:1;stroke:none;fill-rule:nonzero"/>
 <rect width="4" height="4" x="-36" y="22" transform="matrix(0,-1,1,0,0,0)" style="fill:#e0d0a0;fill-opacity:1;stroke:none;fill-rule:nonzero"/>
 <rect width="4" height="4" x="-36" y="27" transform="matrix(0,-1,1,0,0,0)" style="fill:#e0d0a0;fill-opacity:1;stroke:none;fill-rule:nonzero"/>
</svg>
