<svg xmlns="http://www.w3.org/2000/svg" viewBox="0 0 48 48">
 <defs>
  <linearGradient id="linearGradient4028" x1="1" x2="47" gradientUnits="userSpaceOnUse">
   <stop style="stop-color:#e4e4e4;stop-opacity:1"/>
   <stop offset="1" style="stop-color:#eee;stop-opacity:1"/>
  </linearGradient>
 </defs>
 <g>
  
  
  
 </g>
 <g transform="matrix(0,-1,1,0,0,48)" style="fill:url(#linearGradient4028);fill-opacity:1">
  <path d="M 24,1 C 46.703,1 47,1.297 47,24 47,46.703 46.703,47 24,47 1.297,47 1,46.703 1,24 1,1.297 1.297,1 24,1 z"/>
 </g>
 <path d="m 26.845 12.01 c -0.133 0.011 -0.274 0.055 -0.407 0.094 -1.061 0.309 -1.654 1.409 -1.345 2.469 l 0.845 2.876 -0.031 0 -5.755 1.688 -0.845 -2.876 c -0.309 -1.061 -1.41 -1.684 -2.471 -1.375 -1.061 0.309 -1.686 1.409 -1.376 2.469 l 0.845 2.907 -2.878 0.844 c -1.061 0.309 -1.654 1.409 -1.345 2.469 0.309 1.061 1.41 1.653 2.471 1.344 l 2.878 -0.844 1.689 5.782 -2.878 0.844 c -1.061 0.309 -1.686 1.409 -1.376 2.469 0.309 1.061 1.41 1.684 2.471 1.375 l 2.909 -0.844 0.845 2.876 c 0.309 1.061 1.41 1.653 2.471 1.344 1.061 -0.309 1.654 -1.409 1.345 -2.469 l -0.845 -2.876 5.787 -1.688 0.845 2.876 c 0.309 1.061 1.41 1.684 2.471 1.375 1.061 -0.309 1.686 -1.409 1.376 -2.469 l -0.845 -2.907 2.878 -0.844 c 1.061 -0.309 1.654 -1.409 1.345 -2.469 -0.309 -1.061 -1.41 -1.653 -2.471 -1.344 l -2.878 0.844 0 -0.031 -1.689 -5.751 2.878 -0.844 c 1.061 -0.309 1.686 -1.409 1.376 -2.469 c -0.309 -1.061 -1.41 -1.684 -2.471 -1.375 l -2.909 0.844 -0.845 -2.876 c -0.271 -0.928 -1.136 -1.514 -2.064 -1.438 z m 0.188 9.252 1.689 5.782 0 0.031 -5.755 1.657 -1.689 -5.751 0 -0.031 5.755 -1.688 z" style="fill:#000;opacity:0.1;fill-opacity:1;stroke:none;fill-rule:nonzero"/>
 <g>
  
 </g>
 <path d="m 12.441 20.08 c -1.06 0.309 -1.669 1.419 -1.36 2.48 0.309 1.06 1.419 1.669 2.48 1.36 l 19.2 -5.597 c 1.06 -0.309 1.669 -1.419 1.36 -2.48 -0.309 -1.06 -1.419 -1.669 -2.48 -1.36 l -19.2 5.597 z" style="fill:#6fcbdc;opacity:1;fill-opacity:1;stroke:none;fill-rule:nonzero"/>
 <path d="m 18.321 15.239 c -0.309 -1.06 -1.419 -1.669 -2.48 -1.36 -1.06 0.309 -1.669 1.419 -1.36 2.48 l 5.597 19.2 c 0.309 1.06 1.419 1.669 2.48 1.36 1.06 -0.309 1.669 -1.419 1.36 -2.48 l -5.597 -19.2 z" style="fill:#3fba91;opacity:1;fill-opacity:1;stroke:none;fill-rule:nonzero"/>
 <rect width="4" height="4" x="9.324" y="22.758" transform="matrix(0.96003935,-0.27986506,0.27986506,0.96003935,0,0)" style="fill:#1b947d;opacity:1;fill-opacity:1;stroke:none;fill-rule:nonzero"/>
 <path d="m 27.922 12.441 c -0.309 -1.06 -1.419 -1.669 -2.48 -1.36 -1.06 0.309 -1.669 1.419 -1.36 2.48 l 5.597 19.2 c 0.309 1.06 1.419 1.669 2.48 1.36 1.06 -0.309 1.669 -1.419 1.36 -2.48 l -5.597 -19.2 z" style="fill:#e9a821;opacity:1;fill-opacity:1;stroke:none;fill-rule:nonzero"/>
 <rect width="4" height="4" x="19.324" y="22.758" transform="matrix(0.96003935,-0.27986506,0.27986506,0.96003935,0,0)" style="fill:#65861c;opacity:1;fill-opacity:1;stroke:none;fill-rule:nonzero"/>
 <path d="m 15.239 29.679 c -1.06 0.309 -1.669 1.419 -1.36 2.48 0.309 1.06 1.419 1.669 2.48 1.36 l 19.2 -5.597 c 1.06 -0.309 1.669 -1.419 1.36 -2.48 -0.309 -1.06 -1.419 -1.669 -2.48 -1.36 l -19.2 5.597 z" style="fill:#e11664;opacity:1;fill-opacity:1;stroke:none;fill-rule:nonzero"/>
 <rect width="4" height="4" x="9.324" y="32.758" transform="matrix(0.96003935,-0.27986506,0.27986506,0.96003935,0,0)" style="fill:#381039;opacity:1;fill-opacity:1;stroke:none;fill-rule:nonzero"/>
 <rect width="4" height="4" x="19.324" y="32.758" transform="matrix(0.96003935,-0.27986506,0.27986506,0.96003935,0,0)" style="fill:#ce0e0d;opacity:1;fill-opacity:1;stroke:none;fill-rule:nonzero"/>
</svg>
