<svg viewBox="0 0 48 48" xmlns="http://www.w3.org/2000/svg" xmlns:xlink="http://www.w3.org/1999/xlink">
  <linearGradient id="a" gradientUnits="userSpaceOnUse" x2="0" y1="47" y2="1">
    <stop offset="0" stop-color="#efefef"/>
    <stop offset="1" stop-color="#f9f9f9"/>
  </linearGradient>
  <path d="m47 24c0 22.703-.297 23-23 23-22.703 0-23-.297-23-23 0-22.703.297-23 23-23 22.703 0 23 .297 23 23z" fill="url(#a)"/>
  <g opacity=".1" transform="translate(1 1)">
    <path d="m12 13h6v6h-6m0-6"/>
    <path d="m21 13h6v6h-6m0-6"/>
    <path d="m30 13h6v6h-6m0-6"/>
    <path d="m12 21h6v6h-6m0-6"/>
    <path d="m21 21h6v6h-6m0-6"/>
    <path d="m30 21h6v6h-6m0-6"/>
    <path d="m12 29h6v6h-6m0-6"/>
    <path d="m21 29h6v6h-6m0-6"/>
    <path d="m30 29h6v6h-6m0-6"/>
  </g>
  <path d="m12 13h6v6h-6m0-6" fill="#85a1d4"/>
  <path d="m21 13h6v6h-6m0-6" fill="#85a1d4"/>
  <path d="m30 13h6v6h-6m0-6" fill="#85a1d4"/>
  <path d="m12 21h6v6h-6m0-6" fill="#85a1d4"/>
  <path d="m21 21h6v6h-6m0-6" fill="#85a1d4"/>
  <path d="m30 21h6v6h-6m0-6" fill="#85a1d4"/>
  <path d="m12 29h6v6h-6m0-6" fill="#85a1d4"/>
  <path d="m21 29h6v6h-6m0-6" fill="#85a1d4"/>
  <path d="m30 29h6v6h-6m0-6" fill="#85a1d4"/>
</svg>
