<svg xmlns="http://www.w3.org/2000/svg" viewBox="0 0 48 48">
 <g>
  
  
  
 </g>
 <g style="fill:#ffa200;fill-opacity:1">
  <path d="m 24 1 c 22.703 0 23 0.297 23 23 c 0 22.703 -0.297 23 -23 23 -22.703 0 -23 -0.297 -23 -23 0 -22.703 0.297 -23 23 -23 z"/>
 </g>
 <g>
  
 </g>
 <path d="m 27 13 c -6.627 0 -12 5.373 -12 12 0 6.627 5.373 12 12 12 1.79 0 3.474 -0.391 5 -1.094 l 0 -4.656 c -1.37 1.098 -3.108 1.75 -5 1.75 c -4.418 0 -8 -3.582 -8 -8 0 -4.418 3.582 -8 8 -8 1.892 0 3.63 0.652 5 1.75 l 0 -4.656 c -1.526 -0.703 -3.21 -1.094 -5 -1.094 z" style="fill:#000;opacity:0.1;fill-opacity:1;stroke:none;fill-rule:nonzero"/>
 <path d="m 26 12 c -6.627 0 -12 5.373 -12 12 c 0 6.627 5.373 12 12 12 c 1.79 0 3.474 -0.391 5 -1.094 l 0 -4.656 c -1.37 1.098 -3.108 1.75 -5 1.75 c -4.418 0 -8 -3.582 -8 -8 c 0 -4.418 3.582 -8 8 -8 c 1.892 0 3.63 0.652 5 1.75 l 0 -4.656 c -1.526 -0.703 -3.21 -1.094 -5 -1.094 z" style="fill:#303030;opacity:1;fill-opacity:1;stroke:none;fill-rule:nonzero"/>
</svg>
