<svg viewBox="0 0 48 48" xmlns="http://www.w3.org/2000/svg" xmlns:xlink="http://www.w3.org/1999/xlink">
  <linearGradient id="a" gradientUnits="userSpaceOnUse" x1="1" x2="47">
    <stop offset="0" stop-color="#e3120c"/>
    <stop offset="1" stop-color="#f21812"/>
  </linearGradient>
  <path d="m24 1c22.703 0 23 .297 23 23 0 22.703-.297 23-23 23-22.703 0-23-.297-23-23 0-22.703.297-23 23-23z" fill="url(#a)" transform="matrix(0 -1 1 0 0 48)"/>
  <path d="m14 37v-1c2 0 4-.503 4-2v-18c0-1.54-2-2-4-2v-1h19.695l.305 6h-1c0-1-.544-4-3-4l0 0h-8v9h7c1.557 0 2-1 2-3h1v8h-1c0-2-.547-3-2-3h-7v7c0 1 1 2 2 2h6c2 0 3.912-.877 4.458-4h1.119l-.576 6z" opacity=".1"/>
  <path d="m13 36v-1c2 0 4-.503 4-2v-18c0-1.54-2-2-4-2v-1h19.695l.305 6h-1c0-1-.544-4-3-4l0 0h-8v9h7c1.557 0 2-1 2-3h1v8h-1c0-2-.547-3-2-3h-7v7c0 1 1 2 2 2h6c2 0 3.912-.877 4.458-4h1.119l-.576 6z" fill="#eeeae6"/>
</svg>
