<svg viewBox="0 0 48 48" xmlns="http://www.w3.org/2000/svg" xmlns:xlink="http://www.w3.org/1999/xlink">
  <linearGradient id="a" gradientUnits="userSpaceOnUse" x2="0" y1="47" y2="1">
    <stop offset="0" stop-color="#67ac5e"/>
    <stop offset="1" stop-color="#74b36b"/>
  </linearGradient>
  <path d="m47 24c0 22.703-.297 23-23 23-22.703 0-23-.297-23-23 0-22.703.297-23 23-23 22.703 0 23 .297 23 23z" fill="url(#a)"/>
  <g fill-rule="evenodd" opacity=".1" transform="translate(1 1)">
    <path d="m25.23 11.371c-6.313 0-11.426 5.074-11.426 11.328 0 2.141.598 4.145 1.641 5.852l-2.063 6.074 6.324-2.01c1.637.898 3.52 1.41 5.523 1.41 6.309 0 11.422-5.07 11.422-11.328 0-6.254-5.113-11.328-11.422-11.328m0 20.852c-1.953 0-3.77-.578-5.285-1.574l-3.691 1.172 1.199-3.535c-1.148-1.57-1.828-3.5-1.828-5.586 0-5.25 4.309-9.523 9.605-9.523 5.293 0 9.602 4.273 9.602 9.523 0 5.254-4.309 9.523-9.602 9.523m0 0"/>
    <path d="m22.547 18.02c-.188-.441-.328-.457-.613-.473-.098-.004-.207-.008-.32-.008-.371 0-.75.109-.98.34-.281.285-.98.949-.98 2.316 0 1.367 1 2.688 1.141 2.871.141.188 1.961 3.03 4.785 4.191 2.207.906 2.863.828 3.367.719.73-.16 1.652-.695 1.883-1.344.234-.648.234-1.203.164-1.32-.07-.113-.258-.184-.535-.324-.281-.137-1.656-.809-1.914-.902-.258-.094-.496-.063-.691.207-.273.375-.535.758-.754.984-.168.18-.441.207-.68.105-.309-.129-1.18-.434-2.25-1.379-.832-.734-1.395-1.645-1.559-1.922-.164-.277-.016-.441.113-.594.141-.172.273-.297.414-.457.141-.164.219-.25.313-.438.094-.184.031-.375-.039-.512-.07-.141-.633-1.508-.863-2.063m0 0"/>
  </g>
  <path d="m25.23 11.371c-6.313 0-11.426 5.074-11.426 11.328 0 2.141.598 4.145 1.641 5.852l-2.063 6.074 6.324-2.01c1.637.898 3.52 1.41 5.523 1.41 6.309 0 11.422-5.07 11.422-11.328 0-6.254-5.113-11.328-11.422-11.328m0 20.852c-1.953 0-3.77-.578-5.285-1.574l-3.691 1.172 1.199-3.535c-1.148-1.57-1.828-3.5-1.828-5.586 0-5.25 4.309-9.523 9.605-9.523 5.293 0 9.602 4.273 9.602 9.523 0 5.254-4.309 9.523-9.602 9.523m0 0" fill="#fff" fill-rule="evenodd"/>
  <path d="m22.547 18.02c-.188-.441-.328-.457-.613-.473-.098-.004-.207-.008-.32-.008-.371 0-.75.109-.98.34-.281.285-.98.949-.98 2.316 0 1.367 1 2.688 1.141 2.871.141.188 1.961 3.03 4.785 4.191 2.207.906 2.863.828 3.367.719.73-.16 1.652-.695 1.883-1.344.234-.648.234-1.203.164-1.32-.07-.113-.258-.184-.535-.324-.281-.137-1.656-.809-1.914-.902-.258-.094-.496-.063-.691.207-.273.375-.535.758-.754.984-.168.18-.441.207-.68.105-.309-.129-1.18-.434-2.25-1.379-.832-.734-1.395-1.645-1.559-1.922-.164-.277-.016-.441.113-.594.141-.172.273-.297.414-.457.141-.164.219-.25.313-.438.094-.184.031-.375-.039-.512-.07-.141-.633-1.508-.863-2.063m0 0" fill="#fff" fill-rule="evenodd"/>
</svg>
