<svg xmlns="http://www.w3.org/2000/svg" viewBox="0 0 48 48">
 <defs>
  <linearGradient id="linearGradient3764" x1="1" x2="47" gradientUnits="userSpaceOnUse" gradientTransform="matrix(0,-1,1,0,-1.5e-6,47.999998)">
   <stop style="stop-color:#333;stop-opacity:1"/>
   <stop offset="1" style="stop-color:#3d3d3d;stop-opacity:1"/>
  </linearGradient>
 </defs>
 <g>
  
  
  
 </g>
 <g>
  <path d="m 47,24 C 47,46.703 46.703,47 24,47 1.297,47 1,46.703 1,24 1,1.297 1.297,1 24,1 46.703,1 47,1.297 47,24 z" style="fill:url(#linearGradient3764);fill-opacity:1"/>
 </g>
 <g>
  <g>
   <g transform="translate(1,1)">
    <g style="opacity:0.1">
     <!-- color: #3d3d3d -->
     <g>
      <path d="m 11.09 18.789 c 2.824 -2.613 5.348 -7.172 8.277 -6.223 c 4.855 1.293 2.758 10.867 5.516 15.344 c 3.777 -2.195 6.23 -6.816 5.211 -9.215 c -0.227 -0.668 0.051 -2.34 -3.051 -0.879 c -0.805 0.379 -0.773 -1.09 -0.629 -1.289 c 2.871 -3.254 4.527 -4.609 6.492 -4.527 c 1.656 0.285 4.563 2.199 4.03 6.789 c -1.105 6.832 -10.836 17.559 -14.09 17.16 c -3.73 0.848 -5.617 -11.277 -8.414 -16.977 l -2.566 1.023 c -1.059 0.172 -0.906 -0.523 -0.773 -1.211 m -0.004 0.004" style="fill:#000;fill-opacity:1;stroke:none;fill-rule:nonzero"/>
     </g>
    </g>
   </g>
  </g>
 </g>
 <g>
  <g>
   <!-- color: #3d3d3d -->
   <g>
    <path d="m 11.09 18.789 c 2.824 -2.613 5.348 -7.172 8.277 -6.223 c 4.855 1.293 2.758 10.867 5.516 15.344 c 3.777 -2.195 6.23 -6.816 5.211 -9.215 c -0.227 -0.668 0.051 -2.34 -3.051 -0.879 c -0.805 0.379 -0.773 -1.09 -0.629 -1.289 c 2.871 -3.254 4.527 -4.609 6.492 -4.527 c 1.656 0.285 4.563 2.199 4.03 6.789 c -1.105 6.832 -10.836 17.559 -14.09 17.16 c -3.73 0.848 -5.617 -11.277 -8.414 -16.977 l -2.566 1.023 c -1.059 0.172 -0.906 -0.523 -0.773 -1.211 m -0.004 0.004" style="fill:#f9f9f9;fill-opacity:1;stroke:none;fill-rule:nonzero"/>
   </g>
  </g>
 </g>
 <g>
  
 </g>
</svg>
