<svg viewBox="0 0 48 48" xmlns="http://www.w3.org/2000/svg" xmlns:xlink="http://www.w3.org/1999/xlink">
  <linearGradient id="a" gradientTransform="matrix(0 -1 1 0 -.0000015 47.999998)" gradientUnits="userSpaceOnUse" x1="1" x2="47">
    <stop offset="0" stop-color="#256d93"/>
    <stop offset="1" stop-color="#2979a2"/>
  </linearGradient>
  <path d="m47 24c0 22.703-.297 23-23 23-22.703 0-23-.297-23-23 0-22.703.297-23 23-23 22.703 0 23 .297 23 23z" fill="url(#a)"/>
  <g opacity=".1" transform="translate(1 1)">
    <path d="m13.603 13.621c-3.485 3.489-3.485 9.166 0 12.654 3.488 3.488 9.166 3.488 12.654 0 3.488-3.488 3.49-9.167 0-12.656-3.488-3.488-9.167-3.487-12.656 0zm1.041 1.041c2.925-2.925 7.647-2.925 10.573 0 2.925 2.925 2.925 7.647 0 10.573-2.925 2.925-7.646 2.924-10.572 0-2.921-2.925-2.922-7.646 0-10.572z" opacity="1"/>
    <path d="m30.11 32.27l2.145-2.145 4.734 4.734-2.141 2.145m-4.738-4.734"/>
    <path d="m25.563 27.08l1.504-1.504 4.734 4.734-1.504 1.504m-4.734-4.734"/>
  </g>
  <path d="m13.603 13.621c-3.485 3.489-3.485 9.166 0 12.654 3.488 3.488 9.166 3.488 12.654 0 3.488-3.488 3.49-9.167 0-12.656-3.488-3.488-9.167-3.487-12.656 0zm1.041 1.041c2.925-2.925 7.647-2.925 10.573 0 2.925 2.925 2.925 7.647 0 10.573-2.925 2.925-7.646 2.924-10.572 0-2.921-2.925-2.922-7.646 0-10.572z" fill="#ecc61f"/>
  <path d="m30.11 32.27l2.145-2.145 4.734 4.734-2.141 2.145m-4.738-4.734" fill="#ecc61f"/>
  <path d="m25.563 27.08l1.504-1.504 4.734 4.734-1.504 1.504m-4.734-4.734" fill="#ecc61f"/>
</svg>
