<svg viewBox="0 0 48 48" xmlns="http://www.w3.org/2000/svg" xmlns:xlink="http://www.w3.org/1999/xlink">
  <linearGradient id="a" gradientTransform="matrix(0 -1 1 0 0 48)" gradientUnits="userSpaceOnUse" x1="1" x2="47">
    <stop offset="0" stop-color="#a63771"/>
    <stop offset="1" stop-color="#b43c7b"/>
  </linearGradient>
  <path d="m1 24c0-22.703.297-23 23-23 22.703 0 23 .297 23 23 0 22.703-.297 23-23 23-22.703 0-23-.297-23-23z" fill="url(#a)"/>
  <path d="m13 13v4h4v-4zm5 0v4h4v-4zm5 0v4h4v-4zm5 0v4h4v-4zm5 0v4h4v-1h2v1h1v-4h-1v1h-2v-1zm-20 5v4h4v-4zm0 5v4h4v-4zm5 0v4h4v-4zm5 0v4h4v-4zm5 0v4h4v-4zm5 0v4h4v-4zm0 5v4h4v-4zm-20 5v4h4v-4zm5 0v4h4v-4zm5 0v4h4v-4zm5 0v4h4v-4zm5 0v4h4v-4z" opacity=".1"/>
  <path d="m12-16h4v4h-4z" fill="#e0d0a0" transform="rotate(90)"/>
  <path d="m12-21h4v4h-4z" fill="#e0d0a0" transform="rotate(90)"/>
  <path d="m12-31h4v4h-4z" fill="#e0d0a0" transform="rotate(90)"/>
  <path d="m12-26h4v4h-4z" fill="#e0d0a0" transform="rotate(90)"/>
  <path d="m-38-15h2v2h-2z" fill="#fc5454" transform="scale(-1)"/>
  <path d="m-39-16h1v4h-1z" fill="#fc5454" transform="scale(-1)"/>
  <path d="m12 17h4v4h-4z" fill="#e0d0a0"/>
  <path d="m12 22h4v4h-4z" fill="#e0d0a0"/>
  <path d="m12-36h4v4h-4z" fill="#e0d0a0" transform="rotate(90)"/>
  <path d="m-26 17h4v4h-4z" fill="#e0d0a0" transform="rotate(-90)"/>
  <path d="m-26 22h4v4h-4z" fill="#e0d0a0" transform="rotate(-90)"/>
  <path d="m-26 27h4v4h-4z" fill="#e0d0a0" transform="rotate(-90)"/>
  <path d="m-26 32h4v4h-4z" fill="#e0d0a0" transform="rotate(-90)"/>
  <path d="m32 27h4v4h-4z" fill="#e0d0a0"/>
  <path d="m32 32h4v4h-4z" fill="#e0d0a0"/>
  <path d="m12 32h4v4h-4z" fill="#e0d0a0"/>
  <path d="m-36 17h4v4h-4z" fill="#e0d0a0" transform="rotate(-90)"/>
  <path d="m-36 22h4v4h-4z" fill="#e0d0a0" transform="rotate(-90)"/>
  <path d="m-36 27h4v4h-4z" fill="#e0d0a0" transform="rotate(-90)"/>
</svg>
