<svg xmlns="http://www.w3.org/2000/svg" viewBox="0 0 48 48">
 <defs>
  <linearGradient id="linearGradient3960" x1="1" x2="47" gradientUnits="userSpaceOnUse">
   <stop style="stop-color:#826b94;stop-opacity:1"/>
   <stop offset="1" style="stop-color:#8c779d;stop-opacity:1"/>
  </linearGradient>
 </defs>
 <g>
  
  
  
 </g>
 <g transform="matrix(0,-1,1,0,0,48)" style="fill:url(#linearGradient3960);fill-opacity:1">
  <path d="M 24,1 C 46.703,1 47,1.297 47,24 47,46.703 46.703,47 24,47 1.297,47 1,46.703 1,24 1,1.297 1.297,1 24,1 z"/>
 </g>
 <path d="m 21 15 l 0 8 l 8 0 l 0 -8 l -8 0 z m -10 10 l 0 8 l 8 0 l 0 -8 l -8 0 z m 10 0 l 0 8 l 8 0 l 0 -8 l -8 0 z m 10 0 l 0 8 l 8 0 l 0 -8 l -8 0 z" style="fill:#000;fill-opacity:0.118;stroke:none;fill-rule:nonzero"/>
 <path d="m 20 14 8 0 0 8 -8 0 m 0 -8" style="fill:#f1b513;fill-opacity:1;stroke:none;fill-rule:nonzero"/>
 <g>
  
 </g>
 <path d="m 28 24 0 8 -8 0 0 -8 m 8 0" style="fill:#7ec232;fill-opacity:1;stroke:none;fill-rule:nonzero"/>
 <path d="m 18 24 0 8 -8 0 0 -8 m 8 0" style="fill:#dc704b;fill-opacity:1;stroke:none;fill-rule:nonzero"/>
 <path d="m 38 24 0 8 -8 0 0 -8 m 8 0" style="fill:#09a7e3;fill-opacity:1;stroke:none;fill-rule:nonzero"/>
</svg>
