<svg xmlns="http://www.w3.org/2000/svg" viewBox="0 0 48 48">
 <defs>
  <linearGradient id="linearGradient3764" y1="47" x2="0" y2="1" gradientUnits="userSpaceOnUse">
   <stop style="stop-color:#5bc210;stop-opacity:1"/>
   <stop offset="1" style="stop-color:#66d511;stop-opacity:1"/>
  </linearGradient>
 </defs>
 <g>
  
  
  
 </g>
 <g>
  <path d="m 47,24 C 47,46.703 46.703,47 24,47 1.297,47 1,46.703 1,24 1,1.297 1.297,1 24,1 46.703,1 47,1.297 47,24 z" style="fill:url(#linearGradient3764);fill-opacity:1"/>
 </g>
 <g>
  <g>
   <!-- color: #66d511 -->
  </g>
 </g>
 <g>
  
 </g>
 <path d="m 25 12 c -6.075 0 -11 4.925 -11 11 0 6.075 4.925 11 11 11 l 0 4 c 0 0 11 -4 11 -15 0 -6.075 -4.925 -11 -11 -11 m -3 7 c 0.554 0 1 0.446 1 1 l 0 7 7 0 c 0.554 0 1 0.446 1 1 0 0.554 -0.446 1 -1 1 l -8 0 c -0.554 0 -1 -0.446 -1 -1 l 0 -8 c 0 -0.554 0.446 -1 1 -1 z" style="fill:#000;opacity:0.1;fill-opacity:1;stroke:none"/>
 <path d="m 24 11 c -6.075 0 -11 4.925 -11 11 0 6.075 4.925 11 11 11 l 0 4 c 0 0 11 -4 11 -15 0 -6.075 -4.925 -11 -11 -11 m -3 7 c 0.554 0 1 0.446 1 1 l 0 7 7 0 c 0.554 0 1 0.446 1 1 0 0.554 -0.446 1 -1 1 l -8 0 c -0.554 0 -1 -0.446 -1 -1 l 0 -8 c 0 -0.554 0.446 -1 1 -1 z" style="fill:#f9f9f9;opacity:1;fill-opacity:1;stroke:none"/>
</svg>
