<svg xmlns="http://www.w3.org/2000/svg" viewBox="0 0 48 48">
 <defs>
  <linearGradient id="linearGradient3764" x1="1" x2="47" gradientUnits="userSpaceOnUse" gradientTransform="matrix(0,-1,1,0,-1.5e-6,47.999998)">
   <stop style="stop-color:#333;stop-opacity:1"/>
   <stop offset="1" style="stop-color:#3d3d3d;stop-opacity:1"/>
  </linearGradient>
 </defs>
 <g>
  
  
  
 </g>
 <g>
  <path d="m 47,24 C 47,46.703 46.703,47 24,47 1.297,47 1,46.703 1,24 1,1.297 1.297,1 24,1 46.703,1 47,1.297 47,24 z" style="fill:url(#linearGradient3764);fill-opacity:1"/>
 </g>
 <g>
  <g>
   <g transform="translate(1,1)">
    <g style="opacity:0.1">
     <!-- color: #3d3d3d -->
     <g>
      <path d="m 17.281 12 c -2.934 0 -5.281 1.867 -5.281 4.188 l 0 13.625 c 0 2.32 2.348 4.188 5.281 4.188 l 13.438 0 c 2.934 0 5.281 -1.867 5.281 -4.188 l 0 -13.625 c 0 -2.32 -2.348 -4.188 -5.281 -4.188 m -12.719 4 l 4 0 l 0 1 l 9 0 c 0.609 0 1 0.422 1 1 l 0 10 c 0 0.594 -0.391 1 -1 1 l -14 0 c -0.586 0 -1 -0.391 -1 -1 l 0 -10 c 0 -0.602 0.324 -1 1 -1 l 1 0 m 12 1 c -0.551 0 -1 0.449 -1 1 c 0 0.551 0.449 1 1 1 c 0.551 0 1 -0.449 1 -1 c 0 -0.551 -0.449 -1 -1 -1 m -6 1 c -2.211 0 -4 1.789 -4 4 c 0 2.211 1.789 4 4 4 c 2.211 0 4 -1.789 4 -4 c 0 -2.211 -1.789 -4 -4 -4 m 0 0" style="fill:#000;fill-opacity:1;stroke:none;fill-rule:nonzero"/>
      <path d="m 16 30 l 15 0 l 3 8 m -18 -8" style="fill:#000;fill-opacity:1;stroke:none;fill-rule:nonzero"/>
     </g>
    </g>
   </g>
  </g>
 </g>
 <g>
  <g>
   <!-- color: #3d3d3d -->
   <g>
    <path d="m 17.281 12 c -2.934 0 -5.281 1.867 -5.281 4.188 l 0 13.625 c 0 2.32 2.348 4.188 5.281 4.188 l 13.438 0 c 2.934 0 5.281 -1.867 5.281 -4.188 l 0 -13.625 c 0 -2.32 -2.348 -4.188 -5.281 -4.188 m -12.719 4 l 4 0 l 0 1 l 9 0 c 0.609 0 1 0.422 1 1 l 0 10 c 0 0.594 -0.391 1 -1 1 l -14 0 c -0.586 0 -1 -0.391 -1 -1 l 0 -10 c 0 -0.602 0.324 -1 1 -1 l 1 0 m 12 1 c -0.551 0 -1 0.449 -1 1 c 0 0.551 0.449 1 1 1 c 0.551 0 1 -0.449 1 -1 c 0 -0.551 -0.449 -1 -1 -1 m -6 1 c -2.211 0 -4 1.789 -4 4 c 0 2.211 1.789 4 4 4 c 2.211 0 4 -1.789 4 -4 c 0 -2.211 -1.789 -4 -4 -4 m 0 0" style="fill:#f9f9f9;fill-opacity:1;stroke:none;fill-rule:nonzero"/>
    <path d="m 16 30 l 15 0 l 3 8 m -18 -8" style="fill:#f9f9f9;fill-opacity:1;stroke:none;fill-rule:nonzero"/>
   </g>
  </g>
 </g>
 <g>
  
 </g>
</svg>
