<svg viewBox="0 0 48 48" xmlns="http://www.w3.org/2000/svg" xmlns:xlink="http://www.w3.org/1999/xlink">
  <linearGradient id="a" gradientTransform="matrix(0 1 -1 0 48 0)" gradientUnits="userSpaceOnUse" x1="1" x2="47">
    <stop offset="0" stop-color="#3a3a3a"/>
    <stop offset="1" stop-color="#303030"/>
  </linearGradient>
  <path d="m47 24c0 22.703-.297 23-23 23-22.703 0-23-.297-23-23 0-22.703.297-23 23-23 22.703 0 23 .297 23 23z" fill="url(#a)"/>
  <path d="m17.531 12l-7.531 13 7.531 13h14.938l7.531-13-7.531-13m-9.406 10h3.938l1.719 3-1.781 3h-3.938l-1.719-3" fill-opacity=".098"/>
  <path d="m9 24l2.852-5 4.504 8h9.645l-3 5h-9.349z" fill="#c5e1a5"/>
  <path d="m30.507 28.898l-2.795-4.898-4.712 8h-9.348l2.875 5h9.305z" fill="#33ac71"/>
  <path d="m26 21h5.555l4.596 8-4.696 8h-5.626l4.667-8.094z" fill="#fff59d"/>
  <path d="m39 24l-2.852 5-4.598-8h-9.551l3-5h9.349z" fill="#fdd835"/>
  <path d="m17.434 19.11l2.834 4.887 4.732-8h9.348l-2.875-5h-9.367z" fill="#eda29b"/>
  <path d="m22 27h-5.66l-4.491-8 4.696-8h5.591l-4.643 8.109z" fill="#db4437"/>
</svg>
