<svg viewBox="0 0 48 48" xmlns="http://www.w3.org/2000/svg" xmlns:xlink="http://www.w3.org/1999/xlink">
  <linearGradient id="a" gradientUnits="userSpaceOnUse" x2="0" y1="47" y2="1">
    <stop offset="0" stop-color="#83c87e"/>
    <stop offset="1" stop-color="#91ce8c"/>
  </linearGradient>
  <path d="m47 24c0 22.703-.297 23-23 23-22.703 0-23-.297-23-23 0-22.703.297-23 23-23 22.703 0 23 .297 23 23z" fill="url(#a)"/>
  <path d="m21 30l9-12-12 9.5-7-5.215c.102-.098 23.98-10.332 24-10.285l-5.5 24m-12.5-1v-5l5 3c .059.035-4.926 2-5 2m0 0" opacity=".1" transform="translate(1 1)"/>
  <path d="m21 30l9-12-12 9.5-7-5.215c.102-.098 23.98-10.332 24-10.285l-5.5 24m-12.5-1v-5l5 3c .059.035-4.926 2-5 2m0 0" fill="#fff"/>
</svg>
