<svg xmlns="http://www.w3.org/2000/svg" viewBox="0 0 48 48">
 <defs>
  <linearGradient id="linearGradient3764" x1="1" x2="47" gradientUnits="userSpaceOnUse" gradientTransform="matrix(0,-1,1,0,-1.5e-6,47.999998)">
   <stop style="stop-color:#e4e4e4;stop-opacity:1"/>
   <stop offset="1" style="stop-color:#eee;stop-opacity:1"/>
  </linearGradient>
 </defs>
 <g>
  
  
  
 </g>
 <g>
  <path d="m 47,24 C 47,46.703 46.703,47 24,47 1.297,47 1,46.703 1,24 1,1.297 1.297,1 24,1 46.703,1 47,1.297 47,24 z" style="fill:url(#linearGradient3764);fill-opacity:1"/>
 </g>
 <g>
  <g>
   <g transform="translate(1,1)">
    <g style="opacity:0.1">
     <!-- color: #eeeeee -->
     <g>
      <path d="m 24 13 c -5.922 0 -10.949 3.641 -13 8.813 l 11 4.125 l 3 -12.906 c -0.332 -0.023 -0.66 -0.031 -1 -0.031 m 1 0.031 c -16.668 23.313 -8.332 11.656 0 0 m 0 0" style="fill:#000;fill-opacity:1;stroke:none;fill-rule:evenodd"/>
      <path d="m 25 13.03 l 1 12.969 l 0.094 0 l 10.906 -4.188 c -1.934 -4.879 -6.52 -8.398 -12 -8.781 m 0 0" style="fill:#000;fill-opacity:1;stroke:none;fill-rule:nonzero"/>
      <path d="m 24 25.02 c -2.762 0 -5 2.238 -5 5 c 0 2.762 2.238 5 5 5 c 2.758 0 5 -2.238 5 -5 c 0 -2.762 -2.242 -5 -5 -5 m 0 3 c 1.105 0 1.996 0.898 1.996 2 c 0 1.105 -0.895 2 -1.996 2 c -1.105 0 -2 -0.898 -2 -2 c 0 -1.105 0.898 -2 2 -2 m 0 0" style="fill:#000;fill-opacity:1;stroke:none;fill-rule:nonzero"/>
     </g>
    </g>
   </g>
  </g>
 </g>
 <g>
  <g>
   <!-- color: #eeeeee -->
   <g>
    <path d="m 24 13 c -5.922 0 -10.949 3.641 -13 8.813 l 11 4.125 l 3 -12.906 c -0.332 -0.023 -0.66 -0.031 -1 -0.031 m 1 0.031 c -16.668 23.313 -8.332 11.656 0 0 m 0 0" style="fill:#76a4fa;fill-opacity:1;stroke:none;fill-rule:evenodd"/>
    <path d="m 25 13.03 l 1 12.969 l 0.094 0 l 10.906 -4.188 c -1.934 -4.879 -6.52 -8.398 -12 -8.781 m 0 0" style="fill:#427fec;fill-opacity:1;stroke:none;fill-rule:nonzero"/>
    <path d="m 24 25.02 c -2.762 0 -5 2.238 -5 5 c 0 2.762 2.238 5 5 5 c 2.758 0 5 -2.238 5 -5 c 0 -2.762 -2.242 -5 -5 -5 m 0 3 c 1.105 0 1.996 0.898 1.996 2 c 0 1.105 -0.895 2 -1.996 2 c -1.105 0 -2 -0.898 -2 -2 c 0 -1.105 0.898 -2 2 -2 m 0 0" style="fill:#999;fill-opacity:1;stroke:none;fill-rule:nonzero"/>
   </g>
  </g>
 </g>
 <g>
  
 </g>
</svg>
