<svg viewBox="0 0 48 48" xmlns="http://www.w3.org/2000/svg" xmlns:xlink="http://www.w3.org/1999/xlink">
  <linearGradient id="a" gradientUnits="userSpaceOnUse" x1="1" x2="47">
    <stop offset="0" stop-color="#826b94"/>
    <stop offset="1" stop-color="#8c779d"/>
  </linearGradient>
  <path d="m24 1c22.703 0 23 .297 23 23 0 22.703-.297 23-23 23-22.703 0-23-.297-23-23 0-22.703.297-23 23-23z" fill="url(#a)" transform="matrix(0 -1 1 0 0 48)"/>
  <path d="m21 15v8h8v-8zm-10 10v8h8v-8zm10 0v8h8v-8zm10 0v8h8v-8z" fill-opacity=".118"/>
  <path d="m20 14h8v8h-8m0-8" fill="#f1b513"/>
  <path d="m28 24v8h-8v-8m8 0" fill="#7ec232"/>
  <path d="m18 24v8h-8v-8m8 0" fill="#dc704b"/>
  <path d="m38 24v8h-8v-8m8 0" fill="#09a7e3"/>
</svg>
