<svg viewBox="0 0 48 48" xmlns="http://www.w3.org/2000/svg" xmlns:xlink="http://www.w3.org/1999/xlink">
  <linearGradient id="a" gradientTransform="matrix(0 -1 1 0 -.0000015 47.999998)" gradientUnits="userSpaceOnUse" x1="1" x2="47">
    <stop offset="0" stop-color="#c33d43"/>
    <stop offset="1" stop-color="#c84c53"/>
  </linearGradient>
  <path d="m47 24c0 22.703-.297 23-23 23-22.703 0-23-.297-23-23 0-22.703.297-23 23-23 22.703 0 23 .297 23 23z" fill="url(#a)"/>
  <g transform="translate(.0002371)">
    <path d="m25.09 15c-1.044-.042-1.871.668-2.498 1.599-1.219 2.063-1.648 3.867-2.519 5.931-.561-1.46-.998-2.962-1.515-4.381-.316-.796-.537-1.358-.927-1.848-1.28-1.625-3.776-1.561-5.073.062-.259.318-.464.77-.526 1.253-.062.483-.017.992.104 1.619.241 1.255.796 3.038 1.779 6.01.636 1.938 1.332 3.816 1.945 5.301.307.743.589 1.383.844 1.896.255.514.41.854.754 1.211l.014-.014c.613.644 1.294 1.101 2.055 1.273.764.173 1.579.004 2.235-.415 1.313-.839 2.158-2.465 2.796-4.727.258-.916.432-1.155.651-1.619.515 1.709 1.012 3.259 1.543 4.263.645 1.218 1.408 2.073 2.457 2.346.671.174 1.399.227 2.09-.042.691-.268 1.25-.806 1.737-1.523.975-1.433 1.831-3.713 3.1-7.509 1.215-3.627 1.866-5.812 1.875-7.453.005-.821-.19-1.584-.692-2.138-.502-.554-1.18-.799-1.875-.941h-.007c-1.087-.212-2.295.264-3 1.26-1.279 2.249-1.572 4.087-2.291 6.304-.871-1.982-1.422-4.197-2.595-5.982-.643-.962-1.413-1.695-2.457-1.737" fill-opacity=".098"/>
    <path d="m24.09 14c-1.044-.042-1.871.668-2.498 1.599-1.219 2.063-1.648 3.867-2.519 5.931-.561-1.46-.998-2.962-1.515-4.381-.316-.796-.537-1.358-.927-1.848-1.28-1.625-3.776-1.561-5.073.062-.259.318-.464.77-.526 1.253-.062.483-.017.992.104 1.619.241 1.255.796 3.038 1.779 6.01.636 1.938 1.332 3.816 1.945 5.301.416 1.122 1.01 2.241 1.598 3.107l.004-.014c.523.698 1.304 1.101 2.065 1.273.764.173 1.579.004 2.235-.415 1.313-.839 2.158-2.465 2.796-4.727.258-.916.432-1.155.651-1.619.515 1.709 1.012 3.259 1.543 4.263.645 1.218 1.408 2.073 2.457 2.346.671.174 1.399.227 2.09-.042.691-.268 1.25-.806 1.737-1.523.975-1.433 1.831-3.713 3.1-7.509 1.215-3.627 1.866-5.812 1.875-7.453.005-.821-.19-1.584-.692-2.138-.502-.554-1.18-.799-1.875-.941h-.007c-1.087-.212-2.295.264-3 1.26-1.279 2.249-1.572 4.087-2.291 6.304-.871-1.982-1.422-4.197-2.595-5.982-.643-.962-1.413-1.695-2.457-1.737z" fill="#f9f9f9"/>
    <path d="m17.18 31.961c-.559-.59-2.051-4.203-3.316-8.03-1.961-5.922-2.188-7.121-1.527-7.926.965-1.203 2.594-1.242 3.52-.086.387.48 1.137 2.383 1.668 4.227.535 1.84 1.219 3.359 1.531 3.367.313.004 1.113-1.676 1.781-3.738 2.086-6.453 4.297-6.367 6.582.273.758 2.195 1.566 3.992 1.805 3.992.234 0 .883-1.742 1.441-3.879 1.074-4.094 1.961-5.344 3.578-5.02 2.375.48 2.363 2.027-.055 9.242-2.535 7.555-3.516 9-5.738 8.422-1.309-.34-2.352-2.32-3.605-6.82-.449-1.629-1.367-.598-2.25 2.531-1.207 4.289-3.316 5.637-5.402 3.445m-.012 0" fill="#f90"/>
  </g>
</svg>
