<svg xmlns="http://www.w3.org/2000/svg" viewBox="0 0 48 48">
 <defs>
  <linearGradient id="linearGradient3764" x1="1" x2="47" gradientUnits="userSpaceOnUse" gradientTransform="matrix(0,-1,1,0,-1.5e-6,47.999998)">
   <stop style="stop-color:#f9c117;stop-opacity:1"/>
   <stop offset="1" style="stop-color:#fac82a;stop-opacity:1"/>
  </linearGradient>
 </defs>
 <g>
  
  
  
 </g>
 <g>
  <path d="m 47,24 C 47,46.703 46.703,47 24,47 1.297,47 1,46.703 1,24 1,1.297 1.297,1 24,1 46.703,1 47,1.297 47,24 z" style="fill:url(#linearGradient3764);fill-opacity:1"/>
 </g>
 <g>
  <g>
   <g transform="translate(1,1)">
    <g style="opacity:0.1">
     <!-- color: #fac82a -->
     <g>
      <path d="m 11.969 20 c -0.57 0.027 -0.969 0.176 -0.969 0.781 l 0 12.75 c 0 0.809 0.688 1.469 1.563 1.469 l 22.844 0 c 0.879 0 1.594 -0.66 1.594 -1.469 l 0 -12.75 c 0 -0.809 -0.715 -0.781 -1.594 -0.781 l -22.844 0 c -0.219 0 -0.402 -0.012 -0.594 0 m 18.03 2 l 1.5 1 l -10.5 9.5 l -5 -3.945 l 1 -1.555 l 4 3 m 9 -8" style="fill:#000;fill-opacity:1;stroke:none;fill-rule:nonzero"/>
      <path d="m 15.05 13.402 l -3.25 4.598 l 11.199 0 l 0 -7 l -5.512 0 c -0.809 0 -2.438 2.402 -2.438 2.402 m 9.941 -2.402 l 0 7 l 11.184 0 l -3.25 -4.598 c 0 0 -1.625 -2.402 -2.441 -2.402 m -5.492 0" style="fill:#000;fill-opacity:1;stroke:none;fill-rule:nonzero"/>
     </g>
    </g>
   </g>
  </g>
 </g>
 <g>
  <g>
   <!-- color: #fac82a -->
   <g>
    <path d="m 11.969 20 c -0.57 0.027 -0.969 0.176 -0.969 0.781 l 0 12.75 c 0 0.809 0.688 1.469 1.563 1.469 l 22.844 0 c 0.879 0 1.594 -0.66 1.594 -1.469 l 0 -12.75 c 0 -0.809 -0.715 -0.781 -1.594 -0.781 l -22.844 0 c -0.219 0 -0.402 -0.012 -0.594 0 m 18.03 2 l 1.5 1 l -10.5 9.5 l -5 -3.945 l 1 -1.555 l 4 3 m 9 -8" style="fill:#3e3e3e;fill-opacity:1;stroke:none;fill-rule:nonzero"/>
    <path d="m 15.05 13.402 l -3.25 4.598 l 11.199 0 l 0 -7 l -5.512 0 c -0.809 0 -2.438 2.402 -2.438 2.402 m 9.941 -2.402 l 0 7 l 11.184 0 l -3.25 -4.598 c 0 0 -1.625 -2.402 -2.441 -2.402 m -5.492 0" style="fill:#3e3e3e;fill-opacity:1;stroke:none;fill-rule:nonzero"/>
   </g>
  </g>
 </g>
 <g>
  
 </g>
</svg>
