<svg xmlns="http://www.w3.org/2000/svg" viewBox="0 0 48 48">
 <defs>
  <linearGradient id="linearGradient3764" x1="1" x2="47" gradientUnits="userSpaceOnUse" gradientTransform="matrix(0,-1,1,0,-1.5e-6,47.999998)">
   <stop style="stop-color:#3d3d3d;stop-opacity:1"/>
   <stop offset="1" style="stop-color:#474747;stop-opacity:1"/>
  </linearGradient>
 </defs>
 <g>
  
  
  
 </g>
 <g>
  <path d="m 47,24 C 47,46.703 46.703,47 24,47 1.297,47 1,46.703 1,24 1,1.297 1.297,1 24,1 46.703,1 47,1.297 47,24 z" style="fill:url(#linearGradient3764);fill-opacity:1"/>
 </g>
 <g>
  
 </g>
 <g transform="translate(0,0.003906)">
  <g>
   <g transform="translate(1,1)">
    <g style="opacity:0.1">
     <!-- color: #67707b -->
     <g>
      <path d="m 9 14.996 c -0.551 0 -1 0.449 -1 1 l 0 2 c 0 0.555 0.449 1 1 1 l 2 0 c 0.551 0 1 -0.445 1 -1 l 0 -2 c 0 -0.551 -0.449 -1 -1 -1 l -2 0 z m 6 0 c -0.551 0 -1 0.449 -1 1 l 0 2 c 0 0.555 0.449 1 1 1 l 2 0 c 0.551 0 1 -0.445 1 -1 l 0 -2 c 0 -0.551 -0.449 -1 -1 -1 l -2 0 z m 6 0 c -0.551 0 -1 0.449 -1 1 l 0 2 c 0 0.555 0.449 1 1 1 l 2 0 c 0.551 0 1 -0.445 1 -1 l 0 -2 c 0 -0.551 -0.449 -1 -1 -1 l -2 0 z m 6 0 c -0.551 0 -1 0.449 -1 1 l 0 2 c 0 0.555 0.449 1 1 1 l 2 0 c 0.551 0 1 -0.445 1 -1 l 0 -2 c 0 -0.551 -0.449 -1 -1 -1 l -2 0 z m 6 0 c -0.551 0 -1 0.449 -1 1 l 0 2 c 0 0.555 0.449 1 1 1 l 2 0 c 0.551 0 1 -0.445 1 -1 l 0 -2 c 0 -0.551 -0.449 -1 -1 -1 l -2 0 z m 6 0 c -0.551 0 -1 0.449 -1 1 l 0 2 c 0 0.555 0.449 1 1 1 l 2 0 c 0.551 0 1 -0.445 1 -1 l 0 -2 c 0 -0.551 -0.449 -1 -1 -1 l -2 0 z m -30 6 c -0.551 0 -1 0.449 -1 1 l 0 2 c 0 0.555 0.449 1 1 1 l 2 0 c 0.551 0 1 -0.445 1 -1 l 0 -2 c 0 -0.551 -0.449 -1 -1 -1 l -2 0 z m 6 0 c -0.551 0 -1 0.449 -1 1 l 0 2 c 0 0.555 0.449 1 1 1 l 2 0 c 0.551 0 1 -0.445 1 -1 l 0 -2 c 0 -0.551 -0.449 -1 -1 -1 l -2 0 z m 6 0 c -0.551 0 -1 0.449 -1 1 l 0 2 c 0 0.555 0.449 1 1 1 l 2 0 c 0.551 0 1 -0.445 1 -1 l 0 -2 c 0 -0.551 -0.449 -1 -1 -1 l -2 0 z m 6 0 c -0.551 0 -1 0.449 -1 1 l 0 2 c 0 0.555 0.449 1 1 1 l 2 0 c 0.551 0 1 -0.445 1 -1 l 0 -2 c 0 -0.551 -0.449 -1 -1 -1 l -2 0 z m 6 0 c -0.551 0 -1 0.449 -1 1 l 0 2 c 0 0.555 0.449 1 1 1 l 2 0 c 0.551 0 1 -0.445 1 -1 l 0 -2 c 0 -0.551 -0.449 -1 -1 -1 l -2 0 z m 6 0 c -0.551 0 -1 0.449 -1 1 l 0 2 c 0 0.555 0.449 1 1 1 l 2 0 c 0.551 0 1 -0.445 1 -1 l 0 -2 c 0 -0.551 -0.449 -1 -1 -1 l -2 0 z m -30 6 c -0.551 0 -1 0.449 -1 1 l 0 2 c 0 0.555 0.449 1 1 1 l 2 0 c 0.551 0 1 -0.445 1 -1 l 0 -2 c 0 -0.551 -0.449 -1 -1 -1 l -2 0 z m 6 0 c -0.551 0 -1 0.449 -1 1 l 0 2 c 0 0.555 0.449 1 1 1 l 2 0 c 0.551 0 1 -0.445 1 -1 l 0 -2 c 0 -0.551 -0.449 -1 -1 -1 l -2 0 z m 6 0 c -0.551 0 -1 0.449 -1 1 l 0 2 c 0 0.555 0.449 1 1 1 l 2 0 c 0.551 0 1 -0.445 1 -1 l 0 -2 c 0 -0.551 -0.449 -1 -1 -1 l -2 0 z m 6 0 c -0.551 0 -1 0.449 -1 1 l 0 2 c 0 0.555 0.449 1 1 1 l 2 0 c 0.551 0 1 -0.445 1 -1 l 0 -2 c 0 -0.551 -0.449 -1 -1 -1 l -2 0 z m 6 0 c -0.551 0 -1 0.449 -1 1 l 0 2 c 0 0.555 0.449 1 1 1 l 2 0 c 0.551 0 1 -0.445 1 -1 l 0 -2 c 0 -0.551 -0.449 -1 -1 -1 l -2 0 z m 6 0 c -0.551 0 -1 0.449 -1 1 l 0 2 c 0 0.555 0.449 1 1 1 l 2 0 c 0.551 0 1 -0.445 1 -1 l 0 -2 c 0 -0.551 -0.449 -1 -1 -1 l -2 0 z m -24 6 c -0.551 0 -1 0.449 -1 1 l 0 2 c 0 0.555 0.449 1 1 1 l 20 0 c 0.551 0 1 -0.445 1 -1 l 0 -2 c 0 -0.551 -0.449 -1 -1 -1 l -20 0 z" transform="translate(-1,-1)" style="fill:#000;fill-opacity:1;stroke:none;fill-rule:nonzero"/>
     </g>
    </g>
   </g>
  </g>
 </g>
 <g transform="translate(0,0.003906)">
  <g>
   <!-- color: #67707b -->
   <g>
    <path d="m 8 13.996 2 0 c 0.551 0 1 0.449 1 1 l 0 2 c 0 0.555 -0.449 1 -1 1 l -2 0 c -0.551 0 -1 -0.445 -1 -1 l 0 -2 c 0 -0.551 0.449 -1 1 -1 m 0 0" style="fill:#ed7868;fill-opacity:1;stroke:none;fill-rule:nonzero"/>
    <path d="m 14 13.996 2 0 c 0.551 0 1 0.449 1 1 l 0 2 c 0 0.555 -0.449 1 -1 1 l -2 0 c -0.551 0 -1 -0.445 -1 -1 l 0 -2 c 0 -0.551 0.449 -1 1 -1 m 0 0" style="fill:#ed7868;fill-opacity:1;stroke:none;fill-rule:nonzero"/>
    <path d="m 20 13.996 2 0 c 0.551 0 1 0.449 1 1 l 0 2 c 0 0.555 -0.449 1 -1 1 l -2 0 c -0.551 0 -1 -0.445 -1 -1 l 0 -2 c 0 -0.551 0.449 -1 1 -1 m 0 0" style="fill:#d992c9;fill-opacity:1;stroke:none;fill-rule:nonzero"/>
    <path d="m 26 13.996 2 0 c 0.551 0 1 0.449 1 1 l 0 2 c 0 0.555 -0.449 1 -1 1 l -2 0 c -0.551 0 -1 -0.445 -1 -1 l 0 -2 c 0 -0.551 0.449 -1 1 -1 m 0 0" style="fill:#d992c9;fill-opacity:1;stroke:none;fill-rule:nonzero"/>
    <path d="m 32 13.996 2 0 c 0.551 0 1 0.449 1 1 l 0 2 c 0 0.555 -0.449 1 -1 1 l -2 0 c -0.551 0 -1 -0.445 -1 -1 l 0 -2 c 0 -0.551 0.449 -1 1 -1 m 0 0" style="fill:#d992c9;fill-opacity:1;stroke:none;fill-rule:nonzero"/>
    <path d="m 38 13.996 2 0 c 0.551 0 1 0.449 1 1 l 0 2 c 0 0.555 -0.449 1 -1 1 l -2 0 c -0.551 0 -1 -0.445 -1 -1 l 0 -2 c 0 -0.551 0.449 -1 1 -1 m 0 0" style="fill:#9ab9dd;fill-opacity:1;stroke:none;fill-rule:nonzero"/>
    <path d="m 8 19.996 2 0 c 0.551 0 1 0.449 1 1 l 0 2 c 0 0.555 -0.449 1 -1 1 l -2 0 c -0.551 0 -1 -0.445 -1 -1 l 0 -2 c 0 -0.551 0.449 -1 1 -1 m 0 0" style="fill:#ed7868;fill-opacity:1;stroke:none;fill-rule:nonzero"/>
    <path d="m 14 19.996 2 0 c 0.551 0 1 0.449 1 1 l 0 2 c 0 0.555 -0.449 1 -1 1 l -2 0 c -0.551 0 -1 -0.445 -1 -1 l 0 -2 c 0 -0.551 0.449 -1 1 -1 m 0 0" style="fill:#f2b477;fill-opacity:1;stroke:none;fill-rule:nonzero"/>
    <path d="m 20 19.996 2 0 c 0.551 0 1 0.449 1 1 l 0 2 c 0 0.555 -0.449 1 -1 1 l -2 0 c -0.551 0 -1 -0.445 -1 -1 l 0 -2 c 0 -0.551 0.449 -1 1 -1 m 0 0" style="fill:#f2b477;fill-opacity:1;stroke:none;fill-rule:nonzero"/>
    <path d="m 26 19.996 2 0 c 0.551 0 1 0.449 1 1 l 0 2 c 0 0.555 -0.449 1 -1 1 l -2 0 c -0.551 0 -1 -0.445 -1 -1 l 0 -2 c 0 -0.551 0.449 -1 1 -1 m 0 0" style="fill:#86dd95;fill-opacity:1;stroke:none;fill-rule:nonzero"/>
    <path d="m 32 19.996 2 0 c 0.551 0 1 0.449 1 1 l 0 2 c 0 0.555 -0.449 1 -1 1 l -2 0 c -0.551 0 -1 -0.445 -1 -1 l 0 -2 c 0 -0.551 0.449 -1 1 -1 m 0 0" style="fill:#86dd95;fill-opacity:1;stroke:none;fill-rule:nonzero"/>
    <path d="m 38 19.996 2 0 c 0.551 0 1 0.449 1 1 l 0 2 c 0 0.555 -0.449 1 -1 1 l -2 0 c -0.551 0 -1 -0.445 -1 -1 l 0 -2 c 0 -0.551 0.449 -1 1 -1 m 0 0" style="fill:#9ab9dd;fill-opacity:1;stroke:none;fill-rule:nonzero"/>
    <path d="m 8 25.996 2 0 c 0.551 0 1 0.449 1 1 l 0 2 c 0 0.555 -0.449 1 -1 1 l -2 0 c -0.551 0 -1 -0.445 -1 -1 l 0 -2 c 0 -0.551 0.449 -1 1 -1 m 0 0" style="fill:#f2b477;fill-opacity:1;stroke:none;fill-rule:nonzero"/>
    <path d="m 14 25.996 2 0 c 0.551 0 1 0.449 1 1 l 0 2 c 0 0.555 -0.449 1 -1 1 l -2 0 c -0.551 0 -1 -0.445 -1 -1 l 0 -2 c 0 -0.551 0.449 -1 1 -1 m 0 0" style="fill:#f3f284;fill-opacity:1;stroke:none;fill-rule:nonzero"/>
    <path d="m 20 25.996 2 0 c 0.551 0 1 0.449 1 1 l 0 2 c 0 0.555 -0.449 1 -1 1 l -2 0 c -0.551 0 -1 -0.445 -1 -1 l 0 -2 c 0 -0.551 0.449 -1 1 -1 m 0 0" style="fill:#f3f284;fill-opacity:1;stroke:none;fill-rule:nonzero"/>
    <path d="m 26 25.996 2 0 c 0.551 0 1 0.449 1 1 l 0 2 c 0 0.555 -0.449 1 -1 1 l -2 0 c -0.551 0 -1 -0.445 -1 -1 l 0 -2 c 0 -0.551 0.449 -1 1 -1 m 0 0" style="fill:#f3f284;fill-opacity:1;stroke:none;fill-rule:nonzero"/>
    <path d="m 32 25.996 2 0 c 0.551 0 1 0.449 1 1 l 0 2 c 0 0.555 -0.449 1 -1 1 l -2 0 c -0.551 0 -1 -0.445 -1 -1 l 0 -2 c 0 -0.551 0.449 -1 1 -1 m 0 0" style="fill:#86dd95;fill-opacity:1;stroke:none;fill-rule:nonzero"/>
    <path d="m 38 25.996 2 0 c 0.551 0 1 0.449 1 1 l 0 2 c 0 0.555 -0.449 1 -1 1 l -2 0 c -0.551 0 -1 -0.445 -1 -1 l 0 -2 c 0 -0.551 0.449 -1 1 -1 m 0 0" style="fill:#9ab9dd;fill-opacity:1;stroke:none;fill-rule:nonzero"/>
    <path d="m 14 31.996 20 0 c 0.551 0 1 0.449 1 1 l 0 2 c 0 0.555 -0.449 1 -1 1 l -20 0 c -0.551 0 -1 -0.445 -1 -1 l 0 -2 c 0 -0.551 0.449 -1 1 -1 m 0 0" style="fill:#ececeb;fill-opacity:1;stroke:none;fill-rule:nonzero"/>
   </g>
  </g>
 </g>
</svg>
