<svg xmlns="http://www.w3.org/2000/svg" viewBox="0 0 48 48">
 <defs>
  <linearGradient id="linearGradient3764" x1="1" x2="47" gradientUnits="userSpaceOnUse" gradientTransform="matrix(0,-1,1,0,-1.5e-6,47.999998)">
   <stop style="stop-color:#3a5f96;stop-opacity:1"/>
   <stop offset="1" style="stop-color:#4068a4;stop-opacity:1"/>
  </linearGradient>
 </defs>
 <g>
  
  
  
 </g>
 <g>
  <path d="m 47,24 C 47,46.703 46.703,47 24,47 1.297,47 1,46.703 1,24 1,1.297 1.297,1 24,1 46.703,1 47,1.297 47,24 z" style="fill:url(#linearGradient3764);fill-opacity:1"/>
 </g>
 <g>
  <g>
   <g transform="translate(1,1)">
    <g style="opacity:0.1">
     <!-- color: #4068a4 -->
     <g>
      <path d="m 13.777 34 l 20.445 0 c 1.777 0 1.777 0 1.777 -1.715 l 0 -14.57 l -12 -7.711 l -12 7.711 l 0 14.57 c 0 1.715 0 1.715 1.781 1.715 m 0 0" style="fill:#000;fill-opacity:1;stroke:none;fill-rule:nonzero"/>
      <path d="m 14 12 l 0 20 l 19.996 0 l 0 -20 m -19.996 0" style="fill:#000;fill-opacity:1;stroke:none;fill-rule:nonzero"/>
      <path d="m 13.777 34 l 20.445 0 c 1.777 0 1.777 0 1.777 -1.68 l 0 -14.316 l -24 14.316 c 0 1.68 0 1.68 1.781 1.68 m -0.004 0" style="fill:#000;fill-opacity:1;stroke:none;fill-rule:nonzero"/>
      <path d="m 34.22 34 l -20.445 0 c -1.781 0 -1.781 0 -1.781 -1.68 l 0 -14.316 l 24 14.316 c 0 1.68 0 1.68 -1.77 1.68 m 0.004 0" style="fill:#000;fill-opacity:1;stroke:none;fill-rule:nonzero"/>
     </g>
    </g>
   </g>
  </g>
 </g>
 <g>
  <g>
   <!-- color: #4068a4 -->
   <g>
    <path d="m 13.777 34 l 20.445 0 c 1.777 0 1.777 0 1.777 -1.715 l 0 -14.57 l -12 -7.711 l -12 7.711 l 0 14.57 c 0 1.715 0 1.715 1.781 1.715 m 0 0" style="fill:#12b900;fill-opacity:1;stroke:none;fill-rule:nonzero"/>
    <path d="m 14 12 l 0 20 l 19.996 0 l 0 -20 m -19.996 0" style="fill:#f9f9f9;fill-opacity:1;stroke:none;fill-rule:nonzero"/>
    <path d="m 13.777 34 l 20.445 0 c 1.777 0 1.777 0 1.777 -1.68 l 0 -14.316 l -24 14.316 c 0 1.68 0 1.68 1.781 1.68 m -0.004 0" style="fill:#28ab19;fill-opacity:1;stroke:none;fill-rule:nonzero"/>
    <path d="m 34.22 34 l -20.445 0 c -1.781 0 -1.781 0 -1.781 -1.68 l 0 -14.316 l 24 14.316 c 0 1.68 0 1.68 -1.77 1.68 m 0.004 0" style="fill:#62b95a;fill-opacity:1;stroke:none;fill-rule:nonzero"/>
   </g>
  </g>
 </g>
 <g>
  
 </g>
</svg>
