<svg viewBox="0 0 48 48" xmlns="http://www.w3.org/2000/svg" xmlns:xlink="http://www.w3.org/1999/xlink">
  <linearGradient id="a" gradientTransform="matrix(0 -1 1 0 -.0000015 47.999998)" gradientUnits="userSpaceOnUse" x1="1" x2="47">
    <stop offset="0" stop-color="#3a5f96"/>
    <stop offset="1" stop-color="#4068a4"/>
  </linearGradient>
  <path d="m47 24c0 22.703-.297 23-23 23-22.703 0-23-.297-23-23 0-22.703.297-23 23-23 22.703 0 23 .297 23 23z" fill="url(#a)"/>
  <g opacity=".1" transform="translate(1 1)">
    <path d="m13.777 34h20.445c1.777 0 1.777 0 1.777-1.715v-14.57l-12-7.711-12 7.711v14.57c0 1.715 0 1.715 1.781 1.715m0 0"/>
    <path d="m14 12v20h19.996v-20m-19.996 0"/>
    <path d="m13.777 34h20.445c1.777 0 1.777 0 1.777-1.68v-14.316l-24 14.316c0 1.68 0 1.68 1.781 1.68m-.004 0"/>
    <path d="m34.22 34h-20.445c-1.781 0-1.781 0-1.781-1.68v-14.316l24 14.316c0 1.68 0 1.68-1.77 1.68m.004 0"/>
  </g>
  <path d="m13.777 34h20.445c1.777 0 1.777 0 1.777-1.715v-14.57l-12-7.711-12 7.711v14.57c0 1.715 0 1.715 1.781 1.715m0 0" fill="#12b900"/>
  <path d="m14 12v20h19.996v-20m-19.996 0" fill="#f9f9f9"/>
  <path d="m13.777 34h20.445c1.777 0 1.777 0 1.777-1.68v-14.316l-24 14.316c0 1.68 0 1.68 1.781 1.68m-.004 0" fill="#28ab19"/>
  <path d="m34.22 34h-20.445c-1.781 0-1.781 0-1.781-1.68v-14.316l24 14.316c0 1.68 0 1.68-1.77 1.68m.004 0" fill="#62b95a"/>
</svg>
