<svg xmlns="http://www.w3.org/2000/svg" viewBox="0 0 48 48">
 <defs>
  <linearGradient id="linearGradient3764" x1="1" x2="47" gradientUnits="userSpaceOnUse" gradientTransform="matrix(0,-1,1,0,-1.5e-6,47.999998)">
   <stop style="stop-color:#e4e4e4;stop-opacity:1"/>
   <stop offset="1" style="stop-color:#eee;stop-opacity:1"/>
  </linearGradient>
 </defs>
 <g>
  
  
  
 </g>
 <g>
  <path d="m 47,24 C 47,46.703 46.703,47 24,47 1.297,47 1,46.703 1,24 1,1.297 1.297,1 24,1 46.703,1 47,1.297 47,24 z" style="fill:url(#linearGradient3764);fill-opacity:1"/>
 </g>
 <g>
  
 </g>
 <path d="M 25,11 18.5,17.5 25,24 31.5,17.5 25,11 Z M 17.5,18.5 11,25 17.5,31.5 24,25 17.5,18.5 Z m 15,0 L 26,25 32.5,31.5 39,25 32.5,18.5 Z M 25,26 18.5,32.5 25,39 31.5,32.5 25,26 Z" style="fill:#000;opacity:0.1;fill-opacity:1;stroke:none"/>
 <rect transform="matrix(0.70710678,0.70710678,-0.70710678,0.70710678,0,0)" y="0.707" x="24.04" height="9.192" width="9.192" style="fill:#d76abf;opacity:1;fill-opacity:1;stroke:none"/>
 <rect width="9.192" height="9.192" x="34.648" y="-9.899" transform="matrix(0.70710678,0.70710678,-0.70710678,0.70710678,0,0)" style="fill:#f3f33f;opacity:1;fill-opacity:1;stroke:none"/>
 <rect transform="matrix(0.70710678,0.70710678,-0.70710678,0.70710678,0,0)" y="0.707" x="34.648" height="9.192" width="9.192" style="fill:#333;opacity:1;fill-opacity:1;stroke:none"/>
 <rect width="9.192" height="9.192" x="24.04" y="-9.899" transform="matrix(0.70710678,0.70710678,-0.70710678,0.70710678,0,0)" style="fill:#12bbda;opacity:1;fill-opacity:1;stroke:none"/>
</svg>
