<svg viewBox="0 0 48 48" xmlns="http://www.w3.org/2000/svg" xmlns:xlink="http://www.w3.org/1999/xlink">
  <linearGradient id="a" gradientTransform="matrix(0 -1 1 0 -.0000015 47.999998)" gradientUnits="userSpaceOnUse" x1="1" x2="47">
    <stop offset="0" stop-color="#27b727"/>
    <stop offset="1" stop-color="#2bc72b"/>
  </linearGradient>
  <path d="m47 24c0 22.703-.297 23-23 23-22.703 0-23-.297-23-23 0-22.703.297-23 23-23 22.703 0 23 .297 23 23z" fill="url(#a)"/>
  <path d="m15 17l-4 4v8l4 4h4v-4h-2l-2-2v-4l2-2h2v-4zm5 0v16h4v-5.287l2.35 5.287h3.65v-16h-4v5.287l-2.35-5.287zm11 0v4h2l2 2v4l-2 2h-2v4h4l4-4v-8l-4-4zm-10 1h2l4 9v-9h2v14h-2l-4-9v9h-2z" opacity=".1"/>
  <path d="m14 16l-4 4v8l4 4h4v-4h-2l-2-2v-4l2-2h2v-4zm5 0v16h4v-5.287l2.35 5.287h3.65v-16h-4v5.287l-2.35-5.287zm11 0v4h2l2 2v4l-2 2h-2v4h4l4-4v-8l-4-4zm-10 1h2l4 9v-9h2v14h-2l-4-9v9h-2z" fill="#2a2a2a"/>
</svg>
