<svg xmlns="http://www.w3.org/2000/svg" viewBox="0 0 48 48">
 <defs>
  <linearGradient id="linearGradient3764" x1="1" x2="47" gradientUnits="userSpaceOnUse" gradientTransform="matrix(0,-1,1,0,-1.5e-6,47.999998)">
   <stop style="stop-color:#27b727;stop-opacity:1"/>
   <stop offset="1" style="stop-color:#2bc72b;stop-opacity:1"/>
  </linearGradient>
 </defs>
 <g>
  
  
  
 </g>
 <g>
  <path d="m 47,24 C 47,46.703 46.703,47 24,47 1.297,47 1,46.703 1,24 1,1.297 1.297,1 24,1 46.703,1 47,1.297 47,24 z" style="fill:url(#linearGradient3764);fill-opacity:1"/>
 </g>
 <g>
  
 </g>
 <path d="m 15 17 -4 4 0 8 4 4 4 0 0 -4 -2 0 -2 -2 0 -4 2 -2 2 0 0 -4 -4 0 z m 5 0 0 16 4 0 0 -5.287 l 2.35 5.287 3.65 0 0 -16 -4 0 0 5.287 -2.35 -5.287 -3.65 0 m 11 0 0 4 2 0 2 2 0 4 -2 2 -2 0 0 4 4 0 4 -4 0 -8 -4 -4 -4 0 z m -10 1 2 0 4 9 0 -9 2 0 0 14 -2 0 -4 -9 0 9 -2 0 0 -14 z" style="fill:#000;opacity:0.1;fill-opacity:1;stroke:none"/>
 <path d="m 14 16 l -4 4 l 0 8 l 4 4 l 4 0 l 0 -4 l -2 0 l -2 -2 l 0 -4 l 2 -2 l 2 0 l 0 -4 l -4 0 z m 5 0 l 0 16 l 4 0 l 0 -5.287 l 2.35 5.287 l 3.65 0 l 0 -16 l -4 0 l 0 5.287 l -2.35 -5.287 l -3.65 0 z m 11 0 l 0 4 l 2 0 l 2 2 l 0 4 l -2 2 l -2 0 l 0 4 l 4 0 l 4 -4 l 0 -8 l -4 -4 l -4 0 z m -10 1 l 2 0 l 4 9 l 0 -9 l 2 0 l 0 14 l -2 0 l -4 -9 l 0 9 l -2 0 l 0 -14 z" style="fill:#2a2a2a;opacity:1;fill-opacity:1;stroke:none"/>
</svg>
