<svg viewBox="0 0 48 48" xmlns="http://www.w3.org/2000/svg" xmlns:xlink="http://www.w3.org/1999/xlink">
  <linearGradient id="a" gradientTransform="matrix(0 -1 1 0 -.0000015 47.999998)" gradientUnits="userSpaceOnUse" x1="1" x2="47">
    <stop offset="0" stop-color="#e4e4e4"/>
    <stop offset="1" stop-color="#eee"/>
  </linearGradient>
  <path d="m47 24c0 22.703-.297 23-23 23-22.703 0-23-.297-23-23 0-22.703.297-23 23-23 22.703 0 23 .297 23 23z" fill="url(#a)"/>
  <g opacity=".1" transform="translate(1 1)">
    <path d="m13.1 12h7.797c.609 0 1.102.559 1.102 1.246v7.512c0 .688-.492 1.242-1.102 1.242h-7.797c-.605 0-1.105-.555-1.105-1.242v-7.512c0-.688.496-1.246 1.105-1.246m0 0"/>
    <path d="m27.1 12h7.797c.609 0 1.102.559 1.102 1.246v7.512c0 .688-.492 1.242-1.102 1.242h-7.797c-.605 0-1.105-.555-1.105-1.242v-7.512c0-.688.496-1.246 1.105-1.246m0 0"/>
    <path d="m13.1 26h7.797c.609 0 1.102.559 1.102 1.246v7.512c0 .684-.492 1.242-1.102 1.242h-7.797c-.605 0-1.105-.559-1.105-1.242v-7.512c0-.688.496-1.246 1.105-1.246m0 0"/>
    <path d="m27.1 26h7.797c.609 0 1.102.559 1.102 1.246v7.512c0 .684-.492 1.242-1.102 1.242h-7.797c-.605 0-1.105-.559-1.105-1.242v-7.512c0-.688.496-1.246 1.105-1.246m0 0"/>
  </g>
  <path d="m13.1 12h7.797c.609 0 1.102.559 1.102 1.246v7.512c0 .688-.492 1.242-1.102 1.242h-7.797c-.605 0-1.105-.555-1.105-1.242v-7.512c0-.688.496-1.246 1.105-1.246m0 0" fill="#ec1a3e"/>
  <path d="m27.1 12h7.797c.609 0 1.102.559 1.102 1.246v7.512c0 .688-.492 1.242-1.102 1.242h-7.797c-.605 0-1.105-.555-1.105-1.242v-7.512c0-.688.496-1.246 1.105-1.246m0 0" fill="#0ac819"/>
  <path d="m13.1 26h7.797c.609 0 1.102.559 1.102 1.246v7.512c0 .684-.492 1.242-1.102 1.242h-7.797c-.605 0-1.105-.559-1.105-1.242v-7.512c0-.688.496-1.246 1.105-1.246m0 0" fill="#e5b700"/>
  <path d="m27.1 26h7.797c.609 0 1.102.559 1.102 1.246v7.512c0 .684-.492 1.242-1.102 1.242h-7.797c-.605 0-1.105-.559-1.105-1.242v-7.512c0-.688.496-1.246 1.105-1.246m0 0" fill="#288dd6"/>
</svg>
