<svg viewBox="0 0 48 48" xmlns="http://www.w3.org/2000/svg" xmlns:xlink="http://www.w3.org/1999/xlink">
  <linearGradient id="a" gradientTransform="matrix(0 -1 1 0 -.0000015 47.999998)" gradientUnits="userSpaceOnUse" x1="1" x2="47">
    <stop offset="0" stop-color="#d8d8d8"/>
    <stop offset="1" stop-color="#e2e2e2"/>
  </linearGradient>
  <path d="m47 24c0 22.703-.297 23-23 23-22.703 0-23-.297-23-23 0-22.703.297-23 23-23 22.703 0 23 .297 23 23z" fill="url(#a)"/>
  <g transform="matrix(3.543307 0 0 3.543307 -.00118111 -.01692832)">
    <rect height="3.387" opacity=".1" rx=".5" width="3.387" x="3.669" y="7.06"/>
    <rect height="3.387" opacity=".1" rx=".5" width="3.387" x="7.06" y="7.06"/>
    <rect height="3.387" opacity=".1" rx=".5" width="3.387" x="5.362" y="3.669"/>
    <rect fill="#d9c30a" height="3.387" rx=".5" width="3.387" x="3.387" y="6.773"/>
    <rect fill="#79cc22" height="3.387" rx=".5" width="3.387" x="6.773" y="6.773"/>
    <rect fill="#31c3d1" height="3.387" rx=".5" width="3.387" x="5.08" y="3.387"/>
  </g>
</svg>
