<svg viewBox="0 0 48 48" xmlns="http://www.w3.org/2000/svg" xmlns:xlink="http://www.w3.org/1999/xlink">
  <linearGradient id="a" gradientTransform="matrix(0 -1 1 0 -.0000015 47.999998)" gradientUnits="userSpaceOnUse" x1="1" x2="47">
    <stop offset="0" stop-color="#e35d66"/>
    <stop offset="1" stop-color="#e66e76"/>
  </linearGradient>
  <path d="m47 24c0 22.703-.297 23-23 23-22.703 0-23-.297-23-23 0-22.703.297-23 23-23 22.703 0 23 .297 23 23z" fill="url(#a)"/>
  <path d="m24 12c-6.648 0-12 5.352-12 12v2c0 6.648 5.352 12 12 12h6v-4h-6c-4.432 0-8-3.568-8-8v-2c0-4.432 3.568-8 8-8h6v-4zm3 6c-2.77 0-5 2.23-5 5v4c0 2.77 2.23 5 5 5h9v-2h-9c-1.662 0-3-1.338-3-3v-1h12v-2h-12v-1c0-1.662 1.338-3 3-3h9v-2z" opacity=".1"/>
  <path d="m23 11c-6.648 0-12 5.352-12 12v2c0 6.648 5.352 12 12 12h6v-4h-6c-4.432 0-8-3.568-8-8v-2c0-4.432 3.568-8 8-8h6v-4zm3 6c-2.77 0-5 2.23-5 5v4c0 2.77 2.23 5 5 5h9v-2h-9c-1.662 0-3-1.338-3-3v-1h12v-2h-12v-1c0-1.662 1.338-3 3-3h9v-2z" fill="#202020"/>
</svg>
