<svg xmlns="http://www.w3.org/2000/svg" viewBox="0 0 48 48">
 <defs>
  <linearGradient id="linearGradient3764" x1="1" x2="47" gradientUnits="userSpaceOnUse" gradientTransform="matrix(0,-1,1,0,-1.5e-6,47.999998)">
   <stop style="stop-color:#e4e4e4;stop-opacity:1"/>
   <stop offset="1" style="stop-color:#eee;stop-opacity:1"/>
  </linearGradient>
 </defs>
 <g>
  
  
  
 </g>
 <g>
  <path d="m 47,24 C 47,46.703 46.703,47 24,47 1.297,47 1,46.703 1,24 1,1.297 1.297,1 24,1 46.703,1 47,1.297 47,24 z" style="fill:url(#linearGradient3764);fill-opacity:1"/>
 </g>
 <g>
  <g>
   <g transform="translate(1,1)">
    <g style="opacity:0.1">
     <!-- color: #eeeeee -->
     <g>
      <path d="m 24.994 12 c -4.427 0.003 -8.01 3.58 -8.01 8 c 0 0.246 0.012 0.488 0.035 0.734 c 1.02 -0.473 2.155 -0.734 3.354 -0.734 c 0.559 0 1.111 0.055 1.639 0.164 c -0.004 -0.055 -0.01 -0.109 -0.01 -0.164 c 0 -1.652 1.344 -2.992 3 -2.992 c 1.652 0 2.996 1.34 2.996 2.992 c 0 0.055 -0.004 0.113 -0.008 0.164 c 0.527 -0.109 1.078 -0.164 1.637 -0.164 c 1.199 0 2.336 0.262 3.355 0.734 c 0.023 -0.242 0.035 -0.488 0.035 -0.734 c 0 -4.416 -3.582 -7.997 -8.01 -8 l -0.004 0 l -0.002 0 z m 0.006 5.426 c -1.426 0 -2.582 1.152 -2.582 2.574 c 0 1.422 1.156 2.574 2.582 2.574 c 1.426 0 2.582 -1.152 2.582 -2.574 c 0 -1.422 -1.156 -2.574 -2.582 -2.574 z m 8 3.307 l -0.006 0.002 c -0.16 1.754 -0.891 3.352 -2 4.598 c 0.977 0.492 1.645 1.504 1.645 2.672 c 0 1.652 -1.34 2.988 -2.996 2.988 c -0.605 0 -1.168 -0.18 -1.641 -0.488 c -0.543 1.645 -1.602 3.05 -2.988 4.03 c 1.309 0.922 2.906 1.465 4.629 1.465 c 4.43 0 8.02 -3.578 8.02 -8 c 0 -3.223 -1.908 -6 -4.662 -7.266 z m -15.994 0.004 c -2.753 1.267 -4.662 4.04 -4.662 7.264 c 0 4.418 3.59 8 8.02 8 c 1.727 0 3.32 -0.543 4.629 -1.465 c -1.387 -0.98 -2.443 -2.39 -2.986 -4.03 c -0.473 0.309 -1.037 0.486 -1.643 0.486 c -1.652 0 -2.996 -1.334 -2.996 -2.986 c 0 -1.168 0.668 -2.182 1.648 -2.674 c -1.117 -1.242 -1.847 -2.838 -2.01 -4.596 z m 3.363 4.689 c -1.426 0 -2.582 1.152 -2.582 2.574 c 0 1.422 1.156 2.574 2.582 2.574 c 1.426 0 2.582 -1.152 2.582 -2.574 c 0 -1.422 -1.156 -2.574 -2.582 -2.574 z m 9.258 0 c -1.426 0 -2.582 1.152 -2.582 2.574 c 0 1.422 1.156 2.574 2.582 2.574 c 1.426 0 2.582 -1.152 2.582 -2.574 c 0 -1.422 -1.156 -2.574 -2.582 -2.574 z" transform="translate(-1,-1)" style="fill:#000;fill-opacity:1;stroke:none;fill-rule:nonzero"/>
     </g>
    </g>
   </g>
  </g>
 </g>
 <g>
  <g>
   <!-- color: #eeeeee -->
   <g>
    <path d="m 32 19.732 l -0.006 0.002 c -0.16 1.754 -0.891 3.352 -2 4.598 c 0.977 0.492 1.645 1.504 1.645 2.672 c 0 1.652 -1.34 2.988 -2.996 2.988 c -0.605 0 -1.168 -0.18 -1.641 -0.488 c -0.543 1.645 -1.602 3.05 -2.988 4.03 c 1.309 0.922 2.906 1.465 4.629 1.465 c 4.43 0 8.02 -3.578 8.02 -8 c 0 -3.223 -1.908 -6 -4.662 -7.266 z m -3.373 4.693 c -1.426 0 -2.582 1.152 -2.582 2.574 c 0 1.422 1.156 2.574 2.582 2.574 c 1.426 0 2.582 -1.152 2.582 -2.574 c 0 -1.422 -1.156 -2.574 -2.582 -2.574 z" style="fill:#2d2d2d;fill-opacity:1;stroke:none;fill-rule:nonzero"/>
    <path d="m 23.994 11 c -4.427 0.003 -8.01 3.58 -8.01 8 c 0 0.246 0.012 0.488 0.035 0.734 c 1.02 -0.473 2.155 -0.734 3.354 -0.734 c 0.559 0 1.111 0.055 1.639 0.164 c -0.004 -0.055 -0.01 -0.109 -0.01 -0.164 c 0 -1.652 1.344 -2.992 3 -2.992 c 1.652 0 2.996 1.34 2.996 2.992 c 0 0.055 -0.004 0.113 -0.008 0.164 c 0.527 -0.109 1.078 -0.164 1.637 -0.164 c 1.199 0 2.336 0.262 3.355 0.734 c 0.023 -0.242 0.035 -0.488 0.035 -0.734 c 0 -4.416 -3.582 -7.997 -8.01 -8 l -0.004 0 l -0.002 0 z m 0.006 5.426 c -1.426 0 -2.582 1.152 -2.582 2.574 c 0 1.422 1.156 2.574 2.582 2.574 c 1.426 0 2.582 -1.152 2.582 -2.574 c 0 -1.422 -1.156 -2.574 -2.582 -2.574 z" style="fill:#a1a1a1;fill-opacity:1;stroke:none;fill-rule:nonzero"/>
    <path d="m 16.01 19.736 c -2.753 1.267 -4.662 4.04 -4.662 7.264 c 0 4.418 3.59 8 8.02 8 c 1.727 0 3.32 -0.543 4.629 -1.465 c -1.387 -0.98 -2.443 -2.39 -2.986 -4.03 c -0.473 0.309 -1.037 0.486 -1.643 0.486 c -1.652 0 -2.996 -1.334 -2.996 -2.986 c 0 -1.168 0.668 -2.182 1.648 -2.674 c -1.117 -1.242 -1.847 -2.838 -2.01 -4.596 z m 3.363 4.689 c -1.426 0 -2.582 1.152 -2.582 2.574 c 0 1.422 1.156 2.574 2.582 2.574 c 1.426 0 2.582 -1.152 2.582 -2.574 c 0 -1.422 -1.156 -2.574 -2.582 -2.574 z" style="fill:#5a5a5a;fill-opacity:1;stroke:none;fill-rule:nonzero"/>
   </g>
  </g>
 </g>
 <g>
  
 </g>
</svg>
