<svg viewBox="0 0 48 48" xmlns="http://www.w3.org/2000/svg" xmlns:xlink="http://www.w3.org/1999/xlink">
  <linearGradient id="a" gradientTransform="matrix(0 -1 1 0 -.0000015 47.999998)" gradientUnits="userSpaceOnUse" x1="1" x2="47">
    <stop offset="0" stop-color="#e4e4e4"/>
    <stop offset="1" stop-color="#eee"/>
  </linearGradient>
  <path d="m47 24c0 22.703-.297 23-23 23-22.703 0-23-.297-23-23 0-22.703.297-23 23-23 22.703 0 23 .297 23 23z" fill="url(#a)"/>
  <path d="m24.994 12c-4.427.003-8.01 3.58-8.01 8 0 .246.012.488.035.734 1.02-.473 2.155-.734 3.354-.734.559 0 1.111.055 1.639.164-.004-.055-.01-.109-.01-.164 0-1.652 1.344-2.992 3-2.992 1.652 0 2.996 1.34 2.996 2.992 0 .055-.004.113-.008.164.527-.109 1.078-.164 1.637-.164 1.199 0 2.336.262 3.355.734.023-.242.035-.488.035-.734 0-4.416-3.582-7.997-8.01-8h-.004-.002zm.006 5.426c-1.426 0-2.582 1.152-2.582 2.574 0 1.422 1.156 2.574 2.582 2.574 1.426 0 2.582-1.152 2.582-2.574 0-1.422-1.156-2.574-2.582-2.574zm8 3.307l-.006.002c-.16 1.754-.891 3.352-2 4.598.977.492 1.645 1.504 1.645 2.672 0 1.652-1.34 2.988-2.996 2.988-.605 0-1.168-.18-1.641-.488-.543 1.645-1.602 3.05-2.988 4.03 1.309.922 2.906 1.465 4.629 1.465 4.43 0 8.02-3.578 8.02-8 0-3.223-1.908-6-4.662-7.266zm-15.994.004c-2.753 1.267-4.662 4.04-4.662 7.264 0 4.418 3.59 8 8.02 8 1.727 0 3.32-.543 4.629-1.465-1.387-.98-2.443-2.39-2.986-4.03-.473.309-1.037.486-1.643.486-1.652 0-2.996-1.334-2.996-2.986 0-1.168.668-2.182 1.648-2.674-1.117-1.242-1.847-2.838-2.01-4.596zm3.363 4.689c-1.426 0-2.582 1.152-2.582 2.574 0 1.422 1.156 2.574 2.582 2.574 1.426 0 2.582-1.152 2.582-2.574 0-1.422-1.156-2.574-2.582-2.574zm9.258 0c-1.426 0-2.582 1.152-2.582 2.574 0 1.422 1.156 2.574 2.582 2.574 1.426 0 2.582-1.152 2.582-2.574 0-1.422-1.156-2.574-2.582-2.574z" opacity=".1" transform=""/>
  <path d="m32 19.732l-.006.002c-.16 1.754-.891 3.352-2 4.598.977.492 1.645 1.504 1.645 2.672 0 1.652-1.34 2.988-2.996 2.988-.605 0-1.168-.18-1.641-.488-.543 1.645-1.602 3.05-2.988 4.03 1.309.922 2.906 1.465 4.629 1.465 4.43 0 8.02-3.578 8.02-8 0-3.223-1.908-6-4.662-7.266zm-3.373 4.693c-1.426 0-2.582 1.152-2.582 2.574 0 1.422 1.156 2.574 2.582 2.574 1.426 0 2.582-1.152 2.582-2.574 0-1.422-1.156-2.574-2.582-2.574z" fill="#2d2d2d"/>
  <path d="m23.994 11c-4.427.003-8.01 3.58-8.01 8 0 .246.012.488.035.734 1.02-.473 2.155-.734 3.354-.734.559 0 1.111.055 1.639.164-.004-.055-.01-.109-.01-.164 0-1.652 1.344-2.992 3-2.992 1.652 0 2.996 1.34 2.996 2.992 0 .055-.004.113-.008.164.527-.109 1.078-.164 1.637-.164 1.199 0 2.336.262 3.355.734.023-.242.035-.488.035-.734 0-4.416-3.582-7.997-8.01-8h-.004-.002zm.006 5.426c-1.426 0-2.582 1.152-2.582 2.574 0 1.422 1.156 2.574 2.582 2.574 1.426 0 2.582-1.152 2.582-2.574 0-1.422-1.156-2.574-2.582-2.574z" fill="#a1a1a1"/>
  <path d="m16.01 19.736c-2.753 1.267-4.662 4.04-4.662 7.264 0 4.418 3.59 8 8.02 8 1.727 0 3.32-.543 4.629-1.465-1.387-.98-2.443-2.39-2.986-4.03-.473.309-1.037.486-1.643.486-1.652 0-2.996-1.334-2.996-2.986 0-1.168.668-2.182 1.648-2.674-1.117-1.242-1.847-2.838-2.01-4.596zm3.363 4.689c-1.426 0-2.582 1.152-2.582 2.574 0 1.422 1.156 2.574 2.582 2.574 1.426 0 2.582-1.152 2.582-2.574 0-1.422-1.156-2.574-2.582-2.574z" fill="#5a5a5a"/>
</svg>
