<svg xmlns="http://www.w3.org/2000/svg" viewBox="0 0 48 48">
 <defs>
  <linearGradient id="linearGradient3764" x1="1" x2="47" gradientUnits="userSpaceOnUse" gradientTransform="matrix(0,-1,1,0,-1.5e-6,47.999998)">
   <stop style="stop-color:#efc429;stop-opacity:1"/>
   <stop offset="1" style="stop-color:#f5cb37;stop-opacity:1"/>
  </linearGradient>
  <radialGradient id="radialGradient4187" cx="24" cy="24" r="15" gradientUnits="userSpaceOnUse">
   <stop style="stop-color:#776e53;stop-opacity:1"/>
   <stop offset="1" style="stop-color:#6f664d;stop-opacity:1"/>
  </radialGradient>
 </defs>
 <g>
  
  
  
 </g>
 <g>
  <path d="m 47,24 C 47,46.703 46.703,47 24,47 1.297,47 1,46.703 1,24 1,1.297 1.297,1 24,1 46.703,1 47,1.297 47,24 z" style="fill:url(#linearGradient3764);fill-opacity:1"/>
 </g>
 <g>
  
 </g>
 <path d="M 23 10 A 13 13 0 0 0 10 23 l 7.266 0 A 8 8 0 0 1 23 17.26 L 23 10 m 4 0 0 7.266 A 8 8 0 0 1 32.74 23 L 40 23 A 13 13 0 0 0 27 10 m -2 10 a 5 5 0 0 0 -5 5 5 5 0 0 0 5 5 5 5 0 0 0 5 -5 5 5 0 0 0 -5 -5 z m -15 7 a 13 13 0 0 0 13 13 l 0 -7.266 A 8 8 0 0 1 17.26 27 L 10 27 m 22.734 0 A 8 8 0 0 1 27 32.74 L 27 40 A 13 13 0 0 0 40 27 l -7.266 0 z" style="fill:#000;opacity:0.1;fill-opacity:1;stroke:none"/>
 <path d="M 22 9 A 13 13 0 0 0 9 22 L 16.266 22 A 8 8 0 0 1 22 16.26 L 22 9 z M 26 9 L 26 16.266 A 8 8 0 0 1 31.74 22 L 39 22 A 13 13 0 0 0 26 9 z M 24 19 A 5 5 0 0 0 19 24 A 5 5 0 0 0 24 29 A 5 5 0 0 0 29 24 A 5 5 0 0 0 24 19 z M 9 26 A 13 13 0 0 0 22 39 L 22 31.734 A 8 8 0 0 1 16.26 26 L 9 26 z M 31.734 26 A 8 8 0 0 1 26 31.74 L 26 39 A 13 13 0 0 0 39 26 L 31.734 26 z" style="fill:url(#radialGradient4187);opacity:1;fill-opacity:1;stroke:none"/>
</svg>
