<svg viewBox="0 0 48 48" xmlns="http://www.w3.org/2000/svg" xmlns:xlink="http://www.w3.org/1999/xlink">
  <linearGradient id="a" gradientTransform="matrix(0 -1 1 0 -.0000015 47.999998)" gradientUnits="userSpaceOnUse" x1="1" x2="47">
    <stop offset="0" stop-color="#e4e4e4"/>
    <stop offset="1" stop-color="#eee"/>
  </linearGradient>
  <path d="m47 24c0 22.703-.297 23-23 23-22.703 0-23-.297-23-23 0-22.703.297-23 23-23 22.703 0 23 .297 23 23z" fill="url(#a)"/>
  <path d="m24.994 12c-4.427.003-8.01 3.58-8.01 8 0 .246.012.488.035.734 1.02-.473 2.155-.734 3.354-.734.559 0 1.111.055 1.639.164-.004-.055-.01-.109-.01-.164 0-1.652 1.344-2.992 3-2.992 1.652 0 2.996 1.34 2.996 2.992 0 .055-.004.113-.008.164.014-.003.029-.003.043-.006l3.936-4.105c-1.377-2.417-3.973-4.051-6.961-4.053h-.004-.002zm8.506 3.9l-10.832 11.299-4.168-4.199-2.5 2.6 6.668 6.4 13.332-13.6zm-8.5 1.525c-1.426 0-2.582 1.152-2.582 2.574 0 1.422 1.156 2.574 2.582 2.574.307 0 .598-.064.871-.162l1.582-1.65c.076-.242.129-.495.129-.762 0-1.422-1.156-2.574-2.582-2.574zm-7.99 3.311c-2.753 1.267-4.662 4.04-4.662 7.264 0 4.418 3.59 8 8.02 8 1.727 0 3.32-.543 4.629-1.465-.669-.473-1.257-1.047-1.752-1.697l-.557.568-2.539-2.438c-1.437-.106-2.583-1.212-2.742-2.633l-2.82-2.707 2.85-2.965c-.217-.612-.364-1.258-.426-1.928m17.322.795l-2.375 2.42c-.28.491-.59.962-.963 1.381.977.492 1.645 1.504 1.645 2.672 0 1.652-1.34 2.988-2.996 2.988-.605 0-1.168-.18-1.641-.488-.543 1.645-1.602 3.049-2.988 4.03 1.309.922 2.906 1.465 4.629 1.465 4.43 0 8.02-3.578 8.02-8 0-2.668-1.318-5.01-3.33-6.467zm-3.943 4.02l-3.199 3.264c.343 1.02 1.299 1.758 2.438 1.758 1.426 0 2.582-1.152 2.582-2.574 0-1.156-.769-2.122-1.82-2.447zm-12.439 3.307c.27.757.881 1.344 1.652 1.586z" opacity=".1"/>
  <path d="m33.33 20.531l-2.375 2.42c-.28.491-.59.962-.963 1.381.977.492 1.645 1.504 1.645 2.672 0 1.652-1.34 2.988-2.996 2.988-.605 0-1.168-.18-1.641-.488-.543 1.645-1.602 3.049-2.988 4.03 1.309.922 2.906 1.465 4.629 1.465 4.43 0 8.02-3.578 8.02-8 0-2.668-1.318-5.01-3.33-6.467zm-3.943 4.02l-3.199 3.264c.343 1.02 1.299 1.758 2.438 1.758 1.426 0 2.582-1.152 2.582-2.574 0-1.156-.769-2.122-1.82-2.447z" fill="#528ef4"/>
  <path d="m23.994 11c-4.427.003-8.01 3.58-8.01 8 0 .246.012.488.035.734 1.02-.473 2.155-.734 3.354-.734.559 0 1.111.055 1.639.164-.004-.055-.01-.109-.01-.164 0-1.652 1.344-2.992 3-2.992 1.652 0 2.996 1.34 2.996 2.992 0 .055-.004.113-.008.164.014-.003.029-.003.043-.006l3.936-4.105c-1.377-2.417-3.973-4.051-6.961-4.053h-.004-.002zm.006 5.426c-1.426 0-2.582 1.152-2.582 2.574 0 1.422 1.156 2.574 2.582 2.574.307 0 .598-.064.871-.162l1.582-1.65c.076-.242.129-.495.129-.762 0-1.422-1.156-2.574-2.582-2.574z" fill="#71d670"/>
  <path d="m16.01 19.736c-2.753 1.267-4.662 4.04-4.662 7.264 0 4.418 3.59 8 8.02 8 1.727 0 3.32-.543 4.629-1.465-.669-.473-1.257-1.047-1.752-1.697l-.557.568-2.539-2.438c-1.437-.106-2.583-1.212-2.742-2.633l-2.82-2.707 2.85-2.965c-.217-.612-.364-1.258-.426-1.928zm.939 8.121c.27.757.881 1.344 1.652 1.586z" fill="#f45252"/>
  <path d="m15 24.6l6.667 6.4 13.333-13.6-2.5-2.5-10.833 11.3-4.167-4.2" fill="#2a2a2a" fill-rule="evenodd"/>
</svg>
