<svg viewBox="0 0 48 48" xmlns="http://www.w3.org/2000/svg" xmlns:xlink="http://www.w3.org/1999/xlink">
  <linearGradient id="a" gradientTransform="matrix(0 -1 1 0 -.0000015 47.999998)" gradientUnits="userSpaceOnUse" x1="1" x2="47">
    <stop offset="0" stop-color="#e4e4e4"/>
    <stop offset="1" stop-color="#eee"/>
  </linearGradient>
  <path d="m47 24c0 22.703-.297 23-23 23-22.703 0-23-.297-23-23 0-22.703.297-23 23-23 22.703 0 23 .297 23 23z" fill="url(#a)"/>
  <path d="m24.06 10.998l-.01.002c-4.426 0-8.02 3.578-8.02 8 0 .246.004.492.027.734.82-.379 1.686-.598 2.643-.68.683-.821 1.957-1.558 2.781-1.891-.027.012.085-.035.313-.113.547-.633 1.352-1.043 2.258-1.043.91 0 1.711.41 2.262 1.043.23.078.316.125.285.113.855.271 1.477.811 2.203 1.406.277-.895.951-.964 1.756-.955h1.383c-.66-3.754-3.926-6.617-7.879-6.617zm-8 8.736h-.006c0 .002 0 .004 0 .006.003-.002.006-.004.01-.006zm-.006.006c-2.748 1.268-4.65 4.04-4.65 7.26 0 4.418 3.59 8 8.02 8 1.727 0 3.316-.543 4.629-1.461-1.047-.742-1.918-1.727-2.52-2.875-.004-.004-.059-.027-.055-.027-.612-.191-.876-.409-1.383-.73-.215.051-.443.086-.678.086-1.656 0-2.994-1.33-2.994-2.986 0-.641.193-1.232.533-1.721-.086-.441-.141-.898-.141-1.383 0-.418.047-.824.113-1.211-.472-.896-.78-1.887-.875-2.951zm7.998-3.301c-.52 0-1.01.133-1.41.398.031-.02.074-.032.227-.064.215-.031.23-.012.172 0 .293-.043.645-.086 1.023-.086.344 0 .637.023.906.059.02-.004.103-.004.271.027.105.023.156.04.199.064-.402-.262-.871-.398-1.383-.398h-.006zm.002 1.16a6.35 6.35 0 0 0-6.352 6.35 6.35 6.35 0 0 0  6.352 6.352 6.35 6.35 0 0 0  6-4.301h-2.02a4.5 4.5 0 0 1-3.986 2.42 4.5 4.5 0 0 1-4.5-4.5 4.5 4.5 0 0 1  4.5-4.5 4.5 4.5 0 0 1  4.146 2.779h-1.797c-.499 0-.9.402-.9.9v.9h5.5v-5.5h-.9c-.499 0-.9.402-.9.9v.855a6.35 6.35 0 0 0-5.148-2.656zm7.949 2.178v.006 5.217h-.789l-.084.307c.004.008-.012.02 0 .031.316.477.527 1.029.527 1.654 0 1.652-1.336 2.988-2.996 2.988-.219 0-.438-.012-.645-.059-.191.125-.391.23-.59.336-.289.156-.602.281-.906.395-.59 1.148-1.438 2.133-2.48 2.875 1.309.926 2.902 1.461 4.633 1.461 4.43 0 8.02-3.578 8.02-8 0-3.164-2.02-5.914-4.689-7.211zm-7.959.527c-.713-.012-1.506.233-1.805.512.465.461 1.094.762 1.805.762.715 0 1.344-.301 1.809-.762-.558-.38-1.166-.433-1.809-.508zm-3.527 4.389c.09.387.246.762.453 1.098.07.113.121.223.172.281.094.125.203.234.34.367.105.098.207.207.34.309.066.055.023.026.063.063.043.035.059.043.086.059-.063-.965-.609-1.781-1.441-2.168l-.012-.008zm6.67.307c-.656.418-.989.983-1.055 1.807.253-.147.448-.384.65-.563.215-.258.427-.582.564-.898l.105-.346h-.266m3.773.85l-.027.113c-.336 1.105-.906 2.113-1.695 2.93-.223.234-.477.445-.727.648.059.004.105.031.168.031 1.426 0 2.566-1.14 2.566-2.563 0-.418-.102-.813-.281-1.156l-.004-.004zm-13.848.035l-.006.002c-.164.336-.258.723-.258 1.125 0 1.422 1.145 2.563 2.566 2.563.055 0 .094-.027.145-.027-.597-.451-.954-.964-1.404-1.523-.23-.328-.43-.648-.59-.988-.164-.332-.316-.697-.426-1.068-.008-.027-.023-.055-.027-.082z" fill-opacity=".098" transform="translate(.999609 .999959)"/>
  <path d="m32 19.784v5.217h-.79l-.083.306c.004.008-.012.02 0 .031.316.477.527 1.031.527 1.656 0 1.652-1.336 2.988-2.996 2.988-.219 0-.438-.012-.645-.059-.191.125-.391.23-.59.336-.289.156-.602.281-.906.395-.59 1.148-1.438 2.133-2.48 2.875 1.309.926 2.902 1.461 4.633 1.461 4.43 0 8.02-3.578 8.02-8 0-3.164-2.02-5.916-4.69-7.212m-4.816 5.224c-.656.418-.99.983-1.056 1.807.253-.147.45-.384.652-.563.215-.258.426-.582.563-.898l.107-.346m3.507.85l-.027.113c-.336 1.105-.906 2.113-1.695 2.93-.223.234-.477.445-.727.648.059.004.105.031.168.031 1.426 0 2.566-1.141 2.566-2.563 0-.418-.102-.813-.281-1.156" fill="#528ef4"/>
  <path d="m24.05 11c-4.426 0-8.02 3.578-8.02 8 0 .246.004.492.027.734.82-.379 1.686-.598 2.643-.68.683-.821 1.956-1.557 2.78-1.89-.027.012.086-.035.313-.113.547-.633 1.352-1.043 2.258-1.043.91 0 1.711.41 2.262 1.043.23.078.316.125.285.113.855.271 1.476.812 2.202 1.407.277-.895.951-.965 1.756-.956h1.383c-.66-3.754-3.926-6.617-7.879-6.617m-.012 5.441c-.52 0-1.01.133-1.41.398.031-.02.074-.031.227-.063.215-.031.23-.012.172 0 .293-.043.645-.086 1.023-.086.344 0 .637.023.906.059.02-.004.105-.004.273.027.105.023.156.039.199.063-.402-.262-.871-.398-1.383-.398m-.014 3.865c-.713-.012-1.506.234-1.805.512.465.461 1.094.762 1.805.762.715 0 1.344-.301 1.809-.762-.558-.38-1.166-.432-1.809-.507" fill="#71d670"/>
  <path d="m16.06 19.734c-2.754 1.266-4.66 4.04-4.66 7.266 0 4.418 3.59 8 8.02 8 1.727 0 3.316-.543 4.629-1.461-1.047-.742-1.918-1.727-2.52-2.875-.004-.004-.059-.027-.055-.027-.612-.191-.876-.409-1.383-.73-.215.051-.441.086-.676.086-1.656 0-2.996-1.332-2.996-2.988 0-.641.195-1.23.535-1.719-.086-.441-.141-.898-.141-1.383 0-.418.047-.824.113-1.211-.473-.898-.781-1.891-.875-2.957m4.462 4.958c.09.387.246.762.453 1.098.07.113.121.223.172.281.094.125.203.234.34.367.105.098.207.207.34.309.066.055.023.027.063.063.043.035.059.043.086.059-.063-.965-.609-1.781-1.441-2.168m-3.422 1.184c-.164.336-.258.723-.258 1.125 0 1.422 1.145 2.563 2.566 2.563.055 0 .094-.027.145-.027-.597-.451-.955-.964-1.405-1.523-.23-.328-.43-.648-.59-.988-.164-.332-.316-.699-.426-1.07-.008-.027-.023-.055-.027-.082" fill="#f45252"/>
  <path d="m24.05 17.6a6.35 6.35 0 0 0-6.351 6.349 6.35 6.35 0 0 0  6.351 6.351 6.35 6.35 0 0 0  6-4.3h-2.01a4.5 4.5 0 0 1-3.99 2.42 4.5 4.5 0 0 1-4.499-4.5 4.5 4.5 0 0 1  4.499-4.5 4.5 4.5 0 0 1  4.15 2.78h-1.8c-.498 0-.9.401-.9.9v.9h5.5v-5.5h-.9c-.499 0-.9.402-.9.9v.856a6.35 6.35 0 0 0-5.15-2.656z" fill="#2a2a2a"/>
</svg>
