<svg viewBox="0 0 48 48" xmlns="http://www.w3.org/2000/svg" xmlns:xlink="http://www.w3.org/1999/xlink">
  <linearGradient id="a" gradientTransform="matrix(0 -1 1 0 -.0000015 47.999998)" gradientUnits="userSpaceOnUse" x1="1" x2="47">
    <stop offset="0" stop-color="#e4e4e4"/>
    <stop offset="1" stop-color="#eee"/>
  </linearGradient>
  <path d="m47 24c0 22.703-.297 23-23 23-22.703 0-23-.297-23-23 0-22.703.297-23 23-23 22.703 0 23 .297 23 23z" fill="url(#a)"/>
  <g opacity=".1" transform="translate(1 1)">
    <path d="m23.926 12.406c-.363 0-.703.027-1.055.063-.277.027-.563.063-.836.109v.023c-.891.156-1.762.395-2.57.742-1.422.605-2.496 1.215-3.582 2.293.328.648.961 1.793 1.375 2.34h-3.176c-.684.996-1.133 1.789-1.504 2.969-.371 1.184-.578 2.449-.578 3.754 0 6.078 4.348 11.129 10.04 12.12v.023c.266.043.547.063.816.09.355.031.703.063 1.074.063h.148c.367 0 .734-.031 1.094-.063.27-.027.527-.047.793-.09v-.023c5.695-.988 10.04-6.04 10.04-12.12 0-1.305-.211-2.574-.578-3.754-.371-1.184-.816-1.973-1.504-2.969h-3.172c.41-.547 1.043-1.688 1.371-2.34-1.09-1.078-2.164-1.691-3.578-2.293-.816-.348-1.684-.586-2.574-.742v-.023c-.281-.047-.551-.078-.836-.109-.344-.035-.699-.063-1.051-.063h-.152"/>
    <path d="m31.3 17.66c1.098-1.457 1.406-2.793 3.543-6.66.879.957 1.102 4.977-.969 6.66m-2.574 0"/>
    <path d="m16.551 17.66c-1.098-1.457-1.406-2.793-3.543-6.66-.879.957-1.102 4.977.969 6.66m2.574 0"/>
  </g>
  <path d="m14.645 21.15h18.711v7.32h-18.711m0-7.32" fill="#2d2d2d"/>
  <path d="m15.402 29.879h17.195v2.77h-17.195m0-2.77" fill="#2d2d2d"/>
  <path d="m15.04 28.523h17.855v1.367h-17.855m0-1.367" fill="#f9f9f9"/>
  <path d="m23.926 12.406c-.363 0-.703.027-1.055.063-.277.027-.563.063-.836.109v.023c-.891.156-1.762.395-2.57.742-1.422.605-2.496 1.215-3.582 2.293.328.648.961 1.793 1.375 2.34h-3.176c-.684.996-1.133 1.789-1.504 2.969-.371 1.184-.578 2.449-.578 3.754 0 6.078 4.348 11.129 10.04 12.12v.023c.266.043.547.063.816.09.355.031.703.063 1.074.063.047 0 .098 0 .148 0 .367 0 .734-.031 1.094-.063.27-.027.527-.047.793-.09v-.023c5.695-.988 10.04-6.04 10.04-12.12 0-1.305-.211-2.574-.578-3.754-.371-1.184-.816-1.973-1.504-2.969h-3.172c.41-.547 1.043-1.688 1.371-2.34-1.09-1.078-2.164-1.691-3.578-2.293-.816-.348-1.684-.586-2.574-.742v-.023c-.281-.047-.551-.078-.836-.109-.344-.035-.699-.063-1.051-.063-.051 0-.102 0-.152 0m-6.504 10.965c.973 0 1.758.801 1.758 1.793 0 .988-.785 1.793-1.758 1.793-.969 0-1.758-.801-1.758-1.793 0-.988.789-1.793 1.758-1.793m13.148 0c .973 0 1.758.801 1.758 1.793 0 .988-.785 1.793-1.758 1.793-.969 0-1.758-.801-1.758-1.793 0-.988.789-1.793 1.758-1.793m-15.313 6.137h17.48v.371h-1.5c-.027 1.293-.898 1.988-1.695 2.754-.809-.879-1.246-1.828-.965-2.754h-9.152c.281.926-.156 1.875-.965 2.754-.801-.766-1.668-1.461-1.695-2.754h-1.5v-.371m-.008 0" fill="#58a235"/>
  <path d="m31.3 17.66c1.098-1.457 1.406-2.793 3.543-6.66.879.957 1.102 4.977-.969 6.66m-2.574 0" fill="#2d2d2d"/>
  <path d="m16.551 17.66c-1.098-1.457-1.406-2.793-3.543-6.66-.879.957-1.102 4.977.969 6.66m2.574 0" fill="#2d2d2d"/>
</svg>
