<svg xmlns="http://www.w3.org/2000/svg" viewBox="0 0 48 48">
 <defs>
  <linearGradient id="linearGradient3764" x1="1" x2="47" gradientUnits="userSpaceOnUse" gradientTransform="matrix(0,-1,1,0,-1.5e-6,47.999998)">
   <stop style="stop-color:#e4e4e4;stop-opacity:1"/>
   <stop offset="1" style="stop-color:#eee;stop-opacity:1"/>
  </linearGradient>
 </defs>
 <g>
  
  
  
 </g>
 <g>
  <path d="m 47,24 C 47,46.703 46.703,47 24,47 1.297,47 1,46.703 1,24 1,1.297 1.297,1 24,1 46.703,1 47,1.297 47,24 z" style="fill:url(#linearGradient3764);fill-opacity:1"/>
 </g>
 <g>
  <g>
   <g transform="translate(1,1)">
    <g style="opacity:0.1">
     <!-- color: #eeeeee -->
     <g>
      <path d="m 22.11 13 c -0.61 0 -1.102 0.558 -1.102 1.246 l 0 5.754 l -6.908 0 c -0.609 0 -1.105 0.554 -1.105 1.242 l 0 7.512 c 0 0.687 0.5 1.246 1.105 1.246 l 6.908 0 l 0 5.758 c 0 0.683 0.493 1.242 1.102 1.242 l 7.793 0 c 0.61 0 1.104 -0.558 1.104 -1.242 l 0 -4.762 l 4.891 0 c 0.61 0 1.102 -0.554 1.102 -1.242 l 0 -7.512 c 0 -0.687 -0.493 -1.242 -1.102 -1.242 l -4.891 0 l 0 -6.754 c 0 -0.687 -0.495 -1.246 -1.104 -1.246 l -7.793 0 z m 0.889 10 l 3.996 0 l 0 4 l -3.996 0 l 0 -4 z" transform="translate(-1,-1)" style="fill:#000;fill-opacity:1;stroke:none;fill-rule:nonzero"/>
     </g>
    </g>
   </g>
  </g>
 </g>
 <g>
  <g>
   <!-- color: #eeeeee -->
   <g>
    <path d="m 27.1 20 l 7.797 0 c 0.609 0 1.102 0.555 1.102 1.242 l 0 7.512 c 0 0.688 -0.492 1.242 -1.102 1.242 l -7.797 0 c -0.605 0 -1.105 -0.555 -1.105 -1.242 l 0 -7.512 c 0 -0.688 0.496 -1.242 1.105 -1.242 m 0 0" style="fill:#0abe18;fill-opacity:1;stroke:none;fill-rule:nonzero"/>
    <path d="m 21.11 26 l 7.793 0 c 0.609 0 1.102 0.559 1.102 1.246 l 0 7.512 c 0 0.684 -0.492 1.242 -1.102 1.242 l -7.793 0 c -0.609 0 -1.102 -0.559 -1.102 -1.242 l 0 -7.512 c 0 -0.688 0.492 -1.246 1.102 -1.246 m 0 0" style="fill:#f7d30b;fill-opacity:1;stroke:none;fill-rule:nonzero"/>
    <path d="m 21.11 12 l 7.793 0 c 0.609 0 1.102 0.559 1.102 1.246 l 0 7.512 c 0 0.688 -0.492 1.242 -1.102 1.242 l -7.793 0 c -0.609 0 -1.102 -0.555 -1.102 -1.242 l 0 -7.512 c 0 -0.688 0.492 -1.246 1.102 -1.246 m 0 0" style="fill:#3192d9;fill-opacity:1;stroke:none;fill-rule:nonzero"/>
    <path d="m 13.1 19 l 7.797 0 c 0.609 0 1.102 0.555 1.102 1.242 l 0 7.512 c 0 0.688 -0.492 1.246 -1.102 1.246 l -7.797 0 c -0.605 0 -1.105 -0.559 -1.105 -1.246 l 0 -7.512 c 0 -0.688 0.496 -1.242 1.105 -1.242 m 0 0" style="fill:#ec1e41;fill-opacity:1;stroke:none;fill-rule:nonzero"/>
   </g>
  </g>
 </g>
 <g>
  
 </g>
</svg>
