<svg xmlns="http://www.w3.org/2000/svg" viewBox="0 0 48 48">
 <defs>
  <linearGradient id="linearGradient3764" x1="1" x2="47" gradientUnits="userSpaceOnUse" gradientTransform="matrix(0,-1,1,0,-1.5e-6,47.999998)">
   <stop style="stop-color:#e4e4e4;stop-opacity:1"/>
   <stop offset="1" style="stop-color:#eee;stop-opacity:1"/>
  </linearGradient>
 </defs>
 <g>
  
  
  
 </g>
 <g>
  <path d="m 47,24 C 47,46.703 46.703,47 24,47 1.297,47 1,46.703 1,24 1,1.297 1.297,1 24,1 46.703,1 47,1.297 47,24 z" style="fill:url(#linearGradient3764);fill-opacity:1"/>
 </g>
 <g>
  <g>
   <g transform="translate(1,1)">
    <g style="opacity:0.1">
     <!-- color: #eeeeee -->
     <g>
      <path d="m 24.934 10 c -1.349 0.006 -2.682 0.195 -3.965 0.555 l 1.41 3.395 c 0.688 -0.163 1.395 -0.247 2.109 -0.279 l -0.564 2.398 c -0.345 0.039 -0.688 0.097 -1.025 0.178 c -4.047 0.97 -6.898 4.591 -6.898 8.752 c 0 4.161 2.852 7.78 6.898 8.752 c 4.047 0.972 8.232 -0.958 10.121 -4.666 l -3.568 -1.818 c -0.852 1.675 -2.572 2.732 -4.451 2.732 c -2.761 0.001 -5 -2.239 -5 -5 c 0 -2.761 2.239 -5 5 -5 c 1.88 0 3.6 1.056 4.453 2.73 l 3.566 -1.816 c -1.364 -2.67 -3.967 -4.485 -6.943 -4.842 l -0.564 -2.398 c 0.694 0.031 1.393 0.108 2.086 0.273 l 1.4 -3.398 c -1.349 -0.375 -2.715 -0.553 -4.064 -0.547 z m 7.43 1.934 l -1.402 3.398 c 1.535 0.941 2.785 2.215 3.691 3.688 l 3.395 -1.41 c -1.309 -2.32 -3.242 -4.305 -5.684 -5.676 z m -14.758 0.02 c -2.316 1.309 -4.301 3.248 -5.672 5.686 l 3.398 1.4 c 0.941 -1.535 2.215 -2.783 3.684 -3.689 l -1.41 -3.396 z m 21.838 9.02 l -3.393 1.408 c 0.398 1.68 0.422 3.465 0.008 5.219 l 3.396 1.402 c 0.75 -2.695 0.707 -5.468 -0.012 -8.03 z m -28.896 0.033 c -0.754 2.695 -0.711 5.464 0.008 8.03 l 3.395 -1.412 c -0.398 -1.68 -0.422 -3.465 -0.004 -5.215 l -3.398 -1.402 z m 24.13 9.957 c -0.941 1.535 -2.215 2.785 -3.684 3.695 l 1.41 3.391 c 2.316 -1.309 4.301 -3.242 5.672 -5.68 l -3.398 -1.406 z m -19.322 0.023 l -3.396 1.41 c 1.309 2.316 3.248 4.301 5.686 5.672 l 1.4 -3.398 c -1.535 -0.941 -2.783 -2.215 -3.689 -3.684 z m 12.271 5.066 c -1.68 0.398 -3.465 0.422 -5.215 0.008 l -1.406 3.396 c 2.699 0.75 5.468 0.707 8.03 -0.012 l -1.408 -3.393 z" transform="translate(-1,-1)" style="fill:#000;fill-opacity:1;stroke:none;fill-rule:nonzero"/>
     </g>
    </g>
   </g>
  </g>
 </g>
 <g>
  <g>
   <!-- color: #eeeeee -->
   <g>
    <path d="m 23.934 9 c -1.349 0.006 -2.682 0.195 -3.965 0.555 l 1.41 3.395 c 1.68 -0.399 3.465 -0.422 5.219 -0.004 l 1.4 -3.398 c -1.349 -0.375 -2.715 -0.553 -4.064 -0.547 z" style="fill:#f88e18;fill-opacity:1;stroke:none;fill-rule:nonzero"/>
    <path d="m 31.363 10.934 l -1.402 3.398 c 1.535 0.941 2.785 2.215 3.691 3.688 l 3.395 -1.41 c -1.309 -2.32 -3.242 -4.305 -5.684 -5.676 z" style="fill:#dc2c2e;fill-opacity:1;stroke:none;fill-rule:nonzero"/>
    <path d="m 37.07 31.367 l -3.398 -1.406 c -0.941 1.535 -2.215 2.785 -3.684 3.695 l 1.41 3.391 c 2.316 -1.309 4.301 -3.242 5.672 -5.68 m 0 0" style="fill:#c66dfb;fill-opacity:1;stroke:none;fill-rule:nonzero"/>
    <path d="m 38.443 19.971 l -3.393 1.408 c 0.398 1.68 0.422 3.465 0.008 5.219 l 3.396 1.402 c 0.75 -2.695 0.707 -5.468 -0.012 -8.03 z" style="fill:#de28b1;fill-opacity:1;stroke:none;fill-rule:nonzero"/>
    <path d="m 16.605 10.953 c -2.316 1.309 -4.301 3.248 -5.672 5.686 l 3.398 1.4 c 0.941 -1.535 2.215 -2.783 3.684 -3.689 l -1.41 -3.396 z" style="fill:#e5d717;fill-opacity:1;stroke:none;fill-rule:nonzero"/>
    <path d="m 26.621 35.05 c -1.68 0.398 -3.465 0.422 -5.215 0.008 l -1.406 3.396 c 2.699 0.75 5.468 0.707 8.03 -0.012 l -1.408 -3.393 z" style="fill:#20b9ce;fill-opacity:1;stroke:none;fill-rule:nonzero"/>
    <path d="m 14.35 29.984 l -3.396 1.41 c 1.309 2.316 3.248 4.301 5.686 5.672 l 1.4 -3.398 c -1.535 -0.941 -2.783 -2.215 -3.689 -3.684 z" style="fill:#20c145;fill-opacity:1;stroke:none;fill-rule:nonzero"/>
    <path d="m 9.547 20 c -0.754 2.695 -0.711 5.464 0.008 8.03 l 3.395 -1.412 c -0.398 -1.68 -0.422 -3.465 -0.004 -5.215 l -3.398 -1.402 z" style="fill:#a2d620;fill-opacity:1;stroke:none;fill-rule:nonzero"/>
   </g>
  </g>
 </g>
 <g>
  
 </g>
 <path d="m 24 10.5 -1.076 4.57 c -0.345 0.039 -0.688 0.097 -1.025 0.178 c -4.047 0.97 -6.898 4.591 -6.898 8.752 c 0 4.161 2.852 7.78 6.898 8.752 4.047 0.972 8.232 -0.958 10.121 -4.666 l -3.568 -1.818 c -0.852 1.675 -2.572 2.732 -4.451 2.732 c -2.761 0.001 -5 -2.239 -5 -5 0 -2.761 2.239 -5 5 -5 1.88 0 3.6 1.056 4.453 2.73 l 3.566 -1.816 c -1.364 -2.67 -3.967 -4.485 -6.943 -4.842 z" style="fill:#9b9b9b;opacity:1;fill-opacity:1;stroke:none"/>
</svg>
