<svg viewBox="0 0 48 48" xmlns="http://www.w3.org/2000/svg" xmlns:xlink="http://www.w3.org/1999/xlink">
  <linearGradient id="a" gradientTransform="matrix(0 -1 1 0 -.0000015 47.999998)" gradientUnits="userSpaceOnUse" x1="1" x2="47">
    <stop offset="0" stop-color="#e4e4e4"/>
    <stop offset="1" stop-color="#eee"/>
  </linearGradient>
  <linearGradient id="b" gradientUnits="userSpaceOnUse" x2="0" y1="36" y2="12">
    <stop offset="0" stop-color="#1b991b"/>
    <stop offset="1" stop-color="#1eaa1e"/>
  </linearGradient>
  <path d="m47 24c0 22.703-.297 23-23 23-22.703 0-23-.297-23-23 0-22.703.297-23 23-23 22.703 0 23 .297 23 23z" fill="url(#a)"/>
  <rect fill-opacity=".098" fill-rule="evenodd" height="24" rx="3" width="24" x="13" y="13"/>
  <rect fill="url(#b)" fill-rule="evenodd" height="24" rx="3" width="24" x="12" y="12"/>
  <path d="m26.622 17.998c-.806-.019-1.587.039-2.24.184-2.441.54-4.324 2.142-5.071 4.316-.392 1.141-.419 3.687-.053 4.85 1.109 3.522 4.656 5.229 9.312 4.479.842-.154 1.64-.452 2.429-.75v-2.865l-.734.395c-2.289 1.119-5.556 1.102-6.841-.957-1.158-1.933-.752-5.03.823-6.264 1.372-1.078 3.959-1.07 6.01.021l.74.393v-2.798l-.615-.288c-1.01-.433-2.419-.683-3.763-.715z" fill-opacity=".098"/>
  <path d="m25.622 16.998c-.806-.019-1.587.039-2.24.184-2.441.54-4.324 2.142-5.071 4.316-.392 1.141-.419 3.687-.053 4.85 1.109 3.522 4.656 5.229 9.312 4.479.842-.154 1.64-.452 2.429-.75v-2.865l-.734.395c-2.289 1.119-5.556 1.102-6.841-.957-1.158-1.933-.752-5.03.823-6.264 1.372-1.078 3.959-1.07 6.01.021l.74.393v-2.798l-.615-.288c-1.01-.433-2.419-.683-3.763-.715z" fill="#ececec"/>
</svg>
