<svg xmlns="http://www.w3.org/2000/svg" viewBox="0 0 48 48">
 <defs>
  <linearGradient id="linearGradient3764" x1="1" x2="47" gradientUnits="userSpaceOnUse" gradientTransform="matrix(0,-1,1,0,-1.5e-6,47.999998)">
   <stop style="stop-color:#e4e4e4;stop-opacity:1"/>
   <stop offset="1" style="stop-color:#eee;stop-opacity:1"/>
  </linearGradient>
  <linearGradient id="linearGradient4228" y1="36" x2="0" y2="12" gradientUnits="userSpaceOnUse">
   <stop style="stop-color:#1b991b;stop-opacity:1"/>
   <stop offset="1" style="stop-color:#1eaa1e;stop-opacity:1"/>
  </linearGradient>
 </defs>
 <g>
  
  
  
 </g>
 <g>
  <path d="m 47,24 C 47,46.703 46.703,47 24,47 1.297,47 1,46.703 1,24 1,1.297 1.297,1 24,1 46.703,1 47,1.297 47,24 z" style="fill:url(#linearGradient3764);fill-opacity:1"/>
 </g>
 <g>
  
 </g>
 <rect rx="3" y="13" x="13" height="24" width="24" style="fill:#000;fill-opacity:0.098;stroke:none;fill-rule:evenodd"/>
 <g>
  <rect rx="3" y="12" x="12" height="24" width="24" style="fill:url(#linearGradient4228);fill-opacity:1;stroke:none;fill-rule:evenodd"/>
  <path d="m 26.622 17.998 c -0.806 -0.019 -1.587 0.039 -2.24 0.184 -2.441 0.54 -4.324 2.142 -5.071 4.316 -0.392 1.141 -0.419 3.687 -0.053 4.85 1.109 3.522 4.656 5.229 9.312 4.479 0.842 -0.154 1.64 -0.452 2.429 -0.75 l 0 -2.865 -0.734 0.395 c -2.289 1.119 -5.556 1.102 -6.841 -0.957 -1.158 -1.933 -0.752 -5.03 0.823 -6.264 1.372 -1.078 3.959 -1.07 6.01 0.021 l 0.74 0.393 0 -2.798 -0.615 -0.288 c -1.01 -0.433 -2.419 -0.683 -3.763 -0.715 z" style="fill:#000;fill-opacity:0.098"/>
  <path d="m 25.622 16.998 c -0.806 -0.019 -1.587 0.039 -2.24 0.184 -2.441 0.54 -4.324 2.142 -5.071 4.316 -0.392 1.141 -0.419 3.687 -0.053 4.85 1.109 3.522 4.656 5.229 9.312 4.479 0.842 -0.154 1.64 -0.452 2.429 -0.75 l 0 -2.865 -0.734 0.395 c -2.289 1.119 -5.556 1.102 -6.841 -0.957 -1.158 -1.933 -0.752 -5.03 0.823 -6.264 1.372 -1.078 3.959 -1.07 6.01 0.021 l 0.74 0.393 0 -2.798 -0.615 -0.288 c -1.01 -0.433 -2.419 -0.683 -3.763 -0.715 z" style="fill:#ececec;fill-opacity:1"/>
 </g>
</svg>
