<svg viewBox="0 0 48 48" xmlns="http://www.w3.org/2000/svg" xmlns:xlink="http://www.w3.org/1999/xlink">
  <linearGradient id="a" gradientUnits="userSpaceOnUse" x2="0" y1="1" y2="47">
    <stop offset="0" stop-color="#5c4e42"/>
    <stop offset="1" stop-color="#50443a"/>
  </linearGradient>
  <path d="m24 1c22.703 0 23 .297 23 23 0 22.703-.297 23-23 23-22.703 0-23-.297-23-23 0-22.703.297-23 23-23z" fill="url(#a)"/>
  <g fill="#3e2e26">
    <path d="m1.027 23h45.952l.015 1h-45.994"/>
    <path d="m1.367 20h45.28l.157 1h-45.606"/>
    <path d="m1.095 26h45.812l-.104 1h-45.607"/>
    <path d="m2.097 17h43.809l.299 1h-44.4"/>
    <path d="m1.551 29h44.899l-.241 1h-44.41z"/>
    <path d="m3.29 14h41.42l.458 1h-42.33"/>
    <path d="m5.03 11h37.921l.657 1h-39.23z"/>
    <path d="m7.488 8h33l .93 1h-34.844"/>
    <path d="m11.04 5h25.925l1.345 1h-28.627"/>
    <path d="m17.278 2h13.469l2.641 1h-18.785"/>
    <path d="m2.433 32h43.14l-.398 1h-42.34"/>
    <path d="m3.813 35h40.38l-.573 1h-39.23"/>
    <path d="m5.757 38h36.489l-.82 1h-34.847"/>
    <path d="m8.542 41h30.949l-1.179 1h-28.6"/>
    <path d="m12.663 44h22.682l-1.956 1h-18.759z"/>
  </g>
  <g fill="#4c4137" transform="translate(1 1)">
    <path d="m .004 23h45.991l-.016 1h-45.948z"/>
    <path d="m .199 20h45.604l.102 1h-45.817"/>
    <path d="m .201 26h45.601l-.155 1h-45.29"/>
    <path d="m .8 17h44.4l.248 1h-44.894z"/>
    <path d="m .797 29h44.41l-.3 1h-43.824"/>
    <path d="m1.833 14h42.34l.395 1h-43.13z"/>
    <path d="m3.377 11h39.23l.591 1h-40.4z"/>
    <path d="m5.57 8h34.853l.809 1-36.469-.004"/>
    <path d="m8.692 5h28.624l1.173 1h-30.971"/>
    <path d="m13.61 2h18.782l1.97 1h-22.718"/>
    <path d="m1.839 32h42.33l-.448 1h-41.43"/>
    <path d="m3.391 35h39.23l-.648 1h-37.936"/>
    <path d="m5.574 38h34.86l-.917 1h-33.03"/>
    <path d="m8.714 41h28.601l-1.366 1h-25.878z"/>
    <path d="m13.624 44h18.748l-2.655 1h-13.417z"/>
  </g>
  <g fill-rule="evenodd" opacity=".1" transform="translate(1)">
    <g transform="translate(0 3)">
      <path d="m11 12v10h8v-3h-5v-4h5v-3z"/>
      <path d="m20 15v10h3v-4h1l2 4h3l-2.5-5h1.5v-5zm3 2h2v2h-2z" transform="translate(0 -3)"/>
      <path d="m29 12v3h3v7h3v-7h3v-3z"/>
    </g>
    <path d="m11 27v10h8v-10z"/>
  </g>
  <g fill="#f9b807" fill-rule="evenodd" transform="translate(0 -1)">
    <g transform="translate(0 3)">
      <path d="m11 12v10h8v-3h-5v-4h5v-3z"/>
      <path d="m20 15v10h3v-4h1l2 4h3l-2.5-5h1.5v-5zm3 2h2v2h-2z" transform="translate(0 -3)"/>
      <path d="m29 12v3h3v7h3v-7h3v-3z"/>
    </g>
    <path d="m11 27v10h8v-10z"/>
  </g>
  <path d="m11 14h8v1h-8z" fill="#f88d06"/>
  <path d="m20 14h8v1h-8z" fill="#f88d06"/>
  <path d="m29 14h9v1h-9z" fill="#f88d06"/>
  <path d="m11 17h3v1h-3z" fill="#f88d06"/>
  <path d="m20 17h3v1h-3z" fill="#f88d06"/>
  <path d="m25 17h3v1h-3z" fill="#f88d06"/>
  <path d="m32 17h3v1h-3z" fill="#f88d06"/>
  <path d="m11 20h3v1h-3z" fill="#f88d06"/>
  <path d="m20 20h3v1h-3z" fill="#f88d06"/>
  <path d="m24 20h3l .5 1h-3z" fill="#f88d06"/>
  <path d="m32 20h3v1h-3z" fill="#f88d06"/>
  <path d="m11 23h8v1h-8z" fill="#f88d06"/>
  <path d="m20 23h3v1h-3z" fill="#f88d06"/>
  <path d="m25.5 23h3l .5 1h-3z" fill="#f88d06"/>
  <path d="m32 23h3v1h-3z" fill="#f88d06"/>
  <path d="m11 26h8v1h-8z" fill="#f88d06"/>
  <path d="m11 29h8v1h-8z" fill="#f88d06"/>
  <path d="m11 32h8v1h-8z" fill="#f88d06"/>
  <path d="m11 35h8v1h-8z" fill="#f88d06"/>
</svg>
