<svg viewBox="0 0 48 48" xmlns="http://www.w3.org/2000/svg" xmlns:xlink="http://www.w3.org/1999/xlink">
  <linearGradient id="a" gradientTransform="matrix(0 -1 1 0 -.0000015 47.999998)" gradientUnits="userSpaceOnUse" x1="1" x2="47">
    <stop offset="0" stop-color="#49b7d3"/>
    <stop offset="1" stop-color="#59bed7"/>
  </linearGradient>
  <path d="m47 24c0 22.703-.297 23-23 23-22.703 0-23-.297-23-23 0-22.703.297-23 23-23 22.703 0 23 .297 23 23z" fill="url(#a)"/>
  <path d="m30.596 12.998c-2.105 0-3.99 1.011-5.158 2.563.828 1.141 1.314 2.552 1.314 4.064 0 .809-.148 1.561-.406 2.279 1.504 1.16 2.828 2.65 4.156 4.096 3.414-.141 6.5-3.203 6.5-6.625 0-3.512-2.863-6.377-6.406-6.377zm-11.182.09c-3.543 0-6.414 2.848-6.414 6.359 0 3.516 2.871 6.363 6.414 6.363 1.311 0 2.528-.391 3.543-1.061l7.41 12.246c.992-.433 2.524-6.498.672-8.908-1.877-2.969-3.761-4.506-5.645-6.357.275-.71.434-1.477.434-2.283 0-3.512-2.871-6.359-6.414-6.359zm11.369 3.787c1.375 0 2.477 1.098 2.477 2.469 0 1.375-1.102 2.5-2.477 2.5-1.371 0-2.5-1.125-2.5-2.5 0-1.371 1.129-2.469 2.5-2.469zm-11.24.135c1.383 0 2.496 1.105 2.496 2.477 0 1.371-1.113 2.479-2.496 2.479-1.383 0-2.516-1.107-2.516-2.479 0-1.371 1.133-2.477 2.516-2.477zm2.66 9c-4.914 2.746-2.965 9.04-1.75 10.988l4.082-6.941z" opacity=".1"/>
  <path d="m29.596 12c-2.105 0-3.99 1.011-5.158 2.563.828 1.141 1.314 2.552 1.314 4.064 0 .809-.148 1.561-.406 2.279 1.504 1.16 2.828 2.65 4.156 4.096 3.414-.141 6.5-3.203 6.5-6.625 0-3.512-2.863-6.377-6.406-6.377zm.188 3.877c1.375 0 2.477 1.098 2.477 2.469 0 1.375-1.102 2.5-2.477 2.5-1.371 0-2.5-1.125-2.5-2.5 0-1.371 1.129-2.469 2.5-2.469z" fill="#2d2d2d"/>
  <path d="m23.535 29.06l-4.082 6.941c-1.215-1.949-3.164-8.242 1.75-10.988m2.332 4.047" fill="#2d2d2d"/>
  <path d="m29.367 36l-8.746-14.457 2.332-2.313c2.363 2.672 4.73 4.133 7.086 7.859 1.852 2.41.32 8.477-.672 8.91m0 0" fill="#2d2d2d"/>
  <path d="m18.414 12.09c-3.543 0-6.414 2.848-6.414 6.359 0 3.516 2.871 6.363 6.414 6.363 3.543 0 6.414-2.848 6.414-6.363 0-3.512-2.871-6.359-6.414-6.359zm.129 3.922c1.383 0 2.496 1.105 2.496 2.477 0 1.371-1.113 2.479-2.496 2.479-1.383 0-2.516-1.107-2.516-2.479 0-1.371 1.133-2.477 2.516-2.477z" fill="#2d2d2d"/>
</svg>
