<svg xmlns="http://www.w3.org/2000/svg" viewBox="0 0 48 48">
 <defs>
  <linearGradient id="linearGradient3764" x1="1" x2="47" gradientUnits="userSpaceOnUse" gradientTransform="matrix(0,-1,1,0,-1.5e-6,47.999998)">
   <stop style="stop-color:#49b7d3;stop-opacity:1"/>
   <stop offset="1" style="stop-color:#59bed7;stop-opacity:1"/>
  </linearGradient>
 </defs>
 <g>
  
  
  
 </g>
 <g>
  <path d="m 47,24 C 47,46.703 46.703,47 24,47 1.297,47 1,46.703 1,24 1,1.297 1.297,1 24,1 46.703,1 47,1.297 47,24 z" style="fill:url(#linearGradient3764);fill-opacity:1"/>
 </g>
 <g>
  <g>
   <g transform="translate(1,1)">
    <g style="opacity:0.1">
     <!-- color: #59bed7 -->
    </g>
   </g>
  </g>
 </g>
 <g>
  <g>
   <!-- color: #59bed7 -->
   <g>
    <path d="m 30.596 12.998 c -2.105 0 -3.99 1.011 -5.158 2.563 0.828 1.141 1.314 2.552 1.314 4.064 0 0.809 -0.148 1.561 -0.406 2.279 1.504 1.16 2.828 2.65 4.156 4.096 3.414 -0.141 6.5 -3.203 6.5 -6.625 0 -3.512 -2.863 -6.377 -6.406 -6.377 z m -11.182 0.09 c -3.543 0 -6.414 2.848 -6.414 6.359 c 0 3.516 2.871 6.363 6.414 6.363 1.311 0 2.528 -0.391 3.543 -1.061 l 7.41 12.246 c 0.992 -0.433 2.524 -6.498 0.672 -8.908 -1.877 -2.969 -3.761 -4.506 -5.645 -6.357 0.275 -0.71 0.434 -1.477 0.434 -2.283 0 -3.512 -2.871 -6.359 -6.414 -6.359 z m 11.369 3.787 c 1.375 0 2.477 1.098 2.477 2.469 0 1.375 -1.102 2.5 -2.477 2.5 -1.371 0 -2.5 -1.125 -2.5 -2.5 0 -1.371 1.129 -2.469 2.5 -2.469 z m -11.24 0.135 c 1.383 0 2.496 1.105 2.496 2.477 0 1.371 -1.113 2.479 -2.496 2.479 -1.383 0 -2.516 -1.107 -2.516 -2.479 0 -1.371 1.133 -2.477 2.516 -2.477 z m 2.66 9 c -4.914 2.746 -2.965 9.04 -1.75 10.988 l 4.082 -6.941 -2.332 -4.047 z" style="fill:#000;opacity:0.1;fill-opacity:1;stroke:none;fill-rule:nonzero"/>
    <path d="m 29.596 12 c -2.105 0 -3.99 1.011 -5.158 2.563 c 0.828 1.141 1.314 2.552 1.314 4.064 c 0 0.809 -0.148 1.561 -0.406 2.279 c 1.504 1.16 2.828 2.65 4.156 4.096 c 3.414 -0.141 6.5 -3.203 6.5 -6.625 c 0 -3.512 -2.863 -6.377 -6.406 -6.377 z m 0.188 3.877 c 1.375 0 2.477 1.098 2.477 2.469 c 0 1.375 -1.102 2.5 -2.477 2.5 c -1.371 0 -2.5 -1.125 -2.5 -2.5 c 0 -1.371 1.129 -2.469 2.5 -2.469 z" style="fill:#2d2d2d;fill-opacity:1;stroke:none;fill-rule:nonzero"/>
    <path d="m 23.535 29.06 l -4.082 6.941 c -1.215 -1.949 -3.164 -8.242 1.75 -10.988 m 2.332 4.047" style="fill:#2d2d2d;fill-opacity:1;stroke:none;fill-rule:nonzero"/>
    <path d="m 29.367 36 l -8.746 -14.457 l 2.332 -2.313 c 2.363 2.672 4.73 4.133 7.086 7.859 c 1.852 2.41 0.32 8.477 -0.672 8.91 m 0 0" style="fill:#2d2d2d;fill-opacity:1;stroke:none;fill-rule:nonzero"/>
    <path d="m 18.414 12.09 c -3.543 0 -6.414 2.848 -6.414 6.359 c 0 3.516 2.871 6.363 6.414 6.363 c 3.543 0 6.414 -2.848 6.414 -6.363 c 0 -3.512 -2.871 -6.359 -6.414 -6.359 z m 0.129 3.922 c 1.383 0 2.496 1.105 2.496 2.477 c 0 1.371 -1.113 2.479 -2.496 2.479 c -1.383 0 -2.516 -1.107 -2.516 -2.479 c 0 -1.371 1.133 -2.477 2.516 -2.477 z" style="fill:#2d2d2d;fill-opacity:1;stroke:none;fill-rule:nonzero"/>
   </g>
  </g>
 </g>
 <g>
  
 </g>
</svg>
