<svg xmlns="http://www.w3.org/2000/svg" viewBox="0 0 48 48">
 <defs>
  <linearGradient id="linearGradient3764" x1="1" x2="47" gradientUnits="userSpaceOnUse" gradientTransform="matrix(0,-1,1,0,-1.5e-6,47.999998)">
   <stop style="stop-color:#dea700;stop-opacity:1"/>
   <stop offset="1" style="stop-color:#f2b700;stop-opacity:1"/>
  </linearGradient>
 </defs>
 <g>
  
  
  
 </g>
 <g>
  <path d="m 47,24 C 47,46.703 46.703,47 24,47 1.297,47 1,46.703 1,24 1,1.297 1.297,1 24,1 46.703,1 47,1.297 47,24 z" style="fill:url(#linearGradient3764);fill-opacity:1"/>
 </g>
 <g>
  <g>
   <g transform="translate(1,1)">
    <g style="opacity:0.1">
     <!-- color: #f2b700 -->
    </g>
   </g>
  </g>
 </g>
 <g>
  <g>
   <!-- color: #f2b700 -->
  </g>
 </g>
 <g>
  
 </g>
 <path d="m 21 10 c -0.554 0 -1 0.446 -1 1 l 0 3 -2 0 c -2.216 0 -4 1.784 -4 4 l 0 2 -3 0 c -0.554 0 -1 0.446 -1 1 0 0.554 0.446 1 1 1 l 3 0 0 2 -3 0 c -0.554 0 -1 0.446 -1 1 0 0.554 0.446 1 1 1 l 3 0 0 2 -3 0 c -0.554 0 -1 0.446 -1 1 0 0.554 0.446 1 1 1 l 3 0 0 2 c 0 2.216 1.784 4 4 4 l 2 0 0 3 c 0 0.554 0.446 1 1 1 0.554 0 1 -0.446 1 -1 l 0 -3 2 0 0 3 c 0 0.554 0.446 1 1 1 0.554 0 1 -0.446 1 -1 l 0 -3 2 0 0 3 c 0 0.554 0.446 1 1 1 0.554 0 1 -0.446 1 -1 l 0 -3 2 0 c 2.216 0 4 -1.784 4 -4 l 0 -2 3 0 c 0.554 0 1 -0.446 1 -1 0 -0.554 -0.446 -1 -1 -1 l -3 0 0 -2 3 0 c 0.554 0 1 -0.446 1 -1 0 -0.554 -0.446 -1 -1 -1 l -3 0 0 -2 3 0 c 0.554 0 1 -0.446 1 -1 0 -0.554 -0.446 -1 -1 -1 l -3 0 0 -2 c 0 -2.216 -1.784 -4 -4 -4 l -2 0 0 -3 c 0 -0.554 -0.446 -1 -1 -1 -0.554 0 -1 0.446 -1 1 l 0 3 -2 0 0 -3 c 0 -0.554 -0.446 -1 -1 -1 -0.554 0 -1 0.446 -1 1 l 0 3 -2 0 0 -3 c 0 -0.554 -0.446 -1 -1 -1 z m -2 6 12 0 c 1.662 0 3 1.338 3 3 l 0 12 c 0 1.662 -1.338 3 -3 3 l -12 0 c -1.662 0 -3 -1.338 -3 -3 l 0 -12 c 0 -1.662 1.338 -3 3 -3 z m 1 2 c -1.108 0 -2 0.892 -2 2 l 0 10 c 0 1.108 0.892 2 2 2 l 10 0 c 1.108 0 2 -0.892 2 -2 l 0 -10 c 0 -1.108 -0.892 -2 -2 -2 l -10 0 z" style="fill:#000;opacity:0.1;fill-opacity:1;stroke:none"/>
 <path d="m 20,9 c -0.554,0 -1,0.446 -1,1 l 0,3 -2,0 c -2.216,0 -4,1.784 -4,4 l 0,2 -3,0 c -0.554,0 -1,0.446 -1,1 0,0.554 0.446,1 1,1 l 3,0 0,2 -3,0 c -0.554,0 -1,0.446 -1,1 0,0.554 0.446,1 1,1 l 3,0 0,2 -3,0 c -0.554,0 -1,0.446 -1,1 0,0.554 0.446,1 1,1 l 3,0 0,2 c 0,2.216 1.784,4 4,4 l 2,0 0,3 c 0,0.554 0.446,1 1,1 0.554,0 1,-0.446 1,-1 l 0,-3 2,0 0,3 c 0,0.554 0.446,1 1,1 0.554,0 1,-0.446 1,-1 l 0,-3 2,0 0,3 c 0,0.554 0.446,1 1,1 0.554,0 1,-0.446 1,-1 l 0,-3 2,0 c 2.216,0 4,-1.784 4,-4 l 0,-2 3,0 c 0.554,0 1,-0.446 1,-1 0,-0.554 -0.446,-1 -1,-1 l -3,0 0,-2 3,0 c 0.554,0 1,-0.446 1,-1 0,-0.554 -0.446,-1 -1,-1 l -3,0 0,-2 3,0 c 0.554,0 1,-0.446 1,-1 0,-0.554 -0.446,-1 -1,-1 l -3,0 0,-2 c 0,-2.216 -1.784,-4 -4,-4 l -2,0 0,-3 C 29,9.446 28.554,9 28,9 27.446,9 27,9.446 27,10 l 0,3 -2,0 0,-3 C 25,9.446 24.554,9 24,9 23.446,9 23,9.446 23,10 l 0,3 -2,0 0,-3 C 21,9.446 20.554,9 20,9 Z m -2,6 12,0 c 1.662,0 3,1.338 3,3 l 0,12 c 0,1.662 -1.338,3 -3,3 l -12,0 c -1.662,0 -3,-1.338 -3,-3 l 0,-12 c 0,-1.662 1.338,-3 3,-3 z m 1,2 c -1.108,0 -2,0.892 -2,2 l 0,10 c 0,1.108 0.892,2 2,2 l 10,0 c 1.108,0 2,-0.892 2,-2 l 0,-10 c 0,-1.108 -0.892,-2 -2,-2 l -10,0 z" style="fill:#f9f9f9;opacity:1;fill-opacity:1;stroke:none"/>
</svg>
