<svg viewBox="0 0 48 48" xmlns="http://www.w3.org/2000/svg" xmlns:xlink="http://www.w3.org/1999/xlink">
  <linearGradient id="a" gradientTransform="matrix(0 -1 1 0 -.0000015 47.999998)" gradientUnits="userSpaceOnUse" x1="1" x2="47">
    <stop offset="0" stop-color="#669034"/>
    <stop offset="1" stop-color="#709f39"/>
  </linearGradient>
  <path d="m47 24c0 22.703-.297 23-23 23-22.703 0-23-.297-23-23 0-22.703.297-23 23-23 22.703 0 23 .297 23 23z" fill="url(#a)"/>
  <path d="m24 12l-13 10v2h2v11c0 .492.484 1 1 1h22c .516 0 1-.508 1-1v-11h2v-2l-13-10zm .5 11c .635 0 1.2.401 1.412 1h1.176c.212-.599.777-1 1.412-1 .635 0 1.2.401 1.412 1h1.176c.212-.599.777-1 1.412-1 .828-.001 1.501.672 1.5 1.5 0 .635-.401 1.2-1 1.412v1.176c.599.212 1 .777 1 1.412 0 .635-.401 1.2-1 1.412v1.176c.599.212 1 .777 1 1.412.001.828-.672 1.501-1.5 1.5-.635 0-1.2-.401-1.412-1h-1.176c-.212.599-.777 1-1.412 1-.635 0-1.2-.401-1.412-1h-1.176c-.212.599-.777 1-1.412 1-.828.001-1.501-.672-1.5-1.5 0-.635.401-1.2 1-1.412v-1.176c-.599-.212-1-.777-1-1.412 0-.635.401-1.2 1-1.412v-1.176c-.599-.212-1-.777-1-1.412-.001-.828.672-1.501 1.5-1.5m1.412 2c-.151.426-.486.761-.912.912v1.176c.426.151.761.486.912.912h1.176c.151-.426.486-.761.912-.912v-1.176c-.426-.151-.761-.486-.912-.912zm4 0c-.151.426-.486.761-.912.912v1.176c.426.151.761.486.912.912h1.176c.151-.426.486-.761.912-.912v-1.176c-.426-.151-.761-.486-.912-.912zm-4 4c-.151.426-.486.761-.912.912v1.176c.426.151.761.486.912.912h1.176c.151-.426.486-.761.912-.912v-1.176c-.426-.151-.761-.486-.912-.912zm4 0c-.151.426-.486.761-.912.912v1.176c.426.151.761.486.912.912h1.176c.151-.426.486-.761.912-.912v-1.176c-.426-.151-.761-.486-.912-.912z" opacity=".1"/>
  <path d="m23 11l-13 10v2h2v11c0 .492.484 1 1 1h22c .516 0 1-.508 1-1v-11h2v-2l-13-10zm .5 11c .635 0 1.2.401 1.412 1h1.176c.212-.599.777-1 1.412-1 .635 0 1.2.401 1.412 1h1.176c.212-.599.777-1 1.412-1 .828-.001 1.501.672 1.5 1.5 0 .635-.401 1.2-1 1.412v1.176c.599.212 1 .777 1 1.412 0 .635-.401 1.2-1 1.412v1.176c.599.212 1 .777 1 1.412.001.828-.672 1.501-1.5 1.5-.635 0-1.2-.401-1.412-1h-1.176c-.212.599-.777 1-1.412 1-.635 0-1.2-.401-1.412-1h-1.176c-.212.599-.777 1-1.412 1-.828.001-1.501-.672-1.5-1.5 0-.635.401-1.2 1-1.412v-1.176c-.599-.212-1-.777-1-1.412 0-.635.401-1.2 1-1.412v-1.176c-.599-.212-1-.777-1-1.412-.001-.828.672-1.501 1.5-1.5zm1.412 2c-.151.426-.486.761-.912.912v1.176c.426.151.761.486.912.912h1.176c.151-.426.486-.761.912-.912v-1.176c-.426-.151-.761-.486-.912-.912zm4 0c-.151.426-.486.761-.912.912v1.176c.426.151.761.486.912.912h1.176c.151-.426.486-.761.912-.912v-1.176c-.426-.151-.761-.486-.912-.912zm-4 4c-.151.426-.486.761-.912.912v1.176c.426.151.761.486.912.912h1.176c.151-.426.486-.761.912-.912v-1.176c-.426-.151-.761-.486-.912-.912zm4 0c-.151.426-.486.761-.912.912v1.176c.426.151.761.486.912.912h1.176c.151-.426.486-.761.912-.912v-1.176c-.426-.151-.761-.486-.912-.912z" fill="#f9f9f9"/>
</svg>
