<svg viewBox="0 0 48 48" xmlns="http://www.w3.org/2000/svg" xmlns:xlink="http://www.w3.org/1999/xlink">
  <linearGradient id="a" gradientTransform="matrix(0 -1 1 0 -.0000015 47.999998)" gradientUnits="userSpaceOnUse" x1="1" x2="47">
    <stop offset="0" stop-color="#cd271f"/>
    <stop offset="1" stop-color="#de2b22"/>
  </linearGradient>
  <path d="m47 24c0 22.703-.297 23-23 23-22.703 0-23-.297-23-23 0-22.703.297-23 23-23 22.703 0 23 .297 23 23z" fill="url(#a)"/>
  <g transform="translate(-.00038356)">
    <path d="m37 11.998c-1.972 0-2.727 1.73-3.467 3.482a11 4 0 0 0-8.533-1.48 11 4 0 0 0-11 4 11 4 0 0 0  2.471 2.523c.615.905-.141 2.299-.926 3.574-2.371.504-3.71 1.661-3.988 2.902.002.001.004.001.006.002-.009.064-.032.141-.031.217-.032.26-.027.523.031.781.247 1.099 1.319 2.129 3.201 2.703.306.526.694 1.023 1.162 1.482l-1.926 4.814h2l1.979-3.297c1.905 1.064 4.352 1.703 7.02 1.703 2.67 0 5.116-.64 7.02-1.705l1.979 3.299h2l-1.926-4.814c.468-.459.854-.957 1.16-1.482 1.884-.574 2.958-1.604 3.205-2.703.058-.258.061-.521.029-.781.001-.076-.02-.154-.029-.219 0 0 .002 0 .002 0-.274-1.225-1.581-2.366-3.891-2.881-.814-1.326-1.588-2.781-.844-3.684a11 4 0 0 0 2.293-2.436 11 4 0 0 0-1.553-2.039c.648-1.6 1.191-3.072 2.553-3.072v-.891zm-22.463 13.742c-.303.64-.483 1.317-.516 2.02-.168-.247-.24-.505-.24-.762 0-.438.249-.873.756-1.26zm21.01.08c.442.367.672.771.672 1.18 0 .254-.071.508-.234.752-.027-.684-.163-1.321-.438-1.932z" opacity=".1"/>
    <path d="m15 23v1c-.334.111-.616.241-.875.375-.904.465-1.344 1.042-1.344 1.625-.66.568-1.45.224-2.223 0 .296-1.321 1.777-2.556 4.441-3" fill="#141414"/>
    <path d="m33 23v1c .334.111.616.241.875.375.904.465 1.344 1.042 1.344 1.625.741 1.018 1.482.314 2.223 0-.296-1.321-1.777-2.556-4.441-3" fill="#141414"/>
    <path d="m35 36h-2l-3-5h3z" fill="#141414"/>
    <path d="m13 36h2l3-5h-3z" fill="#141414"/>
    <path d="m15.063 19.125c1.366.909.255 2.753-.719 4.313-.863 1.059-1.344 2.269-1.344 3.563 0 4.096 4.925 7.406 11 7.406 6.075 0 11-3.31 11-7.406 0-1.097-.268-2.063-.902-3h-.004c-1.023-1.667-2.624-3.906-1-4.906" fill="#232323"/>
    <path d="m12.781 26c0 .341.129.683.438 1 .372.382.961.727 1.781 1v2c-2.666-.444-4.141-1.678-4.438-3-.058-.258-.063-.521-.031-.781-.001-.076.022-.155.031-.219" fill="#141414"/>
    <ellipse cx="24" cy="17" fill="#141414" rx="11" ry="4"/>
    <path d="m35.22 26c0 .341-.129.683-.438 1-.372.382-.961.727-1.781 1v2c2.666-.444 4.141-1.678 4.438-3 .058-.258.063-.521.031-.781.001-.076-.022-.155-.031-.219z" fill="#141414"/>
    <path d="m29 18.11v.889c5 0 4-7.111 7-7.111v-.889c-4 0-3 7.111-7 7.111z" fill="#141414"/>
    <ellipse cx="24" cy="17" fill="#deb748" rx="10" ry="3"/>
    <path d="m24 14a10 3 0 0 0-9.863 2.529c1.993-.499 5.043-.509 9.863-.509 4.827 0 7.876.008 9.869.514a10 3 0 0 0-9.869-2.534" fill="#483f2a" opacity=".5" transform="translate(.0004174)"/>
  </g>
</svg>
