<svg xmlns="http://www.w3.org/2000/svg" viewBox="0 0 48 48">
 <defs>
  <linearGradient id="linearGradient3764" x1="1" x2="47" gradientUnits="userSpaceOnUse" gradientTransform="matrix(0,-1,1,0,-1.5e-6,47.999998)">
   <stop style="stop-color:#1e8a1e;stop-opacity:1"/>
   <stop offset="1" style="stop-color:#229a22;stop-opacity:1"/>
  </linearGradient>
 </defs>
 <g>
  
  
  
 </g>
 <g>
  <path d="m 47,24 C 47,46.703 46.703,47 24,47 1.297,47 1,46.703 1,24 1,1.297 1.297,1 24,1 46.703,1 47,1.297 47,24 z" style="fill:url(#linearGradient3764);fill-opacity:1"/>
 </g>
 <g>
  <g>
   <g transform="translate(1,1)">
    <g style="opacity:0.1">
     <!-- color: #229a22 -->
     <g>
      <path d="m 28.363 13 c -0.643 -0.03 -1.201 0.081 -1.609 0.34 c 0.027 0.02 0.053 0.031 0.076 0.047 l 8.146 5.301 c 0.208 -1.266 -0.984 -3.082 -2.98 -4.379 l -0.002 0 c -1.25 -0.813 -2.558 -1.258 -3.631 -1.309 z m -1.381 1.195 c -0.464 -0.087 -0.951 0.098 -1.221 0.508 l -7.09 10.711 c -0.359 0.543 -0.201 1.281 0.361 1.648 l 0.521 0.336 c 0.559 0.363 1.309 0.219 1.668 -0.328 l 7.09 -10.707 c 0.359 -0.547 0.199 -1.285 -0.363 -1.648 l -0.52 -0.34 c -0.14 -0.091 -0.293 -0.151 -0.447 -0.18 z m 2.91 1.893 c -0.464 -0.088 -0.951 0.1 -1.221 0.51 l -7.092 10.707 c -0.359 0.547 -0.199 1.283 0.363 1.646 l 0.521 0.342 c 0.559 0.363 1.309 0.219 1.668 -0.328 l 7.09 -10.711 c 0.359 -0.543 0.199 -1.281 -0.363 -1.648 l -0.52 -0.336 c -0.14 -0.092 -0.293 -0.152 -0.447 -0.182 z m 2.449 1.896 c -0.302 0.059 -0.58 0.232 -0.76 0.504 l -7.09 10.711 c -0.359 0.547 -0.199 1.285 0.363 1.648 l 0.52 0.336 c 0.559 0.367 1.309 0.219 1.668 -0.324 l 7.09 -10.711 c 0.359 -0.547 0.199 -1.285 -0.363 -1.648 l -0.52 -0.336 c -0.279 -0.184 -0.606 -0.239 -0.908 -0.18 z m -14.582 8.924 l -0.738 10.09 l 9.04 -4.688 l -8.301 -5.402 z" transform="translate(-1,-1)" style="fill:#000;fill-opacity:1;stroke:none;fill-rule:evenodd"/>
     </g>
    </g>
   </g>
  </g>
 </g>
 <g>
  <g>
   <!-- color: #229a22 -->
   <g>
    <path d="m 30.996 13.309 c 1.996 1.297 3.188 3.113 2.98 4.379 l -8.145 -5.301 c -0.023 -0.016 -0.051 -0.027 -0.078 -0.047 c 1.09 -0.691 3.242 -0.332 5.242 0.969 m 0 0" style="fill:#f9f9f9;fill-opacity:1;stroke:none;fill-rule:evenodd"/>
    <path d="m 32.77 17.5 l -0.52 -0.336 c -0.559 -0.367 -1.309 -0.219 -1.668 0.324 l -7.09 10.711 c -0.359 0.547 -0.199 1.285 0.363 1.648 l 0.52 0.336 c 0.559 0.367 1.309 0.219 1.668 -0.324 l 7.09 -10.711 c 0.359 -0.547 0.199 -1.285 -0.363 -1.648 m 0 0" style="fill:#f9f9f9;fill-opacity:1;stroke:none;fill-rule:evenodd"/>
    <path d="m 29.859 15.605 l -0.52 -0.336 c -0.559 -0.367 -1.309 -0.219 -1.668 0.328 l -7.09 10.707 c -0.359 0.547 -0.199 1.285 0.363 1.648 l 0.52 0.34 c 0.559 0.363 1.309 0.219 1.668 -0.328 l 7.09 -10.711 c 0.359 -0.543 0.199 -1.281 -0.363 -1.648 m 0 0" style="fill:#f9f9f9;fill-opacity:1;stroke:none;fill-rule:evenodd"/>
    <path d="m 26.949 13.715 l -0.52 -0.34 c -0.559 -0.363 -1.309 -0.219 -1.668 0.328 l -7.09 10.711 c -0.359 0.543 -0.199 1.281 0.363 1.648 l 0.52 0.336 c 0.559 0.363 1.309 0.219 1.668 -0.328 l 7.09 -10.707 c 0.359 -0.547 0.199 -1.285 -0.363 -1.648 m 0 0" style="fill:#f9f9f9;fill-opacity:1;stroke:none;fill-rule:evenodd"/>
    <path d="m 25.06 31.31 -8.301 -5.402 -0.738 10.09 9.04 -4.688" style="fill:#f9f9f9;fill-opacity:1;stroke:none;fill-rule:evenodd"/>
   </g>
  </g>
 </g>
 <g>
  
 </g>
</svg>
