<svg viewBox="0 0 48 48" xmlns="http://www.w3.org/2000/svg" xmlns:xlink="http://www.w3.org/1999/xlink">
  <linearGradient id="a" gradientTransform="matrix(0 -1 1 0 -.0000015 47.999998)" gradientUnits="userSpaceOnUse" x1="1" x2="47">
    <stop offset="0" stop-color="#1e8a1e"/>
    <stop offset="1" stop-color="#229a22"/>
  </linearGradient>
  <path d="m47 24c0 22.703-.297 23-23 23-22.703 0-23-.297-23-23 0-22.703.297-23 23-23 22.703 0 23 .297 23 23z" fill="url(#a)"/>
  <path d="m28.363 13c-.643-.03-1.201.081-1.609.34.027.02.053.031.076.047l8.146 5.301c.208-1.266-.984-3.082-2.98-4.379h-.002c-1.25-.813-2.558-1.258-3.631-1.309zm-1.381 1.195c-.464-.087-.951.098-1.221.508l-7.09 10.711c-.359.543-.201 1.281.361 1.648l.521.336c.559.363 1.309.219 1.668-.328l7.09-10.707c.359-.547.199-1.285-.363-1.648l-.52-.34c-.14-.091-.293-.151-.447-.18zm2.91 1.893c-.464-.088-.951.1-1.221.51l-7.092 10.707c-.359.547-.199 1.283.363 1.646l.521.342c.559.363 1.309.219 1.668-.328l7.09-10.711c.359-.543.199-1.281-.363-1.648l-.52-.336c-.14-.092-.293-.152-.447-.182zm2.449 1.896c-.302.059-.58.232-.76.504l-7.09 10.711c-.359.547-.199 1.285.363 1.648l.52.336c.559.367 1.309.219 1.668-.324l7.09-10.711c.359-.547.199-1.285-.363-1.648l-.52-.336c-.279-.184-.606-.239-.908-.18zm-14.582 8.924l-.738 10.09 9.04-4.688-8.301-5.402z" fill-rule="evenodd" opacity=".1" transform=""/>
  <path d="m30.996 13.309c1.996 1.297 3.188 3.113 2.98 4.379l-8.145-5.301c-.023-.016-.051-.027-.078-.047 1.09-.691 3.242-.332 5.242.969m0 0" fill="#f9f9f9" fill-rule="evenodd"/>
  <path d="m32.77 17.5l-.52-.336c-.559-.367-1.309-.219-1.668.324l-7.09 10.711c-.359.547-.199 1.285.363 1.648l.52.336c.559.367 1.309.219 1.668-.324l7.09-10.711c.359-.547.199-1.285-.363-1.648m0 0" fill="#f9f9f9" fill-rule="evenodd"/>
  <path d="m29.859 15.605l-.52-.336c-.559-.367-1.309-.219-1.668.328l-7.09 10.707c-.359.547-.199 1.285.363 1.648l.52.34c.559.363 1.309.219 1.668-.328l7.09-10.711c.359-.543.199-1.281-.363-1.648m0 0" fill="#f9f9f9" fill-rule="evenodd"/>
  <path d="m26.949 13.715l-.52-.34c-.559-.363-1.309-.219-1.668.328l-7.09 10.711c-.359.543-.199 1.281.363 1.648l.52.336c.559.363 1.309.219 1.668-.328l7.09-10.707c.359-.547.199-1.285-.363-1.648m0 0" fill="#f9f9f9" fill-rule="evenodd"/>
  <path d="m25.06 31.31l-8.301-5.402-.738 10.09 9.04-4.688" fill="#f9f9f9" fill-rule="evenodd"/>
</svg>
