<svg xmlns="http://www.w3.org/2000/svg" viewBox="0 0 48 48">
 <defs>
  <linearGradient id="linearGradient3764" x1="1" x2="47" gradientUnits="userSpaceOnUse" gradientTransform="matrix(0,-1,1,0,-1.5e-6,47.999998)">
   <stop style="stop-color:#e4e4e4;stop-opacity:1"/>
   <stop offset="1" style="stop-color:#eee;stop-opacity:1"/>
  </linearGradient>
 </defs>
 <g>
  
  
  
 </g>
 <g>
  <path d="m 47,24 C 47,46.703 46.703,47 24,47 1.297,47 1,46.703 1,24 1,1.297 1.297,1 24,1 46.703,1 47,1.297 47,24 z" style="fill:url(#linearGradient3764);fill-opacity:1"/>
 </g>
 <g>
  <g>
   <g transform="translate(1,1)">
    <g style="opacity:0.1">
     <!-- color: #eeeeee -->
     <g>
      <path d="m 26.438 8.508 c 1.114 2.094 2.01 4.063 2.684 5.904 c -1.392 -0.083 -2.727 -0.135 -3.939 -0.115 l 0.008 -0.016 c -13.352 0.223 -15.765 6.75 -7.313 19.563 c 0.797 -0.141 1.559 -0.289 2.273 -0.469 c -2.529 -8.903 0.716 -14.482 9.691 -16.738 c 3.228 11.355 -2.901 17.309 -18.404 17.852 c 2.729 0.454 5.234 0.778 7.527 0.98 c 1.32 1.882 2.835 3.893 4.588 6.03 c -1.105 -2.082 -2.01 -4.04 -2.686 -5.875 c -0.485 -0.027 -0.989 -0.075 -1.496 -0.121 c 18 1.485 22.272 -4.96 12.781 -19.35 c 1.926 -0.333 4.04 -0.555 6.404 -0.635 c -2.72 -0.452 -5.215 -0.771 -7.502 -0.973 c -1.323 -1.887 -2.858 -3.896 -4.617 -6.04 z" transform="translate(-1,-1)"/>
     </g>
    </g>
   </g>
  </g>
 </g>
 <g>
  <g>
   <!-- color: #eeeeee -->
   <g>
    <path d="m 25.438 7.508 c 18.09 21.992 13.09 30.652 -15 25.98 c 18.859 -0.66 23.859 -9.32 15 -25.98 m 0 0" style="fill:#ffb911;fill-opacity:1;stroke:none;fill-rule:nonzero"/>
    <path d="m 24.19 13.281 c -13.352 0.223 -15.766 6.75 -7.313 19.563 c 0.797 -0.141 1.559 -0.289 2.273 -0.469 c -3.227 -11.359 2.902 -17.332 18.406 -17.859 c -5.27 -0.875 -9.727 -1.277 -13.375 -1.219 m -6.219 21.17 c 1.32 1.883 2.836 3.895 4.59 6.03 c -1.105 -2.082 -2.01 -4.04 -2.684 -5.875 c -0.617 -0.035 -1.254 -0.098 -1.906 -0.156 m 0 0" style="fill:#0ad;fill-opacity:1;stroke:none;fill-rule:nonzero"/>
   </g>
  </g>
 </g>
 <g>
  
 </g>
</svg>
