<svg viewBox="0 0 48 48" xmlns="http://www.w3.org/2000/svg" xmlns:xlink="http://www.w3.org/1999/xlink">
  <linearGradient id="a" gradientTransform="matrix(0 -1 1 0 -.0000015 48)" gradientUnits="userSpaceOnUse" x1="1" x2="47">
    <stop offset="0" stop-color="#a0beff"/>
    <stop offset="1" stop-color="#b5ccff"/>
  </linearGradient>
  <path d="m36.31 5c5.859 4.062 9.688 10.831 9.688 18.5 0 12.426-10.07 22.5-22.5 22.5-7.669 0-14.438-3.828-18.5-9.688 1.037 1.822 2.306 3.499 3.781 4.969 4.085 3.712 9.514 5.969 15.469 5.969 22.703 0 23-10.298 23-23 0-5.954-2.256-11.384-5.969-15.469-1.469-1.475-3.147-2.744-4.969-3.781zm4.969 3.781c3.854 4.113 6.219 9.637 6.219 15.719 0 22.703-.297 23-23 23-6.081 0-11.606-2.364-15.719-6.219 4.16 4.144 9.883 6.719 16.219 6.719 22.703 0 23-10.298 23-23 0-6.335-2.575-12.06-6.719-16.219z" opacity=".05"/>
  <path d="m41.28 8.781c3.712 4.085 5.969 9.514 5.969 15.469 0 22.703-.297 23-23 23-5.954 0-11.384-2.256-15.469-5.969 4.113 3.854 9.637 6.219 15.719 6.219 22.703 0 23-10.298 23-23 0-6.081-2.364-11.606-6.219-15.719z" opacity=".1"/>
  <path d="m31.25 2.375c8.615 3.154 14.75 11.417 14.75 21.13 0 12.426-10.07 22.5-22.5 22.5-9.708 0-17.971-6.135-21.12-14.75a23 23 0 0 0 44.875-7 23 23 0 0 0-16-21.875z" opacity=".2"/>
  <path d="m24 1c22.703 0 23 .297 23 23s-.297 23-23 23-23-.297-23-23 .297-23 23-23z" fill="url(#a)"/>
  <g transform="translate(2 1)">
    <path d="m16 10c-2.675 0-3.744 1.566-3.957 4h-.6c-.244 0-.443.199-.443.443v8.113c0 .244.199.443.443.443h2.557v13c0 0 0 1 1 1h18c0 0 .996 0 .996-1v-3h1.441c0 0 .564-.328.564-2 0-1.609-.625-1.996-.625-1.996h-1.381v-8l-8-8c-2.067-.002-3.946-.002-6.123-.002-.297-1.855-1.226-3-3.873-3m0 1c1.727 0 2.488.736 2.801 2-1.273 0-3.02-.002-3.801-.002 0 0-1 0-1 1h-.959c.153-1.833.828-3 2.959-3" opacity=".1"/>
    <path d="m14 12c0 0-1 0-1 1v22c0 0 0 1 1 1h18c0 0 .996 0 .996-1v-14.996l-8-8c-3.712-.004-8.742-.004-10.996-.004m0 .004" fill="#f9f9f9"/>
    <path d="m18 21v1h10v-1m-10 0" fill="#aaa"/>
    <path d="m18 23v1h10v-1m-10 0" fill="#aaa"/>
    <path d="m18 25v1h10v-1m-10 0" fill="#aaa"/>
    <path d="m33 20l-8-8c-.004 4 0 6 0 7 0 1 0 1 1 1 1 0 4.098.008 7 0" fill="#dedede"/>
  </g>
  <g transform="translate(2 1)">
    <path d="m18.964 28h13.773v4h-13.773m0-4" fill="#dd8a4c"/>
    <path d="m32 28v4h2.438c0 0 .563-.328.563-2 0-1.609-.625-1.996-.625-1.996h-2.371m-.005-.004" fill="#e22852"/>
    <path d="m19 28l-4 1.996 4 2v-4m0 .004" fill="#e5c789"/>
    <path d="m17 28.984l-2 1.016 2 1.02m0-2.035" fill="#2d2d2d"/>
  </g>
  <g transform="matrix(.49998 0 0 .49998 5.00028 5.5004)">
    <path d="m14.887 17h18.227c.488 0 .887.398.887.887v16.227c0 .488-.398.887-.887.887h-18.227c-.488 0-.887-.398-.887-.887v-16.227c0-.488.398-.887.887-.887" fill="#eec84a"/>
    <path d="m14.887 17h18.227c.488 0 .887.511.887 1v2c0 .488-.398 1-.887 1h-18.227c-.488 0-.887-.511-.887-1v-2c0-.488.398-1 .887-1" fill="#d4b142"/>
    <path d="m17 17c-.552 0-1 .448-1 1 0 .319.159.59.391.773l-.891 2.227h3l-.891-2.227c.232-.183.391-.455.391-.773 0-.552-.448-1-1-1z" fill="#705d22" transform="matrix(2.00008 0 0 2.00008 -10.00096 -11.00124)"/>
    <path d="m19 19c0 .554-.896 1-2 1-1.104 0-2-.446-2-1 0-.554.896-1 2-1 1.104 0 2 .446 2 1" fill="#4a4a4a"/>
    <path d="m33 19c0 .554-.896 1-2 1-1.104 0-2-.446-2-1 0-.554.896-1 2-1 1.104 0 2 .446 2 1" fill="#4a4a4a"/>
    <path d="m16 19c0-6 1.948-10 8-10 7 0 8 4 8 10h-2c0-4.972-.999-8-6-8-4.999 0-6 3.191-6 8" fill="#e4e4e4"/>
  </g>
</svg>
