<svg viewBox="0 0 48 48" xmlns="http://www.w3.org/2000/svg" xmlns:xlink="http://www.w3.org/1999/xlink">
  <linearGradient id="a" gradientTransform="matrix(0 -1 1 0 -.0000015 47.999998)" gradientUnits="userSpaceOnUse" x1="1" x2="47">
    <stop offset="0" stop-color="#2883c4"/>
    <stop offset="1" stop-color="#2c8ed4"/>
  </linearGradient>
  <path d="m47 24c0 22.703-.297 23-23 23-22.703 0-23-.297-23-23 0-22.703.297-23 23-23 22.703 0 23 .297 23 23z" fill="url(#a)"/>
  <path d="m14 11v6h2v2h-2v2h-2v2h2v2h2v2h2v2h2v2h-2v4h-2v2c6.667 0 13.333 0 20 0 0-3.333 0-6.667 0-10h-2v-2h2c0-4.667 0-9.333 0-14h-4v2h-14v-2zm0 14h-2v2h2zm0-6v-2h-2v2z" opacity=".1"/>
  <path d="m15 12v14h4c .394 1.446.463 2.799 0 4-.836 2.501-.345 4.207 0 6h16v-10h-2v-2l2-6v-2l-2-4h-2c-4 1-10 1-14 0z" fill="#f55b4b"/>
  <path d="m15 12v5h1v-4h2v-.793c-.338-.066-.685-.128-1-.207m1 1v2 2h-2v2h-1v6h1v-2h2v2h4v-2h2v-4h-2v-2h-2v-2h2v2h2v-2h2v2h2v-2h2v2h-2v2h-2v4h2v2h4v-2h1.334l.666-4v-2h-2c0-1.333 0-2.667 0-4zm13 0h2.5l-.5-1h-2zm3 4h1v-2l-1-1zm-2 8v2h2v-1h-1v-1zm0 2h-6v-2h-2v2h-4.783l-.217 3v6h1v-5h2v-2h10zm-14-2h-2v1h2zm16 6v2h-2v3h2v-1h1v-4zm-10 2v3h2v-3z" opacity=".1"/>
  <path d="m16 17l1 5h4v-4zm11 1v4h4l1-5z" fill="#546585"/>
  <path d="m13 10c0 2 0 4 0 6h2v-4h2v-2zm4 2v2h14v-2zm14 0h2v4h2v-6h-4zm2 4h-6v2h4v4h2v2h2v-6h-2zm0 8h-2v2h2zm-2 2h-6v-2h-2v2h-6v2h2v2h2v-2h10zm-12 4h-2v4h-2v2h4zm-2-4v-2h-2v2zm-2-2v-2h2v-4h4v-2h-6v2h-2v2h-2v2h2v2zm-2 0h-2v2h2zm0-6v-2h-2v2zm8 0v4h2v-4zm0 4h-4v2h4zm10 2v-2h-4v2zm-4-2v-4h-2v4zm6 8v2h-2v4h2v-2h2v-4zm-10 2v4h2v-4z" fill="#383f4d"/>
  <path d="m17 18v2h2v-2zm10 0v2h2v-2z" fill="#f9f9f9"/>
  <path d="m17 14v2h2v-2zm4 0v2h2v-2zm4 0v2h2v-2zm4 0v2h2v-2z" fill="#98357c"/>
</svg>
