<svg viewBox="0 0 48 48" xmlns="http://www.w3.org/2000/svg" xmlns:xlink="http://www.w3.org/1999/xlink">
  <linearGradient id="a" gradientUnits="userSpaceOnUse" x1="1" x2="47">
    <stop offset="0" stop-color="#74bfff"/>
    <stop offset="1" stop-color="#89c9ff"/>
  </linearGradient>
  <path d="m24 1c22.703 0 23 .297 23 23 0 22.703-.297 23-23 23-22.703 0-23-.297-23-23 0-22.703.297-23 23-23z" fill="url(#a)" transform="matrix(0 -1 1 0 0 48)"/>
  <path d="m20 13v2h-2v2 2h-2v2h-2v8h2v2h2v2h-2v2h-2v2h2 2 5 5 4v-2h4v-2h2v-4h-2v-2h-1v-6h-2v-2h-2v-2h-2v-2h-2v-2z" opacity=".1"/>
  <path d="m21 20h5v8h-5z" fill="#e9e9f8"/>
  <path d="m17 16v2h2v-2zm0 2h-2v2h2zm-2 2h-2v8h2zm0 8v2h2v-2zm2 2v2h2v-2zm0 2h-2v2h2zm-2 2h-2v2h2zm13-18v2h2v-2zm2 2v2h2v-2zm2 2v6h-9v2h12v-2h-1v-6zm3 8v4h2v-4zm0 4h-12v2h4v2h4v-2h4zm-12 0v-4h-2v4z" fill="#351135"/>
  <path d="m19 12v2h-2v2h2v2h9v-2-2h-2v-2z" fill="#684fc9"/>
  <path d="m20 14h6v2h-6z" fill="#e9e9f8"/>
  <path d="m17 18v2h2v-2zm0 2h-2v8h2v2h2v2h-2v2h2 2 1v2h5v-2h-4v-2h-2v-5h-2v-2h-2zm6 12h12v-2h-9v-2h-3v2zm-6 2h-2v2h2zm11-16v2h2v-2z" fill="#996000"/>
  <path d="m19 18v2h-2v5h2v2h2v-7h5v6h2v-8h-2zm-2 16v2h5v-2z" fill="#f8c123"/>
  <path d="m26 28h9v2h-9z" fill="#f88107"/>
  <path d="m24 21h2v4h-2z" fill="#684fc9"/>
  <path d="m28 20h4v6h-4z" fill="#e9e9f8"/>
  <path d="m28 21h2v4h-2z" fill="#684fc9"/>
</svg>
