<svg xmlns="http://www.w3.org/2000/svg" viewBox="0 0 48 48">
 <defs>
  <linearGradient id="linearGradient3764" x1="1" x2="47" gradientUnits="userSpaceOnUse" gradientTransform="matrix(0,-1,1,0,-1.5e-6,47.999998)">
   <stop style="stop-color:#48a1e0;stop-opacity:1"/>
   <stop offset="1" style="stop-color:#5aa9e3;stop-opacity:1"/>
  </linearGradient>
 </defs>
 <g>
  
  
  
 </g>
 <g>
  <path d="m 47,24 C 47,46.703 46.703,47 24,47 1.297,47 1,46.703 1,24 1,1.297 1.297,1 24,1 46.703,1 47,1.297 47,24 z" style="fill:url(#linearGradient3764);fill-opacity:1"/>
 </g>
 <g>
  <g>
   <g transform="translate(1,1)">
    <g style="opacity:0.1">
     <!-- color: #5aa9e3 -->
     <g>
      <path d="m 14.328 27 c -0.73 0 -1.328 0.594 -1.328 1.328 l 0 2.672 l -3 0 l -1 5 l 32 0 l -1 -5 l -2.99 0 l 0 -2.672 c 0 -0.734 -0.601 -1.328 -1.328 -1.328 l -3.352 0 c -0.722 0 -1.32 0.594 -1.32 1.328 l 0 2.672 l -3.01 0 l 0 -2.672 c 0 -0.734 -0.594 -1.328 -1.328 -1.328 l -3.344 0 c -0.73 0 -1.328 0.594 -1.328 1.328 l 0 2.672 l -3 0 l 0 -2.672 c 0 -0.734 -0.594 -1.328 -1.328 -1.328 l -3.344 0 z" transform="translate(-1,-1)"/>
     </g>
    </g>
   </g>
  </g>
 </g>
 <g>
  <g>
   <!-- color: #5aa9e3 -->
   <g>
    <path d="m 9 30 l -1 5 l 32 0 l -1 -5 m -30 0" style="fill:#2d2d2d;fill-opacity:1;stroke:none;fill-rule:nonzero"/>
    <path d="m 13.328 26 l 3.344 0 c 0.734 0 1.328 0.594 1.328 1.328 l 0 3.344 c 0 0.734 -0.594 1.328 -1.328 1.328 l -3.344 0 c -0.73 0 -1.328 -0.594 -1.328 -1.328 l 0 -3.344 c 0 -0.734 0.598 -1.328 1.328 -1.328 m 0 0" style="fill:#f9f9f9;fill-opacity:1;stroke:none;fill-rule:nonzero"/>
    <path d="m 22.328 26 l 3.344 0 c 0.734 0 1.328 0.594 1.328 1.328 l 0 3.344 c 0 0.734 -0.594 1.328 -1.328 1.328 l -3.344 0 c -0.73 0 -1.328 -0.594 -1.328 -1.328 l 0 -3.344 c 0 -0.734 0.598 -1.328 1.328 -1.328 m 0 0" style="fill:#f9f9f9;fill-opacity:1;stroke:none;fill-rule:nonzero"/>
    <path d="m 31.33 26 l 3.352 0 c 0.727 0 1.328 0.594 1.328 1.328 l 0 3.344 c 0 0.734 -0.602 1.328 -1.328 1.328 l -3.352 0 c -0.727 0 -1.32 -0.594 -1.32 -1.328 l 0 -3.344 c 0 -0.734 0.598 -1.328 1.32 -1.328 m 0 0" style="fill:#f9f9f9;fill-opacity:1;stroke:none;fill-rule:nonzero"/>
   </g>
  </g>
 </g>
 <g>
  
 </g>
</svg>
