<svg viewBox="0 0 48 48" xmlns="http://www.w3.org/2000/svg" xmlns:xlink="http://www.w3.org/1999/xlink">
  <linearGradient id="a" gradientTransform="matrix(0 -1 1 0 -.0000015 47.999998)" gradientUnits="userSpaceOnUse" x1="1" x2="47">
    <stop offset="0" stop-color="#333"/>
    <stop offset="1" stop-color="#3d3d3d"/>
  </linearGradient>
  <path d="m47 24c0 22.703-.297 23-23 23-22.703 0-23-.297-23-23 0-22.703.297-23 23-23 22.703 0 23 .297 23 23z" fill="url(#a)"/>
  <path d="m25 10a15 15 0 0 0-15 15 15 15 0 0 0  15 15 15 15 0 0 0  15-15 15 15 0 0 0-15-15m0 2a13 13 0 0 1 13 13 13 13 0 0 1-13 13 13 13 0 0 1-13-13 13 13 0 0 1  13-13m-4.25 3c-.414 0-.75.336-.75.75v5.25h-3.25c-.414 0-.75.332-.75.746v7.504c0 .414.336.75.75.75h2.25v5h12v-5h2.25c.414 0 .75-.336.75-.75v-7.504c0-.414-.336-.746-.75-.746h-3.25v-5.25c0-.414-.336-.75-.75-.75z" opacity=".1"/>
  <path d="m19.75 14h8.5c.414 0 .75.336.75.75v9c0 .414-.336.75-.75.75h-8.5c-.414 0-.75-.336-.75-.75v-9c0-.414.336-.75.75-.75" fill="#a0a0a0"/>
  <path d="m15.75 20h16.5c.414 0 .75.332.75.746v7.504c0 .414-.336.75-.75.75h-16.5c-.414 0-.75-.336-.75-.75v-7.504c0-.414.336-.746.75-.746m0 0" fill="#d2d2d2"/>
  <path d="m18 25h12v9h-12" fill="#f9f9f9"/>
  <path d="m16 22.496v4.5l2-1.496v1.496l2-1.496v1.496l3-2.246-3-2.254v1.504l-2-1.504v1.504" fill="#007f7f"/>
  <path d="m24.22 9c-4.054-.059-7.959 1.524-10.826 4.391-5.859 5.858-5.859 15.357 0 21.21 5.858 5.859 15.357 5.859 21.21 0l-1.42-1.42c-2.436 2.439-5.741 3.812-9.188 3.813-7.18.002-13-5.82-13-13 0-7.18 5.82-13 13-13 3.447.001 6.752 1.374 9.188 3.813l1.42-1.42c-2.76-2.759-6.486-4.334-10.389-4.391" fill="#f9f9f9"/>
  <path d="m34.609 13.391l-1.42 1.42c2.439 2.436 3.813 5.741 3.813 9.187 0 3.447-1.374 6.752-3.813 9.188l1.42 1.42c2.813-2.813 4.393-6.629 4.393-10.607 0-3.978-1.58-7.794-4.393-10.607z" fill="#646464"/>
</svg>
