<svg viewBox="0 0 48 48" xmlns="http://www.w3.org/2000/svg" xmlns:xlink="http://www.w3.org/1999/xlink">
  <linearGradient id="a" gradientTransform="matrix(0 -3.543307 3.543307 0 .00000035 48)" gradientUnits="userSpaceOnUse" x1="1.521" x2="11.968" y1="6.63" y2="6.659">
    <stop offset="0" stop-color="#fb8e45"/>
    <stop offset="1" stop-color="#20b8e5"/>
  </linearGradient>
  <path d="m24 1c-22.703 0-23 .297-23 23 0 22.703.297 23 23 23 22.703 0 23-.297 23-23 0-22.703-.297-23-23-23z" fill="url(#a)"/>
  <path d="m24.25 27.629c-2.191-2.746-2.859-5.352-1.992-8.172.242-.781.473-1.699.516-2.043.074-.609.066-.645-.301-1.012-.207-.211-.645-.539-.969-.73l-.594-.344-1.113.137c-2.926.352-4.668 1.285-6.352 3.391-.441.551-.57.492-.309-.133 1.52-2.477 4.512-3.598 6.648-3.887 1.285-.25 1.578-.344 1.715-.563.383-.594 1.012-1.16 1.371-1.234.547-.113 1.52.141 1.859.48.469.465.57 1 .496 2.613-.035.789-.137 1.688-.23 1.996-.172.641-.199 1.246-.23 1.906 4.625 1.672 9.137 4.254 12.227 7.453-.672-.402-1.73-.875-2.262-1.031 2.426 1.309 1.934 3.363-.195 1.563.078-.027.316.035.531.145.215.105.441.18.508.156-1.703-2.039-5.359-.805-6.52.215-.813 2.719-.277 6.098-.926 8.367-.203.148-.43.086-.523.027.375-2.68.387-5.586.313-7.961l-.746-.055c-.41-.031-.824-.078-.914-.102.277 2.492.457 5.328.457 8.04-.133.18-.324.191-.543.008-.176-3.688.34-6.211-1.926-9.215m.004-.012" opacity=".1"/>
  <path d="m23.25 26.629c-2.191-2.746-2.859-5.352-1.992-8.172.242-.781.473-1.699.516-2.043.074-.609.066-.645-.301-1.012-.207-.211-.645-.539-.969-.73l-.594-.344-1.113.137c-2.926.352-4.668 1.285-6.352 3.391-.441.551-.57.492-.309-.133 1.52-2.477 4.512-3.598 6.648-3.887 1.285-.25 1.578-.344 1.715-.563.383-.594 1.012-1.16 1.371-1.234.547-.113 1.52.141 1.859.48.469.465.57 1 .496 2.613-.035.789-.137 1.688-.23 1.996-.172.641-.199 1.246-.23 1.906 4.625 1.672 9.137 4.254 12.227 7.453-.672-.402-1.73-.875-2.262-1.031 2.426 1.309 1.934 3.363-.195 1.563.078-.027.316.035.531.145.215.105.441.18.508.156-1.703-2.039-5.359-.805-6.52.215-.813 2.719-.277 6.098-.926 8.367-.203.148-.43.086-.523.027.375-2.68.387-5.586.313-7.961l-.746-.055c-.41-.031-.824-.078-.914-.102.277 2.492.457 5.328.457 8.04-.133.18-.324.191-.543.008-.176-3.688.34-6.211-1.926-9.215m.004-.012" fill="#001936"/>
</svg>
