<svg viewBox="0 0 48 48" xmlns="http://www.w3.org/2000/svg" xmlns:xlink="http://www.w3.org/1999/xlink">
  <linearGradient id="a" gradientUnits="userSpaceOnUse" x2="0" y1="47" y2="1">
    <stop offset="0" stop-color="#aae974"/>
    <stop offset="1" stop-color="#b4ec84"/>
  </linearGradient>
  <path d="m24 1c22.703 0 23 .297 23 23 0 22.703-.297 23-23 23-22.703 0-23-.297-23-23 0-22.703.297-23 23-23z" fill="url(#a)"/>
  <path d="m20 18a5 5 0 1 1-10 0 5 5 0 1 1  10 0z" fill-opacity=".118" transform="matrix(1.3 0 0 1.3 -1 -4.9)"/>
  <path d="m20 18a5 5 0 1 1-10 0 5 5 0 1 1  10 0z" fill="#889898" transform="matrix(1.3 0 0 1.3 -2 -5.9)"/>
  <path d="m20 18a5 5 0 1 1-10 0 5 5 0 1 1  10 0z" fill-opacity=".118" transform="matrix(1.3 0 0 1.3 12 -4.9)"/>
  <path d="m20 18a5 5 0 1 1-10 0 5 5 0 1 1  10 0z" fill="#c7cfcf" transform="matrix(1.1 0 0 1.1 1 -2.3)"/>
  <path d="m20 18a5 5 0 1 1-10 0 5 5 0 1 1  10 0z" fill-opacity=".118" transform="matrix(1.3 0 0 1.3 -1 8.1)"/>
  <path d="m20 18a5 5 0 1 1-10 0 5 5 0 1 1  10 0z" fill="#c09730" transform="matrix(1.3 0 0 1.3 11 -5.9)"/>
  <path d="m20 18a5 5 0 1 1-10 0 5 5 0 1 1  10 0z" fill-opacity=".118" transform="matrix(1.3 0 0 1.3 12 8.1)"/>
  <path d="m20 18a5 5 0 1 1-10 0 5 5 0 1 1  10 0z" fill="#ebc859" transform="matrix(1.1 0 0 1.1 14 -2.3)"/>
  <path d="m20 18a5 5 0 1 1-10 0 5 5 0 1 1  10 0z" fill="#7b7146" transform="matrix(1.3 0 0 1.3 -2 7.1)"/>
  <path d="m20 18a5 5 0 1 1-10 0 5 5 0 1 1  10 0z" fill="#b4a767" transform="matrix(1.1 0 0 1.1 1 10.7)"/>
  <path d="m20 18a5 5 0 1 1-10 0 5 5 0 1 1  10 0z" fill="#6f6f6f" transform="matrix(1.3 0 0 1.3 11 7.1)"/>
  <path d="m20 18a5 5 0 1 1-10 0 5 5 0 1 1  10 0z" fill="#acafaf" transform="matrix(1.1 0 0 1.1 14 10.7)"/>
  <path d="m16.984 22.02v-1c-.844-.133-1.487-.569-2.198-1.201l.822-1.113c.519.452.957.766 1.376.892v-1.511c-.698-.18-1.18-.419-1.506-.718-.326-.306-.489-.789-.489-1.355 0-.572.186-.992.558-1.358.372-.372.831-.571 1.436-.644v-1h .999v1c .665.093 1.34.392 1.998.851l-.743 1.149c-.419-.299-.896-.549-1.255-.649v1.501c.718.186 1.335.421 1.674.733.346.312.519.755.519 1.326 0 .572-.193 1.044-.578 1.416-.379.372-.976.605-1.614.678v1m .859-3.053c0-.375-.402-.5-.859-.611v1.311c.592-.07.881-.273.859-.701m-1.858-3.683c-.432.02-.709.373-.709.639-.022.476.377.615.709.692" fill="#889898" transform="scale(1.0009181 .99908276)"/>
  <path d="m30.813 13.5c-.645 0-1.213.232-1.719.719-.47.452-.795 1.057-1 1.781h-1.094v1h .9v1h-.9v1h1.094c.003.011-.003.02 0 .031.211.757.549 1.363 1.031 1.813.488.442 1.03.656 1.656.656.916 0 1.659-.42 2.219-1.281l-.625-.969c-.259.33-.515.561-.75.719-.229.15-.518.219-.844.219-.657 0-1.143-.377-1.469-1.156-.005-.013.004-.019 0-.031h1.688v-1h-1.906v-1h1.906v-1h-1.688c.136-.339.323-.618.563-.813.283-.232.588-.344.938-.344.349 0 .64.076.875.219.241.142.516.398.781.75l.625-1.031c-.56-.861-1.323-1.281-2.281-1.281z" fill="#c09730"/>
  <path d="m14.906 27l1.375 3h-1.281v1h1.719l.281.594v.406h-2v1h2v2h1v-2h2v-1h-2v-.406l.281-.594h1.719v-1h-1.281l1.375-3h-1.188l-1.406 3.156-1.406-3.156z" fill="#7b7146" transform="scale(.99999998 1)"/>
  <path d="m30.28 29.721h2.02v.991h-2.02v1.981h3.03v.991h-5.05v-.991h1.01v-1.981h-1.01v-.991h1.01v-.793c0-1.589.855-2.184 2.025-2.18 1 0 1.729.656 2.01 1.419l-.808.414c-.202-.516-.564-.842-1.124-.842-.662 0-1.096.412-1.096 1.189" fill="#6f6f6f" transform="scale(.99069749 1.0093899)"/>
</svg>
