<svg xmlns="http://www.w3.org/2000/svg" viewBox="0 0 48 48">
 <defs>
  <linearGradient id="linearGradient3845" y1="47" x2="0" y2="1" gradientUnits="userSpaceOnUse">
   <stop style="stop-color:#d22724;stop-opacity:1"/>
   <stop offset="1" style="stop-color:#db322f;stop-opacity:1"/>
  </linearGradient>
  <linearGradient y2="160" x2="160" y1="120" x1="135" gradientTransform="matrix(0.05622958,0,0,0.05622958,0.07160145,-0.0527796)" gradientUnits="userSpaceOnUse" id="linearGradient3102">
   <stop style="stop-color:#eff7fc"/>
   <stop offset="1" style="stop-color:#fff"/>
  </linearGradient>
 </defs>
 <g>
  
  
  
 </g>
 <g>
  <path d="m 24 1 c 22.703 0 23 0.297 23 23 c 0 22.703 -0.297 23 -23 23 -22.703 0 -23 -0.297 -23 -23 0 -22.703 0.297 -23 23 -23 z" style="fill:url(#linearGradient3845);fill-opacity:1"/>
 </g>
 <g>
  
 </g>
 <g>
  <g transform="scale(3.543307,3.543307)" style="fill:#000;opacity:0.1;fill-opacity:1">
   <path d="m 5.582 9.787 c -0.219 0 -0.181 -0.083 -0.257 -0.291 l -0.643 -2.116 3.981 -2.487 0.465 0.122 -0.386 1.058"/>
   <path d="m 5.582 9.787 c 0.169 0 0.243 -0.077 0.337 -0.169 c 0.145 -0.142 2.024 -1.968 2.024 -1.968 l -1.151 -0.279 -1.068 0.675 -0.142 1.684"/>
   <path d="m 5.697 8.07 2.719 2.01 c 0.31 0.171 0.534 0.083 0.612 -0.288 l 1.107 -5.216 c 0.113 -0.454 -0.173 -0.66 -0.47 -0.526 l -6.5 2.507 c -0.444 0.178 -0.441 0.425 -0.081 0.536 l 1.668 0.521 3.861 -2.436 c 0.182 -0.111 0.35 -0.051 0.212 0.071 z"/>
  </g>
  <g transform="matrix(3.543307,0,0,3.543307,-0.99999987,-1.0000008)">
   <path d="m 5.582 9.787 c -0.219 0 -0.181 -0.083 -0.257 -0.291 l -0.643 -2.116 3.981 -2.487 0.465 0.122 -0.386 1.058" style="fill:#c8daea"/>
   <path d="m 5.582 9.787 c 0.169 0 0.243 -0.077 0.337 -0.169 c 0.145 -0.142 2.024 -1.968 2.024 -1.968 l -1.151 -0.279 -1.068 0.675 -0.142 1.684" style="fill:#a7c2d1"/>
   <path d="m 5.697 8.07 2.719 2.01 c 0.31 0.171 0.534 0.083 0.612 -0.288 l 1.107 -5.216 c 0.113 -0.454 -0.173 -0.66 -0.47 -0.526 l -6.5 2.507 c -0.444 0.178 -0.441 0.425 -0.081 0.536 l 1.668 0.521 3.861 -2.436 c 0.182 -0.111 0.35 -0.051 0.212 0.071 z" style="fill:url(#linearGradient3102)"/>
  </g>
 </g>
</svg>
