<svg xmlns="http://www.w3.org/2000/svg" viewBox="0 0 48 48">
 <defs>
  <linearGradient id="linearGradient3764" x1="1" x2="47" gradientUnits="userSpaceOnUse" gradientTransform="matrix(0,-1,1,0,-1.5e-6,47.999998)">
   <stop style="stop-color:#cb3131;stop-opacity:1"/>
   <stop offset="1" style="stop-color:#d14040;stop-opacity:1"/>
  </linearGradient>
 </defs>
 <g>
  
  
  
 </g>
 <g>
  <path d="m 47,24 C 47,46.703 46.703,47 24,47 1.297,47 1,46.703 1,24 1,1.297 1.297,1 24,1 46.703,1 47,1.297 47,24 z" style="fill:url(#linearGradient3764);fill-opacity:1"/>
 </g>
 <g>
  
 </g>
 <g>
  <path d="m 16 13 c -0.464 0 -0.824 0.43 -0.938 1 l -0.063 0 c -1.108 0 -2 0.892 -2 2 l 0 18 c 0 1.108 0.892 2 2 2 l 20 0 c 1.108 0 2 -0.892 2 -2 l 0 -18 c 0 -1.108 -0.892 -2 -2 -2 l -0.063 0 c -0.114 -0.57 -0.473 -1 -0.938 -1 c -0.464 0 -0.824 0.43 -0.938 1 l -1.125 0 c -0.114 -0.57 -0.473 -1 -0.938 -1 c -0.464 0 -0.824 0.43 -0.938 1 l -1.125 0 c -0.114 -0.57 -0.473 -1 -0.938 -1 c -0.464 0 -0.824 0.43 -0.938 1 l -1.125 0 c -0.114 -0.57 -0.473 -1 -0.938 -1 c -0.464 0 -0.824 0.43 -0.938 1 l -1.125 0 c -0.114 -0.57 -0.473 -1 -0.938 -1 c -0.464 0 -0.824 0.43 -0.938 1 l -1.125 0 c -0.114 -0.57 -0.473 -1 -0.938 -1 c -0.464 0 -0.824 0.43 -0.938 1 l -1.125 0 c -0.114 -0.57 -0.473 -1 -0.938 -1 z" style="fill:#000;fill-opacity:0.12;stroke:none;fill-rule:nonzero"/>
  <rect rx="2" y="15" x="12" height="20" width="24" style="fill:#aeb4c2;fill-opacity:1;stroke:none;fill-rule:nonzero"/>
  <rect width="24" height="20" x="12" y="14" rx="2" style="fill:#c4cad7;fill-opacity:1;stroke:none;fill-rule:nonzero"/>
  <rect rx="2" y="13" x="12" height="20" width="24" style="fill:#deece6;fill-opacity:1;stroke:none;fill-rule:nonzero"/>
  <path d="m 14 19 0 10 3 0 0 -6 3 4 3 -4 0 6 3 0 0 -10 -3 0 -3 4 -3 -4 -3 0 z m 15 0 0 6 -2 0 3.5 4 3.5 -4 -2 0 0 -6 -3 0 z" style="fill:#2d2d2d;fill-opacity:1;stroke:none;fill-rule:nonzero"/>
  <rect ry="1.333" rx="1" y="12" x="14" height="4" width="2" style="fill:#999;fill-opacity:1;stroke:none;fill-rule:nonzero"/>
  <rect width="2" height="4" x="17" y="12" rx="1" ry="1.333" style="fill:#999;fill-opacity:1;stroke:none;fill-rule:nonzero"/>
  <rect ry="1.333" rx="1" y="12" x="20" height="4" width="2" style="fill:#999;fill-opacity:1;stroke:none;fill-rule:nonzero"/>
  <rect width="2" height="4" x="23" y="12" rx="1" ry="1.333" style="fill:#999;fill-opacity:1;stroke:none;fill-rule:nonzero"/>
  <rect ry="1.333" rx="1" y="12" x="26" height="4" width="2" style="fill:#999;fill-opacity:1;stroke:none;fill-rule:nonzero"/>
  <rect width="2" height="4" x="29" y="12" rx="1" ry="1.333" style="fill:#999;fill-opacity:1;stroke:none;fill-rule:nonzero"/>
  <rect ry="1.333" rx="1" y="12" x="32" height="4" width="2" style="fill:#999;fill-opacity:1;stroke:none;fill-rule:nonzero"/>
 </g>
</svg>
