<svg viewBox="0 0 48 48" xmlns="http://www.w3.org/2000/svg" xmlns:xlink="http://www.w3.org/1999/xlink">
  <linearGradient id="a" gradientUnits="userSpaceOnUse" x2="0" y1="47" y2="1">
    <stop offset="0" stop-color="#d22724"/>
    <stop offset="1" stop-color="#db322f"/>
  </linearGradient>
  <linearGradient id="b" gradientUnits="userSpaceOnUse" x1="7.66259475" x2="9.06833425" y1="6.69477" y2="8.9439532">
    <stop offset="0" stop-color="#eff7fc"/>
    <stop offset="1" stop-color="#fff"/>
  </linearGradient>
  <path d="m24 1c22.703 0 23 .297 23 23 0 22.703-.297 23-23 23-22.703 0-23-.297-23-23 0-22.703.297-23 23-23z" fill="url(#a)"/>
  <g opacity=".1" transform="scale(3.543307)">
    <path d="m5.582 9.787c-.219 0-.181-.083-.257-.291l-.643-2.116 3.981-2.487.465.122-.386 1.058"/>
    <path d="m5.582 9.787c.169 0 .243-.077.337-.169.145-.142 2.024-1.968 2.024-1.968l-1.151-.279-1.068.675-.142 1.684"/>
    <path d="m5.697 8.07l2.719 2.01c.31.171.534.083.612-.288l1.107-5.216c.113-.454-.173-.66-.47-.526l-6.5 2.507c-.444.178-.441.425-.081.536l1.668.521 3.861-2.436c.182-.111.35-.051.212.071z"/>
  </g>
  <g transform="matrix(3.543307 0 0 3.543307 -.99999987 -1.0000008)">
    <path d="m5.582 9.787c-.219 0-.181-.083-.257-.291l-.643-2.116 3.981-2.487.465.122-.386 1.058" fill="#c8daea"/>
    <path d="m5.582 9.787c.169 0 .243-.077.337-.169.145-.142 2.024-1.968 2.024-1.968l-1.151-.279-1.068.675-.142 1.684" fill="#a7c2d1"/>
    <path d="m5.697 8.07l2.719 2.01c.31.171.534.083.612-.288l1.107-5.216c.113-.454-.173-.66-.47-.526l-6.5 2.507c-.444.178-.441.425-.081.536l1.668.521 3.861-2.436c.182-.111.35-.051.212.071z" fill="url(#b)"/>
  </g>
</svg>
