<svg viewBox="0 0 48 48" xmlns="http://www.w3.org/2000/svg" xmlns:xlink="http://www.w3.org/1999/xlink">
  <linearGradient id="a" gradientTransform="matrix(0 -1 1 0 -.0000015 47.999998)" gradientUnits="userSpaceOnUse" x1="1" x2="47">
    <stop offset="0" stop-color="#cb3131"/>
    <stop offset="1" stop-color="#d14040"/>
  </linearGradient>
  <path d="m47 24c0 22.703-.297 23-23 23-22.703 0-23-.297-23-23 0-22.703.297-23 23-23 22.703 0 23 .297 23 23z" fill="url(#a)"/>
  <path d="m16 13c-.464 0-.824.43-.938 1h-.063c-1.108 0-2 .892-2 2v18c0 1.108.892 2 2 2h20c1.108 0 2-.892 2-2v-18c0-1.108-.892-2-2-2h-.063c-.114-.57-.473-1-.938-1-.464 0-.824.43-.938 1h-1.125c-.114-.57-.473-1-.938-1-.464 0-.824.43-.938 1h-1.125c-.114-.57-.473-1-.938-1-.464 0-.824.43-.938 1h-1.125c-.114-.57-.473-1-.938-1-.464 0-.824.43-.938 1h-1.125c-.114-.57-.473-1-.938-1-.464 0-.824.43-.938 1h-1.125c-.114-.57-.473-1-.938-1-.464 0-.824.43-.938 1h-1.125c-.114-.57-.473-1-.938-1z" fill-opacity=".12"/>
  <rect fill="#aeb4c2" height="20" rx="2" width="24" x="12" y="15"/>
  <rect fill="#c4cad7" height="20" rx="2" width="24" x="12" y="14"/>
  <rect fill="#deece6" height="20" rx="2" width="24" x="12" y="13"/>
  <path d="m14 19v10h3v-6l3 4 3-4v6h3v-10h-3l-3 4-3-4zm15 0v6h-2l3.5 4 3.5-4h-2v-6z" fill="#2d2d2d"/>
  <rect fill="#999" height="4" rx="1" ry="1.333" width="2" x="14" y="12"/>
  <rect fill="#999" height="4" rx="1" ry="1.333" width="2" x="17" y="12"/>
  <rect fill="#999" height="4" rx="1" ry="1.333" width="2" x="20" y="12"/>
  <rect fill="#999" height="4" rx="1" ry="1.333" width="2" x="23" y="12"/>
  <rect fill="#999" height="4" rx="1" ry="1.333" width="2" x="26" y="12"/>
  <rect fill="#999" height="4" rx="1" ry="1.333" width="2" x="29" y="12"/>
  <rect fill="#999" height="4" rx="1" ry="1.333" width="2" x="32" y="12"/>
</svg>
