<svg viewBox="0 0 48 48" xmlns="http://www.w3.org/2000/svg" xmlns:xlink="http://www.w3.org/1999/xlink">
  <linearGradient id="a" gradientTransform="matrix(0 -1 1 0 -.0000015 47.999998)" gradientUnits="userSpaceOnUse" x1="1" x2="47">
    <stop offset="0" stop-color="#005088"/>
    <stop offset="1" stop-color="#005e9d"/>
  </linearGradient>
  <path d="m47 24c0 22.703-.297 23-23 23-22.703 0-23-.297-23-23 0-22.703.297-23 23-23 22.703 0 23 .297 23 23z" fill="url(#a)"/>
  <path d="m26.438 8.508c1.11 2.087 2 4.049 2.678 5.885-1.387-.082-2.718-.132-3.926-.111h-.004c-13.351.228-15.762 6.747-7.313 19.563.801-.141 1.563-.285 2.281-.469-.099-.35-.163-.678-.244-1.018l1.385.643h.213c-2.744.85-6.095 1.349-10.07 1.488 12.239 2.036 20.09 1.538 23.563-1.488h1.434c0 0 .563-.324.563-1.996 0-.465-.056-.805-.131-1.086.774-3.237-.792-7.824-4.719-13.775 1.929-.336 4.049-.56 6.414-.643-2.725-.453-5.225-.775-7.518-.977-1.32-1.881-2.852-3.884-4.605-6.02zm3.402 8.123c1.508 5.301.984 9.428-1.588 12.373h-6.957l-1.842.857c-.799-6.868 2.667-11.28 10.387-13.23zm-10.869 18.84c1.313 1.883 2.836 3.896 4.594 6.03-1.109-2.082-2.01-4.04-2.691-5.875-.613-.035-1.252-.098-1.9-.156h-.002z" opacity=".1" transform=""/>
  <path d="m25.438 7.508c18.09 21.992 13.09 30.652-15 25.98 18.859-.66 23.859-9.32 15-25.98m0 0" fill="#ffb911"/>
  <path d="m24.19 13.281c-13.355.227-15.766 6.746-7.316 19.563.801-.141 1.563-.285 2.281-.469-3.227-11.359 2.906-17.332 18.406-17.875-5.266-.875-9.73-1.281-13.375-1.219m-6.215 21.19c1.313 1.883 2.836 3.895 4.594 6.03-1.109-2.082-2.01-4.04-2.691-5.875-.613-.035-1.254-.098-1.902-.156m0 .004" fill="#0ad" fill-opacity=".941"/>
  <path d="m35.434 32c0 0 .563-.324.563-1.996 0-1.613-.633-2-.633-2h-15.07l-4.297 2 4.297 1.996m15.14 0" fill="#ff6f03"/>
  <path d="m20 28.16l-4 1.844 4 1.844m0-3.688" fill="#ffc13d"/>
  <path d="m18 29.06l-2 .938 2 .941m0-1.879" fill="#2d2d2d"/>
  <path d="m33 28v4h2.438c0 0 .563-.324.563-2 0-1.613-.625-2-.625-2m-2.375 0" fill="#ff2d5b"/>
</svg>
