<svg xmlns="http://www.w3.org/2000/svg" viewBox="0 0 48 48">
 <defs>
  <linearGradient id="linearGradient3764" x1="1" x2="47" gradientUnits="userSpaceOnUse" gradientTransform="matrix(0,-1,1,0,-1.5e-6,47.999998)">
   <stop style="stop-color:#005088;stop-opacity:1"/>
   <stop offset="1" style="stop-color:#005e9d;stop-opacity:1"/>
  </linearGradient>
 </defs>
 <g>
  
  
  
 </g>
 <g>
  <path d="m 47,24 C 47,46.703 46.703,47 24,47 1.297,47 1,46.703 1,24 1,1.297 1.297,1 24,1 46.703,1 47,1.297 47,24 z" style="fill:url(#linearGradient3764);fill-opacity:1"/>
 </g>
 <g>
  <g>
   <g transform="translate(1,1)">
    <g style="opacity:0.1">
     <!-- color: #005e9d -->
     <g>
      <path d="m 26.438 8.508 c 1.11 2.087 2 4.049 2.678 5.885 c -1.387 -0.082 -2.718 -0.132 -3.926 -0.111 l -0.004 0 c -13.351 0.228 -15.762 6.747 -7.313 19.563 c 0.801 -0.141 1.563 -0.285 2.281 -0.469 c -0.328 -1.155 -0.533 -2.24 -0.668 -3.283 c 0.593 -0.106 1.24 -0.076 1.975 0.365 c 0.975 0.586 1.233 1.36 1.338 2.102 c -2.957 1.122 -6.741 1.768 -11.361 1.93 c 24.573 4.087 31.475 -2.028 20.709 -18.346 c 1.929 -0.336 4.049 -0.56 6.414 -0.643 c -2.725 -0.453 -5.225 -0.775 -7.518 -0.977 c -1.32 -1.881 -2.852 -3.884 -4.605 -6.02 z m 3.402 8.123 c 0.326 1.147 0.558 2.239 0.693 3.275 c -0.596 0.109 -1.247 0.084 -1.986 -0.359 c -0.977 -0.586 -1.235 -1.359 -1.34 -2.102 c 0.812 -0.31 1.695 -0.578 2.633 -0.814 z m -4.857 5.918 c 1.179 -0.009 2.237 0.781 2.49 1.939 c 0.289 1.324 -0.582 2.625 -1.949 2.91 c -1.367 0.277 -2.711 -0.563 -3 -1.891 c -0.293 -1.324 0.578 -2.625 1.945 -2.906 l 0.004 0 c 0.171 -0.035 0.341 -0.052 0.51 -0.053 z m -6.01 12.922 c 1.313 1.883 2.836 3.896 4.594 6.03 c -1.109 -2.082 -2.01 -4.04 -2.691 -5.875 c -0.613 -0.035 -1.252 -0.098 -1.9 -0.156 l -0.002 0 z" transform="translate(-1,-1)"/>
     </g>
    </g>
   </g>
  </g>
 </g>
 <g>
  <g>
   <!-- color: #005e9d -->
   <g>
    <path d="m 25.438 7.508 c 18.09 21.992 13.09 30.652 -15 25.98 18.859 -0.66 23.859 -9.32 15 -25.98 m 0 0" style="fill:#ffb911;fill-opacity:1;stroke:none;fill-rule:nonzero"/>
    <path d="M 24.19,13.281 C 10.835,13.508 8.424,20.027 16.874,32.844 17.675,32.703 18.437,32.559 19.155,32.375 15.928,21.016 22.061,15.043 37.561,14.5 32.295,13.625 27.831,13.219 24.186,13.281 m -6.215,21.19 c 1.313,1.883 2.836,3.895 4.594,6.03 -1.109,-2.082 -2.01,-4.04 -2.691,-5.875 -0.613,-0.035 -1.254,-0.098 -1.902,-0.156 m 0,0.004" style="fill:#0ad;fill-opacity:1;stroke:none;fill-rule:nonzero"/>
    <path d="m 23.441 14.09 c -1.652 0.535 -0.199 3.02 -2.57 4.234 -2.707 1.395 -4.055 -2.117 -5.68 0.387 -1.629 2.512 2.242 2.121 2.137 5.07 -0.109 2.953 -3.941 2.324 -2.504 4.93 1.441 2.605 3.035 -0.816 5.637 0.746 2.594 1.559 0.113 4.441 3.176 4.539 3.066 0.098 0.789 -2.93 3.496 -4.32 2.707 -1.395 4.055 2.117 5.684 -0.387 1.625 -2.508 -2.246 -2.117 -2.137 -5.07 0.109 -2.953 3.938 -2.324 2.5 -4.93 -1.438 -2.605 -3.035 0.816 -5.633 -0.742 -2.598 -1.559 -0.113 -4.445 -3.18 -4.543 -0.383 -0.012 -0.688 0.012 -0.926 0.086 m 0.031 7.512 c 1.371 -0.281 2.711 0.563 3 1.887 0.289 1.324 -0.582 2.625 -1.949 2.91 -1.367 0.277 -2.711 -0.563 -3 -1.891 -0.293 -1.324 0.578 -2.625 1.945 -2.906 m 0 0" style="fill:#f9f9f9;fill-opacity:1;stroke:none;fill-rule:nonzero"/>
   </g>
  </g>
 </g>
 <g>
  
 </g>
</svg>
