<svg viewBox="0 0 48 48" xmlns="http://www.w3.org/2000/svg" xmlns:xlink="http://www.w3.org/1999/xlink">
  <linearGradient id="a" gradientUnits="userSpaceOnUse" x2="0" y1="47" y2="1">
    <stop offset="0" stop-color="#e8f24e"/>
    <stop offset="1" stop-color="#eaf361"/>
  </linearGradient>
  <path d="m24 1c22.703 0 23 .297 23 23 0 22.703-.297 23-23 23-22.703 0-23-.297-23-23 0-22.703.297-23 23-23z" fill="url(#a)"/>
  <path d="m29 15l2 2c0 .021-.002.042-.002.063.037 1.077.92 1.931 1.998 1.932.016 0 .031.002.047.002 1.096-.026 1.967-.929 1.953-2.025l-.002-.082c-.058-1.061-.936-1.891-1.998-1.891v-.002zm-9 2c-.015 0-.027.007-.041.008-.055-.007-.109-.009-.164-.006-.684.043-1.216.848-1.193 1.807.014.559.218 1.075.549 1.389.007.008.014.016.021.023.066.1.148.192.252.266l4.939 3.5-1.328 4.955c-.143.535.172 1.081.707 1.225.535.143 1.081-.172 1.225-.707l1.631-6.086c.048-.18.029-.357-.018-.523 0-.007-.006-.013-.008-.02-.025-.081-.046-.163-.09-.234-.071-.15-.165-.289-.311-.393l-3.111-2.203h4.939v2c0 .554.446 1 1 1h4c .554 0 1-.446 1-1 0-.554-.446-1-1-1h-3v-2-1c0-.554-.446-1-1-1zm-2.66 6.502c-.106-.002-.212 0-.318.004-2.875.125-5.114 2.541-5.02 5.418.096 2.877 2.491 5.141 5.369 5.074 2.877-.066 5.165-2.437 5.129-5.314l-.008-.215c-.148-2.751-2.398-4.92-5.152-4.967zm15.5 0c-.106-.002-.212 0-.318.004-2.875.125-5.114 2.541-5.02 5.418.096 2.877 2.491 5.141 5.369 5.074 2.877-.066 5.165-2.437 5.129-5.314l-.008-.215c-.148-2.751-2.398-4.92-5.152-4.967zm-15.764 1.252c2.191-.095 4.05 1.591 4.168 3.781l.006.164c.027 2.193-1.716 3.999-3.908 4.049-2.192.05-4.02-1.674-4.09-3.865-.073-2.192 1.633-4.03 3.824-4.129zm15.5 0c2.191-.095 4.05 1.591 4.168 3.781l.006.164c.027 2.193-1.716 3.999-3.908 4.049-2.192.05-4.02-1.674-4.09-3.865-.073-2.192 1.633-4.03 3.824-4.129z" fill-opacity=".098"/>
  <rect fill="#333" height="2" rx="1" width="6" x="27" y="20"/>
  <rect fill="#333" height="5" rx="1" width="2" x="27" y="17"/>
  <rect fill="#333" height="3" rx="1" width="11" x="18" y="16"/>
  <rect fill="#333" height="2.5" rx="1" transform="matrix(.81608708 .57792895 -.57778628 .8161881 0 0)" width="8.499" x="25.296" y="2.756"/>
  <rect fill="#333" height="8.3" rx="1" transform="matrix(.96592583 .25881905 -.25881905 .96592583 0 0)" width="2" x="28.515" y="13.986"/>
  <path d="m34 15.975a2 2 0 0 1-1.954 2.025 2 2 0 0 1-2.045-1.933 2 2 0 0 1  1.912-2.064 2 2 0 0 1  2.084 1.891" fill="#333"/>
  <path d="m16.02 22.505a5.25 5.25 0 0 0-5.02 5.418 5.25 5.25 0 0 0  5.369 5.074 5.25 5.25 0 0 0  5.129-5.314l-.008-.215a5.25 5.25 0 0 0-5.471-4.963zm.055 1.248a4 4 0 0 1 4.168 3.781l.006.164a4 4 0 0 1-3.908 4.049 4 4 0 0 1-4.09-3.865 4 4 0 0 1  3.824-4.129z" fill="#333"/>
  <path d="m31.522 22.505a5.25 5.25 0 0 0-5.02 5.418 5.25 5.25 0 0 0  5.369 5.074 5.25 5.25 0 0 0  5.129-5.314l-.008-.215a5.25 5.25 0 0 0-5.471-4.963zm.055 1.248a4 4 0 0 1 4.168 3.781l.006.164a4 4 0 0 1-3.908 4.049 4 4 0 0 1-4.09-3.865 4 4 0 0 1  3.824-4.129z" fill="#333"/>
  <path d="m28 14h4v4z" fill="#333"/>
  <path d="m18 17.2h1v1.5h-1z" fill="#333"/>
</svg>
