<svg xmlns="http://www.w3.org/2000/svg" viewBox="0 0 48 48">
 <defs>
  <linearGradient id="linearGradient3764" x1="1" x2="47" gradientUnits="userSpaceOnUse" gradientTransform="matrix(0,-1,1,0,-1.5e-6,47.999998)">
   <stop style="stop-color:#708290;stop-opacity:1"/>
   <stop offset="1" style="stop-color:#7b8c99;stop-opacity:1"/>
  </linearGradient>
 </defs>
 <g>
  
  
  
 </g>
 <g>
  <path d="m 47,24 C 47,46.703 46.703,47 24,47 1.297,47 1,46.703 1,24 1,1.297 1.297,1 24,1 46.703,1 47,1.297 47,24 z" style="fill:url(#linearGradient3764);fill-opacity:1"/>
 </g>
 <g>
  <g>
   <g transform="translate(1,1)">
    <g style="opacity:0.1">
     <!-- color: #7b8c99 -->
     <g>
      <path d="m 13.805 29.14 c 0 0 -2.395 -6.074 -0.434 -10.621 c 1.957 -4.543 5.05 -4.938 7.254 -3.906 c 2.195 1.031 2.352 5.543 1.102 9.809 c -1.254 4.27 -1.77 5.762 -1.77 5.762 m -6.152 -1.043" style="fill:#000;fill-opacity:0.941;stroke:none;fill-rule:nonzero"/>
      <path d="m 13.75 30.25 l 5.891 1 c 0 0 0.504 3.25 -0.855 4.27 c -1.359 1.02 -4.68 0.391 -5.324 -1.629 c -0.648 -2.02 0.285 -3.641 0.285 -3.641 m 0.004 0" style="fill:#000;fill-opacity:0.941;stroke:none;fill-rule:nonzero"/>
      <path d="m 31.477 27.992 c 0 0 4.27 -4.945 3.922 -9.879 c -0.348 -4.938 -3.141 -6.332 -5.555 -6.086 c -2.418 0.25 -4.055 4.453 -4.281 8.895 c -0.227 4.445 -0.234 6.02 -0.234 6.02 m 6.148 1.051" style="fill:#000;fill-opacity:1;stroke:none;fill-rule:nonzero"/>
      <path d="m 31.17 29.06 l -5.898 -1 c 0 0 -1.547 2.902 -0.602 4.313 c 0.941 1.414 4.289 1.918 5.563 0.23 c 1.277 -1.695 0.938 -3.531 0.938 -3.531 m 0 -0.004" style="fill:#000;fill-opacity:1;stroke:none;fill-rule:nonzero"/>
     </g>
    </g>
   </g>
  </g>
 </g>
 <g>
  <g>
   <!-- color: #7b8c99 -->
   <g>
    <path d="m 13.805 29.14 c 0 0 -2.395 -6.074 -0.434 -10.621 c 1.957 -4.543 5.05 -4.938 7.254 -3.906 c 2.195 1.031 2.352 5.543 1.102 9.809 c -1.254 4.27 -1.77 5.762 -1.77 5.762 m -6.152 -1.043" style="fill:#f9f9f9;fill-opacity:0.941;stroke:none;fill-rule:nonzero"/>
    <path d="m 13.75 30.25 l 5.891 1 c 0 0 0.504 3.25 -0.855 4.27 c -1.359 1.02 -4.68 0.391 -5.324 -1.629 c -0.648 -2.02 0.285 -3.641 0.285 -3.641 m 0.004 0" style="fill:#f9f9f9;fill-opacity:0.941;stroke:none;fill-rule:nonzero"/>
    <path d="m 31.477 27.992 c 0 0 4.27 -4.945 3.922 -9.879 c -0.348 -4.938 -3.141 -6.332 -5.555 -6.086 c -2.418 0.25 -4.055 4.453 -4.281 8.895 c -0.227 4.445 -0.234 6.02 -0.234 6.02 m 6.148 1.051" style="fill:#f9f9f9;fill-opacity:1;stroke:none;fill-rule:nonzero"/>
    <path d="m 31.17 29.06 l -5.898 -1 c 0 0 -1.547 2.902 -0.602 4.313 c 0.941 1.414 4.289 1.918 5.563 0.23 c 1.277 -1.695 0.938 -3.531 0.938 -3.531 m 0 -0.004" style="fill:#f9f9f9;fill-opacity:1;stroke:none;fill-rule:nonzero"/>
   </g>
  </g>
 </g>
 <g>
  
 </g>
</svg>
