<svg viewBox="0 0 48 48" xmlns="http://www.w3.org/2000/svg" xmlns:xlink="http://www.w3.org/1999/xlink">
  <linearGradient id="a" gradientTransform="matrix(0 -1 1 0 -.0000015 47.999998)" gradientUnits="userSpaceOnUse" x1="1" x2="47">
    <stop offset="0" stop-color="#708290"/>
    <stop offset="1" stop-color="#7b8c99"/>
  </linearGradient>
  <path d="m47 24c0 22.703-.297 23-23 23-22.703 0-23-.297-23-23 0-22.703.297-23 23-23 22.703 0 23 .297 23 23z" fill="url(#a)"/>
  <g opacity=".1" transform="translate(1 1)">
    <path d="m13.805 29.14c0 0-2.395-6.074-.434-10.621 1.957-4.543 5.05-4.938 7.254-3.906 2.195 1.031 2.352 5.543 1.102 9.809-1.254 4.27-1.77 5.762-1.77 5.762m-6.152-1.043" fill-opacity=".941"/>
    <path d="m13.75 30.25l5.891 1c0 0 .504 3.25-.855 4.27-1.359 1.02-4.68.391-5.324-1.629-.648-2.02.285-3.641.285-3.641m.004 0" fill-opacity=".941"/>
    <path d="m31.477 27.992c0 0 4.27-4.945 3.922-9.879-.348-4.938-3.141-6.332-5.555-6.086-2.418.25-4.055 4.453-4.281 8.895-.227 4.445-.234 6.02-.234 6.02m6.148 1.051"/>
    <path d="m31.17 29.06l-5.898-1c0 0-1.547 2.902-.602 4.313.941 1.414 4.289 1.918 5.563.23 1.277-1.695.938-3.531.938-3.531m0-.004"/>
  </g>
  <path d="m13.805 29.14c0 0-2.395-6.074-.434-10.621 1.957-4.543 5.05-4.938 7.254-3.906 2.195 1.031 2.352 5.543 1.102 9.809-1.254 4.27-1.77 5.762-1.77 5.762m-6.152-1.043" fill="#f9f9f9" fill-opacity=".941"/>
  <path d="m13.75 30.25l5.891 1c0 0 .504 3.25-.855 4.27-1.359 1.02-4.68.391-5.324-1.629-.648-2.02.285-3.641.285-3.641m.004 0" fill="#f9f9f9" fill-opacity=".941"/>
  <path d="m31.477 27.992c0 0 4.27-4.945 3.922-9.879-.348-4.938-3.141-6.332-5.555-6.086-2.418.25-4.055 4.453-4.281 8.895-.227 4.445-.234 6.02-.234 6.02m6.148 1.051" fill="#f9f9f9"/>
  <path d="m31.17 29.06l-5.898-1c0 0-1.547 2.902-.602 4.313.941 1.414 4.289 1.918 5.563.23 1.277-1.695.938-3.531.938-3.531m0-.004" fill="#f9f9f9"/>
</svg>
