<svg xmlns="http://www.w3.org/2000/svg" viewBox="0 0 48 48">
 <defs>
  <linearGradient id="linearGradient3764" x1="1" x2="47" gradientUnits="userSpaceOnUse" gradientTransform="matrix(0,-1,1,0,-1.5e-6,47.999998)">
   <stop style="stop-color:#333;stop-opacity:1"/>
   <stop offset="1" style="stop-color:#3d3d3d;stop-opacity:1"/>
  </linearGradient>
 </defs>
 <g>
  
  
  
 </g>
 <g>
  <path d="m 47,24 C 47,46.703 46.703,47 24,47 1.297,47 1,46.703 1,24 1,1.297 1.297,1 24,1 46.703,1 47,1.297 47,24 z" style="fill:url(#linearGradient3764);fill-opacity:1"/>
 </g>
 <g>
  <g>
   <g transform="translate(1,1)">
    <g style="opacity:0.1">
     <!-- color: #3d3d3d -->
     <g>
      <path d="m 27.08 9.641 l -3.609 10.152 l 14.234 -2.363 c -2.102 -3.992 -5.984 -6.93 -10.625 -7.789 m 0 0" style="fill:#000;fill-opacity:1;stroke:none;fill-rule:nonzero"/>
      <path d="m 38.15 19.449 l -10.738 1.988 l 9.199 10.98 c 2.457 -3.797 3.09 -8.586 1.527 -12.969 m 0.012 0" style="fill:#000;fill-opacity:1;stroke:none;fill-rule:nonzero"/>
      <path d="m 35.07 33.809 l -7.121 -8.164 l -5.05 13.344 c 4.566 0.195 9.09 -1.656 12.156 -5.18 m 0.012 0" style="fill:#000;fill-opacity:1;stroke:none;fill-rule:nonzero"/>
      <path d="m 20.922 38.36 l 3.617 -10.152 l -14.242 2.363 c 2.109 3.996 5.996 6.934 10.625 7.789 m 0 0" style="fill:#000;fill-opacity:1;stroke:none;fill-rule:nonzero"/>
      <path d="m 9.852 28.559 l 10.734 -1.988 l -9.199 -10.98 c -2.453 3.801 -3.09 8.586 -1.527 12.969 m -0.008 0" style="fill:#000;fill-opacity:1;stroke:none;fill-rule:nonzero"/>
      <path d="m 12.926 14.207 l 7.121 8.164 l 5.05 -13.344 c -4.563 -0.195 -9.09 1.656 -12.152 5.18 m -0.016 0" style="fill:#000;fill-opacity:1;stroke:none;fill-rule:nonzero"/>
      <path d="m 26.09 24 c 0 1.137 -0.934 2.059 -2.086 2.059 c -1.152 0 -2.09 -0.922 -2.09 -2.059 c 0 -1.137 0.938 -2.059 2.09 -2.059 c 1.152 0 2.086 0.922 2.086 2.059 m 0 0" style="fill:#000;fill-opacity:1;stroke:none;fill-rule:nonzero"/>
     </g>
    </g>
   </g>
  </g>
 </g>
 <g>
  <g>
   <!-- color: #3d3d3d -->
   <g>
    <path d="m 27.08 9.641 l -3.609 10.152 l 14.234 -2.363 c -2.102 -3.992 -5.984 -6.93 -10.625 -7.789 m 0 0" style="fill:#d67019;fill-opacity:1;stroke:none;fill-rule:nonzero"/>
    <path d="m 38.15 19.449 l -10.738 1.988 l 9.199 10.98 c 2.457 -3.797 3.09 -8.586 1.527 -12.969 m 0.012 0" style="fill:#f1e527;fill-opacity:1;stroke:none;fill-rule:nonzero"/>
    <path d="m 35.07 33.809 l -7.121 -8.164 l -5.05 13.344 c 4.566 0.195 9.09 -1.656 12.156 -5.18 m 0.012 0" style="fill:#25a334;fill-opacity:1;stroke:none;fill-rule:nonzero"/>
    <path d="m 20.922 38.36 l 3.617 -10.152 l -14.242 2.363 c 2.109 3.996 5.996 6.934 10.625 7.789 m 0 0" style="fill:#287dd7;fill-opacity:1;stroke:none;fill-rule:nonzero"/>
    <path d="m 9.852 28.559 l 10.734 -1.988 l -9.199 -10.98 c -2.453 3.801 -3.09 8.586 -1.527 12.969 m -0.008 0" style="fill:#b920c1;fill-opacity:1;stroke:none;fill-rule:nonzero"/>
    <path d="m 12.926 14.207 l 7.121 8.164 l 5.05 -13.344 c -4.563 -0.195 -9.09 1.656 -12.152 5.18 m -0.016 0" style="fill:#b21628;fill-opacity:1;stroke:none;fill-rule:nonzero"/>
    <path d="m 26.09 24 c 0 1.137 -0.934 2.059 -2.086 2.059 c -1.152 0 -2.09 -0.922 -2.09 -2.059 c 0 -1.137 0.938 -2.059 2.09 -2.059 c 1.152 0 2.086 0.922 2.086 2.059 m 0 0" style="fill:#f9f9f9;fill-opacity:1;stroke:none;fill-rule:nonzero"/>
   </g>
  </g>
 </g>
 <g>
  
 </g>
</svg>
