<svg viewBox="0 0 48 48" xmlns="http://www.w3.org/2000/svg" xmlns:xlink="http://www.w3.org/1999/xlink">
  <linearGradient id="a" gradientTransform="matrix(0 -1 1 0 -.0000015 47.999998)" gradientUnits="userSpaceOnUse" x1="1" x2="47">
    <stop offset="0" stop-color="#333"/>
    <stop offset="1" stop-color="#3d3d3d"/>
  </linearGradient>
  <path d="m47 24c0 22.703-.297 23-23 23-22.703 0-23-.297-23-23 0-22.703.297-23 23-23 22.703 0 23 .297 23 23z" fill="url(#a)"/>
  <g opacity=".1" transform="translate(1 1)">
    <path d="m27.08 9.641l-3.609 10.152 14.234-2.363c-2.102-3.992-5.984-6.93-10.625-7.789m0 0"/>
    <path d="m38.15 19.449l-10.738 1.988 9.199 10.98c2.457-3.797 3.09-8.586 1.527-12.969m.012 0"/>
    <path d="m35.07 33.809l-7.121-8.164-5.05 13.344c4.566.195 9.09-1.656 12.156-5.18m.012 0"/>
    <path d="m20.922 38.36l3.617-10.152-14.242 2.363c2.109 3.996 5.996 6.934 10.625 7.789m0 0"/>
    <path d="m9.852 28.559l10.734-1.988-9.199-10.98c-2.453 3.801-3.09 8.586-1.527 12.969m-.008 0"/>
    <path d="m12.926 14.207l7.121 8.164 5.05-13.344c-4.563-.195-9.09 1.656-12.152 5.18m-.016 0"/>
    <path d="m26.09 24c0 1.137-.934 2.059-2.086 2.059-1.152 0-2.09-.922-2.09-2.059 0-1.137.938-2.059 2.09-2.059 1.152 0 2.086.922 2.086 2.059m0 0"/>
  </g>
  <path d="m27.08 9.641l-3.609 10.152 14.234-2.363c-2.102-3.992-5.984-6.93-10.625-7.789m0 0" fill="#d67019"/>
  <path d="m38.15 19.449l-10.738 1.988 9.199 10.98c2.457-3.797 3.09-8.586 1.527-12.969m.012 0" fill="#f1e527"/>
  <path d="m35.07 33.809l-7.121-8.164-5.05 13.344c4.566.195 9.09-1.656 12.156-5.18m.012 0" fill="#25a334"/>
  <path d="m20.922 38.36l3.617-10.152-14.242 2.363c2.109 3.996 5.996 6.934 10.625 7.789m0 0" fill="#287dd7"/>
  <path d="m9.852 28.559l10.734-1.988-9.199-10.98c-2.453 3.801-3.09 8.586-1.527 12.969m-.008 0" fill="#b920c1"/>
  <path d="m12.926 14.207l7.121 8.164 5.05-13.344c-4.563-.195-9.09 1.656-12.152 5.18m-.016 0" fill="#b21628"/>
  <path d="m26.09 24c0 1.137-.934 2.059-2.086 2.059-1.152 0-2.09-.922-2.09-2.059 0-1.137.938-2.059 2.09-2.059 1.152 0 2.086.922 2.086 2.059m0 0" fill="#f9f9f9"/>
</svg>
