<svg xmlns="http://www.w3.org/2000/svg" viewBox="0 0 48 48">
 <defs>
  <linearGradient id="linearGradient3764" x1="1" x2="47" gradientUnits="userSpaceOnUse" gradientTransform="matrix(0,-1,1,0,-1.5e-6,47.999998)">
   <stop style="stop-color:#e4e4e4;stop-opacity:1"/>
   <stop offset="1" style="stop-color:#eee;stop-opacity:1"/>
  </linearGradient>
 </defs>
 <g>
  
  
  
 </g>
 <g>
  <path d="m 47,24 C 47,46.703 46.703,47 24,47 1.297,47 1,46.703 1,24 1,1.297 1.297,1 24,1 46.703,1 47,1.297 47,24 z" style="fill:url(#linearGradient3764);fill-opacity:1"/>
 </g>
 <g>
  <g>
   <g transform="translate(1,1)">
    <g style="opacity:0.1">
     <!-- color: #eeeeee -->
     <g>
      <path d="m 25.861 12.996 0.002 0.004 -7.32 4.746 -5.541 7.928 0.336 1.115 3.217 3.16 1.561 0.588 0 0.002 0.008 0.002 0.928 2.057 l 4.352 4.402 l 9.119 -0.004 1.215 -3.256 0 -0.002 1.654 -0.787 l 1.609 -0.477 l 0 -9.125 -4.488 -4.369 -1.98 -0.832 -0.004 -0.004 0.004 0 -0.516 -1.637 -2.875 -2.934 z" transform="translate(-1,-1)"/>
     </g>
    </g>
   </g>
  </g>
 </g>
 <g>
  <g>
   <!-- color: #eeeeee -->
   <g>
    <path d="m 32.414 29.605 -0.988 -1.469 -1.41 -4.738 -0.484 -6.25 1.98 0.833 c 0 0 2.979 2.925 4.488 4.368 l 0 9.125 -1.609 0.477 c -0.844 0.25 -1.641 0.852 -1.656 0.789 l -0.078 -0.313" style="fill:#00a3de;fill-opacity:1;stroke:none;fill-rule:nonzero"/>
    <path d="m 18.05 31.598 -0.93 -2.059 c 1.566 -1.434 5.52 -0.199 5.52 -0.199 l 9.962 3.184 0.188 -0.145 -0.055 0.359 -1.215 3.258 c -3.039 0.004 -6.079 0.004 -9.118 0.004" style="fill:#45c0b9;fill-opacity:1;stroke:none;fill-rule:nonzero"/>
    <path d="m 24.836 24.852 -7.715 -7.707 1.637 6.727 -1.637 5.668 -1.566 -0.59 -3.218 -3.16 -0.336 -1.117 5.121 -7.524 6.07 -0.676 6.164 0.512 0.176 0.164 c 0.063 0.059 1.082 2.891 2.27 6.238 l 2.16 6.09 -1.227 3.262 c -1.289 0.445 -4.09 -3.508 -7.898 -7.887" style="fill:#0071ba;fill-opacity:1;stroke:none;fill-rule:nonzero"/>
    <path d="m 24.863 12 c -0.199 0 -6.01 3.793 -7.32 4.746 -0.023 0 -0.426 0.398 -0.426 0.398 l 12.215 0 0.199 0 c -0.164 -0.548 -0.515 -1.636 -0.515 -1.636 l -2.876 -2.934 -0.551 -0.289 c -0.305 -0.156 -0.629 -0.289 -0.727 -0.289 m -7.746 5.148 0 12.395 12.29 4.348 3.328 -1.148 c -5.371 -5.477 -9.777 -9.762 -15.617 -15.594" style="fill:#01b1a9;fill-opacity:1;stroke:none;fill-rule:nonzero"/>
   </g>
  </g>
 </g>
 <g>
  
 </g>
</svg>
