<svg viewBox="0 0 48 48" xmlns="http://www.w3.org/2000/svg" xmlns:xlink="http://www.w3.org/1999/xlink">
  <linearGradient id="a" gradientUnits="userSpaceOnUse" x2="0" y1="47" y2="1">
    <stop offset="0" stop-color="#66da3e"/>
    <stop offset="1" stop-color="#75de4f"/>
  </linearGradient>
  <path d="m47 24c0 22.703-.297 23-23 23-22.703 0-23-.297-23-23 0-22.703.297-23 23-23 22.703 0 23 .297 23 23z" fill="url(#a)"/>
  <path d="m13 16h9v-4h4v4h9v4h-9v4h4v12h-4v-8h-4v8h-4v-12h4v-4h-9m0-4" opacity=".1" transform="translate(1 1)"/>
  <path d="m13 16h9v-4h4v4h9v4h-9v4h4v12h-4v-8h-4v8h-4v-12h4v-4h-9m0-4" fill="#2d2d2d"/>
</svg>
