<svg xmlns="http://www.w3.org/2000/svg" viewBox="0 0 48 48">
 <defs>
  <linearGradient id="linearGradient3764" y1="47" x2="0" y2="1" gradientUnits="userSpaceOnUse">
   <stop style="stop-color:#66da3e;stop-opacity:1"/>
   <stop offset="1" style="stop-color:#75de4f;stop-opacity:1"/>
  </linearGradient>
 </defs>
 <g>
  
  
  
 </g>
 <g>
  <path d="m 47,24 C 47,46.703 46.703,47 24,47 1.297,47 1,46.703 1,24 1,1.297 1.297,1 24,1 46.703,1 47,1.297 47,24 z" style="fill:url(#linearGradient3764);fill-opacity:1"/>
 </g>
 <g>
  <g>
   <g transform="translate(1,1)">
    <g style="opacity:0.1">
     <!-- color: #75de4f -->
     <g>
      <path d="m 13 16 l 9 0 l 0 -4 l 4 0 l 0 4 l 9 0 l 0 4 l -9 0 l 0 4 l 4 0 l 0 12 l -4 0 l 0 -8 l -4 0 l 0 8 l -4 0 l 0 -12 l 4 0 l 0 -4 l -9 0 m 0 -4" style="fill:#000;fill-opacity:1;stroke:none;fill-rule:nonzero"/>
     </g>
    </g>
   </g>
  </g>
 </g>
 <g>
  <g>
   <!-- color: #75de4f -->
   <g>
    <path d="m 13 16 l 9 0 l 0 -4 l 4 0 l 0 4 l 9 0 l 0 4 l -9 0 l 0 4 l 4 0 l 0 12 l -4 0 l 0 -8 l -4 0 l 0 8 l -4 0 l 0 -12 l 4 0 l 0 -4 l -9 0 m 0 -4" style="fill:#2d2d2d;fill-opacity:1;stroke:none;fill-rule:nonzero"/>
   </g>
  </g>
 </g>
 <g>
  
 </g>
</svg>
