<svg viewBox="0 0 48 48" xmlns="http://www.w3.org/2000/svg" xmlns:xlink="http://www.w3.org/1999/xlink">
  <linearGradient id="a" gradientTransform="matrix(0 -1 1 0 -.0000015 47.999998)" gradientUnits="userSpaceOnUse" x1="1" x2="47">
    <stop offset="0" stop-color="#d19a89"/>
    <stop offset="1" stop-color="#d7a697"/>
  </linearGradient>
  <path d="m47 24c0 22.703-.297 23-23 23-22.703 0-23-.297-23-23 0-22.703.297-23 23-23 22.703 0 23 .297 23 23z" fill="url(#a)"/>
  <g transform="translate(.00030597)">
    <path d="m23.659 13c-1.065-.011-2.136.195-3.357.422-2.988.554-5.848 3.01-7.172 5.461-1.121 2.074-1.461 4.646-.777 7.861 0 .035.004.1 0 .139-.047 1.469.359 3.535 1.602 5.461 1.273 1.973 3.465 3.783 6.852 4.482 1.41.289 2.785.25 3.836-.371 1.051-.621 1.549-1.65 1.355-3.451-.138-1.285-.671-2.797-1.859-4.04.68-.52 1.152-1.203 1.461-1.898.391-.875.727-1.66 1.508-2.219.883-.438 1.676-.68 2.375-.695.707-.016 1.249.193 1.871.695.454.366.971.684 1.418.832 1.03.341 1.734.417 2.242-.279.634-.87.118-1.785-.218-2.359.202.14.667.291.991.277.797-.033 1.722-.605 1.965-1.711.276-1.258.355-2.539.094-3.699-.262-1.164-.808-2.348-1.965-3.055-1.014-.62-2.24-.815-3.242-.85-1.063-.036-2.148.208-3.152.943-1.914-1.137-3.391-1.737-4.75-1.895-.365-.042-.745-.049-1.076-.053z" fill-rule="evenodd" opacity=".1"/>
    <path d="m22.662 11.996c-1.065-.011-2.136.195-3.357.422-2.988.554-5.848 3.01-7.172 5.461-1.121 2.074-1.461 4.646-.777 7.861 0 .035.004.1 0 .139-.047 1.469.359 3.535 1.602 5.461 1.273 1.973 3.465 3.783 6.852 4.482 1.41.289 2.785.25 3.836-.371 1.051-.621 1.549-1.65 1.355-3.451-.138-1.285-.671-2.797-1.859-4.04.68-.52 1.152-1.203 1.461-1.898.391-.875.727-1.66 1.508-2.219.883-.438 1.676-.68 2.375-.695.707-.016 1.249.193 1.871.695.454.366.971.684 1.418.832 1.03.341 1.734.417 2.242-.279.634-.87.118-1.785-.218-2.359.202.14.667.291.991.277.797-.033 1.722-.605 1.965-1.711.276-1.258.355-2.539.094-3.699-.262-1.164-.808-2.348-1.965-3.055-1.014-.62-2.24-.815-3.242-.85-1.063-.036-2.148.208-3.152.943-1.914-1.137-3.391-1.737-4.75-1.895-.365-.042-.745-.049-1.076-.053z" fill="#2d2d2d" fill-rule="evenodd" transform="translate(-.00030597)"/>
    <path d="m22.648 12.975c-.954.002-1.936.185-3.16.412-2.563.475-5.279 2.856-6.438 4.996-1.022 1.888-1.376 4.207-.688 7.309.008.047.008.094 0 .141-.062 1.23.273 3.175 1.418 4.945 1.145 1.776 3.07 3.379 6.211 4.03 1.277.261 2.439.229 3.15-.189.707-.418 1.024-1.064.857-2.619-.131-1.222-.521-2.479-1.865-3.717-2.01-1.47 1.788-4.635 3.473-5.32.98-.492 1.906-.812 2.832-.832.914-.019 1.767.343 2.561.969.331.261.8.478 1.141.645.315.154.745.248.914 0 .313-.46.176-1.012 0-1.293-.191-.307-.5-.695-.938-1-1.617-1.127-3.252-1.883-4.752-2.127.867-.629 2.206-.486 3.293-.066.636.245 1.072.597 1.846 1.244.65.544 1.547.701 2.242.793.295.039.863-.309 1-.93.258-1.164.356-2.273.141-3.234-.219-.957-.652-1.827-1.602-2.453-.763-.503-1.754-.649-2.695-.678-.953-.029-1.859.138-2.738.865-.168.149-.41.164-.594.047-2.01-1.231-3.383-1.753-4.66-1.895-.321-.036-.653-.044-.949-.043z" fill="#a33334" fill-rule="evenodd" transform="translate(-.00030597)"/>
    <path d="m23.678 21.04c0 .001 0 .003 0 .004.001-.001.001-.003.002-.004zm0 .004c-.322.687-.359 1.393-.105 1.938-1.227 2.672-4.02 2.848-5.66 2.383-1.355-.383-2.883-1.186-3.879-2.443.802 3.772 4.87 3.4 8.23 5.492-.045-.043-.082-.086-.129-.129-.195-.183-.215-.486-.043-.693.047-.059.11-.108.18-.139.727-.313.996-.964 1.418-1.805.592-1.178 1.036-2.119 1.918-2.684.455-.291.951-.442 1.414-.586-2.445.653-3.136.1-3.344-1.334z" fill="#f9f9f9" fill-rule="evenodd" transform="translate(-.00030597)"/>
    <path d="m14.301 26.805c.391 2.508 5.605 3.164 6.215 5.68-2.508-1.914-6.813-2.32-6.215-5.68m0 0" fill="#f9f9f9" fill-rule="evenodd"/>
    <path d="m34.25 16.4c-.413 0-.752.334-.752.748 0 .414.338.752.752.752.414 0 .748-.338.748-.752 0-.414-.334-.748-.748-.748z" fill="#f9f9f9"/>
    <path d="m21.934 13.922c-.96-.003-1.846.451-2.527 1.047 1.438-.328 2.813-.652 4.309-.48-.602-.399-1.205-.565-1.781-.566zm3.326 1.178c-.751-.012-1.488.236-2.111.598 1.477-.047 2.879-.094 4.316.363-.688-.676-1.454-.949-2.205-.961zm-6.826.445c-1.205.009-2.191.735-2.848 1.6 1.34-.613 2.621-1.211 4.121-1.348-.446-.178-.872-.255-1.273-.252zm3.441.455c-.96-.022-1.853.416-2.541 1 1.446-.305 2.82-.596 4.314-.395-.596-.412-1.197-.592-1.773-.605zm-3.02 1.846c-1.51.107-2.473 1.217-2.959 2.393 1.137-.941 2.227-1.852 3.641-2.375-.238-.028-.466-.033-.682-.018zm-3.236.139c-1.758.781-2.152 2.473-1.961 3.914.512-1.398 1-2.738 1.961-3.914zm6.555 5.539c-1.117.969-2.184 1.906-3.586 2.465 1.91.18 3.066-1.109 3.586-2.465zm-1.746.523c-1.348.598-2.637 1.176-4.141 1.293 1.777.738 3.25-.152 4.141-1.293z" fill="#f9f9f9" fill-rule="evenodd" transform="translate(-.00030597)"/>
  </g>
</svg>
