<svg xmlns="http://www.w3.org/2000/svg" viewBox="0 0 48 48">
 <defs>
  <linearGradient id="linearGradient3764" x1="1" x2="47" gradientUnits="userSpaceOnUse" gradientTransform="matrix(0,-1,1,0,-1.5e-6,47.999998)">
   <stop style="stop-color:#333;stop-opacity:1"/>
   <stop offset="1" style="stop-color:#3d3d3d;stop-opacity:1"/>
  </linearGradient>
 </defs>
 <g>
  
  
  
 </g>
 <g>
  <path d="m 47,24 C 47,46.703 46.703,47 24,47 1.297,47 1,46.703 1,24 1,1.297 1.297,1 24,1 46.703,1 47,1.297 47,24 z" style="fill:url(#linearGradient3764);fill-opacity:1"/>
 </g>
 <g>
  <g>
   <g transform="translate(1,1)">
    <g style="opacity:0.1">
     <!-- color: #3d3d3d -->
    </g>
   </g>
  </g>
 </g>
 <g>
  <g>
   <!-- color: #3d3d3d -->
  </g>
 </g>
 <g>
  
 </g>
 <path d="m 25 12 c -4 0 -13 9 -13 13 0 4 9 13 13 13 4 0 13 -9 13 -13 0 -4 -9 -13 -13 -13 z m -4 5 13 8 -13 8 0 -2 10 -6 -5 -3 -5 3 z" style="fill:#000;opacity:0.1;fill-opacity:1;stroke:none"/>
 <path d="m 24 11 c -4 0 -13 9 -13 13 0 4 9 13 13 13 4 0 13 -9 13 -13 0 -4 -9 -13 -13 -13 z m -4 5 13 8 -13 8 0 -2 10 -6 -5 -3 -5 3 z" style="fill:#69cf4c;opacity:1;fill-opacity:1;stroke:none"/>
</svg>
