<svg viewBox="0 0 48 48" xmlns="http://www.w3.org/2000/svg" xmlns:xlink="http://www.w3.org/1999/xlink">
  <linearGradient id="a" gradientTransform="matrix(0 -1 1 0 -.0000015 47.999998)" gradientUnits="userSpaceOnUse" x1="1" x2="47">
    <stop offset="0" stop-color="#1d4ce3"/>
    <stop offset="1" stop-color="#2f5ae5"/>
  </linearGradient>
  <path d="m47 24c0 22.703-.297 23-23 23-22.703 0-23-.297-23-23 0-22.703.297-23 23-23 22.703 0 23 .297 23 23z" fill="url(#a)"/>
  <path d="m15 13v3h2v18h-2v3h10v-24zm11 0v3h1a1 1 0 0 1 1 1v16a1 1 0 0 1-1 1h-1v3h4c3 0 7-5 7-12 0-7-4-12-8-12z" opacity=".1"/>
  <path d="m14 12v3h2v18h-2v3h10v-24zm11 0v3h1a1 1 0 0 1 1 1v16a1 1 0 0 1-1 1h-1v3h4c3 0 7-5 7-12 0-7-4-12-8-12z" fill="#e73939"/>
</svg>
