<svg xmlns="http://www.w3.org/2000/svg" viewBox="0 0 48 48">
 <defs>
  <linearGradient id="linearGradient3764" x1="1" x2="47" gradientUnits="userSpaceOnUse" gradientTransform="matrix(0,-1,1,0,-1.5e-6,47.999998)">
   <stop style="stop-color:#1d4ce3;stop-opacity:1"/>
   <stop offset="1" style="stop-color:#2f5ae5;stop-opacity:1"/>
  </linearGradient>
 </defs>
 <g>
  
  
  
 </g>
 <g>
  <path d="m 47,24 C 47,46.703 46.703,47 24,47 1.297,47 1,46.703 1,24 1,1.297 1.297,1 24,1 46.703,1 47,1.297 47,24 z" style="fill:url(#linearGradient3764);fill-opacity:1"/>
 </g>
 <g>
  
 </g>
 <path d="m 15 13 0 3 2 0 0 18 -2 0 0 3 10 0 0 -24 -10 0 z m 11 0 0 3 1 0 a 1 1 0 0 1 1 1 l 0 16 a 1 1 0 0 1 -1 1 l -1 0 0 3 4 0 c 3 0 7 -5 7 -12 0 -7 -4 -12 -8 -12 l -3 0 z" style="fill:#000;opacity:0.1;fill-opacity:1;stroke:none"/>
 <path d="m 14 12 l 0 3 l 2 0 l 0 18 l -2 0 l 0 3 l 10 0 l 0 -24 l -10 0 z m 11 0 l 0 3 l 1 0 a 1 1 0 0 1 1 1 l 0 16 a 1 1 0 0 1 -1 1 l -1 0 l 0 3 l 4 0 c 3 0 7 -5 7 -12 c 0 -7 -4 -12 -8 -12 l -3 0 z" style="fill:#e73939;opacity:1;fill-opacity:1;stroke:none"/>
</svg>
