<svg viewBox="0 0 48 48" xmlns="http://www.w3.org/2000/svg" xmlns:xlink="http://www.w3.org/1999/xlink">
  <linearGradient id="a" gradientTransform="matrix(0 -1 1 0 -.0000015 47.999998)" gradientUnits="userSpaceOnUse" x1="1" x2="47">
    <stop offset="0" stop-color="#9f298a"/>
    <stop offset="1" stop-color="#af2d97"/>
  </linearGradient>
  <path d="m47 24c0 22.703-.297 23-23 23-22.703 0-23-.297-23-23 0-22.703.297-23 23-23 22.703 0 23 .297 23 23z" fill="url(#a)"/>
  <path d="m35.33 24.766c-.57-.668-1.266-1.199-2.023-1.59.586-2.387.543-5.5-1.156-7.961.191-.527.074-1.145-.359-1.559-1.82-1.762-4.5-2.656-7.785-2.656-3.285 0-5.969.891-7.789 2.656-.43.418-.551 1.031-.359 1.559-1.695 2.461-1.742 5.574-1.152 7.961-.762.391-1.453.922-2.035 1.59-1.191 1.363-1.777 3.109-1.652 4.918.242 3.539 3.211 6.316 6.754 6.316.156 0 .313-.008.469-.02.234-.016.449-.121.605-.301.152-.176.23-.406.215-.637l-.805-11.766c-.031-.488-.457-.852-.938-.82-.32.023-.629.074-.934.137-.438-1.93-.398-4.488.957-6.418.336-.023.66-.152.918-.406 1.254-1.215 3.25-1.828 5.75-1.828 2.492 0 4.492.617 5.746 1.828.258.254.586.383.918.406 1.355 1.934 1.395 4.488.961 6.418-.309-.063-.617-.113-.938-.137-.48-.031-.906.332-.938.82l-.813 11.766c-.02.234.066.465.215.637.152.18.371.285.605.301.156.012.313.02.469.02 3.543 0 6.508-2.773 6.754-6.316.125-1.809-.461-3.543-1.645-4.918m-.016 0" opacity=".1" transform="translate(1 1)"/>
  <path d="m35.33 24.766c-.57-.668-1.266-1.199-2.023-1.59.586-2.387.543-5.5-1.156-7.961.191-.527.074-1.145-.359-1.559-1.82-1.762-4.5-2.656-7.785-2.656-3.285 0-5.969.891-7.789 2.656-.43.418-.551 1.031-.359 1.559-1.695 2.461-1.742 5.574-1.152 7.961-.762.391-1.453.922-2.035 1.59-1.191 1.363-1.777 3.109-1.652 4.918.242 3.539 3.211 6.316 6.754 6.316.156 0 .313-.008.469-.02.234-.016.449-.121.605-.301.152-.176.23-.406.215-.637l-.805-11.766c-.031-.488-.457-.852-.938-.82-.32.023-.629.074-.934.137-.438-1.93-.398-4.488.957-6.418.336-.023.66-.152.918-.406 1.254-1.215 3.25-1.828 5.75-1.828 2.492 0 4.492.617 5.746 1.828.258.254.586.383.918.406 1.355 1.934 1.395 4.488.961 6.418-.309-.063-.617-.113-.938-.137-.48-.031-.906.332-.938.82l-.813 11.766c-.02.234.066.465.215.637.152.18.371.285.605.301.156.012.313.02.469.02 3.543 0 6.508-2.773 6.754-6.316.125-1.809-.461-3.543-1.645-4.918m-.016 0" fill="#f9f9f9"/>
</svg>
