<svg xmlns="http://www.w3.org/2000/svg" viewBox="0 0 48 48">
 <defs>
  <linearGradient id="linearGradient3764" x1="1" x2="47" gradientUnits="userSpaceOnUse" gradientTransform="matrix(0,-1,1,0,-1.5e-6,47.999998)">
   <stop style="stop-color:#e4e4e4;stop-opacity:1"/>
   <stop offset="1" style="stop-color:#eee;stop-opacity:1"/>
  </linearGradient>
  <linearGradient id="linear0" gradientUnits="userSpaceOnUse" y1="10.126" x2="0" y2="3.669" gradientTransform="matrix(3.543307,0,0,3.543307,0,0)">
   <stop style="stop-color:#008ef3;stop-opacity:1"/>
   <stop offset="1" style="stop-color:#00d4ff;stop-opacity:1"/>
  </linearGradient>
 </defs>
 <g>
  
  
  
 </g>
 <g>
  <path d="m 47,24 C 47,46.703 46.703,47 24,47 1.297,47 1,46.703 1,24 1,1.297 1.297,1 24,1 46.703,1 47,1.297 47,24 z" style="fill:url(#linearGradient3764);fill-opacity:1"/>
 </g>
 <g>
  <g>
   <g transform="translate(1,1)">
    <g style="opacity:0.1">
     <!-- color: #eeeeee -->
     <g>
      <path d="m 27.938 12 c -0.961 0.035 -1.938 0.305 -2.938 0.969 l 0 12 c -1.848 -1.73 -4.66 -1.996 -7.719 -0.844 c -3.953 1.492 -6.145 5.215 -4.938 8.313 c 1.207 3.098 5.359 4.398 9.313 2.906 c 3.113 -1.176 5.211 -3.699 5.344 -6.25 l 0 -12.12 c 0.094 -0.078 1.203 -0.539 4 0 c 3 0 5 -3 5 -3 c -2.461 -0.031 -5.176 -2.07 -8.06 -1.969 m -8.941 13.996 c 2.43 0.012 3.996 2.172 4 4 c 0 3 -3 4 -4 4 l 0 -2 c 3.355 -0.336 2.258 -4.871 -1 -4 l 0 6 l -2 0 l 0 -6.438 c 0 -0.547 1 -1.563 3 -1.563 m 0 0" style="fill:#000;stroke:none;fill-rule:nonzero"/>
     </g>
    </g>
   </g>
  </g>
 </g>
 <g>
  <g>
   <!-- color: #eeeeee -->
   <g>
    <path d="m 27.938 12 c -0.961 0.035 -1.938 0.305 -2.938 0.969 l 0 12 c -1.848 -1.73 -4.66 -1.996 -7.719 -0.844 c -3.953 1.492 -6.145 5.215 -4.938 8.313 c 1.207 3.098 5.359 4.398 9.313 2.906 c 3.113 -1.176 5.211 -3.699 5.344 -6.25 l 0 -12.12 c 0.094 -0.078 1.203 -0.539 4 0 c 3 0 5 -3 5 -3 c -2.461 -0.031 -5.176 -2.07 -8.06 -1.969 m -8.941 13.996 c 2.43 0.012 3.996 2.172 4 4 c 0 3 -3 4 -4 4 l 0 -2 c 3.355 -0.336 2.258 -4.871 -1 -4 l 0 6 l -2 0 l 0 -6.438 c 0 -0.547 1 -1.563 3 -1.563 m 0 0" style="fill:url(#linear0);stroke:none;fill-rule:nonzero"/>
   </g>
  </g>
 </g>
 <g>
  
 </g>
</svg>
