<svg viewBox="0 0 48 48" xmlns="http://www.w3.org/2000/svg" xmlns:xlink="http://www.w3.org/1999/xlink">
  <linearGradient id="a" gradientTransform="matrix(0 -1 1 0 -.0000015 47.999998)" gradientUnits="userSpaceOnUse" x1="1" x2="47">
    <stop offset="0" stop-color="#e4e4e4"/>
    <stop offset="1" stop-color="#eee"/>
  </linearGradient>
  <linearGradient id="b" gradientTransform="scale(3.543307)" gradientUnits="userSpaceOnUse" x2="0" y1="10.126" y2="3.669">
    <stop offset="0" stop-color="#008ef3"/>
    <stop offset="1" stop-color="#00d4ff"/>
  </linearGradient>
  <path d="m47 24c0 22.703-.297 23-23 23-22.703 0-23-.297-23-23 0-22.703.297-23 23-23 22.703 0 23 .297 23 23z" fill="url(#a)"/>
  <path d="m27.938 12c-.961.035-1.938.305-2.938.969v12c-1.848-1.73-4.66-1.996-7.719-.844-3.953 1.492-6.145 5.215-4.938 8.313 1.207 3.098 5.359 4.398 9.313 2.906 3.113-1.176 5.211-3.699 5.344-6.25v-12.12c.094-.078 1.203-.539 4 0 3 0 5-3 5-3-2.461-.031-5.176-2.07-8.06-1.969m-8.941 13.996c2.43.012 3.996 2.172 4 4 0 3-3 4-4 4v-2c3.355-.336 2.258-4.871-1-4v6h-2v-6.438c0-.547 1-1.563 3-1.563m0 0" opacity=".1" transform="translate(1 1)"/>
  <path d="m27.938 12c-.961.035-1.938.305-2.938.969v12c-1.848-1.73-4.66-1.996-7.719-.844-3.953 1.492-6.145 5.215-4.938 8.313 1.207 3.098 5.359 4.398 9.313 2.906 3.113-1.176 5.211-3.699 5.344-6.25v-12.12c.094-.078 1.203-.539 4 0 3 0 5-3 5-3-2.461-.031-5.176-2.07-8.06-1.969m-8.941 13.996c2.43.012 3.996 2.172 4 4 0 3-3 4-4 4v-2c3.355-.336 2.258-4.871-1-4v6h-2v-6.438c0-.547 1-1.563 3-1.563m0 0" fill="url(#b)"/>
</svg>
