<svg xmlns="http://www.w3.org/2000/svg" viewBox="0 0 48 48">
 <defs>
  <linearGradient id="linearGradient3764" x1="1" x2="47" gradientUnits="userSpaceOnUse" gradientTransform="matrix(0,-1,1,0,-1.5e-6,47.999998)">
   <stop style="stop-color:#333;stop-opacity:1"/>
   <stop offset="1" style="stop-color:#3d3d3d;stop-opacity:1"/>
  </linearGradient>
 </defs>
 <g>
  
  
  
 </g>
 <g>
  <path d="m 47,24 C 47,46.703 46.703,47 24,47 1.297,47 1,46.703 1,24 1,1.297 1.297,1 24,1 46.703,1 47,1.297 47,24 z" style="fill:url(#linearGradient3764);fill-opacity:1"/>
 </g>
 <g transform="translate(0.0033221,0.002863)">
  <g>
   <!-- color: #3d3d3d -->
   <g>
    <path d="m 25 9.997 c -8.275 0 -15 6.729 -15 15 0 8.271 6.729 14.996 15 14.996 8.272 0 14.996 -6.725 14.996 -14.996 0 -8.275 -6.725 -15 -14.996 -15 z m 0 2 c 7.192 0 12.996 5.809 12.996 13 0 7.191 -5.805 12.996 -12.996 12.996 -7.195 0 -13 -5.804 -13 -12.996 0 -7.196 5.808 -13 13 -13 z m -3.504 1.398 c -4.934 1.492 -8.541 6.05 -8.604 11.457 l 8.277 0.027 c -0.27 -1.488 1.152 -3.191 2.59 -3.621 l -2.264 -7.863 z m 7.04 0.027 0.002 0.004 -2.271 7.836 c 1.414 0.242 2.621 2.254 2.359 3.707 l 8.48 0.029 c 0 -5.457 -3.609 -10.06 -8.57 -11.576 z m -3.566 8.916 c -1.364 0 -2.473 1.106 -2.473 2.477 0 1.364 1.106 2.473 2.473 2.473 1.368 0 2.479 -1.106 2.479 -2.473 0 -1.368 -1.108 -2.477 -2.479 -2.477 z m -2.26 5.395 -0.004 0.004 -5.125 6.832 c 2.051 1.586 4.629 2.531 7.426 2.531 2.715 0 5.223 -0.902 7.246 -2.414 l -5.125 -6.953 c -1.027 1.199 -3.254 1.078 -4.418 0 z" style="fill:#000;fill-opacity:0.098;stroke:none;fill-rule:nonzero"/>
    <path d="m 21.703 26.738 -5.125 6.832 c 2.051 1.586 4.629 2.531 7.426 2.531 2.715 0 5.223 -0.902 7.246 -2.414 l -5.125 -6.953 c -1.027 1.199 -3.254 1.078 -4.418 0 m -0.004 0.004" style="fill:#f84545;fill-opacity:1;stroke:none;fill-rule:nonzero"/>
    <path d="m 26.445 23.816 c 0 1.367 -1.109 2.473 -2.477 2.473 -1.367 0 -2.473 -1.109 -2.473 -2.473 0 -1.371 1.109 -2.477 2.473 -2.477 1.371 0 2.477 1.109 2.477 2.477 m 0 0" style="fill:#ffc800;fill-opacity:1;stroke:none;fill-rule:nonzero"/>
    <path d="m 27.535,12.426 -2.27,7.836 c 1.414,0.242 2.621,2.254 2.359,3.707 L 36.104,24 c 0,-5.457 -3.609,-10.06 -8.57,-11.578 m 0,0.004" style="fill:#f84545;fill-opacity:1;stroke:none;fill-rule:nonzero"/>
    <path d="m 20.496 12.395 c -4.934 1.492 -8.539 6.05 -8.602 11.457 l 8.277 0.027 c -0.27 -1.488 1.152 -3.191 2.59 -3.621 m -2.266 -7.863" style="fill:#f84545;fill-opacity:1;stroke:none;fill-rule:nonzero"/>
    <path d="m 24 8.997 c -8.275 0 -15 6.729 -15 15 0 8.271 6.729 14.997 15 14.997 8.272 0 14.997 -6.725 14.997 -14.997 0 -8.275 -6.726 -15 -14.997 -15 z m 0 2 c 7.192 0 12.997 5.808 12.997 13 0 7.191 -5.805 12.997 -12.997 12.997 -7.195 0 -13 -5.805 -13 -12.997 0 -7.196 5.808 -13 13 -13 z" mix-blend-mode="normal" isolation="auto" white-space="normal" solid-opacity="1" solid-color="#000000" style="visibility:visible;shape-rendering:auto;color-interpolation-filters:linearRGB;fill:#ffc800;opacity:1;image-rendering:auto;fill-opacity:1;stroke:none;display:inline;color:#000;fill-rule:nonzero;color-rendering:auto;color-interpolation:sRGB"/>
   </g>
  </g>
 </g>
 <g>
  
 </g>
</svg>
