<svg viewBox="0 0 48 48" xmlns="http://www.w3.org/2000/svg" xmlns:xlink="http://www.w3.org/1999/xlink">
  <linearGradient id="a" gradientTransform="matrix(0 -1 1 0 -.0000015 47.999998)" gradientUnits="userSpaceOnUse" x1="1" x2="47">
    <stop offset="0" stop-color="#333"/>
    <stop offset="1" stop-color="#3d3d3d"/>
  </linearGradient>
  <path d="m47 24c0 22.703-.297 23-23 23-22.703 0-23-.297-23-23 0-22.703.297-23 23-23 22.703 0 23 .297 23 23z" fill="url(#a)"/>
  <g transform="translate(.0033221 .002863)">
    <path d="m25 9.997c-8.275 0-15 6.729-15 15 0 8.271 6.729 14.996 15 14.996 8.272 0 14.996-6.725 14.996-14.996 0-8.275-6.725-15-14.996-15zm0 2c7.192 0 12.996 5.809 12.996 13 0 7.191-5.805 12.996-12.996 12.996-7.195 0-13-5.804-13-12.996 0-7.196 5.808-13 13-13zm-3.504 1.398c-4.934 1.492-8.541 6.05-8.604 11.457l8.277.027c-.27-1.488 1.152-3.191 2.59-3.621l-2.264-7.863zm7.04.027l.002.004-2.271 7.836c1.414.242 2.621 2.254 2.359 3.707l8.48.029c0-5.457-3.609-10.06-8.57-11.576zm-3.566 8.916c-1.364 0-2.473 1.106-2.473 2.477 0 1.364 1.106 2.473 2.473 2.473 1.368 0 2.479-1.106 2.479-2.473 0-1.368-1.108-2.477-2.479-2.477zm-2.26 5.395l-.004.004-5.125 6.832c2.051 1.586 4.629 2.531 7.426 2.531 2.715 0 5.223-.902 7.246-2.414l-5.125-6.953c-1.027 1.199-3.254 1.078-4.418 0z" fill-opacity=".098"/>
    <path d="m21.703 26.738l-5.125 6.832c2.051 1.586 4.629 2.531 7.426 2.531 2.715 0 5.223-.902 7.246-2.414l-5.125-6.953c-1.027 1.199-3.254 1.078-4.418 0m-.004.004" fill="#f84545"/>
    <path d="m26.445 23.816c0 1.367-1.109 2.473-2.477 2.473-1.367 0-2.473-1.109-2.473-2.473 0-1.371 1.109-2.477 2.473-2.477 1.371 0 2.477 1.109 2.477 2.477m0 0" fill="#ffc800"/>
    <path d="m27.535 12.426l-2.27 7.836c1.414.242 2.621 2.254 2.359 3.707l8.48.031c0-5.457-3.609-10.06-8.57-11.578m0 .004" fill="#f84545"/>
    <path d="m20.496 12.395c-4.934 1.492-8.539 6.05-8.602 11.457l8.277.027c-.27-1.488 1.152-3.191 2.59-3.621m-2.266-7.863" fill="#f84545"/>
    <path d="m24 8.997c-8.275 0-15 6.729-15 15 0 8.271 6.729 14.997 15 14.997 8.272 0 14.997-6.725 14.997-14.997 0-8.275-6.726-15-14.997-15zm0 2c7.192 0 12.997 5.808 12.997 13 0 7.191-5.805 12.997-12.997 12.997-7.195 0-13-5.805-13-12.997 0-7.196 5.808-13 13-13z" fill="#ffc800"/>
  </g>
</svg>
