<svg xmlns="http://www.w3.org/2000/svg" viewBox="0 0 48 48">
 <defs>
  <linearGradient id="linearGradient3764" x1="1" x2="47" gradientUnits="userSpaceOnUse" gradientTransform="matrix(0,-1,1,0,-1.5e-6,47.999998)">
   <stop style="stop-color:#333;stop-opacity:1"/>
   <stop offset="1" style="stop-color:#3d3d3d;stop-opacity:1"/>
  </linearGradient>
 </defs>
 <g>
  
  
  
 </g>
 <g>
  <path d="m 47,24 C 47,46.703 46.703,47 24,47 1.297,47 1,46.703 1,24 1,1.297 1.297,1 24,1 46.703,1 47,1.297 47,24 z" style="fill:url(#linearGradient3764);fill-opacity:1"/>
 </g>
 <g>
  <g>
   <g transform="translate(1,1)">
    <g style="opacity:0.1">
     <!-- color: #3d3d3d -->
     <g>
      <path d="m 31 9.994 c -3.995 0.012 -8 0.006 -12 0.006 l -6 7 -3 -3 -0.004 16.867 0.004 0.004 9 9.129 l 11 0 7 -7 3 3 0 -16.902 z m -6.967 6.438 8.254 8.568 -3.287 0 3 3 -6.254 5.773 -9.877 -8.771 0.002 -0.002 5.129 0 -3 -3" transform="translate(-1,-1)"/>
     </g>
    </g>
   </g>
  </g>
 </g>
 <g>
  <g>
   <!-- color: #3d3d3d -->
   <g>
    <path d="M 31.746,24.477 23,15.397 l 7,-6.402 9,9.102 0,5.898 m -7.258,0.48" style="fill:#cf9c28;fill-opacity:1;stroke:none;fill-rule:nonzero"/>
    <path d="m 18 39 7 -6 -10.133 -9 -5.871 0 0 5.867 m 9 9.133" style="fill:#7fa336;fill-opacity:1;stroke:none;fill-rule:nonzero"/>
    <path d="M 9,24 20,24 17,21 30,9 18,9 12,16 9,13 m 0,11" style="fill:#e4c84c;fill-opacity:1;stroke:none;fill-rule:nonzero"/>
    <path d="m 18 39 13 -12 -3 -3 11 0 0 11 -3 -3 -7 7 m -11 0" style="fill:#abcc5b;fill-opacity:1;stroke:none;fill-rule:nonzero"/>
    <path d="M 9,29.871 14.871,24 9,24 m 0,5.871" style="fill:#5f7827;fill-opacity:1;stroke:none;fill-rule:nonzero"/>
    <path d="m 23,15.398 13.328,0 L 30,9 m -7,6.398" style="fill:#9b7520;fill-opacity:1;stroke:none;fill-rule:nonzero"/>
   </g>
  </g>
 </g>
 <g>
  
 </g>
</svg>
