<svg viewBox="0 0 48 48" xmlns="http://www.w3.org/2000/svg" xmlns:xlink="http://www.w3.org/1999/xlink">
  <linearGradient id="a" gradientTransform="matrix(0 -1 1 0 -.0000015 47.999998)" gradientUnits="userSpaceOnUse" x1="1" x2="47">
    <stop offset="0" stop-color="#333"/>
    <stop offset="1" stop-color="#3d3d3d"/>
  </linearGradient>
  <path d="m47 24c0 22.703-.297 23-23 23-22.703 0-23-.297-23-23 0-22.703.297-23 23-23 22.703 0 23 .297 23 23z" fill="url(#a)"/>
  <path d="m31 9.994c-3.995.012-8 .006-12 .006l-6 7-3-3-.004 16.867.004.004 9 9.129h11l7-7 3 3v-16.902zm-6.967 6.438l8.254 8.568h-3.287l3 3-6.254 5.773-9.877-8.771.002-.002h5.129l-3-3" opacity=".1" transform=""/>
  <path d="m31.746 24.477l-8.746-9.08 7-6.402 9 9.102v5.898m-7.258.48" fill="#cf9c28"/>
  <path d="m18 39l7-6-10.133-9h-5.871v5.867m9 9.133" fill="#7fa336"/>
  <path d="m9 24h11l-3-3 13-12h-12l-6 7-3-3m0 11" fill="#e4c84c"/>
  <path d="m18 39l13-12-3-3h11v11l-3-3-7 7m-11 0" fill="#abcc5b"/>
  <path d="m9 29.871l5.871-5.871h-5.871m0 5.871" fill="#5f7827"/>
  <path d="m23 15.398h13.328l-6.328-6.398m-7 6.398" fill="#9b7520"/>
</svg>
