<svg viewBox="0 0 48 48" xmlns="http://www.w3.org/2000/svg" xmlns:xlink="http://www.w3.org/1999/xlink">
  <linearGradient id="a" gradientTransform="matrix(0 -1 1 0 -.0000015 47.999998)" gradientUnits="userSpaceOnUse" x1="1" x2="47">
    <stop offset="0" stop-color="#32a2f8"/>
    <stop offset="1" stop-color="#45a9f9"/>
  </linearGradient>
  <path d="m47 24c0 22.703-.297 23-23 23-22.703 0-23-.297-23-23 0-22.703.297-23 23-23 22.703 0 23 .297 23 23z" fill="url(#a)"/>
  <path d="m25.91 12l-4.172.297v16.617l4.172-.508v-7.254c1.809 2.73 3.262 5.27 5.684 7.91l4.32-1.242c-2.313-2.68-4.04-5.04-5.617-7.613 1.641-2.418 3.695-4.848 5.703-7.02l-4.477-1.098c-2.09 2.355-3.949 4.789-5.613 7.234m-9.504-3.914c-.059.008-.129.043-.184.098-.492.465-.957.93-1.445 1.395-.215.207.004.453.098.625l.992 1.371.742 1c .105.145.137.16.082.262-.066.105-.121.191-.184.297-.965 1.621-.289 1.746-2.355 2.273l-1.582.262c-.234.078-.539.07-.555.395 0 .656-.02 1.309-.02 1.961-.012.301.324.328.523.379l1.684.293 1.262.23c.172.023.211-.016.25.113.516 2.176 1.191 1.676.066 3.578l-.906 1.262c-.121.219-.344.434-.117.656.477.473.934.949 1.414 1.422.211.207.484-.004.656-.098l1.395-.969 1.043-.703c.145-.117.164-.145.27-.082 2.09 1.277 2.164.355 2.773 2.504l.301 1.539c.078.23.086.527.406.539h2.031c.305 0 .332-.348.371-.539l.285-1.637.203-1.211c.012-.117.008-.176.031-.215 2.449-.504 1.84-1.215 3.832-.082l1.293.883c.238.117.465.32.691.102.48-.453.957-.91 1.438-1.359.215-.219.004-.469-.098-.637h-.02l-.941-1.293-.621.211c-.16.105-.371.066-.559-.18l-1.359-1.75c-1.27 1.711-3.324 2.816-5.652 2.816-3.832 0-6.961-3.043-6.961-6.777 0-2.652 1.578-4.949 3.867-6.06v-1.559c-.078.039-.168.059-.234.082-.895.363-.953.527-2.418-.293l-1.293-.898c-.18-.078-.34-.227-.504-.188m4.441 3.484c-1.945 1.07-3.266 3.121-3.266 5.453 0 3.441 2.883 6.254 6.43 6.254 2.191 0 4.113-1.082 5.273-2.727l-.063-.133c-1.359 1.469-2.895 2.422-5.23 2.473-2.91.051-5.855-2.473-5.871-5.797-.023-2.145.992-3.586 2.723-4.613v-.902m.004 0" fill-rule="evenodd" opacity=".1" transform="translate(1 1)"/>
  <path d="m25.91 12l-4.172.297v16.617l4.172-.508v-7.254c1.809 2.73 3.262 5.27 5.684 7.91l4.32-1.242c-2.313-2.68-4.04-5.04-5.617-7.613 1.641-2.418 3.695-4.848 5.703-7.02l-4.477-1.098c-2.09 2.355-3.949 4.789-5.613 7.234m-9.504-3.914c-.059.008-.129.043-.184.098-.492.465-.957.93-1.445 1.395-.215.207.004.453.098.625l.992 1.371.742 1c .105.145.137.16.082.262-.066.105-.121.191-.184.297-.965 1.621-.289 1.746-2.355 2.273l-1.582.262c-.234.078-.539.07-.555.395 0 .656-.02 1.309-.02 1.961-.012.301.324.328.523.379l1.684.293 1.262.23c.172.023.211-.016.25.113.516 2.176 1.191 1.676.066 3.578l-.906 1.262c-.121.219-.344.434-.117.656.477.473.934.949 1.414 1.422.211.207.484-.004.656-.098l1.395-.969 1.043-.703c.145-.117.164-.145.27-.082 2.09 1.277 2.164.355 2.773 2.504l.301 1.539c.078.23.086.527.406.539h2.031c.305 0 .332-.348.371-.539l.285-1.637.203-1.211c.012-.117.008-.176.031-.215 2.449-.504 1.84-1.215 3.832-.082l1.293.883c.238.117.465.32.691.102.48-.453.957-.91 1.438-1.359.215-.219.004-.469-.098-.637h-.02l-.941-1.293-.621.211c-.16.105-.371.066-.559-.18l-1.359-1.75c-1.27 1.711-3.324 2.816-5.652 2.816-3.832 0-6.961-3.043-6.961-6.777 0-2.652 1.578-4.949 3.867-6.06v-1.559c-.078.039-.168.059-.234.082-.895.363-.953.527-2.418-.293l-1.293-.898c-.18-.078-.34-.227-.504-.188m4.441 3.484c-1.945 1.07-3.266 3.121-3.266 5.453 0 3.441 2.883 6.254 6.43 6.254 2.191 0 4.113-1.082 5.273-2.727l-.063-.133c-1.359 1.469-2.895 2.422-5.23 2.473-2.91.051-5.855-2.473-5.871-5.797-.023-2.145.992-3.586 2.723-4.613v-.902m.004 0" fill="#fff" fill-rule="evenodd"/>
</svg>
