<svg viewBox="0 0 48 48" xmlns="http://www.w3.org/2000/svg" xmlns:xlink="http://www.w3.org/1999/xlink">
  <linearGradient id="a" gradientTransform="matrix(0 -1 1 0 -.0000015 47.999998)" gradientUnits="userSpaceOnUse" x1="1" x2="47">
    <stop offset="0" stop-color="#204b86"/>
    <stop offset="1" stop-color="#245395"/>
  </linearGradient>
  <path d="m47 24c0 22.703-.297 23-23 23-22.703 0-23-.297-23-23 0-22.703.297-23 23-23 22.703 0 23 .297 23 23z" fill="url(#a)"/>
  <path d="m29.984 21.262c-1.473-1.711-2.797-2.816-4.758.063-1.172 1.711-8.176 11.527-9.461 13.09-.375.453-.594.766-.879.953 0-.621 4.84-8.512 6.191-10.797 1.629-2.746 1.578-2.586 1.383-2.586-.277 0-.836.418-1.691 1.355-1.555 1.707-6.164 8.07-6.484 7.973.109-.461 3.719-6.156 5.355-8.512 1.41-2.031.871-2.188.063-1.988-3.445.848-7.57 2.891-7.703 2.816.051-.105 13.887-10.117 15.738-10.309.215-.023.668-.418 1.477-.75.879-.355 1.469-.648 1.617-.555-.645.926-.98 1.113-.988 1.41-.008.488-.176 1.277-.363 1.531 3.578 2.453 4.973 10.809 5.992 17.535.242 1.594.469 2.797.527 3.508-.301-.801-3.16-11.422-6.02-14.738m0 0" opacity=".1" transform="translate(1 1)"/>
  <path d="m29.984 21.262c-1.473-1.711-2.797-2.816-4.758.063-1.172 1.711-8.176 11.527-9.461 13.09-.375.453-.594.766-.879.953 0-.621 4.84-8.512 6.191-10.797 1.629-2.746 1.578-2.586 1.383-2.586-.277 0-.836.418-1.691 1.355-1.555 1.707-6.164 8.07-6.484 7.973.109-.461 3.719-6.156 5.355-8.512 1.41-2.031.871-2.188.063-1.988-3.445.848-7.57 2.891-7.703 2.816.051-.105 13.887-10.117 15.738-10.309.215-.023.668-.418 1.477-.75.879-.355 1.469-.648 1.617-.555-.645.926-.98 1.113-.988 1.41-.008.488-.176 1.277-.363 1.531 3.578 2.453 4.973 10.809 5.992 17.535.242 1.594.469 2.797.527 3.508-.301-.801-3.16-11.422-6.02-14.738m0 0" fill="#fff"/>
</svg>
