<svg viewBox="0 0 48 48" xmlns="http://www.w3.org/2000/svg" xmlns:xlink="http://www.w3.org/1999/xlink">
  <linearGradient id="a" gradientTransform="matrix(0 -1 1 0 -.0000015 47.999998)" gradientUnits="userSpaceOnUse" x1="1" x2="47">
    <stop offset="0" stop-color="#a3ce30"/>
    <stop offset="1" stop-color="#abd240"/>
  </linearGradient>
  <path d="m47 24c0 22.703-.297 23-23 23-22.703 0-23-.297-23-23 0-22.703.297-23 23-23 22.703 0 23 .297 23 23z" fill="url(#a)"/>
  <path d="m25 13a12 12 0 0 0-9.711 4.975l1.721 1.031a10 10 0 0 1 7.99-4.006 10 10 0 0 1  10 10 10 10 0 0 1-10 10 10 10 0 0 1-7.99-4.004l-1.721 1.031a12 12 0 0 0 9.711 4.973 12 12 0 0 0  12-12 12 12 0 0 0-12-12m-12 5v14l12-7zm12 0a7 7 0 0 0-5.402 2.559l1.742 1.045a5 5 0 0 1 3.66-1.604 5 5 0 0 1  5 5 5 5 0 0 1-5 5 5 5 0 0 1-3.662-1.604l-1.742 1.047a7 7 0 0 0 5.404 2.557 7 7 0 0 0  7-7 7 7 0 0 0-7-7" opacity=".1"/>
  <path d="m24 12a12 12 0 0 0-9.711 4.975l1.721 1.035a10 10 0 0 1 7.99-4.01 10 10 0 0 1  10 10 10 10 0 0 1-10 10 10 10 0 0 1-7.99-4.004l-1.723 1.034a12 12 0 0 0 9.713 4.97 12 12 0 0 0  12-12 12 12 0 0 0-12-12zm-12 5v14l12-7zm12 0a7 7 0 0 0-5.402 2.559l1.742 1.045a5 5 0 0 1 3.66-1.604 5 5 0 0 1  5 5 5 5 0 0 1-5 5 5 5 0 0 1-3.662-1.604l-1.742 1.047a7 7 0 0 0 5.404 2.557 7 7 0 0 0  7-7 7 7 0 0 0-7-7z" fill="#f9f9f9"/>
</svg>
