<svg viewBox="0 0 48 48" xmlns="http://www.w3.org/2000/svg" xmlns:xlink="http://www.w3.org/1999/xlink">
  <linearGradient id="a" gradientTransform="matrix(0 -1 1 0 -.0000015 47.999998)" gradientUnits="userSpaceOnUse" x1="1" x2="47">
    <stop offset="0" stop-color="#642448"/>
    <stop offset="1" stop-color="#722953"/>
  </linearGradient>
  <path d="m47 24c0 22.703-.297 23-23 23-22.703 0-23-.297-23-23 0-22.703.297-23 23-23 22.703 0 23 .297 23 23z" fill="url(#a)"/>
  <path d="m14 13v13.219c0 1.602.188 3.051.535 4.375.352 1.297.922 2.441 1.715 3.402.793.965 1.809 1.695 3.109 2.238 1.305.512 2.922.762 4.828.762 2.191 0 4.137-.086 5.789-.355 1.684-.273 3-.574 4.02-.813v-22.832h-4v19.793c-.156.063-.875.18-1.254.242-.352.031-.73.09-1.18.152-.445.027-.887.07-1.391.102-.508.027-1.023.051-1.504.051-2.254 0-3.871-.645-4.824-1.883-.953-1.234-1.848-3.203-1.848-6.06v-12.398m-3.996.008" opacity=".1" transform="translate(1 1)"/>
  <path d="m14 13v13.219c0 1.602.188 3.051.535 4.375.352 1.297.922 2.441 1.715 3.402.793.965 1.809 1.695 3.109 2.238 1.305.512 2.922.762 4.828.762 2.191 0 4.137-.086 5.789-.355 1.684-.273 3-.574 4.02-.813v-22.832h-4v19.793c-.156.063-.875.18-1.254.242-.352.031-.73.09-1.18.152-.445.027-.887.07-1.391.102-.508.027-1.023.051-1.504.051-2.254 0-3.871-.645-4.824-1.883-.953-1.234-1.848-3.203-1.848-6.06v-12.398m-3.996.008" fill="#f9f9f9"/>
</svg>
