<svg xmlns="http://www.w3.org/2000/svg" viewBox="0 0 48 48">
 <defs>
  <linearGradient id="linearGradient3764" x1="1" x2="47" gradientUnits="userSpaceOnUse" gradientTransform="matrix(0,-1,1,0,-1.5e-6,47.999998)">
   <stop style="stop-color:#5dbacb;stop-opacity:1"/>
   <stop offset="1" style="stop-color:#6cc0d0;stop-opacity:1"/>
  </linearGradient>
 </defs>
 <g>
  
  
  
 </g>
 <g>
  <path d="m 47,24 C 47,46.703 46.703,47 24,47 1.297,47 1,46.703 1,24 1,1.297 1.297,1 24,1 46.703,1 47,1.297 47,24 z" style="fill:url(#linearGradient3764);fill-opacity:1"/>
 </g>
 <g>
  <g>
   <g transform="translate(1,1)">
    <g style="opacity:0.1">
     <!-- color: #6cc0d0 -->
     <g>
      <path d="m 31.887 13 c -5.121 0 -6.074 7.121 -3.191 7.121 c 2.879 0 8.313 -7.121 3.191 -7.121 m -8.141 0.875 c -2.879 0.367 -1.91 5.285 -0.375 5.375 c 1.535 0.094 3.262 -5.738 0.375 -5.375 m -4.816 1.938 c -0.129 0.016 -0.297 0.07 -0.441 0.125 c -2.316 0.934 -0.355 4.758 0.941 4.5 c 1.219 -0.242 1.395 -4.82 -0.5 -4.625 m -3.633 3 c -0.203 -0.008 -0.395 0.094 -0.629 0.25 c -1.852 1.25 0.602 4.215 1.691 3.75 c 0.953 -0.41 0.348 -3.957 -1.063 -4 m 10.578 2.313 c -3.973 -0.066 -9.184 1.906 -10.07 5.813 c -0.969 4.227 3.969 10.06 9.137 10.06 c 2.543 0 5.461 -2.227 6.01 -5.066 c 0.422 -2.16 -4.883 -1.305 -4.688 0.125 c 0.227 1.715 -1.328 2.547 -2.82 1.441 c -4.742 -3.523 7.844 -5.254 7.02 -10.07 c -0.266 -1.496 -2.188 -2.273 -4.574 -2.313 m 0 0.004" style="fill:#000;fill-opacity:1;stroke:none;fill-rule:evenodd"/>
     </g>
    </g>
   </g>
  </g>
 </g>
 <g>
  <g>
   <!-- color: #6cc0d0 -->
   <g>
    <path d="m 31.887 13 c -5.121 0 -6.074 7.121 -3.191 7.121 c 2.879 0 8.313 -7.121 3.191 -7.121 m -8.141 0.875 c -2.879 0.367 -1.91 5.285 -0.375 5.375 c 1.535 0.094 3.262 -5.738 0.375 -5.375 m -4.816 1.938 c -0.129 0.016 -0.297 0.07 -0.441 0.125 c -2.316 0.934 -0.355 4.758 0.941 4.5 c 1.219 -0.242 1.395 -4.82 -0.5 -4.625 m -3.633 3 c -0.203 -0.008 -0.395 0.094 -0.629 0.25 c -1.852 1.25 0.602 4.215 1.691 3.75 c 0.953 -0.41 0.348 -3.957 -1.063 -4 m 10.578 2.313 c -3.973 -0.066 -9.184 1.906 -10.07 5.813 c -0.969 4.227 3.969 10.06 9.137 10.06 c 2.543 0 5.461 -2.227 6.01 -5.066 c 0.422 -2.16 -4.883 -1.305 -4.688 0.125 c 0.227 1.715 -1.328 2.547 -2.82 1.441 c -4.742 -3.523 7.844 -5.254 7.02 -10.07 c -0.266 -1.496 -2.188 -2.273 -4.574 -2.313 m 0 0.004" style="fill:#f9f9f9;fill-opacity:1;stroke:none;fill-rule:evenodd"/>
   </g>
  </g>
 </g>
 <g>
  
 </g>
</svg>
