<svg xmlns="http://www.w3.org/2000/svg" viewBox="0 0 48 48">
 <defs>
  <linearGradient id="linearGradient3764" x1="1" x2="47" gradientUnits="userSpaceOnUse" gradientTransform="matrix(0,-1,1,0,-1.5e-6,47.999998)">
   <stop style="stop-color:#e3544d;stop-opacity:1"/>
   <stop offset="1" style="stop-color:#e6645f;stop-opacity:1"/>
  </linearGradient>
 </defs>
 <g>
  
  
  
 </g>
 <g>
  <path d="m 47,24 C 47,46.703 46.703,47 24,47 1.297,47 1,46.703 1,24 1,1.297 1.297,1 24,1 46.703,1 47,1.297 47,24 z" style="fill:url(#linearGradient3764);fill-opacity:1"/>
 </g>
 <g>
  <g>
   <g transform="translate(1,1)">
    <g style="opacity:0.1">
     <!-- color: #e6645f -->
     <g>
      <path d="m 14 12 l 20 0 c 1.105 0 2 0.895 2 2 l 0 20 c 0 1.105 -0.895 2 -2 2 l -20 0 c -1.105 0 -2 -0.895 -2 -2 l 0 -20 c 0 -1.105 0.895 -2 2 -2 m 0 0" style="fill:#000;fill-opacity:1;stroke:none;fill-rule:nonzero"/>
     </g>
    </g>
   </g>
  </g>
 </g>
 <g>
  <g>
   <!-- color: #e6645f -->
   <g>
    <path d="m 14 12 20 0 c 1.105 0 2 0.895 2 2 l 0 20 c 0 1.105 -0.895 2 -2 2 l -20 0 c -1.105 0 -2 -0.895 -2 -2 l 0 -20 c 0 -1.105 0.895 -2 2 -2 m 0 0" style="fill:#f9f9f9;fill-opacity:1;stroke:none;fill-rule:nonzero"/>
    <path d="m 12.434,23 23.13,0 c 0.238,0 0.434,0.191 0.434,0.434 l 0,1.133 c 0,0.238 -0.188,0.43 -0.434,0.43 l -23.13,0 C 12.196,24.997 12,24.806 12,24.567 l 0,-1.133 C 12,23.192 12.195,23 12.434,23 m 0,0" style="fill:#695353;fill-opacity:1;stroke:none;fill-rule:nonzero"/>
    <path d="m 15,29 0.996,0 0,2.988 -0.996,0 M 15,29" style="fill:#695353;fill-opacity:1;stroke:none;fill-rule:nonzero"/>
    <path d="m 14 30 3 0 0 1 -3 0 m 0 -1" style="fill:#695353;fill-opacity:1;stroke:none;fill-rule:nonzero"/>
    <path d="M 33,29.5 C 33,29.777 32.777,30 32.5,30 32.223,30 32,29.777 32,29.5 32,29.223 32.223,29 32.5,29 c 0.277,0 0.5,0.223 0.5,0.5 m 0,0" style="fill:#695353;fill-opacity:1;stroke:none;fill-rule:nonzero"/>
    <path d="M 34,30.5 C 34,30.777 33.777,31 33.5,31 33.223,31 33,30.777 33,30.5 33,30.223 33.223,30 33.5,30 c 0.277,0 0.5,0.223 0.5,0.5 m 0,0" style="fill:#695353;fill-opacity:1;stroke:none;fill-rule:nonzero"/>
    <path d="M 32,30.5 C 32,30.777 31.777,31 31.5,31 31.223,31 31,30.777 31,30.5 31,30.223 31.223,30 31.5,30 c 0.277,0 0.5,0.223 0.5,0.5 m 0,0" style="fill:#695353;fill-opacity:1;stroke:none;fill-rule:nonzero"/>
    <path d="M 33,31.5 C 33,31.777 32.777,32 32.5,32 32.223,32 32,31.777 32,31.5 32,31.223 32.223,31 32.5,31 c 0.277,0 0.5,0.223 0.5,0.5 m 0,0" style="fill:#695353;fill-opacity:1;stroke:none;fill-rule:nonzero"/>
    <path d="m 31 26 2 0 0 1 -2 0 m 0 -1" style="fill:#695353;fill-opacity:1;stroke:none;fill-rule:nonzero"/>
    <path d="m 17 14 14 0 0 8 -14 0 m 0 -8" style="fill:#695353;fill-opacity:1;stroke:none;fill-rule:nonzero"/>
    <path d="m 18 26 12 0 0 8 -12 0 m 0 -8" style="fill:#695353;fill-opacity:1;stroke:none;fill-rule:nonzero"/>
    <path d="m 15,26 1.996,0 0,1 L 15,27 m 0,-1" style="fill:#695353;fill-opacity:1;stroke:none;fill-rule:nonzero"/>
    <path d="M 33,16.5 C 33,16.777 32.777,17 32.5,17 32.223,17 32,16.777 32,16.5 32,16.223 32.223,16 32.5,16 c 0.277,0 0.5,0.223 0.5,0.5 m 0,0" style="fill:#695353;fill-opacity:1;stroke:none;fill-rule:nonzero"/>
    <path d="M 34,16.5 C 34,16.777 33.777,17 33.5,17 33.223,17 33,16.777 33,16.5 33,16.223 33.223,16 33.5,16 c 0.277,0 0.5,0.223 0.5,0.5 m 0,0" style="fill:#695353;fill-opacity:1;stroke:none;fill-rule:nonzero"/>
    <path d="M 33,17.5 C 33,17.777 32.777,18 32.5,18 32.223,18 32,17.777 32,17.5 32,17.223 32.223,17 32.5,17 c 0.277,0 0.5,0.223 0.5,0.5 m 0,0" style="fill:#695353;fill-opacity:1;stroke:none;fill-rule:nonzero"/>
    <path d="M 34,17.5 C 34,17.777 33.777,18 33.5,18 33.223,18 33,17.777 33,17.5 33,17.223 33.223,17 33.5,17 c 0.277,0 0.5,0.223 0.5,0.5 m 0,0" style="fill:#695353;fill-opacity:1;stroke:none;fill-rule:nonzero"/>
    <path d="M 33,18.5 C 33,18.777 32.777,19 32.5,19 32.223,19 32,18.777 32,18.5 32,18.223 32.223,18 32.5,18 c 0.277,0 0.5,0.223 0.5,0.5 m 0,0" style="fill:#695353;fill-opacity:1;stroke:none;fill-rule:nonzero"/>
    <path d="M 34,18.5 C 34,18.777 33.777,19 33.5,19 33.223,19 33,18.777 33,18.5 33,18.223 33.223,18 33.5,18 c 0.277,0 0.5,0.223 0.5,0.5 m 0,0" style="fill:#695353;fill-opacity:1;stroke:none;fill-rule:nonzero"/>
    <path d="M 15,16.5 C 15,16.777 14.777,17 14.5,17 14.223,17 14,16.777 14,16.5 14,16.223 14.223,16 14.5,16 c 0.277,0 0.5,0.223 0.5,0.5 m 0,0" style="fill:#695353;fill-opacity:1;stroke:none;fill-rule:nonzero"/>
    <path d="M 16,16.5 C 16,16.777 15.777,17 15.5,17 15.223,17 15,16.777 15,16.5 15,16.223 15.223,16 15.5,16 c 0.277,0 0.5,0.223 0.5,0.5 m 0,0" style="fill:#695353;fill-opacity:1;stroke:none;fill-rule:nonzero"/>
    <path d="M 15,17.5 C 15,17.777 14.777,18 14.5,18 14.223,18 14,17.777 14,17.5 14,17.223 14.223,17 14.5,17 c 0.277,0 0.5,0.223 0.5,0.5 m 0,0" style="fill:#695353;fill-opacity:1;stroke:none;fill-rule:nonzero"/>
    <path d="M 16,17.5 C 16,17.777 15.777,18 15.5,18 15.223,18 15,17.777 15,17.5 15,17.223 15.223,17 15.5,17 c 0.277,0 0.5,0.223 0.5,0.5 m 0,0" style="fill:#695353;fill-opacity:1;stroke:none;fill-rule:nonzero"/>
    <path d="M 15,18.5 C 15,18.777 14.777,19 14.5,19 14.223,19 14,18.777 14,18.5 14,18.223 14.223,18 14.5,18 c 0.277,0 0.5,0.223 0.5,0.5 m 0,0" style="fill:#695353;fill-opacity:1;stroke:none;fill-rule:nonzero"/>
    <path d="M 16,18.5 C 16,18.777 15.777,19 15.5,19 15.223,19 15,18.777 15,18.5 15,18.223 15.223,18 15.5,18 c 0.277,0 0.5,0.223 0.5,0.5 m 0,0" style="fill:#695353;fill-opacity:1;stroke:none;fill-rule:nonzero"/>
   </g>
  </g>
 </g>
 <g>
  
 </g>
</svg>
