<svg viewBox="0 0 48 48" xmlns="http://www.w3.org/2000/svg" xmlns:xlink="http://www.w3.org/1999/xlink">
  <linearGradient id="a" gradientTransform="matrix(0 -1 1 0 -.0000015 47.999998)" gradientUnits="userSpaceOnUse" x1="1" x2="47">
    <stop offset="0" stop-color="#e3544d"/>
    <stop offset="1" stop-color="#e6645f"/>
  </linearGradient>
  <path d="m47 24c0 22.703-.297 23-23 23-22.703 0-23-.297-23-23 0-22.703.297-23 23-23 22.703 0 23 .297 23 23z" fill="url(#a)"/>
  <path d="m14 12h20c1.105 0 2 .895 2 2v20c0 1.105-.895 2-2 2h-20c-1.105 0-2-.895-2-2v-20c0-1.105.895-2 2-2m0 0" opacity=".1" transform="translate(1 1)"/>
  <path d="m14 12h20c1.105 0 2 .895 2 2v20c0 1.105-.895 2-2 2h-20c-1.105 0-2-.895-2-2v-20c0-1.105.895-2 2-2m0 0" fill="#f9f9f9"/>
  <path d="m12.434 23h23.13c.238 0 .434.191.434.434v1.133c0 .238-.188.43-.434.43h-23.13c-.238 0-.434-.191-.434-.43v-1.133c0-.242.195-.434.434-.434m0 0" fill="#695353"/>
  <path d="m15 29h .996v2.988h-.996m0-2.988" fill="#695353"/>
  <path d="m14 30h3v1h-3m0-1" fill="#695353"/>
  <path d="m33 29.5c0 .277-.223.5-.5.5-.277 0-.5-.223-.5-.5 0-.277.223-.5.5-.5.277 0 .5.223.5.5m0 0" fill="#695353"/>
  <path d="m34 30.5c0 .277-.223.5-.5.5-.277 0-.5-.223-.5-.5 0-.277.223-.5.5-.5.277 0 .5.223.5.5m0 0" fill="#695353"/>
  <path d="m32 30.5c0 .277-.223.5-.5.5-.277 0-.5-.223-.5-.5 0-.277.223-.5.5-.5.277 0 .5.223.5.5m0 0" fill="#695353"/>
  <path d="m33 31.5c0 .277-.223.5-.5.5-.277 0-.5-.223-.5-.5 0-.277.223-.5.5-.5.277 0 .5.223.5.5m0 0" fill="#695353"/>
  <path d="m31 26h2v1h-2m0-1" fill="#695353"/>
  <path d="m17 14h14v8h-14m0-8" fill="#695353"/>
  <path d="m18 26h12v8h-12m0-8" fill="#695353"/>
  <path d="m15 26h1.996v1h-1.996m0-1" fill="#695353"/>
  <path d="m33 16.5c0 .277-.223.5-.5.5-.277 0-.5-.223-.5-.5 0-.277.223-.5.5-.5.277 0 .5.223.5.5m0 0" fill="#695353"/>
  <path d="m34 16.5c0 .277-.223.5-.5.5-.277 0-.5-.223-.5-.5 0-.277.223-.5.5-.5.277 0 .5.223.5.5m0 0" fill="#695353"/>
  <path d="m33 17.5c0 .277-.223.5-.5.5-.277 0-.5-.223-.5-.5 0-.277.223-.5.5-.5.277 0 .5.223.5.5m0 0" fill="#695353"/>
  <path d="m34 17.5c0 .277-.223.5-.5.5-.277 0-.5-.223-.5-.5 0-.277.223-.5.5-.5.277 0 .5.223.5.5m0 0" fill="#695353"/>
  <path d="m33 18.5c0 .277-.223.5-.5.5-.277 0-.5-.223-.5-.5 0-.277.223-.5.5-.5.277 0 .5.223.5.5m0 0" fill="#695353"/>
  <path d="m34 18.5c0 .277-.223.5-.5.5-.277 0-.5-.223-.5-.5 0-.277.223-.5.5-.5.277 0 .5.223.5.5m0 0" fill="#695353"/>
  <path d="m15 16.5c0 .277-.223.5-.5.5-.277 0-.5-.223-.5-.5 0-.277.223-.5.5-.5.277 0 .5.223.5.5m0 0" fill="#695353"/>
  <path d="m16 16.5c0 .277-.223.5-.5.5-.277 0-.5-.223-.5-.5 0-.277.223-.5.5-.5.277 0 .5.223.5.5m0 0" fill="#695353"/>
  <path d="m15 17.5c0 .277-.223.5-.5.5-.277 0-.5-.223-.5-.5 0-.277.223-.5.5-.5.277 0 .5.223.5.5m0 0" fill="#695353"/>
  <path d="m16 17.5c0 .277-.223.5-.5.5-.277 0-.5-.223-.5-.5 0-.277.223-.5.5-.5.277 0 .5.223.5.5m0 0" fill="#695353"/>
  <path d="m15 18.5c0 .277-.223.5-.5.5-.277 0-.5-.223-.5-.5 0-.277.223-.5.5-.5.277 0 .5.223.5.5m0 0" fill="#695353"/>
  <path d="m16 18.5c0 .277-.223.5-.5.5-.277 0-.5-.223-.5-.5 0-.277.223-.5.5-.5.277 0 .5.223.5.5m0 0" fill="#695353"/>
</svg>
