<svg xmlns="http://www.w3.org/2000/svg" viewBox="0 0 48 48">
 <defs>
  <linearGradient id="linearGradient3764" x1="1" x2="47" gradientUnits="userSpaceOnUse" gradientTransform="matrix(0,-1,1,0,-1.5e-6,47.999998)">
   <stop style="stop-color:#69b0ed;stop-opacity:1"/>
   <stop offset="1" style="stop-color:#7bbbef;stop-opacity:1"/>
  </linearGradient>
 </defs>
 <g>
  
  
  
 </g>
 <g>
  <path d="m 47,24 C 47,46.703 46.703,47 24,47 1.297,47 1,46.703 1,24 1,1.297 1.297,1 24,1 46.703,1 47,1.297 47,24 z" style="fill:url(#linearGradient3764);fill-opacity:1"/>
 </g>
 <g>
  <g>
   <g transform="translate(1,1)">
    <g style="opacity:0.1">
     <!-- color: #7bbbef -->
    </g>
   </g>
  </g>
 </g>
 <g transform="translate(1.001953,-4.8)" style="fill:#000;opacity:0.1">
  <g style="fill:#000">
   <!-- color: #7bbbef -->
   <g style="fill:#000">
    <path d="m 24 19.8 -4.92 4.03 -5.865 -0.559 -2.217 7.227 6.303 5.305 2.699 0 -6.68 -5.486 1.68 -5.074 l 5.02 0.574 c 0 0 2.763 -2.333 3.98 -3.383 1.217 1.05 3.98 3.383 3.98 3.383 l 5.02 -0.574 1.68 5.074 -6.68 5.486 l 2.699 0 6.303 -5.305 -2.217 -7.227 -5.865 0.559 z m 0 4.4 -3 2.6 0 1.186 c 0 2.346 1 6.814 3 7.814 c 2 -1 3 -5.468 3 -7.814 l 0 -1.186 m -11.172 0.094 -0.828 2.906 6.85 5.773 c -1.849 -2.774 -2.35 -5.46 -2.35 -8.342 m 12.672 -0.338 l -3.672 0.338 c 0 2.882 -0.501 5.568 -2.35 8.342 l 6.85 -5.773 m -15 7 l 6 3 6 -3 c -4 0 -8 0 -12 0 z" style="fill:#000;fill-opacity:1;stroke:none;fill-rule:nonzero"/>
   </g>
  </g>
 </g>
 <g transform="translate(0,-5.8)">
  <g>
   <!-- color: #7bbbef -->
   <g>
    <path d="m 24 19.8 -4.92 4.03 -5.865 -0.559 -2.217 7.227 6.303 5.305 2.699 0 -6.68 -5.486 1.68 -5.074 l 5.02 0.574 c 0 0 2.763 -2.333 3.98 -3.383 1.217 1.05 3.98 3.383 3.98 3.383 l 5.02 -0.574 1.68 5.074 -6.68 5.486 l 2.699 0 6.303 -5.305 -2.217 -7.227 -5.865 0.559 z m 0 4.4 -3 2.6 0 1.186 c 0 2.346 1 6.814 3 7.814 c 2 -1 3 -5.468 3 -7.814 l 0 -1.186 m -11.172 0.094 -0.828 2.906 6.85 5.773 c -1.849 -2.774 -2.35 -5.46 -2.35 -8.342 m 12.672 -0.338 l -3.672 0.338 c 0 2.882 -0.501 5.568 -2.35 8.342 l 6.85 -5.773 m -15 7 l 6 3 6 -3 c -4 0 -8 0 -12 0 z" style="fill:#2d2d2d;fill-opacity:1;stroke:none;fill-rule:nonzero"/>
   </g>
  </g>
 </g>
 <g>
  
 </g>
</svg>
