<svg viewBox="0 0 48 48" xmlns="http://www.w3.org/2000/svg" xmlns:xlink="http://www.w3.org/1999/xlink">
  <linearGradient id="a" gradientTransform="matrix(0 -1 1 0 -.0000015 47.999998)" gradientUnits="userSpaceOnUse" x1="1" x2="47">
    <stop offset="0" stop-color="#dd524b"/>
    <stop offset="1" stop-color="#e0625c"/>
  </linearGradient>
  <path d="m47 24c0 22.703-.297 23-23 23-22.703 0-23-.297-23-23 0-22.703.297-23 23-23 22.703 0 23 .297 23 23z" fill="url(#a)"/>
  <path d="m25.18 13c-2.921-.055-6.03 1.127-6.973 3.455-.547 1.295-.039 3.613 1.801 3.613 1.074 0 1.568-.734 1.646-1.402.063-.509-.133-.962-.25-1.381-.133-.481.422-1.432 1.053-1.783 1.892-1.054 4.611-.146 5.609 1.393.278.456.339.999.254 1.592l-.596.529c-.506.45-.657 1.136-.438 1.729-.126.12-.181.374-.211.672-.107.175-.196.349-.311.523-.583.891-1.178 1.844-1.648 2.838-.422.061-.857.097-1.277.08-1.802.078-3.574.457-4.867 1.613-.717.641-6.358 9.778-5.953 10.504.23.413 11.844-4.877 15.572-7.05.569-.532.623-.906.516-1.766-.072-.585-.309-1.165-.506-1.674-.47-.695-.596-1.569-.521-2.432.025-.02.044-.043.07-.063 1.114-.918 2.194-1.966 2.928-3.125l5.385-4.787c.665-.591.718-1.595.119-2.252l-.27-.297c-.3-.328-.704-.505-1.117-.527v-.002c-.413-.021-.833.112-1.166.408l-2.674 2.377c-.954-1.456-2.885-2.491-4.941-2.688-.403-.059-.817-.092-1.234-.1zm-.227 19.715c-1.773-.098-2.934 1.972-1.939 3.375 1.023 1.443 3.555 1.104 4.074-.566.415-1.335-.668-2.828-2.137-2.805z" fill-rule="evenodd" opacity=".1"/>
  <path d="m34.2 12c-.413-.021-.833.113-1.166.409l-6.305 5.605c-.506.45-.655 1.136-.436 1.729-.443.422-.119 2.327-.231 2.985-.139.814-1.823 1.184-3.217 1.128-1.802.078-3.575.458-4.868 1.614-.717.641-6.358 9.778-5.953 10.504.23.413 11.844-4.878 15.572-7.05.569-.532.624-.906.517-1.766-.072-.585-.31-1.164-.507-1.673-.866-1.279-.583-3.171.016-4.464.521.154 1.105.05 1.541-.337l6.305-5.605c.665-.591.719-1.596.12-2.253l-.27-.296c-.3-.328-.704-.506-1.117-.528" fill="#5f4645" fill-rule="evenodd"/>
  <path d="m30.418 14.736c-1.948 1.569-6.143 11.866-6.174 13.439 0 .856-.07 1.15-.02 1.494.043.277 1.419.421 1.574.113-.048-1.8.276-3.55 1.484-4.951-.438-1.214-.168-2.721.336-3.809.521.154 1.105.051 1.541-.336l2.813-2.502c.006-.169.026-.335.012-.508-.022-1.137-.636-2.151-1.566-2.941z" fill-rule="evenodd" opacity=".1"/>
  <path d="m24.798 28.785c-.059-2.179.406-4.294 2.355-5.792 2.059-1.697 4.04-3.817 3.832-6.316-.047-2.413-2.703-4.302-5.57-4.575-3.223-.47-7.125.696-8.207 3.356-.547 1.295-.039 3.613 1.801 3.613 1.074 0 1.57-.735 1.648-1.404.063-.509-.133-.962-.25-1.381-.133-.481.42-1.432 1.051-1.783 1.892-1.054 4.611-.146 5.61 1.393.77 1.263-.078 3.184-1.301 5.05-1.219 1.865-2.527 3.982-2.523 6.234 0 .856-.07 1.149-.02 1.494.043.277 1.418.42 1.574.113m-.844 2.933c-1.773-.098-2.933 1.972-1.938 3.375 1.023 1.443 3.554 1.104 4.074-.567.415-1.335-.668-2.827-2.137-2.804" fill="#f9f9f9"/>
</svg>
