<svg viewBox="0 0 48 48" xmlns="http://www.w3.org/2000/svg" xmlns:xlink="http://www.w3.org/1999/xlink">
  <linearGradient id="a" gradientTransform="matrix(0 -1 1 0 -.0000015 47.999998)" gradientUnits="userSpaceOnUse" x1="1" x2="47">
    <stop offset="0" stop-color="#333"/>
    <stop offset="1" stop-color="#3d3d3d"/>
  </linearGradient>
  <path d="m47 24c0 22.703-.297 23-23 23-22.703 0-23-.297-23-23 0-22.703.297-23 23-23 22.703 0 23 .297 23 23z" fill="url(#a)"/>
  <path d="m16.5 11h2v1.996h-2m0-1.996" opacity=".1" transform="translate(1 1)"/>
  <g transform="translate(1)">
    <path d="m15 11v3h1v1h-2v3h2v14h-2v3h2v .877h-1l2 3.123 2-3.123h-1v-.877h9c5.54 0 10-4.46 10-10 0-5.54-4.46-10-10-10h-9v-1h1v-3zm3 7h9c3.878 0 7 3.122 7 7 0 3.878-3.122 7-7 7h-9zm7 2l-5 9h10zm0 3.6l1.801 3.4h-3.602" opacity=".1"/>
    <path d="m24 19l-5 9h10m-3.2-2h-3.6l1.8-3.4" fill="#ff9409"/>
  </g>
  <path d="m15 10v3h1v1h-2v3h2v14h-2v3h2v .877h-1l2 3.123 2-3.123h-1v-.877h9c5.54 0 10-4.46 10-10 0-5.54-4.46-10-10-10h-9v-1h1v-3zm3 7h9c3.878 0 7 3.122 7 7 0 3.878-3.122 7-7 7h-9z" fill="#f9f9f9"/>
</svg>
