<svg xmlns="http://www.w3.org/2000/svg" viewBox="0 0 48 48">
 <defs>
  <linearGradient id="linearGradient4816" y1="47" x2="0" y2="1" gradientUnits="userSpaceOnUse">
   <stop style="stop-color:#6767b3;stop-opacity:1"/>
   <stop offset="1" style="stop-color:#7474ba;stop-opacity:1"/>
  </linearGradient>
 </defs>
 <g>
  
  
  
 </g>
 <path d="M 24,1 C 46.703,1 47,1.297 47,24 47,46.703 46.703,47 24,47 1.297,47 1,46.703 1,24 1,1.297 1.297,1 24,1 z" style="fill:url(#linearGradient4816);fill-opacity:1"/>
 <g>
  
 </g>
 <path d="m 22 19 0 19 16 0 0 -16 -3 -3 -13 0 z" style="fill:#000;fill-opacity:0.098;stroke:none;fill-rule:evenodd"/>
 <path d="m 21 18 l 0 19 l 16 0 l 0 -16 l -3 -3 l -13 0 z" style="fill:#eadcdc;fill-opacity:1;stroke:none;fill-rule:evenodd"/>
 <path d="m 12 12 0 19 16 0 0 -16 -3 -3 -13 0 z" style="fill:#000;fill-opacity:0.098;stroke:none;fill-rule:evenodd"/>
 <path d="m 22 31 14 0 0 1 -14 0 z" style="fill:#b5b5b5;fill-opacity:0.853;stroke:none;fill-rule:nonzero"/>
 <path d="m 22 23 14 0 0 1 -14 0 z" style="fill:#59bf4a;fill-opacity:1;stroke:none;fill-rule:nonzero"/>
 <path d="m 22 21 14 0 0 1 -14 0 z" style="fill:#b5b5b5;fill-opacity:0.853;stroke:none;fill-rule:nonzero"/>
 <g transform="matrix(0.61538462,0,0,0.73076921,14.230769,9.9615387)" style="fill:#c83737">
  <g transform="translate(0,-0.004)">
   <g>
    <g transform="translate(1,1)">
     <g style="opacity:0.1">
      <!-- color: #cccdb6 -->
     </g>
    </g>
   </g>
  </g>
 </g>
 <path d="m 22 25 14 0 0 1 -14 0 z" style="fill:#59bf4a;fill-opacity:1;stroke:none;fill-rule:nonzero"/>
 <path d="m 22 27 14 0 0 1 -14 0 z" style="fill:#b5b5b5;fill-opacity:0.853;stroke:none;fill-rule:nonzero"/>
 <path d="m 22 29 14 0 0 1 -14 0 z" style="fill:#b5b5b5;fill-opacity:0.853;stroke:none;fill-rule:nonzero"/>
 <g transform="matrix(0.61538462,0,0,0.73076921,4.2307692,2.9586156)" style="fill:#de8787">
  <g transform="translate(1,1)">
   <g style="opacity:0.1">
    <!-- color: #cccdb6 -->
   </g>
  </g>
 </g>
 <g>
  <path d="m 11 11 l 0 19 l 16 0 l 0 -16 l -3 -3 l -13 0 z" style="fill:#fdfbfb;fill-opacity:1;stroke:none;fill-rule:evenodd"/>
  <path d="m 12 14 14 0 0 1 -14 0 z" style="fill:#b5b5b5;fill-opacity:0.853;stroke:none;fill-rule:nonzero"/>
  <path d="m 12 16 14 0 0 1 -14 0 z" style="fill:#d24c37;fill-opacity:1;stroke:none;fill-rule:nonzero"/>
  <path d="m 12 18 14 0 0 1 -14 0 z" style="fill:#d24c37;fill-opacity:1;stroke:none;fill-rule:nonzero"/>
  <path d="m 12 20 14 0 0 1 -14 0 z" style="fill:#b5b5b5;fill-opacity:0.853;stroke:none;fill-rule:nonzero"/>
  <path d="m 12 22 14 0 0 1 -14 0 z" style="fill:#b5b5b5;fill-opacity:0.853;stroke:none;fill-rule:nonzero"/>
  <path d="m 12 24 14 0 0 1 -14 0 z" style="fill:#b5b5b5;fill-opacity:0.853;stroke:none;fill-rule:nonzero"/>
  <path d="m 12 26 14 0 0 1 -14 0 z" style="fill:#b5b5b5;fill-opacity:0.853;stroke:none;fill-rule:nonzero"/>
  <path d="m 12 28 14 0 0 1 -14 0 z" style="fill:#b5b5b5;fill-opacity:0.853;stroke:none;fill-rule:nonzero"/>
 </g>
 <path d="m 22 33 14 0 0 1 -14 0 z" style="fill:#b5b5b5;fill-opacity:0.853;stroke:none;fill-rule:nonzero"/>
 <path d="m 22 35 14 0 0 1 -14 0 z" style="fill:#b5b5b5;fill-opacity:0.853;stroke:none;fill-rule:nonzero"/>
</svg>
