<svg xmlns="http://www.w3.org/2000/svg" viewBox="0 0 48 48">
 <defs>
  <linearGradient id="linearGradient3764" x1="1" x2="47" gradientUnits="userSpaceOnUse" gradientTransform="matrix(0,-1,1,0,-1.5e-6,47.999998)">
   <stop style="stop-color:#455a85;stop-opacity:1"/>
   <stop offset="1" style="stop-color:#4c6392;stop-opacity:1"/>
  </linearGradient>
 </defs>
 <g>
  
  
  
 </g>
 <g>
  <path d="m 47,24 C 47,46.703 46.703,47 24,47 1.297,47 1,46.703 1,24 1,1.297 1.297,1 24,1 46.703,1 47,1.297 47,24 z" style="fill:url(#linearGradient3764);fill-opacity:1"/>
 </g>
 <g>
  <g>
   <!-- color: #4c6392 -->
   <g>
    <path d="m 16 14 a 3 3 0 0 0 -3 3 3 3 0 0 0 2 2.826 l 0 11.35 A 3 3 0 0 0 13 34 a 3 3 0 0 0 3 3 3 3 0 0 0 3 -3 3 3 0 0 0 -2 -2.826 L 17 19.824 A 3 3 0 0 0 18.916 17.688 L 22 20 l 0 -2 9.996 0 c 0.578 0 1 0.453 1 1 L 33 31.18 A 3 3 0 0 0 31 34 a 3 3 0 0 0 3 3 3 3 0 0 0 3 -3 3 3 0 0 0 -2 -2.826 L 34.996 16.996 c 0 -0.582 -0.469 -0.994 -1 -0.994 L 22 16 22 14 18.916 16.313 A 3 3 0 0 0 16 14 m 0 1 a 2 2 0 0 1 2 2 2 2 0 0 1 -2 2 2 2 0 0 1 -2 -2 2 2 0 0 1 2 -2 z m 0 17 a 2 2 0 0 1 2 2 2 2 0 0 1 -2 2 2 2 0 0 1 -2 -2 2 2 0 0 1 2 -2 z m 18 0 a 2 2 0 0 1 2 2 2 2 0 0 1 -2 2 2 2 0 0 1 -2 -2 2 2 0 0 1 2 -2 z" style="fill:#000;fill-opacity:0.098;stroke:none;fill-rule:nonzero"/>
   </g>
  </g>
 </g>
 <g>
  
 </g>
 <g>
  <path d="m 14 18.527 0 11.986 2 -0.027 0 -12.01" style="fill:#f4f4ff;fill-opacity:1;stroke:none;fill-rule:nonzero"/>
  <path d="m 20 17 10.996 0 c 0.578 0 1 0.453 1 1 l 0.004 12.5 l 2 0 -0.004 -14.503 c 0 -0.582 -0.469 -0.996 -1 -0.996 l -13 0" style="fill:#f4f4ff;fill-opacity:1;stroke:none;fill-rule:nonzero"/>
  <path d="m 21 13 l -4 3 l 4 3 m 0 -6" style="fill:#f4f4ff;fill-opacity:1;stroke:none;fill-rule:nonzero"/>
  <path d="m 15 13 a 3 3 0 0 0 -3 3 3 3 0 0 0 3 3 3 3 0 0 0 3 -3 3 3 0 0 0 -3 -3 z m 0 1 a 2 2 0 0 1 2 2 2 2 0 0 1 -2 2 2 2 0 0 1 -2 -2 2 2 0 0 1 2 -2 z" style="fill:#f4f4ff;fill-opacity:1;stroke:none;fill-rule:evenodd"/>
  <path d="m 15 30 a 3 3 0 0 0 -3 3 3 3 0 0 0 3 3 3 3 0 0 0 3 -3 3 3 0 0 0 -3 -3 z m 0 1 a 2 2 0 0 1 2 2 2 2 0 0 1 -2 2 2 2 0 0 1 -2 -2 2 2 0 0 1 2 -2 z" style="fill:#f4f4ff;fill-opacity:1;stroke:none;fill-rule:evenodd"/>
  <path d="m 33 30 a 3 3 0 0 0 -3 3 3 3 0 0 0 3 3 3 3 0 0 0 3 -3 3 3 0 0 0 -3 -3 z m 0 1 a 2 2 0 0 1 2 2 2 2 0 0 1 -2 2 2 2 0 0 1 -2 -2 2 2 0 0 1 2 -2 z" style="fill:#f4f4ff;fill-opacity:1;stroke:none;fill-rule:evenodd"/>
 </g>
</svg>
