<svg viewBox="0 0 48 48" xmlns="http://www.w3.org/2000/svg" xmlns:xlink="http://www.w3.org/1999/xlink">
  <linearGradient id="a" gradientTransform="matrix(0 -1 1 0 -.0000015 47.999998)" gradientUnits="userSpaceOnUse" x1="1" x2="47">
    <stop offset="0" stop-color="#455a85"/>
    <stop offset="1" stop-color="#4c6392"/>
  </linearGradient>
  <path d="m47 24c0 22.703-.297 23-23 23-22.703 0-23-.297-23-23 0-22.703.297-23 23-23 22.703 0 23 .297 23 23z" fill="url(#a)"/>
  <path d="m16 14a3 3 0 0 0-3 3 3 3 0 0 0  2 2.826v11.35a3 3 0 0 0-2 2.824 3 3 0 0 0  3 3 3 3 0 0 0  3-3 3 3 0 0 0-2-2.826v-11.35a3 3 0 0 0 1.916-2.136l3.084 2.312v-2h9.996c.578 0 1 .453 1 1l .004 12.18a3 3 0 0 0-2 2.82 3 3 0 0 0  3 3 3 3 0 0 0  3-3 3 3 0 0 0-2-2.826l-.004-14.178c0-.582-.469-.994-1-.994l-11.996-.002v-2l-3.084 2.313a3 3 0 0 0-2.916-2.313m0 1a2 2 0 0 1 2 2 2 2 0 0 1-2 2 2 2 0 0 1-2-2 2 2 0 0 1  2-2zm0 17a2 2 0 0 1 2 2 2 2 0 0 1-2 2 2 2 0 0 1-2-2 2 2 0 0 1  2-2zm18 0a2 2 0 0 1 2 2 2 2 0 0 1-2 2 2 2 0 0 1-2-2 2 2 0 0 1  2-2z" fill-opacity=".098"/>
  <path d="m14 18.527v11.986l2-.027v-12.01" fill="#f4f4ff"/>
  <path d="m20 17h10.996c.578 0 1 .453 1 1l .004 12.5h2l-.004-14.503c0-.582-.469-.996-1-.996h-13" fill="#f4f4ff"/>
  <path d="m21 13l-4 3 4 3m0-6" fill="#f4f4ff"/>
  <path d="m15 13a3 3 0 0 0-3 3 3 3 0 0 0  3 3 3 3 0 0 0  3-3 3 3 0 0 0-3-3zm0 1a2 2 0 0 1 2 2 2 2 0 0 1-2 2 2 2 0 0 1-2-2 2 2 0 0 1  2-2z" fill="#f4f4ff" fill-rule="evenodd"/>
  <path d="m15 30a3 3 0 0 0-3 3 3 3 0 0 0  3 3 3 3 0 0 0  3-3 3 3 0 0 0-3-3zm0 1a2 2 0 0 1 2 2 2 2 0 0 1-2 2 2 2 0 0 1-2-2 2 2 0 0 1  2-2z" fill="#f4f4ff" fill-rule="evenodd"/>
  <path d="m33 30a3 3 0 0 0-3 3 3 3 0 0 0  3 3 3 3 0 0 0  3-3 3 3 0 0 0-3-3zm0 1a2 2 0 0 1 2 2 2 2 0 0 1-2 2 2 2 0 0 1-2-2 2 2 0 0 1  2-2z" fill="#f4f4ff" fill-rule="evenodd"/>
</svg>
