<svg xmlns="http://www.w3.org/2000/svg" viewBox="0 0 48 48">
 <defs>
  <linearGradient id="linearGradient3843" gradientUnits="userSpaceOnUse" gradientTransform="matrix(0,-1,1,0,-1.5e-6,47.999998)" x1="1" x2="47">
   <stop style="stop-color:#5c6149;stop-opacity:1"/>
   <stop offset="1" style="stop-color:#676c52;stop-opacity:1"/>
  </linearGradient>
 </defs>
 <g>
  
  
  
 </g>
 <path d="M 24,1 C 46.703,1 47,1.297 47,24 47,46.703 46.703,47 24,47 1.297,47 1,46.703 1,24 1,1.297 1.297,1 24,1 z" style="fill:url(#linearGradient3843);fill-opacity:1"/>
 <g>
  
 </g>
 <path d="m 24 12 -3 3 0 1 3 3 1 0 3 -3 0 -1 -3 -3 -1 0 z m 0.5 2.5 1 1 -1 1 -1 -1 1 -1 z m -6.5 3.5 l 0 5 -3 0 -3 3 0 7 9 0 0 -15 -3 0 z m 16 2.979 -6 0.021 l 0 12 3 0 0 -9.02 2 0.021 2 2 0 7 3 0 0 -8.02 -4 -4 z m -11 0.021 l 0 12 3 0 0 -12 -3 0 z m -7 5 2 0 0 4 -3 0 0 -3 1 -1 z" mix-blend-mode="normal" isolation="auto" white-space="normal" solid-opacity="1" solid-color="#000000" style="visibility:visible;shape-rendering:auto;color-interpolation-filters:linearRGB;fill:#000;opacity:0.1;image-rendering:auto;fill-opacity:1;stroke:none;display:inline;color:#000;fill-rule:evenodd;color-rendering:auto;color-interpolation:sRGB"/>
 <path d="m 23 11 l -3 3 l 0 1 l 3 3 l 1 0 l 3 -3 l 0 -1 l -3 -3 l -1 0 z m 0.5 2.5 l 1 1 l -1 1 l -1 -1 l 1 -1 z m -6.5 3.5 l 0 5 l -3 0 l -3 3 l 0 7 l 9 0 l 0 -15 l -3 0 z m 16 2.979 l -6 0.021 l 0 12 l 3 0 l 0 -9.02 l 2 0.021 l 2 2 l 0 7 l 3 0 l 0 -8.02 l -4 -4 z m -11 0.021 l 0 12 l 3 0 l 0 -12 l -3 0 z m -7 5 l 2 0 l 0 4 l -3 0 l 0 -3 l 1 -1 z" mix-blend-mode="normal" isolation="auto" white-space="normal" solid-opacity="1" solid-color="#000000" style="visibility:visible;shape-rendering:auto;color-interpolation-filters:linearRGB;fill:#f4f8cd;opacity:1;image-rendering:auto;fill-opacity:1;stroke:none;display:inline;color:#000;fill-rule:evenodd;color-rendering:auto;color-interpolation:sRGB"/>
</svg>
