<svg viewBox="0 0 48 48" xmlns="http://www.w3.org/2000/svg" xmlns:xlink="http://www.w3.org/1999/xlink">
  <linearGradient id="a" gradientTransform="matrix(0 -1 1 0 -.0000015 47.999998)" gradientUnits="userSpaceOnUse" x1="1" x2="47">
    <stop offset="0" stop-color="#e4e4e4"/>
    <stop offset="1" stop-color="#eee"/>
  </linearGradient>
  <path d="m47 24c0 22.703-.297 23-23 23-22.703 0-23-.297-23-23 0-22.703.297-23 23-23 22.703 0 23 .297 23 23z" fill="url(#a)"/>
  <path d="m36 32.32c0 1.328-.453 2.441-1.355 3.336-.902.895-2.02 1.344-3.355 1.344-1.543 0-2.887-.566-4.03-1.703l-13.32-13.203c-1.289-1.305-1.938-2.84-1.938-4.609 0-1.805.629-3.34 1.887-4.598 1.258-1.258 2.793-1.887 4.602-1.887 1.813 0 3.363.641 4.688 1.922l10.371 10.313c.105.113.172.238.172.375 0 .18-.176.445-.523.789-.352.344-.617.52-.801.52-.148 0-.277-.059-.391-.172l-10.398-10.328c-.895-.875-1.938-1.313-3.102-1.313-1.215 0-2.234.426-3.07 1.277-.832.852-1.25 1.875-1.25 3.078 0 1.191.441 2.219 1.305 3.078l13.309 13.223c.719.715 1.551 1.074 2.48 1.074.73 0 1.336-.242 1.816-.719.48-.477.719-1.078.719-1.801 0-.934-.352-1.754-1.082-2.469l-9.957-9.883c-.301-.273-.641-.41-1.02-.41-.332 0-.605.109-.824.324-.215.215-.324.488-.324.816 0 .363.141.699.426 1l7.03 6.977c.113.113.172.238.172.375 0 .184-.18.449-.531.801-.352.352-.625.527-.805.527-.137 0-.262-.055-.375-.168l-7.03-6.977c-.723-.691-1.082-1.539-1.082-2.539 0-.93.328-1.719.98-2.367.645-.645 1.445-.969 2.379-.969 1.01 0 1.859.355 2.555 1.074l9.961 9.883c1.145 1.113 1.715 2.449 1.715 4m0 0" fill-opacity=".941" opacity=".1" transform="translate(1 1)"/>
  <path d="m36 32.32c0 1.328-.453 2.441-1.355 3.336-.902.895-2.02 1.344-3.355 1.344-1.543 0-2.887-.566-4.03-1.703l-13.32-13.203c-1.289-1.305-1.938-2.84-1.938-4.609 0-1.805.629-3.34 1.887-4.598 1.258-1.258 2.793-1.887 4.602-1.887 1.813 0 3.363.641 4.688 1.922l10.371 10.313c.105.113.172.238.172.375 0 .18-.176.445-.523.789-.352.344-.617.52-.801.52-.148 0-.277-.059-.391-.172l-10.398-10.328c-.895-.875-1.938-1.313-3.102-1.313-1.215 0-2.234.426-3.07 1.277-.832.852-1.25 1.875-1.25 3.078 0 1.191.441 2.219 1.305 3.078l13.309 13.223c.719.715 1.551 1.074 2.48 1.074.73 0 1.336-.242 1.816-.719.48-.477.719-1.078.719-1.801 0-.934-.352-1.754-1.082-2.469l-9.957-9.883c-.301-.273-.641-.41-1.02-.41-.332 0-.605.109-.824.324-.215.215-.324.488-.324.816 0 .363.141.699.426 1l7.03 6.977c.113.113.172.238.172.375 0 .184-.18.449-.531.801-.352.352-.625.527-.805.527-.137 0-.262-.055-.375-.168l-7.03-6.977c-.723-.691-1.082-1.539-1.082-2.539 0-.93.328-1.719.98-2.367.645-.645 1.445-.969 2.379-.969 1.01 0 1.859.355 2.555 1.074l9.961 9.883c1.145 1.113 1.715 2.449 1.715 4m0 0" fill="#53535f" fill-opacity=".941"/>
</svg>
