<svg viewBox="0 0 48 48" xmlns="http://www.w3.org/2000/svg" xmlns:xlink="http://www.w3.org/1999/xlink">
  <linearGradient id="a" gradientTransform="matrix(0 -1 1 0 -.0000015 47.999998)" gradientUnits="userSpaceOnUse" x1="1" x2="47">
    <stop offset="0" stop-color="#e49617"/>
    <stop offset="1" stop-color="#e99f27"/>
  </linearGradient>
  <path d="m47 24c0 22.703-.297 23-23 23-22.703 0-23-.297-23-23 0-22.703.297-23 23-23 22.703 0 23 .297 23 23z" fill="url(#a)"/>
  <path d="m21.461 15.651c0 0-3.05-.067-6.256 2.338 0 0-3.205 5.811-3.205 12.979 0 0 1.869 3.227 6.789 3.383 0 0 .825-1 1.492-1.846-2.827-.846-3.895-2.627-3.895-2.627.345.228.565.356.912.557.553.319 1.113.556 1.625.756.913.356 1.998.718 3.27.959 1.669.316 3.626.409 5.766.02 1.044-.19 2.116-.489 3.229-.957.779-.289 1.646-.713 2.559-1.314 0 0-1.111 1.826-4.03 2.65.668.846 1.469 1.803 1.469 1.803 4.925-.159 6.814-3.383 6.814-3.383 0-7.168-3.205-12.979-3.205-12.979-3.206-2.404-6.256-2.338-6.256-2.338l-.311.357c3.784 1.158 5.543 2.826 5.543 2.826-2.315-1.269-4.583-1.918-6.701-2.137-1.703-.176-3.365-.08-4.875.09-.777.087-2.671.356-5.05 1.402-.824.378-1.313.645-1.313.645 0 0 1.847-1.758 5.854-2.916l-.223-.268m-.713 8.35c1.243 0 2.25 1.119 2.25 2.5 0 1.381-1.01 2.5-2.25 2.5-1.243 0-2.25-1.119-2.25-2.5 0-1.381 1.01-2.5 2.25-2.5zm8.5 0c1.243 0 2.25 1.119 2.25 2.5 0 1.381-1.01 2.5-2.25 2.5-1.243 0-2.25-1.119-2.25-2.5 0-1.381 1.01-2.5 2.25-2.5z" opacity=".1"/>
  <path d="m20.461 14.65c0 0-3.05-.067-6.256 2.338 0 0-3.205 5.811-3.205 12.979 0 0 1.869 3.227 6.789 3.383 0 0 .825-1 1.492-1.846-2.827-.846-3.895-2.627-3.895-2.627.345.228.565.356.912.557.553.319 1.113.556 1.625.756.913.356 1.998.718 3.27.959 1.669.316 3.626.409 5.766.02 1.044-.19 2.116-.489 3.229-.957.779-.289 1.646-.713 2.559-1.314 0 0-1.111 1.826-4.03 2.65.668.846 1.469 1.803 1.469 1.803 4.925-.159 6.814-3.383 6.814-3.383 0-7.168-3.205-12.979-3.205-12.979-3.206-2.404-6.256-2.338-6.256-2.338l-.311.357c3.784 1.158 5.543 2.826 5.543 2.826-2.315-1.269-4.583-1.918-6.701-2.137-1.703-.176-3.365-.08-4.875.09-.777.087-2.671.356-5.05 1.402-.824.378-1.313.645-1.313.645 0 0 1.847-1.758 5.854-2.916l-.223-.268m-.713 8.35c1.243 0 2.25 1.119 2.25 2.5 0 1.381-1.01 2.5-2.25 2.5-1.243 0-2.25-1.119-2.25-2.5 0-1.381 1.01-2.5 2.25-2.5zm8.5 0c1.243 0 2.25 1.119 2.25 2.5 0 1.381-1.01 2.5-2.25 2.5-1.243 0-2.25-1.119-2.25-2.5 0-1.381 1.01-2.5 2.25-2.5" fill="#f9f9f9"/>
</svg>
