<svg xmlns="http://www.w3.org/2000/svg" viewBox="0 0 48 48">
 <defs>
  <linearGradient id="linearGradient3764" x1="1" x2="47" gradientUnits="userSpaceOnUse" gradientTransform="matrix(0,-1,1,0,-1.5e-6,47.999998)">
   <stop style="stop-color:#627ad6;stop-opacity:1"/>
   <stop offset="1" style="stop-color:#7287da;stop-opacity:1"/>
  </linearGradient>
 </defs>
 <g>
  
  
  
 </g>
 <g>
  <path d="m 47,24 C 47,46.703 46.703,47 24,47 1.297,47 1,46.703 1,24 1,1.297 1.297,1 24,1 46.703,1 47,1.297 47,24 z" style="fill:url(#linearGradient3764);fill-opacity:1"/>
 </g>
 <g>
  <g>
   <!-- color: #5f9af3 -->
  </g>
 </g>
 <g>
  
 </g>
 <path d="m 21.461 15.651 c 0 0 -3.05 -0.067 -6.256 2.338 0 0 -3.205 5.811 -3.205 12.979 0 0 1.869 3.227 6.789 3.383 0 0 0.825 -1 1.492 -1.846 -2.827 -0.846 -3.895 -2.627 -3.895 -2.627 0.345 0.228 0.565 0.356 0.912 0.557 0.553 0.319 1.113 0.556 1.625 0.756 0.913 0.356 1.998 0.718 3.27 0.959 1.669 0.316 3.626 0.409 5.766 0.02 1.044 -0.19 2.116 -0.489 3.229 -0.957 0.779 -0.289 1.646 -0.713 2.559 -1.314 0 0 -1.111 1.826 -4.03 2.65 0.668 0.846 1.469 1.803 1.469 1.803 c 4.925 -0.159 6.814 -3.383 6.814 -3.383 c 0 -7.168 -3.205 -12.979 -3.205 -12.979 -3.206 -2.404 -6.256 -2.338 -6.256 -2.338 l -0.311 0.357 c 3.784 1.158 5.543 2.826 5.543 2.826 -2.315 -1.269 -4.583 -1.918 -6.701 -2.137 -1.703 -0.176 -3.365 -0.08 -4.875 0.09 -0.777 0.087 -2.671 0.356 -5.05 1.402 -0.824 0.378 -1.313 0.645 -1.313 0.645 0 0 1.847 -1.758 5.854 -2.916 l -0.223 -0.268 m -0.713 8.35 c 1.243 0 2.25 1.119 2.25 2.5 0 1.381 -1.01 2.5 -2.25 2.5 -1.243 0 -2.25 -1.119 -2.25 -2.5 0 -1.381 1.01 -2.5 2.25 -2.5 z m 8.5 0 c 1.243 0 2.25 1.119 2.25 2.5 0 1.381 -1.01 2.5 -2.25 2.5 -1.243 0 -2.25 -1.119 -2.25 -2.5 0 -1.381 1.01 -2.5 2.25 -2.5 z" style="fill:#000;opacity:0.1"/>
 <path d="m 20.461 14.65 c 0 0 -3.05 -0.067 -6.256 2.338 0 0 -3.205 5.811 -3.205 12.979 0 0 1.869 3.227 6.789 3.383 0 0 0.825 -1 1.492 -1.846 -2.827 -0.846 -3.895 -2.627 -3.895 -2.627 0.345 0.228 0.565 0.356 0.912 0.557 0.553 0.319 1.113 0.556 1.625 0.756 0.913 0.356 1.998 0.718 3.27 0.959 1.669 0.316 3.626 0.409 5.766 0.02 1.044 -0.19 2.116 -0.489 3.229 -0.957 0.779 -0.289 1.646 -0.713 2.559 -1.314 0 0 -1.111 1.826 -4.03 2.65 0.668 0.846 1.469 1.803 1.469 1.803 c 4.925 -0.159 6.814 -3.383 6.814 -3.383 c 0 -7.168 -3.205 -12.979 -3.205 -12.979 -3.206 -2.404 -6.256 -2.338 -6.256 -2.338 l -0.311 0.357 c 3.784 1.158 5.543 2.826 5.543 2.826 -2.315 -1.269 -4.583 -1.918 -6.701 -2.137 -1.703 -0.176 -3.365 -0.08 -4.875 0.09 -0.777 0.087 -2.671 0.356 -5.05 1.402 -0.824 0.378 -1.313 0.645 -1.313 0.645 0 0 1.847 -1.758 5.854 -2.916 l -0.223 -0.268 m -0.713 8.35 c 1.243 0 2.25 1.119 2.25 2.5 0 1.381 -1.01 2.5 -2.25 2.5 -1.243 0 -2.25 -1.119 -2.25 -2.5 0 -1.381 1.01 -2.5 2.25 -2.5 z m 8.5 0 c 1.243 0 2.25 1.119 2.25 2.5 0 1.381 -1.01 2.5 -2.25 2.5 c -1.243 0 -2.25 -1.119 -2.25 -2.5 0 -1.381 1.01 -2.5 2.25 -2.5" style="fill:#f9f9f9"/>
</svg>
