<svg xmlns="http://www.w3.org/2000/svg" viewBox="0 0 48 48">
 <defs>
  <linearGradient id="linearGradient3764" x1="1" x2="47" gradientUnits="userSpaceOnUse" gradientTransform="matrix(0,-1,1,0,-1.5e-6,47.999998)">
   <stop style="stop-color:#e4e4e4;stop-opacity:1"/>
   <stop offset="1" style="stop-color:#eee;stop-opacity:1"/>
  </linearGradient>
 </defs>
 <g>
  
  
  
 </g>
 <g>
  <path d="m 47,24 C 47,46.703 46.703,47 24,47 1.297,47 1,46.703 1,24 1,1.297 1.297,1 24,1 46.703,1 47,1.297 47,24 z" style="fill:url(#linearGradient3764);fill-opacity:1"/>
 </g>
 <g>
  <g>
   <g transform="translate(1,1)">
    <g style="opacity:0.1">
     <!-- color: #eeeeee -->
     <g>
      <path d="m 12.805 12 c -0.438 0.047 -0.809 0.457 -0.809 0.902 l 0 15.1 c 0 0.469 0.531 1 1 1 l 9 0 l 0 5.988 l 4 0 l 0 -5.988 l 9 0 c 0.473 0 1 -0.531 1 -1 l 0 -15.1 c 0 -0.473 -0.43 -0.902 -0.898 -0.902 m -20.1 2 l 18 0 c 0.473 0 0.996 0.586 0.996 1 l 0 10.996 c 0 0.469 -0.559 1 -0.996 1 l -18 0 c -0.52 0 -1 -0.477 -1 -1 l 0 -10.996 c 0 -0.406 0.52 -1 1 -1 m 0 19 l 0 3 l 18 0 l 0 -3 m -18 0" style="fill:#000;fill-opacity:1;stroke:none;fill-rule:nonzero"/>
      <path d="m 13.5 12.5 l 0 16 l 21 0 l 0 -16 m -8.5 1.5 l 8 8 l -8 0 m 0 -8" style="fill:#000;fill-opacity:1;stroke:none;fill-rule:nonzero"/>
     </g>
    </g>
   </g>
  </g>
 </g>
 <g>
  <g>
   <!-- color: #eeeeee -->
   <g>
    <path d="m 12.805 12 c -0.438 0.047 -0.809 0.457 -0.809 0.902 l 0 15.1 c 0 0.469 0.531 1 1 1 l 9 0 l 0 5.988 l 4 0 l 0 -5.988 l 9 0 c 0.473 0 1 -0.531 1 -1 l 0 -15.1 c 0 -0.473 -0.43 -0.902 -0.898 -0.902 m -20.1 2 l 18 0 c 0.473 0 0.996 0.586 0.996 1 l 0 10.996 c 0 0.469 -0.559 1 -0.996 1 l -18 0 c -0.52 0 -1 -0.477 -1 -1 l 0 -10.996 c 0 -0.406 0.52 -1 1 -1 m 0 19 l 0 3 l 18 0 l 0 -3 m -18 0" style="fill:#5ab2fb;fill-opacity:1;stroke:none;fill-rule:nonzero"/>
    <path d="m 13.5 12.5 l 0 16 l 21 0 l 0 -16 m -8.5 1.5 l 8 8 l -8 0 m 0 -8" style="fill:#5ab2fb;fill-opacity:1;stroke:none;fill-rule:nonzero"/>
   </g>
  </g>
 </g>
 <g>
  
 </g>
</svg>
