<svg xmlns="http://www.w3.org/2000/svg" viewBox="0 0 48 48">
 <defs>
  <linearGradient id="linearGradient3764" x1="1" x2="47" gradientUnits="userSpaceOnUse" gradientTransform="matrix(0,-1,1,0,-1.5e-6,47.999998)">
   <stop style="stop-color:#1c6b82;stop-opacity:1"/>
   <stop offset="1" style="stop-color:#207992;stop-opacity:1"/>
  </linearGradient>
 </defs>
 <g>
  
  
  
 </g>
 <g>
  <path d="m 47,24 C 47,46.703 46.703,47 24,47 1.297,47 1,46.703 1,24 1,1.297 1.297,1 24,1 46.703,1 47,1.297 47,24 z" style="fill:url(#linearGradient3764);fill-opacity:1"/>
 </g>
 <g>
  <g>
   <g transform="translate(1,1)">
    <g style="opacity:0.1">
     <!-- color: #abd240 -->
    </g>
   </g>
  </g>
 </g>
 <g>
  <g>
   <!-- color: #abd240 -->
  </g>
 </g>
 <g>
  
 </g>
 <path d="m 20.699 13 c -0.7 0 -0.699 2.177 -0.699 3.199 c -1 0.8 -1 2.2 -1 3.301 0 1.933 1.119 3.5 2.5 3.5 1.5 0 2.5 -1 2.5 -4 0 -2 -1 -3 -3 -3 0 -1.074 -0.001 -3 -0.301 -3 z m 8.602 0 c -0.3 0 -0.301 1.926 -0.301 3 c -2 0 -3 1 -3 3 0 2.683 1 4 2.5 4 1.381 0 2.5 -1.567 2.5 -3.5 0 -1.101 0 -2.501 -1 -3.301 c 0 -1.022 0.001 -3.199 -0.699 -3.199 m -15.801 8 c -0.5 0 -0.5 2.31 -0.5 3.5 c 0 1.5 0.305 2.574 0.99 3.447 0.892 1.137 3.356 1.46 4.293 0.449 0.469 -0.505 1 -1.448 0.504 -2.045 l -2.787 -3.352 c -0.36 -0.433 -1.532 -0.472 -2 -0.135 0 -0.865 0 -1.865 -0.5 -1.865 m 23 0 c -0.5 0 -0.5 1 -0.5 1.865 -0.468 -0.338 -1.64 -0.299 -2 0.135 l -2.787 3.352 c -0.497 0.597 0.035 1.54 0.504 2.045 0.937 1.01 3.401 0.688 4.293 -0.449 c 0.685 -0.873 0.99 -1.947 0.99 -3.447 0 -1.19 0 -3.5 -0.5 -3.5 m -11.5 3 c -3 0 -3.381 3.165 -4.5 5 -0.88 1.443 -3.5 2 -3.5 3.5 0 1.5 0.5 2.5 2.5 2.5 1.5 0 1.5 -2 5.5 -2 4 0 4 2 5.5 2 2 0 2.5 -1 2.5 -2.5 c 0 -1.5 -2.62 -2.057 -3.5 -3.5 -1.119 -1.835 -1.5 -5 -4.5 -5" style="fill:#000;opacity:0.1;fill-opacity:1;stroke:none"/>
 <path d="m 19.699 12 c -0.7 0 -0.699 2.177 -0.699 3.199 c -1 0.8 -1 2.2 -1 3.301 0 1.933 1.119 3.5 2.5 3.5 1.5 0 2.5 -1 2.5 -4 0 -2 -1 -3 -3 -3 0 -1.074 -0.001 -3 -0.301 -3 z m 8.602 0 c -0.3 0 -0.301 1.926 -0.301 3 c -2 0 -3 1 -3 3 0 2.683 1 4 2.5 4 1.381 0 2.5 -1.567 2.5 -3.5 0 -1.101 0 -2.501 -1 -3.301 c 0 -1.022 0.001 -3.199 -0.699 -3.199 m -15.801 8 c -0.5 0 -0.5 2.31 -0.5 3.5 c 0 1.5 0.305 2.574 0.99 3.447 0.892 1.137 3.356 1.46 4.293 0.449 0.469 -0.505 1 -1.448 0.504 -2.045 l -2.787 -3.352 c -0.36 -0.433 -1.532 -0.472 -2 -0.135 0 -0.865 0 -1.865 -0.5 -1.865 m 23 0 c -0.5 0 -0.5 1 -0.5 1.865 -0.468 -0.338 -1.64 -0.299 -2 0.135 l -2.787 3.352 c -0.497 0.597 0.035 1.54 0.504 2.045 0.937 1.01 3.401 0.688 4.293 -0.449 c 0.685 -0.873 0.99 -1.947 0.99 -3.447 0 -1.19 0 -3.5 -0.5 -3.5 m -11.5 3 c -3 0 -3.381 3.165 -4.5 5 -0.88 1.443 -3.5 2 -3.5 3.5 0 1.5 0.5 2.5 2.5 2.5 1.5 0 1.5 -2 5.5 -2 4 0 4 2 5.5 2 2 0 2.5 -1 2.5 -2.5 c 0 -1.5 -2.62 -2.057 -3.5 -3.5 -1.119 -1.835 -1.5 -5 -4.5 -5" style="fill:#f9f9f9;opacity:1;fill-opacity:1;stroke:none"/>
</svg>
