<svg xmlns="http://www.w3.org/2000/svg" viewBox="0 0 48 48">
 <defs>
  <linearGradient id="linearGradient3764" x1="1" x2="47" gradientUnits="userSpaceOnUse" gradientTransform="matrix(0,-1,1,0,-1.5e-6,47.999998)">
   <stop style="stop-color:#333;stop-opacity:1"/>
   <stop offset="1" style="stop-color:#3d3d3d;stop-opacity:1"/>
  </linearGradient>
 </defs>
 <g>
  
  
  
 </g>
 <g>
  <path d="m 47,24 C 47,46.703 46.703,47 24,47 1.297,47 1,46.703 1,24 1,1.297 1.297,1 24,1 46.703,1 47,1.297 47,24 z" style="fill:url(#linearGradient3764);fill-opacity:1"/>
 </g>
 <g>
  
 </g>
 <path d="m 31.33 15 c -0.72 0.07 -1.485 0.199 -2.282 0.371 l -5.05 5.281 c 0.579 0.071 1.109 0.188 1.593 0.353 z m 3.558 0.297 -6.992 7.304 c 1.966 2.595 1.274 7.808 -2.864 16.4 3.062 -3.404 16.634 -20.773 10.31 -23.507 m -9.771 0.833 c -0.967 0.313 -1.952 0.669 -2.933 1.047 l -3.344 3.493 c 0.767 -0.127 1.494 -0.212 2.179 -0.257 z m -5.01 1.879 c -6.101 2.556 -11.556 5.677 -11.556 5.677 c 3.241 -1.237 6.168 -2.162 8.722 -2.717 z" style="fill:#000;opacity:0.1;fill-opacity:1"/>
 <path d="m 30.33 14 c -0.72 0.07 -1.485 0.199 -2.282 0.371 l -5.05 5.281 c 0.579 0.071 1.109 0.188 1.593 0.353 z m 3.558 0.297 -6.992 7.304 c 1.966 2.595 1.274 7.808 -2.864 16.4 3.062 -3.404 16.634 -20.773 10.31 -23.507 m -9.771 0.833 c -0.967 0.313 -1.952 0.669 -2.933 1.047 l -3.344 3.493 c 0.767 -0.127 1.494 -0.212 2.179 -0.257 z m -5.01 1.879 c -6.101 2.556 -11.556 5.677 -11.556 5.677 3.241 -1.237 6.168 -2.162 8.722 -2.717" style="fill:#7b7fb1;fill-opacity:1"/>
</svg>
