<svg xmlns="http://www.w3.org/2000/svg" viewBox="0 0 48 48">
 <defs>
  <linearGradient id="linearGradient3764" x1="1" x2="47" gradientUnits="userSpaceOnUse" gradientTransform="matrix(0,-1,1,0,-1.5e-6,47.999998)">
   <stop style="stop-color:#0786e6;stop-opacity:1"/>
   <stop offset="1" style="stop-color:#0991f7;stop-opacity:1"/>
  </linearGradient>
 </defs>
 <g>
  
  
  
 </g>
 <g>
  <path d="m 47,24 C 47,46.703 46.703,47 24,47 1.297,47 1,46.703 1,24 1,1.297 1.297,1 24,1 46.703,1 47,1.297 47,24 z" style="fill:url(#linearGradient3764);fill-opacity:1"/>
 </g>
 <g>
  <g>
   <g transform="translate(1,1)">
    <g style="opacity:0.1">
     <!-- color: #abd240 -->
    </g>
   </g>
  </g>
 </g>
 <g>
  <g>
   <!-- color: #abd240 -->
  </g>
 </g>
 <g>
  
 </g>
 <path d="m 17.875 16.14 c -2.6 2.549 -3.234 6.387 0.325 9.876 l 7.15 7.01 1.95 -1.912 -7.15 -7.01 c -1.535 -1.505 -2.6 -3.823 -0.325 -6.05 c 1.3 -1.274 1.926 -1.723 3.185 -2.612 l 13.96 13.841 2.03 -1.99 -15.6 -15.292 c -2.093 1.3 -3.575 2.23 -5.525 4.142 z m -4.875 12.425 l 7.15 7.01 c 3.559 3.489 7.475 2.867 10.07 0.319 1.95 -1.912 2.899 -3.365 4.225 -5.416 l -11.7 -11.469 -2.03 1.99 10.22 9.861 c -0.907 1.234 -1.365 1.848 -2.665 3.122 -2.275 2.23 -4.64 1.186 -6.175 -0.319 l -7.15 -7.01 -1.95 1.912" style="fill:#000;opacity:0.1;fill-opacity:1;stroke:none"/>
 <path d="m 16.875 15.14 c -2.6 2.549 -3.234 6.387 0.325 9.876 l 7.15 7.01 1.95 -1.912 -7.15 -7.01 c -1.535 -1.505 -2.6 -3.823 -0.325 -6.05 c 1.3 -1.274 1.926 -1.723 3.185 -2.612 l 13.96 13.841 2.03 -1.99 -15.6 -15.292 c -2.093 1.3 -3.575 2.23 -5.525 4.142 z m -4.875 12.425 l 7.15 7.01 c 3.559 3.489 7.475 2.867 10.07 0.319 1.95 -1.912 2.899 -3.365 4.225 -5.416 l -11.7 -11.469 -2.03 1.99 10.22 9.861 c -0.907 1.234 -1.365 1.848 -2.665 3.122 -2.275 2.23 -4.64 1.186 -6.175 -0.319 l -7.15 -7.01 -1.95 1.912" style="fill:#f9f9f9;opacity:1;fill-opacity:1;stroke:none"/>
</svg>
