<svg viewBox="0 0 48 48" xmlns="http://www.w3.org/2000/svg" xmlns:xlink="http://www.w3.org/1999/xlink">
  <linearGradient id="a" gradientTransform="matrix(0 -1 1 0 -.0000015 47.999998)" gradientUnits="userSpaceOnUse" x1="1" x2="47">
    <stop offset="0" stop-color="#0786e6"/>
    <stop offset="1" stop-color="#0991f7"/>
  </linearGradient>
  <path d="m47 24c0 22.703-.297 23-23 23-22.703 0-23-.297-23-23 0-22.703.297-23 23-23 22.703 0 23 .297 23 23z" fill="url(#a)"/>
  <path d="m17.875 16.14c-2.6 2.549-3.234 6.387.325 9.876l7.15 7.01 1.95-1.912-7.15-7.01c-1.535-1.505-2.6-3.823-.325-6.05 1.3-1.274 1.926-1.723 3.185-2.612l13.96 13.841 2.03-1.99-15.6-15.292c-2.093 1.3-3.575 2.23-5.525 4.142zm-4.875 12.425l7.15 7.01c3.559 3.489 7.475 2.867 10.07.319 1.95-1.912 2.899-3.365 4.225-5.416l-11.7-11.469-2.03 1.99 10.22 9.861c-.907 1.234-1.365 1.848-2.665 3.122-2.275 2.23-4.64 1.186-6.175-.319l-7.15-7.01-1.95 1.912" opacity=".1"/>
  <path d="m16.875 15.14c-2.6 2.549-3.234 6.387.325 9.876l7.15 7.01 1.95-1.912-7.15-7.01c-1.535-1.505-2.6-3.823-.325-6.05 1.3-1.274 1.926-1.723 3.185-2.612l13.96 13.841 2.03-1.99-15.6-15.292c-2.093 1.3-3.575 2.23-5.525 4.142zm-4.875 12.425l7.15 7.01c3.559 3.489 7.475 2.867 10.07.319 1.95-1.912 2.899-3.365 4.225-5.416l-11.7-11.469-2.03 1.99 10.22 9.861c-.907 1.234-1.365 1.848-2.665 3.122-2.275 2.23-4.64 1.186-6.175-.319l-7.15-7.01-1.95 1.912" fill="#f9f9f9"/>
</svg>
