<svg viewBox="0 0 48 48" xmlns="http://www.w3.org/2000/svg" xmlns:xlink="http://www.w3.org/1999/xlink">
  <linearGradient id="a" gradientTransform="matrix(0 -3.543307 3.543307 0 0 48)" gradientUnits="userSpaceOnUse" x1="0" x2="13.547">
    <stop offset="0" stop-color="#008ef3"/>
    <stop offset="1" stop-color="#00d4ff"/>
  </linearGradient>
  <path d="m24 1c-22.703 0-23 .297-23 23 0 22.703.297 23 23 23 22.703 0 23-.297 23-23 0-22.703-.297-23-23-23z" fill="url(#a)"/>
  <path d="m24.14 13c-1.461.035-1.363.297-1.98 1.555-.996 2.023-1.695 4.957-1.551 6.691.152 1.852.648 3.059 1.609 3.961 1.152 1.094 2.559.953 3.746-.32 1.066-1.145 1.461-2.332 1.555-4.926.055-1.641.09-1.836.211-1.555.473 1.09.598 3.656.27 4.926-.273 1.051-.953 2.336-1.5 2.84-.723.664-1.5.965-2.57 1.016-.719.035-1 .023-1.555-.16-1.418-.473-3.172-1.828-4.176-3.16-1.43-1.887-2.852-5.727-3.215-8.781-.07-.59-.168-1.125-.211-1.176-.254-.293-1.242.934-1.551 1.93-.203.637-.215.941-.215 6.586v5.945l.27.16c.379.246 2.031.742 3.379 1.016 1.023.211 1.434.27 3.855.27 2.422-.004 2.875-.063 3.805-.27 1.516-.332 2.648-.875 3.59-1.82 1.324-1.328 1.816-2.676 1.82-4.766.004-1.387-.195-2.496-.754-3.59-.199-.398-.395-.727-.375-.75.125-.125 1.508 1.527 1.824 2.195 1.984 4.195 1.035 7.617-3.055 11.03-1.813 1.512-4.953 3.59-6.75 4.496-.629.316-.746.434-.59.59.039.039 3.168.07 6.961.051l6.91-.051.59-.27c1.191-.57 1.945-1.41 2.301-2.57.207-.664.215-.965.215-9.102 0-8.551-.016-9.289-.375-9.426-.082-.031-.891.059-1.77.211-.973.172-2.348.313-3.535.379-2.074.105-3.117.305-4.34.801-1.133.465-1.793.836-2.41 1.34-.555.453-.629.512-.805 1.234-.246.996-.398 1.438-.805 1.98-.305.395-.602.59-.598.375.016-.383.363-1.582.699-2.25.996-1.98 2.293-3.395 4.824-5.301.777-.594 1.445-1.105 1.445-1.184 0-.117-.566-.16-3.109-.16-.91 0-1.602-.012-2.09 0m2.086 5.04c.164 0 .168.164-.051 1.77-.234 1.691-.84 3.043-1.609 3.855-.543.574-1.129.727-1.551.426-.238-.164-.535-.738-.535-1.016 0-.137.051-.141.211-.051.328.172.461.133.859-.215.664-.586 1.359-2.266 1.715-4.176.039-.223.652-.598.961-.598m0-.004" opacity=".1"/>
  <path d="m23.14 12c-1.461.035-1.363.297-1.98 1.555-.996 2.023-1.695 4.957-1.551 6.691.152 1.852.648 3.059 1.609 3.961 1.152 1.094 2.559.953 3.746-.32 1.066-1.145 1.461-2.332 1.555-4.926.055-1.641.09-1.836.211-1.555.473 1.09.598 3.656.27 4.926-.273 1.051-.953 2.336-1.5 2.84-.723.664-1.5.965-2.57 1.016-.719.035-1 .023-1.555-.16-1.418-.473-3.172-1.828-4.176-3.16-1.43-1.887-2.852-5.727-3.215-8.781-.07-.59-.168-1.125-.211-1.176-.254-.293-1.242.934-1.551 1.93-.203.637-.215.941-.215 6.586v5.945l.27.16c.379.246 2.031.742 3.379 1.016 1.023.211 1.434.27 3.855.27 2.422-.004 2.875-.063 3.805-.27 1.516-.332 2.648-.875 3.59-1.82 1.324-1.328 1.816-2.676 1.82-4.766.004-1.387-.195-2.496-.754-3.59-.199-.398-.395-.727-.375-.75.125-.125 1.508 1.527 1.824 2.195 1.984 4.195 1.035 7.617-3.055 11.03-1.813 1.512-4.953 3.59-6.75 4.496-.629.316-.746.434-.59.59.039.039 3.168.07 6.961.051l6.91-.051.59-.27c1.191-.57 1.945-1.41 2.301-2.57.207-.664.215-.965.215-9.102 0-8.551-.016-9.289-.375-9.426-.082-.031-.891.059-1.77.211-.973.172-2.348.313-3.535.379-2.074.105-3.117.305-4.34.801-1.133.465-1.793.836-2.41 1.34-.555.453-.629.512-.805 1.234-.246.996-.398 1.438-.805 1.98-.305.395-.602.59-.598.375.016-.383.363-1.582.699-2.25.996-1.98 2.293-3.395 4.824-5.301.777-.594 1.445-1.105 1.445-1.184 0-.117-.566-.16-3.109-.16-.91 0-1.602-.012-2.09 0m2.086 5.04c.164 0 .168.164-.051 1.77-.234 1.691-.84 3.043-1.609 3.855-.543.574-1.129.727-1.551.426-.238-.164-.535-.738-.535-1.016 0-.137.051-.141.211-.051.328.172.461.133.859-.215.664-.586 1.359-2.266 1.715-4.176.039-.223.652-.598.961-.598m0-.004" fill="#eaebde"/>
</svg>
