<svg viewBox="0 0 48 48" xmlns="http://www.w3.org/2000/svg" xmlns:xlink="http://www.w3.org/1999/xlink">
  <linearGradient id="a" gradientTransform="matrix(0 -1 1 0 -.0000015 47.999998)" gradientUnits="userSpaceOnUse" x1="1" x2="47">
    <stop offset="0" stop-color="#4e79a6"/>
    <stop offset="1" stop-color="#5883b0"/>
  </linearGradient>
  <path d="m47 24c0 22.703-.297 23-23 23-22.703 0-23-.297-23-23 0-22.703.297-23 23-23 22.703 0 23 .297 23 23z" fill="url(#a)"/>
  <path d="m21.5 16c-1.214 0-2.5 2-2.5 3.5-3 1.5-6 3.5-6 7.5v1.7c-.606.715-1 1.3-1 1.8 0 .276.224.5.5.5.5 0 2.5-2 3.5-3 1 0 2 .5 4 .5 0-.679-2-1.02-2-1.5 2 0 3-.5 4-1.5 1.203-.329 2-1 4-1 2 0 6.699 1.759 6.699 3-.668.5-.705 1.344-.699 2 .006.656.57 2.5 2 2.5-.498-1.389 1.253-2 .5-3 .85 1 2.238 0 3.5 1 0-2.253-2.487-3.545-4-3-3.03-3.419-6-8-11-8h-1.699c-.742-2 .898-3 .199-3" opacity=".1"/>
  <path d="m20.5 15c-1.214 0-2.5 2-2.5 3.5-3 1.5-6 3.5-6 7.5v1.7c-.606.715-1 1.3-1 1.8 0 .276.224.5.5.5.5 0 2.5-2 3.5-3 1 0 2 .5 4 .5 0-.679-2-1.02-2-1.5 2 0 3-.5 4-1.5 1.203-.329 2-1 4-1 2 0 6.699 1.759 6.699 3-.668.5-.705 1.344-.699 2 .006.656.57 2.5 2 2.5-.498-1.389 1.253-2 .5-3 .85 1 2.238 0 3.5 1 0-2.253-2.487-3.545-4-3-3.03-3.419-6-8-11-8h-1.699c-.742-2 .898-3 .199-3" fill="#f9f9f9"/>
</svg>
