<svg viewBox="0 0 48 48" xmlns="http://www.w3.org/2000/svg" xmlns:xlink="http://www.w3.org/1999/xlink">
  <linearGradient id="a" gradientTransform="matrix(0 -1 1 0 -.0000015 47.999998)" gradientUnits="userSpaceOnUse" x1="1" x2="47">
    <stop offset="0" stop-color="#e4e4e4"/>
    <stop offset="1" stop-color="#eee"/>
  </linearGradient>
  <path d="m47 24c0 22.703-.297 23-23 23-22.703 0-23-.297-23-23 0-22.703.297-23 23-23 22.703 0 23 .297 23 23z" fill="url(#a)"/>
  <g transform="matrix(.70710678 .70710678 -.70710678 .70710678 24 -9.9411255)">
    <path d="m14.414 13v5.03l1.808-1.808 5.778 5.778h1.414v-1.414l-5.778-5.778 1.808-1.808zm-4.556 11l3.556 3.556v-2.555l8.172-.001 1-1-1-1-8.172-.001v-2.555zm4.556-4.556v2.555l6.172.001-4.364-4.364zm4.636-4.636l4.364 4.364-.001-6.172h-2.555zm2.808-2.808h2.555l.001 8.172 1 1 1-1 .001-8.172h2.555l-3.556-3.556zm-7.444 14v2.555l1.808 1.808 4.364-4.364zm13-13l-.001 6.172 4.364-4.364-1.808-1.808zm-13 16.971v5.03h5.03l-1.808-1.808 5.778-5.778v-1.414h-1.414l-5.778 5.778zm16.971-16.971l1.808 1.808-5.778 5.778v1.414h1.414l5.778-5.778 1.808 1.808v-5.03zm-12.334 20.19l1.808 1.808h2.555l.001-6.172zm5.364-5.364l-.001 8.172h-2.555l3.556 3.556 3.556-3.556h-2.555l-.001-8.172-1-1zm3.828-3.828l1 1 8.172.001v2.555l3.556-3.556-3.556-3.556v2.555l-8.172.001zm2-2l6.172-.001v-2.555l-1.808-1.808zm-2.828 4v1.414l5.778 5.778-1.808 1.808h5.03v-5.03l-1.808 1.808-5.778-5.778zm0 2.828l.001 6.172h2.555l1.808-1.808zm2.828-2.828l4.364 4.364 1.808-1.808v-2.555z" opacity=".1"/>
    <path d="m24 8.443l-3.557 3.557h2.557v8.172l1 1 1-1v-8.172h2.557z" fill="#efa724" transform="matrix(.70710678 -.70710678 .70710678 .70710678 -9.9411255 24)"/>
    <path d="m36 20.443v2.557h-8.172l-1 1 1 1h8.172v2.557l3.557-3.557" fill="#262577" transform="matrix(.70710678 -.70710678 .70710678 .70710678 -9.9411255 24)"/>
    <path d="m24 26.828l-1 1v8.172h-2.557l3.557 3.557 3.557-3.557h-2.557v-8.172" fill="#9ccd2a" transform="matrix(.70710678 -.70710678 .70710678 .70710678 -9.9411255 24)"/>
    <path d="m12 20.443l-3.557 3.557 3.557 3.557v-2.557h8.172l1-1-1-1h-8.172" fill="#932279" transform="matrix(.70710678 -.70710678 .70710678 .70710678 -9.9411255 24)"/>
  </g>
  <path d="m26 26v1.414l5.777 5.779-1.807 1.807h5.03v-5.03l-1.807 1.807-5.779-5.777zm2.828 0l4.365 4.363 1.807-1.807v-2.557h-6.172zm-2.828 2.828v6.172h2.557l1.807-1.807-4.363-4.365z" fill="#efa724"/>
  <path d="m13 26v2.557l1.807 1.807 4.365-4.363h-6.172zm7.586 0l-5.779 5.777-1.807-1.807v5.03h5.03l-1.807-1.807 5.777-5.779v-1.414zm1.414 2.828l-4.363 4.365 1.807 1.807h2.557v-6.172z" fill="#262577"/>
  <path d="m26 13v6.172l4.363-4.365-1.807-1.807h-2.557zm3.971 0l1.807 1.807-5.777 5.779v1.414h1.414l5.779-5.777 1.807 1.807v-5.03zm3.223 4.637l-4.365 4.363h6.172v-2.557l-1.807-1.807z" fill="#932279"/>
  <path d="m13 13v5.03l1.807-1.807 5.779 5.777h1.414v-1.414l-5.777-5.779 1.807-1.807zm6.443 0l-1.807 1.807 4.363 4.365v-6.172h-2.557zm-4.637 4.637l-1.807 1.807v2.557h6.172l-4.365-4.363z" fill="#9ccd2a"/>
</svg>
