<svg xmlns="http://www.w3.org/2000/svg" viewBox="0 0 48 48">
 <defs>
  <linearGradient id="linearGradient3764" x1="1" x2="47" gradientUnits="userSpaceOnUse" gradientTransform="matrix(0,-1,1,0,-1.5e-6,47.999998)">
   <stop style="stop-color:#23c7c9;stop-opacity:1"/>
   <stop offset="1" style="stop-color:#27d7d9;stop-opacity:1"/>
  </linearGradient>
  <radialGradient id="radialGradient4238" cx="23.5" cy="24" r="15.5" gradientTransform="matrix(1,0,0,0.90322581,0,2.3225806)" gradientUnits="userSpaceOnUse">
   <stop style="stop-color:#f8e96c;stop-opacity:1"/>
   <stop offset="1" style="stop-color:#f7e75d;stop-opacity:1"/>
  </radialGradient>
 </defs>
 <g>
  
  
  
 </g>
 <g>
  <path d="m 47,24 C 47,46.703 46.703,47 24,47 1.297,47 1,46.703 1,24 1,1.297 1.297,1 24,1 46.703,1 47,1.297 47,24 z" style="fill:url(#linearGradient3764);fill-opacity:1"/>
 </g>
 <g>
  
 </g>
 <path d="m 26 11 c -0.16 0 -0.472 1.181 -0.74 2.025 -0.289 0.021 -0.577 0.053 -0.863 0.096 -0.428 -0.776 -0.969 -1.883 -1.127 -1.852 -0.157 0.031 -0.236 1.254 -0.334 2.135 -0.278 0.077 -0.553 0.163 -0.824 0.26 -0.572 -0.678 -1.32 -1.659 -1.469 -1.598 -0.148 0.061 0.016 1.277 0.092 2.16 -0.259 0.129 -0.513 0.267 -0.762 0.414 -0.693 -0.553 -1.616 -1.371 -1.75 -1.281 -0.134 0.089 0.266 1.25 0.512 2.102 -0.229 0.177 -0.451 0.362 -0.666 0.555 -0.788 -0.407 -1.855 -1.03 -1.969 -0.916 -0.114 0.114 0.507 1.178 0.914 1.965 -0.19 0.217 -0.373 0.441 -0.547 0.672 -0.852 -0.246 -2.02 -0.648 -2.107 -0.514 -0.089 0.134 0.726 1.055 1.279 1.748 -0.145 0.25 -0.28 0.504 -0.406 0.764 -0.883 -0.075 -2.104 -0.24 -2.166 -0.092 -0.062 0.149 0.918 0.895 1.596 1.467 -0.271 0.786 -0.459 1.599 -0.563 2.424 c -1.669 -1.033 -1.436 -3.447 -5.1 -3.533 c 0.5 1.5 1 3 1 4.5 0 1.5 -0.5 4 -1 5.5 2.459 0 2.934 -2.33 5.217 -2.814 0.107 0.578 0.257 1.147 0.447 1.703 -0.678 0.572 -1.659 1.32 -1.598 1.469 0.061 0.148 1.277 -0.016 2.16 -0.092 0.129 0.259 0.267 0.513 0.414 0.762 -0.553 0.693 -1.371 1.616 -1.281 1.75 0.089 0.134 1.25 -0.266 2.102 -0.512 0.177 0.229 0.362 0.451 0.555 0.666 -0.407 0.788 -1.03 1.855 -0.916 1.969 0.114 0.114 1.178 -0.507 1.965 -0.914 0.217 0.19 0.441 0.373 0.672 0.547 -0.246 0.852 -0.648 2.02 -0.514 2.107 0.134 0.089 1.055 -0.726 1.748 -1.279 0.25 0.145 0.504 0.28 0.764 0.406 -0.075 0.883 -0.24 2.104 -0.092 2.166 0.149 0.062 0.895 -0.918 1.467 -1.596 0.272 0.093 0.548 0.177 0.826 0.25 0.099 0.881 0.176 2.111 0.334 2.143 0.158 0.031 0.699 -1.075 1.127 -1.852 0.285 0.038 0.572 0.066 0.859 0.084 c 0.269 0.845 0.583 2.037 0.744 2.037 c 0.16 0 0.472 -1.181 0.74 -2.025 0.289 -0.021 0.577 -0.053 0.863 -0.096 0.428 0.776 0.969 1.883 1.127 1.852 0.157 -0.031 0.236 -1.254 0.334 -2.135 0.278 -0.077 0.553 -0.163 0.824 -0.26 0.572 0.678 1.32 1.659 1.469 1.598 0.148 -0.061 -0.016 -1.277 -0.092 -2.16 0.259 -0.129 0.513 -0.267 0.762 -0.414 0.693 0.553 1.616 1.371 1.75 1.281 0.134 -0.089 -0.266 -1.25 -0.512 -2.102 0.229 -0.177 0.451 -0.362 0.666 -0.555 0.788 0.407 1.855 1.03 1.969 0.916 0.114 -0.114 -0.507 -1.178 -0.914 -1.965 0.19 -0.217 0.373 -0.441 0.547 -0.672 0.852 0.246 2.02 0.648 2.107 0.514 c 0.089 -0.134 -0.726 -1.055 -1.279 -1.748 0.374 -0.646 0.687 -1.325 0.936 -2.029 l 0.703 0 c 1.108 0 2 -0.892 2 -2 0 -1.108 -0.892 -2 -2 -2 1.108 0 2 -0.892 2 -2 0 -1.108 -0.892 -2 -2 -2 l -0.713 0 c -0.246 -0.703 -0.556 -1.382 -0.928 -2.027 0.553 -0.693 1.371 -1.616 1.281 -1.75 -0.089 -0.134 -1.25 0.266 -2.102 0.512 -0.177 -0.229 -0.362 -0.451 -0.555 -0.666 0.407 -0.788 1.03 -1.855 0.916 -1.969 -0.114 -0.114 -1.178 0.507 -1.965 0.914 -0.217 -0.19 -0.441 -0.373 -0.672 -0.547 0.246 -0.852 0.648 -2.02 0.514 -2.107 -0.134 -0.089 -1.055 0.726 -1.748 1.279 -0.25 -0.145 -0.504 -0.28 -0.764 -0.406 0.075 -0.883 0.24 -2.104 0.092 -2.166 -0.149 -0.062 -0.895 0.918 -1.467 1.596 -0.272 -0.093 -0.548 -0.177 -0.826 -0.25 -0.099 -0.881 -0.176 -2.111 -0.334 -2.143 -0.158 -0.031 -0.699 1.075 -1.127 1.852 -0.285 -0.038 -0.572 -0.066 -0.859 -0.084 c -0.269 -0.845 -0.583 -2.037 -0.744 -2.037" style="fill:#000;opacity:0.1;fill-opacity:1;stroke:none"/>
 <path d="m 25 10 c -0.16 0 -0.472 1.181 -0.74 2.025 -0.289 0.021 -0.577 0.053 -0.863 0.096 -0.428 -0.776 -0.969 -1.883 -1.127 -1.852 -0.157 0.031 -0.236 1.254 -0.334 2.135 -0.278 0.077 -0.553 0.163 -0.824 0.26 -0.572 -0.678 -1.32 -1.659 -1.469 -1.598 -0.148 0.061 0.016 1.277 0.092 2.16 -0.259 0.129 -0.513 0.267 -0.762 0.414 -0.693 -0.553 -1.616 -1.371 -1.75 -1.281 -0.134 0.089 0.266 1.25 0.512 2.102 -0.229 0.177 -0.451 0.362 -0.666 0.555 -0.788 -0.407 -1.855 -1.03 -1.969 -0.916 -0.114 0.114 0.507 1.178 0.914 1.965 -0.19 0.217 -0.373 0.441 -0.547 0.672 -0.852 -0.246 -2.02 -0.648 -2.107 -0.514 -0.089 0.134 0.726 1.055 1.279 1.748 -0.145 0.25 -0.28 0.504 -0.406 0.764 -0.883 -0.075 -2.104 -0.24 -2.166 -0.092 -0.062 0.149 0.918 0.895 1.596 1.467 -0.271 0.786 -0.459 1.599 -0.563 2.424 c -1.669 -1.033 -1.436 -3.447 -5.1 -3.533 c 0.5 1.5 1 3 1 4.5 0 1.5 -0.5 4 -1 5.5 2.459 0 2.934 -2.33 5.217 -2.814 0.107 0.578 0.257 1.147 0.447 1.703 -0.678 0.572 -1.659 1.32 -1.598 1.469 0.061 0.148 1.277 -0.016 2.16 -0.092 0.129 0.259 0.267 0.513 0.414 0.762 -0.553 0.693 -1.371 1.616 -1.281 1.75 0.089 0.134 1.25 -0.266 2.102 -0.512 0.177 0.229 0.362 0.451 0.555 0.666 -0.407 0.788 -1.03 1.855 -0.916 1.969 0.114 0.114 1.178 -0.507 1.965 -0.914 0.217 0.19 0.441 0.373 0.672 0.547 -0.246 0.852 -0.648 2.02 -0.514 2.107 0.134 0.089 1.055 -0.726 1.748 -1.279 0.25 0.145 0.504 0.28 0.764 0.406 -0.075 0.883 -0.24 2.104 -0.092 2.166 0.149 0.062 0.895 -0.918 1.467 -1.596 0.272 0.093 0.548 0.177 0.826 0.25 0.099 0.881 0.176 2.111 0.334 2.143 0.158 0.031 0.699 -1.075 1.127 -1.852 0.285 0.038 0.572 0.066 0.859 0.084 c 0.269 0.845 0.583 2.037 0.744 2.037 c 0.16 0 0.472 -1.181 0.74 -2.025 0.289 -0.021 0.577 -0.053 0.863 -0.096 0.428 0.776 0.969 1.883 1.127 1.852 0.157 -0.031 0.236 -1.254 0.334 -2.135 0.278 -0.077 0.553 -0.163 0.824 -0.26 0.572 0.678 1.32 1.659 1.469 1.598 0.148 -0.061 -0.016 -1.277 -0.092 -2.16 0.259 -0.129 0.513 -0.267 0.762 -0.414 0.693 0.553 1.616 1.371 1.75 1.281 0.134 -0.089 -0.266 -1.25 -0.512 -2.102 0.229 -0.177 0.451 -0.362 0.666 -0.555 0.788 0.407 1.855 1.03 1.969 0.916 0.114 -0.114 -0.507 -1.178 -0.914 -1.965 0.19 -0.217 0.373 -0.441 0.547 -0.672 0.852 0.246 2.02 0.648 2.107 0.514 0.089 -0.134 -0.726 -1.055 -1.279 -1.748 c 0.374 -0.646 0.687 -1.325 0.936 -2.029 l 0.703 0 c 1.108 0 2 -0.892 2 -2 0 -1.108 -0.892 -2 -2 -2 1.108 0 2 -0.892 2 -2 0 -1.108 -0.892 -2 -2 -2 l -0.713 0 c -0.246 -0.703 -0.556 -1.382 -0.928 -2.027 0.553 -0.693 1.371 -1.616 1.281 -1.75 -0.089 -0.134 -1.25 0.266 -2.102 0.512 -0.177 -0.229 -0.362 -0.451 -0.555 -0.666 0.407 -0.788 1.03 -1.855 0.916 -1.969 -0.114 -0.114 -1.178 0.507 -1.965 0.914 -0.217 -0.19 -0.441 -0.373 -0.672 -0.547 0.246 -0.852 0.648 -2.02 0.514 -2.107 -0.134 -0.089 -1.055 0.726 -1.748 1.279 -0.25 -0.145 -0.504 -0.28 -0.764 -0.406 0.075 -0.883 0.24 -2.104 0.092 -2.166 -0.149 -0.062 -0.895 0.918 -1.467 1.596 -0.272 -0.093 -0.548 -0.177 -0.826 -0.25 -0.099 -0.881 -0.176 -2.111 -0.334 -2.143 -0.158 -0.031 -0.699 1.075 -1.127 1.852 -0.285 -0.038 -0.572 -0.066 -0.859 -0.084 c -0.269 -0.845 -0.583 -2.037 -0.744 -2.037" style="fill:url(#radialGradient4238);opacity:1;fill-opacity:1;stroke:none"/>
 <path d="M 32 18 A 2 3 0 0 0 30 21 A 2 3 0 0 0 30.06 21.725 C 30.99 22.07 32.11 22.693 32.818 23.734 A 2 3 0 0 0 34 21 A 2 3 0 0 0 32 18 z" style="fill:#ececec;opacity:1;fill-opacity:1;stroke:none"/>
 <circle cx="32" cy="21" r="1" style="fill:#565656;opacity:1;fill-opacity:1;stroke:none"/>
 <path d="m 32 17 c 1.422 0 2 2 2 3 0 0 -1 -1 -2 -1 -1 0 -2 1 -2 1 0 -1 0.578 -3 2 -3 z" style="fill:#dec86e;opacity:1;fill-opacity:1;stroke:none"/>
</svg>
