<svg xmlns="http://www.w3.org/2000/svg" viewBox="0 0 48 48">
 <defs>
  <linearGradient id="linearGradient3764" x1="1" x2="47" gradientUnits="userSpaceOnUse" gradientTransform="matrix(0,-1,1,0,-1.5e-6,47.999998)">
   <stop style="stop-color:#33bd86;stop-opacity:1"/>
   <stop offset="1" style="stop-color:#3aca91;stop-opacity:1"/>
  </linearGradient>
 </defs>
 <g>
  
  
  
 </g>
 <g>
  <path d="m 47,24 C 47,46.703 46.703,47 24,47 1.297,47 1,46.703 1,24 1,1.297 1.297,1 24,1 46.703,1 47,1.297 47,24 z" style="fill:url(#linearGradient3764);fill-opacity:1"/>
 </g>
 <g>
  
 </g>
 <path d="m 24.5 10 c -0.695 0 -1.299 0.478 -1.459 1.154 -2.689 0.379 -5.211 1.533 -7.256 3.32 -0.212 -0.11 -0.447 -0.168 -0.686 -0.168 -0.828 -0.001 -1.5 0.672 -1.5 1.5 0 0.277 0.077 0.549 0.223 0.785 -1.637 2.171 -2.606 4.772 -2.789 7.484 c -0.616 0.202 -1.033 0.776 -1.033 1.424 c 0 0.695 0.478 1.299 1.154 1.459 0.379 2.689 1.533 5.211 3.32 7.256 -0.109 0.212 -0.166 0.447 -0.166 0.686 0 0.828 0.672 1.5 1.5 1.5 0.277 0 0.548 -0.078 0.783 -0.223 2.171 1.637 4.772 2.606 7.484 2.789 c 0.202 0.616 0.776 1.033 1.424 1.033 c 0.695 0 1.299 -0.478 1.459 -1.154 2.689 -0.379 5.211 -1.533 7.256 -3.32 0.212 0.109 0.447 0.166 0.686 0.166 0.828 0 1.5 -0.672 1.5 -1.5 0 -0.277 -0.078 -0.548 -0.223 -0.783 1.637 -2.171 2.606 -4.772 2.789 -7.484 c 0.616 -0.202 1.033 -0.776 1.033 -1.424 c 0 -0.695 -0.478 -1.299 -1.154 -1.459 -0.379 -2.689 -1.533 -5.211 -3.32 -7.256 0.11 -0.212 0.168 -0.447 0.168 -0.686 0.001 -0.828 -0.672 -1.5 -1.5 -1.5 -0.277 0 -0.549 0.077 -0.785 0.223 -2.171 -1.637 -4.772 -2.606 -7.484 -2.789 c -0.202 -0.616 -0.776 -1.033 -1.424 -1.033 m 0 1 c 0.276 0 0.5 0.224 0.5 0.5 0 0.276 -0.224 0.5 -0.5 0.5 -0.276 0 -0.5 -0.224 -0.5 -0.5 0 -0.276 0.224 -0.5 0.5 -0.5 m 1.396 1.045 c 2.492 0.174 4.882 1.062 6.883 2.559 -0.056 0.159 -0.086 0.327 -0.086 0.496 0 0.828 0.672 1.501 1.5 1.5 0.206 0 0.409 -0.044 0.598 -0.127 1.641 1.885 2.705 4.202 3.063 6.676 c -0.521 0.249 -0.853 0.774 -0.854 1.352 c 0 0.618 0.38 1.172 0.955 1.396 -0.174 2.493 -1.063 4.882 -2.561 6.883 -0.159 -0.057 -0.326 -0.088 -0.494 -0.088 -0.828 -0.001 -1.5 0.672 -1.5 1.5 0 0.206 0.044 0.411 0.127 0.6 -1.885 1.641 -4.202 2.705 -6.676 3.063 c -0.249 -0.521 -0.774 -0.853 -1.352 -0.854 c -0.618 0 -1.172 0.38 -1.396 0.955 -2.493 -0.174 -4.882 -1.063 -6.883 -2.561 0.057 -0.159 0.088 -0.326 0.088 -0.494 0.001 -0.828 -0.672 -1.5 -1.5 -1.5 -0.206 0 -0.411 0.044 -0.6 0.127 -1.641 -1.885 -2.705 -4.202 -3.063 -6.676 0.521 -0.249 0.853 -0.774 0.854 -1.352 0 -0.618 -0.38 -1.172 -0.955 -1.396 0.174 -2.492 1.062 -4.882 2.559 -6.883 0.159 0.056 0.327 0.086 0.496 0.086 0.828 0 1.501 -0.672 1.5 -1.5 0 -0.206 -0.044 -0.409 -0.127 -0.598 1.885 -1.641 4.202 -2.705 6.676 -3.063 0.249 0.521 0.774 0.853 1.352 0.854 0.618 0 1.172 -0.38 1.396 -0.955 z m -1.396 1.955 c -0.712 0 -1.325 0.5 -1.469 1.197 c -4.67 0.938 -8.03 5.04 -8.03 9.803 c 0.002 5.159 3.934 9.468 9.07 9.947 c 0.195 0.626 0.746 1.052 1.43 1.053 c 0.683 0 1.325 -0.5 1.469 -1.197 c 4.67 -0.938 8.03 -5.04 8.03 -9.803 -0.002 -5.159 -3.934 -9.468 -9.07 -9.947 -0.195 -0.626 -0.774 -1.052 -1.43 -1.053 m 9.693 0.6 c 0.276 0 0.5 0.224 0.5 0.5 0 0.276 -0.224 0.5 -0.5 0.5 -0.276 0 -0.5 -0.224 -0.5 -0.5 0 -0.276 0.224 -0.5 0.5 -0.5 z m -9.693 0.4 c 0.276 0 0.5 0.224 0.5 0.5 0 0.276 -0.224 0.5 -0.5 0.5 -0.276 0 -0.5 -0.224 -0.5 -0.5 0 -0.276 0.224 -0.5 0.5 -0.5 m -9.4 0.307 c 0.276 0 0.5 0.224 0.5 0.5 0 0.276 -0.224 0.5 -0.5 0.5 -0.276 0 -0.5 -0.224 -0.5 -0.5 0 -0.276 0.224 -0.5 0.5 -0.5 z m 10.797 0.738 c 4.6 0.461 8.106 4.332 8.104 8.955 -0.002 4.263 -3 7.938 -7.174 8.803 -0.259 -0.493 -0.739 -0.803 -1.326 -0.803 -0.587 0 -1.172 0.38 -1.396 0.955 -4.6 -0.461 -8.106 -4.332 -8.104 -8.955 0.002 -4.263 3 -7.938 7.174 -8.803 0.259 0.493 0.769 0.803 1.326 0.803 c 0.618 0 1.172 -0.38 1.396 -0.955 z m -0.896 4.955 c -2.209 0 -4 1.791 -4 4 0 2.209 1.791 4 4 4 2.209 0 4 -1.791 4 -4 0 -2.209 -1.791 -4 -4 -4 z m 13.5 3 c 0.276 0 0.5 0.224 0.5 0.5 0 0.276 -0.224 0.5 -0.5 0.5 -0.276 0 -0.5 -0.224 -0.5 -0.5 0 -0.276 0.224 -0.5 0.5 -0.5 m -27 1 c 0.276 0 0.5 0.224 0.5 0.5 0 0.276 -0.224 0.5 -0.5 0.5 -0.276 0 -0.5 -0.224 -0.5 -0.5 0 -0.276 0.224 -0.5 0.5 -0.5 m 23.4 8.691 c 0.276 0 0.5 0.224 0.5 0.5 0 0.276 -0.224 0.5 -0.5 0.5 -0.276 0 -0.5 -0.224 -0.5 -0.5 0 -0.276 0.224 -0.5 0.5 -0.5 z m -9.4 0.309 c 0.276 0 0.5 0.224 0.5 0.5 0 0.276 -0.224 0.5 -0.5 0.5 -0.276 0 -0.5 -0.224 -0.5 -0.5 0 -0.276 0.224 -0.5 0.5 -0.5 m -9.729 0.4 c 0.012 0 0.025 0 0.037 0 0.276 0 0.5 0.224 0.5 0.5 0 0.276 -0.224 0.5 -0.5 0.5 -0.276 0 -0.5 -0.224 -0.5 -0.5 -0.001 -0.262 0.201 -0.481 0.463 -0.5 z m 9.729 3.6 c 0.276 0 0.5 0.224 0.5 0.5 0 0.276 -0.224 0.5 -0.5 0.5 -0.276 0 -0.5 -0.224 -0.5 -0.5 0 -0.276 0.224 -0.5 0.5 -0.5" style="fill:#000;opacity:0.1;fill-opacity:1;stroke:none"/>
 <path d="m 23.5 9 c -0.695 0 -1.299 0.478 -1.459 1.154 -2.689 0.379 -5.211 1.533 -7.256 3.32 -0.212 -0.11 -0.447 -0.168 -0.686 -0.168 -0.828 -0.001 -1.5 0.672 -1.5 1.5 0 0.277 0.077 0.549 0.223 0.785 -1.637 2.171 -2.606 4.772 -2.789 7.484 -0.616 0.202 -1.033 0.776 -1.033 1.424 0 0.695 0.478 1.299 1.154 1.459 0.379 2.689 1.533 5.211 3.32 7.256 -0.109 0.212 -0.166 0.447 -0.166 0.686 0 0.828 0.672 1.5 1.5 1.5 0.277 0 0.548 -0.078 0.783 -0.223 2.171 1.637 4.772 2.606 7.484 2.789 c 0.202 0.616 0.776 1.033 1.424 1.033 c 0.695 0 1.299 -0.478 1.459 -1.154 2.689 -0.379 5.211 -1.533 7.256 -3.32 0.212 0.109 0.447 0.166 0.686 0.166 0.828 0 1.5 -0.672 1.5 -1.5 0 -0.277 -0.078 -0.548 -0.223 -0.783 1.637 -2.171 2.606 -4.772 2.789 -7.484 c 0.616 -0.202 1.033 -0.776 1.033 -1.424 c 0 -0.695 -0.478 -1.299 -1.154 -1.459 -0.379 -2.689 -1.533 -5.211 -3.32 -7.256 0.11 -0.212 0.168 -0.447 0.168 -0.686 0.001 -0.828 -0.672 -1.5 -1.5 -1.5 -0.277 0 -0.549 0.077 -0.785 0.223 -2.171 -1.637 -4.772 -2.606 -7.484 -2.789 c -0.202 -0.616 -0.776 -1.033 -1.424 -1.033 m 0 1 c 0.276 0 0.5 0.224 0.5 0.5 0 0.276 -0.224 0.5 -0.5 0.5 -0.276 0 -0.5 -0.224 -0.5 -0.5 0 -0.276 0.224 -0.5 0.5 -0.5 z m 1.396 1.045 c 2.492 0.174 4.882 1.062 6.883 2.559 -0.056 0.159 -0.086 0.327 -0.086 0.496 0 0.828 0.672 1.501 1.5 1.5 0.206 0 0.409 -0.044 0.598 -0.127 1.641 1.885 2.705 4.202 3.063 6.676 c -0.521 0.249 -0.853 0.774 -0.854 1.352 c 0 0.618 0.38 1.172 0.955 1.396 -0.174 2.493 -1.063 4.882 -2.561 6.883 -0.159 -0.057 -0.326 -0.088 -0.494 -0.088 -0.828 -0.001 -1.5 0.672 -1.5 1.5 0 0.206 0.044 0.411 0.127 0.6 -1.885 1.641 -4.202 2.705 -6.676 3.063 c -0.249 -0.521 -0.774 -0.853 -1.352 -0.854 c -0.618 0 -1.172 0.38 -1.396 0.955 -2.493 -0.174 -4.882 -1.063 -6.883 -2.561 0.057 -0.159 0.088 -0.326 0.088 -0.494 0.001 -0.828 -0.672 -1.5 -1.5 -1.5 -0.206 0 -0.411 0.044 -0.6 0.127 -1.641 -1.885 -2.705 -4.202 -3.063 -6.676 0.521 -0.249 0.853 -0.774 0.854 -1.352 0 -0.618 -0.38 -1.172 -0.955 -1.396 0.174 -2.492 1.062 -4.882 2.559 -6.883 0.159 0.056 0.327 0.086 0.496 0.086 0.828 0 1.501 -0.672 1.5 -1.5 0 -0.206 -0.044 -0.409 -0.127 -0.598 1.885 -1.641 4.202 -2.705 6.676 -3.063 0.249 0.521 0.774 0.853 1.352 0.854 0.618 0 1.172 -0.38 1.396 -0.955 z m -1.396 1.955 c -0.712 0 -1.325 0.5 -1.469 1.197 c -4.67 0.938 -8.03 5.04 -8.03 9.803 c 0.002 5.159 3.934 9.468 9.07 9.947 c 0.195 0.626 0.746 1.052 1.43 1.053 c 0.683 0 1.325 -0.5 1.469 -1.197 c 4.67 -0.938 8.03 -5.04 8.03 -9.803 -0.002 -5.159 -3.934 -9.468 -9.07 -9.947 -0.195 -0.626 -0.774 -1.052 -1.43 -1.053 m 9.693 0.6 c 0.276 0 0.5 0.224 0.5 0.5 0 0.276 -0.224 0.5 -0.5 0.5 -0.276 0 -0.5 -0.224 -0.5 -0.5 0 -0.276 0.224 -0.5 0.5 -0.5 z m -9.693 0.4 c 0.276 0 0.5 0.224 0.5 0.5 0 0.276 -0.224 0.5 -0.5 0.5 -0.276 0 -0.5 -0.224 -0.5 -0.5 0 -0.276 0.224 -0.5 0.5 -0.5 m -9.4 0.307 c 0.276 0 0.5 0.224 0.5 0.5 0 0.276 -0.224 0.5 -0.5 0.5 -0.276 0 -0.5 -0.224 -0.5 -0.5 0 -0.276 0.224 -0.5 0.5 -0.5 z m 10.797 0.738 c 4.6 0.461 8.106 4.332 8.104 8.955 -0.002 4.263 -3 7.938 -7.174 8.803 -0.259 -0.493 -0.739 -0.803 -1.326 -0.803 -0.587 0 -1.172 0.38 -1.396 0.955 -4.6 -0.461 -8.106 -4.332 -8.104 -8.955 0.002 -4.263 3 -7.938 7.174 -8.803 0.259 0.493 0.769 0.803 1.326 0.803 c 0.618 0 1.172 -0.38 1.396 -0.955 z m -0.896 4.955 c -2.209 0 -4 1.791 -4 4 0 2.209 1.791 4 4 4 2.209 0 4 -1.791 4 -4 0 -2.209 -1.791 -4 -4 -4 z m 13.5 3 c 0.276 0 0.5 0.224 0.5 0.5 0 0.276 -0.224 0.5 -0.5 0.5 -0.276 0 -0.5 -0.224 -0.5 -0.5 0 -0.276 0.224 -0.5 0.5 -0.5 m -27 1 c 0.276 0 0.5 0.224 0.5 0.5 0 0.276 -0.224 0.5 -0.5 0.5 -0.276 0 -0.5 -0.224 -0.5 -0.5 0 -0.276 0.224 -0.5 0.5 -0.5 m 23.4 8.691 c 0.276 0 0.5 0.224 0.5 0.5 0 0.276 -0.224 0.5 -0.5 0.5 -0.276 0 -0.5 -0.224 -0.5 -0.5 0 -0.276 0.224 -0.5 0.5 -0.5 z m -9.4 0.309 c 0.276 0 0.5 0.224 0.5 0.5 0 0.276 -0.224 0.5 -0.5 0.5 -0.276 0 -0.5 -0.224 -0.5 -0.5 0 -0.276 0.224 -0.5 0.5 -0.5 m -9.729 0.4 c 0.012 0 0.025 0 0.037 0 0.276 0 0.5 0.224 0.5 0.5 0 0.276 -0.224 0.5 -0.5 0.5 -0.276 0 -0.5 -0.224 -0.5 -0.5 -0.001 -0.262 0.201 -0.481 0.463 -0.5 z m 9.729 3.6 c 0.276 0 0.5 0.224 0.5 0.5 0 0.276 -0.224 0.5 -0.5 0.5 -0.276 0 -0.5 -0.224 -0.5 -0.5 0 -0.276 0.224 -0.5 0.5 -0.5" style="fill:#f9f9f9;opacity:1;fill-opacity:1;stroke:none"/>
</svg>
