<svg viewBox="0 0 48 48" xmlns="http://www.w3.org/2000/svg" xmlns:xlink="http://www.w3.org/1999/xlink">
  <linearGradient id="a" gradientTransform="matrix(0 -1 1 0 -.0000015 47.999998)" gradientUnits="userSpaceOnUse" x1="1" x2="47">
    <stop offset="0" stop-color="#c0e1f8"/>
    <stop offset="1" stop-color="#d2eafa"/>
  </linearGradient>
  <path d="m47 24c0 22.703-.297 23-23 23-22.703 0-23-.297-23-23 0-22.703.297-23 23-23 22.703 0 23 .297 23 23z" fill="url(#a)"/>
  <path d="m30 14c-9 0-13 8-12.5 16 .5-6 4.5-8 6.5-9 2-1 9-2 9-5 0-1-1-2-3-2zm-14 2c-3 0-4 3-4 6 0 6 4 12 8 16-3-5-3-10-3-13 0-3 1-5 1-7 0-1.531-.422-2-2-2zm8 9c-4 0-6 2.4-6 4.4 0 1.6 1 1.6 2 1.6 1.487 0 3-1 8-1 3 0 6.877 1.41 10 3-3-4-8-8-14-8z" opacity=".1"/>
  <path d="m15 15c1.578 0 2 .469 2 2 0 2-1 4-1 7 0 3 0 8 3 13-4-4-8-10-8-16 0-3 1-6 4-6z" fill="#144b70"/>
  <path d="m29 13c2 0 3 1 3 2 0 3-7 4-9 5-2 1-6 3-6.5 9-.5-8 3.5-16 12.5-16z" fill="#2b93d9"/>
  <path d="m17 28.4c0-2 2-4.4 6-4.4 6 0 11 4 14 8-3.123-1.59-7-3-10-3-5 0-6.513 1-8 1-1 0-2 0-2-1.6z" fill="#6eb6e6"/>
</svg>
