<svg viewBox="0 0 48 48" xmlns="http://www.w3.org/2000/svg" xmlns:xlink="http://www.w3.org/1999/xlink">
  <linearGradient id="a" gradientTransform="matrix(0 -1 1 0 -.0000015 47.999998)" gradientUnits="userSpaceOnUse" x1="1" x2="47">
    <stop offset="0" stop-color="#c8d034"/>
    <stop offset="1" stop-color="#ccd444"/>
  </linearGradient>
  <path d="m47 24c0 22.703-.297 23-23 23-22.703 0-23-.297-23-23 0-22.703.297-23 23-23 22.703 0 23 .297 23 23z" fill="url(#a)"/>
  <path d="m13 15c-1 0-2 1-2 2 0 2.45 2.511 5 6 5h6v2h-10c-1 0-2 0-2 1 0 3 4 3 5.5 3 3.5 0 3.5-2 6.5-2v1l1 1v10l1 1 1-1v-10l1-1v-1c3 0 3 2 6.5 2 1.5 0 5.5 0 5.5-3 0-1-1-1-2-1h-10v-2h6c3.489 0 6-2.55 6-5 0-1-1-2-2-2-3 0-6 5-10 5l-.5-1c .831 0 1.5-.669 1.5-1.5 0-.831-.669-1.5-1.5-1.5h-3c-.831 0-1.5.669-1.5 1.5 0 .831.669 1.5 1.5 1.5l-.5 1c-4 0-7-5-10-5z" opacity=".1"/>
  <path d="m23 26h2v11l-1 1-1-1z" fill="#d03724"/>
  <rect fill="#ce9126" height="3" rx="1.5" width="6" x="21" y="15"/>
  <path d="m22 19l2-4 2 4v7l-1 1h-2l-1-1z" fill="#bc2025"/>
  <path d="m12 14c-1 0-2 1-2 2 0 2.45 2.511 5 6 5h6v-2c-4 0-7-5-10-5zm24 0c-3 0-6 5-10 5v2h6c3.489 0 6-2.55 6-5 0-1-1-2-2-2zm-24 9c-1 0-2 0-2 1 0 3 4 3 5.5 3 3.5 0 3.5-2 6.5-2v-2zm14 0v2c3 0 3 2 6.5 2 1.5 0 5.5 0 5.5-3 0-1-1-1-2-1z" fill="#d6e2e6"/>
  <path d="m21.502 15.385c-.307.274-.502.67-.502 1.115 0 .446.195.841.502 1.115a1.5 1.5 0 0 0  .498-1.115 1.5 1.5 0 0 0-.498-1.115zm4.996 0a1.5 1.5 0 0 0-.498 1.115 1.5 1.5 0 0 0  .498 1.115c.307-.274.502-.67.502-1.115 0-.446-.195-.841-.502-1.115z" fill-opacity=".502"/>
</svg>
