<svg xmlns="http://www.w3.org/2000/svg" viewBox="0 0 48 48">
 <defs>
  <linearGradient id="linearGradient3764" x1="1" x2="47" gradientUnits="userSpaceOnUse" gradientTransform="matrix(0,-1,1,0,-1.5e-6,47.999998)">
   <stop style="stop-color:#42bd0d;stop-opacity:1"/>
   <stop offset="1" style="stop-color:#49d00e;stop-opacity:1"/>
  </linearGradient>
 </defs>
 <g>
  
  
  
 </g>
 <g>
  <path d="m 47,24 C 47,46.703 46.703,47 24,47 1.297,47 1,46.703 1,24 1,1.297 1.297,1 24,1 46.703,1 47,1.297 47,24 z" style="fill:url(#linearGradient3764);fill-opacity:1"/>
 </g>
 <g>
  
 </g>
 <path d="m 25 13 c -4.281 0 -8.235 2.293 -10.375 6 l 22.375 0 0 -6 m -23.609 9 c -0.256 0.98 -0.391 1.988 -0.391 3 l 0 3 23.609 0 c 0.256 -0.98 0.391 -1.988 0.391 -3 l 0 -3 z m -0.391 9 l 0 6 12 0 c 4.281 0 8.235 -2.293 10.375 -6 z" style="fill:#000;opacity:0.1;fill-opacity:1;stroke:none"/>
 <path d="m 24 12 c -4.281 0 -8.235 2.293 -10.375 6 l 22.375 0 0 -6 m -23.609 9 c -0.256 0.98 -0.391 1.988 -0.391 3 l 0 3 23.609 0 c 0.256 -0.98 0.391 -1.988 0.391 -3 l 0 -3 z m -0.391 9 l 0 6 12 0 c 4.281 0 8.235 -2.293 10.375 -6 z" style="fill:#f9f9f9;opacity:1;fill-opacity:1;stroke:none"/>
</svg>
