<svg xmlns="http://www.w3.org/2000/svg" viewBox="0 0 48 48">
 <defs>
  <linearGradient id="linearGradient3764" x1="1" x2="47" gradientUnits="userSpaceOnUse" gradientTransform="matrix(0,-1,1,0,-1.5e-6,47.999998)">
   <stop style="stop-color:#0567a4;stop-opacity:1"/>
   <stop offset="1" style="stop-color:#0673b6;stop-opacity:1"/>
  </linearGradient>
 </defs>
 <g>
  
  
  
 </g>
 <g>
  <path d="m 47,24 C 47,46.703 46.703,47 24,47 1.297,47 1,46.703 1,24 1,1.297 1.297,1 24,1 46.703,1 47,1.297 47,24 z" style="fill:url(#linearGradient3764);fill-opacity:1"/>
 </g>
 <g>
  <g>
   <g transform="translate(1,1)">
    <g style="opacity:0.1">
     <!-- color: #abd240 -->
    </g>
   </g>
  </g>
 </g>
 <g>
  <g>
   <!-- color: #abd240 -->
  </g>
 </g>
 <g>
  
 </g>
 <path d="M 25 10 A 15 15 0 0 0 10 25 15 15 0 0 0 25 40 15 15 0 0 0 39.32 29.453 11.5 11.5 0 0 1 29.5 35 11.5 11.5 0 0 1 18 23.5 11.5 11.5 0 0 1 29.5 12 11.5 11.5 0 0 1 33.729 12.816 15 15 0 0 0 25 10 m 4.5 4 A 9.5 9.5 0 0 0 20 23.5 9.5 9.5 0 0 0 29.5 33 9.5 9.5 0 0 0 39 23.5 9.5 9.5 0 0 0 29.5 14 m 0 2 A 7.5 7.5 0 0 1 37 23.5 7.5 7.5 0 0 1 29.5 31 7.5 7.5 0 0 1 22 23.5 7.5 7.5 0 0 1 29.5 16" style="fill:#000;opacity:0.1;fill-opacity:1;stroke:none"/>
 <path d="M 24 9 A 15 15 0 0 0 9 24 15 15 0 0 0 24 39 15 15 0 0 0 38.32 28.453 11.5 11.5 0 0 1 28.5 34 11.5 11.5 0 0 1 17 22.5 11.5 11.5 0 0 1 28.5 11 11.5 11.5 0 0 1 32.729 11.816 15 15 0 0 0 24 9 m 4.5 4 A 9.5 9.5 0 0 0 19 22.5 9.5 9.5 0 0 0 28.5 32 9.5 9.5 0 0 0 38 22.5 9.5 9.5 0 0 0 28.5 13 m 0 2 A 7.5 7.5 0 0 1 36 22.5 7.5 7.5 0 0 1 28.5 30 7.5 7.5 0 0 1 21 22.5 7.5 7.5 0 0 1 28.5 15" style="fill:#f9f9f9;opacity:1;fill-opacity:1;stroke:none"/>
</svg>
