<svg viewBox="0 0 48 48" xmlns="http://www.w3.org/2000/svg" xmlns:xlink="http://www.w3.org/1999/xlink">
  <linearGradient id="a" gradientTransform="matrix(0 -1 1 0 -.0000015 47.999998)" gradientUnits="userSpaceOnUse" x1="1" x2="47">
    <stop offset="0" stop-color="#31446f"/>
    <stop offset="1" stop-color="#374d7e"/>
  </linearGradient>
  <path d="m47 24c0 22.703-.297 23-23 23-22.703 0-23-.297-23-23 0-22.703.297-23 23-23 22.703 0 23 .297 23 23z" fill="url(#a)"/>
  <g fill-rule="evenodd" opacity=".1" transform="translate(1 1)">
    <path d="m31.598 21.715c-.828.781-1.117 1.895-.863 2.91.129.52.402 1.012.816 1.422 1.227 1.211 3.238 1.234 4.492.055 1.258-1.184 1.277-3.121.051-4.332-.414-.41-.918-.684-1.453-.82-1.047-.27-2.211-.02-3.043.766m0 0"/>
    <path d="m21.98 31.617c-.691.652-.934 1.582-.723 2.426.109.434.336.844.68 1.188 1.023 1.012 2.703 1.027 3.75.043 1.047-.984 1.066-2.602.043-3.613-.348-.34-.77-.57-1.215-.684-.871-.227-1.844-.012-2.535.641m0 0"/>
    <path d="m26.988 16.73c-.742.699-1 1.699-.773 2.613.113.465.359.906.73 1.273 1.102 1.086 2.906 1.105 4.03.047 1.125-1.059 1.145-2.797.043-3.887-.371-.367-.824-.609-1.305-.734-.941-.242-1.98-.016-2.73.688m0 0"/>
    <path d="m16.832 27.16c-.633.594-.852 1.441-.66 2.211.102.395.305.77.621 1.082.934.922 2.465.938 3.418.039.953-.895.969-2.371.039-3.293-.316-.309-.699-.52-1.105-.621-.797-.207-1.684-.016-2.313.582m0 0"/>
    <path d="m21.852 12.727c-.695.652-.934 1.582-.723 2.43.109.43.336.84.68 1.184 1.023 1.012 2.703 1.031 3.75.043 1.047-.984 1.066-2.602.039-3.613-.344-.34-.766-.566-1.211-.684-.871-.223-1.844-.012-2.535.641m0 0"/>
    <path d="m12.699 22.24c-.609.57-.82 1.398-.633 2.133.094.387.293.742.598 1.039.898.898 2.375.906 3.293.043.918-.859.934-2.289.035-3.176-.305-.301-.672-.5-1.063-.602-.77-.195-1.621-.012-2.23.563m0 0"/>
    <path d="m26.875 27.18c-.738.695-.996 1.684-.77 2.586.117.457.355.895.723 1.258 1.09 1.078 2.879 1.098 3.992.051 1.113-1.051 1.133-2.773.043-3.848-.367-.363-.816-.605-1.289-.727-.93-.242-1.965-.016-2.699.68m0 0"/>
    <path d="m21.895 22.04c-.723.68-.977 1.648-.754 2.531.113.453.348.879.711 1.238 1.066 1.051 2.816 1.074 3.91.047 1.09-1.027 1.109-2.715.043-3.77-.363-.355-.801-.594-1.266-.715-.91-.234-1.922-.012-2.645.668m0 0"/>
    <path d="m16.891 17.207c-.641.602-.863 1.461-.668 2.246.102.398.313.777.633 1.094.945.934 2.496.953 3.465.043.969-.914.984-2.406.039-3.344-.32-.313-.711-.523-1.121-.633-.809-.207-1.707-.012-2.348.594m0 0"/>
  </g>
  <path d="m31.598 21.715c-.828.781-1.117 1.895-.863 2.91.129.52.402 1.012.816 1.422 1.227 1.211 3.238 1.234 4.492.055 1.258-1.184 1.277-3.121.051-4.332-.414-.41-.918-.684-1.453-.82-1.047-.27-2.211-.02-3.043.766m0 0" fill="#fff8eb" fill-rule="evenodd"/>
  <path d="m21.98 31.617c-.691.652-.934 1.582-.723 2.426.109.434.336.844.68 1.188 1.023 1.012 2.703 1.027 3.75.043 1.047-.984 1.066-2.602.043-3.613-.348-.34-.77-.57-1.215-.684-.871-.227-1.844-.012-2.535.641m0 0" fill="#fff8eb" fill-rule="evenodd"/>
  <path d="m26.988 16.73c-.742.699-1 1.699-.773 2.613.113.465.359.906.73 1.273 1.102 1.086 2.906 1.105 4.03.047 1.125-1.059 1.145-2.797.043-3.887-.371-.367-.824-.609-1.305-.734-.941-.242-1.98-.016-2.73.688m0 0" fill="#fff8eb" fill-rule="evenodd"/>
  <path d="m16.832 27.16c-.633.594-.852 1.441-.66 2.211.102.395.305.77.621 1.082.934.922 2.465.938 3.418.039.953-.895.969-2.371.039-3.293-.316-.309-.699-.52-1.105-.621-.797-.207-1.684-.016-2.313.582m0 0" fill="#fff8eb" fill-rule="evenodd"/>
  <path d="m21.852 12.727c-.695.652-.934 1.582-.723 2.43.109.43.336.84.68 1.184 1.023 1.012 2.703 1.031 3.75.043 1.047-.984 1.066-2.602.039-3.613-.344-.34-.766-.566-1.211-.684-.871-.223-1.844-.012-2.535.641m0 0" fill="#fff8eb" fill-rule="evenodd"/>
  <path d="m12.699 22.24c-.609.57-.82 1.398-.633 2.133.094.387.293.742.598 1.039.898.898 2.375.906 3.293.043.918-.859.934-2.289.035-3.176-.305-.301-.672-.5-1.063-.602-.77-.195-1.621-.012-2.23.563m0 0" fill="#fff8eb" fill-rule="evenodd"/>
  <path d="m26.875 27.18c-.738.695-.996 1.684-.77 2.586.117.457.355.895.723 1.258 1.09 1.078 2.879 1.098 3.992.051 1.113-1.051 1.133-2.773.043-3.848-.367-.363-.816-.605-1.289-.727-.93-.242-1.965-.016-2.699.68m0 0" fill="#fff8eb" fill-rule="evenodd"/>
  <path d="m21.895 22.04c-.723.68-.977 1.648-.754 2.531.113.453.348.879.711 1.238 1.066 1.051 2.816 1.074 3.91.047 1.09-1.027 1.109-2.715.043-3.77-.363-.355-.801-.594-1.266-.715-.91-.234-1.922-.012-2.645.668m0 0" fill="#fff8eb" fill-rule="evenodd"/>
  <path d="m16.891 17.207c-.641.602-.863 1.461-.668 2.246.102.398.313.777.633 1.094.945.934 2.496.953 3.465.043.969-.914.984-2.406.039-3.344-.32-.313-.711-.523-1.121-.633-.809-.207-1.707-.012-2.348.594m0 0" fill="#fff8eb" fill-rule="evenodd"/>
</svg>
