<svg xmlns="http://www.w3.org/2000/svg" viewBox="0 0 48 48">
 <defs>
  <linearGradient id="linearGradient3764" x1="1" x2="47" gradientUnits="userSpaceOnUse" gradientTransform="matrix(0,-1,1,0,-1.5e-6,47.999998)">
   <stop style="stop-color:#87a556;stop-opacity:1"/>
   <stop offset="1" style="stop-color:#91ad63;stop-opacity:1"/>
  </linearGradient>
 </defs>
 <g>
  
  
  
 </g>
 <g>
  <path d="m 47,24 C 47,46.703 46.703,47 24,47 1.297,47 1,46.703 1,24 1,1.297 1.297,1 24,1 46.703,1 47,1.297 47,24 z" style="fill:url(#linearGradient3764);fill-opacity:1"/>
 </g>
 <g>
  <g>
   <g transform="translate(1,1)">
    <g style="opacity:0.1">
     <!-- color: #abd240 -->
    </g>
   </g>
  </g>
 </g>
 <g>
  <g>
   <!-- color: #abd240 -->
  </g>
 </g>
 <g>
  
 </g>
 <path d="m 29 9 0 10 9 -5 -9 -5 z m -4 2 a 14 14 0 0 0 -12.842 8.467 l 1.748 0.971 a 12 12 0 0 1 11.09 -7.438 a 12 12 0 0 1 2 0.182 l 0 -2.023 a 14 14 0 0 0 -2 -0.158 m 0 5 a 9 9 0 0 0 -8.445 5.908 l 1.771 0.984 a 7 7 0 0 1 6.674 -4.893 a 7 7 0 0 1 2 0.295 l 0 -2.059 a 9 9 0 0 0 -2 -0.236 m 11.553 1.092 -1.77 0.984 a 12 12 0 0 1 2.217 6.924 12 12 0 0 1 -2.211 6.928 l 1.752 0.973 a 14 14 0 0 0 2.459 -7.9 14 14 0 0 0 -2.447 -7.908 m -4.41 2.451 -1.77 0.982 a 7 7 0 0 1 1.627 4.475 7 7 0 0 1 -1.623 4.479 l 1.77 0.982 a 9 9 0 0 0 1.854 -5.461 9 9 0 0 0 -1.857 -5.457 m -23.14 0.457 0 10 9 -5 -9 -5 m 9.332 7.104 -1.773 0.984 a 9 9 0 0 0 8.441 5.912 9 9 0 0 0 2 -0.234 l 0 -2.064 a 7 7 0 0 1 -2 0.299 7 7 0 0 1 -6.668 -4.896 m -4.422 2.457 -1.762 0.979 a 14 14 0 0 0 12.852 8.461 14 14 0 0 0 2 -0.162 l 0 -2.01 a 12 12 0 0 1 -2 0.17 12 12 0 0 1 -11.09 -7.439 m 15.09 1.439 l 0 10 9 -5 -9 -5 z" style="fill:#000;opacity:0.1;fill-opacity:1;stroke:none"/>
 <path d="m 28 8 l 0 10 l 9 -5 l -9 -5 z m -4 2 a 14 14 0 0 0 -12.842 8.467 l 1.748 0.971 a 12 12 0 0 1 11.09 -7.438 a 12 12 0 0 1 2 0.182 l 0 -2.023 a 14 14 0 0 0 -2 -0.158 z m 0 5 a 9 9 0 0 0 -8.445 5.908 l 1.771 0.984 a 7 7 0 0 1 6.674 -4.893 a 7 7 0 0 1 2 0.295 l 0 -2.059 a 9 9 0 0 0 -2 -0.236 z m 11.553 1.092 l -1.77 0.984 a 12 12 0 0 1 2.217 6.924 a 12 12 0 0 1 -2.211 6.928 l 1.752 0.973 a 14 14 0 0 0 2.459 -7.9 a 14 14 0 0 0 -2.447 -7.908 z m -4.41 2.451 l -1.77 0.982 a 7 7 0 0 1 1.627 4.475 a 7 7 0 0 1 -1.623 4.479 l 1.77 0.982 a 9 9 0 0 0 1.854 -5.461 a 9 9 0 0 0 -1.857 -5.457 z m -23.14 0.457 l 0 10 l 9 -5 l -9 -5 z m 9.332 7.104 l -1.773 0.984 a 9 9 0 0 0 8.441 5.912 a 9 9 0 0 0 2 -0.234 l 0 -2.064 a 7 7 0 0 1 -2 0.299 a 7 7 0 0 1 -6.668 -4.896 z m -4.422 2.457 l -1.762 0.979 a 14 14 0 0 0 12.852 8.461 a 14 14 0 0 0 2 -0.162 l 0 -2.01 a 12 12 0 0 1 -2 0.17 a 12 12 0 0 1 -11.09 -7.439 z m 15.09 1.439 l 0 10 l 9 -5 l -9 -5 z" style="fill:#f9f9f9;opacity:1;fill-opacity:1;stroke:none"/>
</svg>
