<svg viewBox="0 0 48 48" xmlns="http://www.w3.org/2000/svg" xmlns:xlink="http://www.w3.org/1999/xlink">
  <linearGradient id="a" gradientTransform="matrix(0 -1 1 0 -.0000015 47.999998)" gradientUnits="userSpaceOnUse" x1="1" x2="47">
    <stop offset="0" stop-color="#536bb5"/>
    <stop offset="1" stop-color="#6177bb"/>
  </linearGradient>
  <path d="m47 24c0 22.703-.297 23-23 23-22.703 0-23-.297-23-23 0-22.703.297-23 23-23 22.703 0 23 .297 23 23z" fill="url(#a)"/>
  <path d="m25 11c-4 0-9 2-9 6.5 0 5.5 4.386 6.04 8.416 6.68 2.584.412 4.02.313 5.742 1.395 1.595 1 1.562 3.495.158 4.637-2.158 1.754-5.174 1.941-7.775 1.369-1.718-.378-4.166-1.716-4.541-3.58 0-.831-.669-1.5-1.5-1.5-.831 0-1.5.669-1.5 1.5v5c0 .831.669 1.5 1.5 1.5.738 0 1.345-.529 1.473-1.229 3.232 1.94 7.8 2.152 11.357 1.109 2.516-.738 4.995-2.561 5.553-5.301.496-2.438-.62-5.132-2.838-6.279-1.959-1.014-4.213-1.178-6.334-1.648-3.298-.731-6.111-.83-6.111-3.652 0-2.104 2.4-3.5 5.4-3.5 2.822 0 5.485 2.139 6 3.5 0 .831.669 1.5 1.5 1.5.831 0 1.5-.669 1.5-1.5v-5c0-.831-.669-1.5-1.5-1.5-.791 0-1.5.506-1.488 1.5-1.012-.853-4.057-1.5-6.01-1.5m-13.5 20c-.277 0-.5.223-.5.5v7c0 .277.223.5.5.5h23c .277 0 .5-.223.5-.5 0-.277-.223-.5-.5-.5h-22.5v-6.5c0-.277-.223-.5-.5-.5" opacity=".1"/>
  <path d="m24 10c-4 0-9 2-9 6.5 0 5.5 4.386 6.04 8.416 6.68 2.584.412 4.02.313 5.742 1.395 1.595 1 1.562 3.495.158 4.637-2.158 1.754-5.174 1.941-7.775 1.369-1.718-.378-4.166-1.716-4.541-3.58 0-.831-.669-1.5-1.5-1.5-.831 0-1.5.669-1.5 1.5v5c0 .831.669 1.5 1.5 1.5.738 0 1.345-.529 1.473-1.229 3.232 1.94 7.8 2.152 11.357 1.109 2.516-.738 4.995-2.561 5.553-5.301.496-2.438-.62-5.132-2.838-6.279-1.959-1.014-4.213-1.178-6.334-1.648-3.298-.731-6.111-.83-6.111-3.652 0-2.104 2.4-3.5 5.4-3.5 2.822 0 5.485 2.139 6 3.5 0 .831.669 1.5 1.5 1.5.831 0 1.5-.669 1.5-1.5v-5c0-.831-.669-1.5-1.5-1.5-.791 0-1.5.506-1.488 1.5-1.012-.853-4.057-1.5-6.01-1.5" fill="#302d41"/>
  <path d="m10.5 30c-.277 0-.5.223-.5.5v7c0 .277.223.5.5.5h23c .277 0 .5-.223.5-.5 0-.277-.223-.5-.5-.5h-22.5v-6.5c0-.277-.223-.5-.5-.5z" fill="#302d41"/>
</svg>
