<svg viewBox="0 0 48 48" xmlns="http://www.w3.org/2000/svg" xmlns:xlink="http://www.w3.org/1999/xlink">
  <linearGradient id="a">
    <stop offset="0" stop-color="#f5f5f5"/>
    <stop offset="1" stop-color="#e6e6e6"/>
  </linearGradient>
  <linearGradient id="b">
    <stop offset="0" stop-color="#6480dc"/>
    <stop offset="1" stop-color="#1a1ad6"/>
  </linearGradient>
  <linearGradient id="c">
    <stop offset="0" stop-color="#dc5050"/>
    <stop offset="1" stop-color="#d73535"/>
  </linearGradient>
  <linearGradient id="d" gradientTransform="matrix(0 1 -1 0 48 0)" gradientUnits="userSpaceOnUse" x1="1" x2="47">
    <stop offset="0" stop-color="#d7d7d7"/>
    <stop offset="1" stop-color="#cdcdcd"/>
  </linearGradient>
  <radialGradient id="e" cx="23" cy="25.5" gradientTransform="matrix(-.67550232 0 -.00000005 -1.1259812 39.536553 52.712516)" gradientUnits="userSpaceOnUse" r="13.323" xlink:href="#b"/>
  <radialGradient id="f" cx="23" cy="25.5" gradientTransform="matrix(-.33775116 .58507682 -.9750039 -.56299054 56.630874 24.899492)" gradientUnits="userSpaceOnUse" r="13.323" xlink:href="#b"/>
  <radialGradient id="g" cx="23" cy="25.5" gradientTransform="matrix(.33775116 .58084888 .9750039 -.55892221 -8.630874 24.892992)" gradientUnits="userSpaceOnUse" r="13.323" xlink:href="#b"/>
  <radialGradient id="h" cx="26.20000076" cy="22.75" gradientUnits="userSpaceOnUse" r="2.5" xlink:href="#c"/>
  <radialGradient id="i" cx="22.20000076" cy="22.5" gradientUnits="userSpaceOnUse" r="2.5" xlink:href="#c"/>
  <radialGradient id="j" cx="22.00000076" cy="25" gradientUnits="userSpaceOnUse" r="2.5" xlink:href="#a"/>
  <radialGradient id="k" cx="23.95000076" cy="22" gradientUnits="userSpaceOnUse" r="2.5" xlink:href="#a"/>
  <radialGradient id="l" cx="23.95000076" cy="26" gradientUnits="userSpaceOnUse" r="2.5" xlink:href="#c"/>
  <radialGradient id="m" cx="25.95000076" cy="25.25" gradientUnits="userSpaceOnUse" r="2.5" xlink:href="#a"/>
  <path d="m47 24c0 22.703-.297 23-23 23-22.703 0-23-.297-23-23 0-22.703.297-23 23-23 22.703 0 23 .297 23 23z" fill="url(#d)"/>
  <path d="m30.398 11.404c-.238-.013-.475-.011-.711.002-.314.017-.632.044-.938.094-1.222.2-2.485.752-3.75 1.563-.019.012-.043.019-.063.031-1.245-.783-2.485-1.274-3.688-1.469-1.222-.198-2.552-.218-3.75.469-1.198.687-1.843 1.819-2.281 2.969-.435 1.142-.628 2.492-.563 3.969-1.334.69-2.435 1.541-3.219 2.5-.784.959-1.438 2.085-1.438 3.469 0 1.384.654 2.51 1.438 3.469.784.959 1.885 1.81 3.219 2.5 0 .001 0 .021 0 .031-.069 1.501.124 2.842.563 4 .438 1.158 1.083 2.308 2.281 3 1.198.692 2.528.7 3.75.5 1.222-.2 2.485-.752 3.75-1.563.019-.012.043-.019.063-.031 1.245.783 2.485 1.274 3.688 1.469 1.222.198 2.552.218 3.75-.469 1.198-.687 1.843-1.819 2.281-2.969.435-1.142.628-2.492.563-3.969 1.334-.69 2.435-1.541 3.219-2.5.784-.959 1.438-2.085 1.438-3.469 0-1.384-.654-2.51-1.438-3.469-.784-.959-1.885-1.81-3.219-2.5 0-.001 0-.021 0-.031.069-1.501-.124-2.842-.563-4-.438-1.158-1.083-2.308-2.281-3-.674-.389-1.389-.558-2.102-.596zm-.211 1.158c.701.017 1.272.242 1.719.5.596.344 1.212.896 1.594 1.906.376.995.619 2.081.563 3.5-1.387-.546-2.97-.949-4.688-1.188-1.059-1.333-2.156-2.473-3.313-3.375 1.223-.784 2.309-1.107 3.375-1.281.266-.044.516-.068.75-.063zm-10.375.094c.234-.006.484-.012.75.031 1.03.167 2.077.526 3.25 1.25-1.129.907-2.216 2.023-3.25 3.344-1.694.239-3.254.649-4.625 1.188-.051-1.391.189-2.458.563-3.438.382-1 .998-1.565 1.594-1.906.447-.256 1.018-.451 1.719-.469zm5.125 2.063c.868.667 1.732 1.45 2.563 2.375-.815-.06-1.646-.094-2.5-.094-.876 0-1.728.031-2.563.094.81-.915 1.652-1.706 2.5-2.375zm.063 3.594c1.277 0 2.511.07 3.688.219.743.963 1.465 2.02 2.125 3.156.647 1.112 1.193 2.214 1.656 3.313-.464 1.11-1.01 2.22-1.656 3.344-.65 1.125-1.364 2.168-2.094 3.125-1.185.151-2.43.219-3.719.219-1.277 0-2.512-.07-3.688-.219-.743-.963-1.465-2.02-2.125-3.156-.647-1.112-1.193-2.214-1.656-3.313.464-1.11 1.01-2.22 1.656-3.344.65-1.125 1.364-2.168 2.094-3.125 1.185-.151 2.43-.219 3.719-.219zm-5.594.531c-.463.681-.913 1.41-1.344 2.156-.433.751-.828 1.504-1.188 2.25-.395-1.182-.663-2.321-.813-3.406 1.012-.41 2.129-.75 3.344-1zm11.125 0c1.237.251 2.378.583 3.406 1-.153 1.085-.419 2.226-.813 3.406-.36-.741-.754-1.473-1.188-2.219-.445-.765-.927-1.492-1.406-2.188zm4.656 1.531c1.275.664 2.071 1.451 2.75 2.281.684.836.875 1.656.875 2.344 0 .688-.191 1.508-.875 2.344-.676.827-1.483 1.588-2.75 2.25-.216-1.457-.667-3.01-1.313-4.594.645-1.601 1.097-3.157 1.313-4.625zm-20.375.031c.216 1.457.667 3.01 1.313 4.594-.645 1.601-1.097 3.157-1.313 4.625-1.275-.664-2.071-1.451-2.75-2.281-.684-.836-.875-1.656-.875-2.344 0-.688.191-1.508.875-2.344.676-.827 1.483-1.588 2.75-2.25zm10.139.094a2.5 2.5 0 0 0-1.512.512 2.5 2.5 0 0 0-.238-.012 2.5 2.5 0 0 0-2.5 2.5 2.5 2.5 0 0 0  .246 1.076 2.5 2.5 0 0 0-.445 1.424 2.5 2.5 0 0 0  2.449 2.498 2.5 2.5 0 0 0  2 1 2.5 2.5 0 0 0  1.791-.76 2.5 2.5 0 0 0  .209.001 2.5 2.5 0 0 0  2.5-2.5 2.5 2.5 0 0 0-.227-1.035 2.5 2.5 0 0 0  .477-1.465 2.5 2.5 0 0 0-2.5-2.5 2.5 2.5 0 0 0-.43.039 2.5 2.5 0 0 0-1.82-.789zm-8.08 6.25c.36.741.754 1.473 1.188 2.219.445.765.927 1.492 1.406 2.188-1.237-.251-2.378-.583-3.406-1 .153-1.085.419-2.226.813-3.406zm16.25 0c .395 1.182.663 2.321.813 3.406-1.012.41-2.129.75-3.344 1 .463-.681.913-1.41 1.344-2.156.433-.751.828-1.504 1.188-2.25zm-17.188 4.781c1.387.546 2.97.949 4.688 1.188 1.059 1.333 2.156 2.473 3.313 3.375-1.223.784-2.309 1.107-3.375 1.281-1.066.174-1.873-.094-2.469-.438-.596-.344-1.212-.896-1.594-1.906-.376-.995-.619-2.081-.563-3.5zm18.13 0c .051 1.391-.189 2.458-.563 3.438-.382 1-.998 1.565-1.594 1.906-.596.341-1.403.61-2.469.438-1.03-.167-2.077-.526-3.25-1.25 1.129-.907 2.216-2.023 3.25-3.344 1.694-.239 3.254-.649 4.625-1.188zm-11.563 1.375c.815.06 1.646.094 2.5.094.876 0 1.728-.031 2.563-.094-.81.915-1.652 1.706-2.5 2.375-.868-.667-1.732-1.45-2.563-2.375z" fill-opacity=".118" transform="matrix(1 0 0 1 0 0)"/>
  <path d="m24 15.999c-4.03 0-7.684.66-10.352 2.04-1.334.69-2.423 1.519-3.207 2.478-.784.959-1.441 2.099-1.441 3.482 0 1.383.657 2.523 1.441 3.482.784.959 1.873 1.788 3.207 2.478 2.668 1.38 6.322 2.04 10.352 2.04 4.03 0 7.684-.66 10.352-2.04 1.334-.69 2.423-1.519 3.207-2.478.784-.959 1.441-2.099 1.441-3.482 0-1.383-.657-2.523-1.441-3.482-.784-.959-1.873-1.788-3.207-2.478-2.668-1.38-6.322-2.04-10.352-2.04m0 1.3c3.978 0 7.564.745 10.143 2.079 1.29.667 2.123 1.441 2.807 2.277.684.836.85 1.656.85 2.344 0 .688-.166 1.508-.85 2.344-.684.836-1.517 1.61-2.807 2.277-2.58 1.334-6.165 2.079-10.143 2.079-3.978 0-7.563-.745-10.143-2.079-1.29-.667-2.124-1.441-2.807-2.277-.684-.836-.85-1.656-.85-2.344 0-.688.166-1.508.85-2.344.684-.836 1.517-1.61 2.807-2.277 2.58-1.334 6.165-2.079 10.143-2.079" fill="url(#e)"/>
  <path d="m17.07 19.999c-2.02 3.49-3.27 6.985-3.409 9.986-.069 1.501.104 2.858.542 4.02.438 1.158 1.097 2.297 2.295 2.989 1.198.692 2.514.693 3.736.493 1.222-.2 2.484-.728 3.749-1.538 2.53-1.621 4.928-4.456 6.943-7.946 2.02-3.49 3.27-6.985 3.409-9.986.069-1.501-.104-2.858-.542-4.02-.438-1.158-1.097-2.297-2.295-2.989-1.198-.692-2.514-.693-3.736-.493-1.222.2-2.484.728-3.749 1.538-2.53 1.621-4.928 4.456-6.943 7.946m1.126.65c1.989-3.445 4.427-6.179 6.872-7.745 1.223-.783 2.31-1.119 3.375-1.293 1.066-.174 1.859.092 2.455.436.596.344 1.223.898 1.605 1.908.382 1.01.635 2.119.568 3.569-.134 2.901-1.282 6.38-3.271 9.825-1.989 3.445-4.427 6.178-6.872 7.745-1.223.783-2.31 1.119-3.375 1.293-1.066.174-1.859-.092-2.455-.436-.596-.344-1.223-.898-1.605-1.908-.382-1.01-.635-2.119-.568-3.569.134-2.901 1.282-6.38 3.271-9.825" fill="url(#f)"/>
  <path d="m30.928 20.03c2.02 3.465 3.27 6.935 3.409 9.914.069 1.49-.104 2.837-.542 3.988-.438 1.15-1.097 2.281-2.295 2.968-1.198.687-2.514.688-3.736.489-1.222-.198-2.484-.723-3.749-1.527-2.53-1.609-4.928-4.424-6.943-7.889-2.02-3.465-3.27-6.935-3.409-9.914-.069-1.49.104-2.837.542-3.988.438-1.15 1.097-2.281 2.295-2.968 1.198-.687 2.514-.688 3.736-.489 1.222.198 2.484.723 3.749 1.527 2.53 1.609 4.928 4.424 6.943 7.889zm-1.126.645c-1.989-3.42-4.427-6.134-6.872-7.689-1.223-.778-2.31-1.11-3.375-1.283-1.066-.173-1.859.091-2.455.433-.596.341-1.223.892-1.605 1.894-.382 1-.635 2.103-.568 3.544.134 2.88 1.282 6.334 3.271 9.754 1.989 3.42 4.427 6.134 6.872 7.689 1.223.778 2.31 1.111 3.375 1.283 1.066.173 1.859-.091 2.455-.433.596-.341 1.223-.892 1.605-1.894.382-1 .635-2.103.568-3.544-.134-2.88-1.282-6.334-3.271-9.754z" fill="url(#g)"/>
  <circle cx="22.2" cy="22.5" fill="url(#i)" r="2.5"/>
  <circle cx="23.95" cy="22" fill="url(#k)" r="2.5"/>
  <circle cx="26.2" cy="22.75" fill="url(#h)" r="2.5"/>
  <circle cx="22" cy="25" fill="url(#j)" r="2.5"/>
  <circle cx="25.95" cy="25.25" fill="url(#m)" r="2.5"/>
  <circle cx="23.95" cy="26" fill="url(#l)" r="2.5"/>
</svg>
