<svg xmlns="http://www.w3.org/2000/svg" viewBox="0 0 48 48">
 <defs>
  <linearGradient id="linearGradient3764" x1="1" x2="47" gradientUnits="userSpaceOnUse" gradientTransform="matrix(0,-1,1,0,-1.5e-6,47.999998)">
   <stop style="stop-color:#d3e1f1;stop-opacity:1"/>
   <stop offset="1" style="stop-color:#e2ebf6;stop-opacity:1"/>
  </linearGradient>
 </defs>
 <g>
  
  
  
 </g>
 <g>
  <path d="m 47,24 C 47,46.703 46.703,47 24,47 1.297,47 1,46.703 1,24 1,1.297 1.297,1 24,1 46.703,1 47,1.297 47,24 z" style="fill:url(#linearGradient3764);fill-opacity:1"/>
 </g>
 <path d="m 19.429 9.342 c -0.161 1.01 -0.349 2.108 -0.531 3.072 -4.671 2.269 -7.898 7.04 -7.898 12.586 c 0.002 1.195 0.167 2.375 0.467 3.518 -0.316 0.548 -0.617 1.084 -0.936 1.646 0.551 0.21 1.169 0.379 1.705 0.535 c 0.36 0.801 0.786 1.574 1.295 2.301 l 13.469 0 c 4 0 11.563 -2.687 13.279 -7.262 -0.414 -0.344 -0.899 -0.7 -1.293 -0.992 c -0.137 -7.614 -6.34 -13.746 -13.986 -13.746 c -1.413 0 -2.776 0.214 -4.063 0.604 l -1.508 -2.262 m 18.633 20.652 c -0.685 0.534 -1.431 1.017 -2.209 1.443 -3.042 1.668 -6.568 2.563 -8.854 2.563 l -12.705 0 c 2.656 3.165 6.574 4.994 10.705 5 5.799 -0.007 10.994 -3.588 13.06 -9.01 z" style="fill:#000;opacity:0.1;fill-opacity:1;stroke:none"/>
 <g>
  
 </g>
 <path d="m 37.06 28.994 c -0.685 0.534 -1.431 1.017 -2.209 1.443 -3.042 1.668 -6.568 2.563 -8.854 2.563 l -12.705 0 c 2.656 3.165 6.574 4.994 10.705 5 5.799 -0.007 10.994 -3.588 13.06 -9.01" style="fill:#5294e2;fill-opacity:1;stroke:none"/>
 <path d="m 18.43 8.342 c -0.161 1.01 -0.349 2.108 -0.531 3.072 -4.671 2.269 -7.898 7.04 -7.898 12.586 c 0.002 1.195 0.167 2.375 0.467 3.518 -0.316 0.548 -0.617 1.084 -0.936 1.646 0.551 0.21 1.169 0.379 1.705 0.535 c 0.36 0.801 0.786 1.574 1.295 2.301 l 13.469 0 c 4 0 11.563 -2.687 13.279 -7.262 -0.414 -0.344 -0.899 -0.7 -1.293 -0.992 c -0.137 -7.614 -6.34 -13.746 -13.986 -13.746 c -1.413 0 -2.776 0.214 -4.063 0.604 z" style="fill:#4c5263;fill-opacity:1;stroke:none"/>
 <path d="m 19 11 c -1 6 -5.424 13.05 -8 17.6 c 3 1 10 1.4 13 1.4 c -0.067 -0.877 -1 -13 -1 -13 l -4 -6 z m 5 6.5 c 2.555 4.475 2.491 9.5 1 12.5 c 2 0 6 0 8 -1 c 0 -4.531 -9 -11.5 -9 -11.5 z m 5 3.5 c 3 2 5 3.5 5 7.5 c 2 -1 3.348 -2.299 4 -3.5 c -2.522 -2 -5 -3 -9 -4 z" style="fill:#f9f9f9;fill-opacity:1;stroke:none;fill-rule:evenodd"/>
</svg>
