<svg xmlns="http://www.w3.org/2000/svg" viewBox="0 0 48 48">
 <defs>
  <linearGradient id="linearGradient3764" x1="1" x2="47" gradientUnits="userSpaceOnUse" gradientTransform="matrix(0,-1,1,0,-1.5e-6,47.999998)">
   <stop style="stop-color:#0545a5;stop-opacity:1"/>
   <stop offset="1" style="stop-color:#064db8;stop-opacity:1"/>
  </linearGradient>
 </defs>
 <g>
  
  
  
 </g>
 <g>
  <path d="m 47,24 C 47,46.703 46.703,47 24,47 1.297,47 1,46.703 1,24 1,1.297 1.297,1 24,1 46.703,1 47,1.297 47,24 z" style="fill:url(#linearGradient3764);fill-opacity:1"/>
 </g>
 <g>
  <g>
   <g transform="translate(1,1)">
    <g style="opacity:0.1">
     <!-- color: #abd240 -->
    </g>
   </g>
  </g>
 </g>
 <g>
  <g>
   <!-- color: #abd240 -->
  </g>
 </g>
 <g>
  
 </g>
 <path d="m 32.426 12 c -1.487 -0.248 -1.764 10.134 -0.932 9.06 1.3 -1.672 2.261 -8.842 0.932 -9.06 z m 5.874 1.213 c -1.387 0.301 -4.381 5.584 -4.514 8.213 -0.18 3.581 5.422 -8.41 4.514 -8.213 z m -17.3 0.783 c -1.806 -0.02 -2 2 -1.691 4.354 0.13 0.991 1.173 3.466 0.013 3.062 -0.819 -0.207 -1.566 -3.232 -2.57 -4.451 -1.302 -1.579 -2.999 -0.972 -3.447 0.615 -0.589 2.084 0.955 4.092 0.178 6.137 -1.271 3.342 -2.093 7.129 -0.91 10.633 0.844 2.501 3.625 3.792 6.133 3.639 4.104 -0.251 7.99 -1.837 11.646 -3.594 2.381 -1.144 4.802 -2.378 6.723 -4.189 1.126 -1.063 1.281 -3.034 0.143 -4.26 -2.18 -2.346 -5.421 -3.03 -8.371 -3.961 -1.635 -0.517 -4.846 -0.984 -4.846 -0.984 0 0 0.096 -3.239 -0.482 -4.58 -0.726 -1.681 -1.017 -2.403 -2.518 -2.42 z" style="fill:#000;opacity:0.1;fill-opacity:1;stroke:none"/>
 <path d="m 31.425 11 c -1.487 -0.248 -1.764 10.134 -0.932 9.06 1.3 -1.672 2.261 -8.842 0.932 -9.06 z m 5.874 1.213 c -1.387 0.301 -4.381 5.584 -4.514 8.213 -0.18 3.581 5.422 -8.41 4.514 -8.213 z m -17.3 0.783 c -1.806 -0.02 -2 2 -1.691 4.354 0.13 0.991 1.173 3.466 0.013 3.062 -0.819 -0.207 -1.566 -3.232 -2.57 -4.451 -1.302 -1.579 -2.999 -0.972 -3.447 0.615 -0.589 2.084 0.955 4.092 0.178 6.137 -1.271 3.342 -2.093 7.129 -0.91 10.633 0.844 2.501 3.625 3.792 6.133 3.639 4.104 -0.251 7.99 -1.837 11.646 -3.594 2.381 -1.144 4.802 -2.378 6.723 -4.189 1.126 -1.063 1.281 -3.034 0.143 -4.26 c -2.18 -2.346 -5.421 -3.03 -8.371 -3.961 -1.635 -0.517 -4.846 -0.984 -4.846 -0.984 0 0 0.096 -3.239 -0.482 -4.58 -0.726 -1.681 -1.017 -2.403 -2.518 -2.42" style="fill:#f9f9f9;fill-opacity:1;stroke:none"/>
</svg>
