<svg xmlns="http://www.w3.org/2000/svg" viewBox="0 0 48 48">
 <defs>
  <linearGradient id="linearGradient3764" x1="1" x2="47" gradientUnits="userSpaceOnUse" gradientTransform="matrix(0,-1,1,0,-1.5e-6,47.999998)">
   <stop style="stop-color:#333;stop-opacity:1"/>
   <stop offset="1" style="stop-color:#3d3d3d;stop-opacity:1"/>
  </linearGradient>
 </defs>
 <g>
  
  
  
 </g>
 <g>
  <path d="m 47,24 C 47,46.703 46.703,47 24,47 1.297,47 1,46.703 1,24 1,1.297 1.297,1 24,1 46.703,1 47,1.297 47,24 z" style="fill:url(#linearGradient3764);fill-opacity:1"/>
 </g>
 <g>
  
 </g>
 <path d="m 15.182 31.04 c -1.312 -0.631 -2.185 -2.978 0.186 -2.918 2.722 0.069 4.327 3.388 6.742 2.959 2.08 -0.369 0.623 -4.115 0.799 -6.081 0.235 -2.623 -0.585 -5.881 1.302 -7.822 c 1.826 -1.878 2.788 2.066 2.788 3.591 l 0 5.44 c 0 1.794 0.091 4.631 2.612 3.489 1.87 -0.847 3.259 -3.441 5.372 -2.986 2.01 0.433 -0.384 3.503 -1.495 4.361 -1.789 1.382 -4 2.162 -5.76 3.579 -1.397 1.126 -3.127 1.674 -4.848 1.151 -2.974 -0.903 -4.952 -3.445 -7.698 -4.764 z m -4.02 -5.143 c 0.88 -1.066 4.256 2.83 1.652 2.349 -0.997 -0.184 -2.262 -1.61 -1.652 -2.349 z m 24.892 0.842 c -0.253 -1.681 3.927 -3.311 2.734 -0.842 -0.348 0.721 -2.518 2.278 -2.734 0.842 z m -11.554 -11.217 c -0.659 -0.853 -0.005 -4.854 1.179 -3.061 0.527 0.797 0.34 5.03 -1.179 3.061 z" style="fill:#000;opacity:0.1;fill-opacity:1;stroke:none"/>
 <path d="m 14.182 30.04 c -1.312 -0.631 -2.185 -2.978 0.186 -2.918 2.722 0.069 4.327 3.388 6.742 2.959 2.08 -0.369 0.623 -4.115 0.799 -6.081 0.235 -2.623 -0.585 -5.881 1.302 -7.822 c 1.826 -1.878 2.788 2.066 2.788 3.591 l 0 5.44 c 0 1.794 0.091 4.631 2.612 3.489 1.87 -0.847 3.259 -3.441 5.372 -2.986 2.01 0.433 -0.384 3.503 -1.495 4.361 -1.789 1.382 -4 2.162 -5.76 3.579 -1.397 1.126 -3.127 1.674 -4.848 1.151 -2.974 -0.903 -4.952 -3.445 -7.698 -4.764 z m -4.02 -5.143 c 0.88 -1.066 4.256 2.83 1.652 2.349 -0.997 -0.184 -2.262 -1.61 -1.652 -2.349 z m 24.892 0.842 c -0.253 -1.681 3.927 -3.311 2.734 -0.842 -0.348 0.721 -2.518 2.278 -2.734 0.842 z m -11.554 -11.217 c -0.659 -0.853 -0.005 -4.854 1.179 -3.061 0.527 0.797 0.34 5.03 -1.179 3.061 z" style="fill:#69d3ff;fill-opacity:1;stroke:none"/>
</svg>
