<svg viewBox="0 0 48 48" xmlns="http://www.w3.org/2000/svg" xmlns:xlink="http://www.w3.org/1999/xlink">
  <linearGradient id="a" gradientTransform="matrix(0 -1 1 0 -.0000015 47.999998)" gradientUnits="userSpaceOnUse" x1="1" x2="47">
    <stop offset="0" stop-color="#333"/>
    <stop offset="1" stop-color="#3d3d3d"/>
  </linearGradient>
  <path d="m47 24c0 22.703-.297 23-23 23-22.703 0-23-.297-23-23 0-22.703.297-23 23-23 22.703 0 23 .297 23 23z" fill="url(#a)"/>
  <path d="m15.182 31.04c-1.312-.631-2.185-2.978.186-2.918 2.722.069 4.327 3.388 6.742 2.959 2.08-.369.623-4.115.799-6.081.235-2.623-.585-5.881 1.302-7.822 1.826-1.878 2.788 2.066 2.788 3.591v5.44c0 1.794.091 4.631 2.612 3.489 1.87-.847 3.259-3.441 5.372-2.986 2.01.433-.384 3.503-1.495 4.361-1.789 1.382-4 2.162-5.76 3.579-1.397 1.126-3.127 1.674-4.848 1.151-2.974-.903-4.952-3.445-7.698-4.764zm-4.02-5.143c.88-1.066 4.256 2.83 1.652 2.349-.997-.184-2.262-1.61-1.652-2.349zm24.892.842c-.253-1.681 3.927-3.311 2.734-.842-.348.721-2.518 2.278-2.734.842zm-11.554-11.217c-.659-.853-.005-4.854 1.179-3.061.527.797.34 5.03-1.179 3.061z" opacity=".1"/>
  <path d="m14.182 30.04c-1.312-.631-2.185-2.978.186-2.918 2.722.069 4.327 3.388 6.742 2.959 2.08-.369.623-4.115.799-6.081.235-2.623-.585-5.881 1.302-7.822 1.826-1.878 2.788 2.066 2.788 3.591v5.44c0 1.794.091 4.631 2.612 3.489 1.87-.847 3.259-3.441 5.372-2.986 2.01.433-.384 3.503-1.495 4.361-1.789 1.382-4 2.162-5.76 3.579-1.397 1.126-3.127 1.674-4.848 1.151-2.974-.903-4.952-3.445-7.698-4.764zm-4.02-5.143c.88-1.066 4.256 2.83 1.652 2.349-.997-.184-2.262-1.61-1.652-2.349zm24.892.842c-.253-1.681 3.927-3.311 2.734-.842-.348.721-2.518 2.278-2.734.842zm-11.554-11.217c-.659-.853-.005-4.854 1.179-3.061.527.797.34 5.03-1.179 3.061z" fill="#69d3ff"/>
</svg>
