<svg viewBox="0 0 48 48" xmlns="http://www.w3.org/2000/svg" xmlns:xlink="http://www.w3.org/1999/xlink">
  <linearGradient id="a" gradientTransform="matrix(0 -1 1 0 -.0000015 47.999998)" gradientUnits="userSpaceOnUse" x1="1" x2="47">
    <stop offset="0" stop-color="#95e79f"/>
    <stop offset="1" stop-color="#a5ebae"/>
  </linearGradient>
  <path d="m47 24c0 22.703-.297 23-23 23-22.703 0-23-.297-23-23 0-22.703.297-23 23-23 22.703 0 23 .297 23 23z" fill="url(#a)"/>
  <path d="m25 10c-2.209 0-4 1.791-4 4 0 .784.513 2.4 1.164 4.154-.779-1.701-1.559-3.207-2.113-3.762-.781-.781-1.804-1.17-2.828-1.17-1.024 0-2.049.389-2.83 1.17-1.562 1.562-1.562 4.096 0 5.658.555.555 2.065 1.337 3.77 2.117-1.757-.653-3.377-1.168-4.162-1.168-2.209 0-4 1.791-4 4 0 2.209 1.791 4 4 4 .784 0 2.4-.513 4.154-1.164-1.701.779-3.207 1.559-3.762 2.113-1.562 1.562-1.562 4.096 0 5.658 1.562 1.562 4.096 1.562 5.658 0 .555-.555 1.337-2.065 2.117-3.77-.653 1.757-1.168 3.377-1.168 4.162 0 2.209 1.791 4 4 4 2.209 0 4-1.791 4-4 0-.784-.513-2.4-1.164-4.154.779 1.701 1.559 3.207 2.113 3.762 1.562 1.562 4.096 1.562 5.658 0 1.562-1.562 1.562-4.096 0-5.658-.555-.555-2.065-1.337-3.77-2.117 1.757.653 3.377 1.168 4.162 1.168 2.209 0 4-1.791 4-4 0-2.209-1.791-4-4-4-.784 0-2.4.513-4.154 1.164 1.701-.779 3.207-1.559 3.762-2.113 1.562-1.562 1.562-4.096 0-5.658-.781-.781-1.806-1.17-2.83-1.17-1.024 0-2.047.389-2.828 1.17-.555.555-1.337 2.065-2.117 3.77.653-1.757 1.168-3.377 1.168-4.162 0-2.209-1.791-4-4-4m0 9a6 6 0 0 1 6 6 6 6 0 0 1-6 6 6 6 0 0 1-6-6 6 6 0 0 1  6-6zm0 1a5 5 0 0 0-5 5 5 5 0 0 0  5 5 5 5 0 0 0  5-5 5 5 0 0 0-5-5zm0 2a3 3 0 0 1 3 3 3 3 0 0 1-3 3 3 3 0 0 1-3-3 3 3 0 0 1  3-3z" opacity=".1"/>
  <path d="m24 9c-2.209 0-4 1.791-4 4 0 .98.792 3.251 1.668 5.479a6 6 0 0 1 2.332-.479 6 6 0 0 1  2.334.475c.875-2.226 1.666-4.496 1.666-5.475 0-2.209-1.791-4-4-4m2.332 20.521a6 6 0 0 1-2.332.479 6 6 0 0 1-2.334-.475c-.875 2.226-1.666 4.496-1.666 5.475 0 2.209 1.791 4 4 4 2.209 0 4-1.791 4-4 0-.98-.792-3.251-1.668-5.479z" fill="#e35353"/>
  <path d="m31.777 12.223c-1.024 0-2.047.389-2.828 1.17-.693.693-1.738 2.859-2.693 5.05a6 6 0 0 1 3.299 3.299c2.194-.956 4.36-2 5.05-2.693 1.562-1.562 1.562-4.096 0-5.658-.781-.781-1.806-1.17-2.83-1.17zm-13.332 14.03c-2.194.956-4.36 2-5.05 2.693-1.562 1.562-1.562 4.096 0 5.658 1.562 1.562 4.096 1.562 5.658 0 .693-.693 1.738-2.859 2.693-5.05a6 6 0 0 1-3.299-3.299z" fill="#f8976c"/>
  <path d="m16.223 12.223c-1.024 0-2.049.389-2.83 1.17-1.562 1.562-1.562 4.096 0 5.658.693.693 2.859 1.738 5.05 2.693a6 6 0 0 1 3.299-3.299c-.956-2.194-2-4.36-2.693-5.05-.781-.781-1.804-1.17-2.828-1.17zm13.332 14.03a6 6 0 0 1-3.299 3.299c.956 2.194 2 4.36 2.693 5.05 1.562 1.562 4.096 1.562 5.658 0 1.562-1.562 1.562-4.096 0-5.658-.693-.693-2.859-1.738-5.05-2.693z" fill="#f6824e"/>
  <path d="m13 20c-2.209 0-4 1.791-4 4 0 2.209 1.791 4 4 4 .98 0 3.251-.792 5.479-1.668a6 6 0 0 1-.479-2.332 6 6 0 0 1  .475-2.334c-2.226-.875-4.496-1.666-5.475-1.666m22 0c-.98 0-3.251.792-5.479 1.668a6 6 0 0 1  .479 2.332 6 6 0 0 1-.475 2.334c2.226.875 4.496 1.666 5.475 1.666 2.209 0 4-1.791 4-4 0-2.209-1.791-4-4-4z" fill="#f4ab56"/>
  <path d="m24 19a5 5 0 0 0-5 5 5 5 0 0 0  5 5 5 5 0 0 0  5-5 5 5 0 0 0-5-5zm0 2a3 3 0 0 1 3 3 3 3 0 0 1-3 3 3 3 0 0 1-3-3 3 3 0 0 1  3-3z" fill="#debe7e"/>
</svg>
