<svg viewBox="0 0 48 48" xmlns="http://www.w3.org/2000/svg" xmlns:xlink="http://www.w3.org/1999/xlink">
  <linearGradient id="a" gradientTransform="matrix(0 -1 1 0 -.0000015 47.999998)" gradientUnits="userSpaceOnUse" x1="1" x2="47">
    <stop offset="0" stop-color="#243964"/>
    <stop offset="1" stop-color="#294172"/>
  </linearGradient>
  <path d="m47 24c0 22.703-.297 23-23 23-22.703 0-23-.297-23-23 0-22.703.297-23 23-23 22.703 0 23 .297 23 23z" fill="url(#a)"/>
  <path d="m30.5 12c-4.142 0-7.5 3.358-7.5 7.5 0 0 0 2.048 0 3.5h-3.5c-4.142 0-7.5 3.358-7.5 7.5 0 4.142 3.358 7.5 7.5 7.5 4.101-.003 7.44-3.299 7.494-7.4h.006v-.1-3.5h3.5c4.142 0 7.5-3.358 7.5-7.5 0-4.142-3.358-7.5-7.5-7.5m0 4c1.933 0 3.5 1.567 3.5 3.5 0 1.933-1.567 3.5-3.5 3.5h-2.5c-.554 0-1-.446-1-1v-2.5c0-1.933 1.567-3.5 3.5-3.5m-11 11h2.5c.554 0 1 .446 1 1v2.5a3.5 3.5 0 0 1-3.5 3.5 3.5 3.5 0 0 1-3.5-3.5 3.5 3.5 0 0 1  3.5-3.5" opacity=".1"/>
  <path d="m29.5 11c-4.142 0-7.5 3.358-7.5 7.5 0 0 0 2.048 0 3.5h-3.5c-4.142 0-7.5 3.358-7.5 7.5 0 4.142 3.358 7.5 7.5 7.5 4.101-.003 7.44-3.299 7.494-7.4h.006v-.1-3.5h3.5c4.142 0 7.5-3.358 7.5-7.5 0-4.142-3.358-7.5-7.5-7.5m0 4c1.933 0 3.5 1.567 3.5 3.5 0 1.933-1.567 3.5-3.5 3.5h-3.5v-3.5c0-1.933 1.567-3.5 3.5-3.5m-11 11h3.5v3.5a3.5 3.5 0 0 1-3.5 3.5 3.5 3.5 0 0 1-3.5-3.5 3.5 3.5 0 0 1  3.5-3.5" fill="#3c6eb2"/>
  <path d="m29.441 11c-2.554.02-4.922 1.338-6.285 3.498-.774 1.228-1.137 2.617-1.137 4l-.01 3.5h-3.01c-1.108 0-2 .892-2 2 0 1.108.892 2 2 2h2c .554 0 1 .446 1 1v2.5c0 1.933-1.567 3.501-3.5 3.5-.265 0-.528-.038-.787-.094-2.568-.55-4.075 3.105-.9 3.902.57.143 1.159.196 1.746.191 2.554-.02 4.922-1.338 6.285-3.498.774-1.228 1.137-2.617 1.137-4l .01-3.5c1 0 2.01 0 3.01 0 1.108 0 2-.892 2-2 0-1.108-.892-2-2-2h-2c-.554 0-1-.446-1-1v-2.5c0-1.933 1.567-3.501 3.5-3.5.265 0 .528.038.787.094 2.568.55 4.075-3.105.9-3.902-.57-.143-1.159-.196-1.746-.191" fill="#f9f9f9"/>
</svg>
