<svg viewBox="0 0 48 48" xmlns="http://www.w3.org/2000/svg" xmlns:xlink="http://www.w3.org/1999/xlink">
  <linearGradient id="a" gradientTransform="matrix(0 -1 1 0 -.0000015 47.999998)" gradientUnits="userSpaceOnUse" x1="1" x2="47">
    <stop offset="0" stop-color="#0545a5"/>
    <stop offset="1" stop-color="#064db8"/>
  </linearGradient>
  <path d="m47 24c0 22.703-.297 23-23 23-22.703 0-23-.297-23-23 0-22.703.297-23 23-23 22.703 0 23 .297 23 23z" fill="url(#a)"/>
  <path d="m32.426 12c-1.487-.248-1.764 10.134-.932 9.06 1.3-1.672 2.261-8.842.932-9.06zm5.874 1.213c-1.387.301-4.381 5.584-4.514 8.213-.18 3.581 5.422-8.41 4.514-8.213zm-17.3.783c-1.806-.02-2 2-1.691 4.354.13.991 1.173 3.466.013 3.062-.819-.207-1.566-3.232-2.57-4.451-1.302-1.579-2.999-.972-3.447.615-.589 2.084.955 4.092.178 6.137-1.271 3.342-2.093 7.129-.91 10.633.844 2.501 3.625 3.792 6.133 3.639 4.104-.251 7.99-1.837 11.646-3.594 2.381-1.144 4.802-2.378 6.723-4.189 1.126-1.063 1.281-3.034.143-4.26-2.18-2.346-5.421-3.03-8.371-3.961-1.635-.517-4.846-.984-4.846-.984 0 0 .096-3.239-.482-4.58-.726-1.681-1.017-2.403-2.518-2.42z" opacity=".1"/>
  <path d="m31.425 11c-1.487-.248-1.764 10.134-.932 9.06 1.3-1.672 2.261-8.842.932-9.06zm5.874 1.213c-1.387.301-4.381 5.584-4.514 8.213-.18 3.581 5.422-8.41 4.514-8.213zm-17.3.783c-1.806-.02-2 2-1.691 4.354.13.991 1.173 3.466.013 3.062-.819-.207-1.566-3.232-2.57-4.451-1.302-1.579-2.999-.972-3.447.615-.589 2.084.955 4.092.178 6.137-1.271 3.342-2.093 7.129-.91 10.633.844 2.501 3.625 3.792 6.133 3.639 4.104-.251 7.99-1.837 11.646-3.594 2.381-1.144 4.802-2.378 6.723-4.189 1.126-1.063 1.281-3.034.143-4.26-2.18-2.346-5.421-3.03-8.371-3.961-1.635-.517-4.846-.984-4.846-.984 0 0 .096-3.239-.482-4.58-.726-1.681-1.017-2.403-2.518-2.42" fill="#f9f9f9"/>
</svg>
