<svg xmlns="http://www.w3.org/2000/svg" viewBox="0 0 48 48">
 <defs>
  <linearGradient id="linearGradient3066" gradientUnits="userSpaceOnUse" gradientTransform="matrix(0,-3.543307,3.543307,0,0,48)" x1="0" x2="13.547">
   <stop style="stop-color:#008ef3;stop-opacity:1"/>
   <stop offset="1" style="stop-color:#00d4ff;stop-opacity:1"/>
  </linearGradient>
 </defs>
 <g>
  
  
  
 </g>
 <path d="M 24 1 C 1.297 1 1 1.297 1 24 C 1 46.703 1.297 47 24 47 C 46.703 47 47 46.703 47 24 C 47 1.297 46.703 1 24 1 z " style="fill:url(#linearGradient3066);stroke:none"/>
 <path d="m 24.14 13 c -1.461 0.035 -1.363 0.297 -1.98 1.555 -0.996 2.023 -1.695 4.957 -1.551 6.691 0.152 1.852 0.648 3.059 1.609 3.961 1.152 1.094 2.559 0.953 3.746 -0.32 1.066 -1.145 1.461 -2.332 1.555 -4.926 0.055 -1.641 0.09 -1.836 0.211 -1.555 0.473 1.09 0.598 3.656 0.27 4.926 -0.273 1.051 -0.953 2.336 -1.5 2.84 -0.723 0.664 -1.5 0.965 -2.57 1.016 -0.719 0.035 -1 0.023 -1.555 -0.16 -1.418 -0.473 -3.172 -1.828 -4.176 -3.16 -1.43 -1.887 -2.852 -5.727 -3.215 -8.781 -0.07 -0.59 -0.168 -1.125 -0.211 -1.176 -0.254 -0.293 -1.242 0.934 -1.551 1.93 -0.203 0.637 -0.215 0.941 -0.215 6.586 l 0 5.945 0.27 0.16 c 0.379 0.246 2.031 0.742 3.379 1.016 1.023 0.211 1.434 0.27 3.855 0.27 2.422 -0.004 2.875 -0.063 3.805 -0.27 1.516 -0.332 2.648 -0.875 3.59 -1.82 1.324 -1.328 1.816 -2.676 1.82 -4.766 0.004 -1.387 -0.195 -2.496 -0.754 -3.59 -0.199 -0.398 -0.395 -0.727 -0.375 -0.75 0.125 -0.125 1.508 1.527 1.824 2.195 1.984 4.195 1.035 7.617 -3.055 11.03 -1.813 1.512 -4.953 3.59 -6.75 4.496 -0.629 0.316 -0.746 0.434 -0.59 0.59 0.039 0.039 3.168 0.07 6.961 0.051 l 6.91 -0.051 0.59 -0.27 c 1.191 -0.57 1.945 -1.41 2.301 -2.57 0.207 -0.664 0.215 -0.965 0.215 -9.102 0 -8.551 -0.016 -9.289 -0.375 -9.426 -0.082 -0.031 -0.891 0.059 -1.77 0.211 -0.973 0.172 -2.348 0.313 -3.535 0.379 -2.074 0.105 -3.117 0.305 -4.34 0.801 -1.133 0.465 -1.793 0.836 -2.41 1.34 -0.555 0.453 -0.629 0.512 -0.805 1.234 -0.246 0.996 -0.398 1.438 -0.805 1.98 -0.305 0.395 -0.602 0.59 -0.598 0.375 0.016 -0.383 0.363 -1.582 0.699 -2.25 0.996 -1.98 2.293 -3.395 4.824 -5.301 0.777 -0.594 1.445 -1.105 1.445 -1.184 0 -0.117 -0.566 -0.16 -3.109 -0.16 -0.91 0 -1.602 -0.012 -2.09 0 m 2.086 5.04 c 0.164 0 0.168 0.164 -0.051 1.77 -0.234 1.691 -0.84 3.043 -1.609 3.855 -0.543 0.574 -1.129 0.727 -1.551 0.426 -0.238 -0.164 -0.535 -0.738 -0.535 -1.016 0 -0.137 0.051 -0.141 0.211 -0.051 0.328 0.172 0.461 0.133 0.859 -0.215 0.664 -0.586 1.359 -2.266 1.715 -4.176 0.039 -0.223 0.652 -0.598 0.961 -0.598 m 0 -0.004" style="fill:#000;opacity:0.1;fill-opacity:1;stroke:none;fill-rule:nonzero"/>
 <path d="m 23.14 12 c -1.461 0.035 -1.363 0.297 -1.98 1.555 -0.996 2.023 -1.695 4.957 -1.551 6.691 0.152 1.852 0.648 3.059 1.609 3.961 1.152 1.094 2.559 0.953 3.746 -0.32 1.066 -1.145 1.461 -2.332 1.555 -4.926 0.055 -1.641 0.09 -1.836 0.211 -1.555 0.473 1.09 0.598 3.656 0.27 4.926 -0.273 1.051 -0.953 2.336 -1.5 2.84 -0.723 0.664 -1.5 0.965 -2.57 1.016 -0.719 0.035 -1 0.023 -1.555 -0.16 -1.418 -0.473 -3.172 -1.828 -4.176 -3.16 -1.43 -1.887 -2.852 -5.727 -3.215 -8.781 -0.07 -0.59 -0.168 -1.125 -0.211 -1.176 -0.254 -0.293 -1.242 0.934 -1.551 1.93 -0.203 0.637 -0.215 0.941 -0.215 6.586 l 0 5.945 0.27 0.16 c 0.379 0.246 2.031 0.742 3.379 1.016 1.023 0.211 1.434 0.27 3.855 0.27 2.422 -0.004 2.875 -0.063 3.805 -0.27 1.516 -0.332 2.648 -0.875 3.59 -1.82 1.324 -1.328 1.816 -2.676 1.82 -4.766 0.004 -1.387 -0.195 -2.496 -0.754 -3.59 -0.199 -0.398 -0.395 -0.727 -0.375 -0.75 0.125 -0.125 1.508 1.527 1.824 2.195 1.984 4.195 1.035 7.617 -3.055 11.03 -1.813 1.512 -4.953 3.59 -6.75 4.496 -0.629 0.316 -0.746 0.434 -0.59 0.59 0.039 0.039 3.168 0.07 6.961 0.051 l 6.91 -0.051 0.59 -0.27 c 1.191 -0.57 1.945 -1.41 2.301 -2.57 0.207 -0.664 0.215 -0.965 0.215 -9.102 0 -8.551 -0.016 -9.289 -0.375 -9.426 -0.082 -0.031 -0.891 0.059 -1.77 0.211 -0.973 0.172 -2.348 0.313 -3.535 0.379 -2.074 0.105 -3.117 0.305 -4.34 0.801 -1.133 0.465 -1.793 0.836 -2.41 1.34 -0.555 0.453 -0.629 0.512 -0.805 1.234 -0.246 0.996 -0.398 1.438 -0.805 1.98 -0.305 0.395 -0.602 0.59 -0.598 0.375 0.016 -0.383 0.363 -1.582 0.699 -2.25 0.996 -1.98 2.293 -3.395 4.824 -5.301 0.777 -0.594 1.445 -1.105 1.445 -1.184 0 -0.117 -0.566 -0.16 -3.109 -0.16 -0.91 0 -1.602 -0.012 -2.09 0 m 2.086 5.04 c 0.164 0 0.168 0.164 -0.051 1.77 -0.234 1.691 -0.84 3.043 -1.609 3.855 -0.543 0.574 -1.129 0.727 -1.551 0.426 -0.238 -0.164 -0.535 -0.738 -0.535 -1.016 0 -0.137 0.051 -0.141 0.211 -0.051 0.328 0.172 0.461 0.133 0.859 -0.215 0.664 -0.586 1.359 -2.266 1.715 -4.176 0.039 -0.223 0.652 -0.598 0.961 -0.598 m 0 -0.004" style="fill:#eaebde;fill-opacity:1;stroke:none;fill-rule:nonzero"/>
 <g>
  
 </g>
</svg>
