<svg viewBox="0 0 48 48" xmlns="http://www.w3.org/2000/svg" xmlns:xlink="http://www.w3.org/1999/xlink">
  <linearGradient id="a" gradientTransform="matrix(0 -1 1 0 -.0000015 47.999998)" gradientUnits="userSpaceOnUse" x1="1" x2="47">
    <stop offset="0" stop-color="#bedff0"/>
    <stop offset="1" stop-color="#cee7f4"/>
  </linearGradient>
  <path d="m47 24c0 22.703-.297 23-23 23-22.703 0-23-.297-23-23 0-22.703.297-23 23-23 22.703 0 23 .297 23 23z" fill="url(#a)"/>
  <path d="m17 12l-.531.986 2.531 4.01h-4.691l-1.078 2h13.736l-1.15-2h-4.408l-3.191-5h-1.217m7.096 0l6.84 11.895 1.162-1.988-2.133-3.711 3.535-5.268-.5-.928h-1.285l-2.861 4.262-2.451-4.262zm11.803 5.385l-7.373 12.615h2.316l2.338-4h6.281l.539-1-.539-1h-5.113l2.662-4.555-1.111-2.061zm-16.74 2.615l-2.338 4h-6.281l-.539 1 .539 1h5.113l-2.662 4.555 1.111 2.061 7.373-12.615h-2.316m-.094 6.105l-1.162 1.988 2.133 3.711-3.535 5.268.5.928h1.285l2.861-4.262 2.451 4.262h2.307zm3.969 4.895l1.15 2h4.408l3.191 5h1.217l.531-.986-2.531-4.01h4.691l1.078-2h-13.736z" opacity=".1"/>
  <path d="m23.1 11l6.84 11.895 1.162-1.988-2.133-3.711 3.535-5.268-.5-.928h-1.285l-2.861 4.262-2.451-4.262zm-4.938 8l-2.338 4h-6.281l-.539 1 .539 1h5.113l-2.662 4.555 1.111 2.061 7.373-12.615h-2.316m3.875 11l1.15 2h4.408l3.191 5h1.217l.531-.986-2.531-4.01h4.691l1.078-2h-13.736z" fill="#64addc"/>
  <path d="m16 11l-.531.986 2.531 4.01h-4.691l-1.078 2h13.736l-1.15-2h-4.408l-3.191-5h-1.217m18.898 5.385l-7.373 12.615h2.316l2.338-4h6.281l.539-1-.539-1h-5.113l2.662-4.555-1.111-2.061zm-16.834 8.721l-1.162 1.988 2.133 3.711-3.535 5.268.5.928h1.285l2.861-4.262 2.451 4.262h2.307z" fill="#4e66b2"/>
</svg>
