<svg viewBox="0 0 48 48" xmlns="http://www.w3.org/2000/svg" xmlns:xlink="http://www.w3.org/1999/xlink">
  <linearGradient id="a" gradientTransform="matrix(0 -1 1 0 -.0000015 47.999998)" gradientUnits="userSpaceOnUse" x1="1" x2="47">
    <stop offset="0" stop-color="#d3e1f1"/>
    <stop offset="1" stop-color="#e2ebf6"/>
  </linearGradient>
  <path d="m47 24c0 22.703-.297 23-23 23-22.703 0-23-.297-23-23 0-22.703.297-23 23-23 22.703 0 23 .297 23 23z" fill="url(#a)"/>
  <path d="m19.429 9.342c-.161 1.01-.349 2.108-.531 3.072-4.671 2.269-7.898 7.04-7.898 12.586.002 1.195.167 2.375.467 3.518-.316.548-.617 1.084-.936 1.646.551.21 1.169.379 1.705.535.36.801.786 1.574 1.295 2.301h13.469c4 0 11.563-2.687 13.279-7.262-.414-.344-.899-.7-1.293-.992-.137-7.614-6.34-13.746-13.986-13.746-1.413 0-2.776.214-4.063.604zm18.633 20.652c-.685.534-1.431 1.017-2.209 1.443-3.042 1.668-6.568 2.563-8.854 2.563h-12.705c2.656 3.165 6.574 4.994 10.705 5 5.799-.007 10.994-3.588 13.06-9.01z" opacity=".1"/>
  <path d="m37.06 28.994c-.685.534-1.431 1.017-2.209 1.443-3.042 1.668-6.568 2.563-8.854 2.563h-12.705c2.656 3.165 6.574 4.994 10.705 5 5.799-.007 10.994-3.588 13.06-9.01" fill="#5294e2"/>
  <path d="m18.43 8.342c-.161 1.01-.349 2.108-.531 3.072-4.671 2.269-7.898 7.04-7.898 12.586.002 1.195.167 2.375.467 3.518-.316.548-.617 1.084-.936 1.646.551.21 1.169.379 1.705.535.36.801.786 1.574 1.295 2.301h13.469c4 0 11.563-2.687 13.279-7.262-.414-.344-.899-.7-1.293-.992-.137-7.614-6.34-13.746-13.986-13.746-1.413 0-2.776.214-4.063.604z" fill="#4c5263"/>
  <path d="m19 11c-1 6-5.424 13.05-8 17.6 3 1 10 1.4 13 1.4-.067-.877-1-13-1-13zm5 6.5c2.555 4.475 2.491 9.5 1 12.5 2 0 6 0 8-1 0-4.531-9-11.5-9-11.5zm5 3.5c3 2 5 3.5 5 7.5 2-1 3.348-2.299 4-3.5-2.522-2-5-3-9-4z" fill="#f9f9f9" fill-rule="evenodd"/>
</svg>
