<svg viewBox="0 0 48 48" xmlns="http://www.w3.org/2000/svg" xmlns:xlink="http://www.w3.org/1999/xlink">
  <linearGradient id="a" gradientTransform="matrix(0 -1 1 0 -.0000015 47.999998)" gradientUnits="userSpaceOnUse" x1="1" x2="47">
    <stop offset="0" stop-color="#23c7c9"/>
    <stop offset="1" stop-color="#27d7d9"/>
  </linearGradient>
  <radialGradient id="b" cx="23.5" cy="24" gradientTransform="matrix(1 0 0 .90322581 0 2.3225806)" gradientUnits="userSpaceOnUse" r="15.5">
    <stop offset="0" stop-color="#f8e96c"/>
    <stop offset="1" stop-color="#f7e75d"/>
  </radialGradient>
  <path d="m47 24c0 22.703-.297 23-23 23-22.703 0-23-.297-23-23 0-22.703.297-23 23-23 22.703 0 23 .297 23 23z" fill="url(#a)"/>
  <path d="m26 11c-.16 0-.472 1.181-.74 2.025-.289.021-.577.053-.863.096-.428-.776-.969-1.883-1.127-1.852-.157.031-.236 1.254-.334 2.135-.278.077-.553.163-.824.26-.572-.678-1.32-1.659-1.469-1.598-.148.061.016 1.277.092 2.16-.259.129-.513.267-.762.414-.693-.553-1.616-1.371-1.75-1.281-.134.089.266 1.25.512 2.102-.229.177-.451.362-.666.555-.788-.407-1.855-1.03-1.969-.916-.114.114.507 1.178.914 1.965-.19.217-.373.441-.547.672-.852-.246-2.02-.648-2.107-.514-.089.134.726 1.055 1.279 1.748-.145.25-.28.504-.406.764-.883-.075-2.104-.24-2.166-.092-.062.149.918.895 1.596 1.467-.271.786-.459 1.599-.563 2.424-1.669-1.033-1.436-3.447-5.1-3.533.5 1.5 1 3 1 4.5 0 1.5-.5 4-1 5.5 2.459 0 2.934-2.33 5.217-2.814.107.578.257 1.147.447 1.703-.678.572-1.659 1.32-1.598 1.469.061.148 1.277-.016 2.16-.092.129.259.267.513.414.762-.553.693-1.371 1.616-1.281 1.75.089.134 1.25-.266 2.102-.512.177.229.362.451.555.666-.407.788-1.03 1.855-.916 1.969.114.114 1.178-.507 1.965-.914.217.19.441.373.672.547-.246.852-.648 2.02-.514 2.107.134.089 1.055-.726 1.748-1.279.25.145.504.28.764.406-.075.883-.24 2.104-.092 2.166.149.062.895-.918 1.467-1.596.272.093.548.177.826.25.099.881.176 2.111.334 2.143.158.031.699-1.075 1.127-1.852.285.038.572.066.859.084.269.845.583 2.037.744 2.037.16 0 .472-1.181.74-2.025.289-.021.577-.053.863-.096.428.776.969 1.883 1.127 1.852.157-.031.236-1.254.334-2.135.278-.077.553-.163.824-.26.572.678 1.32 1.659 1.469 1.598.148-.061-.016-1.277-.092-2.16.259-.129.513-.267.762-.414.693.553 1.616 1.371 1.75 1.281.134-.089-.266-1.25-.512-2.102.229-.177.451-.362.666-.555.788.407 1.855 1.03 1.969.916.114-.114-.507-1.178-.914-1.965.19-.217.373-.441.547-.672.852.246 2.02.648 2.107.514.089-.134-.726-1.055-1.279-1.748.374-.646.687-1.325.936-2.029h.703c1.108 0 2-.892 2-2 0-1.108-.892-2-2-2 1.108 0 2-.892 2-2 0-1.108-.892-2-2-2h-.713c-.246-.703-.556-1.382-.928-2.027.553-.693 1.371-1.616 1.281-1.75-.089-.134-1.25.266-2.102.512-.177-.229-.362-.451-.555-.666.407-.788 1.03-1.855.916-1.969-.114-.114-1.178.507-1.965.914-.217-.19-.441-.373-.672-.547.246-.852.648-2.02.514-2.107-.134-.089-1.055.726-1.748 1.279-.25-.145-.504-.28-.764-.406.075-.883.24-2.104.092-2.166-.149-.062-.895.918-1.467 1.596-.272-.093-.548-.177-.826-.25-.099-.881-.176-2.111-.334-2.143-.158-.031-.699 1.075-1.127 1.852-.285-.038-.572-.066-.859-.084-.269-.845-.583-2.037-.744-2.037" opacity=".1"/>
  <path d="m25 10c-.16 0-.472 1.181-.74 2.025-.289.021-.577.053-.863.096-.428-.776-.969-1.883-1.127-1.852-.157.031-.236 1.254-.334 2.135-.278.077-.553.163-.824.26-.572-.678-1.32-1.659-1.469-1.598-.148.061.016 1.277.092 2.16-.259.129-.513.267-.762.414-.693-.553-1.616-1.371-1.75-1.281-.134.089.266 1.25.512 2.102-.229.177-.451.362-.666.555-.788-.407-1.855-1.03-1.969-.916-.114.114.507 1.178.914 1.965-.19.217-.373.441-.547.672-.852-.246-2.02-.648-2.107-.514-.089.134.726 1.055 1.279 1.748-.145.25-.28.504-.406.764-.883-.075-2.104-.24-2.166-.092-.062.149.918.895 1.596 1.467-.271.786-.459 1.599-.563 2.424-1.669-1.033-1.436-3.447-5.1-3.533.5 1.5 1 3 1 4.5 0 1.5-.5 4-1 5.5 2.459 0 2.934-2.33 5.217-2.814.107.578.257 1.147.447 1.703-.678.572-1.659 1.32-1.598 1.469.061.148 1.277-.016 2.16-.092.129.259.267.513.414.762-.553.693-1.371 1.616-1.281 1.75.089.134 1.25-.266 2.102-.512.177.229.362.451.555.666-.407.788-1.03 1.855-.916 1.969.114.114 1.178-.507 1.965-.914.217.19.441.373.672.547-.246.852-.648 2.02-.514 2.107.134.089 1.055-.726 1.748-1.279.25.145.504.28.764.406-.075.883-.24 2.104-.092 2.166.149.062.895-.918 1.467-1.596.272.093.548.177.826.25.099.881.176 2.111.334 2.143.158.031.699-1.075 1.127-1.852.285.038.572.066.859.084.269.845.583 2.037.744 2.037.16 0 .472-1.181.74-2.025.289-.021.577-.053.863-.096.428.776.969 1.883 1.127 1.852.157-.031.236-1.254.334-2.135.278-.077.553-.163.824-.26.572.678 1.32 1.659 1.469 1.598.148-.061-.016-1.277-.092-2.16.259-.129.513-.267.762-.414.693.553 1.616 1.371 1.75 1.281.134-.089-.266-1.25-.512-2.102.229-.177.451-.362.666-.555.788.407 1.855 1.03 1.969.916.114-.114-.507-1.178-.914-1.965.19-.217.373-.441.547-.672.852.246 2.02.648 2.107.514.089-.134-.726-1.055-1.279-1.748.374-.646.687-1.325.936-2.029h.703c1.108 0 2-.892 2-2 0-1.108-.892-2-2-2 1.108 0 2-.892 2-2 0-1.108-.892-2-2-2h-.713c-.246-.703-.556-1.382-.928-2.027.553-.693 1.371-1.616 1.281-1.75-.089-.134-1.25.266-2.102.512-.177-.229-.362-.451-.555-.666.407-.788 1.03-1.855.916-1.969-.114-.114-1.178.507-1.965.914-.217-.19-.441-.373-.672-.547.246-.852.648-2.02.514-2.107-.134-.089-1.055.726-1.748 1.279-.25-.145-.504-.28-.764-.406.075-.883.24-2.104.092-2.166-.149-.062-.895.918-1.467 1.596-.272-.093-.548-.177-.826-.25-.099-.881-.176-2.111-.334-2.143-.158-.031-.699 1.075-1.127 1.852-.285-.038-.572-.066-.859-.084-.269-.845-.583-2.037-.744-2.037" fill="url(#b)"/>
  <path d="m32 18a2 3 0 0 0-2 3 2 3 0 0 0  .06.725c.93.345 2.05.968 2.758 2.009a2 3 0 0 0 1.182-2.734 2 3 0 0 0-2-3z" fill="#ececec"/>
  <circle cx="32" cy="21" fill="#565656" r="1"/>
  <path d="m32 17c1.422 0 2 2 2 3 0 0-1-1-2-1-1 0-2 1-2 1 0-1 .578-3 2-3z" fill="#dec86e"/>
</svg>
