<svg xmlns="http://www.w3.org/2000/svg" viewBox="0 0 48 48">
 <defs>
  <linearGradient id="linearGradient3764" x1="1" x2="47" gradientUnits="userSpaceOnUse" gradientTransform="matrix(0,-1,1,0,-1.5e-6,47.999998)">
   <stop style="stop-color:#c6e8f6;stop-opacity:1"/>
   <stop offset="1" style="stop-color:#d7eff9;stop-opacity:1"/>
  </linearGradient>
 </defs>
 <g>
  
  
  
 </g>
 <g>
  <path d="m 47,24 C 47,46.703 46.703,47 24,47 1.297,47 1,46.703 1,24 1,1.297 1.297,1 24,1 46.703,1 47,1.297 47,24 z" style="fill:url(#linearGradient3764);fill-opacity:1"/>
 </g>
 <g>
  
 </g>
 <path d="m 25 10 c -5.08 0.002 -9.813 2.582 -12.574 6.846 1.066 -0.389 2.692 -0.846 3.574 -0.846 2.619 0 1.671 4 0.5 7.4 2.5 -4.4 6.5 -7.4 8.5 -7.4 3 0 2.999 2 1.699 7.301 1.867 -3.3 5.858 -7.301 8.301 -7.301 6 0 -1.016 14.456 0.5 15 0.854 0.306 2.342 -1.773 4.104 -2.635 0.259 -1.103 0.396 -2.232 0.396 -3.365 0.004 -8.284 -6.716 -15 -15 -15 z m -12.859 7.313 c -1.395 2.322 -2.137 4.979 -2.141 7.688 -0.002 1.373 0.19 2.739 0.563 4.061 1.098 -4.391 2.639 -9.308 1.578 -11.748 z m 10.04 3.1 c -1.687 -0.006 -5.607 6.03 -8.828 14.03 2.846 3.512 7.124 5.558 11.645 5.557 5.698 -0.002 10.9 -3.242 13.426 -8.35 -1.67 1.801 -3.615 3.35 -5.426 3.35 -6 0 1 -14 -0.5 -14.5 -1.667 -0.556 -7.191 7.5 -8 13.5 -0.5 0.616 -1.16 1 -2.5 1 -1.34 0 -2 -0.633 -2.5 -1.25 1.143 -4.75 3.816 -12.738 3 -13.25 -0.094 -0.059 -0.2 -0.087 -0.316 -0.088 z" style="fill:#000;opacity:0.1;fill-opacity:1;stroke:none"/>
 <path d="m 24 9 c -5.08 0.002 -9.813 2.582 -12.574 6.846 1.066 -0.389 2.692 -0.846 3.574 -0.846 2.619 0 1.671 4 0.5 7.4 2.5 -4.4 6.5 -7.4 8.5 -7.4 3 0 2.999 2 1.699 7.301 1.867 -3.3 5.858 -7.301 8.301 -7.301 6 0 -1.016 14.456 0.5 15 0.854 0.306 2.342 -1.773 4.104 -2.635 0.259 -1.103 0.396 -2.232 0.396 -3.365 0.004 -8.284 -6.716 -15 -15 -15 z m -12.859 7.313 c -1.395 2.322 -2.137 4.979 -2.141 7.688 -0.002 1.373 0.19 2.739 0.563 4.061 1.098 -4.391 2.639 -9.308 1.578 -11.748 z m 10.04 3.1 c -1.687 -0.006 -5.607 6.03 -8.828 14.03 2.846 3.512 7.124 5.558 11.645 5.557 5.698 -0.002 10.9 -3.242 13.426 -8.35 -1.67 1.801 -3.615 3.35 -5.426 3.35 -6 0 1 -14 -0.5 -14.5 -1.667 -0.556 -7.191 7.5 -8 13.5 -0.5 0.616 -1.16 1 -2.5 1 -1.34 0 -2 -0.633 -2.5 -1.25 1.143 -4.75 3.816 -12.738 3 -13.25 -0.094 -0.059 -0.2 -0.087 -0.316 -0.088 z" style="fill:#10a3e0;opacity:1;fill-opacity:1;stroke:none"/>
</svg>
