<svg viewBox="0 0 48 48" xmlns="http://www.w3.org/2000/svg" xmlns:xlink="http://www.w3.org/1999/xlink">
  <linearGradient id="a" gradientTransform="matrix(0 -1 1 0 -.0000015 47.999998)" gradientUnits="userSpaceOnUse" x1="1" x2="47">
    <stop offset="0" stop-color="#e4e4e4"/>
    <stop offset="1" stop-color="#eee"/>
  </linearGradient>
  <path d="m47 24c0 22.703-.297 23-23 23-22.703 0-23-.297-23-23 0-22.703.297-23 23-23 22.703 0 23 .297 23 23z" fill="url(#a)"/>
  <path d="m17 12l-2.154 4h20.309l-2.154-4h-16m-4.846 9l-2.154 4 2.121 3.939 15.879-7.939zm25.691 0l-15.846 8h15.846l2.154-4zm-23 13l2.154 4h16l2.154-4h-20.309z" opacity=".1"/>
  <path d="m16 11l-2.154 4h20.309l-2.154-4h-16m-4.846 9l-2.154 4 2.121 3.939 15.879-7.939zm25.691 0l-15.846 8h15.846l2.154-4zm-23 13l2.154 4h16l2.154-4h-20.309z" fill="#0af"/>
</svg>
