<svg viewBox="0 0 48 48" xmlns="http://www.w3.org/2000/svg" xmlns:xlink="http://www.w3.org/1999/xlink">
  <linearGradient id="a" gradientTransform="matrix(0 -1 1 0 -.0000015 47.999998)" gradientUnits="userSpaceOnUse" x1="1" x2="47">
    <stop offset="0" stop-color="#333"/>
    <stop offset="1" stop-color="#3d3d3d"/>
  </linearGradient>
  <radialGradient id="b" cx="23.99999908" cy="24.00000188" gradientUnits="userSpaceOnUse" r="13.99999905">
    <stop offset="0" stop-color="#ee1412"/>
    <stop offset="1" stop-color="#cd450f"/>
  </radialGradient>
  <path d="m24 1c22.703 0 23 .297 23 23 0 22.703-.297 23-23 23-22.703 0-23-.297-23-23 0-22.703.297-23 23-23z" fill="url(#a)" transform="translate(.015625 .09375)"/>
  <path d="m25 11a14 14 0 0 0-7.473 2.166c-2.486-1.15-5.066-1.787-6.225-.275-.863 1.126.249 3.056 1.746 4.852a14 14 0 0 0-2.048 7.257 14 14 0 0 0  14 14 14 14 0 0 0  14-14 14 14 0 0 0-2.045-7.262c1.495-1.794 2.605-3.722 1.742-4.848-1.16-1.514-3.748-.873-6.238.281a14 14 0 0 0-7.459-2.171" opacity=".1"/>
  <path d="m24 10a14 14 0 0 0-7.473 2.166c-2.487-1.146-5.066-1.787-6.224-.275-.863 1.129.249 3.056 1.747 4.851a14 14 0 0 0-2.05 7.258 14 14 0 0 0  14 14 14 14 0 0 0  14-14 14 14 0 0 0-2.045-7.262c1.495-1.794 2.605-3.718 1.742-4.847-1.16-1.515-3.748-.871-6.238.281a14 14 0 0 0-7.459-2.172z" fill="url(#b)"/>
</svg>
