<svg viewBox="0 0 48 48" xmlns="http://www.w3.org/2000/svg" xmlns:xlink="http://www.w3.org/1999/xlink">
  <linearGradient id="a" gradientUnits="userSpaceOnUse" x1="1" x2="47">
    <stop offset="0" stop-color="#00abec"/>
    <stop offset="1" stop-color="#01b9ff"/>
  </linearGradient>
  <path d="m24 1c22.703 0 23 .297 23 23 0 22.703-.297 23-23 23-22.703 0-23-.297-23-23 0-22.703.297-23 23-23z" fill="url(#a)" transform="matrix(0 -1 1 0 0 48)"/>
  <g opacity=".1" transform="translate(1 1)">
    <path d="m34 14v9h-9v-9m9 0"/>
    <path d="m14 14h9v9h-9m0-9"/>
    <path d="m23 25.02v9h-9v-9m9 0"/>
    <path d="m25.02 25.02h9v9h-9m0-9"/>
  </g>
  <path d="m34 14v9h-9v-9m9 0" fill="#f9f9f9"/>
  <path d="m14 14h9v9h-9m0-9" fill="#f9f9f9"/>
  <path d="m23 25.02v9h-9v-9m9 0" fill="#f9f9f9"/>
  <path d="m25.02 25.02h9v9h-9m0-9" fill="#f9f9f9"/>
</svg>
