<svg viewBox="0 0 48 48" xmlns="http://www.w3.org/2000/svg" xmlns:xlink="http://www.w3.org/1999/xlink">
  <linearGradient id="a" gradientTransform="matrix(0 -1 1 0 -.0000015 47.999998)" gradientUnits="userSpaceOnUse" x1="1" x2="47">
    <stop offset="0" stop-color="#c6e8f6"/>
    <stop offset="1" stop-color="#d7eff9"/>
  </linearGradient>
  <path d="m47 24c0 22.703-.297 23-23 23-22.703 0-23-.297-23-23 0-22.703.297-23 23-23 22.703 0 23 .297 23 23z" fill="url(#a)"/>
  <path d="m25 10c-5.08.002-9.813 2.582-12.574 6.846 1.066-.389 2.692-.846 3.574-.846 2.619 0 1.671 4 .5 7.4 2.5-4.4 6.5-7.4 8.5-7.4 3 0 2.999 2 1.699 7.301 1.867-3.3 5.858-7.301 8.301-7.301 6 0-1.016 14.456.5 15 .854.306 2.342-1.773 4.104-2.635.259-1.103.396-2.232.396-3.365.004-8.284-6.716-15-15-15zm-12.859 7.313c-1.395 2.322-2.137 4.979-2.141 7.688-.002 1.373.19 2.739.563 4.061 1.098-4.391 2.639-9.308 1.578-11.748zm10.04 3.1c-1.687-.006-5.607 6.03-8.828 14.03 2.846 3.512 7.124 5.558 11.645 5.557 5.698-.002 10.9-3.242 13.426-8.35-1.67 1.801-3.615 3.35-5.426 3.35-6 0 1-14-.5-14.5-1.667-.556-7.191 7.5-8 13.5-.5.616-1.16 1-2.5 1-1.34 0-2-.633-2.5-1.25 1.143-4.75 3.816-12.738 3-13.25-.094-.059-.2-.087-.316-.088z" opacity=".1"/>
  <path d="m24 9c-5.08.002-9.813 2.582-12.574 6.846 1.066-.389 2.692-.846 3.574-.846 2.619 0 1.671 4 .5 7.4 2.5-4.4 6.5-7.4 8.5-7.4 3 0 2.999 2 1.699 7.301 1.867-3.3 5.858-7.301 8.301-7.301 6 0-1.016 14.456.5 15 .854.306 2.342-1.773 4.104-2.635.259-1.103.396-2.232.396-3.365.004-8.284-6.716-15-15-15zm-12.859 7.313c-1.395 2.322-2.137 4.979-2.141 7.688-.002 1.373.19 2.739.563 4.061 1.098-4.391 2.639-9.308 1.578-11.748zm10.04 3.1c-1.687-.006-5.607 6.03-8.828 14.03 2.846 3.512 7.124 5.558 11.645 5.557 5.698-.002 10.9-3.242 13.426-8.35-1.67 1.801-3.615 3.35-5.426 3.35-6 0 1-14-.5-14.5-1.667-.556-7.191 7.5-8 13.5-.5.616-1.16 1-2.5 1-1.34 0-2-.633-2.5-1.25 1.143-4.75 3.816-12.738 3-13.25-.094-.059-.2-.087-.316-.088z" fill="#10a3e0"/>
</svg>
