<svg xmlns="http://www.w3.org/2000/svg" viewBox="0 0 48 48">
 <defs>
  <linearGradient id="linearGradient3764" x1="1" x2="47" gradientUnits="userSpaceOnUse" gradientTransform="matrix(0,-1,1,0,-1.5e-6,47.999998)">
   <stop style="stop-color:#8cd644;stop-opacity:1"/>
   <stop offset="1" style="stop-color:#97da54;stop-opacity:1"/>
  </linearGradient>
 </defs>
 <g>
  
  
  
 </g>
 <g>
  <path d="m 47,24 C 47,46.703 46.703,47 24,47 1.297,47 1,46.703 1,24 1,1.297 1.297,1 24,1 46.703,1 47,1.297 47,24 z" style="fill:url(#linearGradient3764);fill-opacity:1"/>
 </g>
 <g>
  <g>
   <g transform="translate(1,1)">
    <g style="opacity:0.1">
     <!-- color: #97da54 -->
     <g>
      <path d="m 23.883 29.457 0 2.16 5.145 0 c 1.207 0 2.262 -0.449 3.121 -1.32 l 0.008 0 c 0.73 -0.75 1.152 -1.645 1.258 -2.656 l 0 -1.227 -2.188 0 0 0.84 c 0 1.207 -1.145 2.215 -2.613 2.215 l -4.727 -0.012 m -0.004 0" style="fill:#000;fill-opacity:0.192;stroke:none;fill-rule:evenodd"/>
     </g>
    </g>
   </g>
  </g>
 </g>
 <g>
  <g>
   <!-- color: #97da54 -->
  </g>
 </g>
 <g>
  
 </g>
 <path d="m 11 13 0 8 3 0 0 7 c 0 4.986 4.01 9 9 9 l 15 0 0 -15 c 0 -4.986 -4.01 -9 -9 -9 z m 2 2 16 0 c 3.878 0 7 3.122 7 7 l 0 11 c 0 1.108 -0.892 2 -2 2 l -11 0 c -3.878 0 -7 -3.122 -7 -7 l 0 -8 c 0 -0.552 -0.448 -1 -1 -1 l -2 0 z m 5 2 0 11 c 0 2.77 2.23 5 5 5 l 6 0 c 2.77 0 5 -2.23 5 -5 l 0 -1 0 -4.5 c 0 -1.933 -1.567 -3.501 -3.5 -3.5 -0.94 0 -1.841 0.381 -2.498 1.053 c -0.658 -0.673 -1.56 -1.053 -2.502 -1.053 -1.933 0 -3.5 1.567 -3.5 3.5 l 0 4.5 2 0 0 -4.5 c 0 -0.831 0.669 -1.5 1.5 -1.5 0.831 0 1.5 0.669 1.5 1.5 l 0 4.5 2 0 0 -4.5 c 0 -0.831 0.669 -1.5 1.5 -1.5 0.831 0 1.5 0.669 1.5 1.5 l 0 4.5 0 1 c 0 1.662 -1.338 3 -3 3 l -6 0 c -1.662 0 -3 -1.338 -3 -3 l 0 -11 z" style="fill:#000;opacity:0.1;fill-opacity:1;stroke:none"/>
 <path d="m 10 12 0 8 3 0 0 7 c 0 4.986 4.01 9 9 9 l 15 0 0 -15 c 0 -4.986 -4.01 -9 -9 -9 l -18 0 z m 2 2 16 0 c 3.878 0 7 3.122 7 7 l 0 11 c 0 1.108 -0.892 2 -2 2 l -11 0 c -3.878 0 -7 -3.122 -7 -7 l 0 -8 a 1 1 0 0 0 -1 -1 l -2 0 0 -4 z" style="fill:#f9f9f9;opacity:1;fill-opacity:1;stroke:none"/>
 <path d="m 17 16 0 11 c 0 2.77 2.23 5 5 5 l 2 0 0 -2 -2 0 c -1.662 0 -3 -1.338 -3 -3 l 0 -11 -2 0 z m 7.5 2 c -1.933 0 -3.5 1.567 -3.5 3.5 l 0 4.5 2 0 0 -4.5 c 0 -0.831 0.669 -1.5 1.5 -1.5 0.831 0 1.5 0.669 1.5 1.5 l 0 4.5 2 0 0 -4.5 c 0 -0.831 0.669 -1.5 1.5 -1.5 0.831 0 1.5 0.669 1.5 1.5 l 0 4.5 2 0 0 -4.5 c 0 -1.933 -1.567 -3.501 -3.5 -3.5 -0.94 0 -1.841 0.381 -2.498 1.053 c -0.658 -0.673 -1.56 -1.053 -2.502 -1.053" style="fill:#f9f9f9;opacity:1;fill-opacity:1;stroke:none"/>
 <path d="m 31 26 0 1 c 0 1.662 -1.338 3 -3 3 l -4 0 0 2 4 0 c 2.77 0 5 -2.23 5 -5 l 0 -1 -2 0 z" style="fill:#c6c6c6;opacity:1;fill-opacity:1;stroke:none"/>
</svg>
