<svg viewBox="0 0 48 48" xmlns="http://www.w3.org/2000/svg" xmlns:xlink="http://www.w3.org/1999/xlink">
  <linearGradient id="a" gradientTransform="matrix(0 -1 1 0 -.0000015 47.999998)" gradientUnits="userSpaceOnUse" x1="1" x2="47">
    <stop offset="0" stop-color="#589dde"/>
    <stop offset="1" stop-color="#69a7e1"/>
  </linearGradient>
  <path d="m47 24c0 22.703-.297 23-23 23-22.703 0-23-.297-23-23 0-22.703.297-23 23-23 22.703 0 23 .297 23 23z" fill="url(#a)"/>
  <path d="m35 15l-24 6 11 5 5 13z" opacity=".1"/>
  <path d="m34 14l-24 6 11 5 5 13z" fill="#f9f9f9"/>
  <path d="m31 17l-15.5 3.5 7 2.900391c3.5-.400391 6.5-3.400391 8.5-6.400391z" fill="#c9cacd"/>
  <path d="m31 17l-5 15.1-3.5-8.7" fill="#2a3b44"/>
</svg>
