<svg xmlns="http://www.w3.org/2000/svg" viewBox="0 0 48 48">
 <defs>
  <linearGradient id="linearGradient3764" x1="1" x2="47" gradientUnits="userSpaceOnUse" gradientTransform="matrix(0,-1,1,0,-1.5e-6,47.999998)">
   <stop style="stop-color:#c8d034;stop-opacity:1"/>
   <stop offset="1" style="stop-color:#ccd444;stop-opacity:1"/>
  </linearGradient>
 </defs>
 <g>
  
  
  
 </g>
 <g>
  <path d="m 47,24 C 47,46.703 46.703,47 24,47 1.297,47 1,46.703 1,24 1,1.297 1.297,1 24,1 46.703,1 47,1.297 47,24 z" style="fill:url(#linearGradient3764);fill-opacity:1"/>
 </g>
 <g>
  
 </g>
 <path d="m 13 15 c -1 0 -2 1 -2 2 0 2.45 2.511 5 6 5 l 6 0 0 2 -10 0 c -1 0 -2 0 -2 1 0 3 4 3 5.5 3 3.5 0 3.5 -2 6.5 -2 l 0 1 1 1 0 10 1 1 1 -1 0 -10 1 -1 0 -1 c 3 0 3 2 6.5 2 1.5 0 5.5 0 5.5 -3 0 -1 -1 -1 -2 -1 l -10 0 0 -2 6 0 c 3.489 0 6 -2.55 6 -5 0 -1 -1 -2 -2 -2 -3 0 -6 5 -10 5 l -0.5 -1 c 0.831 0 1.5 -0.669 1.5 -1.5 0 -0.831 -0.669 -1.5 -1.5 -1.5 l -3 0 c -0.831 0 -1.5 0.669 -1.5 1.5 0 0.831 0.669 1.5 1.5 1.5 l -0.5 1 c -4 0 -7 -5 -10 -5 z" style="fill:#000;opacity:0.1;fill-opacity:1;stroke:none"/>
 <path d="m 23 26 2 0 0 11 -1 1 -1 -1 z" style="fill:#d03724;opacity:1;fill-opacity:1;stroke:none"/>
 <rect width="6" height="3" x="21" y="15" rx="1.5" style="fill:#ce9126;opacity:1;fill-opacity:1;stroke:none"/>
 <path d="m 22 19 2 -4 2 4 0 7 -1 1 -2 0 -1 -1 z" style="fill:#bc2025;opacity:1;fill-opacity:1;stroke:none"/>
 <path d="m 12 14 c -1 0 -2 1 -2 2 0 2.45 2.511 5 6 5 l 6 0 0 -2 c -4 0 -7 -5 -10 -5 z m 24 0 c -3 0 -6 5 -10 5 l 0 2 6 0 c 3.489 0 6 -2.55 6 -5 0 -1 -1 -2 -2 -2 z m -24 9 c -1 0 -2 0 -2 1 0 3 4 3 5.5 3 3.5 0 3.5 -2 6.5 -2 l 0 -2 z m 14 0 0 2 c 3 0 3 2 6.5 2 1.5 0 5.5 0 5.5 -3 0 -1 -1 -1 -2 -1 z" style="fill:#d6e2e6;opacity:1;fill-opacity:1;stroke:none"/>
 <path d="m 21.502 15.385 c -0.307 0.274 -0.502 0.67 -0.502 1.115 c 0 0.446 0.195 0.841 0.502 1.115 a 1.5 1.5 0 0 0 0.498 -1.115 a 1.5 1.5 0 0 0 -0.498 -1.115 z m 4.996 0 a 1.5 1.5 0 0 0 -0.498 1.115 a 1.5 1.5 0 0 0 0.498 1.115 c 0.307 -0.274 0.502 -0.67 0.502 -1.115 c 0 -0.446 -0.195 -0.841 -0.502 -1.115 z" style="fill:#000;opacity:1;fill-opacity:0.502;stroke:none"/>
</svg>
