<svg viewBox="0 0 48 48" xmlns="http://www.w3.org/2000/svg" xmlns:xlink="http://www.w3.org/1999/xlink">
  <linearGradient id="a" gradientTransform="matrix(0 -1 1 0 -.0000015 47.999998)" gradientUnits="userSpaceOnUse" x1="1" x2="47">
    <stop offset="0" stop-color="#ca4212"/>
    <stop offset="1" stop-color="#dd4814"/>
  </linearGradient>
  <path d="m47 24c0 22.703-.297 23-23 23-22.703 0-23-.297-23-23 0-22.703.297-23 23-23 22.703 0 23 .297 23 23z" fill="url(#a)"/>
  <g transform="matrix(1.25 0 0 1.25 -6 -6)">
    <path d="m24.8 12.8c-6.629 0-12 5.371-12 12 0 6.625 5.375 12 12 12 6.625 0 12-5.371 12-12 0-6.629-5.371-12-12-12zm4 3.472a1.6 1.6 0 0 1 1.6 1.6 1.6 1.6 0 0 1-1.6 1.6 1.6 1.6 0 0 1-1.6-1.6 1.6 1.6 0 0 1  1.6-1.6zm-4 1.328a7.2 7.2 0 0 1 1.603.189 2.4 2.4 0 0 0-.003.083 2.4 2.4 0 0 0  2.4 2.4 2.4 2.4 0 0 0  1.266-.364 7.2 7.2 0 0 1  1.886 4.092h-2.42a4.8 4.8 0 0 0-4.731-4 4.8 4.8 0 0 0-1.672.305l-1.211-2.097a7.2 7.2 0 0 1 2.883-.608m-4.266 1.409l1.209 2.095a4.8 4.8 0 0 0-1.744 3.695 4.8 4.8 0 0 0  1.742 3.698l-1.208 2.092a7.2 7.2 0 0 1-2.611-3.672 2.4 2.4 0 0 0  1.277-2.119 2.4 2.4 0 0 0-1.27-2.116 7.2 7.2 0 0 1  2.605-3.675zm-3.734 4.191a1.6 1.6 0 0 1 1.6 1.6 1.6 1.6 0 0 1-1.6 1.6 1.6 1.6 0 0 1-1.6-1.6 1.6 1.6 0 0 1  1.6-1.6zm12.728 2.4h2.419a7.2 7.2 0 0 1-1.88 4.092 2.4 2.4 0 0 0-1.267-.364 2.4 2.4 0 0 0-2.4 2.4 2.4 2.4 0 0 0  .005.083 7.2 7.2 0 0 1-1.605.189 7.2 7.2 0 0 1-2.881-.611l1.211-2.095a4.8 4.8 0 0 0 1.67.306 4.8 4.8 0 0 0  4.728-4zm-.728 4.528a1.6 1.6 0 0 1 1.6 1.6 1.6 1.6 0 0 1-1.6 1.6 1.6 1.6 0 0 1-1.6-1.6 1.6 1.6 0 0 1  1.6-1.6z" opacity=".1"/>
    <path d="m24 9c-8.286 0-15 6.714-15 15 0 8.281 6.719 15 15 15 8.281 0 15-6.714 15-15 0-8.286-6.714-15-15-15zm5 4.34a2 2 0 0 1 2 2 2 2 0 0 1-2 2 2 2 0 0 1-2-2 2 2 0 0 1  2-2zm-5 1.66a9 9 0 0 1 2 .236 3 3 0 0 0-.004.104 3 3 0 0 0  3 3 3 3 0 0 0  1.582-.455 9 9 0 0 1  2.357 5.115h-3.03a6 6 0 0 0-5.914-5 6 6 0 0 0-2.09.381l-1.514-2.621a9 9 0 0 1 3.604-.76zm-5.332 1.762l1.512 2.619a6 6 0 0 0-2.18 4.619 6 6 0 0 0  2.178 4.623l-1.51 2.615a9 9 0 0 1-3.264-4.59 3 3 0 0 0  1.596-2.648 3 3 0 0 0-1.588-2.645 9 9 0 0 1  3.256-4.594zm-4.668 5.238a2 2 0 0 1 2 2 2 2 0 0 1-2 2 2 2 0 0 1-2-2 2 2 0 0 1  2-2zm15.91 3h3.02a9 9 0 0 1-2.35 5.115 3 3 0 0 0-1.584-.455 3 3 0 0 0-3 3 3 3 0 0 0  .006.104 9 9 0 0 1-2.01.236 9 9 0 0 1-3.602-.764l1.514-2.619a6 6 0 0 0 2.088.383 6 6 0 0 0  5.91-5zm-.91 5.66a2 2 0 0 1 2 2 2 2 0 0 1-2 2 2 2 0 0 1-2-2 2 2 0 0 1  2-2z" fill="#f9f9f9" transform="matrix(.8 0 0 .8 4.8 4.8)"/>
  </g>
</svg>
