<svg viewBox="0 0 48 48" xmlns="http://www.w3.org/2000/svg" xmlns:xlink="http://www.w3.org/1999/xlink">
  <linearGradient id="a" gradientTransform="matrix(0 -1 1 0 -.0000015 47.999998)" gradientUnits="userSpaceOnUse" x1="1" x2="47">
    <stop offset="0" stop-color="#e41c1c"/>
    <stop offset="1" stop-color="#e62e2e"/>
  </linearGradient>
  <path d="m47 24c0 22.703-.297 23-23 23-22.703 0-23-.297-23-23 0-22.703.297-23 23-23 22.703 0 23 .297 23 23z" fill="url(#a)"/>
  <path d="m16.5 18c-1.625 0-5.5 2.625-5.5 7 0 3.281 2 5 4.5 5 1.662 0 1.5-1 3-1 2.02 0 1.5 1 3.5 1 1.197 0 2-1.49 2-3 0-1.51-.803-3-2-3-3.966 0-4.333 3-6.5 3-2.167 0-2.5-1.406-2.5-2.5 0-3.49 5-6.5 3.5-6.5m17 0c-1.5 0 3.5 3.01 3.5 6.5 0 1.094-.333 2.5-2.5 2.5-2.167 0-2.534-3-6.5-3-1.197 0-2 1.49-2 3 0 1.51.803 3 2 3 2 0 1.481-1 3.5-1 1.5 0 1.338 1 3 1 2.5 0 4.5-1.719 4.5-5 0-4.375-3.875-7-5.5-7z" opacity=".1"/>
  <path d="m15.5 17c-1.625 0-5.5 2.625-5.5 7 0 3.281 2 5 4.5 5 1.662 0 1.5-1 3-1 2.02 0 1.5 1 3.5 1 1.197 0 2-1.49 2-3 0-1.51-.803-3-2-3-3.966 0-4.333 3-6.5 3-2.167 0-2.5-1.406-2.5-2.5 0-3.49 5-6.5 3.5-6.5m17 0c-1.5 0 3.5 3.01 3.5 6.5 0 1.094-.333 2.5-2.5 2.5-2.167 0-2.534-3-6.5-3-1.197 0-2 1.49-2 3 0 1.51.803 3 2 3 2 0 1.481-1 3.5-1 1.5 0 1.338 1 3 1 2.5 0 4.5-1.719 4.5-5 0-4.375-3.875-7-5.5-7z" fill="#f1e43b"/>
</svg>
