<svg viewBox="0 0 48 48" xmlns="http://www.w3.org/2000/svg" xmlns:xlink="http://www.w3.org/1999/xlink">
  <linearGradient id="a" gradientTransform="matrix(0 -1 1 0 -.0000015 47.999998)" gradientUnits="userSpaceOnUse" x1="1" x2="47">
    <stop offset="0" stop-color="#42bd0d"/>
    <stop offset="1" stop-color="#49d00e"/>
  </linearGradient>
  <path d="m47 24c0 22.703-.297 23-23 23-22.703 0-23-.297-23-23 0-22.703.297-23 23-23 22.703 0 23 .297 23 23z" fill="url(#a)"/>
  <path d="m25 13c-4.281 0-8.235 2.293-10.375 6h22.375v-6m-23.609 9c-.256.98-.391 1.988-.391 3v3h23.609c.256-.98.391-1.988.391-3v-3zm-.391 9v6h12c4.281 0 8.235-2.293 10.375-6z" opacity=".1"/>
  <path d="m24 12c-4.281 0-8.235 2.293-10.375 6h22.375v-6m-23.609 9c-.256.98-.391 1.988-.391 3v3h23.609c.256-.98.391-1.988.391-3v-3zm-.391 9v6h12c4.281 0 8.235-2.293 10.375-6z" fill="#f9f9f9"/>
</svg>
