<svg xmlns="http://www.w3.org/2000/svg" viewBox="0 0 48 48">
 <defs>
  <linearGradient id="linearGradient3764" x1="1" x2="47" gradientUnits="userSpaceOnUse" gradientTransform="matrix(0,-1,1,0,-1.5e-6,47.999998)">
   <stop style="stop-color:#4e79a6;stop-opacity:1"/>
   <stop offset="1" style="stop-color:#5883b0;stop-opacity:1"/>
  </linearGradient>
 </defs>
 <g>
  
  
  
 </g>
 <g>
  <path d="m 47,24 C 47,46.703 46.703,47 24,47 1.297,47 1,46.703 1,24 1,1.297 1.297,1 24,1 46.703,1 47,1.297 47,24 z" style="fill:url(#linearGradient3764);fill-opacity:1"/>
 </g>
 <g>
  <g>
   <g transform="translate(1,1)">
    <g style="opacity:0.1">
     <!-- color: #abd240 -->
    </g>
   </g>
  </g>
 </g>
 <g>
  <g>
   <!-- color: #abd240 -->
  </g>
 </g>
 <g>
  
 </g>
 <path d="m 21.5 16 c -1.214 0 -2.5 2 -2.5 3.5 -3 1.5 -6 3.5 -6 7.5 l 0 1.7 c -0.606 0.715 -1 1.3 -1 1.8 0 0.276 0.224 0.5 0.5 0.5 c 0.5 0 2.5 -2 3.5 -3 1 0 2 0.5 4 0.5 0 -0.679 -2 -1.02 -2 -1.5 c 2 0 3 -0.5 4 -1.5 1.203 -0.329 2 -1 4 -1 2 0 6.699 1.759 6.699 3 c -0.668 0.5 -0.705 1.344 -0.699 2 c 0.006 0.656 0.57 2.5 2 2.5 -0.498 -1.389 1.253 -2 0.5 -3 0.85 1 2.238 0 3.5 1 0 -2.253 -2.487 -3.545 -4 -3 -3.03 -3.419 -6 -8 -11 -8 l -1.699 0 c -0.742 -2 0.898 -3 0.199 -3" style="fill:#000;opacity:0.1;fill-opacity:1;stroke:none"/>
 <path d="m 20.5 15 c -1.214 0 -2.5 2 -2.5 3.5 -3 1.5 -6 3.5 -6 7.5 l 0 1.7 c -0.606 0.715 -1 1.3 -1 1.8 0 0.276 0.224 0.5 0.5 0.5 c 0.5 0 2.5 -2 3.5 -3 1 0 2 0.5 4 0.5 0 -0.679 -2 -1.02 -2 -1.5 c 2 0 3 -0.5 4 -1.5 1.203 -0.329 2 -1 4 -1 2 0 6.699 1.759 6.699 3 c -0.668 0.5 -0.705 1.344 -0.699 2 c 0.006 0.656 0.57 2.5 2 2.5 -0.498 -1.389 1.253 -2 0.5 -3 0.85 1 2.238 0 3.5 1 0 -2.253 -2.487 -3.545 -4 -3 -3.03 -3.419 -6 -8 -11 -8 l -1.699 0 c -0.742 -2 0.898 -3 0.199 -3" style="fill:#f9f9f9;opacity:1;fill-opacity:1;stroke:none"/>
</svg>
