<svg xmlns="http://www.w3.org/2000/svg" viewBox="0 0 48 48">
 <defs>
  <linearGradient id="linearGradient3764" x1="1" x2="47" gradientUnits="userSpaceOnUse" gradientTransform="matrix(0,-1,1,0,-1.5e-6,47.999998)">
   <stop style="stop-color:#536bb5;stop-opacity:1"/>
   <stop offset="1" style="stop-color:#6177bb;stop-opacity:1"/>
  </linearGradient>
 </defs>
 <g>
  
  
  
 </g>
 <g>
  <path d="m 47,24 C 47,46.703 46.703,47 24,47 1.297,47 1,46.703 1,24 1,1.297 1.297,1 24,1 46.703,1 47,1.297 47,24 z" style="fill:url(#linearGradient3764);fill-opacity:1"/>
 </g>
 <g>
  <g>
   <g transform="translate(1,1)">
    <g style="opacity:0.1">
     <!-- color: #abd240 -->
    </g>
   </g>
  </g>
 </g>
 <g>
  <g>
   <!-- color: #abd240 -->
  </g>
 </g>
 <g>
  
 </g>
 <path d="m 25 11 c -4 0 -9 2 -9 6.5 0 5.5 4.386 6.04 8.416 6.68 2.584 0.412 4.02 0.313 5.742 1.395 1.595 1 1.562 3.495 0.158 4.637 -2.158 1.754 -5.174 1.941 -7.775 1.369 c -1.718 -0.378 -4.166 -1.716 -4.541 -3.58 0 -0.831 -0.669 -1.5 -1.5 -1.5 -0.831 0 -1.5 0.669 -1.5 1.5 l 0 5 c 0 0.831 0.669 1.5 1.5 1.5 0.738 0 1.345 -0.529 1.473 -1.229 3.232 1.94 7.8 2.152 11.357 1.109 2.516 -0.738 4.995 -2.561 5.553 -5.301 0.496 -2.438 -0.62 -5.132 -2.838 -6.279 c -1.959 -1.014 -4.213 -1.178 -6.334 -1.648 -3.298 -0.731 -6.111 -0.83 -6.111 -3.652 0 -2.104 2.4 -3.5 5.4 -3.5 c 2.822 0 5.485 2.139 6 3.5 0 0.831 0.669 1.5 1.5 1.5 0.831 0 1.5 -0.669 1.5 -1.5 l 0 -5 c 0 -0.831 -0.669 -1.5 -1.5 -1.5 -0.791 0 -1.5 0.506 -1.488 1.5 -1.012 -0.853 -4.057 -1.5 -6.01 -1.5 m -13.5 20 c -0.277 0 -0.5 0.223 -0.5 0.5 l 0 7 c 0 0.277 0.223 0.5 0.5 0.5 l 23 0 c 0.277 0 0.5 -0.223 0.5 -0.5 0 -0.277 -0.223 -0.5 -0.5 -0.5 l -22.5 0 0 -6.5 c 0 -0.277 -0.223 -0.5 -0.5 -0.5" mix-blend-mode="normal" isolation="auto" white-space="normal" solid-opacity="1" solid-color="#000000" style="visibility:visible;shape-rendering:auto;color-interpolation-filters:linearRGB;fill:#000;opacity:0.1;image-rendering:auto;fill-opacity:1;stroke:none;display:inline;color:#000;fill-rule:nonzero;color-rendering:auto;color-interpolation:sRGB"/>
 <path d="m 24 10 c -4 0 -9 2 -9 6.5 0 5.5 4.386 6.04 8.416 6.68 c 2.584 0.412 4.02 0.313 5.742 1.395 c 1.595 1 1.562 3.495 0.158 4.637 -2.158 1.754 -5.174 1.941 -7.775 1.369 c -1.718 -0.378 -4.166 -1.716 -4.541 -3.58 c 0 -0.831 -0.669 -1.5 -1.5 -1.5 -0.831 0 -1.5 0.669 -1.5 1.5 l 0 5 c 0 0.831 0.669 1.5 1.5 1.5 0.738 0 1.345 -0.529 1.473 -1.229 3.232 1.94 7.8 2.152 11.357 1.109 2.516 -0.738 4.995 -2.561 5.553 -5.301 0.496 -2.438 -0.62 -5.132 -2.838 -6.279 -1.959 -1.014 -4.213 -1.178 -6.334 -1.648 -3.298 -0.731 -6.111 -0.83 -6.111 -3.652 0 -2.104 2.4 -3.5 5.4 -3.5 2.822 0 5.485 2.139 6 3.5 0 0.831 0.669 1.5 1.5 1.5 0.831 0 1.5 -0.669 1.5 -1.5 l 0 -5 c 0 -0.831 -0.669 -1.5 -1.5 -1.5 -0.791 0 -1.5 0.506 -1.488 1.5 c -1.012 -0.853 -4.057 -1.5 -6.01 -1.5" mix-blend-mode="normal" isolation="auto" white-space="normal" solid-opacity="1" solid-color="#000000" style="visibility:visible;shape-rendering:auto;color-interpolation-filters:linearRGB;fill:#302d41;opacity:1;image-rendering:auto;fill-opacity:1;stroke:none;display:inline;color:#000;fill-rule:nonzero;color-rendering:auto;color-interpolation:sRGB"/>
 <path d="M 10.5,30 C 10.223,30 10,30.223 10,30.5 l 0,7 c 0,0.277 0.223,0.5 0.5,0.5 l 23,0 C 33.777,38 34,37.777 34,37.5 34,37.223 33.777,37 33.5,37 L 11,37 11,30.5 C 11,30.223 10.777,30 10.5,30 Z" style="fill:#302d41;opacity:1;fill-opacity:1;stroke:none"/>
</svg>
