<svg viewBox="0 0 48 48" xmlns="http://www.w3.org/2000/svg" xmlns:xlink="http://www.w3.org/1999/xlink">
  <linearGradient id="a" gradientTransform="matrix(0 -1 1 0 -.0000015 47.999998)" gradientUnits="userSpaceOnUse" x1="1" x2="47">
    <stop offset="0" stop-color="#9891f3"/>
    <stop offset="1" stop-color="#a8a2f5"/>
  </linearGradient>
  <path d="m47 24c0 22.703-.297 23-23 23-22.703 0-23-.297-23-23 0-22.703.297-23 23-23 22.703 0 23 .297 23 23z" fill="url(#a)"/>
  <path d="m21.512 12.01c-5.172.246-9.223 4.918-9.02 7.461.203 2.473 6.492 4.645 6.422 4.719-1.285 1.082-2.137 1.813-3.211 2.793-2.582 2.352-4.367 4.094-3.465 6.543 1.047 2.824 3.328 2.707 6.01 2.184 6.93-1.363 18.316-10.08 17.727-13.297-.477-2.602-6.836-7.746-10.605-9.59-1.176-.574-2.512-.875-3.875-.813m1.086 4.465c.648-.066 1.398.102 2.242.508 1.836.883 3.738 3.23 0 4.566-1.016.355-4.27-.875-4.176-2.586.086-1.586.855-2.395 1.934-2.488m0 0" fill-rule="evenodd" opacity=".1" transform="translate(1 1)"/>
  <path d="m21.512 12.01c-5.172.246-9.223 4.918-9.02 7.461.203 2.473 6.492 4.645 6.422 4.719-1.285 1.082-2.137 1.813-3.211 2.793-2.582 2.352-4.367 4.094-3.465 6.543 1.047 2.824 3.328 2.707 6.01 2.184 6.93-1.363 18.316-10.08 17.727-13.297-.477-2.602-6.836-7.746-10.605-9.59-1.176-.574-2.512-.875-3.875-.813m1.086 4.465c.648-.066 1.398.102 2.242.508 1.836.883 3.738 3.23 0 4.566-1.016.355-4.27-.875-4.176-2.586.086-1.586.855-2.395 1.934-2.488m0 0" fill="#fff" fill-rule="evenodd"/>
</svg>
