<svg viewBox="0 0 48 48" xmlns="http://www.w3.org/2000/svg" xmlns:xlink="http://www.w3.org/1999/xlink">
  <linearGradient id="a" gradientTransform="matrix(0 -1 1 0 -.0000015 47.999998)" gradientUnits="userSpaceOnUse" x1="1" x2="47">
    <stop offset="0" stop-color="#333"/>
    <stop offset="1" stop-color="#3d3d3d"/>
  </linearGradient>
  <path d="m47 24c0 22.703-.297 23-23 23-22.703 0-23-.297-23-23 0-22.703.297-23 23-23 22.703 0 23 .297 23 23z" fill="url(#a)"/>
  <path d="m31.33 15c-.72.07-1.485.199-2.282.371l-5.05 5.281c.579.071 1.109.188 1.593.353zm3.558.297l-6.992 7.304c1.966 2.595 1.274 7.808-2.864 16.4 3.062-3.404 16.634-20.773 10.31-23.507m-9.771.833c-.967.313-1.952.669-2.933 1.047l-3.344 3.493c.767-.127 1.494-.212 2.179-.257zm-5.01 1.879c-6.101 2.556-11.556 5.677-11.556 5.677 3.241-1.237 6.168-2.162 8.722-2.717z" opacity=".1"/>
  <path d="m30.33 14c-.72.07-1.485.199-2.282.371l-5.05 5.281c.579.071 1.109.188 1.593.353zm3.558.297l-6.992 7.304c1.966 2.595 1.274 7.808-2.864 16.4 3.062-3.404 16.634-20.773 10.31-23.507m-9.771.833c-.967.313-1.952.669-2.933 1.047l-3.344 3.493c.767-.127 1.494-.212 2.179-.257zm-5.01 1.879c-6.101 2.556-11.556 5.677-11.556 5.677 3.241-1.237 6.168-2.162 8.722-2.717" fill="#7b7fb1"/>
</svg>
