<svg xmlns="http://www.w3.org/2000/svg" viewBox="0 0 48 48">
 <defs>
  <linearGradient id="linearGradient3764" x1="1" x2="47" gradientUnits="userSpaceOnUse" gradientTransform="matrix(0,-1,1,0,-1.5e-6,47.999998)">
   <stop style="stop-color:#ca4212;stop-opacity:1"/>
   <stop offset="1" style="stop-color:#dd4814;stop-opacity:1"/>
  </linearGradient>
 </defs>
 <g>
  
  
  
 </g>
 <g>
  <path d="m 47,24 C 47,46.703 46.703,47 24,47 1.297,47 1,46.703 1,24 1,1.297 1.297,1 24,1 46.703,1 47,1.297 47,24 z" style="fill:url(#linearGradient3764);fill-opacity:1"/>
 </g>
 <g>
  <g>
   <g transform="translate(1,1)">
    <g style="opacity:0.1">
     <!-- color: #dd4814 -->
    </g>
   </g>
  </g>
 </g>
 <g transform="matrix(1.25,0,0,1.25,-6,-6)">
  <g>
   <!-- color: #dd4814 -->
   <g>
    <path d="m 24.8 12.8 c -6.629 0 -12 5.371 -12 12 0 6.625 5.375 12 12 12 6.625 0 12 -5.371 12 -12 0 -6.629 -5.371 -12 -12 -12 z m 4 3.472 a 1.6 1.6 0 0 1 1.6 1.6 1.6 1.6 0 0 1 -1.6 1.6 1.6 1.6 0 0 1 -1.6 -1.6 1.6 1.6 0 0 1 1.6 -1.6 z m -4 1.328 a 7.2 7.2 0 0 1 1.603 0.189 2.4 2.4 0 0 0 -0.003 0.083 2.4 2.4 0 0 0 2.4 2.4 a 2.4 2.4 0 0 0 1.266 -0.364 7.2 7.2 0 0 1 1.886 4.092 l -2.42 0 a 4.8 4.8 0 0 0 -4.731 -4 4.8 4.8 0 0 0 -1.672 0.305 l -1.211 -2.097 a 7.2 7.2 0 0 1 2.883 -0.608 m -4.266 1.409 1.209 2.095 a 4.8 4.8 0 0 0 -1.744 3.695 a 4.8 4.8 0 0 0 1.742 3.698 l -1.208 2.092 a 7.2 7.2 0 0 1 -2.611 -3.672 2.4 2.4 0 0 0 1.277 -2.119 a 2.4 2.4 0 0 0 -1.27 -2.116 7.2 7.2 0 0 1 2.605 -3.675 z m -3.734 4.191 a 1.6 1.6 0 0 1 1.6 1.6 1.6 1.6 0 0 1 -1.6 1.6 1.6 1.6 0 0 1 -1.6 -1.6 1.6 1.6 0 0 1 1.6 -1.6 z m 12.728 2.4 2.419 0 a 7.2 7.2 0 0 1 -1.88 4.092 2.4 2.4 0 0 0 -1.267 -0.364 a 2.4 2.4 0 0 0 -2.4 2.4 2.4 2.4 0 0 0 0.005 0.083 a 7.2 7.2 0 0 1 -1.605 0.189 7.2 7.2 0 0 1 -2.881 -0.611 l 1.211 -2.095 a 4.8 4.8 0 0 0 1.67 0.306 a 4.8 4.8 0 0 0 4.728 -4 z m -0.728 4.528 a 1.6 1.6 0 0 1 1.6 1.6 1.6 1.6 0 0 1 -1.6 1.6 1.6 1.6 0 0 1 -1.6 -1.6 1.6 1.6 0 0 1 1.6 -1.6 z" style="fill:#000;opacity:0.1;fill-opacity:1;stroke:none;fill-rule:nonzero"/>
    <path d="m 24 9 c -8.286 0 -15 6.714 -15 15 c 0 8.281 6.719 15 15 15 c 8.281 0 15 -6.714 15 -15 c 0 -8.286 -6.714 -15 -15 -15 z m 5 4.34 a 2 2 0 0 1 2 2 a 2 2 0 0 1 -2 2 a 2 2 0 0 1 -2 -2 a 2 2 0 0 1 2 -2 z m -5 1.66 a 9 9 0 0 1 2 0.236 a 3 3 0 0 0 -0.004 0.104 a 3 3 0 0 0 3 3 a 3 3 0 0 0 1.582 -0.455 a 9 9 0 0 1 2.357 5.115 l -3.03 0 a 6 6 0 0 0 -5.914 -5 a 6 6 0 0 0 -2.09 0.381 l -1.514 -2.621 a 9 9 0 0 1 3.604 -0.76 z m -5.332 1.762 l 1.512 2.619 a 6 6 0 0 0 -2.18 4.619 a 6 6 0 0 0 2.178 4.623 l -1.51 2.615 a 9 9 0 0 1 -3.264 -4.59 a 3 3 0 0 0 1.596 -2.648 a 3 3 0 0 0 -1.588 -2.645 a 9 9 0 0 1 3.256 -4.594 z m -4.668 5.238 a 2 2 0 0 1 2 2 a 2 2 0 0 1 -2 2 a 2 2 0 0 1 -2 -2 a 2 2 0 0 1 2 -2 z m 15.91 3 l 3.02 0 a 9 9 0 0 1 -2.35 5.115 a 3 3 0 0 0 -1.584 -0.455 a 3 3 0 0 0 -3 3 a 3 3 0 0 0 0.006 0.104 a 9 9 0 0 1 -2.01 0.236 a 9 9 0 0 1 -3.602 -0.764 l 1.514 -2.619 a 6 6 0 0 0 2.088 0.383 a 6 6 0 0 0 5.91 -5 z m -0.91 5.66 a 2 2 0 0 1 2 2 a 2 2 0 0 1 -2 2 a 2 2 0 0 1 -2 -2 a 2 2 0 0 1 2 -2 z" transform="matrix(0.8,0,0,0.8,4.8,4.8)" style="fill:#f9f9f9;fill-opacity:1;stroke:none;fill-rule:nonzero"/>
   </g>
  </g>
 </g>
 <g>
  
 </g>
</svg>
