<svg viewBox="0 0 48 48" xmlns="http://www.w3.org/2000/svg" xmlns:xlink="http://www.w3.org/1999/xlink">
  <linearGradient id="a" gradientTransform="matrix(0 -1 1 0 -.0000015 47.999998)" gradientUnits="userSpaceOnUse" x1="1" x2="47">
    <stop offset="0" stop-color="#434a81"/>
    <stop offset="1" stop-color="#4a528e"/>
  </linearGradient>
  <path d="m47 24c0 22.703-.297 23-23 23-22.703 0-23-.297-23-23 0-22.703.297-23 23-23 22.703 0 23 .297 23 23z" fill="url(#a)"/>
  <path d="m37 26c0 7.18-5.82 13-13 13-7.18 0-13-5.82-13-13 0-7.18 5.845-12.404 13-13l12-1c0 0 1 10.41 1 14z" opacity=".1"/>
  <path d="m35 11l-22.24 21.988c2.379 3.046 6.076 5.01 10.24 5.01 7.18 0 13-5.82 13-13 0-3.59-1-14-1-14" fill="#a6dff9"/>
  <path d="m35 11l-12 1c-7.155.596-13 5.82-13 13 0 2.942 1.095 5.821 2.743 8 10.655-6.865 18.29-14.413 22.257-22" fill="#e2f4fe"/>
</svg>
