<svg viewBox="0 0 48 48" xmlns="http://www.w3.org/2000/svg" xmlns:xlink="http://www.w3.org/1999/xlink">
  <linearGradient id="a" gradientTransform="matrix(0 -1 1 0 -.0000015 47.999998)" gradientUnits="userSpaceOnUse" x1="1" x2="47">
    <stop offset="0" stop-color="#e89544"/>
    <stop offset="1" stop-color="#ea9f56"/>
  </linearGradient>
  <radialGradient id="b" cx="22" cy="26.08" gradientTransform="matrix(1 0 0 .96296296 0 .88888885)" gradientUnits="userSpaceOnUse" r="13.5">
    <stop offset="0" stop-color="#e9504d"/>
    <stop offset="1" stop-color="#e82a27"/>
  </radialGradient>
  <radialGradient id="c" cx="23" cy="25" gradientUnits="userSpaceOnUse" r="12">
    <stop offset="0" stop-color="#c8cacc"/>
    <stop offset="1" stop-color="#b1b4b7"/>
  </radialGradient>
  <path d="m47 24c0 22.703-.297 23-23 23-22.703 0-23-.297-23-23 0-22.703.297-23 23-23 22.703 0 23 .297 23 23z" fill="url(#a)"/>
  <path d="m27 12c-.452.81-1.293 1.454-2.336 2.033-.221-.017-.442-.028-.664-.033-4.813 0-9.16 2.876-11.04 7.305-.004.008-.01.015-.014.023-.702 1.392-.943 3.02-.943 4.672a12 12 0 0 0 12 12 12 12 0 0 0  12-12c0-1.672 1.562-3.207 3-4.4-1.503-.068-2.486.222-3.471 1.088-.434-1.515-1.162-2.929-2.143-4.162.077-.711.113-1.396.113-2.025 0-2.02-.438-3.926-1-4.5-.378 1.335-1.114 2.604-2.229 3.787-1.141-.703-2.391-1.21-3.699-1.5.268-.67.428-1.426.428-2.287z" opacity=".1"/>
  <path d="m35 25c0 6.627-5.373 11-12 11-6.627 0-12-4.373-12-11 0-6.627 5.373-12 12-12 6.627 0 12 5.373 12 12z" fill="url(#c)"/>
  <path d="m25.758 13.334c-3.256 2.457-10.503 3.409-12.814 7.994-2.823 15.843 20.807 17.17 22.06 3.672-.004-.554-.046-1.108-.127-1.656-.694.782-1.442 1.855-2.416 3.328-2.201 3.328-8.457 5.713-8.457 4.03 0-1.242 4-1.699 6.563-4.838 1.698-2.08 2.473-4.633 2.773-6.93-.75-1.279-1.731-2.407-2.893-3.328-1.395 1.55-3.44 2.953-6.332 4.125-1.933.784-3.98 2.898-4.412 2.271-.694-1 1.204-2.79 2.701-3.613 1.654-.91 3.734-2.307 4.389-4.764-.339-.112-.683-.208-1.031-.289z" opacity=".1"/>
  <path d="m35 25c0 6.627-5.373 12-12 12-6.627 0-12-5.373-12-12 0-1.657.241-3.279.943-4.671 2.687-5.329 12.06-5.747 14.06-9.329 0 3.5-2.611 5.293-4.6 6.387-1.497.823-3.394 2.608-2.7 3.613.433.626 2.478-1.488 4.411-2.272 5-2.028 7.539-4.728 8.389-7.728.563.574 1 2.479 1 4.5 0 2.75-.605 6.504-2.938 9.361-2.562 3.139-6.562 3.597-6.562 4.839 0 1.686 6.256-.7 8.457-4.03 2.705-4.09 3.678-5.202 6.543-5.072-1.438 1.194-3 2.728-3 4.4z" fill="url(#b)"/>
</svg>
