<svg xmlns="http://www.w3.org/2000/svg" viewBox="0 0 48 48">
 <defs>
  <linearGradient id="linearGradient3764" x1="1" x2="47" gradientUnits="userSpaceOnUse" gradientTransform="matrix(0,-1,1,0,-1.5e-6,47.999998)">
   <stop style="stop-color:#e4e4e4;stop-opacity:1"/>
   <stop offset="1" style="stop-color:#eee;stop-opacity:1"/>
  </linearGradient>
 </defs>
 <g>
  
  
  
 </g>
 <g>
  <path d="m 47,24 C 47,46.703 46.703,47 24,47 1.297,47 1,46.703 1,24 1,1.297 1.297,1 24,1 46.703,1 47,1.297 47,24 z" style="fill:url(#linearGradient3764);fill-opacity:1"/>
 </g>
 <g>
  
 </g>
 <g transform="matrix(0.70710678,0.70710678,-0.70710678,0.70710678,24,-9.9411255)">
  <path d="m 14.414 13 0 5.03 1.808 -1.808 5.778 5.778 1.414 0 0 -1.414 -5.778 -5.778 1.808 -1.808 -5.03 0 z m -4.556 11 3.556 3.556 0 -2.555 8.172 -0.001 1 -1 -1 -1 -8.172 -0.001 0 -2.555 -3.556 3.556 z m 4.556 -4.556 0 2.555 6.172 0.001 -4.364 -4.364 -1.808 1.808 z m 4.636 -4.636 4.364 4.364 -0.001 -6.172 -2.555 0 -1.808 1.808 z m 2.808 -2.808 2.555 0 0.001 8.172 1 1 1 -1 0.001 -8.172 2.555 0 -3.556 -3.556 -3.556 3.556 z m -7.444 14 0 2.555 1.808 1.808 4.364 -4.364 -6.172 0.001 z m 13 -13 -0.001 6.172 4.364 -4.364 -1.808 -1.808 -2.555 0 z m -13 16.971 0 5.03 5.03 0 -1.808 -1.808 5.778 -5.778 0 -1.414 -1.414 0 -5.778 5.778 -1.808 -1.808 z m 16.971 -16.971 1.808 1.808 -5.778 5.778 l 0 1.414 1.414 0 5.778 -5.778 1.808 1.808 0 -5.03 -5.03 0 z m -12.334 20.19 1.808 1.808 2.555 0 0.001 -6.172 -4.364 4.364 z m 5.364 -5.364 -0.001 8.172 -2.555 0 3.556 3.556 3.556 -3.556 -2.555 0 -0.001 -8.172 -1 -1 -1 1 z m 3.828 -3.828 1 1 8.172 0.001 0 2.555 3.556 -3.556 -3.556 -3.556 0 2.555 -8.172 0.001 -1 1 z m 2 -2 6.172 -0.001 0 -2.555 -1.808 -1.808 -4.364 4.364 z m -2.828 4 0 1.414 5.778 5.778 -1.808 1.808 5.03 0 0 -5.03 -1.808 1.808 -5.778 -5.778 -1.414 0 z m 0 2.828 0.001 6.172 2.555 0 1.808 -1.808 -4.364 -4.364 z m 2.828 -2.828 4.364 4.364 1.808 -1.808 0 -2.555 -6.172 -0.001 z" style="fill:#000;opacity:0.1;fill-opacity:1;stroke:none"/>
  <path d="m 24 8.443 -3.557 3.557 2.557 0 l 0 8.172 1 1 1 -1 l 0 -8.172 l 2.557 0 z" transform="matrix(0.70710678,-0.70710678,0.70710678,0.70710678,-9.9411255,24)" style="fill:#efa724;opacity:1;fill-opacity:1;stroke:none"/>
  <path d="m 36 20.443 0 2.557 l -8.172 0 -1 1 1 1 l 8.172 0 0 2.557 3.557 -3.557" transform="matrix(0.70710678,-0.70710678,0.70710678,0.70710678,-9.9411255,24)" style="fill:#262577;opacity:1;fill-opacity:1;stroke:none"/>
  <path d="m 24 26.828 -1 1 l 0 8.172 -2.557 0 3.557 3.557 3.557 -3.557 -2.557 0 0 -8.172" transform="matrix(0.70710678,-0.70710678,0.70710678,0.70710678,-9.9411255,24)" style="fill:#9ccd2a;opacity:1;fill-opacity:1;stroke:none"/>
  <path d="m 12 20.443 -3.557 3.557 3.557 3.557 0 -2.557 l 8.172 0 1 -1 -1 -1 l -8.172 0" transform="matrix(0.70710678,-0.70710678,0.70710678,0.70710678,-9.9411255,24)" style="fill:#932279;opacity:1;fill-opacity:1;stroke:none"/>
 </g>
 <path d="m 26 26 l 0 1.414 l 5.777 5.779 l -1.807 1.807 l 5.03 0 l 0 -5.03 l -1.807 1.807 l -5.779 -5.777 l -1.414 0 z m 2.828 0 l 4.365 4.363 l 1.807 -1.807 l 0 -2.557 l -6.172 0 z m -2.828 2.828 l 0 6.172 l 2.557 0 l 1.807 -1.807 l -4.363 -4.365 z" style="fill:#efa724;opacity:1;fill-opacity:1;stroke:none"/>
 <path d="m 13 26 l 0 2.557 l 1.807 1.807 l 4.365 -4.363 l -6.172 0 z m 7.586 0 l -5.779 5.777 l -1.807 -1.807 l 0 5.03 l 5.03 0 l -1.807 -1.807 l 5.777 -5.779 l 0 -1.414 l -1.414 0 z m 1.414 2.828 l -4.363 4.365 l 1.807 1.807 l 2.557 0 l 0 -6.172 z" style="fill:#262577;opacity:1;fill-opacity:1;stroke:none"/>
 <path d="m 26 13 l 0 6.172 l 4.363 -4.365 l -1.807 -1.807 l -2.557 0 z m 3.971 0 l 1.807 1.807 l -5.777 5.779 l 0 1.414 l 1.414 0 l 5.779 -5.777 l 1.807 1.807 l 0 -5.03 l -5.03 0 z m 3.223 4.637 l -4.365 4.363 l 6.172 0 l 0 -2.557 l -1.807 -1.807 z" style="fill:#932279;opacity:1;fill-opacity:1;stroke:none"/>
 <path d="m 13 13 l 0 5.03 l 1.807 -1.807 l 5.779 5.777 l 1.414 0 l 0 -1.414 l -5.777 -5.779 l 1.807 -1.807 l -5.03 0 z m 6.443 0 l -1.807 1.807 l 4.363 4.365 l 0 -6.172 l -2.557 0 z m -4.637 4.637 l -1.807 1.807 l 0 2.557 l 6.172 0 l -4.365 -4.363 z" style="fill:#9ccd2a;opacity:1;fill-opacity:1;stroke:none"/>
</svg>
