<svg viewBox="0 0 48 48" xmlns="http://www.w3.org/2000/svg" xmlns:xlink="http://www.w3.org/1999/xlink">
  <linearGradient id="a" gradientTransform="matrix(0 -1 1 0 -.0000015 47.999998)" gradientUnits="userSpaceOnUse" x1="1" x2="47">
    <stop offset="0" stop-color="#0567a4"/>
    <stop offset="1" stop-color="#0673b6"/>
  </linearGradient>
  <path d="m47 24c0 22.703-.297 23-23 23-22.703 0-23-.297-23-23 0-22.703.297-23 23-23 22.703 0 23 .297 23 23z" fill="url(#a)"/>
  <path d="m25 10a15 15 0 0 0-15 15 15 15 0 0 0  15 15 15 15 0 0 0  14.32-10.547 11.5 11.5 0 0 1-9.82 5.547 11.5 11.5 0 0 1-11.5-11.5 11.5 11.5 0 0 1  11.5-11.5 11.5 11.5 0 0 1  4.229.816 15 15 0 0 0-8.729-2.816m4.5 4a9.5 9.5 0 0 0-9.5 9.5 9.5 9.5 0 0 0  9.5 9.5 9.5 9.5 0 0 0  9.5-9.5 9.5 9.5 0 0 0-9.5-9.5m0 2a7.5 7.5 0 0 1 7.5 7.5 7.5 7.5 0 0 1-7.5 7.5 7.5 7.5 0 0 1-7.5-7.5 7.5 7.5 0 0 1  7.5-7.5" opacity=".1"/>
  <path d="m24 9a15 15 0 0 0-15 15 15 15 0 0 0  15 15 15 15 0 0 0  14.32-10.547 11.5 11.5 0 0 1-9.82 5.547 11.5 11.5 0 0 1-11.5-11.5 11.5 11.5 0 0 1  11.5-11.5 11.5 11.5 0 0 1  4.229.816 15 15 0 0 0-8.729-2.816m4.5 4a9.5 9.5 0 0 0-9.5 9.5 9.5 9.5 0 0 0  9.5 9.5 9.5 9.5 0 0 0  9.5-9.5 9.5 9.5 0 0 0-9.5-9.5m0 2a7.5 7.5 0 0 1 7.5 7.5 7.5 7.5 0 0 1-7.5 7.5 7.5 7.5 0 0 1-7.5-7.5 7.5 7.5 0 0 1  7.5-7.5" fill="#f9f9f9"/>
</svg>
