<svg viewBox="0 0 48 48" xmlns="http://www.w3.org/2000/svg" xmlns:xlink="http://www.w3.org/1999/xlink">
  <linearGradient id="a" gradientTransform="matrix(0 -1 1 0 -.0000015 47.999998)" gradientUnits="userSpaceOnUse" x1="1" x2="47">
    <stop offset="0" stop-color="#8cd644"/>
    <stop offset="1" stop-color="#97da54"/>
  </linearGradient>
  <path d="m47 24c0 22.703-.297 23-23 23-22.703 0-23-.297-23-23 0-22.703.297-23 23-23 22.703 0 23 .297 23 23z" fill="url(#a)"/>
  <path d="m23.883 29.457v2.16h5.145c1.207 0 2.262-.449 3.121-1.32h.008c.73-.75 1.152-1.645 1.258-2.656v-1.227h-2.188v.84c0 1.207-1.145 2.215-2.613 2.215l-4.727-.012m-.004 0" fill-opacity=".192" fill-rule="evenodd" opacity=".1" transform="translate(1 1)"/>
  <path d="m11 13v8h3v7c0 4.986 4.01 9 9 9h15v-15c0-4.986-4.01-9-9-9zm2 2h16c3.878 0 7 3.122 7 7v11c0 1.108-.892 2-2 2h-11c-3.878 0-7-3.122-7-7v-8c0-.552-.448-1-1-1h-2zm5 2v11c0 2.77 2.23 5 5 5h6c2.77 0 5-2.23 5-5v-1-4.5c0-1.933-1.567-3.501-3.5-3.5-.94 0-1.841.381-2.498 1.053-.658-.673-1.56-1.053-2.502-1.053-1.933 0-3.5 1.567-3.5 3.5v4.5h2v-4.5c0-.831.669-1.5 1.5-1.5.831 0 1.5.669 1.5 1.5v4.5h2v-4.5c0-.831.669-1.5 1.5-1.5.831 0 1.5.669 1.5 1.5v4.5 1c0 1.662-1.338 3-3 3h-6c-1.662 0-3-1.338-3-3v-11z" opacity=".1"/>
  <path d="m10 12v8h3v7c0 4.986 4.01 9 9 9h15v-15c0-4.986-4.01-9-9-9zm2 2h16c3.878 0 7 3.122 7 7v11c0 1.108-.892 2-2 2h-11c-3.878 0-7-3.122-7-7v-8a1 1 0 0 0-1-1h-2z" fill="#f9f9f9"/>
  <path d="m17 16v11c0 2.77 2.23 5 5 5h2v-2h-2c-1.662 0-3-1.338-3-3v-11zm7.5 2c-1.933 0-3.5 1.567-3.5 3.5v4.5h2v-4.5c0-.831.669-1.5 1.5-1.5.831 0 1.5.669 1.5 1.5v4.5h2v-4.5c0-.831.669-1.5 1.5-1.5.831 0 1.5.669 1.5 1.5v4.5h2v-4.5c0-1.933-1.567-3.501-3.5-3.5-.94 0-1.841.381-2.498 1.053-.658-.673-1.56-1.053-2.502-1.053" fill="#f9f9f9"/>
  <path d="m31 26v1c0 1.662-1.338 3-3 3h-4v2h4c2.77 0 5-2.23 5-5v-1z" fill="#c6c6c6"/>
</svg>
