<svg viewBox="0 0 48 48" xmlns="http://www.w3.org/2000/svg" xmlns:xlink="http://www.w3.org/1999/xlink">
  <linearGradient id="a" gradientTransform="matrix(0 -1 1 0 -.0000015 47.999998)" gradientUnits="userSpaceOnUse" x1="1" x2="47">
    <stop offset="0" stop-color="#31af54"/>
    <stop offset="1" stop-color="#35bf5c"/>
  </linearGradient>
  <path d="m47 24c0 22.703-.297 23-23 23-22.703 0-23-.297-23-23 0-22.703.297-23 23-23 22.703 0 23 .297 23 23z" fill="url(#a)"/>
  <path d="m15 12v7.125h.004l-.004 2.895h5v-3h7v-7h-12m13-.016v24h5v-24m-12 8v16h6v-16m-11.996 3v13h5v-13m-5 0" fill-rule="evenodd" opacity=".1" transform="translate(1 1)"/>
  <path d="m15 12v7.125h.004l-.004 2.895h5v-3h7v-7h-12m13-.016v24h5v-24m-12 8v16h6v-16m-11.996 3v13h5v-13m-5 0" fill="#f9f9f9" fill-rule="evenodd"/>
</svg>
