<svg xmlns="http://www.w3.org/2000/svg" viewBox="0 0 48 48">
 <defs>
  <linearGradient id="linearGradient3764" x1="1" x2="47" gradientUnits="userSpaceOnUse" gradientTransform="matrix(0,-1,1,0,-1.5e-6,47.999998)">
   <stop style="stop-color:#c0e1f8;stop-opacity:1"/>
   <stop offset="1" style="stop-color:#d2eafa;stop-opacity:1"/>
  </linearGradient>
 </defs>
 <g>
  
  
  
 </g>
 <g>
  <path d="m 47,24 C 47,46.703 46.703,47 24,47 1.297,47 1,46.703 1,24 1,1.297 1.297,1 24,1 46.703,1 47,1.297 47,24 z" style="fill:url(#linearGradient3764);fill-opacity:1"/>
 </g>
 <g>
  
 </g>
 <path d="M 30,14 C 21,14 17,22 17.5,30 18,24 22,22 24,21 c 2,-1 9,-2 9,-5 0,-1 -1,-2 -3,-2 z m -14,2 c -3,0 -4,3 -4,6 0,6 4,12 8,16 -3,-5 -3,-10 -3,-13 0,-3 1,-5 1,-7 0,-1.531 -0.422,-2 -2,-2 z m 8,9 c -4,0 -6,2.4 -6,4.4 0,1.6 1,1.6 2,1.6 1.487,0 3,-1 8,-1 3,0 6.877,1.41 10,3 -3,-4 -8,-8 -14,-8 z" style="fill:#000;opacity:0.1;fill-opacity:1;stroke:none"/>
 <path d="m 15 15 c 1.578 0 2 0.469 2 2 0 2 -1 4 -1 7 0 3 0 8 3 13 -4 -4 -8 -10 -8 -16 0 -3 1 -6 4 -6 z" style="fill:#144b70;opacity:1;fill-opacity:1;stroke:none"/>
 <path d="m 29,13 c 2,0 3,1 3,2 0,3 -7,4 -9,5 -2,1 -6,3 -6.5,9 C 16,21 20,13 29,13 Z" style="fill:#2b93d9;opacity:1;fill-opacity:1;stroke:none"/>
 <path d="m 17 28.4 c 0 -2 2 -4.4 6 -4.4 6 0 11 4 14 8 -3.123 -1.59 -7 -3 -10 -3 -5 0 -6.513 1 -8 1 -1 0 -2 0 -2 -1.6 z" style="fill:#6eb6e6;opacity:1;fill-opacity:1;stroke:none"/>
</svg>
