<svg viewBox="0 0 48 48" xmlns="http://www.w3.org/2000/svg" xmlns:xlink="http://www.w3.org/1999/xlink">
  <linearGradient id="a" gradientUnits="userSpaceOnUse" x1="1" x2="47">
    <stop offset="0" stop-color="#37474f"/>
    <stop offset="1" stop-color="#3f525b"/>
  </linearGradient>
  <path d="m24 1c22.703 0 23 .297 23 23 0 22.703-.297 23-23 23-22.703 0-23-.297-23-23 0-22.703.297-23 23-23z" fill="url(#a)" transform="matrix(0 -1 1 0 0 48)"/>
  <path d="m12 14v21h11l1 1h2l1-1h11v-21h-11l-1 1h-2l-1-1z" fill-rule="evenodd" opacity=".1"/>
  <g transform="translate(-39 -6.9999999)">
    <g fill-rule="evenodd" transform="translate(40 4.9999999)">
      <path d="m22 36l-1-1h-11v1h11l1 1h2l1-1c4 0 11 0 11 0v-1h-11l-1 1" fill="#3e263b"/>
      <path d="m10 31v1h11l1 1h-12v1h11l1 1h2l1-1h11v-1h-12l1-1h11v-1z" fill="#969795"/>
      <path d="m36 15h-11l-1 1h-2l-1-1h-11v16c4 0 7 0 11 0l1 1h2l1-1c4 0 7 0 11 0" fill="#f2f2f2"/>
      <path d="m21 15v16l1 1h2l1-1c0-5.667 0-10.333 0-16l-1 1h-2" fill="#aeb2b7" fill-opacity=".471"/>
      <path d="m10 34v1h11l1 1h2l1-1h11v-1h-11l-1 1h-2l-1-1z" fill="#ddd8d8"/>
      <path d="m22 16v16h2v-16" fill="#9bb5b9" fill-opacity=".688"/>
      <path d="m10 32v1h11l1 1h2l1-1h11v-1h-11l-1 1h-2l-1-1z" fill="#ddd8d8"/>
    </g>
    <path d="m66 23h9v1h-9z" fill="#ccc"/>
    <path d="m66 29h9v1h-9z" fill="#ccc"/>
    <path d="m54.74 24.271h-1.47l-.27.729h-1l1.413-4h1.173l1.413 4h-1m-1.46-1.571h.92l-.46-1.429" fill="#f2f2f2"/>
    <path d="m51 27h9v1h-9z" fill="#ccc"/>
    <path d="m51 29h9v1h-9z" fill="#ccc"/>
    <path d="m51 31h9v1h-9z" fill="#ccc"/>
    <path d="m51 33h9v1h-9z" fill="#ccc"/>
    <path d="m66 33h9v1h-9z" fill="#ccc"/>
    <path d="m66 31h9v1h-9z" fill="#ccc"/>
    <path d="m66 27h9v1h-9z" fill="#ccc"/>
    <path d="m66 25h9v1h-9z" fill="#ccc"/>
    <path d="m66 21h9v1h-9z" fill="#ccc"/>
    <path d="m51 23h9v1h-9z" fill="#ccc"/>
    <path d="m51 25h9v1h-9z" fill="#ccc"/>
    <path d="m51 21h9v1h-9z" fill="#ccc"/>
  </g>
  <g opacity=".1" transform="translate(1 .996)">
    <path d="m36.602 19.898c0 4.699-3.805 8.504-8.5 8.504-4.699 0-8.504-3.805-8.5-8.504-.004-4.695 3.801-8.504 8.5-8.504 4.695 0 8.5 3.809 8.5 8.504m0 0"/>
    <path d="m28.09 10.898c-2.309 0-4.598.887-6.352 2.641-3.512 3.508-3.512 9.223 0 12.73 3.508 3.508 9.223 3.508 12.734 0 3.508-3.508 3.508-9.223 0-12.73-1.758-1.754-4.078-2.641-6.383-2.641m0 1.48c1.922 0 3.84.727 5.313 2.199 2.941 2.941 2.941 7.68 0 10.621-2.945 2.941-7.684 2.941-10.629 0-2.941-2.941-2.941-7.68 0-10.621 1.473-1.473 3.391-2.199 5.316-2.199m0 0"/>
    <path d="m17.879 32.27l-2.145-2.145-4.734 4.734 2.145 2.145m4.734-4.734"/>
    <path d="m22.422 27.07l-1.504-1.504-4.734 4.734 1.504 1.504m4.734-4.734"/>
    <path d="m33 22c0 1.656-1.344 3-3 3-1.656 0-3-1.344-3-3 0-1.656 1.344-3 3-3 1.656 0 3 1.344 3 3m0 0"/>
    <path d="m31 17c0 .551-.449 1-1 1-.551 0-1-.449-1-1 0-.551.449-1 1-1 .551 0 1 .449 1 1m0 0"/>
  </g>
  <path d="m36.602 19.894c0 4.699-3.805 8.504-8.5 8.504-4.699 0-8.504-3.805-8.5-8.504-.004-4.695 3.801-8.504 8.5-8.504 4.695 0 8.5 3.809 8.5 8.504m0 0" fill="#82c3ec"/>
  <path d="m28.09 10.894c-2.309 0-4.598.887-6.352 2.641-3.512 3.508-3.512 9.223 0 12.73 3.508 3.508 9.223 3.508 12.734 0 3.508-3.508 3.508-9.223 0-12.73-1.758-1.754-4.078-2.641-6.383-2.641m0 1.48c1.922 0 3.84.727 5.313 2.199 2.941 2.941 2.941 7.68 0 10.621-2.945 2.941-7.684 2.941-10.629 0-2.941-2.941-2.941-7.68 0-10.621 1.473-1.473 3.391-2.199 5.316-2.199m0 0" fill="#e6e6e6"/>
  <path d="m17.879 32.266l-2.145-2.145-4.734 4.734 2.145 2.145m4.734-4.734" fill="#222b30"/>
  <path d="m22.422 27.07l-1.504-1.504-4.734 4.734 1.504 1.504m4.734-4.734" fill="#d24c37"/>
  <path d="m33 21.996c0 1.656-1.344 3-3 3-1.656 0-3-1.344-3-3 0-1.656 1.344-3 3-3 1.656 0 3 1.344 3 3m0 0" fill="#b9def8"/>
  <path d="m31 16.996c0 .551-.449 1-1 1-.551 0-1-.449-1-1 0-.551.449-1 1-1 .551 0 1 .449 1 1m0 0" fill="#b9def8"/>
</svg>
