<svg viewBox="0 0 48 48" xmlns="http://www.w3.org/2000/svg" xmlns:xlink="http://www.w3.org/1999/xlink">
  <linearGradient id="a" gradientTransform="matrix(0 -1 1 0 -.0000015 47.999998)" gradientUnits="userSpaceOnUse" x1="1" x2="47">
    <stop offset="0" stop-color="#595959"/>
    <stop offset="1" stop-color="#636363"/>
  </linearGradient>
  <path d="m47 24c0 22.703-.297 23-23 23-22.703 0-23-.297-23-23 0-22.703.297-23 23-23 22.703 0 23 .297 23 23z" fill="url(#a)"/>
  <g opacity=".1" transform="translate(1 1)">
    <path d="m32.35 19c .867-2 .867-4 0-7-1.742 0-3.48 2-4.348 4m4.348 3"/>
    <path d="m23.887 11h .227c.488 0 .883.395.883.883v4.23c0 .488-.395.883-.883.883h-.227c-.492 0-.887-.395-.887-.883v-4.23c0-.488.395-.883.887-.883m0 0"/>
    <path d="m15.652 19c-.871-2-.871-4 0-7 1.738 0 3.477 2 4.348 4m-4.348 3"/>
    <path d="m22 14.188c-5.121.941-9 5.422-9 10.813 0 6.074 4.926 11 11 11 6.074 0 11-4.926 11-11 0-5.391-3.879-9.871-9-10.813v3.03c0 .98-.801 1.781-1.781 1.781h-.438c-.98 0-1.781-.801-1.781-1.781m-1 1.781c.551 0 1 .449 1 1 0 .555-.449 1-1 1-.551 0-1-.445-1-1 0-.551.449-1 1-1m6 0c .551 0 1 .449 1 1 0 .555-.449 1-1 1-.551 0-1-.445-1-1 0-.551.449-1 1-1m-3 6c .75-.004 1.5.281 2 1-.445 1.738-1.086 2.809-1.75 3v2.563c1.168-.023 2.352-.207 3.75-.563v.375c-3 .863-5 .793-8 0v-.375c1.398.355 2.582.539 3.75.563v-2.563c-.664-.191-1.305-1.262-1.75-3 .5-.695 1.25-.992 2-1m0 0"/>
  </g>
  <path d="m32.35 19c .867-2 .867-4 0-7-1.742 0-3.48 2-4.348 4m4.348 3" fill="#f9f9f9"/>
  <path d="m23.887 11h .227c.488 0 .883.395.883.883v4.23c0 .488-.395.883-.883.883h-.227c-.492 0-.887-.395-.887-.883v-4.23c0-.488.395-.883.887-.883m0 0" fill="#e5c837"/>
  <path d="m15.652 19c-.871-2-.871-4 0-7 1.738 0 3.477 2 4.348 4m-4.348 3" fill="#f9f9f9"/>
  <path d="m22 14.188c-5.121.941-9 5.422-9 10.813 0 6.074 4.926 11 11 11 6.074 0 11-4.926 11-11 0-5.391-3.879-9.871-9-10.813v3.03c0 .98-.801 1.781-1.781 1.781h-.438c-.98 0-1.781-.801-1.781-1.781m-1 1.781c.551 0 1 .449 1 1 0 .555-.449 1-1 1-.551 0-1-.445-1-1 0-.551.449-1 1-1m6 0c .551 0 1 .449 1 1 0 .555-.449 1-1 1-.551 0-1-.445-1-1 0-.551.449-1 1-1m-3 6c .75-.004 1.5.281 2 1-.445 1.738-1.086 2.809-1.75 3v2.563c1.168-.023 2.352-.207 3.75-.563v.375c-3 .863-5 .793-8 0v-.375c1.398.355 2.582.539 3.75.563v-2.563c-.664-.191-1.305-1.262-1.75-3 .5-.695 1.25-.992 2-1m0 0" fill="#f9f9f9"/>
</svg>
