<svg viewBox="0 0 48 48" xmlns="http://www.w3.org/2000/svg" xmlns:xlink="http://www.w3.org/1999/xlink">
  <linearGradient id="a" gradientTransform="matrix(0 -1 1 0 -.0000015 47.999998)" gradientUnits="userSpaceOnUse" x1="1" x2="47">
    <stop offset="0" stop-color="#2684da"/>
    <stop offset="1" stop-color="#3f96e5"/>
  </linearGradient>
  <path d="m24 1c22.703 0 23 .297 23 23 0 22.703-.297 23-23 23-22.703 0-23-.297-23-23 0-22.703.297-23 23-23z" fill="url(#a)"/>
  <path d="m14 16c-.5 0-1 .5-1 1 0 5.667 0 11.333 0 17h24v-14.934c0-.533-.5-1.066-1-1.066-3.333 0-6.667 0-10 0l-1-2z" opacity=".1"/>
  <g transform="scale(3.543307)">
    <path d="m3.387 4.516v3.951h6.491v-1.976l-.282-1.693h-2.54l-.282-.564h-3.104c-.141 0-.282.141-.282.282z" fill="#ff8f00"/>
    <path d="m3.951 5.08h3.104v1.129h-3.104z" fill="#fffdf0"/>
    <path d="m10.16 5.099v4.215h-6.773v-3.951h3.387l.282-.564h2.822c.141 0 .282.151.282.301z" fill="#ffca28"/>
    <path d="m7.39 5.854c-.013 0-.022.003-.029.014-.035.062.034.262-.019.367-.052.105-.052.131-.471.079-.419-.052-1.047.131-1.273.357-.229.227-.619.803-.7 1.135-.077.332-.042.349.063.298.104-.053.192-.516.809-.82.62-.305.909-.062.909-.062 0 0-.533-.071-.925.253-.392.324-.637.575-.628.675.009.096.043.076.106 0 .061-.079.427-.559.863-.717.436-.159.619-.148.785-.061.166.087.202.172-.033.233-.237.063-.333.035-.333.035 0 0 .201.183.487.183.289 0 .464-.018.464-.018 0 0 .714.742.898.891.182.148.385.078.385-.001 0-.087-.088-.332-.088-.332 0 0 .183-.411-.028-.873-.209-.463-.785-.941-.785-.941 0 0-.061-.262-.191-.437-.106-.141-.213-.248-.268-.25m-2.971 2.114c-.025 0-.052.008-.076.022-.201.113-.096.315.079.315.174 0 .366-.071.366-.071 0 0-.187-.273-.369-.266m.386.336c0 0-.391.06-.435.244-.044.183.164.236.295.14.131-.096.14-.384.14-.384m0 0" fill="#6a6034" opacity=".6"/>
  </g>
</svg>
