<svg xmlns="http://www.w3.org/2000/svg" viewBox="0 0 48 48">
 <defs>
  <linearGradient id="linearGradient3813" gradientUnits="userSpaceOnUse" gradientTransform="matrix(0,-1,1,0,-1.5e-6,47.999998)" x1="1" x2="47">
   <stop style="stop-color:#2684da;stop-opacity:1"/>
   <stop offset="1" style="stop-color:#3f96e5;stop-opacity:1"/>
  </linearGradient>
 </defs>
 <g>
  
  
  
 </g>
 <path d="M 24,1 C 46.703,1 47,1.297 47,24 47,46.703 46.703,47 24,47 1.297,47 1,46.703 1,24 1,1.297 1.297,1 24,1 z" style="fill:url(#linearGradient3813);fill-opacity:1"/>
 <g>
  
 </g>
 <path d="m 14 16 c -0.5 0 -1 0.5 -1 1 0 5.667 0 11.333 0 17 l 24 0 0 -14.934 c 0 -0.533 -0.5 -1.066 -1 -1.066 -3.333 0 -6.667 0 -10 0 l -1 -2 z" style="fill:#000;opacity:0.1;fill-opacity:1;stroke:none"/>
 <g transform="scale(3.543307,3.543307)">
  <path d="m 3.387 4.516 0 3.951 6.491 0 0 -1.976 -0.282 -1.693 -2.54 0 -0.282 -0.564 -3.104 0 c -0.141 0 -0.282 0.141 -0.282 0.282 z" style="fill:#ff8f00;fill-opacity:1;stroke:none"/>
  <rect y="5.08" x="3.951" height="1.129" width="3.104" style="fill:#fffdf0;fill-opacity:1;stroke:none"/>
  <path d="m 10.16 5.099 0 4.215 -6.773 0 0 -3.951 3.387 0 0.282 -0.564 2.822 0 c 0.141 0 0.282 0.151 0.282 0.301 z" style="fill:#ffca28;fill-opacity:1;stroke:none"/>
  <path d="m 7.39 5.854 c -0.013 0 -0.022 0.003 -0.029 0.014 c -0.035 0.062 0.034 0.262 -0.019 0.367 -0.052 0.105 -0.052 0.131 -0.471 0.079 -0.419 -0.052 -1.047 0.131 -1.273 0.357 -0.229 0.227 -0.619 0.803 -0.7 1.135 -0.077 0.332 -0.042 0.349 0.063 0.298 0.104 -0.053 0.192 -0.516 0.809 -0.82 0.62 -0.305 0.909 -0.062 0.909 -0.062 c 0 0 -0.533 -0.071 -0.925 0.253 -0.392 0.324 -0.637 0.575 -0.628 0.675 0.009 0.096 0.043 0.076 0.106 0 0.061 -0.079 0.427 -0.559 0.863 -0.717 c 0.436 -0.159 0.619 -0.148 0.785 -0.061 0.166 0.087 0.202 0.172 -0.033 0.233 -0.237 0.063 -0.333 0.035 -0.333 0.035 c 0 0 0.201 0.183 0.487 0.183 0.289 0 0.464 -0.018 0.464 -0.018 0 0 0.714 0.742 0.898 0.891 0.182 0.148 0.385 0.078 0.385 -0.001 0 -0.087 -0.088 -0.332 -0.088 -0.332 0 0 0.183 -0.411 -0.028 -0.873 c -0.209 -0.463 -0.785 -0.941 -0.785 -0.941 c 0 0 -0.061 -0.262 -0.191 -0.437 c -0.106 -0.141 -0.213 -0.248 -0.268 -0.25 m -2.971 2.114 c -0.025 0 -0.052 0.008 -0.076 0.022 -0.201 0.113 -0.096 0.315 0.079 0.315 0.174 0 0.366 -0.071 0.366 -0.071 0 0 -0.187 -0.273 -0.369 -0.266 m 0.386 0.336 c 0 0 -0.391 0.06 -0.435 0.244 -0.044 0.183 0.164 0.236 0.295 0.14 0.131 -0.096 0.14 -0.384 0.14 -0.384 m 0 0" style="fill:#6a6034;opacity:0.6;fill-opacity:1;stroke:none;fill-rule:nonzero"/>
 </g>
</svg>
