<svg viewBox="0 0 48 48" xmlns="http://www.w3.org/2000/svg" xmlns:xlink="http://www.w3.org/1999/xlink">
  <linearGradient id="a" gradientTransform="matrix(0 -1 1 0 -.0000015 47.999998)" gradientUnits="userSpaceOnUse" x1="1" x2="47">
    <stop offset="0" stop-color="#01a7dd"/>
    <stop offset="1" stop-color="#01b3f1"/>
  </linearGradient>
  <path d="m47 24c0 22.703-.297 23-23 23-22.703 0-23-.297-23-23 0-22.703.297-23 23-23 22.703 0 23 .297 23 23z" fill="url(#a)"/>
  <path d="m20.383 14c .078-.004.133.023.176.09.215.379-.215 1.613.109 2.254.324.645.324.805 2.906.484 2.582-.324 6.457.801 7.859 2.195 1.398 1.395 3.82 4.938 4.305 6.973.484 2.039.273 2.145-.375 1.824-.645-.32-1.184-3.16-5.01-5.04-3.824-1.879-5.602-.379-5.602-.379 0 0 3.285-.43 5.707 1.555 2.426 1.984 3.93 3.539 3.879 4.129-.055.59-.273.484-.648 0-.379-.48-2.637-3.434-5.328-4.395-2.688-.965-3.82-.91-4.84-.375-1.023.535-1.242 1.07.211 1.449 1.453.375 2.047.215 2.047.215 0 0-1.238 1.121-3.01 1.121-1.777 0-2.852-.105-2.852-.105 0 0-4.414 4.559-5.547 5.473-1.129.91-2.367.484-2.367-.055 0-.535.539-2.035.539-2.035 0 0-1.125-2.523.164-5.367 1.293-2.84 4.844-5.789 4.844-5.789 0 0 .375-1.609 1.18-2.68.656-.871 1.316-1.527 1.652-1.543m0-.004" opacity=".1" transform="translate(1 1)"/>
  <path d="m20.383 14c .078-.004.133.023.176.09.215.379-.215 1.613.109 2.254.324.645.324.805 2.906.484 2.582-.324 6.457.801 7.859 2.195 1.398 1.395 3.82 4.938 4.305 6.973.484 2.039.273 2.145-.375 1.824-.645-.32-1.184-3.16-5.01-5.04-3.824-1.879-5.602-.379-5.602-.379 0 0 3.285-.43 5.707 1.555 2.426 1.984 3.93 3.539 3.879 4.129-.055.59-.273.484-.648 0-.379-.48-2.637-3.434-5.328-4.395-2.688-.965-3.82-.91-4.84-.375-1.023.535-1.242 1.07.211 1.449 1.453.375 2.047.215 2.047.215 0 0-1.238 1.121-3.01 1.121-1.777 0-2.852-.105-2.852-.105 0 0-4.414 4.559-5.547 5.473-1.129.91-2.367.484-2.367-.055 0-.535.539-2.035.539-2.035 0 0-1.125-2.523.164-5.367 1.293-2.84 4.844-5.789 4.844-5.789 0 0 .375-1.609 1.18-2.68.656-.871 1.316-1.527 1.652-1.543m0-.004" fill="#f9f9f9"/>
</svg>
