<svg xmlns="http://www.w3.org/2000/svg" viewBox="0 0 48 48">
 <defs>
  <linearGradient id="linearGradient3764" x1="1" x2="47" gradientUnits="userSpaceOnUse" gradientTransform="matrix(0,-1,1,0,-1.5e-6,47.999998)">
   <stop style="stop-color:#01a7dd;stop-opacity:1"/>
   <stop offset="1" style="stop-color:#01b3f1;stop-opacity:1"/>
  </linearGradient>
 </defs>
 <g>
  
  
  
 </g>
 <g>
  <path d="m 47,24 C 47,46.703 46.703,47 24,47 1.297,47 1,46.703 1,24 1,1.297 1.297,1 24,1 46.703,1 47,1.297 47,24 z" style="fill:url(#linearGradient3764);fill-opacity:1"/>
 </g>
 <g>
  <g>
   <g transform="translate(1,1)">
    <g style="opacity:0.1">
     <!-- color: #01b3f1 -->
     <g>
      <path d="m 20.383 14 c 0.078 -0.004 0.133 0.023 0.176 0.09 c 0.215 0.379 -0.215 1.613 0.109 2.254 c 0.324 0.645 0.324 0.805 2.906 0.484 c 2.582 -0.324 6.457 0.801 7.859 2.195 c 1.398 1.395 3.82 4.938 4.305 6.973 c 0.484 2.039 0.273 2.145 -0.375 1.824 c -0.645 -0.32 -1.184 -3.16 -5.01 -5.04 c -3.824 -1.879 -5.602 -0.379 -5.602 -0.379 c 0 0 3.285 -0.43 5.707 1.555 c 2.426 1.984 3.93 3.539 3.879 4.129 c -0.055 0.59 -0.273 0.484 -0.648 0 c -0.379 -0.48 -2.637 -3.434 -5.328 -4.395 c -2.688 -0.965 -3.82 -0.91 -4.84 -0.375 c -1.023 0.535 -1.242 1.07 0.211 1.449 c 1.453 0.375 2.047 0.215 2.047 0.215 c 0 0 -1.238 1.121 -3.01 1.121 c -1.777 0 -2.852 -0.105 -2.852 -0.105 c 0 0 -4.414 4.559 -5.547 5.473 c -1.129 0.91 -2.367 0.484 -2.367 -0.055 c 0 -0.535 0.539 -2.035 0.539 -2.035 c 0 0 -1.125 -2.523 0.164 -5.367 c 1.293 -2.84 4.844 -5.789 4.844 -5.789 c 0 0 0.375 -1.609 1.18 -2.68 c 0.656 -0.871 1.316 -1.527 1.652 -1.543 m 0 -0.004" style="fill:#000;fill-opacity:1;stroke:none;fill-rule:nonzero"/>
     </g>
    </g>
   </g>
  </g>
 </g>
 <g>
  <g>
   <!-- color: #01b3f1 -->
   <g>
    <path d="m 20.383 14 c 0.078 -0.004 0.133 0.023 0.176 0.09 c 0.215 0.379 -0.215 1.613 0.109 2.254 c 0.324 0.645 0.324 0.805 2.906 0.484 c 2.582 -0.324 6.457 0.801 7.859 2.195 c 1.398 1.395 3.82 4.938 4.305 6.973 c 0.484 2.039 0.273 2.145 -0.375 1.824 c -0.645 -0.32 -1.184 -3.16 -5.01 -5.04 c -3.824 -1.879 -5.602 -0.379 -5.602 -0.379 c 0 0 3.285 -0.43 5.707 1.555 c 2.426 1.984 3.93 3.539 3.879 4.129 c -0.055 0.59 -0.273 0.484 -0.648 0 c -0.379 -0.48 -2.637 -3.434 -5.328 -4.395 c -2.688 -0.965 -3.82 -0.91 -4.84 -0.375 c -1.023 0.535 -1.242 1.07 0.211 1.449 c 1.453 0.375 2.047 0.215 2.047 0.215 c 0 0 -1.238 1.121 -3.01 1.121 c -1.777 0 -2.852 -0.105 -2.852 -0.105 c 0 0 -4.414 4.559 -5.547 5.473 c -1.129 0.91 -2.367 0.484 -2.367 -0.055 c 0 -0.535 0.539 -2.035 0.539 -2.035 c 0 0 -1.125 -2.523 0.164 -5.367 c 1.293 -2.84 4.844 -5.789 4.844 -5.789 c 0 0 0.375 -1.609 1.18 -2.68 c 0.656 -0.871 1.316 -1.527 1.652 -1.543 m 0 -0.004" style="fill:#f9f9f9;fill-opacity:1;stroke:none;fill-rule:nonzero"/>
   </g>
  </g>
 </g>
 <g>
  
 </g>
</svg>
