<svg viewBox="0 0 48 48" xmlns="http://www.w3.org/2000/svg" xmlns:xlink="http://www.w3.org/1999/xlink">
  <linearGradient id="a" gradientTransform="matrix(0 -1 1 0 -.0000015 47.999998)" gradientUnits="userSpaceOnUse" x1="1" x2="47">
    <stop offset="0" stop-color="#474747"/>
    <stop offset="1" stop-color="#3d3d3d"/>
  </linearGradient>
  <path d="m47 24c0 22.703-.297 23-23 23-22.703 0-23-.297-23-23 0-22.703.297-23 23-23 22.703 0 23 .297 23 23z" fill="url(#a)"/>
  <g transform="matrix(3.543307 0 0 3.543307 -.99999958 2.00472522)">
    <path d="m4.516 3.669c-.282 0-.564.282-.564.564v.847c0 .154.152.282.282.282-.154 0-.282.152-.282.282v3.104c0 .282.282.564.564.564h4.233c1.415 0 2.54-1.411 2.54-2.822 0-1.411-1.129-2.822-2.54-2.822m-2.258 1.976h1.693v1.693h-1.693z" fill-opacity=".102"/>
    <path d="m15 12c-1 0-2 1-2 2v3c0 .546.539 1 1 1-.546 0-1 .539-1 1v11c0 1 1 2 2 2h15c5.01 0 9-5 9-10 0-5-4-10-9-10m-8 7h6v6h-6z" fill="#e6e6e6" transform="scale(.28222222)"/>
    <path d="m15 14v3h13c1 0 2 1 2 2v6c0 1-1 2-2 2h-8v-8h-5v11h15c4 0 7-4 7-8 0-4-3-8-7-8" fill="#f94133" transform="scale(.28222222)"/>
  </g>
</svg>
