<svg xmlns="http://www.w3.org/2000/svg" viewBox="0 0 48 48">
 <g>
  
  
  
 </g>
 <g style="fill:#782305;fill-opacity:1">
  <path d="m 24 1 c 22.703 0 23 0.297 23 23 c 0 22.703 -0.297 23 -23 23 -22.703 0 -23 -0.297 -23 -23 0 -22.703 0.297 -23 23 -23 z"/>
 </g>
 <g>
  
 </g>
 <path d="m 25 10 c -8.284 0 -15 6.716 -15 15 0 8.284 6.716 15 15 15 8.284 0 15 -6.716 15 -15 0 -8.284 -6.716 -15 -15 -15 z m 0 2 c 2.308 0 4.465 0.602 6.344 1.656 l -6.344 4.406 -6.344 -4.406 c 1.879 -1.055 4.04 -1.656 6.344 -1.656 z m -7.094 2.125 c -0.244 0.159 -0.486 0.325 -0.719 0.5 0.233 -0.175 0.474 -0.34 0.719 -0.5 z m 14.188 0 c 0.244 0.16 0.486 0.325 0.719 0.5 -0.233 -0.175 -0.475 -0.341 -0.719 -0.5 z m -14.219 1.375 l 5.406 3.75 -3.375 2.344 l -2.031 -6.094 z m 14.25 0 -2.031 6.094 l -3.375 -2.344 5.406 -3.75 z m -16.25 0.25 2.344 7.03 l -6.06 4.219 c -0.1 -0.65 -0.156 -1.322 -0.156 -2 c 0 -3.622 1.485 -6.893 3.875 -9.25 z m 18.25 0 c 2.39 2.357 3.875 5.628 3.875 9.25 c 0 0.678 -0.056 1.35 -0.156 2 l -6.06 -4.219 2.344 -7.03 z m -9.125 4.719 4.438 3.094 -1.469 4.438 -5.938 0 -1.469 -4.438 4.438 -3.094 z m -6.125 4.25 l 1.094 3.281 -5.813 0 4.719 -3.281 z m 12.25 0 l 4.719 3.281 -5.813 0 1.094 -3.281 z m -18.969 2.313 c 0.08 0.513 0.205 1.01 0.344 1.5 0.114 0.405 0.255 0.8 0.406 1.188 -0.152 -0.389 -0.292 -0.782 -0.406 -1.188 -0.138 -0.49 -0.264 -0.989 -0.344 -1.5 z m 25.688 0 c -0.08 0.511 -0.206 1.01 -0.344 1.5 -0.114 0.406 -0.255 0.799 -0.406 1.188 0.151 -0.388 0.292 -0.783 0.406 -1.188 0.139 -0.491 0.264 -0.987 0.344 -1.5 z m -24.844 2.969 l 7.625 0 2.625 7.875 c 0.234 0.031 0.48 0.042 0.719 0.063 c -0.242 -0.019 -0.481 -0.031 -0.719 -0.063 -4.648 -0.623 -8.506 -3.689 -10.25 -7.875 z m 9.719 0 4.563 0 l -2.281 6.875 -2.281 -6.875 z m 6.656 0 7.625 0 c -1.744 4.186 -5.602 7.252 -10.25 7.875 -0.238 0.032 -0.477 0.044 -0.719 0.063 0.239 -0.021 0.485 -0.031 0.719 -0.063 l 2.625 -7.875 z" style="fill:#000;opacity:0.1;fill-opacity:1;stroke:none"/>
 <path d="m 24 9 c -8.284 0 -15 6.716 -15 15 c 0 8.284 6.716 15 15 15 c 8.284 0 15 -6.716 15 -15 c 0 -8.284 -6.716 -15 -15 -15 z m 0 2 c 2.308 0 4.465 0.602 6.344 1.656 l -6.344 4.406 l -6.344 -4.406 c 1.879 -1.055 4.04 -1.656 6.344 -1.656 z m -7.094 2.125 c -0.244 0.159 -0.486 0.325 -0.719 0.5 c 0.233 -0.175 0.474 -0.34 0.719 -0.5 z m 14.188 0 c 0.244 0.16 0.486 0.325 0.719 0.5 c -0.233 -0.175 -0.475 -0.341 -0.719 -0.5 z m -14.219 1.375 l 5.406 3.75 l -3.375 2.344 l -2.031 -6.094 z m 14.25 0 l -2.031 6.094 l -3.375 -2.344 l 5.406 -3.75 z m -16.25 0.25 l 2.344 7.03 l -6.06 4.219 c -0.1 -0.65 -0.156 -1.322 -0.156 -2 c 0 -3.622 1.485 -6.893 3.875 -9.25 z m 18.25 0 c 2.39 2.357 3.875 5.628 3.875 9.25 c 0 0.678 -0.056 1.35 -0.156 2 l -6.06 -4.219 l 2.344 -7.03 z m -9.125 4.719 l 4.438 3.094 l -1.469 4.438 l -5.938 0 l -1.469 -4.438 l 4.438 -3.094 z m -6.125 4.25 l 1.094 3.281 l -5.813 0 l 4.719 -3.281 z m 12.25 0 l 4.719 3.281 l -5.813 0 l 1.094 -3.281 z m -18.969 2.313 c 0.08 0.513 0.205 1.01 0.344 1.5 c 0.114 0.405 0.255 0.8 0.406 1.188 c -0.152 -0.389 -0.292 -0.782 -0.406 -1.188 c -0.138 -0.49 -0.264 -0.989 -0.344 -1.5 z m 25.688 0 c -0.08 0.511 -0.206 1.01 -0.344 1.5 c -0.114 0.406 -0.255 0.799 -0.406 1.188 c 0.151 -0.388 0.292 -0.783 0.406 -1.188 c 0.139 -0.491 0.264 -0.987 0.344 -1.5 z m -24.844 2.969 l 7.625 0 l 2.625 7.875 c 0.234 0.031 0.48 0.042 0.719 0.063 c -0.242 -0.019 -0.481 -0.031 -0.719 -0.063 c -4.648 -0.623 -8.506 -3.689 -10.25 -7.875 z m 9.719 0 l 4.563 0 l -2.281 6.875 l -2.281 -6.875 z m 6.656 0 l 7.625 0 c -1.744 4.186 -5.602 7.252 -10.25 7.875 c -0.238 0.032 -0.477 0.044 -0.719 0.063 c 0.239 -0.021 0.485 -0.031 0.719 -0.063 l 2.625 -7.875 z" style="fill:#dc7d41;fill-opacity:1;stroke:none"/>
</svg>
