<svg xmlns="http://www.w3.org/2000/svg" viewBox="0 0 48 48">
 <defs>
  <linearGradient id="linearGradient3764" x1="1" x2="47" gradientUnits="userSpaceOnUse" gradientTransform="matrix(0,-1,1,0,-1.5e-6,47.999998)">
   <stop style="stop-color:#646354;stop-opacity:1"/>
   <stop offset="1" style="stop-color:#6f6e5e;stop-opacity:1"/>
  </linearGradient>
 </defs>
 <g>
  
  
  
 </g>
 <g>
  <path d="m 47,24 C 47,46.703 46.703,47 24,47 1.297,47 1,46.703 1,24 1,1.297 1.297,1 24,1 46.703,1 47,1.297 47,24 z" style="fill:url(#linearGradient3764);fill-opacity:1"/>
 </g>
 <g>
  <g>
   <g transform="translate(1,1)">
    <g style="opacity:0.1">
     <!-- color: #6f6e5e -->
     <g>
      <path d="m 15.09 12 c 0.766 0.035 1.531 0.387 2.063 0.938 l 6.844 6.844 l 6.938 -6.844 c 0.801 -0.691 1.34 -0.906 2.063 -0.938 m -21 3 l 0 18 c 0 -0.797 0.277 -1.594 0.852 -2.156 l 6.844 -6.75 l -6.844 -6.844 c -0.629 -0.57 -0.91 -1.41 -0.852 -2.25 m 24 0 c 0 0.859 -0.102 1.652 -0.75 2.25 l -6.844 6.844 l 6.75 6.75 c 0.566 0.57 0.844 1.348 0.844 2.156 m -12 -4.688 l -6.844 6.844 c -0.563 0.57 -1.363 0.844 -2.156 0.844 l 18 0 c -0.797 0 -1.594 -0.277 -2.148 -0.844 m -6.852 -6.844" style="fill:#000;fill-opacity:1;stroke:none;fill-rule:nonzero"/>
     </g>
    </g>
   </g>
  </g>
 </g>
 <g>
  <g>
   <!-- color: #6f6e5e -->
   <g>
    <path d="m 15.09 12 c 0.766 0.035 1.531 0.387 2.063 0.938 l 6.844 6.844 l 6.938 -6.844 c 0.801 -0.691 1.34 -0.906 2.063 -0.938 m -21 3 l 0 18 c 0 -0.797 0.277 -1.594 0.852 -2.156 l 6.844 -6.75 l -6.844 -6.844 c -0.629 -0.57 -0.91 -1.41 -0.852 -2.25 m 24 0 c 0 0.859 -0.102 1.652 -0.75 2.25 l -6.844 6.844 l 6.75 6.75 c 0.566 0.57 0.844 1.348 0.844 2.156 m -12 -4.688 l -6.844 6.844 c -0.563 0.57 -1.363 0.844 -2.156 0.844 l 18 0 c -0.797 0 -1.594 -0.277 -2.148 -0.844 m -6.852 -6.844" style="fill:#dcb200;fill-opacity:1;stroke:none;fill-rule:nonzero"/>
   </g>
  </g>
 </g>
 <g>
  
 </g>
</svg>
