<svg viewBox="0 0 48 48" xmlns="http://www.w3.org/2000/svg" xmlns:xlink="http://www.w3.org/1999/xlink">
  <linearGradient id="a" gradientTransform="matrix(0 -1 1 0 -.0000015 47.999998)" gradientUnits="userSpaceOnUse" x1="1" x2="47">
    <stop offset="0" stop-color="#646354"/>
    <stop offset="1" stop-color="#6f6e5e"/>
  </linearGradient>
  <path d="m47 24c0 22.703-.297 23-23 23-22.703 0-23-.297-23-23 0-22.703.297-23 23-23 22.703 0 23 .297 23 23z" fill="url(#a)"/>
  <path d="m15.09 12c .766.035 1.531.387 2.063.938l6.844 6.844 6.938-6.844c.801-.691 1.34-.906 2.063-.938m-21 3v18c0-.797.277-1.594.852-2.156l6.844-6.75-6.844-6.844c-.629-.57-.91-1.41-.852-2.25m24 0c0 .859-.102 1.652-.75 2.25l-6.844 6.844 6.75 6.75c.566.57.844 1.348.844 2.156m-12-4.688l-6.844 6.844c-.563.57-1.363.844-2.156.844h18c-.797 0-1.594-.277-2.148-.844m-6.852-6.844" opacity=".1" transform="translate(1 1)"/>
  <path d="m15.09 12c .766.035 1.531.387 2.063.938l6.844 6.844 6.938-6.844c.801-.691 1.34-.906 2.063-.938m-21 3v18c0-.797.277-1.594.852-2.156l6.844-6.75-6.844-6.844c-.629-.57-.91-1.41-.852-2.25m24 0c0 .859-.102 1.652-.75 2.25l-6.844 6.844 6.75 6.75c.566.57.844 1.348.844 2.156m-12-4.688l-6.844 6.844c-.563.57-1.363.844-2.156.844h18c-.797 0-1.594-.277-2.148-.844m-6.852-6.844" fill="#dcb200"/>
</svg>
