<svg viewBox="0 0 48 48" xmlns="http://www.w3.org/2000/svg" xmlns:xlink="http://www.w3.org/1999/xlink">
  <linearGradient id="a" gradientTransform="matrix(0 -1 1 0 -.0000015 47.999998)" gradientUnits="userSpaceOnUse" x1="1" x2="47">
    <stop offset="0" stop-color="#333"/>
    <stop offset="1" stop-color="#3d3d3d"/>
  </linearGradient>
  <path d="m47 24c0 22.703-.297 23-23 23-22.703 0-23-.297-23-23 0-22.703.297-23 23-23 22.703 0 23 .297 23 23z" fill="url(#a)"/>
  <path d="m25.891 12l-4.121.07-.836.629.07.07-2.723.07.207-.281-6.211-.141-.07.422-.07.629.418.77-.207 1.609-.352 1.402.211 1.328.07 1.051.418 1.398-.141.703.07.77.488.559.141.91-.906.352.137 2.797.559.422-.348 2.449-.281.141-.207 4.688.246-.031.594.121c0 0 .715.25.863.301.148.047.367-.227.367-.227h.594l.496-.098.27.125.25-.027.617-.047.293-.125.125.297.098-.074.273-.125.566-.047.121.172c0 0 .691.074.938.074.25 0 .199-.199.199-.199 0 0 .074-.02.195.102.125.125.297-.051.297-.051l.246-.125.176.176.172.125.469-.102h.766l.172-.051.719 1.016.047-.516h1.16c.098 0 .051.344.051.344l.762-.246.395.395.816-.52.445-.074.863-.047h1.234l1.406.098.371-.148.27-.25.742.422.543-.223c0 0 .594.223.691.25.098.023 1.012-.102 1.012-.102l.566-.148-.367-.27.246-.102 1.035.047 1.383.355-.023-9.04v-.57l-.348.051-.445.074v-.27l.25-.227.195-.297.051-1.063-.074-.773-.32-.938-.297-.398-.051-.371.074-.246.027-.074.32-.125.047-.125-.246-.418.223-.129.352-.211.137-1.258.07-.84v-2.941l-.207-.84.137-.91.07-.348-.629-.281-2.371-.422-.352.492-.137-.563-4.539-.066-.141.77-1.117.141-.137-.488-.98-.145m-8.52 3.535l16.242 11.04-1.285 4.605-3.063.098-14.164-15.14m15.15-.398l1.781.941-.496 3.465-.348.102-4.738-3.613m-9.523 9.06l4.836 4.852-2.914 1.035-1.527-.098-1.879-1.586m1.484-4.203" opacity=".1" transform="translate(1 1)"/>
  <path d="m25.891 12l-4.121.07-.836.629.07.07-2.723.07.207-.281-6.211-.141-.07.422-.07.629.418.77-.207 1.609-.352 1.402.211 1.328.07 1.051.418 1.398-.141.703.07.77.488.559.141.91-.906.352.137 2.797.559.422-.348 2.449-.281.141-.207 4.688.246-.031.594.121c0 0 .715.25.863.301.148.047.367-.227.367-.227h.594l.496-.098.27.125.25-.027.617-.047.293-.125.125.297.098-.074.273-.125.566-.047.121.172c0 0 .691.074.938.074.25 0 .199-.199.199-.199 0 0 .074-.02.195.102.125.125.297-.051.297-.051l.246-.125.176.176.172.125.469-.102h.766l.172-.051.719 1.016.047-.516h1.16c.098 0 .051.344.051.344l.762-.246.395.395.816-.52.445-.074.863-.047h1.234l1.406.098.371-.148.27-.25.742.422.543-.223c0 0 .594.223.691.25.098.023 1.012-.102 1.012-.102l.566-.148-.367-.27.246-.102 1.035.047 1.383.355-.023-9.04v-.57l-.348.051-.445.074v-.27l.25-.227.195-.297.051-1.063-.074-.773-.32-.938-.297-.398-.051-.371.074-.246.027-.074.32-.125.047-.125-.246-.418.223-.129.352-.211.137-1.258.07-.84v-2.941l-.207-.84.137-.91.07-.348-.629-.281-2.371-.422-.352.492-.137-.563-4.539-.066-.141.77-1.117.141-.137-.488-.98-.145m-8.52 3.535l16.242 11.04-1.285 4.605-3.063.098-14.164-15.14m15.15-.398l1.781.941-.496 3.465-.348.102-4.738-3.613m-9.523 9.06l4.836 4.852-2.914 1.035-1.527-.098-1.879-1.586m1.484-4.203" fill="#d63d20"/>
</svg>
