<svg viewBox="0 0 48 48" xmlns="http://www.w3.org/2000/svg" xmlns:xlink="http://www.w3.org/1999/xlink">
  <linearGradient id="a" gradientTransform="matrix(0 -1 1 0 -.0000015 47.999998)" gradientUnits="userSpaceOnUse" x1="1" x2="47">
    <stop offset="0" stop-color="#186dae"/>
    <stop offset="1" stop-color="#1b77bf"/>
  </linearGradient>
  <path d="m47 24c0 22.703-.297 23-23 23-22.703 0-23-.297-23-23 0-22.703.297-23 23-23 22.703 0 23 .297 23 23z" fill="url(#a)"/>
  <path d="m20.19 13l-7.188 4.801 5 4.48-5 4.16 5 3.197v2.893l7.5 4.469 7.5-4.469v-.012-2.881l5-3.197-5-4.16 5-4.48-7.188-4.801-5.307 4.797-.006-.004-.006.004-5.307-4.797z" opacity=".1" transform=""/>
  <path d="m24.5 16.793l-7.5 4.477v10.262l7.5-4.508 7.5 4.508v-10.262m-7.5-4.477" fill="#e5f4ff"/>
  <path d="m32 31.52v-10.238l-7.5-4.48v10.238m7.5 4.48" fill="#cfebff"/>
  <path d="m17 21.281v10.25l7.5 4.469 7.5-4.469v-10.25l-7.5 4.469m-7.5-4.469" fill="#61abea"/>
  <path d="m32 21.281v10.238l-7.5 4.48v-10.238m7.5-4.48" fill="#68b2ec"/>
  <path d="m17 21.281l-5 4.16 7.5 4.797 5-4.477m-7.5-4.48" fill="#8cc5f4"/>
  <path d="m32 21.281l5 4.16-7.5 4.797-5-4.477m7.5-4.48" fill="#8cc5f4"/>
  <path d="m12 16.801l5 4.48 7.5-4.48-5.313-4.801m-7.188 4.801" fill="#8cc5f4"/>
  <path d="m37 16.801l-5 4.48-7.5-4.48 5.313-4.801m7.188 4.801" fill="#8cc5f4"/>
</svg>
