<svg viewBox="0 0 48 48" xmlns="http://www.w3.org/2000/svg" xmlns:xlink="http://www.w3.org/1999/xlink">
  <linearGradient id="a" gradientTransform="matrix(0 -1 1 0 -.0000015 47.999998)" gradientUnits="userSpaceOnUse" x1="1" x2="47">
    <stop offset="0" stop-color="#5b8fb3"/>
    <stop offset="1" stop-color="#6998b9"/>
  </linearGradient>
  <linearGradient id="b" gradientUnits="userSpaceOnUse" x2="0" y1="47" y2="1">
    <stop offset="0" stop-color="#d74b4b"/>
    <stop offset="1" stop-color="#e74f4f"/>
  </linearGradient>
  <path d="m24 1c22.703 0 23 .297 23 23 0 22.703-.297 23-23 23-6-4-6-43 0-46z" fill="url(#a)"/>
  <path d="m24 1c-22.703 0-23 .297-23 23 0 22.703.297 23 23 23z" fill="url(#b)"/>
  <g transform="scale(3.543307)">
    <path d="m4.354 10.537l2.041-4.829-.206-.745c-.088-.251-.169-.427-.243-.53-.074-.103-.161-.181-.261-.234-.097-.053-.218-.08-.363-.08-.171 0-.34.019-.508.057v-.588c.2-.05.393-.075.579-.075.268 0 .491.044.668.133.18.088.335.228.464.42.13.192.274.511.433.959l1.605 4.474c.056.144.115.255.177.332.062.074.144.111.248.111.08 0 .168-.015.265-.044v.535c-.141.071-.302.106-.482.106-.218 0-.389-.056-.513-.168-.121-.112-.224-.29-.309-.535l-1.145-3.395-1.689 4.098" opacity=".1" transform="matrix(1.0371049 0 0 .96422259 .28225376 0)"/>
    <path d="m4.354 10.537l2.041-4.829-.206-.745c-.088-.251-.169-.427-.243-.53-.074-.103-.161-.181-.261-.234-.097-.053-.218-.08-.363-.08-.171 0-.34.019-.508.057v-.588c.2-.05.393-.075.579-.075.268 0 .491.044.668.133.18.088.335.228.464.42.13.192.274.511.433.959l1.605 4.474c.056.144.115.255.177.332.062.074.144.111.248.111.08 0 .168-.015.265-.044v.535c-.141.071-.302.106-.482.106-.218 0-.389-.056-.513-.168-.121-.112-.224-.29-.309-.535l-1.145-3.395-1.689 4.098" fill="#f9f9f9" transform="matrix(1.0371049 0 0 .96422259 0 -.28222191)"/>
  </g>
</svg>
