<svg viewBox="0 0 48 48" xmlns="http://www.w3.org/2000/svg" xmlns:xlink="http://www.w3.org/1999/xlink">
  <linearGradient id="a" gradientTransform="matrix(0 -1 1 0 -.0000015 47.999998)" gradientUnits="userSpaceOnUse" x1="1" x2="47">
    <stop offset="0" stop-color="#8ad14f"/>
    <stop offset="1" stop-color="#90d15b"/>
  </linearGradient>
  <path d="m47 24c0 22.703-.297 23-23 23-22.703 0-23-.297-23-23 0-22.703.297-23 23-23 22.703 0 23 .297 23 23z" fill="url(#a)"/>
  <path d="m16.391 18.11c-2.378.04-4.339.923-4.971 2.936-1.796 5.724 10.459 10.09 15.771 6.52l5.725 1.795c1.965 3.76 6.38 3.049 4.266-.234 3.611-1.488.393-4.592-3.367-2.627l-5.725-1.797c-1.015-2.611-3.989-4.733-7.164-5.814-1.531-.522-3.108-.801-4.535-.777" fill-rule="evenodd" opacity=".1"/>
  <path d="m26.19 26.563l5.725 1.796c1.965 3.76 6.38 3.049 4.266-.234 3.611-1.488.393-4.593-3.368-2.628l-5.725-1.796z" fill="#f9f9f9" fill-rule="evenodd"/>
  <path d="m19.925 17.885c-4.082-1.391-8.495-1.062-9.505 2.158-1.796 5.724 10.459 10.09 15.772 6.519.299-.954.599-1.908.898-2.862-1.015-2.611-3.989-4.733-7.164-5.815z" fill="#dd6a77" fill-rule="evenodd"/>
</svg>
