<svg xmlns="http://www.w3.org/2000/svg" viewBox="0 0 48 48">
 <defs>
  <linearGradient id="linearGradient4250" y1="1" x2="0" y2="47" gradientUnits="userSpaceOnUse">
   <stop style="stop-color:#16b0b2;stop-opacity:1"/>
   <stop offset="1" style="stop-color:#139fa1;stop-opacity:1"/>
  </linearGradient>
 </defs>
 <g>
  
  
  
 </g>
 <g style="fill:#d7e3f4;fill-opacity:1">
  <path d="M 24,1 C 46.703,1 47,1.297 47,24 47,46.703 46.703,47 24,47 1.297,47 1,46.703 1,24 1,1.297 1.297,1 24,1 Z" style="fill:url(#linearGradient4250)"/>
 </g>
 <g>
  
 </g>
 <path d="m 32.896 37.965 -5.289 -5.837 -0.274 7.872 l -2.652 -7.416 -3.266 7.168 0.388 -7.867 -5.76 5.372 3.369 -7.12 -7.377 2.759 l 5.837 -5.289 -7.872 -0.274 l 7.416 -2.652 -7.168 -3.266 7.867 0.388 -5.372 -5.76 7.12 3.369 -2.759 -7.377 5.289 5.837 0.274 -7.872 2.652 7.416 3.266 -7.168 -0.388 7.867 5.76 -5.372 -3.369 7.12 7.377 -2.759 -5.837 5.289 7.872 0.274 -7.416 2.652 7.168 3.266 -7.867 -0.388 5.372 5.76 -7.12 -3.369 z" style="fill:#000;opacity:0.1;fill-opacity:1;stroke:none"/>
 <path d="m 31.896 36.965 -5.289 -5.837 -0.274 7.872 l -2.652 -7.416 -3.266 7.168 0.388 -7.867 -5.76 5.372 3.369 -7.12 -7.377 2.759 5.837 -5.289 -7.872 -0.274 7.416 -2.652 -7.168 -3.266 7.867 0.388 -5.372 -5.76 7.12 3.369 -2.759 -7.377 5.289 5.837 0.274 -7.872 2.652 7.416 3.266 -7.168 -0.388 7.867 5.76 -5.372 -3.369 7.12 7.377 -2.759 -5.837 5.289 7.872 0.274 -7.416 2.652 7.168 3.266 -7.867 -0.388 5.372 5.76 -7.12 -3.369 z" style="fill:#e4ce26;opacity:1;fill-opacity:1;stroke:none"/>
</svg>
