<svg viewBox="0 0 48 48" xmlns="http://www.w3.org/2000/svg" xmlns:xlink="http://www.w3.org/1999/xlink">
  <linearGradient id="a" gradientTransform="matrix(0 -1 1 0 -.0000015 47.999998)" gradientUnits="userSpaceOnUse" x1="1" x2="47">
    <stop offset="0" stop-color="#e1e1e1"/>
    <stop offset="1" stop-color="#ebebeb"/>
  </linearGradient>
  <path d="m47 24c0 22.703-.297 23-23 23-22.703 0-23-.297-23-23 0-22.703.297-23 23-23 22.703 0 23 .297 23 23z" fill="url(#a)"/>
  <path d="m16 13c-.554 0-1 .446-1 1v7h-3l8 7 3.883-3.398c-.855-.64-1.974-1.734-2.758-2.986-1.247-1.992-2.125-3.515-2.125-7.615 0-.554-.446-1-1-1h-2zm6 0c-.554 0-1 .446-1 1v2.6c0 3.753 1.796 6.257 3.463 7.494l3.537-3.094h-3v-7c0-.554-.446-1-1-1zm8 9l-3.883 3.398c.855.64 1.974 1.734 2.758 2.986 1.247 1.992 2.125 3.515 2.125 7.615 0 .554.446 1 1 1h2c .554 0 1-.446 1-1v-7h3l-8-7zm-4.463 3.906l-3.537 3.094h3v7c0 .554.446 1 1 1h2c .554 0 1-.446 1-1v-2.6c0-3.753-1.796-6.257-3.463-7.494z" opacity=".1"/>
  <path d="m15 12c-.554 0-1 .446-1 1 0 2.333 0 4.667 0 7h-3l8 7 3.883-3.398c-.855-.64-1.974-1.734-2.758-2.986-1.247-1.992-2.125-3.515-2.125-7.615 0-.554-.446-1-1-1" fill="#d89f54"/>
  <path d="m21 12c-.554 0-1 .446-1 1 0 .867 0 1.733 0 2.6 0 3.753 1.796 6.257 3.463 7.494l3.537-3.094h-3c0-2.333 0-4.667 0-7 0-.554-.446-1-1-1z" fill="#646464"/>
  <path d="m15 13v8h-1.34l5.34 4.672 2.465-2.156c-.755-.682-1.553-1.356-2.188-2.369-1.257-2.01-2.277-3.902-2.277-8.145z" fill="#c3822d"/>
  <path d="m21 13v2.6c0 3.01 1.282 4.913 2.553 6.088l.785-.688h-1.338v-8z" fill="#464646"/>
  <path d="m33 36c .554 0 1-.446 1-1 0-2.333 0-4.667 0-7h3l-8-7-3.883 3.398c.855.64 1.974 1.734 2.758 2.986 1.247 1.992 2.125 3.515 2.125 7.615 0 .554.446 1 1 1" fill="#646464"/>
  <path d="m27 36c .554 0 1-.446 1-1 0-.867 0-1.733 0-2.6 0-3.753-1.796-6.257-3.463-7.494l-3.537 3.094h3c0 2.333 0 4.667 0 7 0 .554.446 1 1 1z" fill="#d89f54"/>
  <path d="m33 35v-8h1.34l-5.34-4.672-2.465 2.156c.755.682 1.553 1.356 2.188 2.369 1.257 2.01 2.277 3.902 2.277 8.145z" fill="#464646"/>
  <path d="m27 35v-2.6c0-3.01-1.282-4.913-2.553-6.088l-.785.688h1.338v8z" fill="#c3822d"/>
</svg>
