<svg viewBox="0 0 48 48" xmlns="http://www.w3.org/2000/svg" xmlns:xlink="http://www.w3.org/1999/xlink">
  <linearGradient id="a" gradientTransform="matrix(0 -1 1 0 -.0000015 47.999998)" gradientUnits="userSpaceOnUse" x1="1" x2="47">
    <stop offset="0" stop-color="#e4e4e4"/>
    <stop offset="1" stop-color="#eee"/>
  </linearGradient>
  <path d="m47 24c0 22.703-.297 23-23 23-22.703 0-23-.297-23-23 0-22.703.297-23 23-23 22.703 0 23 .297 23 23z" fill="url(#a)"/>
  <circle cx="25" cy="25" opacity=".1" r="15"/>
  <circle cx="24" cy="24" fill="#3b66f1" r="15"/>
  <path d="m24 10c-.2.001-.4.011-.6.029-7.486.321-13.396 6.478-13.4 13.971-.004 7.495 5.895 13.597 13.299 13.965a7 7 0 0 1-6.299-6.965 7 7 0 0 1  7-7c3.866 0 7-3.134 7-7 0-3.866-3.134-7-7-7zm0 5a2 2 0 0 1 2 2 2 2 0 0 1-2 2 2 2 0 0 1-2-2 2 2 0 0 1  2-2zm0 14a2 2 0 0 0-2 2 2 2 0 0 0  2 2 2 2 0 0 0  2-2 2 2 0 0 0-2-2z" fill="#f9f9f9"/>
</svg>
