<svg viewBox="0 0 48 48" xmlns="http://www.w3.org/2000/svg" xmlns:xlink="http://www.w3.org/1999/xlink">
  <linearGradient id="a" gradientTransform="matrix(0 -1 1 0 -.0000015 47.999998)" gradientUnits="userSpaceOnUse" x1="1" x2="47">
    <stop offset="0" stop-color="#e4e4e4"/>
    <stop offset="1" stop-color="#eee"/>
  </linearGradient>
  <linearGradient id="b" gradientTransform="matrix(0 .66671281 -.66671281 0 41.765064 16.948211)" gradientUnits="userSpaceOnUse" x1="-10.421" x2="31.577">
    <stop offset="0" stop-color="#8593f4"/>
    <stop offset="1" stop-color="#455bbf"/>
  </linearGradient>
  <path d="m47 24c0 22.703-.297 23-23 23-22.703 0-23-.297-23-23 0-22.703.297-23 23-23 22.703 0 23 .297 23 23z" fill="url(#a)"/>
  <path d="m25 10c-8.285 0-15 6.715-15 15 0 8.285 6.715 15 15 15 8.285 0 15-6.715 15-15 0-8.285-6.715-15-15-15z" fill-rule="evenodd" opacity=".1" transform=""/>
  <path d="m24 9c-8.285 0-15 6.715-15 15 0 8.285 6.715 15 15 15 8.285 0 15-6.715 15-15 0-8.285-6.715-15-15-15z" fill="#f9f9f9" fill-rule="evenodd"/>
  <path d="m24 10c-7.73 0-14 6.269-14 14 0 7.73 6.269 14 14 14 7.73 0 14-6.269 14-14 0-7.73-6.269-14-14-14zm0 9a5 5 0 0 1 5 5 5 5 0 0 1-5 5 5 5 0 0 1-5-5 5 5 0 0 1  5-5zm0 2a3 3 0 0 0-3 3 3 3 0 0 0  3 3 3 3 0 0 0  3-3 3 3 0 0 0-3-3zm0 1a2 2 0 0 1 2 2 2 2 0 0 1-2 2 2 2 0 0 1-2-2 2 2 0 0 1  2-2zm-3 9h2v2h-2zm4 0h2v2h-2zm-4 3h2v2h-2zm4 0h2v2h-2z" fill="url(#b)" fill-rule="evenodd"/>
</svg>
