<svg xmlns="http://www.w3.org/2000/svg" viewBox="0 0 48 48">
 <defs>
  <linearGradient id="linearGradient3764" x1="1" x2="47" gradientUnits="userSpaceOnUse" gradientTransform="matrix(0,-1,1,0,-1.5e-6,47.999998)">
   <stop style="stop-color:#333;stop-opacity:1"/>
   <stop offset="1" style="stop-color:#3d3d3d;stop-opacity:1"/>
  </linearGradient>
 </defs>
 <g>
  
  
  
 </g>
 <g>
  <path d="m 47,24 C 47,46.703 46.703,47 24,47 1.297,47 1,46.703 1,24 1,1.297 1.297,1 24,1 46.703,1 47,1.297 47,24 z" style="fill:url(#linearGradient3764);fill-opacity:1"/>
 </g>
 <g>
  <g>
   <g transform="translate(1,1)">
    <g style="opacity:0.1">
     <!-- color: #3d3d3d -->
    </g>
   </g>
  </g>
 </g>
 <g transform="translate(1,1)" style="fill:#000;opacity:0.1">
  <g style="fill:#000">
   <!-- color: #3d3d3d -->
   <g style="fill:#000">
    <path d="m 24 11 c -7.176 0 -13 5.824 -13 13 0 7.176 5.824 13 13 13 7.176 0 13 -5.824 13 -13 0 -1.348 -0.188 -2.652 -0.566 -3.875 -0.629 1.289 -1.27 2.5 -1.883 3.445 0.055 0.074 0.141 0.145 0.176 0.211 l -0.531 0.109 -0.035 0.352 -3.336 4.441 c 0.11 0.195 0.189 0.702 0.246 0.926 0.043 2.402 -2.475 2.547 -5.646 3.23 0 0 1.078 -1.727 1.953 -3.586 0.453 -0.965 1.357 -1.363 2.162 -1.281 l 2.314 -5.04 0.281 -0.25 -0.178 -0.531 c 0.078 -0.016 0.164 -0.004 0.25 0 0.758 -1.371 1.805 -3.115 2.875 -4.896 -2.281 -3.742 -6.381 -6.25 -11.08 -6.25 z m 0 9 c 2.209 0 4 1.791 4 4 0 2.209 -1.791 4 -4 4 -2.209 0 -4 -1.791 -4 -4 0 -2.209 1.791 -4 4 -4 z m 0 1 c -1.657 0 -3 1.343 -3 3 0 1.657 1.343 3 3 3 1.657 0 3 -1.343 3 -3 0 -1.657 -1.343 -3 -3 -3 z m 0 1 c 1.105 0 2 0.895 2 2 0 1.105 -0.895 2 -2 2 -1.105 0 -2 -0.895 -2 -2 0 -1.105 0.895 -2 2 -2 z" style="fill:#000;fill-opacity:1;stroke:none;fill-rule:nonzero"/>
   </g>
  </g>
 </g>
 <g>
  <g>
   <!-- color: #3d3d3d -->
   <g>
    <path d="m 24 11 c -7.176 0 -13 5.824 -13 13 0 7.176 5.824 13 13 13 7.176 0 13 -5.824 13 -13 0 -1.348 -0.188 -2.652 -0.566 -3.875 -0.629 1.289 -1.27 2.5 -1.883 3.445 0.055 0.074 0.141 0.145 0.176 0.211 l -0.531 0.109 -0.035 0.352 -3.336 4.441 c 0.11 0.195 0.189 0.702 0.246 0.926 0.043 2.402 -2.475 2.547 -5.646 3.23 0 0 1.078 -1.727 1.953 -3.586 0.453 -0.965 1.357 -1.363 2.162 -1.281 l 2.314 -5.04 0.281 -0.25 -0.178 -0.531 c 0.078 -0.016 0.164 -0.004 0.25 0 0.758 -1.371 1.805 -3.115 2.875 -4.896 -2.281 -3.742 -6.381 -6.25 -11.08 -6.25 z m 0 9 c 2.209 0 4 1.791 4 4 0 2.209 -1.791 4 -4 4 -2.209 0 -4 -1.791 -4 -4 0 -2.209 1.791 -4 4 -4 z m 0 1 c -1.657 0 -3 1.343 -3 3 0 1.657 1.343 3 3 3 1.657 0 3 -1.343 3 -3 0 -1.657 -1.343 -3 -3 -3 z m 0 1 c 1.105 0 2 0.895 2 2 0 1.105 -0.895 2 -2 2 -1.105 0 -2 -0.895 -2 -2 0 -1.105 0.895 -2 2 -2 z" style="fill:#f462c7;fill-opacity:1;stroke:none;fill-rule:nonzero"/>
   </g>
  </g>
 </g>
 <g>
  
 </g>
</svg>
