<svg viewBox="0 0 48 48" xmlns="http://www.w3.org/2000/svg" xmlns:xlink="http://www.w3.org/1999/xlink">
  <linearGradient id="a" gradientTransform="matrix(0 -1 1 0 -.0000015 47.999998)" gradientUnits="userSpaceOnUse" x1="1" x2="47">
    <stop offset="0" stop-color="#333"/>
    <stop offset="1" stop-color="#3d3d3d"/>
  </linearGradient>
  <path d="m47 24c0 22.703-.297 23-23 23-22.703 0-23-.297-23-23 0-22.703.297-23 23-23 22.703 0 23 .297 23 23z" fill="url(#a)"/>
  <path d="m24 11c-7.176 0-13 5.824-13 13 0 7.176 5.824 13 13 13 7.176 0 13-5.824 13-13 0-1.348-.188-2.652-.566-3.875-.629 1.289-1.27 2.5-1.883 3.445.055.074.141.145.176.211l-.531.109-.035.352-3.336 4.441c.11.195.189.702.246.926.043 2.402-2.475 2.547-5.646 3.23 0 0 1.078-1.727 1.953-3.586.453-.965 1.357-1.363 2.162-1.281l2.314-5.04.281-.25-.178-.531c.078-.016.164-.004.25 0 .758-1.371 1.805-3.115 2.875-4.896-2.281-3.742-6.381-6.25-11.08-6.25zm0 9c2.209 0 4 1.791 4 4 0 2.209-1.791 4-4 4-2.209 0-4-1.791-4-4 0-2.209 1.791-4 4-4zm0 1c-1.657 0-3 1.343-3 3 0 1.657 1.343 3 3 3 1.657 0 3-1.343 3-3 0-1.657-1.343-3-3-3zm0 1c1.105 0 2 .895 2 2 0 1.105-.895 2-2 2-1.105 0-2-.895-2-2 0-1.105.895-2 2-2z" opacity=".1" transform="translate(1 1)"/>
  <path d="m24 11c-7.176 0-13 5.824-13 13 0 7.176 5.824 13 13 13 7.176 0 13-5.824 13-13 0-1.348-.188-2.652-.566-3.875-.629 1.289-1.27 2.5-1.883 3.445.055.074.141.145.176.211l-.531.109-.035.352-3.336 4.441c.11.195.189.702.246.926.043 2.402-2.475 2.547-5.646 3.23 0 0 1.078-1.727 1.953-3.586.453-.965 1.357-1.363 2.162-1.281l2.314-5.04.281-.25-.178-.531c.078-.016.164-.004.25 0 .758-1.371 1.805-3.115 2.875-4.896-2.281-3.742-6.381-6.25-11.08-6.25zm0 9c2.209 0 4 1.791 4 4 0 2.209-1.791 4-4 4-2.209 0-4-1.791-4-4 0-2.209 1.791-4 4-4zm0 1c-1.657 0-3 1.343-3 3 0 1.657 1.343 3 3 3 1.657 0 3-1.343 3-3 0-1.657-1.343-3-3-3zm0 1c1.105 0 2 .895 2 2 0 1.105-.895 2-2 2-1.105 0-2-.895-2-2 0-1.105.895-2 2-2z" fill="#f462c7"/>
</svg>
