<svg viewBox="0 0 48 48" xmlns="http://www.w3.org/2000/svg">
  <path d="m24 1c22.703 0 23 .297 23 23 0 22.703-.297 23-23 23-22.703 0-23-.297-23-23 0-22.703.297-23 23-23z" fill="#f4e3d8"/>
  <path d="m23.719 13c-.588.022-1.193.114-1.75.313a.833.833 0 0 0-.063.031.836.836 0 0 0-.063.031c-.009.003-.022-.004-.031 0a .836.836 0 0 0-.063.031c-1.364.553-2.418 1.648-3.156 2.875a.833.833 0 0 0-.188.25.833.833 0 0 0-.125.313c-.614 1.236-.892 2.534-.938 3.719a.833.833 0 0 0 0 .188.833.833 0 0 0  0 .281c.006.912.146 1.728.313 2.438-.593.297-1.374.732-2.219 1.375-.026.02-.068.011-.094.031a.833.833 0 0 0-.031.031.833.833 0 0 0-.313.281c-.965.821-1.777 1.825-2.313 3.03a.833.833 0 0 0-.094.188.833.833 0 0 0-.063.25c-.485 1.281-.685 2.724-.313 4.094a.833.833 0 0 0  .031.156c.003 0-.003.022 0 .031a.833.833 0 0 0  .031.125.84.84 0 0 0  .063.156c.509 1.356 1.562 2.45 2.875 3.094a.833.833 0 0 0  .094.031c.012.006.019.026.031.031a.833.833 0 0 0  .188.094.833.833 0 0 0  .156.063c1.419.554 3.01.588 4.438.313a.833.833 0 0 0  .156-.031.833.833 0 0 0  .156-.031c1.366-.313 2.52-.931 3.469-1.563a.833.833 0 0 0  .063-.031c.038-.025.088-.037.125-.063.044-.03.082-.063.125-.094a.833.833 0 0 0  .063-.063c.374-.268.7-.544 1-.813.044.028.08.066.125.094a.833.833 0 0 0  .156.125c.008.005.023-.005.031 0a .833.833 0 0 0  .156.063c.85.491 1.898.961 3.125 1.25a.833.833 0 0 0  .063.031c0 .002.021-.002.031 0a .833.833 0 0 0  .219.063.833.833 0 0 0  .156.031c1.299.243 2.762.245 4.156-.156a.833.833 0 0 0  .25-.063c.031 0 .063-.021.094-.031a.833.833 0 0 0  .156-.063c1.384-.507 2.598-1.451 3.313-2.719a.833.833 0 0 0  .156-.25c.681-1.393.686-3.01.188-4.469a.836.836 0 0 0-.063-.188c-.008-.021-.023-.041-.031-.063a.833.833 0 0 0 0-.031c-.546-1.387-1.56-2.513-2.625-3.375a.835.835 0 0 0-.156-.156c-.024-.018-.039-.044-.063-.063a.833.833 0 0 0-.156-.063c-1.017-.75-2.059-1.233-3-1.563a.84.84 0 0 0-.031-.031c-.043-.015-.083-.048-.125-.063a.84.84 0 0 0-.031 0c-.055-.018-.102-.014-.156-.031a.833.833 0 0 0-.094-.031c-.033 0-.061-.021-.094-.031.016-.358.018-.725 0-1.125a.833.833 0 0 0 0-.344c-.003-.04.003-.085 0-.125a.833.833 0 0 0-.031-.031c-.102-1.165-.377-2.491-1.063-3.781-.011-.02-.02-.042-.031-.063a.833.833 0 0 0-.063-.094c-.696-1.26-1.734-2.426-3.094-3.125a.839.839 0 0 0-.094-.063c-.021 0-.042-.021-.063-.031a.833.833 0 0 0-.156-.063c-.675-.301-1.394-.487-2.125-.531-.202-.012-.39-.008-.594 0zm .5 1.656c.562.037 1.11.194 1.625.438a.833.833 0 0 0  .031.031c.009.004.023-.004.031 0a .839.839 0 0 0  .063.031c1 .513 1.873 1.472 2.438 2.5a.833.833 0 0 0  .063.063c.004.008-.004.024 0 .031a.833.833 0 0 0  .094.156c.495.993.73 2.052.813 3a .833.833 0 0 0 0 .063c.002.02-.002.042 0 .063a.833.833 0 0 0 0 .094c.018.293.037.575.031.844-.211-.038-.433-.067-.625-.094a.835.835 0 0 0-.063-.031c-.009 0-.022 0-.031 0a .835.835 0 0 0-.031 0c-.743-.098-1.356-.136-1.906-.156a.844.844 0 0 0-.031 0c-.54-.022-1.016-.012-1.469 0a .833.833 0 0 0-.063 0 .833.833 0 0 0-.094 0 .833.833 0 0 0-.031 0c-.428.014-.84.044-1.281.094a.833.833 0 0 0-.156.031c-.431.05-.873.094-1.281.156a.838.838 0 0 0-.25.063c-.359.055-.787.128-1.344.281a.838.838 0 0 0-.125.031.833.833 0 0 0-.063.031.833.833 0 0 0-.313.125c-.393.123-.675.221-1.031.344-.132-.627-.235-1.294-.219-2.063a.833.833 0 0 0 0-.094c.034-1.054.281-2.232.813-3.25a.833.833 0 0 0  .063-.125.833.833 0 0 0  .031-.063c.592-1.044 1.521-1.949 2.563-2.344a.836.836 0 0 0  .031 0 .833.833 0 0 0  .063-.031c.519-.182 1.095-.256 1.656-.219zm.844 8.687a.833.833 0 0 0  .156 0 .833.833 0 0 0  .094 0c .414-.008.855.011 1.344.031a.844.844 0 0 0  .094 0c .497.017 1.033.038 1.688.125a.835.835 0 0 0  .094 0c .213.029.454.079.688.125-.003.019.003.044 0 .063-.118.668-.256 1.199-.406 1.688a.833.833 0 0 0-.031.094c-.006.021-.025.042-.031.063a.835.835 0 0 0-.031.094c-.136.429-.241.803-.375 1.156a.833.833 0 0 0-.031.063c-.008.02-.023.042-.031.063a.833.833 0 0 0-.031.094c-.009.022-.022.04-.031.063a.833.833 0 0 0-.031.063c-.121.28-.248.55-.375.813a.833.833 0 0 0-.031.063c0 .02-.021.042-.031.063-.174.351-.354.703-.563 1.063a.833.833 0 0 0-.031.063c-.225.383-.465.762-.781 1.219a.833.833 0 0 0 0 .031.841.841 0 0 0-.125.188c-.25.354-.539.734-.906 1.156a.833.833 0 0 0-.125.125c-.011.012-.02.019-.031.031a.833.833 0 0 0-.094.094c-.142-.114-.278-.232-.406-.344a.833.833 0 0 0-.094-.094c-.005-.004.005-.027 0-.031a.833.833 0 0 0-.094-.063.833.833 0 0 0-.188-.156c-.335-.312-.621-.604-.875-.875a.833.833 0 0 0-.188-.219.833.833 0 0 0-.125-.125c-.264-.294-.502-.575-.719-.844a.844.844 0 0 0-.031-.031c-.013-.016-.018-.046-.031-.063a.833.833 0 0 0-.063-.063c-.223-.28-.428-.558-.625-.844a.833.833 0 0 0 0-.031c-.008-.012-.023-.019-.031-.031a.833.833 0 0 0-.031-.031.833.833 0 0 0-.094-.125c-.167-.254-.333-.525-.5-.813a.833.833 0 0 0-.031-.063c-.005-.008.005-.023 0-.031a.833.833 0 0 0-.063-.094c-.204-.351-.431-.762-.656-1.219a.833.833 0 0 0-.031-.094c-.011-.024-.02-.039-.031-.063a.833.833 0 0 0-.031-.031.833.833 0 0 0-.031-.063c-.165-.354-.313-.749-.469-1.188.387-.134.721-.25 1.125-.375a.833.833 0 0 0  .094-.031c.052-.016.107-.017.156-.031a.838.838 0 0 0  .094-.031c.624-.18 1.01-.247 1.438-.313a.838.838 0 0 0  .031 0c .427-.065.854-.141 1.25-.188a.833.833 0 0 0  .125 0c .032-.004.062.003.094 0a .833.833 0 0 0  .031 0c .327-.035.637-.08.969-.094zm5.781.719a.84.84 0 0 0  .094.031c.899.307 1.886.748 2.813 1.469a.835.835 0 0 0  .063.063c.934.741 1.808 1.756 2.219 2.844a.836.836 0 0 0  .031.063c.379 1.052.378 2.223-.031 3.156a.833.833 0 0 0-.031.063c0 .021-.021.042-.031.063a.833.833 0 0 0-.031.063c-.486.94-1.479 1.736-2.625 2.125a.833.833 0 0 0-.094.031c-1.155.369-2.511.364-3.688.125-1.165-.236-2.187-.683-3-1.156a.833.833 0 0 0-.063-.031c0-.012.021-.02.031-.031a.833.833 0 0 0  .063-.094c.42-.483.78-.913 1.063-1.313a.841.841 0 0 0  .031-.031c.008-.011.023-.02.031-.031a.841.841 0 0 0  .063-.094c.018-.027.045-.036.063-.063a.833.833 0 0 0  .063-.156c.243-.365.466-.708.656-1.031a.833.833 0 0 0  .063-.094c.012-.021.019-.041.031-.063a.833.833 0 0 0  .063-.156c.163-.287.327-.564.469-.844a.833.833 0 0 0  .031-.063c.016-.033.046-.061.063-.094a.833.833 0 0 0 0-.031c.006-.012.025-.019.031-.031a.833.833 0 0 0  .063-.188c.126-.265.256-.531.375-.813a.833.833 0 0 0  .094-.219c.159-.408.336-.864.5-1.375a.835.835 0 0 0  .031-.125c.009-.028.022-.065.031-.094a.833.833 0 0 0  .031-.156c.147-.479.312-1.028.438-1.688a.84.84 0 0 0 0-.031zm-12.719 1.031c.152.419.317.794.469 1.125a.833.833 0 0 0  .063.156.833.833 0 0 0  .125.219c.201.406.407.766.594 1.094a.833.833 0 0 0  .094.219.833.833 0 0 0  .094.125c.18.309.351.599.531.875a.833.833 0 0 0  .125.219.833.833 0 0 0  .156.188c.172.252.343.505.531.75a.833.833 0 0 0  .063.094c.005.007-.005.025 0 .031a.833.833 0 0 0  .063.063.844.844 0 0 0  .125.125c.219.263.461.533.719.813a.833.833 0 0 0  .063.063c.011.012.021.02.031.031a.833.833 0 0 0  .063.094.833.833 0 0 0  .188.188c.303.325.641.677 1.063 1.063a.833.833 0 0 0  .094.094.833.833 0 0 0  .25.188c.095.083.209.164.313.25-.238.198-.498.399-.781.594a.833.833 0 0 0-.125.094c-.829.554-1.855 1.055-3 1.313a.833.833 0 0 0-.094.031.833.833 0 0 0-.156.031c-1.181.222-2.487.171-3.531-.25a.833.833 0 0 0-.063-.031.833.833 0 0 0-.063-.031c-1.055-.467-1.903-1.345-2.25-2.344a.84.84 0 0 0 0-.031.833.833 0 0 0-.031-.094c-.304-.994-.18-2.235.25-3.313a.833.833 0 0 0  .031-.063.833.833 0 0 0  .063-.156c.441-.998 1.117-1.861 1.969-2.563a.833.833 0 0 0  .063-.031c.012-.009.02-.022.031-.031a.833.833 0 0 0  .063-.063.833.833 0 0 0  .063-.063c.593-.453 1.214-.782 1.75-1.063z" opacity=".1"/>
  <path d="m22.719 12c-.588.022-1.193.114-1.75.313a.833.833 0 0 0-.063.031.836.836 0 0 0-.063.031c-.009.003-.022-.003-.031 0a .836.836 0 0 0-.063.031c-1.364.553-2.418 1.648-3.156 2.875a.833.833 0 0 0-.188.25.833.833 0 0 0-.125.313c-.614 1.236-.892 2.534-.938 3.719a.833.833 0 0 0 0 .188.833.833 0 0 0  0 .281c.006.912.146 1.728.313 2.438-.593.297-1.374.732-2.219 1.375-.026.02-.068.011-.094.031a.833.833 0 0 0-.031.031.833.833 0 0 0-.313.281c-.965.821-1.777 1.825-2.313 3.03a.833.833 0 0 0-.094.188.833.833 0 0 0-.063.25c-.485 1.281-.685 2.724-.313 4.094a.833.833 0 0 0  .031.156c.003 0-.003.022 0 .031a.833.833 0 0 0  .031.125.84.84 0 0 0  .063.156c.509 1.356 1.562 2.45 2.875 3.094a.833.833 0 0 0  .094.031c.012.006.019.026.031.031a.833.833 0 0 0  .188.094.833.833 0 0 0  .156.063c1.419.554 3.01.588 4.438.313a.833.833 0 0 0  .156-.031.833.833 0 0 0  .156-.031c1.366-.313 2.52-.931 3.469-1.563a.833.833 0 0 0  .063-.031c.038-.025.088-.037.125-.063.044-.03.082-.063.125-.094a.833.833 0 0 0  .063-.063c.374-.268.7-.544 1-.813.044.028.08.066.125.094a.833.833 0 0 0  .156.125c.008.005.023-.005.031 0a .833.833 0 0 0  .156.063c.85.491 1.898.961 3.125 1.25a.833.833 0 0 0  .063.031c0 .002.021-.002.031 0a .833.833 0 0 0  .219.063.833.833 0 0 0  .156.031c1.299.243 2.762.245 4.156-.156a.833.833 0 0 0  .25-.063c.031 0 .063-.021.094-.031a.833.833 0 0 0  .156-.063c1.384-.507 2.598-1.451 3.313-2.719a.833.833 0 0 0  .156-.25c.681-1.393.686-3.01.188-4.469a.836.836 0 0 0-.063-.188c-.008-.021-.023-.041-.031-.063a.833.833 0 0 0 0-.031c-.546-1.387-1.56-2.513-2.625-3.375a.835.835 0 0 0-.156-.156c-.024-.018-.039-.044-.063-.063a.833.833 0 0 0-.156-.063c-1.017-.75-2.059-1.233-3-1.563a.84.84 0 0 0-.031-.031c-.043-.015-.083-.048-.125-.063a.84.84 0 0 0-.031 0c-.055-.018-.102-.014-.156-.031a.833.833 0 0 0-.094-.031c-.033 0-.061-.021-.094-.031.016-.358.018-.725 0-1.125a.833.833 0 0 0 0-.344c-.003-.04.003-.085 0-.125a.833.833 0 0 0-.031-.031c-.102-1.165-.377-2.491-1.063-3.781-.011-.02-.02-.042-.031-.063a.833.833 0 0 0-.063-.094c-.696-1.26-1.734-2.426-3.094-3.125a.839.839 0 0 0-.094-.063c-.021 0-.042-.021-.063-.031a.833.833 0 0 0-.156-.063c-.675-.301-1.394-.487-2.125-.531-.202-.012-.39-.008-.594 0zm .5 1.656c.562.037 1.11.194 1.625.438a.833.833 0 0 0  .031.031c.009.004.023-.004.031 0a .839.839 0 0 0  .063.031c1 .513 1.873 1.472 2.438 2.5a.833.833 0 0 0  .063.063c.004.008-.004.024 0 .031a.833.833 0 0 0  .094.156c.495.993.73 2.052.813 3a .833.833 0 0 0 0 .063c.002.02-.002.042 0 .063a.833.833 0 0 0 0 .094c.018.293.037.575.031.844-.211-.038-.433-.067-.625-.094a.835.835 0 0 0-.063-.031c-.009 0-.022 0-.031 0a .835.835 0 0 0-.031 0c-.743-.098-1.356-.136-1.906-.156a.844.844 0 0 0-.031 0c-.54-.022-1.016-.012-1.469 0a .833.833 0 0 0-.063 0 .833.833 0 0 0-.094 0 .833.833 0 0 0-.031 0c-.428.014-.84.044-1.281.094a.833.833 0 0 0-.156.031c-.431.05-.873.094-1.281.156a.838.838 0 0 0-.25.063c-.359.055-.787.128-1.344.281a.838.838 0 0 0-.125.031.833.833 0 0 0-.063.031.833.833 0 0 0-.313.125c-.393.123-.675.221-1.031.344-.132-.627-.235-1.294-.219-2.063a.833.833 0 0 0 0-.094c.034-1.054.281-2.232.813-3.25a.833.833 0 0 0  .063-.125.833.833 0 0 0  .031-.063c.592-1.044 1.521-1.949 2.563-2.344a.836.836 0 0 0  .031 0 .833.833 0 0 0  .063-.031c.519-.182 1.095-.256 1.656-.219zm.844 8.688a.833.833 0 0 0  .156 0 .833.833 0 0 0  .094 0c .414-.007.855.011 1.344.031a.844.844 0 0 0  .094 0c .497.017 1.033.038 1.688.125a.835.835 0 0 0  .094 0c .213.029.454.079.688.125-.003.019.003.044 0 .063-.118.668-.256 1.199-.406 1.688a.833.833 0 0 0-.031.094c-.006.021-.025.042-.031.063a.835.835 0 0 0-.031.094c-.136.429-.241.803-.375 1.156a.833.833 0 0 0-.031.063c-.008.02-.023.042-.031.063a.833.833 0 0 0-.031.094c-.009.022-.022.04-.031.063a.833.833 0 0 0-.031.063c-.121.28-.248.55-.375.813a.833.833 0 0 0-.031.063c0 .02-.021.042-.031.063-.174.351-.354.703-.563 1.063a.833.833 0 0 0-.031.063c-.225.383-.465.762-.781 1.219a.833.833 0 0 0 0 .031.841.841 0 0 0-.125.188c-.25.354-.539.734-.906 1.156a.833.833 0 0 0-.125.125c-.011.012-.02.019-.031.031a.833.833 0 0 0-.094.094c-.142-.114-.278-.232-.406-.344a.833.833 0 0 0-.094-.094c-.005-.004.005-.027 0-.031a.833.833 0 0 0-.094-.063.833.833 0 0 0-.188-.156c-.335-.312-.621-.604-.875-.875a.833.833 0 0 0-.188-.219.833.833 0 0 0-.125-.125c-.264-.294-.502-.575-.719-.844a.844.844 0 0 0-.031-.031c-.013-.016-.018-.046-.031-.063a.833.833 0 0 0-.063-.063c-.223-.28-.428-.558-.625-.844a.833.833 0 0 0 0-.031c-.008-.012-.023-.019-.031-.031a.833.833 0 0 0-.031-.031.833.833 0 0 0-.094-.125c-.167-.254-.333-.525-.5-.813a.833.833 0 0 0-.031-.063c-.005-.008.005-.023 0-.031a.833.833 0 0 0-.063-.094c-.204-.351-.431-.762-.656-1.219a.833.833 0 0 0-.031-.094c-.011-.024-.02-.039-.031-.063a.833.833 0 0 0-.031-.031.833.833 0 0 0-.031-.063c-.165-.354-.313-.749-.469-1.188.387-.134.721-.25 1.125-.375a.833.833 0 0 0  .094-.031c.052-.016.107-.017.156-.031a.838.838 0 0 0  .094-.031c.624-.18 1.01-.247 1.438-.313a.838.838 0 0 0  .031 0c .427-.065.854-.141 1.25-.188a.833.833 0 0 0  .125 0c .032-.004.062.003.094 0a .833.833 0 0 0  .031 0c .327-.035.637-.08.969-.094zm5.781.719a.84.84 0 0 0  .094.031c.899.307 1.886.748 2.813 1.469a.835.835 0 0 0  .063.063c.934.741 1.808 1.756 2.219 2.844a.836.836 0 0 0  .031.063c.379 1.052.378 2.223-.031 3.156a.833.833 0 0 0-.031.063c0 .021-.021.042-.031.063a.833.833 0 0 0-.031.063c-.486.94-1.479 1.736-2.625 2.125a.833.833 0 0 0-.094.031c-1.155.369-2.511.364-3.688.125-1.165-.236-2.187-.683-3-1.156a.833.833 0 0 0-.063-.031c0-.012.021-.02.031-.031a.833.833 0 0 0  .063-.094c.42-.483.78-.913 1.063-1.313a.841.841 0 0 0  .031-.031c.008-.011.023-.02.031-.031a.841.841 0 0 0  .063-.094c.018-.027.045-.036.063-.063a.833.833 0 0 0  .063-.156c.243-.365.466-.708.656-1.031a.833.833 0 0 0  .063-.094c.012-.021.019-.042.031-.063a.833.833 0 0 0  .063-.156c.163-.287.327-.564.469-.844a.833.833 0 0 0  .031-.063c.016-.033.046-.061.063-.094a.833.833 0 0 0 0-.031c.006-.012.025-.019.031-.031a.833.833 0 0 0  .063-.188c.126-.265.256-.531.375-.813a.833.833 0 0 0  .094-.219c.159-.408.336-.864.5-1.375a.835.835 0 0 0  .031-.125c.009-.028.022-.065.031-.094a.833.833 0 0 0  .031-.156c.147-.479.312-1.028.438-1.688a.84.84 0 0 0 0-.031zm-12.719 1.031c.152.419.317.794.469 1.125a.833.833 0 0 0  .063.156.833.833 0 0 0  .125.219c.201.406.407.766.594 1.094a.833.833 0 0 0  .094.219.833.833 0 0 0  .094.125c.18.309.351.599.531.875a.833.833 0 0 0  .125.219.833.833 0 0 0  .156.188c.172.252.343.505.531.75a.833.833 0 0 0  .063.094c.005.007-.005.025 0 .031a.833.833 0 0 0  .063.063.844.844 0 0 0  .125.125c.219.263.461.533.719.813a.833.833 0 0 0  .063.063c.011.012.021.02.031.031a.833.833 0 0 0  .063.094.833.833 0 0 0  .188.188c.303.325.641.677 1.063 1.063a.833.833 0 0 0  .094.094.833.833 0 0 0  .25.188c.095.083.209.164.313.25-.238.198-.498.399-.781.594a.833.833 0 0 0-.125.094c-.829.554-1.855 1.055-3 1.313a.833.833 0 0 0-.094.031.833.833 0 0 0-.156.031c-1.181.222-2.487.171-3.531-.25a.833.833 0 0 0-.063-.031.833.833 0 0 0-.063-.031c-1.055-.467-1.903-1.345-2.25-2.344a.84.84 0 0 0 0-.031.833.833 0 0 0-.031-.094c-.304-.994-.18-2.235.25-3.313a.833.833 0 0 0  .031-.063.833.833 0 0 0  .063-.156c.441-.998 1.117-1.861 1.969-2.563a.833.833 0 0 0  .063-.031c.012-.009.02-.022.031-.031a.833.833 0 0 0  .063-.063.833.833 0 0 0  .063-.063c.593-.453 1.214-.782 1.75-1.063z" fill="#007d7f"/>
</svg>
