<svg viewBox="0 0 48 48" xmlns="http://www.w3.org/2000/svg" xmlns:xlink="http://www.w3.org/1999/xlink">
  <linearGradient id="a" gradientTransform="matrix(0 -1 1 0 -.0000015 47.999998)" gradientUnits="userSpaceOnUse" x1="1" x2="47">
    <stop offset="0" stop-color="#f4c534"/>
    <stop offset="1" stop-color="#f5cb47"/>
  </linearGradient>
  <path d="m47 24c0 22.703-.297 23-23 23-22.703 0-23-.297-23-23 0-22.703.297-23 23-23 22.703 0 23 .297 23 23z" fill="url(#a)"/>
  <g opacity=".1" transform="translate(1 1)">
    <path d="m28.807 13.01c-1.523 0-3.047.58-4.209 1.742l-9.848 9.848c-2.324 2.324-2.324 6.094 0 8.418l2.238 2.234c2.324 2.324 6.094 2.324 8.418 0l9.326-9.326c.086.201.177.402.281.6-.292.932-.614 1.872-1.508 2.947-1.333 1.494-3.942 3.303-4.852 5.404-.117.286-.177.549-.145.824.032.275.215.564.463.691.497.254.99.096 1.537-.145 3.616-1.665 5.03-5.609 5.563-9.418-.002-.075-.021-.148-.055-.215.266-.949.369-1.86.326-2.715 1.143-2.238.78-5.04-1.094-6.914l-2.234-2.234c-1.162-1.162-2.685-1.742-4.209-1.742zm5.121 17.473c-.279.631-.26 1.486-.629 2.01-1.036 1.466-2.34 2.47-3.191 2.844-.365.161-.541.136-.58.146.006-.054.002-.093.055-.223.293-.717 1.744-2.45 4.346-4.775z" transform="translate(-1 -1)"/>
    <path d="m30.29 16.293c-.391.391-.391 1.023 0 1.414.391.391 1.023.391 1.414 0 .391-.391.391-1.023 0-1.414-.391-.391-1.023-.391-1.414 0m0 0"/>
  </g>
  <path d="m34.25 15.984l-2.234-2.234c-2.324-2.324-6.094-2.324-8.418 0l-9.848 9.848c-2.324 2.324-2.324 6.094 0 8.418l2.238 2.234c2.324 2.324 6.094 2.324 8.418 0l9.844-9.844c2.328-2.328 2.328-6.098 0-8.422m0 0" fill="#f9f9f9"/>
  <path d="m34.25 15.984c2.332 2.332 2.332 6.086 0 8.418l-.355.359-10.656-10.656.359-.355c2.332-2.332 6.086-2.332 8.418 0m2.234 2.234" fill="#f3593d" fill-opacity=".941"/>
  <path d="m30.29 16.293c-.391.391-.391 1.023 0 1.414.391.391 1.023.391 1.414 0 .391-.391.391-1.023 0-1.414-.391-.391-1.023-.391-1.414 0m0 0" fill="#f9f9f9"/>
  <path d="m8.81 4.798c.947.277.301 1.536.947 2.495.057 2.679-3.862 3.777-.474.832 1.338-1.61.078-2.833-.473-3.327m0 0" fill="none" stroke="#868686" stroke-linejoin="round" stroke-width=".282" transform="scale(3.543307)"/>
</svg>
