<svg xmlns="http://www.w3.org/2000/svg" viewBox="0 0 48 48">
 <defs>
  <linearGradient id="linearGradient3764" x1="1" x2="47" gradientUnits="userSpaceOnUse" gradientTransform="matrix(0,-1,1,0,-1.5e-6,47.999998)">
   <stop style="stop-color:#f4c534;stop-opacity:1"/>
   <stop offset="1" style="stop-color:#f5cb47;stop-opacity:1"/>
  </linearGradient>
 </defs>
 <g>
  
  
  
 </g>
 <g>
  <path d="m 47,24 C 47,46.703 46.703,47 24,47 1.297,47 1,46.703 1,24 1,1.297 1.297,1 24,1 46.703,1 47,1.297 47,24 z" style="fill:url(#linearGradient3764);fill-opacity:1"/>
 </g>
 <g>
  <g>
   <g transform="translate(1,1)">
    <g style="opacity:0.1">
     <!-- color: #f5cb47 -->
     <g>
      <path d="m 28.807 13.01 c -1.523 0 -3.047 0.58 -4.209 1.742 l -9.848 9.848 c -2.324 2.324 -2.324 6.094 0 8.418 l 2.238 2.234 c 2.324 2.324 6.094 2.324 8.418 0 l 9.326 -9.326 c 0.086 0.201 0.177 0.402 0.281 0.6 -0.292 0.932 -0.614 1.872 -1.508 2.947 -1.333 1.494 -3.942 3.303 -4.852 5.404 -0.117 0.286 -0.177 0.549 -0.145 0.824 0.032 0.275 0.215 0.564 0.463 0.691 0.497 0.254 0.99 0.096 1.537 -0.145 3.616 -1.665 5.03 -5.609 5.563 -9.418 -0.002 -0.075 -0.021 -0.148 -0.055 -0.215 0.266 -0.949 0.369 -1.86 0.326 -2.715 c 1.143 -2.238 0.78 -5.04 -1.094 -6.914 l -2.234 -2.234 c -1.162 -1.162 -2.685 -1.742 -4.209 -1.742 z m 5.121 17.473 c -0.279 0.631 -0.26 1.486 -0.629 2.01 -1.036 1.466 -2.34 2.47 -3.191 2.844 -0.365 0.161 -0.541 0.136 -0.58 0.146 0.006 -0.054 0.002 -0.093 0.055 -0.223 0.293 -0.717 1.744 -2.45 4.346 -4.775 z" transform="translate(-1,-1)"/>
      <path d="m 30.29 16.293 c -0.391 0.391 -0.391 1.023 0 1.414 c 0.391 0.391 1.023 0.391 1.414 0 c 0.391 -0.391 0.391 -1.023 0 -1.414 c -0.391 -0.391 -1.023 -0.391 -1.414 0 m 0 0" style="fill:#000;fill-opacity:1;stroke:none;fill-rule:nonzero"/>
     </g>
    </g>
   </g>
  </g>
 </g>
 <g>
  <g>
   <!-- color: #f5cb47 -->
   <g>
    <path d="M 34.25,15.984 32.016,13.75 c -2.324,-2.324 -6.094,-2.324 -8.418,0 l -9.848,9.848 c -2.324,2.324 -2.324,6.094 0,8.418 l 2.238,2.234 c 2.324,2.324 6.094,2.324 8.418,0 l 9.844,-9.844 c 2.328,-2.328 2.328,-6.098 0,-8.422 m 0,0" style="fill:#f9f9f9;fill-opacity:1;stroke:none;fill-rule:nonzero"/>
    <path d="m 34.25,15.984 c 2.332,2.332 2.332,6.086 0,8.418 L 33.895,24.761 23.239,14.105 23.598,13.75 c 2.332,-2.332 6.086,-2.332 8.418,0 m 2.234,2.234" style="fill:#f3593d;fill-opacity:0.941;stroke:none;fill-rule:nonzero"/>
    <path d="m 30.29 16.293 c -0.391 0.391 -0.391 1.023 0 1.414 0.391 0.391 1.023 0.391 1.414 0 0.391 -0.391 0.391 -1.023 0 -1.414 -0.391 -0.391 -1.023 -0.391 -1.414 0 m 0 0" style="fill:#f9f9f9;fill-opacity:1;stroke:none;fill-rule:nonzero"/>
    <path d="M 8.81,4.798 C 9.757,5.075 9.111,6.334 9.757,7.293 9.814,9.972 5.895,11.07 9.283,8.125 10.621,6.515 9.361,5.292 8.81,4.798 m 0,0" transform="scale(3.543307,3.543307)" style="stroke-opacity:1;fill:none;stroke-miterlimit:4;stroke:#868686;stroke-linecap:butt;stroke-linejoin:round;stroke-width:0.282"/>
   </g>
  </g>
 </g>
 <g>
  
 </g>
</svg>
