<svg xmlns="http://www.w3.org/2000/svg" viewBox="0 0 48 48">
 <defs>
  <linearGradient id="linearGradient3764" x1="1" x2="47" gradientUnits="userSpaceOnUse" gradientTransform="matrix(0,-1,1,0,-1.5e-6,47.999998)">
   <stop style="stop-color:#e4e4e4;stop-opacity:1"/>
   <stop offset="1" style="stop-color:#eee;stop-opacity:1"/>
  </linearGradient>
 </defs>
 <g>
  
  
  
 </g>
 <g>
  <path d="m 47,24 C 47,46.703 46.703,47 24,47 1.297,47 1,46.703 1,24 1,1.297 1.297,1 24,1 46.703,1 47,1.297 47,24 z" style="fill:url(#linearGradient3764);fill-opacity:1"/>
 </g>
 <g>
  <g>
   <g transform="translate(1,1)">
    <g style="opacity:0.1">
     <!-- color: #eeeeee -->
     <g>
      <path d="m 25.996 12 l 0.004 0 c 6.648 0 12 5.352 12 12 l 0 0.004 c 0 6.645 -5.352 11.996 -12 11.996 l -0.004 0 c -6.645 0 -11.996 -5.352 -11.996 -11.996 l 0 -0.004 c 0 -6.648 5.352 -12 11.996 -12 m 0 0" style="fill:#000;fill-opacity:1;stroke:none;fill-rule:evenodd"/>
      <path d="m 21 12 c -6.648 0 -12 5.352 -12 12 c 0 6.648 5.352 12 12 12 c 0.34 0 0.664 -0.035 1 -0.063 c -6.172 -0.512 -11 -5.633 -11 -11.938 c 0 -6.309 4.828 -11.43 11 -11.938 c -0.336 -0.031 -0.66 -0.066 -1 -0.066 m 0 0.004" style="fill:#000;fill-opacity:1;stroke:none;fill-rule:evenodd"/>
     </g>
    </g>
   </g>
  </g>
 </g>
 <g>
  <g>
   <!-- color: #eeeeee -->
   <g>
    <path d="M 25.996,12 26,12 c 6.648,0 12,5.352 12,12 l 0,0.004 C 38,30.649 32.648,36 26,36 l -0.004,0 C 19.351,36 14,30.648 14,24.004 L 14,24 c 0,-6.648 5.352,-12 11.996,-12 m 0,0" style="fill:#2c2053;fill-opacity:1;stroke:none;fill-rule:evenodd"/>
    <path d="m 21,12 c -6.648,0 -12,5.352 -12,12 0,6.648 5.352,12 12,12 0.34,0 0.664,-0.035 1,-0.063 C 15.828,35.425 11,30.304 11,23.999 11,17.69 15.828,12.569 22,12.061 21.664,12.03 21.34,11.995 21,11.995 m 0,0.004" style="fill:#f4941e;fill-opacity:1;stroke:none;fill-rule:evenodd"/>
    <path d="m 15.09,19 c -0.293,0.641 -0.539,1.305 -0.719,2 l 23.25,0 c -0.18,-0.695 -0.426,-1.359 -0.719,-2 m -22.844,4 c -0.027,0.336 -0.063,0.66 -0.063,1 0,0.34 0.035,0.664 0.063,1 l 23.875,0 c 0.027,-0.336 0.063,-0.66 0.063,-1 0,-0.34 -0.035,-0.664 -0.063,-1 M 14.37,27 c 0.18,0.695 0.43,1.359 0.719,2 l 21.813,0 c 0.293,-0.641 0.543,-1.305 0.719,-2 m -23.25,0" style="fill:#f9f9f9;fill-opacity:1;stroke:none;fill-rule:nonzero"/>
   </g>
  </g>
 </g>
 <g>
  
 </g>
</svg>
