<svg viewBox="0 0 48 48" xmlns="http://www.w3.org/2000/svg" xmlns:xlink="http://www.w3.org/1999/xlink">
  <linearGradient id="a" gradientTransform="matrix(0 -1 1 0 -.0000015 47.999998)" gradientUnits="userSpaceOnUse" x1="1" x2="47">
    <stop offset="0" stop-color="#e4e4e4"/>
    <stop offset="1" stop-color="#eee"/>
  </linearGradient>
  <path d="m47 24c0 22.703-.297 23-23 23-22.703 0-23-.297-23-23 0-22.703.297-23 23-23 22.703 0 23 .297 23 23z" fill="url(#a)"/>
  <g fill-rule="evenodd" opacity=".1" transform="translate(1 1)">
    <path d="m25.996 12h .004c6.648 0 12 5.352 12 12v .004c0 6.645-5.352 11.996-12 11.996h-.004c-6.645 0-11.996-5.352-11.996-11.996v-.004c0-6.648 5.352-12 11.996-12m0 0"/>
    <path d="m21 12c-6.648 0-12 5.352-12 12 0 6.648 5.352 12 12 12 .34 0 .664-.035 1-.063-6.172-.512-11-5.633-11-11.938 0-6.309 4.828-11.43 11-11.938-.336-.031-.66-.066-1-.066m0 .004"/>
  </g>
  <path d="m25.996 12h .004c6.648 0 12 5.352 12 12v .004c0 6.645-5.352 11.996-12 11.996h-.004c-6.645 0-11.996-5.352-11.996-11.996v-.004c0-6.648 5.352-12 11.996-12m0 0" fill="#2c2053" fill-rule="evenodd"/>
  <path d="m21 12c-6.648 0-12 5.352-12 12 0 6.648 5.352 12 12 12 .34 0 .664-.035 1-.063-6.172-.512-11-5.633-11-11.938 0-6.309 4.828-11.43 11-11.938-.336-.031-.66-.066-1-.066m0 .004" fill="#f4941e" fill-rule="evenodd"/>
  <path d="m15.09 19c-.293.641-.539 1.305-.719 2h23.25c-.18-.695-.426-1.359-.719-2m-22.844 4c-.027.336-.063.66-.063 1 0 .34.035.664.063 1h23.875c.027-.336.063-.66.063-1 0-.34-.035-.664-.063-1m-23.563 4c .18.695.43 1.359.719 2h21.813c.293-.641.543-1.305.719-2m-23.25 0" fill="#f9f9f9"/>
</svg>
