<svg viewBox="0 0 48 48" xmlns="http://www.w3.org/2000/svg" xmlns:xlink="http://www.w3.org/1999/xlink">
  <linearGradient id="a" gradientTransform="matrix(0 -1 1 0 -.0000015 47.999998)" gradientUnits="userSpaceOnUse" x1="1" x2="47">
    <stop offset="0" stop-color="#71d2db"/>
    <stop offset="1" stop-color="#81d8df"/>
  </linearGradient>
  <path d="m47 24c0 22.703-.297 23-23 23-22.703 0-23-.297-23-23 0-22.703.297-23 23-23 22.703 0 23 .297 23 23z" fill="url(#a)"/>
  <g opacity=".1" transform="translate(1 1)">
    <path d="m12.773 17h22.453c.98 0 1.773.793 1.773 1.773v12.453c0 .98-.793 1.773-1.773 1.773h-22.453c-.98 0-1.773-.793-1.773-1.773v-12.453c0-.98.793-1.773 1.773-1.773m0 0"/>
    <path d="m16.875 11c-.492 0-.875.383-.875.875v9.125h16v-7l-3-3m-12.12 0"/>
    <path d="m32 29v7.113c0 .492-.395.887-.887.887h-14.227c-.492 0-.887-.395-.887-.887v-7.113m16 0"/>
    <use height="48" width="48" xlink:href="#b"/>
  </g>
  <path d="m12.773 17h22.453c.98 0 1.773.793 1.773 1.773v12.453c0 .98-.793 1.773-1.773 1.773h-22.453c-.98 0-1.773-.793-1.773-1.773v-12.453c0-.98.793-1.773 1.773-1.773m0 0" fill="#515462"/>
  <path d="m11 25v6.219c0 .98.801 1.781 1.781 1.781h22.438c.98 0 1.781-.801 1.781-1.781v-6.219m-26 0" fill="#212c3c"/>
  <path d="m15 20h18v2h-18m0-2" fill="#212c3c"/>
  <path d="m16.875 11c-.492 0-.875.383-.875.875v9.125h16v-7l-3-3m-12.12 0" fill="#ececde"/>
  <path d="m15 28h18v2h-18m0-2" fill="#515462"/>
  <path d="m32 29v7.113c0 .492-.395.887-.887.887h-14.227c-.492 0-.887-.395-.887-.887v-7.113m16 0" fill="#ececde"/>
  <path d="m29 11v3h3m-3-3" fill="#fff"/>
  <path id="b" d="m29 14h3v3m-3-3" fill-opacity=".2"/>
  <path d="m19 13h9v1h-9m0-1" fill="#696e78" fill-opacity=".702"/>
  <path d="m19 15h9v1h-9m0-1" fill="#696e78" fill-opacity=".702"/>
  <path d="m19 17h9v1h-9m0-1" fill="#696e78" fill-opacity=".702"/>
  <path d="m19 19h6v1h-6m0-1" fill="#696e78" fill-opacity=".702"/>
  <path d="m16.2 25.933c1.244 2.489 3.378 4.533 5.867 5.867l1.956-1.956c.267-.267.622-.356.889-.178.978.356 2.044.533 3.2.533.533 0 .889.356.889.889v3.02c0 .533-.356.889-.889.889-8.356 0-15.11-6.756-15.11-15.11 0-.533.356-.889.889-.889h3.111c.533 0 .889.356.889.889 0 1.067.178 2.133.533 3.2.089.267 0 .622-.178.889l-2.044 1.956 0 0z" opacity=".1"/>
  <path d="m15.2 24.933c1.244 2.489 3.378 4.533 5.867 5.867l1.956-1.956c.267-.267.622-.356.889-.178.978.356 2.044.533 3.2.533.533 0 .889.356.889.889v3.02c0 .533-.356.889-.889.889-8.356 0-15.11-6.756-15.11-15.11 0-.533.356-.889.889-.889h3.111c.533 0 .889.356.889.889 0 1.067.178 2.133.533 3.2.089.267 0 .622-.178.889l-2.044 1.956 0 0z" fill="#e37a5d"/>
</svg>
