<svg viewBox="0 0 48 48" xmlns="http://www.w3.org/2000/svg" xmlns:xlink="http://www.w3.org/1999/xlink">
  <linearGradient id="a" gradientUnits="userSpaceOnUse" x2="0" y1="46.946" y2="1.014">
    <stop offset="0" stop-color="#65cea3"/>
    <stop offset="1" stop-color="#75d3ad"/>
  </linearGradient>
  <path d="m36.31 5c5.859 4.062 9.688 10.831 9.688 18.5 0 12.426-10.07 22.5-22.5 22.5-7.669 0-14.438-3.828-18.5-9.688 1.037 1.822 2.306 3.499 3.781 4.969 4.085 3.712 9.514 5.969 15.469 5.969 22.703 0 23-10.298 23-23 0-5.954-2.256-11.384-5.969-15.469-1.469-1.475-3.147-2.744-4.969-3.781zm4.969 3.781c3.854 4.113 6.219 9.637 6.219 15.719 0 22.703-.297 23-23 23-6.081 0-11.606-2.364-15.719-6.219 4.16 4.144 9.883 6.719 16.219 6.719 22.703 0 23-10.298 23-23 0-6.335-2.575-12.06-6.719-16.219z" opacity=".05"/>
  <path d="m41.28 8.781c3.712 4.085 5.969 9.514 5.969 15.469 0 22.703-.297 23-23 23-5.954 0-11.384-2.256-15.469-5.969 4.113 3.854 9.637 6.219 15.719 6.219 22.703 0 23-10.298 23-23 0-6.081-2.364-11.606-6.219-15.719z" opacity=".1"/>
  <path d="m31.25 2.375c8.615 3.154 14.75 11.417 14.75 21.13 0 12.426-10.07 22.5-22.5 22.5-9.708 0-17.971-6.135-21.12-14.75a23 23 0 0 0 44.875-7 23 23 0 0 0-16-21.875z" opacity=".2"/>
  <path d="m24 1c22.703 0 23 .297 23 23s-.297 23-23 23-23-.297-23-23 .297-23 23-23z" fill="url(#a)"/>
  <path d="m12.783 17c-.433 0-.783.35-.783.783v14.436c0 .433.35.781.783.781h14.817l4.004 4 1.396-1.396-2.604-2.604h6.823c.433 0 .781-.348.781-.781v-14.436c0-.434-.348-.783-.781-.783z" opacity=".1"/>
  <g transform="translate(0 2)">
    <rect fill="#f8fdf0" height="16" rx=".783" width="26" x="11" y="14"/>
    <path d="m27.921 10.363c4.54.001 4.54 4.503 4.54 4.503v3.939c0 1.449-2.27 3.939-2.27 3.939v2.251l4.537 2.731v2.896h-15.891v-2.896l4.543-2.731v-2.251c0 0-2.281-2.487-2.27-3.939v-3.939c0 0 0-4.502 4.54-4.503" fill="#bebebe" transform="matrix(.4405 0 0 .44425 19.701 14.396)"/>
    <path d="m238.67 914.16l-20.785-12 20.785-12z" fill="#44dc56" transform="matrix(.048113 0 0 .083333 1.5172 -53.18)"/>
    <g transform="matrix(.083228 0 0 .093661 10.506 -63.828)">
      <path d="m17.232 21.459c-.363.324-.542.715-.768 1.088-.846 0-1.692 0-2.537 0-.213 0-.385.192-.385.432v2.041c0 .239.172.432.385.432h1.98c.073 1.151.648 2.071 1.336 2.898.556-.01 1-.462 1-1.023v-4.844c0-.566-.452-1.019-1.014-1.023z" fill="#f0d091" stroke="#bebebe" stroke-linecap="round" stroke-width=".092" transform="matrix(12.015187 0 0 10.676803 -126.23156 660.12535)"/>
      <path d="m37 906.34v1.045h26.608v-1.045z" fill="#bebebe" fill-rule="evenodd"/>
      <path d="m37 925.34v1.045h26.608v-1.045z" fill="#bebebe" fill-rule="evenodd"/>
      <path d="m37 919.34v1.0449h23v-1.0449z" fill="#bebebe" fill-rule="evenodd"/>
      <path d="m37 913.34v1.0449h23v-1.0449z" fill="#bebebe" fill-rule="evenodd"/>
    </g>
    <path d="m99.66 823.55c1.689 2.5 3.145 5.173 4.334 7.984 1.189 2.811 2.112 5.763 2.738 8.822.626 3.059.955 6.227.955 9.473 0 3.245-.329 6.413-.955 9.473-.626 3.059-1.549 6.01-2.738 8.82-1.189 2.81-2.645 5.484-4.334 7.984l.83.559c1.725-2.554 3.209-5.281 4.424-8.152 1.215-2.871 2.159-5.887 2.799-9.01.639-3.125.975-6.359.975-9.672 0-3.313-.335-6.549-.975-9.674-.639-3.125-1.584-6.14-2.799-9.01-1.215-2.87-2.699-5.599-4.424-8.152z" fill="#bebebe" transform="matrix(.10943 0 0 .10945 5.754 -70.111)"/>
    <path d="m12.537 15a .53.5 0 1 0 0 1h2.926a.53.5 0 1 0 0-1z" fill="#bebebe" fill-rule="evenodd"/>
    <path d="m17.634 15a .625.5 0 1 0 0 1h4.733a.625.5 0 1 0 0-1z" fill="#bebebe" fill-rule="evenodd"/>
    <path d="m24.603 15a .594.5 0 1 0 0 1h3.794a.594.5 0 1 0 0-1z" fill="#bebebe" fill-rule="evenodd"/>
    <path d="m30.724 15a .714.5 0 1 0 0 1h4.551a.714.5 0 1 0 0-1z" fill="#bebebe" fill-rule="evenodd"/>
    <g transform="matrix(-.65127 0 0 .65119 39.164 9.9033)">
      <path d="m36.642 20.03c0 4.881-3.952 8.833-8.829 8.833-4.881 0-8.833-3.952-8.829-8.833-.004-4.877 3.948-8.833 8.829-8.833 4.877 0 8.829 3.956 8.829 8.833" fill="#69b7e8" opacity=".4"/>
      <path d="m17.879 32.27l-2.145-2.145-4.734 4.734 2.145 2.145m4.734-4.734" fill="#3f525b"/>
      <path d="m22.269 27.22l-1.504-1.504-4.734 4.734 1.504 1.504m4.734-4.734" fill="#d24c37"/>
      <path d="m33 22c0 1.656-1.344 3-3 3s-3-1.344-3-3 1.344-3 3-3 3 1.344 3 3" fill="#fff" opacity=".5"/>
      <path d="m31 17c0 .551-.449 1-1 1s-1-.449-1-1 .449-1 1-1 1 .449 1 1" fill="#fff" opacity=".5"/>
    </g>
  </g>
  <path d="m21 19a6 6 0 0 0-6 6 6 6 0 0 0  6 6 6 6 0 0 0  6-6 6 6 0 0 0-6-6zm0 1a5 5 0 0 1 5 5 5 5 0 0 1-5 5 5 5 0 0 1-5-5 5 5 0 0 1  5-5z" fill="#bebebe"/>
</svg>
