<svg xmlns="http://www.w3.org/2000/svg" viewBox="0 0 48 48">
 <defs>
  <linearGradient id="linearGradient3764" x1="1" x2="47" gradientUnits="userSpaceOnUse" gradientTransform="matrix(0,-1,1,0,-1.5e-6,47.999998)">
   <stop style="stop-color:#eac146;stop-opacity:1"/>
   <stop offset="1" style="stop-color:#ecc758;stop-opacity:1"/>
  </linearGradient>
 </defs>
 <g>
  
  
  
 </g>
 <g>
  <path d="m 47,24 C 47,46.703 46.703,47 24,47 1.297,47 1,46.703 1,24 1,1.297 1.297,1 24,1 46.703,1 47,1.297 47,24 z" style="fill:url(#linearGradient3764);fill-opacity:1"/>
 </g>
 <g>
  
 </g>
 <g transform="scale(3.543307,3.543307)">
  <path transform="matrix(0.28222223,0,0,0.29449277,-1.0833333e-8,0.11043445)" d="m 37 25.5 a 12 11.5 0 1 1 -24 0 12 11.5 0 1 1 24 0 z" style="fill:#000;opacity:0.1;fill-opacity:1;stroke:none"/>
  <path d="m 37 25.5 a 12 11.5 0 1 1 -24 0 12 11.5 0 1 1 24 0 z" transform="matrix(0.28222223,0,0,0.29449277,-0.28222224,-0.45401003)" style="fill:#d2dde1;fill-opacity:1;stroke:none"/>
  <path d="m 37 25.5 a 12 11.5 0 1 1 -24 0 12 11.5 0 1 1 24 0 z" transform="matrix(0.21166667,0,0,0.22086958,1.4816667,1.4233809)" style="fill:#493762;fill-opacity:1;stroke:none"/>
  <path d="m 37 25.5 a 12 11.5 0 1 1 -24 0 12 11.5 0 1 1 24 0 z" transform="matrix(0.16462963,0,0,0.17178744,2.6575927,2.6749757)" style="fill:#4ba8db;fill-opacity:1;stroke:none"/>
  <path d="m 22 24.5 a 1 1.5 0 1 1 -2 0 1 1.5 0 1 1 2 0 z" transform="matrix(0.42333334,0,0,0.28222223,-2.6811112,-0.28222223)" style="fill:#0cf;fill-opacity:1;stroke:none"/>
  <path d="m 22 24.5 a 1 1.5 0 1 1 -2 0 1 1.5 0 1 1 2 0 z" transform="matrix(0.28222223,0,0,0.18814815,1.4111111,3.0103706)" style="fill:#0cf;fill-opacity:1;stroke:none"/>
  <path d="m 6.773,5.08 c -1.091,0 -1.976,0.884 -1.976,1.976 0,0.614 0.284,1.163 0.723,1.526 L 8.175,5.663 C 7.817,5.298 7.325,5.08 6.773,5.08 Z" style="fill:#000;opacity:0.15;fill-opacity:1;stroke:none"/>
  <path transform="matrix(0.28222223,0,0,0.28222223,7.337778,0.56444446)" d="M 11 9 A 2 2 0 1 1 7 9 2 2 0 1 1 11 9" style="fill:#000;opacity:0.1;fill-opacity:1;stroke:none"/>
  <path d="M 11 9 A 2 2 0 1 1 7 9 2 2 0 1 1 11 9" transform="matrix(0.28222223,0,0,0.28222223,7.0556113,0.28222226)" style="fill:#eb5523;fill-opacity:1;stroke:none"/>
  <path d="m 9.596,2.258 c -0.312,0 -0.565,0.253 -0.565,0.564 0,0.049 10e-4,0.096 0.018,0.141 C 9.112,2.72 9.333,2.54 9.596,2.54 c 0.263,0 0.484,0.18 0.547,0.423 0.012,-0.045 0.018,-0.092 0.018,-0.141 0,-0.312 -0.253,-0.564 -0.564,-0.564 z" style="fill:#000;opacity:0.15;fill-opacity:1;stroke:none"/>
 </g>
</svg>
