<svg viewBox="0 0 48 48" xmlns="http://www.w3.org/2000/svg" xmlns:xlink="http://www.w3.org/1999/xlink">
  <linearGradient id="a" gradientTransform="matrix(0 -1 1 0 -.0000015 47.999998)" gradientUnits="userSpaceOnUse" x1="1" x2="47">
    <stop offset="0" stop-color="#d0ecd7"/>
    <stop offset="1" stop-color="#def2e3"/>
  </linearGradient>
  <path d="m47 24c0 22.703-.297 23-23 23-22.703 0-23-.297-23-23 0-22.703.297-23 23-23 22.703 0 23 .297 23 23z" fill="url(#a)"/>
  <path d="m28 11c .441 1.667-6.279 2.222-3 5-1.765-2.222 5.787-3 3-5zm-3 5a11 3 0 0 0-11 3 11 3 0 0 0  1.01 1.246 13 9 0 0 0-3.01 5.754 13 9 0 0 0  2.75 5.52c-.424 1.017-.75 2.187-.75 3.48 1.312 0 2.995-.579 4.486-1.225a13 9 0 0 0 6.514 1.225 13 9 0 0 0  6.518-1.223c1.491.645 3.171 1.223 4.482 1.223 0-1.29-.325-2.458-.748-3.473a13 9 0 0 0 2.748-5.527 13 9 0 0 0-3.01-5.75 11 3 0 0 0  1.014-1.25 11 3 0 0 0-6.484-2.732c2.587-1.54 6.266-2.863 3.498-5.268.605 1.972-4.678 3.085-6.439 5.03a11 3 0 0 0-1.574-.033m0 1a9 2 0 0 1 1.029.014c-.153.821.352 1.788 1.992 2.986-1.066-1.158-.692-2.061.238-2.861a9 2 0 0 1 5.74 1.861 9 2 0 0 1-9 2 9 2 0 0 1-9-2 9 2 0 0 1  9-2z" opacity=".1"/>
  <path d="m24 15a11 3 0 0 0-11 3 11 3 0 0 0  1.01 1.246 13 9 0 0 0-3.01 5.754 13 9 0 0 0  2.75 5.52c-.424 1.016-.75 2.187-.75 3.48 1.312 0 2.995-.579 4.486-1.225a13 9 0 0 0 6.514 1.225 13 9 0 0 0  6.518-1.223c1.492.645 3.171 1.223 4.482 1.223 0-1.29-.325-2.458-.75-3.473a13 9 0 0 0 2.75-5.527 13 9 0 0 0-3.014-5.75 11 3 0 0 0  1.014-1.25 11 3 0 0 0-11-3m0 1a9 2 0 0 1 9 2 9 2 0 0 1-9 2 9 2 0 0 1-9-2 9 2 0 0 1  9-2z" fill="#f06a62"/>
  <path d="m24.19 15c .122.299.371.628.809.998-.291-.366-.313-.691-.186-.99a11 3 0 0 0-.623-.008zm3.42.168c-.436.285-.799.588-1.08.912a9 2 0 0 1 2.773.305c.427-.262.891-.517 1.355-.771a11 3 0 0 0-3.049-.445zm.252 4.635a9 2 0 0 1-.082.008c.081.063.153.123.24.188-.061-.067-.106-.13-.158-.195z" opacity=".1"/>
  <path d="m27 10c .441 1.667-6.279 2.222-3 5-1.765-2.222 5.787-3 3-5zm5.01 0c .921 3-11.835 4-4.992 9-3.684-4 9.597-5 4.992-9z" fill="#9fbfaa"/>
</svg>
