<svg viewBox="0 0 48 48" xmlns="http://www.w3.org/2000/svg" xmlns:xlink="http://www.w3.org/1999/xlink">
  <linearGradient id="a" gradientTransform="matrix(0 -1 1 0 -.0000015 47.999998)" gradientUnits="userSpaceOnUse" x1="1" x2="47">
    <stop offset="0" stop-color="#ec6f1c"/>
    <stop offset="1" stop-color="#ed7a2e"/>
  </linearGradient>
  <path d="m47 24c0 22.703-.297 23-23 23-22.703 0-23-.297-23-23 0-22.703.297-23 23-23 22.703 0 23 .297 23 23z" fill="url(#a)"/>
  <path d="m24 13c-2.215 0-4 1.781-4 4v6.996h-3.01a.5.5 0 0 0-.463.318l-1.24 3.102-.803-7.967a.5.5 0 0 0-.512-.449.5.5 0 0 0-.449.313l-1.861 4.684h-10.658v.004c0 .335.011.668.025 1h10.971a.5.5 0 0 0  .465-.318l1.23-3.094.797 7.959a.5.5 0 0 0  .961.139l1.877-4.686h2.674v8c0 2.215 1.785 4 4 4h2v-8h-1c-.555 0-1-.449-1-1v-3h22.975c.014-.332.025-.665.025-1v-.004h-23v-1.996c0-.555.445-1 1-1h1v-8h-2zm3 0v8h3c .555 0 1-.449 1-1v-6c0-.555-.445-1-1-1zm .004 16v7.996h2.996c.555 0 1-.445 1-1v-6c0-.551-.445-.996-1-.996z" opacity=".1"/>
  <path d="m12.969 18a .5.5 0 0 0-.449.313l-1.862 4.683h-9.633c-.015.333-.025.667-.025 1.004h9.996a.5.5 0 0 0  .465-.318l1.23-3.094.797 7.959a.5.5 0 0 0  .961.139l1.877-4.686h30.674c0-.337-.011-.671-.025-1.004h-30.989a.5.5 0 0 0-.463.318l-1.24 3.102-.803-7.967a.5.5 0 0 0-.511-.449z" fill="#f9f9f9"/>
  <path d="m23 12c-2.215 0-4 1.781-4 4v16c0 2.215 1.785 4 4 4h2v-8h-1c-.555 0-1-.449-1-1v-6c0-.555.445-1 1-1h1v-8zm3 0v8h3c .555 0 1-.449 1-1v-6c0-.555-.445-1-1-1zm .004 16v7.996h2.996c.555 0 1-.445 1-1v-6c0-.551-.445-.996-1-.996z" fill="#f9f9f9"/>
</svg>
