<svg xmlns="http://www.w3.org/2000/svg" viewBox="0 0 48 48">
 <defs>
  <linearGradient id="linearGradient3021" y1="46.835" x2="0" y2="1" gradientUnits="userSpaceOnUse">
   <stop style="stop-color:#2b8035;stop-opacity:1"/>
   <stop offset="1" style="stop-color:#30903c;stop-opacity:1"/>
  </linearGradient>
 </defs>
 <g>
  
  
  
 </g>
 <g>
  <path d="m 24 1 c 22.703 0 23 0.297 23 23 c 0 22.703 -0.297 23 -23 23 -22.703 0 -23 -0.297 -23 -23 0 -22.703 0.297 -23 23 -23 z" style="fill:url(#linearGradient3021);fill-opacity:1"/>
  <path d="m 25 16 c 0 0 -0.925 3.775 -1.736 5.295 c -0.355 0.665 -0.706 0.79 -1.354 0.707 c -0.333 0.667 -0.667 1.333 -1 2 c -0.333 -1.333 -0.577 -2.667 -0.91 -4 c -0.333 1.333 -0.757 2.667 -1.09 4 l -1.359 -1.361 c -0.551 -0.641 -1.11 0.308 -1.641 0.361 l -1.91 -2 l -2.09 2 l -0.91 -2 l -3 2.998 l -6.998 0 c 0 0.674 0.035 1.34 0.092 2 l 6.906 0 l 3 2.998 l 0.91 -2 l 2.09 2 l 1.91 -2 c 0.531 0.053 1.09 1 1.641 0.361 l 1.359 -1.361 c 0.333 1.333 0.757 2.667 1.09 4 c 0.333 -1.333 0.577 -2.667 0.91 -4 c 0.333 0.667 0.667 1.333 1 2 c 0.648 -0.083 0.999 0.042 1.354 0.707 c 0.811 1.52 1.736 5.295 1.736 5.295 c 0 0 1.172 -3.598 1.91 -5 c 0.66 0.088 0.996 0.012 1.25 -0.75 l 0.75 -2.25 l 2 1.5 l 2 -1.5 l 2.09 4.803 l 1.91 -3.803 l 2 2 l 1 -3 l 2 2 l 2.1 -2 l 2.898 0 c 0.057 -0.658 0.092 -1.323 0.092 -1.996 l -2.99 0 l -2.1 -2 l -2 2 l -1 -3 l -2 2 l -1.91 -3.803 l -2.09 4.803 l -2 -1.5 l -2 1.5 l -0.75 -2.25 c -0.254 -0.762 -0.59 -0.838 -1.25 -0.75 c -0.738 -1.404 -1.91 -5 -1.91 -5 z" style="fill:#000;opacity:0.1;fill-opacity:1"/>
  <path d="m 24 15 c 0 0 -0.925 3.775 -1.736 5.295 c -0.355 0.665 -0.706 0.79 -1.354 0.707 c -0.333 0.667 -0.667 1.333 -1 2 c -0.333 -1.333 -0.577 -2.667 -0.91 -4 c -0.333 1.333 -0.757 2.667 -1.09 4 l -1.359 -1.361 c -0.551 -0.641 -1.11 0.308 -1.641 0.361 l -1.91 -2 l -2.09 2 l -0.91 -2 l -3 2.998 l -5.973 0 c -0.014 0.332 -0.025 0.665 -0.025 1 c 0 0.335 0.011 0.668 0.025 1 l 5.973 0 l 3 2.998 l 0.91 -2 l 2.09 2 l 1.91 -2 c 0.531 0.053 1.09 1 1.641 0.361 l 1.359 -1.361 c 0.333 1.333 0.757 2.667 1.09 4 c 0.333 -1.333 0.577 -2.667 0.91 -4 c 0.333 0.667 0.667 1.333 1 2 c 0.648 -0.083 0.999 0.042 1.354 0.707 c 0.811 1.52 1.736 5.295 1.736 5.295 c 0 0 1.172 -3.598 1.91 -5 c 0.66 0.088 0.996 0.012 1.25 -0.75 l 0.75 -2.25 l 2 1.5 l 2 -1.5 l 2.09 4.803 l 1.91 -3.803 l 2 2 l 1 -3 l 2 2 l 2.1 -2 l 3.965 0 c 0.014 -0.331 0.025 -0.663 0.025 -0.998 c 0 -0.335 -0.011 -0.667 -0.025 -0.998 l -3.965 0 l -2.1 -2 l -2 2 l -1 -3 l -2 2 l -1.91 -3.803 l -2.09 4.803 l -2 -1.5 l -2 1.5 l -0.75 -2.25 c -0.254 -0.762 -0.59 -0.838 -1.25 -0.75 c -0.738 -1.404 -1.91 -5 -1.91 -5 z" style="fill:#e5e547;fill-opacity:1"/>
 </g>
 <g>
  
 </g>
</svg>
