<svg viewBox="0 0 48 48" xmlns="http://www.w3.org/2000/svg" xmlns:xlink="http://www.w3.org/1999/xlink">
  <linearGradient id="a" gradientTransform="matrix(0 -1 1 0 -.0000015 47.999998)" gradientUnits="userSpaceOnUse" x1="1" x2="47">
    <stop offset="0" stop-color="#c7a365"/>
    <stop offset="1" stop-color="#ccab74"/>
  </linearGradient>
  <path d="m47 24c0 22.703-.297 23-23 23-22.703 0-23-.297-23-23 0-22.703.297-23 23-23 22.703 0 23 .297 23 23z" fill="url(#a)"/>
  <path d="m16.03 13a15 15 0 0 0-6.03 12 15 15 0 0 0  6.03 12h17.945a15 15 0 0 0 6.025-12 15 15 0 0 0-6.025-12z" opacity=".1"/>
  <path d="m15.03 12a15 15 0 0 0-6.03 12 15 15 0 0 0  6.03 12h17.945a15 15 0 0 0 6.025-12 15 15 0 0 0-6.025-12z" fill="#ccc"/>
  <path d="m15 17v9h4v-9zm14 0v9h4v-9zm-6 11l-2 2v3h6v-3l-2-2z" fill="#e84444"/>
  <path d="m15 17v9h1v-8h3v-1zm14 0v9h1v-8h3v-1zm-6 11l-2 2v3h1v-2l2-2h2l-1-1z" opacity=".1"/>
</svg>
