<svg viewBox="0 0 48 48" xmlns="http://www.w3.org/2000/svg" xmlns:xlink="http://www.w3.org/1999/xlink">
  <linearGradient id="a" gradientUnits="userSpaceOnUse" x1="1" x2="47">
    <stop offset="0" stop-color="#606163"/>
    <stop offset="1" stop-color="#6a6b6e"/>
  </linearGradient>
  <path d="m24 1c22.703 0 23 .297 23 23 0 22.703-.297 23-23 23-22.703 0-23-.297-23-23 0-22.703.297-23 23-23z" fill="url(#a)" transform="matrix(0 -1 1 0 0 48)"/>
  <path d="m27.23 11a12 12 0 0 0-11.781 9.74 15 15 0 0 1  11.781-5.74 15 15 0 0 1  11.768 5.701 12 12 0 0 0-11.768-9.701zm-11.625 4.463a12 12 0 0 0-3.302 14.889 12 12 0 0 0  14.027 6.074 15 15 0 0 1-10.463-7.89 15 15 0 0 1-.262-13.073m18.459 2.074a15 15 0 0 1-.234 13.104 15 15 0 0 1-10.422 7.897 12 12 0 0 0  13.982-6.081 12 12 0 0 0-3.33-14.919" opacity=".1"/>
  <path d="m14.605 14.462a12 12 0 0 0-3.302 14.889 12 12 0 0 0  14.027 6.076 15 15 0 0 1-10.463-7.891 15 15 0 0 1-.262-13.074" fill="#5bdb7c"/>
  <path d="m38 19.701a12 12 0 0 0-11.77-9.701 12 12 0 0 0-11.779 9.74 15 15 0 0 1  11.779-5.74 15 15 0 0 1  11.77 5.701" fill="#edeb85"/>
  <path d="m22.408 37.538a12 12 0 0 0 13.982-6.081 12 12 0 0 0-3.33-14.919 15 15 0 0 1-.23 13.103 15 15 0 0 1-10.422 7.897" fill="#aeb4d2"/>
</svg>
