<svg xmlns="http://www.w3.org/2000/svg" viewBox="0 0 48 48">
 <defs>
  <linearGradient id="linearGradient3764" x1="1" x2="47" gradientUnits="userSpaceOnUse" gradientTransform="matrix(0,-1,1,0,-1.5e-6,47.999998)">
   <stop style="stop-color:#716dbf;stop-opacity:1"/>
   <stop offset="1" style="stop-color:#7f7bc5;stop-opacity:1"/>
  </linearGradient>
 </defs>
 <g>
  
  
  
 </g>
 <g>
  <path d="m 47,24 C 47,46.703 46.703,47 24,47 1.297,47 1,46.703 1,24 1,1.297 1.297,1 24,1 46.703,1 47,1.297 47,24 z" style="fill:url(#linearGradient3764);fill-opacity:1"/>
 </g>
 <g>
  <g>
   <g transform="translate(1,1)">
    <g style="opacity:0.1">
     <!-- color: #7f7bc5 -->
    </g>
   </g>
  </g>
 </g>
 <g transform="translate(-13.2,0.99984268)" style="fill:#000;opacity:0.1;fill-opacity:1">
  <!-- color: #7f7bc5 -->
  <g style="fill:#000">
   <path d="m 46.2 11 -7 0 c 2.131 0.494 7 1.613 7 2.5 0 1.89 -9 -0.5 -11 -0.5 -1 0 -2.997 0.168 -3 1.5 -0.008 3.5 4.702 6.5 8 8.5 -2.297 -0.666 -4.4 -1 -6.4 -1 -2.6 0 -7.6 1 -7.6 4.5 0 3.096 6.268 5.942 8 6.5 3.01 0.97 8 1.495 8 2 0 0.5 -4 1 -9 1 l -3 0 c 2 1 5 1 8 1 l 3 -0.002 c 2 -0.001 7 -0.07 7 -1.798 0 -1.508 -6 -2.781 -9 -3.4 -4.184 -0.863 -7.223 -2.542 -7 -3.8 0.533 -3.01 8 -3 14 -3 -2.617 -2.101 -9 -6 -9 -7.7 0 -0.728 1 -0.895 2 -0.9 4 -0.02 7 0.85 8 0.85 2 0 3 -1.25 3 -2.75 0 -2.5 -3 -3.5 -4 -3.5 z" style="fill:#000;stroke:none;fill-rule:evenodd"/>
  </g>
 </g>
 <g transform="translate(-14.2,0)" style="fill:#f9f9f9;opacity:1;fill-opacity:1">
  <!-- color: #7f7bc5 -->
  <g>
   <path d="m 46.2 11 -7 0 c 2.131 0.494 7 1.613 7 2.5 0 1.89 -9 -0.5 -11 -0.5 -1 0 -2.997 0.168 -3 1.5 -0.008 3.5 4.702 6.5 8 8.5 -2.297 -0.666 -4.4 -1 -6.4 -1 -2.6 0 -7.6 1 -7.6 4.5 0 3.096 6.268 5.942 8 6.5 3.01 0.97 8 1.495 8 2 0 0.5 -4 1 -9 1 l -3 0 c 2 1 5 1 8 1 l 3 -0.002 c 2 -0.001 7 -0.07 7 -1.798 0 -1.508 -6 -2.781 -9 -3.4 -4.184 -0.863 -7.223 -2.542 -7 -3.8 0.533 -3.01 8 -3 14 -3 -2.617 -2.101 -9 -6 -9 -7.7 0 -0.728 1 -0.895 2 -0.9 4 -0.02 7 0.85 8 0.85 2 0 3 -1.25 3 -2.75 0 -2.5 -3 -3.5 -4 -3.5 z" style="stroke:none;fill-rule:evenodd"/>
  </g>
 </g>
 <g>
  
 </g>
</svg>
