<svg viewBox="0 0 48 48" xmlns="http://www.w3.org/2000/svg" xmlns:xlink="http://www.w3.org/1999/xlink">
  <linearGradient id="a" gradientTransform="matrix(0 -1 1 0 -.0000015 47.999998)" gradientUnits="userSpaceOnUse" x1="1" x2="47">
    <stop offset="0" stop-color="#e4e4e4"/>
    <stop offset="1" stop-color="#eee"/>
  </linearGradient>
  <linearGradient id="b" gradientUnits="userSpaceOnUse" x1="6.57436685" x2="6.67963574" y1="10.40412251" y2="1.02192669">
    <stop offset="0" stop-color="#5bcc01"/>
    <stop offset="1" stop-color="#b7fb3b" stop-opacity="0"/>
  </linearGradient>
  <path d="m47 24c0 22.703-.297 23-23 23-22.703 0-23-.297-23-23 0-22.703.297-23 23-23 22.703 0 23 .297 23 23z" fill="url(#a)"/>
  <g transform="matrix(3.543307 0 0 3.543307 -.00016508 .00000873)">
    <path d="m8.132 4.075l1.711 2.037.203 2.108-.794.961-5.618.335-.123.309 6.02-.362.794-.961-.203-2.108-1.914-2.275z" fill-opacity=".098"/>
    <path d="m3.295 9.476l2.215-5.475 1.207-.774 1.152.63 1.892 2.25.197 2.054-.756.954m-5.907.36" fill="url(#b)"/>
    <path d="m6.731 3.184l-1.261.803-2.245 5.56 6.03-.368.794-.959-.203-2.108-1.914-2.275zm.009.159l.979.538-2.037.141zm1.155.67l1.773 2.099-.238 1.244-1.208-.423-.908-1.535.097-1.349zm-.635.044l-.088 1.27-1.588 1.01.018-2.17zm-1.799.344l-.018 1.914-1.896 2.813zm1.737 1.085l.873 1.482-.908 1.411-1.508-1.923zm2.54.961l.168 1.737-.644.803zm-4.242.035l1.499 1.914-3.395.908zm2.69.582l1.217.432-.291 1.552-.988.062-.855-.644zm-1.085 1.446l.794.609-3.995.247z" fill="#5fb10b"/>
  </g>
</svg>
