<svg xmlns="http://www.w3.org/2000/svg" viewBox="0 0 48 48">
 <defs>
  <linearGradient id="linearGradient3764" x1="1" x2="47" gradientUnits="userSpaceOnUse" gradientTransform="matrix(0,-1,1,0,-1.5e-6,47.999998)">
   <stop style="stop-color:#7aa2ca;stop-opacity:1"/>
   <stop offset="1" style="stop-color:#87abd0;stop-opacity:1"/>
  </linearGradient>
 </defs>
 <g>
  
  
  
 </g>
 <g>
  <path d="m 47,24 C 47,46.703 46.703,47 24,47 1.297,47 1,46.703 1,24 1,1.297 1.297,1 24,1 46.703,1 47,1.297 47,24 z" style="fill:url(#linearGradient3764);fill-opacity:1"/>
 </g>
 <g>
  <g>
   <g transform="translate(1,1)">
    <g style="opacity:0.1">
     <!-- color: #87abd0 -->
     <g>
      <path d="m 18.688 29.21 c 0 0 -3.117 -2.48 -5.348 -6.07 c -2.234 -3.586 -2.855 -5.855 -1.922 -6.539 c 0.934 -0.688 4.621 0.789 7.422 2.582 c 2.805 1.793 2.316 1.563 2.316 1.563 c 0 0 0.008 -1.273 0.676 -1.531 c 0.781 -0.305 1.406 1.055 1.406 1.055 c 0 0 0.898 -1.93 3.391 -4.41 c 2.492 -2.477 5.234 -4.184 6.375 -3.816 c 1.145 0.371 1.941 3.41 1.996 7.102 c 0.051 3.691 -2.422 7.422 -2.422 7.422 c 0 0 1.578 2.574 1.27 4.316 c -0.383 2.137 -1.199 3.543 -2.809 3.703 c -1.609 0.156 -4.516 -2.691 -4.516 -2.691 c 0 0 0.105 3.746 -1.246 4.059 c -1.348 0.316 -3.582 -1.422 -4.879 -3.215 c -1.297 -1.793 -1.711 -3.535 -1.711 -3.535 m 0 0.016" style="fill:#000;fill-opacity:1;stroke:none;fill-rule:nonzero"/>
     </g>
    </g>
   </g>
  </g>
 </g>
 <g>
  <g>
   <!-- color: #87abd0 -->
   <g>
    <path d="m 18.688 29.21 c 0 0 -3.117 -2.48 -5.348 -6.07 c -2.234 -3.586 -2.855 -5.855 -1.922 -6.539 c 0.934 -0.688 4.621 0.789 7.422 2.582 c 2.805 1.793 2.316 1.563 2.316 1.563 c 0 0 0.008 -1.273 0.676 -1.531 c 0.781 -0.305 1.406 1.055 1.406 1.055 c 0 0 0.898 -1.93 3.391 -4.41 c 2.492 -2.477 5.234 -4.184 6.375 -3.816 c 1.145 0.371 1.941 3.41 1.996 7.102 c 0.051 3.691 -2.422 7.422 -2.422 7.422 c 0 0 1.578 2.574 1.27 4.316 c -0.383 2.137 -1.199 3.543 -2.809 3.703 c -1.609 0.156 -4.516 -2.691 -4.516 -2.691 c 0 0 0.105 3.746 -1.246 4.059 c -1.348 0.316 -3.582 -1.422 -4.879 -3.215 c -1.297 -1.793 -1.711 -3.535 -1.711 -3.535 m 0 0.016" style="fill:#f9f9f9;fill-opacity:1;stroke:none;fill-rule:nonzero"/>
   </g>
  </g>
 </g>
 <g>
  
 </g>
</svg>
