<svg viewBox="0 0 48 48" xmlns="http://www.w3.org/2000/svg" xmlns:xlink="http://www.w3.org/1999/xlink">
  <linearGradient id="a" gradientTransform="matrix(0 -1 1 0 -.0000015 48)" gradientUnits="userSpaceOnUse" x1="1" x2="47">
    <stop offset="0" stop-color="#c07c00"/>
    <stop offset="1" stop-color="#d48900"/>
  </linearGradient>
  <path d="m36.31 5c5.859 4.062 9.688 10.831 9.688 18.5 0 12.426-10.07 22.5-22.5 22.5-7.669 0-14.438-3.828-18.5-9.688 1.037 1.822 2.306 3.499 3.781 4.969 4.085 3.712 9.514 5.969 15.469 5.969 22.703 0 23-10.298 23-23 0-5.954-2.256-11.384-5.969-15.469-1.469-1.475-3.147-2.744-4.969-3.781zm4.969 3.781c3.854 4.113 6.219 9.637 6.219 15.719 0 22.703-.297 23-23 23-6.081 0-11.606-2.364-15.719-6.219 4.16 4.144 9.883 6.719 16.219 6.719 22.703 0 23-10.298 23-23 0-6.335-2.575-12.06-6.719-16.219z" opacity=".05"/>
  <path d="m41.28 8.781c3.712 4.085 5.969 9.514 5.969 15.469 0 22.703-.297 23-23 23-5.954 0-11.384-2.256-15.469-5.969 4.113 3.854 9.637 6.219 15.719 6.219 22.703 0 23-10.298 23-23 0-6.081-2.364-11.606-6.219-15.719z" opacity=".1"/>
  <path d="m31.25 2.375c8.615 3.154 14.75 11.417 14.75 21.13 0 12.426-10.07 22.5-22.5 22.5-9.708 0-17.971-6.135-21.12-14.75a23 23 0 0 0 44.875-7 23 23 0 0 0-16-21.875z" opacity=".2"/>
  <path d="m24 1c22.703 0 23 .297 23 23s-.297 23-23 23-23-.297-23-23 .297-23 23-23z" fill="url(#a)"/>
  <path d="m394.05 590.25c-.675 1.231-.09 2.255-.92 3.387-.83 1.132-1.982.882-2.953 1.896-.971 1.014-.671 2.154-1.766 3.033s-2.143.339-3.343 1.067c-1.2.728-1.205 1.907-2.49 2.473s-2.158-.227-3.506.166-1.658 1.53-3.046 1.744c-1.387.214-2.026-.778-3.429-.747-1.404.031-1.998 1.049-3.393.896-1.396-.153-1.755-1.276-3.119-1.609-1.364-.334-2.201.496-3.51-.013s-1.365-1.687-2.596-2.362-2.255-.09-3.387-.92c-1.132-.83-.882-1.982-1.896-2.953-1.014-.971-2.154-.671-3.033-1.766s-.339-2.143-1.067-3.343c-.728-1.2-1.907-1.206-2.473-2.49s.227-2.158-.166-3.506-1.53-1.658-1.744-3.046c-.214-1.388.778-2.026.747-3.429-.031-1.404-1.049-1.998-.896-3.393.153-1.395 1.276-1.755 1.609-3.119.334-1.364-.496-2.201.012-3.51.509-1.308 1.687-1.365 2.362-2.596s.09-2.255.92-3.387c.83-1.132 1.982-.882 2.953-1.896.971-1.014.671-2.154 1.766-3.033s2.143-.339 3.343-1.067c1.2-.728 1.205-1.907 2.49-2.473s2.158.227 3.506-.166 1.658-1.53 3.046-1.744c1.387-.214 2.026.778 3.429.747 1.404-.031 1.998-1.049 3.393-.896 1.396.153 1.755 1.276 3.119 1.609 1.364.334 2.201-.496 3.51.013 1.308.509 1.365 1.687 2.596 2.362s2.255.09 3.387.92c1.132.83.882 1.982 1.896 2.953 1.014.971 2.154.671 3.033 1.766s.339 2.143 1.067 3.343c.728 1.2 1.907 1.206 2.473 2.49s-.227 2.158.166 3.506 1.53 1.658 1.744 3.046c.214 1.388-.778 2.026-.747 3.429.031 1.404 1.049 1.998.896 3.393-.153 1.395-1.276 1.755-1.609 3.119-.334 1.364.496 2.201-.012 3.51s-1.687 1.365-2.362 2.596z" opacity=".1" transform="matrix(.56905 -.074917 .074917 .56905 -230.03 -276.14)"/>
  <path d="m394.05 590.25c-.675 1.231-.09 2.255-.92 3.387-.83 1.132-1.982.882-2.953 1.896-.971 1.014-.671 2.154-1.766 3.033s-2.143.339-3.343 1.067c-1.2.728-1.205 1.907-2.49 2.473s-2.158-.227-3.506.166-1.658 1.53-3.046 1.744c-1.387.214-2.026-.778-3.429-.747-1.404.031-1.998 1.049-3.393.896-1.396-.153-1.755-1.276-3.119-1.609-1.364-.334-2.201.496-3.51-.013s-1.365-1.687-2.596-2.362-2.255-.09-3.387-.92c-1.132-.83-.882-1.982-1.896-2.953-1.014-.971-2.154-.671-3.033-1.766s-.339-2.143-1.067-3.343c-.728-1.2-1.907-1.206-2.473-2.49s.227-2.158-.166-3.506-1.53-1.658-1.744-3.046c-.214-1.388.778-2.026.747-3.429-.031-1.404-1.049-1.998-.896-3.393.153-1.395 1.276-1.755 1.609-3.119.334-1.364-.496-2.201.012-3.51.509-1.308 1.687-1.365 2.362-2.596s.09-2.255.92-3.387c.83-1.132 1.982-.882 2.953-1.896.971-1.014.671-2.154 1.766-3.033s2.143-.339 3.343-1.067c1.2-.728 1.205-1.907 2.49-2.473s2.158.227 3.506-.166 1.658-1.53 3.046-1.744c1.387-.214 2.026.778 3.429.747 1.404-.031 1.998-1.049 3.393-.896 1.396.153 1.755 1.276 3.119 1.609 1.364.334 2.201-.496 3.51.013 1.308.509 1.365 1.687 2.596 2.362s2.255.09 3.387.92c1.132.83.882 1.982 1.896 2.953 1.014.971 2.154.671 3.033 1.766s.339 2.143 1.067 3.343c.728 1.2 1.907 1.206 2.473 2.49s-.227 2.158.166 3.506 1.53 1.658 1.744 3.046c.214 1.388-.778 2.026-.747 3.429.031 1.404 1.049 1.998.896 3.393-.153 1.395-1.276 1.755-1.609 3.119-.334 1.364.496 2.201-.012 3.51s-1.687 1.365-2.362 2.596z" fill="#ccc" transform="matrix(.56905 -.074917 .074917 .56905 -231.03 -277.14)"/>
  <circle cx="24" cy="24" fill="#999" r="11.5"/>
  <circle cx="24" cy="24" fill="#808080" r="9.5"/>
  <circle cx="24" cy="24" fill="#4d4d4d" r="8"/>
  <circle cx="24" cy="24" fill="#1a1a1a" r="4.5"/>
  <circle cx="24" cy="24" fill="#d0ba6f" r="1.5"/>
  <circle cx="24" cy="24" fill="#333" r="1"/>
  <g fill="#d0ba6f" transform="matrix(.5 0 0 .5 -126.02 -265.09)">
    <g transform="translate(-42 -.00000837)">
      <circle cx="342.05" cy="566.18" r="2"/>
      <circle cx="342.08" cy="590.07" r="2"/>
    </g>
    <g transform="translate(-42 -.00000837)">
      <circle cx="578.15" cy="-353.94" r="2" transform="rotate(90)"/>
      <circle cx="578.18" cy="-330.05" r="2" transform="rotate(90)"/>
    </g>
    <g transform="matrix(.86603 -.5 .5 .86603 -285.21 248.47)">
      <circle cx="578.15" cy="-353.94" r="2" transform="rotate(90)"/>
      <circle cx="578.18" cy="-330.05" r="2" transform="rotate(90)"/>
    </g>
    <g transform="matrix(.5 -.86603 .86603 .5 -371.7 585.25)">
      <circle cx="578.15" cy="-353.94" r="2" transform="rotate(90)"/>
      <circle cx="578.18" cy="-330.05" r="2" transform="rotate(90)"/>
    </g>
    <g transform="matrix(.86603 -.5 .5 .86603 -285.26 248.54)">
      <circle cx="342.05" cy="566.18" r="2"/>
      <circle cx="342.08" cy="590.07" r="2"/>
    </g>
    <g transform="matrix(.5 -.86603 .86603 .5 -371.64 585.4)">
      <circle cx="342.05" cy="566.18" r="2"/>
      <circle cx="342.08" cy="590.07" r="2"/>
    </g>
  </g>
  <circle cx="24" cy="21" fill="#ac1f23" r="1"/>
  <circle cx="26.5" cy="26" fill="#ac1f23" r="1"/>
  <circle cx="21.5" cy="26" fill="#ac1f23" r="1"/>
</svg>
