<svg viewBox="0 0 48 48" xmlns="http://www.w3.org/2000/svg" xmlns:xlink="http://www.w3.org/1999/xlink">
  <linearGradient id="a" gradientUnits="userSpaceOnUse" x2="0" y1="0" y2="48">
    <stop offset="0" stop-color="#aaacc8"/>
    <stop offset="1" stop-color="#9ea0c0"/>
  </linearGradient>
  <radialGradient id="b" cx="6.773" cy="5.927" gradientTransform="matrix(3.543307 0 0 3.543307 .00000015 .00037758)" gradientUnits="userSpaceOnUse" r=".564" xlink:href="#c"/>
  <radialGradient id="c" cx="6.773" cy="5.927" gradientTransform="matrix(3.543307 0 0 3.543307 .00000015 .00037758)" gradientUnits="userSpaceOnUse" r=".564">
    <stop offset="0" stop-color="#8eb0c7"/>
    <stop offset="1" stop-color="#81a7c1" stop-opacity=".039"/>
  </radialGradient>
  <radialGradient id="d" cx="6" cy="17.292" gradientTransform="translate(18 8.707971)" gradientUnits="userSpaceOnUse" r="1" xlink:href="#c"/>
  <linearGradient id="e" gradientUnits="userSpaceOnUse" x2="0" y1="12.8" y2="35.2">
    <stop offset="0" stop-color="#4b758b"/>
    <stop offset="1" stop-color="#3a5b6c" stop-opacity=".955"/>
  </linearGradient>
  <linearGradient id="f" gradientUnits="userSpaceOnUse" x2="0" y1="38" y2="10">
    <stop offset="0" stop-color="#434343"/>
    <stop offset="1" stop-color="#5e5e5e"/>
  </linearGradient>
  <radialGradient id="g" cx="24.476" cy="33.31" gradientTransform="matrix(.96288726 0 0 .55160647 .23234 14.773208)" gradientUnits="userSpaceOnUse" r="5.712">
    <stop offset="0" stop-color="#28406e" stop-opacity=".82"/>
    <stop offset="1" stop-color="#3b5c9b" stop-opacity=".39"/>
  </radialGradient>
  <linearGradient id="h" gradientUnits="userSpaceOnUse" x2="0" y1="36.935" y2="29.49">
    <stop offset="0" stop-color="#31889f"/>
    <stop offset="1" stop-color="#30869c" stop-opacity=".124"/>
  </linearGradient>
  <linearGradient id="i" gradientUnits="userSpaceOnUse" x2="0" y1="31.467" y2="16.533">
    <stop offset="0" stop-color="#657c93"/>
    <stop offset="1" stop-color="#7d91a5"/>
  </linearGradient>
  <path d="m24 1c22.703 0 23 .297 23 23 0 22.703-.297 23-23 23-22.703 0-23-.297-23-23 0-22.703.297-23 23-23z" fill="url(#a)"/>
  <path d="m39 24.03c0 8.263-6.702 14.966-14.966 14.966-8.263 0-14.966-6.702-14.966-14.966 0-8.263 6.702-14.966 14.966-14.966 8.263 0 14.966 6.702 14.966 14.966m0 0" opacity=".1" transform="matrix(1.0023042 0 0 1.0023042 .910137 .9101362)"/>
  <g transform="matrix(1.0714286 0 0 1.0714286 -1.714286 -1.7142868)">
    <path d="m38 24c0 7.73-6.27 14-14 14-7.73 0-14-6.27-14-14 0-7.73 6.27-14 14-14 7.73 0 14 6.27 14 14m0 0" fill="url(#f)"/>
    <path d="m35.2 24c0 6.184-5.02 11.2-11.2 11.2-6.184 0-11.2-5.02-11.2-11.2 0-6.184 5.02-11.2 11.2-11.2 6.184 0 11.2 5.02 11.2 11.2m0 0" fill="url(#e)"/>
    <path d="m31.467 24c0 4.123-3.343 7.467-7.467 7.467-4.123 0-7.467-3.343-7.467-7.467 0-4.123 3.343-7.467 7.467-7.467 4.123 0 7.467 3.343 7.467 7.467m0 0" fill="url(#i)"/>
    <path d="m29.6 24c0 3.092-2.509 5.6-5.6 5.6-3.092 0-5.6-2.509-5.6-5.6 0-3.092 2.509-5.6 5.6-5.6 3.092 0 5.6 2.509 5.6 5.6m0 0" fill="#355362"/>
    <path d="m26 21c0 1.105-.895 2-2 2-1.105 0-2-.895-2-2 0-1.105.895-2 2-2 1.105 0 2 .895 2 2m0 0" fill="url(#b)"/>
    <path d="m25 26c0 .551-.449 1-1 1-.551 0-1-.449-1-1 0-.551.449-1 1-1 .551 0 1 .449 1 1m0 0" fill="url(#d)"/>
  </g>
  <path d="m23.812 30c-3.038 0-5.5 1.398-5.5 3.138 0 .829.555 1.591 1.469 2.154 1.319.453 2.74.708 4.219.708 1.129 0 2.239-.16 3.281-.431 1.222-.578 2.031-1.452 2.031-2.431 0-1.74-2.462-3.138-5.5-3.138z" fill="url(#g)"/>
  <path d="m30.19 33.31a5.712 3.257 0 1 1-11.424 0 5.712 3.257 0 1 1  11.424 0z" fill="#4c8579" fill-opacity=".586" transform="matrix(.70028165 0 0 .72147419 6.8602471 -5.6788989)"/>
  <path d="m30.19 33.31a5.712 3.257 0 1 1-11.424 0 5.712 3.257 0 1 1  11.424 0z" fill="url(#h)" transform="matrix(.87535205 0 0 .64472161 2.5753091 -5.572633)"/>
</svg>
