<svg viewBox="0 0 48 48" xmlns="http://www.w3.org/2000/svg" xmlns:xlink="http://www.w3.org/1999/xlink">
  <linearGradient id="a" gradientTransform="matrix(0 -1 1 0 -.0000015 47.999998)" gradientUnits="userSpaceOnUse" x1="1" x2="47">
    <stop offset="0" stop-color="#93c849"/>
    <stop offset="1" stop-color="#9ccc58"/>
  </linearGradient>
  <path d="m47 24c0 22.703-.297 23-23 23-22.703 0-23-.297-23-23 0-22.703.297-23 23-23 22.703 0 23 .297 23 23z" fill="url(#a)"/>
  <g transform="matrix(3.543307 0 0 3.543307 .03700814 .00000058)">
    <rect fill-opacity=".102" height="6.209" rx=".776" width="7.338" x="3.387" y="3.951"/>
    <path d="m3.344 3.909v5.729h6.858v-5.729z" fill="#2c87d5"/>
    <path d="m5.801 3.76l-2.408.185-.247 2.76c.169.04.348.062.529.062 1.247 0 2.258-1.01 2.258-2.258 0-.263-.05-.515-.132-.75z" fill="#fff" opacity=".2"/>
    <path d="m3.365 3.945v1.596c.128.06.301.097.452.097.546 0 .988-.442.988-.988 0-.277-.116-.526-.3-.706z" fill="#fbc06e"/>
    <path d="m4.804 7.332l-1.439 1.411v.875h3.133v-.593z" fill="#f7f7f7"/>
    <path d="m4.804 7.332l.282 1.129-.564.706.282.452h1.693v-.593z" fill="#dfdfdf"/>
    <path d="m8.473 6.203l-2.54 3.415h4.262v-1.536z" fill="#f7f7f7"/>
    <path d="m8.473 6.203l.423 1.411-.423 1.27.503.734h1.219v-1.536z" fill="#dfdfdf"/>
    <path d="m3.75 3.656c-.353 0-.656.304-.656.656v4.938c0 .353.304.625.656.625h6.06c.353 0 .625-.272.625-.625v-4.938c0-.353-.272-.656-.625-.656zm0 .281h6.06c.201 0 .344.174.344.375v4.938c0 .201-.142.344-.344.344h-6.06c-.201 0-.375-.142-.375-.344v-4.938c0-.201.174-.375.375-.375z" fill="#fff"/>
  </g>
</svg>
