<svg viewBox="0 0 48 48" xmlns="http://www.w3.org/2000/svg" xmlns:xlink="http://www.w3.org/1999/xlink">
  <linearGradient id="a" gradientUnits="userSpaceOnUse" x2="0" y1="47" y2="1">
    <stop offset="0" stop-color="#1f53b3"/>
    <stop offset="1" stop-color="#225bc4" stop-opacity=".99"/>
  </linearGradient>
  <path d="m24 1c22.703 0 23 .297 23 23 0 22.703-.297 23-23 23-22.703 0-23-.297-23-23 0-22.703.297-23 23-23z" fill="url(#a)"/>
  <g transform="translate(0 -.99986481)">
    <path d="m12 32.5c0 1.997301 7-2.5 9-5.5h8c2 3 9 7.46954 9 5.5 0-12.5-3-15.5-13-15.5-10 0-13 3-13 15.5z" fill-opacity=".098"/>
    <path d="m11 31.5c0 1.997301 7-2.5 9-5.5h8c2 3 9 7.46954 9 5.5 0-12.5-3-15.5-13-15.5-10 0-13 3-13 15.5z" fill="#ececec"/>
    <path d="m18 19v2h-2v1h2v2h1v-2h2v-1h-2v-2zm10 0a1 1 0 0 0-1 1 1 1 0 0 0  1 1 1 1 0 0 0  1-1 1 1 0 0 0-1-1zm3 0a1 1 0 0 0-1 1 1 1 0 0 0  1 1 1 1 0 0 0  1-1 1 1 0 0 0-1-1zm-3 3a1 1 0 0 0-1 1 1 1 0 0 0  1 1 1 1 0 0 0  1-1 1 1 0 0 0-1-1zm3 0a1 1 0 0 0-1 1 1 1 0 0 0  1 1 1 1 0 0 0  1-1 1 1 0 0 0-1-1z" fill="#4b4b4b"/>
  </g>
</svg>
