<svg viewBox="0 0 48 48" xmlns="http://www.w3.org/2000/svg" xmlns:xlink="http://www.w3.org/1999/xlink">
  <linearGradient id="a" gradientTransform="matrix(0 -1 1 0 -.0000015 47.999998)" gradientUnits="userSpaceOnUse" x1="1" x2="47">
    <stop offset="0" stop-color="#333"/>
    <stop offset="1" stop-color="#3d3d3d"/>
  </linearGradient>
  <path d="m47 24c0 22.703-.297 23-23 23-22.703 0-23-.297-23-23 0-22.703.297-23 23-23 22.703 0 23 .297 23 23z" fill="url(#a)"/>
  <g opacity=".1" transform="translate(1 1)">
    <path d="m17.02 32h3.957c.012 0 .02.004.02.004v1.992c0 0-.008.004-.02.004h-3.957c-.012 0-.023-.004-.023-.004v-1.992c0 0 .012-.004.023-.004m0 0"/>
    <path d="m17.02 28.984h3.957c.012 0 .02.004.02.004v1.992c0 0-.008.004-.02.004h-3.957c-.012 0-.023-.004-.023-.004v-1.992c0 0 .012-.004.023-.004m0 0" fill-opacity=".902"/>
    <path d="m17.02 26.02h3.957c.012 0 .02 0 .02.004v1.965c0 .004-.008.004-.02.004h-3.957c-.012 0-.023 0-.023-.004v-1.965c0-.004.012-.004.023-.004m0 0" fill-opacity=".8"/>
    <path d="m17.02 23h3.957c.012 0 .02.004.02.004v1.953c0 0-.008.004-.02.004h-3.957c-.012 0-.023-.004-.023-.004v-1.953c0 0 .012-.004.023-.004m0 0" fill-opacity=".702"/>
    <path d="m17.02 20h3.957c.012 0 .02 0 .02.004v1.941c0 0-.008.004-.02.004h-3.957c-.012 0-.023-.004-.023-.004v-1.941c0-.004.012-.004.023-.004m0 0" fill-opacity=".6"/>
    <path d="m27.02 32.01h3.961c.012 0 .02 0 .02.004v1.977c0 0-.008.004-.02.004h-3.961c-.012 0-.02-.004-.02-.004v-1.977c0-.004.008-.004.02-.004m0 0"/>
    <path d="m27.02 29.02h3.961c.012 0 .02.004.02.004v1.965c0 .004-.008.004-.02.004h-3.961c-.012 0-.02 0-.02-.004v-1.965c0 0 .008-.004.02-.004m0 0" fill-opacity=".902"/>
    <path d="m27.02 26.05h3.961c.012 0 .02.004.02.004v1.957c0 0-.008.004-.02.004h-3.961c-.012 0-.02-.004-.02-.004v-1.957c0 0 .008-.004.02-.004m0 0" fill-opacity=".8"/>
    <path d="m27.02 23.05h3.961c.012 0 .02 0 .02.004v1.941c0 0-.008.004-.02.004h-3.961c-.012 0-.02-.004-.02-.004v-1.941c0-.004.008-.004.02-.004m0 0" fill-opacity=".702"/>
    <path d="m27.02 20.06h3.961c.012 0 .02.004.02.004v1.926c0 .004-.008.004-.02.004h-3.961c-.012 0-.02 0-.02-.004v-1.926c0 0 .008-.004.02-.004m0 0" fill-opacity=".6"/>
    <path d="m27.02 17h3.961c.012 0 .02.004.02.004v1.992c0 .004-.008.004-.02.004h-3.961c-.012 0-.02 0-.02-.004v-1.992c0 0 .008-.004.02-.004m0 0" fill-opacity=".502"/>
    <path d="m32.02 32h3.961c.012 0 .02.004.02.004v1.992c0 0-.008.004-.02.004h-3.961c-.012 0-.02-.004-.02-.004v-1.992c0 0 .008-.004.02-.004m0 0"/>
    <path d="m32.02 29h3.961c.012 0 .02 0 .02.004v1.98c0 0-.008.004-.02.004h-3.961c-.012 0-.02-.004-.02-.004v-1.98c0-.004.008-.004.02-.004m0 0" fill-opacity=".902"/>
    <path d="m32.02 26.02h3.961c.012 0 .02 0 .02.004v1.965c0 .004-.008.004-.02.004h-3.961c-.012 0-.02 0-.02-.004v-1.965c0-.004.008-.004.02-.004m0 0" fill-opacity=".8"/>
    <path d="m32.02 23h3.961c.012 0 .02.004.02.004v1.953c0 0-.008.004-.02.004h-3.961c-.012 0-.02-.004-.02-.004v-1.953c0 0 .008-.004.02-.004m0 0" fill-opacity=".702"/>
    <path d="m32.02 20h3.961c.012 0 .02 0 .02.004v1.941c0 0-.008.004-.02.004h-3.961c-.012 0-.02-.004-.02-.004v-1.941c0-.004.008-.004.02-.004m0 0" fill-opacity=".6"/>
    <path d="m22.02 32h3.957c.012 0 .02.004.02.004v1.992c0 0-.008.004-.02.004h-3.957c-.012 0-.023-.004-.023-.004v-1.992c0 0 .012-.004.023-.004m0 0"/>
    <path d="m22.02 29h3.957c.012 0 .02 0 .02.004v1.98c0 0-.008.004-.02.004h-3.957c-.012 0-.023-.004-.023-.004v-1.98c0-.004.012-.004.023-.004m0 0" fill-opacity=".902"/>
    <path d="m22.02 26.02h3.957c.012 0 .02 0 .02.004v1.965c0 .004-.008.004-.02.004h-3.957c-.012 0-.023 0-.023-.004v-1.965c0-.004.012-.004.023-.004m0 0" fill-opacity=".8"/>
    <path d="m12.02 32h3.957c.012 0 .02.004.02.004v1.992c0 0-.008.004-.02.004h-3.957c-.012 0-.023-.004-.023-.004v-1.992c0 0 .012-.004.023-.004m0 0"/>
    <path d="m12.02 29.02h3.957c.012 0 .02.004.02.004v1.969c0 0-.008 0-.02 0h-3.957c-.012 0-.023 0-.023 0v-1.969c0 0 .012-.004.023-.004m0 0" fill-opacity=".902"/>
    <path d="m12.02 26.04h3.957c.012 0 .02 0 .02 0v1.957c0 .004-.008.004-.02.004h-3.957c-.012 0-.023 0-.023-.004v-1.957c0 0 .012 0 .023 0m0 0" fill-opacity=".8"/>
    <path d="m12.02 23.05h3.957c.012 0 .02 0 .02.004v1.941c0 0-.008.004-.02.004h-3.957c-.012 0-.023-.004-.023-.004v-1.941c0-.004.012-.004.023-.004m0 0" fill-opacity=".702"/>
    <path d="m12.02 20.06h3.957c.012 0 .02.004.02.004v1.93c0 0-.008 0-.02 0h-3.957c-.012 0-.023 0-.023 0v-1.93c0 0 .012-.004.023-.004m0 0" fill-opacity=".6"/>
    <path d="m12.02 17h3.957c.012 0 .02 0 .02.004v1.988c0 .004-.008.004-.02.004h-3.957c-.012 0-.023 0-.023-.004v-1.988c0-.004.012-.004.023-.004m0 0" fill-opacity=".502"/>
    <path d="m12.02 14h3.957c.012 0 .02.004.02.004v1.992c0 0-.008.004-.02.004h-3.957c-.012 0-.023-.004-.023-.004v-1.992c0 0 .012-.004.023-.004m0 0" fill-opacity=".4"/>
  </g>
  <path d="m17.02 32h3.957c.012 0 .02.004.02.004v1.992c0 0-.008.004-.02.004h-3.957c-.012 0-.023-.004-.023-.004v-1.992c0 0 .012-.004.023-.004m0 0" fill="#e4c82f"/>
  <path d="m17.02 28.984h3.957c.012 0 .02.004.02.004v1.992c0 0-.008.004-.02.004h-3.957c-.012 0-.023-.004-.023-.004v-1.992c0 0 .012-.004.023-.004m0 0" fill="#e4c82f" fill-opacity=".902"/>
  <path d="m17.02 26.02h3.957c.012 0 .02 0 .02.004v1.965c0 .004-.008.004-.02.004h-3.957c-.012 0-.023 0-.023-.004v-1.965c0-.004.012-.004.023-.004m0 0" fill="#e4c82f" fill-opacity=".8"/>
  <path d="m17.02 23h3.957c.012 0 .02.004.02.004v1.953c0 0-.008.004-.02.004h-3.957c-.012 0-.023-.004-.023-.004v-1.953c0 0 .012-.004.023-.004m0 0" fill="#e4c82f" fill-opacity=".702"/>
  <path d="m17.02 20h3.957c.012 0 .02 0 .02.004v1.941c0 0-.008.004-.02.004h-3.957c-.012 0-.023-.004-.023-.004v-1.941c0-.004.012-.004.023-.004m0 0" fill="#e4c82f" fill-opacity=".6"/>
  <path d="m27.02 32.01h3.961c.012 0 .02 0 .02.004v1.977c0 0-.008.004-.02.004h-3.961c-.012 0-.02-.004-.02-.004v-1.977c0-.004.008-.004.02-.004m0 0" fill="#3e8ded"/>
  <path d="m27.02 29.02h3.961c.012 0 .02.004.02.004v1.965c0 .004-.008.004-.02.004h-3.961c-.012 0-.02 0-.02-.004v-1.965c0 0 .008-.004.02-.004m0 0" fill="#3e8ded" fill-opacity=".902"/>
  <path d="m27.02 26.05h3.961c.012 0 .02.004.02.004v1.957c0 0-.008.004-.02.004h-3.961c-.012 0-.02-.004-.02-.004v-1.957c0 0 .008-.004.02-.004m0 0" fill="#3e8ded" fill-opacity=".8"/>
  <path d="m27.02 23.05h3.961c.012 0 .02 0 .02.004v1.941c0 0-.008.004-.02.004h-3.961c-.012 0-.02-.004-.02-.004v-1.941c0-.004.008-.004.02-.004m0 0" fill="#3e8ded" fill-opacity=".702"/>
  <path d="m27.02 20.06h3.961c.012 0 .02.004.02.004v1.926c0 .004-.008.004-.02.004h-3.961c-.012 0-.02 0-.02-.004v-1.926c0 0 .008-.004.02-.004m0 0" fill="#3e8ded" fill-opacity=".6"/>
  <path d="m27.02 17h3.961c.012 0 .02.004.02.004v1.992c0 .004-.008.004-.02.004h-3.961c-.012 0-.02 0-.02-.004v-1.992c0 0 .008-.004.02-.004m0 0" fill="#3e8ded" fill-opacity=".502"/>
  <path d="m32.02 32h3.961c.012 0 .02.004.02.004v1.992c0 0-.008.004-.02.004h-3.961c-.012 0-.02-.004-.02-.004v-1.992c0 0 .008-.004.02-.004m0 0" fill="#db4ddb"/>
  <path d="m32.02 29h3.961c.012 0 .02 0 .02.004v1.98c0 0-.008.004-.02.004h-3.961c-.012 0-.02-.004-.02-.004v-1.98c0-.004.008-.004.02-.004m0 0" fill="#db4ddb" fill-opacity=".902"/>
  <path d="m32.02 26.02h3.961c.012 0 .02 0 .02.004v1.965c0 .004-.008.004-.02.004h-3.961c-.012 0-.02 0-.02-.004v-1.965c0-.004.008-.004.02-.004m0 0" fill="#db4ddb" fill-opacity=".8"/>
  <path d="m32.02 23h3.961c.012 0 .02.004.02.004v1.953c0 0-.008.004-.02.004h-3.961c-.012 0-.02-.004-.02-.004v-1.953c0 0 .008-.004.02-.004m0 0" fill="#db4ddb" fill-opacity=".702"/>
  <path d="m32.02 20h3.961c.012 0 .02 0 .02.004v1.941c0 0-.008.004-.02.004h-3.961c-.012 0-.02-.004-.02-.004v-1.941c0-.004.008-.004.02-.004m0 0" fill="#db4ddb" fill-opacity=".6"/>
  <path d="m22.02 32h3.957c.012 0 .02.004.02.004v1.992c0 0-.008.004-.02.004h-3.957c-.012 0-.023-.004-.023-.004v-1.992c0 0 .012-.004.023-.004m0 0" fill="#7fcf5b"/>
  <path d="m22.02 29h3.957c.012 0 .02 0 .02.004v1.98c0 0-.008.004-.02.004h-3.957c-.012 0-.023-.004-.023-.004v-1.98c0-.004.012-.004.023-.004m0 0" fill="#7fcf5b" fill-opacity=".902"/>
  <path d="m22.02 26.02h3.957c.012 0 .02 0 .02.004v1.965c0 .004-.008.004-.02.004h-3.957c-.012 0-.023 0-.023-.004v-1.965c0-.004.012-.004.023-.004m0 0" fill="#7fcf5b" fill-opacity=".8"/>
  <path d="m12.02 32h3.957c.012 0 .02.004.02.004v1.992c0 0-.008.004-.02.004h-3.957c-.012 0-.023-.004-.023-.004v-1.992c0 0 .012-.004.023-.004m0 0" fill="#c52f2f"/>
  <path d="m12.02 29.02h3.957c.012 0 .02.004.02.004v1.969c0 0-.008 0-.02 0h-3.957c-.012 0-.023 0-.023 0v-1.969c0 0 .012-.004.023-.004m0 0" fill="#c52f2f" fill-opacity=".902"/>
  <path d="m12.02 26.04h3.957c.012 0 .02 0 .02 0v1.957c0 .004-.008.004-.02.004h-3.957c-.012 0-.023 0-.023-.004v-1.957c0 0 .012 0 .023 0m0 0" fill="#c52f2f" fill-opacity=".8"/>
  <path d="m12.02 23.05h3.957c.012 0 .02 0 .02.004v1.941c0 0-.008.004-.02.004h-3.957c-.012 0-.023-.004-.023-.004v-1.941c0-.004.012-.004.023-.004m0 0" fill="#c52f2f" fill-opacity=".702"/>
  <path d="m12.02 20.06h3.957c.012 0 .02.004.02.004v1.93c0 0-.008 0-.02 0h-3.957c-.012 0-.023 0-.023 0v-1.93c0 0 .012-.004.023-.004m0 0" fill="#c52f2f" fill-opacity=".6"/>
  <path d="m12.02 17h3.957c.012 0 .02 0 .02.004v1.988c0 .004-.008.004-.02.004h-3.957c-.012 0-.023 0-.023-.004v-1.988c0-.004.012-.004.023-.004m0 0" fill="#c52f2f" fill-opacity=".502"/>
  <path d="m12.02 14h3.957c.012 0 .02.004.02.004v1.992c0 0-.008.004-.02.004h-3.957c-.012 0-.023-.004-.023-.004v-1.992c0 0 .012-.004.023-.004m0 0" fill="#c52f2f" fill-opacity=".4"/>
</svg>
