<svg xmlns="http://www.w3.org/2000/svg" viewBox="0 0 48 48">
 <defs>
  <linearGradient id="linearGradient3764" x1="1" x2="47" gradientUnits="userSpaceOnUse" gradientTransform="matrix(0,-1,1,0,-1.5e-6,47.999998)">
   <stop style="stop-color:#4e88da;stop-opacity:1"/>
   <stop offset="1" style="stop-color:#5f93dd;stop-opacity:1"/>
  </linearGradient>
 </defs>
 <g>
  
  
  
 </g>
 <g>
  <path d="m 47,24 C 47,46.703 46.703,47 24,47 1.297,47 1,46.703 1,24 1,1.297 1.297,1 24,1 46.703,1 47,1.297 47,24 z" style="fill:url(#linearGradient3764);fill-opacity:1"/>
 </g>
 <g>
  
 </g>
 <g transform="matrix(3.543307,0,0,3.543307,3.94043e-4,-0.01417235)">
  <path d="m 25 12 c -5.524 0 -10 4.48 -10 10 l 1 0 c 0 -4.971 4.03 -9 9 -9 c 4.971 0 9 4.03 9 9 l 0.998 0 c 0 -5.524 -4.478 -10 -9.998 -10 z m 0 3 c -4.419 0 -8 3.578 -8 8 l 1 0 c 0 -3.866 3.133 -7 7 -7 c 3.866 0 7 3.131 7 7 l 1 0 c 0 -4.419 -3.578 -8 -8 -8 z m 0 3 c -3.313 0 -6 2.687 -6 6 l 1 0 c 0 -2.76 2.24 -5 5 -5 c 2.76 0 4.998 2.24 4.998 5 l 1 0 c 0 -3.313 -2.685 -6 -5.998 -6 z m 0 3 c -1.541 0 -3 1.085 -3 2.471 l 0 5.02 c 0 1.385 1.464 2.514 3 2.514 c 1.541 0 3 -1.128 3 -2.514 l 0 -5.01 c 0 -1.385 -1.462 -2.475 -3 -2.475 z m -4.5 4 c -0.277 0 -0.5 0.223 -0.5 0.5 l 0 2.953 c 0 1.97 1.062 3.624 3 4.248 l 0 1.299 l -2 0 c -0.554 0 -1 0.446 -1 1 l 0 1 l 10 0 l 0 -1 c 0 -0.554 -0.446 -1 -1 -1 l -2 0 l 0 -1.299 c 1.935 -0.627 3 -2.282 3 -4.248 l 0 -2.953 c 0 -0.277 -0.223 -0.5 -0.5 -0.5 c -0.277 0 -0.5 0.223 -0.5 0.5 l 0 2.953 c 0 1.963 -1.831 3.547 -4 3.547 c -2.169 0 -4 -1.58 -4 -3.547 l 0 -2.953 c 0 -0.277 -0.223 -0.5 -0.5 -0.5 z" transform="matrix(0.28222223,0,0,0.28222223,-1.1120769e-4,0.00399975)" style="fill:#000;opacity:0.1;fill-opacity:1;stroke:none"/>
  <path d="m 24 11 c -5.524 0 -10 4.48 -10 10 l 1 0 c 0 -4.971 4.03 -9 9 -9 4.971 0 9 4.03 9 9 l 0.998 0 c 0 -5.524 -4.478 -10 -9.998 -10 m 0 3 c -4.419 0 -8 3.578 -8 8 l 1 0 c 0 -3.866 3.133 -7 7 -7 3.866 0 7 3.131 7 7 l 1 0 c 0 -4.419 -3.578 -8 -8 -8 z m 0 3 c -3.313 0 -6 2.687 -6 6 l 1 0 c 0 -2.76 2.24 -5 5 -5 2.76 0 4.998 2.24 4.998 5 l 1 0 c 0 -3.313 -2.685 -6 -5.998 -6 z" transform="matrix(0.28222223,0,0,0.28222223,-1.1120769e-4,0.00399975)" style="fill:#f9f9f9;fill-opacity:1;stroke:none"/>
  <path d="m 24 20 c -1.541 0 -3 1.085 -3 2.471 l 0 5.02 c 0 1.385 1.464 2.514 3 2.514 c 1.541 0 3 -1.128 3 -2.514 l 0 -5.01 c 0 -1.385 -1.462 -2.475 -3 -2.475 z m -4.5 4 c -0.277 0 -0.5 0.223 -0.5 0.5 l 0 2.953 c 0 1.97 1.062 3.624 3 4.248 l 0 1.299 l -2 0 c -0.554 0 -1 0.446 -1 1 l 0 1 l 10 0 l 0 -1 c 0 -0.554 -0.446 -1 -1 -1 l -2 0 l 0 -1.299 c 1.935 -0.627 3 -2.282 3 -4.248 l 0 -2.953 c 0 -0.277 -0.223 -0.5 -0.5 -0.5 c -0.277 0 -0.5 0.223 -0.5 0.5 l 0 2.953 c 0 1.963 -1.831 3.547 -4 3.547 c -2.169 0 -4 -1.58 -4 -3.547 l 0 -2.953 c 0 -0.277 -0.223 -0.5 -0.5 -0.5 z" transform="matrix(0.28222223,0,0,0.28222223,-1.1120769e-4,0.00399975)" style="fill:#f9f9f9;fill-opacity:1;color:#bebebe"/>
 </g>
</svg>
