<svg viewBox="0 0 48 48" xmlns="http://www.w3.org/2000/svg" xmlns:xlink="http://www.w3.org/1999/xlink">
  <linearGradient id="a" gradientTransform="matrix(0 -1 1 0 -.0000015 47.999998)" gradientUnits="userSpaceOnUse" x1="1" x2="47">
    <stop offset="0" stop-color="#c1e0a6"/>
    <stop offset="1" stop-color="#cae5b3"/>
  </linearGradient>
  <path d="m47 24c0 22.703-.297 23-23 23-22.703 0-23-.297-23-23 0-22.703.297-23 23-23 22.703 0 23 .297 23 23z" fill="url(#a)"/>
  <path d="m25 13c-4 0-6 1-6 2.75v2.25h6v1h-8.25c-1.939 0-3.75 2-3.75 6 0 4 1.811 6 3.75 6h1.25v-3.5c0-1.662 1.338-3 3-3h7c1.662 0 3-1.338 3-3v-5.75c0-1.75-2-2.75-6-2.75zm6.996 6v3.5c0 1.662-1.338 3-3 3h-7c-1.662 0-3 1.338-3 3v5.75c0 1.75 2 2.75 6 2.75 4 0 6-1 6-2.75v-2.25h-6v-1h8.25c1.939 0 3.754-2 3.754-6 0-4-1.815-6-3.754-6z" opacity=".1"/>
  <path d="m24 12c-4 0-6 1-6 2.75v2.25h6v1h-8.25c-1.939 0-3.75 2-3.75 6 0 4 1.811 6 3.75 6h1.25v-3.5c0-1.662 1.338-3 3-3h7c1.662 0 3-1.338 3-3v-5.75c0-1.75-2-2.75-6-2.75z" fill="#7bb54b"/>
  <path d="m23.997 36c4 0 6-1 6-2.75v-2.25h-6v-1h8.25c1.939 0 3.753-2 3.753-6 0-4-1.814-6-3.753-6h-1.25v3.5c0 1.662-1.338 3-3 3h-7c-1.662 0-3 1.338-3 3v5.75c0 1.75 2 2.75 6 2.75z" fill="#7bb54b"/>
  <circle cx="21" cy="15" fill="#4f5838" r="1"/>
  <circle cx="27" cy="33" fill="#4f5838" r="1"/>
  <path d="m19.297 23l-4.297 2 2.055.955c.255-1.4 1.47-2.457 2.945-2.457m10.582-.5c-.518.894-1.474 1.5-2.586 1.5h-7c-1.303 0-2.396.827-2.813 1.982l1.113.518h15.14c0 0 .563-.324.563-1.998 0-1.615-.633-2-.633-2" opacity=".1"/>
  <path d="m18.297 22l-4.297 2 4.297 1.998h15.14c0 0 .562-.324.562-1.998 0-1.615-.633-2-.633-2h-15.07z" fill="#e56767"/>
</svg>
