<svg xmlns="http://www.w3.org/2000/svg" viewBox="0 0 48 48">
 <defs>
  <linearGradient id="linearGradient3845" y1="47" x2="0" y2="1" gradientUnits="userSpaceOnUse">
   <stop style="stop-color:#f6cf56;stop-opacity:1"/>
   <stop offset="1" style="stop-color:#f7d469;stop-opacity:1"/>
  </linearGradient>
 </defs>
 <g>
  
  
  
 </g>
 <g>
  <path d="m 24 1 c 22.703 0 23 0.297 23 23 c 0 22.703 -0.297 23 -23 23 -22.703 0 -23 -0.297 -23 -23 0 -22.703 0.297 -23 23 -23 z" style="fill:url(#linearGradient3845);fill-opacity:1"/>
 </g>
 <path d="M 40 25 A 15 15 0 0 1 10 25 15 15 0 1 1 40 25" style="fill:#000;fill-opacity:0.118;stroke:none;fill-rule:nonzero"/>
 <path d="M 39 24 A 15 15 0 0 1 9 24 15 15 0 1 1 39 24" style="fill:#2a2e34;fill-opacity:1;stroke:none;fill-rule:nonzero"/>
 <path d="m 24 10 c -7.732 0 -14 6.268 -14 14 0 7.732 6.268 14 14 14 7.732 0 14 -6.268 14 -14 0 -7.732 -6.268 -14 -14 -14 z m 0 1 c 7.18 0 13 5.82 13 13 0 7.18 -5.82 13 -13 13 -7.18 0 -13 -5.82 -13 -13 0 -7.18 5.82 -13 13 -13 z m 0 1 c -6.627 0 -12 5.373 -12 12 0 6.627 5.373 12 12 12 6.627 0 12 -5.373 12 -12 0 -6.627 -5.373 -12 -12 -12 z m 0 1 c 6.075 0 11 4.925 11 11 0 6.075 -4.925 11 -11 11 -6.075 0 -11 -4.925 -11 -11 0 -6.075 4.925 -11 11 -11 z m 0 1 c -5.523 0 -10 4.477 -10 10 0 5.523 4.477 10 10 10 5.523 0 10 -4.477 10 -10 0 -5.523 -4.477 -10 -10 -10 z m 0 1 c 4.971 0 9 4.03 9 9 0 4.971 -4.03 9 -9 9 -4.971 0 -9 -4.03 -9 -9 0 -4.971 4.03 -9 9 -9 z m 0 1 c -4.418 0 -8 3.582 -8 8 0 4.418 3.582 8 8 8 4.418 0 8 -3.582 8 -8 0 -4.418 -3.582 -8 -8 -8 z m 0 1 c 3.866 0 7 3.134 7 7 0 3.866 -3.134 7 -7 7 -3.866 0 -7 -3.134 -7 -7 0 -3.866 3.134 -7 7 -7 z m 0 1 c -3.314 0 -6 2.686 -6 6 0 3.314 2.686 6 6 6 3.314 0 6 -2.686 6 -6 0 -3.314 -2.686 -6 -6 -6 z" style="fill:#3d4147;opacity:1;fill-opacity:1;stroke:none"/>
 <path d="m 24.15 19 c -2.818 -0.083 -5.147 2.179 -5.146 4.998 c 0 6.667 10 6.667 10 0 0 -2.704 -2.15 -4.919 -4.854 -4.998 z m -0.146 3.998 c 0.552 0 1 0.448 1 1 0 0.552 -0.448 1 -1 1 -0.552 0 -1 -0.448 -1 -1 0 -0.552 0.448 -1 1 -1 z" style="fill:#d2a517;fill-opacity:1;stroke:none;fill-rule:nonzero"/>
 <g>
  
 </g>
</svg>
