<svg viewBox="0 0 48 48" xmlns="http://www.w3.org/2000/svg" xmlns:xlink="http://www.w3.org/1999/xlink">
  <linearGradient id="a" gradientUnits="userSpaceOnUse" x2="0" y1="47" y2="1">
    <stop offset="0" stop-color="#f6cf56"/>
    <stop offset="1" stop-color="#f7d469"/>
  </linearGradient>
  <path d="m24 1c22.703 0 23 .297 23 23 0 22.703-.297 23-23 23-22.703 0-23-.297-23-23 0-22.703.297-23 23-23z" fill="url(#a)"/>
  <path d="m40 25a15 15 0 0 1-30 0 15 15 0 1 1  30 0" fill-opacity=".118"/>
  <path d="m39 24a15 15 0 0 1-30 0 15 15 0 1 1  30 0" fill="#2a2e34"/>
  <path d="m24 10c-7.732 0-14 6.268-14 14 0 7.732 6.268 14 14 14 7.732 0 14-6.268 14-14 0-7.732-6.268-14-14-14zm0 1c7.18 0 13 5.82 13 13 0 7.18-5.82 13-13 13-7.18 0-13-5.82-13-13 0-7.18 5.82-13 13-13zm0 1c-6.627 0-12 5.373-12 12 0 6.627 5.373 12 12 12 6.627 0 12-5.373 12-12 0-6.627-5.373-12-12-12zm0 1c6.075 0 11 4.925 11 11 0 6.075-4.925 11-11 11-6.075 0-11-4.925-11-11 0-6.075 4.925-11 11-11zm0 1c-5.523 0-10 4.477-10 10 0 5.523 4.477 10 10 10 5.523 0 10-4.477 10-10 0-5.523-4.477-10-10-10zm0 1c4.971 0 9 4.03 9 9 0 4.971-4.03 9-9 9-4.971 0-9-4.03-9-9 0-4.971 4.03-9 9-9zm0 1c-4.418 0-8 3.582-8 8 0 4.418 3.582 8 8 8 4.418 0 8-3.582 8-8 0-4.418-3.582-8-8-8zm0 1c3.866 0 7 3.134 7 7 0 3.866-3.134 7-7 7-3.866 0-7-3.134-7-7 0-3.866 3.134-7 7-7zm0 1c-3.314 0-6 2.686-6 6 0 3.314 2.686 6 6 6 3.314 0 6-2.686 6-6 0-3.314-2.686-6-6-6z" fill="#3d4147"/>
  <path d="m24.15 19c-2.818-.083-5.147 2.179-5.146 4.998 0 6.667 10 6.667 10 0 0-2.704-2.15-4.919-4.854-4.998zm-.146 3.998c.552 0 1 .448 1 1 0 .552-.448 1-1 1-.552 0-1-.448-1-1 0-.552.448-1 1-1z" fill="#d2a517"/>
</svg>
