<svg viewBox="0 0 48 48" xmlns="http://www.w3.org/2000/svg" xmlns:xlink="http://www.w3.org/1999/xlink">
  <linearGradient id="a" gradientTransform="matrix(0 -1 1 0 -.0000015 47.999998)" gradientUnits="userSpaceOnUse" x1="1" x2="47">
    <stop offset="0" stop-color="#d7790b"/>
    <stop offset="1" stop-color="#eb840c"/>
  </linearGradient>
  <path d="m47 24c0 22.703-.297 23-23 23-22.703 0-23-.297-23-23 0-22.703.297-23 23-23 22.703 0 23 .297 23 23z" fill="url(#a)"/>
  <path d="m7.68 24.66c2.656-3.57 5.508-6.918 11.492-6.762 4.223-.047 8.102 1.348 10.625 3.355l8.188-4.27c-.832 2.738-1.043 4.949-.918 6.457.105 1.938.75 3.594 1.781 6.457l-8.441-2.695c-7.438 4.867-10.523 4.113-10.879 4.223-5.668.168-9.148-2.75-11.848-6.766m0 0" opacity=".1" stroke="#262c67" transform="translate(1 1)"/>
  <path d="m7.68 24.66c2.656-3.57 5.508-6.918 11.492-6.762 4.223-.047 8.102 1.348 10.625 3.355l8.188-4.27c-.832 2.738-1.043 4.949-.918 6.457.105 1.938.75 3.594 1.781 6.457l-8.441-2.695c-7.438 4.867-10.523 4.113-10.879 4.223-5.668.168-9.148-2.75-11.848-6.766m0 0" fill="#6286b2" stroke="#262c67"/>
</svg>
