<svg viewBox="0 0 48 48" xmlns="http://www.w3.org/2000/svg" xmlns:xlink="http://www.w3.org/1999/xlink">
  <linearGradient id="a" gradientTransform="matrix(0 -1 1 0 -.0000015 47.999998)" gradientUnits="userSpaceOnUse" x1="1" x2="47">
    <stop offset="0" stop-color="#87668c"/>
    <stop offset="1" stop-color="#917096"/>
  </linearGradient>
  <path d="m47 24c0 22.703-.297 23-23 23-22.703 0-23-.297-23-23 0-22.703.297-23 23-23 22.703 0 23 .297 23 23z" fill="url(#a)"/>
  <path d="m24.945 36c-3.434 0-6.125-1.063-8.07-3.184-1.926-2.137-2.891-4.902-2.891-8.293v-.855c0-3.391.965-6.184 2.891-8.375 1.941-2.207 4.445-3.305 7.504-3.293 3.16 0 5.551.961 7.176 2.887 1.621 1.91 2.434 4.469 2.434 7.672v3.441h-15c .055 1.895.977 2.898 1.934 4.082.957 1.184 2.398 1.777 4.328 1.777 1.434 0 2.676-.172 3.715-.516 1.063-.344 2.039-.832 2.934-1.473l1.719 3.398c-.895.766-2.086 1.414-3.578 1.945-1.477.52-3.18.789-5.102.789m-.41-20c-3.543 0-5.547 3-5.547 6 3 0 6.977 0 10 0 0-3-1.691-6-4.484-6" opacity=".1" transform="translate(1 1)"/>
  <path d="m24.945 36c-3.434 0-6.125-1.063-8.07-3.184-1.926-2.137-2.891-4.902-2.891-8.293v-.855c0-3.391.965-6.184 2.891-8.375 1.941-2.207 4.445-3.305 7.504-3.293 3.16 0 5.551.961 7.176 2.887 1.621 1.91 2.434 4.469 2.434 7.672v3.441h-15c .055 1.895.977 2.898 1.934 4.082.957 1.184 2.398 1.777 4.328 1.777 1.434 0 2.676-.172 3.715-.516 1.063-.344 2.039-.832 2.934-1.473l1.719 3.398c-.895.766-2.086 1.414-3.578 1.945-1.477.52-3.18.789-5.102.789m-.41-20c-3.543 0-5.547 3-5.547 6 3 0 6.977 0 10 0 0-3-1.691-6-4.484-6" fill="#f9f9f9"/>
</svg>
