<svg viewBox="0 0 48 48" xmlns="http://www.w3.org/2000/svg" xmlns:xlink="http://www.w3.org/1999/xlink">
  <linearGradient id="a" gradientTransform="matrix(0 -1 1 0 -.0000015 47.999998)" gradientUnits="userSpaceOnUse" x1="1" x2="47">
    <stop offset="0" stop-color="#63c632"/>
    <stop offset="1" stop-color="#6cce3d"/>
  </linearGradient>
  <path d="m47 24c0 22.703-.297 23-23 23-22.703 0-23-.297-23-23 0-22.703.297-23 23-23 22.703 0 23 .297 23 23z" fill="url(#a)"/>
  <path d="m15.199 16.04h2.469c.141 0 .254-.113.254-.254 0 0-.031-2.09-.031-2.672v-.008c0-.477.102-.895.281-1.242l.082-.156c-.008 0-.02.004-.027.016l-4.797 4.699c-.008.008-.012.02-.016.031.098-.051.234-.117.254-.125.418-.188.922-.289 1.531-.289m19.2-.512c-.195-1.039-.816-1.547-1.383-1.75-.609-.219-1.844-.441-3.391-.621-1.25-.148-2.715-.137-3.602-.109-.105-.719-.617-1.375-1.188-1.605-1.523-.602-3.875-.457-4.48-.289-.477.129-1.012.402-1.305.82-.199.281-.328.641-.328 1.141 0 .281.008.949.016 1.543.008.602.016 1.129.016 1.129 0 .531-.434.961-.973.973h-2.469c-.527 0-.93.086-1.234.223-.309.141-.527.324-.691.547-.332.438-.387.977-.387 1.527 0 0 .004.441.113 1.316.094.68.832 5.391 1.535 6.816.273.559.453.789.988 1.035 1.191.504 3.918 1.066 5.191 1.227 1.277.16 2.074.5 2.551-.48.004 0 .098-.246.227-.605.414-1.238.469-2.34.469-3.137 0-.078.121-.082.121 0 0 .563-.109 2.551 1.41 3.086.602.211 1.844.398 3.109.543 1.145.129 1.973.574 1.973 3.477 0 1.766-.375 2-2.332 2-1.59 0-2.195.043-2.195-1.207 0-1.012 1.012-.898 1.758-.898.332 0 .09-.246.09-.867 0-.617.391-.977.02-.984-2.582-.07-4.105-.004-4.105 3.191 0 2.902 1.125 3.441 4.793 3.441 2.875 0 3.891-.098 5.078-3.738.234-.719.805-2.914 1.148-6.602.215-2.328-.207-9.359-.543-11.141m-5.01 7.773c-.355-.016-.699.012-1.023.063.098-.719.395-1.598 1.445-1.559 1.176.039 1.34 1.137 1.344 1.879-.496-.219-1.102-.359-1.77-.383m0 0" opacity=".1" transform="translate(1 1)"/>
  <path d="m15.199 16.04h2.469c.141 0 .254-.113.254-.254 0 0-.031-2.09-.031-2.672v-.008c0-.477.102-.895.281-1.242l.082-.156c-.008 0-.02.004-.027.016l-4.797 4.699c-.008.008-.012.02-.016.031.098-.051.234-.117.254-.125.418-.188.922-.289 1.531-.289m19.2-.512c-.195-1.039-.816-1.547-1.383-1.75-.609-.219-1.844-.441-3.391-.621-1.25-.148-2.715-.137-3.602-.109-.105-.719-.617-1.375-1.188-1.605-1.523-.602-3.875-.457-4.48-.289-.477.129-1.012.402-1.305.82-.199.281-.328.641-.328 1.141 0 .281.008.949.016 1.543.008.602.016 1.129.016 1.129 0 .531-.434.961-.973.973h-2.469c-.527 0-.93.086-1.234.223-.309.141-.527.324-.691.547-.332.438-.387.977-.387 1.527 0 0 .004.441.113 1.316.094.68.832 5.391 1.535 6.816.273.559.453.789.988 1.035 1.191.504 3.918 1.066 5.191 1.227 1.277.16 2.074.5 2.551-.48.004 0 .098-.246.227-.605.414-1.238.469-2.34.469-3.137 0-.078.121-.082.121 0 0 .563-.109 2.551 1.41 3.086.602.211 1.844.398 3.109.543 1.145.129 1.973.574 1.973 3.477 0 1.766-.375 2-2.332 2-1.59 0-2.195.043-2.195-1.207 0-1.012 1.012-.898 1.758-.898.332 0 .09-.246.09-.867 0-.617.391-.977.02-.984-2.582-.07-4.105-.004-4.105 3.191 0 2.902 1.125 3.441 4.793 3.441 2.875 0 3.891-.098 5.078-3.738.234-.719.805-2.914 1.148-6.602.215-2.328-.207-9.359-.543-11.141m-5.01 7.773c-.355-.016-.699.012-1.023.063.098-.719.395-1.598 1.445-1.559 1.176.039 1.34 1.137 1.344 1.879-.496-.219-1.102-.359-1.77-.383m0 0" fill="#2d2d2d"/>
</svg>
