<svg viewBox="0 0 48 48" xmlns="http://www.w3.org/2000/svg" xmlns:xlink="http://www.w3.org/1999/xlink">
  <linearGradient id="a" gradientTransform="matrix(0 -1 1 0 -.0000015 47.999998)" gradientUnits="userSpaceOnUse" x1="1" x2="47">
    <stop offset="0" stop-color="#e33562"/>
    <stop offset="1" stop-color="#e64772"/>
  </linearGradient>
  <path d="m47 24c0 22.703-.297 23-23 23-22.703 0-23-.297-23-23 0-22.703.297-23 23-23 22.703 0 23 .297 23 23z" fill="url(#a)"/>
  <path d="m12 17v7c0 0 5-3.469 5 2.5 0 5.992-5 2.5-5 2.5v7h7c0 0-2.395-5 3-5 5.523 0 3 5 3 5h7v-7c0 0 4 2.504 4-2.5 0-4-2-3.5-4-2.5v-7h-7c0 0 3-5-3-5-6 0-3 5-3 5m-7 0" opacity=".1" transform="translate(2)"/>
  <path d="m12 17v7c0 0 5-3.469 5 2.5 0 5.992-5 2.5-5 2.5v7h7c0 0-2.395-5 3-5 5.523 0 3 5 3 5h7v-7c0 0 4 2.504 4-2.5 0-4-2-3.5-4-2.5v-7h-7c0 0 3-5-3-5-6 0-3 5-3 5m-7 0" fill="#fff" transform="translate(1 -1)"/>
</svg>
