<svg xmlns="http://www.w3.org/2000/svg" viewBox="0 0 48 48">
 <defs>
  <linearGradient id="linearGradient3764" x1="1" x2="47" gradientUnits="userSpaceOnUse" gradientTransform="matrix(0,-1,1,0,-1.5e-6,47.999998)">
   <stop style="stop-color:#e33562;stop-opacity:1"/>
   <stop offset="1" style="stop-color:#e64772;stop-opacity:1"/>
  </linearGradient>
 </defs>
 <g>
  
  
  
 </g>
 <g>
  <path d="m 47,24 C 47,46.703 46.703,47 24,47 1.297,47 1,46.703 1,24 1,1.297 1.297,1 24,1 46.703,1 47,1.297 47,24 z" style="fill:url(#linearGradient3764);fill-opacity:1"/>
 </g>
 <g transform="translate(1,-1)">
  <g>
   <g transform="translate(1,1)">
    <g style="opacity:0.1">
     <!-- color: #e64772 -->
     <g>
      <path d="m 12 17 0 7 c 0 0 5 -3.469 5 2.5 0 5.992 -5 2.5 -5 2.5 l 0 7 7 0 c 0 0 -2.395 -5 3 -5 5.523 0 3 5 3 5 l 7 0 0 -7 c 0 0 4 2.504 4 -2.5 0 -4 -2 -3.5 -4 -2.5 l 0 -7 -7 0 c 0 0 3 -5 -3 -5 -6 0 -3 5 -3 5 m -7 0" style="fill:#000;fill-opacity:1;stroke:none;fill-rule:nonzero"/>
     </g>
    </g>
   </g>
  </g>
 </g>
 <g transform="translate(1,-1)">
  <g>
   <!-- color: #e64772 -->
   <g>
    <path d="m 12 17 0 7 c 0 0 5 -3.469 5 2.5 0 5.992 -5 2.5 -5 2.5 l 0 7 7 0 c 0 0 -2.395 -5 3 -5 5.523 0 3 5 3 5 l 7 0 0 -7 c 0 0 4 2.504 4 -2.5 0 -4 -2 -3.5 -4 -2.5 l 0 -7 -7 0 c 0 0 3 -5 -3 -5 -6 0 -3 5 -3 5 m -7 0" style="fill:#fff;fill-opacity:1;stroke:none;fill-rule:nonzero"/>
   </g>
  </g>
 </g>
 <g>
  
 </g>
</svg>
