<svg viewBox="0 0 48 48" xmlns="http://www.w3.org/2000/svg" xmlns:xlink="http://www.w3.org/1999/xlink">
  <linearGradient id="a" gradientTransform="matrix(0 -1 1 0 -.0000015 47.999998)" gradientUnits="userSpaceOnUse" x1="1" x2="47">
    <stop offset="0" stop-color="#bbd9d6"/>
    <stop offset="1" stop-color="#c8e0de"/>
  </linearGradient>
  <path d="m47 24c0 22.703-.297 23-23 23-22.703 0-23-.297-23-23 0-22.703.297-23 23-23 22.703 0 23 .297 23 23z" fill="url(#a)"/>
  <path d="m13.686 29.688c-.36 1.049-.133 2.25.707 3.09l2.83 2.83c.84.84 2.041 1.067 3.09.707.487.997 1.5 1.686 2.688 1.686h4c1.188 0 2.201-.689 2.688-1.686 1.049.36 2.25.133 3.09-.707l2.83-2.83c.84-.84 1.067-2.041.707-3.09.997-.487 1.686-1.5 1.686-2.688v-4c0-1.188-.689-2.201-1.686-2.688.36-1.049.133-2.25-.707-3.09l-2.83-2.83m-8.605 8.607h1.656l1.172 1.172v1.656l-1.172 1.172h-1.656l-1.172-1.172v-1.656z" opacity=".1"/>
  <rect fill="#36535a" height="11" rx="3" transform="rotate(-90)" width="10" x="-29" y="26"/>
  <rect fill="#86a4ba" height="11" rx="3" transform="matrix(.70710678 -.70710678 .70710678 .70710678 0 0)" width="10" x="-5" y="35.941"/>
  <rect fill="#36535a" height="11" rx="3" width="10" x="19" y="26"/>
  <rect fill="#86a4ba" height="11" rx="3" transform="matrix(-.70710678 -.70710678 .70710678 -.70710678 0 0)" width="10" x="-38.941" y="-13"/>
  <rect fill="#36535a" height="11" rx="3" transform="rotate(-90)" width="10" x="-29" y="11"/>
  <rect fill="#86a4ba" height="11" rx="3" transform="matrix(.70710678 -.70710678 .70710678 .70710678 0 0)" width="10" x="-5" y="20.941"/>
  <rect fill="#36535a" height="11" rx="3" width="10" x="19" y="11"/>
  <path d="m29.656 12.512c-.767 0-1.533.293-2.121.881l-3.535 3.537c-1.175 1.175-1.175 3.067 0 4.242l2 2v-1.172c0-1.662 1.338-3 3-3h5c .474 0 .916.118 1.314.313.36-1.049.133-2.25-.707-3.09l-2.83-2.83c-.588-.588-1.354-.881-2.121-.881" fill="#86a4ba"/>
</svg>
