<svg enable-background="new 403.1 279.8 48 48" viewBox="403.1 279.8 48 48" xmlns="http://www.w3.org/2000/svg" xmlns:xlink="http://www.w3.org/1999/xlink">
  <linearGradient id="a" gradientTransform="matrix(0 -1 1 0 403.1 327.8)" gradientUnits="userSpaceOnUse" x1="1" x2="47">
    <stop offset="0" stop-color="#3d3d3d"/>
    <stop offset="1" stop-color="#474747"/>
  </linearGradient>
  <path d="m439.41 284.8c5.859 4.062 9.688 10.831 9.688 18.5 0 12.426-10.07 22.5-22.5 22.5-7.669 0-14.438-3.828-18.5-9.688 1.037 1.822 2.306 3.499 3.781 4.969 4.085 3.712 9.514 5.969 15.469 5.969 22.703 0 23-10.298 23-23 0-5.954-2.256-11.384-5.969-15.469-1.469-1.475-3.147-2.744-4.969-3.781zm4.969 3.781c3.854 4.113 6.219 9.637 6.219 15.719 0 22.703-.297 23-23 23-6.081 0-11.606-2.364-15.719-6.219 4.16 4.144 9.883 6.719 16.219 6.719 22.703 0 23-10.298 23-23 0-6.335-2.575-12.06-6.719-16.219z" opacity=".05"/>
  <path d="m444.38 288.58c3.712 4.085 5.969 9.514 5.969 15.469 0 22.703-.297 23-23 23-5.954 0-11.384-2.256-15.469-5.969 4.113 3.854 9.637 6.219 15.719 6.219 22.703 0 23-10.298 23-23 0-6.081-2.364-11.606-6.219-15.719z" opacity=".1"/>
  <path d="m434.35 282.18c8.615 3.154 14.75 11.417 14.75 21.13 0 12.426-10.07 22.5-22.5 22.5-9.708 0-17.971-6.135-21.12-14.75a23 23 0 0 0 44.875-7 23 23 0 0 0-16-21.875z" opacity=".2"/>
  <path d="m427.1 280.8c22.703 0 23 .297 23 23 0 22.703-.297 23-23 23-22.703 0-23-.297-23-23 0-22.703.297-23 23-23z" fill="url(#a)"/>
  <path d="m426.1 291.8v2.191a11 11 0 0 0-4.232 1.748l-1.545-1.547-2.83 2.83 1.553 1.551a11 11 0 0 0-1.756 4.227h-2.189v4h2.191a11 11 0 0 0 1.748 4.232l-1.547 1.545 2.83 2.83 1.551-1.553a11 11 0 0 0 4.227 1.756v2.189h4v-2.191a11 11 0 0 0 4.232-1.748l1.545 1.547 2.83-2.83-1.553-1.551a11 11 0 0 0 1.756-4.227h2.189v-4h-2.191a11 11 0 0 0-1.748-4.232l1.547-1.545-2.83-2.83-1.551 1.553a11 11 0 0 0-4.227-1.756v-2.189zm2 5a8 8 0 0 1 8 8 8 8 0 0 1-8 8 8 8 0 0 1-8-8 8 8 0 0 1  8-8z" fill-opacity=".098"/>
  <path d="m22 11v2.191a11 11 0 0 0-4.232 1.748l-1.545-1.547-2.83 2.83 1.553 1.551a11 11 0 0 0-1.756 4.227h-2.189v4h2.191a11 11 0 0 0 1.748 4.232l-1.547 1.545 2.83 2.83 1.551-1.553a11 11 0 0 0 4.227 1.756v2.189h4v-2.191a11 11 0 0 0 4.232-1.748l1.545 1.547 2.83-2.83-1.553-1.551a11 11 0 0 0 1.756-4.227h2.189v-4h-2.191a11 11 0 0 0-1.748-4.232l1.547-1.545-2.83-2.83-1.551 1.553a11 11 0 0 0-4.227-1.756v-2.189zm2 5a8 8 0 0 1 8 8 8 8 0 0 1-8 8 8 8 0 0 1-8-8 8 8 0 0 1  8-8z" fill="#c46231" transform="translate(403.10001 279.79999)"/>
</svg>
