<svg viewBox="0 0 48 48" xmlns="http://www.w3.org/2000/svg" xmlns:xlink="http://www.w3.org/1999/xlink">
  <linearGradient id="a" gradientUnits="userSpaceOnUse" x1="1" x2="47">
    <stop offset="0" stop-color="#ed541b"/>
    <stop offset="1" stop-color="#ee622e"/>
  </linearGradient>
  <path d="m24 1c22.703 0 23 .297 23 23 0 22.703-.297 23-23 23-22.703 0-23-.297-23-23 0-22.703.297-23 23-23z" fill="url(#a)" transform="matrix(0 -1 1 0 0 48)"/>
  <path d="m24.24 13.01c-.892.016-1.777.05-2.359.137-2.607.399-4.694 1.315-6.04 2.647-.737.722-1.174 1.499-1.462 2.509-.158.61-.212 2.01-.047 2.544.548 1.882 1.846 3.328 4.293 4.778 1.039.615 1.84 1.019 4.151 2.062 2.771 1.246 3.616 1.749 4.01 2.372.154.253.213.383.189.687-.041.482-.283.722-.849.928-.377.133-.512.176-1.226.172-1.309-.009-2.46-.254-4.057-.825-1.126-.395-2.241-.941-3.16-1.547-.925-.606-1-.628-1.274-.481-.207.112-1.716 1.457-2.83 2.544-.725.709-.737.851-.236 1.341.495.489 1.881 1.516 2.642 1.959.826.485 1.38.757 2.311 1.1 1.562.58 2.873.821 5.33 1.031.56.047 2.553.052 3.255 0 3.845-.309 6.982-1.564 8.632-3.403.59-.653.949-1.212 1.226-1.994.272-.76.342-2.255.142-3.162-.331-1.47-1.215-2.797-2.642-3.918-1.432-1.122-2.883-1.869-6.368-3.265-2.435-.971-3.35-1.487-3.585-2.028-.13-.288-.053-.803.142-.997.383-.387 1.12-.528 2.076-.412 1.781.219 4.067 1.036 6.085 2.165.389.214.766.395.849.412.325.086.525-.043 1.84-1.547 1.615-1.852 1.598-1.775.708-2.406-2.648-1.9-5.719-3-9.246-3.334-.702-.064-1.608-.084-2.5-.069z" opacity=".1"/>
  <path d="m23.24 12.01c-.892.016-1.777.05-2.359.137-2.607.399-4.694 1.315-6.04 2.647-.737.722-1.174 1.499-1.462 2.509-.158.61-.212 2.01-.047 2.544.548 1.882 1.846 3.328 4.293 4.778 1.039.615 1.84 1.019 4.151 2.062 2.771 1.246 3.616 1.749 4.01 2.372.154.253.213.383.189.687-.041.482-.283.722-.849.928-.377.133-.512.176-1.226.172-1.309-.009-2.46-.254-4.057-.825-1.126-.395-2.241-.941-3.16-1.547-.925-.606-1-.628-1.274-.481-.207.112-1.716 1.457-2.83 2.544-.725.709-.737.851-.236 1.341.495.489 1.881 1.516 2.642 1.959.826.485 1.38.757 2.311 1.1 1.562.58 2.873.821 5.33 1.031.56.047 2.553.052 3.255 0 3.845-.309 6.982-1.564 8.632-3.403.59-.653.949-1.212 1.226-1.994.272-.76.342-2.255.142-3.162-.331-1.47-1.215-2.797-2.642-3.918-1.432-1.122-2.883-1.869-6.368-3.265-2.435-.971-3.35-1.487-3.585-2.028-.13-.288-.053-.803.142-.997.383-.387 1.12-.528 2.076-.412 1.781.219 4.067 1.036 6.085 2.165.389.214.766.395.849.412.325.086.525-.043 1.84-1.547 1.615-1.852 1.598-1.775.708-2.406-2.648-1.9-5.719-3-9.246-3.334-.702-.064-1.608-.084-2.5-.069z" fill="#f9f9f9"/>
</svg>
