<svg viewBox="0 0 48 48" xmlns="http://www.w3.org/2000/svg" xmlns:xlink="http://www.w3.org/1999/xlink">
  <linearGradient id="a" gradientTransform="matrix(0 -1 1 0 -.0000015 47.999998)" gradientUnits="userSpaceOnUse" x1="1" x2="47">
    <stop offset="0" stop-color="#243964"/>
    <stop offset="1" stop-color="#294172"/>
  </linearGradient>
  <path d="m47 24c0 22.703-.297 23-23 23-22.703 0-23-.297-23-23 0-22.703.297-23 23-23 22.703 0 23 .297 23 23z" fill="url(#a)"/>
  <path d="m19 12.984c-6 0-6 5.453-6 5.453v10.91.016c0 0 0 7.637 6 7.637h12c6 0 6-7.637 6-7.637v-.016-10.91c0-5.453-6-5.453-6-5.453z" opacity=".1" transform=""/>
  <path d="m18 11.984c-6 0-6 5.453-6 5.453v10.91c0 0 0 5.654 6 5.654h12c6 0 6-5.654 6-5.654v-10.91c0-5.453-6-5.453-6-5.453z" fill="#f9f9f9"/>
  <path d="m12 28.363c0 0 0 7.637 6 7.637h12c6 0 6-7.637 6-7.637 0 0 0 5.453-6 5.453h-12c-6 0-6-5.453-6-5.453z" fill="#dcdcdc"/>
  <path d="m27.21 16c-2.316 0-4.211 1.689-4.211 4v1.996h-2c-.551 0-1 .477-1 1 0 .512.461 1 1 1h1.695c.172 0 .305.136.305.3v1.704c0 1.157-.984 2.137-2.207 2.137-.414 0-.516-.061-.801-.061-.59 0-.988.375-.988.898 0 .43.386.797.859.914.324.082.574.107.926.107 2.316 0 4.211-1.689 4.211-4v-1.996h2c .551 0 1-.477 1-1 0-.512-.461-1-1-1h-1.695c-.172 0-.305-.136-.305-.3v-1.704c0-1.157.984-2.137 2.207-2.137.414 0 .516.061.801.061.59 0 .988-.375.988-.898 0-.43-.386-.797-.859-.914-.324-.082-.574-.107-.926-.107" fill="#868686"/>
</svg>
