<svg xmlns="http://www.w3.org/2000/svg" viewBox="0 0 48 48">
 <defs>
  <linearGradient id="linearGradient3764" x1="1" x2="47" gradientUnits="userSpaceOnUse" gradientTransform="matrix(0,-1,1,0,-1.5e-6,47.999998)">
   <stop style="stop-color:#e4e4e4;stop-opacity:1"/>
   <stop offset="1" style="stop-color:#eee;stop-opacity:1"/>
  </linearGradient>
 </defs>
 <g>
  
  
  
 </g>
 <g>
  <path d="m 47,24 C 47,46.703 46.703,47 24,47 1.297,47 1,46.703 1,24 1,1.297 1.297,1 24,1 46.703,1 47,1.297 47,24 z" style="fill:url(#linearGradient3764);fill-opacity:1"/>
 </g>
 <g>
  <g>
   <g transform="translate(1,1)">
    <g style="opacity:0.1">
     <!-- color: #eeeeee -->
     <g>
      <path d="m 29.996 17 c -2.02 0 -3.841 0.761 -5.236 2 l -10.701 0 c -1.137 0 -2.059 0.922 -2.059 2.059 l 0 7.883 c 0 1.137 0.922 2.066 2.059 2.066 l 10.713 0 c 1.394 1.234 3.215 1.99 5.225 1.99 c 4.412 0 8 -3.591 8 -8 0 -4.408 -3.59 -8 -8 -8 z" transform="translate(-1,-1)" style="fill:#000"/>
      <path transform="translate(-1,-1)" d="m 29.996 17 c -2.02 0 -3.841 0.761 -5.236 2 l -10.701 0 c -1.137 0 -2.059 0.922 -2.059 2.059 l 0 7.883 c 0 1.137 0.922 2.066 2.059 2.066 l 10.713 0 c 1.394 1.234 3.215 1.99 5.225 1.99 c 4.412 0 8 -3.591 8 -8 0 -4.408 -3.59 -8 -8 -8 z" style="fill:#000"/>
     </g>
    </g>
   </g>
  </g>
 </g>
 <g>
  <g>
   <!-- color: #eeeeee -->
   <g>
    <path d="m 11,20.06 0,7.883 c 0,1.137 0.922,2.066 2.059,2.066 l 19.879,0 c 1.137,0 2.059,-0.93 2.059,-2.066 l 0,-7.883 c 0,-1.137 -0.922,-2.059 -2.059,-2.059 l -19.879,0 C 11.922,18.001 11,18.923 11,20.06 m 0,0" style="fill:#216fab;fill-opacity:1;stroke:none;fill-rule:evenodd"/>
    <path d="m 328.31 157.22 c 0 -3.806 -3.086 -6.891 -6.893 -6.891 -3.81 0 -6.893 3.086 -6.893 6.891 0 3.806 3.083 6.891 6.893 6.891 3.807 0 6.893 -3.086 6.893 -6.891 m 0 0" transform="matrix(-1.0467,0,0,1.04698,365.42511,-140.60607)" style="stroke-opacity:1;fill:#eaeaea;stroke-miterlimit:4;fill-opacity:1;stroke:#ccc;fill-rule:nonzero;stroke-linecap:round;stroke-linejoin:miter;stroke-width:1.5"/>
   </g>
  </g>
 </g>
 <g>
  
 </g>
</svg>
