<svg viewBox="0 0 48 48" xmlns="http://www.w3.org/2000/svg" xmlns:xlink="http://www.w3.org/1999/xlink">
  <linearGradient id="a" gradientTransform="matrix(0 -1 1 0 -.0000015 47.999998)" gradientUnits="userSpaceOnUse" x1="1" x2="47">
    <stop offset="0" stop-color="#e4e4e4"/>
    <stop offset="1" stop-color="#eee"/>
  </linearGradient>
  <path d="m47 24c0 22.703-.297 23-23 23-22.703 0-23-.297-23-23 0-22.703.297-23 23-23 22.703 0 23 .297 23 23z" fill="url(#a)"/>
  <g opacity=".1" transform="translate(1 1)">
    <path d="m29.996 17c-2.02 0-3.841.761-5.236 2h-10.701c-1.137 0-2.059.922-2.059 2.059v7.883c0 1.137.922 2.066 2.059 2.066h10.713c1.394 1.234 3.215 1.99 5.225 1.99 4.412 0 8-3.591 8-8 0-4.408-3.59-8-8-8z" transform="translate(-1 -1)"/>
    <path d="m29.996 17c-2.02 0-3.841.761-5.236 2h-10.701c-1.137 0-2.059.922-2.059 2.059v7.883c0 1.137.922 2.066 2.059 2.066h10.713c1.394 1.234 3.215 1.99 5.225 1.99 4.412 0 8-3.591 8-8 0-4.408-3.59-8-8-8z" transform="translate(-1 -1)"/>
  </g>
  <path d="m11 20.06v7.883c0 1.137.922 2.066 2.059 2.066h19.879c1.137 0 2.059-.93 2.059-2.066v-7.883c0-1.137-.922-2.059-2.059-2.059h-19.879c-1.137 0-2.059.922-2.059 2.059m0 0" fill="#216fab" fill-rule="evenodd"/>
  <path d="m328.31 157.22c0-3.806-3.086-6.891-6.893-6.891-3.81 0-6.893 3.086-6.893 6.891 0 3.806 3.083 6.891 6.893 6.891 3.807 0 6.893-3.086 6.893-6.891m0 0" fill="#eaeaea" stroke="#ccc" stroke-linecap="round" stroke-width="1.5" transform="matrix(-1.0467 0 0 1.04698 365.42511 -140.60607)"/>
</svg>
