<svg viewBox="0 0 48 48" xmlns="http://www.w3.org/2000/svg" xmlns:xlink="http://www.w3.org/1999/xlink">
  <linearGradient id="a" gradientTransform="matrix(0 -1 1 0 -.0000015 47.999998)" gradientUnits="userSpaceOnUse" x1="1" x2="47">
    <stop offset="0" stop-color="#3d3d3d"/>
    <stop offset="1" stop-color="#474747"/>
  </linearGradient>
  <path d="m47 24c0 22.703-.297 23-23 23-22.703 0-23-.297-23-23 0-22.703.297-23 23-23 22.703 0 23 .297 23 23z" fill="url(#a)"/>
  <g opacity=".1" transform="translate(1 1)">
    <path d="m21.664 33.02c5.805-1.023 17.215-6.617 3.852-8.773 10.949-.09 11.516-3.03 5.566-10.629 14.02 11.812-.121 21.11-8.926 23.395m-.492-3.992"/>
    <path d="m26.336 14.98c-5.801 1.023-17.215 6.621-3.852 8.773-10.949.094-11.516 3.035-5.566 10.629-14.02-11.813.121-21.11 8.926-23.391m.492 3.988"/>
  </g>
  <path d="m21.664 33.02c5.805-1.023 17.215-6.617 3.852-8.773 10.949-.09 11.516-3.03 5.566-10.629 14.02 11.812-.121 21.11-8.926 23.395m-.492-3.992" fill="#ff2c4a"/>
  <path d="m26.336 14.98c-5.801 1.023-17.215 6.621-3.852 8.773-10.949.094-11.516 3.035-5.566 10.629-14.02-11.813.121-21.11 8.926-23.391m.492 3.988" fill="#69cc2f"/>
</svg>
