<svg xmlns="http://www.w3.org/2000/svg" viewBox="0 0 48 48">
 <defs>
  <linearGradient id="linearGradient3764" x1="1" x2="47" gradientUnits="userSpaceOnUse" gradientTransform="matrix(0,-1,1,0,-1.5e-6,47.999998)">
   <stop style="stop-color:#2db958;stop-opacity:1"/>
   <stop offset="1" style="stop-color:#31c960;stop-opacity:1"/>
  </linearGradient>
 </defs>
 <g>
  
  
  
 </g>
 <g>
  <path d="m 47,24 C 47,46.703 46.703,47 24,47 1.297,47 1,46.703 1,24 1,1.297 1.297,1 24,1 46.703,1 47,1.297 47,24 z" style="fill:url(#linearGradient3764);fill-opacity:1"/>
 </g>
 <g>
  
 </g>
 <g transform="matrix(3.543307,0,0,3.543307,0.99999982,2)" style="fill:#000;opacity:0.1;fill-opacity:1">
  <path d="m 14 16 c -0.5 0 -1 0.5 -1 1 0 5.667 0 11.333 0 17 l 24 0 0 -14.934 c 0 -0.533 -0.5 -1.066 -1 -1.066 c -3.333 0 -6.667 0 -10 0 l -1 -2 z" transform="matrix(0.28222223,0,0,0.28222223,-0.28222231,-0.56444449)" style="stroke:none"/>
 </g>
 <g transform="scale(3.543307,3.543307)">
  <path d="m 3.387 4.516 0 3.951 6.491 0 0 -1.976 -0.282 -1.693 -2.54 0 -0.282 -0.564 -3.104 0 c -0.141 0 -0.282 0.141 -0.282 0.282 z" style="fill:#ff8f00;fill-opacity:1;stroke:none"/>
  <rect y="5.08" x="3.951" height="1.129" width="3.104" style="fill:#fffdf0;fill-opacity:1;stroke:none"/>
  <path d="m 10.16 5.099 0 4.215 -6.773 0 0 -3.951 3.387 0 0.282 -0.564 2.822 0 c 0.141 0 0.282 0.151 0.282 0.301 z" style="fill:#ffca28;fill-opacity:1;stroke:none"/>
 </g>
</svg>
