<svg viewBox="0 0 48 48" xmlns="http://www.w3.org/2000/svg" xmlns:xlink="http://www.w3.org/1999/xlink">
  <linearGradient id="a" gradientTransform="matrix(0 -1 1 0 -.0000015 47.999998)" gradientUnits="userSpaceOnUse" x1="1" x2="47">
    <stop offset="0" stop-color="#af0505"/>
    <stop offset="1" stop-color="#c20606"/>
  </linearGradient>
  <path d="m47 24c0 22.703-.297 23-23 23-22.703 0-23-.297-23-23 0-22.703.297-23 23-23 22.703 0 23 .297 23 23z" fill="url(#a)"/>
  <path d="m18 13l-5 21h4.1l2.15-9h10.75l-10.071 8.962 2.633 3.038 1.348-.703c2.551-1.309 3.621-.543 5.555-.008 1.883.52 3.656 1.078 7.328-1.035l-.73-3.734c-4 2.848-5.273.309-8.129.203l8.066-6.723 1-4h-16.8l.98-4h10.82l1-4" opacity=".1"/>
  <path d="m17 12l-5 21h4.1l2.15-9h10.75l-10.071 8.962 2.633 3.038 1.348-.703c2.551-1.309 3.621-.543 5.555-.008 1.883.52 3.656 1.078 7.328-1.035l-.73-3.734c-4 2.848-5.273.309-8.129.203l8.066-6.723 1-4h-16.8l.98-4h10.82l1-4" fill="#f9f9f9"/>
</svg>
