<svg viewBox="0 0 48 48" xmlns="http://www.w3.org/2000/svg" xmlns:xlink="http://www.w3.org/1999/xlink">
  <linearGradient id="a" gradientTransform="matrix(0 -1 1 0 -.0000015 47.999998)" gradientUnits="userSpaceOnUse" x1="1" x2="47">
    <stop offset="0" stop-color="#2db958"/>
    <stop offset="1" stop-color="#31c960"/>
  </linearGradient>
  <path d="m47 24c0 22.703-.297 23-23 23-22.703 0-23-.297-23-23 0-22.703.297-23 23-23 22.703 0 23 .297 23 23z" fill="url(#a)"/>
  <path d="m14 16c-.5 0-1 .5-1 1 0 5.667 0 11.333 0 17h24v-14.934c0-.533-.5-1.066-1-1.066-3.333 0-6.667 0-10 0l-1-2z" opacity=".1" transform="matrix(1 0 0 1 -.00000047 -.00000011)"/>
  <g transform="scale(3.543307)">
    <path d="m3.387 4.516v3.951h6.491v-1.976l-.282-1.693h-2.54l-.282-.564h-3.104c-.141 0-.282.141-.282.282z" fill="#ff8f00"/>
    <path d="m3.951 5.08h3.104v1.129h-3.104z" fill="#fffdf0"/>
    <path d="m10.16 5.099v4.215h-6.773v-3.951h3.387l.282-.564h2.822c.141 0 .282.151.282.301z" fill="#ffca28"/>
  </g>
</svg>
