<svg xmlns="http://www.w3.org/2000/svg" viewBox="0 0 48 48">
 <defs>
  <linearGradient id="linearGradient3764" x1="1" x2="47" gradientUnits="userSpaceOnUse" gradientTransform="matrix(0,-1,1,0,-1.5e-6,47.999998)">
   <stop style="stop-color:#814949;stop-opacity:1"/>
   <stop offset="1" style="stop-color:#8e5050;stop-opacity:1"/>
  </linearGradient>
  <linearGradient id="linear0" gradientUnits="userSpaceOnUse" y1="844.09" x2="0" y2="-176.38" gradientTransform="matrix(0.0355394,0,0,0.0313583,10.315665,8.53083)">
   <stop style="stop-color:#ff6900;stop-opacity:1"/>
   <stop offset="1" style="stop-color:#ffec00;stop-opacity:1"/>
  </linearGradient>
 </defs>
 <g>
  
  
  
 </g>
 <g>
  <path d="m 47,24 C 47,46.703 46.703,47 24,47 1.297,47 1,46.703 1,24 1,1.297 1.297,1 24,1 46.703,1 47,1.297 47,24 z" style="fill:url(#linearGradient3764);fill-opacity:1"/>
 </g>
 <g>
  <g>
   <g transform="translate(1,1)">
    <g style="opacity:0.1">
     <!-- color: #8e5050 -->
     <g>
      <path d="m 20 9 c -0.574 0.77 -1.039 3.41 0.621 4.715 c 1.961 1.563 2.379 3.441 2.379 6.285 c 0 4 -3.379 7.203 -1 11 c -6.641 -5.469 0.051 -13.676 -5 -17 c 2 5 -5 8 -4.984 12.852 c -0.016 5.148 3.984 8.148 8.785 8.137 c -3.422 -1.391 -4.977 -5.59 -4.801 -7.988 c 2.406 5.453 6 8 12 8 c -2.313 -3.02 -2.691 -3.402 -2.824 -5.324 c 0.012 -1.773 0.727 -2.168 1.977 -4.387 c 3.145 -4.934 1.707 -9.914 -2.574 -12.238 c -0.871 -0.434 -1.105 -0.555 -2.691 -1.176 c -0.914 -0.426 -1.824 -1.352 -1.887 -2.875 m 10.727 8.355 c 3.172 4.059 -0.441 7.355 -2.098 9.84 c -1.359 1.953 -0.051 5.184 1.371 7.805 c 0.125 -2.215 1.602 -3.738 2.797 -4.531 c 3.66 -2.754 3.777 -6.355 1.836 -9.559 c -1.219 -1.758 -2.297 -2.328 -3.906 -3.555 m 0 0" style="fill:#000;stroke:none;fill-rule:nonzero"/>
     </g>
    </g>
   </g>
  </g>
 </g>
 <g>
  <g>
   <!-- color: #8e5050 -->
   <g>
    <path d="m 20 9 c -0.574 0.77 -1.039 3.41 0.621 4.715 c 1.961 1.563 2.379 3.441 2.379 6.285 c 0 4 -3.379 7.203 -1 11 c -6.641 -5.469 0.051 -13.676 -5 -17 c 2 5 -5 8 -4.984 12.852 c -0.016 5.148 3.984 8.148 8.785 8.137 c -3.422 -1.391 -4.977 -5.59 -4.801 -7.988 c 2.406 5.453 6 8 12 8 c -2.313 -3.02 -2.691 -3.402 -2.824 -5.324 c 0.012 -1.773 0.727 -2.168 1.977 -4.387 c 3.145 -4.934 1.707 -9.914 -2.574 -12.238 c -0.871 -0.434 -1.105 -0.555 -2.691 -1.176 c -0.914 -0.426 -1.824 -1.352 -1.887 -2.875 m 10.727 8.355 c 3.172 4.059 -0.441 7.355 -2.098 9.84 c -1.359 1.953 -0.051 5.184 1.371 7.805 c 0.125 -2.215 1.602 -3.738 2.797 -4.531 c 3.66 -2.754 3.777 -6.355 1.836 -9.559 c -1.219 -1.758 -2.297 -2.328 -3.906 -3.555 m 0 0" style="fill:url(#linear0);stroke:none;fill-rule:nonzero"/>
   </g>
  </g>
 </g>
 <g>
  
 </g>
</svg>
