<svg viewBox="0 0 48 48" xmlns="http://www.w3.org/2000/svg" xmlns:xlink="http://www.w3.org/1999/xlink">
  <linearGradient id="a" gradientTransform="matrix(0 -1 1 0 -.0000015 47.999998)" gradientUnits="userSpaceOnUse" x1="1" x2="47">
    <stop offset="0" stop-color="#ffd75d"/>
    <stop offset="1" stop-color="#ffdd72"/>
  </linearGradient>
  <path d="m47 24c0 22.703-.297 23-23 23-22.703 0-23-.297-23-23 0-22.703.297-23 23-23 22.703 0 23 .297 23 23z" fill="url(#a)"/>
  <path d="m17 2.906l-.84.25-.969.066-.598.434-.777-.031.063.5 1.125-.031.406 1.094.156.598-.625.346-.25.465.188 1.063.75.125.719-.688.625-.656.969-.25 1.219-.594.721-.875 1.029-1.254.721-.189-.031-.275h-1.125l-3.469-.096zm9.969.48c-.055.02-1.531.023-1.531.023l-.375.098.5.598.531-.5.344.219.5-.25c0 0 .09-.211.031-.188zm6 .461l-.375.004-.471.063-.404.25-.471.35-.279.5.438.438.375.031.156-.254-.375-.314.219-.188.031-.152.469-.313c0 0 .609.008.656 0 .047-.012.188-.191.188-.191zm3.105.578l-.266.176-.621.375-.531.438.064.189-.281.031v.004l-4.08.678-1.203.645-.313-.223-.156-.25.064-.254.689.035.314-.125-.625-.314-.875-.314-.875-.156-.939.191-.973.779-.438.439-.656.719-.254.031-.09.344.125.344c0 0 .133.156.152.156.023 0 .254-.125.254-.125 0 0 .027-.117.156-.156.129-.039.25-.063.25-.063l.188.375.219.313.098.25c0 0 .363-.223.375-.25.016-.031.027-.41.027-.41l.281-.188c0 0 .074-.133.066-.156-.012-.02-.191-.219-.191-.219l-.156-.063.066-.316c0 0 .121-.051.121-.094 0-.039.191-.189.191-.189l.219-.275.156-.189.219-.156.25.189v.125l-.219.25-.064.25v.344l.189.156.344-.031.313-.063.277.154-.064.221c0 0-.195.188-.25.219-.059.031-.414-.063-.5-.031-.09.031-.313.316-.313.316 0 0-.023.249 0 .313.012.023-.004.07-.012.129l-.023.018-.375.279h-.031l-.25-.094c0 0-.148.008-.223.066-.063.051-.122.102-.314.121-.191.02-.563 0-.594 0h-.219l.031-.227.156-.25-.281-.223c0 0-.18.23-.188.281-.008.055.125.279.125.279 0 0-.063.182-.094.221-.031.039-.309.125-.309.125l-.439-.221c0 0-.18-.038-.156.064.023.102.221.195.221.281 0 .082-.121.275-.121.275l-.156.189-.254.254-.344.09c0 0-.247.07-.314.094-.063.023-.25.066-.25.066l-.25.031-.156.223.277.191.188.309c0 0 .125.223.156.223.031 0 .094.219.094.219l-.188.25h-.098l-.652.125-.125-.281-.441.438-.188.721v.598l.75.406.598-.221.6-1.064.525-.652.975-.156.219-.188 1.094 1.281.125.438.313-.156-.094-.375h.191l-.125-.254-1.066-1 .094-.188.344-.031.754.75.375.441v.688l.188.125.375.375.281-.094-.156-.566.092-.344.188-.219.441.156.15.063-.025-.5.25-.469.15-.689.566.096.094.313.219.156.25-.219-.154-.346h.654l-.219.375.439.375.375.189.219.438-.5.121-.719-.156h-.625l-.596.316-.125.188-.434.094.189.469.344.406.621-.219.154.277.281-.219.375.063.031.41-.125.777-.344-.031-.406-.063-.191.465-1.375-.25-.25-.316-.313.281-.344.469-.875-.5-.875-.527v-.941l-.563.031-.035.313-1.375-.063-.434.402-.844.031-.566.5-.344.969-.875.691-.625.844-.031 1.625-.189.5-.063.598.375.652.219.625.75.906.439.375.434.094.094-.375h1.566l.406-.188.5.063.15.313.531.031.344.25v.531l-.125.438-.115.344.309.566.41.469.188 1.188.031.777-.281.656-.031.625.219 1.156.191.188.277 1.094.031.471.563.75.066.594.09.688.344-.344.879-.09h.531l.965-1.5.066-.594.652-.656.029-.75.35-.754.809-.777v-.875l-.188-.813-.125-1.125.598-.939 1.062-1.313.406-.406.156-.531.254-.469.063-.691h-.594l-.281.281-.563-.156-.344-.563-.281-.563-.656-.5-.156-.813-.277-.475-.313-.594-.41-.719-.09-.469.434-.063.254.531.5.938.375.688.406.75.438.723.594.6.531-.5.598-.156.439-.531.598-.344.344-.594.031-.5-.281-.316-.375-.438-.25.154-.156.254-.41-.188-.121-.313-.281-.41-.438-.406v-.813l.281.531.344.535.594.344.41-.094.25.281 1.781-.035-.031.035.563.5.41.563.121.277h.281l.094-.311.09.467.156.844.344.813.191.688.277.656.223.277.313-.188.096-.314.121-.775-.031-.689.254-.316c0 0 .266-.359.309-.375.047-.012.625-.65.625-.65l.281-.35.313-.188.375-.219h.156l.063.344.156.406.5.652v.25l.09.281.344-.156-.031-.375.316.066.063.344-.029.531.098.375.273.064.098-.314.344.219.063.316.313.469.314.344.219.191.531-.469.219-.441-.09-.5-.094-.656-.596-.563-.094-.566.254-.398c0 0 .161-.32.314-.156.152.168.221.188.15.375-.066.184-.188.598-.188.598l.379.156.152-.531-.152-.379.281-.117c-1.534-5.725-5.219-10.566-10.139-13.607m-24.863.457c-.174.117-.343.24-.514.361l.145.336.563-.064.25.469-.5.531-.563.063.5.223.529.465.531.125.189-.719.029-.438.625.094c0 0-.188.313-.094.313.098 0 .469-.406.469-.406l-1.063-1.098c0 0-.438-.344-.563-.25-.129.09-.469.063-.469.063zm22.248.078c0 0 .152.664.152.75 0 .082-.434.025-.434.025l-.75.035c0 0-1.088.25-1.221.25-.133 0-.762.262-.813.281l-.025.01 4.086-.695-.031-.156-.313-.438zm-22.93.711l-.438.5-.279-.268c-.419.329-.83.669-1.225 1.025.362.1.799.272.879.215.133-.094.625-.875.625-.875zm9.09.727l-.125.406c.453.348.625.344.625.344l.531-.125.344-.344-.219-.281zm-8.867.773c0 0-.43.25-.844.406-.414.156-.313.469-.313.469l-.031.844-.688.563-.438.656c0 0-.277-.188-.277-.313 0-.125-.063-.469-.063-.469l-.729-.563c0 0-.179-.137-.348-.281-2.079 2.273-3.702 4.966-4.738 7.936l.531-.367.563-.191h.813l1.125-.25.41.531-.066.625.469.406.066-.441c0 0-.031-.719-.094-.906-.063-.188.563-.625.563-.625l.5-.613.598-.727.277-.563.941-.496.621-.691c0 0 .938-.148 1.125-.254.191-.09.066-.434-.125-.75-.191-.313.094-.625.094-.625l.719-.434.621.121.066.754c0 0 .586.563.777.465.191-.09.279-.406.279-.406l-.314-.813.189-.811-.844.121v-1.375l-.25.254-.656.031-.094-.688zm11.648 1.01l-.25.219c-.07.305-.156.621-.156.621l.471.223.063.277-.25.254-.223.375.156.156.563-.094.5-.219-.277-.375-.094-.656-.344-.375zm-.777 1.184l-.279.469.375.156.154-.281zm-15.443 1.092l.004.006.656.277.438.566.277.434c0 0-.248.844-.311 1-.066.156-.254-.313-.254-.313l-.154-.814-.531.225-.406.965.094-.811.121-.564-.656-.25.566-.531zm26.383.756c.133-.043.375.154.375.154l-.25.221.09.313.281.75.277.469.379.594-.41.191-.531-.344-.219-.656c0 0-.302-.406-.439-.469-.133-.066-.25-.281-.25-.281l.125-.531c0 0 .431-.359.564-.406zm-7.906 1.188l-.375.719.281.281.25-.223.031-.309zm-1.252.75v.188l.156-.031zm2.156.469l-.188.064.313.531.281-.221zm-23.447 3.311c-.267.828-.491 1.675-.664 2.541l.43.238.5-.066.727.344 1.094.598.156.725.875.84.5-.375.398.316-.063-.725-.781.191-.25-.906-.094-.41-.688-.621v-.438l.529-.566-.344-.4-.563.09-.844.844-.688-.09c0 0-.309-.531-.375-.656-.063-.125.188-.563.188-.563zm3.322.875v.004l-.313.156.531.279.598.121.344.469.406-.25-.063-.279-.691-.5zm1.688 3.094l-.004.004-.813.441-.09.9-.191 1-.563.75.025 1.125.475 1.156.5 1.406 1.313 1.313.066.75.094 3.385.465 1.9c0 0 .289 1.103.223 1.189-.07.09.375.91.375.91l.875 1.375 1.219.525-.5-.598-.254-.688.254-.719-.656-.344c0 0 .434-.285.5-.375.066-.09-.094-.469-.094-.469l-.188-.467.5-.654.781-.189.121-.598-.465-.219.188-.5.75-.094.656-1.598.469-1.094.965-.471c0 0 .313-.928.313-1.064 0-.129.094-1.531.094-1.531l.75-1.023.094-.691-.564-.344-.465-.566-.846.066-1.344-.781-.281-.656c0 0-.469-.813-.563-.813-.09 0-.656.035-.656.035l-.531-.531-.344-.656-1.344-.281-.434-.219zm36.434.492c.113.129.816 2.219.91 2.219.086 0 .621.066.621.066l-.277-.844zm-3.59.066l-.313.406.156.598.344-.375-.066-.473zm3.5 1.156l-.438.066 2 3 .531.594 1.313.064.01.002c.01-.1.013-.202.021-.303l-.098-.07-1.25-.346-.313-1.154-.688-.564-1.104-1.281zm3.5.164l-.379.211c0 .094-.719.691-.719.691l.188.625.406.465.281.688.217-.141c.025-.435.039-.873.039-1.314 0-.411-.012-.819-.033-1.225zm-14 4.711v.439c-.023.066-.406.375-.406.375l-.469.219-.354.281.25.344.156.156-.406.344v.563l.156.594.344.094.406-.625.254-.406-.063-.5.379-.594.121-.281v-.563l-.094-.438zm-20.48 9.469l-.219.156-.094.031.5.25-.188-.434zm-.848.188l.002.004.002-.004zm.002.004l-.217.496.434-.094zm1.502 4.121l-.469.719-.875.406.5.625-.699.348c3.579 2.297 7.832 3.635 12.4 3.635 5.553 0 10.647-1.968 14.621-5.244l-.42.016-3.059.621c0 0-1.48.793-1.656.754-.18-.043.625-1.031.625-1.031l-1.439.09-.906-.75-.906.621c0 0-1.215.096-1.527.096-.316 0-.723.563-.723.563l-2.469-.09-4.25.188-1.121.965-.281.035-3.219-.223-2.215.223-.781-.379.031-.063c0 0-.656-1.32-.656-1.5 0-.176-.5-.621-.5-.621z" opacity=".1"/>
  <path d="m17.467 1.947c-1.176.348-2.315.782-3.404 1.305l.348.936.156.598-.625.346-.25.465.188 1.063.75.125.719-.688.625-.656.969-.25 1.219-.594.721-.875 1.029-1.254.721-.189-.031-.275h-1.125l-2.01-.055zm8.502.439c-.055.02-1.531.023-1.531.023l-.375.098.5.598.531-.5.344.219.5-.25c0 0 .09-.211.031-.188zm6 .461l-.375.004-.471.063-.404.25-.471.35-.279.5.438.438.375.031.156-.254-.375-.314.219-.188.031-.152.469-.313c0 0 .609.008.656 0 .047-.012.188-.191.188-.191l-.156-.223zm2.754.805l-.535.324-.531.438.064.189-.281.031v.004l-4.08.678-1.203.645-.313-.223-.156-.25.064-.254.689.035.314-.125-.625-.314-.875-.314-.875-.156-.939.191-.973.779-.438.439-.656.719-.254.031-.09.344.125.344c0 0 .133.156.152.156.023 0 .254-.125.254-.125 0 0 .027-.117.156-.156.129-.039.25-.063.25-.063l.188.375.219.313.098.25c0 0 .363-.223.375-.25.016-.031.027-.41.027-.41l.281-.188c0 0 .074-.133.066-.156-.012-.02-.191-.219-.191-.219l-.156-.063.066-.316c0 0 .121-.051.121-.094 0-.039.191-.189.191-.189l.219-.275.156-.189.219-.156.25.189v.125l-.219.25-.064.25v.344l.189.156.344-.031.313-.063.277.154-.064.221c0 0-.195.188-.25.219-.059.031-.414-.063-.5-.031-.09.031-.313.316-.313.316 0 0-.023.249 0 .313.012.023-.004.07-.012.129l-.023.018-.375.279h-.031l-.25-.094c0 0-.148.008-.223.066-.063.051-.122.102-.314.121-.191.02-.563 0-.594 0h-.219l.031-.227.156-.25-.281-.223c0 0-.18.23-.188.281-.008.055.125.279.125.279 0 0-.063.182-.094.221-.031.039-.309.125-.309.125l-.439-.221c0 0-.18-.038-.156.064.023.102.221.195.221.281 0 .082-.121.275-.121.275l-.156.189-.254.254-.344.09c0 0-.247.07-.314.094-.063.023-.25.066-.25.066l-.25.031-.156.223.277.191.188.309c0 0 .125.223.156.223.031 0 .094.219.094.219l-.188.25h-.098l-.652.125-.125-.281-.441.438-.188.721v.598l.75.406.598-.221.6-1.064.525-.652.975-.156.219-.188 1.094 1.281.125.438.313-.156-.094-.375h.191l-.125-.254-1.066-1 .094-.188.344-.031.754.75.375.441v.688l.188.125.375.375.281-.094-.156-.566.092-.344.188-.219.441.156.15.063-.025-.5.25-.469.15-.689.566.096.094.313.219.156.25-.219-.154-.346h.654l-.219.375.439.375.375.189.219.438-.5.121-.719-.156h-.625l-.596.316-.125.188-.434.094.189.469.344.406.621-.219.154.277.281-.219.375.063.031.41-.125.777-.344-.031-.406-.063-.191.465-1.375-.25-.25-.316-.313.281-.344.469-.875-.5-.875-.527v-.941l-.563.031-.035.313-1.375-.063-.434.402-.844.031-.566.5-.344.969-.875.691-.625.844-.031 1.625-.189.5-.063.598.375.652.219.625.75.906.439.375.434.094.094-.375h1.566l.406-.188.5.063.15.313.531.031.344.25v.531l-.125.438-.115.344.309.566.41.469.188 1.188.031.777-.281.656-.031.625.219 1.156.191.188.277 1.094.031.471.563.75.066.594.09.688.344-.344.879-.09h.531l.965-1.5.066-.594.652-.656.029-.75.35-.754.809-.777v-.875l-.188-.813-.125-1.125.598-.939 1.063-1.313.406-.406.156-.531.254-.469.063-.691h-.594l-.281.281-.563-.156-.344-.563-.281-.563-.656-.5-.156-.813-.277-.475-.313-.594-.41-.719-.09-.469.434-.063.254.531.5.938.375.688.406.75.438.723.594.6.531-.5.598-.156.439-.531.598-.344.344-.594.031-.5-.281-.316-.375-.438-.25.154-.156.254-.41-.188-.121-.313-.281-.41-.438-.406v-.813l.281.531.344.535.594.344.41-.094.25.281 1.781-.035-.031.035.563.5.41.563.121.277h.281l.094-.311.09.467.156.844.344.813.191.688.277.656.223.277.313-.188.096-.314.121-.775-.031-.689.254-.316c0 0 .266-.359.309-.375.047-.012.625-.65.625-.65l.281-.35.313-.188.375-.219h.156l.063.344.156.406.5.652v.25l.09.281.344-.156-.031-.375.316.066.063.344-.029.531.098.375.273.064.098-.314.344.219.063.316.313.469.314.344.219.191.531-.469.219-.441-.09-.5-.094-.656-.596-.563-.094-.566.254-.398c0 0 .161-.32.314-.156.152.168.221.188.15.375-.066.184-.188.598-.188.598l.379.156.152-.531-.152-.379.375-.156.516-.258c-1.882-5.658-5.899-10.338-11.1-13.08zm-2.264.309c0 0 .152.664.152.75 0 .082-.434.025-.434.025l-.75.035c0 0-1.088.25-1.221.25-.133 0-.762.262-.813.281l-.025.01 4.086-.695-.031-.156-.313-.438-.652-.063zm-20.742.598c-.592.375-1.167.774-1.721 1.199l.096.043.529.465.531.125.189-.719.029-.438.625.094c0 0-.188.313-.094.313.098 0 .469-.406.469-.406l-.654-.676zm6.902.84l-.125.406c.453.348.625.344.625.344l.531-.125.344-.344-.219-.281zm-8.867.773c0 0-.321.177-.666.326-.164.14-.33.279-.49.424-.002.058 0 .125 0 .125l-.031.844-.688.563-.438.656c0 0-.277-.188-.277-.313 0-.107-.04-.328-.053-.402-.422.457-.824.932-1.209 1.422l.377.488.277.434c0 0-.248.844-.311 1-.066.156-.254-.313-.254-.313l-.154-.814-.531.225-.406.965.086-.74c-.812 1.191-1.514 2.463-2.094 3.801h.301l1.125-.25.41.531-.066.625.469.406.066-.441c0 0-.031-.719-.094-.906-.063-.188.563-.625.563-.625l.5-.613.598-.727.277-.563.941-.496.621-.691c0 0 .938-.148 1.125-.254.191-.09.066-.434-.125-.75-.191-.313.094-.625.094-.625l.719-.434.621.121.066.754c0 0 .586.563.777.465.191-.09.279-.406.279-.406l-.314-.813.189-.811-.844.121v-1.375l-.25.254-.656.031-.094-.688-.437-.531zm11.648 1.01l-.25.219c-.07.305-.156.621-.156.621l.471.223.063.277-.25.254-.223.375.156.156.563-.094.5-.219-.277-.375-.094-.656-.344-.375-.158-.406zm-.777 1.184l-.279.469.375.156.154-.281zm10.939 1.848c.133-.043.375.154.375.154l-.25.221.09.313.281.75.277.469.379.594-.41.191-.531-.344-.219-.656c0 0-.302-.406-.439-.469-.133-.066-.25-.281-.25-.281l.125-.531c0 0 .431-.359.564-.406l.008-.004zm-7.906 1.188l-.375.719.281.281.25-.223.031-.309-.188-.469zm-1.252.75v.188l.156-.031-.156-.156zm2.156.469l-.188.064.313.531.281-.221-.406-.375zm-20.13 4.186v.004l-.313.156.531.279.598.121.344.469.406-.25-.063-.279-.691-.5h-.813zm-.996.41l-.563.09-.844.844-.27-.035c-.056.211-.104.425-.154.639l.496.234 1.094.598.156.725.875.84.5-.375.398.316-.063-.725-.781.191-.25-.906-.094-.41-.688-.621v-.438l.529-.566-.344-.4zm2.684 2.684l-.004.004-.813.441-.09.9-.191 1-.563.75.025 1.125.475 1.156.5 1.406 1.313 1.313.066.75.094 3.385.465 1.9c0 0 .289 1.103.223 1.189-.07.09.375.91.375.91l.875 1.375 1.219.525-.5-.598-.254-.688.254-.719-.656-.344c0 0 .434-.285.5-.375.066-.09-.094-.469-.094-.469l-.188-.467.5-.654.781-.189.121-.598-.465-.219.188-.5.75-.094.656-1.598.469-1.094.965-.471c0 0 .313-.928.313-1.064 0-.129.094-1.531.094-1.531l.75-1.023.094-.691-.564-.344-.465-.566-.846.066-1.344-.781-.281-.656c0 0-.469-.813-.563-.813-.09 0-.656.035-.656.035l-.531-.531-.344-.656-1.344-.281-.434-.219h-.875zm36.434.492c.113.129.816 2.219.91 2.219.086 0 .621.066.621.066l-.277-.844zm-3.59.066l-.313.406.156.598.344-.375-.066-.473zm7.869.84l-1.248.691c0 .094-.719.691-.719.691l.188.625.406.465.281.688 1.246-.811c-.012-.794-.064-1.577-.154-2.35zm-4.369.316l-.438.066 2 3 .531.594 1.313.064.809.254-.875-.625-1.25-.346-.313-1.154-.688-.564-1.104-1.281.014-.008zm-10.5 4.875v.439c-.023.066-.406.375-.406.375l-.469.219-.354.281.25.344.156.156-.406.344v.563l.156.594.344.094.406-.625.254-.406-.063-.5.379-.594.121-.281v-.563l-.094-.438-.275-.002zm14.602 1.955c-.117.03-.202.058-.209.082-.02.086-.563.375-.563.375-.113 0-.471.656-.471.656l-.063 2.063-.125.75.189.244c.539-1.333.958-2.727 1.24-4.17zm-35.08 7.514l-.219.156-.094.031.5.25-.188-.434v-.004zm-.848.188l.002.004.002-.004zm.002.004l-.217.496.434-.094zm1.502 4.121l-.469.719-.875.406.5.625-.754.375-.381-.02c3.85 2.904 8.641 4.627 13.836 4.627 6.139 0 11.711-2.409 15.836-6.328l-2.635.1-3.059.621c0 0-1.48.793-1.656.754-.18-.043.625-1.031.625-1.031l-1.439.09-.906-.75-.906.621c0 0-1.215.096-1.527.096-.316 0-.723.563-.723.563l-2.469-.09-4.25.188-1.121.965-.281.035-3.219-.223-2.215.223-.781-.379.031-.063c0 0-.656-1.32-.656-1.5 0-.176-.5-.621-.5-.621l-.006-.002z" fill="#fb9c3d"/>
</svg>
