<svg xmlns="http://www.w3.org/2000/svg" viewBox="0 0 48 48">
 <defs>
  <linearGradient id="linearGradient3764" y1="47" x2="0" y2="1" gradientUnits="userSpaceOnUse">
   <stop style="stop-color:#133b57;stop-opacity:1"/>
   <stop offset="1" style="stop-color:#174767;stop-opacity:1"/>
  </linearGradient>
 </defs>
 <g>
  
  
  
 </g>
 <g>
  <path d="m 47,24 C 47,46.703 46.703,47 24,47 1.297,47 1,46.703 1,24 1,1.297 1.297,1 24,1 46.703,1 47,1.297 47,24 z" style="fill:url(#linearGradient3764);fill-opacity:1"/>
 </g>
 <g>
  <g>
   <g transform="translate(1,1)">
    <g style="opacity:0.1">
     <!-- color: #174767 -->
     <g>
      <path d="m 36 14.332 c 0 1.262 -1.02 2.281 -2.281 2.281 c -1.258 0 -2.281 -1.02 -2.281 -2.281 c 0 -1.262 1.023 -2.281 2.281 -2.281 c 1.262 0 2.281 1.02 2.281 2.281 m 0 0" style="fill:#000;fill-opacity:1;stroke:none;fill-rule:nonzero"/>
      <path d="m 31.22 15.773 c 0 1.262 -1.02 2.281 -2.281 2.281 c -1.258 0 -2.281 -1.02 -2.281 -2.281 c 0 -1.262 1.023 -2.281 2.281 -2.281 c 1.262 0 2.281 1.02 2.281 2.281 m 0 0" style="fill:#000;fill-opacity:1;stroke:none;fill-rule:nonzero"/>
      <path d="m 27.371 19.14 c 0 1.262 -1.02 2.281 -2.281 2.281 c -1.258 0 -2.281 -1.02 -2.281 -2.281 c 0 -1.262 1.023 -2.281 2.281 -2.281 c 1.262 0 2.281 1.02 2.281 2.281 m 0 0" style="fill:#000;fill-opacity:1;stroke:none;fill-rule:nonzero"/>
      <path d="m 25.863 24.25 c 0 1.258 -1.023 2.281 -2.281 2.281 c -1.262 0 -2.281 -1.023 -2.281 -2.281 c 0 -1.262 1.02 -2.285 2.281 -2.285 c 1.258 0 2.281 1.023 2.281 2.285 m 0 0" style="fill:#000;fill-opacity:1;stroke:none;fill-rule:nonzero"/>
      <path d="m 25 29.551 c 0 1.262 -1.023 2.285 -2.281 2.285 c -1.262 0 -2.281 -1.023 -2.281 -2.285 c 0 -1.258 1.02 -2.281 2.281 -2.281 c 1.258 0 2.281 1.023 2.281 2.281 m 0 0" style="fill:#000;fill-opacity:1;stroke:none;fill-rule:nonzero"/>
      <path d="m 21.758 33.703 c 0 1.262 -1.023 2.281 -2.281 2.281 c -1.258 0 -2.281 -1.02 -2.281 -2.281 c 0 -1.262 1.023 -2.281 2.281 -2.281 c 1.258 0 2.281 1.02 2.281 2.281 m 0 0" style="fill:#000;fill-opacity:1;stroke:none;fill-rule:nonzero"/>
      <path d="m 16.563 34.668 c 0 1.262 -1.023 2.281 -2.281 2.281 c -1.262 0 -2.281 -1.02 -2.281 -2.281 c 0 -1.262 1.02 -2.281 2.281 -2.281 c 1.258 0 2.281 1.02 2.281 2.281 m 0 0" style="fill:#000;fill-opacity:1;stroke:none;fill-rule:nonzero"/>
      <path d="m 20.734 23.555 c 0 1.262 -1.02 2.285 -2.277 2.285 c -1.262 0 -2.281 -1.023 -2.281 -2.285 c 0 -1.258 1.02 -2.281 2.281 -2.281 c 1.258 0 2.277 1.023 2.277 2.281 m 0 0" style="fill:#000;fill-opacity:1;stroke:none;fill-rule:nonzero"/>
      <path d="m 31.28 24.824 c 0 1.262 -1.023 2.281 -2.281 2.281 c -1.258 0 -2.281 -1.02 -2.281 -2.281 c 0 -1.262 1.023 -2.281 2.281 -2.281 c 1.258 0 2.281 1.02 2.281 2.281 m 0 0" style="fill:#000;fill-opacity:1;stroke:none;fill-rule:nonzero"/>
     </g>
    </g>
   </g>
  </g>
 </g>
 <g>
  <g>
   <!-- color: #174767 -->
   <g>
    <path d="m 36 14.332 c 0 1.262 -1.02 2.281 -2.281 2.281 c -1.258 0 -2.281 -1.02 -2.281 -2.281 c 0 -1.262 1.023 -2.281 2.281 -2.281 c 1.262 0 2.281 1.02 2.281 2.281 m 0 0" style="fill:#fa8410;fill-opacity:1;stroke:none;fill-rule:nonzero"/>
    <path d="m 31.22 15.773 c 0 1.262 -1.02 2.281 -2.281 2.281 c -1.258 0 -2.281 -1.02 -2.281 -2.281 c 0 -1.262 1.023 -2.281 2.281 -2.281 c 1.262 0 2.281 1.02 2.281 2.281 m 0 0" style="fill:#fa8410;fill-opacity:1;stroke:none;fill-rule:nonzero"/>
    <path d="m 27.371 19.14 c 0 1.262 -1.02 2.281 -2.281 2.281 c -1.258 0 -2.281 -1.02 -2.281 -2.281 c 0 -1.262 1.023 -2.281 2.281 -2.281 c 1.262 0 2.281 1.02 2.281 2.281 m 0 0" style="fill:#fa8410;fill-opacity:1;stroke:none;fill-rule:nonzero"/>
    <path d="m 25.863 24.25 c 0 1.258 -1.023 2.281 -2.281 2.281 c -1.262 0 -2.281 -1.023 -2.281 -2.281 c 0 -1.262 1.02 -2.285 2.281 -2.285 c 1.258 0 2.281 1.023 2.281 2.285 m 0 0" style="fill:#fa8410;fill-opacity:1;stroke:none;fill-rule:nonzero"/>
    <path d="m 25 29.551 c 0 1.262 -1.023 2.285 -2.281 2.285 c -1.262 0 -2.281 -1.023 -2.281 -2.285 c 0 -1.258 1.02 -2.281 2.281 -2.281 c 1.258 0 2.281 1.023 2.281 2.281 m 0 0" style="fill:#fa8410;fill-opacity:1;stroke:none;fill-rule:nonzero"/>
    <path d="m 21.758 33.703 c 0 1.262 -1.023 2.281 -2.281 2.281 c -1.258 0 -2.281 -1.02 -2.281 -2.281 c 0 -1.262 1.023 -2.281 2.281 -2.281 c 1.258 0 2.281 1.02 2.281 2.281 m 0 0" style="fill:#fa8410;fill-opacity:1;stroke:none;fill-rule:nonzero"/>
    <path d="m 16.563 34.668 c 0 1.262 -1.023 2.281 -2.281 2.281 c -1.262 0 -2.281 -1.02 -2.281 -2.281 c 0 -1.262 1.02 -2.281 2.281 -2.281 c 1.258 0 2.281 1.02 2.281 2.281 m 0 0" style="fill:#fa8410;fill-opacity:1;stroke:none;fill-rule:nonzero"/>
    <path d="m 20.734 23.555 c 0 1.262 -1.02 2.285 -2.277 2.285 c -1.262 0 -2.281 -1.023 -2.281 -2.285 c 0 -1.258 1.02 -2.281 2.281 -2.281 c 1.258 0 2.277 1.023 2.277 2.281 m 0 0" style="fill:#fa8410;fill-opacity:1;stroke:none;fill-rule:nonzero"/>
    <path d="m 31.28 24.824 c 0 1.262 -1.023 2.281 -2.281 2.281 c -1.258 0 -2.281 -1.02 -2.281 -2.281 c 0 -1.262 1.023 -2.281 2.281 -2.281 c 1.258 0 2.281 1.02 2.281 2.281 m 0 0" style="fill:#fa8410;fill-opacity:1;stroke:none;fill-rule:nonzero"/>
   </g>
  </g>
 </g>
 <g>
  
 </g>
</svg>
