<svg viewBox="0 0 48 48" xmlns="http://www.w3.org/2000/svg" xmlns:xlink="http://www.w3.org/1999/xlink">
  <linearGradient id="a" gradientUnits="userSpaceOnUse" x2="0" y1="47" y2="1">
    <stop offset="0" stop-color="#133b57"/>
    <stop offset="1" stop-color="#174767"/>
  </linearGradient>
  <path d="m47 24c0 22.703-.297 23-23 23-22.703 0-23-.297-23-23 0-22.703.297-23 23-23 22.703 0 23 .297 23 23z" fill="url(#a)"/>
  <g opacity=".1" transform="translate(1 1)">
    <path d="m36 14.332c0 1.262-1.02 2.281-2.281 2.281-1.258 0-2.281-1.02-2.281-2.281 0-1.262 1.023-2.281 2.281-2.281 1.262 0 2.281 1.02 2.281 2.281m0 0"/>
    <path d="m31.22 15.773c0 1.262-1.02 2.281-2.281 2.281-1.258 0-2.281-1.02-2.281-2.281 0-1.262 1.023-2.281 2.281-2.281 1.262 0 2.281 1.02 2.281 2.281m0 0"/>
    <path d="m27.371 19.14c0 1.262-1.02 2.281-2.281 2.281-1.258 0-2.281-1.02-2.281-2.281 0-1.262 1.023-2.281 2.281-2.281 1.262 0 2.281 1.02 2.281 2.281m0 0"/>
    <path d="m25.863 24.25c0 1.258-1.023 2.281-2.281 2.281-1.262 0-2.281-1.023-2.281-2.281 0-1.262 1.02-2.285 2.281-2.285 1.258 0 2.281 1.023 2.281 2.285m0 0"/>
    <path d="m25 29.551c0 1.262-1.023 2.285-2.281 2.285-1.262 0-2.281-1.023-2.281-2.285 0-1.258 1.02-2.281 2.281-2.281 1.258 0 2.281 1.023 2.281 2.281m0 0"/>
    <path d="m21.758 33.703c0 1.262-1.023 2.281-2.281 2.281-1.258 0-2.281-1.02-2.281-2.281 0-1.262 1.023-2.281 2.281-2.281 1.258 0 2.281 1.02 2.281 2.281m0 0"/>
    <path d="m16.563 34.668c0 1.262-1.023 2.281-2.281 2.281-1.262 0-2.281-1.02-2.281-2.281 0-1.262 1.02-2.281 2.281-2.281 1.258 0 2.281 1.02 2.281 2.281m0 0"/>
    <path d="m20.734 23.555c0 1.262-1.02 2.285-2.277 2.285-1.262 0-2.281-1.023-2.281-2.285 0-1.258 1.02-2.281 2.281-2.281 1.258 0 2.277 1.023 2.277 2.281m0 0"/>
    <path d="m31.28 24.824c0 1.262-1.023 2.281-2.281 2.281-1.258 0-2.281-1.02-2.281-2.281 0-1.262 1.023-2.281 2.281-2.281 1.258 0 2.281 1.02 2.281 2.281m0 0"/>
  </g>
  <path d="m36 14.332c0 1.262-1.02 2.281-2.281 2.281-1.258 0-2.281-1.02-2.281-2.281 0-1.262 1.023-2.281 2.281-2.281 1.262 0 2.281 1.02 2.281 2.281m0 0" fill="#fa8410"/>
  <path d="m31.22 15.773c0 1.262-1.02 2.281-2.281 2.281-1.258 0-2.281-1.02-2.281-2.281 0-1.262 1.023-2.281 2.281-2.281 1.262 0 2.281 1.02 2.281 2.281m0 0" fill="#fa8410"/>
  <path d="m27.371 19.14c0 1.262-1.02 2.281-2.281 2.281-1.258 0-2.281-1.02-2.281-2.281 0-1.262 1.023-2.281 2.281-2.281 1.262 0 2.281 1.02 2.281 2.281m0 0" fill="#fa8410"/>
  <path d="m25.863 24.25c0 1.258-1.023 2.281-2.281 2.281-1.262 0-2.281-1.023-2.281-2.281 0-1.262 1.02-2.285 2.281-2.285 1.258 0 2.281 1.023 2.281 2.285m0 0" fill="#fa8410"/>
  <path d="m25 29.551c0 1.262-1.023 2.285-2.281 2.285-1.262 0-2.281-1.023-2.281-2.285 0-1.258 1.02-2.281 2.281-2.281 1.258 0 2.281 1.023 2.281 2.281m0 0" fill="#fa8410"/>
  <path d="m21.758 33.703c0 1.262-1.023 2.281-2.281 2.281-1.258 0-2.281-1.02-2.281-2.281 0-1.262 1.023-2.281 2.281-2.281 1.258 0 2.281 1.02 2.281 2.281m0 0" fill="#fa8410"/>
  <path d="m16.563 34.668c0 1.262-1.023 2.281-2.281 2.281-1.262 0-2.281-1.02-2.281-2.281 0-1.262 1.02-2.281 2.281-2.281 1.258 0 2.281 1.02 2.281 2.281m0 0" fill="#fa8410"/>
  <path d="m20.734 23.555c0 1.262-1.02 2.285-2.277 2.285-1.262 0-2.281-1.023-2.281-2.285 0-1.258 1.02-2.281 2.281-2.281 1.258 0 2.277 1.023 2.277 2.281m0 0" fill="#fa8410"/>
  <path d="m31.28 24.824c0 1.262-1.023 2.281-2.281 2.281-1.258 0-2.281-1.02-2.281-2.281 0-1.262 1.023-2.281 2.281-2.281 1.258 0 2.281 1.02 2.281 2.281m0 0" fill="#fa8410"/>
</svg>
