<svg viewBox="0 0 48 48" xmlns="http://www.w3.org/2000/svg" xmlns:xlink="http://www.w3.org/1999/xlink">
  <linearGradient id="a" gradientTransform="matrix(0 -1 1 0 -.0000015 47.999998)" gradientUnits="userSpaceOnUse" x1="1" x2="47">
    <stop offset="0" stop-color="#e4e4e4"/>
    <stop offset="1" stop-color="#eee"/>
  </linearGradient>
  <path d="m47 24c0 22.703-.297 23-23 23-22.703 0-23-.297-23-23 0-22.703.297-23 23-23 22.703 0 23 .297 23 23z" fill="url(#a)"/>
  <path d="m15 11v8h-2v10h4v4h-2v6h6v-4h2v2h2v2h4v-2h2v-2h4v-2h2v-8h-4v-2h-4v-4h2v-8h-4v2h-8v-2c-1.333 0-2.667 0-4 0z" fill-rule="evenodd" opacity=".1"/>
  <path d="m16 12h12v21.996h-12m0-21.996" fill="#9bb90f"/>
  <path d="m16 12v2h10v-2m-10 2h-1.996v6h1.996m-1.996 0h-2v1.996h2m14-7.996v4h1.996v-4m-1.996 4h-2v4h2m0-4" fill="#2f622f"/>
  <path d="m28 24h6v8h-6m0-8" fill="#9bb90f"/>
  <path d="m23.996 31.996h3.996v3.996h-3.996m0-3.996" fill="#9bb90f"/>
  <path d="m14 20h1.996v6h-1.996m0-6" fill="#9bb90f"/>
  <path d="m16 33.992h2v1.996h-2m0-1.996" fill="#9bb90f"/>
  <path d="m14 9.996v3.996h1.996v-1.996h2v-2m8 0v2h2v1.996h1.996v-3.996m-13.996 6v3.996h2v-3.996m4 0v3.996h1.996v-3.996m-11.996 1.996v2h2v-2m-2 4v5.992h3.996v4h2v-10h-5.996m3.996 10h-1.996v5.996h5.992v-3.996h-1.996v2h-2m3.996-2h2v2h2v-4h-4m4 4v1.996h3.996v-1.996m0 0h1.996v-2h4v-2h1.996v-8h-3.996v-1.996h-6v1.996h4v2h-4v7.992h2v2m-13.996-11.992h2v2h-2m18 0h2v3.996h-2v2h-3.996v-2h1.996v-2h2m0-1.996" fill="#0f360f"/>
  <path d="m12 24v-2h6v2m-6 0" fill="#0f360f"/>
</svg>
