<svg viewBox="0 0 48 48" xmlns="http://www.w3.org/2000/svg" xmlns:xlink="http://www.w3.org/1999/xlink">
  <linearGradient id="a" gradientTransform="matrix(0 -1 1 0 -.0000015 47.999998)" gradientUnits="userSpaceOnUse" x1="1" x2="47">
    <stop offset="0" stop-color="#ebc029"/>
    <stop offset="1" stop-color="#edc53a"/>
  </linearGradient>
  <path d="m47 24c0 22.703-.297 23-23 23-22.703 0-23-.297-23-23 0-22.703.297-23 23-23 22.703 0 23 .297 23 23z" fill="url(#a)"/>
  <path d="m28 14c-5.402 0-9.885 3.897-10.814 9.03l-1.521-1.779c-.446-.774-1.271-1.251-2.164-1.252-1.381 0-2.5 1.119-2.5 2.5 0 1.381 1.119 2.5 2.5 2.5.507-.001 1-.155 1.418-.443.245.321.455.633.668.943-.213.311-.423.622-.668.943-.417-.288-.911-.443-1.418-.443-1.381 0-2.5 1.119-2.5 2.5 0 1.381 1.119 2.5 2.5 2.5.893-.001 1.718-.478 2.164-1.252l1.564-1.83c.085.117.176.23.264.342 1.389 4.484 5.568 7.74 10.508 7.74 6.075 0 11-4.925 11-11 0-6.075-4.925-11-11-11m-14.5 7c .828 0 1.5.672 1.5 1.5 0 .828-.672 1.5-1.5 1.5-.828 0-1.5-.672-1.5-1.5 0-.828.672-1.5 1.5-1.5m14.5 1a3 3 0 0 1 3 3 3 3 0 0 1-3 3 3 3 0 0 1-3-3 3 3 0 0 1  3-3zm0 1a2 2 0 0 0-2 2 2 2 0 0 0  2 2 2 2 0 0 0  2-2 2 2 0 0 0-2-2zm-14.5 4c .828 0 1.5.672 1.5 1.5 0 .828-.672 1.5-1.5 1.5-.828 0-1.5-.672-1.5-1.5 0-.828.672-1.5 1.5-1.5" fill-rule="evenodd" opacity=".1"/>
  <path d="m27 13c-6.075 0-11 4.925-11 11 0 6.075 4.925 11 11 11 6.075 0 11-4.925 11-11 0-6.075-4.925-11-11-11zm0 8a3 3 0 0 1 3 3 3 3 0 0 1-3 3 3 3 0 0 1-3-3 3 3 0 0 1  3-3zm0 1a2 2 0 0 0-2 2 2 2 0 0 0  2 2 2 2 0 0 0  2-2 2 2 0 0 0-2-2z" fill="#454545"/>
  <path d="m24 20c-3.89 0-5.44 1.258-6.771 3.082l-1.021-1.195c-.133.684-.207 1.39-.207 2.113 0 1.534.317 2.994.885 4.32l.344-.402c1.331 1.824 2.882 3.082 6.771 3.082l-4.703-5.5 4.703-5.5" fill-rule="evenodd" opacity=".1"/>
  <path d="m23 30c-6 0-6.44-2.974-9.08-6.443-.417.288-.911.443-1.418.443-1.381 0-2.5-1.119-2.5-2.5 0-1.381 1.119-2.5 2.5-2.5.893.001 1.718.478 2.164 1.252zm-10.5-7c .828 0 1.5-.672 1.5-1.5 0-.828-.672-1.5-1.5-1.5-.828 0-1.5.672-1.5 1.5 0 .828.672 1.5 1.5 1.5z" fill="#2380a5" fill-rule="evenodd"/>
  <path d="m23 19c-6 0-6.44 2.974-9.08 6.443-.417-.288-.911-.443-1.418-.443-1.381 0-2.5 1.119-2.5 2.5 0 1.381 1.119 2.5 2.5 2.5.893-.001 1.718-.478 2.164-1.252zm-10.5 7c .828 0 1.5.672 1.5 1.5 0 .828-.672 1.5-1.5 1.5-.828 0-1.5-.672-1.5-1.5 0-.828.672-1.5 1.5-1.5" fill="#2380a5" fill-rule="evenodd"/>
</svg>
