<svg xmlns="http://www.w3.org/2000/svg" viewBox="0 0 48 48">
 <defs>
  <linearGradient id="linearGradient3764" x1="1" x2="47" gradientUnits="userSpaceOnUse" gradientTransform="matrix(0,-1,1,0,-1.5e-6,47.999998)">
   <stop style="stop-color:#d0ecd7;stop-opacity:1"/>
   <stop offset="1" style="stop-color:#def2e3;stop-opacity:1"/>
  </linearGradient>
 </defs>
 <g>
  
  
  
 </g>
 <g>
  <path d="m 47,24 C 47,46.703 46.703,47 24,47 1.297,47 1,46.703 1,24 1,1.297 1.297,1 24,1 46.703,1 47,1.297 47,24 z" style="fill:url(#linearGradient3764);fill-opacity:1"/>
 </g>
 <g>
  
 </g>
 <path d="m 24 10 c -0.673 0.004 -1.344 0.083 -2 0.236 l 0 0.264 c 0 3.487 0.71 5.6 1.699 7.04 0.989 1.436 2.307 2.257 3.764 3.02 1.456 0.759 3.049 1.415 4.352 2.654 0.031 0.03 0.059 0.065 0.09 0.096 c 0.719 -1.32 1.095 -2.798 1.096 -4.301 0 -4.971 -4.03 -9 -9 -9 m -3 0.5 c -2 0 -7 5.768 -7 13.5 0 7.732 4.477 14 10 14 5.523 0 9 -3 9 -9 c 0 -10 -12 -4 -12 -18.5 m 8 3.5 a 1 1 0 0 1 1 1 1 1 0 0 1 -1 1 1 1 0 0 1 -1 -1 1 1 0 0 1 1 -1 z m 3.66 0.023 c 0.738 1.278 1.197 2.732 1.305 4.283 l 2.535 -2.807 -3.84 -1.477" style="fill:#000;opacity:0.1;fill-opacity:1;stroke:none"/>
 <path d="m 32 28 c 0 6 -3.477 9 -9 9 c -5.523 0 -10 -6.268 -10 -14 0 -7.732 5 -13.5 7 -13.5 0 14.5 12 8.5 12 18.5" style="fill:#f0464c;opacity:1;fill-opacity:1;stroke:none"/>
 <path d="m 23 9 c -0.673 0.004 -1.344 0.083 -2 0.236 l 0 0.264 c 0 3.487 0.71 5.6 1.699 7.04 0.989 1.436 2.307 2.257 3.764 3.02 1.456 0.759 3.049 1.415 4.352 2.654 0.031 0.03 0.059 0.065 0.09 0.096 c 0.719 -1.32 1.095 -2.798 1.096 -4.301 0 -4.971 -4.03 -9 -9 -9 m 5 4 a 1 1 0 0 1 1 1 1 1 0 0 1 -1 1 1 1 0 0 1 -1 -1 1 1 0 0 1 1 -1 z m 3.66 0.023 c 0.738 1.278 1.197 2.732 1.305 4.283 l 2.535 -2.807 -3.84 -1.477" style="fill:#424242;opacity:1;fill-opacity:1;stroke:none"/>
 <path d="m 26 32.5 c 0 2.126 -1.343 3.5 -3 3.5 -1.657 0 -3 -1.343 -3 -3 0 -2.281 1.25 -2 1.25 -4 0 -1.828 -1.25 -2.5 -1.25 -2.5 3.5 0.016 6 2 6 6 z" style="fill:#f1f045;opacity:1;fill-opacity:1;stroke:none"/>
</svg>
