<svg viewBox="0 0 48 48" xmlns="http://www.w3.org/2000/svg" xmlns:xlink="http://www.w3.org/1999/xlink">
  <linearGradient id="a" gradientTransform="matrix(0 -1 1 0 -.0000015 47.999998)" gradientUnits="userSpaceOnUse" x1="1" x2="47">
    <stop offset="0" stop-color="#d0ecd7"/>
    <stop offset="1" stop-color="#def2e3"/>
  </linearGradient>
  <path d="m47 24c0 22.703-.297 23-23 23-22.703 0-23-.297-23-23 0-22.703.297-23 23-23 22.703 0 23 .297 23 23z" fill="url(#a)"/>
  <path d="m24 10c-.673.004-1.344.083-2 .236v.264c0 3.487.71 5.6 1.699 7.04.989 1.436 2.307 2.257 3.764 3.02 1.456.759 3.049 1.415 4.352 2.654.031.03.059.065.09.096.719-1.32 1.095-2.798 1.096-4.301 0-4.971-4.03-9-9-9m-3 .5c-2 0-7 5.768-7 13.5 0 7.732 4.477 14 10 14 5.523 0 9-3 9-9 0-10-12-4-12-18.5m8 3.5a1 1 0 0 1 1 1 1 1 0 0 1-1 1 1 1 0 0 1-1-1 1 1 0 0 1  1-1zm3.66.023c.738 1.278 1.197 2.732 1.305 4.283l2.535-2.807-3.84-1.477" opacity=".1"/>
  <path d="m32 28c0 6-3.477 9-9 9-5.523 0-10-6.268-10-14 0-7.732 5-13.5 7-13.5 0 14.5 12 8.5 12 18.5" fill="#f0464c"/>
  <path d="m23 9c-.673.004-1.344.083-2 .236v.264c0 3.487.71 5.6 1.699 7.04.989 1.436 2.307 2.257 3.764 3.02 1.456.759 3.049 1.415 4.352 2.654.031.03.059.065.09.096.719-1.32 1.095-2.798 1.096-4.301 0-4.971-4.03-9-9-9m5 4a1 1 0 0 1 1 1 1 1 0 0 1-1 1 1 1 0 0 1-1-1 1 1 0 0 1  1-1zm3.66.023c.738 1.278 1.197 2.732 1.305 4.283l2.535-2.807-3.84-1.477" fill="#424242"/>
  <path d="m26 32.5c0 2.126-1.343 3.5-3 3.5-1.657 0-3-1.343-3-3 0-2.281 1.25-2 1.25-4 0-1.828-1.25-2.5-1.25-2.5 3.5.016 6 2 6 6z" fill="#f1f045"/>
</svg>
