<svg viewBox="0 0 48 48" xmlns="http://www.w3.org/2000/svg" xmlns:xlink="http://www.w3.org/1999/xlink">
  <linearGradient id="a" gradientTransform="matrix(0 -1 1 0 -.0000015 47.999998)" gradientUnits="userSpaceOnUse" x1="1" x2="47">
    <stop offset="0" stop-color="#d9d7c6"/>
    <stop offset="1" stop-color="#e1e0d3"/>
  </linearGradient>
  <linearGradient id="b" gradientTransform="matrix(.0355394 0 0 .0313583 10.315665 8.53083)" gradientUnits="userSpaceOnUse" x2="0" y1="844.09" y2="-176.38">
    <stop offset="0" stop-color="#ff6900"/>
    <stop offset="1" stop-color="#ffec00"/>
  </linearGradient>
  <path d="m47 24c0 22.703-.297 23-23 23-22.703 0-23-.297-23-23 0-22.703.297-23 23-23 22.703 0 23 .297 23 23z" fill="url(#a)"/>
  <g transform="scale(3.543307)">
    <path d="m20 9c-.574.77-1.039 3.41.621 4.715 1.961 1.563 2.379 3.441 2.379 6.285 0 4-3.379 7.203-1 11-6.641-5.469.051-13.676-5-17 2 5-5 8-4.984 12.852-.016 5.148 3.984 8.148 8.785 8.137-3.422-1.391-4.977-5.59-4.801-7.988 2.406 5.453 6 8 12 8-2.313-3.02-2.691-3.402-2.824-5.324.012-1.773.727-2.168 1.977-4.387 3.145-4.934 1.707-9.914-2.574-12.238-.871-.434-1.105-.555-2.691-1.176-.914-.426-1.824-1.352-1.887-2.875m10.727 8.355c3.172 4.059-.441 7.355-2.098 9.84-1.359 1.953-.051 5.184 1.371 7.805.125-2.215 1.602-3.738 2.797-4.531 3.66-2.754 3.777-6.355 1.836-9.559-1.219-1.758-2.297-2.328-3.906-3.555m0 0" opacity=".1" transform="matrix(.28222223 0 0 .28222223 .27772016 .28193998)"/>
    <path d="m20 9c-.574.77-1.039 3.41.621 4.715 1.961 1.563 2.379 3.441 2.379 6.285 0 4-3.379 7.203-1 11-6.641-5.469.051-13.676-5-17 2 5-5 8-4.984 12.852-.016 5.148 3.984 8.148 8.785 8.137-3.422-1.391-4.977-5.59-4.801-7.988 2.406 5.453 6 8 12 8-2.313-3.02-2.691-3.402-2.824-5.324.012-1.773.727-2.168 1.977-4.387 3.145-4.934 1.707-9.914-2.574-12.238-.871-.434-1.105-.555-2.691-1.176-.914-.426-1.824-1.352-1.887-2.875m10.727 8.355c3.172 4.059-.441 7.355-2.098 9.84-1.359 1.953-.051 5.184 1.371 7.805.125-2.215 1.602-3.738 2.797-4.531 3.66-2.754 3.777-6.355 1.836-9.559-1.219-1.758-2.297-2.328-3.906-3.555m0 0" fill="url(#b)" transform="matrix(.28222223 0 0 .28222223 -.00450207 -.00028225)"/>
  </g>
</svg>
