<svg viewBox="0 0 48 48" xmlns="http://www.w3.org/2000/svg" xmlns:xlink="http://www.w3.org/1999/xlink">
  <linearGradient id="a" gradientTransform="matrix(0 -1 1 0 -.0000015 47.999998)" gradientUnits="userSpaceOnUse" x1="1" x2="47">
    <stop offset="0" stop-color="#b93b3b"/>
    <stop offset="1" stop-color="#c34545"/>
  </linearGradient>
  <path d="m47 24c0 22.703-.297 23-23 23-22.703 0-23-.297-23-23 0-22.703.297-23 23-23 22.703 0 23 .297 23 23z" fill="url(#a)"/>
  <path d="m33 12.01v4.828c-4.52.086-5.816 5.168-5.816 5.168h3.813v4h-5.516c-3.18 10.461-10.484 9.961-10.484 9.961v-4.828c0 0 4.641.918 7.01-8.305 2.961-11.531 10.992-10.848 10.992-10.848m.004.023" opacity=".1" transform="translate(1 1)"/>
  <path d="m33 12.01v4.828c-4.52.086-5.816 5.168-5.816 5.168h3.813v4h-5.516c-3.18 10.461-10.484 9.961-10.484 9.961v-4.828c0 0 4.641.918 7.01-8.305 2.961-11.531 10.992-10.848 10.992-10.848m.004.023" fill="#fff"/>
</svg>
