<svg xmlns="http://www.w3.org/2000/svg" viewBox="0 0 48 48">
 <defs>
  <linearGradient id="linearGradient3764" x1="1" x2="47" gradientUnits="userSpaceOnUse" gradientTransform="matrix(0,-1,1,0,-1.5e-6,47.999998)">
   <stop style="stop-color:#e4e4e4;stop-opacity:1"/>
   <stop offset="1" style="stop-color:#eee;stop-opacity:1"/>
  </linearGradient>
  <linearGradient id="linearGradient4814" gradientUnits="userSpaceOnUse" gradientTransform="matrix(1.000311,0,0,1,0.98476102,0.09781721)" y1="36" x2="0" y2="31">
   <stop style="stop-color:#347bc6;stop-opacity:1"/>
   <stop offset="1" style="stop-color:#2e6cae;stop-opacity:1"/>
  </linearGradient>
  <linearGradient id="linearGradient4816" gradientUnits="userSpaceOnUse" gradientTransform="matrix(1,0,0,0.94069622,0.98787462,2.0739968)" y1="32" x2="0" y2="11">
   <stop style="stop-color:#224e7e;stop-opacity:1"/>
   <stop offset="1" style="stop-color:#154477;stop-opacity:1"/>
  </linearGradient>
 </defs>
 <g>
  
  
  
 </g>
 <g>
  <path d="m 47,24 C 47,46.703 46.703,47 24,47 1.297,47 1,46.703 1,24 1,1.297 1.297,1 24,1 46.703,1 47,1.297 47,24 z" style="fill:url(#linearGradient3764);fill-opacity:1"/>
 </g>
 <g transform="translate(3.0986081e-4,-0.93817934)">
  <g>
   <!-- color: #eeeeee -->
   <g>
    <path d="m 31.928 13.94 c -1.572 -0.054 -3.815 0.899 -5.145 1.684 -4.714 2.783 -7.144 8.729 -10.842 14.664 0 0 -0.003 0 -0.004 -0.002 -0.793 0.914 -4.227 2.328 -3.918 3.367 0.309 1.035 0.619 0.902 0.619 0.902 0 0 4.059 3.786 13.178 3.348 9.844 -0.473 12.262 -3.169 12.18 -4.43 -0.081 -1.317 -3.963 -2.226 -4 -2.236 -0.136 -0.508 -1.211 -4.602 -1 -6.43 0.395 -3.489 1.19 -8.769 0.514 -10.06 -0.288 -0.551 -0.864 -0.782 -1.578 -0.807 z" style="fill:#000;fill-opacity:0.098;stroke:none;fill-rule:nonzero"/>
    <path d="m 25.783 14.624 c -4.722 2.787 -7.151 8.747 -10.859 14.693 3.183 5.64 15.14 4.933 18.12 1.106 l -0.004 -0.002 c 0 0 -1.271 -4.669 -1.051 -6.614 0.395 -3.489 1.189 -8.768 0.513 -10.06 -0.922 -1.762 -4.788 -0.264 -6.722 0.877 z" style="fill:url(#linearGradient4816);fill-opacity:1;stroke:none;fill-rule:nonzero"/>
    <path d="m 14.938 29.29 c -0.793 0.914 -4.228 2.328 -3.919 3.367 0.309 1.035 0.619 0.902 0.619 0.902 0 0 4.059 3.786 13.178 3.348 9.844 -0.473 12.262 -3.169 12.18 -4.429 -0.082 -1.321 -3.995 -2.235 -4.01 -2.239 -4.906 2.347 -14.682 1.927 -18.05 -0.949 z" style="fill:url(#linearGradient4814);fill-opacity:1;stroke:none;fill-rule:nonzero"/>
   </g>
  </g>
 </g>
 <g>
  
 </g>
</svg>
