<svg xmlns="http://www.w3.org/2000/svg" viewBox="0 0 48 48">
 <defs>
  <linearGradient id="linearGradient3764" x1="1" x2="47" gradientUnits="userSpaceOnUse" gradientTransform="matrix(0,-1,1,0,-1.5e-6,47.999998)">
   <stop style="stop-color:#4d85c1;stop-opacity:1"/>
   <stop offset="1" style="stop-color:#5f91c7;stop-opacity:1"/>
  </linearGradient>
 </defs>
 <g>
  
  
  
 </g>
 <g>
  <path d="m 47,24 C 47,46.703 46.703,47 24,47 1.297,47 1,46.703 1,24 1,1.297 1.297,1 24,1 46.703,1 47,1.297 47,24 z" style="fill:url(#linearGradient3764);fill-opacity:1"/>
 </g>
 <g>
  
 </g>
 <g transform="matrix(3.543307,0,0,3.543307,0.00118217,-1.1894137e-7)">
  <g transform="matrix(0.28222223,0,0,0.28222223,0.28222222,0.2822222)" style="opacity:0.1">
   <path d="m 16 13 c 0 8 0 16 0 24 l 4 0 0 -12 14 0 0 -4 -14 0 0 -4 14 0 0 -4 -14 0 z" transform="translate(-0.99999996,-0.99999989)" style="fill:#000;fill-opacity:1;stroke:none"/>
  </g>
  <rect width="1.129" height="6.773" x="4.233" y="3.387" style="fill:#353535;fill-opacity:1;stroke:none"/>
  <rect y="-9.313" x="3.387" height="5.08" width="1.129" transform="matrix(0,1,-1,0,0,0)" style="fill:#353535;fill-opacity:1;stroke:none"/>
  <rect transform="matrix(0,1,-1,0,0,0)" width="1.129" height="5.08" x="5.644" y="-9.313" style="fill:#353535;fill-opacity:1;stroke:none"/>
  <rect width="0.564" height="0.564" x="4.233" y="3.387" style="fill:#fff754;fill-opacity:1;stroke:none"/>
  <rect y="4.516" x="4.233" height="0.564" width="0.564" style="fill:#fff754;fill-opacity:1;stroke:none"/>
  <rect width="0.564" height="0.564" x="5.362" y="3.387" style="fill:#fff754;fill-opacity:1;stroke:none"/>
  <rect y="3.387" x="6.491" height="0.564" width="0.564" style="fill:#fff754;fill-opacity:1;stroke:none"/>
  <rect width="0.564" height="0.564" x="7.62" y="3.387" style="fill:#fff754;fill-opacity:1;stroke:none"/>
  <rect y="3.387" x="8.749" height="0.564" width="0.564" style="fill:#fff754;fill-opacity:1;stroke:none"/>
  <rect width="0.564" height="0.564" x="8.184" y="3.951" style="fill:#fff754;fill-opacity:1;stroke:none"/>
  <rect y="3.951" x="7.06" height="0.564" width="0.564" style="fill:#fff754;fill-opacity:1;stroke:none"/>
  <rect width="0.564" height="0.564" x="5.927" y="3.951" style="fill:#fff754;fill-opacity:1;stroke:none"/>
  <rect y="3.951" x="4.798" height="0.564" width="0.564" style="fill:#fff754;fill-opacity:1;stroke:none"/>
  <rect width="0.564" height="0.564" x="4.798" y="5.08" style="fill:#fff754;fill-opacity:1;stroke:none"/>
  <rect y="5.644" x="4.233" height="0.564" width="0.564" style="fill:#fff754;fill-opacity:1;stroke:none"/>
  <rect width="0.564" height="0.564" x="4.798" y="6.209" style="fill:#fff754;fill-opacity:1;stroke:none"/>
  <rect y="5.644" x="5.362" height="0.564" width="0.564" style="fill:#fff754;fill-opacity:1;stroke:none"/>
  <rect width="0.564" height="0.564" x="6.491" y="5.644" style="fill:#fff754;fill-opacity:1;stroke:none"/>
  <rect y="5.644" x="7.62" height="0.564" width="0.564" style="fill:#fff754;fill-opacity:1;stroke:none"/>
  <rect width="0.564" height="0.564" x="8.749" y="5.644" style="fill:#fff754;fill-opacity:1;stroke:none"/>
  <rect y="6.209" x="8.184" height="0.564" width="0.564" style="fill:#fff754;fill-opacity:1;stroke:none"/>
  <rect width="0.564" height="0.564" x="7.06" y="6.209" style="fill:#fff754;fill-opacity:1;stroke:none"/>
  <rect y="6.209" x="5.927" height="0.564" width="0.564" style="fill:#fff754;fill-opacity:1;stroke:none"/>
  <rect width="0.564" height="0.564" x="4.233" y="6.773" style="fill:#fff754;fill-opacity:1;stroke:none"/>
  <rect y="7.902" x="4.233" height="0.564" width="0.564" style="fill:#fff754;fill-opacity:1;stroke:none"/>
  <rect width="0.564" height="0.564" x="4.798" y="7.338" style="fill:#fff754;fill-opacity:1;stroke:none"/>
  <rect y="8.467" x="4.798" height="0.564" width="0.564" style="fill:#fff754;fill-opacity:1;stroke:none"/>
  <rect width="0.564" height="0.564" x="4.233" y="9.03" style="fill:#fff754;fill-opacity:1;stroke:none"/>
  <rect y="9.596" x="4.798" height="0.564" width="0.564" style="fill:#fff754;fill-opacity:1;stroke:none"/>
 </g>
</svg>
