<svg viewBox="0 0 48 48" xmlns="http://www.w3.org/2000/svg" xmlns:xlink="http://www.w3.org/1999/xlink">
  <linearGradient id="a" gradientTransform="matrix(0 -1 1 0 -.0000015 47.999998)" gradientUnits="userSpaceOnUse" x1="1" x2="47">
    <stop offset="0" stop-color="#4d85c1"/>
    <stop offset="1" stop-color="#5f91c7"/>
  </linearGradient>
  <path d="m47 24c0 22.703-.297 23-23 23-22.703 0-23-.297-23-23 0-22.703.297-23 23-23 22.703 0 23 .297 23 23z" fill="url(#a)"/>
  <g transform="matrix(3.543307 0 0 3.543307 .00118217 -.00000012)">
    <path d="m16 13c0 8 0 16 0 24h4v-12h14v-4h-14v-4h14v-4h-14z" opacity=".1" transform="matrix(.28222223 0 0 .28222223 0 0)"/>
    <path d="m4.233 3.387h1.129v6.773h-1.129z" fill="#353535"/>
    <path d="m3.387-9.313h1.129v5.08h-1.129z" fill="#353535" transform="rotate(90)"/>
    <path d="m5.644-9.313h1.129v5.08h-1.129z" fill="#353535" transform="rotate(90)"/>
    <path d="m4.233 3.387h.564v.564h-.564z" fill="#fff754"/>
    <path d="m4.233 4.516h.564v.564h-.564z" fill="#fff754"/>
    <path d="m5.362 3.387h.564v.564h-.564z" fill="#fff754"/>
    <path d="m6.491 3.387h.564v.564h-.564z" fill="#fff754"/>
    <path d="m7.62 3.387h.564v.564h-.564z" fill="#fff754"/>
    <path d="m8.749 3.387h.564v.564h-.564z" fill="#fff754"/>
    <path d="m8.184 3.951h.564v.564h-.564z" fill="#fff754"/>
    <path d="m7.06 3.951h.564v.564h-.564z" fill="#fff754"/>
    <path d="m5.927 3.951h.564v.564h-.564z" fill="#fff754"/>
    <path d="m4.798 3.951h.564v.564h-.564z" fill="#fff754"/>
    <path d="m4.798 5.08h.564v.564h-.564z" fill="#fff754"/>
    <path d="m4.233 5.644h.564v.564h-.564z" fill="#fff754"/>
    <path d="m4.798 6.209h.564v.564h-.564z" fill="#fff754"/>
    <path d="m5.362 5.644h.564v.564h-.564z" fill="#fff754"/>
    <path d="m6.491 5.644h.564v.564h-.564z" fill="#fff754"/>
    <path d="m7.62 5.644h.564v.564h-.564z" fill="#fff754"/>
    <path d="m8.749 5.644h.564v.564h-.564z" fill="#fff754"/>
    <path d="m8.184 6.209h.564v.564h-.564z" fill="#fff754"/>
    <path d="m7.06 6.209h.564v.564h-.564z" fill="#fff754"/>
    <path d="m5.927 6.209h.564v.564h-.564z" fill="#fff754"/>
    <path d="m4.233 6.773h.564v.564h-.564z" fill="#fff754"/>
    <path d="m4.233 7.902h.564v.564h-.564z" fill="#fff754"/>
    <path d="m4.798 7.338h.564v.564h-.564z" fill="#fff754"/>
    <path d="m4.798 8.467h.564v.564h-.564z" fill="#fff754"/>
    <path d="m4.233 9.03h.564v.564h-.564z" fill="#fff754"/>
    <path d="m4.798 9.596h.564v.564h-.564z" fill="#fff754"/>
  </g>
</svg>
