<svg viewBox="0 0 48 48" xmlns="http://www.w3.org/2000/svg" xmlns:xlink="http://www.w3.org/1999/xlink">
  <linearGradient id="a" gradientTransform="matrix(0 -1 1 0 -.0000015 47.999998)" gradientUnits="userSpaceOnUse" x1="1" x2="47">
    <stop offset="0" stop-color="#e4e4e4"/>
    <stop offset="1" stop-color="#eee"/>
  </linearGradient>
  <path d="m47 24c0 22.703-.297 23-23 23-22.703 0-23-.297-23-23 0-22.703.297-23 23-23 22.703 0 23 .297 23 23z" fill="url(#a)"/>
  <path d="m18.607 6.17c.589.971 1.199 1.83 1.277 3.01.046.754-.451 2.781-.646 3.582-.053.213-.102.431-.152.648l-2.025-1.293v6c-.549-.925-1.184-1.817-2.031-2.547l0 0c-1.547-1.332-4.465-2.543-6.383-1.301 1.117.437 1.937.726 2.746 1.699 1.723 2.086 2.36 6.758 5.34 8.555.096.058.226.101.338.152v1.104c-.047-.021-.095-.044-.143-.064-2.5-1.101-5.03-1.723-7.711-.871l-.002.002c-1.362.429-2.658 1.343-3.01 2.777.766-.305 1.801-.748 2.633-.682 1.023.078 2.644.922 3.578 1.383 1.447.724 3.046 1.449 4.654 1.686v1.654c-3.268 1.451-4.874 3.755-4.656 7.43.957-1.023 1.156-1.925 2.633-2.652.586-.284 1.288-.483 2.023-.666v2.096l7.906-5.04-1.029 1.748c-1.227 2.59-1.898 7.711 1.25 9.219-.238-1.312-.523-1.875 0-3.195 1.38-3.535 5.323-6.441 4.172-10.576l.574-.365c.118.772.142 1.582.145 2.295.023 3.813 2.039 8.365 6.398 8.463-.774-1.076-1.629-1.649-1.973-3.01-.78-3.041.416-6.985-1.488-9.715l.684-.436c1.866 1.543 4.03 2.95 6.529 2.752 1.289-.106 2.894-.449 3.578-1.633-.832.094-1.434.141-2.254-.117-1.219-.379-2.498-1.629-3.389-2.516-1.797-1.785-3.442-3.612-5.816-3.869l-2.33-1.486c.408-.072.855-.096 1.381-.098 3.387-.008 6.707.285 9.258-2.477l0 0c .761-.824 1.656-2.199 1.273-3.355-1.524 1.493-2.01 1.887-4.141 1.891-3.554.008-7.746-1.18-10.191 2.258-.041.058-.075.116-.113.174l-.928-.592c.689-.721 1.572-1.272 2.393-1.838 1.254-.867 2.473-1.898 3.301-3.195 1.207-1.887 2.117-5.082.461-6.961-.117 1.394-.492 2.375-1.512 3.371-2.206 2.146-6.392 3.209-7.441 6.836l-.943-.602c0-.004 0 0 .002-.014.164-.947.336-2.053.293-3.01h.006c-.11-2.711-1.414-6.254-4.508-6.586z" opacity=".1" transform=""/>
  <path d="m17.607 5.17c.589.971 1.199 1.83 1.277 3.01.046.754-.451 2.781-.646 3.582-.723 2.918-1.375 6.281 1.074 8.617.539.512 1.199.881 1.867 1.201.91.434 1.633.631 2.633.713-.981-1.258-2.203-1.987-2.465-3.76-.16-1.074.27-2.668.469-3.758.164-.947.336-2.053.293-3.01l.006-.01c-.11-2.711-1.414-6.254-4.508-6.586zm13.09 15.67c-.391.006-.803.053-1.236.148-.836.184-1.528.484-2.258.914l-.008-.016c-.996.578-1.523 1.074-2.07 2.09 1.469-.391 2.584-1 4.143-.379.996.402 1.654 1.141 2.443 1.832 2.067 1.824 4.572 3.812 7.521 3.578 1.289-.106 2.894-.449 3.578-1.633-.832.094-1.434.141-2.254-.117-1.219-.379-2.498-1.629-3.389-2.516-1.958-1.945-3.733-3.944-6.471-3.902zm-7.06 3.9c-.035.625-.058.906-.273 1.508-1.246 3.453-4.02 3.073-6.875 4.225-3.566 1.437-5.305 3.789-5.078 7.625.957-1.023 1.156-1.925 2.633-2.652 2.97-1.438 8.506-.879 10.01-5.434.254-.761.32-1.273.332-2.07l.002-.006c.012-1.185.102-2.273-.75-3.195z" fill="#d62f2f"/>
  <path d="m31.711 5.184c-.117 1.394-.492 2.375-1.512 3.371-2.477 2.41-7.461 3.445-7.684 8.289-.031.59.153 1.684.309 2.258.285 1.058.758 2.254 1.75 2.82-.195-1.043-.348-2.168 0-3.195.57-1.606 2.055-2.477 3.375-3.387 1.254-.867 2.473-1.898 3.301-3.195 1.207-1.887 2.117-5.082.461-6.961zm-20.545 18.275c-.969-.043-1.954.069-2.959.389l-.002.002c-1.362.429-2.658 1.343-3.01 2.777.766-.305 1.801-.748 2.633-.682 1.023.078 2.644.922 3.578 1.383 2.664 1.332 5.839 2.73 8.648.914.633-.41 1.125-.84 1.594-1.43.703-.879 1.051-1.586 1.414-2.633-1.336.519-2.406 1.742-3.949 1.656-1.152-.07-2.168-.664-3.195-1.117-1.563-.688-3.136-1.189-4.752-1.26zm15.658.721v.002h-1.508c.434.582.938.653 1.508 1.059.726.524 1.445 1.303 1.789 2.139.434 1.062.461 2.447.465 3.576.023 3.813 2.039 8.365 6.398 8.463-.774-1.076-1.629-1.649-1.973-3.01-.895-3.488.816-8.168-2.543-10.836-.468-.371-1.136-.707-1.691-.926-.863-.336-1.531-.453-2.445-.465z" fill="#4c84c1"/>
  <path d="m9.225 12.766c-.567.04-1.108.197-1.588.508 1.117.437 1.937.726 2.746 1.699 1.723 2.086 2.36 6.758 5.34 8.555 1.683 1.012 6 1.133 7.156-.664-5.43.922-5.217-5.16-8.85-8.289h-.01c-1.16-.999-3.093-1.93-4.795-1.809zm31.705.682c-1.524 1.493-2.01 1.887-4.141 1.891-3.554.008-7.746-1.18-10.191 2.258-.422.59-.684 1.188-.895 1.879-.356 1.166-.383 1.822-.383 3.01.668-.468.973-1.269 1.539-1.863 1.121-1.168 2-1.328 3.539-1.332 3.387-.008 6.707.285 9.258-2.477v-.01c.761-.824 1.656-2.199 1.273-3.355zm-16.545 11.295c.602 1.141 1.414 2.403 1.223 3.762-.168 1.132-.966 2.234-1.564 3.195l-1.105 1.879c-1.227 2.59-1.898 7.711 1.25 9.219-.238-1.312-.523-1.875 0-3.195 1.458-3.734 5.785-6.765 3.938-11.285-.266-.645-.723-1.348-1.172-1.879h-.006c-.735-.882-1.421-1.461-2.563-1.695z" fill="#2c9d45"/>
  <path d="m16.06 36.875v-25.758l20.18 12.879m-20.18 12.879" fill="#333"/>
</svg>
