<svg viewBox="0 0 48 48" xmlns="http://www.w3.org/2000/svg" xmlns:xlink="http://www.w3.org/1999/xlink">
  <linearGradient id="a" gradientTransform="matrix(0 -1 1 0 -.0000015 47.999998)" gradientUnits="userSpaceOnUse" x1="1" x2="47">
    <stop offset="0" stop-color="#e4e4e4"/>
    <stop offset="1" stop-color="#eee"/>
  </linearGradient>
  <path d="m47 24c0 22.703-.297 23-23 23-22.703 0-23-.297-23-23 0-22.703.297-23 23-23 22.703 0 23 .297 23 23z" fill="url(#a)"/>
  <path d="m18.664 10c1.332 1.34 1.324 2.406 1.324 4.02v3.336c-4.66 1.563-7.992 5.77-7.992 10.734 0 4.258 2.469 7.973 6.117 9.926h11.77c3.648-1.953 6.117-5.668 6.117-9.926 0-4.953-3.344-9.156-8-10.734v-3.336c0-1.605-.008-2.676 1.324-4.02h-10.664m.008 0" opacity=".1" transform="translate(1 1)"/>
  <path d="m18.664 10c1.332 1.34 1.324 2.406 1.324 4.02v3.336c-4.66 1.563-7.992 5.77-7.992 10.734 0 4.258 2.469 7.973 6.117 9.926h11.77c3.648-1.953 6.117-5.668 6.117-9.926 0-4.953-3.344-9.156-8-10.734v-3.336c0-1.605-.008-2.676 1.324-4.02h-10.664m.008 0" fill="#9cf"/>
  <path d="m13.25 23c-.801 1.523-1.25 3.242-1.25 5.063 0 4.254 2.477 7.984 6.125 9.938h11.75c3.648-1.953 6.125-5.684 6.125-9.938 0-1.82-.449-3.539-1.25-5.063m-21.5 0" fill="#3d9ade"/>
  <path d="m27 35.5c0 .277-.223.5-.5.5-.277 0-.5-.227-.5-.5 0-.277.223-.5.5-.5.277 0 .5.223.5.5m0 0" fill="#f9f9f9"/>
  <path d="m25.5 33.25c0 .414-.336.75-.75.75-.414 0-.75-.336-.75-.75 0-.414.336-.75.75-.75.414 0 .75.336.75.75m0 0" fill="#f9f9f9"/>
  <path d="m27 30c0 .551-.449 1-1 1-.551 0-1-.449-1-1 0-.555.449-1 1-1 .551 0 1 .449 1 1m0 0" fill="#f9f9f9"/>
  <path d="m27 22.5c0 .828-.672 1.5-1.5 1.5-.828 0-1.5-.676-1.5-1.5 0-.828.672-1.5 1.5-1.5.828 0 1.5.672 1.5 1.5m0 0" fill="#f9f9f9"/>
  <path d="m24.5 26.75c0 .691-.559 1.25-1.25 1.25-.691 0-1.25-.563-1.25-1.25 0-.691.559-1.25 1.25-1.25.691 0 1.25.563 1.25 1.25m0 0" fill="#f9f9f9"/>
</svg>
