<svg viewBox="0 0 48 48" xmlns="http://www.w3.org/2000/svg" xmlns:xlink="http://www.w3.org/1999/xlink">
  <linearGradient id="a" gradientTransform="matrix(0 -1 1 0 -.0000015 47.999998)" gradientUnits="userSpaceOnUse" x1="1" x2="47">
    <stop offset="0" stop-color="#e4e4e4"/>
    <stop offset="1" stop-color="#eee"/>
  </linearGradient>
  <path d="m47 24c0 22.703-.297 23-23 23-22.703 0-23-.297-23-23 0-22.703.297-23 23-23 22.703 0 23 .297 23 23z" fill="url(#a)"/>
  <g opacity=".1" transform="translate(1 1)">
    <path d="m33.434 37c0 0 .563-.324.563-1.996 0-1.613-.633-2-.633-2h-15.07l-4.297 2 4.297 1.996m15.14 0"/>
    <path d="m19.922 31h-2.922v-19.996h14v2.063h-11.08v6.902h10.402v2.066h-10.402v8.969"/>
  </g>
  <path d="m33.434 37c0 0 .563-.324.563-1.996 0-1.613-.633-2-.633-2h-15.07l-4.297 2 4.297 1.996m15.14 0" fill="#ff6f03"/>
  <path d="m18 33.16l-4 1.844 4 1.844m0-3.688" fill="#ffc13d"/>
  <path d="m16 34.06l-2 .938 2 .941m0-1.879" fill="#2d2d2d"/>
  <path d="m31 33v4h2.438c0 0 .563-.324.563-2 0-1.613-.625-2-.625-2m-2.375 0" fill="#ff2d5b"/>
  <path d="m19.922 31h-2.922v-19.996h14v2.063h-11.08v6.902h10.402v2.066h-10.402v8.969" fill="#535353"/>
</svg>
