<svg viewBox="0 0 48 48" xmlns="http://www.w3.org/2000/svg" xmlns:xlink="http://www.w3.org/1999/xlink">
  <linearGradient id="a" gradientTransform="matrix(0 -1 1 0 -.0000015 47.999998)" gradientUnits="userSpaceOnUse" x1="1" x2="47">
    <stop offset="0" stop-color="#f15f1f"/>
    <stop offset="1" stop-color="#f26d32"/>
  </linearGradient>
  <path d="m47 24c0 22.703-.297 23-23 23-22.703 0-23-.297-23-23 0-22.703.297-23 23-23 22.703 0 23 .297 23 23z" fill="url(#a)"/>
  <path d="m21.19 15c-.57.016-1.148.109-1.719.313-2.445.863-4.301 3.363-4.844 6.469-1.605.402-2.996 1.887-3.48 4-.672 3 .738 6.094 3.125 6.938.039.012.086.023.125.031.332.148.66.25 1.031.25h17.344c.621 0 1.172-.234 1.656-.625 1.938-1.16 3.01-3.91 2.406-6.594-.441-1.98-1.68-3.434-3.156-3.938-.012-.066-.016-.121-.031-.188-.672-3-3.172-4.75-5.563-3.906-.457.16-.863.43-1.25.75-1.316-2.223-3.422-3.563-5.656-3.5m2.816 4l1 2h-2m-5-1h2v1h-1v1h1v2h-1v1h1v2h-1v1h1v2h-1v1h1v1h-2m10.75-11.594v1.094c-.129.09-.219.238-.219.406 0 .277.223.5.5.5.273 0 .5-.223.5-.5 0-.191-.125-.355-.281-.438v-1.063c.391.602.996 1.539.656 2.156-.332.594-1.48.59-1.813 0-.344-.613.25-1.551.656-2.156m-5.75 1.594h2v10h-2m5-8h2v8h-2m0-8" opacity=".1" transform="translate(1 1)"/>
  <path d="m21.19 15c-.57.016-1.148.109-1.719.313-2.445.863-4.301 3.363-4.844 6.469-1.605.402-2.996 1.887-3.48 4-.672 3 .738 6.094 3.125 6.938.039.012.086.023.125.031.332.148.66.25 1.031.25h17.344c.621 0 1.172-.234 1.656-.625 1.938-1.16 3.01-3.91 2.406-6.594-.441-1.98-1.68-3.434-3.156-3.938-.012-.066-.016-.121-.031-.188-.672-3-3.172-4.75-5.563-3.906-.457.16-.863.43-1.25.75-1.316-2.223-3.422-3.563-5.656-3.5m2.816 4l1 2h-2m-5-1h2v1h-1v1h1v2h-1v1h1v2h-1v1h1v2h-1v1h1v1h-2m10.75-11.594v1.094c-.129.09-.219.238-.219.406 0 .277.223.5.5.5.273 0 .5-.223.5-.5 0-.191-.125-.355-.281-.438v-1.063c.391.602.996 1.539.656 2.156-.332.594-1.48.59-1.813 0-.344-.613.25-1.551.656-2.156m-5.75 1.594h2v10h-2m5-8h2v8h-2m0-8" fill="#f9f9f9"/>
</svg>
