<svg viewBox="0 0 48 48" xmlns="http://www.w3.org/2000/svg" xmlns:xlink="http://www.w3.org/1999/xlink">
  <linearGradient id="a" gradientTransform="matrix(0 -1 1 0 -.0000015 47.999998)" gradientUnits="userSpaceOnUse" x1="1" x2="47">
    <stop offset="0" stop-color="#5b2f0d"/>
    <stop offset="1" stop-color="#6c3710"/>
  </linearGradient>
  <path d="m47 24c0 22.703-.297 23-23 23-22.703 0-23-.297-23-23 0-22.703.297-23 23-23 22.703 0 23 .297 23 23z" fill="url(#a)"/>
  <path d="m15.336 13c-1.906 0-2.336.711-2.336 1.074 0 .359.238.523.773.523 1 0 .52-1.402 2.203-1.402.332 0 .626.155.904.443l-2.881 15.361v4h10v-3.836c.603.68 1.261 1.22 2 1.525v2.311h10v-2.17c.779-.23 1.01-.655 1.01-1.014 0-.355-.453-.445-.738-.445-.109 0-.192.023-.271.049v-.42l-3-16h-7v1.787c-.641-.702-1.308-1.193-2-1.471v-.316h-1.596-.002-5.402l-.059.316c-.522-.21-1.056-.316-1.602-.316h-.004zm8.664.709c.641.713 1.232 2.23 2 4.275v1.32l-1.867.088v-.01l-.133-.006v-5.668zm0 5.906l2 .086v10.578c-.652-.719-1.168-2.148-1.824-3.893l-.176-.467v-6.305zm-10 15.385v2h10v-2zm12 0v2h10v-2z" fill="#1a1a1a" opacity=".1"/>
  <path d="m16 12l-3 16v4h10v-20zm9 0v20h10v-4l-3-16zm-12 22v2h10v-2zm12 0v2h10v-2z" fill="#de7f36"/>
  <path d="m22.402 13c-1.906 0-2.336.711-2.336 1.074 0 .359.238.523.773.523.99 0 .536-1.371 2.16-1.398v-.141c-.198-.027-.395-.059-.596-.059h-.002zm-6.598.045l-.033.174c.071-.006.125-.023.205-.023 1.289 0 2.01 2.266 3.449 6.086l-2.564.121.004.211 2.758.117 1.496 4.133c.545 1.471 1.163 2.843 1.881 3.982v-4.584l-1.346-3.578 1.346-.053v-.301l-1.506-.072c-1.627-4.205-3.57-5.987-5.689-6.213zm9.195.828v1.578c.434.992.9 2.273 1.49 3.83l-1.49.07v.307l1.686.072 1.5 4.133c1.453 3.922 3.418 7.137 6.441 7.137.137 0 .251-.011.373-.018v-.455c-.211.151-.506.258-.979.258-1.191 0-1.839-1.892-2.781-4.398l-2.52-6.703 2.477-.098v-.203l-2.637-.125c-1.064-2.749-2.266-4.459-3.561-5.385zm0 14.607v1.637c.76.561 1.608.883 2.561.883 1.938 0 2.383-.668 2.383-1.184 0-.355-.453-.445-.738-.445-1.078 0-.5 1.414-2.25 1.414-.817 0-1.377-.931-1.955-2.305z" fill="#1a1a1a" opacity=".1"/>
  <path d="m21.402 12c-1.906 0-2.336.711-2.336 1.074 0 .359.238.523.773.523 1 0 .52-1.402 2.203-1.402 1.289 0 1.998 2.266 3.447 6.086l-2.563.121.004.211 2.754.117 1.5 4.133c1.453 3.922 3.418 7.137 6.441 7.137 1.934 0 2.383-.668 2.383-1.184 0-.355-.453-.445-.738-.445-1.082 0-.504 1.414-2.25 1.414-1.191 0-1.839-1.892-2.781-4.398l-2.52-6.703 2.477-.098v-.203l-2.637-.125c-1.746-4.512-3.859-6.258-6.156-6.258" fill="#f9f9f9"/>
  <path d="m14.336 12c-1.906 0-2.336.711-2.336 1.074 0 .359.238.523.773.523 1 0 .52-1.402 2.203-1.402 1.289 0 2.01 2.266 3.449 6.086l-2.564.121.004.211 2.758.117 1.496 4.133c1.453 3.922 3.422 7.137 6.441 7.137 1.938 0 2.383-.668 2.383-1.184 0-.355-.453-.445-.738-.445-1.078 0-.5 1.414-2.25 1.414-1.188 0-1.836-1.891-2.779-4.398l-2.521-6.703 2.479-.098v-.203l-2.639-.125c-1.746-4.512-3.853-6.258-6.154-6.258" fill="#f9f9f9"/>
</svg>
