<svg viewBox="0 0 48 48" xmlns="http://www.w3.org/2000/svg" xmlns:xlink="http://www.w3.org/1999/xlink">
  <linearGradient id="a" gradientTransform="matrix(0 -1 1 0 -.0000015 47.999998)" gradientUnits="userSpaceOnUse" x1="1" x2="47">
    <stop offset="0" stop-color="#ba4aae"/>
    <stop offset="1" stop-color="#c059b6"/>
  </linearGradient>
  <path d="m47 24c0 22.703-.297 23-23 23-22.703 0-23-.297-23-23 0-22.703.297-23 23-23 22.703 0 23 .297 23 23z" fill="url(#a)"/>
  <path d="m16 12c-1 0-1 .996-1 .996v23c0 1 1 2 1.996 2h16.98c.535 0 1.02-.465 1.02-.977v-21.02c0-.512-.461-1-.996-1h-15l-2-2c0 0 17 .002 17 0 0-.105-.32-.994-1-.994zm10.563 7c .638 0 1.547.215 2.375.688 1.32.758 2.156 1.891 2.063 2.719l-5.438-3.125c.254-.184.586-.281 1-.281zm-.844.814c.247.053.658.316.658.316.375.215.494.691.279 1.063l-4.219 7.219c-.215.371-.688.496-1.063.281l-.344-.188c-.375-.219-.496-.691-.281-1.066l4.219-7.219c.164-.277.449-.445.75-.406zm1.924 1.113c.245.039.417.179.639.297.382.203.496.691.281 1.063l-4.219 7.227c-.215.367-.688.492-1.063.273l-.313-.188c-.375-.211-.528-.691-.314-1.066l4.219-7.219c.105-.184.279-.324.471-.375.096-.026.198-.028.299-.012zm1.92 1.105c.257.026.426.169.656.289.383.2.5.695.281 1.066l-4.219 7.219c-.215.367-.688.492-1.063.281l-.346-.191c-.371-.211-.494-.691-.279-1.063l4.219-7.227c.164-.27.449-.41.75-.375zm-9.563 6.406l5.7 3.161-5.669 3.402z" opacity=".1"/>
  <path d="m15 11c-1 0-1 .996-1 .996v23c0 1 1 2 1.996 2h16.98c.535 0 1.02-.465 1.02-.977v-21.02c0-.512-.461-1-.996-1h-15l-2-2c0 0 17 .002 17 0 0-.105-.32-.994-1-.994zm10.563 7c .638 0 1.547.215 2.375.688 1.32.758 2.156 1.891 2.063 2.719l-5.438-3.125c.254-.184.586-.281 1-.281m-.844.814c.247.053.658.316.658.316.375.215.494.691.279 1.063l-4.219 7.219c-.215.371-.688.496-1.063.281l-.344-.188c-.375-.219-.496-.691-.281-1.066l4.219-7.219c.164-.277.449-.445.75-.406zm1.924 1.113c.245.039.417.179.639.297.382.203.496.691.281 1.063l-4.219 7.227c-.215.367-.688.492-1.063.273l-.313-.188c-.375-.211-.528-.691-.314-1.066l4.219-7.219c.105-.184.279-.324.471-.375.096-.026.198-.028.299-.012zm1.92 1.105c.257.026.426.169.656.289.383.2.5.695.281 1.066l-4.219 7.219c-.215.367-.688.492-1.063.281l-.346-.191c-.371-.211-.494-.691-.279-1.063l4.219-7.227c.164-.27.449-.41.75-.375zm-9.563 6.406l5.7 3.161-5.669 3.402" fill="#ebebeb"/>
</svg>
