<svg xmlns="http://www.w3.org/2000/svg" viewBox="0 0 48 48">
 <defs>
  <linearGradient id="linearGradient3764" x1="1" x2="47" gradientUnits="userSpaceOnUse" gradientTransform="matrix(0,-1,1,0,-1.5e-6,47.999998)">
   <stop style="stop-color:#f6b22e;stop-opacity:1"/>
   <stop offset="1" style="stop-color:#f7b941;stop-opacity:1"/>
  </linearGradient>
 </defs>
 <g>
  
  
  
 </g>
 <g>
  <path d="m 47,24 C 47,46.703 46.703,47 24,47 1.297,47 1,46.703 1,24 1,1.297 1.297,1 24,1 46.703,1 47,1.297 47,24 z" style="fill:url(#linearGradient3764);fill-opacity:1"/>
 </g>
 <g>
  <g>
   <g transform="translate(1,1)">
    <g style="opacity:0.1">
     <!-- color: #f7b941 -->
     <g>
      <path d="m 20.531 13 c -0.48 0 -0.949 0.156 -1.406 0.469 c -0.457 0.313 -0.766 0.695 -0.941 1.121 l -0.688 2.406 l -3.03 0 c -0.957 0 -1.762 0.34 -2.438 1 c -0.68 0.664 -1.031 1.473 -1.031 2.406 l 0 11.219 c 0 0.934 0.352 1.715 1.031 2.375 c 0.676 0.66 1.48 0.996 2.438 0.996 l 19.06 0 c 0.957 0 1.793 -0.34 2.469 -0.996 c 0.676 -0.664 1 -1.445 1 -2.375 l 0 -11.219 c 0 -0.934 -0.324 -1.742 -1 -2.406 c -0.676 -0.664 -1.512 -1 -2.469 -1 l -3.03 0 l -0.688 -2.406 c -0.168 -0.43 -0.48 -0.809 -0.938 -1.125 c -0.457 -0.313 -0.93 -0.469 -1.406 -0.469 m -3.91 6 c 3.285 -0.242 6.445 2.707 6.438 5.996 c 0 3.145 -2.859 6 -5.996 6 c -3.145 0 -6 -2.859 -6 -6 c -0.008 -3 2.57 -5.781 5.563 -5.996 m -0.004 0" style="fill:#000;fill-opacity:1;stroke:none;fill-rule:nonzero"/>
      <path d="m 28 25.02 c 0 2.211 -1.793 4 -4 4 c -2.211 0 -4 -1.789 -4 -4 c 0 -2.211 1.789 -4 4 -4 c 2.207 0 4 1.789 4 4 m 0 0" style="fill:#000;fill-opacity:1;stroke:none;fill-rule:nonzero"/>
     </g>
    </g>
   </g>
  </g>
 </g>
 <g>
  <g>
   <!-- color: #f7b941 -->
   <g>
    <path d="m 20.531 13 c -0.48 0 -0.949 0.156 -1.406 0.469 c -0.457 0.313 -0.766 0.695 -0.941 1.121 l -0.688 2.406 l -3.03 0 c -0.957 0 -1.762 0.34 -2.438 1 c -0.68 0.664 -1.031 1.473 -1.031 2.406 l 0 11.219 c 0 0.934 0.352 1.715 1.031 2.375 c 0.676 0.66 1.48 0.996 2.438 0.996 l 19.06 0 c 0.957 0 1.793 -0.34 2.469 -0.996 c 0.676 -0.664 1 -1.445 1 -2.375 l 0 -11.219 c 0 -0.934 -0.324 -1.742 -1 -2.406 c -0.676 -0.664 -1.512 -1 -2.469 -1 l -3.03 0 l -0.688 -2.406 c -0.168 -0.43 -0.48 -0.809 -0.938 -1.125 c -0.457 -0.313 -0.93 -0.469 -1.406 -0.469 m -3.91 6 c 3.285 -0.242 6.445 2.707 6.438 5.996 c 0 3.145 -2.859 6 -5.996 6 c -3.145 0 -6 -2.859 -6 -6 c -0.008 -3 2.57 -5.781 5.563 -5.996 m -0.004 0" style="fill:#53453d;fill-opacity:1;stroke:none;fill-rule:nonzero"/>
    <path d="m 28 25.02 c 0 2.211 -1.793 4 -4 4 c -2.211 0 -4 -1.789 -4 -4 c 0 -2.211 1.789 -4 4 -4 c 2.207 0 4 1.789 4 4 m 0 0" style="fill:#53453d;fill-opacity:1;stroke:none;fill-rule:nonzero"/>
   </g>
  </g>
 </g>
 <g>
  
 </g>
</svg>
