<svg xmlns="http://www.w3.org/2000/svg" viewBox="0 0 48 48">
 <defs>
  <linearGradient id="linearGradient3764" x1="1" x2="47" gradientUnits="userSpaceOnUse" gradientTransform="matrix(0,-1,1,0,-1.5e-6,47.999998)">
   <stop style="stop-color:#e4e4e4;stop-opacity:1"/>
   <stop offset="1" style="stop-color:#eee;stop-opacity:1"/>
  </linearGradient>
 </defs>
 <g>
  
  
  
 </g>
 <g>
  <path d="m 47,24 C 47,46.703 46.703,47 24,47 1.297,47 1,46.703 1,24 1,1.297 1.297,1 24,1 46.703,1 47,1.297 47,24 z" style="fill:url(#linearGradient3764);fill-opacity:1"/>
 </g>
 <g>
  
 </g>
 <path d="m 14 12 c -1.108 0 -2 0.892 -2 2 l 0 8 c 0 1.108 0.892 2 2 2 l 8 0 c 1.108 0 2 -0.892 2 -2 l 0 -8 c 0 -1.108 -0.892 -2 -2 -2 l -8 0 z m 14 0 c -1.108 0 -2 0.892 -2 2 l 0 8 c 0 1.108 0.892 2 2 2 l 8 0 c 1.108 0 2 -0.892 2 -2 l 0 -8 c 0 -1.108 -0.892 -2 -2 -2 l -8 0 z m -10.07 2 4.57 3 -1.5 0 l 0 5 -2 0 0 -5 -2 0 0 5 -2 0 0 -5 -1.5 0 4.43 -3 z m 12.07 0 l 2 5 2 -3 2 3.5 0 2.5 -8 0 0 -4 2 -4 z m -16 12 c -1.108 0 -2 0.892 -2 2 l 0 8 c 0 1.108 0.892 2 2 2 l 8 0 c 1.108 0 2 -0.892 2 -2 l 0 -8 c 0 -1.108 -0.892 -2 -2 -2 l -8 0 z m 14 0 c -1.108 0 -2 0.892 -2 2 l 0 8 c 0 1.108 0.892 2 2 2 l 8 0 c 1.108 0 2 -0.892 2 -2 l 0 -8 c 0 -1.108 -0.892 -2 -2 -2 l -8 0 z m -11 2 c 0.351 0 0.696 0.093 1 0.27 c 0.304 -0.176 0.649 -0.269 1 -0.27 c 1.105 0 2 0.895 2 2 -0.001 0.048 -0.003 0.096 -0.008 0.145 0.759 0.303 1.258 1.038 1.258 1.855 0 0.817 -0.498 1.552 -1.256 1.855 0.004 0.048 0.006 0.096 0.006 0.145 0 1.105 -0.895 2 -2 2 -0.351 0 -0.696 -0.093 -1 -0.27 c -0.304 0.176 -0.649 0.269 -1 0.27 c -1.105 0 -2 -0.895 -2 -2 0.001 -0.048 0.004 -0.096 0.008 -0.145 c -0.759 -0.303 -1.258 -1.038 -1.258 -1.855 0 -0.817 0.498 -1.552 1.256 -1.855 -0.004 -0.048 -0.006 -0.096 -0.006 -0.145 c 0 -1.105 0.895 -2 2 -2 z m 15 0 c 1.105 0 2 1.119 2 2.5 -0.001 0.891 -0.383 1.714 -1 2.16 0 1.84 3 0.346 3 3.34 l -8 0 c 0 -2.994 3 -1.5 3 -3.34 c -0.617 -0.446 -0.999 -1.269 -1 -2.16 0 -1.381 0.895 -2.5 2 -2.5 m -14 2 c -1.105 0 -2 0.895 -2 2 0 1.105 0.895 2 2 2 1.105 0 2 -0.895 2 -2 0 -1.105 -0.895 -2 -2 -2 z" style="fill:#000;opacity:0.1;fill-opacity:1;stroke:none"/>
 <path d="m 13 11 c -1.108 0 -2 0.892 -2 2 l 0 8 c 0 1.108 0.892 2 2 2 l 8 0 c 1.108 0 2 -0.892 2 -2 l 0 -8 c 0 -1.108 -0.892 -2 -2 -2 l -8 0 z m 3.93 2 l 4.57 3 l -1.5 0 l 0 5 l -2 0 l 0 -5 l -2 0 l 0 5 l -2 0 l 0 -5 l -1.5 0 l 4.43 -3 z" style="fill:#16a1b2;opacity:1;fill-opacity:1;stroke:none"/>
 <path d="m 27 11 c -1.108 0 -2 0.892 -2 2 l 0 8 c 0 1.108 0.892 2 2 2 l 8 0 c 1.108 0 2 -0.892 2 -2 l 0 -8 c 0 -1.108 -0.892 -2 -2 -2 l -8 0 z m 2 2 l 2 5 l 2 -3 l 2 3.5 l 0 2.5 l -8 0 l 0 -4 l 2 -4 z" style="fill:#e2e236;opacity:1;fill-opacity:1;stroke:none"/>
 <path d="m 27 25 c -1.108 0 -2 0.892 -2 2 l 0 8 c 0 1.108 0.892 2 2 2 l 8 0 c 1.108 0 2 -0.892 2 -2 l 0 -8 c 0 -1.108 -0.892 -2 -2 -2 l -8 0 z m 4 2 c 1.105 0 2 1.119 2 2.5 c -0.001 0.891 -0.383 1.714 -1 2.16 c 0 1.84 3 0.346 3 3.34 l -8 0 c 0 -2.994 3 -1.5 3 -3.34 c -0.617 -0.446 -0.999 -1.269 -1 -2.16 c 0 -1.381 0.895 -2.5 2 -2.5 z" style="fill:#505050;opacity:1;fill-opacity:1;stroke:none"/>
 <path d="m 13 25 c -1.108 0 -2 0.892 -2 2 l 0 8 c 0 1.108 0.892 2 2 2 l 8 0 c 1.108 0 2 -0.892 2 -2 l 0 -8 c 0 -1.108 -0.892 -2 -2 -2 l -8 0 z m 3 2 c 0.351 0 0.696 0.093 1 0.27 c 0.304 -0.176 0.649 -0.269 1 -0.27 c 1.105 0 2 0.895 2 2 c -0.001 0.048 -0.004 0.096 -0.008 0.145 c 0.759 0.303 1.258 1.038 1.258 1.855 c 0 0.817 -0.498 1.552 -1.256 1.855 c 0.004 0.048 0.006 0.096 0.006 0.145 c 0 1.105 -0.895 2 -2 2 c -0.351 0 -0.696 -0.093 -1 -0.27 c -0.304 0.176 -0.649 0.269 -1 0.27 c -1.105 0 -2 -0.895 -2 -2 c 0.001 -0.048 0.004 -0.096 0.008 -0.145 c -0.759 -0.303 -1.258 -1.038 -1.258 -1.855 c 0 -0.817 0.498 -1.552 1.256 -1.855 c -0.004 -0.048 -0.006 -0.096 -0.006 -0.145 c 0 -1.105 0.895 -2 2 -2 z m 1 2 c -1.105 0 -2 0.895 -2 2 c 0 1.105 0.895 2 2 2 c 1.105 0 2 -0.895 2 -2 c 0 -1.105 -0.895 -2 -2 -2 z" style="fill:#e04cb4;opacity:1;fill-opacity:1;stroke:none"/>
</svg>
