<svg viewBox="0 0 48 48" xmlns="http://www.w3.org/2000/svg" xmlns:xlink="http://www.w3.org/1999/xlink">
  <linearGradient id="a" gradientUnits="userSpaceOnUse" x2="0" y1="47" y2="1">
    <stop offset="0" stop-color="#dde3ff"/>
    <stop offset="1" stop-color="#dde3ff"/>
  </linearGradient>
  <path d="m24 1c22.703 0 23 .297 23 23 0 22.703-.297 23-23 23-22.703 0-23-.297-23-23 0-22.703.297-23 23-23z" fill="url(#a)"/>
  <path d="m39 20.804c-2.624-10.978-12.702-10.886-18.787-8.02-6.403 3.203-11.04 11.413-8.511 18.287 3.909 10.37 18.4 10.258 23.736.354 1.497-3.446.89-6.176-1.257-9.104l-.464 3.607-1.903-3.161c0 0-1.056 3.76-2.376 5.086-1.837 1.845-4.646.481-4.475 1.12.491 1.837 4.705 3.161 4.705 3.161-9.999 4.452-10.583-3.461-10.473-5.283.316-5.244 4.956-9.124 10.568-8.832 1.79.136 4.905 2.223 4.905 2.223-1.288-2.917-3.472-4.185-4.55-4.731 4.226-1.383 6.964 2.778 8.883 5.292" fill-rule="evenodd" opacity=".1"/>
  <path d="m38 19.804c-2.624-10.978-12.702-10.886-18.787-8.02-6.403 3.203-11.04 11.413-8.511 18.287 3.909 10.37 18.4 10.258 23.736.354 1.497-3.446.89-6.176-1.257-9.104l-.464 3.607-1.903-3.161c0 0-1.056 3.76-2.376 5.086-1.837 1.845-4.646.481-4.475 1.12.491 1.837 4.705 3.161 4.705 3.161-9.999 4.452-10.583-3.461-10.473-5.283.316-5.244 4.956-9.124 10.568-8.832 1.79.136 4.905 2.223 4.905 2.223-1.288-2.917-3.472-4.185-4.55-4.731 4.226-1.383 6.964 2.778 8.883 5.292z" fill="#f68b1f" fill-rule="evenodd"/>
</svg>
