<svg viewBox="0 0 48 48" xmlns="http://www.w3.org/2000/svg" xmlns:xlink="http://www.w3.org/1999/xlink">
  <linearGradient id="a" gradientUnits="userSpaceOnUse" x2="0" y1="47" y2="1">
    <stop offset="0" stop-color="#f4b36f"/>
    <stop offset="1" stop-color="#f5bd83"/>
  </linearGradient>
  <path d="m24 1c22.703 0 23 .297 23 23 0 22.703-.297 23-23 23-22.703 0-23-.297-23-23 0-22.703.297-23 23-23z" fill="url(#a)"/>
  <path d="m25 10c-.69 0-1.25.492-1.25 1.1 0 .391.237.752.621.949-1.941.29-3.37 1.859-3.371 3.701.002 1.463.912 2.792 2.33 3.402-2.364.41-4.593 1.661-6.152 3.422-.081-.337-.382-.574-.729-.574-.414 0-.75.336-.75.75 0 .414.336.75.75.75h.004c-.867 1.265-1.399 2.725-1.445 4.291-.278-.487-.819-.79-1.408-.791-.884 0-1.6.672-1.6 1.5 0 .828.716 1.5 1.6 1.5.619 0 1.182-.336 1.445-.861.184 2.132.888 3.741 1.939 4.861-.546.008-.984.454-.984 1 0 .552.448 1 1 1 .552 0 1-.448 1-1 0-.048-.003-.095 0-.143 1.134.768 2.514 1.143 4.01 1.143 1.068 0 2.238-1.314 3-2.5.762 1.186 1.932 2.5 3 2.5 1.497 0 2.877-.374 4.01-1.143-.007.047-.011.095-.012.143 0 .552.448 1 1 1 .552 0 1-.448 1-1 0-.546-.438-.991-.984-1 1.051-1.12 1.756-2.729 1.939-4.861.264.525.826.86 1.445.861.884 0 1.6-.672 1.6-1.5 0-.828-.716-1.5-1.6-1.5-.588 0-1.129.303-1.408.789-.046-1.565-.579-3.02-1.445-4.289.561-.105.575-.485.754-.75 0-.414-.336-.75-.75-.75-.346 0-.647.238-.729.574-1.56-1.761-3.789-3.01-6.152-3.422 1.418-.611 2.328-1.939 2.33-3.402-.003-1.843-1.433-3.411-3.375-3.699.386-.196.624-.559.625-.951 0-.607-.56-1.1-1.25-1.1" fill-opacity=".098"/>
  <g fill="#4d4d4d" transform="translate(-.00000036 -.9999997)">
    <path d="m24 19c-5 0-10 4-10.01 9 0 5.504 3.118 8 7.01 8 1.068 0 2.238-1.314 3-2.5.762 1.186 1.932 2.5 3 2.5 3.888 0 7.01-2.496 7.01-8-.006-5-5.01-9-10.01-9"/>
    <ellipse cx="450" cy="363.98" rx="31.731" ry="28.981" transform="matrix(.03939394 0 0 .0379562 6.2727272 -2.715324)"/>
    <ellipse cx="232.96" cy="670.91" rx="19.04" ry="19.76" transform="matrix(.03939394 0 0 .0379562 6.2727272 -2.715324)"/>
    <ellipse cx="667.04" cy="670.91" rx="19.04" ry="19.76" transform="matrix(.03939394 0 0 .0379562 6.2727272 -2.715324)"/>
    <ellipse cx="12.6" cy="28.5" rx="1.6" ry="1.5"/>
    <ellipse cx="35.4" cy="28.5" rx="1.6" ry="1.5"/>
    <circle cx="16" cy="35" r="1"/>
    <circle cx="32" cy="35" r="1"/>
    <ellipse cx="24" cy="15.75" rx="4" ry="3.75"/>
  </g>
</svg>
