<svg xmlns="http://www.w3.org/2000/svg" viewBox="0 0 48 48">
 <defs>
  <linearGradient id="linearGradient3845" y1="47" x2="0" y2="1" gradientUnits="userSpaceOnUse">
   <stop style="stop-color:#f4b36f;stop-opacity:1"/>
   <stop offset="1" style="stop-color:#f5bd83;stop-opacity:1"/>
  </linearGradient>
 </defs>
 <g>
  
  
  
 </g>
 <g>
  <path d="m 24 1 c 22.703 0 23 0.297 23 23 c 0 22.703 -0.297 23 -23 23 -22.703 0 -23 -0.297 -23 -23 0 -22.703 0.297 -23 23 -23 z" style="fill:url(#linearGradient3845);fill-opacity:1"/>
 </g>
 <g>
  
 </g>
 <path d="m 25 10 c -0.69 0 -1.25 0.492 -1.25 1.1 0 0.391 0.237 0.752 0.621 0.949 -1.941 0.29 -3.37 1.859 -3.371 3.701 0.002 1.463 0.912 2.792 2.33 3.402 -2.364 0.41 -4.593 1.661 -6.152 3.422 c -0.081 -0.337 -0.382 -0.574 -0.729 -0.574 c -0.414 0 -0.75 0.336 -0.75 0.75 0 0.414 0.336 0.75 0.75 0.75 l 0.004 0 c -0.867 1.265 -1.399 2.725 -1.445 4.291 -0.278 -0.487 -0.819 -0.79 -1.408 -0.791 c -0.884 0 -1.6 0.672 -1.6 1.5 0 0.828 0.716 1.5 1.6 1.5 0.619 0 1.182 -0.336 1.445 -0.861 0.184 2.132 0.888 3.741 1.939 4.861 -0.546 0.008 -0.984 0.454 -0.984 1 0 0.552 0.448 1 1 1 0.552 0 1 -0.448 1 -1 0 -0.048 -0.003 -0.095 0 -0.143 c 1.134 0.768 2.514 1.143 4.01 1.143 c 1.068 0 2.238 -1.314 3 -2.5 0.762 1.186 1.932 2.5 3 2.5 1.497 0 2.877 -0.374 4.01 -1.143 -0.007 0.047 -0.011 0.095 -0.012 0.143 0 0.552 0.448 1 1 1 0.552 0 1 -0.448 1 -1 0 -0.546 -0.438 -0.991 -0.984 -1 1.051 -1.12 1.756 -2.729 1.939 -4.861 0.264 0.525 0.826 0.86 1.445 0.861 0.884 0 1.6 -0.672 1.6 -1.5 0 -0.828 -0.716 -1.5 -1.6 -1.5 -0.588 0 -1.129 0.303 -1.408 0.789 -0.046 -1.565 -0.579 -3.02 -1.445 -4.289 0.561 -0.105 0.575 -0.485 0.754 -0.75 0 -0.414 -0.336 -0.75 -0.75 -0.75 -0.346 0 -0.647 0.238 -0.729 0.574 -1.56 -1.761 -3.789 -3.01 -6.152 -3.422 1.418 -0.611 2.328 -1.939 2.33 -3.402 -0.003 -1.843 -1.433 -3.411 -3.375 -3.699 0.386 -0.196 0.624 -0.559 0.625 -0.951 c 0 -0.607 -0.56 -1.1 -1.25 -1.1" style="fill:#000;fill-opacity:0.098;stroke:none"/>
 <g transform="translate(-3.5762787e-7,-0.9999997)" style="fill:#4d4d4d;fill-opacity:1">
  <path d="m 24 19 c -5 0 -10 4 -10.01 9 0 5.504 3.118 8 7.01 8 1.068 0 2.238 -1.314 3 -2.5 0.762 1.186 1.932 2.5 3 2.5 3.888 0 7.01 -2.496 7.01 -8 c -0.006 -5 -5.01 -9 -10.01 -9" style="stroke:none"/>
  <ellipse cx="450" cy="363.98" rx="31.731" ry="28.981" transform="matrix(0.03939394,0,0,0.0379562,6.2727272,-2.715324)" style="stroke:none"/>
  <ellipse ry="19.76" rx="19.04" cx="232.96" cy="670.91" transform="matrix(0.03939394,0,0,0.0379562,6.2727272,-2.715324)" style="stroke:none"/>
  <ellipse cy="670.91" cx="667.04" rx="19.04" ry="19.76" transform="matrix(0.03939394,0,0,0.0379562,6.2727272,-2.715324)" style="stroke:none"/>
  <ellipse ry="1.5" rx="1.6" cy="28.5" cx="12.6"/>
  <ellipse ry="1.5" rx="1.6" cy="28.5" cx="35.4"/>
  <circle r="1" cy="35" cx="16"/>
  <circle r="1" cy="35" cx="32"/>
  <ellipse ry="3.75" rx="4" cy="15.75" cx="24"/>
 </g>
</svg>
