<svg xmlns="http://www.w3.org/2000/svg" viewBox="0 0 48 48">
 <defs>
  <linearGradient id="linearGradient3764" x1="1" x2="47" gradientUnits="userSpaceOnUse" gradientTransform="matrix(0,-1,1,0,-1.5e-6,47.999998)">
   <stop style="stop-color:#e4e4e4;stop-opacity:1"/>
   <stop offset="1" style="stop-color:#eee;stop-opacity:1"/>
  </linearGradient>
 </defs>
 <g>
  
  
  
 </g>
 <g>
  <path d="m 47,24 C 47,46.703 46.703,47 24,47 1.297,47 1,46.703 1,24 1,1.297 1.297,1 24,1 46.703,1 47,1.297 47,24 z" style="fill:url(#linearGradient3764);fill-opacity:1"/>
 </g>
 <g>
  
 </g>
 <g transform="translate(1,0.99999999)" style="fill:#000;fill-opacity:0.11">
  <path transform="translate(1,0)" d="m 11 13 0 20 4 0 0 -8 3 0 0 -3 -3 0 0 -4 7 0 0 -5 z"/>
  <path d="m 24.514 15.973 c -0.109 0.021 -0.158 0.123 -0.158 0.234 l 0 3.404 a 7 7 0 0 0 -0.934 0.621 l -3.138 -1.33 c -0.102 -0.043 -0.216 -0.038 -0.278 0.054 l -1.453 2.155 c -0.062 0.092 -0.024 0.2 0.054 0.278 l 2.404 2.406 a 7 7 0 0 0 -0.216 1.1 l -3.162 1.277 c -0.103 0.042 -0.179 0.125 -0.158 0.234 l 0.496 2.554 c 0.021 0.109 0.123 0.158 0.234 0.158 l 3.404 0 a 7 7 0 0 0 0.621 0.934 l -1.33 3.138 c -0.043 0.102 -0.038 0.216 0.054 0.278 l 2.155 1.453 c 0.092 0.062 0.2 0.024 0.278 -0.054 l 2.406 -2.404 a 7 7 0 0 0 1.1 0.216 l 1.277 3.162 c 0.042 0.103 0.125 0.179 0.234 0.158 l 2.554 -0.496 c 0.109 -0.021 0.158 -0.123 0.158 -0.234 l 0 -3.404 a 7 7 0 0 0 0.934 -0.621 l 3.138 1.33 c 0.102 0.043 0.216 0.038 0.278 -0.054 l 1.453 -2.155 c 0.062 -0.092 0.024 -0.2 -0.054 -0.278 l -2.404 -2.406 a 7 7 0 0 0 0.216 -1.1 l 3.162 -1.277 c 0.103 -0.042 0.179 -0.125 0.158 -0.234 l -0.496 -2.554 c -0.021 -0.109 -0.123 -0.158 -0.234 -0.158 l -3.404 0 a 7 7 0 0 0 -0.621 -0.934 l 1.33 -3.138 c 0.043 -0.102 0.038 -0.216 -0.054 -0.278 l -2.155 -1.453 c -0.092 -0.062 -0.2 -0.024 -0.278 0.054 l -2.406 2.404 a 7 7 0 0 0 -1.1 -0.216 l -1.277 -3.162 c -0.042 -0.103 -0.125 -0.179 -0.234 -0.158 l -2.554 0.496 z m 2.651 6.819 a 3 3 0 0 1 3.517 2.372 3 3 0 0 1 -2.372 3.517 3 3 0 0 1 -3.517 -2.372 3 3 0 0 1 2.372 -3.517 z" style="stroke:none"/>
 </g>
 <g>
  <path d="m 11 13 0 20 4 0 0 -8 3 0 0 -3 -3 0 0 -4 7 0 0 -5 z" transform="translate(1,0)" style="fill:#cd5c2a;fill-opacity:1"/>
  <path d="m 24.514 15.973 c -0.109 0.021 -0.158 0.123 -0.158 0.234 l 0 3.404 a 7 7 0 0 0 -0.934 0.621 l -3.138 -1.33 c -0.102 -0.043 -0.216 -0.038 -0.278 0.054 l -1.453 2.155 c -0.062 0.092 -0.024 0.2 0.054 0.278 l 2.404 2.406 a 7 7 0 0 0 -0.216 1.1 l -3.162 1.277 c -0.103 0.042 -0.179 0.125 -0.158 0.234 l 0.496 2.554 c 0.021 0.109 0.123 0.158 0.234 0.158 l 3.404 0 a 7 7 0 0 0 0.621 0.934 l -1.33 3.138 c -0.043 0.102 -0.038 0.216 0.054 0.278 l 2.155 1.453 c 0.092 0.062 0.2 0.024 0.278 -0.054 l 2.406 -2.404 a 7 7 0 0 0 1.1 0.216 l 1.277 3.162 c 0.042 0.103 0.125 0.179 0.234 0.158 l 2.554 -0.496 c 0.109 -0.021 0.158 -0.123 0.158 -0.234 l 0 -3.404 a 7 7 0 0 0 0.934 -0.621 l 3.138 1.33 c 0.102 0.043 0.216 0.038 0.278 -0.054 l 1.453 -2.155 c 0.062 -0.092 0.024 -0.2 -0.054 -0.278 l -2.404 -2.406 a 7 7 0 0 0 0.216 -1.1 l 3.162 -1.277 c 0.103 -0.042 0.179 -0.125 0.158 -0.234 l -0.496 -2.554 c -0.021 -0.109 -0.123 -0.158 -0.234 -0.158 l -3.404 0 a 7 7 0 0 0 -0.621 -0.934 l 1.33 -3.138 c 0.043 -0.102 0.038 -0.216 -0.054 -0.278 l -2.155 -1.453 c -0.092 -0.062 -0.2 -0.024 -0.278 0.054 l -2.406 2.404 a 7 7 0 0 0 -1.1 -0.216 l -1.277 -3.162 c -0.042 -0.103 -0.125 -0.179 -0.234 -0.158 l -2.554 0.496 z m 2.651 6.819 a 3 3 0 0 1 3.517 2.372 3 3 0 0 1 -2.372 3.517 3 3 0 0 1 -3.517 -2.372 3 3 0 0 1 2.372 -3.517 z" style="fill:#3b6dbb;fill-opacity:1;stroke:none"/>
 </g>
</svg>
