<svg viewBox="0 0 48 48" xmlns="http://www.w3.org/2000/svg" xmlns:xlink="http://www.w3.org/1999/xlink">
  <linearGradient id="a" gradientTransform="matrix(0 -1 1 0 -.0000015 47.999998)" gradientUnits="userSpaceOnUse" x1="1" x2="47">
    <stop offset="0" stop-color="#3d3d3d"/>
    <stop offset="1" stop-color="#474747"/>
  </linearGradient>
  <path d="m47 24c0 22.703-.297 23-23 23-22.703 0-23-.297-23-23 0-22.703.297-23 23-23 22.703 0 23 .297 23 23z" fill="url(#a)"/>
  <path d="m14.434 17.01c-2.9.117-1.202 5.081 3.324 10.04-3.185 6.984 4.832 7.822 6.811 2.521.126.854.28 1.452.436 1.439.152-.013.303-.598.428-1.43 1.985 5.291 9.991 4.449 6.809-2.531 7.156-7.848 7.215-15.661-6.758-4.355-.035-.155-.074-.296-.119-.418.941-.688 1.064-1.371.148-1.545.551-2.43 3.143-3.148 3.143-3.148a.076.076 0 0 0-.027-.148.076.076 0 0 0-.012.002c0 0-2.69.746-3.254 3.275-.111-.013-.222-.025-.357-.025-.139 0-.253.013-.365.027-.563-2.531-3.254-3.277-3.254-3.277a.076.076 0 0 0-.031-.002.076.076 0 0 0-.01.148c0 0 2.595.719 3.145 3.15-.906.177-.782.857.152 1.543-.045.123-.086.265-.121.422-5.137-4.157-8.401-5.761-10.09-5.693z" fill-rule="evenodd" opacity=".1" transform=""/>
  <path d="m31.24 26.05c3.621 7.941-7.242 7.941-7.242 0 0 0 0 0 0-3.973 14.484-11.91 14.484-3.969 7.242 3.973m0 0" fill="#f9b928" fill-rule="evenodd"/>
  <path d="m24.363 21.277c.727 1.984.176 8.688-.359 8.734-.535.043-1.086-6.75-.363-8.734-1.086-.797-1.086-1.59.363-1.59 1.449 0 1.449.793.359 1.59m0 0" fill="#f9b928" fill-rule="evenodd"/>
  <path d="m16.758 26.05c-3.621 7.941 7.242 7.941 7.242 0 0 0 0 0 0-3.973-14.484-11.91-14.484-3.969-7.242 3.973m0 0" fill="#f9b928" fill-rule="evenodd"/>
  <path d="m-43.37 149.81c.363-2.777 3.27-3.574 3.27-3.574" fill="none" stroke="#f9b928" stroke-linecap="round" stroke-width=".152" transform="translate(67.734998 -129.724261)"/>
  <path d="m-44.1 149.81c-.363-2.777-3.27-3.574-3.27-3.574" fill="none" stroke="#f9b928" stroke-linecap="round" stroke-width=".152" transform="translate(67.734998 -129.724261)"/>
</svg>
