<svg viewBox="0 0 48 48" xmlns="http://www.w3.org/2000/svg" xmlns:xlink="http://www.w3.org/1999/xlink">
  <linearGradient id="a" gradientTransform="matrix(0 -1 1 0 -.0000015 47.999998)" gradientUnits="userSpaceOnUse" x1="1" x2="47">
    <stop offset="0" stop-color="#8dbbeb"/>
    <stop offset="1" stop-color="#9ec5ee"/>
  </linearGradient>
  <path d="m47 24c0 22.703-.297 23-23 23-22.703 0-23-.297-23-23 0-22.703.297-23 23-23 22.703 0 23 .297 23 23z" fill="url(#a)"/>
  <g fill-rule="evenodd" transform="translate(.00022291 -.00000145)">
    <path d="m25 11l-12 7v14l12 7 12-7v-14z" opacity=".1" transform="matrix(1.00000003 0 0 1.00000004 0 -.00000004)"/>
    <g transform="matrix(.97764644 0 0 .98777777 -1.8564059 -5.913333)">
      <path d="m14.173 23.2l12.275 21.257 12.273-21.257-12.273-7.09" fill="#488539"/>
      <path d="m14.173 23.2v3.543l12.274 7.09.001-3.547z" fill="#59a849"/>
      <path d="m26.448 33.827l12.274-7.087v-3.543l-12.274 7.086z" fill="#3e7231"/>
      <path d="m14.173 26.74v10.63l12.274 7.087v-10.63z" fill="#8f6447"/>
      <path d="m26.448 33.827l12.274-7.087v10.63l-12.274 7.087z" fill="#573d2b"/>
    </g>
  </g>
</svg>
