<svg viewBox="0 0 48 48" xmlns="http://www.w3.org/2000/svg" xmlns:xlink="http://www.w3.org/1999/xlink">
  <linearGradient id="a" gradientTransform="matrix(0 -1 1 0 -.0000015 47.999998)" gradientUnits="userSpaceOnUse" x1="1" x2="47">
    <stop offset="0" stop-color="#554c92"/>
    <stop offset="1" stop-color="#5d539f"/>
  </linearGradient>
  <path d="m47 24c0 22.703-.297 23-23 23-22.703 0-23-.297-23-23 0-22.703.297-23 23-23 22.703 0 23 .297 23 23z" fill="url(#a)"/>
  <g fill-rule="evenodd" transform="translate(0 2)">
    <path d="m37 10l-10.72 5.04 4 2.268-5.954 9.173-7.329-4.285-4 13.8 5.9-8.1 6.794 3.827 7.645-12.379 3.661 2.14" opacity=".1"/>
    <path d="m36 9l-10.72 5.04 4 2.268-5.954 9.173-7.329-4.285-4 13.8 5.9-8.1 6.794 3.827 7.645-12.379 3.661 2.14" fill="#ef7979"/>
  </g>
</svg>
