<svg xmlns="http://www.w3.org/2000/svg" viewBox="0 0 48 48">
 <defs>
  <linearGradient id="linearGradient3764" x1="1" x2="47" gradientUnits="userSpaceOnUse" gradientTransform="matrix(0,-1,1,0,-1.5e-6,47.999998)">
   <stop style="stop-color:#e4e4e4;stop-opacity:1"/>
   <stop offset="1" style="stop-color:#eee;stop-opacity:1"/>
  </linearGradient>
 </defs>
 <g>
  
  
  
 </g>
 <g>
  <path d="m 47,24 C 47,46.703 46.703,47 24,47 1.297,47 1,46.703 1,24 1,1.297 1.297,1 24,1 46.703,1 47,1.297 47,24 z" style="fill:url(#linearGradient3764);fill-opacity:1"/>
 </g>
 <g>
  <g>
   <g transform="translate(1,1)">
    <g style="opacity:0.1">
     <!-- color: #eeeeee -->
     <g>
      <path d="m 12 12 l 0 11 l 6 0 l 0 2 l -6 0 l 0 11 l 11 0 l 0 -6 l 2 0 l 0 6 l 11 0 l 0 -11 l -6 0 l 0 -2 l 6 0 l 0 -11 l -11 0 l 0 6 l -2 0 l 0 -6 m -11 0" style="fill:#000;fill-opacity:1;stroke:none;fill-rule:nonzero"/>
     </g>
    </g>
   </g>
  </g>
 </g>
 <g>
  <g>
   <!-- color: #eeeeee -->
   <g>
    <path d="m 12 12 0 11 6 0 0 2 -6 0 0 11 11 0 0 -6 2 0 0 6 11 0 0 -11 -6 0 0 -2 6 0 0 -11 -11 0 0 6 -2 0 0 -6 m -11 0" style="fill:#f4de67;fill-opacity:1;stroke:none;fill-rule:nonzero"/>
    <path d="m 13 35 0 -9 6 0 0 -4 -6 0 0 -9 9 0 0 6 4 0 0 -6 9 0 0 9 -6 0 0 4 6 0 0 9 -9 0 0 -6 -4 0 0 6 m -9 0" style="fill:#ff4c4c;fill-opacity:1;stroke:none;fill-rule:nonzero"/>
    <path d="m 14 14 0 7 6 0 0 6 -6 0 0 7 7 0 0 -6 6 0 0 6 7 0 0 -7 -6 0 0 -6 6 0 0 -7 -7 0 0 6 -6 0 0 -6 m -7 0" style="fill:#f4de67;fill-opacity:1;stroke:none;fill-rule:nonzero"/>
    <path d="m 15 28 5 0 0 5 -5 0 m 0 -5" style="fill:#ff4c4c;fill-opacity:1;stroke:none;fill-rule:nonzero"/>
    <path d="m 28 28 5 0 0 5 -5 0 m 0 -5" style="fill:#ff4c4c;fill-opacity:1;stroke:none;fill-rule:nonzero"/>
    <path d="m 28 15 5 0 0 5 -5 0 m 0 -5" style="fill:#ff4c4c;fill-opacity:1;stroke:none;fill-rule:nonzero"/>
    <path d="m 15 15 5 0 0 5 -5 0 m 0 -5" style="fill:#ff4c4c;fill-opacity:1;stroke:none;fill-rule:nonzero"/>
    <path d="m 21 21 6 0 0 6 -6 0 m 0 -6" style="fill:#ff4c4c;fill-opacity:1;stroke:none;fill-rule:nonzero"/>
   </g>
  </g>
 </g>
 <g>
  
 </g>
</svg>
