<svg xmlns="http://www.w3.org/2000/svg" xmlns:xlink="http://www.w3.org/1999/xlink" viewBox="0 0 48 48">
 <defs>
  <linearGradient id="linearGradient4684">
   <stop style="stop-color:#b18fb6;stop-opacity:1"/>
   <stop offset="1" style="stop-color:#75507b;stop-opacity:1"/>
  </linearGradient>
  <linearGradient id="linearGradient3764" x1="1" x2="47" gradientUnits="userSpaceOnUse" gradientTransform="matrix(0,-1,1,0,-1.5e-6,47.999998)">
   <stop style="stop-color:#e8e8e8;stop-opacity:1"/>
   <stop offset="1" style="stop-color:#f2f2f2;stop-opacity:1"/>
  </linearGradient>
  <radialGradient id="radialGradient4659" cx="24" cy="22.5" r="5" gradientTransform="matrix(1,0,0,2.1,0,-24.75)" gradientUnits="userSpaceOnUse">
   <stop style="stop-color:#73df1b;stop-opacity:1"/>
   <stop offset="1" style="stop-color:#66c618;stop-opacity:1"/>
  </radialGradient>
  <radialGradient xlink:href="#linearGradient4684" id="radialGradient4690" cx="20.75" cy="15.25" r="1.5" gradientUnits="userSpaceOnUse"/>
  <radialGradient xlink:href="#linearGradient4684" id="radialGradient4694" gradientUnits="userSpaceOnUse" cx="20.75" cy="15.25" r="1.5" gradientTransform="translate(6.4999981,0)"/>
 </defs>
 <g>
  
  
  
 </g>
 <g>
  <path d="m 47,24 C 47,46.703 46.703,47 24,47 1.297,47 1,46.703 1,24 1,1.297 1.297,1 24,1 46.703,1 47,1.297 47,24 z" style="fill:url(#linearGradient3764);fill-opacity:1"/>
 </g>
 <g>
  
 </g>
 <g>
  <g transform="translate(0,1)">
   <g>
    <path d="m 16.5 12 c -0.831 0 -1.5 0.669 -1.5 1.5 l 0 1.5 -1.5 0 c -0.831 0 -1.5 0.669 -1.5 1.5 0 0.831 0.669 1.5 1.5 1.5 l 1.5 0 0 3 c 0 0.554 0.446 1 1 1 l 4 0 0 3 -4 0 c -0.554 0 -1 0.446 -1 1 l 0 4 -1.5 0 c -0.831 0 -1.5 0.669 -1.5 1.5 0 0.831 0.669 1.5 1.5 1.5 l 1.5 0 0 1.5 c 0 0.831 0.669 1.5 1.5 1.5 0.831 0 1.5 -0.669 1.5 -1.5 l 0 -5.5 2 0 0 1 c 0 2.216 1.784 4 4 4 l 2 0 c 2.216 0 4 -1.784 4 -4 l 0 -1 2 0 0 5.5 c 0 0.831 0.669 1.5 1.5 1.5 0.831 0 1.5 -0.669 1.5 -1.5 l 0 -1.5 1.5 0 c 0.831 0 1.5 -0.669 1.5 -1.5 0 -0.831 -0.669 -1.5 -1.5 -1.5 l -1.5 0 0 -4 c 0 -0.554 -0.446 -1 -1 -1 l -4 0 0 -3 4 0 c 0.554 0 1 -0.446 1 -1 l 0 -3 1.5 0 c 0.831 0 1.5 -0.669 1.5 -1.5 0 -0.831 -0.669 -1.5 -1.5 -1.5 l -1.5 0 0 -1.5 c 0 -0.831 -0.669 -1.5 -1.5 -1.5 -0.831 0 -1.5 0.669 -1.5 1.5 l 0 5.5 -2 0 0 -1.631 a 2.75 2.75 0 0 0 1 -2.119 2.75 2.75 0 0 0 -2.75 -2.75 2.75 2.75 0 0 0 -1.658 0.559 c -0.194 -0.029 -0.389 -0.059 -0.592 -0.059 l -2 0 c -0.203 0 -0.399 0.03 -0.594 0.059 a 2.75 2.75 0 0 0 -1.656 -0.559 2.75 2.75 0 0 0 -2.75 2.75 2.75 2.75 0 0 0 1 2.119 l 0 1.631 -2 0 0 -5.5 c 0 -0.831 -0.669 -1.5 -1.5 -1.5" style="fill:#000;fill-opacity:0.098;stroke:none"/>
    <path d="m 15.5 11 c -0.831 0 -1.5 0.669 -1.5 1.5 l 0 1.5 -1.5 0 c -0.831 0 -1.5 0.669 -1.5 1.5 0 0.831 0.669 1.5 1.5 1.5 l 1.5 0 0 3 c 0 0.554 0.446 1 1 1 2 0 4 0 6 0 0.554 0 1 -0.446 1 -1 l 0 -1 c 0 -0.554 -0.446 -1 -1 -1 l -4 0 c 0 -1.833 0 -3.667 0 -5.5 c 0 -0.831 -0.669 -1.5 -1.5 -1.5" style="fill:#66c618;fill-opacity:1;stroke:none"/>
    <path d="m 32.5 11 c 0.831 0 1.5 0.669 1.5 1.5 l 0 1.5 1.5 0 c 0.831 0 1.5 0.669 1.5 1.5 0 0.831 -0.669 1.5 -1.5 1.5 l -1.5 0 0 3 c 0 0.554 -0.446 1 -1 1 -2 0 -4 0 -6 0 -0.554 0 -1 -0.446 -1 -1 l 0 -1 c 0 -0.554 0.446 -1 1 -1 l 4 0 c 0 -1.833 0 -3.667 0 -5.5 0 -0.831 0.669 -1.5 1.5 -1.5 z" style="fill:#66c618;fill-opacity:1;stroke:none"/>
    <path d="m 32.5,35 c 0.831,0 1.5,-0.669 1.5,-1.5 l 0,-1.5 1.5,0 C 36.331,32 37,31.331 37,30.5 37,29.669 36.331,29 35.5,29 l -1.5,0 0,-4 c 0,-0.554 -0.446,-1 -1,-1 l -6,0 c -0.554,0 -1,0.446 -1,1 l 0,2 c 0,0.554 0.446,1 1,1 l 4,0 0,5.5 c 0,0.831 0.669,1.5 1.5,1.5 z" style="fill:#66c618;fill-opacity:1;stroke:none"/>
    <path d="M 15.5,35 C 14.669,35 14,34.331 14,33.5 L 14,32 12.5,32 C 11.669,32 11,31.331 11,30.5 11,29.669 11.669,29 12.5,29 l 1.5,0 0,-4 c 0,-0.554 0.446,-1 1,-1 l 6,0 c 0.554,0 1,0.446 1,1 l 0,2 c 0,0.554 -0.446,1 -1,1 l -4,0 0,5.5 c 0,0.831 -0.669,1.5 -1.5,1.5 z" style="fill:#66c618;fill-opacity:1;stroke:none"/>
    <rect rx="4" y="12" x="19" height="21" width="10" style="fill:url(#radialGradient4659);fill-opacity:1;stroke:none;fill-rule:evenodd"/>
    <circle r="2.75" cy="14.25" cx="20.75" style="fill:#805787;fill-opacity:1;stroke:none"/>
    <circle r="2.75" cy="14.25" cx="27.25" style="fill:#805787;fill-opacity:1;stroke:none"/>
   </g>
   <g>
    <circle r="1" cy="20" cx="24" style="fill:#509311;fill-opacity:1;stroke:none"/>
    <circle r="1" cy="23" cx="24" style="fill:#509311;fill-opacity:1;stroke:none"/>
    <circle r="1" cy="29" cx="24" style="fill:#509311;fill-opacity:1;stroke:none"/>
    <circle r="1" cy="26" cx="24" style="fill:#509311;fill-opacity:1;stroke:none"/>
    <g>
     <path d="m 28 19 c 0 1.25 -1.25 2.5 -2.5 2.5 0 -1.632 2.098 -1.671 2.5 -2.5 z" style="fill:#509311;fill-opacity:1;stroke:none"/>
     <path d="m 28 22 c 0 1.25 -1.25 2.5 -2.5 2.5 0 -1.632 2.098 -1.671 2.5 -2.5 z" style="fill:#509311;fill-opacity:1;stroke:none"/>
     <path d="m 28 25 c 0 1.25 -1.25 2.5 -2.5 2.5 0 -1.632 2.098 -1.671 2.5 -2.5 z" style="fill:#509311;fill-opacity:1;stroke:none"/>
    </g>
    <g transform="matrix(-1,0,0,1,48,0)">
     <path d="m 28 19 c 0 1.25 -1.25 2.5 -2.5 2.5 0 -1.632 2.098 -1.671 2.5 -2.5 z" style="fill:#509311;fill-opacity:1;stroke:none"/>
     <path d="m 28 22 c 0 1.25 -1.25 2.5 -2.5 2.5 0 -1.632 2.098 -1.671 2.5 -2.5 z" style="fill:#509311;fill-opacity:1;stroke:none"/>
     <path d="m 28 25 c 0 1.25 -1.25 2.5 -2.5 2.5 0 -1.632 2.098 -1.671 2.5 -2.5 z" style="fill:#509311;fill-opacity:1;stroke:none"/>
    </g>
   </g>
  </g>
  <circle r="2" cy="15.25" cx="20.75" style="fill:#e6e6e6;fill-opacity:1;stroke:none"/>
  <circle cx="27.25" cy="15.25" r="2" style="fill:#e6e6e6;fill-opacity:1;stroke:none"/>
  <circle r="1.5" cy="15.25" cx="20.75" style="fill:url(#radialGradient4690);fill-opacity:1;stroke:none"/>
  <circle cx="27.25" cy="15.25" r="1.5" style="fill:url(#radialGradient4694);fill-opacity:1;stroke:none"/>
 </g>
</svg>
