<svg viewBox="0 0 48 48" xmlns="http://www.w3.org/2000/svg" xmlns:xlink="http://www.w3.org/1999/xlink">
  <linearGradient id="a" gradientTransform="matrix(0 -1 1 0 -.0000015 47.999998)" gradientUnits="userSpaceOnUse" x1="1" x2="47">
    <stop offset="0" stop-color="#3d3d3d"/>
    <stop offset="1" stop-color="#474747"/>
  </linearGradient>
  <path d="m47 24c0 22.703-.297 23-23 23-22.703 0-23-.297-23-23 0-22.703.297-23 23-23 22.703 0 23 .297 23 23z" fill="url(#a)"/>
  <path d="m24.36 12.208c-.741.251-1.369.713-1.862 1.266-.192.217-.334.404-.464.533-.124.119-.226.171-.27.18h-.007c-.084.018-.156.019-.291-.021h-.007l-.007-.007c-.297-.081-.616-.286-.997-.554-.385-.271-.841-.596-1.426-.782-.778-.242-1.599-.142-2.305.173h-.007c-.688.318-1.243.827-1.654 1.412-.821 1.161-1.075 2.535-1.239 3.765-.155 1.126-.287 2.37.062 3.619.091.347.204.649.277.9.075.255.112.48.111.678-.026.345-.241.752-.567 1.163v.007l-.007.007c-.321.422-.766.892-1.093 1.529l-.007.007v.007c-.494 1.019-.478 2.175-.159 3.19v.007c.431 1.318 1.317 2.317 2.125 3.218 1.023 1.146 2.212 1.698 3.377 2.284.497.229 1.016.444 1.557.623 2.786.935 5.806.682 8.547-.062.533-.128 1.141-.344 1.613-.498 1.708-.601 3.414-1.482 4.664-2.92.63-.72 1.14-1.57 1.419-2.519.27-.944.315-1.976.048-2.955-.179-.652-.484-1.231-.81-1.758v-.007c-.523-.836-1.16-1.626-1.965-2.27-.807-.645-1.768-1.125-2.824-1.301-.443-.084-.789-.103-1.01-.173h-.014l-.014-.007c-.193-.009-.259-.176-.388-.263-.038-.145.005-.269.007-.381.047-.19.147-.424.256-.72.549-1.499.515-3.153.007-4.637h-.007c-.183-.528-.426-1.068-.803-1.55l-.007-.007c-.382-.501-.888-.915-1.488-1.156h-.007c-.772-.307-1.619-.276-2.367-.021" opacity=".1" transform="translate(1 1)"/>
  <g transform="translate(.00011243)">
    <path d="m4.468 9.273c.219.132.448.252.681.359.137.063.277.122.42.169.733.246 1.545.182 2.293-.021.15-.04.298-.086.441-.137.463-.163.912-.398 1.231-.765.161-.184.288-.399.357-.634.067-.234.077-.488.013-.723-.043-.157-.118-.304-.204-.443-.139-.222-.305-.428-.509-.591-.204-.163-.446-.282-.704-.325-.104-.02-.212-.022-.313-.054-.051-.014-.097-.036-.14-.067-.043-.031-.079-.073-.101-.121-.033-.073-.03-.159-.012-.237.019-.078.052-.152.08-.228.137-.374.129-.795 0-1.172-.047-.136-.109-.268-.197-.38-.088-.116-.203-.208-.336-.261-.165-.066-.357-.062-.527-.004-.17.057-.319.166-.439.301-.047.053-.089.109-.139.159-.051.05-.11.093-.18.107-.062.013-.122.007-.183-.011-.128-.035-.237-.111-.345-.187-.108-.076-.219-.153-.345-.193-.164-.051-.346-.031-.505.04-.158.073-.289.191-.387.331-.198.28-.268.633-.313.971-.043.312-.074.635.011.939.022.085.054.169.078.252.025.085.043.172.041.26-.011.164-.101.313-.205.444-.099.13-.215.255-.29.401-.111.229-.11.505-.033.75.105.321.331.584.557.836.089.099.181.197.272.294" fill="#090" stroke="#452f58" stroke-width=".409" transform="scale(3.543307)"/>
    <path d="m28.02 21.297c-.656 1.426-1.723 2.367-2.941 2.367-1.078 0-2.027-.754-2.695-1.91-.605 2.41-2.109 4.113-3.883 4.113-1.23 0-2.328-.828-3.09-2.137-1.199 1.109-1.926 2.473-1.926 3.93 0 3.781 4.734 6.828 10.582 6.828 5.848 0 10.582-3.047 10.582-6.828 0-2.879-2.738-5.355-6.625-6.367m-.004.004" fill="#6c3"/>
    <path d="m14.751 19.407c0 3.203 1.684 5.781 3.75 5.781 1.965 0 3.563-2.336 3.719-5.313.477 1.727 1.59 2.938 2.875 2.938 1.555 0 2.809-1.754 3.03-4.063h-13.31" fill="#f9f9f9"/>
    <path d="m25.418 20.13c0 .746-.484 1.348-1.082 1.348-.598 0-1.082-.602-1.082-1.348 0-.746.484-1.352 1.082-1.352.598 0 1.082.605 1.082 1.352m0 0" fill="#705ba1"/>
    <path d="m25.09 13.215c-1.598 0-2.902 1.891-3.063 4.301-.508-2.273-1.875-3.91-3.512-3.91-1.914 0-3.472 2.272-3.695 5.144h13.31c.02-.234.074-.488.074-.73 0-2.652-1.402-4.805-3.113-4.805" fill="#6c3"/>
    <path d="m21.797 20.523c0 .746-.484 1.352-1.082 1.352-.598 0-1.082-.605-1.082-1.352 0-.746.484-1.348 1.082-1.348.598 0 1.082.602 1.082 1.348m0 0" fill="#705ba1"/>
    <path d="m42.86 13.195l2.947-2.586 3.234 3.521 3.525-3.165 3.238 3.887 4.315-3.887 3.164 2.374 2.301-2.299 2.73 1.981" fill="none" stroke="#452f58" transform="matrix(.791266 0 0 .735645 -19.855015 20.551191)"/>
  </g>
</svg>
