<svg viewBox="0 0 48 48" xmlns="http://www.w3.org/2000/svg" xmlns:xlink="http://www.w3.org/1999/xlink">
  <linearGradient id="a">
    <stop offset="0" stop-color="#b18fb6"/>
    <stop offset="1" stop-color="#75507b"/>
  </linearGradient>
  <linearGradient id="b" gradientTransform="matrix(0 -1 1 0 -.0000015 47.999998)" gradientUnits="userSpaceOnUse" x1="1" x2="47">
    <stop offset="0" stop-color="#e8e8e8"/>
    <stop offset="1" stop-color="#f2f2f2"/>
  </linearGradient>
  <radialGradient id="c" cx="24" cy="22.5" gradientTransform="matrix(1 0 0 2.1 0 -24.75)" gradientUnits="userSpaceOnUse" r="5">
    <stop offset="0" stop-color="#73df1b"/>
    <stop offset="1" stop-color="#66c618"/>
  </radialGradient>
  <radialGradient id="d" cx="20.75" cy="15.25" gradientUnits="userSpaceOnUse" r="1.5" xlink:href="#a"/>
  <radialGradient id="e" cx="27.2499981" cy="15.25" gradientUnits="userSpaceOnUse" r="1.5" xlink:href="#a"/>
  <path d="m47 24c0 22.703-.297 23-23 23-22.703 0-23-.297-23-23 0-22.703.297-23 23-23 22.703 0 23 .297 23 23z" fill="url(#b)"/>
  <g transform="translate(0 1)">
    <path d="m16.5 12c-.831 0-1.5.669-1.5 1.5v1.5h-1.5c-.831 0-1.5.669-1.5 1.5 0 .831.669 1.5 1.5 1.5h1.5v3c0 .554.446 1 1 1h4v3h-4c-.554 0-1 .446-1 1v4h-1.5c-.831 0-1.5.669-1.5 1.5 0 .831.669 1.5 1.5 1.5h1.5v1.5c0 .831.669 1.5 1.5 1.5.831 0 1.5-.669 1.5-1.5v-5.5h2v1c0 2.216 1.784 4 4 4h2c2.216 0 4-1.784 4-4v-1h2v5.5c0 .831.669 1.5 1.5 1.5.831 0 1.5-.669 1.5-1.5v-1.5h1.5c.831 0 1.5-.669 1.5-1.5 0-.831-.669-1.5-1.5-1.5h-1.5v-4c0-.554-.446-1-1-1h-4v-3h4c .554 0 1-.446 1-1v-3h1.5c.831 0 1.5-.669 1.5-1.5 0-.831-.669-1.5-1.5-1.5h-1.5v-1.5c0-.831-.669-1.5-1.5-1.5-.831 0-1.5.669-1.5 1.5v5.5h-2v-1.631a2.75 2.75 0 0 0 1-2.119 2.75 2.75 0 0 0-2.75-2.75 2.75 2.75 0 0 0-1.658.559c-.194-.029-.389-.059-.592-.059h-2c-.203 0-.399.03-.594.059a2.75 2.75 0 0 0-1.656-.559 2.75 2.75 0 0 0-2.75 2.75 2.75 2.75 0 0 0  1 2.119v1.631h-2v-5.5c0-.831-.669-1.5-1.5-1.5" fill-opacity=".098"/>
    <path d="m15.5 11c-.831 0-1.5.669-1.5 1.5v1.5h-1.5c-.831 0-1.5.669-1.5 1.5 0 .831.669 1.5 1.5 1.5h1.5v3c0 .554.446 1 1 1 2 0 4 0 6 0 .554 0 1-.446 1-1v-1c0-.554-.446-1-1-1h-4c0-1.833 0-3.667 0-5.5 0-.831-.669-1.5-1.5-1.5" fill="#66c618"/>
    <path d="m32.5 11c .831 0 1.5.669 1.5 1.5v1.5h1.5c.831 0 1.5.669 1.5 1.5 0 .831-.669 1.5-1.5 1.5h-1.5v3c0 .554-.446 1-1 1-2 0-4 0-6 0-.554 0-1-.446-1-1v-1c0-.554.446-1 1-1h4c0-1.833 0-3.667 0-5.5 0-.831.669-1.5 1.5-1.5z" fill="#66c618"/>
    <path d="m32.5 35c .831 0 1.5-.669 1.5-1.5v-1.5h1.5c.831 0 1.5-.669 1.5-1.5 0-.831-.669-1.5-1.5-1.5h-1.5v-4c0-.554-.446-1-1-1h-6c-.554 0-1 .446-1 1v2c0 .554.446 1 1 1h4v5.5c0 .831.669 1.5 1.5 1.5z" fill="#66c618"/>
    <path d="m15.5 35c-.831 0-1.5-.669-1.5-1.5v-1.5h-1.5c-.831 0-1.5-.669-1.5-1.5 0-.831.669-1.5 1.5-1.5h1.5v-4c0-.554.446-1 1-1h6c .554 0 1 .446 1 1v2c0 .554-.446 1-1 1h-4v5.5c0 .831-.669 1.5-1.5 1.5z" fill="#66c618"/>
    <rect fill="url(#c)" fill-rule="evenodd" height="21" rx="4" width="10" x="19" y="12"/>
    <circle cx="20.75" cy="14.25" fill="#805787" r="2.75"/>
    <circle cx="27.25" cy="14.25" fill="#805787" r="2.75"/>
    <circle cx="24" cy="20" fill="#509311" r="1"/>
    <circle cx="24" cy="23" fill="#509311" r="1"/>
    <circle cx="24" cy="29" fill="#509311" r="1"/>
    <circle cx="24" cy="26" fill="#509311" r="1"/>
    <path d="m28 19c0 1.25-1.25 2.5-2.5 2.5 0-1.632 2.098-1.671 2.5-2.5z" fill="#509311"/>
    <path d="m28 22c0 1.25-1.25 2.5-2.5 2.5 0-1.632 2.098-1.671 2.5-2.5z" fill="#509311"/>
    <path d="m28 25c0 1.25-1.25 2.5-2.5 2.5 0-1.632 2.098-1.671 2.5-2.5z" fill="#509311"/>
    <g fill="#509311" transform="matrix(-1 0 0 1 48 0)">
      <path d="m28 19c0 1.25-1.25 2.5-2.5 2.5 0-1.632 2.098-1.671 2.5-2.5z"/>
      <path d="m28 22c0 1.25-1.25 2.5-2.5 2.5 0-1.632 2.098-1.671 2.5-2.5z"/>
      <path d="m28 25c0 1.25-1.25 2.5-2.5 2.5 0-1.632 2.098-1.671 2.5-2.5z"/>
    </g>
  </g>
  <circle cx="20.75" cy="15.25" fill="#e6e6e6" r="2"/>
  <circle cx="27.25" cy="15.25" fill="#e6e6e6" r="2"/>
  <circle cx="20.75" cy="15.25" fill="url(#d)" r="1.5"/>
  <circle cx="27.25" cy="15.25" fill="url(#e)" r="1.5"/>
</svg>
