<svg viewBox="0 0 48 48" xmlns="http://www.w3.org/2000/svg" xmlns:xlink="http://www.w3.org/1999/xlink">
  <linearGradient id="a" gradientTransform="matrix(0 -1 1 0 -.0000015 47.999998)" gradientUnits="userSpaceOnUse" x1="1" x2="47">
    <stop offset="0" stop-color="#9ef2d1"/>
    <stop offset="1" stop-color="#b0f4d9"/>
  </linearGradient>
  <path d="m47 24c0 22.703-.297 23-23 23-22.703 0-23-.297-23-23 0-22.703.297-23 23-23 22.703 0 23 .297 23 23z" fill="url(#a)"/>
  <rect fill-opacity=".098" height="26" rx="1.5" width="26" x="12" y="12"/>
  <g transform="translate(0 -.00000141)">
    <path d="m37 15v20.5c0 .831-.669 1.5-1.5 1.5h-23c-.831 0-1.5-.669-1.5-1.5v-20.5c2-1 24-1 26 0z" fill="#214f5b"/>
    <path d="m12.5 11c-.831 0-1.5.669-1.5 1.5v2.5h26v-2.5c0-.831-.669-1.5-1.5-1.5z" fill="#969696" transform="translate(0 .00000141)"/>
  </g>
  <path d="m13 17v2h13v-2zm0 4v2h17v-2zm2 4v2h9v-2zm12 0v2h5v-2zm-14 6v2h15v-2z" fill="#92b2b2"/>
  <rect fill-opacity=".098" height="2" rx=".5" width="2" x="34" y="12"/>
  <path d="m35.45 12.25l-.45.45-.45-.45-.3.3.45.45-.45.45.3.3.45-.45.45.45.3-.3-.45-.45.45-.45z" fill="#4b4b4b" opacity=".98"/>
</svg>
