<svg xmlns="http://www.w3.org/2000/svg" viewBox="0 0 48 48">
 <defs>
  <linearGradient id="linearGradient3958" y1="48" x2="0" y2="0.135" gradientUnits="userSpaceOnUse">
   <stop style="stop-color:#cdd4db;stop-opacity:1"/>
   <stop offset="1" style="stop-color:#dadee2;stop-opacity:1"/>
  </linearGradient>
  <radialGradient id="radialGradient4193" cx="23" cy="26.05" r="8" gradientTransform="translate(1,-0.05108596)" gradientUnits="userSpaceOnUse">
   <stop style="stop-color:#7eaabc;stop-opacity:1"/>
   <stop offset="1" style="stop-color:#75a4b7;stop-opacity:1"/>
  </radialGradient>
 </defs>
 <g>
  
  
  
 </g>
 <g>
  <path d="m 24 1 c 22.703 0 23 0.297 23 23 c 0 22.703 -0.297 23 -23 23 -22.703 0 -23 -0.297 -23 -23 0 -22.703 0.297 -23 23 -23 z" style="fill:url(#linearGradient3958);fill-opacity:1"/>
 </g>
 <g>
  
 </g>
 <path d="m 25 9 c -0.8 0 -3 3.2 -3 5 0 0.554 0.446 1 1 1 l 1 0 0 4.068 c -3.945 0.493 -7 3.853 -7 7.932 c 0 1.073 0.224 2.114 0.625 3.074 c -0.367 0.148 -0.625 0.505 -0.625 0.926 l 0 5 c 0 1.108 0.892 2 2 2 l 12 0 c 1.108 0 2 -0.892 2 -2 l 0 -5 c 0 -0.421 -0.258 -0.778 -0.625 -0.926 0.401 -0.961 0.625 -2 0.625 -3.074 0 -4.079 -3.055 -7.439 -7 -7.932 l 0 -4.068 l 1 0 c 0.554 0 1 -0.446 1 -1 0 -1.8 -2.2 -5 -3 -5 z" style="fill:#000;opacity:0.1;fill-opacity:1;stroke:none"/>
 <path d="m 17 29 c -0.554 0 -1 0.446 -1 1 l 0 0.096 c 0 2.904 0.565 4.904 0.402 6.1 0.364 0.486 0.941 0.805 1.598 0.805 l 2 0 c 2 -1 3 -1 4 0 l 4 0 c 1.338 -2.33 4 -5 4 -7 0 -0.554 -0.446 -1 -1 -1 z" style="fill:#424242;opacity:1;fill-opacity:1;stroke:none"/>
 <path d="m 16 30.1 0 4.904 c 0 0.451 0.152 0.861 0.402 1.195 l 1.703 -3.406 c -0.875 -0.76 -1.585 -1.678 -2.105 -2.693 m 16 0.002 c -0.439 0.859 -1.017 1.647 -1.713 2.33 l -2.287 4.572 l 2 0 c 1.108 0 2 -0.892 2 -2 z m -8 1.902 c -0.57 0 -1.125 0.116 -1.652 0.303 l -2.348 4.697 l 4 0 2.225 -4.451 c -0.688 -0.344 -1.442 -0.549 -2.225 -0.549" style="fill:#e5e567;opacity:1;fill-opacity:1;stroke:none"/>
 <path d="m 24 8 c -0.8 0 -3 3.2 -3 5 0 0.554 0.446 1 1 1 l 1 0 0 5 2 0 0 -5 1 0 c 0.554 0 1 -0.446 1 -1 0 -1.8 -2.2 -5 -3 -5 z" style="fill:#c44c4c;opacity:1;fill-opacity:1;stroke:none"/>
 <path d="m 24 18 c -4.418 0 -8 3.582 -8 8 0.001 2.752 1.42 5.308 3.752 6.77 c 1.125 -1.131 2.653 -1.769 4.248 -1.77 c 1.597 -0.001 3.128 0.638 4.254 1.771 c 2.33 -1.463 3.746 -4.02 3.746 -6.771 c 0.001 -4.418 -3.582 -8 -8 -8 z" style="fill:url(#radialGradient4193);opacity:1;fill-opacity:1;stroke:none"/>
</svg>
