<svg viewBox="0 0 48 48" xmlns="http://www.w3.org/2000/svg" xmlns:xlink="http://www.w3.org/1999/xlink">
  <linearGradient id="a" gradientUnits="userSpaceOnUse" x2="0" y1="47" y2="1">
    <stop offset="0" stop-color="#575757"/>
    <stop offset="1" stop-color="#616161"/>
  </linearGradient>
  <path d="m47 24c0 22.703-.297 23-23 23-22.703 0-23-.297-23-23 0-22.703.297-23 23-23 22.703 0 23 .297 23 23z" fill="url(#a)"/>
  <g opacity=".1" transform="translate(1 1)">
    <path d="m24.785 8.998v.004h-.004v.008l-.84.014-1.418 1.344v.004l-.379 3.613-.566 5.418-2.496 3.336h-.766l-.691.637v.002l-.006 1.068c-1.18-.137-2.619.157-2.619.908v11.06.063c0 .153.06.286.156.404l-.039.008.188.145-.277.133.355.109-.086.152.465.055.117.152.488-.014.301.125.434-.072.434.072.297-.125.488.014.117-.156.461-.051-.09-.156.355-.109-.277-.133.184-.145-.09-.018c.09-.115.148-.243.148-.391h1.078l.65 1.256.041.084 1.609 1.16.891.02 1.074-1.102.309.002h.016l.383.002v-.002-.002l.305-.002 1.078 1.104.891-.02.002-.002h.002l1.609-1.16c0 0 .096-.193.102-.205l.586-1.133h1.078c0 .157.062.292.162.412l-.043.001.189.146-.277.133.355.104-.086.156.465.055.117.152.486-.012.303.125.434-.074.434.074.297-.125.492.012.113-.156.461-.051-.09-.156.354-.107-.275-.135.184-.145-.098-.02c.093-.117.152-.248.152-.398v-.063-11.06c0-.75-1.436-1.045-2.615-.908l-.006-1.07-.691-.637h-.766l-2.496-3.332-.945-9.04-1.418-1.344-.844-.016v-.004l-.092.002h-.001l-.293-.006z" transform="translate(-1 -1)"/>
    <path d="m23.434 36.891v-28.883h1.047v28.883m-1.047 0"/>
    <path d="m23.434 36.879v-28.879h1.051v28.879m-1.051 0"/>
  </g>
  <path d="m14 35.414v-11.06c0-1.27 4.129-1.27 4.129 0h-1.512l.008-1.977.691-.637h.766l2.496-3.332.945-9.04 1.418-1.344 1.238-.023v28.895l-.707-.004-1.074 1.105-.891-.02-1.609-1.164-.691-1.336h-1.078c0 1.336-4.129 1.336-4.129 0m0-.066" fill="#999"/>
  <path d="m33.961 35.414v-11.06c0-1.27-4.129-1.27-4.129 0h1.512l-.008-1.977-.691-.637h-.766l-2.496-3.332-.945-9.04-1.422-1.344-1.234-.023v28.895l.703-.004 1.078 1.105.891-.02 1.609-1.164.691-1.336h1.078c0 1.336 4.129 1.336 4.129 0m0-.066" fill="#999"/>
  <path d="m23.434 36.891v-28.883h1.047v28.883m-1.047 0" fill="#999"/>
  <path d="m32.773 35.488l.211.145.488.02.016.156.418.086-.184.145.277.133-.355.109.09.156-.461.051-.113.156-.492-.012-.297.125-.434-.074-.434.074-.301-.125-.488.012-.117-.152-.465-.055.086-.156-.355-.105.277-.133-.188-.145.418-.086.012-.156.484-.023.215-.141.469.043.375-.102.375.102m.473-.047" fill="#f60"/>
  <path d="m16.938 35.477l.211.145.488.02.016.16.418.082-.184.145.277.133-.355.109.09.156-.461.051-.117.156-.488-.012-.297.125-.434-.074-.434.074-.301-.125-.488.012-.117-.152-.465-.055.086-.152-.355-.109.277-.133-.188-.145.414-.086.016-.156.484-.023.215-.141.469.043.375-.102.375.102m.473-.047" fill="#f60"/>
  <path d="m31.34 22.375l-.691-.637h-.766l-2.496-3.332-.945-9.04-1.418-1.344-1.238-.023v28.895l.707-.004 1.074 1.105.891-.02 1.609-1.16c0 0 3.313-6.707 3.313-6.715m-.039-7.73" fill="#b2b2b2"/>
  <path d="m16.625 22.375l.691-.637h.766l2.496-3.336.945-9.03 1.418-1.348 1.238-.023v28.898l-.707-.004-1.074 1.102-.891-.02-1.609-1.16c0 0-3.313-6.707-3.313-6.715m.039-7.727" fill="#b2b2b2"/>
  <path d="m23.434 36.879v-28.879h1.051v28.879m-1.051 0" fill="#b2b2b2"/>
</svg>
