<svg xmlns="http://www.w3.org/2000/svg" viewBox="0 0 48 48">
 <defs>
  <linearGradient id="linearGradient3764" x1="1" x2="47" gradientUnits="userSpaceOnUse" gradientTransform="matrix(0,-1,1,0,-1.5e-6,47.999998)">
   <stop style="stop-color:#dfdfdf;stop-opacity:1"/>
   <stop offset="1" style="stop-color:#e9e9e9;stop-opacity:1"/>
  </linearGradient>
 </defs>
 <g>
  
  
  
 </g>
 <g>
  <path d="m 47,24 C 47,46.703 46.703,47 24,47 1.297,47 1,46.703 1,24 1,1.297 1.297,1 24,1 46.703,1 47,1.297 47,24 z" style="fill:url(#linearGradient3764);fill-opacity:1"/>
 </g>
 <path d="m 39,13.996 c -0.43,1 -1.901,3.783 -2.801,4.242 0.159,-0.533 0.36,-1.47 0.455,-2.447 -0.455,0.705 -2.01,2.606 -2.654,3.01 0.192,-0.759 0.43,-1.363 0.5,-2 -0.612,0.797 -1.301,1.599 -2.301,2.199 0,0 0.567,-0.6 0.6,-2.1 C 31.731,18.4 28,20 26.5,20 l -1.492,0 a 5,5.5 0 0 0 -4.809,-4 5,5.5 0 0 0 -4.982,5.133 C 12.459,22.47 11,24.966 11,28.5 11,32.481 14.934,36 19.5,36 27.53,36 39,25 39,14" style="fill:#000;opacity:0.1;fill-opacity:1;stroke:none"/>
 <g>
  
 </g>
 <g transform="translate(0,-1.004)">
  <path d="M 38,14 C 38,25 26.53,36 18.5,36 13.934,36 10,32.481 10,28.5 10,23 13.517,20 20,20 l 5.5,0 c 1.5,0 5.231,-1.6 6.3,-3.1 -0.033,1.5 -0.6,2.1 -0.6,2.1 1,-0.6 1.688,-1.403 2.3,-2.2 -0.07,0.637 -0.308,1.241 -0.5,2 0.644,-0.4 2.2,-2.3 2.655,-3 -0.095,0.977 -0.296,1.914 -0.454,2.447 0.9,-0.459 2.37,-3.243 2.8,-4.243" style="fill:#3297c2;opacity:1;fill-opacity:1;stroke:none"/>
  <path d="m 20 20 -4.801 2.5 c 0 3.038 2.239 5.5 5 5.5 2.761 0 5 -2.462 5 -5.5 0 -0.869 -0.188 -1.726 -0.547 -2.5 z" style="fill:#000;opacity:0.1;fill-opacity:1;stroke:none"/>
  <ellipse ry="5.5" rx="5" cy="21.5" cx="19.2" style="fill:#333;opacity:1;fill-opacity:1;stroke:none"/>
  <ellipse ry="5" rx="4.75" cy="22" cx="19.25" style="fill:#f9f9f9;opacity:1;fill-opacity:1;stroke:none"/>
  <ellipse ry="3" rx="2.25" cy="22" cx="18.85" style="fill:#333;opacity:1;fill-opacity:1;stroke:none"/>
  <path d="m 22,33.3 c -3,0 -5,-3.3 -5,-5.3 4,1.638 8,1.345 9.5,0.5 C 26,32 24,33.3 22,33.3" style="fill:#e0524c;opacity:1;fill-opacity:1;stroke:none"/>
  <path white-space="normal" isolation="auto" mix-blend-mode="normal" d="m 15.416 26.824 a 0.25 0.25 0 0 0 -0.148 0.447 c 0.421 0.333 0.936 0.654 1.518 0.945 0.325 1.93 1.106 3.213 2.061 4.03 0.985 0.84 2.138 1.185 3.125 1.305 1.452 0.176 2.66 -0.657 3.482 -1.725 0.734 -0.953 1.169 -2.082 1.26 -2.994 0.698 -0.231 1.402 -0.525 2.105 -0.893 a 0.25 0.25 0 1 0 -0.23 -0.443 c -5.327 2.786 -10.703 1.212 -13.01 -0.613 a 0.25 0.25 0 0 0 -0.162 -0.057 z m 1.928 1.65 c 1.07 0.463 2.335 0.818 3.729 0.965 a 0.2 0.2 0 0 0 0.074 0.082 c 1.208 0.775 1.337 1.323 1.51 1.859 l 0.045 0.139 0.146 0 a 0.2 0.2 0 0 0 0.162 -0.32 c -0.146 -0.45 -0.388 -1.04 -1.234 -1.701 1.389 0.073 2.883 -0.076 4.414 -0.516 -0.128 0.76 -0.515 1.735 -1.133 2.537 -0.756 0.981 -1.795 1.683 -3.03 1.533 -0.919 -0.112 -1.968 -0.431 -2.857 -1.189 -0.807 -0.689 -1.491 -1.749 -1.828 -3.389 z" solid-color="#000000" solid-opacity="1" style="visibility:visible;shape-rendering:auto;color-interpolation-filters:linearRGB;fill:#333;opacity:1;image-rendering:auto;fill-opacity:1;stroke:none;display:inline;color:#000;fill-rule:evenodd;color-rendering:auto;color-interpolation:sRGB"/>
 </g>
</svg>
