<svg viewBox="0 0 48 48" xmlns="http://www.w3.org/2000/svg" xmlns:xlink="http://www.w3.org/1999/xlink">
  <linearGradient id="a" gradientTransform="matrix(0 -1 1 0 -.0000015 47.999998)" gradientUnits="userSpaceOnUse" x1="1" x2="47">
    <stop offset="0" stop-color="#dfdfdf"/>
    <stop offset="1" stop-color="#e9e9e9"/>
  </linearGradient>
  <path d="m47 24c0 22.703-.297 23-23 23-22.703 0-23-.297-23-23 0-22.703.297-23 23-23 22.703 0 23 .297 23 23z" fill="url(#a)"/>
  <path d="m39 13.996c-.43 1-1.901 3.783-2.801 4.242.159-.533.36-1.47.455-2.447-.455.705-2.01 2.606-2.654 3.01.192-.759.43-1.363.5-2-.612.797-1.301 1.599-2.301 2.199 0 0 .567-.6.6-2.1-1.068 1.5-4.799 3.1-6.299 3.1h-1.492a5 5.5 0 0 0-4.809-4 5 5.5 0 0 0-4.982 5.133c-2.758 1.337-4.217 3.833-4.217 7.367 0 3.981 3.934 7.5 8.5 7.5 8.03 0 19.5-11 19.5-22" opacity=".1"/>
  <g transform="translate(0 -1.004)">
    <path d="m38 14c0 11-11.47 22-19.5 22-4.566 0-8.5-3.519-8.5-7.5 0-5.5 3.517-8.5 10-8.5h5.5c1.5 0 5.231-1.6 6.3-3.1-.033 1.5-.6 2.1-.6 2.1 1-.6 1.688-1.403 2.3-2.2-.07.637-.308 1.241-.5 2 .644-.4 2.2-2.3 2.655-3-.095.977-.296 1.914-.454 2.447.9-.459 2.37-3.243 2.8-4.243" fill="#3297c2"/>
    <path d="m20 20l-4.801 2.5c0 3.038 2.239 5.5 5 5.5 2.761 0 5-2.462 5-5.5 0-.869-.188-1.726-.547-2.5z" opacity=".1"/>
    <ellipse cx="19.2" cy="21.5" fill="#333" rx="5" ry="5.5"/>
    <ellipse cx="19.25" cy="22" fill="#f9f9f9" rx="4.75" ry="5"/>
    <ellipse cx="18.85" cy="22" fill="#333" rx="2.25" ry="3"/>
    <path d="m22 33.3c-3 0-5-3.3-5-5.3 4 1.638 8 1.345 9.5.5-.5 3.5-2.5 4.8-4.5 4.8" fill="#e0524c"/>
    <path d="m15.416 26.824a.25.25 0 0 0-.148.447c.421.333.936.654 1.518.945.325 1.93 1.106 3.213 2.061 4.03.985.84 2.138 1.185 3.125 1.305 1.452.176 2.66-.657 3.482-1.725.734-.953 1.169-2.082 1.26-2.994.698-.231 1.402-.525 2.105-.893a.25.25 0 1 0-.23-.443c-5.327 2.786-10.703 1.212-13.01-.613a.25.25 0 0 0-.162-.057zm1.928 1.65c1.07.463 2.335.818 3.729.965a.2.2 0 0 0  .074.082c1.208.775 1.337 1.323 1.51 1.859l.045.139h.146a.2.2 0 0 0  .162-.32c-.146-.45-.388-1.04-1.234-1.701 1.389.073 2.883-.076 4.414-.516-.128.76-.515 1.735-1.133 2.537-.756.981-1.795 1.683-3.03 1.533-.919-.112-1.968-.431-2.857-1.189-.807-.689-1.491-1.749-1.828-3.389z" fill="#333" fill-rule="evenodd"/>
  </g>
</svg>
