<svg viewBox="0 0 48 48" xmlns="http://www.w3.org/2000/svg" xmlns:xlink="http://www.w3.org/1999/xlink">
  <linearGradient id="a" gradientTransform="matrix(0 -1 1 0 -.0000015 47.999998)" gradientUnits="userSpaceOnUse" x1="1" x2="47">
    <stop offset="0" stop-color="#e4e4e4"/>
    <stop offset="1" stop-color="#eee"/>
  </linearGradient>
  <path d="m47 24c0 22.703-.297 23-23 23-22.703 0-23-.297-23-23 0-22.703.297-23 23-23 22.703 0 23 .297 23 23z" fill="url(#a)"/>
  <g transform="matrix(.48831714 -.84904333 .84579009 .4901954 -25.239423 7.3921425)">
    <path d="m22.751 50.865c-.541-.822-1.288-1.468-2.122-1.468-.833 0-.821 1.617-1.5 2h-2.291c-.116 0-.209.091-.209.204v3.593c0 .112.094.204.21.204l2.29-.002c.679.383.666 2 1.5 2 1.667 0 3.01-2.607 3-4-.004-.71-.337-1.71-.878-2.532zm-3.793-3.052c-.094-.15-.203-.291-.328-.416-3.298-3.298-8-6-10-6-2 0-7.999 2.999-7.999 3.999 0 1 4 4 7 5h11c .875 0 .984-1.531.328-2.584zm.234 8.912c-.125-.203-.312-.329-.562-.329h-11c-3 1-7 4-7 5 0 1 6 3.999 8 3.999 2 0 6.702-2.702 10-6 .75-.75.938-2.062.563-2.671zm-3.624-5.269c-.038-.037-.09-.058-.148-.058l-2.58-.002c-.116 0-.211.092-.211.205v3.593c0 .112.095.202.211.202h2.582c.116 0 .209-.091.209-.204v-3.593c0-.056-.025-.107-.062-.144zm-4 0c-.038-.037-.089-.06-.148-.06h-2.581c-.116 0-.209.091-.209.204v3.593c0 .112.093.203.209.203h2.582c.116 0 .209-.091.209-.204v-3.593c0-.056-.025-.107-.062-.144zm-3.998 0c-.038-.037-.09-.058-.148-.058 0 0-.062.006-.092 0-1.451-.289-2.744-1.407-4.1-1.702-1.491 0-1.999 2.527-1.999 3.701 0 1.175.508 3.7 1.998 3.7 1.453-.493 2.651-1.412 4.102-1.701.03-.006.09 0 .09 0 .116 0 .209-.091.209-.204v-3.593c0-.056-.023-.108-.061-.145z" fill-opacity=".098"/>
    <rect fill="#f9b901" height="4" rx=".21" ry=".203" width="3" x="9" y="50"/>
    <rect fill="#f9b901" height="4" rx=".21" ry=".203" width="3" x="13" y="50"/>
    <path d="m17.21 50c0 0 1.5 0 2.29 0 .679-.383.667-2 1.5-2 1.667 0 2.992 2.58 3 4 .007 1.393-1.333 4-3 4-.833 0-.821-1.617-1.5-2h-2.29c-.116 0-.21-.091-.21-.203v-3.594c0-.112.093-.203.21-.203" fill="#f9b901"/>
    <path d="m3.6 48.3c-1.491 0-2 2.525-2 3.7 0 1.175.509 3.7 2 3.7 1.453-.493 2.649-1.411 4.1-1.7.03-.006.091 0 .091 0 .116 0 .209-.091.209-.203v-3.594c0-.112-.093-.203-.209-.203 0 0-.061.006-.091 0-1.451-.289-2.745-1.405-4.1-1.7z" fill="#f9b901"/>
    <path d="m8 55h11c1 0 1 2 0 3-3.298 3.298-8 6-10 6-2 0-8-3-8-4 0-1 4-4 7-5z" fill="#8c8c8c"/>
    <path d="m8 49h11c1 0 1-2 0-3-3.298-3.298-8-6-10-6-2 0-8 3-8 4 0 1 4 4 7 5z" fill="#8c8c8c"/>
  </g>
</svg>
