<svg xmlns="http://www.w3.org/2000/svg" viewBox="0 0 48 48">
 <defs>
  <linearGradient id="linearGradient3764" x1="1" x2="47" gradientUnits="userSpaceOnUse" gradientTransform="matrix(0,-1,1,0,-1.5e-6,47.999998)">
   <stop style="stop-color:#3d3d3d;stop-opacity:1"/>
   <stop offset="1" style="stop-color:#474747;stop-opacity:1"/>
  </linearGradient>
 </defs>
 <g>
  
  
  
 </g>
 <g>
  <path d="m 47,24 C 47,46.703 46.703,47 24,47 1.297,47 1,46.703 1,24 1,1.297 1.297,1 24,1 46.703,1 47,1.297 47,24 z" style="fill:url(#linearGradient3764);fill-opacity:1"/>
 </g>
 <g>
  <g>
   <g transform="translate(1,1)">
    <g style="opacity:0.1">
     <!-- color: #474747 -->
     <g>
      <path d="m 17.293 12 l 13.414 0 c 2.922 0 5.293 1.875 5.293 4.188 l 0 13.625 c 0 2.313 -2.371 4.188 -5.293 4.188 l -13.414 0 c -2.922 0 -5.293 -1.875 -5.293 -4.188 l 0 -13.625 c 0 -2.313 2.371 -4.188 5.293 -4.188 m 0 0" style="fill:#000;fill-opacity:1;stroke:none;fill-rule:nonzero"/>
      <path d="m 34 30 l -14.996 0 l -3 8 m 18 -8" style="fill:#000;fill-opacity:1;stroke:none;fill-rule:nonzero"/>
     </g>
    </g>
   </g>
  </g>
 </g>
 <g>
  <g>
   <!-- color: #474747 -->
   <g>
    <path d="m 17.293 12 l 13.414 0 c 2.922 0 5.293 1.875 5.293 4.188 l 0 13.625 c 0 2.313 -2.371 4.188 -5.293 4.188 l -13.414 0 c -2.922 0 -5.293 -1.875 -5.293 -4.188 l 0 -13.625 c 0 -2.313 2.371 -4.188 5.293 -4.188 m 0 0" style="fill:#f9f9f9;fill-opacity:1;stroke:none;fill-rule:nonzero"/>
    <path d="m 34 30 l -14.996 0 l -3 8 m 18 -8" style="fill:#f9f9f9;fill-opacity:1;stroke:none;fill-rule:nonzero"/>
   </g>
  </g>
 </g>
 <g>
  
 </g>
</svg>
