<svg viewBox="0 0 48 48" xmlns="http://www.w3.org/2000/svg" xmlns:xlink="http://www.w3.org/1999/xlink">
  <linearGradient id="a" gradientTransform="matrix(0 -1 1 0 -.0000015 47.999998)" gradientUnits="userSpaceOnUse" x1="1" x2="47">
    <stop offset="0" stop-color="#3d3d3d"/>
    <stop offset="1" stop-color="#474747"/>
  </linearGradient>
  <path d="m47 24c0 22.703-.297 23-23 23-22.703 0-23-.297-23-23 0-22.703.297-23 23-23 22.703 0 23 .297 23 23z" fill="url(#a)"/>
  <path d="m18.17 12h11.668c.641 0 1.164.523 1.164 1.168v21.668c0 .641-.523 1.164-1.164 1.164h-11.668c-.648 0-1.168-.523-1.168-1.164v-21.668c0-.645.52-1.168 1.168-1.168m0 0" opacity=".1" transform="translate(1 1)"/>
  <path d="m18.17 12h11.668c.641 0 1.164.523 1.164 1.168v21.668c0 .641-.523 1.164-1.164 1.164h-11.668c-.648 0-1.168-.523-1.168-1.164v-21.668c0-.645.52-1.168 1.168-1.168m0 0" fill="#955bc1"/>
  <path d="m17.355 23h13.289c.195 0 .355.16.355.355v1.289c0 .195-.16.352-.355.352h-13.289c-.195 0-.355-.156-.355-.352v-1.289c0-.195.16-.355.355-.355m0 0" fill="#fff" fill-opacity=".251"/>
  <path d="m20 28h .996v3h-.996m0-3" fill="#f9f9f9" fill-opacity=".902"/>
  <path d="m19 29h3v .996h-3m0-.996" fill="#f9f9f9" fill-opacity=".902"/>
  <path d="m28 28.5c0 .277-.223.5-.5.5-.277 0-.5-.223-.5-.5 0-.277.223-.5.5-.5.277 0 .5.223.5.5m0 0" fill="#f9f9f9" fill-opacity=".902"/>
  <path d="m29 29.5c0 .277-.223.5-.5.5-.277 0-.5-.223-.5-.5 0-.277.223-.5.5-.5.277 0 .5.223.5.5m0 0" fill="#f9f9f9" fill-opacity=".902"/>
  <path d="m27 29.5c0 .277-.223.5-.5.5-.277 0-.5-.223-.5-.5 0-.277.223-.5.5-.5.277 0 .5.223.5.5m0 0" fill="#f9f9f9" fill-opacity=".902"/>
  <path d="m28 30.5c0 .277-.223.5-.5.5-.277 0-.5-.223-.5-.5 0-.277.223-.5.5-.5.277 0 .5.223.5.5m0 0" fill="#f9f9f9" fill-opacity=".902"/>
  <path d="m23 26h1.996v1h-1.996m0-1" fill="#f9f9f9" fill-opacity=".902"/>
  <path d="m19 14h10v7h-10m0-7" fill="#f9f9f9" fill-opacity=".902"/>
  <path d="m26 33.563c0 .277-.223.5-.5.5-.277 0-.5-.223-.5-.5 0-.277.223-.5.5-.5.277 0 .5.223.5.5m0 0" fill="#f9f9f9" fill-opacity=".902"/>
  <path d="m23 33.563c0 .277-.223.5-.5.5-.277 0-.5-.223-.5-.5 0-.277.223-.5.5-.5.277 0 .5.223.5.5m0 0" fill="#f9f9f9" fill-opacity=".902"/>
</svg>
