<svg xmlns="http://www.w3.org/2000/svg" viewBox="0 0 48 48">
 <defs>
  <linearGradient id="linearGradient3764" x1="1" x2="47" gradientUnits="userSpaceOnUse" gradientTransform="matrix(0,-1,1,0,-1.5e-6,47.999998)">
   <stop style="stop-color:#3d3d3d;stop-opacity:1"/>
   <stop offset="1" style="stop-color:#474747;stop-opacity:1"/>
  </linearGradient>
 </defs>
 <g>
  
  
  
 </g>
 <g>
  <path d="m 47,24 C 47,46.703 46.703,47 24,47 1.297,47 1,46.703 1,24 1,1.297 1.297,1 24,1 46.703,1 47,1.297 47,24 z" style="fill:url(#linearGradient3764);fill-opacity:1"/>
 </g>
 <g>
  <g>
   <g transform="translate(1,1)">
    <g style="opacity:0.1">
     <!-- color: #474747 -->
     <g>
      <path d="m 18.17 12 l 11.668 0 c 0.641 0 1.164 0.523 1.164 1.168 l 0 21.668 c 0 0.641 -0.523 1.164 -1.164 1.164 l -11.668 0 c -0.648 0 -1.168 -0.523 -1.168 -1.164 l 0 -21.668 c 0 -0.645 0.52 -1.168 1.168 -1.168 m 0 0" style="fill:#000;fill-opacity:1;stroke:none;fill-rule:nonzero"/>
     </g>
    </g>
   </g>
  </g>
 </g>
 <g>
  <g>
   <!-- color: #474747 -->
   <g>
    <path d="m 18.17,12 11.668,0 c 0.641,0 1.164,0.523 1.164,1.168 l 0,21.668 C 31.002,35.477 30.479,36 29.838,36 L 18.17,36 c -0.648,0 -1.168,-0.523 -1.168,-1.164 l 0,-21.668 C 17.002,12.523 17.522,12 18.17,12 m 0,0" style="fill:#955bc1;fill-opacity:1;stroke:none;fill-rule:nonzero"/>
    <path d="m 17.355,23 13.289,0 c 0.195,0 0.355,0.16 0.355,0.355 l 0,1.289 c 0,0.195 -0.16,0.352 -0.355,0.352 l -13.289,0 C 17.16,24.996 17,24.84 17,24.644 l 0,-1.289 C 17,23.16 17.16,23 17.355,23 m 0,0" style="fill:#fff;fill-opacity:0.251;stroke:none;fill-rule:nonzero"/>
    <path d="m 20,28 0.996,0 0,3 L 20,31 m 0,-3" style="fill:#f9f9f9;fill-opacity:0.902;stroke:none;fill-rule:nonzero"/>
    <path d="m 19,29 3,0 0,0.996 -3,0 M 19,29" style="fill:#f9f9f9;fill-opacity:0.902;stroke:none;fill-rule:nonzero"/>
    <path d="M 28,28.5 C 28,28.777 27.777,29 27.5,29 27.223,29 27,28.777 27,28.5 27,28.223 27.223,28 27.5,28 c 0.277,0 0.5,0.223 0.5,0.5 m 0,0" style="fill:#f9f9f9;fill-opacity:0.902;stroke:none;fill-rule:nonzero"/>
    <path d="M 29,29.5 C 29,29.777 28.777,30 28.5,30 28.223,30 28,29.777 28,29.5 28,29.223 28.223,29 28.5,29 c 0.277,0 0.5,0.223 0.5,0.5 m 0,0" style="fill:#f9f9f9;fill-opacity:0.902;stroke:none;fill-rule:nonzero"/>
    <path d="M 27,29.5 C 27,29.777 26.777,30 26.5,30 26.223,30 26,29.777 26,29.5 26,29.223 26.223,29 26.5,29 c 0.277,0 0.5,0.223 0.5,0.5 m 0,0" style="fill:#f9f9f9;fill-opacity:0.902;stroke:none;fill-rule:nonzero"/>
    <path d="M 28,30.5 C 28,30.777 27.777,31 27.5,31 27.223,31 27,30.777 27,30.5 27,30.223 27.223,30 27.5,30 c 0.277,0 0.5,0.223 0.5,0.5 m 0,0" style="fill:#f9f9f9;fill-opacity:0.902;stroke:none;fill-rule:nonzero"/>
    <path d="m 23,26 1.996,0 0,1 L 23,27 m 0,-1" style="fill:#f9f9f9;fill-opacity:0.902;stroke:none;fill-rule:nonzero"/>
    <path d="m 19 14 10 0 0 7 -10 0 m 0 -7" style="fill:#f9f9f9;fill-opacity:0.902;stroke:none;fill-rule:nonzero"/>
    <path d="m 26 33.563 c 0 0.277 -0.223 0.5 -0.5 0.5 -0.277 0 -0.5 -0.223 -0.5 -0.5 0 -0.277 0.223 -0.5 0.5 -0.5 0.277 0 0.5 0.223 0.5 0.5 m 0 0" style="fill:#f9f9f9;fill-opacity:0.902;stroke:none;fill-rule:nonzero"/>
    <path d="m 23 33.563 c 0 0.277 -0.223 0.5 -0.5 0.5 -0.277 0 -0.5 -0.223 -0.5 -0.5 0 -0.277 0.223 -0.5 0.5 -0.5 0.277 0 0.5 0.223 0.5 0.5 m 0 0" style="fill:#f9f9f9;fill-opacity:0.902;stroke:none;fill-rule:nonzero"/>
   </g>
  </g>
 </g>
 <g>
  
 </g>
</svg>
