<svg xmlns="http://www.w3.org/2000/svg" viewBox="0 0 48 48">
 <defs>
  <linearGradient id="linearGradient3764" x1="1" x2="47" gradientUnits="userSpaceOnUse" gradientTransform="matrix(0,-1,1,0,-1.5e-6,47.999998)">
   <stop style="stop-color:#e7e7e7;stop-opacity:1"/>
   <stop offset="1" style="stop-color:#f1f1f1;stop-opacity:1"/>
  </linearGradient>
 </defs>
 <g>
  
  
  
 </g>
 <g>
  <path d="m 47,24 C 47,46.703 46.703,47 24,47 1.297,47 1,46.703 1,24 1,1.297 1.297,1 24,1 46.703,1 47,1.297 47,24 z" style="fill:url(#linearGradient3764);fill-opacity:1"/>
 </g>
 <g>
  
 </g>
 <path d="m 21 13 0 8 8 0 0 -8 z m 8 8 0 8 8 0 0 -8 z m 0 8 -8 0 0 8 8 0 z m -8 0 0 -8 -8 0 0 8 z m 3 -6 -1 1 0 2 1 1 2 0 1 -1 0 -2 -1 -1 z" style="fill:#000;opacity:0.1;fill-opacity:1;stroke:none"/>
 <rect width="8" height="8" x="28" y="20" style="fill:#ea4c4c;opacity:1;fill-opacity:1;stroke:none"/>
 <rect y="20" x="12" height="8" width="8" style="fill:#ea4c4c;opacity:1;fill-opacity:1;stroke:none"/>
 <rect width="8" height="8" x="20" y="12" style="fill:#ea4c4c;opacity:1;fill-opacity:1;stroke:none"/>
 <rect y="28" x="20" height="8" width="8" style="fill:#ea4c4c;opacity:1;fill-opacity:1;stroke:none"/>
 <path d="m 23 22 -1 1 0 2 1 1 2 0 1 -1 0 -2 -1 -1 z" style="fill:#3eb243;opacity:1;fill-opacity:1;stroke:none"/>
</svg>
