<svg viewBox="0 0 48 48" xmlns="http://www.w3.org/2000/svg" xmlns:xlink="http://www.w3.org/1999/xlink">
  <linearGradient id="a" gradientUnits="userSpaceOnUse" x2="0" y1="1" y2="47">
    <stop offset="0" stop-color="#d66a6a"/>
    <stop offset="1" stop-color="#d25a5a"/>
  </linearGradient>
  <path d="m24 1c22.703 0 23 .297 23 23 0 22.703-.297 23-23 23-22.703 0-23-.297-23-23 0-22.703.297-23 23-23z" fill="url(#a)"/>
  <path d="m12 10h24v26h-24z" opacity=".1" transform="translate(1 1)"/>
  <path d="m12 10h24v26h-24z" fill="#666"/>
  <path d="m13 11h22v24h-22z" fill="#f6ffd5"/>
  <path d="m19.05 19.06v3.282h1.449c.536 0 .951-.105 1.243-.398.293-.293.439-.711.439-1.254 0-.538-.146-.955-.439-1.248-.293-.293-.708-.383-1.243-.383h-1.449m-1.153-1.058h2.602c.954 0 1.676.229 2.162.687.491.454.736 1.121.736 2 0 .888-.245 1.56-.736 2.01-.487.454-1.209.534-2.162.592h-1.449v3.706h-1.153v-9" fill="#4d4d4d"/>
  <g fill="#4d4d4d">
    <path d="m19.808 31.672v1.16h-.361v-3.02h.361v.332c.076-.13.171-.227.285-.289.116-.064.254-.096.414-.096.266 0 .481.105.646.316.167.211.25.488.25.832 0 .344-.083.621-.25.832-.165.211-.381.316-.646.316-.16 0-.298-.031-.414-.094-.115-.064-.21-.161-.285-.291m1.223-.764c0-.264-.055-.471-.164-.621-.108-.151-.257-.227-.447-.227-.19 0-.34.076-.449.227-.108.15-.162.357-.162.621 0 .264.054.472.162.623.109.15.259.225.449.225.19 0 .339-.075.447-.225.109-.151.164-.359.164-.623"/>
    <path d="m22.993 30.9c-.29 0-.492.033-.604.1-.112.066-.168.18-.168.34 0 .128.042.229.125.305.085.074.199.111.344.111.199 0 .359-.07.479-.211.121-.142.182-.33.182-.564v-.08h-.357m.717-.148v1.248h-.359v-.332c-.082.133-.184.231-.307.295-.122.063-.272.094-.449.094-.224 0-.402-.063-.535-.188-.132-.126-.197-.295-.197-.506 0-.246.082-.432.246-.557.165-.125.411-.187.738-.188h.504v-.035c0-.165-.055-.293-.164-.383-.108-.091-.26-.137-.457-.137-.125 0-.247.015-.365.045-.118.03-.232.075-.342.135v-.332c.132-.051.259-.089.383-.113.124-.026.244-.039.361-.039.316 0 .553.082.709.246.156.164.234.413.234.746"/>
    <path d="m24.452 29.813h.359v2.188h-.359zm0-.852h.359v.455h-.359z"/>
    <path d="m27.38 30.68v1.32h-.359v-1.309c0-.207-.04-.362-.121-.465-.081-.103-.202-.154-.363-.154-.194 0-.347.062-.459.186-.112.124-.168.292-.168.506v1.236h-.361v-2.188h.361v.34c.086-.132.187-.23.303-.295.117-.065.252-.098.404-.098.251 0 .441.078.57.234.129.155.193.383.193.686"/>
    <path d="m28.456 29.19v.621h.74v.279h-.74v1.188c0 .178.024.293.072.344.049.051.149.076.299.076h.369v.301h-.369c-.277 0-.469-.051-.574-.154-.105-.104-.158-.293-.158-.566v-1.188h-.264v-.279h.264v-.621h.361"/>
  </g>
  <g fill="#4d4d4d">
    <path d="m29.439 14.939v-.359c.099.047.199.083.301.107.102.025.201.037.299.037.26 0 .459-.087.596-.262.138-.176.217-.442.236-.799-.076.112-.171.198-.287.258-.116.06-.244.09-.385.09-.292 0-.523-.088-.693-.264-.169-.177-.254-.419-.254-.725 0-.299.089-.54.266-.721.177-.181.413-.271.707-.271.337 0 .594.13.771.389.178.258.268.633.268 1.125 0 .46-.109.827-.328 1.102-.217.273-.51.41-.879.41-.099 0-.199-.001-.301-.029-.102-.02-.207-.049-.316-.088m.785-1.236c.177 0 .317-.061.42-.182.104-.121.156-.287.156-.498 0-.21-.052-.375-.156-.496-.103-.122-.243-.184-.42-.184-.177 0-.318.061-.422.184-.103.121-.154.286-.154.496 0 .211.051.377.154.498.104.121.245.182.422.182"/>
    <path d="m32.04 14.668h.645v-2.225l-.701.141v-.359l.697-.141h.395v2.584h.645v.332h-1.68v-.332"/>
  </g>
  <path d="m27.985 23.5755c-.817 0-1.384.102-1.699.304-.315.202-.473.548-.473 1.036 0 .389.117.5995.352.8285.238.227.561.339.967.339.561 0 1.01-.214 1.347-.643.341-.433.511-.9105.511-1.6205v-.244h-1.01m2.02-.5515v3.976h-1.011v-1.184c-.231.404-.519.704-.863.899-.344.191-.766.285-1.265.285-.63 0-1.132-.191-1.506-.572-.371-.385-.555-.7995-.555-1.4425 0-.75.231-1.315.692-1.696.465-.381 1.158-.571 2.078-.572h1.418v-.107c0-.504-.154-.9925-.462-1.2655-.304-.277-.733-.416-1.286-.416-.352 0-.694.046-1.028.137-.333.091-.654.229-.962.41v-1.012c.371-.154.729-.27 1.077-.345.348-.079.687-.119 1.017-.119.89 0 1.555.25 1.995.75.44.5.659 1.258.659 2.273" fill="#4d4d4d"/>
</svg>
