<svg viewBox="0 0 48 48" xmlns="http://www.w3.org/2000/svg" xmlns:xlink="http://www.w3.org/1999/xlink">
  <linearGradient id="a" gradientUnits="userSpaceOnUse" x2="0" y1="1" y2="47">
    <stop offset="0" stop-color="#ce89df"/>
    <stop offset="1" stop-color="#c77ada"/>
  </linearGradient>
  <path d="m24 1c22.703 0 23 .297 23 23 0 22.703-.297 23-23 23-22.703 0-23-.297-23-23 0-22.703.297-23 23-23z" fill="url(#a)"/>
  <path d="m12 10h24v26h-24z" opacity=".1" transform="translate(1 1)"/>
  <path d="m12 10h24v26h-24z" fill="#666"/>
  <path d="m13 11h22v24h-22z" fill="#f6ffd5"/>
  <g fill="#4d4d4d">
    <path d="m30.655 13.403c.189.04.336.124.441.252.107.128.16.285.16.473 0 .288-.099.51-.297.668-.198.158-.479.236-.844.236-.122 0-.249-.012-.379-.037-.129-.023-.262-.059-.4-.107v-.381c.109.064.229.112.359.145.13.033.266.049.408.049.247 0 .436-.049.564-.146.13-.098.195-.24.195-.426 0-.172-.061-.306-.182-.402-.12-.098-.287-.146-.502-.146h-.34v-.324h.355c.194 0 .342-.038.445-.115.103-.078.154-.19.154-.336 0-.15-.053-.264-.16-.344-.105-.081-.257-.121-.455-.121-.108 0-.224.012-.348.035-.124.023-.26.06-.408.109v-.352c.15-.042.29-.073.42-.094.132-.021.255-.031.371-.031.299 0 .536.068.711.205.174.135.262.319.262.551 0 .161-.046.298-.139.41-.092.111-.224.188-.395.23"/>
    <path d="m32.85 13.59c-.188 0-.335.05-.443.15-.107.1-.16.238-.16.414 0 .176.053.314.16.414.108.1.256.15.443.15.187 0 .335-.05.443-.15.108-.102.162-.24.162-.414 0-.176-.054-.314-.162-.414-.107-.1-.255-.15-.443-.15m-.395-.168c-.169-.042-.301-.12-.396-.236-.094-.116-.141-.257-.141-.424 0-.233.083-.417.248-.553.167-.135.395-.203.684-.203.29 0 .518.068.684.203.165.135.248.32.248.553 0 .167-.048.308-.143.424-.094.116-.225.195-.393.236.19.044.338.131.443.26.107.129.16.286.16.473 0 .283-.087.499-.26.65-.172.151-.419.227-.74.227-.322 0-.569-.076-.742-.227-.172-.151-.258-.368-.258-.65 0-.186.053-.344.16-.473.107-.129.255-.215.445-.26m-.145-.623c0 .151.047.269.141.354.095.085.228.127.398.127.169 0 .301-.042.396-.127.096-.085.145-.202.145-.354 0-.151-.048-.269-.145-.354-.095-.085-.227-.127-.396-.127-.171 0-.303.042-.398.127-.094.085-.141.202-.141.354"/>
  </g>
  <g fill="#4d4d4d">
    <path d="m24.485 18.444v1.144c-.437-.213-.851-.372-1.238-.476-.388-.104-.763-.157-1.124-.157-.628 0-1.114.124-1.456.372-.339.248-.508.6-.508 1.057 0 .384.112.674.337.871.228.193.659.351 1.29.471l.697.145c.86.167 1.494.461 1.901.883.411.418.617.979.617 1.684 0 .841-.278 1.477-.833 1.911-.551.434-1.362.65-2.432.65-.403 0-.833-.047-1.29-.14-.453-.093-.923-.23-1.41-.412v-1.208c.468.268.927.469 1.376.604.449.136.891.203 1.324.203.659 0 1.166-.132 1.524-.395.358-.264.537-.639.537-1.127 0-.426-.13-.759-.388-1-.255-.24-.675-.42-1.262-.54l-.703-.14c-.86-.174-1.482-.447-1.867-.819-.385-.372-.577-.888-.577-1.55 0-.766.264-1.371.793-1.812.533-.441 1.266-.662 2.198-.662.399 0 .807.037 1.222.11.415.073.839.184 1.273.331"/>
    <path d="m30.843 21.445c-.121-.07-.254-.121-.398-.152-.141-.035-.297-.053-.469-.053-.609 0-1.078.261-1.406.66-.324.395-.57.901-.57 1.643v3.457h-1v-6.563h1v1.02c.227-.398.605-.693.969-.885.363-.195.805-.293 1.324-.293.074 0 .156.006.246.018.09.008.189.021.299.041"/>
  </g>
  <g fill="#4d4d4d">
    <path d="m15.771 30.29v.34c-.102-.052-.207-.091-.316-.117-.109-.026-.223-.039-.34-.039-.178 0-.313.027-.402.082-.089.055-.133.137-.133.246 0 .083.032.149.096.197.064.047.192.092.385.135l.123.027c.255.055.436.132.543.232.108.099.162.238.162.416 0 .203-.081.364-.242.482-.16.118-.381.178-.662.178-.117 0-.24-.012-.367-.035-.126-.022-.26-.056-.4-.102v-.371c.133.069.264.121.393.156.129.034.257.051.383.051.169 0 .299-.029.391-.086.091-.059.137-.141.137-.246 0-.098-.033-.173-.1-.225-.065-.052-.209-.102-.432-.15l-.125-.029c-.223-.047-.383-.118-.482-.215-.099-.098-.148-.231-.148-.4 0-.206.073-.365.219-.477.146-.112.353-.168.621-.168.133 0 .258.001.375.029.117.02.225.049.324.088"/>
    <path d="m16.818 29.607v.621h.74v.279h-.74v1.188c0 .178.024.293.072.344.049.051.149.076.299.076h.369v.301h-.369c-.277 0-.469-.051-.574-.154-.105-.104-.158-.293-.158-.566v-1.188h-.264v-.279h.264v-.621h.361"/>
    <path d="m19.301 30.564c-.04-.023-.085-.04-.133-.051-.047-.012-.099-.018-.156-.018-.203 0-.359.066-.469.199-.108.132-.162.321-.162.568v1.152h-.361v-2.188h.361v.34c.076-.133.174-.231.295-.295.121-.065.268-.098.441-.098.025 0 .052.002.082.006.03.003.063.007.1.014l.002.369"/>
    <path d="m19.645 31.553v-1.324h.359v1.311c0 .207.04.363.121.467.081.103.202.154.363.154.194 0 .347-.062.459-.186.113-.124.17-.292.17-.506v-1.24h.359v2.188h-.359v-.336c-.087.133-.189.232-.305.297-.115.064-.248.096-.4.096-.251 0-.442-.078-.572-.234-.13-.156-.195-.385-.195-.686"/>
    <path d="m23.795 30.31v.336c-.102-.056-.204-.098-.307-.125-.102-.029-.204-.043-.309-.043-.233 0-.414.074-.543.223-.129.147-.193.354-.193.621 0 .267.064.475.193.623.129.147.31.221.543.221.104 0 .207-.014.309-.041.103-.029.205-.071.307-.127v.332c-.1.047-.204.082-.313.105-.107.023-.221.035-.342.035-.329 0-.591-.104-.785-.311-.194-.207-.291-.486-.291-.838 0-.357.098-.637.293-.842.197-.204.465-.307.807-.307.111 0 .219.012.324.035.105.022.208.056.307.102"/>
    <path d="m24.779 29.607v.621h.74v.279h-.74v1.188c0 .178.024.293.072.344.049.051.149.076.299.076h.369v.301h-.369c-.277 0-.469-.051-.574-.154-.105-.104-.158-.293-.158-.566v-1.188h-.264v-.279h.264v-.621h.361"/>
    <path d="m25.957 31.553v-1.324h.359v1.311c0 .207.04.363.121.467.081.103.202.154.363.154.194 0 .347-.062.459-.186.113-.124.17-.292.17-.506v-1.24h.359v2.188h-.359v-.336c-.087.133-.189.232-.305.297-.115.064-.248.096-.4.096-.251 0-.442-.078-.572-.234-.13-.156-.195-.385-.195-.686"/>
    <path d="m29.801 30.564c-.04-.023-.085-.04-.133-.051-.047-.012-.099-.018-.156-.018-.203 0-.359.066-.469.199-.108.132-.162.321-.162.568v1.152h-.361v-2.188h.361v.34c.076-.133.174-.231.295-.295.121-.065.268-.098.441-.098.025 0 .052.002.082.006.03.003.063.007.1.014l.002.369"/>
    <path d="m31.967 31.23v.176h-1.652c.016.247.09.436.223.566.134.129.32.193.559.193.138 0 .271-.017.4-.051.13-.034.259-.085.387-.152v.34c-.129.055-.261.096-.396.125-.135.029-.273.043-.412.043-.349 0-.626-.102-.83-.305-.203-.203-.305-.478-.305-.824 0-.358.096-.642.289-.852.194-.211.455-.316.783-.316.294 0 .527.095.697.285.172.189.258.446.258.771m-.359-.105c-.003-.197-.058-.354-.166-.471-.107-.117-.249-.176-.426-.176-.201 0-.361.057-.482.17-.12.113-.189.273-.207.479z"/>
    <path d="m33.951 30.29v.34c-.102-.052-.207-.091-.316-.117-.109-.026-.223-.039-.34-.039-.178 0-.313.027-.402.082-.089.055-.133.137-.133.246 0 .083.032.149.096.197.064.047.192.092.385.135l.123.027c.255.055.436.132.543.232.108.099.162.238.162.416 0 .203-.081.364-.242.482-.16.118-.381.178-.662.178-.117 0-.24-.012-.367-.035-.126-.022-.26-.056-.4-.102v-.371c.133.069.264.121.393.156.129.034.257.051.383.051.169 0 .299-.029.391-.086.091-.059.137-.141.137-.246 0-.098-.033-.173-.1-.225-.065-.052-.209-.102-.432-.15l-.125-.029c-.223-.047-.383-.118-.482-.215-.099-.098-.148-.231-.148-.4 0-.206.073-.365.219-.477.146-.112.353-.168.621-.168.133 0 .258.001.375.029.117.02.225.049.324.088"/>
  </g>
</svg>
