<svg xmlns="http://www.w3.org/2000/svg" viewBox="0 0 48 48">
 <defs>
  <linearGradient id="linearGradient3764" x1="1" x2="47" gradientUnits="userSpaceOnUse" gradientTransform="matrix(0,-1,1,0,-1.5e-6,47.999998)">
   <stop style="stop-color:#e4e4e4;stop-opacity:1"/>
   <stop offset="1" style="stop-color:#eee;stop-opacity:1"/>
  </linearGradient>
 </defs>
 <g>
  
  
  
 </g>
 <g>
  <path d="m 47,24 C 47,46.703 46.703,47 24,47 1.297,47 1,46.703 1,24 1,1.297 1.297,1 24,1 46.703,1 47,1.297 47,24 z" style="fill:url(#linearGradient3764);fill-opacity:1"/>
 </g>
 <g>
  <g>
   <g transform="translate(1,1)">
    <g style="opacity:0.1">
     <!-- color: #eeeeee -->
     <g>
      <path d="m 25.04 13.05 c -2.4 0 -4.473 1.298 -5.584 3.225 -0.153 0 -0.307 -0.012 -0.459 -0.002 l -0.004 0 c -2.065 0.146 -4.02 1.298 -5.133 3.223 -1.489 2.576 -0.972 5.745 1.035 7.756 -0.881 1.471 -1.154 3.255 -0.707 4.955 0.594 2.246 2.348 4 4.594 4.594 2.252 0.594 4.643 -0.07 6.264 -1.734 1.621 1.66 4.01 2.322 6.258 1.732 2.25 -0.598 4 -2.35 4.594 -4.6 0.46 -1.737 0.156 -3.559 -0.773 -5.05 1.255 -1.229 1.981 -2.921 1.947 -4.721 -0.043 -2.324 -1.336 -4.449 -3.379 -5.551 -0.991 -0.538 -2.084 -0.789 -3.172 -0.771 -1.138 -1.833 -3.165 -3.053 -5.48 -3.053 z" transform="translate(-1,-1)"/>
     </g>
    </g>
   </g>
  </g>
 </g>
 <g transform="translate(-7.6486381e-5,0)">
  <g>
   <!-- color: #eeeeee -->
   <g>
    <path d="m 32.902 27.1 c -1.969 1.234 -4.449 1.313 -6.492 0.207 -2.047 -1.105 -3.336 -3.23 -3.379 -5.551 -0.281 -5.247 5.308 -8.266 9.66 -5.879 2.043 1.102 3.336 3.227 3.379 5.551 0.043 2.324 -1.168 4.48 -3.168 5.672" style="fill:#86dd95;fill-opacity:1;stroke:none;fill-rule:nonzero"/>
    <path d="m 24.04 34.06 c -1.664 -1.621 -2.328 -4.02 -1.734 -6.262 0.59 -2.246 2.348 -4 4.594 -4.594 2.246 -0.594 4.641 0.07 6.262 1.734 1.664 1.625 2.328 4.02 1.734 6.262 -0.59 2.25 -2.344 4 -4.594 4.598 -2.246 0.59 -4.641 -0.074 -6.262 -1.738 m 0 0" style="fill:#f3f275;fill-opacity:1;stroke:none;fill-rule:nonzero"/>
    <path d="m 14.926 24.945 c 1.621 -1.664 4.01 -2.328 6.262 -1.734 2.246 0.59 4 2.344 4.594 4.594 0.59 2.246 -0.074 4.637 -1.738 6.262 -1.621 1.664 -4.01 2.328 -6.262 1.734 -2.246 -0.59 -4 -2.348 -4.594 -4.594 -0.59 -2.246 0.07 -4.641 1.738 -6.262 m 0 0" style="fill:#edb968;fill-opacity:1;stroke:none;fill-rule:nonzero"/>
    <path d="m 17.996 15.273 c -2.066 0.145 -4.02 1.297 -5.137 3.223 -1.781 3.082 -0.699 7.02 2.383 8.797 3.082 1.785 7.02 0.734 8.801 -2.348 -1.27 -2.082 -1.383 -4.718 -0.25 -6.691 c -1.335 -1.999 -3.521 -3.112 -5.8 -2.981" style="fill:#ed8e68;fill-opacity:1;stroke:none;fill-rule:nonzero"/>
    <path d="m 24.04 12.05 c -3.582 0 -6.449 2.887 -6.449 6.449 0 3.578 2.887 6.449 6.449 6.449 -1.855 -3.043 -0.895 -7.02 2.148 -8.867 1.055 -0.637 2.211 -0.941 3.359 -0.938 -1.133 -1.855 -3.176 -3.09 -5.508 -3.09 m 0 -0.004" style="fill:#b0c6de;fill-opacity:1;stroke:none;fill-rule:nonzero"/>
   </g>
  </g>
 </g>
 <g>
  
 </g>
</svg>
