<svg viewBox="0 0 48 48" xmlns="http://www.w3.org/2000/svg" xmlns:xlink="http://www.w3.org/1999/xlink">
  <linearGradient id="a" gradientTransform="matrix(0 -1 1 0 -.0000015 47.999998)" gradientUnits="userSpaceOnUse" x1="1" x2="47">
    <stop offset="0" stop-color="#e4e4e4"/>
    <stop offset="1" stop-color="#eee"/>
  </linearGradient>
  <path d="m47 24c0 22.703-.297 23-23 23-22.703 0-23-.297-23-23 0-22.703.297-23 23-23 22.703 0 23 .297 23 23z" fill="url(#a)"/>
  <path d="m25.04 13.05c-2.4 0-4.473 1.298-5.584 3.225-.153 0-.307-.012-.459-.002h-.004c-2.065.146-4.02 1.298-5.133 3.223-1.489 2.576-.972 5.745 1.035 7.756-.881 1.471-1.154 3.255-.707 4.955.594 2.246 2.348 4 4.594 4.594 2.252.594 4.643-.07 6.264-1.734 1.621 1.66 4.01 2.322 6.258 1.732 2.25-.598 4-2.35 4.594-4.6.46-1.737.156-3.559-.773-5.05 1.255-1.229 1.981-2.921 1.947-4.721-.043-2.324-1.336-4.449-3.379-5.551-.991-.538-2.084-.789-3.172-.771-1.138-1.833-3.165-3.053-5.48-3.053z" opacity=".1" transform=""/>
  <g transform="translate(-.00007649)">
    <path d="m32.902 27.1c-1.969 1.234-4.449 1.313-6.492.207-2.047-1.105-3.336-3.23-3.379-5.551-.281-5.247 5.308-8.266 9.66-5.879 2.043 1.102 3.336 3.227 3.379 5.551.043 2.324-1.168 4.48-3.168 5.672" fill="#86dd95"/>
    <path d="m24.04 34.06c-1.664-1.621-2.328-4.02-1.734-6.262.59-2.246 2.348-4 4.594-4.594 2.246-.594 4.641.07 6.262 1.734 1.664 1.625 2.328 4.02 1.734 6.262-.59 2.25-2.344 4-4.594 4.598-2.246.59-4.641-.074-6.262-1.738m0 0" fill="#f3f275"/>
    <path d="m14.926 24.945c1.621-1.664 4.01-2.328 6.262-1.734 2.246.59 4 2.344 4.594 4.594.59 2.246-.074 4.637-1.738 6.262-1.621 1.664-4.01 2.328-6.262 1.734-2.246-.59-4-2.348-4.594-4.594-.59-2.246.07-4.641 1.738-6.262m0 0" fill="#edb968"/>
    <path d="m17.996 15.273c-2.066.145-4.02 1.297-5.137 3.223-1.781 3.082-.699 7.02 2.383 8.797 3.082 1.785 7.02.734 8.801-2.348-1.27-2.082-1.383-4.718-.25-6.691-1.335-1.999-3.521-3.112-5.8-2.981" fill="#ed8e68"/>
    <path d="m24.04 12.05c-3.582 0-6.449 2.887-6.449 6.449 0 3.578 2.887 6.449 6.449 6.449-1.855-3.043-.895-7.02 2.148-8.867 1.055-.637 2.211-.941 3.359-.938-1.133-1.855-3.176-3.09-5.508-3.09m0-.004" fill="#b0c6de"/>
  </g>
</svg>
