<svg viewBox="0 0 48 48" xmlns="http://www.w3.org/2000/svg" xmlns:xlink="http://www.w3.org/1999/xlink">
  <linearGradient id="a" gradientTransform="matrix(0 -1 1 0 -.0000015 47.999998)" gradientUnits="userSpaceOnUse" x1="1" x2="47">
    <stop offset="0" stop-color="#f59b5f"/>
    <stop offset="1" stop-color="#f6a772"/>
  </linearGradient>
  <path d="m47 24c0 22.703-.297 23-23 23-22.703 0-23-.297-23-23 0-22.703.297-23 23-23 22.703 0 23 .297 23 23z" fill="url(#a)"/>
  <g transform="translate(-.00046046)">
    <path d="m15.965 26.395c-.26-.713-.131-1.278.167-1.779 1.438-.682 2.682-.48 3.962-.445l2.086-6.671c.464-1.395 1.585-2.755 4.04-4.04 1.652-.819 4.957-.409 6.672.243 3.164 2.047 3.096 4.069 3.106 6.156-.12 4.073-2.757 6.343-4.233 6.984-.855.339-3.284.294-4.629-.89l-1.418.162.918 1.254c.36.496.698 1.158.875 1.739-.427.763-.979.814-1.627.283 0 0-.459-1.901-.751-1.699-.694 2.572-1.772 4.943-2.924 7.36-2.21 3.76-4.878 1.172-3.336-.202.375-.364 1.126-1.537.875-1.617-.255-.082-2.043-1.172-2.043-1.172 0 0-1.293 1.214-1.46 1.375-1.589 1.496-2.835.278-1.96-1.214l2.627-2.062 1.752-1.779c.798-1.127.913-1.769.735-2.628-.255.122-2.57.728-2.57.728-.464.313-.646.071-.87-.082m0 0" opacity=".1"/>
    <path d="m14.965 25.395c-.26-.713-.131-1.278.167-1.779 1.438-.682 2.682-.48 3.962-.445l2.086-6.671c.464-1.395 1.585-2.755 4.04-4.04 1.652-.819 4.957-.409 6.672.243 3.164 2.047 3.096 4.069 3.106 6.156-.12 4.073-2.757 6.343-4.233 6.984-.855.339-3.284.294-4.629-.89l-1.418.162.918 1.254c.36.496.698 1.158.875 1.739-.427.763-.979.814-1.627.283 0 0-.459-1.901-.751-1.699-.694 2.572-1.772 4.943-2.924 7.36-2.21 3.76-4.878 1.172-3.336-.202.375-.364 1.126-1.537.875-1.617-.255-.082-2.043-1.172-2.043-1.172 0 0-1.293 1.214-1.46 1.375-1.589 1.496-2.835.278-1.96-1.214l2.627-2.062 1.752-1.779c.798-1.127.913-1.769.735-2.628-.255.122-2.57.728-2.57.728-.464.313-.646.071-.87-.082m0 0" fill="#4689cc"/>
    <path d="m30.04 14.155c-1.866.252-3.535 2.214-3.951 4.772-.472 2.922.905 5.494 3.063 5.782 2.16.294 4.277-1.809 4.751-4.73.472-2.922-.899-5.529-3.063-5.822-.271-.035-.533-.035-.8 0m-.134 3.396c.105-.03.222-.035.311 0 .361.141.399.758.09 1.416-.311.657-.882 1.071-1.243.93-.361-.132-.399-.758-.09-1.416.233-.49.611-.844.932-.93m2.798.485c.372.111.504.774.267 1.456-.239.682-.783 1.122-1.155 1.01-.372-.111-.46-.732-.222-1.416.244-.682.739-1.162 1.11-1.052m0 0" fill="#fbdd4c"/>
  </g>
</svg>
