<svg viewBox="0 0 48 48" xmlns="http://www.w3.org/2000/svg" xmlns:xlink="http://www.w3.org/1999/xlink">
  <linearGradient id="a" gradientTransform="matrix(0 -1 1 0 -.0000015 47.999998)" gradientUnits="userSpaceOnUse" x1="1" x2="47">
    <stop offset="0" stop-color="#5dbacb"/>
    <stop offset="1" stop-color="#6cc0d0"/>
  </linearGradient>
  <path d="m24 1c22.703 0 23 .297 23 23 0 22.703-.297 23-23 23-22.703 0-23-.297-23-23 0-22.703.297-23 23-23z" fill="url(#a)"/>
  <path d="m25 14c-5.523 0-11 1.398-11 3.125v2.5c0 1.727 5.477 3.375 11 3.375 5.523 0 11-1.648 11-3.375v-2.5c0-1.727-5.477-3.125-11-3.125m0 0" opacity=".1"/>
  <path d="m26 25c-4.477 0-10.285-.918-11.559-2.188-.297.297-.441.609-.441.938v2.5c0 1.727 6.477 2.75 12 2.75 5.523 0 10-1.023 10-2.75v-2.5c0-.328-.176-.641-.477-.938-1.273 1.27-5.05 2.188-9.523 2.188m0 0" opacity=".1"/>
  <path d="m26 32c-4.477 0-10.285-1.297-11.559-2.563-.297.297-.441.609-.441.938v2.5c0 1.727 6.477 3.125 12 3.125 5.523 0 10-1.398 10-3.125v-2.5c0-.328-.176-.641-.477-.938-1.273 1.266-5.05 2.563-9.523 2.563m0 0" opacity=".1"/>
  <path d="m31 19h1v1h-1m0-1" opacity=".1"/>
  <path d="m31 26.02h1v1h-1m0-1" opacity=".1"/>
  <path d="m31 32.996h1v1h-1m0-1" opacity=".1"/>
  <path d="m24 13c-5.523 0-11 1.398-11 3.125v2.5c0 1.727 5.477 3.375 11 3.375 5.523 0 11-1.648 11-3.375v-2.5c0-1.727-5.477-3.125-11-3.125m0 0" fill="#f9f9f9"/>
  <path d="m25 24c-4.477 0-10.285-.918-11.559-2.188-.297.297-.441.609-.441.938v2.5c0 1.727 6.477 2.75 12 2.75 5.523 0 10-1.023 10-2.75v-2.5c0-.328-.176-.641-.477-.938-1.273 1.27-5.05 2.188-9.523 2.188m0 0" fill="#f9f9f9"/>
  <path d="m25 31c-4.477 0-10.285-1.297-11.559-2.563-.297.297-.441.609-.441.938v2.5c0 1.727 6.477 3.125 12 3.125 5.523 0 10-1.398 10-3.125v-2.5c0-.328-.176-.641-.477-.938-1.273 1.266-5.05 2.563-9.523 2.563m0 0" fill="#f9f9f9"/>
  <path d="m29.15 22.782l-.39 1.976c-.481.129-.939.323-1.364.557l-1.753-1.113-1.698 1.642 1.141 1.698c-.241.411-.423.842-.557 1.308l-2.032.39v2.366l2.032.39c.133.466.316.924.557 1.336l-1.141 1.67 1.698 1.67 1.753-1.141c.425.233.883.428 1.364.557l.39 1.976h2.449l.39-1.976c.481-.129.939-.323 1.364-.557l1.753 1.141 1.698-1.67-1.141-1.67c.241-.411.423-.87.557-1.336l2.032-.39v-2.366l-2.032-.39c-.133-.466-.316-.897-.557-1.308l1.141-1.698-1.698-1.642-1.753 1.113c-.425-.233-.883-.428-1.364-.557l-.39-1.976zm1.225 4.954c1.476 0 2.672 1.196 2.672 2.672 0 1.476-1.196 2.672-2.672 2.672-1.476 0-2.672-1.196-2.672-2.672 0-1.476 1.196-2.672 2.672-2.672z" opacity=".1"/>
  <path d="m28.15 21.782l-.39 1.976c-.481.129-.939.323-1.364.557l-1.753-1.113-1.698 1.642 1.141 1.698c-.241.411-.423.842-.557 1.308l-2.032.39v2.366l2.032.39c.133.466.316.924.557 1.336l-1.141 1.67 1.698 1.67 1.753-1.141c.425.233.883.428 1.364.557l.39 1.976h2.449l.39-1.976c.481-.129.939-.323 1.364-.557l1.753 1.141 1.698-1.67-1.141-1.67c.241-.411.423-.87.557-1.336l2.032-.39v-2.366l-2.032-.39c-.133-.466-.316-.897-.557-1.308l1.141-1.698-1.698-1.642-1.753 1.113c-.425-.233-.883-.428-1.364-.557l-.39-1.976zm1.225 4.954c1.476 0 2.672 1.196 2.672 2.672 0 1.476-1.196 2.672-2.672 2.672-1.476 0-2.672-1.196-2.672-2.672 0-1.476 1.196-2.672 2.672-2.672z" fill="#2d2d2d"/>
</svg>
