<svg xmlns="http://www.w3.org/2000/svg" viewBox="0 0 48 48">
 <defs>
  <linearGradient x2="47" x1="1" gradientTransform="matrix(0,-1,1,0,-1.5e-6,47.999998)" gradientUnits="userSpaceOnUse" id="linearGradient3056">
   <stop style="stop-color:#5dbacb;stop-opacity:1"/>
   <stop offset="1" style="stop-color:#6cc0d0;stop-opacity:1"/>
  </linearGradient>
 </defs>
 
 
 
 <path d="M 24,1 C 46.703,1 47,1.297 47,24 47,46.703 46.703,47 24,47 1.297,47 1,46.703 1,24 1,1.297 1.297,1 24,1 z" style="fill:url(#linearGradient3056);fill-opacity:1"/>
 <path d="m 25,14 c -5.523,0 -11,1.398 -11,3.125 l 0,2.5 C 14,21.352 19.477,23 25,23 c 5.523,0 11,-1.648 11,-3.375 l 0,-2.5 C 36,15.398 30.523,14 25,14 m 0,0" style="fill:#000;opacity:0.1;fill-opacity:1;stroke:none;fill-rule:nonzero"/>
 <path d="M 26,25 C 21.523,25 15.715,24.082 14.441,22.812 14.144,23.109 14,23.421 14,23.75 l 0,2.5 c 0,1.727 6.477,2.75 12,2.75 5.523,0 10,-1.023 10,-2.75 l 0,-2.5 C 36,23.422 35.824,23.109 35.523,22.812 34.25,24.082 30.473,25 26,25 m 0,0" style="fill:#000;opacity:0.1;fill-opacity:1;stroke:none;fill-rule:nonzero"/>
 <path d="M 26,32 C 21.523,32 15.715,30.703 14.441,29.437 14.144,29.734 14,30.046 14,30.375 l 0,2.5 C 14,34.602 20.477,36 26,36 c 5.523,0 10,-1.398 10,-3.125 l 0,-2.5 C 36,30.047 35.824,29.734 35.523,29.437 34.25,30.703 30.473,32 26,32 m 0,0" style="fill:#000;opacity:0.1;fill-opacity:1;stroke:none;fill-rule:nonzero"/>
 <path d="m 31 19 1 0 0 1 -1 0 m 0 -1" style="fill:#000;opacity:0.1;fill-opacity:1;stroke:none;fill-rule:nonzero"/>
 <path d="m 31 26.02 1 0 0 1 -1 0 m 0 -1" style="fill:#000;opacity:0.1;fill-opacity:1;stroke:none;fill-rule:nonzero"/>
 <path d="m 31 32.996 1 0 0 1 -1 0 m 0 -1" style="fill:#000;opacity:0.1;fill-opacity:1;stroke:none;fill-rule:nonzero"/>
 <path d="m 24,13 c -5.523,0 -11,1.398 -11,3.125 l 0,2.5 C 13,20.352 18.477,22 24,22 c 5.523,0 11,-1.648 11,-3.375 l 0,-2.5 C 35,14.398 29.523,13 24,13 m 0,0" style="fill:#f9f9f9;fill-opacity:1;stroke:none;fill-rule:nonzero"/>
 <path d="M 25,24 C 20.523,24 14.715,23.082 13.441,21.812 13.144,22.109 13,22.421 13,22.75 l 0,2.5 c 0,1.727 6.477,2.75 12,2.75 5.523,0 10,-1.023 10,-2.75 l 0,-2.5 C 35,22.422 34.824,22.109 34.523,21.812 33.25,23.082 29.473,24 25,24 m 0,0" style="fill:#f9f9f9;fill-opacity:1;stroke:none;fill-rule:nonzero"/>
 <path d="M 25,31 C 20.523,31 14.715,29.703 13.441,28.437 13.144,28.734 13,29.046 13,29.375 l 0,2.5 C 13,33.602 19.477,35 25,35 c 5.523,0 10,-1.398 10,-3.125 l 0,-2.5 C 35,29.047 34.824,28.734 34.523,28.437 33.25,29.703 29.473,31 25,31 m 0,0" style="fill:#f9f9f9;fill-opacity:1;stroke:none;fill-rule:nonzero"/>
 
 <path d="m 26.805 23 c -0.459 0.008 -0.922 0.094 -1.355 0.261 l 2.328 2.327 c 0.408 0.385 0.576 0.963 0.435 1.51 -0.14 0.547 -0.566 0.97 -1.111 1.111 -0.545 0.14 -1.123 -0.025 -1.51 -0.435 l -2.326 -2.325 c -0.541 1.385 -0.256 3.034 0.863 4.149 1.119 1.119 2.765 1.404 4.15 0.863 l 6.05 6.05 c 0.386 0.41 0.969 0.576 1.51 0.437 0.545 -0.136 0.969 -0.566 1.111 -1.111 0.141 -0.545 -0.026 -1.125 -0.435 -1.51 l -6.05 -6.05 c 0.541 -1.385 0.256 -3.034 -0.863 -4.149 -0.767 -0.769 -1.785 -1.142 -2.795 -1.127 m 8.607 11.88 c 0.289 0 0.523 0.234 0.523 0.523 0 0.291 -0.234 0.525 -0.523 0.525 -0.289 0 -0.525 -0.234 -0.525 -0.525 0 -0.289 0.234 -0.523 0.525 -0.523 m 0 0" style="fill:#000;opacity:0.1;fill-opacity:1;stroke:none;fill-rule:nonzero"/>
 <g transform="matrix(0.49999864,0,0,0.49985776,17.000467,17.001422)">
  <g>
   <!-- color: #e8a23b -->
   <g>
    <path d="m 17.609,10 c -0.918,0.016 -1.844,0.188 -2.711,0.523 l 4.656,4.656 c 0.816,0.77 1.152,1.926 0.871,3.02 -0.281,1.094 -1.133,1.941 -2.223,2.223 -1.09,0.281 -2.246,-0.051 -3.02,-0.871 L 10.53,14.899 c -1.082,2.77 -0.512,6.07 1.727,8.301 2.238,2.238 5.531,2.809 8.301,1.727 l 12.1,12.11 c 0.773,0.82 1.938,1.152 3.02,0.875 1.09,-0.273 1.938,-1.133 2.223,-2.223 0.281,-1.09 -0.051,-2.25 -0.871,-3.02 l -12.1,-12.1 c 1.082,-2.77 0.512,-6.07 -1.727,-8.301 -1.535,-1.539 -3.57,-2.285 -5.59,-2.254 M 34.828,33.78 c 0.578,0 1.047,0.469 1.047,1.047 0,0.582 -0.469,1.051 -1.047,1.051 -0.578,0 -1.051,-0.469 -1.051,-1.051 0,-0.578 0.469,-1.047 1.051,-1.047 m 0,0" style="fill:#2d2d2d;fill-opacity:1;stroke:none;fill-rule:nonzero"/>
   </g>
  </g>
 </g>
</svg>
