<svg xmlns="http://www.w3.org/2000/svg" viewBox="0 0 48 48">
 <defs>
  <linearGradient id="linearGradient3764" x1="1" x2="47" gradientUnits="userSpaceOnUse" gradientTransform="matrix(0,-1,1,0,-1.5e-6,47.999998)">
   <stop style="stop-color:#f6d22a;stop-opacity:1"/>
   <stop offset="1" style="stop-color:#f7d63d;stop-opacity:1"/>
  </linearGradient>
 </defs>
 <g>
  
  
  
 </g>
 <g>
  <path d="m 47,24 C 47,46.703 46.703,47 24,47 1.297,47 1,46.703 1,24 1,1.297 1.297,1 24,1 46.703,1 47,1.297 47,24 z" style="fill:url(#linearGradient3764);fill-opacity:1"/>
 </g>
 <g>
  
 </g>
 <g transform="matrix(3.543307,0,0,3.543307,5.7909046e-8,0.00118191)">
  <path d="m 5.634 9.313 c 0.064 -0.262 0.271 -0.452 0.451 -0.605 0.118 -0.076 0.124 -0.139 0.029 -0.183 -0.48 -0.221 -0.875 -0.358 -1.272 -0.575 -0.672 -0.373 -1.057 -0.914 -1.159 -1.628 -0.021 -0.171 -0.021 -0.349 0.009 -0.474 0.041 -0.089 0.127 -0.142 0.229 -0.142 c 0.065 0 0.103 0.015 0.285 0.116 0.415 0.229 0.821 0.411 1.033 0.464 0.087 0.021 0.096 0.021 0.145 -0.006 c 0.234 -0.129 0.415 -0.325 0.496 -0.354 l 1.86 0 c 0.647 0.692 1.558 0.882 2.345 0.461 0.209 -0.123 0.334 -0.249 0.402 -0.461 l 0.52 0 c 0 0.039 -0.108 0.326 -0.185 0.429 -0.248 0.332 -0.634 0.6 -1.22 0.846 c -0.841 0.418 -1.407 0.99 -2.133 1.324 -0.141 0.071 -0.024 0.112 0.037 0.182 0.196 0.177 0.337 0.365 0.402 0.605 m -2.713 -1.86 -0.128 -0.637 c -0.011 -0.007 -0.065 -0.028 -0.121 -0.046 -0.111 -0.036 -0.402 -0.157 -0.529 -0.221 -0.094 -0.047 -0.145 -0.052 -0.145 -0.014 c 0 0.05 0.117 0.282 0.203 0.404 0.095 0.134 0.2 0.241 0.344 0.352 0.133 0.101 0.308 0.205 0.348 0.205 0.03 0 0.033 -0.006 0.027 -0.042 z m 0.78 -1.808 c 0.006 -0.011 0.069 -0.131 0.14 -0.246 0.296 -0.475 0.433 -0.601 0.655 -0.601 c 0.212 0 0.362 0.134 0.643 0.579 0.088 0.138 0.159 0.263 0.159 0.268 z" style="fill:#000;opacity:0.1;fill-opacity:1"/>
  <path d="m 5.352 9.03 c 0.064 -0.262 0.271 -0.452 0.451 -0.605 0.118 -0.076 0.124 -0.139 0.029 -0.183 -0.48 -0.221 -0.875 -0.358 -1.272 -0.575 -0.672 -0.373 -1.057 -0.914 -1.159 -1.628 -0.021 -0.171 -0.021 -0.349 0.009 -0.474 0.041 -0.089 0.127 -0.142 0.229 -0.142 c 0.065 0 0.103 0.015 0.285 0.116 0.415 0.229 0.821 0.411 1.033 0.464 0.087 0.021 0.096 0.021 0.145 -0.006 c 0.234 -0.129 0.415 -0.325 0.496 -0.354 l 1.86 0 c 0.649 0.693 1.558 0.882 2.345 0.461 0.209 -0.123 0.334 -0.249 0.402 -0.461 l 0.52 0 c 0 0.039 -0.108 0.326 -0.185 0.429 c -0.248 0.332 -0.634 0.6 -1.22 0.846 -0.841 0.418 -1.407 0.99 -2.133 1.324 -0.141 0.071 -0.024 0.112 0.037 0.182 0.196 0.177 0.337 0.365 0.402 0.605 m -2.713 -1.86 -0.128 -0.637 c -0.011 -0.007 -0.065 -0.028 -0.121 -0.046 -0.111 -0.036 -0.402 -0.157 -0.529 -0.221 -0.094 -0.047 -0.145 -0.052 -0.145 -0.014 c 0 0.05 0.117 0.282 0.203 0.404 0.095 0.134 0.2 0.241 0.344 0.352 0.133 0.101 0.308 0.205 0.348 0.205 0.03 0 0.033 -0.006 0.027 -0.042 z m 0.78 -1.808 c 0.006 -0.011 0.069 -0.131 0.14 -0.246 0.296 -0.475 0.433 -0.601 0.655 -0.601 c 0.212 0 0.362 0.134 0.643 0.579 0.088 0.138 0.159 0.263 0.159 0.268 z" style="fill:#d11616;fill-opacity:1"/>
 </g>
</svg>
