<svg viewBox="0 0 48 48" xmlns="http://www.w3.org/2000/svg" xmlns:xlink="http://www.w3.org/1999/xlink">
  <linearGradient id="a" gradientTransform="matrix(0 -1 1 0 -.0000015 47.999998)" gradientUnits="userSpaceOnUse" x1="1" x2="47">
    <stop offset="0" stop-color="#643c54"/>
    <stop offset="1" stop-color="#71435e"/>
  </linearGradient>
  <path d="m47 24c0 22.703-.297 23-23 23-22.703 0-23-.297-23-23 0-22.703.297-23 23-23 22.703 0 23 .297 23 23z" fill="url(#a)"/>
  <path d="m24.998 12l-3.105 1.996h-6.893v4.428l-2 1.287v14.57c0 1.715 0 1.715 1.781 1.715h20.443c1.777 0 1.775 0 1.775-1.715v-14.57l-2-1.287v-4.428h-6.893l-3.105-1.996z" opacity=".1" transform=""/>
  <path d="m13.777 35h20.445c1.777 0 1.777 0 1.777-1.715v-14.57l-12-7.711-12 7.711v14.57c0 1.715 0 1.715 1.781 1.715m0 0" fill="#cf9519"/>
  <path d="m14 13v20h19.996v-20m-19.996 0" fill="#f9f9f9"/>
  <path d="m13.777 35h20.445c1.777 0 1.777 0 1.777-1.68v-14.316l-24 14.316c0 1.68 0 1.68 1.781 1.68m-.004 0" fill="#f3b236"/>
  <path d="m34.22 35h-20.445c-1.781 0-1.781 0-1.781-1.684v-14.313l24 14.313c0 1.684 0 1.684-1.77 1.684m.004 0" fill="#fbd65a"/>
</svg>
