<svg viewBox="0 0 48 48" xmlns="http://www.w3.org/2000/svg" xmlns:xlink="http://www.w3.org/1999/xlink">
  <linearGradient id="a" gradientTransform="matrix(0 -1 1 0 -.0000015 47.999998)" gradientUnits="userSpaceOnUse" x1="1" x2="47">
    <stop offset="0" stop-color="#9dd7c7"/>
    <stop offset="1" stop-color="#abddd0"/>
  </linearGradient>
  <path d="m47 24c0 22.703-.297 23-23 23-22.703 0-23-.297-23-23 0-22.703.297-23 23-23 22.703 0 23 .297 23 23z" fill="url(#a)"/>
  <path d="m25 11l-3 4v4h-2c-4.432 0-8 3.568-8 8v8h3v-8c0-2.77 2.23-5 5-5h2v5a8 8 0 0 0 8 8 8 8 0 0 0  8-8c0-4.432-3.568-8-8-8h-5z" opacity=".1"/>
  <g transform="translate(-22 -107)">
    <path d="m53 126.27l-2.76 4.917 2.552 3.127 5.207-3.312" fill="#554ae8"/>
    <path d="m56 138l-4.083-2.713 1.583-2.787 4.5-1.5" fill="#3e32e6"/>
    <path d="m56 138l-3-3-3.501-.833-.499 5.833" fill="#584cea"/>
    <path d="m45 135l3.984-2.391 1.266 2.641-1.25 4.75" fill="#776fef"/>
    <path d="m46 128l4.02 3.156-1.516 2.344-3.5 1.5" fill="#8e87f1"/>
    <path d="m53 126.27l-1.5 4.232c0 0-1.631.971-2.5.5l-3-3z" fill="#6a60ea"/>
    <path d="m46 117l-3 4v4h-2c-4.432 0-8 3.568-8 8v8h3v-8c0-2.77 2.23-5 5-5h2v5a8 8 0 0 0 8 8 8 8 0 0 0  8-8c0-4.432-3.568-8-8-8h-5zm0 11h5a5 5 0 0 1 5 5 5 5 0 0 1-5 5 5 5 0 0 1-5-5z" fill="#373737"/>
    <path d="m49 131l2.5-.5 2 2-.5 2.5-2.75.25-1.75-1.75z" fill="#a39df3"/>
  </g>
</svg>
