<svg xmlns="http://www.w3.org/2000/svg" viewBox="0 0 48 48">
 <defs>
  <linearGradient id="linearGradient3764" x1="1" x2="47" gradientUnits="userSpaceOnUse" gradientTransform="matrix(0,-1,1,0,-1.5e-6,47.999998)">
   <stop style="stop-color:#9dd7c7;stop-opacity:1"/>
   <stop offset="1" style="stop-color:#abddd0;stop-opacity:1"/>
  </linearGradient>
 </defs>
 <g>
  
  
  
 </g>
 <g>
  <path d="m 47,24 C 47,46.703 46.703,47 24,47 1.297,47 1,46.703 1,24 1,1.297 1.297,1 24,1 46.703,1 47,1.297 47,24 z" style="fill:url(#linearGradient3764);fill-opacity:1"/>
 </g>
 <g>
  
 </g>
 <path d="m 25 11 -3 4 0 4 -2 0 c -4.432 0 -8 3.568 -8 8 l 0 8 3 0 0 -8 c 0 -2.77 2.23 -5 5 -5 l 2 0 0 5 a 8 8 0 0 0 8 8 8 8 0 0 0 8 -8 c 0 -4.432 -3.568 -8 -8 -8 l -5 0 0 -8 z" style="fill:#000;opacity:0.1;fill-opacity:1;stroke:none"/>
 <g transform="translate(-22,-107)">
  <path d="m 53 126.27 -2.76 4.917 2.552 3.127 l 5.207 -3.312" style="fill:#554ae8;opacity:1;fill-opacity:1;stroke:none"/>
  <path d="m 56 138 -4.083 -2.713 1.583 -2.787 4.5 -1.5" style="fill:#3e32e6;opacity:1;fill-opacity:1;stroke:none"/>
  <path d="m 56 138 -3 -3 -3.501 -0.833 -0.499 5.833" style="fill:#584cea;opacity:1;fill-opacity:1;stroke:none"/>
  <path d="m 45 135 3.984 -2.391 1.266 2.641 -1.25 4.75" style="fill:#776fef;opacity:1;fill-opacity:1;stroke:none"/>
  <path d="m 46 128 4.02 3.156 l -1.516 2.344 -3.5 1.5" style="fill:#8e87f1;opacity:1;fill-opacity:1;stroke:none"/>
  <path d="m 53 126.27 -1.5 4.232 c 0 0 -1.631 0.971 -2.5 0.5 l -3 -3 z" style="fill:#6a60ea;opacity:1;fill-opacity:1;stroke:none"/>
  <path d="m 46 117 -3 4 0 4 -2 0 c -4.432 0 -8 3.568 -8 8 l 0 8 3 0 0 -8 c 0 -2.77 2.23 -5 5 -5 l 2 0 0 5 a 8 8 0 0 0 8 8 8 8 0 0 0 8 -8 c 0 -4.432 -3.568 -8 -8 -8 l -5 0 0 -8 z m 0 11 5 0 a 5 5 0 0 1 5 5 5 5 0 0 1 -5 5 5 5 0 0 1 -5 -5 l 0 -5 z" style="fill:#373737;opacity:1;fill-opacity:1;stroke:none"/>
  <path d="m 49 131 2.5 -0.5 2 2 -0.5 2.5 -2.75 0.25 -1.75 -1.75 z" style="fill:#a39df3;opacity:1;fill-opacity:1;stroke:none"/>
 </g>
</svg>
