<svg viewBox="0 0 48 48" xmlns="http://www.w3.org/2000/svg" xmlns:xlink="http://www.w3.org/1999/xlink">
  <linearGradient id="a" gradientTransform="matrix(0 -1 1 0 -.0000015 47.999998)" gradientUnits="userSpaceOnUse" x1="1" x2="47">
    <stop offset="0" stop-color="#e72768"/>
    <stop offset="1" stop-color="#ea3e78"/>
  </linearGradient>
  <path d="m47 24c0 22.703-.297 23-23 23-22.703 0-23-.297-23-23 0-22.703.297-23 23-23 22.703 0 23 .297 23 23z" fill="url(#a)"/>
  <g transform="matrix(3.543307 0 0 3.543307 .00000022 -.0023614)">
    <path d="m4.516 5.644c-.935 0-1.693.758-1.693 1.693 0 .935.758 1.693 1.693 1.693.935 0 1.693-.758 1.693-1.693 0-.935-.758-1.693-1.693-1.693zm0 .564c.623 0 1.129.505 1.129 1.129 0 .623-.505 1.129-1.129 1.129-.623 0-1.129-.505-1.129-1.129 0-.623.505-1.129 1.129-1.129z" opacity=".1"/>
    <path d="m9.03 4.798c-1.247 0-2.258 1.01-2.258 2.258 0 1.247 1.01 2.258 2.258 2.258 1.247 0 2.258-1.01 2.258-2.258 0-1.247-1.01-2.258-2.258-2.258zm0 .564c.935 0 1.693.758 1.693 1.693 0 .935-.758 1.693-1.693 1.693-.935 0-1.693-.758-1.693-1.693 0-.935.758-1.693 1.693-1.693z" opacity=".1"/>
    <path d="m4.233 5.362c-.935 0-1.693.758-1.693 1.693 0 .935.758 1.693 1.693 1.693.935 0 1.693-.758 1.693-1.693 0-.935-.758-1.693-1.693-1.693m0 .564c.623 0 1.129.505 1.129 1.129 0 .623-.505 1.129-1.129 1.129-.623 0-1.129-.505-1.129-1.129 0-.623.505-1.129 1.129-1.129z" fill="#f9f9f9"/>
    <path d="m8.749 4.516c-1.247 0-2.258 1.01-2.258 2.258 0 1.247 1.01 2.258 2.258 2.258 1.247 0 2.258-1.01 2.258-2.258 0-1.247-1.01-2.258-2.258-2.258zm0 .564c.935 0 1.693.758 1.693 1.693 0 .935-.758 1.693-1.693 1.693-.935 0-1.693-.758-1.693-1.693 0-.935.758-1.693 1.693-1.693z" fill="#f9f9f9"/>
  </g>
</svg>
