<svg xmlns="http://www.w3.org/2000/svg" viewBox="0 0 48 48">
 <defs>
  <linearGradient id="linearGradient3764" x1="1" x2="47" gradientUnits="userSpaceOnUse" gradientTransform="matrix(0,-1,1,0,-1.5e-6,47.999998)">
   <stop style="stop-color:#f3e3e8;stop-opacity:1"/>
   <stop offset="1" style="stop-color:#f9f1f3;stop-opacity:1"/>
  </linearGradient>
 </defs>
 <g>
  
  
  
 </g>
 <g>
  <path d="m 47,24 C 47,46.703 46.703,47 24,47 1.297,47 1,46.703 1,24 1,1.297 1.297,1 24,1 46.703,1 47,1.297 47,24 z" style="fill:url(#linearGradient3764);fill-opacity:1"/>
 </g>
 <g>
  
 </g>
 <path d="m 31.996 16.998 c -4.419 0 -8 3.58 -8 8 0 4.419 3.578 8 8 8 4.419 0 8 -3.578 8 -8 0 -4.419 -3.578 -8 -8 -8 z m 0 1.998 c 3.313 0 5.998 2.687 5.998 6 0 3.313 -2.685 5.998 -5.998 5.998 -3.313 0 -5.998 -2.685 -5.998 -5.998 0 -3.313 2.685 -6 5.998 -6 z m -15.994 1 c -3.313 0 -6 2.685 -6 5.998 0 3.313 2.687 6 6 6 3.313 0 5.998 -2.687 5.998 -6 0 -3.313 -2.685 -5.998 -5.998 -5.998 z m 0 1.998 c 2.207 0 4 1.789 4 4 0 2.207 -1.789 4 -4 4 -2.207 0 -4 -1.791 -4 -4 0 -2.207 1.789 -4 4 -4 z" style="fill:#000;opacity:0.1;fill-opacity:1;stroke:none"/>
 <path d="m 31 16 c -4.419 0 -8 3.578 -8 8 0 4.419 3.578 8 8 8 4.419 0 8 -3.578 8 -8 0 -4.419 -3.58 -8 -8 -8 z m 0 1.998 c 3.313 0 6 2.685 6 5.998 0 3.313 -2.687 6 -6 6 -3.313 0 -5.998 -2.687 -5.998 -6 0 -3.313 2.685 -5.998 5.998 -5.998 z m -16 0.998 c -3.313 0 -5.998 2.687 -5.998 6 0 3.313 2.685 5.998 5.998 5.998 3.313 0 6 -2.685 6 -5.998 0 -3.313 -2.687 -6 -6 -6 z m 0 2 c 2.207 0 4 1.789 4 4 0 2.207 -1.791 4 -4 4 -2.207 0 -4 -1.789 -4 -4 0 -2.207 1.789 -4 4 -4 z" style="fill:#e72869;fill-opacity:1;stroke:none"/>
</svg>
