<svg viewBox="0 0 48 48" xmlns="http://www.w3.org/2000/svg" xmlns:xlink="http://www.w3.org/1999/xlink">
  <linearGradient id="a" gradientTransform="matrix(0 -1 1 0 -.0000015 47.999998)" gradientUnits="userSpaceOnUse" x1="1" x2="47">
    <stop offset="0" stop-color="#f3e3e8"/>
    <stop offset="1" stop-color="#f9f1f3"/>
  </linearGradient>
  <path d="m47 24c0 22.703-.297 23-23 23-22.703 0-23-.297-23-23 0-22.703.297-23 23-23 22.703 0 23 .297 23 23z" fill="url(#a)"/>
  <path d="m31.996 16.998c-4.419 0-8 3.58-8 8 0 4.419 3.578 8 8 8 4.419 0 8-3.578 8-8 0-4.419-3.578-8-8-8zm0 1.998c3.313 0 5.998 2.687 5.998 6 0 3.313-2.685 5.998-5.998 5.998-3.313 0-5.998-2.685-5.998-5.998 0-3.313 2.685-6 5.998-6zm-15.994 1c-3.313 0-6 2.685-6 5.998 0 3.313 2.687 6 6 6 3.313 0 5.998-2.687 5.998-6 0-3.313-2.685-5.998-5.998-5.998zm0 1.998c2.207 0 4 1.789 4 4 0 2.207-1.789 4-4 4-2.207 0-4-1.791-4-4 0-2.207 1.789-4 4-4z" opacity=".1"/>
  <path d="m31 16c-4.419 0-8 3.578-8 8 0 4.419 3.578 8 8 8 4.419 0 8-3.578 8-8 0-4.419-3.58-8-8-8zm0 1.998c3.313 0 6 2.685 6 5.998 0 3.313-2.687 6-6 6-3.313 0-5.998-2.687-5.998-6 0-3.313 2.685-5.998 5.998-5.998zm-16 .998c-3.313 0-5.998 2.687-5.998 6 0 3.313 2.685 5.998 5.998 5.998 3.313 0 6-2.685 6-5.998 0-3.313-2.687-6-6-6zm0 2c2.207 0 4 1.789 4 4 0 2.207-1.791 4-4 4-2.207 0-4-1.789-4-4 0-2.207 1.789-4 4-4z" fill="#e72869"/>
</svg>
