<svg xmlns="http://www.w3.org/2000/svg" viewBox="0 0 48 48">
 <defs>
  <linearGradient id="linearGradient3764" x1="1" x2="47" gradientUnits="userSpaceOnUse" gradientTransform="matrix(0,-1,1,0,-1.5e-6,47.999998)">
   <stop style="stop-color:#e4e4e4;stop-opacity:1"/>
   <stop offset="1" style="stop-color:#eee;stop-opacity:1"/>
  </linearGradient>
 </defs>
 <g>
  
  
  
 </g>
 <g>
  <path d="m 47,24 C 47,46.703 46.703,47 24,47 1.297,47 1,46.703 1,24 1,1.297 1.297,1 24,1 46.703,1 47,1.297 47,24 z" style="fill:url(#linearGradient3764);fill-opacity:1"/>
 </g>
 <g>
  <g>
   <g transform="translate(1,1)">
    <g style="opacity:0.1">
     <!-- color: #eeeeee -->
     <g>
      <path d="m 24.5 13 c -1.276 0 -2.32 0.963 -2.471 2.199 c -0.077 0.027 -0.155 0.046 -0.232 0.074 l 0.004 0.008 c -3.599 1.309 -6.292 3.839 -7.613 6.75 c -1.23 0.156 -2.188 1.197 -2.188 2.469 c 0 0.948 0.536 1.764 1.314 2.188 c 0.06 0.878 0.235 1.752 0.568 2.604 c 0.793 2.025 2.278 3.635 4.166 4.73 c -0.03 0.155 -0.049 0.315 -0.049 0.479 c 0 1.379 1.121 2.5 2.5 2.5 c 1 0 1.861 -0.596 2.26 -1.449 c 2.136 0.259 4.43 0.035 6.666 -0.779 c 1.289 -0.469 2.458 -1.101 3.494 -1.846 c 0.187 0.045 0.38 0.074 0.58 0.074 c 1.379 0 2.5 -1.121 2.5 -2.5 c 0 -0.196 -0.027 -0.385 -0.07 -0.568 c 1.901 -2.668 2.553 -5.892 1.51 -8.873 c 0.345 -0.429 0.561 -0.966 0.561 -1.559 c 0 -1.379 -1.121 -2.5 -2.5 -2.5 c -0.27 0 -0.526 0.053 -0.77 0.133 c -2.074 -1.777 -4.938 -2.765 -8.01 -2.748 c -0.411 -0.817 -1.248 -1.385 -2.225 -1.385 z m 2.324 3.4 c 2.436 0.046 4.692 0.868 6.313 2.318 c -0.082 0.247 -0.137 0.507 -0.137 0.781 c 0 1.298 0.997 2.356 2.264 2.477 c 0.673 2.085 0.347 4.297 -0.766 6.234 c -0.306 -0.134 -0.643 -0.211 -0.998 -0.211 c -1.379 0 -2.5 1.121 -2.5 2.5 c 0 0.4 0.104 0.774 0.271 1.109 c -0.773 0.519 -1.631 0.963 -2.568 1.305 c -2 0.728 -4.05 0.892 -5.92 0.578 c -0.389 -0.877 -1.263 -1.492 -2.283 -1.492 c -0.4 0 -0.774 0.104 -1.109 0.271 c -1.489 -0.887 -2.659 -2.177 -3.291 -3.795 c -0.228 -0.583 -0.369 -1.177 -0.439 -1.775 c 0.793 -0.42 1.34 -1.243 1.34 -2.201 c 0 -0.687 -0.279 -1.309 -0.729 -1.762 c 1.043 -2.418 3.258 -4.528 6.252 -5.617 c 0 0 0.002 0 0.002 0 c 0.023 -0.008 0.046 -0.013 0.068 -0.021 c 0.459 0.546 1.139 0.9 1.906 0.9 c 1.061 0 1.962 -0.666 2.324 -1.6 z" transform="translate(-1,-1)" style="fill:#000;fill-opacity:1;stroke:none;fill-rule:nonzero"/>
     </g>
    </g>
   </g>
  </g>
 </g>
 <g>
  <g>
   <!-- color: #eeeeee -->
   <g>
    <path d="m 20.801 14.281 c -6.465 2.352 -10.02 8.637 -7.918 14.01 c 2.105 5.375 9.08 7.832 15.543 5.48 c 6.461 -2.352 10.02 -8.641 7.914 -14.02 c -2.105 -5.375 -9.08 -7.828 -15.543 -5.477 m 0.727 1.848 c 5.266 -1.918 10.891 0.063 12.602 4.434 c 1.711 4.367 -1.152 9.441 -6.422 11.359 c -5.27 1.918 -10.898 -0.066 -12.605 -4.438 c -1.711 -4.367 1.156 -9.438 6.426 -11.355 m 0 0" style="fill:#666;fill-opacity:1;stroke:none;fill-rule:nonzero"/>
    <path d="m 26 14.5 c 0 1.379 -1.121 2.5 -2.5 2.5 c -1.379 0 -2.5 -1.121 -2.5 -2.5 c 0 -1.379 1.121 -2.5 2.5 -2.5 c 1.379 0 2.5 1.121 2.5 2.5 m 0 0" style="fill:#99f;fill-opacity:1;stroke:none;fill-rule:nonzero"/>
    <path d="m 37 18.5 c 0 1.379 -1.121 2.5 -2.5 2.5 c -1.379 0 -2.5 -1.121 -2.5 -2.5 c 0 -1.379 1.121 -2.5 2.5 -2.5 c 1.379 0 2.5 1.121 2.5 2.5 m 0 0" style="fill:#99f;fill-opacity:1;stroke:none;fill-rule:nonzero"/>
    <path d="m 35 29.5 c 0 1.379 -1.121 2.5 -2.5 2.5 c -1.379 0 -2.5 -1.121 -2.5 -2.5 c 0 -1.379 1.121 -2.5 2.5 -2.5 c 1.379 0 2.5 1.121 2.5 2.5 m 0 0" style="fill:#99f;fill-opacity:1;stroke:none;fill-rule:nonzero"/>
    <path d="m 22 33.5 c 0 1.379 -1.121 2.5 -2.5 2.5 c -1.379 0 -2.5 -1.121 -2.5 -2.5 c 0 -1.379 1.121 -2.5 2.5 -2.5 c 1.379 0 2.5 1.121 2.5 2.5 m 0 0" style="fill:#99f;fill-opacity:1;stroke:none;fill-rule:nonzero"/>
    <path d="m 16 23.5 c 0 1.379 -1.121 2.5 -2.5 2.5 c -1.379 0 -2.5 -1.121 -2.5 -2.5 c 0 -1.379 1.121 -2.5 2.5 -2.5 c 1.379 0 2.5 1.121 2.5 2.5 m 0 0" style="fill:#99f;fill-opacity:1;stroke:none;fill-rule:nonzero"/>
   </g>
  </g>
 </g>
 <g>
  
 </g>
</svg>
