<svg viewBox="0 0 48 48" xmlns="http://www.w3.org/2000/svg" xmlns:xlink="http://www.w3.org/1999/xlink">
  <linearGradient id="a" gradientTransform="matrix(0 -1 1 0 -.0000015 47.999998)" gradientUnits="userSpaceOnUse" x1="1" x2="47">
    <stop offset="0" stop-color="#e4e4e4"/>
    <stop offset="1" stop-color="#eee"/>
  </linearGradient>
  <path d="m47 24c0 22.703-.297 23-23 23-22.703 0-23-.297-23-23 0-22.703.297-23 23-23 22.703 0 23 .297 23 23z" fill="url(#a)"/>
  <path d="m24.5 13c-1.276 0-2.32.963-2.471 2.199-.077.027-.155.046-.232.074l.004.008c-3.599 1.309-6.292 3.839-7.613 6.75-1.23.156-2.188 1.197-2.188 2.469 0 .948.536 1.764 1.314 2.188.06.878.235 1.752.568 2.604.793 2.025 2.278 3.635 4.166 4.73-.03.155-.049.315-.049.479 0 1.379 1.121 2.5 2.5 2.5 1 0 1.861-.596 2.26-1.449 2.136.259 4.43.035 6.666-.779 1.289-.469 2.458-1.101 3.494-1.846.187.045.38.074.58.074 1.379 0 2.5-1.121 2.5-2.5 0-.196-.027-.385-.07-.568 1.901-2.668 2.553-5.892 1.51-8.873.345-.429.561-.966.561-1.559 0-1.379-1.121-2.5-2.5-2.5-.27 0-.526.053-.77.133-2.074-1.777-4.938-2.765-8.01-2.748-.411-.817-1.248-1.385-2.225-1.385zm2.324 3.4c2.436.046 4.692.868 6.313 2.318-.082.247-.137.507-.137.781 0 1.298.997 2.356 2.264 2.477.673 2.085.347 4.297-.766 6.234-.306-.134-.643-.211-.998-.211-1.379 0-2.5 1.121-2.5 2.5 0 .4.104.774.271 1.109-.773.519-1.631.963-2.568 1.305-2 .728-4.05.892-5.92.578-.389-.877-1.263-1.492-2.283-1.492-.4 0-.774.104-1.109.271-1.489-.887-2.659-2.177-3.291-3.795-.228-.583-.369-1.177-.439-1.775.793-.42 1.34-1.243 1.34-2.201 0-.687-.279-1.309-.729-1.762 1.043-2.418 3.258-4.528 6.252-5.617 0 0 .002 0 .002 0 .023-.008.046-.013.068-.021.459.546 1.139.9 1.906.9 1.061 0 1.962-.666 2.324-1.6z" opacity=".1" transform=""/>
  <path d="m20.801 14.281c-6.465 2.352-10.02 8.637-7.918 14.01 2.105 5.375 9.08 7.832 15.543 5.48 6.461-2.352 10.02-8.641 7.914-14.02-2.105-5.375-9.08-7.828-15.543-5.477m.727 1.848c5.266-1.918 10.891.063 12.602 4.434 1.711 4.367-1.152 9.441-6.422 11.359-5.27 1.918-10.898-.066-12.605-4.438-1.711-4.367 1.156-9.438 6.426-11.355m0 0" fill="#666"/>
  <path d="m26 14.5c0 1.379-1.121 2.5-2.5 2.5-1.379 0-2.5-1.121-2.5-2.5 0-1.379 1.121-2.5 2.5-2.5 1.379 0 2.5 1.121 2.5 2.5m0 0" fill="#99f"/>
  <path d="m37 18.5c0 1.379-1.121 2.5-2.5 2.5-1.379 0-2.5-1.121-2.5-2.5 0-1.379 1.121-2.5 2.5-2.5 1.379 0 2.5 1.121 2.5 2.5m0 0" fill="#99f"/>
  <path d="m35 29.5c0 1.379-1.121 2.5-2.5 2.5-1.379 0-2.5-1.121-2.5-2.5 0-1.379 1.121-2.5 2.5-2.5 1.379 0 2.5 1.121 2.5 2.5m0 0" fill="#99f"/>
  <path d="m22 33.5c0 1.379-1.121 2.5-2.5 2.5-1.379 0-2.5-1.121-2.5-2.5 0-1.379 1.121-2.5 2.5-2.5 1.379 0 2.5 1.121 2.5 2.5m0 0" fill="#99f"/>
  <path d="m16 23.5c0 1.379-1.121 2.5-2.5 2.5-1.379 0-2.5-1.121-2.5-2.5 0-1.379 1.121-2.5 2.5-2.5 1.379 0 2.5 1.121 2.5 2.5m0 0" fill="#99f"/>
</svg>
