<svg viewBox="0 0 48 48" xmlns="http://www.w3.org/2000/svg" xmlns:xlink="http://www.w3.org/1999/xlink">
  <linearGradient id="a" gradientUnits="userSpaceOnUse" x1="1" x2="47">
    <stop offset="0" stop-color="#614899"/>
    <stop offset="1" stop-color="#694ea6"/>
  </linearGradient>
  <path d="m24 1c22.703 0 23 .297 23 23 0 22.703-.297 23-23 23-22.703 0-23-.297-23-23 0-22.703.297-23 23-23z" fill="url(#a)" transform="matrix(0 -1 1 0 0 48)"/>
  <path d="m24 13c-5.644 0-7 2.517-7 7 0 3 .724 4.355 2 5-.712 1.301-1.322 2-1.344 4 .034 5 10.344 2 10.344 5 0 3-6.63 1.693-10 1l-1 3c2.04 1.201 5.125 1.299 8 1.344 5 .161 7.599-.912 7.531-5.344.038-2.355-1.086-5-4.531-5-2 0-6-.281-6-1.281 0-.313 0-.917 1-1.188 4 .137 9-.531 9-6.531 0-1.388.023-3.94-1-5h2v-2zm .5 3c1.933 0 3.5 1.567 3.5 3.5 0 1.933-1.567 3.5-3.5 3.5-1.933 0-3.5-1.567-3.5-3.5 0-1.933 1.567-3.5 3.5-3.5z" opacity=".09"/>
  <path d="m23 12c-5.644 0-7 2.517-7 7 0 3 .724 4.355 2 5-.712 1.301-1.322 2-1.344 4 .034 5 10.344 2 10.344 5 0 3-6.63 1.693-10 1l-1 3c2.04 1.201 5.125 1.299 8 1.344 5 .161 7.599-.912 7.531-5.344.038-2.355-1.086-5-4.531-5-2 0-6-.281-6-1.281 0-.313 0-.917 1-1.188 4 .137 9-.531 9-6.531 0-1.388.023-3.94-1-5h2v-2zm .5 3c1.933 0 3.5 1.567 3.5 3.5 0 1.933-1.567 3.5-3.5 3.5-1.933 0-3.5-1.567-3.5-3.5 0-1.933 1.567-3.5 3.5-3.5z" fill="#f9f9f9"/>
</svg>
