<svg xmlns="http://www.w3.org/2000/svg" viewBox="0 0 48 48">
 <defs>
  <linearGradient id="linearGradient4599" x1="1" x2="47" gradientUnits="userSpaceOnUse" gradientTransform="matrix(0,-1,1,0,0,48)">
   <stop style="stop-color:#5d536c;stop-opacity:1"/>
   <stop offset="1" style="stop-color:#675c78;stop-opacity:1"/>
  </linearGradient>
 </defs>
 
 
 
 <path d="M 1,24 C 1,1.297 1.297,1 24,1 46.703,1 47,1.297 47,24 47,46.703 46.703,47 24,47 1.297,47 1,46.703 1,24 Z" style="fill:url(#linearGradient4599);fill-opacity:1"/>
 <path d="m 14 12 0 2 13 0 0 2 -6 0 -2 0 0 8 -5 0 0 1 0 1 5 0 0 8 2 0 6 0 0 2 -13 0 0 2 21 0 0 -2 -6 0 0 -2 6 0 0 -2 -6 0 0 -2 0 -2 0 -2 7 0 0 -1 0 -1 -7 0 0 -2 0 -2 0 -2 6 0 0 -2 -6 0 0 -2 6 0 0 -2 -21 0 z m 7 6 6 0 0 3 0 1 0 3 0 1 0 2 0 1 0 1 0 2 -6 0 0 -6 0 -1 0 -1 0 -6 z" style="fill:#000;opacity:0.1;fill-opacity:1;stroke:none"/>
 
 <rect height="6" width="2" y="13" x="26" style="fill:#bdff79;fill-opacity:1;stroke:none"/>
 <path d="m 18 15 l 0 9 l 0 9 l 2 0 l 0 -9 l 0 -9 l -2 0 z" style="fill:#e25b5b;fill-opacity:1;stroke:none"/>
 <rect height="2" width="14" y="15" x="20" style="fill:#e25b5b;fill-opacity:1;stroke:none"/>
 <path d="m 26 20 l 0 4 l 0 4 l 2 0 l 0 -4 l 0 -4 l -2 0 z" style="fill:#2929af;fill-opacity:1;stroke:none"/>
 <path d="m 26 23 l 0 1 l 0 1 l 9 0 l 0 -1 l 0 -1 l -9 0 z" style="fill:#8d8df5;fill-opacity:1;stroke:none"/>
 <path d="m 13 23 l 0 1 l 0 1 l 7 0 l 0 -1 l 0 -1 l -7 0 z" style="fill:#8d8df5;fill-opacity:1;stroke:none"/>
 <rect height="2" width="21" y="11" x="13" style="fill:#8d8df5;fill-opacity:1;stroke:none"/>
 <rect width="2" height="2" x="26" y="11" style="fill:#353535;opacity:1;fill-opacity:1;stroke:none;fill-rule:nonzero"/>
 <rect width="2" height="2" x="26" y="19" style="fill:#353535;opacity:1;fill-opacity:1;stroke:none;fill-rule:nonzero"/>
 <path d="m 18 23 l 0 1 l 0 1 l 2 0 l 0 -1 l 0 -1 l -2 0 z" style="fill:#353535;opacity:1;fill-opacity:1;stroke:none;fill-rule:nonzero"/>
 <rect x="26" y="-35" width="2" height="6" transform="scale(1,-1)" style="fill:#bdff79;fill-opacity:1;stroke:none"/>
 <rect x="20" y="-33" width="14" height="2" transform="scale(1,-1)" style="fill:#e25b5b;fill-opacity:1;stroke:none"/>
 <rect x="13" y="-37" width="21" height="2" transform="scale(1,-1)" style="fill:#8d8df5;fill-opacity:1;stroke:none"/>
 <rect y="-37" x="26" height="2" width="2" transform="scale(1,-1)" style="fill:#353535;opacity:1;fill-opacity:1;stroke:none;fill-rule:nonzero"/>
 <rect y="-29" x="26" height="2" width="2" transform="scale(1,-1)" style="fill:#353535;opacity:1;fill-opacity:1;stroke:none;fill-rule:nonzero"/>
</svg>
