<svg viewBox="0 0 48 48" xmlns="http://www.w3.org/2000/svg" xmlns:xlink="http://www.w3.org/1999/xlink">
  <linearGradient id="a" gradientTransform="matrix(0 -1 1 0 -.0000015 47.999998)" gradientUnits="userSpaceOnUse" x1="1" x2="47">
    <stop offset="0" stop-color="#e4e4e4"/>
    <stop offset="1" stop-color="#eee"/>
  </linearGradient>
  <path d="m47 24c0 22.703-.297 23-23 23-22.703 0-23-.297-23-23 0-22.703.297-23 23-23 22.703 0 23 .297 23 23z" fill="url(#a)"/>
  <g transform="translate(-.003629 .00511065)">
    <path d="m19 14.995c-2 0-3.44 1.21-4.834 2.693-.765.936-1.363 1.935-1.51 2.941-.048.333.077.86.52 1.031l3.523 1.361.836 2.852c.053.185.21.321.4.346l2.527.299c.117.014.235-.017.332-.084l1.895-1.557c.077-.063.172.028.25.063.195.087.574.38 1.113.367.538-.013.896-.349 1.039-.484l1.293 1.129c.084.073.18.131.291.145l1.986.234c1.09.129 1.338-.914 1.338-1.904v-4.432c0-2.742-2-5-5-5h-6zm14.705 4.705c-.802 0-1.022 1.087-.283 1.398 2.01.848 3.11 3.107 3.129 5.557.019 2.45-1.059 4.973-3.219 6.264-.831.497-.085 1.743.746 1.246 2.686-1.606 3.948-4.639 3.926-7.523-.023-2.883-1.347-5.743-4.01-6.879-.09-.038-.185-.063-.283-.063h-.004zm-1.965 3.506c-.773.068-.91 1.125-.186 1.404.921.355 1.335 1.29 1.307 2.338-.028 1.048-.56 2.06-1.342 2.424-.878.409-.263 1.723.615 1.314 1.428-.664 2.14-2.202 2.18-3.697.04-1.494-.654-3.098-2.221-3.729-.112-.045-.233-.065-.354-.055zm-18.768.922c-.703.064-.973.744-.973 1.293v5.074c0 2.06 2.442 2.501 3.895 3.258 2.194 1.191 4.105 1.242 5.105 1.242h6c1.435 0 3-1 3-2v-4c0-.502-.451-1-1-1h-2c-.737 0-1.127.482-1.615.865-.348.335-.65.693-1.406.789-.563.071-.934-.189-1.404-.504-.454-.306-1.18-1.15-1.938-1.15h-4.07l-1.113-2.934c-.051-.133-.157-.235-.291-.283l-1.861-.639c-.119-.018-.228-.021-.328-.012" opacity=".1"/>
    <path d="m32.706 18.706c-.802 0-1.023 1.087-.284 1.398 2.01.848 3.109 3.107 3.128 5.557.019 2.45-1.059 4.972-3.218 6.263-.831.497-.084 1.743.747 1.246 2.686-1.606 3.947-4.639 3.924-7.523-.023-2.883-1.346-5.743-4.01-6.879-.09-.038-.186-.062-.284-.062z" fill="#709ccf" transform="translate(.003629 -.00511065)"/>
    <path d="m30.741 22.21c-.773.068-.911 1.126-.187 1.405.921.355 1.336 1.291 1.308 2.339-.028 1.048-.561 2.058-1.343 2.422-.878.409-.262 1.723.616 1.315 1.428-.664 2.14-2.201 2.18-3.696.04-1.494-.654-3.1-2.221-3.73-.112-.045-.233-.066-.353-.055z" fill="#709ccf" transform="translate(.003629 -.00511065)"/>
    <path d="m18 14c-2 0-3.44 1.21-4.834 2.693-.765.936-1.363 1.935-1.51 2.941-.048.333.077.86.52 1.031l3.523 1.361.836 2.852c.053.185.21.321.4.346l2.527.299c.117.014.235-.017.332-.084l1.895-1.557c.077-.063.172.028.25.063.195.087.574.38 1.113.367.538-.013.896-.349 1.039-.484l1.293 1.129c.084.073.18.131.291.145l1.986.234c1.09.129 1.338-.914 1.338-1.904v-4.432c0-2.742-2-5-5-5z" fill="#535453" transform="translate(.003629 -.00511065)"/>
    <path d="m18.16 15c-2.16 0-4.561 2.283-5.523 4.672-.031.078.023.165.063.18l3.564 1.363c.142.054.248.171.291.316l.816 2.77 1.994.234 1.543-1.301c.218-.184.488-.311.754-.318.266-.007.491.071.699.158.208.084.376.253.67.271.154-.007.264-.105.389-.223l-.043.049c.158-.197.441-.372.707-.355.266.017.429.092.547.195l1.301 1.148 1.455.191c.472.062.613-.581.613-1.01v-3.844c0-2.5-1.51-4.5-4-4.5m-5.498 2c .828 0 1.5.672 1.5 1.5 0 .828-.672 1.5-1.5 1.5-.828 0-1.5-.672-1.5-1.5 0-.828.672-1.5 1.5-1.5m6 0c .828 0 1.5.672 1.5 1.5 0 .828-.672 1.5-1.5 1.5-.828 0-1.5-.672-1.5-1.5 0-.828.672-1.5 1.5-1.5" fill="#c3c8cd" transform="translate(.003629 -.00511065)"/>
    <path d="m12.305 23.14c-.949-.145-1.301.654-1.301 1.281v5.074c0 2.06 2.443 2.501 3.895 3.258 2.194 1.191 4.105 1.242 5.105 1.242h6c1.435 0 3-1 3-2v-4c0-.502-.451-1-1-1h-2c-.737 0-1.128.483-1.616.866-.348.335-.648.693-1.405.789-.563.071-.935-.19-1.405-.505-.454-.306-1.181-1.15-1.938-1.15h-4.069l-1.114-2.933c-.051-.133-.157-.236-.291-.284" fill="#535453"/>
    <path d="m12.262 24.13c-.275-.038-.262.422-.262.422v4.748c0 1.39 2.074 1.941 3.348 2.608 1.782.932 3.02 1.092 4.652 1.092h6c .741 0 2-.594 2-1.5v-2.5c0-.709 0-1-.7-1h-1.3c-.395 0-.561.185-.928.552l-.008.008c-.525.54-1.226 1.028-2.035 1.08-.84.054-1.462-.33-1.992-.686-.543-.366-1.037-.954-1.564-.954h-4.242c-.2 0-.378-.153-.449-.341l-1.156-3.037c-.461-.165-.915-.337-1.363-.49l.002-.002z" fill="#c3c8cd" transform="translate(.003629 -.00511065)"/>
  </g>
</svg>
