<svg viewBox="0 0 48 48" xmlns="http://www.w3.org/2000/svg" xmlns:xlink="http://www.w3.org/1999/xlink">
  <linearGradient id="a" gradientTransform="matrix(0 -1 1 0 -.0000015 47.999998)" gradientUnits="userSpaceOnUse" x1="1" x2="47">
    <stop offset="0" stop-color="#5dbacb"/>
    <stop offset="1" stop-color="#6cc0d0"/>
  </linearGradient>
  <path d="m47 24c0 22.703-.297 23-23 23-22.703 0-23-.297-23-23 0-22.703.297-23 23-23 22.703 0 23 .297 23 23z" fill="url(#a)"/>
  <g transform="matrix(3.543307 0 0 3.543307 .00039404 -.00196758)">
    <path d="m4.48 3.387c-.139 0-.247.108-.247.247v6.844c0 .139.108.247.247.247h5.151c.139 0 .247-.108.247-.247 0-1.799 0-3.598 0-5.398l-1.693-1.693c-1.235 0-2.469 0-3.704 0z" opacity=".1"/>
    <path d="m4.198 3.104c-.139 0-.247.108-.247.247v6.844c0 .139.108.247.247.247h5.151c.139 0 .247-.108.247-.247v-5.398l-1.693-1.693" fill="#e8e8d9"/>
    <path d="m7.902 4.222v1.129h.846v-1.129zm.282.282h.281v.564h-.281m0-.564" fill="#2d2d2d"/>
    <path d="m7.902 3.104v1.693h1.693" fill="#fff"/>
    <path d="m7.902 5.646v1.128h.846v-1.129h-.846m.282.282h.281v.563h-.281m0-.563" fill="#2d2d2d"/>
    <path d="m9.596 6.491v-1.693h-1.693" fill-opacity=".2"/>
    <path d="m4.516 4.234v1.128h.847v-1.129h-.847m.282.282h.282v.564h-.282m0-.564" fill="#2d2d2d"/>
    <path d="m5.644 4.234v1.128h.846v-1.129h-.846m.281.282h.282v.564h-.282m0-.564" fill="#2d2d2d"/>
    <path d="m6.773 4.234v.282h.281v.564h-.281v.281h.846v-.281h-.282v-.847h-.563m0 0" fill="#2d2d2d"/>
    <path d="m4.516 5.646v1.128h.847v-1.129h-.847m.282.282h.282v.563h-.282m0-.563" fill="#2d2d2d"/>
    <path d="m5.644 5.646v.282h.281v.563h-.281v.282h.846v-.282h-.282v-.847h-.563m0 0" fill="#2d2d2d"/>
    <path d="m6.773 5.646v1.128h.846v-1.129h-.846m.281.282h.282v.563h-.282m0-.563" fill="#2d2d2d"/>
    <path d="m4.516 7.06v.282h.282v.563h-.282v.282h.847v-.282h-.282v-.847h-.564m0 0" fill="#2d2d2d"/>
    <path d="m5.644 7.06v1.128h.846v-1.129h-.846m.281.282h.282v.563h-.282m0-.563" fill="#2d2d2d"/>
    <path d="m6.773 7.06v.282h.281v.563h-.281v.282h.846v-.282h-.282v-.847h-.563m0 0" fill="#2d2d2d"/>
    <path d="m7.902 7.06v.282h.282v.563h-.282v.282h.846v-.282h-.282v-.847h-.563m0 0" fill="#2d2d2d"/>
    <path d="m4.516 8.468v1.128h.847v-1.129h-.847m.282.282h.282v.563h-.282m0-.563" fill="#2d2d2d"/>
    <path d="m5.646 8.467v.282h.281v.563h-.281v.282h.846v-.282h-.282v-.847h-.563m0 0" fill="#2d2d2d"/>
    <path d="m6.774 8.467v.282h.281v.563h-.281v.282h.846v-.282h-.282v-.847h-.563m0 0" fill="#2d2d2d"/>
    <path d="m7.902 8.468v1.128h.846v-1.129h-.846m.282.282h.281v.563h-.281m0-.563" fill="#2d2d2d"/>
  </g>
</svg>
