<svg viewBox="0 0 48 48" xmlns="http://www.w3.org/2000/svg" xmlns:xlink="http://www.w3.org/1999/xlink">
  <linearGradient id="a" gradientTransform="matrix(0 -1 1 0 -.0000015 47.999998)" gradientUnits="userSpaceOnUse" x1="1" x2="47">
    <stop offset="0" stop-color="#e4e4e4"/>
    <stop offset="1" stop-color="#eee"/>
  </linearGradient>
  <path d="m47 24c0 22.703-.297 23-23 23-22.703 0-23-.297-23-23 0-22.703.297-23 23-23 22.703 0 23 .297 23 23z" fill="url(#a)"/>
  <path d="m21.16 13l-6.43 1.723-1.723 6.43 4.705 4.705-1.727 6.436 4.707 4.707 6.43-1.725 1.725-6.434 6.436-1.727 1.725-6.43-4.707-4.707-6.436 1.723z" opacity=".1" transform=""/>
  <path d="m34.28 26.12l-6.434 1.727-4.707-4.711 1.723-6.43 6.434-1.723 4.707 4.707m-1.723 6.43" fill="#3d7f2f" fill-rule="evenodd"/>
  <path d="m26.12 34.28l-6.43 1.723-4.707-4.707 1.723-6.434 6.43-1.723 4.707 4.707m-1.723 6.434" fill="#69c853" fill-rule="evenodd"/>
  <path d="m23.14 23.14l-6.43 1.723-4.707-4.707 1.723-6.43 6.43-1.723 4.707 4.707m-1.723 6.43" fill="#459c2f" fill-rule="evenodd"/>
</svg>
