<svg xmlns="http://www.w3.org/2000/svg" viewBox="0 0 48 48">
 <defs>
  <linearGradient id="linearGradient3764" x1="1" x2="47" gradientUnits="userSpaceOnUse" gradientTransform="matrix(0,-1,1,0,-1.5e-6,47.999998)">
   <stop style="stop-color:#aa3434;stop-opacity:1"/>
   <stop offset="1" style="stop-color:#b93939;stop-opacity:1"/>
  </linearGradient>
 </defs>
 <g>
  
  
  
 </g>
 <g>
  <path d="m 47,24 C 47,46.703 46.703,47 24,47 1.297,47 1,46.703 1,24 1,1.297 1.297,1 24,1 46.703,1 47,1.297 47,24 z" style="fill:url(#linearGradient3764);fill-opacity:1"/>
 </g>
 <g>
  
 </g>
 <path d="m 26 12 c -4.04 0.001 -7.839 1.886 -10.295 5.088 -0.231 -0.057 -0.467 -0.087 -0.705 -0.088 c -1.657 0 -3 1.343 -3 3 0 0.968 0.468 1.877 1.256 2.439 c -0.17 0.843 -0.255 1.701 -0.256 2.561 c 0 7.18 5.82 13 13 13 6 0 11.398 -1 13 -2 -2.862 -0.924 -1.85 -4 -0.996 -6 l -0.008 0.006 c 0.662 -1.586 1.01 -3.287 1 -5.01 -0.001 -0.859 -0.094 -1.715 -0.268 -2.557 0.793 -0.561 1.266 -1.472 1.268 -2.443 0 -1.657 -1.343 -3 -3 -3 -0.235 0.001 -0.469 0.03 -0.697 0.086 -2.458 -3.203 -6.265 -5.087 -10.303 -5.086" style="fill:#000;opacity:0.1;fill-opacity:1;stroke:none"/>
 <g>
  <circle r="13" cy="24" cx="24" style="fill:#e8e8e8;opacity:1;fill-opacity:1;stroke:none"/>
  <circle r="3" cy="19" cx="13" style="fill:#e8e8e8;opacity:1;fill-opacity:1;stroke:none"/>
  <circle cx="35" cy="19" r="3" style="fill:#e8e8e8;opacity:1;fill-opacity:1;stroke:none"/>
  <ellipse transform="matrix(0.95289187,-0.30331021,0.22003182,0.97549269,0,0)" ry="3.992" rx="3.01" cy="27.653" cx="22.999" style="fill:#303030;opacity:1;fill-opacity:1;stroke:none"/>
  <ellipse cx="-24" cy="13.04" rx="3.01" ry="3.992" transform="matrix(-0.95289187,-0.30331021,-0.22003182,0.97549269,0,0)" style="fill:#303030;opacity:1;fill-opacity:1;stroke:none"/>
  <path d="M 20.291 16 A 2.985 4.01 6.451 0 0 17.13 19.09 A 2.985 4.01 6.451 0 0 18.645 23.682 A 2.985 4.01 6.451 0 1 18.13 20.09 A 2.985 4.01 6.451 0 1 21.291 17 A 2.985 4.01 6.451 0 1 21.879 17.11 A 2.985 4.01 6.451 0 1 22.354 17.322 A 2.985 4.01 6.451 0 0 20.879 16.11 A 2.985 4.01 6.451 0 0 20.291 16 z M 27.709 16 A 4.01 2.985 83.55 0 0 27.12 16.11 A 4.01 2.985 83.55 0 0 25.13 20.912 A 4.01 2.985 83.55 0 0 26.834 23.568 A 4.01 2.985 83.55 0 1 26.13 21.912 A 4.01 2.985 83.55 0 1 28.12 17.11 A 4.01 2.985 83.55 0 1 28.709 17 A 4.01 2.985 83.55 0 1 30.16 17.422 A 4.01 2.985 83.55 0 0 27.709 16 z" style="fill:#000;opacity:0.1;fill-opacity:0.595;stroke:none"/>
  <path d="m 24 37 c 6 0 11.398 -1 13 -2 -2.862 -0.924 -1.851 -4 -0.997 -6 z" style="fill:#e8e8e8;fill-opacity:1;stroke:none"/>
 </g>
</svg>
