<svg xmlns="http://www.w3.org/2000/svg" viewBox="0 0 48 48">
 <defs>
  <linearGradient id="linearGradient3764" x1="1" x2="47" gradientUnits="userSpaceOnUse" gradientTransform="matrix(0,-1,1,0,-1.5e-6,47.999998)">
   <stop style="stop-color:#d9cfb7;stop-opacity:1"/>
   <stop offset="1" style="stop-color:#e0d8c4;stop-opacity:1"/>
  </linearGradient>
 </defs>
 <g>
  
  
  
 </g>
 <g>
  <path d="m 47,24 C 47,46.703 46.703,47 24,47 1.297,47 1,46.703 1,24 1,1.297 1.297,1 24,1 46.703,1 47,1.297 47,24 z" style="fill:url(#linearGradient3764);fill-opacity:1"/>
 </g>
 <g>
  
 </g>
 <path d="m 26 12 c -5 0 -10 5 -10 11 0 4.953 3.41 7 7 7 1.869 0 4.497 -1.103 6.592 -2.854 l -0.791 3.854 c -0.638 3.108 -4.207 5 -7.301 5 -2.5 0 -2.778 -0.147 -3.5 -2 c -1.01 -2.589 -4 -0.625 -4 1 0 2 4 3 8 3 5.523 0 9.204 -3.217 10 -7 l 4 -19 -3.301 0 -0.52 2.533 c -0.889 -1.48 -2.666 -2.533 -6.18 -2.533 m 1 2 c 4 0 4.391 1.797 3 7 -1.01 3.768 -3 7 -6.5 7 c -1.657 0 -3.5 0.221 -3.5 -3.5 0 -5.5 3 -10.5 7 -10.5" style="fill:#000;opacity:0.1;fill-opacity:1;stroke:none"/>
 <path d="m 25 11 c -5 0 -10 5 -10 11 0 4.953 3.41 7 7 7 1.869 0 4.497 -1.103 6.592 -2.854 l -0.791 3.854 c -0.638 3.108 -4.207 5 -7.301 5 -2.5 0 -2.778 -0.147 -3.5 -2 c -1.01 -2.589 -4 -0.625 -4 1 0 2 4 3 8 3 5.523 0 9.204 -3.217 10 -7 l 4 -19 -3.301 0 -0.52 2.533 c -0.889 -1.48 -2.666 -2.533 -6.18 -2.533 m 1 2 c 4 0 4.391 1.797 3 7 -1.01 3.768 -3 7 -6.5 7 c -1.657 0 -3.5 0.221 -3.5 -3.5 0 -5.5 3 -10.5 7 -10.5" style="fill:#4b4b4b;opacity:1;fill-opacity:1;stroke:none"/>
</svg>
