<svg viewBox="0 0 48 48" xmlns="http://www.w3.org/2000/svg" xmlns:xlink="http://www.w3.org/1999/xlink">
  <linearGradient id="a" gradientTransform="matrix(0 -1 1 0 -.0000015 47.999998)" gradientUnits="userSpaceOnUse" x1="1" x2="47">
    <stop offset="0" stop-color="#d9cfb7"/>
    <stop offset="1" stop-color="#e0d8c4"/>
  </linearGradient>
  <path d="m47 24c0 22.703-.297 23-23 23-22.703 0-23-.297-23-23 0-22.703.297-23 23-23 22.703 0 23 .297 23 23z" fill="url(#a)"/>
  <path d="m26 12c-5 0-10 5-10 11 0 4.953 3.41 7 7 7 1.869 0 4.497-1.103 6.592-2.854l-.791 3.854c-.638 3.108-4.207 5-7.301 5-2.5 0-2.778-.147-3.5-2-1.01-2.589-4-.625-4 1 0 2 4 3 8 3 5.523 0 9.204-3.217 10-7l4-19h-3.301l-.52 2.533c-.889-1.48-2.666-2.533-6.18-2.533m1 2c4 0 4.391 1.797 3 7-1.01 3.768-3 7-6.5 7-1.657 0-3.5.221-3.5-3.5 0-5.5 3-10.5 7-10.5" opacity=".1"/>
  <path d="m25 11c-5 0-10 5-10 11 0 4.953 3.41 7 7 7 1.869 0 4.497-1.103 6.592-2.854l-.791 3.854c-.638 3.108-4.207 5-7.301 5-2.5 0-2.778-.147-3.5-2-1.01-2.589-4-.625-4 1 0 2 4 3 8 3 5.523 0 9.204-3.217 10-7l4-19h-3.301l-.52 2.533c-.889-1.48-2.666-2.533-6.18-2.533m1 2c4 0 4.391 1.797 3 7-1.01 3.768-3 7-6.5 7-1.657 0-3.5.221-3.5-3.5 0-5.5 3-10.5 7-10.5" fill="#4b4b4b"/>
</svg>
