<svg xmlns="http://www.w3.org/2000/svg" viewBox="0 0 48 48">
 <defs>
  <linearGradient id="linearGradient3764" x1="1" x2="47" gradientUnits="userSpaceOnUse" gradientTransform="matrix(0,-1,1,0,-1.5e-6,47.999998)">
   <stop style="stop-color:#c60606;stop-opacity:1"/>
   <stop offset="1" style="stop-color:#d90606;stop-opacity:1"/>
  </linearGradient>
 </defs>
 <g>
  
  
  
 </g>
 <g>
  <path d="m 47,24 C 47,46.703 46.703,47 24,47 1.297,47 1,46.703 1,24 1,1.297 1.297,1 24,1 46.703,1 47,1.297 47,24 z" style="fill:url(#linearGradient3764);fill-opacity:1"/>
 </g>
 <g>
  <g>
   <g transform="translate(1,1)">
    <g style="opacity:0.1">
     <!-- color: #d90606 -->
     <g>
      <path d="m 22.662 12.203 c -4.097 -0.021 -7.346 6.984 -5.662 11.203 c 4.653 -4.534 9.09 -3.73 8.184 -9.443 c 0.491 0.591 1.173 1.605 1.318 2.982 c 0.215 2.041 -0.74 4.868 -5.857 8.09 c -0.211 -0.023 -0.427 -0.035 -0.645 -0.035 c -3.313 0 -6 2.688 -6 6 c 0 3.313 2.688 6 6 6 c 1.715 0 3.25 -0.723 4.344 -1.875 c -0.852 -1.16 -1.344 -2.578 -1.344 -4.125 c 0 -1.547 0.492 -2.965 1.344 -4.125 c -0.648 -0.682 -1.453 -1.209 -2.355 -1.529 c 4.622 -3.161 5.755 -6.186 5.51 -8.512 c -0.191 -1.808 -0.939 -2.289 -1.516 -2.928 c 1.555 0.236 2.959 0.589 3.619 1.447 c 0.839 1.091 1.142 2.597 1.143 4.158 c 0 2.191 -0.586 4.362 -0.941 5.498 c -3.22 0.105 -5.803 2.744 -5.803 5.99 c 0 3.312 2.687 6 6 6 c 3.312 0 6 -2.687 6 -6 c 0 -3.03 -2.25 -5.529 -5.168 -5.936 c 0.379 -1.241 0.916 -3.335 0.916 -5.553 c 0 -1.689 -0.322 -3.421 -1.357 -4.768 c -0.97 -1.262 -2.707 -1.988 -5.05 -2.09 c 0 0 -0.014 -0.021 -0.014 -0.021 l -0.008 0.014 c -0.148 -0.006 -0.164 -0.131 -0.318 -0.131 l -0.879 0 c -0.493 -0.208 -0.982 -0.31 -1.459 -0.313 z" transform="translate(-1,-1)" mix-blend-mode="normal" isolation="auto" white-space="normal" solid-opacity="1" solid-color="#000000" style="visibility:visible;shape-rendering:auto;color-interpolation-filters:linearRGB;fill:#000;opacity:1;image-rendering:auto;fill-opacity:1;stroke:none;display:inline;color:#000;fill-rule:nonzero;color-rendering:auto;color-interpolation:sRGB"/>
     </g>
    </g>
   </g>
  </g>
 </g>
 <g>
  <g>
   <!-- color: #d90606 -->
   <g>
    <path d="m 8.184 7.06 c 0 0 1.41 -3.669 -1.411 -3.669 c 0 0 1.976 1.693 -1.411 3.669" transform="matrix(3.543307,0,0,3.543307,0,0)" style="stroke-opacity:1;fill:none;stroke-miterlimit:4;stroke:#fff;stroke-linecap:butt;stroke-linejoin:miter;stroke-width:0.282"/>
    <path d="m 19 24 c -3.313 0 -6 2.688 -6 6 c 0 3.313 2.688 6 6 6 c 1.715 0 3.25 -0.723 4.344 -1.875 c -0.852 -1.16 -1.344 -2.578 -1.344 -4.125 c 0 -1.547 0.492 -2.965 1.344 -4.125 c -1.094 -1.152 -2.629 -1.875 -4.344 -1.875 m 0 0" style="fill:#fff;fill-opacity:1;stroke:none;fill-rule:nonzero"/>
    <path d="m 24 12 c 1.578 6.793 -3.098 5.629 -8 10.406 c -1.996 -5 2.938 -13.914 8 -10.406 m 0 0" style="fill:#fff;fill-opacity:1;stroke:none;fill-rule:nonzero"/>
    <path d="m 35 30 c 0 3.313 -2.688 6 -6 6 c -3.313 0 -6 -2.688 -6 -6 c 0 -3.313 2.688 -6 6 -6 c 3.313 0 6 2.688 6 6 m 0 0" style="fill:#fff;fill-opacity:1;stroke:none;fill-rule:nonzero"/>
   </g>
  </g>
 </g>
 <g>
  
 </g>
</svg>
