<svg viewBox="0 0 48 48" xmlns="http://www.w3.org/2000/svg" xmlns:xlink="http://www.w3.org/1999/xlink">
  <linearGradient id="a" gradientTransform="matrix(0 -1 1 0 -.0000015 47.999998)" gradientUnits="userSpaceOnUse" x1="1" x2="47">
    <stop offset="0" stop-color="#c60606"/>
    <stop offset="1" stop-color="#d90606"/>
  </linearGradient>
  <path d="m47 24c0 22.703-.297 23-23 23-22.703 0-23-.297-23-23 0-22.703.297-23 23-23 22.703 0 23 .297 23 23z" fill="url(#a)"/>
  <path d="m22.662 12.203c-4.097-.021-7.346 6.984-5.662 11.203 4.653-4.534 9.09-3.73 8.184-9.443.491.591 1.173 1.605 1.318 2.982.215 2.041-.74 4.868-5.857 8.09-.211-.023-.427-.035-.645-.035-3.313 0-6 2.688-6 6 0 3.313 2.688 6 6 6 1.715 0 3.25-.723 4.344-1.875-.852-1.16-1.344-2.578-1.344-4.125 0-1.547.492-2.965 1.344-4.125-.648-.682-1.453-1.209-2.355-1.529 4.622-3.161 5.755-6.186 5.51-8.512-.191-1.808-.939-2.289-1.516-2.928 1.555.236 2.959.589 3.619 1.447.839 1.091 1.142 2.597 1.143 4.158 0 2.191-.586 4.362-.941 5.498-3.22.105-5.803 2.744-5.803 5.99 0 3.312 2.687 6 6 6 3.312 0 6-2.687 6-6 0-3.03-2.25-5.529-5.168-5.936.379-1.241.916-3.335.916-5.553 0-1.689-.322-3.421-1.357-4.768-.97-1.262-2.707-1.988-5.05-2.09 0 0-.014-.021-.014-.021l-.008.014c-.148-.006-.164-.131-.318-.131h-.879c-.493-.208-.982-.31-1.459-.313z" opacity=".1" transform=""/>
  <path d="m8.184 7.06c0 0 1.41-3.669-1.411-3.669 0 0 1.976 1.693-1.411 3.669" fill="none" stroke="#fff" stroke-width=".282" transform="scale(3.543307)"/>
  <path d="m19 24c-3.313 0-6 2.688-6 6 0 3.313 2.688 6 6 6 1.715 0 3.25-.723 4.344-1.875-.852-1.16-1.344-2.578-1.344-4.125 0-1.547.492-2.965 1.344-4.125-1.094-1.152-2.629-1.875-4.344-1.875m0 0" fill="#fff"/>
  <path d="m24 12c1.578 6.793-3.098 5.629-8 10.406-1.996-5 2.938-13.914 8-10.406m0 0" fill="#fff"/>
  <path d="m35 30c0 3.313-2.688 6-6 6-3.313 0-6-2.688-6-6 0-3.313 2.688-6 6-6 3.313 0 6 2.688 6 6m0 0" fill="#fff"/>
</svg>
