<svg viewBox="0 0 48 48" xmlns="http://www.w3.org/2000/svg" xmlns:xlink="http://www.w3.org/1999/xlink">
  <linearGradient id="a" gradientUnits="userSpaceOnUse" x2="0" y1="47" y2="1">
    <stop offset="0" stop-color="#f59147"/>
    <stop offset="1" stop-color="#f69a59"/>
  </linearGradient>
  <path d="m47 24c0 22.703-.297 23-23 23-22.703 0-23-.297-23-23 0-22.703.297-23 23-23 22.703 0 23 .297 23 23z" fill="url(#a)"/>
  <g opacity=".1" transform="translate(1 1)">
    <path d="m35.22 16c-2.27 7.04-12.695 8.483-18.875.691.062 2.687-.133 4.697 1.078 6.902-.819.248-1.418.999-1.422 1.898-.369.02-.884.038-1.281.053-.709-.795-1.586-1.284-2.422-.932-1.227.52-1.622 2.301-1.02 4.02.469 1.351 1.436 2.287 2.408 2.35 3.736 2.632 11.687 4.594 15.635 1.238l.768.17c0 0 .002.004.002.004h.012l3.318-.016c.378.635 2.104 1.751 5.576-.613-1.695-.266-4.094-1.234-4.816-1.066-.255.053-.432.218-.572.414l-3-.4c.952-1.375 1.537-2.603 1.596-4.834 2.707-2.781 5.03-4.879 3.02-9.879zm-18.875.691c0 0 0-.003 0-.004h-.004c0 0 .003.002.004.004z" transform="translate(-1 -1)"/>
    <path d="m11.5 24.883c-.273 0-.5.262-.5.566 0 .305.227.551.5.551.273 0 .5-.246.5-.551 0-.305-.227-.566-.5-.566m0 0"/>
  </g>
  <g transform="translate(.00034048)">
    <path d="m15.34 15.688c6.18 7.797 16.609 6.355 18.879-.688 2.01 5-.313 7.098-3.02 9.879-.066 2.488-.758 3.719-1.918 5.309-4.285 5.895-17.309 1.246-18.535-2.359l1.363-3.223c2.328-.07 3.125-.098 5.496-.305-2.547-2.953-2.184-5.25-2.262-8.613m0 0" fill="#a67240"/>
    <path d="m14.574 25.793c.82 1.594.457 3.289-1.102 4.047-1.195.582-2.598-.488-3.195-2.207-.602-1.719-.207-3.5 1.02-4.02 1.223-.516 2.543.754 3.277 2.176m0 0" fill="#333"/>
    <path d="m19 24.5c0 1.105-.895 2-2 2-1.105 0-2-.895-2-2 0-1.105.895-2 2-2 1.105 0 2 .895 2 2m0 0" fill="#e5e5e5"/>
    <path d="m24 25.5c0 1.379-1.121 2.5-2.5 2.5-1.379 0-2.5-1.121-2.5-2.5 0-1.379 1.121-2.5 2.5-2.5 1.379 0 2.5 1.121 2.5 2.5m0 0" fill="#e5e5e5"/>
    <path d="m18.492 25.06c0 .551-.391 1-.875 1-.484 0-.875-.449-.875-1 0-.551.391-1 .875-1 .484 0 .875.449.875 1m0 0" fill="#333"/>
    <path d="m23 25.75c0 .691-.449 1.25-1 1.25-.551 0-1-.559-1-1.25 0-.691.449-1.25 1-1.25.551 0 1 .559 1 1.25m0 0" fill="#333"/>
    <path d="m14.832 31.18c5.41 1.121 7.773-.273 10.664-3.488.02 2.734-1.234 4.418-2.645 4.648-2.484.41-5.137-.039-8.02-1.16m0 0" fill="#333" fill-opacity=".8"/>
    <path d="m23.668 29.539l5.824.242-.391 1.613-6.094-1.359c.223-.16.43-.336.66-.496m0 0" fill="#6b4b28"/>
    <path d="m32.656 30.12l-3.164-.422c0 0-.688.145-.781.719-.09.578.379.977.379.977l3.473-.016m.094-1.258" fill="#aaa"/>
    <path d="m33.18 29.699c-.664.137-.926.945-.848 1.477.07.52 1.781 2.234 5.664-.41-1.695-.266-4.094-1.234-4.816-1.066m0 0" fill="#ba2121"/>
    <path d="m11.5 24.883c-.273 0-.5.262-.5.566 0 .305.227.551.5.551.273 0 .5-.246.5-.551 0-.305-.227-.566-.5-.566m0 0" fill="#f9f9f9"/>
    <path d="m17.04 25.11c-.137 0-.25.113-.25.254 0 .137.113.246.25.246.137 0 .25-.109.25-.246 0-.141-.113-.254-.25-.254m0 0" fill="#fff"/>
    <path d="m21.75 26c-.137 0-.25.117-.25.254 0 .137.113.246.25.246.137 0 .25-.109.25-.246 0-.137-.113-.254-.25-.254m0 0" fill="#fff"/>
    <path d="m33.637 30.27c-.207-.039-.379-.027-.387.027-.008.055.156.133.363.172.207.043.379.035.387-.02.008-.059-.156-.137-.363-.18m0 0" fill="#fff" fill-opacity=".765"/>
    <path d="m33.762 30.01c-.137-.023-.254-.012-.262.023-.004.031.102.078.238.102.137.023.254.016.262-.02.004-.035-.102-.082-.238-.105m0 0" fill="#fff" fill-opacity=".765"/>
    <path d="m33.512 30.629c-.137-.031-.254-.039-.262-.016-.008.027.102.074.238.105.137.035.254.043.262.016.008-.023-.098-.07-.238-.105m0 0" fill="#fff" fill-opacity=".765"/>
    <path d="m30.16 30.08c-.359-.047-.656.004-.66.113-.004.109.281.238.641.285.355.051.652 0 .656-.109.004-.105-.281-.238-.637-.289m0 0" fill="#fff" fill-opacity=".733"/>
    <path d="m29.367 29.676c0 0-.691.145-.781.719-.09.578.367.984.367.984h.113c-.109-.207-.219-.5-.172-.855.066-.512.465-.742.664-.824m-.191-.023" fill="#46403d"/>
  </g>
</svg>
