<svg xmlns="http://www.w3.org/2000/svg" viewBox="0 0 48 48">
 <defs>
  <linearGradient id="linearGradient3764" x1="1" x2="47" gradientUnits="userSpaceOnUse" gradientTransform="matrix(0,-1,1,0,-1.5e-6,47.999998)">
   <stop style="stop-color:#f9af41;stop-opacity:1"/>
   <stop offset="1" style="stop-color:#fab754;stop-opacity:1"/>
  </linearGradient>
 </defs>
 <g>
  
  
  
 </g>
 <g>
  <path d="m 47,24 C 47,46.703 46.703,47 24,47 1.297,47 1,46.703 1,24 1,1.297 1.297,1 24,1 46.703,1 47,1.297 47,24 z" style="fill:url(#linearGradient3764);fill-opacity:1"/>
 </g>
 <g>
  
 </g>
 <path d="m 32,10.955 0,0.004 0,1 c 2,0.045 4,1.045 5,2.545 l 1,-0.5 c -1,-2 -3,-3 -6,-3.049 z m 0,3.049 0,1 c 1.305,0.002 2.433,0.505 3.18,1.574 L 36,16.004 c -0.935,-1.337 -2.369,-1.999 -4,-2 z m -1,3 c -0.593,0 -1,0.471 -1,0.996 l 0,2 -16,0 c -1,0 -2,1 -2,2 l 0,11 c 0,1 1,2 2,2 l 22,0 c 1,0 2,-1 2,-2 l 0,-11 c 0,-1 -1,-2 -2,-2 l -2,0 0,-2 c 0,-0.554 -0.446,-0.996 -1,-0.996 l -2,0 z m 0.5,1 1,0 c 0.277,10e-4 0.5,0.223 0.5,0.5 l 0,1.5 -2,0 0,-1.5 c 0,-0.277 0.223,-0.5 0.5,-0.5 z m -16,4 8,0 c 0.831,0 1.5,0.669 1.5,1.5 l 0,8 c 0,0.831 -0.669,1.5 -1.5,1.5 l -8,0 c -0.831,0 -1.5,-0.669 -1.5,-1.5 l 0,-8 c 0,-0.831 0.669,-1.5 1.5,-1.5 z m 11.5,0 7.309,0 c 0.846,0 1.689,0.711 1.689,1.426 l 0,8.145 c 0,0.714 -0.843,1.43 -1.689,1.43 l -7.309,0 0,-11 z m 2.5,0.998 c -0.277,0 -0.5,0.223 -0.5,0.5 0,0.277 0.223,0.502 0.5,0.502 l 1,0 c 0.277,0 0.5,-0.225 0.5,-0.502 0,-0.277 -0.223,-0.5 -0.5,-0.5 l -1,0 z m 3,0 c -0.277,0 -0.5,0.223 -0.5,0.5 0,0.277 0.223,0.502 0.5,0.502 l 1,0 c 0.277,0 0.5,-0.225 0.5,-0.502 0,-0.277 -0.223,-0.5 -0.5,-0.5 l -1,0 z m -13,1 a 3.5,3.5 0 0 0 -3.5,3.5 3.5,3.5 0 0 0 3.5,3.5 3.5,3.5 0 0 0 3.5,-3.5 3.5,3.5 0 0 0 -3.5,-3.5 z M 29.5,25 c -0.277,0 -0.5,0.223 -0.5,0.5 0,0.277 0.223,0.502 0.5,0.502 l 1,0 C 30.777,26.002 31,25.777 31,25.5 31,25.223 30.777,25 30.5,25 l -1,0 z m 3,0 c -0.277,0 -0.5,0.223 -0.5,0.5 0,0.277 0.223,0.502 0.5,0.502 l 1,0 C 33.777,26.002 34,25.777 34,25.5 34,25.223 33.777,25 33.5,25 l -1,0 z m -13,1 A 1.5,1.5 0 0 1 21,27.5 1.5,1.5 0 0 1 19.5,29 1.5,1.5 0 0 1 18,27.5 1.5,1.5 0 0 1 19.5,26 Z m 13,0.998 c -0.277,0 -0.5,0.223 -0.5,0.5 0,0.277 0.223,0.502 0.5,0.502 l 1,0 c 0.277,0 0.5,-0.225 0.5,-0.502 0,-0.277 -0.223,-0.5 -0.5,-0.5 l -1,0 z M 29.5,27 C 29.223,27 29,27.221 29,27.498 29,27.775 29.223,28 29.5,28 l 1,0 C 30.777,28 31,27.775 31,27.498 31,27.221 30.777,27 30.5,27 l -1,0 z m 4.5,3 c -0.552,0 -1,0.448 -1,1 0,0.552 0.448,1 1,1 0.552,0 1,-0.448 1,-1 0,-0.552 -0.448,-1 -1,-1 z m 0.482,0.25 0.018,0 c 0.138,0 0.25,0.112 0.25,0.25 0,0.138 -0.112,0.25 -0.25,0.25 -0.138,0 -0.25,-0.112 -0.25,-0.25 0,-0.131 0.101,-0.241 0.232,-0.25 z" mix-blend-mode="normal" white-space="normal" isolation="auto" solid-color="#000000" solid-opacity="1" style="visibility:visible;shape-rendering:auto;color-interpolation-filters:linearRGB;fill:#000;opacity:0.1;image-rendering:auto;fill-opacity:1;stroke:none;display:inline;color:#000;fill-rule:evenodd;color-rendering:auto;color-interpolation:sRGB"/>
 <path d="m 31,9.951 0,0.004 0,1 C 33,11 35,12 36,13.5 L 37,13 C 36,11 34,10 31,9.951 Z m 0,3.049 0,1 c 1.305,0.002 2.433,0.505 3.18,1.574 L 35,15 c -0.935,-1.337 -2.369,-1.999 -4,-2 z m -1,3 c -0.593,0 -1,0.471 -1,0.996 l 0,2 -16,0 c -1,0 -2,1 -2,2 l 0,11 c 0,1 1,2 2,2 l 22,0 c 1,0 2,-1 2,-2 l 0,-11 c 0,-1 -1,-2 -2,-2 l -2,0 0,-2 C 33,16.442 32.554,16 32,16 l -2,0 z m 0.5,1 1,0 c 0.277,0.001 0.5,0.223 0.5,0.5 l 0,1.5 -2,0 0,-1.5 C 30,17.223 30.223,17 30.5,17 Z m -16,4 8,0 c 0.831,0 1.5,0.669 1.5,1.5 l 0,8 c 0,0.831 -0.669,1.5 -1.5,1.5 l -8,0 C 13.669,32 13,31.331 13,30.5 l 0,-8 C 13,21.669 13.669,21 14.5,21 Z m 11.5,0 7.309,0 c 0.846,0 1.689,0.711 1.689,1.426 l 0,8.145 c 0,0.714 -0.843,1.43 -1.689,1.43 l -7.309,0 0,-11 z m 2.5,0.998 c -0.277,0 -0.5,0.223 -0.5,0.5 0,0.277 0.223,0.502 0.5,0.502 l 1,0 c 0.277,0 0.5,-0.225 0.5,-0.502 0,-0.277 -0.223,-0.5 -0.5,-0.5 l -1,0 z m 3,0 c -0.277,0 -0.5,0.223 -0.5,0.5 0,0.277 0.223,0.502 0.5,0.502 l 1,0 c 0.277,0 0.5,-0.225 0.5,-0.502 0,-0.277 -0.223,-0.5 -0.5,-0.5 l -1,0 z m -13,1 a 3.5,3.5 0 0 0 -3.5,3.5 3.5,3.5 0 0 0 3.5,3.5 3.5,3.5 0 0 0 3.5,-3.5 3.5,3.5 0 0 0 -3.5,-3.5 z m 10,0.998 c -0.277,0 -0.5,0.223 -0.5,0.5 0,0.277 0.223,0.502 0.5,0.502 l 1,0 c 0.277,0 0.5,-0.225 0.5,-0.502 0,-0.277 -0.223,-0.5 -0.5,-0.5 l -1,0 z m 3,0 c -0.277,0 -0.5,0.223 -0.5,0.5 0,0.277 0.223,0.502 0.5,0.502 l 1,0 c 0.277,0 0.5,-0.225 0.5,-0.502 0,-0.277 -0.223,-0.5 -0.5,-0.5 l -1,0 z m -13,1 a 1.5,1.5 0 0 1 1.5,1.5 1.5,1.5 0 0 1 -1.5,1.5 1.5,1.5 0 0 1 -1.5,-1.5 1.5,1.5 0 0 1 1.5,-1.5 z m 13,0.998 c -0.277,0 -0.5,0.223 -0.5,0.5 0,0.277 0.223,0.502 0.5,0.502 l 1,0 c 0.277,0 0.5,-0.225 0.5,-0.502 0,-0.277 -0.223,-0.5 -0.5,-0.5 l -1,0 z m -3,0.002 c -0.277,0 -0.5,0.221 -0.5,0.498 0,0.277 0.223,0.502 0.5,0.502 l 1,0 c 0.277,0 0.5,-0.225 0.5,-0.502 0,-0.277 -0.223,-0.498 -0.5,-0.498 l -1,0 z m 4.5,3 c -0.552,0 -1,0.448 -1,1 0,0.552 0.448,1 1,1 0.552,0 1,-0.448 1,-1 0,-0.552 -0.448,-1 -1,-1 z m 0.482,0.25 0.018,0 c 0.138,0 0.25,0.112 0.25,0.25 0,0.138 -0.112,0.25 -0.25,0.25 -0.138,0 -0.25,-0.112 -0.25,-0.25 0,-0.131 0.101,-0.241 0.232,-0.25 z" mix-blend-mode="normal" white-space="normal" isolation="auto" solid-color="#000000" solid-opacity="1" style="visibility:visible;shape-rendering:auto;color-interpolation-filters:linearRGB;fill:#2d2d2d;opacity:1;image-rendering:auto;fill-opacity:1;stroke:none;display:inline;color:#000;fill-rule:evenodd;color-rendering:auto;color-interpolation:sRGB"/>
</svg>
