<svg viewBox="0 0 48 48" xmlns="http://www.w3.org/2000/svg" xmlns:xlink="http://www.w3.org/1999/xlink">
  <linearGradient id="a" gradientTransform="matrix(0 -1 1 0 -.0000015 47.999998)" gradientUnits="userSpaceOnUse" x1="1" x2="47">
    <stop offset="0" stop-color="#f9af41"/>
    <stop offset="1" stop-color="#fab754"/>
  </linearGradient>
  <path d="m47 24c0 22.703-.297 23-23 23-22.703 0-23-.297-23-23 0-22.703.297-23 23-23 22.703 0 23 .297 23 23z" fill="url(#a)"/>
  <path d="m32 10.955v.004 1c2 .045 4 1.045 5 2.545l1-.5c-1-2-3-3-6-3.049zm0 3.049v1c1.305.002 2.433.505 3.18 1.574l.82-.574c-.935-1.337-2.369-1.999-4-2zm-1 3c-.593 0-1 .471-1 .996v2h-16c-1 0-2 1-2 2v11c0 1 1 2 2 2h22c1 0 2-1 2-2v-11c0-1-1-2-2-2h-2v-2c0-.554-.446-.996-1-.996zm.5 1h1c .277.001.5.223.5.5v1.5h-2v-1.5c0-.277.223-.5.5-.5zm-16 4h8c .831 0 1.5.669 1.5 1.5v8c0 .831-.669 1.5-1.5 1.5h-8c-.831 0-1.5-.669-1.5-1.5v-8c0-.831.669-1.5 1.5-1.5zm11.5 0h7.309c.846 0 1.689.711 1.689 1.426v8.145c0 .714-.843 1.43-1.689 1.43h-7.309v-11zm2.5.998c-.277 0-.5.223-.5.5 0 .277.223.502.5.502h1c .277 0 .5-.225.5-.502 0-.277-.223-.5-.5-.5zm3 0c-.277 0-.5.223-.5.5 0 .277.223.502.5.502h1c .277 0 .5-.225.5-.502 0-.277-.223-.5-.5-.5zm-13 1a3.5 3.5 0 0 0-3.5 3.5 3.5 3.5 0 0 0  3.5 3.5 3.5 3.5 0 0 0  3.5-3.5 3.5 3.5 0 0 0-3.5-3.5zm10 .998c-.277 0-.5.223-.5.5 0 .277.223.502.5.502h1c .277 0 .5-.225.5-.502 0-.277-.223-.5-.5-.5zm3 0c-.277 0-.5.223-.5.5 0 .277.223.502.5.502h1c .277 0 .5-.225.5-.502 0-.277-.223-.5-.5-.5zm-13 1a1.5 1.5 0 0 1 1.5 1.5 1.5 1.5 0 0 1-1.5 1.5 1.5 1.5 0 0 1-1.5-1.5 1.5 1.5 0 0 1  1.5-1.5zm13 .998c-.277 0-.5.223-.5.5 0 .277.223.502.5.502h1c .277 0 .5-.225.5-.502 0-.277-.223-.5-.5-.5zm-3 .002c-.277 0-.5.221-.5.498 0 .277.223.502.5.502h1c .277 0 .5-.225.5-.502 0-.277-.223-.498-.5-.498zm4.5 3c-.552 0-1 .448-1 1 0 .552.448 1 1 1 .552 0 1-.448 1-1 0-.552-.448-1-1-1zm .482.25h.018c.138 0 .25.112.25.25 0 .138-.112.25-.25.25-.138 0-.25-.112-.25-.25 0-.131.101-.241.232-.25z" fill-rule="evenodd" opacity=".1"/>
  <path d="m31 9.951v.004 1c2 .045 4 1.045 5 2.545l1-.5c-1-2-3-3-6-3.049zm0 3.049v1c1.305.002 2.433.505 3.18 1.574l.82-.574c-.935-1.337-2.369-1.999-4-2zm-1 3c-.593 0-1 .471-1 .996v2h-16c-1 0-2 1-2 2v11c0 1 1 2 2 2h22c1 0 2-1 2-2v-11c0-1-1-2-2-2h-2v-2c0-.554-.446-.996-1-.996zm.5 1h1c .277.001.5.223.5.5v1.5h-2v-1.5c0-.277.223-.5.5-.5zm-16 4h8c .831 0 1.5.669 1.5 1.5v8c0 .831-.669 1.5-1.5 1.5h-8c-.831 0-1.5-.669-1.5-1.5v-8c0-.831.669-1.5 1.5-1.5zm11.5 0h7.309c.846 0 1.689.711 1.689 1.426v8.145c0 .714-.843 1.43-1.689 1.43h-7.309v-11zm2.5.998c-.277 0-.5.223-.5.5 0 .277.223.502.5.502h1c .277 0 .5-.225.5-.502 0-.277-.223-.5-.5-.5zm3 0c-.277 0-.5.223-.5.5 0 .277.223.502.5.502h1c .277 0 .5-.225.5-.502 0-.277-.223-.5-.5-.5zm-13 1a3.5 3.5 0 0 0-3.5 3.5 3.5 3.5 0 0 0  3.5 3.5 3.5 3.5 0 0 0  3.5-3.5 3.5 3.5 0 0 0-3.5-3.5zm10 .998c-.277 0-.5.223-.5.5 0 .277.223.502.5.502h1c .277 0 .5-.225.5-.502 0-.277-.223-.5-.5-.5zm3 0c-.277 0-.5.223-.5.5 0 .277.223.502.5.502h1c .277 0 .5-.225.5-.502 0-.277-.223-.5-.5-.5zm-13 1a1.5 1.5 0 0 1 1.5 1.5 1.5 1.5 0 0 1-1.5 1.5 1.5 1.5 0 0 1-1.5-1.5 1.5 1.5 0 0 1  1.5-1.5zm13 .998c-.277 0-.5.223-.5.5 0 .277.223.502.5.502h1c .277 0 .5-.225.5-.502 0-.277-.223-.5-.5-.5zm-3 .002c-.277 0-.5.221-.5.498 0 .277.223.502.5.502h1c .277 0 .5-.225.5-.502 0-.277-.223-.498-.5-.498zm4.5 3c-.552 0-1 .448-1 1 0 .552.448 1 1 1 .552 0 1-.448 1-1 0-.552-.448-1-1-1zm .482.25h.018c.138 0 .25.112.25.25 0 .138-.112.25-.25.25-.138 0-.25-.112-.25-.25 0-.131.101-.241.232-.25z" fill="#2d2d2d" fill-rule="evenodd"/>
</svg>
