<svg xmlns="http://www.w3.org/2000/svg" viewBox="0 0 48 48">
 <defs>
  <linearGradient id="linearGradient3764" x1="1" x2="47" gradientUnits="userSpaceOnUse" gradientTransform="matrix(0,-1,1,0,-1.5e-6,47.999998)">
   <stop style="stop-color:#ebebeb;stop-opacity:1"/>
   <stop offset="1" style="stop-color:#f5f5f5;stop-opacity:1"/>
  </linearGradient>
 </defs>
 <g>
  
  
  
 </g>
 <g>
  <path d="m 47,24 C 47,46.703 46.703,47 24,47 1.297,47 1,46.703 1,24 1,1.297 1.297,1 24,1 46.703,1 47,1.297 47,24 z" style="fill:url(#linearGradient3764);fill-opacity:1"/>
 </g>
 <g>
  
 </g>
 <g transform="translate(1,1)" style="fill:#000;opacity:0.1">
  <g>
   <path d="m 19 12 0 1 -1 2 0 21 2 2 11 0 2 -2 0 -21 -1 -2 0 -1 z" transform="translate(-1,-1)" style="fill-opacity:1;stroke:none;fill-rule:nonzero"/>
  </g>
 </g>
 <g>
  <g>
   <path d="m 18 36 13 0 -1 1 -11 0 z" style="fill:#808080;fill-opacity:1;stroke:none;fill-rule:nonzero"/>
   <path d="m 18 12 13 0 1 2 0 21 -1 1 -13 0 -1 -1 0 -21 z" style="fill:#f00;fill-opacity:1;stroke:none;fill-rule:nonzero"/>
   <path d="m 18 11 13 0 0 1 -13 0 z" style="fill:#808080;fill-opacity:1;stroke:none;fill-rule:nonzero"/>
   <path d="m 17.5,24 7,7 7,-7 -7,-7 -1.4,1.4 1.531,1.531 c 0.44,-0.117 0.924,-0.001 1.269,0.335 0.345,0.345 0.452,0.829 0.335,1.269 l 1.196,1.196 c 0.44,-0.117 0.924,-0.001 1.269,0.335 0.515,0.515 0.515,1.351 0,1.867 -0.515,0.515 -1.351,0.515 -1.867,0 -0.345,-0.345 -0.452,-0.829 -0.335,-1.269 l -1.065,-1.065 -0.467,4.2 c 0.515,0.515 0.515,1.351 0,1.867 -0.515,0.515 -1.351,0.515 -1.867,0 -0.515,-0.515 -0.515,-1.351 0,-1.867 0.159,-0.159 0.353,-0.26 0.554,-0.321 L 24.12,22.19 c -0.027,-0.023 -0.062,-0.033 -0.087,-0.058 -0.345,-0.345 -0.452,-0.829 -0.335,-1.269 l -1.531,-1.531 z" style="fill:#f9f9f9;fill-opacity:1;stroke:none;fill-rule:nonzero"/>
   <path d="m 17 35 15 0 -1 1 -13 0 z" style="fill:#d40000;opacity:0.2;stroke:none"/>
   <path d="m 17 14 15 0 0 1 -15 0 z" style="fill:#f9f9f9;stroke:none"/>
  </g>
  <path d="m 17 34 15 0 0 1 -15 0 z" style="fill:#f9f9f9;stroke:none"/>
 </g>
</svg>
