<svg viewBox="0 0 48 48" xmlns="http://www.w3.org/2000/svg" xmlns:xlink="http://www.w3.org/1999/xlink">
  <linearGradient id="a" gradientTransform="matrix(0 -1 1 0 -.0000015 47.999998)" gradientUnits="userSpaceOnUse" x1="1" x2="47">
    <stop offset="0" stop-color="#ebebeb"/>
    <stop offset="1" stop-color="#f5f5f5"/>
  </linearGradient>
  <path d="m47 24c0 22.703-.297 23-23 23-22.703 0-23-.297-23-23 0-22.703.297-23 23-23 22.703 0 23 .297 23 23z" fill="url(#a)"/>
  <path d="m19 12v1l-1 2v21l2 2h11l2-2v-21l-1-2v-1z" opacity=".1" transform=""/>
  <path d="m18 36h13l-1 1h-11z" fill="#808080"/>
  <path d="m18 12h13l1 2v21l-1 1h-13l-1-1v-21z" fill="#f00"/>
  <path d="m18 11h13v1h-13z" fill="#808080"/>
  <path d="m17.5 24l7 7 7-7-7-7-1.4 1.4 1.531 1.531c.44-.117.924-.001 1.269.335.345.345.452.829.335 1.269l1.196 1.196c.44-.117.924-.001 1.269.335.515.515.515 1.351 0 1.867-.515.515-1.351.515-1.867 0-.345-.345-.452-.829-.335-1.269l-1.065-1.065-.467 4.2c.515.515.515 1.351 0 1.867-.515.515-1.351.515-1.867 0-.515-.515-.515-1.351 0-1.867.159-.159.353-.26.554-.321l.467-4.288c-.027-.023-.062-.033-.087-.058-.345-.345-.452-.829-.335-1.269l-1.531-1.531z" fill="#f9f9f9"/>
  <path d="m17 35h15l-1 1h-13z" fill="#d40000" opacity=".2"/>
  <path d="m17 14h15v1h-15z" fill="#f9f9f9"/>
  <path d="m17 34h15v1h-15z" fill="#f9f9f9"/>
</svg>
