<svg viewBox="0 0 48 48" xmlns="http://www.w3.org/2000/svg" xmlns:xlink="http://www.w3.org/1999/xlink">
  <linearGradient id="a" gradientTransform="matrix(0 -1 1 0 -.0000015 47.999998)" gradientUnits="userSpaceOnUse" x1="1" x2="47">
    <stop offset="0" stop-color="#e4e4e4"/>
    <stop offset="1" stop-color="#eee"/>
  </linearGradient>
  <path d="m47 24c0 22.703-.297 23-23 23-22.703 0-23-.297-23-23 0-22.703.297-23 23-23 22.703 0 23 .297 23 23z" fill="url(#a)"/>
  <path d="m24 9c-3.844 0-7.664 1.469-10.598 4.398-5.871 5.855-5.871 15.352 0 21.21 5.867 5.855 15.332 5.855 21.2 0 5.867-5.859 5.867-15.355 0-21.21-2.934-2.93-6.754-4.398-10.598-4.398m-.004 0" opacity=".1" transform="translate(1 1)"/>
  <g transform="translate(.00025)">
    <path d="m24 9c-3.844 0-7.664 1.469-10.598 4.398-5.871 5.855-5.871 15.352 0 21.21 5.867 5.855 15.332 5.855 21.2 0 5.867-5.859 5.867-15.355 0-21.21-2.934-2.93-6.754-4.398-10.598-4.398m-.004 0" fill="#ed5133"/>
    <path d="m15 19h17v1.996h-17m0-1.996" fill="#f9f9f9"/>
    <path d="m25 20c0 1.656-1.344 3-3 3-1.66 0-3-1.344-3-3 0-1.656 1.344-3 3-3 1.656 0 3 1.344 3 3m0 0" fill="#f9f9f9"/>
    <path d="m33 20c0 1.656-1.344 3-3 3-1.66 0-3-1.344-3-3 0-1.656 1.344-3 3-3 1.656 0 3 1.344 3 3m0 0" fill="#f9f9f9"/>
    <path d="m33 28c0 1.656-1.344 3-3 3-1.66 0-3-1.344-3-3 0-1.656 1.344-3 3-3 1.656 0 3 1.344 3 3m0 0" fill="#f9f9f9"/>
    <path d="m30.734 30l-10.734-10.738 1.262-1.262 10.734 10.734m-1.262 1.266" fill="#f9f9f9"/>
  </g>
</svg>
