<svg viewBox="0 0 48 48" xmlns="http://www.w3.org/2000/svg" xmlns:xlink="http://www.w3.org/1999/xlink">
  <linearGradient id="a" gradientTransform="matrix(0 -1 1 0 0 48)" gradientUnits="userSpaceOnUse" x1="1" x2="47">
    <stop offset="0" stop-color="#30353e"/>
    <stop offset="1" stop-color="#393f49"/>
  </linearGradient>
  <path d="m1 24c0-22.703.297-23 23-23 22.703 0 23 .297 23 23 0 22.703-.297 23-23 23-22.703 0-23-.297-23-23z" fill="url(#a)"/>
  <g fill-opacity=".098" transform="matrix(.05730916 0 0 -.05730916 10.83295261 38.06649339)">
    <path d="m492 194.67l-27.559 84.81-54.617 168.1c-2.809 8.648-15.05 8.648-17.856 0l-54.619-168.1h-181.37l-54.62 168.1c-2.809 8.648-15.05 8.648-17.856 0l-54.617-168.1-27.557-84.81c-2.515-7.736.24-16.211 6.82-20.992l238.51-173.29 238.51 173.29c6.58 4.781 9.333 13.256 6.82 20.992" transform="translate(.532 .774933)"/>
    <path d="m16.16 12c-.216 0-.431.123-.512.371l-4.709 14.494c-.144.443.013.929.391 1.203l13.67 9.932 13.668-9.932c.377-.274.535-.76.391-1.203l-4.709-14.494c-.161-.496-.862-.496-1.023 0l-3.129 9.635h-10.395l-3.131-9.635c-.081-.248-.296-.371-.512-.371" transform="matrix(17.449218 0 0 -17.449218 -189.02655 664.230527)"/>
  </g>
  <g fill="#e24329" transform="matrix(.05730916 0 0 -.05730916 29.1446334 21.00528134)">
    <path d="m91 0l0 0c37.55 90.69 112.68 169.35 90.68 279.1h-181.37c-14.777-105.31 52.49-188.24 90.68-279.1" transform="translate(-180.77586 -279.09533)"/>
    <path d="m0 0c40.712-17.342 81.22-36.8 127.09 0l-54.619 168.1c-2.811 8.649-15.05 8.649-17.856 0l-54.617-168.1" transform="translate(-307.55186 .00000602)"/>
    <path d="m218.67 0l-90.68 279.09h-127.09c32.354-121.77 133.05-194.73 217.78-279.09" fill="#fc6d26" transform="translate(-308.44252 -279.09478)"/>
    <path d="m29.333 280l0 0-27.559-84.81c-2.513-7.736.24-16.211 6.821-20.991l238.51-173.29-217.78 279.09 0 0z" fill="#fca326" transform="translate(-336.88519 -279.99972)"/>
    <path d="m128 0c-50.673-31.576-89.46-17.996-127.09 0l54.619 168.1c2.811 8.649 15.05 8.649 17.856 0l54.617-168.1"/>
    <path d="m0 0l90.68 279.09h127.09c-29.876-130.18-129.74-199.49-217.78-279.09" fill="#fc6d26" transform="translate(-89.775855 -279.09478)"/>
    <path d="m218.67 280l0 0 27.559-84.81c2.513-7.736-.24-16.211-6.821-20.991l-238.51-173.29 217.78 279.09 0 0z" fill="#fca326" transform="translate(-90.666655 -279.99972)"/>
  </g>
</svg>
