<svg viewBox="0 0 48 48" xmlns="http://www.w3.org/2000/svg" xmlns:xlink="http://www.w3.org/1999/xlink">
  <linearGradient id="a" gradientUnits="userSpaceOnUse" x1="1" x2="47">
    <stop offset="0" stop-color="#d21354"/>
    <stop offset="1" stop-color="#e3155b"/>
  </linearGradient>
  <path d="m24 1c22.703 0 23 .297 23 23 0 22.703-.297 23-23 23-22.703 0-23-.297-23-23 0-22.703.297-23 23-23z" fill="url(#a)" transform="matrix(0 -1 1 0 0 48)"/>
  <path d="m16 12v17h3v-17zm5 4v22h3v-22zm5 0v22h3v-22zm5 0v13h3v-13z" opacity=".1"/>
  <path d="m15 11h3v17h-3z" fill="#f6dee6"/>
  <path d="m20 15h3v22h-3z" fill="#f6dee6"/>
  <path d="m25 15h3v22h-3z" fill="#f6dee6"/>
  <path d="m30 15h3v13h-3z" fill="#f6dee6"/>
</svg>
