<svg viewBox="0 0 48 48" xmlns="http://www.w3.org/2000/svg" xmlns:xlink="http://www.w3.org/1999/xlink">
  <linearGradient id="a" gradientTransform="matrix(0 -1 1 0 -.0000015 47.999998)" gradientUnits="userSpaceOnUse" x1="1" x2="47">
    <stop offset="0" stop-color="#43557f"/>
    <stop offset="1" stop-color="#4a5e8c"/>
  </linearGradient>
  <path d="m47 24c0 22.703-.297 23-23 23-22.703 0-23-.297-23-23 0-22.703.297-23 23-23 22.703 0 23 .297 23 23z" fill="url(#a)"/>
  <path d="m14 15c-.73 0-1 .266-1 1v2c0 5.333 0 10.667 0 16 0 .734.27 1 1 1h22c .734 0 1-.266 1-1 0-5.333 0-10.667 0-16v-2c0-.734-.266-1-1-1z" fill-opacity=".098"/>
  <path d="m35 14c .734 0 1 .266 1 1v9c0 .734-.266 1-1 1h-22c-.73 0-1-.266-1-1v-9c0-.734.27-1 1-1" fill="#b4b4b4"/>
  <path d="m36 17v16c0 .734-.266 1-1 1h-22c-.73 0-1-.266-1-1v-16" fill="#f0f0f0"/>
  <rect fill="#b4b4b4" height="3" rx="1" width="10" x="19" y="20"/>
  <rect fill="#b4b4b4" height="3" rx="1" width="10" x="19" y="24"/>
  <rect fill="#b4b4b4" height="3" rx="1" width="10" x="19" y="28"/>
</svg>
