<svg viewBox="0 0 48 48" xmlns="http://www.w3.org/2000/svg" xmlns:xlink="http://www.w3.org/1999/xlink">
  <linearGradient id="a" gradientTransform="matrix(0 -1 1 0 -.0000015 47.999998)" gradientUnits="userSpaceOnUse" x1="1" x2="47">
    <stop offset="0" stop-color="#8d9ba1"/>
    <stop offset="1" stop-color="#98a5aa"/>
  </linearGradient>
  <path d="m47 24c0 22.703-.297 23-23 23-22.703 0-23-.297-23-23 0-22.703.297-23 23-23 22.703 0 23 .297 23 23z" fill="url(#a)"/>
  <path d="m26.904 13c-4.988-.129-9.753 2.743-11.835 7.309-2.655 5.821-.215 13.05 5.675 15.719 5.341 2.422 11.964.165 14.392-5.275 2.183-4.891.109-10.937-4.855-13.12-1.24-.546-2.561-.78-3.863-.748l-.488 3.887c.858-.112 1.749-.039 2.582.283 3.105 1.202 4.431 4.901 3.211 7.918-1.448 3.581-5.718 5.096-9.199 3.633-4.04-1.697-5.735-6.567-4.04-10.52 1.393-3.245 4.602-5.119 7.933-5.201zm-.975 7.77c-1.763.231-3.382 1.311-4.02 3.092-.75 2.086.209 4.617 2.392 5.32 1.608.516 3.569-.261 4.01-1.988.289-1.133-.308-2.55-1.574-2.719-.644-.086-1.296.305-1.414 1.164z" fill-rule="evenodd" opacity=".1"/>
  <path d="m25.904 12c-4.988-.129-9.753 2.743-11.835 7.309-2.655 5.821-.215 13.05 5.675 15.719 5.341 2.422 11.964.165 14.392-5.275 2.183-4.891.109-10.937-4.855-13.12-1.24-.546-2.561-.78-3.863-.748l-.488 3.887c.858-.112 1.749-.039 2.582.283 3.105 1.202 4.431 4.901 3.211 7.918-1.448 3.581-5.718 5.096-9.199 3.633-4.04-1.697-5.735-6.567-4.04-10.52 1.393-3.245 4.602-5.119 7.933-5.201zm-.975 7.77c-1.763.231-3.382 1.311-4.02 3.092-.75 2.086.209 4.617 2.392 5.32 1.608.516 3.569-.261 4.01-1.988.289-1.133-.308-2.55-1.574-2.719-.644-.086-1.296.305-1.414 1.164z" fill="#fff" fill-rule="evenodd"/>
</svg>
