<svg xmlns="http://www.w3.org/2000/svg" viewBox="0 0 48 48">
 <defs>
  <linearGradient id="linearGradient3764" x1="1" x2="47" gradientUnits="userSpaceOnUse" gradientTransform="matrix(0,-1,1,0,-1.5e-6,47.999998)">
   <stop style="stop-color:#8d9ba1;stop-opacity:1"/>
   <stop offset="1" style="stop-color:#98a5aa;stop-opacity:1"/>
  </linearGradient>
 </defs>
 <g>
  
  
  
 </g>
 <g>
  <path d="m 47,24 C 47,46.703 46.703,47 24,47 1.297,47 1,46.703 1,24 1,1.297 1.297,1 24,1 46.703,1 47,1.297 47,24 z" style="fill:url(#linearGradient3764);fill-opacity:1"/>
 </g>
 <g>
  <g>
   <g transform="translate(1,1)">
    <g style="opacity:0.1">
     <!-- color: #98a5aa -->
    </g>
   </g>
  </g>
 </g>
 <g>
  <g>
   <!-- color: #98a5aa -->
   <g>
    <path d="m 26.904 13 c -4.988 -0.129 -9.753 2.743 -11.835 7.309 -2.655 5.821 -0.215 13.05 5.675 15.719 5.341 2.422 11.964 0.165 14.392 -5.275 c 2.183 -4.891 0.109 -10.937 -4.855 -13.12 -1.24 -0.546 -2.561 -0.78 -3.863 -0.748 l -0.488 3.887 c 0.858 -0.112 1.749 -0.039 2.582 0.283 3.105 1.202 4.431 4.901 3.211 7.918 -1.448 3.581 -5.718 5.096 -9.199 3.633 -4.04 -1.697 -5.735 -6.567 -4.04 -10.52 1.393 -3.245 4.602 -5.119 7.933 -5.201 z m -0.975 7.77 c -1.763 0.231 -3.382 1.311 -4.02 3.092 -0.75 2.086 0.209 4.617 2.392 5.32 1.608 0.516 3.569 -0.261 4.01 -1.988 0.289 -1.133 -0.308 -2.55 -1.574 -2.719 -0.644 -0.086 -1.296 0.305 -1.414 1.164 z" style="fill:#000;opacity:0.1;fill-opacity:1;stroke:none;fill-rule:evenodd"/>
    <path d="m 25.904 12 c -4.988 -0.129 -9.753 2.743 -11.835 7.309 -2.655 5.821 -0.215 13.05 5.675 15.719 5.341 2.422 11.964 0.165 14.392 -5.275 c 2.183 -4.891 0.109 -10.937 -4.855 -13.12 -1.24 -0.546 -2.561 -0.78 -3.863 -0.748 l -0.488 3.887 c 0.858 -0.112 1.749 -0.039 2.582 0.283 3.105 1.202 4.431 4.901 3.211 7.918 -1.448 3.581 -5.718 5.096 -9.199 3.633 -4.04 -1.697 -5.735 -6.567 -4.04 -10.52 1.393 -3.245 4.602 -5.119 7.933 -5.201 z m -0.975 7.77 c -1.763 0.231 -3.382 1.311 -4.02 3.092 -0.75 2.086 0.209 4.617 2.392 5.32 1.608 0.516 3.569 -0.261 4.01 -1.988 0.289 -1.133 -0.308 -2.55 -1.574 -2.719 -0.644 -0.086 -1.296 0.305 -1.414 1.164 z" style="fill:#fff;fill-opacity:1;stroke:none;fill-rule:evenodd"/>
   </g>
  </g>
 </g>
 <g>
  
 </g>
</svg>
