<svg viewBox="0 0 48 48" xmlns="http://www.w3.org/2000/svg" xmlns:xlink="http://www.w3.org/1999/xlink">
  <linearGradient id="a" gradientTransform="matrix(0 -1 1 0 -.0000015 47.999998)" gradientUnits="userSpaceOnUse" x1="1" x2="47">
    <stop offset="0" stop-color="#706789"/>
    <stop offset="1" stop-color="#7a7094"/>
  </linearGradient>
  <path d="m47 24c0 22.703-.297 23-23 23-22.703 0-23-.297-23-23 0-22.703.297-23 23-23 22.703 0 23 .297 23 23z" fill="url(#a)"/>
  <path d="m33.746 12.99a.742.742 0 0 0-.074.004.742.742 0 0 0-.52 1.203c1.472 1.874 2.359 4.242 2.359 6.824 0 2.568-.867 4.916-2.324 6.781a.745.745 0 0 0 1.173.915c1.66-2.118 2.64-4.793 2.64-7.697 0-2.92-1.01-5.615-2.68-7.738a.742.742 0 0 0-.576-.293zm-17.453.002a.742.742 0 0 0-.068.002.742.742 0 0 0-.553.289c-1.672 2.124-2.672 4.817-2.672 7.737 0 2.903.991 5.578 2.645 7.695a.742.742 0 1 0 1.168-.912c-1.457-1.866-2.332-4.214-2.332-6.781 0-2.584.89-4.951 2.361-6.824a.742.742 0 0 0-.549-1.206m1.907 1.946a.742.742 0 0 0-.618.312c-1.191 1.613-1.875 3.613-1.875 5.771 0 2.136.685 4.119 1.848 5.723a.742.742 0 1 0 1.197-.871c-.985-1.358-1.564-3.03-1.564-4.853 0-1.845.578-3.53 1.584-4.893a.742.742 0 0 0-.572-1.189m13.578 0a .742.742 0 0 0-.553 1.191c1 1.364 1.576 3.047 1.576 4.893 0 1.818-.578 3.493-1.563 4.852a.743.743 0 1 0 1.203.871c1.162-1.604 1.848-3.587 1.848-5.723 0-2.159-.684-4.159-1.867-5.771a.742.742 0 0 0-.645-.313zm-11.564 2.104a.742.742 0 0 0-.596.361c-.651 1.044-1.037 2.289-1.037 3.619 0 1.307.385 2.535 1.023 3.57a.742.742 0 1 0 1.26-.781c-.502-.814-.795-1.772-.795-2.789 0-1.044.297-2.01.809-2.83a.742.742 0 0 0-.664-1.15zm9.543 0a .742.742 0 0 0-.643 1.15c.514.819.816 1.786.816 2.83 0 1.02-.288 1.977-.789 2.789a.742.742 0 1 0 1.26.781c.64-1.038 1.018-2.266 1.018-3.57 0-1.33-.389-2.574-1.045-3.619a.742.742 0 0 0-.62-.363m-4.754 1.96c-1.105 0-2 .895-2 2 0 .739.404 1.376 1 1.723v15.211c0 .589.445 1.066 1 1.066.551 0 .996-.476.996-1.066v-15.209c.598-.346 1.004-.984 1.004-1.725 0-1.105-.89-2-2-2" opacity=".1"/>
  <path d="m32.746 11.99a.742.742 0 0 0-.074.004.742.742 0 0 0-.522 1.203c1.474 1.873 2.362 4.242 2.362 6.823 0 2.57-.868 4.918-2.322 6.783a.745.745 0 0 0 1.17.914c1.66-2.118 2.64-4.793 2.64-7.697 0-2.92-1.01-5.614-2.68-7.737a.742.742 0 0 0-.574-.293m-17.453.002a.742.742 0 0 0-.068.002.742.742 0 0 0-.553.289c-1.672 2.124-2.672 4.817-2.672 7.737 0 2.905.991 5.58 2.645 7.697a.742.742 0 1 0 1.168-.914c-1.458-1.866-2.333-4.214-2.333-6.783 0-2.582.891-4.95 2.362-6.823a.742.742 0 0 0-.549-1.205zm1.904 1.946a.742.742 0 0 0-.615.312c-1.191 1.613-1.875 3.613-1.875 5.77 0 2.14.685 4.12 1.848 5.724a.742.742 0 1 0 1.197-.871c-.985-1.358-1.564-3.03-1.564-4.853 0-1.84.577-3.528 1.583-4.89a.742.742 0 0 0-.574-1.192zm13.578 0a .742.742 0 0 0-.555 1.192c1 1.363 1.579 3.05 1.579 4.89 0 1.82-.579 3.495-1.559 4.853a.743.743 0 1 0 1.199.871c1.163-1.604 1.851-3.584 1.851-5.724 0-2.157-.687-4.157-1.87-5.77a.742.742 0 0 0-.645-.312m-11.564 2.102a.742.742 0 0 0-.596.362c-.651 1.044-1.037 2.289-1.037 3.618 0 1.309.385 2.536 1.024 3.572a.742.742 0 1 0 1.259-.781c-.502-.815-.791-1.771-.791-2.791 0-1.042.294-2.01.805-2.829a.742.742 0 0 0-.664-1.151m9.543 0a .742.742 0 0 0-.644 1.151c.515.819.818 1.787.818 2.829 0 1.02-.289 1.979-.788 2.791a.742.742 0 1 0 1.258.781c.642-1.038 1.018-2.266 1.018-3.572 0-1.329-.386-2.573-1.045-3.618a.742.742 0 0 0-.617-.362" fill="#f9f9f9"/>
  <path d="m26 20c0 1.105-.895 2-2 2-1.105 0-2-.895-2-2 0-1.105.895-2 2-2 1.105 0 2 .895 2 2m0 0" fill="#f9f9f9"/>
  <path d="m24 20c .551 0 .996.473.996 1.063v15.871c0 .59-.445 1.066-.996 1.066-.555 0-1-.477-1-1.066v-15.871c0-.59.445-1.063 1-1.063m0 0" fill="#f9f9f9"/>
</svg>
