<svg xmlns="http://www.w3.org/2000/svg" viewBox="0 0 48 48">
 <defs>
  <linearGradient id="linearGradient3764" x1="1" x2="47" gradientUnits="userSpaceOnUse" gradientTransform="matrix(0,-1,1,0,-1.5e-6,47.999998)">
   <stop style="stop-color:#706789;stop-opacity:1"/>
   <stop offset="1" style="stop-color:#7a7094;stop-opacity:1"/>
  </linearGradient>
 </defs>
 <g>
  
  
  
 </g>
 <g>
  <path d="m 47,24 C 47,46.703 46.703,47 24,47 1.297,47 1,46.703 1,24 1,1.297 1.297,1 24,1 46.703,1 47,1.297 47,24 z" style="fill:url(#linearGradient3764);fill-opacity:1"/>
 </g>
 <g>
  
 </g>
 <path d="m 33.746 12.99 a 0.742 0.742 0 0 0 -0.074 0.004 0.742 0.742 0 0 0 -0.52 1.203 c 1.472 1.874 2.359 4.242 2.359 6.824 0 2.568 -0.867 4.916 -2.324 6.781 a 0.745 0.745 0 0 0 1.173 0.915 C 36.02 26.599 37 23.924 37 21.02 37 18.1 35.99 15.405 34.32 13.282 a 0.742 0.742 0 0 0 -0.576 -0.293 z m -17.453 0.002 a 0.742 0.742 0 0 0 -0.068 0.002 0.742 0.742 0 0 0 -0.553 0.289 C 14 15.407 13 18.1 13 21.02 c 0 2.903 0.991 5.578 2.645 7.695 a 0.742 0.742 0 1 0 1.168 -0.912 c -1.457 -1.866 -2.332 -4.214 -2.332 -6.781 0 -2.584 0.89 -4.951 2.361 -6.824 a 0.742 0.742 0 0 0 -0.549 -1.206 m 1.907 1.946 a 0.742 0.742 0 0 0 -0.618 0.312 c -1.191 1.613 -1.875 3.613 -1.875 5.771 0 2.136 0.685 4.119 1.848 5.723 a 0.742 0.742 0 1 0 1.197 -0.871 c -0.985 -1.358 -1.564 -3.03 -1.564 -4.853 0 -1.845 0.578 -3.53 1.584 -4.893 A 0.742 0.742 0 0 0 18.2 14.938 m 13.578 0 a 0.742 0.742 0 0 0 -0.553 1.191 c 1 1.364 1.576 3.047 1.576 4.893 0 1.818 -0.578 3.493 -1.563 4.852 a 0.743 0.743 0 1 0 1.203 0.871 c 1.162 -1.604 1.848 -3.587 1.848 -5.723 0 -2.159 -0.684 -4.159 -1.867 -5.771 a 0.742 0.742 0 0 0 -0.645 -0.313 z m -11.564 2.104 a 0.742 0.742 0 0 0 -0.596 0.361 c -0.651 1.044 -1.037 2.289 -1.037 3.619 0 1.307 0.385 2.535 1.023 3.57 a 0.742 0.742 0 1 0 1.26 -0.781 c -0.502 -0.814 -0.795 -1.772 -0.795 -2.789 0 -1.044 0.297 -2.01 0.809 -2.83 a 0.742 0.742 0 0 0 -0.664 -1.15 z m 9.543 0 a 0.742 0.742 0 0 0 -0.643 1.15 c 0.514 0.819 0.816 1.786 0.816 2.83 0 1.02 -0.288 1.977 -0.789 2.789 a 0.742 0.742 0 1 0 1.26 0.781 c 0.64 -1.038 1.018 -2.266 1.018 -3.57 0 -1.33 -0.389 -2.574 -1.045 -3.619 A 0.742 0.742 0 0 0 29.754 17.04 M 25 19 c -1.105 0 -2 0.895 -2 2 0 0.739 0.404 1.376 1 1.723 l 0 15.211 c 0 0.589 0.445 1.066 1 1.066 0.551 0 0.996 -0.476 0.996 -1.066 l 0 -15.209 C 26.594 22.379 27 21.741 27 21 27 19.895 26.11 19 25 19" mix-blend-mode="normal" isolation="auto" white-space="normal" solid-color="#000000" solid-opacity="1" style="visibility:visible;shape-rendering:auto;color-interpolation-filters:linearRGB;fill:#000;opacity:0.1;image-rendering:auto;fill-opacity:1;stroke:none;display:inline;color:#000;fill-rule:nonzero;color-rendering:auto;color-interpolation:sRGB"/>
 <path d="m 32.746 11.99 a 0.742 0.742 0 0 0 -0.074 0.004 0.742 0.742 0 0 0 -0.522 1.203 c 1.474 1.873 2.362 4.242 2.362 6.823 0 2.57 -0.868 4.918 -2.322 6.783 a 0.745 0.745 0 0 0 1.17 0.914 C 35.02 25.599 36 22.924 36 20.02 36 17.1 34.99 14.406 33.32 12.283 A 0.742 0.742 0 0 0 32.746 11.99 m -17.453 0.002 a 0.742 0.742 0 0 0 -0.068 0.002 0.742 0.742 0 0 0 -0.553 0.289 C 13 14.407 12 17.1 12 20.02 c 0 2.905 0.991 5.58 2.645 7.697 a 0.742 0.742 0 1 0 1.168 -0.914 C 14.355 24.937 13.48 22.589 13.48 20.02 c 0 -2.582 0.891 -4.95 2.362 -6.823 a 0.742 0.742 0 0 0 -0.549 -1.205 z m 1.904 1.946 a 0.742 0.742 0 0 0 -0.615 0.312 c -1.191 1.613 -1.875 3.613 -1.875 5.77 0 2.14 0.685 4.12 1.848 5.724 a 0.742 0.742 0 1 0 1.197 -0.871 c -0.985 -1.358 -1.564 -3.03 -1.564 -4.853 0 -1.84 0.577 -3.528 1.583 -4.89 a 0.742 0.742 0 0 0 -0.574 -1.192 z m 13.578 0 A 0.742 0.742 0 0 0 30.22 15.13 c 1 1.363 1.579 3.05 1.579 4.89 0 1.82 -0.579 3.495 -1.559 4.853 a 0.743 0.743 0 1 0 1.199 0.871 c 1.163 -1.604 1.851 -3.584 1.851 -5.724 0 -2.157 -0.687 -4.157 -1.87 -5.77 A 0.742 0.742 0 0 0 30.775 13.938 M 19.211 16.04 a 0.742 0.742 0 0 0 -0.596 0.362 c -0.651 1.044 -1.037 2.289 -1.037 3.618 0 1.309 0.385 2.536 1.024 3.572 a 0.742 0.742 0 1 0 1.259 -0.781 C 19.359 21.996 19.07 21.04 19.07 20.02 c 0 -1.042 0.294 -2.01 0.805 -2.829 A 0.742 0.742 0 0 0 19.211 16.04 m 9.543 0 a 0.742 0.742 0 0 0 -0.644 1.151 c 0.515 0.819 0.818 1.787 0.818 2.829 0 1.02 -0.289 1.979 -0.788 2.791 a 0.742 0.742 0 1 0 1.258 0.781 c 0.642 -1.038 1.018 -2.266 1.018 -3.572 0 -1.329 -0.386 -2.573 -1.045 -3.618 A 0.742 0.742 0 0 0 28.754 16.04" mix-blend-mode="normal" isolation="auto" white-space="normal" solid-color="#000000" solid-opacity="1" style="visibility:visible;shape-rendering:auto;color-interpolation-filters:linearRGB;fill:#f9f9f9;opacity:1;image-rendering:auto;fill-opacity:1;stroke:none;display:inline;color:#000;fill-rule:nonzero;color-rendering:auto;color-interpolation:sRGB"/>
 <path d="m 26 20 c 0 1.105 -0.895 2 -2 2 -1.105 0 -2 -0.895 -2 -2 0 -1.105 0.895 -2 2 -2 1.105 0 2 0.895 2 2 m 0 0" style="fill:#f9f9f9;fill-opacity:1;stroke:none;fill-rule:nonzero"/>
 <path d="m 24,20 c 0.551,0 0.996,0.473 0.996,1.063 l 0,15.871 C 24.996,37.524 24.551,38 24,38 23.445,38 23,37.523 23,36.934 L 23,21.063 C 23,20.473 23.445,20 24,20 m 0,0" style="fill:#f9f9f9;fill-opacity:1;stroke:none;fill-rule:nonzero"/>
</svg>
