<svg viewBox="0 0 48 48" xmlns="http://www.w3.org/2000/svg" xmlns:xlink="http://www.w3.org/1999/xlink">
  <linearGradient id="a" gradientTransform="matrix(0 -1 1 0 -.0000015 47.999998)" gradientUnits="userSpaceOnUse" x1="1" x2="47">
    <stop offset="0" stop-color="#e4e4e4"/>
    <stop offset="1" stop-color="#eee"/>
  </linearGradient>
  <path d="m47 24c0 22.703-.297 23-23 23-22.703 0-23-.297-23-23 0-22.703.297-23 23-23 22.703 0 23 .297 23 23z" fill="url(#a)"/>
  <path d="m36 13.977c0 0-2 3-5 3-2.797-.539-3.906-.082-4 0v12.1c-.133 2.551-2.223 5.105-5.336 6.281-3.949 1.492-8.125.195-9.332-2.906-1.211-3.098 1-6.848 4.953-8.34 3.059-1.156 5.867-.871 7.715.863v-12c4-2.66 7.719.961 11 1m0 0" opacity=".1" transform="translate(1 1)"/>
  <path d="m36 13.977c0 0-2 3-5 3-2.797-.539-3.906-.082-4 0v12.1c-.133 2.551-2.223 5.105-5.336 6.281-3.949 1.492-8.125.195-9.332-2.906-1.211-3.098 1-6.848 4.953-8.34 3.059-1.156 5.867-.871 7.715.863v-12c4-2.66 7.719.961 11 1m0 0" fill="#2d4c78"/>
</svg>
