<svg xmlns="http://www.w3.org/2000/svg" viewBox="0 0 48 48">
 <defs>
  <linearGradient id="linearGradient3790" y1="1" x2="0" y2="47" gradientUnits="userSpaceOnUse">
   <stop style="stop-color:#5abad2;stop-opacity:1"/>
   <stop offset="1" style="stop-color:#36a8c4;stop-opacity:1"/>
  </linearGradient>
 </defs>
 <g>
  
  
  
 </g>
 <g style="fill:#5fbcd3">
  <path d="m 24 1 c 22.703 0 23 0.297 23 23 c 0 22.703 -0.297 23 -23 23 -22.703 0 -23 -0.297 -23 -23 0 -22.703 0.297 -23 23 -23 z" style="fill:url(#linearGradient3790);fill-opacity:1"/>
 </g>
 <g>
  
 </g>
 <g transform="matrix(1.046729,0,0,1.0505051,-0.12149563,-0.06060771)" style="fill:#000;opacity:0.1">
  <path d="m 25 9 -14 26 28 0" transform="matrix(0.95535712,0,0,0.95192303,0.11607171,0.05769388)" style="stroke:none"/>
 </g>
 <g>
  <path d="m 24 28.551 -13.967 5.384 -0.033 0.066 l 28 0 -14 -5.449 z" style="fill:#808080;stroke:none"/>
  <path d="m 24 8 -13.967 25.934 13.967 -5.384 0 -20.551 z" style="fill:#f2f2f2;stroke:none"/>
  <path d="m 24 8 0 20.551 14 5.449 -14 -26 z" style="fill:#4d4d4d;stroke:none"/>
 </g>
</svg>
