<svg viewBox="0 0 48 48" xmlns="http://www.w3.org/2000/svg" xmlns:xlink="http://www.w3.org/1999/xlink">
  <linearGradient id="a" gradientTransform="matrix(0 -1 1 0 -.0000015 47.999998)" gradientUnits="userSpaceOnUse" x1="1" x2="47">
    <stop offset="0" stop-color="#badad1"/>
    <stop offset="1" stop-color="#c7e1d9"/>
  </linearGradient>
  <path d="m47 24c0 22.703-.297 23-23 23-22.703 0-23-.297-23-23 0-22.703.297-23 23-23 22.703 0 23 .297 23 23z" fill="url(#a)"/>
  <path d="m19 12c-1.108 0-2 .892-2 2v22c0 1.108.892 2 2 2h12c1.108 0 2-.892 2-2v-22c0-1.108-.892-2-2-2zm6 16a4 4 0 0 1 4 4 4 4 0 0 1-4 4 4 4 0 0 1-4-4 4 4 0 0 1  4-4zm0 1a3 3 0 0 0-3 3 3 3 0 0 0  3 3 3 3 0 0 0  3-3 3 3 0 0 0-3-3z" opacity=".1"/>
  <path d="m17 12h14v14h-14z" fill="#7eadbb"/>
  <path d="m18 11c-1.108 0-2 .892-2 2v22c0 1.108.892 2 2 2h12c1.108 0 2-.892 2-2v-22c0-1.108-.892-2-2-2zm .5 2h11c .277 0 .5.223.5.5v11c0 .277-.223.5-.5.5h-11c-.277 0-.5-.223-.5-.5v-11c0-.277.223-.5.5-.5zm5.5 14a4 4 0 0 1 4 4 4 4 0 0 1-4 4 4 4 0 0 1-4-4 4 4 0 0 1  4-4zm0 1a3 3 0 0 0-3 3 3 3 0 0 0  3 3 3 3 0 0 0  3-3 3 3 0 0 0-3-3z" fill="#505050"/>
  <path d="m24 26c-.554 0-1 .446-1 1v .131a4 4 0 0 1 1-.131 4 4 0 0 1  1 .133v-.133c0-.554-.446-1-1-1zm-4 4c-.554 0-1 .446-1 1 0 .554.446 1 1 1h .131a4 4 0 0 1-.131-1 4 4 0 0 1  .133-1zm7.869 0a4 4 0 0 1  .131 1 4 4 0 0 1-.133 1h .133c.554 0 1-.446 1-1 0-.554-.446-1-1-1zm-4.869 4.867v.133c0 .554.446 1 1 1 .554 0 1-.446 1-1v-.131a4 4 0 0 1-1 .131 4 4 0 0 1-1-.133z" fill="#464646"/>
</svg>
