<svg xmlns="http://www.w3.org/2000/svg" viewBox="0 0 48 48">
 <defs>
  <linearGradient id="linearGradient3764" x1="1" x2="47" gradientUnits="userSpaceOnUse" gradientTransform="matrix(0,-1,1,0,-1.5e-6,47.999998)">
   <stop style="stop-color:#5954bc;stop-opacity:1"/>
   <stop offset="1" style="stop-color:#6762c2;stop-opacity:1"/>
  </linearGradient>
 </defs>
 <g>
  
  
  
 </g>
 <g>
  <path d="m 47,24 C 47,46.703 46.703,47 24,47 1.297,47 1,46.703 1,24 1,1.297 1.297,1 24,1 46.703,1 47,1.297 47,24 z" style="fill:url(#linearGradient3764);fill-opacity:1"/>
 </g>
 <g transform="translate(-1,0)">
  <g>
   <g transform="translate(1,1)">
    <g style="opacity:0.1">
     <!-- color: #6762c2 -->
     <g>
      <path d="M 29.906,11 C 25.316,10.883 22.031,11.551 18,14.156 l 0,15 C 17.68,29.074 17.348,29 17,29 c -2.211,0 -4,1.789 -4,4 0,2.211 1.789,4 4,4 2.207,0 4,-1.789 4,-4 0,-0.031 0,-0.063 0,-0.094 l 0,-12.969 c 3.77,-2.699 6.711,-3.328 11,-2.313 l 0,9.531 c -0.32,-0.086 -0.652,-0.156 -1,-0.156 -2.211,0 -4,1.793 -4,4 0,2.211 1.789,4 4,4 2.164,0 3.934,-1.723 4,-3.875 0,-0.043 0,-0.086 0,-0.125 l 0,-19.656 c -1.902,-0.172 -3.563,-0.305 -5.094,-0.344 m 0,0" style="fill:#000;fill-opacity:1;stroke:none;fill-rule:nonzero"/>
     </g>
    </g>
   </g>
  </g>
 </g>
 <g transform="translate(-1,0)">
  <g>
   <!-- color: #6762c2 -->
   <g>
    <path d="M 29.906,11 C 25.316,10.883 22.031,11.551 18,14.156 l 0,15 C 17.68,29.074 17.348,29 17,29 c -2.211,0 -4,1.789 -4,4 0,2.211 1.789,4 4,4 2.207,0 4,-1.789 4,-4 0,-0.031 0,-0.063 0,-0.094 l 0,-12.969 c 3.77,-2.699 6.711,-3.328 11,-2.313 l 0,9.531 c -0.32,-0.086 -0.652,-0.156 -1,-0.156 -2.211,0 -4,1.793 -4,4 0,2.211 1.789,4 4,4 2.164,0 3.934,-1.723 4,-3.875 0,-0.043 0,-0.086 0,-0.125 l 0,-19.656 c -1.902,-0.172 -3.563,-0.305 -5.094,-0.344 m 0,0" style="fill:#f8f8f8;fill-opacity:1;stroke:none;fill-rule:nonzero"/>
   </g>
  </g>
 </g>
 <g>
  
 </g>
</svg>
