<svg xmlns="http://www.w3.org/2000/svg" viewBox="0 0 48 48">
 <defs>
  <linearGradient id="linearGradient3864" y1="47" x2="0" y2="1" gradientUnits="userSpaceOnUse">
   <stop style="stop-color:#eaeaea;stop-opacity:1"/>
   <stop offset="1" style="stop-color:#f4f4f4;stop-opacity:1"/>
  </linearGradient>
 </defs>
 <g>
  
  
  
 </g>
 <g>
  <path d="m 24 1 c 22.703 0 23 0.297 23 23 c 0 22.703 -0.297 23 -23 23 -22.703 0 -23 -0.297 -23 -23 0 -22.703 0.297 -23 23 -23 z" style="fill:url(#linearGradient3864);fill-opacity:1"/>
 </g>
 <g>
  
 </g>
 <g transform="matrix(-1,0,0,-1,48,60.008919)">
  <g transform="translate(-1.0000001,-0.99999967)" style="fill:#000;fill-opacity:0.1">
   <g>
    <path d="m 25 10 c -8.284 0 -15 6.716 -15 15 0 8.284 6.716 15 15 15 8.284 0 15 -6.716 15 -15 0 -8.284 -6.716 -15 -15 -15 z m 0 3 c 6.627 0 12 5.373 12 12 0 6.627 -5.373 12 -12 12 -6.627 0 -12 -5.373 -12 -12 0 -6.627 5.373 -12 12 -12 z m 0 3 c -1.657 0 -3 1.343 -3 3 0 1.036 0.514 1.961 1.313 2.5 l 1.688 1.719 c 0 0 1.342 -1.366 2 -2 0.609 -0.549 1 -1.334 1 -2.219 0 -1.657 -1.343 -3 -3 -3 z m -6 6 c -1.657 0 -3 1.343 -3 3 0 1.657 1.343 3 3 3 0.884 0 1.67 -0.391 2.219 -1 0.643 -0.69 2 -2 2 -2 0 0 -1.366 -1.342 -2 -2 c -0.549 -0.609 -1.334 -1 -2.219 -1 z m 12 0 c -0.932 0 -1.762 0.427 -2.313 1.094 l -1.906 1.906 1.906 1.906 c 0.55 0.667 1.381 1.094 2.313 1.094 c 1.657 0 3 -1.343 3 -3 0 -1.657 -1.343 -3 -3 -3 z m -6 4.781 -1.688 1.719 -0.313 0.281 c -0.609 0.549 -1 1.334 -1 2.219 c 0 1.657 1.343 3 3 3 1.657 0 3 -1.343 3 -3 0 -0.884 -0.391 -1.67 -1 -2.219 -0.685 -0.631 -2 -2 -2 -2 z" transform="matrix(-1,0,0,-1,49,61.008919)" style="fill-opacity:0.118;stroke:none;fill-rule:nonzero"/>
   </g>
  </g>
  <g>
   <path transform="matrix(-1,0,0,-1,48,60.008919)" d="m 24 9 c -8.284 0 -15 6.716 -15 15 0 8.284 6.716 15 15 15 8.284 0 15 -6.716 15 -15 0 -8.284 -6.716 -15 -15 -15 z m 0 3 c 6.627 0 12 5.373 12 12 0 6.627 -5.373 12 -12 12 -6.627 0 -12 -5.373 -12 -12 0 -6.627 5.373 -12 12 -12 z" style="fill:#5783a3;fill-opacity:1;stroke:none;fill-rule:nonzero"/>
   <path transform="matrix(-0.75,0,0,-0.66666688,49.5,55.68154)" d="m 38 38.509 c 0 2.485 -1.791 4.5 -4 4.5 -2.209 0 -4 -2.01 -4 -4.5 0 -2.485 1.791 -4.5 4 -4.5 2.209 0 4 2.01 4 4.5 z" style="fill:#d8541f;fill-opacity:1;stroke:none;fill-rule:nonzero"/>
   <path d="m 26 39.776 -4 0 2 -2 z" transform="matrix(-1,0,0,-1,48,72.017838)" style="fill:#d8541f;fill-opacity:1;stroke:none;fill-rule:nonzero"/>
   <path d="m 38 38.509 c 0 2.485 -1.791 4.5 -4 4.5 -2.209 0 -4 -2.01 -4 -4.5 0 -2.485 1.791 -4.5 4 -4.5 2.209 0 4 2.01 4 4.5 z" transform="matrix(0,0.75,-0.66666688,0,43.67262,10.508919)" style="fill:#d8541f;fill-opacity:1;stroke:none;fill-rule:nonzero"/>
   <path transform="matrix(0,1,-1,0,60.008918,12.008919)" d="m 26 39.776 -4 0 2 -2 z" style="fill:#d8541f;fill-opacity:1;stroke:none;fill-rule:nonzero"/>
   <path transform="matrix(0,-0.75,0.66666688,0,4.327378,61.508919)" d="m 38 38.509 c 0 2.485 -1.791 4.5 -4 4.5 -2.209 0 -4 -2.01 -4 -4.5 0 -2.485 1.791 -4.5 4 -4.5 2.209 0 4 2.01 4 4.5 z" style="fill:#d8541f;fill-opacity:1;stroke:none;fill-rule:nonzero"/>
   <path transform="matrix(0,-1,1,0,-12.00892,60.008919)" d="m 26 39.776 -4 0 2 -2 z" style="fill:#d8541f;fill-opacity:1;stroke:none;fill-rule:nonzero"/>
   <path d="m 38 38.509 c 0 2.485 -1.791 4.5 -4 4.5 -2.209 0 -4 -2.01 -4 -4.5 0 -2.485 1.791 -4.5 4 -4.5 2.209 0 4 2.01 4 4.5 z" transform="matrix(0.75,0,0,0.66666688,-1.5,16.336298)" style="fill:#d8541f;fill-opacity:1;stroke:none;fill-rule:nonzero"/>
   <path d="m 26 39.776 -4 0 2 -2 z" style="fill:#d8541f;fill-opacity:1;stroke:none;fill-rule:nonzero"/>
  </g>
 </g>
</svg>
