<svg viewBox="0 0 48 48" xmlns="http://www.w3.org/2000/svg" xmlns:xlink="http://www.w3.org/1999/xlink">
  <linearGradient id="a" gradientTransform="matrix(0 -1 1 0 -.0000015 47.999998)" gradientUnits="userSpaceOnUse" x1="1" x2="47">
    <stop offset="0" stop-color="#46baa7"/>
    <stop offset="1" stop-color="#55bfae"/>
  </linearGradient>
  <path d="m47 24c0 22.703-.297 23-23 23-22.703 0-23-.297-23-23 0-22.703.297-23 23-23 22.703 0 23 .297 23 23z" fill="url(#a)"/>
  <g transform="matrix(3.543307 0 0 3.543307 .00000003 .00195287)">
    <path d="m20.998 7.998c-.554 0-1 .444-1 .998v2.01h-2.199c-1.558 0-2.795 1.324-2.795 2.879v24.24c0 1.555 1.237 2.879 2.795 2.879h14.402c1.558 0 2.803-1.324 2.803-2.879v-24.24c0-1.555-1.245-2.879-2.803-2.879h-2.203v-2.01c0-.554-.446-.998-1-.998zm-3.199 5.01h14.402c.437 0 .803.35.803.879v24.24c0 .529-.366.885-.803.885h-14.402c-.437 0-.795-.355-.795-.885v-24.24c0-.529.358-.879.795-.879z" opacity=".1" transform="scale(.28222223)"/>
    <path d="m5.08 10.724h3.951v-4.798l-3.951 2.822z" opacity=".1"/>
    <path d="m4.762 2.819c-.439 0-.811.373-.811.813v6.844c0 .439.372.813.811.813h4.054c.439 0 .779-.373.779-.813v-6.844c0-.439-.34-.813-.779-.813zm0 .563h4.054c.123 0 .219.1.219.25v6.844c0 .15-.096.25-.219.25h-4.054c-.123 0-.249-.1-.249-.25v-6.844c0-.15.127-.25.249-.25z" fill="#f9f9f9"/>
    <rect fill="#f9f9f9" height="1.16" rx=".282" width="2.822" x="5.362" y="1.975"/>
    <path d="m4.798 10.442h3.951v-4.798l-3.951 2.822z" fill="#e3e3d6"/>
  </g>
</svg>
