<svg viewBox="0 0 48 48" xmlns="http://www.w3.org/2000/svg" xmlns:xlink="http://www.w3.org/1999/xlink">
  <linearGradient id="a" gradientTransform="matrix(0 -1 1 0 -.0000015 47.999998)" gradientUnits="userSpaceOnUse" x1="1" x2="47">
    <stop offset="0" stop-color="#ef2945"/>
    <stop offset="1" stop-color="#f13b50"/>
  </linearGradient>
  <path d="m47 24c0 22.703-.297 23-23 23-22.703 0-23-.297-23-23 0-22.703.297-23 23-23 22.703 0 23 .297 23 23z" fill="url(#a)"/>
  <g transform="translate(-12 -473)">
    <path d="m37 483a5 5 0 0 0-5 5v4.355a10 10 0 0 0-5 8.645 10 10 0 0 0  10 10 10 10 0 0 0  10-10 10 10 0 0 0-5-8.65v-4.35a5 5 0 0 0-5-5zm0 2a3 3 0 0 1 3 3v3.463a10 10 0 0 0-3-.463 10 10 0 0 0-3 .47v-3.47a3 3 0 0 1 3-3z" opacity=".1"/>
    <path d="m36 482a5 5 0 0 0-5 5v8h2v-8a3 3 0 0 1 3-3 3 3 0 0 1  3 3v8h2v-8a5 5 0 0 0-5-5z" fill="#acacac"/>
    <circle cx="36" cy="500" fill="#c8c8c8" r="10"/>
    <circle cx="36" cy="500" fill="#b4b4b4" r="9"/>
    <path d="m35 492.07c-1.423.178-2.772.735-3.906 1.613l-1.406 1.414v.002c-.878 1.131-1.437 2.478-1.617 3.898l.002 2c .178 1.423.736 2.772 1.614 3.906 0-.002 0-.004 0-.006 0 .006 1.416 1.413 1.416 1.413 1.131.878 2.478 1.436 3.898 1.617l2-.002c1.423-.177 2.772-.734 3.906-1.611-.002-.001-.004-.001-.006-.002l1.413-1.416c.878-1.131 1.436-2.478 1.617-3.898l-.002-2c-.178-1.422-.735-2.771-1.612-3.904-.001.002-.001.002-.002.004l-1.414-1.412c-1.132-.879-2.48-1.437-3.902-1.617z" fill="#2c2c2c"/>
    <path d="m36 492c-.335.003-.669.027-1 .072v1.928h2v-1.93c-.332-.044-.666-.068-1-.07m-4.9 1.686c-.266.203-.518.423-.756.658-.234.239-.454.492-.656.758l1.363 1.363 1.414-1.414zm9.799.002l-1.363 1.363 1.414 1.414 1.365-1.365c-.203-.266-.423-.518-.658-.756-.239-.234-.492-.454-.758-.656zm-12.828 5.312c-.044.332-.068.666-.07 1 .003.335.027.669.072 1h1.928v-2zm13.93 0v2h1.93c.044-.332.068-.666.07-1-.003-.335-.027-.669-.072-1zm-10.949 4.535l-1.365 1.365c.203.266.423.518.658.756.239.234.492.454.758.656l1.363-1.363zm9.898 0l-1.414 1.414 1.365 1.365c.266-.203.518-.423.756-.658.234-.239.454-.492.656-.758zm-5.949 2.465v1.93c.332.044.666.068 1 .07.335-.003.669-.027 1-.072v-1.928z" fill="#f2f2f2"/>
    <path d="m36.5 493.5l-2.314 5.094a3 3 0 0 0-.686 1.906 3 3 0 0 0  3 3 3 3 0 0 0  3-3 3 3 0 0 0-.684-1.902z" opacity=".1"/>
    <path d="m36 493l2.5 5.5h-5z" fill="#f93d47"/>
    <circle cx="36" cy="500" fill="#b4b4b4" r="3"/>
  </g>
  <path d="m24 19a8 8 0 0 0-8 8 8 8 0 0 0  2.598 5.887 8 8 0 0 1-2.098-5.387 8 8 0 0 1  8-8 8 8 0 0 1  5.402 2.113 8 8 0 0 0-5.902-2.613z" opacity=".1"/>
</svg>
