<svg viewBox="0 0 48 48" xmlns="http://www.w3.org/2000/svg" xmlns:xlink="http://www.w3.org/1999/xlink">
  <linearGradient id="a" gradientUnits="userSpaceOnUse" x2="0" y1="1" y2="47">
    <stop offset="0" stop-color="#e0ad60"/>
    <stop offset="1" stop-color="#dda44f"/>
  </linearGradient>
  <path d="m24 1c22.703 0 23 .297 23 23 0 22.703-.297 23-23 23-22.703 0-23-.297-23-23 0-22.703.297-23 23-23z" fill="url(#a)"/>
  <path d="m14 11v25.5c1 .5 0 .5 20.5.5.831 0 1.5-.669 1.5-1.5v-22c0-.68-.452-1.245-1.07-1.43-.185-.618-.749-1.07-1.43-1.07" opacity=".1"/>
  <path d="m14 11l-1 24.5c1 .5 0 .5 20.5.5.831 0 1.5-.669 1.5-1.5v-22c0-.831-.669-1.5-1.5-1.5z" fill="#dcdad2"/>
  <path d="m13 10v25.5c1-.5 0-.5 19.5-.5.831 0 1.5-.669 1.5-1.5v-22c0-.831-.669-1.5-1.5-1.5z" fill="#f7f4d5"/>
  <g fill="#525252" transform="matrix(1.0064671 0 0 .99357445 0 .99999993)">
    <path d="m15.301 11.07v4.03h.732v-3l1.981 3h .892v-4.03h-.732v2.984l-1.993-2.984h-.881z"/>
    <path d="m19.794 15.1h2.541v-.657h-1.85v-1.141h1.647v-.657h-1.647v-.913h1.85v-.657h-2.541z"/>
    <path d="m22.653 11.07l1.043 4.03h.752l.904-2.919.765 2.919h.752l1.249-4.03h-.753l-.844 2.818-.751-2.818h-.784l-.929 2.818-.65-2.818z"/>
    <path d="m29.93 11.638c.418 0 .694.094 1.03.224l.241-.644-.082-.03c-.371-.136-.694-.218-1.212-.218-.818 0-1.535.372-1.535 1.163 0 .821.653 1.045 1.294 1.24.335.1.947.283.947.614 0 .401-.494.543-.93.543-.294 0-.665-.083-1.118-.254l-.112-.047-.247.632.094.047c.459.177.759.289 1.324.289.924 0 1.712-.348 1.712-1.21 0-.815-.665-1.039-1.306-1.24-.312-.094-.935-.295-.935-.584 0-.39.412-.525.835-.525z"/>
  </g>
  <path d="m15 18v10h10v-10zm7.318 1c .094-.007.193-.004.297.01 1.548.201-.101 2.369-1.045 2.369-.886 0-.658-2.273.748-2.379zm-2.373.301c.947-.121.38 1.818-.123 1.787-.504-.03-.821-1.664.123-1.787zm-1.578.645c.622-.065.564 1.459.164 1.539-.425.086-1.068-1.186-.309-1.496.047-.018.103-.038.145-.043zm-1.189.998c.463 0 .66 1.196.348 1.332-.357.155-1.164-.831-.557-1.248.076-.052.142-.085.209-.084zm3.469.771c.782.013 1.417.268 1.502.766.273 1.602-3.857 2.179-2.303 3.352.489.368.999.092.924-.479-.064-.476 1.674-.762 1.537-.043-.18.945-1.135 1.686-1.969 1.686-1.694 0-3.31-1.941-2.994-3.348.292-1.299 2-1.955 3.303-1.934z" fill="#6a6a6a"/>
  <path d="m27 18h5v1h-5z" fill="#6a6a6a"/>
  <path d="m27 20h5v1h-5z" fill="#6a6a6a"/>
  <path d="m27 22h5v1h-5z" fill="#6a6a6a"/>
  <path d="m27 24h5v1h-5z" fill="#6a6a6a"/>
  <path d="m27 26h3v1h-3z" fill="#6a6a6a"/>
  <path d="m15 30h17v1h-17z" fill="#6a6a6a"/>
  <path d="m15 32h8v1h-8z" fill="#6a6a6a"/>
  <path d="m24 32h7v1h-7z" fill="#6a6a6a"/>
</svg>
