<svg viewBox="0 0 48 48" xmlns="http://www.w3.org/2000/svg" xmlns:xlink="http://www.w3.org/1999/xlink">
  <linearGradient id="a" gradientTransform="matrix(0 -1 1 0 -.0000015 47.999998)" gradientUnits="userSpaceOnUse" x1="1" x2="47">
    <stop offset="0" stop-color="#addd3f"/>
    <stop offset="1" stop-color="#b4e050"/>
  </linearGradient>
  <path d="m47 24c0 22.703-.297 23-23 23-22.703 0-23-.297-23-23 0-22.703.297-23 23-23 22.703 0 23 .297 23 23z" fill="url(#a)"/>
  <rect height="22" opacity=".1" rx="2" width="26" x="12" y="14"/>
  <rect fill="#edead3" height="22" rx="2" width="26" x="11" y="13"/>
  <g transform="matrix(3.543307 0 0 3.543307 .00157507 .00000088)">
    <path d="m3.669 4.233h6.209v5.08h-6.209z" fill="#65bbdd"/>
    <path d="m8.466 6.209l-3.387 3.104h4.798v-1.693z" fill="#43a63b"/>
    <path d="m6.491 5.644a.988.988 0 0 1-1.976 0 .988.988 0 1 1  1.976 0z" fill="#f1cf0f"/>
    <path d="m5.926 5.927l-2.258 2.54v.847h4.798z" fill="#269542"/>
  </g>
</svg>
