<svg xmlns="http://www.w3.org/2000/svg" viewBox="0 0 48 48">
 <defs>
  <linearGradient id="linearGradient3764" x1="1" x2="47" gradientUnits="userSpaceOnUse" gradientTransform="matrix(0,-1,1,0,-1.5e-6,47.999998)">
   <stop style="stop-color:#7b5684;stop-opacity:1"/>
   <stop offset="1" style="stop-color:#865e90;stop-opacity:1"/>
  </linearGradient>
 </defs>
 <g>
  
  
  
 </g>
 <g>
  <path d="m 47,24 C 47,46.703 46.703,47 24,47 1.297,47 1,46.703 1,24 1,1.297 1.297,1 24,1 46.703,1 47,1.297 47,24 z" style="fill:url(#linearGradient3764);fill-opacity:1"/>
 </g>
 <path d="m 25 10 -6 3 0 8 c -1.333 1.333 -2.667 2.667 -4 4 l 0 10 10 5 10 -5 c 0 -6.667 0 -13.333 0 -20 z" style="fill:#000;fill-opacity:0.102;stroke:none;fill-rule:nonzero"/>
 <g>
  
 </g>
 <path d="m 24 30 -10 -6 2 -2 10 5" style="fill:#c8beb7;fill-opacity:1;stroke:none;fill-rule:nonzero"/>
 <path d="m 24 17 -6 3 0 -8 6 -3" style="fill:#e8ba04;fill-opacity:1;stroke:none;fill-rule:nonzero"/>
 <path d="m 26 27 -10 -5 8 -8 10 5" style="fill:#4d4d4d;fill-opacity:1;stroke:none;fill-rule:nonzero"/>
 <path d="m 27 18 -9 -6 6 -3 10 5" style="fill:#d9ae03;fill-opacity:1;stroke:none;fill-rule:nonzero"/>
 <path d="m 24 39 -10 -5 0 -10 12 6" style="fill:#fbce19;fill-opacity:1;stroke:none;fill-rule:nonzero"/>
 <path d="m 21 34 -4 -2 0 -3 4 2" style="fill:#666;fill-opacity:1;stroke:none;fill-rule:nonzero"/>
 <path d="m 30 21 -12 -6 0 -3 10 5" style="fill:#fbce19;fill-opacity:1;stroke:none;fill-rule:nonzero"/>
 <path d="m 34 34 -10 5 0 -10 4 -4 0 -8 6 -3" style="fill:#e8ba04;fill-opacity:1;stroke:none;fill-rule:nonzero"/>
</svg>
