<svg viewBox="0 0 48 48" xmlns="http://www.w3.org/2000/svg" xmlns:xlink="http://www.w3.org/1999/xlink">
  <linearGradient id="a" gradientTransform="matrix(0 -1 1 0 -.0000015 47.999998)" gradientUnits="userSpaceOnUse" x1="1" x2="47">
    <stop offset="0" stop-color="#5796b3"/>
    <stop offset="1" stop-color="#659eb9"/>
  </linearGradient>
  <path d="m47 24c0 22.703-.297 23-23 23-22.703 0-23-.297-23-23 0-22.703.297-23 23-23 22.703 0 23 .297 23 23z" fill="url(#a)"/>
  <g fill-opacity=".098" fill-rule="evenodd" transform="translate(.99918913 1)">
    <path d="m22.537 10.01a14 14 0 0 0-8.904 3.588 14 14 0 0 0-3.422 16.1 14 14 0 0 0  14.252 8.23 14 14 0 0 0  12.23-11.01l-13.693-2.918 7-12.12a14 14 0 0 0-7.463-1.867zm-.426 2.539a3 3 0 0 1 3 3 3 3 0 0 1-3 3 3 3 0 0 1-3-3 3 3 0 0 1  3-3zm-7.426 6.686a3 3 0 0 1 3 3 3 3 0 0 1-3 3 3 3 0 0 1-3-3 3 3 0 0 1  3-3zm14.003 8.081a3 3 0 0 1 3 3 3 3 0 0 1-3 3 3 3 0 0 1-3-3 3 3 0 0 1  3-3zm-9.938 1.045a3 3 0 0 1 3 3 3 3 0 0 1-3 3 3 3 0 0 1-3-3 3 3 0 0 1  3-3z"/>
    <path d="m32 10.964l-7 12.13 13.693 2.91a14 14 0 0 0-6.693-15.04m.766 5.668a3 3 0 0 1 3 3 3 3 0 0 1-3 3 3 3 0 0 1-3-3 3 3 0 0 1  3-3z"/>
  </g>
  <path d="m22.537 10.01a14 14 0 0 0-8.904 3.588 14 14 0 0 0-3.422 16.1 14 14 0 0 0  14.252 8.23 14 14 0 0 0  12.23-11.01l-13.693-2.918 7-12.12a14 14 0 0 0-7.463-1.867zm-.426 2.539a3 3 0 0 1 3 3 3 3 0 0 1-3 3 3 3 0 0 1-3-3 3 3 0 0 1  3-3zm-7.426 6.686a3 3 0 0 1 3 3 3 3 0 0 1-3 3 3 3 0 0 1-3-3 3 3 0 0 1  3-3zm14.003 8.081a3 3 0 0 1 3 3 3 3 0 0 1-3 3 3 3 0 0 1-3-3 3 3 0 0 1  3-3zm-9.938 1.045a3 3 0 0 1 3 3 3 3 0 0 1-3 3 3 3 0 0 1-3-3 3 3 0 0 1  3-3z" fill="#e8e8e8" fill-rule="evenodd"/>
  <path d="m32 10.964l-7 12.13 13.693 2.91a14 14 0 0 0-6.693-15.04m.766 5.668a3 3 0 0 1 3 3 3 3 0 0 1-3 3 3 3 0 0 1-3-3 3 3 0 0 1  3-3z" fill="#e8e8e8" fill-rule="evenodd"/>
</svg>
