<svg xmlns="http://www.w3.org/2000/svg" viewBox="0 0 48 48">
 <defs>
  <linearGradient id="linearGradient3764" x1="1" x2="47" gradientUnits="userSpaceOnUse" gradientTransform="matrix(0,-1,1,0,-1.5e-6,47.999998)">
   <stop style="stop-color:#ffda59;stop-opacity:1"/>
   <stop offset="1" style="stop-color:#ffe06d;stop-opacity:1"/>
  </linearGradient>
 </defs>
 <g>
  
  
  
 </g>
 <g>
  <path d="m 47,24 C 47,46.703 46.703,47 24,47 1.297,47 1,46.703 1,24 1,1.297 1.297,1 24,1 46.703,1 47,1.297 47,24 z" style="fill:url(#linearGradient3764);fill-opacity:1"/>
 </g>
 <g>
  <g>
   <g transform="translate(1,1)">
    <g style="opacity:0.1">
     <!-- color: #ffe06d -->
     <g>
      <path d="m 21 12 l 0 2.25 l -3 0 l 0 21.75 l 12 0 l 0 -21.75 l -3 0 l 0 -2.25 m -5.246 0.754 l 4.5 0 l 0 2.25 l 3 0 l 0 20.25 l -10.5 0 l 0 -20.25 l 3 0 l 0 -2.25 m -0.004 0" style="fill:#000;fill-opacity:1;stroke:none;fill-rule:nonzero"/>
      <path d="m 18.344 26 l 11.281 0 l -0.102 10 l -11.18 -0.156 m 0 -9.844" style="fill:#000;fill-opacity:1;stroke:none;fill-rule:nonzero"/>
     </g>
    </g>
   </g>
  </g>
 </g>
 <g>
  <g>
   <!-- color: #ffe06d -->
   <g>
    <path d="m 21 12 l 0 2.25 l -3 0 l 0 21.75 l 12 0 l 0 -21.75 l -3 0 l 0 -2.25 m -5.246 0.754 l 4.5 0 l 0 2.25 l 3 0 l 0 20.25 l -10.5 0 l 0 -20.25 l 3 0 l 0 -2.25 m -0.004 0" style="fill:#333;fill-opacity:1;stroke:none;fill-rule:nonzero"/>
    <path d="m 18.344 26 l 11.281 0 l -0.102 10 l -11.18 -0.156 m 0 -9.844" style="fill:#333;fill-opacity:1;stroke:none;fill-rule:nonzero"/>
   </g>
  </g>
 </g>
 <g>
  
 </g>
</svg>
