<svg xmlns="http://www.w3.org/2000/svg" viewBox="0 0 48 48">
 <defs>
  <linearGradient id="linearGradient4302" gradientUnits="userSpaceOnUse" gradientTransform="matrix(0,-1,1,0,-1.5e-6,47.999998)" x1="1" x2="47">
   <stop style="stop-color:#1a3f50;stop-opacity:1"/>
   <stop offset="1" style="stop-color:#1f4a5e;stop-opacity:1"/>
  </linearGradient>
 </defs>
 <g>
  
  
  
 </g>
 <g>
  <path d="M 24,1 C 46.703,1 47,1.297 47,24 47,46.703 46.703,47 24,47 1.297,47 1,46.703 1,24 1,1.297 1.297,1 24,1 Z" style="fill:url(#linearGradient4302);fill-opacity:1"/>
 </g>
 <g>
  <g>
   <g transform="translate(1,1)">
    <g style="opacity:0.1">
     <!-- color: #474747 -->
     <g>
      <path d="m 16 13 c -1.656 0 -3 1.344 -3 3 c 0 1.656 1.344 3 3 3 c 1.656 0 3 -1.344 3 -3 c 0 -1.656 -1.344 -3 -3 -3 z m 3 3 c 0 1.656 1.344 3 3 3 c 1.656 0 3 -1.344 3 -3 c 0 -1.656 -1.344 -3 -3 -3 c -1.656 0 -3 1.344 -3 3 z m 3 3 c -1.656 0 -3 1.344 -3 3 c 0 1.656 1.344 3 3 3 c 1.656 0 3 -1.344 3 -3 c 0 -1.656 -1.344 -3 -3 -3 z m 3 3 c 0 1.656 1.344 3 3 3 c 1.656 0 3 -1.344 3 -3 c 0 -1.656 -1.344 -3 -3 -3 c -1.656 0 -3 1.344 -3 3 z m -3 3 c -1.656 0 -3 1.344 -3 3 c 0 1.656 1.344 3 3 3 c 1.656 0 3 -1.344 3 -3 c 0 -1.656 -1.344 -3 -3 -3 z m 12 -12 c -1.656 0 -3 1.344 -3 3 c 0 1.656 1.344 3 3 3 c 1.656 0 3 -1.344 3 -3 c 0 -1.656 -1.344 -3 -3 -3 z m 0 12 c -1.656 0 -3 1.344 -3 3 c 0 1.656 1.344 3 3 3 c 1.656 0 3 -1.344 3 -3 c 0 -1.656 -1.344 -3 -3 -3 z m 0 6 c -1.656 0 -3 1.344 -3 3 c 0 1.656 1.344 3 3 3 c 1.656 0 3 -1.344 3 -3 c 0 -1.656 -1.344 -3 -3 -3 z m -3 3 c 0 -1.656 -1.344 -3 -3 -3 c -1.656 0 -3 1.344 -3 3 c 0 1.656 1.344 3 3 3 c 1.656 0 3 -1.344 3 -3 z m -15 -3 c -1.656 0 -3 1.344 -3 3 c 0 1.656 1.344 3 3 3 c 1.656 0 3 -1.344 3 -3 c 0 -1.656 -1.344 -3 -3 -3 z" transform="translate(-1,-1)" style="fill:#000;fill-opacity:1;stroke:none;fill-rule:nonzero"/>
     </g>
    </g>
   </g>
  </g>
 </g>
 <path d="m 15 30 c -1.656 0 -3 1.344 -3 3 c 0 1.656 1.344 3 3 3 c 1.656 0 3 -1.344 3 -3 c 0 -1.656 -1.344 -3 -3 -3 z" style="fill:#729fcf;fill-opacity:1;stroke:none;fill-rule:nonzero"/>
 <path d="m 27 30 c -1.656 0 -3 1.344 -3 3 c 0 1.656 1.344 3 3 3 c 1.656 0 3 -1.344 3 -3 c 0 -1.656 -1.344 -3 -3 -3 z" style="fill:#729fcf;fill-opacity:1;stroke:none;fill-rule:nonzero"/>
 <path d="m 33 30 c -1.656 0 -3 1.344 -3 3 c 0 1.656 1.344 3 3 3 c 1.656 0 3 -1.344 3 -3 c 0 -1.656 -1.344 -3 -3 -3 z" style="fill:#8ae234;fill-opacity:1;stroke:none;fill-rule:nonzero"/>
 <path d="m 21 24 c -1.656 0 -3 1.344 -3 3 c 0 1.656 1.344 3 3 3 c 1.656 0 3 -1.344 3 -3 c 0 -1.656 -1.344 -3 -3 -3 z" style="fill:#729fcf;fill-opacity:1;stroke:none;fill-rule:nonzero"/>
 <path d="m 33 24 c -1.656 0 -3 1.344 -3 3 c 0 1.656 1.344 3 3 3 c 1.656 0 3 -1.344 3 -3 c 0 -1.656 -1.344 -3 -3 -3 z" style="fill:#ec4520;fill-opacity:1;stroke:none;fill-rule:nonzero"/>
 <path d="m 21 18 c -1.656 0 -3 1.344 -3 3 c 0 1.656 1.344 3 3 3 c 1.656 0 3 -1.344 3 -3 c 0 -1.656 -1.344 -3 -3 -3 z" style="fill:#8ae234;fill-opacity:1;stroke:none;fill-rule:nonzero"/>
 <path d="m 27 18 c -1.656 0 -3 1.344 -3 3 c 0 1.656 1.344 3 3 3 c 1.656 0 3 -1.344 3 -3 c 0 -1.656 -1.344 -3 -3 -3 z" style="fill:#729fcf;fill-opacity:1;stroke:none;fill-rule:nonzero"/>
 <path d="m 15 12 c -1.656 0 -3 1.344 -3 3 c 0 1.656 1.344 3 3 3 c 1.656 0 3 -1.344 3 -3 c 0 -1.656 -1.344 -3 -3 -3 z" style="fill:#8ae234;fill-opacity:1;stroke:none;fill-rule:nonzero"/>
 <path d="m 21 12 c -1.656 0 -3 1.344 -3 3 c 0 1.656 1.344 3 3 3 c 1.656 0 3 -1.344 3 -3 c 0 -1.656 -1.344 -3 -3 -3 z" style="fill:#ec4520;fill-opacity:1;stroke:none;fill-rule:nonzero"/>
 <path d="m 33 12 c -1.656 0 -3 1.344 -3 3 c 0 1.656 1.344 3 3 3 c 1.656 0 3 -1.344 3 -3 c 0 -1.656 -1.344 -3 -3 -3 z" style="fill:#729fcf;fill-opacity:1;stroke:none;fill-rule:nonzero"/>
 <g>
  
 </g>
</svg>
