<svg xmlns="http://www.w3.org/2000/svg" viewBox="0 0 48 48">
 <defs>
  <linearGradient id="linearGradient3764" x1="1" x2="47" gradientUnits="userSpaceOnUse" gradientTransform="matrix(0,-1,1,0,-1.5e-6,47.999998)">
   <stop style="stop-color:#f34a41;stop-opacity:1"/>
   <stop offset="1" style="stop-color:#f45b55;stop-opacity:1"/>
  </linearGradient>
 </defs>
 <g>
  
  
  
 </g>
 <g>
  <path d="m 47,24 C 47,46.703 46.703,47 24,47 1.297,47 1,46.703 1,24 1,1.297 1.297,1 24,1 46.703,1 47,1.297 47,24 z" style="fill:url(#linearGradient3764);fill-opacity:1"/>
 </g>
 <g>
  
 </g>
 <g style="fill:#f9f9f9;fill-opacity:1">
  <path d="m 24 12 0 2.051 a 11 11 0 0 0 -5.232 1.887 l -1.545 -1.545 -2.123 2.123 1.453 1.453 a 11 11 0 0 0 -2.498 6.03 l -2.055 0 l 0 3 2.191 0 a 11 11 0 0 0 2.357 5.04 l -1.449 1.447 2.123 2.123 1.553 -1.553 a 11 11 0 0 0 5.225 1.891 l 0 2.055 l 3 0 0 -2.191 a 11 11 0 0 0 5.04 -2.357 l 1.447 1.449 2.123 -2.123 -1.553 -1.553 a 11 11 0 0 0 1.756 -4.225 l 2.189 0 0 -3 -2.051 0 a 11 11 0 0 0 -1.887 -5.232 l 1.545 -1.545 -2.123 -2.123 -1.453 1.453 a 11 11 0 0 0 -5.03 -2.363 l 0 -2.189 -3 0 m 1 5 a 8 8 0 0 1 8 8 8 8 0 0 1 -8 8 8 8 0 0 1 -8 -8 8 8 0 0 1 8 -8 z m 0 5 a 3 3 0 0 0 -3 3 3 3 0 0 0 3 3 3 3 0 0 0 3 -3 3 3 0 0 0 -3 -3 z" style="fill:#000;fill-opacity:0.098;stroke:none;fill-rule:evenodd"/>
  <rect y="23" x="11" height="3" width="4" style="stroke:none;fill-rule:evenodd"/>
  <rect y="11" x="23" height="4" width="3" style="stroke:none"/>
  <rect y="23" x="33" height="3" width="4" style="stroke:none"/>
  <rect y="33" x="23" height="4" width="3" style="stroke:none"/>
  <path d="M 24 13 A 11 11 0 0 0 13 24 11 11 0 0 0 24 35 11 11 0 0 0 35 24 11 11 0 0 0 24 13 m 0 3 a 8 8 0 0 1 8 8 8 8 0 0 1 -8 8 8 8 0 0 1 -8 -8 8 8 0 0 1 8 -8 z" style="stroke:none"/>
  <rect transform="matrix(0.70710678,-0.70710678,0.70710678,0.70710678,0,0)" width="4" height="3" x="-13" y="32.941" style="stroke:none;fill-rule:evenodd"/>
  <rect transform="matrix(0.70710678,-0.70710678,0.70710678,0.70710678,0,0)" width="3" height="4" x="-1" y="20.941" style="stroke:none"/>
  <rect transform="matrix(0.70710678,-0.70710678,0.70710678,0.70710678,0,0)" width="4" height="3" x="9" y="32.941" style="stroke:none"/>
  <rect transform="matrix(0.70710678,-0.70710678,0.70710678,0.70710678,0,0)" width="3" height="4" x="-1" y="42.941" style="stroke:none"/>
  <circle r="3" cy="24" cx="24" style="stroke:none"/>
 </g>
</svg>
