<svg viewBox="0 0 48 48" xmlns="http://www.w3.org/2000/svg" xmlns:xlink="http://www.w3.org/1999/xlink">
  <linearGradient id="a" gradientTransform="matrix(0 -1 1 0 -.0000015 47.999998)" gradientUnits="userSpaceOnUse" x1="1" x2="47">
    <stop offset="0" stop-color="#3d3d3d"/>
    <stop offset="1" stop-color="#474747"/>
  </linearGradient>
  <path d="m47 24c0 22.703-.297 23-23 23-22.703 0-23-.297-23-23 0-22.703.297-23 23-23 22.703 0 23 .297 23 23z" fill="url(#a)"/>
  <path d="m14.766 14.363c-.547.145-.879.719-.73 1.262l5.531 20.617c.145.543.715.875 1.262.73l12.406-3.324c.547-.145.879-.719.73-1.262l-5.527-20.617c-.148-.543-.719-.875-1.266-.73m-4.574 7.734c0 0 3.992 1.418 5.215 3.01.867 1.125 1.813 2.883 1.105 4.109-.199.348-.551.566-.949.699-.664.227-1.48.215-2.137.125l.328 1.223 1.027-.277.277 1.031-4.117 1.105-.273-1.031 1.027-.273-.328-1.223c-.848.645-2.164 1.359-3.09.824-1.227-.707-1.289-2.703-1.102-4.109.262-1.988 3.01-5.211 3.01-5.211m.004.004" opacity=".1" transform="translate(1 1)"/>
  <path d="m14.766 14.363c-.547.145-.879.719-.73 1.262l5.531 20.617c.145.543.715.875 1.262.73l12.406-3.324c.547-.145.879-.719.73-1.262l-5.527-20.617c-.148-.543-.719-.875-1.266-.73m-4.574 7.734c0 0 3.992 1.418 5.215 3.01.867 1.125 1.813 2.883 1.105 4.109-.199.348-.551.566-.949.699-.664.227-1.48.215-2.137.125l.328 1.223 1.027-.277.277 1.031-4.117 1.105-.273-1.031 1.027-.273-.328-1.223c-.848.645-2.164 1.359-3.09.824-1.227-.707-1.289-2.703-1.102-4.109.262-1.988 3.01-5.211 3.01-5.211m.004.004" fill="#f9f9f9"/>
</svg>
