<svg xmlns="http://www.w3.org/2000/svg" xmlns:xlink="http://www.w3.org/1999/xlink" viewBox="0 0 48 48">
 <defs>
  <linearGradient id="linearGradient3764" x1="1" x2="47" gradientUnits="userSpaceOnUse" gradientTransform="matrix(0,-1,1,0,-1.5e-6,47.999998)">
   <stop style="stop-color:#5dbacb;stop-opacity:1"/>
   <stop offset="1" style="stop-color:#6cc0d0;stop-opacity:1"/>
  </linearGradient>
  <linearGradient xlink:href="#linearGradient4309" id="linearGradient4251" x1="21" x2="24" gradientUnits="userSpaceOnUse"/>
  <linearGradient id="linearGradient4309">
   <stop style="stop-color:#eff5eb;stop-opacity:1"/>
   <stop offset="1" style="stop-color:#d1e2c4;stop-opacity:1"/>
  </linearGradient>
  <linearGradient xlink:href="#linearGradient4309" id="linearGradient4265" gradientUnits="userSpaceOnUse" x1="21" x2="24" gradientTransform="matrix(-1,0,0,1,48,0)"/>
 </defs>
 <g>
  
  
  
 </g>
 <g>
  <path d="m 47,24 C 47,46.703 46.703,47 24,47 1.297,47 1,46.703 1,24 1,1.297 1.297,1 24,1 46.703,1 47,1.297 47,24 z" style="fill:url(#linearGradient3764);fill-opacity:1"/>
 </g>
 <g>
  
 </g>
 <g>
  <path d="m 12 15 0 20 11 0 c 1 0.6 3 0.6 4 0 l 11 0 0 -20 -11 0 c -1 0.6 -3 0.6 -4 0 l -11 0 z" style="fill:#000;fill-opacity:0.098;stroke:none;fill-rule:evenodd"/>
  <path d="m 22 14 c 1 0.6 3 0.6 4 0 1.045 6.439 2.636 12.76 0 20 -1 0.6 -3 0.6 -4 0 -1.495 -6.978 -0.353 -13.407 0 -20 z" style="fill:#a91717;fill-opacity:1;stroke:none;fill-rule:evenodd"/>
  <rect y="14" x="11" height="20" width="11" style="fill:#c52b2b;fill-opacity:1;stroke:none"/>
  <rect width="11" height="20" x="26" y="14" style="fill:#c52b2b;fill-opacity:1;stroke:none"/>
  <g>
   <g>
    <path d="m 12,15 12,0 0,18.5 C 24,33 16,33 12,33 Z" style="fill:#b2b1a2;fill-opacity:1;stroke:none"/>
    <path d="m 36,15 -12,0 0,18.5 C 24,33 32,33 36,33 Z" style="fill:#b2b1a2;fill-opacity:1;stroke:none"/>
    <path d="m 24 15 c 0.991 -1 10.647 -0.5 11.5 -0.5 l 0 18 c -0.991 0 -10.5 -0.5 -11.5 0.75" style="fill:#c8cdc3;fill-opacity:1;stroke:none"/>
    <path d="m 24 15 c -0.991 -1 -10.647 -0.5 -11.5 -0.5 l 0 18 c 0.991 0 10.5 -0.5 11.5 0.75" style="fill:#c8cdc3;fill-opacity:1;stroke:none"/>
    <path d="m 24 15 c -1 -2 -9 -0.99 -11 -1 l 0 18 c 2 0 10 -1 11 1 z" style="fill:url(#linearGradient4251);fill-opacity:1;stroke:none"/>
    <path d="m 24 15 c 1 -2 9 -0.99 11 -1 l 0 18 c -2 0 -10 -1 -11 1 z" style="fill:url(#linearGradient4265);fill-opacity:1;stroke:none"/>
   </g>
   <g style="fill:#1e1e1e;fill-opacity:0.176">
    <g>
     <path d="m 18.875 28.802 c -1.885 0 -3.645 0.133 -4.875 0.195 l 0 1 c 2.276 -0.12 6.847 -0.528 9 0.303 l 0 -1 c -0.989 -0.381 -2.522 -0.499 -4.125 -0.498 z" style="stroke:none"/>
     <path d="m 18.875 26.802 c -1.885 0 -3.645 0.133 -4.875 0.195 l 0 1 c 2.276 -0.12 6.847 -0.528 9 0.303 l 0 -1 c -0.989 -0.381 -2.522 -0.499 -4.125 -0.498 z" style="stroke:none"/>
     <path d="m 18.875 24.802 c -1.885 0 -3.645 0.133 -4.875 0.195 l 0 1 c 2.276 -0.12 6.847 -0.528 9 0.303 l 0 -1 c -0.989 -0.381 -2.522 -0.499 -4.125 -0.498 z" style="stroke:none"/>
     <path d="m 18.875 16.803 c -1.885 0 -3.645 0.133 -4.875 0.195 l 0 7 c 2.276 -0.12 6.847 -0.528 9 0.303 l 0 -7 c -0.989 -0.381 -2.522 -0.499 -4.125 -0.498 z m 1.605 0.797 c 1.155 0.281 -0.077 1.604 -0.797 1.604 c -0.721 0 -0.483 -1.604 0.797 -1.604 z m -2.035 0.197 c 0.722 -0.082 0.29 1.23 -0.094 1.209 c -0.384 -0.02 -0.626 -1.126 0.094 -1.209 z m -1.203 0.436 c 0.474 -0.044 0.43 0.987 0.125 1.041 c -0.324 0.058 -0.815 -0.802 -0.236 -1.012 c 0.036 -0.012 0.079 -0.026 0.111 -0.029 z m -0.908 0.676 c 0.353 0 0.504 0.808 0.266 0.9 c -0.272 0.105 -0.887 -0.562 -0.424 -0.844 c 0.058 -0.035 0.107 -0.058 0.158 -0.057 z m 2.646 0.518 c 0.596 0.009 1.078 0.185 1.145 0.521 c 0.206 1.084 -2.941 1.473 -1.756 2.266 c 0.373 0.249 0.762 0.062 0.705 -0.324 c -0.049 -0.322 1.277 -0.515 1.172 -0.029 c -0.137 0.639 -0.866 1.141 -1.502 1.141 c -1.292 0 -2.525 -1.313 -2.283 -2.264 c 0.221 -0.879 1.523 -1.323 2.516 -1.309 l 0.004 -0.002 z" style="stroke:none"/>
    </g>
    <g transform="matrix(-1,0,0,1,48,0)">
     <path d="m 18.875 28.802 c -1.885 0 -3.645 0.133 -4.875 0.195 l 0 1 c 2.276 -0.12 6.847 -0.528 9 0.303 l 0 -1 c -0.989 -0.381 -2.522 -0.499 -4.125 -0.498 z" style="stroke:none"/>
     <path d="m 18.875 26.802 c -1.885 0 -3.645 0.133 -4.875 0.195 l 0 1 c 2.276 -0.12 6.847 -0.528 9 0.303 l 0 -1 c -0.989 -0.381 -2.522 -0.499 -4.125 -0.498 z" style="stroke:none"/>
     <path d="m 18.875 24.802 c -1.885 0 -3.645 0.133 -4.875 0.195 l 0 1 c 2.276 -0.12 6.847 -0.528 9 0.303 l 0 -1 c -0.989 -0.381 -2.522 -0.499 -4.125 -0.498 z" style="stroke:none"/>
     <path d="m 18.875 22.802 c -1.885 0 -3.645 0.133 -4.875 0.195 l 0 1 c 2.276 -0.12 6.847 -0.528 9 0.303 l 0 -1 c -0.989 -0.381 -2.522 -0.499 -4.125 -0.498 z" style="stroke:none"/>
     <path d="m 18.875 20.802 c -1.885 0 -3.645 0.133 -4.875 0.195 l 0 1 c 2.276 -0.12 6.847 -0.528 9 0.303 l 0 -1 c -0.989 -0.381 -2.522 -0.499 -4.125 -0.498 z" style="stroke:none"/>
     <path d="m 18.875 18.802 c -1.885 0 -3.645 0.133 -4.875 0.195 l 0 1 c 2.276 -0.12 6.847 -0.528 9 0.303 l 0 -1 c -0.989 -0.381 -2.522 -0.499 -4.125 -0.498 z" style="stroke:none"/>
     <path d="m 18.875 16.802 c -1.885 0 -3.645 0.133 -4.875 0.195 l 0 1 c 2.276 -0.12 6.847 -0.528 9 0.303 l 0 -1 c -0.989 -0.381 -2.522 -0.499 -4.125 -0.498 z" style="stroke:none"/>
    </g>
   </g>
  </g>
 </g>
</svg>
