<svg viewBox="0 0 48 48" xmlns="http://www.w3.org/2000/svg" xmlns:xlink="http://www.w3.org/1999/xlink">
  <linearGradient id="a" gradientTransform="matrix(0 -1 1 0 -.0000015 47.999998)" gradientUnits="userSpaceOnUse" x1="1" x2="47">
    <stop offset="0" stop-color="#3d3d3d"/>
    <stop offset="1" stop-color="#474747"/>
  </linearGradient>
  <path d="m47 24c0 22.703-.297 23-23 23-22.703 0-23-.297-23-23 0-22.703.297-23 23-23 22.703 0 23 .297 23 23z" fill="url(#a)"/>
  <path d="m24 9c-.523 0-.945.414-.945.938v.965c-4.168.293-7.777 2.516-9.996 5.742l-.887-.496c-.453-.258-1.012-.098-1.273.352-.262.449-.129 1.031.324 1.289l.859.496c-.848 1.73-1.332 3.664-1.332 5.715 0 2.051.484 3.984 1.332 5.715l-.859.496c-.453.258-.586.84-.324 1.289.262.449.82.609 1.273.352l.887-.5c2.219 3.23 5.828 5.453 9.996 5.746v.965c0 .523.422.941.945.941.523 0 .945-.414.945-.941v-.965c4.164-.293 7.777-2.516 9.996-5.746l.887.5c.453.258 1.012.098 1.27-.352.266-.449.133-1.031-.324-1.289l-.855-.496c.848-1.73 1.332-3.664 1.332-5.715 0-2.051-.484-3.984-1.332-5.715l.855-.496c.457-.258.59-.84.324-1.289-.262-.449-.816-.609-1.27-.352l-.887.496c-2.219-3.227-5.832-5.449-9.996-5.742v-.965c0-.523-.422-.938-.945-.938m-4.852 5.914c.367-.043.75.133.945.469l.945 1.641c.262.449.098 1-.355 1.262-.453.258-1.039.125-1.301-.324l-.945-1.641c-.266-.449-.102-1.031.352-1.289.113-.063.234-.102.355-.117m9.465.031c.094-.016.176-.012.266 0 .125.012.242.051.355.117.453.258.617.836.355 1.285l-.945 1.613c-.266.449-.848.609-1.305.352-.453-.258-.617-.84-.352-1.289l.945-1.609c.145-.254.406-.426.676-.469m-14.02 8.08h1.895c.523 0 .945.418.945.941 0 .52-.422.938-.945.938h-1.895c-.523 0-.945-.418-.945-.938 0-.523.422-.941.945-.941m16.977 0h1.891c.523 0 .945.418.945.941 0 .52-.422.938-.945.938h-1.891c-.523 0-.945-.418-.945-.938 0-.523.422-.941.945-.941m-7.57.031c.523 0 .945.422.945.938 0 .52-.422.938-.945.938-.52 0-.941-.418-.941-.938 0-.516.422-.938.941-.938m-3.902 6.563c.09-.02.176-.012.27 0 .121.012.238.078.352.145.457.258.617.809.355 1.258l-.945 1.641c-.262.449-.848.582-1.301.324-.457-.262-.59-.809-.328-1.258l.945-1.641c.148-.254.387-.426.652-.469m7.566.027c.367-.047.75.105.945.441l.945 1.641c.266.449.102 1.027-.355 1.285-.457.258-1.039.098-1.305-.355l-.945-1.641c-.262-.449-.102-1 .355-1.258.113-.066.234-.105.352-.117m.004 0" opacity=".1" transform="translate(1 1)"/>
  <path d="m24 9c-.523 0-.945.414-.945.938v.965c-4.168.293-7.777 2.516-9.996 5.742l-.887-.496c-.453-.258-1.012-.098-1.273.352-.262.449-.129 1.031.324 1.289l.859.496c-.848 1.73-1.332 3.664-1.332 5.715 0 2.051.484 3.984 1.332 5.715l-.859.496c-.453.258-.586.84-.324 1.289.262.449.82.609 1.273.352l.887-.5c2.219 3.23 5.828 5.453 9.996 5.746v.965c0 .523.422.941.945.941.523 0 .945-.414.945-.941v-.965c4.164-.293 7.777-2.516 9.996-5.746l.887.5c.453.258 1.012.098 1.27-.352.266-.449.133-1.031-.324-1.289l-.855-.496c.848-1.73 1.332-3.664 1.332-5.715 0-2.051-.484-3.984-1.332-5.715l.855-.496c.457-.258.59-.84.324-1.289-.262-.449-.816-.609-1.27-.352l-.887.496c-2.219-3.227-5.832-5.449-9.996-5.742v-.965c0-.523-.422-.938-.945-.938m-4.852 5.914c.367-.043.75.133.945.469l.945 1.641c.262.449.098 1-.355 1.262-.453.258-1.039.125-1.301-.324l-.945-1.641c-.266-.449-.102-1.031.352-1.289.113-.063.234-.102.355-.117m9.465.031c.094-.016.176-.012.266 0 .125.012.242.051.355.117.453.258.617.836.355 1.285l-.945 1.613c-.266.449-.848.609-1.305.352-.453-.258-.617-.84-.352-1.289l.945-1.609c.145-.254.406-.426.676-.469m-14.02 8.08h1.895c.523 0 .945.418.945.941 0 .52-.422.938-.945.938h-1.895c-.523 0-.945-.418-.945-.938 0-.523.422-.941.945-.941m16.977 0h1.891c.523 0 .945.418.945.941 0 .52-.422.938-.945.938h-1.891c-.523 0-.945-.418-.945-.938 0-.523.422-.941.945-.941m-7.57.031c.523 0 .945.422.945.938 0 .52-.422.938-.945.938-.52 0-.941-.418-.941-.938 0-.516.422-.938.941-.938m-3.902 6.563c.09-.02.176-.012.27 0 .121.012.238.078.352.145.457.258.617.809.355 1.258l-.945 1.641c-.262.449-.848.582-1.301.324-.457-.262-.59-.809-.328-1.258l.945-1.641c.148-.254.387-.426.652-.469m7.566.027c.367-.047.75.105.945.441l.945 1.641c.266.449.102 1.027-.355 1.285-.457.258-1.039.098-1.305-.355l-.945-1.641c-.262-.449-.102-1 .355-1.258.113-.066.234-.105.352-.117m.004 0" fill="#ec3d3d"/>
</svg>
