<svg viewBox="0 0 48 48" xmlns="http://www.w3.org/2000/svg" xmlns:xlink="http://www.w3.org/1999/xlink">
  <linearGradient id="a" gradientTransform="matrix(0 -1 1 0 -.0000015 47.999998)" gradientUnits="userSpaceOnUse" x1="1" x2="47">
    <stop offset="0" stop-color="#3d3d3d"/>
    <stop offset="1" stop-color="#474747"/>
  </linearGradient>
  <path d="m47 24c0 22.703-.297 23-23 23-22.703 0-23-.297-23-23 0-22.703.297-23 23-23 22.703 0 23 .297 23 23z" fill="url(#a)"/>
  <path d="m14 16c-.5 0-1 .498-1 .998h-.002c0 5.669 0 11.337 0 17.01h23.998v-14.932c0-.531-.5-1.066-1-1.066h-.996c-2.987-.016-6-.008-9-.008l-1-1.998z" opacity=".1" transform="matrix(1 0 0 1 -.00000001 -.00000001)"/>
  <path d="m12 16v14h23v-7l-1-6h-9l-1-2h-11c-.5 0-1 .5-1 1z" fill="#ff8f00"/>
  <path d="m14 18h11v4h-11z" fill="#fffdf0"/>
  <path d="m36 18.07v14.933h-24v-14h12l1-2h10c .5 0 1 .533 1 1.067z" fill="#ffca28"/>
  <path d="m26.789 20c-1.777 0-3.215 1.438-3.215 3.211 0 .559.141 1.078.391 1.535 0 0 0 .004 0 .008l-5.961 5.961v1.285h1.285l.43-.43v-.855h.855l.43-.43h.859l.426-.43v-.855l.43-.43h.859v-.859l1.672-1.672c0 0 .004 0 .008 0 .457.25.977.391 1.531.391 1.777 0 3.215-1.438 3.215-3.215v-.012c-.008-1.773-1.441-3.199-3.215-3.199m.641 1.711c.469 0 .852.383.855.855 0 .477-.383.859-.855.859-.477 0-.859-.383-.859-.859 0-.473.383-.855.859-.855m0 0" fill="#403018" opacity=".4"/>
</svg>
