<svg viewBox="0 0 48 48" xmlns="http://www.w3.org/2000/svg" xmlns:xlink="http://www.w3.org/1999/xlink">
  <linearGradient id="a" gradientTransform="matrix(0 -1 1 0 -.0000015 47.999998)" gradientUnits="userSpaceOnUse" x1="1" x2="47">
    <stop offset="0" stop-color="#7b5684"/>
    <stop offset="1" stop-color="#865e90"/>
  </linearGradient>
  <path d="m47 24c0 22.703-.297 23-23 23-22.703 0-23-.297-23-23 0-22.703.297-23 23-23 22.703 0 23 .297 23 23z" fill="url(#a)"/>
  <path d="m25 10l-6 3v8c-1.333 1.333-2.667 2.667-4 4v10l10 5 10-5c0-6.667 0-13.333 0-20z" fill-opacity=".102"/>
  <path d="m24 30l-10-6 2-2 10 5" fill="#c8beb7"/>
  <path d="m24 17l-6 3v-8l6-3" fill="#e8ba04"/>
  <path d="m26 27l-10-5 8-8 10 5" fill="#4d4d4d"/>
  <path d="m27 18l-9-6 6-3 10 5" fill="#d9ae03"/>
  <path d="m24 39l-10-5v-10l12 6" fill="#fbce19"/>
  <path d="m21 34l-4-2v-3l4 2" fill="#666"/>
  <path d="m30 21l-12-6v-3l10 5" fill="#fbce19"/>
  <path d="m34 34l-10 5v-10l4-4v-8l6-3" fill="#e8ba04"/>
</svg>
