<svg viewBox="0 0 48 48" xmlns="http://www.w3.org/2000/svg" xmlns:xlink="http://www.w3.org/1999/xlink">
  <linearGradient id="a" gradientTransform="matrix(0 -1 1 0 -.0000015 47.999998)" gradientUnits="userSpaceOnUse" x1="1" x2="47">
    <stop offset="0" stop-color="#7ac0d2"/>
    <stop offset="1" stop-color="#88c7d8"/>
  </linearGradient>
  <path d="m47 24c0 22.703-.297 23-23 23-22.703 0-23-.297-23-23 0-22.703.297-23 23-23 22.703 0 23 .297 23 23z" fill="url(#a)"/>
  <path d="m14 13l-2 5v17h7v4h4l4-4h4l7-7v-15zm2 2h20v13l-2.039 2.039c-.836-1.157-1.513-2.371-1.85-4.084-.737-3.749.396-4.77-2.02-7.932-1.278-1.673-3.667-2.027-5.275-2.023-.923.001-1.965.25-3.076.783-3.116 1.495-3.193 4.591-2.74 11.217.107 1.407-.682 2.452-1.846 4h-1.154m10.717-11c1.208.002 2.187 1.231 2.186 2.582 0 .751-.31 1.458-.838 1.922.408.185.702.428.672.83-.032.47-.246.993-.412 1.266.309.38.441.934 1.09 1.891.589.848.77 1.552 1.117 2.512h-5.529l-3 3v-3h-3.07c.133-.258.282-.509.451-.75.663-.934.67-.985.67-1.605.02-1.153.055-1.644.449-2.066-.203-.25-.446-.522-.455-.824-.022-.532.329-.802.795-1.158-.378-.426-.84-.914-.84-1.896 0-1.241.598-2.25 1.359-2.25.761 0 1.721.841 1.721 2.082 0 .261-.064.521-.141.771.515-.104 1.087-.166 1.668-.059-.055-.216-.082-.438-.082-.662-.001-1.353.98-2.585 2.189-2.584zm-.074 1.621c-.628.001-1.135.582-1.135 1.299 0 .282.08.556.229.781.202.117.393.211.607.271.209.063.42.128.643.186.474-.17.796-.672.797-1.238 0-.718-.511-1.3-1.141-1.299zm-5.234.064v.002c-.029-.001-.059 0-.088.002-.468.048-.784.667-.707 1.381.059.541.333 1 .686 1.152.274-.231.627-.535.977-.719.044-.192.056-.402.033-.611-.071-.665-.458-1.186-.898-1.207z" opacity=".1"/>
  <path d="m13 12l-2 5v17h7v4h4l4-4h4l7-7v-15zm2 2h20v13l-4 4h-7l-3 3v-3h-6z" fill="#523b7d"/>
  <path d="m23.816 15c-.923.001-1.965.25-3.076.783-3.116 1.495-3.193 4.591-2.74 11.217.107 1.407-.682 2.452-1.846 4l .846 1 .93-1c .133-.258.282-.509.451-.75.663-.934.67-.985.67-1.605.02-1.153.055-1.644.449-2.066-.203-.25-.446-.522-.455-.824-.022-.532.329-.802.795-1.158-.378-.426-.84-.914-.84-1.896 0-1.241.6-2.25 1.361-2.25.761 0 1.721.841 1.721 2.082 0 .261-.064.521-.141.771.515-.104 1.087-.166 1.668-.059-.055-.216-.082-.438-.082-.662-.001-1.353.98-2.585 2.189-2.583 1.208.002 2.187 1.232 2.186 2.583 0 .751-.31 1.458-.838 1.922.408.185.702.428.672.83-.032.47-.246.993-.411 1.266.309.38.44.934 1.089 1.89.589.848.77 1.55 1.117 2.51l2.069.5 1.361-2.461c-.836-1.157-1.513-2.371-1.85-4.084-.737-3.749.396-4.77-2.02-7.932-1.278-1.673-3.667-2.027-5.275-2.023m1.826 6.621c-.628.001-1.135.582-1.135 1.299 0 .282.08.556.229.781.202.117.393.211.607.271.209.063.42.128.643.186.474-.17.796-.672.797-1.238 0-.718-.511-1.3-1.141-1.299zm-5.234.064v.002c-.029-.001-.059 0-.088.002-.468.048-.784.667-.707 1.381.059.541.331 1 .684 1.152.274-.231.627-.535.977-.719.044-.192.056-.402.033-.611-.071-.665-.458-1.186-.898-1.207z" fill="#523b7d"/>
</svg>
