<svg viewBox="0 0 48 48" xmlns="http://www.w3.org/2000/svg" xmlns:xlink="http://www.w3.org/1999/xlink">
  <linearGradient id="a" gradientTransform="matrix(0 -1 1 0 -.0000015 47.999998)" gradientUnits="userSpaceOnUse" x1="1" x2="47">
    <stop offset="0" stop-color="#3d3d3d"/>
    <stop offset="1" stop-color="#474747"/>
  </linearGradient>
  <path d="m47 24c0 22.703-.297 23-23 23-22.703 0-23-.297-23-23 0-22.703.297-23 23-23 22.703 0 23 .297 23 23z" fill="url(#a)"/>
  <circle cx="25" cy="25" opacity=".1" r="15"/>
  <circle cx="24" cy="24" fill="#e54747" r="15"/>
  <path d="m16 24a8 8 0 0 0 7 7.928v2.072h-2v2h6v-2h-2v-2.07a8 8 0 0 0 7-7.93h-2a6 6 0 0 1-6 6 6 6 0 0 1-6-6z" fill="#f9f9f9" transform="translate(0 -1)"/>
  <rect fill="#f9f9f9" height="14" rx="4" width="8" x="20" y="14"/>
</svg>
