<svg xmlns="http://www.w3.org/2000/svg" viewBox="0 0 48 48">
 <defs>
  <linearGradient id="linearGradient3764" x1="1" x2="47" gradientUnits="userSpaceOnUse" gradientTransform="matrix(0,-1,1,0,-1.5e-6,47.999998)">
   <stop style="stop-color:#46baa7;stop-opacity:1"/>
   <stop offset="1" style="stop-color:#55bfae;stop-opacity:1"/>
  </linearGradient>
 </defs>
 <g>
  
  
  
 </g>
 <g>
  <path d="m 47,24 C 47,46.703 46.703,47 24,47 1.297,47 1,46.703 1,24 1,1.297 1.297,1 24,1 46.703,1 47,1.297 47,24 z" style="fill:url(#linearGradient3764);fill-opacity:1"/>
 </g>
 <g>
  
 </g>
 <g transform="matrix(3.543307,0,0,3.543307,2.7261596e-8,0.00195287)">
  <path d="m 20.998 7.998 c -0.554 0 -1 0.444 -1 0.998 l 0 2.01 -2.199 0 c -1.558 0 -2.795 1.324 -2.795 2.879 l 0 24.24 c 0 1.555 1.237 2.879 2.795 2.879 l 14.402 0 c 1.558 0 2.803 -1.324 2.803 -2.879 l 0 -24.24 c 0 -1.555 -1.245 -2.879 -2.803 -2.879 l -2.203 0 0 -2.01 c 0 -0.554 -0.446 -0.998 -1 -0.998 l -8 0 z m -3.199 5.01 14.402 0 c 0.437 0 0.803 0.35 0.803 0.879 l 0 24.24 c 0 0.529 -0.366 0.885 -0.803 0.885 l -14.402 0 c -0.437 0 -0.795 -0.355 -0.795 -0.885 l 0 -24.24 c 0 -0.529 0.358 -0.879 0.795 -0.879 z" transform="scale(0.28222223,0.28222223)" style="fill:#000;opacity:0.1;fill-opacity:1"/>
  <path d="m 5.08 10.724 3.951 0 0 -4.798 -3.951 2.822 z" style="fill:#000;opacity:0.1;fill-opacity:1"/>
  <path d="m 4.762 2.819 c -0.439 0 -0.811 0.373 -0.811 0.813 l 0 6.844 c 0 0.439 0.372 0.813 0.811 0.813 l 4.054 0 c 0.439 0 0.779 -0.373 0.779 -0.813 l 0 -6.844 c 0 -0.439 -0.34 -0.813 -0.779 -0.813 l -4.054 0 z m 0 0.563 4.054 0 c 0.123 0 0.219 0.1 0.219 0.25 l 0 6.844 c 0 0.15 -0.096 0.25 -0.219 0.25 l -4.054 0 c -0.123 0 -0.249 -0.1 -0.249 -0.25 l 0 -6.844 c 0 -0.15 0.127 -0.25 0.249 -0.25 z" style="visibility:visible;fill:#f9f9f9;fill-opacity:1;stroke:none;display:inline;color:#000"/>
  <rect width="2.822" height="1.16" x="5.362" y="1.975" rx="0.282" style="fill:#f9f9f9"/>
  <path d="m 4.798 10.442 3.951 0 0 -4.798 -3.951 2.822 z" style="fill:#e3e3d6"/>
 </g>
</svg>
