<svg viewBox="0 0 48 48" xmlns="http://www.w3.org/2000/svg" xmlns:xlink="http://www.w3.org/1999/xlink">
  <linearGradient id="a" gradientUnits="userSpaceOnUse" x2="0" y1="1" y2="47">
    <stop offset="0" stop-color="#fab766"/>
    <stop offset="1" stop-color="#f9ad52"/>
  </linearGradient>
  <path d="m24 1c22.703 0 23 .297 23 23 0 22.703-.297 23-23 23-22.703 0-23-.297-23-23 0-22.703.297-23 23-23z" fill="url(#a)"/>
  <rect height="26" opacity=".1" rx="3" width="26" x="12" y="12"/>
  <rect fill="#293337" height="26" rx="3" width="26" x="11" y="11"/>
  <path d="m24 1c22.703 0 23 .297 23 23 0 22.703-.297 23-23 23-22.703 0-23-.297-23-23 0-22.703.297-23 23-23z" fill="#5c5c5c" transform="matrix(.2173913 0 0 .2173913 24.782609 12.782609)"/>
  <g fill="#dcdcdc" transform="matrix(.2173913 0 0 .2173913 24.782609 12.782609)">
    <path d="m37.8 33.2v-4.6h-13.8v4.6"/>
    <path d="m15.653 30.44l-3.153-3.342 6.638-5.858-6.638-5.854 3.153-3.346 10.187 9.2"/>
  </g>
  <path d="m24 1c22.703 0 23 .297 23 23 0 22.703-.297 23-23 23-22.703 0-23-.297-23-23 0-22.703.297-23 23-23z" fill="#dd5938" transform="matrix(.2173913 0 0 .2173913 12.782609 12.782609)"/>
  <g transform="matrix(.77028413 0 0 .77028413 12.391048 12.825574)">
    <path d="m3.387 4.404v4.063h6.491l-2.822-3.697-.282-.649h-3.104c-.141 0-.282.141-.282.282z" fill="#ff8f00"/>
    <path d="m3.906 4.9h3.246v1.298h-3.246z" fill="#fffdf0"/>
    <path d="m5.826 40.501l-.217.499h-2.609v3h6v-3.267c0-.116-.108-.232-.217-.232z" fill="#ffca28" transform="matrix(1.2982223 0 0 1.2982223 -.50766676 -47.80778)"/>
  </g>
  <g transform="matrix(.2173913 0 0 .2173913 12.782609 24.78176)">
    <path d="m24 1c-2.27 0-4.462.334-6.533.947 1.534 1.053-1.25 2.02-3.205 1.215-7.833 3.667-13.262 11.617-13.262 20.838 0 7.505 3.595 14.169 9.156 18.367 5.844 2.633 21.844 2.633 29.684-1.699 2.366-2.249 4.253-4.995 5.494-8.07 0-.001 0-.001 0-.002.234-1.595.667-3.594 1.23-4.15h.002c.282-1.438.434-2.923.434-4.443 0-.118-.006-.234-.008-.352-.001 0-.001 0-.002 0-.992-.649-.556-1.182-.154-2.348-.185-1.577-.527-3.105-1.014-4.568-1.826-.738-7.823-7.734-11.1-13.08-3.203-1.692-6.85-2.654-10.725-2.654z" fill="#1f9ad1"/>
    <path d="m17.475 1.943c-1.152.34-2.267.767-3.336 1.275l.514 1.566-.621.346-.254.465.189 1.063.754.125 1.344-1.344 2.191-.844 1.75-2.129.719-.189-.031-.273zm8.582.443l-1.906.121.5.598.531-.5.344.219.5-.25zm6 .461l-.844.066-1.152 1.1.434.438.375.031.156-.254-.375-.314.719-.652h.656l.189-.191-.156-.223zm2.725.824l-.008.006-.498.299-.531.438-.225.047-.316-.438-.652-.063.152.75-1.188.059-1.219.25-2.053.941-.469-.475.064-.254 1-.09-1.496-.627-.879-.156-.941.191-1.406 1.217-.652.719-.25.031-.098.344.281.5.406-.281.25-.063.188.375.316.563.379-.25.031-.408.27-.189.066-.156-.188-.219-.156-.063.188-.41.785-.809.254.189v.125l-.223.25-.066.594.535.125.594.09-.314.441-.5-.031-.314.316-.012.441-.404.297-.273-.094-1.355.188.031-.229.156-.25-.277-.223-.191.281.125.279-.09.221-.313.125-.439-.221-.156.064.225.281-.281.463-1.162.504-.25.031-.156.223.281.191.436.752-.283.25-.656.125-.125-.281-.434.438-.191.721v.598l.754.406.594-.221.602-1.064.527-.652.969-.156.219-.188 1.098 1.281.121.438.313-.156-.09-.375h.188l-.125-.254-1.063-1 .094-.188.344-.031.75.75.375.441v.688l.566.5.277-.094-.152-.566.281-.563.439.156.156.063-.031-.5.406-1.158.563.098.094.313.221.156.254-.219-.156-.348h.656l-.225.375.814.564.219.438-1.219-.033-1.219.314-.125.189-.436.094.189.469.344.406.625-.219.156.275.275-.219.375.064-.09 1.186-.754-.094-.188.465-1.375-.25-.25-.316-.66.75-1.75-1.025v-.941l-.564.031-.027.313-1.375-.063-.439.4-.844.031-2.41 3-.031 1.625-.252 1.1 1.35 2.182.875.469.09-.375h1.563l.41-.188 1.527.658-.246 1.313.908 2.223-.246 1.434.188 1.781 1.063 2.502.158 1.281.346-.344 1.404-.09.971-1.5.063-.594.688-1.406.344-.754.813-.777c0 0-.162-1.879-.313-2.813l1.658-2.252.41-.406.404-1 .064-.691h-.594l-.281.281-.908-.719-.281-.563-1.4-2.383-.406-.719-.094-.469.438-.063 1.125 2.156.846 1.473.602.602.535-.5.594-.156 1.377-1.469.031-.5-.656-.754-.25.152-.156.254-.404-.188-.406-.723-.434-.406v-.813l.275.531.943.879.406-.094.25.281 1.783-.035.938 1.098.125.277h.275l.096-.313.094.467.496 1.658.467 1.344.219.277.314-.188.094-.314.09-1.465 1.469-1.691.844-.406.219.75.5.652.094.531.346-.156-.033-.375.313.066.125 1.25.281.063.09-.313.41.535.844 1 .535-.469.035-1.598-.604-.563-.092-.566.566-.555.152.375-.188.598.375.156.156-.531-.156-.379.375-.156.441-.221c-1.871-5.656-5.876-10.34-11.06-13.1m-23.01.852l-.305.709.621.094c0 0-.191.314-.094.314.098 0 .469-.406.469-.406zm6.939.875l-.121.406.621.344.523-.125.352-.344-.227-.281zm-7.279.273l-1.4.061.154.068.531.465.523.125zm-1.588.5c0 0-.434.248-.852.404-.002.002-.004.002-.006.004-.091.079-.181.156-.271.236-.053.12-.029.23-.029.23l-.035.844-.688.563-.436.656c0 0-.281-.188-.281-.313 0-.125-.063-.471-.063-.471l-.008-.006c-.43.462-.841.943-1.232 1.439l.416.545.281.434c0 0-.248.844-.313 1-.063.156-.25-.313-.25-.313l-.156-.814-.531.225-.41.965.094-.811.021-.086c-.858 1.237-1.6 2.56-2.205 3.957h.393l1.125-.25.406.531-.063.625.469.406-.031-1.348.566-.625 1.094-1.34.281-.563.938-.496.625-.691c0 0 .934-.148 1.121-.254.191-.09.066-.434-.125-.75-.191-.313.094-.625.094-.625l.719-.434.625.121.066.754c0 0 .59.563.781.465.188-.09.27-.406.27-.406l-.313-.813.191-.813-.844.121v-1.375l-.91.285-.09-.688zm11.643 1.01l-.25.219-.15.621.469.223.063.277-.25.254-.219.375.152.156 1.063-.314-.275-.375-.1-.654zm-.775 1.184l-.281.469.375.156.156-.281zm10.938 1.848l.375.154-.25.221 1.027 2.127-.406.189-.531-.344-.658-1.125-.129-.813zm-7.906 1.188l-.375.719.281.281.25-.223.031-.309zm.904 1.219l-.188.064.309.531.281-.221zm-19.316 4.187l-1.123.16.531.277.594.121.346.471.404-.25-.063-.279zm-1.787.41l-.564.09-.848.844-.363-.047c-.053.201-.101.404-.148.607l.58.275 1.094.6.156.725.875.84.5-.375.475.469-.752 1.75.029 1.125.967 2.563 1.313 1.313.158 4.137.691 3.088 1.25 2.285 1.221.525-.75-1.287.25-.719-.656-.344.5-.375-.281-.936.496-.654.781-.189.125-.598-.469-.219.188-.5.75-.094 1.125-2.691.979-.473.309-1.063.094-1.531.844-1.715-1.031-.91-.854.066-1.344-.781-.836-1.469-.652.035-.875-1.188-1.781-.5h-.875v.004l-.008.004-1.813.652-.344-1.316-.688-.621v-.438l.531-.566zm39.11 3.176l.906 2.219.625.066-.281-.846zm-3.594.064l-.316.406.156.6.344-.375-.063-.475zm7.785.889l-1.168.643-.727.691.875 1.777 1.17-.76c-.01-.795-.062-1.578-.15-2.352zm-4.303.275l-.43.059 1.996 3 .531.594 1.313.064.814.254-.879-.625-1.25-.346-.314-1.154-.688-.564zm-10.494 4.867l-.406.814-.814.5.254.344.156.156-.41.344.156 1.158.344.094.41-.625.25-.406.438-1.938-.096-.439zm14.52 1.986c-.05.017-.115.036-.119.051-.02.086-.563.375-.563.375-.113 0-.467.656-.467.656l-.186 2.813.129.168c.52-1.3.928-2.658 1.205-4.062zm-34.34 11.797l-1.344 1.123.5.625-.75.375-.475-.023c3.851 2.907 8.645 4.633 13.842 4.633 6.137 0 11.708-2.408 15.832-6.324l-2.549.096-3.063.621c0 0-1.477.793-1.656.754-.18-.043.625-1.031.625-1.031l-1.439.09-.904-.75-.91.621-2.25.658-6.719.1-1.402 1h-5.434l-.781-.381-.621-1.563-.5-.621z" fill="#abd6ec"/>
  </g>
  <path d="m30 25c .112 0 .223.006.333.014-.11-.007-.221-.014-.333-.014zm.333.014c-.117 2.728 1.972 4.294 4.6 5.815.045-.27.068-.546.068-.829 0-2.649-2.061-4.815-4.667-4.986zm-4.476 2.193c-.537.797-.856 1.759-.856 2.792 0 2.761 2.238 4.999 4.999 4.999.412 0 .812-.049 1.196-.143-1.636-1.926-3.532-5.122-5.339-7.649z" fill="#ffb910"/>
  <path d="m30 25c-1.726 0-3.245.872-4.143 2.201.001.002-.001.005 0 .007.926 3.188 3.191 6.106 5.339 7.649 1.921-.471 3.406-2.055 3.736-4.03-1.942-1.741-3.435-3.502-4.599-5.815-.11-.007-.221-.014-.333-.014z" fill="#f9f9f9" fill-rule="evenodd"/>
  <path d="m29 28v4l3-2" fill="#2d2d2d"/>
</svg>
