<svg viewBox="0 0 48 48" xmlns="http://www.w3.org/2000/svg" xmlns:xlink="http://www.w3.org/1999/xlink">
  <linearGradient id="a" gradientTransform="matrix(0 -1 1 0 -.0000015 47.999998)" gradientUnits="userSpaceOnUse" x1="1" x2="47">
    <stop offset="0" stop-color="#ea791e"/>
    <stop offset="1" stop-color="#ec8430"/>
  </linearGradient>
  <path d="m47 24c0 22.703-.297 23-23 23-22.703 0-23-.297-23-23 0-22.703.297-23 23-23 22.703 0 23 .297 23 23z" fill="url(#a)"/>
  <path d="m12.06 20.875c-.508-3.914 2.191-8.875 6.465-8.875 12.457 0 1.441 15.05 2.465 16.12 1 1 2.785-.625 3.977-2.441 1.02-1.59 1.855-3.277 3.727-2.359 2.086 1.027 2.098 3 3.129 5.145 1.031 2.141 2.082 3.316 3.129 4.113 3.578 3.895-2.965 4.609-4.922 1.414-2.035-2.855-1.035-4.867-4.902-.434-6.129 7.652-12.12-4.438-13.06-12.684m.004 0" opacity=".1" transform="translate(1 1)"/>
  <path d="m12.06 20.875c-.508-3.914 2.191-8.875 6.465-8.875 12.457 0 1.441 15.05 2.465 16.12 1 1 2.785-.625 3.977-2.441 1.02-1.59 1.855-3.277 3.727-2.359 2.086 1.027 2.098 3 3.129 5.145 1.031 2.141 2.082 3.316 3.129 4.113 3.578 3.895-2.965 4.609-4.922 1.414-2.035-2.855-1.035-4.867-4.902-.434-6.129 7.652-12.12-4.438-13.06-12.684m.004 0" fill="#f9f9f9"/>
</svg>
