<svg viewBox="0 0 48 48" xmlns="http://www.w3.org/2000/svg" xmlns:xlink="http://www.w3.org/1999/xlink">
  <linearGradient id="a" gradientTransform="matrix(0 -1 1 0 -.0000015 47.999998)" gradientUnits="userSpaceOnUse" x1="1" x2="47">
    <stop offset="0" stop-color="#f34a41"/>
    <stop offset="1" stop-color="#f45b55"/>
  </linearGradient>
  <path d="m47 24c0 22.703-.297 23-23 23-22.703 0-23-.297-23-23 0-22.703.297-23 23-23 22.703 0 23 .297 23 23z" fill="url(#a)"/>
  <g fill="#f9f9f9">
    <path d="m24 12v2.051a11 11 0 0 0-5.232 1.887l-1.545-1.545-2.123 2.123 1.453 1.453a11 11 0 0 0-2.498 6.03h-2.055v3h2.191a11 11 0 0 0 2.357 5.04l-1.449 1.447 2.123 2.123 1.553-1.553a11 11 0 0 0 5.225 1.891v2.055h3v-2.191a11 11 0 0 0 5.04-2.357l1.447 1.449 2.123-2.123-1.553-1.553a11 11 0 0 0 1.756-4.225h2.189v-3h-2.051a11 11 0 0 0-1.887-5.232l1.545-1.545-2.123-2.123-1.453 1.453a11 11 0 0 0-5.03-2.363v-2.189h-3m1 5a8 8 0 0 1 8 8 8 8 0 0 1-8 8 8 8 0 0 1-8-8 8 8 0 0 1  8-8zm0 5a3 3 0 0 0-3 3 3 3 0 0 0  3 3 3 3 0 0 0  3-3 3 3 0 0 0-3-3z" fill="#000" fill-opacity=".098" fill-rule="evenodd"/>
    <path d="m11 23h4v3h-4z" fill-rule="evenodd"/>
    <path d="m23 11h3v4h-3z"/>
    <path d="m33 23h4v3h-4z"/>
    <path d="m23 33h3v4h-3z"/>
    <path d="m24 13a11 11 0 0 0-11 11 11 11 0 0 0  11 11 11 11 0 0 0  11-11 11 11 0 0 0-11-11m0 3a8 8 0 0 1 8 8 8 8 0 0 1-8 8 8 8 0 0 1-8-8 8 8 0 0 1  8-8z"/>
    <path d="m-13 32.941h4v3h-4z" fill-rule="evenodd" transform="matrix(.70710678 -.70710678 .70710678 .70710678 0 0)"/>
    <path d="m-1 20.941h3v4h-3z" transform="matrix(.70710678 -.70710678 .70710678 .70710678 0 0)"/>
    <path d="m9 32.941h4v3h-4z" transform="matrix(.70710678 -.70710678 .70710678 .70710678 0 0)"/>
    <path d="m-1 42.941h3v4h-3z" transform="matrix(.70710678 -.70710678 .70710678 .70710678 0 0)"/>
    <circle cx="24" cy="24" r="3"/>
  </g>
</svg>
