<svg viewBox="0 0 48 48" xmlns="http://www.w3.org/2000/svg" xmlns:xlink="http://www.w3.org/1999/xlink">
  <linearGradient id="a" gradientTransform="matrix(0 -1 1 0 -.0000015 47.999998)" gradientUnits="userSpaceOnUse" x1="1" x2="47">
    <stop offset="0" stop-color="#0b3c5f"/>
    <stop offset="1" stop-color="#0d4871"/>
  </linearGradient>
  <path d="m47 24c0 22.703-.297 23-23 23-22.703 0-23-.297-23-23 0-22.703.297-23 23-23 22.703 0 23 .297 23 23z" fill="url(#a)"/>
  <path d="m21.996 11c-.994 0-.996-.003-.996.996v.004c0 0-1 0-1 1v2.357c-1.276-.342-2.455-.656-3-.805l-.004-.002c-.969-.246-.922-.32-1.227.719l-1.045 3.896c-.24.064-.711.191-.869.232h-.004c-.965.273-.961.18-.707 1.238l.594 2.213-1.59 5.932c-.262.965-.262.967.707 1.229l3.02.809.893 3.326c.258.965.254.969 1.223.711l2.07-.555c.081.295.293.699.938.699h16c0 0 1 0 1-1v-14l-8-8c-2.478-.003-4.162-.002-6-.002 0-.997 0-.998-1-.998h-1z" opacity=".1" transform=""/>
  <g transform="translate(-.00040288)">
    <path d="m20 11c0 0-1 0-1 1v21c0 0 0 1 1 1h16c0 0 1 0 1-1v-14l-8-8c-3.715-.004-6.742-.004-9-.004m0 .004" fill="#f9f9f9"/>
    <path d="m37 18.992l-7.996-7.992c-.004 3.996 0 5.996 0 6.996 0 .996 0 .996 1 .996.996 0 4.094.012 6.996 0m0 0" fill="#dedede"/>
    <path d="m15.996 13.551c-.969-.246-.922-.32-1.227.719l-3.621 13.512c-.262.965-.262.965.707 1.227l10.625 2.844c.969.262.965.262 1.227-.707l3.625-13.523c.258-.961.258-.965-.707-1.223 0 0-8.695-2.32-10.625-2.848m-.004 0" fill="#5bb0ec"/>
    <path d="m12.852 18.398c-.965.273-.961.18-.707 1.238l3.625 13.508c.258.965.254.969 1.223.711l10.629-2.848c.965-.258.965-.254.707-1.223l-3.625-13.523c-.258-.965-.258-.969-1.227-.707 0 0-8.688 2.34-10.621 2.844m-.004 0" fill="#de3d3d"/>
    <path d="m20 11v4.996c0 1 0 1 .996 1h1c1 0 1 0 1-1v-4c-1 0-1 0-1 1v3h-1v-4.996h2c0-1 0-1-1-1h-1c-.996 0-.996-.004-.996 1m0 0" fill="#868686"/>
    <path d="m19.348 22.313l1.145 4.363 4.379-1.199c-.633-2.41-3.105-3.828-5.523-3.164m0 0" fill="#f9f9f9"/>
    <path d="m18.875 23.11c-2.418.664-3.867 3.152-3.234 5.566.633 2.41 3.105 3.832 5.523 3.168 2.422-.66 3.871-3.152 3.238-5.566l-4.383 1.199m-1.145-4.367" fill="#f9f9f9"/>
  </g>
</svg>
