<svg xmlns="http://www.w3.org/2000/svg" viewBox="0 0 48 48">
 <defs>
  <linearGradient id="linearGradient3764" y1="47" x2="0" y2="1" gradientUnits="userSpaceOnUse">
   <stop style="stop-color:#8ac1e4;stop-opacity:1"/>
   <stop offset="1" style="stop-color:#9ac9e8;stop-opacity:1"/>
  </linearGradient>
 </defs>
 <g>
  
  
  
 </g>
 <g>
  <path d="m 47,24 C 47,46.703 46.703,47 24,47 1.297,47 1,46.703 1,24 1,1.297 1.297,1 24,1 46.703,1 47,1.297 47,24 z" style="fill:url(#linearGradient3764);fill-opacity:1"/>
 </g>
 <g>
  <g>
   <g transform="translate(1,1)">
    <g style="opacity:0.1">
     <!-- color: #9ac9e8 -->
     <g>
      <path d="m 25 10 c -1.442 0 -2.646 1.02 -2.934 2.377 c -1.131 0.285 -2.198 0.726 -3.176 1.307 l -0.574 -0.996 c -0.207 -0.36 -0.606 -0.516 -0.895 -0.352 l -4.156 2.402 c -0.286 0.164 -0.352 0.59 -0.145 0.949 l 1.414 2.447 c -0.974 1.735 -1.535 3.733 -1.535 5.865 c 0 4.241 2.203 7.96 5.523 10.09 l -2.336 3.336 c -0.321 0.453 -0.207 1.075 0.242 1.391 c 0.454 0.321 1.079 0.207 1.395 -0.242 l 2.475 -3.535 c 1.444 0.615 3.03 0.957 4.701 0.957 c 1.505 0 2.939 -0.29 4.266 -0.795 l 2.359 3.373 c 0.316 0.449 0.938 0.563 1.391 0.242 c 0.453 -0.316 0.563 -0.938 0.246 -1.391 l -2.172 -3.102 c 3.534 -2.088 5.91 -5.925 5.91 -10.328 c 0 -2.132 -0.561 -4.13 -1.535 -5.865 l 1.414 -2.449 c 0.207 -0.359 0.141 -0.785 -0.145 -0.949 l -4.156 -2.4 c -0.289 -0.164 -0.688 -0.008 -0.895 0.352 l -0.574 0.996 c -0.978 -0.58 -2.045 -1.022 -3.176 -1.307 c -0.288 -1.357 -1.492 -2.377 -2.934 -2.377 z" transform="translate(-1,-1)"/>
     </g>
    </g>
   </g>
  </g>
 </g>
 <g>
  <g>
   <!-- color: #9ac9e8 -->
   <g>
    <path d="m 27.426,31.27 c -0.449,0.316 -0.563,0.941 -0.242,1.391 l 3.441,4.918 c 0.316,0.449 0.938,0.563 1.391,0.242 0.453,-0.316 0.563,-0.938 0.246,-1.391 L 28.821,31.516 C 28.505,31.063 27.88,30.953 27.426,31.27 m 0,0" style="fill:#edd937;fill-opacity:1;stroke:none;fill-rule:nonzero"/>
    <path d="m 20.02 31.27 c 0.453 0.316 0.563 0.941 0.246 1.391 l -3.441 4.918 c -0.316 0.449 -0.941 0.563 -1.395 0.242 -0.449 -0.316 -0.563 -0.938 -0.242 -1.391 l 3.441 -4.914 c 0.316 -0.453 0.938 -0.563 1.391 -0.246 m 0 0" style="fill:#edd937;fill-opacity:1;stroke:none;fill-rule:nonzero"/>
    <path d="m 28.578 16.535 4.156 2.398 c 0.285 0.164 0.688 0.008 0.895 -0.352 l 2.25 -3.895 c 0.207 -0.359 0.141 -0.785 -0.145 -0.949 l -4.156 -2.402 c -0.289 -0.164 -0.688 -0.008 -0.895 0.352 l -2.25 3.895 c -0.207 0.359 -0.145 0.785 0.145 0.953 m 0 0" style="fill:#ffe519;fill-opacity:1;stroke:none;fill-rule:nonzero"/>
    <path d="m 12.266 13.738 4.156 -2.402 c 0.289 -0.164 0.688 -0.008 0.895 0.352 l 2.25 3.895 c 0.207 0.359 0.145 0.785 -0.145 0.953 l -4.156 2.398 c -0.285 0.164 -0.688 0.008 -0.895 -0.352 l -2.25 -3.895 c -0.207 -0.359 -0.141 -0.785 0.145 -0.949 m 0 0" style="fill:#ffe519;fill-opacity:1;stroke:none;fill-rule:nonzero"/>
    <path d="m 27 12 c 0 1.656 -1.344 3 -3 3 -1.656 0 -3 -1.344 -3 -3 0 -1.656 1.344 -3 3 -3 1.656 0 3 1.344 3 3 m 0 0" style="fill:#f45984;fill-opacity:1;stroke:none;fill-rule:nonzero"/>
    <path d="m 36 23 c 0 6.629 -5.371 12 -12 12 -6.629 0 -12 -5.371 -12 -12 0 -6.629 5.371 -12 12 -12 6.629 0 12 5.371 12 12 m 0 0" style="fill:#3c515b;fill-opacity:1;stroke:none;fill-rule:nonzero"/>
    <path d="m 34 23 c 0 5.523 -4.477 10 -10 10 -5.523 0 -10 -4.477 -10 -10 0 -5.523 4.477 -10 10 -10 5.523 0 10 4.477 10 10 m 0 0" style="fill:#f2f2dd;fill-opacity:1;stroke:none;fill-rule:nonzero"/>
    <path d="m 24 15 c 0.551 0 1 0.449 1 1 l 0 5 c 0 0.551 -0.449 1 -1 1 -0.551 0 -1 -0.449 -1 -1 l 0 -5 c 0 -0.551 0.449 -1 1 -1 m 0 0" style="fill:#20c87c;fill-opacity:1;stroke:none;fill-rule:nonzero"/>
    <path d="m 23.293 23.758 c 0.391 -0.391 1.023 -0.391 1.414 0 l 3.535 3.535 c 0.391 0.391 0.391 1.023 0 1.414 -0.391 0.391 -1.023 0.391 -1.414 0 l -3.535 -3.535 c -0.391 -0.391 -0.391 -1.023 0 -1.414 m 0 0" style="fill:#20c87c;fill-opacity:1;stroke:none;fill-rule:nonzero"/>
    <path d="m 26 23 c 0 1.105 -0.895 2 -2 2 -1.105 0 -2 -0.895 -2 -2 0 -1.105 0.895 -2 2 -2 1.105 0 2 0.895 2 2 m 0 0" style="fill:#566792;fill-opacity:1;stroke:none;fill-rule:nonzero"/>
   </g>
  </g>
 </g>
 <g>
  
 </g>
</svg>
