<svg viewBox="0 0 48 48" xmlns="http://www.w3.org/2000/svg" xmlns:xlink="http://www.w3.org/1999/xlink">
  <linearGradient id="a" gradientTransform="matrix(0 -1 1 0 -.0000015 47.999998)" gradientUnits="userSpaceOnUse" x1="1" x2="47">
    <stop offset="0" stop-color="#3d3d3d"/>
    <stop offset="1" stop-color="#474747"/>
  </linearGradient>
  <linearGradient id="b" gradientUnits="userSpaceOnUse" x2="0" y1="34" y2="20">
    <stop offset="0" stop-color="#db4ddb"/>
    <stop offset="1" stop-color="#db4ddb" stop-opacity=".6"/>
  </linearGradient>
  <linearGradient id="c" gradientUnits="userSpaceOnUse" x2="0" y1="34" y2="14">
    <stop offset="0" stop-color="#c52f2f"/>
    <stop offset="1" stop-color="#c52f2f" stop-opacity=".4"/>
  </linearGradient>
  <linearGradient id="d" gradientUnits="userSpaceOnUse" x2="0" y1="34" y2="20">
    <stop offset="0" stop-color="#e4c82f"/>
    <stop offset="1" stop-color="#e4c82f" stop-opacity=".6"/>
  </linearGradient>
  <linearGradient id="e" gradientTransform="translate(5)" gradientUnits="userSpaceOnUse" x2="0" y1="34" y2="26">
    <stop offset="0" stop-color="#7fcf5b"/>
    <stop offset="1" stop-color="#7fcf5b" stop-opacity=".8"/>
  </linearGradient>
  <linearGradient id="f" gradientUnits="userSpaceOnUse" x2="0" y1="34" y2="17">
    <stop offset="0" stop-color="#3e8ded"/>
    <stop offset="1" stop-color="#3e8ded" stop-opacity=".502"/>
  </linearGradient>
  <path d="m47 24c0 22.703-.297 23-23 23-22.703 0-23-.297-23-23 0-22.703.297-23 23-23 22.703 0 23 .297 23 23z" fill="url(#a)"/>
  <path d="m13 15v2h4v-2zm25 0v2h4v-2zm-35 3v2h4v-2zm10 0v2h4v-2zm15 0v2h4v-2zm10 0v2h4v-2zm-35 3v2h4v-2zm5 0v2h4v-2zm5 0v2h4v-2zm5 0v2h4v-2zm10 0v2h4v-2zm5 0v2h4v-2zm5 0v2h4v-2zm5 0v2h3.975c-.029-.675-.09-1.341-.176-2zm-40 3v2h4v-2zm5 0v2h4v-2zm5 0v2h4v-2zm5 0v2h4v-2zm10 0v2h4v-2zm5 0v2h4v-2zm5 0v2h4v-2zm5 0v2h3.908c.057-.66.092-1.326.092-2m-44 3v2h4v-2zm5 0v2h4v-2zm5 0v2h4v-2zm5 0v2h4v-2zm5 0v2h4v-2zm5 0v2h4v-2zm5 0v2h4v-2zm5 0v2h4v-2zm5 0v2h3.449c.146-.657.261-1.324.35-2zm-40 3v2h4v-2zm5 0v2h4v-2zm5 0v2h4v-2zm5 0v2h4v-2zm5 0v2h4v-2zm5 0v2h4v-2zm5 0v2h4v-2zm5 0v2h4v-2zm5 0v2h2.568c.239-.645.447-1.304.629-1.975zm-40 3v .381c.246.551.509 1.092.797 1.619h3.203v-2m1 0v2h4v-2zm5 0v2h4v-2zm5 0v2h4v-2zm5 0v2h4v-2zm5 0v2h4v-2zm5 0v2h4v-2zm5 0v2h4v-2zm5 0v2h1.203c.354-.649.677-1.315.969-2z" opacity=".1"/>
  <path d="m42 20v2h4v-2zm0 3v2h4v-2zm0 3v2h4v-2zm0 3v2h3.912c.029-.092.06-.184.088-.277v-1.723zm0 3v2h2.717c.315-.65.598-1.317.852-2z" fill="url(#d)"/>
  <path d="m2.088 17c-.029.092-.06.184-.088.277v1.723h4v-2m-4 3v2h4v-2zm0 3v2h4v-2zm0 3v2h4v-2zm0 3v1.723c.028.093.058.185.088.277h3.912v-2m-3.568 3c .253.683.537 1.35.852 2h2.717v-2" fill="url(#f)"/>
  <path d="m7 20v2h4v-2m-4 3v2h4v-2m-4 3v2h4v-2m-4 3v2h4v-2m-4 3v2h4v-2" fill="url(#b)"/>
  <path d="m12 14v2h4v-2zm0 3v2h4v-2zm0 3v2h4v-2zm0 3v2h4v-2zm0 3v2h4v-2zm0 3v2h4v-2zm0 3v2h4v-2z" fill="url(#c)"/>
  <path d="m17 20v2h4v-2m-4 3v2h4v-2m-4 3v2h4v-2m-4 3v2h4v-2m-4 3v2h4v-2" fill="url(#d)"/>
  <path d="m22 26v2h4v-2m-4 3v2h4v-2m-4 3v2h4v-2" fill="url(#e)"/>
  <path d="m27 17v2h4v-2m-4 3v2h4v-2m-4 3v2h4v-2m-4 3v2h4v-2m-4 3v2h4v-2m-4 3v2h4v-2" fill="url(#f)"/>
  <path d="m32 20v2h4v-2m-4 3v2h4v-2m-4 3v2h4v-2m-4 3v2h4v-2m-4 3v2h4v-2" fill="url(#b)"/>
  <path d="m37 14v2h4v-2zm0 3v2h4v-2zm0 3v2h4v-2zm0 3v2h4v-2zm0 3v2h4v-2zm0 3v2h4v-2zm0 3v2h4v-2z" fill="url(#c)"/>
  <path d="m33.396 13.326l-1.51 1.439c5.376 5.64 5.376 14.831 0 20.471l1.51 1.439c6.154-6.457 6.153-16.893 0-23.35zm-9.396.174l-9 7.5-3 7c0 .554.446 1 1 1h2l9 7.5v-9.799l1.498-1.701-1.498-1.701zm6.141 3.141l-1.51 1.439c3.619 3.808 3.62 10.03 0 13.842l1.51 1.432c4.395-4.628 4.396-12.09 0-16.713zm-3.121 3.143l-1.508 1.439c1.974 2.072 1.975 5.474 0 7.549l1.508 1.439c2.752-2.892 2.752-7.539 0-10.428z" opacity=".1"/>
  <path d="m32.396 12.309l-1.51 1.438c5.376 5.64 5.376 14.833 0 20.473l1.51 1.438c6.153-6.457 6.154-16.891 0-23.348zm-3.256 3.332l-1.51 1.439c3.619 3.808 3.62 10.03 0 13.842l1.51 1.432c4.395-4.628 4.396-12.09 0-16.713zm-3.121 3.143l-1.508 1.439c1.974 2.072 1.975 5.474 0 7.549l1.508 1.439c2.752-2.892 2.752-7.539 0-10.428z" fill="#f9f9f9"/>
  <path d="m23 12.5l-9 7.5h-2c-.554 0-1 .446-1 1v6c0 .554.446 1 1 1h2l9 7.5v-9.799l1.499-1.701-1.499-1.701z" fill="#f9f9f9" fill-rule="evenodd"/>
</svg>
