<svg viewBox="0 0 48 48" xmlns="http://www.w3.org/2000/svg" xmlns:xlink="http://www.w3.org/1999/xlink">
  <linearGradient id="a" gradientTransform="matrix(0 -1 1 0 -.0000015 47.999998)" gradientUnits="userSpaceOnUse" x1="1" x2="47">
    <stop offset="0" stop-color="#ffda59"/>
    <stop offset="1" stop-color="#ffe06d"/>
  </linearGradient>
  <path d="m47 24c0 22.703-.297 23-23 23-22.703 0-23-.297-23-23 0-22.703.297-23 23-23 22.703 0 23 .297 23 23z" fill="url(#a)"/>
  <g opacity=".1" transform="translate(1 1)">
    <path d="m21 12v2.25h-3v21.75h12v-21.75h-3v-2.25m-5.246.754h4.5v2.25h3v20.25h-10.5v-20.25h3v-2.25m-.004 0"/>
    <path d="m18.344 26h11.281l-.102 10-11.18-.156m0-9.844"/>
  </g>
  <path d="m21 12v2.25h-3v21.75h12v-21.75h-3v-2.25m-5.246.754h4.5v2.25h3v20.25h-10.5v-20.25h3v-2.25m-.004 0" fill="#333"/>
  <path d="m18.344 26h11.281l-.102 10-11.18-.156m0-9.844" fill="#333"/>
</svg>
