<svg viewBox="0 0 48 48" xmlns="http://www.w3.org/2000/svg" xmlns:xlink="http://www.w3.org/1999/xlink">
  <linearGradient id="a" gradientTransform="matrix(0 -1 1 0 -.0000015 47.999998)" gradientUnits="userSpaceOnUse" x1="1" x2="47">
    <stop offset="0" stop-color="#f0e9c8"/>
    <stop offset="1" stop-color="#f4efd8"/>
  </linearGradient>
  <path d="m47 24c0 22.703-.297 23-23 23-22.703 0-23-.297-23-23 0-22.703.297-23 23-23 22.703 0 23 .297 23 23z" fill="url(#a)"/>
  <path d="m15.34 14.246c.473.48.953.988 1.445 1.523.285.32.598.465.938.449.246-.023.418-.18.512-.48.113-.316.078-.824-.113-1.52-.113-.379-.465-.719-1.051-1.016-1.48-.594-2.344-.805-2.59-.625-.113.082-.148.27-.113.566.078.258.398.625.969 1.102m-2.785 5.668c.91 1.098 1.734 1.852 2.477 2.27.301.059.566-.059.773-.355.133-.258.18-.59.145-.984-.227-.957-1.195-1.68-2.902-2.18-.016-.023-.035-.031-.055-.031-.359-.082-.633-.09-.82-.031-.133.023-.184.172-.145.449.02.258.199.551.539.863m.051 11.582c-.246.078-.328.297-.258.656.418 1.574.949 2.496 1.594 2.777.133.137.301.18.512.117.133-.059.207-.352.227-.863.02-.777.816-3.801 2.387-9.07.113-.32.16-.547.145-.688-.02-.199-.125-.227-.313-.086-.23.18-1.309 2.125-3.242 5.848-.188.438-.539.875-1.051 1.313m13.02-1.074c.016.023.047.047.082.086 2.445 3.285 4.02 5.04 4.715 5.254.969.355 2.625.297 4.977-.18.359-.023.559-.09.594-.211.02-.137-.102-.266-.371-.387-3.41-1.156-5.699-2.172-6.879-3.043-.852-.563-1.559-1.105-2.129-1.645 1.609-.199 3.578-.32 5.91-.355 1.152.059 1.809-.031 1.957-.27.078-.199-.035-.438-.34-.719-.969-.715-1.789-.996-2.473-.832-1.441.355-3.402.746-5.883 1.164.113-.617.211-1.242.281-1.879 1.215-.238 2.363-.438 3.441-.594.477-.082.625-.258.457-.539-.191-.316-.547-.523-1.082-.625-.684-.078-1.59.082-2.727.48.02-.566.047-1.105.086-1.609 1.363-.242 2.973-.449 4.828-.625.191-.023.301-.113.344-.27 0-.148-.238-.387-.711-.727.398-.832.836-1.379 1.309-1.641.344-.32.379-.66.113-1.016-.281-.258-.891-.656-1.82-1.195-.301-.141-.66-.148-1.078-.027-.93.379-1.852.695-2.758.953.02-.137.066-.297.145-.477.074-.238.035-.418-.117-.535-.281-.242-.641-.449-1.078-.625.641-.141 1.629-.27 2.953-.391.191-.023.297-.117.313-.297.02-.141-.246-.391-.793-.746-.02-.023-.055-.031-.113-.031.168-.793.348-1.563.539-2.297 1.156-.199 2.246-.355 3.27-.477.191.02.371-.09.539-.328.02-.199-.18-.41-.594-.625-.57-.438-1.543-.418-2.926.059.016-.082.047-.168.082-.27 0-.078.164-.516.484-1.313.074-.18-.039-.426-.344-.746-.57-.418-1.051-.691-1.449-.832-.246-.082-.453-.059-.625.059-.133.117-.148.32-.055.594.191.379.285.707.285.984-.02.621-.051 1.273-.086 1.973-.168 0-1.195.219-3.07.656 0-1.313-.035-2.01-.113-2.086-.02-.023-.035-.031-.055-.031-.246-.199-.605-.367-1.082-.508-.359-.078-.699-.027-1.02.148-.172.141-.133.328.113.566.301.477.57 1.172.793 2.086-.906.059-1.867.184-2.871.359-.512.059-.57.258-.168.594.527.477 1.176.625 1.934.449.398-.117.84-.211 1.336-.27.301 2.031.527 3.195.684 3.492.129.18.254.199.371.059.055-.078.113-.219.168-.418.512.535.805 1.086.883 1.641-1.156.199-2.332.387-3.527.566-.074-.18-.547-.309-1.422-.391-.227-.059-.359-.031-.398.086-.113.121-.082.32.086.598.477.836.891 1.949 1.25 3.34.078.422.246.758.512 1.016.34.379.547.426.625.148.02-.141.035-.32.055-.539.113.023.273.008.457-.027.648-.18 1.445-.34 2.414-.48-.02.598-.047 1.176-.086 1.734-1.211.258-2.367.535-3.465.832-.344.082-.301.281.113.598.227.18 1.316.098 3.27-.238-.02.137-.039.309-.059.504-.016.48-.094.934-.227 1.371-2.066.32-4.27.648-6.621.988-.395.059-.441.25-.141.563.246.258.539.438.883.539.395.082.738.082 1.02 0 1.383-.418 2.859-.727 4.434-.926-.906 1.492-2.121 2.633-3.641 3.434-.641.32-1.438.688-2.383 1.102-.23.082-.379.152-.457.211-.078.078.02.156.281.238 1.762.117 3.773-.625 6.03-2.238.281-.238.539-.496.766-.777.457-.617.789-1.363.996-2.238m-.68-6.582c-1.078.188-2.082.355-3.01.516-.23-1.105-.371-1.902-.426-2.43.129-.02.301-.063.508-.145.93-.199 1.887-.398 2.871-.598.02.918.039 1.801.055 2.656m1.367-1.699c0-.418.031-.84.086-1.258.684-.141 1.363-.281 2.047-.445.531-.141.922-.086 1.168.145.113.117.141.316.082.566-.133.617-.281 1.184-.453 1.703-1.043.238-2.02.465-2.93.688 0-.5 0-.965 0-1.406m-2.27-4.504c-.02-.297-.035-.566-.055-.832-.02-.496-.039-.965-.055-1.398.871-.199 1.867-.398 2.984-.566-.078.676-.152 1.383-.23 2.117-.984.301-1.867.527-2.641.688m-.004 0" opacity=".1" transform="translate(1 1)"/>
  <path d="m15.34 14.246c.473.48.953.988 1.445 1.523.285.32.598.465.938.449.246-.023.418-.18.512-.48.113-.316.078-.824-.113-1.52-.113-.379-.465-.719-1.051-1.016-1.48-.594-2.344-.805-2.59-.625-.113.082-.148.27-.113.566.078.258.398.625.969 1.102m-2.785 5.668c.91 1.098 1.734 1.852 2.477 2.27.301.059.566-.059.773-.355.133-.258.18-.59.145-.984-.227-.957-1.195-1.68-2.902-2.18-.016-.023-.035-.031-.055-.031-.359-.082-.633-.09-.82-.031-.133.023-.184.172-.145.449.02.258.199.551.539.863m.051 11.582c-.246.078-.328.297-.258.656.418 1.574.949 2.496 1.594 2.777.133.137.301.18.512.117.133-.059.207-.352.227-.863.02-.777.816-3.801 2.387-9.07.113-.32.16-.547.145-.688-.02-.199-.125-.227-.313-.086-.23.18-1.309 2.125-3.242 5.848-.188.438-.539.875-1.051 1.313m13.02-1.074c.016.023.047.047.082.086 2.445 3.285 4.02 5.04 4.715 5.254.969.355 2.625.297 4.977-.18.359-.023.559-.09.594-.211.02-.137-.102-.266-.371-.387-3.41-1.156-5.699-2.172-6.879-3.043-.852-.563-1.559-1.105-2.129-1.645 1.609-.199 3.578-.32 5.91-.355 1.152.059 1.809-.031 1.957-.27.078-.199-.035-.438-.34-.719-.969-.715-1.789-.996-2.473-.832-1.441.355-3.402.746-5.883 1.164.113-.617.211-1.242.281-1.879 1.215-.238 2.363-.438 3.441-.594.477-.082.625-.258.457-.539-.191-.316-.547-.523-1.082-.625-.684-.078-1.59.082-2.727.48.02-.566.047-1.105.086-1.609 1.363-.242 2.973-.449 4.828-.625.191-.023.301-.113.344-.27 0-.148-.238-.387-.711-.727.398-.832.836-1.379 1.309-1.641.344-.32.379-.66.113-1.016-.281-.258-.891-.656-1.82-1.195-.301-.141-.66-.148-1.078-.027-.93.379-1.852.695-2.758.953.02-.137.066-.297.145-.477.074-.238.035-.418-.117-.535-.281-.242-.641-.449-1.078-.625.641-.141 1.629-.27 2.953-.391.191-.023.297-.117.313-.297.02-.141-.246-.391-.793-.746-.02-.023-.055-.031-.113-.031.168-.793.348-1.563.539-2.297 1.156-.199 2.246-.355 3.27-.477.191.02.371-.09.539-.328.02-.199-.18-.41-.594-.625-.57-.438-1.543-.418-2.926.059.016-.082.047-.168.082-.27 0-.078.164-.516.484-1.313.074-.18-.039-.426-.344-.746-.57-.418-1.051-.691-1.449-.832-.246-.082-.453-.059-.625.059-.133.117-.148.32-.055.594.191.379.285.707.285.984-.02.621-.051 1.273-.086 1.973-.168 0-1.195.219-3.07.656 0-1.313-.035-2.01-.113-2.086-.02-.023-.035-.031-.055-.031-.246-.199-.605-.367-1.082-.508-.359-.078-.699-.027-1.02.148-.172.141-.133.328.113.566.301.477.57 1.172.793 2.086-.906.059-1.867.184-2.871.359-.512.059-.57.258-.168.594.527.477 1.176.625 1.934.449.398-.117.84-.211 1.336-.27.301 2.031.527 3.195.684 3.492.129.18.254.199.371.059.055-.078.113-.219.168-.418.512.535.805 1.086.883 1.641-1.156.199-2.332.387-3.527.566-.074-.18-.547-.309-1.422-.391-.227-.059-.359-.031-.398.086-.113.121-.082.32.086.598.477.836.891 1.949 1.25 3.34.078.422.246.758.512 1.016.34.379.547.426.625.148.02-.141.035-.32.055-.539.113.023.273.008.457-.027.648-.18 1.445-.34 2.414-.48-.02.598-.047 1.176-.086 1.734-1.211.258-2.367.535-3.465.832-.344.082-.301.281.113.598.227.18 1.316.098 3.27-.238-.02.137-.039.309-.059.504-.016.48-.094.934-.227 1.371-2.066.32-4.27.648-6.621.988-.395.059-.441.25-.141.563.246.258.539.438.883.539.395.082.738.082 1.02 0 1.383-.418 2.859-.727 4.434-.926-.906 1.492-2.121 2.633-3.641 3.434-.641.32-1.438.688-2.383 1.102-.23.082-.379.152-.457.211-.078.078.02.156.281.238 1.762.117 3.773-.625 6.03-2.238.281-.238.539-.496.766-.777.457-.617.789-1.363.996-2.238m-.68-6.582c-1.078.188-2.082.355-3.01.516-.23-1.105-.371-1.902-.426-2.43.129-.02.301-.063.508-.145.93-.199 1.887-.398 2.871-.598.02.918.039 1.801.055 2.656m1.367-1.699c0-.418.031-.84.086-1.258.684-.141 1.363-.281 2.047-.445.531-.141.922-.086 1.168.145.113.117.141.316.082.566-.133.617-.281 1.184-.453 1.703-1.043.238-2.02.465-2.93.688 0-.5 0-.965 0-1.406m-2.27-4.504c-.02-.297-.035-.566-.055-.832-.02-.496-.039-.965-.055-1.398.871-.199 1.867-.398 2.984-.566-.078.676-.152 1.383-.23 2.117-.984.301-1.867.527-2.641.688m-.004 0" fill="#b22121"/>
</svg>
