<svg viewBox="0 0 48 48" xmlns="http://www.w3.org/2000/svg" xmlns:xlink="http://www.w3.org/1999/xlink">
  <linearGradient id="a" gradientTransform="matrix(0 -1 1 0 -.0000015 47.999998)" gradientUnits="userSpaceOnUse" x1="1" x2="47">
    <stop offset="0" stop-color="#1a3f50"/>
    <stop offset="1" stop-color="#1f4a5e"/>
  </linearGradient>
  <path d="m24 1c22.703 0 23 .297 23 23 0 22.703-.297 23-23 23-22.703 0-23-.297-23-23 0-22.703.297-23 23-23z" fill="url(#a)"/>
  <path d="m16 13c-1.656 0-3 1.344-3 3 0 1.656 1.344 3 3 3 1.656 0 3-1.344 3-3 0-1.656-1.344-3-3-3zm3 3c0 1.656 1.344 3 3 3 1.656 0 3-1.344 3-3 0-1.656-1.344-3-3-3-1.656 0-3 1.344-3 3zm3 3c-1.656 0-3 1.344-3 3 0 1.656 1.344 3 3 3 1.656 0 3-1.344 3-3 0-1.656-1.344-3-3-3zm3 3c0 1.656 1.344 3 3 3 1.656 0 3-1.344 3-3 0-1.656-1.344-3-3-3-1.656 0-3 1.344-3 3zm-3 3c-1.656 0-3 1.344-3 3 0 1.656 1.344 3 3 3 1.656 0 3-1.344 3-3 0-1.656-1.344-3-3-3zm12-12c-1.656 0-3 1.344-3 3 0 1.656 1.344 3 3 3 1.656 0 3-1.344 3-3 0-1.656-1.344-3-3-3zm0 12c-1.656 0-3 1.344-3 3 0 1.656 1.344 3 3 3 1.656 0 3-1.344 3-3 0-1.656-1.344-3-3-3zm0 6c-1.656 0-3 1.344-3 3 0 1.656 1.344 3 3 3 1.656 0 3-1.344 3-3 0-1.656-1.344-3-3-3zm-3 3c0-1.656-1.344-3-3-3-1.656 0-3 1.344-3 3 0 1.656 1.344 3 3 3 1.656 0 3-1.344 3-3zm-15-3c-1.656 0-3 1.344-3 3 0 1.656 1.344 3 3 3 1.656 0 3-1.344 3-3 0-1.656-1.344-3-3-3z" opacity=".1" transform=""/>
  <path d="m15 30c-1.656 0-3 1.344-3 3 0 1.656 1.344 3 3 3 1.656 0 3-1.344 3-3 0-1.656-1.344-3-3-3z" fill="#729fcf"/>
  <path d="m27 30c-1.656 0-3 1.344-3 3 0 1.656 1.344 3 3 3 1.656 0 3-1.344 3-3 0-1.656-1.344-3-3-3z" fill="#729fcf"/>
  <path d="m33 30c-1.656 0-3 1.344-3 3 0 1.656 1.344 3 3 3 1.656 0 3-1.344 3-3 0-1.656-1.344-3-3-3z" fill="#8ae234"/>
  <path d="m21 24c-1.656 0-3 1.344-3 3 0 1.656 1.344 3 3 3 1.656 0 3-1.344 3-3 0-1.656-1.344-3-3-3z" fill="#729fcf"/>
  <path d="m33 24c-1.656 0-3 1.344-3 3 0 1.656 1.344 3 3 3 1.656 0 3-1.344 3-3 0-1.656-1.344-3-3-3z" fill="#ec4520"/>
  <path d="m21 18c-1.656 0-3 1.344-3 3 0 1.656 1.344 3 3 3 1.656 0 3-1.344 3-3 0-1.656-1.344-3-3-3z" fill="#8ae234"/>
  <path d="m27 18c-1.656 0-3 1.344-3 3 0 1.656 1.344 3 3 3 1.656 0 3-1.344 3-3 0-1.656-1.344-3-3-3z" fill="#729fcf"/>
  <path d="m15 12c-1.656 0-3 1.344-3 3 0 1.656 1.344 3 3 3 1.656 0 3-1.344 3-3 0-1.656-1.344-3-3-3z" fill="#8ae234"/>
  <path d="m21 12c-1.656 0-3 1.344-3 3 0 1.656 1.344 3 3 3 1.656 0 3-1.344 3-3 0-1.656-1.344-3-3-3z" fill="#ec4520"/>
  <path d="m33 12c-1.656 0-3 1.344-3 3 0 1.656 1.344 3 3 3 1.656 0 3-1.344 3-3 0-1.656-1.344-3-3-3z" fill="#729fcf"/>
</svg>
