<svg xmlns="http://www.w3.org/2000/svg" viewBox="0 0 48 48">
 <defs>
  <linearGradient id="linearGradient3764" x1="1" x2="47" gradientUnits="userSpaceOnUse" gradientTransform="matrix(0,-1,1,0,-1.5e-6,47.999998)">
   <stop style="stop-color:#405268;stop-opacity:1"/>
   <stop offset="1" style="stop-color:#475b74;stop-opacity:1"/>
  </linearGradient>
 </defs>
 <g>
  
  
  
 </g>
 <g>
  <path d="m 47,24 C 47,46.703 46.703,47 24,47 1.297,47 1,46.703 1,24 1,1.297 1.297,1 24,1 46.703,1 47,1.297 47,24 z" style="fill:url(#linearGradient3764);fill-opacity:1"/>
 </g>
 <g>
  <g>
   <g transform="translate(1,1)">
    <g style="opacity:0.1">
     <!-- color: #475b74 -->
     <g>
      <path d="m 15.332 14 l 5.336 0 c 0.734 0 1.332 0.598 1.332 1.332 l 0 5.336 c 0 0.734 -0.598 1.332 -1.332 1.332 l -5.336 0 c -0.734 0 -1.332 -0.598 -1.332 -1.332 l 0 -5.336 c 0 -0.734 0.598 -1.332 1.332 -1.332 m 0 0" style="fill:#000;fill-opacity:1;stroke:none;fill-rule:nonzero"/>
      <path d="m 27.332 26 l 5.336 0 c 0.738 0 1.332 0.598 1.332 1.332 l 0 5.336 c 0 0.738 -0.594 1.332 -1.332 1.332 l -5.336 0 c -0.734 0 -1.332 -0.594 -1.332 -1.332 l 0 -5.336 c 0 -0.734 0.598 -1.332 1.332 -1.332 m 0 0" style="fill:#000;fill-opacity:1;stroke:none;fill-rule:nonzero"/>
      <path d="m 14 24 c -1.109 0 -2 0.891 -2 2 l 0 8 c 0 1.109 0.891 2 2 2 l 8 0 c 1.109 0 2 -0.891 2 -2 l 0 -8 c 0 -1.109 -0.891 -2 -2 -2 m -8 1 l 8 0 c 0.555 0 1 0.445 1 1 l 0 8 c 0 0.555 -0.445 1 -1 1 l -8 0 c -0.555 0 -1 -0.445 -1 -1 l 0 -8 c 0 -0.555 0.445 -1 1 -1 m 0 0" style="fill:#000;fill-opacity:1;stroke:none;fill-rule:nonzero"/>
      <path d="m 15 26 l 6 0 c 0.551 0 1 0.449 1 1 l 0 6 c 0 0.551 -0.449 1 -1 1 l -6 0 c -0.551 0 -1 -0.449 -1 -1 l 0 -6 c 0 -0.551 0.449 -1 1 -1 m 0 0" style="fill:#000;fill-opacity:1;stroke:none;fill-rule:nonzero"/>
      <path d="m 26 12 c -1.109 0 -2 0.891 -2 2 l 0 8 c 0 1.109 0.891 2 2 2 l 8 0 c 1.109 0 2 -0.891 2 -2 l 0 -8 c 0 -1.109 -0.891 -2 -2 -2 m -8 1 l 8 0 c 0.555 0 1 0.445 1 1 l 0 8 c 0 0.555 -0.445 1 -1 1 l -8 0 c -0.555 0 -1 -0.445 -1 -1 l 0 -8 c 0 -0.555 0.445 -1 1 -1 m 0 0" style="fill:#000;fill-opacity:1;stroke:none;fill-rule:nonzero"/>
      <path d="m 27 14 l 6 0 c 0.551 0 1 0.449 1 1 l 0 6 c 0 0.551 -0.449 1 -1 1 l -6 0 c -0.551 0 -1 -0.449 -1 -1 l 0 -6 c 0 -0.551 0.449 -1 1 -1 m 0 0" style="fill:#000;fill-opacity:1;stroke:none;fill-rule:nonzero"/>
     </g>
    </g>
   </g>
  </g>
 </g>
 <g>
  <g>
   <!-- color: #475b74 -->
   <g>
    <path d="m 15.332 14 l 5.336 0 c 0.734 0 1.332 0.598 1.332 1.332 l 0 5.336 c 0 0.734 -0.598 1.332 -1.332 1.332 l -5.336 0 c -0.734 0 -1.332 -0.598 -1.332 -1.332 l 0 -5.336 c 0 -0.734 0.598 -1.332 1.332 -1.332 m 0 0" style="fill:#268bcf;fill-opacity:1;stroke:none;fill-rule:nonzero"/>
    <path d="m 27.332 26 l 5.336 0 c 0.738 0 1.332 0.598 1.332 1.332 l 0 5.336 c 0 0.738 -0.594 1.332 -1.332 1.332 l -5.336 0 c -0.734 0 -1.332 -0.594 -1.332 -1.332 l 0 -5.336 c 0 -0.734 0.598 -1.332 1.332 -1.332 m 0 0" style="fill:#268bcf;fill-opacity:1;stroke:none;fill-rule:nonzero"/>
    <path d="m 14 24 c -1.109 0 -2 0.891 -2 2 l 0 8 c 0 1.109 0.891 2 2 2 l 8 0 c 1.109 0 2 -0.891 2 -2 l 0 -8 c 0 -1.109 -0.891 -2 -2 -2 m -8 1 l 8 0 c 0.555 0 1 0.445 1 1 l 0 8 c 0 0.555 -0.445 1 -1 1 l -8 0 c -0.555 0 -1 -0.445 -1 -1 l 0 -8 c 0 -0.555 0.445 -1 1 -1 m 0 0" style="fill:#ffcf36;fill-opacity:1;stroke:none;fill-rule:nonzero"/>
    <path d="m 15 26 l 6 0 c 0.551 0 1 0.449 1 1 l 0 6 c 0 0.551 -0.449 1 -1 1 l -6 0 c -0.551 0 -1 -0.449 -1 -1 l 0 -6 c 0 -0.551 0.449 -1 1 -1 m 0 0" style="fill:#ffcf36;fill-opacity:1;stroke:none;fill-rule:nonzero"/>
    <path d="m 26 12 c -1.109 0 -2 0.891 -2 2 l 0 8 c 0 1.109 0.891 2 2 2 l 8 0 c 1.109 0 2 -0.891 2 -2 l 0 -8 c 0 -1.109 -0.891 -2 -2 -2 m -8 1 l 8 0 c 0.555 0 1 0.445 1 1 l 0 8 c 0 0.555 -0.445 1 -1 1 l -8 0 c -0.555 0 -1 -0.445 -1 -1 l 0 -8 c 0 -0.555 0.445 -1 1 -1 m 0 0" style="fill:#ffcf36;fill-opacity:1;stroke:none;fill-rule:nonzero"/>
    <path d="m 27 14 l 6 0 c 0.551 0 1 0.449 1 1 l 0 6 c 0 0.551 -0.449 1 -1 1 l -6 0 c -0.551 0 -1 -0.449 -1 -1 l 0 -6 c 0 -0.551 0.449 -1 1 -1 m 0 0" style="fill:#ffcf36;fill-opacity:1;stroke:none;fill-rule:nonzero"/>
   </g>
  </g>
 </g>
 <g>
  
 </g>
</svg>
