<svg xmlns="http://www.w3.org/2000/svg" viewBox="0 0 48 48">
 <defs>
  <linearGradient id="linearGradient3764" x1="1" x2="47" gradientUnits="userSpaceOnUse" gradientTransform="matrix(0,-1,1,0,-1.5e-6,47.999998)">
   <stop style="stop-color:#ea791e;stop-opacity:1"/>
   <stop offset="1" style="stop-color:#ec8430;stop-opacity:1"/>
  </linearGradient>
 </defs>
 <g>
  
  
  
 </g>
 <g>
  <path d="m 47,24 C 47,46.703 46.703,47 24,47 1.297,47 1,46.703 1,24 1,1.297 1.297,1 24,1 46.703,1 47,1.297 47,24 z" style="fill:url(#linearGradient3764);fill-opacity:1"/>
 </g>
 <g>
  <g>
   <g transform="translate(1,1)">
    <g style="opacity:0.1">
     <!-- color: #ec8430 -->
     <g>
      <path d="m 12.06 20.875 c -0.508 -3.914 2.191 -8.875 6.465 -8.875 c 12.457 0 1.441 15.05 2.465 16.12 c 1 1 2.785 -0.625 3.977 -2.441 c 1.02 -1.59 1.855 -3.277 3.727 -2.359 c 2.086 1.027 2.098 3 3.129 5.145 c 1.031 2.141 2.082 3.316 3.129 4.113 c 3.578 3.895 -2.965 4.609 -4.922 1.414 c -2.035 -2.855 -1.035 -4.867 -4.902 -0.434 c -6.129 7.652 -12.12 -4.438 -13.06 -12.684 m 0.004 0" style="fill:#000;fill-opacity:1;stroke:none;fill-rule:nonzero"/>
     </g>
    </g>
   </g>
  </g>
 </g>
 <g>
  <g>
   <!-- color: #ec8430 -->
   <g>
    <path d="m 12.06 20.875 c -0.508 -3.914 2.191 -8.875 6.465 -8.875 c 12.457 0 1.441 15.05 2.465 16.12 c 1 1 2.785 -0.625 3.977 -2.441 c 1.02 -1.59 1.855 -3.277 3.727 -2.359 c 2.086 1.027 2.098 3 3.129 5.145 c 1.031 2.141 2.082 3.316 3.129 4.113 c 3.578 3.895 -2.965 4.609 -4.922 1.414 c -2.035 -2.855 -1.035 -4.867 -4.902 -0.434 c -6.129 7.652 -12.12 -4.438 -13.06 -12.684 m 0.004 0" style="fill:#f9f9f9;fill-opacity:1;stroke:none;fill-rule:nonzero"/>
   </g>
  </g>
 </g>
 <g>
  
 </g>
</svg>
