<svg viewBox="0 0 48 48" xmlns="http://www.w3.org/2000/svg" xmlns:xlink="http://www.w3.org/1999/xlink">
  <linearGradient id="a" gradientTransform="matrix(0 -1 1 0 -.0000015 47.999998)" gradientUnits="userSpaceOnUse" x1="1" x2="47">
    <stop offset="0" stop-color="#3d3d3d"/>
    <stop offset="1" stop-color="#474747"/>
  </linearGradient>
  <path d="m47 24c0 22.703-.297 23-23 23-22.703 0-23-.297-23-23 0-22.703.297-23 23-23 22.703 0 23 .297 23 23z" fill="url(#a)"/>
  <g opacity=".1" transform="translate(1 1)">
    <path d="m19.09 12c-3.926 0-7.094 3.168-7.094 7.094v7.813c0 3.926 3.168 7.094 7.094 7.094h9.813c3.926 0 7.094-3.168 7.094-7.094v-7.813c0-3.926-3.168-7.094-7.094-7.094m-14.906 6h20v2h-20m0 2h20v2h-20m0 2h20v2h-20m0-2"/>
    <path d="m34 30h-14.996l-3 8m18-8"/>
  </g>
  <path d="m19.09 12c-3.926 0-7.094 3.168-7.094 7.094v7.813c0 3.926 3.168 7.094 7.094 7.094h9.813c3.926 0 7.094-3.168 7.094-7.094v-7.813c0-3.926-3.168-7.094-7.094-7.094m-14.906 6h20v2h-20m0 2h20v2h-20m0 2h20v2h-20m0-2" fill="#ffeb45"/>
  <path d="m34 30h-14.996l-3 8m18-8" fill="#ffeb45"/>
</svg>
