<svg viewBox="0 0 48 48" xmlns="http://www.w3.org/2000/svg" xmlns:xlink="http://www.w3.org/1999/xlink">
  <linearGradient id="a" gradientTransform="matrix(0 -1 1 0 -.0000015 47.999998)" gradientUnits="userSpaceOnUse" x1="1" x2="47">
    <stop offset="0" stop-color="#3d3d3d"/>
    <stop offset="1" stop-color="#474747"/>
  </linearGradient>
  <path d="m47 24c0 22.703-.297 23-23 23-22.703 0-23-.297-23-23 0-22.703.297-23 23-23 22.703 0 23 .297 23 23z" fill="url(#a)"/>
  <g opacity=".1" transform="translate(1 1)">
    <path d="m26.402 12h7.203c1.324 0 2.398 1.074 2.398 2.398v7.207c0 1.324-1.074 2.398-2.398 2.398h-7.203c-1.324 0-2.398-1.074-2.398-2.398v-7.207c0-1.324 1.074-2.398 2.398-2.398m0 0"/>
    <path d="m15.598 14h4.801c.883 0 1.598.715 1.598 1.598v4.801c0 .883-.715 1.598-1.598 1.598h-4.801c-.883 0-1.598-.715-1.598-1.598v-4.801c0-.883.715-1.598 1.598-1.598m0 0"/>
    <path d="m27.598 26h4.801c.883 0 1.598.715 1.598 1.598v4.801c0 .883-.715 1.598-1.598 1.598h-4.801c-.883 0-1.598-.715-1.598-1.598v-4.801c0-.883.715-1.598 1.598-1.598m0 0"/>
    <path d="m14.398 24h7.207c1.324 0 2.398 1.074 2.398 2.398v7.203c0 1.324-1.074 2.398-2.398 2.398h-7.207c-1.324 0-2.398-1.074-2.398-2.398v-7.203c0-1.324 1.074-2.398 2.398-2.398m0 0"/>
  </g>
  <path d="m26.402 12h7.203c1.324 0 2.398 1.074 2.398 2.398v7.207c0 1.324-1.074 2.398-2.398 2.398h-7.203c-1.324 0-2.398-1.074-2.398-2.398v-7.207c0-1.324 1.074-2.398 2.398-2.398m0 0" fill="#f2f27c"/>
  <path d="m15.598 14h4.801c.883 0 1.598.715 1.598 1.598v4.801c0 .883-.715 1.598-1.598 1.598h-4.801c-.883 0-1.598-.715-1.598-1.598v-4.801c0-.883.715-1.598 1.598-1.598m0 0" fill="#68b0e3"/>
  <path d="m27.598 26h4.801c.883 0 1.598.715 1.598 1.598v4.801c0 .883-.715 1.598-1.598 1.598h-4.801c-.883 0-1.598-.715-1.598-1.598v-4.801c0-.883.715-1.598 1.598-1.598m0 0" fill="#68b0e3"/>
  <path d="m14.398 24h7.207c1.324 0 2.398 1.074 2.398 2.398v7.203c0 1.324-1.074 2.398-2.398 2.398h-7.207c-1.324 0-2.398-1.074-2.398-2.398v-7.203c0-1.324 1.074-2.398 2.398-2.398m0 0" fill="#f2f27c"/>
</svg>
