<svg viewBox="0 0 48 48" xmlns="http://www.w3.org/2000/svg" xmlns:xlink="http://www.w3.org/1999/xlink">
  <linearGradient id="a" gradientTransform="matrix(0 -1 1 0 -.0000015 47.999998)" gradientUnits="userSpaceOnUse" x1="1" x2="47">
    <stop offset="0" stop-color="#e4e4e4"/>
    <stop offset="1" stop-color="#eee"/>
  </linearGradient>
  <path d="m47 24c0 22.703-.297 23-23 23-22.703 0-23-.297-23-23 0-22.703.297-23 23-23 22.703 0 23 .297 23 23z" fill="url(#a)"/>
  <path d="m25 12a4 4 0 0 0-4 4 4 4 0 0 0  2.02 3.469c-1.194 1.76-4.201 6.209-5.531 8.564a4 4 0 0 0-.489-.033 4 4 0 0 0-4 4 4 4 0 0 0  4 4 4 4 0 0 0  3.867-3h8.264a4 4 0 0 0 3.869 3 4 4 0 0 0  4-4 4 4 0 0 0-4-4 4 4 0 0 0-.486.04c-1.334-2.359-4.344-6.81-5.534-8.571a4 4 0 0 0 2.02-3.469 4 4 0 0 0-4-4m-.604 7.949a4 4 0 0 0  .604.051 4 4 0 0 0  .602-.049l5.449 8.563a4 4 0 0 0-2.051 3.486h-8a4 4 0 0 0-2.051-3.49z" opacity=".1"/>
  <path d="m16 28c .461-1.426 7-11 7-11l1 1-7 11m-1-1" fill="#36abd7"/>
  <path d="m18 31v1h12v-1m-12 0" fill="#e55858"/>
  <path d="m31.996 28c-.461-1.426-7-11-7-11l-1 1 7 11m1-1" fill="#ff9500"/>
  <circle cx="16" cy="31" fill="#e55858" r="4"/>
  <circle cx="32" cy="31" fill="#ff9500" r="4"/>
  <circle cx="24" cy="15" fill="#36abd7" r="4"/>
</svg>
