<svg xmlns="http://www.w3.org/2000/svg" viewBox="0 0 48 48">
 <defs>
  <linearGradient id="linearGradient3764" x1="1" x2="47" gradientUnits="userSpaceOnUse" gradientTransform="matrix(0,-1,1,0,-1.5e-6,47.999998)">
   <stop style="stop-color:#e4e4e4;stop-opacity:1"/>
   <stop offset="1" style="stop-color:#eee;stop-opacity:1"/>
  </linearGradient>
 </defs>
 <g>
  
  
  
 </g>
 <g>
  <path d="m 47,24 C 47,46.703 46.703,47 24,47 1.297,47 1,46.703 1,24 1,1.297 1.297,1 24,1 46.703,1 47,1.297 47,24 z" style="fill:url(#linearGradient3764);fill-opacity:1"/>
 </g>
 <g>
  <g>
   <g transform="translate(1,1)">
    <g style="opacity:0.1">
     <!-- color: #eeeeee -->
    </g>
   </g>
  </g>
 </g>
 <g>
  
 </g>
 <g>
  <g>
   <g>
    <!-- color: #eeeeee -->
    <g>
     <path d="m 25 12 a 4 4 0 0 0 -4 4 4 4 0 0 0 2.02 3.469 c -1.194 1.76 -4.201 6.209 -5.531 8.564 A 4 4 0 0 0 17 28 a 4 4 0 0 0 -4 4 4 4 0 0 0 4 4 4 4 0 0 0 3.867 -3 l 8.264 0 A 4 4 0 0 0 33 36 4 4 0 0 0 37 32 4 4 0 0 0 33 28 4 4 0 0 0 32.514 28.04 C 31.18 25.681 28.17 21.23 26.98 19.469 A 4 4 0 0 0 29 16 4 4 0 0 0 25 12 m -0.604 7.949 A 4 4 0 0 0 25 20 4 4 0 0 0 25.602 19.951 l 5.449 8.563 A 4 4 0 0 0 29 32 l -8 0 a 4 4 0 0 0 -2.051 -3.49 l 5.447 -8.561 z" style="fill:#000;opacity:0.1;fill-opacity:1;stroke:none;fill-rule:nonzero"/>
     <path d="m 16 28 c 0.461 -1.426 7 -11 7 -11 l 1 1 l -7 11 m -1 -1" style="fill:#36abd7;fill-opacity:1;stroke:none;fill-rule:nonzero"/>
     <path d="m 18 31 l 0 1 l 12 0 l 0 -1 m -12 0" style="fill:#e55858;fill-opacity:1;stroke:none;fill-rule:nonzero"/>
     <path d="m 31.996 28 c -0.461 -1.426 -7 -11 -7 -11 l -1 1 l 7 11 m 1 -1" style="fill:#ff9500;fill-opacity:1;stroke:none;fill-rule:nonzero"/>
    </g>
   </g>
  </g>
  <circle r="4" cy="31" cx="16" style="fill:#e55858;opacity:1;fill-opacity:1;stroke:none"/>
  <circle cx="32" cy="31" r="4" style="fill:#ff9500;opacity:1;fill-opacity:1;stroke:none"/>
  <circle cx="24" cy="15" r="4" style="fill:#36abd7;opacity:1;fill-opacity:1;stroke:none"/>
 </g>
</svg>
