<svg xmlns="http://www.w3.org/2000/svg" viewBox="0 0 48 48">
 <defs>
  <linearGradient id="linearGradient3764" x1="1" x2="47" gradientUnits="userSpaceOnUse" gradientTransform="matrix(0,-1,1,0,-1.5e-6,47.999998)">
   <stop style="stop-color:#875f49;stop-opacity:1"/>
   <stop offset="1" style="stop-color:#936750;stop-opacity:1"/>
  </linearGradient>
 </defs>
 <g>
  
  
  
 </g>
 <g>
  <path d="m 47,24 C 47,46.703 46.703,47 24,47 1.297,47 1,46.703 1,24 1,1.297 1.297,1 24,1 46.703,1 47,1.297 47,24 z" style="fill:url(#linearGradient3764);fill-opacity:1"/>
 </g>
 <g>
  <g>
   <g transform="translate(1,1)">
    <g style="opacity:0.1">
     <!-- color: #936750 -->
     <g>
      <path d="m 26.05,11 c -0.074,0 -0.156,0.016 -0.258,0.051 l -11.434,3.34 c -0.098,0.02 -0.09,0.043 -0.012,0.109 l 10.145,8.06 c 0.191,0.152 0.273,0.172 0.535,0.09 l 11.379,-3.922 c 0.27,-0.098 0.281,-0.117 0.02,-0.293 l -9.988,-7.27 C 26.281,11.06 26.179,11.005 26.05,11.001 m -12.412,4.042 c -0.02,0.004 -0.027,0.039 -0.039,0.105 l -2.582,12.82 c -0.027,0.133 -0.023,0.164 0.102,0.27 l 9.789,8.391 c 0.227,0.219 0.277,0.215 0.309,-0.051 l 2.852,-13 c 0.066,-0.18 0,-0.273 -0.102,-0.359 L 13.744,15.102 c -0.055,-0.043 -0.082,-0.066 -0.105,-0.063 m 23.297,4.415 c -0.023,0.004 -0.055,0.016 -0.09,0.023 l -11.691,4.04 c -0.238,0.098 -0.227,0.137 -0.27,0.313 l -2.852,12.961 c -0.008,0.191 -0.082,0.277 0.148,0.18 L 33.697,32.69 c 0.223,-0.105 0.266,-0.125 0.289,-0.34 l 2.988,-12.781 c 0.023,-0.09 0.016,-0.121 -0.047,-0.109" style="fill:#000;fill-opacity:1;stroke:none;fill-rule:nonzero"/>
     </g>
    </g>
   </g>
  </g>
 </g>
 <g transform="translate(-4.9883776e-4,0)">
  <g>
   <!-- color: #936750 -->
   <g>
    <path d="m 26.05,11 c -0.074,0 -0.156,0.016 -0.258,0.051 l -11.434,3.34 c -0.098,0.02 -0.09,0.043 -0.012,0.109 l 10.145,8.06 c 0.191,0.152 0.273,0.172 0.535,0.09 l 11.379,-3.922 c 0.27,-0.098 0.281,-0.117 0.02,-0.293 l -9.988,-7.27 C 26.281,11.06 26.179,11.005 26.05,11.001 m -12.412,4.042 c -0.02,0.004 -0.027,0.039 -0.039,0.105 l -2.582,12.82 c -0.027,0.133 -0.023,0.164 0.102,0.27 l 9.789,8.391 c 0.227,0.219 0.277,0.215 0.309,-0.051 l 2.852,-13 c 0.066,-0.18 0,-0.273 -0.102,-0.359 L 13.744,15.102 c -0.055,-0.043 -0.082,-0.066 -0.105,-0.063 m 23.297,4.415 c -0.023,0.004 -0.055,0.016 -0.09,0.023 l -11.691,4.04 c -0.238,0.098 -0.227,0.137 -0.27,0.313 l -2.852,12.961 c -0.008,0.191 -0.082,0.277 0.148,0.18 L 33.697,32.69 c 0.223,-0.105 0.266,-0.125 0.289,-0.34 l 2.988,-12.781 c 0.023,-0.09 0.016,-0.121 -0.047,-0.109" style="fill:#f9f9f9;fill-opacity:1;stroke:none;fill-rule:nonzero"/>
    <path d="m 24.736 11.979 0.002 0.002 c -0.676 0.004 -1.22 0.246 -1.314 0.641 -0.141 0.532 0.578 1.127 1.566 1.354 0.992 0.207 1.91 -0.043 2.035 -0.566 0.133 -0.532 -0.578 -1.137 -1.566 -1.352 -0.246 -0.055 -0.493 -0.078 -0.723 -0.078 z m -6.438 1.947 c -0.683 0.005 -1.217 0.242 -1.311 0.633 -0.129 0.536 0.572 1.133 1.568 1.352 0.992 0.214 1.906 -0.04 2.035 -0.563 0.129 -0.528 -0.572 -1.129 -1.568 -1.344 -0.245 -0.055 -0.496 -0.078 -0.723 -0.078 z m 9.768 0.496 c -0.683 0.005 -1.219 0.246 -1.313 0.641 -0.129 0.531 0.574 1.125 1.566 1.344 0.996 0.214 1.91 -0.035 2.039 -0.563 0.129 -0.524 -0.574 -1.125 -1.57 -1.34 -0.245 -0.055 -0.494 -0.082 -0.721 -0.082 z m -6.475 2.086 0 0.004 c -0.683 0.004 -1.218 0.242 -1.316 0.633 -0.125 0.531 0.574 1.129 1.57 1.344 0.996 0.218 1.91 -0.036 2.039 -0.559 0.129 -0.524 -0.574 -1.129 -1.57 -1.344 -0.246 -0.055 -0.496 -0.078 -0.723 -0.078 z m 9.867 0.43 c -0.685 0.005 -1.219 0.243 -1.313 0.633 -0.129 0.531 0.574 1.14 1.57 1.355 0.992 0.211 1.906 -0.043 2.035 -0.566 0.129 -0.528 -0.574 -1.129 -1.57 -1.344 -0.245 -0.055 -0.493 -0.078 -0.719 -0.078 l -0.002 0 z m -17.191 0.469 c -0.113 0.015 -0.219 0.054 -0.324 0.117 -0.555 0.367 -0.688 1.41 -0.293 2.344 0.407 0.945 1.168 1.402 1.723 1.047 0.562 -0.36 0.687 -1.403 0.289 -2.344 -0.293 -0.703 -0.801 -1.137 -1.27 -1.16 -0.039 -0.004 -0.082 -0.004 -0.121 0 z m 10.703 1.691 0.004 0.004 c -0.687 0.004 -1.214 0.242 -1.316 0.637 -0.129 0.524 0.574 1.125 1.57 1.34 0.996 0.211 1.91 -0.039 2.035 -0.559 0.129 -0.531 -0.574 -1.125 -1.57 -1.344 -0.246 -0.058 -0.496 -0.078 -0.723 -0.078 z m 10.06 2.467 c -0.328 -0.003 -0.722 0.142 -1.113 0.439 -0.777 0.598 -1.215 1.575 -0.988 2.188 0.226 0.613 1.039 0.629 1.816 0.031 0.777 -0.594 1.215 -1.576 0.988 -2.189 -0.113 -0.305 -0.371 -0.465 -0.703 -0.469 z m -14.168 1.117 -0.008 0.004 c -0.031 -0.004 -0.059 0 -0.09 0.004 -0.113 0.016 -0.226 0.055 -0.328 0.121 -0.551 0.359 -0.687 1.398 -0.289 2.336 0.395 0.934 1.164 1.406 1.723 1.047 0.555 -0.356 0.683 -1.406 0.285 -2.34 -0.301 -0.715 -0.816 -1.16 -1.293 -1.172 z m -4.176 1.5 -0.004 0.004 c -0.035 -0.004 -0.063 0 -0.094 0.004 -0.113 0.016 -0.222 0.055 -0.324 0.121 -0.555 0.356 -0.688 1.398 -0.293 2.336 0.399 0.934 1.168 1.406 1.723 1.047 0.555 -0.36 0.684 -1.406 0.289 -2.344 -0.305 -0.711 -0.82 -1.156 -1.297 -1.168 z m -4.113 1.48 c -0.113 0.016 -0.222 0.055 -0.324 0.121 -0.555 0.36 -0.687 1.406 -0.289 2.344 0.395 0.934 1.164 1.402 1.719 1.043 0.559 -0.355 0.684 -1.398 0.289 -2.332 -0.297 -0.703 -0.801 -1.145 -1.27 -1.172 -0.039 -0.004 -0.082 -0.004 -0.121 0 z m 18.07 1.246 c -0.042 -0.003 -0.087 0 -0.137 0.004 -0.304 0.032 -0.648 0.172 -0.988 0.434 -0.777 0.598 -1.219 1.575 -0.992 2.188 0.226 0.613 1.043 0.625 1.816 0.031 0.777 -0.594 1.219 -1.575 0.992 -2.188 -0.113 -0.3 -0.365 -0.46 -0.688 -0.469 z m -11.676 4.145 c -0.113 0.016 -0.223 0.055 -0.328 0.121 -0.555 0.356 -0.683 1.402 -0.285 2.34 0.395 0.938 1.156 1.402 1.715 1.047 0.551 -0.364 0.687 -1.406 0.289 -2.344 -0.293 -0.699 -0.805 -1.14 -1.27 -1.16 -0.039 -0.004 -0.082 -0.004 -0.121 0 z m 6.914 1.348 c -0.328 -0.003 -0.726 0.141 -1.113 0.438 -0.777 0.598 -1.218 1.575 -0.988 2.188 0.226 0.609 1.039 0.621 1.816 0.023 0.777 -0.594 1.215 -1.575 0.988 -2.184 -0.113 -0.309 -0.371 -0.461 -0.703 -0.465 z" transform="translate(4.9883776e-4,0)" style="fill:#2d2d2d;fill-opacity:1;stroke:none;fill-rule:nonzero"/>
   </g>
  </g>
 </g>
 <g>
  
 </g>
</svg>
