<svg xmlns="http://www.w3.org/2000/svg" viewBox="0 0 48 48">
 <defs>
  <linearGradient id="linearGradient3764" x1="1" x2="47" gradientUnits="userSpaceOnUse" gradientTransform="matrix(0,-1,1,0,-1.5e-6,47.999998)">
   <stop style="stop-color:#2a8f19;stop-opacity:1"/>
   <stop offset="1" style="stop-color:#2e9f1c;stop-opacity:1"/>
  </linearGradient>
 </defs>
 <g>
  
  
  
 </g>
 <g>
  <path d="m 47,24 C 47,46.703 46.703,47 24,47 1.297,47 1,46.703 1,24 1,1.297 1.297,1 24,1 46.703,1 47,1.297 47,24 z" style="fill:url(#linearGradient3764);fill-opacity:1"/>
 </g>
 <g>
  <g>
   <g transform="translate(1,1)">
    <g style="opacity:0.1">
     <!-- color: #2e9f1c -->
     <g>
      <path d="m 24 13 c 0 0 6.992 0.137 7 5 l 0 4 c 0 0 2 -0.102 2 1 l 0 10.25 c 0 0.926 -0.918 1.75 -1.93 1.75 l -14.14 0 c -1.01 0 -1.926 -0.824 -1.926 -1.75 l 0 -10.25 c 0 -1.102 2 -1 2 -1 l 0 -4 c 0.051 -4.871 7 -5 7 -5 m -0.004 3 c 0 0 -4 -0.152 -4 3.5 l 0 2.5 l 8 0 l 0 -2.5 c 0 -3.652 -4 -3.5 -4 -3.5 m 0 0" style="fill:#000;fill-opacity:1;stroke:none;fill-rule:nonzero"/>
     </g>
    </g>
   </g>
  </g>
 </g>
 <g>
  <g>
   <!-- color: #2e9f1c -->
   <g>
    <path d="m 24 13 c 0 0 6.992 0.137 7 5 l 0 4 c 0 0 2 -0.102 2 1 l 0 10.25 c 0 0.926 -0.918 1.75 -1.93 1.75 l -14.14 0 c -1.01 0 -1.926 -0.824 -1.926 -1.75 l 0 -10.25 c 0 -1.102 2 -1 2 -1 l 0 -4 c 0.051 -4.871 7 -5 7 -5 m -0.004 3 c 0 0 -4 -0.152 -4 3.5 l 0 2.5 l 8 0 l 0 -2.5 c 0 -3.652 -4 -3.5 -4 -3.5 m 0 0" style="fill:#fff;fill-opacity:1;stroke:none;fill-rule:nonzero"/>
   </g>
  </g>
 </g>
 <g>
  
 </g>
</svg>
