<svg viewBox="0 0 48 48" xmlns="http://www.w3.org/2000/svg" xmlns:xlink="http://www.w3.org/1999/xlink">
  <linearGradient id="a" gradientUnits="userSpaceOnUse" x2="0" y1="48" y2="0">
    <stop offset="0" stop-color="#555"/>
    <stop offset="1" stop-color="#5f5f5f"/>
  </linearGradient>
  <path d="m24 1c22.703 0 23 .297 23 23 0 22.703-.297 23-23 23-22.703 0-23-.297-23-23 0-22.703.297-23 23-23z" fill="url(#a)"/>
  <path d="m25 12c-7.181 0-13 5.819-13 13 0 7.181 5.819 13 13 13 2.785 0 5.359-.883 7.475-2.373l1.525 1.373c.245.22.671.151.949-.158l3.01-3.342c.277-.308.301-.738.055-.957l-1.555-1.402c.982-1.829 1.541-3.919 1.541-6.141 0-3.01-1.03-5.796-2.75-8l2.75-2.688-2-2.031-2.656 2.75c-2.257-1.888-5.17-3.03-8.344-3.03v-.002z" opacity=".1" transform=""/>
  <g transform="translate(0 1)">
    <path d="m29.433 31.79l3.567 3.21c.245.22.671.151.949-.158l3.01-3.342c.277-.308.301-.739.055-.958l-3.566-3.214c-.249-.221-.671-.151-.949.158l-3.01 3.342c-.277.308-.305.738-.056.962m0 0" fill="#949698"/>
    <path d="m37 23c0 7.181-5.819 13-13 13-7.181 0-13-5.819-13-13 0-7.181 5.819-13 13-13 7.181 0 13 5.819 13 13m0 0" fill="#949698"/>
    <path d="m35 23c0 6.075-4.925 11-11 11-6.075 0-11-4.925-11-11 0-6.075 4.925-11 11-11 6.075 0 11 4.925 11 11m0 0" fill="#ebebeb"/>
  </g>
  <rect fill="#b6b6b6" height="2" rx=".3" width="4" x="14" y="23"/>
  <rect fill="#b6b6b6" height="2" rx=".3" width="4" x="30" y="23"/>
  <rect fill="#b6b6b6" height="2" rx=".3" transform="rotate(90)" width="4" x="14" y="-25"/>
  <rect fill="#b6b6b6" height="2" rx=".3" transform="rotate(90)" width="4" x="30" y="-25"/>
  <path d="m33.375 15l-7.656 7.937c-.23-.081-.461-.125-.719-.125-.258 0-.489.044-.719.125l-4.781-4.875-1.75 1.75 5.063 5.03c-.004.053 0 .102 0 .156 0 1.215.972 2.188 2.188 2.188 1.215 0 2.188-.972 2.188-2.188 0-.043.003-.082 0-.125l7.875-7.688c-.486-.788-1.05-1.523-1.688-2.187z" fill-opacity=".098"/>
  <path d="m35 11.278125l-11 11.371875-5.5-5.6-1.75 1.75 7.25 7.2 13-12.7z" fill="#5fd35f"/>
  <path d="m25.625 23.797a1.313 1.797 0 1 1-2.625 0 1.313 1.797 0 1 1  2.625 0z" fill="#949698" transform="matrix(1.6761905 0 0 1.2243478 -16.752382 -5.1356515)"/>
</svg>
