<svg viewBox="0 0 48 48" xmlns="http://www.w3.org/2000/svg" xmlns:xlink="http://www.w3.org/1999/xlink">
  <linearGradient id="a" gradientTransform="matrix(0 -1 1 0 -.0000015 47.999998)" gradientUnits="userSpaceOnUse" x1="1" x2="47">
    <stop offset="0" stop-color="#bebebe"/>
    <stop offset="1" stop-color="#c8c8c8"/>
  </linearGradient>
  <path d="m47 24c0 22.703-.297 23-23 23-22.703 0-23-.297-23-23 0-22.703.297-23 23-23 22.703 0 23 .297 23 23z" fill="url(#a)"/>
  <path d="m22.5 10.998c-4 0-5.635 4.76-3.412 7.494.477.586.986 1.314.602 2.094-1.189 2.414-4.689 1.414-4.689 5.414h9.439c-1.364 1.894-4.439 1.25-4.439 5h15c0-4-3.5-3-4.689-5.414-.384-.78.225-1.439.602-2.094 2.292-3.977.588-7.494-3.412-7.494-.229 0-.449.021-.662.051.526-2.868-1.189-5.05-4.338-5.05zm-3.496 23l-4 1.496 4 1.5 15.434-.002c0 0 .564-.241.564-1.494 0-1.209-.635-1.5-.635-1.5h-15.361z" opacity=".1" transform=""/>
  <g transform="translate(0 1.000001)">
    <path d="m31.04 34.997c.965.003.965-2.997-.07-2.994h-12.961c-1 .997-1 1.997 0 2.997" fill="#d05c48"/>
    <path d="m18 32l-4 1.499 4 1.499" fill="#e1d09b"/>
    <path d="m16 32.752l-2 .745 2 .754" fill="#323232"/>
    <path d="m31 32v2.992h2.438c0 0 .563-.241.563-1.494 0-1.209-.633-1.498-.633-1.498h-2.367z" fill="#e36767"/>
  </g>
  <path d="m18.087 17.495c.477.586.986 1.312.602 2.092-1.189 2.414-4.689 1.414-4.689 5.414h15c0-4-3.5-3-4.689-5.414-.384-.78.225-1.437.602-2.092 2.292-3.977.587-7.495-3.413-7.495-4 0-5.636 4.761-3.413 7.495z" fill="#373737"/>
  <path d="m23.087 22.495c.477.586.986 1.312.602 2.092-1.189 2.414-4.689 1.414-4.689 5.414h15c0-4-3.5-3-4.689-5.414-.384-.78.225-1.437.602-2.092 2.292-3.977.587-7.495-3.413-7.495-4 0-5.636 4.761-3.413 7.495z" fill="#f2f2f2"/>
</svg>
