<svg xmlns="http://www.w3.org/2000/svg" viewBox="0 0 48 48">
 <defs>
  <linearGradient id="linearGradient3764" x1="1" x2="47" gradientUnits="userSpaceOnUse" gradientTransform="matrix(0,-1,1,0,-1.5e-6,47.999998)">
   <stop style="stop-color:#bebebe;stop-opacity:1"/>
   <stop offset="1" style="stop-color:#c8c8c8;stop-opacity:1"/>
  </linearGradient>
 </defs>
 <g>
  
  
  
 </g>
 <g>
  <path d="m 47,24 C 47,46.703 46.703,47 24,47 1.297,47 1,46.703 1,24 1,1.297 1.297,1 24,1 46.703,1 47,1.297 47,24 z" style="fill:url(#linearGradient3764);fill-opacity:1"/>
 </g>
 <g>
  
 </g>
 <g transform="translate(0,-1)">
  <path d="m 22.5 10.998 c -4 0 -5.635 4.76 -3.412 7.494 c 0.477 0.586 0.986 1.314 0.602 2.094 c -1.189 2.414 -4.689 1.414 -4.689 5.414 l 9.439 0 c -1.364 1.894 -4.439 1.25 -4.439 5 l 15 0 c 0 -4 -3.5 -3 -4.689 -5.414 c -0.384 -0.78 0.225 -1.439 0.602 -2.094 c 2.292 -3.977 0.588 -7.494 -3.412 -7.494 c -0.229 0 -0.449 0.021 -0.662 0.051 c 0.526 -2.868 -1.189 -5.05 -4.338 -5.05 z m -3.496 23 l -4 1.496 l 4 1.5 l 15.434 -0.002 c 0 0 0.564 -0.241 0.564 -1.494 c 0 -1.209 -0.635 -1.5 -0.635 -1.5 l -15.361 0 l -0.002 0 z" transform="translate(0,1)" style="fill:#000;opacity:0.1;fill-opacity:1;stroke:none;fill-rule:nonzero"/>
 </g>
 <g>
  <g transform="translate(0,-1)">
   <g transform="translate(0,2.000001)">
    <path d="m 31.04 34.997 c 0.965 0.003 0.965 -2.997 -0.07 -2.994 l -12.961 0 c -1 0.997 -1 1.997 0 2.997" style="fill:#d05c48;fill-opacity:1;stroke:none;fill-rule:nonzero"/>
    <path d="m 18 32 -4 1.499 4 1.499" style="fill:#e1d09b;fill-opacity:1;stroke:none;fill-rule:nonzero"/>
    <path d="m 16 32.752 -2 0.745 2 0.754" style="fill:#323232;fill-opacity:1;stroke:none;fill-rule:nonzero"/>
    <path d="m 31 32 0 2.992 2.438 0 c 0 0 0.563 -0.241 0.563 -1.494 0 -1.209 -0.633 -1.498 -0.633 -1.498 l -2.367 0 z" style="fill:#e36767;fill-opacity:1;stroke:none;fill-rule:nonzero"/>
   </g>
  </g>
  <path d="m 18.087,17.495 c 0.477,0.586 0.986,1.312 0.602,2.092 C 17.5,22.001 14,21.001 14,25.001 l 15,0 c 0,-4 -3.5,-3 -4.689,-5.414 -0.384,-0.78 0.225,-1.437 0.602,-2.092 C 27.205,13.518 25.5,10 21.5,10 c -4,0 -5.636,4.761 -3.413,7.495 z" style="fill:#373737;fill-opacity:1"/>
  <path d="m 23.087,22.495 c 0.477,0.586 0.986,1.312 0.602,2.092 C 22.5,27.001 19,26.001 19,30.001 l 15,0 c 0,-4 -3.5,-3 -4.689,-5.414 -0.384,-0.78 0.225,-1.437 0.602,-2.092 C 32.205,18.518 30.5,15 26.5,15 c -4,0 -5.636,4.761 -3.413,7.495 z" style="fill:#f2f2f2;fill-opacity:1"/>
 </g>
</svg>
