<svg viewBox="0 0 48 48" xmlns="http://www.w3.org/2000/svg" xmlns:xlink="http://www.w3.org/1999/xlink">
  <linearGradient id="a" gradientTransform="matrix(0 -1 1 0 -.0000015 47.999998)" gradientUnits="userSpaceOnUse" x1="1" x2="47">
    <stop offset="0" stop-color="#e4e4e4"/>
    <stop offset="1" stop-color="#eee"/>
  </linearGradient>
  <path d="m47 24c0 22.703-.297 23-23 23-22.703 0-23-.297-23-23 0-22.703.297-23 23-23 22.703 0 23 .297 23 23z" fill="url(#a)"/>
  <path d="m22.5 13.999l-2.969 1 .469 3-2.563 1.406-1.438-1.406-3 3 2 2v5.438l.5.031v1.625l2 .781v-1.719c1.485.323 2.154.463 3 .531v1.563l2 .594v-1.844h2.5 2.5v1.844l2-.594v-1.563c.846-.068 1.515-.208 3-.531v1.719l2-.781v-1.625l.5-.031v-5.438l2-2-3-3-1.438 1.406-2.563-1.406.469-3-2.969-1-1.125 2h-1.375-1.375l-1.125-2zm-3 9c1.381 0 2.5 1.119 2.5 2.5 0 1.381-1.119 2.5-2.5 2.5-1.381 0-2.5-1.119-2.5-2.5 0-1.381 1.119-2.5 2.5-2.5zm11 0c1.381 0 2.5 1.119 2.5 2.5 0 1.381-1.119 2.5-2.5 2.5-1.381 0-2.5-1.119-2.5-2.5 0-1.381 1.119-2.5 2.5-2.5zm-11 1c-.828 0-1.5.672-1.5 1.5 0 .828.672 1.5 1.5 1.5.828 0 1.5-.672 1.5-1.5 0-.828-.672-1.5-1.5-1.5zm11 0c-.828 0-1.5.672-1.5 1.5 0 .828.672 1.5 1.5 1.5.828 0 1.5-.672 1.5-1.5 0-.828-.672-1.5-1.5-1.5zm-5.5 1c .554 0 1 .446 1 1v2c0 .554-.446 1-1 1-.554 0-1-.446-1-1v-2c0-.554.446-1 1-1zm-11.688 3.5l.031 2c2.416 3.691 6.06 5.861 11.656 5.625 5.599.236 9.24-1.934 11.656-5.625l.031-2-1.688.531v1.469c-.489.315-2 .728-3 1v-1.625l-2 .313v1.313c-.566.478-1.621.793-3 1v-2h-2-2v2c-1.379-.207-2.434-.522-3-1v-1.313l-2-.313v1.625c-1-.272-2.511-.685-3-1v-1.469l-1.688-.531z" opacity=".1"/>
  <path d="m12.313 27.5l.031 2c2.416 3.691 6.06 5.861 11.656 5.625 5.599.236 9.24-1.934 11.656-5.625l.031-2-1.688.531v1.469c-.489.315-2 .728-3 1v-1.625l-2 .313v1.313c-.566.478-1.621.793-3 1v-2h-2-2v2c-1.379-.207-2.434-.522-3-1v-1.313l-2-.313v1.625c-1-.272-2.511-.685-3-1v-1.469l-1.688-.531z" fill="#478cbf"/>
  <path d="m21 25a2 2 0 1 1-4 0 2 2 0 1 1  4 0z" fill="#353535" transform="matrix(.75 0 0 .75 4.25 5.75)"/>
  <path d="m21.5 13l-2.969 1 .469 3-2.563 1.406-1.438-1.406-3 3 2 2v5.438l.5.031v1.625l2 .781v-1.719c1.485.323 2.154.463 3 .531v1.563l2 .594v-1.844h2.5 2.5v1.844l2-.594v-1.563c.846-.068 1.515-.208 3-.531v1.719l2-.781v-1.625l.5-.031v-5.438l2-2-3-3-1.438 1.406-2.563-1.406.469-3-2.969-1-1.125 2h-1.375-1.375l-1.125-2zm-3 9c1.381 0 2.5 1.119 2.5 2.5 0 1.381-1.119 2.5-2.5 2.5-1.381 0-2.5-1.119-2.5-2.5 0-1.381 1.119-2.5 2.5-2.5zm11 0c1.381 0 2.5 1.119 2.5 2.5 0 1.381-1.119 2.5-2.5 2.5-1.381 0-2.5-1.119-2.5-2.5 0-1.381 1.119-2.5 2.5-2.5zm-5.5 2c .554 0 1 .446 1 1v2c0 .554-.446 1-1 1-.554 0-1-.446-1-1v-2c0-.554.446-1 1-1z" fill="#478cbf"/>
  <path d="m21 25a2 2 0 1 1-4 0 2 2 0 1 1  4 0z" fill="#353535" transform="matrix(.75 0 0 .75 15.25 5.75)"/>
</svg>
