<svg xmlns="http://www.w3.org/2000/svg" viewBox="0 0 48 48">
 <defs>
  <linearGradient id="linearGradient3764" x1="1" x2="47" gradientUnits="userSpaceOnUse" gradientTransform="matrix(0,-1,1,0,-1.5e-6,47.999998)">
   <stop style="stop-color:#e4e4e4;stop-opacity:1"/>
   <stop offset="1" style="stop-color:#eee;stop-opacity:1"/>
  </linearGradient>
 </defs>
 <g>
  
  
  
 </g>
 <g>
  <path d="m 47,24 C 47,46.703 46.703,47 24,47 1.297,47 1,46.703 1,24 1,1.297 1.297,1 24,1 46.703,1 47,1.297 47,24 z" style="fill:url(#linearGradient3764);fill-opacity:1"/>
 </g>
 <path d="m 22.5 13.999 -2.969 1 0.469 3 -2.563 1.406 l -1.438 -1.406 l -3 3 2 2 0 5.438 0.5 0.031 0 1.625 2 0.781 0 -1.719 c 1.485 0.323 2.154 0.463 3 0.531 l 0 1.563 2 0.594 0 -1.844 2.5 0 2.5 0 0 1.844 2 -0.594 0 -1.563 c 0.846 -0.068 1.515 -0.208 3 -0.531 l 0 1.719 2 -0.781 0 -1.625 0.5 -0.031 0 -5.438 2 -2 -3 -3 -1.438 1.406 l -2.563 -1.406 l 0.469 -3 -2.969 -1 -1.125 2 -1.375 0 -1.375 0 -1.125 -2 z m -3 9 c 1.381 0 2.5 1.119 2.5 2.5 0 1.381 -1.119 2.5 -2.5 2.5 -1.381 0 -2.5 -1.119 -2.5 -2.5 0 -1.381 1.119 -2.5 2.5 -2.5 z m 11 0 c 1.381 0 2.5 1.119 2.5 2.5 0 1.381 -1.119 2.5 -2.5 2.5 -1.381 0 -2.5 -1.119 -2.5 -2.5 0 -1.381 1.119 -2.5 2.5 -2.5 z m -11 1 c -0.828 0 -1.5 0.672 -1.5 1.5 0 0.828 0.672 1.5 1.5 1.5 0.828 0 1.5 -0.672 1.5 -1.5 0 -0.828 -0.672 -1.5 -1.5 -1.5 z m 11 0 c -0.828 0 -1.5 0.672 -1.5 1.5 0 0.828 0.672 1.5 1.5 1.5 0.828 0 1.5 -0.672 1.5 -1.5 0 -0.828 -0.672 -1.5 -1.5 -1.5 z m -5.5 1 c 0.554 0 1 0.446 1 1 l 0 2 c 0 0.554 -0.446 1 -1 1 -0.554 0 -1 -0.446 -1 -1 l 0 -2 c 0 -0.554 0.446 -1 1 -1 z m -11.688 3.5 0.031 2 c 2.416 3.691 6.06 5.861 11.656 5.625 5.599 0.236 9.24 -1.934 11.656 -5.625 l 0.031 -2 l -1.688 0.531 0 1.469 c -0.489 0.315 -2 0.728 -3 1 l 0 -1.625 -2 0.313 0 1.313 c -0.566 0.478 -1.621 0.793 -3 1 l 0 -2 -2 0 -2 0 0 2 c -1.379 -0.207 -2.434 -0.522 -3 -1 l 0 -1.313 -2 -0.313 0 1.625 c -1 -0.272 -2.511 -0.685 -3 -1 l 0 -1.469 -1.688 -0.531 z" style="fill:#000;opacity:0.1;fill-opacity:1;stroke:none"/>
 <g>
  
 </g>
 <path d="m 12.313 27.5 l 0.031 2 c 2.416 3.691 6.06 5.861 11.656 5.625 c 5.599 0.236 9.24 -1.934 11.656 -5.625 l 0.031 -2 l -1.688 0.531 l 0 1.469 c -0.489 0.315 -2 0.728 -3 1 l 0 -1.625 l -2 0.313 l 0 1.313 c -0.566 0.478 -1.621 0.793 -3 1 l 0 -2 l -2 0 l -2 0 l 0 2 c -1.379 -0.207 -2.434 -0.522 -3 -1 l 0 -1.313 l -2 -0.313 l 0 1.625 c -1 -0.272 -2.511 -0.685 -3 -1 l 0 -1.469 l -1.688 -0.531 z" style="fill:#478cbf;fill-opacity:1;stroke:none"/>
 <path d="m 21 25 a 2 2 0 1 1 -4 0 2 2 0 1 1 4 0 z" transform="matrix(0.75,0,0,0.75,4.25,5.75)" style="fill:#353535;fill-opacity:1;stroke:none;fill-rule:nonzero"/>
 <path d="m 21.5 13 l -2.969 1 l 0.469 3 l -2.563 1.406 l -1.438 -1.406 l -3 3 l 2 2 l 0 5.438 l 0.5 0.031 l 0 1.625 l 2 0.781 l 0 -1.719 c 1.485 0.323 2.154 0.463 3 0.531 l 0 1.563 l 2 0.594 l 0 -1.844 l 2.5 0 l 2.5 0 l 0 1.844 l 2 -0.594 l 0 -1.563 c 0.846 -0.068 1.515 -0.208 3 -0.531 l 0 1.719 l 2 -0.781 l 0 -1.625 l 0.5 -0.031 l 0 -5.438 l 2 -2 l -3 -3 l -1.438 1.406 l -2.563 -1.406 l 0.469 -3 l -2.969 -1 l -1.125 2 l -1.375 0 l -1.375 0 l -1.125 -2 z m -3 9 c 1.381 0 2.5 1.119 2.5 2.5 c 0 1.381 -1.119 2.5 -2.5 2.5 c -1.381 0 -2.5 -1.119 -2.5 -2.5 c 0 -1.381 1.119 -2.5 2.5 -2.5 z m 11 0 c 1.381 0 2.5 1.119 2.5 2.5 c 0 1.381 -1.119 2.5 -2.5 2.5 c -1.381 0 -2.5 -1.119 -2.5 -2.5 c 0 -1.381 1.119 -2.5 2.5 -2.5 z m -5.5 2 c 0.554 0 1 0.446 1 1 l 0 2 c 0 0.554 -0.446 1 -1 1 c -0.554 0 -1 -0.446 -1 -1 l 0 -2 c 0 -0.554 0.446 -1 1 -1 z" style="fill:#478cbf;fill-opacity:1;stroke:none"/>
 <path d="m 21 25 a 2 2 0 1 1 -4 0 2 2 0 1 1 4 0 z" transform="matrix(0.75,0,0,0.75,15.25,5.75)" style="fill:#353535;fill-opacity:1;stroke:none;fill-rule:nonzero"/>
</svg>
