<svg xmlns="http://www.w3.org/2000/svg" viewBox="0 0 48 48">
 <defs>
  <linearGradient id="linearGradient3764" x1="1" x2="47" gradientUnits="userSpaceOnUse" gradientTransform="matrix(0,-1,1,0,-1.5e-6,47.999998)">
   <stop style="stop-color:#f9bd5f;stop-opacity:1"/>
   <stop offset="1" style="stop-color:#fac773;stop-opacity:1"/>
  </linearGradient>
 </defs>
 <g>
  
  
  
 </g>
 <g>
  <path d="m 47,24 C 47,46.703 46.703,47 24,47 1.297,47 1,46.703 1,24 1,1.297 1.297,1 24,1 46.703,1 47,1.297 47,24 z" style="fill:url(#linearGradient3764);fill-opacity:1"/>
 </g>
 <g>
  <g>
   <g transform="translate(1,1)">
    <g style="opacity:0.1">
     <!-- color: #fac773 -->
     <g>
      <path d="m 25.996 37 l 0 -18 l -4 0 l 0 18 m -1 -19 l -9 -5 l 0 17 l 9 6 m 15 -6 l 0 -17 l -9 5 l 0 18 m 7 -23 c -4 0 -6 0.52 -10 4 c -4 -3.395 -6 -4 -10 -4 l 8 5 l 4 0 m 8 -5" style="fill:#000;fill-opacity:1;stroke:none;fill-rule:nonzero"/>
     </g>
    </g>
   </g>
  </g>
 </g>
 <g>
  <g>
   <!-- color: #fac773 -->
   <g>
    <path d="m 25.996 37 l 0 -18 l -4 0 l 0 18 m -1 -19 l -9 -5 l 0 17 l 9 6 m 15 -6 l 0 -17 l -9 5 l 0 18 m 7 -23 c -4 0 -6 0.52 -10 4 c -4 -3.395 -6 -4 -10 -4 l 8 5 l 4 0 m 8 -5" style="fill:#7f4b45;fill-opacity:1;stroke:none;fill-rule:nonzero"/>
   </g>
  </g>
 </g>
 <g>
  
 </g>
</svg>
