<svg viewBox="0 0 48 48" xmlns="http://www.w3.org/2000/svg" xmlns:xlink="http://www.w3.org/1999/xlink">
  <linearGradient id="a" gradientTransform="matrix(0 -1 1 0 -.0000015 47.999998)" gradientUnits="userSpaceOnUse" x1="1" x2="47">
    <stop offset="0" stop-color="#f9bd5f"/>
    <stop offset="1" stop-color="#fac773"/>
  </linearGradient>
  <path d="m47 24c0 22.703-.297 23-23 23-22.703 0-23-.297-23-23 0-22.703.297-23 23-23 22.703 0 23 .297 23 23z" fill="url(#a)"/>
  <path d="m25.996 37v-18h-4v18m-1-19l-9-5v17l9 6m15-6v-17l-9 5v18m7-23c-4 0-6 .52-10 4-4-3.395-6-4-10-4l8 5h4m8-5" opacity=".1" transform="translate(1 1)"/>
  <path d="m25.996 37v-18h-4v18m-1-19l-9-5v17l9 6m15-6v-17l-9 5v18m7-23c-4 0-6 .52-10 4-4-3.395-6-4-10-4l8 5h4m8-5" fill="#7f4b45"/>
</svg>
