<svg viewBox="0 0 48 48" xmlns="http://www.w3.org/2000/svg" xmlns:xlink="http://www.w3.org/1999/xlink">
  <linearGradient id="a" gradientTransform="matrix(0 -1 1 0 -.0000015 47.999998)" gradientUnits="userSpaceOnUse" x1="1" x2="47">
    <stop offset="0" stop-color="#dcd628"/>
    <stop offset="1" stop-color="#dfd838"/>
  </linearGradient>
  <path d="m47 24c0 22.703-.297 23-23 23-22.703 0-23-.297-23-23 0-22.703.297-23 23-23 22.703 0 23 .297 23 23z" fill="url(#a)"/>
  <g opacity=".1" transform="translate(1 1)">
    <path d="m12 12h2v2h-2m0-2"/>
    <path d="m15 12h1.996v2h-1.996m0-2"/>
    <path d="m18 12h2v2h-2m0-2"/>
    <path d="m21 12h2v2h-2m0-2"/>
    <path d="m12 15h2v1.996h-2m0-1.996"/>
    <path d="m15 15h1.996v1.996h-1.996m0-1.996"/>
    <path d="m18 15h2v1.996h-2m0-1.996"/>
    <path d="m21 15h2v1.996h-2m0-1.996"/>
    <path d="m24 12h1.996v2h-1.996m0-2"/>
    <path d="m24 15h1.996v1.996h-1.996m0-1.996"/>
    <path d="m22 31h2v2h-2m0-2"/>
    <path d="m25.02 31h2v2h-2m0-2"/>
    <path d="m28 31h1.996v2h-1.996m0-2"/>
    <path d="m31 31h2v2h-2m0-2"/>
    <path d="m22 34h2v2h-2m0-2"/>
    <path d="m25.02 34h2v2h-2m0-2"/>
    <path d="m28 34h1.996v2h-1.996m0-2"/>
    <path d="m31 34h2v2h-2m0-2"/>
    <path d="m34 31h2v2h-2m0-2"/>
    <path d="m34 34h2v2h-2m0-2"/>
    <path d="m12 31h2v2h-2m0-2"/>
    <path d="m15 31h1.996v2h-1.996m0-2"/>
    <path d="m12 34h2v2h-2m0-2"/>
    <path d="m15 34h1.996v2h-1.996m0-2"/>
    <path d="m12 25.02h2v2h-2m0-2"/>
    <path d="m15 25.02h1.996v2h-1.996m0-2"/>
    <path d="m12 28h2v1.996h-2m0-1.996"/>
    <path d="m15 28h1.996v1.996h-1.996m0-1.996"/>
    <path d="m12 22h2v2h-2m0-2"/>
    <path d="m15 22h1.996v2h-1.996m0-2"/>
    <path d="m31 21h2v2h-2m0-2"/>
    <path d="m34 21h2v2h-2m0-2"/>
    <path d="m31 24h2v1.996h-2m0-1.996"/>
    <path d="m34 24h2v1.996h-2m0-1.996"/>
    <path d="m31 15h2v1.996h-2m0-1.996"/>
    <path d="m34 15h2v1.996h-2m0-1.996"/>
    <path d="m31 18h2v2h-2m0-2"/>
    <path d="m34 18h2v2h-2m0-2"/>
    <path d="m31 12h2v2h-2m0-2"/>
    <path d="m34 12h2v2h-2m0-2"/>
  </g>
  <path d="m12 12h2v2h-2m0-2" fill="#3378a3"/>
  <path d="m15 12h1.996v2h-1.996m0-2" fill="#3378a3"/>
  <path d="m18 12h2v2h-2m0-2" fill="#3378a3"/>
  <path d="m21 12h2v2h-2m0-2" fill="#3378a3"/>
  <path d="m12 15h2v1.996h-2m0-1.996" fill="#3378a3"/>
  <path d="m15 15h1.996v1.996h-1.996m0-1.996" fill="#3378a3"/>
  <path d="m18 15h2v1.996h-2m0-1.996" fill="#3378a3"/>
  <path d="m21 15h2v1.996h-2m0-1.996" fill="#3378a3"/>
  <path d="m24 12h1.996v2h-1.996m0-2" fill="#3378a3"/>
  <path d="m24 15h1.996v1.996h-1.996m0-1.996" fill="#3378a3"/>
  <path d="m22 31h2v2h-2m0-2" fill="#3378a3"/>
  <path d="m25.02 31h2v2h-2m0-2" fill="#3378a3"/>
  <path d="m28 31h1.996v2h-1.996m0-2" fill="#3378a3"/>
  <path d="m31 31h2v2h-2m0-2" fill="#3378a3"/>
  <path d="m22 34h2v2h-2m0-2" fill="#3378a3"/>
  <path d="m25.02 34h2v2h-2m0-2" fill="#3378a3"/>
  <path d="m28 34h1.996v2h-1.996m0-2" fill="#3378a3"/>
  <path d="m31 34h2v2h-2m0-2" fill="#3378a3"/>
  <path d="m34 31h2v2h-2m0-2" fill="#3378a3"/>
  <path d="m34 34h2v2h-2m0-2" fill="#3378a3"/>
  <path d="m12 31h2v2h-2m0-2" fill="#3378a3"/>
  <path d="m15 31h1.996v2h-1.996m0-2" fill="#3378a3"/>
  <path d="m12 34h2v2h-2m0-2" fill="#3378a3"/>
  <path d="m15 34h1.996v2h-1.996m0-2" fill="#3378a3"/>
  <path d="m12 25.02h2v2h-2m0-2" fill="#3378a3"/>
  <path d="m15 25.02h1.996v2h-1.996m0-2" fill="#3378a3"/>
  <path d="m12 28h2v1.996h-2m0-1.996" fill="#3378a3"/>
  <path d="m15 28h1.996v1.996h-1.996m0-1.996" fill="#3378a3"/>
  <path d="m12 22h2v2h-2m0-2" fill="#3378a3"/>
  <path d="m15 22h1.996v2h-1.996m0-2" fill="#3378a3"/>
  <path d="m31 21h2v2h-2m0-2" fill="#3378a3"/>
  <path d="m34 21h2v2h-2m0-2" fill="#3378a3"/>
  <path d="m31 24h2v1.996h-2m0-1.996" fill="#3378a3"/>
  <path d="m34 24h2v1.996h-2m0-1.996" fill="#3378a3"/>
  <path d="m31 15h2v1.996h-2m0-1.996" fill="#3378a3"/>
  <path d="m34 15h2v1.996h-2m0-1.996" fill="#3378a3"/>
  <path d="m31 18h2v2h-2m0-2" fill="#3378a3"/>
  <path d="m34 18h2v2h-2m0-2" fill="#3378a3"/>
  <path d="m31 12h2v2h-2m0-2" fill="#3378a3"/>
  <path d="m34 12h2v2h-2m0-2" fill="#3378a3"/>
</svg>
