<svg xmlns="http://www.w3.org/2000/svg" viewBox="0 0 48 48">
 <defs>
  <linearGradient id="linearGradient3764" x1="1" x2="47" gradientUnits="userSpaceOnUse" gradientTransform="matrix(0,-1,1,0,-1.5e-6,47.999998)">
   <stop style="stop-color:#e0a300;stop-opacity:1"/>
   <stop offset="1" style="stop-color:#f4b400;stop-opacity:1"/>
  </linearGradient>
 </defs>
 <g>
  
  
  
 </g>
 <g>
  <path d="m 47,24 C 47,46.703 46.703,47 24,47 1.297,47 1,46.703 1,24 1,1.297 1.297,1 24,1 46.703,1 47,1.297 47,24 z" style="fill:url(#linearGradient3764);fill-opacity:1"/>
 </g>
 <g transform="translate(1,1)" style="fill:#000;opacity:0.1">
  <g style="fill:#000">
   <!-- color: #f4b400 -->
   <g style="fill:#000">
    <path d="m 24 12 c -4.971 0 -9 3.694 -9 8.25 0.005 2.75 1.505 5.318 4 6.846 l 0 7.904 l 1 0 0 1 8 0 0 -1 1 0 0 -7.912 c 2.492 -1.526 3.992 -4.09 4 -6.838 0 -4.556 -4.03 -8.25 -9 -8.25 m 0 1.5 c 4.142 0 7.5 3.02 7.5 6.75 -0.001 2.317 -1.322 4.471 -3.5 5.707 0 0.681 0 1.362 0 2.043 l -8 0 0 -2.051 c -2.175 -1.234 -3.496 -3.385 -3.5 -5.699 0 -3.728 3.358 -6.75 7.5 -6.75 m -4 15.5 8 0 0 2 -8 0 z m 0 3 8 0 0 2 -8 0 z" style="fill:#000;fill-opacity:1;stroke:none;fill-rule:nonzero"/>
   </g>
  </g>
 </g>
 <g>
  <g>
   <g transform="translate(1,1)">
    <g style="opacity:0.1">
     <!-- color: #f4b400 -->
    </g>
   </g>
  </g>
 </g>
 <g>
  <g>
   <!-- color: #f4b400 -->
   <g>
    <path d="m 24 12 c -4.971 0 -9 3.694 -9 8.25 0.005 2.75 1.505 5.318 4 6.846 l 0 7.904 l 1 0 0 1 8 0 0 -1 1 0 0 -7.912 c 2.492 -1.526 3.992 -4.09 4 -6.838 0 -4.556 -4.03 -8.25 -9 -8.25 m 0 1.5 c 4.142 0 7.5 3.02 7.5 6.75 -0.001 2.317 -1.322 4.471 -3.5 5.707 0 0.681 0 1.362 0 2.043 l -8 0 0 -2.051 c -2.175 -1.234 -3.496 -3.385 -3.5 -5.699 0 -3.728 3.358 -6.75 7.5 -6.75 m -4 15.5 8 0 0 2 -8 0 z m 0 3 8 0 0 2 -8 0 z" style="fill:#f9f9f9;fill-opacity:1;stroke:none;fill-rule:nonzero"/>
   </g>
  </g>
 </g>
 <g>
  
 </g>
</svg>
