<svg viewBox="0 0 48 48" xmlns="http://www.w3.org/2000/svg" xmlns:xlink="http://www.w3.org/1999/xlink">
  <linearGradient id="a" gradientTransform="matrix(0 -1 1 0 -.0000015 47.999998)" gradientUnits="userSpaceOnUse" x1="1" x2="47">
    <stop offset="0" stop-color="#e4e4e4"/>
    <stop offset="1" stop-color="#eee"/>
  </linearGradient>
  <path d="m47 24c0 22.703-.297 23-23 23-22.703 0-23-.297-23-23 0-22.703.297-23 23-23 22.703 0 23 .297 23 23z" fill="url(#a)"/>
  <path d="m16.209 12c-.085 0-.167.011-.248.029 0 0-.003 0-.004 0l .002.002c-.526.122-.955.581-.955 1.506v22.898c0 .875.34 1.492.965 1.551.289.035.637-.039 1.031-.262 7.455-4.097 13.932-7.787 21.262-11.803.625-.355 1.285-1.238 0-1.949-6.491-3.587-13.972-7.745-21.266-11.764-.255-.141-.528-.213-.787-.209z" opacity=".1" transform=""/>
  <path d="m31.699 28.01c3.03-1.688 5.348-2.977 5.563-3.086.625-.355 1.285-1.238 0-1.949-.414-.23-2.668-1.48-5.566-3.082l-3.984 4.074m3.988 4.04" fill="#f9ab7d"/>
  <path d="m27.711 23.969l-12.742 13.02c.289.035.637-.039 1.031-.262.828-.457 9.68-5.371 15.703-8.719m-3.992-4.04" fill="#cf435a"/>
  <path d="m27.711 23.969l3.984-4.074c0 0-14.809-8.195-15.699-8.684-.34-.188-.711-.254-1.039-.18l12.75 12.938m.004 0" fill="#95deb2"/>
  <path d="m27.711 23.969l-12.75-12.938c-.527.121-.957.582-.957 1.508 0 1.512 0 21.633 0 22.898 0 .875.34 1.492.965 1.551l12.746-13.02m-.004.004" fill="#43a2ab"/>
</svg>
