<svg viewBox="0 0 48 48" xmlns="http://www.w3.org/2000/svg" xmlns:xlink="http://www.w3.org/1999/xlink">
  <linearGradient id="a" gradientTransform="matrix(0 -1 1 0 -.0000015 47.999998)" gradientUnits="userSpaceOnUse" x1="1" x2="47">
    <stop offset="0" stop-color="#f7b747"/>
    <stop offset="1" stop-color="#f8bd5a"/>
  </linearGradient>
  <circle cx="24" cy="25" fill="#ff0" fill-opacity=".452" r="15"/>
  <path d="m47 24c0 22.703-.297 23-23 23-22.703 0-23-.297-23-23 0-22.703.297-23 23-23 22.703 0 23 .297 23 23z" fill="url(#a)"/>
  <path d="m25 10c-8.284 0-15 6.716-15 15 .002 5.093 2.427 10.115 6.877 12.594 2.033 1.132 4.109.214 4.777-1.074.174-.336.179-.708.236-1l-4.01-6.922c-.871-.59-1.772.414-2.596.961-.683.449-.965.645-1.24.314-.686-1.533-1.045-3.193-1.045-4.873-.001-6.627 5.373-12 12-12 6.627 0 12 5.373 12 12 0 1.68-.359 3.34-1.045 4.873-.275.331-.557.135-1.24-.314-.824-.547-1.725-1.551-2.596-.961l-4.01 6.922c0 .362-.013.772.236.998 1.662 1.507 3.321 1.874 4.777 1.076 4.467-2.447 6.875-7.501 6.877-12.594.003-8.284-6.716-15-15-15zm0 7l-6 5v1h3v7h6v-7h3v-1z" opacity=".1"/>
  <path d="m24 9c-8.284 0-15 6.716-15 15 .002 5.093 2.427 10.115 6.877 12.594 2.033 1.132 4.109.214 4.777-1.074.174-.336.179-.708.236-1l-4.01-6.922c-.871-.59-1.772.414-2.596.961-.683.449-.965.645-1.24.314-.686-1.533-1.045-3.193-1.045-4.873-.001-6.627 5.373-12 12-12 6.627 0 12 5.373 12 12 0 1.68-.359 3.34-1.045 4.873-.275.331-.557.135-1.24-.314-.824-.547-1.725-1.551-2.596-.961l-4.01 6.922c0 .362-.013.772.236.998 1.662 1.507 3.321 1.874 4.777 1.076 4.467-2.447 6.875-7.501 6.877-12.594.003-8.284-6.716-15-15-15z" fill="#eaeaea"/>
  <path d="m24 16l-6 5v1h3v7h6v-7h3v-1z" fill="#c48924"/>
</svg>
