<svg xmlns="http://www.w3.org/2000/svg" viewBox="0 0 48 48">
 <defs>
  <linearGradient id="linearGradient3764" x1="1" x2="47" gradientUnits="userSpaceOnUse" gradientTransform="matrix(0,-1,1,0,-1.5e-6,47.999998)">
   <stop style="stop-color:#e4e4e4;stop-opacity:1"/>
   <stop offset="1" style="stop-color:#eee;stop-opacity:1"/>
  </linearGradient>
 </defs>
 <g>
  
  
  
 </g>
 <g>
  <path d="m 47,24 C 47,46.703 46.703,47 24,47 1.297,47 1,46.703 1,24 1,1.297 1.297,1 24,1 46.703,1 47,1.297 47,24 z" style="fill:url(#linearGradient3764);fill-opacity:1"/>
 </g>
 <g>
  <g>
   <g transform="translate(1,1)">
    <g style="opacity:0.1">
     <!-- color: #eeeeee -->
     <g>
      <path d="m 16.209 12 c -0.085 0 -0.167 0.011 -0.248 0.029 0 0 -0.003 0 -0.004 0 l 0.002 0.002 c -0.526 0.122 -0.955 0.581 -0.955 1.506 l 0 22.898 c 0 0.875 0.34 1.492 0.965 1.551 0.289 0.035 0.637 -0.039 1.031 -0.262 7.455 -4.097 13.932 -7.787 21.262 -11.803 0.625 -0.355 1.285 -1.238 0 -1.949 -6.491 -3.587 -13.972 -7.745 -21.266 -11.764 -0.255 -0.141 -0.528 -0.213 -0.787 -0.209 z" transform="translate(-1,-1)"/>
     </g>
    </g>
   </g>
  </g>
 </g>
 <g>
  <g>
   <!-- color: #eeeeee -->
   <g>
    <path d="m 31.699 28.01 c 3.03 -1.688 5.348 -2.977 5.563 -3.086 0.625 -0.355 1.285 -1.238 0 -1.949 -0.414 -0.23 -2.668 -1.48 -5.566 -3.082 l -3.984 4.074 m 3.988 4.04" style="fill:#f9ab7d;fill-opacity:1;stroke:none;fill-rule:nonzero"/>
    <path d="m 27.711 23.969 -12.742 13.02 c 0.289 0.035 0.637 -0.039 1.031 -0.262 0.828 -0.457 9.68 -5.371 15.703 -8.719 m -3.992 -4.04" style="fill:#cf435a;fill-opacity:1;stroke:none;fill-rule:nonzero"/>
    <path d="m 27.711 23.969 3.984 -4.074 c 0 0 -14.809 -8.195 -15.699 -8.684 -0.34 -0.188 -0.711 -0.254 -1.039 -0.18 l 12.75 12.938 m 0.004 0" style="fill:#95deb2;fill-opacity:1;stroke:none;fill-rule:nonzero"/>
    <path d="M 27.711,23.969 14.961,11.031 c -0.527,0.121 -0.957,0.582 -0.957,1.508 0,1.512 0,21.633 0,22.898 0,0.875 0.34,1.492 0.965,1.551 l 12.746,-13.02 m -0.004,0.004" style="fill:#43a2ab;fill-opacity:1;stroke:none;fill-rule:nonzero"/>
   </g>
  </g>
 </g>
 <g>
  
 </g>
</svg>
