<svg viewBox="0 0 48 48" xmlns="http://www.w3.org/2000/svg" xmlns:xlink="http://www.w3.org/1999/xlink">
  <linearGradient id="a" gradientTransform="matrix(0 -1 1 0 -.0000015 47.999998)" gradientUnits="userSpaceOnUse" x1="1" x2="47">
    <stop offset="0" stop-color="#16a050"/>
    <stop offset="1" stop-color="#18b25b"/>
  </linearGradient>
  <path d="m47 24c0 22.703-.297 23-23 23-22.703 0-23-.297-23-23 0-22.703.297-23 23-23 22.703 0 23 .297 23 23z" fill="url(#a)"/>
  <g opacity=".1" transform="translate(1 1)">
    <path d="m14.781 11c-.98 0-1.781.801-1.781 1.781v22.438c0 .98.801 1.781 1.781 1.781h20.438c.98 0 1.781-.801 1.781-1.781v-19.219l-5-5m-17.219 0"/>
    <use xlink:href="#b"/>
  </g>
  <path d="m14.781 11c-.98 0-1.781.801-1.781 1.781v22.438c0 .98.801 1.781 1.781 1.781h20.438c.98 0 1.781-.801 1.781-1.781v-19.219l-5-5m-17.219 0" fill="#ecf2ed"/>
  <path d="m32 11v5h5m-5-5" fill="#fff"/>
  <path id="b" d="m37 21v-5h-5m5 5" fill-opacity=".2"/>
  <path d="m17 20v14h1v-14m-1 0" fill="#13a553"/>
  <path d="m32 20v14h1v-14m-1 0" fill="#13a553"/>
  <path d="m17 19h16v1h-16m0-1" fill="#13a553"/>
  <path d="m17 33h16v1h-16m0-1" fill="#13a553"/>
  <path d="m22 20v14h1v-14m-1 0" fill="#13a553"/>
  <path d="m17 24h16v1h-16m0-1" fill="#13a553"/>
  <path d="m17 28h16v1h-16m0-1" fill="#13a553"/>
</svg>
