<svg viewBox="0 0 48 48" xmlns="http://www.w3.org/2000/svg" xmlns:xlink="http://www.w3.org/1999/xlink">
  <linearGradient id="a" gradientTransform="matrix(0 -1 1 0 -.0000015 47.999998)" gradientUnits="userSpaceOnUse" x1="1" x2="47">
    <stop offset="0" stop-color="#4a97f6"/>
    <stop offset="1" stop-color="#5ca2f7"/>
  </linearGradient>
  <path d="m47 24c0 22.703-.297 23-23 23-22.703 0-23-.297-23-23 0-22.703.297-23 23-23 22.703 0 23 .297 23 23z" fill="url(#a)"/>
  <g opacity=".1" transform="translate(1 1)">
    <path d="m14.781 11c-.98 0-1.781.801-1.781 1.781v22.438c0 .98.801 1.781 1.781 1.781h20.438c.98 0 1.781-.801 1.781-1.781v-19.219l-5-5m-17.219 0"/>
    <use xlink:href="#b"/>
  </g>
  <path d="m14.781 11c-.98 0-1.781.801-1.781 1.781v22.438c0 .98.801 1.781 1.781 1.781h20.438c.98 0 1.781-.801 1.781-1.781v-19.219l-5-5m-17.219 0" fill="#eceef2"/>
  <path d="m32 11v5h5m-5-5" fill="#fff"/>
  <path id="b" d="m37 21v-5h-5m5 5" fill-opacity=".2"/>
  <path d="m17 34h9v-2h-9" fill="#53a1f2"/>
  <path d="m17 22h16v-2h-16" fill="#53a1f2"/>
  <path d="m17 26h16v-2h-16" fill="#53a1f2"/>
  <path d="m17 30h16v-2h-16" fill="#53a1f2"/>
</svg>
