<svg viewBox="0 0 48 48" xmlns="http://www.w3.org/2000/svg" xmlns:xlink="http://www.w3.org/1999/xlink">
  <linearGradient id="a" gradientTransform="matrix(0 -1 1 0 -.0000015 47.999998)" gradientUnits="userSpaceOnUse" x1="1" x2="47">
    <stop offset="0" stop-color="#54bc16"/>
    <stop offset="1" stop-color="#5cce18"/>
  </linearGradient>
  <path d="m47 24c0 22.703-.297 23-23 23-22.703 0-23-.297-23-23 0-22.703.297-23 23-23 22.703 0 23 .297 23 23z" fill="url(#a)"/>
  <g transform="matrix(3.543307 0 0 3.543307 -.00033573 .00103451)">
    <g opacity=".1" transform="translate(-.49401162 2.4480416)">
      <path d="m4.163 2.35v2.822h1.693c0 .847-.564 1.129-.564 1.129v.564c0 0 1.693-.564 1.693-1.976v-2.54m-2.822 0"/>
      <path d="m8.114 2.35v2.822h1.693c0 .847-.564 1.129-.564 1.129v.564c0 0 1.693-.564 1.693-1.976v-2.54m-2.822 0"/>
    </g>
    <g fill="#f9f9f9" transform="translate(-.7762385 2.1658171)">
      <path d="m4.163 2.35v2.822h1.693c0 .847-.564 1.129-.564 1.129v.564c0 0 1.693-.564 1.693-1.976v-2.54m-2.822 0"/>
      <path d="m8.114 2.35v2.822h1.693c0 .847-.564 1.129-.564 1.129v.564c0 0 1.693-.564 1.693-1.976v-2.54m-2.822 0"/>
    </g>
  </g>
</svg>
