<svg viewBox="0 0 48 48" xmlns="http://www.w3.org/2000/svg" xmlns:xlink="http://www.w3.org/1999/xlink">
  <linearGradient id="a" gradientTransform="matrix(0 -1 1 0 -.0000015 47.999998)" gradientUnits="userSpaceOnUse" x1="1" x2="47">
    <stop offset="0" stop-color="#f99736"/>
    <stop offset="1" stop-color="#faa24a"/>
  </linearGradient>
  <path d="m47 24c0 22.703-.297 23-23 23-22.703 0-23-.297-23-23 0-22.703.297-23 23-23 22.703 0 23 .297 23 23z" fill="url(#a)"/>
  <path d="m25 11c-6 0-12.999 2.999-13 13 0 3.999 1.463 10 1.463 10h1.531l.219 1.342c.184 1.131.281 1.307.469 1.469.21.18.318.189 2.156.189h1.248c2.914 0 1.703-2.212 1.164-5.555-.42-2.606-.826-3.839-.943-4.074-.248-.517-.892-.764-1.256-.748-.738.033-1.458.433-2.094.705l-1.609.832c-.207-1.326-.345-2.783-.348-4.16h1.012c.989 0 .988-.001.988-1 0-5.258 4.496-8 9-8 4.504 0 9 2.742 9 8 0 .999 0 1 .988 1h1.012c-.002 1.374-.14 2.827-.346 4.15l-1.65-.912c-.635-.256-1.517-.471-2.193-.611-.433-.05-.916.156-1.25.748-.13.23-.407 1.685-.908 4.275-.491 2.538-1.652 5.35 1.127 5.35h3.03c.783 0 .871-1.079.969-1.662l.225-1.338h1.533c0 0 1.463-6 1.463-10-.001-10-7-13-13-13" opacity=".1"/>
  <path d="m17.05 25.623c-.738.033-1.458.433-2.094.705-.179 3.228.049 6.626 2.043 9.672h1.086c2.914 0 1.703-2.211 1.164-5.554-.42-2.606-.826-3.84-.943-4.075-.248-.517-.892-.764-1.256-.748z" fill="#816743"/>
  <path d="m30.811 25.627c-.433-.05-.916.156-1.25.748-.13.23-.407 1.685-.908 4.275-.491 2.538-1.652 5.372 1.127 5.35l1.225-.01c.901-2.805 2.369-4.552 1.992-9.729-.777-.38-1.425-.548-2.186-.635z" fill="#816743"/>
  <path d="m14.958 26.328l-1.61.832c0 0 .651 5.84.646 5.838l.219 1.344c.184 1.131.281 1.307.469 1.469.21.18.318.189 2.156.189h.162" fill="#ffe4c9"/>
  <path d="m33 26.24l-2 9.762h1.806c.783 0 .871-1.079.969-1.662l.225-1.338.65-5.85" fill="#ffe4c9"/>
  <path d="m24 10c-6 0-12.999 2.999-13 13 0 3.999 1.463 10 1.463 10h1.537c.332-1.984 1.345-3.826-.652-5.84-.207-1.326-.345-2.783-.348-4.16h1.012c.989 0 .988-.001.988-1 0-5.258 4.496-8 9-8 4.504 0 9 2.742 9 8 0 .999 0 1 .988 1h1.012c-.002 1.377-.141 2.834-.348 4.16-.524 1.944-.652 3.84-.652 5.84h1.537c0 0 1.463-6 1.463-10-.001-10-7-13-13-13" fill="#ffe4c9"/>
</svg>
