<svg xmlns="http://www.w3.org/2000/svg" viewBox="0 0 48 48">
 <defs>
  <linearGradient id="linearGradient3764" x1="1" x2="47" gradientUnits="userSpaceOnUse" gradientTransform="matrix(0,-1,1,0,-1.5e-6,47.999998)">
   <stop style="stop-color:#f7b747;stop-opacity:1"/>
   <stop offset="1" style="stop-color:#f8bd5a;stop-opacity:1"/>
  </linearGradient>
 </defs>
 <circle r="15" cy="25" cx="24" style="fill:#ff0;opacity:1;fill-opacity:0.452;stroke:none"/>
 <g>
  
  
  
 </g>
 <g>
  <path d="m 47,24 C 47,46.703 46.703,47 24,47 1.297,47 1,46.703 1,24 1,1.297 1.297,1 24,1 46.703,1 47,1.297 47,24 z" style="fill:url(#linearGradient3764);fill-opacity:1"/>
 </g>
 <g>
  
 </g>
 <path d="m 25 10 c -8.284 0 -15 6.716 -15 15 c 0.002 5.093 2.427 10.115 6.877 12.594 c 2.033 1.132 4.109 0.214 4.777 -1.074 c 0.174 -0.336 0.179 -0.708 0.236 -1 l -4.01 -6.922 c -0.871 -0.59 -1.772 0.414 -2.596 0.961 c -0.683 0.449 -0.965 0.645 -1.24 0.314 c -0.686 -1.533 -1.045 -3.193 -1.045 -4.873 c -0.001 -6.627 5.373 -12 12 -12 c 6.627 0 12 5.373 12 12 c 0 1.68 -0.359 3.34 -1.045 4.873 c -0.275 0.331 -0.557 0.135 -1.24 -0.314 c -0.824 -0.547 -1.725 -1.551 -2.596 -0.961 l -4.01 6.922 c 0 0.362 -0.013 0.772 0.236 0.998 c 1.662 1.507 3.321 1.874 4.777 1.076 c 4.467 -2.447 6.875 -7.501 6.877 -12.594 c 0.003 -8.284 -6.716 -15 -15 -15 z m 0 7 l -6 5 l 0 1 l 3 0 l 0 7 l 6 0 l 0 -7 l 3 0 l 0 -1 l -6 -5 z" style="fill:#000;opacity:0.1;fill-opacity:1;stroke:none;fill-rule:nonzero"/>
 <path d="m 24 9 c -8.284 0 -15 6.716 -15 15 0.002 5.093 2.427 10.115 6.877 12.594 2.033 1.132 4.109 0.214 4.777 -1.074 0.174 -0.336 0.179 -0.708 0.236 -1 l -4.01 -6.922 c -0.871 -0.59 -1.772 0.414 -2.596 0.961 -0.683 0.449 -0.965 0.645 -1.24 0.314 -0.686 -1.533 -1.045 -3.193 -1.045 -4.873 -0.001 -6.627 5.373 -12 12 -12 6.627 0 12 5.373 12 12 0 1.68 -0.359 3.34 -1.045 4.873 -0.275 0.331 -0.557 0.135 -1.24 -0.314 -0.824 -0.547 -1.725 -1.551 -2.596 -0.961 l -4.01 6.922 c 0 0.362 -0.013 0.772 0.236 0.998 1.662 1.507 3.321 1.874 4.777 1.076 c 4.467 -2.447 6.875 -7.501 6.877 -12.594 c 0.003 -8.284 -6.716 -15 -15 -15 z" style="fill:#eaeaea;opacity:1;fill-opacity:1;stroke:none"/>
 <path d="m 24 16 -6 5 0 1 3 0 0 7 6 0 0 -7 3 0 0 -1 z" style="fill:#c48924;opacity:1;fill-opacity:1;stroke:none"/>
</svg>
