<svg xmlns="http://www.w3.org/2000/svg" viewBox="0 0 48 48">
 <g>
  
  
  
 </g>
 <g style="fill:#b6b6b6;fill-opacity:1">
  <path d="m 24 1 c 22.703 0 23 0.297 23 23 c 0 22.703 -0.297 23 -23 23 -22.703 0 -23 -0.297 -23 -23 0 -22.703 0.297 -23 23 -23 z"/>
 </g>
 <g>
  <g>
   <g transform="translate(1,1)">
    <g style="opacity:0.1">
     <!-- color: #474747 -->
     <g>
      <path d="m 9 24.01 l 0 -0.004 c 0 -8.281 6.715 -14.996 15 -14.996 l 0.004 0 c 8.281 0 14.996 6.715 14.996 14.996 l 0 0.004 c 0 8.285 -6.715 15 -14.996 15 l -0.004 0 c -8.285 0 -15 -6.715 -15 -15 m 0 0" style="fill:#000;fill-opacity:1;stroke:none;fill-rule:evenodd"/>
     </g>
    </g>
   </g>
  </g>
 </g>
 <path d="M 9,24.01 9,24.006 C 9,15.725 15.715,9.01 24,9.01 l 0.004,0 C 32.285,9.01 39,15.725 39,24.006 l 0,0.004 c 0,8.285 -6.715,15 -14.996,15 l -0.004,0 c -8.285,0 -15,-6.715 -15,-15 m 0,0" style="fill:#2f2f2f;fill-opacity:1;stroke:none;fill-rule:evenodd"/>
 <g>
  
 </g>
 <path d="m 16 23 a 8 8 0 0 0 7 7.928 l 0 2.072 -2 0 0 2 6 0 0 -2 -2 0 0 -2.07 A 8 8 0 0 0 32 23 l -2 0 a 6 6 0 0 1 -6 6 6 6 0 0 1 -6 -6 l -2 0 z" style="fill:#f9f9f9;fill-opacity:1;stroke:none;fill-rule:nonzero"/>
 <rect width="8" height="14" x="20" y="14" rx="4" style="fill:#f9f9f9;opacity:1;fill-opacity:1;stroke:none"/>
</svg>
