<svg viewBox="0 0 48 48" xmlns="http://www.w3.org/2000/svg" xmlns:xlink="http://www.w3.org/1999/xlink">
  <linearGradient id="a" gradientTransform="matrix(0 -1 1 0 -.0000015 47.999998)" gradientUnits="userSpaceOnUse" x1="1" x2="47">
    <stop offset="0" stop-color="#ede9ce"/>
    <stop offset="1" stop-color="#f3f0dd"/>
  </linearGradient>
  <path d="m47 24c0 22.703-.297 23-23 23-22.703 0-23-.297-23-23 0-22.703.297-23 23-23 22.703 0 23 .297 23 23z" fill="url(#a)"/>
  <g transform="matrix(3.543307 0 0 3.543307 .0023625 -.00000012)">
    <path d="m13 13v18l10 6h4l10-6v-18c-4 0-8 1.02-12 4.5-4-3.395-8-4.5-12-4.5z" opacity=".1" transform="scale(.28222223)"/>
    <path d="m7.338 10.16v-5.08h-1.129v5.08" fill="#14a6db"/>
    <path d="m6.209 5.08l-2.822-1.693v5.08l2.822 1.693" fill="#237bba"/>
    <path d="m10.16 8.467v-5.08l-2.822 1.693v5.08" fill="#63c5e7"/>
    <path d="m10.16 3.387c-1.129 0-2.258.288-3.387 1.27-1.129-.958-2.258-1.27-3.387-1.27l2.822 1.693h1.129" fill="#0a5168"/>
    <path d="m29 16v5l3-3v-4h-3z" fill="#0a5168" transform="scale(.28222223)"/>
  </g>
</svg>
