<svg viewBox="0 0 48 48" xmlns="http://www.w3.org/2000/svg" xmlns:xlink="http://www.w3.org/1999/xlink">
  <linearGradient id="a" gradientUnits="userSpaceOnUse" x2="0" y1="47" y2="1">
    <stop offset="0" stop-color="#4771b1"/>
    <stop offset="1" stop-color="#527ab9"/>
  </linearGradient>
  <path d="m47 24c0 22.703-.297 23-23 23-22.703 0-23-.297-23-23 0-22.703.297-23 23-23 22.703 0 23 .297 23 23z" fill="url(#a)"/>
  <g opacity=".1" transform="translate(1 1)">
    <path d="m29.25 9.969c-.32.086-.699.156-1.188.188 3.137.785 1.625 5.117-1.625 5.313 3.066 1.145 2.094 7.164-2.125 5.469 2.773 4.309-2.395 7.859-5.188 4.781.949 3.844-5.219 4.809-5.938.063.223 2.828-1.25 4.066-3 4.066 2.277 5.383 7.598 9.156 13.813 9.156 8.285 0 15-6.719 15-15 0-6.441-4.055-11.902-9.75-14.03m0 0"/>
    <path d="m11.531 16.945v2l4-1m-4-1" fill-opacity=".886"/>
    <path d="m24.836 11.371v2l3-1m-3-1" fill-opacity=".886"/>
    <path d="m21.758 16.938l1 3 1.996-2m-2.996-1" fill-opacity=".886"/>
    <path d="m16.625 21.301v4l2-3m-2-1" fill-opacity=".886"/>
    <path d="m18.05 11.938v1l1 .996m-1-1.996" fill-opacity=".886"/>
  </g>
  <path d="m29.25 9.969c-.32.086-.699.156-1.188.188 3.137.785 1.625 5.117-1.625 5.313 3.066 1.145 2.094 7.164-2.125 5.469 2.773 4.309-2.395 7.859-5.188 4.781.949 3.844-5.219 4.809-5.938.063.223 2.828-1.25 4.066-3 4.066 2.277 5.383 7.598 9.156 13.813 9.156 8.285 0 15-6.719 15-15 0-6.441-4.055-11.902-9.75-14.03m0 0" fill="#cfa159"/>
  <path d="m11.531 16.945v2l4-1m-4-1" fill="#cea159" fill-opacity=".886"/>
  <path d="m24.836 11.371v2l3-1m-3-1" fill="#cea159" fill-opacity=".886"/>
  <path d="m21.758 16.938l1 3 1.996-2m-2.996-1" fill="#cea159" fill-opacity=".886"/>
  <path d="m31.621 14.5l-1 4 3-1m-2-3" fill="#855920"/>
  <path d="m16.625 21.301v4l2-3m-2-1" fill="#cea159" fill-opacity=".886"/>
  <path d="m25.508 27.801v1.996l3-1-2-3m-1 2" fill="#855920"/>
  <path d="m18.05 11.938v1l1 .996m-1-1.996" fill="#cea159" fill-opacity=".886"/>
  <path d="m33.371 21.633l-3 1 2 2 1-2v-1m .004 0" fill="#855920"/>
  <path d="m34.637 26.883c-.523 1.664-.957 3.043-1 3.01l3-1" fill="#855920"/>
  <path d="m27.984 32.17l-2 1.988 3 2 2-2m-3-1.988" fill="#855920"/>
  <path d="m20.703 34.3h-2l3 2 1-1m-2-1" fill="#855920"/>
  <path d="m13.188 31.23l4-.988v1.988h-3m-1-1" fill="#855920"/>
</svg>
