<svg viewBox="0 0 48 48" xmlns="http://www.w3.org/2000/svg" xmlns:xlink="http://www.w3.org/1999/xlink">
  <linearGradient id="a" gradientTransform="matrix(0 -1 1 0 -.0000015 47.999998)" gradientUnits="userSpaceOnUse" x1="1" x2="47">
    <stop offset="0" stop-color="#1a3f50"/>
    <stop offset="1" stop-color="#1f4a5e"/>
  </linearGradient>
  <path d="m47 24c0 22.703-.297 23-23 23-22.703 0-23-.297-23-23 0-22.703.297-23 23-23 22.703 0 23 .297 23 23z" fill="url(#a)"/>
  <path d="m25 10a15 15 0 0 0-6.762 1.629c-1.158-.824-2.818-.692-3.859.35-.865.865-1.099 2.121-.691 3.199a15 15 0 0 0-3.688 9.822 15 15 0 0 0  15 15 15 15 0 0 0  15-15 15 15 0 0 0-15-15zm0 9.5a5.5 5.5 0 0 1 5.5 5.5 5.5 5.5 0 0 1-5.5 5.5 5.5 5.5 0 0 1-5.5-5.5 5.5 5.5 0 0 1  1.496-3.762c1.86 1.285 3.443 2.342 3.443 2.342 0 0-.692-1.674-1.56-3.648a5.5 5.5 0 0 1 2.121-.432z" fill-opacity=".098"/>
  <path d="m19.383 26.986l-7.965 5.154a15 15 0 0 0 12.582 6.859 15 15 0 0 0  7.06-1.77l-4.471-8.381a5.5 5.5 0 0 1-2.586.65 5.5 5.5 0 0 1-4.617-2.514" fill="#a8cf36"/>
  <path d="m24 9a15 15 0 0 0-15 15 15 15 0 0 0  2.621 8.471l7.844-5.371a5.5 5.5 0 0 1-.965-3.1 5.5 5.5 0 0 1  5.5-5.5 5.5 5.5 0 0 1  5.5 5.5h9.5a15 15 0 0 0-15-15z" fill="#e38c53"/>
  <path d="m29.406 23a5.5 5.5 0 0 1  .094 1 5.5 5.5 0 0 1-5.5 5.5v9.5a15 15 0 0 0 15-15 15 15 0 0 0-.049-1z" fill="#59a3c8"/>
  <path d="m16.525 11.09c-.052 0-.104.013-.156.016a15 15 0 0 0-2.709 2.051c-.351 1.043-.131 2.235.699 3.064.973.973 3.297 2.676 5.467 4.201a5.5 5.5 0 0 1 2.537-1.666c-1.228-2.712-2.721-5.735-3.713-6.777-.571-.6-1.346-.892-2.125-.889z" opacity=".1"/>
  <path d="m17.651 10.979c1.925 2.02 5.789 11.601 5.789 11.601 0 0-8.03-5.308-10.08-7.359-1.172-1.172-1.152-3.071.02-4.243 1.172-1.172 3.13-1.2 4.272 0z" fill="#f9f9f9"/>
  <circle cx="15.5" cy="13" fill="#868686" r="1"/>
</svg>
