<svg viewBox="0 0 48 48" xmlns="http://www.w3.org/2000/svg" xmlns:xlink="http://www.w3.org/1999/xlink">
  <linearGradient id="a" gradientTransform="matrix(0 -1 1 0 -.0000015 47.999998)" gradientUnits="userSpaceOnUse" x1="1" x2="47">
    <stop offset="0" stop-color="#616d73"/>
    <stop offset="1" stop-color="#6a777e"/>
  </linearGradient>
  <path d="m47 24c0 22.703-.297 23-23 23-22.703 0-23-.297-23-23 0-22.703.297-23 23-23 22.703 0 23 .297 23 23z" fill="url(#a)"/>
  <path d="m13 13v24h24v-12h-12v-12z" opacity=".1" transform=""/>
  <path d="m12 12h12v12h-12m0-12" fill="#62ce3e"/>
  <path d="m12 24h12v12h-12m0-12" fill="#f9e500"/>
  <path d="m24 24h12v12h-12m0-12" fill="#70c8e5"/>
  <path d="m25 26l-.002.006v7.994h2.354c1.648 0 2.328-1.283 2.316-2.375-.01-.927-.416-1.717-1.436-1.926.426-.09.65-.333.873-.641.223-.308.336-.701.336-1.176 0-.688-.299-1.09-.697-1.402-.402-.321-1.015-.48-2.043-.48zm1.832.9c1.168-.009 1.778.419 1.799 1.072.016.493-.125.743-.363.951-.242.204-.549.303-1.195.303h-1.072v-2.32l.832-.006zm6.107 1.1c-.676 0-1.215.271-1.617.82-.399.55-.598 1.287-.598 2.217 0 .929.211 1.649.645 2.168.434.524 1.025.795 1.771.795.657 0 1.142-.216 1.639-.471v-.83c-.531.258-1.068.537-1.611.537-.515 0-.918-.178-1.203-.527-.285-.362-.433-1.036-.449-1.709h3.484v-.496c0-.79-.19-1.302-.561-1.787-.367-.476-.867-.717-1.5-.717zm-.004.732c.399-.008.707.144.922.441.211.293.32.522.32 1.076h-2.648c.039-.533.192-.761.43-1.066.296-.338.644-.444.977-.451zm-6.936 1.387h1.123c.574 0 1 .117 1.281.348.285.23.426.598.426 1.096 0 .529-.141.918-.418 1.172-.274.249-.686.33-1.223.375h-1.189v-2.99z" fill="#1a1a1a"/>
  <path d="m15 26c0 2.667 0 5.333 0 8 1.333 0 2.667 0 4 0v-1h-3v-7zm5.5 0c-.276 0-.5.224-.5.5 0 .276.224.5.5.5.276 0 .5-.224.5-.5 0-.276-.224-.5-.5-.5m-.5 2v6h1v-6z" fill="#1a1a1a"/>
  <path d="m15 14v3 1 4h1v-4h3v4h1v-4-1-3h-1v3h-3v-3z" fill="#1a1a1a"/>
</svg>
