<svg viewBox="0 0 48 48" xmlns="http://www.w3.org/2000/svg" xmlns:xlink="http://www.w3.org/1999/xlink">
  <linearGradient id="a" gradientTransform="matrix(0 -1 1 0 -.0000015 47.999998)" gradientUnits="userSpaceOnUse" x1="1" x2="47">
    <stop offset="0" stop-color="#e4e4e4"/>
    <stop offset="1" stop-color="#eee"/>
  </linearGradient>
  <path d="m47 24c0 22.703-.297 23-23 23-22.703 0-23-.297-23-23 0-22.703.297-23 23-23 22.703 0 23 .297 23 23z" fill="url(#a)"/>
  <path d="m24.11 14c-.266.004-.533.02-.803.049-4.23.451-7.312 3.816-7.02 7.578l-1.125.121.57 4.949 1.848-.199c.104.322.224.627.363.908.541 1.09 1.388 1.895 2.449 1.945.607.028 1.16-.214 1.65-.604.717 1.772.558 3.772-8.273 2.213-1.579-.278-1.688.576-1.77 2.615-.091 2.035 6.41 2.75 14.949 2.281 3.182-.25 9.912-.355 10.1-3.953.187-3.594-1.34-2.153-4.04-1.551-4.492 1-5.167.053-5.324-1.504.323.119.661.176 1.012.143 1.055-.101 1.859-.936 2.34-2.049.25-.578.419-1.247.508-1.971l.354-.037c.035.274.083.529.162.746.211.586.598.98 1.051 1.219.898.461 2 .422 2.996.734.531.41 1.055.797 1.398 1.293l.494-.336c-.434-.617-1.025-1.039-1.564-1.457l-.039-.035-.059-.016c-1.137-.375-2.254-.369-2.941-.721-.34-.18-.594-.422-.762-.887-.061-.168-.102-.375-.131-.605l.955-.102-.566-4.949-.994.107c-.559-3.472-3.903-5.988-7.785-5.928zm.006.982c3.209-.05 5.995 1.938 6.635 4.74-.351-.751-.797-1.399-1.336-1.867-.593-.515-1.281-.776-1.959-.711-.593.057-1.137.371-1.586.861-.537-1.364-1.238-2.312-2.164-2.277-.807.03-1.389.906-1.795 2.16-.291-.153-.603-.252-.939-.268-1.061-.048-1.976.669-2.623 1.703-.381.609-.673 1.355-.879 2.176l-.1.001c-.22-3.22 2.422-6.096 6.05-6.484.232-.025.463-.039.691-.043z" opacity=".1" transform=""/>
  <g transform="translate(-.00005633)">
    <path d="m20.605 26.801c-.844-1.684-.723-11.965 2.102-12.07 2.824-.105 3.578 8.836 3.855 11.301.27 2.469-.637 4.68 5.445 3.324 2.699-.602 4.227-2.043 4.04 1.551-.188 3.598-6.918 3.703-10.1 3.953-8.539.469-15.04-.246-14.949-2.281.082-2.039.191-2.895 1.77-2.617 10.492 1.852 8.762-1.32 7.84-3.164m.004 0" fill="#7f5485"/>
    <path d="m28.703 19.17l3.188-.348.566 4.949-3.188.34m-.566-4.941" fill="#2d2d2d"/>
    <path d="m14.16 20.75l3.309-.355.566 4.949-3.305.355m-.57-4.949" fill="#2d2d2d"/>
    <path d="m6.401 6.386c-.05.839-.46 1.496-.922 1.475-.462-.022-.805-.713-.771-1.553.051-.84.461-1.496.923-1.475.462.021.805.712.767 1.553m0 0" fill="#ececec" stroke="#2d2d2d" stroke-width=".282" transform="scale(3.543307)"/>
    <path d="m21.332 23.863c-.035.563-.348 1.078-.816 1.352-.469.273-1.02.258-1.438-.039-.418-.297-.641-.828-.574-1.387.094-.832.781-1.477 1.547-1.457.766.02 1.332.699 1.281 1.531m0 0" fill="#2d2d2d"/>
    <path d="m8.487 6.177c.079.836-.225 1.54-.684 1.584-.46.044-.905-.589-1-1.422-.065-.555.04-1.087.273-1.393.234-.304.56-.335.851-.082.293.255.507.757.559 1.313m0 0" fill="#ececec" stroke="#2d2d2d" stroke-width=".282" transform="scale(3.543307)"/>
    <path d="m28.559 23.797c-.191.895-.922 1.57-1.629 1.512-.707-.063-1.125-.836-.934-1.73.195-.895.922-1.574 1.633-1.512.707.059 1.121.836.93 1.73m0 0" fill="#2d2d2d"/>
    <path d="m22.309 13.05c-4.32.461-7.453 3.961-7.01 7.82.023.266.09.539.145.793l1.086-.129c-.063-.25-.121-.508-.145-.773-.379-3.32 2.313-6.336 6.04-6.734 3.719-.395 7.05 1.973 7.43 5.293.031.266.027.531.02.797l1.086-.113c.004-.262.012-.527-.016-.793-.445-3.859-4.316-6.621-8.637-6.16m.004 0" fill="#2d2d2d"/>
    <path d="m30.906 22.23c-.113 1.078-.063 1.863.152 2.453.211.586.598.98 1.051 1.219.898.461 2 .422 2.996.734.531.41 1.055.797 1.398 1.293l.496-.336c-.434-.617-1.027-1.039-1.566-1.457l-.039-.035-.059-.016c-1.137-.375-2.254-.367-2.941-.719-.34-.18-.594-.422-.762-.887-.168-.465-.227-1.148-.113-2.176m-.613-.074" fill="#2d2d2d"/>
  </g>
</svg>
