<svg viewBox="0 0 48 48" xmlns="http://www.w3.org/2000/svg" xmlns:xlink="http://www.w3.org/1999/xlink">
  <linearGradient id="a" gradientTransform="matrix(0 -1 1 0 -.0000015 47.999998)" gradientUnits="userSpaceOnUse" x1="1" x2="47">
    <stop offset="0" stop-color="#e4e4e4"/>
    <stop offset="1" stop-color="#eee"/>
  </linearGradient>
  <path d="m47 24c0 22.703-.297 23-23 23-22.703 0-23-.297-23-23 0-22.703.297-23 23-23 22.703 0 23 .297 23 23z" fill="url(#a)"/>
  <g fill-opacity=".098" transform="translate(1.021 .99)">
    <path d="m34.555 19.613c-1.828-4.03-5.922-6.617-10.531-6.617-4.715 0-9.03 2.832-10.734 7.04l3.578 1.324c1.129-2.809 4.01-4.691 7.156-4.691 3.035 0 5.715 1.68 6.961 4.305l-2.609 1 6.672 3.684 1.953-6.977m-2.445.934"/>
    <path d="m13.425 28.393c1.828 4.03 5.922 6.617 10.531 6.617 4.715 0 9.03-2.832 10.734-7.04l-3.578-1.324c-1.129 2.809-4.01 4.691-7.156 4.691-3.035 0-5.715-1.68-6.961-4.305l2.609-1-6.672-3.684-1.953 6.977m2.445-.934"/>
  </g>
  <g transform="translate(.021 -.01)">
    <path d="m34.555 19.613c-1.828-4.03-5.922-6.617-10.531-6.617-4.715 0-9.03 2.832-10.734 7.04l3.578 1.324c1.129-2.809 4.01-4.691 7.156-4.691 3.035 0 5.715 1.68 6.961 4.305l-2.609 1 6.672 3.684 1.953-6.977m-2.445.934" fill="#49cd3d"/>
    <path d="m13.425 28.393c1.828 4.03 5.922 6.617 10.531 6.617 4.715 0 9.03-2.832 10.734-7.04l-3.578-1.324c-1.129 2.809-4.01 4.691-7.156 4.691-3.035 0-5.715-1.68-6.961-4.305l2.609-1-6.672-3.684-1.953 6.977m2.445-.934" fill="#4570ff"/>
  </g>
</svg>
