<svg viewBox="0 0 48 48" xmlns="http://www.w3.org/2000/svg" xmlns:xlink="http://www.w3.org/1999/xlink">
  <linearGradient id="a" gradientTransform="matrix(0 -1 1 0 -.0000015 47.999998)" gradientUnits="userSpaceOnUse" x1="1" x2="47">
    <stop offset="0" stop-color="#cfbcad"/>
    <stop offset="1" stop-color="#d6c6b9"/>
  </linearGradient>
  <linearGradient id="b" gradientTransform="matrix(.9587455 0 0 .97514518 .98996259 .60596513)" gradientUnits="userSpaceOnUse" x2="0" y1="13" y2="31">
    <stop offset="0" stop-color="#5cb634"/>
    <stop offset="1" stop-color="#57ac32"/>
  </linearGradient>
  <path d="m47 24c0 22.703-.297 23-23 23-22.703 0-23-.297-23-23 0-22.703.297-23 23-23 22.703 0 23 .297 23 23z" fill="url(#a)"/>
  <g transform="scale(3.543307)">
    <rect fill-opacity=".098" height="7.338" rx=".579" ry=".552" width="5.644" x="4.233" y="3.387"/>
    <g transform="scale(.28222223)">
      <rect fill="#3c3c3c" height="26" rx="2.052" ry="1.955" width="20" x="14" y="11"/>
      <rect fill="#787878" height="20" rx="2.073" ry="1.995" width="18" x="15" y="12"/>
      <circle cx="-194.72" cy="860.01" fill="#787878" opacity=".636" r="48.681" transform="matrix(.0308129 0 0 .0308129 36.5 8.000495)"/>
      <circle cx="-194.72" cy="860.01" fill="#e91111" opacity=".636" r="48.681" transform="matrix(.02054194 0 0 .02054194 34.500001 16.833659)"/>
      <rect fill="url(#b)" height="18" rx="1.968" ry="1.907" width="16" x="16" y="13"/>
      <path d="m32 22l-16 4v2l16-4z" fill="#ffe68e"/>
      <path d="m24.508 25.5c-.221-1.124-.614-2.06-1.089-2.926-.352-.642-.76-1.236-1.137-1.859-.125-.209-.235-.427-.354-.644-.242-.431-.439-.932-.427-1.581.011-.636.191-1.144.448-1.561.421-.684 1.129-1.246 2.08-1.393.775-.121 1.505.083 2.02.395.421.252.749.592.996.993.26.417.439.91.454 1.554.008.33-.046.636-.119.888-.075.256-.195.471-.302.699-.208.447-.469.856-.733 1.265-.781 1.22-1.516 2.466-1.837 4.17m0 0" fill-opacity=".098" fill-rule="evenodd"/>
      <path d="m24.01 25c-.221-1.124-.614-2.06-1.089-2.926-.352-.642-.76-1.236-1.137-1.859-.125-.209-.235-.427-.354-.644-.242-.431-.439-.932-.427-1.581.011-.636.191-1.144.448-1.561.421-.684 1.129-1.246 2.08-1.393.775-.121 1.505.083 2.02.395.421.252.749.592.996.993.26.417.439.91.454 1.554.008.33-.046.636-.119.888-.075.256-.195.471-.302.699-.208.447-.469.856-.733 1.265-.781 1.22-1.516 2.466-1.837 4.17m0 0" fill="#f3533d" fill-rule="evenodd"/>
      <path d="m25.4 18.1c0 .773-.626 1.4-1.399 1.4-.774 0-1.401-.627-1.401-1.4 0-.773.628-1.4 1.401-1.4.774 0 1.399.627 1.399 1.4m0 0" fill="#c12f20" fill-rule="evenodd"/>
    </g>
  </g>
</svg>
