<svg xmlns="http://www.w3.org/2000/svg" viewBox="0 0 48 48">
 <defs>
  <linearGradient id="linearGradient4164" x1="1" x2="47" gradientUnits="userSpaceOnUse">
   <stop style="stop-color:#f44c68;stop-opacity:1"/>
   <stop offset="1" style="stop-color:#f55f78;stop-opacity:1"/>
  </linearGradient>
 </defs>
 <g>
  
  
  
 </g>
 <g transform="matrix(0,-1,1,0,0,48)" style="fill:#fcaf3e;fill-opacity:1">
  <path d="M 24,1 C 46.703,1 47,1.297 47,24 47,46.703 46.703,47 24,47 1.297,47 1,46.703 1,24 1,1.297 1.297,1 24,1 Z" style="fill:url(#linearGradient4164)"/>
 </g>
 <g>
  <g>
   <g transform="translate(1,1)">
    <g style="opacity:0.1">
     <!-- color: #ebebeb -->
    </g>
   </g>
  </g>
 </g>
 <g transform="translate(1.7850532e-6,0)">
  <g>
   <!-- color: #ebebeb -->
  </g>
 </g>
 <g>
  
 </g>
 <path d="m 32 11 0 1 1 0 c 2.216 0 4 1.769 4 4 l 0 1 1 0 0 -1 c 0 -2.77 -2.23 -5 -5 -5 l -1 0 z m -1 3 0 1 1 0 c 1.108 0 2 0.892 2 2 l 0 1 1 0 0 -1 c 0 -1.662 -1.338 -3 -3 -3 l -1 0 z m -2 3 c -0.593 0 -1 0.464 -1 0.996 l 0 2 -14 0 c -1 0 -2 1 -2 2 l 0 11 c 0 1 1 2 2 2 l 22 0 c 1 0 2 -1 2 -2 l 0 -11 c 0 -1 -1 -2 -2 -2 l -4 0 0 -2 c 0 -0.554 -0.446 -0.996 -1 -0.996 l -2 0 z m 0.5 1 1 0 c 0.277 0 0.5 0.223 0.5 0.5 l 0 1.5 -2 0 0 -1.5 c 0 -0.277 0.223 -0.5 0.5 -0.5 z m -13.809 3.996 l 7.617 0.004 c 0.846 0 1.691 0.709 1.691 1.424 l 0 8.145 c 0 0.714 -0.845 1.432 -1.691 1.432 l -7.617 0 c -0.106 0 -0.212 -0.012 -0.316 -0.033 c -0.729 -0.146 -1.375 -0.771 -1.375 -1.396 l 0 -8.145 c 0 -0.714 0.845 -1.426 1.691 -1.426 l 0 -0.004 z m 11.309 0.004 l 7.309 0 c 0.846 0 1.689 0.711 1.689 1.426 l 0 8.145 c 0 0.714 -0.843 1.43 -1.689 1.43 l -7.309 0 0 -11 z m 2.5 0.998 c -0.277 0 -0.5 0.223 -0.5 0.5 0 0.277 0.223 0.502 0.5 0.502 l 1 0 c 0.277 0 0.5 -0.225 0.5 -0.502 0 -0.277 -0.223 -0.5 -0.5 -0.5 l -1 0 z m 3 0 c -0.277 0 -0.5 0.223 -0.5 0.5 0 0.277 0.223 0.502 0.5 0.502 l 1 0 c 0.277 0 0.5 -0.225 0.5 -0.502 0 -0.277 -0.223 -0.5 -0.5 -0.5 l -1 0 z m -13 1 c -1.933 0 -3.5 1.567 -3.5 3.5 0 1.933 1.567 3.5 3.5 3.5 1.933 0 3.5 -1.567 3.5 -3.5 0 -1.933 -1.567 -3.5 -3.5 -3.5 z m 10 0.998 c -0.277 0 -0.5 0.223 -0.5 0.5 0 0.277 0.223 0.502 0.5 0.502 l 1 0 c 0.277 0 0.5 -0.225 0.5 -0.502 0 -0.277 -0.223 -0.5 -0.5 -0.5 l -1 0 z m 3 0 c -0.277 0 -0.5 0.223 -0.5 0.5 0 0.277 0.223 0.502 0.5 0.502 l 1 0 c 0.277 0 0.5 -0.225 0.5 -0.502 0 -0.277 -0.223 -0.5 -0.5 -0.5 l -1 0 z m -13 1 c 0.828 0 1.5 0.672 1.5 1.5 0 0.828 -0.672 1.5 -1.5 1.5 -0.828 0 -1.5 -0.672 -1.5 -1.5 0 -0.828 0.672 -1.5 1.5 -1.5 z m 13 0.998 c -0.277 0 -0.5 0.223 -0.5 0.5 0 0.277 0.223 0.502 0.5 0.502 l 1 0 c 0.277 0 0.5 -0.225 0.5 -0.502 0 -0.277 -0.223 -0.5 -0.5 -0.5 l -1 0 z m -3 0.002 c -0.277 0 -0.5 0.221 -0.5 0.498 0 0.277 0.223 0.502 0.5 0.502 l 1 0 c 0.277 0 0.5 -0.225 0.5 -0.502 0 -0.277 -0.223 -0.498 -0.5 -0.498 l -1 0 z m 4.5 3 c -0.552 0 -1 0.448 -1 1 0 0.552 0.448 1 1 1 0.552 0 1 -0.448 1 -1 0 -0.552 -0.448 -1 -1 -1 z" mix-blend-mode="normal" solid-color="#000000" white-space="normal" isolation="auto" solid-opacity="1" style="visibility:visible;shape-rendering:auto;color-interpolation-filters:linearRGB;fill:#000;opacity:0.1;image-rendering:auto;fill-opacity:1;stroke:none;display:inline;color:#000;fill-rule:evenodd;color-rendering:auto;color-interpolation:sRGB"/>
 <path d="m 31 10 l 0 1 l 1 0 c 2.216 0 4 1.769 4 4 l 0 1 l 1 0 l 0 -1 c 0 -2.77 -2.23 -5 -5 -5 l -1 0 z m -1 3 l 0 1 l 1 0 c 1.108 0 2 0.892 2 2 l 0 1 l 1 0 l 0 -1 c 0 -1.662 -1.338 -3 -3 -3 l -1 0 z m -2 3 c -0.593 0 -1 0.464 -1 0.996 l 0 2 l -14 0 c -1 0 -2 1 -2 2 l 0 11 c 0 1 1 2 2 2 l 22 0 c 1 0 2 -1 2 -2 l 0 -11 c 0 -1 -1 -2 -2 -2 l -4 0 l 0 -2 c 0 -0.554 -0.446 -0.996 -1 -0.996 l -2 0 z m 0.5 1 l 1 0 c 0.277 0 0.5 0.223 0.5 0.5 l 0 1.5 l -2 0 l 0 -1.5 c 0 -0.277 0.223 -0.5 0.5 -0.5 z m -13.809 3.996 l 7.617 0.004 c 0.846 0 1.691 0.709 1.691 1.424 l 0 8.145 c 0 0.714 -0.845 1.432 -1.691 1.432 l -7.617 0 c -0.106 0 -0.212 -0.012 -0.316 -0.033 c -0.729 -0.146 -1.375 -0.771 -1.375 -1.396 l 0 -8.145 c 0 -0.714 0.845 -1.426 1.691 -1.426 l 0 -0.004 z m 11.309 0.004 l 7.309 0 c 0.846 0 1.689 0.711 1.689 1.426 l 0 8.145 c 0 0.714 -0.843 1.43 -1.689 1.43 l -7.309 0 l 0 -11 z m 2.5 0.998 c -0.277 0 -0.5 0.223 -0.5 0.5 c 0 0.277 0.223 0.502 0.5 0.502 l 1 0 c 0.277 0 0.5 -0.225 0.5 -0.502 c 0 -0.277 -0.223 -0.5 -0.5 -0.5 l -1 0 z m 3 0 c -0.277 0 -0.5 0.223 -0.5 0.5 c 0 0.277 0.223 0.502 0.5 0.502 l 1 0 c 0.277 0 0.5 -0.225 0.5 -0.502 c 0 -0.277 -0.223 -0.5 -0.5 -0.5 l -1 0 z m -13 1 c -1.933 0 -3.5 1.567 -3.5 3.5 c 0 1.933 1.567 3.5 3.5 3.5 c 1.933 0 3.5 -1.567 3.5 -3.5 c 0 -1.933 -1.567 -3.5 -3.5 -3.5 z m 10 0.998 c -0.277 0 -0.5 0.223 -0.5 0.5 c 0 0.277 0.223 0.502 0.5 0.502 l 1 0 c 0.277 0 0.5 -0.225 0.5 -0.502 c 0 -0.277 -0.223 -0.5 -0.5 -0.5 l -1 0 z m 3 0 c -0.277 0 -0.5 0.223 -0.5 0.5 c 0 0.277 0.223 0.502 0.5 0.502 l 1 0 c 0.277 0 0.5 -0.225 0.5 -0.502 c 0 -0.277 -0.223 -0.5 -0.5 -0.5 l -1 0 z m -13 1 c 0.828 0 1.5 0.672 1.5 1.5 c 0 0.828 -0.672 1.5 -1.5 1.5 c -0.828 0 -1.5 -0.672 -1.5 -1.5 c 0 -0.828 0.672 -1.5 1.5 -1.5 z m 13 0.998 c -0.277 0 -0.5 0.223 -0.5 0.5 c 0 0.277 0.223 0.502 0.5 0.502 l 1 0 c 0.277 0 0.5 -0.225 0.5 -0.502 c 0 -0.277 -0.223 -0.5 -0.5 -0.5 l -1 0 z m -3 0.002 c -0.277 0 -0.5 0.221 -0.5 0.498 c 0 0.277 0.223 0.502 0.5 0.502 l 1 0 c 0.277 0 0.5 -0.225 0.5 -0.502 c 0 -0.277 -0.223 -0.498 -0.5 -0.498 l -1 0 z m 4.5 3 c -0.552 0 -1 0.448 -1 1 c 0 0.552 0.448 1 1 1 c 0.552 0 1 -0.448 1 -1 c 0 -0.552 -0.448 -1 -1 -1 z" mix-blend-mode="normal" solid-color="#000000" white-space="normal" isolation="auto" solid-opacity="1" style="visibility:visible;shape-rendering:auto;color-interpolation-filters:linearRGB;fill:#f9eff1;opacity:1;image-rendering:auto;fill-opacity:1;stroke:none;display:inline;color:#000;fill-rule:evenodd;color-rendering:auto;color-interpolation:sRGB"/>
</svg>
