<svg viewBox="0 0 48 48" xmlns="http://www.w3.org/2000/svg" xmlns:xlink="http://www.w3.org/1999/xlink">
  <linearGradient id="a" gradientUnits="userSpaceOnUse" x1="1" x2="47">
    <stop offset="0" stop-color="#407cc0"/>
    <stop offset="1" stop-color="#4f86c5"/>
  </linearGradient>
  <path d="m24 1c22.703 0 23 .297 23 23 0 22.703-.297 23-23 23-22.703 0-23-.297-23-23 0-22.703.297-23 23-23z" fill="url(#a)" transform="matrix(0 -1 1 0 0 48)"/>
  <path d="m13 13v8l4 4-4 4v8h8l4-4 4 4h8v-8l-4-4 4-4v-8h-8l-4 4-4-4z" opacity=".1"/>
  <path d="m12 12v8l4 4-4 4v8h8l4-4 4 4h8v-8l-4-4 4-4v-8h-8l-4 4-4-4z" fill="#373765"/>
  <path d="m13 13v7l4 4-4 4v7h7l4-4 4 4h7v-7l-4-4 4-4v-7h-7l-4 4-4-4z" fill="#6c6caf"/>
  <path d="m14 14v6l4 4-4 4v6h6l4-4 4 4h6v-6l-4-4 4-4v-6h-6l-4 4-4-4z" fill="#9898c7"/>
</svg>
