<svg xmlns="http://www.w3.org/2000/svg" viewBox="0 0 48 48">
 <defs>
  <linearGradient id="linearGradient3871" x1="1" x2="47" gradientUnits="userSpaceOnUse">
   <stop style="stop-color:#407cc0;stop-opacity:1"/>
   <stop offset="1" style="stop-color:#4f86c5;stop-opacity:1"/>
  </linearGradient>
 </defs>
 <g>
  
  
  
 </g>
 <g transform="matrix(0,-1,1,0,0,48)" style="fill:url(#linearGradient3871);fill-opacity:1">
  <path d="M 24,1 C 46.703,1 47,1.297 47,24 47,46.703 46.703,47 24,47 1.297,47 1,46.703 1,24 1,1.297 1.297,1 24,1 z"/>
 </g>
 <g>
  
 </g>
 <path d="m 13 13 0 8 4 4 -4 4 0 8 8 0 4 -4 4 4 8 0 0 -8 -4 -4 4 -4 0 -8 -8 0 -4 4 -4 -4 -8 0 z" style="fill:#000;opacity:0.1;fill-opacity:1;stroke:none"/>
 <path d="m 12 12 l 0 8 l 4 4 l -4 4 l 0 8 l 8 0 l 4 -4 l 4 4 l 8 0 l 0 -8 l -4 -4 l 4 -4 l 0 -8 l -8 0 l -4 4 l -4 -4 l -8 0 z" style="fill:#373765;opacity:1;fill-opacity:1;stroke:none"/>
 <path d="m 13 13 l 0 7 l 4 4 l -4 4 l 0 7 l 7 0 l 4 -4 l 4 4 l 7 0 l 0 -7 l -4 -4 l 4 -4 l 0 -7 l -7 0 l -4 4 l -4 -4 l -7 0 z" style="fill:#6c6caf;fill-opacity:1;stroke:none"/>
 <path d="m 14 14 0 6 4 4 -4 4 0 6 6 0 4 -4 4 4 6 0 0 -6 -4 -4 4 -4 0 -6 -6 0 -4 4 -4 -4 z" style="fill:#9898c7;fill-opacity:1;stroke:none"/>
</svg>
