<svg xmlns="http://www.w3.org/2000/svg" viewBox="0 0 48 48">
 <defs>
  <linearGradient id="linearGradient3764" x1="1" x2="47" gradientUnits="userSpaceOnUse" gradientTransform="matrix(0,-1,1,0,-1.5e-6,47.999998)">
   <stop style="stop-color:#d1bdaf;stop-opacity:1"/>
   <stop offset="1" style="stop-color:#d8c8bc;stop-opacity:1"/>
  </linearGradient>
 </defs>
 <g>
  
  
  
 </g>
 <g>
  <path d="m 47,24 C 47,46.703 46.703,47 24,47 1.297,47 1,46.703 1,24 1,1.297 1.297,1 24,1 46.703,1 47,1.297 47,24 z" style="fill:url(#linearGradient3764);fill-opacity:1"/>
 </g>
 <g>
  <g>
   <g transform="translate(1,1)">
    <g style="opacity:0.1">
     <!-- color: #d8c8bc -->
     <g>
      <path d="m 23.525 13 c -0.158 0 -0.293 0.088 -0.379 0.201 c -0.086 0.114 -0.133 0.258 -0.133 0.414 l 0 2.385 l -5.01 0 l 0 5.996 l -0.467 0 c -0.159 0 -0.293 0.088 -0.381 0.201 c -0.088 0.113 -0.139 0.259 -0.139 0.416 l 0 1.391 l -3.01 -0.004 l 0 7 l -0.475 0 c -0.159 0 -0.292 0.087 -0.379 0.201 c -0.087 0.114 -0.133 0.26 -0.133 0.416 l 0 4.768 c 0 0.153 0.039 0.293 0.125 0.408 c 0.086 0.116 0.227 0.207 0.387 0.207 l 2.949 0 c 0.159 0 0.298 -0.086 0.387 -0.199 c 0.089 -0.114 0.139 -0.259 0.139 -0.416 l 0 -4.768 c 0 -0.155 -0.043 -0.301 -0.131 -0.416 c -0.088 -0.115 -0.235 -0.201 -0.395 -0.201 l -1.475 0 l 0 -5.996 l 2.01 0 l 0 2.377 c 0 0.154 0.046 0.301 0.133 0.416 c 0.087 0.115 0.227 0.199 0.387 0.199 l 2.941 0 c 0.159 0 0.298 -0.086 0.387 -0.199 c 0.089 -0.114 0.139 -0.259 0.139 -0.416 l 0 -2.377 l 1 0 l 0 5.996 l -1.463 0 c -0.317 0 -0.527 0.301 -0.527 0.617 l 0 4.768 c 0 0.156 0.05 0.302 0.139 0.416 c 0.088 0.114 0.229 0.199 0.389 0.199 l 2.947 0 c 0.159 0 0.294 -0.085 0.381 -0.199 c 0.087 -0.114 0.131 -0.26 0.131 -0.416 l 0 -4.768 c 0 -0.153 -0.037 -0.3 -0.123 -0.416 c -0.086 -0.116 -0.229 -0.201 -0.389 -0.201 l -0.484 0 l 0 -7 l -2 0.002 l 0 -1.389 c 0 -0.154 -0.043 -0.301 -0.131 -0.416 c -0.088 -0.115 -0.234 -0.201 -0.395 -0.201 l -1.475 0 l 0 -5 l 4.01 0 l 0 1.389 c 0 0.153 0.04 0.293 0.125 0.408 c 0.085 0.115 0.228 0.207 0.387 0.207 l 2.949 0 c 0.317 0 0.525 -0.297 0.525 -0.615 l 0 -1.389 l 4 0 l 0 5 l -1.467 0 c -0.317 0 -0.52 0.301 -0.52 0.617 l 0 1.389 l -2.01 -0.002 l 0 7 l -0.471 0 c -0.159 0 -0.293 0.088 -0.381 0.201 c -0.088 0.113 -0.137 0.259 -0.137 0.416 l 0 4.768 c 0 0.154 0.044 0.301 0.131 0.416 c 0.087 0.115 0.227 0.199 0.387 0.199 l 2.949 0 c 0.159 0 0.298 -0.086 0.387 -0.199 c 0.089 -0.114 0.131 -0.259 0.131 -0.416 l 0 -4.768 c 0 -0.154 -0.043 -0.301 -0.131 -0.416 c -0.088 -0.115 -0.227 -0.201 -0.387 -0.201 l -1.479 0 l 0 -5.996 l 1.014 0 l 0 2.377 c 0 0.156 0.044 0.302 0.133 0.416 c 0.088 0.114 0.228 0.199 0.387 0.199 l 2.949 0 c 0.159 0 0.292 -0.085 0.379 -0.199 c 0.087 -0.114 0.139 -0.26 0.139 -0.416 l 0 -2.377 l 2 0 l 0 5.996 l -1.48 0 c -0.158 0 -0.295 0.088 -0.381 0.201 c -0.086 0.114 -0.131 0.26 -0.131 0.416 l 0 4.768 c 0 0.153 0.04 0.293 0.125 0.408 c 0.085 0.115 0.228 0.207 0.387 0.207 l 2.947 0 c 0.317 0 0.527 -0.297 0.527 -0.615 l 0 -4.768 c 0 -0.156 -0.05 -0.302 -0.139 -0.416 c -0.088 -0.114 -0.229 -0.201 -0.389 -0.201 l -0.467 0 l 0 -7 l -3 0.004 l 0 -1.391 c 0 -0.153 -0.045 -0.293 -0.131 -0.408 c -0.086 -0.116 -0.227 -0.209 -0.387 -0.209 l -0.482 0 l 0 -5.996 l -5 0 l 0 -2.385 c 0 -0.156 -0.05 -0.3 -0.139 -0.414 c -0.088 -0.114 -0.228 -0.201 -0.387 -0.201 l -2.949 0 z" transform="translate(-1,-1)" style="fill:#000;fill-opacity:1;stroke:none;fill-rule:nonzero"/>
     </g>
    </g>
   </g>
  </g>
 </g>
 <g transform="translate(4.176202e-4,0)">
  <g>
   <!-- color: #d8c8bc -->
   <g>
    <path d="m 26,23 c 0,1.996 0,4.922 0,7 l 1,0 0,-5.996 2,0 0,-1 M 26,23" style="fill:#2d2d2d;fill-opacity:1;stroke:none;fill-rule:nonzero"/>
    <path d="m 17,15 c 0,1.996 0,3.918 0,5.996 l 1,0 0,-5 4,0 L 22,15 m -5,0" style="fill:#2d2d2d;fill-opacity:1;stroke:none;fill-rule:nonzero"/>
    <path d="m 3.56 -7.28 1.346 0 c 0.064 0 0.116 0.043 0.116 0.09 l 0 0.833 c 0 0.05 -0.052 0.087 -0.116 0.087 l -1.346 0 c -0.064 0 -0.116 -0.04 -0.116 -0.087 l 0 -0.833 c 0 -0.05 0.052 -0.09 0.116 -0.09 m 0 0" transform="matrix(0,3.543307,-3.543307,0,0,0)" style="stroke-opacity:1;fill:#d6cfba;stroke-miterlimit:4;fill-opacity:1;stroke:#6f6751;fill-rule:nonzero;stroke-linecap:butt;stroke-linejoin:miter;stroke-width:0.115"/>
    <path d="m 22,23 c 0,1.996 0,4.922 0,7 l -1,0 0,-5.996 -1.996,0 0,-1 M 22,23" style="fill:#2d2d2d;fill-opacity:1;stroke:none;fill-rule:nonzero"/>
    <path d="m 6.1 -5.587 1.346 0 c 0.064 0 0.116 0.041 0.116 0.09 l 0 0.831 c 0 0.051 -0.052 0.089 -0.116 0.089 l -1.346 0 c -0.064 0 -0.116 -0.041 -0.116 -0.089 l 0 -0.831 c 0 -0.052 0.052 -0.09 0.116 -0.09 m 0 0" transform="matrix(0,3.543307,-3.543307,0,0,0)" style="stroke-opacity:1;fill:#d6cfba;stroke-miterlimit:4;fill-opacity:1;stroke:#6f6751;fill-rule:nonzero;stroke-linecap:butt;stroke-linejoin:miter;stroke-width:0.115"/>
    <path d="m 6.1 -8.973 1.346 0 c 0.064 0 0.116 0.04 0.116 0.088 l 0 0.832 c 0 0.05 -0.052 0.09 -0.116 0.09 l -1.346 0 c -0.064 0 -0.116 -0.042 -0.116 -0.09 l 0 -0.832 c 0 -0.051 0.052 -0.088 0.116 -0.088 m 0 0" transform="matrix(0,3.543307,-3.543307,0,0,0)" style="stroke-opacity:1;fill:#d6cfba;stroke-miterlimit:4;fill-opacity:1;stroke:#6f6751;fill-rule:nonzero;stroke-linecap:butt;stroke-linejoin:miter;stroke-width:0.115"/>
    <path d="m 8.64 -6.433 1.346 0 c 0.064 0 0.116 0.04 0.116 0.088 l 0 0.832 c 0 0.05 -0.052 0.09 -0.116 0.09 l -1.346 0 c -0.064 0 -0.116 -0.042 -0.116 -0.09 l 0 -0.832 c 0 -0.051 0.052 -0.088 0.116 -0.088 m 0 0" transform="matrix(0,3.543307,-3.543307,0,0,0)" style="stroke-opacity:1;fill:#d6cfba;stroke-miterlimit:4;fill-opacity:1;stroke:#6f6751;fill-rule:nonzero;stroke-linecap:butt;stroke-linejoin:miter;stroke-width:0.115"/>
    <path d="m 8.64 -8.127 1.346 0 c 0.064 0 0.116 0.041 0.116 0.09 l 0 0.831 c 0 0.051 -0.052 0.089 -0.116 0.089 l -1.346 0 c -0.064 0 -0.116 -0.041 -0.116 -0.089 l 0 -0.831 c 0 -0.052 0.052 -0.09 0.116 -0.09 m 0 0" transform="matrix(0,3.543307,-3.543307,0,0,0)" style="stroke-opacity:1;fill:#d6cfba;stroke-miterlimit:4;fill-opacity:1;stroke:#6f6751;fill-rule:nonzero;stroke-linecap:butt;stroke-linejoin:miter;stroke-width:0.115"/>
    <path d="m 8.64 -10.1 1.346 0 c 0.064 0 0.116 0.043 0.116 0.09 l 0 0.833 c 0 0.05 -0.052 0.087 -0.116 0.087 l -1.346 0 c -0.064 0 -0.116 -0.04 -0.116 -0.087 l 0 -0.833 c 0 -0.05 0.052 -0.09 0.116 -0.09 m 0 0" transform="matrix(0,3.543307,-3.543307,0,0,0)" style="stroke-opacity:1;fill:#d6cfba;stroke-miterlimit:4;fill-opacity:1;stroke:#6f6751;fill-rule:nonzero;stroke-linecap:butt;stroke-linejoin:miter;stroke-width:0.115"/>
    <path d="m 8.64 -4.458 1.346 0 c 0.064 0 0.116 0.041 0.116 0.09 l 0 0.832 c 0 0.051 -0.052 0.088 -0.116 0.088 l -1.346 0 c -0.064 0 -0.116 -0.04 -0.116 -0.088 l 0 -0.832 c 0 -0.051 0.052 -0.09 0.116 -0.09 m 0 0" transform="matrix(0,3.543307,-3.543307,0,0,0)" style="stroke-opacity:1;fill:#d6cfba;stroke-miterlimit:4;fill-opacity:1;stroke:#6f6751;fill-rule:nonzero;stroke-linecap:butt;stroke-linejoin:miter;stroke-width:0.115"/>
    <path d="m 31,15 c 0,1.996 0,3.918 0,5.996 l -1,0 0,-5 -4,0 L 26,15 m 5,0" style="fill:#2d2d2d;fill-opacity:1;stroke:none;fill-rule:nonzero"/>
    <path d="m 13,23 c 0,1.996 0,4.922 0,7 l 1,0 0,-5.996 1.996,0 0,-1 M 13,23" style="fill:#2d2d2d;fill-opacity:1;stroke:none;fill-rule:nonzero"/>
    <path d="m 35,23 c 0,1.996 0,4.922 0,7 l -1,0 0,-5.996 -1.996,0 0,-1 M 35,23" style="fill:#2d2d2d;fill-opacity:1;stroke:none;fill-rule:nonzero"/>
   </g>
  </g>
 </g>
 <g>
  
 </g>
</svg>
