<svg xmlns="http://www.w3.org/2000/svg" viewBox="0 0 48 48">
 <defs>
  <linearGradient id="linearGradient3764" x1="1" x2="47" gradientUnits="userSpaceOnUse" gradientTransform="matrix(0,-1,1,0,-1.5e-6,47.999998)">
   <stop style="stop-color:#e4e4e4;stop-opacity:1"/>
   <stop offset="1" style="stop-color:#eee;stop-opacity:1"/>
  </linearGradient>
 </defs>
 <g>
  
  
  
 </g>
 <g>
  <path d="m 47,24 C 47,46.703 46.703,47 24,47 1.297,47 1,46.703 1,24 1,1.297 1.297,1 24,1 46.703,1 47,1.297 47,24 z" style="fill:url(#linearGradient3764);fill-opacity:1"/>
 </g>
 <g>
  
 </g>
 <g transform="matrix(0.07931484,0,0,0.08280965,9.3764065,11.706947)" style="fill:#75ad43;fill-opacity:1">
  <path d="M 146.3 3.533 A 22.694 21.737 0 0 0 123.6 25.279 22.694 21.737 0 0 0 146.3 47 22.694 21.737 0 0 0 168.98 25.279 22.694 21.737 0 0 0 146.3 3.533 m 50.801 0.212 A 17.02 16.302 0 0 0 180.09 20.04 17.02 16.302 0 0 0 197.11 36.34 17.02 16.302 0 0 0 214.12 20.04 17.02 16.302 0 0 0 197.11 3.745 m 44.645 2.807 A 15.13 14.491 0 0 0 226.61 21.03 15.13 14.491 0 0 0 241.75 35.539 15.13 14.491 0 0 0 256.87 21.03 15.13 14.491 0 0 0 241.75 6.552 M 80.998 17.213 A 35.3 33.812 0 0 0 45.686 51.03 35.3 33.812 0 0 0 80.998 84.83 35.3 33.812 0 0 0 116.29 51.03 35.3 33.812 0 0 0 80.998 17.213 M 224.73 47.43 c -2.543 -0.053 -5.101 0.014 -7.634 0.165 -11.46 0.685 -90.85 28.436 -101.36 38.09 -15.22 13.983 -12.305 39.32 -1.65 56.35 11.432 18.268 40.14 19.265 64.862 18.04 21.18 -1.047 54.43 23.971 38.32 53.23 -17.12 31.08 -30.19 51.35 -27.432 68.35 2.758 16.998 21.337 30.739 57.2 35.28 54.54 6.911 101.7 -49.744 60.16 -120.52 -11.421 -19.46 -22.02 -29.934 -31.05 -40.28 C 248.55 124.48 260.9 84.87 260.59 77.946 259.52 54.03 242.53 47.798 224.73 47.43" style="fill:#000;opacity:0.1;stroke:none"/>
  <ellipse ry="33.812" rx="35.3" cy="38.961" cx="68.38" style="fill:#6a9f3f;opacity:1;stroke:none"/>
  <ellipse ry="21.737" rx="22.694" cy="13.2" cx="133.69" style="fill:#6a9f3f;opacity:1;stroke:none"/>
  <ellipse cy="7.98" cx="184.5" rx="17.02" ry="16.302" style="fill:#6a9f3f;opacity:1;stroke:none"/>
  <ellipse cy="8.973" cx="229.13" rx="15.13" ry="14.491" style="fill:#6a9f3f;opacity:1;stroke:none"/>
  <path d="m 204.5 35.517 c 20.26 -1.212 42.25 3.02 43.47 30.347 0.309 6.921 -12.04 46.543 15.564 78.19 9.03 10.351 19.65 20.823 31.07 40.28 41.539 70.779 -5.62 127.44 -60.16 120.52 -35.866 -4.545 -54.46 -18.276 -57.22 -35.27 -2.758 -16.998 10.317 -37.26 27.434 -68.34 16.11 -29.26 -17.13 -54.28 -38.31 -53.23 -24.719 1.222 -53.42 0.206 -64.853 -18.06 -10.655 -17.03 -13.589 -42.36 1.631 -56.34 10.509 -9.655 89.91 -37.408 101.37 -38.09 z" style="fill:#6a9f3f;opacity:1;stroke:none"/>
 </g>
</svg>
