<svg viewBox="0 0 48 48" xmlns="http://www.w3.org/2000/svg" xmlns:xlink="http://www.w3.org/1999/xlink">
  <linearGradient id="a" gradientTransform="matrix(0 -1 1 0 -.0000015 47.999998)" gradientUnits="userSpaceOnUse" x1="1" x2="47">
    <stop offset="0" stop-color="#e4e4e4"/>
    <stop offset="1" stop-color="#eee"/>
  </linearGradient>
  <path d="m47 24c0 22.703-.297 23-23 23-22.703 0-23-.297-23-23 0-22.703.297-23 23-23 22.703 0 23 .297 23 23z" fill="url(#a)"/>
  <path d="m24 1v7h-7v-5.906c-.337.108-.67.221-1 .344v5.563h-7v-1.438c-.346.298-.673.62-1 .938v.5h-.5c-.318.327-.64.654-.938 1h1.438v7h-5.563c-.123.33-.236.663-.344 1h5.906v7h-7c0 .334.017.669.031 1h6.969v7h-5.563c.127.342.264.666.406 1h5.156v7h-.5c.481.496.976.986 1.5 1.438v-.438h7v4.563c.33.123.663.236 1 .344v-4.906h7v6c .334 0 .669-.017 1-.031v-5.969h7v4.563c.342-.127.666-.264 1-.406v-4.156h6.5c.522-.476 1.024-.978 1.5-1.5v-6.5h4.156c.142-.334.279-.658.406-1h-4.563v-7h5.969c.014-.331.031-.666.031-1h-6v-7h4.906c-.108-.337-.221-.67-.344-1h-4.563v-7h .438c-.451-.524-.941-1.019-1.438-1.5v.5h-7v-5.156c-.334-.142-.658-.279-1-.406v5.563h-7v-6.969c-.331-.014-.666-.031-1-.031zm-15 8h7v7h-7zm8 0h7v7h-7zm8 0h7v7h-7zm8 0h7v7h-7zm-24 8h7v7h-7zm8 0h7v7h-7zm8 0h7v7h-7zm8 0h7v7h-7zm-24 8h7v7h-7zm8 0h7v7h-7zm8 0h7v7h-7zm8 0h7v7h-7zm-24 8h7v7h-7zm8 0h7v7h-7zm8 0h7v7h-7zm8 0h7v7h-7z" fill="#a0dad0"/>
  <path d="m37 16l-6.03 7.756a1 1 0 0 1  .031.244 1 1 0 0 1-1 1 1 1 0 0 1-1-1 1 1 0 0 1  .1-.438l-4.1-6.563-5 5a1 1 0 0 1-1 1 1 1 0 0 1-1-1l-1-1-3 3a1 1 0 0 1-1 1v9h24v-18z" fill-opacity=".784" opacity=".1"/>
  <path d="m37 14a1 1 0 0 0-1 1 1 1 0 0 0  .13.49l-5.87 7.55a1 1 0 0 0-.26-.04 1 1 0 0 0-.07 0l-4.065-6.502a1 1 0 0 0  .135-.498 1 1 0 0 0-1-1 1 1 0 0 0-1 1 1 1 0 0 0  .12.469l-4.651 4.651a1 1 0 0 0-.469-.12 1 1 0 0 0-.469.12l-.648-.651a1 1 0 0 0  .117-.469 1 1 0 0 0-1-1 1 1 0 0 0-1 1 1 1 0 0 0  .12.469l-2.651 2.651a1 1 0 0 0-.469-.12 1 1 0 0 0-1 1 1 1 0 0 0  1 1 1 1 0 0 0  1-1l3-3 1 1a1 1 0 0 0 1 1 1 1 0 0 0  1-1l5-5 4.1 6.563a1 1 0 0 0-.1.437 1 1 0 0 0  1 1 1 1 0 0 0  1-1 1 1 0 0 0-.031-.244l6.031-7.756a1 1 0 0 0 1-1 1 1 0 0 0-1-1z" opacity=".12"/>
  <path d="m12 24l4-4 2 2 6-6 5 8 7-9v18h-24z" fill="#6d94bf" fill-opacity=".536"/>
  <path d="m36 13a1 1 0 0 0-1 1 1 1 0 0 0  .13.49l-5.87 7.55a1 1 0 0 0-.26-.04 1 1 0 0 0-.07 0l-4.065-6.502a1 1 0 0 0  .135-.498 1 1 0 0 0-1-1 1 1 0 0 0-1 1 1 1 0 0 0  .12.469l-4.651 4.651a1 1 0 0 0-.469-.12 1 1 0 0 0-.469.12l-.648-.651a1 1 0 0 0  .117-.469 1 1 0 0 0-1-1 1 1 0 0 0-1 1 1 1 0 0 0  .12.469l-2.651 2.651a1 1 0 0 0-.469-.12 1 1 0 0 0-1 1 1 1 0 0 0  1 1 1 1 0 0 0  1-1l3-3 1 1a1 1 0 0 0 1 1 1 1 0 0 0  1-1l5-5 4.1 6.563a1 1 0 0 0-.1.437 1 1 0 0 0  1 1 1 1 0 0 0  1-1 1 1 0 0 0-.031-.244l6.031-7.756a1 1 0 0 0 1-1 1 1 0 0 0-1-1z" fill="#505050"/>
</svg>
