<svg xmlns="http://www.w3.org/2000/svg" viewBox="0 0 48 48">
 <defs>
  <linearGradient id="linearGradient3764" x1="1" x2="47" gradientUnits="userSpaceOnUse" gradientTransform="matrix(0,-1,1,0,-1.5e-6,47.999998)">
   <stop style="stop-color:#e4e4e4;stop-opacity:1"/>
   <stop offset="1" style="stop-color:#eee;stop-opacity:1"/>
  </linearGradient>
 </defs>
 <g>
  
  
  
 </g>
 <g>
  <path d="m 47,24 C 47,46.703 46.703,47 24,47 1.297,47 1,46.703 1,24 1,1.297 1.297,1 24,1 46.703,1 47,1.297 47,24 z" style="fill:url(#linearGradient3764);fill-opacity:1"/>
 </g>
 <path d="m 24 1 0 7 -7 0 0 -5.906 c -0.337 0.108 -0.67 0.221 -1 0.344 l 0 5.563 -7 0 0 -1.438 c -0.346 0.298 -0.673 0.62 -1 0.938 l 0 0.5 -0.5 0 c -0.318 0.327 -0.64 0.654 -0.938 1 l 1.438 0 0 7 -5.563 0 c -0.123 0.33 -0.236 0.663 -0.344 1 l 5.906 0 0 7 -7 0 c 0 0.334 0.017 0.669 0.031 1 l 6.969 0 0 7 -5.563 0 c 0.127 0.342 0.264 0.666 0.406 1 l 5.156 0 0 7 -0.5 0 c 0.481 0.496 0.976 0.986 1.5 1.438 l 0 -0.438 l 7 0 0 4.563 c 0.33 0.123 0.663 0.236 1 0.344 l 0 -4.906 l 7 0 0 6 c 0.334 0 0.669 -0.017 1 -0.031 l 0 -5.969 l 7 0 0 4.563 c 0.342 -0.127 0.666 -0.264 1 -0.406 l 0 -4.156 l 6.5 0 c 0.522 -0.476 1.024 -0.978 1.5 -1.5 l 0 -6.5 4.156 0 c 0.142 -0.334 0.279 -0.658 0.406 -1 l -4.563 0 l 0 -7 5.969 0 c 0.014 -0.331 0.031 -0.666 0.031 -1 l -6 0 0 -7 4.906 0 c -0.108 -0.337 -0.221 -0.67 -0.344 -1 l -4.563 0 0 -7 0.438 0 c -0.451 -0.524 -0.941 -1.019 -1.438 -1.5 l 0 0.5 -7 0 0 -5.156 c -0.334 -0.142 -0.658 -0.279 -1 -0.406 l 0 5.563 -7 0 0 -6.969 c -0.331 -0.014 -0.666 -0.031 -1 -0.031 z m -15 8 7 0 0 7 -7 0 0 -7 z m 8 0 7 0 0 7 -7 0 0 -7 z m 8 0 7 0 0 7 -7 0 0 -7 z m 8 0 7 0 0 7 -7 0 0 -7 z m -24 8 7 0 0 7 -7 0 0 -7 z m 8 0 7 0 0 7 -7 0 0 -7 z m 8 0 7 0 0 7 -7 0 0 -7 z m 8 0 7 0 0 7 -7 0 0 -7 z m -24 8 7 0 0 7 -7 0 0 -7 z m 8 0 7 0 0 7 -7 0 0 -7 z m 8 0 7 0 0 7 -7 0 0 -7 z m 8 0 7 0 0 7 -7 0 0 -7 z m -24 8 7 0 0 7 -7 0 0 -7 z m 8 0 7 0 0 7 -7 0 0 -7 z m 8 0 7 0 0 7 -7 0 0 -7 z m 8 0 7 0 0 7 -7 0 0 -7 z" style="fill:#a0dad0;fill-opacity:1"/>
 <path d="m 37 16 l -6.03 7.756 a 1 1 0 0 1 0.031 0.244 a 1 1 0 0 1 -1 1 a 1 1 0 0 1 -1 -1 a 1 1 0 0 1 0.1 -0.438 l -4.1 -6.563 l -5 5 a 1 1 0 0 1 -1 1 a 1 1 0 0 1 -1 -1 l -1 -1 l -3 3 a 1 1 0 0 1 -1 1 l 0 9 l 24 0 l 0 -18 z" style="fill:#000;opacity:0.1;fill-opacity:0.784;stroke:none"/>
 <g>
  
 </g>
 <path white-space="normal" isolation="auto" mix-blend-mode="normal" d="m 37 14 a 1 1 0 0 0 -1 1 1 1 0 0 0 0.13 0.49 l -5.87 7.55 A 1 1 0 0 0 30 23 1 1 0 0 0 29.93 23 L 25.865 16.498 A 1 1 0 0 0 26 16 a 1 1 0 0 0 -1 -1 1 1 0 0 0 -1 1 1 1 0 0 0 0.12 0.469 L 19.469 21.12 A 1 1 0 0 0 19 21 1 1 0 0 0 18.531 21.12 L 17.883 20.469 A 1 1 0 0 0 18 20 a 1 1 0 0 0 -1 -1 1 1 0 0 0 -1 1 1 1 0 0 0 0.12 0.469 L 13.469 23.12 A 1 1 0 0 0 13 23 a 1 1 0 0 0 -1 1 1 1 0 0 0 1 1 1 1 0 0 0 1 -1 l 3 -3 1 1 a 1 1 0 0 0 1 1 1 1 0 0 0 1 -1 l 5 -5 4.1 6.563 A 1 1 0 0 0 29 24 a 1 1 0 0 0 1 1 1 1 0 0 0 1 -1 1 1 0 0 0 -0.031 -0.244 L 37 16 a 1 1 0 0 0 1 -1 1 1 0 0 0 -1 -1 z" solid-color="#000000" solid-opacity="1" style="visibility:visible;shape-rendering:auto;color-interpolation-filters:linearRGB;fill:#000;opacity:0.12;image-rendering:auto;fill-opacity:1;stroke:none;display:inline;color:#000;fill-rule:nonzero;color-rendering:auto;color-interpolation:sRGB"/>
 <path d="m 12 24 4 -4 2 2 6 -6 5 8 7 -9 0 18 -24 0 z" style="fill:#6d94bf;opacity:1;fill-opacity:0.536;stroke:none"/>
 <path d="m 36 13 a 1 1 0 0 0 -1 1 1 1 0 0 0 0.13 0.49 l -5.87 7.55 A 1 1 0 0 0 29 22 1 1 0 0 0 28.93 22 L 24.865 15.498 A 1 1 0 0 0 25 15 a 1 1 0 0 0 -1 -1 1 1 0 0 0 -1 1 1 1 0 0 0 0.12 0.469 L 18.469 20.12 A 1 1 0 0 0 18 20 1 1 0 0 0 17.531 20.12 L 16.883 19.469 A 1 1 0 0 0 17 19 a 1 1 0 0 0 -1 -1 1 1 0 0 0 -1 1 1 1 0 0 0 0.12 0.469 L 12.469 22.12 A 1 1 0 0 0 12 22 a 1 1 0 0 0 -1 1 1 1 0 0 0 1 1 1 1 0 0 0 1 -1 l 3 -3 1 1 a 1 1 0 0 0 1 1 1 1 0 0 0 1 -1 l 5 -5 4.1 6.563 A 1 1 0 0 0 28 23 a 1 1 0 0 0 1 1 1 1 0 0 0 1 -1 1 1 0 0 0 -0.031 -0.244 L 36 15 a 1 1 0 0 0 1 -1 1 1 0 0 0 -1 -1 z" mix-blend-mode="normal" isolation="auto" white-space="normal" solid-color="#000000" solid-opacity="1" style="visibility:visible;shape-rendering:auto;color-interpolation-filters:linearRGB;fill:#505050;opacity:1;image-rendering:auto;fill-opacity:1;stroke:none;display:inline;color:#000;fill-rule:nonzero;color-rendering:auto;color-interpolation:sRGB"/>
</svg>
