<svg viewBox="0 0 48 48" xmlns="http://www.w3.org/2000/svg" xmlns:xlink="http://www.w3.org/1999/xlink">
  <linearGradient id="a" gradientTransform="matrix(0 -1 1 0 -.0000015 47.999998)" gradientUnits="userSpaceOnUse" x1="1" x2="47">
    <stop offset="0" stop-color="#7eadd2"/>
    <stop offset="1" stop-color="#8db7d7"/>
  </linearGradient>
  <linearGradient id="b" gradientTransform="matrix(3.635929 0 0 3.453044 -1 0)" gradientUnits="userSpaceOnUse" x1="9.08" x2="8.801" y1="10.715" y2="3.186">
    <stop offset="0" stop-color="#e5e5e5"/>
    <stop offset="1" stop-color="#f9f9f9"/>
  </linearGradient>
  <path d="m47 24c0 22.703-.297 23-23 23-22.703 0-23-.297-23-23 0-22.703.297-23 23-23 22.703 0 23 .297 23 23z" fill="url(#a)"/>
  <path d="m26.336 13.594c-3.875 0-6.293 2.762-7.25 7.406h8.914v2h-9.168l-.039.785v1.109l.039 1.105h8.168v2h-7.879c.449 2.074 1.289 3.586 2.512 4.727 1.242 1.129 2.891 1.695 4.957 1.695 1.895 0 3.77-.379 5.629-1.141v2.594c-1.773.746-3.699 1.125-5.773 1.125-2.883 0-5.195-.773-6.961-2.316-1.75-1.559-2.902-3.719-3.461-6.684h-3.02v-2h2.766l-.035-1.055v-.762l.035-1.18h-2.766v-2h2.988c.473-3.01 1.594-5.789 3.371-7.48 1.773-1.684 4.098-2.52 6.977-2.52 2.438 0 4.66.559 6.668 1.68l-1.297 2.402c-2.01-.992-3.805-1.488-5.371-1.488" opacity=".1" transform="translate(1 1)"/>
  <path d="m26.336 13.594c-3.875 0-6.293 2.762-7.25 7.406h8.914v2h-9.168l-.039.785v1.109l.039 1.105h8.168v2h-7.879c.449 2.074 1.289 3.586 2.512 4.727 1.242 1.129 2.891 1.695 4.957 1.695 1.895 0 3.77-.379 5.629-1.141v2.594c-1.773.746-3.699 1.125-5.773 1.125-2.883 0-5.195-.773-6.961-2.316-1.75-1.559-2.902-3.719-3.461-6.684h-3.02v-2h2.766l-.035-1.055v-.762l.035-1.18h-2.766v-2h2.988c.473-3.01 1.594-5.789 3.371-7.48 1.773-1.684 4.098-2.52 6.977-2.52 2.438 0 4.66.559 6.668 1.68l-1.297 2.402c-2.01-.992-3.805-1.488-5.371-1.488" fill="url(#b)"/>
</svg>
