<svg xmlns="http://www.w3.org/2000/svg" viewBox="0 0 48 48">
 <defs>
  <linearGradient id="linearGradient3764" x1="1" x2="47" gradientUnits="userSpaceOnUse" gradientTransform="matrix(0,-1,1,0,-1.5e-6,47.999998)">
   <stop style="stop-color:#7eadd2;stop-opacity:1"/>
   <stop offset="1" style="stop-color:#8db7d7;stop-opacity:1"/>
  </linearGradient>
  <linearGradient id="linear0" gradientUnits="userSpaceOnUse" x1="9.08" y1="10.715" x2="8.801" y2="3.186" gradientTransform="matrix(3.635929,0,0,3.453044,-1,0)">
   <stop style="stop-color:#e5e5e5;stop-opacity:1"/>
   <stop offset="1" style="stop-color:#f9f9f9;stop-opacity:1"/>
  </linearGradient>
 </defs>
 <g>
  
  
  
 </g>
 <g>
  <path d="m 47,24 C 47,46.703 46.703,47 24,47 1.297,47 1,46.703 1,24 1,1.297 1.297,1 24,1 46.703,1 47,1.297 47,24 z" style="fill:url(#linearGradient3764);fill-opacity:1"/>
 </g>
 <g>
  <g>
   <g transform="translate(1,1)">
    <g style="opacity:0.1">
     <!-- color: #8db7d7 -->
     <g>
      <path d="m 26.336 13.594 c -3.875 0 -6.293 2.762 -7.25 7.406 l 8.914 0 l 0 2 l -9.168 0 l -0.039 0.785 l 0 1.109 l 0.039 1.105 l 8.168 0 l 0 2 l -7.879 0 c 0.449 2.074 1.289 3.586 2.512 4.727 c 1.242 1.129 2.891 1.695 4.957 1.695 c 1.895 0 3.77 -0.379 5.629 -1.141 l 0 2.594 c -1.773 0.746 -3.699 1.125 -5.773 1.125 c -2.883 0 -5.195 -0.773 -6.961 -2.316 c -1.75 -1.559 -2.902 -3.719 -3.461 -6.684 l -3.02 0 l 0 -2 l 2.766 0 l -0.035 -1.055 l 0 -0.762 l 0.035 -1.18 l -2.766 0 l 0 -2 l 2.988 0 c 0.473 -3.01 1.594 -5.789 3.371 -7.48 c 1.773 -1.684 4.098 -2.52 6.977 -2.52 c 2.438 0 4.66 0.559 6.668 1.68 l -1.297 2.402 c -2.01 -0.992 -3.805 -1.488 -5.371 -1.488" style="fill:#000;stroke:none;fill-rule:nonzero"/>
     </g>
    </g>
   </g>
  </g>
 </g>
 <g>
  <g>
   <!-- color: #8db7d7 -->
   <g>
    <path d="m 26.336 13.594 c -3.875 0 -6.293 2.762 -7.25 7.406 l 8.914 0 l 0 2 l -9.168 0 l -0.039 0.785 l 0 1.109 l 0.039 1.105 l 8.168 0 l 0 2 l -7.879 0 c 0.449 2.074 1.289 3.586 2.512 4.727 c 1.242 1.129 2.891 1.695 4.957 1.695 c 1.895 0 3.77 -0.379 5.629 -1.141 l 0 2.594 c -1.773 0.746 -3.699 1.125 -5.773 1.125 c -2.883 0 -5.195 -0.773 -6.961 -2.316 c -1.75 -1.559 -2.902 -3.719 -3.461 -6.684 l -3.02 0 l 0 -2 l 2.766 0 l -0.035 -1.055 l 0 -0.762 l 0.035 -1.18 l -2.766 0 l 0 -2 l 2.988 0 c 0.473 -3.01 1.594 -5.789 3.371 -7.48 c 1.773 -1.684 4.098 -2.52 6.977 -2.52 c 2.438 0 4.66 0.559 6.668 1.68 l -1.297 2.402 c -2.01 -0.992 -3.805 -1.488 -5.371 -1.488" style="fill:url(#linear0);stroke:none;fill-rule:nonzero"/>
   </g>
  </g>
 </g>
 <g>
  
 </g>
</svg>
