<svg xmlns="http://www.w3.org/2000/svg" viewBox="0 0 48 48">
 <defs>
  <linearGradient id="linearGradient3764" x1="1" x2="47" gradientUnits="userSpaceOnUse" gradientTransform="matrix(0,-1,1,0,-1.5e-6,47.999998)">
   <stop style="stop-color:#f69b1a;stop-opacity:1"/>
   <stop offset="1" style="stop-color:#f7a52d;stop-opacity:1"/>
  </linearGradient>
 </defs>
 <g>
  
  
  
 </g>
 <g>
  <path d="m 47,24 C 47,46.703 46.703,47 24,47 1.297,47 1,46.703 1,24 1,1.297 1.297,1 24,1 46.703,1 47,1.297 47,24 z" style="fill:url(#linearGradient3764);fill-opacity:1"/>
 </g>
 <g>
  <g>
   <g transform="translate(1,1)">
    <g style="opacity:0.1">
     <!-- color: #f7a52d -->
     <g>
      <path d="m 24.24 9 c 7.188 0 14.758 5.805 14.758 14.938 c 0 9.06 -7.352 15.06 -14.723 15.06 c -8.746 0 -15.02 -6.473 -15.277 -14.516 c 0 -8.254 5.824 -15.484 15.242 -15.484 m 11.523 15.07 c 0.285 -7.508 -5.891 -11.938 -11.258 -11.938 c -5.078 0 -10.145 2.047 -12.172 9.605 c -0.375 1.398 -0.23 3.816 0.527 4.41 c 1.012 0.805 3.105 -0.043 4.422 -1.793 c 1.727 -2.566 1.824 -5.883 1.313 -8.867 c -0.094 -0.348 -0.07 -0.363 0.434 -0.258 c 4.422 1.168 7.469 4.746 10.211 8.184 c 2 2.992 6.188 6.535 6.535 0.652 m -0.012 0.004" style="fill:#000;fill-opacity:1;stroke:none;fill-rule:nonzero"/>
     </g>
    </g>
   </g>
  </g>
 </g>
 <g>
  <g>
   <!-- color: #f7a52d -->
   <g>
    <path d="m 24.24 9 c 7.188 0 14.758 5.805 14.758 14.938 c 0 9.06 -7.352 15.06 -14.723 15.06 c -8.746 0 -15.02 -6.473 -15.277 -14.516 c 0 -8.254 5.824 -15.484 15.242 -15.484 m 11.523 15.07 c 0.285 -7.508 -5.891 -11.938 -11.258 -11.938 c -5.078 0 -10.145 2.047 -12.172 9.605 c -0.375 1.398 -0.23 3.816 0.527 4.41 c 1.012 0.805 3.105 -0.043 4.422 -1.793 c 1.727 -2.566 1.824 -5.883 1.313 -8.867 c -0.094 -0.348 -0.07 -0.363 0.434 -0.258 c 4.422 1.168 7.469 4.746 10.211 8.184 c 2 2.992 6.188 6.535 6.535 0.652 m -0.012 0.004" style="fill:#2e2e2e;fill-opacity:1;stroke:none;fill-rule:nonzero"/>
   </g>
  </g>
 </g>
 <g>
  
 </g>
</svg>
