<svg xmlns="http://www.w3.org/2000/svg" viewBox="0 0 48 48">
 <defs>
  <linearGradient id="linearGradient3764" x1="1" x2="47" gradientUnits="userSpaceOnUse" gradientTransform="matrix(0,-1,1,0,-1.5e-6,47.999998)">
   <stop style="stop-color:#b1b1b1;stop-opacity:1"/>
   <stop offset="1" style="stop-color:#bbb;stop-opacity:1"/>
  </linearGradient>
 </defs>
 <g>
  
  
  
 </g>
 <g>
  <path d="m 47,24 C 47,46.703 46.703,47 24,47 1.297,47 1,46.703 1,24 1,1.297 1.297,1 24,1 46.703,1 47,1.297 47,24 z" style="fill:url(#linearGradient3764);fill-opacity:1"/>
 </g>
 <g>
  <g>
   <g transform="translate(1,1)">
    <g style="opacity:0.1">
     <!-- color: #bbbbbb -->
     <g>
      <path d="m 24.24 9 c 7.188 0 14.758 5.805 14.758 14.941 c 0 9.06 -7.352 15.06 -14.723 15.06 c -8.746 0 -15.02 -6.473 -15.277 -14.516 c 0 -8.254 5.82 -15.484 15.242 -15.484 m 11.527 15.07 c 0.285 -7.508 -5.891 -11.941 -11.258 -11.941 c -5.078 0 -10.148 2.047 -12.172 9.609 c -0.375 1.402 -0.23 3.816 0.531 4.41 c 1.012 0.801 3.105 -0.043 4.422 -1.793 c 1.719 -2.566 1.82 -5.883 1.305 -8.863 c -0.09 -0.352 -0.066 -0.367 0.438 -0.258 c 4.422 1.168 7.477 4.742 10.211 8.184 c 2 2.996 6.188 6.539 6.523 0.652 m 0 0" style="fill:#000;fill-opacity:1;stroke:none;fill-rule:nonzero"/>
     </g>
    </g>
   </g>
  </g>
 </g>
 <g>
  <g>
   <!-- color: #bbbbbb -->
   <g>
    <path d="m 24.24 9 c 7.188 0 14.758 5.805 14.758 14.941 c 0 9.06 -7.352 15.06 -14.723 15.06 c -8.746 0 -15.02 -6.473 -15.277 -14.516 c 0 -8.254 5.82 -15.484 15.242 -15.484 m 11.527 15.07 c 0.285 -7.508 -5.891 -11.941 -11.258 -11.941 c -5.078 0 -10.148 2.047 -12.172 9.609 c -0.375 1.402 -0.23 3.816 0.531 4.41 c 1.012 0.801 3.105 -0.043 4.422 -1.793 c 1.719 -2.566 1.82 -5.883 1.305 -8.863 c -0.09 -0.352 -0.066 -0.367 0.438 -0.258 c 4.422 1.168 7.477 4.742 10.211 8.184 c 2 2.996 6.188 6.539 6.523 0.652 m 0 0" style="fill:#2e2e2e;fill-opacity:1;stroke:none;fill-rule:nonzero"/>
   </g>
  </g>
 </g>
 <g>
  
 </g>
</svg>
