<svg viewBox="0 0 48 48" xmlns="http://www.w3.org/2000/svg" xmlns:xlink="http://www.w3.org/1999/xlink">
  <linearGradient id="a" gradientTransform="matrix(0 -1 1 0 -.0000015 47.999998)" gradientUnits="userSpaceOnUse" x1="1" x2="47">
    <stop offset="0" stop-color="#b1b1b1"/>
    <stop offset="1" stop-color="#bbb"/>
  </linearGradient>
  <path d="m47 24c0 22.703-.297 23-23 23-22.703 0-23-.297-23-23 0-22.703.297-23 23-23 22.703 0 23 .297 23 23z" fill="url(#a)"/>
  <path d="m24.24 9c7.188 0 14.758 5.805 14.758 14.941 0 9.06-7.352 15.06-14.723 15.06-8.746 0-15.02-6.473-15.277-14.516 0-8.254 5.82-15.484 15.242-15.484m11.527 15.07c.285-7.508-5.891-11.941-11.258-11.941-5.078 0-10.148 2.047-12.172 9.609-.375 1.402-.23 3.816.531 4.41 1.012.801 3.105-.043 4.422-1.793 1.719-2.566 1.82-5.883 1.305-8.863-.09-.352-.066-.367.438-.258 4.422 1.168 7.477 4.742 10.211 8.184 2 2.996 6.188 6.539 6.523.652m0 0" opacity=".1" transform="translate(1 1)"/>
  <path d="m24.24 9c7.188 0 14.758 5.805 14.758 14.941 0 9.06-7.352 15.06-14.723 15.06-8.746 0-15.02-6.473-15.277-14.516 0-8.254 5.82-15.484 15.242-15.484m11.527 15.07c.285-7.508-5.891-11.941-11.258-11.941-5.078 0-10.148 2.047-12.172 9.609-.375 1.402-.23 3.816.531 4.41 1.012.801 3.105-.043 4.422-1.793 1.719-2.566 1.82-5.883 1.305-8.863-.09-.352-.066-.367.438-.258 4.422 1.168 7.477 4.742 10.211 8.184 2 2.996 6.188 6.539 6.523.652m0 0" fill="#2e2e2e"/>
</svg>
