<svg viewBox="0 0 48 48" xmlns="http://www.w3.org/2000/svg" xmlns:xlink="http://www.w3.org/1999/xlink">
  <linearGradient id="a" gradientTransform="matrix(0 -1 1 0 -.0000015 47.999998)" gradientUnits="userSpaceOnUse" x1="1" x2="47">
    <stop offset="0" stop-color="#355473"/>
    <stop offset="1" stop-color="#3b5d80"/>
  </linearGradient>
  <path d="m47 24c0 22.703-.297 23-23 23-22.703 0-23-.297-23-23 0-22.703.297-23 23-23 22.703 0 23 .297 23 23z" fill="url(#a)"/>
  <path d="m23 10v15h1.25v3.076c-1.013.192-1.75.753-1.75 1.424 0 .67.737 1.232 1.75 1.424v2.076h1.5v-2.076c1.013-.192 1.75-.753 1.75-1.424 0-.67-.737-1.232-1.75-1.424v-3.076h1.25v-15zm-2 .5c-6.359 1.766-11 7.617-11 14.469 0 8.23 6.715 15.03 15 15.03 8.285 0 15-6.8 15-15.03 0-6.852-4.641-12.703-11-14.469v3.875c4.184 1.645 7.25 5.75 7.25 10.594 0 6.313-5.04 11.375-11.25 11.375-6.203 0-11.25-5.063-11.25-11.375 0-4.895 3.01-9.05 7.25-10.656zm-2.25 7.5v3.076c-1.013.192-1.75.753-1.75 1.424 0 .67.737 1.232 1.75 1.424v8.08h1.5v-8.08c1.013-.192 1.75-.753 1.75-1.424 0-.67-.737-1.232-1.75-1.424v-3.076zm11 0v3.076c-1.013.192-1.75.753-1.75 1.424 0 .67.737 1.232 1.75 1.424v8.08h1.5v-8.08c1.013-.192 1.75-.753 1.75-1.424 0-.67-.737-1.232-1.75-1.424v-3.076z" opacity=".1" transform=""/>
  <path d="m26 9h-4v15h4m0-15" fill="#fa5a5a"/>
  <path d="m20 9.5c-6.359 1.766-11 7.617-11 14.469 0 8.23 6.715 15.03 15 15.03 8.285 0 15-6.801 15-15.03 0-6.852-4.641-12.703-11-14.469v3.875c4.184 1.645 7.25 5.75 7.25 10.594 0 6.313-5.04 11.375-11.25 11.375-6.203 0-11.25-5.063-11.25-11.375 0-4.895 3.01-9.05 7.25-10.656m0-3.813" fill="#fa5a5a"/>
  <path d="m23.25 16v16h1.5v-16m-1.5 0" fill="#f9f9f9"/>
  <path d="m26.5 28.5c0 .828-1.117 1.5-2.5 1.5-1.383 0-2.5-.672-2.5-1.5 0-.828 1.117-1.5 2.5-1.5 1.383 0 2.5.672 2.5 1.5m0 0" fill="#f9f9f9"/>
  <path d="m19.25 31v-14h-1.5v14m1.5 0" fill="#f9f9f9"/>
  <path d="m21 21.5c0 .828-1.117 1.5-2.5 1.5-1.383 0-2.5-.672-2.5-1.5 0-.828 1.117-1.5 2.5-1.5 1.383 0 2.5.672 2.5 1.5m0 0" fill="#f9f9f9"/>
  <path d="m30.25 31v-14h-1.5v14m1.5 0" fill="#f9f9f9"/>
  <path d="m32 21.5c0 .828-1.117 1.5-2.5 1.5-1.383 0-2.5-.672-2.5-1.5 0-.828 1.117-1.5 2.5-1.5 1.383 0 2.5.672 2.5 1.5m0 0" fill="#f9f9f9"/>
</svg>
