<svg viewBox="0 0 48 48" xmlns="http://www.w3.org/2000/svg" xmlns:xlink="http://www.w3.org/1999/xlink">
  <linearGradient id="a" gradientTransform="matrix(0 -1 1 0 -.0000015 47.999998)" gradientUnits="userSpaceOnUse" x1="1" x2="47">
    <stop offset="0" stop-color="#bf1515"/>
    <stop offset="1" stop-color="#d01717"/>
  </linearGradient>
  <path d="m47 24c0 22.703-.297 23-23 23-22.703 0-23-.297-23-23 0-22.703.297-23 23-23 22.703 0 23 .297 23 23z" fill="url(#a)"/>
  <g opacity=".1" transform="translate(1 1)">
    <path d="m16 12c-.516 0-1 .484-1 1v22c0 .484.516 1 1 1h16c .484 0 1-.516 1-1v-16.5l-6.5-6.5"/>
    <use xlink:href="#b"/>
    <use xlink:href="#c"/>
  </g>
  <path d="m16 12c-.516 0-1 .484-1 1v22c0 .484.516 1 1 1h16c .484 0 1-.516 1-1v-16.5l-6.5-6.5m-3.313 8c .094-.016.184.023.281.125.141.137.191.379.219.531-.027-.09-.066-.203-.125-.25-.074-.145-.594-.457-.5.688.039.469.094 1.141.219 1.844.289-1.098.469-1.938.469-1.938 0 0 .105 1.109-.281 2.844.219.754.566 1.52 1.125 2.188.488.582 1.133 1.07 1.781 1.438.371-.035.699-.07 1.375-.094 1.816-.055 2.043.168 2.188.438.168.258-.094.5-.094.5 0 0 .016-.18-.188-.344-.18-.145-.898-.309-2.688-.188.922.441 1.789.66 2.125.688.645.055.688-.094.688-.094 0 0-.281.535-1.531.281-.633-.129-1.398-.434-2.094-.813-2.227.246-4.5.969-4.5.969 0 0 .828-.691 2.5-1 .715-.133 1.102-.219 1.5-.281-.465-.297-.883-.613-1.188-.969-.441-.512-.824-1.324-1.125-2.125-.305 1.137-.824 2.484-1.688 3.969-2.438 4.203-3.152 3.648-3.406 3.5-.258-.145-.586-.617.5-1.563 1.082-.949 1.5-.938 1.5-.938 0 0-.988.605-1.375 1.188-.383.582-.684.93-.594 1.094.094.164 1.195-.668 1.656-1.375.727-1.129 2.102-3.219 2.75-5.219.148-.469.281-.957.406-1.406-.148-.453-.27-.867-.316-1.156-.164-.93-.074-1.902.125-2.25.105-.172.188-.262.281-.281m0 0" fill="#f9f9f9"/>
  <path id="b" d="m26.5 17.5l.031.031.078-.031m.891 1l5.5 5.5v-5.5m-5.5 0" fill-opacity=".196"/>
  <path id="c" d="m26.5 12l6.5 6.5h-5.5c-.484 0-1-.52-1-1m0-5.5" fill-opacity=".392"/>
</svg>
