<svg xmlns="http://www.w3.org/2000/svg" xmlns:xlink="http://www.w3.org/1999/xlink" viewBox="0 0 48 48">
 <defs>
  <linearGradient id="linearGradient3764" x1="1" x2="47" gradientUnits="userSpaceOnUse" gradientTransform="matrix(0,-1,1,0,-1.5e-6,47.999998)">
   <stop style="stop-color:#bf1515;stop-opacity:1"/>
   <stop offset="1" style="stop-color:#d01717;stop-opacity:1"/>
  </linearGradient>
 </defs>
 <g>
  
  
  
 </g>
 <g>
  <path d="m 47,24 C 47,46.703 46.703,47 24,47 1.297,47 1,46.703 1,24 1,1.297 1.297,1 24,1 46.703,1 47,1.297 47,24 z" style="fill:url(#linearGradient3764);fill-opacity:1"/>
 </g>
 <g>
  <g>
   <g transform="translate(1,1)">
    <g style="opacity:0.1">
     <!-- color: #d01717 -->
     <g>
      <path d="m 16,12 c -0.516,0 -1,0.484 -1,1 l 0,22 c 0,0.484 0.516,1 1,1 l 16,0 c 0.484,0 1,-0.516 1,-1 L 33,18.5 26.5,12" style="fill:#000;fill-opacity:1;stroke:none;fill-rule:nonzero"/>
      <use xlink:href="#SVGCleanerId_0"/>
      <use xlink:href="#SVGCleanerId_1"/>
     </g>
    </g>
   </g>
  </g>
 </g>
 <g>
  <g>
   <!-- color: #d01717 -->
   <g>
    <path d="m 16,12 c -0.516,0 -1,0.484 -1,1 l 0,22 c 0,0.484 0.516,1 1,1 l 16,0 c 0.484,0 1,-0.516 1,-1 L 33,18.5 26.5,12 m -3.313,8 c 0.094,-0.016 0.184,0.023 0.281,0.125 0.141,0.137 0.191,0.379 0.219,0.531 -0.027,-0.09 -0.066,-0.203 -0.125,-0.25 -0.074,-0.145 -0.594,-0.457 -0.5,0.688 0.039,0.469 0.094,1.141 0.219,1.844 C 23.57,21.84 23.75,21 23.75,21 c 0,0 0.105,1.109 -0.281,2.844 0.219,0.754 0.566,1.52 1.125,2.188 0.488,0.582 1.133,1.07 1.781,1.438 0.371,-0.035 0.699,-0.07 1.375,-0.094 1.816,-0.055 2.043,0.168 2.188,0.438 0.168,0.258 -0.094,0.5 -0.094,0.5 0,0 0.016,-0.18 -0.188,-0.344 -0.18,-0.145 -0.898,-0.309 -2.688,-0.188 0.922,0.441 1.789,0.66 2.125,0.688 0.645,0.055 0.688,-0.094 0.688,-0.094 0,0 -0.281,0.535 -1.531,0.281 -0.633,-0.129 -1.398,-0.434 -2.094,-0.813 -2.227,0.246 -4.5,0.969 -4.5,0.969 0,0 0.828,-0.691 2.5,-1 0.715,-0.133 1.102,-0.219 1.5,-0.281 -0.465,-0.297 -0.883,-0.613 -1.188,-0.969 -0.441,-0.512 -0.824,-1.324 -1.125,-2.125 -0.305,1.137 -0.824,2.484 -1.688,3.969 -2.438,4.203 -3.152,3.648 -3.406,3.5 -0.258,-0.145 -0.586,-0.617 0.5,-1.563 1.082,-0.949 1.5,-0.938 1.5,-0.938 0,0 -0.988,0.605 -1.375,1.188 -0.383,0.582 -0.684,0.93 -0.594,1.094 0.094,0.164 1.195,-0.668 1.656,-1.375 0.727,-1.129 2.102,-3.219 2.75,-5.219 0.148,-0.469 0.281,-0.957 0.406,-1.406 -0.148,-0.453 -0.27,-0.867 -0.316,-1.156 -0.164,-0.93 -0.074,-1.902 0.125,-2.25 0.105,-0.172 0.188,-0.262 0.281,-0.281 m 0,0" style="fill:#f9f9f9;fill-opacity:1;stroke:none;fill-rule:nonzero"/>
    <path d="m 26.5 17.5 0.031 0.031 0.078 -0.031 m 0.891 1 5.5 5.5 0 -5.5 m -5.5 0" id="SVGCleanerId_0" style="fill:#000;fill-opacity:0.196;stroke:none;fill-rule:nonzero"/>
    <path d="m 26.5 12 6.5 6.5 -5.5 0 c -0.484 0 -1 -0.52 -1 -1 m 0 -5.5" id="SVGCleanerId_1" style="fill:#000;fill-opacity:0.392;stroke:none;fill-rule:nonzero"/>
   </g>
  </g>
 </g>
 <g>
  
 </g>
</svg>
