<svg xmlns="http://www.w3.org/2000/svg" viewBox="0 0 48 48">
 <defs>
  <linearGradient id="linearGradient3764" x1="1" x2="47" gradientUnits="userSpaceOnUse" gradientTransform="matrix(0,-1,1,0,-1.5e-6,47.999998)">
   <stop style="stop-color:#e4e4e4;stop-opacity:1"/>
   <stop offset="1" style="stop-color:#eee;stop-opacity:1"/>
  </linearGradient>
 </defs>
 <g>
  
  
  
 </g>
 <g>
  <path d="m 47,24 C 47,46.703 46.703,47 24,47 1.297,47 1,46.703 1,24 1,1.297 1.297,1 24,1 46.703,1 47,1.297 47,24 z" style="fill:url(#linearGradient3764);fill-opacity:1"/>
 </g>
 <g>
  
 </g>
 <g transform="translate(1,1)" style="fill:#000;fill-opacity:0.098">
  <path d="m 15 11 c -1.108 0 -2 0.892 -2 2 l 0 22 c 0 1.108 0.892 2 2 2 l 18 0 c 1.108 0 2 -0.892 2 -2 l 0 -22 c 0 -1.108 -0.892 -2 -2 -2 l -18 0 z m 1 2 16 0 c 0.554 0 1 0.446 1 1 l 0 20 c 0 0.554 -0.446 1 -1 1 l -16 0 c -0.554 0 -1 -0.446 -1 -1 l 0 -20 c 0 -0.554 0.446 -1 1 -1 z" style="stroke:none;fill-rule:evenodd"/>
  <path d="m 24 14 a 8 8 0 0 0 -8 8 8 8 0 0 0 8 8 8 8 0 0 0 8 -8 8 8 0 0 0 -8 -8 z m 0 6 a 2 2 0 0 1 2 2 2 2 0 0 1 -2 2 2 2 0 0 1 -2 -2 2 2 0 0 1 2 -2 z" style="stroke:none"/>
  <path d="m 25 26 7 6 0 2 -2 0 z" style="stroke:none"/>
 </g>
 <g style="fill:#464646;fill-opacity:1">
  <path d="m 15 11 c -1.108 0 -2 0.892 -2 2 l 0 22 c 0 1.108 0.892 2 2 2 l 18 0 c 1.108 0 2 -0.892 2 -2 l 0 -22 c 0 -1.108 -0.892 -2 -2 -2 l -18 0 z m 1 2 16 0 c 0.554 0 1 0.446 1 1 l 0 20 c 0 0.554 -0.446 1 -1 1 l -16 0 c -0.554 0 -1 -0.446 -1 -1 l 0 -20 c 0 -0.554 0.446 -1 1 -1 z" style="stroke:none;fill-rule:evenodd"/>
  <path d="M 24 14 A 8 8 0 0 0 16 22 A 8 8 0 0 0 24 30 A 8 8 0 0 0 32 22 A 8 8 0 0 0 24 14 z M 24 20 A 2 2 0 0 1 26 22 A 2 2 0 0 1 24 24 A 2 2 0 0 1 22 22 A 2 2 0 0 1 24 20 z" style="stroke:none"/>
  <path d="m 25 26 7 6 0 2 -2 0 z" style="stroke:none"/>
 </g>
</svg>
