<svg viewBox="0 0 48 48" xmlns="http://www.w3.org/2000/svg" xmlns:xlink="http://www.w3.org/1999/xlink">
  <linearGradient id="a" gradientTransform="matrix(0 -1 1 0 0 48)" gradientUnits="userSpaceOnUse" x1="1" x2="47">
    <stop offset="0" stop-color="#ddd"/>
    <stop offset="1" stop-color="#e7e7e7"/>
  </linearGradient>
  <path d="m1 24c0-22.703.297-23 23-23 22.703 0 23 .297 23 23 0 22.703-.297 23-23 23-22.703 0-23-.297-23-23z" fill="url(#a)"/>
  <g transform="matrix(0 1 -1 0 49 0)">
    <path d="m13 11c-.554 0-1 .446-1 1v24c0 .554.446 1 1 1h24c .554 0 1-.446 1-1v-24c0-.554-.446-1-1-1zm1 2h4v4h-4zm6 0h4v4h-4zm6 0h4v4h-4zm6 0h4v4h-4zm-18 18h4v4h-4zm6 0h4v4h-4zm6 0h4v4h-4zm6 0h4v4h-4z" fill-opacity=".098"/>
    <path d="m12 12c-.554 0-1 .446-1 1v24c0 .554.446 1 1 1h24c .554 0 1-.446 1-1v-24c0-.554-.446-1-1-1zm1 2h4v4h-4zm6 0h4v4h-4zm6 0h4v4h-4zm6 0h4v4h-4zm-18 18h4v4h-4zm6 0h4v4h-4zm6 0h4v4h-4zm6 0h4v4h-4z" fill="#464646"/>
  </g>
  <path d="m19 11h10v6h-10z" fill="#99c8da" fill-rule="evenodd"/>
  <path d="m19 31h10v6h-10z" fill="#99c8da" fill-rule="evenodd"/>
  <path d="m19 19h10v10h-10z" fill="#99c8da" fill-rule="evenodd"/>
</svg>
