<svg viewBox="0 0 48 48" xmlns="http://www.w3.org/2000/svg" xmlns:xlink="http://www.w3.org/1999/xlink">
  <linearGradient id="a" gradientUnits="userSpaceOnUse" x2="0" y1="1" y2="47">
    <stop offset="0" stop-color="#ff8d41"/>
    <stop offset="1" stop-color="#ff802d"/>
  </linearGradient>
  <path d="m24 1c22.703 0 23 .297 23 23 0 22.703-.297 23-23 23-22.703 0-23-.297-23-23 0-22.703.297-23 23-23z" fill="url(#a)"/>
  <path d="m12 10h24v26h-24z" opacity=".1" transform="translate(1 1)"/>
  <path d="m12 10h24v26h-24z" fill="#666"/>
  <path d="m13 11h22v24h-22z" fill="#f6ffd5"/>
  <g fill="#4d4d4d">
    <path d="m29.768 14.668h1.377v.332h-1.852v-.332c.15-.155.354-.363.611-.623.259-.262.422-.43.488-.506.126-.142.214-.262.264-.359.051-.099.076-.196.076-.291 0-.155-.055-.281-.164-.379-.108-.098-.249-.146-.424-.146-.124 0-.255.021-.393.064-.137.043-.283.108-.439.195v-.398c.159-.064.307-.112.445-.145.138-.033.264-.049.379-.049.302 0 .543.076.723.227.18.151.27.353.27.605 0 .12-.023.234-.068.342-.044.107-.126.233-.244.379-.033.038-.136.147-.311.328-.174.18-.421.432-.738.756"/>
    <path d="m32.04 14.668h.645v-2.225l-.701.141v-.359l.697-.141h.395v2.584h.645v.332h-1.68v-.332"/>
  </g>
  <g fill="#4d4d4d">
    <path d="m23.485 18.444v1.144c-.437-.213-.851-.372-1.238-.476-.388-.104-.763-.157-1.124-.157-.628 0-1.114.124-1.456.372-.339.248-.508.6-.508 1.057 0 .384.112.674.337.871.228.193.659.351 1.29.471l.697.145c.86.167 1.494.461 1.901.883.411.418.617.979.617 1.684 0 .841-.278 1.477-.833 1.911-.551.434-1.362.65-2.432.65-.403 0-.833-.047-1.29-.14-.453-.093-.923-.23-1.41-.412v-1.208c.468.268.927.469 1.376.604.449.136.891.203 1.324.203.659 0 1.166-.132 1.524-.395.358-.264.537-.639.537-1.127 0-.426-.13-.759-.388-1-.255-.24-.675-.42-1.262-.54l-.703-.14c-.86-.174-1.482-.447-1.867-.819-.385-.372-.577-.888-.577-1.55 0-.766.264-1.371.793-1.812.533-.441 1.266-.662 2.198-.662.399 0 .807.037 1.222.11.415.073.839.184 1.273.331"/>
    <path d="m29.999 21.357v.879c-.294-.146-.588-.255-.886-.327-.294-.075-.59-.112-.892-.112-.673 0-1.196.194-1.569.582-.373.384-.559.926-.559 1.622 0 .697.186 1.24.559 1.627.373.384.896.576 1.569.576.3 0 .598-.036.892-.107.298-.075.592-.185.886-.332v.867c-.29.123-.59.214-.903.275-.308.061-.638.091-.987.091-.951 0-1.707-.271-2.268-.811-.56-.541-.841-1.27-.841-2.189 0-.932.282-1.665.846-2.199.568-.534 1.344-.801 2.331-.801.32 0 .632.03.937.091.304.057.6.146.886.266"/>
  </g>
  <g fill="#4d4d4d">
    <path d="m16.771 30.877v.34c-.102-.052-.207-.091-.316-.117-.109-.026-.223-.039-.34-.039-.178 0-.313.027-.402.082-.089.055-.133.137-.133.246 0 .083.032.149.096.197.064.047.192.092.385.135l.123.027c.255.055.436.132.543.232.108.099.162.238.162.416 0 .203-.081.364-.242.482-.16.118-.381.178-.662.178-.117 0-.24-.012-.367-.035-.126-.022-.26-.056-.4-.102v-.371c.133.069.264.121.393.156.129.034.257.051.383.051.169 0 .299-.029.391-.086.091-.059.137-.141.137-.246 0-.098-.033-.173-.1-.225-.065-.052-.209-.102-.432-.15l-.125-.029c-.223-.047-.383-.118-.482-.215-.099-.098-.148-.231-.148-.4 0-.206.073-.365.219-.477.146-.112.353-.168.621-.168.133 0 .258.001.375.029.117.02.225.049.324.088"/>
    <path d="m17.811 32.672v1.16h-.361v-3.02h.361v.332c.076-.13.171-.227.285-.289.116-.064.254-.096.414-.096.266 0 .481.105.646.316.167.211.25.488.25.832 0 .344-.083.621-.25.832-.165.211-.381.316-.646.316-.16 0-.298-.031-.414-.094-.115-.064-.21-.161-.285-.291m1.223-.764c0-.264-.055-.471-.164-.621-.108-.151-.257-.227-.447-.227-.19 0-.34.076-.449.227-.108.15-.162.357-.162.621 0 .264.054.472.162.623.109.15.259.225.449.225.19 0 .339-.075.447-.225.109-.151.164-.359.164-.623"/>
    <path d="m21.873 31.816v.176h-1.652c.016.247.09.436.223.566.134.129.32.193.559.193.138 0 .271-.017.4-.051.13-.034.259-.085.387-.152v.34c-.129.055-.261.096-.396.125-.135.029-.273.043-.412.043-.349 0-.626-.102-.83-.305-.203-.203-.305-.478-.305-.824 0-.358.096-.642.289-.852.194-.211.455-.316.783-.316.294 0 .527.095.697.285.172.189.258.446.258.771m-.359-.105c-.003-.197-.058-.354-.166-.471-.107-.117-.249-.176-.426-.176-.201 0-.361.057-.482.17-.12.113-.189.273-.207.479z"/>
    <path d="m24.04 30.896v.336c-.102-.056-.204-.098-.307-.125-.102-.029-.204-.043-.309-.043-.233 0-.414.074-.543.223-.129.147-.193.354-.193.621 0 .267.064.475.193.623.129.147.31.221.543.221.104 0 .207-.014.309-.041.103-.029.205-.071.307-.127v.332c-.1.047-.204.082-.313.105-.107.023-.221.035-.342.035-.329 0-.591-.104-.785-.311-.194-.207-.291-.486-.291-.838 0-.357.098-.637.293-.842.197-.204.465-.307.807-.307.111 0 .219.012.324.035.105.022.208.056.307.102"/>
    <path d="m25.02 30.19v.621h.74v.279h-.74v1.188c0 .178.024.293.072.344.049.051.149.076.299.076h.369v.301h-.369c-.277 0-.469-.051-.574-.154-.105-.104-.158-.293-.158-.566v-1.188h-.264v-.279h.264v-.621h.361"/>
    <path d="m27.504 31.15c-.04-.023-.085-.04-.133-.051-.047-.012-.099-.018-.156-.018-.203 0-.359.066-.469.199-.108.132-.162.321-.162.568v1.152h-.361v-2.188h.361v.34c.076-.133.174-.231.295-.295.121-.065.268-.098.441-.098.025 0 .052.002.082.006.03.003.063.007.1.014l.002.369"/>
    <path d="m27.848 32.14v-1.324h.359v1.311c0 .207.04.363.121.467.081.103.202.154.363.154.194 0 .347-.062.459-.186.113-.124.17-.292.17-.506v-1.24h.359v2.188h-.359v-.336c-.087.133-.189.232-.305.297-.115.064-.248.096-.4.096-.251 0-.442-.078-.572-.234-.13-.156-.195-.385-.195-.686"/>
    <path d="m32.13 31.23c.09-.161.197-.281.322-.357.125-.077.272-.115.441-.115.228 0 .404.08.527.24.124.159.186.385.186.68v1.32h-.361v-1.309c0-.21-.037-.365-.111-.467-.074-.102-.188-.152-.34-.152-.186 0-.333.062-.441.186-.108.124-.162.292-.162.506v1.236h-.361v-1.309c0-.211-.037-.367-.111-.467-.074-.102-.189-.152-.344-.152-.184 0-.329.063-.438.188-.108.124-.162.292-.162.504v1.236h-.361v-2.188h.361v.34c.082-.134.18-.233.295-.297.115-.064.251-.096.408-.096.159 0 .294.04.404.121.112.081.195.198.248.352"/>
  </g>
</svg>
