<svg xmlns="http://www.w3.org/2000/svg" viewBox="0 0 48 48">
 <defs>
  <linearGradient id="linearGradient4506" x1="1" x2="47" gradientUnits="userSpaceOnUse" gradientTransform="matrix(0,-1,1,0,0,48)">
   <stop style="stop-color:#b6cdeb;stop-opacity:1"/>
   <stop offset="1" style="stop-color:#c6d8f0;stop-opacity:1"/>
  </linearGradient>
 </defs>
 <g>
  
  
  
 </g>
 <path d="M 24,47 C 1.297,47 1,46.703 1,24 1,1.297 1.297,1 24,1 46.703,1 47,1.297 47,24 47,46.703 46.703,47 24,47 Z" style="fill:url(#linearGradient4506);fill-opacity:1"/>
 <g>
  <g>
   <g transform="translate(1,1)">
    <g style="opacity:0.1">
     <!-- color: #ce5952 -->
     <g>
      <path d="m 14.887 17 l 18.227 0 c 0.488 0 0.887 0.398 0.887 0.887 l 0 16.227 c 0 0.488 -0.398 0.887 -0.887 0.887 l -18.227 0 c -0.488 0 -0.887 -0.398 -0.887 -0.887 l 0 -16.227 c 0 -0.488 0.398 -0.887 0.887 -0.887 m 0 0" style="fill:#000;fill-opacity:1;stroke:none;fill-rule:nonzero"/>
      <path d="m 17 18 c 0 -4 2 -8 7 -8 c 5 0 7 4 7 8 c 0 1 -1 1 -1 0 c 0 -3 -2 -7 -6 -7 c -4 0 -6 4 -6 7 c 0 1 -1 1 -1 0 m 0 0" style="fill:#000;fill-opacity:1;stroke:none;fill-rule:nonzero"/>
     </g>
    </g>
   </g>
  </g>
 </g>
 <path d="m 14.887,17 18.227,0 c 0.488,0 0.887,0.398 0.887,0.887 l 0,16.227 c 0,0.488 -0.398,0.887 -0.887,0.887 l -18.227,0 C 14.399,35.001 14,34.603 14,34.114 L 14,17.887 C 14,17.399 14.398,17 14.887,17 m 0,0" style="fill:#4a8fee;fill-opacity:1;stroke:none;fill-rule:nonzero"/>
 <path d="m 14.887,19 18.227,0 c 0.488,0 0.887,0.398 0.887,0.887 l 0,0.227 c 0,0.488 -0.398,0.887 -0.887,0.887 l -18.227,0 C 14.399,21.001 14,20.603 14,20.114 l 0,-0.227 C 14,19.399 14.398,19 14.887,19 m 0,0" style="fill:#70abfb;fill-opacity:1;stroke:none;fill-rule:nonzero"/>
 <path d="m 14.887,17 18.227,0 c 0.488,0 0.887,0.398 0.887,0.887 l 0,1.227 c 0,0.488 -0.398,0.887 -0.887,0.887 l -18.227,0 C 14.399,20.001 14,19.603 14,19.114 l 0,-1.227 C 14,17.399 14.398,17 14.887,17 m 0,0" style="fill:#4280d4;fill-opacity:1;stroke:none;fill-rule:nonzero"/>
 <path d="m 26 26 c 0 1.105 -0.895 2 -2 2 -1.105 0 -2 -0.895 -2 -2 0 -1.105 0.895 -2 2 -2 1.105 0 2 0.895 2 2 m 0 0" style="fill:#224370;fill-opacity:1;stroke:none;fill-rule:nonzero"/>
 <path d="m 23 27 -2 5 6 0 -2 -5 m -2 0" style="fill:#224370;fill-opacity:1;stroke:none;fill-rule:nonzero"/>
 <path d="M 21.406,31 21,32 l 6,0 -0.406,-1 m -5.188,0" style="fill:#599fff;fill-opacity:1;stroke:none;fill-rule:nonzero"/>
 <path d="m 17 18 c 0 -4 2 -8 7 -8 5 0 7 4 7 8 0 1 -1 1 -1 0 0 -3 -2 -7 -6 -7 -4 0 -6 4 -6 7 0 1 -1 1 -1 0 m 0 0" style="fill:#f9f9f9;fill-opacity:1;stroke:none;fill-rule:nonzero"/>
 <path d="M 19,18.5 C 19,18.777 18.328,19 17.5,19 16.672,19 16,18.777 16,18.5 16,18.223 16.672,18 17.5,18 c 0.828,0 1.5,0.223 1.5,0.5 m 0,0" style="fill:#4a4a4a;fill-opacity:1;stroke:none;fill-rule:nonzero"/>
 <path d="M 32,18.5 C 32,18.777 31.328,19 30.5,19 29.672,19 29,18.777 29,18.5 29,18.223 29.672,18 30.5,18 c 0.828,0 1.5,0.223 1.5,0.5 m 0,0" style="fill:#4a4a4a;fill-opacity:1;stroke:none;fill-rule:nonzero"/>
 <g>
  
 </g>
</svg>
