<svg viewBox="0 0 48 48" xmlns="http://www.w3.org/2000/svg" xmlns:xlink="http://www.w3.org/1999/xlink">
  <linearGradient id="a" gradientTransform="matrix(0 -1 1 0 0 48)" gradientUnits="userSpaceOnUse" x1="1" x2="47">
    <stop offset="0" stop-color="#b6cdeb"/>
    <stop offset="1" stop-color="#c6d8f0"/>
  </linearGradient>
  <path d="m24 47c-22.703 0-23-.297-23-23 0-22.703.297-23 23-23 22.703 0 23 .297 23 23 0 22.703-.297 23-23 23z" fill="url(#a)"/>
  <g opacity=".1" transform="translate(1 1)">
    <path d="m14.887 17h18.227c.488 0 .887.398.887.887v16.227c0 .488-.398.887-.887.887h-18.227c-.488 0-.887-.398-.887-.887v-16.227c0-.488.398-.887.887-.887m0 0"/>
    <path d="m17 18c0-4 2-8 7-8 5 0 7 4 7 8 0 1-1 1-1 0 0-3-2-7-6-7-4 0-6 4-6 7 0 1-1 1-1 0m0 0"/>
  </g>
  <path d="m14.887 17h18.227c.488 0 .887.398.887.887v16.227c0 .488-.398.887-.887.887h-18.227c-.488 0-.887-.398-.887-.887v-16.227c0-.488.398-.887.887-.887m0 0" fill="#4a8fee"/>
  <path d="m14.887 19h18.227c.488 0 .887.398.887.887v.227c0 .488-.398.887-.887.887h-18.227c-.488 0-.887-.398-.887-.887v-.227c0-.488.398-.887.887-.887m0 0" fill="#70abfb"/>
  <path d="m14.887 17h18.227c.488 0 .887.398.887.887v1.227c0 .488-.398.887-.887.887h-18.227c-.488 0-.887-.398-.887-.887v-1.227c0-.488.398-.887.887-.887m0 0" fill="#4280d4"/>
  <path d="m26 26c0 1.105-.895 2-2 2-1.105 0-2-.895-2-2 0-1.105.895-2 2-2 1.105 0 2 .895 2 2m0 0" fill="#224370"/>
  <path d="m23 27l-2 5h6l-2-5m-2 0" fill="#224370"/>
  <path d="m21.406 31l-.406 1h6l-.406-1m-5.188 0" fill="#599fff"/>
  <path d="m17 18c0-4 2-8 7-8 5 0 7 4 7 8 0 1-1 1-1 0 0-3-2-7-6-7-4 0-6 4-6 7 0 1-1 1-1 0m0 0" fill="#f9f9f9"/>
  <path d="m19 18.5c0 .277-.672.5-1.5.5-.828 0-1.5-.223-1.5-.5 0-.277.672-.5 1.5-.5.828 0 1.5.223 1.5.5m0 0" fill="#4a4a4a"/>
  <path d="m32 18.5c0 .277-.672.5-1.5.5-.828 0-1.5-.223-1.5-.5 0-.277.672-.5 1.5-.5.828 0 1.5.223 1.5.5m0 0" fill="#4a4a4a"/>
</svg>
