<svg viewBox="0 0 48 48" xmlns="http://www.w3.org/2000/svg" xmlns:xlink="http://www.w3.org/1999/xlink">
  <linearGradient id="a" gradientTransform="matrix(0 -1 1 0 -.0000015 47.999998)" gradientUnits="userSpaceOnUse" x1="1" x2="47">
    <stop offset="0" stop-color="#e4e4e4"/>
    <stop offset="1" stop-color="#eee"/>
  </linearGradient>
  <path d="m47 24c0 22.703-.297 23-23 23-22.703 0-23-.297-23-23 0-22.703.297-23 23-23 22.703 0 23 .297 23 23z" fill="url(#a)"/>
  <g opacity=".1" transform="translate(1 1)">
    <path d="m25.05 18.859c-1.844 0-4.535-1.578-7.156-1.578-2.625 0-4.191 1.578-4.465 1.789-.273.215-.445 1.039.375.785.82-.25 1.5-.25 2.797-.25 1.297 0 4.395 1.863 7.531 1.863 3.137 0 5.762-2.539 6.344-3.438.582-.895.035-1.184-.406-.965-.445.215-3.309 1.789-5.01 1.789m-.008.004"/>
    <path d="m33.04 23.766c-1.938 0-4.766-1.578-7.523-1.578-2.758 0-4.406 1.578-4.691 1.789-.289.219-.465 1.039.398.789.855-.254 1.574-.254 2.938-.254 1.359 0 4.617 1.863 7.914 1.863 3.297 0 6.05-2.539 6.66-3.438.609-.895.035-1.18-.426-.965-.465.215-3.473 1.789-5.27 1.789m0 .004"/>
    <path d="m21.91 29.18c-2 0-4.938-1.699-7.797-1.699-2.859 0-4.566 1.699-4.867 1.934-.297.23-.48 1.117.41.852.891-.27 1.633-.27 3.047-.27 1.41 0 4.789 2.01 8.211 2.01 3.414 0 6.277-2.746 6.906-3.715.633-.965.039-1.273-.445-1.043-.48.23-3.602 1.934-5.461 1.934m-.004-.004"/>
  </g>
  <path d="m25.05 18.859c-1.844 0-4.535-1.578-7.156-1.578-2.625 0-4.191 1.578-4.465 1.789-.273.215-.445 1.039.375.785.82-.25 1.5-.25 2.797-.25 1.297 0 4.395 1.863 7.531 1.863 3.137 0 5.762-2.539 6.344-3.438.582-.895.035-1.184-.406-.965-.445.215-3.309 1.789-5.01 1.789m-.008.004" fill="#ff2f2f"/>
  <path d="m33.04 23.766c-1.938 0-4.766-1.578-7.523-1.578-2.758 0-4.406 1.578-4.691 1.789-.289.219-.465 1.039.398.789.855-.254 1.574-.254 2.938-.254 1.359 0 4.617 1.863 7.914 1.863 3.297 0 6.05-2.539 6.66-3.438.609-.895.035-1.18-.426-.965-.465.215-3.473 1.789-5.27 1.789m0 .004" fill="#2f952f"/>
  <path d="m21.91 29.18c-2 0-4.938-1.699-7.797-1.699-2.859 0-4.566 1.699-4.867 1.934-.297.23-.48 1.117.41.852.891-.27 1.633-.27 3.047-.27 1.41 0 4.789 2.01 8.211 2.01 3.414 0 6.277-2.746 6.906-3.715.633-.965.039-1.273-.445-1.043-.48.23-3.602 1.934-5.461 1.934m-.004-.004" fill="#2f2fcc"/>
</svg>
