<svg viewBox="0 0 48 48" xmlns="http://www.w3.org/2000/svg" xmlns:xlink="http://www.w3.org/1999/xlink">
  <linearGradient id="a" gradientTransform="matrix(0 -1 1 0 -.0000015 47.999998)" gradientUnits="userSpaceOnUse" x1="1" x2="47">
    <stop offset="0" stop-color="#6bc810"/>
    <stop offset="1" stop-color="#74da11"/>
  </linearGradient>
  <path d="m47 24c0 22.703-.297 23-23 23-22.703 0-23-.297-23-23 0-22.703.297-23 23-23 22.703 0 23 .297 23 23z" fill="url(#a)"/>
  <g opacity=".1" transform="translate(1 1)">
    <path d="m24.469 12c-8.395-.18-15.547 4.543-16.375 10.813.844-5.258 7.07-9.117 14.207-8.805 7.137.316 12.707 4.695 12.699 9.992.035 5.27-5.453 9.652-12.547 10.02-7.098.371-13.363-3.398-14.328-8.617 1.051 6.27 8.402 10.855 16.816 10.484 8.41-.371 14.996-5.57 15.06-11.891.004-6.492-6.879-11.809-15.531-12m0 0"/>
    <path d="m19.313 16c-2.973-.063-5.852.754-7.98 2.262-2.133 1.508-3.332 3.578-3.332 5.738 0 4.418 4.926 8 11 8 6.074 0 11-3.582 11-8 .004-4.332-4.734-7.875-10.688-8m-3 2c2.355-.117 4.672.465 6.398 1.602 1.723 1.141 2.699 2.73 2.695 4.398 0 3.313-3.805 6-8.5 6-4.695 0-8.5-2.688-8.5-6-.012-3.156 3.445-5.781 7.906-6m0 0"/>
  </g>
  <path d="m24.469 12c-8.395-.18-15.547 4.543-16.375 10.813.844-5.258 7.07-9.117 14.207-8.805 7.137.316 12.707 4.695 12.699 9.992.035 5.27-5.453 9.652-12.547 10.02-7.098.371-13.363-3.398-14.328-8.617 1.051 6.27 8.402 10.855 16.816 10.484 8.41-.371 14.996-5.57 15.06-11.891.004-6.492-6.879-11.809-15.531-12m0 0" fill="#61b212"/>
  <path d="m19.313 16c-2.973-.063-5.852.754-7.98 2.262-2.133 1.508-3.332 3.578-3.332 5.738 0 4.418 4.926 8 11 8 6.074 0 11-3.582 11-8 .004-4.332-4.734-7.875-10.688-8m-3 2c2.355-.117 4.672.465 6.398 1.602 1.723 1.141 2.699 2.73 2.695 4.398 0 3.313-3.805 6-8.5 6-4.695 0-8.5-2.688-8.5-6-.012-3.156 3.445-5.781 7.906-6m0 0" fill="#61b212"/>
</svg>
