<svg viewBox="0 0 48 48" xmlns="http://www.w3.org/2000/svg" xmlns:xlink="http://www.w3.org/1999/xlink">
  <linearGradient id="a" gradientTransform="matrix(0 -1 1 0 -.0000015 47.999998)" gradientUnits="userSpaceOnUse" x1="1" x2="47">
    <stop offset="0" stop-color="#e4e4e4"/>
    <stop offset="1" stop-color="#eee"/>
  </linearGradient>
  <linearGradient id="b" gradientUnits="userSpaceOnUse" x2="0" y1="37" y2="11">
    <stop offset="0" stop-color="#b4b4b4"/>
    <stop offset="1" stop-color="#bebebe"/>
  </linearGradient>
  <path d="m47 24c0 22.703-.297 23-23 23-22.703 0-23-.297-23-23 0-22.703.297-23 23-23 22.703 0 23 .297 23 23z" fill="url(#a)"/>
  <rect fill-opacity=".098" height="26" rx="1.5" width="26" x="12" y="12"/>
  <g transform="translate(0 -.00000141)">
    <rect fill="url(#b)" height="26" rx="1.5" width="26" x="11" y="11"/>
    <rect fill="#f0f0f0" height="5" rx="1" width="18" x="15" y="15"/>
    <rect fill="#f0f0f0" height="5" rx="1" width="18" x="15" y="22"/>
    <rect fill="#649eda" height="5" rx="1" width="18" x="15" y="29"/>
    <path d="m27.75 22h .5v5h-.5z" fill="#7d7d7d" fill-opacity=".392"/>
    <path d="m22.75 22h .5v5h-.5z" fill="#7d7d7d" fill-opacity=".392"/>
    <g fill="#f0f0f0" transform="scale(1.0140751 .98612025)">
      <path d="m21.306 30.422c-.965 0-1.583.657-1.583 1.515 0 .845.588 1.528 1.553 1.528.275 0 .596-.064.91-.197l.077-.03-.172-.425-.077.03c-.227.09-.455.137-.644.137-.695 0-1.107-.416-1.107-1.047 0-.566.386-1.043 1.03-1.043.137 0 .348 0 .674.12l.082.03.172-.421-.077-.03c-.313-.124-.605-.167-.837-.167z"/>
      <path d="m23.896 30.92c.27 0 .511.069.751.163l.167-.481-.051-.021c-.12-.039-.412-.159-.884-.159-.682 0-1.111.352-1.111.837 0 1.047 1.613.772 1.6 1.339 0 .215-.262.369-.648.369-.163 0-.425-.047-.811-.189l-.082-.034-.18.485.077.026c.287.112.575.21.953.21.918 0 1.236-.455 1.236-.867 0-1.026-1.6-.807-1.6-1.317 0-.215.223-.36.584-.36z"/>
      <path d="m26.594 30.92c.27 0 .511.069.751.163l.167-.481-.051-.021c-.12-.039-.412-.159-.884-.159-.682 0-1.111.352-1.111.837 0 1.047 1.613.772 1.6 1.339 0 .215-.262.369-.648.369-.163 0-.425-.047-.811-.189l-.082-.034-.18.485.077.026c.287.112.575.21.953.21.918 0 1.236-.455 1.236-.867 0-1.026-1.6-.807-1.6-1.317 0-.215.223-.36.584-.36z"/>
    </g>
    <path d="m27.75 15h .5v5h-.5z" fill="#7d7d7d" fill-opacity=".392"/>
    <g fill="#646464">
      <path d="m30.17 23.5h.667v2h-.667z"/>
      <path d="m29.5 24.17h2v .667h-2z"/>
      <g transform="scale(.99258419 1.0074712)">
        <path d="m16.27 23.539c.242-.104.476-.221.768-.221.368 0 .505.146.505.38 0 .368-.455.785-.873 1.224-.217.226-.393.376-.547.522v.363h2.01v-.493h-1.184c.547-.56 1.107-1.078 1.107-1.65 0-.472-.322-.835-1.019-.835-.393 0-.718.159-.919.263z"/>
        <path d="m19.891 23.31c.305 0 .752.221.752.986 0 .806-.451 1.036-.752 1.036-.305 0-.756-.23-.756-1.048 0-.752.455-.973.756-.973zm0-.48c-.535 0-1.27.33-1.27 1.453 0 1.174.727 1.524 1.27 1.524.539 0 1.265-.342 1.265-1.52 0-1.128-.727-1.458-1.265-1.458z"/>
      </g>
      <path d="m24.5 24.17h2v .667h-2z"/>
      <path d="m29.3 17.1c.4.4.8.8 1.2 1.2.4-.4.8-.8 1.2-1.2l-.4-.4-.8.8-.8-.8"/>
      <g transform="scale(.93467351 1.0698923)">
        <path d="m17.435 15.656v.154h-.317v.368h.317v1.58h.475v-1.58h.717v-.368h-.717v-.17c0-.182.162-.301.42-.301.115 0 .242.028.297.04l.079.02.071-.341-.067-.024c-.234-.071-.392-.079-.495-.079-.689 0-.78.491-.78.701z"/>
        <path d="m19.734 16.14c.269 0 .491.218.491.626 0 .408-.218.614-.491.614-.269 0-.491-.21-.491-.614 0-.404.226-.626.491-.626zm0 1.616c.598 0 .982-.4.982-.994 0-.598-.376-.994-.978-.994-.598 0-.982.4-.982.998 0 .594.38.99.978.99z"/>
        <path d="m21.969 16.14c.269 0 .491.218.491.626 0 .408-.218.614-.491.614-.269 0-.491-.21-.491-.614 0-.404.226-.626.491-.626zm0 1.616c.598 0 .982-.4.982-.994 0-.598-.376-.994-.978-.994-.598 0-.982.4-.982.998 0 .594.38.99.978.99z"/>
        <path d="m23.326 14.971v2.749h.341l.036-.103c.131.067.305.143.511.143.622 0 .974-.38.974-.994 0-.733-.503-.994-.931-.994-.17 0-.325.032-.455.083v-.883h-.475zm.82 1.176c.317 0 .554.15.554.646 0 .448-.253.602-.57.602-.135 0-.242-.044-.329-.095v-1.089c.127-.048.242-.063.345-.063z"/>
        <path d="m26.25 15.771c-.329 0-.491.079-.63.127v.364c.174-.071.333-.131.527-.131.392 0 .483.107.483.432l-.368.02c-.511.032-.796.234-.796.61 0 .333.253.566.669.566.23 0 .412-.071.562-.166l.051.127h.38v-1.172c0-.448-.178-.776-.879-.776zm.404 1.525c-.103.063-.194.111-.396.111-.198 0-.321-.095-.321-.246 0-.15.119-.238.376-.253l.341-.02z"/>
        <path d="m27.976 15.941l-.063-.131h-.333v1.949h.475v-1.513c.131-.04.281-.071.436-.071.119 0 .246.02.364.071h.032v-.4c-.111-.051-.23-.075-.349-.075-.198 0-.4.067-.562.17z"/>
      </g>
    </g>
  </g>
</svg>
