<svg xmlns="http://www.w3.org/2000/svg" viewBox="0 0 48 48">
 <defs>
  <linearGradient id="linearGradient3764" x1="1" x2="47" gradientUnits="userSpaceOnUse" gradientTransform="matrix(0,-1,1,0,-1.5e-6,47.999998)">
   <stop style="stop-color:#575757;stop-opacity:1"/>
   <stop offset="1" style="stop-color:#616161;stop-opacity:1"/>
  </linearGradient>
 </defs>
 <g>
  
  
  
 </g>
 <g>
  <path d="m 47,24 C 47,46.703 46.703,47 24,47 1.297,47 1,46.703 1,24 1,1.297 1.297,1 24,1 46.703,1 47,1.297 47,24 z" style="fill:url(#linearGradient3764);fill-opacity:1"/>
 </g>
 <g>
  
 </g>
 <path d="m 25 13 -10 6 0 12 l 10 5.994 0 0.006 10 -6 0 -12 -10 -6" style="fill:#000;opacity:0.1;fill-opacity:1;stroke:none;fill-rule:evenodd"/>
 <path d="m 24 12 -10 6 0 12 l 10 5.994 0 0.006 10 -6 0 -12 -10 -6" style="fill:#e5e567;fill-opacity:1;stroke:none;fill-rule:evenodd"/>
 <path d="m 15 19.77 0 9.68 8 4.773 0 -9.663 z" style="fill:#404040;fill-opacity:1;stroke:none;fill-rule:nonzero"/>
 <path d="m 15.8 18 8.2 5 8.2 -5 -8.2 -5 z" style="fill:#eee;fill-opacity:1;stroke:none;fill-rule:nonzero"/>
 <path d="m 33 19.77 0 9.68 -8 4.773 0 -9.663 z" style="fill:#f66262;fill-opacity:1;stroke:none;fill-rule:nonzero"/>
</svg>
