<svg viewBox="0 0 48 48" xmlns="http://www.w3.org/2000/svg" xmlns:xlink="http://www.w3.org/1999/xlink">
  <linearGradient id="a" gradientTransform="matrix(0 -1 1 0 -.0000015 47.999998)" gradientUnits="userSpaceOnUse" x1="1" x2="47">
    <stop offset="0" stop-color="#575757"/>
    <stop offset="1" stop-color="#616161"/>
  </linearGradient>
  <path d="m47 24c0 22.703-.297 23-23 23-22.703 0-23-.297-23-23 0-22.703.297-23 23-23 22.703 0 23 .297 23 23z" fill="url(#a)"/>
  <path d="m25 13l-10 6v12l10 5.994v.006l10-6v-12z" fill-rule="evenodd" opacity=".1"/>
  <path d="m24 12l-10 6v12l10 5.994v.006l10-6v-12z" fill="#e5e567" fill-rule="evenodd"/>
  <path d="m15 19.77v9.68l8 4.773v-9.663z" fill="#404040"/>
  <path d="m15.8 18l8.2 5 8.2-5-8.2-5z" fill="#eee"/>
  <path d="m33 19.77v9.68l-8 4.773v-9.663z" fill="#f66262"/>
</svg>
