<svg viewBox="0 0 48 48" xmlns="http://www.w3.org/2000/svg" xmlns:xlink="http://www.w3.org/1999/xlink">
  <linearGradient id="a" gradientTransform="matrix(0 -1 1 0 -.0000015 47.999998)" gradientUnits="userSpaceOnUse" x1="1" x2="47">
    <stop offset="0" stop-color="#e4e4e4"/>
    <stop offset="1" stop-color="#eee"/>
  </linearGradient>
  <path d="m47 24c0 22.703-.297 23-23 23-22.703 0-23-.297-23-23 0-22.703.297-23 23-23 22.703 0 23 .297 23 23z" fill="url(#a)"/>
  <path d="m22.16 35.68c-.289-.16-1.832-1.129-3.418-2.145-3.77-2.41-4.906-3.109-5.703-3.496-1.078-.523-.977.086-1.012-6.082-.031-5.762-.105-6.766.461-6.617-.445-.402 1.641-1.031 4.906-2.422 3.188-1.363 6.711-2.734 7.488-2.922.207-.047.711.152 2.598 1.055 4.156 1.977 7.582 3.797 8.02 4.258.102.105.238.191.309.191.199 0 .254.379.141 1.074-.051.352-.441 2.637-.863 5.078-.422 2.441-.797 4.688-.832 4.992-.125 1.082-.09 1.043-1.813 2.055-.855.508-3.035 1.727-4.836 2.707-1.801.98-3.594 1.965-3.984 2.191-.391.219-.758.395-.82.391-.059-.004-.348-.141-.637-.305" opacity=".1" transform="translate(1 1)"/>
  <g transform="translate(.00017218)">
    <path d="m22.938 22.914l-10-5.723 12.03-4.734 10.1 5.359-12.13 5.094m0 .004" fill="#60c8e2"/>
    <path d="m23.57 22.93l11.875-5.01-1.707 11.457-11.184 6.145 1.016-12.598m0-.004" fill="#8be260"/>
    <path d="m22.801 35.25l-10.04-5.922.043-11.402 10.418 5.18-.422 12.148m0-.004" fill="#ff7676"/>
    <path d="m22.16 35.68c-.289-.16-1.832-1.129-3.418-2.145-3.77-2.41-4.906-3.109-5.703-3.496-1.078-.523-.977.086-1.012-6.082-.031-5.762-.105-6.766.461-6.617-.445-.402 1.641-1.031 4.906-2.422 3.188-1.363 6.711-2.734 7.488-2.922.207-.047.711.152 2.598 1.055 4.156 1.977 7.582 3.797 8.02 4.258.102.105.238.191.309.191.199 0 .254.379.141 1.074-.051.352-.441 2.637-.863 5.078-.422 2.441-.797 4.688-.832 4.992-.125 1.082-.09 1.043-1.813 2.055-.855.508-3.035 1.727-4.836 2.707-1.801.98-3.594 1.965-3.984 2.191-.391.219-.758.395-.82.391-.059-.004-.348-.141-.637-.305m.418-2.395c.031-.824.094-3.188.133-5.246.098-4.574.121-4.434-.891-5.082-1.242-.797-2.582-1.543-4.867-2.691-1.246-.625-2.609-1.336-3.035-1.582-.523-.305-.801-.41-.867-.348-.125.117-.133 4.902-.016 8.25l.082 2.383.688.383c.59.332 4.04 2.555 7.383 4.762.566.371 1.086.672 1.172.676.145.004.164-.188.215-1.5m-5.914-4.102l.148-4.617-1.832-.926.238-1.906 5.797 2.645-.109 1.789-2.105-.836c-.273 1.031-.316 3.105-.473 4.688l-1.664-.836m10.941 3.238c4.207-2.313 5.629-3.16 5.68-3.402.027-.109.113-.66.203-1.219.086-.563.457-2.766.824-4.898.609-3.578.738-4.488.621-4.488-.125 0-2.379.973-5.254 2.266-1.777.801-3.75 1.684-4.383 1.965-.637.281-1.207.566-1.277.617-.195.172-.648 10.766-.473 11.191.055.141.125.125.613-.145.309-.164 1.855-1.016 3.441-1.887m-2.105-1.59c-.031-2.449-.227-4.871.344-7.438l1.191-.02.105 3.52 4.156-4.863 1.961-.488-3.656 4.809 3.387 1.555-1.395.863-3.453-1.473-1.254.594-.043 2.367m-2.637-8.09c.281-.117 2.328-1.051 4.559-2.063 2.227-1.02 4.328-1.969 4.672-2.109.914-.379.953-.43.512-.711-.672-.422-4.098-2.172-6.5-3.316l-2.383-1.137-.801.258c-1.125.367-4.336 1.652-7.086 2.844-2.895 1.246-3.281 1.434-3.281 1.582 0 .066.637.457 1.422.875 2.508 1.332 7.965 4 8.184 4 .117 0 .441-.098.723-.219m-1.527-1.484c-1.395-.328-2.98-1.105-3.395-1.652-.324-.438-.602-1.141-.602-1.531 0-.473.309-1.141.711-1.543.512-.508 1.223-.723 3.07-.93 1.836-.207 3.418-.145 4.363.172.895.297 1.254.48 1.438.738.48.66.82 1.215.82 1.328 0 .168-.445.332-.762.277-.137-.027-.406-.07-.605-.102-.293-.043-.395-.125-.574-.426-.25-.418-.895-.852-1.52-1.012-.961-.246-3.602-.039-4.41.34-.457.215-.703.688-.77 1.473-.051.539-.031.621.18.836.281.289 1.063.676 1.938.957.484.156.766.195 1.102.152.781-.105.871-.301.41-.855-.402-.48-.496-.742-.367-.977.094-.168.172-.188.605-.145.621.063 1.934.539 2.238.82.273.242.316.816.074 1.043-.266.262-1.461.898-1.93 1.031-.543.156-1.352.156-2.01 0m-.008.004" fill="#2d2d2d"/>
    <path d="m29.762 16c .801-.027 1.602.453 1.984 1.195.383.742.328 1.711-.129 2.406l-7.234 11.438c-.715 1.125-2.449 1.297-3.348.336l-4.344-4.578c-.883-.824-.926-2.457-.09-3.336.84-.879 2.387-.82 3.168.121l2.465 2.598 5.766-9.129c.379-.625 1.059-1.027 1.762-1.051m0 0" fill="#f9f9f9"/>
  </g>
</svg>
