<svg xmlns="http://www.w3.org/2000/svg" viewBox="0 0 48 48">
 <defs>
  <linearGradient id="linearGradient3764" x1="1" x2="47" gradientUnits="userSpaceOnUse" gradientTransform="matrix(0,-1,1,0,-1.5e-6,47.999998)">
   <stop style="stop-color:#e4e4e4;stop-opacity:1"/>
   <stop offset="1" style="stop-color:#eee;stop-opacity:1"/>
  </linearGradient>
 </defs>
 <g>
  
  
  
 </g>
 <g>
  <path d="m 47,24 C 47,46.703 46.703,47 24,47 1.297,47 1,46.703 1,24 1,1.297 1.297,1 24,1 46.703,1 47,1.297 47,24 z" style="fill:url(#linearGradient3764);fill-opacity:1"/>
 </g>
 <g>
  <g>
   <g transform="translate(1,1)">
    <g style="opacity:0.1">
     <!-- color: #eeeeee -->
     <g>
      <path d="m 18.656 11.03 c -1.461 0 -2.656 0.969 -2.656 2.156 l 0 21.656 c 0 1.184 1.195 2.188 2.656 2.188 l 10.656 0 c 1.461 0 2.688 -1 2.688 -2.188 l 0 -21.656 c 0 -1.191 -1.227 -2.156 -2.688 -2.156 m -10.313 1.969 l 10 0 c 0.922 0 1 0.25 1 1 l 0 10 c 0 0.75 -0.078 1 -1 1 l -10 0 c -0.922 0 -1 -0.25 -1 -1 l 0 -10 c 0 -0.656 0.242 -0.984 1 -1 m 5 14 c 2.211 0 4 1.789 4 4 c 0 2.207 -1.789 4 -4 4 c -2.211 0 -4 -1.793 -4 -4 c 0 -2.211 1.789 -4 4 -4 m 0 0" style="fill:#000;fill-opacity:1;stroke:none;fill-rule:evenodd"/>
      <path d="m 26 31 c 0 1.105 -0.895 2 -1.996 2 c -1.105 0 -2 -0.898 -2 -2 c 0 -1.105 0.898 -1.996 2 -1.996 c 1.105 0 1.996 0.895 1.996 1.996 m 0 0" style="fill:#000;fill-opacity:1;stroke:none;fill-rule:evenodd"/>
     </g>
    </g>
   </g>
  </g>
 </g>
 <g>
  <g>
   <!-- color: #eeeeee -->
   <g>
    <path d="m 18.656 11.03 c -1.461 0 -2.656 0.969 -2.656 2.156 l 0 21.656 c 0 1.184 1.195 2.188 2.656 2.188 l 10.656 0 c 1.461 0 2.688 -1 2.688 -2.188 l 0 -21.656 c 0 -1.191 -1.227 -2.156 -2.688 -2.156 m -10.313 1.969 l 10 0 c 0.922 0 1 0.25 1 1 l 0 10 c 0 0.75 -0.078 1 -1 1 l -10 0 c -0.922 0 -1 -0.25 -1 -1 l 0 -10 c 0 -0.656 0.242 -0.984 1 -1 m 5 14 c 2.211 0 4 1.789 4 4 c 0 2.207 -1.789 4 -4 4 c -2.211 0 -4 -1.793 -4 -4 c 0 -2.211 1.789 -4 4 -4 m 0 0" style="fill:#535353;fill-opacity:1;stroke:none;fill-rule:evenodd"/>
    <path d="m 26 31 c 0 1.105 -0.895 2 -1.996 2 c -1.105 0 -2 -0.898 -2 -2 c 0 -1.105 0.898 -1.996 2 -1.996 c 1.105 0 1.996 0.895 1.996 1.996 m 0 0" style="fill:#535353;fill-opacity:1;stroke:none;fill-rule:evenodd"/>
   </g>
  </g>
 </g>
 <g>
  
 </g>
</svg>
