<svg xmlns="http://www.w3.org/2000/svg" viewBox="0 0 48 48">
 <defs>
  <linearGradient id="linearGradient3764" x1="1" x2="47" gradientUnits="userSpaceOnUse" gradientTransform="matrix(0,-1,1,0,-1.5e-6,47.999998)">
   <stop style="stop-color:#3d5f89;stop-opacity:1"/>
   <stop offset="1" style="stop-color:#436896;stop-opacity:1"/>
  </linearGradient>
  <linearGradient id="linear0" gradientUnits="userSpaceOnUse" x1="308.56" y1="189.18" x2="304.14" y2="192.71" gradientTransform="matrix(1.341921,0,0,1.376362,-387.47068,-240.73097)">
   <stop style="stop-color:#2eb21e;stop-opacity:1"/>
   <stop offset="0.683" style="stop-color:#45b227;stop-opacity:1"/>
   <stop offset="1" style="stop-color:#70cf16;stop-opacity:0"/>
  </linearGradient>
 </defs>
 <g>
  
  
  
 </g>
 <g>
  <path d="m 47,24 C 47,46.703 46.703,47 24,47 1.297,47 1,46.703 1,24 1,1.297 1.297,1 24,1 46.703,1 47,1.297 47,24 z" style="fill:url(#linearGradient3764);fill-opacity:1"/>
 </g>
 <g>
  <g>
   <g transform="translate(1,1)">
    <g style="opacity:0.1">
     <!-- color: #436896 -->
     <g>
      <path d="m 23.05 13 l 0 5.322 l -1.297 0 l 1.297 1.334 l 0 0.619 c -0.987 -0.387 -2.083 -0.607 -3.242 -0.607 c -4.309 0 -7.809 2.984 -7.809 6.668 c 0 2.211 1.305 4.121 3.246 5.332 l -0.648 5.332 l 5.203 -4 c 4.309 0 7.797 -2.984 7.797 -6.664 c 0 -0.421 -0.05 -0.831 -0.137 -1.23 l 0.109 -0.105 l 0.695 0 l 1.936 1.99 l 0 -1.99 l 1.297 0 l 3.25 5.977 l 0 -5.977 l 3.25 0 l 0 -12 l -14.947 0 z" transform="translate(-1,-1)"/>
     </g>
    </g>
   </g>
  </g>
 </g>
 <g>
  <g>
   <!-- color: #436896 -->
   <g>
    <path d="m 22.05,12 14.949,0 0,12 -3.25,0 0,5.977 L 30.499,24 22.05,24 m 0,-12" style="fill:#dedede;fill-opacity:1;stroke:none;fill-rule:nonzero"/>
    <path d="m 30.93,20.15 1.426,0 0,-0.574 0.586,0 0,1.422 -3.129,0 0,-0.887 c 0.441,-0.102 0.781,-0.383 1.012,-0.848 0.227,-0.469 0.344,-1.109 0.344,-1.926 0,-0.906 -0.141,-1.594 -0.426,-2.07 -0.289,-0.473 -0.703,-0.715 -1.25,-0.715 -0.547,0 -0.961,0.238 -1.25,0.715 -0.281,0.473 -0.422,1.168 -0.422,2.078 0,0.801 0.117,1.438 0.348,1.914 0.23,0.469 0.566,0.75 1,0.852 l 0,0.887 -3.137,0 0,-1.422 0.582,0 0,0.574 1.43,0 C 27.368,19.869 26.86,19.482 26.513,18.99 26.165,18.494 25.99,17.912 25.99,17.236 c 0,-0.969 0.316,-1.75 0.957,-2.34 0.645,-0.598 1.484,-0.895 2.539,-0.895 1.055,0 1.898,0.301 2.543,0.895 0.645,0.59 0.961,1.371 0.961,2.34 0,0.676 -0.172,1.262 -0.52,1.754 -0.348,0.492 -0.855,0.879 -1.535,1.16" style="fill:#535353;fill-opacity:1;stroke:none;fill-rule:nonzero"/>
    <path d="m 26.598,25.336 c 0,3.68 -3.488,6.664 -7.797,6.664 l -5.203,4 0.648,-5.332 C 12.305,29.457 11,27.547 11,25.336 c 0,-3.684 3.5,-6.668 7.809,-6.668 4.313,0 7.789,2.984 7.789,6.668 m 0,0" style="fill:#dedede;fill-opacity:1;stroke:none;fill-rule:nonzero"/>
    <path d="m 19.19 23.17 3.836 -3.512 -2.273 -2.336 8.449 0 0 8.668 -2.273 -2.336 -4.09 3.941" style="fill:url(#linear0);stroke:none;fill-rule:nonzero"/>
    <path d="m 19.91,27.59 -2.824,0 L 16.578,29 15,29 l 2.676,-7 1.715,0 2.605,7 -1.59,0 -0.496,-1.41 m -0.426,-1.203 -0.98,-2.734 -0.98,2.734 1.961,0" style="fill:#535353;fill-opacity:1;stroke:none;fill-rule:nonzero"/>
   </g>
  </g>
 </g>
 <g>
  
 </g>
</svg>
