<svg viewBox="0 0 48 48" xmlns="http://www.w3.org/2000/svg" xmlns:xlink="http://www.w3.org/1999/xlink">
  <linearGradient id="a" gradientTransform="matrix(0 -1 1 0 -.0000015 47.999998)" gradientUnits="userSpaceOnUse" x1="1" x2="47">
    <stop offset="0" stop-color="#3d5f89"/>
    <stop offset="1" stop-color="#436896"/>
  </linearGradient>
  <linearGradient id="b" gradientTransform="matrix(1.341921 0 0 1.376362 -387.47068 -240.73097)" gradientUnits="userSpaceOnUse" x1="308.56" x2="304.14" y1="189.18" y2="192.71">
    <stop offset="0" stop-color="#2eb21e"/>
    <stop offset=".683" stop-color="#45b227"/>
    <stop offset="1" stop-color="#70cf16" stop-opacity="0"/>
  </linearGradient>
  <path d="m47 24c0 22.703-.297 23-23 23-22.703 0-23-.297-23-23 0-22.703.297-23 23-23 22.703 0 23 .297 23 23z" fill="url(#a)"/>
  <path d="m23.05 13v5.322h-1.297l1.297 1.334v.619c-.987-.387-2.083-.607-3.242-.607-4.309 0-7.809 2.984-7.809 6.668 0 2.211 1.305 4.121 3.246 5.332l-.648 5.332 5.203-4c4.309 0 7.797-2.984 7.797-6.664 0-.421-.05-.831-.137-1.23l.109-.105h.695l1.936 1.99v-1.99h1.297l3.25 5.977v-5.977h3.25v-12h-14.947z" opacity=".1" transform=""/>
  <path d="m22.05 12h14.949v12h-3.25v5.977l-3.25-5.977h-8.449m0-12" fill="#dedede"/>
  <path d="m30.93 20.15h1.426v-.574h.586v1.422h-3.129v-.887c.441-.102.781-.383 1.012-.848.227-.469.344-1.109.344-1.926 0-.906-.141-1.594-.426-2.07-.289-.473-.703-.715-1.25-.715-.547 0-.961.238-1.25.715-.281.473-.422 1.168-.422 2.078 0 .801.117 1.438.348 1.914.23.469.566.75 1 .852v.887h-3.137v-1.422h.582v.574h1.43c-.676-.281-1.184-.668-1.531-1.16-.348-.496-.523-1.078-.523-1.754 0-.969.316-1.75.957-2.34.645-.598 1.484-.895 2.539-.895 1.055 0 1.898.301 2.543.895.645.59.961 1.371.961 2.34 0 .676-.172 1.262-.52 1.754-.348.492-.855.879-1.535 1.16" fill="#535353"/>
  <path d="m26.598 25.336c0 3.68-3.488 6.664-7.797 6.664l-5.203 4 .648-5.332c-1.941-1.211-3.246-3.121-3.246-5.332 0-3.684 3.5-6.668 7.809-6.668 4.313 0 7.789 2.984 7.789 6.668m0 0" fill="#dedede"/>
  <path d="m19.19 23.17l3.836-3.512-2.273-2.336h8.449v8.668l-2.273-2.336-4.09 3.941" fill="url(#b)"/>
  <path d="m19.91 27.59h-2.824l-.508 1.41h-1.578l2.676-7h1.715l2.605 7h-1.59zm-.426-1.203l-.98-2.734-.98 2.734h1.961" fill="#535353"/>
</svg>
