<svg viewBox="0 0 48 48" xmlns="http://www.w3.org/2000/svg" xmlns:xlink="http://www.w3.org/1999/xlink">
  <linearGradient id="a" gradientTransform="matrix(0 -1 1 0 -.0000015 47.999998)" gradientUnits="userSpaceOnUse" x1="1" x2="47">
    <stop offset="0" stop-color="#2e6c2c"/>
    <stop offset="1" stop-color="#347a32"/>
  </linearGradient>
  <path d="m47 24c0 22.703-.297 23-23 23-22.703 0-23-.297-23-23 0-22.703.297-23 23-23 22.703 0 23 .297 23 23z" fill="url(#a)"/>
  <g opacity=".1" transform="translate(1 1)">
    <path d="m14 24h5v-13h9v13h5.996l-10.496 13m-9.5-13" fill-opacity=".302"/>
    <path d="m36 34v-4h-12v4m12 0"/>
    <path d="m14.742 30l-2.742-2.906 6.172-5.094-6.172-5.09 2.742-2.91 9.262 8m-9.262 8"/>
  </g>
  <path d="m14 24h5v-13h9v13h5.996l-10.496 13m-9.5-13" fill="#fff" fill-opacity=".302"/>
  <path d="m36 34v-4h-12v4m12 0" fill="#f9f9f9"/>
  <path d="m14.742 30l-2.742-2.906 6.172-5.094-6.172-5.09 2.742-2.91 9.262 8m-9.262 8" fill="#f9f9f9"/>
</svg>
