<svg viewBox="0 0 48 48" xmlns="http://www.w3.org/2000/svg" xmlns:xlink="http://www.w3.org/1999/xlink">
  <linearGradient id="a" gradientTransform="matrix(0 -1 1 0 -.0000015 47.999998)" gradientUnits="userSpaceOnUse" x1="1" x2="47">
    <stop offset="0" stop-color="#3d3d3d"/>
    <stop offset="1" stop-color="#474747"/>
  </linearGradient>
  <path d="m47 24c0 22.703-.297 23-23 23-22.703 0-23-.297-23-23 0-22.703.297-23 23-23 22.703 0 23 .297 23 23z" fill="url(#a)"/>
  <path d="m20 12v6h-.785l-3.473-3-2.742 2.91 4.492 3.703c-.306.249-.492.554-.492.887 0 .547.493 1.021 1.223 1.283l-1.475 1.217h-1.748l.658.9-2.658 2.193 2.742 2.906 2.232-1.928.775 1.059v1.869h1.365l4.385 6 2.422-3h10.08v-4h-5.75v-1.359l3.746-4.641h-3.746v-1.076c1.013-.192 1.75-.753 1.75-1.424 0-.67-.737-1.232-1.75-1.424v-3.076h-1.5v3.076c-.274.052-.526.129-.75.23v-9.307h-9zm9 11.693c.224.102.476.179.75.23v1.076h-.75v-1.307z" opacity=".1" transform=""/>
  <path d="m14 24h5v-13h9v13h5.996l-10.496 13m-9.5-13" fill="#fff" fill-opacity=".302"/>
  <path d="m36 34v-4h-12v4m12 0" fill="#f9f9f9"/>
  <path d="m14.742 30l-2.742-2.906 6.172-5.094-6.172-5.09 2.742-2.91 9.262 8m-9.262 8" fill="#f9f9f9"/>
  <path d="m23.25 16v16h1.5v-16m-1.5 0" fill="#19c700"/>
  <path d="m26.5 28.5c0 .828-1.117 1.5-2.5 1.5-1.383 0-2.5-.672-2.5-1.5 0-.828 1.117-1.5 2.5-1.5 1.383 0 2.5.672 2.5 1.5m0 0" fill="#19c700"/>
  <path d="m19.25 31v-14h-1.5v14m1.5 0" fill="#19c700"/>
  <path d="m21 21.5c0 .828-1.117 1.5-2.5 1.5-1.383 0-2.5-.672-2.5-1.5 0-.828 1.117-1.5 2.5-1.5 1.383 0 2.5.672 2.5 1.5m0 0" fill="#19c700"/>
  <path d="m30.25 31v-14h-1.5v14m1.5 0" fill="#19c700"/>
  <path d="m32 21.5c0 .828-1.117 1.5-2.5 1.5-1.383 0-2.5-.672-2.5-1.5 0-.828 1.117-1.5 2.5-1.5 1.383 0 2.5.672 2.5 1.5m0 0" fill="#19c700"/>
</svg>
