<svg xmlns="http://www.w3.org/2000/svg" viewBox="0 0 48 48">
 <defs>
  <linearGradient id="linearGradient3764" x1="1" x2="47" gradientUnits="userSpaceOnUse" gradientTransform="matrix(0,-1,1,0,-1.5e-6,47.999998)">
   <stop style="stop-color:#3d3d3d;stop-opacity:1"/>
   <stop offset="1" style="stop-color:#474747;stop-opacity:1"/>
  </linearGradient>
 </defs>
 <g>
  
  
  
 </g>
 <g>
  <path d="m 47,24 C 47,46.703 46.703,47 24,47 1.297,47 1,46.703 1,24 1,1.297 1.297,1 24,1 46.703,1 47,1.297 47,24 z" style="fill:url(#linearGradient3764);fill-opacity:1"/>
 </g>
 <g>
  <g>
   <g transform="translate(1,1)">
    <g style="opacity:0.1">
     <!-- color: #474747 -->
     <g>
      <path d="m 20 12 l 0 6 l -0.785 0 l -3.473 -3 l -2.742 2.91 l 4.492 3.703 c -0.306 0.249 -0.492 0.554 -0.492 0.887 c 0 0.547 0.493 1.021 1.223 1.283 l -1.475 1.217 l -1.748 0 l 0.658 0.9 l -2.658 2.193 l 2.742 2.906 l 2.232 -1.928 l 0.775 1.059 l 0 1.869 l 1.365 0 l 4.385 6 l 2.422 -3 l 10.08 0 l 0 -4 l -5.75 0 l 0 -1.359 l 3.746 -4.641 l -3.746 0 l 0 -1.076 c 1.013 -0.192 1.75 -0.753 1.75 -1.424 c 0 -0.67 -0.737 -1.232 -1.75 -1.424 l 0 -3.076 l -1.5 0 l 0 3.076 c -0.274 0.052 -0.526 0.129 -0.75 0.23 l 0 -9.307 l -9 0 z m 9 11.693 c 0.224 0.102 0.476 0.179 0.75 0.23 l 0 1.076 l -0.75 0 l 0 -1.307 z" transform="translate(-1,-1)"/>
     </g>
    </g>
   </g>
  </g>
 </g>
 <g>
  <g>
   <!-- color: #474747 -->
   <g>
    <path d="m 14,24 5,0 0,-13 9,0 0,13 5.996,0 L 23.5,37 M 14,24" style="fill:#fff;fill-opacity:0.302;stroke:none;fill-rule:nonzero"/>
    <path d="m 36 34 0 -4 -12 0 0 4 m 12 0" style="fill:#f9f9f9;fill-opacity:1;stroke:none;fill-rule:nonzero"/>
    <path d="M 14.742,30 12,27.094 18.172,22 12,16.91 14.742,14 l 9.262,8 m -9.262,8" style="fill:#f9f9f9;fill-opacity:1;stroke:none;fill-rule:nonzero"/>
    <path d="m 23.25 16 0 16 1.5 0 0 -16 m -1.5 0" style="fill:#19c700;fill-opacity:1;stroke:none;fill-rule:nonzero"/>
    <path d="m 26.5 28.5 c 0 0.828 -1.117 1.5 -2.5 1.5 -1.383 0 -2.5 -0.672 -2.5 -1.5 0 -0.828 1.117 -1.5 2.5 -1.5 1.383 0 2.5 0.672 2.5 1.5 m 0 0" style="fill:#19c700;fill-opacity:1;stroke:none;fill-rule:nonzero"/>
    <path d="m 19.25 31 0 -14 -1.5 0 0 14 m 1.5 0" style="fill:#19c700;fill-opacity:1;stroke:none;fill-rule:nonzero"/>
    <path d="M 21,21.5 C 21,22.328 19.883,23 18.5,23 17.117,23 16,22.328 16,21.5 16,20.672 17.117,20 18.5,20 c 1.383,0 2.5,0.672 2.5,1.5 m 0,0" style="fill:#19c700;fill-opacity:1;stroke:none;fill-rule:nonzero"/>
    <path d="m 30.25 31 0 -14 -1.5 0 0 14 m 1.5 0" style="fill:#19c700;fill-opacity:1;stroke:none;fill-rule:nonzero"/>
    <path d="M 32,21.5 C 32,22.328 30.883,23 29.5,23 28.117,23 27,22.328 27,21.5 27,20.672 28.117,20 29.5,20 c 1.383,0 2.5,0.672 2.5,1.5 m 0,0" style="fill:#19c700;fill-opacity:1;stroke:none;fill-rule:nonzero"/>
   </g>
  </g>
 </g>
 <g>
  
 </g>
</svg>
