<svg viewBox="0 0 48 48" xmlns="http://www.w3.org/2000/svg" xmlns:xlink="http://www.w3.org/1999/xlink">
  <linearGradient id="a" gradientTransform="matrix(0 -1 1 0 -.0000015 47.999998)" gradientUnits="userSpaceOnUse" x1="1" x2="47">
    <stop offset="0" stop-color="#0a89c4"/>
    <stop offset="1" stop-color="#0b96d7"/>
  </linearGradient>
  <path d="m47 24c0 22.703-.297 23-23 23-22.703 0-23-.297-23-23 0-22.703.297-23 23-23 22.703 0 23 .297 23 23z" fill="url(#a)"/>
  <path d="m25 11v5c-4.971 0-9 3.582-9 8 0 4.418 4.03 8 9 8 1.023-.001 2.037-.165 3-.473v.473c0 1.657-1.343 3-3 3v4c3.866 0 7-3.134 7-7v-16c0-2.761-3.134-5-7-5z" opacity=".1"/>
  <path d="m24 15c-4.971 0-9 3.582-9 8 0 4.418 4.03 8 9 8 1.023-.001 2.037-.165 3-.473v.473c0 1.657-1.343 3-3 3v4c3.866 0 7-3.134 7-7v-16z" fill="#b4d848"/>
  <path d="m24 10c0 3.044 0 6.089 0 9.133-.326-.086-.662-.131-1-.133-2.209 0-4 1.791-4 4 0 2.209 1.791 4 4 4 2.209 0 4-1.791 4-4v-8h4c0-2.761-3.134-5-7-5z" fill="#424242"/>
</svg>
