<svg viewBox="0 0 48 48" xmlns="http://www.w3.org/2000/svg" xmlns:xlink="http://www.w3.org/1999/xlink">
  <linearGradient id="a" gradientUnits="userSpaceOnUse" x2="0" y1="1" y2="47">
    <stop offset="0" stop-color="#d7e6ff"/>
    <stop offset="1" stop-color="#c3daff"/>
  </linearGradient>
  <path d="m24 1c22.703 0 23 .297 23 23 0 22.703-.297 23-23 23-22.703 0-23-.297-23-23 0-22.703.297-23 23-23z" fill="url(#a)"/>
  <path d="m13 13v21l3-3v6h21v-17h-10l7-7z" fill-opacity=".098"/>
  <path d="m12 12v21l21-21z" fill="#3a9bfe"/>
  <path d="m15 19h21v17h-21z" fill="#353535"/>
  <path d="m16 20h19v4h-19z" fill="#ebf3b7"/>
  <path d="m16 25h6v10h-6z" fill="#ebf3b7"/>
  <path d="m23 25h12v4h-12z" fill="#f9f9f9"/>
  <path d="m23 30h12v5h-12z" fill="#f9f9f9"/>
</svg>
