<svg xmlns="http://www.w3.org/2000/svg" viewBox="0 0 48 48">
 <defs>
  <linearGradient y2="47" x2="0" y1="1" gradientUnits="userSpaceOnUse" id="linearGradient3028">
   <stop style="stop-color:#d7e6ff;stop-opacity:1"/>
   <stop offset="1" style="stop-color:#c3daff;stop-opacity:1"/>
  </linearGradient>
 </defs>
 <g>
  
  
  
 </g>
 <path d="M 24,1 C 46.703,1 47,1.297 47,24 47,46.703 46.703,47 24,47 1.297,47 1,46.703 1,24 1,1.297 1.297,1 24,1 Z" style="fill:url(#linearGradient3028);fill-opacity:1"/>
 <g>
  
 </g>
 <path d="m 13 13 0 21 3 -3 0 6 21 0 0 -17 -10 0 7 -7 -21 0 z" style="fill:#000;fill-opacity:0.098;stroke:none"/>
 <g>
  <path d="m 12 12 0 21 21 -21 -21 0" style="fill:#3a9bfe;fill-opacity:1;stroke:none"/>
  <rect y="19" x="15" height="17" width="21" style="fill:#353535;fill-opacity:1;stroke:none;fill-rule:nonzero"/>
  <rect y="20" x="16" height="4" width="19" style="fill:#ebf3b7;fill-opacity:1;stroke:none;fill-rule:nonzero"/>
  <rect y="25" x="16" height="10" width="6" style="fill:#ebf3b7;fill-opacity:1;stroke:none;fill-rule:nonzero"/>
  <rect y="25" x="23" height="4" width="12" style="fill:#f9f9f9;fill-opacity:1;stroke:none;fill-rule:nonzero"/>
  <rect y="30" x="23" height="5" width="12" style="fill:#f9f9f9;fill-opacity:1;stroke:none;fill-rule:nonzero"/>
 </g>
</svg>
