<svg viewBox="0 0 48 48" xmlns="http://www.w3.org/2000/svg" xmlns:xlink="http://www.w3.org/1999/xlink">
  <linearGradient id="a" gradientTransform="matrix(0 -1 1 0 -.0000015 47.999998)" gradientUnits="userSpaceOnUse" x1="1" x2="47">
    <stop offset="0" stop-color="#e4e4e4"/>
    <stop offset="1" stop-color="#eee"/>
  </linearGradient>
  <path d="m24 1c22.703 0 23 .297 23 23 0 22.703-.297 23-23 23-22.703 0-23-.297-23-23 0-22.703.297-23 23-23z" fill="url(#a)"/>
  <path d="m25 14c-2 0-7 0-9 2-4 4-2 9 0 13 2 4 6 9 9 9 3 0 7-5 9-9 2-4 4-9 0-13-2-2-7-2-9-2z" fill-rule="evenodd" opacity=".1"/>
  <path d="m24 13c-2 0-7 0-9 2-4 4-2 9 0 13 2 4 6 9 9 9 3 0 7-5 9-9 2-4 4-9 0-13-2-2-7-2-9-2z" fill="#3f3f3f" fill-rule="evenodd"/>
  <path d="m26.414 17c-2.456.032-4.308.721-5.555 2.066-1.239 1.341-1.859 3.282-1.859 5.822v.672c0 1.598.472 2.907 1.414 3.924.941 1.01 2.169 1.516 3.684 1.516 1.493 0 2.683-.426 3.566-1.279.891-.853 1.336-1.991 1.336-3.412 0-1.339-.412-2.433-1.238-3.279-.819-.847-1.916-1.27-3.293-1.27-1.442 0-2.635.416-3.469 1.25.145-1.421.737-2.523 1.664-3.307.927-.783 2.173-1.188 3.738-1.213h.598v-1.49m-2.869 6.219c.87 0 1.564.293 2.086.881.529.581.783 1.346.783 2.293 0 .942-.25 1.704-.771 2.285-.514.581-1.225.871-2.131.871-.877 0-1.609-.348-2.195-1.043-.587-.695-.902-1.611-.902-2.748v-.643c.224-.543.649-.995 1.229-1.355.58-.36 1.214-.541 1.902-.541z" fill="#d74d3b" fill-opacity=".941"/>
</svg>
