<svg xmlns="http://www.w3.org/2000/svg" viewBox="0 0 48 48">
 <defs>
  <linearGradient id="linearGradient3764" x1="1" x2="47" gradientUnits="userSpaceOnUse" gradientTransform="matrix(0,-1,1,0,-1.5e-6,47.999998)">
   <stop style="stop-color:#f47b2c;stop-opacity:1"/>
   <stop offset="1" style="stop-color:#f5873f;stop-opacity:1"/>
  </linearGradient>
 </defs>
 <g>
  
  
  
 </g>
 <g>
  <path d="m 47,24 C 47,46.703 46.703,47 24,47 1.297,47 1,46.703 1,24 1,1.297 1.297,1 24,1 46.703,1 47,1.297 47,24 z" style="fill:url(#linearGradient3764);fill-opacity:1"/>
 </g>
 <g>
  
 </g>
 <path d="m 25 14 c -2.122 0 -7.427 0 -9.55 2 -4.244 4 -2.122 9 0 13 2.122 4 6.366 9 9.55 9 3.183 0 7.428 -5 9.55 -9 2.122 -4 4.244 -9 0 -13 -2.122 -2 -7.428 -2 -9.55 -2 z" style="fill:#000;opacity:0.1;fill-opacity:1;stroke:none;fill-rule:evenodd"/>
 <path d="m 24 13 c -2.122 0 -7.427 0 -9.55 2 -4.244 4 -2.122 9 0 13 2.122 4 6.366 9 9.55 9 3.183 0 7.428 -5 9.55 -9 2.122 -4 4.244 -9 0 -13 -2.122 -2 -7.428 -2 -9.55 -2 z" style="fill:#3f3f3f;fill-opacity:1;stroke:none;fill-rule:evenodd"/>
 <path d="m 24.78 16.01 c -1.298 0.033 -2.595 0.385 -3.779 1.066 -3.826 2.209 -5.137 7.102 -2.928 10.928 2.209 3.826 7.102 5.137 10.928 2.928 3.156 -1.825 4.679 -5.553 3.703 -9.07 l -9.09 5.248 c 0.527 0.559 1.098 1.01 1.688 1.336 l 5.561 -3.211 c -0.349 1.667 -1.39 3.108 -2.863 3.963 -2.87 1.657 -6.538 0.673 -8.195 -2.197 -1.657 -2.87 -0.675 -6.538 2.195 -8.195 1.476 -0.847 3.244 -1.028 4.861 -0.496 l -5.559 3.209 c -0.012 0.674 0.093 1.392 0.313 2.129 3.03 -1.748 6.06 -3.496 9.08 -5.244 -1.596 -1.625 -3.751 -2.448 -5.914 -2.393 z m 6.586 3.164 -9.404 5.43 c 0.132 0.302 0.269 0.603 0.441 0.9 0.171 0.297 0.364 0.567 0.559 0.832 l 9.406 -5.432 c -0.127 -0.309 -0.274 -0.609 -0.439 -0.9 -0.17 -0.288 -0.358 -0.565 -0.563 -0.83 z" style="fill:#000;opacity:0.1;fill-opacity:1;stroke:none"/>
 <path d="m 23.78 15 c -1.298 0.033 -2.595 0.385 -3.779 1.066 -3.826 2.209 -5.137 7.102 -2.928 10.928 2.209 3.826 7.102 5.137 10.928 2.928 3.156 -1.825 4.679 -5.553 3.703 -9.07 l -9.09 5.248 c 0.527 0.559 1.098 1.01 1.688 1.336 l 5.561 -3.211 c -0.349 1.667 -1.39 3.108 -2.863 3.963 -2.87 1.657 -6.538 0.673 -8.195 -2.197 -1.657 -2.87 -0.675 -6.538 2.195 -8.195 1.476 -0.847 3.244 -1.028 4.861 -0.496 l -5.559 3.209 c -0.012 0.674 0.093 1.392 0.313 2.129 3.03 -1.748 6.06 -3.496 9.08 -5.244 -1.596 -1.625 -3.751 -2.448 -5.914 -2.393 z m 6.586 3.164 -9.404 5.43 c 0.132 0.302 0.269 0.603 0.441 0.9 0.171 0.297 0.364 0.567 0.559 0.832 l 9.406 -5.432 c -0.127 -0.309 -0.274 -0.609 -0.439 -0.9 -0.17 -0.288 -0.358 -0.565 -0.563 -0.83 z" style="fill:#eaeaea;opacity:1;fill-opacity:1;stroke:none"/>
</svg>
