<svg viewBox="0 0 48 48" xmlns="http://www.w3.org/2000/svg" xmlns:xlink="http://www.w3.org/1999/xlink">
  <linearGradient id="a" gradientTransform="matrix(0 -1 1 0 -.0000015 47.999998)" gradientUnits="userSpaceOnUse" x1="1" x2="47">
    <stop offset="0" stop-color="#f47b2c"/>
    <stop offset="1" stop-color="#f5873f"/>
  </linearGradient>
  <path d="m47 24c0 22.703-.297 23-23 23-22.703 0-23-.297-23-23 0-22.703.297-23 23-23 22.703 0 23 .297 23 23z" fill="url(#a)"/>
  <path d="m25 14c-2.122 0-7.427 0-9.55 2-4.244 4-2.122 9 0 13 2.122 4 6.366 9 9.55 9 3.183 0 7.428-5 9.55-9 2.122-4 4.244-9 0-13-2.122-2-7.428-2-9.55-2z" fill-rule="evenodd" opacity=".1"/>
  <path d="m24 13c-2.122 0-7.427 0-9.55 2-4.244 4-2.122 9 0 13 2.122 4 6.366 9 9.55 9 3.183 0 7.428-5 9.55-9 2.122-4 4.244-9 0-13-2.122-2-7.428-2-9.55-2z" fill="#3f3f3f" fill-rule="evenodd"/>
  <path d="m24.78 16.01c-1.298.033-2.595.385-3.779 1.066-3.826 2.209-5.137 7.102-2.928 10.928 2.209 3.826 7.102 5.137 10.928 2.928 3.156-1.825 4.679-5.553 3.703-9.07l-9.09 5.248c.527.559 1.098 1.01 1.688 1.336l5.561-3.211c-.349 1.667-1.39 3.108-2.863 3.963-2.87 1.657-6.538.673-8.195-2.197-1.657-2.87-.675-6.538 2.195-8.195 1.476-.847 3.244-1.028 4.861-.496l-5.559 3.209c-.012.674.093 1.392.313 2.129 3.03-1.748 6.06-3.496 9.08-5.244-1.596-1.625-3.751-2.448-5.914-2.393zm6.586 3.164l-9.404 5.43c.132.302.269.603.441.9.171.297.364.567.559.832l9.406-5.432c-.127-.309-.274-.609-.439-.9-.17-.288-.358-.565-.563-.83z" opacity=".1"/>
  <path d="m23.78 15c-1.298.033-2.595.385-3.779 1.066-3.826 2.209-5.137 7.102-2.928 10.928 2.209 3.826 7.102 5.137 10.928 2.928 3.156-1.825 4.679-5.553 3.703-9.07l-9.09 5.248c.527.559 1.098 1.01 1.688 1.336l5.561-3.211c-.349 1.667-1.39 3.108-2.863 3.963-2.87 1.657-6.538.673-8.195-2.197-1.657-2.87-.675-6.538 2.195-8.195 1.476-.847 3.244-1.028 4.861-.496l-5.559 3.209c-.012.674.093 1.392.313 2.129 3.03-1.748 6.06-3.496 9.08-5.244-1.596-1.625-3.751-2.448-5.914-2.393zm6.586 3.164l-9.404 5.43c.132.302.269.603.441.9.171.297.364.567.559.832l9.406-5.432c-.127-.309-.274-.609-.439-.9-.17-.288-.358-.565-.563-.83z" fill="#eaeaea"/>
</svg>
