<svg xmlns="http://www.w3.org/2000/svg" viewBox="0 0 48 48">
 <defs>
  <linearGradient id="linearGradient3764" x1="1" x2="47" gradientUnits="userSpaceOnUse" gradientTransform="matrix(0,-1,1,0,-1.5e-6,47.999998)">
   <stop style="stop-color:#8fc361;stop-opacity:1"/>
   <stop offset="1" style="stop-color:#99c86f;stop-opacity:1"/>
  </linearGradient>
  <linearGradient id="linear0" gradientUnits="userSpaceOnUse" y1="81.38" x2="0" y2="21.384" gradientTransform="matrix(0.620285,0,0,0.6,-6.156983,-7.199999)">
   <stop style="stop-color:#0a0a0a;stop-opacity:1"/>
   <stop offset="1" style="stop-color:#191919;stop-opacity:1"/>
  </linearGradient>
 </defs>
 <g>
  
  
  
 </g>
 <g>
  <path d="m 47,24 C 47,46.703 46.703,47 24,47 1.297,47 1,46.703 1,24 1,1.297 1.297,1 24,1 46.703,1 47,1.297 47,24 z" style="fill:url(#linearGradient3764);fill-opacity:1"/>
 </g>
 <g>
  <g>
   <g transform="translate(1,1)">
    <g style="opacity:0.1">
     <!-- color: #99c86f -->
     <g>
      <path d="m 31.996 34.738 c -1.395 0.441 -1.203 0.508 -2.707 0.809 c -1.504 0.305 -3.121 0.453 -4.852 0.453 c -1.91 0 -3.637 -0.25 -5.176 -0.75 c -1.527 -0.512 -2.828 -1.262 -3.91 -2.25 c -1.082 -1 -1.914 -2.23 -2.488 -3.695 c -0.578 -1.465 -0.867 -3.156 -0.867 -5.078 c 0 -4.094 1.059 -7.148 3.176 -9.172 c 2.125 -2.035 5.238 -3.055 9.34 -3.055 c 1.563 0 3.047 0.094 4.453 0.281 c 1.418 0.184 2.766 0.441 4.04 0.766 l -0.008 4.953 l -1 0 l -0.688 -2.824 c -0.828 -0.57 -1.828 -1.012 -2.992 -1.309 c -1.156 -0.316 -2.375 -0.473 -3.66 -0.473 c -1.406 0 -2.664 0.191 -3.77 0.578 c -1.094 0.371 -2.02 0.98 -2.777 1.828 c -0.758 0.852 -1.34 1.965 -1.75 3.352 c -0.395 1.371 -0.594 3.051 -0.594 5.04 c 0 2.01 0.234 3.691 0.703 5.04 c 0.469 1.34 1.102 2.406 1.895 3.211 c 0.805 0.801 1.73 1.371 2.777 1.707 c 1.055 0.34 2.168 0.508 3.336 0.508 c 0.586 0 1.172 -0.035 1.746 -0.102 c 0.59 -0.082 1.137 -0.184 1.641 -0.297 c 0.52 -0.117 0.977 -0.246 1.371 -0.387 c 0.398 -0.141 0.535 -0.27 0.762 -0.398 l 0 -6.477 l -3 -1 l 0 -1 l 9 0 l 0 1 l -3 1 l 0 7.34" style="fill:#000;stroke:none;fill-rule:nonzero"/>
     </g>
    </g>
   </g>
  </g>
 </g>
 <g>
  <g>
   <!-- color: #99c86f -->
   <g>
    <path d="m 31.996 34.738 c -1.395 0.441 -1.203 0.508 -2.707 0.809 c -1.504 0.305 -3.121 0.453 -4.852 0.453 c -1.91 0 -3.637 -0.25 -5.176 -0.75 c -1.527 -0.512 -2.828 -1.262 -3.91 -2.25 c -1.082 -1 -1.914 -2.23 -2.488 -3.695 c -0.578 -1.465 -0.867 -3.156 -0.867 -5.078 c 0 -4.094 1.059 -7.148 3.176 -9.172 c 2.125 -2.035 5.238 -3.055 9.34 -3.055 c 1.563 0 3.047 0.094 4.453 0.281 c 1.418 0.184 2.766 0.441 4.04 0.766 l -0.008 4.953 l -1 0 l -0.688 -2.824 c -0.828 -0.57 -1.828 -1.012 -2.992 -1.309 c -1.156 -0.316 -2.375 -0.473 -3.66 -0.473 c -1.406 0 -2.664 0.191 -3.77 0.578 c -1.094 0.371 -2.02 0.98 -2.777 1.828 c -0.758 0.852 -1.34 1.965 -1.75 3.352 c -0.395 1.371 -0.594 3.051 -0.594 5.04 c 0 2.01 0.234 3.691 0.703 5.04 c 0.469 1.34 1.102 2.406 1.895 3.211 c 0.805 0.801 1.73 1.371 2.777 1.707 c 1.055 0.34 2.168 0.508 3.336 0.508 c 0.586 0 1.172 -0.035 1.746 -0.102 c 0.59 -0.082 1.137 -0.184 1.641 -0.297 c 0.52 -0.117 0.977 -0.246 1.371 -0.387 c 0.398 -0.141 0.535 -0.27 0.762 -0.398 l 0 -6.477 l -3 -1 l 0 -1 l 9 0 l 0 1 l -3 1 l 0 7.34" style="fill:url(#linear0);fill-opacity:1;stroke:none;fill-rule:nonzero"/>
   </g>
  </g>
 </g>
 <g>
  
 </g>
</svg>
