<svg viewBox="0 0 48 48" xmlns="http://www.w3.org/2000/svg" xmlns:xlink="http://www.w3.org/1999/xlink">
  <linearGradient id="a" gradientTransform="matrix(0 -1 1 0 -.0000015 47.999998)" gradientUnits="userSpaceOnUse" x1="1" x2="47">
    <stop offset="0" stop-color="#8fc361"/>
    <stop offset="1" stop-color="#99c86f"/>
  </linearGradient>
  <linearGradient id="b" gradientTransform="matrix(.620285 0 0 .6 -6.156983 -7.199999)" gradientUnits="userSpaceOnUse" x2="0" y1="81.38" y2="21.384">
    <stop offset="0" stop-color="#0a0a0a"/>
    <stop offset="1" stop-color="#191919"/>
  </linearGradient>
  <path d="m47 24c0 22.703-.297 23-23 23-22.703 0-23-.297-23-23 0-22.703.297-23 23-23 22.703 0 23 .297 23 23z" fill="url(#a)"/>
  <path d="m31.996 34.738c-1.395.441-1.203.508-2.707.809-1.504.305-3.121.453-4.852.453-1.91 0-3.637-.25-5.176-.75-1.527-.512-2.828-1.262-3.91-2.25-1.082-1-1.914-2.23-2.488-3.695-.578-1.465-.867-3.156-.867-5.078 0-4.094 1.059-7.148 3.176-9.172 2.125-2.035 5.238-3.055 9.34-3.055 1.563 0 3.047.094 4.453.281 1.418.184 2.766.441 4.04.766l-.008 4.953h-1l-.688-2.824c-.828-.57-1.828-1.012-2.992-1.309-1.156-.316-2.375-.473-3.66-.473-1.406 0-2.664.191-3.77.578-1.094.371-2.02.98-2.777 1.828-.758.852-1.34 1.965-1.75 3.352-.395 1.371-.594 3.051-.594 5.04 0 2.01.234 3.691.703 5.04.469 1.34 1.102 2.406 1.895 3.211.805.801 1.73 1.371 2.777 1.707 1.055.34 2.168.508 3.336.508.586 0 1.172-.035 1.746-.102.59-.082 1.137-.184 1.641-.297.52-.117.977-.246 1.371-.387.398-.141.535-.27.762-.398v-6.477l-3-1v-1h9v1l-3 1v7.34" opacity=".1" transform="translate(1 1)"/>
  <path d="m31.996 34.738c-1.395.441-1.203.508-2.707.809-1.504.305-3.121.453-4.852.453-1.91 0-3.637-.25-5.176-.75-1.527-.512-2.828-1.262-3.91-2.25-1.082-1-1.914-2.23-2.488-3.695-.578-1.465-.867-3.156-.867-5.078 0-4.094 1.059-7.148 3.176-9.172 2.125-2.035 5.238-3.055 9.34-3.055 1.563 0 3.047.094 4.453.281 1.418.184 2.766.441 4.04.766l-.008 4.953h-1l-.688-2.824c-.828-.57-1.828-1.012-2.992-1.309-1.156-.316-2.375-.473-3.66-.473-1.406 0-2.664.191-3.77.578-1.094.371-2.02.98-2.777 1.828-.758.852-1.34 1.965-1.75 3.352-.395 1.371-.594 3.051-.594 5.04 0 2.01.234 3.691.703 5.04.469 1.34 1.102 2.406 1.895 3.211.805.801 1.73 1.371 2.777 1.707 1.055.34 2.168.508 3.336.508.586 0 1.172-.035 1.746-.102.59-.082 1.137-.184 1.641-.297.52-.117.977-.246 1.371-.387.398-.141.535-.27.762-.398v-6.477l-3-1v-1h9v1l-3 1v7.34" fill="url(#b)"/>
</svg>
