<svg viewBox="0 0 48 48" xmlns="http://www.w3.org/2000/svg" xmlns:xlink="http://www.w3.org/1999/xlink">
  <linearGradient id="a" gradientTransform="matrix(0 -1 1 0 -.0000015 47.999998)" gradientUnits="userSpaceOnUse" x1="1" x2="47">
    <stop offset="0" stop-color="#b93b3b"/>
    <stop offset="1" stop-color="#c34545"/>
  </linearGradient>
  <path d="m24 1c22.703 0 23 .297 23 23 0 22.703-.297 23-23 23-22.703 0-23-.297-23-23 0-22.703.297-23 23-23z" fill="url(#a)"/>
  <path d="m28.09 11c0 0 1.906.43 2.104 2.145.298 2.595-3.418 2.813-3.418 4.355 0 1.542 2.999 2.239 2.885 3.881-.107 1.539-3.03 2.297-3.03 2.297 5.03-.789 6.608-3.143 6.779-5.133.171-1.99-2.166-3.426-2.166-3.426.528-3.775-3.154-4.119-3.154-4.119m-.154.529c0 0 .646.365.391 1.078-.255.713-1.129.763-3.713.816-2.189.046-5.367.295-7.457 2.385-2.19 2.19-1.841 5.772 3.02 7.207 0 0-5.249.853-5.15 3.615.098 2.745 3.477 3.405 8.732 3.508 5.331.105 7.352.606 7.352 1.795 0 .964-1.617 1.507-4.072 1.59-2.579.087-4.395-.267-4.412-.947-.023-.913 2.455-.463 2.455-.463 0 0-.917-.382-2.119-.332-.858.035-1.451.446-1.469.971-.026.771.704 1.421 2.695 1.732 3.073.481 7.06.448 9.639-1.045 1.926-1.113 2.147-2.899 1.449-4.04-1.473-2.41-5.953-3.078-9.164-3.174-2.793-.083-6.348-.264-6.348-1.213 0-1.291 3.971-.547 3.92-2.139-.046-1.426-3.752-1.472-3.236-4.998.239-1.636 2.371-2.523 4.242-2.914 1.871-.391 4.25-1.158 4.295-2.129.045-.97-1.053-1.303-1.053-1.303zm-3.045 5.434c-.288.007-.713.519-.643 1.039.07.52.596.99.896.844.234-.114-.199-.411-.174-.936.028-.593.287-.956-.08-.947zm-2.02.541c-.279.066-.584.652-.402 1.146.182.494.799.849 1.061.645.204-.16-.285-.363-.375-.881-.102-.585.074-.994-.283-.91zm2.26 2.879c-.148-.007-.279.014-.373.072-.294.183.461.373.643.922.205.621-.022 1.07.51.959.417-.087.824-.733.506-1.252-.239-.389-.84-.679-1.285-.701zm-7.307 10.393c-1.596-.071-3.739.206-3.818 2.189-.012.309.127 4.04 10.428 4.04 10.301 0 11.572-4.533 11.572-4.533 0 0-.943 3.461-11.11 3.195-4.994-.13-7.469-1.292-7.469-2.785 0-1.791 2.111-1.893 2.111-1.893 0 0-.759-.166-1.717-.209z" opacity=".1"/>
  <path d="m35 31.468c0 0-1.27 4.532-11.572 4.532-10.301 0-10.44-3.727-10.428-4.04.127-3.174 5.535-1.98 5.535-1.98 0 0-2.112.099-2.112 1.891 0 1.493 2.474 2.656 7.469 2.786 10.164.265 11.11-3.194 11.11-3.194" fill="#f4e3d7"/>
  <path d="m27.09 10c0 0 3.683.345 3.155 4.119 0 0 2.337 1.436 2.166 3.426-.171 1.99-1.749 4.343-6.78 5.132 0 0 2.923-.757 3.03-2.296.114-1.642-2.884-2.339-2.884-3.881 0-1.543 3.715-1.761 3.416-4.355-.198-1.715-2.102-2.145-2.102-2.145" fill="#f4e3d7"/>
  <path d="m24.14 17.847c.234-.114-.199-.412-.174-.936.028-.593.288-.957-.079-.948-.288.007-.713.518-.643 1.039.07.52.596.992.896.846" fill="#fc0"/>
  <path d="m23.751 19.456c-.294.183.462.372.643.921.205.621-.022 1.07.51.959.417-.087.825-.732.506-1.251-.318-.519-1.282-.862-1.659-.628" fill="#fc0"/>
  <path d="m22.524 18.295c.204-.16-.285-.362-.374-.88-.102-.585.073-.995-.284-.911-.279.066-.584.652-.402 1.146.182.494.799.848 1.061.644" fill="#fc0"/>
  <path d="m34.28 28.398c-1.473-2.41-5.953-3.077-9.165-3.173-2.793-.083-6.346-.265-6.346-1.214 0-1.291 3.971-.545 3.92-2.137-.046-1.426-3.754-1.472-3.238-4.998.239-1.636 2.372-2.524 4.243-2.915 1.871-.391 4.25-1.159 4.295-2.129.045-.97-1.053-1.302-1.053-1.302 0 0 .647.365.392 1.078-.255.713-1.131.763-3.714.817-2.189.046-5.365.295-7.456 2.384-2.19 2.19-1.841 5.772 3.02 7.207 0 0-5.25.853-5.151 3.616.098 2.745 3.478 3.404 8.734 3.508 5.331.105 7.35.606 7.35 1.795 0 .964-1.616 1.506-4.071 1.589-2.579.087-4.395-.265-4.412-.945-.023-.913 2.455-.464 2.455-.464 0 0-.919-.381-2.12-.332-.858.035-1.45.446-1.468.97-.026.771.705 1.422 2.696 1.733 3.073.481 7.06.448 9.638-1.045 1.926-1.113 2.148-2.9 1.45-4.04" fill="#f4e3d7"/>
</svg>
