<svg viewBox="0 0 48 48" xmlns="http://www.w3.org/2000/svg" xmlns:xlink="http://www.w3.org/1999/xlink">
  <linearGradient id="a" gradientUnits="userSpaceOnUse" x2="0" y1="46.835" y2="1">
    <stop offset="0" stop-color="#596679"/>
    <stop offset="1" stop-color="#617085"/>
  </linearGradient>
  <path d="m24 1c22.703 0 23 .297 23 23 0 22.703-.297 23-23 23-22.703 0-23-.297-23-23 0-22.703.297-23 23-23z" fill="url(#a)"/>
  <path d="m23.916 15c-.415 1.443-.629 2.96-1.177 4.353-.274.549-.549 1.098-.823 1.647-.648-.083-1.224-.05-1.353.707-.244.274-.623 1.772-.742.91-.301-1.206-.603-2.411-.904-3.617-.333 1.333-.667 2.667-1 4-.5-.5-1-1-1.5-1.5-.531.053-1.189.646-1.64.36-.62-.62-1.24-1.24-1.86-1.86-.667.667-1.333 1.333-2 2-.333-.667-.667-1.333-1-2-.542.751-.99 1.607-1.588 2.294-.739.356-1.439.873-2.301.706-1.704 0-3.323 0-5.03 0 0 .667 0 1.333 0 2 2.026.029 3.996-.059 6 .044.683.38 1.532.57 1.85 1.363.354.531.708 1.062 1.062 1.592.333-.667.667-1.333 1-2 .667.667 1.333 1.333 2 2 .667-.667 1.333-1.333 2-2 .531.053 1.189.646 1.64.36.453-.453.907-.907 1.36-1.36.333 1.333.667 2.667 1 4 .333-1.333.667-2.667 1-4 .333.667.667 1.333 1 2 .648-.083 1.224-.05 1.353.707.898 1.47 1.061 3.212 1.533 4.839.134 1 .365-.524.551-.858.353-1.299.937-2.502 1.563-3.688.66.088 1.232.053 1.25-.75.25-.75.5-1.5.75-2.25.667.5 1.333 1 2 1.5.667-.5 1.333-1 2-1.5.667 1.5 1.333 3 2 4.5.667-1.167 1.333-2.333 2-3.5.667.667 1.333 1.333 2 2 .333-1 .667-2 1-3 .667.667 1.333 1.333 2 2 .71-.642 1.341-1.474 2.099-2 1.3 0 2.685 0 3.985 0 0-.667 0-1.333 0-2-1.333 0-2.751 0-4.084 0-.667-.667-1.333-1.333-2-2-.667.667-1.333 1.333-2 2-.333-1-.667-2-1-3-.667.667-1.333 1.333-2 2-.667-1.167-1.333-2.333-2-3.5-.667 1.5-1.333 3-2 4.5-.667-.5-1.333-1-2-1.5-.667.5-1.333 1-2 1.5-.667-1.333-1.333-2.667-2-4-.667.09-1.236.054-1.192-.767-.269-1.078-.539-2.156-.808-3.233z" fill="#8080ff"/>
  <path d="m34.33 13.488c-.707 0-1.238.178-1.238.178l-7.223 8.332-1.262-1.262-.707 2.121-.707.707-9.193 4.951 2.121 2.121 3.535-2.121-2.828 2.828 5.656 5.656 4.951-9.193.707-.707 2.121-.707-1.262-1.262 8.332-7.223c0 0 .707-2.121-.707-3.535-.707-.707-1.59-.885-2.297-.885zm.176 2.01c.256 0 .512.098.707.293.391.391.391 1.024 0 1.414-.391.391-1.024.391-1.414 0-.391-.391-.391-1.024 0-1.414.195-.195.451-.293.707-.293z" opacity=".1" transform="matrix(1 0 0 1 -.00000007 -.00000023)"/>
  <g transform="matrix(.70710678 .70710678 -.70710678 .70710678 50.47665934 18.32233034)">
    <path d="m-14 7c-2 0-3 2-3 2l1 14h4l1-14c0 0-1-2-3-2zm0 2c .552 0 1 .448 1 1 0 .552-.448 1-1 1-.552 0-1-.448-1-1 0-.552.448-1 1-1z" fill="#d38d5f"/>
    <path d="m-18 20h8l-1 2v1l3 10h-8v-4l-1 4h-3l3-10v-1z" fill="#fc0"/>
    <path d="m-17 22h6v1h-6z" fill="#a05a2c"/>
  </g>
</svg>
