<svg viewBox="0 0 48 48" xmlns="http://www.w3.org/2000/svg" xmlns:xlink="http://www.w3.org/1999/xlink">
  <linearGradient id="a" gradientTransform="matrix(0 -1 1 0 -.0000015 47.999998)" gradientUnits="userSpaceOnUse" x1="1" x2="47">
    <stop offset="0" stop-color="#bad1d6"/>
    <stop offset="1" stop-color="#c6d9dd"/>
  </linearGradient>
  <linearGradient id="b" gradientTransform="matrix(.0412087 0 0 .0570472 5.02324 -1.616067)" gradientUnits="userSpaceOnUse" x1="243.07" x2="319.35" y1="568.62" y2="382.07">
    <stop offset="0" stop-color="#00629c"/>
    <stop offset="1" stop-color="#92b9c6" stop-opacity=".392"/>
  </linearGradient>
  <linearGradient id="c" gradientTransform="matrix(.0356102 0 0 .0660118 5.02324 -1.616067)" gradientUnits="userSpaceOnUse" x1="239.5" x2="677.44" y1="372.62" y2="610.43">
    <stop offset="0" stop-color="#ececec" stop-opacity=".706"/>
    <stop offset="1" stop-color="#2db2c8"/>
  </linearGradient>
  <linearGradient id="d" gradientTransform="matrix(.0404291 0 0 .0581102 5.02324 -1.616067)" gradientUnits="userSpaceOnUse" x1="871.16" x2="768.11" xlink:href="#c" y1="413.99" y2="573.2"/>
  <linearGradient id="e" gradientTransform="matrix(.105803 0 0 .0222165 5.02324 -1.616067)" gradientUnits="userSpaceOnUse" x1="175.09" x2="342.98" xlink:href="#c" y1="847.02" y2="901.72"/>
  <linearGradient id="f" gradientTransform="matrix(.0356102 0 0 .0660118 5.02324 -1.616067)" gradientUnits="userSpaceOnUse" x1="239.5" x2="677.44" xlink:href="#c" y1="372.62" y2="610.43"/>
  <path d="m47 24c0 22.703-.297 23-23 23-22.703 0-23-.297-23-23 0-22.703.297-23 23-23 22.703 0 23 .297 23 23z" fill="url(#a)"/>
  <path d="m17.5 14h15l5.5 6-13 18-13-18z" fill-rule="evenodd" opacity=".1"/>
  <path d="m16.5 13h15l5.5 6-13 18-13-18z" fill="#2a2a2a" fill-rule="evenodd"/>
  <path d="m17.5 14.5h13l4.5 4.5-11 15.5-11-15.5z" fill="#25acba" fill-rule="evenodd"/>
  <path d="m24 34.5l11-15.5h-11" fill="#0a62a1" fill-rule="evenodd"/>
  <path d="m24 34.495l-11-15.495h11" fill="url(#b)" fill-rule="evenodd"/>
  <path d="m24 34.5l-4.84-14.273-2.83 3.473" fill="url(#f)" fill-rule="evenodd"/>
  <path d="m29.363 19.512l5.637-.512-11 15.5" fill="url(#d)" fill-rule="evenodd"/>
  <path d="m13.94 18.6l20.26.4-3.55-4.3-12.82.398" fill="url(#e)" fill-rule="evenodd"/>
</svg>
