<svg viewBox="0 0 48 48" xmlns="http://www.w3.org/2000/svg" xmlns:xlink="http://www.w3.org/1999/xlink">
  <linearGradient id="a" gradientTransform="matrix(0 -1 1 0 -.0000015 47.999998)" gradientUnits="userSpaceOnUse" x1="1" x2="47">
    <stop offset="0" stop-color="#e4e4e4"/>
    <stop offset="1" stop-color="#eee"/>
  </linearGradient>
  <path d="m47 24c0 22.703-.297 23-23 23-22.703 0-23-.297-23-23 0-22.703.297-23 23-23 22.703 0 23 .297 23 23z" fill="url(#a)"/>
  <path d="m20.668 13.996l-8.668 14.668 4.332 7.332h17.336l4.332-7.332-8.668-14.668zm4.332 7.332l4.332 7.336h-8.668z" fill-rule="evenodd" opacity=".1" transform=""/>
  <path d="m32.668 34.996h-17.336l4.336-7.332h17.332m-4.332 7.332" fill="#3e86fb" fill-rule="evenodd"/>
  <path d="m19.668 12.996l8.664 14.668h8.668l-8.668-14.668m-8.664 0" fill="#fbcf4b" fill-rule="evenodd"/>
  <path d="m19.668 12.996l-8.668 14.668 4.332 7.332 8.668-14.668m-4.332-7.332" fill="#0aa35f" fill-rule="evenodd"/>
</svg>
