<svg xmlns="http://www.w3.org/2000/svg" viewBox="0 0 48 48">
 <defs>
  <linearGradient id="linearGradient3764" x1="1" x2="47" gradientUnits="userSpaceOnUse" gradientTransform="matrix(0,-1,1,0,-1.5e-6,47.999998)">
   <stop style="stop-color:#575757;stop-opacity:1"/>
   <stop offset="1" style="stop-color:#616161;stop-opacity:1"/>
  </linearGradient>
 </defs>
 <g>
  
  
  
 </g>
 <g>
  <path d="m 47,24 C 47,46.703 46.703,47 24,47 1.297,47 1,46.703 1,24 1,1.297 1.297,1 24,1 46.703,1 47,1.297 47,24 z" style="fill:url(#linearGradient3764);fill-opacity:1"/>
 </g>
 <g>
  
 </g>
 <path d="m 35.2 10.999 -0.467 0.467 0.467 0.467 -0.467 0.469 -0.469 -0.469 -0.467 0.469 0.467 0.467 -0.467 0.467 -0.467 -0.467 -0.467 0.467 0.467 0.467 -0.467 0.467 0.232 0.234 -8.521 8.143 c -0.337 -0.364 -0.719 -0.734 -1.057 -0.902 -3.738 -1.869 -3.86 3.617 -5.242 3.324 -1.568 0.194 -3.359 0.24 -4.752 1.633 -2.803 2.803 -1.218 6.258 0.65 8.127 1.869 1.869 5.324 3.454 8.127 0.65 1.331 -1.331 1.629 -2.286 1.73 -4.674 -0.38 -1.47 3.947 -1.87 2.926 -3.604 -0.192 -0.326 -1.178 0.763 -2.037 -0.316 -0.088 -0.111 -0.059 -0.504 0.002 -0.957 l 9.576 -10.02 0.234 0.232 0.467 -0.467 0.467 0.467 0.467 -0.467 -0.467 -0.467 0.467 -0.467 0.467 0.467 0.469 -0.467 -0.469 -0.469 0.469 -0.467 0.467 0.467 0.467 -0.467 -0.467 -0.467 -0.701 -1.168 -1.168 -0.701 -0.467 -0.467" style="fill:#000;opacity:0.1;fill-opacity:1;stroke:none;fill-rule:nonzero"/>
 <path d="m 34.2 9.998 -0.469 0.467 0.469 0.469 -0.469 0.467 -0.467 -0.467 -0.467 0.467 0.467 0.467 -0.467 0.467 -0.467 -0.467 -0.467 0.467 0.467 0.469 -0.467 0.467 0.232 0.232 -8.523 8.145 c -0.337 -0.364 -0.717 -0.734 -1.055 -0.902 -3.738 -1.869 -3.86 3.615 -5.242 3.322 -1.568 0.194 -3.359 0.24 -4.752 1.633 -2.803 2.803 -1.218 6.258 0.65 8.127 1.869 1.869 5.324 3.456 8.127 0.652 1.331 -1.331 1.629 -2.288 1.73 -4.676 -0.38 -1.47 3.947 -1.87 2.926 -3.604 -0.192 -0.326 -1.18 0.763 -2.039 -0.316 -0.088 -0.111 -0.057 -0.504 0.004 -0.957 l 9.576 -10.02 0.232 0.234 0.469 -0.469 0.467 0.469 0.467 -0.469 -0.467 -0.467 0.467 -0.467 0.467 0.467 0.467 -0.467 -0.467 -0.467 0.467 -0.467 0.469 0.467 0.467 -0.467 -0.467 -0.469 l -0.701 -1.168 -1.168 -0.701 -0.467 -0.467" style="fill:#9fc175;fill-opacity:1;stroke:none;fill-rule:nonzero"/>
</svg>
