<svg viewBox="0 0 48 48" xmlns="http://www.w3.org/2000/svg" xmlns:xlink="http://www.w3.org/1999/xlink">
  <linearGradient id="a" gradientTransform="matrix(0 -1 1 0 -.0000015 47.999998)" gradientUnits="userSpaceOnUse" x1="1" x2="47">
    <stop offset="0" stop-color="#575757"/>
    <stop offset="1" stop-color="#616161"/>
  </linearGradient>
  <path d="m47 24c0 22.703-.297 23-23 23-22.703 0-23-.297-23-23 0-22.703.297-23 23-23 22.703 0 23 .297 23 23z" fill="url(#a)"/>
  <path d="m35.2 10.999l-.467.467.467.467-.467.469-.469-.469-.467.469.467.467-.467.467-.467-.467-.467.467.467.467-.467.467.232.234-8.521 8.143c-.337-.364-.719-.734-1.057-.902-3.738-1.869-3.86 3.617-5.242 3.324-1.568.194-3.359.24-4.752 1.633-2.803 2.803-1.218 6.258.65 8.127 1.869 1.869 5.324 3.454 8.127.65 1.331-1.331 1.629-2.286 1.73-4.674-.38-1.47 3.947-1.87 2.926-3.604-.192-.326-1.178.763-2.037-.316-.088-.111-.059-.504.002-.957l9.576-10.02.234.232.467-.467.467.467.467-.467-.467-.467.467-.467.467.467.469-.467-.469-.469.469-.467.467.467.467-.467-.467-.467-.701-1.168-1.168-.701-.467-.467" opacity=".1"/>
  <path d="m34.2 9.998l-.469.467.469.469-.469.467-.467-.467-.467.467.467.467-.467.467-.467-.467-.467.467.467.469-.467.467.232.232-8.523 8.145c-.337-.364-.717-.734-1.055-.902-3.738-1.869-3.86 3.615-5.242 3.322-1.568.194-3.359.24-4.752 1.633-2.803 2.803-1.218 6.258.65 8.127 1.869 1.869 5.324 3.456 8.127.652 1.331-1.331 1.629-2.288 1.73-4.676-.38-1.47 3.947-1.87 2.926-3.604-.192-.326-1.18.763-2.039-.316-.088-.111-.057-.504.004-.957l9.576-10.02.232.234.469-.469.467.469.467-.469-.467-.467.467-.467.467.467.467-.467-.467-.467.467-.467.469.467.467-.467-.467-.469-.701-1.168-1.168-.701-.467-.467" fill="#9fc175"/>
</svg>
