<svg xmlns="http://www.w3.org/2000/svg" viewBox="0 0 48 48">
 <defs>
  <linearGradient id="linearGradient3764" x1="1" x2="47" gradientUnits="userSpaceOnUse" gradientTransform="matrix(0,-1,1,0,-1.5e-6,47.999998)">
   <stop style="stop-color:#e1cd27;stop-opacity:1"/>
   <stop offset="1" style="stop-color:#e3d238;stop-opacity:1"/>
  </linearGradient>
 </defs>
 <g>
  
  
  
 </g>
 <g>
  <path d="m 47,24 C 47,46.703 46.703,47 24,47 1.297,47 1,46.703 1,24 1,1.297 1.297,1 24,1 46.703,1 47,1.297 47,24 z" style="fill:url(#linearGradient3764);fill-opacity:1"/>
 </g>
 <g>
  <g>
   <g transform="translate(1,1)">
    <g style="opacity:0.1">
     <!-- color: #e3d238 -->
     <g>
      <path d="m 28 12 c -2.211 0 -4 1.789 -4 4 c 0 0.516 0.107 1.01 0.285 1.459 l -4.424 4.02 c -0.558 -0.296 -1.186 -0.48 -1.861 -0.48 c -2.211 0 -4 1.789 -4 4 c 0 2.207 1.789 4 4 4 c 1 0 1.911 -0.381 2.613 -0.992 l 3.869 4.125 c -0.298 0.56 -0.482 1.189 -0.482 1.867 c 0 2.207 1.789 4 4 4 c 2.207 0 4 -1.789 4 -4 c 0 -2.207 -1.793 -4 -4 -4 c -0.839 0 -1.615 0.261 -2.258 0.701 l -3.982 -4.383 c 0.145 -0.415 0.24 -0.854 0.24 -1.318 c 0 -0.805 -0.244 -1.553 -0.654 -2.182 l 4.055 -3.801 c 0.7 0.604 1.601 0.982 2.6 0.982 c 2.207 0 4 -1.789 4 -4 c 0 -2.207 -1.793 -4 -4 -4 z" transform="translate(-1,-1)" style="fill:#000;fill-opacity:1;stroke:none;fill-rule:nonzero"/>
     </g>
    </g>
   </g>
  </g>
 </g>
 <g>
  <g>
   <!-- color: #e3d238 -->
   <g>
    <path d="m 27 11 c -2.211 0 -4 1.789 -4 4 c 0 2.207 1.789 4 4 4 c 2.207 0 4 -1.789 4 -4 c 0 -2.207 -1.793 -4 -4 -4 z m -10 9 c -2.211 0 -4 1.789 -4 4 c 0 2.207 1.789 4 4 4 c 2.207 0 4 -1.789 4 -4 c 0 -2.207 -1.793 -4 -4 -4 z m 10 9 c -2.211 0 -4 1.789 -4 4 c 0 2.207 1.789 4 4 4 c 2.207 0 4 -1.789 4 -4 c 0 -2.207 -1.793 -4 -4 -4 z" style="fill:#ec5b3c;fill-opacity:1;stroke:none;fill-rule:nonzero"/>
    <path d="m 17.898 21.355 l 6.711 -6.102 l 1.219 1.426 l -6.508 6.102 m -1.422 -1.426" style="fill:#ec5b3c;fill-opacity:1;stroke:none;fill-rule:nonzero"/>
    <path d="m 19.93 24.406 6.102 6.711 -1.422 1.219 -6.102 -6.508 m 1.422 -1.422" style="fill:#ec5b3c;fill-opacity:1;stroke:none;fill-rule:nonzero"/>
   </g>
  </g>
 </g>
 <g>
  
 </g>
</svg>
