<svg xmlns="http://www.w3.org/2000/svg" viewBox="0 0 48 48">
 <defs>
  <linearGradient id="linearGradient3764" x1="1" x2="47" gradientUnits="userSpaceOnUse" gradientTransform="matrix(0,-1,1,0,-1.5e-6,47.999998)">
   <stop style="stop-color:#e4e4e4;stop-opacity:1"/>
   <stop offset="1" style="stop-color:#eee;stop-opacity:1"/>
  </linearGradient>
 </defs>
 <g>
  
  
  
 </g>
 <g>
  <path d="m 47,24 C 47,46.703 46.703,47 24,47 1.297,47 1,46.703 1,24 1,1.297 1.297,1 24,1 46.703,1 47,1.297 47,24 z" style="fill:url(#linearGradient3764);fill-opacity:1"/>
 </g>
 <g>
  <g>
   <g transform="translate(1,1)">
    <g style="opacity:0.1">
     <!-- color: #eeeeee -->
    </g>
   </g>
  </g>
 </g>
 <g>
  <g>
   <!-- color: #eeeeee -->
   <g>
    <path d="m 25 10 c -8.285 0 -15 6.715 -15 15 0 8.285 6.715 15 15 15 8.285 0 15 -6.715 15 -15 0 -8.285 -6.715 -15 -15 -15 z m 0 4 c 2.359 0 4.54 0.75 6.332 2.02 l -15.523 15.02 c -1.141 -1.733 -1.809 -3.806 -1.809 -6.04 0 -6.074 4.926 -11 11 -11 m 8.484 1.1 1.414 1.414 -0.707 0.703 -1.41 -1.41 z m -16.971 0.002 0.703 0.707 -1.41 1.41 -0.707 -0.703 z m 17.621 3.77 c 1.178 1.751 1.865 3.86 1.865 6.129 0 6.074 -4.926 11 -11 11 -2.398 0 -4.61 -0.777 -6.418 -2.08 l 15.553 -15.05 m -9.135 5.129 c 0.551 0 1 0.449 1 1 0 0.555 -0.449 1 -1 1 -0.551 0 -1 -0.445 -1 -1 0 -0.551 0.449 -1 1 -1 z m -9.191 8.781 1.41 1.41 -0.703 0.707 -1.414 -1.414 z" style="fill:#000;opacity:0.1;fill-opacity:1;stroke:none;fill-rule:nonzero"/>
    <path d="m 24 9 c -8.285 0 -15 6.715 -15 15 c 0 8.285 6.715 15 15 15 c 8.285 0 15 -6.715 15 -15 c 0 -8.285 -6.715 -15 -15 -15 z m 0.1 1.5 a 13.5 13.5 0 0 1 13.5 13.5 a 13.5 13.5 0 0 1 -13.5 13.5 a 13.5 13.5 0 0 1 -13.5 -13.5 a 13.5 13.5 0 0 1 13.5 -13.5 z" style="fill:#3d9ade;fill-opacity:1;stroke:none;fill-rule:nonzero"/>
    <path d="m 24 10 c -7.73 0 -14 6.27 -14 14 c 0 7.73 6.27 14 14 14 c 7.73 0 14 -6.27 14 -14 c 0 -7.73 -6.27 -14 -14 -14 z m -1 1 l 1.996 0 l 0 0.996 l -1.996 0 l 0 -0.996 z m 1 2 c 2.359 0 4.54 0.75 6.332 2.02 l -15.523 15.02 c -1.141 -1.733 -1.809 -3.806 -1.809 -6.04 c 0 -6.074 4.926 -11 11 -11 z m 8.484 1.1 l 1.414 1.414 l -0.707 0.703 l -1.41 -1.41 l 0.703 -0.707 z m -16.971 0.002 l 0.703 0.707 l -1.41 1.41 l -0.707 -0.703 l 1.414 -1.414 z m 17.621 3.77 c 1.178 1.751 1.865 3.86 1.865 6.129 c 0 6.074 -4.926 11 -11 11 c -2.398 0 -4.61 -0.777 -6.418 -2.08 l 15.553 -15.05 z m -22.13 5.129 l 0.996 0 l 0 1.996 l -0.996 0 l 0 -1.996 z m 12.996 0 c 0.551 0 1 0.449 1 1 c 0 0.555 -0.449 1 -1 1 c -0.551 0 -1 -0.445 -1 -1 c 0 -0.551 0.449 -1 1 -1 z m 12 0 l 1 0 l 0 1.996 l -1 0 l 0 -1.996 z m -2.809 8.779 l 0.707 0.703 l -1.414 1.414 l -0.703 -0.707 l 1.41 -1.41 z m -18.383 0.002 l 1.41 1.41 l -0.703 0.707 l -1.414 -1.414 l 0.707 -0.703 z m 8.191 4.219 l 1.996 0 l 0 1 l -1.996 0 l 0 -1 z" style="fill:#06c;fill-opacity:1;stroke:none;fill-rule:nonzero"/>
   </g>
  </g>
 </g>
 <g>
  
 </g>
</svg>
