<svg viewBox="0 0 48 48" xmlns="http://www.w3.org/2000/svg" xmlns:xlink="http://www.w3.org/1999/xlink">
  <linearGradient id="a" gradientTransform="matrix(0 -1 1 0 -.0000015 47.999998)" gradientUnits="userSpaceOnUse" x1="1" x2="47">
    <stop offset="0" stop-color="#e4e4e4"/>
    <stop offset="1" stop-color="#eee"/>
  </linearGradient>
  <path d="m47 24c0 22.703-.297 23-23 23-22.703 0-23-.297-23-23 0-22.703.297-23 23-23 22.703 0 23 .297 23 23z" fill="url(#a)"/>
  <path d="m25 10c-8.285 0-15 6.715-15 15 0 8.285 6.715 15 15 15 8.285 0 15-6.715 15-15 0-8.285-6.715-15-15-15zm0 4c2.359 0 4.54.75 6.332 2.02l-15.523 15.02c-1.141-1.733-1.809-3.806-1.809-6.04 0-6.074 4.926-11 11-11m8.484 1.1l1.414 1.414-.707.703-1.41-1.41zm-16.971.002l.703.707-1.41 1.41-.707-.703zm17.621 3.77c1.178 1.751 1.865 3.86 1.865 6.129 0 6.074-4.926 11-11 11-2.398 0-4.61-.777-6.418-2.08l15.553-15.05m-9.135 5.129c.551 0 1 .449 1 1 0 .555-.449 1-1 1-.551 0-1-.445-1-1 0-.551.449-1 1-1zm-9.191 8.781l1.41 1.41-.703.707-1.414-1.414z" opacity=".1"/>
  <path d="m24 9c-8.285 0-15 6.715-15 15 0 8.285 6.715 15 15 15 8.285 0 15-6.715 15-15 0-8.285-6.715-15-15-15zm .1 1.5a13.5 13.5 0 0 1 13.5 13.5 13.5 13.5 0 0 1-13.5 13.5 13.5 13.5 0 0 1-13.5-13.5 13.5 13.5 0 0 1  13.5-13.5z" fill="#3d9ade"/>
  <path d="m24 10c-7.73 0-14 6.27-14 14 0 7.73 6.27 14 14 14 7.73 0 14-6.27 14-14 0-7.73-6.27-14-14-14zm-1 1h1.996v.996h-1.996zm1 2c2.359 0 4.54.75 6.332 2.02l-15.523 15.02c-1.141-1.733-1.809-3.806-1.809-6.04 0-6.074 4.926-11 11-11zm8.484 1.1l1.414 1.414-.707.703-1.41-1.41zm-16.971.002l.703.707-1.41 1.41-.707-.703zm17.621 3.77c1.178 1.751 1.865 3.86 1.865 6.129 0 6.074-4.926 11-11 11-2.398 0-4.61-.777-6.418-2.08l15.553-15.05zm-22.13 5.129h.996v1.996h-.996zm12.996 0c .551 0 1 .449 1 1 0 .555-.449 1-1 1-.551 0-1-.445-1-1 0-.551.449-1 1-1zm12 0h1v1.996h-1zm-2.809 8.779l.707.703-1.414 1.414-.703-.707zm-18.383.002l1.41 1.41-.703.707-1.414-1.414zm8.191 4.219h1.996v1h-1.996z" fill="#06c"/>
</svg>
