<svg viewBox="0 0 48 48" xmlns="http://www.w3.org/2000/svg" xmlns:xlink="http://www.w3.org/1999/xlink">
  <linearGradient id="a" gradientTransform="matrix(0 -1 1 0 -.0000015 47.999998)" gradientUnits="userSpaceOnUse" x1="1" x2="47">
    <stop offset="0" stop-color="#85d15f"/>
    <stop offset="1" stop-color="#8fd56e"/>
  </linearGradient>
  <path d="m47 24c0 22.703-.297 23-23 23-22.703 0-23-.297-23-23 0-22.703.297-23 23-23 22.703 0 23 .297 23 23z" fill="url(#a)"/>
  <path d="m21 10c-.554 0-1 .446-1 1v3c0 .554.446 1 1 1 .554 0 1-.446 1-1v-3c0-.554-.446-1-1-1zm4 0c-.554 0-1 .446-1 1v3c0 .554.446 1 1 1 .554 0 1-.446 1-1v-3c0-.554-.446-1-1-1zm4 0c-.554 0-1 .446-1 1v3c0 .554.446 1 1 1 .554 0 1-.446 1-1v-3c0-.554-.446-1-1-1zm-9.469 6c-1.965 0-3.531 1.566-3.531 3.531v10.938c0 1.965 1.566 3.531 3.531 3.531h10.938c1.965 0 3.531-1.566 3.531-3.531v-10.938c0-1.965-1.566-3.531-3.531-3.531zm5.469 2c .551 0 1 .449 1 1 0 .551-.449 1-1 1-.551 0-1-.449-1-1 0-.551.449-1 1-1zm-14 2c-.554 0-1 .446-1 1 0 .554.446 1 1 1h3c .554 0 1-.446 1-1 0-.554-.446-1-1-1zm25 0c-.554 0-1 .446-1 1 0 .554.446 1 1 1h3c .554 0 1-.446 1-1 0-.554-.446-1-1-1zm-12 2h2v8h2v2h-6v-2h2zm-13 2c-.554 0-1 .446-1 1 0 .554.446 1 1 1h3c .554 0 1-.446 1-1 0-.554-.446-1-1-1zm25 0c-.554 0-1 .446-1 1 0 .554.446 1 1 1h3c .554 0 1-.446 1-1 0-.554-.446-1-1-1zm-25 4c-.554 0-1 .446-1 1 0 .554.446 1 1 1h3c .554 0 1-.446 1-1 0-.554-.446-1-1-1zm25 0c-.554 0-1 .446-1 1 0 .554.446 1 1 1h3c .554 0 1-.446 1-1 0-.554-.446-1-1-1zm-15 7c-.554 0-1 .446-1 1v3c0 .554.446 1 1 1 .554 0 1-.446 1-1v-3c0-.554-.446-1-1-1zm4 0c-.554 0-1 .446-1 1v3c0 .554.446 1 1 1 .554 0 1-.446 1-1v-3c0-.554-.446-1-1-1zm4 0c-.554 0-1 .446-1 1v3c0 .554.446 1 1 1 .554 0 1-.446 1-1v-3c0-.554-.446-1-1-1z" opacity=".1"/>
  <path d="m18.531 15c-1.965 0-3.531 1.566-3.531 3.531v10.938c0 1.965 1.566 3.531 3.531 3.531h10.938c1.965 0 3.531-1.566 3.531-3.531v-10.938c0-1.965-1.566-3.531-3.531-3.531zm5.469 2c .551 0 1 .449 1 1 0 .551-.449 1-1 1-.551 0-1-.449-1-1 0-.551.449-1 1-1zm-1 4h2v8h2v2h-6v-2h2z" fill="#2d2d2d"/>
  <path d="m20 9c-.554 0-1 .446-1 1v3c0 .554.446 1 1 1 .554 0 1-.446 1-1v-3c0-.554-.446-1-1-1zm4 0c-.554 0-1 .446-1 1v3c0 .554.446 1 1 1 .554 0 1-.446 1-1v-3c0-.554-.446-1-1-1zm4 0c-.554 0-1 .446-1 1v3c0 .554.446 1 1 1 .554 0 1-.446 1-1v-3c0-.554-.446-1-1-1zm-18 10c-.554 0-1 .446-1 1 0 .554.446 1 1 1h3c .554 0 1-.446 1-1 0-.554-.446-1-1-1zm25 0c-.554 0-1 .446-1 1 0 .554.446 1 1 1h3c .554 0 1-.446 1-1 0-.554-.446-1-1-1zm-25 4c-.554 0-1 .446-1 1 0 .554.446 1 1 1h3c .554 0 1-.446 1-1 0-.554-.446-1-1-1zm25 0c-.554 0-1 .446-1 1 0 .554.446 1 1 1h3c .554 0 1-.446 1-1 0-.554-.446-1-1-1zm-25 4c-.554 0-1 .446-1 1 0 .554.446 1 1 1h3c .554 0 1-.446 1-1 0-.554-.446-1-1-1zm25 0c-.554 0-1 .446-1 1 0 .554.446 1 1 1h3c .554 0 1-.446 1-1 0-.554-.446-1-1-1zm-15 7c-.554 0-1 .446-1 1v3c0 .554.446 1 1 1 .554 0 1-.446 1-1v-3c0-.554-.446-1-1-1zm4 0c-.554 0-1 .446-1 1v3c0 .554.446 1 1 1 .554 0 1-.446 1-1v-3c0-.554-.446-1-1-1zm4 0c-.554 0-1 .446-1 1v3c0 .554.446 1 1 1 .554 0 1-.446 1-1v-3c0-.554-.446-1-1-1z" fill="#2d2d2d"/>
</svg>
