<svg viewBox="0 0 48 48" xmlns="http://www.w3.org/2000/svg" xmlns:xlink="http://www.w3.org/1999/xlink">
  <linearGradient id="a" gradientUnits="userSpaceOnUse" x2="0" y1="1" y2="47">
    <stop offset="0" stop-color="#979ed1"/>
    <stop offset="1" stop-color="#8991cb"/>
  </linearGradient>
  <linearGradient id="b" gradientUnits="userSpaceOnUse" x2="0" y1="1" y2="47">
    <stop offset="0" stop-color="#19bb83"/>
    <stop offset="1" stop-color="#17a977"/>
  </linearGradient>
  <linearGradient id="c" gradientUnits="userSpaceOnUse" x2="0" y1="47" y2="1">
    <stop offset="0" stop-color="#e5ae31"/>
    <stop offset="1" stop-color="#e7b543"/>
  </linearGradient>
  <linearGradient id="d" gradientUnits="userSpaceOnUse" x2="0" y1="47" y2="1">
    <stop offset="0" stop-color="#e36d5d"/>
    <stop offset="1" stop-color="#e67c6e"/>
  </linearGradient>
  <path d="m24 1c-22.703 0-23 .297-23 23 7.718.309 15.73 2.378 23 0 1.809-7.588 2.02-15.245 0-23z" fill="url(#b)" fill-rule="evenodd"/>
  <path d="m24 1v23c7.327 1.273 15.01 1.226 23 0 0-22.703-.297-23-23-23" fill="url(#a)" fill-rule="evenodd"/>
  <path d="m24 24c-2.585 7.314-.902 15.21 0 23 22.703 0 23-.297 23-23z" fill="url(#d)" fill-rule="evenodd"/>
  <path d="m1 24c0 22.703.297 23 23 23v-23z" fill="url(#c)" fill-rule="evenodd"/>
  <path d="m29.891 12.012c-4.591-.119-7.859.553-11.891 3.16v14.971c-.322-.083-.652-.143-1-.143-2.211 0-4 1.789-4 4 0 2.211 1.789 4 4 4 2.207 0 4-1.789 4-4 0-.029-.007-.055-.008-.084.003 0 .005 0 .008-.002v-12.973c3.77-2.699 6.711-3.348 11-2.332v9.533c-.322-.084-.652-.143-1-.143-2.211 0-4 1.793-4 4 0 2.211 1.789 4 4 4 2.168 0 3.927-1.73 3.988-3.887.004 0 .007.003.012.004v-.117-19.648c-1.901-.173-3.579-.3-5.109-.34z" opacity=".1"/>
  <path d="m20 19.943c3.77-2.699 6.711-3.348 11-2.332v10.06c-.203.398-1.066 2.348 3 3.449v-19.766c-7.605-.691-11.625-.656-17 2.82v15.824c1.359-2.051-5.586 4.84 3 2.918m0-12.973" fill="#f9f9f9"/>
  <path d="m20 33c0 2.211-1.793 4-4 4-2.211 0-4-1.789-4-4 0-2.211 1.789-4 4-4 2.207 0 4 1.789 4 4m0 0" fill="#f9f9f9"/>
  <path d="m34 31c0 2.211-1.793 4-4 4-2.211 0-4-1.789-4-4 0-2.207 1.789-4 4-4 2.207 0 4 1.793 4 4m0 0" fill="#f9f9f9"/>
</svg>
