<svg xmlns="http://www.w3.org/2000/svg" xmlns:xlink="http://www.w3.org/1999/xlink" viewBox="0 0 48 48">
 <defs>
  <linearGradient id="linearGradient3764" x1="1" x2="47" gradientUnits="userSpaceOnUse" gradientTransform="matrix(0,-1,1,0,-1.5e-6,47.999998)">
   <stop style="stop-color:#30a0d4;stop-opacity:1"/>
   <stop offset="1" style="stop-color:#41a8d8;stop-opacity:1"/>
  </linearGradient>
 </defs>
 <g>
  
  
  
 </g>
 <g>
  <path d="m 47,24 C 47,46.703 46.703,47 24,47 1.297,47 1,46.703 1,24 1,1.297 1.297,1 24,1 46.703,1 47,1.297 47,24 z" style="fill:url(#linearGradient3764);fill-opacity:1"/>
 </g>
 <g>
  <g>
   <g transform="translate(1,1)">
    <g style="opacity:0.1">
     <!-- color: #41a8d8 -->
     <g>
      <path d="m 24 9 c -8.285 0 -15 6.715 -15 15 c 0 8.285 6.715 15 15 15 c 8.285 0 15 -6.715 15 -15 c 0 -8.285 -6.715 -15 -15 -15 m 0 6 c 4.969 0 9 4.03 9 9 c 0 4.969 -4.03 9 -9 9 c -4.969 0 -9 -4.03 -9 -9 c 0 -4.969 4.03 -9 9 -9 m 0 0" style="fill:#000;fill-opacity:1;stroke:none;fill-rule:nonzero"/>
      <use xlink:href="#SVGCleanerId_0"/>
      <use xlink:href="#SVGCleanerId_1"/>
     </g>
    </g>
   </g>
  </g>
 </g>
 <g>
  <g>
   <!-- color: #41a8d8 -->
   <g>
    <path d="m 24 9 c -8.285 0 -15 6.715 -15 15 c 0 8.285 6.715 15 15 15 c 8.285 0 15 -6.715 15 -15 c 0 -8.285 -6.715 -15 -15 -15 m 0 6 c 4.969 0 9 4.03 9 9 c 0 4.969 -4.03 9 -9 9 c -4.969 0 -9 -4.03 -9 -9 c 0 -4.969 4.03 -9 9 -9 m 0 0" style="fill:#ea5c53;fill-opacity:1;stroke:none;fill-rule:nonzero"/>
    <path d="m 10.375 17.781 c -0.867 1.895 -1.375 4 -1.375 6.219 c 0 2.219 0.508 4.324 1.375 6.219 l 5.25 -3 c -0.383 -1 -0.625 -2.082 -0.625 -3.219 c 0 -1.137 0.242 -2.219 0.625 -3.219 m -5.25 -3" style="fill:#eeece0;fill-opacity:1;stroke:none;fill-rule:nonzero"/>
    <path d="m 37.625 17.781 l -5.25 3 c 0.383 1 0.625 2.082 0.625 3.219 c 0 1.137 -0.242 2.219 -0.625 3.219 l 5.25 3 c 0.867 -1.895 1.375 -4 1.375 -6.219 c 0 -2.219 -0.508 -4.324 -1.375 -6.219 m 0 0" style="fill:#eeece0;fill-opacity:1;stroke:none;fill-rule:nonzero"/>
    <path d="m 20.781 32.375 l -3 5.25 c 1.895 0.867 4 1.375 6.219 1.375 c 2.219 0 4.324 -0.508 6.219 -1.375 l -3 -5.25 c -1 0.383 -2.082 0.625 -3.219 0.625 c -1.137 0 -2.219 -0.242 -3.219 -0.625 m 0 0" style="fill:#eeece0;fill-opacity:1;stroke:none;fill-rule:nonzero"/>
    <path d="m 24 9 c -2.219 0 -4.324 0.508 -6.219 1.375 l 3 5.25 c 1 -0.383 2.082 -0.625 3.219 -0.625 c 1.137 0 2.219 0.242 3.219 0.625 l 3 -5.25 c -1.895 -0.867 -4 -1.375 -6.219 -1.375 m 0 0" style="fill:#eeece0;fill-opacity:1;stroke:none;fill-rule:nonzero"/>
    <path d="m 24 9 c -8.285 0 -15 6.715 -15 15 c 0 4.398 1.922 8.32 4.938 11.06 c -2.426 -2.664 -3.938 -6.176 -3.938 -10.06 c 0 -8.285 6.715 -15 15 -15 c 3.887 0 7.398 1.512 10.06 3.938 c -2.742 -3.02 -6.664 -4.938 -11.06 -4.938 m 0 0" id="SVGCleanerId_0" style="fill:#000;fill-opacity:0.149;stroke:none;fill-rule:nonzero"/>
    <path d="m 30.844 18.16 c 1.344 1.574 2.156 3.613 2.156 5.844 c 0 4.969 -4.03 9 -9 9 c -2.23 0 -4.27 -0.813 -5.844 -2.156 c 1.652 1.93 4.105 3.156 6.844 3.156 c 4.969 0 9 -4.03 9 -9 c 0 -2.738 -1.227 -5.191 -3.156 -6.844 m 0 0" id="SVGCleanerId_1" style="fill:#000;fill-opacity:0.149;stroke:none;fill-rule:nonzero"/>
   </g>
  </g>
 </g>
 <g>
  
 </g>
</svg>
