<svg viewBox="0 0 48 48" xmlns="http://www.w3.org/2000/svg" xmlns:xlink="http://www.w3.org/1999/xlink">
  <linearGradient id="a" gradientTransform="matrix(0 -1 1 0 -.0000015 47.999998)" gradientUnits="userSpaceOnUse" x1="1" x2="47">
    <stop offset="0" stop-color="#e6a712"/>
    <stop offset="1" stop-color="#edb020"/>
  </linearGradient>
  <path d="m47 24c0 22.703-.297 23-23 23-22.703 0-23-.297-23-23 0-22.703.297-23 23-23 22.703 0 23 .297 23 23z" fill="url(#a)"/>
  <path d="m24.398 14.01v.004c-2.883.02-5.66.203-6.203.504-1.086.602-6.207 9.352-6.195 10.555.012 1.195 5.32 9.688 6.418 10.277 1.098.586 11.531.488 12.617-.121 1.086-.605 6.313-9.199 6.301-10.398-.012-1.188-5.453-9.938-6.551-10.52-.551-.293-3.508-.328-6.387-.301zm.078 2.508c1.254-.013 2.452.035 3.375.117l-3.064 5.162-3.127-5.16c.769-.065 1.736-.106 2.82-.117zm6.314 2.148c1.486 2.156 3.466 5.56 3.475 6.232.005.643-1.779 3.873-3.221 6.104-.245-.423-.476-.826-.758-1.295-.899-1.523-2.02-3.176-3.352-4.961l3.855-6.08zm-12.271.068l3.861 5.961c-1.382 1.992-2.827 4.121-4.152 6.375-1.513-2.134-3.455-5.336-3.455-5.992-.008-.678 2.157-4.15 3.746-6.344zm6.05 8.91c1.201 1.713 2.318 3.694 3.334 5.73-1.863.12-4.887.056-6.691-.129 1.013-1.977 2.073-3.822 3.357-5.602z" opacity=".1" transform=""/>
  <path d="m23.398 13.01c-2.883.02-5.66.203-6.203.504-1.086.602-6.207 9.352-6.195 10.555.012 1.195 5.32 9.688 6.418 10.277 1.098.586 11.531.488 12.617-.121 1.086-.605 6.313-9.199 6.301-10.398-.012-1.188-5.453-9.938-6.551-10.52-.551-.293-3.508-.328-6.387-.301m.078 2.508c2.25-.023 4.441.137 4.871.371.859.473 4.906 7.05 4.918 8.01.008.961-4 7.758-4.852 8.246-.848.488-8.73.324-9.59-.148-.859-.473-5.05-6.957-5.05-7.918-.012-.961 4.391-7.656 5.242-8.145.422-.246 2.211-.391 4.465-.414m0 0" fill="#fff"/>
  <path d="m26.977 32.512c-1.034-2.086-2.177-4.118-3.406-5.871-1.343 1.861-2.443 3.79-3.499 5.871h-4.242c1.682-3.159 3.676-6.119 5.551-8.821l-5.313-8.203h4.504l3.215 5.305 3.148-5.305h4.234l-5.234 8.254c1.332 1.785 2.453 3.438 3.352 4.961.906 1.508 1.621 2.777 2.148 3.809h-4.453" fill="#fff"/>
</svg>
