<svg viewBox="0 0 48 48" xmlns="http://www.w3.org/2000/svg" xmlns:xlink="http://www.w3.org/1999/xlink">
  <linearGradient id="a" gradientTransform="matrix(0 -1 1 0 -.0000015 47.999998)" gradientUnits="userSpaceOnUse" x1="1" x2="47">
    <stop offset="0" stop-color="#c8241c"/>
    <stop offset="1" stop-color="#d9281e"/>
  </linearGradient>
  <path d="m47 24c0 22.703-.297 23-23 23-22.703 0-23-.297-23-23 0-22.703.297-23 23-23 22.703 0 23 .297 23 23z" fill="url(#a)"/>
  <path d="m12 35.992c0-.012.207-.129.461-.27 2.355-1.285 4.309-3.03 5.547-4.957 1.414-2.199 2.188-4.809 2.5-8.398.09-1.016.094-4.707.004-5.539-.141-1.352-.336-2.293-.68-3.285-.215-.629-.25-.988-.102-1.254.219-.406.504-.391 1.973.09 1.809.598 2.07.695 2.172.84.117.16.098.266-.215 1.434-.543 2.01-.801 4.164-.867 7.172l-.035 1.621.242.328c.652.875 1.016 1.379 1.672 2.328 1.605 2.305 2.527 3.469 3.438 4.332 1.262 1.195 2.148 1.844 3.633 2.652.93.508 1.465.754 2.727 1.242.559.215 1.098.434 1.195.477.211.102.383.293.316.359-.305.332-4.973.641-6.203.406-2.07-.391-3.91-2.164-7.316-7.05l-.691-.988-.133.637c-.293 1.375-.793 2.688-1.395 3.656-.41.656-1.414 1.754-2.01 2.188-1.297.953-2.895 1.543-5.03 1.855-.848.121-1.215.16-1.215.133m4.832-13.41c-.91-.41-1.934-1.707-2.691-3.414-.367-.836-.461-1.316-.316-1.688.195-.5.934-.453 2.039.137 1.074.574 1.945 1.285 2.289 1.871.266.457.34.777.309 1.375-.047.867-.32 1.504-.75 1.73-.273.145-.535.141-.875-.012m7.531-.207c.965-1.156 2.094-2.469 2.797-3.25.969-1.074.98-1.098 1.234-2.176.094-.387.207-.746.25-.801.129-.156.371-.121.652.082.383.281 2.297 1.93 2.563 2.203.164.18.234.293.234.395 0 .168-.141.25-.793.465-.602.199-1.098.438-2.973 1.457-2.184 1.184-2.617 1.375-4.01 1.777-.082.023-.078-.004.051-.152m-.004 0" opacity=".1" transform="translate(1 1)"/>
  <path d="m12 35.992c0-.012.207-.129.461-.27 2.355-1.285 4.309-3.03 5.547-4.957 1.414-2.199 2.188-4.809 2.5-8.398.09-1.016.094-4.707.004-5.539-.141-1.352-.336-2.293-.68-3.285-.215-.629-.25-.988-.102-1.254.219-.406.504-.391 1.973.09 1.809.598 2.07.695 2.172.84.117.16.098.266-.215 1.434-.543 2.01-.801 4.164-.867 7.172l-.035 1.621.242.328c.652.875 1.016 1.379 1.672 2.328 1.605 2.305 2.527 3.469 3.438 4.332 1.262 1.195 2.148 1.844 3.633 2.652.93.508 1.465.754 2.727 1.242.559.215 1.098.434 1.195.477.211.102.383.293.316.359-.305.332-4.973.641-6.203.406-2.07-.391-3.91-2.164-7.316-7.05l-.691-.988-.133.637c-.293 1.375-.793 2.688-1.395 3.656-.41.656-1.414 1.754-2.01 2.188-1.297.953-2.895 1.543-5.03 1.855-.848.121-1.215.16-1.215.133m4.832-13.41c-.91-.41-1.934-1.707-2.691-3.414-.367-.836-.461-1.316-.316-1.688.195-.5.934-.453 2.039.137 1.074.574 1.945 1.285 2.289 1.871.266.457.34.777.309 1.375-.047.867-.32 1.504-.75 1.73-.273.145-.535.141-.875-.012m7.531-.207c.965-1.156 2.094-2.469 2.797-3.25.969-1.074.98-1.098 1.234-2.176.094-.387.207-.746.25-.801.129-.156.371-.121.652.082.383.281 2.297 1.93 2.563 2.203.164.18.234.293.234.395 0 .168-.141.25-.793.465-.602.199-1.098.438-2.973 1.457-2.184 1.184-2.617 1.375-4.01 1.777-.082.023-.078-.004.051-.152m-.004 0" fill="#fff"/>
</svg>
