<svg xmlns="http://www.w3.org/2000/svg" viewBox="0 0 48 48">
 <defs>
  <linearGradient id="linearGradient3764" x1="1" x2="47" gradientUnits="userSpaceOnUse" gradientTransform="matrix(0,-1,1,0,-1.5e-6,47.999998)">
   <stop style="stop-color:#3d3d3d;stop-opacity:1"/>
   <stop offset="1" style="stop-color:#474747;stop-opacity:1"/>
  </linearGradient>
 </defs>
 <g>
  
  
  
 </g>
 <g>
  <path d="m 47,24 C 47,46.703 46.703,47 24,47 1.297,47 1,46.703 1,24 1,1.297 1.297,1 24,1 46.703,1 47,1.297 47,24 z" style="fill:url(#linearGradient3764);fill-opacity:1"/>
 </g>
 <g>
  
 </g>
 <path d="m 16 12 -3 5 6 0 -3 -5 z m 9 0 -3 5 6 0 -3 -5 z m 9 0 -3 5 6 0 -3 -5 z m -21 6 0 16 c 0.554 0 1 -0.446 1 -1 l 0 -14 c 0 -0.554 -0.446 -1 -1 -1 z m 3 0 c -0.554 0 -1 0.446 -1 1 l 0 14 c 0 0.554 0.446 1 1 1 0.554 0 1 -0.446 1 -1 l 0 -14 c 0 -0.554 -0.446 -1 -1 -1 z m 3 0 c -0.554 0 -1 0.446 -1 1 l 0 14 c 0 0.554 0.446 1 1 1 l 0 -16 z m 3 0 0 16 c 0.554 0 1 -0.446 1 -1 l 0 -14 c 0 -0.554 -0.446 -1 -1 -1 z m 3 0 c -0.554 0 -1 0.446 -1 1 l 0 14 c 0 0.554 0.446 1 1 1 0.554 0 1 -0.446 1 -1 l 0 -14 c 0 -0.554 -0.446 -1 -1 -1 z m 3 0 c -0.554 0 -1 0.446 -1 1 l 0 14 c 0 0.554 0.446 1 1 1 l 0 -16 z m 3 0 0 16 c 0.554 0 1 -0.446 1 -1 l 0 -14 c 0 -0.554 -0.446 -1 -1 -1 z m 3 0 c -0.554 0 -1 0.446 -1 1 l 0 14 c 0 0.554 0.446 1 1 1 0.554 0 1 -0.446 1 -1 l 0 -14 c 0 -0.554 -0.446 -1 -1 -1 z m 3 0 c -0.554 0 -1 0.446 -1 1 l 0 14 c 0 0.554 0.446 1 1 1 l 0 -16 m -24 17 c 0 1.108 0.892 2 2 2 l 2 0 c 1.108 0 2 -0.892 2 -2 l -6 0 z m 9 0 c 0 1.108 0.892 2 2 2 l 2 0 c 1.108 0 2 -0.892 2 -2 l -6 0 z m 9 0 c 0 1.108 0.892 2 2 2 l 2 0 c 1.108 0 2 -0.892 2 -2 l -6 0 z" style="fill:#000;opacity:0.1;fill-opacity:1;stroke:none"/>
 <path d="m 15 11 l -3 5 l 6 0 l -3 -5 z m -3 6 l 0 16 c 0.554 0 1 -0.446 1 -1 l 0 -14 c 0 -0.554 -0.446 -1 -1 -1 z m 3 0 c -0.554 0 -1 0.446 -1 1 l 0 14 c 0 0.554 0.446 1 1 1 c 0.554 0 1 -0.446 1 -1 l 0 -14 c 0 -0.554 -0.446 -1 -1 -1 z m 3 0 c -0.554 0 -1 0.446 -1 1 l 0 14 c 0 0.554 0.446 1 1 1 l 0 -16 z m -6 17 c 0 1.108 0.892 2 2 2 l 2 0 c 1.108 0 2 -0.892 2 -2 l -6 0 z" style="fill:#f29696;opacity:1;fill-opacity:1;stroke:none"/>
 <path d="m 24 11 -3 5 6 0 -3 -5 z m -3 6 0 16 c 0.554 0 1 -0.446 1 -1 l 0 -14 c 0 -0.554 -0.446 -1 -1 -1 z m 3 0 c -0.554 0 -1 0.446 -1 1 l 0 14 c 0 0.554 0.446 1 1 1 0.554 0 1 -0.446 1 -1 l 0 -14 c 0 -0.554 -0.446 -1 -1 -1 z m 3 0 c -0.554 0 -1 0.446 -1 1 l 0 14 c 0 0.554 0.446 1 1 1 l 0 -16 z m -6 17 c 0 1.108 0.892 2 2 2 l 2 0 c 1.108 0 2 -0.892 2 -2 l -6 0 z" style="fill:#bad2e2;opacity:1;fill-opacity:1;stroke:none"/>
 <path d="m 33 11 -3 5 6 0 -3 -5 z m -3 6 0 16 c 0.554 0 1 -0.446 1 -1 l 0 -14 c 0 -0.554 -0.446 -1 -1 -1 z m 3 0 c -0.554 0 -1 0.446 -1 1 l 0 14 c 0 0.554 0.446 1 1 1 0.554 0 1 -0.446 1 -1 l 0 -14 c 0 -0.554 -0.446 -1 -1 -1 z m 3 0 c -0.554 0 -1 0.446 -1 1 l 0 14 c 0 0.554 0.446 1 1 1 l 0 -16 z m -6 17 c 0 1.108 0.892 2 2 2 l 2 0 c 1.108 0 2 -0.892 2 -2 l -6 0 z" style="fill:#f7f691;opacity:1;fill-opacity:1;stroke:none"/>
</svg>
