<svg viewBox="0 0 48 48" xmlns="http://www.w3.org/2000/svg" xmlns:xlink="http://www.w3.org/1999/xlink">
  <linearGradient id="a" gradientTransform="matrix(0 -1 1 0 -.0000015 47.999998)" gradientUnits="userSpaceOnUse" x1="1" x2="47">
    <stop offset="0" stop-color="#00b6c0"/>
    <stop offset="1" stop-color="#00c9d4"/>
  </linearGradient>
  <path d="m47 24c0 22.703-.297 23-23 23-22.703 0-23-.297-23-23 0-22.703.297-23 23-23 22.703 0 23 .297 23 23z" fill="url(#a)"/>
  <g transform="matrix(3.543307 0 0 3.543307 .00157475 -.00196724)">
    <path d="m3.387 3.387h7.338v7.338h-7.338z" opacity=".1"/>
    <path d="m3.104 3.104h7.338v7.338h-7.338z" fill="#5e5e5e"/>
    <path d="m3.387 3.387h6.773v6.773h-6.773z" fill="#eee"/>
    <path d="m3.387 5.08h6.773v.282h-6.773z" fill="#5e5e5e"/>
    <path d="m3.387 6.773h6.773v.282h-6.773z" fill="#5e5e5e"/>
    <path d="m3.387 8.467h6.773v.282h-6.773z" fill="#5e5e5e"/>
    <path d="m-10.16-5.08h6.773v.282h-6.773z" fill="#5e5e5e" transform="matrix(0 -1 -1 0 0 0)"/>
    <path d="m-10.16-6.773h6.773v.282h-6.773z" fill="#5e5e5e" transform="matrix(0 -1 -1 0 0 0)"/>
    <path d="m-10.16-8.467h6.773v.282h-6.773z" fill="#5e5e5e" transform="matrix(0 -1 -1 0 0 0)"/>
    <path d="m6.773 5.362h1.411v1.411h-1.411z" fill="#d71e1e"/>
    <path d="m6.773 3.387h1.411v1.693h-1.411z" fill="#fa884c"/>
    <path d="m8.467 7.06h1.693v1.411h-1.693z" fill="#7fde59"/>
    <path d="m5.08 7.06h1.411v1.411h-1.411z" fill="#b9b9b9"/>
    <path d="m3.387 3.387h1.411v1.693h-1.411z" fill="#d7d7d7"/>
  </g>
</svg>
