<svg xmlns="http://www.w3.org/2000/svg" viewBox="0 0 48 48">
 <defs>
  <linearGradient id="linearGradient3764" x1="1" x2="47" gradientUnits="userSpaceOnUse" gradientTransform="matrix(0,-1,1,0,-1.5e-6,47.999998)">
   <stop style="stop-color:#e4e4e4;stop-opacity:1"/>
   <stop offset="1" style="stop-color:#eee;stop-opacity:1"/>
  </linearGradient>
 </defs>
 <g>
  
  
  
 </g>
 <g>
  <path d="m 47,24 C 47,46.703 46.703,47 24,47 1.297,47 1,46.703 1,24 1,1.297 1.297,1 24,1 46.703,1 47,1.297 47,24 z" style="fill:url(#linearGradient3764);fill-opacity:1"/>
 </g>
 <path d="m 16.273,15.005 17.453,0 c 1.809,0 3.273,1.465 3.273,3.273 l 0,13.449 C 36.999,33.536 35.534,35 33.726,35 L 16.273,35 C 14.468,35 13,33.535 13,31.727 l 0,-13.449 c 0,-1.809 1.469,-3.273 3.273,-3.273 m 0,0" style="fill:#000;opacity:0.1;fill-opacity:1;stroke:none;fill-rule:nonzero"/>
 <path d="m 15.273,14 17.453,0 c 1.809,0 3.273,1.465 3.273,3.273 l 0,13.449 c 0,1.809 -1.465,3.273 -3.273,3.273 l -17.453,0 C 13.468,33.995 12,32.53 12,30.722 L 12,17.273 C 12,15.464 13.469,14 15.273,14 m 0,0" style="fill:#2d2d2d;fill-opacity:1;stroke:none;fill-rule:nonzero"/>
 <path d="m 15.617,16 16.766,0 c 0.891,0 1.613,0.727 1.613,1.617 l 0,12.77 c 0,0.895 -0.723,1.617 -1.613,1.617 l -16.766,0 C 14.722,32.004 14,31.281 14,30.387 l 0,-12.77 C 14,16.726 14.723,16 15.617,16 m 0,0" style="fill:#6da5e6;fill-opacity:1;stroke:none;fill-rule:nonzero"/>
 <g transform="translate(1,1)" style="fill:#000;opacity:0.1;fill-opacity:1">
  <g transform="translate(25,20)" style="fill:#000">
   <rect rx="1" y="6" height="4" width="4" style="fill:#000;opacity:1;stroke:none"/>
   <rect width="4" height="4" x="12" y="6" rx="1" style="fill:#000;opacity:1;stroke:none"/>
   <rect rx="1" x="6" height="4" width="4" style="fill:#000;opacity:1;stroke:none"/>
   <rect width="4" height="4" x="6" y="12" rx="1" style="fill:#000;opacity:1;stroke:none"/>
   <rect transform="matrix(0.70710678,0.70710678,-0.70710678,0.70710678,0,0)" width="4" height="4" x="3.314" y="-2" rx="1" style="fill:#000;opacity:1;stroke:none"/>
   <rect transform="matrix(0.70710678,0.70710678,-0.70710678,0.70710678,0,0)" rx="1" y="-2" x="15.314" height="4" width="4" style="fill:#000;opacity:1;stroke:none"/>
   <rect transform="matrix(0.70710678,0.70710678,-0.70710678,0.70710678,0,0)" width="4" height="4" x="9.314" y="-8" rx="1" style="fill:#000;opacity:1;stroke:none"/>
   <rect transform="matrix(0.70710678,0.70710678,-0.70710678,0.70710678,0,0)" rx="1" y="4" x="9.314" height="4" width="4" style="fill:#000;opacity:1;stroke:none"/>
   <path d="M 8 1.5 A 6.5 6.5 0 0 0 1.5 8 6.5 6.5 0 0 0 8 14.5 6.5 6.5 0 0 0 14.5 8 6.5 6.5 0 0 0 8 1.5 M 8 5 A 3 3 0 0 1 11 8 3 3 0 0 1 8 11 3 3 0 0 1 5 8 3 3 0 0 1 8 5" style="fill:#000;opacity:1;stroke:none"/>
  </g>
  <path d="m 33 23 a 5 5 0 0 0 -5 5 5 5 0 0 0 5 5 5 5 0 0 0 5 -5 5 5 0 0 0 -5 -5 z m 0 3 a 2 2 0 0 1 2 2 2 2 0 0 1 -2 2 2 2 0 0 1 -2 -2 2 2 0 0 1 2 -2 z" style="fill:#000;opacity:1;stroke:none"/>
 </g>
 <path d="m 16 17 0 3.996 3 0 0 -4 -3 0 m 1 1 1 0 0 2 -1 0 m 0 -2" style="fill:#2d2d2d;fill-opacity:1;stroke:none;fill-rule:nonzero"/>
 <path d="m 20 17 0 3.996 2.996 0 0 -4 -2.996 0 m 0.996 1 1 0 0 2 -1 0 m 0 -2" style="fill:#2d2d2d;fill-opacity:1;stroke:none;fill-rule:nonzero"/>
 <path d="m 24,17 0,1 0.996,0 0,2 -0.996,0 0,0.996 2.996,0 0,-0.996 -1,0 0,-3 L 24,17 m 0,0.004" style="fill:#2d2d2d;fill-opacity:1;stroke:none;fill-rule:nonzero"/>
 <path d="m 27.961 16.957 0 4 2.996 0 0 -4 -2.996 0 m 1 1 0.996 0 0 2 -0.996 0 m 0 -2" style="fill:#2d2d2d;fill-opacity:1;stroke:none;fill-rule:nonzero"/>
 <path d="m 16 22 0 3.996 3 0 0 -4 -3 0 m 1 1 1 0 0 1.996 -1 0 m 0 -1.996" style="fill:#2d2d2d;fill-opacity:1;stroke:none;fill-rule:nonzero"/>
 <path d="m 20,22 0,1 0.996,0 0,1.996 -0.996,0 0,1 2.996,0 0,-1 -1,0 0,-3 -1.996,0 M 20,22" style="fill:#2d2d2d;fill-opacity:1;stroke:none;fill-rule:nonzero"/>
 <path d="m 24 22 0 3.996 2.996 0 0 -4 -2.996 0 m 0.996 1 1 0 0 1.996 -1 0 m 0 -1.996" style="fill:#2d2d2d;fill-opacity:1;stroke:none;fill-rule:nonzero"/>
 <path d="m 28.75 21.938 0 3.996 2.996 0 0 -4 -2.996 0 m 1 1 0.996 0 0 1.996 -0.996 0 m 0 -1.996" style="fill:#2d2d2d;fill-opacity:1;stroke:none;fill-rule:nonzero"/>
 <path d="m 16,27 0,1 1,0 0,1.996 -1,0 0,1 3,0 0,-1 -1,0 0,-3 -2,0 M 16,27" style="fill:#2d2d2d;fill-opacity:1;stroke:none;fill-rule:nonzero"/>
 <path d="m 20 27 0 3.996 2.996 0 0 -4 -2.996 0 m 0.996 1 1 0 0 1.996 -1 0 m 0 -1.996" style="fill:#2d2d2d;fill-opacity:1;stroke:none;fill-rule:nonzero"/>
 <path d="m 24,27 0,1 0.996,0 0,1.996 -0.996,0 0,1 2.996,0 0,-1 -1,0 0,-3 -1.996,0 M 24,27" style="fill:#2d2d2d;fill-opacity:1;stroke:none;fill-rule:nonzero"/>
 <path d="m 28.75 26.938 0 1 1 0 0 1.996 -1 0 0 1 2.996 0 0 -1 -1 0 0 -3 -1.996 0 m 0 0.004" style="fill:#2d2d2d;fill-opacity:1;stroke:none;fill-rule:nonzero"/>
 <g>
  
 </g>
 <g transform="translate(25,20)" style="fill:#555;fill-opacity:1">
  <rect rx="1" y="6" height="4" width="4" style="fill:#555;opacity:1;stroke:none"/>
  <rect width="4" height="4" x="12" y="6" rx="1" style="fill:#555;opacity:1;stroke:none"/>
  <rect rx="1" x="6" height="4" width="4" style="fill:#555;opacity:1;stroke:none"/>
  <rect width="4" height="4" x="6" y="12" rx="1" style="fill:#555;opacity:1;stroke:none"/>
  <rect transform="matrix(0.70710678,0.70710678,-0.70710678,0.70710678,0,0)" width="4" height="4" x="3.314" y="-2" rx="1" style="fill:#555;opacity:1;stroke:none"/>
  <rect transform="matrix(0.70710678,0.70710678,-0.70710678,0.70710678,0,0)" rx="1" y="-2" x="15.314" height="4" width="4" style="fill:#555;opacity:1;stroke:none"/>
  <rect transform="matrix(0.70710678,0.70710678,-0.70710678,0.70710678,0,0)" width="4" height="4" x="9.314" y="-8" rx="1" style="fill:#555;opacity:1;stroke:none"/>
  <rect transform="matrix(0.70710678,0.70710678,-0.70710678,0.70710678,0,0)" rx="1" y="4" x="9.314" height="4" width="4" style="fill:#555;opacity:1;stroke:none"/>
  <path d="M 8 1.5 A 6.5 6.5 0 0 0 1.5 8 6.5 6.5 0 0 0 8 14.5 6.5 6.5 0 0 0 14.5 8 6.5 6.5 0 0 0 8 1.5 M 8 5 A 3 3 0 0 1 11 8 3 3 0 0 1 8 11 3 3 0 0 1 5 8 3 3 0 0 1 8 5" style="fill:#555;opacity:1;stroke:none"/>
 </g>
 <path d="m 33 23 a 5 5 0 0 0 -5 5 5 5 0 0 0 5 5 5 5 0 0 0 5 -5 5 5 0 0 0 -5 -5 z m 0 3 a 2 2 0 0 1 2 2 2 2 0 0 1 -2 2 2 2 0 0 1 -2 -2 2 2 0 0 1 2 -2 z" style="fill:#e86d42;opacity:1;fill-opacity:1;stroke:none"/>
</svg>
