<svg xmlns="http://www.w3.org/2000/svg" viewBox="0 0 48 48">
 <defs>
  <linearGradient id="linearGradient3764" x1="1" x2="47" gradientUnits="userSpaceOnUse" gradientTransform="matrix(0,-1,1,0,-1.5e-6,47.999998)">
   <stop style="stop-color:#e4e4e4;stop-opacity:1"/>
   <stop offset="1" style="stop-color:#eee;stop-opacity:1"/>
  </linearGradient>
 </defs>
 <g>
  
  
  
 </g>
 <g>
  <path d="m 47,24 C 47,46.703 46.703,47 24,47 1.297,47 1,46.703 1,24 1,1.297 1.297,1 24,1 46.703,1 47,1.297 47,24 z" style="fill:url(#linearGradient3764);fill-opacity:1"/>
 </g>
 <g>
  <g>
   <g transform="translate(1,1)">
    <g style="opacity:0.1">
     <!-- color: #eeeeee -->
     <g>
      <path d="M 19.469,12 C 18.656,12 18,12.652 18,13.469 l 0,3.5 -3.531,0 C 13.656,16.969 13,17.625 13,18.438 l 0,13.0935 c 0,0.813 0.656,1.469 1.469,1.469 l 3.531,0 0,4.9975 4.422,-4.9975 13.11,0 c 0.816,0 1.469,-0.656 1.469,-1.469 l 0,-13.0935 c 0,-0.813 -0.648,-1.469 -1.469,-1.469 l -8.529,0 0,-3.496 c 0,-0.816 -0.652,-1.469 -1.469,-1.469 l -0.063,0 0,-0.004 c -0.813,0 -1.469,0.652 -1.469,1.469 l 0,3.5 -3,0 0,-3.498 c 0,-0.813 -0.652,-1.469 -1.469,-1.469 L 19.47,12 Z m 1.541,7.998 c 2.762,0 5,2.238 5,5 0,2.762 -2.238,5 -5,5 -2.77,0 -5,-2.238 -5,-5 0,-2.762 2.23,-5 5,-5 z m 10,1 c 2.207,0 4,1.789 4,4 0,2.207 -1.793,4 -4,4 -2.219,0 -4,-1.793 -4,-4 0,-2.211 1.781,-4 4,-4 z" transform="translate(-1,-1)" style="fill:#000;fill-opacity:1;stroke:none;fill-rule:nonzero"/>
     </g>
    </g>
   </g>
  </g>
 </g>
 <g>
  
 </g>
 <g transform="translate(-1,-0.998047)">
  <g>
   <g transform="translate(1,1)">
    <g style="opacity:0.1">
     <!-- color: #eeeeee -->
    </g>
   </g>
  </g>
 </g>
 <g transform="translate(0,0.001953)">
  <g>
   <!-- color: #eeeeee -->
   <g>
    <path d="m -5.531 11 c -0.813 0 -1.469 0.652 -1.469 1.469 l 0 3.5 -3.531 0 c -0.813 0 -1.469 0.656 -1.469 1.469 l 0 13.09 c 0 0.813 0.656 1.469 1.469 1.469 l 3.531 0 0 4.999 4.422 -4.999 13.11 0 c 0.816 0 1.469 -0.656 1.469 -1.469 l 0 -13.09 c 0 -0.813 -0.648 -1.469 -1.469 -1.469 l -8.529 0 0 -3.496 c 0 -0.816 -0.652 -1.469 -1.469 -1.469 l -0.063 0 0 -0.004 c -0.813 0 -1.469 0.652 -1.469 1.469 l 0 3.5 -3 0 0 -3.498 c 0 -0.813 -0.652 -1.469 -1.469 -1.469 l -0.063 -0.002 m 1.541 7.998 c 2.762 0 5 2.238 5 5 0 2.762 -2.238 5 -5 5 -2.77 0 -5 -2.238 -5 -5 0 -2.762 2.23 -5 5 -5 z m 10 1 c 2.207 0 4 1.789 4 4 0 2.207 -1.793 4 -4 4 -2.219 0 -4 -1.793 -4 -4 0 -2.211 1.781 -4 4 -4 z" transform="translate(24,0)" style="fill:#2f3678;fill-opacity:1;stroke:none;fill-rule:nonzero"/>
   </g>
  </g>
 </g>
</svg>
