<svg viewBox="0 0 48 48" xmlns="http://www.w3.org/2000/svg" xmlns:xlink="http://www.w3.org/1999/xlink">
  <linearGradient id="a" gradientTransform="matrix(0 -1 1 0 -.0000015 47.999998)" gradientUnits="userSpaceOnUse" x1="1" x2="47">
    <stop offset="0" stop-color="#e4e4e4"/>
    <stop offset="1" stop-color="#eee"/>
  </linearGradient>
  <path d="m47 24c0 22.703-.297 23-23 23-22.703 0-23-.297-23-23 0-22.703.297-23 23-23 22.703 0 23 .297 23 23z" fill="url(#a)"/>
  <path d="m19.469 12c-.813 0-1.469.652-1.469 1.469v3.5h-3.531c-.813 0-1.469.656-1.469 1.469v13.0935c0 .813.656 1.469 1.469 1.469h3.531v4.9975l4.422-4.9975h13.11c.816 0 1.469-.656 1.469-1.469v-13.0935c0-.813-.648-1.469-1.469-1.469h-8.529v-3.496c0-.816-.652-1.469-1.469-1.469h-.063v-.004c-.813 0-1.469.652-1.469 1.469v3.5h-3v-3.498c0-.813-.652-1.469-1.469-1.469l-.063-.002zm1.541 7.998c2.762 0 5 2.238 5 5 0 2.762-2.238 5-5 5-2.77 0-5-2.238-5-5 0-2.762 2.23-5 5-5zm10 1c2.207 0 4 1.789 4 4 0 2.207-1.793 4-4 4-2.219 0-4-1.793-4-4 0-2.211 1.781-4 4-4z" opacity=".1" transform=""/>
  <path d="m-5.531 11c-.813 0-1.469.652-1.469 1.469v3.5h-3.531c-.813 0-1.469.656-1.469 1.469v13.09c0 .813.656 1.469 1.469 1.469h3.531v4.999l4.422-4.999h13.11c.816 0 1.469-.656 1.469-1.469v-13.09c0-.813-.648-1.469-1.469-1.469h-8.529v-3.496c0-.816-.652-1.469-1.469-1.469h-.063v-.004c-.813 0-1.469.652-1.469 1.469v3.5h-3v-3.498c0-.813-.652-1.469-1.469-1.469l-.063-.002m1.541 7.998c2.762 0 5 2.238 5 5 0 2.762-2.238 5-5 5-2.77 0-5-2.238-5-5 0-2.762 2.23-5 5-5zm10 1c2.207 0 4 1.789 4 4 0 2.207-1.793 4-4 4-2.219 0-4-1.793-4-4 0-2.211 1.781-4 4-4z" fill="#2f3678" transform="translate(24 .001953)"/>
</svg>
