<svg viewBox="0 0 48 48" xmlns="http://www.w3.org/2000/svg" xmlns:xlink="http://www.w3.org/1999/xlink">
  <linearGradient id="a" gradientTransform="matrix(0 -1 1 0 -.0000015 47.999998)" gradientUnits="userSpaceOnUse" x1="1" x2="47">
    <stop offset="0" stop-color="#3d3d3d"/>
    <stop offset="1" stop-color="#474747"/>
  </linearGradient>
  <path d="m47 24c0 22.703-.297 23-23 23-22.703 0-23-.297-23-23 0-22.703.297-23 23-23 22.703 0 23 .297 23 23z" fill="url(#a)"/>
  <path d="m24 10c0 0 9 0 9 5.848v5.152c0 0 3 0 3 2v10.398c0 2.602-3 2.602-3 2.602h-18c0 0-3 0-3-2.602v-10.398c0-2 3-2 3-2v-5.152c0-5.848 9-5.848 9-5.848m0 3.25c0 0-5-.152-5 3.75v4h10v-4c0-3.902-5-3.75-5-3.75m0 0" opacity=".1" transform="translate(1 1)"/>
  <path d="m24 10c0 0 9 0 9 5.848v5.152c0 0 3 0 3 2v10.398c0 2.602-3 2.602-3 2.602h-18c0 0-3 0-3-2.602v-10.398c0-2 3-2 3-2v-5.152c0-5.848 9-5.848 9-5.848m0 3.25c0 0-5-.152-5 3.75v4h10v-4c0-3.902-5-3.75-5-3.75m0 0" fill="#ecc12f"/>
</svg>
