<svg xmlns="http://www.w3.org/2000/svg" viewBox="0 0 48 48">
 <defs>
  <linearGradient id="linearGradient3764" x1="1" x2="47" gradientUnits="userSpaceOnUse" gradientTransform="matrix(0,-1,1,0,-1.5e-6,47.999998)">
   <stop style="stop-color:#3d3d3d;stop-opacity:1"/>
   <stop offset="1" style="stop-color:#474747;stop-opacity:1"/>
  </linearGradient>
 </defs>
 <g>
  
  
  
 </g>
 <g>
  <path d="m 47,24 C 47,46.703 46.703,47 24,47 1.297,47 1,46.703 1,24 1,1.297 1.297,1 24,1 46.703,1 47,1.297 47,24 z" style="fill:url(#linearGradient3764);fill-opacity:1"/>
 </g>
 <g>
  <g>
   <g transform="translate(1,1)">
    <g style="opacity:0.1">
     <!-- color: #474747 -->
     <g>
      <path d="m 24 10 c 0 0 9 0 9 5.848 l 0 5.152 c 0 0 3 0 3 2 l 0 10.398 c 0 2.602 -3 2.602 -3 2.602 l -18 0 c 0 0 -3 0 -3 -2.602 l 0 -10.398 c 0 -2 3 -2 3 -2 l 0 -5.152 c 0 -5.848 9 -5.848 9 -5.848 m 0 3.25 c 0 0 -5 -0.152 -5 3.75 l 0 4 l 10 0 l 0 -4 c 0 -3.902 -5 -3.75 -5 -3.75 m 0 0" style="fill:#000;fill-opacity:1;stroke:none;fill-rule:nonzero"/>
     </g>
    </g>
   </g>
  </g>
 </g>
 <g>
  <g>
   <!-- color: #474747 -->
   <g>
    <path d="m 24 10 c 0 0 9 0 9 5.848 l 0 5.152 c 0 0 3 0 3 2 l 0 10.398 c 0 2.602 -3 2.602 -3 2.602 l -18 0 c 0 0 -3 0 -3 -2.602 l 0 -10.398 c 0 -2 3 -2 3 -2 l 0 -5.152 c 0 -5.848 9 -5.848 9 -5.848 m 0 3.25 c 0 0 -5 -0.152 -5 3.75 l 0 4 l 10 0 l 0 -4 c 0 -3.902 -5 -3.75 -5 -3.75 m 0 0" style="fill:#ecc12f;fill-opacity:1;stroke:none;fill-rule:nonzero"/>
   </g>
  </g>
 </g>
 <g>
  
 </g>
</svg>
