<svg viewBox="0 0 48 48" xmlns="http://www.w3.org/2000/svg" xmlns:xlink="http://www.w3.org/1999/xlink">
  <linearGradient id="a" gradientTransform="matrix(0 -1 1 0 -.0000015 47.999998)" gradientUnits="userSpaceOnUse" x1="1" x2="47">
    <stop offset="0" stop-color="#c08b46"/>
    <stop offset="1" stop-color="#c59555"/>
  </linearGradient>
  <path d="m47 24c0 22.703-.297 23-23 23-22.703 0-23-.297-23-23 0-22.703.297-23 23-23 22.703 0 23 .297 23 23z" fill="url(#a)"/>
  <path d="m19 15v5l5.5 5-5.5 5v5h12v-5l-5.5-5 5.5-5v-5z" opacity=".07"/>
  <path d="m16 12c-.554 0-1 .446-1 1v1c0 .554.446 1 1 1h1v20h-1c-.554 0-1 .446-1 1v1c0 .554.446 1 1 1h18c .554 0 1-.446 1-1v-1c0-.554-.446-1-1-1h-1v-20h1c .554 0 1-.446 1-1v-1c0-.554-.446-1-1-1zm2 3h14v20h-14z" opacity=".1"/>
  <path d="m15 11c-.554 0-1 .446-1 1v1c0 .554.446 1 1 1h1v20h-1c-.554 0-1 .446-1 1v1c0 .554.446 1 1 1h18c .554 0 1-.446 1-1v-1c0-.554-.446-1-1-1h-1v-20h1c .554 0 1-.446 1-1v-1c0-.554-.446-1-1-1zm2 3h14v20h-14z" fill="#896650"/>
  <path d="m24 30c .728.016 4 4 4.5 4h-9c .6 0 3.772-4.02 4.5-4z" fill="#e3bc7e"/>
  <path d="m19 17v1.559l5 4.541 5-4.541v-1.559c-3.417.625-6.75.625-10 0z" fill="#e3bc7e"/>
  <path d="m18 14v5l5.5 5-5.5 5v5h12v-5l-5.5-5 5.5-5v-5z" fill="#fff" fill-opacity=".282"/>
</svg>
