<svg viewBox="0 0 48 48" xmlns="http://www.w3.org/2000/svg" xmlns:xlink="http://www.w3.org/1999/xlink">
  <linearGradient id="a" gradientTransform="matrix(0 -1 1 0 -.0000015 47.999998)" gradientUnits="userSpaceOnUse" x1="1" x2="47">
    <stop offset="0" stop-color="#015093"/>
    <stop offset="1" stop-color="#015ca7"/>
  </linearGradient>
  <path d="m47 24c0 22.703-.297 23-23 23-22.703 0-23-.297-23-23 0-22.703.297-23 23-23 22.703 0 23 .297 23 23z" fill="url(#a)"/>
  <path d="m24 1c-1.279 0-2.53.11-3.752.311l-11.248 32.689h4.273l5.457-16h2.96l-5.381 16h4.296l5.084-14.898c.74-2.142-.425-4.102-2.588-4.102h-3.328l4.893-13.984c-.222-.006-.443-.016-.666-.016m6.287 14l-10.834 31.549c1.355.272 2.752.419 4.182.441l4.486-12.99h5.674c1.01 0 2.112-.813 2.457-1.811l4.525-13.09c.74-2.142-.426-4.102-2.592-4.102m-4.672 3h3.221l-4.469 13h-3.221z" opacity=".1"/>
  <path d="m23.314 1.018c-1.547.045-3.054.242-4.51.578l-10.805 31.404h4.273l5.457-16h2.96l-5.381 16h4.296l5.084-14.898c.74-2.142-.425-4.102-2.588-4.102h-3.328zm5.973 12.982l-11.08 32.26c1.325.344 2.697.566 4.104.668l4.811-13.932h5.674c1.01 0 2.112-.813 2.457-1.811l4.525-13.09c.74-2.142-.426-4.102-2.592-4.102m-4.672 3h3.221l-4.469 13h-3.221z" fill="#f8f8f8"/>
</svg>
