<svg xmlns="http://www.w3.org/2000/svg" viewBox="0 0 48 48">
 <defs>
  <linearGradient id="linearGradient3764" x1="1" x2="47" gradientUnits="userSpaceOnUse" gradientTransform="matrix(0,-1,1,0,-1.5e-6,47.999998)">
   <stop style="stop-color:#015093;stop-opacity:1"/>
   <stop offset="1" style="stop-color:#015ca7;stop-opacity:1"/>
  </linearGradient>
 </defs>
 <g>
  
  
  
 </g>
 <g>
  <path d="m 47,24 C 47,46.703 46.703,47 24,47 1.297,47 1,46.703 1,24 1,1.297 1.297,1 24,1 46.703,1 47,1.297 47,24 z" style="fill:url(#linearGradient3764);fill-opacity:1"/>
  <path d="m 24 1 c -1.279 0 -2.53 0.11 -3.752 0.311 l -11.248 32.689 l 4.273 0 5.457 -16 2.96 0 -5.381 16 4.296 0 5.084 -14.898 c 0.74 -2.142 -0.425 -4.102 -2.588 -4.102 l -3.328 0 4.893 -13.984 c -0.222 -0.006 -0.443 -0.016 -0.666 -0.016 m 6.287 14 -10.834 31.549 c 1.355 0.272 2.752 0.419 4.182 0.441 l 4.486 -12.99 l 5.674 0 c 1.01 0 2.112 -0.813 2.457 -1.811 l 4.525 -13.09 c 0.74 -2.142 -0.426 -4.102 -2.592 -4.102 m -4.672 3 3.221 0 -4.469 13 -3.221 0 z" style="fill:#000;opacity:0.1;fill-opacity:1"/>
  <path d="m 23.314 1.018 c -1.547 0.045 -3.054 0.242 -4.51 0.578 l -10.805 31.404 l 4.273 0 5.457 -16 2.96 0 -5.381 16 4.296 0 5.084 -14.898 c 0.74 -2.142 -0.425 -4.102 -2.588 -4.102 l -3.328 0 z m 5.973 12.982 -11.08 32.26 c 1.325 0.344 2.697 0.566 4.104 0.668 l 4.811 -13.932 l 5.674 0 c 1.01 0 2.112 -0.813 2.457 -1.811 l 4.525 -13.09 c 0.74 -2.142 -0.426 -4.102 -2.592 -4.102 m -4.672 3 3.221 0 -4.469 13 -3.221 0 z" style="fill:#f8f8f8;fill-opacity:1"/>
 </g>
 <g>
  <g>
   <g transform="translate(1,1)">
    <g style="opacity:0.1">
     <!-- color: #015ca7 -->
    </g>
   </g>
  </g>
 </g>
 <g>
  <g>
   <!-- color: #015ca7 -->
  </g>
 </g>
 <g>
  
 </g>
</svg>
