<svg xmlns="http://www.w3.org/2000/svg" viewBox="0 0 48 48">
 <defs>
  <linearGradient id="linearGradient3764" x1="1" x2="47" gradientUnits="userSpaceOnUse" gradientTransform="matrix(0,-1,1,0,-1.5e-6,47.999998)">
   <stop style="stop-color:#3d3d3d;stop-opacity:1"/>
   <stop offset="1" style="stop-color:#474747;stop-opacity:1"/>
  </linearGradient>
 </defs>
 <g>
  
  
  
 </g>
 <g>
  <path d="m 47,24 C 47,46.703 46.703,47 24,47 1.297,47 1,46.703 1,24 1,1.297 1.297,1 24,1 46.703,1 47,1.297 47,24 z" style="fill:url(#linearGradient3764);fill-opacity:1"/>
 </g>
 <g>
  <g>
   <g transform="translate(1,1)">
    <g style="opacity:0.1">
     <!-- color: #474747 -->
     <g>
      <path d="m 23.996 9 c 8.281 0 14.996 6.715 14.996 14.996 l 0 0.012 c 0 8.281 -6.715 14.992 -14.996 14.992 c -8.281 0 -14.996 -6.711 -14.996 -14.992 l 0 -0.012 c 0 -8.281 6.715 -14.996 14.996 -14.996 m 0 0" style="fill:#000;fill-opacity:0.392;stroke:none;fill-rule:evenodd"/>
      <path d="m 2.661 7.777 c 0.454 -0.114 0.82 0.004 1.246 0.004 c 0.317 0 0.317 -0.286 0.317 -0.286 c 0 0 0 0.286 0.319 0.286 c 0.159 0 0.316 0.286 0.316 0.286 c 0 0 0.161 -3.721 0.558 -3.721 c 0.397 0 0.556 4.01 0.556 4.01 c 0 0 0.159 -0.572 0.317 -0.572 c 0.475 0 0.475 -0.288 0.475 -0.288 c 0 0 0 0.288 0.16 0.288 c 0.161 0 0.161 0.286 0.161 0.286 c 0 0 0 -0.286 0.159 -0.286 l 0.159 0 c 0.187 0 0.238 -0.572 0.397 -0.572 c 0.159 0 0.238 0.572 0.397 0.572 c 0.16 0 0.289 -0.288 0.477 -0.288 c 0.159 0 0.317 0.29 0.437 0.288 c 0.602 -0.019 1 -0.267 1.784 -0.047" transform="matrix(3.543307,0,0,3.543307,0,0)" style="stroke-opacity:1;fill:#000;stroke-miterlimit:4;stroke:#36dd3c;stroke-linecap:butt;stroke-linejoin:bevel;stroke-width:0.226"/>
     </g>
    </g>
   </g>
  </g>
 </g>
 <g>
  <g>
   <!-- color: #474747 -->
   <g>
    <path d="m 23.996 9 c 8.281 0 14.996 6.715 14.996 14.996 l 0 0.012 c 0 8.281 -6.715 14.992 -14.996 14.992 c -8.281 0 -14.996 -6.711 -14.996 -14.992 l 0 -0.012 c 0 -8.281 6.715 -14.996 14.996 -14.996 m 0 0" style="fill:#36dd3c;fill-opacity:0.392;stroke:none;fill-rule:evenodd"/>
    <path d="m 2.661 7.777 c 0.454 -0.114 0.82 0.004 1.246 0.004 c 0.317 0 0.317 -0.286 0.317 -0.286 c 0 0 0 0.286 0.319 0.286 c 0.159 0 0.316 0.286 0.316 0.286 c 0 0 0.161 -3.721 0.558 -3.721 c 0.397 0 0.556 4.01 0.556 4.01 c 0 0 0.159 -0.572 0.317 -0.572 c 0.475 0 0.475 -0.288 0.475 -0.288 c 0 0 0 0.288 0.16 0.288 c 0.161 0 0.161 0.286 0.161 0.286 c 0 0 0 -0.286 0.159 -0.286 l 0.159 0 c 0.187 0 0.238 -0.572 0.397 -0.572 c 0.159 0 0.238 0.572 0.397 0.572 c 0.16 0 0.289 -0.288 0.477 -0.288 c 0.159 0 0.317 0.29 0.437 0.288 c 0.602 -0.019 1 -0.267 1.784 -0.047" transform="matrix(3.543307,0,0,3.543307,0,0)" style="stroke-opacity:1;fill:none;stroke-miterlimit:4;stroke:#36dd3c;stroke-linecap:butt;stroke-linejoin:bevel;stroke-width:0.226"/>
   </g>
  </g>
 </g>
 <g>
  
 </g>
</svg>
