<svg viewBox="0 0 48 48" xmlns="http://www.w3.org/2000/svg" xmlns:xlink="http://www.w3.org/1999/xlink">
  <linearGradient id="a" gradientUnits="userSpaceOnUse" x2="0" y1="47" y2="1">
    <stop offset="0" stop-color="#99c"/>
    <stop offset="1" stop-color="#a7a7d3"/>
  </linearGradient>
  <path d="m24 1c22.703 0 23 .297 23 23 0 22.703-.297 23-23 23-22.703 0-23-.297-23-23 0-22.703.297-23 23-23z" fill="url(#a)"/>
  <path d="m13 13v8h2v-3h2v3h2v-8h-2v3h-2v-3zm12 0c-1.105 0-2 .895-2 2 0 .74.403 1.373 1 1.719v5.281h-3.625c-.199 0-.375.235-.375.438v1.094c0 .207.168.518.375.471h3.625v7.998c0 .552-.448 1-1 1h-.5c-.75 0-2.977-.86-4.34-1.541-1.684-.842-1.686-1.262-1.574-1.459.339-.599.914-.1.914-.1 0 0 .203-.9-1-1.9-.402-.334-1.237-.756-1.5-1-.523-.484-.515-1-.801-1-.372 0-1.199 1.827-1.199 3 0 1.171 0 2.471 1 3 0-.455.401-1 1-.699.278.14 1.615 1.029 3.082 1.951 2.168 1.363 5.455 1.779 6.918 3.748 1.463-1.969 4.75-2.385 6.918-3.748 1.467-.922 2.817-1.788 3.082-1.951.488-.301 1-.301 1 .699 1-.529 1-1.829 1-3 0-1.173-.929-3-1.301-3-.27 0-.176.516-.699 1-.263.244-1.098.666-1.5 1-1.203 1-1 1.9-1 1.9 0 0 .575-.499.914.1.111.197.11.617-1.574 1.459-1.363.681-3.59 1.541-4.34 1.541h-.5c-.552 0-1-.448-1-1l .002-7.998h3.623c.184 0 .375-.252.375-.471v-1.063c0-.211-.18-.426-.375-.469h-3.623v-5.281c.597-.346 1-.979 1-1.719 0-1.105-.895-2-2-2zm6 0v2h2v6h2v-6h2v-2zm-6 1c .552 0 1 .444 1 1 0 .556-.448 1-1 1-.552 0-1-.444-1-1 0-.556.448-1 1-1z" opacity=".1"/>
  <path d="m24 12c-1.105 0-2 .895-2 2 0 .74.403 1.373 1 1.719v15.281c0 .552-.448 1-1 1h-.5c-.75 0-2.977-.86-4.34-1.541-1.684-.842-1.686-1.262-1.574-1.459.339-.599.914-.1.914-.1 0 0 .203-.9-1-1.9-.402-.334-1.237-.756-1.5-1-.523-.484-.515-1-.801-1-.372 0-1.199 1.827-1.199 3 0 1.171 0 2.471 1 3 0-.455.401-1 1-.699.278.14 1.615 1.029 3.082 1.951 2.168 1.363 5.455 1.779 6.918 3.748 1.463-1.969 4.75-2.385 6.918-3.748 1.467-.922 2.817-1.788 3.082-1.951.488-.301 1-.301 1 .699 1-.529 1-1.829 1-3 0-1.173-.929-3-1.301-3-.27 0-.176.516-.699 1-.263.244-1.098.666-1.5 1-1.203 1-1 1.9-1 1.9 0 0 .575-.499.914.1.111.197.11.617-1.574 1.459-1.363.681-3.59 1.541-4.34 1.541h-.5c-.552 0-1-.448-1-1l .002-15.281c.597-.346 1-.979 1-1.719 0-1.105-.895-2-2-2zm0 1c .552 0 1 .444 1 1 0 .556-.448 1-1 1-.552 0-1-.444-1-1 0-.556.448-1 1-1z" fill="#4c6775"/>
  <path d="m12 12v8h2v-3h2v3h2v-8h-2v3h-2v-3z" fill="#373777"/>
  <path d="m30 12v2h2v6h2v-6h2v-2z" fill="#373777"/>
  <path d="m19.375 21c-.199 0-.375.235-.375.438v1.094c0 .207.168.516.375.469h3.625v6.6c0 .205.218.4.5.4h1c .259 0 .5-.202.5-.4v-6.6h3.625c.184 0 .375-.25.375-.469v-1.063c0-.211-.18-.426-.375-.469h-3.625-2z" fill="#373777"/>
</svg>
