<svg xmlns="http://www.w3.org/2000/svg" viewBox="0 0 48 48">
 <defs>
  <linearGradient id="linearGradient3797" y1="47" x2="0" y2="1" gradientUnits="userSpaceOnUse">
   <stop style="stop-color:#2483cc;stop-opacity:1"/>
   <stop offset="1" style="stop-color:#50a7e9;stop-opacity:1"/>
  </linearGradient>
 </defs>
 <g>
  
  
  
 </g>
 <path d="M 24,1 C 46.703,1 47,1.297 47,24 47,46.703 46.703,47 24,47 1.297,47 1,46.703 1,24 1,1.297 1.297,1 24,1 z" style="fill:url(#linearGradient3797);fill-opacity:1"/>
 <g>
  
 </g>
 <g transform="translate(1,1)" style="fill:#000;opacity:0.1">
  <path d="m 12 16 26 2 -10 0 -4 0 z" style="stroke:none"/>
  <path d="m 24 21 -2 5 -3 6 3 2 -1 -2 3 -6 -1 7 3 2 -1 -2 0 -4 2 -8 1 -2 -4 0 z" style="stroke:none"/>
  <path d="m 26 12.5 c 0 0.828 -0.672 1.5 -1.5 1.5 -0.828 0 -1.5 -0.672 -1.5 -1.5 0 -0.828 0.672 -1.5 1.5 -1.5 c 0.828 0 1.5 0.672 1.5 1.5 z" transform="matrix(1.3333333,0,0,1.3333333,-6.6666659,-1.6666662)" style="fill-opacity:1;stroke:none"/>
 </g>
 <g>
  <path d="m 12 16 26 2 -10 0 -4 0 z" style="fill:#333;stroke:none"/>
  <path d="m 24 21 -2 5 -3 6 3 2 -1 -2 3 -6 -1 7 3 2 -1 -2 0 -4 2 -8 1 -2 -4 0 z" style="fill:#333;stroke:none"/>
  <path transform="matrix(1.3333333,0,0,1.3333333,-6.6666659,-1.6666662)" d="m 26 12.5 a 1.5 1.5 0 1 1 -3 0 1.5 1.5 0 1 1 3 0 z" style="fill:#333;fill-opacity:1;stroke:none"/>
  <path d="m 26 12.5 a 1.5 1.5 0 1 1 -3 0 1.5 1.5 0 1 1 3 0 z" transform="translate(2,2.5)" style="fill:#d6d610;fill-opacity:1;stroke:none"/>
 </g>
</svg>
