<svg viewBox="0 0 48 48" xmlns="http://www.w3.org/2000/svg" xmlns:xlink="http://www.w3.org/1999/xlink">
  <linearGradient id="a" gradientUnits="userSpaceOnUse" x2="0" y1="47" y2="1">
    <stop offset="0" stop-color="#2483cc"/>
    <stop offset="1" stop-color="#50a7e9"/>
  </linearGradient>
  <path d="m24 1c22.703 0 23 .297 23 23 0 22.703-.297 23-23 23-22.703 0-23-.297-23-23 0-22.703.297-23 23-23z" fill="url(#a)"/>
  <g opacity=".1" transform="translate(1 1)">
    <path d="m12 16l26 2h-10-4z"/>
    <path d="m24 21l-2 5-3 6 3 2-1-2 3-6-1 7 3 2-1-2v-4l2-8 1-2h-4z"/>
    <path d="m26 12.5c0 .828-.672 1.5-1.5 1.5-.828 0-1.5-.672-1.5-1.5 0-.828.672-1.5 1.5-1.5.828 0 1.5.672 1.5 1.5z" transform="matrix(1.3333333 0 0 1.3333333 -6.6666659 -1.6666662)"/>
  </g>
  <path d="m12 16l26 2h-10-4z" fill="#333"/>
  <path d="m24 21l-2 5-3 6 3 2-1-2 3-6-1 7 3 2-1-2v-4l2-8 1-2h-4z" fill="#333"/>
  <path d="m26 12.5a1.5 1.5 0 1 1-3 0 1.5 1.5 0 1 1  3 0z" fill="#333" transform="matrix(1.3333333 0 0 1.3333333 -6.6666659 -1.6666662)"/>
  <path d="m26 12.5a1.5 1.5 0 1 1-3 0 1.5 1.5 0 1 1  3 0z" fill="#d6d610" transform="translate(2 2.5)"/>
</svg>
