<svg viewBox="0 0 48 48" xmlns="http://www.w3.org/2000/svg" xmlns:xlink="http://www.w3.org/1999/xlink">
  <linearGradient id="a" gradientTransform="matrix(0 -1 1 0 -.0000015 47.999998)" gradientUnits="userSpaceOnUse" x1="1" x2="47">
    <stop offset="0" stop-color="#679432"/>
    <stop offset="1" stop-color="#71a337"/>
  </linearGradient>
  <path d="m47 24c0 22.703-.297 23-23 23-22.703 0-23-.297-23-23 0-22.703.297-23 23-23 22.703 0 23 .297 23 23z" fill="url(#a)"/>
  <g opacity=".1" transform="translate(1 1)">
    <path d="m12 12.996c0 6.777 0 13.555 0 20.332v.664c7 0 15.195.012 22 0 .012-7.195-.008-14.832 0-20.996-7.547-.023-15.543.02-22 0m1 1h20v19h-20m0-19"/>
    <path d="m32.996 12v24h3v-2h-1v-22m-2 0"/>
    <path d="m16.457 16h7.082c.805 0 1.461.676 1.461 1.508v6.988c0 .832-.656 1.504-1.461 1.504h-7.082c-.805 0-1.457-.672-1.457-1.504v-6.988c0-.832.652-1.508 1.457-1.508m0 0"/>
    <path d="m26 16h2v4h-2m0-4"/>
    <path d="m29 16h2v4h-2m0-4"/>
    <path d="m26 21h5v2h-5m0-2"/>
    <path d="m26 24h5v2h-5m0-2"/>
    <path d="m15 27h16v2h-16m0-2"/>
    <path d="m15 30h2.996v1h-2.996m0-1"/>
    <path d="m19 30h3v1h-3m0-1"/>
    <path d="m23 30h2v1h-2m0-1"/>
    <path d="m26 30h2v1h-2m0-1"/>
    <path d="m29 30h2v1h-2m0-1"/>
  </g>
  <path d="m12 12.996c0 6.777 0 13.555 0 20.332v.664c7 0 15.195.012 22 0 .012-7.195-.008-14.832 0-20.996-7.547-.023-15.543.02-22 0m1 1h20v19h-20m0-19" fill="#fff"/>
  <path d="m32.996 12v24h3v-2h-1v-22m-2 0" fill="#fff"/>
  <path d="m16.457 16h7.082c.805 0 1.461.676 1.461 1.508v6.988c0 .832-.656 1.504-1.461 1.504h-7.082c-.805 0-1.457-.672-1.457-1.504v-6.988c0-.832.652-1.508 1.457-1.508m0 0" fill="#fff"/>
  <path d="m26 16h2v4h-2m0-4" fill="#fff"/>
  <path d="m29 16h2v4h-2m0-4" fill="#fff"/>
  <path d="m26 21h5v2h-5m0-2" fill="#fff"/>
  <path d="m26 24h5v2h-5m0-2" fill="#fff"/>
  <path d="m15 27h16v2h-16m0-2" fill="#fff"/>
  <path d="m15 30h2.996v1h-2.996m0-1" fill="#fff"/>
  <path d="m19 30h3v1h-3m0-1" fill="#fff"/>
  <path d="m23 30h2v1h-2m0-1" fill="#fff"/>
  <path d="m26 30h2v1h-2m0-1" fill="#fff"/>
  <path d="m29 30h2v1h-2m0-1" fill="#fff"/>
</svg>
