<svg xmlns="http://www.w3.org/2000/svg" viewBox="0 0 48 48">
 <defs>
  <linearGradient id="linearGradient3764" x1="1" x2="47" gradientUnits="userSpaceOnUse" gradientTransform="matrix(0,-1,1,0,-1.5e-6,47.999998)">
   <stop style="stop-color:#c8cddc;stop-opacity:1"/>
   <stop offset="1" style="stop-color:#d5d9e4;stop-opacity:1"/>
  </linearGradient>
 </defs>
 <g>
  
  
  
 </g>
 <g>
  <path d="m 47,24 C 47,46.703 46.703,47 24,47 1.297,47 1,46.703 1,24 1,1.297 1.297,1 24,1 46.703,1 47,1.297 47,24 z" style="fill:url(#linearGradient3764);fill-opacity:1"/>
 </g>
 <g>
  <g>
   <g transform="translate(1,1)">
    <g style="opacity:0.1">
     <!-- color: #d5d9e4 -->
     <g>
      <path d="m 13.18 13 c -0.653 0 -1.18 0.793 -1.18 1.773 l 0 20.453 c 0 0.98 0.528 1.771 1.18 1.771 l 1.641 0 c 0.649 0 1.182 -0.791 1.182 -1.771 l 0 -7.227 l 5.998 0 l 0 7.084 c 0 1.054 0.731 1.906 1.629 1.906 l 12.746 0 c 0.899 0 1.629 -0.847 1.629 -1.906 l 0 -20.17 c 0 -1.055 -0.731 -1.914 -1.629 -1.914 l -12.746 0 c -0.899 0 -1.629 0.859 -1.629 1.914 l 0 9.08 l -5.998 0 l 0 -9.225 c 0 -0.98 -0.534 -1.773 -1.182 -1.773 l -1.641 0 z" transform="translate(-1,-1)"/>
     </g>
    </g>
   </g>
  </g>
 </g>
 <g>
  <g>
   <!-- color: #d5d9e4 -->
   <g>
    <path d="m 12.18,12 1.641,0 c 0.648,0 1.18,0.793 1.18,1.773 l 0,20.453 c 0,0.98 -0.531,1.773 -1.18,1.773 l -1.641,0 C 11.528,35.999 11,35.206 11,34.226 L 11,13.773 C 11,12.793 11.527,12 12.18,12 m 0,0" style="fill:#2f4277;fill-opacity:1;stroke:none;fill-rule:nonzero"/>
    <path d="m 24,25.82 0,-1.641 c 0,-0.652 -0.398,-1.18 -0.887,-1.18 l -10.23,0 c -0.488,0 -0.887,0.527 -0.887,1.18 l 0,1.641 c 0,0.652 0.398,1.18 0.887,1.18 l 10.23,0 C 23.601,27 24,26.473 24,25.82 m 0,0" style="fill:#2f4277;fill-opacity:1;stroke:none;fill-rule:nonzero"/>
    <path d="m 22.629,12 12.746,0 c 0.898,0 1.629,0.859 1.629,1.914 l 0,20.17 c 0,1.059 -0.73,1.906 -1.629,1.906 l -12.746,0 C 21.731,35.99 21,35.138 21,34.084 l 0,-20.17 C 21,12.859 21.73,12 22.629,12 m 0,0" style="fill:#2f4277;fill-opacity:1;stroke:none;fill-rule:nonzero"/>
    <path d="m 23 17 0 3 9 0 0 3 -9 0 0 8 12 0 0 -3 -9 0 0 -3 9 0 0 -8 m -12 0" style="fill:#f9f9f9;fill-opacity:1;stroke:none;fill-rule:nonzero"/>
   </g>
  </g>
 </g>
 <g>
  
 </g>
</svg>
