<svg viewBox="0 0 48 48" xmlns="http://www.w3.org/2000/svg" xmlns:xlink="http://www.w3.org/1999/xlink">
  <linearGradient id="a" gradientTransform="matrix(0 -1 1 0 -.0000015 47.999998)" gradientUnits="userSpaceOnUse" x1="1" x2="47">
    <stop offset="0" stop-color="#3d3d3d"/>
    <stop offset="1" stop-color="#474747"/>
  </linearGradient>
  <path d="m47 24c0 22.703-.297 23-23 23-22.703 0-23-.297-23-23 0-22.703.297-23 23-23 22.703 0 23 .297 23 23z" fill="url(#a)"/>
  <path d="m24 13l-11 9 5 3-3 8 10-9-5-3zm2 18v2h10v-2z" opacity=".1"/>
  <path d="m35 32v-2h-10v2m10 0" fill="#f4609d"/>
  <path d="m12 21l11-9-4 8 5 3-10 9 3-8z" fill="#f1ab45"/>
  <path d="m12 21l11-9-4 8 5 3-10 9 3-8z" fill="#f3b64d"/>
</svg>
