<svg viewBox="0 0 48 48" xmlns="http://www.w3.org/2000/svg" xmlns:xlink="http://www.w3.org/1999/xlink">
  <linearGradient id="a" gradientTransform="matrix(0 -1 1 0 -.0000015 47.999998)" gradientUnits="userSpaceOnUse" x1="1" x2="47">
    <stop offset="0" stop-color="#e7e7e7"/>
    <stop offset="1" stop-color="#f1f1f1"/>
  </linearGradient>
  <path d="m47 24c0 22.703-.297 23-23 23-22.703 0-23-.297-23-23 0-22.703.297-23 23-23 22.703 0 23 .297 23 23z" fill="url(#a)"/>
  <g transform="scale(3.543307)">
    <path d="m4.25 3.669a.564.564 0 0 0-.581.564.564.564 0 0 0  .581.565.564.564 0 0 0  .548-.565.564.564 0 0 0-.548-.564m.548.564a.564.564 0 0 0 1.129 0 .564.564 0 1 0-1.129 0zm1.129 0a .564.564 0 0 0 1.129 0 .564.564 0 1 0-1.129 0zm1.129 0a .564.564 0 0 0 1.129 0 .564.564 0 1 0-1.129 0zm1.129 0a .564.564 0 0 0 1.129 0 .564.564 0 1 0-1.129 0zm1.129 0a .564.564 0 0 0 1.129 0 .564.564 0 1 0-1.129 0zm-5.064.565a.564.564 0 0 0-.581.564.564.564 0 0 0  .581.565.564.564 0 0 0  .548-.565.564.564 0 0 0-.548-.564m.548.564a.564.564 0 0 0 1.129 0 .564.564 0 1 0-1.129 0zm1.129 0a .564.564 0 0 0 1.129 0 .564.564 0 1 0-1.129 0zm1.129 0a .564.564 0 0 0 1.129 0 .564.564 0 1 0-1.129 0zm1.129 0a .564.564 0 0 0 1.129 0 .564.564 0 1 0-1.129 0zm1.129 0a .564.564 0 0 0 1.129 0 .564.564 0 1 0-1.129 0zm-5.064.565a.564.564 0 0 0-.581.564.564.564 0 0 0  .581.569.564.564 0 0 0  .548-.569.564.564 0 0 0-.548-.564m.548.564a.564.564 0 0 0 1.129 0 .564.564 0 1 0-1.129 0zm1.129 0a .564.564 0 0 0 1.129 0 .564.564 0 1 0-1.129 0zm1.129 0a .564.564 0 0 0 1.129 0 .564.564 0 1 0-1.129 0zm1.129 0a .564.564 0 0 0  .581.564.564.564 0 0 0  .548-.564.564.564 0 1 0-1.129 0zm1.129 0a .564.564 0 0 0  .581.564.564.564 0 0 0  .548-.564.564.564 0 1 0-1.129 0zm .581.564a.564.564 0 0 0-.582.564.564.564 0 0 0-.548-.559.564.564 0 0 0-.581.56.564.564 0 0 0  .548.564.564.564 0 0 0  .581-.564.564.564 0 0 0  1.129 0 .564.564 0 0 0-.548-.56m-1.162 1.129a.564.564 0 0 0-.548.564.564.564 0 0 0  1.129 0 .564.564 0 0 0-.581-.564zm.581.564a.564.564 0 0 0 1.129 0 .564.564 0 1 0-1.129 0zm-1.129 0a .564.564 0 1 0-1.129 0 .564.564 0 0 0  1.129 0zm-1.129 0a .564.564 0 1 0-1.129 0 .564.564 0 0 0  1.129 0zm-1.129 0a .564.564 0 1 0-1.129 0 .564.564 0 0 0  1.129 0zm-1.129 0a .564.564 0 0 0-.547-.569.564.564 0 0 0-.581.565.564.564 0 0 0  .581.564.564.564 0 0 0  .548-.564m-.548.564a.564.564 0 0 0-.581.564.564.564 0 0 0  1.129 0 .564.564 0 0 0-.548-.564m.548.564a.564.564 0 0 0 1.129 0 .564.564 0 1 0-1.129 0zm1.129 0a .564.564 0 0 0 1.129 0 .564.564 0 1 0-1.129 0zm1.129 0a .564.564 0 0 0 1.129 0 .564.564 0 1 0-1.129 0zm1.129 0a .564.564 0 0 0 1.129 0 .564.564 0 1 0-1.129 0zm1.129 0a .564.564 0 0 0 1.129 0 .564.564 0 1 0-1.129 0zm-5.064-1.693a.564.564 0 0 0  .548-.564.564.564 0 0 0-.548-.56.564.564 0 0 0-.581.56.564.564 0 0 0  .581.564m.548-.564a.564.564 0 0 0 1.129 0 .564.564 0 1 0-1.129 0zm1.129 0a .564.564 0 0 0 1.129 0 .564.564 0 1 0-1.129 0zm1.129 0a .564.564 0 0 0 1.129 0 .564.564 0 1 0-1.129 0z" opacity=".1"/>
    <path d="m-51-.5a1.5 1.5 0 1 1-3 0 1.5 1.5 0 1 1  3 0z" fill="#e76a6a" transform="matrix(.37629631 0 0 .37629631 23.706667 4.1392594)"/>
    <path d="m-51-.5a1.5 1.5 0 1 1-3 0 1.5 1.5 0 1 1  3 0z" fill="#e76a6a" transform="matrix(.37629631 0 0 .37629631 23.706667 5.2681483)"/>
    <path d="m-51-.5a1.5 1.5 0 1 1-3 0 1.5 1.5 0 1 1  3 0z" fill="#e76a6a" transform="matrix(.37629631 0 0 .37629631 23.706667 7.5259261)"/>
    <path d="m-51-.5a1.5 1.5 0 1 1-3 0 1.5 1.5 0 1 1  3 0z" fill="#e76a6a" transform="matrix(.37629631 0 0 .37629631 23.706667 6.3970372)"/>
    <path d="m-51-.5a1.5 1.5 0 1 1-3 0 1.5 1.5 0 1 1  3 0z" fill="#e76a6a" transform="matrix(.37629631 0 0 .37629631 23.706667 8.654815)"/>
    <path d="m-51-.5a1.5 1.5 0 1 1-3 0 1.5 1.5 0 1 1  3 0z" fill="#e76a6a" transform="matrix(.37629631 0 0 .37629631 23.706667 9.7837039)"/>
    <path d="m-51-.5a1.5 1.5 0 1 1-3 0 1.5 1.5 0 1 1  3 0z" fill="#e76a6a" transform="matrix(.37629631 0 0 .37629631 24.835556 4.1392594)"/>
    <path d="m-51-.5a1.5 1.5 0 1 1-3 0 1.5 1.5 0 1 1  3 0z" fill="#e76a6a" transform="matrix(.37629631 0 0 .37629631 24.835556 5.2681483)"/>
    <path d="m-51-.5a1.5 1.5 0 1 1-3 0 1.5 1.5 0 1 1  3 0z" fill="#e76a6a" transform="matrix(.37629631 0 0 .37629631 24.835556 7.5259261)"/>
    <path d="m-51-.5a1.5 1.5 0 1 1-3 0 1.5 1.5 0 1 1  3 0z" fill="#e76a6a" transform="matrix(.37629631 0 0 .37629631 24.835556 6.3970372)"/>
    <path d="m-51-.5a1.5 1.5 0 1 1-3 0 1.5 1.5 0 1 1  3 0z" fill="#e76a6a" transform="matrix(.37629631 0 0 .37629631 24.835556 8.654815)"/>
    <path d="m-51-.5a1.5 1.5 0 1 1-3 0 1.5 1.5 0 1 1  3 0z" fill="#e76a6a" transform="matrix(.37629631 0 0 .37629631 24.835556 9.7837039)"/>
    <path d="m-51-.5a1.5 1.5 0 1 1-3 0 1.5 1.5 0 1 1  3 0z" fill="#e3c72e" transform="matrix(.37629631 0 0 .37629631 25.964445 4.1392594)"/>
    <path d="m-51-.5a1.5 1.5 0 1 1-3 0 1.5 1.5 0 1 1  3 0z" fill="#e3c72e" transform="matrix(.37629631 0 0 .37629631 25.964445 5.2681483)"/>
    <path d="m-51-.5a1.5 1.5 0 1 1-3 0 1.5 1.5 0 1 1  3 0z" fill="#e3c72e" transform="matrix(.37629631 0 0 .37629631 25.964445 7.5259261)"/>
    <path d="m-51-.5a1.5 1.5 0 1 1-3 0 1.5 1.5 0 1 1  3 0z" fill="#e3c72e" transform="matrix(.37629631 0 0 .37629631 25.964445 6.3970372)"/>
    <path d="m-51-.5a1.5 1.5 0 1 1-3 0 1.5 1.5 0 1 1  3 0z" fill="#e3c72e" transform="matrix(.37629631 0 0 .37629631 25.964445 8.654815)"/>
    <path d="m-51-.5a1.5 1.5 0 1 1-3 0 1.5 1.5 0 1 1  3 0z" fill="#e3c72e" transform="matrix(.37629631 0 0 .37629631 25.964445 9.7837039)"/>
    <path d="m-51-.5a1.5 1.5 0 1 1-3 0 1.5 1.5 0 1 1  3 0z" fill="#e3c72e" transform="matrix(.37629631 0 0 .37629631 27.093334 4.1392594)"/>
    <path d="m-51-.5a1.5 1.5 0 1 1-3 0 1.5 1.5 0 1 1  3 0z" fill="#e3c72e" transform="matrix(.37629631 0 0 .37629631 27.093334 5.2681483)"/>
    <path d="m-51-.5a1.5 1.5 0 1 1-3 0 1.5 1.5 0 1 1  3 0z" fill="#e3c72e" transform="matrix(.37629631 0 0 .37629631 27.093334 7.5259261)"/>
    <path d="m-51-.5a1.5 1.5 0 1 1-3 0 1.5 1.5 0 1 1  3 0z" fill="#e3c72e" transform="matrix(.37629631 0 0 .37629631 27.093334 6.3970372)"/>
    <path d="m-51-.5a1.5 1.5 0 1 1-3 0 1.5 1.5 0 1 1  3 0z" fill="#e3c72e" transform="matrix(.37629631 0 0 .37629631 27.093334 8.654815)"/>
    <path d="m-51-.5a1.5 1.5 0 1 1-3 0 1.5 1.5 0 1 1  3 0z" fill="#e3c72e" transform="matrix(.37629631 0 0 .37629631 27.093334 9.7837039)"/>
    <path d="m-51-.5a1.5 1.5 0 1 1-3 0 1.5 1.5 0 1 1  3 0z" fill="#5bc548" transform="matrix(.37629631 0 0 .37629631 28.222223 4.1392594)"/>
    <path d="m-51-.5a1.5 1.5 0 1 1-3 0 1.5 1.5 0 1 1  3 0z" fill="#5bc548" transform="matrix(.37629631 0 0 .37629631 28.222223 5.2681483)"/>
    <path d="m-51-.5a1.5 1.5 0 1 1-3 0 1.5 1.5 0 1 1  3 0z" fill="#5bc548" transform="matrix(.37629631 0 0 .37629631 28.222223 7.5259261)"/>
    <path d="m-51-.5a1.5 1.5 0 1 1-3 0 1.5 1.5 0 1 1  3 0z" fill="#5bc548" transform="matrix(.37629631 0 0 .37629631 28.222223 6.3970372)"/>
    <path d="m-51-.5a1.5 1.5 0 1 1-3 0 1.5 1.5 0 1 1  3 0z" fill="#5bc548" transform="matrix(.37629631 0 0 .37629631 28.222223 8.654815)"/>
    <path d="m-51-.5a1.5 1.5 0 1 1-3 0 1.5 1.5 0 1 1  3 0z" fill="#5bc548" transform="matrix(.37629631 0 0 .37629631 28.222223 9.7837039)"/>
    <path d="m-51-.5a1.5 1.5 0 1 1-3 0 1.5 1.5 0 1 1  3 0z" fill="#5bc548" transform="matrix(.37629631 0 0 .37629631 29.351112 4.1392594)"/>
    <path d="m-51-.5a1.5 1.5 0 1 1-3 0 1.5 1.5 0 1 1  3 0z" fill="#5bc548" transform="matrix(.37629631 0 0 .37629631 29.351112 5.2681483)"/>
    <path d="m-51-.5a1.5 1.5 0 1 1-3 0 1.5 1.5 0 1 1  3 0z" fill="#5bc548" transform="matrix(.37629631 0 0 .37629631 29.351112 7.5259261)"/>
    <path d="m-51-.5a1.5 1.5 0 1 1-3 0 1.5 1.5 0 1 1  3 0z" fill="#5bc548" transform="matrix(.37629631 0 0 .37629631 29.351112 6.3970372)"/>
    <path d="m-51-.5a1.5 1.5 0 1 1-3 0 1.5 1.5 0 1 1  3 0z" fill="#5bc548" transform="matrix(.37629631 0 0 .37629631 29.351112 8.654815)"/>
    <path d="m-51-.5a1.5 1.5 0 1 1-3 0 1.5 1.5 0 1 1  3 0z" fill="#5bc548" transform="matrix(.37629631 0 0 .37629631 29.351112 9.7837039)"/>
  </g>
</svg>
