<svg xmlns="http://www.w3.org/2000/svg" viewBox="0 0 48 48">
 <defs>
  <linearGradient id="linearGradient3764" x1="1" x2="47" gradientUnits="userSpaceOnUse" gradientTransform="matrix(0,-1,1,0,-1.5e-6,47.999998)">
   <stop style="stop-color:#7dbdff;stop-opacity:1"/>
   <stop offset="1" style="stop-color:#91c8ff;stop-opacity:1"/>
  </linearGradient>
 </defs>
 <g>
  
  
  
 </g>
 <g>
  <path d="m 47,24 C 47,46.703 46.703,47 24,47 1.297,47 1,46.703 1,24 1,1.297 1.297,1 24,1 46.703,1 47,1.297 47,24 z" style="fill:url(#linearGradient3764);fill-opacity:1"/>
 </g>
 <g>
  <g>
   <g transform="translate(1,1)">
    <g style="opacity:0.1">
     <!-- color: #91c8ff -->
     <g>
      <path d="m 24 18 c 0 3.313 -2.688 6 -6 6 c -3.313 0 -6 -2.688 -6 -6 c 0 -3.313 2.688 -6 6 -6 c 3.313 0 6 2.688 6 6 m 0 0" style="fill:#000;fill-opacity:1;stroke:none;fill-rule:nonzero"/>
      <path d="m 36 30 c 0 3.313 -2.688 6 -6 6 c -3.313 0 -6 -2.688 -6 -6 c 0 -3.313 2.688 -6 6 -6 c 3.313 0 6 2.688 6 6 m 0 0" style="fill:#000;fill-opacity:1;stroke:none;fill-rule:nonzero"/>
      <path d="m 24 30 c 0 3.313 -2.688 6 -6 6 c -3.313 0 -6 -2.688 -6 -6 c 0 -3.313 2.688 -6 6 -6 c 3.313 0 6 2.688 6 6 m 0 0" style="fill:#000;fill-opacity:1;stroke:none;fill-rule:nonzero"/>
      <path d="m 36 18 c 0 3.313 -2.688 6 -6 6 c -3.313 0 -6 -2.688 -6 -6 c 0 -3.313 2.688 -6 6 -6 c 3.313 0 6 2.688 6 6 m 0 0" style="fill:#000;fill-opacity:1;stroke:none;fill-rule:nonzero"/>
     </g>
    </g>
   </g>
  </g>
 </g>
 <g>
  <g>
   <!-- color: #91c8ff -->
   <g>
    <path d="m 24 18 c 0 3.313 -2.688 6 -6 6 -3.313 0 -6 -2.688 -6 -6 0 -3.313 2.688 -6 6 -6 3.313 0 6 2.688 6 6 m 0 0" style="fill:#f9f9f9;fill-opacity:1;stroke:none;fill-rule:nonzero"/>
    <path d="m 36 30 c 0 3.313 -2.688 6 -6 6 -3.313 0 -6 -2.688 -6 -6 0 -3.313 2.688 -6 6 -6 3.313 0 6 2.688 6 6 m 0 0" style="fill:#f9f9f9;fill-opacity:1;stroke:none;fill-rule:nonzero"/>
    <path d="m 24 30 c 0 3.313 -2.688 6 -6 6 -3.313 0 -6 -2.688 -6 -6 0 -3.313 2.688 -6 6 -6 3.313 0 6 2.688 6 6 m 0 0" style="fill:#4c4c4c;fill-opacity:1;stroke:none;fill-rule:nonzero"/>
    <path d="m 20.555,34 -2.582,-1.383 -2.602,1.34 0.52,-2.883 -2.082,-2.059 2.902,-0.398 1.316,-2.617 1.277,2.637 2.895,0.445 -2.117,2.027 M 20.555,34" style="fill:#ffcf36;fill-opacity:1;stroke:none;fill-rule:nonzero"/>
    <path d="m 36 18 c 0 3.313 -2.688 6 -6 6 -3.313 0 -6 -2.688 -6 -6 0 -3.313 2.688 -6 6 -6 3.313 0 6 2.688 6 6 m 0 0" style="fill:#4c4c4c;fill-opacity:1;stroke:none;fill-rule:nonzero"/>
    <path d="m 32.555,22 -2.582,-1.383 -2.602,1.34 0.52,-2.883 -2.082,-2.059 2.902,-0.398 1.316,-2.617 1.277,2.637 2.895,0.445 -2.117,2.027 M 32.555,22" style="fill:#ffcf36;fill-opacity:1;stroke:none;fill-rule:nonzero"/>
   </g>
  </g>
 </g>
 <g>
  
 </g>
</svg>
