<svg viewBox="0 0 48 48" xmlns="http://www.w3.org/2000/svg" xmlns:xlink="http://www.w3.org/1999/xlink">
  <linearGradient id="a" gradientTransform="matrix(0 -1 1 0 -.0000015 47.999998)" gradientUnits="userSpaceOnUse" x1="1" x2="47">
    <stop offset="0" stop-color="#558ba7"/>
    <stop offset="1" stop-color="#6294af"/>
  </linearGradient>
  <path d="m47 24c0 22.703-.297 23-23 23-22.703 0-23-.297-23-23 0-22.703.297-23 23-23 22.703 0 23 .297 23 23z" fill="url(#a)"/>
  <path d="m22 13c-.554 0-1 .446-1 1v6c0 .554.446 1 1 1h6c .554 0 1-.446 1-1v-6c0-.554-.446-1-1-1zm3 1.5l2 2.5h-1v2h-2v-2h-1zm-13 8.5c-.554 0-1 .446-1 1v6c0 .554.446 1 1 1h6c .554 0 1-.446 1-1v-6c0-.554-.446-1-1-1zm10 0c-.554 0-1 .446-1 1v6c0 .554.446 1 1 1h6c .554 0 1-.446 1-1v-6c0-.554-.446-1-1-1zm10 0c-.554 0-1 .446-1 1v6c0 .554.446 1 1 1h6c .554 0 1-.446 1-1v-6c0-.554-.446-1-1-1zm-17 2v1h2v2h-2v1l-2.5-2zm9 0h2v2h1l-2 2.5-2-2.5h1zm11 0l2.5 2-2.5 2v-1h-2v-2h2z" opacity=".1"/>
  <path d="m21 22c-.554 0-1 .446-1 1v6c0 .554.446 1 1 1h6c .554 0 1-.446 1-1v-6c0-.554-.446-1-1-1zm2 2h2v2h1l-2 2.5-2-2.5h1z" fill="#f9f9f9"/>
  <path d="m21 20c-.554 0-1-.446-1-1v-6c0-.554.446-1 1-1h6c .554 0 1 .446 1 1v6c0 .554-.446 1-1 1zm2-2h2v-2h1l-2-2.5-2 2.5h1z" fill="#f9f9f9"/>
  <path d="m18 29c0 .554-.446 1-1 1h-6c-.554 0-1-.446-1-1v-6c0-.554.446-1 1-1h6c .554 0 1 .446 1 1zm-2-2v-2h-2v-1l-2.5 2 2.5 2v-1z" fill="#f9f9f9"/>
  <path d="m30 29c0 .554.446 1 1 1h6c .554 0 1-.446 1-1v-6c0-.554-.446-1-1-1h-6c-.554 0-1 .446-1 1zm2-2v-2h2v-1l2.5 2-2.5 2v-1z" fill="#f9f9f9"/>
</svg>
