<svg viewBox="0 0 48 48" xmlns="http://www.w3.org/2000/svg" xmlns:xlink="http://www.w3.org/1999/xlink">
  <linearGradient id="a" gradientTransform="matrix(0 -1 1 0 -.0000015 47.999998)" gradientUnits="userSpaceOnUse" x1="1" x2="47">
    <stop offset="0" stop-color="#8ac4ce"/>
    <stop offset="1" stop-color="#98cbd4"/>
  </linearGradient>
  <linearGradient id="b" gradientUnits="userSpaceOnUse" x1="24.05196792" x2="23.98464508" y1="35.92913298" y2="13.96062958">
    <stop offset="0" stop-color="#ece3e5"/>
    <stop offset="1" stop-color="#ebe5e5"/>
  </linearGradient>
  <linearGradient id="c" gradientTransform="matrix(.214286 0 0 .214286 -94.615378 -22.400081)" gradientUnits="userSpaceOnUse" x1="563.8" x2="577.78">
    <stop offset="0" stop-color="#c6d4e3"/>
    <stop offset="1" stop-color="#c6d4e3" stop-opacity="0"/>
  </linearGradient>
  <linearGradient id="d" gradientTransform="matrix(.214286 0 0 .214286 -104.61502 -22.399665)" gradientUnits="userSpaceOnUse" x1="563.8" x2="577.78" xlink:href="#c"/>
  <linearGradient id="e" gradientUnits="userSpaceOnUse" x1="36.38976289" x2="26.44724345" y1="16.22480275" y2="24.94488128">
    <stop offset="0" stop-color="#a3a3a3"/>
    <stop offset="1" stop-color="#b9b2b8"/>
  </linearGradient>
  <linearGradient id="f" gradientTransform="matrix(.214286 0 0 .214286 -94.615378 -22.400081)" gradientUnits="userSpaceOnUse" x1="563.8" x2="577.78" xlink:href="#c"/>
  <path d="m47 24c0 22.703-.297 23-23 23-22.703 0-23-.297-23-23 0-22.703.297-23 23-23 22.703 0 23 .297 23 23z" fill="url(#a)"/>
  <path d="m15.06 27.26c-2.371-1.965-4.051-6.996-4.059-13.191 5.703-.461 11.371 2.402 11.348 3.215h.582l.469-1.977v1.754l2.441-3.063-1.566 3.137.258.223.691-.855.18.973c2.926-2.887 6.793-3.238 11.605-3.398-.273 4.48-.066 9.598-3.523 12.996 3.105 5.43-1.242 8.121-4.461 8.719-3.09.313-6.176.258-9.266-.07-4.875-.523-7.156-5.379-4.695-8.465m0 .004" opacity=".1" transform="translate(1 1)"/>
  <path d="m15.06 27.26c-2.371-1.965-4.051-6.996-4.059-13.191 5.703-.461 11.371 2.402 11.348 3.215h.582l.469-1.977v1.754l2.441-3.063-1.566 3.137.258.223.691-.855.18.973c2.926-2.887 6.793-3.238 11.605-3.398-.273 4.48-.066 9.598-3.523 12.996 3.105 5.43-1.242 8.121-4.461 8.719-3.09.313-6.176.258-9.266-.07-4.875-.523-7.156-5.379-4.695-8.465m0 .004" fill="url(#b)"/>
  <path d="m22 23c0 1.656-1.344 3-3 3-1.656 0-3-1.344-3-3 0-1.656 1.344-3 3-3 1.656 0 3 1.344 3 3m0 0" fill="#fff3f3"/>
  <path d="m20.855 23.563c0 .945-.77 1.715-1.715 1.715-.949 0-1.715-.77-1.715-1.715 0-.949.766-1.715 1.715-1.715.945 0 1.715.766 1.715 1.715m0 0" fill="#353535" fill-opacity=".867"/>
  <path d="m18.418 23.57c-.422 0-.773.305-.84.699.199.441.586.789 1.055.934.367-.094.637-.418.637-.801 0-.461-.379-.832-.852-.832m0 0" fill="#7c7f78"/>
  <path d="m32 23c0 1.656-1.344 3-3 3-1.656 0-3-1.344-3-3 0-1.656 1.344-3 3-3 1.656 0 3 1.344 3 3m0 0" fill="#fff3f3"/>
  <path d="m29 20c-1.242 0-2.309.75-2.766 1.828 0 0 .004.004 0 .004-.117 1.277-.004 2.102 1.215 2.578l.125-.16c-.094-.211-.145-.441-.145-.691 0-.945.766-1.711 1.711-1.711.02 0 .039-.004.055 0-.184-.617-.191-1.227-.066-1.844-.043 0-.086-.008-.129-.008m0 .004" fill="url(#f)"/>
  <path d="m30.855 23.563c0 .945-.77 1.715-1.715 1.715-.949 0-1.715-.77-1.715-1.715 0-.949.766-1.715 1.715-1.715.945 0 1.715.766 1.715 1.715m0 0" fill="#353535" fill-opacity=".867"/>
  <path d="m28.418 23.57c-.422 0-.773.305-.84.699.199.441.586.789 1.055.934.367-.094.637-.418.637-.801 0-.461-.379-.832-.852-.832m0 0" fill="#7c7f78"/>
  <path d="m19 20c-1.242 0-2.309.75-2.766 1.828 0 0 0 .004 0 .004-.117 1.277-.004 2.102 1.215 2.578l.125-.16c-.094-.211-.148-.441-.148-.691 0-.945.77-1.711 1.715-1.711.02 0 .035-.004.055 0-.184-.617-.191-1.227-.066-1.844-.043 0-.086-.008-.129-.008m0 .004" fill="url(#d)"/>
  <path d="m15.11 25.422c-1.969-1.695-3.16-4-3.039-9.164 2.414-.301 4.355.301 6.371 1.242-3.27.98-3.504 3.168-3.332 7.922m0 0" fill="#aaa9aa"/>
  <path d="m33.36 25.422c1.969-1.695 3.16-4 3.039-9.164-2.414-.301-4.355.301-6.371 1.242 3.27.98 3.504 3.168 3.332 7.922m0 0" fill="url(#e)"/>
  <path d="m32.914 31.848c0 2.164-3.828 3.922-8.547 3.922-4.719 0-8.547-1.758-8.547-3.922 0-2.168 3.828-3.922 8.547-3.922 4.719 0 8.547 1.754 8.547 3.922m0 0" fill="#b9b2b8"/>
  <path d="m23.03 30.441l-.023 1.746c.094 1.18 1.969.984 1.996 0l-.023-1.785-.922-.527m-1.027.566" fill="#c16f6f"/>
  <path d="m19.297 29.895c.246 2.113.094 2.176 1.707.746m-1.707-.746" fill="#f9f9f9"/>
  <path d="m28.785 30c-.246 2.113-.09 2.176-1.707.75m1.707-.75" fill="#f9f9f9"/>
  <path d="m23.582 28.77v1.055c-1.863.684-2.664.531-4.109-.543-.316-.148-.836-.07-.414.66 1.953 1.359 3.543 1.195 5.05.027 1.422 1.23 3.445 1.266 4.512.18.516-.445.422-.684 0-.914-1.191 1.316-2.836 1.078-3.984.594l-.109-1.145m-.945.086" fill="#4d4c4c"/>
  <path d="m25.02 28c0 .551-.445 1-1 1-.551 0-1-.449-1-1 0-.551.449-1 1-1 .555 0 1 .449 1 1m0 0" fill="#4d4c4c"/>
</svg>
