<svg viewBox="0 0 48 48" xmlns="http://www.w3.org/2000/svg" xmlns:xlink="http://www.w3.org/1999/xlink">
  <linearGradient id="a">
    <stop offset="0" stop-color="#729fcf"/>
    <stop offset="1" stop-color="#f9f9f9"/>
  </linearGradient>
  <linearGradient id="b" gradientTransform="matrix(.32592249 .00005363 -.00005547 .3151115 3.1736223 2.0599712)" gradientUnits="userSpaceOnUse" x1="70.08" x2="30.15" xlink:href="#a" y1="104.15" y2="72.58"/>
  <radialGradient id="c" cx="78.84" cy="65.43" gradientTransform="matrix(.25576487 -.11181903 .04761239 .10179925 5.8744842 25.149846)" gradientUnits="userSpaceOnUse" r="36.617" spreadMethod="pad" xlink:href="#a"/>
  <linearGradient gradientUnits="userSpaceOnUse" x1="1" x2="47">
    <stop offset="0" stop-color="#9bd563"/>
    <stop offset="1" stop-color="#a5d973"/>
  </linearGradient>
  <linearGradient id="d" gradientUnits="userSpaceOnUse" x1="1" x2="47">
    <stop offset="0" stop-color="#99d55f"/>
    <stop offset="1" stop-color="#a3d96f"/>
  </linearGradient>
  <path d="m24 1c22.703 0 23 .297 23 23 0 22.703-.297 23-23 23-22.703 0-23-.297-23-23 0-22.703.297-23 23-23z" fill="url(#d)" transform="matrix(0 -1 1 0 0 48)"/>
  <path d="m28.754 11c-.097-.008-.163.008-.203.045-.43.403 2.237 3.326 2.047 7.703-.217 4.981-7.701 5.205-6.885 10.313-.781-.258-1.205-1.121-1.018-3.03.314-3.186-2.92-3.954-4.203-3.238-1.541.86-2.187 2.423-2.189 4.285-.747-.3-1.419-.758-1.93-1.537-2.424-3.694-1.028-7.529-2.277-6.18-1.249 1.349-.734 3.836-.734 3.836 0 0-.441-2.557-.955-1.137-.514 1.42.809 3.621.809 3.621 0 0-1.469-2.415-1.176-.924.294 1.492 1.762 3.055 1.762 3.055 0 0-1.248-1.349-1.102-.213.147 1.136 2.424 2.061 2.424 2.061 0 0-1.911.355-.662 1.35 1.249.995 3.82.143 3.82.143 0 0-1.983 1.561.074 2.059.602.146 1.189.145 1.73.08.182.351.356.704.561 1.047 3.964 6.641 15.02 3.806 15.762-5.05 1.9.236 5.25-1.315 5.559-2.43.291-1.049-1.465-.418-1.961-.17.46-.248 2.375-1.194 1.686-2.496-.473-.892-1.422-.143-2.115.611-.403.584-.83 1.033-.83 1.033 0 0 .355-.517.83-1.033.6-.868 1.138-2.044.082-2.502-.674-.292-1.179.123-1.547.738-.151 1.082-.775 2.127-.775 2.127 0 0 .179-1.129.775-2.127.097-.7-.039-1.3-.709-1.127-.261.068-.562.126-.873.191.304-.407 1.594-2.233 1.107-3.348-.546-1.253-.998.852-.998.852 0 0 .549-2.444-.064-4.146-.613-1.702-.643 1.621-.643 1.621 0 0 .01-3.02-1.391-4.182-1.4-1.165-.281 1.715-.281 1.715 0 0-1.01-2.854-3.117-3.525-.165-.052-.292-.082-.389-.09z" fill-rule="evenodd" opacity=".1"/>
  <path d="m23.07 29.804c-1.344-4.852-7.272-1.564-9.696-5.257-2.424-3.694-1.027-7.529-2.276-6.179-1.249 1.349-.735 3.835-.735 3.835 0 0-.44-2.557-.955-1.137-.514 1.42.807 3.622.807 3.622 0 0-1.469-2.415-1.175-.923.294 1.492 1.762 3.054 1.762 3.054 0 0-1.249-1.35-1.102-.213.147 1.136 2.424 2.06 2.424 2.06 0 0-1.91.355-.661 1.349 1.249.995 3.82.143 3.82.143 0 0-1.984 1.562.073 2.06 2.057.497 4.04-.639 4.04-.639 0 0-.808 1.846 1.249 1.705 2.057-.142 2.921-1.69 2.425-3.48z" fill="url(#b)" fill-rule="evenodd"/>
  <path d="m27.552 10.05c-.43.403 2.237 3.326 2.047 7.704-.217 4.981-7.702 5.204-6.886 10.312-.781-.258-1.205-1.121-1.018-3.02.314-3.186-2.919-3.953-4.202-3.238-3.373 1.882-2.496 7.107.153 11.545 3.964 6.641 15.02 3.806 15.763-5.05 1.9.236 5.25-1.316 5.559-2.43.291-1.049-1.466-.417-1.962-.169.46-.248 2.376-1.195 1.686-2.497-.473-.892-1.422-.142-2.116.612-.403.584-.83 1.032-.83 1.032 0 0 .356-.516.83-1.032.6-.868 1.139-2.043.082-2.502-.674-.292-1.179.123-1.547.738-.151 1.082-.776 2.127-.776 2.127 0 0 .18-1.13.776-2.127.097-.7-.039-1.302-.709-1.128-.261.068-.563.127-.873.192.304-.407 1.593-2.232 1.107-3.346-.546-1.253-.997.852-.997.852 0 0 .548-2.446-.065-4.148-.613-1.702-.643 1.621-.643 1.621 0 0 .01-3.02-1.39-4.181-1.4-1.165-.282 1.715-.282 1.715 0 0-1-2.855-3.116-3.526-.33-.105-.512-.12-.591-.045z" fill="url(#c)" fill-rule="evenodd"/>
  <path d="m18.267 24.753c-.211.018-.442.055-.717.132.401.125.703.462.859.766.374-.346.339-.562.906-.68-.207-.124-.423-.207-.679-.23-.17-.215-.183-.036-.369.012z" fill="#555753" fill-rule="evenodd"/>
  <path d="m22.855 28.718c-1.595-5.76 6.518-5.779 6.744-10.967.226-5.188-3.563-8.33-1.451-7.659 2.112.671 3.109 3.522 3.109 3.522 0 0-1.116-2.882.284-1.716 1.4 1.165 1.392 4.188 1.392 4.188 0 0 .029-3.326.642-1.624.613 1.702.062 4.151.062 4.151 0 0 .456-2.104 1-.851.546 1.253-1.228 3.508-1.228 3.508 0 0 2.182-.731 1.508 1.01-.674 1.739-3.84 2.337-3.84 2.337 0 0 2.998.469 1.189 2.16-1.81 1.691-4.546 1.661-4.546 1.661" fill="#f9f9f9" fill-rule="evenodd"/>
  <path d="m18.549 24.609c-.038-.017-.079-.011-.109.004-.059.029-.099.078-.176.1-.002.001-.003.001-.006.002-.212.018-.443.054-.719.131l-.131.037.129.041c.387.121.684.45.836.746l.023.047.039-.037c.191-.176.278-.318.383-.426.104-.107.226-.186.504-.244l.1-.02-.088-.053c-.205-.123-.423-.204-.676-.23-.039-.048-.074-.082-.109-.098zm-.033.074c.018.008.047.033.088.084l.012.012.018.002c.218.02.399.1.578.197-.199.058-.356.123-.449.219-.106.109-.196.243-.357.398-.152-.274-.424-.544-.771-.686.237-.061.449-.101.637-.117h.008l.029-.002v-.014c.078-.03.138-.077.168-.092.017-.009.023-.01.041-.002z" fill="#b9cee5" fill-rule="evenodd"/>
  <path d="m16.768 22.729c0 0 1.41.337.845 1.649-1.287-.518.466-1.122-.845-1.649z" fill="#b9cee5" fill-rule="evenodd"/>
  <path d="m17.591 23.814a.548.53 0 0 1-1.012-.407.548.53 0 1 1  1.012.407z" fill="#2d2d2d"/>
  <path d="m17.482 23.546a.339.186 21.327 0 1-.63-.253.339.186 21.327 1 1  .63.253z" fill="#c7d9ec"/>
  <path d="m20.835 23.254c0 0-1.452-.032-1.263 1.378 1.383-.174-.146-1.201 1.263-1.378z" fill="#b9cee5" fill-rule="evenodd"/>
  <path d="m19.746 24.09a.548.53 0 1 0 1.087-.136.548.53 0 1 0-1.087.136z" fill="#2d2d2d"/>
  <path d="m19.924 23.861a.186.341 83.05 1 0  .676-.085.186.341 83.05 1 0-.676.085z" fill="#c7d9ec"/>
  <path d="m18.347 24.893a.074.063 83.929 0 1-.125.011.074.063 83.929 1 1  .125-.011z" fill="#2d2d2d"/>
  <path d="m18.752 24.928a.067.079 11.207 0 1-.131-.021.067.079 11.207 1 1  .131.021z" fill="#2d2d2d"/>
</svg>
