<svg xmlns="http://www.w3.org/2000/svg" viewBox="0 0 48 48">
 <defs>
  <linearGradient id="linearGradient3764" x1="1" x2="47" gradientUnits="userSpaceOnUse" gradientTransform="matrix(0,-1,1,0,-1.5e-6,47.999998)">
   <stop style="stop-color:#3d3d3d;stop-opacity:1"/>
   <stop offset="1" style="stop-color:#474747;stop-opacity:1"/>
  </linearGradient>
 </defs>
 <g>
  
  
  
 </g>
 <g>
  <path d="m 47,24 C 47,46.703 46.703,47 24,47 1.297,47 1,46.703 1,24 1,1.297 1.297,1 24,1 46.703,1 47,1.297 47,24 z" style="fill:url(#linearGradient3764);fill-opacity:1"/>
 </g>
 <g>
  <g>
   <g transform="translate(1,1)">
    <g style="opacity:0.1">
     <!-- color: #474747 -->
     <g>
      <path d="m 31.13 20.06 c 1.086 0.348 0.133 1.965 1.691 2.754 c 1.777 0.902 2.664 -1.379 3.73 0.25 c 1.066 1.629 -1.477 1.379 -1.406 3.297 c 0.074 1.918 2.59 1.508 1.645 3.203 c -0.941 1.691 -1.988 -0.527 -3.699 0.484 c -1.707 1.016 -0.074 2.887 -2.086 2.953 c -2.01 0.063 -0.516 -1.906 -2.297 -2.813 c -1.777 -0.902 -2.664 1.379 -3.73 -0.25 c -1.066 -1.629 1.473 -1.379 1.402 -3.297 c -0.07 -1.914 -2.586 -1.508 -1.645 -3.203 c 0.945 -1.691 1.992 0.531 3.699 -0.484 c 1.711 -1.012 0.078 -2.887 2.09 -2.949 c 0.25 -0.008 0.449 0.004 0.605 0.055 m -0.023 4.883 c -0.895 -0.184 -1.777 0.363 -1.969 1.23 c -0.191 0.855 0.383 1.707 1.281 1.887 c 0.895 0.184 1.777 -0.363 1.969 -1.23 c 0.191 -0.852 -0.383 -1.707 -1.281 -1.887 m 0 0" style="fill:#000;fill-opacity:1;stroke:none;fill-rule:nonzero"/>
      <path d="m 22.484 12.06 c 1.09 0.348 0.137 1.961 1.691 2.754 c 1.777 0.902 2.664 -1.379 3.73 0.25 c 1.066 1.629 -1.473 1.379 -1.402 3.297 c 0.07 1.914 2.586 1.508 1.645 3.203 c -0.941 1.691 -1.992 -0.531 -3.699 0.484 c -1.707 1.012 -0.074 2.887 -2.086 2.949 c -2.02 0.066 -0.52 -1.906 -2.297 -2.809 c -1.781 -0.902 -2.664 1.379 -3.73 -0.25 c -1.066 -1.629 1.473 -1.379 1.402 -3.297 c -0.07 -1.918 -2.586 -1.508 -1.645 -3.203 c 0.941 -1.691 1.992 0.527 3.699 -0.484 c 1.707 -1.016 0.074 -2.887 2.086 -2.953 c 0.254 -0.008 0.449 0.008 0.605 0.059 m -0.02 4.883 c -0.898 -0.184 -1.777 0.363 -1.977 1.23 c -0.188 0.855 0.391 1.707 1.277 1.887 c 0.898 0.184 1.777 -0.363 1.969 -1.23 c 0.191 -0.852 -0.383 -1.707 -1.27 -1.887 m 0 0" style="fill:#000;fill-opacity:1;stroke:none;fill-rule:nonzero"/>
      <path d="m 19.605 23.05 c 1.086 0.348 0.133 1.965 1.691 2.754 c 1.777 0.906 2.664 -1.379 3.73 0.254 c 1.066 1.629 -1.477 1.375 -1.402 3.293 c 0.07 1.918 2.586 1.512 1.641 3.203 c -0.941 1.695 -1.988 -0.527 -3.699 0.484 c -1.707 1.016 -0.074 2.891 -2.086 2.953 c -2.01 0.063 -0.516 -1.906 -2.297 -2.809 c -1.777 -0.906 -2.664 1.379 -3.73 -0.254 c -1.066 -1.629 1.477 -1.375 1.402 -3.293 c -0.07 -1.918 -2.586 -1.52 -1.641 -3.203 c 0.941 -1.695 1.988 0.527 3.699 -0.484 c 1.707 -1.016 0.074 -2.891 2.086 -2.953 c 0.25 -0.008 0.449 0.008 0.605 0.055 m -0.023 4.883 c -0.895 -0.184 -1.777 0.367 -1.969 1.227 c -0.191 0.863 0.383 1.707 1.281 1.891 c 0.895 0.184 1.777 -0.367 1.969 -1.227 c 0.191 -0.863 -0.383 -1.707 -1.281 -1.891 m 0 0" style="fill:#000;fill-opacity:1;stroke:none;fill-rule:nonzero"/>
     </g>
    </g>
   </g>
  </g>
 </g>
 <g>
  <g>
   <!-- color: #474747 -->
   <g>
    <path d="m 31.13 20.06 c 1.086 0.348 0.133 1.965 1.691 2.754 c 1.777 0.902 2.664 -1.379 3.73 0.25 c 1.066 1.629 -1.477 1.379 -1.406 3.297 c 0.074 1.918 2.59 1.508 1.645 3.203 c -0.941 1.691 -1.988 -0.527 -3.699 0.484 c -1.707 1.016 -0.074 2.887 -2.086 2.953 c -2.01 0.063 -0.516 -1.906 -2.297 -2.813 c -1.777 -0.902 -2.664 1.379 -3.73 -0.25 c -1.066 -1.629 1.473 -1.379 1.402 -3.297 c -0.07 -1.914 -2.586 -1.508 -1.645 -3.203 c 0.945 -1.691 1.992 0.531 3.699 -0.484 c 1.711 -1.012 0.078 -2.887 2.09 -2.949 c 0.25 -0.008 0.449 0.004 0.605 0.055 m -0.023 4.883 c -0.895 -0.184 -1.777 0.363 -1.969 1.23 c -0.191 0.855 0.383 1.707 1.281 1.887 c 0.895 0.184 1.777 -0.363 1.969 -1.23 c 0.191 -0.852 -0.383 -1.707 -1.281 -1.887 m 0 0" style="fill:#4dde5b;fill-opacity:1;stroke:none;fill-rule:nonzero"/>
    <path d="m 22.484 12.06 c 1.09 0.348 0.137 1.961 1.691 2.754 c 1.777 0.902 2.664 -1.379 3.73 0.25 c 1.066 1.629 -1.473 1.379 -1.402 3.297 c 0.07 1.914 2.586 1.508 1.645 3.203 c -0.941 1.691 -1.992 -0.531 -3.699 0.484 c -1.707 1.012 -0.074 2.887 -2.086 2.949 c -2.02 0.066 -0.52 -1.906 -2.297 -2.809 c -1.781 -0.902 -2.664 1.379 -3.73 -0.25 c -1.066 -1.629 1.473 -1.379 1.402 -3.297 c -0.07 -1.918 -2.586 -1.508 -1.645 -3.203 c 0.941 -1.691 1.992 0.527 3.699 -0.484 c 1.707 -1.016 0.074 -2.887 2.086 -2.953 c 0.254 -0.008 0.449 0.008 0.605 0.059 m -0.02 4.883 c -0.898 -0.184 -1.777 0.363 -1.977 1.23 c -0.188 0.855 0.391 1.707 1.277 1.887 c 0.898 0.184 1.777 -0.363 1.969 -1.23 c 0.191 -0.852 -0.383 -1.707 -1.27 -1.887 m 0 0" style="fill:#fb5969;fill-opacity:1;stroke:none;fill-rule:nonzero"/>
    <path d="m 19.605 23.05 c 1.086 0.348 0.133 1.965 1.691 2.754 c 1.777 0.906 2.664 -1.379 3.73 0.254 c 1.066 1.629 -1.477 1.375 -1.402 3.293 c 0.07 1.918 2.586 1.512 1.641 3.203 c -0.941 1.695 -1.988 -0.527 -3.699 0.484 c -1.707 1.016 -0.074 2.891 -2.086 2.953 c -2.01 0.063 -0.516 -1.906 -2.297 -2.809 c -1.777 -0.906 -2.664 1.379 -3.73 -0.254 c -1.066 -1.629 1.477 -1.375 1.402 -3.293 c -0.07 -1.918 -2.586 -1.52 -1.641 -3.203 c 0.941 -1.695 1.988 0.527 3.699 -0.484 c 1.707 -1.016 0.074 -2.891 2.086 -2.953 c 0.25 -0.008 0.449 0.008 0.605 0.055 m -0.023 4.883 c -0.895 -0.184 -1.777 0.367 -1.969 1.227 c -0.191 0.863 0.383 1.707 1.281 1.891 c 0.895 0.184 1.777 -0.367 1.969 -1.227 c 0.191 -0.863 -0.383 -1.707 -1.281 -1.891 m 0 0" style="fill:#2cb0de;fill-opacity:1;stroke:none;fill-rule:nonzero"/>
   </g>
  </g>
 </g>
 <g>
  
 </g>
</svg>
