<svg viewBox="0 0 48 48" xmlns="http://www.w3.org/2000/svg" xmlns:xlink="http://www.w3.org/1999/xlink">
  <linearGradient id="a" gradientTransform="matrix(0 -1 1 0 -.0000015 47.999998)" gradientUnits="userSpaceOnUse" x1="1" x2="47">
    <stop offset="0" stop-color="#e4e4e4"/>
    <stop offset="1" stop-color="#eee"/>
  </linearGradient>
  <path d="m47 24c0 22.703-.297 23-23 23-22.703 0-23-.297-23-23 0-22.703.297-23 23-23 22.703 0 23 .297 23 23z" fill="url(#a)"/>
  <path d="m26.359 12.09c-2.48.32-5.145 1.527-7.313 5.098-4.957 8.16-4.605 11-5.395 11.918-.793.914-2.93 1.41-2.621 2.449.309 1.035.621.902.621.902 0 0 3.121 4.52 12.172 3.348 9.05-1.172 10.305-3.082 10.223-4.03-.082-.949-1.992-1.641-1.992-1.641 0 0-1.414-4.984-1.051-7.03.363-2.047 1.742-5.03 3.105-5.672 1.359-.648 2.039 2.168 2.742 1.473.699-.695-1.18-6.06-3.258-6.102-1.164-.023-4.059-1.121-7.234-.707" opacity=".1" transform="translate(1 1)"/>
  <g transform="translate(.00030966)">
    <path d="m22.285 20.457l2.656-.141 1.406-2.113.965 2.41 2.559.914-1.973 1.574-.043 2.555-2.094-1.34-2.801.902.785-2.477m-1.461-2.285" fill="#ff7036"/>
    <path d="m21.887 28.14l2.496-.918.715-2.438 1.633 2.01 2.715.117-1.414 2.086.715 2.453-2.395-.656-2.406 1.691.016-2.598m-2.074-1.746" fill="#ffe236"/>
    <path d="m15.426 24.91l2.652.199 1.66-1.922.652 2.512 2.422 1.234-2.156 1.309-.367 2.527-1.902-1.59-2.895.539 1.09-2.355m-1.156-2.453" fill="#ff2fbf"/>
    <path d="m26.359 12.09c-2.48.32-5.145 1.527-7.313 5.098-4.957 8.16-4.605 11-5.395 11.918-.793.914-2.93 1.41-2.621 2.449.309 1.035.621.902.621.902 0 0 3.121 4.52 12.172 3.348 9.05-1.172 10.305-3.082 10.223-4.03-.082-.949-1.992-1.641-1.992-1.641 0 0-1.414-4.984-1.051-7.03.363-2.047 1.742-5.03 3.105-5.672 1.359-.648 2.039 2.168 2.742 1.473.699-.695-1.18-6.06-3.258-6.102-1.164-.023-4.059-1.121-7.234-.707m.008 6.848l.691 2.043 2.098.594-1.773 1.262.078 2.145-1.773-1.262-2.09.73.672-2.02-1.348-1.695 2.203-.02m-5.84 4.227l.074 1.48 1.324.793-1.43.516-.359 1.465-.973-1.141-1.523.098.816-1.234-.582-1.387 1.477.383m7.082-.664l1.418 1.898 2.395-.094-1.391 1.922.816 2.188-2.297-.711-1.887 1.457-.016-2.359-1.988-1.297 2.277-.746m.672-2.258" fill="#2d2d2d"/>
  </g>
</svg>
