<svg xmlns="http://www.w3.org/2000/svg" viewBox="0 0 48 48">
 <defs>
  <linearGradient id="linearGradient3764" x1="1" x2="47" gradientUnits="userSpaceOnUse" gradientTransform="matrix(0,-1,1,0,-1.5e-6,47.999998)">
   <stop style="stop-color:#e4e4e4;stop-opacity:1"/>
   <stop offset="1" style="stop-color:#eee;stop-opacity:1"/>
  </linearGradient>
 </defs>
 <g>
  
  
  
 </g>
 <g>
  <path d="m 47,24 C 47,46.703 46.703,47 24,47 1.297,47 1,46.703 1,24 1,1.297 1.297,1 24,1 46.703,1 47,1.297 47,24 z" style="fill:url(#linearGradient3764);fill-opacity:1"/>
 </g>
 <g>
  <g>
   <g transform="translate(1,1)">
    <g style="opacity:0.1">
     <!-- color: #eeeeee -->
     <g>
      <path d="m 26.359 12.09 c -2.48 0.32 -5.145 1.527 -7.313 5.098 -4.957 8.16 -4.605 11 -5.395 11.918 -0.793 0.914 -2.93 1.41 -2.621 2.449 0.309 1.035 0.621 0.902 0.621 0.902 0 0 3.121 4.52 12.172 3.348 9.05 -1.172 10.305 -3.082 10.223 -4.03 -0.082 -0.949 -1.992 -1.641 -1.992 -1.641 0 0 -1.414 -4.984 -1.051 -7.03 0.363 -2.047 1.742 -5.03 3.105 -5.672 1.359 -0.648 2.039 2.168 2.742 1.473 0.699 -0.695 -1.18 -6.06 -3.258 -6.102 -1.164 -0.023 -4.059 -1.121 -7.234 -0.707" style="fill:#000;fill-opacity:1;stroke:none;fill-rule:nonzero"/>
     </g>
    </g>
   </g>
  </g>
 </g>
 <g transform="translate(3.0965817e-4,0)">
  <g>
   <!-- color: #eeeeee -->
   <g>
    <path d="m 22.285 20.457 2.656 -0.141 1.406 -2.113 0.965 2.41 2.559 0.914 -1.973 1.574 -0.043 2.555 -2.094 -1.34 -2.801 0.902 0.785 -2.477 m -1.461 -2.285" style="fill:#ff7036;fill-opacity:1;stroke:none;fill-rule:nonzero"/>
    <path d="m 21.887 28.14 2.496 -0.918 0.715 -2.438 1.633 2.01 2.715 0.117 -1.414 2.086 0.715 2.453 -2.395 -0.656 -2.406 1.691 0.016 -2.598 m -2.074 -1.746" style="fill:#ffe236;fill-opacity:1;stroke:none;fill-rule:nonzero"/>
    <path d="m 15.426,24.91 2.652,0.199 1.66,-1.922 0.652,2.512 2.422,1.234 -2.156,1.309 -0.367,2.527 -1.902,-1.59 -2.895,0.539 1.09,-2.355 M 15.426,24.91" style="fill:#ff2fbf;fill-opacity:1;stroke:none;fill-rule:nonzero"/>
    <path d="m 26.359 12.09 c -2.48 0.32 -5.145 1.527 -7.313 5.098 -4.957 8.16 -4.605 11 -5.395 11.918 -0.793 0.914 -2.93 1.41 -2.621 2.449 0.309 1.035 0.621 0.902 0.621 0.902 0 0 3.121 4.52 12.172 3.348 9.05 -1.172 10.305 -3.082 10.223 -4.03 -0.082 -0.949 -1.992 -1.641 -1.992 -1.641 0 0 -1.414 -4.984 -1.051 -7.03 0.363 -2.047 1.742 -5.03 3.105 -5.672 1.359 -0.648 2.039 2.168 2.742 1.473 0.699 -0.695 -1.18 -6.06 -3.258 -6.102 -1.164 -0.023 -4.059 -1.121 -7.234 -0.707 m 0.008 6.848 0.691 2.043 2.098 0.594 -1.773 1.262 0.078 2.145 -1.773 -1.262 -2.09 0.73 0.672 -2.02 -1.348 -1.695 2.203 -0.02 m -5.84 4.227 0.074 1.48 1.324 0.793 -1.43 0.516 -0.359 1.465 -0.973 -1.141 -1.523 0.098 0.816 -1.234 -0.582 -1.387 1.477 0.383 m 7.082 -0.664 1.418 1.898 2.395 -0.094 -1.391 1.922 0.816 2.188 -2.297 -0.711 -1.887 1.457 -0.016 -2.359 -1.988 -1.297 2.277 -0.746 m 0.672 -2.258" style="fill:#2d2d2d;fill-opacity:1;stroke:none;fill-rule:nonzero"/>
   </g>
  </g>
 </g>
 <g>
  
 </g>
</svg>
