<svg viewBox="0 0 48 48" xmlns="http://www.w3.org/2000/svg" xmlns:xlink="http://www.w3.org/1999/xlink">
  <linearGradient id="a" gradientTransform="matrix(0 -1 1 0 -.0000015 47.999998)" gradientUnits="userSpaceOnUse" x1="1" x2="47">
    <stop offset="0" stop-color="#ebebc3"/>
    <stop offset="1" stop-color="#f0f0d2"/>
  </linearGradient>
  <path d="m47 24c0 22.703-.297 23-23 23-22.703 0-23-.297-23-23 0-22.703.297-23 23-23 22.703 0 23 .297 23 23z" fill="url(#a)"/>
  <path d="m13 13h24v24c-8 0-16 0-24 0z" opacity=".1"/>
  <path d="m12 12h24v24c-8 0-16 0-24 0z" fill="#efef5d"/>
  <path d="m12 12h24v4h-24z" opacity=".1"/>
  <path d="m15 19h2v2h-2z" fill="#484848"/>
  <path d="m20 19h13v2h-13z" fill="#484848"/>
  <path d="m20 25h13v2h-13z" fill="#484848"/>
  <path d="m15 25h2v2h-2z" fill="#484848"/>
  <path d="m20 31h13v2h-13z" fill="#484848"/>
  <path d="m15 31h2v2h-2z" fill="#484848"/>
</svg>
