<svg viewBox="0 0 48 48" xmlns="http://www.w3.org/2000/svg" xmlns:xlink="http://www.w3.org/1999/xlink">
  <linearGradient id="a" gradientTransform="matrix(0 -1 1 0 -.0000015 47.999998)" gradientUnits="userSpaceOnUse" x1="1" x2="47">
    <stop offset="0" stop-color="#3d3d3d"/>
    <stop offset="1" stop-color="#474747"/>
  </linearGradient>
  <linearGradient id="b" gradientTransform="translate(10)" gradientUnits="userSpaceOnUse" x2="0" y1="34" y2="26">
    <stop offset="0" stop-color="#7fcf5b"/>
    <stop offset="1" stop-color="#7fcf5b" stop-opacity=".8"/>
  </linearGradient>
  <linearGradient id="c" gradientTransform="translate(5)" gradientUnits="userSpaceOnUse" x2="0" y1="34" y2="20">
    <stop offset="0" stop-color="#db4ddb"/>
    <stop offset="1" stop-color="#db4ddb" stop-opacity=".6"/>
  </linearGradient>
  <linearGradient id="d" gradientTransform="translate(5)" gradientUnits="userSpaceOnUse" x2="0" y1="34" y2="17">
    <stop offset="0" stop-color="#3e8ded"/>
    <stop offset="1" stop-color="#3e8ded" stop-opacity=".502"/>
  </linearGradient>
  <linearGradient id="e" gradientTransform="translate(5)" gradientUnits="userSpaceOnUse" x2="0" y1="34" y2="20">
    <stop offset="0" stop-color="#e4c82f"/>
    <stop offset="1" stop-color="#e4c82f" stop-opacity=".6"/>
  </linearGradient>
  <linearGradient id="f" gradientUnits="userSpaceOnUse" x2="0" y1="34" y2="23">
    <stop offset="0" stop-color="#ec8e19"/>
    <stop offset="1" stop-color="#ec8e19" stop-opacity=".51"/>
  </linearGradient>
  <linearGradient id="g" gradientUnits="userSpaceOnUse" x2="0" y1="34" y2="14">
    <stop offset="0" stop-color="#c52f2f"/>
    <stop offset="1" stop-color="#c52f2f" stop-opacity=".4"/>
  </linearGradient>
  <path d="m24 1c22.703 0 23 .297 23 23 0 22.703-.297 23-23 23-22.703 0-23-.297-23-23 0-22.703.297-23 23-23z" fill="url(#a)"/>
  <path d="m13 15v2h4v-2zm30 0v2h2.912c-.217-.681-.463-1.349-.74-2zm-40 3v2h4v-2zm10 0v2h4v-2zm20 0v2h4v-2zm10 0v2h3.646c-.119-.677-.265-1.345-.441-2zm-40 3v2h4v-2zm5 0v2h4v-2zm5 0v2h4v-2zm10 0v2h4v-2zm10 0v2h4v-2zm5 0v2h4v-2zm5 0v2h3.975c-.029-.67-.089-1.332-.174-1.986-.001-.005-.001-.009-.002-.014zm-40 3v2h4v-2zm5 0v2h4v-2zm5 0v2h4v-2zm5 0v2h4v-2zm5 0v2h4v-2zm10 0v2h4v-2zm5 0v2h4v-2zm5 0v2h3.908c0-.003 0-.007 0-.01.057-.657.092-1.32.092-1.99zm-40 3v2h4v-2zm5 0v2h4v-2zm5 0v2h4v-2zm5 0v2h4v-2zm5 0v2h4v-2zm5 0v2h4v-2zm5 0v2h4v-2zm5 0v2h4v-2zm5 0v2h3.449c.001-.003.001-.007.002-.01.144-.65.257-1.31.346-1.979.001-.004.001-.008.002-.012h-3.799zm-40 3v2h4v-2zm5 0v2h4v-2zm5 0v2h4v-2zm5 0v2h4v-2zm5 0v2h4v-2zm5 0v2h4v-2zm5 0v2h4v-2zm5 0v2h4v-2zm5 0v2h2.568c.001-.004.002-.008.004-.012.236-.639.443-1.291.623-1.955.001-.003.001-.005.002-.008zm-40 3v .381c.002.003.004.006.006.01.245.547.505 1.086.791 1.609h3.203v-2zm5 0v2h4v-2zm5 0v2h4v-2zm5 0v2h4v-2zm5 0v2h4v-2zm5 0v2h4v-2zm5 0v2h4v-2zm5 0v2h4v-2zm5 0v2h1.203c.147-.27.285-.544.422-.82.028-.056.059-.11.086-.166.002-.003.002-.007.004-.01.16-.33.312-.665.457-1h-2.172z" opacity=".1"/>
  <path d="m2.088 17c-.029.092-.06.184-.088.277v1.723h4v-2m-4 3v2h4v-2zm0 3v2h4v-2zm0 3v2h4v-2zm0 3v1.723c.028.093.058.185.088.277h3.912v-2m-3.568 3c .253.683.537 1.35.852 2h2.717v-2" fill="url(#d)"/>
  <path d="m42 14v2h3.568c-.253-.683-.537-1.35-.852-2h-2.717zm0 3v2h4v-1.723c-.028-.093-.058-.185-.088-.277zm0 3v2h4v-2zm0 3v2h4v-2zm0 3v2h4v-2zm0 3v2h3.912c.029-.092.06-.184.088-.277v-1.723zm0 3v2h2.717c.315-.65.598-1.317.852-2h-3.568z" fill="url(#g)"/>
  <path d="m7 20v2h4v-2m-4 3v2h4v-2m-4 3v2h4v-2m-4 3v2h4v-2m-4 3v2h4v-2" fill="url(#c)"/>
  <path d="m12 14v2h4v-2zm0 3v2h4v-2zm0 3v2h4v-2zm0 3v2h4v-2zm0 3v2h4v-2zm0 3v2h4v-2zm0 3v2h4v-2z" fill="url(#g)"/>
  <path d="m17 23v2h4v-2m-4 3v2h4v-2m-4 3v2h4v-2m-4 3v2h4v-2" fill="url(#f)"/>
  <path d="m27 26v2h4v-2m-4 3v2h4v-2m-4 3v2h4v-2" fill="url(#b)"/>
  <path d="m32 17v2h4v-2m-4 3v2h4v-2m-4 3v2h4v-2m-4 3v2h4v-2m-4 3v2h4v-2m-4 3v2h4v-2" fill="url(#d)"/>
  <path d="m37 20v2h4v-2m-4 3v2h4v-2m-4 3v2h4v-2m-4 3v2h4v-2m-4 3v2h4v-2" fill="url(#c)"/>
  <path d="m22 20v2h4v-2m-4 3v2h4v-2m-4 3v2h4v-2m-4 3v2h4v-2m-4 3v2h4v-2" fill="url(#e)"/>
  <path d="m24 12c-.552.001-1.059.304-1.32.791l-2.451 3.912c-.44.705-.226 1.628.479 2.068.705.44 1.626.226 2.066-.479l.227-.361v4.07h-7v-4.801l.27.395c.275.403.853.525 1.293.273.44-.252.572-.779.297-1.182l-1.533-2.24c-.164-.275-.48-.447-.822-.447-.345 0-.661.173-.824.451l-1.533 2.236c-.275.403-.142.93.299 1.182.44.252 1.018.129 1.293-.273l.266-.389v5.313c0 .265.214.48.48.48h7.52v4.424c-.351-.427-.975-.554-1.469-.26-.528.315-.69.973-.359 1.477l1.838 2.795c.196.348.576.564.99.564.411-.001.79-.215.986-.559l1.84-2.801c.33-.503.171-1.162-.357-1.477-.496-.295-1.123-.166-1.473.266v-4.43h7.523c.265 0 .48-.214.48-.48l-.004-5.318.27.395c.275.403.853.525 1.293.273.44-.252.572-.779.297-1.182l-1.533-2.24c-.164-.275-.48-.447-.822-.447-.345 0-.661.173-.824.451l-1.533 2.236c-.275.403-.142.93.299 1.182.44.252 1.018.129 1.293-.273l.262-.383v4.789h-7v-4.078l.23.369c.44.705 1.362.919 2.066.479.705-.44.917-1.364.477-2.068l-2.455-3.92c-.262-.482-.766-.782-1.314-.783m-5.869 12c-1.336 1.27-2.135 2.977-2.135 4.859 0 3.953 3.582 7.121 8 7.121 4.426 0 8-3.188 8-7.121 0-1.879-.805-3.586-2.133-4.859l-1.602 1.426c.926.906 1.449 2.109 1.449 3.434 0 2.82-2.551 5.104-5.715 5.104-3.164 0-5.719-2.283-5.719-5.104 0-1.316.563-2.498 1.488-3.396l-1.635-1.463" opacity=".1" transform="translate(1.0005161 .999531)"/>
  <path d="m18.13 24c-1.336 1.27-2.133 2.977-2.133 4.859 0 3.953 3.582 7.121 8 7.121 4.426 0 8-3.188 8-7.121 0-1.879-.805-3.586-2.133-4.859l-1.602 1.426c.926.906 1.449 2.109 1.449 3.434 0 2.82-2.551 5.102-5.715 5.102-3.164 0-5.719-2.281-5.719-5.102 0-1.316.563-2.5 1.488-3.398m-1.641-1.461" fill="#f9f9f9"/>
  <path d="m15 16v6.52c0 .265.214.48.48.48h7.52v7h1.996v-7h7.523c.265 0 .48-.214.48-.48l-.004-6.52h-1v6h-7v-6h-1.996v6h-7v-6h-.996" fill="#f9f9f9"/>
  <path d="m24 12c-.552.001-1.059.304-1.32.791l-2.451 3.912c-.44.705-.226 1.628.479 2.068.705.44 1.626.226 2.066-.479l1.227-1.961 1.227 1.961c.44.705 1.362.919 2.066.479.705-.44.917-1.364.477-2.068l-2.455-3.92c-.262-.482-.766-.782-1.314-.783" fill="#f9f9f9"/>
  <path d="m32.5 14c-.345 0-.662.174-.825.452l-1.532 2.235c-.275.403-.141.93.299 1.182.44.252 1.016.129 1.291-.273l.767-1.12.767 1.12c.275.403.851.525 1.291.273.44-.252.573-.779.298-1.182l-1.534-2.24c-.164-.275-.479-.447-.821-.448" fill="#f9f9f9"/>
  <path d="m24 32c-.414 0-.794-.217-.99-.565l-1.838-2.794c-.33-.503-.17-1.163.359-1.477.528-.315 1.219-.162 1.55.342l.92 1.401.92-1.401c.33-.503 1.021-.656 1.55-.342.529.315.688.974.357 1.477l-1.841 2.8c-.197.344-.575.559-.986.559" fill="#f9f9f9"/>
  <path d="m15.5 14c-.345 0-.662.174-.825.452l-1.532 2.235c-.275.403-.141.93.299 1.182.44.252 1.016.129 1.291-.273l.767-1.12.767 1.12c.275.403.851.525 1.291.273.44-.252.573-.779.298-1.182l-1.534-2.24c-.164-.275-.479-.447-.821-.448z" fill="#f9f9f9"/>
</svg>
