<svg xmlns="http://www.w3.org/2000/svg" viewBox="0 0 48 48">
 <defs>
  <linearGradient id="linearGradient3764" x1="1" x2="47" gradientUnits="userSpaceOnUse" gradientTransform="matrix(0,-1,1,0,-1.5e-6,47.999998)">
   <stop style="stop-color:#ebebc3;stop-opacity:1"/>
   <stop offset="1" style="stop-color:#f0f0d2;stop-opacity:1"/>
  </linearGradient>
 </defs>
 <g>
  
  
  
 </g>
 <g>
  <path d="m 47,24 C 47,46.703 46.703,47 24,47 1.297,47 1,46.703 1,24 1,1.297 1.297,1 24,1 46.703,1 47,1.297 47,24 z" style="fill:url(#linearGradient3764);fill-opacity:1"/>
 </g>
 <g>
  
 </g>
 <path d="m 13 13 24 0 0 24 c -8 0 -16 0 -24 0 z" style="fill:#000;opacity:0.1;fill-opacity:1;stroke:none"/>
 <path d="m 12 12 24 0 0 24 c -8 0 -16 0 -24 0 z" style="fill:#efef5d;opacity:1;fill-opacity:1;stroke:none"/>
 <rect width="24" height="4" x="12" y="12" style="fill:#000;opacity:0.1;fill-opacity:1;stroke:none"/>
 <rect width="2" height="2" x="15" y="19" style="fill:#484848;opacity:1;fill-opacity:1;stroke:none"/>
 <rect width="13" height="2" x="20" y="19" style="fill:#484848;opacity:1;fill-opacity:1;stroke:none"/>
 <rect width="13" height="2" x="20" y="25" style="fill:#484848;opacity:1;fill-opacity:1;stroke:none"/>
 <rect width="2" height="2" x="15" y="25" style="fill:#484848;opacity:1;fill-opacity:1;stroke:none"/>
 <rect width="13" height="2" x="20" y="31" style="fill:#484848;opacity:1;fill-opacity:1;stroke:none"/>
 <rect width="2" height="2" x="15" y="31" style="fill:#484848;opacity:1;fill-opacity:1;stroke:none"/>
</svg>
