<svg viewBox="0 0 48 48" xmlns="http://www.w3.org/2000/svg" xmlns:xlink="http://www.w3.org/1999/xlink">
  <linearGradient id="a" gradientTransform="matrix(0 -1 1 0 -.0000015 47.999998)" gradientUnits="userSpaceOnUse" x1="1" x2="47">
    <stop offset="0" stop-color="#446c94"/>
    <stop offset="1" stop-color="#4a75a2"/>
  </linearGradient>
  <path d="m47 24c0 22.703-.297 23-23 23-22.703 0-23-.297-23-23 0-22.703.297-23 23-23 22.703 0 23 .297 23 23z" fill="url(#a)"/>
  <g opacity=".1" transform="translate(1 1)">
    <path d="m34 24c0 5.52-4.477 9.996-9.996 9.996-5.523 0-10-4.477-10-9.996 0-5.523 4.477-10 10-10 5.52 0 9.996 4.477 9.996 10m0 0" fill-opacity=".392"/>
    <path d="m18.914 18c-.234 0-.467.09-.645.27-.359.355-.359.934 0 1.293l4.834 4.834c-.061.192-.104.392-.104.604 0 .501.192.955.498 1.307l-5.943 10.943.004.004c-.129.239-.051.543.172.68.227.14.516.058.645-.18l5.914-10.891c.221.085.46.137.711.137.74 0 1.379-.407 1.725-1h11.34c.515 0 .941-.418.941-.934v-.129c0-.516-.425-.934-.941-.934h-11.342c-.346-.596-.984-1-1.723-1-.212 0-.412.042-.604.104l-4.834-4.834c-.18-.18-.414-.27-.648-.27z" transform="translate(-1 -1)"/>
  </g>
  <path d="m34 24c0 5.52-4.477 9.996-9.996 9.996-5.523 0-10-4.477-10-9.996 0-5.523 4.477-10 10-10 5.52 0 9.996 4.477 9.996 10m0 0" fill="#f9f9f9" fill-opacity=".133"/>
  <path d="m22.438 23.73l-5.168-5.168c-.359-.359-.359-.938 0-1.293.355-.359.934-.359 1.293 0l5.168 5.168c.359.359.359.938 0 1.293-.355.359-.934.359-1.293 0m0 0" fill="#f9f9f9"/>
  <path d="m23.934 23h13.13c.516 0 .941.418.941.934v.129c0 .516-.426.934-.941.934h-13.13c-.516 0-.934-.418-.934-.934v-.129c0-.516.418-.934.934-.934m0 0" fill="#f9f9f9"/>
  <path d="m16.555 36.25l7.06-13c .133-.238.418-.32.648-.18.227.137.301.441.172.684l-7.06 13c-.129.238-.418.32-.645.18-.223-.137-.301-.441-.172-.68m0 0" fill="#e57878"/>
  <path d="m26 24c0 1.102-.895 2-2 2-1.105 0-2-.898-2-2 0-1.105.895-2 2-2 1.105 0 2 .895 2 2m0 0" fill="#dedede"/>
</svg>
