<svg viewBox="0 0 48 48" xmlns="http://www.w3.org/2000/svg" xmlns:xlink="http://www.w3.org/1999/xlink">
  <linearGradient id="a" gradientTransform="matrix(0 -1 1 0 -.0000015 47.999998)" gradientUnits="userSpaceOnUse" x1="1" x2="47">
    <stop offset="0" stop-color="#e1ddb1"/>
    <stop offset="1" stop-color="#e7e4c0"/>
  </linearGradient>
  <path d="m47 24c0 22.703-.297 23-23 23-22.703 0-23-.297-23-23 0-22.703.297-23 23-23 22.703 0 23 .297 23 23z" fill="url(#a)"/>
  <g opacity=".1" transform="translate(1 1)">
    <path d="m18.824 21.344c0 0 .441.656 1.02.648.598-.004 1.172-.398 1.566-.816.422-.445.715-1.656.715-1.656.285.875.547 1.672 1.152 2.289.625-.293.914-.949 1.191-1.527.84.672 1.645 1.402 2.082 2.344.254-.25.504-.637.539-1.059-.031-.684-.18-1.363-.34-2.047.773.25 1.508.551 2.262.93-.191-.387-.336-.805-.41-1.203-2.043-1.383-2.492-3.348-3.836-4.742-1.695 2.438-3.465 4.898-5.941 6.84m0 0"/>
    <path d="m25.26 33c1.063-.168 1.832-.652 2.559-1.508-.645-.207-1.141-.656-1.367-1.336.176-1.867 3.03-2.082 4.543-3.125-3.879-.434-6.04-1.434-8.355-4.129-1.164.195-2.34.059-3.492-.465-1.609.254-2.285 2.234-4.148 2.496.695.18 1.648.266 1.668.625 1.926-.559 3.332-.129 5.199.563-.563 1.438-1.629 2.344-3.195 2.957 1.867 1.063 4.113 1.012 5.797 2.547.535.379.715.996.793 1.375m0 0"/>
    <path d="m36 24c0 .551-.449 1-1 1-.551 0-1-.449-1-1 0-.551.449-1 1-1 .551 0 1 .449 1 1m0 0"/>
    <path d="m34.395 24.22l-9.914-11.84.957-.637 9.945 11.871m-.988.605"/>
    <path d="m17 30c0 .551-.449 1-1 1-.551 0-1-.449-1-1 0-.551.449-1 1-1 .551 0 1 .449 1 1m0 0"/>
    <path d="m24 33c0 .551-.449 1-1 1-.551 0-1-.449-1-1 0-.551.449-1 1-1 .551 0 1 .449 1 1m0 0"/>
    <path d="m22 36c0 .551-.449 1-1 1-.551 0-1-.449-1-1 0-.551.449-1 1-1 .551 0 1 .449 1 1m0 0"/>
    <path d="m26 36c0 .551-.449 1-1 1-.551 0-1-.449-1-1 0-.551.449-1 1-1 .551 0 1 .449 1 1m0 0"/>
    <path d="m20 27c0 .551-.449 1-1 1-.551 0-1-.449-1-1 0-.551.449-1 1-1 .551 0 1 .449 1 1m0 0"/>
    <path d="m23.02 33.586l-7.324-3.02.617-1.141 7.266 3.219m-.559.945"/>
    <path d="m21.355 36.441l2.313-3.336-.953-.367-2.215 3.066m.855.637"/>
    <path d="m20.859 36.582l4.465.039-.078-.898-4.375.004m-.012.855"/>
    <path d="m16.215 30.539l3.367-3.559-1.031-.383-3.191 3.309m.855.633"/>
    <path d="m19.32 26.57l-6.379-.977-.383 1.031 6.129.801m.633-.855"/>
    <path d="m12.512 25.609l12.188-14.156.637.957-12.219 14.191m-.605-.992"/>
    <path d="m26 12c0 .551-.449 1-1 1-.551 0-1-.449-1-1 0-.551.449-1 1-1 .551 0 1 .449 1 1m0 0"/>
    <path d="m14 26c0 .551-.449 1-1 1-.551 0-1-.449-1-1 0-.551.449-1 1-1 .551 0 1 .449 1 1m0 0"/>
  </g>
  <path d="m18.824 21.344c0 0 .441.656 1.02.648.598-.004 1.172-.398 1.566-.816.422-.445.715-1.656.715-1.656.285.875.547 1.672 1.152 2.289.625-.293.914-.949 1.191-1.527.84.672 1.645 1.402 2.082 2.344.254-.25.504-.637.539-1.059-.031-.684-.18-1.363-.34-2.047.773.25 1.508.551 2.262.93-.191-.387-.336-.805-.41-1.203-2.043-1.383-2.492-3.348-3.836-4.742-1.695 2.438-3.465 4.898-5.941 6.84m0 0" fill="#7c6f7c"/>
  <path d="m25.26 33c1.063-.168 1.832-.652 2.559-1.508-.645-.207-1.141-.656-1.367-1.336.176-1.867 3.03-2.082 4.543-3.125-3.879-.434-6.04-1.434-8.355-4.129-1.164.195-2.34.059-3.492-.465-1.609.254-2.285 2.234-4.148 2.496.695.18 1.648.266 1.668.625 1.926-.559 3.332-.129 5.199.563-.563 1.438-1.629 2.344-3.195 2.957 1.867 1.063 4.113 1.012 5.797 2.547.535.379.715.996.793 1.375m0 0" fill="#7c6f7c"/>
  <path d="m36 24c0 .551-.449 1-1 1-.551 0-1-.449-1-1 0-.551.449-1 1-1 .551 0 1 .449 1 1m0 0" fill="#2c7ccc"/>
  <path d="m34.395 24.22l-9.914-11.84.957-.637 9.945 11.871m-.988.605" fill="#2c7ccc"/>
  <path d="m17 30c0 .551-.449 1-1 1-.551 0-1-.449-1-1 0-.551.449-1 1-1 .551 0 1 .449 1 1m0 0" fill="#dc3d27"/>
  <path d="m24 33c0 .551-.449 1-1 1-.551 0-1-.449-1-1 0-.551.449-1 1-1 .551 0 1 .449 1 1m0 0" fill="#dc3d27"/>
  <path d="m22 36c0 .551-.449 1-1 1-.551 0-1-.449-1-1 0-.551.449-1 1-1 .551 0 1 .449 1 1m0 0" fill="#dc3d27"/>
  <path d="m26 36c0 .551-.449 1-1 1-.551 0-1-.449-1-1 0-.551.449-1 1-1 .551 0 1 .449 1 1m0 0" fill="#dc3d27"/>
  <path d="m20 27c0 .551-.449 1-1 1-.551 0-1-.449-1-1 0-.551.449-1 1-1 .551 0 1 .449 1 1m0 0" fill="#dc3d27"/>
  <path d="m23.02 33.586l-7.324-3.02.617-1.141 7.266 3.219m-.559.945" fill="#dc3d27"/>
  <path d="m21.355 36.441l2.313-3.336-.953-.367-2.215 3.066m.855.637" fill="#dc3d27"/>
  <path d="m20.859 36.582l4.465.039-.078-.898-4.375.004m-.012.855" fill="#dc3d27"/>
  <path d="m16.215 30.539l3.367-3.559-1.031-.383-3.191 3.309m.855.633" fill="#dc3d27"/>
  <path d="m19.32 26.57l-6.379-.977-.383 1.031 6.129.801m.633-.855" fill="#dc3d27"/>
  <path d="m12.512 25.609l12.188-14.156.637.957-12.219 14.191m-.605-.992" fill="#289a59"/>
  <path d="m26 12c0 .551-.449 1-1 1-.551 0-1-.449-1-1 0-.551.449-1 1-1 .551 0 1 .449 1 1m0 0" fill="#2c7ccc"/>
  <path d="m14 26c0 .551-.449 1-1 1-.551 0-1-.449-1-1 0-.551.449-1 1-1 .551 0 1 .449 1 1m0 0" fill="#289a59"/>
</svg>
