<svg viewBox="0 0 48 48" xmlns="http://www.w3.org/2000/svg" xmlns:xlink="http://www.w3.org/1999/xlink">
  <linearGradient id="a" gradientTransform="matrix(0 -1 1 0 -.0000015 47.999998)" gradientUnits="userSpaceOnUse" x1="1" x2="47">
    <stop offset="0" stop-color="#e4e4e4"/>
    <stop offset="1" stop-color="#eee"/>
  </linearGradient>
  <path d="m47 24c0 22.703-.297 23-23 23-22.703 0-23-.297-23-23 0-22.703.297-23 23-23 22.703 0 23 .297 23 23z" fill="url(#a)"/>
  <g opacity=".1" transform="translate(1 1)">
    <path d="m12 34.31c0 .945.891 1.691 2 1.691h9v-4h-11m0 2.309"/>
    <path d="m25 36h9c1.109 0 2-.746 2-1.691v-2.309h-11m0 4"/>
    <path d="m12 30h24v-16.227c0-.988-.891-1.773-2-1.773h-20c-1.109 0-2 .785-2 1.773m0 16.227"/>
  </g>
  <path d="m12 34.31c0 .945.891 1.691 2 1.691h9v-4h-11m0 2.309" fill="#535353"/>
  <path d="m25 36h9c1.109 0 2-.746 2-1.691v-2.309h-11m0 4" fill="#535353"/>
  <path d="m12 30h24v-16.227c0-.988-.891-1.773-2-1.773h-20c-1.109 0-2 .785-2 1.773m0 16.227" fill="#535353"/>
</svg>
