<svg xmlns="http://www.w3.org/2000/svg" viewBox="0 0 48 48">
 <defs>
  <linearGradient id="linearGradient3764" x1="1" x2="47" gradientUnits="userSpaceOnUse" gradientTransform="matrix(0,-1,1,0,-1.5e-6,47.999998)">
   <stop style="stop-color:#e4e4e4;stop-opacity:1"/>
   <stop offset="1" style="stop-color:#eee;stop-opacity:1"/>
  </linearGradient>
 </defs>
 <g>
  
  
  
 </g>
 <g>
  <path d="m 47,24 C 47,46.703 46.703,47 24,47 1.297,47 1,46.703 1,24 1,1.297 1.297,1 24,1 46.703,1 47,1.297 47,24 z" style="fill:url(#linearGradient3764);fill-opacity:1"/>
 </g>
 <g>
  <g>
   <g transform="translate(1,1)">
    <g style="opacity:0.1">
     <!-- color: #eeeeee -->
     <g>
      <path d="m 12 34.31 c 0 0.945 0.891 1.691 2 1.691 l 9 0 l 0 -4 l -11 0 m 0 2.309" style="fill:#000;fill-opacity:1;stroke:none;fill-rule:nonzero"/>
      <path d="m 25 36 l 9 0 c 1.109 0 2 -0.746 2 -1.691 l 0 -2.309 l -11 0 m 0 4" style="fill:#000;fill-opacity:1;stroke:none;fill-rule:nonzero"/>
      <path d="m 12 30 l 24 0 l 0 -16.227 c 0 -0.988 -0.891 -1.773 -2 -1.773 l -20 0 c -1.109 0 -2 0.785 -2 1.773 m 0 16.227" style="fill:#000;fill-opacity:1;stroke:none;fill-rule:nonzero"/>
     </g>
    </g>
   </g>
  </g>
 </g>
 <g>
  <g>
   <!-- color: #eeeeee -->
   <g>
    <path d="m 12 34.31 c 0 0.945 0.891 1.691 2 1.691 l 9 0 l 0 -4 l -11 0 m 0 2.309" style="fill:#535353;fill-opacity:1;stroke:none;fill-rule:nonzero"/>
    <path d="m 25 36 l 9 0 c 1.109 0 2 -0.746 2 -1.691 l 0 -2.309 l -11 0 m 0 4" style="fill:#535353;fill-opacity:1;stroke:none;fill-rule:nonzero"/>
    <path d="m 12 30 l 24 0 l 0 -16.227 c 0 -0.988 -0.891 -1.773 -2 -1.773 l -20 0 c -1.109 0 -2 0.785 -2 1.773 m 0 16.227" style="fill:#535353;fill-opacity:1;stroke:none;fill-rule:nonzero"/>
   </g>
  </g>
 </g>
 <g>
  
 </g>
</svg>
