<svg viewBox="0 0 48 48" xmlns="http://www.w3.org/2000/svg" xmlns:xlink="http://www.w3.org/1999/xlink">
  <linearGradient id="a" gradientUnits="userSpaceOnUse" x2="0" y1="47" y2="1">
    <stop offset="0" stop-color="#a2e7e8"/>
    <stop offset="1" stop-color="#b2ecec"/>
  </linearGradient>
  <path d="m47 24c0 22.703-.297 23-23 23-22.703 0-23-.297-23-23 0-22.703.297-23 23-23 22.703 0 23 .297 23 23z" fill="url(#a)"/>
  <path d="m14 12c-1.105 0-2 .895-2 2v18c0 1.105.895 2 2 2h14.371l3.68 3.68c.391.387.953.465 1.414 0l .707-.707c.387-.383.41-1.01 0-1.414l-1.559-1.559h3.387c1.105 0 2-.895 2-2v-18c0-1.105-.895-2-2-2z" opacity=".1" transform=""/>
  <path d="m13 11h22c1.105 0 2 .895 2 2v18c0 1.105-.895 2-2 2h-22c-1.105 0-2-.895-2-2v-18c0-1.105.895-2 2-2m0 0" fill="#314c5b"/>
  <path d="m16 13h19v18h-19m0-18" fill="#82949d"/>
  <path d="m14 23h3c .551 0 1 .449 1 1 0 .551-.449 1-1 1h-3c-.551 0-1-.449-1-1 0-.551.449-1 1-1m0 0" fill="#82949d"/>
  <path d="m31.05 36.68c.391.387.953.465 1.414 0l .707-.707c.387-.383.41-1.01 0-1.414l-9.898-9.902c-.707-.707-2.121-.707-2.477-.352-.352.352-.352 1.766.355 2.473m9.898 9.902" fill="#475b64"/>
  <path d="m20.09 23.598c-.352.352.355 2.473 1.063 3.18l2.121-2.121c-.707-.707-2.828-1.414-3.184-1.059m0 0" fill="#f4b359"/>
</svg>
