<svg xmlns="http://www.w3.org/2000/svg" viewBox="0 0 48 48">
 <defs>
  <linearGradient id="linearGradient3764" y1="47" x2="0" y2="1" gradientUnits="userSpaceOnUse">
   <stop style="stop-color:#3fc58b;stop-opacity:1"/>
   <stop offset="1" style="stop-color:#4eca95;stop-opacity:1"/>
  </linearGradient>
 </defs>
 <g>
  
  
  
 </g>
 <g>
  <path d="m 47,24 C 47,46.703 46.703,47 24,47 1.297,47 1,46.703 1,24 1,1.297 1.297,1 24,1 46.703,1 47,1.297 47,24 z" style="fill:url(#linearGradient3764);fill-opacity:1"/>
 </g>
 <g>
  <g>
   <g transform="translate(1,1)">
    <g style="opacity:0.1">
     <!-- color: #4eca95 -->
     <g>
      <path d="m 25 13 c -4 0 -8 4 -8 7 0 3.333 0 6.667 0 10 0 4 3 7 8 7 5 0 8 -3 8 -7 0 -3.333 0 -6.667 0 -10 0 -3 -4 -7 -8 -7 z" transform="translate(-1,-1)" style="fill:#000;fill-opacity:1;stroke:none;fill-rule:nonzero"/>
     </g>
    </g>
   </g>
  </g>
 </g>
 <g>
  <g>
   <!-- color: #4eca95 -->
   <g>
    <path d="m 24 12 0 10 -8 0 0 -3 c 0 -3 4 -7 8 -7" style="fill:#eede4a;fill-opacity:1;stroke:none;fill-rule:nonzero"/>
    <path d="m 16 23 0 6 c 0 4 3 7 8 7 5 0 8 -3 8 -7 l 0 -6 m -16 0" style="fill:#eaeced;fill-opacity:1;stroke:none;fill-rule:nonzero"/>
    <path d="m 16 22 16 0 0 1 -16 0 m 0 -1" style="fill:#9cbbc9;fill-opacity:1;stroke:none;fill-rule:nonzero"/>
    <path d="m 24 12 0 10 8 0 0 -3 c 0 -3 -4 -7 -8 -7 m 0 0" style="fill:#eec74a;fill-opacity:1;stroke:none;fill-rule:nonzero"/>
    <path d="m 24,19 c 0.551,0 1,0.672 1,1.5 l 0,4 c 0,0.828 -0.449,1.5 -1,1.5 -0.551,0 -1,-0.672 -1,-1.5 l 0,-4 C 23,19.672 23.449,19 24,19 m 0,0" style="fill:#315d78;fill-opacity:1;stroke:none;fill-rule:nonzero"/>
   </g>
  </g>
 </g>
 <g>
  
 </g>
</svg>
