<svg xmlns="http://www.w3.org/2000/svg" viewBox="0 0 48 48">
 <defs>
  <linearGradient id="linearGradient3764" x1="1" x2="47" gradientUnits="userSpaceOnUse" gradientTransform="matrix(0,-1,1,0,-1.5e-6,47.999998)">
   <stop style="stop-color:#3d3d3d;stop-opacity:1"/>
   <stop offset="1" style="stop-color:#474747;stop-opacity:1"/>
  </linearGradient>
 </defs>
 <g>
  
  
  
 </g>
 <g>
  <path d="m 47,24 C 47,46.703 46.703,47 24,47 1.297,47 1,46.703 1,24 1,1.297 1.297,1 24,1 46.703,1 47,1.297 47,24 z" style="fill:url(#linearGradient3764);fill-opacity:1"/>
 </g>
 <g>
  <g>
   <g transform="translate(1,1)">
    <g style="opacity:0.1">
     <!-- color: #474747 -->
    </g>
   </g>
  </g>
 </g>
 <g>
  <g>
   <!-- color: #474747 -->
   <g>
    <path d="m 14 13 c -0.554 0 -1 0.446 -1 1 l 0 15 c 0 0.554 0.446 1 1 1 l 9 0 -0.004 4 -6.996 0 0 3 18 0 0 -3 -7 0 0.004 -4 9 0 c 0.554 0 1 -0.446 1 -1 l 0 -15 c 0 -0.554 -0.446 -1 -1 -1 l -22 0 z" style="fill:#000;opacity:0.1;fill-opacity:1;stroke:none;fill-rule:nonzero"/>
    <path d="m 13 12 c -0.554 0 -1 0.446 -1 1 l 0 15 c 0 0.554 0.446 1 1 1 l 9 0 l -0.004 4 l -6.996 0 l 0 3 l 18 0 l 0 -3 l -7 0 l 0.004 -4 l 9 0 c 0.554 0 1 -0.446 1 -1 l 0 -15 c 0 -0.554 -0.446 -1 -1 -1 l -22 0 z" style="fill:#dedede;fill-opacity:1;stroke:none;fill-rule:nonzero"/>
   </g>
  </g>
 </g>
 <rect width="20" height="13" x="14" y="14" rx="1" style="fill:#5386c8;opacity:1;fill-opacity:1;stroke:none"/>
 <g>
  
 </g>
 <path d="m 22 16 0 5 -2 0 4 5 4 -5 -2 0 0 -5 -4 0 z" style="fill:#f9f9f9;fill-opacity:1;stroke:none;fill-rule:nonzero"/>
</svg>
