<svg viewBox="0 0 48 48" xmlns="http://www.w3.org/2000/svg" xmlns:xlink="http://www.w3.org/1999/xlink">
  <linearGradient id="a" gradientTransform="matrix(0 -1 1 0 -.0000015 47.999998)" gradientUnits="userSpaceOnUse" x1="1" x2="47">
    <stop offset="0" stop-color="#9067a7"/>
    <stop offset="1" stop-color="#9974ae"/>
  </linearGradient>
  <path d="m47 24c0 22.703-.297 23-23 23-22.703 0-23-.297-23-23 0-22.703.297-23 23-23 22.703 0 23 .297 23 23z" fill="url(#a)"/>
  <path d="m17 12l2.699 15c .179.994.836 3 3.301 3v4h-2c-.554 0-1 .446-1 1-1.385 0-2 1.615-2 3h14c0-1.385-.615-3-2-3 0-.554-.446-1-1-1h-2v-4c2.465 0 3.122-2.01 3.301-3l2.699-15m-6.199 2c1 0 1.619.646 4.199 0 0 .581-1.325 2.158-2.322 2.268-.602.066-1.33-.268-2.246.199l1.477 6.484c.36 1.299-.406 2.762-1.855 3.537-1.732.927-3.832.562-4.689-.813-.857-1.374-.149-3.239 1.584-4.164 1.12-.598 2.451-.674 3.49-.203l-1.438-6.309c.367-.463.801-1 1.801-1z" opacity=".1"/>
  <path d="m16 11l2.699 15c .179.994.836 3 3.301 3v4h-2c-.554 0-1 .446-1 1-1.385 0-2 1.615-2 3h14c0-1.385-.615-3-2-3 0-.554-.446-1-1-1h-2v-4c2.465 0 3.122-2.01 3.301-3l2.699-15m-6.199 2c1 0 1.619.646 4.199 0 0 .581-1.325 2.158-2.322 2.268-.602.066-1.33-.268-2.246.199l1.477 6.484c.36 1.299-.406 2.762-1.855 3.537-1.732.927-3.832.562-4.689-.813-.857-1.374-.149-3.239 1.584-4.164 1.12-.598 2.451-.674 3.49-.203l-1.438-6.309c.367-.463.801-1 1.801-1z" fill="#f9f9f9"/>
</svg>
