<svg xmlns="http://www.w3.org/2000/svg" viewBox="0 0 48 48">
 <defs>
  <linearGradient id="linearGradient3764" x1="1" x2="47" gradientUnits="userSpaceOnUse" gradientTransform="matrix(0,-1,1,0,-1.5e-6,47.999998)">
   <stop style="stop-color:#9067a7;stop-opacity:1"/>
   <stop offset="1" style="stop-color:#9974ae;stop-opacity:1"/>
  </linearGradient>
 </defs>
 <g>
  
  
  
 </g>
 <g>
  <path d="m 47,24 C 47,46.703 46.703,47 24,47 1.297,47 1,46.703 1,24 1,1.297 1.297,1 24,1 46.703,1 47,1.297 47,24 z" style="fill:url(#linearGradient3764);fill-opacity:1"/>
 </g>
 <g>
  <g>
   <g transform="translate(1,1)">
    <g style="opacity:0.1">
     <!-- color: #9974ae -->
    </g>
   </g>
  </g>
 </g>
 <g>
  <g>
   <!-- color: #9974ae -->
  </g>
 </g>
 <g>
  
 </g>
 <path d="m 17 12 2.699 15 c 0.179 0.994 0.836 3 3.301 3 l 0 4 -2 0 c -0.554 0 -1 0.446 -1 1 -1.385 0 -2 1.615 -2 3 l 14 0 c 0 -1.385 -0.615 -3 -2 -3 0 -0.554 -0.446 -1 -1 -1 l -2 0 0 -4 c 2.465 0 3.122 -2.01 3.301 -3 l 2.699 -15 m -6.199 2 c 1 0 1.619 0.646 4.199 0 0 0.581 -1.325 2.158 -2.322 2.268 c -0.602 0.066 -1.33 -0.268 -2.246 0.199 l 1.477 6.484 c 0.36 1.299 -0.406 2.762 -1.855 3.537 -1.732 0.927 -3.832 0.562 -4.689 -0.813 -0.857 -1.374 -0.149 -3.239 1.584 -4.164 1.12 -0.598 2.451 -0.674 3.49 -0.203 l -1.438 -6.309 c 0.367 -0.463 0.801 -1 1.801 -1 z" style="fill:#000;opacity:0.1;fill-opacity:1;stroke:none"/>
 <path d="m 16 11 2.699 15 c 0.179 0.994 0.836 3 3.301 3 l 0 4 -2 0 c -0.554 0 -1 0.446 -1 1 -1.385 0 -2 1.615 -2 3 l 14 0 c 0 -1.385 -0.615 -3 -2 -3 0 -0.554 -0.446 -1 -1 -1 l -2 0 0 -4 c 2.465 0 3.122 -2.01 3.301 -3 l 2.699 -15 m -6.199 2 c 1 0 1.619 0.646 4.199 0 0 0.581 -1.325 2.158 -2.322 2.268 c -0.602 0.066 -1.33 -0.268 -2.246 0.199 l 1.477 6.484 c 0.36 1.299 -0.406 2.762 -1.855 3.537 -1.732 0.927 -3.832 0.562 -4.689 -0.813 -0.857 -1.374 -0.149 -3.239 1.584 -4.164 1.12 -0.598 2.451 -0.674 3.49 -0.203 l -1.438 -6.309 c 0.367 -0.463 0.801 -1 1.801 -1 z" style="fill:#f9f9f9;opacity:1;fill-opacity:1;stroke:none"/>
</svg>
