<svg xmlns="http://www.w3.org/2000/svg" viewBox="0 0 48 48">
 <defs>
  <linearGradient id="linearGradient4223" y1="47" x2="0" y2="1" gradientUnits="userSpaceOnUse">
   <stop style="stop-color:#16ee4e;stop-opacity:1"/>
   <stop offset="1" style="stop-color:#29ef5c;stop-opacity:1"/>
  </linearGradient>
 </defs>
 <g>
  
  
  
 </g>
 <g>
  <path d="m 24 1 c 22.703 0 23 0.297 23 23 c 0 22.703 -0.297 23 -23 23 -22.703 0 -23 -0.297 -23 -23 0 -22.703 0.297 -23 23 -23 z" style="fill:url(#linearGradient4223);fill-opacity:1"/>
 </g>
 <path d="m 23 13 l -3.572 10 l -18.402 0 c -0.014 0.332 -0.025 0.665 -0.025 1 c 0 1.018 0.073 2.02 0.201 3 l 16.799 0 l 6 0 l -2.5 12 l 8.824 -12 l 16.475 0 c 0.128 -0.983 0.201 -1.982 0.201 -3 c 0 -0.335 -0.011 -0.668 -0.025 -1 l -13.709 0 l 0.734 -1 l -8 0 l 5 -9 l -8 0 z" style="fill:#000;fill-opacity:0.098"/>
 <path d="m 1.092 22 c -0.057 0.66 -0.092 1.326 -0.092 2 0 0.674 0.035 1.34 0.092 2 l 45.816 0 c 0.057 -0.66 0.092 -1.326 0.092 -2 0 -0.674 -0.035 -1.34 -0.092 -2 l -45.816 0 z" style="fill:#aaa;fill-opacity:1"/>
 <g>
  
 </g>
 <g>
  <path d="m 19.785 22 l -1.428 4 l 12.701 0 l 2.941 -4 l -8 0 l -6.215 0 z" style="fill:#000;fill-opacity:0.098"/>
  <path d="m 22 12 -5 14 6 0 -2.5 12 12.5 -17 -8 0 5 -9 z" style="fill:#f9f9f9;fill-opacity:1;stroke:none;fill-rule:nonzero"/>
 </g>
</svg>
