<svg viewBox="0 0 48 48" xmlns="http://www.w3.org/2000/svg" xmlns:xlink="http://www.w3.org/1999/xlink">
  <linearGradient id="a" gradientUnits="userSpaceOnUse" x2="0" y1="47" y2="1">
    <stop offset="0" stop-color="#16ee4e"/>
    <stop offset="1" stop-color="#29ef5c"/>
  </linearGradient>
  <path d="m24 1c22.703 0 23 .297 23 23 0 22.703-.297 23-23 23-22.703 0-23-.297-23-23 0-22.703.297-23 23-23z" fill="url(#a)"/>
  <path d="m23 13l-3.572 10h-18.402c-.014.332-.025.665-.025 1 0 1.018.073 2.02.201 3h16.799 6l-2.5 12 8.824-12h16.475c.128-.983.201-1.982.201-3 0-.335-.011-.668-.025-1h-13.709l.734-1h-8l5-9h-8z" fill-opacity=".098"/>
  <path d="m1.092 22c-.057.66-.092 1.326-.092 2 0 .674.035 1.34.092 2h45.816c.057-.66.092-1.326.092-2 0-.674-.035-1.34-.092-2z" fill="#aaa"/>
  <path d="m19.785 22l-1.428 4h12.701l2.941-4h-8-6.215z" fill-opacity=".098"/>
  <path d="m22 12l-5 14h6l-2.5 12 12.5-17h-8l5-9z" fill="#f9f9f9"/>
</svg>
