<svg xmlns="http://www.w3.org/2000/svg" viewBox="0 0 48 48">
 <defs>
  <linearGradient id="linearGradient3764" x1="1" x2="47" gradientUnits="userSpaceOnUse" gradientTransform="matrix(0,-1,1,0,-1.5e-6,47.999998)">
   <stop style="stop-color:#2d4c5d;stop-opacity:1"/>
   <stop offset="1" style="stop-color:#33576b;stop-opacity:1"/>
  </linearGradient>
 </defs>
 <g>
  
  
  
 </g>
 <g>
  <path d="m 47,24 C 47,46.703 46.703,47 24,47 1.297,47 1,46.703 1,24 1,1.297 1.297,1 24,1 46.703,1 47,1.297 47,24 z" style="fill:url(#linearGradient3764);fill-opacity:1"/>
 </g>
 <path d="m 25 13 c -4 0 -6 1 -6 2.75 l 0 0.25 -7 0 0 1 4 1 0 1.107 c -1.631 0.455 -3 2.416 -3 5.893 c 0 3.477 1.369 5.438 3 5.893 l 0 1.107 l -4 1 0 1 6.996 0 0 0.25 c 0 1.75 2 2.75 6 2.75 4 0 6 -1 6 -2.75 l 0 -2.25 l -1.996 0 l 0 -1 4.246 0 c 1.939 0 3.754 -2 3.754 -6 0 -0.105 -0.015 -0.193 -0.018 -0.295 0.641 -0.835 1.018 -1.897 1.018 -3.205 0 -3.723 -2.125 -5.5 -6.371 -5.5 l -0.629 0 0 -0.25 c 0 -1.75 -2 -2.75 -6 -2.75 m -3 2 c 0.552 0 1 0.448 1 1 0 0.552 -0.448 1 -1 1 l 0 -1 -1 0 c 0 -0.552 0.448 -1 1 -1 z m -3 2.75 0 0.25 6 0 0 1 -7 0 0 -1 1 -0.25 z m 12 0.25 0.418 0 c 2.17 0 3.542 0.615 4.051 2.057 c -0.642 -0.691 -1.417 -1.057 -2.223 -1.057 l -1.25 0 0 3.199 c 0 1.288 -0.808 2.374 -1.943 2.801 l -1.053 0 0 -1.082 c 1.165 -0.412 2 -1.509 2 -2.818 l 0 -3.1 m -10 6.1 6 0 0 1.1 -5 0 c -1.662 0 -3 1.338 -3 3 l 0 4.051 l -0.996 -0.25 l 0 -1 0 -3.9 c 0 -1.662 1.338 -3 3 -3 z m 3.996 6.9 2 0 l 0 1 -2 0 0 -1 z m 2 3 l 2 0 c 0 0.552 -0.448 1 -1 1 -0.552 0 -1 -0.448 -1 -1 z" style="fill:#000;opacity:0.1;fill-opacity:1;stroke:none;fill-rule:evenodd"/>
 <path d="m 24,12 c -4,0 -6,1 -6,2.75 l 0,2.25 6,0 0,1 -8.25,0 C 13.811,18 12,20 12,24 c 0,4 1.811,6 3.75,6 l 1.25,0 0,-3.9 c 0,-1.662 1.338,-3 3,-3 l 7,0 c 1.662,0 3,-1.338 3,-3 l 0,-5.35 C 30,13 28,12 24,12 m -3,2 c 0.552,0 1,0.448 1,1 0,0.552 -0.448,1 -1,1 -0.552,0 -1,-0.448 -1,-1 0,-0.552 0.448,-1 1,-1 z" style="fill:#3ab5d6;opacity:1;fill-opacity:1;stroke:none"/>
 <g>
  <g>
   <g transform="translate(1,1)">
    <g style="opacity:0.1">
     <!-- color: #33576b -->
    </g>
   </g>
  </g>
 </g>
 <path d="m 30.996,18 0,3.2 c 0,1.662 -1.338,3 -3,3 l -7,0 c -1.662,0 -3,1.338 -3,3 l 0,6.05 c 0,1.75 2,2.75 6,2.75 4,0 6,-1 6,-2.75 l 0,-2.25 -6,0 0,-1 8.25,0 C 34.185,30 36,28 36,24 36,20 34.185,18 32.246,18 M 27,32 c 0.552,0 1,0.448 1,1 0,0.552 -0.448,1 -1,1 -0.552,0 -1,-0.448 -1,-1 0,-0.552 0.448,-1 1,-1 z" style="fill:#f99b47;opacity:1;fill-opacity:1;stroke:none"/>
 <g>
  <g>
   <!-- color: #33576b -->
   <g>
    <path d="m 18 16 0 1 4 0 0 -1 -1 0 z m 9 0 0 7.1 c 0.773 0 1.469 -0.298 2 -0.775 l 0 -4.324 l 1 0 0 -2 z m -11 2 0 12 1 0 0 -3.9 c 0 -0.889 0.39 -1.676 1 -2.225 l 0 -5.875 m 17.691 3.408 c 0.001 0.033 0.008 0.059 0.008 0.092 c 0 2.5 -2.249 3.5 -4.699 3.5 l -2 0 0 -0.984 c -0.315 0.112 -0.649 0.184 -1 0.184 l -0.996 0 0 5.801 l 2 0 0 -3 2.293 0 c 1.761 0 3.359 -0.406 4.555 -1.227 c 0.089 -0.545 0.152 -1.123 0.152 -1.773 0 -0.986 -0.113 -1.849 -0.309 -2.592 m -17.695 11.842 c 0 0.268 0.052 0.518 0.146 0.75 l 3.857 0 0 -1 -4 -1 m 9 -1 l 0 1 c 0.552 0 1 0.448 1 1 0 0.552 -0.448 1 -1 1 l 2 0 0 -3 z" style="fill:#000;opacity:0.1;fill-opacity:1;stroke:none;fill-rule:evenodd"/>
    <path d="m 11 15 l 0 1 l 4 1 l 0 14 l -4 1 l 0 1 l 10 0 l 0 -1 l -4 -1 l 0 -14 l 4 -1 l 0 -1 l -10 0 z m 15 0 l 0 18 l 2 0 l 0 -7 l 2.293 0 c 3.707 0 6.707 -1.777 6.707 -5.5 c 0 -3.723 -2.125 -5.5 -6.371 -5.5 l -4.629 0 z m 2 2 l 2.418 0 c 2.793 0 4.281 1 4.281 3.5 c 0 2.5 -2.249 3.5 -4.699 3.5 l -2 0 l 0 -7 z" style="fill:#f9f9f9;fill-opacity:1;stroke:none;fill-rule:evenodd"/>
   </g>
  </g>
 </g>
 <g>
  
 </g>
</svg>
