<svg xmlns="http://www.w3.org/2000/svg" viewBox="0 0 48 48">
 <defs>
  <linearGradient id="linearGradient3764" x1="1" x2="47" gradientUnits="userSpaceOnUse" gradientTransform="matrix(0,-1,1,0,-1.5e-6,47.999998)">
   <stop style="stop-color:#e1e1e1;stop-opacity:1"/>
   <stop offset="1" style="stop-color:#ebebeb;stop-opacity:1"/>
  </linearGradient>
  <radialGradient id="radialGradient4191" cx="22.706" cy="17.865" r="15" gradientTransform="matrix(0.89100652,-0.4539905,0.4539905,0.89100652,-8.3418365,13.390114)" gradientUnits="userSpaceOnUse">
   <stop style="stop-color:#a9bee1;stop-opacity:1"/>
   <stop offset="1" style="stop-color:#93add9;stop-opacity:1"/>
  </radialGradient>
  <radialGradient id="radialGradient4201" cx="22.706" cy="18.07" r="15" gradientTransform="matrix(0.89100652,-0.4539905,0.4539905,0.89100652,-8.4344118,13.208425)" gradientUnits="userSpaceOnUse">
   <stop style="stop-color:#9b9b9b;stop-opacity:1"/>
   <stop offset="1" style="stop-color:#8c8c8c;stop-opacity:1"/>
  </radialGradient>
 </defs>
 <g>
  
  
  
 </g>
 <g>
  <path d="m 47,24 C 47,46.703 46.703,47 24,47 1.297,47 1,46.703 1,24 1,1.297 1.297,1 24,1 46.703,1 47,1.297 47,24 z" style="fill:url(#linearGradient3764);fill-opacity:1"/>
 </g>
 <g>
  
 </g>
 <circle r="15" cy="25" cx="25" style="fill:#000;opacity:0.1;fill-opacity:1;stroke:none"/>
 <path d="m 10.556 17.382 c -0.627 1.276 -1.069 2.635 -1.313 4.04 7.746 -2.428 14.89 -6 21.348 -10.877 -1.28 -0.625 -2.642 -1.065 -4.046 -1.306 -5.955 1.277 -11.322 3.908 -15.989 8.147 m -1.522 7.51 c 0.061 1.051 0.232 2.092 0.511 3.107 9.346 -3.388 18.11 -7.759 26.17 -13.336 -0.656 -0.823 -1.397 -1.574 -2.21 -2.242 -9.108 2.892 -17.302 7 -24.478 12.471 m 1.601 5.918 c 0.463 0.896 1.014 1.743 1.647 2.528 c 9.586 -3.434 18.761 -7.352 26.18 -13.338 -0.267 -0.971 -0.631 -1.912 -1.086 -2.81 -9.712 3.616 -18.696 8.07 -26.735 13.62 m 3.857 4.769 c 0.897 0.737 1.876 1.368 2.918 1.88 8.321 -2.188 16.323 -4.758 21.347 -10.877 0.204 -1.146 0.274 -2.312 0.209 -3.474 -9.989 2.253 -17.691 6.884 -24.474 12.471 m 6.963 3.186 c 3.188 0.555 6.469 0.063 9.355 -1.4 2.881 -1.474 5.209 -3.841 6.634 -6.747 -7.01 1.655 -11.333 5.01 -15.989 8.147 z" style="fill:url(#radialGradient4191);opacity:1;fill-opacity:1;stroke:none"/>
 <path d="m 17.19 10.635 a 15 15 0 0 0 -6.634 6.747 L 26.545 9.235 A 15 15 0 0 0 17.19 10.635 M 9.243 21.418 A 15 15 0 0 0 9.03 24.892 L 33.508 12.421 a 15 15 0 0 0 -2.918 -1.88 L 9.243 21.418 m 0.302 6.58 a 15 15 0 0 0 1.09 2.811 L 37.37 17.19 a 15 15 0 0 0 -1.647 -2.528 L 9.544 27.999 m 2.738 5.339 a 15 15 0 0 0 2.209 2.241 L 38.967 23.11 A 15 15 0 0 0 38.456 20 L 12.282 33.34 m 5.127 4.122 a 15 15 0 0 0 4.045 1.306 l 15.989 -8.147 a 15 15 0 0 0 1.313 -4.04 L 17.41 37.459" style="fill:url(#radialGradient4201);opacity:1;fill-opacity:1;stroke:none"/>
</svg>
