<svg viewBox="0 0 48 48" xmlns="http://www.w3.org/2000/svg" xmlns:xlink="http://www.w3.org/1999/xlink">
  <linearGradient id="a" gradientTransform="matrix(0 -1 1 0 -.0000015 47.999998)" gradientUnits="userSpaceOnUse" x1="1" x2="47">
    <stop offset="0" stop-color="#e1e1e1"/>
    <stop offset="1" stop-color="#ebebeb"/>
  </linearGradient>
  <radialGradient id="b" cx="22.706" cy="17.865" gradientTransform="matrix(.89100652 -.4539905 .4539905 .89100652 -8.3418365 13.390114)" gradientUnits="userSpaceOnUse" r="15">
    <stop offset="0" stop-color="#a9bee1"/>
    <stop offset="1" stop-color="#93add9"/>
  </radialGradient>
  <radialGradient id="c" cx="22.706" cy="18.07" gradientTransform="matrix(.89100652 -.4539905 .4539905 .89100652 -8.4344118 13.208425)" gradientUnits="userSpaceOnUse" r="15">
    <stop offset="0" stop-color="#9b9b9b"/>
    <stop offset="1" stop-color="#8c8c8c"/>
  </radialGradient>
  <path d="m47 24c0 22.703-.297 23-23 23-22.703 0-23-.297-23-23 0-22.703.297-23 23-23 22.703 0 23 .297 23 23z" fill="url(#a)"/>
  <circle cx="25" cy="25" opacity=".1" r="15"/>
  <path d="m10.556 17.382c-.627 1.276-1.069 2.635-1.313 4.04 7.746-2.428 14.89-6 21.348-10.877-1.28-.625-2.642-1.065-4.046-1.306-5.955 1.277-11.322 3.908-15.989 8.147m-1.522 7.51c.061 1.051.232 2.092.511 3.107 9.346-3.388 18.11-7.759 26.17-13.336-.656-.823-1.397-1.574-2.21-2.242-9.108 2.892-17.302 7-24.478 12.471m1.601 5.918c.463.896 1.014 1.743 1.647 2.528 9.586-3.434 18.761-7.352 26.18-13.338-.267-.971-.631-1.912-1.086-2.81-9.712 3.616-18.696 8.07-26.735 13.62m3.857 4.769c.897.737 1.876 1.368 2.918 1.88 8.321-2.188 16.323-4.758 21.347-10.877.204-1.146.274-2.312.209-3.474-9.989 2.253-17.691 6.884-24.474 12.471m6.963 3.186c3.188.555 6.469.063 9.355-1.4 2.881-1.474 5.209-3.841 6.634-6.747-7.01 1.655-11.333 5.01-15.989 8.147z" fill="url(#b)"/>
  <path d="m17.19 10.635a15 15 0 0 0-6.634 6.747l15.989-8.147a15 15 0 0 0-9.355 1.4m-7.947 10.783a15 15 0 0 0-.213 3.474l24.478-12.471a15 15 0 0 0-2.918-1.88zm.302 6.58a15 15 0 0 0 1.09 2.811l26.735-13.619a15 15 0 0 0-1.647-2.528l-26.179 13.337m2.738 5.339a15 15 0 0 0 2.209 2.241l24.476-12.469a15 15 0 0 0-.511-3.11l-26.174 13.34m5.127 4.122a15 15 0 0 0 4.045 1.306l15.989-8.147a15 15 0 0 0 1.313-4.04l-21.346 10.878" fill="url(#c)"/>
</svg>
