<svg viewBox="0 0 48 48" xmlns="http://www.w3.org/2000/svg" xmlns:xlink="http://www.w3.org/1999/xlink">
  <linearGradient id="a" gradientTransform="matrix(0 -1 1 0 0 48)" gradientUnits="userSpaceOnUse" x1="1" x2="47">
    <stop offset="0" stop-color="#dfe6e9"/>
    <stop offset="1" stop-color="#ebeff1"/>
  </linearGradient>
  <path d="m24 47c-22.703 0-23-.297-23-23 0-22.703.297-23 23-23 22.703 0 23 .297 23 23 0 22.703-.297 23-23 23z" fill="url(#a)"/>
  <path d="m14 15c-2 0-3 1-3 3v10c0 2 1 3 3 3h16v2h-10v-1h-3v1c0 2 1.01 3 3 3h10c1.615 0 3-1 3-3v-2c0-2-1-3-3-3h-16v-10h22v10h-2v3h2c2 0 3-1 3-3v-10c0-2-1-3-3-3zm3 9v3h3v-3z" opacity=".1"/>
  <path d="m13 14c-2 0-3 1-3 3v10c0 2 1 3 3 3h16v2h-10v-1h-3v1c0 2 1.01 3 3 3h10c1.615 0 3-1 3-3v-2c0-2-1-3-3-3h-16v-10h22v10h-2v3h2c2 0 3-1 3-3v-10c0-2-1-3-3-3z" fill="#de161d"/>
  <path d="m16 23h3v3h-3z" fill="#8d9499"/>
</svg>
