<svg viewBox="0 0 48 48" xmlns="http://www.w3.org/2000/svg" xmlns:xlink="http://www.w3.org/1999/xlink">
  <linearGradient id="a" gradientTransform="matrix(0 -1 1 0 -.0000015 47.999998)" gradientUnits="userSpaceOnUse" x1="1" x2="47">
    <stop offset="0" stop-color="#984799"/>
    <stop offset="1" stop-color="#a74ea7"/>
  </linearGradient>
  <path d="m47 24c0 22.703-.297 23-23 23-22.703 0-23-.297-23-23 0-22.703.297-23 23-23 22.703 0 23 .297 23 23z" fill="url(#a)"/>
  <g opacity=".1" transform="translate(1 1)">
    <path d="m11.891 14c-.484 0-.891.395-.891.875 0 6.207 0 12.695 0 18.281 0 .477.406.844.891.844h24.22c.484 0 .898-.367.898-.844 0-6.223 0-12.688 0-18.281 0-.48-.406-.875-.898-.875m-24.22 0" fill-opacity=".392"/>
    <path d="m11.891 14c-.484 0-.891.395-.891.875 0 6.207 0 12.695 0 18.281 0 .477.406.844.891.844h24.22c.484 0 .898-.367.898-.844 0-6.199 0-12.637 0-18.281 0-.48-.406-.875-.898-.875m-23.11 1h2v2h-2m4-2h2v2h-2m4-2h2v2h-2m4-2h2v2h-2m4-2h1.996v2h-1.996m4-2h2v2h-2m-20 1h22v12h-22m0 1h1.996v2h-1.996m4-2h2v2h-2m4-2h2v2h-2m4-2h2v2h-2m4-2h2v2h-2m4-2h2v2h-2m0-2"/>
    <path d="m28.488 24c0 2.484-2.02 4.5-4.5 4.5-2.484 0-4.5-2.02-4.5-4.5 0-2.488 2.02-4.5 4.5-4.5 2.484 0 4.5 2.01 4.5 4.5m0 0" fill-opacity=".392"/>
    <path d="m26 24c0 1.102-.895 2-2 2-1.105 0-2-.898-2-2 0-1.105.895-2 2-2 1.105 0 2 .895 2 2m0 0"/>
  </g>
  <path d="m11.891 14c-.484 0-.891.395-.891.875 0 6.207 0 12.695 0 18.281 0 .477.406.844.891.844h24.22c.484 0 .898-.367.898-.844 0-6.223 0-12.688 0-18.281 0-.48-.406-.875-.898-.875m-24.22 0" fill="#f9f9f9" fill-opacity=".392"/>
  <path d="m11.891 14c-.484 0-.891.395-.891.875 0 6.207 0 12.695 0 18.281 0 .477.406.844.891.844h24.22c.484 0 .898-.367.898-.844 0-6.199 0-12.637 0-18.281 0-.48-.406-.875-.898-.875m-23.11 1h2v2h-2m4-2h2v2h-2m4-2h2v2h-2m4-2h2v2h-2m4-2h1.996v2h-1.996m4-2h2v2h-2m-20 1h22v12h-22m0 1h1.996v2h-1.996m4-2h2v2h-2m4-2h2v2h-2m4-2h2v2h-2m4-2h2v2h-2m4-2h2v2h-2m0-2" fill="#f9f9f9"/>
  <path d="m28.488 24c0 2.484-2.02 4.5-4.5 4.5-2.484 0-4.5-2.02-4.5-4.5 0-2.488 2.02-4.5 4.5-4.5 2.484 0 4.5 2.01 4.5 4.5m0 0" fill="#f9f9f9" fill-opacity=".392"/>
  <path d="m26 24c0 1.102-.895 2-2 2-1.105 0-2-.898-2-2 0-1.105.895-2 2-2 1.105 0 2 .895 2 2m0 0" fill="#f9f9f9"/>
</svg>
