<svg xmlns="http://www.w3.org/2000/svg" viewBox="0 0 48 48">
 <defs>
  <linearGradient id="linearGradient4205" x1="1" x2="47" gradientUnits="userSpaceOnUse">
   <stop style="stop-color:#a6e1e5;stop-opacity:1"/>
   <stop offset="1" style="stop-color:#b6e6ea;stop-opacity:1"/>
  </linearGradient>
 </defs>
 <g>
  
  
  
 </g>
 <g transform="matrix(0,-1,1,0,0,48)" style="fill:url(#linearGradient4205);fill-opacity:1">
  <path d="M 24,1 C 46.703,1 47,1.297 47,24 47,46.703 46.703,47 24,47 1.297,47 1,46.703 1,24 1,1.297 1.297,1 24,1 Z"/>
 </g>
 <path d="m 18.232 16.723 c -0.719 0.029 -1.311 0.337 -1.719 0.646 c -2.41 1.828 -4.514 9.452 -4.514 13.486 c 0 4.03 0.928 3.863 1.732 3.863 0.805 0 1.817 -0.553 2.701 -1.332 2.442 -2.149 3.566 -4.387 5.994 -4.387 1.715 0 3.43 0 5.145 0 2.428 0 3.553 2.237 5.994 4.387 0.884 0.779 1.896 1.332 2.701 1.332 0.805 0 1.732 0.172 1.732 -3.863 0 -4.03 -2.104 -11.659 -4.514 -13.486 -0.652 -0.495 -1.774 -0.987 -3.141 -0.338 -0.916 0.435 -1.735 0.969 -2.932 0.969 -1.609 0 -3.219 0 -4.828 0 -1.197 0 -2.02 -0.533 -2.932 -0.969 -0.512 -0.243 -0.99 -0.326 -1.422 -0.309 z" style="fill:#000;opacity:0.1;fill-opacity:1;stroke:none;fill-rule:evenodd"/>
 <g>
  
 </g>
 <path d="m 17.232,15.723 c -0.719,0.029 -1.311,0.337 -1.719,0.646 -2.41,1.828 -4.514,9.452 -4.514,13.486 0,4.03 0.928,3.863 1.732,3.863 0.805,0 1.817,-0.553 2.701,-1.332 2.442,-2.149 3.566,-4.387 5.994,-4.387 1.715,0 3.43,0 5.145,0 2.428,0 3.553,2.237 5.994,4.387 0.884,0.779 1.896,1.332 2.701,1.332 0.805,0 1.732,0.172 1.732,-3.863 0,-4.03 -2.104,-11.659 -4.514,-13.486 C 31.832,15.874 30.71,15.382 29.343,16.031 28.427,16.466 27.608,17 26.411,17 c -1.609,0 -3.219,0 -4.828,0 -1.197,0 -2.02,-0.533 -2.932,-0.969 -0.512,-0.243 -0.99,-0.326 -1.422,-0.309 z" style="fill:#2d2d2d;fill-opacity:1;stroke:none;fill-rule:evenodd"/>
 <path d="m 24 26 -3 0 0 -3 -2 0 5 -4 5 4 -2 0 0 3 z" style="fill:#fe5c5a;fill-opacity:1;stroke:none;fill-rule:evenodd"/>
</svg>
