<svg viewBox="0 0 48 48" xmlns="http://www.w3.org/2000/svg" xmlns:xlink="http://www.w3.org/1999/xlink">
  <linearGradient id="a" gradientUnits="userSpaceOnUse" x2="0" y1="1" y2="47">
    <stop offset="0" stop-color="#d7e6ff"/>
    <stop offset="1" stop-color="#c3daff"/>
  </linearGradient>
  <path d="m24 1c22.703 0 23 .297 23 23 0 22.703-.297 23-23 23-22.703 0-23-.297-23-23 0-22.703.297-23 23-23z" fill="url(#a)"/>
  <g transform="matrix(1 0 0 .9847953 -.220338 .38916732)">
    <path d="m25.22 13.821c-7.18 0-13 4.365-13 9.75 0 2.692 1.456 5.129 3.809 6.894.588.441 1.176.602 1.924 1.192 1.322 1.042-2.23 4.504-2.23 4.504 0 0 4.901-1.805 7.424-2.56.294-.088.558-.197.832-.296 1.127.526 2.489.825 4.066.825.621 0 .995.112 1.484.258 1.747.523 5.176 1.773 5.176 1.773 0 0-2.557-2.487-1.58-3.12 1.994-1.29 4.098-2.568 4.098-5.512 0-.073-.008-.141-.01-.212.65-1.14 1.01-2.404 1.01-3.748 0-5.385-5.822-9.748-13-9.748z" opacity=".1"/>
    <path d="m23.998 13c-7.18 0-13 4.298-13 9.602 0 2.651 1.456 5.05 3.809 6.789.588.435 1.176.593 1.924 1.174 1.322 1.026-2.23 4.436-2.23 4.436 0 0 4.901-1.778 7.424-2.521.707-.208 1.248-.543 2.145-.543 7.18 0 12.932-4.03 12.932-9.336 0-5.303-5.822-9.6-13-9.6" fill="#5f8dd3" transform="matrix(1 0 0 1.0154395 .220338 -.39517585)"/>
    <path d="m19.22 26.429c0 3.728 2.852 6.685 7.823 6.685.621 0 .995.111 1.484.258 1.747.523 5.175 1.773 5.175 1.773 0 0-2.557-2.487-1.58-3.119 1.994-1.29 4.098-2.569 4.098-5.512 0-4.154-3-6.6-9-6.6-4.971 0-8 2.785-8 6.515z" fill="#f9f9f9"/>
    <ellipse cx="23.72" cy="26.514" fill="#666" rx="1.5" ry="1.523"/>
    <ellipse cx="27.72" cy="26.514" fill="#666" rx="1.5" ry="1.523"/>
    <ellipse cx="31.72" cy="26.514" fill="#666" rx="1.5" ry="1.523"/>
  </g>
</svg>
