<svg viewBox="0 0 48 48" xmlns="http://www.w3.org/2000/svg" xmlns:xlink="http://www.w3.org/1999/xlink">
  <linearGradient id="a" gradientTransform="matrix(0 -1 1 0 -.0000015 47.999998)" gradientUnits="userSpaceOnUse" x1="1" x2="47">
    <stop offset="0" stop-color="#ca251c"/>
    <stop offset="1" stop-color="#db281f"/>
  </linearGradient>
  <path d="m47 24c0 22.703-.297 23-23 23-22.703 0-23-.297-23-23 0-22.703.297-23 23-23 22.703 0 23 .297 23 23z" fill="url(#a)"/>
  <g opacity=".1" transform="translate(1 1)">
    <path d="m23.805 23.574c0-.352-.063-.734-.27-1.027-.406-.59-1.281-.773-1.891-.406-.305.188-.48.516-.574.852-.191.668-.105 1.43.031 2.098.043.219.086.434.145.641.023.074.031.191.082.25.086.113.297.141.426.121.387-.066.293-.703.277-.977-.031-.629-.219-1.246-.035-1.879.074-.266.227-.566.496-.684.242-.105.488.023.582.262.156.387.121.828.219 1.23.031.133.066.27.129.398.016.035.043.109.094.109.125-.012.305-.223.398-.301.301-.25.613-.52.965-.707.164-.086.434-.227.602-.078.047.039.078.082.109.129.199.313 0 .555-.125.844-.168.383-.34.758-.578 1.098-.207.293-.492.551-.656.871-.105.207-.168.43-.121.664.035.188.18.301.371.258.145-.035.242-.156.324-.273.145-.199.281-.41.426-.613.277-.391.609-.762.848-1.184.281-.508.418-1.086.418-1.664 0-.473-.172-1.199-.727-1.297-.102-.02-.223-.008-.324.008-.125.023-.258.066-.375.125-.313.148-.586.375-.816.633-.145.16-.273.363-.449.496"/>
    <path d="m23.285 11.848c-.434.059-.875.055-1.313.121-.84.129-1.641.391-2.426.703-.285.117-.57.242-.848.379-.102.051-.258.09-.34.168-.043.043-.039.141-.047.195-.012.16-.031.313-.047.473-.066.602-.105 1.23-.023 1.832.031.195.102.547.332.586.371.059.656-.395.836-.648.434-.582.906-1.129 1.605-1.391.816-.313 1.754-.383 2.617-.441 2.43-.168 5.078.277 6.867 2.063.254.254.488.527.695.82.805 1.16 1.227 2.477 1.43 3.859.098.652.16 1.309.016 1.957-.258 1.121-.93 2.098-1.707 2.93-.531.57-1.129 1.082-1.75 1.551-.344.262-.734.484-1.059.77-.383.328-.691.742-.934 1.18-.637 1.191-.809 2.605-.621 3.918.039.273.074.543.141.816.02.078.02.215.066.281.102.121.359.188.508.191.156.012.262-.105.301-.25.063-.23.02-.496-.02-.73-.074-.488-.145-.98-.125-1.477.043-.914.398-1.762 1.027-2.426.641-.672 1.512-1.059 2.242-1.621 1.477-1.137 2.797-2.672 3.305-4.492.18-.652.238-1.344.156-2.02-.105-.852-.414-1.699-.707-2.5-.891-2.438-2.422-4.754-4.852-5.867-.965-.441-1.973-.645-3.02-.793-.492-.063-.98-.105-1.473-.129-.273-.012-.574-.043-.844-.008"/>
    <path d="m19.484 27.629c-.473.07-.609.449-.523.879.113.547.547.965.969 1.293 1.098.844 2.508 1.297 3.887 1.238.539-.02 1.125-.113 1.617-.34.266-.121.543-.563.18-.75-.047-.027-.113-.043-.168-.051-.156-.027-.332.043-.48.086-.266.074-.527.152-.801.195-.805.129-1.68-.059-2.352-.535-.539-.387-.98-.898-1.391-1.414-.254-.316-.484-.664-.938-.602"/>
    <path d="m18.871 30.31c-.121.016-.262.008-.363.086-.215.16.023.477.137.617.328.418.758.766 1.191 1.07 1.203.852 2.566 1.34 4.03 1.441.418.031.848 0 1.266-.07.152-.023.34-.035.484-.102.398-.184.281-.938-.074-1.105-.152-.074-.402.023-.566.043-.387.055-.773.063-1.16.051-1.016-.023-2.094-.336-2.98-.828-.348-.195-.664-.43-.965-.695-.18-.16-.367-.422-.602-.5-.109-.039-.285-.02-.398-.008"/>
    <path d="m19.11 32.566c-.168.02-.301.109-.41.234-.078.09-.152.168-.199.281-.246.605.41 1.18.867 1.469.5.32 1.055.559 1.613.758 1.266.449 2.754.738 4.066.336.391-.121.777-.34 1.059-.633.16-.168.273-.422-.02-.527-.176-.063-.387.098-.543.16-.375.152-.762.266-1.16.313-.527.063-1-.051-1.508-.18-.434-.105-.871-.215-1.293-.371-.359-.133-.711-.293-1.027-.512-.094-.07-.203-.125-.281-.215-.254-.281-.441-.609-.707-.879-.117-.117-.281-.254-.461-.234"/>
  </g>
  <path d="m23.805 23.574c0-.352-.063-.734-.27-1.027-.406-.59-1.281-.773-1.891-.406-.305.188-.48.516-.574.852-.191.668-.105 1.43.031 2.098.043.219.086.434.145.641.023.074.031.191.082.25.086.113.297.141.426.121.387-.066.293-.703.277-.977-.031-.629-.219-1.246-.035-1.879.074-.266.227-.566.496-.684.242-.105.488.023.582.262.156.387.121.828.219 1.23.031.133.066.27.129.398.016.035.043.109.094.109.125-.012.305-.223.398-.301.301-.25.613-.52.965-.707.164-.086.434-.227.602-.078.047.039.078.082.109.129.199.313 0 .555-.125.844-.168.383-.34.758-.578 1.098-.207.293-.492.551-.656.871-.105.207-.168.43-.121.664.035.188.18.301.371.258.145-.035.242-.156.324-.273.145-.199.281-.41.426-.613.277-.391.609-.762.848-1.184.281-.508.418-1.086.418-1.664 0-.473-.172-1.199-.727-1.297-.102-.02-.223-.008-.324.008-.125.023-.258.066-.375.125-.313.148-.586.375-.816.633-.145.16-.273.363-.449.496" fill="#fc0"/>
  <path d="m23.285 11.848c-.434.059-.875.055-1.313.121-.84.129-1.641.391-2.426.703-.285.117-.57.242-.848.379-.102.051-.258.09-.34.168-.043.043-.039.141-.047.195-.012.16-.031.313-.047.473-.066.602-.105 1.23-.023 1.832.031.195.102.547.332.586.371.059.656-.395.836-.648.434-.582.906-1.129 1.605-1.391.816-.313 1.754-.383 2.617-.441 2.43-.168 5.078.277 6.867 2.063.254.254.488.527.695.82.805 1.16 1.227 2.477 1.43 3.859.098.652.16 1.309.016 1.957-.258 1.121-.93 2.098-1.707 2.93-.531.57-1.129 1.082-1.75 1.551-.344.262-.734.484-1.059.77-.383.328-.691.742-.934 1.18-.637 1.191-.809 2.605-.621 3.918.039.273.074.543.141.816.02.078.02.215.066.281.102.121.359.188.508.191.156.012.262-.105.301-.25.063-.23.02-.496-.02-.73-.074-.488-.145-.98-.125-1.477.043-.914.398-1.762 1.027-2.426.641-.672 1.512-1.059 2.242-1.621 1.477-1.137 2.797-2.672 3.305-4.492.18-.652.238-1.344.156-2.02-.105-.852-.414-1.699-.707-2.5-.891-2.438-2.422-4.754-4.852-5.867-.965-.441-1.973-.645-3.02-.793-.492-.063-.98-.105-1.473-.129-.273-.012-.574-.043-.844-.008" fill="#fc0"/>
  <path d="m19.484 27.629c-.473.07-.609.449-.523.879.113.547.547.965.969 1.293 1.098.844 2.508 1.297 3.887 1.238.539-.02 1.125-.113 1.617-.34.266-.121.543-.563.18-.75-.047-.027-.113-.043-.168-.051-.156-.027-.332.043-.48.086-.266.074-.527.152-.801.195-.805.129-1.68-.059-2.352-.535-.539-.387-.98-.898-1.391-1.414-.254-.316-.484-.664-.938-.602" fill="#fc0"/>
  <path d="m18.871 30.31c-.121.016-.262.008-.363.086-.215.16.023.477.137.617.328.418.758.766 1.191 1.07 1.203.852 2.566 1.34 4.03 1.441.418.031.848 0 1.266-.07.152-.023.34-.035.484-.102.398-.184.281-.938-.074-1.105-.152-.074-.402.023-.566.043-.387.055-.773.063-1.16.051-1.016-.023-2.094-.336-2.98-.828-.348-.195-.664-.43-.965-.695-.18-.16-.367-.422-.602-.5-.109-.039-.285-.02-.398-.008" fill="#fc0"/>
  <path d="m19.11 32.566c-.168.02-.301.109-.41.234-.078.09-.152.168-.199.281-.246.605.41 1.18.867 1.469.5.32 1.055.559 1.613.758 1.266.449 2.754.738 4.066.336.391-.121.777-.34 1.059-.633.16-.168.273-.422-.02-.527-.176-.063-.387.098-.543.16-.375.152-.762.266-1.16.313-.527.063-1-.051-1.508-.18-.434-.105-.871-.215-1.293-.371-.359-.133-.711-.293-1.027-.512-.094-.07-.203-.125-.281-.215-.254-.281-.441-.609-.707-.879-.117-.117-.281-.254-.461-.234" fill="#fc0"/>
</svg>
