<svg xmlns="http://www.w3.org/2000/svg" viewBox="0 0 48 48">
 <defs>
  <linearGradient id="linearGradient3764" x1="1" x2="47" gradientUnits="userSpaceOnUse" gradientTransform="matrix(0,-1,1,0,-1.5e-6,47.999998)">
   <stop style="stop-color:#4e5e8e;stop-opacity:1"/>
   <stop offset="1" style="stop-color:#55679b;stop-opacity:1"/>
  </linearGradient>
  <linearGradient id="linearGradient4154" y1="36" x2="0" y2="12" gradientUnits="userSpaceOnUse">
   <stop style="stop-color:#f4f4f4;stop-opacity:1"/>
   <stop offset="1" style="stop-color:#f9f9f9;stop-opacity:1"/>
  </linearGradient>
 </defs>
 <g>
  
  
  
 </g>
 <g>
  <path d="m 47,24 C 47,46.703 46.703,47 24,47 1.297,47 1,46.703 1,24 1,1.297 1.297,1 24,1 46.703,1 47,1.297 47,24 z" style="fill:url(#linearGradient3764);fill-opacity:1"/>
 </g>
 <g>
  
 </g>
 <path d="m 14.904 13 c 4.339 5.754 5.576 11.726 5.389 15.734 c -0.267 5.719 -4.98 6.557 -8.293 4.266 c 0 2.143 1.755 4 4.907 4 c 3.505 0 5.735 -3.135 6.093 -6 1 -8 -0.452 -16 -2 -17 -0.845 -0.546 -2.592 -1 -6.096 -1 m 8.096 1 c -0.031 3.57 7.786 4.482 7.756 6.987 -0.022 1.852 -4.704 1.934 -4.672 5.085 c 0.043 4.152 5.892 9.586 11.916 10.928 -3.381 -4.054 -9.613 -10.597 -7.156 -12 8.242 -4.72 0.589 -9.718 -7.844 -10.996" style="fill:#000;opacity:0.1;fill-opacity:1;stroke:none;fill-rule:evenodd"/>
 <path d="m 13.904 12 c 4.339 5.754 5.576 11.726 5.389 15.734 c -0.267 5.719 -4.98 6.557 -8.293 4.266 c 0 2.143 1.755 4 4.907 4 c 3.505 0 5.735 -3.135 6.093 -6 1 -8 -0.452 -16 -2 -17 -0.845 -0.546 -2.592 -1 -6.096 -1 m 8.096 1 c -0.031 3.57 7.786 4.482 7.756 6.987 -0.022 1.852 -4.704 1.934 -4.672 5.085 c 0.043 4.152 5.892 9.586 11.916 10.928 -3.381 -4.054 -9.613 -10.597 -7.156 -12 8.242 -4.72 0.589 -9.718 -7.844 -10.996" style="fill:url(#linearGradient4154);fill-opacity:1;stroke:none;fill-rule:evenodd"/>
</svg>
