<svg xmlns="http://www.w3.org/2000/svg" viewBox="0 0 48 48">
 <defs>
  <linearGradient id="linearGradient3764" x1="1" x2="47" gradientUnits="userSpaceOnUse" gradientTransform="matrix(0,-1,1,0,-1.5e-6,47.999998)">
   <stop style="stop-color:#3d3d3d;stop-opacity:1"/>
   <stop offset="1" style="stop-color:#474747;stop-opacity:1"/>
  </linearGradient>
  <linearGradient id="linearGradient4404" y1="35" x2="0" y2="15" gradientUnits="userSpaceOnUse">
   <stop style="stop-color:#000;stop-opacity:1"/>
   <stop offset="1" style="stop-color:#000;stop-opacity:0.412"/>
  </linearGradient>
 </defs>
 <g>
  
  
  
 </g>
 <g>
  <path d="m 47,24 C 47,46.703 46.703,47 24,47 1.297,47 1,46.703 1,24 1,1.297 1.297,1 24,1 46.703,1 47,1.297 47,24 z" style="fill:url(#linearGradient3764);fill-opacity:1"/>
 </g>
 <path d="m 24,1 0,7 -7,0 0,-5.906 c -0.337,0.108 -0.67,0.221 -1,0.344 l 0,5.563 -7,0 0,-1.438 C 8.654,6.861 8.327,7.183 8,7.501 l 0,0.5 -0.5,0 c -0.318,0.327 -0.64,0.654 -0.938,1 l 1.438,0 0,7 -5.563,0 c -0.123,0.33 -0.236,0.663 -0.344,1 l 5.906,0 0,7 -7,0 c 0,0.334 0.017,0.669 0.031,1 l 6.969,0 0,7 -5.563,0 c 0.127,0.342 0.264,0.666 0.406,1 l 5.156,0 0,7 -0.5,0 c 0.481,0.496 0.976,0.986 1.5,1.438 l 0,-0.438 7,0 0,4.563 c 0.33,0.123 0.663,0.236 1,0.344 l 0,-4.906 7,0 0,6 c 0.334,0 0.669,-0.017 1,-0.031 l 0,-5.969 7,0 0,4.563 c 0.342,-0.127 0.666,-0.264 1,-0.406 l 0,-4.156 6.5,0 c 0.522,-0.476 1.024,-0.978 1.5,-1.5 l 0,-6.5 4.156,0 c 0.142,-0.334 0.279,-0.658 0.406,-1 l -4.563,0 0,-7 5.969,0 c 0.014,-0.331 0.031,-0.666 0.031,-1 l -6,0 0,-7 4.906,0 c -0.108,-0.337 -0.221,-0.67 -0.344,-1 l -4.563,0 0,-7 0.438,0 C 40.983,8.479 40.493,7.984 39.996,7.503 l 0,0.5 -7,0 0,-5.156 c -0.334,-0.142 -0.658,-0.279 -1,-0.406 l 0,5.563 -7,0 0,-6.969 c -0.331,-0.014 -0.666,-0.031 -1,-0.031 z m -15,8 7,0 0,7 -7,0 0,-7 m 8,0 7,0 0,7 -7,0 0,-7 m 8,0 7,0 0,7 -7,0 0,-7 m 8,0 7,0 0,7 -7,0 0,-7 m -24,8 7,0 0,7 -7,0 0,-7 z m 8,0 7,0 0,7 -7,0 0,-7 z m 8,0 7,0 0,7 -7,0 0,-7 z m 8,0 7,0 0,7 -7,0 0,-7 z m -24,8 7,0 0,7 -7,0 0,-7 z m 8,0 7,0 0,7 -7,0 0,-7 z m 8,0 7,0 0,7 -7,0 0,-7 z m 8,0 7,0 0,7 -7,0 0,-7 z m -24,8 7,0 0,7 -7,0 0,-7 z m 8,0 7,0 0,7 -7,0 0,-7 z m 8,0 7,0 0,7 -7,0 0,-7 z m 8,0 7,0 0,7 -7,0 0,-7 z" style="fill:#fff;fill-opacity:0.098"/>
 <g>
  
 </g>
 <path d="m 13 15 0 2 4 0 0 -2 -4 0 z m 0 3 0 2 4 0 0 -2 -4 0 z m 15 0 0 2 4 0 0 -2 -4 0 z m -15 3 0 2 4 0 0 -2 -4 0 z m 5 0 0 2 4 0 0 -2 -4 0 z m 10 0 0 2 4 0 0 -2 -4 0 z m 5 0 0 2 4 0 0 -2 -4 0 z m -20 3 0 2 4 0 0 -2 -4 0 z m 5 0 0 2 4 0 0 -2 -4 0 z m 10 0 0 2 4 0 0 -2 -4 0 z m 5 0 0 2 4 0 0 -2 -4 0 z m -20 3 0 2 4 0 0 -2 -4 0 z m 5 0 0 2 4 0 0 -2 -4 0 z m 5 0 0 2 4 0 0 -2 -4 0 z m 5 0 0 2 4 0 0 -2 -4 0 z m 5 0 0 2 4 0 0 -2 -4 0 z m -20 3 0 2 4 0 0 -2 -4 0 z m 5 0 0 2 4 0 0 -2 -4 0 z m 5 0 0 2 4 0 0 -2 -4 0 z m 5 0 0 2 4 0 0 -2 -4 0 z m 5 0 0 2 4 0 0 -2 -4 0 z m -20 3 0 2 4 0 0 -2 -4 0 z m 5 0 0 2 4 0 0 -2 -4 0 z m 5 0 0 2 4 0 0 -2 -4 0 z m 5 0 0 2 4 0 0 -2 -4 0 z m 5 0 0 2 4 0 0 -2 -4 0 z" style="fill:url(#linearGradient4404);opacity:0.1;fill-opacity:1;stroke:none"/>
 <path d="m 12 14 0 2 4 0 0 -2 -4 0 z m 0 3 0 2 4 0 0 -2 -4 0 z m 15 0 0 2 4 0 0 -2 -4 0 z m -15 3 0 2 4 0 0 -2 -4 0 z m 5 0 0 2 4 0 0 -2 -4 0 z m 10 0 0 2 4 0 0 -2 -4 0 z m 5 0 0 2 4 0 0 -2 -4 0 z m -20 3 0 2 4 0 0 -2 -4 0 z m 5 0 0 2 4 0 0 -2 -4 0 z m 10 0 0 2 4 0 0 -2 -4 0 z m 5 0 0 2 4 0 0 -2 -4 0 z m -20 3 0 2 4 0 0 -2 -4 0 z m 5 0 0 2 4 0 0 -2 -4 0 z m 5 0 0 2 4 0 0 -2 -4 0 z m 5 0 0 2 4 0 0 -2 -4 0 z m 5 0 0 2 4 0 0 -2 -4 0 z m -20 3 0 2 4 0 0 -2 -4 0 z m 5 0 0 2 4 0 0 -2 -4 0 z m 5 0 0 2 4 0 0 -2 -4 0 z m 5 0 0 2 4 0 0 -2 -4 0 z m 5 0 0 2 4 0 0 -2 -4 0 z m -20 3 0 2 4 0 0 -2 -4 0 z m 5 0 0 2 4 0 0 -2 -4 0 z m 5 0 0 2 4 0 0 -2 -4 0 z m 5 0 0 2 4 0 0 -2 -4 0 z m 5 0 0 2 4 0 0 -2 -4 0 z" style="fill:#a4e260;opacity:1;fill-opacity:1;stroke:none"/>
</svg>
