<svg viewBox="0 0 48 48" xmlns="http://www.w3.org/2000/svg" xmlns:xlink="http://www.w3.org/1999/xlink">
  <linearGradient id="a" gradientTransform="matrix(0 -1 1 0 -.0000015 47.999998)" gradientUnits="userSpaceOnUse" x1="1" x2="47">
    <stop offset="0" stop-color="#3d3d3d"/>
    <stop offset="1" stop-color="#474747"/>
  </linearGradient>
  <linearGradient id="b" gradientUnits="userSpaceOnUse" x2="0" y1="35" y2="15">
    <stop offset="0"/>
    <stop offset="1" stop-opacity=".412"/>
  </linearGradient>
  <path d="m47 24c0 22.703-.297 23-23 23-22.703 0-23-.297-23-23 0-22.703.297-23 23-23 22.703 0 23 .297 23 23z" fill="url(#a)"/>
  <path d="m24 1v7h-7v-5.906c-.337.108-.67.221-1 .344v5.563h-7v-1.438c-.346.298-.673.62-1 .938v.5h-.5c-.318.327-.64.654-.938 1h1.438v7h-5.563c-.123.33-.236.663-.344 1h5.906v7h-7c0 .334.017.669.031 1h6.969v7h-5.563c.127.342.264.666.406 1h5.156v7h-.5c.481.496.976.986 1.5 1.438v-.438h7v4.563c.33.123.663.236 1 .344v-4.906h7v6c .334 0 .669-.017 1-.031v-5.969h7v4.563c.342-.127.666-.264 1-.406v-4.156h6.5c.522-.476 1.024-.978 1.5-1.5v-6.5h4.156c.142-.334.279-.658.406-1h-4.563v-7h5.969c.014-.331.031-.666.031-1h-6v-7h4.906c-.108-.337-.221-.67-.344-1h-4.563v-7h .438c-.451-.524-.941-1.019-1.438-1.5v.5h-7v-5.156c-.334-.142-.658-.279-1-.406v5.563h-7v-6.969c-.331-.014-.666-.031-1-.031zm-15 8h7v7h-7zm8 0h7v7h-7zm8 0h7v7h-7zm8 0h7v7h-7zm-24 8h7v7h-7zm8 0h7v7h-7zm8 0h7v7h-7zm8 0h7v7h-7zm-24 8h7v7h-7zm8 0h7v7h-7zm8 0h7v7h-7zm8 0h7v7h-7zm-24 8h7v7h-7zm8 0h7v7h-7zm8 0h7v7h-7zm8 0h7v7h-7z" fill="#fff" fill-opacity=".098"/>
  <path d="m13 15v2h4v-2zm0 3v2h4v-2zm15 0v2h4v-2zm-15 3v2h4v-2zm5 0v2h4v-2zm10 0v2h4v-2zm5 0v2h4v-2zm-20 3v2h4v-2zm5 0v2h4v-2zm10 0v2h4v-2zm5 0v2h4v-2zm-20 3v2h4v-2zm5 0v2h4v-2zm5 0v2h4v-2zm5 0v2h4v-2zm5 0v2h4v-2zm-20 3v2h4v-2zm5 0v2h4v-2zm5 0v2h4v-2zm5 0v2h4v-2zm5 0v2h4v-2zm-20 3v2h4v-2zm5 0v2h4v-2zm5 0v2h4v-2zm5 0v2h4v-2zm5 0v2h4v-2z" fill="url(#b)" opacity=".1"/>
  <path d="m12 14v2h4v-2zm0 3v2h4v-2zm15 0v2h4v-2zm-15 3v2h4v-2zm5 0v2h4v-2zm10 0v2h4v-2zm5 0v2h4v-2zm-20 3v2h4v-2zm5 0v2h4v-2zm10 0v2h4v-2zm5 0v2h4v-2zm-20 3v2h4v-2zm5 0v2h4v-2zm5 0v2h4v-2zm5 0v2h4v-2zm5 0v2h4v-2zm-20 3v2h4v-2zm5 0v2h4v-2zm5 0v2h4v-2zm5 0v2h4v-2zm5 0v2h4v-2zm-20 3v2h4v-2zm5 0v2h4v-2zm5 0v2h4v-2zm5 0v2h4v-2zm5 0v2h4v-2z" fill="#a4e260"/>
</svg>
