<svg xmlns="http://www.w3.org/2000/svg" viewBox="0 0 48 48">
 <defs>
  <linearGradient id="linearGradient4172" y1="47" x2="0" y2="1" gradientUnits="userSpaceOnUse">
   <stop style="stop-color:#fdd06b;stop-opacity:1"/>
   <stop offset="1" style="stop-color:#fdd67f;stop-opacity:1"/>
  </linearGradient>
 </defs>
 <g>
  
  
  
 </g>
 <g style="fill:#fdd06b;fill-opacity:1">
  <path d="m 24 1 c 22.703 0 23 0.297 23 23 c 0 22.703 -0.297 23 -23 23 -22.703 0 -23 -0.297 -23 -23 0 -22.703 0.297 -23 23 -23 z" style="fill:url(#linearGradient4172)"/>
 </g>
 <path d="m 26.16 11.125 c 4.08 3.285 -4.632 3.03 -4.594 5.5 0.015 0.798 0.245 1.175 0.531 1.469 -4.067 0.413 -7.094 2.038 -7.094 2.906 l 0 12 c 0 1 5 3 9 3 l 1 0 c 4 0 9 -2 9 -3 l 0 -2 c 6 0 6 -9 0 -9 l 0 -1 c 0 -0.968 -3.759 -2.847 -8.531 -2.969 -0.275 -1.988 3.999 -2.201 3.844 -3.531 -0.061 -1.064 -0.342 -2.15 -3.156 -3.375 z" style="fill:#000;opacity:0.1;fill-opacity:1;stroke:none"/>
 <g>
  
 </g>
 <g transform="translate(0,-1.005)">
  <g>
   <path d="m 23 18 c -5 0 -9 2 -9 3 l 0 12 c 0 1 5 3 9 3 l 1 0 c 4 0 9 -2 9 -3 l 0 -2 c 6 0 6 -9 0 -9 l 0 -1 c 0 -1 -4 -3 -9 -3 z" style="fill:#855320;fill-opacity:1;stroke:none"/>
   <path d="m 22 19 c -0.494 -0.785 -1.411 -0.759 -1.441 -2.388 -0.038 -2.473 8.682 -2.216 4.602 -5.501 2.815 1.225 3.103 2.316 3.164 3.38 0.183 1.568 -5.836 1.605 -3.236 4.8 z" style="fill:#a79c84;fill-opacity:1;stroke:none"/>
   <path d="m 23,19 c -5,0 -8,1.767 -8,2.656 l 0,10.688 C 15,33.233 19.421,35 23,35 l 1,0 c 3.579,0 8,-1.767 8,-2.656 L 32,30 c 6,0 6,-7 0,-7 l 0,-1.344 C 32,20.767 29,19 24,19 Z m 11,7.5 c 0,0.969 -0.432,1.5 -2,1.5 l 0,-3 c 1.559,0 2,0.461 2,1.5 z" style="fill:#ffffe1;fill-opacity:1;stroke:none"/>
  </g>
  <ellipse cx="23.5" cy="21.5" rx="6.5" ry="1.5" style="fill:#db430d;fill-opacity:1;stroke:none;fill-rule:nonzero"/>
 </g>
</svg>
