<svg xmlns="http://www.w3.org/2000/svg" viewBox="0 0 48 48">
 <defs>
  <linearGradient id="linearGradient4297" y1="1" x2="0" y2="47" gradientUnits="userSpaceOnUse">
   <stop style="stop-color:#5c6894;stop-opacity:1"/>
   <stop offset="1" style="stop-color:#545f88;stop-opacity:1"/>
  </linearGradient>
 </defs>
 <g>
  
  
  
 </g>
 <g style="fill:#65719f;fill-opacity:1">
  <path d="M 24,1 C 46.703,1 47,1.297 47,24 47,46.703 46.703,47 24,47 1.297,47 1,46.703 1,24 1,1.297 1.297,1 24,1 Z" style="fill:url(#linearGradient4297)"/>
 </g>
 <g>
  
 </g>
 <g transform="matrix(1.0769231,0,0,1.0769231,-0.46153875,0.1538453)" style="fill:#000;opacity:0.1">
  <path d="m 25.01 12.314 c -6.634 0 -12.01 5.378 -12.01 12.01 c 0 6.634 5.378 12.01 12.01 12.01 1.696 -0.005 3.372 -0.369 4.918 -1.068 l 7.01 4.73 4.064 -8.09 -3.244 0.65 c 0 0 -0.513 -2.251 -1.223 -4.871 0.322 -1.093 0.487 -2.226 0.49 -3.365 0 -6.634 -5.378 -12.01 -12.01 -12.01 z" transform="matrix(0.92857141,0,0,0.92857141,0.42857169,-0.14285635)" style="opacity:1;fill-opacity:1;stroke:none;fill-rule:nonzero"/>
 </g>
 <g transform="matrix(1.0769231,0,0,1.0769231,-1.4615387,-0.8461547)">
  <circle r="11.154" cy="22.445" cx="23.654" style="fill:#71c837;opacity:1;fill-opacity:1;stroke:none;fill-rule:nonzero"/>
  <path d="m 16.515 31.01 c 0 0 5.354 -0.539 10.707 -5.893 3.569 -3.569 4.169 -10.707 4.169 -10.707 0 0 0.932 0.973 1.319 1.521 0.466 0.66 0.854 1.376 1.192 2.11 0.174 0.377 0.426 1.17 0.426 1.17 0 0 -0.861 4.121 -5.322 8.583 -4.461 4.461 -8.488 5.354 -8.488 5.354 0 0 -1.518 -0.513 -2.219 -0.892 -0.638 -0.345 -1.785 -1.246 -1.785 -1.246 z" style="fill:#ffd42a;stroke:none;fill-rule:evenodd"/>
  <path d="m 22.884 11.322 c -0.326 0.024 -0.976 0.107 -0.976 0.107 0 0 4.734 7.634 6.345 11.642 0.963 2.395 1.427 6.916 1.577 8.651 1.387 -0.925 2.549 -2.15 3.4 -3.583 -0.374 -2.511 -0.943 -5.657 -1.72 -7.628 -1.093 -2.772 -3.845 -8.473 -3.845 -8.473 0 0 -0.556 -0.206 -0.841 -0.286 -0.461 -0.13 -0.928 -0.24 -1.401 -0.319 -0.401 -0.066 -1.362 -0.12 -1.769 -0.141 -0.357 -0.019 -0.514 0.011 -0.77 0.03 z" style="fill:#000;opacity:0.1;fill-opacity:1;stroke:none;fill-rule:nonzero"/>
  <path d="m 21.908 11.429 c 0 0 4.804 6.22 6.357 9.786 1.357 3.115 2.476 9.888 2.476 9.888 l -3.46 0.869 7.445 5.03 3.774 -7.511 -3.01 0.604 c 0 0 -1.592 -7.155 -3.085 -10.474 -1.222 -2.718 -4.737 -7.581 -4.737 -7.581 0 0 -0.556 -0.206 -0.841 -0.286 -0.461 -0.13 -0.928 -0.24 -1.401 -0.319 -0.401 -0.066 -0.808 -0.106 -1.214 -0.127 -0.357 -0.019 -0.715 -0.02 -1.072 -0.002 -0.411 0.021 -1.229 0.125 -1.229 0.125 z" style="fill:#ffd42a;fill-opacity:1;stroke:none;fill-rule:evenodd"/>
 </g>
</svg>
