<svg viewBox="0 0 48 48" xmlns="http://www.w3.org/2000/svg" xmlns:xlink="http://www.w3.org/1999/xlink">
  <linearGradient id="a" gradientTransform="matrix(0 -1 1 0 -.0000015 47.999998)" gradientUnits="userSpaceOnUse" x1="1" x2="47">
    <stop offset="0" stop-color="#225a86"/>
    <stop offset="1" stop-color="#266597"/>
  </linearGradient>
  <path d="m47 24c0 22.703-.297 23-23 23-22.703 0-23-.297-23-23 0-22.703.297-23 23-23 22.703 0 23 .297 23 23z" fill="url(#a)"/>
  <g opacity=".1" transform="translate(1 1)">
    <path d="m31.941 18.309c-.645.152-1.25.461-1.781.844-.871 1.191-2.078 2.152-3.684 2.531-.609-.445-1.352-.961-1.859-1.547-2.324.266-5.523.781-6.074 3.02-.574 2.324.949 5.359 2.188 5.535 1.176.164 4.957-.887 6.785-1.379-1.531-1.195-3.293-1.719-4.254-1.781-1.133-.09-2.109.113-3.125.375 1.484-.957 2.828-1.672 4.156-1.938.996-.188 2.543-.195 4.402.5 2.305.863 2.855 2.094 4.473 2.648 1.07-.168.527-1.355.305-2.18-.148-.449-.266-.789-.313-.938-.082-.25-1.238-3.207-1.406-3.969-.113-.52-.016-1.195.188-1.723m0 0"/>
    <path d="m26.359 13.656c-1.613.68-1.668 1.965-1.758 3.359.676-.613 2.801-1.063 3.375-1.559 1.695-1.469 2.352-4.504 1.996-4.055-1.152 1.457-3.02 1.926-3.613 2.254m0 0"/>
    <path d="m17.477 34.05c0 0-1.602-1.063-1.57-1.402 1.051-5.699-2.574-1.645-2.848.906-.289 2.449.613 5.273.746 5.445.215-2 .406-3.109 3.672-4.953m0 .004"/>
    <path d="m34.988 21.492c-.082-2.121-1.414-3.586-2.32-3.242-.387.145-.641 1.133-.508 1.746.445 2.18 2.277 4.699 1.824 6.855-.34 1.031-3.348 1.672-3.348 1.672 0 0-.059.883-.172 1.484-.137.73-.414 1.309-.414 1.309 0 0 .715.641.742.641.031 0 4.5-2.32 4.195-10.465m0 0"/>
    <path d="m33 27.332c-.742-.301-1-.43-1.969-1.148-5.355-4-10.285-.535-10.188-.57.887-.281 1.891-.535 3.191-.453 1.051.07 2.449.734 4.176 2.168 1.16 1.02 2.918 1.148 4.785.004m.004 0"/>
    <path d="m27.973 15.902c-1.98.637-3.051 1.184-3.371 1.438-.656 1.672.668 2.93 1.875 3.813 1.586-.375 2.906-1.551 3.496-2.844-.309.043-.637-.016-1-.219-.707-.398-1.137-1.355-1-2.188m0 0"/>
    <path d="m30.855 15.586c-.129-.508-.543-1.16-.656-1.16-.102 0-1.203.82-1.488 1.102-.645.645-.332 1.82.383 2.219 1.211.68 2.105-.813 1.762-2.16m0 0"/>
    <path d="m29.914 13.867c.484-.465 1.129-1.227 1.297-2.387.098-1.039-.156-1.68-.469-2.477-.152 1.555-.379 3.285-1.438 5.121-.332.578-.152.473.609-.258m0 0"/>
    <path d="m16.328 29.969c.168.422.156 1.223-.094 2.594-.004.012 0 .02 0 .031.176.246.539.543.902.813 1.25-.582 2.82-1.672 2.719-1.688-.668-.113-2.734-.617-3.527-1.75m0 0"/>
    <path d="m27.754 27.527c-.055 0-.098 0-.219.031-1.555.434-5.527 1.449-6.148 2.125-.242.516-.48 2.574-3.969 3.879-.098.035 2.93 1.992 3.094 2 9.883.414 9.871-6.676 9.742-7-.961.016-1.777-.32-2.406-.938-.031-.031-.059-.063-.094-.094m0 0"/>
  </g>
  <path d="m31.941 18.309c-.645.152-1.25.461-1.781.844-.871 1.191-2.078 2.152-3.684 2.531-.609-.445-1.352-.961-1.859-1.547-2.324.266-5.523.781-6.074 3.02-.574 2.324.949 5.359 2.188 5.535 1.176.164 4.957-.887 6.785-1.379-1.531-1.195-3.293-1.719-4.254-1.781-1.133-.09-2.109.113-3.125.375 1.484-.957 2.828-1.672 4.156-1.938.996-.188 2.543-.195 4.402.5 2.305.863 2.855 2.094 4.473 2.648 1.07-.168.527-1.355.305-2.18-.148-.449-.266-.789-.313-.938-.082-.25-1.238-3.207-1.406-3.969-.113-.52-.016-1.195.188-1.723m0 0" fill="#f9f9f9"/>
  <path d="m26.359 13.656c-1.613.68-1.668 1.965-1.758 3.359.676-.613 2.801-1.063 3.375-1.559 1.695-1.469 2.352-4.504 1.996-4.055-1.152 1.457-3.02 1.926-3.613 2.254m0 0" fill="#f9f9f9"/>
  <path d="m17.477 34.05c0 0-1.602-1.063-1.57-1.402 1.051-5.699-2.574-1.645-2.848.906-.289 2.449.613 5.273.746 5.445.215-2 .406-3.109 3.672-4.953m0 .004" fill="#f9f9f9"/>
  <path d="m34.988 21.492c-.082-2.121-1.414-3.586-2.32-3.242-.387.145-.641 1.133-.508 1.746.445 2.18 2.277 4.699 1.824 6.855-.34 1.031-3.348 1.672-3.348 1.672 0 0-.059.883-.172 1.484-.137.73-.414 1.309-.414 1.309 0 0 .715.641.742.641.031 0 4.5-2.32 4.195-10.465m0 0" fill="#f9f9f9"/>
  <path d="m33 27.332c-.742-.301-1-.43-1.969-1.148-5.355-4-10.285-.535-10.188-.57.887-.281 1.891-.535 3.191-.453 1.051.07 2.449.734 4.176 2.168 1.16 1.02 2.918 1.148 4.785.004m.004 0" fill="#f9f9f9"/>
  <path d="m27.973 15.902c-1.98.637-3.051 1.184-3.371 1.438-.656 1.672.668 2.93 1.875 3.813 1.586-.375 2.906-1.551 3.496-2.844-.309.043-.637-.016-1-.219-.707-.398-1.137-1.355-1-2.188m0 0" fill="#f9f9f9"/>
  <path d="m30.855 15.586c-.129-.508-.543-1.16-.656-1.16-.102 0-1.203.82-1.488 1.102-.645.645-.332 1.82.383 2.219 1.211.68 2.105-.813 1.762-2.16m0 0" fill="#f9f9f9"/>
  <path d="m29.914 13.867c.484-.465 1.129-1.227 1.297-2.387.098-1.039-.156-1.68-.469-2.477-.152 1.555-.379 3.285-1.438 5.121-.332.578-.152.473.609-.258m0 0" fill="#f9f9f9"/>
  <path d="m16.328 29.969c.168.422.156 1.223-.094 2.594-.004.012 0 .02 0 .031.176.246.539.543.902.813 1.25-.582 2.82-1.672 2.719-1.688-.668-.113-2.734-.617-3.527-1.75m0 0" fill="#f9f9f9"/>
  <path d="m27.754 27.527c-.055 0-.098 0-.219.031-1.555.434-5.527 1.449-6.148 2.125-.242.516-.48 2.574-3.969 3.879-.098.035 2.93 1.992 3.094 2 9.883.414 9.871-6.676 9.742-7-.961.016-1.777-.32-2.406-.938-.031-.031-.059-.063-.094-.094m0 0" fill="#f9f9f9"/>
</svg>
