<svg viewBox="0 0 48 48" xmlns="http://www.w3.org/2000/svg" xmlns:xlink="http://www.w3.org/1999/xlink">
  <linearGradient id="a" gradientTransform="matrix(0 -1 1 0 -.0000015 47.999998)" gradientUnits="userSpaceOnUse" x1="1" x2="47">
    <stop offset="0" stop-color="#f88e10"/>
    <stop offset="1" stop-color="#f99824"/>
  </linearGradient>
  <radialGradient id="b" cx="25" cy="22.05" gradientTransform="matrix(2.0691316 -.00000008 .00000005 1.3647464 -26.72829 -3.0881897)" gradientUnits="userSpaceOnUse" r="22.715">
    <stop offset="0" stop-color="#fff" stop-opacity=".416"/>
    <stop offset="1" stop-color="#fff" stop-opacity="0"/>
  </radialGradient>
  <radialGradient id="c" cx="19" cy="35.923" gradientTransform="matrix(1.9818502 -.00000006 .00000008 2.2024963 -18.655157 -43.121246)" gradientUnits="userSpaceOnUse" r="22.706">
    <stop offset="0" stop-color="#c85c06" stop-opacity=".71"/>
    <stop offset="1" stop-color="#ed7807" stop-opacity=".71"/>
  </radialGradient>
  <path d="m47 24c0 22.703-.297 23-23 23-22.703 0-23-.297-23-23 0-22.703.297-23 23-23 22.703 0 23 .297 23 23z" fill="url(#a)"/>
  <path d="m28.746 1.494c-.706 3.594-1.494 7.511-2.238 11.254l-2.105.447-.008.006v10.164c-.208 1.036-.392 1.979-.602 3.02-2.09-.059-4.15-.059-6.16.047l-7.533-20.758c-2.299 1.747-4.26 3.916-5.766 6.393 3.28 4.8 6.611 9.677 9.996 14.641-4.239.487-8.231 1.515-11.838 3.412l-.74-.279c2.586 9.872 11.565 17.16 22.248 17.16 12.703 0 23-10.297 23-23 0-.581-.028-1.156-.07-1.727-4.367 3.038-10.204 4.535-16.93 4.375v-6.551l7.26-14.887c-2.513-1.776-5.397-3.067-8.514-3.721z" opacity=".1"/>
  <path d="m27.59 1.281c-2.176 11.07-4.493 22.664-6.996 35.06l15.541-31.873c-2.557-1.592-5.447-2.698-8.545-3.184zm-6.996 35.06l25.848-7.309c.361-1.62.559-3.301.559-5.03 0-.56-.027-1.113-.066-1.662-8.425 4.489-17.233 9.18-26.34 14zm0 0l16.813 6.346c1.31-.941 2.52-2.01 3.604-3.203-6.662-1.017-13.293-2.025-20.416-3.143zm0 0h-.004v.002c0 0 .002 0 .002 0v .002c0-.001.002-.001.002-.002zm0 .002l3.885 10.648c1.089-.022 2.159-.119 3.205-.287-2.327-3.401-4.598-6.71-7.09-10.361zm-.004 0c0 0-.002 0-.002 0l-13.06 3.705c.704.723 1.455 1.398 2.248 2.023 3.578-1.895 7.05-3.739 10.814-5.727 0 0 0-.002 0-.002zm0-.002l-10.984-30.27c-2.161 1.737-4 3.855-5.418 6.254 5.262 7.689 10.544 15.417 16.398 24.02h.004zm-.004 0l-18.998-7.18c.355 1.548.864 3.036 1.514 4.447 5.745.899 11.399 1.781 17.484 2.732zm.006.008l-4.477 9.266c.817.298 1.658.547 2.516.752.637-3.278 1.266-6.575 1.961-10.02z" fill="url(#c)"/>
  <path d="m46.756 20.664c-4.8 3.718-11.572 5.442-19.475 4.93-9.411-.612-18.352-.351-25.711 3.49 2.315 10.255 11.475 17.916 22.43 17.916 12.703 0 23-10.297 23-23 0-1.134-.086-2.246-.244-3.336z" fill="url(#b)"/>
  <path d="m30 12l-4.752 1.012c-.278 1.398-.571 2.863-.854 4.279v8.148l1.477.075 4.129-8.469v-5.05z" opacity=".1"/>
  <path d="m23.402 12.195l5.598-1.191v18.762c0 2.426-.738 4.238-2.211 5.438-1.465 1.199-3.684 1.801-6.66 1.801h-1.133v-3.793h.871c1.164 0 2.043-.289 2.629-.871.602-.582.898-1.438.898-2.57v-17.57" fill="#f9f9f9"/>
</svg>
