<svg viewBox="0 0 48 48" xmlns="http://www.w3.org/2000/svg" xmlns:xlink="http://www.w3.org/1999/xlink">
  <linearGradient id="a" gradientTransform="matrix(0 -1 1 0 -.0000015 47.999998)" gradientUnits="userSpaceOnUse" x1="1" x2="47">
    <stop offset="0" stop-color="#3d3d3d"/>
    <stop offset="1" stop-color="#474747"/>
  </linearGradient>
  <path d="m47 24c0 22.703-.297 23-23 23-22.703 0-23-.297-23-23 0-22.703.297-23 23-23 22.703 0 23 .297 23 23z" fill="url(#a)"/>
  <path d="m462.79 456.72c-3.845-.017-9.737 1.539-10.531 3.219l-1.469 62.875-54.34 27.875c-4.791 2.457-4.613 3.804-4.563 9.187l4.063 28.75c.002.26.119 1.394.75 2.656.511 1.066 1.577 2.071 3.25 2.906l54.844 29.16c4.817 2.405 12.589 2.405 17.406 0l54.31-29.16c3.36-1.678 3.681-3.662 3.469-6.219l3.875-28.09c.051-5.384-.496-6.532-5.313-8.937l-53.34-26.656-1.531-64.34c-.434-1.926-7.341-3.204-10.875-3.219zm12.563 75.06c15.42 2.991 26.531 11.421 26.531 21.344 0 12.426-17.407 22.5-38.906 22.5-21.5 0-38.938-10.07-38.938-22.5 0-9.915 11.122-18.315 26.531-21.313l-.469 19.531c8.197 6.853 19.422 5.153 25.719-.344l-.469-19.219zm-37.563 13.313c-.11.62-.313 1.236-.313 1.875 0 9.153 11.58 16.562 25.875 16.562 14.295 0 25.906-7.41 25.906-16.562 0-.638-.172-1.255-.281-1.875-.087.494-.096.989-.25 1.469-.345 1.079-.845 2.134-1.5 3.125-.655.991-1.476 1.931-2.406 2.813-.93.882-1.985 1.719-3.156 2.469-1.171.75-2.436 1.404-3.813 2-1.377.596-2.858 1.112-4.406 1.531-1.548.419-3.159.748-4.844.969-1.685.221-3.463.344-5.25.344-1.787 0-3.503-.123-5.188-.344-1.685-.221-3.327-.549-4.875-.969-1.548-.419-2.998-.936-4.375-1.531-1.377-.596-2.673-1.25-3.844-2-1.171-.75-2.257-1.587-3.188-2.469-.93-.882-1.689-1.821-2.344-2.813-.655-.991-1.186-2.046-1.531-3.125-.153-.479-.132-.975-.219-1.469zm-26.28 1.094c6.312 0 11.438 2.946 11.438 6.594 0 3.648-5.126 6.594-11.438 6.594-6.312 0-11.406-2.946-11.406-6.594 0-3.648 5.094-6.594 11.406-6.594zm17.03.938c-.149.841-.406 1.664-.406 2.531 0 12.413 15.707 22.469 35.09 22.469 19.387 0 35.12-10.06 35.12-22.469 0-.866-.257-1.691-.406-2.531-.118.67-.104 1.349-.313 2-.468 1.463-1.174 2.874-2.063 4.219-.888 1.344-1.957 2.648-3.219 3.844-1.262 1.196-2.693 2.296-4.281 3.313-1.588 1.017-3.32 1.942-5.188 2.75-1.867.808-3.869 1.494-5.969 2.063-2.1.569-4.309 1.013-6.594 1.313-2.285.299-4.67.469-7.094.469-2.423 0-4.777-.169-7.06-.469-2.285-.299-4.494-.744-6.594-1.313-2.1-.569-4.07-1.255-5.938-2.063-1.867-.808-3.631-1.733-5.219-2.75-1.588-1.017-3.02-2.117-4.281-3.313-1.262-1.196-2.331-2.499-3.219-3.844-.888-1.344-1.595-2.756-2.063-4.219-.208-.65-.194-1.331-.313-2zm-26.563 3.531c-.041.23-.094.451-.094.688 0 3.392 4.296 6.125 9.594 6.125 5.298 0 9.594-2.733 9.594-6.125 0-.237-.084-.458-.125-.688-.032.183-.037.353-.094.531-.128.4-.289.789-.531 1.156-.243.367-.561.736-.906 1.063-.345.327-.722.628-1.156.906-.434.278-.896.529-1.406.75-.51.221-1.082.407-1.656.563-.574.155-1.157.262-1.781.344-.624.082-1.275.125-1.938.125-.662 0-1.313-.043-1.938-.125-.624-.082-1.239-.188-1.813-.344-.574-.155-1.115-.342-1.625-.563-.51-.221-.972-.472-1.406-.75-.434-.278-.843-.579-1.188-.906-.345-.327-.632-.695-.875-1.063-.243-.367-.435-.756-.563-1.156-.057-.178-.061-.348-.094-.531zm1.531 8.719c17.858 8.04 52.52 24.13 59.63 24.13 7.164 0 30.557-11.379 49.41-19.906-18.542 8.595-43.25 20.02-46.16 22.75-3.093 2.907-2.719 37.875-2.719 37.875 0 0-.368-34.966-3.813-37.969-2.908-2.535-38.697-18.866-56.34-26.875z" opacity=".1" transform="matrix(.15494405 0 0 .15436757 -46.716961 -59.502607)"/>
  <path d="m462.79 456.72c-3.845-.017-9.737 1.539-10.531 3.219l-1.469 62.875-54.34 27.875c-4.791 2.457-4.613 3.804-4.563 9.187l4.063 28.75c.002.26.119 1.394.75 2.656.511 1.066 1.577 2.071 3.25 2.906l54.844 29.16c4.817 2.405 12.589 2.405 17.406 0l54.31-29.16c3.36-1.678 3.681-3.662 3.469-6.219l3.875-28.09c.051-5.384-.496-6.532-5.313-8.937l-53.34-26.656-1.531-64.34c-.434-1.926-7.341-3.204-10.875-3.219zm12.563 75.06c15.42 2.991 26.531 11.421 26.531 21.344 0 12.426-17.407 22.5-38.906 22.5-21.5 0-38.938-10.07-38.938-22.5 0-9.915 11.122-18.315 26.531-21.313l-.469 19.531c8.197 6.853 19.422 5.153 25.719-.344l-.469-19.219zm-37.563 13.313c-.11.62-.313 1.236-.313 1.875 0 9.153 11.58 16.562 25.875 16.562 14.295 0 25.906-7.41 25.906-16.562 0-.638-.172-1.255-.281-1.875-.087.494-.096.989-.25 1.469-.345 1.079-.845 2.134-1.5 3.125-.655.991-1.476 1.931-2.406 2.813-.93.882-1.985 1.719-3.156 2.469-1.171.75-2.436 1.404-3.813 2-1.377.596-2.858 1.112-4.406 1.531-1.548.419-3.159.748-4.844.969-1.685.221-3.463.344-5.25.344-1.787 0-3.503-.123-5.188-.344-1.685-.221-3.327-.549-4.875-.969-1.548-.419-2.998-.936-4.375-1.531-1.377-.596-2.673-1.25-3.844-2-1.171-.75-2.257-1.587-3.188-2.469-.93-.882-1.689-1.821-2.344-2.813-.655-.991-1.186-2.046-1.531-3.125-.153-.479-.132-.975-.219-1.469zm-26.28 1.094c6.312 0 11.438 2.946 11.438 6.594 0 3.648-5.126 6.594-11.438 6.594-6.312 0-11.406-2.946-11.406-6.594 0-3.648 5.094-6.594 11.406-6.594zm17.03.938c-.149.841-.406 1.664-.406 2.531 0 12.413 15.707 22.469 35.09 22.469 19.387 0 35.12-10.06 35.12-22.469 0-.866-.257-1.691-.406-2.531-.118.67-.104 1.349-.313 2-.468 1.463-1.174 2.874-2.063 4.219-.888 1.344-1.957 2.648-3.219 3.844-1.262 1.196-2.693 2.296-4.281 3.313-1.588 1.017-3.32 1.942-5.188 2.75-1.867.808-3.869 1.494-5.969 2.063-2.1.569-4.309 1.013-6.594 1.313-2.285.299-4.67.469-7.094.469-2.423 0-4.777-.169-7.06-.469-2.285-.299-4.494-.744-6.594-1.313-2.1-.569-4.07-1.255-5.938-2.063-1.867-.808-3.631-1.733-5.219-2.75-1.588-1.017-3.02-2.117-4.281-3.313-1.262-1.196-2.331-2.499-3.219-3.844-.888-1.344-1.595-2.756-2.063-4.219-.208-.65-.194-1.331-.313-2zm-26.563 3.531c-.041.23-.094.451-.094.688 0 3.392 4.296 6.125 9.594 6.125 5.298 0 9.594-2.733 9.594-6.125 0-.237-.084-.458-.125-.688-.032.183-.037.353-.094.531-.128.4-.289.789-.531 1.156-.243.367-.561.736-.906 1.063-.345.327-.722.628-1.156.906-.434.278-.896.529-1.406.75-.51.221-1.082.407-1.656.563-.574.155-1.157.262-1.781.344-.624.082-1.275.125-1.938.125-.662 0-1.313-.043-1.938-.125-.624-.082-1.239-.188-1.813-.344-.574-.155-1.115-.342-1.625-.563-.51-.221-.972-.472-1.406-.75-.434-.278-.843-.579-1.188-.906-.345-.327-.632-.695-.875-1.063-.243-.367-.435-.756-.563-1.156-.057-.178-.061-.348-.094-.531zm1.531 8.719c17.858 8.04 52.52 24.13 59.63 24.13 7.164 0 30.557-11.379 49.41-19.906-18.542 8.595-43.25 20.02-46.16 22.75-3.093 2.907-2.719 37.875-2.719 37.875 0 0-.368-34.966-3.813-37.969-2.908-2.535-38.697-18.866-56.34-26.875z" fill="#e8e8d9" transform="matrix(.15494405 0 0 .15436757 -47.716961 -60.502607)"/>
</svg>
