<svg xmlns="http://www.w3.org/2000/svg" viewBox="0 0 48 48">
 <defs>
  <linearGradient id="linearGradient3764" x1="1" x2="47" gradientUnits="userSpaceOnUse" gradientTransform="matrix(0,-1,1,0,-1.5e-6,47.999998)">
   <stop style="stop-color:#575757;stop-opacity:1"/>
   <stop offset="1" style="stop-color:#616161;stop-opacity:1"/>
  </linearGradient>
 </defs>
 <g>
  
  
  
 </g>
 <g>
  <path d="m 47,24 C 47,46.703 46.703,47 24,47 1.297,47 1,46.703 1,24 1,1.297 1.297,1 24,1 46.703,1 47,1.297 47,24 z" style="fill:url(#linearGradient3764);fill-opacity:1"/>
 </g>
 <g>
  <g>
   <!-- color: #616161 -->
  </g>
 </g>
 <g>
  
 </g>
 <path d="m 25 12 a 6 6 0 0 0 -6 6 6 6 0 0 0 6 6 6 6 0 0 0 6 -6 6 6 0 0 0 -6 -6 z m -7 12 a 6 6 0 0 0 -6 6 6 6 0 0 0 6 6 6 6 0 0 0 6 -6 6 6 0 0 0 -6 -6 z m 14 0 a 6 6 0 0 0 -6 6 6 6 0 0 0 6 6 6 6 0 0 0 6 -6 6 6 0 0 0 -6 -6 z" style="fill:#000;opacity:0.1;fill-opacity:1;stroke:none"/>
 <circle r="6" cy="29" cx="17" style="fill:#de8078;opacity:1;fill-opacity:1;stroke:none"/>
 <circle cx="31" cy="29" r="6" style="fill:#c3a0d4;opacity:1;fill-opacity:1;stroke:none"/>
 <circle cx="24" cy="17" r="6" style="fill:#7cb971;opacity:1;fill-opacity:1;stroke:none"/>
</svg>
