<svg viewBox="0 0 48 48" xmlns="http://www.w3.org/2000/svg" xmlns:xlink="http://www.w3.org/1999/xlink">
  <linearGradient id="a" gradientTransform="matrix(0 -1 1 0 -.0000015 47.999998)" gradientUnits="userSpaceOnUse" x1="1" x2="47">
    <stop offset="0" stop-color="#575757"/>
    <stop offset="1" stop-color="#616161"/>
  </linearGradient>
  <path d="m47 24c0 22.703-.297 23-23 23-22.703 0-23-.297-23-23 0-22.703.297-23 23-23 22.703 0 23 .297 23 23z" fill="url(#a)"/>
  <path d="m25 12a6 6 0 0 0-6 6 6 6 0 0 0  6 6 6 6 0 0 0  6-6 6 6 0 0 0-6-6zm-7 12a6 6 0 0 0-6 6 6 6 0 0 0  6 6 6 6 0 0 0  6-6 6 6 0 0 0-6-6zm14 0a6 6 0 0 0-6 6 6 6 0 0 0  6 6 6 6 0 0 0  6-6 6 6 0 0 0-6-6z" opacity=".1"/>
  <circle cx="17" cy="29" fill="#de8078" r="6"/>
  <circle cx="31" cy="29" fill="#c3a0d4" r="6"/>
  <circle cx="24" cy="17" fill="#7cb971" r="6"/>
</svg>
