<svg viewBox="0 0 48 48" xmlns="http://www.w3.org/2000/svg" xmlns:xlink="http://www.w3.org/1999/xlink">
  <linearGradient id="a" gradientTransform="matrix(0 -1 1 0 -.0000015 47.999998)" gradientUnits="userSpaceOnUse" x1="1" x2="47">
    <stop offset="0" stop-color="#cc9144"/>
    <stop offset="1" stop-color="#d09a53"/>
  </linearGradient>
  <path d="m47 24c0 22.703-.297 23-23 23-22.703 0-23-.297-23-23 0-22.703.297-23 23-23 22.703 0 23 .297 23 23z" fill="url(#a)"/>
  <path d="m27.01 12l-5.418 2.055-3.59 11.883 7.086-2.313-2.18 8.168-1.77-.766 1.77 4.973 4.441-4.04-2.23.262 4.883-12.941-7.531 2.574m4.539-9.859" opacity=".1" transform="translate(1 1)"/>
  <path d="m27.01 12l-5.418 2.055-3.59 11.883 7.086-2.313-2.18 8.168-1.77-.766 1.77 4.973 4.441-4.04-2.23.262 4.883-12.941-7.531 2.574m4.539-9.859" fill="#fff"/>
</svg>
