<svg viewBox="0 0 48 48" xmlns="http://www.w3.org/2000/svg" xmlns:xlink="http://www.w3.org/1999/xlink">
  <linearGradient id="a" gradientTransform="matrix(0 -1 1 0 -.0000015 47.999998)" gradientUnits="userSpaceOnUse" x1="1" x2="47">
    <stop offset="0" stop-color="#e4e4e4"/>
    <stop offset="1" stop-color="#eee"/>
  </linearGradient>
  <path d="m47 24c0 22.703-.297 23-23 23-22.703 0-23-.297-23-23 0-22.703.297-23 23-23 22.703 0 23 .297 23 23z" fill="url(#a)"/>
  <path d="m18 15v4h-4v2h4.756c-1.097 1.37-1.756 3.106-1.756 5 0 4.093 3.055 7.441 7 7.932v2.064h1.996v-2.064c3.956-.49 7-3.851 7-7.932 0-1.896-.659-3.632-1.756-5h4.756v-2h-4v-4h-14zm2.096 6h9.809c1.293 1.269 2.096 3.037 2.096 5 0 3.879-3.121 7-7 7-3.879 0-7-3.121-7-7 0-1.962.802-3.731 2.096-5z" fill-rule="evenodd" opacity=".1" transform=""/>
  <path d="m24 17c-4.434 0-8 3.578-8 8 0 4.434 3.582 8 8 8 4.43 0 8-3.582 8-8 0-4.43-3.578-8-8-8m0 1c3.875 0 7 3.121 7 7 0 3.879-3.121 7-7 7-3.879 0-7-3.121-7-7 0-3.875 3.121-7 7-7m0 0" fill="#2d2d2d" fill-rule="evenodd"/>
  <path d="m17 14v4h-4v2h22v-2h-4v-4m-14 0" fill="#2d2d2d"/>
  <path d="m23 32.396h1.996v2.6h-1.996" fill="#2d2d2d"/>
</svg>
