<svg xmlns="http://www.w3.org/2000/svg" viewBox="0 0 48 48">
 <defs>
  <linearGradient id="linearGradient3764" x1="1" x2="47" gradientUnits="userSpaceOnUse" gradientTransform="matrix(0,-1,1,0,-1.5e-6,47.999998)">
   <stop style="stop-color:#e4e4e4;stop-opacity:1"/>
   <stop offset="1" style="stop-color:#eee;stop-opacity:1"/>
  </linearGradient>
 </defs>
 <g>
  
  
  
 </g>
 <g>
  <path d="m 47,24 C 47,46.703 46.703,47 24,47 1.297,47 1,46.703 1,24 1,1.297 1.297,1 24,1 46.703,1 47,1.297 47,24 z" style="fill:url(#linearGradient3764);fill-opacity:1"/>
 </g>
 <g>
  <g>
   <g transform="translate(1,1)">
    <g style="opacity:0.1">
     <!-- color: #eeeeee -->
     <g>
      <path d="m 18 15 l 0 4 l -4 0 l 0 2 l 4.756 0 c -1.097 1.37 -1.756 3.106 -1.756 5 c 0 4.093 3.055 7.441 7 7.932 l 0 2.064 l 1.996 0 l 0 -2.064 c 3.956 -0.49 7 -3.851 7 -7.932 c 0 -1.896 -0.659 -3.632 -1.756 -5 l 4.756 0 l 0 -2 l -4 0 l 0 -4 l -14 0 z m 2.096 6 l 9.809 0 c 1.293 1.269 2.096 3.037 2.096 5 c 0 3.879 -3.121 7 -7 7 c -3.879 0 -7 -3.121 -7 -7 c 0 -1.962 0.802 -3.731 2.096 -5 z" transform="translate(-1,-1)" style="fill:#000;fill-opacity:1;stroke:none;fill-rule:evenodd"/>
     </g>
    </g>
   </g>
  </g>
 </g>
 <g>
  <g>
   <!-- color: #eeeeee -->
   <g>
    <path d="m 24 17 c -4.434 0 -8 3.578 -8 8 c 0 4.434 3.582 8 8 8 c 4.43 0 8 -3.582 8 -8 c 0 -4.43 -3.578 -8 -8 -8 m 0 1 c 3.875 0 7 3.121 7 7 c 0 3.879 -3.121 7 -7 7 c -3.879 0 -7 -3.121 -7 -7 c 0 -3.875 3.121 -7 7 -7 m 0 0" style="fill:#2d2d2d;fill-opacity:1;stroke:none;fill-rule:evenodd"/>
    <path d="m 17 14 l 0 4 l -4 0 l 0 2 l 22 0 l 0 -2 l -4 0 l 0 -4 m -14 0" style="fill:#2d2d2d;fill-opacity:1;stroke:none;fill-rule:nonzero"/>
    <path d="m 23 32.396 1.996 0 0 2.6 -1.996 0" style="fill:#2d2d2d;fill-opacity:1;stroke:none;fill-rule:nonzero"/>
   </g>
  </g>
 </g>
 <g>
  
 </g>
</svg>
