<svg viewBox="0 0 48 48" xmlns="http://www.w3.org/2000/svg" xmlns:xlink="http://www.w3.org/1999/xlink">
  <linearGradient id="a" gradientUnits="userSpaceOnUse" x2="0" y1="47" y2="1">
    <stop offset="0" stop-color="#9ddfae"/>
    <stop offset="1" stop-color="#ace4ba"/>
  </linearGradient>
  <path d="m24 1c22.703 0 23 .297 23 23 0 22.703-.297 23-23 23-22.703 0-23-.297-23-23 0-22.703.297-23 23-23z" fill="url(#a)"/>
  <path d="m25 12a3 3 0 0 0-3 3 3 3 0 0 0  .424 1.529l-1.384 1.661a3 3 0 0 0-1.04-.19 3 3 0 0 0-3 3 3 3 0 0 0  .424 1.529l-1.384 1.661a3 3 0 0 0-1.04-.19 3 3 0 0 0-3 3 3 3 0 0 0  3 3 3 3 0 0 0  3-3 3 3 0 0 0-.424-1.529l1.383-1.658a3 3 0 0 0 1.041.187 3 3 0 0 0  1.04-.189l1.385 1.66a3 3 0 0 0-.425 1.529 3 3 0 0 0  .424 1.529l-1.384 1.661a3 3 0 0 0-1.04-.19 3 3 0 0 0-3 3 3 3 0 0 0  3 3 3 3 0 0 0  3-3 3 3 0 0 0-.424-1.529l1.383-1.658a3 3 0 0 0 1.041.187 3 3 0 0 0  1.04-.189l1.385 1.66a3 3 0 0 0-.425 1.529 3 3 0 0 0  3 3 3 3 0 0 0  3-3 3 3 0 0 0-3-3 3 3 0 0 0-1.041.189l-1.383-1.66a3 3 0 0 0  .424-1.529 3 3 0 0 0-3-3 3 3 0 0 0-1.041.19l-1.383-1.661a3 3 0 0 0  .424-1.529 3 3 0 0 0-.424-1.529l1.383-1.658a3 3 0 0 0 1.041.187 3 3 0 0 0  1.04-.189l1.385 1.66a3 3 0 0 0-.425 1.529 3 3 0 0 0  3 3 3 3 0 0 0  1.039-.189l1.385 1.66a3 3 0 0 0-.424 1.529 3 3 0 0 0  3 3 3 3 0 0 0  3-3 3 3 0 0 0-3-3 3 3 0 0 0-1.039.189l-1.385-1.66a3 3 0 0 0  .424-1.529 3 3 0 0 0-3-3 3 3 0 0 0-1.039.19l-1.385-1.661a3 3 0 0 0  .424-1.529 3 3 0 0 0-3-3" opacity=".1"/>
  <path d="m24 11a3 3 0 0 0-3 3 3 3 0 0 0  3 3 3 3 0 0 0  3-3 3 3 0 0 0-3-3zm-5 6a3 3 0 0 0-3 3 3 3 0 0 0  3 3 3 3 0 0 0  3-3 3 3 0 0 0-3-3zm10 0a3 3 0 0 0-3 3 3 3 0 0 0  3 3 3 3 0 0 0  3-3 3 3 0 0 0-3-3zm-15 6a3 3 0 0 0-3 3 3 3 0 0 0  3 3 3 3 0 0 0  3-3 3 3 0 0 0-3-3zm10 0a3 3 0 0 0-3 3 3 3 0 0 0  3 3 3 3 0 0 0  3-3 3 3 0 0 0-3-3zm10 0a3 3 0 0 0-3 3 3 3 0 0 0  3 3 3 3 0 0 0  3-3 3 3 0 0 0-3-3zm-15 6a3 3 0 0 0-3 3 3 3 0 0 0  3 3 3 3 0 0 0  3-3 3 3 0 0 0-3-3zm10 0a3 3 0 0 0-3 3 3 3 0 0 0  3 3 3 3 0 0 0  3-3 3 3 0 0 0-3-3z" fill="#358abf"/>
  <path d="m24 12.438l-10.768 12.922 1.535 1.281 4.232-5.078 3.699 4.438-4.467 5.359 1.535 1.281 4.232-5.078 4.232 5.078 1.535-1.281-9.467-11.359 3.699-4.438 9.531 11.438.938-2-10.469-12.563" fill="#358abf" fill-rule="evenodd"/>
</svg>
