<svg xmlns="http://www.w3.org/2000/svg" viewBox="0 0 48 48">
 <defs>
  <linearGradient id="linearGradient3764" x1="1" x2="47" gradientUnits="userSpaceOnUse" gradientTransform="matrix(0,-1,1,0,-1.5e-6,47.999998)">
   <stop style="stop-color:#01a2d7;stop-opacity:1"/>
   <stop offset="1" style="stop-color:#01b0ec;stop-opacity:1"/>
  </linearGradient>
 </defs>
 <g>
  
  
  
 </g>
 <g>
  <path d="m 47,24 C 47,46.703 46.703,47 24,47 1.297,47 1,46.703 1,24 1,1.297 1.297,1 24,1 46.703,1 47,1.297 47,24 z" style="fill:url(#linearGradient3764);fill-opacity:1"/>
 </g>
 <g>
  <g>
   <g transform="translate(1,1)">
    <g style="opacity:0.1">
     <!-- color: #01b0ec -->
     <g>
      <path d="m 21.06 9 c -0.449 3.715 -2.59 4.586 -5.52 2.273 c 1 3.602 -0.641 5.223 -4.23 4.207 c 2.305 2.941 1.41 5.059 -2.297 5.496 c 3.254 1.836 3.246 4.141 -0.012 5.965 c 3.715 0.449 4.586 2.59 2.273 5.52 c 3.602 -1.012 5.223 0.637 4.207 4.23 c 2.941 -2.309 5.059 -1.41 5.496 2.297 c 1.836 -3.258 4.141 -3.246 5.965 0.008 c 0.445 -3.711 2.59 -4.582 5.52 -2.273 c -1.01 -3.602 0.637 -5.223 4.23 -4.207 c -2.309 -2.941 -1.41 -5.059 2.297 -5.496 c -3.258 -1.832 -3.246 -4.141 0.008 -5.961 c -3.711 -0.445 -4.582 -2.59 -2.273 -5.52 c -3.602 1 -5.223 -0.641 -4.207 -4.23 c -2.941 2.305 -5.059 1.41 -5.496 -2.297 c -1.832 3.254 -4.141 3.246 -5.961 -0.012 m 0 0" style="fill:#000;fill-opacity:1;stroke:none;fill-rule:nonzero"/>
     </g>
    </g>
   </g>
  </g>
 </g>
 <g>
  <g>
   <!-- color: #01b0ec -->
   <g>
    <path d="m 21.06,9 c -0.449,3.715 -2.59,4.586 -5.52,2.273 1,3.602 -0.641,5.223 -4.23,4.207 2.305,2.941 1.41,5.059 -2.297,5.496 3.254,1.836 3.246,4.141 -0.012,5.965 3.715,0.449 4.586,2.59 2.273,5.52 3.602,-1.012 5.223,0.637 4.207,4.23 2.941,-2.309 5.059,-1.41 5.496,2.297 1.836,-3.258 4.141,-3.246 5.965,0.008 0.445,-3.711 2.59,-4.582 5.52,-2.273 -1.01,-3.602 0.637,-5.223 4.23,-4.207 -2.309,-2.941 -1.41,-5.059 2.297,-5.496 -3.258,-1.832 -3.246,-4.141 0.008,-5.961 -3.711,-0.445 -4.582,-2.59 -2.273,-5.52 -3.602,1 -5.223,-0.641 -4.207,-4.23 -2.941,2.305 -5.059,1.41 -5.496,-2.297 C 25.189,12.266 22.88,12.258 21.06,9 m 0,0" style="fill:#ffc845;fill-opacity:1;stroke:none;fill-rule:nonzero"/>
    <path d="m 32,20 c 0.02,1.809 -0.547,3.492 -1.484,4.406 -0.938,0.914 -2.098,0.914 -3.03,0 -0.938,-0.914 -1.504,-2.598 -1.477,-4.406 -0.023,-1.809 0.547,-3.492 1.477,-4.406 0.941,-0.914 2.094,-0.914 3.03,0 C 31.454,16.508 32.02,18.192 32,20 m 0,0" style="fill:#f9f9f9;fill-opacity:1;stroke:none;fill-rule:nonzero"/>
    <path d="m 22,20 c 0.02,1.809 -0.547,3.492 -1.484,4.406 -0.938,0.914 -2.098,0.914 -3.03,0 -0.938,-0.914 -1.504,-2.598 -1.477,-4.406 -0.023,-1.809 0.547,-3.492 1.477,-4.406 0.941,-0.914 2.094,-0.914 3.03,0 C 21.454,16.508 22.02,18.192 22,20 m 0,0" style="fill:#f9f9f9;fill-opacity:1;stroke:none;fill-rule:nonzero"/>
    <path d="m 31 22 c 0.012 0.723 -0.363 1.398 -0.988 1.762 -0.625 0.367 -1.398 0.367 -2.023 0 -0.625 -0.363 -1 -1.039 -0.988 -1.762 -0.012 -0.723 0.363 -1.398 0.988 -1.762 0.625 -0.367 1.398 -0.367 2.023 0 0.625 0.363 1 1.039 0.988 1.762 m 0 0" style="fill:#2d2d2d;fill-opacity:1;stroke:none;fill-rule:nonzero"/>
    <path d="m 21 22 c 0.012 0.723 -0.363 1.398 -0.988 1.762 -0.625 0.367 -1.398 0.367 -2.023 0 -0.625 -0.363 -1 -1.039 -0.988 -1.762 -0.012 -0.723 0.363 -1.398 0.988 -1.762 0.625 -0.367 1.398 -0.367 2.023 0 0.625 0.363 1 1.039 0.988 1.762 m 0 0" style="fill:#2d2d2d;fill-opacity:1;stroke:none;fill-rule:nonzero"/>
    <path d="m 18 28 c 3 1.996 9 1.996 12 0 -0.996 7 -10.996 7 -12 0 m 0 0" style="fill:#cf2800;fill-opacity:1;stroke:none;fill-rule:nonzero"/>
   </g>
  </g>
 </g>
 <g>
  
 </g>
</svg>
