<svg xmlns="http://www.w3.org/2000/svg" viewBox="0 0 48 48">
 <defs>
  <linearGradient id="linearGradient3764" x1="1" x2="47" gradientUnits="userSpaceOnUse" gradientTransform="matrix(0,-1,1,0,-1.5e-6,47.999998)">
   <stop style="stop-color:#acacac;stop-opacity:1"/>
   <stop offset="1" style="stop-color:#b6b6b6;stop-opacity:1"/>
  </linearGradient>
 </defs>
 <g>
  
  
  
 </g>
 <g>
  <path d="m 47,24 C 47,46.703 46.703,47 24,47 1.297,47 1,46.703 1,24 1,1.297 1.297,1 24,1 46.703,1 47,1.297 47,24 z" style="fill:url(#linearGradient3764);fill-opacity:1"/>
 </g>
 <g>
  <g>
   <g transform="translate(1,1)">
    <g style="opacity:0.1">
     <!-- color: #b6b6b6 -->
    </g>
   </g>
  </g>
 </g>
 <g>
  
 </g>
 <path d="m 32 14 c -1.411 0 -3 1.512 -3.5 4 -0.478 2.379 -1.5 4 -3.5 4 l -0.621 0 c 0.401 0.338 0.785 0.715 1.115 1.193 0.889 1.288 1.372 3.137 1.449 5.703 0.474 0.325 0.889 0.721 1.223 1.17 c 0.523 -1.386 0.834 -3.052 0.834 -5.066 c 0 -4 1 -6 3 -6 4 0 3 6 7 6 0 -1 -2 -1 -2 -5 0 -4.39 -1.5 -6 -5 -6 z m -10.4 7.5 c -1.6 0 -2.592 0.274 -2.85 0.75 2.218 2.119 4.185 3.219 4.24 7.096 a 3.5 3.5 0 0 0 -1.99 3.154 3.5 3.5 0 0 0 3.5 3.5 3.5 3.5 0 0 0 3.5 -3.5 3.5 3.5 0 0 0 -2.01 -3.162 c -0.042 -5.434 -2.02 -6.824 -4.393 -7.838 m -3.74 1.203 c -2.605 1.342 -4.859 4.394 -4.859 7.297 c 0 0.555 0.069 1.07 0.184 1.553 a 1 1 0 0 0 -0.684 0.947 a 1 1 0 0 0 1 1 1 1 0 0 0 0.467 -0.117 c 1.124 1.705 3.076 2.617 5.03 2.617 0.79 0 1.606 -0.08 2.414 -0.246 -0.866 -0.822 -1.414 -1.975 -1.414 -3.254 c 0.001 -1.441 0.804 -2.666 1.938 -3.504 -0.082 -1.5 -0.442 -2.448 -1.053 -3.254 -0.667 -0.88 -1.673 -1.668 -2.826 -2.77 -0.083 -0.079 -0.149 -0.171 -0.199 -0.27 z m -1.859 7.297 c 0.552 0 1 0.448 1 1 0 0.552 -0.448 1 -1 1 -0.552 0 -1 -0.448 -1 -1 0 -0.552 0.448 -1 1 -1 z m 8.5 1 a 1.5 1.5 0 0 1 1.5 1.5 1.5 1.5 0 0 1 -1.5 1.5 1.5 1.5 0 0 1 -1.5 -1.5 1.5 1.5 0 0 1 1.5 -1.5" style="fill:#000;opacity:0.1;fill-opacity:1;stroke:none"/>
 <path d="m 20.6 20.5 c -1.6 0 -2.592 0.274 -2.85 0.75 2.218 2.119 4.185 3.219 4.24 7.096 a 3.5 3.5 0 0 0 -1.99 3.154 3.5 3.5 0 0 0 3.5 3.5 3.5 3.5 0 0 0 3.5 -3.5 3.5 3.5 0 0 0 -2.01 -3.162 c -0.042 -5.434 -2.02 -6.824 -4.393 -7.838 m 2.9 9.5 a 1.5 1.5 0 0 1 1.5 1.5 1.5 1.5 0 0 1 -1.5 1.5 1.5 1.5 0 0 1 -1.5 -1.5 1.5 1.5 0 0 1 1.5 -1.5" style="fill:#f0f0f0;opacity:1;fill-opacity:1;stroke:none"/>
 <path d="m 31 13 c -1.411 0 -3 1.512 -3.5 4 -0.478 2.379 -1.5 4 -3.5 4 l -0.621 0 c 0.401 0.338 0.785 0.715 1.115 1.193 0.889 1.288 1.372 3.137 1.449 5.703 0.474 0.325 0.889 0.721 1.223 1.17 c 0.523 -1.386 0.834 -3.052 0.834 -5.066 c 0 -4 1 -6 3 -6 4 0 3 6 7 6 0 -1 -2 -1 -2 -5 0 -4.39 -1.5 -6 -5 -6 z" style="fill:#a55b5b;opacity:1;fill-opacity:1;stroke:none"/>
 <path d="m 16.859 21.703 c -2.605 1.342 -4.859 4.394 -4.859 7.297 c 0 0.555 0.069 1.07 0.184 1.553 a 1 1 0 0 0 -0.684 0.947 a 1 1 0 0 0 1 1 1 1 0 0 0 0.467 -0.117 c 1.124 1.705 3.076 2.617 5.03 2.617 0.79 0 1.606 -0.08 2.414 -0.246 -0.866 -0.822 -1.414 -1.975 -1.414 -3.254 c 0.001 -1.441 0.804 -2.666 1.938 -3.504 -0.082 -1.5 -0.442 -2.448 -1.053 -3.254 -0.667 -0.88 -1.673 -1.668 -2.826 -2.77 -0.083 -0.079 -0.149 -0.171 -0.199 -0.27 z m -1.859 7.297 c 0.552 0 1 0.448 1 1 0 0.552 -0.448 1 -1 1 -0.552 0 -1 -0.448 -1 -1 0 -0.552 0.448 -1 1 -1 z" style="fill:#875e92;opacity:1;fill-opacity:0.996;stroke:none"/>
</svg>
