<svg xmlns="http://www.w3.org/2000/svg" viewBox="0 0 48 48">
 <defs>
  <linearGradient id="linearGradient3908" y1="47" x2="0" y2="1" gradientUnits="userSpaceOnUse">
   <stop style="stop-color:#e5cd9d;stop-opacity:1"/>
   <stop offset="1" style="stop-color:#e9d5ad;stop-opacity:1"/>
  </linearGradient>
 </defs>
 <g>
  
  
  
 </g>
 <g>
  <path d="m 24 1 c 22.703 0 23 0.297 23 23 c 0 22.703 -0.297 23 -23 23 -22.703 0 -23 -0.297 -23 -23 0 -22.703 0.297 -23 23 -23 z" style="fill:url(#linearGradient3908);fill-opacity:1"/>
 </g>
 <g>
  
 </g>
 <path d="m 19.955 12.24 c 0.141 1.219 -0.026 2.463 -0.102 3.536 -1.915 0.178 -3.232 0.143 -4.91 0.224 -0.046 1.144 0.112 1.916 0.181 3.01 1.726 -0.035 3.123 -0.209 4.631 -0.304 -0.062 1.315 -0.115 2.705 -0.102 4.344 -3.872 2.133 -5.649 4.952 -5.653 8.688 -0.004 3.897 3.601 5.366 6.474 4.244 0.747 -0.292 1.199 -0.608 1.642 -0.908 0.167 0.281 0.207 0.608 0.309 0.908 0.937 -0.737 2.132 -1.089 3.081 -1.516 l 0.102 -0.304 c 0.02 -0.656 -0.483 -1.218 -0.719 -1.82 1.869 -2.389 3.119 -5.138 4 -7.776 2.626 0.352 5.115 1.81 4.723 4.848 -0.441 3.413 -4.394 4.54 -7.186 5.152 0.099 1.306 0.805 2.353 1.333 3.436 4.775 -0.998 9.108 -4.553 9.238 -8.688 0.106 -3.379 -1.437 -5.236 -4.516 -6.668 -1.116 -0.519 -2.036 -0.633 -2.772 -0.808 0.053 -0.537 0.43 -0.918 0.617 -1.312 0.383 -0.53 0.057 -0.603 -0.204 -1.01 l -2.565 -0.504 c -0.286 -0.081 -0.548 0.065 -0.719 0.204 -0.263 0.685 -0.204 1.471 -0.309 2.224 -1.517 0.094 -2.795 0.317 -3.902 0.608 0.01 -0.973 0.016 -2.053 0.102 -3.436 1.836 -0.134 5.874 -1.115 8.317 -1.611 -0.259 -1.028 -0.422 -1.952 -0.685 -2.98 -2.622 0.837 -5.202 1.347 -7.399 1.612 -0.026 -1.183 0.414 -1.933 0.693 -2.88 -0.076 -0.242 -0.322 -0.352 -0.512 -0.404 l -2.565 -0.304 c -0.259 -0.133 -0.47 0.071 -0.617 0.204 z m 5.645 12.12 c -0.434 1.758 -1.297 3.264 -2.053 4.748 -0.506 -1.354 -0.64 -2.864 -0.821 -4.14 1.113 -0.317 2.053 -0.52 2.874 -0.608 z m -5.747 1.92 c 0.253 1.993 0.7 4.04 1.232 5.756 -1.216 1.134 -3.02 2.073 -3.8 0.908 -1.783 -2.675 0.92 -5.135 2.565 -6.668 z" style="visibility:visible;fill:#000;opacity:0.1;fill-opacity:1;stroke:none;display:inline;color:#000;fill-rule:nonzero"/>
 <path d="m 18.955 11.24 c 0.141 1.219 -0.026 2.463 -0.102 3.536 -1.915 0.178 -3.232 0.143 -4.91 0.224 -0.046 1.144 0.112 1.916 0.181 3.01 1.726 -0.035 3.123 -0.209 4.631 -0.304 -0.062 1.315 -0.115 2.705 -0.102 4.344 -3.872 2.133 -5.649 4.952 -5.653 8.688 -0.004 3.897 3.601 5.366 6.474 4.244 0.747 -0.292 1.199 -0.608 1.642 -0.908 0.167 0.281 0.207 0.608 0.309 0.908 0.937 -0.737 2.132 -1.089 3.081 -1.516 l 0.102 -0.304 c 0.02 -0.656 -0.483 -1.218 -0.719 -1.82 1.869 -2.389 3.119 -5.138 4 -7.776 2.626 0.352 5.115 1.81 4.723 4.848 -0.441 3.413 -4.394 4.54 -7.186 5.152 0.099 1.306 0.805 2.353 1.333 3.436 4.775 -0.998 9.108 -4.553 9.238 -8.688 0.106 -3.379 -1.437 -5.236 -4.516 -6.668 -1.116 -0.519 -2.036 -0.633 -2.772 -0.808 0.053 -0.537 0.43 -0.918 0.617 -1.312 0.383 -0.53 0.057 -0.603 -0.204 -1.01 l -2.565 -0.504 c -0.286 -0.081 -0.548 0.065 -0.719 0.204 -0.263 0.685 -0.204 1.471 -0.309 2.224 -1.517 0.094 -2.795 0.317 -3.902 0.608 0.01 -0.973 0.016 -2.053 0.102 -3.436 1.836 -0.134 5.874 -1.115 8.317 -1.611 -0.259 -1.028 -0.422 -1.952 -0.685 -2.98 -2.622 0.837 -5.202 1.347 -7.399 1.612 -0.026 -1.183 0.414 -1.933 0.693 -2.88 -0.076 -0.242 -0.322 -0.352 -0.512 -0.404 l -2.565 -0.304 c -0.259 -0.133 -0.47 0.071 -0.617 0.204 z m 5.645 12.12 c -0.434 1.758 -1.297 3.264 -2.053 4.748 -0.506 -1.354 -0.64 -2.864 -0.821 -4.14 1.113 -0.317 2.053 -0.52 2.874 -0.608 z m -5.747 1.92 c 0.253 1.993 0.7 4.04 1.232 5.756 -1.216 1.134 -3.02 2.073 -3.8 0.908 -1.783 -2.675 0.92 -5.135 2.565 -6.668 z" style="visibility:visible;fill:#3c3c3c;fill-opacity:1;stroke:none;display:inline;color:#000;fill-rule:nonzero"/>
</svg>
