<svg viewBox="0 0 48 48" xmlns="http://www.w3.org/2000/svg" xmlns:xlink="http://www.w3.org/1999/xlink">
  <linearGradient id="a" gradientTransform="matrix(0 -1 1 0 -.0000015 47.999998)" gradientUnits="userSpaceOnUse" x1="1" x2="47">
    <stop offset="0" stop-color="#3d3d3d"/>
    <stop offset="1" stop-color="#474747"/>
  </linearGradient>
  <path d="m47 24c0 22.703-.297 23-23 23-22.703 0-23-.297-23-23 0-22.703.297-23 23-23 22.703 0 23 .297 23 23z" fill="url(#a)"/>
  <path d="m36.26 31.5a13 13 0 0 1-14.625 6.057 13 13 0 0 1-9.635-12.557 13 13 0 0 1  9.635-12.557 13 13 0 0 1  14.625 6.057l-11.26 6.5" fill-opacity=".098"/>
  <path d="m35.26 30.5a13 13 0 0 1-14.625 6.057 13 13 0 0 1-9.635-12.557 13 13 0 0 1  9.635-12.557 13 13 0 0 1  14.625 6.057l-11.26 6.5" fill="#4ef24e"/>
</svg>
