<svg xmlns="http://www.w3.org/2000/svg" viewBox="0 0 48 48">
 <defs>
  <linearGradient id="linearGradient3764" y1="47" x2="0" y2="1" gradientUnits="userSpaceOnUse">
   <stop style="stop-color:#393939;stop-opacity:1"/>
   <stop offset="1" style="stop-color:#434343;stop-opacity:1"/>
  </linearGradient>
 </defs>
 <g>
  
  
  
 </g>
 <g>
  <path d="m 47,24 C 47,46.703 46.703,47 24,47 1.297,47 1,46.703 1,24 1,1.297 1.297,1 24,1 46.703,1 47,1.297 47,24 z" style="fill:url(#linearGradient3764);fill-opacity:1"/>
 </g>
 <g>
  <g transform="matrix(0.85304165,0,0,0.79659575,3.3128479,4.3395743)">
   <g>
    <g transform="translate(1,1)">
     <g style="opacity:0.1">
      <!-- color: #946b7b -->
     </g>
    </g>
   </g>
  </g>
  <g transform="matrix(0.85304528,0,0,0.79659579,3.1657496,4.1055313)">
   <g>
    <!-- color: #946b7b -->
    <g>
     <path d="m 13.13 11.163 c -0.89 0 -1.603 0.706 -1.603 1.589 l 0 4.688 7.03 0 0 -4.688 c 0 -0.883 -0.712 -1.589 -1.603 -1.589 l -3.828 0 z m 13.522 3.891 c 0 0 -0.896 1.122 -2.986 0.329 l 0.618 3.832 c -0.17 -0.305 -0.485 -0.52 -0.859 -0.52 l -2.697 0 c -0.551 0 -0.996 0.449 -0.996 1 l 0 20.554 c 0 0.555 0.445 1 0.996 1 l 2.697 0 c 0.551 0 0.996 -0.445 0.996 -1 l 0 -20.17 3.409 21.17 c 0 0 1.01 -1.114 3.102 -0.321 l -4.282 -25.874 m -15.13 3.641 0 15.06 7.03 0 0 -15.06 -7.03 0 z m 21.279 1.545 c -0.958 0.035 -3.1 0.292 -4.886 1.807 l 6.04 19.19 c 3.156 0.191 5.697 -1.802 5.697 -1.802 l -6.347 -19.2 c 0 0 -0.189 -0.012 -0.508 0 z m -21.279 14.775 0 4.69 c 0 0.883 0.712 1.589 1.603 1.589 l 3.828 0 c 0.89 0 1.603 -0.706 1.603 -1.589 l 0 -4.69 -7.03 0 z" style="fill:#000;opacity:0.1;fill-opacity:1"/>
     <path d="m 11.959 9.91 c -0.89 0 -1.603 0.706 -1.603 1.589 l 0 4.688 7.03 0 0 -4.688 c 0 -0.883 -0.712 -1.589 -1.603 -1.589 z m -1.603 7.532 0 15.06 7.03 0 0 -15.06 z m -0.001 16.32 0.001 4.69 c 0 0.883 0.712 1.589 1.603 1.589 l 3.829 0 c 0.89 0 1.603 -0.706 1.603 -1.589 l -0.001 -4.69 z" style="fill:#faff59;fill-opacity:1"/>
     <path d="m 22.255 17.442 c 0.551 0 0.996 0.449 0.996 1 l 0 20.554 c 0 0.555 -0.445 1 -0.996 1 l -2.697 0 c -0.551 0 -0.996 -0.445 -0.996 -1 l 0 -20.554 c 0 -0.551 0.445 -1 0.996 -1" style="fill:#ff7153;fill-opacity:1"/>
     <path d="m 22.496 14.13 c 2.09 0.793 2.984 -0.328 2.984 -0.328 l 4.281 25.873 c -2.094 -0.793 -3.101 0.323 -3.101 0.323" style="fill:#61b4ff;fill-opacity:1"/>
     <path d="m 26.75 20.794 c 2.382 -2.02 5.392 -1.806 5.392 -1.806 l 6.348 19.19 c 0 0 -2.542 1.993 -5.698 1.802" style="fill:#f9994c"/>
    </g>
   </g>
  </g>
 </g>
 <g>
  
 </g>
</svg>
