<svg viewBox="0 0 48 48" xmlns="http://www.w3.org/2000/svg" xmlns:xlink="http://www.w3.org/1999/xlink">
  <linearGradient id="a" gradientUnits="userSpaceOnUse" x2="0" y1="47" y2="1">
    <stop offset="0" stop-color="#393939"/>
    <stop offset="1" stop-color="#434343"/>
  </linearGradient>
  <path d="m47 24c0 22.703-.297 23-23 23-22.703 0-23-.297-23-23 0-22.703.297-23 23-23 22.703 0 23 .297 23 23z" fill="url(#a)"/>
  <g transform="matrix(.85304528 0 0 .79659579 3.1657496 4.1055313)">
    <path d="m13.13 11.163c-.89 0-1.603.706-1.603 1.589v4.688h7.03v-4.688c0-.883-.712-1.589-1.603-1.589h-3.828zm13.522 3.891c0 0-.896 1.122-2.986.329l.618 3.832c-.17-.305-.485-.52-.859-.52h-2.697c-.551 0-.996.449-.996 1v20.554c0 .555.445 1 .996 1h2.697c.551 0 .996-.445.996-1v-20.17l3.409 21.17c0 0 1.01-1.114 3.102-.321l-4.282-25.874m-15.13 3.641v15.06h7.03v-15.06zm21.279 1.545c-.958.035-3.1.292-4.886 1.807l6.04 19.19c3.156.191 5.697-1.802 5.697-1.802l-6.347-19.2c0 0-.189-.012-.508 0zm-21.279 14.775v4.69c0 .883.712 1.589 1.603 1.589h3.828c.89 0 1.603-.706 1.603-1.589v-4.69h-7.03z" opacity=".1"/>
    <path d="m11.959 9.91c-.89 0-1.603.706-1.603 1.589v4.688h7.03v-4.688c0-.883-.712-1.589-1.603-1.589zm-1.603 7.532v15.06h7.03v-15.06zm-.001 16.32l.001 4.69c0 .883.712 1.589 1.603 1.589h3.829c.89 0 1.603-.706 1.603-1.589l-.001-4.69z" fill="#faff59"/>
    <path d="m22.255 17.442c.551 0 .996.449.996 1v20.554c0 .555-.445 1-.996 1h-2.697c-.551 0-.996-.445-.996-1v-20.554c0-.551.445-1 .996-1" fill="#ff7153"/>
    <path d="m22.496 14.13c2.09.793 2.984-.328 2.984-.328l4.281 25.873c-2.094-.793-3.101.323-3.101.323" fill="#61b4ff"/>
    <path d="m26.75 20.794c2.382-2.02 5.392-1.806 5.392-1.806l6.348 19.19c0 0-2.542 1.993-5.698 1.802" fill="#f9994c"/>
  </g>
</svg>
