<svg xmlns="http://www.w3.org/2000/svg" viewBox="0 0 48 48">
 <defs>
  <linearGradient id="linearGradient3764" x1="1" x2="47" gradientUnits="userSpaceOnUse" gradientTransform="matrix(0,-1,1,0,-1.5e-6,47.999998)">
   <stop style="stop-color:#60e6cb;stop-opacity:1"/>
   <stop offset="1" style="stop-color:#71e9d2;stop-opacity:1"/>
  </linearGradient>
 </defs>
 <g>
  
  
  
 </g>
 <g>
  <path d="m 47,24 C 47,46.703 46.703,47 24,47 1.297,47 1,46.703 1,24 1,1.297 1.297,1 24,1 46.703,1 47,1.297 47,24 z" style="fill:url(#linearGradient3764);fill-opacity:1"/>
 </g>
 <g>
  
 </g>
 <g transform="matrix(1.009009,0,0,1,0.28378391,0)">
  <g>
   <!-- color: #eeeeee -->
  </g>
 </g>
 <g>
  <path d="m 25 13 -11 6 0 13 11 6 11 -6 0 -13 -11 -6 z" style="fill:#000;fill-opacity:0.098"/>
  <path d="M 13,18 34.99,18 24,37 13,31 Z" style="fill:#212121;fill-opacity:1"/>
  <path d="m 35 18 -11 6 0 13 11 -6 z" style="fill:#3c3c3c;fill-opacity:1"/>
  <path d="m 13 18 11 -6 11 6 -11 6 z" style="fill:#555;fill-opacity:1"/>
 </g>
</svg>
