<svg xmlns="http://www.w3.org/2000/svg" viewBox="0 0 48 48">
 <defs>
  <linearGradient id="linearGradient3764" x1="1" x2="47" gradientUnits="userSpaceOnUse" gradientTransform="matrix(0,-1,1,0,-1.5e-6,47.999998)">
   <stop style="stop-color:#6cb85a;stop-opacity:1"/>
   <stop offset="1" style="stop-color:#79be69;stop-opacity:1"/>
  </linearGradient>
 </defs>
 <g>
  
  
  
 </g>
 <g>
  <path d="m 47,24 C 47,46.703 46.703,47 24,47 1.297,47 1,46.703 1,24 1,1.297 1.297,1 24,1 46.703,1 47,1.297 47,24 z" style="fill:url(#linearGradient3764);fill-opacity:1"/>
 </g>
 <g>
  
 </g>
 <path d="M 14.875,12 C 14.383,12 14,12.383 14,12.875 l 0,24.25 C 14,37.617 14.383,38 14.875,38 l 20.25,0 c 0.492,0 0.900697,-0.383672 0.875,-0.875 l 0,-19.12 -6,-6 -15.12,0 z" style="fill:#000;opacity:0.1;fill-opacity:1;stroke:none;fill-rule:nonzero"/>
 <g transform="scale(3.543307,3.543307)">
  <path d="m 4.198 3.104 c -0.139 0 -0.247 0.108 -0.247 0.247 l 0 6.844 c 0 0.139 0.108 0.247 0.247 0.247 l 5.151 0 c 0.139 0 0.247 -0.108 0.247 -0.247 l 0 -5.398 -1.693 -1.693" style="fill:#e8e8d9;fill-opacity:1;stroke:none;fill-rule:nonzero"/>
  <path d="m 7.902 3.104 0 1.693 1.693 0" style="fill:#fff;fill-opacity:1;stroke:none;fill-rule:nonzero"/>
  <path d="m 9.596 6.491 0 -1.693 -1.693 0" style="fill:#000;fill-opacity:0.2;stroke:none;fill-rule:nonzero"/>
 </g>
 <circle cx="24" cy="26" r="6" style="fill:#909090;opacity:1;fill-opacity:1;stroke:none"/>
 <rect width="3" height="4" x="16" y="24" style="fill:#909090;opacity:1;fill-opacity:1;stroke:none"/>
 <rect y="24" x="29" height="4" width="3" style="fill:#909090;opacity:1;fill-opacity:1;stroke:none"/>
 <rect width="3" height="4" x="-21" y="22" transform="matrix(0,-1,1,0,0,0)" style="fill:#909090;opacity:1;fill-opacity:1;stroke:none"/>
 <rect transform="matrix(0,-1,1,0,0,0)" y="22" x="-34" height="4" width="3" style="fill:#909090;opacity:1;fill-opacity:1;stroke:none"/>
 <g transform="scale(3.543307,3.543307)">
  <path d="m 3.916 3.104 c -0.139 0 -0.247 0.108 -0.247 0.247 l 0 6.844 c 0 0.139 0.108 0.247 0.247 0.247 l 5.715 0 c 0.139 0 0.247 -0.108 0.247 -0.247 l 0 -5.398 -1.693 -1.693" style="fill:#e8e8d9;fill-opacity:1;stroke:none;fill-rule:nonzero"/>
  <path d="m 8.184 3.104 0 1.693 1.693 0" style="fill:#fff;fill-opacity:1;stroke:none;fill-rule:nonzero"/>
  <path d="m 9.878 6.491 0 -1.693 -1.693 0" style="fill:#000;fill-opacity:0.2;stroke:none;fill-rule:nonzero"/>
 </g>
 <path d="m 23 18 c -0.554 0 -1 0.446 -1 1 l 0 0.82 a 6.5 6.5 0 0 0 -0.955 0.396 l -0.58 -0.58 c -0.392 -0.392 -1.022 -0.392 -1.414 0 l -1.414 1.414 c -0.392 0.392 -0.392 1.022 0 1.414 l 0.576 0.576 a 6.5 6.5 0 0 0 -0.389 0.959 l -0.824 0 c -0.554 0 -1 0.446 -1 1 l 0 2 c 0 0.554 0.446 1 1 1 l 0.82 0 a 6.5 6.5 0 0 0 0.396 0.955 l -0.58 0.58 c -0.392 0.392 -0.392 1.022 0 1.414 l 1.414 1.414 c 0.392 0.392 1.022 0.392 1.414 0 l 0.576 -0.576 a 6.5 6.5 0 0 0 0.959 0.389 l 0 0.824 c 0 0.554 0.446 1 1 1 l 2 0 c 0.554 0 1 -0.446 1 -1 l 0 -0.82 a 6.5 6.5 0 0 0 0.955 -0.396 l 0.58 0.58 c 0.392 0.392 1.022 0.392 1.414 0 l 1.414 -1.414 c 0.392 -0.392 0.392 -1.022 0 -1.414 l -0.576 -0.576 a 6.5 6.5 0 0 0 0.389 -0.959 l 0.824 0 c 0.554 0 1 -0.446 1 -1 l 0 -2 c 0 -0.554 -0.446 -1 -1 -1 l -0.82 0 a 6.5 6.5 0 0 0 -0.396 -0.955 l 0.58 -0.58 c 0.392 -0.392 0.392 -1.022 0 -1.414 l -1.414 -1.414 c -0.392 -0.392 -1.022 -0.392 -1.414 0 l -0.576 0.576 a 6.5 6.5 0 0 0 -0.959 -0.389 l 0 -0.824 c 0 -0.554 -0.446 -1 -1 -1 l -2 0 z m 1 6 a 2 2 0 0 1 2 2 2 2 0 0 1 -2 2 2 2 0 0 1 -2 -2 2 2 0 0 1 2 -2 z" style="fill:#888;opacity:1;fill-opacity:1;stroke:none"/>
</svg>
