<svg viewBox="0 0 48 48" xmlns="http://www.w3.org/2000/svg" xmlns:xlink="http://www.w3.org/1999/xlink">
  <linearGradient id="a" gradientTransform="matrix(0 -1 1 0 -.0000015 47.999998)" gradientUnits="userSpaceOnUse" x1="1" x2="47">
    <stop offset="0" stop-color="#e4e4e4"/>
    <stop offset="1" stop-color="#eee"/>
  </linearGradient>
  <path d="m47 24c0 22.703-.297 23-23 23-22.703 0-23-.297-23-23 0-22.703.297-23 23-23 22.703 0 23 .297 23 23z" fill="url(#a)"/>
  <path d="m24.719 12l-2.75 4.852-4.867-2.672c-.121-.066-.272-.022-.338.1l-2.73 5c-.066.122-.021.272.1.338l4.709 2.586-5.836 10.172 10.15 5.625 5.768-10.264 4.979 2.734c.121.066.272.022.338-.1l2.729-5c .066-.122.023-.273-.098-.34l-4.771-2.619 2.906-5.068m-10.11-3.773c.414 0 .75.336.75.75 0 .414-.336.75-.75.75-.414 0-.75-.336-.75-.75 0-.414.336-.75.75-.75zm-1.811 3.26c.414 0 .75.336.75.75 0 .092-.017.184-.051.27l-1.303-.715c.141-.192.365-.305.604-.305zm9.42.939c.414 0 .75.336.75.75 0 .414-.336.75-.75.75-.414 0-.75-.336-.75-.75 0-.414.336-.75.75-.75zm-1.83 3.311c.414 0 .75.336.75.75 0 .067-.009.134-.027.199l-1.279-.701c.142-.158.344-.248.557-.248zm-12 3.301c.414 0 .75.336.75.75 0 .414-.336.75-.75.75-.414 0-.75-.336-.75-.75 0-.414.336-.75.75-.75zm-1.83 3.27c.414 0 .75.336.75.75 0 .414-.336.75-.75.75-.414 0-.75-.336-.75-.75 0-.414.336-.75.75-.75zm9.59 1.01c.414 0 .75.336.75.75 0 .414-.336.75-.75.75-.414 0-.75-.336-.75-.75 0-.414.336-.75.75-.75zm-11.59 2.391c.414 0 .75.336.75.75 0 .414-.336.75-.75.75-.414 0-.75-.336-.75-.75 0-.414.336-.75.75-.75zm9.801.949c.414 0 .75.336.75.75 0 .414-.336.75-.75.75-.36 0-.67-.257-.736-.611 0-.005 0-.009-.002-.014-.007-.041-.011-.083-.012-.125 0-.046.005-.092.014-.137 0-.004 0-.008.002-.012.071-.35.378-.601.734-.602zm-2 3.369c.414 0 .75.336.75.75 0 .414-.336.75-.75.75-.414 0-.75-.336-.75-.75 0-.414.336-.75.75-.75z" fill-rule="evenodd" opacity=".1"/>
  <path d="m21.621 20.2c-.509.012-7.439 12.03-7.217 12.51l5.439 3.01c.485-.088 7.135-12.418 6.805-12.768z" fill="#3b669d" fill-rule="evenodd"/>
  <path d="m26.19 12.281c-2.599 2.495-3.175 4.309-3.779 6.559l5.063 2.691c1.632-1.827 3.162-3.754 3.75-6.625z" fill="#3b669d" fill-rule="evenodd"/>
  <path d="m31.22 14.906c-.738 1.289-1.984 3.496-3.75 6.625l2.719 1.469 3.816-6.656-2.781-1.438zm.289 1.863a.75.75 0 0 1  .75.75.75.75 0 0 1-.75.75.75.75 0 0 1-.75-.75.75.75 0 0 1  .75-.75zm-1.83 3.311a.75.75 0 0 1  .75.75.75.75 0 0 1-.75.75.75.75 0 0 1-.75-.75.75.75 0 0 1  .75-.75z" fill="#2f2f2f"/>
  <path d="m26.656 22.938l-6.813 12.781 2.313 1.281 7.094-12.625-2.594-1.438m.514 1.364a.75.75 0 0 1  .75.75.75.75 0 0 1-.75.75.75.75 0 0 1-.75-.75.75.75 0 0 1  .75-.75zm-1.73 3.359a.75.75 0 0 1  .75.75.75.75 0 0 1-.75.75.75.75 0 0 1-.75-.75.75.75 0 0 1  .75-.75zm-1.789 3.34a.75.75 0 0 1  .75.75.75.75 0 0 1-.75.75.75.75 0 0 1-.736-.611c0-.005 0-.009-.002-.014a.75.75 0 0 1-.012-.125.75.75 0 0 1  .014-.137c0-.004 0-.008.002-.012a.75.75 0 0 1  .734-.602zm-2 3.369a.75.75 0 0 1  .75.75.75.75 0 0 1-.75.75.75.75 0 0 1-.75-.75.75.75 0 0 1  .75-.75z" fill="#2f2f2f"/>
  <path d="m23.719 11l-3.719 6.563 2.406 1.281 3.781-6.563-2.469-1.281zm.182 1.57a.75.75 0 0 1  .75.75.75.75 0 0 1-.75.75.75.75 0 0 1-.75-.75.75.75 0 0 1  .75-.75zm-1.811 3.26a.75.75 0 0 1  .75.75.75.75 0 0 1-.75.75.75.75 0 0 1-.75-.75.75.75 0 0 1  .75-.75z" fill="#2f2f2f"/>
  <path d="m19.19 18.844l.004.002v-.002zm.004.002l-7.188 12.529 2.395 1.344 7.23-12.531-2.438-1.342zm.287 1.414a.75.75 0 0 1  .75.75.75.75 0 0 1-.75.75.75.75 0 0 1-.75-.75.75.75 0 0 1  .75-.75zm-1.801 3.121a.75.75 0 0 1  .75.75.75.75 0 0 1-.75.75.75.75 0 0 1-.75-.75.75.75 0 0 1  .75-.75zm-1.83 3.27a.75.75 0 0 1  .75.75.75.75 0 0 1-.75.75.75.75 0 0 1-.75-.75.75.75 0 0 1  .75-.75zm-2 3.4a.75.75 0 0 1  .75.75.75.75 0 0 1-.75.75.75.75 0 0 1-.75-.75.75.75 0 0 1  .75-.75z" fill="#2f2f2f"/>
  <rect fill="#61171f" fill-opacity=".667" fill-rule="evenodd" height="6.196" rx=".249" ry=".25" transform="matrix(.87660763 .48120584 -.47924196 .87768282 0 0)" width="23.05" x="20.2" y="3.805"/>
</svg>
