<svg viewBox="0 0 48 48" xmlns="http://www.w3.org/2000/svg" xmlns:xlink="http://www.w3.org/1999/xlink">
  <linearGradient id="a" gradientTransform="matrix(0 -1 1 0 -.0000015 47.999998)" gradientUnits="userSpaceOnUse" x1="1" x2="47">
    <stop offset="0" stop-color="#97b2d3"/>
    <stop offset="1" stop-color="#a5bcd9"/>
  </linearGradient>
  <path d="m47 24c0 22.703-.297 23-23 23-22.703 0-23-.297-23-23 0-22.703.297-23 23-23 22.703 0 23 .297 23 23z" fill="url(#a)"/>
  <path d="m21 12a3 3 0 0 0-3 3 3 3 0 0 0  .689 1.908l-3.092 5.152a3 3 0 0 1-.002 0 3 3 0 0 0-.595-.06 3 3 0 0 0-3 3 3 3 0 0 0  3 3 3 3 0 0 0  .596-.063l3.092 5.153a3 3 0 0 0-.688 1.91 3 3 0 0 0  3 3 3 3 0 0 0  2.824-2h8.35a3 3 0 0 0 2.826 2 3 3 0 0 0  3-3 3 3 0 0 0-3-3 3 3 0 0 0-2.824 2h-8.35a3 3 0 0 0-2.826-2 3 3 0 0 0-.596.06l-3.091-5.15a3 3 0 0 0  .511-.91h8.35a3 3 0 0 0 2.826 2 3 3 0 0 0  3-3 3 3 0 0 0-3-3 3 3 0 0 0-2.824 2h-8.35a3 3 0 0 0-.516-.908l3.092-5.152a3 3 0 0 0  .598.06 3 3 0 0 0  3-3 3 3 0 0 0-3-3" fill-opacity=".098" fill-rule="evenodd"/>
  <circle cx="14" cy="24" fill="#f0f0f0" fill-rule="evenodd" r="3"/>
  <circle cx="28" cy="24" fill="#f0f0f0" fill-rule="evenodd" r="3"/>
  <circle cx="20" cy="14" fill="#f0f0f0" fill-rule="evenodd" r="3"/>
  <circle cx="20" cy="34" fill="#f0f0f0" fill-rule="evenodd" r="3"/>
  <circle cx="34" cy="34" fill="#f0f0f0" fill-rule="evenodd" r="3"/>
  <path d="m19.14 13.486l-6.309 10.514 6.6 11h14.566v-2h-13.434l-4.801-8h12.234v-2h-12.234l5.092-8.486-1.715-1.027z" fill="#f0f0f0" fill-rule="evenodd"/>
</svg>
