<svg xmlns="http://www.w3.org/2000/svg" viewBox="0 0 48 48">
 <defs>
  <linearGradient id="linearGradient3764" x1="1" x2="47" gradientUnits="userSpaceOnUse" gradientTransform="matrix(0,-1,1,0,-1.5e-6,47.999998)">
   <stop style="stop-color:#97b2d3;stop-opacity:1"/>
   <stop offset="1" style="stop-color:#a5bcd9;stop-opacity:1"/>
  </linearGradient>
 </defs>
 <g>
  
  
  
 </g>
 <g>
  <path d="m 47,24 C 47,46.703 46.703,47 24,47 1.297,47 1,46.703 1,24 1,1.297 1.297,1 24,1 46.703,1 47,1.297 47,24 z" style="fill:url(#linearGradient3764);fill-opacity:1"/>
 </g>
 <g>
  
 </g>
 <path d="m 21 12 a 3 3 0 0 0 -3 3 3 3 0 0 0 0.689 1.908 l -3.092 5.152 a 3 3 0 0 1 -0.002 0 A 3 3 0 0 0 15 22 a 3 3 0 0 0 -3 3 3 3 0 0 0 3 3 3 3 0 0 0 0.596 -0.063 L 18.688 33.09 A 3 3 0 0 0 18 35 a 3 3 0 0 0 3 3 3 3 0 0 0 2.824 -2 l 8.35 0 A 3 3 0 0 0 35 38 a 3 3 0 0 0 3 -3 3 3 0 0 0 -3 -3 3 3 0 0 0 -2.824 2 l -8.35 0 A 3 3 0 0 0 21 32 3 3 0 0 0 20.404 32.06 L 17.313 26.91 A 3 3 0 0 0 17.824 26 l 8.35 0 A 3 3 0 0 0 29 28 a 3 3 0 0 0 3 -3 3 3 0 0 0 -3 -3 3 3 0 0 0 -2.824 2 l -8.35 0 a 3 3 0 0 0 -0.516 -0.908 l 3.092 -5.152 A 3 3 0 0 0 21 18 3 3 0 0 0 24 15 3 3 0 0 0 21 12" style="fill:#000;fill-opacity:0.098;stroke:none;fill-rule:evenodd"/>
 <g>
  <circle r="3" cy="24" cx="14" style="fill:#f0f0f0;fill-opacity:1;stroke:none;fill-rule:evenodd"/>
  <circle cx="28" cy="24" r="3" style="fill:#f0f0f0;fill-opacity:1;stroke:none;fill-rule:evenodd"/>
  <circle r="3" cy="14" cx="20" style="fill:#f0f0f0;fill-opacity:1;stroke:none;fill-rule:evenodd"/>
  <circle cx="20" cy="34" r="3" style="fill:#f0f0f0;fill-opacity:1;stroke:none;fill-rule:evenodd"/>
  <circle r="3" cy="34" cx="34" style="fill:#f0f0f0;fill-opacity:1;stroke:none;fill-rule:evenodd"/>
  <path d="m 19.14 13.486 l -6.309 10.514 l 6.6 11 l 14.566 0 l 0 -2 l -13.434 0 l -4.801 -8 l 12.234 0 l 0 -2 l -12.234 0 l 5.092 -8.486 l -1.715 -1.027 z" mix-blend-mode="normal" isolation="auto" white-space="normal" solid-opacity="1" solid-color="#000000" style="visibility:visible;shape-rendering:auto;color-interpolation-filters:linearRGB;fill:#f0f0f0;opacity:1;image-rendering:auto;fill-opacity:1;stroke:none;display:inline;color:#000;fill-rule:evenodd;color-rendering:auto;color-interpolation:sRGB"/>
 </g>
</svg>
