<svg viewBox="0 0 48 48" xmlns="http://www.w3.org/2000/svg" xmlns:xlink="http://www.w3.org/1999/xlink">
  <linearGradient id="a" gradientTransform="matrix(0 -1 1 0 -.0000015 47.999998)" gradientUnits="userSpaceOnUse" x1="1" x2="47">
    <stop offset="0" stop-color="#333"/>
    <stop offset="1" stop-color="#3d3d3d"/>
  </linearGradient>
  <path d="m24 1c22.703 0 23 .297 23 23 0 22.703-.297 23-23 23-22.703 0-23-.297-23-23 0-22.703.297-23 23-23z" fill="url(#a)"/>
  <path d="m15 12v26h2 18v-19.07l-6.93-6.93h-11.07zm2 2h2 8v6h6v16h-6-8-2z" opacity=".1"/>
  <path d="m14 11v26h2 18v-19.07l-6.93-6.93h-11.07zm2 2h2 8v6h6v16h-6-8-2z" fill="#ddd"/>
  <path d="m27.28 10.25v2 6h6 2v-1.07l-6.93-6.93z" fill="none"/>
</svg>
