<svg xmlns="http://www.w3.org/2000/svg" viewBox="0 0 48 48">
 <defs>
  <linearGradient id="linearGradient3764" x1="1" x2="47" gradientUnits="userSpaceOnUse" gradientTransform="matrix(0,-1,1,0,-1.5e-6,47.999998)">
   <stop style="stop-color:#3f65d9;stop-opacity:1"/>
   <stop offset="1" style="stop-color:#5072dc;stop-opacity:1"/>
  </linearGradient>
 </defs>
 <g>
  
  
  
 </g>
 <g>
  <path d="m 47,24 C 47,46.703 46.703,47 24,47 1.297,47 1,46.703 1,24 1,1.297 1.297,1 24,1 46.703,1 47,1.297 47,24 z" style="fill:url(#linearGradient3764);fill-opacity:1"/>
 </g>
 <g>
  
 </g>
 <path d="m 16.03 16.187 a 6.574 8.806 39.81 0 0 -1.514 11.154 6.574 8.806 39.81 0 0 8.935 -0.156 l 8.852 9.318 c 0.629 0.662 1.642 0.662 2.271 0 l 0.757 -0.797 c 0.629 -0.662 0.629 -1.728 0 -2.39 l -2.649 -2.789 0.757 -0.797 1.135 1.195 c 0.21 0.221 0.547 0.221 0.757 0 l 1.514 -1.593 c 0.21 -0.221 0.21 -0.576 0 -0.797 l -3.785 -3.984 c -0.21 -0.221 -0.547 -0.221 -0.757 0 l -1.514 1.593 c -0.21 0.221 -0.21 0.576 0 0.797 l 1.135 1.195 -0.757 0.797 -4.691 -4.938 a 6.574 8.806 39.81 0 0 0.149 -9.404 6.574 8.806 39.81 0 0 -10.597 1.593 z m 0.757 4.382 a 2.944 3.099 0 0 1 2.59 -0.859 2.944 3.099 0 0 1 0.816 -2.726 2.944 3.099 0 0 1 4.163 0 2.944 3.099 0 0 1 0 4.382 2.944 3.099 0 0 1 -2.59 0.859 2.944 3.099 0 0 1 -0.816 2.726 2.944 3.099 0 0 1 -4.163 0 2.944 3.099 0 0 1 0 -4.382 z" style="fill:#000;opacity:0.1;fill-opacity:1;stroke:none"/>
 <path d="m 15.03 15.187 a 6.574 8.806 39.81 0 0 -1.514 11.154 6.574 8.806 39.81 0 0 8.935 -0.156 l 8.852 9.318 c 0.629 0.662 1.642 0.662 2.271 0 l 0.757 -0.797 c 0.629 -0.662 0.629 -1.728 0 -2.39 l -2.649 -2.789 0.757 -0.797 1.135 1.195 c 0.21 0.221 0.547 0.221 0.757 0 l 1.514 -1.593 c 0.21 -0.221 0.21 -0.576 0 -0.797 l -3.785 -3.984 c -0.21 -0.221 -0.547 -0.221 -0.757 0 l -1.514 1.593 c -0.21 0.221 -0.21 0.576 0 0.797 l 1.135 1.195 -0.757 0.797 -4.691 -4.938 a 6.574 8.806 39.81 0 0 0.149 -9.404 6.574 8.806 39.81 0 0 -10.597 1.593 z m 0.757 4.382 a 2.944 3.099 0 0 1 2.59 -0.859 2.944 3.099 0 0 1 0.816 -2.726 2.944 3.099 0 0 1 4.163 0 2.944 3.099 0 0 1 0 4.382 2.944 3.099 0 0 1 -2.59 0.859 2.944 3.099 0 0 1 -0.816 2.726 2.944 3.099 0 0 1 -4.163 0 2.944 3.099 0 0 1 0 -4.382 z" style="fill:#dae9f2;opacity:1;fill-opacity:1;stroke:none"/>
</svg>
