<svg viewBox="0 0 48 48" xmlns="http://www.w3.org/2000/svg" xmlns:xlink="http://www.w3.org/1999/xlink">
  <linearGradient id="a" gradientUnits="userSpaceOnUse" x2="0" y1="47" y2="1">
    <stop offset="0" stop-color="#57da46"/>
    <stop offset="1" stop-color="#66dd57"/>
  </linearGradient>
  <path d="m47 24c0 22.703-.297 23-23 23-22.703 0-23-.297-23-23 0-22.703.297-23 23-23 22.703 0 23 .297 23 23z" fill="url(#a)"/>
  <path d="m13 37v-24h20l4 4v20m-4-12h-16v10h16m-3-21h-10v7h10zm-5 1h4v5h-4z" opacity=".1"/>
  <path d="m12 36v-24h20l4 4v20m-4-12h-16v10h16m-3-21h-10v7h10zm-5 1h4v5h-4z" fill="#303030"/>
</svg>
