<svg xmlns="http://www.w3.org/2000/svg" viewBox="0 0 48 48">
 <defs>
  <linearGradient id="linearGradient3764" y1="47" x2="0" y2="1" gradientUnits="userSpaceOnUse">
   <stop style="stop-color:#57da46;stop-opacity:1"/>
   <stop offset="1" style="stop-color:#66dd57;stop-opacity:1"/>
  </linearGradient>
 </defs>
 <g>
  
  
  
 </g>
 <g>
  <path d="m 47,24 C 47,46.703 46.703,47 24,47 1.297,47 1,46.703 1,24 1,1.297 1.297,1 24,1 46.703,1 47,1.297 47,24 z" style="fill:url(#linearGradient3764);fill-opacity:1"/>
 </g>
 <g>
  <g>
   <g transform="translate(1,1)">
    <g style="opacity:0.1">
     <!-- color: #75de4f -->
    </g>
   </g>
  </g>
 </g>
 <g>
  <g>
   <!-- color: #75de4f -->
  </g>
 </g>
 <g>
  
 </g>
 <path d="m 13 37 0 -24 20 0 4 4 0 20 m -4 -12 -16 0 0 10 16 0 m -3 -21 -10 0 0 7 10 0 z m -5 1 4 0 0 5 -4 0 z" style="fill:#000;opacity:0.1;fill-opacity:1"/>
 <path d="m 12 36 0 -24 20 0 4 4 0 20 m -4 -12 -16 0 0 10 16 0 m -3 -21 -10 0 0 7 10 0 z m -5 1 4 0 0 5 -4 0 z" style="fill:#303030;fill-opacity:1"/>
</svg>
