<svg viewBox="0 0 48 48" xmlns="http://www.w3.org/2000/svg" xmlns:xlink="http://www.w3.org/1999/xlink">
  <linearGradient id="a" gradientTransform="matrix(0 -1 1 0 0 48)" gradientUnits="userSpaceOnUse" x1="1" x2="47">
    <stop offset="0" stop-color="#345f88"/>
    <stop offset="1" stop-color="#396a97"/>
  </linearGradient>
  <path d="m1 24c0-22.703.297-23 23-23 22.703 0 23 .297 23 23 0 22.703-.297 23-23 23-22.703 0-23-.297-23-23z" fill="url(#a)"/>
  <path d="m25.02 13.996c-4.715 0-9.03 2.831-10.734 7.04l3.578 1.324c1.129-2.809 4.01-4.689 7.156-4.689 3.035 0 5.715 1.68 6.961 4.305l-2.607 1 6.672 3.684 1.953-6.977-2.447.932c-1.828-4.03-5.922-6.617-10.531-6.617zm-11.01 9.445l-2.02 6.793 2.461-.914c1.793 4.01 5.981 6.682 10.564 6.682 4.734 0 8.922-2.717 10.664-6.924l-3.543-1.357c-1.168 2.809-3.965 4.621-7.121 4.621v-.002c-3.01 0-5.75-1.734-6.977-4.344l2.57-.949-6.598-3.605z" opacity=".1" transform=""/>
  <path d="m24.03 13c-4.715 0-9.05 2.822-10.75 7.03l3.594 1.344c1.129-2.809 4.01-4.719 7.156-4.719 3.035 0 5.723 1.689 6.969 4.314l-2.625 1 6.689 3.688 1.938-6.969-2.438.938c-1.828-4.03-5.922-6.625-10.531-6.625h-.002zm-11.03 9.438l-2 6.814 2.469-.939c1.793 4.01 5.98 6.689 10.563 6.689 4.734 0 8.914-2.699 10.656-6.906l-3.563-1.375c-1.168 2.809-3.938 4.625-7.094 4.625-3.01 0-5.773-1.734-7-4.344l2.594-.939z" fill="#d8af54"/>
</svg>
