<svg viewBox="0 0 48 48" xmlns="http://www.w3.org/2000/svg" xmlns:xlink="http://www.w3.org/1999/xlink">
  <linearGradient id="a" gradientTransform="matrix(0 -1 1 0 -.0000015 47.999998)" gradientUnits="userSpaceOnUse" x1="1" x2="47">
    <stop offset="0" stop-color="#006dac"/>
    <stop offset="1" stop-color="#0079c1"/>
  </linearGradient>
  <path d="m47 24c0 22.703-.297 23-23 23-22.703 0-23-.297-23-23 0-22.703.297-23 23-23 22.703 0 23 .297 23 23z" fill="url(#a)"/>
  <path d="m24 9c-8.285 0-15 6.715-15 15 0 8.285 6.715 15 15 15 8.285 0 15-6.715 15-15 0-4.742-2.566-9.25-6-12v10h5l-7.5 8-7.5-8h5v-12.531c-1.141-.277-2.777-.469-4-.469m0 0" opacity=".1" transform="translate(1 1)"/>
  <path d="m24 9c-8.285 0-15 6.715-15 15 0 8.285 6.715 15 15 15 8.285 0 15-6.715 15-15 0-4.742-2.566-9.25-6-12v10h5l-7.5 8-7.5-8h5v-12.531c-1.141-.277-2.777-.469-4-.469m0 0" fill="#bae490"/>
</svg>
