<svg xmlns="http://www.w3.org/2000/svg" viewBox="0 0 48 48">
 <defs>
  <linearGradient id="linearGradient3764" x1="1" x2="47" gradientUnits="userSpaceOnUse" gradientTransform="matrix(0,-1,1,0,-1.5e-6,47.999998)">
   <stop style="stop-color:#006dac;stop-opacity:1"/>
   <stop offset="1" style="stop-color:#0079c1;stop-opacity:1"/>
  </linearGradient>
 </defs>
 <g>
  
  
  
 </g>
 <g>
  <path d="m 47,24 C 47,46.703 46.703,47 24,47 1.297,47 1,46.703 1,24 1,1.297 1.297,1 24,1 46.703,1 47,1.297 47,24 z" style="fill:url(#linearGradient3764);fill-opacity:1"/>
 </g>
 <g>
  
 </g>
 <g>
  <g>
   <g transform="translate(1,1)">
    <g style="opacity:0.1">
     <!-- color: #78919a -->
     <g>
      <path d="M 24,9 C 15.715,9 9,15.715 9,24 c 0,8.285 6.715,15 15,15 8.285,0 15,-6.715 15,-15 0,-4.742 -2.566,-9.25 -6,-12 l 0,10 5,0 -7.5,8 -7.5,-8 5,0 0,-12.531 C 26.859,9.192 25.223,9 24,9 m 0,0" style="fill:#000;fill-opacity:1;stroke:none;fill-rule:nonzero"/>
     </g>
    </g>
   </g>
  </g>
 </g>
 <g>
  <g>
   <!-- color: #78919a -->
   <g>
    <path d="M 24,9 C 15.715,9 9,15.715 9,24 c 0,8.285 6.715,15 15,15 8.285,0 15,-6.715 15,-15 0,-4.742 -2.566,-9.25 -6,-12 l 0,10 5,0 -7.5,8 -7.5,-8 5,0 0,-12.531 C 26.859,9.192 25.223,9 24,9 m 0,0" style="fill:#bae490;fill-opacity:1;stroke:none;fill-rule:nonzero"/>
   </g>
  </g>
 </g>
</svg>
