<svg xmlns="http://www.w3.org/2000/svg" viewBox="0 0 48 48">
 <defs>
  <linearGradient id="linearGradient3764" x1="1" x2="47" gradientUnits="userSpaceOnUse" gradientTransform="matrix(0,-1,1,0,-1.5e-6,47.999998)">
   <stop style="stop-color:#facb50;stop-opacity:1"/>
   <stop offset="1" style="stop-color:#fbd163;stop-opacity:1"/>
  </linearGradient>
 </defs>
 <g>
  
  
  
 </g>
 <g>
  <path d="m 47,24 C 47,46.703 46.703,47 24,47 1.297,47 1,46.703 1,24 1,1.297 1.297,1 24,1 46.703,1 47,1.297 47,24 z" style="fill:url(#linearGradient3764);fill-opacity:1"/>
 </g>
 <g>
  
 </g>
 <path d="m 33.865 13.761 c -0.921 -0.85 -2.339 -0.776 -3.171 0.17 -0.829 0.946 -0.755 2.402 0.167 3.253 0.921 0.85 2.342 0.772 3.171 -0.17 0.829 -0.946 0.755 -2.399 -0.167 -3.249 m 3.77 5.34 c -0.553 -0.51 -1.534 -0.315 -2.2 0.443 l -1.804 2.052 -2.062 -1.906 c 0.213 -0.524 0.099 -1.148 -0.34 -1.552 l -1.998 -1.846 c -0.436 -0.404 -1.056 -0.457 -1.541 -0.184 l -3.061 -2.828 c -0.553 -0.514 -1.538 -0.312 -2.204 0.446 l -2.402 2.735 c -0.666 0.758 -0.758 1.782 -0.202 2.293 0.553 0.51 1.538 0.315 2.204 -0.443 l 1.8 -2.052 2 1.846 -8.575 9.78 -2.686 -2.466 c -0.783 -0.719 -1.814 -0.85 -2.307 -0.291 -0.493 0.56 -0.262 1.591 0.524 2.31 1.222 1.123 2.275 2.091 3.487 3.203 0.677 0.624 1.747 0.51 2.413 -0.252 l 3.178 -3.635 c 1.75 1.633 2.728 2.509 4.482 4.117 l 0.446 4.33 c 0.11 1.07 0.794 1.867 1.538 1.789 0.741 -0.078 1.251 -1.01 1.141 -2.076 l -0.45 -4.348 c -0.053 -0.712 -0.376 -1.265 -0.85 -1.719 l -2.505 -2.3 4.167 -4.748 3 2.771 c 0.553 0.51 1.534 0.315 2.2 -0.443 l 2.402 -2.739 c 0.666 -0.758 0.755 -1.779 0.202 -2.293 z" style="fill:#000;fill-opacity:0.098"/>
 <path d="m 32.866 12.762 c -0.921 -0.85 -2.339 -0.776 -3.171 0.17 -0.829 0.946 -0.755 2.402 0.167 3.253 0.921 0.85 2.342 0.772 3.171 -0.17 0.829 -0.946 0.755 -2.399 -0.167 -3.249 m 3.77 5.34 c -0.553 -0.51 -1.534 -0.315 -2.2 0.443 l -1.804 2.052 -2.062 -1.906 c 0.213 -0.524 0.099 -1.148 -0.34 -1.552 l -1.998 -1.846 c -0.436 -0.404 -1.056 -0.457 -1.541 -0.184 l -3.061 -2.828 c -0.553 -0.514 -1.538 -0.312 -2.204 0.446 l -2.402 2.735 c -0.666 0.758 -0.758 1.782 -0.202 2.293 0.553 0.51 1.538 0.315 2.204 -0.443 l 1.8 -2.052 2 1.846 -8.575 9.78 -2.686 -2.466 c -0.783 -0.719 -1.814 -0.85 -2.307 -0.291 -0.493 0.56 -0.262 1.591 0.524 2.31 1.222 1.123 2.275 2.091 3.487 3.203 0.677 0.624 1.747 0.51 2.413 -0.252 l 3.178 -3.635 c 1.75 1.633 2.728 2.509 4.482 4.117 l 0.446 4.33 c 0.11 1.07 0.794 1.867 1.538 1.789 0.741 -0.078 1.251 -1.01 1.141 -2.076 l -0.45 -4.348 c -0.053 -0.712 -0.376 -1.265 -0.85 -1.719 l -2.505 -2.3 4.167 -4.748 3 2.771 c 0.553 0.51 1.534 0.315 2.2 -0.443 l 2.402 -2.739 c 0.666 -0.758 0.755 -1.779 0.202 -2.293 z" style="fill:#373737;fill-opacity:1"/>
</svg>
