<svg viewBox="0 0 48 48" xmlns="http://www.w3.org/2000/svg" xmlns:xlink="http://www.w3.org/1999/xlink">
  <linearGradient id="a" gradientUnits="userSpaceOnUse" x2="0" y1="47" y2="1">
    <stop offset="0" stop-color="#c9899d"/>
    <stop offset="1" stop-color="#cf97a8"/>
  </linearGradient>
  <path d="m47 24c0 22.703-.297 23-23 23-22.703 0-23-.297-23-23 0-22.703.297-23 23-23 22.703 0 23 .297 23 23z" fill="url(#a)"/>
  <path d="m22 11v17.499l-8 8.5h2.693l5.307-5.51v5.51h2v-5.51l5.307 5.51h2.693l-8-8.5v-8.124l6.656-7.375h4.344v-2m-11 2l4-.001-4 4.34z" fill-rule="evenodd" opacity=".1"/>
  <path d="m21 10v17.499l-8 8.5h2.693l5.307-5.51v5.51h2v-5.51l5.307 5.51h2.693l-8-8.5v-8.124l6.656-7.375h4.344v-2m-11 2l4-.001-4 4.34z" fill="#343434" fill-rule="evenodd"/>
</svg>
