<svg xmlns="http://www.w3.org/2000/svg" viewBox="0 0 48 48">
 <defs>
  <linearGradient id="linearGradient3845" y1="47" x2="0" y2="1" gradientUnits="userSpaceOnUse">
   <stop style="stop-color:#cf484f;stop-opacity:1"/>
   <stop offset="1" style="stop-color:#d4585f;stop-opacity:1"/>
  </linearGradient>
 </defs>
 <g>
  
  
  
 </g>
 <g>
  <path d="m 24 1 c 22.703 0 23 0.297 23 23 c 0 22.703 -0.297 23 -23 23 -22.703 0 -23 -0.297 -23 -23 0 -22.703 0.297 -23 23 -23 z" style="fill:url(#linearGradient3845);fill-opacity:1"/>
 </g>
 <g>
  
 </g>
 <g transform="matrix(0,-1,1,0,0,46)">
  <g>
   <!-- color: #f1f1f1 -->
  </g>
 </g>
 <g transform="matrix(0,-0.33333333,0.33333333,0,19.666667,25)" style="fill:#000">
  <g>
   <!-- color: #f1f1f1 -->
  </g>
 </g>
 <path d="m 20 12 1.637 2 -7.637 0 0 24 22 0 0 -6.445 2 2.445 0 -22 -18 0" style="fill:#000;fill-opacity:0.098;stroke:none;fill-rule:evenodd"/>
 <g transform="translate(1,0)">
  <rect y="13" x="12" height="24" width="22" style="fill:#e1e2da;opacity:1;fill-opacity:1;stroke:none;fill-rule:nonzero"/>
  <path d="m 17 24 0 11 11 0 0 -11 z m 1 1 9 0 0 9 -9 0 z" style="fill:#4d4d4d;opacity:1;fill-opacity:1;stroke:none;fill-rule:nonzero"/>
  <g transform="matrix(0,-1,1,0,1,48)">
   <g>
    <!-- color: #f1f1f1 -->
    <g>
     <path d="m 37 17 -22 18 22 0 m -4 -9.7 0 5.7 -7 0" style="fill:#78b920;fill-opacity:1;stroke:none;fill-rule:evenodd"/>
    </g>
   </g>
  </g>
  <path d="m 20 20 a 6 6 0 0 0 -6 6 6 6 0 0 0 6 6 6 6 0 0 0 6 -6 6 6 0 0 0 -6 -6 z m 0 1 a 5 5 0 0 1 5 5 5 5 0 0 1 -5 5 5 5 0 0 1 -5 -5 5 5 0 0 1 5 -5 z" style="fill:#4d4d4d;opacity:1;fill-opacity:1;stroke:none;fill-rule:nonzero"/>
 </g>
</svg>
