<svg xmlns="http://www.w3.org/2000/svg" viewBox="0 0 48 48">
 <defs>
  <linearGradient id="linearGradient3764" x1="1" x2="47" gradientUnits="userSpaceOnUse" gradientTransform="matrix(0,-1,1,0,-1.5e-6,47.999998)">
   <stop style="stop-color:#3fb191;stop-opacity:1"/>
   <stop offset="1" style="stop-color:#46be9c;stop-opacity:1"/>
  </linearGradient>
 </defs>
 <g>
  
  
  
 </g>
 <g>
  <path d="m 47,24 C 47,46.703 46.703,47 24,47 1.297,47 1,46.703 1,24 1,1.297 1.297,1 24,1 46.703,1 47,1.297 47,24 z" style="fill:url(#linearGradient3764);fill-opacity:1"/>
 </g>
 <g>
  <g>
   <g transform="translate(1,1)">
    <g style="opacity:0.1">
     <!-- color: #bc4142 -->
     <g>
      <path d="m 30.996 13.309 c 1.996 1.297 3.188 3.113 2.98 4.379 l -8.145 -5.301 c -0.023 -0.016 -0.051 -0.027 -0.078 -0.047 c 1.09 -0.691 3.242 -0.332 5.242 0.969 m 0 0" style="fill:#000;fill-opacity:1;stroke:none;fill-rule:evenodd"/>
      <path d="m 32.77 17.5 l -0.52 -0.336 c -0.559 -0.367 -1.309 -0.219 -1.668 0.324 l -7.09 10.711 c -0.359 0.547 -0.199 1.285 0.363 1.648 l 0.52 0.336 c 0.559 0.367 1.309 0.219 1.668 -0.324 l 7.09 -10.711 c 0.359 -0.547 0.199 -1.285 -0.363 -1.648 m 0 0" style="fill:#000;fill-opacity:1;stroke:none;fill-rule:evenodd"/>
      <path d="m 29.859 15.605 l -0.52 -0.336 c -0.559 -0.367 -1.309 -0.219 -1.668 0.328 l -7.09 10.707 c -0.359 0.547 -0.199 1.285 0.363 1.648 l 0.52 0.34 c 0.559 0.363 1.309 0.219 1.668 -0.328 l 7.09 -10.711 c 0.359 -0.543 0.199 -1.281 -0.363 -1.648 m 0 0" style="fill:#000;fill-opacity:1;stroke:none;fill-rule:evenodd"/>
      <path d="m 26.949 13.715 l -0.52 -0.34 c -0.559 -0.363 -1.309 -0.219 -1.668 0.328 l -7.09 10.711 c -0.359 0.543 -0.199 1.281 0.363 1.648 l 0.52 0.336 c 0.559 0.363 1.309 0.219 1.668 -0.328 l 7.09 -10.707 c 0.359 -0.547 0.199 -1.285 -0.363 -1.648 m 0 0" style="fill:#000;fill-opacity:1;stroke:none;fill-rule:evenodd"/>
      <path d="m 25.06 31.31 -8.301 -5.402 -0.738 10.09 9.04 -4.688" style="fill:#000;fill-opacity:1;stroke:none;fill-rule:evenodd"/>
     </g>
    </g>
   </g>
  </g>
 </g>
 <g>
  <g>
   <!-- color: #bc4142 -->
   <g>
    <path d="m 30.996 13.309 c 1.996 1.297 3.188 3.113 2.98 4.379 l -8.145 -5.301 c -0.023 -0.016 -0.051 -0.027 -0.078 -0.047 c 1.09 -0.691 3.242 -0.332 5.242 0.969 m 0 0" style="fill:#383838;fill-opacity:1;stroke:none;fill-rule:evenodd"/>
    <path d="m 32.77 17.5 l -0.52 -0.336 c -0.559 -0.367 -1.309 -0.219 -1.668 0.324 l -7.09 10.711 c -0.359 0.547 -0.199 1.285 0.363 1.648 l 0.52 0.336 c 0.559 0.367 1.309 0.219 1.668 -0.324 l 7.09 -10.711 c 0.359 -0.547 0.199 -1.285 -0.363 -1.648 m 0 0" style="fill:#f9dc7b;fill-opacity:1;stroke:none;fill-rule:evenodd"/>
    <path d="m 29.859 15.605 l -0.52 -0.336 c -0.559 -0.367 -1.309 -0.219 -1.668 0.328 l -7.09 10.707 c -0.359 0.547 -0.199 1.285 0.363 1.648 l 0.52 0.34 c 0.559 0.363 1.309 0.219 1.668 -0.328 l 7.09 -10.711 c 0.359 -0.543 0.199 -1.281 -0.363 -1.648 m 0 0" style="fill:#383838;fill-opacity:1;stroke:none;fill-rule:evenodd"/>
    <path d="m 26.949 13.715 l -0.52 -0.34 c -0.559 -0.363 -1.309 -0.219 -1.668 0.328 l -7.09 10.711 c -0.359 0.543 -0.199 1.281 0.363 1.648 l 0.52 0.336 c 0.559 0.363 1.309 0.219 1.668 -0.328 l 7.09 -10.707 c 0.359 -0.547 0.199 -1.285 -0.363 -1.648 m 0 0" style="fill:#f9dc7b;fill-opacity:1;stroke:none;fill-rule:evenodd"/>
    <path d="m 16.76 25.908 -0.301 4.107 c 1.239 1.57 3.02 2.458 4.922 3.203 l 3.68 -1.908 z" style="fill:#d7c697;fill-opacity:1;stroke:none;fill-rule:evenodd"/>
    <path d="m 16.459 30.02 l -0.438 5.982 l 5.359 -2.779 l -4.922 -3.203 z" style="fill:#383838;fill-opacity:1;stroke:none;fill-rule:evenodd"/>
   </g>
  </g>
 </g>
 <g>
  
 </g>
</svg>
