<svg viewBox="0 0 48 48" xmlns="http://www.w3.org/2000/svg" xmlns:xlink="http://www.w3.org/1999/xlink">
  <linearGradient id="a" gradientTransform="matrix(0 -1 1 0 -.0000015 47.999998)" gradientUnits="userSpaceOnUse" x1="1" x2="47">
    <stop offset="0" stop-color="#3fb191"/>
    <stop offset="1" stop-color="#46be9c"/>
  </linearGradient>
  <path d="m47 24c0 22.703-.297 23-23 23-22.703 0-23-.297-23-23 0-22.703.297-23 23-23 22.703 0 23 .297 23 23z" fill="url(#a)"/>
  <g fill-rule="evenodd" opacity=".1" transform="translate(1 1)">
    <path d="m30.996 13.309c1.996 1.297 3.188 3.113 2.98 4.379l-8.145-5.301c-.023-.016-.051-.027-.078-.047 1.09-.691 3.242-.332 5.242.969m0 0"/>
    <path d="m32.77 17.5l-.52-.336c-.559-.367-1.309-.219-1.668.324l-7.09 10.711c-.359.547-.199 1.285.363 1.648l.52.336c.559.367 1.309.219 1.668-.324l7.09-10.711c.359-.547.199-1.285-.363-1.648m0 0"/>
    <path d="m29.859 15.605l-.52-.336c-.559-.367-1.309-.219-1.668.328l-7.09 10.707c-.359.547-.199 1.285.363 1.648l.52.34c.559.363 1.309.219 1.668-.328l7.09-10.711c.359-.543.199-1.281-.363-1.648m0 0"/>
    <path d="m26.949 13.715l-.52-.34c-.559-.363-1.309-.219-1.668.328l-7.09 10.711c-.359.543-.199 1.281.363 1.648l.52.336c.559.363 1.309.219 1.668-.328l7.09-10.707c.359-.547.199-1.285-.363-1.648m0 0"/>
    <path d="m25.06 31.31l-8.301-5.402-.738 10.09 9.04-4.688"/>
  </g>
  <path d="m30.996 13.309c1.996 1.297 3.188 3.113 2.98 4.379l-8.145-5.301c-.023-.016-.051-.027-.078-.047 1.09-.691 3.242-.332 5.242.969m0 0" fill="#383838" fill-rule="evenodd"/>
  <path d="m32.77 17.5l-.52-.336c-.559-.367-1.309-.219-1.668.324l-7.09 10.711c-.359.547-.199 1.285.363 1.648l.52.336c.559.367 1.309.219 1.668-.324l7.09-10.711c.359-.547.199-1.285-.363-1.648m0 0" fill="#f9dc7b" fill-rule="evenodd"/>
  <path d="m29.859 15.605l-.52-.336c-.559-.367-1.309-.219-1.668.328l-7.09 10.707c-.359.547-.199 1.285.363 1.648l.52.34c.559.363 1.309.219 1.668-.328l7.09-10.711c.359-.543.199-1.281-.363-1.648m0 0" fill="#383838" fill-rule="evenodd"/>
  <path d="m26.949 13.715l-.52-.34c-.559-.363-1.309-.219-1.668.328l-7.09 10.711c-.359.543-.199 1.281.363 1.648l.52.336c.559.363 1.309.219 1.668-.328l7.09-10.707c.359-.547.199-1.285-.363-1.648m0 0" fill="#f9dc7b" fill-rule="evenodd"/>
  <path d="m16.76 25.908l-.301 4.107c1.239 1.57 3.02 2.458 4.922 3.203l3.68-1.908z" fill="#d7c697" fill-rule="evenodd"/>
  <path d="m16.459 30.02l-.438 5.982 5.359-2.779-4.922-3.203z" fill="#383838" fill-rule="evenodd"/>
</svg>
