<svg viewBox="0 0 48 48" xmlns="http://www.w3.org/2000/svg" xmlns:xlink="http://www.w3.org/1999/xlink">
  <linearGradient id="a" gradientTransform="matrix(0 -1 1 0 -.0000015 47.999998)" gradientUnits="userSpaceOnUse" x1="1" x2="47">
    <stop offset="0" stop-color="#2f58cd"/>
    <stop offset="1" stop-color="#3e64d2"/>
  </linearGradient>
  <path d="m47 24c0 22.703-.297 23-23 23-22.703 0-23-.297-23-23 0-22.703.297-23 23-23 22.703 0 23 .297 23 23z" fill="url(#a)"/>
  <g opacity=".1" transform="translate(1 1)">
    <path d="m13 33.922l4.727.078 6.578-6.492 5.984 6.492 4.691-.078-10.742-11.441m-11.238 11.441"/>
    <path d="m13.02 14h4.707v20h-4.707m0-20"/>
    <path d="m30.29 14h4.711v20h-4.711m0-20"/>
  </g>
  <path d="m13 33.922l4.727.078 6.578-6.492 5.984 6.492 4.691-.078-10.742-11.441m-11.238 11.441" fill="#d6deed"/>
  <path d="m13.02 14h4.707v20h-4.707m0-20" fill="#fff"/>
  <path d="m30.29 14h4.711v20h-4.711m0-20" fill="#fff"/>
</svg>
