<svg viewBox="0 0 48 48" xmlns="http://www.w3.org/2000/svg" xmlns:xlink="http://www.w3.org/1999/xlink">
  <linearGradient id="a" gradientTransform="matrix(0 -1 1 0 -.0000015 47.999998)" gradientUnits="userSpaceOnUse" x1="1" x2="47">
    <stop offset="0" stop-color="#428923"/>
    <stop offset="1" stop-color="#4b9a27"/>
  </linearGradient>
  <path d="m47 24c0 22.703-.297 23-23 23-22.703 0-23-.297-23-23 0-22.703.297-23 23-23 22.703 0 23 .297 23 23z" fill="url(#a)"/>
  <g opacity=".1" transform="translate(1 1)">
    <path d="m16.08 26.617l16.578-.008v-4.703h-16.578m0 4.711"/>
    <path d="m34 35v-13.1h-4.738v8.566h-15.262v4.531h20m-.004 0"/>
    <path d="m14 13v13.617h4.738v-8.902h15.262v-4.715m-20 0"/>
  </g>
  <path d="m16.08 26.617l16.578-.008v-4.703h-16.578m0 4.711" fill="#e5f3e2"/>
  <path d="m34 35v-13.1h-4.738v8.566h-15.262v4.531h20m-.004 0" fill="#fbfbf9"/>
  <path d="m14 13v13.617h4.738v-8.902h15.262v-4.715m-20 0" fill="#fff"/>
</svg>
