<svg xmlns="http://www.w3.org/2000/svg" viewBox="0 0 48 48">
 <defs>
  <linearGradient id="linearGradient3764" x1="1" x2="47" gradientUnits="userSpaceOnUse" gradientTransform="matrix(0,-1,1,0,-1.5e-6,47.999998)">
   <stop style="stop-color:#2f58cd;stop-opacity:1"/>
   <stop offset="1" style="stop-color:#3e64d2;stop-opacity:1"/>
  </linearGradient>
 </defs>
 <g>
  
  
  
 </g>
 <g>
  <path d="m 47,24 C 47,46.703 46.703,47 24,47 1.297,47 1,46.703 1,24 1,1.297 1.297,1 24,1 46.703,1 47,1.297 47,24 z" style="fill:url(#linearGradient3764);fill-opacity:1"/>
 </g>
 <g>
  <g>
   <g transform="translate(1,1)">
    <g style="opacity:0.1">
     <!-- color: #3e64d2 -->
     <g>
      <path d="m 13 33.922 l 4.727 0.078 l 6.578 -6.492 l 5.984 6.492 l 4.691 -0.078 l -10.742 -11.441 m -11.238 11.441" style="fill:#000;fill-opacity:1;stroke:none;fill-rule:nonzero"/>
      <path d="m 13.02 14 l 4.707 0 l 0 20 l -4.707 0 m 0 -20" style="fill:#000;fill-opacity:1;stroke:none;fill-rule:nonzero"/>
      <path d="m 30.29 14 l 4.711 0 l 0 20 l -4.711 0 m 0 -20" style="fill:#000;fill-opacity:1;stroke:none;fill-rule:nonzero"/>
     </g>
    </g>
   </g>
  </g>
 </g>
 <g>
  <g>
   <!-- color: #3e64d2 -->
   <g>
    <path d="m 13 33.922 l 4.727 0.078 l 6.578 -6.492 l 5.984 6.492 l 4.691 -0.078 l -10.742 -11.441 m -11.238 11.441" style="fill:#d6deed;fill-opacity:1;stroke:none;fill-rule:nonzero"/>
    <path d="m 13.02 14 l 4.707 0 l 0 20 l -4.707 0 m 0 -20" style="fill:#fff;fill-opacity:1;stroke:none;fill-rule:nonzero"/>
    <path d="m 30.29 14 l 4.711 0 l 0 20 l -4.711 0 m 0 -20" style="fill:#fff;fill-opacity:1;stroke:none;fill-rule:nonzero"/>
   </g>
  </g>
 </g>
 <g>
  
 </g>
</svg>
