<svg xmlns="http://www.w3.org/2000/svg" viewBox="0 0 48 48">
 <defs>
  <linearGradient id="linearGradient3764" x1="1" x2="47" gradientUnits="userSpaceOnUse" gradientTransform="matrix(0,-1,1,0,-1.5e-6,47.999998)">
   <stop style="stop-color:#60e6cb;stop-opacity:1"/>
   <stop offset="1" style="stop-color:#71e9d2;stop-opacity:1"/>
  </linearGradient>
 </defs>
 <g>
  
  
  
 </g>
 <g>
  <path d="m 47,24 C 47,46.703 46.703,47 24,47 1.297,47 1,46.703 1,24 1,1.297 1.297,1 24,1 46.703,1 47,1.297 47,24 z" style="fill:url(#linearGradient3764);fill-opacity:1"/>
 </g>
 <g>
  
 </g>
 <g transform="translate(0,0.008)">
  <g>
   <g transform="translate(1,1)">
    <g style="opacity:0.1">
     <!-- color: #1ac8ef -->
     <g>
      <path d="m 15 11.996 17.996 0 c 1.656 0 3 1.344 3 3 l 0 17.996 c 0 1.656 -1.344 3 -3 3 l -17.996 0 c -1.66 0 -3 -1.344 -3 -3 l 0 -17.996 c 0 -1.66 1.344 -3 3 -3 m 0 0" style="fill:#000;fill-opacity:1;stroke:none;fill-rule:nonzero"/>
      <path d="m 27 24 c 0 1.656 -1.344 3 -3 3 -1.66 0 -3 -1.344 -3 -3 0 -1.66 1.34 -3 3 -3 1.656 0 3 1.34 3 3 m 0 0" style="fill:#000;fill-opacity:1;stroke:none;fill-rule:nonzero"/>
      <path d="m 33 18 c 0 1.656 -1.344 3 -3 3 -1.66 0 -3 -1.344 -3 -3 0 -1.66 1.34 -3 3 -3 1.656 0 3 1.34 3 3 m 0 0" style="fill:#000;fill-opacity:1;stroke:none;fill-rule:nonzero"/>
      <path d="m 21 30 c 0 1.656 -1.344 3 -3 3 -1.66 0 -3 -1.344 -3 -3 0 -1.66 1.34 -3 3 -3 1.656 0 3 1.34 3 3 m 0 0" style="fill:#000;fill-opacity:1;stroke:none;fill-rule:nonzero"/>
     </g>
    </g>
   </g>
  </g>
 </g>
 <g transform="translate(0,0.008)">
  <g>
   <!-- color: #1ac8ef -->
   <g>
    <path d="m 15 11.996 17.996 0 c 1.656 0 3 1.344 3 3 l 0 17.996 c 0 1.656 -1.344 3 -3 3 l -17.996 0 c -1.66 0 -3 -1.344 -3 -3 l 0 -17.996 c 0 -1.66 1.344 -3 3 -3 m 0 0" style="fill:#d13939;fill-opacity:1;stroke:none;fill-rule:nonzero"/>
    <path d="m 21 24 c 0 1.656 1.344 3 3 3 1.66 0 3 -1.344 3 -3 0 -1.66 -1.34 -3 -3 -3 -1.656 0 -3 1.34 -3 3 m 0 0" style="fill:#e6e6e6;fill-opacity:1;stroke:none;fill-rule:nonzero"/>
    <path d="m 15 18 c 0 1.656 1.344 3 3 3 1.66 0 3 -1.344 3 -3 0 -1.66 -1.34 -3 -3 -3 -1.656 0 -3 1.34 -3 3 m 0 0" style="fill:#e6e6e6;fill-opacity:1;stroke:none;fill-rule:nonzero"/>
    <path d="m 27 30 c 0 1.656 1.344 3 3 3 1.66 0 3 -1.344 3 -3 0 -1.66 -1.34 -3 -3 -3 -1.656 0 -3 1.34 -3 3 m 0 0" style="fill:#e6e6e6;fill-opacity:1;stroke:none;fill-rule:nonzero"/>
   </g>
  </g>
 </g>
</svg>
