<svg viewBox="0 0 48 48" xmlns="http://www.w3.org/2000/svg" xmlns:xlink="http://www.w3.org/1999/xlink">
  <linearGradient id="a" gradientTransform="matrix(0 -1 1 0 -.0000015 47.999998)" gradientUnits="userSpaceOnUse" x1="1" x2="47">
    <stop offset="0" stop-color="#f9f1c3"/>
    <stop offset="1" stop-color="#fbf5d5"/>
  </linearGradient>
  <path d="m47 24c0 22.703-.297 23-23 23-22.703 0-23-.297-23-23 0-22.703.297-23 23-23 22.703 0 23 .297 23 23z" fill="url(#a)"/>
  <path d="m24 1v7h-7v-5.906c-.337.108-.67.221-1 .344v5.563h-7v-1.438c-.346.298-.673.62-1 .938v.5h-.5c-.318.327-.64.654-.938 1h1.438v7h-5.563c-.123.33-.236.663-.344 1h5.906v7h-7c0 .334.017.669.031 1h6.969v7h-5.563c.127.342.264.666.406 1h5.156v7h-.5c.481.496.976.986 1.5 1.438v-.438h7v4.563c.33.123.663.236 1 .344v-4.906h7v6c .334 0 .669-.017 1-.031v-5.969h7v4.563c.342-.127.666-.264 1-.406v-4.156h6.5c.522-.476 1.024-.978 1.5-1.5v-6.5h4.156c.142-.334.279-.658.406-1h-4.563v-7h5.969c.014-.331.031-.666.031-1h-6v-7h4.906c-.108-.337-.221-.67-.344-1h-4.563v-7h .438c-.451-.524-.941-1.019-1.438-1.5v.5h-7v-5.156c-.334-.142-.658-.279-1-.406v5.563h-7v-6.969c-.331-.014-.666-.031-1-.031zm-15 8h7v7h-7zm8 0h7v7h-7zm8 0h7v7h-7zm8 0h7v7h-7zm-24 8h7v7h-7zm8 0h7v7h-7zm8 0h7v7h-7zm8 0h7v7h-7zm-24 8h7v7h-7zm8 0h7v7h-7zm8 0h7v7h-7zm8 0h7v7h-7zm-24 8h7v7h-7zm8 0h7v7h-7zm8 0h7v7h-7zm8 0h7v7h-7z" fill="#e8deae"/>
  <path d="m27.07 20.716h2.755c.644 0 .965 0 .965-.573 0-.315-.322-.315-.862-.315h-2.665l.669-3.263c.135-.596.586-2.621.779-2.965.29-.545.83-.975 1.506-.975.122 0 .959 0 1.57.522-1.409.103-1.731 1.107-1.731 1.537 0 .654.573.998 1.191.998.83 0 1.757-.631 1.757-1.715 0-1.313-1.48-1.967-2.787-1.967-1.094 0-3.115.51-4.074 3.337-.187.602-.29.889-1.056 4.49h-2.208c-.618 0-.965 0-.965.539 0 .35.29.35.895.35h2.117l-2.414 11.28c-.573 2.77-1.113 5.379-2.787 5.379-.129 0-.92 0-1.538-.522 1.48-.08 1.763-1.112 1.763-1.543 0-.654-.573-1-1.191-1-.83 0-1.757.631-1.757 1.72 0 1.285 1.409 1.973 2.722 1.973 1.763 0 3.051-1.686 3.623-2.775 1.023-1.801 1.77-5.253 1.802-5.459z" opacity=".1"/>
  <path d="m26.07 19.716h2.755c.644 0 .965 0 .965-.573 0-.315-.322-.315-.862-.315h-2.665l.669-3.263c.135-.596.586-2.621.779-2.965.29-.545.83-.975 1.506-.975.122 0 .959 0 1.57.522-1.409.103-1.731 1.107-1.731 1.537 0 .654.573.998 1.191.998.83 0 1.757-.631 1.757-1.715 0-1.313-1.48-1.967-2.787-1.967-1.094 0-3.115.51-4.074 3.337-.187.602-.29.889-1.056 4.49h-2.208c-.618 0-.965 0-.965.539 0 .35.29.35.895.35h2.117l-2.414 11.28c-.573 2.77-1.113 5.379-2.787 5.379-.129 0-.92 0-1.538-.522 1.48-.08 1.763-1.112 1.763-1.543 0-.654-.573-1-1.191-1-.83 0-1.757.631-1.757 1.72 0 1.285 1.409 1.973 2.722 1.973 1.763 0 3.051-1.686 3.623-2.775 1.023-1.801 1.77-5.253 1.802-5.459z" fill="#383838"/>
</svg>
