<svg viewBox="0 0 48 48" xmlns="http://www.w3.org/2000/svg" xmlns:xlink="http://www.w3.org/1999/xlink">
  <linearGradient id="a" gradientTransform="matrix(0 -1 1 0 -.0000015 47.999998)" gradientUnits="userSpaceOnUse" x1="1" x2="47">
    <stop offset="0" stop-color="#e4e4e4"/>
    <stop offset="1" stop-color="#eee"/>
  </linearGradient>
  <path d="m47 24c0 22.703-.297 23-23 23-22.703 0-23-.297-23-23 0-22.703.297-23 23-23 22.703 0 23 .297 23 23z" fill="url(#a)"/>
  <path d="m30.48 35.59l-.676-3.301h-.164c-1.117 1.453-2.238 2.438-3.359 2.965-1.102.504-2.492.762-4.156.762-2.227 0-3.973-.594-5.242-1.781-1.258-1.184-1.883-2.871-1.883-5.059 0-4.684 3.625-7.141 10.871-7.367l3.809-.125v-1.441c0-1.82-.379-3.16-1.145-4.02-.754-.875-1.961-1.313-3.625-1.313-1.871 0-3.988.594-6.348 1.777l-1.047-2.688c1.105-.621 2.313-1.109 3.625-1.461 1.324-.355 2.648-.531 3.973-.531 2.676 0 4.656.613 5.938 1.84 1.301 1.23 1.945 3.195 1.945 5.906v15.828h-2.516m-7.68-2.477c2.117 0 3.773-.602 4.977-1.801 1.215-1.199 1.82-2.875 1.82-5.04v-2.094l-3.395.148c-2.703.098-4.656.535-5.859 1.313-1.188.762-1.777 1.953-1.777 3.574 0 1.27.367 2.238 1.102 2.898.754.664 1.797.992 3.137.992" opacity=".1" transform="translate(1 1)"/>
  <path d="m30.48 35.59l-.676-3.301h-.164c-1.117 1.453-2.238 2.438-3.359 2.965-1.102.504-2.492.762-4.156.762-2.227 0-3.973-.594-5.242-1.781-1.258-1.184-1.883-2.871-1.883-5.059 0-4.684 3.625-7.141 10.871-7.367l3.809-.125v-1.441c0-1.82-.379-3.16-1.145-4.02-.754-.875-1.961-1.313-3.625-1.313-1.871 0-3.988.594-6.348 1.777l-1.047-2.688c1.105-.621 2.313-1.109 3.625-1.461 1.324-.355 2.648-.531 3.973-.531 2.676 0 4.656.613 5.938 1.84 1.301 1.23 1.945 3.195 1.945 5.906v15.828h-2.516m-7.68-2.477c2.117 0 3.773-.602 4.977-1.801 1.215-1.199 1.82-2.875 1.82-5.04v-2.094l-3.395.148c-2.703.098-4.656.535-5.859 1.313-1.188.762-1.777 1.953-1.777 3.574 0 1.27.367 2.238 1.102 2.898.754.664 1.797.992 3.137.992" fill="#36a321"/>
</svg>
