<svg viewBox="0 0 48 48" xmlns="http://www.w3.org/2000/svg" xmlns:xlink="http://www.w3.org/1999/xlink">
  <linearGradient id="a" gradientTransform="matrix(0 -1 1 0 -.0000015 47.999998)" gradientUnits="userSpaceOnUse" x1="1" x2="47">
    <stop offset="0" stop-color="#e6992a"/>
    <stop offset="1" stop-color="#e8a23b"/>
  </linearGradient>
  <path d="m47 24c0 22.703-.297 23-23 23-22.703 0-23-.297-23-23 0-22.703.297-23 23-23 22.703 0 23 .297 23 23z" fill="url(#a)"/>
  <g transform="translate(1 2)">
    <path d="m23.8 15c-.517.556-1.1 1.177-1.75 1.864-.65.671-1.333 1.366-2.05 2.085-.7.703-1.4 1.398-2.1 2.085-.7.687-1.358 1.325-1.975 1.913.717.491 1.475 1.096 2.275 1.815.8.72 1.583 1.488 2.35 2.306.767.818 1.483 1.652 2.15 2.502.683.85 1.25 1.66 1.7 2.429h-2.249c-.5-.769-1.075-1.537-1.725-2.306-.65-.785-1.342-1.529-2.075-2.232-.717-.72-1.45-1.382-2.2-1.987-.733-.605-1.45-1.12-2.15-1.545v8.07h-2v-17h2v7.506c.583-.54 1.225-1.145 1.925-1.815.7-.687 1.392-1.374 2.075-2.061.683-.687 1.325-1.341 1.925-1.962.617-.638 1.133-1.194 1.55-1.668z" opacity=".1"/>
    <path d="m38 30v2h-11v-17h2v15z" opacity=".1"/>
  </g>
  <path d="m23.8 16c-.517.556-1.1 1.177-1.75 1.864-.65.671-1.333 1.366-2.05 2.085-.7.703-1.4 1.398-2.1 2.085-.7.687-1.358 1.325-1.975 1.913.717.491 1.475 1.096 2.275 1.815.8.72 1.583 1.488 2.35 2.306.767.818 1.483 1.652 2.15 2.502.683.85 1.25 1.66 1.7 2.429h-2.249c-.5-.769-1.075-1.537-1.725-2.306-.65-.785-1.342-1.529-2.075-2.232-.717-.72-1.45-1.382-2.2-1.987-.733-.605-1.45-1.12-2.15-1.545v8.07h-2v-17h2v7.506c.583-.54 1.225-1.145 1.925-1.815.7-.687 1.392-1.374 2.075-2.061.683-.687 1.325-1.341 1.925-1.962.617-.638 1.133-1.194 1.55-1.668z" fill="#2d2d2d"/>
  <path d="m38 31v2h-11v-17h2v15z" fill="#2d2d2d"/>
</svg>
