<svg xmlns="http://www.w3.org/2000/svg" viewBox="0 0 48 48">
 <defs>
  <linearGradient id="linearGradient3958" y1="48" x2="0" y2="0.135" gradientUnits="userSpaceOnUse">
   <stop style="stop-color:#c9c9df;stop-opacity:1"/>
   <stop offset="1" style="stop-color:#d5d5e7;stop-opacity:1"/>
  </linearGradient>
 </defs>
 <g>
  
  
  
 </g>
 <g>
  <path d="m 24 1 c 22.703 0 23 0.297 23 23 c 0 22.703 -0.297 23 -23 23 -22.703 0 -23 -0.297 -23 -23 0 -22.703 0.297 -23 23 -23 z" style="fill:url(#linearGradient3958);fill-opacity:1"/>
 </g>
 <g>
  
 </g>
 <g>
  <g>
   <path d="m 16 12 -4 4 4 4 4 -4 -4 -4 z m 4 4 4 4 4 -4 -4 -4 -4 4 z m 8 0 4 4 4 -4 -4 -4 -4 4 z m 4 4 -4 4 4 4 4 -4 -4 -4 z m 0 8 -4 4 4 4 4 -4 -4 -4 z m -4 4 -4 -4 -4 4 4 4 4 -4 z m -8 0 -4 -4 -4 4 4 4 4 -4 z m -4 -4 4 -4 -4 -4 -4 4 4 4 z m 4 -4 4 4 4 -4 -4 -4 -4 4 z" style="fill:#909090;fill-opacity:1;stroke:none;fill-rule:evenodd"/>
   <path d="m 33 14 l -3 3 l 3 3 l 3 -3 l -3 -3 z m -4 4 l -3 3 l 3 3 l 3 -3 l -3 -3 z m -4 4 l -3 3 l 3 3 l 3 -3 l -3 -3 z m -4 4 l -3 3 l 3 3 l 3 -3 l -3 -3 z m -4 4 l -3 3 l 3 3 l 3 -3 l -3 -3 z" style="fill:#000;fill-opacity:0.098;stroke:none;fill-rule:evenodd"/>
   <path d="m 32 13 l -3 3 l 3 3 l 3 -3 l -3 -3 z m -4 4 l -3 3 l 3 3 l 3 -3 l -3 -3 z m -4 4 l -3 3 l 3 3 l 3 -3 l -3 -3 z m -4 4 l -3 3 l 3 3 l 3 -3 l -3 -3 z m -4 4 l -3 3 l 3 3 l 3 -3 l -3 -3 z" style="fill:#f23a3a;fill-opacity:1;stroke:none;fill-rule:evenodd"/>
  </g>
 </g>
</svg>
