<svg xmlns="http://www.w3.org/2000/svg" viewBox="0 0 48 48">
 <defs>
  <linearGradient id="linearGradient3958" y1="48" x2="0" y2="0.135" gradientUnits="userSpaceOnUse">
   <stop style="stop-color:#c9c9df;stop-opacity:1"/>
   <stop offset="1" style="stop-color:#d5d5e7;stop-opacity:1"/>
  </linearGradient>
 </defs>
 <g>
  
  
  
 </g>
 <g>
  <path d="m 24 1 c 22.703 0 23 0.297 23 23 c 0 22.703 -0.297 23 -23 23 -22.703 0 -23 -0.297 -23 -23 0 -22.703 0.297 -23 23 -23 z" style="fill:url(#linearGradient3958);fill-opacity:1"/>
 </g>
 <g>
  
 </g>
 <g transform="matrix(0.70710678,-0.70710678,0.70710678,0.70710678,3.7883407,31.853332)">
  <path d="M 34.537 10.153 A 8.916 8.916 0 0 0 25.621 1.237 8.916 8.916 0 0 0 16.771 9.162 l -6.795 0 0 -0.495 -7.03 0 0 2.972 7.03 0 0 -0.495 6.789 0 a 8.916 8.916 0 0 0 8.856 7.925 8.916 8.916 0 0 0 8.916 -8.916 z m -1.683 0 a 7.232 7.232 0 0 1 -7.233 7.233 7.232 7.232 0 0 1 -7.233 -7.233 7.232 7.232 0 0 1 7.233 -7.233 7.232 7.232 0 0 1 7.233 7.233 z" style="fill:#000;fill-opacity:0.098;stroke:none;fill-rule:nonzero"/>
  <g>
   <circle transform="matrix(0.70710678,0.70710678,-0.70710678,0.70710678,19.844946,-25.202469)" cx="28" cy="20" r="8" style="fill:#000;fill-opacity:0.129"/>
   <path d="M 34.537 8.739 A 8.916 8.916 0 0 0 25.621 -0.177 8.916 8.916 0 0 0 16.771 7.748 l -6.795 0 0 -0.495 -7.03 0 0 2.972 7.03 0 0 -0.495 6.789 0 a 8.916 8.916 0 0 0 8.856 7.925 8.916 8.916 0 0 0 8.916 -8.916 z m -1.683 0 a 7.232 7.232 0 0 1 -7.233 7.233 7.232 7.232 0 0 1 -7.233 -7.233 7.232 7.232 0 0 1 7.233 -7.233 7.232 7.232 0 0 1 7.233 7.233 z" style="fill:#323232;fill-opacity:1;stroke:none;fill-rule:nonzero"/>
  </g>
 </g>
</svg>
