<svg xmlns="http://www.w3.org/2000/svg" viewBox="0 0 48 48">
 <defs>
  <linearGradient id="linearGradient3845" y1="47" x2="0" y2="1" gradientUnits="userSpaceOnUse">
   <stop style="stop-color:#b33c29;stop-opacity:1"/>
   <stop offset="1" style="stop-color:#c3412d;stop-opacity:1"/>
  </linearGradient>
 </defs>
 <g>
  
  
  
 </g>
 <g>
  <path d="m 24 1 c 22.703 0 23 0.297 23 23 c 0 22.703 -0.297 23 -23 23 -22.703 0 -23 -0.297 -23 -23 0 -22.703 0.297 -23 23 -23 z" style="fill:url(#linearGradient3845);fill-opacity:1"/>
 </g>
 <g>
  
 </g>
 <g>
  <path d="m 24.33 37.801 c -0.424 -0.473 -0.33 -1.801 -0.33 -6.11 l 0 -4.69 c -2 0.252 -3 0.525 -4.253 0.98 -0.518 0.64 -0.747 0.738 -1.211 0.283 -0.379 -0.399 -0.61 -1.232 -1.61 -4.609 -0.281 -0.947 -0.736 -2.219 -1.012 -2.826 -0.603 -1.326 -0.56 -1.627 0.212 -1.484 0.292 0.054 0.812 0.213 1.155 0.414 c 0.431 0.241 0.719 0.241 1.318 0.191 1.748 -0.373 3.401 -0.701 5.401 -1.15 l 0 -2.215 c 0 -2.585 -0.262 -2.437 -0.638 -3.167 -0.731 -1.418 -0.278 -1.805 1.189 -1.015 1.171 0.63 1.76 1.315 1.639 1.909 c -0.05 0.245 -0.19 1.191 -0.19 2.274 l 0 1.865 c 2 -0.5 4 -0.843 5.789 -1.05 0.735 0 2.711 1.514 2.711 2.072 0 0.155 -0.164 0.498 -0.364 0.763 -0.337 0.446 -1.073 2.065 -1.792 3.663 -0.167 0.371 -0.303 0.936 -0.303 1.256 0 0.455 -0.053 0.847 -0.245 0.847 -1.326 0 -5.379 0.679 -5.796 0.76 0 7.221 0 10.24 -0.873 11.09 -0.228 0.208 -0.569 0.204 -0.797 -0.051 z m -0.33 -12.801 l 0 -4.6 c 0 0 -3.676 0.651 -5.03 1 -0.746 0.192 -0.624 0.6 0.266 3.873 0.148 0.542 0.353 0.712 0.683 0.627 c 1.082 -0.278 2.082 -0.543 4.082 -0.9 m 6.3 -1 c 0.324 -0.154 0.285 -0.142 0.75 -2.266 0.375 -1.712 0.534 -2.319 0.35 -2.434 -0.113 -0.224 -3.4 0.232 -5.4 0.7 l 0 4.7 c 2 -0.357 3.338 -0.518 4.3 -0.7 z" style="fill:#000;fill-opacity:0.098"/>
  <path d="m 23.33 36.801 c -0.424 -0.473 -0.33 -1.801 -0.33 -6.11 l 0 -4.69 c -2 0.252 -3 0.525 -4.253 0.98 -0.518 0.64 -0.747 0.738 -1.211 0.283 -0.379 -0.399 -0.61 -1.232 -1.61 -4.609 -0.281 -0.947 -0.736 -2.219 -1.012 -2.826 -0.603 -1.326 -0.56 -1.627 0.212 -1.484 0.292 0.054 0.812 0.213 1.155 0.414 c 0.431 0.241 0.719 0.241 1.318 0.191 1.748 -0.373 3.401 -0.701 5.401 -1.15 l 0 -2.215 c 0 -2.585 -0.262 -2.437 -0.638 -3.167 c -0.731 -1.418 -0.278 -1.805 1.189 -1.015 1.171 0.63 1.76 1.315 1.639 1.909 c -0.05 0.245 -0.19 1.191 -0.19 2.274 l 0 1.865 c 2 -0.5 4 -0.843 5.789 -1.05 0.735 0 2.711 1.514 2.711 2.072 0 0.155 -0.164 0.498 -0.364 0.763 -0.337 0.446 -1.073 2.065 -1.792 3.663 -0.167 0.371 -0.303 0.936 -0.303 1.256 c 0 0.455 -0.053 0.847 -0.245 0.847 -1.326 0 -5.379 0.679 -5.796 0.76 0 7.221 0 10.24 -0.873 11.09 -0.228 0.208 -0.569 0.204 -0.797 -0.051 m -0.33 -12.801 0 -4.6 c 0 0 -3.676 0.651 -5.03 1 -0.746 0.192 -0.624 0.6 0.266 3.873 0.148 0.542 0.353 0.712 0.683 0.627 c 1.082 -0.278 2.082 -0.543 4.082 -0.9 m 6.3 -1 c 0.324 -0.154 0.285 -0.142 0.75 -2.266 c 0.375 -1.713 0.534 -2.319 0.35 -2.434 -0.113 -0.224 -3.4 0.232 -5.4 0.7 l 0 4.7 c 2 -0.357 3.338 -0.518 4.3 -0.7 z" style="fill:#e6e6e6"/>
 </g>
</svg>
