<svg xmlns="http://www.w3.org/2000/svg" viewBox="0 0 48 48">
 <defs>
  <linearGradient id="linearGradient3797" y1="47" x2="0" y2="1" gradientUnits="userSpaceOnUse">
   <stop style="stop-color:#2483cc;stop-opacity:1"/>
   <stop offset="1" style="stop-color:#50a7e9;stop-opacity:1"/>
  </linearGradient>
 </defs>
 <g>
  
  
  
 </g>
 <path d="M 24,1 C 46.703,1 47,1.297 47,24 47,46.703 46.703,47 24,47 1.297,47 1,46.703 1,24 1,1.297 1.297,1 24,1 z" style="fill:url(#linearGradient3797);fill-opacity:1"/>
 <g>
  
 </g>
 <path d="M 25 28 A 2 2 0 0 0 23.27 29 L 26.729 29 A 2 2 0 0 0 25 28 z" style="fill:#000;fill-opacity:0.098;stroke:none"/>
 <g>
  <g>
   <path d="m 25 11 c -2.5 0 -7 7.345 -7 11.5 l 0 4.779 c -1.316 1.399 -2 2.721 -2 2.721 l 2 0 0 2 c 0 4.155 2.845 5 7 5 4.155 0 7 -0.845 7 -5 l 0 -2 2 0 c 0 0 -0.684 -1.322 -2 -2.721 l 0 -4.779 c 0 -4.155 -4.5 -11.5 -7 -11.5" style="fill:#000;fill-opacity:0.098"/>
   <g>
    <path d="m 24,10 c 2.5,0 7,7.345 7,11.5 l 0,9.5 c 0,4.155 -2.845,5 -7,5 -4.155,0 -7,-0.845 -7,-5 l 0,-9.5 C 17,17.345 21.5,10 24,10 Z" style="fill:#d4aa00;fill-opacity:1"/>
    <path d="m 24 11 c 2.143 0 6 6.565 6 10.4 l 0 9.4 c 0 3.835 -2.439 4.2 -6 4.2 -3.561 0 -6 -0.365 -6 -4.2 l 0 -9.4 c 0 -3.835 3.857 -10.4 6 -10.4" style="fill:#a3653b;fill-opacity:1"/>
    <path d="M 25 28 A 2 2 0 0 0 23.27 29 L 17 29 L 17 30 L 23 30 A 2 2 0 0 0 25 32 A 2 2 0 0 0 27 30 L 31 30 L 31 29 L 26.729 29 A 2 2 0 0 0 25 28 z" style="fill:#000;fill-opacity:0.098"/>
    <path d="m 17 25 14 0 c 0 0 -2 -5 -7 -5 -5 0 -7 5 -7 5 z" style="fill:#d3d3d3;fill-opacity:1;stroke:none"/>
    <rect y="25" x="29" height="1" width="2" style="fill:#000;fill-opacity:0.098"/>
    <path d="m 33 29 -18 0 c 0 0 3 -6 9 -6 6 0 9 6 9 6 z" style="fill:#ececec;stroke:none"/>
    <circle r="2" cy="29" cx="24" style="fill:#cc7c45;fill-opacity:1"/>
   </g>
  </g>
 </g>
</svg>
