<svg viewBox="0 0 48 48" xmlns="http://www.w3.org/2000/svg" xmlns:xlink="http://www.w3.org/1999/xlink">
  <linearGradient id="a" gradientUnits="userSpaceOnUse" x2="0" y1="47" y2="1">
    <stop offset="0" stop-color="#2483cc"/>
    <stop offset="1" stop-color="#50a7e9"/>
  </linearGradient>
  <path d="m24 1c22.703 0 23 .297 23 23 0 22.703-.297 23-23 23-22.703 0-23-.297-23-23 0-22.703.297-23 23-23z" fill="url(#a)"/>
  <path d="m25 28a2 2 0 0 0-1.73 1h3.459a2 2 0 0 0-1.729-1z" fill-opacity=".098"/>
  <path d="m25 11c-2.5 0-7 7.345-7 11.5v4.779c-1.316 1.399-2 2.721-2 2.721h2v2c0 4.155 2.845 5 7 5 4.155 0 7-.845 7-5v-2h2c0 0-.684-1.322-2-2.721v-4.779c0-4.155-4.5-11.5-7-11.5" fill-opacity=".098"/>
  <path d="m24 10c2.5 0 7 7.345 7 11.5v9.5c0 4.155-2.845 5-7 5-4.155 0-7-.845-7-5v-9.5c0-4.155 4.5-11.5 7-11.5z" fill="#d4aa00"/>
  <path d="m24 11c2.143 0 6 6.565 6 10.4v9.4c0 3.835-2.439 4.2-6 4.2-3.561 0-6-.365-6-4.2v-9.4c0-3.835 3.857-10.4 6-10.4" fill="#a3653b"/>
  <path d="m25 28a2 2 0 0 0-1.73 1h-6.27v1h6a2 2 0 0 0 2 2 2 2 0 0 0  2-2h4v-1h-4.271a2 2 0 0 0-1.729-1z" fill-opacity=".098"/>
  <path d="m17 25h14c0 0-2-5-7-5-5 0-7 5-7 5z" fill="#d3d3d3"/>
  <path d="m29 25h2v1h-2z" fill-opacity=".098"/>
  <path d="m33 29h-18c0 0 3-6 9-6 6 0 9 6 9 6z" fill="#ececec"/>
  <circle cx="24" cy="29" fill="#cc7c45" r="2"/>
</svg>
