<svg viewBox="0 0 48 48" xmlns="http://www.w3.org/2000/svg" xmlns:xlink="http://www.w3.org/1999/xlink">
  <linearGradient id="a" gradientTransform="matrix(0 -1 1 0 -.0000015 47.999998)" gradientUnits="userSpaceOnUse" x1="1" x2="47">
    <stop offset="0" stop-color="#97b2d3"/>
    <stop offset="1" stop-color="#a5bcd9"/>
  </linearGradient>
  <path d="m47 24c0 22.703-.297 23-23 23-22.703 0-23-.297-23-23 0-22.703.297-23 23-23 22.703 0 23 .297 23 23z" fill="url(#a)"/>
  <path d="m35.59 13l-6.662 6.654c-2.194-1.528-5.233-1.324-7.199.629l7.693 8.262c.092-.077.176-.158.264-.242 1.974-1.96 2.193-5.02.656-7.23l6.658-6.662-1.41-1.41m-15.01 8.455c-.088.077-.175.154-.26.238-1.978 1.961-2.196 5.02-.658 7.232l-6.66 6.66 1.414 1.414 6.656-6.664c2.196 1.529 5.234 1.331 7.201-.623l-7.693-8.258z" fill-opacity=".098"/>
  <path d="m34.59 12l-6.662 6.654c-2.194-1.528-5.233-1.324-7.199.629l7.693 8.262c.092-.077.176-.158.264-.242 1.974-1.96 2.193-5.02.656-7.23l6.658-6.662-1.41-1.41m-15.01 8.455c-.088.077-.175.154-.26.238-1.978 1.961-2.196 5.02-.658 7.232l-6.66 6.66 1.414 1.414 6.656-6.664c2.196 1.529 5.234 1.331 7.201-.623l-7.693-8.258z" fill="#323232"/>
</svg>
