<svg viewBox="0 0 48 48" xmlns="http://www.w3.org/2000/svg" xmlns:xlink="http://www.w3.org/1999/xlink">
  <linearGradient id="a" gradientTransform="matrix(0 -1 1 0 -.0000015 47.999998)" gradientUnits="userSpaceOnUse" x1="1" x2="47">
    <stop offset="0" stop-color="#e4e4e4"/>
    <stop offset="1" stop-color="#eee"/>
  </linearGradient>
  <path d="m47 24c0 22.703-.297 23-23 23-22.703 0-23-.297-23-23 0-22.703.297-23 23-23 22.703 0 23 .297 23 23z" fill="url(#a)"/>
  <path d="m23.22 11c-.333 0-.822.532-1.465 1.596-.963-.576-2.442-1.127-3.725-1.121.111.905.166 1.517.166 1.834 0 .385-.011.679-.033.883-1.121 4.03-3.414 6.269-4.158 10.289-.068.367.301.611.434.814.399.611 1.074 1.042 2.027 1.291.444.113.666.17.666.17.288 0 .544-.147.766-.441 0 .702.278 1.053.832 1.053.222 0 .387-.09.498-.271 1.14-1.786 2.12-3.437 4.391-4.381-.573 2.887-3.483 4.697-3.611 8.285h-1.51c-.277 0-.5.223-.5.5v.5l-2 5h22l-2-5v-.5c0-.277-.223-.5-.5-.5h-1.49c0-8-1.999-16-8.891-17.25-.335-1.038-.679-2.092-1.896-2.75m1.529 4.244c5.04.235 7.553 7.089 7.617 12.12v1.256c-.044.589-.243.883-.598.883-.421 0-.633-.498-.633-1.494-.022-5.138-1.417-10.341-6.324-11.834-.464-.099-.494-.47-.494-.561 0-.249.143-.373.432-.373zm-4.689 1.359c.532 0 .799.147.799.441 0 .249-.167.543-.5.883-.621.656-1.209.984-1.764.984-.288 0-.432-.204-.432-.611.007-.713.742-1.606 1.896-1.697zm-4.03 6.791l-.006.001c.172.537-.279 1.264-1.025 1.381-.155-.611.068-1.2 1.031-1.391z" fill-opacity=".098"/>
  <path d="m22.22 10c-.333 0-.822.532-1.465 1.596-.963-.576-2.442-1.127-3.725-1.121.111.905.166 1.517.166 1.834 0 .385-.011.679-.033.883-1.121 4.03-3.414 6.269-4.158 10.289-.068.367.301.611.434.814.399.611 1.074 1.042 2.027 1.291.444.113.666.17.666.17.288 0 .544-.147.766-.441 0 .702.278 1.053.832 1.053.222 0 .387-.09.498-.271 1.14-1.786 2.12-3.437 4.391-4.381-.573 2.887-3.483 4.697-3.611 8.285h-1.51c-.277 0-.5.223-.5.5v.5l-2 5h22l-2-5v-.5c0-.277-.223-.5-.5-.5h-1.49c0-8-1.999-16-8.891-17.25-.335-1.038-.679-2.092-1.896-2.75m1.529 4.244c5.04.235 7.553 7.089 7.617 12.12v1.256c-.044.589-.243.883-.598.883-.421 0-.633-.498-.633-1.494-.022-5.138-1.417-10.341-6.324-11.834-.464-.099-.494-.47-.494-.561 0-.249.143-.373.432-.373zm-4.689 1.359c.532 0 .799.147.799.441 0 .249-.167.543-.5.883-.621.656-1.209.984-1.764.984-.288 0-.432-.204-.432-.611.007-.713.742-1.606 1.896-1.697zm-4.03 6.791l-.006.001c.172.537-.279 1.264-1.025 1.381-.155-.611.068-1.2 1.031-1.391z" fill="#292929"/>
</svg>
