<svg xmlns="http://www.w3.org/2000/svg" viewBox="0 0 48 48">
 <defs>
  <linearGradient id="linearGradient3845" y1="47" x2="0" y2="1" gradientUnits="userSpaceOnUse">
   <stop style="stop-color:#694b7f;stop-opacity:1"/>
   <stop offset="1" style="stop-color:#73528c;stop-opacity:1"/>
  </linearGradient>
 </defs>
 <g>
  
  
  
 </g>
 <g>
  <path d="m 24 1 c 22.703 0 23 0.297 23 23 c 0 22.703 -0.297 23 -23 23 -22.703 0 -23 -0.297 -23 -23 0 -22.703 0.297 -23 23 -23 z" style="fill:url(#linearGradient3845);fill-opacity:1"/>
 </g>
 <path d="m 39 24 a 15 15 0 0 1 -30 0 15 15 0 1 1 30 0 z" style="fill:#303030;fill-opacity:1;stroke:none;fill-rule:nonzero"/>
 <path d="m 40 25 a 15 15 0 0 1 -30 0 15 15 0 1 1 30 0 z" style="fill:#000;fill-opacity:0.118;stroke:none;fill-rule:nonzero"/>
 <g>
  
 </g>
 <path d="M 24 10 A 14 14 0 0 0 10 24 14 14 0 0 0 24 38 14 14 0 0 0 38 24 14 14 0 0 0 24 10 m 0 1 A 13 13 0 0 1 37 24 13 13 0 0 1 24 37 13 13 0 0 1 11 24 13 13 0 0 1 24 11 m 0 1 A 12 12 0 0 0 12 24 12 12 0 0 0 24 36 12 12 0 0 0 36 24 12 12 0 0 0 24 12 m 0 1 A 11 11 0 0 1 35 24 11 11 0 0 1 24 35 11 11 0 0 1 13 24 11 11 0 0 1 24 13 m 0 1 A 10 10 0 0 0 14 24 10 10 0 0 0 24 34 10 10 0 0 0 34 24 10 10 0 0 0 24 14 m 0 1 a 9 9 0 0 1 9 9 9 9 0 0 1 -9 9 9 9 0 0 1 -9 -9 9 9 0 0 1 9 -9 z m 0 1 a 8 8 0 0 0 -8 8 8 8 0 0 0 8 8 8 8 0 0 0 8 -8 8 8 0 0 0 -8 -8 z m 0 1 a 7 7 0 0 1 7 7 7 7 0 0 1 -7 7 7 7 0 0 1 -7 -7 7 7 0 0 1 7 -7 z m 0 1 a 6 6 0 0 0 -6 6 6 6 0 0 0 6 6 6 6 0 0 0 6 -6 6 6 0 0 0 -6 -6 z m 0 1 a 5 5 0 0 1 5 5 5 5 0 0 1 -5 5 5 5 0 0 1 -5 -5 5 5 0 0 1 5 -5 z m 0 1 a 4 4 0 0 0 -4 4 4 4 0 0 0 4 4 4 4 0 0 0 4 -4 4 4 0 0 0 -4 -4 z m 0 1 a 3 3 0 0 1 3 3 3 3 0 0 1 -3 3 3 3 0 0 1 -3 -3 3 3 0 0 1 3 -3 z" style="fill:#424242;opacity:1;fill-opacity:1;stroke:none"/>
 <path d="m 25 15 c -5.523 0 -10 3.999 -9.965 6.984 l -0.035 0.516 c 0 0.5 0.75 0.045 0.75 1.5 0 0.559 -0.75 1 -0.75 1.5 0 0.799 1 2.446 1 3.5 0 1 0.267 2.267 1 3 0.52 0.612 1.086 1.213 1.301 1.699 0.085 0.183 0.549 0.244 0.998 0.271 c -0.198 -0.592 -0.299 -1.257 -0.299 -1.971 l 0 -6 c 0 -0.725 0.102 -1.401 0.307 -2 l -0.506 0 c -0.25 0 -0.502 0.535 -0.602 1 l -0.449 0 -0.75 -1 c -0.35 -0.467 -0.161 -1 0 -1.5 0.488 -1.504 3 -4.5 8 -4.5 5 0 7.512 2.996 8 4.5 0.161 0.496 0.35 1.033 0 1.5 l -0.75 1 -0.449 0 c -0.1 -0.465 -0.352 -1 -0.602 -1 l -0.506 0 c 0.205 0.599 0.307 1.275 0.307 2 l 0 6 c 0 0.713 -0.101 1.379 -0.299 1.971 0.449 -0.028 0.913 -0.088 0.998 -0.271 c 0.215 -0.487 0.781 -1.087 1.301 -1.699 c 0.733 -0.733 1 -2 1 -3 0 -1.054 1 -2.701 1 -3.5 c 0 -0.5 -0.75 -0.941 -0.75 -1.5 0 -1.455 0.75 -1 0.75 -1.5 l -0.035 -0.516 c 0.035 -2.985 -4.442 -6.984 -9.965 -6.984 m -3.5 8 c -0.831 0 -1.5 1.338 -1.5 3 l 0 6 c 0 1.662 0.669 3 1.5 3 l 1 0 c 0.831 0 1.5 -1.338 1.5 -3 l 0 -6 c 0 -1.662 -0.669 -3 -1.5 -3 l -1 0 z m 6 0 c -0.831 0 -1.5 1.338 -1.5 3 l 0 6 c 0 1.662 0.669 3 1.5 3 l 1 0 c 0.831 0 1.5 -1.338 1.5 -3 l 0 -6 c 0 -1.662 -0.669 -3 -1.5 -3 l -1 0 z" style="fill:#000;opacity:0.1;fill-opacity:1;stroke:none"/>
 <rect width="4" height="12" x="25" y="22" ry="3" rx="1.5" style="fill:#736255;opacity:1;fill-opacity:1;stroke:none"/>
 <rect rx="1.5" ry="3" y="22" x="19" height="12" width="4" style="fill:#736255;opacity:1;fill-opacity:1;stroke:none"/>
 <path d="m 24 14 c -5.523 0 -10 3.999 -9.965 6.984 l -0.035 0.516 c 0 0.5 0.75 0.045 0.75 1.5 0 0.559 -0.75 1 -0.75 1.5 0 0.799 1 2.446 1 3.5 0 1 0.267 2.267 1 3 0.52 0.612 1.086 1.213 1.301 1.699 0.085 0.183 0.549 0.244 0.998 0.271 c -0.198 -0.592 -0.299 -1.257 -0.299 -1.971 l 0 -6 c 0 -0.725 0.102 -1.401 0.307 -2 l -0.506 0 c -0.25 0 -0.502 0.535 -0.602 1 l -0.449 0 -0.75 -1 c -0.35 -0.467 -0.161 -1 0 -1.5 0.488 -1.504 3 -4.5 8 -4.5 5 0 7.512 2.996 8 4.5 0.161 0.496 0.35 1.033 0 1.5 l -0.75 1 -0.449 0 c -0.1 -0.465 -0.352 -1 -0.602 -1 l -0.506 0 c 0.205 0.599 0.307 1.275 0.307 2 l 0 6 c 0 0.713 -0.101 1.379 -0.299 1.971 0.449 -0.028 0.913 -0.088 0.998 -0.271 c 0.215 -0.487 0.781 -1.087 1.301 -1.699 c 0.733 -0.733 1 -2 1 -3 0 -1.054 1 -2.701 1 -3.5 c 0 -0.5 -0.75 -0.941 -0.75 -1.5 0 -1.455 0.75 -1 0.75 -1.5 l -0.035 -0.516 c 0.035 -2.985 -4.442 -6.984 -9.965 -6.984" style="fill:#fcede4;opacity:1;fill-opacity:1;stroke:none"/>
</svg>
