<svg viewBox="0 0 48 48" xmlns="http://www.w3.org/2000/svg" xmlns:xlink="http://www.w3.org/1999/xlink">
  <linearGradient id="a" gradientUnits="userSpaceOnUse" x2="0" y1="1" y2="47">
    <stop offset="0" stop-color="#555"/>
    <stop offset="1" stop-color="#4b4b4b"/>
  </linearGradient>
  <path d="m24 1c22.703 0 23 .297 23 23 0 22.703-.297 23-23 23-22.703 0-23-.297-23-23 0-22.703.297-23 23-23z" fill="url(#a)"/>
  <path d="m25 13l-5 5v10l10-10zm8 8l-5 5 5 5 5-5zm-17 1l-4 4 4 4zm9 7l-5 5 5 5 5-5z" opacity=".1"/>
  <path d="m24 11l-5 5v10l10-10zm8 8l-5 5 5 5 5-5zm-17 1l-4 4 4 4zm9 7l-5 5 5 5 5-5z" fill="#5fbcd3"/>
</svg>
