<svg viewBox="0 0 48 48" xmlns="http://www.w3.org/2000/svg" xmlns:xlink="http://www.w3.org/1999/xlink">
  <linearGradient id="a" gradientUnits="userSpaceOnUse" x2="0" y1="47" y2="1">
    <stop offset="0" stop-color="#8ed97b"/>
    <stop offset="1" stop-color="#9bdd8b"/>
  </linearGradient>
  <path d="m24 1c22.703 0 23 .297 23 23 0 22.703-.297 23-23 23-22.703 0-23-.297-23-23 0-22.703.297-23 23-23z" fill="url(#a)"/>
  <g transform="matrix(.96114819 0 0 .97122245 .51664859 1.5730463)">
    <path d="m15.03 11.766c-.061.004-.122.02-.178.05l-1.63.867c-.226.12-.304.414-.174.657l5.601 10.532c.129.243.416.341.641.221l.225-.121c2.917 5.633 6 11.388 6.593 11.683 1.032.517 2.131 1.273 6.689.47 4.682-.825 4.577-1.436 4.92-2.643 1.066-4.139-1.651-5.07-4.083-3.401-1.369.873-2.692 1.855-4.08 2.827-.615.211-1.223.29-1.773.145-2.814-3.209-4.96-6.334-7.01-9.751l.144-.076c.226-.12.302-.412.173-.655l-5.599-10.532c-.097-.182-.282-.284-.463-.273z" fill-opacity=".098" fill-rule="evenodd"/>
    <path d="m12.943 12.06c0 0 10.964 21.983 12.13 22.565 1.032.517 2.131 1.271 6.689.468 4.682-.825 4.578-1.436 4.921-2.644 1.216-4.723-2.492-5.271-5.084-2.542-1.344 1.225-3.321 2.52-4.851 2.115-5.48-6.248-8.43-12.164-13.03-20.578" fill="#858585" fill-rule="evenodd"/>
    <path d="m31.602 29.718l-3.218 2.253c-3.749 2.68 1.707 2.688 2.865 2.524 1.985-.305 4.049-.619 4.555-1.897 1.152-4.304-1.617-4.977-4.202-2.881z" fill="#a6a6a6" fill-rule="evenodd"/>
    <rect fill="#595959" height="2.769" rx=".497" ry=".462" transform="matrix(.46947156 .88294759 -.88294759 .46947156 0 0)" width="12.923" x="16.01" y="-7.595"/>
  </g>
</svg>
