<svg viewBox="0 0 48 48" xmlns="http://www.w3.org/2000/svg" xmlns:xlink="http://www.w3.org/1999/xlink">
  <linearGradient id="a" gradientTransform="matrix(0 -1 1 0 -.0000015 47.999998)" gradientUnits="userSpaceOnUse" x1="1" x2="47">
    <stop offset="0" stop-color="#218de1"/>
    <stop offset="1" stop-color="#3396e3"/>
  </linearGradient>
  <path d="m47 24c0 22.703-.297 23-23 23-22.703 0-23-.297-23-23 0-22.703.297-23 23-23 22.703 0 23 .297 23 23z" fill="url(#a)"/>
  <path d="m25 10a15 15 0 0 0-15 15 15 15 0 0 0  15 15 15 15 0 0 0  15-15 15 15 0 0 0-15-15m0 2a13 13 0 0 1 6.898 2h-1.898l-8 10v-10h-3.92a13 13 0 0 1 6.92-2m-7 2.05v21.888a13 13 0 0 1-6-10.938 13 13 0 0 1  6-10.95m15.83 1.434a13 13 0 0 1 4.17 9.516 13 13 0 0 1-3.65 9.02l-6.932-10.416 6.412-8.124m-8.83 11.27l6 9.25h.918a13 13 0 0 1-6.918 2 13 13 0 0 1-6.9-2h3.9v-6z" opacity=".1"/>
  <path d="m24 9a15 15 0 0 0-15 15 15 15 0 0 0  15 15 15 15 0 0 0  15-15 15 15 0 0 0-15-15m0 2a13 13 0 0 1 13 13 13 13 0 0 1-13 13 13 13 0 0 1-13-13 13 13 0 0 1  13-13" fill="#f9f9f9"/>
  <path d="m17 13v22h4v-6l3-3.25 6 9.25h3l1-1-7.582-11.396 7.582-9.604h-5l-8 10v-10" fill="#f9f9f9"/>
</svg>
