<svg xmlns="http://www.w3.org/2000/svg" viewBox="0 0 48 48">
 <defs>
  <linearGradient id="linearGradient3764" x1="1" x2="47" gradientUnits="userSpaceOnUse" gradientTransform="matrix(0,-1,1,0,-1.5e-6,47.999998)">
   <stop style="stop-color:#218de1;stop-opacity:1"/>
   <stop offset="1" style="stop-color:#3396e3;stop-opacity:1"/>
  </linearGradient>
 </defs>
 <g>
  
  
  
 </g>
 <g>
  <path d="m 47,24 C 47,46.703 46.703,47 24,47 1.297,47 1,46.703 1,24 1,1.297 1.297,1 24,1 46.703,1 47,1.297 47,24 z" style="fill:url(#linearGradient3764);fill-opacity:1"/>
 </g>
 <g>
  
 </g>
 <path d="M 25 10 A 15 15 0 0 0 10 25 15 15 0 0 0 25 40 15 15 0 0 0 40 25 15 15 0 0 0 25 10 m 0 2 a 13 13 0 0 1 6.898 2 L 30 14 22 24 22 14 18.08 14 A 13 13 0 0 1 25 12 M 18 14.05 18 35.938 A 13 13 0 0 1 12 25 13 13 0 0 1 18 14.05 m 15.83 1.434 A 13 13 0 0 1 38 25 13 13 0 0 1 34.35 34.02 L 27.418 23.604 33.83 15.48 M 25 26.75 31 36 31.918 36 A 13 13 0 0 1 25 38 13 13 0 0 1 18.1 36 L 22 36 l 0 -6 3 -3.25 z" style="fill:#000;opacity:0.1;fill-opacity:1;stroke:none"/>
 <path d="M 24 9 A 15 15 0 0 0 9 24 15 15 0 0 0 24 39 15 15 0 0 0 39 24 15 15 0 0 0 24 9 m 0 2 A 13 13 0 0 1 37 24 13 13 0 0 1 24 37 13 13 0 0 1 11 24 13 13 0 0 1 24 11" style="fill:#f9f9f9;opacity:1;fill-opacity:1;stroke:none"/>
 <path d="m 17 13 0 22 4 0 0 -6 3 -3.25 6 9.25 3 0 1 -1 l -7.582 -11.396 7.582 -9.604 -5 0 -8 10 0 -10" style="fill:#f9f9f9;opacity:1;fill-opacity:1;stroke:none"/>
</svg>
