<svg xmlns="http://www.w3.org/2000/svg" viewBox="0 0 48 48">
 <defs>
  <linearGradient id="linearGradient3764" x1="1" x2="47" gradientUnits="userSpaceOnUse" gradientTransform="matrix(0,-1,1,0,-1.5e-6,47.999998)">
   <stop style="stop-color:#357ebd;stop-opacity:1"/>
   <stop offset="1" style="stop-color:#428bca;stop-opacity:1"/>
  </linearGradient>
 </defs>
 <g>
  
  
  
 </g>
 <g>
  <path d="m 47,24 C 47,46.703 46.703,47 24,47 1.297,47 1,46.703 1,24 1,1.297 1.297,1 24,1 46.703,1 47,1.297 47,24 z" style="fill:url(#linearGradient3764);fill-opacity:1"/>
 </g>
 <g>
  
 </g>
 <path d="m 28.5 13 a 8.5 8.5 0 0 0 -8.5 8.5 8.5 8.5 0 0 0 7.318 8.408 C 27.428 29.455 27.5 28.987 27.5 28.5 c 0 -0.201 -0.026 -0.396 -0.045 -0.592 A 6.5 6.5 0 0 1 22 21.5 6.5 6.5 0 0 1 28.5 15 l 6.5 0 0 6.5 a 6.5 6.5 0 0 1 -4.537 6.189 C 30.487 27.957 30.5 28.23 30.5 28.5 c 0 0.434 -0.036 0.858 -0.096 1.275 A 8.5 8.5 0 0 0 37 21.5 l 0 -8.5 -8.5 0 z m -5.83 7.09 C 22.561 20.542 22.5 21.01 22.5 21.5 c 0 0.2 0.017 0.397 0.037 0.592 A 6.5 6.5 0 0 1 28 28.5 6.5 6.5 0 0 1 21.5 35 l -6.5 0 0 -6.5 a 6.5 6.5 0 0 1 4.541 -6.191 C 19.517 22.04 19.5 21.773 19.5 21.5 c 0 -0.433 0.032 -0.858 0.092 -1.275 A 8.5 8.5 0 0 0 13 28.5 l 0 8.5 8.5 0 A 8.5 8.5 0 0 0 30 28.5 8.5 8.5 0 0 0 22.67 20.09" style="fill:#000;opacity:0.1;fill-opacity:1;stroke:none"/>
 <path d="m 21.67 19.09 c -0.109 0.452 -0.17 0.923 -0.17 1.41 c 0 0.2 0.017 0.397 0.037 0.592 a 6.5 6.5 0 0 1 5.463 6.408 6.5 6.5 0 0 1 -6.5 6.5 l -6.5 0 0 -6.5 a 6.5 6.5 0 0 1 4.541 -6.191 c -0.024 -0.267 -0.041 -0.536 -0.041 -0.809 c 0 -0.433 0.032 -0.858 0.092 -1.275 a 8.5 8.5 0 0 0 -6.592 8.275 l 0 8.5 8.5 0 a 8.5 8.5 0 0 0 8.5 -8.5 8.5 8.5 0 0 0 -7.33 -8.41" style="fill:#f9f9f9;opacity:1;fill-opacity:1;stroke:none"/>
 <path d="m 27.5 12 a 8.5 8.5 0 0 0 -8.5 8.5 8.5 8.5 0 0 0 7.318 8.408 C 26.428 28.455 26.5 27.987 26.5 27.5 c 0 -0.201 -0.026 -0.396 -0.045 -0.592 A 6.5 6.5 0 0 1 21 20.5 6.5 6.5 0 0 1 27.5 14 l 6.5 0 0 6.5 a 6.5 6.5 0 0 1 -4.537 6.189 C 29.487 26.957 29.5 27.23 29.5 27.5 c 0 0.434 -0.036 0.858 -0.096 1.275 A 8.5 8.5 0 0 0 36 20.5 l 0 -8.5 -8.5 0 z" style="fill:#f9f9f9;opacity:1;fill-opacity:1;stroke:none"/>
</svg>
