<svg viewBox="0 0 48 48" xmlns="http://www.w3.org/2000/svg" xmlns:xlink="http://www.w3.org/1999/xlink">
  <linearGradient id="a" gradientTransform="matrix(0 -1 1 0 -.0000015 47.999998)" gradientUnits="userSpaceOnUse" x1="1" x2="47">
    <stop offset="0" stop-color="#357ebd"/>
    <stop offset="1" stop-color="#428bca"/>
  </linearGradient>
  <path d="m47 24c0 22.703-.297 23-23 23-22.703 0-23-.297-23-23 0-22.703.297-23 23-23 22.703 0 23 .297 23 23z" fill="url(#a)"/>
  <path d="m28.5 13a8.5 8.5 0 0 0-8.5 8.5 8.5 8.5 0 0 0  7.318 8.408c.11-.453.182-.921.182-1.408 0-.201-.026-.396-.045-.592a6.5 6.5 0 0 1-5.455-6.408 6.5 6.5 0 0 1  6.5-6.5h6.5v6.5a6.5 6.5 0 0 1-4.537 6.189c.024.268.037.541.037.811 0 .434-.036.858-.096 1.275a8.5 8.5 0 0 0 6.596-8.275v-8.5zm-5.83 7.09c-.109.452-.17.92-.17 1.41 0 .2.017.397.037.592a6.5 6.5 0 0 1 5.463 6.408 6.5 6.5 0 0 1-6.5 6.5h-6.5v-6.5a6.5 6.5 0 0 1 4.541-6.191c-.024-.269-.041-.536-.041-.809 0-.433.032-.858.092-1.275a8.5 8.5 0 0 0-6.592 8.275v8.5h8.5a8.5 8.5 0 0 0 8.5-8.5 8.5 8.5 0 0 0-7.33-8.41" opacity=".1"/>
  <path d="m21.67 19.09c-.109.452-.17.923-.17 1.41 0 .2.017.397.037.592a6.5 6.5 0 0 1 5.463 6.408 6.5 6.5 0 0 1-6.5 6.5h-6.5v-6.5a6.5 6.5 0 0 1 4.541-6.191c-.024-.267-.041-.536-.041-.809 0-.433.032-.858.092-1.275a8.5 8.5 0 0 0-6.592 8.275v8.5h8.5a8.5 8.5 0 0 0 8.5-8.5 8.5 8.5 0 0 0-7.33-8.41" fill="#f9f9f9"/>
  <path d="m27.5 12a8.5 8.5 0 0 0-8.5 8.5 8.5 8.5 0 0 0  7.318 8.408c.11-.453.182-.921.182-1.408 0-.201-.026-.396-.045-.592a6.5 6.5 0 0 1-5.455-6.408 6.5 6.5 0 0 1  6.5-6.5h6.5v6.5a6.5 6.5 0 0 1-4.537 6.189c.024.268.037.541.037.811 0 .434-.036.858-.096 1.275a8.5 8.5 0 0 0 6.596-8.275v-8.5z" fill="#f9f9f9"/>
</svg>
