<svg viewBox="0 0 48 48" xmlns="http://www.w3.org/2000/svg" xmlns:xlink="http://www.w3.org/1999/xlink">
  <linearGradient id="a" gradientTransform="matrix(0 -1 1 0 -.0000015 47.999998)" gradientUnits="userSpaceOnUse" x1="1" x2="47">
    <stop offset="0" stop-color="#d54545"/>
    <stop offset="1" stop-color="#d95555"/>
  </linearGradient>
  <path d="m47 24c0 22.703-.297 23-23 23-22.703 0-23-.297-23-23 0-22.703.297-23 23-23 22.703 0 23 .297 23 23z" fill="url(#a)"/>
  <path d="m26.732 14.01c-.33.047-.618.288-.709.631l-1.18 4.572-.66-3.891c-.082-.469-.527-.789-.988-.703l-10.484 1.918c-.461.086-.777.547-.699 1.012l3.01 17.738c.082.469.527.785.992.703l9.947-1.822 6.473 1.801c.453.125.926-.152 1.047-.613l4.488-17.395c.117-.465-.156-.945-.609-1.07l-10.289-2.859c-.113-.031-.228-.037-.338-.021z" opacity=".1" transform=""/>
  <g transform="translate(-.00016519)">
    <path d="m26.07 13.03c-.453-.125-.926.152-1.047.609l-4.488 17.395c-.117.457.156.945.609 1.07l10.289 2.863c.453.125.926-.152 1.047-.613l4.488-17.395c.117-.465-.156-.945-.609-1.07m-10.289-2.863" fill="#dcdcdc"/>
    <path d="m29.742 20.18l-3.742 3.047 1.77 4.582 3.742-3.043m-1.77-4.586" fill="#db6565"/>
    <path d="m11.711 15.535c-.461.086-.777.547-.699 1.012l3.01 17.738c.082.469.527.785.992.703l10.488-1.922c.461-.082.77-.543.691-1.012l-3.01-17.734c-.082-.469-.527-.789-.988-.703m-10.492 1.918" fill="#f9f9f9"/>
  </g>
  <path d="m16.903 22.06c-.83.161-1.375.95-1.216 1.763.479 2.454 3.818 3.845 3.818 3.845 0 0 2.574-2.536 2.095-4.99-.159-.813-.96-1.342-1.791-1.181-.684.132-1.193.7-1.24 1.382-.299-.614-.984-.951-1.667-.819z" fill="#d74949"/>
</svg>
