<svg xmlns="http://www.w3.org/2000/svg" viewBox="0 0 48 48">
 <defs>
  <linearGradient id="linearGradient3764" x1="1" x2="47" gradientUnits="userSpaceOnUse" gradientTransform="matrix(0,-1,1,0,-1.5e-6,47.999998)">
   <stop style="stop-color:#e4e4e4;stop-opacity:1"/>
   <stop offset="1" style="stop-color:#eee;stop-opacity:1"/>
  </linearGradient>
  <linearGradient id="linearGradient4735" y1="39" x2="0" y2="9" gradientUnits="userSpaceOnUse">
   <stop style="stop-color:#d04848;stop-opacity:1"/>
   <stop offset="1" style="stop-color:#d25252;stop-opacity:1"/>
  </linearGradient>
  <linearGradient id="linearGradient4810" y1="39" x2="0" y2="9" gradientUnits="userSpaceOnUse">
   <stop style="stop-color:#726cac;stop-opacity:1"/>
   <stop offset="1" style="stop-color:#7974b0;stop-opacity:1"/>
  </linearGradient>
  <radialGradient id="radialGradient4850" cx="24" cy="16.5" r="3.5" gradientUnits="userSpaceOnUse">
   <stop style="stop-color:#6461a5;stop-opacity:1"/>
   <stop offset="1" style="stop-color:#5c579b;stop-opacity:1"/>
  </radialGradient>
  <radialGradient id="radialGradient4858" cx="24" cy="31.5" r="3.5" gradientUnits="userSpaceOnUse">
   <stop style="stop-color:#cd3939;stop-opacity:1"/>
   <stop offset="1" style="stop-color:#c13131;stop-opacity:1"/>
  </radialGradient>
 </defs>
 <g>
  
  
  
 </g>
 <g>
  <path d="m 47,24 C 47,46.703 46.703,47 24,47 1.297,47 1,46.703 1,24 1,1.297 1.297,1 24,1 46.703,1 47,1.297 47,24 z" style="fill:url(#linearGradient3764);fill-opacity:1"/>
 </g>
 <g>
  
 </g>
 <g>
  <circle cx="25" cy="25" r="15" style="fill:#000;opacity:1;fill-opacity:0.098;stroke:none;fill-rule:nonzero"/>
  <path d="m 39 24 c 0 8.284 -6.716 15 -15 15 -8.284 0 -12 -12 -12 -15 0 -4 6 -15 12 -15 c 8.284 0 15 6.716 15 15 z" style="fill:url(#linearGradient4735);opacity:1;fill-opacity:1;stroke:none;fill-rule:nonzero"/>
  <path d="M 25 10 A 7.5 7.5 0 0 0 24.361 10.03 C 16.376 10.37 10 16.931 10 25 C 10 28.897 11.496 32.435 13.934 35.1 A 15 15 0 0 0 20.662 38.609 C 18.751 37.25 17.5 35.02 17.5 32.5 C 17.5 28.358 20.858 25 25 25 A 7.5 7.5 0 0 0 32.5 17.5 A 7.5 7.5 0 0 0 25 10 z" style="fill:#000;opacity:1;fill-opacity:0.098;stroke:none;fill-rule:nonzero"/>
  <path d="M 24 9 A 7.5 7.5 0 0 0 23.361 9.03 C 15.376 9.37 9 15.931 9 24 C 9 32.03 15.307 38.559 23.23 38.961 C 19.451 38.577 16.5 35.38 16.5 31.5 C 16.5 27.358 19.858 24 24 24 A 7.5 7.5 0 0 0 31.5 16.5 A 7.5 7.5 0 0 0 24 9 z" style="fill:url(#linearGradient4810);opacity:1;fill-opacity:1;stroke:none;fill-rule:nonzero"/>
  <circle r="3.5" cy="16.5" cx="24" style="fill:url(#radialGradient4850);opacity:1;fill-opacity:1;stroke:none;fill-rule:nonzero"/>
  <circle cx="24" cy="31.5" r="3.5" style="fill:url(#radialGradient4858);opacity:1;fill-opacity:1;stroke:none;fill-rule:nonzero"/>
 </g>
</svg>
