<svg viewBox="0 0 48 48" xmlns="http://www.w3.org/2000/svg" xmlns:xlink="http://www.w3.org/1999/xlink">
  <linearGradient id="a" gradientTransform="matrix(0 -1 1 0 -.0000015 47.999998)" gradientUnits="userSpaceOnUse" x1="1" x2="47">
    <stop offset="0" stop-color="#e4e4e4"/>
    <stop offset="1" stop-color="#eee"/>
  </linearGradient>
  <linearGradient id="b" gradientUnits="userSpaceOnUse" x2="0" y1="39" y2="9">
    <stop offset="0" stop-color="#d04848"/>
    <stop offset="1" stop-color="#d25252"/>
  </linearGradient>
  <linearGradient id="c" gradientUnits="userSpaceOnUse" x2="0" y1="39" y2="9">
    <stop offset="0" stop-color="#726cac"/>
    <stop offset="1" stop-color="#7974b0"/>
  </linearGradient>
  <radialGradient id="d" cx="24" cy="16.5" gradientUnits="userSpaceOnUse" r="3.5">
    <stop offset="0" stop-color="#6461a5"/>
    <stop offset="1" stop-color="#5c579b"/>
  </radialGradient>
  <radialGradient id="e" cx="24" cy="31.5" gradientUnits="userSpaceOnUse" r="3.5">
    <stop offset="0" stop-color="#cd3939"/>
    <stop offset="1" stop-color="#c13131"/>
  </radialGradient>
  <path d="m47 24c0 22.703-.297 23-23 23-22.703 0-23-.297-23-23 0-22.703.297-23 23-23 22.703 0 23 .297 23 23z" fill="url(#a)"/>
  <circle cx="25" cy="25" fill-opacity=".098" r="15"/>
  <path d="m39 24c0 8.284-6.716 15-15 15-8.284 0-12-12-12-15 0-4 6-15 12-15 8.284 0 15 6.716 15 15z" fill="url(#b)"/>
  <path d="m25 10a7.5 7.5 0 0 0-.639.03c-7.985.34-14.361 6.901-14.361 14.97 0 3.897 1.496 7.435 3.934 10.1a15 15 0 0 0 6.728 3.509c-1.911-1.359-3.162-3.589-3.162-6.109 0-4.142 3.358-7.5 7.5-7.5a7.5 7.5 0 0 0 7.5-7.5 7.5 7.5 0 0 0-7.5-7.5z" fill-opacity=".098"/>
  <path d="m24 9a7.5 7.5 0 0 0-.639.03c-7.985.34-14.361 6.901-14.361 14.97 0 8.03 6.307 14.559 14.23 14.961-3.779-.384-6.73-3.581-6.73-7.461 0-4.142 3.358-7.5 7.5-7.5a7.5 7.5 0 0 0 7.5-7.5 7.5 7.5 0 0 0-7.5-7.5z" fill="url(#c)"/>
  <circle cx="24" cy="16.5" fill="url(#d)" r="3.5"/>
  <circle cx="24" cy="31.5" fill="url(#e)" r="3.5"/>
</svg>
