<svg xmlns="http://www.w3.org/2000/svg" viewBox="0 0 48 48">
 <defs>
  <linearGradient id="linearGradient3764" y1="47" x2="0" y2="1" gradientUnits="userSpaceOnUse">
   <stop style="stop-color:#789;stop-opacity:1"/>
   <stop offset="1" style="stop-color:#8292a2;stop-opacity:1"/>
  </linearGradient>
 </defs>
 <g>
  
  
  
 </g>
 <g>
  <path d="m 47,24 C 47,46.703 46.703,47 24,47 1.297,47 1,46.703 1,24 1,1.297 1.297,1 24,1 46.703,1 47,1.297 47,24 z" style="fill:url(#linearGradient3764);fill-opacity:1"/>
 </g>
 <g transform="translate(0,1)">
  <g>
   <g transform="translate(1,1)">
    <g style="opacity:0.1">
     <!-- color: #9ac9e8 -->
     <g>
      <path d="m 25 11 c -1.442 0 -2.646 1.02 -2.934 2.377 c -1.131 0.285 -2.198 0.726 -3.176 1.307 l -0.574 -0.996 c -0.207 -0.36 -0.606 -0.516 -0.895 -0.352 l -4.156 2.402 c -0.286 0.164 -0.352 0.59 -0.145 0.949 l 1.414 2.447 c -0.974 1.735 -1.535 3.733 -1.535 5.865 c 0 6.629 5.371 12 12 12 c 6.629 0 12 -5.371 12 -12 c 0 -2.132 -0.561 -4.13 -1.535 -5.865 l 1.414 -2.449 c 0.207 -0.359 0.141 -0.785 -0.145 -0.949 l -4.156 -2.4 c -0.289 -0.164 -0.688 -0.008 -0.895 0.352 l -0.574 0.996 c -0.978 -0.58 -2.045 -1.022 -3.176 -1.307 c -0.288 -1.357 -1.492 -2.377 -2.934 -2.377 z" transform="translate(-1,-2)" style="fill:#000;fill-opacity:1;stroke:none;fill-rule:nonzero"/>
     </g>
    </g>
   </g>
  </g>
 </g>
 <g transform="translate(0,1)">
  <g>
   <!-- color: #9ac9e8 -->
   <g>
    <path d="m 28.578 16.535 4.156 2.398 c 0.285 0.164 0.688 0.008 0.895 -0.352 l 2.25 -3.895 c 0.207 -0.359 0.141 -0.785 -0.145 -0.949 l -4.156 -2.402 c -0.289 -0.164 -0.688 -0.008 -0.895 0.352 l -2.25 3.895 c -0.207 0.359 -0.145 0.785 0.145 0.953 m 0 0" style="fill:#333;fill-opacity:1;stroke:none;fill-rule:nonzero"/>
    <path d="m 12.266 13.738 4.156 -2.402 c 0.289 -0.164 0.688 -0.008 0.895 0.352 l 2.25 3.895 c 0.207 0.359 0.145 0.785 -0.145 0.953 l -4.156 2.398 c -0.285 0.164 -0.688 0.008 -0.895 -0.352 l -2.25 -3.895 c -0.207 -0.359 -0.141 -0.785 0.145 -0.949 m 0 0" style="fill:#333;fill-opacity:1;stroke:none;fill-rule:nonzero"/>
    <path d="m 27 12 c 0 1.656 -1.344 3 -3 3 -1.656 0 -3 -1.344 -3 -3 0 -1.656 1.344 -3 3 -3 1.656 0 3 1.344 3 3 m 0 0" style="fill:#333;fill-opacity:1;stroke:none;fill-rule:nonzero"/>
    <path d="m 36 23 c 0 6.629 -5.371 12 -12 12 -6.629 0 -12 -5.371 -12 -12 0 -6.629 5.371 -12 12 -12 6.629 0 12 5.371 12 12 m 0 0" style="fill:#3c515b;fill-opacity:1;stroke:none;fill-rule:nonzero"/>
    <path d="m 34 23 c 0 5.523 -4.477 10 -10 10 -5.523 0 -10 -4.477 -10 -10 0 -5.523 4.477 -10 10 -10 5.523 0 10 4.477 10 10 m 0 0" style="fill:#f2f2dd;fill-opacity:1;stroke:none;fill-rule:nonzero"/>
    <path d="m 24 15.16 c 0.468 0 0.85 0.449 0.85 1 l 0 5 c 0 0.551 -0.382 1 -0.85 1 -0.468 0 -0.85 -0.449 -0.85 -1 l 0 -5 c 0 -0.551 0.382 -1 0.85 -1 m 0 0" style="fill:#333;fill-opacity:1;stroke:none;fill-rule:nonzero"/>
    <path d="m 24.613 23.603 c 0.311 -0.311 0.813 -0.311 1.124 0 l 2.81 2.81 c 0.311 0.311 0.311 0.813 0 1.124 -0.311 0.311 -0.813 0.311 -1.124 0 l -2.81 -2.81 c -0.311 -0.311 -0.311 -0.813 0 -1.124 m 0 0" style="fill:#333;fill-opacity:1;stroke:none;fill-rule:nonzero"/>
    <path d="m 26 23 c 0 1.105 -0.895 2 -2 2 -1.105 0 -2 -0.895 -2 -2 0 -1.105 0.895 -2 2 -2 1.105 0 2 0.895 2 2 m 0 0" style="fill:#1e1e1e;fill-opacity:1;stroke:none;fill-rule:nonzero"/>
   </g>
  </g>
 </g>
 <g>
  
 </g>
</svg>
