<svg viewBox="0 0 48 48" xmlns="http://www.w3.org/2000/svg" xmlns:xlink="http://www.w3.org/1999/xlink">
  <linearGradient id="a" gradientTransform="matrix(0 -1 1 0 -.0000015 47.999998)" gradientUnits="userSpaceOnUse" x1="1" x2="47">
    <stop offset="0" stop-color="#455483"/>
    <stop offset="1" stop-color="#4c5c8f"/>
  </linearGradient>
  <path d="m47 24c0 22.703-.297 23-23 23-22.703 0-23-.297-23-23 0-22.703.297-23 23-23 22.703 0 23 .297 23 23z" fill="url(#a)"/>
  <path d="m14 16c-.5 0-1 .498-1 .998h-.002c0 5.669 0 11.337 0 17.01h23.998v-14.932c0-.531-.5-1.066-1-1.066h-.996c-2.987-.016-6-.008-9-.008l-1-1.998z" opacity=".1" transform="matrix(1 0 0 1 0 -.00000001)"/>
  <path d="m12 16v14h23v-7l-1-6h-9l-1-2h-11c-.5 0-1 .5-1 1z" fill="#ff8f00"/>
  <path d="m14 18h11v4h-11z" fill="#fffdf0"/>
  <path d="m36 18.07v14.933h-24v-14h12l1-2h10c .5 0 1 .533 1 1.067z" fill="#ffca28"/>
  <path d="m23.48 27.797c-.737.55-1.864 2.34-2.216 1.64-.176-.1-.456-8.13-.072-8.44.335-.27 7.649 4.23 7.303 4.7-.043.48-1.708.63-2.561.95l1.841 3.07-2.288 1.28m-2.01-3.2" fill="#403018" opacity=".4"/>
</svg>
