<svg viewBox="0 0 48 48" xmlns="http://www.w3.org/2000/svg" xmlns:xlink="http://www.w3.org/1999/xlink">
  <linearGradient id="a" gradientTransform="matrix(0 -1 1 0 -.0000015 47.999998)" gradientUnits="userSpaceOnUse" x1="1" x2="47">
    <stop offset="0" stop-color="#ec3e3e"/>
    <stop offset="1" stop-color="#ee5150"/>
  </linearGradient>
  <path d="m47 24c0 22.703-.297 23-23 23-22.703 0-23-.297-23-23 0-22.703.297-23 23-23 22.703 0 23 .297 23 23z" fill="url(#a)"/>
  <g opacity=".1" transform="translate(1 1.001)">
    <path d="m26 9h-4v15h4m0-15"/>
    <path d="m20 9.5c-6.359 1.766-11 7.617-11 14.469 0 8.23 6.715 15.03 15 15.03 8.285 0 15-6.801 15-15.03 0-6.852-4.641-12.703-11-14.469v3.875c4.184 1.645 7.25 5.75 7.25 10.594 0 6.313-5.04 11.375-11.25 11.375-6.203 0-11.25-5.063-11.25-11.375 0-4.895 3.01-9.05 7.25-10.656m0-3.813"/>
  </g>
  <g fill="#f9f9f9" transform="translate(0 .001)">
    <path d="m26 9h-4v15h4m0-15"/>
    <path d="m20 9.5c-6.359 1.766-11 7.617-11 14.469 0 8.23 6.715 15.03 15 15.03 8.285 0 15-6.801 15-15.03 0-6.852-4.641-12.703-11-14.469v3.875c4.184 1.645 7.25 5.75 7.25 10.594 0 6.313-5.04 11.375-11.25 11.375-6.203 0-11.25-5.063-11.25-11.375 0-4.895 3.01-9.05 7.25-10.656m0-3.813"/>
  </g>
</svg>
