<svg xmlns="http://www.w3.org/2000/svg" viewBox="0 0 48 48">
 <defs>
  <linearGradient id="linearGradient3764" x1="1" x2="47" gradientUnits="userSpaceOnUse" gradientTransform="matrix(0,-1,1,0,-1.5e-6,47.999998)">
   <stop style="stop-color:#ec3e3e;stop-opacity:1"/>
   <stop offset="1" style="stop-color:#ee5150;stop-opacity:1"/>
  </linearGradient>
 </defs>
 <g>
  
  
  
 </g>
 <g>
  <path d="m 47,24 C 47,46.703 46.703,47 24,47 1.297,47 1,46.703 1,24 1,1.297 1.297,1 24,1 46.703,1 47,1.297 47,24 z" style="fill:url(#linearGradient3764);fill-opacity:1"/>
 </g>
 <g>
  
 </g>
 <g transform="translate(0,10e-4)">
  <g>
   <g transform="translate(1,1)">
    <g style="opacity:0.1">
     <!-- color: #68ac39 -->
     <g>
      <path d="m 26,9 -4,0 0,15 4,0 M 26,9" style="fill:#000;fill-opacity:1;stroke:none;fill-rule:nonzero"/>
      <path d="m 20,9.5 c -6.359,1.766 -11,7.617 -11,14.469 0,8.23 6.715,15.03 15,15.03 8.285,0 15,-6.801 15,-15.03 C 39,17.117 34.359,11.266 28,9.5 l 0,3.875 c 4.184,1.645 7.25,5.75 7.25,10.594 0,6.313 -5.04,11.375 -11.25,11.375 -6.203,0 -11.25,-5.063 -11.25,-11.375 0,-4.895 3.01,-9.05 7.25,-10.656 M 20,9.5" style="fill:#000;fill-opacity:1;stroke:none;fill-rule:nonzero"/>
     </g>
    </g>
   </g>
  </g>
 </g>
 <g transform="translate(0,10e-4)">
  <g>
   <!-- color: #68ac39 -->
   <g>
    <path d="m 26,9 -4,0 0,15 4,0 M 26,9" style="fill:#f9f9f9;fill-opacity:1;stroke:none;fill-rule:nonzero"/>
    <path d="m 20,9.5 c -6.359,1.766 -11,7.617 -11,14.469 0,8.23 6.715,15.03 15,15.03 8.285,0 15,-6.801 15,-15.03 C 39,17.117 34.359,11.266 28,9.5 l 0,3.875 c 4.184,1.645 7.25,5.75 7.25,10.594 0,6.313 -5.04,11.375 -11.25,11.375 -6.203,0 -11.25,-5.063 -11.25,-11.375 0,-4.895 3.01,-9.05 7.25,-10.656 M 20,9.5" style="fill:#f9f9f9;fill-opacity:1;stroke:none;fill-rule:nonzero"/>
   </g>
  </g>
 </g>
</svg>
