<svg viewBox="0 0 48 48" xmlns="http://www.w3.org/2000/svg" xmlns:xlink="http://www.w3.org/1999/xlink">
  <linearGradient id="a" gradientTransform="matrix(0 -1 1 0 -.0000015 47.999998)" gradientUnits="userSpaceOnUse" x1="1" x2="47">
    <stop offset="0" stop-color="#e1ddb1"/>
    <stop offset="1" stop-color="#e7e4c0"/>
  </linearGradient>
  <linearGradient id="b" gradientUnits="userSpaceOnUse" x2="0" y1="24" y2="19">
    <stop offset="0" stop-color="#484848"/>
    <stop offset=".494" stop-color="#505050"/>
    <stop offset="1" stop-color="#484848"/>
  </linearGradient>
  <path d="m47 24c0 22.703-.297 23-23 23-22.703 0-23-.297-23-23 0-22.703.297-23 23-23 22.703 0 23 .297 23 23z" fill="url(#a)"/>
  <g transform="translate(1 1)">
    <path d="m12.533 19c-.295 0-.533.223-.533.5v4c0 .277.238.5.533.5h6.645a5 5 0 0 0-.678 2.5 5 5 0 0 0  5 5 5 5 0 0 0  4.971-4.5h3.529l6 4.5v-2l-6-5.5h-2c1.063 0 1.918-.772 1.986-1.752a.75.75 0 0 0  .713-.748.75.75 0 0 0-.713-.748c-.068-.98-.923-1.752-1.986-1.752zm7.467 5.582v1.418h-.465a4 4 0 0 1  .465-1.418m-.463 2.418h.463 2.293l-1.951 1.951a4 4 0 0 1-.805-1.951m5.17 0h2.758a4 4 0 0 1-.809 1.949zm-1.707.707v2.758a4 4 0 0 1-1.949-.809zm1 0l1.951 1.951a4 4 0 0 1-1.951.805z" fill-opacity=".098" fill-rule="evenodd"/>
    <path d="m12.533 19c-.295 0-.533.223-.533.5v4c0 .277.238.5.533.5h17.467c1.063 0 1.918-.772 1.986-1.752a.75.75 0 0 0  .713-.748.75.75 0 0 0-.713-.748c-.068-.98-.923-1.752-1.986-1.752z" fill="url(#b)" fill-rule="evenodd" transform="translate(-1 -1)"/>
    <path d="m19 23v3h12l6 4.5v-2l-6-5.5z" fill="#8d6a3e"/>
    <path d="m24.5 22.5a5 5 0 0 0-4.5 2.832v1.668h.535a4 4 0 0 1  .809-1.95l1.949 1.95h2.414l1.951-1.95a4 4 0 0 1  .805 1.95h1.012a5 5 0 0 0-4.975-4.5zm.5 1.035a4 4 0 0 1 1.949.809l-1.949 1.949zm-1 .002v2.756l-1.95-1.951a4 4 0 0 1 1.95-.805z" fill-opacity=".098" transform="translate(-1 -1)"/>
    <path d="m22.5 20.5a5 5 0 0 0-5 5 5 5 0 0 0  5 5 5 5 0 0 0  5-5 5 5 0 0 0-5-5zm .5 1.035a4 4 0 0 1 1.949.809l-1.949 1.949zm-1 .002v2.756l-1.951-1.951a4 4 0 0 1 1.951-.805m3.658 1.512a4 4 0 0 1  .805 1.951h-2.756zm-6.314.002l1.949 1.949h-2.758a4 4 0 0 1  .809-1.95m-.807 2.95h2.756l-1.951 1.951a4 4 0 0 1-.805-1.951m5.17 0h2.758a4 4 0 0 1-.809 1.949zm-1.707.707v2.758a4 4 0 0 1-1.95-.809zm1 0l1.951 1.951a4 4 0 0 1-1.951.805z" fill="#b58a55"/>
    <circle cx="22.5" cy="25.5" fill="#8d6a3e" r="1"/>
  </g>
</svg>
