<svg xmlns="http://www.w3.org/2000/svg" viewBox="0 0 48 48">
 <defs>
  <linearGradient id="linearGradient3764" x1="1" x2="47" gradientUnits="userSpaceOnUse" gradientTransform="matrix(0,-1,1,0,-1.5e-6,47.999998)">
   <stop style="stop-color:#e4e4e4;stop-opacity:1"/>
   <stop offset="1" style="stop-color:#eee;stop-opacity:1"/>
  </linearGradient>
 </defs>
 <g>
  
  
  
 </g>
 <g>
  <path d="m 47,24 C 47,46.703 46.703,47 24,47 1.297,47 1,46.703 1,24 1,1.297 1.297,1 24,1 46.703,1 47,1.297 47,24 z" style="fill:url(#linearGradient3764);fill-opacity:1"/>
 </g>
 <g>
  
 </g>
 <path d="m 21 15 0 8 8 0 0 -8 -8 0 z m -10 10 0 8 8 0 0 -8 -8 0 z m 10 0 0 8 8 0 0 -8 -8 0 z m 10 0 0 8 8 0 0 -8 -8 0 z" style="fill:#000;fill-opacity:0.098;stroke:none;fill-rule:nonzero"/>
 <g>
  <path d="m 20 14 8 0 0 8 -8 0 m 0 -8" style="fill:#24a1d0;fill-opacity:1;stroke:none;fill-rule:nonzero"/>
  <path d="m 28 24 0 8 -8 0 0 -8 m 8 0" style="fill:#e3765d;fill-opacity:1;stroke:none;fill-rule:nonzero"/>
  <path d="m 18 24 0 8 -8 0 0 -8 m 8 0" style="fill:#e3765d;fill-opacity:1;stroke:none;fill-rule:nonzero"/>
  <path d="m 38 24 0 8 -8 0 0 -8 m 8 0" style="fill:#24a1d0;fill-opacity:1;stroke:none;fill-rule:nonzero"/>
 </g>
</svg>
