<svg viewBox="0 0 48 48" xmlns="http://www.w3.org/2000/svg" xmlns:xlink="http://www.w3.org/1999/xlink">
  <radialGradient id="a" cx="13.884" cy="17.956" gradientTransform="matrix(.71264015 .4719729 -.86584684 1.3073574 19.536958 -12.071662)" gradientUnits="userSpaceOnUse" r="4.384">
    <stop offset="0" stop-color="#fff" stop-opacity=".769"/>
    <stop offset="1" stop-color="#fff" stop-opacity=".675"/>
  </radialGradient>
  <linearGradient id="b" gradientUnits="userSpaceOnUse" x2="0" y1="48" y2=".135">
    <stop offset="0" stop-color="#c9c9df"/>
    <stop offset="1" stop-color="#d5d5e7"/>
  </linearGradient>
  <path d="m24 1c22.703 0 23 .297 23 23 0 22.703-.297 23-23 23-22.703 0-23-.297-23-23 0-22.703.297-23 23-23z" fill="url(#b)"/>
  <g transform="matrix(.99974542 0 0 1 .00127722 0)">
    <path d="m19.5 12c-1.904.019-4.204 1.45-5.813 3.875-2.145 3.233-2.27 6.988-.219 8.281l9.563 3.344c.072.353.436.739.974 1.031v1.031l-3.317 4.469-.25-.188-1.375 1.969c-.199.284-.127.645.156.844l1.031.719c.284.199.676.127.875-.156l1.344-1.938-.25-.188 1.786-2.375v2.281h-.255v2.375c0 .346.279.625.625.625h1.25c.346 0 .625-.279.625-.625v-2.375h-.245v-2.281l1.776 2.375-.25.188 1.344 1.938c.199.284.591.355.875.156l1.031-.719c.284-.199.355-.56.156-.844l-1.375-1.969-.25.188-3.307-4.469v-.625c.236-.033.448-.078.589-.188l9.219 3.219c.529.141 1.259-.233 1.75-.938.516-.741.591-1.608.188-2l-16.532-16.563c-.512-.325-1.084-.475-1.719-.469z" fill-opacity=".098"/>
    <path d="m23 27v1.563l-3.906 5.25 1.469 1.188 2.438-3.281v4.281h2v-4.281l2.438 3.281 1.469-1.188-3.906-5.25v-1.563h-2z" fill="#999" transform="matrix(1.0002546 0 0 1 -.00127755 0)"/>
    <path d="m22.755 34h2.5c0 0 0 1.609 0 2.375 0 .346-.279.625-.625.625h-1.25c-.346 0-.625-.279-.625-.625 0-.725 0-2.375 0-2.375z" fill="#333"/>
    <path d="m26.53 34.29l2.048-1.434c0 0 .923 1.318 1.363 1.945.199.284.13.672-.153.87l-1.024.717c-.284.199-.672.13-.871-.154-.416-.594-1.363-1.945-1.363-1.945z" fill="#333"/>
    <path d="m21.479 34.29l-2.048-1.434c0 0-.923 1.318-1.363 1.945-.199.284-.13.672.153.87l1.024.717c.284.199.672.13.871-.154.416-.594 1.363-1.945 1.363-1.945z" fill="#333"/>
    <g transform="matrix(.97135018 0 0 .97566438 2.7424694 -.25042846)">
      <path d="m18.5 11c-1.904.019-4.203 1.45-5.813 3.875-2.146 3.233-2.27 6.988-.219 8.281l9.563 3.344c.096.471.706.983 1.563 1.281.84.292 1.622.262 2-.031l9.219 3.219c.53.141 1.259-.233 1.75-.938.516-.741.591-1.608.188-2l-16.531-16.563c-.512-.325-1.084-.475-1.719-.469z" fill="#333" transform="matrix(1.0294948 0 0 1.0249426 -2.8233581 .2566748)"/>
      <path d="m16.736 19.858c-1.838 2.757-4.599 4.141-6.174 3.09-1.576-1.05-1.369-4.137.469-6.894 1.838-2.757 4.605-4.141 6.181-3.09 1.576 1.05 1.363 4.137-.475 6.894z" fill="url(#a)"/>
    </g>
  </g>
</svg>
