<svg viewBox="0 0 48 48" xmlns="http://www.w3.org/2000/svg" xmlns:xlink="http://www.w3.org/1999/xlink">
  <linearGradient id="a" gradientUnits="userSpaceOnUse" x2="0" y1="48" y2=".135">
    <stop offset="0" stop-color="#7380cd"/>
    <stop offset="1" stop-color="#828dd2"/>
  </linearGradient>
  <path d="m24 1c22.703 0 23 .297 23 23 0 22.703-.297 23-23 23-22.703 0-23-.297-23-23 0-22.703.297-23 23-23z" fill="url(#a)"/>
  <path d="m25 12c-1.112 0-2.212.195-3.281.563-1.073.367-2.028.863-2.875 1.5-.851.64-1.54 1.441-2.063 2.406-.519.965-.781 2.01-.781 3.125 0 1.75.602 3.254 1.813 4.531.528.551.965 1.039 1.313 1.469.344.425.679.977 1.031 1.625.346.641.539 1.227.594 1.781.017.001.034.017.051.027h-.037c-.551.317-.826.782-.826 1.391 0 .418.143.777.439 1.082-.293.305-.439.664-.439 1.082 0 .59.264 1.047.791 1.371-.157.262-.227.527-.227.797 0 .519.184.918.555 1.203.367.281.821.422 1.363.422.231.496.58.891 1.053 1.184.464.293.973.441 1.527.441.55 0 1.053-.148 1.525-.441.473-.293.825-.688 1.059-1.184.539 0 .987-.141 1.354-.422.371-.285.559-.683.559-1.203 0-.27-.077-.535-.229-.797.527-.324.787-.781.787-1.371 0-.418-.145-.777-.438-1.082.293-.305.438-.664.438-1.082 0-.61-.276-1.075-.822-1.391h-.051c.012-.001.026-.017.037-.027.051-.554.276-1.141.625-1.781.352-.648.683-1.199 1.031-1.625.348-.43.786-.918 1.313-1.469 1.207-1.277 1.813-2.781 1.813-4.531 0-1.121-.262-2.16-.781-3.125-.524-.965-1.211-1.765-2.063-2.406-.847-.637-1.802-1.133-2.875-1.5-1.069-.367-2.169-.563-3.281-.563z" opacity=".1" transform="matrix(1 0 0 1 -.00000002 -.0000001)"/>
  <g transform="scale(3.543307)">
    <path d="m24 11c-1.112 0-2.212.194-3.281.563-1.073.367-2.028.863-2.875 1.5-.851.64-1.54 1.441-2.063 2.406-.519.965-.781 2.01-.781 3.125 0 1.75.601 3.254 1.813 4.531.528.551.966 1.039 1.314 1.469.344.425.677.977 1.029 1.625.346.641.541 1.227.596 1.781l2.25 2h3.998l2.219-2c .051-.554.276-1.141.625-1.781.352-.648.683-1.199 1.031-1.625.348-.43.785-.918 1.313-1.469 1.207-1.277 1.814-2.781 1.814-4.531 0-1.121-.262-2.16-.781-3.125-.524-.965-1.212-1.765-2.064-2.406-.847-.637-1.802-1.133-2.875-1.5-1.069-.367-2.167-.563-3.279-.563" fill="#f2d473" transform="scale(.28222223)"/>
    <path d="m6.209 7.902h1.129m.63.008c.154.089.232.22.232.393 0 .118-.041.219-.124.305.083.086.124.187.124.305 0 .167-.074.295-.223.387.043.074.065.149.065.225 0 .147-.053.259-.158.34-.104.079-.23.119-.382.119-.066.14-.165.251-.299.334-.133.083-.276.124-.431.124-.157 0-.3-.042-.431-.124-.133-.083-.232-.194-.298-.334-.153 0-.281-.04-.384-.119-.105-.08-.157-.193-.157-.34 0-.076.02-.151.064-.225-.149-.091-.224-.22-.224-.387 0-.118.042-.219.124-.305-.084-.086-.124-.187-.124-.305 0-.172.078-.303.234-.393" fill="#d0d4d4"/>
    <path d="m5.556 9.313c-.037.068-.053.142-.053.212 0 .025.006.048.009.071h2.523c0-.023.009-.046.009-.071 0-.07-.017-.143-.053-.212h-2.434z" fill="#ecf0f0"/>
    <path d="m5.379 8.749c-.021.051-.035.109-.035.168 0 .042.008.078.018.115h2.822c.009-.037.018-.073.018-.115 0-.059-.015-.117-.035-.168h-2.787z" fill="#ecf0f0"/>
    <path d="m5.362 8.184c-.001.038-.018.072-.018.115 0 .059.006.117.027.168h2.796c.021-.051.035-.109.035-.168 0-.043-.008-.077-.018-.115z" fill="#ecf0f0"/>
  </g>
</svg>
