<svg xmlns="http://www.w3.org/2000/svg" viewBox="0 0 48 48">
 <defs>
  <linearGradient id="linearGradient3764" x1="1" x2="47" gradientUnits="userSpaceOnUse" gradientTransform="matrix(0,-1,1,0,-1.5e-6,47.999998)">
   <stop style="stop-color:#599cd2;stop-opacity:1"/>
   <stop offset="1" style="stop-color:#6aa6d6;stop-opacity:1"/>
  </linearGradient>
 </defs>
 <g>
  
  
  
 </g>
 <g>
  <path d="m 47,24 C 47,46.703 46.703,47 24,47 1.297,47 1,46.703 1,24 1,1.297 1.297,1 24,1 46.703,1 47,1.297 47,24 z" style="fill:url(#linearGradient3764);fill-opacity:1"/>
 </g>
 <g>
  
 </g>
 <g transform="matrix(3.543307,0,0,3.543307,-0.10019653,5.914495e-4)">
  <path d="m 5.644,4.092 c 0,-0.282 0.141,-0.423 0.423,-0.423 l 1.976,0 c 0.282,0 0.423,0.141 0.423,0.423 l 0,3.246 1.411,0 c 0.282,0 0.282,0 0,0.282 l -2.54,2.54 c -0.282,0.282 -0.282,0.282 -0.564,0 L 4.233,7.62 C 3.951,7.338 3.951,7.338 4.233,7.338 l 1.411,0" style="fill:#000;opacity:0.1;fill-opacity:1;stroke:none;fill-rule:nonzero"/>
  <path d="m 5.362,3.81 c 0,-0.282 0.141,-0.423 0.423,-0.423 l 1.976,0 c 0.282,0 0.423,0.141 0.423,0.423 l 0,3.246 1.411,0 c 0.282,0 0.282,0 0,0.282 l -2.54,2.54 c -0.282,0.282 -0.282,0.282 -0.564,0 L 3.951,7.338 C 3.669,7.056 3.669,7.056 3.951,7.056 l 1.411,0" style="fill:#dce2eb;fill-opacity:1;stroke:none;fill-rule:nonzero"/>
 </g>
</svg>
