<svg viewBox="0 0 48 48" xmlns="http://www.w3.org/2000/svg" xmlns:xlink="http://www.w3.org/1999/xlink">
  <linearGradient id="a" gradientTransform="matrix(0 -1 1 0 -.0000015 47.999998)" gradientUnits="userSpaceOnUse" x1="1" x2="47">
    <stop offset="0" stop-color="#a1eeef"/>
    <stop offset="1" stop-color="#b2f1f2"/>
  </linearGradient>
  <radialGradient id="b" cx="24" cy="24" gradientTransform="matrix(1 0 0 .93333333 0 1.6)" gradientUnits="userSpaceOnUse" r="15">
    <stop offset="0" stop-color="#f2bc4e"/>
    <stop offset="1" stop-color="#f1b741"/>
  </radialGradient>
  <path d="m47 24c0 22.703-.297 23-23 23-22.703 0-23-.297-23-23 0-22.703.297-23 23-23 22.703 0 23 .297 23 23z" fill="url(#a)"/>
  <ellipse cx="25" cy="25" opacity=".1" rx="15" ry="14"/>
  <ellipse cx="24" cy="24" fill="url(#b)" rx="15" ry="14"/>
  <path d="m20.717 22.911c.636 3.01.234 5.651-1.556 6.03-1.791.383-3.222-1.863-3.858-4.875-.636-3.01-.343-5.628 1.556-6.03 1.899-.407 3.222 1.863 3.858 4.875z" opacity=".1"/>
  <path d="m19.717 21.923c.636 3.01.234 5.651-1.556 6.03-1.791.383-3.222-1.863-3.858-4.875-.636-3.01-.343-5.628 1.556-6.03 1.899-.407 3.222 1.863 3.858 4.875z" fill="#f2f2f2"/>
  <path d="m37 29.988c-7 9.349-21 6.838-24-1 7 5 17 4.514 24 1z" opacity=".1"/>
  <path d="m29.28 22.911c-.636 3.01-.234 5.651 1.556 6.03 1.791.383 3.222-1.863 3.858-4.875.636-3.01.343-5.628-1.556-6.03-1.899-.407-3.222 1.863-3.858 4.875z" opacity=".1"/>
  <path d="m36 29c-7 9.349-21 6.838-24-1 7 5 17 4.514 24 1z" fill="#ba6616"/>
  <path d="m28.28 21.923c-.636 3.01-.234 5.651 1.556 6.03 1.791.383 3.222-1.863 3.858-4.875.636-3.01.343-5.628-1.556-6.03-1.899-.407-3.222 1.863-3.858 4.875z" fill="#f2f2f2"/>
  <path d="m19.06 23.13c.424 1.917.156 3.596-1.037 3.84-1.194.244-2.148-1.185-2.572-3.102-.424-1.917-.229-3.581 1.037-3.84 1.266-.259 2.148 1.185 2.572 3.102z" fill="#4d8bd1"/>
  <path d="m28.939 23.13c-.424 1.917-.156 3.596 1.037 3.84 1.194.244 2.148-1.185 2.572-3.102.424-1.917.229-3.581-1.037-3.84-1.266-.259-2.148 1.185-2.572 3.102z" fill="#4d8bd1"/>
</svg>
