<svg viewBox="0 0 48 48" xmlns="http://www.w3.org/2000/svg" xmlns:xlink="http://www.w3.org/1999/xlink">
  <linearGradient id="a" gradientTransform="matrix(0 -1 1 0 -.0000015 47.999998)" gradientUnits="userSpaceOnUse" x1="1" x2="47">
    <stop offset="0" stop-color="#a9e7b0"/>
    <stop offset="1" stop-color="#b9ebbe"/>
  </linearGradient>
  <path d="m47 24c0 22.703-.297 23-23 23-22.703 0-23-.297-23-23 0-22.703.297-23 23-23 22.703 0 23 .297 23 23z" fill="url(#a)"/>
  <path d="m23 12v2h-2v4h2v2h-2v2h-2v2h-2v6h2v2h2v2h8v-2h2v-2h2v-6h-2v-2h-2v-2h-2v-2h2v-4h-2v-2zm8 10h2v-2h2v-2h-4zm0 10v4h4v-2h-2v-2zm-12 0h-2v2h-2v2h4zm0-10v-4h-4v2h2v2z" fill-opacity=".098"/>
  <path d="m22 11v2h-2v4h2v2h-2v2h-2v2h-2v6h2v2h2v2h8v-2h2v-2h2v-6h-2v-2h-2v-2h-2v-2h2v-4h-2v-2zm8 10h2v-2h2v-2h-4zm0 10v4h4v-2h-2v-2zm-12 0h-2v2h-2v2h4zm0-10v-4h-4v2h2v2z" fill="#348c35"/>
</svg>
