<svg viewBox="0 0 48 48" xmlns="http://www.w3.org/2000/svg" xmlns:xlink="http://www.w3.org/1999/xlink">
  <linearGradient id="a" gradientTransform="matrix(0 -1 1 0 -.0000015 47.999998)" gradientUnits="userSpaceOnUse" x1="1" x2="47">
    <stop offset="0" stop-color="#409626"/>
    <stop offset="1" stop-color="#48a62a"/>
  </linearGradient>
  <path d="m47 24c0 22.703-.297 23-23 23-22.703 0-23-.297-23-23 0-22.703.297-23 23-23 22.703 0 23 .297 23 23z" fill="url(#a)"/>
  <g opacity=".1" transform="translate(1 1)">
    <path d="m19.313 16.211l3.805-3.883c.445-.453 1.184-.434 1.656.043l6.309 6.387c.469.477.488 1.23.043 1.684l-3.805 3.879c-.445.457-1.184.438-1.656-.039l-6.309-6.387c-.469-.477-.488-1.23-.043-1.684m0 0"/>
    <path d="m17.449 28.973l3.184-3.227c.375-.379.996-.367 1.391.031l5.285 5.32c.395.395.41 1.02.035 1.398l-3.184 3.227c-.371.379-.992.367-1.387-.031l-5.289-5.316c-.391-.398-.406-1.023-.035-1.402m0 0"/>
    <path d="m17.359 19.16l2.484 2.508c.293.293.285.785-.02 1.098l-4.051 4.203c-.301.316-.781.332-1.074.039l-2.484-2.508c-.293-.293-.285-.785.02-1.098l4.051-4.207c.301-.313.781-.328 1.074-.035m0 0"/>
    <path d="m33.871 21.598l1.84 1.84c.344.344.387.867.094 1.172l-5.805 6.01c-.293.301-.809.27-1.156-.074l-1.84-1.84c-.344-.344-.387-.867-.094-1.172l5.805-6.01c.293-.301.809-.27 1.156.074m0 0"/>
  </g>
  <path d="m19.313 16.211l3.805-3.883c.445-.453 1.184-.434 1.656.043l6.309 6.387c.469.477.488 1.23.043 1.684l-3.805 3.879c-.445.457-1.184.438-1.656-.039l-6.309-6.387c-.469-.477-.488-1.23-.043-1.684m0 0" fill="#e4ebec"/>
  <path d="m17.449 28.973l3.184-3.227c.375-.379.996-.367 1.391.031l5.285 5.32c.395.395.41 1.02.035 1.398l-3.184 3.227c-.371.379-.992.367-1.387-.031l-5.289-5.316c-.391-.398-.406-1.023-.035-1.402m0 0" fill="#e4ebec"/>
  <path d="m17.359 19.16l2.484 2.508c.293.293.285.785-.02 1.098l-4.051 4.203c-.301.316-.781.332-1.074.039l-2.484-2.508c-.293-.293-.285-.785.02-1.098l4.051-4.207c.301-.313.781-.328 1.074-.035m0 0" fill="#e4ebec"/>
  <path d="m33.871 21.598l1.84 1.84c.344.344.387.867.094 1.172l-5.805 6.01c-.293.301-.809.27-1.156-.074l-1.84-1.84c-.344-.344-.387-.867-.094-1.172l5.805-6.01c.293-.301.809-.27 1.156.074m0 0" fill="#e4ebec"/>
</svg>
