<svg xmlns="http://www.w3.org/2000/svg" viewBox="0 0 48 48">
 <defs>
  <linearGradient id="linearGradient3764" x1="1" x2="47" gradientUnits="userSpaceOnUse" gradientTransform="matrix(0,-1,1,0,-1.5e-6,47.999998)">
   <stop style="stop-color:#409626;stop-opacity:1"/>
   <stop offset="1" style="stop-color:#48a62a;stop-opacity:1"/>
  </linearGradient>
 </defs>
 <g>
  
  
  
 </g>
 <g>
  <path d="m 47,24 C 47,46.703 46.703,47 24,47 1.297,47 1,46.703 1,24 1,1.297 1.297,1 24,1 46.703,1 47,1.297 47,24 z" style="fill:url(#linearGradient3764);fill-opacity:1"/>
 </g>
 <g>
  <g>
   <g transform="translate(1,1)">
    <g style="opacity:0.1">
     <!-- color: #48a62a -->
     <g>
      <path d="m 19.313 16.211 l 3.805 -3.883 c 0.445 -0.453 1.184 -0.434 1.656 0.043 l 6.309 6.387 c 0.469 0.477 0.488 1.23 0.043 1.684 l -3.805 3.879 c -0.445 0.457 -1.184 0.438 -1.656 -0.039 l -6.309 -6.387 c -0.469 -0.477 -0.488 -1.23 -0.043 -1.684 m 0 0" style="fill:#000;fill-opacity:1;stroke:none;fill-rule:nonzero"/>
      <path d="m 17.449 28.973 l 3.184 -3.227 c 0.375 -0.379 0.996 -0.367 1.391 0.031 l 5.285 5.32 c 0.395 0.395 0.41 1.02 0.035 1.398 l -3.184 3.227 c -0.371 0.379 -0.992 0.367 -1.387 -0.031 l -5.289 -5.316 c -0.391 -0.398 -0.406 -1.023 -0.035 -1.402 m 0 0" style="fill:#000;fill-opacity:1;stroke:none;fill-rule:nonzero"/>
      <path d="m 17.359 19.16 l 2.484 2.508 c 0.293 0.293 0.285 0.785 -0.02 1.098 l -4.051 4.203 c -0.301 0.316 -0.781 0.332 -1.074 0.039 l -2.484 -2.508 c -0.293 -0.293 -0.285 -0.785 0.02 -1.098 l 4.051 -4.207 c 0.301 -0.313 0.781 -0.328 1.074 -0.035 m 0 0" style="fill:#000;fill-opacity:1;stroke:none;fill-rule:nonzero"/>
      <path d="m 33.871 21.598 l 1.84 1.84 c 0.344 0.344 0.387 0.867 0.094 1.172 l -5.805 6.01 c -0.293 0.301 -0.809 0.27 -1.156 -0.074 l -1.84 -1.84 c -0.344 -0.344 -0.387 -0.867 -0.094 -1.172 l 5.805 -6.01 c 0.293 -0.301 0.809 -0.27 1.156 0.074 m 0 0" style="fill:#000;fill-opacity:1;stroke:none;fill-rule:nonzero"/>
     </g>
    </g>
   </g>
  </g>
 </g>
 <g>
  <g>
   <!-- color: #48a62a -->
   <g>
    <path d="m 19.313 16.211 l 3.805 -3.883 c 0.445 -0.453 1.184 -0.434 1.656 0.043 l 6.309 6.387 c 0.469 0.477 0.488 1.23 0.043 1.684 l -3.805 3.879 c -0.445 0.457 -1.184 0.438 -1.656 -0.039 l -6.309 -6.387 c -0.469 -0.477 -0.488 -1.23 -0.043 -1.684 m 0 0" style="fill:#e4ebec;fill-opacity:1;stroke:none;fill-rule:nonzero"/>
    <path d="m 17.449 28.973 l 3.184 -3.227 c 0.375 -0.379 0.996 -0.367 1.391 0.031 l 5.285 5.32 c 0.395 0.395 0.41 1.02 0.035 1.398 l -3.184 3.227 c -0.371 0.379 -0.992 0.367 -1.387 -0.031 l -5.289 -5.316 c -0.391 -0.398 -0.406 -1.023 -0.035 -1.402 m 0 0" style="fill:#e4ebec;fill-opacity:1;stroke:none;fill-rule:nonzero"/>
    <path d="m 17.359 19.16 l 2.484 2.508 c 0.293 0.293 0.285 0.785 -0.02 1.098 l -4.051 4.203 c -0.301 0.316 -0.781 0.332 -1.074 0.039 l -2.484 -2.508 c -0.293 -0.293 -0.285 -0.785 0.02 -1.098 l 4.051 -4.207 c 0.301 -0.313 0.781 -0.328 1.074 -0.035 m 0 0" style="fill:#e4ebec;fill-opacity:1;stroke:none;fill-rule:nonzero"/>
    <path d="m 33.871 21.598 l 1.84 1.84 c 0.344 0.344 0.387 0.867 0.094 1.172 l -5.805 6.01 c -0.293 0.301 -0.809 0.27 -1.156 -0.074 l -1.84 -1.84 c -0.344 -0.344 -0.387 -0.867 -0.094 -1.172 l 5.805 -6.01 c 0.293 -0.301 0.809 -0.27 1.156 0.074 m 0 0" style="fill:#e4ebec;fill-opacity:1;stroke:none;fill-rule:nonzero"/>
   </g>
  </g>
 </g>
 <g>
  
 </g>
</svg>
