<svg viewBox="0 0 48 48" xmlns="http://www.w3.org/2000/svg" xmlns:xlink="http://www.w3.org/1999/xlink">
  <linearGradient id="a" gradientTransform="matrix(0 -1 1 0 -.0000015 47.999998)" gradientUnits="userSpaceOnUse" x1="1" x2="47">
    <stop offset="0" stop-color="#f49950"/>
    <stop offset="1" stop-color="#f5a562"/>
  </linearGradient>
  <path d="m47 24c0 22.703-.297 23-23 23-22.703 0-23-.297-23-23 0-22.703.297-23 23-23 22.703 0 23 .297 23 23z" fill="url(#a)"/>
  <path d="m15 13c-.379 0-1 .586-1 1v22c0 .414.621 1 1 1h19.898c.379 0 1.102-.586 1.102-1v-22c0-.414-.723-1-1.102-1z" opacity=".1" transform=""/>
  <path d="m14 12c-.379 0-1 .586-1 1v22c0 .414.621 1 1 1h19.898c.379 0 1.102-.586 1.102-1v-22c0-.414-.723-1-1.102-1z" fill="#ecedf1"/>
  <path d="m15 14h18v20h-18" fill="#5acffb"/>
  <path d="m28.5 16c-1.383 0-2.5 1.121-2.5 2.5 0 1.379 1.117 2.5 2.5 2.5 1.379 0 2.5-1.121 2.5-2.5 0-1.379-1.121-2.5-2.5-2.5z" fill="#ffec95"/>
  <path d="m29 25l-7 9h11v-2z" fill="#439c62"/>
  <path d="m21 23l-6 9v2h13z" fill="#45b969"/>
</svg>
