<svg viewBox="0 0 48 48" xmlns="http://www.w3.org/2000/svg" xmlns:xlink="http://www.w3.org/1999/xlink">
  <linearGradient id="a" gradientTransform="matrix(0 -1 1 0 -.0000015 47.999998)" gradientUnits="userSpaceOnUse" x1="1" x2="47">
    <stop offset="0" stop-color="#7a4516"/>
    <stop offset="1" stop-color="#8b4e19"/>
  </linearGradient>
  <path d="m47 24c0 22.703-.297 23-23 23-22.703 0-23-.297-23-23 0-22.703.297-23 23-23 22.703 0 23 .297 23 23z" fill="url(#a)"/>
  <path d="m25 14a6 8 0 0 0-6 8 6 8 0 0 0  5 7.887v2.113h-2v2h2v2h1.996v-2h2.004v-2h-2v-2.121a6 8 0 0 0 5-7.879 6 8 0 0 0-6-8m0 1a5 7 0 0 1 5 7 5 7 0 0 1-5 7 5 7 0 0 1-5-7 5 7 0 0 1  5-7z" opacity=".1"/>
  <path d="m23 28v3h-2v2h2v2h1.996v-2h2v-2h-2v-3z" fill="#f9f9f9"/>
  <path d="m24 13a6 8 0 0 0-6 8 6 8 0 0 0  6 8 6 8 0 0 0  6-8 6 8 0 0 0-6-8zm0 1a5 7 0 0 1 5 7 5 7 0 0 1-5 7 5 7 0 0 1-5-7 5 7 0 0 1  5-7z" fill="#f9f9f9"/>
</svg>
