<svg xmlns="http://www.w3.org/2000/svg" viewBox="0 0 48 48">
 <defs>
  <linearGradient id="linearGradient4555" x1="1" x2="47" gradientUnits="userSpaceOnUse">
   <stop style="stop-color:#ffd42a;stop-opacity:1"/>
   <stop offset="1" style="stop-color:#ffd42a;stop-opacity:0"/>
  </linearGradient>
  <linearGradient id="linearGradient4557" gradientUnits="userSpaceOnUse" y1="1" x2="0" y2="47">
   <stop style="stop-color:#fad750;stop-opacity:1"/>
   <stop offset="1" style="stop-color:#f9d33d;stop-opacity:1"/>
  </linearGradient>
 </defs>
 <g>
  
  
  
 </g>
 <g style="fill:url(#linearGradient4555)">
  <path d="m 24 1 c 22.703 0 23 0.297 23 23 c 0 22.703 -0.297 23 -23 23 -22.703 0 -23 -0.297 -23 -23 0 -22.703 0.297 -23 23 -23 z" style="fill:url(#linearGradient4557);fill-opacity:1"/>
 </g>
 <g>
  
 </g>
 <g transform="translate(1,1)" style="fill:#000;opacity:0.1">
  <path d="m 23 11 l -0.965 2.895 a 11.5 11.5 0 0 0 -2.781 1.16 l -2.738 -1.369 l -2.83 2.83 l 1.367 2.734 a 11.5 11.5 0 0 0 -1.148 2.781 l -2.902 0.969 l 0 4 l 2.895 0.965 a 11.5 11.5 0 0 0 1.16 2.781 l -1.369 2.738 l 2.83 2.83 l 2.734 -1.367 a 11.5 11.5 0 0 0 2.779 1.148 l 0.971 2.902 l 4 0 l 0.965 -2.895 a 11.5 11.5 0 0 0 2.779 -1.16 l 2.738 1.369 l 2.83 -2.83 l -1.367 -2.734 a 11.5 11.5 0 0 0 1.148 -2.779 l 2.904 -0.971 l 0 -4 l -2.895 -0.965 a 11.5 11.5 0 0 0 -1.16 -2.779 l 1.369 -2.738 l -2.83 -2.83 l -2.734 1.367 a 11.5 11.5 0 0 0 -2.781 -1.148 l -0.969 -2.904 l -4 0 z m 2 6 a 8 8 0 0 1 4.107 1.145 l -4.107 9.855 l -4.107 -9.855 a 8 8 0 0 1 4.107 -1.145 z m -7.395 4.955 l 4.395 10.04 l 6 0 l 4.393 -10.04 a 8 8 0 0 1 0.607 3.041 a 8 8 0 0 1 -8 8 a 8 8 0 0 1 -8 -8 a 8 8 0 0 1 0.605 -3.045 z" transform="translate(-1,-1)" style="opacity:1;fill-opacity:1;stroke:none"/>
 </g>
 <g>
  <path d="m 22 10 l -0.965 2.895 a 11.5 11.5 0 0 0 -2.781 1.16 l -2.738 -1.369 l -2.83 2.83 l 1.367 2.734 a 11.5 11.5 0 0 0 -1.148 2.781 l -2.904 0.969 l 0 4 l 2.895 0.965 a 11.5 11.5 0 0 0 1.16 2.781 l -1.369 2.738 l 2.83 2.83 l 2.734 -1.367 a 11.5 11.5 0 0 0 2.781 1.148 l 0.969 2.904 l 4 0 l 0.965 -2.895 a 11.5 11.5 0 0 0 2.781 -1.16 l 2.738 1.369 l 2.83 -2.83 l -1.367 -2.734 a 11.5 11.5 0 0 0 1.148 -2.781 l 2.904 -0.969 l 0 -4 l -2.895 -0.965 a 11.5 11.5 0 0 0 -1.16 -2.781 l 1.369 -2.738 l -2.83 -2.83 l -2.734 1.367 a 11.5 11.5 0 0 0 -2.781 -1.148 l -0.969 -2.904 l -4 0 z m 2 6 a 8 8 0 0 1 8 8 a 8 8 0 0 1 -8 8 a 8 8 0 0 1 -8 -8 a 8 8 0 0 1 8 -8 z" style="fill:#b545ab;opacity:1;fill-opacity:1;stroke:none"/>
  <path d="m 14 15 5 0 5 12 5 -12 5 0 -7 16 -6 0 z" style="fill:#e44040;fill-opacity:1;stroke:none;fill-rule:evenodd"/>
 </g>
</svg>
