<svg viewBox="0 0 48 48" xmlns="http://www.w3.org/2000/svg" xmlns:xlink="http://www.w3.org/1999/xlink">
  <linearGradient gradientUnits="userSpaceOnUse" x1="1" x2="47">
    <stop offset="0" stop-color="#ffd42a"/>
    <stop offset="1" stop-color="#ffd42a" stop-opacity="0"/>
  </linearGradient>
  <linearGradient id="a" gradientUnits="userSpaceOnUse" x2="0" y1="1" y2="47">
    <stop offset="0" stop-color="#fad750"/>
    <stop offset="1" stop-color="#f9d33d"/>
  </linearGradient>
  <path d="m24 1c22.703 0 23 .297 23 23 0 22.703-.297 23-23 23-22.703 0-23-.297-23-23 0-22.703.297-23 23-23z" fill="url(#a)"/>
  <path d="m23 11l-.965 2.895a11.5 11.5 0 0 0-2.781 1.16l-2.738-1.369-2.83 2.83 1.367 2.734a11.5 11.5 0 0 0-1.148 2.781l-2.902.969v4l2.895.965a11.5 11.5 0 0 0 1.16 2.781l-1.369 2.738 2.83 2.83 2.734-1.367a11.5 11.5 0 0 0 2.779 1.148l.971 2.902h4l .965-2.895a11.5 11.5 0 0 0 2.779-1.16l2.738 1.369 2.83-2.83-1.367-2.734a11.5 11.5 0 0 0 1.148-2.779l2.904-.971v-4l-2.895-.965a11.5 11.5 0 0 0-1.16-2.779l1.369-2.738-2.83-2.83-2.734 1.367a11.5 11.5 0 0 0-2.781-1.148l-.969-2.904zm2 6a8 8 0 0 1 4.107 1.145l-4.107 9.855-4.107-9.855a8 8 0 0 1 4.107-1.145zm-7.395 4.955l4.395 10.04h6l4.393-10.04a8 8 0 0 1  .607 3.041 8 8 0 0 1-8 8 8 8 0 0 1-8-8 8 8 0 0 1  .605-3.045z" opacity=".1" transform=""/>
  <path d="m22 10l-.965 2.895a11.5 11.5 0 0 0-2.781 1.16l-2.738-1.369-2.83 2.83 1.367 2.734a11.5 11.5 0 0 0-1.148 2.781l-2.904.969v4l2.895.965a11.5 11.5 0 0 0 1.16 2.781l-1.369 2.738 2.83 2.83 2.734-1.367a11.5 11.5 0 0 0 2.781 1.148l.969 2.904h4l .965-2.895a11.5 11.5 0 0 0 2.781-1.16l2.738 1.369 2.83-2.83-1.367-2.734a11.5 11.5 0 0 0 1.148-2.781l2.904-.969v-4l-2.895-.965a11.5 11.5 0 0 0-1.16-2.781l1.369-2.738-2.83-2.83-2.734 1.367a11.5 11.5 0 0 0-2.781-1.148l-.969-2.904zm2 6a8 8 0 0 1 8 8 8 8 0 0 1-8 8 8 8 0 0 1-8-8 8 8 0 0 1  8-8z" fill="#b545ab"/>
  <path d="m14 15h5l5 12 5-12h5l-7 16h-6z" fill="#e44040" fill-rule="evenodd"/>
</svg>
