<svg viewBox="0 0 48 48" xmlns="http://www.w3.org/2000/svg" xmlns:xlink="http://www.w3.org/1999/xlink">
  <linearGradient id="a" gradientUnits="userSpaceOnUse" x2="0" y1="47" y2="1">
    <stop offset="0" stop-color="#b37929"/>
    <stop offset="1" stop-color="#c3842d"/>
  </linearGradient>
  <path d="m24 1c22.703 0 23 .297 23 23 0 22.703-.297 23-23 23-22.703 0-23-.297-23-23 0-22.703.297-23 23-23z" fill="url(#a)"/>
  <path d="m16 12h18v14h-18z" fill-opacity=".098"/>
  <path d="m15 13h18v12h-18z" fill="#9da181"/>
  <path d="m15 12h18v12h-18z" fill="#c1c5a3"/>
  <path d="m15 11h18v12h-18z" fill="#e2e5c9"/>
  <path d="m28 27c-2 0-3.01.996-3 3h2c0-.984 1-1 1-1 0 0 1 0 1 1.029 0 1.971-2-.029-2 3.971h2c .008-3 2-.766 2-4 0-2-1-3-3-3zm-1 8v2h2v-2z" fill-opacity=".098" transform="matrix(1 0 0 .99999998 1 1.0000008)"/>
  <path d="m28 27c-2 0-3.01.996-3 3h2c0-.984 1-1 1-1 0 0 1 0 1 1.029 0 1.971-2-.029-2 3.971h2c .008-3 2-.766 2-4 0-2-1-3-3-3zm-1 8v2h2v-2z" fill="#e2e5c9" transform="scale(1 .99999998)"/>
  <path d="m29.02 21.22h-2.073v-1.158c-.775.927-1.536 1.158-2.839 1.158-2.344 0-3.358-1.333-3.38-3.03 0-.927.34-1.62 1.021-2.077.681-.458 1.602-.681 2.764-.683h2.434v-.356c0-1.244-.574-1.767-1.959-1.767-.869 0-1.772.218-2.711.851l-.88-1.232c1.138-.904 2.43-1.356 3.873-1.356 1.103 0 2 .282 2.694.845.704.552 1.056 1.426 1.056 2.623zm-2.073-3.627v-.792h-2.117c-1.42 0-2.13.446-2.13 1.338 0 .458.176.81.528 1.056.352.235.839.352 1.461.352.634 0 1.185-.176 1.655-.528.469-.352.603-.827.603-1.426z" fill="#4d4d4d" transform="scale(.9647723 1.036514)"/>
  <path d="m28 27c-2 0-3.01.996-3 3h2c0-.984 1-1 1-1 0 0 1 0 1 1.029 0 1.971-2-.029-2 3.971h2c .008-3 2-.766 2-4 0-2-1-3-3-3zm-1 8v2h2v-2z" fill-opacity=".098" transform="matrix(1 0 0 .99999998 -6.9999298 1.0000008)"/>
  <path d="m28 27c-2 0-3.01.996-3 3h2c0-.984 1-1 1-1 0 0 1 0 1 1.029 0 1.971-2-.029-2 3.971h2c .008-3 2-.766 2-4 0-2-1-3-3-3zm-1 8v2h2v-2z" fill="#e2e5c9" transform="matrix(1 0 0 .99999998 -7.9999298 0)"/>
</svg>
