<svg viewBox="0 0 48 48" xmlns="http://www.w3.org/2000/svg" xmlns:xlink="http://www.w3.org/1999/xlink">
  <linearGradient id="a" gradientTransform="matrix(0 -1 1 0 -.0000015 47.999998)" gradientUnits="userSpaceOnUse" x1="1" x2="47">
    <stop offset="0" stop-color="#795d4b"/>
    <stop offset="1" stop-color="#856652"/>
  </linearGradient>
  <path d="m47 24c0 22.703-.297 23-23 23-22.703 0-23-.297-23-23 0-22.703.297-23 23-23 22.703 0 23 .297 23 23z" fill="url(#a)"/>
  <g opacity=".1" transform="translate(1 1)">
    <path d="m11.969 20c-.57.027-.969.176-.969.781v12.75c0 .809.688 1.469 1.563 1.469h22.844c.879 0 1.594-.66 1.594-1.469v-12.75c0-.809-.715-.781-1.594-.781h-22.844c-.219 0-.402-.012-.594 0m13.875.938c1.281-.004 2.656.313 4.156 1.063v8.844c.004.055 0 .105 0 .156 0 1.105-.895 2-2 2-1.105 0-2-.895-2-2 0-1.105.895-2 2-2v-5c-2.34-.547-3.945-.453-6 1v7c0 1.105-.895 2-2 2-1.105 0-2-.895-2-2 0-1.094.879-1.98 1.969-2 .023-.031.012-.035.031-.063v-6.938c1.832-1.172 3.711-2.055 5.844-2.063m0 0"/>
    <path d="m15.05 13.402l-4.051 4.598h12v-7h-5.512c-.809 0-2.438 2.402-2.438 2.402m9.941-2.402v7h12l-4.07-4.598c0 0-1.625-2.402-2.441-2.402m-5.492 0"/>
  </g>
  <path d="m11.969 20c-.57.027-.969.176-.969.781v12.75c0 .809.688 1.469 1.563 1.469h22.844c.879 0 1.594-.66 1.594-1.469v-12.75c0-.809-.715-.781-1.594-.781h-22.844c-.219 0-.402-.012-.594 0m13.875.938c1.281-.004 2.656.313 4.156 1.063v8.844c.004.055 0 .105 0 .156 0 1.105-.895 2-2 2-1.105 0-2-.895-2-2 0-1.105.895-2 2-2v-5c-2.34-.547-3.945-.453-6 1v7c0 1.105-.895 2-2 2-1.105 0-2-.895-2-2 0-1.094.879-1.98 1.969-2 .023-.031.012-.035.031-.063v-6.938c1.832-1.172 3.711-2.055 5.844-2.063m0 0" fill="#dedede"/>
  <path d="m15.05 13.402l-4.051 4.598h12v-7h-5.512c-.809 0-2.438 2.402-2.438 2.402m9.941-2.402v7h12l-4.07-4.598c0 0-1.625-2.402-2.441-2.402m-5.492 0" fill="#dedede"/>
</svg>
