<svg xmlns="http://www.w3.org/2000/svg" viewBox="0 0 48 48">
 <defs>
  <linearGradient id="linearGradient3764" x1="1" x2="47" gradientUnits="userSpaceOnUse" gradientTransform="matrix(0,-1,1,0,-1.5e-6,47.999998)">
   <stop style="stop-color:#7ed753;stop-opacity:1"/>
   <stop offset="1" style="stop-color:#8adb63;stop-opacity:1"/>
  </linearGradient>
 </defs>
 <g>
  
  
  
 </g>
 <g>
  <path d="m 47,24 C 47,46.703 46.703,47 24,47 1.297,47 1,46.703 1,24 1,1.297 1.297,1 24,1 46.703,1 47,1.297 47,24 z" style="fill:url(#linearGradient3764);fill-opacity:1"/>
 </g>
 <g>
  
 </g>
 <g transform="translate(15.590643,4.5263158)" style="fill:#000;opacity:0.1;fill-opacity:1;stroke:none">
  <g style="fill:#000">
   <path d="m 8.312 8.474 c -1.607 0 -2.902 1.295 -2.902 2.902 l 0 0.197 c 0 0.367 0.076 0.716 0.199 1.039 l -3.891 3.242 a 4.5 4.5 0 0 0 -1.809 -0.381 4.5 4.5 0 0 0 -4.5 4.5 4.5 4.5 0 0 0 4.5 4.5 4.5 4.5 0 0 0 1.908 -0.43 l 3.963 3.303 c -0.229 0.456 -0.371 0.965 -0.371 1.512 l 0 0.232 c 0 1.875 1.51 3.383 3.385 3.383 l 8.232 0 c 1.875 0 3.383 -1.508 3.383 -3.383 l 0 -0.232 c 0 -1.875 -1.508 -3.385 -3.383 -3.385 l -8.232 0 c -0.744 0 -1.425 0.246 -1.982 0.65 l -3.111 -3.732 a 4.5 4.5 0 0 0 0.557 -1.277 l 2.313 -0.211 c 0.342 0.918 1.218 1.57 2.258 1.57 l 10.166 0 c 1.339 0 2.416 -1.077 2.416 -2.416 l 0 -0.166 c 0 -1.339 -1.077 -2.418 -2.416 -2.418 l -10.166 0 c -1.039 0 -1.915 0.652 -2.258 1.568 l -2.311 -0.209 a 4.5 4.5 0 0 0 -0.605 -1.35 l 2.965 -3.559 c 0.476 0.343 1.059 0.549 1.693 0.549 l 9.197 0 c 1.607 0 2.9 -1.293 2.9 -2.9 l 0 -0.197 c 0 -1.607 -1.293 -2.902 -2.9 -2.902 l -9.197 0 z" style="stroke-opacity:1;fill:#000;opacity:1"/>
  </g>
 </g>
 <g transform="translate(-3,1)">
  <g>
   <path d="m 22.9 12 c -1.607 0 -2.9 1.293 -2.9 2.9 l 0 0.199 c 0 0.368 0.073 0.716 0.197 1.039 l -3.891 3.242 a 4.5 4.5 0 0 0 -1.807 -0.381 a 4.5 4.5 0 0 0 -4.5 4.5 a 4.5 4.5 0 0 0 4.5 4.5 a 4.5 4.5 0 0 0 1.906 -0.43 l 3.963 3.303 c -0.228 0.456 -0.369 0.965 -0.369 1.512 l 0 0.23 c 0 1.875 1.51 3.385 3.385 3.385 l 8.23 0 c 1.875 0 3.385 -1.51 3.385 -3.385 l 0 -0.23 c 0 -1.875 -1.51 -3.385 -3.385 -3.385 l -8.23 0 c -0.745 0 -1.427 0.244 -1.984 0.648 l -3.109 -3.732 a 4.5 4.5 0 0 0 0.557 -1.275 l 2.313 -0.211 c 0.343 0.917 1.218 1.57 2.258 1.57 l 10.164 0 c 1.339 0 2.418 -1.079 2.418 -2.418 l 0 -0.164 c 0 -1.339 -1.079 -2.418 -2.418 -2.418 l -10.164 0 c -1.039 0 -1.915 0.652 -2.258 1.568 l -2.311 -0.209 a 4.5 4.5 0 0 0 -0.605 -1.352 l 2.965 -3.559 c 0.477 0.343 1.057 0.551 1.691 0.551 l 9.199 0 c 1.607 0 2.9 -1.293 2.9 -2.9 l 0 -0.199 c 0 -1.607 -1.293 -2.9 -2.9 -2.9 l -9.199 0 z" transform="translate(3,-1)" style="fill:#3c6bbb;opacity:1;fill-opacity:1;stroke:none"/>
  </g>
  <rect y="12" x="24" height="4" width="13" rx="1.934" style="fill:#dcdcdc;opacity:1;fill-opacity:1;stroke:none"/>
  <rect y="21" x="25" height="3" width="13" rx="1.45" style="fill:#dcdcdc;opacity:1;fill-opacity:1;stroke:none"/>
  <rect y="29" x="24" height="5" width="13" rx="2.417" style="fill:#dcdcdc;opacity:1;fill-opacity:1;stroke:none"/>
  <circle r="3.5" cy="22.5" cx="17.5" style="fill:#87c5e0;opacity:1;fill-opacity:1;stroke:none"/>
 </g>
</svg>
