<svg viewBox="0 0 48 48" xmlns="http://www.w3.org/2000/svg" xmlns:xlink="http://www.w3.org/1999/xlink">
  <linearGradient id="a" gradientTransform="matrix(0 -1 1 0 -.0000015 47.999998)" gradientUnits="userSpaceOnUse" x1="1" x2="47">
    <stop offset="0" stop-color="#4eb8ca"/>
    <stop offset="1" stop-color="#5dbecf"/>
  </linearGradient>
  <radialGradient id="b" cx="24" cy="27.9" gradientTransform="matrix(1 0 0 1.2375 0 -7.62625)" gradientUnits="userSpaceOnUse" r="8">
    <stop offset="0" stop-color="#f9ed6f"/>
    <stop offset="1" stop-color="#f8e950"/>
  </radialGradient>
  <path d="m47 24c0 22.703-.297 23-23 23-22.703 0-23-.297-23-23 0-22.703.297-23 23-23 22.703 0 23 .297 23 23z" fill="url(#a)"/>
  <path d="m25 10a2 2 0 0 0-2 2 2 2 0 0 0  .213.895l-2.213 1.105v2l-3 1-1 3.5c0 3.137.762 14.523 6 16.869v.131l2 .5 2-.5v-.12c5.24-2.32 6-13.743 6-16.88l-1-3.5-3-1v-2l-2.211-1.105a2 2 0 0 0  .211-.895 2 2 0 0 0-2-2m0 1a1 1 0 0 1 1 1 1 1 0 0 1-.107.447l-.893-.447-.89.447a1 1 0 0 1-.11-.447 1 1 0 0 1  1-1" opacity=".1"/>
  <path d="m24 9a2 2 0 0 0-2 2 2 2 0 0 0  2 2 2 2 0 0 0  2-2 2 2 0 0 0-2-2zm0 1a1 1 0 0 1 1 1 1 1 0 0 1-1 1 1 1 0 0 1-1-1 1 1 0 0 1  1-1z" fill="#1a303e"/>
  <path d="m16 19.5c6-3.5 10-3.5 16 0 0 3.5-.944 17.324-8 17.3-7.06-.024-8-13.8-8-17.3" fill="url(#b)"/>
  <path d="m20 13l4-2 4 2v2l3 1 1 3.5-6-1.5v18.5l-2 .5-2-.5v-18.5l-6 1.5 1-3.5 3-1z" fill="#1a303e"/>
</svg>
