<svg xmlns="http://www.w3.org/2000/svg" viewBox="0 0 48 48">
 <defs>
  <linearGradient id="linearGradient3764" x1="1" x2="47" gradientUnits="userSpaceOnUse" gradientTransform="matrix(0,-1,1,0,-1.5e-6,47.999998)">
   <stop style="stop-color:#ac002d;stop-opacity:1"/>
   <stop offset="1" style="stop-color:#c00033;stop-opacity:1"/>
  </linearGradient>
 </defs>
 <g>
  
  
  
 </g>
 <g>
  <path d="m 47,24 C 47,46.703 46.703,47 24,47 1.297,47 1,46.703 1,24 1,1.297 1.297,1 24,1 46.703,1 47,1.297 47,24 z" style="fill:url(#linearGradient3764);fill-opacity:1"/>
 </g>
 <g>
  
 </g>
 <g style="fill:#f9f9f9;fill-opacity:1">
  <path d="m 21.1 12.242 -5.195 3 3.902 6.758 -7.805 0 0 6 7.805 0 -3.902 6.758 5.195 3 l 3.902 -6.758 3.902 6.758 l 5.195 -3 -3.902 -6.758 7.805 0 0 -6 -7.805 0 3.902 -6.758 -5.195 -3 l -3.902 6.758 -3.902 -6.758" style="fill:#000;fill-opacity:0.098;stroke:none;fill-rule:evenodd"/>
  <rect y="21" x="11" height="6" width="26" style="stroke:none;fill-rule:evenodd"/>
  <rect transform="matrix(0.5,-0.8660254,0.8660254,0.5,0,0)" width="26" height="6" x="-21.785" y="29.785" style="stroke:none;fill-rule:evenodd"/>
  <rect y="5.785" x="-45.785" height="6" width="26" transform="matrix(-0.5,-0.8660254,0.8660254,-0.5,0,0)" style="stroke:none;fill-rule:evenodd"/>
 </g>
</svg>
