<svg viewBox="0 0 48 48" xmlns="http://www.w3.org/2000/svg" xmlns:xlink="http://www.w3.org/1999/xlink">
  <linearGradient id="a" gradientTransform="matrix(0 -1 1 0 -.0000015 47.999998)" gradientUnits="userSpaceOnUse" x1="1" x2="47">
    <stop offset="0" stop-color="#e2262b"/>
    <stop offset="1" stop-color="#e4383e"/>
  </linearGradient>
  <path d="m47 24c0 22.703-.297 23-23 23-22.703 0-23-.297-23-23 0-22.703.297-23 23-23 22.703 0 23 .297 23 23z" fill="url(#a)"/>
  <path d="m17.586 31.926c-.52-.07-1.445-.371-2.062-.668-4.02-1.926-5.664-6.777-3.684-10.863 2.262-4.672 8.434-5.863 12.148-2.344 1.074 1.016 1.551 1.883 3.168 5.727 1.688 4.02 2 4.652 2.547 5.188.586.57 1.129.762 2.168.762 1.707 0 2.926-1.055 2.926-2.527 0-1.246-.438-1.645-2.672-2.438-3.402-1.227-4.504-2.336-4.508-4.563 0-1.188.301-1.98 1.066-2.801 1.098-1.172 2.992-1.559 4.668-.977.715.254 2.211 1.578 2.211 1.957 0 .184-.867.746-1.348.879-.254.066-.473-.02-.766-.301-.594-.57-.996-.746-1.707-.746-1.227 0-1.988.738-1.988 1.93 0 1.188.484 1.59 2.902 2.406 3.332 1.125 4.316 2.141 4.336 4.492.02 2.031-.895 3.496-2.715 4.363-.828.391-1.109.441-2.461.441-1.93-.004-2.797-.359-3.879-1.578-.727-.82-1.465-2.359-3.828-7.977-.98-2.328-2.238-3.469-4.336-3.918-1.063-.227-2.543-.016-3.508.492-.941.492-1.992 1.602-2.488 2.617-.41.824-.449 1.055-.449 2.488 0 1.367.055 1.691.398 2.441.52 1.145 1.543 2.203 2.668 2.773.813.41 1.066.461 2.363.461 1.246 0 1.566-.059 2.309-.414.848-.414 1.988-1.43 2.453-2.191l.242-.395.477 1.09c.266.602.48 1.168.48 1.27 0 .301-1.078 1.285-2.066 1.898-1.5.926-3.223 1.273-5.063 1.023m-.004-.004" opacity=".1" transform="translate(1 1)"/>
  <path d="m17.586 31.926c-.52-.07-1.445-.371-2.062-.668-4.02-1.926-5.664-6.777-3.684-10.863 2.262-4.672 8.434-5.863 12.148-2.344 1.074 1.016 1.551 1.883 3.168 5.727 1.688 4.02 2 4.652 2.547 5.188.586.57 1.129.762 2.168.762 1.707 0 2.926-1.055 2.926-2.527 0-1.246-.438-1.645-2.672-2.438-3.402-1.227-4.504-2.336-4.508-4.563 0-1.188.301-1.98 1.066-2.801 1.098-1.172 2.992-1.559 4.668-.977.715.254 2.211 1.578 2.211 1.957 0 .184-.867.746-1.348.879-.254.066-.473-.02-.766-.301-.594-.57-.996-.746-1.707-.746-1.227 0-1.988.738-1.988 1.93 0 1.188.484 1.59 2.902 2.406 3.332 1.125 4.316 2.141 4.336 4.492.02 2.031-.895 3.496-2.715 4.363-.828.391-1.109.441-2.461.441-1.93-.004-2.797-.359-3.879-1.578-.727-.82-1.465-2.359-3.828-7.977-.98-2.328-2.238-3.469-4.336-3.918-1.063-.227-2.543-.016-3.508.492-.941.492-1.992 1.602-2.488 2.617-.41.824-.449 1.055-.449 2.488 0 1.367.055 1.691.398 2.441.52 1.145 1.543 2.203 2.668 2.773.813.41 1.066.461 2.363.461 1.246 0 1.566-.059 2.309-.414.848-.414 1.988-1.43 2.453-2.191l.242-.395.477 1.09c.266.602.48 1.168.48 1.27 0 .301-1.078 1.285-2.066 1.898-1.5.926-3.223 1.273-5.063 1.023m-.004-.004" fill="#fff"/>
</svg>
