<svg viewBox="0 0 48 48" xmlns="http://www.w3.org/2000/svg" xmlns:xlink="http://www.w3.org/1999/xlink">
  <linearGradient id="a" gradientTransform="matrix(0 -1 1 0 -.0000015 47.999998)" gradientUnits="userSpaceOnUse" x1="1" x2="47">
    <stop offset="0" stop-color="#ac002d"/>
    <stop offset="1" stop-color="#c00033"/>
  </linearGradient>
  <path d="m47 24c0 22.703-.297 23-23 23-22.703 0-23-.297-23-23 0-22.703.297-23 23-23 22.703 0 23 .297 23 23z" fill="url(#a)"/>
  <g fill="#f9f9f9" fill-rule="evenodd">
    <path d="m21.1 12.242l-5.195 3 3.902 6.758h-7.805v6h7.805l-3.902 6.758 5.195 3 3.902-6.758 3.902 6.758 5.195-3-3.902-6.758h7.805v-6h-7.805l3.902-6.758-5.195-3-3.902 6.758z" fill="#000" fill-opacity=".098"/>
    <path d="m11 21h26v6h-26z"/>
    <path d="m-21.785 29.785h26v6h-26z" transform="matrix(.5 -.8660254 .8660254 .5 0 0)"/>
    <path d="m-45.785 5.785h26v6h-26z" transform="matrix(-.5 -.8660254 .8660254 -.5 0 0)"/>
  </g>
</svg>
