<svg viewBox="0 0 48 48" xmlns="http://www.w3.org/2000/svg" xmlns:xlink="http://www.w3.org/1999/xlink">
  <linearGradient id="a" gradientTransform="matrix(0 -1 1 0 -.0000015 47.999998)" gradientUnits="userSpaceOnUse" x1="1" x2="47">
    <stop offset="0" stop-color="#e4e4e4"/>
    <stop offset="1" stop-color="#eee"/>
  </linearGradient>
  <path d="m47 24c0 22.703-.297 23-23 23-22.703 0-23-.297-23-23 0-22.703.297-23 23-23 22.703 0 23 .297 23 23z" fill="url(#a)"/>
  <path d="m24 1v7h-7v-5.906c-.337.108-.67.221-1 .344v5.563h-7v-1.438c-.346.298-.673.62-1 .938v.5h-.5c-.318.327-.64.654-.938 1h1.438v7h-5.563c-.123.33-.236.663-.344 1h5.906v7h-7c0 .334.017.669.031 1h6.969v7h-5.563c.127.342.264.666.406 1h5.156v7h-.5c.481.496.976.986 1.5 1.438v-.438h7v4.563c.33.123.663.236 1 .344v-4.906h7v6c .334 0 .669-.017 1-.031v-5.969h7v4.563c.342-.127.666-.264 1-.406v-4.156h6.5c.522-.476 1.024-.978 1.5-1.5v-6.5h4.156c.142-.334.279-.658.406-1h-4.563v-7h5.969c.014-.331.031-.666.031-1h-6v-7h4.906c-.108-.337-.221-.67-.344-1h-4.563v-7h .438c-.451-.524-.941-1.019-1.438-1.5v.5h-7v-5.156c-.334-.142-.658-.279-1-.406v5.563h-7v-6.969c-.331-.014-.666-.031-1-.031zm-15 8h7v7h-7zm8 0h7v7h-7zm8 0h7v7h-7zm8 0h7v7h-7zm-24 8h7v7h-7zm8 0h7v7h-7zm8 0h7v7h-7zm8 0h7v7h-7zm-24 8h7v7h-7zm8 0h7v7h-7zm8 0h7v7h-7zm8 0h7v7h-7zm-24 8h7v7h-7zm8 0h7v7h-7zm8 0h7v7h-7zm8 0h7v7h-7z" fill="#a0dad0"/>
  <path d="m17 14v12.996.004l4.02-.002c.075 1.291.438 2.576 1.117 3.752a.5.5 0 1 0  .865-.5c-.589-1.02-.898-2.134-.973-3.252l7.969-.002v-7.963c1.117.075 2.231.382 3.25.971 2.942 1.698 4.373 5.156 3.494 8.438-.879 3.281-3.847 5.559-7.244 5.559a.5.5 0 0 0-.424.225l-4.08-1.221-12.434.002c0 0-.563.243-.563 1.496 0 1.209.633 1.498.633 1.498h12.363l4.08-1.223a.5.5 0 0 0  .424.223c3.845 0 7.214-2.587 8.209-6.301.249-.928.334-1.869.27-2.789-.194-2.761-1.731-5.33-4.229-6.771-1.174-.678-2.46-1.042-3.75-1.117v-4.02h-13zm1 1h11v3.02c-2.026.12-4 .961-5.512 2.473-1.51 1.51-2.35 3.481-2.471 5.506h-3.02v-10.996zm11 4.04v6.957h-6.961c.119-1.764.837-3.48 2.156-4.799 1.321-1.321 3.038-2.04 4.805-2.158z" fill-opacity=".098"/>
  <path d="m29.502-21.571a8 8 0 0 1-9.657-1.271 8 8 0 0 1-1.271-9.657 8 8 0 0 1  8.999-3.727 8 8 0 0 1  5.929 7.727" fill="none" stroke="#2d2d2d" stroke-linecap="round" transform="rotate(90)"/>
  <path d="m11.563 32.01c0 0-.563.243-.563 1.496 0 1.209.633 1.499.633 1.499h12.363c.548-1 .481-2 0-2.997" fill="#202e64"/>
  <path d="m24 35l2.5-.749c.252-.487.254-.82 0-1.499l-2.5-.749" fill="#e7ca87"/>
  <path d="m26.5 34.25l2.5-.751-2.5-.748" fill="#2d2d2d"/>
  <path d="m16 13v12.996.004l13-.004v-12.996m-12 1h11v10.996h-11" fill="#2d2d2d"/>
</svg>
