<svg xmlns="http://www.w3.org/2000/svg" viewBox="0 0 48 48">
 <defs>
  <linearGradient id="linearGradient3904" gradientUnits="userSpaceOnUse" y1="1" x2="0" y2="47">
   <stop style="stop-color:#00e66d;stop-opacity:1"/>
   <stop offset="1" style="stop-color:#00d263;stop-opacity:1"/>
  </linearGradient>
 </defs>
 <g>
  
  
  
 </g>
 <path d="M 24,1 C 46.703,1 47,1.297 47,24 47,46.703 46.703,47 24,47 1.297,47 1,46.703 1,24 1,1.297 1.297,1 24,1 z" style="fill:url(#linearGradient3904);fill-opacity:1"/>
 <g style="opacity:0.1">
  <path d="m 20 13 l 0 12.201 l -4.293 -4.1 c -4.391 4.385 -4.992 10.838 -1.24 14.488 c 3.211 3.124 8.517 3.132 12.801 0.41 l 6.732 0 l 0 -23 l -14 0 z" style="fill:#000;fill-opacity:1;stroke:none"/>
 </g>
 <g>
  
 </g>
 <rect width="14" height="23" x="19" y="12" rx="0" style="fill:#d7f4ee;fill-opacity:1;stroke:none"/>
 <rect width="12" height="17" x="20" y="16" style="fill:#ffd92a;fill-opacity:1;stroke:none"/>
 <path d="m 31.5 13 0 10 -1 -10 z" style="fill:#f0fbf8;fill-opacity:1;stroke:none"/>
 <g transform="matrix(0.87969453,0,0,0.8559836,3.0785473,3.6120973)">
  <path transform="matrix(0.72737904,0.72737904,-0.72737904,0.72737904,29.633709,-5.9246054)" d="m 26.989 28.399 c 0 6.863 -4.608 12.427 -10.292 12.427 -5.621 0 -10.203 -5.446 -10.291 -12.233" style="stroke-dasharray:none;stroke-opacity:1;fill:#df5;stroke-miterlimit:4;fill-opacity:1;stroke:#8a0;stroke-width:0.75"/>
  <path d="m 18.327 25.635 -6.523 2.796 0.932 -4.287 z" style="fill:#f6ffd5;stroke:none"/>
  <path d="m 19.445 27.25 -7.393 2.92 0.994 3.355 z" style="fill:#f6ffd5;stroke:none"/>
  <path d="m 20.936 28.741 -6.461 5.964 3.417 1.056 z" style="fill:#f6ffd5;stroke:none"/>
  <path d="m 22.308 29.616 -2.796 6.523 4.307 -0.875 z" style="fill:#f6ffd5;stroke:none"/>
 </g>
</svg>
