<svg viewBox="0 0 48 48" xmlns="http://www.w3.org/2000/svg" xmlns:xlink="http://www.w3.org/1999/xlink">
  <linearGradient id="a" gradientUnits="userSpaceOnUse" x2="0" y1="1" y2="47">
    <stop offset="0" stop-color="#00e66d"/>
    <stop offset="1" stop-color="#00d263"/>
  </linearGradient>
  <path d="m24 1c22.703 0 23 .297 23 23 0 22.703-.297 23-23 23-22.703 0-23-.297-23-23 0-22.703.297-23 23-23z" fill="url(#a)"/>
  <path d="m20 13v12.201l-4.293-4.1c-4.391 4.385-4.992 10.838-1.24 14.488 3.211 3.124 8.517 3.132 12.801.41h6.732v-23h-14z" opacity=".1"/>
  <path d="m19 12h14v23h-14z" fill="#d7f4ee"/>
  <path d="m20 16h12v17h-12z" fill="#ffd92a"/>
  <path d="m31.5 13v10l-1-10z" fill="#f0fbf8"/>
  <g transform="matrix(.87969453 0 0 .8559836 3.0785473 3.6120973)">
    <path d="m26.989 28.399c0 6.863-4.608 12.427-10.292 12.427-5.621 0-10.203-5.446-10.291-12.233" fill="#df5" stroke="#8a0" stroke-width=".75" transform="matrix(.72737904 .72737904 -.72737904 .72737904 29.633709 -5.9246054)"/>
    <path d="m18.327 25.635l-6.523 2.796.932-4.287z" fill="#f6ffd5"/>
    <path d="m19.445 27.25l-7.393 2.92.994 3.355z" fill="#f6ffd5"/>
    <path d="m20.936 28.741l-6.461 5.964 3.417 1.056z" fill="#f6ffd5"/>
    <path d="m22.308 29.616l-2.796 6.523 4.307-.875z" fill="#f6ffd5"/>
  </g>
</svg>
