<svg xmlns="http://www.w3.org/2000/svg" viewBox="0 0 48 48">
 <defs>
  <linearGradient id="linearGradient3764" x1="1" x2="47" gradientUnits="userSpaceOnUse" gradientTransform="matrix(0,-1,1,0,-1.5e-6,47.999998)">
   <stop style="stop-color:#e4e4e4;stop-opacity:1"/>
   <stop offset="1" style="stop-color:#eee;stop-opacity:1"/>
  </linearGradient>
 </defs>
 <g>
  
  
  
 </g>
 <g>
  <path d="m 47,24 C 47,46.703 46.703,47 24,47 1.297,47 1,46.703 1,24 1,1.297 1.297,1 24,1 46.703,1 47,1.297 47,24 z" style="fill:url(#linearGradient3764);fill-opacity:1"/>
 </g>
 <path d="m 24 1 0 7 -7 0 0 -5.906 c -0.337 0.108 -0.67 0.221 -1 0.344 l 0 5.563 -7 0 0 -1.438 c -0.346 0.298 -0.673 0.62 -1 0.938 l 0 0.5 -0.5 0 c -0.318 0.327 -0.64 0.654 -0.938 1 l 1.438 0 0 7 -5.563 0 c -0.123 0.33 -0.236 0.663 -0.344 1 l 5.906 0 0 7 -7 0 c 0 0.334 0.017 0.669 0.031 1 l 6.969 0 0 7 -5.563 0 c 0.127 0.342 0.264 0.666 0.406 1 l 5.156 0 0 7 -0.5 0 c 0.481 0.496 0.976 0.986 1.5 1.438 l 0 -0.438 l 7 0 0 4.563 c 0.33 0.123 0.663 0.236 1 0.344 l 0 -4.906 l 7 0 0 6 c 0.334 0 0.669 -0.017 1 -0.031 l 0 -5.969 l 7 0 0 4.563 c 0.342 -0.127 0.666 -0.264 1 -0.406 l 0 -4.156 l 6.5 0 c 0.522 -0.476 1.024 -0.978 1.5 -1.5 l 0 -6.5 4.156 0 c 0.142 -0.334 0.279 -0.658 0.406 -1 l -4.563 0 l 0 -7 5.969 0 c 0.014 -0.331 0.031 -0.666 0.031 -1 l -6 0 0 -7 4.906 0 c -0.108 -0.337 -0.221 -0.67 -0.344 -1 l -4.563 0 0 -7 0.438 0 c -0.451 -0.524 -0.941 -1.019 -1.438 -1.5 l 0 0.5 -7 0 0 -5.156 c -0.334 -0.142 -0.658 -0.279 -1 -0.406 l 0 5.563 -7 0 0 -6.969 c -0.331 -0.014 -0.666 -0.031 -1 -0.031 z m -15 8 7 0 0 7 -7 0 0 -7 z m 8 0 7 0 0 7 -7 0 0 -7 z m 8 0 7 0 0 7 -7 0 0 -7 z m 8 0 7 0 0 7 -7 0 0 -7 z m -24 8 7 0 0 7 -7 0 0 -7 z m 8 0 7 0 0 7 -7 0 0 -7 z m 8 0 7 0 0 7 -7 0 0 -7 z m 8 0 7 0 0 7 -7 0 0 -7 z m -24 8 7 0 0 7 -7 0 0 -7 z m 8 0 7 0 0 7 -7 0 0 -7 z m 8 0 7 0 0 7 -7 0 0 -7 z m 8 0 7 0 0 7 -7 0 0 -7 z m -24 8 7 0 0 7 -7 0 0 -7 z m 8 0 7 0 0 7 -7 0 0 -7 z m 8 0 7 0 0 7 -7 0 0 -7 z m 8 0 7 0 0 7 -7 0 0 -7 z" style="fill:#a0dad0;fill-opacity:1"/>
 <g>
  
 </g>
 <path d="m 17 14 l 0 12.996 l 0 0.004 l 4.02 -0.002 c 0.075 1.291 0.438 2.576 1.117 3.752 a 0.5 0.5 0 1 0 0.865 -0.5 c -0.589 -1.02 -0.898 -2.134 -0.973 -3.252 l 7.969 -0.002 l 0 -7.963 c 1.117 0.075 2.231 0.382 3.25 0.971 c 2.942 1.698 4.373 5.156 3.494 8.438 c -0.879 3.281 -3.847 5.559 -7.244 5.559 a 0.5 0.5 0 0 0 -0.424 0.225 l -4.08 -1.221 l -12.434 0.002 c 0 0 -0.563 0.243 -0.563 1.496 c 0 1.209 0.633 1.498 0.633 1.498 l 12.363 0 l 4.08 -1.223 a 0.5 0.5 0 0 0 0.424 0.223 c 3.845 0 7.214 -2.587 8.209 -6.301 c 0.249 -0.928 0.334 -1.869 0.27 -2.789 c -0.194 -2.761 -1.731 -5.33 -4.229 -6.771 c -1.174 -0.678 -2.46 -1.042 -3.75 -1.117 l 0 -4.02 l -13 0 z m 1 1 l 11 0 l 0 3.02 c -2.026 0.12 -4 0.961 -5.512 2.473 c -1.51 1.51 -2.35 3.481 -2.471 5.506 l -3.02 0 l 0 -10.996 z m 11 4.04 l 0 6.957 l -6.961 0 c 0.119 -1.764 0.837 -3.48 2.156 -4.799 c 1.321 -1.321 3.038 -2.04 4.805 -2.158 z" style="fill:#000;fill-opacity:0.098;stroke:none;fill-rule:nonzero"/>
 <g>
  <path transform="matrix(0,1,-1,0,0,0)" d="m 29.502 -21.571 a 8 8 0 0 1 -9.657 -1.271 8 8 0 0 1 -1.271 -9.657 8 8 0 0 1 8.999 -3.727 8 8 0 0 1 5.929 7.727" style="stroke-opacity:1;fill:none;fill-opacity:0.918;stroke:#2d2d2d;stroke-linecap:round"/>
  <path d="m 11.563 32.01 c 0 0 -0.563 0.243 -0.563 1.496 c 0 1.209 0.633 1.499 0.633 1.499 l 12.363 0 c 0.548 -1 0.481 -2 0 -2.997" style="fill:#202e64;fill-opacity:1;stroke:none;fill-rule:nonzero"/>
  <path d="m 24 35 2.5 -0.749 c 0.252 -0.487 0.254 -0.82 0 -1.499 l -2.5 -0.749" style="fill:#e7ca87;fill-opacity:1;stroke:none;fill-rule:nonzero"/>
  <path d="m 26.5 34.25 2.5 -0.751 -2.5 -0.748" style="fill:#2d2d2d;fill-opacity:1;stroke:none;fill-rule:nonzero"/>
  <path d="m 16 13 0 12.996 0 0.004 13 -0.004 0 -12.996 m -12 1 11 0 l 0 10.996 -11 0" style="fill:#2d2d2d;fill-opacity:1;stroke:none"/>
 </g>
</svg>
