<svg viewBox="0 0 48 48" xmlns="http://www.w3.org/2000/svg" xmlns:xlink="http://www.w3.org/1999/xlink">
  <linearGradient id="a" gradientTransform="matrix(0 -1 1 0 -.0000015 47.999998)" gradientUnits="userSpaceOnUse" x1="1" x2="47">
    <stop offset="0" stop-color="#e4e4e4"/>
    <stop offset="1" stop-color="#eee"/>
  </linearGradient>
  <path d="m47 24c0 22.703-.297 23-23 23-22.703 0-23-.297-23-23 0-22.703.297-23 23-23 22.703 0 23 .297 23 23z" fill="url(#a)"/>
  <g opacity=".1" transform="translate(1 1)">
    <path d="m22.98 11l-9.934 5.617 4.801 2.715 5.133-2.895m0-5.438"/>
    <path d="m25.04 11v5.434l5.129 2.906 4.805-2.715-9.93-5.625m-.004 0"/>
    <path d="m12 18.375l-.004 11.238 4.801-2.711v-5.813m-4.797-2.715"/>
    <path d="m36 18.383l-4.801 2.715v5.809l4.797 2.715m.004-11.238"/>
    <path d="m17.824 28.656l-4.801 2.719 9.93 5.625v-5.434m-5.129-2.91"/>
    <path d="m30.16 28.664l-5.129 2.895v5.438l9.93-5.617-4.801-2.719m0 .004"/>
    <path d="m29.758 20.742v6.52l-5.762 3.258-5.758-3.262.004-6.52 5.762-3.258m5.754 3.262"/>
  </g>
  <path d="m22.98 11l-9.934 5.617 4.801 2.715 5.133-2.895m0-5.438" fill="#3695ba"/>
  <path d="m25.04 11v5.434l5.129 2.906 4.805-2.715-9.93-5.625m-.004 0" fill="#8eb335"/>
  <path d="m12 18.375l-.004 11.238 4.801-2.711v-5.813m-4.797-2.715" fill="#363dbe"/>
  <path d="m36 18.383l-4.801 2.715v5.809l4.797 2.715m.004-11.238" fill="#cf8c3b"/>
  <path d="m17.824 28.656l-4.801 2.719 9.93 5.625v-5.434m-5.129-2.91" fill="#b93780"/>
  <path d="m30.16 28.664l-5.129 2.895v5.438l9.93-5.617-4.801-2.719m0 .004" fill="#9d2c34"/>
  <path d="m29.758 20.742v6.52l-5.762 3.258-5.758-3.262.004-6.52 5.762-3.258m5.754 3.262" fill="#f8c100"/>
</svg>
