<svg viewBox="0 0 48 48" xmlns="http://www.w3.org/2000/svg" xmlns:xlink="http://www.w3.org/1999/xlink">
  <linearGradient id="a" gradientUnits="userSpaceOnUse" x1="1" x2="47">
    <stop offset="0" stop-color="#e6e6e6"/>
    <stop offset="1" stop-color="#f0f0f0"/>
  </linearGradient>
  <path d="m24 1c22.703 0 23 .297 23 23 0 22.703-.297 23-23 23-22.703 0-23-.297-23-23 0-22.703.297-23 23-23z" fill="url(#a)" transform="matrix(0 -1 1 0 0 48)"/>
  <g fill="#41da52" transform="matrix(.99884539 -.14493047 .14776027 .97971622 0 -.99999964)">
    <path d="m31.576 16.92l-14.01-.236-.015.892 2.106.354-.223 13.96-2.117.294-.013.892 14.81.251.306-4.567-1.116-.02-.749 3.02c-.657.119-2.04.161-4.151.125l-3.105-.052.102-6.321 4.306.074.35 1.865 1.092.018.081-5.04-1.092-.018-.41 1.803-4.306-.074.095-6.01 2.554.043c1.734.029 3.057.109 3.972.238l.352 2.66 1.116.018.066-4.169zm-13.575 6.88l-8.506-.005.001.892 2.099.319.007 13.964-2.112.33.001.892 14.812.007.464-4.952h-1.105l-1 3.41c-.818.163-2.099.244-3.842.243l-3.349-.003-.008-13.889 2.539-.317.001-.892z" fill="#000" opacity=".1"/>
    <path d="m17.17 22.656l-8.506-.005.001.892 2.099.319.007 13.964-2.112.33.001.892 14.812.007.464-4.952h-1.105l-1 3.41c-.818.163-2.099.244-3.842.243l-3.349-.003-.008-13.889 2.539-.317.001-.892z" fill="#36da47"/>
    <path d="m30.744 15.776l-14.01-.236-.015.892 2.106.354-.223 13.96-2.117.294-.013.892 14.81.251.306-4.567-1.116-.02-.749 3.02c-.657.119-2.04.161-4.151.125l-3.105-.052.102-6.321 4.306.074.35 1.865 1.092.018.081-5.04-1.092-.018-.41 1.803-4.306-.074.095-6.01 2.554.043c1.734.029 3.057.109 3.972.238l.352 2.66 1.116.018.066-4.169z" fill="#f6af4a"/>
  </g>
</svg>
