<svg xmlns="http://www.w3.org/2000/svg" viewBox="0 0 48 48">
 <defs>
  <linearGradient id="linearGradient4328" x1="1" x2="47" gradientUnits="userSpaceOnUse">
   <stop style="stop-color:#e6e6e6;stop-opacity:1"/>
   <stop offset="1" style="stop-color:#f0f0f0;stop-opacity:1"/>
  </linearGradient>
 </defs>
 <g>
  
  
  
 </g>
 <g transform="matrix(0,-1,1,0,0,48)" style="fill:url(#linearGradient4328);fill-opacity:1">
  <path d="M 24,1 C 46.703,1 47,1.297 47,24 47,46.703 46.703,47 24,47 1.297,47 1,46.703 1,24 1,1.297 1.297,1 24,1 Z"/>
 </g>
 <g>
  
 </g>
 <g transform="matrix(0.99884539,-0.14493047,0.14776027,0.97971622,0,-0.99999964)" style="fill:#41da52;fill-opacity:1;stroke:none">
  <path d="m 31.576 16.92 -14.01 -0.236 -0.015 0.892 2.106 0.354 -0.223 13.96 -2.117 0.294 -0.013 0.892 14.81 0.251 0.306 -4.567 -1.116 -0.02 -0.749 3.02 c -0.657 0.119 -2.04 0.161 -4.151 0.125 l -3.105 -0.052 0.102 -6.321 4.306 0.074 0.35 1.865 1.092 0.018 0.081 -5.04 -1.092 -0.018 -0.41 1.803 -4.306 -0.074 0.095 -6.01 2.554 0.043 c 1.734 0.029 3.057 0.109 3.972 0.238 l 0.352 2.66 1.116 0.018 0.066 -4.169 z m -13.575 6.88 -8.506 -0.005 0.001 0.892 2.099 0.319 0.007 13.964 -2.112 0.33 0.001 0.892 14.812 0.007 0.464 -4.952 -1.105 0 -1 3.41 c -0.818 0.163 -2.099 0.244 -3.842 0.243 l -3.349 -0.003 -0.008 -13.889 2.539 -0.317 0.001 -0.892 z" style="fill:#000;opacity:0.1"/>
  <path d="m 17.17 22.656 -8.506 -0.005 0.001 0.892 2.099 0.319 0.007 13.964 -2.112 0.33 0.001 0.892 14.812 0.007 0.464 -4.952 -1.105 0 -1 3.41 c -0.818 0.163 -2.099 0.244 -3.842 0.243 l -3.349 -0.003 -0.008 -13.889 2.539 -0.317 0.001 -0.892 z" style="fill:#36da47"/>
  <path d="m 30.744 15.776 -14.01 -0.236 -0.015 0.892 2.106 0.354 -0.223 13.96 -2.117 0.294 -0.013 0.892 14.81 0.251 0.306 -4.567 -1.116 -0.02 -0.749 3.02 c -0.657 0.119 -2.04 0.161 -4.151 0.125 l -3.105 -0.052 0.102 -6.321 4.306 0.074 0.35 1.865 1.092 0.018 0.081 -5.04 -1.092 -0.018 -0.41 1.803 -4.306 -0.074 0.095 -6.01 2.554 0.043 c 1.734 0.029 3.057 0.109 3.972 0.238 l 0.352 2.66 1.116 0.018 0.066 -4.169 z" style="fill:#f6af4a"/>
 </g>
</svg>
