<svg xmlns="http://www.w3.org/2000/svg" viewBox="0 0 48 48">
 <defs>
  <linearGradient id="linearGradient3764" x1="1" x2="47" gradientUnits="userSpaceOnUse" gradientTransform="matrix(0,-1,1,0,-1.5e-6,47.999998)">
   <stop style="stop-color:#003c80;stop-opacity:1"/>
   <stop offset="1" style="stop-color:#004694;stop-opacity:1"/>
  </linearGradient>
 </defs>
 <g>
  
  
  
 </g>
 <g>
  <path d="m 47,24 C 47,46.703 46.703,47 24,47 1.297,47 1,46.703 1,24 1,1.297 1.297,1 24,1 46.703,1 47,1.297 47,24 z" style="fill:url(#linearGradient3764);fill-opacity:1"/>
 </g>
 <g>
  <g>
   <g transform="translate(1,1)">
    <g style="opacity:0.1">
     <!-- color: #004694 -->
    </g>
   </g>
  </g>
 </g>
 <g>
  <g>
   <!-- color: #004694 -->
  </g>
 </g>
 <g>
  
 </g>
 <path d="m 17.05 14.13 c -0.674 0.173 -0.112 2.176 0.152 3.117 -0.757 0.983 -0.395 2.271 -0.111 3.284 0.499 1.779 1.982 2.945 3.312 2.605 1.33 -0.34 2.391 -0.678 1.892 -2.457 -0.258 -0.92 -1.576 -0.732 -1.345 -2.22 0.328 -2.107 -0.909 -2.135 -2.836 -1.642 -0.277 -0.989 -0.775 -2.761 -1.064 -2.687 z m 8.286 -2.121 c -0.289 0.074 0.207 1.847 0.485 2.835 -1.927 0.493 -2.984 1.108 -1.597 2.777 0.98 1.178 -0.261 1.645 -0.003 2.565 0.499 1.779 1.595 1.565 2.925 1.224 1.33 -0.34 2 -2.059 1.505 -3.838 -0.284 -1.013 -0.646 -2.302 -1.815 -2.791 -0.264 -0.941 -0.825 -2.945 -1.499 -2.772 z m -13.156 11.259 c -0.482 0.123 0.115 2.25 0.422 3.344 0.387 1.38 0.958 2.294 1.844 2.928 1.153 0.826 3.61 0.516 4.252 -0.645 0.321 -0.58 0.609 -1.606 -0.042 -2.01 l -4.101 -2.522 c -0.473 -0.291 -1.047 0.068 -1.41 0.494 -0.223 -0.796 -0.481 -1.717 -0.963 -1.593 z m 22.16 -5.672 c -0.482 0.123 -0.224 1.044 0 1.84 -0.538 -0.195 -1.223 -0.232 -1.48 0.246 l -2.232 4.143 c -0.355 0.658 0.432 1.408 1.013 1.758 1.163 0.699 3.454 -0.206 4.02 -1.472 0.435 -0.972 0.451 -2.036 0.064 -3.417 -0.307 -1.095 -0.903 -3.221 -1.385 -3.098 z m -9.788 7.438 c -4.271 1.093 -3.373 3.492 -3.977 5.457 -0.475 1.545 -2.439 1.118 -1.923 2.958 0.647 2.306 3.088 3.155 7.198 2.103 l 3.082 -0.789 c 4.11 -1.052 5.78 -2.954 5.133 -5.26 -0.516 -1.841 -1.993 -0.532 -3.214 -1.643 -1.551 -1.413 -2.029 -3.919 -6.3 -2.826 z" style="fill:#000;opacity:0.1;fill-opacity:1;stroke:none"/>
 <path d="m 16.05 13.13 c -0.674 0.173 -0.112 2.176 0.152 3.117 -0.757 0.983 -0.395 2.271 -0.111 3.284 0.499 1.779 1.982 2.945 3.312 2.605 1.33 -0.34 2.391 -0.678 1.892 -2.457 -0.258 -0.92 -1.576 -0.732 -1.345 -2.22 0.328 -2.107 -0.909 -2.135 -2.836 -1.642 -0.277 -0.989 -0.775 -2.761 -1.064 -2.687 z m 8.286 -2.121 c -0.289 0.074 0.207 1.847 0.485 2.835 -1.927 0.493 -2.984 1.108 -1.597 2.777 0.98 1.178 -0.261 1.645 -0.003 2.565 0.499 1.779 1.595 1.565 2.925 1.224 1.33 -0.34 2 -2.059 1.505 -3.838 -0.284 -1.013 -0.646 -2.302 -1.815 -2.791 -0.264 -0.941 -0.825 -2.945 -1.499 -2.772 z m -13.156 11.259 c -0.482 0.123 0.115 2.25 0.422 3.344 0.387 1.38 0.958 2.294 1.844 2.928 1.153 0.826 3.61 0.516 4.252 -0.645 0.321 -0.58 0.609 -1.606 -0.042 -2.01 l -4.101 -2.522 c -0.473 -0.291 -1.047 0.068 -1.41 0.494 -0.223 -0.796 -0.481 -1.717 -0.963 -1.593 z m 22.16 -5.672 c -0.482 0.123 -0.224 1.044 0 1.84 -0.538 -0.195 -1.223 -0.232 -1.48 0.246 l -2.232 4.143 c -0.355 0.658 0.432 1.408 1.013 1.758 1.163 0.699 3.454 -0.206 4.02 -1.472 0.435 -0.972 0.451 -2.036 0.064 -3.417 -0.307 -1.095 -0.903 -3.221 -1.385 -3.098 z m -9.788 7.438 c -4.271 1.093 -3.373 3.492 -3.977 5.457 -0.475 1.545 -2.439 1.118 -1.923 2.958 0.647 2.306 3.088 3.155 7.198 2.103 l 3.082 -0.789 c 4.11 -1.052 5.78 -2.954 5.133 -5.26 -0.516 -1.841 -1.993 -0.532 -3.214 -1.643 -1.551 -1.413 -2.029 -3.919 -6.3 -2.826 z" style="fill:#f9f9f9;opacity:1;fill-opacity:1;stroke:none"/>
</svg>
