<svg xmlns="http://www.w3.org/2000/svg" viewBox="0 0 48 48">
 <defs>
  <linearGradient id="linearGradient3790" y1="1" x2="0" y2="47" gradientUnits="userSpaceOnUse">
   <stop style="stop-color:#3432e6;stop-opacity:1"/>
   <stop offset="1" style="stop-color:#150f7d;stop-opacity:1"/>
  </linearGradient>
 </defs>
 <g>
  
  
  
 </g>
 <g transform="matrix(0.97826087,0,0,0.97826087,0.52173913,0.52173911)" style="fill:#5fbcd3">
  <path d="M 24,1 C 46.703,1 47,1.297 47,24 47,46.703 46.703,47 24,47 1.297,47 1,46.703 1,24 1,1.297 1.297,1 24,1 z" style="fill:url(#linearGradient3790);fill-opacity:1"/>
 </g>
 <g transform="translate(-55.857653,0.85409255)" style="fill:#fc0">
  <path d="m 79.86 0.146 c -22.703 0 -23 0.297 -23 23 0 22.703 0.297 23 23 23 22.703 0 23 -0.297 23 -23 0 -22.703 -0.297 -23 -23 -23 z m 0 3 c 11.05 0 20 8.954 20 20 0 11.05 -8.954 20 -20 20 -11.05 0 -20 -8.954 -20 -20 0 -11.05 8.954 -20 20 -20 z" style="fill-opacity:1"/>
 </g>
 <g>
  
 </g>
 <g transform="translate(1,1)" style="fill:#000;opacity:0.1">
  <path d="m 19 13 0 19 -3 3 18 0 2 -8 -6 4 -4 0 -2 -2 0 -16 z m -3 -3 11 0 -3 3 -5 0 z" style="stroke:none"/>
 </g>
 <g>
  <path d="m 19 13 0 19 -3 3 18 0 2 -8 -6 4 -4 0 -2 -2 0 -16 z m -3 -3 11 0 -3 3 -5 0 z" style="fill:#fc0;stroke:none"/>
  <path d="m 16 10 6 2 -3 1 z" style="fill:#d4aa00;stroke:none"/>
  <path d="m 27,10 -5,2 0,21 4,-2 L 24,28.8854 24,13 Z" style="fill:#d4aa00;stroke:none"/>
  <path d="m 16 35 6 -2 10 0 4 -6 -2 8 z" style="fill:#d4aa00;stroke:none"/>
 </g>
</svg>
