<svg viewBox="0 0 48 48" xmlns="http://www.w3.org/2000/svg" xmlns:xlink="http://www.w3.org/1999/xlink">
  <linearGradient id="a" gradientTransform="matrix(0 -1 1 0 -.0000015 47.999998)" gradientUnits="userSpaceOnUse" x1="1" x2="47">
    <stop offset="0" stop-color="#1a505e"/>
    <stop offset="1" stop-color="#1e5e6e"/>
  </linearGradient>
  <path d="m47 24c0 22.703-.297 23-23 23-22.703 0-23-.297-23-23 0-22.703.297-23 23-23 22.703 0 23 .297 23 23z" fill="url(#a)"/>
  <g fill-rule="evenodd" transform="translate(-.00000039 -.00000145)">
    <path d="m25 11l-12 7v14l12 7 12-7v-14z" opacity=".1" transform="matrix(1.00000003 0 0 1.00000004 0 -.00000004)"/>
    <g transform="matrix(.97764644 0 0 .98777777 -1.8564059 -5.913333)">
      <path d="m24 10l-12 7 12 21 12-21" fill="#e7ebf1" transform="matrix(1.0228647 0 0 1.0123735 1.898852 5.9865014)"/>
      <path d="m36 17l-12 7c-1.306 4.667-.648 9.333 0 14l12-7z" fill="#1597dd" transform="matrix(1.0228647 0 0 1.0123735 1.898852 5.9865014)"/>
      <path d="m12 17v13.996l12 7v-14" fill="#097cba" transform="matrix(1.0228647 0 0 1.0123735 1.898852 5.9865014)"/>
    </g>
  </g>
  <path d="m34 19.5l-8 5v2l8-5zm0 3l-2 1.25v2l2-1.25zm-3 1.875l-2 1.25v2l2-1.25zm3 1.125l-2 1.25v2l2-1.25zm-6 .75l-2 1.25v2l2-1.25zm3 1.125l-2 1.25v2l2-1.25zm3 1.125l-2 1.25v2l2-1.25zm-6 .75l-2 1.25v2l2-1.25zm3 1.125l-2 1.25v2l2-1.25zm-3 1.875l-2 1.25v2l2-1.25z" fill="#e7ebf1"/>
</svg>
