<svg viewBox="0 0 48 48" xmlns="http://www.w3.org/2000/svg" xmlns:xlink="http://www.w3.org/1999/xlink">
  <linearGradient id="a" gradientTransform="matrix(0 -1 1 0 -.0000015 47.999998)" gradientUnits="userSpaceOnUse" x1="1" x2="47">
    <stop offset="0" stop-color="#9748b4"/>
    <stop offset="1" stop-color="#9e54bb"/>
  </linearGradient>
  <path d="m47 24c0 22.703-.297 23-23 23-22.703 0-23-.297-23-23 0-22.703.297-23 23-23 22.703 0 23 .297 23 23z" fill="url(#a)"/>
  <path d="m20 1.354c-.336.059-.669.124-1 .197v22.449h-18c0 .335.011.668.025 1h17.975v21.449c.331.073.664.138 1 .197v-21.646h12v14h1 8.428c.281-.326.554-.659.816-1h-9.244v-13h6 1 6.975c.014-.332.025-.665.025-1h-7v-16.516c-.324-.314-.658-.617-1-.912v17.428h-19z" fill="#fff" fill-opacity=".314"/>
  <path d="m21 1.201c-.336.044-.669.094-1 .152v13.04c-3.402.53-6 1.548-6 2.732v2.5c0 1.185 2.598 2.318 6 2.922v1.986c-2.601-.39-4.829-.994-5.559-1.721-.297.297-.441.608-.441.938v1.25h-12.975c.014.336.038.668.066 1h12.908v.25c0 1.103 2.65 1.916 6 2.361v2.773c-2.601-.496-4.829-1.223-5.559-1.947-.297.297-.441.608-.441.938v2.5c0 1.103 2.65 2.067 6 2.623v11.148c.331.058.664.109 1 .152v-11.158c1.624.222 3.347.359 5 .359 2.729 0 5.196-.343 7-.896v4.896h1 6.516c.314-.324.617-.658.912-1h-7.428v-4.266c1.241-.52 2-1.16 2-1.859v-2.5c0-.328-.176-.64-.477-.938-.338.337-.865.672-1.523.988v-2.453c1.24-.447 2-1.023 2-1.723v-.25h4 1 5.908c.029-.332.052-.664.066-1h-5.975v-16.492c-.321-.353-.657-.691-1-1.023v17.516h-4v-1.25c0-.328-.176-.64-.477-.938-1.273 1.27-5.05 2.188-9.523 2.188-1.588 0-3.339-.121-5-.326v-1.953c1.276.177 2.636.279 4 .279 5.523 0 11-1.648 11-3.375v-2.5c0-1.727-5.477-3.125-11-3.125-1.364 0-2.724.088-4 .242v-13.04zm12 27.09v2.559c-1.801.665-4.267 1.152-7 1.152-1.588 0-3.339-.169-5-.436v-2.842c1.624.175 3.347.277 5 .277 2.729 0 5.196-.25 7-.711z" fill-opacity=".098"/>
  <g opacity=".1" transform="translate(1 1)">
    <path d="m30 18h1v1h-1m0-1"/>
    <path d="m30 25.02h1v1h-1m0-1"/>
    <path d="m30 31.996h1v1h-1m0-1"/>
  </g>
  <path d="m24 13c-5.523 0-11 1.398-11 3.125v2.5c0 1.727 5.477 3.375 11 3.375 5.523 0 11-1.648 11-3.375v-2.5c0-1.727-5.477-3.125-11-3.125m0 0" fill="#ecdef8"/>
  <path d="m25 24c-4.477 0-10.285-.918-11.559-2.188-.297.297-.441.609-.441.938v2.5c0 1.727 6.477 2.75 12 2.75 5.523 0 10-1.023 10-2.75v-2.5c0-.328-.176-.641-.477-.938-1.273 1.27-5.05 2.188-9.523 2.188m0 0" fill="#ecdef8"/>
  <path d="m25 31c-4.477 0-10.285-1.297-11.559-2.563-.297.297-.441.609-.441.938v2.5c0 1.727 6.477 3.125 12 3.125 5.523 0 10-1.398 10-3.125v-2.5c0-.328-.176-.641-.477-.938-1.273 1.266-5.05 2.563-9.523 2.563m0 0" fill="#ecdef8"/>
  <path d="m30 18h1v1h-1m0-1" fill="#6184fb"/>
  <path d="m30 25.02h1v1h-1m0-1" fill="#6184fb"/>
  <path d="m30 31.996h1v1h-1m0-1" fill="#6184fb"/>
</svg>
