<svg viewBox="0 0 48 48" xmlns="http://www.w3.org/2000/svg" xmlns:xlink="http://www.w3.org/1999/xlink">
  <linearGradient id="a" gradientTransform="matrix(0 -1 1 0 -.0000015 47.999998)" gradientUnits="userSpaceOnUse" x1="1" x2="47">
    <stop offset="0" stop-color="#3d3d3d"/>
    <stop offset="1" stop-color="#474747"/>
  </linearGradient>
  <path d="m47 24c0 22.703-.297 23-23 23-22.703 0-23-.297-23-23 0-22.703.297-23 23-23 22.703 0 23 .297 23 23z" fill="url(#a)"/>
  <g transform="translate(.00022427)">
    <path d="m12 12v3h3v-3zm13 0a13 13 0 0 0-13 13 13 13 0 0 0  13 13 13 13 0 0 0  13-13 13 13 0 0 0-13-13zm10 0v3h3v-3zm-10 3a10 10 0 0 1 9.787 8h-16.529v-1h-2.795a10 10 0 0 1 9.537-7zm-6.742 12h16.539a10 10 0 0 1-9.797 8 10 10 0 0 1-9.527-7h2.785zm-6.258 8v3h3v-3zm23 0v3h3v-3z" opacity=".1" transform="translate(-.00022427)"/>
    <path d="m11 11v3h3v-3zm13 0a13 13 0 0 0-13 13 13 13 0 0 0  13 13 13 13 0 0 0  13-13 13 13 0 0 0-13-13zm10 0v3h3v-3zm-10 3a10 10 0 0 1 10 10 10 10 0 0 1-10 10 10 10 0 0 1-10-10 10 10 0 0 1  10-10zm-13 20v3h3v-3zm23 0v3h3v-3z" fill="#9ce709" transform="translate(-.00022427)"/>
  </g>
  <path d="m11.361 21c-.228.965-.361 1.965-.361 3 0 1.035.133 2.035.361 3h5.896v-1h19.574c.101-.654.168-1.318.168-2 0-.682-.067-1.346-.168-2h-19.574v-1z" fill="#f9f9f9"/>
</svg>
