<svg viewBox="0 0 48 48" xmlns="http://www.w3.org/2000/svg" xmlns:xlink="http://www.w3.org/1999/xlink">
  <linearGradient id="a" gradientTransform="matrix(0 -1 1 0 -.0000015 47.999998)" gradientUnits="userSpaceOnUse" x1="1" x2="47">
    <stop offset="0" stop-color="#b0e648"/>
    <stop offset="1" stop-color="#b9e85a"/>
  </linearGradient>
  <path d="m47 24c0 22.703-.297 23-23 23-22.703 0-23-.297-23-23 0-22.703.297-23 23-23 22.703 0 23 .297 23 23z" fill="url(#a)"/>
  <path d="m25 10c-.551 0-1 .449-1 1 .046 1.014.02 2.07.02 3.098-2.292.456-4.02 2.476-4.02 4.902 0 .575.116 1.119.295 1.633l-6.295 19.367 8.762-16.551c.676.341 1.429.551 2.238.551.808 0 1.562-.21 2.238-.551l8.762 16.551-6.293-19.373c.177-.512.293-1.054.293-1.627 0-2.412-1.711-4.423-3.98-4.895 0-1.169.012-1.938-.02-3.105 0-.551-.449-1-1-1m0 6c1.656 0 3 1.34 3 3 0 1.66-1.344 3-3 3-1.66 0-3-1.34-3-3 0-1.66 1.344-3 3-3z" opacity=".1" transform=""/>
  <path d="m25.02 10v3.227c0 .98-.445 1.773-1 1.773-.551 0-1-.793-1-1.773v-3.227m2 0" fill="#be3d27"/>
  <path d="m25 10c0 .551-.449 1-1 1-.551 0-1-.449-1-1 0-.551.449-1 1-1 .551 0 1 .449 1 1m0 0" fill="#be3d27"/>
  <path d="m22 22l-9 17 6.5-19.996m2.5 2.996" fill="#ebecf1"/>
  <path d="m26 22l9 17-6.496-19.996m-2.504 2.996" fill="#ebecf1"/>
  <path d="m24 13c-2.762 0-5 2.238-5 5 0 2.762 2.238 5 5 5 2.758 0 5-2.238 5-5 0-2.762-2.242-5-5-5m0 2c1.656 0 3 1.34 3 3 0 1.66-1.344 3-3 3-1.66 0-3-1.34-3-3 0-1.66 1.344-3 3-3m0 0" fill="#be3d27"/>
</svg>
