<svg viewBox="0 0 48 48" xmlns="http://www.w3.org/2000/svg" xmlns:xlink="http://www.w3.org/1999/xlink">
  <linearGradient id="a" gradientTransform="matrix(0 -1 1 0 -.0000015 47.999998)" gradientUnits="userSpaceOnUse" x1="1" x2="47">
    <stop offset="0" stop-color="#f67c2a"/>
    <stop offset="1" stop-color="#f7883d"/>
  </linearGradient>
  <path d="m47 24c0 22.703-.297 23-23 23-22.703 0-23-.297-23-23 0-22.703.297-23 23-23 22.703 0 23 .297 23 23z" fill="url(#a)"/>
  <path d="m12.883 13c-.488 0-.883.399-.883.887v.227c0 .489.395.889.883.889h.117v19.998h-.117c-.488 0-.883.399-.883.887v.227c0 .489.395.889.883.889h24.23c.489 0 .887-.401.887-.889v-.227c0-.489-.399-.887-.887-.887h-.113v-19.998h.113c.489 0 .887-.401.887-.889v-.227c0-.489-.399-.887-.887-.887z" opacity=".1" transform=""/>
  <path d="m12 13h24v22h-24m0-22" fill="#ececec"/>
  <path d="m11.883 12h24.23c.488 0 .887.398.887.887v.227c0 .488-.398.887-.887.887h-24.23c-.488 0-.883-.398-.883-.887v-.227c0-.488.395-.887.883-.887m0 0" fill="#585a61"/>
  <path d="m11.883 34h24.23c.488 0 .887.398.887.887v.227c0 .488-.398.887-.887.887h-24.23c-.488 0-.883-.398-.883-.887v-.227c0-.488.395-.887.883-.887m0 0" fill="#585a61"/>
  <path d="m32 24c0 4.418-3.582 8-8 8-4.418 0-8-3.582-8-8 0-4.418 3.582-8 8-8 4.418 0 8 3.582 8 8m0 0" fill="#7fb9cf"/>
  <path d="m29.22 17.938l-5.219 6.06 5.652 5.652c1.449-1.449 2.344-3.445 2.344-5.652 0-2.426-1.082-4.598-2.781-6.06m.004 0" fill="#ff7e27"/>
  <path d="m24 16c-.887 0-1.738.137-2.535.406l2.535 7.598 5.219-6.06c-1.398-1.211-3.227-1.941-5.219-1.941m0 0" fill="#ffcfa1"/>
</svg>
