<svg xmlns="http://www.w3.org/2000/svg" viewBox="0 0 48 48">
 <defs>
  <linearGradient id="linearGradient3764" x1="1" x2="47" gradientUnits="userSpaceOnUse" gradientTransform="matrix(0,-1,1,0,-1.5e-6,47.999998)">
   <stop style="stop-color:#b0e648;stop-opacity:1"/>
   <stop offset="1" style="stop-color:#b9e85a;stop-opacity:1"/>
  </linearGradient>
 </defs>
 <g>
  
  
  
 </g>
 <g>
  <path d="m 47,24 C 47,46.703 46.703,47 24,47 1.297,47 1,46.703 1,24 1,1.297 1.297,1 24,1 46.703,1 47,1.297 47,24 z" style="fill:url(#linearGradient3764);fill-opacity:1"/>
 </g>
 <g>
  <g>
   <g transform="translate(1,1)">
    <g style="opacity:0.1">
     <!-- color: #b9e85a -->
     <g>
      <path d="m 25 10 c -0.551 0 -1 0.449 -1 1 0.046 1.014 0.02 2.07 0.02 3.098 c -2.292 0.456 -4.02 2.476 -4.02 4.902 c 0 0.575 0.116 1.119 0.295 1.633 l -6.295 19.367 8.762 -16.551 c 0.676 0.341 1.429 0.551 2.238 0.551 c 0.808 0 1.562 -0.21 2.238 -0.551 l 8.762 16.551 -6.293 -19.373 c 0.177 -0.512 0.293 -1.054 0.293 -1.627 0 -2.412 -1.711 -4.423 -3.98 -4.895 0 -1.169 0.012 -1.938 -0.02 -3.105 0 -0.551 -0.449 -1 -1 -1 m 0 6 c 1.656 0 3 1.34 3 3 0 1.66 -1.344 3 -3 3 -1.66 0 -3 -1.34 -3 -3 0 -1.66 1.344 -3 3 -3 z" transform="translate(-1,-1)"/>
     </g>
    </g>
   </g>
  </g>
 </g>
 <g>
  <g>
   <!-- color: #b9e85a -->
   <g>
    <path d="m 25.02 10 0 3.227 c 0 0.98 -0.445 1.773 -1 1.773 -0.551 0 -1 -0.793 -1 -1.773 l 0 -3.227 m 2 0" style="fill:#be3d27;fill-opacity:1;stroke:none;fill-rule:nonzero"/>
    <path d="m 25 10 c 0 0.551 -0.449 1 -1 1 -0.551 0 -1 -0.449 -1 -1 0 -0.551 0.449 -1 1 -1 0.551 0 1 0.449 1 1 m 0 0" style="fill:#be3d27;fill-opacity:1;stroke:none;fill-rule:nonzero"/>
    <path d="M 22,22 13,39 19.5,19.004 M 22,22" style="fill:#ebecf1;fill-opacity:1;stroke:none;fill-rule:nonzero"/>
    <path d="M 26,22 35,39 28.504,19.004 M 26,22" style="fill:#ebecf1;fill-opacity:1;stroke:none;fill-rule:nonzero"/>
    <path d="m 24 13 c -2.762 0 -5 2.238 -5 5 0 2.762 2.238 5 5 5 2.758 0 5 -2.238 5 -5 0 -2.762 -2.242 -5 -5 -5 m 0 2 c 1.656 0 3 1.34 3 3 0 1.66 -1.344 3 -3 3 -1.66 0 -3 -1.34 -3 -3 0 -1.66 1.344 -3 3 -3 m 0 0" style="fill:#be3d27;fill-opacity:1;stroke:none;fill-rule:nonzero"/>
   </g>
  </g>
 </g>
 <g>
  
 </g>
</svg>
