<svg xmlns="http://www.w3.org/2000/svg" viewBox="0 0 48 48">
 <defs>
  <linearGradient id="linearGradient3764" x1="1" x2="47" gradientUnits="userSpaceOnUse" gradientTransform="matrix(0,-1,1,0,-1.5e-6,47.999998)">
   <stop style="stop-color:#9748b4;stop-opacity:1"/>
   <stop offset="1" style="stop-color:#9e54bb;stop-opacity:1"/>
  </linearGradient>
 </defs>
 <g>
  
  
  
 </g>
 <g>
  <path d="m 47,24 C 47,46.703 46.703,47 24,47 1.297,47 1,46.703 1,24 1,1.297 1.297,1 24,1 46.703,1 47,1.297 47,24 z" style="fill:url(#linearGradient3764);fill-opacity:1"/>
  <path d="m 20 1.354 c -0.336 0.059 -0.669 0.124 -1 0.197 l 0 22.449 l -18 0 c 0 0.335 0.011 0.668 0.025 1 l 17.975 0 l 0 21.449 c 0.331 0.073 0.664 0.138 1 0.197 l 0 -21.646 l 12 0 l 0 14 l 1 0 l 8.428 0 c 0.281 -0.326 0.554 -0.659 0.816 -1 l -9.244 0 l 0 -13 l 6 0 l 1 0 l 6.975 0 c 0.014 -0.332 0.025 -0.665 0.025 -1 l -7 0 l 0 -16.516 c -0.324 -0.314 -0.658 -0.617 -1 -0.912 l 0 17.428 l -19 0 l 0 -22.646 z" style="fill:#fff;fill-opacity:0.314"/>
  <path d="m 21 1.201 c -0.336 0.044 -0.669 0.094 -1 0.152 l 0 13.04 c -3.402 0.53 -6 1.548 -6 2.732 l 0 2.5 c 0 1.185 2.598 2.318 6 2.922 l 0 1.986 c -2.601 -0.39 -4.829 -0.994 -5.559 -1.721 c -0.297 0.297 -0.441 0.608 -0.441 0.938 l 0 1.25 l -12.975 0 c 0.014 0.336 0.038 0.668 0.066 1 l 12.908 0 l 0 0.25 c 0 1.103 2.65 1.916 6 2.361 l 0 2.773 c -2.601 -0.496 -4.829 -1.223 -5.559 -1.947 c -0.297 0.297 -0.441 0.608 -0.441 0.938 l 0 2.5 c 0 1.103 2.65 2.067 6 2.623 l 0 11.148 c 0.331 0.058 0.664 0.109 1 0.152 l 0 -11.158 c 1.624 0.222 3.347 0.359 5 0.359 c 2.729 0 5.196 -0.343 7 -0.896 l 0 4.896 l 1 0 l 6.516 0 c 0.314 -0.324 0.617 -0.658 0.912 -1 l -7.428 0 l 0 -4.266 c 1.241 -0.52 2 -1.16 2 -1.859 l 0 -2.5 c 0 -0.328 -0.176 -0.64 -0.477 -0.938 c -0.338 0.337 -0.865 0.672 -1.523 0.988 l 0 -2.453 c 1.24 -0.447 2 -1.023 2 -1.723 l 0 -0.25 l 4 0 l 1 0 l 5.908 0 c 0.029 -0.332 0.052 -0.664 0.066 -1 l -5.975 0 l 0 -16.492 c -0.321 -0.353 -0.657 -0.691 -1 -1.023 l 0 17.516 l -4 0 l 0 -1.25 c 0 -0.328 -0.176 -0.64 -0.477 -0.938 c -1.273 1.27 -5.05 2.188 -9.523 2.188 c -1.588 0 -3.339 -0.121 -5 -0.326 l 0 -1.953 c 1.276 0.177 2.636 0.279 4 0.279 c 5.523 0 11 -1.648 11 -3.375 l 0 -2.5 c 0 -1.727 -5.477 -3.125 -11 -3.125 c -1.364 0 -2.724 0.088 -4 0.242 l 0 -13.04 z m 12 27.09 l 0 2.559 c -1.801 0.665 -4.267 1.152 -7 1.152 c -1.588 0 -3.339 -0.169 -5 -0.436 l 0 -2.842 c 1.624 0.175 3.347 0.277 5 0.277 c 2.729 0 5.196 -0.25 7 -0.711 z" style="fill:#000;fill-opacity:0.098"/>
 </g>
 <g>
  <g>
   <g transform="translate(1,1)">
    <g style="opacity:0.1">
     <!-- color: #9e54bb -->
     <g>
      <path d="m 30 18 l 1 0 l 0 1 l -1 0 m 0 -1" style="fill:#000;fill-opacity:1;stroke:none;fill-rule:nonzero"/>
      <path d="m 30 25.02 l 1 0 l 0 1 l -1 0 m 0 -1" style="fill:#000;fill-opacity:1;stroke:none;fill-rule:nonzero"/>
      <path d="m 30 31.996 l 1 0 l 0 1 l -1 0 m 0 -1" style="fill:#000;fill-opacity:1;stroke:none;fill-rule:nonzero"/>
     </g>
    </g>
   </g>
  </g>
 </g>
 <g>
  <g>
   <!-- color: #9e54bb -->
   <g>
    <path d="m 24 13 c -5.523 0 -11 1.398 -11 3.125 l 0 2.5 c 0 1.727 5.477 3.375 11 3.375 c 5.523 0 11 -1.648 11 -3.375 l 0 -2.5 c 0 -1.727 -5.477 -3.125 -11 -3.125 m 0 0" style="fill:#ecdef8;fill-opacity:1;stroke:none;fill-rule:nonzero"/>
    <path d="m 25 24 c -4.477 0 -10.285 -0.918 -11.559 -2.188 c -0.297 0.297 -0.441 0.609 -0.441 0.938 l 0 2.5 c 0 1.727 6.477 2.75 12 2.75 c 5.523 0 10 -1.023 10 -2.75 l 0 -2.5 c 0 -0.328 -0.176 -0.641 -0.477 -0.938 c -1.273 1.27 -5.05 2.188 -9.523 2.188 m 0 0" style="fill:#ecdef8;fill-opacity:1;stroke:none;fill-rule:nonzero"/>
    <path d="m 25 31 c -4.477 0 -10.285 -1.297 -11.559 -2.563 c -0.297 0.297 -0.441 0.609 -0.441 0.938 l 0 2.5 c 0 1.727 6.477 3.125 12 3.125 c 5.523 0 10 -1.398 10 -3.125 l 0 -2.5 c 0 -0.328 -0.176 -0.641 -0.477 -0.938 c -1.273 1.266 -5.05 2.563 -9.523 2.563 m 0 0" style="fill:#ecdef8;fill-opacity:1;stroke:none;fill-rule:nonzero"/>
    <path d="m 30 18 l 1 0 l 0 1 l -1 0 m 0 -1" style="fill:#6184fb;fill-opacity:1;stroke:none;fill-rule:nonzero"/>
    <path d="m 30 25.02 l 1 0 l 0 1 l -1 0 m 0 -1" style="fill:#6184fb;fill-opacity:1;stroke:none;fill-rule:nonzero"/>
    <path d="m 30 31.996 l 1 0 l 0 1 l -1 0 m 0 -1" style="fill:#6184fb;fill-opacity:1;stroke:none;fill-rule:nonzero"/>
   </g>
  </g>
 </g>
 <g>
  
 </g>
</svg>
