<svg viewBox="0 0 48 48" xmlns="http://www.w3.org/2000/svg" xmlns:xlink="http://www.w3.org/1999/xlink">
  <linearGradient id="a" gradientTransform="matrix(0 -1 1 0 -.0000015 47.999998)" gradientUnits="userSpaceOnUse" x1="1" x2="47">
    <stop offset="0" stop-color="#434343"/>
    <stop offset="1" stop-color="#4d4d4d"/>
  </linearGradient>
  <path d="m47 24c0 22.703-.297 23-23 23-22.703 0-23-.297-23-23 0-22.703.297-23 23-23 22.703 0 23 .297 23 23z" fill="url(#a)"/>
  <g opacity=".1" transform="translate(1 1)">
    <path d="m13.773 20h20.453c.98 0 1.773.703 1.773 1.57v12.855c0 .871-.793 1.574-1.773 1.574h-20.453c-.98 0-1.773-.703-1.773-1.574v-12.855c0-.867.793-1.57 1.773-1.57m0 0"/>
    <path d="m12 20l23-3.836c1-.234 1-.559 1-1.168v-2c0-.445-.457-.766-1-.77l-22 3.43c-1 .34-1 .816-1 1.336m0 3.01"/>
    <path d="m12.5 18h2c .277 0 .5.199.5.445v5.109c0 .246-.223.445-.5.445h-2c-.277 0-.5-.199-.5-.445v-5.109c0-.246.223-.445.5-.445m0 0"/>
  </g>
  <path d="m13.773 20h20.453c.98 0 1.773.703 1.773 1.57v12.855c0 .871-.793 1.574-1.773 1.574h-20.453c-.98 0-1.773-.703-1.773-1.574v-12.855c0-.867.793-1.57 1.773-1.57m0 0" fill="#ffdb9c"/>
  <path d="m12 20l23-3.836c1-.234 1-.559 1-1.168v-2c0-.445-.457-.766-1-.77l-22 3.43c-1 .34-1 .816-1 1.336m0 3.01" fill="#ffdb9c"/>
  <path d="m12.5 18h2c .277 0 .5.199.5.445v5.109c0 .246-.223.445-.5.445h-2c-.277 0-.5-.199-.5-.445v-5.109c0-.246.223-.445.5-.445m0 0" fill="#ffdb9c"/>
</svg>
