<svg xmlns="http://www.w3.org/2000/svg" viewBox="0 0 48 48">
 <defs>
  <linearGradient id="linearGradient3764" x1="1" x2="47" gradientUnits="userSpaceOnUse" gradientTransform="matrix(0,-1,1,0,-1.5e-6,47.999998)">
   <stop style="stop-color:#1b3345;stop-opacity:1"/>
   <stop offset="1" style="stop-color:#203d54;stop-opacity:1"/>
  </linearGradient>
  <linearGradient id="linearGradient4239" y1="43" x2="0" y2="69" gradientUnits="userSpaceOnUse" gradientTransform="translate(0,-32)">
   <stop style="stop-color:#d3dfe5;stop-opacity:1"/>
   <stop offset="1" style="stop-color:#868c92;stop-opacity:1"/>
  </linearGradient>
 </defs>
 <g>
  
  
  
 </g>
 <g>
  <path d="m 47,24 C 47,46.703 46.703,47 24,47 1.297,47 1,46.703 1,24 1,1.297 1.297,1 24,1 46.703,1 47,1.297 47,24 z" style="fill:url(#linearGradient3764);fill-opacity:1"/>
 </g>
 <g>
  <g>
   <g transform="translate(1,1)">
    <g style="opacity:0.1">
     <!-- color: #1d384d -->
    </g>
   </g>
  </g>
 </g>
 <g>
  <g>
   <!-- color: #1d384d -->
  </g>
 </g>
 <g>
  
 </g>
 <path d="m 18 12 a 6 6 0 0 0 -6 6 6 6 0 0 0 6 6 6 6 0 0 0 0.08 -0.004 7 7 0 0 1 5.918 -5.918 A 6 6 0 0 0 24 18 6 6 0 0 0 18 12 m 14 0 a 6 6 0 0 0 -6 6 6 6 0 0 0 0.004 0.08 7 7 0 0 1 5.918 5.918 A 6 6 0 0 0 32 24 6 6 0 0 0 38 18 6 6 0 0 0 32 12 m -8 7.086 A 6 6 0 0 0 19.09 24 L 24 24 24 19.09 m 2 0.004 L 26 24 30.914 24 A 6 6 0 0 0 26 19.09 M 18 26 a 6 6 0 0 0 -6 6 6 6 0 0 0 6 6 6 6 0 0 0 6 -6 A 6 6 0 0 0 23.996 31.92 7 7 0 0 1 18.08 26 6 6 0 0 0 18 26 m 1.086 0 A 6 6 0 0 0 24 30.91 L 24 26 19.09 26 M 26 26 26 30.914 A 6 6 0 0 0 30.91 26 L 26 26 m 6 0 A 6 6 0 0 0 31.92 26 7 7 0 0 1 26 31.922 6 6 0 0 0 26 32 a 6 6 0 0 0 6 6 6 6 0 0 0 6 -6 6 6 0 0 0 -6 -6 z" style="fill:#000;opacity:0.1;fill-opacity:1;stroke:none"/>
 <path d="m 17 11 a 6 6 0 0 0 -6 6 6 6 0 0 0 6 6 6 6 0 0 0 0.08 -0.004 7 7 0 0 1 5.918 -5.918 A 6 6 0 0 0 23 17 6 6 0 0 0 17 11 m 14 0 a 6 6 0 0 0 -6 6 6 6 0 0 0 0.004 0.08 7 7 0 0 1 5.918 5.918 A 6 6 0 0 0 31 23 6 6 0 0 0 37 17 6 6 0 0 0 31 11 m -8 7.086 A 6 6 0 0 0 18.09 23 L 23 23 23 18.09 m 2 0.004 L 25 23 29.914 23 A 6 6 0 0 0 25 18.09 M 17 25 a 6 6 0 0 0 -6 6 6 6 0 0 0 6 6 6 6 0 0 0 6 -6 A 6 6 0 0 0 22.996 30.92 7 7 0 0 1 17.08 25 6 6 0 0 0 17 25 m 1.086 0 A 6 6 0 0 0 23 29.91 L 23 25 18.09 25 M 25 25 25 29.914 A 6 6 0 0 0 29.91 25 L 25 25 m 6 0 A 6 6 0 0 0 30.92 25 7 7 0 0 1 25 30.922 6 6 0 0 0 25 31 a 6 6 0 0 0 6 6 6 6 0 0 0 6 -6 6 6 0 0 0 -6 -6 z" style="fill:url(#linearGradient4239);opacity:1;fill-opacity:1;stroke:none"/>
</svg>
