<svg viewBox="0 0 48 48" xmlns="http://www.w3.org/2000/svg" xmlns:xlink="http://www.w3.org/1999/xlink">
  <linearGradient id="a" gradientTransform="matrix(0 -1 1 0 -.0000015 47.999998)" gradientUnits="userSpaceOnUse" x1="1" x2="47">
    <stop offset="0" stop-color="#ace739"/>
    <stop offset="1" stop-color="#b3e94b"/>
  </linearGradient>
  <path d="m47 24c0 22.703-.297 23-23 23-22.703 0-23-.297-23-23 0-22.703.297-23 23-23 22.703 0 23 .297 23 23z" fill="url(#a)"/>
  <path d="m18.438 8.625c-4.723 0-9.102 1.43-12.75 3.844-.376.261-1.264.782-2.34 1.404-1.162 2.366-1.931 4.958-2.219 7.695.502-.567 1.046-1.176 1.465-1.662 2.094-2.492 3.924-4.27 5.779-5.5 3.625 9.879 3.813 9.92 1.125-.654 2.656-1.465 5.407-1.947 8.939-1.971.309-.004.598.02.906.031-.043 5.508-.904 16.859-3.971 21-4.434-11.41-3.893-9.379-.904.344-.211.105-.41.263-.625.439l-1.375-1.031.688 1.969c-2.93.445-5.84-.289-8.75.781-.128.054-.214.11-.334.164.418.725.873 1.426 1.365 2.098.08-.019.136-.023.219-.043 2.758-.625 4.766-2.961 7.531-1.398.043.215.156.406.25.594l-6.439 2.594c.152.191.282.38.439.564 2.176-1.027 4.403-1.434 6.439-2.531.203.18.469.309.75.406l-3.775 5.105c.237.166.479.326.723.482 1.291-1.696 1.976-3.604 3.709-5.465.238.02.508.057.781.021-.319 2.606-.12 5.284.449 7.84.893.307 1.809.567 2.748.764-.818-2.92-2.417-5.686-2.256-8.789.887.34 1.352.781 2.344 1.469-.445-.668-.992-1.102-1.375-1.938.086-.141.168-.282.219-.439 4.555 1.734 8.816 2.223 13.441 5l2.523 1.875c-.368.538-.785 1.038-1.229 1.516 2.388-1.01 4.569-2.408 6.465-4.117 1.345-2.911 2.111-6.138 2.111-9.523 0-12.594-10.29-22.937-23.07-22.937m3.789 3.529c7.625 1.5 14.277 7.484 15.719 14.5l-.344.439c-.641 1.109-6.621 2.765-8.844 3.318-4.136 1.029-7.152 3.411-11.156 3.557-.246-.324-.531-.618-.875-.814 2.434-4.328 1.633-15.895 5.5-21zm15.13 16.439h.002.002l.906.875c0 .699-.074 1.387-.191 2.094-.594 3.742-1.342 7.441-2.9 10.469l-3.317-1.094c-3.777-1.84-9.441-3.036-13.469-5.689 5.772-3.316 12.631-4.651 18.967-6.654zm-14.719 16.16c.305.887.91 1.571 1.521 2.24.275-.002.548-.008.82-.02-.819-.696-1.597-1.393-2.342-2.221z" opacity=".1"/>
  <path d="m17.438 7.625c-4.723 0-9.102 1.43-12.75 3.844-1.453 2.238-2.488 4.746-3.094 7.438 2.094-2.492 3.926-4.27 5.781-5.5 3.625 9.879 3.813 9.92 1.125-.654 2.656-1.465 5.406-1.947 8.938-1.971.309-.004.598.02.906.031-.043 5.508-.902 16.859-3.969 21-4.434-11.41-3.895-9.379-.906.344-.211.105-.41.263-.625.439l-1.375-1.031.688 1.969c-2.93.445-5.84-.289-8.75.781.387.773.785 1.5 1.25 2.219 2.758-.625 4.766-2.961 7.531-1.398.043.215.156.406.25.594l-6.438 2.594c.152.191.281.38.438.564 2.176-1.027 4.403-1.434 6.439-2.531.203.18.469.309.75.406l-3.906 5.281c.223.176.46.361.687.529 1.406-1.75 2.066-3.746 3.875-5.688.238.02.508.059.781.023-.348 2.84-.102 5.773.594 8.531.902.352 1.855.641 2.816.875-.711-3.223-2.645-6.207-2.469-9.594.887.34 1.352.781 2.344 1.469-.445-.668-.992-1.102-1.375-1.938.086-.141.168-.282.219-.439 4.555 1.734 8.816 2.223 13.441 5l2.525 1.875c-1.031 1.508-2.351 2.805-4.03 3.75 2.719-.617 5.246-1.706 7.5-3.188 2.434-3.645 3.875-8.02 3.875-12.688 0-12.594-10.289-22.938-23.07-22.938m3.789 3.529c7.625 1.5 14.277 7.484 15.719 14.5l-.344.439c-.641 1.109-6.621 2.765-8.844 3.318-4.136 1.029-7.152 3.411-11.156 3.557-.246-.324-.531-.618-.875-.814 2.434-4.328 1.633-15.895 5.5-21zm15.13 16.439l.91.875c0 .699-.074 1.387-.191 2.094-.594 3.742-1.344 7.441-2.902 10.469l-3.316-1.094c-3.777-1.84-9.441-3.036-13.469-5.689 5.773-3.316 12.633-4.65 18.969-6.654zm-14.719 16.16c.457 1.328 1.582 2.215 2.402 3.25.375 0 .758-.012 1.125-.031-1.32-1.07-2.43-2-3.527-3.219z" fill="#f3f9eb"/>
</svg>
