<svg xmlns="http://www.w3.org/2000/svg" viewBox="0 0 48 48">
 <defs>
  <linearGradient id="linearGradient3904" gradientUnits="userSpaceOnUse" y1="1" x2="0" y2="47">
   <stop style="stop-color:#fad25a;stop-opacity:1"/>
   <stop offset="1" style="stop-color:#f9cd47;stop-opacity:1"/>
  </linearGradient>
 </defs>
 <g>
  
  
  
 </g>
 <path d="M 24,1 C 46.703,1 47,1.297 47,24 47,46.703 46.703,47 24,47 1.297,47 1,46.703 1,24 1,1.297 1.297,1 24,1 z" style="fill:url(#linearGradient3904);fill-opacity:1"/>
 <g>
  
 </g>
 <path d="m 25 11.5 c -8.284 0 -15 6.716 -15 15 0.002 0.249 0.011 0.498 0.025 0.746 l 8.975 3.262 a 6 6 0 0 0 6 5.992 a 6 6 0 0 0 6 -6 l 8.965 -3.301 c 0.017 -0.233 0.029 -0.466 0.035 -0.699 c 0 -8.284 -6.716 -15 -15 -15 z" style="fill:#000;fill-opacity:0.098"/>
 <g>
  <path d="m 24 10.5 c -8.284 0 -15 6.716 -15 15 c 0.002 0.249 0.011 0.498 0.025 0.746 l 8.975 3.262 a 6 6 0 0 0 6 5.992 a 6 6 0 0 0 6 -6 l 8.965 -3.301 c 0.017 -0.233 0.029 -0.466 0.035 -0.699 c 0 -8.284 -6.716 -15 -15 -15 z" style="fill:#f7e8b1;fill-opacity:1"/>
  <path d="m 26.807 28.499 c -0.33 -0.438 -0.773 -0.796 -1.297 -1.057 -1.667 -0.822 -3.56 -0.234 -4.256 1.344 -0.696 1.578 0.081 3.528 1.748 4.35 1.654 0.818 3.551 0.208 4.256 -1.344 1.721 -3.915 3.452 -7.835 5.178 -11.751 1.667 4.523 1.066 5.266 -2.539 8.325 c 6.506 -2.244 6.187 -5.485 2.417 -12.366 -1.878 4.265 -3.819 8.666 -5.507 12.499" style="fill:#000;fill-opacity:0.098;stroke:none;fill-rule:evenodd"/>
  <path d="m 26.307 27.999 c -0.33 -0.438 -0.773 -0.796 -1.297 -1.057 -1.667 -0.822 -3.56 -0.234 -4.256 1.344 -0.696 1.578 0.081 3.528 1.748 4.35 1.654 0.818 3.551 0.208 4.256 -1.344 1.721 -3.915 3.452 -7.835 5.178 -11.751 1.667 4.523 1.066 5.266 -2.539 8.325 c 6.506 -2.244 6.187 -5.485 2.417 -12.366 -1.878 4.265 -3.819 8.666 -5.507 12.499" style="fill:#659862;fill-opacity:1;stroke:none;fill-rule:evenodd"/>
 </g>
</svg>
