<svg viewBox="0 0 48 48" xmlns="http://www.w3.org/2000/svg" xmlns:xlink="http://www.w3.org/1999/xlink">
  <linearGradient id="a" gradientUnits="userSpaceOnUse" x2="0" y1="1" y2="47">
    <stop offset="0" stop-color="#fad25a"/>
    <stop offset="1" stop-color="#f9cd47"/>
  </linearGradient>
  <path d="m24 1c22.703 0 23 .297 23 23 0 22.703-.297 23-23 23-22.703 0-23-.297-23-23 0-22.703.297-23 23-23z" fill="url(#a)"/>
  <path d="m25 11.5c-8.284 0-15 6.716-15 15 .002.249.011.498.025.746l8.975 3.262a6 6 0 0 0 6 5.992 6 6 0 0 0  6-6l8.965-3.301c.017-.233.029-.466.035-.699 0-8.284-6.716-15-15-15z" fill-opacity=".098"/>
  <path d="m24 10.5c-8.284 0-15 6.716-15 15 .002.249.011.498.025.746l8.975 3.262a6 6 0 0 0 6 5.992 6 6 0 0 0  6-6l8.965-3.301c.017-.233.029-.466.035-.699 0-8.284-6.716-15-15-15z" fill="#f7e8b1"/>
  <path d="m26.807 28.499c-.33-.438-.773-.796-1.297-1.057-1.667-.822-3.56-.234-4.256 1.344-.696 1.578.081 3.528 1.748 4.35 1.654.818 3.551.208 4.256-1.344 1.721-3.915 3.452-7.835 5.178-11.751 1.667 4.523 1.066 5.266-2.539 8.325 6.506-2.244 6.187-5.485 2.417-12.366-1.878 4.265-3.819 8.666-5.507 12.499" fill-opacity=".098" fill-rule="evenodd"/>
  <path d="m26.307 27.999c-.33-.438-.773-.796-1.297-1.057-1.667-.822-3.56-.234-4.256 1.344-.696 1.578.081 3.528 1.748 4.35 1.654.818 3.551.208 4.256-1.344 1.721-3.915 3.452-7.835 5.178-11.751 1.667 4.523 1.066 5.266-2.539 8.325 6.506-2.244 6.187-5.485 2.417-12.366-1.878 4.265-3.819 8.666-5.507 12.499" fill="#659862" fill-rule="evenodd"/>
</svg>
