<svg viewBox="0 0 48 48" xmlns="http://www.w3.org/2000/svg" xmlns:xlink="http://www.w3.org/1999/xlink">
  <linearGradient id="a" gradientTransform="matrix(0 -1 1 0 -.0000015 47.999998)" gradientUnits="userSpaceOnUse" x1="1" x2="47">
    <stop offset="0" stop-color="#dfe3dd"/>
    <stop offset="1" stop-color="#e9ece8"/>
  </linearGradient>
  <path d="m47 24c0 22.703-.297 23-23 23-22.703 0-23-.297-23-23 0-22.703.297-23 23-23 22.703 0 23 .297 23 23z" fill="url(#a)"/>
  <g fill="#297fb8">
    <path d="m13 12.996v.004 23.996.004h7v-3h-4v-18h4v-3c-2.337.004-4.667-.004-7-.004zm24 0c-2.333.002-4.663.004-7 .004v3h4v18h-4v3h7v-24zm-16 5l-2 14h11.43l.57-4h-7l1.43-10z" fill="#000" opacity=".1"/>
    <path d="m12 11.996v.004 23.996.004h7v-3h-4v-18h4v-3c-2.337.004-4.667-.004-7-.004z"/>
    <path d="m29 12v3h4v18h-4v3h7v-24-.004c-2.333.002-4.663.004-7 .004"/>
  </g>
  <path d="m18 31l2-14h4.429l-1.429 10h7l-.57 4z" fill="#287eb7"/>
</svg>
