<svg xmlns="http://www.w3.org/2000/svg" viewBox="0 0 48 48">
 <defs>
  <linearGradient id="linearGradient3764" x1="1" x2="47" gradientUnits="userSpaceOnUse" gradientTransform="matrix(0,-1,1,0,-1.5e-6,47.999998)">
   <stop style="stop-color:#3c7878;stop-opacity:1"/>
   <stop offset="1" style="stop-color:#428585;stop-opacity:1"/>
  </linearGradient>
 </defs>
 <g>
  
  
  
 </g>
 <g>
  <path d="m 47,24 C 47,46.703 46.703,47 24,47 1.297,47 1,46.703 1,24 1,1.297 1.297,1 24,1 46.703,1 47,1.297 47,24 z" style="fill:url(#linearGradient3764);fill-opacity:1"/>
 </g>
 <g>
  <g>
   <!-- color: #428585 -->
   <g>
    <path d="m 16.322 12 c -1.281 0 -2.318 1.062 -2.318 2.324 l 0 21.371 c 0 1.273 1.055 2.318 2.318 2.318 l 17.355 0 c 1.276 0 2.32 -1.058 2.32 -2.318 l 0 -21.371 c 0 -1.269 -1.041 -2.324 -2.32 -2.324 l -17.355 0 z m 0 2 17.355 0 c 0.18 0 0.318 0.141 0.318 0.324 l 0 21.371 c 0 0.2 -0.113 0.326 -0.318 0.326 l -17.355 0 c -0.196 0 -0.326 -0.118 -0.326 -0.326 l 0 -21.371 c 0 -0.19 0.134 -0.324 0.326 -0.324 z m 8.646 1.309 c -4.203 0 -7.594 3.234 -7.594 7.219 0 3.988 3.387 7.25 7.594 7.25 4.207 0 7.625 -3.262 7.625 -7.25 0 -3.984 -3.418 -7.219 -7.625 -7.219 z m 0.029 2.689 0.002 0 c 0.359 0 1 0.318 1 0.654 l 0 3.221 c 0.012 0.324 -0.59 0.627 -0.938 0.654 l -0.064 0 c -0.367 0.004 -1.016 -0.311 -1 -0.654 l 0 -3.221 c 0 -0.336 0.641 -0.654 1 -0.654 z m -2.5 0.75 c 0.391 0 0.559 0.359 0.5 0.719 l 0 2.281 c 0.016 0.32 0 0.74 -0.5 0.654 -0.387 0.035 -0.484 -0.291 -0.469 -0.654 l 0 -2.281 c -0.059 -0.359 0.078 -0.719 0.469 -0.719 z m 5 0.75 c 0.359 0 0.5 0.318 0.5 0.654 l 0 1.596 c 0 0.254 0.105 0.619 -0.5 0.654 -0.395 0.008 -0.5 -0.4 -0.5 -0.654 l 0 -1.596 c 0 -0.336 0.141 -0.654 0.5 -0.654 z m -5.529 3.594 c 0.254 -0.012 0.491 0.038 0.688 0.188 l 2.344 2.23 2.219 -2.125 c 0.285 -0.281 0.773 -0.371 1.156 -0.23 0.383 0.152 0.645 0.559 0.625 0.941 -0.008 0.246 -0.12 0.48 -0.313 0.656 l -3 2.969 c -0.172 0.156 -0.383 0.262 -0.625 0.281 -0.297 0.023 -0.603 -0.09 -0.814 -0.281 l -3.03 -3.066 c -0.324 -0.352 -0.294 -0.938 0.063 -1.27 0.18 -0.172 0.438 -0.273 0.691 -0.281 l -0.004 -0.012 z m 5.594 7.576 3.422 4.055 1.711 0 0 -1.621 -5.133 -2.434 z" style="fill:#000;fill-opacity:0.098"/>
    <path d="m 23.969 14.313 c -4.203 0 -7.594 3.234 -7.594 7.219 c 0 3.988 3.387 7.25 7.594 7.25 c 4.207 0 7.625 -3.262 7.625 -7.25 c 0 -3.984 -3.418 -7.219 -7.625 -7.219 m 0.031 2.688 c 0.359 0 1 0.32 1 0.656 l 0 3.219 c 0.012 0.324 -0.59 0.629 -0.938 0.656 c -0.023 0 -0.043 0 -0.063 0 c -0.367 0.004 -1.016 -0.313 -1 -0.656 l 0 -3.219 c 0 -0.336 0.641 -0.656 1 -0.656 m -2.5 0.75 c 0.391 0 0.559 0.359 0.5 0.719 l 0 2.281 c 0.016 0.32 0 0.742 -0.5 0.656 c -0.387 0.035 -0.484 -0.293 -0.469 -0.656 l 0 -2.281 c -0.059 -0.359 0.078 -0.719 0.469 -0.719 m 5 0.75 c 0.359 0 0.5 0.32 0.5 0.656 l 0 1.594 c 0 0.254 0.105 0.621 -0.5 0.656 c -0.395 0.008 -0.5 -0.402 -0.5 -0.656 l 0 -1.594 c 0 -0.336 0.141 -0.656 0.5 -0.656 m -5.531 3.594 c 0.254 -0.012 0.492 0.039 0.688 0.188 l 2.344 2.23 l 2.219 -2.125 c 0.285 -0.281 0.773 -0.371 1.156 -0.23 c 0.383 0.152 0.645 0.559 0.625 0.941 c -0.008 0.246 -0.121 0.48 -0.313 0.656 l -3 2.969 c -0.172 0.156 -0.383 0.262 -0.625 0.281 c -0.297 0.023 -0.602 -0.09 -0.813 -0.281 l -3.03 -3.066 c -0.324 -0.352 -0.293 -0.938 0.063 -1.27 c 0.18 -0.172 0.438 -0.273 0.691 -0.281 m -0.004 -0.004" style="fill:#f9f9f9;fill-opacity:1;stroke:none;fill-rule:nonzero"/>
    <path d="m 15.322 11 c -1.281 0 -2.318 1.063 -2.318 2.325 l 0 21.371 c 0 1.273 1.055 2.318 2.318 2.318 l 17.357 0 c 1.276 0 2.318 -1.058 2.318 -2.318 l 0 -21.371 c 0 -1.269 -1.039 -2.325 -2.318 -2.325 l -17.357 0 z m 0 2 17.357 0 c 0.18 0 0.318 0.142 0.318 0.325 l 0 21.371 c 0 0.2 -0.113 0.325 -0.318 0.325 l -17.357 0 c -0.196 0 -0.325 -0.117 -0.325 -0.325 l 0 -21.371 c 0 -0.19 0.133 -0.325 0.325 -0.325 z" mix-blend-mode="normal" isolation="auto" white-space="normal" solid-opacity="1" solid-color="#000000" style="visibility:visible;shape-rendering:auto;color-interpolation-filters:linearRGB;fill:#f9f9f9;opacity:1;image-rendering:auto;fill-opacity:1;stroke:none;display:inline;color:#000;fill-rule:nonzero;color-rendering:auto;color-interpolation:sRGB"/>
    <path d="m 26.563 29.672 l 3.422 4.055 l 1.711 0 l 0 -1.621 m -5.133 -2.434" style="fill:#f9f9f9;fill-opacity:1;stroke:none;fill-rule:nonzero"/>
   </g>
  </g>
 </g>
 <g>
  
 </g>
</svg>
