<svg viewBox="0 0 48 48" xmlns="http://www.w3.org/2000/svg" xmlns:xlink="http://www.w3.org/1999/xlink">
  <linearGradient id="a" gradientTransform="matrix(0 -1 1 0 -.0000015 47.999998)" gradientUnits="userSpaceOnUse" x1="1" x2="47">
    <stop offset="0" stop-color="#767874"/>
    <stop offset="1" stop-color="#7f827d"/>
  </linearGradient>
  <path d="m47 24c0 22.703-.297 23-23 23-22.703 0-23-.297-23-23 0-22.703.297-23 23-23 22.703 0 23 .297 23 23z" fill="url(#a)"/>
  <path d="m13.805 13c-.438.047-.809.461-.805.902v15.1c0 .473.527 1 1 1h9v3.998h-6.998v3h18v-3h-7v-3.998h9c .473 0 1-.527 1-1v-15.1c0-.473-.43-.902-.898-.902h-22.297zm2.197 2h18c .469 0 1 .586 1 1v11c0 .469-.566 1-1 1h-18c-.527 0-1-.48-1-1v-11c0-.406.512-1 1-1zm1.498 1c-.828 0-1.5.672-1.5 1.5 0 .652.419 1.202 1 1.408v8.092h1v-8.092c.581-.207 1-.756 1-1.408 0-.828-.672-1.5-1.5-1.5zm4.5 0v8.092c-.581.207-1 .756-1 1.408 0 .828.672 1.5 1.5 1.5.828 0 1.5-.672 1.5-1.5 0-.652-.419-1.202-1-1.408v-8.092zm5.5 0c-.828 0-1.5.672-1.5 1.5 0 .652.419 1.202 1 1.408v8.092h1v-8.092c.581-.207 1-.756 1-1.408 0-.828-.672-1.5-1.5-1.5zm4.5 0v8.092c-.581.207-1 .756-1 1.408 0 .828.672 1.5 1.5 1.5.828 0 1.5-.672 1.5-1.5 0-.652-.419-1.202-1-1.408v-8.092z" opacity=".1" transform=""/>
  <path d="m12.805 12c-.438.047-.809.461-.805.902v15.1c0 .473.527 1 1 1h9v3.998h-6.998v3h18v-3h-7v-3.998h9c .473 0 1-.527 1-1v-15.1c0-.473-.43-.902-.898-.902h-22.297zm2.197 2h18c .469 0 1 .586 1 1v11c0 .469-.566 1-1 1h-18c-.527 0-1-.48-1-1v-11c0-.406.512-1 1-1z" fill="#f9f9f9"/>
  <path d="m21 15h1v9h-1m0-9" fill="#f9f9f9"/>
  <path d="m23 24.5c0 .828-.672 1.5-1.5 1.5-.828 0-1.5-.672-1.5-1.5 0-.828.672-1.5 1.5-1.5.828 0 1.5.672 1.5 1.5m0 0" fill="#f9f9f9"/>
  <path d="m27 26h-1v-9h1m0 9" fill="#f9f9f9"/>
  <path d="m25 16.5c0-.828.672-1.5 1.5-1.5.828 0 1.5.672 1.5 1.5 0 .828-.672 1.5-1.5 1.5-.828 0-1.5-.672-1.5-1.5m0 0" fill="#f9f9f9"/>
  <path d="m31 15h1v9h-1m0-9" fill="#f9f9f9"/>
  <path d="m33 24.5c0 .828-.672 1.5-1.5 1.5-.828 0-1.5-.672-1.5-1.5 0-.828.672-1.5 1.5-1.5.828 0 1.5.672 1.5 1.5m0 0" fill="#f9f9f9"/>
  <path d="m17 26h-1v-9h1m0 9" fill="#f9f9f9"/>
  <path d="m15 16.5c0-.828.672-1.5 1.5-1.5.828 0 1.5.672 1.5 1.5 0 .828-.672 1.5-1.5 1.5-.828 0-1.5-.672-1.5-1.5m0 0" fill="#f9f9f9"/>
</svg>
