<svg xmlns="http://www.w3.org/2000/svg" viewBox="0 0 48 48">
 <defs>
  <linearGradient id="linearGradient3764" x1="1" x2="47" gradientUnits="userSpaceOnUse" gradientTransform="matrix(0,-1,1,0,-1.5e-6,47.999998)">
   <stop style="stop-color:#e4e4e4;stop-opacity:1"/>
   <stop offset="1" style="stop-color:#eee;stop-opacity:1"/>
  </linearGradient>
 </defs>
 <g>
  
  
  
 </g>
 <g>
  <path d="m 47,24 C 47,46.703 46.703,47 24,47 1.297,47 1,46.703 1,24 1,1.297 1.297,1 24,1 46.703,1 47,1.297 47,24 z" style="fill:url(#linearGradient3764);fill-opacity:1"/>
 </g>
 <path d="m 24 1 0 7 -7 0 0 -5.906 c -0.337 0.108 -0.67 0.221 -1 0.344 l 0 5.563 -7 0 0 -1.438 c -0.346 0.298 -0.673 0.62 -1 0.938 l 0 0.5 -0.5 0 c -0.318 0.327 -0.64 0.654 -0.938 1 l 1.438 0 0 7 -5.563 0 c -0.123 0.33 -0.236 0.663 -0.344 1 l 5.906 0 0 7 -7 0 c 0 0.334 0.017 0.669 0.031 1 l 6.969 0 0 7 -5.563 0 c 0.127 0.342 0.264 0.666 0.406 1 l 5.156 0 0 7 -0.5 0 c 0.481 0.496 0.976 0.986 1.5 1.438 l 0 -0.438 l 7 0 0 4.563 c 0.33 0.123 0.663 0.236 1 0.344 l 0 -4.906 l 7 0 0 6 c 0.334 0 0.669 -0.017 1 -0.031 l 0 -5.969 l 7 0 0 4.563 c 0.342 -0.127 0.666 -0.264 1 -0.406 l 0 -4.156 l 6.5 0 c 0.522 -0.476 1.024 -0.978 1.5 -1.5 l 0 -6.5 4.156 0 c 0.142 -0.334 0.279 -0.658 0.406 -1 l -4.563 0 l 0 -7 5.969 0 c 0.014 -0.331 0.031 -0.666 0.031 -1 l -6 0 0 -7 4.906 0 c -0.108 -0.337 -0.221 -0.67 -0.344 -1 l -4.563 0 0 -7 0.438 0 c -0.451 -0.524 -0.941 -1.019 -1.438 -1.5 l 0 0.5 -7 0 0 -5.156 c -0.334 -0.142 -0.658 -0.279 -1 -0.406 l 0 5.563 -7 0 0 -6.969 c -0.331 -0.014 -0.666 -0.031 -1 -0.031 z m -15 8 7 0 0 7 -7 0 0 -7 z m 8 0 7 0 0 7 -7 0 0 -7 z m 8 0 7 0 0 7 -7 0 0 -7 z m 8 0 7 0 0 7 -7 0 0 -7 z m -24 8 7 0 0 7 -7 0 0 -7 z m 8 0 7 0 0 7 -7 0 0 -7 z m 8 0 7 0 0 7 -7 0 0 -7 z m 8 0 7 0 0 7 -7 0 0 -7 z m -24 8 7 0 0 7 -7 0 0 -7 z m 8 0 7 0 0 7 -7 0 0 -7 z m 8 0 7 0 0 7 -7 0 0 -7 z m 8 0 7 0 0 7 -7 0 0 -7 z m -24 8 7 0 0 7 -7 0 0 -7 z m 8 0 7 0 0 7 -7 0 0 -7 z m 8 0 7 0 0 7 -7 0 0 -7 z m 8 0 7 0 0 7 -7 0 0 -7 z" style="fill:#a0dad0;fill-opacity:1"/>
 <g>
  
 </g>
 <path d="m 15.453 38 0.045 -0.703 c 0.348 -5.624 0.919 -9.48 1.629 -11.959 0.71 -2.479 1.555 -3.468 2.193 -3.703 0.319 -0.118 0.648 -0.109 1.084 0.047 0.436 0.155 0.954 0.472 1.504 0.912 1.099 0.881 2.321 2.241 3.555 3.623 1.233 1.382 2.477 2.784 3.734 3.787 0.629 0.501 1.264 0.909 1.938 1.145 0.674 0.235 1.414 0.284 2.105 0.02 1.383 -0.528 2.336 -2.057 3.094 -4.74 c 0.758 -2.683 1.322 -6.723 1.666 -12.428 l -1.498 0 c -0.341 5.647 -0.906 9.522 -1.611 12.02 -0.705 2.497 -1.549 3.505 -2.186 3.748 -0.318 0.121 -0.643 0.114 -1.076 -0.037 -0.433 -0.151 -0.948 -0.461 -1.496 -0.898 -1.096 -0.874 -2.318 -2.232 -3.551 -3.613 -1.233 -1.382 -2.478 -2.789 -3.736 -3.797 -0.629 -0.504 -1.264 -0.912 -1.938 -1.152 -0.674 -0.24 -1.413 -0.297 -2.107 -0.041 -1.388 0.512 -2.351 2.03 -3.115 4.697 c -0.764 2.667 -1.334 7.393 -1.686 13.07 c 1.01 -0.015 1 0 1.453 0 z" mix-blend-mode="normal" isolation="auto" white-space="normal" solid-opacity="1" solid-color="#000000" style="visibility:visible;shape-rendering:auto;color-interpolation-filters:linearRGB;fill:#000;opacity:1;image-rendering:auto;fill-opacity:0.098;stroke:none;display:inline;color:#000;fill-rule:evenodd;color-rendering:auto;color-interpolation:sRGB"/>
 <path d="m 14.453 37 0.045 -0.703 c 0.348 -5.624 0.919 -9.48 1.629 -11.959 0.71 -2.479 1.555 -3.468 2.193 -3.703 0.319 -0.118 0.648 -0.109 1.084 0.047 0.436 0.155 0.954 0.472 1.504 0.912 1.099 0.881 2.321 2.241 3.555 3.623 1.233 1.382 2.477 2.784 3.734 3.787 0.629 0.501 1.264 0.909 1.938 1.145 0.674 0.235 1.414 0.284 2.105 0.02 1.383 -0.528 2.336 -2.057 3.094 -4.74 c 0.758 -2.683 1.322 -6.723 1.666 -12.428 l -1.498 0 c -0.341 5.647 -0.906 9.522 -1.611 12.02 -0.705 2.497 -1.549 3.505 -2.186 3.748 -0.318 0.121 -0.643 0.114 -1.076 -0.037 -0.433 -0.151 -0.948 -0.461 -1.496 -0.898 -1.096 -0.874 -2.318 -2.232 -3.551 -3.613 -1.233 -1.382 -2.478 -2.789 -3.736 -3.797 -0.629 -0.504 -1.264 -0.912 -1.938 -1.152 -0.674 -0.24 -1.413 -0.297 -2.107 -0.041 -1.388 0.512 -2.351 2.03 -3.115 4.697 c -0.764 2.667 -1.334 7.393 -1.686 13.07 c 1.01 -0.015 1 0 1.453 0 z" mix-blend-mode="normal" isolation="auto" white-space="normal" solid-opacity="1" solid-color="#000000" style="visibility:visible;shape-rendering:auto;color-interpolation-filters:linearRGB;fill:#297bc2;opacity:1;image-rendering:auto;fill-opacity:1;stroke:none;display:inline;color:#000;fill-rule:evenodd;color-rendering:auto;color-interpolation:sRGB"/>
</svg>
