<svg xmlns="http://www.w3.org/2000/svg" viewBox="0 0 48 48">
 <defs>
  <linearGradient id="linearGradient3997" y1="1" x2="0" y2="47" gradientUnits="userSpaceOnUse">
   <stop style="stop-color:#f8fadc;stop-opacity:1"/>
   <stop offset="1" style="stop-color:#f4f7cb;stop-opacity:1"/>
  </linearGradient>
  <radialGradient id="radialGradient3911" cx="27" cy="24" r="11" gradientTransform="matrix(1,0,0,1.0909091,0,-2.1818182)" gradientUnits="userSpaceOnUse">
   <stop style="stop-color:#cacaca;stop-opacity:1"/>
   <stop offset="1" style="stop-color:#bbb;stop-opacity:1"/>
  </radialGradient>
 </defs>
 <g>
  
  
  
 </g>
 <g>
  <path d="m 24 1 c 22.703 0 23 0.297 23 23 c 0 22.703 -0.297 23 -23 23 -22.703 0 -23 -0.297 -23 -23 0 -22.703 0.297 -23 23 -23 z" style="fill:url(#linearGradient3997);fill-opacity:1"/>
  <path d="m 17 13 c 0.287 1.044 0.528 2.04 0.75 3 l -15.318 0 c -0.476 1.283 -0.836 2.621 -1.078 4 l 17.18 0 c 0.501 3.441 0.501 6.559 0 10 l -16.736 0 c 0.375 1.39 0.873 2.728 1.488 4 l 14.467 0 c -0.222 0.96 -0.463 1.956 -0.75 3 c 1.297 0 17.948 -6.59 20.625 -10 l 9.174 0 c 0.128 -0.983 0.201 -1.982 0.201 -3 c 0 -0.335 -0.011 -0.668 -0.025 -1 l -9.35 0 c -2.677 -3.41 -9.328 -10 -20.625 -10 z" style="fill:#000;opacity:0.1;fill-opacity:1"/>
  <path d="m 28 22 l 0 4 l 18.908 0 c 0.057 -0.66 0.092 -1.326 0.092 -2 c 0 -0.674 -0.035 -1.34 -0.092 -2 l -18.908 0 z" style="fill:#53f551;fill-opacity:1"/>
  <path d="m 1.551 29 c 0.307 1.384 0.734 2.723 1.277 4 l 19.17 0 l 0 -4 l -20.449 0 z" style="fill:#53f551;fill-opacity:1"/>
  <path d="m 2.828 15 c -0.544 1.277 -0.97 2.616 -1.277 4 l 20.449 0 l 0 -4 l -19.17 0 z" style="fill:#f64848;fill-opacity:1"/>
 </g>
 <g>
  <g>
   <g transform="translate(1,1)">
    <g style="opacity:0.1">
     <!-- color: #efc07d -->
    </g>
   </g>
  </g>
 </g>
 <g>
  <g>
   <!-- color: #efc07d -->
  </g>
 </g>
 <g>
  
 </g>
 <path d="m 16 36 c 2.538 -9.231 2.538 -14.769 0 -24 15.231 0 22 12 22 12 0 0 -6.769 12 -22 12 z" style="fill:url(#radialGradient3911);fill-opacity:1;stroke:none;fill-rule:nonzero"/>
</svg>
