<svg viewBox="0 0 48 48" xmlns="http://www.w3.org/2000/svg" xmlns:xlink="http://www.w3.org/1999/xlink">
  <linearGradient id="a" gradientUnits="userSpaceOnUse" x2="0" y1="1" y2="47">
    <stop offset="0" stop-color="#f8fadc"/>
    <stop offset="1" stop-color="#f4f7cb"/>
  </linearGradient>
  <radialGradient id="b" cx="27" cy="24" gradientTransform="matrix(1 0 0 1.0909091 0 -2.1818182)" gradientUnits="userSpaceOnUse" r="11">
    <stop offset="0" stop-color="#cacaca"/>
    <stop offset="1" stop-color="#bbb"/>
  </radialGradient>
  <path d="m24 1c22.703 0 23 .297 23 23 0 22.703-.297 23-23 23-22.703 0-23-.297-23-23 0-22.703.297-23 23-23z" fill="url(#a)"/>
  <path d="m17 13c .287 1.044.528 2.04.75 3h-15.318c-.476 1.283-.836 2.621-1.078 4h17.18c.501 3.441.501 6.559 0 10h-16.736c.375 1.39.873 2.728 1.488 4h14.467c-.222.96-.463 1.956-.75 3 1.297 0 17.948-6.59 20.625-10h9.174c.128-.983.201-1.982.201-3 0-.335-.011-.668-.025-1h-9.35c-2.677-3.41-9.328-10-20.625-10z" opacity=".1"/>
  <path d="m28 22v4h18.908c.057-.66.092-1.326.092-2 0-.674-.035-1.34-.092-2z" fill="#53f551"/>
  <path d="m1.551 29c .307 1.384.734 2.723 1.277 4h19.17v-4h-20.449z" fill="#53f551"/>
  <path d="m2.828 15c-.544 1.277-.97 2.616-1.277 4h20.449v-4h-19.17z" fill="#f64848"/>
  <path d="m16 36c2.538-9.231 2.538-14.769 0-24 15.231 0 22 12 22 12 0 0-6.769 12-22 12z" fill="url(#b)"/>
</svg>
