<svg viewBox="0 0 48 48" xmlns="http://www.w3.org/2000/svg" xmlns:xlink="http://www.w3.org/1999/xlink">
  <linearGradient id="a" gradientTransform="matrix(0 -1 1 0 -.0000015 47.999998)" gradientUnits="userSpaceOnUse" x1="1" x2="47">
    <stop offset="0" stop-color="#1f8fed"/>
    <stop offset="1" stop-color="#3298ef"/>
  </linearGradient>
  <path d="m47 24c0 22.703-.297 23-23 23-22.703 0-23-.297-23-23 0-22.703.297-23 23-23 22.703 0 23 .297 23 23z" fill="url(#a)"/>
  <g opacity=".1" transform="translate(1 1)">
    <path d="m15 14h17.996c1.656 0 3 1.344 3 3v13.996c0 1.66-1.344 3-3 3h-17.996c-1.66 0-3-1.34-3-3v-13.996c0-1.656 1.344-3 3-3m0 0" fill-opacity=".502"/>
    <path d="m17 22h14c .551 0 1 .449 1 1v3c0 .551-.449 1-1 1h-14c-.551 0-1-.449-1-1v-3c0-.551.449-1 1-1m0 0"/>
    <path d="m20 24.5c0 .828-.672 1.5-1.5 1.5-.828 0-1.5-.672-1.5-1.5 0-.828.672-1.5 1.5-1.5.828 0 1.5.672 1.5 1.5m0 0"/>
    <path d="m24 24.5c0 .828-.672 1.5-1.5 1.5-.828 0-1.5-.672-1.5-1.5 0-.828.672-1.5 1.5-1.5.828 0 1.5.672 1.5 1.5m0 0"/>
    <path d="m28 24.5c0 .828-.672 1.5-1.5 1.5-.828 0-1.5-.672-1.5-1.5 0-.828.672-1.5 1.5-1.5.828 0 1.5.672 1.5 1.5m0 0"/>
    <path d="m16.242 19h7.52c.133 0 .242.105.242.238v.52c0 .133-.109.242-.242.242h-7.52c-.133 0-.242-.109-.242-.242v-.52c0-.133.109-.238.242-.238m0 0"/>
  </g>
  <path d="m15 14h17.996c1.656 0 3 1.344 3 3v13.996c0 1.66-1.344 3-3 3h-17.996c-1.66 0-3-1.34-3-3v-13.996c0-1.656 1.344-3 3-3m0 0" fill="#f9f9f9" fill-opacity=".502"/>
  <path d="m17 22h14c .551 0 1 .449 1 1v3c0 .551-.449 1-1 1h-14c-.551 0-1-.449-1-1v-3c0-.551.449-1 1-1m0 0" fill="#f9f9f9"/>
  <path d="m20 24.5c0 .828-.672 1.5-1.5 1.5-.828 0-1.5-.672-1.5-1.5 0-.828.672-1.5 1.5-1.5.828 0 1.5.672 1.5 1.5m0 0" fill="#2d2d2d"/>
  <path d="m24 24.5c0 .828-.672 1.5-1.5 1.5-.828 0-1.5-.672-1.5-1.5 0-.828.672-1.5 1.5-1.5.828 0 1.5.672 1.5 1.5m0 0" fill="#2d2d2d"/>
  <path d="m28 24.5c0 .828-.672 1.5-1.5 1.5-.828 0-1.5-.672-1.5-1.5 0-.828.672-1.5 1.5-1.5.828 0 1.5.672 1.5 1.5m0 0" fill="#2d2d2d"/>
  <path d="m16.242 19h7.52c.133 0 .242.105.242.238v.52c0 .133-.109.242-.242.242h-7.52c-.133 0-.242-.109-.242-.242v-.52c0-.133.109-.238.242-.238m0 0" fill="#f9f9f9"/>
</svg>
