<svg viewBox="0 0 48 48" xmlns="http://www.w3.org/2000/svg" xmlns:xlink="http://www.w3.org/1999/xlink">
  <linearGradient id="a" gradientTransform="matrix(0 -1 1 0 -.0000015 47.999998)" gradientUnits="userSpaceOnUse" x1="1" x2="47">
    <stop offset="0" stop-color="#4cb7e8"/>
    <stop offset="1" stop-color="#5ebeea"/>
  </linearGradient>
  <path d="m47 24c0 22.703-.297 23-23 23-22.703 0-23-.297-23-23 0-22.703.297-23 23-23 22.703 0 23 .297 23 23z" fill="url(#a)"/>
  <path d="m22 10a2 2 0 0 0-2 2 2 2 0 0 0  2 2 2 2 0 0 0  2-2 2 2 0 0 0-2-2zm6 0a2 2 0 0 0-2 2 2 2 0 0 0  2 2 2 2 0 0 0  2-2 2 2 0 0 0-2-2zm-3 6a11 11 0 0 0-11 11 11 11 0 0 0  11 11 11 11 0 0 0  11-11 11 11 0 0 0-11-11m0 4a7 7 0 0 1 7 7 7 7 0 0 1-7 7 7 7 0 0 1-7-7 7 7 0 0 1  7-7z" opacity=".1"/>
  <path d="m21 9a2 2 0 0 0-2 2 2 2 0 0 0  2 2 2 2 0 0 0  2-2 2 2 0 0 0-2-2zm6 0a2 2 0 0 0-2 2 2 2 0 0 0  2 2 2 2 0 0 0  2-2 2 2 0 0 0-2-2zm-3 6a11 11 0 0 0-11 11 11 11 0 0 0  11 11 11 11 0 0 0  11-11 11 11 0 0 0-11-11zm0 4a7 7 0 0 1 7 7 7 7 0 0 1-7 7 7 7 0 0 1-7-7 7 7 0 0 1  7-7z" fill="#e4f3fc"/>
</svg>
