<svg viewBox="0 0 48 48" xmlns="http://www.w3.org/2000/svg" xmlns:xlink="http://www.w3.org/1999/xlink">
  <linearGradient id="a" gradientTransform="matrix(0 -1 1 0 -.0000015 47.999998)" gradientUnits="userSpaceOnUse" x1="1" x2="47">
    <stop offset="0" stop-color="#951613"/>
    <stop offset="1" stop-color="#a71816"/>
  </linearGradient>
  <path d="m47 24c0 22.703-.297 23-23 23-22.703 0-23-.297-23-23 0-22.703.297-23 23-23 22.703 0 23 .297 23 23z" fill="url(#a)"/>
  <g opacity=".1" transform="translate(1 1)">
    <path d="m34.508 35.887l-1.359-3.613h-4.305l-1.359 3.613h-2.324l4.758-12.871h2.16l4.758 12.871h-2.328m-3.48-9.297l-1.422 3.609h2.762z"/>
    <path d="m12.848 12.398h2.145c-.156-.465-.328-.891-.52-1.277l1.156-.402c.27.543.484 1.102.637 1.68h2.145v1.102h-5.559v-1.102m.578 2.262h4.461v1.039h-4.461zm0 2.199h4.461v1.043h-4.461zm4.516 2.199v4.984h-1.102v-.758h-2.199v.758h-1.16v-4.984zm-3.301 3.129h2.199v-2.086h-2.199zm4.344-10.949h6.719v1.043h-3.418l-.293 1.504h3.188v3.07h1.039v1.043h-7.527v-1.043h1.504l.406-2.027h-1.332v-1.043h1.566l.289-1.504h-2.148v-1.043m2.375 5.621h2.723v-2.027h-2.313l-.402 2.027m4.227 2.145v5.04h-1.156v-.816h-3.941v.816h-1.16v-5.04h6.258m-5.098 3.184h3.941v-2.145h-3.941z"/>
    <path d="m25.11 34.13l-1.305-3.234-.551.547c-3.41-3.852-3.41-3.852-1.766-5.5l-.848-.965c-2.191 2.195-2.191 2.195 2.066 7.02l-.547.559m2.949 1.586"/>
    <path d="m25.527 19.301l1.949 1.273-.016-.879c3.078-.082 3.078-.082 3.133 2.57l.77-.02c-.074-3.539-.074-3.539-3.922-3.434l-.016-.883m-1.898 1.371"/>
  </g>
  <path d="m34.508 35.887l-1.359-3.613h-4.305l-1.359 3.613h-2.324l4.758-12.871h2.16l4.758 12.871h-2.328m-3.48-9.297l-1.422 3.609h2.762z" fill="#fff"/>
  <path d="m12.848 12.398h2.145c-.156-.465-.328-.891-.52-1.277l1.156-.402c.27.543.484 1.102.637 1.68h2.145v1.102h-5.559v-1.102m.578 2.262h4.461v1.039h-4.461zm0 2.199h4.461v1.043h-4.461zm4.516 2.199v4.984h-1.102v-.758h-2.199v.758h-1.16v-4.984zm-3.301 3.129h2.199v-2.086h-2.199zm4.344-10.949h6.719v1.043h-3.418l-.293 1.504h3.188v3.07h1.039v1.043h-7.527v-1.043h1.504l.406-2.027h-1.332v-1.043h1.566l.289-1.504h-2.148v-1.043m2.375 5.621h2.723v-2.027h-2.313l-.402 2.027m4.227 2.145v5.04h-1.156v-.816h-3.941v.816h-1.16v-5.04h6.258m-5.098 3.184h3.941v-2.145h-3.941z" fill="#fff"/>
  <path d="m25.11 34.13l-1.305-3.234-.551.547c-3.41-3.852-3.41-3.852-1.766-5.5l-.848-.965c-2.191 2.195-2.191 2.195 2.066 7.02l-.547.559m2.949 1.586" fill="#fff"/>
  <path d="m25.527 19.301l1.949 1.273-.016-.879c3.078-.082 3.078-.082 3.133 2.57l.77-.02c-.074-3.539-.074-3.539-3.922-3.434l-.016-.883m-1.898 1.371" fill="#fff"/>
</svg>
