<svg viewBox="0 0 48 48" xmlns="http://www.w3.org/2000/svg" xmlns:xlink="http://www.w3.org/1999/xlink">
  <linearGradient id="a" gradientTransform="matrix(0 -1 1 0 -.0000015 47.999998)" gradientUnits="userSpaceOnUse" x1="1" x2="47">
    <stop offset="0" stop-color="#951613"/>
    <stop offset="1" stop-color="#a71816"/>
  </linearGradient>
  <path d="m47 24c0 22.703-.297 23-23 23-22.703 0-23-.297-23-23 0-22.703.297-23 23-23 22.703 0 23 .297 23 23z" fill="url(#a)"/>
  <g opacity=".1" transform="translate(1 1)">
    <path d="m26 18c0 2-.211 3.863-.359 5.563-.148 1.668-.418 3.77-.641 5.441h-2c-.223-1.668-.492-3.773-.641-5.441-.168-1.707-.359-3.566-.359-5.563v-7h4"/>
    <path d="m26 35c .016.723-.363 1.398-.988 1.766-.625.367-1.398.367-2.023 0-.625-.367-1-1.043-.988-1.766-.016-.723.363-1.398.988-1.766.625-.367 1.398-.367 2.023 0 .625.367 1 1.043.988 1.766m0 0"/>
  </g>
  <path d="m26 18c0 2-.211 3.863-.359 5.563-.148 1.668-.418 3.77-.641 5.441h-2c-.223-1.668-.492-3.773-.641-5.441-.168-1.707-.359-3.566-.359-5.563v-7h4" fill="#fff"/>
  <path d="m26 35c .016.723-.363 1.398-.988 1.766-.625.367-1.398.367-2.023 0-.625-.367-1-1.043-.988-1.766-.016-.723.363-1.398.988-1.766.625-.367 1.398-.367 2.023 0 .625.367 1 1.043.988 1.766m0 0" fill="#f9f9f9"/>
</svg>
