<svg viewBox="0 0 48 48" xmlns="http://www.w3.org/2000/svg" xmlns:xlink="http://www.w3.org/1999/xlink">
  <linearGradient id="a" gradientTransform="matrix(0 -1 1 0 -.0000015 47.999998)" gradientUnits="userSpaceOnUse" x1="1" x2="47">
    <stop offset="0" stop-color="#3d3d3d"/>
    <stop offset="1" stop-color="#474747"/>
  </linearGradient>
  <path d="m47 24c0 22.703-.297 23-23 23-22.703 0-23-.297-23-23 0-22.703.297-23 23-23 22.703 0 23 .297 23 23z" fill="url(#a)"/>
  <path d="m25 13v6h6v6h-6v-6c-4 0-8 0-12 0 0 6 0 12 0 18 6 0 12 0 18 0v-6h6c0-6 0-12 0-18-4 0-8 0-12 0z" fill-opacity=".098"/>
  <path d="m12 24v6 6h6 6 6v-6h-6-6v-6z" fill="#ffa837"/>
  <path d="m12 18v6h6v6h6 6v-6h-6v-6h-6z" fill="#2cb0de"/>
  <path d="m24 12v6h6v6 6h6v-6-6-6h-6z" fill="#fb5969"/>
</svg>
