<svg viewBox="0 0 48 48" xmlns="http://www.w3.org/2000/svg" xmlns:xlink="http://www.w3.org/1999/xlink">
  <linearGradient id="a" gradientTransform="matrix(0 -1 1 0 -.0000015 47.999998)" gradientUnits="userSpaceOnUse" x1="1" x2="47">
    <stop offset="0" stop-color="#dfcdcd"/>
    <stop offset="1" stop-color="#e7d9d9"/>
  </linearGradient>
  <path d="m47 24c0 22.703-.297 23-23 23-22.703 0-23-.297-23-23 0-22.703.297-23 23-23 22.703 0 23 .297 23 23z" fill="url(#a)"/>
  <g opacity=".1" transform="matrix(.1198665 0 0 .1194704 -11.721812 13.784112)">
    <path d="m291.15 35.29c-7.602 3.786-71.76 104.01 28.78 93.76l-7.627 15.05-122.75-.102c67.926-20.618 34.801-98.26 101.59-108.71"/>
    <path d="m321.56 144.1c7.602-3.786 71.76-104.01-28.78-93.76l7.627-15.05 122.75.099c-67.926 20.618-34.801 98.26-101.59 108.71"/>
  </g>
  <g fill="#c32828" transform="matrix(.1198665 0 0 .1194704 -12.721812 12.784112)">
    <path d="m291.15 35.29c-7.602 3.786-71.76 104.01 28.78 93.76l-7.627 15.05-122.75-.102c67.926-20.618 34.801-98.26 101.59-108.71"/>
    <path d="m321.56 144.1c7.602-3.786 71.76-104.01-28.78-93.76l7.627-15.05 122.75.099c-67.926 20.618-34.801 98.26-101.59 108.71"/>
  </g>
</svg>
