<svg viewBox="0 0 48 48" xmlns="http://www.w3.org/2000/svg" xmlns:xlink="http://www.w3.org/1999/xlink">
  <linearGradient id="a" gradientUnits="userSpaceOnUse" x1="1" x2="47">
    <stop offset="0" stop-color="#69b7ff"/>
    <stop offset="1" stop-color="#7dc1ff"/>
  </linearGradient>
  <path d="m24 1c22.703 0 23 .297 23 23 0 22.703-.297 23-23 23-22.703 0-23-.297-23-23 0-22.703.297-23 23-23z" fill="url(#a)" transform="matrix(0 -1 1 0 0 48)"/>
  <path d="m25 11c-4.144 0-6.855 2.38-8.137 5.174-1.596-.05-3.192-.1-4.783-.174-.586-.031-1.145.648-1.066 1.098 1.01 6.68 1.063 12.918 0 19.801-.074.453.48 1.121 1.066 1.098h25.836c.598.023 1.148-.645 1.078-1.098-1.063-6.879-1.078-13.199 0-19.801.078-.453-.48-1.133-1.078-1.098-1.598.087-3.185.136-4.773.188-1.28-2.8-3.995-5.188-8.143-5.188zm0 1c3.2 0 5.576 1.981 6.875 4.236-4.613.123-9.19.108-13.74-.016 1.301-2.249 3.672-4.221 6.865-4.221z" opacity=".1" transform=""/>
  <g transform="translate(.00048846)">
    <path d="m11.08 15c-.586-.031-1.145.648-1.066 1.098 1.01 6.68 1.063 12.918 0 19.801-.074.453.48 1.121 1.066 1.098 8.617 0 17.227 0 25.836 0 .598.023 1.148-.645 1.078-1.098-1.063-6.879-1.078-13.199 0-19.801.078-.453-.48-1.133-1.078-1.098-8.738.473-17.32.395-25.836 0m0 0" fill="#f8ecde"/>
    <path d="m17 19.5c0 .828-.672 1.5-1.5 1.5-.828 0-1.5-.672-1.5-1.5 0-.828.672-1.5 1.5-1.5.828 0 1.5.672 1.5 1.5m0 0" fill="#a9946f"/>
    <path d="m34 19.5c0 .828-.672 1.5-1.5 1.5-.828 0-1.5-.672-1.5-1.5 0-.828.672-1.5 1.5-1.5.828 0 1.5.672 1.5 1.5m0 0" fill="#a9946f"/>
    <path d="m15.5 20c-.5 0-.5-.578-.5-1 0-4.01 3-9 9-9 5.996 0 9 4.988 9 9 0 .422 0 1-.5 1-.5 0-.5-.578-.5-1 0-3.168-3-8-8-8-5 0-8 4.832-8 8 0 .422 0 1-.496 1m0 0" fill="#e5d6be"/>
    <path d="m27.81 21c-.081-.049-.41.113-.894.31-.445.181-.674.403-.79.413-1.019.107-8.648 5.621-8.673 5.679.074.042 2.336-1.085 4.233-1.549.442-.11.742-.017-.036 1.1-.904 1.297-2.865 4.427-2.927 4.682.174.052 2.685-3.465 3.543-4.408.468-.513.777-.723.929-.723.107 0 .135-.1-.758 1.413-.748 1.258-3.407 5.608-3.407 5.953.158-.1.274-.268.484-.516.706-.862 4.589-6.285 5.227-7.228 1.081-1.584 1.807-.975 2.617-.036 1.574 1.826 3.14 7.686 3.304 8.125-.032-.394-.142-1.049-.278-1.93-.562-3.704-1.332-8.318-3.304-9.67.103-.139.203-.558.21-.826 0-.164.161-.281.513-.79m.003 0" fill="#0068c8"/>
  </g>
</svg>
