<svg viewBox="0 0 48 48" xmlns="http://www.w3.org/2000/svg" xmlns:xlink="http://www.w3.org/1999/xlink">
  <linearGradient id="a" gradientTransform="matrix(0 -1 1 0 -.0000015 47.999998)" gradientUnits="userSpaceOnUse" x1="1" x2="47">
    <stop offset="0" stop-color="#7b7b7d"/>
    <stop offset="1" stop-color="#858587"/>
  </linearGradient>
  <linearGradient id="b" gradientTransform="matrix(0 -3.543307 -3.543307 0 0 0)" gradientUnits="userSpaceOnUse" x1="-8.184" x2="-5.362">
    <stop offset="0" stop-color="#c7b953"/>
    <stop offset="1" stop-color="#de7d53"/>
  </linearGradient>
  <linearGradient id="c" gradientTransform="matrix(.377409 0 0 .356586 25.072993 22.504552)" gradientUnits="userSpaceOnUse" x2="0" y1="-4.219" y2="12.607">
    <stop offset="0" stop-color="#fff" stop-opacity=".6"/>
    <stop offset="1" stop-opacity="0"/>
  </linearGradient>
  <path d="m47 24c0 22.703-.297 23-23 23-22.703 0-23-.297-23-23 0-22.703.297-23 23-23 22.703 0 23 .297 23 23z" fill="url(#a)"/>
  <path d="m39.01 24.01v-.004c0-8.281-6.715-14.996-15-14.996h-.004c-8.281 0-14.996 6.715-14.996 14.996v.004c0 8.285 6.715 15 14.996 15h .004c8.285 0 15-6.715 15-15m0 0" fill-rule="evenodd" opacity=".1" transform="translate(1 1)"/>
  <path d="m39.01 24.01v-.004c0-8.281-6.715-14.996-15-14.996h-.004c-8.281 0-14.996 6.715-14.996 14.996v.004c0 8.285 6.715 15 14.996 15h .004c8.285 0 15-6.715 15-15m0 0" fill="#282828" fill-rule="evenodd"/>
  <path d="m37 24c0-7.18-5.82-13-13-13-7.18 0-13 5.82-13 13 0 7.18 5.82 13 13 13 7.18 0 13-5.82 13-13m0 0" fill="#2f2f2f" fill-rule="evenodd"/>
  <path d="m35 24v-.004c0-6.074-4.922-11-10.996-11h-.004c-6.074 0-11 4.926-11 11v .004c0 6.074 4.926 10.996 11 10.996h.004c6.074 0 10.996-4.922 10.996-10.996m0 0" fill="#333" fill-rule="evenodd"/>
  <path d="m33 24c0-4.973-4.03-9-9-9-4.973 0-9 4.03-9 9 0 4.969 4.03 9 9 9 4.969 0 9-4.03 9-9m0 0" fill="#444" fill-rule="evenodd"/>
  <path d="m31 24v-.004c0-3.867-3.133-7-6.996-7h-.004c-3.867 0-7 3.133-7 7v .004c0 3.863 3.133 6.996 7 6.996h.004c3.863 0 6.996-3.133 6.996-6.996m0 0" fill="#535353" fill-rule="evenodd"/>
  <path d="m29 24c0-2.762-2.238-5-5-5-2.762 0-5 2.238-5 5 0 2.762 2.238 5 5 5 2.762 0 5-2.238 5-5m0 0" fill="url(#b)" fill-rule="evenodd"/>
  <path d="m27 24c0 1.656-1.344 3-3 3-1.656 0-3-1.344-3-3 0-1.656 1.344-3 3-3 1.656 0 3 1.344 3 3m0 0" fill="url(#c)"/>
  <path d="m24 1c-12.703 0-23 10.297-23 23 0 2.543.418 4.987 1.18 7.273l21.82-7.273z" fill="#fff" fill-opacity=".302"/>
  <path d="m24 1v23l21.889 7.07c.719-2.228 1.111-4.602 1.111-7.07 0-12.703-10.297-23-23-23z" fill-opacity=".302"/>
  <path d="m24 24l-21.82 7.273c3.044 9.137 11.66 15.727 21.82 15.727 10.236 0 18.906-6.688 21.889-15.932l-21.885-7.06-.004-.004z" fill="#aaaaaf" fill-opacity=".282"/>
</svg>
