<svg xmlns="http://www.w3.org/2000/svg" viewBox="0 0 48 48">
 <defs>
  <linearGradient id="linearGradient3764" x1="1" x2="47" gradientUnits="userSpaceOnUse" gradientTransform="matrix(0,-1,1,0,-1.5e-6,47.999998)">
   <stop style="stop-color:#7b7b7d;stop-opacity:1"/>
   <stop offset="1" style="stop-color:#858587;stop-opacity:1"/>
  </linearGradient>
  <linearGradient id="linear0" gradientUnits="userSpaceOnUse" x1="-8.184" x2="-5.362" gradientTransform="matrix(0,-3.543307,-3.543307,0,0,0)">
   <stop style="stop-color:#c7b953;stop-opacity:1"/>
   <stop offset="1" style="stop-color:#de7d53;stop-opacity:1"/>
  </linearGradient>
  <linearGradient id="linear1" gradientUnits="userSpaceOnUse" y1="-4.219" x2="0" y2="12.607" gradientTransform="matrix(0.377409,0,0,0.356586,25.072993,22.504552)">
   <stop style="stop-color:#fff;stop-opacity:0.6"/>
   <stop offset="1" style="stop-color:#000;stop-opacity:0"/>
  </linearGradient>
 </defs>
 <g>
  
  
  
 </g>
 <g>
  <path d="m 47,24 C 47,46.703 46.703,47 24,47 1.297,47 1,46.703 1,24 1,1.297 1.297,1 24,1 46.703,1 47,1.297 47,24 z" style="fill:url(#linearGradient3764);fill-opacity:1"/>
 </g>
 <g>
  <g>
   <g transform="translate(1,1)">
    <g style="opacity:0.1">
     <!-- color: #858587 -->
     <g>
      <path d="m 39.01 24.01 l 0 -0.004 c 0 -8.281 -6.715 -14.996 -15 -14.996 l -0.004 0 c -8.281 0 -14.996 6.715 -14.996 14.996 l 0 0.004 c 0 8.285 6.715 15 14.996 15 l 0.004 0 c 8.285 0 15 -6.715 15 -15 m 0 0" style="fill:#000;fill-opacity:1;stroke:none;fill-rule:evenodd"/>
     </g>
    </g>
   </g>
  </g>
 </g>
 <g>
  <g>
   <!-- color: #858587 -->
   <g>
    <path d="m 39.01,24.01 0,-0.004 c 0,-8.281 -6.715,-14.996 -15,-14.996 l -0.004,0 C 15.725,9.01 9.01,15.725 9.01,24.006 l 0,0.004 c 0,8.285 6.715,15 14.996,15 l 0.004,0 c 8.285,0 15,-6.715 15,-15 m 0,0" style="fill:#282828;fill-opacity:1;stroke:none;fill-rule:evenodd"/>
    <path d="m 37 24 c 0 -7.18 -5.82 -13 -13 -13 -7.18 0 -13 5.82 -13 13 0 7.18 5.82 13 13 13 7.18 0 13 -5.82 13 -13 m 0 0" style="fill:#2f2f2f;fill-opacity:1;stroke:none;fill-rule:evenodd"/>
    <path d="m 35,24 0,-0.004 c 0,-6.074 -4.922,-11 -10.996,-11 l -0.004,0 c -6.074,0 -11,4.926 -11,11 L 13,24 c 0,6.074 4.926,10.996 11,10.996 l 0.004,0 C 30.078,34.996 35,30.074 35,24 m 0,0" style="fill:#333;fill-opacity:1;stroke:none;fill-rule:evenodd"/>
    <path d="m 33 24 c 0 -4.973 -4.03 -9 -9 -9 -4.973 0 -9 4.03 -9 9 0 4.969 4.03 9 9 9 4.969 0 9 -4.03 9 -9 m 0 0" style="fill:#444;fill-opacity:1;stroke:none;fill-rule:evenodd"/>
    <path d="m 31,24 0,-0.004 c 0,-3.867 -3.133,-7 -6.996,-7 l -0.004,0 c -3.867,0 -7,3.133 -7,7 L 17,24 c 0,3.863 3.133,6.996 7,6.996 l 0.004,0 C 27.867,30.996 31,27.863 31,24 m 0,0" style="fill:#535353;fill-opacity:1;stroke:none;fill-rule:evenodd"/>
    <path d="m 29 24 c 0 -2.762 -2.238 -5 -5 -5 -2.762 0 -5 2.238 -5 5 0 2.762 2.238 5 5 5 2.762 0 5 -2.238 5 -5 m 0 0" style="fill:url(#linear0);stroke:none;fill-rule:evenodd"/>
    <path d="m 27 24 c 0 1.656 -1.344 3 -3 3 -1.656 0 -3 -1.344 -3 -3 0 -1.656 1.344 -3 3 -3 1.656 0 3 1.344 3 3 m 0 0" style="fill:url(#linear1);stroke:none;fill-rule:nonzero"/>
   </g>
  </g>
 </g>
 <g>
  
 </g>
 <path d="m 24 1 c -12.703 0 -23 10.297 -23 23 0 2.543 0.418 4.987 1.18 7.273 l 21.82 -7.273 l 0 -23 z" style="fill:#fff;fill-opacity:0.302"/>
 <path d="m 24 1 0 23 l 21.889 7.07 c 0.719 -2.228 1.111 -4.602 1.111 -7.07 c 0 -12.703 -10.297 -23 -23 -23 z" style="fill:#000;fill-opacity:0.302"/>
 <path d="m 24 24 -21.82 7.273 c 3.044 9.137 11.66 15.727 21.82 15.727 10.236 0 18.906 -6.688 21.889 -15.932 l -21.885 -7.06 -0.004 -0.004 z" style="fill:#aaaaaf;fill-opacity:0.282"/>
</svg>
