<svg viewBox="0 0 48 48" xmlns="http://www.w3.org/2000/svg" xmlns:xlink="http://www.w3.org/1999/xlink">
  <linearGradient id="a" gradientTransform="matrix(0 -1 1 0 -.0000015 47.999998)" gradientUnits="userSpaceOnUse" x1="1" x2="47">
    <stop offset="0" stop-color="#e87018"/>
    <stop offset="1" stop-color="#ea7a2a"/>
  </linearGradient>
  <path d="m47 24c0 22.703-.297 23-23 23-22.703 0-23-.297-23-23 0-22.703.297-23 23-23 22.703 0 23 .297 23 23z" fill="url(#a)"/>
  <path d="m24.42 12.98c-.597-.004-1.199.21-1.658.645-.616.578-.828 1.402-.641 2.154.097.381.296.746.602 1.051.907.898 2.398.913 3.326.037.929-.873.946-2.306.035-3.203-.305-.302-.68-.503-1.074-.607-.193-.049-.391-.075-.59-.076zm5.623 4.059c-.686-.005-1.371.24-1.904.74h.004c-.703.662-.947 1.611-.732 2.477.107.44.34.857.691 1.205.548.54 1.277.793 2 .775 1.271.166 1.647.573 1.656 1.846 0 0 0 0 0 .002-.14.49-.148 1.01-.031 1.502-.038 1.286-.12 1.856-1.705 2.066-.714-.027-1.436.209-1.984.729-.706.665-.953 1.611-.736 2.475.112.437.339.858.691 1.205 1.043 1.032 2.755 1.051 3.82.049.57-.538.83-1.26.799-1.973.347-1.643.421-1.93 2.199-2.168.804.003 1.61-.282 2.23-.865 1.258-1.184 1.277-3.121.051-4.332-.414-.41-.918-.684-1.453-.82-.336-.087-.682-.101-1.027-.08-1.267-.207-1.737-.382-1.932-1.754.152-.803-.083-1.662-.721-2.293-.351-.348-.781-.577-1.236-.695-.223-.057-.453-.088-.682-.09m-10.91 1.333c-.5-.003-1 .175-1.387.539-.514.482-.691 1.172-.535 1.801.082.319.251.623.508.877.757.749 2 .763 2.777.033.777-.733.789-1.928.031-2.68-.256-.251-.57-.418-.898-.506-.162-.041-.329-.063-.496-.064zm5.311 4.48c-.601-.004-1.204.212-1.668.648-.618.582-.835 1.411-.645 2.166.097.387.299.752.609 1.059.912.899 2.408.917 3.344.039.932-.878.949-2.32.037-3.223-.31-.304-.686-.508-1.084-.611-.195-.05-.394-.077-.594-.078zm-9.854 1.197c-.402-.003-.804.139-1.113.432-.413.386-.556.947-.43 1.445.064.262.198.504.404.705.609.609 1.61.614 2.232.029.622-.582.633-1.551.023-2.152-.207-.204-.454-.339-.719-.408-.13-.033-.265-.05-.398-.051zm4.494 4.314c-.501-.005-1 .174-1.385.539-.515.483-.693 1.174-.537 1.801.083.321.247.625.504.879.76.75 2.01.765 2.781.033.775-.728.79-1.929.033-2.68-.257-.251-.57-.424-.9-.506-.162-.042-.329-.065-.496-.066zm5.465 4.104c-.597-.004-1.197.212-1.656.646-.612.578-.83 1.402-.643 2.15.097.385.298.748.604 1.053.907.898 2.398.912 3.326.039.929-.873.944-2.308.037-3.205-.309-.302-.681-.504-1.076-.605-.193-.05-.393-.077-.592-.078z" fill-opacity=".098" fill-rule="evenodd" transform="translate(-.4997489 -.00115737)"/>
  <g fill="#f8e36c" transform="translate(-.50009271 -.00000037)">
    <path d="m31.598 21.715c-.828.781-1.117 1.895-.863 2.91.129.52.402 1.012.816 1.422 1.227 1.211 3.238 1.234 4.492.055 1.258-1.184 1.277-3.121.051-4.332-.414-.41-.918-.684-1.453-.82-1.047-.27-2.211-.02-3.043.766m0 0" fill-rule="evenodd" transform="translate(-.00010451 -.00115732)"/>
    <path d="m21.89 32.11c-.613.578-.828 1.403-.641 2.152.097.385.298.749.603 1.054.907.898 2.397.911 3.326.038.929-.873.945-2.308.038-3.204-.309-.302-.683-.506-1.078-.607-.772-.201-1.635-.011-2.248.569m0 0" fill-rule="evenodd" transform="translate(-.00010451 -.00115732)"/>
    <path d="m27.14 16.779c-.703.662-.947 1.609-.732 2.475.107.44.34.858.691 1.206 1.044 1.029 2.753 1.047 3.817.045 1.066-1 1.085-2.649.041-3.682-.351-.348-.781-.577-1.236-.695-.891-.229-1.876-.015-2.586.652m0 0" fill-rule="evenodd" transform="translate(-.00010451 -.00115732)"/>
    <path d="m16.697 27.904c-.515.483-.693 1.173-.537 1.799.083.321.248.627.505.88.76.75 2.01.763 2.781.032.775-.728.789-1.929.032-2.68-.257-.251-.569-.423-.899-.505-.649-.168-1.37-.013-1.882.474m0 0" fill-rule="evenodd" transform="translate(-.00010451 -.00115732)"/>
    <path d="m21.762 12.623c-.616.578-.828 1.403-.641 2.155.097.381.298.745.603 1.05.907.898 2.397.914 3.326.038.929-.873.945-2.308.035-3.204-.305-.302-.679-.502-1.074-.607-.773-.198-1.635-.011-2.248.569m0 0" fill-rule="evenodd" transform="translate(-.00010451 -.00115732)"/>
    <path d="m12.474 23.482c-.413.386-.556.948-.429 1.446.064.262.199.503.405.704.609.609 1.61.614 2.232.029.622-.582.633-1.552.024-2.153-.207-.204-.456-.339-.721-.408-.522-.132-1.099-.008-1.512.382m0 0" fill-rule="evenodd" transform="translate(-.00010451 -.00115732)"/>
    <path d="m27.04 27.38c-.706.665-.953 1.612-.737 2.475.112.437.34.857.692 1.204 1.043 1.032 2.756 1.051 3.821.049 1.065-1.01 1.084-2.654.041-3.683-.351-.347-.781-.579-1.234-.696-.89-.232-1.881-.015-2.583.651m0 0" fill-rule="evenodd" transform="translate(-.00010451 -.00115732)"/>
    <path d="m21.775 22.502c-.618.582-.836 1.409-.645 2.165.097.387.298.752.608 1.059.912.899 2.408.919 3.344.04.932-.878.948-2.322.037-3.224-.31-.304-.685-.508-1.083-.611-.778-.2-1.644-.001-2.262.571m0 0" fill-rule="evenodd" transform="translate(-.00010451 -.00115732)"/>
    <path d="m16.745 17.912c-.514.482-.692 1.171-.535 1.8.082.319.251.623.507.877.757.749 2 .764 2.777.034.777-.733.789-1.928.031-2.68-.256-.251-.57-.419-.898-.507-.648-.166-1.368-.001-1.882.476m0 0" fill-rule="evenodd" transform="translate(-.00010451 -.00115732)"/>
    <path d="m30.739 24.342l3.308 2.592c-2.144.267-2.061.452-2.491 2.453l-2.88-2.692c2.071-.188 2.02-.767 2.063-2.353z"/>
    <path d="m28.784 21.19l2.883-2.157c.197 1.514.669 1.634 2.097 1.861l-3 2.339c.024-1.517-.38-1.895-1.979-2.043z"/>
  </g>
</svg>
