<svg xmlns="http://www.w3.org/2000/svg" viewBox="0 0 48 48">
 <defs>
  <linearGradient id="linearGradient3764" x1="1" x2="47" gradientUnits="userSpaceOnUse" gradientTransform="matrix(0,-1,1,0,-1.5e-6,47.999998)">
   <stop style="stop-color:#172c3d;stop-opacity:1"/>
   <stop offset="1" style="stop-color:#1c364b;stop-opacity:1"/>
  </linearGradient>
 </defs>
 <g>
  
  
  
 </g>
 <g>
  <path d="m 47,24 C 47,46.703 46.703,47 24,47 1.297,47 1,46.703 1,24 1,1.297 1.297,1 24,1 46.703,1 47,1.297 47,24 z" style="fill:url(#linearGradient3764);fill-opacity:1"/>
 </g>
 <g>
  <g>
   <g transform="translate(1,1)">
    <g style="opacity:0.1">
     <!-- color: #1c364b -->
     <g>
      <path d="m 36 13.977 c 0 0 -2 3.01 -5 3.01 c -2.797 -0.539 -3.906 -0.082 -4 0 l 0 12.11 c -0.133 2.551 -2.223 5.109 -5.336 6.285 c -3.949 1.492 -8.125 0.195 -9.332 -2.91 c -1.211 -3.098 1 -6.855 4.953 -8.348 c 3.059 -1.152 5.867 -0.867 7.715 0.867 l 0 -12.01 c 4 -2.664 7.719 0.957 11 1 m 0 -0.004" style="fill:#000;fill-opacity:1;stroke:none;fill-rule:nonzero"/>
     </g>
    </g>
   </g>
  </g>
 </g>
 <g>
  <g>
   <!-- color: #1c364b -->
   <g>
    <path d="m 36 13.977 c 0 0 -2 3.01 -5 3.01 c -2.797 -0.539 -3.906 -0.082 -4 0 l 0 12.11 c -0.133 2.551 -2.223 5.109 -5.336 6.285 c -3.949 1.492 -8.125 0.195 -9.332 -2.91 c -1.211 -3.098 1 -6.855 4.953 -8.348 c 3.059 -1.152 5.867 -0.867 7.715 0.867 l 0 -12.01 c 4 -2.664 7.719 0.957 11 1 m 0 -0.004" style="fill:#f9f9f9;fill-opacity:1;stroke:none;fill-rule:nonzero"/>
   </g>
  </g>
 </g>
 <g>
  
 </g>
</svg>
