<svg xmlns="http://www.w3.org/2000/svg" viewBox="0 0 48 48">
 <defs>
  <linearGradient id="linearGradient3868" x1="1" x2="47" gradientUnits="userSpaceOnUse">
   <stop style="stop-color:#2c2c2c;stop-opacity:1"/>
   <stop offset="1" style="stop-color:#363636;stop-opacity:1"/>
  </linearGradient>
 </defs>
 <g>
  
  
  
 </g>
 <g transform="matrix(0,-1,1,0,0,48)" style="fill:url(#linearGradient3868);fill-opacity:1">
  <path d="M 24,1 C 46.703,1 47,1.297 47,24 47,46.703 46.703,47 24,47 1.297,47 1,46.703 1,24 1,1.297 1.297,1 24,1 z"/>
 </g>
 <path d="m 12 12 0 26 6 0 0 -14 4 7 6 0 4 -7 0 14 6 0 0 -26 -4 0 -2 0 -7 11 -7 -11 -2 0 z" style="fill:#000;opacity:0.1;fill-opacity:1"/>
 <path d="m 11 11 0 26 6 0 0 -14 4 7 6 0 4 -7 0 14 6 0 0 -26 -4 0 -2 0 -7 11 -7 -11 -2 0 z" style="fill:#f9f9f9;fill-opacity:1"/>
 <path d="m 12 12 l 0 24 l 4 0 l 0 -16.438 l 6 9.438 l 4 0 l 6 -9.438 l 0 16.438 l 4 0 l 0 -24 l -3 0 l -1 0 l -8 12 l -8 -12 l -1 0 l -3 0 z" style="fill:#d50000;fill-opacity:1"/>
 <path d="m 27 25 0 3 -3 0 0 6 3 0 0 3 6 0 0 -3 3 0 0 -6 -3 0 0 -3 z" style="fill:#000;opacity:0.1;fill-opacity:1;stroke:none;fill-rule:nonzero"/>
 <g>
  
 </g>
 <rect width="6" height="12" x="26" y="24" style="fill:#f9f9f9;fill-opacity:1;stroke:none;fill-rule:nonzero"/>
 <rect y="-35" x="27" height="12" width="6" transform="matrix(0,1,-1,0,0,0)" style="fill:#f9f9f9;fill-opacity:1;stroke:none;fill-rule:nonzero"/>
 <rect transform="matrix(0,1,-1,0,0,0)" width="4" height="10" x="28" y="-34" style="fill:#84d54c;fill-opacity:1;stroke:none;fill-rule:nonzero"/>
 <rect y="25" x="27" height="10" width="4" style="fill:#84d54c;fill-opacity:1;stroke:none;fill-rule:nonzero"/>
</svg>
