<svg viewBox="0 0 48 48" xmlns="http://www.w3.org/2000/svg">
  <path d="m24 1c22.703 0 23 .297 23 23 0 22.703-.297 23-23 23-22.703 0-23-.297-23-23 0-22.703.297-23 23-23z" fill="#5a5daa" transform="matrix(0 -1 1 0 0 48)"/>
  <path d="m23 10v4h1v1.051c-5.662.517-9.997 5.264-10 10.949 0 2.667 0 5.333 0 8h1v1h-1v2h11 11v-2h-1v-1h1c0-2.667 0-5.333 0-8-.005-5.684-4.339-10.429-10-10.945v-1.055h1v-4z" opacity=".1"/>
  <path d="m23 12.07h2v2.928h-2z" fill="#a68c63"/>
  <path d="m24 14a11 11 0 0 0-11 11v8h22v-8a11 11 0 0 0-11-11m-11 20v2h11 11v-2z" fill="#e2b351"/>
  <path d="m24 14a11 11.451 0 0 0-1 .053v14.522h1z" fill="#b88439"/>
  <path d="m13 28h22v1h-22z" fill="#b88439"/>
  <circle cx="24.5" cy="17.5" fill="#b88439" r=".5"/>
  <circle cx="24.5" cy="20.5" fill="#b88439" r=".5"/>
  <circle cx="24.5" cy="23.5" fill="#b88439" r=".5"/>
  <circle cx="24.5" cy="26.5" fill="#b88439" r=".5"/>
  <path d="m22 9h4v4h-4z" fill="#e2b351"/>
  <path d="m14 33h20v1h-20z" fill="#2d2d2d"/>
  <circle cx="17.5" cy="27.5" fill="#a68c63" r="3.5"/>
  <circle cx="17.5" cy="27.5" fill="#b88439" r="2.5"/>
  <circle cx="17.5" cy="27.5" fill="#2d2d2d" r="1.5"/>
  <circle cx="30.5" cy="27.5" fill="#a68c63" r="3.5"/>
  <circle cx="30.5" cy="27.5" fill="#b88439" r="2.5"/>
  <circle cx="30.5" cy="27.5" fill="#2d2d2d" r="1.5"/>
</svg>
