<svg xmlns="http://www.w3.org/2000/svg" viewBox="0 0 48 48">
 <g>
  
  
  
 </g>
 <g transform="matrix(0,-1,1,0,0,48)" style="fill:#5a5daa;fill-opacity:1">
  <path d="M 24,1 C 46.703,1 47,1.297 47,24 47,46.703 46.703,47 24,47 1.297,47 1,46.703 1,24 1,1.297 1.297,1 24,1 z"/>
 </g>
 <path d="m 23 10 0 4 1 0 0 1.051 c -5.662 0.517 -9.997 5.264 -10 10.949 c 0 2.667 0 5.333 0 8 l 1 0 0 1 -1 0 0 2 11 0 11 0 0 -2 -1 0 0 -1 1 0 c 0 -2.667 0 -5.333 0 -8 -0.005 -5.684 -4.339 -10.429 -10 -10.945 l 0 -1.055 l 1 0 0 -4 z" style="fill:#000;opacity:0.1;fill-opacity:1;stroke:none;fill-rule:nonzero"/>
 <g>
  
 </g>
 <rect width="2" height="2.928" x="23" y="12.07" style="fill:#a68c63;opacity:1;fill-opacity:1;stroke:none;fill-rule:nonzero"/>
 <path d="M 24 14 A 11 11 0 0 0 13 25 l 0 8 22 0 0 -8 A 11 11 0 0 0 24 14 m -11 20 0 2 11 0 11 0 0 -2 -22 0 z" style="fill:#e2b351;opacity:1;fill-opacity:1;stroke:none;fill-rule:nonzero"/>
 <path d="m 24 14 a 11 11.451 0 0 0 -1 0.053 l 0 14.522 1 0 L 24 14" style="fill:#b88439;opacity:1;fill-opacity:1;stroke:none;fill-rule:nonzero"/>
 <rect width="22" height="1" x="13" y="28" style="fill:#b88439;opacity:1;fill-opacity:1;stroke:none;fill-rule:nonzero"/>
 <circle cx="24.5" cy="17.5" r="0.5" style="fill:#b88439;opacity:1;fill-opacity:1;stroke:none;fill-rule:nonzero"/>
 <circle cx="24.5" cy="20.5" r="0.5" style="fill:#b88439;opacity:1;fill-opacity:1;stroke:none;fill-rule:nonzero"/>
 <circle cx="24.5" cy="23.5" r="0.5" style="fill:#b88439;opacity:1;fill-opacity:1;stroke:none;fill-rule:nonzero"/>
 <circle cx="24.5" cy="26.5" r="0.5" style="fill:#b88439;opacity:1;fill-opacity:1;stroke:none;fill-rule:nonzero"/>
 <rect width="4" height="4" x="22" y="9" style="fill:#e2b351;opacity:1;fill-opacity:1;stroke:none;fill-rule:nonzero"/>
 <rect width="20" height="1" x="14" y="33" style="fill:#2d2d2d;opacity:1;fill-opacity:1;stroke:none;fill-rule:nonzero"/>
 <circle cx="17.5" cy="27.5" r="3.5" style="fill:#a68c63;opacity:1;fill-opacity:1;stroke:none;fill-rule:nonzero"/>
 <circle cy="27.5" cx="17.5" r="2.5" style="fill:#b88439;opacity:1;fill-opacity:1;stroke:none;fill-rule:nonzero"/>
 <circle cy="27.5" cx="17.5" r="1.5" style="fill:#2d2d2d;opacity:1;fill-opacity:1;stroke:none;fill-rule:nonzero"/>
 <circle cx="30.5" cy="27.5" r="3.5" style="fill:#a68c63;opacity:1;fill-opacity:1;stroke:none;fill-rule:nonzero"/>
 <circle cy="27.5" cx="30.5" r="2.5" style="fill:#b88439;opacity:1;fill-opacity:1;stroke:none;fill-rule:nonzero"/>
 <circle cy="27.5" cx="30.5" r="1.5" style="fill:#2d2d2d;opacity:1;fill-opacity:1;stroke:none;fill-rule:nonzero"/>
</svg>
