<svg viewBox="0 0 48 48" xmlns="http://www.w3.org/2000/svg" xmlns:xlink="http://www.w3.org/1999/xlink">
  <linearGradient id="a" gradientTransform="matrix(0 -1 1 0 -.0000015 47.999998)" gradientUnits="userSpaceOnUse" x1="1" x2="47">
    <stop offset="0" stop-color="#e4e4e4"/>
    <stop offset="1" stop-color="#eee"/>
  </linearGradient>
  <path d="m47 24c0 22.703-.297 23-23 23-22.703 0-23-.297-23-23 0-22.703.297-23 23-23 22.703 0 23 .297 23 23z" fill="url(#a)"/>
  <path d="m35.852 13.316l-.715 2.438-.658.242h-21.494c-.543 0-.984.441-.984.988v16.03c0 .539.441.977.984.977h24.03c.539 0 .977-.43.977-.977v-13.445l1.512.414-.717-2.453 1.414-2.086-2.715-.117-1.633-2.01z" opacity=".1" transform=""/>
  <path d="m11.984 14.996h24.03c.543 0 .977.441.977.988v16.03c0 .547-.438.977-.977.977h-24.03c-.543 0-.984-.438-.984-.977v-16.03c0-.547.441-.988.984-.988m0 0" fill="#f9f9f9"/>
  <path d="m37 17l-13 8.656 11 7.344h1c .547 0 1-.453 1-1m0-15" fill="#ccc"/>
  <path d="m12 15c-.453 0-.82.328-.938.75-.035.086-.063.16-.063.25v16c0 .09.027.164.063.25.117.422.484.75.938.75h24c .48 0 .875-.359.969-.813.02-.066.031-.121.031-.188v-16c0-.07-.012-.125-.031-.188-.094-.453-.488-.816-.969-.816h-24m4 2h16l-8 5.344m-11-4l11 7.313 11-7.313v12.656h-22m0-12.656" fill="#2d2d2d"/>
  <path d="m31.641 15.672l2.496-.918.715-2.438 1.633 2.01 2.715.117-1.414 2.086.715 2.453-2.395-.656-2.406 1.691.016-2.598m-2.074-1.746" fill="#ffe236"/>
</svg>
