<svg xmlns="http://www.w3.org/2000/svg" viewBox="0 0 48 48">
 <defs>
  <linearGradient id="linearGradient3764" x1="1" x2="47" gradientUnits="userSpaceOnUse" gradientTransform="matrix(0,-1,1,0,-1.5e-6,47.999998)">
   <stop style="stop-color:#3d3d3d;stop-opacity:1"/>
   <stop offset="1" style="stop-color:#474747;stop-opacity:1"/>
  </linearGradient>
 </defs>
 <g>
  
  
  
 </g>
 <g>
  <path d="m 47,24 C 47,46.703 46.703,47 24,47 1.297,47 1,46.703 1,24 1,1.297 1.297,1 24,1 46.703,1 47,1.297 47,24 z" style="fill:url(#linearGradient3764);fill-opacity:1"/>
 </g>
 <g>
  <g>
   <g transform="translate(1,1)">
    <g style="opacity:0.1">
     <!-- color: #474747 -->
     <g>
      <path d="m 24.998 11 l -3.105 1.996 l -6.893 0 l 0 4.428 l -2 1.287 l 0 14.57 c 0 1.714 0 1.715 1.779 1.715 l 0.002 0 l 20.443 0 c 1.777 0 1.775 0 1.775 -1.715 l 0 -14.57 l -2 -1.287 l 0 -4.428 l -6.893 0 l -3.105 -1.996 z" transform="translate(-1,-1)"/>
     </g>
    </g>
   </g>
  </g>
 </g>
 <g>
  <g>
   <!-- color: #474747 -->
   <g>
    <path d="m 13.777 34 20.445 0 c 1.777 0 1.777 0 1.777 -1.715 l 0 -14.57 -12 -7.711 -12 7.711 0 14.57 c 0 1.715 0 1.715 1.781 1.715 m 0 0" style="fill:#aaa;fill-opacity:1;stroke:none;fill-rule:nonzero"/>
    <path d="m 14,12 0,20 19.996,0 0,-20 M 14,12" style="fill:#f9f9f9;fill-opacity:1;stroke:none;fill-rule:nonzero"/>
    <path d="m 13.777 34 20.445 0 c 1.777 0 1.777 0 1.777 -1.68 l 0 -14.316 -24 14.316 c 0 1.68 0 1.68 1.781 1.68 m -0.004 0" style="fill:#ccc;fill-opacity:1;stroke:none;fill-rule:nonzero"/>
    <path d="m 34.22 34 -20.445 0 c -1.781 0 -1.781 0 -1.781 -1.68 l 0 -14.316 24 14.316 c 0 1.68 0 1.68 -1.77 1.68 m 0.004 0" style="fill:#dedede;fill-opacity:1;stroke:none;fill-rule:nonzero"/>
   </g>
  </g>
 </g>
 <g>
  
 </g>
</svg>
