<svg viewBox="0 0 48 48" xmlns="http://www.w3.org/2000/svg" xmlns:xlink="http://www.w3.org/1999/xlink">
  <linearGradient id="a" gradientTransform="matrix(0 -1 1 0 -.0000015 47.999998)" gradientUnits="userSpaceOnUse" x1="1" x2="47">
    <stop offset="0" stop-color="#38963e"/>
    <stop offset="1" stop-color="#3da445"/>
  </linearGradient>
  <path d="m47 24c0 22.703-.297 23-23 23-22.703 0-23-.297-23-23 0-22.703.297-23 23-23 22.703 0 23 .297 23 23z" fill="url(#a)"/>
  <path d="m25 10c-8.281 0-15 6.719-15 15 0 8.281 6.719 15 15 15 8.281 0 15-6.719 15-15 0-8.281-6.719-15-15-15zm0 2c1.656 0 3 1.344 3 3 0 1.656-1.344 3-3 3-1.656 0-3-1.344-3-3 0-1.656 1.344-3 3-3zm0 7a6 6 0 0 1 6 6 6 6 0 0 1-6 6 6 6 0 0 1-6-6 6 6 0 0 1  6-6zm0 2a4 4 0 0 0-4 4 4 4 0 0 0  4 4 4 4 0 0 0  4-4 4 4 0 0 0-4-4zm-10 1c1.656 0 3 1.344 3 3 0 1.656-1.344 3-3 3-1.656 0-3-1.344-3-3 0-1.656 1.344-3 3-3zm20 0c1.656 0 3 1.344 3 3 0 1.656-1.344 3-3 3-1.656 0-3-1.344-3-3 0-1.656 1.344-3 3-3zm-10 1a2 2 0 0 1 2 2 2 2 0 0 1-2 2 2 2 0 0 1-2-2 2 2 0 0 1  2-2zm0 9c1.656 0 3 1.344 3 3 0 1.656-1.344 3-3 3-1.656 0-3-1.344-3-3 0-1.656 1.344-3 3-3z" opacity=".1"/>
  <path d="m24 9c-8.281 0-15 6.719-15 15 0 8.281 6.719 15 15 15 8.281 0 15-6.719 15-15 0-8.281-6.719-15-15-15zm0 2c1.656 0 3 1.344 3 3 0 1.656-1.344 3-3 3-1.656 0-3-1.344-3-3 0-1.656 1.344-3 3-3zm0 7a6 6 0 0 1 6 6 6 6 0 0 1-6 6 6 6 0 0 1-6-6 6 6 0 0 1  6-6zm0 2a4 4 0 0 0-4 4 4 4 0 0 0  4 4 4 4 0 0 0  4-4 4 4 0 0 0-4-4zm-10 1c1.656 0 3 1.344 3 3 0 1.656-1.344 3-3 3-1.656 0-3-1.344-3-3 0-1.656 1.344-3 3-3zm20 0c1.656 0 3 1.344 3 3 0 1.656-1.344 3-3 3-1.656 0-3-1.344-3-3 0-1.656 1.344-3 3-3zm-10 1a2 2 0 0 1 2 2 2 2 0 0 1-2 2 2 2 0 0 1-2-2 2 2 0 0 1  2-2zm0 9c1.656 0 3 1.344 3 3 0 1.656-1.344 3-3 3-1.656 0-3-1.344-3-3 0-1.656 1.344-3 3-3z" fill="#f9f9f9"/>
</svg>
