<svg xmlns="http://www.w3.org/2000/svg" viewBox="0 0 48 48">
 <defs>
  <linearGradient id="linearGradient3871" x1="1" x2="47" gradientUnits="userSpaceOnUse">
   <stop style="stop-color:#ff822d;stop-opacity:1"/>
   <stop offset="1" style="stop-color:#ff8e41;stop-opacity:1"/>
  </linearGradient>
 </defs>
 <g>
  
  
  
 </g>
 <g transform="matrix(0,-1,1,0,0,48)" style="fill:url(#linearGradient3871);fill-opacity:1">
  <path d="M 24,1 C 46.703,1 47,1.297 47,24 47,46.703 46.703,47 24,47 1.297,47 1,46.703 1,24 1,1.297 1.297,1 24,1 z"/>
 </g>
 <g>
  
 </g>
 <g transform="matrix(0.0294591,0,0,-0.02946159,9,39.014731)" style="fill:#f9f9f9;opacity:1;fill-opacity:1;stroke:none">
  <g transform="translate(33.945368,-33.942496)" style="fill:#000;fill-opacity:0.098">
   <path d="m 0 477.65 c 0 -460.18 579.29 -615.94 941.22 -341.31 146.38 111.07 58.35 244.08 -48.908 201.4 -48.908 -20.656 -88.51 -55.1 -130.75 -129.1 -154.4 -270.45 -659.73 -150.72 -659.73 234.9 c 0 420.68 236.96 526.94 524.97 527.38 119.99 0.182 176.72 -51.34 251.86 -67.54 -3.652 -10.559 -3.853 -23.806 -7.311 -51.29 l -4.991 -32.02 -52.9 5.164 c -85.84 9.295 -86.84 -39.25 -0.998 -52.674 l 42.919 -7.23 -3.992 -44.41 c -8.983 -75.4 37.928 -75.4 51.902 0 5.989 36.15 6.987 36.15 43.917 29.952 26.949 -4.131 40.923 -2.066 49.906 9.295 17.966 22.722 5.989 36.15 -39.925 43.38 l -38.927 7.23 5.989 49.575 c 4.991 41.31 3.992 51.641 -9.981 56.805 -9.981 4.131 -21.431 0.979 -27.947 -4.131 -17.538 8.166 -31.13 13.439 -51.902 25.22 c -392.59 222.74 -834.42 -44.36 -834.42 -460.59 m 978.15 -186.39 c 35.912 -102.79 -169.59 -211.81 -171.68 -108.45 c 0 80.56 140.73 168.35 171.68 108.45 z"/>
   <path d="m 410 715.98 c -19 -5 -55 -6 -80 -3 -69 8 -86 -12 -100 -117 -15.633 -110.83 -26.865 -189.88 -43 -289 l 55 0 c 37 0 60 5 68 15 7 8 21 73 31 143 22 145 25 156 45 177 22 21 42 19 68 -10 20 -21 22 -32 19 -87 -6.442 -82.908 -17.881 -155.96 -30 -238 l 57 0 c 71 0 73 3 100 173 27 170 57 210.55 110 153.55 18 -19 21 -32.545 19 -90.55 -2.416 -67.29 -19.217 -166.81 -29 -237 l 57 3 c 69 4 76 13 94 138 25 167 13 221 -55 254 -47 23 -127 24 -183 1 -37 -15 -44 -15 -65 -2 -31 19 -95 27 -138 16 z"/>
  </g>
  <g>
   <path d="m 0 477.65 c 0 -460.18 579.29 -615.94 941.22 -341.31 146.38 111.07 58.35 244.08 -48.908 201.4 -48.908 -20.656 -88.51 -55.1 -130.75 -129.1 -154.4 -270.45 -659.73 -150.72 -659.73 234.9 c 0 420.68 236.96 526.94 524.97 527.38 119.99 0.182 176.72 -51.34 251.86 -67.54 -3.652 -10.559 -3.853 -23.806 -7.311 -51.29 l -4.991 -32.02 -52.9 5.164 c -85.84 9.295 -86.84 -39.25 -0.998 -52.674 l 42.919 -7.23 -3.992 -44.41 c -8.983 -75.4 37.928 -75.4 51.902 0 5.989 36.15 6.987 36.15 43.917 29.952 26.949 -4.131 40.923 -2.066 49.906 9.295 17.966 22.722 5.989 36.15 -39.925 43.38 l -38.927 7.23 5.989 49.575 c 4.991 41.31 3.992 51.641 -9.981 56.805 -9.981 4.131 -21.431 0.979 -27.947 -4.131 -17.538 8.166 -31.13 13.439 -51.902 25.22 c -392.59 222.74 -834.42 -44.36 -834.42 -460.59 m 978.15 -186.39 c 35.912 -102.79 -169.59 -211.81 -171.68 -108.45 c 0 80.56 140.73 168.35 171.68 108.45 z"/>
   <path d="m 410 715.98 c -19 -5 -55 -6 -80 -3 -69 8 -86 -12 -100 -117 -15.633 -110.83 -26.865 -189.88 -43 -289 l 55 0 c 37 0 60 5 68 15 7 8 21 73 31 143 22 145 25 156 45 177 22 21 42 19 68 -10 20 -21 22 -32 19 -87 -6.442 -82.908 -17.881 -155.96 -30 -238 l 57 0 c 71 0 73 3 100 173 27 170 57 210.55 110 153.55 18 -19 21 -32.545 19 -90.55 -2.416 -67.29 -19.217 -166.81 -29 -237 l 57 3 c 69 4 76 13 94 138 25 167 13 221 -55 254 -47 23 -127 24 -183 1 -37 -15 -44 -15 -65 -2 -31 19 -95 27 -138 16 z"/>
  </g>
 </g>
</svg>
