<svg viewBox="0 0 48 48" xmlns="http://www.w3.org/2000/svg" xmlns:xlink="http://www.w3.org/1999/xlink">
  <linearGradient id="a" gradientTransform="matrix(0 -1 1 0 -.0000015 47.999998)" gradientUnits="userSpaceOnUse" x1="1" x2="47">
    <stop offset="0" stop-color="#cf3d1b"/>
    <stop offset="1" stop-color="#e1421d"/>
  </linearGradient>
  <path d="m47 24c0 22.703-.297 23-23 23-22.703 0-23-.297-23-23 0-22.703.297-23 23-23 22.703 0 23 .297 23 23z" fill="url(#a)"/>
  <path d="m15 13l-2 24h4l1-19 5 18h2 2l5-18 1 19h4l-2-24h-4.5l-5.5 18-5.5-18z" fill-opacity=".098"/>
  <path d="m12 36h4l1-19 5 18h2v-5l-5.5-18h-4.5z" fill="#f9f9f9"/>
  <path d="m36 36h-4l-1-19-5 18h-2v-5l5.5-18h4.5z" fill="#f9f9f9"/>
</svg>
