<svg viewBox="0 0 48 48" xmlns="http://www.w3.org/2000/svg" xmlns:xlink="http://www.w3.org/1999/xlink">
  <linearGradient id="a" gradientUnits="userSpaceOnUse" x1="1" x2="47">
    <stop offset="0" stop-color="#ff822d"/>
    <stop offset="1" stop-color="#ff8e41"/>
  </linearGradient>
  <path d="m24 1c22.703 0 23 .297 23 23 0 22.703-.297 23-23 23-22.703 0-23-.297-23-23 0-22.703.297-23 23-23z" fill="url(#a)" transform="matrix(0 -1 1 0 0 48)"/>
  <g fill="#f9f9f9" transform="matrix(.0294591 0 0 -.02946159 9 39.014731)">
    <g fill="#000" fill-opacity=".098" transform="translate(33.945368 -33.942496)">
      <path d="m0 477.65c0-460.18 579.29-615.94 941.22-341.31 146.38 111.07 58.35 244.08-48.908 201.4-48.908-20.656-88.51-55.1-130.75-129.1-154.4-270.45-659.73-150.72-659.73 234.9 0 420.68 236.96 526.94 524.97 527.38 119.99.182 176.72-51.34 251.86-67.54-3.652-10.559-3.853-23.806-7.311-51.29l-4.991-32.02-52.9 5.164c-85.84 9.295-86.84-39.25-.998-52.674l42.919-7.23-3.992-44.41c-8.983-75.4 37.928-75.4 51.902 0 5.989 36.15 6.987 36.15 43.917 29.952 26.949-4.131 40.923-2.066 49.906 9.295 17.966 22.722 5.989 36.15-39.925 43.38l-38.927 7.23 5.989 49.575c4.991 41.31 3.992 51.641-9.981 56.805-9.981 4.131-21.431.979-27.947-4.131-17.538 8.166-31.13 13.439-51.902 25.22-392.59 222.74-834.42-44.36-834.42-460.59m978.15-186.39c35.912-102.79-169.59-211.81-171.68-108.45 0 80.56 140.73 168.35 171.68 108.45z"/>
      <path d="m410 715.98c-19-5-55-6-80-3-69 8-86-12-100-117-15.633-110.83-26.865-189.88-43-289h55c37 0 60 5 68 15 7 8 21 73 31 143 22 145 25 156 45 177 22 21 42 19 68-10 20-21 22-32 19-87-6.442-82.908-17.881-155.96-30-238h57c71 0 73 3 100 173 27 170 57 210.55 110 153.55 18-19 21-32.545 19-90.55-2.416-67.29-19.217-166.81-29-237l57 3c69 4 76 13 94 138 25 167 13 221-55 254-47 23-127 24-183 1-37-15-44-15-65-2-31 19-95 27-138 16z"/>
    </g>
    <path d="m0 477.65c0-460.18 579.29-615.94 941.22-341.31 146.38 111.07 58.35 244.08-48.908 201.4-48.908-20.656-88.51-55.1-130.75-129.1-154.4-270.45-659.73-150.72-659.73 234.9 0 420.68 236.96 526.94 524.97 527.38 119.99.182 176.72-51.34 251.86-67.54-3.652-10.559-3.853-23.806-7.311-51.29l-4.991-32.02-52.9 5.164c-85.84 9.295-86.84-39.25-.998-52.674l42.919-7.23-3.992-44.41c-8.983-75.4 37.928-75.4 51.902 0 5.989 36.15 6.987 36.15 43.917 29.952 26.949-4.131 40.923-2.066 49.906 9.295 17.966 22.722 5.989 36.15-39.925 43.38l-38.927 7.23 5.989 49.575c4.991 41.31 3.992 51.641-9.981 56.805-9.981 4.131-21.431.979-27.947-4.131-17.538 8.166-31.13 13.439-51.902 25.22-392.59 222.74-834.42-44.36-834.42-460.59m978.15-186.39c35.912-102.79-169.59-211.81-171.68-108.45 0 80.56 140.73 168.35 171.68 108.45z"/>
    <path d="m410 715.98c-19-5-55-6-80-3-69 8-86-12-100-117-15.633-110.83-26.865-189.88-43-289h55c37 0 60 5 68 15 7 8 21 73 31 143 22 145 25 156 45 177 22 21 42 19 68-10 20-21 22-32 19-87-6.442-82.908-17.881-155.96-30-238h57c71 0 73 3 100 173 27 170 57 210.55 110 153.55 18-19 21-32.545 19-90.55-2.416-67.29-19.217-166.81-29-237l57 3c69 4 76 13 94 138 25 167 13 221-55 254-47 23-127 24-183 1-37-15-44-15-65-2-31 19-95 27-138 16z"/>
  </g>
</svg>
