<svg xmlns="http://www.w3.org/2000/svg" viewBox="0 0 48 48">
 <defs>
  <linearGradient id="linearGradient3764" x1="1" x2="47" gradientUnits="userSpaceOnUse" gradientTransform="matrix(0,-1,1,0,-1.5e-6,47.999998)">
   <stop style="stop-color:#cf3d1b;stop-opacity:1"/>
   <stop offset="1" style="stop-color:#e1421d;stop-opacity:1"/>
  </linearGradient>
 </defs>
 <g>
  
  
  
 </g>
 <g>
  <path d="m 47,24 C 47,46.703 46.703,47 24,47 1.297,47 1,46.703 1,24 1,1.297 1.297,1 24,1 46.703,1 47,1.297 47,24 z" style="fill:url(#linearGradient3764);fill-opacity:1"/>
 </g>
 <g>
  
 </g>
 <path d="m 15,13 -2,24 4,0 1,-19 5,18 2,0 2,0 5,-18 1,19 4,0 L 35,13 30.5,13 25,31 19.5,13 15,13 z" style="fill:#000;fill-opacity:0.098;stroke:none"/>
 <path d="m 12 36 4 0 1 -19 5 18 2 0 0 -5 -5.5 -18 -4.5 0 z" style="fill:#f9f9f9;fill-opacity:1;stroke:none"/>
 <path d="m 36 36 -4 0 -1 -19 -5 18 -2 0 0 -5 5.5 -18 4.5 0 z" style="fill:#f9f9f9;fill-opacity:1;stroke:none"/>
</svg>
