<svg viewBox="0 0 48 48" xmlns="http://www.w3.org/2000/svg" xmlns:xlink="http://www.w3.org/1999/xlink">
  <linearGradient id="a" gradientTransform="matrix(0 -1 1 0 -.0000015 47.999998)" gradientUnits="userSpaceOnUse" x1="1" x2="47">
    <stop offset="0" stop-color="#f0db4f"/>
    <stop offset="1" stop-color="#f2df62"/>
  </linearGradient>
  <path d="m47 24c0 22.703-.297 23-23 23-22.703 0-23-.297-23-23 0-22.703.297-23 23-23 22.703 0 23 .297 23 23z" fill="url(#a)"/>
  <path d="m15.746 15l-2.742 2.91 6.172 5.09-6.172 5.094 2.742 2.906 9.258-8zm9.254 16v4h12v-4z" opacity=".1" transform=""/>
  <path d="m14.746 14l-2.742 2.91 6.172 5.09-6.172 5.094 2.742 2.906 9.258-8zm9.254 16v4h12v-4z" fill="#525252"/>
</svg>
