<svg height="48" pointer-events="none" viewBox="0 0 424.61538 424.61538" width="48" xmlns="http://www.w3.org/2000/svg" xmlns:xlink="http://www.w3.org/1999/xlink">
  <linearGradient id="a" gradientTransform="matrix(0 -1 1 0 288.76181 73.083705)" gradientUnits="userSpaceOnUse" x1="1" x2="47">
    <stop offset="0" stop-color="#97b2d3"/>
    <stop offset="1" stop-color="#a5bcd9"/>
  </linearGradient>
  <path d="m24 1c22.703 0 23 .297 23 23 0 22.703-.297 23-23 23-22.703 0-23-.297-23-23 0-22.703.297-23 23-23z" fill="url(#a)" stroke-linejoin="bevel" transform="scale(8.8461537)"/>
  <path d="m168.09 163.63h35.38l-17.695 30.962m17.7-92.88h35.38l-17.695 30.962m17.69 30.958h35.38l-17.695 30.961m17.69 30.959h35.38l-17.695 30.962m17.69 30.958h35.38l-17.695 30.962m-88.46-30.952h35.38l-17.695 30.962m-88.46-30.952h35.38l-17.695 30.962m-88.46-30.952h35.38l-17.695 30.962m17.7-92.88h35.38l-17.695 30.962m35.395-123.84l70.77-.006-35.39 61.923m35.38 61.917l70.77-.006-35.39 61.923m-176.92-61.905l70.77-.006-35.39 61.923m.011-123.84l141.54-.012-70.78 123.85m.021-247.68l-141.56 247.69 283.08-.025" opacity=".1" stroke-linejoin="bevel"/>
  <path d="m159.24 154.78h35.38l-17.695 30.962m17.7-92.88h35.38l-17.695 30.962m17.69 30.958h35.38l-17.695 30.961m17.69 30.959h35.38l-17.695 30.962m17.69 30.958h35.38l-17.695 30.962m-88.46-30.952h35.38l-17.695 30.962m-88.46-30.952h35.38l-17.695 30.962m-88.46-30.952h35.38l-17.695 30.962m17.7-92.88h35.38l-17.695 30.962m35.395-123.84l70.77-.006-35.39 61.923m35.38 61.917l70.77-.006-35.39 61.923m-176.92-61.905l70.77-.006-35.39 61.923m.011-123.84l141.54-.012-70.78 123.85m.021-247.68l-141.56 247.69 283.08-.025" fill="#eee" stroke-linejoin="bevel"/>
</svg>
