<svg xmlns="http://www.w3.org/2000/svg" viewBox="0 0 48 48">
 <defs>
  <linearGradient id="linearGradient3764" x1="1" x2="47" gradientUnits="userSpaceOnUse" gradientTransform="matrix(0,-1,1,0,-1.5e-6,47.999998)">
   <stop style="stop-color:#b94f33;stop-opacity:1"/>
   <stop offset="1" style="stop-color:#c85637;stop-opacity:1"/>
  </linearGradient>
 </defs>
 <g>
  
  
  
 </g>
 <g>
  <path d="m 47,24 C 47,46.703 46.703,47 24,47 1.297,47 1,46.703 1,24 1,1.297 1.297,1 24,1 46.703,1 47,1.297 47,24 z" style="fill:url(#linearGradient3764);fill-opacity:1"/>
 </g>
 <g>
  
 </g>
 <g transform="matrix(3.543307,0,0,3.543307,1,2.0000001)" style="fill:#000;opacity:0.1;fill-opacity:1">
  <path d="m 14 16 c -0.5 0 -1 0.498 -1 0.998 l -0.002 0 c 0 5.669 0 11.337 0 17.01 l 23.998 0 0 -14.932 c 0 -0.531 -0.5 -1.066 -1 -1.066 l -0.996 0 c -2.987 -0.016 -6 -0.008 -9 -0.008 l -1 -1.998 z" transform="matrix(0.28222223,0,0,0.28222223,-0.28222223,-0.56444449)" style="stroke:none"/>
 </g>
 <g>
  <path d="m 12 16 0 14 23 0 0 -7 -1 -6 -9 0 -1 -2 -11 0 c -0.5 0 -1 0.5 -1 1 z" style="fill:#ff8f00;fill-opacity:1;stroke:none"/>
  <rect y="18" x="14" height="4" width="11" style="fill:#fffdf0;fill-opacity:1;stroke:none"/>
  <path d="m 36 18.07 0 14.933 -24 0 0 -14 12 0 1 -2 10 0 c 0.5 0 1 0.533 1 1.067 z" style="fill:#ffca28;fill-opacity:1;stroke:none"/>
  <path d="m 18 20 0 2.219 c -0.596 0.26 -1 0.727 -1 1.281 0 0.554 0.404 1.021 1 1.281 l 0 7.219 2 0 0 -7.219 c 0.596 -0.26 1 -0.727 1 -1.281 0 -0.554 -0.404 -1.021 -1 -1.281 l 0 -2.219 -2 0 m 5 0 0 7.219 c -0.596 0.26 -1 0.727 -1 1.281 0 0.554 0.404 1.021 1 1.281 l 0 2.219 2 0 0 -2.219 c 0.596 -0.26 1 -0.727 1 -1.281 0 -0.554 -0.404 -1.021 -1 -1.281 l 0 -7.219 -2 0 m 5 0 0 2.219 c -0.596 0.26 -1 0.727 -1 1.281 0 0.554 0.404 1.021 1 1.281 l 0 7.219 2 0 0 -7.219 c 0.596 -0.26 1 -0.727 1 -1.281 0 -0.554 -0.404 -1.021 -1 -1.281 l 0 -2.219 -2 0" style="fill:#403018;opacity:0.4;fill-opacity:1;stroke:none;fill-rule:evenodd"/>
 </g>
</svg>
