<svg xmlns="http://www.w3.org/2000/svg" viewBox="0 0 48 48">
 <defs>
  <linearGradient id="linearGradient3764" x1="1" x2="47" gradientUnits="userSpaceOnUse" gradientTransform="matrix(0,-1,1,0,-1.5e-6,47.999998)">
   <stop style="stop-color:#343a44;stop-opacity:1"/>
   <stop offset="1" style="stop-color:#3c4350;stop-opacity:1"/>
  </linearGradient>
 </defs>
 <g>
  
  
  
 </g>
 <g>
  <path d="m 47,24 C 47,46.703 46.703,47 24,47 1.297,47 1,46.703 1,24 1,1.297 1.297,1 24,1 46.703,1 47,1.297 47,24 z" style="fill:url(#linearGradient3764);fill-opacity:1"/>
 </g>
 <g>
  
 </g>
 <path d="m 35 18 0 14 2 0 0 -14 -2 0 z m -22 5 a 2 2 0 0 0 -2 2 2 2 0 0 0 2 2 2 2 0 0 0 2 -2 2 2 0 0 0 -2 -2 z m 8 0 a 2 2 0 0 0 -2 2 2 2 0 0 0 2 2 2 2 0 0 0 2 -2 2 2 0 0 0 -2 -2 z m 8 0 a 2 2 0 0 0 -2 2 2 2 0 0 0 2 2 2 2 0 0 0 2 -2 2 2 0 0 0 -2 -2 z" style="fill:#000;opacity:0.1;fill-opacity:1;stroke:none"/>
 <circle cx="12" cy="24" r="2" style="fill:#f9f9f9;opacity:1;fill-opacity:1;stroke:none"/>
 <circle r="2" cy="24" cx="20" style="fill:#f9f9f9;opacity:1;fill-opacity:1;stroke:none"/>
 <circle cx="28" cy="24" r="2" style="fill:#f9f9f9;opacity:1;fill-opacity:1;stroke:none"/>
 <rect width="2" height="14" x="34" y="17" style="fill:#5579eb;opacity:1;fill-opacity:1;stroke:none"/>
</svg>
