<svg viewBox="0 0 48 48" xmlns="http://www.w3.org/2000/svg" xmlns:xlink="http://www.w3.org/1999/xlink">
  <linearGradient id="a" gradientTransform="matrix(0 -1 1 0 -.0000015 47.999998)" gradientUnits="userSpaceOnUse" x1="1" x2="47">
    <stop offset="0" stop-color="#343a44"/>
    <stop offset="1" stop-color="#3c4350"/>
  </linearGradient>
  <path d="m47 24c0 22.703-.297 23-23 23-22.703 0-23-.297-23-23 0-22.703.297-23 23-23 22.703 0 23 .297 23 23z" fill="url(#a)"/>
  <path d="m35 18v14h2v-14zm-22 5a2 2 0 0 0-2 2 2 2 0 0 0  2 2 2 2 0 0 0  2-2 2 2 0 0 0-2-2zm8 0a2 2 0 0 0-2 2 2 2 0 0 0  2 2 2 2 0 0 0  2-2 2 2 0 0 0-2-2zm8 0a2 2 0 0 0-2 2 2 2 0 0 0  2 2 2 2 0 0 0  2-2 2 2 0 0 0-2-2z" opacity=".1"/>
  <circle cx="12" cy="24" fill="#f9f9f9" r="2"/>
  <circle cx="20" cy="24" fill="#f9f9f9" r="2"/>
  <circle cx="28" cy="24" fill="#f9f9f9" r="2"/>
  <path d="m34 17h2v14h-2z" fill="#5579eb"/>
</svg>
