<svg viewBox="0 0 48 48" xmlns="http://www.w3.org/2000/svg" xmlns:xlink="http://www.w3.org/1999/xlink">
  <linearGradient id="a" gradientTransform="matrix(0 -1 1 0 -.0000015 47.999998)" gradientUnits="userSpaceOnUse" x1="1" x2="47">
    <stop offset="0" stop-color="#343a44"/>
    <stop offset="1" stop-color="#3c4350"/>
  </linearGradient>
  <path d="m47 24c0 22.703-.297 23-23 23-22.703 0-23-.297-23-23 0-22.703.297-23 23-23 22.703 0 23 .297 23 23z" fill="url(#a)"/>
  <g opacity=".1" transform="translate(1 1)">
    <path d="m11 25.02v-2l4.996-3v1l-4.5 3 4.5 3v .996m-4.996-3"/>
    <path d="m17 24c-.004.551-.449.992-1 .992-.551 0-.996-.449-.996-1 0-.551.445-.996.996-1 .551 0 .996.445 1 .996" fill-opacity=".706"/>
    <path d="m32 25v-2l5-3v1l-4 3 4 3v1m-6 0v-1l4-3-4-3v-1l5 3v2m-5 3"/>
    <path d="m20.03 29c-.18-.391-.332-.773-.461-1.16-.129-.387-.238-.781-.324-1.184-.082-.402-.145-.824-.188-1.262-.039-.438-.066-.906-.066-1.402 0-.5.023-.965.066-1.398.043-.438.102-.859.188-1.258.086-.406.195-.801.324-1.18.129-.387.281-.773.461-1.16h.969c-.184.402-.34.805-.473 1.199-.133.395-.242.797-.328 1.203-.082.402-.141.82-.184 1.25-.039.426-.066.875-.066 1.348 0 .473.023.926.066 1.355.043.426.102.84.184 1.246.086.406.195.805.328 1.195.133.395.289.797.473 1.207m-.969 0"/>
    <path d="m24.03 29c-.176-.391-.332-.773-.461-1.16-.129-.387-.238-.781-.324-1.184-.082-.402-.145-.824-.188-1.262-.039-.438-.066-.906-.066-1.402 0-.5.023-.965.066-1.398.043-.438.102-.859.188-1.258.086-.406.195-.801.324-1.18.129-.387.285-.773.461-1.16h.969c-.184.402-.34.805-.473 1.199-.133.395-.242.797-.328 1.203-.082.402-.141.82-.184 1.25-.039.426-.066.875-.066 1.348 0 .473.023.926.066 1.355.043.426.102.84.184 1.246.086.406.195.805.328 1.195.133.395.289.797.473 1.207m-.969 0"/>
    <path d="m28.03 29c-.176-.391-.332-.773-.461-1.16-.129-.387-.238-.781-.32-1.184-.086-.402-.148-.824-.188-1.262-.043-.438-.066-.906-.066-1.402 0-.5.023-.965.066-1.398.039-.438.102-.859.188-1.258.082-.406.191-.801.32-1.18.129-.387.285-.773.461-1.16h.973c-.188.402-.344.805-.477 1.199-.133.395-.242.797-.324 1.203-.086.402-.145.82-.188 1.25-.039.426-.066.875-.066 1.348 0 .473.023.926.066 1.355.043.426.102.84.188 1.246.082.406.191.805.324 1.195.133.395.289.797.477 1.207m-.973 0"/>
  </g>
  <path d="m11 25.02v-2l4.996-3v1l-4.5 3 4.5 3v .996m-4.996-3" fill="#70c1ff"/>
  <path d="m17 24c-.004.551-.449.992-1 .992-.551 0-.996-.449-.996-1 0-.551.445-.996.996-1 .551 0 .996.445 1 .996" fill="#5bff49" fill-opacity=".706"/>
  <path d="m32 25v-2l5-3v1l-4 3 4 3v1m-6 0v-1l4-3-4-3v-1l5 3v2m-5 3" fill="#70c1ff"/>
  <path d="m20.03 29c-.18-.391-.332-.773-.461-1.16-.129-.387-.238-.781-.324-1.184-.082-.402-.145-.824-.188-1.262-.039-.438-.066-.906-.066-1.402 0-.5.023-.965.066-1.398.043-.438.102-.859.188-1.258.086-.406.195-.801.324-1.18.129-.387.281-.773.461-1.16h.969c-.184.402-.34.805-.473 1.199-.133.395-.242.797-.328 1.203-.082.402-.141.82-.184 1.25-.039.426-.066.875-.066 1.348 0 .473.023.926.066 1.355.043.426.102.84.184 1.246.086.406.195.805.328 1.195.133.395.289.797.473 1.207m-.969 0" fill="#70c1ff"/>
  <path d="m24.03 29c-.176-.391-.332-.773-.461-1.16-.129-.387-.238-.781-.324-1.184-.082-.402-.145-.824-.188-1.262-.039-.438-.066-.906-.066-1.402 0-.5.023-.965.066-1.398.043-.438.102-.859.188-1.258.086-.406.195-.801.324-1.18.129-.387.285-.773.461-1.16h.969c-.184.402-.34.805-.473 1.199-.133.395-.242.797-.328 1.203-.082.402-.141.82-.184 1.25-.039.426-.066.875-.066 1.348 0 .473.023.926.066 1.355.043.426.102.84.184 1.246.086.406.195.805.328 1.195.133.395.289.797.473 1.207m-.969 0" fill="#70c1ff"/>
  <path d="m28.03 29c-.176-.391-.332-.773-.461-1.16-.129-.387-.238-.781-.32-1.184-.086-.402-.148-.824-.188-1.262-.043-.438-.066-.906-.066-1.402 0-.5.023-.965.066-1.398.039-.438.102-.859.188-1.258.082-.406.191-.801.32-1.18.129-.387.285-.773.461-1.16h.973c-.188.402-.344.805-.477 1.199-.133.395-.242.797-.324 1.203-.086.402-.145.82-.188 1.25-.039.426-.066.875-.066 1.348 0 .473.023.926.066 1.355.043.426.102.84.188 1.246.082.406.191.805.324 1.195.133.395.289.797.477 1.207m-.973 0" fill="#70c1ff"/>
</svg>
