<svg viewBox="0 0 48 48" xmlns="http://www.w3.org/2000/svg" xmlns:xlink="http://www.w3.org/1999/xlink">
  <linearGradient id="a" gradientTransform="matrix(0 -1 1 0 -.0000015 47.999998)" gradientUnits="userSpaceOnUse" x1="1" x2="47">
    <stop offset="0" stop-color="#1e81de"/>
    <stop offset="1" stop-color="#2c8ce3"/>
  </linearGradient>
  <path d="m47 24c0 22.703-.297 23-23 23-22.703 0-23-.297-23-23 0-22.703.297-23 23-23 22.703 0 23 .297 23 23z" fill="url(#a)"/>
  <g opacity=".1" transform="translate(1 1)">
    <path d="m15.531 14h-3.535v19.996h6v-13.996h12v13.996h6v-16.469c0-1.961-1.57-3.531-3.531-3.531m-16.934.004"/>
    <path d="m20 23h8v8h-8m0-8"/>
  </g>
  <path d="m15.531 14h-3.535v19.996h6v-13.996h12v13.996h6v-16.469c0-1.961-1.57-3.531-3.531-3.531m-16.934.004" fill="#f9f9f9"/>
  <path d="m20 23h8v8h-8m0-8" fill="#f9f9f9"/>
</svg>
