<svg viewBox="0 0 48 48" xmlns="http://www.w3.org/2000/svg" xmlns:xlink="http://www.w3.org/1999/xlink">
  <linearGradient id="a" gradientUnits="userSpaceOnUse" x2="0" y1="1" y2="47">
    <stop offset="0" stop-color="#a0bfcc"/>
    <stop offset="1" stop-color="#93b6c5"/>
  </linearGradient>
  <path d="m24 1c22.703 0 23 .297 23 23 0 22.703-.297 23-23 23-22.703 0-23-.297-23-23 0-22.703.297-23 23-23z" fill="url(#a)"/>
  <path d="m35.16 12c-.123 0-.25.005-.375.031l-21.813 4.688c-.997.213-1.633 1.222-1.406 2.281l.031.094.406 1.906 25.438-5.438-.406-1.906-.031-.094c-.198-.927-.984-1.56-1.844-1.563zm-23.16 9v15.03c0 1.083.824 1.969 1.844 1.969h22.313c1.019 0 1.844-.886 1.844-1.969v-15.03h-26z" fill-opacity=".118"/>
  <path d="m15 20l-3 4h-1v11.03c0 1.083.824 1.969 1.844 1.969h22.313c1.019 0 1.844-.886 1.844-1.969v-11.03h-4l3-4h-3l-3 4h-3l3-4h-3l-3 4h-3l3-4h-3l-3 4h-3l3-4h-3z" fill="#333"/>
  <path d="m18 20h3l-3 4h-3z" fill="#ccc"/>
  <path d="m24 20h3l-3 4h-3z" fill="#ccc"/>
  <path d="m30 20h3l-3 4h-3z" fill="#ccc"/>
  <path d="m11 20v4h1l3-4z" fill="#ccc"/>
  <path d="m36 20l-3 4h4v-4z" fill="#ccc"/>
  <path d="m16 27h2l2.5 4 2.5-4h2v9h-2v-5.5l-2.5 4-2.5-4v5.5h-2z" fill-opacity=".118"/>
  <path d="m15 26h2l2.5 4 2.5-4h2v9h-2v-5.5l-2.5 4-2.5-4v5.5h-2z" fill="#7d8bc7"/>
  <path d="m28 27l2 6 2-6h2l-3 9h-2l-3-9" fill-opacity=".118"/>
  <path d="m27 26l2 6 2-6h2l-3 9h-2l-3-9" fill="#9e6b3e"/>
  <path d="m12.135 16.15c-.661.296-1.135 1-1.135 1.817v.063 1.969h4z" fill="#ccc" transform="matrix(.97792935 -.2089359 .2089359 .97792935 -3.9320899 2.7397079)"/>
  <path d="m30 20h3l-3-4h-3z" fill="#ccc" transform="matrix(.97792935 -.2089359 .2089359 .97792935 -3.9320899 2.7397079)"/>
  <path d="m24 20h3l-3-4h-3z" fill="#ccc" transform="matrix(.97792935 -.2089359 .2089359 .97792935 -3.9320899 2.7397079)"/>
  <path d="m18 20h3l-3-4h-3z" fill="#ccc" transform="matrix(.97792935 -.2089359 .2089359 .97792935 -3.9320899 2.7397079)"/>
  <path d="m33 16l3 4h1v-1.969-.063c0-1.083-.824-1.969-1.844-1.969h-2.156z" fill="#ccc" transform="matrix(.97792935 -.2089359 .2089359 .97792935 -3.9320899 2.7397079)"/>
  <path d="m31.687 11.5l-2.938.625 3.781 3.281 2.906-.625zm-5.875 1.25l-2.938.625 3.781 3.281 2.938-.625zm-5.875 1.25l-2.938.625 3.781 3.281 2.938-.625zm-5.844 1.25l-2.125.469c-.249.053-.464.139-.658.281l3.596 3.156 2.937-.625z" fill="#333"/>
</svg>
