<svg viewBox="0 0 48 48" xmlns="http://www.w3.org/2000/svg" xmlns:xlink="http://www.w3.org/1999/xlink">
  <linearGradient id="a" gradientTransform="matrix(0 -1 1 0 -.0000015 47.999998)" gradientUnits="userSpaceOnUse" x1="1" x2="47">
    <stop offset="0" stop-color="#ecc85c"/>
    <stop offset="1" stop-color="#eecf6d"/>
  </linearGradient>
  <path d="m47 24c0 22.703-.297 23-23 23-22.703 0-23-.297-23-23 0-22.703.297-23 23-23 22.703 0 23 .297 23 23z" fill="url(#a)"/>
  <path d="m23.02 13c-5.746.223-4.781 2.855-8.02 4.957 3.227.098 3.898-2.066 6.01-1.984v4.865c-2.966 1.308-5.01 4.02-5.01 7.162 0 4.418 4.03 8 9 8 4.97 0 9-3.582 9-8 0-4.418-4.03-8-9-8-.683 0-1.345.073-1.984.201z" opacity=".1" transform=""/>
  <path d="m33 27c0 4.418-4.03 8-9 8-4.973 0-9-3.582-9-8 0-4.418 4.03-8 9-8 4.969 0 9 3.582 9 8m0 0" fill="#f9f9f9"/>
  <path d="m22.02 12c-5.746.223-4.781 2.855-8.02 4.957 3.227.098 3.898-2.066 6.01-1.984v14.875c3.199.309 10.805.648 9.918-4.695-.688-4.098-7.914-1.254-7.914-1.254m3.461.785c.883 0 1.633.199 1.77 1.113.414 2.762-5.227 2.07-5.227 2.07v-1.984c0 0 1.992-1.211 3.457-1.199m0 0" fill="#457cbe" fill-rule="evenodd"/>
</svg>
