<svg xmlns="http://www.w3.org/2000/svg" viewBox="0 0 48 48">
 <defs>
  <linearGradient id="linearGradient3022" y1="1" x2="0" y2="47" gradientUnits="userSpaceOnUse">
   <stop style="stop-color:#a0bfcc;stop-opacity:1"/>
   <stop offset="1" style="stop-color:#93b6c5;stop-opacity:1"/>
  </linearGradient>
 </defs>
 <g>
  
  
  
 </g>
 <g style="fill:#4d4d4d">
  <path d="m 24 1 c 22.703 0 23 0.297 23 23 c 0 22.703 -0.297 23 -23 23 -22.703 0 -23 -0.297 -23 -23 0 -22.703 0.297 -23 23 -23 z" style="fill:url(#linearGradient3022);fill-opacity:1"/>
 </g>
 <g>
  <path d="m 35.16 12 c -0.123 0 -0.25 0.005 -0.375 0.031 l -21.813 4.688 c -0.997 0.213 -1.633 1.222 -1.406 2.281 l 0.031 0.094 l 0.406 1.906 l 25.438 -5.438 l -0.406 -1.906 l -0.031 -0.094 c -0.198 -0.927 -0.984 -1.56 -1.844 -1.563 z m -23.16 9 l 0 15.03 c 0 1.083 0.824 1.969 1.844 1.969 l 22.313 0 c 1.019 0 1.844 -0.886 1.844 -1.969 l 0 -15.03 l -26 0 z" style="fill:#000;fill-opacity:0.118;stroke:none;fill-rule:nonzero"/>
 </g>
 <g>
  
 </g>
 <g>
  <g>
   <path d="m 15 20 -3 4 -1 0 0 11.03 c 0 1.083 0.824 1.969 1.844 1.969 l 22.313 0 c 1.019 0 1.844 -0.886 1.844 -1.969 l 0 -11.03 l -4 0 3 -4 -3 0 -3 4 -3 0 3 -4 -3 0 -3 4 -3 0 3 -4 -3 0 -3 4 -3 0 3 -4 -3 0 z" style="fill:#333;fill-opacity:1;stroke:none;fill-rule:nonzero"/>
   <path d="m 18 20 3 0 -3 4 -3 0 z" style="fill:#ccc;fill-opacity:1;stroke:none;fill-rule:nonzero"/>
   <path d="m 24 20 3 0 -3 4 -3 0 z" style="fill:#ccc;fill-opacity:1;stroke:none;fill-rule:nonzero"/>
   <path d="m 30 20 3 0 -3 4 -3 0 z" style="fill:#ccc;fill-opacity:1;stroke:none;fill-rule:nonzero"/>
   <path d="m 11 20 0 4 1 0 3 -4 -4 0 z" style="fill:#ccc;fill-opacity:1;stroke:none;fill-rule:nonzero"/>
   <path d="m 36 20 -3 4 4 0 0 -4 z" style="fill:#ccc;fill-opacity:1;stroke:none;fill-rule:nonzero"/>
   <path d="m 16 27 2 0 2.5 4 2.5 -4 2 0 0 9 -2 0 0 -5.5 -2.5 4 -2.5 -4 0 5.5 -2 0 0 -9" style="fill:#000;fill-opacity:0.118;stroke:none"/>
   <path d="m 15 26 2 0 2.5 4 2.5 -4 2 0 0 9 -2 0 0 -5.5 -2.5 4 -2.5 -4 0 5.5 -2 0 0 -9" style="fill:#7d8bc7;fill-opacity:1;stroke:none"/>
   <path d="m 28 27 2 6 2 -6 2 0 -3 9 -2 0 -3 -9" style="fill:#000;fill-opacity:0.118;stroke:none"/>
   <path d="m 27 26 2 6 2 -6 2 0 -3 9 -2 0 -3 -9" style="fill:#9e6b3e;fill-opacity:1;stroke:none"/>
   <path transform="matrix(0.97792935,-0.2089359,0.2089359,0.97792935,-3.9320899,2.7397079)" d="m 12.135 16.15 c -0.661 0.296 -1.135 1 -1.135 1.817 l 0 0.063 0 1.969 4 0 z" style="fill:#ccc;fill-opacity:1;stroke:none;fill-rule:nonzero"/>
   <path transform="matrix(0.97792935,-0.2089359,0.2089359,0.97792935,-3.9320899,2.7397079)" d="m 30 20 3 0 -3 -4 -3 0 z" style="fill:#ccc;fill-opacity:1;stroke:none;fill-rule:nonzero"/>
   <path transform="matrix(0.97792935,-0.2089359,0.2089359,0.97792935,-3.9320899,2.7397079)" d="m 24 20 3 0 -3 -4 -3 0 z" style="fill:#ccc;fill-opacity:1;stroke:none;fill-rule:nonzero"/>
   <path transform="matrix(0.97792935,-0.2089359,0.2089359,0.97792935,-3.9320899,2.7397079)" d="m 18 20 3 0 -3 -4 -3 0 z" style="fill:#ccc;fill-opacity:1;stroke:none;fill-rule:nonzero"/>
   <path transform="matrix(0.97792935,-0.2089359,0.2089359,0.97792935,-3.9320899,2.7397079)" d="m 33 16 3 4 1 0 0 -1.969 0 -0.063 c 0 -1.083 -0.824 -1.969 -1.844 -1.969 l -2.156 0 z" style="fill:#ccc;fill-opacity:1;stroke:none;fill-rule:nonzero"/>
   <path d="m 31.687 11.5 -2.938 0.625 3.781 3.281 2.906 -0.625 z m -5.875 1.25 -2.938 0.625 3.781 3.281 2.938 -0.625 z m -5.875 1.25 -2.938 0.625 3.781 3.281 2.938 -0.625 z m -5.844 1.25 -2.125 0.469 c -0.249 0.053 -0.464 0.139 -0.658 0.281 l 3.596 3.156 2.937 -0.625 z" style="fill:#333;fill-opacity:1;stroke:none;fill-rule:nonzero"/>
  </g>
 </g>
</svg>
