<svg viewBox="0 0 48 48" xmlns="http://www.w3.org/2000/svg" xmlns:xlink="http://www.w3.org/1999/xlink">
  <linearGradient id="a" gradientTransform="matrix(0 -1 1 0 -.0000015 47.999998)" gradientUnits="userSpaceOnUse" x1="1" x2="47">
    <stop offset="0" stop-color="#5d5a57"/>
    <stop offset="1" stop-color="#676460"/>
  </linearGradient>
  <path d="m47 24c0 22.703-.297 23-23 23-22.703 0-23-.297-23-23 0-22.703.297-23 23-23 22.703 0 23 .297 23 23z" fill="url(#a)"/>
  <path d="m36.25 13.01c-.436.046-.72.241-1.164.486-.445.246-.964.559-1.492.867-.528.309-1.065.613-1.527.838-.457.223-.86.351-.99.361-.621.007-1.111-.147-1.881-.332-.775-.186-1.795-.379-3.365-.379-2.432 0-4.86.835-6.699 2.438-1.839 1.602-3.07 3.988-3.07 6.977 0 1.38.394 2.705.986 3.943-1.798 1.207-3.333 2.363-4.336 3.258-.543.485-.957.898-1.242 1.242-.143.172-.253.324-.338.486-.085.162-.223.371-.057.719.09.187.263.292.387.334.124.042.222.046.316.045.189-.002.37-.034.588-.086.436-.105.999-.295 1.695-.561 1.316-.502 3.152-1.318 5.223-2.295 2.099 2.167 4.886 3.667 7.605 3.65 2.966-.018 5.104-.537 6.521-1.691 1.418-1.154 1.997-2.918 1.926-5.094-.036-1.101-.429-2.357-1.461-3.336-1.032-.979-2.667-1.649-5.066-1.693-1.74-.032-3.703.702-5.271 1.42-1.26.576-1.853.953-2.199 1.16-.19-.41-.428-1.041-.428-1.965 0-1.055.631-2.276 1.594-3.225.963-.948 2.235-1.603 3.352-1.656.5-.024 1.535.112 2.453.336.459.112.897.245 1.236.379.339.134.585.302.602.32.076.083.235.36.377.705.142.345.285.759.428 1.16.142.401.281.788.445 1.111.082.162.167.308.293.447.126.139.329.302.621.303.295 0 .52-.202.625-.357.105-.155.157-.305.207-.469.099-.328.166-.717.242-1.156.152-.878.332-1.937.658-2.713.325-.773 1.124-2 1.797-3.051.337-.524.642-1.01.855-1.404.107-.199.191-.375.248-.559.028-.092.053-.185.053-.314 0-.129-.038-.332-.201-.486l-.031-.029-.033-.023c-.198-.138-.368-.123-.48-.111zm-7.975 14.449c.822-.013 1.499.103 1.898.322.399.219.578.461.578 1.053 0 .524-.315.957-.84 1.301-.525.344-1.238.541-1.768.533-1.864-.028-3.129-.528-3.932-1.01-.408-.243-.386-.29-.563-.455.363-.198.61-.348 1.365-.697 1.149-.532 2.56-1.04 3.26-1.051z" fill-opacity=".098" fill-rule="evenodd"/>
  <path d="m35.31 12.551c-.732.076-4.03 2.49-5.212 2.559-1.441.021-2.213-.713-5.266-.713-4.612 0-9.224 3.186-9.224 8.867 0 1.436.415 2.84 1.101 4.13-3.984 2.617-6.324 4.899-6.141 5.282.185.385 3.349-.844 7.784-2.952 2.034 2.241 4.896 3.746 7.534 3.73 5.805-.036 8.04-2.071 7.905-6.22-.065-1.974-1.384-4.414-5.991-4.5-3.141-.058-7.712 2.781-7.712 2.781 0 0-.724-1.162-.724-2.714 0-2.524 2.865-5.303 5.468-5.427 1.232-.059 4.15.592 4.719 1.211.682.742 1.176 3.55 1.762 3.55.52 0 .499-2.624 1.229-4.36.73-1.736 3.216-4.887 2.879-5.207-.025-.017-.062-.022-.111-.017zm-8.04 13.359c1.743-.027 3.03.425 3.03 1.922 0 1.497-1.845 2.4-3.163 2.38-3.917-.058-5.468-2.118-5.468-2.118 0 0 3.779-2.156 5.599-2.184z" fill="#cdcdcd" fill-rule="evenodd"/>
  <path d="m35.31 12.551c-.732.076-4.03 2.49-5.212 2.559-1.441.021-2.213-.713-5.266-.713-4.612 0-9.224 3.186-9.224 8.867 0 1.436.415 2.84 1.101 4.13-3.984 2.617-6.324 4.899-6.141 5.282.185.385 3.349-.844 7.784-2.952 2.034 2.241 4.896 3.746 7.534 3.73 5.805-.036 8.04-2.071 7.905-6.22-.065-1.974-1.384-4.414-5.991-4.5-3.141-.058-7.712 2.781-7.712 2.781 0 0-.724-1.162-.724-2.714 0-2.524 2.865-5.303 5.468-5.427 1.232-.059 4.15.592 4.719 1.211.682.742 1.176 3.55 1.762 3.55.52 0 .499-2.624 1.229-4.36.73-1.736 3.216-4.887 2.879-5.207-.025-.017-.062-.022-.111-.017zm-8.04 13.359c1.743-.027 3.03.425 3.03 1.922 0 1.497-1.845 2.4-3.163 2.38-3.917-.058-5.468-2.118-5.468-2.118 0 0 3.779-2.156 5.599-2.184z" fill="none" stroke="#f0f064" stroke-width="1.094"/>
</svg>
