<svg viewBox="0 0 48 48" xmlns="http://www.w3.org/2000/svg" xmlns:xlink="http://www.w3.org/1999/xlink">
  <linearGradient id="a" gradientUnits="userSpaceOnUse" x2="0" y1="47" y2="1">
    <stop offset="0" stop-color="#d90110"/>
    <stop offset="1" stop-color="#ed0112"/>
  </linearGradient>
  <path d="m47 24c0 22.703-.297 23-23 23-22.703 0-23-.297-23-23 0-22.703.297-23 23-23 22.703 0 23 .297 23 23z" fill="url(#a)"/>
  <g opacity=".1" transform="translate(1 1)">
    <path d="m12 32v-16h4v16m-4 0"/>
    <path d="m32 32v-16h4v16m-4 0"/>
    <path d="m15 16h1l8 8 8-8h1v4l-8 7h-2l-8-7m0-4"/>
  </g>
  <path d="m12 32v-16h4v16m-4 0" fill="#f9f9f9"/>
  <path d="m32 32v-16h4v16m-4 0" fill="#f9f9f9"/>
  <path d="m15 16h1l8 8 8-8h1v4l-8 7h-2l-8-7m0-4" fill="#f9f9f9"/>
</svg>
