<svg viewBox="0 0 48 48" xmlns="http://www.w3.org/2000/svg" xmlns:xlink="http://www.w3.org/1999/xlink">
  <linearGradient id="a" gradientTransform="matrix(0 -1 1 0 -.0000015 47.999998)" gradientUnits="userSpaceOnUse" x1="1" x2="47">
    <stop offset="0" stop-color="#b12d42"/>
    <stop offset="1" stop-color="#c13148"/>
  </linearGradient>
  <path d="m47 24c0 22.703-.297 23-23 23-22.703 0-23-.297-23-23 0-22.703.297-23 23-23 22.703 0 23 .297 23 23z" fill="url(#a)"/>
  <path d="m19.5 17c-1.933 0-3.5 1.567-3.5 3.5v4.5c0 2-1.03 2-1.5 2-1.381 0-2.5 1.119-2.5 2.5 0 1.381 1.119 2.5 2.5 2.5 1.381 0 2.5-1.119 2.5-2.5 0-1.5-.723-1.5-.301-2.801.235-.724 1.301-1.699 2.801-1.699 1.5 0 3 1 3 2 0 1-.5 1-.5 2.5 0 1.381 1.343 2.5 3 2.5 1.657 0 3-1.119 3-2.5 0-1.5-.6-1.5-.6-2.5 0-1 1.6-2 3.1-2 1.5 0 2.594.966 2.801 1.699.445 1.577-.301 1.301-.301 2.801 0 1.381 1.119 2.5 2.5 2.5 1.381 0 2.5-1.119 2.5-2.5 0-1.381-1.119-2.5-2.5-2.5-.47 0-1.5 0-1.5-2v-4.5c0-1.933-1.567-3.5-3.5-3.5-3.5 0-3.115 2-5.5 2-2.385 0-2-2-5.5-2m5.5 3a3 3 0 0 1 3 3 3 3 0 0 1-3 3 3 3 0 0 1-3-3 3 3 0 0 1  3-3z" opacity=".1"/>
  <path d="m18.5 16c-1.933 0-3.5 1.567-3.5 3.5v4.5c0 2-1.03 2-1.5 2-1.381 0-2.5 1.119-2.5 2.5 0 1.381 1.119 2.5 2.5 2.5 1.381 0 2.5-1.119 2.5-2.5 0-1.5-.723-1.5-.301-2.801.235-.724 1.301-1.699 2.801-1.699 1.5 0 3 1 3 2 0 1-.5 1-.5 2.5 0 1.381 1.343 2.5 3 2.5 1.657 0 3-1.119 3-2.5 0-1.5-.6-1.5-.6-2.5 0-1 1.6-2 3.1-2 1.5 0 2.594.966 2.801 1.699.445 1.577-.301 1.301-.301 2.801 0 1.381 1.119 2.5 2.5 2.5 1.381 0 2.5-1.119 2.5-2.5 0-1.381-1.119-2.5-2.5-2.5-.47 0-1.5 0-1.5-2v-4.5c0-1.933-1.567-3.5-3.5-3.5-3.5 0-3.115 2-5.5 2-2.385 0-2-2-5.5-2m5.5 3a3 3 0 0 1 3 3 3 3 0 0 1-3 3 3 3 0 0 1-3-3 3 3 0 0 1  3-3z" fill="#f9f9f9"/>
</svg>
