<svg xmlns="http://www.w3.org/2000/svg" viewBox="0 0 48 48">
 <defs>
  <linearGradient id="linearGradient3764" x1="1" x2="47" gradientUnits="userSpaceOnUse" gradientTransform="matrix(0,-1,1,0,-1.5e-6,47.999998)">
   <stop style="stop-color:#3d3d3d;stop-opacity:1"/>
   <stop offset="1" style="stop-color:#474747;stop-opacity:1"/>
  </linearGradient>
 </defs>
 <g>
  
  
  
 </g>
 <g>
  <path d="m 47,24 C 47,46.703 46.703,47 24,47 1.297,47 1,46.703 1,24 1,1.297 1.297,1 24,1 46.703,1 47,1.297 47,24 z" style="fill:url(#linearGradient3764);fill-opacity:1"/>
 </g>
 <g>
  <g>
   <g transform="translate(1,1)">
    <g style="opacity:0.1">
     <!-- color: #474747 -->
     <g>
      <path d="m 15 13 c -0.844 0 -0.992 0.191 -1 1 l 0 22 c 0 0.809 0.156 1 1 1 l 19.996 0 c 0.844 0 1 -0.191 1 -1 l 0 -11.334 l 1.867 -1.873 c 0.121 -0.129 0.156 -0.32 0.129 -0.496 c 0 0 0.008 -0.102 -0.031 -0.199 c -0.039 -0.105 -0.129 -0.242 -0.223 -0.402 c -0.188 -0.316 -0.492 -0.742 -1.086 -1.332 c -0.258 -0.258 -0.462 -0.441 -0.656 -0.609 l 0 -1.754 c 0 -0.809 -0.156 -1 -1 -1 l -13 0 l 0 -3 c 0 -0.809 -0.156 -1 -0.996 -1 l -6 0 z" transform="translate(-1,-1)"/>
     </g>
    </g>
   </g>
  </g>
 </g>
 <g>
  <g>
   <!-- color: #474747 -->
   <g>
    <path d="m 14 12 c -0.844 0 -0.992 0.191 -1 1 0 7.496 0 15.488 0 22 0 0.809 0.156 1 1 1 l 19.996 0 c 0.844 0 1 -0.191 1 -1 l 0 -18 c 0 -0.809 -0.156 -1 -1 -1 l -13 0 0 -3 c 0 -0.809 -0.156 -1 -0.996 -1 m -6 0" style="fill:#f9f9f9;fill-opacity:1;stroke:none;fill-rule:nonzero"/>
    <path d="m 33.609,18 c -0.145,0.012 -0.316,0.066 -0.414,0.168 L 22.722,28.633 c -0.066,0.063 -0.094,0.148 -0.129,0.234 l -1.563,4.332 c -0.164,0.43 0.371,0.934 0.801,0.766 l 4.309,-1.531 c 0.082,-0.035 0.191,-0.07 0.254,-0.137 L 36.863,21.793 c 0.121,-0.129 0.156,-0.32 0.129,-0.496 0,0 0.008,-0.102 -0.031,-0.199 -0.039,-0.105 -0.129,-0.242 -0.223,-0.402 -0.188,-0.316 -0.492,-0.742 -1.086,-1.332 -0.613,-0.613 -1.023,-0.945 -1.34,-1.133 -0.16,-0.094 -0.309,-0.164 -0.414,-0.199 -0.105,-0.035 -0.254,-0.031 -0.254,-0.031 m -0.035,0" style="fill:#e5604c;fill-opacity:1;stroke:none;fill-rule:nonzero"/>
    <path d="m 14,14 1.996,1.996 2,-1.996 M 14,14" style="fill:#ccc;fill-opacity:1;stroke:none;fill-rule:nonzero"/>
   </g>
  </g>
 </g>
 <g>
  
 </g>
</svg>
