<svg viewBox="0 0 48 48" xmlns="http://www.w3.org/2000/svg" xmlns:xlink="http://www.w3.org/1999/xlink">
  <linearGradient id="a" gradientTransform="matrix(0 -1 1 0 -.0000015 47.999998)" gradientUnits="userSpaceOnUse" x1="1" x2="47">
    <stop offset="0" stop-color="#3d3d3d"/>
    <stop offset="1" stop-color="#474747"/>
  </linearGradient>
  <path d="m47 24c0 22.703-.297 23-23 23-22.703 0-23-.297-23-23 0-22.703.297-23 23-23 22.703 0 23 .297 23 23z" fill="url(#a)"/>
  <path d="m15 13c-.844 0-.992.191-1 1v22c0 .809.156 1 1 1h19.996c.844 0 1-.191 1-1v-11.334l1.867-1.873c.121-.129.156-.32.129-.496 0 0 .008-.102-.031-.199-.039-.105-.129-.242-.223-.402-.188-.316-.492-.742-1.086-1.332-.258-.258-.462-.441-.656-.609v-1.754c0-.809-.156-1-1-1h-13v-3c0-.809-.156-1-.996-1h-6z" opacity=".1" transform=""/>
  <path d="m14 12c-.844 0-.992.191-1 1 0 7.496 0 15.488 0 22 0 .809.156 1 1 1h19.996c.844 0 1-.191 1-1v-18c0-.809-.156-1-1-1h-13v-3c0-.809-.156-1-.996-1m-6 0" fill="#f9f9f9"/>
  <path d="m33.609 18c-.145.012-.316.066-.414.168l-10.473 10.465c-.066.063-.094.148-.129.234l-1.563 4.332c-.164.43.371.934.801.766l4.309-1.531c.082-.035.191-.07.254-.137l10.469-10.504c.121-.129.156-.32.129-.496 0 0 .008-.102-.031-.199-.039-.105-.129-.242-.223-.402-.188-.316-.492-.742-1.086-1.332-.613-.613-1.023-.945-1.34-1.133-.16-.094-.309-.164-.414-.199-.105-.035-.254-.031-.254-.031m-.035 0" fill="#e5604c"/>
  <path d="m14 14l1.996 1.996 2-1.996m-3.996 0" fill="#ccc"/>
</svg>
