<svg viewBox="0 0 48 48" xmlns="http://www.w3.org/2000/svg" xmlns:xlink="http://www.w3.org/1999/xlink">
  <linearGradient id="a" gradientTransform="matrix(0 -1 1 0 -.0000015 47.999998)" gradientUnits="userSpaceOnUse" x1="1" x2="47">
    <stop offset="0" stop-color="#e4e4e4"/>
    <stop offset="1" stop-color="#eee"/>
  </linearGradient>
  <path d="m47 24c0 22.703-.297 23-23 23-22.703 0-23-.297-23-23 0-22.703.297-23 23-23 22.703 0 23 .297 23 23z" fill="url(#a)"/>
  <path d="m51.713.766c-1.311 0-2.763.045-4.566.895-3.407-1.049-8.01-.134-9.857 3.141-.679 1.206-1.397 2.569-1.549 4.723-2.26 2.435-3.579 6.31-2.139 9.357.534 1.13 1.152 2.392 2.477 3.609a13.5 14 0 0 0  .088.16c.442 3.815 3.734 8.115 7.746 8.115 1.337 0 2.82-.045 4.674-.945 3.415 1.091 8.09.187 9.945-3.115.659-1.171 1.35-2.492 1.529-4.539 2.485-2.519 3.929-6.999 2.143-10.236-.619-1.122-1.337-2.343-2.809-3.482-.629-3.7-3.821-7.682-7.682-7.682m-15.777 8.539a13.5 14 0 0 0-.018.035c-.004.004-.008.008-.012.012.009-.016.02-.031.029-.047z" opacity=".1" transform="translate(-23 9.234375)"/>
  <ellipse cx="46.9" cy="14.766" fill="#e7df59" rx="13.5" ry="14" transform="translate(-23 9.234375)"/>
  <path d="m23.9 10a13.5 14 0 0 0-.394.01c.161.263.358.546.644.885-1.373-.422-3.15-.363-4.96-.004a13.5 14 0 0 0-7.258 6.658c.238.38.499.771.808 1.209-1.004 1.082-1.804 2.452-2.277 3.906a13.5 14 0 0 0-.063 1.336 13.5 14 0 0 0  1.454 6.31c.351.493.754.99 1.296 1.477.03.283.081.578.143.869a13.5 14 0 0 0 7.291 4.897c-.879-.581-1.763-1.383-2.598-2.553-2.271-3.178-1.131-9.088-2.926-9-.97 0-1.92 1.979-1.95 4.949-.67-1.839-1.1-4.445.574-7.719 1.778-3.49 7.426-5.029 6.566-6.644-.425-.899-2.587-.909-5.21.393-.757.377-1.48.938-2.136 1.611 1.01-1.73 2.817-4.175 7.071-4.652 3.819-.429 8.245 3.539 9.065 1.902.487-.866-.723-2.72-3.249-4.233-.36-.216-.751-.395-1.168-.547 1.952.09 4.677.668 7.016 3.94 2.271 3.18 1.131 9.09 2.925 9 .973 0 1.929-1.99 1.95-4.97a13.5 14 0 0 0-12.614-9.03zm1.1 11c-2.209 0-4 1.791-4 4 0 2.21 1.791 4 4 4 2.21 0 4-1.79 4-4 0-2.209-1.79-4-4-4zm12.34 1.809c-.06 1.035-.31 2.183-.842 3.451-1.517 3.608-6.968 5.55-6.016 7.1.362.65 1.668.73 3.364.081a13.5 14 0 0 0 3.554-9.441 13.5 14 0 0 0-.06-1.191zm-15.744 10.931c-.376-.021-.661.09-.815.4-.446.789.541 2.406 2.645 3.835a13.5 14 0 0 0  .474.025 13.5 14 0 0 0  7.24-2.187c-.406.094-.83.174-1.294.227-3.104.35-6.606-2.208-8.25-2.3z" opacity=".1"/>
  <path d="m56.56 13.766c-1.794.088-.654-5.822-2.926-9-2.674-3.74-5.852-3.96-7.802-3.96 1.951-1 3.49-1.04 4.876-1.04 4.326 0 7.822 5 7.802 9-.015 3-.975 5-1.951 5z" fill="#9776aa" transform="translate(-23 9.234375)"/>
  <path d="m52.48 23.13c-.952-1.549 4.499-3.492 6.02-7.098 1.786-4.244.411-7.176-.545-8.908 1.784 1.232 2.571 2.579 3.251 3.81 2.12 3.842-.306 9.446-3.627 11.428-2.491 1.487-4.617 1.634-5.095.768z" fill="#9776aa" transform="translate(-23 9.234375)"/>
  <path d="m42.781 23.902c.822-1.637 5.245 2.33 9.06 1.902 4.495-.504 6.27-3.216 7.246-4.948-.131 2.232-.867 3.619-1.56 4.85-2.163 3.842-8.134 4.446-11.502 2.428-2.526-1.514-3.735-3.366-3.248-4.232z" fill="#9776aa" transform="translate(-23 9.234375)"/>
  <path d="m37.06 15.766c1.794-.088.654 5.822 2.926 9 2.674 3.74 5.852 3.96 7.802 3.96-1.951 1-3.49 1.04-4.876 1.04-4.326 0-7.822-5-7.802-9 .015-3 .975-5 1.951-5z" fill="#9776aa" transform="translate(-23 9.234375)"/>
  <path d="m42.25 6.351c.859 1.615-4.787 3.155-6.566 6.642-2.093 4.103-.9 7.175-.051 8.973-1.721-1.359-2.427-2.807-3.03-4.085-1.885-3.987.948-9.401 4.441-11.136 2.62-1.301 4.781-1.293 5.206-.394z" fill="#9776aa" transform="translate(-23 9.234375)"/>
  <path d="m51.04 5.605c-.822 1.637-5.245-2.33-9.06-1.902-4.495.504-6.27 3.216-7.246 4.948.131-2.232.867-3.619 1.56-4.85 2.163-3.842 8.134-4.446 11.502-2.428 2.526 1.514 3.735 3.366 3.248 4.232z" fill="#9776aa" transform="translate(-23 9.234375)"/>
  <circle cx="24" cy="24" fill="#9776aa" r="4"/>
</svg>
