<svg viewBox="0 0 48 48" xmlns="http://www.w3.org/2000/svg" xmlns:xlink="http://www.w3.org/1999/xlink">
  <linearGradient id="a" gradientTransform="matrix(0 -1 1 0 -.0000015 47.999998)" gradientUnits="userSpaceOnUse" x1="1" x2="47">
    <stop offset="0" stop-color="#1d1d73"/>
    <stop offset="1" stop-color="#212183"/>
  </linearGradient>
  <path d="m47 24c0 22.703-.297 23-23 23-22.703 0-23-.297-23-23 0-22.703.297-23 23-23 22.703 0 23 .297 23 23z" fill="url(#a)"/>
  <path d="m16 13v2h3v22h-3v2h10v-2h-3v-7c2 3 5.53 1 6-1.5v2.5h7v-2h-3v-16h-7v2h3v10.5c-.602 2.5-4 5.919-6 1v-13.5z" opacity=".1"/>
  <path d="m15 12v2h3v22h-3v2h10v-2h-3v-7c2 3 5.53 1 6-1.5v2.5h7v-2h-3v-16h-7v2h3v10.5c-.602 2.5-4 5.919-6 1v-13.5z" fill="#e4801c"/>
</svg>
