<svg viewBox="0 0 48 48" xmlns="http://www.w3.org/2000/svg" xmlns:xlink="http://www.w3.org/1999/xlink">
  <linearGradient id="a" gradientUnits="userSpaceOnUse" x1="1" x2="47">
    <stop offset="0" stop-color="#1873ce"/>
    <stop offset="1" stop-color="#1a7de0"/>
  </linearGradient>
  <path d="m24 1c22.703 0 23 .297 23 23 0 22.703-.297 23-23 23-22.703 0-23-.297-23-23 0-22.703.297-23 23-23z" fill="url(#a)" transform="matrix(0 -1 1 0 0 48)"/>
  <path d="m20 11v1l-5 10v11l10 6 10-6v-11l-1.40625-1.40625-3.59375-3.59375v-1z" fill-opacity=".118" fill-rule="evenodd"/>
  <path d="m14 21v11l10 6v-11.2z" fill="#bbe0e0" fill-rule="evenodd"/>
  <path d="m34 21l-10 6v11l10-6z" fill="#85c7c7" fill-rule="evenodd"/>
  <path d="m24 27l5-11 5 5z" fill="#bbe0e0"/>
  <path d="m14 21l5-10 10 5-5 11z" fill="#ddefef"/>
  <path d="m34 21l-6-4 1-1z" fill="#ddefef"/>
  <path d="m24 27l8.592563-7.411719-3.592563-3.588281z" opacity=".128"/>
  <path d="m29 16v-1l-10-5v1z" fill="#bbe0e0"/>
  <path d="m32 24.19l-6 3.625v2l2-1.219v5l2-1.188v-5l2-1.219v-2z" fill="#2c4757"/>
  <path d="m16 24.19v1 1 5l1 .625v-5l1 .594v4.969l1 .625 1 .594v-4.969l1 .594v4.969l1 .625v-5-1l-1-.594v-1l-5-3.03z" fill="#2c4757"/>
</svg>
