<svg viewBox="0 0 48 48" xmlns="http://www.w3.org/2000/svg" xmlns:xlink="http://www.w3.org/1999/xlink">
  <linearGradient id="a" gradientTransform="matrix(0 -1 1 0 -.0000015 47.999998)" gradientUnits="userSpaceOnUse" x1="1" x2="47">
    <stop offset="0" stop-color="#e98111"/>
    <stop offset="1" stop-color="#ef8b1f"/>
  </linearGradient>
  <linearGradient id="b" gradientUnits="userSpaceOnUse" x1="18" x2="20" y1="24" y2="31">
    <stop offset="0" stop-color="#7daed3"/>
    <stop offset="1" stop-color="#89bad7"/>
  </linearGradient>
  <linearGradient id="c" gradientUnits="userSpaceOnUse" x1="14" x2="21" y1="25" y2="18">
    <stop offset="0" stop-color="#7daed3"/>
    <stop offset="1" stop-color="#719fcf"/>
  </linearGradient>
  <linearGradient id="d" gradientUnits="userSpaceOnUse" x1="19" x2="30" y1="16" y2="15">
    <stop offset="0" stop-color="#719fcf"/>
    <stop offset="1" stop-color="#6590cb"/>
  </linearGradient>
  <linearGradient id="e" gradientUnits="userSpaceOnUse" x1="27" x2="34" y1="18" y2="25">
    <stop offset="0" stop-color="#6590cb"/>
    <stop offset="1" stop-color="#5980c7"/>
  </linearGradient>
  <linearGradient id="f" gradientUnits="userSpaceOnUse" x1="28" x2="35" y1="32" y2="23.47">
    <stop offset="0" stop-color="#4d6ec3"/>
    <stop offset="1" stop-color="#5980c7"/>
  </linearGradient>
  <linearGradient id="g" gradientUnits="userSpaceOnUse" x1="18" x2="27.448" y1="34.392" y2="29">
    <stop offset="0" stop-color="#445bbc"/>
    <stop offset="1" stop-color="#4d6ec3"/>
  </linearGradient>
  <path d="m47 24c0 22.703-.297 23-23 23-22.703 0-23-.297-23-23 0-22.703.297-23 23-23 22.703 0 23 .297 23 23z" fill="url(#a)"/>
  <circle cx="25" cy="25" opacity=".1" r="15"/>
  <circle cx="24" cy="24" fill="#f4d62c" r="15"/>
  <path d="m18 13.608c3.713-2.144 8.287-2.144 12 0 .069 5.534-3.27 7.659-6 10.392-3.979-2.776-6.246-6.147-6-10.392" fill="url(#d)"/>
  <path d="m30 13.608c3.713 2.144 6 6.105 6 10.392-4 2.918-8 1.136-12 0" fill="url(#e)"/>
  <path d="m12 24c0-4.287 2.287-8.249 6-10.392l6 10.392c-3.951 1.321-7.873 3.434-12 0z" fill="url(#c)"/>
  <path d="m18 34.392c-3.713-2.144-6-6.105-6-10.392h12c .53 5.272-2.769 7.808-6 10.392z" fill="url(#b)"/>
  <path d="m30 34.392c-3.713 2.144-8.287 2.144-12 0l6-10.392c3.238 3.228 6.526 6.447 6 10.392z" fill="url(#g)"/>
  <path d="m36 24a12 12 0 0 1-6 10.392l-6-10.392" fill="url(#f)"/>
</svg>
