<svg viewBox="0 0 48 48" xmlns="http://www.w3.org/2000/svg" xmlns:xlink="http://www.w3.org/1999/xlink">
  <linearGradient id="a" gradientTransform="matrix(0 -1 1 0 -.0000015 47.999998)" gradientUnits="userSpaceOnUse" x1="1" x2="47">
    <stop offset="0" stop-color="#6cb85a"/>
    <stop offset="1" stop-color="#79be69"/>
  </linearGradient>
  <path d="m47 24c0 22.703-.297 23-23 23-22.703 0-23-.297-23-23 0-22.703.297-23 23-23 22.703 0 23 .297 23 23z" fill="url(#a)"/>
  <path d="m12 12v8h8v-8m0 8v4h-4v12h4v-4h8v4h4v-12h-4v-4m0 0h8v-8h-8m0 8" opacity=".1" transform="translate(1 1)"/>
  <path d="m12 12v8h8v-8m0 8v4h-4v12h4v-4h8v4h4v-12h-4v-4m0 0h8v-8h-8m0 8" fill="#2d2d2d"/>
</svg>
