<svg viewBox="0 0 48 48" xmlns="http://www.w3.org/2000/svg" xmlns:xlink="http://www.w3.org/1999/xlink">
  <linearGradient id="a" gradientTransform="matrix(0 -1 1 0 -.0000015 47.999998)" gradientUnits="userSpaceOnUse" x1="1" x2="47">
    <stop offset="0" stop-color="#e4e4e4"/>
    <stop offset="1" stop-color="#eee"/>
  </linearGradient>
  <path d="m47 24c0 22.703-.297 23-23 23-22.703 0-23-.297-23-23 0-22.703.297-23 23-23 22.703 0 23 .297 23 23z" fill="url(#a)"/>
  <path d="m25 12.05l-9 4.656v9.605l6.01 3.184v5.924l3 1.648 2.988-1.648v-5.926l6-3.182v-9.605z" fill-opacity=".098"/>
  <path d="m6.068 9.631l.708.388.702-.388v-2.328l-.702-.387-.708.387zm0 0" fill="#c17d11" stroke="#8e5902" stroke-linecap="round" stroke-width=".282" transform="scale(3.543307)"/>
  <path d="m24 35v-10m0 10" fill="none" stroke="#8e5902"/>
  <path d="m4.374 7.06l2.399 1.27 2.399-1.27v-2.54l-2.399-1.242-2.399 1.242zm0 0" fill="#4c9a03" stroke="#2f6003" stroke-linecap="round" stroke-width=".282" transform="scale(3.543307)"/>
  <path d="m6.773 8.326v-2.68l2.434-1.13-2.434 1.13-2.381-1.13 2.381 1.13m0 2.68" fill="#2f6003" stroke="#2f6003" stroke-width=".282" transform="scale(3.543307)"/>
</svg>
