<svg viewBox="0 0 48 48" xmlns="http://www.w3.org/2000/svg" xmlns:xlink="http://www.w3.org/1999/xlink">
  <linearGradient id="a" gradientTransform="matrix(0 -1 1 0 -.0000015 47.999998)" gradientUnits="userSpaceOnUse" x1="1" x2="47">
    <stop offset="0" stop-color="#3d3d3d"/>
    <stop offset="1" stop-color="#474747"/>
  </linearGradient>
  <linearGradient id="b" gradientTransform="matrix(2.834646 0 0 2.834646 5.887205 3.662894)" gradientUnits="userSpaceOnUse" x1="4.626" x2="8.859">
    <stop offset="0" stop-color="#c12019"/>
    <stop offset="1" stop-color="#de2820"/>
  </linearGradient>
  <path d="m47 24c0 22.703-.297 23-23 23-22.703 0-23-.297-23-23 0-22.703.297-23 23-23 22.703 0 23 .297 23 23z" fill="url(#a)"/>
  <path d="m15.543 12h16.914c1.957 0 3.543 1.586 3.543 3.543v16.914c0 1.957-1.586 3.543-3.543 3.543h-16.914c-1.957 0-3.543-1.586-3.543-3.543v-16.914c0-1.957 1.586-3.543 3.543-3.543m0 0" opacity=".1" transform="translate(1 1)"/>
  <path d="m15.543 12h16.914c1.957 0 3.543 1.586 3.543 3.543v16.914c0 1.957-1.586 3.543-3.543 3.543h-16.914c-1.957 0-3.543-1.586-3.543-3.543v-16.914c0-1.957 1.586-3.543 3.543-3.543m0 0" fill="#f9f9f9"/>
  <path d="m19 16v16l12-8m-12-8" fill="url(#b)"/>
</svg>
