<svg viewBox="0 0 48 48" xmlns="http://www.w3.org/2000/svg" xmlns:xlink="http://www.w3.org/1999/xlink">
  <linearGradient id="a" gradientTransform="matrix(0 -1 1 0 -.0000015 47.999998)" gradientUnits="userSpaceOnUse" x1="1" x2="47">
    <stop offset="0" stop-color="#e4e4e4"/>
    <stop offset="1" stop-color="#eee"/>
  </linearGradient>
  <linearGradient id="b" gradientUnits="userSpaceOnUse" x2="0" y1="33" y2="18">
    <stop offset="0" stop-color="#fff"/>
    <stop offset="1" stop-color="#fff" stop-opacity="0"/>
  </linearGradient>
  <path d="m47 24c0 22.703-.297 23-23 23-22.703 0-23-.297-23-23 0-22.703.297-23 23-23 22.703 0 23 .297 23 23z" fill="url(#a)"/>
  <rect height="21" opacity=".1" rx="1" width="28" x="11" y="15"/>
  <g transform="translate(7.9999998 -7)">
    <path d="m3 21h3v21h-3c-.554 0-1-.446-1-1v-19c0-.554.446-1 1-1z" fill="#f07070"/>
    <path d="m6 21h4v21h-4z" fill="#f7ae6c"/>
    <path d="m10 21h4v21h-4z" fill="#f7f183"/>
    <path d="m14 21h4v21h-4z" fill="#83d585"/>
    <path d="m18 21h4v21h-4z" fill="#68cebf"/>
    <path d="m22 21h4v21h-4z" fill="#92a8db"/>
    <path d="m29 21h-3v21h3c .554 0 1-.446 1-1v-19c0-.554-.446-1-1-1z" fill="#cf8eb4"/>
  </g>
  <path d="m11 15v18h2v-18zm4 0v18h2v-18zm4 0v18h2v-18zm4 0v18h2v-18zm4 0v18h2v-18zm4 0v18h2v-18zm4 0v18h2v-18z" fill="url(#b)" opacity=".1"/>
  <path d="m10 34c0 .554.446 1 1 1h26c .554 0 1-.446 1-1z" opacity=".1"/>
  <path d="m14 14c-.554 0-1 .446-1 1v11c0 .554.446 1 1 1h1c .554 0 1-.446 1-1v-11c0-.554-.446-1-1-1zm4 0c-.554 0-1 .446-1 1v11c0 .554.446 1 1 1h1c .554 0 1-.446 1-1v-11c0-.554-.446-1-1-1zm8 0c-.554 0-1 .446-1 1v11c0 .554.446 1 1 1h1c .554 0 1-.446 1-1v-11c0-.554-.446-1-1-1zm4 0c-.554 0-1 .446-1 1v11c0 .554.446 1 1 1h1c .554 0 1-.446 1-1v-11c0-.554-.446-1-1-1zm4 0c-.554 0-1 .446-1 1v11c0 .554.446 1 1 1h1c .554 0 1-.446 1-1v-11c0-.554-.446-1-1-1z" opacity=".1"/>
  <rect fill="#424242" height="13" rx="1" width="3" x="12" y="13"/>
  <rect fill="#424242" height="13" rx="1" width="3" x="16" y="13"/>
  <rect fill="#424242" height="13" rx="1" width="3" x="24" y="13"/>
  <rect fill="#424242" height="13" rx="1" width="3" x="28" y="13"/>
  <rect fill="#424242" height="13" rx="1" width="3" x="32" y="13"/>
</svg>
