<svg viewBox="0 0 48 48" xmlns="http://www.w3.org/2000/svg" xmlns:xlink="http://www.w3.org/1999/xlink">
  <linearGradient id="a" gradientTransform="matrix(0 -1 1 0 -.0000015 47.999998)" gradientUnits="userSpaceOnUse" x1="1" x2="47">
    <stop offset="0" stop-color="#3d3d3d"/>
    <stop offset="1" stop-color="#474747"/>
  </linearGradient>
  <path d="m47 24c0 22.703-.297 23-23 23-22.703 0-23-.297-23-23 0-22.703.297-23 23-23 22.703 0 23 .297 23 23z" fill="url(#a)"/>
  <path d="m12 12c0 8.08 0 16.898 0 24h24c0-24 0-14.242 0-24m-24 0" fill-rule="evenodd" opacity=".1" transform="translate(1 1)"/>
  <path d="m12 12c0 8.08 0 16.898 0 24h24c0-24 0-14.242 0-24m-24 0" fill="#cd4c4c" fill-rule="evenodd"/>
  <path d="m13 31c0 1.348 0 2.816 0 4h22c0-4 0-2.375 0-4m-22 0" fill="#f9f9f9" fill-rule="evenodd"/>
  <path d="m12 12c0 6.06 0 12.672 0 18h24c0-18 0-10.699 0-18m-24 0" fill="#c82626" fill-rule="evenodd"/>
  <path d="m13 31.996c0 .336 0 .707 0 1h22c0-1 0-.598 0-1m-22 0" fill="#e5e5e5" fill-rule="evenodd"/>
  <path d="m13 34c0 .34 0 .707 0 1h22c0-1 0-.594 0-1m-22 0" fill="#e5e5e5" fill-rule="evenodd"/>
  <path d="m18 16v10h3v-7h1v7h4v-7h1v7h3v-8.246c0-.984-.77-1.754-1.75-1.754m-10.25 0" fill="#f9f9f9"/>
</svg>
