<svg xmlns="http://www.w3.org/2000/svg" viewBox="0 0 48 48">
 <defs>
  <linearGradient id="linearGradient3764" x1="1" x2="47" gradientUnits="userSpaceOnUse" gradientTransform="matrix(0,-1,1,0,-1.5e-6,47.999998)">
   <stop style="stop-color:#e4e4e4;stop-opacity:1"/>
   <stop offset="1" style="stop-color:#eee;stop-opacity:1"/>
  </linearGradient>
 </defs>
 <g>
  
  
  
 </g>
 <g>
  <path d="m 47,24 C 47,46.703 46.703,47 24,47 1.297,47 1,46.703 1,24 1,1.297 1.297,1 24,1 46.703,1 47,1.297 47,24 z" style="fill:url(#linearGradient3764);fill-opacity:1"/>
  <path d="m 9.406 15.996 l -5.406 0.004 l 6.094 8.998 l -6.094 9 l 5.406 -0.004 l 3.391 -5.01 l 3.391 5.01 l 5.414 0.004 l 3.4 -5.02 l 3.4 5.02 l 5.391 0 l 3.422 -5.02 l 3.41 5.02 l 4.092 0 c 0.181 -0.374 0.351 -0.754 0.512 -1.139 l -5.322 -7.861 l 5.809 -8.58 c -0.049 -0.14 -0.095 -0.281 -0.146 -0.42 l -4.943 0 l -3.41 5.02 l -3.402 -5.02 l -5.41 0 l -3.4 5.02 l -3.4 -5.02 l -5.391 0 l -3.412 5.01 l -3.393 -5.01 z m 21.695 3.975 l 3.414 5.03 l -3.412 5.03 l -3.406 -5.03 l 3.404 -5.03 z m -12.199 0.002 l 3.404 5.03 l -3.402 5.02 l -3.404 -5.03 l 3.402 -5.02 z" style="fill:#000;opacity:0.1;fill-opacity:1"/>
 </g>
 <g>
  <g>
   <g transform="translate(1,1)">
    <g style="opacity:0.1">
     <!-- color: #eeeeee -->
    </g>
   </g>
  </g>
 </g>
 <g>
  <g>
   <!-- color: #eeeeee -->
   <g>
    <path d="m 39.625 15 l -12.219 18 l 5.406 0 l 12.188 -18 m -5.375 0" style="fill:#1eab85;fill-opacity:1;stroke:none;fill-rule:nonzero"/>
    <path d="m 15.188 15 l -12.188 18 l 5.406 -0.004 l 12.188 -18 m -5.406 0.004" style="fill:#e54c2f;fill-opacity:1;stroke:none;fill-rule:nonzero"/>
    <path d="m 20.602 33 l -5.391 0 l 12.191 -18 l 5.387 0 m -12.188 18" style="fill:#d644b2;fill-opacity:1;stroke:none;fill-rule:nonzero"/>
    <path d="m 11.959 19.768 -2.703 3.992 2.701 3.99 2.705 -3.992 m 9.502 -3.975 -2.695 3.979 2.693 3.979 2.695 -3.98 z m 12.213 0.004 -2.701 3.977 2.699 3.975 2.693 -3.977 z m -18.311 8.998 -2.705 3.992 0.152 0.223 l 5.088 0 0.158 -0.234 z m 12.197 0.004 -2.697 3.977 l 0.158 0.234 5.088 0 0.152 -0.225" style="fill:#000;opacity:0.1;fill-opacity:1;stroke:none;fill-rule:nonzero"/>
    <path d="m 3 15 l 12.188 17.996 l 5.406 0 l -12.188 -18 m -5.406 0.004" style="fill:#2d2d2d;fill-opacity:1;stroke:none;fill-rule:nonzero"/>
    <path d="m 32.793 33 l -12.191 -18 l -5.391 0 l 12.191 18 m 5.391 0" style="fill:#2d2d2d;fill-opacity:1;stroke:none;fill-rule:nonzero"/>
    <path d="m 27.406 15 l 12.219 18 l 5.375 0 l -12.188 -18 m -5.406 0" style="fill:#2d2d2d;fill-opacity:1;stroke:none;fill-rule:nonzero"/>
   </g>
  </g>
 </g>
 <g>
  
 </g>
</svg>
