<svg viewBox="0 0 48 48" xmlns="http://www.w3.org/2000/svg" xmlns:xlink="http://www.w3.org/1999/xlink">
  <linearGradient id="a" gradientTransform="matrix(0 -1 1 0 -.0000015 48)" gradientUnits="userSpaceOnUse" x1="1" x2="47">
    <stop offset="0" stop-color="#e4e4e4"/>
    <stop offset="1" stop-color="#eee"/>
  </linearGradient>
  <path d="m36.31 5c5.859 4.062 9.688 10.831 9.688 18.5 0 12.426-10.07 22.5-22.5 22.5-7.669 0-14.438-3.828-18.5-9.688 1.037 1.822 2.306 3.499 3.781 4.969 4.085 3.712 9.514 5.969 15.469 5.969 22.703 0 23-10.298 23-23 0-5.954-2.256-11.384-5.969-15.469-1.469-1.475-3.147-2.744-4.969-3.781zm4.969 3.781c3.854 4.113 6.219 9.637 6.219 15.719 0 22.703-.297 23-23 23-6.081 0-11.606-2.364-15.719-6.219 4.16 4.144 9.883 6.719 16.219 6.719 22.703 0 23-10.298 23-23 0-6.335-2.575-12.06-6.719-16.219z" opacity=".05"/>
  <path d="m41.28 8.781c3.712 4.085 5.969 9.514 5.969 15.469 0 22.703-.297 23-23 23-5.954 0-11.384-2.256-15.469-5.969 4.113 3.854 9.637 6.219 15.719 6.219 22.703 0 23-10.298 23-23 0-6.081-2.364-11.606-6.219-15.719z" opacity=".1"/>
  <path d="m31.25 2.375c8.615 3.154 14.75 11.417 14.75 21.13 0 12.426-10.07 22.5-22.5 22.5-9.708 0-17.971-6.135-21.12-14.75a23 23 0 0 0 44.875-7 23 23 0 0 0-16-21.875z" opacity=".2"/>
  <path d="m24 1c22.703 0 23 .297 23 23s-.297 23-23 23-23-.297-23-23 .297-23 23-23z" fill="url(#a)"/>
  <g opacity=".1" transform="matrix(1.1 0 0 1.1 -132.14 21.869)">
    <path d="m363.44 521.53a35.644 48.04 0 1 1-71.29 0 35.644 48.04 0 1 1  71.29 0z" fill="none" stroke="#000" stroke-width="4" transform="matrix(.20817 -.12508 .12508 .20817 9.9461 -64.705)"/>
    <path d="m24.594 17c-4.247 0-7.688 3.44-7.688 7.688s3.44 7.688 7.688 7.688 7.688-3.44 7.688-7.688-3.44-7.688-7.688-7.688zm-1.375 4.063c2.888 0 5.25 2.331 5.25 5.219 0 2.888-2.362 5.25-5.25 5.25s-5.219-2.362-5.219-5.25 2.331-5.219 5.219-5.219z" transform="matrix(.90913 0 0 .90913 121.04 -18.972)"/>
    <path d="m129.17 3.535s-2.728 2.605-2.515 4.232c.294 2.244 3.112 2.602 5.336 2.576 5.392-.062 24.596-6.363 24.533-13.922-.02-2.444-4.416-2.66-4.416-2.515 0 0 3.26.818 3.189 2.392-.265 5.867-16.305 12.454-23.429 12.634-1.495.038-3.576-.284-4.171-1.656-.533-1.23 1.472-3.741 1.472-3.741z"/>
    <path d="m386.38 502.08a18.18 18.18 0 1 1-36.37 0 18.18 18.18 0 1 1  36.37 0z" transform="matrix(.1872 0 0 .1872 78.43 -97.48)"/>
    <path d="m386.38 502.08a18.18 18.18 0 1 1-36.37 0 18.18 18.18 0 1 1  36.37 0z" transform="matrix(.11974 0 0 .11974 95.204 -52.293)"/>
  </g>
  <g transform="matrix(1.1 0 0 1.1 -133.14 20.869)">
    <path d="m363.44 521.53a35.644 48.04 0 1 1-71.29 0 35.644 48.04 0 1 1  71.29 0z" fill="none" stroke="#474747" stroke-width="4" transform="matrix(.20817 -.12508 .12508 .20817 9.9461 -64.705)"/>
    <path d="m24.594 17c-4.247 0-7.688 3.44-7.688 7.688s3.44 7.688 7.688 7.688 7.688-3.44 7.688-7.688-3.44-7.688-7.688-7.688zm-1.375 4.063c2.888 0 5.25 2.331 5.25 5.219 0 2.888-2.362 5.25-5.25 5.25s-5.219-2.362-5.219-5.25 2.331-5.219 5.219-5.219z" fill="#462aae" transform="matrix(.90913 0 0 .90913 121.04 -18.972)"/>
    <path d="m129.17 3.535s-2.728 2.605-2.515 4.232c.294 2.244 3.112 2.602 5.336 2.576 5.392-.062 24.596-6.363 24.533-13.922-.02-2.444-4.416-2.66-4.416-2.515 0 0 3.26.818 3.189 2.392-.265 5.867-16.305 12.454-23.429 12.634-1.495.038-3.576-.284-4.171-1.656-.533-1.23 1.472-3.741 1.472-3.741z" fill="#474747"/>
    <path d="m386.38 502.08a18.18 18.18 0 1 1-36.37 0 18.18 18.18 0 1 1  36.37 0z" fill="#c4303d" transform="matrix(.1872 0 0 .1872 78.43 -97.48)"/>
    <path d="m386.38 502.08a18.18 18.18 0 1 1-36.37 0 18.18 18.18 0 1 1  36.37 0z" fill="#606060" transform="matrix(.11974 0 0 .11974 95.204 -52.293)"/>
  </g>
</svg>
