<svg viewBox="0 0 48 48" xmlns="http://www.w3.org/2000/svg" xmlns:xlink="http://www.w3.org/1999/xlink">
  <linearGradient id="a" gradientTransform="matrix(0 -1 1 0 -.0000015 47.999998)" gradientUnits="userSpaceOnUse" x1="1" x2="47">
    <stop offset="0" stop-color="#e4e4e4"/>
    <stop offset="1" stop-color="#eee"/>
  </linearGradient>
  <path d="m47 24c0 22.703-.297 23-23 23-22.703 0-23-.297-23-23 0-22.703.297-23 23-23 22.703 0 23 .297 23 23z" fill="url(#a)"/>
  <path d="m24 1v7h-7v-5.906c-.337.108-.67.221-1 .344v5.563h-7v-1.438c-.346.298-.673.62-1 .938v.5h-.5c-.318.327-.64.654-.938 1h1.438v7h-5.563c-.123.33-.236.663-.344 1h5.906v7h-7c0 .334.017.669.031 1h6.969v7h-5.563c.127.342.264.666.406 1h5.156v7h-.5c.481.496.976.986 1.5 1.438v-.438h7v4.563c.33.123.663.236 1 .344v-4.906h7v6c .334 0 .669-.017 1-.031v-5.969h7v4.563c.342-.127.666-.264 1-.406v-4.156h6.5c.522-.476 1.024-.978 1.5-1.5v-6.5h4.156c.142-.334.279-.658.406-1h-4.563v-7h5.969c.014-.331.031-.666.031-1h-6v-7h4.906c-.108-.337-.221-.67-.344-1h-4.563v-7h .438c-.451-.524-.941-1.019-1.438-1.5v.5h-7v-5.156c-.334-.142-.658-.279-1-.406v5.563h-7v-6.969c-.331-.014-.666-.031-1-.031zm-15 8h7v7h-7zm8 0h7v7h-7zm8 0h7v7h-7zm8 0h7v7h-7zm-24 8h7v7h-7zm8 0h7v7h-7zm8 0h7v7h-7zm8 0h7v7h-7zm-24 8h7v7h-7zm8 0h7v7h-7zm8 0h7v7h-7zm8 0h7v7h-7zm-24 8h7v7h-7zm8 0h7v7h-7zm8 0h7v7h-7zm8 0h7v7h-7z" fill="#718aa7" fill-opacity=".235"/>
  <path d="m23 13l-1.752 7h-6.248v2h5.746l-1.502 6h-6.244v2h5.742l-1.752 7h2l1.752-7h6.01l-1.752 7h2l1.752-7h6.248v-2h-5.746l1.502-6h6.244v-2h-5.742l1.752-7h-2l-1.752 7h-6.01l1.752-7zm-.254 9h6.01l-1.502 6h-6.01z" opacity=".1"/>
  <path d="m12 27h22v2h-22z" fill="#303030"/>
  <path d="m14 19h22v2h-22z" fill="#303030"/>
  <path d="m22 12h2l-6.01 24h-2z" fill="#303030"/>
  <path d="m30.01 12h2l-6.01 24h-2" fill="#303030"/>
</svg>
