<svg viewBox="0 0 48 48" xmlns="http://www.w3.org/2000/svg" xmlns:xlink="http://www.w3.org/1999/xlink">
  <linearGradient id="a" gradientTransform="matrix(0 -1 1 0 -.0000015 47.999998)" gradientUnits="userSpaceOnUse" x1="1" x2="47">
    <stop offset="0" stop-color="#70bbde"/>
    <stop offset="1" stop-color="#80c4e2"/>
  </linearGradient>
  <path d="m47 24c0 22.703-.297 23-23 23-22.703 0-23-.297-23-23 0-22.703.297-23 23-23 22.703 0 23 .297 23 23z" fill="url(#a)"/>
  <path d="m25 12a3.5 3.5 0 0 0-3.5 3.5 3.5 3.5 0 0 0  .008.244l-2.02 1.133a4 4 0 0 0-2.488-.877 4 4 0 0 0-4 4 4 4 0 0 0  2 3.459v3.082a4 4 0 0 0-2 3.459 4 4 0 0 0  4 4 4 4 0 0 0  2.496-.875l2.02 1.135a3.5 3.5 0 0 0-.016.24 3.5 3.5 0 0 0  3.5 3.5 3.5 3.5 0 0 0  3.5-3.5 3.5 3.5 0 0 0-.008-.24l2.02-1.133a4 4 0 0 0 2.488.873 4 4 0 0 0  4-4 4 4 0 0 0-2-3.459v-3.082a4 4 0 0 0 2-3.459 4 4 0 0 0-4-4 4 4 0 0 0-2.496.875l-2.016-1.135a3.5 3.5 0 0 0  .012-.24 3.5 3.5 0 0 0-3.5-3.5m2.02 6.355l2.02 1.137a4 4 0 0 0-.04.508 4 4 0 0 0  .039.516l-1.816 1.162a4 4 0 0 0-2.223-.678 4 4 0 0 0-2.223.678l-1.814-1.162a4 4 0 0 0  .037-.516 4 4 0 0 0-.037-.508l2.02-1.135a3.5 3.5 0 0 0 2.017.643 3.5 3.5 0 0 0  2.02-.645m3.814 5a4 4 0 0 0  .166.104v3.082a4 4 0 0 0-.346.225l-1.719-1.074a4 4 0 0 0  .065-.692 4 4 0 0 0-.033-.479l1.865-1.166zm-11.66.002l1.859 1.162a4 4 0 0 0-.033.481 4 4 0 0 0  .061.691l-1.717 1.074a4 4 0 0 0-.344-.224v-3.082a4 4 0 0 0  .172-.102zm3.482 4.877a4 4 0 0 0 2.344.766 4 4 0 0 0  2.344-.77l1.721 1.074a4 4 0 0 0-.065.696 4 4 0 0 0  .037.508l-2.02 1.135a3.5 3.5 0 0 0-2.017-.643 3.5 3.5 0 0 0-2.018.645l-2.019-1.137a4 4 0 0 0  .037-.508 4 4 0 0 0-.062-.69l1.717-1.072z" fill-rule="evenodd" opacity=".1"/>
  <path d="m24 12.779l-8.736 4.914 1.473 2.613 7.264-4.086 7.264 4.086 1.473-2.613-8.736-4.914m0 9.451l-10.939 6.838 10.939 6.152 10.939-6.152zm0 3.539l5.061 3.162-5.061 2.848-5.061-2.848z" fill="#c8c8c8" fill-rule="evenodd"/>
  <circle cx="24" cy="24" fill="#f9f9f9" r="4"/>
  <circle cx="16" cy="29" fill="#f9f9f9" r="4"/>
  <circle cx="16" cy="19" fill="#f9f9f9" r="4"/>
  <circle cx="32" cy="29" fill="#f9f9f9" r="4"/>
  <circle cx="32" cy="19" fill="#f9f9f9" r="4"/>
  <circle cx="24" cy="33.5" fill="#c8c8c8" r="3.5"/>
  <circle cx="24" cy="14.5" fill="#c8c8c8" r="3.5"/>
  <path d="m14 15.7v13.3h4v-6.75l6 3.75 6-3.75v6.75h4v-13.3l-10 6.4z" fill="#f9f9f9" fill-rule="evenodd"/>
</svg>
