<svg viewBox="0 0 48 48" xmlns="http://www.w3.org/2000/svg" xmlns:xlink="http://www.w3.org/1999/xlink">
  <linearGradient id="a" gradientTransform="matrix(0 -1 1 0 -.0000015 47.999998)" gradientUnits="userSpaceOnUse" x1="1" x2="47">
    <stop offset="0" stop-color="#a58855"/>
    <stop offset="1" stop-color="#ad9261"/>
  </linearGradient>
  <path d="m47 24c0 22.703-.297 23-23 23-22.703 0-23-.297-23-23 0-22.703.297-23 23-23 22.703 0 23 .297 23 23z" fill="url(#a)"/>
  <path d="m24 10c-3.531 3.988-6 6.9-6 12 0 5.5 3.525 8.863 6 11v2.199l1 .801v-3c2.105-2.195 5-4.5 5-11 0-4-3-7-5-10-.413-.62-1-2-1-2z" opacity=".1" transform="translate(1 2)"/>
  <g transform="translate(0 1)">
    <path d="m24 10c-3.531 3.988-6 6.9-6 12 0 5.5 3.525 8.863 6 11 1-3 1-19 0-23z" fill="#95f365"/>
    <path d="m24 10v23 2.199l1 .801v-3c2.105-2.195 5-4.5 5-11 0-4-3-7-5-10-.413-.62-1-2-1-2z" fill="#4ce462"/>
  </g>
</svg>
