<svg viewBox="0 0 48 48" xmlns="http://www.w3.org/2000/svg" xmlns:xlink="http://www.w3.org/1999/xlink">
  <linearGradient id="a" gradientUnits="userSpaceOnUse" x2="0" y1="48" y2=".27">
    <stop offset="0" stop-color="#ee9332"/>
    <stop offset="1" stop-color="#ed9e49"/>
  </linearGradient>
  <path d="m24 1c22.703 0 23 .297 23 23 0 22.703-.297 23-23 23-22.703 0-23-.297-23-23 0-22.703.297-23 23-23z" fill="url(#a)"/>
  <path d="m25 12c-1 0-1 0-1 1v3.086a6 6 0 0 0-5 5.914 6 6 0 0 0  5 5.91v.09c-1 0-1 0-1 1v1l-4-3c-1-1-1-1-1-2v-5c0-1 0-1 1-2 1-1 0-3-3-5-1 0-3 2-3 3 2 1 3 2 3 3-2 0-2 0-2 1v1c0 2 2 1 2 3h-1c0 1 0 1 1 2l7 6v7h4v-7l7-6c1-1 1-1 1-2h-1c0-2 2-1 2-3v-1c0-1 0-1-2-1 0-1 1-2 3-3 0-1-2-3-3-3-3 2-4 4-3 5 1 1 1 1 1 2v5c0 1 0 1-1 2l-4 3v-1c0-1 0-1-1-1v-.086a6 6 0 0 0 5-5.914 6 6 0 0 0-5-5.91v-3.09c0-1 0-1-1-1z" fill-opacity=".102"/>
  <path d="m22 31v7h4v-7z" fill="#a05a2c"/>
  <ellipse cx="24" cy="21" fill="#cafefe" rx="6" ry="6"/>
  <ellipse cx="24" cy="21" fill="#04fbfb" rx="3" ry="3"/>
  <path d="m23 12v15c-1 0-1 0-1 1v1l-4-3c-1-1-1-1-1-2v-5c0-1 0-1 1-2 1-1 0-3-3-5-1 0-3 2-3 3 2 1 3 2 3 3-2 0-2 0-2 1v1c0 2 2 1 2 3h-1c0 1 0 1 1 2l7 6h4l7-6c1-1 1-1 1-2h-1c0-2 2-1 2-3v-1c0-1 0-1-2-1 0-1 1-2 3-3 0-1-2-3-3-3-3 2-4 4-3 5 1 1 1 1 1 2v5c0 1 0 1-1 2l-4 3v-1c0-1 0-1-1-1v-15c0-1 0-1-1-1-1 0-1 0-1 1z" fill="#fd5"/>
</svg>
