<svg viewBox="0 0 48 48" xmlns="http://www.w3.org/2000/svg" xmlns:xlink="http://www.w3.org/1999/xlink">
  <linearGradient id="a" gradientTransform="matrix(0 -1 1 0 -.0000015 47.999998)" gradientUnits="userSpaceOnUse" x1="1" x2="47">
    <stop offset="0" stop-color="#3d3d3d"/>
    <stop offset="1" stop-color="#474747"/>
  </linearGradient>
  <path d="m47 24c0 22.703-.297 23-23 23-22.703 0-23-.297-23-23 0-22.703.297-23 23-23 22.703 0 23 .297 23 23z" fill="url(#a)"/>
  <path d="m36 13.227l-22 3.43c-1 .34-1 .816-1 1.336 0 5.811 0 11.622 0 17.434 0 .871.793 1.572 1.773 1.572h20.453c.98 0 1.771-.701 1.771-1.572v-12.855c0-.867-.791-1.57-1.771-1.57h-19.227v-.5l20-3.336c1-.234 1-.559 1-1.168v-2c0-.445-.457-.766-1-.77z" opacity=".1" transform=""/>
  <path d="m13.773 20h20.453c.98 0 1.773.703 1.773 1.57v12.855c0 .871-.793 1.574-1.773 1.574h-20.453c-.98 0-1.773-.703-1.773-1.574v-12.855c0-.867.793-1.57 1.773-1.57m0 0" fill="#f9f9f9"/>
  <path d="m12 20l23-3.836c1-.234 1-.559 1-1.168v-2c0-.445-.457-.766-1-.77l-22 3.43c-1 .34-1 .816-1 1.336m0 3.01" fill="#f9f9f9"/>
  <path d="m12.5 18h2c .277 0 .5.199.5.445v5.109c0 .246-.223.445-.5.445h-2c-.277 0-.5-.199-.5-.445v-5.109c0-.246.223-.445.5-.445m0 0" fill="#f9f9f9"/>
  <path d="m33.438 30c0 0 .563-.324.563-1.996 0-1.613-.633-2-.633-2h-15.07l-4.297 2 4.297 1.996m15.14 0" fill="#ff784b"/>
  <path d="m18 26.09l-4 1.906 4 1.906v-3.816m0 .004" fill="#ff9"/>
  <path d="m16 27.06l-1.996.941 1.996.938m0-1.879" fill="#4c4c4c"/>
</svg>
