<svg viewBox="0 0 48 48" xmlns="http://www.w3.org/2000/svg" xmlns:xlink="http://www.w3.org/1999/xlink">
  <linearGradient id="a" gradientTransform="matrix(0 -1 1 0 -.0000015 47.999998)" gradientUnits="userSpaceOnUse" x1="1" x2="47">
    <stop offset="0" stop-color="#4ec1f2"/>
    <stop offset="1" stop-color="#61c8f3"/>
  </linearGradient>
  <path d="m47 24c0 22.703-.297 23-23 23-22.703 0-23-.297-23-23 0-22.703.297-23 23-23 22.703 0 23 .297 23 23z" fill="url(#a)"/>
  <path d="m25.03 10l1.908 8.75-1.598.375-3.156-3.531 1.5-2.719-1.342-2.625c-7.02 1.254-12.343 7.371-12.343 14.75 0 8.269 6.684 14.978 14.956 15l-.312-3.375 1.281-2.094-2.875-3.281.853-1.375 1.098.125 2.801 4.406-1.5 2.719 1.344 2.625c7.02-1.254 12.355-7.371 12.355-14.75 0-8.269-6.697-14.978-14.97-15" opacity=".1"/>
  <path d="m24.03 9l .314 3.375-1.281 2.094 2.875 3.281-.853 1.373-1.103-.123.359-.875-3.156-3.531 1.5-2.719-1.342-2.625c-7.02 1.254-12.343 7.371-12.343 14.75 0 8.269 6.684 14.978 14.956 15l-.312-3.375 1.281-2.094-2.875-3.281.853-1.375 1.098.125-.355.875 3.156 3.531-1.5 2.719 1.344 2.625c7.02-1.254 12.355-7.371 12.355-14.75 0-8.269-6.697-14.978-14.97-15" fill="#373737"/>
  <path d="m24.12 10l .094 1.01a13 13 0 0 1 12.783 12.988 13 13 0 0 1-11.316 12.875l.482.939a14 14 0 0 0 11.834-13.814 14 14 0 0 0-13.877-13.996zm-2.301.184a14 14 0 0 0-11.822 13.813 14 14 0 0 0  13.861 13.994l-.092-1.01a13 13 0 0 1-12.77-12.988 13 13 0 0 1  11.301-12.873l-.479-.939zm2.488 1.822l.033.365-.383.627a11 11 0 0 1  .039-.002 11 11 0 0 1  11 11 11 11 0 0 1-8.971 10.805l-.607 1.102a12 12 0 0 0 10.578-11.906 12 12 0 0 0-11.689-11.99zm-1.75.088a12 12 0 0 0-10.561 11.902 12 12 0 0 0  11.676 11.988l-.033-.363.383-.625a11 11 0 0 1-.025 0 11 11 0 0 1-11-11 11 11 0 0 1  8.953-10.801l.607-1.102zm1.439 1.902a10 10 0 0 0-.672.033l-.266.436.48.549a9 9 0 0 1  .457-.018 9 9 0 0 1  9 9 9 9 0 0 1-6.813 8.721l.613.686-.119.217a10 10 0 0 0 7.318-9.623 10 10 0 0 0-10-10zm-2.699.381a10 10 0 0 0-7.301 9.619 10 10 0 0 0  10 10 10 10 0 0 0  .658-.033l.266-.436-.48-.547a9 9 0 0 1-.443.016 9 9 0 0 1-9-9 9 9 0 0 1  6.799-8.719l-.615-.688.117-.213zm3.115 1.633l.988 1.129a7 7 0 0 1 5.596 6.857 7 7 0 0 1-6.379 6.967l.803.898a8 8 0 0 0 6.576-7.865 8 8 0 0 0-7.584-7.986zm-1.854.123a8 8 0 0 0-6.563 7.863 8 8 0 0 0  7.568 7.984l-.99-1.131a7 7 0 0 1-5.578-6.854 7 7 0 0 1  6.365-6.965l-.803-.898zm1.438 1.863a6 6 0 0 0-6 6 6 6 0 0 0  4.35 5.766l.553-.891 1.098.125-.355.875.104.115a6 6 0 0 0  .252.01 6 6 0 0 0  6-6 6 6 0 0 0-4.361-5.77l-.555.893-1.104-.123.359-.875-.104-.117a6 6 0 0 0-.236-.008z" fill="#434343"/>
  <path d="m24 19a5 5 0 0 0-5 5 5 5 0 0 0  5 5 5 5 0 0 0  5-5 5 5 0 0 0-5-5zm0 4a1 1 0 0 1 1 1 1 1 0 0 1-1 1 1 1 0 0 1-1-1 1 1 0 0 1  1-1z" fill="#f5702b"/>
</svg>
