<svg viewBox="0 0 48 48" xmlns="http://www.w3.org/2000/svg" xmlns:xlink="http://www.w3.org/1999/xlink">
  <linearGradient id="a" gradientTransform="matrix(0 -1 1 0 -.0000015 47.999998)" gradientUnits="userSpaceOnUse" x1="1" x2="47">
    <stop offset="0" stop-color="#e4e4e4"/>
    <stop offset="1" stop-color="#eee"/>
  </linearGradient>
  <path d="m47 24c0 22.703-.297 23-23 23-22.703 0-23-.297-23-23 0-22.703.297-23 23-23 22.703 0 23 .297 23 23z" fill="url(#a)"/>
  <g transform="matrix(3.543307 0 0 3.543307 .00000022 -.00039272)">
    <path d="m7.07 2.822c-2.326 0-4.248 1.893-4.248 4.219 0 2.326 1.922 4.248 4.248 4.248 2.327 0 4.219-1.921 4.219-4.248 0-2.326-1.892-4.219-4.219-4.219m0 .827c1.88 0 3.392 1.514 3.392 3.392 0 1.879-1.512 3.421-3.392 3.421-1.879 0-3.421-1.542-3.421-3.421 0-1.879 1.542-3.392 3.421-3.392m0 0" opacity=".1"/>
    <path d="m5.644 4.516v5.08l4.233-2.54" opacity=".1"/>
    <path d="m6.788 2.54c-2.326 0-4.248 1.893-4.248 4.219 0 2.326 1.922 4.248 4.248 4.248 2.327 0 4.219-1.921 4.219-4.248 0-2.326-1.892-4.219-4.219-4.219m0 .827c1.88 0 3.392 1.514 3.392 3.392 0 1.879-1.512 3.421-3.392 3.421-1.879 0-3.421-1.542-3.421-3.421 0-1.879 1.542-3.392 3.421-3.392m0 0" fill="#52599b"/>
    <path d="m5.362 4.233v5.08l4.233-2.54" fill="#2d2d2d"/>
  </g>
</svg>
