<svg viewBox="0 0 48 48" xmlns="http://www.w3.org/2000/svg" xmlns:xlink="http://www.w3.org/1999/xlink">
  <linearGradient id="a" gradientTransform="matrix(0 -1 1 0 -.0000015 47.999998)" gradientUnits="userSpaceOnUse" x1="1" x2="47">
    <stop offset="0" stop-color="#6aa93b"/>
    <stop offset="1" stop-color="#74b841"/>
  </linearGradient>
  <path d="m47 24c0 22.703-.297 23-23 23-22.703 0-23-.297-23-23 0-22.703.297-23 23-23 22.703 0 23 .297 23 23z" fill="url(#a)"/>
  <path d="m13 36h12v-4h-4l2.777-4.355 5.227 8.355h5.996l-8.16-12.871 7.156-11.129h-5.996l-4 6.5-4-6.5h-6l6.914 11.09m-7.914 12.906" opacity=".1" transform="translate(1 1)"/>
  <path d="m13 36h12v-4h-4l2.777-4.355 5.227 8.355h5.996l-8.16-12.871 7.156-11.129h-5.996l-4 6.5-4-6.5h-6l6.914 11.09m-7.914 12.906" fill="#f9f9f9"/>
</svg>
