<svg viewBox="0 0 48 48" xmlns="http://www.w3.org/2000/svg" xmlns:xlink="http://www.w3.org/1999/xlink">
  <linearGradient id="a" gradientTransform="matrix(0 -1 1 0 -.0000015 47.999998)" gradientUnits="userSpaceOnUse" x1="1" x2="47">
    <stop offset="0" stop-color="#903078"/>
    <stop offset="1" stop-color="#9e3583"/>
  </linearGradient>
  <path d="m47 24c0 22.703-.297 23-23 23-22.703 0-23-.297-23-23 0-22.703.297-23 23-23 22.703 0 23 .297 23 23z" fill="url(#a)"/>
  <path d="m15.03 35.969l4.969.031v-16l8 16h5v-24h-6v4h2v12l-8-16h-5.996m.031 23.969" opacity=".1" transform="translate(1 1)"/>
  <path d="m15.03 35.969l4.969.031v-16l8 16h5v-24h-6v4h2v12l-8-16h-5.996m.031 23.969" fill="#f9f9f9"/>
</svg>
