<svg viewBox="0 0 48 48" xmlns="http://www.w3.org/2000/svg" xmlns:xlink="http://www.w3.org/1999/xlink">
  <linearGradient id="a" gradientTransform="matrix(0 -1 1 0 -.0000015 47.999998)" gradientUnits="userSpaceOnUse" x1="1" x2="47">
    <stop offset="0" stop-color="#0d66b9"/>
    <stop offset="1" stop-color="#0e71cc"/>
  </linearGradient>
  <path d="m47 24c0 22.703-.297 23-23 23-22.703 0-23-.297-23-23 0-22.703.297-23 23-23 22.703 0 23 .297 23 23z" fill="url(#a)"/>
  <path d="m15 36l-5-24h5l2.715 13 3.281-13h5l3.508 14 2.496-10h-2v-4h8l-6 24h-5l-3.5-14-3.5 14m-5 0" opacity=".1" transform="translate(1 1)"/>
  <path d="m15 36l-5-24h5l2.715 13 3.281-13h5l3.508 14 2.496-10h-2v-4h8l-6 24h-5l-3.5-14-3.5 14m-5 0" fill="#f9f9f9"/>
</svg>
