<svg xmlns="http://www.w3.org/2000/svg" viewBox="0 0 48 48">
 <defs>
  <linearGradient id="linearGradient3764" x1="1" x2="47" gradientUnits="userSpaceOnUse" gradientTransform="matrix(0,-1,1,0,-1.5e-6,47.999998)">
   <stop style="stop-color:#094989;stop-opacity:1"/>
   <stop offset="1" style="stop-color:#0a539c;stop-opacity:1"/>
  </linearGradient>
 </defs>
 <g>
  
  
  
 </g>
 <g>
  <path d="m 47,24 C 47,46.703 46.703,47 24,47 1.297,47 1,46.703 1,24 1,1.297 1.297,1 24,1 46.703,1 47,1.297 47,24 z" style="fill:url(#linearGradient3764);fill-opacity:1"/>
 </g>
 <g>
  
 </g>
 <rect rx="3" y="12" x="12" height="26" width="26" style="fill:#000;opacity:0.1;fill-opacity:1;stroke:none"/>
 <rect width="26" height="26" x="11" y="11" rx="3" style="fill:#6d92db;opacity:1;fill-opacity:1;stroke:none"/>
 <rect rx="1.5" ry="1.4" y="15" x="15" height="20" width="20" style="fill:#000;opacity:0.1;fill-opacity:1;stroke:none"/>
 <rect width="20" height="20" x="14" y="14" ry="1.4" rx="1.5" style="fill:#2a2a2a;opacity:1;fill-opacity:1;stroke:none"/>
 <path d="m 17 17 7 8 -7 8 c 5.333 0 10.667 0 16 0 l 0 -5 -3 0 0 2 -6.5 0 4.5 -5 -4.5 -5 6.5 0 0 2 3 0 c 0 -1.667 0 -3.333 0 -5 -5.333 0 -10.667 0 -16 0 z" style="fill:#000;opacity:0.1;fill-opacity:1;stroke:none"/>
 <path d="m 16 16 7 8 -7 8 c 5.333 0 10.667 0 16 0 l 0 -5 -3 0 0 2 -6.5 0 4.5 -5 -4.5 -5 6.5 0 0 2 3 0 c 0 -1.667 0 -3.333 0 -5 -5.333 0 -10.667 0 -16 0 z" style="fill:#f9f9f9;opacity:1;fill-opacity:1;stroke:none"/>
</svg>
