<svg viewBox="0 0 48 48" xmlns="http://www.w3.org/2000/svg" xmlns:xlink="http://www.w3.org/1999/xlink">
  <linearGradient id="a" gradientTransform="matrix(0 -1 1 0 -.0000015 47.999998)" gradientUnits="userSpaceOnUse" x1="1" x2="47">
    <stop offset="0" stop-color="#094989"/>
    <stop offset="1" stop-color="#0a539c"/>
  </linearGradient>
  <path d="m47 24c0 22.703-.297 23-23 23-22.703 0-23-.297-23-23 0-22.703.297-23 23-23 22.703 0 23 .297 23 23z" fill="url(#a)"/>
  <rect height="26" opacity=".1" rx="3" width="26" x="12" y="12"/>
  <rect fill="#6d92db" height="26" rx="3" width="26" x="11" y="11"/>
  <rect height="20" opacity=".1" rx="1.5" ry="1.4" width="20" x="15" y="15"/>
  <rect fill="#2a2a2a" height="20" rx="1.5" ry="1.4" width="20" x="14" y="14"/>
  <path d="m17 17l7 8-7 8c5.333 0 10.667 0 16 0v-5h-3v2h-6.5l4.5-5-4.5-5h6.5v2h3c0-1.667 0-3.333 0-5-5.333 0-10.667 0-16 0z" opacity=".1"/>
  <path d="m16 16l7 8-7 8c5.333 0 10.667 0 16 0v-5h-3v2h-6.5l4.5-5-4.5-5h6.5v2h3c0-1.667 0-3.333 0-5-5.333 0-10.667 0-16 0z" fill="#f9f9f9"/>
</svg>
