<svg xmlns="http://www.w3.org/2000/svg" viewBox="0 0 48 48">
 <defs>
  <linearGradient id="linearGradient3764" x1="1" x2="47" gradientUnits="userSpaceOnUse" gradientTransform="matrix(0,-1,1,0,-1.5e-6,47.999998)">
   <stop style="stop-color:#48a1e0;stop-opacity:1"/>
   <stop offset="1" style="stop-color:#5aa9e3;stop-opacity:1"/>
  </linearGradient>
 </defs>
 <g>
  
  
  
 </g>
 <g>
  <path d="m 47,24 C 47,46.703 46.703,47 24,47 1.297,47 1,46.703 1,24 1,1.297 1.297,1 24,1 46.703,1 47,1.297 47,24 z" style="fill:url(#linearGradient3764);fill-opacity:1"/>
 </g>
 <g>
  <g>
   <g transform="translate(1,1)">
    <g style="opacity:0.1">
     <!-- color: #5aa9e3 -->
     <g>
      <path d="m 24 11 c 0.734 0 1 0.266 1 1 l 0 9 c 0 0.734 -0.266 1 -1 1 l -12 0 c -0.73 0 -1 -0.266 -1 -1 l 0 -9 c 0 -0.734 0.27 -1 1 -1" style="fill:#000;fill-opacity:1;stroke:none;fill-rule:nonzero"/>
      <path d="m 37 24 c 0 0.734 -0.266 1 -1 1 l -8 0 c -0.734 0 -1 -0.266 -1 -1 l 0 -10 c 0 -0.73 0.266 -1 1 -1 l 8 0 c 0.734 0 1 0.27 1 1" style="fill:#000;fill-opacity:1;stroke:none;fill-rule:nonzero"/>
      <path d="m 30 28 c 0.734 0 1 0.266 1 1 l 0 7 c 0 0.734 -0.266 1 -1 1 l -16 0 c -0.73 0 -1 -0.266 -1 -1 l 0 -7 c 0 -0.734 0.27 -1 1 -1" style="fill:#000;fill-opacity:1;stroke:none;fill-rule:nonzero"/>
     </g>
    </g>
   </g>
  </g>
 </g>
 <g>
  <g>
   <!-- color: #5aa9e3 -->
   <g>
    <path d="m 24 11 c 0.734 0 1 0.266 1 1 l 0 1 c -1 1 -13 1 -14 0 l 0 -1 c 0 -0.734 0.27 -1 1 -1" style="fill:#ccc;fill-opacity:1;stroke:none;fill-rule:nonzero"/>
    <path d="m 36 13 c 0.727 0 1 0.266 1 1 l 0 1 c -1 1 -9 1 -10 0 l 0 -1 c 0 -0.734 0.278 -1 1 -1" style="fill:#ccc;fill-opacity:1;stroke:none;fill-rule:nonzero"/>
    <path d="m 25 13 0 8 c 0 0.734 -0.266 1 -1 1 l -12 0 c -0.73 0 -1 -0.266 -1 -1 l 0 -8" style="fill:#f2f2f2;fill-opacity:1;stroke:none;fill-rule:nonzero"/>
    <path d="m 37 15 0 9 c 0 0.734 -0.274 1 -1 1 l -8 0 c -0.727 0 -1 -0.266 -1 -1 l 0 -9" style="fill:#f2f2f2;fill-opacity:1;stroke:none;fill-rule:nonzero"/>
    <path d="m 30 28 c 0.734 0 1 0.266 1 1 l 0 1 c -1 1 -17 1 -18 0 l 0 -1 c 0 -0.734 0.27 -1 1 -1" style="fill:#ccc;fill-opacity:1;stroke:none;fill-rule:nonzero"/>
    <path d="m 31 30 0 6 c 0 0.734 -0.266 1 -1 1 l -16 0 c -0.73 0 -1 -0.266 -1 -1 l 0 -6" style="fill:#f2f2f2;fill-opacity:1;stroke:none;fill-rule:nonzero"/>
   </g>
  </g>
 </g>
 <g>
  
 </g>
</svg>
