<svg viewBox="0 0 48 48" xmlns="http://www.w3.org/2000/svg" xmlns:xlink="http://www.w3.org/1999/xlink">
  <linearGradient id="a" gradientTransform="matrix(0 -1 1 0 -.0000015 47.999998)" gradientUnits="userSpaceOnUse" x1="1" x2="47">
    <stop offset="0" stop-color="#faaa60"/>
    <stop offset="1" stop-color="#fbb473"/>
  </linearGradient>
  <path d="m47 24c0 22.703-.297 23-23 23-22.703 0-23-.297-23-23 0-22.703.297-23 23-23 22.703 0 23 .297 23 23z" fill="url(#a)"/>
  <g transform="matrix(3.543307 0 0 3.543307 -.00178294 -.03422378)">
    <path d="m25 11c-7.18 0-13 6.268-13 14 0 1.68.284 3.288.791 4.779-.014.087-.024.175-.025.264-.104 0-.212.009-.316.047l-.213.078c-.461.168-.699.674-.531 1.135l1.447 3.975c.168.461.674.697 1.135.529l.215-.078c.127-.046.231-.122.32-.211.471.461 1.177.642 1.84.4l.43-.156c.922-.336 1.394-1.349 1.059-2.271l-1.523-4.188c-.329-.904-1.308-1.369-2.215-1.072-.263-1.029-.412-2.11-.412-3.23 0-3.212 1.165-6.122 3.049-8.275.269.27 1.157.275 1.545.275 1.854-1.268 4.051-2 6.406-2 2.355 0 4.552.732 6.406 2 .365 0 1.256-.002 1.588-.227 1.859 2.149 3.01 5.04 3.01 8.227 0 1.123-.148 2.206-.412 3.236-.906-.296-1.884.171-2.213 1.074l-1.523 4.188c-.336.922.136 1.936 1.059 2.271l.428.156c.689.251 1.428.051 1.898-.451.094.104.206.195.348.246l.213.078c.461.168.969-.068 1.137-.529l1.445-3.975c.168-.461-.068-.967-.529-1.135l-.215-.078c-.133-.048-.267-.055-.398-.041 0-.088-.011-.176-.025-.262.507-1.492.789-3.099.789-4.779 0-7.732-5.82-14-13-14z" opacity=".1" transform="scale(.28222223)"/>
    <g transform="translate(.00010926)">
      <path d="m24 12c-2.93 0-5.604 1.142-7.688 3.03-1.112.969.688.969 1.281.969 1.854-1.268 4.051-2 6.406-2 2.355 0 4.552.732 6.406 2 .594 0 2.594 0 1.281-.969-2.084-1.889-4.758-3.03-7.688-3.03" fill="#636890" transform="scale(.28222223)"/>
      <path d="m24 10c-7.18 0-13 6.268-13 14 0 2.551.643 4.94 1.75 7h2.313c-1.299-1.97-2.063-4.388-2.063-7 0-6.627 4.925-12 11-12 6.075 0 11 5.373 11 12 0 2.612-.763 5.03-2.063 7h2.313c1.107-2.06 1.75-4.449 1.75-7 0-7.732-5.82-14-13-14" fill="#f8f0e2" transform="scale(.28222223)"/>
      <rect fill="#636890" height="1.693" rx=".25" transform="matrix(.93969262 -.34202015 .34202015 .93969262 0 0)" width=".564" x="-.086" y="8.82"/>
      <rect fill="#ce1c22" height="2.258" rx=".5" transform="matrix(.93969262 -.34202015 .34202015 .93969262 0 0)" width="1.129" x=".283" y="8.514"/>
      <rect fill="#636890" height="1.693" rx=".25" transform="matrix(-.93969262 -.34202015 -.34202015 .93969262 0 0)" width=".564" x="-12.837" y="4.176"/>
      <rect fill="#ce1c22" height="2.258" rx=".5" transform="matrix(-.93969262 -.34202015 -.34202015 .93969262 0 0)" width="1.129" x="-12.447" y="3.883"/>
    </g>
  </g>
</svg>
