<svg viewBox="0 0 48 48" xmlns="http://www.w3.org/2000/svg">
  <path d="m24 1c-22.703 0-23 .297-23 23h23z" fill="#1793cf" fill-rule="evenodd"/>
  <path d="m24 24v23c22.703 0 23-.297 23-23z" fill="#dd4512" fill-rule="evenodd"/>
  <path d="m24 1v23h23c0-22.703-.297-23-23-23z" fill="#a8a2f4" fill-rule="evenodd"/>
  <path d="m1 24c0 22.703.297 23 23 23v-23z" fill="#283e70" fill-rule="evenodd"/>
  <path d="m16 10c-.535 1.313-.844 2.163-1.438 3.438.363.387.809.832 1.531 1.344-.781-.324-1.321-.637-1.719-.969-.762 1.59-1.953 3.84-4.375 8.188 1.902-1.098 3.375-1.773 4.75-2.031-.059-.258-.094-.527-.094-.813v-.063c.027-1.219.652-2.156 1.406-2.094.75.066 1.343 1.095 1.313 2.313-.004.23-.02.453-.063.656 1.359.266 2.813.953 4.688 2.031-.367-.68-.714-1.289-1.031-1.875-.496-.383-1-.895-2.063-1.438.723.188 1.254.414 1.656.656-3.207-5.973-3.462-6.766-4.563-9.344zm16.75 0c-2.586.121-4.605 2.446-4.5 3.719.102 1.238 3.254 2.336 3.219 2.375-.645.543-1.086.914-1.625 1.406-1.293 1.176-2.173 2.024-1.719 3.25.52 1.41 1.66 1.356 3 1.094 3.457-.68 9.164-5.05 8.875-6.656-.234-1.297-3.429-3.859-5.313-4.781-.586-.285-1.261-.438-1.938-.406zm.531 2.219c.324-.031.707.074 1.125.281.918.441 1.867 1.613 0 2.281-.508.18-2.145-.457-2.094-1.313.043-.793.43-1.199.969-1.25zm-14.688 15.781c-1.406 0-2.609.843-3.125 2.063-.004.008.004.023 0 .031-.165.399-.281.854-.281 1.313v1.813h-1.406-.375c-1.867 0-3.406 1.508-3.406 3.375 0 1.74 1.336 3.186 3.03 3.375.12.017.232.031.375.031 1.875 0 3.406-1.531 3.406-3.406v-1.781h1.406.375c1.871 0 3.406-1.539 3.406-3.406 0-1.599-1.127-2.957-2.625-3.313-.111-.028-.213-.047-.313-.063-.02-.003-.042.003-.063 0-.12-.016-.264-.031-.406-.031zm15.406 0c-3.313 0-6 2.688-6 6 0 3.313 2.688 6 6 6 3.313 0 6-2.688 6-6 0-3.313-2.688-6-6-6zm-15.406 1.625c.243 0 .342.019.469.031.781.202 1.344.9 1.344 1.75 0 1.01-.8 1.813-1.813 1.813h-1.531c-.141 0-.25-.109-.25-.25v-1.563c0-.247.034-.473.125-.688.003-.009-.004-.023 0-.031.277-.631.921-1.063 1.656-1.063zm17.469.031c.125.004.254.051.375.125.383.219.532.707.313 1.094-.219.383-.711.5-1.094.281-.383-.219-.532-.711-.313-1.094.152-.262.434-.41.719-.406zm-2.063.875c.32 0 .641.043.938.125.055.32.226.601.531.781.305.176.664.211.969.094.59.578.973 1.367 1.031 2.25h-1.125c-.109-1.195-1.121-2.125-2.344-2.125-.352 0-.669.078-.969.219l-.563-1c .465-.23.972-.344 1.531-.344zm-1.938.594l.594.969c-.602.422-1 1.109-1 1.906 0 .789.402 1.48 1 1.906l-.594 1c-.699-.469-1.223-1.196-1.438-2.031.25-.207.406-.527.406-.875 0-.352-.156-.668-.406-.875.215-.84.738-1.532 1.438-2zm-2.156 2.094c.441 0 .813.335.813.781 0 .441-.37.813-.813.813-.445 0-.781-.37-.781-.813 0-.445.335-.781.781-.781zm6.438 1h1.125c-.059.883-.441 1.664-1.031 2.25-.305-.113-.664-.082-.969.094-.305.176-.48.457-.531.781-.297.082-.617.125-.938.125-.555 0-1.093-.114-1.563-.344l.594-1c .301.145.614.219.969.219 1.223 0 2.235-.933 2.344-2.125zm-22.938.594h1.594c.11.029.219.101.219.219v1.563c0 .988-.82 1.813-1.813 1.813-.208 0-.298-.02-.406-.031-.816-.178-1.406-.875-1.406-1.75 0-1 .8-1.813 1.813-1.813zm22.625 1.938c.281-.008.535.11.688.375.219.383.102.902-.281 1.125-.383.219-.867.071-1.094-.313-.219-.383-.102-.871.281-1.094.121-.07.273-.09.406-.094z" fill-rule="evenodd" opacity=".1"/>
  <path d="m31.754 9c-2.586.121-4.613 2.457-4.508 3.73.102 1.238 3.246 2.32 3.211 2.359-.645.543-1.066.906-1.605 1.398-1.293 1.176-2.184 2.047-1.73 3.273.52 1.41 1.66 1.352 3 1.09 3.457-.68 9.156-5.04 8.867-6.648-.234-1.297-3.418-3.871-5.301-4.793-.586-.285-1.258-.438-1.934-.406m.531 2.227c.324-.031.703.051 1.121.258.918.441 1.867 1.613 0 2.281-.508.18-2.137-.438-2.086-1.293.043-.793.426-1.195.965-1.246m0 0" fill="#fff" fill-rule="evenodd"/>
  <path d="m17.598 33.797c1.871 0 3.402-1.531 3.402-3.398 0-1.867-1.531-3.398-3.402-3.398-1.867 0-3.398 1.531-3.398 3.398v3.398m3.398-1.59h-1.809v-1.813c0-1.012.801-1.813 1.809-1.813 1.012 0 1.813.801 1.813 1.813 0 1.01-.801 1.813-1.813 1.813m0 0" fill="#3c6eb2"/>
  <path d="m12.402 32.21c-1.867 0-3.402 1.531-3.402 3.398 0 1.867 1.531 3.398 3.402 3.398 1.867 0 3.402-1.531 3.402-3.398v-3.398m-3.402 1.594h1.809v1.809c0 1.01-.801 1.813-1.809 1.813-1.012 0-1.813-.801-1.813-1.813 0-1 .801-1.809 1.813-1.809m0 0" fill="#3c6eb2"/>
  <path d="m17.598 27c-1.875 0-3.398 1.523-3.398 3.398v1.809h-1.426c-.441 0-.801.348-.801.793 0 .438.355.789.793.789h1.18c.145 0 .258.113.258.254v1.559c0 .988-.805 1.793-1.797 1.793-.336 0-.418-.039-.648-.039-.484 0-.801.32-.801.762 0 .367.313.684.695.785.266.066.469.102.754.102 1.875 0 3.402-1.523 3.402-3.398v-1.805h1.422c.445 0 .805-.352.805-.793 0-.441-.355-.793-.793-.793h-1.18c-.141 0-.254-.113-.254-.254v-1.559c0-.988.801-1.793 1.793-1.793.34 0 .418.043.648.043.484 0 .805-.324.805-.766 0-.367-.313-.684-.695-.785-.266-.066-.469-.098-.754-.098m-.008-.004" fill="#f9f9f9"/>
  <path d="m33 27c-3.313 0-6 2.688-6 6 0 3.313 2.688 5.996 6 5.996 3.313 0 5.996-2.684 5.996-5.996 0-3.313-2.684-6-5.996-6m2.063 1.664c.125.004.258.035.379.109.383.219.512.711.293 1.098-.219.383-.711.508-1.094.289-.383-.219-.516-.711-.297-1.094.152-.262.434-.406.719-.402m-2.063.855c.32 0 .633.047.93.129.055.32.242.613.547.793.305.176.656.195.961.078.59.578.977 1.375 1.035 2.258l-1.141.016c-.109-1.195-1.109-2.133-2.332-2.133-.352 0-.684.078-.984.219l-.559-.996c.465-.23.984-.359 1.543-.359m-1.934.582l.59.98c-.602.422-.996 1.121-.996 1.918 0 .789.398 1.488.996 1.914l-.59.984c-.699-.469-1.223-1.188-1.438-2.023.25-.207.41-.523.41-.871 0-.352-.16-.668-.41-.875.215-.84.738-1.555 1.438-2.023m-2.148 2.094c.441 0 .805.355.805.801 0 .441-.363.801-.805.801-.445 0-.801-.359-.801-.801 0-.445.355-.801.801-.801m6.414 1l1.141.02c-.059.883-.445 1.672-1.035 2.258-.305-.113-.656-.098-.961.078-.305.176-.496.469-.547.793-.297.082-.609.125-.93.125-.555 0-1.078-.129-1.547-.359l.563-.996c.301.145.629.227.984.227 1.223 0 2.223-.941 2.332-2.133m-.313 2.52c.281-.008.563.137.715.402.219.383.09.875-.293 1.098-.383.219-.871.086-1.098-.297-.219-.383-.086-.871.297-1.094.121-.07.246-.105.379-.109m0 0" fill="#f9f9f9"/>
  <path d="m15 9c-.535 1.313-.859 2.164-1.453 3.438.363.387.813.836 1.535 1.348-.781-.324-1.313-.648-1.711-.98-.762 1.59-1.949 3.852-4.371 8.199 1.902-1.098 3.375-1.773 4.75-2.031-.059-.258-.09-.531-.09-.816v-.063c.027-1.219.66-2.152 1.414-2.09.75.066 1.336 1.102 1.305 2.32-.004.23-.035.453-.078.656 1.359.266 2.816.945 4.691 2.023-.367-.68-.699-1.293-1.016-1.879-.496-.383-1.012-.883-2.07-1.426.723.188 1.246.406 1.648.648-3.207-5.973-3.465-6.762-4.566-9.34m.012-.008" fill="#f9f9f9" fill-rule="evenodd"/>
</svg>
