<svg xmlns="http://www.w3.org/2000/svg" viewBox="0 0 48 48">
 <defs>
  <linearGradient id="linearGradient3764" x1="1" x2="47" gradientUnits="userSpaceOnUse" gradientTransform="matrix(0,-1,1,0,-1.5e-6,47.999998)">
   <stop style="stop-color:#fd8536;stop-opacity:1"/>
   <stop offset="1" style="stop-color:#fd944f;stop-opacity:1"/>
  </linearGradient>
 </defs>
 <g>
  
  
  
 </g>
 <g>
  <path d="m 47,24 C 47,46.703 46.703,47 24,47 1.297,47 1,46.703 1,24 1,1.297 1.297,1 24,1 46.703,1 47,1.297 47,24 z" style="fill:url(#linearGradient3764);fill-opacity:1"/>
 </g>
 <g>
  
 </g>
 <g transform="matrix(3.543307,0,0,3.543307,-8.8560675e-4,-2.9411277e-4)">
  <g transform="translate(0.28222217,0.28222217)" style="fill:#000;opacity:0.1;fill-opacity:1">
   <path d="m 3.387 3.387 c -1.129 2.54 -1.129 4.233 0 6.773 2.258 1.129 4.516 1.129 6.773 0 1.129 -2.54 1.129 -4.233 0 -6.773 -2.258 -1.129 -4.516 -1.129 -6.773 0 z" style="stroke:none"/>
   <path transform="matrix(0.05941521,0,0,0.03527778,5.1245616,2.8575001)" d="m -15 23 c 0 8.837 -4.253 16 -9.5 16 -5.247 0 -9.5 -7.163 -9.5 -16 0 -8.837 4.253 -16 9.5 -16 5.247 0 9.5 7.163 9.5 16 z" style="stroke:none"/>
   <path d="m -15 23 c 0 8.837 -4.253 16 -9.5 16 -5.247 0 -9.5 -7.163 -9.5 -16 0 -8.837 4.253 -16 9.5 -16 5.247 0 9.5 7.163 9.5 16 z" transform="matrix(0.05941521,0,0,0.03527778,5.1245616,9.0663897)" style="stroke:none"/>
   <path transform="matrix(0.05941521,0,0,0.03527778,11.33345,9.0663897)" d="m -15 23 c 0 8.837 -4.253 16 -9.5 16 -5.247 0 -9.5 -7.163 -9.5 -16 0 -8.837 4.253 -16 9.5 -16 5.247 0 9.5 7.163 9.5 16 z" style="stroke:none"/>
   <path d="m -15 23 c 0 8.837 -4.253 16 -9.5 16 -5.247 0 -9.5 -7.163 -9.5 -16 0 -8.837 4.253 -16 9.5 -16 5.247 0 9.5 7.163 9.5 16 z" transform="matrix(0.05941521,0,0,0.03527778,11.33345,2.8575001)" style="stroke:none"/>
  </g>
  <path d="m 3.387 3.387 c -1.129 2.54 -1.129 4.233 0 6.773 2.258 1.129 4.516 1.129 6.773 0 1.129 -2.54 1.129 -4.233 0 -6.773 -2.258 -1.129 -4.516 -1.129 -6.773 0 z" style="fill:#ecf1f4;fill-opacity:1;stroke:none"/>
  <path d="m -13 15.5 a 8.5 8.5 0 1 1 -17 0 8.5 8.5 0 1 1 17 0 z" transform="matrix(0.431634,0,0,0.431634,16.053464,0.08300648)" style="fill:#697b7c;fill-opacity:1;stroke:none"/>
  <path transform="matrix(0.33202615,0,0,0.33202615,13.911896,1.6269282)" d="m -13 15.5 a 8.5 8.5 0 1 1 -17 0 8.5 8.5 0 1 1 17 0 z" style="fill:#ffbf5c;fill-opacity:1;stroke:none"/>
  <path transform="matrix(0.05941521,0,0,0.03527778,5.1245616,2.8575001)" d="m -15 23 a 9.5 16 0 1 1 -19 0 9.5 16 0 1 1 19 0 z" style="fill:#ecf1f4;fill-opacity:1;stroke:none"/>
  <path d="m -15 23 a 9.5 16 0 1 1 -19 0 9.5 16 0 1 1 19 0 z" transform="matrix(0.05941521,0,0,0.03527778,5.1245616,9.0663897)" style="fill:#ecf1f4;fill-opacity:1;stroke:none"/>
  <path transform="matrix(0.05941521,0,0,0.03527778,11.33345,9.0663897)" d="m -15 23 a 9.5 16 0 1 1 -19 0 9.5 16 0 1 1 19 0 z" style="fill:#ecf1f4;fill-opacity:1;stroke:none"/>
  <path d="m -15 23 a 9.5 16 0 1 1 -19 0 9.5 16 0 1 1 19 0 z" transform="matrix(0.05941521,0,0,0.03527778,11.33345,2.8575001)" style="fill:#ecf1f4;fill-opacity:1;stroke:none"/>
  <path d="m -13 15.5 a 8.5 8.5 0 1 1 -17 0 8.5 8.5 0 1 1 17 0 z" transform="matrix(0.23241831,0,0,0.23241831,11.770327,3.1708497)" style="fill:#5c5d5e;fill-opacity:1;stroke:none"/>
  <path transform="matrix(0.06640523,0,0,0.06640523,7.9188237,5.179608)" d="m -13 15.5 a 8.5 8.5 0 1 1 -17 0 8.5 8.5 0 1 1 17 0 z" style="fill:#f7f5e9;fill-opacity:1;stroke:none"/>
  <path d="M 13 6 A 1.248 1 0 1 1 10.503 6 1.248 1 0 1 1 13 6" transform="matrix(0.22605589,0,0,0.28222223,1.0123848,1.9755556)" style="fill:#bec9ce;fill-opacity:1;stroke:none"/>
  <path transform="matrix(0.22605589,0,0,0.28222223,7.2212738,1.9755556)" d="M 13 6 A 1.248 1 0 1 1 10.503 6 1.248 1 0 1 1 13 6" style="fill:#bec9ce;fill-opacity:1;stroke:none"/>
  <path d="M 13 6 A 1.248 1 0 1 1 10.503 6 1.248 1 0 1 1 13 6" transform="matrix(0.22605589,0,0,0.28222223,7.2212738,8.1844446)" style="fill:#bec9ce;fill-opacity:1;stroke:none"/>
  <path transform="matrix(0.22605589,0,0,0.28222223,1.0123848,8.1844446)" d="M 13 6 A 1.248 1 0 1 1 10.503 6 1.248 1 0 1 1 13 6" style="fill:#bec9ce;fill-opacity:1;stroke:none"/>
 </g>
</svg>
