<svg viewBox="0 0 48 48" xmlns="http://www.w3.org/2000/svg" xmlns:xlink="http://www.w3.org/1999/xlink">
  <linearGradient id="a" gradientTransform="matrix(0 -1 1 0 -.0000015 47.999998)" gradientUnits="userSpaceOnUse" x1="1" x2="47">
    <stop offset="0" stop-color="#fd8536"/>
    <stop offset="1" stop-color="#fd944f"/>
  </linearGradient>
  <path d="m47 24c0 22.703-.297 23-23 23-22.703 0-23-.297-23-23 0-22.703.297-23 23-23 22.703 0 23 .297 23 23z" fill="url(#a)"/>
  <g transform="matrix(3.543307 0 0 3.543307 -.00088561 -.00029411)">
    <g opacity=".1" transform="translate(.28222217 .28222217)">
      <path d="m3.387 3.387c-1.129 2.54-1.129 4.233 0 6.773 2.258 1.129 4.516 1.129 6.773 0 1.129-2.54 1.129-4.233 0-6.773-2.258-1.129-4.516-1.129-6.773 0z"/>
      <path d="m-15 23c0 8.837-4.253 16-9.5 16-5.247 0-9.5-7.163-9.5-16 0-8.837 4.253-16 9.5-16 5.247 0 9.5 7.163 9.5 16z" transform="matrix(.05941521 0 0 .03527778 5.1245616 2.8575001)"/>
      <path d="m-15 23c0 8.837-4.253 16-9.5 16-5.247 0-9.5-7.163-9.5-16 0-8.837 4.253-16 9.5-16 5.247 0 9.5 7.163 9.5 16z" transform="matrix(.05941521 0 0 .03527778 5.1245616 9.0663897)"/>
      <path d="m-15 23c0 8.837-4.253 16-9.5 16-5.247 0-9.5-7.163-9.5-16 0-8.837 4.253-16 9.5-16 5.247 0 9.5 7.163 9.5 16z" transform="matrix(.05941521 0 0 .03527778 11.33345 9.0663897)"/>
      <path d="m-15 23c0 8.837-4.253 16-9.5 16-5.247 0-9.5-7.163-9.5-16 0-8.837 4.253-16 9.5-16 5.247 0 9.5 7.163 9.5 16z" transform="matrix(.05941521 0 0 .03527778 11.33345 2.8575001)"/>
    </g>
    <path d="m3.387 3.387c-1.129 2.54-1.129 4.233 0 6.773 2.258 1.129 4.516 1.129 6.773 0 1.129-2.54 1.129-4.233 0-6.773-2.258-1.129-4.516-1.129-6.773 0z" fill="#ecf1f4"/>
    <path d="m-13 15.5a8.5 8.5 0 1 1-17 0 8.5 8.5 0 1 1  17 0z" fill="#697b7c" transform="matrix(.431634 0 0 .431634 16.053464 .08300648)"/>
    <path d="m-13 15.5a8.5 8.5 0 1 1-17 0 8.5 8.5 0 1 1  17 0z" fill="#ffbf5c" transform="matrix(.33202615 0 0 .33202615 13.911896 1.6269282)"/>
    <path d="m-15 23a9.5 16 0 1 1-19 0 9.5 16 0 1 1  19 0z" fill="#ecf1f4" transform="matrix(.05941521 0 0 .03527778 5.1245616 2.8575001)"/>
    <path d="m-15 23a9.5 16 0 1 1-19 0 9.5 16 0 1 1  19 0z" fill="#ecf1f4" transform="matrix(.05941521 0 0 .03527778 5.1245616 9.0663897)"/>
    <path d="m-15 23a9.5 16 0 1 1-19 0 9.5 16 0 1 1  19 0z" fill="#ecf1f4" transform="matrix(.05941521 0 0 .03527778 11.33345 9.0663897)"/>
    <path d="m-15 23a9.5 16 0 1 1-19 0 9.5 16 0 1 1  19 0z" fill="#ecf1f4" transform="matrix(.05941521 0 0 .03527778 11.33345 2.8575001)"/>
    <path d="m-13 15.5a8.5 8.5 0 1 1-17 0 8.5 8.5 0 1 1  17 0z" fill="#5c5d5e" transform="matrix(.23241831 0 0 .23241831 11.770327 3.1708497)"/>
    <path d="m-13 15.5a8.5 8.5 0 1 1-17 0 8.5 8.5 0 1 1  17 0z" fill="#f7f5e9" transform="matrix(.06640523 0 0 .06640523 7.9188237 5.179608)"/>
    <path d="m13 6a1.248 1 0 1 1-2.497 0 1.248 1 0 1 1  2.497 0" fill="#bec9ce" transform="matrix(.22605589 0 0 .28222223 1.0123848 1.9755556)"/>
    <path d="m13 6a1.248 1 0 1 1-2.497 0 1.248 1 0 1 1  2.497 0" fill="#bec9ce" transform="matrix(.22605589 0 0 .28222223 7.2212738 1.9755556)"/>
    <path d="m13 6a1.248 1 0 1 1-2.497 0 1.248 1 0 1 1  2.497 0" fill="#bec9ce" transform="matrix(.22605589 0 0 .28222223 7.2212738 8.1844446)"/>
    <path d="m13 6a1.248 1 0 1 1-2.497 0 1.248 1 0 1 1  2.497 0" fill="#bec9ce" transform="matrix(.22605589 0 0 .28222223 1.0123848 8.1844446)"/>
  </g>
</svg>
