<svg viewBox="0 0 48 48" xmlns="http://www.w3.org/2000/svg" xmlns:xlink="http://www.w3.org/1999/xlink">
  <linearGradient id="a" gradientUnits="userSpaceOnUse" x2="0" y1="47" y2="1">
    <stop offset="0" stop-color="#ffd941"/>
    <stop offset="1" stop-color="#fd5"/>
  </linearGradient>
  <path d="m24 1c22.703 0 23 .297 23 23 0 22.703-.297 23-23 23-22.703 0-23-.297-23-23 0-22.703.297-23 23-23z" fill="url(#a)"/>
  <path d="m29.508 12l-.336.336c-.002.002-.005.004-.008.006-5.624 5.636-11.246 11.275-16.871 16.91-.389.39-.389 1.018 0 1.408l7.03 7.05c.389.39 1.017.39 1.406 0l2.322-2.326.057.057 14.893-14.926-.158-.16c.091-.333.02-.702-.242-.965l-7.03-7.04c-.263-.263-.63-.334-.963-.242z" opacity=".1" transform=""/>
  <g transform="translate(.075877 -.04599959)">
    <rect fill="#f9f9f9" height="11.944" rx=".995" transform="matrix(.70629758 -.70791506 .70629758 .70791506 0 0)" width="25.879" x="-13.04" y="27.927"/>
    <path d="m-8.759 27.929h21.08v12.02h-21.08z" fill="#ff2a2a" transform="matrix(.70629758 -.70791506 .70629758 .70791506 0 0)"/>
    <path d="m-8.737 34.1h21.08v3.984h-21.08z" fill="#ff8080" transform="matrix(.70656325 -.70764989 .70590194 .70830958 0 0)"/>
  </g>
</svg>
