<svg xmlns="http://www.w3.org/2000/svg" viewBox="0 0 48 48">
 <defs>
  <linearGradient id="linearGradient4244" y1="47" x2="0" y2="1" gradientUnits="userSpaceOnUse">
   <stop style="stop-color:#ffd941;stop-opacity:1"/>
   <stop offset="1" style="stop-color:#fd5;stop-opacity:1"/>
  </linearGradient>
 </defs>
 <g>
  
  
  
 </g>
 <g style="fill:#fc0">
  <path d="m 24 1 c 22.703 0 23 0.297 23 23 c 0 22.703 -0.297 23 -23 23 -22.703 0 -23 -0.297 -23 -23 0 -22.703 0.297 -23 23 -23 z" style="fill:url(#linearGradient4244);fill-opacity:1"/>
 </g>
 <g>
  
 </g>
 <g transform="translate(1.075877,0.95400041)" style="fill:#000;opacity:0.1">
  <path d="m 29.508 12 -0.336 0.336 c -0.002 0.002 -0.005 0.004 -0.008 0.006 -5.624 5.636 -11.246 11.275 -16.871 16.91 -0.389 0.39 -0.389 1.018 0 1.408 l 7.03 7.05 c 0.389 0.39 1.017 0.39 1.406 0 l 2.322 -2.326 0.057 0.057 l 14.893 -14.926 -0.158 -0.16 c 0.091 -0.333 0.02 -0.702 -0.242 -0.965 l -7.03 -7.04 c -0.263 -0.263 -0.63 -0.334 -0.963 -0.242 z" transform="translate(-1.075877,-0.95400041)" style="opacity:1;fill-opacity:1;stroke:none;fill-rule:nonzero"/>
 </g>
 <g transform="translate(0.075877,-0.04599959)">
  <rect transform="matrix(0.70629758,-0.70791506,0.70629758,0.70791506,0,0)" rx="0.995" y="27.927" x="-13.04" height="11.944" width="25.879" style="fill:#f9f9f9;opacity:1;fill-opacity:1;stroke:none;fill-rule:nonzero"/>
  <rect transform="matrix(0.70629758,-0.70791506,0.70629758,0.70791506,0,0)" y="27.929" x="-8.759" height="12.02" width="21.08" style="fill:#ff2a2a;opacity:1;fill-opacity:1;stroke:none;fill-rule:nonzero"/>
  <rect transform="matrix(0.70656325,-0.70764989,0.70590194,0.70830958,0,0)" y="34.1" x="-8.737" height="3.984" width="21.08" style="fill:#ff8080;opacity:1;fill-opacity:1;stroke:none;fill-rule:nonzero"/>
 </g>
</svg>
