<svg xmlns="http://www.w3.org/2000/svg" viewBox="0 0 48 48">
 <defs>
  <linearGradient id="linearGradient3764" x1="1" x2="47" gradientUnits="userSpaceOnUse" gradientTransform="matrix(0,-1,1,0,-1.5e-6,47.999998)">
   <stop style="stop-color:#3d3d3d;stop-opacity:1"/>
   <stop offset="1" style="stop-color:#474747;stop-opacity:1"/>
  </linearGradient>
 </defs>
 <g>
  
  
  
 </g>
 <g>
  <path d="m 47,24 C 47,46.703 46.703,47 24,47 1.297,47 1,46.703 1,24 1,1.297 1.297,1 24,1 46.703,1 47,1.297 47,24 z" style="fill:url(#linearGradient3764);fill-opacity:1"/>
 </g>
 <g>
  <g>
   <g transform="translate(1,1)">
    <g style="opacity:0.1">
     <!-- color: #474747 -->
    </g>
   </g>
  </g>
 </g>
 <g transform="translate(1.0124444,0)">
  <g>
   <!-- color: #474747 -->
   <g>
    <g>
     <path d="m 14.01 11.998 c 0 0 -1 -0.082 -1 1 l 0 24 c 0 0 -0.2 1 1 1 l 21.998 0 c 0 0 0.998 0.086 0.998 -1 l 0 -16 -8.998 -9" style="fill:#000;fill-opacity:0.098;stroke:none;fill-rule:nonzero"/>
     <g>
      <path d="m 13 11 c 0 0 -1 -0.082 -1 1 l 0 24 c 0 0 -0.2 1 1 1 l 21.998 0 c 0 0 0.998 0.086 0.998 -1 l 0 -16 l -8.998 -9" style="fill:#f9f9f9;fill-opacity:1;stroke:none;fill-rule:nonzero"/>
      <path d="m 23.314 17.11 c 0 0 0.558 5.184 -3.385 12.03 -3.944 6.843 -5.101 5.924 -5.515 5.686 -0.417 -0.235 -0.947 -1 0.801 -2.546 1.748 -1.542 2.431 -1.513 2.431 -1.513 0 0 -1.599 0.979 -2.224 1.926 -0.624 0.95 -1.127 1.542 -0.978 1.809 0.149 0.264 1.934 -1.094 2.676 -2.251 1.177 -1.834 3.401 -5.247 4.439 -8.505 1.038 -3.255 1.754 -6.633 1.754 -6.633 m 0.003 -0.003" style="fill:#b20404;fill-opacity:1;stroke:none;fill-rule:nonzero"/>
      <path d="m 33.476 28.922 c 0 0 -0.091 0.24 -1.17 0.15 -1.081 -0.091 -5.266 -1.392 -7.515 -4.053 -2.248 -2.661 -2.431 -6.32 -2.589 -8.225 -0.154 -1.905 0.701 -1.376 0.822 -1.135 0.193 0.159 0.289 0.681 0.289 0.681 0 0 -0.069 -0.779 -0.409 -1.113 -0.337 -0.331 -0.639 -0.337 -0.977 0.237 -0.337 0.574 -0.495 2.177 -0.216 3.719 0.275 1.544 1.416 5.081 2.832 6.712 1.416 1.636 4.25 3.063 6.345 3.481 2.094 0.425 2.586 -0.451 2.586 -0.451 m 0.003 0" style="fill:#b20404;fill-opacity:1;stroke:none;fill-rule:nonzero"/>
      <path d="m 20.226 29.18 c 0 0 3.996 -1.274 7.782 -1.627 3.786 -0.356 5.085 0.028 5.42 0.295 0.332 0.267 0.332 0.562 0.332 0.562 0 0 0.426 -0.413 0.145 -0.832 -0.235 -0.435 -0.6 -0.795 -3.596 -0.705 -3 0.089 -3.21 0.207 -5.967 0.712 -2.755 0.502 -4.118 1.599 -4.118 1.599 m 0.003 -0.003" style="fill:#b20404;fill-opacity:1;stroke:none;fill-rule:nonzero"/>
      <path d="m 27 11 0 8 c 0 0.554 0.446 1 1 1 l 7.998 0 -8.998 -9" style="fill:#dcdcdc;fill-opacity:1;stroke:none;fill-rule:nonzero"/>
     </g>
    </g>
   </g>
  </g>
 </g>
 <g>
  
 </g>
</svg>
