<svg viewBox="0 0 48 48" xmlns="http://www.w3.org/2000/svg" xmlns:xlink="http://www.w3.org/1999/xlink">
  <linearGradient id="a" gradientTransform="matrix(0 -1 1 0 -.0000015 47.999998)" gradientUnits="userSpaceOnUse" x1="1" x2="47">
    <stop offset="0" stop-color="#ff8e29"/>
    <stop offset="1" stop-color="#ff993d"/>
  </linearGradient>
  <path d="m47 24c0 22.703-.297 23-23 23-22.703 0-23-.297-23-23 0-22.703.297-23 23-23 22.703 0 23 .297 23 23z" fill="url(#a)"/>
  <path d="m31.529 15c-2.336 0-4.703 1.391-4.703 4.047h.402c0-2.41 2.164-3.672 4.301-3.672 1.086 0 2.086.318 2.816.9.824.66 1.258 1.618 1.258 2.771h.4c0-1.266-.482-2.322-1.396-3.053-.805-.645-1.898-.994-3.078-.994zm.021 3.383c-.265 0-.484.203-.484.449 0 .25.214.449.484.449.265 0 .479-.199.479-.449 0-.246-.213-.449-.479-.449zm-13.637 3.104c-.422 0-.814.074-1.193.215-.363.137-.705.32-1.018.57-.309.246-.561.535-.771.859-.211.328-.363.684-.461 1.078h-.043v-2.488h-.422v10.06h.422v-5.688c0-.566.074-1.105.23-1.605.168-.508.398-.953.695-1.332.309-.391.68-.699 1.113-.922.438-.234.92-.352 1.451-.352.605 0 1.096.094 1.475.27.379.188.676.438.887.746.211.316.348.68.418 1.098.086.414.129.859.129 1.328v6.461h.422v-6.383c0-.469.074-.914.23-1.328.152-.434.379-.813.672-1.137.297-.328.652-.582 1.074-.762.422-.199.891-.297 1.41-.297.59 0 1.072.072 1.451.232.391.156.701.375.928.664.238.285.396.633.482 1.035.098.406.148.855.148 1.352l.012 3.699c0 0 .002 0 .002 0 .023.401.06.769.191 1.104.195.438.461.813.801 1.137.348.297.758.527 1.219.684.477.145.996.215 1.559.215 1.066 0 1.93-.254 2.59-.762.672-.512 1.105-1.156 1.305-1.941h.039v2.488h.418l.004-.002v-10.06h-.422v5.695c0 .563-.082 1.098-.25 1.602-.168.512-.422.961-.758 1.355-.324.379-.732.688-1.225.922-.488.223-1.057.332-1.701.332-.465 0-.906-.066-1.328-.184-.406-.133-.772-.32-1.096-.59-.309-.27-.553-.605-.732-1.016-.184-.418-.199-.934-.199-1.523h-.004l-.006-3.154c0-.547-.055-1.041-.168-1.482-.113-.457-.301-.84-.566-1.152-.27-.328-.617-.582-1.055-.766-.434-.188-.98-.273-1.641-.273-.852 0-1.57.215-2.191.648-.617.43-1.031.996-1.242 1.703h-.043c-.184-.746-.563-1.328-1.137-1.746-.566-.434-1.262-.633-2.105-.605zm-3.908.234v-.002l-.006.002z" opacity=".1"/>
  <g fill="#141414">
    <path d="m13 20.723v10.06h.422v-5.688c0-.566.074-1.105.23-1.605.168-.508.398-.953.695-1.332.309-.391.68-.699 1.113-.922.438-.234.922-.352 1.453-.352.605 0 1.094.094 1.473.27.379.188.676.438.887.746.211.316.348.68.418 1.098.086.414.129.859.129 1.328v6.461h.422v-6.383c0-.469.074-.914.23-1.328.152-.434.379-.813.672-1.137.297-.328.652-.582 1.074-.762.422-.199.891-.297 1.41-.297.59 0 1.074.074 1.453.234.391.156.699.375.926.664.238.285.398.633.484 1.035.098.406.148.855.148 1.352l.012 3.699c.004 0 .414-.008.414-.008l-.008-3.691c0-.547-.055-1.043-.168-1.484-.113-.457-.301-.84-.566-1.152-.27-.328-.617-.582-1.055-.766-.434-.188-.98-.273-1.641-.273-.852 0-1.57.215-2.191.648-.617.43-1.031.996-1.242 1.703h-.043c-.184-.746-.563-1.328-1.137-1.746-.566-.434-1.262-.633-2.105-.605-.422 0-.816.074-1.195.215-.363.137-.703.32-1.016.57-.309.246-.563.535-.773.859-.211.328-.363.684-.461 1.078h-.043v-2.488h-.426"/>
    <path d="m34.777 30.785v-10.06h-.422v5.695c0 .563-.082 1.098-.25 1.602-.168.512-.422.961-.758 1.355-.324.379-.73.688-1.223.922-.488.223-1.059.332-1.703.332-.465 0-.906-.066-1.328-.184-.406-.133-.77-.32-1.094-.59-.309-.27-.555-.605-.734-1.016-.184-.418-.199-.934-.199-1.523l-.414.066c0 .156 0 .332 0 .477.023.402.059.77.191 1.105.195.438.461.813.801 1.137.348.297.758.527 1.219.684.477.145.996.215 1.559.215 1.066 0 1.93-.254 2.59-.762.672-.512 1.105-1.156 1.305-1.941h.039v2.488h.418"/>
    <path d="m30.06 17.836c0-.246.219-.449.484-.449.266 0 .48.203.48.449 0 .25-.215.449-.48.449-.27 0-.484-.199-.484-.449"/>
    <path d="m25.82 18.05h.402c0-2.41 2.164-3.672 4.301-3.672 1.086 0 2.086.32 2.816.902.824.66 1.258 1.617 1.258 2.77h.402c0-1.266-.484-2.32-1.398-3.051-.805-.645-1.898-.996-3.078-.996-2.336 0-4.703 1.391-4.703 4.047m0 0"/>
  </g>
</svg>
