<svg viewBox="0 0 48 48" xmlns="http://www.w3.org/2000/svg" xmlns:xlink="http://www.w3.org/1999/xlink">
  <linearGradient id="a" gradientUnits="userSpaceOnUse" x2="0" y1="47" y2="1">
    <stop offset="0" stop-color="#f5f1af"/>
    <stop offset="1" stop-color="#f7f4c1"/>
  </linearGradient>
  <path d="m24 1c22.703 0 23 .297 23 23 0 22.703-.297 23-23 23-22.703 0-23-.297-23-23 0-22.703.297-23 23-23z" fill="url(#a)"/>
  <g transform="translate(-2 1)">
    <path d="m18 12c-.554 0-1 .446-1 1v2c0 .554.446 1 1 1v19c-.554 0-1 .446-1 1v1c0 .554.446 1 1 1 4.219 0 9.361-.892 13.592-3.758 4.23-2.866 7.408-7.831 7.408-15.242v-5c0-1.108-.892-2-2-2zm1 4h2v18.822c-.681.08-1.347.125-2 .15v-18.973m3 0h2v18.285c-.667.164-1.335.286-2 .391zm3 0h2v17.305c-.653.271-1.323.497-2 .697v-18m3 0h2v15.688c-.032.022-.06.049-.092.07-.604.409-1.249.759-1.908 1.082zm3 0h2v12.914c-.6.759-1.275 1.423-2 2.02v-14.932m3 0h2v3c0 3.559-.755 6.294-2 8.438z" opacity=".1"/>
    <path d="m15 15v21h1v-21zm3 0v21h1v-21zm3 0v20h1v-20zm3 0v19h1v-19zm3 0v17h1v-17zm3 0v15h1v-15z" fill="#9b9b9b" transform="translate(2 -1)"/>
    <path d="m17 11c-.554 0-1 .446-1 1v2c0 .554.446 1 1 1 6.333 0 12.667 0 19 0 1.108 0 2-.892 2-2 0-1.108-.892-2-2-2-6.333 0-12.667 0-19 0z" fill="#a08e6a"/>
    <path d="m35 13v5c0 6.589-2.572 10.374-6.092 12.758-3.52 2.384-8.127 3.242-11.908 3.242-.554 0-1 .446-1 1v1c0 .554.446 1 1 1 4.219 0 9.361-.892 13.592-3.758 4.23-2.866 7.408-7.831 7.408-15.242v-5z" fill="#a08e6a" fill-rule="evenodd"/>
  </g>
</svg>
