<svg viewBox="0 0 48 48" xmlns="http://www.w3.org/2000/svg" xmlns:xlink="http://www.w3.org/1999/xlink">
  <linearGradient id="a" gradientTransform="matrix(0 -1 1 0 -.0000015 47.999998)" gradientUnits="userSpaceOnUse" x1="1" x2="47">
    <stop offset="0" stop-color="#e4e4e4"/>
    <stop offset="1" stop-color="#eee"/>
  </linearGradient>
  <path d="m47 24c0 22.703-.297 23-23 23-22.703 0-23-.297-23-23 0-22.703.297-23 23-23 22.703 0 23 .297 23 23z" fill="url(#a)"/>
  <path d="m39 24c0 8.285-6.715 15-15 15-8.285 0-15-6.715-15-15 0-8.285 6.715-15 15-15 8.285 0 15 6.715 15 15m0 0" opacity=".1" transform="translate(1 1)"/>
  <path d="m39 24c0 8.285-6.715 15-15 15-8.285 0-15-6.715-15-15 0-8.285 6.715-15 15-15 8.285 0 15 6.715 15 15m0 0" fill="#2d2d2d"/>
  <path d="m32 24c0 4.418-3.582 8-8 8-4.418 0-8-3.582-8-8 0-4.418 3.582-8 8-8 4.418 0 8 3.582 8 8m0 0" fill="#e5d016"/>
</svg>
