<svg xmlns="http://www.w3.org/2000/svg" viewBox="0 0 48 48">
 <defs>
  <linearGradient id="linearGradient3764" x1="1" x2="47" gradientUnits="userSpaceOnUse" gradientTransform="matrix(0,-1,1,0,-1.5e-6,47.999998)">
   <stop style="stop-color:#3d3d3d;stop-opacity:1"/>
   <stop offset="1" style="stop-color:#474747;stop-opacity:1"/>
  </linearGradient>
 </defs>
 <g>
  
  
  
 </g>
 <g>
  <path d="m 47,24 C 47,46.703 46.703,47 24,47 1.297,47 1,46.703 1,24 1,1.297 1.297,1 24,1 46.703,1 47,1.297 47,24 z" style="fill:url(#linearGradient3764);fill-opacity:1"/>
 </g>
 <g>
  <g>
   <g transform="translate(1,1)">
    <g style="opacity:0.1">
     <!-- color: #474747 -->
     <g>
      <path d="m 34.998 11 c -6.181 1.416 -12.826 2.836 -18.998 4.289 l 0 16.531 4 0 0 -13.332 11 -2.41 0 14.922 4 0" style="fill:#000;fill-opacity:1;stroke:none;fill-rule:nonzero"/>
      <path d="m 19.567 30.715 c 1.06 1.797 0.108 4.285 -2.142 5.559 -2.249 1.273 -4.933 0.848 -5.993 -0.949 -1.06 -1.797 -0.1 -4.289 2.149 -5.563 2.249 -1.27 4.926 -0.848 5.986 0.953 m 0 0" style="fill:#000;fill-opacity:1;stroke:none;fill-rule:nonzero"/>
      <path d="m 34.569 29.26 c 1.059 1.797 0.1 4.285 -2.147 5.559 -2.247 1.273 -4.927 0.848 -5.991 -0.949 -1.059 -1.797 -0.1 -4.289 2.147 -5.563 2.247 -1.273 4.932 -0.844 5.991 0.953 m 0 0" style="fill:#000;fill-opacity:1;stroke:none;fill-rule:nonzero"/>
     </g>
    </g>
   </g>
  </g>
 </g>
 <g>
  <g>
   <!-- color: #474747 -->
   <g>
    <path d="m 34.998 11 c -6.181 1.416 -12.826 2.836 -18.998 4.289 l 0 16.911 4 0 0 -13.712 11 -2.41 0 14.922 4 0" style="fill:#00cfff;fill-opacity:1;stroke:none;fill-rule:nonzero"/>
    <path d="m 19.567 30.715 c 1.06 1.797 0.108 4.285 -2.142 5.559 -2.249 1.273 -4.933 0.848 -5.993 -0.949 -1.06 -1.797 -0.1 -4.289 2.149 -5.563 2.249 -1.27 4.926 -0.848 5.986 0.953 m 0 0" style="fill:#00cfff;fill-opacity:1;stroke:none;fill-rule:nonzero"/>
    <path d="m 34.569 29.26 c 1.059 1.797 0.1 4.285 -2.147 5.559 -2.247 1.273 -4.927 0.848 -5.991 -0.949 -1.059 -1.797 -0.1 -4.289 2.147 -5.563 2.247 -1.273 4.932 -0.844 5.991 0.953 m 0 0" style="fill:#00cfff;fill-opacity:1;stroke:none;fill-rule:nonzero"/>
   </g>
  </g>
 </g>
 <g>
  
 </g>
</svg>
