<svg viewBox="0 0 48 48" xmlns="http://www.w3.org/2000/svg" xmlns:xlink="http://www.w3.org/1999/xlink">
  <linearGradient id="a" gradientTransform="matrix(0 -1 1 0 -.0000015 47.999998)" gradientUnits="userSpaceOnUse" x1="1" x2="47">
    <stop offset="0" stop-color="#3d3d3d"/>
    <stop offset="1" stop-color="#474747"/>
  </linearGradient>
  <path d="m24 1c22.703 0 23 .297 23 23 0 22.703-.297 23-23 23-22.703 0-23-.297-23-23 0-22.703.297-23 23-23z" fill="url(#a)"/>
  <path d="m16.5 13l-4.5 4.5 1.5 1.5 3-3 3 3 1.5-1.5zm17 0l-4.5 4.5 1.5 1.5 3-3 3 3 1.5-1.5zm-14.5 8a2 2 0 0 0-2 2 2 2 0 0 0  2 2 2 2 0 0 0  2-2 2 2 0 0 0-2-2zm12 0a2 2 0 0 0-2 2 2 2 0 0 0  2 2 2 2 0 0 0  2-2 2 2 0 0 0-2-2zm-12 6c0 0-2 2-2 5 0 3 2 5 2 5h2c0 0-2-2-2-5 0-3 2-5 2-5zm4 0v2h2v5c0 .552-.448 1-1 1-.552 0-1-.448-1-1h-2c0 1.657 1.343 3 3 3 1.657 0 3-1.343 3-3v-5h1v-2zm6 0c0 0 2 2 2 5 0 3-2 5-2 5h2c0 0 2-2 2-5 0-3-2-5-2-5z" opacity=".1"/>
  <path d="m15.5 12l-4.5 4.5 1.5 1.5 3-3 3 3 1.5-1.5zm17 0l-4.5 4.5 1.5 1.5 3-3 3 3 1.5-1.5zm-14.5 8a2 2 0 0 0-2 2 2 2 0 0 0  2 2 2 2 0 0 0  2-2 2 2 0 0 0-2-2zm12 0a2 2 0 0 0-2 2 2 2 0 0 0  2 2 2 2 0 0 0  2-2 2 2 0 0 0-2-2zm-12 6c0 0-2 2-2 5 0 3 2 5 2 5h2c0 0-2-2-2-5 0-3 2-5 2-5zm4 0v2h2v5c0 .552-.448 1-1 1-.552 0-1-.448-1-1h-2c0 1.657 1.343 3 3 3 1.657 0 3-1.343 3-3v-5h1v-2zm6 0c0 0 2 2 2 5 0 3-2 5-2 5h2c0 0 2-2 2-5 0-3-2-5-2-5z" fill="#e9eb89"/>
</svg>
