<svg xmlns="http://www.w3.org/2000/svg" viewBox="0 0 48 48">
 <defs>
  <linearGradient id="linearGradient3764" x1="1" x2="47" gradientUnits="userSpaceOnUse" gradientTransform="matrix(0,-1,1,0,-1.5e-6,47.999998)">
   <stop style="stop-color:#b94b56;stop-opacity:1"/>
   <stop offset="1" style="stop-color:#be5a64;stop-opacity:1"/>
  </linearGradient>
 </defs>
 <g>
  
  
  
 </g>
 <g>
  <path d="m 47,24 C 47,46.703 46.703,47 24,47 1.297,47 1,46.703 1,24 1,1.297 1.297,1 24,1 46.703,1 47,1.297 47,24 z" style="fill:url(#linearGradient3764);fill-opacity:1"/>
 </g>
 <g>
  
 </g>
 <rect rx="2" y="14" x="13" height="23" width="24" style="fill:#000;opacity:1;fill-opacity:0.098;stroke:none"/>
 <g>
  <rect rx="2" y="13" x="12" height="23" width="24" style="fill:#a57653;opacity:1;fill-opacity:1;stroke:none"/>
  <rect y="15" x="14" height="19" width="20" style="fill:#f7f5f1;opacity:1;fill-opacity:1;stroke:none"/>
  <path d="m 21 12 0 1.01 -3 0 0 2.99 12 0 0 -2.99 -3 0 0 -1.01" style="fill:#afafaf;fill-opacity:1;stroke:none;fill-rule:nonzero"/>
  <g transform="matrix(0.71530382,-0.7173516,0.71530382,0.7173516,-17.474786,18.513795)">
   <path d="M 33.469,33.461 18.01,33.4 l -0.008,0.008 0,-0.011 -4,1.497 4,1.501 15.436,-0.006 c 0,0 0.564,-0.242 0.564,-1.495 0,-0.907 -0.356,-1.294 -0.534,-1.432 z" style="fill:#000;fill-opacity:0.098;stroke:none;fill-rule:nonzero"/>
   <path d="M 31.04,34.997 C 32.005,35 32.005,32 30.97,32.003 l -12.961,0 c -1,0.997 -1,1.997 0,2.997" style="fill:#cdaa43;fill-opacity:1;stroke:none;fill-rule:nonzero"/>
   <path transform="translate(0,4)" d="m 18 28 -2 0.752 c -0.33 0.546 -0.251 1.033 0 1.496 l 2 0.75 z" style="fill:#d3bb7d;fill-opacity:1;stroke:none;fill-rule:nonzero"/>
   <path d="m 16 32.752 -2 0.745 2 0.754" style="fill:#323232;fill-opacity:1;stroke:none;fill-rule:nonzero"/>
   <path d="m 31,32 0,2.992 2.438,0 c 0,0 0.563,-0.241 0.563,-1.494 C 34.001,32.289 33.368,32 33.368,32 l -2.367,0 z" style="fill:#c86750;fill-opacity:1;stroke:none;fill-rule:nonzero"/>
  </g>
 </g>
</svg>
