<svg viewBox="0 0 48 48" xmlns="http://www.w3.org/2000/svg" xmlns:xlink="http://www.w3.org/1999/xlink">
  <linearGradient id="a" gradientTransform="matrix(0 -1 1 0 -.0000015 47.999998)" gradientUnits="userSpaceOnUse" x1="1" x2="47">
    <stop offset="0" stop-color="#3d3d3d"/>
    <stop offset="1" stop-color="#474747"/>
  </linearGradient>
  <path d="m47 24c0 22.703-.297 23-23 23-22.703 0-23-.297-23-23 0-22.703.297-23 23-23 22.703 0 23 .297 23 23z" fill="url(#a)"/>
  <path d="m13.172 12h21.66c.645 0 1.168.742 1.168 1.66v20.68c0 .918-.523 1.66-1.168 1.66h-21.66c-.648 0-1.172-.742-1.172-1.66v-20.68c0-.918.523-1.66 1.172-1.66m0 0" fill-rule="evenodd" opacity=".1" transform="translate(1 1)"/>
  <path d="m13.172 12h21.66c.645 0 1.168.742 1.168 1.66v20.68c0 .918-.523 1.66-1.168 1.66h-21.66c-.648 0-1.172-.742-1.172-1.66v-20.68c0-.918.523-1.66 1.172-1.66m0 0" fill="#f9f9f9" fill-rule="evenodd"/>
  <path d="m25.19 22.703l1.637 1.523c2.887-2.836 7.156-9.621 7.156-9.621.172-.492-.438-.801-.742-.473 0 0-5.5 5.656-8.04 8.566m-.016.004" fill="#754a0f" fill-rule="evenodd"/>
  <path d="m22.14 26.809l.902.777 3.41-2.957.113-.281.438-.008c-.176-.629-1.184-1.758-1.934-1.758l.031.434-.273.152m-2.688 3.641" fill="#2d2d2d" fill-rule="evenodd"/>
  <path d="m18 29.98c2.652 0 4.672.316 5.05-1.613.309-1.555-1.832-2.301-2.895-.91-1.02 1.336-2.156 2.523-2.156 2.523m0 0" fill="#367ed0" fill-rule="evenodd"/>
  <path d="m16.188 14.688c-.16-.008-.309.023-.469.063-.676.168-1.199.641-1.563 1.25-.141.234-.176.57-.281.844-.063-.168-.109-.426-.188-.563-.113-.203-.25-.391-.531-.5-.281-.109-.633.035-.813.219-.137.137-.25.309-.344.5v4.438c.191-1.227.387-2.258.563-2.938.145-.57.242-.703.344-.906.105.262.234.535.344 1.031.066.316.063.844.125 1.219-.16 1.414-.277 2.922-.188 4.375.113 1.84.336 3.5.563 4.469.055.242.129.43.188.594.031.082.051.172.094.25.043.078.082.191.313.281.117.051.309.035.438-.031.133-.063.191-.145.227-.219.07-.125.07-.191.098-.281.027-.176.063-.371.063-.648 0-2.273-.324-6.332-.813-9.152.02-.172 0-.402.027-.566.145-.758.387-1.418.648-1.875.273-.457.57-.719.941-.813.152-.039.191-.012.219 0 .023.012.074.043.125.156.098.227.148.73.125 1.344-.043 1.211-.324 2.766-.313 3.844.023 2.953.09 4.762.188 5.781.047.512.055.789.219 1.094.039.078.113.168.281.25.164.086.406.051.531-.031.242-.164.262-.277.313-.406.191-.504.313-1.371.477-2.5.023-.215.063-.484.094-.719-.047 1.641-.074 2.953-.156 5.375l1 .031c.148-4.266.246-7.398.281-9.375.016-.988.008-1.715 0-2.25-.008-.535-.016-.824-.066-1.063-.012-.066-.004-.109-.063-.227-.031-.055-.086-.145-.223-.219-.137-.074-.383-.066-.5 0-.238.129-.227.223-.25.281-.023.063-.051.102-.066.156-.059.219-.094.504-.156.906-.117.805-.254 1.992-.402 3.25-.125 1.035-.242 2.09-.375 3.063-.039-1.012-.109-1.645-.125-3.406-.008-.879.27-2.484.313-3.813.023-.664.004-1.27-.219-1.781-.113-.258-.285-.516-.566-.656-.137-.07-.309-.117-.469-.125m0 0" fill="#367ed0" fill-rule="evenodd"/>
</svg>
