<svg xmlns="http://www.w3.org/2000/svg" viewBox="0 0 48 48">
 <defs>
  <linearGradient id="linearGradient3764" x1="1" x2="47" gradientUnits="userSpaceOnUse" gradientTransform="matrix(0,-1,1,0,-1.5e-6,47.999998)">
   <stop style="stop-color:#97acb5;stop-opacity:1"/>
   <stop offset="1" style="stop-color:#a3b5bd;stop-opacity:1"/>
  </linearGradient>
 </defs>
 <g>
  
  
  
 </g>
 <g>
  <path d="m 47,24 C 47,46.703 46.703,47 24,47 1.297,47 1,46.703 1,24 1,1.297 1.297,1 24,1 46.703,1 47,1.297 47,24 z" style="fill:url(#linearGradient3764);fill-opacity:1"/>
 </g>
 <path d="m 24.699 11 -0.699 2 0.5 4 -0.438 7 -0.063 0 c -0.277 0 -0.5 0.223 -0.5 0.5 l -0.5 4.5 -9.03 -3.684 c -0.056 -0.766 -0.2 -1.316 -0.373 -1.316 l -0.199 0 c -0.222 0 -0.4 0.892 -0.4 2 l 0 2 c 0 1.108 0.179 2 0.4 2 l 0.199 0 c 0.182 0 0.352 -0.614 0.4 -1.443 l 9 6.443 0.5 1.801 c 1.5 0.261 1.5 0.268 3 0 l 0.5 -1.801 9 -6.443 c 0.049 0.829 0.218 1.443 0.4 1.443 l 0.199 0 c 0.222 0 0.4 -0.892 0.4 -2 l 0 -2 c 0 -1.108 -0.179 -2 -0.4 -2 l -0.199 0 c -0.173 0 -0.317 0.551 -0.373 1.316 l -9.03 3.684 l -0.5 -4.5 c 0 -0.277 -0.223 -0.5 -0.5 -0.5 l -0.063 0 -0.438 -7 0.5 -4 -0.699 -2 z" style="fill:#000;opacity:0.1;fill-opacity:1;stroke:none"/>
 <g>
  
 </g>
 <path d="m 23.5 16 1 0 0.5 8 -2 0 z" style="fill:#c25656;opacity:1;fill-opacity:1;stroke:none"/>
 <path d="m 23.699 10 l -0.699 2 l 0.5 4 l 1 0 l 0.5 -4 l -0.699 -2 l -0.602 0 z m -11.299 13 c -0.222 0 -0.4 0.892 -0.4 2 l 0 2 c 0 1.108 0.179 2 0.4 2 l 0.199 0 c 0.182 0 0.352 -0.614 0.4 -1.443 l 9 6.443 l 0.5 1.801 c 1.5 0.261 1.5 0.268 3 0 l 0.5 -1.801 l 9 -6.443 c 0.049 0.829 0.218 1.443 0.4 1.443 l 0.199 0 c 0.222 0 0.4 -0.892 0.4 -2 l 0 -2 c 0 -1.108 -0.179 -2 -0.4 -2 l -0.199 0 c -0.173 0 -0.317 0.551 -0.373 1.316 l -9.03 3.684 l -0.5 -4.5 c 0 -0.277 -0.223 -0.5 -0.5 -0.5 l -2 0 c -0.277 0 -0.5 0.223 -0.5 0.5 l -0.5 4.5 l -9.03 -3.684 c -0.056 -0.766 -0.2 -1.316 -0.373 -1.316 l -0.199 0 z" style="fill:#555;opacity:1;fill-opacity:1;stroke:none"/>
 <path d="m 14 24.736 l 0 1.326 l -1 -0.563 l 0 2.072 l 8 5.713 l 0 -3.285 l -2 -1.125 l 0 -2.1 l -2 -0.814 l 0 1.789 l -2 -1.125 l 0 -1.48 l -1 -0.408 z m 20 0 l -1 0.408 l 0 1.48 l -2 1.125 l 0 -1.789 l -2 0.814 l 0 2.1 l -2 1.125 l 0 3.285 l 8 -5.713 l 0 -2.072 l -1 0.563 l 0 -1.326 z" style="fill:#c25656;opacity:1;fill-opacity:1;stroke:none"/>
</svg>
