<svg viewBox="0 0 48 48" xmlns="http://www.w3.org/2000/svg" xmlns:xlink="http://www.w3.org/1999/xlink">
  <linearGradient id="a" gradientTransform="matrix(0 -1 1 0 -.0000015 47.999998)" gradientUnits="userSpaceOnUse" x1="1" x2="47">
    <stop offset="0" stop-color="#58d492"/>
    <stop offset="1" stop-color="#68d89c"/>
  </linearGradient>
  <path d="m47 24c0 22.703-.297 23-23 23-22.703 0-23-.297-23-23 0-22.703.297-23 23-23 22.703 0 23 .297 23 23z" fill="url(#a)"/>
  <path d="m13 13h24v24h-24z" fill-opacity=".098"/>
  <path d="m12 28h24v8h-24z" fill="#efef31"/>
  <path d="m12 20h24v8h-24z" fill="#ef9431"/>
  <path d="m12 12h24v8h-24z" fill="#f24444"/>
  <path d="m17 16h4l8 12v-12h4v18h-4l-8-12v12h-4z" opacity=".1"/>
  <path d="m16 15h4l8 12v-12h4v18h-4l-8-12v12h-4z" fill="#3c3c3c"/>
</svg>
