<svg viewBox="0 0 48 48" xmlns="http://www.w3.org/2000/svg" xmlns:xlink="http://www.w3.org/1999/xlink">
  <linearGradient id="a" gradientUnits="userSpaceOnUse" x2="0" y1="1" y2="47">
    <stop offset="0" stop-color="#ad977b"/>
    <stop offset="1" stop-color="#a58d6f"/>
  </linearGradient>
  <path d="m24 1c22.703 0 23 .297 23 23 0 22.703-.297 23-23 23-22.703 0-23-.297-23-23 0-22.703.297-23 23-23z" fill="url(#a)"/>
  <path d="m13 13c-.554 0-1 .446-1 1v21c0 .554.446 1 1 1 .554 0 1-.446 1-1v-.656c0 .923.669 1.656 1.5 1.656.831 0 1.5-.733 1.5-1.656v-.344h4v .344c0 .923.669 1.656 1.5 1.656.831 0 1.5-.733 1.5-1.656 0 .923.669 1.656 1.5 1.656.831 0 1.5-.733 1.5-1.656 0 .923.669 1.656 1.5 1.656.831 0 1.5-.733 1.5-1.656 0 .923.669 1.656 1.5 1.656.831 0 1.5-.733 1.5-1.656 0 .923.669 1.656 1.5 1.656.831 0 1.5-.733 1.5-1.656v.656c0 .554.446 1 1 1 .554 0 1-.446 1-1v-21c0-.554-.446-1-1-1-.554 0-1 .446-1 1v .656c0-.923-.669-1.656-1.5-1.656-.831 0-1.5.733-1.5 1.656 0-.923-.669-1.656-1.5-1.656-.831 0-1.5.733-1.5 1.656v.344h-4v-.344c0-.923-.669-1.656-1.5-1.656-.831 0-1.5.733-1.5 1.656 0-.923-.669-1.656-1.5-1.656-.831 0-1.5.733-1.5 1.656 0-.923-.669-1.656-1.5-1.656-.831 0-1.5.733-1.5 1.656 0-.923-.669-1.656-1.5-1.656-.831 0-1.5.733-1.5 1.656v-.656c0-.554-.446-1-1-1zm13 3h4v .344c0 .923.669 1.656 1.5 1.656.831 0 1.5-.733 1.5-1.656 0 .923.669 1.656 1.5 1.656.831 0 1.5-.733 1.5-1.656v4.313c0-.923-.669-1.656-1.5-1.656-.831 0-1.5.733-1.5 1.656 0-.923-.669-1.656-1.5-1.656-.831 0-1.5.733-1.5 1.656 0-.923-.669-1.656-1.5-1.656-.831 0-1.5.733-1.5 1.656v.344h-4v-.344c0-.923-.669-1.656-1.5-1.656-.831 0-1.5.733-1.5 1.656 0-.923-.669-1.656-1.5-1.656-.831 0-1.5.733-1.5 1.656 0-.923-.669-1.656-1.5-1.656-.831 0-1.5.733-1.5 1.656v-4.313c0 .923.669 1.656 1.5 1.656.831 0 1.5-.733 1.5-1.656 0 .923.669 1.656 1.5 1.656.831 0 1.5-.733 1.5-1.656 0 .923.669 1.656 1.5 1.656.831 0 1.5-.733 1.5-1.656 0 .923.669 1.656 1.5 1.656.831 0 1.5-.733 1.5-1.656zm-3 6h4v .344c0 .923.669 1.656 1.5 1.656.831 0 1.5-.733 1.5-1.656 0 .923.669 1.656 1.5 1.656.831 0 1.5-.733 1.5-1.656 0 .923.669 1.656 1.5 1.656.831 0 1.5-.733 1.5-1.656v4.313c0-.923-.669-1.656-1.5-1.656-.831 0-1.5.733-1.5 1.656v.344h-4v-.344c0-.923-.669-1.656-1.5-1.656-.831 0-1.5.733-1.5 1.656 0-.923-.669-1.656-1.5-1.656-.831 0-1.5.733-1.5 1.656 0-.923-.669-1.656-1.5-1.656-.831 0-1.5.733-1.5 1.656 0-.923-.669-1.656-1.5-1.656-.831 0-1.5.733-1.5 1.656 0-.923-.669-1.656-1.5-1.656-.831 0-1.5.733-1.5 1.656v-4.313c0 .923.669 1.656 1.5 1.656.831 0 1.5-.733 1.5-1.656 0 .923.669 1.656 1.5 1.656.831 0 1.5-.733 1.5-1.656 0 .923.669 1.656 1.5 1.656.831 0 1.5-.733 1.5-1.656zm6 6h4v .344c0 .923.669 1.656 1.5 1.656.831 0 1.5-.733 1.5-1.656v4.313c0-.923-.669-1.656-1.5-1.656-.831 0-1.5.733-1.5 1.656 0-.923-.669-1.656-1.5-1.656-.831 0-1.5.733-1.5 1.656 0-.923-.669-1.656-1.5-1.656-.831 0-1.5.733-1.5 1.656 0-.923-.669-1.656-1.5-1.656-.831 0-1.5.733-1.5 1.656 0-.923-.669-1.656-1.5-1.656-.831 0-1.5.733-1.5 1.656v.344h-4v-.344c0-.923-.669-1.656-1.5-1.656-.831 0-1.5.733-1.5 1.656v-4.313c0 .923.669 1.656 1.5 1.656.831 0 1.5-.733 1.5-1.656 0 .923.669 1.656 1.5 1.656.831 0 1.5-.733 1.5-1.656 0 .923.669 1.656 1.5 1.656.831 0 1.5-.733 1.5-1.656 0 .923.669 1.656 1.5 1.656.831 0 1.5-.733 1.5-1.656 0 .923.669 1.656 1.5 1.656.831 0 1.5-.733 1.5-1.656z" fill-opacity=".098" transform=""/>
  <g transform="translate(0 1)">
    <path d="m12 13h24v1h-24z" fill="#4d4d4d"/>
    <rect fill="#d0493e" height="5" rx="1.5" ry="1.667" width="3" x="13" y="11"/>
    <rect fill="#d0493e" height="5" rx="1.5" ry="1.667" width="3" x="16" y="11"/>
    <rect fill="#d0493e" height="5" rx="1.5" ry="1.667" width="3" x="19" y="11"/>
    <rect fill="#d0493e" height="5" rx="1.5" ry="1.667" width="3" x="32" y="11"/>
    <rect fill="#d0493e" height="5" rx="1.5" ry="1.667" width="3" x="29" y="11"/>
    <rect fill="#d0493e" height="5" rx="1.5" ry="1.667" width="3" x="22" y="11"/>
  </g>
  <g transform="translate(0 -2)">
    <path d="m12 22h24v1h-24z" fill="#4d4d4d"/>
    <rect fill="#d2f953" height="5" rx="1.5" ry="1.667" width="3" x="13" y="20"/>
    <rect fill="#d2f953" height="5" rx="1.5" ry="1.667" width="3" x="16" y="20"/>
    <rect fill="#d2f953" height="5" rx="1.5" ry="1.667" width="3" x="32" y="20"/>
    <rect fill="#d2f953" height="5" rx="1.5" ry="1.667" width="3" x="29" y="20"/>
    <rect fill="#d2f953" height="5" rx="1.5" ry="1.667" width="3" x="26" y="20"/>
    <rect fill="#d2f953" height="5" rx="1.5" ry="1.667" width="3" x="19" y="20"/>
  </g>
  <g transform="translate(0 -2)">
    <path d="m12 28h24v1h-24z" fill="#4d4d4d"/>
    <rect fill="#2b7493" height="5" rx="1.5" ry="1.667" width="3" x="13" y="26"/>
    <rect fill="#2b7493" height="5" rx="1.5" ry="1.667" width="3" x="32" y="26"/>
    <rect fill="#2b7493" height="5" rx="1.5" ry="1.667" width="3" x="16" y="26"/>
    <rect fill="#2b7493" height="5" rx="1.5" ry="1.667" width="3" x="19" y="26"/>
    <rect fill="#2b7493" height="5" rx="1.5" ry="1.667" width="3" x="22" y="26"/>
    <rect fill="#2b7493" height="5" rx="1.5" ry="1.667" width="3" x="25" y="26"/>
  </g>
  <g transform="translate(0 -2)">
    <path d="m12 34h24v1h-24z" fill="#4d4d4d"/>
    <rect fill="#ececec" height="5" rx="1.5" ry="1.667" width="3" x="13" y="32"/>
    <rect fill="#ececec" height="5" rx="1.5" ry="1.667" width="3" x="32" y="32"/>
    <rect fill="#ececec" height="5" rx="1.5" ry="1.667" width="3" x="29" y="32"/>
    <rect fill="#ececec" height="5" rx="1.5" ry="1.667" width="3" x="26" y="32"/>
    <rect fill="#ececec" height="5" rx="1.5" ry="1.667" width="3" x="23" y="32"/>
    <rect fill="#ececec" height="5" rx="1.5" ry="1.667" width="3" x="20" y="32"/>
  </g>
  <rect fill="#4d4d4d" height="23" rx="1" width="2" x="11" y="12"/>
  <rect fill="#4d4d4d" height="23" rx="1" width="2" x="35" y="12"/>
</svg>
