<svg viewBox="0 0 48 48" xmlns="http://www.w3.org/2000/svg" xmlns:xlink="http://www.w3.org/1999/xlink">
  <linearGradient id="a" gradientUnits="userSpaceOnUse" x1="23.999" x2="24" y1="47" y2="1">
    <stop offset="0" stop-color="#414141"/>
    <stop offset="1" stop-color="#4b4b4b"/>
  </linearGradient>
  <path d="m24 1c22.703 0 23 .297 23 23 0 22.703-.297 23-23 23-22.703 0-23-.297-23-23 0-22.703.297-23 23-23z" fill="url(#a)"/>
  <path d="m18 35l-6-11 6-10h7l7 10v-10l6 10-5 11h-8l-7-11z" fill-rule="evenodd" opacity=".1"/>
  <path d="m17 34l-6-11 6-10h7l7 10v-10l6 10-5 11h-8l-7-11z" fill="#f2f2f2" fill-rule="evenodd"/>
</svg>
