<svg viewBox="0 0 48 48" xmlns="http://www.w3.org/2000/svg" xmlns:xlink="http://www.w3.org/1999/xlink">
  <linearGradient id="a" gradientTransform="matrix(0 -1 1 0 -.0000015 47.999998)" gradientUnits="userSpaceOnUse" x1="1" x2="47">
    <stop offset="0" stop-color="#3d3d3d"/>
    <stop offset="1" stop-color="#474747"/>
  </linearGradient>
  <path d="m47 24c0 22.703-.297 23-23 23-22.703 0-23-.297-23-23 0-22.703.297-23 23-23 22.703 0 23 .297 23 23z" fill="url(#a)"/>
  <g opacity=".1" transform="translate(1 1)">
    <path d="m21.941 34.922c-3.063-.352-5.492-1.879-6.172-3.879-.324-.961-.332-3.082-.016-4.309.855-3.313 3.09-5.246 6.52-5.641 1.801-.211 4.063-.09 5.285.277 2.473.734 4.871 2.668 5.797 4.66.672 1.441.656 1.926-.078 3.43-1.422 2.906-4.297 4.691-8.602 5.344-1.531.234-1.684.238-2.734.117m0 0"/>
    <path d="m33.605 25.426c-.684-1.172-2.449-2.68-4.258-3.633-.891-.473-1.625-.895-1.625-.934 0-.207 3.438-5.688 3.719-5.93.637-.547 1.152-.375 2.137.727 1.906 2.121 2.676 4.535 2.352 7.352-.207 1.754-.461 2.488-.996 2.867-.59.418-.883.32-1.324-.445m-.004-.004"/>
    <path d="m13.508 25.05c-1.691-.426-1.992-2.531-.742-5.164 1.508-3.16 3.664-5.07 7.01-6.191 2.789-.938 4.824-.918 5.656.055.328.383.367.598.352 2-.008 1.77-.23 4.703-.383 4.848-.055.055-.84.078-1.754.055-3.543-.078-6.18 1.199-7.438 3.633l-.457.883-.965-.016c-.531-.012-1.109-.055-1.285-.102m0 0"/>
  </g>
  <path d="m21.941 34.922c-3.063-.352-5.492-1.879-6.172-3.879-.324-.961-.332-3.082-.016-4.309.855-3.313 3.09-5.246 6.52-5.641 1.801-.211 4.063-.09 5.285.277 2.473.734 4.871 2.668 5.797 4.66.672 1.441.656 1.926-.078 3.43-1.422 2.906-4.297 4.691-8.602 5.344-1.531.234-1.684.238-2.734.117m0 0" fill="#ded62f"/>
  <path d="m33.605 25.426c-.684-1.172-2.449-2.68-4.258-3.633-.891-.473-1.625-.895-1.625-.934 0-.207 3.438-5.688 3.719-5.93.637-.547 1.152-.375 2.137.727 1.906 2.121 2.676 4.535 2.352 7.352-.207 1.754-.461 2.488-.996 2.867-.59.418-.883.32-1.324-.445m-.004-.004" fill="#45de28"/>
  <path d="m13.508 25.05c-1.691-.426-1.992-2.531-.742-5.164 1.508-3.16 3.664-5.07 7.01-6.191 2.789-.938 4.824-.918 5.656.055.328.383.367.598.352 2-.008 1.77-.23 4.703-.383 4.848-.055.055-.84.078-1.754.055-3.543-.078-6.18 1.199-7.438 3.633l-.457.883-.965-.016c-.531-.012-1.109-.055-1.285-.102m0 0" fill="#45b9d4"/>
</svg>
