<svg xmlns="http://www.w3.org/2000/svg" viewBox="0 0 48 48">
 <defs>
  <linearGradient id="linearGradient3764" x1="1" x2="47" gradientUnits="userSpaceOnUse" gradientTransform="matrix(0,-1,1,0,-1.5e-6,47.999998)">
   <stop style="stop-color:#71bcbf;stop-opacity:1"/>
   <stop offset="1" style="stop-color:#7ec2c5;stop-opacity:1"/>
  </linearGradient>
 </defs>
 <g>
  
  
  
 </g>
 <g>
  <path d="m 47,24 C 47,46.703 46.703,47 24,47 1.297,47 1,46.703 1,24 1,1.297 1.297,1 24,1 46.703,1 47,1.297 47,24 z" style="fill:url(#linearGradient3764);fill-opacity:1"/>
 </g>
 <g>
  
 </g>
 <g>
  <g>
   <g>
    <g transform="translate(1,1)">
     <g style="opacity:0.1">
      <!-- color: #7ec2c5 -->
      <g>
       <path d="m 38 24 c 0 7.734 -6.266 14 -14 14 c -7.734 0 -14 -6.27 -14 -14 c 0 -7.734 6.266 -14 14 -14 c 7.734 0 14 6.27 14 14 m 0 0" style="fill:#000;fill-opacity:1;stroke:none;fill-rule:nonzero"/>
       <path d="m 23 20 l 0 12 l 2 0 l 0 -12 m -2 0" style="fill:#000;fill-opacity:1;stroke:none;fill-rule:nonzero"/>
       <path d="m 25 17 c 0 0.551 -0.449 1 -1 1 c -0.551 0 -1 -0.449 -1 -1 c 0 -0.551 0.449 -1 1 -1 c 0.551 0 1 0.449 1 1 m 0 0" style="fill:#000;fill-opacity:1;stroke:none;fill-rule:nonzero"/>
       <path d="m 24 9 c -8.285 0 -15 6.715 -15 15 c 0 8.285 6.715 15 15 15 c 8.285 0 15 -6.715 15 -15 c 0 -8.285 -6.715 -15 -15 -15 m 0 2 c 7.18 0 13 5.82 13 13 c 0 7.18 -5.82 13 -13 13 c -7.18 0 -13 -5.82 -13 -13 c 0 -7.18 5.82 -13 13 -13 m 0 0" style="fill:#000;fill-opacity:1;stroke:none;fill-rule:nonzero"/>
      </g>
     </g>
    </g>
   </g>
  </g>
  <g>
   <g>
    <!-- color: #7ec2c5 -->
    <g>
     <path d="M 24,9 C 15.715,9 9,15.715 9,24 9,32.285 15.715,39 24,39 32.285,39 39,32.285 39,24 39,15.715 32.285,9 24,9" style="fill:#2a8ff6;fill-opacity:1;stroke:none;fill-rule:nonzero"/>
    </g>
   </g>
  </g>
  <path d="m 22 31 c 0 -6.518 4.828 -8.25 4.828 -8.25 l 0.332 3.805 5.84 -8.1 -9.455 -2.455 c 0 0 1.944 2.938 2.036 3.15 c -4.361 2.071 -7.582 5.341 -7.582 11.85 l 0 2 l 4 0 c 0 0 0 -1.25 0 -2 z" style="fill:#000;fill-opacity:0.098"/>
  <path d="m 21 30 c 0 -6.518 4.828 -8.25 4.828 -8.25 l 0.332 3.805 5.84 -8.1 -9.455 -2.455 c 0 0 1.944 2.938 2.036 3.15 c -4.361 2.071 -7.582 5.341 -7.582 11.85 l 0 2 l 4 0 c 0 0 0 -1.25 0 -2 z" style="fill:#ececec;fill-opacity:1"/>
  <path d="M 24,9 C 15.715,9 9,15.715 9,24 9,32.285 15.715,39 24,39 32.285,39 39,32.285 39,24 39,15.715 32.285,9 24,9 m 0,2 c 7.18,0 13,5.82 13,13 0,7.18 -5.82,13 -13,13 -7.18,0 -13,-5.82 -13,-13 0,-7.18 5.82,-13 13,-13 m 0,0" style="fill:#ececec;fill-opacity:1;stroke:none;fill-rule:nonzero"/>
 </g>
</svg>
