<svg viewBox="0 0 48 48" xmlns="http://www.w3.org/2000/svg" xmlns:xlink="http://www.w3.org/1999/xlink">
  <linearGradient id="a" gradientTransform="matrix(0 -1 1 0 -.0000015 47.999998)" gradientUnits="userSpaceOnUse" x1="1" x2="47">
    <stop offset="0" stop-color="#535353"/>
    <stop offset="1" stop-color="#5d5d5d"/>
  </linearGradient>
  <path d="m47 24c0 22.703-.297 23-23 23-22.703 0-23-.297-23-23 0-22.703.297-23 23-23 22.703 0 23 .297 23 23z" fill="url(#a)"/>
  <path d="m29 21c0 0-.754-3.098-4.04-3.191-3.281-.094-4.965 2.473-4.965 6.137 0 3.664 1.863 6.598 5.05 6.598 3.188 0 3.938-3.543 3.938-3.543h5.996c0 0 .086 3.543-2.477 6.082-2.563 2.523-5.703 2.938-7.898 2.918-2.188-.02-5.227.035-8.18-2.973-2.945-3-3.445-5.93-3.445-8.793 0-2.871.566-6.672 4.066-9.555 2.375-1.961 4.789-2.68 7.191-2.68 10.07 0 10.734 9 10.734 9h-5.996m.008 0" fill-opacity=".769" opacity=".1" transform="translate(1 1)"/>
  <path d="m29 21c0 0-.754-3.098-4.04-3.191-3.281-.094-4.965 2.473-4.965 6.137 0 3.664 1.863 6.598 5.05 6.598 3.188 0 3.938-3.543 3.938-3.543h5.996c0 0 .086 3.543-2.477 6.082-2.563 2.523-5.703 2.938-7.898 2.918-2.188-.02-5.227.035-8.18-2.973-2.945-3-3.445-5.93-3.445-8.793 0-2.871.566-6.672 4.066-9.555 2.375-1.961 4.789-2.68 7.191-2.68 10.07 0 10.734 9 10.734 9h-5.996m.008 0" fill="#b1b1b1" fill-opacity=".769"/>
</svg>
