<svg xmlns="http://www.w3.org/2000/svg" viewBox="0 0 48 48">
 <defs>
  <linearGradient id="linearGradient3764" x1="1" x2="47" gradientUnits="userSpaceOnUse" gradientTransform="matrix(0,-1,1,0,-1.5e-6,47.999998)">
   <stop style="stop-color:#f2eeba;stop-opacity:1"/>
   <stop offset="1" style="stop-color:#f5f2cb;stop-opacity:1"/>
  </linearGradient>
 </defs>
 <g>
  
  
  
 </g>
 <g>
  <path d="m 47,24 C 47,46.703 46.703,47 24,47 1.297,47 1,46.703 1,24 1,1.297 1.297,1 24,1 46.703,1 47,1.297 47,24 z" style="fill:url(#linearGradient3764);fill-opacity:1"/>
 </g>
 <path d="m 20 12 -6 5 0 16 6 5 l 0 -15.334 10 15.334 6 -5 0 -16 -6 -5 0 15.504 -10 -15.504" style="fill:#000;opacity:0.1;fill-opacity:1"/>
 <path d="m 35 16 -6 -5 0 26 6 -5 z" style="fill:#6ba63f;fill-opacity:1"/>
 <g>
  
 </g>
 <path d="m 13 16 6 -5 0 26 -6 -5 z" style="fill:#42afe6;fill-opacity:1"/>
 <path d="m 19 11 c -1.218 3.484 -0.987 7.05 0 10.666 l 10 15.334 c 0.641 -3.499 1.379 -6.997 0 -10.496 z" style="fill:#96ca6b;fill-opacity:1"/>
 <path d="m 29 26.504 l 0 10.496 l 4.5 -3.75 l -4.5 -6.746 z" style="fill:#569e41;fill-opacity:1"/>
 <path d="m 19 11 l -4.508 3.756 l 4.508 6.91 l 0 -10.666 z" style="fill:#70be63;fill-opacity:1"/>
</svg>
