<svg viewBox="0 0 48 48" xmlns="http://www.w3.org/2000/svg" xmlns:xlink="http://www.w3.org/1999/xlink">
  <linearGradient id="a" gradientTransform="matrix(0 -1 1 0 -.0000015 47.999998)" gradientUnits="userSpaceOnUse" x1="1" x2="47">
    <stop offset="0" stop-color="#f2eeba"/>
    <stop offset="1" stop-color="#f5f2cb"/>
  </linearGradient>
  <path d="m47 24c0 22.703-.297 23-23 23-22.703 0-23-.297-23-23 0-22.703.297-23 23-23 22.703 0 23 .297 23 23z" fill="url(#a)"/>
  <path d="m20 12l-6 5v16l6 5v-15.334l10 15.334 6-5v-16l-6-5v15.504z" opacity=".1"/>
  <path d="m35 16l-6-5v26l6-5z" fill="#6ba63f"/>
  <path d="m13 16l6-5v26l-6-5z" fill="#42afe6"/>
  <path d="m19 11c-1.218 3.484-.987 7.05 0 10.666l10 15.334c.641-3.499 1.379-6.997 0-10.496z" fill="#96ca6b"/>
  <path d="m29 26.504v10.496l4.5-3.75z" fill="#569e41"/>
  <path d="m19 11l-4.508 3.756 4.508 6.91z" fill="#70be63"/>
</svg>
