<svg viewBox="0 0 48 48" xmlns="http://www.w3.org/2000/svg" xmlns:xlink="http://www.w3.org/1999/xlink">
  <linearGradient id="a" gradientTransform="matrix(0 -1 1 0 -.0000015 47.999998)" gradientUnits="userSpaceOnUse" x1="1" x2="47">
    <stop offset="0" stop-color="#3d3d3d"/>
    <stop offset="1" stop-color="#474747"/>
  </linearGradient>
  <path d="m47 24c0 22.703-.297 23-23 23-22.703 0-23-.297-23-23 0-22.703.297-23 23-23 22.703 0 23 .297 23 23z" fill="url(#a)"/>
  <path d="m22 10c-2.762 0-5 2.238-5 5 0 2.762 2.238 5 5 5 .355 0 .7-.039 1.033-.109l2.307 5.15c-1.45.892-2.551 2.293-3.047 3.959h-2.436c-.446-1.723-1.995-3-3.857-3-2.21 0-4 1.79-4 4 0 2.21 1.79 4 4 4 1.863 0 3.412-1.277 3.857-3h2.143c0 3.867 3.133 7 7 7 3.867 0 7-3.133 7-7 0-2.658-1.479-4.969-3.66-6.154l2.523-4.859c.046.002.09.014.137.014 1.656 0 3-1.344 3-3 0-1.656-1.344-3-3-3-1.656 0-3 1.344-3 3 0 1.024.515 1.927 1.299 2.469l-2.4 4.799c-.605-.17-1.239-.268-1.898-.268-.38 0-.75.038-1.113.096l-2.799-5.191c1.156-.916 1.912-2.315 1.912-3.904 0-2.762-2.238-5-5-5" opacity=".1"/>
  <path d="m28 23c-3.867 0-7 3.133-7 7 0 3.867 3.133 7 7 7 3.867 0 7-3.133 7-7 0-3.867-3.133-7-7-7z" fill="#dedede"/>
  <path d="m21 9c-2.762 0-5 2.238-5 5 0 2.762 2.238 5 5 5 2.762 0 5-2.238 5-5 0-2.762-2.238-5-5-5z" fill="#dedede"/>
  <path d="m34 13c-1.656 0-3 1.344-3 3 0 1.656 1.344 3 3 3 1.656 0 3-1.344 3-3 0-1.656-1.344-3-3-3z" fill="#dedede"/>
  <path d="m15 25c-2.21 0-4 1.79-4 4 0 2.21 1.79 4 4 4 2.21 0 4-1.79 4-4 0-2.21-1.79-4-4-4z" fill="#dedede"/>
  <path d="m29.21 24.645l4.164-8.324 1.391.926-4.164 8.02m-1.391-.617" fill="#dedede"/>
  <path d="m20.883 16.32l4.625 10.328 2.465-1.539-5.238-9.715m-1.852.926" fill="#dedede"/>
  <path d="m23 28h-7v2h7" fill="#dedede"/>
  <path d="m28 25c-2.762 0-5 2.238-5 5 0 2.762 2.238 5 5 5 2.762 0 5-2.238 5-5 0-2.762-2.238-5-5-5z" fill="#069bce"/>
  <path d="m21 11c-1.656 0-3 1.344-3 3 0 1.656 1.344 3 3 3 1.656 0 3-1.344 3-3 0-1.656-1.344-3-3-3z" fill="#e34fe5"/>
  <path d="m34 14.5c-.828 0-1.5.672-1.5 1.5 0 .828.672 1.5 1.5 1.5.828 0 1.5-.672 1.5-1.5 0-.828-.672-1.5-1.5-1.5z" fill="#f5ab19"/>
  <path d="m15 27c-1.105 0-2 .895-2 2 0 1.105.895 2 2 2 1.105 0 2-.895 2-2 0-1.105-.895-2-2-2z" fill="#0cb417"/>
</svg>
