<svg xmlns="http://www.w3.org/2000/svg" viewBox="0 0 48 48">
 <defs>
  <linearGradient id="linearGradient3805" x1="1" x2="47" gradientUnits="userSpaceOnUse">
   <stop style="stop-color:#358570;stop-opacity:1"/>
   <stop offset="1" style="stop-color:#3b937c;stop-opacity:1"/>
  </linearGradient>
 </defs>
 <g>
  
  
  
 </g>
 <g transform="matrix(0,-1,1,0,0,48)" style="fill:url(#linearGradient3805);fill-opacity:1">
  <path d="M 24,1 C 46.703,1 47,1.297 47,24 47,46.703 46.703,47 24,47 1.297,47 1,46.703 1,24 1,1.297 1.297,1 24,1 z"/>
 </g>
 <g>
  
 </g>
 <g transform="translate(1,1)" style="fill:#000;opacity:0.1">
  <rect width="26" height="13" x="11" y="17" style="fill-opacity:1;stroke:none;fill-rule:nonzero"/>
 </g>
 <g>
  <rect y="17" x="11" height="13" width="26" style="fill:#ccc;fill-opacity:1;stroke:none;fill-rule:nonzero"/>
  <rect y="19" x="12" height="10" width="24" style="fill:#333;fill-opacity:1;stroke:none;fill-rule:nonzero"/>
  <rect y="22" x="15" height="5" width="3" style="fill:#b3b3b3;fill-opacity:1;stroke:none;fill-rule:nonzero"/>
  <rect transform="matrix(0,1,-1,0,0,0)" width="3" height="5" x="23" y="-19" style="fill:#b3b3b3;fill-opacity:1;stroke:none;fill-rule:nonzero"/>
  <rect y="19" x="21" height="1" width="6" style="fill:#999;fill-opacity:1;stroke:none;fill-rule:nonzero"/>
  <rect width="6" height="1" x="21" y="23" style="fill:#999;fill-opacity:1;stroke:none;fill-rule:nonzero"/>
  <rect width="6" height="2" x="21" y="25" style="fill:#b3b3b3;fill-opacity:1;stroke:none;fill-rule:nonzero"/>
  <rect y="21" x="21" height="1" width="6" style="fill:#999;fill-opacity:1;stroke:none;fill-rule:nonzero"/>
  <rect width="6" height="1" x="21" y="28" style="fill:#999;fill-opacity:1;stroke:none;fill-rule:nonzero"/>
  <rect y="25.751" x="21.665" height="0.5" width="2" style="fill:#333;fill-opacity:1;stroke:none;fill-rule:nonzero"/>
  <rect width="2" height="0.5" x="24.333" y="25.751" style="fill:#333;fill-opacity:1;stroke:none;fill-rule:nonzero"/>
  <rect width="3" height="3" x="32" y="24" style="fill:#b3b3b3;fill-opacity:1;stroke:none;fill-rule:nonzero"/>
  <g transform="translate(0,-1)">
   <rect width="3" height="3" x="28" y="25" style="fill:#b3b3b3;fill-opacity:1;stroke:none;fill-rule:nonzero"/>
   <g>
    <circle transform="matrix(0.83333333,0,0,0.83333333,54.916667,11.083333)" cx="-30.5" cy="18.5" r="1.5" style="fill:#d40000;fill-opacity:1;stroke:none;fill-rule:nonzero"/>
   </g>
  </g>
  <circle transform="matrix(0.83333333,0,0,0.83333333,58.916667,10.083333)" cx="-30.5" cy="18.5" r="1.5" style="fill:#d40000;fill-opacity:1;stroke:none;fill-rule:nonzero"/>
  <rect y="21" x="28" height="1" width="7" style="fill:#a00;fill-opacity:1;stroke:none;fill-rule:nonzero"/>
  <rect y="24" x="15" height="1" width="3" style="fill:#333;fill-opacity:1;stroke:none;fill-rule:nonzero"/>
  <rect y="23" x="16" height="3" width="1" style="fill:#333;fill-opacity:1;stroke:none;fill-rule:nonzero"/>
 </g>
</svg>
