<svg viewBox="0 0 48 48" xmlns="http://www.w3.org/2000/svg" xmlns:xlink="http://www.w3.org/1999/xlink">
  <linearGradient id="a" gradientTransform="matrix(0 -1 1 0 -.0000015 47.999998)" gradientUnits="userSpaceOnUse" x1="1" x2="47">
    <stop offset="0" stop-color="#accae6"/>
    <stop offset="1" stop-color="#bbd4eb"/>
  </linearGradient>
  <path d="m47 24c0 22.703-.297 23-23 23-22.703 0-23-.297-23-23 0-22.703.297-23 23-23 22.703 0 23 .297 23 23z" fill="url(#a)"/>
  <g fill-rule="evenodd" opacity=".1" stroke="#1e70b2" stroke-width="7.785" transform="translate(1 1)">
    <path d="m53.36-133.58c5.627 1.443 27.922 8.179 41.33 12.269 13.407 4.09 23.432 6.736 31.21 8.931 7.872 2.225 7.257 8.39 1.138 7.849-6.15-.601-13.407-3.909-20.665-6.736-7.257-2.767-30.11-9.443-41.852-13.412-11.685-3.879-14.515-3.879-16.18-6.135-1.661-2.165-.584-4.24 5.01-2.767m0 0" transform="matrix(.127028 0 0 .129898 7.740815 34.390842)"/>
    <path d="m137.13-109.01c5.01-.541 5.535 4.481 4.428 7.277-1.138 2.767-6.673 3.879-7.78 1.113-1.722-3.909-1.722-7.789 3.352-8.39m0 0" transform="matrix(.127028 0 0 .129898 7.740815 34.390842)"/>
    <path d="m202.94-149.25c-3.29 2.857-13.407 8.991-20.603 14.01-7.257 5.02-20.634 13.923-24.601 16.179-3.905 2.255-8.918 5.02-12.3 7.789-3.29 2.857-2.153 7.879 2.86 6.135 5.01-1.624 10.02-4.421 13.407-7.789 3.29-3.368 6.642-5.593 10.02-7.789 3.352-2.255 29.03-21.261 34.04-24.629 5.01-5.563.523-6.676-2.829-3.909m0 0" transform="matrix(.127028 0 0 .129898 7.740815 34.390842)"/>
    <path d="m215.82-158.69c2.768 0 3.875 6.165 1.107 7.819-2.768 1.624-6.734 1.624-6.734-3.909 0-5.623 2.829-3.909 5.627-3.909m0 0" transform="matrix(.127028 0 0 .129898 7.740815 34.390842)"/>
    <path d="m214.16-146.99c2.183 0 3.29 4.481 2.768 7.849-.584 3.308.523 25.11 1.138 32.898.523 7.849.523 11.247-.615 14.01-1.107 2.767 0 7.247 0 14.525 0 7.247-1.107 16.72-1.63 20.659-.615 3.909-1.138 6.676-3.383 6.165-2.245-.601-2.245-3.368-2.245-7.879 0-4.421 0-27.937.584-33.47.554-5.623.554-7.879.554-12.299 0-4.481 0-30.703 0-35.18 0-4.481.584-7.277 2.829-7.277m0 0" transform="matrix(.127028 0 0 .129898 7.740815 34.390842)"/>
    <path d="m212.44-46.46c3.352-.541 4.49 5.593 2.768 7.247-1.63 1.714-5.535 1.143-6.673-1.624-1.107-2.797.554-5.02 3.905-5.623m0 0" transform="matrix(.127028 0 0 .129898 7.740815 34.390842)"/>
    <path d="m41.494-138.6c3.01-.451 3.998 5.02 1.507 7.01-2.522 2.045-5.996.511-5.474-2.526.461-2.947.984-3.939 3.967-4.481m0 0" transform="matrix(.127028 0 0 .129898 7.740815 34.390842)"/>
    <path d="m48.536-143.08c7.01-3.518 21.526-12.57 25.03-13.562 3.506-.992 9.963-4.992 12.485-6.977 2.491-1.985 10.486-6.556 11.993-7.548 1.538-.992 8.518 0 2.522 4.03-5.996 4.03-14.515 8.991-20.542 12.51-5.996 3.548-23.03 12.54-26.538 14.04-3.475 1.534-11.993.992-4.951-2.496m0 0" transform="matrix(.127028 0 0 .129898 7.740815 34.390842)"/>
    <path d="m108.07-176.19c.984-.451 4.03 2.045 2.522 4.03-1.538 1.985-3.506 3.518-5.535 0-1.999-3.488 2.03-3.488 3.01-4.03m0 0" transform="matrix(.127028 0 0 .129898 7.740815 34.390842)"/>
    <path d="m118.13-175.65c6.458 0 22.51 2.496 27.522 4.03 4.951 1.443 14.976 2.977 16.975 3.488 2.03.481 9.04.481 10.548.992 1.445.451 5.996 2.496 14.976 3.518 9.04.962 14.515 1.955 17.04 2.947 2.522 1.053.984 7.07-3.044 6.01-3.967-.992-20.449-2.977-24.478-3.488-4.03-.481-12.02-3.518-16.513-3.969-4.551-.541-16.02-3.037-25.554-4.03-9.502-.992-16.02-2.977-18.543-3.518-2.491-.511-5.474-5.984 1.076-5.984m0 0" transform="matrix(.127028 0 0 .129898 7.740815 34.390842)"/>
    <path d="m40.02-122.09c0-3.488 5.504-5.02 6.03-.451.461 4.481.984 11.999 1.445 18.01.523 6.01 1.046 11.487 1.507 15.517.554 3.969 3.044 14.01 3.506 17.05.523 2.977.984 8.991.984 12.48 0 3.488 1.076 8.51.523 11.04-.523 2.496-3.01 8.991-4.459 1.504-1.538-7.518-.554-17.02-1.538-19.547-.984-2.496-3.044-7.969-3.044-11.999 0-4.03-1.968-14.555-2.429-17.05-.523-2.496-2.522-23.06-2.522-26.553m0 0" transform="matrix(.127028 0 0 .129898 7.740815 34.390842)"/>
    <path d="m50.996-37.411c.523-2.045 4.551-3.518 5.996-.992 1.538 2.496 1.076 6.465-2.429 6.977-3.567.481-4.03-4-3.567-6.01m0 .03" transform="matrix(.127028 0 0 .129898 7.740815 34.390842)"/>
    <path d="m59.05-43.966c4.49-4.481 17.467-11.487 25-18.01 7.534-6.495 21-15.547 23.494-18.04 2.522-2.496 9.04-.451 3.506 4.03-5.474 4.481-18.481 13.983-24.02 18.494-5.504 4.541-20.48 14.525-23.494 17.562-2.983 2.977-8.979.451-4.49-4.03m0 0" transform="matrix(.127028 0 0 .129898 7.740815 34.390842)"/>
    <path d="m117.6-88.53c1.968.511 1.968 4.541 0 5.533-1.999.992-5.504.481-5.01-2.496.523-3.037 3.01-3.518 5.01-3.037m0 0" transform="matrix(.127028 0 0 .129898 7.740815 34.390842)"/>
    <path d="m66.03-32.389c7.01 1.955 22.51 11.999 27.522 13.983 5.01 1.985 14.515 7.01 19 9.533 4.49 2.496 15.529 7.518 18.574 8.961 2.952 1.534 5.474 2.045 6.98 3.579 1.538 1.443-.523 7.01-4.49 4.932-3.998-1.955-19.527-9.954-22.05-11.487-2.491-1.504-11.993-6.526-15.04-8.51-2.983-1.985-7.01-2.496-10.978-4.481-3.998-1.985-18.02-9.533-22.571-12.03-4.49-2.526-3.936-6.556 3.044-4.481m0 0" transform="matrix(.127028 0 0 .129898 7.740815 34.390842)"/>
    <path d="m135.07-93.49c-.461 4.962.554 14.464 1.076 16.99.461 2.496 2.429 12.991 1.968 20.539-.523 7.518 0 17.02.984 22.04 1.015 5.02 1.538 18.04 1.538 21.531 0 3.518.984 7.999 1.507 8.991.461 1.053 3.506 5.533 3.967-.992.523-6.465 0-19.486.523-23.516.461-4.03-.523-13.532-1.507-25.561-1.015-12.03-1.538-21.982-1.538-25.02 0-2.977.984-10.495-.984-13.532-1.507-5.02-6.98-6.495-7.534-1.474m0 0" transform="matrix(.127028 0 0 .129898 7.740815 34.390842)"/>
    <path d="m144.6 5.652c1.507-.541 6.519 3.488 4.551 7.969-2.06 4.511-5.04 2.526-7.01-.962-2.03-3.518.984-6.556 2.46-7.01m0 0" transform="matrix(.127028 0 0 .129898 7.740815 34.390842)"/>
    <path d="m155.15.63c6.458-7.518 7.995-5.473 11.47-8.51 3.506-2.977 17.497-14.01 22.51-18.494 5.01-4.571 9.04-7.07 12.02-9.533 3.044-2.496 7.534 1.203 3.044 3.969-4.49 2.767-14.515 12.63-18.543 18.04-3.967 5.413-7.534 4.03-12.02 8.51-4.49 4.511-6.98 7.999-9.502 9.05-2.522.992-4.49 2.436-6.458 3.969-2.06 1.504-9.07.511-2.522-7.01m0 0" transform="matrix(.127028 0 0 .129898 7.740815 34.390842)"/>
    <path d="m126.58-85.04c3.01 1.053 15.56 5.563 24.02 9.563 8.518 3.969 29.03 12.51 33.06 15.01 4.03 2.526 20.02 8.54 22.05 10.04 1.999 1.443 2.46 8.991-2.03 7.01-4.49-2.045-17.04-9.05-25.03-12.57-7.965-3.488-20.511-9.503-26.538-11.01-5.996-1.474-17.467-8.48-20.511-10.525-2.983-1.985-6.488-1.985-7.995-4.481-1.507-2.496 0-4.03 2.983-3.037m0 0" transform="matrix(.127028 0 0 .129898 7.740815 34.390842)"/>
    <path d="m111.58-163.11c1.015 6.01 1.999 12.48 1.999 17.502 0 5.02.984 13.02 1.507 15.517.523 2.526 1.538 11.04.984 12.57-.461 1.443 0 13.472 0 16.509 0 2.947 1.015 6.977-1.968 6.977-3.044 0-3.506-2.496-3.506-7.969 0-5.563-2.03-17.592-2.03-22.614 0-4.932-1.015-15.517-1.015-22.494 0-7.01-1.445-14.555-1.968-16.539-.523-1.955 5.01-5.473 5.996.541m0 0" transform="matrix(.127028 0 0 .129898 7.740815 34.390842)"/>
  </g>
  <path d="m53.36-133.58c5.627 1.443 27.922 8.179 41.33 12.269 13.407 4.09 23.432 6.736 31.21 8.931 7.872 2.225 7.257 8.39 1.138 7.849-6.15-.601-13.407-3.909-20.665-6.736-7.257-2.767-30.11-9.443-41.852-13.412-11.685-3.879-14.515-3.879-16.18-6.135-1.661-2.165-.584-4.24 5.01-2.767m0 0" fill="#1e70b2" fill-rule="evenodd" stroke="#1e70b2" stroke-width="7.785" transform="matrix(.127028 0 0 .129898 7.740815 34.390842)"/>
  <path d="m137.13-109.01c5.01-.541 5.535 4.481 4.428 7.277-1.138 2.767-6.673 3.879-7.78 1.113-1.722-3.909-1.722-7.789 3.352-8.39m0 0" fill="#1e70b2" fill-rule="evenodd" stroke="#1e70b2" stroke-width="7.785" transform="matrix(.127028 0 0 .129898 7.740815 34.390842)"/>
  <path d="m202.94-149.25c-3.29 2.857-13.407 8.991-20.603 14.01-7.257 5.02-20.634 13.923-24.601 16.179-3.905 2.255-8.918 5.02-12.3 7.789-3.29 2.857-2.153 7.879 2.86 6.135 5.01-1.624 10.02-4.421 13.407-7.789 3.29-3.368 6.642-5.593 10.02-7.789 3.352-2.255 29.03-21.261 34.04-24.629 5.01-5.563.523-6.676-2.829-3.909m0 0" fill="#1e70b2" fill-rule="evenodd" stroke="#1e70b2" stroke-width="7.785" transform="matrix(.127028 0 0 .129898 7.740815 34.390842)"/>
  <path d="m215.82-158.69c2.768 0 3.875 6.165 1.107 7.819-2.768 1.624-6.734 1.624-6.734-3.909 0-5.623 2.829-3.909 5.627-3.909m0 0" fill="#1e70b2" fill-rule="evenodd" stroke="#1e70b2" stroke-width="7.785" transform="matrix(.127028 0 0 .129898 7.740815 34.390842)"/>
  <path d="m214.16-146.99c2.183 0 3.29 4.481 2.768 7.849-.584 3.308.523 25.11 1.138 32.898.523 7.849.523 11.247-.615 14.01-1.107 2.767 0 7.247 0 14.525 0 7.247-1.107 16.72-1.63 20.659-.615 3.909-1.138 6.676-3.383 6.165-2.245-.601-2.245-3.368-2.245-7.879 0-4.421 0-27.937.584-33.47.554-5.623.554-7.879.554-12.299 0-4.481 0-30.703 0-35.18 0-4.481.584-7.277 2.829-7.277m0 0" fill="#1e70b2" fill-rule="evenodd" stroke="#1e70b2" stroke-width="7.785" transform="matrix(.127028 0 0 .129898 7.740815 34.390842)"/>
  <path d="m212.44-46.46c3.352-.541 4.49 5.593 2.768 7.247-1.63 1.714-5.535 1.143-6.673-1.624-1.107-2.797.554-5.02 3.905-5.623m0 0" fill="#1e70b2" fill-rule="evenodd" stroke="#1e70b2" stroke-width="7.785" transform="matrix(.127028 0 0 .129898 7.740815 34.390842)"/>
  <path d="m41.494-138.6c3.01-.451 3.998 5.02 1.507 7.01-2.522 2.045-5.996.511-5.474-2.526.461-2.947.984-3.939 3.967-4.481m0 0" fill="#1e70b2" fill-rule="evenodd" stroke="#1e70b2" stroke-width="7.785" transform="matrix(.127028 0 0 .129898 7.740815 34.390842)"/>
  <path d="m48.536-143.08c7.01-3.518 21.526-12.57 25.03-13.562 3.506-.992 9.963-4.992 12.485-6.977 2.491-1.985 10.486-6.556 11.993-7.548 1.538-.992 8.518 0 2.522 4.03-5.996 4.03-14.515 8.991-20.542 12.51-5.996 3.548-23.03 12.54-26.538 14.04-3.475 1.534-11.993.992-4.951-2.496m0 0" fill="#1e70b2" fill-rule="evenodd" stroke="#1e70b2" stroke-width="7.785" transform="matrix(.127028 0 0 .129898 7.740815 34.390842)"/>
  <path d="m108.07-176.19c.984-.451 4.03 2.045 2.522 4.03-1.538 1.985-3.506 3.518-5.535 0-1.999-3.488 2.03-3.488 3.01-4.03m0 0" fill="#1e70b2" fill-rule="evenodd" stroke="#1e70b2" stroke-width="7.785" transform="matrix(.127028 0 0 .129898 7.740815 34.390842)"/>
  <path d="m118.13-175.65c6.458 0 22.51 2.496 27.522 4.03 4.951 1.443 14.976 2.977 16.975 3.488 2.03.481 9.04.481 10.548.992 1.445.451 5.996 2.496 14.976 3.518 9.04.962 14.515 1.955 17.04 2.947 2.522 1.053.984 7.07-3.044 6.01-3.967-.992-20.449-2.977-24.478-3.488-4.03-.481-12.02-3.518-16.513-3.969-4.551-.541-16.02-3.037-25.554-4.03-9.502-.992-16.02-2.977-18.543-3.518-2.491-.511-5.474-5.984 1.076-5.984m0 0" fill="#1e70b2" fill-rule="evenodd" stroke="#1e70b2" stroke-width="7.785" transform="matrix(.127028 0 0 .129898 7.740815 34.390842)"/>
  <path d="m40.02-122.09c0-3.488 5.504-5.02 6.03-.451.461 4.481.984 11.999 1.445 18.01.523 6.01 1.046 11.487 1.507 15.517.554 3.969 3.044 14.01 3.506 17.05.523 2.977.984 8.991.984 12.48 0 3.488 1.076 8.51.523 11.04-.523 2.496-3.01 8.991-4.459 1.504-1.538-7.518-.554-17.02-1.538-19.547-.984-2.496-3.044-7.969-3.044-11.999 0-4.03-1.968-14.555-2.429-17.05-.523-2.496-2.522-23.06-2.522-26.553m0 0" fill="#1e70b2" fill-rule="evenodd" stroke="#1e70b2" stroke-width="7.785" transform="matrix(.127028 0 0 .129898 7.740815 34.390842)"/>
  <path d="m50.996-37.411c.523-2.045 4.551-3.518 5.996-.992 1.538 2.496 1.076 6.465-2.429 6.977-3.567.481-4.03-4-3.567-6.01m0 .03" fill="#1e70b2" fill-rule="evenodd" stroke="#1e70b2" stroke-width="7.785" transform="matrix(.127028 0 0 .129898 7.740815 34.390842)"/>
  <path d="m59.05-43.966c4.49-4.481 17.467-11.487 25-18.01 7.534-6.495 21-15.547 23.494-18.04 2.522-2.496 9.04-.451 3.506 4.03-5.474 4.481-18.481 13.983-24.02 18.494-5.504 4.541-20.48 14.525-23.494 17.562-2.983 2.977-8.979.451-4.49-4.03m0 0" fill="#1e70b2" fill-rule="evenodd" stroke="#1e70b2" stroke-width="7.785" transform="matrix(.127028 0 0 .129898 7.740815 34.390842)"/>
  <path d="m117.6-88.53c1.968.511 1.968 4.541 0 5.533-1.999.992-5.504.481-5.01-2.496.523-3.037 3.01-3.518 5.01-3.037m0 0" fill="#1e70b2" fill-rule="evenodd" stroke="#1e70b2" stroke-width="7.785" transform="matrix(.127028 0 0 .129898 7.740815 34.390842)"/>
  <path d="m66.03-32.389c7.01 1.955 22.51 11.999 27.522 13.983 5.01 1.985 14.515 7.01 19 9.533 4.49 2.496 15.529 7.518 18.574 8.961 2.952 1.534 5.474 2.045 6.98 3.579 1.538 1.443-.523 7.01-4.49 4.932-3.998-1.955-19.527-9.954-22.05-11.487-2.491-1.504-11.993-6.526-15.04-8.51-2.983-1.985-7.01-2.496-10.978-4.481-3.998-1.985-18.02-9.533-22.571-12.03-4.49-2.526-3.936-6.556 3.044-4.481m0 0" fill="#1e70b2" fill-rule="evenodd" stroke="#1e70b2" stroke-width="7.785" transform="matrix(.127028 0 0 .129898 7.740815 34.390842)"/>
  <path d="m135.07-93.49c-.461 4.962.554 14.464 1.076 16.99.461 2.496 2.429 12.991 1.968 20.539-.523 7.518 0 17.02.984 22.04 1.015 5.02 1.538 18.04 1.538 21.531 0 3.518.984 7.999 1.507 8.991.461 1.053 3.506 5.533 3.967-.992.523-6.465 0-19.486.523-23.516.461-4.03-.523-13.532-1.507-25.561-1.015-12.03-1.538-21.982-1.538-25.02 0-2.977.984-10.495-.984-13.532-1.507-5.02-6.98-6.495-7.534-1.474m0 0" fill="#1e70b2" fill-rule="evenodd" stroke="#1e70b2" stroke-width="7.785" transform="matrix(.127028 0 0 .129898 7.740815 34.390842)"/>
  <path d="m144.6 5.652c1.507-.541 6.519 3.488 4.551 7.969-2.06 4.511-5.04 2.526-7.01-.962-2.03-3.518.984-6.556 2.46-7.01m0 0" fill="#1e70b2" fill-rule="evenodd" stroke="#1e70b2" stroke-width="7.785" transform="matrix(.127028 0 0 .129898 7.740815 34.390842)"/>
  <path d="m155.15.63c6.458-7.518 7.995-5.473 11.47-8.51 3.506-2.977 17.497-14.01 22.51-18.494 5.01-4.571 9.04-7.07 12.02-9.533 3.044-2.496 7.534 1.203 3.044 3.969-4.49 2.767-14.515 12.63-18.543 18.04-3.967 5.413-7.534 4.03-12.02 8.51-4.49 4.511-6.98 7.999-9.502 9.05-2.522.992-4.49 2.436-6.458 3.969-2.06 1.504-9.07.511-2.522-7.01m0 0" fill="#1e70b2" fill-rule="evenodd" stroke="#1e70b2" stroke-width="7.785" transform="matrix(.127028 0 0 .129898 7.740815 34.390842)"/>
  <path d="m126.58-85.04c3.01 1.053 15.56 5.563 24.02 9.563 8.518 3.969 29.03 12.51 33.06 15.01 4.03 2.526 20.02 8.54 22.05 10.04 1.999 1.443 2.46 8.991-2.03 7.01-4.49-2.045-17.04-9.05-25.03-12.57-7.965-3.488-20.511-9.503-26.538-11.01-5.996-1.474-17.467-8.48-20.511-10.525-2.983-1.985-6.488-1.985-7.995-4.481-1.507-2.496 0-4.03 2.983-3.037m0 0" fill="#1e70b2" fill-rule="evenodd" stroke="#1e70b2" stroke-width="7.785" transform="matrix(.127028 0 0 .129898 7.740815 34.390842)"/>
  <path d="m111.58-163.11c1.015 6.01 1.999 12.48 1.999 17.502 0 5.02.984 13.02 1.507 15.517.523 2.526 1.538 11.04.984 12.57-.461 1.443 0 13.472 0 16.509 0 2.947 1.015 6.977-1.968 6.977-3.044 0-3.506-2.496-3.506-7.969 0-5.563-2.03-17.592-2.03-22.614 0-4.932-1.015-15.517-1.015-22.494 0-7.01-1.445-14.555-1.968-16.539-.523-1.955 5.01-5.473 5.996.541m0 0" fill="#1e70b2" fill-rule="evenodd" stroke="#1e70b2" stroke-width="7.785" transform="matrix(.127028 0 0 .129898 7.740815 34.390842)"/>
</svg>
