<svg viewBox="0 0 48 48" xmlns="http://www.w3.org/2000/svg" xmlns:xlink="http://www.w3.org/1999/xlink">
  <linearGradient id="a" gradientTransform="matrix(0 -1 1 0 -.0000015 47.999998)" gradientUnits="userSpaceOnUse" x1="1" x2="47">
    <stop offset="0" stop-color="#575757"/>
    <stop offset="1" stop-color="#616161"/>
  </linearGradient>
  <path d="m47 24c0 22.703-.297 23-23 23-22.703 0-23-.297-23-23 0-22.703.297-23 23-23 22.703 0 23 .297 23 23z" fill="url(#a)"/>
  <path d="m25 10l-14 24h28zm0 4l4.115 7c-2.743 0-5.487 0-8.23 0zm-4.5 9c3 0 6 0 9 0l-4.5 8m-6-6.65l4.281 7.65h-8.828m16.547-7.65l4.547 7.65h-8.828" fill-rule="evenodd" opacity=".1"/>
  <path d="m24 9l-14 24h28zm0 4l4.115 7c-2.743 0-5.487 0-8.23 0zm-4.5 9c3 0 6 0 9 0l-4.5 8m-6-6.65l4.281 7.65h-8.828m16.547-7.65l4.547 7.65h-8.828" fill="#eceb6c" fill-rule="evenodd"/>
</svg>
