<svg viewBox="0 0 48 48" xmlns="http://www.w3.org/2000/svg" xmlns:xlink="http://www.w3.org/1999/xlink">
  <linearGradient id="a" gradientTransform="matrix(0 -1 1 0 -.0000015 47.999998)" gradientUnits="userSpaceOnUse" x1="1" x2="47">
    <stop offset="0" stop-color="#d9c3cb"/>
    <stop offset="1" stop-color="#e1d0d6"/>
  </linearGradient>
  <path d="m47 24c0 22.703-.297 23-23 23-22.703 0-23-.297-23-23 0-22.703.297-23 23-23 22.703 0 23 .297 23 23z" fill="url(#a)"/>
  <g fill-rule="evenodd" opacity=".1" transform="translate(1 1)">
    <path d="m38 30l-7.5 8-7.5-8h4v-12h7v12m4 0"/>
    <path d="m25 18l-7.5-8-7.5 8h4v12h7v-12m4 0"/>
  </g>
  <path d="m38 30l-7.5 8-7.5-8h4v-12h7v12m4 0" fill="#e56062" fill-rule="evenodd"/>
  <path d="m25 18l-7.5-8-7.5 8h4v12h7v-12m4 0" fill="#3ba3e2" fill-rule="evenodd"/>
</svg>
