<svg xmlns="http://www.w3.org/2000/svg" viewBox="0 0 48 48">
 <defs>
  <linearGradient id="linearGradient3147" gradientUnits="userSpaceOnUse" gradientTransform="matrix(0,-1,1,0,-1e-6,47.999998)" x1="1" x2="47">
   <stop style="stop-color:#d34e2f;stop-opacity:1"/>
   <stop offset="1" style="stop-color:#d65c40;stop-opacity:1"/>
  </linearGradient>
 </defs>
 <g>
  
  
  
 </g>
 <path d="M 24,1 C 1.297,1 1,1.297 1,24 l 23,0 0,-23 z m 0,23 0,23 C 46.703,47 47,46.703 47,24 l -23,0 z" style="fill:url(#linearGradient3147);fill-opacity:1"/>
 <path d="m 45.594 16.09 c 0.129 0.352 0.263 0.702 0.375 1.063 -0.111 -0.356 -0.247 -0.714 -0.375 -1.063 z m -20.594 7.906 l 0 1 21.969 0 c 0.014 -0.331 0.031 -0.666 0.031 -1 l -22 0 z" style="fill:#000;opacity:0.1;fill-opacity:1;stroke:none;fill-rule:nonzero"/>
 <path d="m 24 25 0 22 c 0.334 0 0.669 -0.017 1 -0.031 l 0 -21.969 z" style="fill:#000;opacity:0.1;fill-opacity:1;stroke:none;fill-rule:nonzero"/>
 <path d="m 24,1 0,23 23,0 C 47,1.297 46.703,1 24,1 z" style="fill:#2d2d2d;fill-opacity:1;stroke:none;fill-rule:nonzero"/>
 <path d="M 1,24 C 1,46.703 1.297,47 24,47 L 24,24 1,24 z" style="fill:#2d2d2d;fill-opacity:1;stroke:none;fill-rule:nonzero"/>
 <g>
  
 </g>
</svg>
