<svg xmlns="http://www.w3.org/2000/svg" viewBox="0 0 48 48">
 <defs>
  <linearGradient id="linearGradient4367" x1="1" x2="47" gradientUnits="userSpaceOnUse">
   <stop style="stop-color:#373534;stop-opacity:1"/>
   <stop offset="1" style="stop-color:#423f3e;stop-opacity:1"/>
  </linearGradient>
 </defs>
 <g>
  
  
  
 </g>
 <g transform="matrix(0,-1,1,0,0,48)" style="fill:url(#linearGradient4367);fill-opacity:1">
  <path d="M 24,1 C 46.703,1 47,1.297 47,24 47,46.703 46.703,47 24,47 1.297,47 1,46.703 1,24 1,1.297 1.297,1 24,1 Z" style="fill-opacity:1"/>
 </g>
 <path d="m 25 12 -11 6 0 14 11 6 11 -6 0 -14 z" style="fill:#000;opacity:0.1;fill-opacity:1"/>
 <g>
  
 </g>
 <path d="m 24 11 -11 6 0 14 11 6 11 -6 0 -14 z" style="fill:#04983c;fill-opacity:1"/>
 <g transform="matrix(0.58180615,0,0,0.58005865,-20.746737,32.740674)" style="fill:#000;opacity:0.1;fill-opacity:1">
  <path d="m 88.12 -25.412 c -1.38 0.02 -2.619 1.155 -2.619 2.535 l 0 12.98 -14.639 -14.748 c -1.569 -1.58 -4.268 -0.459 -4.268 1.768 l 0 19.06 c 0 3.381 5.156 3.381 5.156 0 l 0 -12.98 14.639 14.748 c 1.569 1.58 4.268 0.459 4.268 -1.768 l 0 -19.06 c 0 -1.409 -1.128 -2.556 -2.537 -2.535 z" mix-blend-mode="normal" isolation="auto" white-space="normal" solid-opacity="1" solid-color="#000000" style="visibility:visible;shape-rendering:auto;color-interpolation-filters:linearRGB;fill:#000;opacity:1;image-rendering:auto;stroke:none;display:inline;color:#000;fill-rule:nonzero;color-rendering:auto;color-interpolation:sRGB"/>
 </g>
 <g transform="matrix(0.58180615,0,0,0.58005865,-15.019792,38.193373)" style="fill:#f2f2f2">
  <g transform="translate(-11.56225,-11.12422)">
   <path d="m 88.12 -25.412 c -1.38 0.02 -2.619 1.155 -2.619 2.535 l 0 12.98 -14.639 -14.748 c -1.569 -1.58 -4.268 -0.459 -4.268 1.768 l 0 19.06 c 0 3.381 5.156 3.381 5.156 0 l 0 -12.98 14.639 14.748 c 1.569 1.58 4.268 0.459 4.268 -1.768 l 0 -19.06 c 0 -1.409 -1.128 -2.556 -2.537 -2.535 z" mix-blend-mode="normal" isolation="auto" white-space="normal" solid-opacity="1" solid-color="#000000" style="visibility:visible;shape-rendering:auto;color-interpolation-filters:linearRGB;opacity:1;image-rendering:auto;fill-opacity:1;stroke:none;display:inline;color:#000;fill-rule:nonzero;color-rendering:auto;color-interpolation:sRGB"/>
  </g>
 </g>
</svg>
