<svg xmlns="http://www.w3.org/2000/svg" viewBox="0 0 48 48">
 <defs>
  <linearGradient id="linearGradient3764" x1="1" x2="47" gradientUnits="userSpaceOnUse" gradientTransform="matrix(0,-1,1,0,-1.5e-6,47.999998)">
   <stop style="stop-color:#ea565a;stop-opacity:1"/>
   <stop offset="1" style="stop-color:#ec6769;stop-opacity:1"/>
  </linearGradient>
 </defs>
 <g>
  
  
  
 </g>
 <g>
  <path d="m 47,24 C 47,46.703 46.703,47 24,47 1.297,47 1,46.703 1,24 1,1.297 1.297,1 24,1 46.703,1 47,1.297 47,24 z" style="fill:url(#linearGradient3764);fill-opacity:1"/>
 </g>
 <path d="m 14 14 c -1.108 0 -2 0.892 -2 2 l 0 18 c 0 1.108 0.892 2 2 2 l 19.814 0 0.516 0.516 c 0.398 0.398 0.968 0.575 1.51 0.438 0.545 -0.138 0.97 -0.566 1.111 -1.111 0.008 -0.032 0.005 -0.065 0.012 -0.098 0.616 -0.34 1.037 -0.988 1.037 -1.744 l 0 -18 c 0 -1.108 -0.892 -2 -2 -2 l -22 0 z" style="fill:#000;opacity:0.1;fill-opacity:1;stroke:none;fill-rule:nonzero"/>
 <g>
  
 </g>
 <g>
  <rect y="13" x="11" height="22" width="26" rx="2" style="fill:#edead5;opacity:1;fill-opacity:1;stroke:none"/>
  <g transform="matrix(3.543307,0,0,3.543307,7.2038501e-8,6.0522782e-4)">
   <rect height="5.08" width="6.209" x="3.669" y="4.233" style="fill:#6dbfdf;fill-opacity:1"/>
   <path d="m 8.467 6.209 -3.387 3.104 4.798 0 0 -1.693 z" style="fill:#47b13f;fill-opacity:1"/>
   <path d="m 6.491 5.644 a 0.988 0.988 0 0 1 -1.976 0 0.988 0.988 0 1 1 1.976 0 z" style="fill:#e8e644;fill-opacity:1"/>
   <path d="m 5.927 5.926 -2.258 2.54 0 0.847 4.798 0 z" style="fill:#29a147;fill-opacity:1"/>
   <g transform="matrix(0.14111073,0,0,0.14107097,4.7979098,4.7981795)">
    <g>
     <!-- color: #e8a23b -->
     <g>
      <path transform="matrix(2.0000055,0,0,2.0005691,-34.001028,-34.013733)" d="m 26.801 23 c -0.459 0.007 -0.918 0.094 -1.352 0.262 l 2.328 2.328 c 0.397 0.397 0.576 0.963 0.436 1.51 -0.14 0.547 -0.566 0.971 -1.111 1.111 -0.545 0.141 -1.111 -0.037 -1.51 -0.436 l -2.326 -2.326 c -0.541 1.385 -0.255 3.034 0.863 4.15 1.12 1.118 2.765 1.404 4.15 0.863 l 4.535 4.537 2.186 0 c 0.182 -0.075 0.377 -0.059 0.547 -0.086 0.375 -0.106 0.702 -0.315 0.951 -0.6 l -6.03 -6.03 c 0.541 -1.385 0.255 -3.03 -0.863 -4.148 -0.769 -0.768 -1.791 -1.151 -2.801 -1.135" style="fill:#000;opacity:0.1;fill-opacity:1;stroke:none;fill-rule:nonzero"/>
      <path transform="matrix(2.0000055,0,0,2.0005691,-34.001028,-34.013733)" d="m 25.801 22 c -0.459 0.007 -0.918 0.094 -1.352 0.262 l 2.328 2.328 c 0.397 0.397 0.576 0.963 0.436 1.51 -0.14 0.547 -0.566 0.971 -1.111 1.111 -0.545 0.141 -1.111 -0.037 -1.51 -0.436 l -2.326 -2.326 c -0.541 1.385 -0.255 3.034 0.863 4.15 1.12 1.118 2.765 1.404 4.15 0.863 l 6.05 6.05 c 0.398 0.398 0.968 0.575 1.51 0.438 0.545 -0.138 0.97 -0.566 1.111 -1.111 0.141 -0.545 -0.038 -1.112 -0.436 -1.51 l -6.05 -6.05 c 0.541 -1.385 0.255 -3.03 -0.863 -4.148 c -0.769 -0.768 -1.791 -1.151 -2.801 -1.135 m 8.7 11.976 c 0.289 0 0.523 0.235 0.523 0.523 0 0.291 -0.234 0.525 -0.523 0.525 -0.289 0 -0.525 -0.234 -0.525 -0.525 0 -0.289 0.234 -0.523 0.525 -0.523 z" style="fill:#373737;fill-opacity:1;stroke:none;fill-rule:nonzero"/>
     </g>
    </g>
   </g>
  </g>
 </g>
</svg>
