<svg viewBox="0 0 48 48" xmlns="http://www.w3.org/2000/svg" xmlns:xlink="http://www.w3.org/1999/xlink">
  <linearGradient id="a" gradientTransform="matrix(0 -1 1 0 -.0000015 47.999998)" gradientUnits="userSpaceOnUse" x1="1" x2="47">
    <stop offset="0" stop-color="#e4e4e4"/>
    <stop offset="1" stop-color="#eee"/>
  </linearGradient>
  <linearGradient id="b" gradientTransform="matrix(.157768 0 0 .15 1.281448 .450004)" gradientUnits="userSpaceOnUse" x2="0" y1="37" y2="272">
    <stop offset="0" stop-color="#1295de"/>
    <stop offset="1" stop-color="#4b52ba"/>
  </linearGradient>
  <path d="m47 24c0 22.703-.297 23-23 23-22.703 0-23-.297-23-23 0-22.703.297-23 23-23 22.703 0 23 .297 23 23z" fill="url(#a)"/>
  <path d="m22.57 26.523c.082-.262-.086-.52-.375-.52h-4.91c-.289 0-.352-.238-.164-.449l10.484-13.414c.184-.211.254-.176.148.082l-2.305 9.371c-.102.254.047.41.336.41h4.922c.289 0 .379.23.203.449l-10.512 13.406c-.176.223-.254.184-.168-.082m2.34-9.254" fill-rule="evenodd" opacity=".1" transform="translate(1 1)"/>
  <path d="m22.57 26.523c.082-.262-.086-.52-.375-.52h-4.91c-.289 0-.352-.238-.164-.449l10.484-13.414c.184-.211.254-.176.148.082l-2.305 9.371c-.102.254.047.41.336.41h4.922c.289 0 .379.23.203.449l-10.512 13.406c-.176.223-.254.184-.168-.082m2.34-9.254" fill="url(#b)" fill-rule="evenodd"/>
</svg>
