<svg xmlns="http://www.w3.org/2000/svg" viewBox="0 0 48 48">
 <defs>
  <linearGradient id="linearGradient3764" x1="1" x2="47" gradientUnits="userSpaceOnUse" gradientTransform="matrix(0,-1,1,0,-1.5e-6,47.999998)">
   <stop style="stop-color:#e4e4e4;stop-opacity:1"/>
   <stop offset="1" style="stop-color:#eee;stop-opacity:1"/>
  </linearGradient>
  <linearGradient id="linear0" gradientUnits="userSpaceOnUse" y1="37" x2="0" y2="272" gradientTransform="matrix(0.157768,0,0,0.15,1.281448,0.450004)">
   <stop style="stop-color:#1295de;stop-opacity:1"/>
   <stop offset="1" style="stop-color:#4b52ba;stop-opacity:1"/>
  </linearGradient>
 </defs>
 <g>
  
  
  
 </g>
 <g>
  <path d="m 47,24 C 47,46.703 46.703,47 24,47 1.297,47 1,46.703 1,24 1,1.297 1.297,1 24,1 46.703,1 47,1.297 47,24 z" style="fill:url(#linearGradient3764);fill-opacity:1"/>
 </g>
 <g>
  <g>
   <g transform="translate(1,1)">
    <g style="opacity:0.1">
     <!-- color: #eeeeee -->
     <g>
      <path d="m 22.57 26.523 c 0.082 -0.262 -0.086 -0.52 -0.375 -0.52 l -4.91 0 c -0.289 0 -0.352 -0.238 -0.164 -0.449 l 10.484 -13.414 c 0.184 -0.211 0.254 -0.176 0.148 0.082 l -2.305 9.371 c -0.102 0.254 0.047 0.41 0.336 0.41 l 4.922 0 c 0.289 0 0.379 0.23 0.203 0.449 l -10.512 13.406 c -0.176 0.223 -0.254 0.184 -0.168 -0.082 m 2.34 -9.254" style="fill:#000;stroke:none;fill-rule:evenodd"/>
     </g>
    </g>
   </g>
  </g>
 </g>
 <g>
  <g>
   <!-- color: #eeeeee -->
   <g>
    <path d="m 22.57 26.523 c 0.082 -0.262 -0.086 -0.52 -0.375 -0.52 l -4.91 0 c -0.289 0 -0.352 -0.238 -0.164 -0.449 l 10.484 -13.414 c 0.184 -0.211 0.254 -0.176 0.148 0.082 l -2.305 9.371 c -0.102 0.254 0.047 0.41 0.336 0.41 l 4.922 0 c 0.289 0 0.379 0.23 0.203 0.449 l -10.512 13.406 c -0.176 0.223 -0.254 0.184 -0.168 -0.082 m 2.34 -9.254" style="fill:url(#linear0);stroke:none;fill-rule:evenodd"/>
   </g>
  </g>
 </g>
 <g>
  
 </g>
</svg>
