<svg xmlns="http://www.w3.org/2000/svg" viewBox="0 0 48 48">
 <defs>
  <linearGradient id="linearGradient3901" x1="1" x2="47" gradientUnits="userSpaceOnUse">
   <stop style="stop-color:#46483e;stop-opacity:1"/>
   <stop offset="1" style="stop-color:#505347;stop-opacity:1"/>
  </linearGradient>
 </defs>
 <g>
  
  
  
 </g>
 <g transform="matrix(0,-1,1,0,0,48)" style="fill:url(#linearGradient3901);fill-opacity:1">
  <path d="M 24,1 C 46.703,1 47,1.297 47,24 47,46.703 46.703,47 24,47 1.297,47 1,46.703 1,24 1,1.297 1.297,1 24,1 z"/>
 </g>
 <path d="m 25,12 -12,7 0,12 5,2.938 c 1.884,1.078 4,-0.614 4,-1.938 l 0,-12 -2,0 0,11 c 0,0.973 -0.849,1.43 -1.906,0.844 C 18.064,31.827 18.03,31.831 18,31.813 L 15,30 l 0,-10 10,-6 10,6 0,10 -10,6 -2.438,-1.469 -2.063,0.844 4.5,2.625 12,-7 0,-12 z m 3,8 c -3,0 -5,1 -5,3 0,2 2,3 5,3 1,0 3,0 3,1 0,1 -1,1.5 -3,1.5 -2,0 -3,-0.891 -3,-1.5 l -2,0 c 0,2 2,3 5,3 3,0 5,-1 5,-3 0,-2 -3,-3 -5,-3 -1,0 -3,0 -3,-1 0,-1 1,-1.5 3,-1.5 2,0 3,0.931 3,1.5 l 2,0 c 0,-2 -2,-3 -5,-3 z" style="fill:#000;opacity:0.1;fill-opacity:1;stroke:none"/>
 <path d="m 24 11 -12 7 0 12 5 2.938 c 1.884 1.078 4 -0.614 4 -1.938 l 0 -12 -2 0 0 11 c 0 0.973 -0.849 1.43 -1.906 0.844 c -0.03 -0.017 -0.064 -0.013 -0.094 -0.031 l -3 -1.813 0 -10 10 -6 10 6 0 10 -10 6 -2.438 -1.469 -2.063 0.844 4.5 2.625 12 -7 0 -12 z m 3 8 c -3 0 -5 1 -5 3 0 2 2 3 5 3 1 0 3 0 3 1 0 1 -1 1.5 -3 1.5 -2 0 -3 -0.891 -3 -1.5 l -2 0 c 0 2 2 3 5 3 3 0 5 -1 5 -3 0 -2 -3 -3 -5 -3 -1 0 -3 0 -3 -1 0 -1 1 -1.5 3 -1.5 2 0 3 0.931 3 1.5 l 2 0 c 0 -2 -2 -3 -5 -3 z" style="fill:#80b343;fill-opacity:1;stroke:none"/>
 <g>
  
 </g>
</svg>
