<svg viewBox="0 0 48 48" xmlns="http://www.w3.org/2000/svg" xmlns:xlink="http://www.w3.org/1999/xlink">
  <linearGradient id="a" gradientUnits="userSpaceOnUse" x1="1" x2="47">
    <stop offset="0" stop-color="#46483e"/>
    <stop offset="1" stop-color="#505347"/>
  </linearGradient>
  <path d="m24 1c22.703 0 23 .297 23 23 0 22.703-.297 23-23 23-22.703 0-23-.297-23-23 0-22.703.297-23 23-23z" fill="url(#a)" transform="matrix(0 -1 1 0 0 48)"/>
  <path d="m25 12l-12 7v12l5 2.938c1.884 1.078 4-.614 4-1.938v-12h-2v11c0 .973-.849 1.43-1.906.844-.03-.017-.064-.013-.094-.031l-3-1.813v-10l10-6 10 6v10l-10 6-2.438-1.469-2.063.844 4.5 2.625 12-7v-12zm3 8c-3 0-5 1-5 3 0 2 2 3 5 3 1 0 3 0 3 1 0 1-1 1.5-3 1.5-2 0-3-.891-3-1.5h-2c0 2 2 3 5 3 3 0 5-1 5-3 0-2-3-3-5-3-1 0-3 0-3-1 0-1 1-1.5 3-1.5 2 0 3 .931 3 1.5h2c0-2-2-3-5-3z" opacity=".1"/>
  <path d="m24 11l-12 7v12l5 2.938c1.884 1.078 4-.614 4-1.938v-12h-2v11c0 .973-.849 1.43-1.906.844-.03-.017-.064-.013-.094-.031l-3-1.813v-10l10-6 10 6v10l-10 6-2.438-1.469-2.063.844 4.5 2.625 12-7v-12zm3 8c-3 0-5 1-5 3 0 2 2 3 5 3 1 0 3 0 3 1 0 1-1 1.5-3 1.5-2 0-3-.891-3-1.5h-2c0 2 2 3 5 3 3 0 5-1 5-3 0-2-3-3-5-3-1 0-3 0-3-1 0-1 1-1.5 3-1.5 2 0 3 .931 3 1.5h2c0-2-2-3-5-3z" fill="#80b343"/>
</svg>
