<svg xmlns="http://www.w3.org/2000/svg" viewBox="0 0 48 48">
 <defs>
  <linearGradient id="linearGradient3764" x1="1" x2="47" gradientUnits="userSpaceOnUse" gradientTransform="matrix(0,-1,1,0,-1.5e-6,47.999998)">
   <stop style="stop-color:#b93b3b;stop-opacity:1"/>
   <stop offset="1" style="stop-color:#c34545;stop-opacity:1"/>
  </linearGradient>
 </defs>
 <g>
  
  
  
 </g>
 <path d="M 24,1 C 46.703,1 47,1.297 47,24 47,46.703 46.703,47 24,47 1.297,47 1,46.703 1,24 1,1.297 1.297,1 24,1 Z" style="fill:url(#linearGradient3764);fill-opacity:1"/>
 <rect y="14" x="11" height="15" width="4" style="fill:#000;opacity:0.1;fill-opacity:1;stroke:none;fill-rule:nonzero"/>
 <g>
  
 </g>
 <rect y="31" x="11" height="4" width="4" style="fill:#000;opacity:0.1;fill-opacity:1;stroke:none;fill-rule:nonzero"/>
 <path d="m 19 15 0 4 0 16 4 0 0 -16 4 0 0 16 4 0 0 -16 4 0 0 16 4 0 0 -16 0 -4 -4 0 -12 0 z" style="fill:#000;opacity:0.1;fill-opacity:1;stroke:none;fill-rule:nonzero"/>
 <rect width="4" height="15" x="10" y="13" style="fill:#ffe5e5;opacity:1;fill-opacity:1;stroke:none;fill-rule:nonzero"/>
 <rect width="4" height="4" x="10" y="30" style="fill:#ffe5e5;opacity:1;fill-opacity:1;stroke:none;fill-rule:nonzero"/>
 <path d="m 18 14 0 4 0 16 4 0 0 -16 4 0 0 16 4 0 0 -16 4 0 0 16 4 0 0 -16 0 -4 -4 0 -12 0 z" style="fill:#ffe5e5;opacity:1;fill-opacity:1;stroke:none;fill-rule:nonzero"/>
</svg>
