<svg viewBox="0 0 48 48" xmlns="http://www.w3.org/2000/svg" xmlns:xlink="http://www.w3.org/1999/xlink">
  <linearGradient id="a" gradientTransform="matrix(0 -1 1 0 -.0000015 47.999998)" gradientUnits="userSpaceOnUse" x1="1" x2="47">
    <stop offset="0" stop-color="#b93b3b"/>
    <stop offset="1" stop-color="#c34545"/>
  </linearGradient>
  <path d="m24 1c22.703 0 23 .297 23 23 0 22.703-.297 23-23 23-22.703 0-23-.297-23-23 0-22.703.297-23 23-23z" fill="url(#a)"/>
  <path d="m11 14h4v15h-4z" opacity=".1"/>
  <path d="m11 31h4v4h-4z" opacity=".1"/>
  <path d="m19 15v4 16h4v-16h4v16h4v-16h4v16h4v-16-4h-4-12z" opacity=".1"/>
  <path d="m10 13h4v15h-4z" fill="#ffe5e5"/>
  <path d="m10 30h4v4h-4z" fill="#ffe5e5"/>
  <path d="m18 14v4 16h4v-16h4v16h4v-16h4v16h4v-16-4h-4-12z" fill="#ffe5e5"/>
</svg>
