<svg viewBox="0 0 48 48" xmlns="http://www.w3.org/2000/svg" xmlns:xlink="http://www.w3.org/1999/xlink">
  <linearGradient id="a" gradientTransform="matrix(0 -1 1 0 -.0000015 47.999998)" gradientUnits="userSpaceOnUse" x1="1" x2="47">
    <stop offset="0" stop-color="#cdd375"/>
    <stop offset="1" stop-color="#d2d884"/>
  </linearGradient>
  <path d="m47 24c0 22.703-.297 23-23 23-22.703 0-23-.297-23-23 0-22.703.297-23 23-23 22.703 0 23 .297 23 23z" fill="url(#a)"/>
  <path d="m12 12v7h2v-5h5v-2zm19 0v2h5v5h2v-7zm-2 4l-3 3h-8l6 7v6h-4v2h10v-2h-4v-6l6-7h-3.172l1.586-1.586zm-17 15v7h7v-2h-5v-5zm24 0v5h-5v2h7v-7z" opacity=".1"/>
  <path d="m11 11v7h2v-5h5v-2zm19 0v2h5v5h2v-7zm-19 19v7h7v-2h-5v-5zm24 0v5h-5v2h7v-7z" fill="#056494"/>
  <path d="m30.406-9.192h2v8h-2z" fill="#056494" transform="matrix(.70710678 .70710678 -.70710678 .70710678 0 0)"/>
  <path d="m17 18l6 7v6h-4v2h10v-2h-4v-6l6-7z" fill="#056494"/>
</svg>
