<svg xmlns="http://www.w3.org/2000/svg" viewBox="0 0 48 48">
 <defs>
  <linearGradient id="linearGradient3764" x1="1" x2="47" gradientUnits="userSpaceOnUse" gradientTransform="matrix(0,-1,1,0,-1.5e-6,47.999998)">
   <stop style="stop-color:#cdd375;stop-opacity:1"/>
   <stop offset="1" style="stop-color:#d2d884;stop-opacity:1"/>
  </linearGradient>
 </defs>
 <g>
  
  
  
 </g>
 <g>
  <path d="m 47,24 C 47,46.703 46.703,47 24,47 1.297,47 1,46.703 1,24 1,1.297 1.297,1 24,1 46.703,1 47,1.297 47,24 z" style="fill:url(#linearGradient3764);fill-opacity:1"/>
 </g>
 <g>
  
 </g>
 <path d="m 12 12 0 7 2 0 0 -5 5 0 0 -2 z m 19 0 0 2 5 0 0 5 2 0 0 -7 z m -2 4 -3 3 -8 0 6 7 0 6 -4 0 0 2 10 0 0 -2 -4 0 0 -6 6 -7 -3.172 0 1.586 -1.586 z m -17 15 0 7 7 0 0 -2 -5 0 0 -5 z m 24 0 0 5 -5 0 0 2 7 0 0 -7 z" style="opacity:0.1"/>
 <path d="m 11 11 0 7 2 0 0 -5 5 0 0 -2 -7 0 z m 19 0 0 2 5 0 0 5 2 0 0 -7 -7 0 z m -19 19 0 7 7 0 0 -2 -5 0 0 -5 -2 0 z m 24 0 0 5 -5 0 0 2 7 0 0 -7 -2 0 z" style="fill:#056494;fill-opacity:1"/>
 <rect transform="matrix(0.70710678,0.70710678,-0.70710678,0.70710678,0,0)" height="8" width="2" y="-9.192" x="30.406" style="fill:#056494;fill-opacity:1"/>
 <path d="m 17 18 6 7 0 6 -4 0 0 2 10 0 0 -2 -4 0 0 -6 6 -7 z" style="fill:#056494;fill-opacity:1"/>
</svg>
