<svg viewBox="0 0 48 48" xmlns="http://www.w3.org/2000/svg" xmlns:xlink="http://www.w3.org/1999/xlink">
  <linearGradient id="a" gradientUnits="userSpaceOnUse" x2="0" y1="1.01" y2="46.995">
    <stop offset="0" stop-color="#fafafa"/>
    <stop offset="1" stop-color="#f0f0f0"/>
  </linearGradient>
  <path d="m24 1c22.703 0 23 .297 23 23 0 22.703-.297 23-23 23-22.703 0-23-.297-23-23 0-22.703.297-23 23-23z" fill="url(#a)"/>
  <g fill="#ececec" transform="matrix(0 -.99977275 1 0 -.5 47.999773)">
    <path d="m1.188 27c .044.336.098.669.156 1h45.31c.058-.331.112-.664.156-1h-45.625z"/>
    <path d="m1 23h45.979l.031 1h-46.01z"/>
    <path d="m1.563 29c .074.332.131.674.219 1h44.44c.088-.326.145-.668.219-1h-44.875z"/>
    <path d="m1 25h45.979l.031 1h-46.01z"/>
    <path d="m1.188 21c-.043.331-.065.664-.094 1h45.813c-.029-.336-.05-.669-.094-1z"/>
    <path d="m1.563 19c-.074.332-.16.663-.219 1h45.31c-.059-.337-.145-.668-.219-1h-44.875z"/>
  </g>
  <g opacity=".1" transform="matrix(.93442298 .93442298 -.93442298 .93442298 24.450867 -20.30317)">
    <path d="m20.973 27.583c-.735.943-1.67 1.926-1.67 3.417 0 3 2.697 4 4.697 4 2 0 4.697-1 4.697-4 0-1.424-.352-2.095-1.575-3.427-.99-.583 1.111-3.113-.363-3.494-.277-.072-.223 1.039-1.26.921-.337-.039-1.5-2-1.5-2 0 0-1.368-.211-2 0-3 1-.131 4-1.027 4.583z"/>
    <path d="m23.25 14l-.25 11h2l-.25-11z"/>
    <g transform="translate(46 3)">
      <path d="m-23.5 8h .5v.5h-.5z"/>
      <path d="m-23.5 9h .5v.5h-.5z"/>
      <path d="m-23.5 10h .5v.5h-.5z"/>
      <path d="m-21 8h .5v.5h-.5z"/>
      <path d="m-21 9h .5v.5h-.5z"/>
      <path d="m-21 10h .5v.5h-.5z"/>
    </g>
    <path d="m23 11l1-.25 1 .25v3h-2z"/>
  </g>
  <g transform="matrix(.93442298 .93442298 -.93442298 .93442298 23.450867 -21.30317)">
    <path d="m20.973 27.583c-.735.943-1.67 1.926-1.67 3.417 0 3 2.697 4 4.697 4 2 0 4.697-1 4.697-4 0-1.424-.352-2.095-1.575-3.427-.99-.583 1.111-3.113-.363-3.494-.277-.072-.223 1.039-1.26.921-.337-.039-1.5-2-1.5-2 0 0-1.368-.211-2 0-3 1-.131 4-1.027 4.583z" fill="#1a1a1a"/>
    <path d="m23.25 14l-.25 11h2l-.25-11" fill="#6c5d53"/>
    <g fill="#fc0" transform="translate(46 3)">
      <path d="m-23.5 8h .5v.5h-.5z"/>
      <path d="m-23.5 9h .5v.5h-.5z"/>
      <path d="m-23.5 10h .5v.5h-.5z"/>
      <path d="m-21 8h .5v.5h-.5z"/>
      <path d="m-21 9h .5v.5h-.5z"/>
      <path d="m-21 10h .5v.5h-.5z"/>
    </g>
    <path d="m23 25h2v1h-2z" fill="#fc0"/>
    <path d="m23 28h2v1h-2z" fill="#fc0"/>
    <path d="m23 11l1-.25 1 .25v3h-2z" fill="#1a1a1a"/>
    <circle cx="21.5" cy="22.5" fill="#fc0" r=".5" transform="translate(.4169598 2)"/>
    <path d="m22 29.5h4v .5h-4z" fill="#fc0"/>
    <circle cx="21.5" cy="22.5" fill="#ffd42a" r=".5" transform="matrix(.75 0 0 .75 11.25 15.25)"/>
    <circle cx="21.5" cy="22.5" fill="#ffd42a" r=".5" transform="matrix(.75 0 0 .75 11.25 13.75)"/>
    <circle cx="21.5" cy="22.5" fill="#ffd42a" r=".5" transform="matrix(.75 0 0 .75 9.75 14.25)"/>
    <circle cx="21.5" cy="22.5" fill="#ffd42a" r=".5" transform="matrix(.75 0 0 .75 9.75 15.75)"/>
  </g>
</svg>
