<svg viewBox="0 0 48 48" xmlns="http://www.w3.org/2000/svg" xmlns:xlink="http://www.w3.org/1999/xlink">
  <linearGradient id="a" gradientUnits="userSpaceOnUse" x2="0" y1="47" y2="1">
    <stop offset="0" stop-color="#008947"/>
    <stop offset="1" stop-color="#009c51"/>
  </linearGradient>
  <path d="m24 1c22.703 0 23 .297 23 23 0 22.703-.297 23-23 23-22.703 0-23-.297-23-23 0-22.703.297-23 23-23z" fill="url(#a)"/>
  <g transform="matrix(3.543307 0 0 3.543307 -.00000009 -9.0000005)">
    <path d="m4.798 3.669c-.313 0-.564.252-.564.564h-.415c-.083 0-.15.067-.15.15v.265c0 .083.067.15.15.15h.415v.564h-.415c-.083 0-.15.067-.15.15v.265c0 .083.067.15.15.15h.415v.564h-.415c-.083 0-.15.067-.15.15v.265c0 .083.067.15.15.15h.415v.564h-.415c-.083 0-.15.067-.15.15v.265c0 .083.067.15.15.15h.415v.564h-.415c-.083 0-.15.067-.15.15v.265c0 .083.067.15.15.15h.415v.564h-.415c-.083 0-.15.067-.15.15v.265c0 .083.067.15.15.15h.415c0 .313.252.564.564.564h5.08c.313 0 .564-.252.564-.564v-6.209c0-.313-.252-.564-.564-.564h-5.08z" fill-opacity=".098" transform="translate(0 2.2577779)"/>
    <rect fill="#f9f9f9" height="7.338" rx=".564" transform="translate(0 2.2577779)" width="6.209" x="3.951" y="3.387"/>
    <path d="m7.317 3.954a1.411 1.411 0 0 0-.977.414 1.411 1.411 0 0 0  0 1.995 1.411 1.411 0 0 0  1.774.178l.421.421.399-.399-.42-.42a1.411 1.411 0 0 0-.179-1.775 1.411 1.411 0 0 0-1.018-.414m.033.564a.847.847 0 0 1  .586.249.847.847 0 0 1  .165.963l-.364-.364-.399.399.364.364a.847.847 0 0 1-.963-.165.847.847 0 0 1  0-1.197.847.847 0 0 1  .611-.248z" fill="#4d4d4d" transform="translate(0 2.2577779)"/>
    <path d="m7.317 7.341a1.411 1.411 0 0 0-.977.413 1.411 1.411 0 0 0  0 1.995 1.411 1.411 0 0 0  1.774.178l.421.422.399-.4-.42-.419a1.411 1.411 0 0 0-.179-1.776 1.411 1.411 0 0 0-1.018-.413m.033.565a.847.847 0 0 1  .586.248.847.847 0 0 1  .165.963l-.364-.365-.399.399.364.365a.847.847 0 0 1-.963-.165.847.847 0 0 1  0-1.197.847.847 0 0 1  .611-.248" fill="#4d4d4d" transform="translate(0 2.2577779)"/>
    <path d="m4.516 5.644c-.313 0-.564.252-.564.564v6.209c0 .313.252.564.564.564h.564v-7.338h-.564z" fill="#b1c9c9"/>
    <rect fill="#81584a" height=".564" rx=".15" width="1.129" x="3.387" y="8.467"/>
    <rect fill="#81584a" height=".564" rx=".15" width="1.129" x="3.387" y="9.596"/>
    <rect fill="#81584a" height=".564" rx=".15" width="1.129" x="3.387" y="10.724"/>
    <rect fill="#81584a" height=".564" rx=".15" width="1.129" x="3.387" y="11.853"/>
    <rect fill="#81584a" height=".564" rx=".15" width="1.129" x="3.387" y="7.338"/>
    <rect fill="#81584a" height=".564" rx=".15" width="1.129" x="3.387" y="6.209"/>
  </g>
</svg>
