<svg viewBox="0 0 48 48" xmlns="http://www.w3.org/2000/svg" xmlns:xlink="http://www.w3.org/1999/xlink">
  <linearGradient id="a" gradientTransform="matrix(0 -1 1 0 -.0000015 47.999998)" gradientUnits="userSpaceOnUse" x1="1" x2="47">
    <stop offset="0" stop-color="#2bb0cd"/>
    <stop offset="1" stop-color="#37b8d5"/>
  </linearGradient>
  <path d="m47 24c0 22.703-.297 23-23 23-22.703 0-23-.297-23-23 0-22.703.297-23 23-23 22.703 0 23 .297 23 23z" fill="url(#a)"/>
  <path d="m15 14c-1.108 0-2 .892-2 2v15c0 1.108.892 2 2 2h4v5l6-5h10c1.108 0 2-.892 2-2v-15c0-1.108-.892-2-2-2zm9 1h2v11.09c1.197.212 2 .777 2 1.412 0 .635-.803 1.2-2 1.412v2.088h-2v-2.088c-1.197-.212-2-.777-2-1.412 0-.635.803-1.2 2-1.412zm-6 1h2v3.088c1.197.212 2 .777 2 1.412 0 .635-.803 1.2-2 1.412v8.09h-2v-8.09c-1.197-.212-2-.777-2-1.412 0-.635.803-1.2 2-1.412zm12 0h2v3.088c1.197.212 2 .777 2 1.412 0 .635-.803 1.2-2 1.412v8.09h-2v-8.09c-1.197-.212-2-.777-2-1.412 0-.635.803-1.2 2-1.412z" opacity=".1"/>
  <path d="m14 13c-1.108 0-2 .892-2 2v15c0 1.108.892 2 2 2h4v5l6-5h10c1.108 0 2-.892 2-2v-15c0-1.108-.892-2-2-2zm9 1h2v11.09c1.197.212 2 .777 2 1.412 0 .635-.803 1.2-2 1.412v2.088h-2v-2.088c-1.197-.212-2-.777-2-1.412 0-.635.803-1.2 2-1.412zm-6 1h2v3.088c1.197.212 2 .777 2 1.412 0 .635-.803 1.2-2 1.412v8.09h-2v-8.09c-1.197-.212-2-.777-2-1.412 0-.635.803-1.2 2-1.412zm12 0h2v3.088c1.197.212 2 .777 2 1.412 0 .635-.803 1.2-2 1.412v8.09h-2v-8.09c-1.197-.212-2-.777-2-1.412 0-.635.803-1.2 2-1.412z" fill="#f9f9f9"/>
</svg>
