<svg xmlns="http://www.w3.org/2000/svg" viewBox="0 0 48 48">
 <defs>
  <linearGradient id="linearGradient3764-6" x1="1" x2="47" gradientUnits="userSpaceOnUse" gradientTransform="matrix(0,-1,1,0,-1.5e-6,47.999998)">
   <stop style="stop-color:#e4e4e4;stop-opacity:1"/>
   <stop offset="1" style="stop-color:#eee;stop-opacity:1"/>
  </linearGradient>
 </defs>
 <g>
  
  
  
 </g>
 <g>
  <path d="M 24,1 C 46.703,1 47,1.297 47,24 47,46.703 46.703,47 24,47 1.297,47 1,46.703 1,24 1,1.297 1.297,1 24,1 Z" style="fill:url(#linearGradient3764-6);fill-opacity:1"/>
 </g>
 <g>
  
 </g>
 <g transform="matrix(3.543307,0,0,3.543307,1,2.0000001)" style="fill:#000;opacity:0.1;fill-opacity:1">
  <path d="m 14 16 c -0.5 0 -1 0.498 -1 0.998 l -0.002 0 c 0 5.669 0 11.337 0 17.01 l 23.998 0 0 -14.932 c 0 -0.531 -0.5 -1.066 -1 -1.066 l -0.996 0 c -2.987 -0.016 -6 -0.008 -9 -0.008 l -1 -1.998 z" transform="matrix(0.28222223,0,0,0.28222223,-0.28222223,-0.56444449)" style="stroke:none"/>
 </g>
 <path d="m 21 15 l 0 4 l 3 0 l 1 -2 l 2 0 l 0 -0.004 l -2 0 l -1 -2 l -3 0 z" style="fill:#cdc22c;opacity:1;fill-opacity:1;stroke:none;fill-rule:nonzero"/>
 <path d="m 13 15 c -0.5 0 -1 0.5 -1 1 l 0 3 l 4 0 l 0 -4 l -3 0 z" style="fill:#617fa1;opacity:1;fill-opacity:1;stroke:none;fill-rule:nonzero"/>
 <path d="m 16 15 l 0 4 l 5 0 l 0 -4 l -5 0 z" style="fill:#5a945c;opacity:1;fill-opacity:1;stroke:none;fill-rule:nonzero"/>
 <rect width="11" height="4" x="14" y="18" style="fill:#fffdf0;fill-opacity:1;stroke:none"/>
 <path d="m 12 19 l 0 14 l 4 0 l 0 -14 l -4 0 z" style="fill:#9ab9dd;opacity:1;fill-opacity:1;stroke:none;fill-rule:nonzero"/>
 <path d="m 16 19 l 0 14 l 5 0 l 0 -14 l -5 0 z" style="fill:#9add9c;opacity:1;fill-opacity:1;stroke:none;fill-rule:nonzero"/>
 <path d="m 27 17 l 0 16 l 5 0 l 0 -16 l -5 0 z" style="fill:#edb968;opacity:1;fill-opacity:1;stroke:none;fill-rule:nonzero"/>
 <path d="m 32 17 l 0 16 l 4 0 l 0 -14.934 c 0 -0.534 -0.5 -1.066 -1 -1.066 l -3 0 z" style="fill:#ed8e68;opacity:1;fill-opacity:1;stroke:none;fill-rule:nonzero"/>
 <path d="m 25 17 l -1 2 l -3 0 l 0 14 l 6 0 l 0 -16 l -2 0 z" style="fill:#f3f284;opacity:1;fill-opacity:1;stroke:none;fill-rule:nonzero"/>
</svg>
