<svg viewBox="0 0 48 48" xmlns="http://www.w3.org/2000/svg" xmlns:xlink="http://www.w3.org/1999/xlink">
  <linearGradient id="a" gradientTransform="matrix(0 -1 1 0 -.0000015 47.999998)" gradientUnits="userSpaceOnUse" x1="1" x2="47">
    <stop offset="0" stop-color="#e4e4e4"/>
    <stop offset="1" stop-color="#eee"/>
  </linearGradient>
  <path d="m24 1c22.703 0 23 .297 23 23 0 22.703-.297 23-23 23-22.703 0-23-.297-23-23 0-22.703.297-23 23-23z" fill="url(#a)"/>
  <path d="m14 16c-.5 0-1 .498-1 .998h-.002c0 5.669 0 11.337 0 17.01h23.998v-14.932c0-.531-.5-1.066-1-1.066h-.996c-2.987-.016-6-.008-9-.008l-1-1.998z" opacity=".1" transform="matrix(1 0 0 1 0 -.00000001)"/>
  <path d="m21 15v4h3l1-2h2v-.004h-2l-1-2h-3z" fill="#cdc22c"/>
  <path d="m13 15c-.5 0-1 .5-1 1v3h4v-4z" fill="#617fa1"/>
  <path d="m16 15v4h5v-4z" fill="#5a945c"/>
  <path d="m14 18h11v4h-11z" fill="#fffdf0"/>
  <path d="m12 19v14h4v-14z" fill="#9ab9dd"/>
  <path d="m16 19v14h5v-14z" fill="#9add9c"/>
  <path d="m27 17v16h5v-16z" fill="#edb968"/>
  <path d="m32 17v16h4v-14.934c0-.534-.5-1.066-1-1.066z" fill="#ed8e68"/>
  <path d="m25 17l-1 2h-3v14h6v-16z" fill="#f3f284"/>
</svg>
