<svg xmlns="http://www.w3.org/2000/svg" viewBox="0 0 48 48">
 <defs>
  <linearGradient id="linearGradient3888" x1="1" x2="47" gradientUnits="userSpaceOnUse">
   <stop style="stop-color:#d64937;stop-opacity:1"/>
   <stop offset="1" style="stop-color:#d95747;stop-opacity:1"/>
  </linearGradient>
 </defs>
 <g>
  
  
  
 </g>
 <g transform="matrix(0,-1,1,0,0,48)" style="fill:url(#linearGradient3888);fill-opacity:1">
  <path d="M 24,1 C 46.703,1 47,1.297 47,24 47,46.703 46.703,47 24,47 1.297,47 1,46.703 1,24 1,1.297 1.297,1 24,1 z"/>
 </g>
 <g>
  
 </g>
 <path d="m 25 13 c -6.05 0 -10 4.383 -10 10 l 0 12 c -0.007 0.471 0.516 1 1 1 0.484 0 1.01 -0.529 1 -1 l 0 -12 c 0 -4.596 2.876 -8 8 -8 5.124 0 8 3.435 8 8.03 l 0 11.969 c -0.007 0.471 0.516 1 1 1 0.484 0 1.01 -0.529 1 -1 l 0 -12 c 0 -5.617 -3.952 -10 -10 -10 z m -9 0.906 c -0.48 0.006 -1.01 0.466 -1 0.875 l 0 3.344 c 0.458 -0.959 1.258 -2.258 2 -3.03 l 0 -0.313 c 0.008 -0.417 -0.51 -0.882 -1 -0.875 z" style="fill:#000;opacity:0.1;fill-opacity:1;color:#000"/>
 <path d="m 15 12.892 c -0.48 0.006 -1.01 0.484 -1 0.892 l 0 3.347 c 0.458 -0.959 1.258 -2.256 2 -3.03 l 0 -0.326 c 0.008 -0.417 -0.51 -0.89 -1 -0.883 z" style="fill:#f9f9f9;color:#000"/>
 <path d="m 24 12 c -6.05 0 -10 4.383 -10 10 l 0 12 c -0.007 0.471 0.516 1 1 1 0.484 0 1.01 -0.529 1 -1 l 0 -12 c 0 -4.596 2.876 -8 8 -8 5.124 0 8 3.432 8 8.03 l 0 11.972 c -0.007 0.471 0.516 1 1 1 0.484 0 1.01 -0.529 1 -1 l 0 -12 c 0 -5.617 -3.952 -10 -10 -10 z" style="fill:#f9f9f9;stroke:none;color:#000"/>
</svg>
