<svg viewBox="0 0 48 48" xmlns="http://www.w3.org/2000/svg" xmlns:xlink="http://www.w3.org/1999/xlink">
  <linearGradient id="a" gradientTransform="matrix(0 -1 1 0 -.0000015 47.999998)" gradientUnits="userSpaceOnUse" x1="1" x2="47">
    <stop offset="0" stop-color="#0ec64f"/>
    <stop offset="1" stop-color="#0fd956"/>
  </linearGradient>
  <path d="m47 24c0 22.703-.297 23-23 23-22.703 0-23-.297-23-23 0-22.703.297-23 23-23 22.703 0 23 .297 23 23z" fill="url(#a)"/>
  <path d="m25 10c-1.657 0-3 1.343-3 3 .002 1.27.803 2.401 2 2.824v3.266c-1.748.297-3.275 1.351-4.172 2.881l-3.232-1.049c-.034-1.269-.862-2.379-2.069-2.772-1.574-.513-3.266.346-3.781 1.92-.514 1.577.35 3.273 1.928 3.784 1.209.391 2.533-.022 3.305-1.03l3.141 1.02c-.077.381-.118.768-.12 1.156.001 1.644.677 3.216 1.869 4.348l-2.02 2.782c-1.218-.362-2.532.083-3.28 1.11-.972 1.34-.675 3.214.664 4.188 1.341.975 3.218.678 4.192-.664.747-1.029.764-2.417.043-3.464l2.062-2.839c.775.353 1.616.536 2.467.539.852-.002 1.693-.185 2.469-.537l2.06 2.837c-.721 1.047-.704 2.435.043 3.464.974 1.342 2.851 1.639 4.192.664 1.338-.974 1.635-2.848.662-4.188-.747-1.026-2.059-1.47-3.276-1.11l-2.02-2.784c1.192-1.131 1.868-2.702 1.87-4.346 0-.389-.038-.777-.113-1.158l3.133-1.018c.773 1.01 2.1 1.423 3.31 1.03 1.575-.515 2.435-2.209 1.92-3.784-.515-1.572-2.204-2.43-3.777-1.92-1.207.393-2.035 1.503-2.069 2.772l-3.234 1.049c-.896-1.529-2.423-2.584-4.17-2.881v-3.264c1.198-.423 1.999-1.556 2-2.826 0-1.657-1.343-3-3-3z" opacity=".1"/>
  <path d="m24 18c-3.314 0-6 2.686-6 6 0 3.314 2.686 6 6 6 3.314 0 6-2.686 6-6 0-3.314-2.686-6-6-6z" fill="#42535e"/>
  <path d="m23 14h2v5h-2z" fill="#42535e"/>
  <circle cx="24" cy="12" fill="#42535e" r="3"/>
  <path d="m28.96-25.487h2v5h-2z" fill="#42535e" transform="matrix(.30901699 .95105652 -.95105652 .30901699 0 0)"/>
  <circle cx="29.96" cy="-27.487" fill="#42535e" r="3" transform="matrix(.30901699 .95105652 -.95105652 .30901699 0 0)"/>
  <path d="m-6.094-43.728h2v5h-2z" fill="#42535e" transform="matrix(-.809017 .58778525 -.58778525 -.809017 0 0)"/>
  <circle cx="-5.094" cy="-45.728" fill="#42535e" r="3" transform="matrix(-.809017 .58778525 -.58778525 -.809017 0 0)"/>
  <path d="m14.13 20.16h2v5h-2z" fill="#42535e" transform="matrix(-.30901691 .95105654 .9510565 .30901705 0 0)"/>
  <ellipse cx="15.13" cy="18.16" fill="#42535e" rx="3" ry="3" transform="matrix(-.30901691 .95105654 .9510565 .30901705 0 0)"/>
  <path d="m32.738-15.514h2v5h-2z" fill="#42535e" transform="matrix(.80901694 .58778532 .58778518 -.80901705 0 0)"/>
  <ellipse cx="33.738" cy="-17.514" fill="#42535e" rx="3" ry="3" transform="matrix(.80901694 .58778532 .58778518 -.80901705 0 0)"/>
  <path d="m24 20c-.554 0-1 .446-1 1 0 .554.446 1 1 1 .554 0 1-.446 1-1 0-.554-.446-1-1-1zm0 3c-.554 0-1 .446-1 1v3c0 .554.446 1 1 1 .554 0 1-.446 1-1v-3c0-.554-.446-1-1-1z" fill="#f9f9f9"/>
</svg>
