<svg viewBox="0 0 48 48" xmlns="http://www.w3.org/2000/svg" xmlns:xlink="http://www.w3.org/1999/xlink">
  <linearGradient id="a" gradientTransform="matrix(0 -1 1 0 -.0000015 47.999998)" gradientUnits="userSpaceOnUse" x1="1" x2="47">
    <stop offset="0" stop-color="#94c341"/>
    <stop offset="1" stop-color="#9dc851"/>
  </linearGradient>
  <path d="m24 1v24.03h1.656c.735 0 1.344.575 1.344 1.313v3.344c0 .735-.61 1.313-1.344 1.313h-1.656v1h15l1 3h-16v12c22.703 0 23-.297 23-23 0-22.703-.297-23-23-23zm0 34v-3h-15l-1 3zm0-4v-5.969h-1.656c-.735 0-1.344.575-1.344 1.313v3.344c0 .739.61 1.313 1.344 1.313h1.656zm-10.938-5.969c-.61.122-1.063.668-1.063 1.313v3.344c0 .739.606 1.313 1.344 1.313h3.313c.735 0 1.344-.578 1.344-1.313v-3.344c0-.739-.61-1.313-1.344-1.313h-3.313c-.093 0-.195-.02-.281 0zm18 0c .086-.02.187 0 .281 0h3.313c.735 0 1.344.575 1.344 1.313v3.344c0 .739-.61 1.313-1.344 1.313h-3.313c-.739 0-1.344-.578-1.344-1.313v-3.344c0-.645.453-1.192 1.063-1.313z" fill="url(#a)"/>
  <path d="m24 1v24.03h1v-24c-.331-.014-.666-.031-1-.031zm0 24.03h-1.656c-.735 0-1.344.575-1.344 1.313v3.344c0 .636.438 1.15 1.031 1.281-.018-.086-.031-.189-.031-.281v-3.344c0-.738.609-1.313 1.344-1.313h.656zm-10.938 0c-.61.122-1.063.668-1.063 1.313v3.344c0 .636.436 1.15 1.031 1.281-.018-.086-.031-.189-.031-.281v-3.344c0-.645.453-1.191 1.063-1.313.086-.02.188 0 .281 0h3.313c.103 0 .216.01.313.031-.127-.605-.67-1.031-1.313-1.031h-3.313c-.093 0-.195-.02-.281 0zm13.906 1.031c.018.086.031.189.031.281v3.344c0 .735-.61 1.313-1.344 1.313h-.656v1h1.656c.734 0 1.344-.578 1.344-1.313v-3.344c0-.635-.437-1.15-1.031-1.281zm9 0c .018.086.031.189.031.281v3.344c0 .739-.61 1.313-1.344 1.313h-3.313c-.103 0-.216-.01-.313-.031.126.602.666 1.031 1.313 1.031h3.313c.734 0 1.344-.573 1.344-1.313v-3.344c0-.635-.437-1.15-1.031-1.281zm-26.969 5.938l-1 3h1.344l.656-2h14v-1h-.656-5.688-3.313-5.344zm30.344 1l .656 2h-15v1h16l-1-3zm-14.344 3h-1v11c .334 0 .669-.017 1-.031z" fill-rule="evenodd" opacity=".1"/>
  <path d="m24 1c-22.703 0-23 .297-23 23 0 22.703.297 23 23 23v-12h-16l1-3h15v-1h-1.656c-.734 0-1.344-.573-1.344-1.313v-3.344c0-.738.609-1.313 1.344-1.313h1.656zm0 24.03v5.969h1.656c.734 0 1.344-.578 1.344-1.313v-3.344c0-.738-.609-1.313-1.344-1.313h-1.656zm0 6.969v3h16l-1-3zm-10.938-6.969c.086-.02.188 0 .281 0h3.313c.734 0 1.344.573 1.344 1.313v3.344c0 .734-.609 1.313-1.344 1.313h-3.313c-.738 0-1.344-.573-1.344-1.313v-3.344c0-.645.453-1.191 1.063-1.313zm18 0c-.609.121-1.063.668-1.063 1.313v3.344c0 .734.605 1.313 1.344 1.313h3.313c.734 0 1.344-.573 1.344-1.313v-3.344c0-.738-.609-1.313-1.344-1.313h-3.313c-.094 0-.195-.02-.281 0z" fill="#2d2d2d" fill-rule="evenodd"/>
</svg>
