<svg viewBox="0 0 48 48" xmlns="http://www.w3.org/2000/svg" xmlns:xlink="http://www.w3.org/1999/xlink">
  <linearGradient id="a" gradientTransform="matrix(0 -1 1 0 -.0000015 47.999998)" gradientUnits="userSpaceOnUse" x1="1" x2="47">
    <stop offset="0" stop-color="#94c341"/>
    <stop offset="1" stop-color="#9dc851"/>
  </linearGradient>
  <path d="m24 1v15.813c.125-.008.25-.027.375-.031 6.43-.215 10.594 5.281 10.594 5.281 0 0-4.802 5.844-9.813 5.844-.414 0-.789-.066-1.156-.125v1.594c.305.036.61.063.938.063 4.665 0 8.05-2.399 11.313-5.219.543.434 2.762 1.477 3.219 1.938-3.106 2.606-10.336 4.719-14.438 4.719-.351 0-.695-.032-1.031-.063v16.188c22.703 0 23-.297 23-23 0-22.703-.297-23-23-23zm0 29.813v-1.438c-5.707-.717-7.656-7.03-7.656-7.03 0 0 2.551-3.765 7.656-4.156v-1.375c-5.652.453-10.531 5.25-10.531 5.25 0 0 2.754 8.02 10.531 8.75zm0-12.625v1.688c.265-.027.535-.063.813-.063 2.961 0 4.719 2.313 4.719 2.313l-2.406 2.031c-1.055-1.754-1.441-2.602-3.125-2.844v5.156c.375.114.793.188 1.25.188 3.511 0 6.781-4.531 6.781-4.531 0 0-3.035-4.114-7.656-3.969-.129.004-.25.023-.375.031zm0 8.281c-2.434-.82-3.219-3.688-3.219-3.688 0 0 1.082-1.289 2.563-1.469.211-.023.429-.027.656 0v-1.438c-3.441.371-5.5 2.656-5.5 2.656 0 0 1.187 4.48 5.5 5.25v-1.313z" fill="url(#a)"/>
  <path d="m24 1v15.813c.125-.008.25-.027.375-.031.212-.007.418.026.625.031v-15.781c-.331-.014-.666-.031-1-.031zm0 15.813c-5.652.453-10.531 5.25-10.531 5.25 0 0 1.143 3.286 4 5.844-2.125-2.341-3-4.844-3-4.844 0 0 4.311-4.247 9.531-5.125zm1 1.375v1c .125-.008.246-.027.375-.031 2.844-.089 5.07 1.44 6.375 2.625-.651-.786-3.091-3.404-6.75-3.594zm0 1c-.342.026-.681.071-1 .125v.563c.265-.027.535-.063.813-.063.065 0 .124-.002.188 0v-.625zm-1 .688c-3.441.371-5.5 2.656-5.5 2.656 0 0 .614 2.349 2.594 3.938-1.179-1.417-1.594-2.938-1.594-2.938 0 0 1.03-1.107 2.813-1.906.504-.226 1.064-.42 1.688-.563v-1.188zm10.438 1.594c.249.281.531.594.531.594 0 0-3.02 3.67-6.781 5.188-.974.393-2 .656-3.03.656-.054 0-.103.002-.156 0v .875c.367.059.742.125 1.156.125 5.01 0 9.813-5.844 9.813-5.844 0 0-.554-.701-1.531-1.594zm-9.438 7.313c-.357-.064-.685-.171-1-.281v.875c.305.036.61.063.938.063.021 0 .042 0 .063 0v-.656zm-1 .594c-1.739-.218-3.127-.954-4.219-1.875 1.022 1.15 2.388 2.217 4.219 2.688zm1-7.781v.719c.522.075.919.206 1.25.406-.362-.521-.731-.888-1.25-1.125zm0 .719c-.227-.027-.445-.023-.656 0-.121.015-.229.066-.344.094v4.063c.303.092.642.135 1 .156zm-1 4.156c-.46-.155-.84-.42-1.188-.688.311.42.699.822 1.188 1.156v-.469zm5.5-4.313l-2.125 1.781c.226.348.465.745.75 1.219l2.406-2.031c0 0-.376-.457-1.031-.969zm9.688 4.188c-3.234 2.509-10.165 4.531-14.156 4.531-.011 0-.021 0-.031 0v .938c.336.031.68.063 1.031.063 4.102 0 11.331-2.113 14.438-4.719-.194-.196-.714-.498-1.281-.813zm-14.188 5.469c-.346-.033-.674-.096-1-.156v15.344c.334 0 .669-.017 1-.031v-15.16z" fill-rule="evenodd" opacity=".1"/>
  <path d="m24 1c-22.703 0-23 .297-23 23 0 22.703.297 23 23 23v-16.188c-7.777-.734-10.531-8.75-10.531-8.75 0 0 4.879-4.797 10.531-5.25v-15.813zm0 15.813v1.375c.125-.008.246-.027.375-.031 4.621-.145 7.656 3.969 7.656 3.969 0 0-3.27 4.531-6.781 4.531-.457 0-.875-.073-1.25-.188v1.313c.367.059.742.125 1.156.125 5.01 0 9.813-5.844 9.813-5.844 0 0-4.164-5.496-10.594-5.281-.125.004-.25.023-.375.031zm0 10.969c-4.313-.77-5.5-5.25-5.5-5.25 0 0 2.059-2.285 5.5-2.656v-1.688c-5.105.391-7.656 4.156-7.656 4.156 0 0 1.949 6.314 7.656 7.03v-1.594zm0 1.594v1.438c.336.031.68.063 1.031.063 4.102 0 11.331-2.113 14.438-4.719-.457-.461-2.676-1.503-3.219-1.938-3.266 2.82-6.648 5.219-11.313 5.219-.328 0-.633-.026-.938-.063zm0-9.5v1.438c1.684.242 2.07 1.09 3.125 2.844l2.406-2.031c0 0-1.758-2.313-4.719-2.313-.277 0-.547.035-.813.063zm0 1.438c-.227-.027-.445-.023-.656 0-1.48.18-2.563 1.469-2.563 1.469 0 0 .785 2.867 3.219 3.688v-5.156z" fill="#2d2d2d" fill-rule="evenodd"/>
</svg>
