<svg viewBox="0 0 48 48" xmlns="http://www.w3.org/2000/svg" xmlns:xlink="http://www.w3.org/1999/xlink">
  <linearGradient id="a" gradientTransform="matrix(0 -1 1 0 -.0000015 47.999998)" gradientUnits="userSpaceOnUse" x1="1" x2="47">
    <stop offset="0" stop-color="#292929"/>
    <stop offset="1" stop-color="#333"/>
  </linearGradient>
  <path d="m47 24c0 22.703-.297 23-23 23-22.703 0-23-.297-23-23 0-22.703.297-23 23-23 22.703 0 23 .297 23 23z" fill="url(#a)"/>
  <path d="m21 14v6h10l1 1 1-1h2v-6zm11 7l-14 8-4-3-11.482 6.217c.321.838.689 1.652 1.102 2.439l10.381-5.656 4 3 14-8 2 1 2-1 5 4 5.973-5.119c-.045-.93-.151-1.843-.303-2.74l-5.67 4.859-5-4-2 1-2-1z" opacity=".1"/>
  <path d="m46.35 18.561l-6.348 5.439-5-4-2 1-2-1-14 8-4-3-11.05 5.527c.257.87.56 1.719.914 2.543l10.141-5.07 4 3 14-8 2 1 2-1 5 4 6.818-5.844c-.109-.882-.265-1.748-.471-2.596m-26.348-5.561v6h10l1 1 1-1h2v-6" fill="#9dc851"/>
</svg>
