<svg xmlns="http://www.w3.org/2000/svg" viewBox="0 0 48 48">
 <defs>
  <linearGradient id="linearGradient3764" x1="1" x2="47" gradientUnits="userSpaceOnUse" gradientTransform="matrix(0,-1,1,0,-1.5e-6,47.999998)">
   <stop style="stop-color:#398be7;stop-opacity:1"/>
   <stop offset="1" style="stop-color:#4d96e9;stop-opacity:1"/>
  </linearGradient>
 </defs>
 <g>
  
  
  
 </g>
 <g>
  <path d="m 47,24 C 47,46.703 46.703,47 24,47 1.297,47 1,46.703 1,24 1,1.297 1.297,1 24,1 46.703,1 47,1.297 47,24 z" style="fill:url(#linearGradient3764);fill-opacity:1"/>
 </g>
 <g>
  
 </g>
 <path d="m 13.85 13 c -1.021 0 -1.849 0.764 -1.85 1.708 l 0 1.985 12 6.923 0 -5.077 -9.199 -5.293 c -0.287 -0.16 -0.616 -0.245 -0.951 -0.246 m 12.15 0 0 5.077 12 6.923 0 -5.077 m -26 -1.615 0 5.077 12 6.923 0 -5.077 z m 14 1.385 0 5.077 12 6.923 0 -5.077 z m -14 5.308 0 5.077 12 6.923 0 -5.077 m 2 -5.538 0 5.077 9.199 5.293 c 0.287 0.16 0.616 0.245 0.951 0.246 1.021 0 1.849 -0.764 1.85 -1.708 l 0 -1.985" style="fill:#000;opacity:0.1;fill-opacity:1;stroke:none"/>
 <path d="m 12.85 12 c -1.021 0 -1.849 0.764 -1.85 1.708 l 0 1.985 12 6.923 0 -5.077 -9.199 -5.293 c -0.287 -0.16 -0.616 -0.245 -0.951 -0.246 m 12.15 0 0 5.077 12 6.923 0 -5.077 m -26 -1.615 0 5.077 12 6.923 0 -5.077 z m 14 1.385 0 5.077 12 6.923 0 -5.077 z m -14 5.308 0 5.077 12 6.923 0 -5.077 m 2 -5.538 0 5.077 9.199 5.293 c 0.287 0.16 0.616 0.245 0.951 0.246 1.021 0 1.849 -0.764 1.85 -1.708 l 0 -1.985" style="fill:#f9f9f9;opacity:1;fill-opacity:1;stroke:none"/>
</svg>
