<svg xmlns="http://www.w3.org/2000/svg" viewBox="0 0 48 48">
 <defs>
  <linearGradient id="linearGradient3844" gradientUnits="userSpaceOnUse" gradientTransform="matrix(0,1,-1,0,48,0)" x1="1" x2="47">
   <stop style="stop-color:#303b48;stop-opacity:1"/>
   <stop offset="1" style="stop-color:#28313c;stop-opacity:1"/>
  </linearGradient>
 </defs>
 <g>
  
  
  
 </g>
 <path d="M 47,24 C 47,46.703 46.703,47 24,47 1.297,47 1,46.703 1,24 1,1.297 1.297,1 24,1 46.703,1 47,1.297 47,24 z" style="fill:url(#linearGradient3844);fill-opacity:1"/>
 <g>
  
 </g>
 <g transform="translate(-25.271533,-11.094268)">
  <g>
   <!-- color: #87abd0 -->
  </g>
 </g>
 <path d="m 25 10 c -8.284 -0.002 -15 6.716 -15 15 0 8.284 6.716 15 15 15 8.284 0 15 -6.716 15 -15 -0.002 -3.63 -1.329 -7.134 -3.723 -9.863 l -2.826 2.826 c 1.646 1.976 2.549 4.466 2.549 7.04 c 0.001 6.075 -4.925 11 -11 11 -6.075 0 -11 -4.925 -11 -11 0 -6.075 4.925 -11 11 -11 2.57 0.001 5.058 0.908 7.03 2.555 l 2.838 -2.838 c -2.731 -2.393 -6.238 -3.716 -9.869 -3.717 m 0 5 c -5.523 -0.002 -10 4.477 -10 10 0 5.523 4.477 10 10 10 5.523 0 10 -4.477 10 -10 -0.001 -2.306 -0.801 -4.54 -2.262 -6.324 l -5.03 5.03 c 0.193 0.403 0.295 0.844 0.295 1.291 c 0.001 1.657 -1.343 3 -3 3 -1.657 0 -3 -1.343 -3 -3 0 -1.657 1.343 -3 3 -3 0.447 0 0.888 0.102 1.291 0.295 l 5.03 -5.03 c -1.784 -1.46 -4.02 -2.261 -6.324 -2.262" style="fill:#000;opacity:0.1;fill-opacity:1;stroke:none"/>
 <path d="m 24 9 c -8.284 -0.002 -15 6.716 -15 15 c 0 8.284 6.716 15 15 15 8.284 0 15 -6.716 15 -15 -0.002 -3.63 -1.329 -7.134 -3.723 -9.863 l -2.826 2.826 c 1.646 1.976 2.549 4.466 2.549 7.04 c 0.001 6.075 -4.925 11 -11 11 -6.075 0 -11 -4.925 -11 -11 0 -6.075 4.925 -11 11 -11 2.57 0.001 5.058 0.908 7.03 2.555 l 2.838 -2.838 c -2.731 -2.393 -6.238 -3.716 -9.869 -3.717 m 0 5 c -5.523 -0.002 -10 4.477 -10 10 0 5.523 4.477 10 10 10 5.523 0 10 -4.477 10 -10 -0.001 -2.306 -0.801 -4.54 -2.262 -6.324 l -5.03 5.03 c 0.193 0.403 0.295 0.844 0.295 1.291 c 0.001 1.657 -1.343 3 -3 3 -1.657 0 -3 -1.343 -3 -3 0 -1.657 1.343 -3 3 -3 0.447 0 0.888 0.102 1.291 0.295 l 5.03 -5.03 c -1.784 -1.46 -4.02 -2.261 -6.324 -2.262" style="fill:#c5d9f3;opacity:1;fill-opacity:1;stroke:none"/>
</svg>
