<svg xmlns="http://www.w3.org/2000/svg" viewBox="0 0 48 48">
 <defs>
  <linearGradient gradientTransform="matrix(0,-1,1,0,-1.5e-6,47.999998)" gradientUnits="userSpaceOnUse" x2="47" x1="1" id="linearGradient3764">
   <stop style="stop-color:#292929;stop-opacity:1"/>
   <stop offset="1" style="stop-color:#333;stop-opacity:1"/>
  </linearGradient>
 </defs>
 <g>
  
  
  
 </g>
 <path d="M 24,1 C 46.703,1 47,1.297 47,24 47,46.703 46.703,47 24,47 1.297,47 1,46.703 1,24 1,1.297 1.297,1 24,1 Z" style="fill:url(#linearGradient3764);fill-opacity:1"/>
 <g>
  
 </g>
 <path d="m 21.16 9.101 c -2.869 1.514 -5.27 4.345 -5.339 7.715 -0.055 1.749 0.31 3.593 1.165 5.1 3 0.051 6.089 1.764 7.141 4.682 1.541 3.857 -0.273 8.977 -4.328 10.398 -2.08 0.749 -4.393 0.415 -6.403 -0.392 2.748 1.73 6.407 2.392 9.36 0.76 1.546 -0.819 2.907 -2.058 3.834 -3.526 -1.459 -2.63 -1.517 -6.158 0.482 -8.533 2.562 -3.266 7.9 -4.272 11.162 -1.473 1.689 1.425 2.555 3.595 2.861 5.738 0.123 -3.242 -1.128 -6.738 -4.01 -8.481 -1.482 -0.945 -3.232 -1.463 -4.969 -1.583 -1.549 2.579 -4.575 4.395 -7.632 3.854 -4.107 -0.58 -7.652 -4.693 -6.859 -8.916 0.388 -2.176 1.837 -4.01 3.538 -5.344 z" style="fill:#000;opacity:0.1;fill-opacity:1;stroke:none;fill-rule:evenodd"/>
 <path d="m 20.16 8.102 c -2.869 1.514 -5.27 4.345 -5.339 7.715 -0.055 1.749 0.31 3.593 1.165 5.1 3 0.051 6.089 1.764 7.141 4.682 1.541 3.857 -0.273 8.977 -4.328 10.398 -2.08 0.749 -4.393 0.415 -6.403 -0.392 2.748 1.73 6.407 2.392 9.36 0.76 1.546 -0.819 2.907 -2.058 3.834 -3.526 -1.459 -2.63 -1.517 -6.158 0.482 -8.533 2.562 -3.266 7.9 -4.272 11.162 -1.473 1.689 1.425 2.555 3.595 2.861 5.738 0.123 -3.242 -1.128 -6.738 -4.01 -8.481 -1.482 -0.945 -3.232 -1.463 -4.969 -1.583 -1.549 2.579 -4.575 4.395 -7.632 3.854 -4.107 -0.58 -7.652 -4.693 -6.859 -8.916 0.388 -2.176 1.837 -4.01 3.538 -5.344 z" style="fill:#f9f9f9;fill-opacity:1;stroke:none;fill-rule:evenodd"/>
</svg>
