<svg viewBox="0 0 48 48" xmlns="http://www.w3.org/2000/svg" xmlns:xlink="http://www.w3.org/1999/xlink">
  <linearGradient id="a" gradientTransform="matrix(0 -1 1 0 -.0000015 47.999998)" gradientUnits="userSpaceOnUse" x1="1" x2="47">
    <stop offset="0" stop-color="#292929"/>
    <stop offset="1" stop-color="#333"/>
  </linearGradient>
  <path d="m24 1c22.703 0 23 .297 23 23 0 22.703-.297 23-23 23-22.703 0-23-.297-23-23 0-22.703.297-23 23-23z" fill="url(#a)"/>
  <path d="m21.16 9.101c-2.869 1.514-5.27 4.345-5.339 7.715-.055 1.749.31 3.593 1.165 5.1 3 .051 6.089 1.764 7.141 4.682 1.541 3.857-.273 8.977-4.328 10.398-2.08.749-4.393.415-6.403-.392 2.748 1.73 6.407 2.392 9.36.76 1.546-.819 2.907-2.058 3.834-3.526-1.459-2.63-1.517-6.158.482-8.533 2.562-3.266 7.9-4.272 11.162-1.473 1.689 1.425 2.555 3.595 2.861 5.738.123-3.242-1.128-6.738-4.01-8.481-1.482-.945-3.232-1.463-4.969-1.583-1.549 2.579-4.575 4.395-7.632 3.854-4.107-.58-7.652-4.693-6.859-8.916.388-2.176 1.837-4.01 3.538-5.344z" fill-rule="evenodd" opacity=".1"/>
  <path d="m20.16 8.102c-2.869 1.514-5.27 4.345-5.339 7.715-.055 1.749.31 3.593 1.165 5.1 3 .051 6.089 1.764 7.141 4.682 1.541 3.857-.273 8.977-4.328 10.398-2.08.749-4.393.415-6.403-.392 2.748 1.73 6.407 2.392 9.36.76 1.546-.819 2.907-2.058 3.834-3.526-1.459-2.63-1.517-6.158.482-8.533 2.562-3.266 7.9-4.272 11.162-1.473 1.689 1.425 2.555 3.595 2.861 5.738.123-3.242-1.128-6.738-4.01-8.481-1.482-.945-3.232-1.463-4.969-1.583-1.549 2.579-4.575 4.395-7.632 3.854-4.107-.58-7.652-4.693-6.859-8.916.388-2.176 1.837-4.01 3.538-5.344z" fill="#f9f9f9" fill-rule="evenodd"/>
</svg>
