<svg viewBox="0 0 48 48" xmlns="http://www.w3.org/2000/svg" xmlns:xlink="http://www.w3.org/1999/xlink">
  <linearGradient id="a" gradientTransform="matrix(0 -1 1 0 -.0000015 47.999998)" gradientUnits="userSpaceOnUse" x1="1" x2="47">
    <stop offset="0" stop-color="#ff821d"/>
    <stop offset="1" stop-color="#ff8c32"/>
  </linearGradient>
  <path d="m47 24c0 22.703-.297 23-23 23-22.703 0-23-.297-23-23 0-22.703.297-23 23-23 22.703 0 23 .297 23 23z" fill="url(#a)"/>
  <path d="m24.996 11.992c-4.781 0-8.656 4.227-8.656 9.441 0 .507.041 1.01.111 1.492 0 .004-.002.008-.002.012 0 .012.007.023.008.035.02.335.298.602.645.602.108 0 .205-.031.295-.076.08 1.694.673 3.01 1.408 3.03.043.433.372.779.781.779h.066c.813 1.25 1.795 2.379 1.795 2.379v2.078l-6.43 3.465v2.773h19.988v-2.773l-6.428-3.465v-2.078c0 0 .979-1.129 1.791-2.379h.037c.409 0 .735-.346.777-.779.745-.019 1.346-1.375 1.412-3.104.09.048.19.082.299.082.323 0 .573-.234.623-.535h.014c.078-.5.117-1.016.117-1.539 0-5.215-3.875-9.441-8.652-9.441zm0 1.4c3.982 0 7.217 3.454 7.35 7.77-.23-.775-.593-1.3-1.01-1.416-.245-1.407-1.166-3.918-4.699-3.918h-3.244c-3.53 0-4.453 2.5-4.699 3.908-.436.092-.816.629-1.053 1.434.128-4.315 3.367-7.777 7.355-7.777z" opacity=".1" transform=""/>
  <path d="m22.367 14.828h3.27c4.895 0 4.797 4.852 4.797 4.852v4.156c0 1.582-2.855 4.852-2.855 4.852v2.078l6.426 3.465v2.773h-19.988v-2.773l6.43-3.465v-2.078c0 0-2.867-3.27-2.852-4.852v-4.156c0 0-.105-4.852 4.797-4.852m-.023 0" fill="#333"/>
  <path d="m18.586 17.938h.988c.438 0 .793.387.793.867v6.637c0 .477-.355.867-.793.867h-.988c-.438 0-.797-.391-.797-.867v-6.637c0-.48.359-.867.797-.867m0 0" fill="#333"/>
  <path d="m19.266 22.12c0 1.887-.648 3.414-1.445 3.414-.797 0-1.441-1.527-1.441-3.414 0-1.887.645-3.414 1.441-3.414.797 0 1.445 1.527 1.445 3.414m0 0" fill="#333"/>
  <path d="m16.754 21.938c0 .352-.293.637-.652.637-.359 0-.652-.285-.652-.637 0-.352.293-.637.652-.637.359 0 .652.285.652.637m0 0" fill="#333"/>
  <path d="m23.996 10.992c-4.781 0-8.656 4.227-8.656 9.441 0 .523.043 1.039.117 1.539h1.309c-.086-.496-.137-1.012-.137-1.539 0-4.438 3.297-8.04 7.367-8.04 4.066 0 7.363 3.598 7.363 8.04 0 .527-.047 1.043-.137 1.539h1.309c.078-.5.117-1.016.117-1.539 0-5.215-3.875-9.441-8.652-9.441m0 0" fill="#333"/>
  <path d="m32.539 21.871c0 .352-.285.637-.645.637-.355 0-.645-.285-.645-.637 0-.352.289-.637.645-.637.359 0 .645.285.645.637m0 0" fill="#333"/>
  <path d="m29.406 17.938h-.988c-.441 0-.797.387-.797.867v6.637c0 .477.355.867.797.867h.988c.438 0 .793-.391.793-.867v-6.637c0-.48-.355-.867-.793-.867m0 0" fill="#333"/>
  <path d="m28.727 22.12c0 1.887.645 3.414 1.441 3.414.797 0 1.441-1.527 1.441-3.414 0-1.887-.645-3.414-1.441-3.414-.797 0-1.441 1.527-1.441 3.414m0 0" fill="#333"/>
</svg>
