<svg viewBox="0 0 48 48" xmlns="http://www.w3.org/2000/svg" xmlns:xlink="http://www.w3.org/1999/xlink">
  <linearGradient id="a" gradientTransform="matrix(0 -1 1 0 -.0000015 47.999998)" gradientUnits="userSpaceOnUse" x1="1" x2="47">
    <stop offset="0" stop-color="#575757"/>
    <stop offset="1" stop-color="#616161"/>
  </linearGradient>
  <path d="m47 24c0 22.703-.297 23-23 23-22.703 0-23-.297-23-23 0-22.703.297-23 23-23 22.703 0 23 .297 23 23z" fill="url(#a)"/>
  <path d="m38 12h-26v26h26" fill-rule="evenodd" opacity=".1"/>
  <path d="m37 11h-26v26h26" fill="#f5efef" fill-rule="evenodd"/>
  <path d="m12 13h24v1h-24z" fill="#bfbfbf" fill-opacity=".853"/>
  <path d="m12 15h24v1h-24z" fill="#bfbfbf" fill-opacity=".853"/>
  <path d="m12 17h24v1h-24z" fill="#bfbfbf" fill-opacity=".853"/>
  <path d="m12 19h24v1h-24z" fill="#bfbfbf" fill-opacity=".853"/>
  <path d="m12 21h24v1h-24z" fill="#bfbfbf" fill-opacity=".853"/>
  <path d="m12 23h24v1h-24z" fill="#bfbfbf" fill-opacity=".853"/>
  <path d="m12 25h24v1h-24z" fill="#bfbfbf" fill-opacity=".853"/>
  <path d="m12 27h24v1h-24z" fill="#bfbfbf" fill-opacity=".853"/>
  <path d="m12 29h24v1h-24z" fill="#bfbfbf" fill-opacity=".853"/>
  <path d="m12 31h24v1h-24z" fill="#bfbfbf" fill-opacity=".853"/>
  <path d="m12 33h24v1h-24z" fill="#bfbfbf" fill-opacity=".853"/>
  <path d="m29 12a9 9 0 0 0-9 9 9 9 0 0 0  1.928 5.551l-4.682 4.679-.313-.308-4.933 4.933 1.145 1.145h2l3.934-3.934-.329-.328 4.674-4.678a9 9 0 0 0 5.576 1.94 9 9 0 0 0  8-4.88v-8.223a9 9 0 0 0-8-4.897m0 2a7 7 0 0 1 7 7 7 7 0 0 1-7 7 7 7 0 0 1-7-7 7 7 0 0 1  7-7z" fill-rule="evenodd" opacity=".1"/>
  <path d="m36.602 19.898c0 4.697-3.805 8.5-8.5 8.5-4.699 0-8.504-3.803-8.5-8.5-.004-4.693 3.801-8.5 8.5-8.5 4.695 0 8.5 3.807 8.5 8.5m0 0" fill="#f5efef"/>
  <path d="m22.622 26.866l-1.504-1.504-4.934 4.934 1.504 1.504" fill="#d24c37"/>
  <path d="m18.079 32.066l-2.145-2.145-4.934 4.934 2.145 2.145" fill="#222b30"/>
  <path d="m30.801 24l-.801-2h-4l-.801 2h-2.199l4-10h2l4 10zm-2.801-7l-1.2 3h2.4" fill="#606060"/>
  <path d="m28.5 11.5a9 9 0 0 0-8.799 7.154c-.06.407-.1.821-.1 1.244-.004 4.697 3.801 8.5 8.5 8.5 4.695 0 8.5-3.803 8.5-8.5 0-3.969-2.725-7.295-6.404-8.23a9 9 0 0 0-1.697-.168m0 2a7 7 0 0 1 7 7 7 7 0 0 1-7 7 7 7 0 0 1-7-7 7 7 0 0 1  7-7z" opacity=".1"/>
  <path d="m28 11a9 9 0 0 0-9 9 9 9 0 0 0  9 9 9 9 0 0 0  9-9 9 9 0 0 0-9-9zm0 2a7 7 0 0 1 7 7 7 7 0 0 1-7 7 7 7 0 0 1-7-7 7 7 0 0 1  7-7z" fill="#b19b9b"/>
</svg>
