<svg xmlns="http://www.w3.org/2000/svg" viewBox="0 0 48 48">
 <defs>
  <linearGradient id="linearGradient3764" x1="1" x2="47" gradientUnits="userSpaceOnUse" gradientTransform="matrix(0,-1,1,0,-1.5e-6,47.999998)">
   <stop style="stop-color:#575757;stop-opacity:1"/>
   <stop offset="1" style="stop-color:#616161;stop-opacity:1"/>
  </linearGradient>
 </defs>
 <g>
  
  
  
 </g>
 <g>
  <path d="m 47,24 C 47,46.703 46.703,47 24,47 1.297,47 1,46.703 1,24 1,1.297 1.297,1 24,1 46.703,1 47,1.297 47,24 z" style="fill:url(#linearGradient3764);fill-opacity:1"/>
 </g>
 <g>
  
 </g>
 <g>
  <g>
   <g>
    <g>
     <path d="m 38 12 -26 0 0 26 26 0" style="fill:#000;opacity:0.1;fill-opacity:1;stroke:none;fill-rule:evenodd"/>
     <path d="m 37 11 -26 0 0 26 26 0" style="fill:#f5efef;fill-opacity:1;stroke:none;fill-rule:evenodd"/>
    </g>
    <g>
     <g>
      <g transform="translate(0,-0.004)">
       <g>
        <g transform="translate(1,1)">
         <g style="opacity:0.1">
          <!-- color: #cccdb6 -->
         </g>
        </g>
       </g>
      </g>
     </g>
    </g>
   </g>
  </g>
  <path d="m 12 13 24 0 0 1 -24 0 z" style="fill:#bfbfbf;fill-opacity:0.853;stroke:none;fill-rule:nonzero"/>
  <path d="m 12 15 24 0 0 1 -24 0 z" style="fill:#bfbfbf;fill-opacity:0.853;stroke:none;fill-rule:nonzero"/>
  <path d="m 12 17 24 0 0 1 -24 0 z" style="fill:#bfbfbf;fill-opacity:0.853;stroke:none;fill-rule:nonzero"/>
  <path d="m 12 19 24 0 0 1 -24 0 z" style="fill:#bfbfbf;fill-opacity:0.853;stroke:none;fill-rule:nonzero"/>
  <path d="m 12 21 24 0 0 1 -24 0 z" style="fill:#bfbfbf;fill-opacity:0.853;stroke:none;fill-rule:nonzero"/>
  <path d="m 12 23 24 0 0 1 -24 0 z" style="fill:#bfbfbf;fill-opacity:0.853;stroke:none;fill-rule:nonzero"/>
  <path d="m 12 25 24 0 0 1 -24 0 z" style="fill:#bfbfbf;fill-opacity:0.853;stroke:none;fill-rule:nonzero"/>
  <path d="m 12 27 24 0 0 1 -24 0 z" style="fill:#bfbfbf;fill-opacity:0.853;stroke:none;fill-rule:nonzero"/>
  <path d="m 12 29 24 0 0 1 -24 0 z" style="fill:#bfbfbf;fill-opacity:0.853;stroke:none;fill-rule:nonzero"/>
  <path d="m 12 31 24 0 0 1 -24 0 z" style="fill:#bfbfbf;fill-opacity:0.853;stroke:none;fill-rule:nonzero"/>
  <path d="m 12 33 24 0 0 1 -24 0 z" style="fill:#bfbfbf;fill-opacity:0.853;stroke:none;fill-rule:nonzero"/>
 </g>
 <g>
  <path d="m 29 12 a 9 9 0 0 0 -9 9 9 9 0 0 0 1.928 5.551 L 17.246 31.23 16.933 30.922 12 35.855 13.145 37 l 2 0 3.934 -3.934 -0.329 -0.328 4.674 -4.678 A 9 9 0 0 0 29 30 9 9 0 0 0 37 25.12 l 0 -8.223 A 9 9 0 0 0 29 12 m 0 2 a 7 7 0 0 1 7 7 7 7 0 0 1 -7 7 7 7 0 0 1 -7 -7 7 7 0 0 1 7 -7 z" style="fill:#000;opacity:0.1;fill-opacity:1;stroke:none;fill-rule:evenodd"/>
  <path d="m 36.602 19.898 c 0 4.697 -3.805 8.5 -8.5 8.5 -4.699 0 -8.504 -3.803 -8.5 -8.5 -0.004 -4.693 3.801 -8.5 8.5 -8.5 4.695 0 8.5 3.807 8.5 8.5 m 0 0" style="fill:#f5efef;fill-opacity:1;stroke:none;fill-rule:nonzero"/>
  <path d="m 22.622 26.866 -1.504 -1.504 -4.934 4.934 1.504 1.504" style="fill:#d24c37;fill-opacity:1;stroke:none;fill-rule:nonzero"/>
  <path d="M 18.079,32.066 15.934,29.921 11,34.855 13.145,37" style="fill:#222b30;fill-opacity:1;stroke:none;fill-rule:nonzero"/>
  <path d="M 30.801,24 30,22 26,22 25.199,24 23,24 l 4,-10 2,0 4,10 -2.199,0 M 28,17 l -1.2,3 2.4,0" style="fill:#606060;fill-opacity:1;stroke:none"/>
  <path d="m 28.5 11.5 a 9 9 0 0 0 -8.799 7.154 c -0.06 0.407 -0.1 0.821 -0.1 1.244 -0.004 4.697 3.801 8.5 8.5 8.5 4.695 0 8.5 -3.803 8.5 -8.5 0 -3.969 -2.725 -7.295 -6.404 -8.23 A 9 9 0 0 0 28.5 11.5 m 0 2 a 7 7 0 0 1 7 7 7 7 0 0 1 -7 7 7 7 0 0 1 -7 -7 7 7 0 0 1 7 -7 z" style="fill:#000;opacity:0.1;fill-opacity:1;stroke:none"/>
  <path d="m 28 11 a 9 9 0 0 0 -9 9 9 9 0 0 0 9 9 9 9 0 0 0 9 -9 9 9 0 0 0 -9 -9 z m 0 2 a 7 7 0 0 1 7 7 7 7 0 0 1 -7 7 7 7 0 0 1 -7 -7 7 7 0 0 1 7 -7 z" style="fill:#b19b9b;opacity:1;fill-opacity:1;stroke:none"/>
 </g>
</svg>
