<svg xmlns="http://www.w3.org/2000/svg" viewBox="0 0 48 48">
 <defs>
  <linearGradient id="linearGradient3764" x1="1" x2="47" gradientUnits="userSpaceOnUse" gradientTransform="matrix(0,-1,1,0,-1.5e-6,47.999998)">
   <stop style="stop-color:#e4e4e4;stop-opacity:1"/>
   <stop offset="1" style="stop-color:#eee;stop-opacity:1"/>
  </linearGradient>
  <radialGradient id="radial0" gradientUnits="userSpaceOnUse" cx="182.98" cy="395.05" r="148.95" gradientTransform="matrix(0.165918,-0.178305,0.553456,0.594776,-229.68345,-169.66171)">
   <stop style="stop-color:#008cbe;stop-opacity:1"/>
   <stop offset="1" style="stop-color:#b2ffff;stop-opacity:1"/>
  </radialGradient>
 </defs>
 <g>
  
  
  
 </g>
 <g>
  <path d="m 47,24 C 47,46.703 46.703,47 24,47 1.297,47 1,46.703 1,24 1,1.297 1.297,1 24,1 46.703,1 47,1.297 47,24 z" style="fill:url(#linearGradient3764);fill-opacity:1"/>
 </g>
 <g>
  <g>
   <g transform="translate(1,1)">
    <g style="opacity:0.1">
     <!-- color: #eeeeee -->
     <g>
      <path d="m 23.338 13.01 c -2.44 -0.09 -4.708 0.718 -6.354 2.486 l 0.004 0 c -1.367 1.467 -2.11 3.397 -2.277 5.508 l -0.469 0 c -0.687 0 -1.242 0.554 -1.242 1.238 l 0 4.523 c 0 0.683 0.554 1.236 1.242 1.236 l 1.85 0 c 0.715 1.524 1.695 2.996 2.928 4.322 c 4.672 5.02 11.279 6.121 15.14 2.676 l 1.955 0 c 0.489 0 0.889 -0.395 0.889 -0.883 l 0 -3.23 c 0 -0.228 -0.094 -0.431 -0.236 -0.588 c 0.696 -3.404 -0.275 -7.485 -2.762 -10.939 l 0 -1.824 c 0 -0.293 -0.238 -0.531 -0.531 -0.531 l -1.512 0 c -2.621 -2.514 -5.74 -3.887 -8.623 -3.994 z m 2.02 2.172 c 1.885 0.046 3.893 0.784 5.684 2.166 c -0.022 0.059 -0.037 0.121 -0.037 0.188 l 0 1.941 c 0 0.293 0.238 0.531 0.531 0.531 l 1.941 0 c 0.033 0 0.062 -0.014 0.094 -0.02 c 2.295 3.198 2.882 7.125 1.566 10.02 l -2.246 0 c -0.489 0 -0.887 0.395 -0.887 0.883 l 0 2.297 c -3.03 1.368 -7.149 0.292 -10.168 -2.953 c -0.822 -0.884 -1.486 -1.856 -2 -2.867 c 0.102 -0.18 0.176 -0.376 0.176 -0.598 l 0 -4.523 c 0 -0.683 -0.554 -1.238 -1.242 -1.238 l -0.121 0 c 0.213 -1.454 0.787 -2.782 1.754 -3.822 l 0.004 -0.004 c 1.294 -1.391 3.062 -2.042 4.955 -1.996 z" transform="translate(-1,-1)"/>
     </g>
    </g>
   </g>
  </g>
 </g>
 <g>
  <g>
   <!-- color: #eeeeee -->
   <g>
    <path d="m 15.988 14.492 c -3.766 4.04 -2.852 11.574 2.031 16.828 4.887 5.25 11.898 6.227 15.66 2.184 3.762 -4.04 2.852 -11.578 -2.035 -16.824 -4.887 -5.254 -11.898 -6.23 -15.66 -2.187 m 3.414 1.68 c 2.957 -3.18 8.391 -2.488 12.141 1.543 3.75 4.03 4.395 9.875 1.434 13.05 -2.953 3.18 -8.395 2.488 -12.141 -1.539 -3.75 -4.03 -4.391 -9.871 -1.438 -13.05 m 0.004 0" style="fill:url(#radial0);stroke:none;fill-rule:nonzero"/>
    <path d="m 30.531,16 1.941,0 c 0.293,0 0.531,0.238 0.531,0.531 l 0,1.941 c 0,0.293 -0.238,0.531 -0.531,0.531 l -1.941,0 C 30.238,19.003 30,18.765 30,18.472 l 0,-1.941 C 30,16.238 30.238,16 30.531,16 m 0,0" style="fill:#ff6212;fill-opacity:1;stroke:none;fill-rule:nonzero"/>
    <path d="m 13.242,20 4.52,0 c 0.688,0 1.242,0.555 1.242,1.238 l 0,4.523 c 0,0.684 -0.555,1.238 -1.242,1.238 l -4.52,0 C 12.554,26.999 12,26.444 12,25.761 l 0,-4.523 C 12,20.554 12.555,20 13.242,20 m 0,0" style="fill:#ff6212;fill-opacity:1;stroke:none;fill-rule:nonzero"/>
    <path d="m 31.887,29 3.227,0 c 0.488,0 0.887,0.395 0.887,0.883 l 0,3.23 c 0,0.488 -0.398,0.883 -0.887,0.883 l -3.227,0 C 31.399,33.996 31,33.601 31,33.113 l 0,-3.23 C 31,29.395 31.398,29 31.887,29 m 0,0" style="fill:#ff6212;fill-opacity:1;stroke:none;fill-rule:nonzero"/>
   </g>
  </g>
 </g>
 <g>
  
 </g>
</svg>
