<svg viewBox="0 0 48 48" xmlns="http://www.w3.org/2000/svg" xmlns:xlink="http://www.w3.org/1999/xlink">
  <linearGradient id="a" gradientTransform="matrix(0 -1 1 0 -.0000015 47.999998)" gradientUnits="userSpaceOnUse" x1="1" x2="47">
    <stop offset="0" stop-color="#e4e4e4"/>
    <stop offset="1" stop-color="#eee"/>
  </linearGradient>
  <radialGradient id="b" cx="182.98" cy="395.05" gradientTransform="matrix(.165918 -.178305 .553456 .594776 -229.68345 -169.66171)" gradientUnits="userSpaceOnUse" r="148.95">
    <stop offset="0" stop-color="#008cbe"/>
    <stop offset="1" stop-color="#b2ffff"/>
  </radialGradient>
  <path d="m47 24c0 22.703-.297 23-23 23-22.703 0-23-.297-23-23 0-22.703.297-23 23-23 22.703 0 23 .297 23 23z" fill="url(#a)"/>
  <path d="m23.338 13.01c-2.44-.09-4.708.718-6.354 2.486h.004c-1.367 1.467-2.11 3.397-2.277 5.508h-.469c-.687 0-1.242.554-1.242 1.238v4.523c0 .683.554 1.236 1.242 1.236h1.85c.715 1.524 1.695 2.996 2.928 4.322 4.672 5.02 11.279 6.121 15.14 2.676h1.955c.489 0 .889-.395.889-.883v-3.23c0-.228-.094-.431-.236-.588.696-3.404-.275-7.485-2.762-10.939v-1.824c0-.293-.238-.531-.531-.531h-1.512c-2.621-2.514-5.74-3.887-8.623-3.994zm2.02 2.172c1.885.046 3.893.784 5.684 2.166-.022.059-.037.121-.037.188v1.941c0 .293.238.531.531.531h1.941c.033 0 .062-.014.094-.02 2.295 3.198 2.882 7.125 1.566 10.02h-2.246c-.489 0-.887.395-.887.883v2.297c-3.03 1.368-7.149.292-10.168-2.953-.822-.884-1.486-1.856-2-2.867.102-.18.176-.376.176-.598v-4.523c0-.683-.554-1.238-1.242-1.238h-.121c.213-1.454.787-2.782 1.754-3.822l.004-.004c1.294-1.391 3.062-2.042 4.955-1.996z" opacity=".1" transform=""/>
  <path d="m15.988 14.492c-3.766 4.04-2.852 11.574 2.031 16.828 4.887 5.25 11.898 6.227 15.66 2.184 3.762-4.04 2.852-11.578-2.035-16.824-4.887-5.254-11.898-6.23-15.66-2.187m3.414 1.68c2.957-3.18 8.391-2.488 12.141 1.543 3.75 4.03 4.395 9.875 1.434 13.05-2.953 3.18-8.395 2.488-12.141-1.539-3.75-4.03-4.391-9.871-1.438-13.05m.004 0" fill="url(#b)"/>
  <path d="m30.531 16h1.941c.293 0 .531.238.531.531v1.941c0 .293-.238.531-.531.531h-1.941c-.293 0-.531-.238-.531-.531v-1.941c0-.293.238-.531.531-.531m0 0" fill="#ff6212"/>
  <path d="m13.242 20h4.52c.688 0 1.242.555 1.242 1.238v4.523c0 .684-.555 1.238-1.242 1.238h-4.52c-.688 0-1.242-.555-1.242-1.238v-4.523c0-.684.555-1.238 1.242-1.238m0 0" fill="#ff6212"/>
  <path d="m31.887 29h3.227c.488 0 .887.395.887.883v3.23c0 .488-.398.883-.887.883h-3.227c-.488 0-.887-.395-.887-.883v-3.23c0-.488.398-.883.887-.883m0 0" fill="#ff6212"/>
</svg>
