<svg viewBox="0 0 48 48" xmlns="http://www.w3.org/2000/svg" xmlns:xlink="http://www.w3.org/1999/xlink">
  <linearGradient id="a" gradientTransform="matrix(0 -1 1 0 -.0000015 47.999998)" gradientUnits="userSpaceOnUse" x1="1" x2="47">
    <stop offset="0" stop-color="#e4e4e4"/>
    <stop offset="1" stop-color="#eee"/>
  </linearGradient>
  <path d="m47 24c0 22.703-.297 23-23 23-22.703 0-23-.297-23-23 0-22.703.297-23 23-23 22.703 0 23 .297 23 23z" fill="url(#a)"/>
  <g opacity=".1" transform="translate(1 1)">
    <path d="m20.637 22.08c0 1.211.824 2.195 1.844 2.191 1.02 0 1.844-.98 1.844-2.191 0-1.211-.824-2.188-1.844-2.188-1.02 0-1.844.977-1.844 2.188" fill-rule="evenodd"/>
    <path d="m24.03 12c-3.961.004-7.66 2.043-9.426 5.371-2.539 5.625-2.574 12.133-2.602 18.246 1.934.172 1.816-1.914 3.84-1.941 1.926-.027 2.203 2.258 4.164 2.297 1.754.031 2.316-1.977 4.102-2.242 1.773-.016 2.328 2.285 4.164 2.27 1.691-.012 2.363-2.289 4.047-2.309 1.691-.016 2.145 1.961 3.664 2.078.086-4.57-.172-9.793-1.055-14.434-.125-.652-.289-1.289-.441-1.914-.215-.613-.578-1.574-.969-2.266-1.871-2.945-5.527-5.16-9.488-5.156m6.73 5.03c1.57-.074 2.918 1.508 3.406 2.934.297.875.727 1.906.352 3.051-.375 1.141-.836 2.711-2.832 3.02-4.598.316-5.422-5.16-3.137-8.07.594-.754 1.492-.895 2.211-.93m-10.246.121c1.609-.063 3.266.98 3.754 3.277.316 1.902-.09 4.313-1.969 5.273-3.098 1.43-5.188-1.379-5.27-4.313-.094-2.68 1.66-4.168 3.48-4.238m.004 0"/>
    <path d="m30.945 22.14c.004 1.211.828 2.191 1.848 2.191 1.016 0 1.84-.984 1.84-2.195 0-1.211-.824-2.191-1.84-2.191-1.02 0-1.844.98-1.848 2.191" fill-rule="evenodd"/>
  </g>
  <path d="m20.637 22.08c0 1.211.824 2.195 1.844 2.191 1.02 0 1.844-.98 1.844-2.191 0-1.211-.824-2.188-1.844-2.188-1.02 0-1.844.977-1.844 2.188" fill="#2d2d2d" fill-rule="evenodd"/>
  <path d="m24.03 12c-3.961.004-7.66 2.043-9.426 5.371-2.539 5.625-2.574 12.133-2.602 18.246 1.934.172 1.816-1.914 3.84-1.941 1.926-.027 2.203 2.258 4.164 2.297 1.754.031 2.316-1.977 4.102-2.242 1.773-.016 2.328 2.285 4.164 2.27 1.691-.012 2.363-2.289 4.047-2.309 1.691-.016 2.145 1.961 3.664 2.078.086-4.57-.172-9.793-1.055-14.434-.125-.652-.289-1.289-.441-1.914-.215-.613-.578-1.574-.969-2.266-1.871-2.945-5.527-5.16-9.488-5.156m6.73 5.03c1.57-.074 2.918 1.508 3.406 2.934.297.875.727 1.906.352 3.051-.375 1.141-.836 2.711-2.832 3.02-4.598.316-5.422-5.16-3.137-8.07.594-.754 1.492-.895 2.211-.93m-10.246.121c1.609-.063 3.266.98 3.754 3.277.316 1.902-.09 4.313-1.969 5.273-3.098 1.43-5.188-1.379-5.27-4.313-.094-2.68 1.66-4.168 3.48-4.238m.004 0" fill="#ecc13d"/>
  <path d="m30.945 22.14c.004 1.211.828 2.191 1.848 2.191 1.016 0 1.84-.984 1.84-2.195 0-1.211-.824-2.191-1.84-2.191-1.02 0-1.844.98-1.848 2.191" fill="#2d2d2d" fill-rule="evenodd"/>
</svg>
