<svg viewBox="0 0 48 48" xmlns="http://www.w3.org/2000/svg" xmlns:xlink="http://www.w3.org/1999/xlink">
  <linearGradient id="a" gradientTransform="matrix(0 -1 1 0 -.0000015 47.999998)" gradientUnits="userSpaceOnUse" x1="1" x2="47">
    <stop offset="0" stop-color="#3d3d3d"/>
    <stop offset="1" stop-color="#474747"/>
  </linearGradient>
  <path d="m47 24c0 22.703-.297 23-23 23-22.703 0-23-.297-23-23 0-22.703.297-23 23-23 22.703 0 23 .297 23 23z" fill="url(#a)"/>
  <g opacity=".1" transform="translate(1 1)">
    <path d="m18 10.996h12c .551 0 1 .449 1 1v12c0 .555-.449 1-1 1h-12c-.555 0-1-.445-1-1v-12c0-.551.445-1 1-1m0 0"/>
    <path d="m13 18.996h22c .551 0 1 .449 1 1v10c0 .551-.449 1-1 1h-22c-.551 0-1-.449-1-1v-10c0-.551.449-1 1-1m0 0"/>
    <path d="m17 25.02h14v12h-14m0-12"/>
  </g>
  <path d="m18 10.996h12c .551 0 1 .449 1 1v12c0 .555-.449 1-1 1h-12c-.555 0-1-.445-1-1v-12c0-.551.445-1 1-1m0 0" fill="#a3a3a3"/>
  <path d="m13 18.996h22c .551 0 1 .449 1 1v10c0 .551-.449 1-1 1h-22c-.551 0-1-.449-1-1v-10c0-.551.449-1 1-1m0 0" fill="#d5d5d5"/>
  <path d="m17 25.02h14v12h-14m0-12" fill="#f9f9f9"/>
</svg>
