<svg viewBox="0 0 48 48" xmlns="http://www.w3.org/2000/svg" xmlns:xlink="http://www.w3.org/1999/xlink">
  <linearGradient id="a" gradientUnits="userSpaceOnUse" x2="0" y1="47" y2="1">
    <stop offset="0" stop-color="#a09b3e"/>
    <stop offset="1" stop-color="#afa943"/>
  </linearGradient>
  <linearGradient id="b" gradientTransform="matrix(2.797157 0 0 2.797157 -332.97333 -741.65338)" gradientUnits="userSpaceOnUse" x2="0" y1="279.1" y2="268.33">
    <stop offset="0" stop-color="#c8c8c8"/>
    <stop offset="1" stop-color="#eaeaea"/>
  </linearGradient>
  <path d="m24 1c22.703 0 23 .297 23 23 0 22.703-.297 23-23 23-22.703 0-23-.297-23-23 0-22.703.297-23 23-23z" fill="url(#a)"/>
  <path d="m25 10c-8.285 0-15 6.715-15 15 0 8.281 6.715 14.996 15 14.996 8.281 0 14.996-6.715 14.996-14.996 0-8.285-6.715-15-14.996-15zm0 12.859c.59 0 1.129.238 1.516.621.387.387.625.926.625 1.52 0 .59-.238 1.129-.625 1.516-.387.387-.926.625-1.516.625-.594 0-1.133-.238-1.52-.625-.383-.387-.621-.926-.621-1.516 0-.594.238-1.133.621-1.52.387-.383.926-.621 1.52-.621z" fill-opacity=".098" fill-rule="evenodd"/>
  <path d="m24 9c-8.285 0-15 6.715-15 15 0 8.281 6.715 14.996 15 14.996 8.281 0 14.996-6.715 14.996-14.996 0-8.285-6.715-15-14.996-15m0 12.859c.59 0 1.129.238 1.516.621.387.387.625.926.625 1.52 0 .59-.238 1.129-.625 1.516-.387.387-.926.625-1.516.625-.594 0-1.133-.238-1.52-.625-.383-.387-.621-.926-.621-1.516 0-.594.238-1.133.621-1.52.387-.383.926-.621 1.52-.621z" fill="url(#b)" fill-rule="evenodd"/>
  <path d="m34.47 34.68c.691-.682 1.313-1.439 1.863-2.241.547-.799 1.023-1.667 1.41-2.569.387-.902.68-1.847.883-2.831.199-.983.309-2 .309-3.039h-10.635c0 .625-.16 1.226-.39 1.766-.227.54-.616 1.026-1.03 1.435l7.594 7.478" fill="#fff" fill-opacity=".498"/>
  <path d="m13.496 13.289c-.688.684-1.309 1.44-1.855 2.248-.547.808-1.02 1.674-1.402 2.578-.387.904-.68 1.851-.879 2.834-.203.986-.309 2.01-.309 3.051h10.664c0-.629.125-1.23.359-1.77.23-.544.563-1.033.973-1.44l-7.539-7.496m-.012-.004" fill="#fff" fill-opacity=".498"/>
  <path d="m10.343 30.21c.75 1.652 1.793 3.133 3.059 4.398l7.558-7.566c-.359-.363-.669-.801-.88-1.273" fill="#fff" fill-opacity=".498"/>
  <path d="m34.602 13.398l-7.562 7.562c.363.363.67.801.885 1.273l9.736-4.445c-.754-1.648-1.793-3.129-3.059-4.395" fill="#fff" fill-opacity=".498"/>
  <path d="m28.29 24c0 .397-.071.774-.172 1.139l10.348 2.861c.355-1.302.535-2.647.535-4z" fill="#999" fill-opacity=".498"/>
  <path d="m9.535 20.03c-.355 1.293-.535 2.629-.535 3.973h10.721c0-.393.069-.767.168-1.129z" fill="#999" fill-opacity=".498"/>
  <path d="m24 9v10.715c.002 0 .004 0 .006 0 .392 0 .764.069 1.125.168l2.842-10.348c-1.293-.355-2.629-.535-3.973-.535" fill="#ff8dff" fill-opacity=".498"/>
  <path d="m22.871 28.11l-2.844 10.352c1.293.355 2.629.535 3.973.535v-10.715c-.393 0-.768-.072-1.129-.172z" fill="#ff8dff" fill-opacity=".498"/>
  <path d="m24.01 19.715c-2.367 0-4.285 1.918-4.285 4.285 0 2.367 1.918 4.285 4.285 4.285 2.367 0 4.283-1.918 4.283-4.285 0-2.367-1.916-4.285-4.283-4.285zm-.006 2.145c.59 0 1.129.238 1.516.621.387.387.625.926.625 1.52 0 .59-.238 1.129-.625 1.516-.387.387-.926.625-1.516.625-.594 0-1.133-.238-1.52-.625-.383-.387-.621-.926-.621-1.516 0-.594.238-1.133.621-1.52.387-.383.926-.621 1.52-.621z" fill="#999" fill-opacity=".498"/>
  <path d="m23 14v9h-5l7 7 7-7h-5v-9zm-5 17v4h14v-4z" fill-rule="evenodd" opacity=".1"/>
  <path d="m22 13v9h-5l7 7 7-7h-5v-9zm-5 17v4h14v-4z" fill="#d05c4d" fill-rule="evenodd"/>
</svg>
