<svg viewBox="0 0 48 48" xmlns="http://www.w3.org/2000/svg" xmlns:xlink="http://www.w3.org/1999/xlink">
  <linearGradient id="a" gradientTransform="matrix(0 -1 1 0 -.0000015 47.999998)" gradientUnits="userSpaceOnUse" x1="1" x2="47">
    <stop offset="0" stop-color="#e4e4e4"/>
    <stop offset="1" stop-color="#eee"/>
  </linearGradient>
  <path d="m47 24c0 22.703-.297 23-23 23-22.703 0-23-.297-23-23 0-22.703.297-23 23-23 22.703 0 23 .297 23 23z" fill="url(#a)"/>
  <path d="m26.445 1.131c-.126.247-1.461 2.865-1.473 2.865l-.004.004c-2.657 4.877-4.315 10.09-4.611 14.631a8.5 8.5 0 0 0-2.357 5.869 8.5 8.5 0 0 0  1.84 5.27l-4.055 4.063 1.387 1.387 4.051-4.057a8.5 8.5 0 0 0 5.277 1.838 8.5 8.5 0 0 0  5.654-2.164c3.643-.418 8.2-1.925 13.824-4.883.244-.146.595-.308.969-.469.031-.491.053-.985.053-1.484 0-1.828-.22-3.602-.623-5.307-.418.489-.878 1.033-1 1.178-4.062 4.752-7.981 7.465-11.287 8.463a8.5 8.5 0 0 0  .914-3.834 8.5 8.5 0 0 0-8.5-8.5 8.5 8.5 0 0 0-1 .066c.743-3.29 2.249-7.132 4.686-11.434-.003.003.72-1.296 1.318-2.373-1.613-.557-3.305-.944-5.059-1.129zm.055 16.369a7 7 0 0 1 7 7 7 7 0 0 1-1.439 4.238c-5.02.455-8.06-3.689-6.865-11.11a7 7 0 0 1 1.305-.127zm-6.158 3.676c.318 5.428 3.02 9.395 8.9 9.756a7 7 0 0 1-2.742.568 7 7 0 0 1-7-7 7 7 0 0 1  .842-3.324zm-4.967 12.48l-4.363 4.371 1.973 1.98 4.367-4.371z" fill-opacity=".098"/>
  <path d="m24.986 1.025c-.454.888-1.01 1.971-1.014 1.971l-.004.004c-8.898 16.332-6.723 36.535 21.01 21.953.499-.298 1.322-.629 2.02-.893 0-.02.002-.04.002-.061 0-2.424-.377-4.759-1.072-6.953-.73.857-1.36 1.6-1.555 1.824-14.973 17.516-28.09 7.535-15.188-15.238-.002.002.496-.893.992-1.787-1.663-.463-3.4-.745-5.191-.82z" fill="#2f93cf"/>
  <path d="m16.352 34.637l-1.977-1.98-4.363 4.371 1.973 1.98m4.367-4.371" fill="#2e3436"/>
  <path d="m20.535 29.848l-1.387-1.387-4.363 4.371 1.387 1.387m4.363-4.371" fill="#2e3436"/>
  <path d="m24.26 16.311a8.5 8.5 0 0 0-4.934 3.634c.046 1.009.177 1.965.389 2.864a7 7 0 0 1 4.315-4.854c.05-.529.13-1.078.23-1.644zm10.439 10.418c-.629.281-1.245.511-1.838.677a7 7 0 0 1-1.863 2.448c.756-.081 1.547-.205 2.385-.385a8.5 8.5 0 0 0 1.316-2.74z" fill-opacity=".098"/>
  <path d="m25.5 15a8.5 8.5 0 0 0-8.5 8.5 8.5 8.5 0 0 0  8.5 8.5 8.5 8.5 0 0 0  8.5-8.5 8.5 8.5 0 0 0-8.5-8.5zm0 1.5a7 7 0 0 1 7 7 7 7 0 0 1-7 7 7 7 0 0 1-7-7 7 7 0 0 1  7-7z" fill="#2e3436"/>
</svg>
