<svg xmlns="http://www.w3.org/2000/svg" viewBox="0 0 48 48">
 <defs>
  <linearGradient id="linearGradient3764" x1="1" x2="47" gradientUnits="userSpaceOnUse" gradientTransform="matrix(0,-1,1,0,-1.5e-6,47.999998)">
   <stop style="stop-color:#4c433c;stop-opacity:1"/>
   <stop offset="1" style="stop-color:#574d45;stop-opacity:1"/>
  </linearGradient>
 </defs>
 <g>
  
  
  
 </g>
 <g>
  <path d="m 47,24 C 47,46.703 46.703,47 24,47 1.297,47 1,46.703 1,24 1,1.297 1.297,1 24,1 46.703,1 47,1.297 47,24 z" style="fill:url(#linearGradient3764);fill-opacity:1"/>
 </g>
 <g>
  <g>
   <g transform="translate(1,1)">
    <g style="opacity:0.1">
     <!-- color: #574d45 -->
    </g>
   </g>
  </g>
 </g>
 <g>
  <g>
   <!-- color: #574d45 -->
   <g>
    <path d="m 25 13 c -6.075 0 -11 4.701 -11 10.5 c 0 3.945 2.319 7.556 6 9.35 l 0 1.15 l -7 0 l 0 3 l 9 0 l 0 -4.93 c -2.44 -1.571 -3.998 -4.906 -4 -8.57 c -0.001 -1.238 0.179 -2.416 0.496 -3.5 l 4.504 0 l 0 12 l 4 0 l 0 -12 l 4.504 0 c 0.317 1.084 0.497 2.262 0.496 3.5 c -0.001 3.665 -1.56 7 -4 8.572 l 0 4.928 l 9 0 l 0 -3 l -7 0.006 l 0.002 -1.164 c 3.679 -1.791 6 -5.399 6 -9.342 c 0.003 -5.799 -4.925 -10.5 -11 -10.5 z m 0 1 c 2.01 0 3.819 1.158 5.096 3 l -10.191 0 c 1.277 -1.842 3.085 -3 5.096 -3 z" style="fill:#1a1a1a;opacity:0.1;fill-opacity:1;stroke:none;fill-rule:nonzero"/>
    <path d="m 24 12 c -6.075 0 -11 4.701 -11 10.5 0 3.945 2.319 7.556 6 9.35 l 0 1.15 l -7 0 0 3 9 0 0 -4.93 c -2.44 -1.571 -3.998 -4.906 -4 -8.57 -0.002 -5.247 3.134 -9.5 7 -9.5 c 3.866 0 7 4.253 7 9.5 -0.001 3.665 -1.56 7 -4 8.572 l 0 4.928 l 9 0 0 -3 -7 0.006 0.002 -1.164 c 3.679 -1.791 6 -5.399 6 -9.342 0.003 -5.799 -4.925 -10.5 -11 -10.5" style="fill:#e89708;fill-opacity:1;stroke:none;fill-rule:nonzero"/>
    <path d="m 16 16 l 16 0 l 0 3 l -6 0 l 0 12 l -4 0 l 0 -12 l -6 0 m 0 -3" style="fill:#0094de;fill-opacity:1;stroke:none;fill-rule:nonzero"/>
   </g>
  </g>
 </g>
 <g>
  
 </g>
</svg>
