<svg viewBox="0 0 48 48" xmlns="http://www.w3.org/2000/svg" xmlns:xlink="http://www.w3.org/1999/xlink">
  <linearGradient id="a" gradientTransform="matrix(0 -1 1 0 -.0000015 47.999998)" gradientUnits="userSpaceOnUse" x1="1" x2="47">
    <stop offset="0" stop-color="#4c433c"/>
    <stop offset="1" stop-color="#574d45"/>
  </linearGradient>
  <path d="m47 24c0 22.703-.297 23-23 23-22.703 0-23-.297-23-23 0-22.703.297-23 23-23 22.703 0 23 .297 23 23z" fill="url(#a)"/>
  <path d="m25 13c-6.075 0-11 4.701-11 10.5 0 3.945 2.319 7.556 6 9.35v1.15h-7v3h9v-4.93c-2.44-1.571-3.998-4.906-4-8.57-.001-1.238.179-2.416.496-3.5h4.504v12h4v-12h4.504c.317 1.084.497 2.262.496 3.5-.001 3.665-1.56 7-4 8.572v4.928h9v-3l-7 .006.002-1.164c3.679-1.791 6-5.399 6-9.342.003-5.799-4.925-10.5-11-10.5zm0 1c2.01 0 3.819 1.158 5.096 3h-10.191c1.277-1.842 3.085-3 5.096-3z" fill="#1a1a1a" opacity=".1"/>
  <path d="m24 12c-6.075 0-11 4.701-11 10.5 0 3.945 2.319 7.556 6 9.35v1.15h-7v3h9v-4.93c-2.44-1.571-3.998-4.906-4-8.57-.002-5.247 3.134-9.5 7-9.5 3.866 0 7 4.253 7 9.5-.001 3.665-1.56 7-4 8.572v4.928h9v-3l-7 .006.002-1.164c3.679-1.791 6-5.399 6-9.342.003-5.799-4.925-10.5-11-10.5" fill="#e89708"/>
  <path d="m16 16h16v3h-6v12h-4v-12h-6m0-3" fill="#0094de"/>
</svg>
