<svg viewBox="0 0 48 48" xmlns="http://www.w3.org/2000/svg" xmlns:xlink="http://www.w3.org/1999/xlink">
  <linearGradient id="a" gradientTransform="matrix(0 -1 1 0 -.0000015 47.999998)" gradientUnits="userSpaceOnUse" x1="1" x2="47">
    <stop offset="0" stop-color="#d1d1d1"/>
    <stop offset="1" stop-color="#dbdbdb"/>
  </linearGradient>
  <path d="m47 24c0 22.703-.297 23-23 23-22.703 0-23-.297-23-23 0-22.703.297-23 23-23 22.703 0 23 .297 23 23z" fill="url(#a)"/>
  <path d="m30.922 18v1.398h-.77v-1.398m.77 0" opacity=".1" transform="translate(1 1)"/>
  <path d="m13 13c-.554 0-1 .446-1 1v18c0 .554.446 1 1 1h9v2h-5v2h16v-2h-5v-2h9c .554 0 1-.446 1-1v-18c0-.554-.446-1-1-1zm1.5 2h21c .277 0 .5.223.5.5v15c0 .277-.223.5-.5.5h-21c-.277 0-.5-.223-.5-.5v-15c0-.277.223-.5.5-.5m.5 4v1h1v-1zm2 0v1h1v-1zm2 0v1h1v-1zm1.926 0v1h1v-1zm2.074 0v1h1v-1zm2 0v1h1v-1zm2 0v1h1v-1zm2 0v1h1v-1zm2 0v1h1v3h1v-4zm3 0v1h1v-1zm-19 3v1h2v-1zm3 0v1h1v-1zm1.926 0v1h1v-1zm2.074 0v1h1v-1zm2 0v1h1v-1zm2 0v1h1v-1zm2 0v1h1v-1zm2 0v1h1v-1zm4 0v1h1v-1zm-19 3v1h1v-1zm2 0v1h1v-1zm2.613 0v1h9.387v-1m1 0v1h1v-1zm2 0v1h1v-1zm2 0v1h1v-1z" opacity=".1"/>
  <path d="m12 12c-.554 0-1 .446-1 1v18c0 .554.446 1 1 1h9v2h-5v2h16v-2h-5v-2h9c .554 0 1-.446 1-1v-18c0-.554-.446-1-1-1zm1.5 2h21c .277 0 .5.223.5.5v15c0 .277-.223.5-.5.5h-21c-.277 0-.5-.223-.5-.5v-15c0-.277.223-.5.5-.5z" fill="#2d2d2d"/>
  <path d="m14 18v1h1v-1zm2 0v1h1v-1zm2 0v1h1v-1zm1.926 0v1h1v-1zm2.074 0v1h1v-1zm2 0v1h1v-1zm2 0v1h1v-1zm2 0v1h1v-1zm2 0v1h1v3h1v-4zm3 0v1h1v-1zm-19 3v1h2v-1zm3 0v1h1v-1zm1.926 0v1h1v-1zm2.074 0v1h1v-1zm2 0v1h1v-1zm2 0v1h1v-1zm2 0v1h1v-1zm2 0v1h1v-1zm4 0v1h1v-1zm-19 3v1h1v-1zm2 0v1h1v-1zm2.613 0v1h9.387v-1m1 0v1h1v-1zm2 0v1h1v-1zm2 0v1h1v-1z" fill="#d04536"/>
</svg>
