<svg viewBox="0 0 48 48" xmlns="http://www.w3.org/2000/svg" xmlns:xlink="http://www.w3.org/1999/xlink">
  <linearGradient id="a" gradientTransform="matrix(0 -1 1 0 -.0000015 47.999998)" gradientUnits="userSpaceOnUse" x1="1" x2="47">
    <stop offset="0" stop-color="#d1d1d1"/>
    <stop offset="1" stop-color="#dbdbdb"/>
  </linearGradient>
  <path d="m47 24c0 22.703-.297 23-23 23-22.703 0-23-.297-23-23 0-22.703.297-23 23-23 22.703 0 23 .297 23 23z" fill="url(#a)"/>
  <path d="m30.922 18v1.398h-.77v-1.398m.77 0" opacity=".1" transform="translate(1 1)"/>
  <path d="m13 13c-.554 0-1 .446-1 1v18c0 .554.446 1 1 1h9v2h-5v2h16v-2h-5v-2h9c .554 0 1-.446 1-1v-18c0-.554-.446-1-1-1zm1.5 2h21c .277 0 .5.223.5.5v15c0 .277-.223.5-.5.5h-21c-.277 0-.5-.223-.5-.5v-15c0-.277.223-.5.5-.5m9.5 1v9.09c-1.197.212-2 .777-2 1.412 0 .635.803 1.2 2 1.412v2.088h2v-2.088c1.197-.212 2-.777 2-1.412 0-.635-.803-1.2-2-1.412v-9.09zm-6 1v2.088c-1.197.212-2 .777-2 1.412 0 .635.803 1.2 2 1.412v7.088h2v-7.088c1.197-.212 2-.777 2-1.412 0-.635-.803-1.2-2-1.412v-2.088zm12 0v2.088c-1.197.212-2 .777-2 1.412 0 .635.803 1.2 2 1.412v7.088h2v-7.088c1.197-.212 2-.777 2-1.412 0-.635-.803-1.2-2-1.412v-2.088zm-15 2v1h .615c.088-.205.218-.39.385-.551v-.449zm6.27 0c .169.065.334.133.467.227.068.048.127.106.189.16v-.387zm1.73 0v1h .5v-1zm4 0v1h .615c.088-.205.218-.39.385-.551v-.449zm7 0v .449c.167.16.297.346.385.551h.615v-1zm-19 3v1h2v-.9c-.095-.03-.182-.065-.271-.1zm7 0v1h1v-1zm4.5 0v1h .5v-1zm1.5 0v1h1v-.9c-.095-.03-.182-.065-.271-.1zm6 0v1h1v-1zm-1 .1c-.164.051-.33.101-.5.146v.754h.5zm-12.07.021c-.141.042-.281.086-.426.125v.754h.426zm-5.926 2.879v1h1v-1zm2 0v1h .5v-1zm3.5 0v1h1.115c.131-.306.362-.572.648-.773.133-.094.298-.161.467-.227zm6.77 0c .169.065.334.133.467.227.286.202.518.467.648.773h.615v-1zm5.23 0v1h .5v-1zm1.5 0v1h1v-1z" opacity=".1"/>
  <path d="m12 12c-.554 0-1 .446-1 1v18c0 .554.446 1 1 1h9v2h-5v2h16v-2h-5v-2h9c .554 0 1-.446 1-1v-18c0-.554-.446-1-1-1zm1.5 2h21c .277 0 .5.223.5.5v15c0 .277-.223.5-.5.5h-21c-.277 0-.5-.223-.5-.5v-15c0-.277.223-.5.5-.5z" fill="#2d2d2d"/>
  <path d="m14 18v1h .615c.088-.205.218-.39.385-.551v-.449zm6.27 0c .169.065.334.133.467.227.068.048.127.106.189.16v-.387zm1.73 0v1h .5v-1zm4 0v1h .615c.088-.205.218-.39.385-.551v-.449zm7 0v .449c.167.16.297.346.385.551h.615v-1zm-19 3v1h2v-.9c-.095-.03-.182-.065-.271-.1zm7 0v1h1v-1zm4.5 0v1h .5v-1zm1.5 0v1h1v-.9c-.095-.03-.182-.065-.271-.1zm6 0v1h1v-1zm-1 .1c-.164.051-.33.101-.5.146v.754h.5zm-12.07.021c-.141.042-.281.086-.426.125v.754h.426zm-5.926 2.879v1h1v-1zm2 0v1h .5v-1zm3.5 0v1h1.115c.131-.306.362-.572.648-.773.133-.094.298-.161.467-.227zm6.77 0c .169.065.334.133.467.227.286.202.518.467.648.773h.615v-1zm5.23 0v1h .5v-1zm1.5 0v1h1v-1z" fill="#d04536"/>
  <path d="m23 15v9.09c-1.197.212-2 .777-2 1.412 0 .635.803 1.2 2 1.412v2.088h2v-2.088c1.197-.212 2-.777 2-1.412 0-.635-.803-1.2-2-1.412v-9.09m-8 1v2.088c-1.197.212-2 .777-2 1.412 0 .635.803 1.2 2 1.412v7.088h2v-7.088c1.197-.212 2-.777 2-1.412 0-.635-.803-1.2-2-1.412v-2.088m10 0v2.088c-1.197.212-2 .777-2 1.412 0 .635.803 1.2 2 1.412v7.088h2v-7.088c1.197-.212 2-.777 2-1.412 0-.635-.803-1.2-2-1.412v-2.088" fill="#2d2d2d"/>
</svg>
