<svg viewBox="0 0 48 48" xmlns="http://www.w3.org/2000/svg" xmlns:xlink="http://www.w3.org/1999/xlink">
  <linearGradient id="a" gradientTransform="matrix(0 -1 1 0 -.0000015 47.999998)" gradientUnits="userSpaceOnUse" x1="1" x2="47">
    <stop offset="0" stop-color="#9ca8b6"/>
    <stop offset="1" stop-color="#a7b2bf"/>
  </linearGradient>
  <path d="m47 24c0 22.703-.297 23-23 23-22.703 0-23-.297-23-23 0-22.703.297-23 23-23 22.703 0 23 .297 23 23z" fill="url(#a)"/>
  <g opacity=".1" transform="translate(1 1)">
    <path d="m26.848 21.18l-2.637.863v.672l1.75.137c.367.531.793 1.711 1.348 3.52-.672 1.375-1.461 2.359-2.25 2.906l-.824-1.039c-.77.195-1.23.766-1.23 1.395 0 .688.617 1.277 1.363 1.277 1.094 0 2.117-1.18 3.367-3.52.539 2.516 1.113 3.613 2.598 3.613.594 0 1.422-.199 2.535-.547v-.766c-.387.098-.73.137-1.055.137-1.289 0-1.559-1.297-2.367-4.145.672-1.438 1.402-2.32 2.133-2.656l.75 1.043c.793-.238 1.23-.805 1.23-1.492 0-.727-.5-1.258-1.211-1.258-1.094 0-2.172 1.141-3.344 3.379-.598-2.398-.945-3.516-2.023-3.516-.039 0-.094 0-.133 0m0-.004"/>
    <path d="m21.16 14.07c-.754 3.945-2.223 12.613-2.559 13.5-.398-1.891-1.762-5.598-1.977-6.102-.219.105-2.402.992-2.617 1.164.063.211.254 1.023.316 1.199l.797-.332 3.504 10.504 3.715-18h11.664v-1.996l-12.844.066m0-.004"/>
  </g>
  <path d="m26.848 21.18l-2.637.863v.672l1.75.137c.367.531.793 1.711 1.348 3.52-.672 1.375-1.461 2.359-2.25 2.906l-.824-1.039c-.77.195-1.23.766-1.23 1.395 0 .688.617 1.277 1.363 1.277 1.094 0 2.117-1.18 3.367-3.52.539 2.516 1.113 3.613 2.598 3.613.594 0 1.422-.199 2.535-.547v-.766c-.387.098-.73.137-1.055.137-1.289 0-1.559-1.297-2.367-4.145.672-1.438 1.402-2.32 2.133-2.656l.75 1.043c.793-.238 1.23-.805 1.23-1.492 0-.727-.5-1.258-1.211-1.258-1.094 0-2.172 1.141-3.344 3.379-.598-2.398-.945-3.516-2.023-3.516-.039 0-.094 0-.133 0m0-.004" fill="#f9f9f9"/>
  <path d="m21.16 14.07c-.754 3.945-2.223 12.613-2.559 13.5-.398-1.891-1.762-5.598-1.977-6.102-.219.105-2.402.992-2.617 1.164.063.211.254 1.023.316 1.199l.797-.332 3.504 10.504 3.715-18h11.664v-1.996l-12.844.066m0-.004" fill="#f9f9f9"/>
</svg>
