<svg viewBox="0 0 48 48" xmlns="http://www.w3.org/2000/svg" xmlns:xlink="http://www.w3.org/1999/xlink">
  <linearGradient id="a" gradientTransform="matrix(0 -1 1 0 -.0000015 47.999998)" gradientUnits="userSpaceOnUse" x1="1" x2="47">
    <stop offset="0" stop-color="#a4cf31"/>
    <stop offset="1" stop-color="#abd341"/>
  </linearGradient>
  <path d="m47 24c0 22.703-.297 23-23 23-22.703 0-23-.297-23-23 0-22.703.297-23 23-23 22.703 0 23 .297 23 23z" fill="url(#a)"/>
  <path d="m34 14c0 7.04 0 13.895 0 20-7.02 0-13.926 0-19.996 0 0-7.04 0-13.898 0-20 6.941 0 14.05 0 19.996 0m-2 2h-9v4h9m-11-4h-4.996v4h4.996m11 1.996h-9v4h9m-11-4h-4.996v4h4.996m11 2h-9v4h9m-11-4h-4.996v4h4.996m0-4" opacity=".1" transform="translate(1 1)"/>
  <path d="m34 14c0 7.04 0 13.895 0 20-7.02 0-13.926 0-19.996 0 0-7.04 0-13.898 0-20 6.941 0 14.05 0 19.996 0m-2 2h-9v4h9m-11-4h-4.996v4h4.996m11 1.996h-9v4h9m-11-4h-4.996v4h4.996m11 2h-9v4h9m-11-4h-4.996v4h4.996m0-4" fill="#f9f9f9"/>
</svg>
