<svg xmlns="http://www.w3.org/2000/svg" viewBox="0 0 48 48">
 <defs>
  <linearGradient id="linearGradient3764" x1="1" x2="47" gradientUnits="userSpaceOnUse" gradientTransform="matrix(0,-1,1,0,-1.5e-6,47.999998)">
   <stop style="stop-color:#f8be22;stop-opacity:1"/>
   <stop offset="1" style="stop-color:#f9c335;stop-opacity:1"/>
  </linearGradient>
 </defs>
 <g>
  
  
  
 </g>
 <g>
  <path d="m 47,24 C 47,46.703 46.703,47 24,47 1.297,47 1,46.703 1,24 1,1.297 1.297,1 24,1 46.703,1 47,1.297 47,24 z" style="fill:url(#linearGradient3764);fill-opacity:1"/>
 </g>
 <g>
  <g>
   <g transform="translate(1,1)">
    <g style="opacity:0.1">
     <!-- color: #f9c335 -->
     <g>
      <path d="m 14 34 l 0 -19.996 l 19.996 0 l 0 19.996 l -10.996 0 l 0 -9.996 l 5 0 l 0 3 l -2 0 l 0 4 l 5 0 l 0 -14 l -14 0 l 0 17 m -3 -0.004" style="fill:#000;fill-opacity:1;stroke:none;fill-rule:nonzero"/>
     </g>
    </g>
   </g>
  </g>
 </g>
 <g>
  <g>
   <!-- color: #f9c335 -->
   <g>
    <path d="m 14 34 l 0 -19.996 l 19.996 0 l 0 19.996 l -10.996 0 l 0 -9.996 l 5 0 l 0 3 l -2 0 l 0 4 l 5 0 l 0 -14 l -14 0 l 0 17 m -3 -0.004" style="fill:#f9f9f9;fill-opacity:1;stroke:none;fill-rule:nonzero"/>
   </g>
  </g>
 </g>
 <g>
  
 </g>
</svg>
