<svg xmlns="http://www.w3.org/2000/svg" viewBox="0 0 48 48">
 <defs>
  <linearGradient id="linearGradient3764" x1="1" x2="47" gradientUnits="userSpaceOnUse" gradientTransform="matrix(0,-1,1,0,-1.5e-6,47.999998)">
   <stop style="stop-color:#e4e4e4;stop-opacity:1"/>
   <stop offset="1" style="stop-color:#eee;stop-opacity:1"/>
  </linearGradient>
 </defs>
 <g>
  
  
  
 </g>
 <g>
  <path d="m 47,24 C 47,46.703 46.703,47 24,47 1.297,47 1,46.703 1,24 1,1.297 1.297,1 24,1 46.703,1 47,1.297 47,24 z" style="fill:url(#linearGradient3764);fill-opacity:1"/>
 </g>
 <g>
  <g>
   <g transform="translate(1,1)">
    <g style="opacity:0.1">
     <!-- color: #eeeeee -->
     <g>
      <path d="m 36.18 16 c -1.582 -0.023 -3.086 0.391 -4.379 1.133 c -1.012 -0.57 -2.164 -0.941 -3.398 -1.059 c -1.699 -0.156 -3.328 0.191 -4.738 0.922 c -0.016 0.008 -0.031 0.016 -0.043 0.023 c -0.035 0.027 -0.059 0.07 -0.059 0.117 c 0 0.082 0.066 0.141 0.145 0.141 c 0.008 0 0.02 0 0.027 0 c 0.004 0 0.008 -0.004 0.008 -0.004 c 0.762 -0.137 1.551 -0.176 2.359 -0.102 c 2.258 0.211 4.23 0.906 5.613 2.461 c 0.07 0.074 0.133 0.066 0.203 -0.004 c 1.742 -1.996 4.406 -2.789 7.27 -2.52 c 0.16 0.016 0.32 0.031 0.477 0.059 c 0.055 0.008 0.141 0.02 0.191 0.023 c 0.094 0.012 0.145 -0.063 0.145 -0.141 c 0 -0.063 -0.023 -0.105 -0.078 -0.129 c -0.055 -0.027 -0.109 -0.063 -0.164 -0.082 c -0.887 -0.43 -1.863 -0.699 -2.898 -0.809 c -0.227 -0.02 -0.457 -0.039 -0.684 -0.043 m 0.004 0.004" style="fill:#000;fill-opacity:1;stroke:none;fill-rule:nonzero"/>
      <path d="m 30.938 22.84 c -3.191 0 -6.141 1.012 -8.555 2.711 c -1.844 -0.82 -3.883 -1.277 -6.03 -1.277 c -3.055 0 -5.887 0.922 -8.242 2.5 c -0.004 0.004 -0.016 0.012 -0.02 0.016 c -0.055 0.039 -0.082 0.098 -0.082 0.168 c 0 0.121 0.098 0.219 0.215 0.219 c 0.016 0 0.031 -0.004 0.043 -0.004 c 0.012 0 0.02 -0.004 0.023 -0.008 c 1.352 -0.406 2.785 -0.621 4.27 -0.621 c 3.934 0 7.449 0.926 10.09 3.391 c 0.008 0.004 0.016 0.012 0.023 0.016 c 0.039 0.035 0.086 0.047 0.145 0.047 c 0.066 0 0.125 -0.02 0.164 -0.07 c 0 0 0.086 -0.113 0.129 -0.18 c 2.691 -3.641 7.121 -5.438 12.04 -5.438 c 0.352 0 0.703 0.008 1.051 0.035 c 0.098 0.004 0.313 0.023 0.316 0.023 c 0.117 0 0.215 -0.098 0.215 -0.219 c 0 -0.086 -0.051 -0.156 -0.125 -0.188 c -0.008 -0.004 -0.016 -0.008 -0.023 -0.012 c -1.742 -0.711 -3.641 -1.113 -5.633 -1.113 m -0.008 0.004" style="fill:#000;fill-opacity:1;stroke:none;fill-rule:nonzero"/>
     </g>
    </g>
   </g>
  </g>
 </g>
 <g>
  <g>
   <!-- color: #eeeeee -->
   <g>
    <path d="m 36.18 16 c -1.582 -0.023 -3.086 0.391 -4.379 1.133 c -1.012 -0.57 -2.164 -0.941 -3.398 -1.059 c -1.699 -0.156 -3.328 0.191 -4.738 0.922 c -0.016 0.008 -0.031 0.016 -0.043 0.023 c -0.035 0.027 -0.059 0.07 -0.059 0.117 c 0 0.082 0.066 0.141 0.145 0.141 c 0.008 0 0.02 0 0.027 0 c 0.004 0 0.008 -0.004 0.008 -0.004 c 0.762 -0.137 1.551 -0.176 2.359 -0.102 c 2.258 0.211 4.23 0.906 5.613 2.461 c 0.07 0.074 0.133 0.066 0.203 -0.004 c 1.742 -1.996 4.406 -2.789 7.27 -2.52 c 0.16 0.016 0.32 0.031 0.477 0.059 c 0.055 0.008 0.141 0.02 0.191 0.023 c 0.094 0.012 0.145 -0.063 0.145 -0.141 c 0 -0.063 -0.023 -0.105 -0.078 -0.129 c -0.055 -0.027 -0.109 -0.063 -0.164 -0.082 c -0.887 -0.43 -1.863 -0.699 -2.898 -0.809 c -0.227 -0.02 -0.457 -0.039 -0.684 -0.043 m 0.004 0.004" style="fill:#2d2d2d;fill-opacity:1;stroke:none;fill-rule:nonzero"/>
    <path d="m 30.938 22.84 c -3.191 0 -6.141 1.012 -8.555 2.711 c -1.844 -0.82 -3.883 -1.277 -6.03 -1.277 c -3.055 0 -5.887 0.922 -8.242 2.5 c -0.004 0.004 -0.016 0.012 -0.02 0.016 c -0.055 0.039 -0.082 0.098 -0.082 0.168 c 0 0.121 0.098 0.219 0.215 0.219 c 0.016 0 0.031 -0.004 0.043 -0.004 c 0.012 0 0.02 -0.004 0.023 -0.008 c 1.352 -0.406 2.785 -0.621 4.27 -0.621 c 3.934 0 7.449 0.926 10.09 3.391 c 0.008 0.004 0.016 0.012 0.023 0.016 c 0.039 0.035 0.086 0.047 0.145 0.047 c 0.066 0 0.125 -0.02 0.164 -0.07 c 0 0 0.086 -0.113 0.129 -0.18 c 2.691 -3.641 7.121 -5.438 12.04 -5.438 c 0.352 0 0.703 0.008 1.051 0.035 c 0.098 0.004 0.313 0.023 0.316 0.023 c 0.117 0 0.215 -0.098 0.215 -0.219 c 0 -0.086 -0.051 -0.156 -0.125 -0.188 c -0.008 -0.004 -0.016 -0.008 -0.023 -0.012 c -1.742 -0.711 -3.641 -1.113 -5.633 -1.113 m -0.008 0.004" style="fill:#2d2d2d;fill-opacity:1;stroke:none;fill-rule:nonzero"/>
   </g>
  </g>
 </g>
 <g>
  
 </g>
</svg>
