<svg viewBox="0 0 48 48" xmlns="http://www.w3.org/2000/svg" xmlns:xlink="http://www.w3.org/1999/xlink">
  <linearGradient id="a" gradientTransform="matrix(0 -1 1 0 -.0000015 47.999998)" gradientUnits="userSpaceOnUse" x1="1" x2="47">
    <stop offset="0" stop-color="#e4e4e4"/>
    <stop offset="1" stop-color="#eee"/>
  </linearGradient>
  <path d="m47 24c0 22.703-.297 23-23 23-22.703 0-23-.297-23-23 0-22.703.297-23 23-23 22.703 0 23 .297 23 23z" fill="url(#a)"/>
  <g opacity=".1" transform="translate(1 1)">
    <path d="m36.18 16c-1.582-.023-3.086.391-4.379 1.133-1.012-.57-2.164-.941-3.398-1.059-1.699-.156-3.328.191-4.738.922-.016.008-.031.016-.043.023-.035.027-.059.07-.059.117 0 .082.066.141.145.141.008 0 .02 0 .027 0 .004 0 .008-.004.008-.004.762-.137 1.551-.176 2.359-.102 2.258.211 4.23.906 5.613 2.461.07.074.133.066.203-.004 1.742-1.996 4.406-2.789 7.27-2.52.16.016.32.031.477.059.055.008.141.02.191.023.094.012.145-.063.145-.141 0-.063-.023-.105-.078-.129-.055-.027-.109-.063-.164-.082-.887-.43-1.863-.699-2.898-.809-.227-.02-.457-.039-.684-.043m.004.004"/>
    <path d="m30.938 22.84c-3.191 0-6.141 1.012-8.555 2.711-1.844-.82-3.883-1.277-6.03-1.277-3.055 0-5.887.922-8.242 2.5-.004.004-.016.012-.02.016-.055.039-.082.098-.082.168 0 .121.098.219.215.219.016 0 .031-.004.043-.004.012 0 .02-.004.023-.008 1.352-.406 2.785-.621 4.27-.621 3.934 0 7.449.926 10.09 3.391.008.004.016.012.023.016.039.035.086.047.145.047.066 0 .125-.02.164-.07 0 0 .086-.113.129-.18 2.691-3.641 7.121-5.438 12.04-5.438.352 0 .703.008 1.051.035.098.004.313.023.316.023.117 0 .215-.098.215-.219 0-.086-.051-.156-.125-.188-.008-.004-.016-.008-.023-.012-1.742-.711-3.641-1.113-5.633-1.113m-.008.004"/>
  </g>
  <path d="m36.18 16c-1.582-.023-3.086.391-4.379 1.133-1.012-.57-2.164-.941-3.398-1.059-1.699-.156-3.328.191-4.738.922-.016.008-.031.016-.043.023-.035.027-.059.07-.059.117 0 .082.066.141.145.141.008 0 .02 0 .027 0 .004 0 .008-.004.008-.004.762-.137 1.551-.176 2.359-.102 2.258.211 4.23.906 5.613 2.461.07.074.133.066.203-.004 1.742-1.996 4.406-2.789 7.27-2.52.16.016.32.031.477.059.055.008.141.02.191.023.094.012.145-.063.145-.141 0-.063-.023-.105-.078-.129-.055-.027-.109-.063-.164-.082-.887-.43-1.863-.699-2.898-.809-.227-.02-.457-.039-.684-.043m.004.004" fill="#2d2d2d"/>
  <path d="m30.938 22.84c-3.191 0-6.141 1.012-8.555 2.711-1.844-.82-3.883-1.277-6.03-1.277-3.055 0-5.887.922-8.242 2.5-.004.004-.016.012-.02.016-.055.039-.082.098-.082.168 0 .121.098.219.215.219.016 0 .031-.004.043-.004.012 0 .02-.004.023-.008 1.352-.406 2.785-.621 4.27-.621 3.934 0 7.449.926 10.09 3.391.008.004.016.012.023.016.039.035.086.047.145.047.066 0 .125-.02.164-.07 0 0 .086-.113.129-.18 2.691-3.641 7.121-5.438 12.04-5.438.352 0 .703.008 1.051.035.098.004.313.023.316.023.117 0 .215-.098.215-.219 0-.086-.051-.156-.125-.188-.008-.004-.016-.008-.023-.012-1.742-.711-3.641-1.113-5.633-1.113m-.008.004" fill="#2d2d2d"/>
</svg>
