<svg xmlns="http://www.w3.org/2000/svg" viewBox="0 0 48 48">
 <defs>
  <linearGradient id="linearGradient3764" x1="1" x2="47" gradientUnits="userSpaceOnUse" gradientTransform="matrix(0,-1,1,0,-1.5e-6,47.999998)">
   <stop style="stop-color:#ca251c;stop-opacity:1"/>
   <stop offset="1" style="stop-color:#db281f;stop-opacity:1"/>
  </linearGradient>
 </defs>
 <g>
  
  
  
 </g>
 <g>
  <path d="m 47,24 C 47,46.703 46.703,47 24,47 1.297,47 1,46.703 1,24 1,1.297 1.297,1 24,1 46.703,1 47,1.297 47,24 z" style="fill:url(#linearGradient3764);fill-opacity:1"/>
 </g>
 <g>
  
 </g>
 <path d="m 23.535 12.01 c 3.362 3.659 8.372 7.902 8.52 12.367 0.044 1.343 -0.15 2.766 -0.787 3.23 l -5.996 -6.32 2.537 -2.658 -0.955 -0.973 -4.744 0.293 -5.699 5.02 3.326 3.402 2.504 -2.072 5.963 6.352 c -0.851 0.568 -1.715 0.769 -2.898 0.811 -2.935 0.103 -4.875 -3.306 -5.633 -3.371 -0.427 -0.046 -0.696 0.23 -0.988 0.615 l -1.318 0.031 c -0.537 0.288 -0.629 0.457 -0.691 0.617 l 0 0.809 c -1.09 0.616 -2.164 1.051 -3.295 2.107 -0.929 0.943 -1.297 1.986 -0.328 3.01 1.046 1.106 1.922 0.768 2.635 0.266 1.231 -0.867 2.169 -2.082 2.998 -3.404 2.442 3.295 5.652 3.809 7.148 3.857 3.173 0.103 4.03 -0.843 5.83 -1.361 l 1.516 1.361 3.229 -3.01 -1.746 -1.783 c 1.3 -1.797 1.871 -3.634 1.846 -5.51 c -0.112 -8.263 -8.981 -12.749 -12.971 -13.686" style="fill:#000;opacity:0.1;fill-opacity:1;stroke:none"/>
 <path d="m 22.535 11.01 c 3.362 3.659 8.372 7.902 8.52 12.367 0.044 1.343 -0.15 2.766 -0.787 3.23 l -5.996 -6.32 2.537 -2.658 -0.955 -0.973 -4.744 0.293 -5.699 5.02 3.326 3.402 2.504 -2.072 5.963 6.352 c -0.851 0.568 -1.715 0.769 -2.898 0.811 -2.935 0.103 -4.875 -3.306 -5.633 -3.371 -0.427 -0.046 -0.696 0.23 -0.988 0.615 l -1.318 0.031 c -0.537 0.288 -0.629 0.457 -0.691 0.617 l 0 0.809 c -1.09 0.616 -2.184 1.03 -3.295 2.107 -0.95 0.922 -1.297 1.986 -0.328 3.01 1.046 1.106 1.922 0.768 2.635 0.266 1.231 -0.867 2.169 -2.082 2.998 -3.404 2.442 3.295 5.652 3.809 7.148 3.857 3.173 0.103 4.03 -0.843 5.83 -1.361 l 1.516 1.361 3.229 -3.01 -1.746 -1.783 c 1.3 -1.797 1.871 -3.634 1.846 -5.51 c -0.112 -8.263 -8.981 -12.749 -12.971 -13.686" style="fill:#fc0;fill-opacity:1;stroke:none"/>
</svg>
