<svg xmlns="http://www.w3.org/2000/svg" viewBox="0 0 48 48">
 <defs>
  <linearGradient id="linearGradient3764" x1="1" x2="47" gradientUnits="userSpaceOnUse" gradientTransform="matrix(0,-1,1,0,-1.5e-6,47.999998)">
   <stop style="stop-color:#6da543;stop-opacity:1"/>
   <stop offset="1" style="stop-color:#75b249;stop-opacity:1"/>
  </linearGradient>
 </defs>
 <g>
  
  
  
 </g>
 <g>
  <path d="m 47,24 C 47,46.703 46.703,47 24,47 1.297,47 1,46.703 1,24 1,1.297 1.297,1 24,1 46.703,1 47,1.297 47,24 z" style="fill:url(#linearGradient3764);fill-opacity:1"/>
  <path d="m 18 1.795 c -1.759 0.474 -3.435 1.148 -5 2 l 0 21.2 c 0 6.629 5.371 12 12 12 c 6.629 0 12 -5.371 12 -12 c 0 -6.629 -5.371 -12 -12 -12 l 0 5 c 3.867 0 7 3.133 7 7 c 0 3.867 -3.133 7 -7 7 c -3.867 0 -7 -3.133 -7 -7 l 0 -23.21 z" style="fill:#000;fill-opacity:0.098"/>
  <path d="m 17 2.088 c -1.769 0.565 -3.446 1.336 -5 2.289 l 0 19.623 c 0 6.629 5.371 12 12 12 c 6.629 0 12 -5.371 12 -12 c 0 -6.629 -5.371 -12 -12 -12 l 0 5 c 3.867 0 7 3.133 7 7 c 0 3.867 -3.133 7 -7 7 c -3.867 0 -7 -3.133 -7 -7 l 0 -21.912 z" style="fill:#def4e4;fill-opacity:1"/>
 </g>
 <g>
  <g>
   <g transform="translate(1,1)">
    <g style="opacity:0.1">
     <!-- color: #75b249 -->
    </g>
   </g>
  </g>
 </g>
 <g>
  <g>
   <!-- color: #75b249 -->
  </g>
 </g>
 <g>
  
 </g>
</svg>
