<svg viewBox="0 0 48 48" xmlns="http://www.w3.org/2000/svg" xmlns:xlink="http://www.w3.org/1999/xlink">
  <linearGradient id="a" gradientTransform="matrix(0 -1 1 0 -.0000015 47.999998)" gradientUnits="userSpaceOnUse" x1="1" x2="47">
    <stop offset="0" stop-color="#e4e4e4"/>
    <stop offset="1" stop-color="#eee"/>
  </linearGradient>
  <path d="m47 24c0 22.703-.297 23-23 23-22.703 0-23-.297-23-23 0-22.703.297-23 23-23 22.703 0 23 .297 23 23z" fill="url(#a)"/>
  <g fill-opacity=".098" transform="translate(1 1)">
    <path d="m24 21a3 3 0 0 0-3 3 3 3 0 0 0  3 3 3 3 0 0 0  3-3 3 3 0 0 0-3-3zm0 1a2 2 0 0 1 2 2 2 2 0 0 1-2 2 2 2 0 0 1-2-2 2 2 0 0 1  2-2z" fill-rule="evenodd"/>
    <circle cx="14" cy="24" r="5"/>
    <circle cx="24" cy="14" r="5"/>
    <circle cx="24" cy="34" r="5"/>
    <circle cx="34" cy="24" r="5"/>
  </g>
  <path d="m24 21a3 3 0 0 0-3 3 3 3 0 0 0  3 3 3 3 0 0 0  3-3 3 3 0 0 0-3-3zm0 1a2 2 0 0 1 2 2 2 2 0 0 1-2 2 2 2 0 0 1-2-2 2 2 0 0 1  2-2z" fill="#333" fill-rule="evenodd"/>
  <circle cx="14" cy="24" fill="#20c834" r="5"/>
  <circle cx="24" cy="14" fill="#fb7c2e" r="5"/>
  <circle cx="24" cy="34" fill="#f22695" r="5"/>
  <circle cx="34" cy="24" fill="#27b1c1" r="5"/>
</svg>
