<svg xmlns="http://www.w3.org/2000/svg" viewBox="0 0 48 48">
 <defs>
  <linearGradient id="linearGradient3845" y1="47" x2="0" y2="1" gradientUnits="userSpaceOnUse">
   <stop style="stop-color:#6fa2b4;stop-opacity:1"/>
   <stop offset="1" style="stop-color:#7dabbb;stop-opacity:1"/>
  </linearGradient>
 </defs>
 <g>
  
  
  
 </g>
 <g>
  <path d="m 24 1 c 22.703 0 23 0.297 23 23 c 0 22.703 -0.297 23 -23 23 -22.703 0 -23 -0.297 -23 -23 0 -22.703 0.297 -23 23 -23 z" style="fill:url(#linearGradient3845);fill-opacity:1"/>
 </g>
 <g>
  
 </g>
 <g transform="translate(0,-1)">
  <g>
   <g>
    <g>
     <path d="m 25 17 -13 7 13 7 13 -7 -13 -7 z m 12 8.539 -2 1.076 0 6.924 1.1 -2.699 l 0.9 1.301 0 -6.602 m -21 1.615 0 3.996 9 4.85 9 -4.85 0 -3.996 -9 4.846 -9 -4.846" style="fill:#000;opacity:1;fill-opacity:0.098;stroke:none;fill-rule:nonzero"/>
     <path d="m 11 23 13 -7 13 7 -13 7 z" style="fill:#4d4d4d;opacity:1;fill-opacity:1;stroke:none;fill-rule:nonzero"/>
     <path d="m 33 26.15 -9 4.846 -9 -4.846 0 3.996 9 4.85 9 -4.85" style="fill:#4d4d4d;opacity:1;fill-opacity:1;stroke:none;fill-rule:nonzero"/>
     <ellipse cx="24.1" cy="23" rx="1.5" ry="1" style="fill:#b3b3b3;opacity:1;fill-opacity:1;stroke:none;fill-rule:nonzero"/>
    </g>
   </g>
  </g>
  <path d="m 36 24.54 -2 1.076 0 6.924 1.1 -2.7 0.9 1.3 z" style="fill:#de3f3f;opacity:1;fill-opacity:1;stroke:none;fill-rule:nonzero"/>
 </g>
</svg>
