<svg viewBox="0 0 48 48" xmlns="http://www.w3.org/2000/svg" xmlns:xlink="http://www.w3.org/1999/xlink">
  <linearGradient id="a" gradientTransform="matrix(0 -1 1 0 0 48)" gradientUnits="userSpaceOnUse" x1="1" x2="47">
    <stop offset="0" stop-color="#788091"/>
    <stop offset="1" stop-color="#828a9a"/>
  </linearGradient>
  <path d="m1 24c0-22.703.297-23 23-23 22.703 0 23 .297 23 23 0 22.703-.297 23-23 23-22.703 0-23-.297-23-23z" fill="url(#a)"/>
  <path d="m15.875 12c-.492 0-.875.383-.875.875v24.25c0 .492.383.875.875.875h18.25c.492 0 .875-.383.875-.875v-20.12l-5-5c0 0-13.713-.005-14.12-.005m8.03 7c2.494.586 8.02 3.398 8.094 8.563.016 1.172-.344 2.314-1.156 3.438l1.094 1.125-2.031 1.875-.938-.844c-1.126.324-1.642.909-3.625.844-.935-.03-2.943-.347-4.469-2.406-.518.827-1.106 1.583-1.875 2.125-.446.314-1 .536-1.656-.156-.606-.64-.376-1.328.219-1.906.694-.674 1.35-.928 2.031-1.313v-.5c.039-.1.102-.195.438-.375l.844-.031c.182-.24.327-.404.594-.375.474.041 1.697 2.159 3.531 2.094.74-.026 1.281-.145 1.813-.5l-3.719-3.969-1.563 1.281-2.094-2.125 3.563-3.125 2.969-.188.594.594-1.594 1.688 3.75 3.938c.398-.29.528-1.191.5-2.031-.092-2.79-3.211-5.432-5.313-7.719z" opacity=".1"/>
  <path d="m17 18h11v-2h-11m0 2" opacity=".1"/>
  <path d="m17 35h16v-2h-16m0 2" opacity=".1"/>
  <path d="m14.875 11c-.492 0-.875.383-.875.875v24.25c0 .492.383.875.875.875h18.25c.492 0 .875-.383.875-.875v-20.12l-5-5zm8.03 7c2.494.586 8.02 3.398 8.094 8.563.016 1.172-.344 2.314-1.156 3.438l1.094 1.125-2.031 1.875-.938-.844c-1.126.324-1.642.909-3.625.844-.935-.03-2.943-.347-4.469-2.406-.518.827-1.106 1.583-1.875 2.125-.446.314-1 .536-1.656-.156-.606-.64-.376-1.328.219-1.906.694-.674 1.35-.928 2.031-1.313v-.5c.039-.1.102-.195.438-.375l.844-.031c.182-.24.327-.404.594-.375.474.041 1.697 2.159 3.531 2.094.74-.026 1.281-.145 1.813-.5l-3.719-3.969-1.563 1.281-2.094-2.125 3.563-3.125 2.969-.188.594.594-1.594 1.688 3.75 3.938c.398-.29.528-1.191.5-2.031-.092-2.79-3.211-5.432-5.313-7.719z" fill="#dabd76"/>
  <path d="m29 11v5h5m-5-5" fill="#fff" fill-opacity=".199"/>
  <path d="m34 21v-5h-5m5 5" fill-opacity=".2"/>
</svg>
