<svg viewBox="0 0 48 48" xmlns="http://www.w3.org/2000/svg" xmlns:xlink="http://www.w3.org/1999/xlink">
  <linearGradient id="a" gradientUnits="userSpaceOnUse" x2="0" y1="47" y2="1">
    <stop offset="0" stop-color="#6aacd6"/>
    <stop offset="1" stop-color="#7ab5da"/>
  </linearGradient>
  <path d="m24 1c22.703 0 23 .297 23 23 0 22.703-.297 23-23 23-22.703 0-23-.297-23-23 0-22.703.297-23 23-23z" fill="url(#a)"/>
  <g transform="matrix(-1 0 0 1 49 1)">
    <path d="m29 12v16h7l-1 1h-.166016l-2.833984 5h-10l-10-5h-1l-1-1h10v-1c0-10 9-15 9-15z" opacity=".1"/>
    <path d="m10 28l1 1h .166l2.834 5h10l10-5h1l1-1z" fill="#545454" transform="matrix(-1 0 0 1 47 -1)"/>
    <path d="m30 11v16h-9v-1c0-10 9-15 9-15z" fill="#f5f5ef"/>
  </g>
</svg>
