<svg viewBox="0 0 48 48" xmlns="http://www.w3.org/2000/svg" xmlns:xlink="http://www.w3.org/1999/xlink">
  <linearGradient id="a" gradientTransform="matrix(0 -1 1 0 -.0000015 47.999998)" gradientUnits="userSpaceOnUse" x1="1" x2="47">
    <stop offset="0" stop-color="#606060"/>
    <stop offset="1" stop-color="#6a6a6a"/>
  </linearGradient>
  <path d="m47 24c0 22.703-.297 23-23 23-22.703 0-23-.297-23-23 0-22.703.297-23 23-23 22.703 0 23 .297 23 23z" fill="url(#a)"/>
  <path d="m25.21 11c-3.784-.056-7.43 1.423-10.11 4.1-5.467 5.467-5.467 14.331 0 19.799l1.42-1.42c-2.251-2.248-3.517-5.299-3.52-8.48 0-6.627 5.373-12 12-12 2.118.006 4.197.573 6.03 1.643-.016.119-.024.238-.025.357 0 1.657 1.343 3 3 3 .222-.001.444-.026.66-.076 1.511 2.051 2.331 4.529 2.34 7.08-.003 3.182-1.269 6.232-3.52 8.48l1.42 1.42c2.655-2.655 4.132-6.266 4.1-10.02-.028-2.887-.949-5.695-2.635-8.04.41-.526.634-1.173.635-1.84 0-1.657-1.343-3-3-3-.778 0-1.526.303-2.086.844-2.046-1.169-4.353-1.802-6.709-1.842zm-.206 8.998c-2.761 0-5 2.239-5 5 0 2.761 2.239 5 5 5 2.761 0 5-2.239 5-5 0-2.761-2.239-5-5-5zm-5.999 14v5h4v-5zm5 0v3h2v1h-2v1h3v-3h-2v-1h2v-1zm4 0v5h3v-1h-2v-3h2v-1zm-8 1h2v3h-2z" opacity=".1"/>
  <path d="m24.21 10a14 14 0 0 0-10.11 4.1 14 14 0 0 0  0 19.799l1.42-1.42a12 12 0 0 1-3.52-8.48 12 12 0 0 1  12-12 12 12 0 0 1  8.48 3.521l1.42-1.42a14 14 0 0 0-9.695-4.1z" fill="#5c90fc"/>
  <path d="m33.725 13.929l-1.398 1.449a12 12 0 0 1 3.674 8.621 12 12 0 0 1-3.52 8.48l1.42 1.42a14 14 0 0 0 4.1-10.02 14 14 0 0 0-4.275-9.949" fill="#444"/>
  <path d="m27.536 20.464c1.263 1.263 1.756 3.104 1.294 4.83-.462 1.725-1.81 3.073-3.536 3.536-1.725.462-3.567-.031-4.83-1.294 1.536-3.536 3.46-5.621 7.07-7.07" fill="#8d8d8d"/>
  <path d="m20.465 27.536c-1.953-1.953-1.953-5.118 0-7.07 1.953-1.953 5.118-1.953 7.07 0-2.357 2.357-4.714 4.714-7.07 7.07z" fill="#999"/>
  <path d="m18 33v5c1.333 0 2.667 0 4 0 0-1.667 0-3.333 0-5-1.333 0-2.667 0-4 0zm5 0c0 1 0 2 0 3h2v1h-2v1h3c0-1 0-2 0-3h-2v-1h2v-1zm4 0c0 1.667 0 3.333 0 5h3v-1h-2v-3h2v-1zm-8 1h2v3h-2z" fill="#5c90fc"/>
  <path d="m33.725 13.93l-1.398 1.449a12 12 0 0 1 2.029 2.596 3 3 0 0 0  1.807-.898 14 14 0 0 0-2.438-3.146z" opacity=".1"/>
  <circle cx="33" cy="14" fill="#5c90fc" r="3"/>
</svg>
