<svg xmlns="http://www.w3.org/2000/svg" viewBox="0 0 48 48">
 <defs>
  <linearGradient id="linearGradient3945" gradientUnits="userSpaceOnUse" gradientTransform="matrix(0,-1,1,0,-1.5e-6,47.999998)" x1="1" x2="47">
   <stop style="stop-color:#3d3d3d;stop-opacity:1"/>
   <stop offset="1" style="stop-color:#474747;stop-opacity:1"/>
  </linearGradient>
 </defs>
 
 
 
 <path d="M 24,1 C 46.703,1 47,1.297 47,24 47,46.703 46.703,47 24,47 1.297,47 1,46.703 1,24 1,1.297 1.297,1 24,1 z" style="fill:url(#linearGradient3945);fill-opacity:1"/>
 <path d="m 28 12 c -10 0 -15 7 -15 13 c 0 6 5 13 15 13 c -6 -3.569 -9 -7 -9 -13 c 0 -6 3 -9.431 9 -13 z m -2 4 c 0.583 1.353 1.464 2.865 1.281 5.219 c -1.962 -0.79 -4.912 -0.905 -7.563 1.875 c 1.465 0.172 3.208 0.163 5.156 1.5 c -1.672 1.3 -3.242 3.802 -2.156 7.5 c 0.876 -1.176 1.738 -2.7 3.844 -3.719 c 0.288 2.099 1.688 4.716 5.438 5.625 c -0.583 -1.353 -1.464 -2.865 -1.281 -5.219 c 1.962 0.79 4.912 0.905 7.563 -1.875 c -1.465 -0.172 -3.208 -0.163 -5.156 -1.5 c 1.672 -1.3 3.242 -3.802 2.156 -7.5 c -0.876 1.176 -1.738 2.7 -3.844 3.719 c -0.288 -2.099 -1.688 -4.716 -5.438 -5.625 z" style="fill:#000;opacity:0.1;fill-opacity:1;stroke:none"/>
 
 <path d="m 27 11 c -10 0 -15 7 -15 13 c 0 6 5 13 15 13 c -6 -3.569 -9 -7 -9 -13 c 0 -6 3 -9.431 9 -13 z" style="fill:#352217;opacity:1;fill-opacity:1;stroke:none"/>
 <path d="M 27,11 C 17,11 12,18 12,24 12,30 17,37 27,37 19,35 15,30 15,24 15,18 19,13 27,11 z" style="fill:#aba674;opacity:1;fill-opacity:1;stroke:none"/>
 <path d="m 21.706 31.1 c -1.341 -4.567 1.375 -7.366 3.321 -8.247 l 2.973 1.149 c -4.155 2.804 -5.452 4.999 -6.294 7.098 z" style="fill:#352217;fill-opacity:1;stroke:none"/>
 <path d="m 34.29 16.902 c 1.341 4.567 -1.375 7.366 -3.321 8.247 l -2.973 -1.149 c 4.155 -2.804 5.452 -4.999 6.294 -7.098 z" style="fill:#352217;fill-opacity:1;stroke:none"/>
 <path d="m 25 15 c 4.626 1.122 5.692 4.874 5.482 7 l -2.482 2 c -0.35 -5 -1.603 -7.222 -3 -9 z" style="fill:#352217;fill-opacity:1;stroke:none"/>
 <path d="m 28 24 0 -4 c 0 -2 -0.809 -3.236 -3 -5 0.61 1.414 1.566 3 1.27 5.54 z" style="fill:#71b8d0;fill-opacity:1;stroke:none"/>
 <path d="m 28 24 3.464 -2 c 1.732 -1 2.398 -2.319 2.83 -5.098 -0.92 1.235 -1.815 2.856 -4.163 3.87 z" style="fill:#aba674;fill-opacity:1;stroke:none"/>
 <path d="m 31 33 c -4.626 -1.122 -5.692 -4.874 -5.482 -7 l 2.482 -2 c 0.35 5 1.603 7.222 3 9 z" style="fill:#be71d0;fill-opacity:1;stroke:none"/>
 <path d="m 28 24 0 4 c 0 2 0.809 3.236 3 5 -0.61 -1.414 -1.566 -3 -1.27 -5.54 z" style="fill:#71b8d0;fill-opacity:1;stroke:none"/>
 <path d="m 31 33 c -4.626 -1.122 -5.692 -4.874 -5.482 -7 l 2.482 -2 c 0.35 5 1.603 7.222 3 9 z" style="fill:#352217;fill-opacity:1;stroke:none"/>
 <path d="m 18.706 22.1 c 3.284 -3.445 7.07 -2.493 8.803 -1.247 l 0.491 3.149 c -4.506 -2.197 -7.06 -2.222 -9.294 -1.902 z" style="fill:#352217;fill-opacity:1;stroke:none"/>
 <path d="m 28 24 -3.464 2 c -1.732 1 -2.398 2.319 -2.83 5.098 0.92 -1.235 1.815 -2.856 4.163 -3.87 z" style="fill:#aba674;fill-opacity:1;stroke:none"/>
 <path d="m 28 24 -3.464 -2 c -1.732 -1 -3.207 -0.917 -5.83 0.098 1.53 0.179 3.381 0.144 5.433 1.67 z" style="fill:#aba674;fill-opacity:1;stroke:none"/>
 <path d="m 28 24 0 -4 c 0 -2 -0.809 -3.236 -3 -5 0.61 1.414 1.566 3 1.27 5.54 z" style="fill:#aba674;opacity:1;fill-opacity:1;stroke:none"/>
 <path d="m 37.29 25.902 c -3.284 3.445 -7.07 2.493 -8.803 1.247 l -0.491 -3.149 c 4.506 2.197 7.06 2.222 9.294 1.902 z" style="fill:#352217;fill-opacity:1;stroke:none"/>
 <path d="m 28 24 3.464 2 c 1.732 1 3.207 0.917 5.83 -0.098 -1.53 -0.179 -3.381 -0.144 -5.433 -1.67 z" style="fill:#aba674;fill-opacity:1;stroke:none"/>
 <path d="m 28 24 0 4 c 0 2 0.809 3.236 3 5 -0.61 -1.414 -1.566 -3 -1.27 -5.54 z" style="fill:#aba674;fill-opacity:1;stroke:none"/>
</svg>
