<svg xmlns="http://www.w3.org/2000/svg" viewBox="0 0 48 48">
 <defs>
  <linearGradient id="linearGradient3764" x1="1" x2="47" gradientUnits="userSpaceOnUse" gradientTransform="matrix(0,-1,1,0,-1.5e-6,47.999998)">
   <stop style="stop-color:#cecece;stop-opacity:1"/>
   <stop offset="1" style="stop-color:#d8d8d8;stop-opacity:1"/>
  </linearGradient>
 </defs>
 <g>
  
  
  
 </g>
 <g>
  <path d="m 47,24 C 47,46.703 46.703,47 24,47 1.297,47 1,46.703 1,24 1,1.297 1.297,1 24,1 46.703,1 47,1.297 47,24 z" style="fill:url(#linearGradient3764);fill-opacity:1"/>
 </g>
 <g>
  <g>
   <g transform="translate(1,1)">
    <g style="opacity:0.1">
     <!-- color: #d8d8d8 -->
     <g>
      <path d="M 10 24 L 24 10 L 38 24 L 24 38 Z M 10 24 " style="fill:#000;fill-opacity:1;stroke:none;fill-rule:nonzero"/>
     </g>
    </g>
   </g>
  </g>
 </g>
 <g>
  <g>
   <!-- color: #d8d8d8 -->
   <g>
    <path d="M 10,24 24,10 38,24 24,38 Z m 0,0" style="fill:#fb7600;fill-opacity:1;stroke:none;fill-rule:nonzero"/>
    <path d="m 29,26.57 c 0,0.867 -0.379,1.586 -1.129,2.152 -0.75,0.559 -1.523,0.914 -2.871,1.063 l 0,2.215 -2,0 0,-2.133 c -0.824,0 -1.324,-0.051 -2.098,-0.16 C 20.129,29.594 19.496,29.437 19,29.238 l 0,-1.492 c 0.613,0.238 1.316,0.434 2.113,0.582 0.801,0.148 1.23,0.223 1.887,0.223 l 0,-4.211 c -1.508,-0.414 -2.273,-0.895 -2.883,-1.441 -0.605,-0.547 -0.906,-1.258 -0.906,-2.125 0,-0.832 0.375,-1.52 1.117,-2.055 0.75,-0.535 1.441,-0.863 2.672,-0.977 L 23,16 l 2,0 0,1.723 c 1.355,0.031 2.387,0.266 3.645,0.707 l -0.574,1.254 c -1.098,-0.375 -1.938,-0.602 -3.074,-0.668 l 0,4.148 c 1.156,0.32 1.746,0.629 2.32,0.938 0.574,0.297 0.996,0.645 1.27,1.039 0.277,0.391 0.41,0.863 0.41,1.426 m -1.879,0.125 c 0,-0.457 -0.168,-0.828 -0.5,-1.109 -0.32,-0.289 -0.68,-0.57 -1.621,-0.852 l 0,3.723 c 1.602,-0.191 2.121,-0.781 2.121,-1.762 m -6.04,-5.941 c 0,0.484 0.168,0.875 0.496,1.168 0.332,0.293 0.613,0.57 1.426,0.832 l 0,-3.703 c -0.727,0.102 -0.98,0.305 -1.359,0.602 -0.375,0.297 -0.563,0.66 -0.563,1.105" style="fill:#f9f9f9;fill-opacity:1;stroke:none;fill-rule:nonzero"/>
   </g>
  </g>
 </g>
 <g>
  
 </g>
</svg>
