<svg xmlns="http://www.w3.org/2000/svg" viewBox="0 0 48 48">
 <defs>
  <linearGradient id="linearGradient4238" x1="1" x2="47" gradientUnits="userSpaceOnUse" gradientTransform="matrix(0,-1,1,0,0,48)">
   <stop style="stop-color:#788091;stop-opacity:1"/>
   <stop offset="1" style="stop-color:#828a9a;stop-opacity:1"/>
  </linearGradient>
 </defs>
 <g>
  
  
  
 </g>
 <path d="M 1,24 C 1,1.297 1.297,1 24,1 46.703,1 47,1.297 47,24 47,46.703 46.703,47 24,47 1.297,47 1,46.703 1,24 z" style="fill:url(#linearGradient4238);fill-opacity:1"/>
 <path d="m 15.875 12 c -0.492 0 -0.875 0.383 -0.875 0.875 l 0 24.25 c 0 0.492 0.383 0.875 0.875 0.875 l 18.25 0 c 0.492 0 0.875 -0.383 0.875 -0.875 l 0 -20.12 -5 -5 c 0 0 -13.713 -0.005 -14.12 -0.005 m 8.03 7 c 2.494 0.586 8.02 3.398 8.094 8.563 0.016 1.172 -0.344 2.314 -1.156 3.438 l 1.094 1.125 -2.031 1.875 -0.938 -0.844 c -1.126 0.324 -1.642 0.909 -3.625 0.844 -0.935 -0.03 -2.943 -0.347 -4.469 -2.406 -0.518 0.827 -1.106 1.583 -1.875 2.125 -0.446 0.314 -1 0.536 -1.656 -0.156 -0.606 -0.64 -0.376 -1.328 0.219 -1.906 0.694 -0.674 1.35 -0.928 2.031 -1.313 l 0 -0.5 c 0.039 -0.1 0.102 -0.195 0.438 -0.375 l 0.844 -0.031 c 0.182 -0.24 0.327 -0.404 0.594 -0.375 0.474 0.041 1.697 2.159 3.531 2.094 0.74 -0.026 1.281 -0.145 1.813 -0.5 l -3.719 -3.969 -1.563 1.281 -2.094 -2.125 3.563 -3.125 l 2.969 -0.188 0.594 0.594 -1.594 1.688 3.75 3.938 c 0.398 -0.29 0.528 -1.191 0.5 -2.031 -0.092 -2.79 -3.211 -5.432 -5.313 -7.719 z" style="fill:#000;opacity:0.1;fill-opacity:1;stroke:none;fill-rule:nonzero"/>
 <path d="m 17 18 11 0 0 -2 -11 0 m 0 2" style="fill:#000;opacity:0.1;fill-opacity:1;stroke:none;fill-rule:nonzero"/>
 <path d="m 17 35 16 0 0 -2 -16 0 m 0 2" style="fill:#000;opacity:0.1;fill-opacity:1;stroke:none;fill-rule:nonzero"/>
 <path d="m 14.875 11 c -0.492 0 -0.875 0.383 -0.875 0.875 l 0 24.25 c 0 0.492 0.383 0.875 0.875 0.875 l 18.25 0 c 0.492 0 0.875 -0.383 0.875 -0.875 l 0 -20.12 -5 -5 z m 8.03 7 c 2.494 0.586 8.02 3.398 8.094 8.563 0.016 1.172 -0.344 2.314 -1.156 3.438 l 1.094 1.125 -2.031 1.875 -0.938 -0.844 c -1.126 0.324 -1.642 0.909 -3.625 0.844 -0.935 -0.03 -2.943 -0.347 -4.469 -2.406 -0.518 0.827 -1.106 1.583 -1.875 2.125 -0.446 0.314 -1 0.536 -1.656 -0.156 -0.606 -0.64 -0.376 -1.328 0.219 -1.906 0.694 -0.674 1.35 -0.928 2.031 -1.313 l 0 -0.5 c 0.039 -0.1 0.102 -0.195 0.438 -0.375 l 0.844 -0.031 c 0.182 -0.24 0.327 -0.404 0.594 -0.375 0.474 0.041 1.697 2.159 3.531 2.094 0.74 -0.026 1.281 -0.145 1.813 -0.5 l -3.719 -3.969 -1.563 1.281 -2.094 -2.125 3.563 -3.125 l 2.969 -0.188 0.594 0.594 -1.594 1.688 3.75 3.938 c 0.398 -0.29 0.528 -1.191 0.5 -2.031 -0.092 -2.79 -3.211 -5.432 -5.313 -7.719 z" style="fill:#dabd76;fill-opacity:1;stroke:none;fill-rule:nonzero"/>
 <path d="m 29 11 0 5 5 0 m -5 -5" style="fill:#fff;fill-opacity:0.199;stroke:none;fill-rule:nonzero"/>
 <path d="m 34 21 0 -5 -5 0 m 5 5" style="fill:#000;fill-opacity:0.2;stroke:none;fill-rule:nonzero"/>
 <g>
  
 </g>
</svg>
