<svg viewBox="0 0 48 48" xmlns="http://www.w3.org/2000/svg" xmlns:xlink="http://www.w3.org/1999/xlink">
  <linearGradient id="a" gradientUnits="userSpaceOnUse" x1="1" x2="47">
    <stop offset="0" stop-color="#ffe6c7"/>
    <stop offset="1" stop-color="#ffefdb"/>
  </linearGradient>
  <path d="m24 1c22.703 0 23 .297 23 23 0 22.703-.297 23-23 23-22.703 0-23-.297-23-23 0-22.703.297-23 23-23z" fill="url(#a)" transform="matrix(0 -1 1 0 0 48)"/>
  <path d="m16 13v1h-1c-1.525 0-3 1.458-3 3v3l1 1h1l1 1 3 3h1v1h-1-3v2 1 2 2c0 3 4 4 5 4-1-1-3-2-3-4v-2c0 2 2 2 3 2-1-1-2-1-2-3v-2l1 1h1v-2h1v-1l2-2-1 2v2l2 1v1h-1l-1-1v3c0 1 1 2 2 2h1 1c1 0 2-1 2-2v-3l-1 1h-1v-1l2-1v-2l-1-2 2 2v1h1v2h1l1-1v2c0 2-1 2-2 3 1 0 3 0 3-2v2c0 2-2 3-3 4 1 0 5-1 5-4v-2-2-3h-2-1-1v-1h1l4-4h1l1-1v-3c0-1.542-1.475-3-3-3h-1v-1h-1l-1 .629-1 .629-2 1.26v1.482h-1v-1c-.194-.146-.389-.27-.582-.381v-.619c0-.668-1.083-1.209-2.418-1.209-1.335 0-2.417.541-2.418 1.209v.619c-.193.111-.388.235-.582.381v1h-1v-1-.482l-2-1.26-1-.629-1-.629zm-1 2h1v1l1 1h1l2 2v1h-1l-6-3c0-1 1-2 2-2zm20 0c1 0 2 1 2 2l-6 3h-1v-1l2-2h1l1-1h1z" opacity=".1"/>
  <path d="m15 12v3l1 1h1l2 2v1 1h5 5v-1-1l2-2h1l1-1v-3h-1l-4 2.518v1.482h-1v-1h-.582v-1c0-.668-1.083-1.209-2.418-1.209-1.335 0-2.417.541-2.418 1.209v1h-.582v1h-1v-1.482l-4-2.518" fill="#777"/>
  <path d="m21 15v5 2h6v-2-1-4h-1v4h-4v-4z" fill="#353535"/>
  <path d="m23 20h2v1h-2z" fill="#b3564a"/>
  <circle cx="24" cy="16" fill="#b3564a" r="1"/>
  <path d="m23.389 13.627v.406c-.79.073-1.585.365-2.389.967v1c1.01-.363 2.01-.533 3-.531.991-.002 1.991.168 3 .531v-1c-.803-.602-1.599-.893-2.389-.967v-.406h-.611z" fill="#aa8b55" fill-rule="evenodd"/>
  <path d="m19 19h-1l-6-3h-1v3l1 1h1l4 4h4v-5z" fill="#8b7145" fill-rule="evenodd"/>
  <path d="m11 17h1l1 1v2h-1l-1-1z" fill="#b3564a" fill-rule="evenodd"/>
  <path d="m18 25v-2h1v-3h2v2z" fill="#626262" fill-rule="evenodd"/>
  <path d="m23 21l-2 4h6l-2-4z" fill="#626262" fill-rule="evenodd"/>
  <path d="m25 29v-1l2-1v-2h-6v2l2 1v1z" fill="#353535" fill-rule="evenodd"/>
  <path d="m21 28v3c0 1 1 2 2 2h1 1c1 0 2-1 2-2v-3l-1 1h-1c0-.548-.391-1-1-1-.486 0-1 .395-1 1h-1z" fill="#626262" fill-rule="evenodd"/>
  <path d="m23 30v3h1 1v-3h-1z" fill="#b3564a"/>
  <path d="m14 13h1v1h-1z" fill="#626262"/>
  <path d="m29 19h1l6-3h1v3l-1 1h-1l-4 4h-4v-5z" fill="#8b7145" fill-rule="evenodd"/>
  <path d="m30 25v-2h-1v-3h-2v2z" fill="#626262" fill-rule="evenodd"/>
  <path d="m24 17c-2 0-3.01.231-4 1v3c1.242-1 3-1 4-1 1 0 2.758 0 4 1v-3c-.993-.769-2-1-4-1z" fill="#aa8b55" fill-rule="evenodd"/>
  <path d="m22 17.15c-.366.065-.701.159-1 .283v2.99c.328-.131.666-.219 1-.281z" fill="#a0a4a0"/>
  <path d="m23 24l-2 1v2h1l1-1h2l1 1h1v-2l-2-1z" fill="#b3564a" fill-rule="evenodd"/>
  <path d="m37 17h-1l-1 1v2h1l1-1z" fill="#b3564a" fill-rule="evenodd"/>
  <path d="m-34 13h1v2h-1z" fill="#626262" transform="scale(-1 1)"/>
  <path d="m26 17.15v2.992c.334.063.672.151 1 .281v-2.99c-.299-.124-.634-.218-1-.283z" fill="#a0a4a0"/>
  <path d="m24 17c-.376 0-.687.019-1 .037v.963h1 1v-.963c-.313-.018-.624-.037-1-.037zm-1 2v1.029c.372-.022.719-.029 1-.029.281 0 .628.007 1 .029v-1.029h-1z" fill="#a0a4a0"/>
  <path d="m20 20v3h1v-1h2v-1h-2v-1z" fill="#b3564a"/>
  <path d="m27 20v1h-2v1h2v1h1v-3z" fill="#b3564a"/>
  <path d="m11 16c0-1.542 1.475-3 3-3v1c-1 0-2 1-2 2z" fill="#8b7145" fill-rule="evenodd"/>
  <path d="m37 16c0-1.542-1.475-3-3-3v1c1 0 2 1 2 2z" fill="#8b7145" fill-rule="evenodd"/>
  <path d="m23 22v1h-1l-2 2v1h-1v2h-1l-1-1v2l-1 1v-5h1 1l3-3z" fill="#91774b" fill-rule="evenodd"/>
  <path d="m14 32h2v-4h1v-1l1 1v-2l-1-1h-3z" fill="#777" fill-rule="evenodd"/>
  <path d="m25 22v1h1l2 2v1h1v2h1l1-1v2l1 1v-5h-1-1l-3-3z" fill="#91774b" fill-rule="evenodd"/>
  <path d="m24 21.5a1.5 1.5 0 0 0-1.5 1.5 1.5 1.5 0 0 0  1.5 1.5 1.5 1.5 0 0 0  1.5-1.5 1.5 1.5 0 0 0-1.5-1.5" fill="#d21f02"/>
  <path d="m24 22a1 1 0 0 0-1 1 1 1 0 0 0  1 1 1 1 0 0 0  1-1 1 1 0 0 0-1-1z" fill="#fbf281"/>
  <path d="m12 19h1v1h-1z" fill="#626262"/>
  <path d="m35 19h1v1h-1z" fill="#626262"/>
  <path d="m14 32c0 3 4 4 5 4-1-1-3-2-3-4z" fill="#584438"/>
  <path d="m34 32c0 3-4 4-5 4 1-1 3-2 3-4z" fill="#584438"/>
  <path d="m16 30l1-1c0 2 1 2 2 3-1 0-3 0-3-2z" fill="#626262" fill-rule="evenodd"/>
  <path d="m32 30l-1-1c0 2-1 2-2 3 1 0 3 0 3-2z" fill="#626262" fill-rule="evenodd"/>
  <path d="m34 32h-2v-4h-1v-1l-1 1v-2l1-1h3z" fill="#777" fill-rule="evenodd"/>
  <path d="m14 30v-2h2z" fill="#b3564a" fill-rule="evenodd"/>
  <path d="m34 30v-2h-2z" fill="#b3564a" fill-rule="evenodd"/>
  <path d="m14 25h2v2h-2z" fill="#b3564a"/>
  <path d="m32 25h2v2h-2z" fill="#b3564a"/>
  <ellipse cx="23.634" cy="23.298" fill="#fbfbed" rx=".41" ry=".454"/>
  <path d="m17 16h1l1 1v1z" fill="#626262" fill-rule="evenodd"/>
  <path d="m31 16h-1l-1 1v1z" fill="#626262" fill-rule="evenodd"/>
  <path d="m19 16h2v1h-2z" fill="#8b7145"/>
  <path d="m27 16h2v1h-2z" fill="#8b7145"/>
  <path d="m15 15l1 1h1 3v-1z" fill="#8b7145"/>
  <path d="m17 12.629v2.371h1v-1.742z" fill="#8b7145"/>
  <path d="m15 15l1 1h1 3v-1z" fill="#8b7145"/>
  <path d="m17 12.629v2.371h1v-1.742z" fill="#8b7145"/>
  <path d="m33 15l-1 1h-1-3v-1z" fill="#8b7145"/>
  <path d="m31 12.629v2.371h-1v-1.742z" fill="#8b7145"/>
  <path d="m31 24v-3l3-2v2z" fill="#584438" fill-rule="evenodd"/>
  <path d="m17 24v-3l-3-2v2z" fill="#584438" fill-rule="evenodd"/>
</svg>
