<svg xmlns="http://www.w3.org/2000/svg" viewBox="0 0 48 48">
 <defs>
  <linearGradient id="linearGradient3764" x1="1" x2="47" gradientUnits="userSpaceOnUse" gradientTransform="matrix(0,-1,1,0,-1.5e-6,47.999998)">
   <stop style="stop-color:#52b8d2;stop-opacity:1"/>
   <stop offset="1" style="stop-color:#62bed6;stop-opacity:1"/>
  </linearGradient>
 </defs>
 <g>
  
  
  
 </g>
 <g>
  <path d="m 47,24 C 47,46.703 46.703,47 24,47 1.297,47 1,46.703 1,24 1,1.297 1.297,1 24,1 46.703,1 47,1.297 47,24 z" style="fill:url(#linearGradient3764);fill-opacity:1"/>
 </g>
 <g>
  <g>
   <g transform="translate(1,1)">
    <g style="opacity:0.1">
     <!-- color: #62bed6 -->
    </g>
   </g>
  </g>
 </g>
 <g>
  <g>
   <!-- color: #62bed6 -->
   <g>
    <path d="m 25 15.02 c -3.173 0.003 -6.342 0.771 -8.76 2.289 -5.315 3.338 -5.68 9.113 -0.797 12.66 0.449 0.32 0.855 0.621 0.906 0.66 l -1.35 2.375 l 3.5 2 6.5 -11.877 6.5 11.877 3.5 -2 -1.35 -2.375 c 0.051 -0.039 0.457 -0.34 0.906 -0.66 4.883 -3.547 4.518 -9.323 -0.797 -12.66 -2.418 -1.518 -5.586 -2.286 -8.76 -2.289 z m -0.965 1.678 -5.855 10.82 c -0.137 0.125 -1.543 -0.867 -2.25 -1.59 -3.582 -3.668 0 -8.273 7.086 -9.148 0.543 -0.059 1.02 -0.082 1.02 -0.082 z m 1.93 0 c 0 0 0.477 0.023 1.02 0.082 7.086 0.875 10.668 5.48 7.086 9.148 -0.707 0.723 -2.113 1.715 -2.25 1.59 z m -0.965 9.307 l -2.5 4.498 2.5 4.502 2.5 -4.502 z" style="fill:#000;opacity:0.1;fill-opacity:1;stroke:none;fill-rule:nonzero"/>
    <path d="m 24 14.02 c -3.173 0.003 -6.342 0.771 -8.76 2.289 -5.315 3.338 -5.68 9.113 -0.797 12.66 0.449 0.32 0.855 0.621 0.906 0.66 l -1.35 2.375 3.5 2 6.5 -11.877 6.5 11.877 3.5 -2 -1.35 -2.375 c 0.051 -0.039 0.457 -0.34 0.906 -0.66 4.883 -3.547 4.518 -9.323 -0.797 -12.66 c -2.418 -1.518 -5.586 -2.286 -8.76 -2.289 m -0.965 1.678 -5.855 10.82 c -0.137 0.125 -1.543 -0.867 -2.25 -1.59 -3.582 -3.668 0 -8.273 7.086 -9.148 0.543 -0.059 1.02 -0.082 1.02 -0.082 z m 1.93 0 c 0 0 0.477 0.023 1.02 0.082 7.086 0.875 10.668 5.48 7.086 9.148 -0.707 0.723 -2.113 1.715 -2.25 1.59 z m -0.965 9.307 -2.5 4.498 2.5 4.502 2.5 -4.502" style="fill:#2d2d2d;fill-opacity:1;stroke:none;fill-rule:nonzero"/>
   </g>
  </g>
 </g>
 <g>
  
 </g>
 <g transform="matrix(-1,0,0,1,48,0)">
  <g>
   <!-- color: #62bed6 -->
  </g>
 </g>
</svg>
