<svg viewBox="0 0 48 48" xmlns="http://www.w3.org/2000/svg" xmlns:xlink="http://www.w3.org/1999/xlink">
  <linearGradient id="a" gradientTransform="matrix(0 -1 1 0 -.0000015 47.999998)" gradientUnits="userSpaceOnUse" x1="1" x2="47">
    <stop offset="0" stop-color="#3a568e"/>
    <stop offset="1" stop-color="#405f9b"/>
  </linearGradient>
  <path d="m47 24c0 22.703-.297 23-23 23-22.703 0-23-.297-23-23 0-22.703.297-23 23-23 22.703 0 23 .297 23 23z" fill="url(#a)"/>
  <path d="m24 9c-7.176 0-13 6.711-13 14.988 0 8.277 5.824 15.01 13 15.01 7.172 0 13-6.727 13-15.01 0-8.277-5.828-14.988-13-14.988m0 1.922c5.941 0 6.512 5.848 6.512 13.07 0 7.219-.789 13.08-6.512 13.08-5.828 0-6.516-5.852-6.516-13.08 0-7.219.672-13.07 6.516-13.07m0 0" opacity=".1" transform="translate(1 1)"/>
  <path d="m24 9c-7.176 0-13 6.711-13 14.988 0 8.277 5.824 15.01 13 15.01 7.172 0 13-6.727 13-15.01 0-8.277-5.828-14.988-13-14.988m0 1.922c5.941 0 6.512 5.848 6.512 13.07 0 7.219-.789 13.08-6.512 13.08-5.828 0-6.516-5.852-6.516-13.08 0-7.219.672-13.07 6.516-13.07m0 0" fill="#85c8eb"/>
</svg>
