<svg xmlns="http://www.w3.org/2000/svg" viewBox="0 0 48 48">
 <defs>
  <linearGradient id="linearGradient3764" x1="1" x2="47" gradientUnits="userSpaceOnUse" gradientTransform="matrix(0,-1,1,0,-1.5e-6,47.999998)">
   <stop style="stop-color:#ddd;stop-opacity:1"/>
   <stop offset="1" style="stop-color:#e7e7e7;stop-opacity:1"/>
  </linearGradient>
 </defs>
 <g>
  
  
  
 </g>
 <g>
  <path d="m 47,24 C 47,46.703 46.703,47 24,47 1.297,47 1,46.703 1,24 1,1.297 1.297,1 24,1 46.703,1 47,1.297 47,24 z" style="fill:url(#linearGradient3764);fill-opacity:1"/>
 </g>
 <g>
  <g>
   <g transform="translate(1,1)">
    <g style="opacity:0.1">
     <!-- color: #e7e7e7 -->
     <g>
      <path d="m 24 9 c -7.176 0 -13 6.711 -13 14.988 c 0 8.277 5.824 15.01 13 15.01 c 7.176 0 13 -6.727 13 -15.01 c 0 -8.277 -5.824 -14.988 -13 -14.988 m 0 1.922 c 5.941 0 6.512 5.848 6.512 13.07 c 0 7.219 -0.789 13.08 -6.512 13.08 c -5.828 0 -6.516 -5.852 -6.516 -13.08 c 0 -7.219 0.672 -13.07 6.516 -13.07 m 0 0" style="fill:#000;fill-opacity:1;stroke:none;fill-rule:nonzero"/>
     </g>
    </g>
   </g>
  </g>
 </g>
 <g>
  <g>
   <!-- color: #e7e7e7 -->
   <g>
    <path d="m 24 9 c -7.176 0 -13 6.711 -13 14.988 c 0 8.277 5.824 15.01 13 15.01 c 7.176 0 13 -6.727 13 -15.01 c 0 -8.277 -5.824 -14.988 -13 -14.988 m 0 1.922 c 5.941 0 6.512 5.848 6.512 13.07 c 0 7.219 -0.789 13.08 -6.512 13.08 c -5.828 0 -6.516 -5.852 -6.516 -13.08 c 0 -7.219 0.672 -13.07 6.516 -13.07 m 0 0" style="fill:#2fa8de;fill-opacity:1;stroke:none;fill-rule:nonzero"/>
   </g>
  </g>
 </g>
 <g>
  
 </g>
</svg>
