<svg xmlns="http://www.w3.org/2000/svg" viewBox="0 0 48 48">
 <defs>
  <linearGradient id="linearGradient3862" x1="1" x2="47" gradientUnits="userSpaceOnUse">
   <stop style="stop-color:#d1e2ee;stop-opacity:1"/>
   <stop offset="1" style="stop-color:#e0ecf4;stop-opacity:1"/>
  </linearGradient>
 </defs>
 <g>
  
  
  
 </g>
 <g transform="matrix(0,-1,1,0,0,48)" style="fill:url(#linearGradient3862);fill-opacity:1">
  <path d="M 24,1 C 46.703,1 47,1.297 47,24 47,46.703 46.703,47 24,47 1.297,47 1,46.703 1,24 1,1.297 1.297,1 24,1 z"/>
 </g>
 <g>
  
 </g>
 <path d="m 21.998 12.504 c -0.119 -0.011 -0.239 0.002 -0.344 0.031 -1.677 0.473 -1.9 6.569 -2.968 7.901 -1.068 1.332 -7.135 3.096 -7.186 4.778 -0.051 1.682 5.919 3.763 6.905 5.153 0.986 1.389 0.823 7.522 2.468 8.09 1.646 0.566 5.572 -4.274 7.249 -4.747 1.677 -0.473 7.649 1.55 8.717 0.219 1.068 -1.332 -2.488 -6.375 -2.437 -8.06 0.051 -1.682 3.923 -6.542 2.937 -7.932 -0.986 -1.389 -7.103 0.285 -8.748 -0.281 -1.543 -0.531 -4.808 -4.988 -6.593 -5.153 z m 6.999 8.494 2 0 0 5.996 -2 0 0 -5.996 z m -4.999 0.999 c 2.209 0 3.999 1.79 3.999 3.997 0 2.208 -1.791 3.997 -3.999 3.997 -2.209 0 -3.999 -1.79 -3.999 -3.997 0 -2.208 1.791 -3.997 3.999 -3.997 z m 0 1.999 c -1.104 0 -2 0.895 -2 1.999 0 1.104 0.895 1.999 2 1.999 1.104 0 2 -0.895 2 -1.999 0 -1.104 -0.895 -1.999 -2 -1.999 z m 4.999 3.997 2 0 0 1.999 -2 0 0 -1.999 z" style="fill:#000;opacity:0.1;fill-opacity:1;stroke:none;fill-rule:nonzero"/>
 <path d="m 20.998 11.504 c -0.119 -0.011 -0.239 0.002 -0.344 0.031 -1.677 0.473 -1.9 6.569 -2.968 7.901 -1.068 1.332 -7.135 3.096 -7.186 4.778 -0.051 1.682 5.919 3.763 6.905 5.153 0.986 1.389 0.823 7.522 2.468 8.09 1.646 0.566 5.572 -4.274 7.249 -4.747 1.677 -0.473 7.649 1.55 8.717 0.219 1.068 -1.332 -2.488 -6.375 -2.437 -8.06 0.051 -1.682 3.923 -6.542 2.937 -7.932 -0.986 -1.389 -7.103 0.285 -8.748 -0.281 -1.543 -0.531 -4.808 -4.988 -6.593 -5.153 z m 6.999 8.494 2 0 0 5.996 -2 0 0 -5.996 z m -4.999 0.999 c 2.209 0 3.999 1.79 3.999 3.997 0 2.208 -1.791 3.997 -3.999 3.997 -2.209 0 -3.999 -1.79 -3.999 -3.997 0 -2.208 1.791 -3.997 3.999 -3.997 z m 0 1.999 c -1.104 0 -2 0.895 -2 1.999 0 1.104 0.895 1.999 2 1.999 1.104 0 2 -0.895 2 -1.999 0 -1.104 -0.895 -1.999 -2 -1.999 z m 4.999 3.997 2 0 0 1.999 -2 0 0 -1.999 z" style="fill:#5387b8;fill-opacity:1;stroke:none;fill-rule:nonzero"/>
</svg>
