<svg viewBox="0 0 48 48" xmlns="http://www.w3.org/2000/svg" xmlns:xlink="http://www.w3.org/1999/xlink">
  <linearGradient id="a" gradientUnits="userSpaceOnUse" x1="1" x2="47">
    <stop offset="0" stop-color="#d1e2ee"/>
    <stop offset="1" stop-color="#e0ecf4"/>
  </linearGradient>
  <path d="m24 1c22.703 0 23 .297 23 23 0 22.703-.297 23-23 23-22.703 0-23-.297-23-23 0-22.703.297-23 23-23z" fill="url(#a)" transform="matrix(0 -1 1 0 0 48)"/>
  <path d="m21.998 12.504c-.119-.011-.239.002-.344.031-1.677.473-1.9 6.569-2.968 7.901-1.068 1.332-7.135 3.096-7.186 4.778-.051 1.682 5.919 3.763 6.905 5.153.986 1.389.823 7.522 2.468 8.09 1.646.566 5.572-4.274 7.249-4.747 1.677-.473 7.649 1.55 8.717.219 1.068-1.332-2.488-6.375-2.437-8.06.051-1.682 3.923-6.542 2.937-7.932-.986-1.389-7.103.285-8.748-.281-1.543-.531-4.808-4.988-6.593-5.153zm6.999 8.494h2v5.996h-2zm-4.999.999c2.209 0 3.999 1.79 3.999 3.997 0 2.208-1.791 3.997-3.999 3.997-2.209 0-3.999-1.79-3.999-3.997 0-2.208 1.791-3.997 3.999-3.997zm0 1.999c-1.104 0-2 .895-2 1.999 0 1.104.895 1.999 2 1.999 1.104 0 2-.895 2-1.999 0-1.104-.895-1.999-2-1.999zm4.999 3.997h2v1.999h-2z" opacity=".1"/>
  <path d="m20.998 11.504c-.119-.011-.239.002-.344.031-1.677.473-1.9 6.569-2.968 7.901-1.068 1.332-7.135 3.096-7.186 4.778-.051 1.682 5.919 3.763 6.905 5.153.986 1.389.823 7.522 2.468 8.09 1.646.566 5.572-4.274 7.249-4.747 1.677-.473 7.649 1.55 8.717.219 1.068-1.332-2.488-6.375-2.437-8.06.051-1.682 3.923-6.542 2.937-7.932-.986-1.389-7.103.285-8.748-.281-1.543-.531-4.808-4.988-6.593-5.153zm6.999 8.494h2v5.996h-2zm-4.999.999c2.209 0 3.999 1.79 3.999 3.997 0 2.208-1.791 3.997-3.999 3.997-2.209 0-3.999-1.79-3.999-3.997 0-2.208 1.791-3.997 3.999-3.997zm0 1.999c-1.104 0-2 .895-2 1.999 0 1.104.895 1.999 2 1.999 1.104 0 2-.895 2-1.999 0-1.104-.895-1.999-2-1.999zm4.999 3.997h2v1.999h-2z" fill="#5387b8"/>
</svg>
