<svg viewBox="0 0 48 48" xmlns="http://www.w3.org/2000/svg" xmlns:xlink="http://www.w3.org/1999/xlink">
  <linearGradient id="a" gradientTransform="matrix(0 -1 1 0 -.0000015 47.999998)" gradientUnits="userSpaceOnUse" x1="1" x2="47">
    <stop offset="0" stop-color="#e4e4e4"/>
    <stop offset="1" stop-color="#eee"/>
  </linearGradient>
  <path d="m47 24c0 22.703-.297 23-23 23-22.703 0-23-.297-23-23 0-22.703.297-23 23-23 22.703 0 23 .297 23 23z" fill="url(#a)"/>
  <path d="m25 10a12 15 0 0 0-12 15 12 15 0 0 0  12 15 12 15 0 0 0  12-15 12 15 0 0 0-12-15m0 2a10 13 0 0 1 10 13 10 13 0 0 1-10 13 10 13 0 0 1-10-13 10 13 0 0 1  10-13m0 1.9c-.554 0-1 .446-1 1v2c0 .554.446 1 1 1 .554 0 1-.446 1-1v-2c0-.554-.446-1-1-1zm-4.725 2.5c-.262 0-.524.1-.725.301-.401.401-.401 1.048 0 1.449l1.45 1.45c.401.401 1.048.401 1.449 0 .401-.401.401-1.048 0-1.449l-1.449-1.45c-.201-.201-.463-.301-.725-.301zm9.449 0c-.262 0-.524.1-.725.301l-1.449 1.449c-.401.401-.401 1.048 0 1.449.401.401 1.048.401 1.449 0l1.449-1.449c.401-.401.401-1.048 0-1.449-.201-.201-.463-.301-.725-.301zm-4.742 3.1a1 1 0 0 0-.814.445l-5 7.5a1 1 0 0 0 0 1.109l1.832 2.746v2.7a1 1 0 0 0 1 1h6a1 1 0 0 0 1-1v-2.697l1.832-2.748a1 1 0 0 0 0-1.109l-5-7.5a1 1 0 0 0-.85-.446m.018 2.803l3.799 5.697-1.629 2.445a1 1 0 0 0-.17.555v2h-4v-2a1 1 0 0 0-.168-.555l-1.632-2.445zm0 4.697c-.554 0-1 .446-1 1v1c0 .554.446 1 1 1 .554 0 1-.446 1-1v-1c0-.554-.446-1-1-1z" fill-opacity=".098"/>
  <path d="m24 9a12 15 0 0 0-12 15 12 15 0 0 0  12 15 12 15 0 0 0  12-15 12 15 0 0 0-12-15zm0 2a10 13 0 0 1 10 13 10 13 0 0 1-10 13 10 13 0 0 1-10-13 10 13 0 0 1  10-13z" fill="#e84444"/>
  <rect fill="#333" height="3" rx="1" width="2" x="23" y="26"/>
  <rect fill="#989730" height="4" rx="1" transform="translate(9.0000001 -40.599999)" width="2" x="14" y="53.5"/>
  <rect fill="#989730" height="4.098" rx="1.024" ry="1.025" transform="matrix(.70710678 -.70710678 .70710678 .70710678 9.0000001 -40.599999)" width="2.049" x="-34.08" y="46.564"/>
  <rect fill="#989730" height="4.098" rx="1.024" ry="1.025" transform="matrix(-.70710678 -.70710678 -.70710678 .70710678 9.0000001 -40.599999)" width="2.049" x="-55.3" y="25.351"/>
  <path d="m23.982 18.5a1 1 0 0 0-.814.445l-5 7.5a1 1 0 0 0 0 1.109l1.832 2.746v2.7a1 1 0 0 0 1 1h6a1 1 0 0 0 1-1v-2.697l1.832-2.748a1 1 0 0 0 0-1.109l-5-7.5a1 1 0 0 0-.85-.446m.018 2.803l3.799 5.697-1.629 2.445a1 1 0 0 0-.17.555v2h-4v-2a1 1 0 0 0-.168-.555l-1.632-2.445z" fill="#333" fill-rule="evenodd"/>
</svg>
