<svg viewBox="0 0 48 48" xmlns="http://www.w3.org/2000/svg" xmlns:xlink="http://www.w3.org/1999/xlink">
  <linearGradient id="a" gradientTransform="matrix(0 -1 1 0 -.0000015 47.999998)" gradientUnits="userSpaceOnUse" x1="1" x2="47">
    <stop offset="0" stop-color="#e4e4e4"/>
    <stop offset="1" stop-color="#eee"/>
  </linearGradient>
  <path d="m47 24c0 22.703-.297 23-23 23-22.703 0-23-.297-23-23 0-22.703.297-23 23-23 22.703 0 23 .297 23 23z" fill="url(#a)"/>
  <path d="m23.797 18.06c-1.426 0-2.648.816-3.24 1.99-.34-.269-.768-.436-1.24-.436-1.093 0-1.977.867-1.977 1.938 0 .421.14.809.373 1.127-.784.478-1.371 1.219-1.654 2.098-.124-.013-.244-.037-.371-.037-2 0-3.625 1.59-3.625 3.551 0 1.957 1.625 3.551 3.625 3.551.837 0 1.599-.289 2.213-.756.379.483.968.799 1.639.799.926 0 1.703-.599 1.969-1.42.9.859 2.125 1.393 3.48 1.393 1.334 0 2.539-.52 3.436-1.354.719.866 1.802 1.432 3.03 1.432 1.062 0 2.023-.42 2.729-1.092.377.51.986.846 1.678.846 1.144 0 2.074-.906 2.074-2.027 0-1.121-.93-2.035-2.074-2.035-.184 0-.359.03-.529.074-.206-1.934-1.852-3.441-3.877-3.441-.024 0-.046.007-.07.008-.058-1.911-1.646-3.445-3.613-3.445-.148 0-.29.026-.434.043-.35-1.602-1.801-2.805-3.543-2.805" opacity=".1" transform="matrix(1.0048309 0 0 1.0090091 -.12077273 -.22522712)"/>
  <g fill="#192d44" stroke="#f9f9f9" transform="matrix(1.0010629 0 0 1.0021783 -.0255034 -.05231759)">
    <path d="m308.82 78.902c0 11.228-9.07 20.326-20.341 20.326-11.234 0-20.301-9.1-20.301-20.326 0-11.228 9.07-20.326 20.301-20.326 11.274 0 20.341 9.1 20.341 20.326m0 0" transform="matrix(.0973622 0 0 .0953236 -9.770112 13.033483)"/>
    <path d="m288.47 149.59c0 20.53-16.69 37.25-37.27 37.25-20.542 0-37.23-16.719-37.23-37.25 0-20.571 16.69-37.25 37.23-37.25 20.582 0 37.27 16.678 37.27 37.25m0 0" transform="matrix(.0973622 0 0 .0953236 -9.770112 13.033483)"/>
    <path d="m333.49 124.8c0 22.21-18.01 40.28-40.24 40.28-22.267 0-40.28-18.07-40.28-40.28 0-22.252 18.01-40.24 40.28-40.24 22.23 0 40.24 17.99 40.24 40.24m0 0" transform="matrix(.0973622 0 0 .0953236 -9.770112 13.033483)"/>
    <path d="m412.57 108.49c0 20.571-16.65 37.21-37.23 37.21-20.582 0-37.23-16.637-37.23-37.21 0-20.571 16.69-37.25 37.23-37.25 20.582 0 37.23 16.678 37.23 37.25m0 0" transform="matrix(.0973622 0 0 .0953236 -9.770112 13.033483)"/>
    <path d="m371.73 79.52c0 20.571-16.65 37.21-37.23 37.21-20.542 0-37.23-16.678-37.23-37.21 0-20.571 16.69-37.25 37.23-37.25 20.582 0 37.23 16.678 37.23 37.25m0 0" transform="matrix(.0973622 0 0 .0953236 -9.770112 13.033483)"/>
    <path d="m479.73 163.97c0 11.761-9.549 21.268-21.304 21.268-11.755 0-21.304-9.507-21.304-21.268 0-11.761 9.549-21.35 21.304-21.35 11.755 0 21.304 9.589 21.304 21.35m0 0" transform="matrix(.0973622 0 0 .0953236 -9.770112 13.033483)"/>
    <path d="m453.41 147.58c0 22.21-18.01 40.24-40.24 40.24-22.267 0-40.28-18.03-40.28-40.24 0-22.252 18.01-40.28 40.28-40.28 22.23 0 40.24 17.99 40.24 40.28m0 0" transform="matrix(.0973622 0 0 .0953236 -9.770112 13.033483)"/>
    <path d="m312.07 166.02c0 11.761-9.549 21.268-21.304 21.268-11.755 0-21.304-9.507-21.304-21.268 0-11.761 9.549-21.309 21.304-21.309 11.755 0 21.304 9.548 21.304 21.309m0 0" transform="matrix(.0973622 0 0 .0953236 -9.770112 13.033483)"/>
    <path d="m166.57-64.48c0 21.341-17.301 38.643-38.649 38.643-21.317 0-38.619-17.301-38.619-38.643 0-21.341 17.301-38.612 38.619-38.612 21.347 0 38.649 17.271 38.649 38.612m0 0" transform="matrix(.12937 0 0 .126661 7.4394 34.132419)"/>
  </g>
</svg>
