<svg xmlns="http://www.w3.org/2000/svg" viewBox="0 0 48 48">
 <defs>
  <linearGradient id="linearGradient3764" x1="1" x2="47" gradientUnits="userSpaceOnUse" gradientTransform="matrix(0,-1,1,0,-1.5e-6,47.999998)">
   <stop style="stop-color:#4e5b62;stop-opacity:1"/>
   <stop offset="1" style="stop-color:#56656d;stop-opacity:1"/>
  </linearGradient>
 </defs>
 <g>
  
  
  
 </g>
 <g>
  <path d="m 47,24 C 47,46.703 46.703,47 24,47 1.297,47 1,46.703 1,24 1,1.297 1.297,1 24,1 46.703,1 47,1.297 47,24 z" style="fill:url(#linearGradient3764);fill-opacity:1"/>
 </g>
 <g>
  <g>
   <g transform="translate(1,1)">
    <g style="opacity:0.1">
     <!-- color: #56656d -->
     <g>
      <path d="m 23.531 16.07 c -1.395 0.426 -0.172 2.414 -2.164 3.391 c -2.281 1.109 -3.418 -1.699 -4.785 0.309 c -1.371 2 1.891 1.691 1.801 4.055 c -0.094 2.359 -3.316 1.859 -2.109 3.945 c 1.211 2.082 2.555 -0.652 4.746 0.594 c 2.188 1.246 0.094 3.543 2.676 3.633 c 2.578 0.078 0.664 -2.348 2.941 -3.457 c 2.285 -1.113 3.418 1.695 4.785 -0.309 c 1.371 -2.01 -1.887 -1.695 -1.801 -4.059 c 0.094 -2.359 3.316 -1.859 2.109 -3.945 c -1.211 -2.082 -2.555 0.652 -4.746 -0.594 c -2.188 -1.246 -0.094 -3.543 -2.672 -3.633 c -0.324 -0.008 -0.578 0.008 -0.781 0.07 m 0 0" style="fill:#000;fill-opacity:1;stroke:none;fill-rule:nonzero"/>
      <path d="m 24 9 c -1.16 2.84 -1.863 4.695 -3.152 7.449 c 0.793 0.836 1.762 1.809 3.336 2.906 c -1.695 -0.695 -2.848 -1.395 -3.711 -2.117 c -1.648 3.441 -4.234 8.34 -9.477 17.75 c 4.121 -2.375 7.313 -3.844 10.289 -4.402 c -0.129 -0.551 -0.195 -1.145 -0.191 -1.766 l 0.004 -0.129 c 0.063 -2.641 1.438 -4.672 3.063 -4.531 c 1.629 0.137 2.898 2.391 2.828 5.03 c -0.008 0.496 -0.07 0.973 -0.164 1.414 c 2.941 0.578 6.105 2.039 10.172 4.383 c -0.801 -1.473 -1.52 -2.805 -2.203 -4.07 c -1.078 -0.832 -2.199 -1.918 -4.492 -3.094 c 1.574 0.41 2.703 0.883 3.582 1.41 c -6.945 -12.93 -7.512 -14.648 -9.891 -20.242 m 0.008 0.008" style="fill:#000;fill-opacity:1;stroke:none;fill-rule:evenodd"/>
     </g>
    </g>
   </g>
  </g>
 </g>
 <g>
  <g>
   <!-- color: #56656d -->
   <g>
    <path d="m 23.531 16.07 c -1.395 0.426 -0.172 2.414 -2.164 3.391 c -2.281 1.109 -3.418 -1.699 -4.785 0.309 c -1.371 2 1.891 1.691 1.801 4.055 c -0.094 2.359 -3.316 1.859 -2.109 3.945 c 1.211 2.082 2.555 -0.652 4.746 0.594 c 2.188 1.246 0.094 3.543 2.676 3.633 c 2.578 0.078 0.664 -2.348 2.941 -3.457 c 2.285 -1.113 3.418 1.695 4.785 -0.309 c 1.371 -2.01 -1.887 -1.695 -1.801 -4.059 c 0.094 -2.359 3.316 -1.859 2.109 -3.945 c -1.211 -2.082 -2.555 0.652 -4.746 -0.594 c -2.188 -1.246 -0.094 -3.543 -2.672 -3.633 c -0.324 -0.008 -0.578 0.008 -0.781 0.07 m 0 0" style="fill:#eaeaea;fill-opacity:1;stroke:none;fill-rule:nonzero"/>
    <path d="m 24 9 c -1.16 2.84 -1.863 4.695 -3.152 7.449 c 0.793 0.836 1.762 1.809 3.336 2.906 c -1.695 -0.695 -2.848 -1.395 -3.711 -2.117 c -1.648 3.441 -4.234 8.34 -9.477 17.75 c 4.121 -2.375 7.313 -3.844 10.289 -4.402 c -0.129 -0.551 -0.195 -1.145 -0.191 -1.766 l 0.004 -0.129 c 0.063 -2.641 1.438 -4.672 3.063 -4.531 c 1.629 0.137 2.898 2.391 2.828 5.03 c -0.008 0.496 -0.07 0.973 -0.164 1.414 c 2.941 0.578 6.105 2.039 10.172 4.383 c -0.801 -1.473 -1.52 -2.805 -2.203 -4.07 c -1.078 -0.832 -2.199 -1.918 -4.492 -3.094 c 1.574 0.41 2.703 0.883 3.582 1.41 c -6.945 -12.93 -7.512 -14.648 -9.891 -20.242 m 0.008 0.008" style="fill:#1793cf;fill-opacity:1;stroke:none;fill-rule:evenodd"/>
   </g>
  </g>
 </g>
 <g>
  
 </g>
</svg>
