<svg viewBox="0 0 48 48" xmlns="http://www.w3.org/2000/svg" xmlns:xlink="http://www.w3.org/1999/xlink">
  <linearGradient id="a" gradientTransform="matrix(0 -1 1 0 -.0000015 47.999998)" gradientUnits="userSpaceOnUse" x1="1" x2="47">
    <stop offset="0" stop-color="#3d3d3d"/>
    <stop offset="1" stop-color="#474747"/>
  </linearGradient>
  <linearGradient id="b" gradientUnits="userSpaceOnUse" x2="0" y1="36" y2="12">
    <stop offset="0" stop-color="#e0d510"/>
    <stop offset="1" stop-color="#eb252f"/>
  </linearGradient>
  <path d="m47 24c0 22.703-.297 23-23 23-22.703 0-23-.297-23-23 0-22.703.297-23 23-23 22.703 0 23 .297 23 23z" fill="url(#a)"/>
  <path d="m21.5 13l3.098 5-12.598 19h6l6-9h3.434c1.575 0 2.36 0 4.01-2l5.631-8.5c1.423-2.148 1.3-4.5-1.063-4.5m-6.215 6h1.073c.197 0 .254.29.029.625l-1.846 2.75c-.285.424-.66.625-.857.625h-1.099z" opacity=".1"/>
  <path d="m20.5 12l3.098 5-12.598 19h6l6-9h3.434c1.575 0 2.36 0 4.01-2l5.631-8.5c1.423-2.148 1.3-4.5-1.063-4.5m-6.215 6h1.073c.197 0 .254.29.029.625l-1.846 2.75c-.285.424-.66.625-.857.625h-1.099z" fill="url(#b)"/>
</svg>
