<svg viewBox="0 0 48 48" xmlns="http://www.w3.org/2000/svg" xmlns:xlink="http://www.w3.org/1999/xlink">
  <linearGradient id="a" gradientTransform="matrix(0 -1 1 0 -.0000015 47.999998)" gradientUnits="userSpaceOnUse" x1="1" x2="47">
    <stop offset="0" stop-color="#7f8c8d"/>
    <stop offset="1" stop-color="#8c9798"/>
  </linearGradient>
  <radialGradient id="b" cx="24" cy="1024.36" gradientTransform="matrix(.28222223 0 0 .2309091 -.00000002 -230.60788)" gradientUnits="userSpaceOnUse" r="11">
    <stop offset="0" stop-color="#dadada"/>
    <stop offset="1" stop-color="#e4e4e4"/>
  </radialGradient>
  <path d="m47 24c0 22.703-.297 23-23 23-22.703 0-23-.297-23-23 0-22.703.297-23 23-23 22.703 0 23 .297 23 23z" fill="url(#a)"/>
  <g transform="matrix(3.543307 0 0 3.543307 -.00039307 -.00000012)">
    <path d="m16 13l-2 18v6h22v-6l-2-18z" opacity=".1" transform="scale(.28222223)"/>
    <path d="m3.669 8.467h6.209v1.693h-6.209z" fill="#1f1f1f"/>
    <path d="m4.233 3.387h4.233l-3.104 5.08h-1.693z" fill="url(#b)"/>
    <path d="m32 31a1 1 0 1 1-2 0 1 1 0 1 1  2 0z" fill="#03aae5" transform="matrix(.28222223 0 0 .28222223 .28222228 .56444909)"/>
    <path d="m30 12l-6 8 1 1 9 5 .515625-.351562-1.515625-13.648438z" fill="#edd238" transform="scale(.28222223)"/>
    <path d="m6.773 5.644l1.173 2.822h1.931l-.132-1.226z" fill="#557ab1"/>
    <path d="m6.773 5.644l1.411 2.822h-2.822z" fill="#45b95e"/>
  </g>
</svg>
