<svg viewBox="0 0 48 48" xmlns="http://www.w3.org/2000/svg" xmlns:xlink="http://www.w3.org/1999/xlink">
  <linearGradient id="a" gradientTransform="matrix(0 -1 1 0 -.0000015 47.999998)" gradientUnits="userSpaceOnUse" x1="1" x2="47">
    <stop offset="0" stop-color="#e05a48"/>
    <stop offset="1" stop-color="#e36959"/>
  </linearGradient>
  <path d="m47 24c0 22.703-.297 23-23 23-22.703 0-23-.297-23-23 0-22.703.297-23 23-23 22.703 0 23 .297 23 23z" fill="url(#a)"/>
  <path d="m14.66 12h18.684c1.465 0 2.656 1.191 2.656 2.66v18.684c0 1.465-1.191 2.656-2.656 2.656h-18.684c-1.469 0-2.66-1.191-2.66-2.656v-18.684c0-1.469 1.191-2.66 2.66-2.66m0 0" opacity=".1" transform="translate(1 1)"/>
  <path d="m14.66 12h18.684c1.465 0 2.656 1.191 2.656 2.66v18.684c0 1.465-1.191 2.656-2.656 2.656h-18.684c-1.469 0-2.66-1.191-2.66-2.656v-18.684c0-1.469 1.191-2.66 2.66-2.66m0 0" fill="#f9f9f9"/>
  <path d="m14 14h14v4h-14m0-4" fill="#b2deeb"/>
  <path d="m30 14h4v4h-4m0-4" fill="#cfd6dc"/>
  <path d="m14 19h19.996v1h-19.996m0-1" fill="#d4ddde"/>
  <path d="m14 21h19.996v8h-19.996m0-8" fill="#c8c8c8"/>
  <path d="m19 30h14.996v4h-14.996m0-4" fill="#eca14b"/>
  <path d="m14 30h4v4h-4m0-4" fill="#cfd7dd"/>
</svg>
