<svg xmlns="http://www.w3.org/2000/svg" viewBox="0 0 48 48">
 <defs>
  <linearGradient id="linearGradient3764" x1="1" x2="47" gradientUnits="userSpaceOnUse" gradientTransform="matrix(0,-1,1,0,-1.5e-6,47.999998)">
   <stop style="stop-color:#e05a48;stop-opacity:1"/>
   <stop offset="1" style="stop-color:#e36959;stop-opacity:1"/>
  </linearGradient>
 </defs>
 <g>
  
  
  
 </g>
 <g>
  <path d="m 47,24 C 47,46.703 46.703,47 24,47 1.297,47 1,46.703 1,24 1,1.297 1.297,1 24,1 46.703,1 47,1.297 47,24 z" style="fill:url(#linearGradient3764);fill-opacity:1"/>
 </g>
 <g>
  <g>
   <g transform="translate(1,1)">
    <g style="opacity:0.1">
     <!-- color: #e36959 -->
     <g>
      <path d="m 14.66 12 l 18.684 0 c 1.465 0 2.656 1.191 2.656 2.66 l 0 18.684 c 0 1.465 -1.191 2.656 -2.656 2.656 l -18.684 0 c -1.469 0 -2.66 -1.191 -2.66 -2.656 l 0 -18.684 c 0 -1.469 1.191 -2.66 2.66 -2.66 m 0 0" style="fill:#000;fill-opacity:1;stroke:none;fill-rule:nonzero"/>
     </g>
    </g>
   </g>
  </g>
 </g>
 <g>
  <g>
   <!-- color: #e36959 -->
   <g>
    <path d="m 14.66,12 18.684,0 C 34.809,12 36,13.191 36,14.66 l 0,18.684 C 36,34.809 34.809,36 33.344,36 L 14.66,36 C 13.191,36 12,34.809 12,33.344 L 12,14.66 C 12,13.191 13.191,12 14.66,12 m 0,0" style="fill:#f9f9f9;fill-opacity:1;stroke:none;fill-rule:nonzero"/>
    <path d="m 14 14 14 0 0 4 -14 0 m 0 -4" style="fill:#b2deeb;fill-opacity:1;stroke:none;fill-rule:nonzero"/>
    <path d="m 30 14 4 0 0 4 -4 0 m 0 -4" style="fill:#cfd6dc;fill-opacity:1;stroke:none;fill-rule:nonzero"/>
    <path d="m 14,19 19.996,0 0,1 L 14,20 m 0,-1" style="fill:#d4ddde;fill-opacity:1;stroke:none;fill-rule:nonzero"/>
    <path d="m 14,21 19.996,0 0,8 L 14,29 m 0,-8" style="fill:#c8c8c8;fill-opacity:1;stroke:none;fill-rule:nonzero"/>
    <path d="m 19,30 14.996,0 0,4 L 19,34 m 0,-4" style="fill:#eca14b;fill-opacity:1;stroke:none;fill-rule:nonzero"/>
    <path d="m 14 30 4 0 0 4 -4 0 m 0 -4" style="fill:#cfd7dd;fill-opacity:1;stroke:none;fill-rule:nonzero"/>
   </g>
  </g>
 </g>
 <g>
  
 </g>
</svg>
