<svg xmlns="http://www.w3.org/2000/svg" viewBox="0 0 48 48">
 <defs>
  <linearGradient id="linearGradient3764" x1="1" x2="47" gradientUnits="userSpaceOnUse" gradientTransform="matrix(0,-1,1,0,-1.5e-6,47.999998)">
   <stop style="stop-color:#e4e4e4;stop-opacity:1"/>
   <stop offset="1" style="stop-color:#eee;stop-opacity:1"/>
  </linearGradient>
 </defs>
 <g>
  
  
  
 </g>
 <g>
  <path d="m 47,24 C 47,46.703 46.703,47 24,47 1.297,47 1,46.703 1,24 1,1.297 1.297,1 24,1 46.703,1 47,1.297 47,24 z" style="fill:url(#linearGradient3764);fill-opacity:1"/>
 </g>
 <g>
  <g>
   <g transform="translate(1,1)">
    <g style="opacity:0.1">
     <!-- color: #eeeeee -->
    </g>
   </g>
  </g>
 </g>
 <g>
  <g>
   <!-- color: #eeeeee -->
   <g>
    <path d="m 25 11.994 c -0.898 0 -1.625 0.727 -1.625 1.625 l 0 1.52 a 10 10 0 0 0 -8.24 8.23 l -1.51 0 c -0.898 0 -1.625 0.727 -1.625 1.625 0 0.898 0.727 1.625 1.625 1.625 l 1.52 0 a 10 10 0 0 0 8.23 8.24 l 0 1.516 c 0 0.898 0.727 1.625 1.625 1.625 0.895 0 1.625 -0.727 1.625 -1.625 l 0 -1.525 a 10 10 0 0 0 8.24 -8.23 l 1.51 0 c 0.895 0 1.625 -0.727 1.625 -1.625 0 -0.898 -0.73 -1.625 -1.625 -1.625 l -1.52 0 a 10 10 0 0 0 -8.23 -8.24 l 0 -1.51 c 0 -0.898 -0.73 -1.625 -1.625 -1.625 z m 0 5 a 8 8 0 0 1 8 8 8 8 0 0 1 -8 8 8 8 0 0 1 -8 -8 8 8 0 0 1 8 -8 z m 0 2 a 6 6 0 0 0 -6 6 6 6 0 0 0 6 6 6 6 0 0 0 6 -6 6 6 0 0 0 -6 -6 z m 0 1 a 5 5 0 0 1 5 5 5 5 0 0 1 -5 5 5 5 0 0 1 -5 -5 5 5 0 0 1 5 -5 z m 0 2 a 3 3 0 0 0 -3 3 3 3 0 0 0 3 3 3 3 0 0 0 3 -3 3 3 0 0 0 -3 -3 z" style="fill:#000;opacity:0.1;fill-opacity:1;stroke:none;fill-rule:nonzero"/>
    <path d="m 12.625 22.375 l 1.625 0 c 0.895 0 1.625 0.727 1.625 1.625 c 0 0.898 -0.73 1.625 -1.625 1.625 l -1.625 0 c -0.898 0 -1.625 -0.727 -1.625 -1.625 c 0 -0.898 0.727 -1.625 1.625 -1.625 m 0 0" style="fill:#2e3436;fill-opacity:1;stroke:none;fill-rule:nonzero"/>
    <path d="m 24 11 c 0.895 0 1.625 0.727 1.625 1.625 l 0 1.625 c 0 0.898 -0.73 1.625 -1.625 1.625 c -0.898 0 -1.625 -0.727 -1.625 -1.625 l 0 -1.625 c 0 -0.898 0.727 -1.625 1.625 -1.625 m 0 0" style="fill:#2e3436;fill-opacity:1;stroke:none;fill-rule:nonzero"/>
    <path d="m 33.75 22.375 l 1.625 0 c 0.895 0 1.625 0.727 1.625 1.625 c 0 0.898 -0.73 1.625 -1.625 1.625 l -1.625 0 c -0.898 0 -1.625 -0.727 -1.625 -1.625 c 0 -0.898 0.727 -1.625 1.625 -1.625 m 0 0" style="fill:#2e3436;fill-opacity:1;stroke:none;fill-rule:nonzero"/>
    <path d="m 24 32.13 c 0.895 0 1.625 0.727 1.625 1.625 l 0 1.625 c 0 0.898 -0.73 1.625 -1.625 1.625 c -0.898 0 -1.625 -0.727 -1.625 -1.625 l 0 -1.625 c 0 -0.898 0.727 -1.625 1.625 -1.625 m 0 0" style="fill:#2e3436;fill-opacity:1;stroke:none;fill-rule:nonzero"/>
   </g>
  </g>
 </g>
 <g>
  
 </g>
 <path d="M 24 14 A 10 10 0 0 0 14 24 A 10 10 0 0 0 24 34 A 10 10 0 0 0 34 24 A 10 10 0 0 0 24 14 z M 24 16 A 8 8 0 0 1 32 24 A 8 8 0 0 1 24 32 A 8 8 0 0 1 16 24 A 8 8 0 0 1 24 16 z M 24 21 A 3 3 0 0 0 21 24 A 3 3 0 0 0 24 27 A 3 3 0 0 0 27 24 A 3 3 0 0 0 24 21 z" style="fill:#2e3436;opacity:1;fill-opacity:1;stroke:none"/>
 <path d="M 24 18 A 6 6 0 0 0 18 24 A 6 6 0 0 0 24 30 A 6 6 0 0 0 30 24 A 6 6 0 0 0 24 18 z M 24 19 A 5 5 0 0 1 29 24 A 5 5 0 0 1 24 29 A 5 5 0 0 1 19 24 A 5 5 0 0 1 24 19 z" style="fill:#718084;opacity:1;fill-opacity:1;stroke:none"/>
</svg>
