<svg viewBox="0 0 48 48" xmlns="http://www.w3.org/2000/svg">
  <path d="m24 1c22.703 0 23 .297 23 23 0 22.703-.297 23-23 23-22.703 0-23-.297-23-23 0-22.703.297-23 23-23z" fill="#a2e193"/>
  <path d="m11 14v9 12h1v1h26v-1h1v-12-9z" opacity=".1"/>
  <path d="m10 22v12h1v1h26v-1h1v-12z" fill="#072600"/>
  <path d="m12 33h24v1h-24z" fill="#51bf3b"/>
  <path d="m10 13h28v9h-28z" fill="#136600"/>
  <path d="m11 14h26v19h-26z" fill="#d1e3ca"/>
  <path d="m13 15v3 1h1.5v2h-2.5v1h24v-1h-1v-2h-1v2h-2v-2h2v-1h-2v-2h2v-1h-2-1v6h-2v-2h-1v2h-2v-2h2v-1h-2v-2h2v-1h-2-1v6h-2v-6h-4v6h-3.5v-2h1.5v-1-3h-1v3h-2v-3zm15 1v2h1v-2zm6 0v2h1v-2zm-14 0h2v2h-2zm0 3h2v2h-2z" fill="#353535"/>
  <path d="m12 25h12v1h-12z" fill="#353535"/>
  <path d="m12 27h12v1h-12z" fill="#353535"/>
  <path d="m12 29h12v1h-12z" fill="#353535"/>
  <path d="m12 31h12v1h-12z" fill="#353535"/>
  <path d="m25 25v7h10v-7zm1 1h8v5h-8z" fill="#353535"/>
</svg>
