<svg xmlns="http://www.w3.org/2000/svg" viewBox="0 0 48 48">
 <g>
  
  
  
 </g>
 <g style="fill:#a2e193;fill-opacity:1">
  <path d="m 24 1 c 22.703 0 23 0.297 23 23 c 0 22.703 -0.297 23 -23 23 -22.703 0 -23 -0.297 -23 -23 0 -22.703 0.297 -23 23 -23 z"/>
 </g>
 <path d="m 11 14 0 9 0 12 1 0 0 1 26 0 0 -1 1 0 0 -12 0 -9 -28 0 z" style="fill:#000;opacity:0.1;fill-opacity:1;stroke:none;fill-rule:nonzero"/>
 <g>
  
 </g>
 <path d="m 10 22 l 0 12 l 1 0 l 0 1 l 26 0 l 0 -1 l 1 0 l 0 -12 l -28 0 z" style="fill:#072600;opacity:1;fill-opacity:1;stroke:none;fill-rule:nonzero"/>
 <rect width="24" height="1" x="12" y="33" style="fill:#51bf3b;opacity:1;fill-opacity:1;stroke:none;fill-rule:nonzero"/>
 <rect width="28" height="9" x="10" y="13" style="fill:#136600;opacity:1;fill-opacity:1;stroke:none;fill-rule:nonzero"/>
 <rect width="26" height="19" x="11" y="14" style="fill:#d1e3ca;opacity:1;fill-opacity:1;stroke:none;fill-rule:nonzero"/>
 <path d="m 13 15 l 0 3 l 0 1 l 1.5 0 l 0 2 l -2.5 0 l 0 1 l 24 0 l 0 -1 l -1 0 l 0 -2 l -1 0 l 0 2 l -2 0 l 0 -2 l 2 0 l 0 -1 l -2 0 l 0 -2 l 2 0 l 0 -1 l -2 0 l -1 0 l 0 6 l -2 0 l 0 -2 l -1 0 l 0 2 l -2 0 l 0 -2 l 2 0 l 0 -1 l -2 0 l 0 -2 l 2 0 l 0 -1 l -2 0 l -1 0 l 0 6 l -2 0 l 0 -6 l -4 0 l 0 6 l -3.5 0 l 0 -2 l 1.5 0 l 0 -1 l 0 -3 l -1 0 l 0 3 l -2 0 l 0 -3 l -1 0 z m 15 1 l 0 2 l 1 0 l 0 -2 l -1 0 z m 6 0 l 0 2 l 1 0 l 0 -2 l -1 0 z m -14 0 l 2 0 l 0 2 l -2 0 l 0 -2 z m 0 3 l 2 0 l 0 2 l -2 0 l 0 -2 z" style="fill:#353535;opacity:1;fill-opacity:1;stroke:none;fill-rule:nonzero"/>
 <rect width="12" height="1" x="12" y="25" style="fill:#353535;fill-opacity:1;stroke:none;fill-rule:nonzero"/>
 <rect width="12" height="1" x="12" y="27" style="fill:#353535;fill-opacity:1;stroke:none;fill-rule:nonzero"/>
 <rect width="12" height="1" x="12" y="29" style="fill:#353535;fill-opacity:1;stroke:none;fill-rule:nonzero"/>
 <rect width="12" height="1" x="12" y="31" style="fill:#353535;fill-opacity:1;stroke:none;fill-rule:nonzero"/>
 <path d="m 25 25 0 7 10 0 0 -7 z m 1 1 8 0 0 5 -8 0 z" style="fill:#353535;fill-opacity:1;stroke:none;fill-rule:nonzero"/>
</svg>
