<svg xmlns="http://www.w3.org/2000/svg" viewBox="0 0 48 48">
 <defs>
  <linearGradient id="linearGradient3764" x1="1" x2="47" gradientUnits="userSpaceOnUse" gradientTransform="matrix(0,-1,1,0,-1.5e-6,47.999998)">
   <stop style="stop-color:#ce6b20;stop-opacity:1"/>
   <stop offset="1" style="stop-color:#dd7425;stop-opacity:1"/>
  </linearGradient>
 </defs>
 <g>
  
  
  
 </g>
 <g>
  <path d="m 47,24 C 47,46.703 46.703,47 24,47 1.297,47 1,46.703 1,24 1,1.297 1.297,1 24,1 46.703,1 47,1.297 47,24 z" style="fill:url(#linearGradient3764);fill-opacity:1"/>
 </g>
 <g>
  
 </g>
 <g transform="matrix(3.543307,0,0,3.543307,3.94043e-4,-0.00196757)">
  <path d="m 4.48 3.387 c -0.139 0 -0.247 0.108 -0.247 0.247 l 0 6.844 c 0 0.139 0.108 0.247 0.247 0.247 l 5.151 0 c 0.139 0 0.247 -0.108 0.247 -0.247 l 0 -3.704 0 -1.693 -1.693 -1.693 -2.258 0 -0.564 0 -0.882 0 z" style="fill:#000;opacity:0.1;fill-opacity:1;stroke:none;fill-rule:nonzero"/>
  <path d="m 4.198 3.104 c -0.139 0 -0.247 0.108 -0.247 0.247 l 0 6.844 c 0 0.139 0.108 0.247 0.247 0.247 l 5.151 0 c 0.139 0 0.247 -0.108 0.247 -0.247 l 0 -5.398 -1.693 -1.693" style="fill:#e8e8d9;fill-opacity:1;stroke:none;fill-rule:nonzero"/>
  <path d="m 7.902 3.104 0 1.693 1.693 0" style="fill:#fff;fill-opacity:1;stroke:none;fill-rule:nonzero"/>
  <path d="m 9.596 6.491 0 -1.693 -1.693 0" style="fill:#000;fill-opacity:0.2;stroke:none;fill-rule:nonzero"/>
 </g>
 <path d="m 24 18 c -0.505 0.001 -0.955 0.317 -1.127 0.791 -0.217 -0.182 -0.491 -0.282 -0.773 -0.281 -0.662 0 -1.199 0.537 -1.199 1.199 0 0.071 0.007 0.141 0.02 0.211 -0.07 -0.013 -0.14 -0.019 -0.211 -0.02 -0.662 0 -1.199 0.537 -1.199 1.199 0.001 0.282 0.101 0.556 0.283 0.771 -0.476 0.172 -0.793 0.623 -0.793 1.129 0.001 0.505 0.317 0.955 0.791 1.127 -0.182 0.217 -0.282 0.491 -0.281 0.773 0 0.662 0.537 1.199 1.199 1.199 0.071 0 0.141 -0.007 0.211 -0.02 -0.013 0.07 -0.019 0.14 -0.02 0.211 0.001 0.623 0.479 1.141 1.1 1.193 l 0 5.516 2 -2 2 2 0 -5.516 c 0.621 -0.052 1.098 -0.57 1.1 -1.193 0 -0.071 -0.007 -0.141 -0.02 -0.211 0.07 0.013 0.14 0.019 0.211 0.02 0.662 0 1.199 -0.537 1.199 -1.199 -0.001 -0.282 -0.101 -0.556 -0.283 -0.771 0.476 -0.172 0.793 -0.623 0.793 -1.129 -0.001 -0.505 -0.317 -0.955 -0.791 -1.127 0.182 -0.217 0.282 -0.491 0.281 -0.773 0 -0.662 -0.537 -1.199 -1.199 -1.199 -0.071 0 -0.141 0.007 -0.211 0.02 0.013 -0.07 0.019 -0.14 0.02 -0.211 0 -0.662 -0.537 -1.199 -1.199 -1.199 -0.282 0.001 -0.556 0.101 -0.771 0.283 c -0.172 -0.476 -0.623 -0.793 -1.129 -0.793 m 0 2 c 1.657 0 3 1.343 3 3 0 1.657 -1.343 3 -3 3 -1.657 0 -3 -1.343 -3 -3 0 -1.657 1.343 -3 3 -3 z m 0 1 c -1.105 0 -2 0.895 -2 2 0 1.105 0.895 2 2 2 1.105 0 2 -0.895 2 -2 0 -1.105 -0.895 -2 -2 -2 z" style="fill:#aa2c2c;opacity:1;fill-opacity:1;stroke:none"/>
</svg>
