<svg viewBox="0 0 48 48" xmlns="http://www.w3.org/2000/svg" xmlns:xlink="http://www.w3.org/1999/xlink">
  <linearGradient id="a" gradientUnits="userSpaceOnUse" x1="24.342" x2="24.17" y1="47.23" y2="1.025">
    <stop offset="0" stop-color="#ffd119"/>
    <stop offset="1" stop-color="#ffd941"/>
  </linearGradient>
  <path d="m24 1c22.703 0 23 .297 23 23 0 22.703-.297 23-23 23-22.703 0-23-.297-23-23 0-22.703.297-23 23-23z" fill="url(#a)"/>
  <g opacity=".1" transform="translate(2 2)">
    <path d="m8 34h6.989l4.572-22h-6.989z"/>
    <path d="m17.22 34h6.989l4.572-22h-6.989z"/>
    <path d="m26.44 34h6.989l4.572-22h-6.989z"/>
  </g>
  <g transform="translate(1 1)">
    <path d="m8 34h6.989l4.572-22h-6.989z" fill="#d40000"/>
    <path d="m17.22 34h6.989l4.572-22h-6.989z" fill="#0a0"/>
    <path d="m26.44 34h6.989l4.572-22h-6.989z" fill="#0055d4"/>
  </g>
</svg>
