<svg viewBox="0 0 48 48" xmlns="http://www.w3.org/2000/svg" xmlns:xlink="http://www.w3.org/1999/xlink">
  <linearGradient id="a" gradientTransform="matrix(0 -1 1 0 -.0000015 47.999998)" gradientUnits="userSpaceOnUse" x1="1" x2="47">
    <stop offset="0" stop-color="#e4e4e4"/>
    <stop offset="1" stop-color="#eee"/>
  </linearGradient>
  <path d="m47 24c0 22.703-.297 23-23 23-22.703 0-23-.297-23-23 0-22.703.297-23 23-23 22.703 0 23 .297 23 23z" fill="url(#a)"/>
  <path d="m12 12v11h6v2h-6v11h11v-6h2v6h11v-11h-6v-2h6v-11h-11v6h-2v-6m-11 0" opacity=".1" transform="translate(1 1)"/>
  <path d="m12 12v11h6v2h-6v11h11v-6h2v6h11v-11h-6v-2h6v-11h-11v6h-2v-6m-11 0" fill="#b97695"/>
  <path d="m13 35v-9h6v-4h-6v-9h9v6h4v-6h9v9h-6v4h6v9h-9v-6h-4v6m-9 0" fill="#edd6e5"/>
  <path d="m14 14v7h6v6h-6v7h7v-6h6v6h7v-7h-6v-6h6v-7h-7v6h-6v-6m-7 0" fill="#8e5b70"/>
  <path d="m15 28h5v5h-5m0-5" fill="#ecdde5" fill-opacity=".8"/>
  <path d="m28 28h5v5h-5m0-5" fill="#ecdde5" fill-opacity=".8"/>
  <path d="m28 15h5v5h-5m0-5" fill="#ecdde5" fill-opacity=".8"/>
  <path d="m15 15h5v5h-5m0-5" fill="#ecdde5" fill-opacity=".8"/>
  <path d="m21 21h6v6h-6m0-6" fill="#ecdde5" fill-opacity=".8"/>
</svg>
