<svg viewBox="0 0 48 48" xmlns="http://www.w3.org/2000/svg" xmlns:xlink="http://www.w3.org/1999/xlink">
  <linearGradient id="a" gradientUnits="userSpaceOnUse" x1="1" x2="47">
    <stop offset="0" stop-color="#51627c"/>
    <stop offset="1" stop-color="#596b87"/>
  </linearGradient>
  <path d="m24 1c22.703 0 23 .297 23 23 0 22.703-.297 23-23 23-22.703 0-23-.297-23-23 0-22.703.297-23 23-23z" fill="url(#a)" transform="matrix(0 -1 1 0 0 48)"/>
  <rect fill-opacity=".098" fill-rule="evenodd" height="24" rx="2" width="24" x="13" y="13"/>
  <rect fill="#b3b3b3" fill-rule="evenodd" height="24" rx="2" width="24" x="12" y="12"/>
  <rect fill="#f9f9f9" height="6" rx="1" ry="1.2" width="18" x="15" y="26"/>
  <circle cx="19" cy="29" fill="#2d2d2d" r="2"/>
  <circle cx="24" cy="29" fill="#2d2d2d" r="2"/>
  <circle cx="29" cy="29" fill="#2d2d2d" r="2"/>
  <rect fill="#787878" height="3" rx="1" width="3" x="30" y="14"/>
  <path d="m31 16h1v6h-1z" fill="#787878"/>
  <rect fill="#787878" height="3" rx="1" width="3" x="30" y="21"/>
</svg>
