<svg xmlns="http://www.w3.org/2000/svg" viewBox="0 0 48 48">
 <defs>
  <linearGradient id="linearGradient3800" x1="1" x2="47" gradientUnits="userSpaceOnUse">
   <stop style="stop-color:#51627c;stop-opacity:1"/>
   <stop offset="1" style="stop-color:#596b87;stop-opacity:1"/>
  </linearGradient>
 </defs>
 <g>
  
  
  
 </g>
 <g transform="matrix(0,-1,1,0,0,48)" style="fill:url(#linearGradient3800);fill-opacity:1">
  <path d="M 24,1 C 46.703,1 47,1.297 47,24 47,46.703 46.703,47 24,47 1.297,47 1,46.703 1,24 1,1.297 1.297,1 24,1 z"/>
 </g>
 <g transform="translate(0.004,0)">
  <g>
   <g transform="translate(1,1)">
    <g style="opacity:0.1">
     <!-- color: #3d3d3d -->
    </g>
   </g>
  </g>
 </g>
 <g>
  <g>
   <!-- color: #3d3d3d -->
  </g>
 </g>
 <g>
  
 </g>
 <rect rx="2" y="13" x="13" height="24" width="24" style="fill:#000;fill-opacity:0.098;stroke:none;fill-rule:evenodd"/>
 <g>
  <rect rx="2" y="12" x="12" height="24" width="24" style="fill:#b3b3b3;fill-opacity:1;stroke:none;fill-rule:evenodd"/>
  <rect ry="1.2" rx="1" y="26" x="15" height="6" width="18" style="fill:#f9f9f9;fill-opacity:1;stroke:none"/>
  <circle r="2" cy="29" cx="19" style="fill:#2d2d2d;fill-opacity:1;stroke:none"/>
  <circle cx="24" cy="29" r="2" style="fill:#2d2d2d;fill-opacity:1;stroke:none"/>
  <circle r="2" cy="29" cx="29" style="fill:#2d2d2d;fill-opacity:1;stroke:none"/>
  <rect rx="1" y="14" x="30" height="3" width="3" style="fill:#787878;fill-opacity:1;stroke:none"/>
  <rect y="16" x="31" height="6" width="1" style="fill:#787878;fill-opacity:1;stroke:none"/>
  <rect width="3" height="3" x="30" y="21" rx="1" style="fill:#787878;fill-opacity:1;stroke:none"/>
 </g>
</svg>
