<svg viewBox="0 0 48 48" xmlns="http://www.w3.org/2000/svg" xmlns:xlink="http://www.w3.org/1999/xlink">
  <linearGradient id="a" gradientTransform="matrix(0 -1 1 0 -.0000015 47.999998)" gradientUnits="userSpaceOnUse" x1="1" x2="47">
    <stop offset="0" stop-color="#3d3d3d"/>
    <stop offset="1" stop-color="#474747"/>
  </linearGradient>
  <path d="m47 24c0 22.703-.297 23-23 23-22.703 0-23-.297-23-23 0-22.703.297-23 23-23 22.703 0 23 .297 23 23z" fill="url(#a)"/>
  <path d="m30.5 12.998v.002c-4.719-.008-6.5 3.383-6.5 6v4h-4v-1h-4v1h-3v1h3v1h-3v .996h3v1h4v-1h4c0 1.333 0 2.667 0 4h-1v4h1v3h1v-3h1v3h1v-3h1v-4h-1c0-1.333 0-2.667 0-4h4c2.867-.07 6.04-1.526 6-6.438 0-2.563-2.098-6.579-6.5-6.564zm0 1c2.5 0 5.5 2.27 5.5 5.531-.055 3.59-1.914 5.379-5.469 5.469h-3.531v-.998h3c1.574.066 5-.547 5-4.469 0-1.754-1.777-4.531-4.594-4.531-2.246.016-4.406 2-4.406 4v4h-1v-3.502c-.039-3.707 2.699-5.523 5.5-5.5zm-.063 2v .002c1.727 0 3.563 1.867 3.563 3.469.043 3.188-2.203 3.531-4.438 3.531h-2.564v-3.438c0-2.227 1.735-3.564 3.439-3.564zm-10.438 8h4v1h-4zm5 0h1v .998h-1zm0 2h1c0 1.333 0 2.667 0 4h-1c0-1.333 0-2.667 0-4z" opacity=".1" transform=""/>
  <path d="m23 33h1v3h-1m0-3" fill="#9c9c9c"/>
  <path d="m25 33h1v3h-1m0-3" fill="#9c9c9c"/>
  <path d="m23 27v2h-1v4h5v-4h-1v-2h-1v2h-1v-2m-1 0" fill="#121212"/>
  <path d="m23 34h1v1h-1m0-1" fill="#868686"/>
  <path d="m25 34h1v1h-1m0-1" fill="#868686"/>
  <path d="m15 22v1h-3v-1m3 0" fill="#9c9c9c"/>
  <path d="m15 24v .996h-3v-.996m3 0" fill="#9c9c9c"/>
  <path d="m15 21v5h4v-1h2v-1h-2v-1h2v-1h-2v-1m-4 0" fill="#121212"/>
  <path d="m14 22v1h-1v-1m1 0" fill="#868686"/>
  <path d="m14 24v .996h-1v-.996m1 0" fill="#868686"/>
  <path d="m29.5 12c-4.719-.008-6.5 3.383-6.5 6v6h-2v1h2v2h1v-2h6c2.867-.07 6.04-1.527 6-6.438 0-2.563-2.098-6.578-6.5-6.563m0 1c2.5 0 5.5 2.27 5.5 5.531-.055 3.59-1.914 5.379-5.469 5.469h-5.531v-5.5c-.039-3.707 2.699-5.523 5.5-5.5m0 0" fill="#70c126"/>
  <path d="m29.406 14c-2.246.016-4.406 2-4.406 4v4h-4v1h4v4h1v-4h3c1.574.066 5-.547 5-4.469 0-1.754-1.777-4.531-4.594-4.531m.031 1c1.727 0 3.563 1.867 3.563 3.469.043 3.188-2.203 3.531-4.438 3.531h-2.563v-3.438c0-2.227 1.734-3.563 3.438-3.563m0 0" fill="#f9f9f9"/>
</svg>
