<svg xmlns="http://www.w3.org/2000/svg" viewBox="0 0 48 48">
 <defs>
  <linearGradient id="linearGradient3764" x1="1" x2="47" gradientUnits="userSpaceOnUse" gradientTransform="matrix(0,-1,1,0,-1.5e-6,47.999998)">
   <stop style="stop-color:#3e4d8e;stop-opacity:1"/>
   <stop offset="1" style="stop-color:#44549c;stop-opacity:1"/>
  </linearGradient>
 </defs>
 <g>
  
  
  
 </g>
 <g>
  <path d="m 47,24 C 47,46.703 46.703,47 24,47 1.297,47 1,46.703 1,24 1,1.297 1.297,1 24,1 46.703,1 47,1.297 47,24 z" style="fill:url(#linearGradient3764);fill-opacity:1"/>
 </g>
 <g>
  
 </g>
 <path d="m 25 16.999 c -10 0 -13 3.01 -13 15.506 0 1.997 7 -2.5 9 -5.5 l 8 0 c 2 3 9 7.47 9 5.5 0 -12.5 -3 -15.506 -13 -15.506 z m 6 3 a 1 1 0 0 1 1 1 1 1 0 0 1 -1 1 1 1 0 0 1 -1 -1 1 1 0 0 1 1 -1 z m -12 0.01 1 0 0 2 2 0 0 1 -2 0 0 2 -1 0 0 -2 -2 0 0 -1 2 0 0 -2 z m 10 1.99 a 1 1 0 0 1 1 1 1 1 0 0 1 -1 1 1 1 0 0 1 -1 -1 1 1 0 0 1 1 -1 z m 4 0 a 1 1 0 0 1 1 1 1 1 0 0 1 -1 1 1 1 0 0 1 -1 -1 1 1 0 0 1 1 -1 z m -2 2 a 1 1 0 0 1 1 1 1 1 0 0 1 -1 1 1 1 0 0 1 -1 -1 1 1 0 0 1 1 -1 z" style="fill:#000;opacity:0.1;fill-opacity:1"/>
 <path d="m 24 16 c -10 0 -13 3.01 -13 15.506 c 0 1.997 7 -2.5 9 -5.5 l 8 0 c 2 3 9 7.47 9 5.5 c 0 -12.5 -3 -15.506 -13 -15.506 z m 6 3 a 1 1 0 0 1 1 1 a 1 1 0 0 1 -1 1 a 1 1 0 0 1 -1 -1 a 1 1 0 0 1 1 -1 z m -12 0.01 l 1 0 l 0 2 l 2 0 l 0 1 l -2 0 l 0 2 l -1 0 l 0 -2 l -2 0 l 0 -1 l 2 0 l 0 -2 z m 10 1.99 a 1 1 0 0 1 1 1 a 1 1 0 0 1 -1 1 a 1 1 0 0 1 -1 -1 a 1 1 0 0 1 1 -1 z m 4 0 a 1 1 0 0 1 1 1 a 1 1 0 0 1 -1 1 a 1 1 0 0 1 -1 -1 a 1 1 0 0 1 1 -1 z m -2 2 a 1 1 0 0 1 1 1 a 1 1 0 0 1 -1 1 a 1 1 0 0 1 -1 -1 a 1 1 0 0 1 1 -1 z" style="fill:#ececec;fill-opacity:1"/>
</svg>
