<svg viewBox="0 0 48 48" xmlns="http://www.w3.org/2000/svg" xmlns:xlink="http://www.w3.org/1999/xlink">
  <linearGradient id="a" gradientTransform="matrix(0 -1 1 0 -.0000015 47.999998)" gradientUnits="userSpaceOnUse" x1="1" x2="47">
    <stop offset="0" stop-color="#3e4d8e"/>
    <stop offset="1" stop-color="#44549c"/>
  </linearGradient>
  <path d="m47 24c0 22.703-.297 23-23 23-22.703 0-23-.297-23-23 0-22.703.297-23 23-23 22.703 0 23 .297 23 23z" fill="url(#a)"/>
  <path d="m25 16.999c-10 0-13 3.01-13 15.506 0 1.997 7-2.5 9-5.5h8c2 3 9 7.47 9 5.5 0-12.5-3-15.506-13-15.506zm6 3a1 1 0 0 1 1 1 1 1 0 0 1-1 1 1 1 0 0 1-1-1 1 1 0 0 1  1-1zm-12 .01h1v2h2v1h-2v2h-1v-2h-2v-1h2zm10 1.99a1 1 0 0 1 1 1 1 1 0 0 1-1 1 1 1 0 0 1-1-1 1 1 0 0 1  1-1zm4 0a1 1 0 0 1 1 1 1 1 0 0 1-1 1 1 1 0 0 1-1-1 1 1 0 0 1  1-1zm-2 2a1 1 0 0 1 1 1 1 1 0 0 1-1 1 1 1 0 0 1-1-1 1 1 0 0 1  1-1z" opacity=".1"/>
  <path d="m24 16c-10 0-13 3.01-13 15.506 0 1.997 7-2.5 9-5.5h8c2 3 9 7.47 9 5.5 0-12.5-3-15.506-13-15.506zm6 3a1 1 0 0 1 1 1 1 1 0 0 1-1 1 1 1 0 0 1-1-1 1 1 0 0 1  1-1zm-12 .01h1v2h2v1h-2v2h-1v-2h-2v-1h2zm10 1.99a1 1 0 0 1 1 1 1 1 0 0 1-1 1 1 1 0 0 1-1-1 1 1 0 0 1  1-1zm4 0a1 1 0 0 1 1 1 1 1 0 0 1-1 1 1 1 0 0 1-1-1 1 1 0 0 1  1-1zm-2 2a1 1 0 0 1 1 1 1 1 0 0 1-1 1 1 1 0 0 1-1-1 1 1 0 0 1  1-1z" fill="#ececec"/>
</svg>
