<svg xmlns="http://www.w3.org/2000/svg" viewBox="0 0 48 48">
 <defs>
  <linearGradient id="linearGradient3764" x1="1" x2="47" gradientUnits="userSpaceOnUse" gradientTransform="matrix(0,-1,1,0,-1.5e-6,47.999998)">
   <stop style="stop-color:#e4e4e4;stop-opacity:1"/>
   <stop offset="1" style="stop-color:#eee;stop-opacity:1"/>
  </linearGradient>
 </defs>
 <g>
  
  
  
 </g>
 <g>
  <path d="m 47,24 C 47,46.703 46.703,47 24,47 1.297,47 1,46.703 1,24 1,1.297 1.297,1 24,1 46.703,1 47,1.297 47,24 z" style="fill:url(#linearGradient3764);fill-opacity:1"/>
 </g>
 <g>
  
 </g>
 <path d="m 12 13 -0.002 0.004 0.002 0 z m 0 0.004 0 7.996 2 0 0 2 -2 0 0 14 26 0 0 -14 -23 0 -0.002 -1.996 5 0 0 -8 -7.998 0 z m 1 10.996 3 0 0 1 -3 0 z m 4 0 16 0 0 2 4 0 0 10 -20 0 0 -2 -4 0 0 -8 4 0 z m 1.5 2 c -0.277 0 -0.5 0.223 -0.5 0.5 0 0.277 0.223 0.5 0.5 0.5 l 0.5 0 0 6 -0.5 0 c -0.277 0 -0.5 0.223 -0.5 0.5 0 0.277 0.223 0.5 0.5 0.5 l 3 0 c 0.277 0 0.5 -0.223 0.5 -0.5 0 -0.277 -0.223 -0.5 -0.5 -0.5 l -1.5 0 0 -2 1.5 0 c 1.5 0 2.5 -1 2.5 -2.5 0 -1.5 -1 -2.5 -2.5 -2.5 z m 12 0 c -0.277 0 -0.5 0.223 -0.5 0.5 0 0.277 0.223 0.5 0.5 0.5 l 0.5 0 0 1.77 c -0.549 -0.494 -1.261 -0.769 -2 -0.77 -1.657 -0.001 -3 1.343 -3 3 0 1.657 1.343 3 3 3 0.738 0 1.451 -0.274 2 -0.768 l 0 0.768 1.5 0 c 0.277 0 0.5 -0.223 0.5 -0.5 0 -0.277 -0.223 -0.5 -0.5 -0.5 l -0.5 0 0 -7 z m -10.5 1 1.5 0 c 1 0 1.5 0.72 1.5 1.5 0 0.78 -0.5 1.5 -1.5 1.5 l -1.5 0 z m 9 2 c 1.105 0 2 0.895 2 2 0 1.105 -0.895 2 -2 2 -1.105 0 -2 -0.895 -2 -2 0 -1.105 0.895 -2 2 -2 z" style="fill:#000;opacity:0.1;fill-opacity:1;stroke:none;fill-rule:evenodd"/>
 <rect width="7.485" height="7.485" x="11.297" y="12.344" rx="0" style="fill:#38ce40;fill-opacity:1;stroke:none;fill-rule:evenodd"/>
 <path d="m 11 12 0 8 2 0 0 2 -2 0 0 14 26 0 0 -14 -23 0 -0.001 -1.996 5 0 0 -8 -8 0 z m 1 1 3 0 3 0 0 3 0 3 -3 0 -3 0 0 -3 z m 0 3 c 0 1.657 1.343 3 3 3 1.657 0 3 -1.343 3 -3 0 -1.657 -1.343 -3 -3 -3 -1.657 0 -3 1.343 -3 3 z m 3 -2 c 1.105 0 2 0.895 2 2 0 1.105 -0.895 2 -2 2 -1.105 0 -2 -0.895 -2 -2 0 -1.105 0.895 -2 2 -2 z m -3 9 3 0 0 1 -3 0 z m 4 0 16 0 0 2 4 0 0 10 -20 0 0 -2 -4 0 0 -8 4 0 z" style="fill:#353535;fill-opacity:1;stroke:none;fill-rule:evenodd"/>
 <path d="m 17.501 25 c -0.277 0 -0.5 0.223 -0.5 0.5 0 0.277 0.223 0.5 0.5 0.5 l 0.5 0 0 6 -0.5 0 c -0.277 0 -0.5 0.223 -0.5 0.5 0 0.277 0.223 0.5 0.5 0.5 l 3 0 c 0.277 0 0.5 -0.223 0.5 -0.5 0 -0.277 -0.223 -0.5 -0.5 -0.5 l -1.5 0 0 -2 1.5 0 c 1.5 0 2.5 -1 2.5 -2.5 0 -1.5 -1 -2.5 -2.5 -2.5 z m 1.5 1 1.5 0 c 1 0 1.5 0.72 1.5 1.5 0 0.78 -0.5 1.5 -1.5 1.5 l -1.5 0 z" style="fill:#353535;opacity:1;fill-opacity:1;stroke:none"/>
 <path d="m 29.501 25 c -0.277 0 -0.5 0.223 -0.5 0.5 0 0.277 0.223 0.5 0.5 0.5 l 0.5 0 0 1.77 c -0.549 -0.494 -1.261 -0.769 -2 -0.77 c -1.657 -0.001 -3 1.343 -3 3 0 1.657 1.343 3 3 3 0.738 0 1.451 -0.274 2 -0.768 l 0 0.768 1.5 0 c 0.277 0 0.5 -0.223 0.5 -0.5 0 -0.277 -0.223 -0.5 -0.5 -0.5 l -0.5 0 0 -7 z m -1.5 3 c 1.105 0 2 0.895 2 2 0 1.105 -0.895 2 -2 2 -1.105 0 -2 -0.895 -2 -2 0 -1.105 0.895 -2 2 -2 z" style="fill:#353535;opacity:1;fill-opacity:1;stroke:none"/>
</svg>
