<svg viewBox="0 0 48 48" xmlns="http://www.w3.org/2000/svg" xmlns:xlink="http://www.w3.org/1999/xlink">
  <linearGradient id="a" gradientTransform="matrix(0 -1 1 0 -.0000015 47.999998)" gradientUnits="userSpaceOnUse" x1="1" x2="47">
    <stop offset="0" stop-color="#e4e4e4"/>
    <stop offset="1" stop-color="#eee"/>
  </linearGradient>
  <path d="m47 24c0 22.703-.297 23-23 23-22.703 0-23-.297-23-23 0-22.703.297-23 23-23 22.703 0 23 .297 23 23z" fill="url(#a)"/>
  <path d="m12 13l-.002.004h.002zm0 .004v7.996h2v2h-2v14h26v-14h-23l-.002-1.996h5v-8zm1 10.996h3v1h-3zm4 0h16v2h4v10h-20v-2h-4v-8h4zm1.5 2c-.277 0-.5.223-.5.5 0 .277.223.5.5.5h.5v6h-.5c-.277 0-.5.223-.5.5 0 .277.223.5.5.5h3c .277 0 .5-.223.5-.5 0-.277-.223-.5-.5-.5h-1.5v-2h1.5c1.5 0 2.5-1 2.5-2.5 0-1.5-1-2.5-2.5-2.5zm12 0c-.277 0-.5.223-.5.5 0 .277.223.5.5.5h.5v1.77c-.549-.494-1.261-.769-2-.77-1.657-.001-3 1.343-3 3 0 1.657 1.343 3 3 3 .738 0 1.451-.274 2-.768v.768h1.5c.277 0 .5-.223.5-.5 0-.277-.223-.5-.5-.5h-.5v-7zm-10.5 1h1.5c1 0 1.5.72 1.5 1.5 0 .78-.5 1.5-1.5 1.5h-1.5zm9 2c1.105 0 2 .895 2 2 0 1.105-.895 2-2 2-1.105 0-2-.895-2-2 0-1.105.895-2 2-2z" fill-rule="evenodd" opacity=".1"/>
  <path d="m11.297 12.344h7.485v7.485h-7.485z" fill="#38ce40" fill-rule="evenodd"/>
  <path d="m11 12v8h2v2h-2v14h26v-14h-23l-.001-1.996h5v-8h-8zm1 1h3 3v3 3h-3-3v-3zm0 3c0 1.657 1.343 3 3 3 1.657 0 3-1.343 3-3 0-1.657-1.343-3-3-3-1.657 0-3 1.343-3 3zm3-2c1.105 0 2 .895 2 2 0 1.105-.895 2-2 2-1.105 0-2-.895-2-2 0-1.105.895-2 2-2zm-3 9h3v1h-3zm4 0h16v2h4v10h-20v-2h-4v-8h4z" fill="#353535" fill-rule="evenodd"/>
  <path d="m17.501 25c-.277 0-.5.223-.5.5 0 .277.223.5.5.5h.5v6h-.5c-.277 0-.5.223-.5.5 0 .277.223.5.5.5h3c .277 0 .5-.223.5-.5 0-.277-.223-.5-.5-.5h-1.5v-2h1.5c1.5 0 2.5-1 2.5-2.5 0-1.5-1-2.5-2.5-2.5zm1.5 1h1.5c1 0 1.5.72 1.5 1.5 0 .78-.5 1.5-1.5 1.5h-1.5z" fill="#353535"/>
  <path d="m29.501 25c-.277 0-.5.223-.5.5 0 .277.223.5.5.5h.5v1.77c-.549-.494-1.261-.769-2-.77-1.657-.001-3 1.343-3 3 0 1.657 1.343 3 3 3 .738 0 1.451-.274 2-.768v.768h1.5c.277 0 .5-.223.5-.5 0-.277-.223-.5-.5-.5h-.5v-7zm-1.5 3c1.105 0 2 .895 2 2 0 1.105-.895 2-2 2-1.105 0-2-.895-2-2 0-1.105.895-2 2-2z" fill="#353535"/>
</svg>
