<svg xmlns="http://www.w3.org/2000/svg" viewBox="0 0 48 48">
 <defs>
  <linearGradient id="linearGradient3764" x1="1" x2="47" gradientUnits="userSpaceOnUse" gradientTransform="matrix(0,-1,1,0,-1.5e-6,47.999998)">
   <stop style="stop-color:#e4e4e4;stop-opacity:1"/>
   <stop offset="1" style="stop-color:#eee;stop-opacity:1"/>
  </linearGradient>
 </defs>
 <g>
  
  
  
 </g>
 <g>
  <path d="m 47,24 C 47,46.703 46.703,47 24,47 1.297,47 1,46.703 1,24 1,1.297 1.297,1 24,1 46.703,1 47,1.297 47,24 z" style="fill:url(#linearGradient3764);fill-opacity:1"/>
 </g>
 <g>
  
 </g>
 <path d="m 12 18 0 14 26 0 0 -14 z m 5 1 16 0 0 2 4 0 0 8 -4 0 0 2 -16 0 0 -2 -4 0 0 -8 4 0 z m 1.5 2 c -0.277 0 -0.5 0.223 -0.5 0.5 0 0.277 0.223 0.5 0.5 0.5 l 0.5 0 0 6 -0.5 0 c -0.277 0 -0.5 0.223 -0.5 0.5 0 0.277 0.223 0.5 0.5 0.5 l 3 0 c 0.277 0 0.5 -0.223 0.5 -0.5 0 -0.277 -0.223 -0.5 -0.5 -0.5 l -1.5 0 0 -2 1.5 0 c 1.5 0 2.5 -1 2.5 -2.5 0 -1.5 -1 -2.5 -2.5 -2.5 m 8 0 c -0.277 0 -0.5 0.223 -0.5 0.5 0 0.277 0.223 0.5 0.5 0.5 l 0.5 0 0 1.77 c -0.549 -0.494 -1.261 -0.769 -2 -0.77 c -1.657 -0.001 -3 1.343 -3 3 0 1.657 1.343 3 3 3 0.738 0 1.451 -0.274 2 -0.768 l 0 0.768 1.5 0 c 0.277 0 0.5 -0.223 0.5 -0.5 0 -0.277 -0.777 -0.5 -0.5 -0.5 l -0.5 0 0 -7 z m -9.5 1 1.5 0 c 1 0 1.5 0.72 1.5 1.5 0 0.78 -0.5 1.5 -1.5 1.5 l -1.5 0 m 8 -1 c 1.105 0 2 0.895 2 2 0 1.105 -0.895 2 -2 2 -1.105 0 -2 -0.895 -2 -2 0 -1.105 0.895 -2 2 -2 z" style="fill:#000;opacity:0.1;fill-opacity:1;stroke:none;fill-rule:evenodd"/>
 <path d="m 11 17 l 0 14 l 26 0 l 0 -14 l -26 0 z m 5 1 l 16 0 l 0 2 l 4 0 l 0 8 l -4 0 l 0 2 l -16 0 l 0 -2 l -4 0 l 0 -8 l 4 0 l 0 -2 z" style="fill:#353535;fill-opacity:1;stroke:none;fill-rule:evenodd"/>
 <path d="m 17.501 20 c -0.277 0 -0.5 0.223 -0.5 0.5 0 0.277 0.223 0.5 0.5 0.5 l 0.5 0 0 6 -0.5 0 c -0.277 0 -0.5 0.223 -0.5 0.5 0 0.277 0.223 0.5 0.5 0.5 l 3 0 c 0.277 0 0.5 -0.223 0.5 -0.5 0 -0.277 -0.223 -0.5 -0.5 -0.5 l -1.5 0 0 -2 1.5 0 c 1.5 0 2.5 -1 2.5 -2.5 0 -1.5 -1 -2.5 -2.5 -2.5 z m 1.5 1 1.5 0 c 1 0 1.5 0.72 1.5 1.5 0 0.78 -0.5 1.5 -1.5 1.5 l -1.5 0 z" style="fill:#353535;opacity:1;fill-opacity:1;stroke:none"/>
 <path d="m 28.501 20 c -0.277 0 -0.5 0.223 -0.5 0.5 0 0.277 0.223 0.5 0.5 0.5 l 0.5 0 0 1.77 c -0.549 -0.494 -1.261 -0.769 -2 -0.77 -1.657 -0.001 -3 1.343 -3 3 0 1.657 1.343 3 3 3 0.738 0 1.451 -0.274 2 -0.768 l 0 0.768 1.5 0 c 0.277 0 0.5 -0.223 0.5 -0.5 0 -0.277 -0.223 -0.5 -0.5 -0.5 l -0.5 0 0 -7 z m -1.5 3 c 1.105 0 2 0.895 2 2 0 1.105 -0.895 2 -2 2 -1.105 0 -2 -0.895 -2 -2 0 -1.105 0.895 -2 2 -2 z" style="fill:#353535;opacity:1;fill-opacity:1;stroke:none"/>
</svg>
