<svg viewBox="0 0 48 48" xmlns="http://www.w3.org/2000/svg">
  <path d="m24 1c22.703 0 23 .297 23 23 0 22.703-.297 23-23 23-22.703 0-23-.297-23-23 0-22.703.297-23 23-23z" fill="#5e5e5e"/>
  <path d="m27.562 13c-.602.011-1.133.158-1.5.438.019.012.067.015.094.031l7.844 4.625c.14-1.243-1.078-2.93-3-4.063-1.205-.707-2.434-1.05-3.438-1.031zm-1.219 1.25c-.438-.055-.89.146-1.125.563l-6.125 10.844c-.313.555-.133 1.247.406 1.563l.5.313c.539.32 1.214.113 1.531-.438l6.125-10.844c.313-.551.137-1.242-.406-1.563l-.5-.313c-.136-.079-.26-.107-.406-.125zm2.781 1.656c-.438-.056-.89.146-1.125.563l-6.125 10.844c-.313.555-.102 1.242.438 1.563l.469.281c.539.32 1.25.149 1.563-.406l6.125-10.844c.313-.555.137-1.274-.406-1.594l-.5-.281c-.136-.08-.291-.106-.438-.125zm2.813 1.625c-.438-.055-.89.149-1.125.563l-6.125 10.844c-.313.551-.133 1.274.406 1.594l.5.281c.539.316 1.218.149 1.531-.406l6.125-10.844c.313-.555.137-1.278-.406-1.594l-.5-.281c-.136-.08-.26-.138-.406-.156zm-13.656 9.625l-.219 9.844 8.219-5.125z" fill-rule="evenodd" opacity=".1"/>
  <path d="m30.01 13.04c1.922 1.133 3.117 2.816 2.977 4.059l-7.84-4.625c-.027-.016-.051-.027-.07-.039.98-.746 3.01-.527 4.938.605m-.004 0" fill="#fff" fill-rule="evenodd"/>
  <path d="m31.844 16.98l-.492-.293c-.543-.32-1.234-.129-1.547.422l-6.125 10.84c-.313.551-.125 1.258.414 1.578l.496.293c.539.316 1.234.129 1.547-.426l6.121-10.836c.313-.555.129-1.262-.414-1.578m0 0" fill="#fff" fill-rule="evenodd"/>
  <path d="m29.05 15.328l-.492-.289c-.543-.32-1.234-.133-1.547.422l-6.125 10.836c-.313.555-.125 1.262.414 1.582l.496.289c.539.32 1.234.133 1.547-.422l6.121-10.836c.313-.555.129-1.262-.414-1.582m0 0" fill="#fff" fill-rule="evenodd"/>
  <path d="m26.25 13.68l-.492-.293c-.543-.316-1.234-.129-1.547.426l-6.125 10.836c-.313.555-.125 1.262.414 1.578l.496.293c.539.32 1.23.129 1.547-.422l6.121-10.84c.313-.551.129-1.258-.414-1.578m0 0" fill="#fff" fill-rule="evenodd"/>
  <path d="m25.281 30.875l-7.988-4.707-.238 9.832 8.227-5.125" fill="#fff" fill-rule="evenodd"/>
</svg>
