<svg viewBox="0 0 48 48" xmlns="http://www.w3.org/2000/svg" xmlns:xlink="http://www.w3.org/1999/xlink">
  <defs>
    <linearGradient id="a" gradientTransform="matrix(0 -1 1 0 -.0000015 47.999998)" gradientUnits="userSpaceOnUse" x1="1" x2="47">
      <stop offset="0" stop-color="#3d3d3d"/>
      <stop offset="1" stop-color="#474747"/>
    </linearGradient>
    <path id="b" d="m25.535 24.98c-1.082-.23-2.141.461-2.367 1.543l-1.238 5.871c-.23 1.086.461 2.141 1.543 2.371l1.957.414c1.086.23 2.141-.461 2.371-1.547l1.238-5.871c.23-1.086-.461-2.141-1.547-2.371m-1.773 1.16l.977.203c.543.113.887.645.773 1.184l-1.031 4.895c-.113.543-.641.887-1.184.773l-.98-.207c-.539-.113-.883-.641-.77-1.184l1.031-4.891c.113-.543.641-.887 1.184-.773m0 0"/>
  </defs>
  <path d="m47 24c0 22.703-.297 23-23 23-22.703 0-23-.297-23-23 0-22.703.297-23 23-23 22.703 0 23 .297 23 23z" fill="url(#a)"/>
  <g opacity=".1" transform="translate(1 1)">
    <path d="m14.15 11c0 0-1.152 0-1.152 1.082v23.832c0 0 0 1.086 1.152 1.086h20.699c0 0 1.152 0 1.152-1.086v-16.25l-9.199-8.664c-4.273-.004-10.05-.004-12.648-.004m-.004.004"/>
    <use xlink:href="#b"/>
    <path d="m23.594 19.375l-.688 1.594c.23.043.465.148.625.344l.566.699.664-1.559-.387-.484c-.219-.27-.488-.473-.781-.594m0 0"/>
  </g>
  <path d="m14.15 11c0 0-1.152 0-1.152 1.082v23.832c0 0 0 1.086 1.152 1.086h20.699c0 0 1.152 0 1.152-1.086v-16.25l-9.199-8.664c-4.273-.004-10.05-.004-12.648-.004m-.004.004" fill="#f9f9f9"/>
  <path d="m36 19.664l-9.199-8.664c-.004 4.332 0 6.496 0 7.582 0 1.082 0 1.082 1.152 1.082 1.152 0 4.711.016 8.05 0m-.004 0" fill="#dedede"/>
  <use fill="#b20404" height="48" width="48" xlink:href="#b"/>
  <path d="m20.01 20.949c-.859.695-.988 1.953-.289 2.813l3.781 4.656c.688.859 1.945.988 2.813.289l1.551-1.262c.863-.695.988-1.953.293-2.813l-3.781-4.656c-.699-.859-1.953-.988-2.813-.289m-.223 2.109l.77-.629c.438-.352 1.063-.285 1.406.145l3.152 3.879c.352.43.285 1.059-.145 1.406l-.773.633c-.43.352-1.059.285-1.41-.145l-3.152-3.879c-.352-.43-.281-1.059.148-1.41m0 0" fill="#a20303"/>
  <path d="m23.469 13.441c-1.016-.441-2.191.016-2.637 1.031l-2.41 5.492c-.441 1.016.016 2.191 1.027 2.637l1.832.805c1.012.445 2.191-.012 2.637-1.027l2.41-5.496c.441-1.012-.016-2.188-1.027-2.637m-1.98.77l.914.402c.508.223.738.809.516 1.316l-2 4.578c-.227.508-.813.738-1.32.516l-.914-.402c-.508-.223-.738-.813-.512-1.316l2-4.578c.223-.508.813-.738 1.316-.516m0 0" fill="#b20404"/>
  <path d="m23.594 19.375l-.688 1.594c.23.043.465.148.625.344l.566.699.664-1.559-.387-.484c-.219-.27-.488-.473-.781-.594m0 0" fill="#a20303"/>
  <use fill="#b20404" height="48" width="48" xlink:href="#b"/>
</svg>
