<svg xmlns="http://www.w3.org/2000/svg" viewBox="0 0 48 48">
 <defs>
  <linearGradient id="linearGradient3764" x1="1" x2="47" gradientUnits="userSpaceOnUse" gradientTransform="matrix(0,-1,1,0,-1.5e-6,47.999998)">
   <stop style="stop-color:#3d3d3d;stop-opacity:1"/>
   <stop offset="1" style="stop-color:#474747;stop-opacity:1"/>
  </linearGradient>
 </defs>
 <g>
  
  
  
 </g>
 <g>
  <path d="m 47,24 C 47,46.703 46.703,47 24,47 1.297,47 1,46.703 1,24 1,1.297 1.297,1 24,1 46.703,1 47,1.297 47,24 z" style="fill:url(#linearGradient3764);fill-opacity:1"/>
 </g>
 <g>
  <g>
   <g transform="translate(1,1)">
    <g style="opacity:0.1">
     <!-- color: #474747 -->
     <g>
      <path d="m 15.15 11.996 l -0.004 0.004 c 0 0 -1.152 0 -1.152 1.082 l 0 23.832 c 0 0 0 1.086 1.152 1.086 l 20.699 0 c 0 0 1.152 0 1.152 -1.086 l 0 -2.285 l 2.432 0 c 0 0 0.563 -0.324 0.563 -2 c 0 -1.609 -0.633 -1.996 -0.633 -1.996 l -2.361 0 l 0 -9.969 l -9.199 -8.664 c -4.273 -0.004 -10.05 -0.004 -12.648 -0.004 z" transform="translate(-1,-1)"/>
     </g>
    </g>
   </g>
  </g>
 </g>
 <g transform="translate(4.4277701e-4,0)">
  <g>
   <!-- color: #474747 -->
   <g>
    <path d="m 14.15,11 c 0,0 -1.152,0 -1.152,1.082 l 0,23.832 c 0,0 0,1.086 1.152,1.086 l 20.699,0 c 0,0 1.152,0 1.152,-1.086 l 0,-16.25 L 26.802,11 C 22.529,10.996 16.752,10.996 14.154,10.996 M 14.15,11" style="fill:#f9f9f9;fill-opacity:1;stroke:none;fill-rule:nonzero"/>
    <path d="m 38.434 33.629 c 0 0 0.563 -0.324 0.563 -2 0 -1.609 -0.633 -1.996 -0.633 -1.996 l -15.07 0 -4.297 1.996 4.297 2 m 15.14 0" style="fill:#ff6f03;fill-opacity:1;stroke:none;fill-rule:nonzero"/>
    <path d="m 23 29.789 -4 1.844 4 1.844 m 0 -3.688" style="fill:#ffc13d;fill-opacity:1;stroke:none;fill-rule:nonzero"/>
    <path d="m 21 30.688 -2 0.938 2 0.938 m 0 -1.875" style="fill:#2d2d2d;fill-opacity:1;stroke:none;fill-rule:nonzero"/>
    <path d="m 36 29.629 0 4 2.438 0 c 0 0 0.563 -0.324 0.563 -2 0 -1.613 -0.625 -2 -0.625 -2 m -2.375 0" style="fill:#ff2d5b;fill-opacity:1;stroke:none;fill-rule:nonzero"/>
    <path d="m 24.531 13.02 c 0 0 0.691 6.371 -4.191 14.777 -4.883 8.41 -6.316 7.281 -6.828 6.992 -0.516 -0.293 -1.176 -1.238 0.992 -3.133 2.164 -1.891 3.01 -1.855 3.01 -1.855 0 0 -1.98 1.199 -2.754 2.367 -0.773 1.164 -1.398 1.891 -1.211 2.219 0.184 0.328 2.395 -1.34 3.313 -2.762 1.457 -2.254 4.211 -6.449 5.496 -10.453 1.285 -4 2.172 -8.152 2.172 -8.152 m 0.004 0" style="fill:#c72f2f;fill-opacity:1;stroke:none;fill-rule:nonzero"/>
    <path d="m 23.375 11 c -0.191 0.035 -0.359 0.219 -0.563 0.563 -0.406 0.691 -0.613 2.613 -0.281 4.469 0.328 1.859 1.688 6.129 3.375 8.094 1.688 1.965 5.066 3.68 7.563 4.188 1.289 0.266 2.078 0.086 2.531 -0.125 l 0 -0.219 c -0.199 0.02 -0.473 0 -0.844 -0.031 -1.285 -0.109 -6.258 -1.668 -8.938 -4.875 -2.68 -3.203 -2.91 -7.613 -3.094 -9.906 -0.184 -2.293 0.82 -1.664 0.969 -1.375 0.113 0.105 0.223 0.32 0.281 0.5 -0.055 -0.305 -0.133 -0.727 -0.406 -1 -0.203 -0.191 -0.402 -0.313 -0.594 -0.273 m 0 0" style="fill:#c72f2f;fill-opacity:1;stroke:none;fill-rule:nonzero"/>
    <path d="m 32.531,25.75 c -3.633,0.109 -3.91,0.254 -7.25,0.875 -3.34,0.617 -4.969,1.969 -4.969,1.969 0,0 4.848,-1.563 9.438,-2 3.863,-0.367 5.559,-0.074 6.25,0.219 l 0,-0.875 C 35.402,25.77 34.379,25.696 32.531,25.75 m 0,0" style="fill:#c72f2f;fill-opacity:1;stroke:none;fill-rule:nonzero"/>
    <path d="M 36,19.664 26.801,11 c -0.004,4.332 0,6.496 0,7.582 0,1.082 0,1.082 1.152,1.082 1.152,0 4.711,0.016 8.05,0 m -0.004,0" style="fill:#dedede;fill-opacity:1;stroke:none;fill-rule:nonzero"/>
   </g>
  </g>
 </g>
 <g>
  
 </g>
</svg>
