<svg viewBox="0 0 48 48" xmlns="http://www.w3.org/2000/svg" xmlns:xlink="http://www.w3.org/1999/xlink">
  <linearGradient id="a" gradientUnits="userSpaceOnUse" x2="0" y1="1" y2="47">
    <stop offset="0" stop-color="#555"/>
    <stop offset="1" stop-color="#4b4b4b"/>
  </linearGradient>
  <path d="m24 1c22.703 0 23 .297 23 23 0 22.703-.297 23-23 23-22.703 0-23-.297-23-23 0-22.703.297-23 23-23z" fill="url(#a)"/>
  <path d="m24.777 11.672c-.252.02-.493.138-.668.346l-.367.438-.973-.354c-.519-.189-1.086.071-1.271.582l-1.572 4.318-8.697 10.365c-.349.416-.29 1.038.133 1.393l3.283 2.754c-.186.511.083 1.073.602 1.262l1.592.58 5.254 4.408c.423.355 1.043.305 1.393-.111l1.207-1.439 3.717 1.354c.519.189 1.086-.069 1.271-.58l.359-.986h5.965c.552 0 .996-.437.996-.98v-20.04c0-.544-.444-.98-.996-.98h-8.01l-2.494-2.094c-.211-.177-.473-.254-.725-.234z" opacity=".1" transform=""/>
  <path d="m24.502 10.906c-.423-.355-1.044-.306-1.393.111l-12.881 15.351c-.349.416-.29 1.036.133 1.391l10.731 9c .423.355 1.044.306 1.393-.111l12.881-15.351c.349-.416.29-1.036-.133-1.391z" fill="#f95"/>
  <path d="m21.77 11.1c-.519-.189-1.085.07-1.271.581l-6.854 18.831c-.186.511.082 1.073.601 1.262l13.163 4.791c.519.189 1.085-.07 1.271-.581l6.854-18.831c.186-.511-.082-1.073-.601-1.262z" fill="#37c871"/>
  <path d="m20.996 13c-.552 0-.996.437-.996.98v20.04c0 .544.444.98.996.98h14.01c.552 0 .996-.437.996-.98v-20.04c0-.544-.444-.98-.996-.98z" fill="#5f8dd3"/>
  <path d="m35.21 25.931c-.166-.312-.424-.57-2.542-.506-.72.02-1.212.045-1.624.082-.752-.43-1.493-.98-2.057-1.654-.647-.775-1.046-1.67-1.303-2.549.403-1.798.346-2.999.328-3.256-.002-.034-.005-.055-.005-.055 0 0-.002.007-.002.007-.025-.176-.125-.82-.328-1.023-.237-.232-.444-.237-.681.166-.234.403-.342 1.529-.148 2.611.061.351.191.854.367 1.406-.143.515-.303 1.055-.474 1.591-.535 1.668-1.506 3.386-2.328 4.713-.15.048-1.096.387-2.253 1.399-1.262 1.105-.877 1.659-.579 1.827.301.171 1.134.829 3.982-4.076.996-1.718 1.591-3.283 1.946-4.6.351.925.802 1.866 1.308 2.454.353.41.834.8 1.369 1.146-.449.073-.943.173-1.732.319-1.948.362-2.912 1.148-2.912 1.148 0 0 2.615-.843 5.197-1.134.829.458 1.727.809 2.488.964 1.456.299 1.9-.399 1.9-.399.059-.064.257-.319.086-.581m0 0" fill="#d5e5ff"/>
</svg>
