<svg xmlns="http://www.w3.org/2000/svg" viewBox="0 0 48 48">
 <defs>
  <linearGradient id="linearGradient3764" x1="1" x2="47" gradientUnits="userSpaceOnUse" gradientTransform="matrix(0,-1,1,0,-1.5e-6,47.999998)">
   <stop style="stop-color:#6cb85a;stop-opacity:1"/>
   <stop offset="1" style="stop-color:#79be69;stop-opacity:1"/>
  </linearGradient>
 </defs>
 <g>
  
  
  
 </g>
 <g>
  <path d="m 47,24 C 47,46.703 46.703,47 24,47 1.297,47 1,46.703 1,24 1,1.297 1.297,1 24,1 46.703,1 47,1.297 47,24 z" style="fill:url(#linearGradient3764);fill-opacity:1"/>
 </g>
 <g>
  
 </g>
 <path d="m 15.875 12 c -0.492 0 -0.875 0.383 -0.875 0.875 l 0 24.25 c 0 0.492 0.383 0.875 0.875 0.875 l 18.25 0 c 0.492 0 0.875 -0.383 0.875 -0.875 0 -6.375 0 -12.75 0 -19.12 l -6 -6 c -4.375 0 -8.75 0 -13.12 0 z" style="fill:#000;opacity:0.1;fill-opacity:1;stroke:none;fill-rule:nonzero"/>
 <g transform="scale(3.543307,3.543307)">
  <path d="m 4.198 3.104 c -0.139 0 -0.247 0.108 -0.247 0.247 l 0 6.844 c 0 0.139 0.108 0.247 0.247 0.247 l 5.151 0 c 0.139 0 0.247 -0.108 0.247 -0.247 l 0 -5.398 -1.693 -1.693" style="fill:#e8e8d9;fill-opacity:1;stroke:none;fill-rule:nonzero"/>
  <path d="m 7.902 3.104 0 1.693 1.693 0" style="fill:#fff;fill-opacity:1;stroke:none;fill-rule:nonzero"/>
  <path d="m 9.596 6.491 0 -1.693 -1.693 0" style="fill:#000;fill-opacity:0.2;stroke:none;fill-rule:nonzero"/>
  <path d="m 5.644 3.669 0 0.564 0.564 0 0 -0.564 -0.564 0 z" style="fill:#aaa"/>
  <path d="m 5.644 4.233 -0.564 0 0 0.564 0.564 0 0 -0.564 z" style="fill:#aaa"/>
  <path d="m 5.644 4.798 0 0.564 0.564 0 0 -0.564 -0.564 0 z" style="fill:#aaa"/>
  <path d="m 5.644 5.362 -0.564 0 0 0.564 0.564 0 0 -0.564 z" style="fill:#aaa"/>
  <path d="m 5.644 5.927 0 0.564 0.564 0 0 -0.564 -0.564 0 z" style="fill:#aaa"/>
  <path d="m 5.08 6.773 0 1.129 1.129 0 0 -1.129 -0.564 0 -0.564 0 z" style="fill:#aaa"/>
  <path d="m 5.08 3.104 0 0.564 0.564 0 0 -0.564 -0.564 0 z" style="fill:#aaa"/>
 </g>
</svg>
