<svg xmlns="http://www.w3.org/2000/svg" viewBox="0 0 48 48">
 <defs>
  <linearGradient id="linearGradient4223" y1="47" x2="0" y2="1" gradientUnits="userSpaceOnUse">
   <stop style="stop-color:#2c95cf;stop-opacity:1"/>
   <stop offset="1" style="stop-color:#3b9ed5;stop-opacity:1"/>
  </linearGradient>
 </defs>
 <g>
  
  
  
 </g>
 <g>
  <path d="m 24 1 c 22.703 0 23 0.297 23 23 c 0 22.703 -0.297 23 -23 23 -22.703 0 -23 -0.297 -23 -23 0 -22.703 0.297 -23 23 -23 z" style="fill:url(#linearGradient4223);fill-opacity:1"/>
 </g>
 <g>
  
 </g>
 <path d="m 17.494 12 -5.494 20.506 7 1.875 0 -9.381 c 0 -3.314 2.686 -6 6 -6 3.314 0 6 2.686 6 6 0 3.314 -2.686 6 -6 6 -1.054 0 -2.089 -0.283 -3 -0.813 l 0 4.998 l 10.506 2.815 5.494 -20.506 -20.506 -5.494 m 4.506 23.19 -3 -0.805 0 4.619 3 -1 0 -2.815 m 3 -13.185 c -1.657 0 -3 1.343 -3 3 0 1.657 1.343 3 3 3 1.657 0 3 -1.343 3 -3 0 -1.657 -1.343 -3 -3 -3 z" style="fill:#000;opacity:0.1;fill-opacity:1;stroke:none"/>
 <path d="m 16.494 11 -5.494 20.506 7 1.875 0 -9.381 c 0 -3.314 2.686 -6 6 -6 3.314 0 6 2.686 6 6 0 3.314 -2.686 6 -6 6 -1.054 0 -2.089 -0.283 -3 -0.813 l 0 4.998 l 10.506 2.815 5.494 -20.506 -20.506 -5.494 m 4.506 23.19 -3 -0.805 0 4.619 3 -1 0 -2.815 m 3 -13.185 c -1.657 0 -3 1.343 -3 3 0 1.657 1.343 3 3 3 1.657 0 3 -1.343 3 -3 0 -1.657 -1.343 -3 -3 -3 z" style="fill:#fff;opacity:1;fill-opacity:1;stroke:none"/>
</svg>
