<svg viewBox="0 0 48 48" xmlns="http://www.w3.org/2000/svg" xmlns:xlink="http://www.w3.org/1999/xlink">
  <linearGradient id="a" gradientTransform="matrix(0 -1 1 0 -.0000015 47.999998)" gradientUnits="userSpaceOnUse" x1="1" x2="47">
    <stop offset="0" stop-color="#95adbd"/>
    <stop offset="1" stop-color="#a1b6c5"/>
  </linearGradient>
  <path d="m47 24c0 22.703-.297 23-23 23-22.703 0-23-.297-23-23 0-22.703.297-23 23-23 22.703 0 23 .297 23 23z" fill="url(#a)"/>
  <path d="m24.98 11.811l-10.999 7.06v17.632l.67.227c2.336.804 4.851 1.234 7.463 1.234 5.069 0 9.754-1.625 13.505-4.357l.397-.292c.015-4.425 0-14.437 0-14.437z" opacity=".1"/>
  <path d="m23.98 10.811l-10.999 7.06v17.632l.67.227c2.336.804 4.851 1.234 7.463 1.234 5.069 0 9.754-1.625 13.505-4.357l.397-.292c.015-4.425 0-14.437 0-14.437zm0 2.337l9.01 5.776v12.345c-3.35 2.329-7.425 3.755-11.88 3.755-2.146 0-4.174-.412-6.11-1.01v-15.1c16.461 7.161 16.202.883 8.976-5.77z" fill="#184a6a"/>
  <path d="m23.98 12.836l-10 6.09v15.602c2.23.719 4.625 1.113 7.125 1.113 4.84 0 9.309-1.477 12.891-3.961v-12.758m-15.07 1.258h9.645c0 0-3.242.859-4.457.859-1.219 0-5.188-.859-5.188-.859m0 0" fill="#ff8e00"/>
</svg>
