<svg viewBox="0 0 48 48" xmlns="http://www.w3.org/2000/svg" xmlns:xlink="http://www.w3.org/1999/xlink">
  <linearGradient id="a" gradientTransform="matrix(0 -1 1 0 -.0000015 47.999998)" gradientUnits="userSpaceOnUse" x1="1" x2="47">
    <stop offset="0" stop-color="#6f6f6f"/>
    <stop offset="1" stop-color="#797979"/>
  </linearGradient>
  <path d="m47 24c0 22.703-.297 23-23 23-22.703 0-23-.297-23-23 0-22.703.297-23 23-23 22.703 0 23 .297 23 23z" fill="url(#a)"/>
  <path d="m13 13h24v24h-24z" opacity=".1"/>
  <g transform="translate(8 -1)">
    <path d="m24 24c-2 0-6 4-6 6h6zm0 6h6v-6c-2 0-6 4-6 6zm6 0c-2 0-6 4-6 6h6zm0 6h6v-6c-2 0-6 4-6 6z" fill="#7398c3" transform="translate(-8 1)"/>
    <path d="m18 24v6l6-6zm6 0v6l6-6zm0 6v6l6-6zm6 0v6l6-6z" fill="#8fb3dd" transform="translate(-8 1)"/>
    <path d="m19 25v4h4v-4zm6 0v4h4v-4zm0 6v4h4v-4zm6 0v4h4v-4z" fill="#65a2e7" transform="translate(-8 1)"/>
  </g>
  <g transform="translate(2 -1)">
    <path d="m18 12c-2 0-6 4-6 6h6zm0 6h6v-6c-2 0-6 4-6 6zm6 0c-2 0-6 4-6 6h6zm0 6h6v-6c-2 0-6 4-6 6z" fill="#e26868" transform="translate(-2 1)"/>
    <path d="m12 12v6l6-6zm6 0v6l6-6zm0 6v6l6-6zm6 0v6l6-6z" fill="#e97f7f" transform="translate(-2 1)"/>
    <path d="m18 18c-2 0-6 4-6 6h6zm0 6c-2 0-6 4-6 6h6zm0 6c-2 0-6 4-6 6h6zm0 6h6v-6c-2 0-6 4-6 6z" fill="#d5d53e" transform="translate(-2 1)"/>
    <path d="m12 18v6l6-6zm0 6v6l6-6zm0 6v6l6-6zm6 0v6l6-6z" fill="#e3e26d" transform="translate(-2 1)"/>
    <path d="m13 19v4h4v-4zm0 6v4h4v-4zm0 6v4h4v-4zm6 0v4h4v-4z" fill="#dedd4e" transform="translate(-2 1)"/>
    <path d="m13 13v4h4v-4zm6 0v4h4v-4zm0 6v4h4v-4zm6 0v4h4v-4z" fill="#e87676" transform="translate(-2 1)"/>
  </g>
  <g transform="translate(14 -1)">
    <path d="m30 12c-2 0-6 4-6 6h6zm0 6h6v-6c-2 0-6 4-6 6zm6 0c-2 0-6 4-6 6h6zm0 6c-2 0-6 4-6 6h6z" fill="#61d565" transform="translate(-14 1)"/>
    <path d="m24 12v6l6-6zm6 0v6l6-6zm0 6v6l6-6zm0 6v6l6-6z" fill="#7ae87c" transform="translate(-14 1)"/>
    <path d="m25 13v4h4v-4zm6 0v4h4v-4zm0 6v4h4v-4zm0 6v4h4v-4z" fill="#66e068" transform="translate(-14 1)"/>
  </g>
</svg>
