<svg viewBox="0 0 48 48" xmlns="http://www.w3.org/2000/svg" xmlns:xlink="http://www.w3.org/1999/xlink">
  <linearGradient id="a" gradientUnits="userSpaceOnUse" x2="0" y1="1" y2="47">
    <stop offset="0" stop-color="#89acdf"/>
    <stop offset="1" stop-color="#7aa1da"/>
  </linearGradient>
  <path d="m24 1c22.703 0 23 .297 23 23 0 22.703-.297 23-23 23-22.703 0-23-.297-23-23 0-22.703.297-23 23-23z" fill="url(#a)"/>
  <g opacity=".1" transform="translate(.99999991 .99999999)">
    <path d="m15.656 17.587c-1.233.174-2.32.895-3.143 1.742-1.149 1.183-1.877 2.73-2.221 4.305-.392 1.795-.46 3.827.239 5.603.349.885.797 1.947 1.435 2.836.638.888 1.501 1.622 2.631 1.742.263.028.466-.045.615-.137.149-.091.274-.206.376-.307.186-.184.285-.344.307-.376l.034-.034.991-1.298-.82-.615-.991 1.298v.034c0 0-.106.141-.239.273-.067.066-.161.109-.205.137-.712-.093-1.308-.586-1.845-1.332-.548-.762-.995-1.74-1.332-2.597-.595-1.51-.566-3.333-.205-4.988.309-1.415.964-2.848 1.947-3.861.698-.718 1.668-1.27 2.597-1.401 1.396-.197 2.982.12 4.1.922 2.049 1.47 3 4.159 3.997 6.935.994 2.776 2.057 5.654 4.646 7.106 1.214.681 2.703.426 3.861.034.876-.296 1.641-.869 2.187-1.674.71-1.048 1.093-2.381 1.162-3.69.054-1.031-.218-2.065-.581-2.938-.202-.487-.536-.975-.854-1.401-.319-.426-.615-.752-.615-.752l-.786.649c0 0 .283.319.581.717.298.398.627.895.752 1.196.324.78.555 1.648.512 2.46-.059 1.136-.446 2.324-1.025 3.177-.422.622-1.01 1.073-1.674 1.298-1.015.343-2.221.475-3.01.034-2.188-1.227-3.213-3.797-4.202-6.56-.99-2.763-1.937-5.691-4.339-7.414-1.381-.99-3.237-1.359-4.886-1.127z"/>
    <g transform="matrix(1.0932721 0 0 1.0932721 -3.6019026 -2.9452799)">
      <path d="m28 15c0 2.209-1.567 4-3.5 4-1.933 0-3.5-1.791-3.5-4 0-2.209 1.567-4 3.5-4 1.933 0 3.5 1.791 3.5 4z" transform="matrix(.92458478 .93578531 -.80901168 .81881214 21.129668 -16.805065)"/>
      <path d="m26.973 18.768l4.315 4.367-10.787 9.462-2.876-2.911z"/>
      <path d="m17.624 29.685v1.456l1.438 1.456h1.438z"/>
    </g>
  </g>
  <path d="m15.656 17.587c-1.233.174-2.32.895-3.143 1.742-1.149 1.183-1.877 2.73-2.221 4.305-.392 1.795-.46 3.827.239 5.603.349.885.797 1.947 1.435 2.836.638.888 1.501 1.622 2.631 1.742.263.028.466-.045.615-.137.149-.091.274-.206.376-.307.186-.184.285-.344.307-.376l.034-.034.991-1.298-.82-.615-.991 1.298v.034c0 0-.106.141-.239.273-.067.066-.161.109-.205.137-.712-.093-1.308-.586-1.845-1.332-.548-.762-.995-1.74-1.332-2.597-.595-1.51-.566-3.333-.205-4.988.309-1.415.964-2.848 1.947-3.861.698-.718 1.668-1.27 2.597-1.401 1.396-.197 2.982.12 4.1.922 2.049 1.47 3 4.159 3.997 6.935.994 2.776 2.057 5.654 4.646 7.106 1.214.681 2.703.426 3.861.034.876-.296 1.641-.869 2.187-1.674.71-1.048 1.093-2.381 1.162-3.69.054-1.031-.218-2.065-.581-2.938-.202-.487-.536-.975-.854-1.401-.319-.426-.615-.752-.615-.752l-.786.649c0 0 .283.319.581.717.298.398.627.895.752 1.196.324.78.555 1.648.512 2.46-.059 1.136-.446 2.324-1.025 3.177-.422.622-1.01 1.073-1.674 1.298-1.015.343-2.221.475-3.01.034-2.188-1.227-3.213-3.797-4.202-6.56-.99-2.763-1.937-5.691-4.339-7.414-1.381-.99-3.237-1.359-4.886-1.127z" fill="#535d6c"/>
  <g transform="matrix(1.0932721 0 0 1.0932721 -3.6019026 -2.9452799)">
    <path d="m28 15c0 2.209-1.567 4-3.5 4-1.933 0-3.5-1.791-3.5-4 0-2.209 1.567-4 3.5-4 1.933 0 3.5 1.791 3.5 4z" fill="#414955" transform="matrix(.92458478 .93578531 -.80901168 .81881214 21.129668 -16.805065)"/>
    <path d="m26.973 18.768l4.315 4.367-10.787 9.462-2.876-2.911z" fill="#5f6a7d"/>
    <path d="m17.624 29.685v1.456l1.438 1.456h1.438z" fill="#414955"/>
  </g>
</svg>
