<svg viewBox="0 0 48 48" xmlns="http://www.w3.org/2000/svg" xmlns:xlink="http://www.w3.org/1999/xlink">
  <linearGradient id="a" gradientTransform="matrix(0 -1 1 0 -.0000015 47.999998)" gradientUnits="userSpaceOnUse" x1="1" x2="47">
    <stop offset="0" stop-color="#e4e4e4"/>
    <stop offset="1" stop-color="#eee"/>
  </linearGradient>
  <path d="m47 24c0 22.703-.297 23-23 23-22.703 0-23-.297-23-23 0-22.703.297-23 23-23 22.703 0 23 .297 23 23z" fill="url(#a)"/>
  <path d="m31.06 12c-.99.009-1.849.149-2.443.283-.282.051-.555.152-.824.229.007.084-.065.036-.106.059-.709-.18-1.433-.213-2.033-.266-1.431-.023-2.545.353-3.416.939-.219-.085-2.676-1.016-5.186-.877-1.313.073-2.637.451-3.605 1.439-.968.988-1.545 2.565-1.42 4.947.029.542.231 1.719.568 3.17.338 1.451.808 3.16 1.391 4.686.582 1.526 1.262 2.869 2.07 3.625.404.378.859.616 1.35.596.491-.021.972-.296 1.426-.822 1.225-1.424 2.316-2.538 2.338-2.561.552.295 1.174.468 1.834.441-.002.092-.062.194-.072.289-.345.388-.529.642-.717.785-.213.163-.543.282-1.412.455-.462.091-.754.194-.955.354-.101.08-.184.187-.213.313-.029.126.007.251.061.346.108.19.282.309.471.408.189.099.398.17.59.215.429.103 1.145.234 1.938.104.678-.111 1.407-.446 2.033-1.115-.017 1.168-.014 2.31.029 3.273.028.632.069 1.193.123 1.648.054.455.116.797.215 1.037.238.629.657 1.04.969 1.434.552.446 1.396.712 2.604.469.986-.204 1.697-.513 2.199-1.016.502-.503.772-1.185.928-2.057.203-1.138.533-3.784.65-4.918.061.028.125.054.193.074.315.095.711.128 1.137.125.851-.006 1.822-.166 2.471-.457.755-.338 1.347-.758 1.619-1.156.068-.1.119-.205.131-.332.012-.127-.048-.284-.16-.367-.224-.166-.478-.142-.857-.068h-.006c-1.598.319-2.419.206-2.811.049-.187-.075-.276-.15-.322-.205 1.687-2.453 2.89-5.203 3.52-7.553.32-1.195.492-2.288.506-3.191.014-.904-.12-1.626-.498-2.09-1.812-2.226-4.325-2.758-6.305-2.74z" opacity=".1" transform=""/>
  <g transform="translate(.00003953)">
    <path d="m36.04 27.02c-3.254.645-3.477-.418-3.477-.418 3.434-4.906 4.867-11.137 3.629-12.664-3.379-4.156-9.227-2.191-9.328-2.137l-.031.004c-.641-.125-1.359-.203-2.168-.215-1.469-.023-2.586.371-3.434.992 0 0-10.43-4.141-9.949 5.207.102 1.988 2.957 15.05 6.363 11.11 1.246-1.441 2.449-2.66 2.449-2.66.598.383 1.313.578 2.063.508l.055-.047c-.016.18-.008.355.027.563-.879.945-.621 1.109-2.375 1.461-1.773.352-.734.98-.055 1.145.828.199 2.738.48 4.03-1.258l-.055.199c.344.266.586 1.723.547 3.051-.039 1.324-.066 2.23.203 2.941.27.711.539 2.309 2.844 1.832 1.93-.395 2.926-1.426 3.066-3.148.098-1.223.32-1.043.336-2.137l.176-.516c.207-1.66.031-2.195 1.219-1.941l.289.023c.875.039 2.02-.137 2.688-.438 1.445-.645 2.305-1.723.879-1.441m.012-.012" fill="#33678e"/>
    <path d="m6.769 7.893c-.025.87.007 1.745.095 1.96.088.213.278.624.929.493.542-.112.742-.332.827-.809.063-.353.185-1.333.201-1.535" fill="none" stroke="#f9f9f9" stroke-linecap="round" stroke-linejoin="round" stroke-width=".141" transform="scale(3.543307)"/>
    <path d="m5.99 3.53c0 0-2.947-1.16-2.809 1.478.03.561.836 4.248 1.797 3.133.351-.408.668-.729.668-.729" fill="none" stroke="#f9f9f9" stroke-linecap="round" stroke-linejoin="round" stroke-width=".141" transform="scale(3.543307)"/>
    <path d="m7.581 3.318c-.105.031 1.637-.613 2.627.605.351.43-.055 2.186-1.023 3.573" fill="none" stroke="#f9f9f9" stroke-linecap="round" stroke-linejoin="round" stroke-width=".141" transform="scale(3.543307)"/>
    <path d="m9.185 7.497c0 0 .063.301.98.118.4-.078.161.226-.248.409-.334.15-1.087.185-1.097-.021-.033-.535.396-.372.365-.506-.031-.119-.219-.237-.345-.53-.11-.257-1.51-2.23.388-1.937.067-.014-.495-1.741-2.272-1.768-1.777-.028-1.72 2.106-1.72 2.106" fill="none" stroke="#f9f9f9" stroke-linecap="round" stroke-linejoin="bevel" stroke-width=".141" transform="scale(3.543307)"/>
    <path d="m6.272 7.68c-.248.269-.174.312-.67.411-.501.099-.204.278-.012.323.233.056.772.137 1.136-.356.111-.15-.001-.388-.152-.449-.075-.029-.172-.066-.299.071m0 0" fill="none" stroke="#f9f9f9" stroke-linecap="round" stroke-linejoin="round" stroke-width=".141" transform="scale(3.543307)"/>
    <path d="m6.256 7.675c-.025-.158.053-.343.137-.561.126-.327.418-.655.185-1.693-.174-.774-1.339-.161-1.342-.055 0 .107.053.531-.02 1.031-.094.648.429 1.197 1.031 1.141" fill="none" stroke="#f9f9f9" stroke-linecap="round" stroke-linejoin="round" stroke-width=".141" transform="scale(3.543307)"/>
    <path d="m5.978 5.348c-.008.036.065.131.162.144.096.013.176-.063.183-.098.006-.036-.067-.075-.163-.088-.096-.013-.177.006-.182.042m0 0" fill="#fff" stroke="#f9f9f9" stroke-width=".141" transform="scale(3.543307)"/>
    <path d="m8.887 5.275c.008.036-.066.131-.163.144-.097.01-.175-.065-.183-.098-.006-.036.067-.075.163-.088.096-.013.177.006.182.042m.001 0" fill="#fff" stroke="#f9f9f9" stroke-width=".071" transform="scale(3.543307)"/>
    <path d="m9.228 5.03c.013.281-.064.473-.075.772-.013.434.215.933-.129 1.431" fill="none" stroke="#f9f9f9" stroke-linecap="round" stroke-linejoin="round" stroke-width=".141" transform="scale(3.543307)"/>
  </g>
</svg>
