<svg viewBox="0 0 48 48" xmlns="http://www.w3.org/2000/svg" xmlns:xlink="http://www.w3.org/1999/xlink">
  <linearGradient id="a" gradientTransform="matrix(0 -1 1 0 -.0000015 47.999998)" gradientUnits="userSpaceOnUse" x1="1" x2="47">
    <stop offset="0" stop-color="#23bd88"/>
    <stop offset="1" stop-color="#26ce94"/>
  </linearGradient>
  <path d="m24 1c22.703 0 23 .297 23 23 0 22.703-.297 23-23 23-22.703 0-23-.297-23-23 0-22.703.297-23 23-23z" fill="url(#a)"/>
  <path d="m20.285 13c-.157 0-.285.136-.285.301v3.699h-1.814c-.652 0-1.186.534-1.186 1.186v1.814h-1.373c-.647 0-.932 1-1.52 1h-1.805c-.166 0-.303.034-.303.199v1.5c0 .165.136.301.303.301h1.814c.587 0 .949-1 1.512-1h1.371v2h-1.373c-.647 0-.932 1-1.52 1h-1.805c-.166 0-.303.034-.303.199v1.5c0 .165.136.301.303.301h1.814c.587 0 .949-1 1.512-1h1.371v2h-1.373c-.647 0-.932 1-1.52 1h-1.805c-.166 0-.303.034-.303.199v1.5c0 .165.136.301.303.301h1.814c.587 0 .949-1 1.512-1h1.371v1.814c0 .652.534 1.186 1.186 1.186h1.814v3.699c0 .165.128.301.285.301h1.43c.157 0 .285-.136.285-.301v-3.699h2v3.699c0 .165.128.301.285.301h1.43c.157 0 .285-.136.285-.301v-3.699h2v3.699c0 .165.128.301.285.301h1.43c.157 0 .285-.136.285-.301v-3.699h1.814c.652 0 1.186-.533 1.186-1.186v-1.814h1.373c.563 0 .923 1 1.51 1h1.814c.166 0 .303-.136.303-.301v-1.5c0-.165-.136-.199-.303-.199h-1.805c-.588 0-.873-1-1.52-1h-1.373v-2h1.373c.563 0 .923 1 1.51 1h1.814c.166 0 .303-.136.303-.301v-1.5c0-.165-.136-.199-.303-.199h-1.805c-.588 0-.873-1-1.52-1h-1.373v-2h1.373c.563 0 .923 1 1.51 1h1.814c.166 0 .303-.136.303-.301v-1.5c0-.165-.136-.199-.303-.199h-1.805c-.588 0-.873-1-1.52-1h-1.373v-1.814c0-.652-.533-1.186-1.186-1.186h-1.814v-3.699c0-.165-.128-.301-.285-.301h-1.43c-.157 0-.285.136-.285.301v3.699h-2v-3.699c0-.165-.128-.301-.285-.301h-1.43c-.157 0-.285.136-.285.301v3.699h-2v-3.699c0-.165-.128-.301-.285-.301h-1.43z" opacity=".1"/>
  <path d="m66.28 25c0-.55-.425-1-.945-1h-4.725c-.52 0-.945.45-.945 1v14.667c0 .55.425 1 .945 1h4.725c.52 0 .945-.45.945-1z" fill="#fff" transform="matrix(-.3023291 0 0 -.3 43.039675 43.2)"/>
  <path d="m14.628 19c-.647 0-.933 1-1.521 1h-1.805c-.166 0-.302.035-.302.2v1.5c0 .165.136.3.302.3h1.814c.587 0 .949-1 1.512-1h2.071c.166 0 .301-.135.301-.3v-1.4c0-.165-.135-.3-.301-.3z" fill="#fff"/>
  <path d="m66.28 25c0-.55-.425-1-.945-1h-4.725c-.52 0-.945.45-.945 1v14.667c0 .55.425 1 .945 1h4.725c.52 0 .945-.45.945-1z" fill="#fff" transform="matrix(.3023291 0 0 .3 4.9603248 4.8)"/>
  <path d="m66.28 25c0-.55-.425-1-.945-1h-4.725c-.52 0-.945.45-.945 1v14.667c0 .55.425 1 .945 1h4.725c.52 0 .945-.45.945-1z" fill="#fff" transform="matrix(-.3023291 0 0 -.3 47.039675 43.2)"/>
  <path d="m14.628 23c-.647 0-.933 1-1.521 1h-1.805c-.166 0-.302.035-.302.2v1.5c0 .165.136.3.302.3h1.814c.587 0 .949-1 1.512-1h2.071c.166 0 .301-.135.301-.3v-1.4c0-.165-.135-.3-.301-.3z" fill="#fff"/>
  <path d="m14.628 27c-.647 0-.933 1-1.521 1h-1.805c-.166 0-.302.035-.302.2v1.5c0 .165.136.3.302.3h1.814c.587 0 .949-1 1.512-1h2.071c.166 0 .301-.135.301-.3v-1.4c0-.165-.135-.3-.301-.3z" fill="#fff"/>
  <path d="m33.372 23c .647 0 .933 1 1.521 1h1.805c.166 0 .302.035.302.2v1.5c0 .165-.136.3-.302.3h-1.814c-.587 0-.949-1-1.512-1h-2.071c-.166 0-.301-.135-.301-.3v-1.4c0-.165.135-.3.301-.3z" fill="#fff"/>
  <path d="m33.372 19c .647 0 .933 1 1.521 1h1.805c.166 0 .302.035.302.2v1.5c0 .165-.136.3-.302.3h-1.814c-.587 0-.949-1-1.512-1h-2.071c-.166 0-.301-.135-.301-.3v-1.4c0-.165.135-.3.301-.3z" fill="#fff"/>
  <path d="m33.372 27c .647 0 .933 1 1.521 1h1.805c.166 0 .302.035.302.2v1.5c0 .165-.136.3-.302.3h-1.814c-.587 0-.949-1-1.512-1h-2.071c-.166 0-.301-.135-.301-.3v-1.4c0-.165.135-.3.301-.3z" fill="#fff"/>
  <path d="m66.28 25c0-.55-.425-1-.945-1h-4.725c-.52 0-.945.45-.945 1v14.667c0 .55.425 1 .945 1h4.725c.52 0 .945-.45.945-1z" fill="#fff" transform="matrix(.3023291 0 0 .3 8.9603249 4.8000001)"/>
  <path d="m66.28 25c0-.55-.425-1-.945-1h-4.725c-.52 0-.945.45-.945 1v14.667c0 .55.425 1 .945 1h4.725c.52 0 .945-.45.945-1z" fill="#fff" transform="matrix(.3023291 0 0 .3 .9603248 4.8000001)"/>
  <path d="m66.28 25c0-.55-.425-1-.945-1h-4.725c-.52 0-.945.45-.945 1v14.667c0 .55.425 1 .945 1h4.725c.52 0 .945-.45.945-1z" fill="#fff" transform="matrix(-.3023291 0 0 -.3 39.039675 43.2)"/>
  <path d="m32 17.19v13.63c0 .652-.533 1.185-1.185 1.185h-13.63c-.652 0-1.185-.533-1.185-1.185v-13.63c0-.652.533-1.185 1.185-1.185h13.63c.652 0 1.185.533 1.185 1.185" fill="#686868"/>
  <path d="m20 18.5a1.5 1.5 0 0 1-3 0 1.5 1.5 0 1 1  3 0z" fill="#999"/>
</svg>
