<svg xmlns="http://www.w3.org/2000/svg" viewBox="0 0 48 48">
 <defs>
  <linearGradient gradientTransform="matrix(0,-1,1,0,-1.5e-6,47.999998)" gradientUnits="userSpaceOnUse" x2="47" x1="1" id="linearGradient3764-5">
   <stop style="stop-color:#23bd88;stop-opacity:1"/>
   <stop offset="1" style="stop-color:#26ce94;stop-opacity:1"/>
  </linearGradient>
 </defs>
 <g>
  
  
  
 </g>
 <g>
  <path d="M 24,1 C 46.703,1 47,1.297 47,24 47,46.703 46.703,47 24,47 1.297,47 1,46.703 1,24 1,1.297 1.297,1 24,1 Z" style="fill:url(#linearGradient3764-5);fill-opacity:1"/>
 </g>
 <g>
  
 </g>
 <g transform="matrix(1.000218,0,0,0.99980419,-34.528908,20.362457)">
  <g>
   <!-- color: #b42026 -->
  </g>
 </g>
 <path d="M 20.285,13 C 20.128,13 20,13.136 20,13.301 L 20,17 18.186,17 C 17.534,17 17,17.534 17,18.186 L 17,20 15.627,20 c -0.647,0 -0.932,1 -1.52,1 l -1.805,0 c -0.166,0 -0.303,0.034 -0.303,0.199 l 0,1.5 c 0,0.165 0.136,0.301 0.303,0.301 l 1.814,0 c 0.587,0 0.949,-1 1.512,-1 l 1.371,0 0,2 -1.373,0 c -0.647,0 -0.932,1 -1.52,1 l -1.805,0 c -0.166,0 -0.303,0.034 -0.303,0.199 l 0,1.5 c 0,0.165 0.136,0.301 0.303,0.301 l 1.814,0 c 0.587,0 0.949,-1 1.512,-1 l 1.371,0 0,2 -1.373,0 c -0.647,0 -0.932,1 -1.52,1 L 12.3,29 c -0.166,0 -0.303,0.034 -0.303,0.199 l 0,1.5 c 0,0.165 0.136,0.301 0.303,0.301 l 1.814,0 c 0.587,0 0.949,-1 1.512,-1 l 1.371,0 0,1.814 c 0,0.652 0.534,1.186 1.186,1.186 l 1.814,0 0,3.699 c 0,0.165 0.128,0.301 0.285,0.301 l 1.43,0 c 0.157,0 0.285,-0.136 0.285,-0.301 l 0,-3.699 2,0 0,3.699 c 0,0.165 0.128,0.301 0.285,0.301 l 1.43,0 c 0.157,0 0.285,-0.136 0.285,-0.301 l 0,-3.699 2,0 0,3.699 c 0,0.165 0.128,0.301 0.285,0.301 l 1.43,0 c 0.157,0 0.285,-0.136 0.285,-0.301 l 0,-3.699 1.814,0 c 0.652,0 1.186,-0.533 1.186,-1.186 l 0,-1.814 1.373,0 c 0.563,0 0.923,1 1.51,1 l 1.814,0 c 0.166,0 0.303,-0.136 0.303,-0.301 l 0,-1.5 C 37.997,29.034 37.861,29 37.694,29 l -1.805,0 c -0.588,0 -0.873,-1 -1.52,-1 l -1.373,0 0,-2 1.373,0 c 0.563,0 0.923,1 1.51,1 l 1.814,0 c 0.166,0 0.303,-0.136 0.303,-0.301 l 0,-1.5 C 37.996,25.034 37.86,25 37.693,25 l -1.805,0 c -0.588,0 -0.873,-1 -1.52,-1 l -1.373,0 0,-2 1.373,0 c 0.563,0 0.923,1 1.51,1 l 1.814,0 c 0.166,0 0.303,-0.136 0.303,-0.301 l 0,-1.5 C 37.995,21.034 37.859,21 37.692,21 l -1.805,0 c -0.588,0 -0.873,-1 -1.52,-1 l -1.373,0 0,-1.814 C 32.994,17.534 32.461,17 31.808,17 l -1.814,0 0,-3.699 C 29.994,13.136 29.866,13 29.709,13 l -1.43,0 c -0.157,0 -0.285,0.136 -0.285,0.301 l 0,3.699 -2,0 0,-3.699 C 25.994,13.136 25.866,13 25.709,13 l -1.43,0 c -0.157,0 -0.285,0.136 -0.285,0.301 l 0,3.699 -2,0 0,-3.699 C 21.994,13.136 21.866,13 21.709,13 l -1.43,0 z" style="fill:#000;opacity:0.1;fill-opacity:1"/>
 <g transform="matrix(-0.3023291,0,0,-0.3,43.039675,43.2)">
  <path d="m 66.28 25 c 0 -0.55 -0.425 -1 -0.945 -1 l -4.725 0 c -0.52 0 -0.945 0.45 -0.945 1 l 0 14.667 c 0 0.55 0.425 1 0.945 1 l 4.725 0 c 0.52 0 0.945 -0.45 0.945 -1 z" style="fill:#fff"/>
 </g>
 <path d="m 14.628,19 c -0.647,0 -0.933,1 -1.521,1 l -1.805,0 C 11.136,20 11,20.035 11,20.2 l 0,1.5 c 0,0.165 0.136,0.3 0.302,0.3 l 1.814,0 c 0.587,0 0.949,-1 1.512,-1 l 2.071,0 C 16.865,21 17,20.865 17,20.7 l 0,-1.4 C 17,19.135 16.865,19 16.699,19 Z" style="fill:#fff"/>
 <g transform="matrix(0.3023291,0,0,0.3,4.9603248,4.8)">
  <path d="m 66.28 25 c 0 -0.55 -0.425 -1 -0.945 -1 l -4.725 0 c -0.52 0 -0.945 0.45 -0.945 1 l 0 14.667 c 0 0.55 0.425 1 0.945 1 l 4.725 0 c 0.52 0 0.945 -0.45 0.945 -1 z" style="fill:#fff"/>
 </g>
 <g transform="matrix(-0.3023291,0,0,-0.3,47.039675,43.2)">
  <path d="m 66.28 25 c 0 -0.55 -0.425 -1 -0.945 -1 l -4.725 0 c -0.52 0 -0.945 0.45 -0.945 1 l 0 14.667 c 0 0.55 0.425 1 0.945 1 l 4.725 0 c 0.52 0 0.945 -0.45 0.945 -1 z" style="fill:#fff"/>
 </g>
 <path d="m 14.628,23 c -0.647,0 -0.933,1 -1.521,1 l -1.805,0 C 11.136,24 11,24.035 11,24.2 l 0,1.5 c 0,0.165 0.136,0.3 0.302,0.3 l 1.814,0 c 0.587,0 0.949,-1 1.512,-1 l 2.071,0 C 16.865,25 17,24.865 17,24.7 l 0,-1.4 C 17,23.135 16.865,23 16.699,23 Z" style="fill:#fff"/>
 <path d="m 14.628,27 c -0.647,0 -0.933,1 -1.521,1 l -1.805,0 C 11.136,28 11,28.035 11,28.2 l 0,1.5 c 0,0.165 0.136,0.3 0.302,0.3 l 1.814,0 c 0.587,0 0.949,-1 1.512,-1 l 2.071,0 C 16.865,29 17,28.865 17,28.7 l 0,-1.4 C 17,27.135 16.865,27 16.699,27 Z" style="fill:#fff"/>
 <path d="m 33.372,23 c 0.647,0 0.933,1 1.521,1 l 1.805,0 C 36.864,24 37,24.035 37,24.2 l 0,1.5 c 0,0.165 -0.136,0.3 -0.302,0.3 l -1.814,0 c -0.587,0 -0.949,-1 -1.512,-1 l -2.071,0 C 31.135,25 31,24.865 31,24.7 l 0,-1.4 C 31,23.135 31.135,23 31.301,23 Z" style="fill:#fff"/>
 <path d="m 33.372,19 c 0.647,0 0.933,1 1.521,1 l 1.805,0 C 36.864,20 37,20.035 37,20.2 l 0,1.5 c 0,0.165 -0.136,0.3 -0.302,0.3 l -1.814,0 c -0.587,0 -0.949,-1 -1.512,-1 l -2.071,0 C 31.135,21 31,20.865 31,20.7 l 0,-1.4 C 31,19.135 31.135,19 31.301,19 Z" style="fill:#fff"/>
 <path d="m 33.372,27 c 0.647,0 0.933,1 1.521,1 l 1.805,0 C 36.864,28 37,28.035 37,28.2 l 0,1.5 c 0,0.165 -0.136,0.3 -0.302,0.3 l -1.814,0 c -0.587,0 -0.949,-1 -1.512,-1 l -2.071,0 C 31.135,29 31,28.865 31,28.7 l 0,-1.4 C 31,27.135 31.135,27 31.301,27 Z" style="fill:#fff"/>
 <g transform="matrix(0.3023291,0,0,0.3,8.9603249,4.8000001)">
  <path d="m 66.28 25 c 0 -0.55 -0.425 -1 -0.945 -1 l -4.725 0 c -0.52 0 -0.945 0.45 -0.945 1 l 0 14.667 c 0 0.55 0.425 1 0.945 1 l 4.725 0 c 0.52 0 0.945 -0.45 0.945 -1 z" style="fill:#fff"/>
 </g>
 <g transform="matrix(0.3023291,0,0,0.3,0.9603248,4.8000001)">
  <path d="m 66.28 25 c 0 -0.55 -0.425 -1 -0.945 -1 l -4.725 0 c -0.52 0 -0.945 0.45 -0.945 1 l 0 14.667 c 0 0.55 0.425 1 0.945 1 l 4.725 0 c 0.52 0 0.945 -0.45 0.945 -1 z" style="fill:#fff"/>
 </g>
 <g transform="matrix(-0.3023291,0,0,-0.3,39.039675,43.2)">
  <path d="m 66.28 25 c 0 -0.55 -0.425 -1 -0.945 -1 l -4.725 0 c -0.52 0 -0.945 0.45 -0.945 1 l 0 14.667 c 0 0.55 0.425 1 0.945 1 l 4.725 0 c 0.52 0 0.945 -0.45 0.945 -1 z" style="fill:#fff"/>
 </g>
 <path d="m 32,17.19 0,13.63 c 0,0.652 -0.533,1.185 -1.185,1.185 l -13.63,0 C 16.533,32.005 16,31.472 16,30.82 l 0,-13.63 c 0,-0.652 0.533,-1.185 1.185,-1.185 l 13.63,0 c 0.652,0 1.185,0.533 1.185,1.185" style="fill:#686868"/>
 <path d="m 20 18.5 a 1.5 1.5 0 0 1 -3 0 1.5 1.5 0 1 1 3 0 z" style="fill:#999;fill-opacity:1;stroke:none"/>
</svg>
