<svg xmlns="http://www.w3.org/2000/svg" viewBox="0 0 48 48">
 <defs>
  <linearGradient id="linearGradient3764" x1="1" x2="47" gradientUnits="userSpaceOnUse" gradientTransform="matrix(0,-1,1,0,-1.5e-6,47.999998)">
   <stop style="stop-color:#e4e4e4;stop-opacity:1"/>
   <stop offset="1" style="stop-color:#eee;stop-opacity:1"/>
  </linearGradient>
 </defs>
 <g>
  
  
  
 </g>
 <g>
  <path d="m 47,24 C 47,46.703 46.703,47 24,47 1.297,47 1,46.703 1,24 1,1.297 1.297,1 24,1 46.703,1 47,1.297 47,24 z" style="fill:url(#linearGradient3764);fill-opacity:1"/>
 </g>
 <g>
  <g>
   <g transform="translate(1,1)">
    <g style="opacity:0.1">
     <!-- color: #eeeeee -->
    </g>
   </g>
  </g>
 </g>
 <g transform="translate(2.5e-4,0)">
  <g>
   <!-- color: #eeeeee -->
   <g>
    <path d="m 37.724 24.25 c -3.36 -3.991 -7.616 -7.203 -12.732 -7.25 -5.116 -0.047 -9.639 3.641 -12.724 7.25 -0.359 0.469 -0.359 1.023 0 1.492 3.34 3.951 7.717 7.272 12.727 7.258 5.01 -0.014 9.815 -3.525 12.735 -7.258 0.359 -0.469 0.359 -1.023 0 -1.492" style="fill:#000;opacity:0.1;fill-opacity:1;stroke:none;fill-rule:nonzero"/>
    <path d="m 36.724 23.25 c -3.36 -3.991 -7.616 -7.203 -12.732 -7.25 -5.116 -0.047 -9.639 3.641 -12.724 7.25 -0.359 0.469 -0.359 1.023 0 1.492 3.34 3.951 7.717 7.272 12.727 7.258 5.01 -0.014 9.815 -3.525 12.735 -7.258 0.359 -0.469 0.359 -1.023 0 -1.492" style="fill:#515151;fill-opacity:1;stroke:none;fill-rule:nonzero"/>
    <path d="m 24.24 18 c -0.242 -0.008 -0.438 0.008 -0.586 0.051 l 0 0.004 c -1.049 0.32 -0.129 1.813 -1.627 2.543 c -1.714 0.836 -2.563 -1.273 -3.592 0.23 c -1.029 1.504 1.414 1.27 1.346 3.043 c -0.068 1.77 -2.491 1.395 -1.58 2.957 c 0.907 1.563 1.917 -0.492 3.549 0.445 c 1.644 0.934 0.069 2.664 2 2.723 c 1.937 0.059 0.501 -1.758 2.215 -2.594 c 1.71 -0.84 2.563 1.27 3.592 -0.23 c 1.029 -1.508 -1.416 -1.273 -1.346 -3.043 c 0.07 -1.77 2.487 -1.395 1.58 -2.957 c -0.907 -1.563 -1.921 0.488 -3.549 -0.445 c -1.644 -0.941 -0.071 -2.668 -2 -2.727 z m -0.244 3.998 a 2 2 0 0 1 2 2 a 2 2 0 0 1 -2 2 a 2 2 0 0 1 -2 -2 a 2 2 0 0 1 2 -2 z" transform="translate(-2.5e-4,0)" style="fill:#84e55b;fill-opacity:1;stroke:none;fill-rule:nonzero"/>
   </g>
  </g>
 </g>
 <g>
  
 </g>
</svg>
