<svg viewBox="0 0 48 48" xmlns="http://www.w3.org/2000/svg" xmlns:xlink="http://www.w3.org/1999/xlink">
  <linearGradient id="a" gradientTransform="matrix(0 -1 1 0 -.0000015 47.999998)" gradientUnits="userSpaceOnUse" x1="1" x2="47">
    <stop offset="0" stop-color="#e4e4e4"/>
    <stop offset="1" stop-color="#eee"/>
  </linearGradient>
  <path d="m47 24c0 22.703-.297 23-23 23-22.703 0-23-.297-23-23 0-22.703.297-23 23-23 22.703 0 23 .297 23 23z" fill="url(#a)"/>
  <g transform="translate(.00025)">
    <path d="m37.724 24.25c-3.36-3.991-7.616-7.203-12.732-7.25-5.116-.047-9.639 3.641-12.724 7.25-.359.469-.359 1.023 0 1.492 3.34 3.951 7.717 7.272 12.727 7.258 5.01-.014 9.815-3.525 12.735-7.258.359-.469.359-1.023 0-1.492" opacity=".1"/>
    <path d="m36.724 23.25c-3.36-3.991-7.616-7.203-12.732-7.25-5.116-.047-9.639 3.641-12.724 7.25-.359.469-.359 1.023 0 1.492 3.34 3.951 7.717 7.272 12.727 7.258 5.01-.014 9.815-3.525 12.735-7.258.359-.469.359-1.023 0-1.492" fill="#515151"/>
    <path d="m24.24 18c-.242-.008-.438.008-.586.051v.004c-1.049.32-.129 1.813-1.627 2.543-1.714.836-2.563-1.273-3.592.23-1.029 1.504 1.414 1.27 1.346 3.043-.068 1.77-2.491 1.395-1.58 2.957.907 1.563 1.917-.492 3.549.445 1.644.934.069 2.664 2 2.723 1.937.059.501-1.758 2.215-2.594 1.71-.84 2.563 1.27 3.592-.23 1.029-1.508-1.416-1.273-1.346-3.043.07-1.77 2.487-1.395 1.58-2.957-.907-1.563-1.921.488-3.549-.445-1.644-.941-.071-2.668-2-2.727zm-.244 3.998a2 2 0 0 1 2 2 2 2 0 0 1-2 2 2 2 0 0 1-2-2 2 2 0 0 1  2-2z" fill="#84e55b" transform="translate(-.00025)"/>
  </g>
</svg>
