<svg viewBox="0 0 48 48" xmlns="http://www.w3.org/2000/svg" xmlns:xlink="http://www.w3.org/1999/xlink">
  <linearGradient id="a" gradientTransform="matrix(0 -1 1 0 -.0000015 47.999998)" gradientUnits="userSpaceOnUse" x1="1" x2="47">
    <stop offset="0" stop-color="#182e3e"/>
    <stop offset="1" stop-color="#1d384d"/>
  </linearGradient>
  <path d="m47 24c0 22.703-.297 23-23 23-22.703 0-23-.297-23-23 0-22.703.297-23 23-23 22.703 0 23 .297 23 23z" fill="url(#a)"/>
  <path d="m11 13v22c0 0 1.598 0 3 0v-1h4v1h12v-1h4v1c1 0 2 0 3 0v-22c-1 0-2 0-3 0v1h-4v-1h-12v1h-4v-1c-1 0-3 0-3 0m3 3h4v4h-4m16-4h4v4h-4m-16 2h4v4h-4m16-4h4v4h-4m-16 2h4v4h-4m16-4h4v4h-4m0-4" opacity=".1" transform="translate(1 1)"/>
  <path d="m11 13v22c0 0 1.598 0 3 0v-1h4v1h12v-1h4v1c1 0 2 0 3 0v-22c-1 0-2 0-3 0v1h-4v-1h-12v1h-4v-1c-1 0-3 0-3 0m3 3h4v4h-4m16-4h4v4h-4m-16 2h4v4h-4m16-4h4v4h-4m-16 2h4v4h-4m16-4h4v4h-4m0-4" fill="#f9f9f9"/>
</svg>
