<svg xmlns="http://www.w3.org/2000/svg" viewBox="0 0 48 48">
 <defs>
  <linearGradient id="linearGradient3764" x1="1" x2="47" gradientUnits="userSpaceOnUse" gradientTransform="matrix(0,-1,1,0,-1.5e-6,47.999998)">
   <stop style="stop-color:#c6e2f6;stop-opacity:1"/>
   <stop offset="1" style="stop-color:#d7ebf9;stop-opacity:1"/>
  </linearGradient>
 </defs>
 <g>
  
  
  
 </g>
 <g>
  <path d="m 47,24 C 47,46.703 46.703,47 24,47 1.297,47 1,46.703 1,24 1,1.297 1.297,1 24,1 46.703,1 47,1.297 47,24 z" style="fill:url(#linearGradient3764);fill-opacity:1"/>
 </g>
 <g>
  
 </g>
 <path d="m 25 11 c -0.592 1.776 -3.622 5.313 -6.01 9.141 l 4.408 7.559 5.627 -10.531 c -1.841 -2.608 -3.594 -4.868 -4.03 -6.168 m 4.867 7.363 -3.867 6.637 l 7.434 0 c -0.741 -2.203 -2.117 -4.506 -3.566 -6.637 m -11.555 2.889 c -1.321 2.294 -2.313 4.644 -2.313 6.748 c 0 1.054 0.191 2.06 0.523 3 l 7.477 0 -5.688 -9.748 z m 10.488 4.748 4.01 6.461 c 0.753 -1.316 1.189 -2.836 1.189 -4.461 c 0 -0.645 -0.107 -1.317 -0.273 -2 l -4.926 0 z m 1.199 4 -3.842 6.916 c 2.388 -0.308 4.48 -1.547 5.902 -3.348 l -2.061 -3.568 m -13.05 2 c 1.414 2.841 4.28 4.823 7.631 4.979 l 2.822 -4.979 -10.453 0 z" style="fill:#000;opacity:0.1;fill-opacity:1;stroke:none"/>
 <path d="m 24 10 c -0.592 1.776 -3.622 5.313 -6.01 9.141 l 4.408 7.559 5.627 -10.531 c -1.841 -2.608 -3.594 -4.868 -4.03 -6.168 m 4.867 7.363 -3.867 6.637 l 7.434 0 c -0.741 -2.203 -2.117 -4.506 -3.566 -6.637 m -11.555 2.889 c -1.321 2.294 -2.313 4.644 -2.313 6.748 c 0 1.054 0.191 2.06 0.523 3 l 7.477 0 -5.688 -9.748 z m 10.488 4.748 4.01 6.461 c 0.753 -1.316 1.189 -2.836 1.189 -4.461 c 0 -0.645 -0.107 -1.317 -0.273 -2 l -4.926 0 z m 1.199 4 -3.842 6.916 c 2.388 -0.308 4.48 -1.547 5.902 -3.348 l -2.061 -3.568 m -13.05 2 c 1.414 2.841 4.28 4.823 7.631 4.979 l 2.822 -4.979 -10.453 0 z" style="fill:#3f7dd7;opacity:1;fill-opacity:1;stroke:none"/>
</svg>
