<svg viewBox="0 0 48 48" xmlns="http://www.w3.org/2000/svg" xmlns:xlink="http://www.w3.org/1999/xlink">
  <linearGradient id="a" gradientUnits="userSpaceOnUse" x2="0" y1="1" y2="47">
    <stop offset="0" stop-color="#fab766"/>
    <stop offset="1" stop-color="#f9ad52"/>
  </linearGradient>
  <radialGradient id="b" cx="17" cy="15.734" gradientTransform="matrix(1.2 0 0 1.3125 -3.4 -5.3701172)" gradientUnits="userSpaceOnUse" r="2.5">
    <stop offset="0" stop-color="#156aa3"/>
    <stop offset="1" stop-color="#1a7cbe"/>
  </radialGradient>
  <radialGradient id="c" cx="17" cy="15.734" gradientTransform="matrix(1.2 0 0 1.09375 -3.4 -1.9282226)" gradientUnits="userSpaceOnUse" r="3">
    <stop offset="0" stop-color="#ef6651"/>
    <stop offset="1" stop-color="#f17b69"/>
  </radialGradient>
  <path d="m24 1c22.703 0 23 .297 23 23 0 22.703-.297 23-23 23-22.703 0-23-.297-23-23 0-22.703.297-23 23-23z" fill="url(#a)"/>
  <rect fill-opacity=".118" height="26" rx="1" width="26" x="12" y="12"/>
  <rect fill="#546971" height="26" rx="1" width="26" x="11" y="11"/>
  <g transform="matrix(.68178719 0 0 .69230773 8.0467251 13.153845)">
    <path d="m21.934 20h19.07v13h-19.07" fill="#27a9de"/>
    <path d="m25 31.998l-2 2 .002 2h5.566v-1.455z" fill="#ddb842" transform="matrix(1.4667333 0 0 1.4444444 -11.8024 -18.999997)"/>
    <path d="m25 31.998l1 2-2 1v1h4.57v-1.455z" fill="#fbdb52" transform="matrix(1.4667333 0 0 1.4444444 -11.8024 -18.999997)"/>
    <path d="m31.91 29.77l-6.137 6.23h10.227v-3.77l-4.09-2.461z" fill="#ddb842" transform="matrix(1.4667333 0 0 1.4444444 -11.8024 -18.999997)"/>
    <path d="m31.91 29.77l1.021 2.076-1.021 2.354 1.213 1.801h2.877v-3.77z" fill="#fbdb52" transform="matrix(1.4667333 0 0 1.4444444 -11.8024 -18.999997)"/>
  </g>
  <path d="m12 23v13h10v-13" fill="#79a8b7"/>
  <path d="m22 23v3.486c-.579.363-.743.514-1.524.514-1.567 0-2.895-.865-3.318-2.058-.379.25-.852.412-1.373.412-.979 0-2.488-.751-2.785-1.482-.237.067-.839.215-1 .213v-1.084" fill="#f8ddeb"/>
  <path d="m23 12h13v14h-13z" fill="#98cdf1"/>
  <g transform="matrix(.42306065 0 0 .42309478 19.346756 10.768588)">
    <path d="m22.871 27.793l-4.949-5.949-.594-6.086 7.137-1.957 5.444 3.291-.374 4.288-5.75 6.473" fill="#cf8e92" fill-opacity=".941"/>
    <path d="m31.396 21.67l-1.58.916-1.055-.023-1.615-.877c-1.406.62-3.146 1.645-3.146 3.314v1h11v-1c0-1.301-1.764-2.577-3.604-3.33z" fill="#cf362d" transform="matrix(2.3637273 0 0 2.3635366 -45.730455 -25.451952)"/>
    <path d="m23.449 12.332c2.891 0 5.23 2.434 5.23 5.434v2.453c0 3-2.34 5.43-5.23 5.43-2.887 0-5.23-2.43-5.23-5.43v-2.453c0-3 2.344-5.434 5.23-5.434m0 0" fill="#ffcdce"/>
    <path d="m27.09 24.14c.563-.551 2-1.707 2.16-2.469l-.055-4.371c0 0-5.455-3.813-8.328-3.094-1.757.44-3.601 4.07-3.601 4.07 0 0 .884 4.158.844 4.141l1.695 1.719" fill="#ffcdce"/>
    <path d="m18.15 22.434v-4.07c.414-1.777 2.137-3.574 2.996-3.551 1.465.184 2.488 1.48 3.363 2.738 1.102.938 3.855.996 4.574 0v4.555c.816-.316 2.01-1.517 2.01-2.578-.03-12.623-14.491-12.391-14.727-1.164-.03 1.419.965 3.406 1.785 4.07" fill="#d0362d"/>
    <path d="m23.453 27.898l3.637-3.77 1.82 1.883-3.637 3.77m-1.82-1.883" fill="#e6e6e6"/>
    <path d="m19.816 24.13l3.637 3.77-1.816 1.883-3.637-3.766m1.816-1.887" fill="#e6e6e6"/>
  </g>
  <path d="m12 12h10v10h-10z" fill="#2ac0f3"/>
  <g transform="translate(0 1)">
    <path d="m16.1 19l .3 1h1.2l.3-1z" fill="#bf7646"/>
    <path d="m17 12c-1.657 0-3 1.343-3 3 0 1.285.815 2.385 1.95 2.813 0-.001 2.213-.038 2.213-.038 1.077-.455 1.837-1.532 1.837-2.775 0-1.657-1.343-3-3-3z" fill="url(#b)"/>
    <path d="m17 12c-.986 0-1.853.466-2.4 1.2h4.8c-.547-.734-1.414-1.2-2.4-1.2zm2.94 2.4h-5.88c-.04.195-.06.393-.06.6 0 .202.022.409.06.6h5.88c.04-.196.06-.393.06-.6 0-.207-.02-.405-.06-.6zm-.54 2.4h-4.8c.341.446.817.812 1.35 1.012l.375.75h1.35l.488-.788c.496-.21.919-.546 1.237-.975z" fill="url(#c)"/>
  </g>
  <path d="m15.605 32.951c-.829.829-.828 2.484-.828 2.484 0 0 1.142-.008 2.01-.486.25.519.557.912.557.912 0 0 .809-.685 1.115-1.527.136.778.139 1.666.139 1.666h.92c0 0-.01-1.064-.191-1.926.814.242 1.748.086 1.748.086 0 0-.187-1.014-.748-1.701.134-.041.264-.093.385-.162.907-.524 1.293-1.957 1.293-1.957 0 0-1.432-.383-2.342.141z" fill="#45a345"/>
  <path d="m16.828 26.672c-.858 0-1.551.69-1.551 1.551v.049c-.014-.005-.019-.012-.039-.012-.832-.222-1.692.273-1.912 1.105-.224.832.271 1.692 1.102 1.914.051-.014.012.018.021.033-.431.746-.163 1.713.584 2.145.746.431 1.696.161 2.125-.586.002-.063.034 0 .049 0 .607.61 1.583.61 2.193 0 .607-.612.607-1.602 0-2.207-.072-.028.011-.038.014-.049.744-.431.998-1.381.568-2.127-.349-.6-1.029-.868-1.676-.729-.2-.624-.787-1.088-1.479-1.088z" fill="#efe545"/>
  <circle cx="17" cy="30.25" fill="#7b6942" r="1.25"/>
</svg>
