<svg viewBox="0 0 48 48" xmlns="http://www.w3.org/2000/svg" xmlns:xlink="http://www.w3.org/1999/xlink">
  <linearGradient id="a" gradientTransform="matrix(0 -1 1 0 -.0000015 47.999998)" gradientUnits="userSpaceOnUse" x1="1" x2="47">
    <stop offset="0" stop-color="#3d3d3d"/>
    <stop offset="1" stop-color="#474747"/>
  </linearGradient>
  <path d="m47 24c0 22.703-.297 23-23 23-22.703 0-23-.297-23-23 0-22.703.297-23 23-23 22.703 0 23 .297 23 23z" fill="url(#a)"/>
  <path d="m12 12v24l24-2v-20m-17 2h10v8h-8v8h-2m2-14v4h6v-4m-6 0" opacity=".1" transform="translate(1 1)"/>
  <path d="m12 12v24l24-2v-20m-17 2h10v8h-8v8h-2m2-14v4h6v-4m-6 0" fill="#f9f9f9"/>
</svg>
