<svg viewBox="0 0 48 48" xmlns="http://www.w3.org/2000/svg" xmlns:xlink="http://www.w3.org/1999/xlink">
  <linearGradient id="a" gradientUnits="userSpaceOnUse" x2="0" y1="47" y2="1">
    <stop offset="0" stop-color="#c2e7a9"/>
    <stop offset="1" stop-color="#cdebb9"/>
  </linearGradient>
  <path d="m24 1c22.703 0 23 .297 23 23 0 22.703-.297 23-23 23-22.703 0-23-.297-23-23 0-22.703.297-23 23-23z" fill="url(#a)"/>
  <path d="m12.05 30.852c-.259.967.448 2.187 1.412 2.445l.545.146v.553c0 1 .996 2 2 2h7.545l7.285 1.949c.968.259 2.19-.442 2.449-1.408l1.768-6.588.953-.953v-2.596l1.936-7.213c.256-.954-.459-2.191-1.412-2.443l-.523-.139v-.609c0-.992-1.012-2-2-2z" opacity=".1"/>
  <g transform="translate(.01256039 -.00376589)">
    <path d="m17.773 11.04c-.857-.227-1.849.623-2.075 1.464l-4.657 17.352c-.259.967.449 2.186 1.413 2.444l17.376 4.649c.968.259 2.188-.443 2.448-1.409l4.657-17.35c.256-.954-.461-2.19-1.413-2.442z" fill="#aaa"/>
    <path d="m15.01 12.996c-1 0-2 1-2 2v18c0 1 .996 2 2 2h13l7-7v-13c0-.992-1.012-2-2-2z" fill="#f9f9f9" transform="translate(-.01256039 .00376589)"/>
    <path d="m18 16c-2 0-2 0-2 2v6h16v-6c0-2.01 0-2-2-2z" fill="#d8e6ef"/>
    <path d="m16 24v6c0 2.01 0 2 2 2h12l2-2v-6z" fill="#3762a3"/>
    <path d="m28 35l7-7h-5c-.996 0-1.996.996-1.996 1.996v5m-.004.004" fill="#ccc"/>
  </g>
</svg>
