<svg xmlns="http://www.w3.org/2000/svg" viewBox="0 0 48 48">
 <defs>
  <linearGradient id="linearGradient3764" x1="1" x2="47" gradientUnits="userSpaceOnUse" gradientTransform="matrix(0,-1,1,0,-1.5e-6,47.999998)">
   <stop style="stop-color:#e4e4e4;stop-opacity:1"/>
   <stop offset="1" style="stop-color:#eee;stop-opacity:1"/>
  </linearGradient>
 </defs>
 <g>
  
  
  
 </g>
 <g>
  <path d="m 47,24 C 47,46.703 46.703,47 24,47 1.297,47 1,46.703 1,24 1,1.297 1.297,1 24,1 46.703,1 47,1.297 47,24 z" style="fill:url(#linearGradient3764);fill-opacity:1"/>
 </g>
 <g>
  <g>
   <g transform="translate(1,1)">
    <g style="opacity:0.1">
     <!-- color: #eeeeee -->
    </g>
   </g>
  </g>
 </g>
 <g>
  <g>
   <!-- color: #eeeeee -->
  </g>
 </g>
 <g>
  
 </g>
 <g>
  <path d="m 25 10 c -1.623 0.001 -3.235 0.276 -4.771 0.799 l 11.771 10.201 l 0 -9.256 c -2.157 -1.142 -4.56 -1.746 -7 -1.744 z m -6.891 1.68 c -4.982 2.575 -8.115 7.713 -8.113 13.32 c 0 0.937 0.095 1.871 0.273 2.791 l 13.227 -11.291 m 11.504 -2.66 0 16.16 4.123 0 c 0.574 -1.605 0.877 -3.296 0.877 -5 0 -4.261 -1.824 -8.319 -5 -11.16 z m -19 12.16 -4.982 4.43 c 1.018 2.604 2.744 4.872 4.982 6.547 z m 3 6 0 6.74 c 1.892 0.829 3.935 1.26 6 1.26 5.56 -0.001 10.661 -3.083 13.256 -8 z" style="fill:#000;opacity:0.1;fill-opacity:1;stroke:none"/>
  <path d="m 34 12.84 0 16.16 4.123 0 c 0.574 -1.605 0.877 -3.296 0.877 -5 0 -4.261 -1.824 -8.319 -5 -11.16" style="fill:#f7cf61;opacity:1;fill-opacity:1;stroke:none"/>
  <path d="m 18 31 0 6.74 c 1.892 0.829 3.935 1.26 6 1.26 5.56 -0.001 10.661 -3.083 13.256 -8 z" style="fill:#0aa960;opacity:1;fill-opacity:1;stroke:none"/>
  <path d="m 15 25 -4.982 4.43 a 15 15 0 0 0 4.982 6.547 l 0 -10.977" style="fill:#4587fb;opacity:1;fill-opacity:1;stroke:none"/>
  <path d="m 24 9 c -1.623 0.001 -3.235 0.276 -4.771 0.799 l 11.771 10.201 0 -9.256 c -2.157 -1.142 -4.56 -1.746 -7 -1.744" style="fill:#e24c42;opacity:1;fill-opacity:1;stroke:none"/>
  <path d="m 17.11 10.68 c -4.982 2.575 -8.115 7.713 -8.113 13.32 c 0 0.937 0.095 1.871 0.273 2.791 l 13.227 -11.291" style="fill:#9c45a1;opacity:1;fill-opacity:1;stroke:none"/>
 </g>
</svg>
