<svg viewBox="0 0 48 48" xmlns="http://www.w3.org/2000/svg" xmlns:xlink="http://www.w3.org/1999/xlink">
  <defs>
    <linearGradient id="a" gradientTransform="matrix(0 -1 1 0 -.0000015 47.999998)" gradientUnits="userSpaceOnUse" x1="1" x2="47">
      <stop offset="0" stop-color="#e4e4e4"/>
      <stop offset="1" stop-color="#eee"/>
    </linearGradient>
    <g id="b">
      <path d="m21.68 30.902c-.078.578-.086 1.828-.227 2.195-.141.363-.527 1.422-.707 1.785-.066.125-.125.281-.188.441l-.355-.051c.027-.059.059-.117.098-.172.215-.32.211-.82.211-.82 0 0 .473-1.176.574-1.543.102-.367-.023-1.422.035-1.711.059-.285.188-.445.422-1.012.234-.566.008-1.293-.016-1.547-.02-.25-.039-1.172-.098-1.434-.063-.254-.48-1.027-.5-1.215-.016-.18-.758-.453-.758-.453-.012-.418-.23-.727-.23-.727.027-.414-1.258-1.68-1.258-1.68-.41-.363-2.313-1.207-2.813-1.371-.496-.16-.793.145-.793.145-.641-.383-1.25-.09-1.656.129-.406.23-.473.641-.473.641-.254.27-.172-.395-.172-.395 0 0 .211-.813.813-.977.598-.164 1.566.023 1.566.023 1.348-.188 3.383 1.039 3.973 1.582.59.543 1.836 2.434 1.836 2.434 0 0 .406.398.734 1.309.332.898.285 2.773.223 3.145-.063.371-.164.699-.242 1.277m0 0" fill="#ffdca9"/>
      <path d="m16.426 22.309c-.102-.211-.582.16-.918.133-.34-.023-.945-.309-1.348-.258-.402.051-.934.336-1.063.609-.133.273.078 1.34.414 1.445 0 0-.609.602-.344.863.27.262.398.027.406-.094.008-.117-.027-.445.203-.508.23-.066.535-.324.535-.324 0 0-.453-.035-.664-.293-.211-.258-.066-.691.059-.883.129-.195.434-.535.719-.516.281.02.832.305 1.23.293.398-.012.867-.262.77-.469m0 0" fill="#ffdca9"/>
      <path d="m17.254 23.539c0 0 .57.77-.105 1.57-.68.797-.598.441-.598.441l.203.336c0 0 .496-.648.891-.582.395.07.879.469 1.012 1.086.129.613-.301 1.066-.813 1.109-.52.047-2.43-.297-2.43-.297 0 0 .164.133.098.332-.07.195-.199.43-.199.43 0 0 .477-.371 1.602-.246 1.133.121 1.516.352 1.914 1.148.398.797.043 1.902-.199 2.168-.246.266-1.273.27-1.398.543-.133.273.191.578.23.785.043.203-.195.352-.195.352 0 0 .641-.238 1.09-.164.449.07 1.273.574 1.273.574 0 0-.18.07-.125.195.047.125.148.254.086.367-.066.117-.238.188-.238.188 0 0 .281.059.465-.168.188-.23-.148-.297-.027-.406.121-.113.344-.059.344-.059 0 0-.168-.051-.426-.434-.258-.383-.359-.594-.754-.621-.395-.027-.852-.023-.852-.023 0 0-.383-.188-.199-.418.188-.227 1.496-.297 1.496-.297 0 0-.379-.27-.363-.473.012-.199.32-.582.852-.824.527-.246.953-.66 1.012-1.504.059-.844.285-1.02.645-1.32l-.082-.563c0 0-.371.723-.727.938l-.82-.465c0 0 .133.535.574.773 0 0 .293.707-.023 1.172-.316.461-1.074.77-1.074.77 0 0-.148-1.184-.246-1.434-.098-.25-.305-.504-.352-.672-.047-.164.418-1.145.383-1.469-.035-.324-.422-1.32-1.266-1.469 0 0-.02-1.414-.645-1.379m0 0" fill="#ffdca9"/>
      <path d="m15.871 25.461c0 0 .461-.09.844.141.383.23.625.852.266 1.148 0 0-.18.109-.336-.102 0 0 .113-.844-.219-.945-.336-.105-.555-.242-.555-.242m0 0" fill="#ffdca9"/>
      <path d="m16.398 24.406c0 0-.602-.324-1.18-.207-.574.121-.965.82-.965.82 0 0-.246-.543.289-.91.535-.363 1.367-.063 1.762.008.391.07.445.113.094.289m0 0" fill="#ffdca9"/>
      <path d="m15.684 24.03c0 0-.148-.332.086-.398.23-.063.52-.121.414-.25-.105-.129-.688.07-.883.418-.191.352-.191.352-.191.352m.574-.121" fill="#ffdca9"/>
      <path d="m15.12 25.648c0 0-1.141.926-1.211 1.973-.07 1.047.383 1.926.777 1.957.395.027.422-.336.699-.234.27.102.645.492.246.543-.402.051-.816.184-1.145 0-.328-.188-.711-.418-.914-.793-.191-.379-.094-1.141-.113-1.547-.031-.406.797-1.758 1.094-1.941.297-.18.59-.32.563.043m0 0" fill="#ffdca9"/>
      <path d="m17.336 29.04c0 0-.445-.113-.602-.328-.156-.215-.23.023-.145.434.086.41.102 1.059-.031 1.332-.133.273-.691 1-1.367.871-.672-.129-.883-.348-1.039-.602-.152-.254-.488-.316-.563-.082-.07.238.137.535.238.707.102.168.047.164.379.309.328.145.996.355 1.578.195.578-.16 1.145-1.01 1.164-1.289.02-.281.191-1.16.387-1.547m0 0" fill="#ffdca9"/>
      <path d="m21.16 32.879c0 0 .043-1.527-.355-1.867-.395-.336-.52-.301-.523-.434 0-.102-.008-.141.289-.109.234.027.836.508.836.508m-.246 1.902" fill="#ffdca9"/>
      <path d="m16.938 21.922c0 0 .52.223.383.523-.141.301-.148.422.09.441.238.016.379-.344.668-.199.289.145.02.621.313.703.293.082.418.031.59.105.176.074.797.613.719.855-.066.242-.629-.418-.813-.305-.188.102-.496.27-.27.414.23.141.945.188 1.223.52.273.332.344.512.516.348.184-.172-.27-1.32-.602-1.652-.34-.336-2.207-1.832-2.813-1.754m0 0" fill="#ffdca9"/>
      <path d="m20.355 27.504c0 0 .293.152.387.125.094-.031.344-.23.477-.457.133-.227.094-.41.051-.535l.234.277.07.957-.07-.074c0 0-.008-.238-.094-.234-.082.004-.281.152-.281.152l-.539.039-.25-.176m.016-.074" fill="#ffdca9"/>
      <path d="m20.91 30.625c0 0 .18.113.27.078.086-.035.129-.176.129-.176l-.098.387-.199-.016m-.102-.273" fill="#ffdca9"/>
      <path d="m13.906 30.59c-.164.086-.316.148-.293.242.023.098.102 2.563 1.168 2.699 1.066.141 2.01-.133 2.523.277.508.41-.109.703-.109.703 0 0-.086.43.41.125 0 0 .145.102.18.012.035-.09.109-.734-.148-.91-.258-.172-.637-.324-.805-.461-.172-.137-1.41.039-1.73-.043-.68-.18-.59-.793-.824-1.273-.238-.48-.219-1.453-.371-1.371m0 0" fill="#ffdca9"/>
      <path d="m20.75 33.656c0 0-.281.66-.641.633 0 0 .465.219.387.461-.074.242.254-1.094.254-1.094m0 0" fill="#ffdca9"/>
      <path d="m17.563 34.418c0 0 .531-.129.945-.078.418.047.57.426.57.426 0 0-.422-.211-.656-.227-.238-.012-.668.141-.668.141m-.191-.262" fill="#ffdca9"/>
      <path d="m14.832 34.34c0 0-.238-.609-.77-.68-.535-.074-.457-.074-.633-.121-.176-.047-.418-.664-.602-.727-.188-.059-.25-.133-.332-.105-.078.031-.039.125.004.152.043.027.207.063.281.113.074.051.188.547.488.723.305.172.547.203.668.246.117.047.496.297.668.566 0 0 .277.129.227-.168m0 0" fill="#ffdca9"/>
    </g>
  </defs>
  <path d="m47 24c0 22.703-.297 23-23 23-22.703 0-23-.297-23-23 0-22.703.297-23 23-23 22.703 0 23 .297 23 23z" fill="url(#a)"/>
  <path d="m29.11 11.996c-.226 0-.487.026-.791.105l-7.727 2.02-5.592.172c-1.07.031-1.469.51-1.504 1.787l-.004.146c-.294.334-.351.819-.213 1.551l.152.805c-.14 5.46-.283 10.916-.43 16.375v.086c-.035 1.348.348 1.863 1.441 1.941l2.826.197c.293.245.698.303 1.26.213l.539-.088 9.711.678c1.254.09 1.715-.41 1.719-1.863 0-.223 0-.445.002-.668l2.623-.426c1.25-.203 1.628-.772 1.367-2.098.07-.018.139-.028.209-.051.758-.242 1.383-.688 1.793-1.238.414-.543.609-1.203.453-1.828l-.113-14.797c0-.07-.027-.135-.074-.186-.051-.047-.117-.072-.188-.068l.008-.004c-.031 0-.063.012-.09.027l-5.342 2.402c-.262-1.245-.526-2.49-.789-3.734-.208-.982-.569-1.428-1.248-1.457zm-7.125 4.104c.552 0 1 .436 1 .975 0 .539-.447.977-1 .977-.553 0-1-.437-1-.977 0-.538.448-.975 1-.975zm13.18 3.03l.027 9.24c-.496-.082-1.047-.041-1.602.139-.625-2.641-1.223-5.548-1.719-7.881z" opacity=".1" transform=""/>
  <g transform="translate(.000177)">
    <path d="m14.664 29.508l.016.086.977 5.203.02.086c.242 1.289.734 1.691 1.848 1.512l14.594-2.367c1.273-.207 1.645-.789 1.355-2.168l-.023-.094-1.801-8.484-.023-.09-.637-2.984-1.02-4.836-.617-2.918c-.277-1.309-.824-1.668-2.039-1.352l-13.898 3.633c-1.07.273-1.371.82-1.141 2.043l.516 2.73 1.352 7.191.531 2.801m4.875-13.215c-.387-.707-.047-1.508.762-1.781.809-.277 1.773.074 2.164.781.387.711.047 1.508-.762 1.781-.809.277-1.777-.074-2.164-.781m0 0" fill="#ff9327" fill-rule="evenodd"/>
    <path d="m12.148 28.418l-.004.09-.145 5.449v.086c-.035 1.348.348 1.863 1.441 1.941l14.336 1c1.254.09 1.715-.41 1.719-1.863v-.098l.043-8.93v-.098l.016-3.137.02-5.094.016-3.074c.008-1.375-.434-1.863-1.656-1.824l-13.938.426c-1.07.031-1.469.512-1.504 1.789l-.074 2.859-.195 7.535-.078 2.934m7.359-12.145c-.223-.801.27-1.523 1.09-1.609.82-.09 1.668.484 1.891 1.289.223.801-.27 1.523-1.09 1.613-.82.086-1.668-.488-1.891-1.293m0 0" fill="#5b59a3" fill-rule="evenodd"/>
    <use height="48" width="48" xlink:href="#b"/>
    <path d="m35.574 13.758c-.031 0-.063.012-.09.027l-12.703 5.715c-.094.043-.152.133-.148.234l.133 10.922c-.512-.09-1.082-.055-1.656.129-.754.238-1.379.691-1.793 1.234-.41.547-.609 1.207-.453 1.832.156.629.641 1.086 1.25 1.313.609.227 1.355.234 2.109-.008.75-.242 1.371-.684 1.785-1.223.398-.527.602-1.16.473-1.77.004-2.645.059-9.375.059-9.66l9.621-4.375.027 9.242c-.496-.082-1.047-.043-1.602.137-.758.238-1.383.688-1.793 1.234-.414.547-.609 1.207-.457 1.832.156.629.641 1.086 1.25 1.313.609.227 1.355.234 2.109-.008.758-.242 1.383-.688 1.793-1.238.414-.543.609-1.203.453-1.828l-.113-14.797c0-.07-.027-.133-.074-.184-.051-.047-.117-.074-.188-.07m.008-.004" fill="#e53b70" fill-rule="evenodd"/>
  </g>
  <path d="m20.975 14.482c-.916 0-1.674.73-1.674 1.635 0 .904.758 1.633 1.674 1.633.916 0 1.676-.728 1.676-1.633 0-.904-.76-1.635-1.676-1.635zm0 .633c.569 0 1.014.427 1.014.963 0 .536-.445.972-1.014.972-.569 0-.994-.437-.994-.972 0-.536.425-.963.994-.963z" fill="#2d2d2d"/>
</svg>
