<svg viewBox="0 0 48 48" xmlns="http://www.w3.org/2000/svg" xmlns:xlink="http://www.w3.org/1999/xlink">
  <linearGradient id="a" gradientTransform="matrix(0 -1 1 0 -.0000015 47.999998)" gradientUnits="userSpaceOnUse" x1="1" x2="47">
    <stop offset="0" stop-color="#505050"/>
    <stop offset="1" stop-color="#5a5a5a"/>
  </linearGradient>
  <path d="m47 24c0 22.703-.297 23-23 23-22.703 0-23-.297-23-23 0-22.703.297-23 23-23 22.703 0 23 .297 23 23z" fill="url(#a)"/>
  <path d="m15 12c-1.662 0-3 1.338-3 3v10c0 7.18 5.82 13 13 13 7.18 0 13-5.82 13-13 0-7.18-5.82-13-13-13zm .5 2c .828 0 1.5.672 1.5 1.5 0 .828-.672 1.5-1.5 1.5-.828 0-1.5-.672-1.5-1.5 0-.828.672-1.5 1.5-1.5" opacity=".1"/>
  <path d="m14 11c-1.662 0-3 1.338-3 3v10c0 7.18 5.82 13 13 13 7.18 0 13-5.82 13-13 0-7.18-5.82-13-13-13zm .5 2c .828 0 1.5.672 1.5 1.5 0 .828-.672 1.5-1.5 1.5-.828 0-1.5-.672-1.5-1.5 0-.828.672-1.5 1.5-1.5" fill="#eaeaea"/>
  <path d="m18 16.01c-.752.566-1.42 1.235-1.984 1.988l3.984 2c0 0-2-4-2-3.988z" fill="#0f436d"/>
  <path d="m22 14.213c-1.45.296-2.816.911-4 1.799v1.988h-1.984c-.893 1.183-1.512 2.549-1.813 4l12.797 5c0 0-4.242-11.408-5-12.787z" fill="#114d7d"/>
  <path d="m24 14c-.672.002-1.342.075-2 .213v3.787h-4v4h-3.797c-.135.658-.205 1.328-.203 2 .002.672.075 1.342.213 2l15.787 4-4-15.797c-.658-.135-1.328-.205-2-.203" fill="#145a92"/>
  <path d="m26 14.203v3.797h-4v4h-4v4h-3.787c.296 1.45.911 2.816 1.799 4l14.988 1-1-14.984c-1.183-.893-2.549-1.512-4-1.813z" fill="#186db2"/>
  <path d="m30 16.02v1.984h-4v4h-4v4h-4v4h-1.988c.566.752 1.235 1.42 1.988 1.984l12-1.984 1.988-12c-.566-.752-1.235-1.42-1.988-1.984" fill="#1a77c2"/>
  <path d="m30 18v4h-4v4h-4v4h-4v1.984c1.183.893 2.549 1.512 4 1.813l9-2.797 2.787-9c-.296-1.45-.911-2.816-1.799-4" fill="#579ed6"/>
  <path d="m30 22v4h-4v4h-4v3.797c.658.135 1.328.205 2 .203.672-.002 1.342-.075 2-.213l4.5-3.287 3.297-4.5c.135-.658.205-1.328.203-2-.002-.672-.075-1.342-.213-2z" fill="#6baadd"/>
  <path d="m30 26v4h-4v3.787c1.45-.296 2.816-.911 4-1.799l.5-1.488 1.484-.5c.893-1.183 1.512-2.549 1.813-4z" fill="#90c2e9"/>
  <path d="m30 30v1.988a10 10 0 0 0 1.984-1.988z" fill="#a0ccef"/>
  <path d="m24 14c-5.523-.002-10 4.477-10 10 .002 2.757 1.148 5.389 3.158 7.275-1.706-1.844-2.657-4.263-2.658-6.775-.002-5.523 4.477-10 10-10 2.544.002 4.991.979 6.842 2.725-1.89-2.052-4.552-3.223-7.342-3.225z" opacity=".1"/>
</svg>
