<svg xmlns="http://www.w3.org/2000/svg" viewBox="0 0 48 48">
 <defs>
  <linearGradient id="linearGradient3764" x1="1" x2="47" gradientUnits="userSpaceOnUse" gradientTransform="matrix(0,-1,1,0,-1.5e-6,47.999998)">
   <stop style="stop-color:#505050;stop-opacity:1"/>
   <stop offset="1" style="stop-color:#5a5a5a;stop-opacity:1"/>
  </linearGradient>
 </defs>
 <g>
  
  
  
 </g>
 <g>
  <path d="m 47,24 C 47,46.703 46.703,47 24,47 1.297,47 1,46.703 1,24 1,1.297 1.297,1 24,1 46.703,1 47,1.297 47,24 z" style="fill:url(#linearGradient3764);fill-opacity:1"/>
 </g>
 <g>
  <g>
   <!-- color: #eeeeee -->
  </g>
 </g>
 <g>
  
 </g>
 <path d="m 15 12 c -1.662 0 -3 1.338 -3 3 l 0 10 c 0 7.18 5.82 13 13 13 7.18 0 13 -5.82 13 -13 0 -7.18 -5.82 -13 -13 -13 z m 0.5 2 c 0.828 0 1.5 0.672 1.5 1.5 0 0.828 -0.672 1.5 -1.5 1.5 -0.828 0 -1.5 -0.672 -1.5 -1.5 0 -0.828 0.672 -1.5 1.5 -1.5" style="fill:#000;opacity:0.1;fill-opacity:1;stroke:none"/>
 <path d="m 14 11 c -1.662 0 -3 1.338 -3 3 l 0 10 c 0 7.18 5.82 13 13 13 7.18 0 13 -5.82 13 -13 0 -7.18 -5.82 -13 -13 -13 z m 0.5 2 c 0.828 0 1.5 0.672 1.5 1.5 0 0.828 -0.672 1.5 -1.5 1.5 -0.828 0 -1.5 -0.672 -1.5 -1.5 0 -0.828 0.672 -1.5 1.5 -1.5" style="fill:#eaeaea;opacity:1;fill-opacity:1;stroke:none"/>
 <g>
  <g>
   <path d="m 18 16.01 c -0.752 0.566 -1.42 1.235 -1.984 1.988 l 3.984 2 c 0 0 -2 -4 -2 -3.988 z" style="fill:#0f436d;opacity:1;fill-opacity:1;stroke:none"/>
   <path d="m 22 14.213 c -1.45 0.296 -2.816 0.911 -4 1.799 l 0 1.988 -1.984 0 c -0.893 1.183 -1.512 2.549 -1.813 4 l 12.797 5 c 0 0 -4.242 -11.408 -5 -12.787 z" style="fill:#114d7d;opacity:1;fill-opacity:1;stroke:none"/>
   <path d="m 24 14 c -0.672 0.002 -1.342 0.075 -2 0.213 l 0 3.787 l -4 0 0 4 -3.797 0 c -0.135 0.658 -0.205 1.328 -0.203 2 c 0.002 0.672 0.075 1.342 0.213 2 l 15.787 4 -4 -15.797 c -0.658 -0.135 -1.328 -0.205 -2 -0.203" style="fill:#145a92;opacity:1;fill-opacity:1;stroke:none"/>
   <path d="m 26 14.203 0 3.797 l -4 0 0 4 -4 0 0 4 -3.787 0 c 0.296 1.45 0.911 2.816 1.799 4 l 14.988 1 -1 -14.984 c -1.183 -0.893 -2.549 -1.512 -4 -1.813 z" style="fill:#186db2;opacity:1;fill-opacity:1;stroke:none"/>
   <path d="m 30 16.02 0 1.984 l -4 0 0 4 -4 0 0 4 -4 0 0 4 -1.988 0 c 0.566 0.752 1.235 1.42 1.988 1.984 l 12 -1.984 1.988 -12 c -0.566 -0.752 -1.235 -1.42 -1.988 -1.984" style="fill:#1a77c2;opacity:1;fill-opacity:1;stroke:none"/>
   <path d="m 30 18 0 4 -4 0 0 4 -4 0 0 4 -4 0 0 1.984 c 1.183 0.893 2.549 1.512 4 1.813 l 9 -2.797 2.787 -9 c -0.296 -1.45 -0.911 -2.816 -1.799 -4" style="fill:#579ed6;opacity:1;fill-opacity:1;stroke:none"/>
   <path d="m 30 22 0 4 -4 0 0 4 -4 0 0 3.797 c 0.658 0.135 1.328 0.205 2 0.203 0.672 -0.002 1.342 -0.075 2 -0.213 l 4.5 -3.287 3.297 -4.5 c 0.135 -0.658 0.205 -1.328 0.203 -2 c -0.002 -0.672 -0.075 -1.342 -0.213 -2 z" style="fill:#6baadd;opacity:1;fill-opacity:1;stroke:none"/>
   <path d="m 30 26 0 4 -4 0 0 3.787 c 1.45 -0.296 2.816 -0.911 4 -1.799 l 0.5 -1.488 1.484 -0.5 c 0.893 -1.183 1.512 -2.549 1.813 -4 z" style="fill:#90c2e9;opacity:1;fill-opacity:1;stroke:none"/>
   <path d="m 30 30 0 1.988 a 10 10 0 0 0 1.984 -1.988 l -1.984 0 z" style="fill:#a0ccef;opacity:1;fill-opacity:1;stroke:none"/>
  </g>
  <path d="m 24 14 c -5.523 -0.002 -10 4.477 -10 10 0.002 2.757 1.148 5.389 3.158 7.275 -1.706 -1.844 -2.657 -4.263 -2.658 -6.775 -0.002 -5.523 4.477 -10 10 -10 2.544 0.002 4.991 0.979 6.842 2.725 -1.89 -2.052 -4.552 -3.223 -7.342 -3.225 z" style="fill:#000;opacity:0.1;fill-opacity:1;stroke:none"/>
 </g>
</svg>
