<svg viewBox="0 0 48 48" xmlns="http://www.w3.org/2000/svg" xmlns:xlink="http://www.w3.org/1999/xlink">
  <linearGradient id="a" gradientTransform="matrix(0 -1 1 0 -.0000015 47.999998)" gradientUnits="userSpaceOnUse" x1="1" x2="47">
    <stop offset="0" stop-color="#dbdbdb"/>
    <stop offset="1" stop-color="#e5e5e5"/>
  </linearGradient>
  <path d="m47 24c0 22.703-.297 23-23 23-22.703 0-23-.297-23-23 0-22.703.297-23 23-23 22.703 0 23 .297 23 23z" fill="url(#a)"/>
  <g opacity=".1" transform="translate(1 1)">
    <path d="m16 18c-1.656 0-3 1.344-3 3v8.996c0 1.656 1.344 3 3 3h1v .004c0 .554.446 1 1 1h2c .554 0 1-.446 1-1 2.089-.009 4.215-.005 6 0 0 .554.446 1 1 1h2c .554 0 1-.446 1-1 .324-.008.669-.004 1-.004 1.656 0 3-1.34 3-3v-8.996c0-1.656-1.344-3-3-3z"/>
    <path d="m16.457 20h15.09c.805 0 1.457.652 1.457 1.453v8.09c0 .805-.652 1.457-1.457 1.457h-15.09c-.805 0-1.457-.652-1.457-1.457v-8.09c0-.801.652-1.453 1.457-1.453m0 0"/>
    <path d="m30 18c0 1.105-.895 2-2 2-1.105 0-2-.895-2-2 0-1.105.895-2 2-2 1.105 0 2 .895 2 2m0 0"/>
    <path d="m24.22 12.889l-.445.223 1.154 2.311.961-.959.871 2.615.473-.156-1.127-3.385-1.043 1.041-.844-1.689z" fill="#2d2d2d" opacity="1"/>
    <path d="m29 17l2-4z" stroke="#2d2d2d" stroke-width=".5"/>
    <path d="m25 13c0 .551-.449 1-1 1-.551 0-1-.449-1-1 0-.551.449-1 1-1 .551 0 1 .449 1 1m0 0"/>
    <path d="m32 13c0 .551-.449 1-1 1-.551 0-1-.449-1-1 0-.551.449-1 1-1 .551 0 1 .449 1 1m0 0"/>
    <path d="m22 24.5c0 1.379-.672 2.5-1.5 2.5-.828 0-1.5-1.121-1.5-2.5 0-1.379.672-2.5 1.5-2.5.828 0 1.5 1.121 1.5 2.5m0 0"/>
    <path d="m29 24.5c0 1.379-.672 2.5-1.5 2.5-.828 0-1.5-1.121-1.5-2.5 0-1.379.672-2.5 1.5-2.5.828 0 1.5 1.121 1.5 2.5m0 0"/>
    <path d="m21 25c0 .551-.223 1-.5 1-.277 0-.5-.449-.5-1 0-.551.223-1 .5-1 .277 0 .5.449.5 1m0 0"/>
    <path d="m28 25c0 .551-.223 1-.5 1-.277 0-.5-.449-.5-1 0-.551.223-1 .5-1 .277 0 .5.449.5 1m0 0"/>
    <path d="m20.969 28.531l-.5.781c1.043.414 2.23.688 3.531.688 1.301 0 2.488-.273 3.531-.688l-.5-.781c-.922.297-1.941.469-3.03.469-1.09 0-2.109-.172-3.03-.469m-.004 0"/>
  </g>
  <rect fill="#c4983c" height="2" rx="1" width="4" x="17" y="32"/>
  <rect fill="#c4983c" height="2" rx="1" width="4" x="27" y="32"/>
  <path d="m16 18h16c1.656 0 3 1.344 3 3v8.996c0 1.66-1.344 3-3 3h-16c-1.656 0-3-1.344-3-3v-8.996c0-1.656 1.344-3 3-3m0 0" fill="#dbad4c"/>
  <path d="m30 18c0 1.105-.895 2-2 2-1.105 0-2-.895-2-2 0-1.105.895-2 2-2 1.105 0 2 .895 2 2m0 0" fill="#dbad4c"/>
  <path d="m16.457 20h15.09c.805 0 1.457.652 1.457 1.453v8.09c0 .805-.652 1.457-1.457 1.457h-15.09c-.805 0-1.457-.652-1.457-1.457v-8.09c0-.801.652-1.453 1.457-1.453m0 0" fill="#395820"/>
  <path d="m24.22 12.889l-.445.223 1.154 2.311.961-.959.871 2.615.473-.156-1.127-3.385-1.043 1.041-.844-1.689z" fill="#dbad4c"/>
  <path d="m30.777 12.889l-2 4 .445.223 2-4z" fill="#dbad4c"/>
  <path d="m25 13c0 .551-.449 1-1 1-.551 0-1-.449-1-1 0-.551.449-1 1-1 .551 0 1 .449 1 1m0 0" fill="#dbad4c"/>
  <path d="m32 13c0 .551-.449 1-1 1-.551 0-1-.449-1-1 0-.551.449-1 1-1 .551 0 1 .449 1 1m0 0" fill="#dbad4c"/>
  <path d="m16.457 20h15.09c.805 0 1.457.652 1.457 1.453v8.09c0 .805-.652 1.457-1.457 1.457h-15.09c-.805 0-1.457-.652-1.457-1.457v-8.09c0-.801.652-1.453 1.457-1.453m0 0" fill="#4c752b"/>
  <path d="m20.5 22c-.828 0-1.5.785-1.5 1.75 0 .965.672 1.75 1.5 1.75.828 0 1.5-.785 1.5-1.75 0-.965-.672-1.75-1.5-1.75m0 1c .277 0 .5.449.5 1 0 .551-.223 1-.5 1-.277 0-.5-.449-.5-1 0-.551.223-1 .5-1z" fill="#282828"/>
  <path d="m27.5 22c-.828 0-1.5.785-1.5 1.75 0 .965.672 1.75 1.5 1.75.828 0 1.5-.785 1.5-1.75 0-.965-.672-1.75-1.5-1.75m0 1c .277 0 .5.449.5 1 0 .551-.223 1-.5 1-.277 0-.5-.449-.5-1 0-.551.223-1 .5-1z" fill="#282828"/>
  <path d="m20.969 27.531l-.5.781c1.043.414 2.23.688 3.531.688 1.301 0 2.488-.273 3.531-.688l-.5-.781c-.922.297-1.941.469-3.03.469-1.09 0-2.109-.172-3.03-.469m-.004 0" fill="#282828"/>
</svg>
