<svg xmlns="http://www.w3.org/2000/svg" viewBox="0 0 48 48">
 <defs>
  <linearGradient id="linearGradient3764" x1="1" x2="47" gradientUnits="userSpaceOnUse" gradientTransform="matrix(0,-1,1,0,-1.5e-6,47.999998)">
   <stop style="stop-color:#dbdbdb;stop-opacity:1"/>
   <stop offset="1" style="stop-color:#e5e5e5;stop-opacity:1"/>
  </linearGradient>
 </defs>
 <g>
  
  
  
 </g>
 <g>
  <path d="m 47,24 C 47,46.703 46.703,47 24,47 1.297,47 1,46.703 1,24 1,1.297 1.297,1 24,1 46.703,1 47,1.297 47,24 z" style="fill:url(#linearGradient3764);fill-opacity:1"/>
 </g>
 <g>
  <g>
   <g transform="translate(1,1)">
    <g style="opacity:0.1">
     <!-- color: #e5e5e5 -->
     <g>
      <path d="m 16 18 c -1.656 0 -3 1.344 -3 3 l 0 8.996 c 0 1.656 1.344 3 3 3 l 1 0 0 0.004 c 0 0.554 0.446 1 1 1 l 2 0 c 0.554 0 1 -0.446 1 -1 2.089 -0.009 4.215 -0.005 6 0 0 0.554 0.446 1 1 1 l 2 0 c 0.554 0 1 -0.446 1 -1 0.324 -0.008 0.669 -0.004 1 -0.004 1.656 0 3 -1.34 3 -3 l 0 -8.996 c 0 -1.656 -1.344 -3 -3 -3 z"/>
      <path d="m 16.457 20 l 15.09 0 c 0.805 0 1.457 0.652 1.457 1.453 l 0 8.09 c 0 0.805 -0.652 1.457 -1.457 1.457 l -15.09 0 c -0.805 0 -1.457 -0.652 -1.457 -1.457 l 0 -8.09 c 0 -0.801 0.652 -1.453 1.457 -1.453 m 0 0" style="fill:#000;fill-opacity:1;stroke:none;fill-rule:nonzero"/>
      <path d="m 30 18 c 0 1.105 -0.895 2 -2 2 -1.105 0 -2 -0.895 -2 -2 0 -1.105 0.895 -2 2 -2 1.105 0 2 0.895 2 2 m 0 0" style="fill:#000;fill-opacity:1;stroke:none;fill-rule:nonzero"/>
      <path d="m 24.22 12.889 -0.445 0.223 1.154 2.311 0.961 -0.959 0.871 2.615 0.473 -0.156 -1.127 -3.385 -1.043 1.041 -0.844 -1.689 z" mix-blend-mode="normal" isolation="auto" white-space="normal" solid-opacity="1" solid-color="#000000" style="visibility:visible;shape-rendering:auto;color-interpolation-filters:linearRGB;fill:#2d2d2d;opacity:1;image-rendering:auto;fill-opacity:1;stroke:none;display:inline;color:#000;fill-rule:nonzero;color-rendering:auto;color-interpolation:sRGB"/>
      <path d="m 29 17 2 -4 -2 4" style="stroke-opacity:1;fill:#000;stroke-miterlimit:4;stroke:#2d2d2d;stroke-linecap:butt;stroke-linejoin:miter;stroke-width:0.5"/>
      <path d="m 25 13 c 0 0.551 -0.449 1 -1 1 -0.551 0 -1 -0.449 -1 -1 0 -0.551 0.449 -1 1 -1 0.551 0 1 0.449 1 1 m 0 0" style="fill:#000;fill-opacity:1;stroke:none;fill-rule:nonzero"/>
      <path d="m 32 13 c 0 0.551 -0.449 1 -1 1 -0.551 0 -1 -0.449 -1 -1 0 -0.551 0.449 -1 1 -1 0.551 0 1 0.449 1 1 m 0 0" style="fill:#000;fill-opacity:1;stroke:none;fill-rule:nonzero"/>
      <path d="m 22 24.5 c 0 1.379 -0.672 2.5 -1.5 2.5 c -0.828 0 -1.5 -1.121 -1.5 -2.5 c 0 -1.379 0.672 -2.5 1.5 -2.5 c 0.828 0 1.5 1.121 1.5 2.5 m 0 0" style="fill:#000;fill-opacity:1;stroke:none;fill-rule:nonzero"/>
      <path d="m 29 24.5 c 0 1.379 -0.672 2.5 -1.5 2.5 c -0.828 0 -1.5 -1.121 -1.5 -2.5 c 0 -1.379 0.672 -2.5 1.5 -2.5 c 0.828 0 1.5 1.121 1.5 2.5 m 0 0" style="fill:#000;fill-opacity:1;stroke:none;fill-rule:nonzero"/>
      <path d="m 21 25 c 0 0.551 -0.223 1 -0.5 1 c -0.277 0 -0.5 -0.449 -0.5 -1 c 0 -0.551 0.223 -1 0.5 -1 c 0.277 0 0.5 0.449 0.5 1 m 0 0" style="fill:#000;fill-opacity:1;stroke:none;fill-rule:nonzero"/>
      <path d="m 28 25 c 0 0.551 -0.223 1 -0.5 1 c -0.277 0 -0.5 -0.449 -0.5 -1 c 0 -0.551 0.223 -1 0.5 -1 c 0.277 0 0.5 0.449 0.5 1 m 0 0" style="fill:#000;fill-opacity:1;stroke:none;fill-rule:nonzero"/>
      <path d="m 20.969 28.531 l -0.5 0.781 c 1.043 0.414 2.23 0.688 3.531 0.688 c 1.301 0 2.488 -0.273 3.531 -0.688 l -0.5 -0.781 c -0.922 0.297 -1.941 0.469 -3.03 0.469 c -1.09 0 -2.109 -0.172 -3.03 -0.469 m -0.004 0" style="fill:#000;fill-opacity:1;stroke:none;fill-rule:nonzero"/>
     </g>
    </g>
   </g>
  </g>
 </g>
 <g>
  <rect rx="1" y="32" x="17" height="2" width="4" style="fill:#c4983c;fill-opacity:1"/>
  <rect width="4" height="2" x="27" y="32" rx="1" style="fill:#c4983c;fill-opacity:1"/>
  <g>
   <g>
    <!-- color: #e5e5e5 -->
    <g>
     <path d="m 16 18 l 16 0 c 1.656 0 3 1.344 3 3 l 0 8.996 c 0 1.66 -1.344 3 -3 3 l -16 0 c -1.656 0 -3 -1.344 -3 -3 l 0 -8.996 c 0 -1.656 1.344 -3 3 -3 m 0 0" style="fill:#dbad4c;fill-opacity:1;stroke:none;fill-rule:nonzero"/>
     <path d="m 30 18 c 0 1.105 -0.895 2 -2 2 -1.105 0 -2 -0.895 -2 -2 0 -1.105 0.895 -2 2 -2 1.105 0 2 0.895 2 2 m 0 0" style="fill:#dbad4c;fill-opacity:1;stroke:none;fill-rule:nonzero"/>
     <path d="m 16.457 20 l 15.09 0 c 0.805 0 1.457 0.652 1.457 1.453 l 0 8.09 c 0 0.805 -0.652 1.457 -1.457 1.457 l -15.09 0 c -0.805 0 -1.457 -0.652 -1.457 -1.457 l 0 -8.09 c 0 -0.801 0.652 -1.453 1.457 -1.453 m 0 0" style="fill:#395820;fill-opacity:1;stroke:none;fill-rule:nonzero"/>
     <path d="m 24.22 12.889 -0.445 0.223 1.154 2.311 0.961 -0.959 0.871 2.615 0.473 -0.156 -1.127 -3.385 -1.043 1.041 -0.844 -1.689 z" mix-blend-mode="normal" isolation="auto" white-space="normal" solid-opacity="1" solid-color="#000000" style="visibility:visible;shape-rendering:auto;color-interpolation-filters:linearRGB;fill:#dbad4c;opacity:1;image-rendering:auto;fill-opacity:1;stroke:none;display:inline;color:#000;fill-rule:nonzero;color-rendering:auto;color-interpolation:sRGB"/>
     <path d="m 30.777 12.889 -2 4 0.445 0.223 2 -4 -0.445 -0.223 z" mix-blend-mode="normal" isolation="auto" white-space="normal" solid-opacity="1" solid-color="#000000" style="visibility:visible;shape-rendering:auto;color-interpolation-filters:linearRGB;fill:#dbad4c;opacity:1;image-rendering:auto;fill-opacity:1;stroke:none;display:inline;color:#000;fill-rule:nonzero;color-rendering:auto;color-interpolation:sRGB"/>
     <path d="m 25 13 c 0 0.551 -0.449 1 -1 1 -0.551 0 -1 -0.449 -1 -1 0 -0.551 0.449 -1 1 -1 0.551 0 1 0.449 1 1 m 0 0" style="fill:#dbad4c;fill-opacity:1;stroke:none;fill-rule:nonzero"/>
     <path d="m 32 13 c 0 0.551 -0.449 1 -1 1 -0.551 0 -1 -0.449 -1 -1 0 -0.551 0.449 -1 1 -1 0.551 0 1 0.449 1 1 m 0 0" style="fill:#dbad4c;fill-opacity:1;stroke:none;fill-rule:nonzero"/>
     <path d="m 16.457 20 l 15.09 0 c 0.805 0 1.457 0.652 1.457 1.453 l 0 8.09 c 0 0.805 -0.652 1.457 -1.457 1.457 l -15.09 0 c -0.805 0 -1.457 -0.652 -1.457 -1.457 l 0 -8.09 c 0 -0.801 0.652 -1.453 1.457 -1.453 m 0 0" style="fill:#4c752b;fill-opacity:1;stroke:none;fill-rule:nonzero"/>
     <path d="m 20.5 22 c -0.828 0 -1.5 0.785 -1.5 1.75 0 0.965 0.672 1.75 1.5 1.75 0.828 0 1.5 -0.785 1.5 -1.75 c 0 -0.965 -0.672 -1.75 -1.5 -1.75 m 0 1 c 0.277 0 0.5 0.449 0.5 1 0 0.551 -0.223 1 -0.5 1 -0.277 0 -0.5 -0.449 -0.5 -1 0 -0.551 0.223 -1 0.5 -1 z" style="fill:#282828;fill-opacity:1;stroke:none;fill-rule:nonzero"/>
     <path d="m 27.5 22 c -0.828 0 -1.5 0.785 -1.5 1.75 0 0.965 0.672 1.75 1.5 1.75 0.828 0 1.5 -0.785 1.5 -1.75 c 0 -0.965 -0.672 -1.75 -1.5 -1.75 m 0 1 c 0.277 0 0.5 0.449 0.5 1 0 0.551 -0.223 1 -0.5 1 -0.277 0 -0.5 -0.449 -0.5 -1 0 -0.551 0.223 -1 0.5 -1 z" style="fill:#282828;fill-opacity:1;stroke:none;fill-rule:nonzero"/>
     <path d="m 20.969,27.531 -0.5,0.781 C 21.512,28.726 22.699,29 24,29 c 1.301,0 2.488,-0.273 3.531,-0.688 l -0.5,-0.781 C 26.109,27.828 25.09,28 24.001,28 c -1.09,0 -2.109,-0.172 -3.03,-0.469 m -0.004,0" style="fill:#282828;fill-opacity:1;stroke:none;fill-rule:nonzero"/>
    </g>
   </g>
  </g>
 </g>
 <g>
  
 </g>
</svg>
