<svg viewBox="0 0 48 48" xmlns="http://www.w3.org/2000/svg" xmlns:xlink="http://www.w3.org/1999/xlink">
  <linearGradient id="a" gradientTransform="matrix(0 -1 1 0 -.0000015 47.999998)" gradientUnits="userSpaceOnUse" x1="1" x2="47">
    <stop offset="0" stop-color="#57b1cf"/>
    <stop offset="1" stop-color="#67b8d3"/>
  </linearGradient>
  <linearGradient id="b" gradientTransform="matrix(1.026316 0 0 1.02 -.178246 -.135467)" gradientUnits="userSpaceOnUse" x1="6.905" x2="6.712" y1="10.308" y2="4.634">
    <stop offset="0" stop-color="#d5ecf1"/>
    <stop offset="1" stop-color="#f9f9f9"/>
  </linearGradient>
  <path d="m47 24c0 22.703-.297 23-23 23-22.703 0-23-.297-23-23 0-22.703.297-23 23-23 22.703 0 23 .297 23 23z" fill="url(#a)"/>
  <path d="m24.984 12c-.572-.007-1.124.114-1.625.354-1.965.939-3.049 3.694-2.01 7.445l-5.73 5.287-.008.008c-.235.258-.4.482-.504.686-.104.204-.151.408-.098.602.053.194.207.329.375.408.168.079.36.119.58.145.882.104 2.234-.037 3.467.021h.021c-.035.86 0 1.568.049 2.098.04.549.05.926-.021 1.127-.036.101-.08.162-.166.223-.456.222-.979.193-1.488.213h-.289c-.256 0-.49 0-.805-.006l-.221-.008c-.216 1.054-.084 2.246.127 3.184.108.344.245.667.418.965 0 0 0 .003.002.004.318.548.737 1.025 1.26 1.42 1.508 1.139 3.784 1.662 6.65 1.813l.068.006.063-.033c1.076-.595 1.76-1.047 2.34-1.17.58-.123 1.113.021 2.035.727l.125.098.145-.076c1.739-.943 3.805-2.138 4.748-3.51.471-.686.648-1.467.275-2.207-.355-.704-1.226-1.334-2.594-1.932l-.596-3.287c.612-.008 1.153-.03 1.48-.109.196-.048.352-.113.479-.209.126-.096.22-.249.221-.408 0-.318-.22-.529-.492-.762-.272-.233-.638-.482-1.051-.74-.827-.517-1.854-1.085-2.686-1.639-.416-.277-.783-.547-1.045-.797-.257-.245-.395-.462-.422-.602-.036-.701.019-1.119.131-1.322.113-.205.277-.278.645-.34.735-.123 2.114-.064 4.186-.713l.152-.041.021-.158c.058-.455.053-.845-.049-1.184-.101-.338-.303-.618-.588-.846-.56-.448-1.439-.728-2.719-1.113-.902-1.591-1.985-2.676-3.115-3.205-.582-.272-1.174-.407-1.746-.414" fill="#2d2d2d" opacity=".1" transform=""/>
  <g transform="translate(-.00046745)">
    <path d="m4.437 8.43c1.184.039.794-.119.842-1.121.977-.742.775-.911-.073-.053-.711-.034-1.54.154-1.029-.407l1.637-1.51c-.637-2.139 1.279-3 2.292-1.15.742.223.975.324.912.815-1.15.36-1.494-.082-1.45.743.088.531 2.8 1.428.98 1.414l.186 1.031c1.659.691.323 1.529-.655 2.059-.535-.409-.708-.214-1.31.119-1.604-.084-2.519-.602-2.337-1.938m-.001-.002" fill="url(#b)" stroke="#2d2d2d" stroke-width=".141" transform="scale(3.543307)"/>
    <path d="m5.24 8.389c-.095.019-.18.028-.262.032-.012 0-.032.001-.044.002-.025.001-.051.003-.074.004-.032.001-.073.002-.108.003-.022 0-.054 0-.084 0-.073 0-.139-.001-.228-.003-.055.415-.011.751.131 1.02l.032-.007c.387-.159.551-.602.636-1.054m.001 0" fill="none" stroke="#2d2d2d" stroke-width=".141" transform="scale(3.543307)"/>
    <path d="m7.463 6.617c-.842-.028-1.521 1.508-.106 3.355.203-.492.439-1.603 1.337-1.808-.292-1.087-.792-1.529-1.233-1.547m-.001 0" fill="none" stroke="#2d2d2d" stroke-width=".141" transform="scale(3.543307)"/>
    <path d="m8.089 4.154l-.024.026c-.569.082-1.215.926-.385 1.035l.118-.008c.215-.053.602-.011 1.225-.206.063-.487-.17-.594-.913-.817-.009-.011-.012-.022-.021-.033m0 0" fill="none" stroke="#2d2d2d" stroke-width=".141" transform="scale(3.543307)"/>
    <path d="m26 15c .008.363-.184.699-.496.883-.313.184-.699.184-1.012 0-.313-.184-.5-.52-.492-.883-.008-.363.18-.699.492-.883.313-.184.699-.184 1.012 0 .313.184.504.52.496.883m0 0" fill="#2d2d2d"/>
  </g>
</svg>
