<svg viewBox="0 0 48 48" xmlns="http://www.w3.org/2000/svg" xmlns:xlink="http://www.w3.org/1999/xlink">
  <linearGradient id="a" gradientTransform="matrix(0 -1 1 0 -.0000015 47.999998)" gradientUnits="userSpaceOnUse" x1="1" x2="47">
    <stop offset="0" stop-color="#9c7a40"/>
    <stop offset="1" stop-color="#ab8746"/>
  </linearGradient>
  <path d="m47 24c0 22.703-.297 23-23 23-22.703 0-23-.297-23-23 0-22.703.297-23 23-23 22.703 0 23 .297 23 23z" fill="url(#a)"/>
  <path d="m22 34v-2c-3.535.496-5.523-.484-8-1 1.797-1.535 4.113-2.555 5-5-1.043-.172-2.18.012-3-1 1.961-1.152 3.883-2.328 5-4-1.219-.129-2.438-.262-3-1 2.992-1.691 4.508-3.84 6-6 1.363 2.16 2.66 4.352 5 6-.102.656-.895.918-2 1 1.109 1.801 3.047 2.902 5 4-.977.246-1.977 1.281-3 1 1.043 2.367 3.215 3.07 5 5-2.242.449-3.504 1.168-8 1v2m-4 0" opacity=".1" transform="translate(1 1)"/>
  <path d="m22 34v-2c-3.535.496-5.523-.484-8-1 1.797-1.535 4.113-2.555 5-5-1.043-.172-2.18.012-3-1 1.961-1.152 3.883-2.328 5-4-1.219-.129-2.438-.262-3-1 2.992-1.691 4.508-3.84 6-6 1.363 2.16 2.66 4.352 5 6-.102.656-.895.918-2 1 1.109 1.801 3.047 2.902 5 4-.977.246-1.977 1.281-3 1 1.043 2.367 3.215 3.07 5 5-2.242.449-3.504 1.168-8 1v2m-4 0" fill="#205b20"/>
</svg>
