<svg viewBox="0 0 48 48" xmlns="http://www.w3.org/2000/svg" xmlns:xlink="http://www.w3.org/1999/xlink">
  <linearGradient id="a" gradientTransform="matrix(0 -1 1 0 -.0000015 47.999998)" gradientUnits="userSpaceOnUse" x1="1" x2="47">
    <stop offset="0" stop-color="#e4e4e4"/>
    <stop offset="1" stop-color="#eee"/>
  </linearGradient>
  <path d="m47 24c0 22.703-.297 23-23 23-22.703 0-23-.297-23-23 0-22.703.297-23 23-23 22.703 0 23 .297 23 23z" fill="url(#a)"/>
  <path d="m34 18l .004 12-9.996 6-10-5.996-.004-12 9.996-6m10 6" opacity=".1" transform="translate(1 1)"/>
  <path d="m34 18l .004 12-9.996 6-10-5.996-.004-12 9.996-6m10 6" fill="#7f0000"/>
  <path d="m23.25 16v16h1.5v-16m-1.5 0" fill="#ffd7b9"/>
  <path d="m26.5 28.5c0 .828-1.117 1.5-2.5 1.5-1.383 0-2.5-.672-2.5-1.5 0-.828 1.117-1.5 2.5-1.5 1.383 0 2.5.672 2.5 1.5m0 0" fill="#ffd7b9"/>
  <path d="m19.25 31v-14h-1.5v14m1.5 0" fill="#ffd7b9"/>
  <path d="m21 21.5c0 .828-1.117 1.5-2.5 1.5-1.383 0-2.5-.672-2.5-1.5 0-.828 1.117-1.5 2.5-1.5 1.383 0 2.5.672 2.5 1.5m0 0" fill="#ffd7b9"/>
  <path d="m30.25 31v-14h-1.5v14m1.5 0" fill="#ffd7b9"/>
  <path d="m32 21.5c0 .828-1.117 1.5-2.5 1.5-1.383 0-2.5-.672-2.5-1.5 0-.828 1.117-1.5 2.5-1.5 1.383 0 2.5.672 2.5 1.5m0 0" fill="#ffd7b9"/>
</svg>
