<svg viewBox="0 0 48 48" xmlns="http://www.w3.org/2000/svg" xmlns:xlink="http://www.w3.org/1999/xlink">
  <linearGradient id="a" gradientTransform="matrix(0 -1 1 0 -.0000015 47.999998)" gradientUnits="userSpaceOnUse" x1="1" x2="47">
    <stop offset="0" stop-color="#5eb6e8"/>
    <stop offset="1" stop-color="#70bdea"/>
  </linearGradient>
  <path d="m47 24c0 22.703-.297 23-23 23-22.703 0-23-.297-23-23 0-22.703.297-23 23-23 22.703 0 23 .297 23 23z" fill="url(#a)"/>
  <path d="m25 12c-1.657 0-3 1.343-3 3 .001 1.271.802 2.403 2 2.826v3.174h-4.5c-.277 0-.5.223-.5.5v1c0 .277.223.5.5.5h4.5v10c0 .552-.448 1-1 1h-.5c-.75 0-2.977-.86-4.34-1.541-1.684-.842-1.686-1.262-1.574-1.459.339-.599.914-.1.914-.1 0 0 .203-.9-1-1.9-.402-.334-1.237-.756-1.5-1-.523-.484-.514-1-.8-1-.372 0-1.2 1.827-1.2 3 0 1.171 0 2.471 1 3 0-.455.401-1 1-.699.278.14 1.615 1.029 3.082 1.951 2.168 1.363 5.455 1.779 6.918 3.748 1.463-1.969 4.75-2.385 6.918-3.748 1.467-.922 2.817-1.788 3.082-1.951.488-.301 1-.301 1 .699 1-.529 1-1.829 1-3 0-1.173-.928-3-1.3-3-.27 0-.177.516-.7 1-.263.244-1.098.666-1.5 1-1.203 1-1 1.9-1 1.9 0 0 .575-.499.914.1.111.197.11.617-1.574 1.459-1.363.681-3.59 1.541-4.34 1.541h-.5c-.552 0-1-.448-1-1v-10h4.5c.277 0 .5-.223.5-.5v-1c0-.277-.23-.44-.5-.5h-4.5v-3.176c1.197-.423 1.998-1.554 2-2.824 0-1.657-1.343-3-3-3m0 2c .552 0 1 .448 1 1 0 .552-.448 1-1 1-.552 0-1-.448-1-1 0-.552.448-1 1-1z" opacity=".1"/>
  <path d="m24 11c-1.657 0-3 1.343-3 3 .001 1.271.802 2.403 2 2.826v3.174h-4.5c-.277 0-.5.223-.5.5v1c0 .277.223.5.5.5h4.5v10c0 .552-.448 1-1 1h-.5c-.75 0-2.977-.86-4.34-1.541-1.684-.842-1.686-1.262-1.574-1.459.339-.599.914-.1.914-.1 0 0 .203-.9-1-1.9-.402-.334-1.237-.756-1.5-1-.523-.484-.514-1-.8-1-.372 0-1.2 1.827-1.2 3 0 1.171 0 2.471 1 3 0-.455.401-1 1-.699.278.14 1.615 1.029 3.082 1.951 2.168 1.363 5.455 1.779 6.918 3.748 1.463-1.969 4.75-2.385 6.918-3.748 1.467-.922 2.817-1.788 3.082-1.951.488-.301 1-.301 1 .699 1-.529 1-1.829 1-3 0-1.173-.928-3-1.3-3-.27 0-.177.516-.7 1-.263.244-1.098.666-1.5 1-1.203 1-1 1.9-1 1.9 0 0 .575-.499.914.1.111.197.11.617-1.574 1.459-1.363.681-3.59 1.541-4.34 1.541h-.5c-.552 0-1-.448-1-1v-10h4.5c.277 0 .5-.223.5-.5v-1c0-.277-.23-.44-.5-.5h-4.5v-3.176c1.197-.423 1.998-1.554 2-2.824 0-1.657-1.343-3-3-3m0 2c .552 0 1 .448 1 1 0 .552-.448 1-1 1-.552 0-1-.448-1-1 0-.552.448-1 1-1z" fill="#3d6275"/>
</svg>
