<svg xmlns="http://www.w3.org/2000/svg" viewBox="0 0 48 48">
 <defs>
  <linearGradient id="linearGradient3764" x1="1" x2="47" gradientUnits="userSpaceOnUse" gradientTransform="matrix(0,-1,1,0,-1.5e-6,47.999998)">
   <stop style="stop-color:#5eb6e8;stop-opacity:1"/>
   <stop offset="1" style="stop-color:#70bdea;stop-opacity:1"/>
  </linearGradient>
 </defs>
 <g>
  
  
  
 </g>
 <g>
  <path d="m 47,24 C 47,46.703 46.703,47 24,47 1.297,47 1,46.703 1,24 1,1.297 1.297,1 24,1 46.703,1 47,1.297 47,24 z" style="fill:url(#linearGradient3764);fill-opacity:1"/>
 </g>
 <path d="m 25 12 c -1.657 0 -3 1.343 -3 3 0.001 1.271 0.802 2.403 2 2.826 l 0 3.174 -3 0 0 -3 -2 0 0 3.092 c -1.163 0.207 -2 0.756 -2 1.408 0 0.652 0.837 1.202 2 1.408 l 0 8.092 2 0 0 -8.092 c 0.849 -0.151 1.515 -0.484 1.816 -0.908 l 1.184 0 0 5.092 c -1.163 0.207 -2 0.756 -2 1.408 0 0.652 0.837 1.202 2 1.408 l 0 2.092 c 0 0.552 -0.448 1 -1 1 l -0.5 0 c -0.75 0 -2.977 -0.86 -4.34 -1.541 -1.684 -0.842 -1.686 -1.262 -1.574 -1.459 c 0.339 -0.599 0.914 -0.1 0.914 -0.1 0 0 0.203 -0.9 -1 -1.9 -0.402 -0.334 -1.237 -0.756 -1.5 -1 -0.523 -0.484 -0.515 -1 -0.801 -1 -0.372 0 -1.199 1.827 -1.199 3 c 0 1.171 0 2.471 1 3 0 -0.455 0.401 -1 1 -0.699 0.278 0.14 1.615 1.029 3.082 1.951 c 2.168 1.363 5.455 1.779 6.918 3.748 1.463 -1.969 4.75 -2.385 6.918 -3.748 1.467 -0.922 2.817 -1.788 3.082 -1.951 0.488 -0.301 1 -0.301 1 0.699 c 1 -0.529 1 -1.829 1 -3 0 -1.173 -0.929 -3 -1.301 -3 -0.27 0 -0.176 0.516 -0.699 1 -0.263 0.244 -1.098 0.666 -1.5 1 -1.203 1 -1 1.9 -1 1.9 0 0 0.575 -0.499 0.914 0.1 0.111 0.197 0.11 0.617 -1.574 1.459 c -1.363 0.681 -3.59 1.541 -4.34 1.541 l -0.5 0 c -0.552 0 -1 -0.448 -1 -1 l 0 -2.092 c 1.163 -0.207 2 -0.756 2 -1.408 0 -0.652 -0.837 -1.202 -2 -1.408 l 0 -5.092 1.184 0 c 0.301 0.424 0.967 0.757 1.816 0.908 l 0 8.092 2 0 0 -8.092 c 1.163 -0.207 2 -0.756 2 -1.408 0 -0.652 -0.837 -1.202 -2 -1.408 l 0 -3.092 -2 0 0 3 -3 0 0 -3.176 c 1.197 -0.423 1.998 -1.554 2 -2.824 0 -1.657 -1.343 -3 -3 -3 z m 0 2 c 0.552 0 1 0.448 1 1 0 0.552 -0.448 1 -1 1 -0.552 0 -1 -0.448 -1 -1 0 -0.552 0.448 -1 1 -1 z" style="fill:#000;opacity:0.1;fill-opacity:1;stroke:none;fill-rule:nonzero"/>
 <g>
  <g>
   <g transform="translate(1,1)">
    <g style="opacity:0.1">
     <!-- color: #70bdea -->
    </g>
   </g>
  </g>
 </g>
 <path d="m 24 11 c -1.657 0 -3 1.343 -3 3 0.001 1.271 0.802 2.403 2 2.826 l 0 3.174 -4.5 0 c -0.277 0 -0.5 0.223 -0.5 0.5 l 0 1 c 0 0.277 0.223 0.5 0.5 0.5 l 4.5 0 0 10 c 0 0.552 -0.448 1 -1 1 l -0.5 0 c -0.75 0 -2.977 -0.86 -4.34 -1.541 -1.684 -0.842 -1.686 -1.262 -1.574 -1.459 0.339 -0.599 0.914 -0.1 0.914 -0.1 0 0 0.203 -0.9 -1 -1.9 -0.402 -0.334 -1.237 -0.756 -1.5 -1 -0.523 -0.484 -0.514 -1 -0.8 -1 -0.372 0 -1.2 1.827 -1.2 3 c 0 1.171 0 2.471 1 3 0 -0.455 0.401 -1 1 -0.699 0.278 0.14 1.615 1.029 3.082 1.951 c 2.168 1.363 5.455 1.779 6.918 3.748 1.463 -1.969 4.75 -2.385 6.918 -3.748 1.467 -0.922 2.817 -1.788 3.082 -1.951 0.488 -0.301 1 -0.301 1 0.699 c 1 -0.529 1 -1.829 1 -3 0 -1.173 -0.928 -3 -1.3 -3 -0.27 0 -0.177 0.516 -0.7 1 -0.263 0.244 -1.098 0.666 -1.5 1 -1.203 1 -1 1.9 -1 1.9 0 0 0.575 -0.499 0.914 0.1 0.111 0.197 0.11 0.617 -1.574 1.459 c -1.363 0.681 -3.59 1.541 -4.34 1.541 l -0.5 0 c -0.552 0 -1 -0.448 -1 -1 l 0 -10 4.5 0 c 0.277 0 0.5 -0.223 0.5 -0.5 l 0 -1 c 0 -0.277 -0.23 -0.44 -0.5 -0.5 l -4.5 0 0 -3.176 c 1.197 -0.423 1.998 -1.554 2 -2.824 0 -1.657 -1.343 -3 -3 -3 m 0 2 c 0.552 0 1 0.448 1 1 0 0.552 -0.448 1 -1 1 -0.552 0 -1 -0.448 -1 -1 0 -0.552 0.448 -1 1 -1 z" style="fill:#3d6275;opacity:1;fill-opacity:1;stroke:none"/>
 <g transform="translate(3.6892515e-4,0)">
  <g>
   <!-- color: #70bdea -->
   <g>
    <path d="m 23 16 0 16 2 0 0 -16 m -2 0" style="fill:#f9f9f9;fill-opacity:1;stroke:none;fill-rule:nonzero"/>
    <path d="m 24 27 c -1.66 0 -3 0.672 -3 1.5 0 0.828 1.34 1.5 3 1.5 1.66 0 3 -0.672 3 -1.5 0 -0.828 -1.34 -1.5 -3 -1.5 z" style="fill:#f9f9f9;fill-opacity:1;stroke:none;fill-rule:nonzero"/>
    <path d="m 20 31 0 -14 -2 0 0 14 m 2 0" style="fill:#f9f9f9;fill-opacity:1;stroke:none;fill-rule:nonzero"/>
    <path d="m 19 20 c -1.66 0 -3 0.672 -3 1.5 0 0.828 1.34 1.5 3 1.5 1.66 0 3 -0.672 3 -1.5 0 -0.828 -1.34 -1.5 -3 -1.5 z" style="fill:#f9f9f9;fill-opacity:1;stroke:none;fill-rule:nonzero"/>
    <path d="m 30 31 0 -14 -2 0 0 14 m 2 0" style="fill:#f9f9f9;fill-opacity:1;stroke:none;fill-rule:nonzero"/>
    <path d="m 29 20 c -1.66 0 -3 0.672 -3 1.5 0 0.828 1.34 1.5 3 1.5 1.66 0 3 -0.672 3 -1.5 0 -0.828 -1.34 -1.5 -3 -1.5 z" style="fill:#f9f9f9;fill-opacity:1;stroke:none;fill-rule:nonzero"/>
   </g>
  </g>
 </g>
 <g>
  
 </g>
</svg>
