<svg viewBox="0 0 48 48" xmlns="http://www.w3.org/2000/svg" xmlns:xlink="http://www.w3.org/1999/xlink">
  <linearGradient id="a" gradientTransform="matrix(0 -1 1 0 -.0000015 47.999998)" gradientUnits="userSpaceOnUse" x1="1" x2="47">
    <stop offset="0" stop-color="#32506e"/>
    <stop offset="1" stop-color="#38597c"/>
  </linearGradient>
  <path d="m47 24c0 22.703-.297 23-23 23-22.703 0-23-.297-23-23 0-22.703.297-23 23-23 22.703 0 23 .297 23 23z" fill="url(#a)"/>
  <path d="m19.687 13.999l-.002.002c-.118.013-.225.072-.298.166l-6.572 8.254c-.081.105-.11.24-.08.37l2.344 10.29c.03.129.117.238.236.296l9.493 4.579c.12.058.259.058.38 0l9.497-4.579c.12-.057.207-.166.238-.296l2.344-10.29c.029-.13-.003-.266-.086-.37l-6.572-8.254c-.083-.104-.207-.165-.34-.166h-10.536c-.015 0-.031-.002-.046-.002z" opacity=".12"/>
  <g transform="translate(-.00010776 -.0004999)">
    <path d="m18.845 13.624l-.003.002c-.114.012-.219.071-.289.161l-6.377 8.01c-.079.102-.108.234-.078.359l2.274 9.988c.029.125.114.23.229.286l9.213 4.445c.117.056.252.056.369 0l9.216-4.445c.116-.055.201-.161.231-.286l2.274-9.988c.028-.126-.002-.258-.083-.359l-6.377-8.01c-.08-.101-.202-.161-.331-.161h-10.225c-.014 0-.029-.002-.043-.002z" fill="#95dfd3"/>
    <path d="m18.707 13c-.134.013-.258.081-.342.187l-6.534 8.204c-.094.12-.129.277-.093.425l2.33 10.237c.033.149.132.275.269.342l9.444 4.553c.137.067.298.067.435 0l9.444-4.553c.137-.067.236-.193.269-.342l2.33-10.237c.035-.149 0-.305-.093-.425l-6.534-8.204c-.096-.119-.241-.188-.393-.187h-10.479c-.017 0-.035 0-.052 0zm .29.996h10l6.234 7.831-2.226 9.77-9.01 4.346-9.01-4.346-2.226-9.77z" fill="#d7fffa"/>
    <path d="m20.931 18c-.094.009-.18.056-.239.13l-3.784 4.749c-.067.083-.092.192-.068.296l1.35 5.919c.024.104.095.191.191.237l5.467 2.633c.096.047.209.047.305 0l5.467-2.633c.097-.046.167-.133.191-.237l1.35-5.919c.023-.104-.002-.213-.068-.296l-3.784-4.749c-.067-.082-.167-.13-.273-.13h-6.07c-.011 0-.023 0-.034 0zm .203.699h5.732l3.575 4.482-1.277 5.591-5.164 2.49-5.164-2.49-1.277-5.591" fill="#d7fffa"/>
    <path d="m19.318 13.855l-.637.289 2.133 4.699.639-.289z" fill="#d7fffa" fill-rule="evenodd"/>
    <path d="m12.857 21.492l-.189.674 4.797 1.354.189-.674z" fill="#d7fffa" fill-rule="evenodd"/>
    <path d="m18.629 28.49l-3.848 2.826.414.564 3.848-2.826z" fill="#d7fffa" fill-rule="evenodd"/>
    <path d="m23.65 31.26v4.682h.699v-4.682z" fill="#d7fffa" fill-rule="evenodd"/>
    <path d="m29.371 28.49l-.414.564 3.842 2.826.416-.564z" fill="#d7fffa" fill-rule="evenodd"/>
    <path d="m28.682 13.855l-2.135 4.699.639.289 2.133-4.699z" fill="#d7fffa" fill-rule="evenodd"/>
    <path d="m35.14 21.492l-4.793 1.354.189.674 4.793-1.354z" fill="#d7fffa" fill-rule="evenodd"/>
  </g>
</svg>
