<svg xmlns="http://www.w3.org/2000/svg" viewBox="0 0 48 48">
 <defs>
  <linearGradient id="linearGradient3764" x1="1" x2="47" gradientUnits="userSpaceOnUse" gradientTransform="matrix(0,-1,1,0,-1.5e-6,47.999998)">
   <stop style="stop-color:#f2c630;stop-opacity:1"/>
   <stop offset="1" style="stop-color:#f3cb43;stop-opacity:1"/>
  </linearGradient>
 </defs>
 <g>
  
  
  
 </g>
 <g>
  <path d="m 47,24 C 47,46.703 46.703,47 24,47 1.297,47 1,46.703 1,24 1,1.297 1.297,1 24,1 46.703,1 47,1.297 47,24 z" style="fill:url(#linearGradient3764);fill-opacity:1"/>
 </g>
 <g>
  <g>
   <g transform="translate(1,1)">
    <g style="opacity:0.1">
     <!-- color: #f3cb43 -->
    </g>
   </g>
  </g>
 </g>
 <g transform="translate(1.000231,1.0001752)" style="fill:#000;opacity:0.1">
  <g style="fill:#000">
   <!-- color: #f3cb43 -->
   <g style="fill:#000">
    <path d="m 25.5 12 c -0.828 0 -1.5 0.672 -1.5 1.5 0 0.828 0.672 1.5 1.5 1.5 0.828 0 1.5 -0.672 1.5 -1.5 0 -0.828 -0.672 -1.5 -1.5 -1.5 m 5 0 c -0.828 0 -1.5 0.672 -1.5 1.5 0 0.828 0.672 1.5 1.5 1.5 0.828 0 1.5 -0.672 1.5 -1.5 0 -0.828 -0.672 -1.5 -1.5 -1.5 m 4 2 c -0.828 0 -1.5 0.672 -1.5 1.5 0 0.828 0.672 1.5 1.5 1.5 0.828 0 1.5 -0.672 1.5 -1.5 0 -0.828 -0.672 -1.5 -1.5 -1.5 m -13.146 0.154 c -1.145 0.066 -2.895 0.785 -4.453 2.082 -3.996 3.32 -7.543 9.945 -2.18 15.633 5.168 5.48 12.711 4.391 15.266 3.066 3.438 -1.777 3.387 -5.365 3.146 -6.23 -0.869 -3.127 -3.255 -4 -4.773 -3.826 -1.832 0.212 -5.379 1.373 -7.469 -1.436 -1.773 -2.383 -0.176 -5.819 1.613 -7.03 0.734 -0.504 0.714 -1.575 -0.225 -2.105 -0.223 -0.126 -0.543 -0.183 -0.926 -0.154 z" style="fill:#000;fill-opacity:1;stroke:none;fill-rule:nonzero"/>
   </g>
  </g>
 </g>
 <g>
  <g>
   <!-- color: #f3cb43 -->
   <g>
    <path d="m 25.5 12 c -0.828 0 -1.5 0.672 -1.5 1.5 0 0.828 0.672 1.5 1.5 1.5 0.828 0 1.5 -0.672 1.5 -1.5 0 -0.828 -0.672 -1.5 -1.5 -1.5 m 5 0 c -0.828 0 -1.5 0.672 -1.5 1.5 0 0.828 0.672 1.5 1.5 1.5 0.828 0 1.5 -0.672 1.5 -1.5 0 -0.828 -0.672 -1.5 -1.5 -1.5 m 4 2 c -0.828 0 -1.5 0.672 -1.5 1.5 0 0.828 0.672 1.5 1.5 1.5 0.828 0 1.5 -0.672 1.5 -1.5 0 -0.828 -0.672 -1.5 -1.5 -1.5 m -13.146 0.154 c -1.145 0.066 -2.895 0.785 -4.453 2.082 -3.996 3.32 -7.543 9.945 -2.18 15.633 5.168 5.48 12.711 4.391 15.266 3.066 3.438 -1.777 3.387 -5.365 3.146 -6.23 -0.869 -3.127 -3.255 -4 -4.773 -3.826 -1.832 0.212 -5.379 1.373 -7.469 -1.436 -1.773 -2.383 -0.176 -5.819 1.613 -7.03 0.734 -0.504 0.714 -1.575 -0.225 -2.105 -0.223 -0.126 -0.543 -0.183 -0.926 -0.154 z" style="fill:#f9f9f9;fill-opacity:1;stroke:none;fill-rule:nonzero"/>
   </g>
  </g>
 </g>
 <g>
  
 </g>
</svg>
