<svg viewBox="0 0 48 48" xmlns="http://www.w3.org/2000/svg" xmlns:xlink="http://www.w3.org/1999/xlink">
  <linearGradient id="a" gradientTransform="matrix(0 -1 1 0 -.0000015 47.999998)" gradientUnits="userSpaceOnUse" x1="1" x2="47">
    <stop offset="0" stop-color="#f2c630"/>
    <stop offset="1" stop-color="#f3cb43"/>
  </linearGradient>
  <path d="m47 24c0 22.703-.297 23-23 23-22.703 0-23-.297-23-23 0-22.703.297-23 23-23 22.703 0 23 .297 23 23z" fill="url(#a)"/>
  <path d="m25.5 12c-.828 0-1.5.672-1.5 1.5 0 .828.672 1.5 1.5 1.5.828 0 1.5-.672 1.5-1.5 0-.828-.672-1.5-1.5-1.5m5 0c-.828 0-1.5.672-1.5 1.5 0 .828.672 1.5 1.5 1.5.828 0 1.5-.672 1.5-1.5 0-.828-.672-1.5-1.5-1.5m4 2c-.828 0-1.5.672-1.5 1.5 0 .828.672 1.5 1.5 1.5.828 0 1.5-.672 1.5-1.5 0-.828-.672-1.5-1.5-1.5m-13.146.154c-1.145.066-2.895.785-4.453 2.082-3.996 3.32-7.543 9.945-2.18 15.633 5.168 5.48 12.711 4.391 15.266 3.066 3.438-1.777 3.387-5.365 3.146-6.23-.869-3.127-3.255-4-4.773-3.826-1.832.212-5.379 1.373-7.469-1.436-1.773-2.383-.176-5.819 1.613-7.03.734-.504.714-1.575-.225-2.105-.223-.126-.543-.183-.926-.154z" opacity=".1" transform="translate(1.000231 1.0001752)"/>
  <path d="m25.5 12c-.828 0-1.5.672-1.5 1.5 0 .828.672 1.5 1.5 1.5.828 0 1.5-.672 1.5-1.5 0-.828-.672-1.5-1.5-1.5m5 0c-.828 0-1.5.672-1.5 1.5 0 .828.672 1.5 1.5 1.5.828 0 1.5-.672 1.5-1.5 0-.828-.672-1.5-1.5-1.5m4 2c-.828 0-1.5.672-1.5 1.5 0 .828.672 1.5 1.5 1.5.828 0 1.5-.672 1.5-1.5 0-.828-.672-1.5-1.5-1.5m-13.146.154c-1.145.066-2.895.785-4.453 2.082-3.996 3.32-7.543 9.945-2.18 15.633 5.168 5.48 12.711 4.391 15.266 3.066 3.438-1.777 3.387-5.365 3.146-6.23-.869-3.127-3.255-4-4.773-3.826-1.832.212-5.379 1.373-7.469-1.436-1.773-2.383-.176-5.819 1.613-7.03.734-.504.714-1.575-.225-2.105-.223-.126-.543-.183-.926-.154z" fill="#f9f9f9"/>
</svg>
