<svg viewBox="0 0 48 48" xmlns="http://www.w3.org/2000/svg" xmlns:xlink="http://www.w3.org/1999/xlink">
  <linearGradient id="a" gradientTransform="matrix(0 -1 1 0 0 48)" gradientUnits="userSpaceOnUse" x1="1" x2="47">
    <stop offset="0" stop-color="#618ab7"/>
    <stop offset="1" stop-color="#6f94bd"/>
  </linearGradient>
  <path d="m1 24c0-22.703.297-23 23-23 22.703 0 23 .297 23 23 0 22.703-.297 23-23 23-22.703 0-23-.297-23-23z" fill="url(#a)"/>
  <path d="m22.715 14l-.715 2.191-2.139.73 2.139.732.715 2.195.713-2.195 2.139-.732-2.139-.73zm-7.914.588c-.368.022-.735.323-1.109.703-.594.609-.992 1.202-.398 1.811l20.04 20.543c.598.612 1.336.37 1.934-.242.594-.609.838-1.358.24-1.967l-20.04-20.543c-.223-.23-.445-.318-.666-.305m18.199.582l-1 3.074-3 1.029 3 1.023 1 3.074 1-3.074 3-1.023-3-1.029zm-14.82 3.697c.075.021.149.069.225.146l16.563 16.975c.304.316.064.56-.24.865-.309.311-.545.549-.844.242l-16.563-16.977c-.304-.311-.12-.604.188-.914.228-.234.448-.401.672-.338zm-.037 8.01l-.715 2.195-2.143.73 2.143.727.715 2.195.715-2.195 2.137-.727-2.137-.73z" opacity=".1"/>
  <path d="m17.14 25.878l-.714 2.195-2.143.732 2.143.727.714 2.195.714-2.195 2.138-.727-2.138-.732m-.714-2.195" fill="#ffb33c"/>
  <path d="m32 14.171l-1 3.073-3 1.029 3 1.024 1 3.073 1-3.073 3-1.024-3-1.029m-1-3.073" fill="#ffb33c"/>
  <path d="m21.714 13l-.714 2.19-2.138.732 2.138.732.714 2.195.714-2.195 2.138-.732-2.138-.732m-.714-2.19" fill="#ffb33c"/>
  <path d="m12.691 14.29c-.594.609-.991 1.202-.398 1.811l20.05 20.543c.598.612 1.335.37 1.933-.242.594-.609.839-1.358.241-1.967l-20.05-20.543c-.594-.612-1.178-.211-1.777.398m3.817 3.915c.304-.311.594-.503.897-.192l16.563 16.976c.304.316.063.558-.241.864-.309.311-.545.549-.843.242l-16.563-16.976c-.304-.311-.12-.604.187-.914m0 0" fill="#353535"/>
</svg>
