<svg xmlns="http://www.w3.org/2000/svg" viewBox="0 0 48 48">
 <defs>
  <linearGradient id="linearGradient4263" x1="1" x2="47" gradientUnits="userSpaceOnUse" gradientTransform="matrix(0,-1,1,0,0,48)">
   <stop style="stop-color:#618ab7;stop-opacity:1"/>
   <stop offset="1" style="stop-color:#6f94bd;stop-opacity:1"/>
  </linearGradient>
 </defs>
 <g>
  
  
  
 </g>
 <path d="M 1,24 C 1,1.297 1.297,1 24,1 46.703,1 47,1.297 47,24 47,46.703 46.703,47 24,47 1.297,47 1,46.703 1,24 Z" style="fill:url(#linearGradient4263);fill-opacity:1"/>
 <path d="m 22.715 14 -0.715 2.191 -2.139 0.73 2.139 0.732 0.715 2.195 0.713 -2.195 2.139 -0.732 -2.139 -0.73 -0.713 -2.191 z m -7.914 0.588 c -0.368 0.022 -0.735 0.323 -1.109 0.703 -0.594 0.609 -0.992 1.202 -0.398 1.811 l 20.04 20.543 c 0.598 0.612 1.336 0.37 1.934 -0.242 0.594 -0.609 0.838 -1.358 0.24 -1.967 l -20.04 -20.543 c -0.223 -0.23 -0.445 -0.318 -0.666 -0.305 m 18.199 0.582 -1 3.074 -3 1.029 3 1.023 1 3.074 1 -3.074 3 -1.023 -3 -1.029 -1 -3.074 z m -14.82 3.697 c 0.075 0.021 0.149 0.069 0.225 0.146 l 16.563 16.975 c 0.304 0.316 0.064 0.56 -0.24 0.865 -0.309 0.311 -0.545 0.549 -0.844 0.242 l -16.563 -16.977 c -0.304 -0.311 -0.12 -0.604 0.188 -0.914 0.228 -0.234 0.448 -0.401 0.672 -0.338 z m -0.037 8.01 -0.715 2.195 -2.143 0.73 2.143 0.727 0.715 2.195 0.715 -2.195 2.137 -0.727 -2.137 -0.73 -0.715 -2.195 z" style="fill:#000;opacity:0.1;fill-opacity:1;stroke:none;fill-rule:nonzero"/>
 <path d="m 17.14 25.878 -0.714 2.195 -2.143 0.732 2.143 0.727 0.714 2.195 0.714 -2.195 2.138 -0.727 -2.138 -0.732 m -0.714 -2.195" style="fill:#ffb33c;fill-opacity:1;stroke:none;fill-rule:nonzero"/>
 <path d="m 32 14.171 -1 3.073 -3 1.029 3 1.024 1 3.073 1 -3.073 l 3 -1.024 -3 -1.029 m -1 -3.073" style="fill:#ffb33c;fill-opacity:1;stroke:none;fill-rule:nonzero"/>
 <path d="m 21.714 13 -0.714 2.19 -2.138 0.732 2.138 0.732 0.714 2.195 0.714 -2.195 2.138 -0.732 -2.138 -0.732 m -0.714 -2.19" style="fill:#ffb33c;fill-opacity:1;stroke:none;fill-rule:nonzero"/>
 <path d="m 12.691 14.29 c -0.594 0.609 -0.991 1.202 -0.398 1.811 l 20.05 20.543 c 0.598 0.612 1.335 0.37 1.933 -0.242 0.594 -0.609 0.839 -1.358 0.241 -1.967 l -20.05 -20.543 c -0.594 -0.612 -1.178 -0.211 -1.777 0.398 m 3.817 3.915 c 0.304 -0.311 0.594 -0.503 0.897 -0.192 l 16.563 16.976 c 0.304 0.316 0.063 0.558 -0.241 0.864 -0.309 0.311 -0.545 0.549 -0.843 0.242 l -16.563 -16.976 c -0.304 -0.311 -0.12 -0.604 0.187 -0.914 m 0 0" style="fill:#353535;fill-opacity:1;stroke:none;fill-rule:nonzero"/>
 <g>
  
 </g>
</svg>
