<svg viewBox="0 0 48 48" xmlns="http://www.w3.org/2000/svg" xmlns:xlink="http://www.w3.org/1999/xlink">
  <linearGradient id="a" gradientTransform="matrix(0 -1 1 0 -.000002 47.999998)" gradientUnits="userSpaceOnUse" x1="1" x2="47">
    <stop offset="0" stop-color="#505050"/>
    <stop offset="1" stop-color="#5a5a5a"/>
  </linearGradient>
  <path d="m24 1c22.703 0 23 .297 23 23 0 22.703-.297 23-23 23-22.703 0-23-.297-23-23 0-22.703.297-23 23-23z" fill="url(#a)"/>
  <path d="m16 12h6l10 12-10 12h-6l10-12" opacity=".1" transform="matrix(0 1 -1 0 49 3)"/>
  <path d="m16 12h6l10 12-10 12h-6l10-12" fill="#ff9c00" transform="matrix(0 1 -1 0 48 2)"/>
</svg>
