<svg xmlns="http://www.w3.org/2000/svg" viewBox="0 0 48 48">
 <defs>
  <linearGradient gradientTransform="matrix(0,-1,1,0,-2e-6,47.999998)" gradientUnits="userSpaceOnUse" x2="47" x1="1" id="linearGradient3764-3">
   <stop style="stop-color:#505050;stop-opacity:1"/>
   <stop offset="1" style="stop-color:#5a5a5a;stop-opacity:1"/>
  </linearGradient>
 </defs>
 <g>
  
  
  
 </g>
 <path d="M 24,1 C 46.703,1 47,1.297 47,24 47,46.703 46.703,47 24,47 1.297,47 1,46.703 1,24 1,1.297 1.297,1 24,1 Z" style="fill:url(#linearGradient3764-3);fill-opacity:1"/>
 <g transform="matrix(0,1,-1,0,50,2)">
  <g>
   <g transform="translate(1,1)">
    <g style="opacity:0.1">
     <!-- color: #38597c -->
     <g>
      <path d="m 16 12 6 0 10 12 -10 12 -6 0 10 -12" style="fill:#000;fill-opacity:1;stroke:none;fill-rule:nonzero"/>
     </g>
    </g>
   </g>
  </g>
 </g>
 <g transform="matrix(0,1,-1,0,48,2)">
  <g>
   <!-- color: #38597c -->
   <g>
    <path d="m 16 12 6 0 10 12 -10 12 -6 0 10 -12" style="fill:#ff9c00;fill-opacity:1;stroke:none;fill-rule:nonzero"/>
   </g>
  </g>
 </g>
 <g>
  
 </g>
</svg>
