<svg viewBox="0 0 48 48" xmlns="http://www.w3.org/2000/svg" xmlns:xlink="http://www.w3.org/1999/xlink">
  <linearGradient id="a" gradientTransform="matrix(0 -1 1 0 0 48)" gradientUnits="userSpaceOnUse" x1="1" x2="47">
    <stop offset="0" stop-color="#07647e"/>
    <stop offset="1" stop-color="#087290"/>
  </linearGradient>
  <path d="m1 24c0-22.703.297-23 23-23 22.703 0 23 .297 23 23 0 22.703-.297 23-23 23-22.703 0-23-.297-23-23z" fill="url(#a)"/>
  <path d="m36 12c-6.416 0-14.774 9.162-19.218 18.57-1.284 2.718-2.37 5.657-2.782 7.43l.5-.021c1.864-5.376 4.01-5.811 5.03-5.98 3.646-.606 6.44-1.779 9.134-4.998-3.667 0-5.967-.614-5.967-1h6.602c.917-.957 1.856-2.055 2.567-3-3.203 0-5.87-.406-5.87-1h6.6c.663-.983 1.218-2.039 1.676-3-2.859 0-4.776-.646-4.776-1h5.254c.866-2.134 1.254-4.172 1.246-6z" opacity=".1"/>
  <path d="m35 11c-6.416 0-14.774 9.162-19.218 18.57-1.284 2.718-2.37 5.657-2.782 7.43l.5-.021c1.864-5.376 4.01-5.811 5.03-5.98 3.646-.606 6.44-1.779 9.134-4.998-3.667 0-5.967-.614-5.967-1h6.602c.917-.957 1.856-2.055 2.567-3-3.203 0-5.87-.406-5.87-1h6.6c.663-.983 1.218-2.039 1.676-3-2.859 0-4.776-.646-4.776-1h5.254c.866-2.134 1.254-4.172 1.246-6z" fill="#ecb234"/>
</svg>
