<svg viewBox="0 0 48 48" xmlns="http://www.w3.org/2000/svg" xmlns:xlink="http://www.w3.org/1999/xlink">
  <linearGradient id="a" gradientTransform="matrix(0 -1 1 0 -.0000015 47.999998)" gradientUnits="userSpaceOnUse" x1="1" x2="47">
    <stop offset="0" stop-color="#4cb4e0"/>
    <stop offset="1" stop-color="#5dbbe3"/>
  </linearGradient>
  <path d="m47 24c0 22.703-.297 23-23 23-22.703 0-23-.297-23-23 0-22.703.297-23 23-23 22.703 0 23 .297 23 23z" fill="url(#a)"/>
  <path d="m28.612 36.988c-.771-.103.136-.877.392-1.033.492-.295.893-.632 1.203-1.188.489-.893.708-2.077.916-3.102.139-.696.275-1.101-.095-1.692-.367-.587.259-1.071-.129-1.692-.651-1.04-.925-2.417-1.569-3.446-.183-.292-.117-.564-.379-.595-.127-.015-.452.288-.563.375-.319.257-.708.379-1.02.628-.157.125-.457.035-.588.155-.376.352-.288 1.445-.249 2.01.057.799.591 1.048.591 1.816 0 .927-.139 1.559.104 2.509.139.545.489 1.165.547 1.721.048.439-.023.428-.129.844-.127.496-.183.939-.575 1.161-.224.125-1.252.177-1.379-.125-.249-.595.701-.799.863-1.161.348-.78-.371-2.8-.683-3.477-.173-.367-.48-.663-.604-1.033-.168-.5.171-.84.117-1.223-.104-.745-.367-1.536-.563-2.254-.457-1.669-1.092.867-1.357 1.507-.108.249-.183.525-.288.783-.127.303.152.564.076.939-.069.352-.411.549-.6.813-.288.405-.487.916-.641 1.412-.323 1.033-.436 2.834-1.032 3.662-.085.121-.325.053-.417.159-.208.243.053.511-.353.673-.312.125-1.103.261-1.399.045-.568-.412.143-.92.496-1.347.499-.595 1.077-1.139 1.465-1.847.512-.931.619-1.978.72-3.053.048-.519-.42-.776-.016-1.396.129-.197.524-.171.524-.375 0-.647.016-1.297 0-1.941-.019-.783-.016-2.073-.641-2.569-.831-.665-1.885-.84-2.68-1.552-.789-.712-1.512-1.355-1.989-2.489-.247-.595-.376-1.177-.575-1.787-.145-.451-.104-.299-.337-.564-.139-.155-.344-.265-.499-.439-.401-.461-.473-.916-1.149-.723-.268.08-.711.681-.863.315-.097-.235-.037-.451.012-.689.076-.356-.284-.473-.275-.813.016-.587.805-1.203 1.216-1.301.517-.125 1.087.144 1.636.015.443-.103.828-.389 1.253-.515.445-.136.847-.181 1.228.14.173.148.24.412.392.564.129.125.243.091.392.22.448.385.483.957-.288.783.325 1.608 1.901 5.933 3.66 3.697.821-1.044 1.576-2.202 2.352-3.288.685-.957 1.083-2.036 2.248-1.851 1.149.181 1.936 1.128 2.827 1.911.727.643 1.583.783 2.352 1.317.817.564 1.548 1.513 1.828 2.6.408 1.571.173 3.084.891 4.574.432.904 1.048 1.536 1.595 2.285.293.405.489.961.392 1.503-.067.375-.288.443-.288.877 0 .76.057 1.513.028 2.274-.025.677-.069 1.333-.148 2.01-.069.579-.272.741-.429 1.169-.233.632-.196.908-.757 1.157-.319.14-.863.424-1.203.409-.489-.027-.559-.511-.183-1.033.243-.34.669-.451.941-.817.792-1.063 1.133-4.261.471-5.386-.275-.469-.6-.473-.625-1.188-.025-.64.143-.863-.34-1.441-1.535-.939-1.645-1.608-2.144-1.287-.607.393-.129 2.606 0 3.228.233 1.112 1.152 1.635.549 2.758-.432.803-.635 1.631-.928 2.569-.265.844-.243 2.05-.667 2.754-.083.136-.212.212-.288.344-.057.099-.143.383-.183.439-.177.245-.215.311-.499.439-.505.231-1.124.155-1.671.155" fill-rule="evenodd" opacity=".1"/>
  <path d="m27.612 35.988c-.771-.103.136-.877.392-1.033.492-.295.893-.632 1.203-1.188.489-.893.708-2.077.916-3.102.139-.696.275-1.101-.095-1.692-.367-.587.259-1.071-.129-1.692-.651-1.04-.925-2.417-1.569-3.446-.183-.292-.117-.564-.379-.595-.127-.015-.452.288-.563.375-.319.257-.708.379-1.02.628-.157.125-.457.035-.588.155-.376.352-.288 1.445-.249 2.01.057.799.591 1.048.591 1.816 0 .927-.139 1.559.104 2.509.139.545.489 1.165.547 1.721.048.439-.023.428-.129.844-.127.496-.183.939-.575 1.161-.224.125-1.252.177-1.379-.125-.249-.595.701-.799.863-1.161.348-.78-.371-2.8-.683-3.477-.173-.367-.48-.663-.604-1.033-.168-.5.171-.84.117-1.223-.104-.745-.367-1.536-.563-2.254-.457-1.669-1.092.867-1.357 1.507-.108.249-.183.525-.288.783-.127.303.152.564.076.939-.069.352-.411.549-.6.813-.288.405-.487.916-.641 1.412-.323 1.033-.436 2.834-1.032 3.662-.085.121-.325.053-.417.159-.208.243.053.511-.353.673-.312.125-1.103.261-1.399.045-.568-.412.143-.92.496-1.347.499-.595 1.077-1.139 1.465-1.847.512-.931.619-1.978.72-3.053.048-.519-.42-.776-.016-1.396.129-.197.524-.171.524-.375 0-.647.016-1.297 0-1.941-.019-.783-.016-2.073-.641-2.569-.831-.665-1.885-.84-2.68-1.552-.789-.712-1.512-1.355-1.989-2.489-.247-.595-.376-1.177-.575-1.787-.145-.451-.104-.299-.337-.564-.139-.155-.344-.265-.499-.439-.401-.461-.473-.916-1.149-.723-.268.08-.711.681-.863.315-.097-.235-.037-.451.012-.689.076-.356-.284-.473-.275-.813.016-.587.805-1.203 1.216-1.301.517-.125 1.087.144 1.636.015.443-.103.828-.389 1.253-.515.445-.136.847-.181 1.228.14.173.148.24.412.392.564.129.125.243.091.392.22.448.385.483.957-.288.783.325 1.608 1.901 5.933 3.66 3.697.821-1.044 1.576-2.202 2.352-3.288.685-.957 1.083-2.036 2.248-1.851 1.149.181 1.936 1.128 2.827 1.911.727.643 1.583.783 2.352 1.317.817.564 1.548 1.513 1.828 2.6.408 1.571.173 3.084.891 4.574.432.904 1.048 1.536 1.595 2.285.293.405.489.961.392 1.503-.067.375-.288.443-.288.877 0 .76.057 1.513.028 2.274-.025.677-.069 1.333-.148 2.01-.069.579-.272.741-.429 1.169-.233.632-.196.908-.757 1.157-.319.14-.863.424-1.203.409-.489-.027-.559-.511-.183-1.033.243-.34.669-.451.941-.817.792-1.063 1.133-4.261.471-5.386-.275-.469-.6-.473-.625-1.188-.025-.64.143-.863-.34-1.441-1.535-.939-1.645-1.608-2.144-1.287-.607.393-.129 2.606 0 3.228.233 1.112 1.152 1.635.549 2.758-.432.803-.635 1.631-.928 2.569-.265.844-.243 2.05-.667 2.754-.083.136-.212.212-.288.344-.057.099-.143.383-.183.439-.177.245-.215.311-.499.439-.505.231-1.124.155-1.671.155" fill="#f9f9f9" fill-rule="evenodd"/>
</svg>
