<svg xmlns="http://www.w3.org/2000/svg" viewBox="0 0 48 48">
 <defs>
  <linearGradient id="linearGradient3764" x1="1" x2="47" gradientUnits="userSpaceOnUse" gradientTransform="matrix(0,-1,1,0,3.0997e-4,47.999621)">
   <stop style="stop-color:#cac8a0;stop-opacity:1"/>
   <stop offset="1" style="stop-color:#d1cfad;stop-opacity:1"/>
  </linearGradient>
 </defs>
 <g>
  
  
  
 </g>
 <path d="M 24,1 C 46.703,1 47,1.297 47,24 47,46.703 46.703,47 24,47 1.297,47 1,46.703 1,24 1,1.297 1.297,1 24,1 Z" style="fill:url(#linearGradient3764);fill-opacity:1"/>
 <path d="m 25.377 10 c -1.712 0.021 -3.643 0.59 -5.57 1.592 c -3.539 1.839 -5.924 4.545 -5.797 7.408 l -0.01 25.719 c 0.65 0.314 1.317 0.596 2 0.85 l 0.01 -22.678 c 2.196 1.718 5.695 1.334 9.191 -0.482 c 4.405 -2.289 7.03 -5.922 5.234 -9.527 c -1.01 -2.028 -2.848 -2.908 -5.05 -2.881 l -0.01 0 z m 1.795 3.045 l 0.002 0 l 0.002 0 c 0.684 -0.021 1.22 0.188 1.5 0.75 c 0.898 1.803 -2.627 3.634 -5.27 5.01 c -2.643 1.373 -6.166 3.205 -7.06 1.402 c -0.898 -1.803 2.625 -3.634 5.268 -5.01 c 1.816 -0.943 4.046 -2.104 5.557 -2.152 z" style="fill:#000;opacity:0.1;fill-opacity:1;stroke:none"/>
 <g transform="matrix(-0.02664949,0.55012563,-0.59303036,-0.03428822,40.673974,8.0372163)" style="fill:#000;opacity:0.1;fill-opacity:1;stroke:none">
  <g transform="matrix(0.8660254,-0.45104712,0.55426581,0.8660254,-15.934935,19.871643)">
   <!-- color: #e7e7e7 -->
  </g>
 </g>
 <path d="m 13 17.801 l 0 26.402 c 0.649 0.354 1.315 0.677 2 0.969 l 0 -27.369 l -2 -0.002 z" style="fill:#3b3b3b;fill-opacity:1;stroke:none"/>
 <path d="m 18.807 10.592 c -4.405 2.289 -7.03 5.923 -5.235 9.528 1.796 3.605 6.217 3.577 10.622 1.288 4.405 -2.289 7.03 -5.923 5.235 -9.528 -1.796 -3.605 -6.217 -3.577 -10.622 -1.288 z m 3.591 7.211 c -2.643 1.373 -6.167 3.204 -7.06 1.402 -0.898 -1.803 2.626 -3.634 5.269 -5.01 2.643 -1.373 6.167 -3.204 7.06 -1.402 0.898 1.803 -2.626 3.634 -5.269 5.01 z" style="fill:#3b3b3b;fill-opacity:1;stroke:none;fill-rule:nonzero"/>
 <g>
  
 </g>
</svg>
