<svg viewBox="0 0 48 48" xmlns="http://www.w3.org/2000/svg" xmlns:xlink="http://www.w3.org/1999/xlink">
  <linearGradient id="a" gradientTransform="matrix(0 -1 1 0 .00030997 47.999621)" gradientUnits="userSpaceOnUse" x1="1" x2="47">
    <stop offset="0" stop-color="#cac8a0"/>
    <stop offset="1" stop-color="#d1cfad"/>
  </linearGradient>
  <path d="m24 1c22.703 0 23 .297 23 23 0 22.703-.297 23-23 23-22.703 0-23-.297-23-23 0-22.703.297-23 23-23z" fill="url(#a)"/>
  <path d="m25.377 10c-1.712.021-3.643.59-5.57 1.592-3.539 1.839-5.924 4.545-5.797 7.408l-.01 25.719c.65.314 1.317.596 2 .85l.01-22.678c2.196 1.718 5.695 1.334 9.191-.482 4.405-2.289 7.03-5.922 5.234-9.527-1.01-2.028-2.848-2.908-5.05-2.881h-.01zm1.795 3.045h.002.002c.684-.021 1.22.188 1.5.75.898 1.803-2.627 3.634-5.27 5.01-2.643 1.373-6.166 3.205-7.06 1.402-.898-1.803 2.625-3.634 5.268-5.01 1.816-.943 4.046-2.104 5.557-2.152z" opacity=".1"/>
  <path d="m13 17.801v26.402c.649.354 1.315.677 2 .969v-27.369z" fill="#3b3b3b"/>
  <path d="m18.807 10.592c-4.405 2.289-7.03 5.923-5.235 9.528 1.796 3.605 6.217 3.577 10.622 1.288 4.405-2.289 7.03-5.923 5.235-9.528-1.796-3.605-6.217-3.577-10.622-1.288zm3.591 7.211c-2.643 1.373-6.167 3.204-7.06 1.402-.898-1.803 2.626-3.634 5.269-5.01 2.643-1.373 6.167-3.204 7.06-1.402.898 1.803-2.626 3.634-5.269 5.01z" fill="#3b3b3b"/>
</svg>
