<svg viewBox="0 0 48 48" xmlns="http://www.w3.org/2000/svg" xmlns:xlink="http://www.w3.org/1999/xlink">
  <linearGradient id="a" gradientUnits="userSpaceOnUse" x2="0" y1="47" y2="1">
    <stop offset="0" stop-color="#38b93a"/>
    <stop offset="1" stop-color="#3fc541"/>
  </linearGradient>
  <path d="m24 1c22.703 0 23 .297 23 23 0 22.703-.297 23-23 23-22.703 0-23-.297-23-23 0-22.703.297-23 23-23z" fill="url(#a)"/>
  <path d="m37 20.5a13 8.5 0 1 1-26 0 13 8.5 0 1 1  26 0z" fill-opacity=".118" transform="matrix(1.1538462 0 0 1.7647059 -2.6923082 -11.176471)"/>
  <path d="m24 9c-2.036 0-3.98.421-5.75 1.156l5.75 13.844zm0 15l10.594-10.594c-1.38-1.38-3.01-2.49-4.844-3.25zm0 0h15c0-2.036-.421-3.98-1.156-5.75zm0 0l10.594 10.594c1.38-1.38 2.49-3.01 3.25-4.844zm0 0v15c2.036 0 3.98-.421 5.75-1.156zm0 0l-10.594 10.594c1.38 1.38 3.01 2.49 4.844 3.25zm0 0h-15c0 2.036.421 3.98 1.156 5.75zm0 0l-10.594-10.594c-1.38 1.38-2.49 3.01-3.25 4.844z" fill="#c12d25"/>
  <path d="m24 9v3c-1.632 0-3.175.316-4.594.906l-1.156-2.75c-1.881.779-3.521 1.894-4.875 3.25l2.125 2.094c-1.102 1.102-1.986 2.445-2.594 3.906l-2.75-1.125c-.747 1.803-1.155 3.736-1.156 5.719h3c0 1.632.316 3.175.906 4.594l-2.75 1.156c.779 1.881 1.894 3.521 3.25 4.875l2.094-2.125c1.102 1.102 2.445 1.986 3.906 2.594l-1.125 2.75c1.803.747 3.736 1.155 5.719 1.156v-3c1.632 0 3.175-.316 4.594-.906l1.156 2.75c1.881-.779 3.521-1.894 4.875-3.25l-2.125-2.094c1.102-1.102 1.986-2.445 2.594-3.906l2.75 1.125c.747-1.803 1.155-3.736 1.156-5.719h-3c0-1.632-.316-3.175-.906-4.594l2.75-1.156c-.779-1.881-1.894-3.521-3.25-4.875l-2.094 2.125c-1.102-1.102-2.445-1.986-3.906-2.594l1.125-2.75c-1.803-.747-3.736-1.155-5.719-1.156z" fill="#e7dddd"/>
  <path d="m28.313 22.375c0 3.21-2.518 5.813-5.625 5.813-3.107 0-5.625-2.602-5.625-5.813 0-3.21 2.518-5.813 5.625-5.813 3.107 0 5.625 2.602 5.625 5.813z" fill="#c12d25" transform="matrix(1.9555556 0 0 1.8924731 -20.366667 -18.344086)"/>
</svg>
