<svg xmlns="http://www.w3.org/2000/svg" viewBox="0 0 48 48">
 <defs>
  <linearGradient id="linearGradient3764" x1="1" x2="47" gradientUnits="userSpaceOnUse" gradientTransform="matrix(0,-1,1,0,-1.5e-6,47.999998)">
   <stop style="stop-color:#588f27;stop-opacity:1"/>
   <stop offset="1" style="stop-color:#619f2b;stop-opacity:1"/>
  </linearGradient>
 </defs>
 <g>
  
  
  
 </g>
 <g>
  <path d="m 47,24 C 47,46.703 46.703,47 24,47 1.297,47 1,46.703 1,24 1,1.297 1.297,1 24,1 46.703,1 47,1.297 47,24 z" style="fill:url(#linearGradient3764);fill-opacity:1"/>
 </g>
 <g>
  <g>
   <g transform="translate(1,1)">
    <g style="opacity:0.1">
     <!-- color: #619f2b -->
     <g>
      <path d="m 23.266,9.02 c -1.234,0.008 -2.395,0.672 -2.945,1.816 -0.805,1.664 -0.031,3.723 1.723,4.617 1.754,0.895 3.824,0.277 4.629,-1.387 0.805,-1.664 0.043,-3.738 -1.711,-4.633 C 24.415,9.156 23.829,9.019 23.267,9.019" style="fill:#000;fill-opacity:1;stroke:none;fill-rule:nonzero"/>
      <path d="m 19.03 22.996 c -3.73 1.949 -8.09 4.891 -6.801 7.551 c 1.75 3.59 10.227 4.688 14.574 2.848 c -2.133 -2.316 -8.574 -5.637 -7.98 -9.516 c 0.047 -0.305 0.121 -0.598 0.203 -0.887 m 0 0.004" style="fill:#000;fill-opacity:1;stroke:none;fill-rule:nonzero"/>
      <path d="m 28.08 17.07 c -2.934 -0.781 -7.73 2.277 -8.438 6.543 c -0.707 4.266 7.727 7.867 9.102 10.184 c 1.367 2.316 0.66 5.195 0.66 5.195 c 0 0 5.953 -4.836 6.555 -11.238 c 0.605 -6.398 -4.852 -9.875 -7.867 -10.68 m -0.004 -0.004" style="fill:#000;fill-opacity:1;stroke:none;fill-rule:nonzero"/>
     </g>
    </g>
   </g>
  </g>
 </g>
 <g transform="translate(-6.0855205e-5,0)">
  <g>
   <!-- color: #619f2b -->
   <g>
    <path d="m 23.266,9.02 c -1.234,0.008 -2.395,0.672 -2.945,1.816 -0.805,1.664 -0.031,3.723 1.723,4.617 1.754,0.895 3.824,0.277 4.629,-1.387 0.805,-1.664 0.043,-3.738 -1.711,-4.633 C 24.415,9.156 23.829,9.019 23.267,9.019 m -0.848,1.758 c 0.395,-0.039 0.805,0.039 1.195,0.238 1.035,0.527 1.492,1.746 1.02,2.73 -0.473,0.98 -1.691,1.352 -2.727,0.824 -1.035,-0.527 -1.496,-1.746 -1.023,-2.73 0.297,-0.613 0.883,-0.996 1.535,-1.063 m 0,0" style="fill:#fff;fill-opacity:1;stroke:none;fill-rule:nonzero"/>
    <path d="m 19.03 22.996 c -3.73 1.949 -8.09 4.891 -6.801 7.551 1.75 3.59 10.227 4.688 14.574 2.848 -2.133 -2.316 -8.574 -5.637 -7.98 -9.516 0.047 -0.305 0.121 -0.598 0.203 -0.887 m 0 0.004" style="fill:#dcb90a;fill-opacity:1;stroke:none;fill-rule:nonzero"/>
    <path d="m 28.08,17.07 c -2.934,-0.781 -7.73,2.277 -8.438,6.543 -0.707,4.266 7.727,7.867 9.102,10.184 1.367,2.316 0.66,5.195 0.66,5.195 0,0 5.953,-4.836 6.555,-11.238 0.605,-6.398 -4.852,-9.875 -7.867,-10.68 M 28.088,17.07" style="fill:#ffec00;fill-opacity:1;stroke:none;fill-rule:nonzero"/>
    <path d="m 24.82 14.02 c -0.559 0.965 -1.902 1.203 -3.01 0.531 -1.105 -0.672 -1.551 -2 -0.996 -2.965 0.559 -0.961 1.902 -1.199 3.01 -0.527 1.105 0.672 1.551 1.996 0.996 2.961 m 0 0" style="fill:#454545;fill-opacity:1;stroke:none;fill-rule:nonzero"/>
   </g>
  </g>
 </g>
 <g>
  
 </g>
</svg>
