<svg viewBox="0 0 48 48" xmlns="http://www.w3.org/2000/svg" xmlns:xlink="http://www.w3.org/1999/xlink">
  <linearGradient id="a" gradientTransform="matrix(0 -1 1 0 -.0000015 47.999998)" gradientUnits="userSpaceOnUse" x1="1" x2="47">
    <stop offset="0" stop-color="#588f27"/>
    <stop offset="1" stop-color="#619f2b"/>
  </linearGradient>
  <path d="m47 24c0 22.703-.297 23-23 23-22.703 0-23-.297-23-23 0-22.703.297-23 23-23 22.703 0 23 .297 23 23z" fill="url(#a)"/>
  <g opacity=".1" transform="translate(1 1)">
    <path d="m23.266 9.02c-1.234.008-2.395.672-2.945 1.816-.805 1.664-.031 3.723 1.723 4.617 1.754.895 3.824.277 4.629-1.387.805-1.664.043-3.738-1.711-4.633-.547-.277-1.133-.414-1.695-.414"/>
    <path d="m19.03 22.996c-3.73 1.949-8.09 4.891-6.801 7.551 1.75 3.59 10.227 4.688 14.574 2.848-2.133-2.316-8.574-5.637-7.98-9.516.047-.305.121-.598.203-.887m0 .004"/>
    <path d="m28.08 17.07c-2.934-.781-7.73 2.277-8.438 6.543-.707 4.266 7.727 7.867 9.102 10.184 1.367 2.316.66 5.195.66 5.195 0 0 5.953-4.836 6.555-11.238.605-6.398-4.852-9.875-7.867-10.68m-.004-.004"/>
  </g>
  <g transform="translate(-.00006086)">
    <path d="m23.266 9.02c-1.234.008-2.395.672-2.945 1.816-.805 1.664-.031 3.723 1.723 4.617 1.754.895 3.824.277 4.629-1.387.805-1.664.043-3.738-1.711-4.633-.547-.277-1.133-.414-1.695-.414m-.848 1.758c.395-.039.805.039 1.195.238 1.035.527 1.492 1.746 1.02 2.73-.473.98-1.691 1.352-2.727.824-1.035-.527-1.496-1.746-1.023-2.73.297-.613.883-.996 1.535-1.063m0 0" fill="#fff"/>
    <path d="m19.03 22.996c-3.73 1.949-8.09 4.891-6.801 7.551 1.75 3.59 10.227 4.688 14.574 2.848-2.133-2.316-8.574-5.637-7.98-9.516.047-.305.121-.598.203-.887m0 .004" fill="#dcb90a"/>
    <path d="m28.08 17.07c-2.934-.781-7.73 2.277-8.438 6.543-.707 4.266 7.727 7.867 9.102 10.184 1.367 2.316.66 5.195.66 5.195 0 0 5.953-4.836 6.555-11.238.605-6.398-4.852-9.875-7.867-10.68m-.004-.004" fill="#ffec00"/>
    <path d="m24.82 14.02c-.559.965-1.902 1.203-3.01.531-1.105-.672-1.551-2-.996-2.965.559-.961 1.902-1.199 3.01-.527 1.105.672 1.551 1.996.996 2.961m0 0" fill="#454545"/>
  </g>
</svg>
