<svg viewBox="0 0 48 48" xmlns="http://www.w3.org/2000/svg" xmlns:xlink="http://www.w3.org/1999/xlink">
  <linearGradient id="a" gradientTransform="matrix(0 1 -1 0 48 0)" gradientUnits="userSpaceOnUse" x1="1" x2="47">
    <stop offset="0" stop-color="#3a3a3a"/>
    <stop offset="1" stop-color="#303030"/>
  </linearGradient>
  <path d="m47 24c0 22.703-.297 23-23 23-22.703 0-23-.297-23-23 0-22.703.297-23 23-23 22.703 0 23 .297 23 23z" fill="url(#a)"/>
  <g transform="matrix(.10805824 0 0 .10805824 6.7980928 6.6574623)">
    <path d="m140.68 49.44v27.763l-87.92 50.898 23.14 17.948v105.07l27.871-14.749 92.43 53.682v-27.763l87.92-49.977-23.14-18.4v-105.05l-27.763 13.393-92.54-52.814zm26.534 43.14l66.01 38.3v79.02l-63.44 36.529-66.05-39.62-.072-77.02 63.55-37.22z" fill-opacity=".098"/>
    <path d="m223.97 200.98l-.001-107.97 27.764-13.394v105.05z" fill="#e94346"/>
    <path d="m159.55 237.74l92.18-53.08 23.14 18.402-87.92 49.973z" fill="#a961ad"/>
    <path d="m94.41 118.85l.112 108.27-27.874 14.735v-105.06z" fill="#67ca60"/>
    <path d="m158.86 82.81l-92.21 53.992-23.14-17.954 87.92-50.898" fill="#f4e134"/>
    <path d="m223.97 121.62l-92.54-53.675v-27.763l92.54 52.818z" fill="#f19e45"/>
    <path d="m94.41 197.51l92.54 55.53v27.763l-92.43-53.675z" fill="#759ed1"/>
  </g>
</svg>
