<svg viewBox="0 0 48 48" xmlns="http://www.w3.org/2000/svg" xmlns:xlink="http://www.w3.org/1999/xlink">
  <linearGradient gradientUnits="userSpaceOnUse" x1="1" x2="47">
    <stop offset="0" stop-color="#9bd563"/>
    <stop offset="1" stop-color="#a5d973"/>
  </linearGradient>
  <linearGradient id="a" gradientUnits="userSpaceOnUse" x1="1" x2="47">
    <stop offset="0" stop-color="#d5ae5f"/>
    <stop offset="1" stop-color="#d9b66f"/>
  </linearGradient>
  <path d="m24 1c22.703 0 23 .297 23 23 0 22.703-.297 23-23 23-22.703 0-23-.297-23-23 0-22.703.297-23 23-23z" fill="url(#a)" transform="matrix(0 -1 1 0 0 48)"/>
  <path d="m13 13.996v8.5l-2 2.5 2 2.5v8.502l4.455-4.455a10 10 0 0 0 7.545 3.455 10 10 0 0 0  7.549-3.451l4.451 4.453v-8.502l2-2.5-2-2.5v-8.5l-4.455 4.455a10 10 0 0 0-7.545-3.455 10 10 0 0 0-7.547 3.451z" opacity=".1"/>
  <circle cx="24" cy="24" fill="#e8e8e8" r="10"/>
  <path d="m14 24c .002 2.896 1.261 5.649 3.449 7.547l2.551-2.551h1c .554 0 1-.446 1-1v-6c0-.554-.446-1-1-1zm14 3.998c0 .554.446 1 1 1h1c2.188-1.708.121-6.449-2-1z" opacity=".1"/>
  <path d="m12 12.998l7 7h1c .554 0 1 .446 1 1v6c0 .554-.446 1-1 1h-1l-7 7v-8.502l-2-2.5 2-2.5z" fill="#d95353"/>
  <path d="m36 13l-7 7h-1c-.554 0-1 .446-1 1v6c0 .554.446 1 1 1h1l7 7v-8.502l2-2.5-2-2.5" fill="#d95353"/>
</svg>
