<svg xmlns="http://www.w3.org/2000/svg" viewBox="0 0 48 48">
 <defs>
  <linearGradient id="linearGradient3764" x1="1" x2="47" gradientUnits="userSpaceOnUse" gradientTransform="matrix(0,-1,1,0,-1.5e-6,47.999998)">
   <stop style="stop-color:#e4e4e4;stop-opacity:1"/>
   <stop offset="1" style="stop-color:#eee;stop-opacity:1"/>
  </linearGradient>
 </defs>
 <g>
  
  
  
 </g>
 <g>
  <path d="m 47,24 C 47,46.703 46.703,47 24,47 1.297,47 1,46.703 1,24 1,1.297 1.297,1 24,1 46.703,1 47,1.297 47,24 z" style="fill:url(#linearGradient3764);fill-opacity:1"/>
 </g>
 <g>
  <g>
   <g transform="translate(1,1)">
    <g style="opacity:0.1">
     <!-- color: #eeeeee -->
     <g>
      <path d="m 24.486 9 c -1.34 0 -2.676 1 -4.486 3 c 2.359 -1.168 6.586 -1.211 9 0 c -1.828 -2 -3.173 -3 -4.514 -3 z m 0.514 4 c -3.22 0 -6.163 1.183 -8.436 3.129 l -1.549 -1.594 l -1.344 1.41 l 1.535 1.535 c -1.99 2.285 -3.207 5.26 -3.207 8.52 c 0 7.169 5.831 13 13 13 c 7.095 0 12.858 -5.716 12.979 -12.781 c 0.015 -0.072 0.022 -0.145 0.021 -0.219 c 0 -0.075 -0.006 -0.15 -0.021 -0.223 c -0.122 -7.06 -5.886 -12.777 -12.979 -12.777 z" transform="translate(-1,-1)" mix-blend-mode="normal" isolation="auto" white-space="normal" solid-opacity="1" solid-color="#000000" style="visibility:visible;shape-rendering:auto;color-interpolation-filters:linearRGB;fill:#2d2d2d;opacity:1;image-rendering:auto;fill-opacity:1;stroke:none;display:inline;color:#000;fill-rule:nonzero;color-rendering:auto;color-interpolation:sRGB"/>
     </g>
    </g>
   </g>
  </g>
 </g>
 <g transform="translate(-4.8793343e-4,0)">
  <g>
   <!-- color: #eeeeee -->
   <g>
    <path d="m 24 12 c -7.17 0 -13 5.835 -13 13 0 7.169 5.832 12.999 13 12.999 7.095 0 12.857 -5.715 12.977 -12.781 a 1 1 0 0 0 0.022 -0.219 1 1 0 0 0 -0.022 -0.222 c -0.122 -7.06 -5.884 -12.778 -12.977 -12.778 m 0 2 c 6.088 0 11 4.916 11 11 0 6.089 -4.91 11 -11 11 -6.089 0 -11 -4.91 -11 -11 0 -6.085 4.912 -11 11 -11 z" mix-blend-mode="normal" isolation="auto" white-space="normal" solid-opacity="1" solid-color="#000000" style="visibility:visible;shape-rendering:auto;color-interpolation-filters:linearRGB;fill:#2d2d2d;opacity:1;image-rendering:auto;fill-opacity:1;stroke:none;display:inline;color:#000;fill-rule:nonzero;color-rendering:auto;color-interpolation:sRGB"/>
    <path d="m 23.985 17.658 a 1 1 0 0 0 -0.985 1.014 l 0 6.441 5.682 5.772 a 1 1 0 1 0 1.425 -1.403 l -5.107 -5.188 0 -5.622 a 1 1 0 0 0 -1.015 -1.014 z" mix-blend-mode="normal" isolation="auto" white-space="normal" solid-opacity="1" solid-color="#000000" style="visibility:visible;shape-rendering:auto;color-interpolation-filters:linearRGB;fill:#2d2d2d;opacity:1;image-rendering:auto;fill-opacity:1;stroke:none;display:inline;color:#000;fill-rule:nonzero;color-rendering:auto;color-interpolation:sRGB"/>
    <path d="m 15.02 17.293 1.34 -1.344 -2.344 -2.414 -1.344 1.41 m 2.348 2.348" style="fill:#2d2d2d;fill-opacity:1;stroke:none;fill-rule:nonzero"/>
    <path d="m 19 11 c 2.359 -1.168 6.586 -1.211 9 0 -3.656 -4 -5.379 -4 -9 0 m 0 0" style="fill:#2d2d2d;fill-opacity:1;stroke:none;fill-rule:nonzero"/>
   </g>
  </g>
 </g>
 <g>
  
 </g>
</svg>
