<svg viewBox="0 0 48 48" xmlns="http://www.w3.org/2000/svg" xmlns:xlink="http://www.w3.org/1999/xlink">
  <linearGradient id="a" gradientTransform="matrix(0 -1 1 0 -.0000015 47.999998)" gradientUnits="userSpaceOnUse" x1="1" x2="47">
    <stop offset="0" stop-color="#e4e4e4"/>
    <stop offset="1" stop-color="#eee"/>
  </linearGradient>
  <path d="m47 24c0 22.703-.297 23-23 23-22.703 0-23-.297-23-23 0-22.703.297-23 23-23 22.703 0 23 .297 23 23z" fill="url(#a)"/>
  <path d="m24.486 9c-1.34 0-2.676 1-4.486 3 2.359-1.168 6.586-1.211 9 0-1.828-2-3.173-3-4.514-3zm .514 4c-3.22 0-6.163 1.183-8.436 3.129l-1.549-1.594-1.344 1.41 1.535 1.535c-1.99 2.285-3.207 5.26-3.207 8.52 0 7.169 5.831 13 13 13 7.095 0 12.858-5.716 12.979-12.781.015-.072.022-.145.021-.219 0-.075-.006-.15-.021-.223-.122-7.06-5.886-12.777-12.979-12.777z" fill="#2d2d2d" opacity=".1" transform=""/>
  <g fill="#2d2d2d" transform="translate(-.00048793)">
    <path d="m24 12c-7.17 0-13 5.835-13 13 0 7.169 5.832 12.999 13 12.999 7.095 0 12.857-5.715 12.977-12.781a1 1 0 0 0  .022-.219 1 1 0 0 0-.022-.222c-.122-7.06-5.884-12.778-12.977-12.778m0 2c6.088 0 11 4.916 11 11 0 6.089-4.91 11-11 11-6.089 0-11-4.91-11-11 0-6.085 4.912-11 11-11z"/>
    <path d="m23.985 17.658a1 1 0 0 0-.985 1.014v6.441l5.682 5.772a1 1 0 1 0 1.425-1.403l-5.107-5.188v-5.622a1 1 0 0 0-1.015-1.014z"/>
    <path d="m15.02 17.293l1.34-1.344-2.344-2.414-1.344 1.41m2.348 2.348"/>
    <path d="m19 11c2.359-1.168 6.586-1.211 9 0-3.656-4-5.379-4-9 0m0 0"/>
  </g>
</svg>
