<svg viewBox="0 0 48 48" xmlns="http://www.w3.org/2000/svg" xmlns:xlink="http://www.w3.org/1999/xlink">
  <linearGradient id="a" gradientTransform="matrix(0 -1 1 0 -.0000015 47.999998)" gradientUnits="userSpaceOnUse" x1="1" x2="47">
    <stop offset="0" stop-color="#d52f3f"/>
    <stop offset="1" stop-color="#d8404d"/>
  </linearGradient>
  <path d="m47 24c0 22.703-.297 23-23 23-22.703 0-23-.297-23-23 0-22.703.297-23 23-23 22.703 0 23 .297 23 23z" fill="url(#a)"/>
  <path d="m27.996 13.996c-3.798 0-6.972 2.651-7.789 6.201-.871-.736-1.981-1.197-3.211-1.197-2.758 0-5 2.238-5 5 0 1.938 1.118 3.602 2.732 4.432-.455.753-.732 1.625-.732 2.568 0 2.758 2.242 5 5 5 1.281 0 2.436-.497 3.32-1.289 2.608 1.157 5.68 1.027 8.18-.406.738.43 1.585.695 2.5.695 2.762 0 5-2.242 5-5 0-1.976-1.158-3.671-2.824-4.482.523-1.064.824-2.256.824-3.521 0-4.418-3.582-8-8-8z" opacity=".1" transform=""/>
  <path d="m20.996 23c0 2.758-2.238 5-5 5-2.758 0-5-2.242-5-5 0-2.762 2.242-5 5-5 2.762 0 5 2.242 5 5m0 0" fill="#f4e5d6"/>
  <path d="m34.996 20.996c0 4.418-3.582 8-8 8-4.418 0-8-3.582-8-8 0-4.418 3.582-8 8-8 4.418 0 8 3.582 8 8m0 0" fill="#f4e5d6"/>
  <path d="m36.996 29c0 2.758-2.238 5-5 5-2.758 0-5-2.242-5-5 0-2.762 2.242-5 5-5 2.762 0 5 2.242 5 5m0 0" fill="#f4e5d6"/>
  <path d="m22.996 30c0 2.758-2.238 5-5 5-2.758 0-5-2.242-5-5 0-2.762 2.242-5 5-5 2.762 0 5 2.242 5 5m0 0" fill="#f4e5d6"/>
  <path d="m20 24h9.996v9c-3 1.996-7 1.996-9.996 0m0-9" fill="#f4e5d6"/>
  <path d="m21 23.5c0 1.379-1.121 2.5-2.5 2.5-1.383 0-2.5-1.121-2.5-2.5 0-1.383 1.117-2.5 2.5-2.5 1.379 0 2.5 1.117 2.5 2.5m0 0" fill="#2d2d2d"/>
  <path d="m31 23.5c0 1.379-1.121 2.5-2.5 2.5-1.383 0-2.5-1.121-2.5-2.5 0-1.383 1.117-2.5 2.5-2.5 1.379 0 2.5 1.117 2.5 2.5m0 0" fill="#2d2d2d"/>
  <path d="m21.5 27h5c0 6-5 6-5 0m0 0" fill="#e5043e"/>
  <path d="m19.5 24c0 .551-.449 1-1 1-.551 0-1-.449-1-1 0-.551.449-1 1-1 .551 0 1 .449 1 1m0 0" fill="#f9f9f9"/>
  <path d="m29.5 24c0 .551-.449 1-1 1-.551 0-1-.449-1-1 0-.551.449-1 1-1 .551 0 1 .449 1 1m0 0" fill="#f9f9f9"/>
</svg>
