<svg xmlns="http://www.w3.org/2000/svg" viewBox="0 0 48 48">
 <defs>
  <linearGradient id="linearGradient3764" x1="1" x2="47" gradientUnits="userSpaceOnUse" gradientTransform="matrix(0,-1,1,0,-1.5e-6,47.999998)">
   <stop style="stop-color:#d52f3f;stop-opacity:1"/>
   <stop offset="1" style="stop-color:#d8404d;stop-opacity:1"/>
  </linearGradient>
 </defs>
 <g>
  
  
  
 </g>
 <g>
  <path d="m 47,24 C 47,46.703 46.703,47 24,47 1.297,47 1,46.703 1,24 1,1.297 1.297,1 24,1 46.703,1 47,1.297 47,24 z" style="fill:url(#linearGradient3764);fill-opacity:1"/>
 </g>
 <g>
  <g>
   <g transform="translate(1,1)">
    <g style="opacity:0.1">
     <!-- color: #d8404d -->
     <g>
      <path d="m 27.996 13.996 c -3.798 0 -6.972 2.651 -7.789 6.201 c -0.871 -0.736 -1.981 -1.197 -3.211 -1.197 c -2.758 0 -5 2.238 -5 5 c 0 1.938 1.118 3.602 2.732 4.432 c -0.455 0.753 -0.732 1.625 -0.732 2.568 c 0 2.758 2.242 5 5 5 c 1.281 0 2.436 -0.497 3.32 -1.289 c 2.608 1.157 5.68 1.027 8.18 -0.406 c 0.738 0.43 1.585 0.695 2.5 0.695 c 2.762 0 5 -2.242 5 -5 c 0 -1.976 -1.158 -3.671 -2.824 -4.482 c 0.523 -1.064 0.824 -2.256 0.824 -3.521 c 0 -4.418 -3.582 -8 -8 -8 z" transform="translate(-1,-1)"/>
     </g>
    </g>
   </g>
  </g>
 </g>
 <g>
  <g>
   <!-- color: #d8404d -->
   <g>
    <path d="m 20.996 23 c 0 2.758 -2.238 5 -5 5 -2.758 0 -5 -2.242 -5 -5 0 -2.762 2.242 -5 5 -5 2.762 0 5 2.242 5 5 m 0 0" style="fill:#f4e5d6;fill-opacity:1;stroke:none;fill-rule:nonzero"/>
    <path d="m 34.996 20.996 c 0 4.418 -3.582 8 -8 8 -4.418 0 -8 -3.582 -8 -8 0 -4.418 3.582 -8 8 -8 4.418 0 8 3.582 8 8 m 0 0" style="fill:#f4e5d6;fill-opacity:1;stroke:none;fill-rule:nonzero"/>
    <path d="m 36.996 29 c 0 2.758 -2.238 5 -5 5 -2.758 0 -5 -2.242 -5 -5 0 -2.762 2.242 -5 5 -5 2.762 0 5 2.242 5 5 m 0 0" style="fill:#f4e5d6;fill-opacity:1;stroke:none;fill-rule:nonzero"/>
    <path d="m 22.996 30 c 0 2.758 -2.238 5 -5 5 -2.758 0 -5 -2.242 -5 -5 0 -2.762 2.242 -5 5 -5 2.762 0 5 2.242 5 5 m 0 0" style="fill:#f4e5d6;fill-opacity:1;stroke:none;fill-rule:nonzero"/>
    <path d="m 20 24 9.996 0 0 9 c -3 1.996 -7 1.996 -9.996 0 m 0 -9" style="fill:#f4e5d6;fill-opacity:1;stroke:none;fill-rule:nonzero"/>
    <path d="M 21,23.5 C 21,24.879 19.879,26 18.5,26 17.117,26 16,24.879 16,23.5 16,22.117 17.117,21 18.5,21 c 1.379,0 2.5,1.117 2.5,2.5 m 0,0" style="fill:#2d2d2d;fill-opacity:1;stroke:none;fill-rule:nonzero"/>
    <path d="M 31,23.5 C 31,24.879 29.879,26 28.5,26 27.117,26 26,24.879 26,23.5 26,22.117 27.117,21 28.5,21 c 1.379,0 2.5,1.117 2.5,2.5 m 0,0" style="fill:#2d2d2d;fill-opacity:1;stroke:none;fill-rule:nonzero"/>
    <path d="m 21.5 27 5 0 c 0 6 -5 6 -5 0 m 0 0" style="fill:#e5043e;fill-opacity:1;stroke:none;fill-rule:nonzero"/>
    <path d="m 19.5 24 c 0 0.551 -0.449 1 -1 1 -0.551 0 -1 -0.449 -1 -1 0 -0.551 0.449 -1 1 -1 0.551 0 1 0.449 1 1 m 0 0" style="fill:#f9f9f9;fill-opacity:1;stroke:none;fill-rule:nonzero"/>
    <path d="m 29.5 24 c 0 0.551 -0.449 1 -1 1 -0.551 0 -1 -0.449 -1 -1 0 -0.551 0.449 -1 1 -1 0.551 0 1 0.449 1 1 m 0 0" style="fill:#f9f9f9;fill-opacity:1;stroke:none;fill-rule:nonzero"/>
   </g>
  </g>
 </g>
 <g>
  
 </g>
</svg>
