<svg xmlns="http://www.w3.org/2000/svg" viewBox="0 0 48 48">
 <defs>
  <linearGradient id="linearGradient3764" x1="1" x2="47" gradientUnits="userSpaceOnUse" gradientTransform="matrix(0,-1,1,0,-1.5e-6,47.999998)">
   <stop style="stop-color:#d05858;stop-opacity:1"/>
   <stop offset="1" style="stop-color:#d46868;stop-opacity:1"/>
  </linearGradient>
 </defs>
 <g>
  
  
  
 </g>
 <g>
  <path d="m 47,24 C 47,46.703 46.703,47 24,47 1.297,47 1,46.703 1,24 1,1.297 1.297,1 24,1 46.703,1 47,1.297 47,24 z" style="fill:url(#linearGradient3764);fill-opacity:1"/>
 </g>
 <g>
  
 </g>
 <path d="m 18 12 -2 2 0 13 -4 3 0 5 4 3 4 0 4 -3 0 -5 -4 -3 0 -2 2 -1 0 -1 -2 -1 0 -1 2 -1 0 -1 -2 -1 0 -1 2 -1 0 -1 -2 -3 z m 6 1 0 5 5 0 0 6 c -0.554 0 -1 0.446 -1 1 l 0 12 c 0 0.554 0.446 1 1 1 l 3 0 c 0.554 0 1 -0.446 1 -1 l 0 -12 c 0 -0.554 -0.446 -1 -1 -1 l 0 -6 6 0 0 -2 -6 -3 z m -7 19 2 0 1 1 0 2 -1 1 -2 0 -1 -1 0 -2 z" style="fill:#000;opacity:0.1;fill-opacity:1;stroke:none"/>
 <path d="m 17 11 -2 2 0 13 -4 3 0 5 4 3 4 0 4 -3 0 -5 -4 -3 0 -2 2 -1 0 -1 -2 -1 0 -1 2 -1 0 -1 -2 -1 0 -1 2 -1 0 -1 -2 -3 -2 0 z m -1 20 2 0 1 1 0 2 -1 1 -2 0 -1 -1 0 -2 1 -1 z" style="fill:#d8dd85;opacity:1;fill-opacity:1;stroke:none"/>
 <path d="m 23 12 0 5 5 0 0 7 3 0 0 -7 6 0 0 -2 -6 -3 z" style="fill:#b6b6b6;opacity:1;fill-opacity:1;stroke:none"/>
 <rect width="5" height="14" x="27" y="23" rx="1" style="fill:#758aaf;opacity:1;fill-opacity:1;stroke:none"/>
</svg>
