<svg xmlns="http://www.w3.org/2000/svg" viewBox="0 0 48 48">
 <defs>
  <linearGradient id="linearGradient3764" x1="1" x2="47" gradientUnits="userSpaceOnUse" gradientTransform="matrix(0,-1,1,0,-1.5e-6,47.999998)">
   <stop style="stop-color:#cf3d1b;stop-opacity:1"/>
   <stop offset="1" style="stop-color:#e1421d;stop-opacity:1"/>
  </linearGradient>
 </defs>
 <g>
  
  
  
 </g>
 <g>
  <path d="m 47,24 C 47,46.703 46.703,47 24,47 1.297,47 1,46.703 1,24 1,1.297 1.297,1 24,1 46.703,1 47,1.297 47,24 z" style="fill:url(#linearGradient3764);fill-opacity:1"/>
 </g>
 <path d="m 25 11 -3.105 1.996 -6.893 0 0 4.428 l -2 1.287 0 14.573 c 0 1.714 0 1.715 1.779 1.715 l 0.002 0 20.443 0 c 1.777 0 1.775 0 1.775 -1.715 l 0 -14.573 -2 -1.287 0 -4.428 -6.893 0 l -3.105 -1.996" style="fill:#000;fill-opacity:0.098"/>
 <g>
  <!-- color: #e1421d -->
 </g>
 <g>
  
 </g>
 <g>
  <path d="m 13.777 34 20.445 0 c 1.777 0 1.777 0 1.777 -1.715 l 0 -14.57 -12 -7.711 -12 7.711 0 14.57 c 0 1.715 0 1.715 1.781 1.715 m 0 0" style="fill:#aaa;fill-opacity:1;stroke:none;fill-rule:nonzero"/>
  <path d="m 14,12 0,20 19.996,0 0,-20 M 14,12" style="fill:#2c86d5;fill-opacity:1;stroke:none;fill-rule:nonzero"/>
  <path d="m 14 12 0 7.727 c 0.541 0.159 1.126 0.273 1.677 0.273 2.76 0 5.29 -2.088 5.29 -4.667 0 -1.304 -0.176 -2.323 -1.01 -3.333" style="fill:#fbc06e;fill-opacity:0.392;stroke:none;fill-rule:nonzero"/>
  <path d="m 14 12 l 0 5.795 c 0.406 0.119 0.845 0.205 1.258 0.205 c 2.07 0 3.742 -1.566 3.742 -3.5 c 0 -0.978 -0.436 -1.859 -1.133 -2.5 l -3.867 0 z" style="fill:#fbc06e;fill-opacity:1;stroke:none;fill-rule:nonzero"/>
  <path d="m 31.68 16 l -8.816 16 l 11.133 0 l 0 -12.588 l -2.316 -3.412 z" style="fill:#f4f4f4;fill-opacity:1;stroke:none;fill-rule:nonzero"/>
  <path d="m 31.68 16 l 1.5 6.746 l -1.5 6.074 l 1.613 3.18 l 0.703 0 l 0 -12.59 l -2.316 -3.41 z" style="fill:#dedede;fill-opacity:1;stroke:none;fill-rule:nonzero"/>
  <path d="m 13.777 34 20.445 0 c 1.777 0 1.777 0 1.777 -1.68 l 0 -14.316 -24 14.316 c 0 1.68 0 1.68 1.781 1.68 m -0.004 0" style="fill:#ccc;fill-opacity:1;stroke:none;fill-rule:nonzero"/>
  <path d="m 34.22 34 -20.445 0 c -1.781 0 -1.781 0 -1.781 -1.68 l 0 -14.316 24 14.316 c 0 1.68 0 1.68 -1.77 1.68 m 0.004 0" style="fill:#dedede;fill-opacity:1;stroke:none;fill-rule:nonzero"/>
 </g>
</svg>
