<svg viewBox="0 0 48 48" xmlns="http://www.w3.org/2000/svg" xmlns:xlink="http://www.w3.org/1999/xlink">
  <linearGradient id="a" gradientTransform="matrix(0 -1 1 0 -.0000015 47.999998)" gradientUnits="userSpaceOnUse" x1="1" x2="47">
    <stop offset="0" stop-color="#cf3d1b"/>
    <stop offset="1" stop-color="#e1421d"/>
  </linearGradient>
  <path d="m47 24c0 22.703-.297 23-23 23-22.703 0-23-.297-23-23 0-22.703.297-23 23-23 22.703 0 23 .297 23 23z" fill="url(#a)"/>
  <path d="m25 11l-3.105 1.996h-6.893v4.428l-2 1.287v14.573c0 1.714 0 1.715 1.779 1.715h.002 20.443c1.777 0 1.775 0 1.775-1.715v-14.573l-2-1.287v-4.428h-6.893l-3.105-1.996" fill-opacity=".098"/>
  <path d="m13.777 34h20.445c1.777 0 1.777 0 1.777-1.715v-14.57l-12-7.711-12 7.711v14.57c0 1.715 0 1.715 1.781 1.715m0 0" fill="#aaa"/>
  <path d="m14 12v20h19.996v-20m-19.996 0" fill="#2c86d5"/>
  <path d="m14 12v7.727c.541.159 1.126.273 1.677.273 2.76 0 5.29-2.088 5.29-4.667 0-1.304-.176-2.323-1.01-3.333" fill="#fbc06e" fill-opacity=".392"/>
  <path d="m14 12v5.795c.406.119.845.205 1.258.205 2.07 0 3.742-1.566 3.742-3.5 0-.978-.436-1.859-1.133-2.5z" fill="#fbc06e"/>
  <path d="m31.68 16l-8.816 16h11.133v-12.588l-2.316-3.412z" fill="#f4f4f4"/>
  <path d="m31.68 16l1.5 6.746-1.5 6.074 1.613 3.18h.703v-12.59z" fill="#dedede"/>
  <path d="m13.777 34h20.445c1.777 0 1.777 0 1.777-1.68v-14.316l-24 14.316c0 1.68 0 1.68 1.781 1.68m-.004 0" fill="#ccc"/>
  <path d="m34.22 34h-20.445c-1.781 0-1.781 0-1.781-1.68v-14.316l24 14.316c0 1.68 0 1.68-1.77 1.68m.004 0" fill="#dedede"/>
</svg>
