<svg viewBox="0 0 48 48" xmlns="http://www.w3.org/2000/svg" xmlns:xlink="http://www.w3.org/1999/xlink">
  <linearGradient id="a" gradientTransform="matrix(0 -1 1 0 -.0000015 47.999998)" gradientUnits="userSpaceOnUse" x1="1" x2="47">
    <stop offset="0" stop-color="#e3aa23"/>
    <stop offset="1" stop-color="#e5b135"/>
  </linearGradient>
  <path d="m47 24c0 22.703-.297 23-23 23-22.703 0-23-.297-23-23 0-22.703.297-23 23-23 22.703 0 23 .297 23 23z" fill="url(#a)"/>
  <g opacity=".1" transform="translate(1 1)">
    <path d="m18 24c-3.313 0-6 2.688-6 6 0 3.313 2.688 6 6 6 3.313 0 6-2.688 6-6h-6m0-6"/>
    <path d="m25.02 29h1v .996h-1m0-.996"/>
    <path d="m19 27h1v2h-1m0-2"/>
    <path d="m21 28v-1h2v1m-2 0"/>
    <path d="m34 24h1v .996h-1m0-.996"/>
    <path d="m20 16h .996v1h-.996m0-1"/>
    <path d="m19 24h1v .996h-1m0-.996"/>
    <path d="m29 16h .996v1h-.996m0-1"/>
    <path d="m25.02 19v-1h2v1m-2 0"/>
    <path d="m22 19h1v1.996h-1m0-1.996"/>
    <path d="m21 23v1h1v1h1v-2m-2 0"/>
    <path d="m26 26h-1v1h-.996v1h1.996m0-2"/>
    <path d="m28 24v .996h1v1h .996v-1.996m-1.996 0"/>
    <path d="m26 21v1h-1v1h1v1h1v-3m-1 0"/>
    <path d="m19 20h1v-1h .996v-1h-1.996m0 2"/>
    <path d="m27 15v-.996h3v .996m-3 0"/>
    <path d="m28 13.988v-1h1v1m-1 0"/>
    <path d="m31 22h1v1h-1m0-1"/>
    <path d="m35 21v-.996h-1v-1h-.996v1.996m1.996 0"/>
    <path d="m25.02 13h1v2h-1m0-2"/>
    <path d="m22 16v-.996h2v .996m-2 0"/>
    <path d="m31.996 13h1v1h-1m0-1"/>
    <path d="m31 20h-1v-1h-.996v1h-1v .996h3v-.996m-.004 0"/>
    <path d="m33 18v-1h1.996v1m-1.996 0"/>
  </g>
  <path d="m18 24c-3.313 0-6 2.688-6 6 0 3.313 2.688 6 6 6 3.313 0 6-2.688 6-6h-6m0-6" fill="#2d2d2d"/>
  <path d="m25.02 29h1v .996h-1m0-.996" fill="#2d2d2d"/>
  <path d="m19 27h1v2h-1m0-2" fill="#2d2d2d"/>
  <path d="m21 28v-1h2v1m-2 0" fill="#2d2d2d"/>
  <path d="m34 24h1v .996h-1m0-.996" fill="#2d2d2d"/>
  <path d="m20 16h .996v1h-.996m0-1" fill="#2d2d2d"/>
  <path d="m19 24h1v .996h-1m0-.996" fill="#2d2d2d"/>
  <path d="m29 16h .996v1h-.996m0-1" fill="#2d2d2d"/>
  <path d="m25.02 19v-1h2v1m-2 0" fill="#2d2d2d"/>
  <path d="m22 19h1v1.996h-1m0-1.996" fill="#2d2d2d"/>
  <path d="m21 23v1h1v1h1v-2m-2 0" fill="#2d2d2d"/>
  <path d="m26 26h-1v1h-.996v1h1.996m0-2" fill="#2d2d2d"/>
  <path d="m28 24v .996h1v1h .996v-1.996m-1.996 0" fill="#2d2d2d"/>
  <path d="m26 21v1h-1v1h1v1h1v-3m-1 0" fill="#2d2d2d"/>
  <path d="m19 20h1v-1h .996v-1h-1.996m0 2" fill="#2d2d2d"/>
  <path d="m27 15v-.996h3v .996m-3 0" fill="#2d2d2d"/>
  <path d="m28 13.988v-1h1v1m-1 0" fill="#2d2d2d"/>
  <path d="m31 22h1v1h-1m0-1" fill="#2d2d2d"/>
  <path d="m35 21v-.996h-1v-1h-.996v1.996m1.996 0" fill="#2d2d2d"/>
  <path d="m25.02 13h1v2h-1m0-2" fill="#2d2d2d"/>
  <path d="m22 16v-.996h2v .996m-2 0" fill="#2d2d2d"/>
  <path d="m31.996 13h1v1h-1m0-1" fill="#2d2d2d"/>
  <path d="m31 20h-1v-1h-.996v1h-1v .996h3v-.996m-.004 0" fill="#2d2d2d"/>
  <path d="m33 18v-1h1.996v1m-1.996 0" fill="#2d2d2d"/>
</svg>
