<svg viewBox="0 0 48 48" xmlns="http://www.w3.org/2000/svg" xmlns:xlink="http://www.w3.org/1999/xlink">
  <linearGradient id="a" gradientTransform="matrix(0 -1 1 0 -.0000015 47.999998)" gradientUnits="userSpaceOnUse" x1="1" x2="47">
    <stop offset="0" stop-color="#426d96"/>
    <stop offset="1" stop-color="#4879a5"/>
  </linearGradient>
  <path d="m47 24c0 22.703-.297 23-23 23-22.703 0-23-.297-23-23 0-22.703.297-23 23-23 22.703 0 23 .297 23 23z" fill="url(#a)"/>
  <path d="m27.797 12l-3.625 1.344c-7.121 2.098-12.172 6.656-10.172 13.656l3-4c-1.992-5.094 3-7 7.172-8.5-1.398 6.277-3.445 14.563-4.969 19.84h-5.719l-1.652 1.656h2.813c5.402.094 11.215-.039 14.406-1.969-2.238.238-3.199.273-6.719.313.605-2.684 1.348-5.926 1.875-7.906 2.641-.16 4.84-.805 7.281-2.125 7.516-4.313 4.945-11.297-2.156-11.375-.402 0-.863.02-1.781.063m-.598 2.41l7.01 4-9.01 4m1.996-8" opacity=".1" transform="translate(1 1)"/>
  <path d="m27.797 12l-3.625 1.344c-7.121 2.098-12.172 6.656-10.172 13.656l3-4c-1.992-5.094 3-7 7.172-8.5-1.398 6.277-3.445 14.563-4.969 19.84h-5.719l-1.652 1.656h2.813c5.402.094 11.215-.039 14.406-1.969-2.238.238-3.199.273-6.719.313.605-2.684 1.348-5.926 1.875-7.906 2.641-.16 4.84-.805 7.281-2.125 7.516-4.313 4.945-11.297-2.156-11.375-.402 0-.863.02-1.781.063m-.598 2.41l7.01 4-9.01 4m1.996-8" fill="#f9f9f9"/>
</svg>
