<svg viewBox="0 0 48 48" xmlns="http://www.w3.org/2000/svg" xmlns:xlink="http://www.w3.org/1999/xlink">
  <linearGradient id="a" gradientTransform="matrix(0 -1 1 0 0 48)" gradientUnits="userSpaceOnUse" x1="1" x2="47">
    <stop offset="0" stop-color="#fad400"/>
    <stop offset="1" stop-color="#ffdb0f"/>
  </linearGradient>
  <path d="m24 47c-22.703 0-23-.297-23-23 0-22.703.297-23 23-23 22.703 0 23 .297 23 23 0 22.703-.297 23-23 23z" fill="url(#a)"/>
  <path d="m26.992 11l3 7 10-1-5.996 6 7 4-8 1 5.996 8-9-3-.996 6-5-5-8 5 3-9-8-1 7-4-5-2 4-1.996-5-9 11 4.996zm1 9h-4v3h-3v4h3v3h4v-3h3v-4h-3z" opacity=".1"/>
  <path d="m25.992 10l3 7 10-1-5.996 6 7 4-8 1 5.996 8-9-3-.996 6-5-5-8 5 3-9-8-1 7-4-5-2 4-1.996-5-9 11 4.996zm1 9h-4v3h-3v4h3v3h4v-3h3v-4h-3z" fill="#7f0003"/>
</svg>
