<svg xmlns="http://www.w3.org/2000/svg" viewBox="0 0 48 48">
 <defs>
  <linearGradient id="linearGradient3764" x1="1" x2="47" gradientUnits="userSpaceOnUse" gradientTransform="matrix(0,-1,1,0,-1.5e-6,47.999998)">
   <stop style="stop-color:#e0e6e8;stop-opacity:1"/>
   <stop offset="1" style="stop-color:#ecf0f1;stop-opacity:1"/>
  </linearGradient>
 </defs>
 <g>
  
  
  
 </g>
 <g>
  <path d="m 47,24 C 47,46.703 46.703,47 24,47 1.297,47 1,46.703 1,24 1,1.297 1.297,1 24,1 46.703,1 47,1.297 47,24 z" style="fill:url(#linearGradient3764);fill-opacity:1"/>
 </g>
 <g>
  <g>
   <g transform="translate(1,1)">
    <g style="opacity:0.1">
     <!-- color: #ecf0f1 -->
     <g>
      <path d="m 20 13 c -3.867 0 -7 3.133 -7 7 c 0 3.527 2.608 6.436 6 6.922 l 0 6.262 c -1.162 0.413 -2 1.513 -2 2.816 c 0 1.656 1.344 3 3 3 c 1.656 0 3 -1.344 3 -3 c 0 -1.304 -0.838 -2.403 -2 -2.816 l 0 -6.262 c 1.164 -0.167 2.233 -0.618 3.139 -1.283 l 6.131 6.131 c -0.17 0.376 -0.27 0.791 -0.27 1.23 c 0 1.656 1.344 3 3 3 c 1.656 0 3 -1.344 3 -3 c 0 -1.656 -1.344 -3 -3 -3 c -0.439 0 -0.854 0.1 -1.23 0.27 l -6.131 -6.131 c 0.47 -0.64 0.836 -1.359 1.068 -2.139 l 6.477 0 c 0.413 1.162 1.513 2 2.816 2 c 1.656 0 3 -1.344 3 -3 c 0 -1.656 -1.344 -3 -3 -3 c -1.304 0 -2.403 0.838 -2.816 2 l -6.184 0 c 0 -3.867 -3.133 -7 -7 -7 z m 0 2 c 2.762 0 5 2.238 5 5 c 0 2.762 -2.238 5 -5 5 c -2.762 0 -5 -2.238 -5 -5 c 0 -2.762 2.238 -5 5 -5 z m 16 4.5 c 0.828 0 1.5 0.672 1.5 1.5 c 0 0.828 -0.672 1.5 -1.5 1.5 c -0.828 0 -1.5 -0.672 -1.5 -1.5 c 0 -0.828 0.672 -1.5 1.5 -1.5 z m -3 12 c 0.828 0 1.5 0.672 1.5 1.5 c 0 0.828 -0.672 1.5 -1.5 1.5 c -0.828 0 -1.5 -0.672 -1.5 -1.5 c 0 -0.828 0.672 -1.5 1.5 -1.5 z m -13 3 c 0.828 0 1.5 0.672 1.5 1.5 c 0 0.828 -0.672 1.5 -1.5 1.5 c -0.828 0 -1.5 -0.672 -1.5 -1.5 c 0 -0.828 0.672 -1.5 1.5 -1.5 z" transform="translate(-1,-1)" style="fill:#000;fill-opacity:1;stroke:none;fill-rule:nonzero"/>
     </g>
    </g>
   </g>
  </g>
 </g>
 <g>
  <g>
   <!-- color: #ecf0f1 -->
   <g>
    <path d="m 19 32 c -1.656 0 -3 1.344 -3 3 0 1.656 1.344 3 3 3 1.656 0 3 -1.344 3 -3 0 -1.656 -1.344 -3 -3 -3 m 0 1.5 c 0.828 0 1.5 0.672 1.5 1.5 0 0.828 -0.672 1.5 -1.5 1.5 -0.828 0 -1.5 -0.672 -1.5 -1.5 0 -0.828 0.672 -1.5 1.5 -1.5 m 0 0" style="fill:#3497db;fill-opacity:1;stroke:none;fill-rule:nonzero"/>
    <path d="m 35 17 c -1.656 0 -3 1.344 -3 3 0 1.656 1.344 3 3 3 1.656 0 3 -1.344 3 -3 0 -1.656 -1.344 -3 -3 -3 m 0 1.5 c 0.828 0 1.5 0.672 1.5 1.5 0 0.828 -0.672 1.5 -1.5 1.5 -0.828 0 -1.5 -0.672 -1.5 -1.5 0 -0.828 0.672 -1.5 1.5 -1.5 m 0 0" style="fill:#fd7c60;fill-opacity:1;stroke:none;fill-rule:nonzero"/>
    <path d="m 32 29 c -1.656 0 -3 1.344 -3 3 0 1.656 1.344 3 3 3 1.656 0 3 -1.344 3 -3 0 -1.656 -1.344 -3 -3 -3 m 0 1.5 c 0.828 0 1.5 0.672 1.5 1.5 0 0.828 -0.672 1.5 -1.5 1.5 -0.828 0 -1.5 -0.672 -1.5 -1.5 0 -0.828 0.672 -1.5 1.5 -1.5 m 0 0" style="fill:#f8c82d;fill-opacity:1;stroke:none;fill-rule:nonzero"/>
    <path d="m 18 33 0 -8 2 0 0 8 m -2 0" style="fill:#3497db;fill-opacity:1;stroke:none;fill-rule:nonzero"/>
    <path d="m 25 19 8 0 0 2 -8 0 m 0 -2" style="fill:#fd7c60;fill-opacity:1;stroke:none;fill-rule:nonzero"/>
    <path d="M 30,31.5 31.5,30 24,22.5 22.5,24 Z m 0,0" style="fill:#f8c82d;fill-opacity:1;stroke:none;fill-rule:nonzero"/>
    <path d="m 19 12 c -3.867 0 -7 3.133 -7 7 0 3.867 3.133 7 7 7 3.867 0 7 -3.133 7 -7 0 -3.867 -3.133 -7 -7 -7 m 0 2 c 2.762 0 5 2.238 5 5 0 2.762 -2.238 5 -5 5 -2.762 0 -5 -2.238 -5 -5 0 -2.762 2.238 -5 5 -5 m 0 0" style="fill:#25cf7f;fill-opacity:1;stroke:none;fill-rule:nonzero"/>
   </g>
  </g>
 </g>
 <g>
  
 </g>
</svg>
