<svg viewBox="0 0 48 48" xmlns="http://www.w3.org/2000/svg" xmlns:xlink="http://www.w3.org/1999/xlink">
  <linearGradient id="a" gradientUnits="userSpaceOnUse" x2="0" y1="47" y2="1">
    <stop offset="0" stop-color="#15beef"/>
    <stop offset="1" stop-color="#27c1f0"/>
  </linearGradient>
  <path d="m47 24c0 22.703-.297 23-23 23-22.703 0-23-.297-23-23 0-22.703.297-23 23-23 22.703 0 23 .297 23 23z" fill="url(#a)"/>
  <g opacity=".1" transform="translate(1 1)">
    <path d="m27.988 11c-2.313 0-4.602.887-6.355 2.641-3.512 3.508-3.512 9.223 0 12.73 3.508 3.504 9.227 3.504 12.734 0 3.512-3.508 3.512-9.223 0-12.73-1.758-1.754-4.078-2.641-6.383-2.641"/>
    <path d="m17.879 32.27l-2.145-2.145-4.734 4.734 2.145 2.145m4.734-4.734"/>
    <path d="m22.422 27.07l-1.504-1.504-4.734 4.734 1.504 1.504m4.734-4.734"/>
  </g>
  <path d="m36.5 20c0 4.695-3.805 8.5-8.5 8.5-4.699 0-8.504-3.805-8.5-8.5-.004-4.691 3.801-8.5 8.5-8.5 4.695 0 8.5 3.809 8.5 8.5m0 0" fill="#1ab3ed"/>
  <path d="m27.988 11c-2.313 0-4.602.887-6.355 2.641-3.512 3.508-3.512 9.223 0 12.73 3.508 3.504 9.227 3.504 12.734 0 3.512-3.508 3.512-9.223 0-12.73-1.758-1.754-4.078-2.641-6.383-2.641m0 1.48c1.922 0 3.84.727 5.313 2.199 2.941 2.941 2.941 7.68 0 10.617-2.941 2.941-7.684 2.941-10.629 0-2.941-2.938-2.941-7.676 0-10.617 1.473-1.473 3.391-2.199 5.316-2.199m0 0" fill="#f9f9f9"/>
  <path d="m17.879 32.27l-2.145-2.145-4.734 4.734 2.145 2.145m4.734-4.734" fill="#284c5a"/>
  <path d="m22.422 27.07l-1.504-1.504-4.734 4.734 1.504 1.504m4.734-4.734" fill="#ffbb9d"/>
  <path d="m35 20c0 3.867-3.133 7-7 7-3.871 0-7-3.133-7-7-.004-3.863 3.129-7 7-7 3.867 0 7 3.137 7 7m0 0" fill="#70caef"/>
  <path d="m29.906 14.313l-.969 2.875c1.188.398 2.063 1.492 2.063 2.813 0 .176-.035.332-.063.5l2.969.5c.055-.324.094-.66.094-1 0-2.648-1.715-4.891-4.094-5.688m0 0" fill="#9fd8f5"/>
</svg>
