<svg xmlns="http://www.w3.org/2000/svg" viewBox="0 0 48 48">
 <defs>
  <linearGradient id="linearGradient3764" x1="1" x2="47" gradientUnits="userSpaceOnUse" gradientTransform="matrix(0,-1,1,0,-1.5e-6,47.999998)">
   <stop style="stop-color:#4ca5e4;stop-opacity:1"/>
   <stop offset="1" style="stop-color:#5dafe6;stop-opacity:1"/>
  </linearGradient>
 </defs>
 <g>
  
  
  
 </g>
 <g>
  <path d="m 47,24 C 47,46.703 46.703,47 24,47 1.297,47 1,46.703 1,24 1,1.297 1.297,1 24,1 46.703,1 47,1.297 47,24 z" style="fill:url(#linearGradient3764);fill-opacity:1"/>
 </g>
 <g>
  <g>
   <g transform="translate(1,1)">
    <g style="opacity:0.1">
     <!-- color: #5dafe6 -->
     <g>
      <path d="m 24.797 11 c -3.608 -0.116 -7.238 2.748 -7.432 8.359 0.118 1.382 0.928 3.309 1.73 4.02 0.538 0.602 1.709 1.758 1.709 1.758 0 0 -1.206 1.259 -1.805 1.881 l 0.002 0.002 c -3.183 1.544 -6.35 4.607 -7 7.98 l 0.002 2 26 0 0 -2 c -0.662 -2.919 -3.988 -6.255 -8.172 -8.07 l -1.732 -1.791 c 0.477 -0.466 1.56 -1.356 1.986 -2.08 0.824 -0.533 1.822 -1.555 2.01 -2.527 -0.104 -6.311 -3.689 -9.407 -7.297 -9.523 z" transform="translate(-1,-1)"/>
     </g>
    </g>
   </g>
  </g>
 </g>
 <g>
  <g>
   <!-- color: #5dafe6 -->
   <g>
    <path d="m 22.871 27.793 -4.949 -5.949 -0.594 -6.086 7.137 -1.957 4.703 1.434 1.66 3.668 -1.293 2.477 -5.75 6.473 m -0.914 -0.059" style="fill:#cf8e92;fill-opacity:0.941;stroke:none;fill-rule:nonzero"/>
    <path d="m 11,36 26,0 0,-2 c -0.68,-3 -4.168,-6.453 -8.516,-8.234 l -2.84,2.762 -0.898,-0.598 -2.492,-0.055 -0.797,0.922 -3.02,-2.996 C 15.113,27.266 11.683,30.473 10.999,34 m 0,2" style="fill:#cf362d;fill-opacity:1;stroke:none;fill-rule:nonzero"/>
    <path d="m 23.449 12.332 c 2.891 0 5.23 2.434 5.23 5.434 l 0 2.453 c 0 3 -2.34 5.43 -5.23 5.43 -2.887 0 -5.23 -2.43 -5.23 -5.43 l 0 -2.453 c 0 -3 2.344 -5.434 5.23 -5.434 m 0 0" style="fill:#ffcdce;fill-opacity:1;stroke:none;fill-rule:nonzero"/>
    <path d="m 27.09 24.14 c 0.563 -0.551 2 -1.707 2.16 -2.469 l -0.055 -4.371 -8.328 -3.094 -1.355 1.148 -2.246 2.922 0.551 3.297 0.293 0.844 1.695 1.719 m 7.285 0.004" style="fill:#ffcdce;fill-opacity:1;stroke:none;fill-rule:nonzero"/>
    <path d="m 18.15,22.434 0,-4.07 c 0.414,-1.777 2.137,-3.574 2.996,-3.551 1.465,0.184 2.488,1.48 3.363,2.738 1.102,0.938 3.855,0.996 4.574,0 0,1.52 0,3.035 0,4.555 0.816,-0.316 1.836,-1.531 2.01,-2.578 C 30.886,6.907 16.753,7.141 16.366,18.364 c 0.121,1.414 0.965,3.406 1.785,4.07 m 0,0" style="fill:#d0362d;fill-opacity:1;stroke:none;fill-rule:nonzero"/>
    <path d="m 23.453 27.898 3.637 -3.77 1.82 1.883 -3.637 3.77 m -1.82 -1.883" style="fill:#b2d4cf;fill-opacity:1;stroke:none;fill-rule:nonzero"/>
    <path d="M 19.816,24.13 23.453,27.9 21.637,29.783 18,26.017 m 1.816,-1.887" style="fill:#b2d4cf;fill-opacity:1;stroke:none;fill-rule:nonzero"/>
   </g>
  </g>
 </g>
 <g>
  
 </g>
</svg>
