<svg viewBox="0 0 48 48" xmlns="http://www.w3.org/2000/svg" xmlns:xlink="http://www.w3.org/1999/xlink">
  <linearGradient id="a" gradientTransform="matrix(0 -1 1 0 -.0000015 47.999998)" gradientUnits="userSpaceOnUse" x1="1" x2="47">
    <stop offset="0" stop-color="#8358b4"/>
    <stop offset="1" stop-color="#8d65ba"/>
  </linearGradient>
  <path d="m47 24c0 22.703-.297 23-23 23-22.703 0-23-.297-23-23 0-22.703.297-23 23-23 22.703 0 23 .297 23 23z" fill="url(#a)"/>
  <g opacity=".1" transform="translate(1 1)">
    <path d="m41.621 22.883c-.375-.527-.789-1.023-1.207-1.512-2.242-2.625-4.816-4.965-7.637-6.664-1.801-1.086-3.73-1.961-5.727-2.383-1.016-.211-2.01-.32-3.059-.324-1.016 0-2.031.113-3.047.324-2 .422-3.922 1.297-5.723 2.383-2.82 1.699-5.398 4.04-7.648 6.664-.414.488-.82.984-1.195 1.512-.512.703-.512 1.531 0 2.234 1.145 1.605 2.512 3.03 3.895 4.34 2.992 2.809 6.418 5.16 10.195 6.109 1.168.293 2.34.434 3.516.434 1.191 0 2.355-.141 3.523-.434 3.777-.949 7.207-3.301 10.203-6.109 1.391-1.305 2.754-2.734 3.902-4.34.504-.703.504-1.531 0-2.234m0 0"/>
    <use xlink:href="#b"/>
  </g>
  <path d="m41.621 22.883c-.375-.527-.789-1.023-1.207-1.512-2.242-2.625-4.816-4.965-7.637-6.664-1.801-1.086-3.73-1.961-5.727-2.383-1.016-.211-2.01-.32-3.059-.324-1.016 0-2.031.113-3.047.324-2 .422-3.922 1.297-5.723 2.383-2.82 1.699-5.398 4.04-7.648 6.664-.414.488-.82.984-1.195 1.512-.512.703-.512 1.531 0 2.234 1.145 1.605 2.512 3.03 3.895 4.34 2.992 2.809 6.418 5.16 10.195 6.109 1.168.293 2.34.434 3.516.434 1.191 0 2.355-.141 3.523-.434 3.777-.949 7.207-3.301 10.203-6.109 1.391-1.305 2.754-2.734 3.902-4.34.504-.703.504-1.531 0-2.234m0 0" fill="#ececeb"/>
  <path d="m33 24c0 4.969-4.03 9-9 9-4.969 0-9-4.03-9-9 0-4.969 4.03-9 9-9 4.969 0 9 4.03 9 9m0 0" fill="#4586f9"/>
  <path id="b" d="m29 24c0 2.758-2.238 4.996-5 4.996-2.762 0-5-2.238-5-4.996 0-2.762 2.238-5 5-5 2.762 0 5 2.238 5 5m0 0" fill="#141414"/>
  <path d="m28 22c0 1.105-.895 2-2 2-1.105 0-2-.895-2-2 0-1.105.895-2 2-2 1.105 0 2 .895 2 2m0 0" fill="#f9f9f9"/>
  <path d="m30.984 13.719l-16.25 19.27c.742.48 1.496.91 2.273 1.293l16.242-19.277c-.723-.504-1.563-.926-2.266-1.285m0 0" fill="#d5122d"/>
</svg>
