<svg xmlns="http://www.w3.org/2000/svg" xmlns:xlink="http://www.w3.org/1999/xlink" viewBox="0 0 48 48">
 <defs>
  <linearGradient id="linearGradient3764" x1="1" x2="47" gradientUnits="userSpaceOnUse" gradientTransform="matrix(0,-1,1,0,-1.5e-6,47.999998)">
   <stop style="stop-color:#66c3de;stop-opacity:1"/>
   <stop offset="1" style="stop-color:#77c9e2;stop-opacity:1"/>
  </linearGradient>
 </defs>
 <g>
  
  
  
 </g>
 <g>
  <path d="m 47,24 C 47,46.703 46.703,47 24,47 1.297,47 1,46.703 1,24 1,1.297 1.297,1 24,1 46.703,1 47,1.297 47,24 z" style="fill:url(#linearGradient3764);fill-opacity:1"/>
 </g>
 <g>
  <g>
   <g transform="translate(1,1)">
    <g style="opacity:0.1">
     <!-- color: #77c9e2 -->
     <g>
      <path d="m 15 14 l 12 -0.004 l 0 14 l -12 0 m 0 -14" style="fill:#000;fill-opacity:1;stroke:none;fill-rule:nonzero"/>
      <use xlink:href="#SVGCleanerId_0"/>
      <path d="m 14.5 11 c 0.828 0 1.5 0.793 1.5 1.773 l 0 22.453 c 0 0.98 -0.672 1.773 -1.5 1.773 c -0.828 0 -1.5 -0.793 -1.5 -1.773 l 0 -22.453 c 0 -0.98 0.672 -1.773 1.5 -1.773 m 0 0" style="fill:#000;fill-opacity:1;stroke:none;fill-rule:nonzero"/>
      <path d="m 25 13 l 0.07 13.996 l 11.93 0.004 l -6.125 -8 l 6.125 -6 m -12 0" style="fill:#000;fill-opacity:1;stroke:none;fill-rule:nonzero"/>
     </g>
    </g>
   </g>
  </g>
 </g>
 <g>
  <g>
   <!-- color: #77c9e2 -->
   <g>
    <path d="m 15 14 l 12 -0.004 l 0 14 l -12 0 m 0 -14" style="fill:#de493d;fill-opacity:1;stroke:none;fill-rule:nonzero"/>
    <path d="m 27 14 l -1.074 0 l -10.926 8.754 l 0 5.25 l 12 0 m 0 -14" id="SVGCleanerId_0" style="fill:#000;fill-opacity:0.2;stroke:none;fill-rule:nonzero"/>
    <path d="m 14.5 11 c 0.828 0 1.5 0.793 1.5 1.773 l 0 22.453 c 0 0.98 -0.672 1.773 -1.5 1.773 c -0.828 0 -1.5 -0.793 -1.5 -1.773 l 0 -22.453 c 0 -0.98 0.672 -1.773 1.5 -1.773 m 0 0" style="fill:#fbb23c;fill-opacity:1;stroke:none;fill-rule:nonzero"/>
    <path d="m 25 13 l 0.07 13.996 l 11.93 0.004 l -6.125 -8 l 6.125 -6 m -12 0" style="fill:#de493d;fill-opacity:1;stroke:none;fill-rule:nonzero"/>
   </g>
  </g>
 </g>
 <g>
  
 </g>
</svg>
