<svg xmlns="http://www.w3.org/2000/svg" viewBox="0 0 48 48">
 <defs>
  <linearGradient id="linearGradient3764" x1="1" x2="47" gradientUnits="userSpaceOnUse" gradientTransform="matrix(0,-1,1,0,-1.5e-6,47.999998)">
   <stop style="stop-color:#2cadc8;stop-opacity:1"/>
   <stop offset="1" style="stop-color:#35b6d3;stop-opacity:1"/>
  </linearGradient>
 </defs>
 <g>
  
  
  
 </g>
 <g>
  <path d="m 47,24 C 47,46.703 46.703,47 24,47 1.297,47 1,46.703 1,24 1,1.297 1.297,1 24,1 46.703,1 47,1.297 47,24 z" style="fill:url(#linearGradient3764);fill-opacity:1"/>
 </g>
 <g>
  <g>
   <g transform="translate(1,1)">
    <g style="opacity:0.1">
     <!-- color: #35b6d3 -->
     <g>
      <path d="m 13.438 13 c -0.809 0 -1.438 0.629 -1.438 1.438 l 0 15.875 c 0 0.809 0.629 1.438 1.438 1.438 l 4.563 0 l 0 5.25 l 6 -5.25 l 10.563 0 c 0.809 0 1.441 -0.629 1.441 -1.438 l 0 -15.875 c 0 -0.809 -0.66 -1.438 -1.473 -1.438 m -21.09 0" style="fill:#000;fill-opacity:1;stroke:none;fill-rule:nonzero"/>
     </g>
    </g>
   </g>
  </g>
 </g>
 <g>
  <g>
   <!-- color: #35b6d3 -->
   <g>
    <path d="m 13.438 13 c -0.809 0 -1.438 0.629 -1.438 1.438 l 0 15.875 c 0 0.809 0.629 1.438 1.438 1.438 l 4.563 0 l 0 5.25 l 6 -5.25 l 10.563 0 c 0.809 0 1.441 -0.629 1.441 -1.438 l 0 -15.875 c 0 -0.809 -0.66 -1.438 -1.473 -1.438 m -21.09 0" style="fill:#f9f9f9;fill-opacity:1;stroke:none;fill-rule:nonzero"/>
   </g>
  </g>
 </g>
 <g>
  
 </g>
</svg>
