<svg xmlns="http://www.w3.org/2000/svg" viewBox="0 0 48 48">
 <defs>
  <linearGradient id="linearGradient3764" x1="1" x2="47" gradientUnits="userSpaceOnUse" gradientTransform="matrix(0,-1,1,0,-1.5e-6,47.999998)">
   <stop style="stop-color:#e4e4e4;stop-opacity:1"/>
   <stop offset="1" style="stop-color:#eee;stop-opacity:1"/>
  </linearGradient>
 </defs>
 <g>
  
  
  
 </g>
 <g>
  <path d="m 47,24 C 47,46.703 46.703,47 24,47 1.297,47 1,46.703 1,24 1,1.297 1.297,1 24,1 46.703,1 47,1.297 47,24 z" style="fill:url(#linearGradient3764);fill-opacity:1"/>
 </g>
 <g>
  <g>
   <g transform="translate(1,1)">
    <g style="opacity:0.1">
     <!-- color: #eeeeee -->
     <g>
      <path d="m 9.25 12.996 c -0.691 0 -1.25 0.598 -1.25 1.336 l 0 2.668 l -3 0 l 0 9 l 5 0 l 0 2.664 c 0 0.738 0.512 1.332 1.145 1.332 l 13.711 0 c 0.633 0 1.146 -0.594 1.146 -1.332 l 0 -5.332 c 0 -0.738 -0.513 -1.336 -1.146 -1.336 l -13.711 0 c -0.633 0 -1.145 0.598 -1.145 1.336 l 0 1.668 l -4 0 l 0 -7 l 2 0 l 0 1.664 c 0 0.738 0.559 1.332 1.25 1.332 l 7.5 0 c 0.691 0 1.25 -0.594 1.25 -1.332 l 0 -5.332 c 0 -0.738 -0.559 -1.336 -1.25 -1.336 l -7.5 0 z m 12.75 1 c -0.551 0 -1 0.449 -1 1 l 0 4 c 0 0.555 0.449 1 1 1 l 6 0 c 0.551 0 1 -0.445 1 -1 l 0 -4 c 0 -0.551 -0.449 -1 -1 -1 l -6 0 z m 12 0 c -0.551 0 -1 0.449 -1 1 l 0 4 c 0 0.555 0.449 1 1 1 l 6 0 c 0.551 0 1 -0.445 1 -1 l 0 -4 c 0 -0.551 -0.449 -1 -1 -1 l -6 0 z m -4.75 8 c -0.691 0 -1.25 0.598 -1.25 1.336 l 0 5.332 c 0 0.738 0.559 1.332 1.25 1.332 l 7.5 0 c 0.691 0 1.25 -0.594 1.25 -1.332 l 0 -2.664 l 5 0 l 0 9 l -1 0 l 0 -2.668 c 0 -0.738 -0.559 -1.336 -1.25 -1.336 l -7.5 0 c -0.691 0 -1.25 0.598 -1.25 1.336 l 0 5.332 c 0 0.738 0.559 1.332 1.25 1.332 l 7.5 0 c 0.691 0 1.25 -0.594 1.25 -1.332 l 0 -1.664 l 2 0 l 0 -11 l -6 0 l 0 -1.668 c 0 -0.738 -0.559 -1.336 -1.25 -1.336 l -7.5 0 z m -19.25 10 c -0.551 0 -1 0.449 -1 1 l 0 4 c 0 0.555 0.449 1 1 1 l 6 0 c 0.551 0 1 -0.445 1 -1 l 0 -4 c 0 -0.551 -0.449 -1 -1 -1 l -6 0 z m 12 0 c -0.551 0 -1 0.449 -1 1 l 0 4 c 0 0.555 0.449 1 1 1 l 6 0 c 0.551 0 1 -0.445 1 -1 l 0 -4 c 0 -0.551 -0.449 -1 -1 -1 l -6 0 z" transform="translate(-1,-1)" style="fill:#000;fill-opacity:1;stroke:none;fill-rule:nonzero"/>
      <path d="m 9 12.996 l 6 0 c 0.551 0 1 0.449 1 1 l 0 4 c 0 0.555 -0.449 1 -1 1 l -6 0 c -0.551 0 -1 -0.445 -1 -1 l 0 -4 c 0 -0.551 0.449 -1 1 -1 m 0 0" style="fill:#000;fill-opacity:1;stroke:none;fill-rule:nonzero"/>
      <path d="m 11 21.996 l 12 0 c 0.551 0 1 0.449 1 1 l 0 4 c 0 0.555 -0.449 1 -1 1 l -12 0 c -0.551 0 -1 -0.445 -1 -1 l 0 -4 c 0 -0.551 0.449 -1 1 -1 m 0 0" style="fill:#000;fill-opacity:1;stroke:none;fill-rule:nonzero"/>
      <path d="m 29 21.996 l 6 0 c 0.551 0 1 0.449 1 1 l 0 4 c 0 0.555 -0.449 1 -1 1 l -6 0 c -0.551 0 -1 -0.445 -1 -1 l 0 -4 c 0 -0.551 0.449 -1 1 -1 m 0 0" style="fill:#000;fill-opacity:1;stroke:none;fill-rule:nonzero"/>
      <path d="m 33 30.996 l 6 0 c 0.551 0 1 0.449 1 1 l 0 4 c 0 0.555 -0.449 1 -1 1 l -6 0 c -0.551 0 -1 -0.445 -1 -1 l 0 -4 c 0 -0.551 0.449 -1 1 -1 m 0 0" style="fill:#000;fill-opacity:1;stroke:none;fill-rule:nonzero"/>
     </g>
    </g>
   </g>
  </g>
 </g>
 <g>
  <g>
   <!-- color: #eeeeee -->
   <g>
    <path d="m 8.25 11.996 l 7.5 0 c 0.691 0 1.25 0.598 1.25 1.336 l 0 5.332 c 0 0.738 -0.559 1.332 -1.25 1.332 l -7.5 0 c -0.691 0 -1.25 -0.594 -1.25 -1.332 l 0 -5.332 c 0 -0.738 0.559 -1.336 1.25 -1.336 m 0 0" style="fill:#c60606;fill-opacity:1;stroke:none;fill-rule:nonzero"/>
    <path d="m 9 12.996 l 6 0 c 0.551 0 1 0.449 1 1 l 0 4 c 0 0.555 -0.449 1 -1 1 l -6 0 c -0.551 0 -1 -0.445 -1 -1 l 0 -4 c 0 -0.551 0.449 -1 1 -1 m 0 0" style="fill:#ababab;fill-opacity:1;stroke:none;fill-rule:nonzero"/>
    <path d="m 21 12.996 l 6 0 c 0.551 0 1 0.449 1 1 l 0 4 c 0 0.555 -0.449 1 -1 1 l -6 0 c -0.551 0 -1 -0.445 -1 -1 l 0 -4 c 0 -0.551 0.449 -1 1 -1 m 0 0" style="fill:#ababab;fill-opacity:1;stroke:none;fill-rule:nonzero"/>
    <path d="m 33 12.996 l 6 0 c 0.551 0 1 0.449 1 1 l 0 4 c 0 0.555 -0.449 1 -1 1 l -6 0 c -0.551 0 -1 -0.445 -1 -1 l 0 -4 c 0 -0.551 0.449 -1 1 -1 m 0 0" style="fill:#ababab;fill-opacity:1;stroke:none;fill-rule:nonzero"/>
    <path d="m 10.145 20.996 l 13.711 0 c 0.633 0 1.145 0.598 1.145 1.336 l 0 5.332 c 0 0.738 -0.512 1.332 -1.145 1.332 l -13.711 0 c -0.633 0 -1.145 -0.594 -1.145 -1.332 l 0 -5.332 c 0 -0.738 0.512 -1.336 1.145 -1.336 m 0 0" style="fill:#c60606;fill-opacity:1;stroke:none;fill-rule:nonzero"/>
    <path d="m 11 21.996 l 12 0 c 0.551 0 1 0.449 1 1 l 0 4 c 0 0.555 -0.449 1 -1 1 l -12 0 c -0.551 0 -1 -0.445 -1 -1 l 0 -4 c 0 -0.551 0.449 -1 1 -1 m 0 0" style="fill:#ababab;fill-opacity:1;stroke:none;fill-rule:nonzero"/>
    <path d="m 28.25 20.996 l 7.5 0 c 0.691 0 1.25 0.598 1.25 1.336 l 0 5.332 c 0 0.738 -0.559 1.332 -1.25 1.332 l -7.5 0 c -0.691 0 -1.25 -0.594 -1.25 -1.332 l 0 -5.332 c 0 -0.738 0.559 -1.336 1.25 -1.336 m 0 0" style="fill:#4b9cf4;fill-opacity:1;stroke:none;fill-rule:nonzero"/>
    <path d="m 29 21.996 l 6 0 c 0.551 0 1 0.449 1 1 l 0 4 c 0 0.555 -0.449 1 -1 1 l -6 0 c -0.551 0 -1 -0.445 -1 -1 l 0 -4 c 0 -0.551 0.449 -1 1 -1 m 0 0" style="fill:#ababab;fill-opacity:1;stroke:none;fill-rule:nonzero"/>
    <path d="m 9 30.996 l 6 0 c 0.551 0 1 0.449 1 1 l 0 4 c 0 0.555 -0.449 1 -1 1 l -6 0 c -0.551 0 -1 -0.445 -1 -1 l 0 -4 c 0 -0.551 0.449 -1 1 -1 m 0 0" style="fill:#ababab;fill-opacity:1;stroke:none;fill-rule:nonzero"/>
    <path d="m 21 30.996 l 6 0 c 0.551 0 1 0.449 1 1 l 0 4 c 0 0.555 -0.449 1 -1 1 l -6 0 c -0.551 0 -1 -0.445 -1 -1 l 0 -4 c 0 -0.551 0.449 -1 1 -1 m 0 0" style="fill:#ababab;fill-opacity:1;stroke:none;fill-rule:nonzero"/>
    <path d="m 32.25 29.996 l 7.5 0 c 0.691 0 1.25 0.598 1.25 1.336 l 0 5.332 c 0 0.738 -0.559 1.332 -1.25 1.332 l -7.5 0 c -0.691 0 -1.25 -0.594 -1.25 -1.332 l 0 -5.332 c 0 -0.738 0.559 -1.336 1.25 -1.336 m 0 0" style="fill:#4b9cf4;fill-opacity:1;stroke:none;fill-rule:nonzero"/>
    <path d="m 33 30.996 l 6 0 c 0.551 0 1 0.449 1 1 l 0 4 c 0 0.555 -0.449 1 -1 1 l -6 0 c -0.551 0 -1 -0.445 -1 -1 l 0 -4 c 0 -0.551 0.449 -1 1 -1 m 0 0" style="fill:#ababab;fill-opacity:1;stroke:none;fill-rule:nonzero"/>
    <path d="m 8 17 l -3 0 l 0 7 l 5 0 l 0 1 l -6 0 l 0 -9 l 4 0 m 0 1" style="fill:#c60606;fill-opacity:1;stroke:none;fill-rule:nonzero"/>
    <path d="m 40.5 34 l 1.5 0 l 0 -9 l -6 0 l 0 -1 l 7 0 l 0 11 l -2.5 0 m 0 -1" style="fill:#4b9cf4;fill-opacity:1;stroke:none;fill-rule:nonzero"/>
   </g>
  </g>
 </g>
 <g>
  
 </g>
</svg>
