<svg viewBox="0 0 48 48" xmlns="http://www.w3.org/2000/svg" xmlns:xlink="http://www.w3.org/1999/xlink">
  <linearGradient id="a" gradientTransform="matrix(0 -1 1 0 -.0000015 47.999998)" gradientUnits="userSpaceOnUse" x1="1" x2="47">
    <stop offset="0" stop-color="#2cadc8"/>
    <stop offset="1" stop-color="#35b6d3"/>
  </linearGradient>
  <path d="m47 24c0 22.703-.297 23-23 23-22.703 0-23-.297-23-23 0-22.703.297-23 23-23 22.703 0 23 .297 23 23z" fill="url(#a)"/>
  <path d="m13.438 13c-.809 0-1.438.629-1.438 1.438v15.875c0 .809.629 1.438 1.438 1.438h4.563v5.25l6-5.25h10.563c.809 0 1.441-.629 1.441-1.438v-15.875c0-.809-.66-1.438-1.473-1.438m-21.09 0" opacity=".1" transform="translate(1 1)"/>
  <path d="m13.438 13c-.809 0-1.438.629-1.438 1.438v15.875c0 .809.629 1.438 1.438 1.438h4.563v5.25l6-5.25h10.563c.809 0 1.441-.629 1.441-1.438v-15.875c0-.809-.66-1.438-1.473-1.438m-21.09 0" fill="#f9f9f9"/>
</svg>
