<svg viewBox="0 0 48 48" xmlns="http://www.w3.org/2000/svg" xmlns:xlink="http://www.w3.org/1999/xlink">
  <linearGradient id="a" gradientTransform="matrix(0 -1 1 0 -.0000015 47.999998)" gradientUnits="userSpaceOnUse" x1="1" x2="47">
    <stop offset="0" stop-color="#e4e4e4"/>
    <stop offset="1" stop-color="#eee"/>
  </linearGradient>
  <path d="m47 24c0 22.703-.297 23-23 23-22.703 0-23-.297-23-23 0-22.703.297-23 23-23 22.703 0 23 .297 23 23z" fill="url(#a)"/>
  <path d="m23 12v11h-7v-4c0-3 3-7 7-7m2 0c4 0 7 4 7 7v4h-7m-9 2h16v4c0 4-3 7-8 7-5 0-8-3-8-7m0-4" opacity=".1" transform="translate(1 1)"/>
  <path d="m23 12v11h-7v-4c0-3 3-7 7-7m2 0c4 0 7 4 7 7v4h-7m-9 2h16v4c0 4-3 7-8 7-5 0-8-3-8-7m0-4" fill="#535353"/>
</svg>
