<svg viewBox="0 0 48 48" xmlns="http://www.w3.org/2000/svg" xmlns:xlink="http://www.w3.org/1999/xlink">
  <linearGradient id="a">
    <stop offset="0" stop-color="#ebd5ed"/>
    <stop offset="1" stop-color="#f2e3f3"/>
  </linearGradient>
  <linearGradient gradientTransform="translate(-4.160017 29.194915)" gradientUnits="userSpaceOnUse" x1="1" x2="47" xlink:href="#a"/>
  <linearGradient gradientTransform="translate(17.491525 30.101695)" gradientUnits="userSpaceOnUse" x1="0" x2="1" xlink:href="#a"/>
  <linearGradient id="b" gradientTransform="translate(-4.160017 29.194915)" gradientUnits="userSpaceOnUse" x2="0" xlink:href="#a" y1="47" y2="1"/>
  <path d="m24 1c22.703 0 23 .297 23 23 0 22.703-.297 23-23 23-22.703 0-23-.297-23-23 0-22.703.297-23 23-23z" fill="url(#b)"/>
  <path d="m14 13c-1.108 0-2 .892-2 2v16c0 1.108.892 2 2 2h7v1h-5v3h18v-3h-5v-1h7c1.108 0 2-.892 2-2v-16c0-1.108-.892-2-2-2z" opacity=".1"/>
  <path d="m13 12c-1.108 0-2 .892-2 2v16c0 1.108.892 2 2 2h7v1h-5v3h18v-3h-5v-1h7c1.108 0 2-.892 2-2v-16c0-1.108-.892-2-2-2z" fill="#f9f9f9"/>
  <path d="m13 13c-.554 0-1 .446-1 1v16c0 .554.446 1 1 1h8v2h6v-2h8c .554 0 1-.446 1-1v-16c0-.554-.446-1-1-1zm3 21v1h16v-1z" fill="#bd6bc2"/>
  <path d="m20 16a5 5 0 0 0-5 5 5 5 0 0 0  3.92 4.879 5 5 0 0 1-.92-2.879 5 5 0 0 1  5-5 5 5 0 0 1  1.08.12 5 5 0 0 0-4.08-2.12zm7.5 1.5l-.5 1.5-1.5.5 1.5.5.5 1.5.5-1.5 1.5-.5-1.5-.5zm3 5l-.5 1.5-1.5.5 1.5.5.5 1.5.5-1.5 1.5-.5-1.5-.5zm-6 1l-.5 1.5-1.5.5 1.5.5.5 1.5.5-1.5 1.5-.5-1.5-.5z" fill="#f9f9f9"/>
</svg>
