<svg viewBox="0 0 48 48" xmlns="http://www.w3.org/2000/svg" xmlns:xlink="http://www.w3.org/1999/xlink">
  <linearGradient id="a" gradientTransform="matrix(0 -1 1 0 -.0000015 47.999998)" gradientUnits="userSpaceOnUse" x1="1" x2="47">
    <stop offset="0" stop-color="#e4e4e4"/>
    <stop offset="1" stop-color="#eee"/>
  </linearGradient>
  <path d="m47 24c0 22.703-.297 23-23 23-22.703 0-23-.297-23-23 0-22.703.297-23 23-23 22.703 0 23 .297 23 23z" fill="url(#a)"/>
  <g opacity=".1" transform="translate(1 1)">
    <path d="m9.25 12.996c-.691 0-1.25.598-1.25 1.336v2.668h-3v9h5v2.664c0 .738.512 1.332 1.145 1.332h13.711c.633 0 1.146-.594 1.146-1.332v-5.332c0-.738-.513-1.336-1.146-1.336h-13.711c-.633 0-1.145.598-1.145 1.336v1.668h-4v-7h2v1.664c0 .738.559 1.332 1.25 1.332h7.5c.691 0 1.25-.594 1.25-1.332v-5.332c0-.738-.559-1.336-1.25-1.336zm12.75 1c-.551 0-1 .449-1 1v4c0 .555.449 1 1 1h6c .551 0 1-.445 1-1v-4c0-.551-.449-1-1-1zm12 0c-.551 0-1 .449-1 1v4c0 .555.449 1 1 1h6c .551 0 1-.445 1-1v-4c0-.551-.449-1-1-1zm-4.75 8c-.691 0-1.25.598-1.25 1.336v5.332c0 .738.559 1.332 1.25 1.332h7.5c.691 0 1.25-.594 1.25-1.332v-2.664h5v9h-1v-2.668c0-.738-.559-1.336-1.25-1.336h-7.5c-.691 0-1.25.598-1.25 1.336v5.332c0 .738.559 1.332 1.25 1.332h7.5c.691 0 1.25-.594 1.25-1.332v-1.664h2v-11h-6v-1.668c0-.738-.559-1.336-1.25-1.336zm-19.25 10c-.551 0-1 .449-1 1v4c0 .555.449 1 1 1h6c .551 0 1-.445 1-1v-4c0-.551-.449-1-1-1zm12 0c-.551 0-1 .449-1 1v4c0 .555.449 1 1 1h6c .551 0 1-.445 1-1v-4c0-.551-.449-1-1-1z" transform="translate(-1 -1)"/>
    <path d="m9 12.996h6c .551 0 1 .449 1 1v4c0 .555-.449 1-1 1h-6c-.551 0-1-.445-1-1v-4c0-.551.449-1 1-1m0 0"/>
    <path d="m11 21.996h12c .551 0 1 .449 1 1v4c0 .555-.449 1-1 1h-12c-.551 0-1-.445-1-1v-4c0-.551.449-1 1-1m0 0"/>
    <path d="m29 21.996h6c .551 0 1 .449 1 1v4c0 .555-.449 1-1 1h-6c-.551 0-1-.445-1-1v-4c0-.551.449-1 1-1m0 0"/>
    <path d="m33 30.996h6c .551 0 1 .449 1 1v4c0 .555-.449 1-1 1h-6c-.551 0-1-.445-1-1v-4c0-.551.449-1 1-1m0 0"/>
  </g>
  <path d="m8.25 11.996h7.5c.691 0 1.25.598 1.25 1.336v5.332c0 .738-.559 1.332-1.25 1.332h-7.5c-.691 0-1.25-.594-1.25-1.332v-5.332c0-.738.559-1.336 1.25-1.336m0 0" fill="#c60606"/>
  <path d="m9 12.996h6c .551 0 1 .449 1 1v4c0 .555-.449 1-1 1h-6c-.551 0-1-.445-1-1v-4c0-.551.449-1 1-1m0 0" fill="#ababab"/>
  <path d="m21 12.996h6c .551 0 1 .449 1 1v4c0 .555-.449 1-1 1h-6c-.551 0-1-.445-1-1v-4c0-.551.449-1 1-1m0 0" fill="#ababab"/>
  <path d="m33 12.996h6c .551 0 1 .449 1 1v4c0 .555-.449 1-1 1h-6c-.551 0-1-.445-1-1v-4c0-.551.449-1 1-1m0 0" fill="#ababab"/>
  <path d="m10.145 20.996h13.711c.633 0 1.145.598 1.145 1.336v5.332c0 .738-.512 1.332-1.145 1.332h-13.711c-.633 0-1.145-.594-1.145-1.332v-5.332c0-.738.512-1.336 1.145-1.336m0 0" fill="#c60606"/>
  <path d="m11 21.996h12c .551 0 1 .449 1 1v4c0 .555-.449 1-1 1h-12c-.551 0-1-.445-1-1v-4c0-.551.449-1 1-1m0 0" fill="#ababab"/>
  <path d="m28.25 20.996h7.5c.691 0 1.25.598 1.25 1.336v5.332c0 .738-.559 1.332-1.25 1.332h-7.5c-.691 0-1.25-.594-1.25-1.332v-5.332c0-.738.559-1.336 1.25-1.336m0 0" fill="#4b9cf4"/>
  <path d="m29 21.996h6c .551 0 1 .449 1 1v4c0 .555-.449 1-1 1h-6c-.551 0-1-.445-1-1v-4c0-.551.449-1 1-1m0 0" fill="#ababab"/>
  <path d="m9 30.996h6c .551 0 1 .449 1 1v4c0 .555-.449 1-1 1h-6c-.551 0-1-.445-1-1v-4c0-.551.449-1 1-1m0 0" fill="#ababab"/>
  <path d="m21 30.996h6c .551 0 1 .449 1 1v4c0 .555-.449 1-1 1h-6c-.551 0-1-.445-1-1v-4c0-.551.449-1 1-1m0 0" fill="#ababab"/>
  <path d="m32.25 29.996h7.5c.691 0 1.25.598 1.25 1.336v5.332c0 .738-.559 1.332-1.25 1.332h-7.5c-.691 0-1.25-.594-1.25-1.332v-5.332c0-.738.559-1.336 1.25-1.336m0 0" fill="#4b9cf4"/>
  <path d="m33 30.996h6c .551 0 1 .449 1 1v4c0 .555-.449 1-1 1h-6c-.551 0-1-.445-1-1v-4c0-.551.449-1 1-1m0 0" fill="#ababab"/>
  <path d="m8 17h-3v7h5v1h-6v-9h4m0 1" fill="#c60606"/>
  <path d="m40.5 34h1.5v-9h-6v-1h7v11h-2.5m0-1" fill="#4b9cf4"/>
</svg>
