<svg viewBox="0 0 48 48" xmlns="http://www.w3.org/2000/svg" xmlns:xlink="http://www.w3.org/1999/xlink">
  <linearGradient id="a" gradientTransform="matrix(0 -1 1 0 -.0000015 48)" gradientUnits="userSpaceOnUse" x1="1" x2="47">
    <stop offset="0" stop-color="#eeda32"/>
    <stop offset="1" stop-color="#efdc45"/>
  </linearGradient>
  <path d="m36.31 5c5.859 4.062 9.688 10.831 9.688 18.5 0 12.426-10.07 22.5-22.5 22.5-7.669 0-14.438-3.828-18.5-9.688 1.037 1.822 2.306 3.499 3.781 4.969 4.085 3.712 9.514 5.969 15.469 5.969 22.703 0 23-10.298 23-23 0-5.954-2.256-11.384-5.969-15.469-1.469-1.475-3.147-2.744-4.969-3.781zm4.969 3.781c3.854 4.113 6.219 9.637 6.219 15.719 0 22.703-.297 23-23 23-6.081 0-11.606-2.364-15.719-6.219 4.16 4.144 9.883 6.719 16.219 6.719 22.703 0 23-10.298 23-23 0-6.335-2.575-12.06-6.719-16.219z" opacity=".05"/>
  <path d="m41.28 8.781c3.712 4.085 5.969 9.514 5.969 15.469 0 22.703-.297 23-23 23-5.954 0-11.384-2.256-15.469-5.969 4.113 3.854 9.637 6.219 15.719 6.219 22.703 0 23-10.298 23-23 0-6.081-2.364-11.606-6.219-15.719z" opacity=".1"/>
  <path d="m31.25 2.375c8.615 3.154 14.75 11.417 14.75 21.13 0 12.426-10.07 22.5-22.5 22.5-9.708 0-17.971-6.135-21.12-14.75a23 23 0 0 0 44.875-7 23 23 0 0 0-16-21.875z" opacity=".2"/>
  <path d="m24 1c22.703 0 23 .297 23 23s-.297 23-23 23-23-.297-23-23 .297-23 23-23z" fill="url(#a)"/>
  <path d="m13.771 12c-.984 0-1.773.789-1.773 1.773l.002 18.227h10c0 3 0 3-2 5h-2v1h14v-1h-2c-2-2-2-2-2-5h10l-.002-18.227c0-.984-.787-1.773-1.771-1.773h-22.453z" opacity=".1" transform=""/>
  <path d="m12.773 11h22.453c.984 0 1.773.789 1.773 1.773v15.227l-13 2-13-2v-15.227c0-.984.789-1.773 1.773-1.773" fill="#546971"/>
  <path d="m21 31c0 3 0 3-2 5l5 1 5-1c-2-2-2-2-2-5l-3-3m-3 3" fill="#cfd6d6"/>
  <path d="m17 36h14v1h-14m0-1" fill="#dddee2"/>
  <path d="m11 28h26v3h-26m0-3" fill="#dddee2"/>
  <path d="m13 13h22v13h-22m0-13" fill="#27a9de"/>
  <path d="m13 13v5.219c.461.188.973.281 1.5.281 2.211 0 4-1.789 4-4 0-.527-.094-1.039-.281-1.5m-5.219 0" fill="#fff" fill-opacity=".2"/>
  <path d="m21 29h6v1h-6m0-1" fill="#546971"/>
  <path d="m18 20l-5 2.898v3.102h11.1v-2.102m-6.105-3.898" fill="#ddb842"/>
  <path d="m18 20l1 3-2 1.5 1.102 1.5h6v-2.102m-6.102-3.898" fill="#fbdb52"/>
  <path d="m29 17l-9 9h15v-5.445m-6-3.555" fill="#ddb842"/>
  <path d="m29 17l1.5 3-1.5 3.398 1.781 2.602h4.219v-5.445m-6-3.555" fill="#fbdb52"/>
  <path d="m13 13v3.813c.316.113.645.188 1 .188 1.656 0 3-1.344 3-3 0-.355-.074-.684-.188-1m-3.813 0" fill="#f9ec2f"/>
</svg>
