<svg viewBox="0 0 48 48" xmlns="http://www.w3.org/2000/svg" xmlns:xlink="http://www.w3.org/1999/xlink">
  <linearGradient id="a" gradientTransform="matrix(0 -1 1 0 -.0000015 47.999998)" gradientUnits="userSpaceOnUse" x1="1" x2="47">
    <stop offset="0" stop-color="#e0e6e8"/>
    <stop offset="1" stop-color="#ecf0f1"/>
  </linearGradient>
  <path d="m47 24c0 22.703-.297 23-23 23-22.703 0-23-.297-23-23 0-22.703.297-23 23-23 22.703 0 23 .297 23 23z" fill="url(#a)"/>
  <path d="m20 13c-3.867 0-7 3.133-7 7 0 3.527 2.608 6.436 6 6.922v6.262c-1.162.413-2 1.513-2 2.816 0 1.656 1.344 3 3 3 1.656 0 3-1.344 3-3 0-1.304-.838-2.403-2-2.816v-6.262c1.164-.167 2.233-.618 3.139-1.283l6.131 6.131c-.17.376-.27.791-.27 1.23 0 1.656 1.344 3 3 3 1.656 0 3-1.344 3-3 0-1.656-1.344-3-3-3-.439 0-.854.1-1.23.27l-6.131-6.131c.47-.64.836-1.359 1.068-2.139h6.477c.413 1.162 1.513 2 2.816 2 1.656 0 3-1.344 3-3 0-1.656-1.344-3-3-3-1.304 0-2.403.838-2.816 2h-6.184c0-3.867-3.133-7-7-7zm0 2c2.762 0 5 2.238 5 5 0 2.762-2.238 5-5 5-2.762 0-5-2.238-5-5 0-2.762 2.238-5 5-5zm16 4.5c.828 0 1.5.672 1.5 1.5 0 .828-.672 1.5-1.5 1.5-.828 0-1.5-.672-1.5-1.5 0-.828.672-1.5 1.5-1.5zm-3 12c .828 0 1.5.672 1.5 1.5 0 .828-.672 1.5-1.5 1.5-.828 0-1.5-.672-1.5-1.5 0-.828.672-1.5 1.5-1.5zm-13 3c .828 0 1.5.672 1.5 1.5 0 .828-.672 1.5-1.5 1.5-.828 0-1.5-.672-1.5-1.5 0-.828.672-1.5 1.5-1.5z" opacity=".1" transform=""/>
  <path d="m19 32c-1.656 0-3 1.344-3 3 0 1.656 1.344 3 3 3 1.656 0 3-1.344 3-3 0-1.656-1.344-3-3-3m0 1.5c.828 0 1.5.672 1.5 1.5 0 .828-.672 1.5-1.5 1.5-.828 0-1.5-.672-1.5-1.5 0-.828.672-1.5 1.5-1.5m0 0" fill="#3497db"/>
  <path d="m35 17c-1.656 0-3 1.344-3 3 0 1.656 1.344 3 3 3 1.656 0 3-1.344 3-3 0-1.656-1.344-3-3-3m0 1.5c.828 0 1.5.672 1.5 1.5 0 .828-.672 1.5-1.5 1.5-.828 0-1.5-.672-1.5-1.5 0-.828.672-1.5 1.5-1.5m0 0" fill="#fd7c60"/>
  <path d="m32 29c-1.656 0-3 1.344-3 3 0 1.656 1.344 3 3 3 1.656 0 3-1.344 3-3 0-1.656-1.344-3-3-3m0 1.5c.828 0 1.5.672 1.5 1.5 0 .828-.672 1.5-1.5 1.5-.828 0-1.5-.672-1.5-1.5 0-.828.672-1.5 1.5-1.5m0 0" fill="#f8c82d"/>
  <path d="m18 33v-8h2v8m-2 0" fill="#3497db"/>
  <path d="m25 19h8v2h-8m0-2" fill="#fd7c60"/>
  <path d="m30 31.5l1.5-1.5-7.5-7.5-1.5 1.5zm0 0" fill="#f8c82d"/>
  <path d="m19 12c-3.867 0-7 3.133-7 7 0 3.867 3.133 7 7 7 3.867 0 7-3.133 7-7 0-3.867-3.133-7-7-7m0 2c2.762 0 5 2.238 5 5 0 2.762-2.238 5-5 5-2.762 0-5-2.238-5-5 0-2.762 2.238-5 5-5m0 0" fill="#25cf7f"/>
</svg>
