<svg xmlns="http://www.w3.org/2000/svg" viewBox="0 0 48 48">
 <defs>
  <linearGradient id="linearGradient3764" x1="1" x2="47" gradientUnits="userSpaceOnUse" gradientTransform="matrix(0,-1,1,0,-1.5e-6,47.999998)">
   <stop style="stop-color:#e4e4e4;stop-opacity:1"/>
   <stop offset="1" style="stop-color:#eee;stop-opacity:1"/>
  </linearGradient>
 </defs>
 <g>
  
  
  
 </g>
 <g>
  <path d="m 47,24 C 47,46.703 46.703,47 24,47 1.297,47 1,46.703 1,24 1,1.297 1.297,1 24,1 46.703,1 47,1.297 47,24 z" style="fill:url(#linearGradient3764);fill-opacity:1"/>
 </g>
 <g>
  <g>
   <g transform="translate(1,1)">
    <g style="opacity:0.1">
     <!-- color: #eeeeee -->
     <g>
      <path d="m 39 24 c 0 8.285 -6.715 15 -15 15 c -8.285 0 -15 -6.715 -15 -15 c 0 -8.285 6.715 -15 15 -15 c 8.285 0 15 6.715 15 15 m 0 0" style="fill:#000;fill-opacity:0.886;stroke:none;fill-rule:nonzero"/>
     </g>
    </g>
   </g>
  </g>
 </g>
 <g>
  <g>
   <!-- color: #eeeeee -->
   <g>
    <path d="M 39,24 C 39,32.285 32.285,39 24,39 15.715,39 9,32.285 9,24 9,15.715 15.715,9 24,9 c 8.285,0 15,6.715 15,15 m 0,0" style="fill:#d0a15b;fill-opacity:1;stroke:none;fill-rule:nonzero"/>
    <path d="m 15.918 17.09 0 2 4 -1 m -4 -1" style="fill:#865b21;fill-opacity:1;stroke:none;fill-rule:nonzero"/>
    <path d="m 25.914 12.09 0 2 3 -1 m -3 -1" style="fill:#865b21;fill-opacity:1;stroke:none;fill-rule:nonzero"/>
    <path d="m 23.914 18.09 1 3 1.996 -2 m -2.996 -1" style="fill:#865b21;fill-opacity:1;stroke:none;fill-rule:nonzero"/>
    <path d="m 32.914 17.09 -1 4 3 -1 m -2 -3" style="fill:#865b21;fill-opacity:1;stroke:none;fill-rule:nonzero"/>
    <path d="m 16.914 22.09 0 4 2 -3 m -2 -1" style="fill:#865b21;fill-opacity:1;stroke:none;fill-rule:nonzero"/>
    <path d="m 21.914 28.09 0 1.996 3 -1 -2 -3 m -1 2" style="fill:#865b21;fill-opacity:1;stroke:none;fill-rule:nonzero"/>
    <path d="m 19.918 13.09 0 1 1 0.996 m -1 -1.996" style="fill:#865b21;fill-opacity:1;stroke:none;fill-rule:nonzero"/>
    <path d="m 29.918 24.08 -3 1 2 2 1 -2 0 -1 m 0.004 0" style="fill:#865b21;fill-opacity:1;stroke:none;fill-rule:nonzero"/>
    <path d="m 33.918 24.08 -2 5 1 -1.988 3 -1 m -2 -2" style="fill:#865b21;fill-opacity:1;stroke:none;fill-rule:nonzero"/>
    <path d="m 28.918 31.09 -2 1.996 3 2 2 -2 m -3 -1.996" style="fill:#865b21;fill-opacity:1;stroke:none;fill-rule:nonzero"/>
    <path d="m 20.918 33.08 -2 0 3 2 1 -1 m -2 -1" style="fill:#865b21;fill-opacity:1;stroke:none;fill-rule:nonzero"/>
    <path d="m 14.914 29.08 4 -0.988 0 1.988 -3 0 m -1 -1" style="fill:#865b21;fill-opacity:1;stroke:none;fill-rule:nonzero"/>
    <path d="m 11.918 22.09 0.996 4 0 -4 m -0.996 0" style="fill:#865b21;fill-opacity:1;stroke:none;fill-rule:nonzero"/>
   </g>
  </g>
 </g>
 <g>
  
 </g>
</svg>
