<svg viewBox="0 0 48 48" xmlns="http://www.w3.org/2000/svg" xmlns:xlink="http://www.w3.org/1999/xlink">
  <linearGradient id="a" gradientTransform="matrix(0 -1 1 0 -.0000015 47.999998)" gradientUnits="userSpaceOnUse" x1="1" x2="47">
    <stop offset="0" stop-color="#60e6cb"/>
    <stop offset="1" stop-color="#71e9d2"/>
  </linearGradient>
  <path d="m47 24c0 22.703-.297 23-23 23-22.703 0-23-.297-23-23 0-22.703.297-23 23-23 22.703 0 23 .297 23 23z" fill="url(#a)"/>
  <path d="m13.771 12c-.984 0-1.773.789-1.773 1.773l.002 18.227h10c0 3 0 3-2 5h-2v1h14v-1h-2c-2-2-2-2-2-5h10l-.002-18.227c0-.984-.787-1.773-1.771-1.773h-22.453z" opacity=".1" transform=""/>
  <path d="m12.773 11h22.453c.984 0 1.773.789 1.773 1.773v15.227l-13 2-13-2v-15.227c0-.984.789-1.773 1.773-1.773m0 0" fill="#697f8c"/>
  <path d="m21 31c0 3 0 3-2 5l5 1 5-1c-2-2-2-2-2-5l-3-3m-3 3" fill="#cfd6d6"/>
  <path d="m17 36h14v1h-14m0-1" fill="#e5ecec"/>
  <path d="m11 28h26v3h-26m0-3" fill="#e5ecec"/>
  <path d="m13 13h22v13h-22m0-13" fill="#dee5ea"/>
  <path d="m12.781 11c-.98 0-1.781.801-1.781 1.781v15.219h19l-12-17m-5.219 0" fill-opacity=".051"/>
  <path d="m21 29h6v1h-6m0-1" fill="#697f8c"/>
</svg>
