<svg xmlns="http://www.w3.org/2000/svg" viewBox="0 0 48 48">
 <defs>
  <linearGradient id="linearGradient3764" x1="1" x2="47" gradientUnits="userSpaceOnUse" gradientTransform="matrix(0,-1,1,0,-1.5e-6,47.999998)">
   <stop style="stop-color:#3d3d3d;stop-opacity:1"/>
   <stop offset="1" style="stop-color:#474747;stop-opacity:1"/>
  </linearGradient>
 </defs>
 <g>
  
  
  
 </g>
 <g>
  <path d="m 47,24 C 47,46.703 46.703,47 24,47 1.297,47 1,46.703 1,24 1,1.297 1.297,1 24,1 46.703,1 47,1.297 47,24 z" style="fill:url(#linearGradient3764);fill-opacity:1"/>
 </g>
 <g>
  <g>
   <g transform="translate(1,1)">
    <g style="opacity:0.1">
     <!-- color: #474747 -->
     <g>
      <path d="m 20 18 c -3.867 0 -7 3.133 -7 7 c 0 3.867 3.133 7 7 7 c 1.316 0 2.542 -0.369 3.594 -1 l 9.08 0 c 2.39 0 4.328 -1.937 4.328 -4.324 l 0 -3.348 c 0 -2.39 -1.937 -4.328 -4.328 -4.328 l -9.08 0 c -1.051 -0.631 -2.278 -1 -3.594 -1 z" transform="translate(-1,-1)"/>
     </g>
    </g>
   </g>
  </g>
 </g>
 <g>
  <g>
   <!-- color: #474747 -->
   <g>
    <path d="m 20.328,18 11.344,0 C 34.063,18 36,19.938 36,22.328 l 0,3.348 C 36,28.063 34.062,30 31.672,30 L 20.328,30 C 17.937,30 16,28.062 16,25.676 l 0,-3.348 C 16,19.937 17.938,18 20.328,18 m 0,0" style="fill:#f9f9f9;fill-opacity:1;stroke:none;fill-rule:nonzero"/>
    <path d="m 26 24 c 0 3.867 -3.133 7 -7 7 -3.867 0 -7 -3.133 -7 -7 0 -3.867 3.133 -7 7 -7 3.867 0 7 3.133 7 7 m 0 0" style="fill:#aaa;fill-opacity:1;stroke:none;fill-rule:nonzero"/>
    <path d="m 23 24 c 0 2.211 -1.789 4 -4 4 -2.211 0 -4 -1.789 -4 -4 0 -2.211 1.789 -4 4 -4 2.211 0 4 1.789 4 4 m 0 0" style="fill:#d04536;fill-opacity:1;stroke:none;fill-rule:nonzero"/>
   </g>
  </g>
 </g>
 <g>
  
 </g>
</svg>
