<svg viewBox="0 0 48 48" xmlns="http://www.w3.org/2000/svg" xmlns:xlink="http://www.w3.org/1999/xlink">
  <linearGradient id="a" gradientTransform="matrix(0 -1 1 0 -.0000015 47.999998)" gradientUnits="userSpaceOnUse" x1="1" x2="47">
    <stop offset="0" stop-color="#18aa86"/>
    <stop offset="1" stop-color="#1abc95"/>
  </linearGradient>
  <path d="m47 24c0 22.703-.297 23-23 23-22.703 0-23-.297-23-23 0-22.703.297-23 23-23 22.703 0 23 .297 23 23z" fill="url(#a)"/>
  <g opacity=".1" transform="translate(1 1)">
    <path d="m24 6c9.941 0 18 8.06 18 18 0 9.941-8.06 18-18 18-9.941 0-18-8.06-18-18 0-9.941 8.06-18 18-18m0 0" fill-rule="evenodd"/>
    <path d="m26 24c0 1.105-.895 2-2 2-1.105 0-2-.895-2-2 0-1.105.895-2 2-2 1.105 0 2 .895 2 2m0 0"/>
  </g>
  <path d="m24 6c9.941 0 18 8.06 18 18 0 9.941-8.06 18-18 18-9.941 0-18-8.06-18-18 0-9.941 8.06-18 18-18m0 0" fill="#ecedf1" fill-rule="evenodd"/>
  <path d="m22.473 23.738l-5.211-5.211c-.348-.344-.348-.906 0-1.25l.039-.043c.344-.344.906-.344 1.254 0l5.211 5.211c.344.348.344.91 0 1.254l-.043.039c-.344.348-.906.348-1.25 0m0 0" fill="#2c3d4d"/>
  <path d="m23.887 23h13.227c.492 0 .887.395.887.887v.227c0 .488-.395.887-.887.887h-13.227c-.488 0-.887-.398-.887-.887v-.227c0-.492.398-.887.887-.887m0 0" fill="#2f8ecf"/>
  <path d="m16.555 36.28l7.105-13.09c.117-.215.383-.285.59-.16l.063.039c.207.129.281.406.164.621l-7.105 13.09c-.117.215-.379.285-.59.16l-.059-.039c-.211-.129-.285-.406-.168-.621m0 0" fill="#e45344"/>
  <path d="m28 24c0 2.211-1.789 4-4 4-2.211 0-4-1.789-4-4 0-2.211 1.789-4 4-4 2.211 0 4 1.789 4 4m0 0" fill="#34495b"/>
  <path d="m26 24c0 1.105-.895 2-2 2-1.105 0-2-.895-2-2 0-1.105.895-2 2-2 1.105 0 2 .895 2 2m0 0" fill="#ecedf1"/>
</svg>
