<svg viewBox="0 0 48 48" xmlns="http://www.w3.org/2000/svg" xmlns:xlink="http://www.w3.org/1999/xlink">
  <linearGradient id="a" gradientTransform="matrix(0 -1 1 0 -.0000015 47.999998)" gradientUnits="userSpaceOnUse" x1="1" x2="47">
    <stop offset="0" stop-color="#2481a8"/>
    <stop offset="1" stop-color="#288eb8"/>
  </linearGradient>
  <path d="m47 24c0 22.703-.297 23-23 23-22.703 0-23-.297-23-23 0-22.703.297-23 23-23 22.703 0 23 .297 23 23z" fill="url(#a)"/>
  <g opacity=".1" transform="translate(1 1)">
    <path d="m33.723 17.801l-9.707 1.684-9.656-1.703c-1.344-.215-1.773.91-.879 1.316l7.535 2.387v5.5l-2.691 7.742c-.309.965.848 1.789 1.398.879l4.293-8.621 4.242 8.605c.613.82 1.93.395 1.445-.781l-2.688-7.824v-5.5l7.637-2.414c.719-.375.234-1.441-.93-1.27m0 0"/>
    <path d="m27.02 14.984c0 1.656-1.344 3-3 3-1.656 0-3-1.344-3-3 0-1.656 1.344-3 3-3 1.656 0 3 1.344 3 3m0 0"/>
  </g>
  <path d="m33.723 17.801l-9.707 1.684-9.656-1.703c-1.344-.215-1.773.91-.879 1.316l7.535 2.387v5.5l-2.691 7.742c-.309.965.848 1.789 1.398.879l4.293-8.621 4.242 8.605c.613.82 1.93.395 1.445-.781l-2.688-7.824v-5.5l7.637-2.414c.719-.375.234-1.441-.93-1.27m0 0" fill="#eeeae6"/>
  <path d="m27.02 14.984c0 1.656-1.344 3-3 3-1.656 0-3-1.344-3-3 0-1.656 1.344-3 3-3 1.656 0 3 1.344 3 3m0 0" fill="#eeeae6"/>
</svg>
