<svg viewBox="0 0 48 48" xmlns="http://www.w3.org/2000/svg" xmlns:xlink="http://www.w3.org/1999/xlink">
  <linearGradient id="a" gradientTransform="matrix(0 -1 1 0 -.0000015 47.999998)" gradientUnits="userSpaceOnUse" x1="1" x2="47">
    <stop offset="0" stop-color="#66c3de"/>
    <stop offset="1" stop-color="#77c9e2"/>
  </linearGradient>
  <path d="m47 24c0 22.703-.297 23-23 23-22.703 0-23-.297-23-23 0-22.703.297-23 23-23 22.703 0 23 .297 23 23z" fill="url(#a)"/>
  <g opacity=".1" transform="translate(1 1)">
    <path d="m15 14l12-.004v14h-12m0-14"/>
    <use xlink:href="#b"/>
    <path d="m14.5 11c .828 0 1.5.793 1.5 1.773v22.453c0 .98-.672 1.773-1.5 1.773-.828 0-1.5-.793-1.5-1.773v-22.453c0-.98.672-1.773 1.5-1.773m0 0"/>
    <path d="m25 13l .07 13.996 11.93.004-6.125-8 6.125-6m-12 0"/>
  </g>
  <path d="m15 14l12-.004v14h-12m0-14" fill="#de493d"/>
  <path id="b" d="m27 14h-1.074l-10.926 8.754v5.25h12m0-14" fill-opacity=".2"/>
  <path d="m14.5 11c .828 0 1.5.793 1.5 1.773v22.453c0 .98-.672 1.773-1.5 1.773-.828 0-1.5-.793-1.5-1.773v-22.453c0-.98.672-1.773 1.5-1.773m0 0" fill="#fbb23c"/>
  <path d="m25 13l .07 13.996 11.93.004-6.125-8 6.125-6m-12 0" fill="#de493d"/>
</svg>
