<svg viewBox="0 0 48 48" xmlns="http://www.w3.org/2000/svg" xmlns:xlink="http://www.w3.org/1999/xlink">
  <linearGradient id="a" gradientTransform="matrix(0 -1 1 0 -.0000015 47.999998)" gradientUnits="userSpaceOnUse" x1="1" x2="47">
    <stop offset="0" stop-color="#51c8d3"/>
    <stop offset="1" stop-color="#61ced7"/>
  </linearGradient>
  <path d="m47 24c0 22.703-.297 23-23 23-22.703 0-23-.297-23-23 0-22.703.297-23 23-23 22.703 0 23 .297 23 23z" fill="url(#a)"/>
  <g opacity=".1" transform="translate(1 1)">
    <path d="m17.875 12c-.492 0-.875.383-.875.875v5.125h-3.227c-.98 0-1.773.793-1.773 1.773v12.453c0 .98.793 1.771 1.773 1.771h3.225v3.115c0 .492.397.887.889.887h14.227c.492 0 .887-.395.887-.887v-3.115h3.227c.98 0 1.771-.791 1.771-1.771v-12.453c0-.98-.791-1.773-1.771-1.773h-3.227v-3l-3-3h-12.12z" transform="translate(-1 -1)"/>
    <use xlink:href="#b"/>
  </g>
  <path d="m12.773 17h22.453c.98 0 1.773.793 1.773 1.773v12.453c0 .98-.793 1.773-1.773 1.773h-22.453c-.98 0-1.773-.793-1.773-1.773v-12.453c0-.98.793-1.773 1.773-1.773m0 0" fill="#515462"/>
  <path d="m11 25v6.219c0 .98.801 1.781 1.781 1.781h22.438c.98 0 1.781-.801 1.781-1.781v-6.219m-26 0" fill="#212c3c"/>
  <path d="m15 20h18v2h-18m0-2" fill="#212c3c"/>
  <path d="m16.875 11c-.492 0-.875.383-.875.875v9.125h16v-7l-3-3m-12.12 0" fill="#ececde"/>
  <path d="m15 28h18v2h-18m0-2" fill="#515462"/>
  <path d="m32 29v7.113c0 .492-.395.887-.887.887h-14.227c-.492 0-.887-.395-.887-.887v-7.113m16 0" fill="#ececde"/>
  <path d="m29 11v3h3m-3-3" fill="#fff"/>
  <path id="b" d="m29 14h3v3m-3-3" fill-opacity=".2"/>
  <path d="m19 13h9v1h-9m0-1" fill="#696e78" fill-opacity=".702"/>
  <path d="m19 15h9v1h-9m0-1" fill="#696e78" fill-opacity=".702"/>
  <path d="m19 17h9v1h-9m0-1" fill="#696e78" fill-opacity=".702"/>
  <path d="m19 19h6v1h-6m0-1" fill="#696e78" fill-opacity=".702"/>
</svg>
