<svg xmlns="http://www.w3.org/2000/svg" viewBox="0 0 48 48">
 <defs>
  <linearGradient id="linearGradient3825" x1="1" x2="47" gradientUnits="userSpaceOnUse">
   <stop style="stop-color:#163b5e;stop-opacity:1"/>
   <stop offset="1" style="stop-color:#1a456e;stop-opacity:1"/>
  </linearGradient>
 </defs>
 <g>
  
  
  
 </g>
 <g transform="matrix(0,-1,1,0,0,48)" style="fill:url(#linearGradient3825);fill-opacity:1">
  <path d="M 24,1 C 46.703,1 47,1.297 47,24 47,46.703 46.703,47 24,47 1.297,47 1,46.703 1,24 1,1.297 1.297,1 24,1 z"/>
 </g>
 <g transform="translate(1,1)" style="fill:#000;opacity:0.1;fill-opacity:1">
  <g>
   <!-- color: #4d8bc7 -->
   <g>
    <path d="m 15 11 0 2 c 0 0.425 2 0.598 3 0.598 l 0 20.402 c -1 0 -3 0.004 -3 1 l 0 2 10 0 0 -2 c 0 -0.996 -2 -1 -3 -1 l 0 -6 4 0 c 12 0 12 -17 0 -17 m -4 3 c 1.512 0 2.504 0 4 0 3 0 6 2.465 6 5.5 0 3.035 -2 5.5 -6 5.5 -1.5 0 -2.484 0 -4 0" style="stroke:none;fill-rule:nonzero"/>
   </g>
  </g>
 </g>
 <g style="fill:#fff;opacity:1;fill-opacity:1">
  <g>
   <!-- color: #4d8bc7 -->
   <g>
    <path d="m 15 11 0 2 c 0 0.425 2 0.598 3 0.598 l 0 20.402 c -1 0 -3 0.004 -3 1 l 0 2 10 0 0 -2 c 0 -0.996 -2 -1 -3 -1 l 0 -6 4 0 c 12 0 12 -17 0 -17 m -4 3 c 1.512 0 2.504 0 4 0 3 0 6 2.465 6 5.5 0 3.035 -2 5.5 -6 5.5 -1.5 0 -2.484 0 -4 0" style="opacity:1;stroke:none;fill-rule:nonzero"/>
   </g>
  </g>
 </g>
 <g>
  
 </g>
</svg>
