<svg viewBox="0 0 48 48" xmlns="http://www.w3.org/2000/svg" xmlns:xlink="http://www.w3.org/1999/xlink">
  <linearGradient id="a" gradientTransform="matrix(0 -1 1 0 -.0000015 47.999998)" gradientUnits="userSpaceOnUse" x1="1" x2="47">
    <stop offset="0" stop-color="#e4e4e4"/>
    <stop offset="1" stop-color="#eee"/>
  </linearGradient>
  <path d="m47 24c0 22.703-.297 23-23 23-22.703 0-23-.297-23-23 0-22.703.297-23 23-23 22.703 0 23 .297 23 23z" fill="url(#a)"/>
  <g fill-rule="evenodd" transform="translate(-.99962207 3)">
    <g transform="matrix(3.543307 0 0 3.543307 -.000496 -.0001639)">
      <path d="m3.951 3.669v.847l.282.282v-.282h3.951v.282l.282-.282v-.847zm5.503 0c-.235 0-.423.189-.423.423 0 .235.189.423.423.423h.847c.235 0 .423-.189.423-.423 0-.235-.189-.423-.423-.423zm-5.08 1.411c-.235 0-.423.189-.423.423 0 .235.189.423.423.423h1.411c.235 0 .423-.189.423-.423 0-.235-.189-.423-.423-.423zm2.399 0v .847l.282.282v-.282h3.387v.282l.282-.282v-.847zm-2.399 1.411c-.235 0-.423.189-.423.423 0 .235.189.423.423.423h3.104c.235 0 .423-.189.423-.423 0-.235-.189-.423-.423-.423zm4.516 0c-.235 0-.423.189-.423.423 0 .235.189.423.423.423h1.411c.235 0 .423-.189.423-.423 0-.235-.189-.423-.423-.423zm1.411 1.411l-.423.423.423.423.423-.423zm-6.35 0v .847l.282.282v-.282h2.822v.282l.282-.282v-.847zm4.374 0c-.235 0-.423.189-.423.423 0 .235.189.423.423.423h.564c.235 0 .423-.189.423-.423 0-.235-.189-.423-.423-.423z" opacity=".1"/>
      <path d="m3.951 4.516l-.282-.282v-.847h4.516v.847l-.282.282v-.282h-3.951" fill="#5f83ab"/>
      <path d="m9.596 8.04l.423-.423.423.423-.423.423" fill="#9d2b2b"/>
      <path d="m6.773 5.927l-.282-.282v-.847h3.952v.847l-.282.282v-.282h-3.387" fill="#5f83ab"/>
      <path d="m3.951 8.749l-.282-.282v-.847h3.387v.847l-.282.282v-.282h-2.822" fill="#5f83ab"/>
    </g>
    <rect fill="#b06868" height="3" rx="1.5" width="6" x="31" y="12"/>
    <rect fill="#b06868" height="3" rx="1.5" width="8" x="13" y="17"/>
    <rect fill="#b06868" height="3" rx="1.5" width="14" x="13" y="22"/>
    <rect fill="#b06868" height="3" rx="1.5" width="8" x="29" y="22"/>
    <rect fill="#b06868" height="3" rx="1.5" width="5" x="27" y="27"/>
  </g>
</svg>
