<svg xmlns="http://www.w3.org/2000/svg" viewBox="0 0 48 48">
 <defs>
  <linearGradient id="linearGradient3764" x1="1" x2="47" gradientUnits="userSpaceOnUse" gradientTransform="matrix(0,-1,1,0,-1.5e-6,47.999998)">
   <stop style="stop-color:#e4e4e4;stop-opacity:1"/>
   <stop offset="1" style="stop-color:#eee;stop-opacity:1"/>
  </linearGradient>
 </defs>
 <g>
  
  
  
 </g>
 <g>
  <path d="m 47,24 C 47,46.703 46.703,47 24,47 1.297,47 1,46.703 1,24 1,1.297 1.297,1 24,1 46.703,1 47,1.297 47,24 z" style="fill:url(#linearGradient3764);fill-opacity:1"/>
 </g>
 <g>
  <g>
   <g transform="translate(1,1)">
    <g style="opacity:0.1">
     <!-- color: #eeeeee -->
     <g>
      <path d="m 23.625 12 c -0.906 0 -1.625 0.762 -1.625 1.719 l 0 16.563 c 0 0.957 0.719 1.719 1.625 1.719 l 0.75 0 c 0.906 0 1.625 -0.762 1.625 -1.719 l 0 -4.281 l -2 0 l 0 -1 l 2 0 l 0 -2 l -2 0 l 0 -1 l 2 0 l 0 -2 l -2 0 l 0 -1 l 2 0 l 0 -2 l -2 0 l 0 -1 l 2 0 l 0 -2.281 c 0 -0.957 -0.719 -1.719 -1.625 -1.719 m -0.75 0" style="fill:#000;fill-opacity:1;stroke:none;fill-rule:nonzero"/>
      <path d="m 28 32 c 0.023 1.445 -0.73 2.789 -1.98 3.52 c -1.246 0.73 -2.793 0.73 -4.04 0 c -1.25 -0.73 -2 -2.074 -1.98 -3.52 c -0.023 -1.445 0.73 -2.793 1.98 -3.523 c 1.246 -0.73 2.793 -0.73 4.04 0 c 1.25 0.73 2 2.078 1.98 3.523 m 0 0" style="fill:#000;fill-opacity:1;stroke:none;fill-rule:nonzero"/>
     </g>
    </g>
   </g>
  </g>
 </g>
 <g>
  <g>
   <!-- color: #eeeeee -->
   <g>
    <path d="m 23.625 12 c -0.906 0 -1.625 0.762 -1.625 1.719 l 0 16.563 c 0 0.957 0.719 1.719 1.625 1.719 l 0.75 0 c 0.906 0 1.625 -0.762 1.625 -1.719 l 0 -4.281 l -2 0 l 0 -1 l 2 0 l 0 -2 l -2 0 l 0 -1 l 2 0 l 0 -2 l -2 0 l 0 -1 l 2 0 l 0 -2 l -2 0 l 0 -1 l 2 0 l 0 -2.281 c 0 -0.957 -0.719 -1.719 -1.625 -1.719 m -0.75 0" style="fill:#ec3c52;fill-opacity:1;stroke:none;fill-rule:nonzero"/>
    <path d="m 28 32 c 0.023 1.445 -0.73 2.789 -1.98 3.52 c -1.246 0.73 -2.793 0.73 -4.04 0 c -1.25 -0.73 -2 -2.074 -1.98 -3.52 c -0.023 -1.445 0.73 -2.793 1.98 -3.523 c 1.246 -0.73 2.793 -0.73 4.04 0 c 1.25 0.73 2 2.078 1.98 3.523 m 0 0" style="fill:#3bb9dd;fill-opacity:1;stroke:none;fill-rule:nonzero"/>
   </g>
  </g>
 </g>
 <g>
  
 </g>
</svg>
