<svg viewBox="0 0 48 48" xmlns="http://www.w3.org/2000/svg" xmlns:xlink="http://www.w3.org/1999/xlink">
  <linearGradient id="a" gradientTransform="matrix(0 -1 1 0 -.0000015 47.999998)" gradientUnits="userSpaceOnUse" x1="1" x2="47">
    <stop offset="0" stop-color="#e4e4e4"/>
    <stop offset="1" stop-color="#eee"/>
  </linearGradient>
  <path d="m47 24c0 22.703-.297 23-23 23-22.703 0-23-.297-23-23 0-22.703.297-23 23-23 22.703 0 23 .297 23 23z" fill="url(#a)"/>
  <path d="m25.21 10a14 14 0 0 0-10.1 4.098l9.898 9.9 4.789-13.156a14 14 0 0 0-4.584-.842zm6.24 1.781l-4.445 12.217h13a13 13 0 0 0-8.559-12.215m-17.346 4.316a14 14 0 0 0-2.225 16.9 14 14 0 0 0  15.748 6.523 14 14 0 0 0  10.377-13.523h-14z" fill-opacity=".098" fill-rule="evenodd"/>
  <path d="m37 25a14 14 0 0 1-10.377 13.523 14 14 0 0 1-15.747-6.523 14 14 0 0 1  2.224-16.9l9.9 9.9" fill="#e35a53" fill-rule="evenodd"/>
  <path d="m14.1 13.1a14 14 0 0 1 14.689-3.256l-4.789 13.156" fill="#60c859" fill-rule="evenodd"/>
  <path d="m30.446 10.784a13 13 0 0 1 8.554 12.216h-13z" fill="#369ccf" fill-rule="evenodd"/>
</svg>
