<svg viewBox="0 0 48 48" xmlns="http://www.w3.org/2000/svg" xmlns:xlink="http://www.w3.org/1999/xlink">
  <linearGradient id="a" gradientUnits="userSpaceOnUse" x1="1" x2="47">
    <stop offset="0" stop-color="#6d4b13"/>
    <stop offset="1" stop-color="#7e5716"/>
  </linearGradient>
  <path d="m24 1c22.703 0 23 .297 23 23 0 22.703-.297 23-23 23-22.703 0-23-.297-23-23 0-22.703.297-23 23-23z" fill="url(#a)" transform="matrix(0 -1 1 0 0 48)"/>
  <path d="m14.471 31.922l14.89 6.078c-.359-2.282-2.572-3.207-.498-7.269 2.106.18 8.387-.371 8.13-4.668.041-2.666-1.714-2.994-4.165-3.02l-3.311-3.805c1.327-.74 3.704-1.163 3.551-2.35-.223-1.013-2.555-.741-4.929-.814-.588-1.52-3.907-2.393-8.684-.358.088-.067-.584-.312-.477-.38 1.588-1.017 5.488-2.19 4.31-2.928-.315-.654-2.41-.822-4.517 1.942-1.052-.985-2.075-.025-1.651.752-3.581-.008-4.55 2.629-3.956 2.788 1.085 1.606 3.715-.931 4.361-1.754l.81.658c-1.167 1.859-3.086 2.625-2.897 6.454-.407.995.146 1.796.53 2.632.451 1.543-.845 4.02-1.526 6.172z" opacity=".1"/>
  <path d="m13.471 30.922l14.89 6.078c-.359-2.282-2.572-3.207-.498-7.269 2.106.18 8.387-.371 8.13-4.668.041-2.666-1.714-2.994-4.165-3.02l-3.311-3.805c1.327-.74 3.704-1.163 3.551-2.35-.223-1.013-2.555-.741-4.929-.814-.588-1.52-3.907-2.393-8.684-.358.088-.067-.584-.312-.477-.38 1.588-1.017 5.488-2.19 4.31-2.928-.315-.654-2.41-.822-4.517 1.942-1.052-.985-2.075-.025-1.651.752-3.581-.008-4.55 2.629-3.956 2.788 1.085 1.606 3.715-.931 4.361-1.754l.81.658c-1.167 1.859-3.086 2.625-2.897 6.454-.407.995.146 1.796.53 2.632.451 1.543-.845 4.02-1.526 6.172z" fill="#61a159"/>
</svg>
