<svg xmlns="http://www.w3.org/2000/svg" viewBox="0 0 48 48">
 <defs>
  <linearGradient id="linearGradient3808" x1="1" x2="47" gradientUnits="userSpaceOnUse">
   <stop style="stop-color:#6d4b13;stop-opacity:1"/>
   <stop offset="1" style="stop-color:#7e5716;stop-opacity:1"/>
  </linearGradient>
 </defs>
 <g>
  
  
  
 </g>
 <g transform="matrix(0,-1,1,0,0,48)" style="fill:url(#linearGradient3808);fill-opacity:1">
  <path d="M 24,1 C 46.703,1 47,1.297 47,24 47,46.703 46.703,47 24,47 1.297,47 1,46.703 1,24 1,1.297 1.297,1 24,1 z"/>
 </g>
 <g>
  
 </g>
 <g transform="matrix(1,0,0,1.0002,-32.5625,-8.3162994)">
  <g>
   <!-- color: #437cb7 -->
  </g>
 </g>
 <path d="m 14.471 31.922 14.89 6.078 c -0.359 -2.282 -2.572 -3.207 -0.498 -7.269 2.106 0.18 8.387 -0.371 8.13 -4.668 0.041 -2.666 -1.714 -2.994 -4.165 -3.02 l -3.311 -3.805 c 1.327 -0.74 3.704 -1.163 3.551 -2.35 -0.223 -1.013 -2.555 -0.741 -4.929 -0.814 -0.588 -1.52 -3.907 -2.393 -8.684 -0.358 0.088 -0.067 -0.584 -0.312 -0.477 -0.38 1.588 -1.017 5.488 -2.19 4.31 -2.928 -0.315 -0.654 -2.41 -0.822 -4.517 1.942 -1.052 -0.985 -2.075 -0.025 -1.651 0.752 -3.581 -0.008 -4.55 2.629 -3.956 2.788 1.085 1.606 3.715 -0.931 4.361 -1.754 l 0.81 0.658 c -1.167 1.859 -3.086 2.625 -2.897 6.454 -0.407 0.995 0.146 1.796 0.53 2.632 0.451 1.543 -0.845 4.02 -1.526 6.172 z" style="fill:#000;opacity:0.1;fill-opacity:1;stroke:none"/>
 <path d="m 13.471 30.922 14.89 6.078 c -0.359 -2.282 -2.572 -3.207 -0.498 -7.269 2.106 0.18 8.387 -0.371 8.13 -4.668 0.041 -2.666 -1.714 -2.994 -4.165 -3.02 l -3.311 -3.805 c 1.327 -0.74 3.704 -1.163 3.551 -2.35 -0.223 -1.013 -2.555 -0.741 -4.929 -0.814 -0.588 -1.52 -3.907 -2.393 -8.684 -0.358 0.088 -0.067 -0.584 -0.312 -0.477 -0.38 1.588 -1.017 5.488 -2.19 4.31 -2.928 -0.315 -0.654 -2.41 -0.822 -4.517 1.942 -1.052 -0.985 -2.075 -0.025 -1.651 0.752 -3.581 -0.008 -4.55 2.629 -3.956 2.788 1.085 1.606 3.715 -0.931 4.361 -1.754 l 0.81 0.658 c -1.167 1.859 -3.086 2.625 -2.897 6.454 -0.407 0.995 0.146 1.796 0.53 2.632 0.451 1.543 -0.845 4.02 -1.526 6.172 z" style="fill:#61a159;fill-opacity:1;stroke:none"/>
</svg>
