<svg viewBox="0 0 48 48" xmlns="http://www.w3.org/2000/svg" xmlns:xlink="http://www.w3.org/1999/xlink">
  <linearGradient id="a" gradientUnits="userSpaceOnUse" x2="0" y1="47" y2="1">
    <stop offset="0" stop-color="#2483cc"/>
    <stop offset="1" stop-color="#50a7e9"/>
  </linearGradient>
  <path d="m24 1c22.703 0 23 .297 23 23 0 22.703-.297 23-23 23-22.703 0-23-.297-23-23 0-22.703.297-23 23-23z" fill="url(#a)"/>
  <g opacity=".1" transform="translate(.99999996 1.5384611)">
    <g opacity=".8" transform="matrix(.76923077 0 0 .76923077 7.7692308 5.5384615)">
      <path d="m12 16l26 2h-10-4z"/>
      <path d="m24 21l-2 5-3 6 3 2-1-2 3-6-1 7 3 2-1-2v-4l2-8 1-2h-4z"/>
      <path d="m26 12.5c0 .828-.672 1.5-1.5 1.5-.828 0-1.5-.672-1.5-1.5 0-.828.672-1.5 1.5-1.5.828 0 1.5.672 1.5 1.5z" transform="matrix(1.3333333 0 0 1.3333333 -6.6666659 -1.6666662)"/>
    </g>
    <g transform="matrix(.92307692 0 0 .92307692 -.076923 .1538462)">
      <path d="m12 16l26 2h-10-4z"/>
      <path d="m24 21l-2 5-3 6 3 2-1-2 3-6-1 7 3 2-1-2v-4l2-8 1-2h-4z"/>
      <path d="m26 12.5c0 .828-.672 1.5-1.5 1.5-.828 0-1.5-.672-1.5-1.5 0-.828.672-1.5 1.5-1.5.828 0 1.5.672 1.5 1.5z" transform="matrix(1.3333333 0 0 1.3333333 -6.6666659 -1.6666662)"/>
    </g>
    <g opacity=".6" transform="matrix(.53846154 0 0 .53846154 16.538462 13.615385)">
      <path d="m12 16l26 2h-10-4z"/>
      <path d="m24 21l-2 5-3 6 3 2-1-2 3-6-1 7 3 2-1-2v-4l2-8 1-2h-4z"/>
      <path d="m26 12.5c0 .828-.672 1.5-1.5 1.5-.828 0-1.5-.672-1.5-1.5 0-.828.672-1.5 1.5-1.5.828 0 1.5.672 1.5 1.5z" transform="matrix(1.3333333 0 0 1.3333333 -6.6666659 -1.6666662)"/>
    </g>
  </g>
  <g transform="translate(-.00000004 .5384611)">
    <g opacity=".8" transform="matrix(.76923077 0 0 .76923077 7.7692308 5.5384615)">
      <path d="m12 16l26 2h-10-4z" fill="#333"/>
      <path d="m24 21l-2 5-3 6 3 2-1-2 3-6-1 7 3 2-1-2v-4l2-8 1-2h-4z" fill="#333"/>
      <path d="m26 12.5c0 .828-.672 1.5-1.5 1.5-.828 0-1.5-.672-1.5-1.5 0-.828.672-1.5 1.5-1.5.828 0 1.5.672 1.5 1.5z" fill="#333" transform="matrix(1.3333333 0 0 1.3333333 -6.6666659 -1.6666662)"/>
      <path d="m26 12.5c0 .828-.672 1.5-1.5 1.5-.828 0-1.5-.672-1.5-1.5 0-.828.672-1.5 1.5-1.5.828 0 1.5.672 1.5 1.5z" fill="#d6d610" transform="translate(2 2.5)"/>
    </g>
    <g transform="matrix(.92307692 0 0 .92307692 -.076923 .1538462)">
      <path d="m12 16l26 2h-10-4z" fill="#333"/>
      <path d="m24 21l-2 5-3 6 3 2-1-2 3-6-1 7 3 2-1-2v-4l2-8 1-2h-4z" fill="#333"/>
      <path d="m26 12.5c0 .828-.672 1.5-1.5 1.5-.828 0-1.5-.672-1.5-1.5 0-.828.672-1.5 1.5-1.5.828 0 1.5.672 1.5 1.5z" fill="#333" transform="matrix(1.3333333 0 0 1.3333333 -6.6666659 -1.6666662)"/>
      <path d="m26 12.5c0 .828-.672 1.5-1.5 1.5-.828 0-1.5-.672-1.5-1.5 0-.828.672-1.5 1.5-1.5.828 0 1.5.672 1.5 1.5z" fill="#d6d610" transform="translate(2 2.5)"/>
    </g>
    <g opacity=".6" transform="matrix(.53846154 0 0 .53846154 16.538462 13.615385)">
      <path d="m12 16l26 2h-10-4z" fill="#333"/>
      <path d="m24 21l-2 5-3 6 3 2-1-2 3-6-1 7 3 2-1-2v-4l2-8 1-2h-4z" fill="#333"/>
      <path d="m26 12.5c0 .828-.672 1.5-1.5 1.5-.828 0-1.5-.672-1.5-1.5 0-.828.672-1.5 1.5-1.5.828 0 1.5.672 1.5 1.5z" fill="#333" transform="matrix(1.3333333 0 0 1.3333333 -6.6666659 -1.6666662)"/>
      <path d="m26 12.5c0 .828-.672 1.5-1.5 1.5-.828 0-1.5-.672-1.5-1.5 0-.828.672-1.5 1.5-1.5.828 0 1.5.672 1.5 1.5z" fill="#d6d610" transform="translate(2 2.5)"/>
    </g>
  </g>
</svg>
