<svg viewBox="0 0 48 48" xmlns="http://www.w3.org/2000/svg" xmlns:xlink="http://www.w3.org/1999/xlink">
  <linearGradient id="a" gradientUnits="userSpaceOnUse" x2="0" y1="46.946" y2="1.014">
    <stop offset="0" stop-color="#8dcd8b"/>
    <stop offset="1" stop-color="#9bd399"/>
  </linearGradient>
  <path d="m36.31 5c5.859 4.062 9.688 10.831 9.688 18.5 0 12.426-10.07 22.5-22.5 22.5-7.669 0-14.438-3.828-18.5-9.688 1.037 1.822 2.306 3.499 3.781 4.969 4.085 3.712 9.514 5.969 15.469 5.969 22.703 0 23-10.298 23-23 0-5.954-2.256-11.384-5.969-15.469-1.469-1.475-3.147-2.744-4.969-3.781zm4.969 3.781c3.854 4.113 6.219 9.637 6.219 15.719 0 22.703-.297 23-23 23-6.081 0-11.606-2.364-15.719-6.219 4.16 4.144 9.883 6.719 16.219 6.719 22.703 0 23-10.298 23-23 0-6.335-2.575-12.06-6.719-16.219z" opacity=".05"/>
  <path d="m41.28 8.781c3.712 4.085 5.969 9.514 5.969 15.469 0 22.703-.297 23-23 23-5.954 0-11.384-2.256-15.469-5.969 4.113 3.854 9.637 6.219 15.719 6.219 22.703 0 23-10.298 23-23 0-6.081-2.364-11.606-6.219-15.719z" opacity=".1"/>
  <path d="m31.25 2.375c8.615 3.154 14.75 11.417 14.75 21.13 0 12.426-10.07 22.5-22.5 22.5-9.708 0-17.971-6.135-21.12-14.75a23 23 0 0 0 44.875-7 23 23 0 0 0-16-21.875z" opacity=".2"/>
  <path d="m24 1c22.703 0 23 .297 23 23s-.297 23-23 23-23-.297-23-23 .297-23 23-23z" fill="url(#a)"/>
  <path d="m23 15v2h-6v2h-2v2h-2v10h2v2h2v2h16v-2h2v-2h2v-10h-2v-2h-2v-2h-8v-2z" opacity=".1"/>
  <g transform="matrix(.1 0 0 .1 -13.205 -28.618)">
    <path d="m352.05 426.18h20v20h-20z" fill="#8f4126"/>
    <path d="m432.05 446.18h20v20h-20z" fill="#fe8d3f"/>
    <path d="m412.05 446.18h20v20h-20z" fill="#fe7e41"/>
    <path d="m392.05 446.18h20v20h-20z" fill="#fe7f41"/>
    <path d="m372.05 446.18h20v20h-20z" fill="#a1502b"/>
    <path d="m352.05 446.18h20v20h-20z" fill="#8e4328"/>
    <path d="m332.05 446.18h20v20h-20z" fill="#f97d41"/>
    <path d="m312.05 446.18h20v20h-20z" fill="#fe7642"/>
    <path d="m292.05 446.18h20v20h-20z" fill="#fe8a3f"/>
    <path d="m452.05 466.18h20v20h-20z" fill="#fd8643"/>
    <path d="m432.05 466.18h20v20h-20z" fill="#feb14b"/>
    <path d="m412.05 466.18h20v20h-20z" fill="#fec451"/>
    <path d="m392.05 466.18h20v20h-20z" fill="#fe9443"/>
    <path d="m372.05 466.18h20v20h-20z" fill="#ab532e"/>
    <path d="m352.05 466.18h20v20h-20z" fill="#b4542d"/>
    <path d="m332.05 466.18h20v20h-20z" fill="#fe9443"/>
    <path d="m312.05 466.18h20v20h-20z" fill="#fea848"/>
    <path d="m292.05 466.18h20v20h-20z" fill="#fea748"/>
    <path d="m272.05 466.18h20v20h-20z" fill="#fd9a44"/>
    <path d="m472.05 486.18h20v20h-20z" fill="#e75d41"/>
    <path d="m452.05 486.18h20v20h-20z" fill="#fe9040"/>
    <path d="m432.05 486.18h20v20h-20z" fill="#fe9341"/>
    <path d="m412.05 486.18h20v20h-20z" fill="#fe9b44"/>
    <path d="m392.05 486.18h20v20h-20z" fill="#feb14b"/>
    <path d="m372.05 486.18h20v20h-20z" fill="#feb84d"/>
    <path d="m352.05 486.18h20v20h-20z" fill="#fea748"/>
    <path d="m332.05 486.18h20v20h-20z" fill="#fea648"/>
    <path d="m312.05 486.18h20v20h-20z" fill="#feb34c"/>
    <path d="m292.05 486.18h20v20h-20z" fill="#fe9943"/>
    <path d="m272.05 486.18h20v20h-20z" fill="#fea246"/>
    <path d="m252.05 486.18h20v20h-20z" fill="#fe5f42"/>
    <path d="m472.05 506.18h20v20h-20z" fill="#d75f41"/>
    <path d="m452.05 506.18h20v20h-20z" fill="#fe873d"/>
    <path d="m432.05 506.18h20v20h-20z" fill="#fe8b3f"/>
    <path d="m412.05 506.18h20v20h-20z" fill="#fe8e40"/>
    <path d="m392.05 506.18h20v20h-20z" fill="#fe7b39"/>
    <path d="m372.05 506.18h20v20h-20z" fill="#fe9040"/>
    <path d="m352.05 506.18h20v20h-20z" fill="#fea045"/>
    <path d="m332.05 506.18h20v20h-20z" fill="#fe7f3b"/>
    <path d="m312.05 506.18h20v20h-20z" fill="#fe9040"/>
    <path d="m292.05 506.18h20v20h-20z" fill="#fe833c"/>
    <path d="m272.05 506.18h20v20h-20z" fill="#fe863d"/>
    <path d="m252.05 506.18h20v20h-20z" fill="#fe683d"/>
    <path d="m472.05 526.18h20v20h-20z" fill="#d75d40"/>
    <path d="m452.05 526.18h20v20h-20z" fill="#fe723b"/>
    <path d="m432.05 526.18h20v20h-20z" fill="#fe823b"/>
    <path d="m412.05 526.18h20v20h-20z" fill="#fe843c"/>
    <path d="m392.05 526.18h20v20h-20z" fill="#fe7a39"/>
    <path d="m372.05 526.18h20v20h-20z" fill="#fe7f3a"/>
    <path d="m352.05 526.18h20v20h-20z" fill="#fe7f3a"/>
    <path d="m332.05 526.18h20v20h-20z" fill="#fe7a39"/>
    <path d="m312.05 526.18h20v20h-20z" fill="#fe843c"/>
    <path d="m292.05 526.18h20v20h-20z" fill="#fe833c"/>
    <path d="m272.05 526.18h20v20h-20z" fill="#fe723b"/>
    <path d="m252.05 526.18h20v20h-20z" fill="#fe663d"/>
    <path d="m472.05 546.18h20v20h-20z" fill="#ca5244"/>
    <path d="m452.05 546.18h20v20h-20z" fill="#fe673c"/>
    <path d="m432.05 546.18h20v20h-20z" fill="#fe7839"/>
    <path d="m412.05 546.18h20v20h-20z" fill="#fe7639"/>
    <path d="m392.05 546.18h20v20h-20z" fill="#fe733a"/>
    <path d="m372.05 546.18h20v20h-20z" fill="#fe7f3b"/>
    <path d="m352.05 546.18h20v20h-20z" fill="#fe7f3b"/>
    <path d="m332.05 546.18h20v20h-20z" fill="#fe733a"/>
    <path d="m312.05 546.18h20v20h-20z" fill="#fe7639"/>
    <path d="m292.05 546.18h20v20h-20z" fill="#fe813b"/>
    <path d="m272.05 546.18h20v20h-20z" fill="#fe6a3d"/>
    <path d="m252.05 546.18h20v20h-20z" fill="#fe653d"/>
    <path d="m472.05 566.18h20v20h-20z" fill="#ca5244"/>
    <path d="m452.05 566.18h20v20h-20z" fill="#f95341"/>
    <path d="m432.05 566.18h20v20h-20z" fill="#fe5d3e"/>
    <path d="m412.05 566.18h20v20h-20z" fill="#fe7539"/>
    <path d="m392.05 566.18h20v20h-20z" fill="#fe693c"/>
    <path d="m372.05 566.18h20v20h-20z" fill="#fe7e3a"/>
    <path d="m352.05 566.18h20v20h-20z" fill="#fe7e3a"/>
    <path d="m332.05 566.18h20v20h-20z" fill="#fe6c3b"/>
    <path d="m312.05 566.18h20v20h-20z" fill="#fe723a"/>
    <path d="m292.05 566.18h20v20h-20z" fill="#fe703b"/>
    <path d="m272.05 566.18h20v20h-20z" fill="#fe6e3b"/>
    <path d="m252.05 566.18h20v20h-20z" fill="#fe603e"/>
    <path d="m452.05 586.18h20v20h-20z" fill="#d44945"/>
    <path d="m432.05 586.18h20v20h-20z" fill="#e84e43"/>
    <path d="m412.05 586.18h20v20h-20z" fill="#fe5b3f"/>
    <path d="m392.05 586.18h20v20h-20z" fill="#fb5d3f"/>
    <path d="m372.05 586.18h20v20h-20z" fill="#fa6e3b"/>
    <path d="m352.05 586.18h20v20h-20z" fill="#fe6f3b"/>
    <path d="m332.05 586.18h20v20h-20z" fill="#f7623e"/>
    <path d="m312.05 586.18h20v20h-20z" fill="#f95d3f"/>
    <path d="m292.05 586.18h20v20h-20z" fill="#fc593f"/>
    <path d="m272.05 586.18h20v20h-20z" fill="#e55442"/>
    <path d="m432.05 606.18h20v20h-20z" fill="#bd4447"/>
    <path d="m412.05 606.18h20v20h-20z" fill="#df4c43"/>
    <path d="m392.05 606.18h20v20h-20z" fill="#e04c43"/>
    <path d="m372.05 606.18h20v20h-20z" fill="#db4b44"/>
    <path d="m352.05 606.18h20v20h-20z" fill="#e24c43"/>
    <path d="m332.05 606.18h20v20h-20z" fill="#d94a44"/>
    <path d="m312.05 606.18h20v20h-20z" fill="#d14945"/>
    <path d="m292.05 606.18h20v20h-20z" fill="#ca4746"/>
  </g>
</svg>
