<svg xmlns="http://www.w3.org/2000/svg" viewBox="0 0 48 48">
 <defs>
  <linearGradient id="linearGradient3764" x1="1" x2="47" gradientUnits="userSpaceOnUse" gradientTransform="matrix(0,-1,1,0,-1.5e-6,47.999998)">
   <stop style="stop-color:#efb5e3;stop-opacity:1"/>
   <stop offset="1" style="stop-color:#f3c5e9;stop-opacity:1"/>
  </linearGradient>
  <linearGradient id="linear0" gradientUnits="userSpaceOnUse" y1="272" x2="0" y2="37" gradientTransform="matrix(0.153409,0,0,0.15,1.9093802,0.600007)">
   <stop style="stop-color:#a325a3;stop-opacity:1"/>
   <stop offset="1" style="stop-color:#c232c2;stop-opacity:1"/>
  </linearGradient>
 </defs>
 <g>
  
  
  
 </g>
 <g>
  <path d="m 47,24 C 47,46.703 46.703,47 24,47 1.297,47 1,46.703 1,24 1,1.297 1.297,1 24,1 46.703,1 47,1.297 47,24 z" style="fill:url(#linearGradient3764);fill-opacity:1"/>
 </g>
 <g>
  <g>
   <g transform="translate(1,1)">
    <g style="opacity:0.1">
     <!-- color: #5782cb -->
    </g>
   </g>
  </g>
 </g>
 <g transform="translate(2.4624513e-4,0)">
  <g>
   <!-- color: #5782cb -->
   <g>
    <path d="m 25 13 c -3.301 0 -7.276 4.77 -8.566 10.371 1.139 1.139 2.279 2.279 3.418 3.418 l 2.955 -4.926 5.879 4.898 2.041 -5.096 3.133 3.131 c -0.807 -6.87 -5.237 -11.797 -8.859 -11.797 m -1.807 11.137 -3.045 5.072 -4.03 -4.03 c -0.071 0.603 -0.121 1.209 -0.121 1.816 c 0 7 3 10 9 10 5.976 0 8.974 -4.96 8.998 -9.939 l -2.725 -2.725 -1.961 4.9 z" style="fill:#000;opacity:0.1;stroke:none;fill-rule:evenodd"/>
    <path d="m 24 12 c -3.301 0 -7.276 4.77 -8.566 10.371 1.139 1.139 2.279 2.279 3.418 3.418 l 2.955 -4.926 5.879 4.898 2.041 -5.096 3.133 3.131 c -0.807 -6.87 -5.237 -11.797 -8.859 -11.797 m -1.807 11.137 -3.045 5.072 -4.03 -4.03 c -0.071 0.603 -0.121 1.209 -0.121 1.816 c 0 7 3 10 9 10 5.976 0 8.974 -4.96 8.998 -9.939 l -2.725 -2.725 -1.961 4.9 z" transform="translate(-2.4624513e-4,0)" style="fill:url(#linear0);stroke:none;fill-rule:evenodd"/>
   </g>
  </g>
 </g>
 <g>
  
 </g>
</svg>
