<svg viewBox="0 0 48 48" xmlns="http://www.w3.org/2000/svg" xmlns:xlink="http://www.w3.org/1999/xlink">
  <linearGradient id="a" gradientTransform="matrix(0 -1 1 0 -.0000015 47.999998)" gradientUnits="userSpaceOnUse" x1="1" x2="47">
    <stop offset="0" stop-color="#e4e4e4"/>
    <stop offset="1" stop-color="#eee"/>
  </linearGradient>
  <path d="m47 24c0 22.703-.297 23-23 23-22.703 0-23-.297-23-23 0-22.703.297-23 23-23 22.703 0 23 .297 23 23z" fill="url(#a)"/>
  <g opacity=".1" transform="translate(1 1)">
    <path d="m11.531 13c-.293.031-.535.301-.531.594v10.813c0 .316.281.594.594.594h5.406v2h-4v2h7.281v-3.969l-2.313-2.031h-4.531c-.211 0-.406-.195-.406-.406v-7.188c-.004-.188.129-.371.313-.406.023-.004.07-.004.094 0h11.125c.211 0 .406.199.406.406v2.875h2.031v-4.688c0-.313-.281-.594-.594-.594m-14.875 0"/>
    <path d="m25.13 19l2.469 2h6.969c.211 0 .406.195.406.406v7.188c0 .211-.195.406-.406.406h-11.125c-.207 0-.406-.195-.406-.406v-1.125l-2.02-1.781v4.719c0 .316.27.594.594.594h5.406v2h-4v2h12v-2h-4v-2h5.395c.316 0 .605-.277.605-.594v-10.813c0-.313-.281-.594-.605-.594m-11.273 0"/>
    <path d="m15 19l9 8v-5l7 3-10-8v3.75l-5.996-1.75m-.004 0" fill-rule="evenodd"/>
  </g>
  <path d="m11.531 13c-.293.031-.535.301-.531.594v10.813c0 .316.281.594.594.594h5.406v2h-4v2h7.281v-3.969l-2.313-2.031h-4.531c-.211 0-.406-.195-.406-.406v-7.188c-.004-.188.129-.371.313-.406.023-.004.07-.004.094 0h11.125c.211 0 .406.199.406.406v2.875h2.031v-4.688c0-.313-.281-.594-.594-.594m-14.875 0" fill="#c0274b"/>
  <path d="m25.13 19l2.469 2h6.969c.211 0 .406.195.406.406v7.188c0 .211-.195.406-.406.406h-11.125c-.207 0-.406-.195-.406-.406v-1.125l-2.02-1.781v4.719c0 .316.27.594.594.594h5.406v2h-4v2h12v-2h-4v-2h5.395c.316 0 .605-.277.605-.594v-10.813c0-.313-.281-.594-.605-.594m-11.273 0" fill="#283751"/>
  <path d="m15 19l9 8v-5l7 3-10-8v3.75l-5.996-1.75m-.004 0" fill="#ea8e00" fill-rule="evenodd"/>
</svg>
