<svg xmlns="http://www.w3.org/2000/svg" viewBox="0 0 48 48">
 <defs>
  <linearGradient id="linearGradient3764" x1="1" x2="47" gradientUnits="userSpaceOnUse" gradientTransform="matrix(0,-1,1,0,-1.5e-6,47.999998)">
   <stop style="stop-color:#e4e4e4;stop-opacity:1"/>
   <stop offset="1" style="stop-color:#eee;stop-opacity:1"/>
  </linearGradient>
 </defs>
 <g>
  
  
  
 </g>
 <g>
  <path d="m 47,24 C 47,46.703 46.703,47 24,47 1.297,47 1,46.703 1,24 1,1.297 1.297,1 24,1 46.703,1 47,1.297 47,24 z" style="fill:url(#linearGradient3764);fill-opacity:1"/>
 </g>
 <g>
  <g>
   <g transform="translate(1,1)">
    <g style="opacity:0.1">
     <!-- color: #eeeeee -->
     <g>
      <path d="m 11.531 13 c -0.293 0.031 -0.535 0.301 -0.531 0.594 l 0 10.813 c 0 0.316 0.281 0.594 0.594 0.594 l 5.406 0 l 0 2 l -4 0 l 0 2 l 7.281 0 l 0 -3.969 l -2.313 -2.031 l -4.531 0 c -0.211 0 -0.406 -0.195 -0.406 -0.406 l 0 -7.188 c -0.004 -0.188 0.129 -0.371 0.313 -0.406 c 0.023 -0.004 0.07 -0.004 0.094 0 l 11.125 0 c 0.211 0 0.406 0.199 0.406 0.406 l 0 2.875 l 2.031 0 l 0 -4.688 c 0 -0.313 -0.281 -0.594 -0.594 -0.594 m -14.875 0" style="fill:#000;fill-opacity:1;stroke:none;fill-rule:nonzero"/>
      <path d="m 25.13 19 l 2.469 2 l 6.969 0 c 0.211 0 0.406 0.195 0.406 0.406 l 0 7.188 c 0 0.211 -0.195 0.406 -0.406 0.406 l -11.125 0 c -0.207 0 -0.406 -0.195 -0.406 -0.406 l 0 -1.125 l -2.02 -1.781 l 0 4.719 c 0 0.316 0.27 0.594 0.594 0.594 l 5.406 0 l 0 2 l -4 0 l 0 2 l 12 0 l 0 -2 l -4 0 l 0 -2 l 5.395 0 c 0.316 0 0.605 -0.277 0.605 -0.594 l 0 -10.813 c 0 -0.313 -0.281 -0.594 -0.605 -0.594 m -11.273 0" style="fill:#000;fill-opacity:1;stroke:none;fill-rule:nonzero"/>
      <path d="m 15 19 l 9 8 l 0 -5 l 7 3 l -10 -8 l 0 3.75 l -5.996 -1.75 m -0.004 0" style="fill:#000;fill-opacity:1;stroke:none;fill-rule:evenodd"/>
     </g>
    </g>
   </g>
  </g>
 </g>
 <g>
  <g>
   <!-- color: #eeeeee -->
   <g>
    <path d="m 11.531 13 c -0.293 0.031 -0.535 0.301 -0.531 0.594 l 0 10.813 c 0 0.316 0.281 0.594 0.594 0.594 l 5.406 0 l 0 2 l -4 0 l 0 2 l 7.281 0 l 0 -3.969 l -2.313 -2.031 l -4.531 0 c -0.211 0 -0.406 -0.195 -0.406 -0.406 l 0 -7.188 c -0.004 -0.188 0.129 -0.371 0.313 -0.406 c 0.023 -0.004 0.07 -0.004 0.094 0 l 11.125 0 c 0.211 0 0.406 0.199 0.406 0.406 l 0 2.875 l 2.031 0 l 0 -4.688 c 0 -0.313 -0.281 -0.594 -0.594 -0.594 m -14.875 0" style="fill:#c0274b;fill-opacity:1;stroke:none;fill-rule:nonzero"/>
    <path d="m 25.13 19 l 2.469 2 l 6.969 0 c 0.211 0 0.406 0.195 0.406 0.406 l 0 7.188 c 0 0.211 -0.195 0.406 -0.406 0.406 l -11.125 0 c -0.207 0 -0.406 -0.195 -0.406 -0.406 l 0 -1.125 l -2.02 -1.781 l 0 4.719 c 0 0.316 0.27 0.594 0.594 0.594 l 5.406 0 l 0 2 l -4 0 l 0 2 l 12 0 l 0 -2 l -4 0 l 0 -2 l 5.395 0 c 0.316 0 0.605 -0.277 0.605 -0.594 l 0 -10.813 c 0 -0.313 -0.281 -0.594 -0.605 -0.594 m -11.273 0" style="fill:#283751;fill-opacity:1;stroke:none;fill-rule:nonzero"/>
    <path d="m 15 19 l 9 8 l 0 -5 l 7 3 l -10 -8 l 0 3.75 l -5.996 -1.75 m -0.004 0" style="fill:#ea8e00;fill-opacity:1;stroke:none;fill-rule:evenodd"/>
   </g>
  </g>
 </g>
 <g>
  
 </g>
</svg>
