<svg viewBox="0 0 48 48" xmlns="http://www.w3.org/2000/svg" xmlns:xlink="http://www.w3.org/1999/xlink">
  <linearGradient id="a" gradientUnits="userSpaceOnUse" x1="1" x2="47">
    <stop offset="0" stop-color="#9ab005"/>
    <stop offset="1" stop-color="#aac305"/>
  </linearGradient>
  <path d="m24 1c22.703 0 23 .297 23 23 0 22.703-.297 23-23 23-22.703 0-23-.297-23-23 0-22.703.297-23 23-23z" fill="url(#a)" transform="matrix(0 -1 1 0 0 48)"/>
  <path d="m26.469 10.656c-1.268.04-2.645.27-4.125.719-10.675-1.763-17.881 13.692-7.344 26.625l-.063-1.219 4.063 2.5-1.281-2.094c2.247 1.748 5.14 2.813 8.281 2.813 3.141 0 6.03-1.064 8.281-2.813 1.219-.213 2.722-1.567 3.125-3.563.107-.184.184-.373.281-.563.368.751-.115 1.82-.531 2.875.736-.957 1.934-1.28 1.938-3.25.767.781.45 2.053.656 3.094 1.614-8.163-1.027-25.507-13.281-25.12z" opacity=".1"/>
  <path d="m41 25a17 10.507 0 1 1-34 0 17 10.507 0 1 1  34 0z" fill="#ddb68e" transform="matrix(.76470589 0 0 1.1662494 6.6470588 -2.4095225)"/>
  <path d="m29.695 25.09c1.991-.638 5.766 1.957 5.059 1.958-1.792-.869-4.01-.783-5.059-1.958z" fill="#6b0000"/>
  <path d="m16.467 27.758c2.705-2.448 4.372-3.883 7.497-2.415-3.458-.022-5.33 1.386-7.497 2.415z" fill="#6b0000"/>
  <path d="m14 37c-10.537-12.933-3.319-28.39 7.356-26.627 15.782-4.786 19.17 15.4 17.39 24.407-.206-1.04.106-2.32-.661-3.102-.004 1.97-1.196 2.297-1.932 3.254.468-1.186 1.025-2.407.356-3.153-.089 2.481-1.914 4.226-3.305 4.424.582-.705 1.203-1.128 1.477-2.172.357-2.065.386-4.04 1-6.257-.616-1.864-1.22-3.774-2.02-4.894-.317 1.207-.295 2.172-1.22 3.814-.032-3.831-2.747-6.768-5.288-9.763 3.434 6.222 1.223 8.709.966 11.593.025-1.438-.441-5.822-3.966-8.441-.464 3.985.409 5.446.712 7.983-2.388-2.08-3.444-4.9-4.119-7.932-1.932 1.843-1.833 4.999-2.237 7.831-.519-1.584-1.451-2.135-.712-6.864-1.837 2.141-3.563 11.298 2.085 15.661-1.322.091-2.644-.84-3.966-1.881l2.085 3.407-4.068-2.492z" fill="#ab0000"/>
  <path d="m28.06 34.691a.559.28 0 1 1-1.119 0 .559.28 0 1 1  1.119 0z" fill="#d7a289" opacity=".385" transform="translate(.24152542 .02542373)"/>
  <path d="m28.06 34.691a.559.28 0 1 1-1.119 0 .559.28 0 1 1  1.119 0z" fill="#d7a289" opacity=".385" transform="matrix(.61363638 0 0 .8409091 12.415736 5.3346494)"/>
  <path d="m29.344 36.19c-1.188-.045-2.115.433-2.719.938l.344.375c.532-.444 1.329-.852 2.375-.813z" fill="#353535"/>
  <path d="m17.618 29.429c1.476 3.879 5.699 3.263 5.861-1.834-2.311-1.014-4.21.389-5.861 1.834z" fill="#f6f3f0"/>
  <path d="m29.822 27.445c-.464 3.461 4.4 6.404 4.869 1.297-.945-1.125-4.098-1.912-4.869-1.297z" fill="#f6f3f0"/>
  <path d="m21.25 27.313c-1.353.234-2.535 1.171-3.625 2.125.775 2.036 2.29 2.814 3.594 2.375.274-.657.438-1.429.438-2.281 0-.814-.154-1.58-.406-2.219z" fill="#644e3b"/>
  <path d="m30.781 27.22c-.419-.005-.776.065-.969.219-.23 1.712.861 3.297 2.063 3.844.648-.443 1.094-1.478 1.094-2.688 0-.332-.031-.64-.094-.938-.716-.257-1.484-.43-2.094-.438z" fill="#644e3b"/>
</svg>
