<svg xmlns="http://www.w3.org/2000/svg" viewBox="0 0 48 48">
 <defs>
  <linearGradient id="linearGradient3882" x1="1" x2="47" gradientUnits="userSpaceOnUse">
   <stop style="stop-color:#9ab005;stop-opacity:1"/>
   <stop offset="1" style="stop-color:#aac305;stop-opacity:1"/>
  </linearGradient>
 </defs>
 <g>
  
  
  
 </g>
 <g transform="matrix(0,-1,1,0,0,48)" style="fill:url(#linearGradient3882);fill-opacity:1">
  <path d="M 24,1 C 46.703,1 47,1.297 47,24 47,46.703 46.703,47 24,47 1.297,47 1,46.703 1,24 1,1.297 1.297,1 24,1 z"/>
 </g>
 <path d="m 26.469 10.656 c -1.268 0.04 -2.645 0.27 -4.125 0.719 c -10.675 -1.763 -17.881 13.692 -7.344 26.625 l -0.063 -1.219 4.063 2.5 -1.281 -2.094 c 2.247 1.748 5.14 2.813 8.281 2.813 3.141 0 6.03 -1.064 8.281 -2.813 1.219 -0.213 2.722 -1.567 3.125 -3.563 0.107 -0.184 0.184 -0.373 0.281 -0.563 0.368 0.751 -0.115 1.82 -0.531 2.875 0.736 -0.957 1.934 -1.28 1.938 -3.25 0.767 0.781 0.45 2.053 0.656 3.094 1.614 -8.163 -1.027 -25.507 -13.281 -25.12 z" style="fill:#000;opacity:0.1;fill-opacity:1;stroke:none;fill-rule:nonzero"/>
 <g>
  
 </g>
 <path d="M 41 25 A 17 10.507 0 1 1 7 25 17 10.507 0 1 1 41 25 z" transform="matrix(0.76470589,0,0,1.1662494,6.6470588,-2.4095225)" style="fill:#ddb68e;opacity:1;fill-opacity:1;stroke:none;fill-rule:nonzero"/>
 <path d="m 29.695 25.09 c 1.991 -0.638 5.766 1.957 5.059 1.958 -1.792 -0.869 -4.01 -0.783 -5.059 -1.958 z" style="fill:#6b0000;opacity:1;fill-opacity:1;stroke:none"/>
 <path d="m 16.467 27.758 c 2.705 -2.448 4.372 -3.883 7.497 -2.415 -3.458 -0.022 -5.33 1.386 -7.497 2.415 z" style="fill:#6b0000;opacity:1;fill-opacity:1;stroke:none"/>
 <path d="m 14 37 c -10.537 -12.933 -3.319 -28.39 7.356 -26.627 c 15.782 -4.786 19.17 15.4 17.39 24.407 -0.206 -1.04 0.106 -2.32 -0.661 -3.102 -0.004 1.97 -1.196 2.297 -1.932 3.254 0.468 -1.186 1.025 -2.407 0.356 -3.153 -0.089 2.481 -1.914 4.226 -3.305 4.424 0.582 -0.705 1.203 -1.128 1.477 -2.172 0.357 -2.065 0.386 -4.04 1 -6.257 -0.616 -1.864 -1.22 -3.774 -2.02 -4.894 -0.317 1.207 -0.295 2.172 -1.22 3.814 -0.032 -3.831 -2.747 -6.768 -5.288 -9.763 3.434 6.222 1.223 8.709 0.966 11.593 0.025 -1.438 -0.441 -5.822 -3.966 -8.441 -0.464 3.985 0.409 5.446 0.712 7.983 -2.388 -2.08 -3.444 -4.9 -4.119 -7.932 -1.932 1.843 -1.833 4.999 -2.237 7.831 -0.519 -1.584 -1.451 -2.135 -0.712 -6.864 -1.837 2.141 -3.563 11.298 2.085 15.661 -1.322 0.091 -2.644 -0.84 -3.966 -1.881 l 2.085 3.407 -4.068 -2.492 z" style="fill:#ab0000;opacity:1;fill-opacity:1;stroke:none"/>
 <path d="m 28.06 34.691 a 0.559 0.28 0 1 1 -1.119 0 0.559 0.28 0 1 1 1.119 0 z" transform="translate(0.24152542,0.02542373)" style="fill:#d7a289;opacity:0.385;fill-opacity:1;stroke:none;fill-rule:nonzero"/>
 <path d="m 28.06 34.691 a 0.559 0.28 0 1 1 -1.119 0 0.559 0.28 0 1 1 1.119 0 z" transform="matrix(0.61363638,0,0,0.8409091,12.415736,5.3346494)" style="fill:#d7a289;opacity:0.385;fill-opacity:1;stroke:none;fill-rule:nonzero"/>
 <path d="m 29.344 36.19 c -1.188 -0.045 -2.115 0.433 -2.719 0.938 l 0.344 0.375 c 0.532 -0.444 1.329 -0.852 2.375 -0.813 l 0 -0.5 z" style="visibility:visible;fill:#353535;fill-opacity:1;stroke:none;display:inline;color:#000"/>
 <path d="m 17.618 29.429 c 1.476 3.879 5.699 3.263 5.861 -1.834 -2.311 -1.014 -4.21 0.389 -5.861 1.834 z" style="fill:#f6f3f0;opacity:1;fill-opacity:1;stroke:none"/>
 <path d="m 29.822 27.445 c -0.464 3.461 4.4 6.404 4.869 1.297 -0.945 -1.125 -4.098 -1.912 -4.869 -1.297 z" style="fill:#f6f3f0;opacity:1;fill-opacity:1;stroke:none"/>
 <path d="m 21.25 27.313 c -1.353 0.234 -2.535 1.171 -3.625 2.125 c 0.775 2.036 2.29 2.814 3.594 2.375 c 0.274 -0.657 0.438 -1.429 0.438 -2.281 c 0 -0.814 -0.154 -1.58 -0.406 -2.219 z" style="fill:#644e3b;opacity:1;fill-opacity:1;stroke:none;fill-rule:nonzero"/>
 <path d="m 30.781 27.22 c -0.419 -0.005 -0.776 0.065 -0.969 0.219 c -0.23 1.712 0.861 3.297 2.063 3.844 c 0.648 -0.443 1.094 -1.478 1.094 -2.688 c 0 -0.332 -0.031 -0.64 -0.094 -0.938 c -0.716 -0.257 -1.484 -0.43 -2.094 -0.438 z" style="fill:#644e3b;opacity:1;fill-opacity:1;stroke:none;fill-rule:nonzero"/>
</svg>
