<svg viewBox="0 0 48 48" xmlns="http://www.w3.org/2000/svg" xmlns:xlink="http://www.w3.org/1999/xlink">
  <linearGradient id="a" gradientTransform="matrix(0 -1 1 0 -.0000015 47.999998)" gradientUnits="userSpaceOnUse" x1="1" x2="47">
    <stop offset="0" stop-color="#e4e4e4"/>
    <stop offset="1" stop-color="#eee"/>
  </linearGradient>
  <path d="m47 24c0 22.703-.297 23-23 23-22.703 0-23-.297-23-23 0-22.703.297-23 23-23 22.703 0 23 .297 23 23z" fill="url(#a)"/>
  <g opacity=".1" transform="translate(1 1)">
    <path d="m13 35v-5l5 5m-5 0"/>
    <path d="m13 28v-7l7 7m-7 0"/>
    <path d="m13 11v8h8m-8-8"/>
    <path d="m21 28l7 7h9l-7-7m-9 0"/>
  </g>
  <path d="m13 35v-5l5 5m-5 0" fill="#7f0000"/>
  <path d="m13 28v-7l7 7m-7 0" fill="#7f0000"/>
  <path d="m13 11v8h8m-8-8" fill="#7f0000"/>
  <path d="m21 28l7 7h9l-7-7m-9 0" fill="#7f0000"/>
</svg>
