<svg viewBox="0 0 48 48" xmlns="http://www.w3.org/2000/svg" xmlns:xlink="http://www.w3.org/1999/xlink">
  <linearGradient id="a" gradientTransform="matrix(0 -1 1 0 0 48)" gradientUnits="userSpaceOnUse" x1="1" x2="47">
    <stop offset="0" stop-color="#62b890"/>
    <stop offset="1" stop-color="#70be9a"/>
  </linearGradient>
  <path d="m1 24c0-22.703.297-23 23-23 22.703 0 23 .297 23 23 0 22.703-.297 23-23 23-22.703 0-23-.297-23-23z" fill="url(#a)"/>
  <path d="m25 13c-5.521 0-10 1.877-10 3.594v16.813c0 1.713 4.48 3.594 10 3.594 5.524 0 10-1.881 10-3.594v-16.813c0-1.717-4.476-3.594-10-3.594z" opacity=".1"/>
  <path d="m23.998 12c-5.521 0-9.998 1.89-9.998 3.606l.002 16.792c0 1.713 4.478 3.602 9.998 3.602 5.524 0 10-1.89 10-3.602l-.002-16.792c0-1.717-4.478-3.606-10-3.606" fill="#d2d2d2"/>
  <path d="m33 15.7c0 1.657-4.03 3.3-9 3.3-4.971 0-9-1.643-9-3.3 0-1.657 4.03-3.1 9-3.1 4.971 0 9 1.443 9 3.1z" fill="#999"/>
</svg>
