<svg viewBox="0 0 48 48" xmlns="http://www.w3.org/2000/svg" xmlns:xlink="http://www.w3.org/1999/xlink">
  <linearGradient id="a" gradientTransform="matrix(0 -1 1 0 -.0000015 47.999998)" gradientUnits="userSpaceOnUse" x1="1" x2="47">
    <stop offset="0" stop-color="#3d3d3d"/>
    <stop offset="1" stop-color="#474747"/>
  </linearGradient>
  <path d="m47 24c0 22.703-.297 23-23 23-22.703 0-23-.297-23-23 0-22.703.297-23 23-23 22.703 0 23 .297 23 23z" fill="url(#a)"/>
  <g fill-opacity=".098" transform="translate(1 1)">
    <rect height="6" rx="1" width="6" x="13" y="13"/>
    <rect height="6" rx="1" width="6" x="21" y="13"/>
    <rect height="6" rx="1" width="6" x="29" y="13"/>
    <rect height="6" rx="1" width="6" x="13" y="21"/>
    <rect height="6" rx="1" width="6" x="21" y="21"/>
    <rect height="6" rx="1" width="6" x="29" y="21"/>
    <rect height="6" rx="1" width="6" x="13" y="29"/>
    <rect height="6" rx="1" width="6" x="21" y="29"/>
    <rect height="6" rx="1" width="6" x="29" y="29"/>
  </g>
  <rect fill="#86dd95" height="6" rx="1" width="6" x="13" y="13"/>
  <rect fill="#9ab9dd" height="6" rx="1" width="6" x="21" y="13"/>
  <rect fill="#ececec" height="6" rx="1" width="6" x="29" y="13"/>
  <rect fill="#9ab9dd" height="6" rx="1" width="6" x="13" y="21"/>
  <rect fill="#edb968" height="6" rx="1" width="6" x="21" y="21"/>
  <rect fill="#ed8e68" height="6" rx="1" width="6" x="29" y="21"/>
  <rect fill="#f3f284" height="6" rx="1" width="6" x="13" y="29"/>
  <rect fill="#ececec" height="6" rx="1" width="6" x="21" y="29"/>
  <rect fill="#ed8e68" height="6" rx="1" width="6" x="29" y="29"/>
</svg>
