<svg xmlns="http://www.w3.org/2000/svg" viewBox="0 0 48 48">
 <defs>
  <linearGradient id="linearGradient3764" x1="1" x2="47" gradientUnits="userSpaceOnUse" gradientTransform="matrix(0,-1,1,0,-1.5e-6,47.999998)">
   <stop style="stop-color:#e4e4e4;stop-opacity:1"/>
   <stop offset="1" style="stop-color:#eee;stop-opacity:1"/>
  </linearGradient>
 </defs>
 <g>
  
  
  
 </g>
 <g>
  <path d="m 47,24 C 47,46.703 46.703,47 24,47 1.297,47 1,46.703 1,24 1,1.297 1.297,1 24,1 46.703,1 47,1.297 47,24 z" style="fill:url(#linearGradient3764);fill-opacity:1"/>
 </g>
 <g>
  <g>
   <!-- color: #eeeeee -->
   <g>
    <path d="m 24.855 12.995 0 0.006 c -0.972 0 -1.893 0.077 -2.727 0.229 -1.219 0.215 -2.042 0.564 -2.561 1.162 -0.52 0.599 -0.645 1.363 -0.645 2.201 l 0 2.256 -1.551 0 c -1.817 0 -3.477 1.153 -3.979 3.178 l 0 0.006 c -0.506 2.136 -0.544 3.585 0 5.813 0.213 0.871 0.584 1.654 1.156 2.236 0.574 0.584 1.365 0.941 2.297 0.941 l 1.842 0 0 2.256 c 0 0.896 0.415 1.647 1.01 2.18 0.595 0.532 1.355 0.88 2.145 1.107 1.83 0.526 3.858 0.63 6.05 0 0.734 -0.218 1.492 -0.536 2.098 -1.059 0.605 -0.522 1.045 -1.289 1.045 -2.229 l 0 -2.256 2.25 0 c 0.924 0 1.665 -0.358 2.172 -0.941 0.507 -0.583 0.813 -1.336 1.102 -2.193 0.612 -1.82 0.569 -3.597 0.014 -5.861 l -0.008 0 c -0.21 -0.833 -0.518 -1.608 -1.045 -2.201 -0.527 -0.594 -1.295 -0.977 -2.234 -0.977 l -2.029 0 0 -2.256 c 0 -0.919 -0.464 -1.714 -1.107 -2.283 -0.644 -0.569 -1.467 -0.94 -2.311 -1.08 l -0.008 0 c -0.985 -0.161 -1.994 -0.238 -2.975 -0.234" mix-blend-mode="normal" isolation="auto" white-space="normal" solid-opacity="1" solid-color="#000000" style="visibility:visible;shape-rendering:auto;color-interpolation-filters:linearRGB;fill:#000;opacity:1;image-rendering:auto;fill-opacity:0.098;stroke:none;display:inline;color:#000;fill-rule:nonzero;color-rendering:auto;color-interpolation:sRGB"/>
    <path d="m 6.735 3.535 c -0.267 0 -0.519 0.022 -0.745 0.063 c -0.659 0.116 -0.782 0.357 -0.782 0.803 l 0 0.589 l 1.562 0 l 0 0.196 l -2.148 0 c -0.454 0 -0.852 0.27 -0.979 0.783 c -0.14 0.591 -0.15 0.957 0 1.571 c 0.111 0.456 0.376 0.785 0.83 0.785 l 0.461 0 l 0 -0.785 c 0 -0.507 0.445 -0.958 0.978 -0.958 l 1.637 0 c 0.431 0 0.842 -0.355 0.842 -0.786 l 0 -1.396 c 0 -0.419 -0.421 -0.733 -0.842 -0.803 c -0.269 -0.044 -0.548 -0.064 -0.817 -0.063 m -0.842 0.475 c 0.161 0 0.293 0.129 0.293 0.292 c 0 0.162 -0.132 0.294 -0.293 0.294 c -0.162 0 -0.293 -0.131 -0.293 -0.294 c 0 -0.163 0.131 -0.292 0.293 -0.292 m 0 0" transform="matrix(3.543307,0,0,3.543307,0,0)" style="stroke-opacity:1;fill:#4586b9;stroke-miterlimit:4;fill-opacity:1;stroke:#2d2d2d;fill-rule:nonzero;stroke-linecap:butt;stroke-linejoin:miter;stroke-width:0.297"/>
    <path d="m 8.614,5.186 0,0.686 c 0,0.532 -0.456,0.916 -0.978,0.916 l -1.712,0 c -0.43,0 -0.784,0.428 -0.784,0.849 l 0,1.473 c 0,0.419 0.368,0.665 0.784,0.785 0.494,0.142 1.033,0.17 1.624,0 C 7.938,9.779 8.329,9.553 8.329,9.11 l 0,-0.591 -1.56,0 0,-0.194 2.342,0 c 0.453,0 0.624,-0.313 0.783,-0.785 0.163,-0.485 0.153,-0.947 0,-1.571 C 9.782,5.525 9.568,5.186 9.111,5.186 Z M 7.647,8.912 c 0.162,0 0.293,0.131 0.293,0.294 0,0.162 -0.131,0.292 -0.293,0.292 -0.161,0 -0.29,-0.13 -0.29,-0.292 0,-0.162 0.129,-0.294 0.29,-0.294 m 0,0" transform="matrix(3.543307,0,0,3.543307,0,0)" style="stroke-opacity:1;fill:#ffe634;stroke-miterlimit:4;fill-opacity:1;stroke:#2d2d2d;fill-rule:nonzero;stroke-linecap:butt;stroke-linejoin:miter;stroke-width:0.297"/>
   </g>
  </g>
 </g>
 <g>
  
 </g>
</svg>
