<svg viewBox="0 0 48 48" xmlns="http://www.w3.org/2000/svg" xmlns:xlink="http://www.w3.org/1999/xlink">
  <linearGradient id="a" gradientTransform="matrix(0 -1 1 0 -.0000015 47.999998)" gradientUnits="userSpaceOnUse" x1="1" x2="47">
    <stop offset="0" stop-color="#e4e4e4"/>
    <stop offset="1" stop-color="#eee"/>
  </linearGradient>
  <path d="m47 24c0 22.703-.297 23-23 23-22.703 0-23-.297-23-23 0-22.703.297-23 23-23 22.703 0 23 .297 23 23z" fill="url(#a)"/>
  <path d="m24.855 12.995v.006c-.972 0-1.893.077-2.727.229-1.219.215-2.042.564-2.561 1.162-.52.599-.645 1.363-.645 2.201v2.256h-1.551c-1.817 0-3.477 1.153-3.979 3.178v.006c-.506 2.136-.544 3.585 0 5.813.213.871.584 1.654 1.156 2.236.574.584 1.365.941 2.297.941h1.842v2.256c0 .896.415 1.647 1.01 2.18.595.532 1.355.88 2.145 1.107 1.83.526 3.858.63 6.05 0 .734-.218 1.492-.536 2.098-1.059.605-.522 1.045-1.289 1.045-2.229v-2.256h2.25c.924 0 1.665-.358 2.172-.941.507-.583.813-1.336 1.102-2.193.612-1.82.569-3.597.014-5.861h-.008c-.21-.833-.518-1.608-1.045-2.201-.527-.594-1.295-.977-2.234-.977h-2.029v-2.256c0-.919-.464-1.714-1.107-2.283-.644-.569-1.467-.94-2.311-1.08h-.008c-.985-.161-1.994-.238-2.975-.234" fill-opacity=".098"/>
  <path d="m6.735 3.535c-.267 0-.519.022-.745.063-.659.116-.782.357-.782.803v.589h1.562v.196h-2.148c-.454 0-.852.27-.979.783-.14.591-.15.957 0 1.571.111.456.376.785.83.785h.461v-.785c0-.507.445-.958.978-.958h1.637c.431 0 .842-.355.842-.786v-1.396c0-.419-.421-.733-.842-.803-.269-.044-.548-.064-.817-.063m-.842.475c.161 0 .293.129.293.292 0 .162-.132.294-.293.294-.162 0-.293-.131-.293-.294 0-.163.131-.292.293-.292m0 0" fill="#4586b9" stroke="#2d2d2d" stroke-width=".297" transform="scale(3.543307)"/>
  <path d="m8.614 5.186v.686c0 .532-.456.916-.978.916h-1.712c-.43 0-.784.428-.784.849v1.473c0 .419.368.665.784.785.494.142 1.033.17 1.624 0 .39-.116.781-.342.781-.785v-.591h-1.56v-.194h2.342c.453 0 .624-.313.783-.785.163-.485.153-.947 0-1.571-.112-.444-.326-.783-.783-.783zm-.967 3.726c.162 0 .293.131.293.294 0 .162-.131.292-.293.292-.161 0-.29-.13-.29-.292 0-.162.129-.294.29-.294m0 0" fill="#ffe634" stroke="#2d2d2d" stroke-width=".297" transform="scale(3.543307)"/>
</svg>
