<svg viewBox="0 0 48 48" xmlns="http://www.w3.org/2000/svg" xmlns:xlink="http://www.w3.org/1999/xlink">
  <linearGradient id="a" gradientTransform="matrix(0 -1 1 0 -.0000015 47.999998)" gradientUnits="userSpaceOnUse" x1="1" x2="47">
    <stop offset="0" stop-color="#cfbcad"/>
    <stop offset="1" stop-color="#d6c6b9"/>
  </linearGradient>
  <path d="m47 24c0 22.703-.297 23-23 23-22.703 0-23-.297-23-23 0-22.703.297-23 23-23 22.703 0 23 .297 23 23z" fill="url(#a)"/>
  <path d="m15 15l-1 2 1 16 10 6 10-6 1-16-1-2-10 3z" fill-rule="evenodd" opacity=".1"/>
  <path d="m14 14l-1 2 1 16 10 6 10-6 1-16-1-2-10 3z" fill="#527cb3" fill-rule="evenodd"/>
  <path d="m15 16v15l9 5 9-5v-15l-9 3z" fill="#e04c4c" fill-rule="evenodd"/>
  <path d="m15 16v15l1 .555v-14.555l9 3 8-2.666v-1.334l-9 3z" fill-rule="evenodd" opacity=".1"/>
</svg>
