<svg xmlns="http://www.w3.org/2000/svg" viewBox="0 0 48 48">
 <defs>
  <linearGradient id="linearGradient3764" x1="1" x2="47" gradientUnits="userSpaceOnUse" gradientTransform="matrix(0,-1,1,0,-1.5e-6,47.999998)">
   <stop style="stop-color:#e4e4e4;stop-opacity:1"/>
   <stop offset="1" style="stop-color:#eee;stop-opacity:1"/>
  </linearGradient>
 </defs>
 <g>
  
  
  
 </g>
 <g>
  <path d="m 47,24 C 47,46.703 46.703,47 24,47 1.297,47 1,46.703 1,24 1,1.297 1.297,1 24,1 46.703,1 47,1.297 47,24 z" style="fill:url(#linearGradient3764);fill-opacity:1"/>
 </g>
 <g>
  <g>
   <g transform="translate(1,1)">
    <g style="opacity:0.1">
     <!-- color: #eeeeee -->
     <g>
      <path d="m 11 18 l 0 12 l 16 0 l 0 -2 l -14 0 l 0 -8 l 14 0 l 0 -2 m 4 0 l 0 2 l 4 0 l 0 8 l -4 0 l 0 2 l 6 0 l 0 -12 m -6 0" style="fill:#000;fill-opacity:1;stroke:none;fill-rule:nonzero"/>
      <path d="m 14 22 l 9 0 l 0 4 l -9 0 m 0 -4" style="fill:#000;fill-opacity:1;stroke:none;fill-rule:nonzero"/>
      <path d="m 28 34 l 0 -19.996 l 1.996 0 l 0 19.996 m -1.996 0" style="fill:#000;fill-opacity:1;stroke:none;fill-rule:nonzero"/>
      <path d="m 25.02 14 l 8 0 l 0 1.996 l -8 0 m 0 -1.996" style="fill:#000;fill-opacity:1;stroke:none;fill-rule:nonzero"/>
      <path d="m 25.02 31.996 l 8 0 l 0 2 l -8 0 m 0 -2" style="fill:#000;fill-opacity:1;stroke:none;fill-rule:nonzero"/>
     </g>
    </g>
   </g>
  </g>
 </g>
 <g>
  <g>
   <!-- color: #eeeeee -->
   <g>
    <path d="m 11 18 l 0 12 l 16 0 l 0 -2 l -14 0 l 0 -8 l 14 0 l 0 -2 m 4 0 l 0 2 l 4 0 l 0 8 l -4 0 l 0 2 l 6 0 l 0 -12 m -6 0" style="fill:#777;fill-opacity:1;stroke:none;fill-rule:nonzero"/>
    <path d="m 14 22 l 9 0 l 0 4 l -9 0 m 0 -4" style="fill:#282828;fill-opacity:1;stroke:none;fill-rule:nonzero"/>
    <path d="m 28 34 l 0 -19.996 l 1.996 0 l 0 19.996 m -1.996 0" style="fill:#ff9c36;fill-opacity:1;stroke:none;fill-rule:nonzero"/>
    <path d="m 25.02 14 l 8 0 l 0 1.996 l -8 0 m 0 -1.996" style="fill:#ff9c36;fill-opacity:1;stroke:none;fill-rule:nonzero"/>
    <path d="m 25.02 31.996 l 8 0 l 0 2 l -8 0 m 0 -2" style="fill:#ff9c36;fill-opacity:1;stroke:none;fill-rule:nonzero"/>
   </g>
  </g>
 </g>
 <g>
  
 </g>
</svg>
