<svg viewBox="0 0 48 48" xmlns="http://www.w3.org/2000/svg" xmlns:xlink="http://www.w3.org/1999/xlink">
  <linearGradient id="a" gradientTransform="matrix(0 -1 1 0 -.0000015 47.999998)" gradientUnits="userSpaceOnUse" x1="1" x2="47">
    <stop offset="0" stop-color="#e4e4e4"/>
    <stop offset="1" stop-color="#eee"/>
  </linearGradient>
  <path d="m47 24c0 22.703-.297 23-23 23-22.703 0-23-.297-23-23 0-22.703.297-23 23-23 22.703 0 23 .297 23 23z" fill="url(#a)"/>
  <g opacity=".1" transform="translate(1 1)">
    <path d="m11 18v12h16v-2h-14v-8h14v-2m4 0v2h4v8h-4v2h6v-12m-6 0"/>
    <path d="m14 22h9v4h-9m0-4"/>
    <path d="m28 34v-19.996h1.996v19.996m-1.996 0"/>
    <path d="m25.02 14h8v1.996h-8m0-1.996"/>
    <path d="m25.02 31.996h8v2h-8m0-2"/>
  </g>
  <path d="m11 18v12h16v-2h-14v-8h14v-2m4 0v2h4v8h-4v2h6v-12m-6 0" fill="#777"/>
  <path d="m14 22h9v4h-9m0-4" fill="#282828"/>
  <path d="m28 34v-19.996h1.996v19.996m-1.996 0" fill="#ff9c36"/>
  <path d="m25.02 14h8v1.996h-8m0-1.996" fill="#ff9c36"/>
  <path d="m25.02 31.996h8v2h-8m0-2" fill="#ff9c36"/>
</svg>
