<svg xmlns="http://www.w3.org/2000/svg" viewBox="0 0 48 48">
 <defs>
  <linearGradient id="linearGradient3764" x1="1" x2="47" gradientUnits="userSpaceOnUse" gradientTransform="matrix(0,-1,1,0,-1.5e-6,47.999998)">
   <stop style="stop-color:#d1bdaf;stop-opacity:1"/>
   <stop offset="1" style="stop-color:#d8c8bc;stop-opacity:1"/>
  </linearGradient>
 </defs>
 <g>
  
  
  
 </g>
 <g>
  <path d="m 47,24 C 47,46.703 46.703,47 24,47 1.297,47 1,46.703 1,24 1,1.297 1.297,1 24,1 46.703,1 47,1.297 47,24 z" style="fill:url(#linearGradient3764);fill-opacity:1"/>
 </g>
 <g>
  
 </g>
 <path d="m 18 13 0 4 4 0 0 -4 -4 0 z m 5 0 0 4 4 0 0 -4 -4 0 z m 5 0 0 4 4 0 0 -4 -4 0 z m -5 5 0 4 4 0 0 -4 -4 0 z m 5 0 0 4 4 0 0 -4 -4 0 z m 5 0 0 4 4 0 0 -4 -4 0 z m -20 2 0 2 4 0 0 -2 -4 0 z m 5 0 0 2 4 0 0 -2 -4 0 z m -5 3 0 4 4 0 0 -4 -4 0 z m 5 0 0 4 4 0 0 -4 -4 0 z m 5 0 0 2 0 2 4 0 0 -2 0 -2 -4 0 z m 5 0 0 4 4 0 0 -4 -4 0 z m 5 0 0 4 4 0 0 -4 -4 0 z m -20 5 0 4 4 0 0 -4 -4 0 z m 5 0 0 4 4 0 0 -4 -4 0 z m 5 0 0 4 4 0 0 -4 -4 0 z m 5 0 0 2 4 0 0 -2 -4 0 z m 5 0 0 2 4 0 0 -2 -4 0 z m -15 5 0 4 4 0 0 -4 -4 0 z m 5 0 0 4 4 0 0 -4 -4 0 z m 5 0 0 4 4 0 0 -4 -4 0 z" style="fill:#000;opacity:0.1;fill-opacity:1;stroke:none"/>
 <path d="m 17 12 l 0 4 l 4 0 l 0 -4 l -4 0 z m 5 0 l 0 4 l 4 0 l 0 -4 l -4 0 z m 5 0 l 0 4 l 4 0 l 0 -4 l -4 0 z m -5 5 l 0 4 l 4 0 l 0 -4 l -4 0 z m 5 0 l 0 4 l 4 0 l 0 -4 l -4 0 z m -15 2 l 0 2 l 4 0 l 0 -2 l -4 0 z m 5 0 l 0 2 l 4 0 l 0 -2 l -4 0 z m -5 3 l 0 4 l 4 0 l 0 -4 l -4 0 z m 5 0 l 0 4 l 4 0 l 0 -4 l -4 0 z m 5 0 l 0 2 l 4 0 l 0 -2 l -4 0 z m -10 5 l 0 4 l 4 0 l 0 -4 l -4 0 z" style="fill:#438bb7;opacity:1;fill-opacity:1;stroke:none"/>
 <path d="m 32 17 l 0 4 l 4 0 l 0 -4 l -4 0 z m -5 5 l 0 4 l 4 0 l 0 -4 l -4 0 z m 5 0 l 0 4 l 4 0 l 0 -4 l -4 0 z m -10 2 l 0 2 l 4 0 l 0 -2 l -4 0 z m -5 3 l 0 4 l 4 0 l 0 -4 l -4 0 z m 5 0 l 0 4 l 4 0 l 0 -4 l -4 0 z m 5 0 l 0 2 l 4 0 l 0 -2 l -4 0 z m 5 0 l 0 2 l 4 0 l 0 -2 l -4 0 z m -15 5 l 0 4 l 4 0 l 0 -4 l -4 0 z m 5 0 l 0 4 l 4 0 l 0 -4 l -4 0 z m 5 0 l 0 4 l 4 0 l 0 -4 l -4 0 z" style="fill:#f9f747;opacity:1;fill-opacity:1;stroke:none"/>
</svg>
