<svg viewBox="0 0 48 48" xmlns="http://www.w3.org/2000/svg" xmlns:xlink="http://www.w3.org/1999/xlink">
  <linearGradient id="a" gradientTransform="matrix(0 -1 1 0 -.0000015 47.999998)" gradientUnits="userSpaceOnUse" x1="1" x2="47">
    <stop offset="0" stop-color="#acacac"/>
    <stop offset="1" stop-color="#b6b6b6"/>
  </linearGradient>
  <path d="m47 24c0 22.703-.297 23-23 23-22.703 0-23-.297-23-23 0-22.703.297-23 23-23 22.703 0 23 .297 23 23z" fill="url(#a)"/>
  <path d="m25 13c-4 0-6 1-6 2.75v2.25h6v1h-8.25c-1.939 0-3.75 2-3.75 6 0 4 1.811 6 3.75 6h1.25v-3.5c0-1.662 1.338-3 3-3h7c1.662 0 3-1.338 3-3v-5.75c0-1.75-2-2.75-6-2.75m6.996 6v3.5c0 1.662-1.338 3-3 3h-7c-1.662 0-3 1.338-3 3v5.75c0 1.75 2 2.75 6 2.75 4 0 6-1 6-2.75v-2.25h-6v-1h8.25c1.939 0 3.754-2 3.754-6 0-4-1.815-6-3.754-6" opacity=".1"/>
  <path d="m24 12c-4 0-6 1-6 2.75v2.25h6v1h-8.25c-1.939 0-3.75 2-3.75 6 0 4 1.811 6 3.75 6h1.25v-3.5c0-1.662 1.338-3 3-3h7c1.662 0 3-1.338 3-3v-5.75c0-1.75-2-2.75-6-2.75z" fill="#4085b0"/>
  <path d="m23.997 36c4 0 6-1 6-2.75v-2.25h-6v-1h8.25c1.939 0 3.753-2 3.753-6 0-4-1.814-6-3.753-6h-1.25v3.5c0 1.662-1.338 3-3 3h-7c-1.662 0-3 1.338-3 3v5.75c0 1.75 2 2.75 6 2.75z" fill="#f9f747"/>
  <circle cx="21" cy="15" fill="#f9f9f9" r="1"/>
  <circle cx="27" cy="33" fill="#f9f9f9" r="1"/>
</svg>
