<svg xmlns="http://www.w3.org/2000/svg" viewBox="0 0 48 48">
 <defs>
  <linearGradient id="linearGradient3764" x1="1" x2="47" gradientUnits="userSpaceOnUse" gradientTransform="matrix(0,-1,1,0,-1.5e-6,47.999998)">
   <stop style="stop-color:#acacac;stop-opacity:1"/>
   <stop offset="1" style="stop-color:#b6b6b6;stop-opacity:1"/>
  </linearGradient>
 </defs>
 <g>
  
  
  
 </g>
 <g>
  <path d="m 47,24 C 47,46.703 46.703,47 24,47 1.297,47 1,46.703 1,24 1,1.297 1.297,1 24,1 46.703,1 47,1.297 47,24 z" style="fill:url(#linearGradient3764);fill-opacity:1"/>
 </g>
 <g>
  <g>
   <g transform="translate(1,1)">
    <g style="opacity:0.1">
     <!-- color: #b6b6b6 -->
    </g>
   </g>
  </g>
 </g>
 <g>
  
 </g>
 <path d="m 25 13 c -4 0 -6 1 -6 2.75 l 0 2.25 6 0 0 1 -8.25 0 c -1.939 0 -3.75 2 -3.75 6 c 0 4 1.811 6 3.75 6 l 1.25 0 0 -3.5 c 0 -1.662 1.338 -3 3 -3 l 7 0 c 1.662 0 3 -1.338 3 -3 l 0 -5.75 c 0 -1.75 -2 -2.75 -6 -2.75 m 6.996 6 0 3.5 c 0 1.662 -1.338 3 -3 3 l -7 0 c -1.662 0 -3 1.338 -3 3 l 0 5.75 c 0 1.75 2 2.75 6 2.75 4 0 6 -1 6 -2.75 l 0 -2.25 -6 0 0 -1 8.25 0 c 1.939 0 3.754 -2 3.754 -6 0 -4 -1.815 -6 -3.754 -6" style="fill:#000;opacity:0.1;fill-opacity:1;stroke:none"/>
 <path d="m 24,12 c -4,0 -6,1 -6,2.75 l 0,2.25 6,0 0,1 -8.25,0 C 13.811,18 12,20 12,24 c 0,4 1.811,6 3.75,6 l 1.25,0 0,-3.5 c 0,-1.662 1.338,-3 3,-3 l 7,0 c 1.662,0 3,-1.338 3,-3 l 0,-5.75 C 30,13 28,12 24,12 Z" style="fill:#4085b0;opacity:1;fill-opacity:1;stroke:none"/>
 <path d="m 23.997,36 c 4,0 6,-1 6,-2.75 l 0,-2.25 -6,0 0,-1 8.25,0 C 34.186,30 36,28 36,24 36,20 34.186,18 32.247,18 l -1.25,0 0,3.5 c 0,1.662 -1.338,3 -3,3 l -7,0 c -1.662,0 -3,1.338 -3,3 l 0,5.75 c 0,1.75 2,2.75 6,2.75 z" style="fill:#f9f747;opacity:1;fill-opacity:1;stroke:none"/>
 <circle cx="21" cy="15" r="1" style="fill:#f9f9f9;opacity:1;fill-opacity:1;stroke:none"/>
 <circle cx="27" cy="33" r="1" style="fill:#f9f9f9;opacity:1;fill-opacity:1;stroke:none"/>
</svg>
