<svg viewBox="0 0 48 48" xmlns="http://www.w3.org/2000/svg" xmlns:xlink="http://www.w3.org/1999/xlink">
  <linearGradient id="a" gradientUnits="userSpaceOnUse" x1="1" x2="47">
    <stop offset="0" stop-color="#ffcf7f"/>
    <stop offset="1" stop-color="#ffd793"/>
  </linearGradient>
  <path d="m24 1c22.703 0 23 .297 23 23 0 22.703-.297 23-23 23-22.703 0-23-.297-23-23 0-22.703.297-23 23-23z" fill="url(#a)" transform="matrix(0 -1 1 0 0 48)"/>
  <path d="m25.26 10a15 15 0 0 0-.912.01 15 15 0 0 0-14.338 15.488 15 15 0 0 0  15.334 14.498 15 15 0 0 0  14.655-15.185l-.02-.617a15 15 0 0 0-14.719-14.194m-.82 2.01a13 13 0 0 1  .564.004v10.687a2.3 2.3 0 0 0-.1 0 2.3 2.3 0 0 0-.07.006l-5.438-9.42a13 13 0 0 1 5.04-1.277zm1.564.037a13 13 0 0 1 5.492 1.705l-5.344 9.256a2.3 2.3 0 0 0-.148-.08zm-7.494 1.701l5.346 9.26a2.3 2.3 0 0 0-.145.09l-9.42-5.438a13 13 0 0 1 4.219-3.912zm13.832.537a13 13 0 0 1 3.916 4.217l-9.264 5.348a2.3 2.3 0 0 0-.09-.145l5.437-9.42zm-18.582 4.221l9.256 5.344a2.3 2.3 0 0 0-.082.148h-10.885a13 13 0 0 1 1.711-5.492zm22.957.885a13 13 0 0 1 1.268 4.908l.018.535a13 13 0 0 1-.006.164h-10.693a2.3 2.3 0 0 0  .002-.029l-.004-.094a2.3 2.3 0 0 0-.004-.047l9.42-5.438zm-24.697 5.607h10.688a2.3 2.3 0 0 0-.002.076 2.3 2.3 0 0 0  .006.094l-9.416 5.436a13 13 0 0 1-1.283-5.174 13 13 0 0 1  .008-.432zm15.05 1h10.887a13 13 0 0 1-1.709 5.492l-9.256-5.344a2.3 2.3 0 0 0  .078-.148zm-4.059.148a2.3 2.3 0 0 0  .09.146l-5.44 9.423a13 13 0 0 1-3.906-4.223l9.256-5.344zm3.283.752l9.426 5.441a13 13 0 0 1-4.227 3.902l-5.344-9.254a2.3 2.3 0 0 0  .145-.09zm-2.441.09a2.3 2.3 0 0 0  .148.078v10.893a13 13 0 0 1-5.49-1.717zm1.318.303l5.438 9.418a13 13 0 0 1-5.311 1.285 13 13 0 0 1-.297-.008v-10.691a2.3 2.3 0 0 0  .053.002 2.3 2.3 0 0 0  .117-.006z" fill-opacity=".098"/>
  <path d="m23-22h1v12h-1z" fill="#646464" transform="rotate(90)"/>
  <path d="m24 10h1v12h-1z" fill="#646464"/>
  <path d="m32.785-5.215h1v12h-1z" fill="#646464" transform="matrix(.8660254 .5 -.5 .8660254 0 0)"/>
  <path d="m23 26h1v12h-1z" fill="#646464"/>
  <path d="m32.785-22.785h1v12h-1z" fill="#646464" transform="matrix(.5 .8660254 -.8660254 .5 0 0)"/>
  <path d="m31.785 10.785h1v12h-1z" fill="#646464" transform="matrix(.8660254 .5 -.5 .8660254 0 0)"/>
  <path d="m24-38h1v12h-1z" fill="#646464" transform="rotate(90)"/>
  <path d="m31.785-6.785h1v12h-1z" fill="#646464" transform="matrix(.5 .8660254 -.8660254 .5 0 0)"/>
  <path d="m8.785-46.785h1v12h-1z" fill="#646464" transform="matrix(-.5 .8660254 -.8660254 -.5 0 0)"/>
  <path d="m7.785-30.785h1v12h-1z" fill="#646464" transform="matrix(-.5 .8660254 -.8660254 -.5 0 0)"/>
  <path d="m-8.785-46.785h1v12h-1z" fill="#646464" transform="matrix(-.8660254 .5 -.5 -.8660254 0 0)"/>
  <path d="m-9.785-30.785h1v12h-1z" fill="#646464" transform="matrix(-.8660254 .5 -.5 -.8660254 0 0)"/>
  <path d="m23.348 9.01a15 15 0 0 0-14.338 15.488 15 15 0 0 0  15.334 14.498 15 15 0 0 0  14.655-15.185l-.02-.617a15 15 0 0 0-15.631-14.184m.088 1.998a13 13 0 0 1 13.545 12.289l.018.535a13 13 0 0 1-12.702 13.164 13 13 0 0 1-13.287-12.564 13 13 0 0 1  12.426-13.422" fill="#333"/>
  <path d="m26.3 23.971a2.3 2.3 0 0 1-2.247 2.328 2.3 2.3 0 0 1-2.351-2.223 2.3 2.3 0 0 1  2.199-2.374 2.3 2.3 0 0 1  2.397 2.174" fill="#333"/>
</svg>
