<svg xmlns="http://www.w3.org/2000/svg" viewBox="0 0 48 48">
 <defs>
  <linearGradient id="linearGradient3764" x1="1" x2="47" gradientUnits="userSpaceOnUse" gradientTransform="matrix(0,-1,1,0,-1.5e-6,47.999998)">
   <stop style="stop-color:#f2eeba;stop-opacity:1"/>
   <stop offset="1" style="stop-color:#f5f2cb;stop-opacity:1"/>
  </linearGradient>
 </defs>
 <g>
  
  
  
 </g>
 <g>
  <path d="m 47,24 C 47,46.703 46.703,47 24,47 1.297,47 1,46.703 1,24 1,1.297 1.297,1 24,1 46.703,1 47,1.297 47,24 z" style="fill:url(#linearGradient3764);fill-opacity:1"/>
 </g>
 <g>
  
 </g>
 <path d="m 14 16 c -1.108 0 -2 0.892 -2 2 l 0 14 c 0 1.108 0.892 2 2 2 l 8 0 c 1.108 0 2 -0.892 2 -2 l 0 -14 c 0 -1.108 -0.892 -2 -2 -2 l -8 0 z m 12 0 c -0.554 0 -1 0.446 -1 1 l 0 7 c 0 0.554 0.446 1 1 1 l 11 0 c 0.554 0 1 -0.446 1 -1 l 0 -7 c 0 -0.554 -0.446 -1 -1 -1 l -11 0 z m 0 10 c -0.554 0 -1 0.446 -1 1 l 0 6 c 0 0.554 0.446 1 1 1 l 4 0 c 0.554 0 1 -0.446 1 -1 l 0 -6 c 0 -0.554 -0.446 -1 -1 -1 l -4 0 z m 7 0 c -0.554 0 -1 0.446 -1 1 l 0 6 c 0 0.554 0.446 1 1 1 l 4 0 c 0.554 0 1 -0.446 1 -1 l 0 -6 c 0 -0.554 -0.446 -1 -1 -1 l -4 0 z" style="fill:#000;opacity:0.1;fill-opacity:1;stroke:none"/>
 <rect width="12" height="18" x="11" y="15" rx="2" style="fill:#268bd2;opacity:1;fill-opacity:1;stroke:none"/>
 <rect width="13" height="9" x="24" y="15" rx="1" style="fill:#de3d3a;opacity:1;fill-opacity:1;stroke:none"/>
 <rect width="6" height="8" x="24" y="25" rx="1" style="fill:#879a06;opacity:1;fill-opacity:1;stroke:none"/>
 <rect width="6" height="8" x="31" y="25" rx="1" style="fill:#879a06;opacity:1;fill-opacity:1;stroke:none"/>
 <path d="m 13.5,18 c -0.277,0 -0.5,0.223 -0.5,0.5 0,0.277 0.223,0.5 0.5,0.5 l 7,0 C 20.777,19 21,18.777 21,18.5 21,18.223 20.777,18 20.5,18 l -7,0 z m 0,3 c -0.277,0 -0.5,0.223 -0.5,0.5 0,0.277 0.223,0.5 0.5,0.5 l 7,0 C 20.777,22 21,21.777 21,21.5 21,21.223 20.777,21 20.5,21 l -7,0 z m 0,3 c -0.277,0 -0.5,0.223 -0.5,0.5 0,0.277 0.223,0.5 0.5,0.5 l 7,0 C 20.777,25 21,24.777 21,24.5 21,24.223 20.777,24 20.5,24 l -7,0 z m 0,5 c -0.277,0 -0.5,0.223 -0.5,0.5 0,0.277 0.223,0.5 0.5,0.5 l 5,0 C 18.777,30 19,29.777 19,29.5 19,29.223 18.777,29 18.5,29 l -5,0 z" style="fill:#1c689d;opacity:1;fill-opacity:1;stroke:none"/>
 <path d="m 26.48 17 c -0.123 0 -0.246 0.047 -0.34 0.141 -0.188 0.187 -0.188 0.487 0 0.674 l 1.699 1.686 -1.699 1.686 c -0.188 0.187 -0.188 0.487 0 0.674 0.188 0.187 0.491 0.187 0.68 0 l 2.039 -2.02 c 0.188 -0.187 0.188 -0.489 0 -0.676 l -2.039 -2.02 c -0.094 -0.093 -0.217 -0.141 -0.34 -0.141 m 3 0 c -0.123 0 -0.246 0.047 -0.34 0.141 -0.188 0.187 -0.188 0.487 0 0.674 l 1.699 1.686 -1.699 1.686 c -0.188 0.187 -0.188 0.487 0 0.674 0.188 0.187 0.491 0.187 0.68 0 l 2.039 -2.02 c 0.188 -0.187 0.188 -0.489 0 -0.676 l -2.039 -2.02 c -0.094 -0.093 -0.217 -0.141 -0.34 -0.141 m 3 0 c -0.123 0 -0.246 0.047 -0.34 0.141 -0.188 0.187 -0.188 0.487 0 0.674 l 1.699 1.686 -1.699 1.686 c -0.188 0.187 -0.188 0.487 0 0.674 0.188 0.187 0.491 0.187 0.68 0 l 2.039 -2.02 c 0.188 -0.187 0.188 -0.489 0 -0.676 l -2.039 -2.02 c -0.094 -0.093 -0.217 -0.141 -0.34 -0.141" style="fill:#a52523;opacity:1;fill-opacity:1;stroke:none"/>
</svg>
