<svg viewBox="0 0 48 48" xmlns="http://www.w3.org/2000/svg" xmlns:xlink="http://www.w3.org/1999/xlink">
  <linearGradient id="a" gradientTransform="matrix(0 -1 1 0 -.0000015 47.999998)" gradientUnits="userSpaceOnUse" x1="1" x2="47">
    <stop offset="0" stop-color="#8ac23a"/>
    <stop offset="1" stop-color="#93c849"/>
  </linearGradient>
  <path d="m47 24c0 22.703-.297 23-23 23-22.703 0-23-.297-23-23 0-22.703.297-23 23-23 22.703 0 23 .297 23 23z" fill="url(#a)"/>
  <g opacity=".1" transform="translate(1 1)">
    <path d="m32.395 12.01c-.965.02-1.91.645-2.063 1.844-.242 1.898 1.574 1.188 3.03 1.188 1.457 0 1.938 3.09 1.578 4.75-.367 1.66-4.23 5.59-12.969 1.66-7.195-3.234-10.789 1.074-10.969 1.16.68 6.426 6.227 13.398 12.969 13.398 7.188 0 13.03-7.688 13.03-14.734 0-.813-.098-1.609-.242-2.379-.133-.387-.266-.773-.363-1.129-.18-.633-.375-1.164-.547-1.66-.008-.02.008-.043 0-.063-.688-1.5-1.656-2.855-2.848-3.98-.008-.012-.027.008-.031 0-.188-.047-.383-.063-.574-.063m.004.004"/>
    <path d="m30.395 16.531c0 .391-.324.711-.727.711-.398 0-.727-.32-.727-.711 0-.395.328-.715.727-.715.402 0 .727.32.727.715m0 0"/>
    <path d="m28.938 13.941c0 .281-.23.508-.512.508-.285 0-.516-.227-.516-.508 0-.277.23-.504.516-.504.281 0 .512.227.512.504m0 0"/>
  </g>
  <path d="m32.395 12.01c-.965.02-1.91.645-2.063 1.844-.242 1.898 1.574 1.188 3.03 1.188 1.457 0 1.938 3.09 1.578 4.75-.367 1.66-4.23 5.59-12.969 1.66-7.195-3.234-10.789 1.074-10.969 1.16.68 6.426 6.227 13.398 12.969 13.398 7.188 0 13.03-7.688 13.03-14.734 0-.813-.098-1.609-.242-2.379-.133-.387-.266-.773-.363-1.129-.18-.633-.375-1.164-.547-1.66-.008-.02.008-.043 0-.063-.688-1.5-1.656-2.855-2.848-3.98-.008-.012-.027.008-.031 0-.188-.047-.383-.063-.574-.063m.004.004" fill="#f9f9f9"/>
  <path d="m30.395 16.531c0 .391-.324.711-.727.711-.398 0-.727-.32-.727-.711 0-.395.328-.715.727-.715.402 0 .727.32.727.715m0 0" fill="#f9f9f9"/>
  <path d="m28.938 13.941c0 .281-.23.508-.512.508-.285 0-.516-.227-.516-.508 0-.277.23-.504.516-.504.281 0 .512.227.512.504m0 0" fill="#f9f9f9"/>
</svg>
