<svg viewBox="0 0 48 48" xmlns="http://www.w3.org/2000/svg" xmlns:xlink="http://www.w3.org/1999/xlink">
  <linearGradient id="a" gradientTransform="matrix(0 -1 1 0 -.0000015 47.999998)" gradientUnits="userSpaceOnUse" x1="1" x2="47">
    <stop offset="0" stop-color="#1256aa"/>
    <stop offset="1" stop-color="#145fbb"/>
  </linearGradient>
  <path d="m47 24c0 22.703-.297 23-23 23-22.703 0-23-.297-23-23 0-22.703.297-23 23-23 22.703 0 23 .297 23 23z" fill="url(#a)"/>
  <g opacity=".1" transform="translate(1 1)">
    <path d="m15.289 17.609c-3.477 0-6.289 2.902-6.289 6.492 0 3.59 2.813 6.488 6.289 6.488 1.844 0 3.559-.285 4.711-1.59v6c0 .898.629 1.5 1.5 1.5.871 0 1.5-.602 1.5-1.5v-16c0-.898-.617-1.395-1.488-1.395-.871 0-1.457.496-1.512 1.395l-.043.711.043 2.289h2c-1.082 1.543-1.848 2.508-3 4-1.188-1.508-1.816-2.488-3-4h2v-4c-.633-.215-2.01-.395-2.711-.395m0 .004"/>
    <path d="m26.453 11.5c-.871 0-1.453.602-1.453 1.5v16c0 .902.582 1.59 1.453 1.59.871 0 1.469-.691 1.547-1.59l.043-.516-.043-2.484h-2c1.129-1.441 1.867-2.555 3-4 1.184 1.516 1.813 2.492 3 4h-2v4c .633.219 2.01.59 2.711.59 3.477 0 6.289-2.902 6.289-6.488 0-3.59-2.813-6.492-6.289-6.492-1.844 0-3.559 1.09-4.711 2.395v-7c0-.902-.672-1.5-1.547-1.5m0-.004"/>
  </g>
  <path d="m15.289 17.609c-3.477 0-6.289 2.902-6.289 6.492 0 3.59 2.813 6.488 6.289 6.488 1.844 0 3.559-.285 4.711-1.59v6c0 .898.629 1.5 1.5 1.5.871 0 1.5-.602 1.5-1.5v-16c0-.898-.617-1.395-1.488-1.395-.871 0-1.457.496-1.512 1.395l-.043.711.043 2.289h2c-1.082 1.543-1.848 2.508-3 4-1.188-1.508-1.816-2.488-3-4h2v-4c-.633-.215-2.01-.395-2.711-.395m0 .004" fill="#fff"/>
  <path d="m26.453 11.5c-.871 0-1.453.602-1.453 1.5v16c0 .902.582 1.59 1.453 1.59.871 0 1.469-.691 1.547-1.59l.043-.516-.043-2.484h-2c1.129-1.441 1.867-2.555 3-4 1.184 1.516 1.813 2.492 3 4h-2v4c .633.219 2.01.59 2.711.59 3.477 0 6.289-2.902 6.289-6.488 0-3.59-2.813-6.492-6.289-6.492-1.844 0-3.559 1.09-4.711 2.395v-7c0-.902-.672-1.5-1.547-1.5m0-.004" fill="#fff"/>
</svg>
