<svg xmlns="http://www.w3.org/2000/svg" viewBox="0 0 48 48">
 <defs>
  <linearGradient id="linearGradient3764" x1="1" x2="47" gradientUnits="userSpaceOnUse" gradientTransform="matrix(0,-1,1,0,-1.5e-6,47.999998)">
   <stop style="stop-color:#e9e9e9;stop-opacity:1"/>
   <stop offset="1" style="stop-color:#f3f3f3;stop-opacity:1"/>
  </linearGradient>
 </defs>
 <g>
  
  
  
 </g>
 <g>
  <path d="m 47,24 C 47,46.703 46.703,47 24,47 1.297,47 1,46.703 1,24 1,1.297 1.297,1 24,1 46.703,1 47,1.297 47,24 z" style="fill:url(#linearGradient3764);fill-opacity:1"/>
 </g>
 <path d="m 24 1 0 7 -7 0 0 -5.906 c -0.337 0.108 -0.67 0.221 -1 0.344 l 0 5.563 -7 0 l 0 -1.438 c -0.346 0.298 -0.673 0.62 -1 0.938 l 0 0.5 -0.5 0 c -0.318 0.327 -0.64 0.654 -0.938 1 l 1.438 0 0 7 -5.563 0 c -0.123 0.33 -0.236 0.663 -0.344 1 l 5.906 0 0 7 l -7 0 c 0 0.334 0.017 0.669 0.031 1 l 6.969 0 0 7 -5.563 0 c 0.127 0.342 0.264 0.666 0.406 1 l 5.156 0 0 7 -0.5 0 c 0.481 0.496 0.976 0.986 1.5 1.438 l 0 -0.438 l 7 0 l 0 4.563 c 0.33 0.123 0.663 0.236 1 0.344 l 0 -4.906 l 7 0 0 6 c 0.334 0 0.669 -0.017 1 -0.031 l 0 -5.969 l 7 0 0 4.563 c 0.342 -0.127 0.666 -0.264 1 -0.406 l 0 -4.156 l 6.5 0 c 0.522 -0.476 1.024 -0.978 1.5 -1.5 l 0 -6.5 4.156 0 c 0.142 -0.334 0.279 -0.658 0.406 -1 l -4.563 0 l 0 -7 5.969 0 c 0.014 -0.331 0.031 -0.666 0.031 -1 l -6 0 0 -7 4.906 0 c -0.108 -0.337 -0.221 -0.67 -0.344 -1 l -4.563 0 0 -7 0.438 0 c -0.451 -0.524 -0.941 -1.019 -1.438 -1.5 l 0 0.5 -7 0 0 -5.156 c -0.334 -0.142 -0.658 -0.279 -1 -0.406 l 0 5.563 -7 0 0 -6.969 c -0.331 -0.014 -0.666 -0.031 -1 -0.031 m -15 8 7 0 l 0 7 -7 0 0 -7 z m 8 0 l 7 0 0 7 -7 0 0 -7 z m 8 0 7 0 0 7 -7 0 0 -7 z m 8 0 7 0 0 7 -7 0 0 -7 z m -24 8 7 0 l 0 7 -7 0 0 -7 z m 8 0 l 7 0 0 7 -7 0 0 -7 z m 8 0 7 0 0 7 -7 0 0 -7 z m 8 0 7 0 0 7 -7 0 0 -7 z m -24 8 7 0 l 0 7 -7 0 0 -7 z m 8 0 l 7 0 0 7 -7 0 0 -7 z m 8 0 7 0 0 7 -7 0 0 -7 z m 8 0 7 0 0 7 -7 0 0 -7 z m -24 8 7 0 l 0 7 -7 0 0 -7 z m 8 0 l 7 0 0 7 -7 0 0 -7 z m 8 0 7 0 0 7 -7 0 0 -7 z m 8 0 7 0 0 7 -7 0 0 -7 z" style="fill:#a0dad0;fill-opacity:0.941"/>
 <path d="M 25 12 A 13 13 0 0 0 12 25 a 13 13 0 0 0 13 13 13 13 0 0 0 6.789 -1.934 l 1.033 1.035 c 0.275 0.275 0.722 0.269 1 -0.012 l 0.289 -0.289 c 0.28 -0.281 0.284 -0.729 0.001 -1 l -0.807 -0.809 a 13 13 0 0 0 0.176 -0.154 l 0.797 0.797 c 0.275 0.275 0.722 0.269 1 -0.012 l 0.289 -0.289 c 0.28 -0.281 0.284 -0.729 0.001 -1 l -0.799 -0.799 a 13 13 0 0 0 0.156 -0.18 l 0.811 0.813 c 0.275 0.275 0.722 0.269 1 -0.012 l 0.289 -0.289 c 0.28 -0.281 0.284 -0.729 0.001 -1 l -1.014 -1.016 a 13 13 0 0 0 1.955 -6.84 13 13 0 0 0 -13 -13 z m 0 4 a 9 9 0 0 1 9 9 9 9 0 0 1 -0.898 3.891 l -3.547 -3.555 c -0.275 -0.275 -0.722 -0.271 -1 0.001 l -0.289 0.291 c -0.28 0.281 -0.284 0.729 -0.001 1 l 3.854 3.861 a 9 9 0 0 1 -0.145 0.191 l -3.877 -3.887 c -0.275 -0.275 -0.722 -0.269 -1 0.012 l -0.289 0.289 c -0.28 0.281 -0.284 0.729 -0.001 1 l 3.873 3.883 a 9 9 0 0 1 -0.186 0.145 l -3.854 -3.861 c -0.275 -0.275 -0.722 -0.271 -1 0.001 l -0.289 0.291 c -0.28 0.281 -0.284 0.729 -0.001 1 l 3.535 3.541 a 9 9 0 0 1 -3.854 0.877 9 9 0 0 1 -9 -9 9 9 0 0 1 9 -9 z m -3 6 2.686 6.947 4.248 -4.256 -6.934 -2.691 z m 15.709 11.486 -4.248 4.256 c 2.163 1.218 5.554 -2.155 4.248 -4.256 z" style="fill:#000;opacity:0.1;fill-opacity:1;stroke:none"/>
 <path d="M 24 11 A 13 13 0 0 0 11 24 A 13 13 0 0 0 24 37 A 13 13 0 0 0 37 24 A 13 13 0 0 0 24 11 z M 24 15 A 9 9 0 0 1 33 24 A 9 9 0 0 1 24 33 A 9 9 0 0 1 15 24 A 9 9 0 0 1 24 15 z" style="fill:#3d538b;fill-opacity:1;stroke:none"/>
 <g>
  
 </g>
 <g transform="matrix(0.70824052,-0.70824052,0.70824052,0.70824052,10.874409,6.0545814)">
  <g transform="matrix(0.70681256,-0.70824239,0.70681256,0.70824239,-19.906174,6.8351523)">
   <rect width="1.84" height="11.988" x="13.518" y="17.843" rx="0.715" ry="0.699" transform="matrix(0.70780476,0.70640811,-0.70783744,0.70637537,0,0)" style="fill:#e78816;fill-opacity:1;stroke:none"/>
   <rect ry="0.699" rx="0.715" y="17.843" x="15.593" height="11.988" width="1.84" transform="matrix(0.70780476,0.70640811,-0.70783744,0.70637537,0,0)" style="fill:#e78816;fill-opacity:1;stroke:none"/>
   <rect width="1.84" height="11.988" x="17.669" y="17.843" rx="0.715" ry="0.699" transform="matrix(0.70780476,0.70640811,-0.70783744,0.70637537,0,0)" style="fill:#e78816;fill-opacity:1;stroke:none"/>
   <path d="m 4 19.345 -2.678 6.915 -4.251 -4.243 z" style="fill:#eed28e;fill-opacity:1;stroke:none"/>
   <path d="m 4 19.345 -3.08 1.187 1.89 1.887 1.19 -3.074" style="fill:#2d2d2d;fill-opacity:1;stroke:none"/>
   <path d="m -7.44 35.01 -4.251 -4.243 c -1.213 2.157 2.157 5.544 4.251 4.243 z" style="fill:#b85a5a;fill-opacity:1;stroke:none"/>
  </g>
 </g>
</svg>
