<svg viewBox="0 0 48 48" xmlns="http://www.w3.org/2000/svg" xmlns:xlink="http://www.w3.org/1999/xlink">
  <linearGradient id="a" gradientTransform="matrix(0 -1 1 0 -.0000015 47.999998)" gradientUnits="userSpaceOnUse" x1="1" x2="47">
    <stop offset="0" stop-color="#e9e9e9"/>
    <stop offset="1" stop-color="#f3f3f3"/>
  </linearGradient>
  <path d="m47 24c0 22.703-.297 23-23 23-22.703 0-23-.297-23-23 0-22.703.297-23 23-23 22.703 0 23 .297 23 23z" fill="url(#a)"/>
  <path d="m24 1v7h-7v-5.906c-.337.108-.67.221-1 .344v5.563h-7v-1.438c-.346.298-.673.62-1 .938v.5h-.5c-.318.327-.64.654-.938 1h1.438v7h-5.563c-.123.33-.236.663-.344 1h5.906v7h-7c0 .334.017.669.031 1h6.969v7h-5.563c.127.342.264.666.406 1h5.156v7h-.5c.481.496.976.986 1.5 1.438v-.438h7v4.563c.33.123.663.236 1 .344v-4.906h7v6c .334 0 .669-.017 1-.031v-5.969h7v4.563c.342-.127.666-.264 1-.406v-4.156h6.5c.522-.476 1.024-.978 1.5-1.5v-6.5h4.156c.142-.334.279-.658.406-1h-4.563v-7h5.969c.014-.331.031-.666.031-1h-6v-7h4.906c-.108-.337-.221-.67-.344-1h-4.563v-7h .438c-.451-.524-.941-1.019-1.438-1.5v.5h-7v-5.156c-.334-.142-.658-.279-1-.406v5.563h-7v-6.969c-.331-.014-.666-.031-1-.031m-15 8h7v7h-7zm8 0h7v7h-7zm8 0h7v7h-7zm8 0h7v7h-7zm-24 8h7v7h-7zm8 0h7v7h-7zm8 0h7v7h-7zm8 0h7v7h-7zm-24 8h7v7h-7zm8 0h7v7h-7zm8 0h7v7h-7zm8 0h7v7h-7zm-24 8h7v7h-7zm8 0h7v7h-7zm8 0h7v7h-7zm8 0h7v7h-7z" fill="#a0dad0" fill-opacity=".941"/>
  <path d="m25 12a13 13 0 0 0-13 13 13 13 0 0 0  13 13 13 13 0 0 0  6.789-1.934l1.033 1.035c.275.275.722.269 1-.012l.289-.289c.28-.281.284-.729.001-1l-.807-.809a13 13 0 0 0  .176-.154l.797.797c.275.275.722.269 1-.012l.289-.289c.28-.281.284-.729.001-1l-.799-.799a13 13 0 0 0  .156-.18l.811.813c.275.275.722.269 1-.012l.289-.289c.28-.281.284-.729.001-1l-1.014-1.016a13 13 0 0 0 1.955-6.84 13 13 0 0 0-13-13zm0 4a9 9 0 0 1 9 9 9 9 0 0 1-.898 3.891l-3.547-3.555c-.275-.275-.722-.271-1 .001l-.289.291c-.28.281-.284.729-.001 1l3.854 3.861a9 9 0 0 1-.145.191l-3.877-3.887c-.275-.275-.722-.269-1 .012l-.289.289c-.28.281-.284.729-.001 1l3.873 3.883a9 9 0 0 1-.186.145l-3.854-3.861c-.275-.275-.722-.271-1 .001l-.289.291c-.28.281-.284.729-.001 1l3.535 3.541a9 9 0 0 1-3.854.877 9 9 0 0 1-9-9 9 9 0 0 1  9-9zm-3 6l2.686 6.947 4.248-4.256zm15.709 11.486l-4.248 4.256c2.163 1.218 5.554-2.155 4.248-4.256z" opacity=".1"/>
  <path d="m24 11a13 13 0 0 0-13 13 13 13 0 0 0  13 13 13 13 0 0 0  13-13 13 13 0 0 0-13-13zm0 4a9 9 0 0 1 9 9 9 9 0 0 1-9 9 9 9 0 0 1-9-9 9 9 0 0 1  9-9z" fill="#3d538b"/>
  <g transform="matrix(-.00101266 -1.00219925 1.00219925 .00101266 1.61698179 24.99387224)">
    <rect fill="#e78816" height="11.988" rx=".715" ry=".699" transform="matrix(.70780476 .70640811 -.70783744 .70637537 0 0)" width="1.84" x="13.518" y="17.843"/>
    <rect fill="#e78816" height="11.988" rx=".715" ry=".699" transform="matrix(.70780476 .70640811 -.70783744 .70637537 0 0)" width="1.84" x="15.593" y="17.843"/>
    <rect fill="#e78816" height="11.988" rx=".715" ry=".699" transform="matrix(.70780476 .70640811 -.70783744 .70637537 0 0)" width="1.84" x="17.669" y="17.843"/>
    <path d="m4 19.345l-2.678 6.915-4.251-4.243z" fill="#eed28e"/>
    <path d="m4 19.345l-3.08 1.187 1.89 1.887z" fill="#2d2d2d"/>
    <path d="m-7.44 35.01l-4.251-4.243c-1.213 2.157 2.157 5.544 4.251 4.243z" fill="#b85a5a"/>
  </g>
</svg>
