<svg viewBox="0 0 48 48" xmlns="http://www.w3.org/2000/svg" xmlns:xlink="http://www.w3.org/1999/xlink">
  <linearGradient id="a" gradientTransform="matrix(0 -1 1 0 -.0000015 47.999998)" gradientUnits="userSpaceOnUse" x1="1" x2="47">
    <stop offset="0" stop-color="#e4e4e4"/>
    <stop offset="1" stop-color="#eee"/>
  </linearGradient>
  <path d="m47 24c0 22.703-.297 23-23 23-22.703 0-23-.297-23-23 0-22.703.297-23 23-23 22.703 0 23 .297 23 23z" fill="url(#a)"/>
  <g transform="translate(0 2.0000005)">
    <g transform="matrix(.92943428 0 0 .9240382 1.69495198 -6.43486494)">
      <path d="m25.07 17.786c-1.514 0-3.01.596-4.169 1.759-1.02 1.025-1.595 2.313-1.715 3.652h-7.03v14.07h11.835v1.623h1.076v-4.329h-1.076v1.623h-10.759v-11.904h5.951c.12 1.34.695 2.627 1.715 3.652 2.311 2.324 6.03 2.324 8.338 0 1.02-1.025 1.595-2.313 1.715-3.652h5.951v11.904h-9.683v-3.247h-1.076v7.575h1.076v-3.247h10.759v-14.07h-7.03c-.12-1.34-.695-2.627-1.715-3.652-1.155-1.162-2.655-1.759-4.169-1.759zm0 1.116c1.058 0 2.113.342 2.992 1.048l-2.992 3.01-2.992-3.01c.88-.706 1.935-1.048 2.992-1.048zm-3.766 1.826l2.992 3.01-2.992 3.01c-1.404-1.77-1.404-4.25 0-6.02zm7.531 0c1.404 1.77 1.404 4.25 0 6.02l-2.992-3.01zm-3.766 3.788l2.992 3.01c-1.76 1.412-4.225 1.412-5.985 0l2.992-3.01z" fill-opacity=".118"/>
      <path d="m24 9c-1.408 0-2.801.551-3.875 1.625-.948.948-1.482 2.137-1.594 3.375h-6.531v13h11v1.5h1v-4h-1v1.5h-10v-11h5.531c.112 1.238.646 2.427 1.594 3.375 2.148 2.148 5.602 2.148 7.75 0 .948-.948 1.482-2.137 1.594-3.375h5.531v11h-9v-3h-1v7h1v-3h10v-13h-6.531c-.112-1.238-.646-2.427-1.594-3.375-1.074-1.074-2.467-1.625-3.875-1.625zm0 1.031c.983 0 1.963.316 2.781.969l-2.781 2.781-2.781-2.781c.818-.653 1.798-.969 2.781-.969zm-3.5 1.688l2.781 2.781-2.781 2.781c-1.305-1.636-1.305-3.927 0-5.563zm7 0c1.305 1.636 1.305 3.927 0 5.563l-2.781-2.781 2.781-2.781zm-3.5 3.5l2.781 2.781c-1.636 1.305-3.927 1.305-5.563 0l2.781-2.781z" fill="#2d2d2d" transform="matrix(1.0759233 0 0 1.0822063 -1.8236383 6.9638516)"/>
    </g>
    <g transform="matrix(.99980004 0 0 .74925073 -.00019996 25.743756)">
      <path d="m34.444 13.685c0 0 .563-.324.563-1.996 0-1.613-.633-2-.633-2h-15.366l-4 1.996 4 2" fill-opacity=".118"/>
      <path d="m33.444 12.35c0 0 .563-.324.563-1.996 0-1.613-.633-2-.633-2h-15.366l-4 1.996 4 2" fill="#3474c3"/>
      <path d="m18 8.354l-4 2 4 2" fill="#e2b75a"/>
      <path d="m16 9.354l-2 .994 2 1.01" fill="#2d2d2d"/>
      <path d="m31 8.35v4h2.441c0 0 .56-.324.56-2 0-1.613-.6-2-.6-2" fill="#df5775"/>
    </g>
  </g>
</svg>
