<svg viewBox="0 0 48 48" xmlns="http://www.w3.org/2000/svg" xmlns:xlink="http://www.w3.org/1999/xlink">
  <linearGradient id="a" gradientTransform="matrix(0 -1 1 0 -.0000015 47.999998)" gradientUnits="userSpaceOnUse" x1="1" x2="47">
    <stop offset="0" stop-color="#333"/>
    <stop offset="1" stop-color="#3d3d3d"/>
  </linearGradient>
  <path d="m47 24c0 22.703-.297 23-23 23-22.703 0-23-.297-23-23 0-22.703.297-23 23-23 22.703 0 23 .297 23 23z" fill="url(#a)"/>
  <path d="m25 10a15 15 0 0 0-15 15 15 15 0 0 0  10.268 14.221c-1.388-3.85-2.452-9.798-3.096-12.654-.322-1.267-.131-2.53.086-3.795.44-1.319.585-2.695 1.188-3.961.918-.795.941-2.231 1.832-2.922.132.079.222.115.283.137h.094l0 0c .128-.13-1.248-1.528.027-.975.05-.735 1.202-.174 1.219-.816v-.002c.56.464.455.27 1.207.184.858-.544 1.257 1.29 1.613.268 1.051.133 2.168.465 3.162.799 1 .214 1.946.775 2.615 1.545l-.02.008.49.635c.064.11.117.225.17.34.199 1.649 2.082 1.626 3.342 2.223 1.078.372 2.377.939 2.51 2.205-.272-.058-1.324-1.26-2.152-1.377-.502-.031-1.035-.167-1.537-.35l-2.908-.523 0 0c-.145-.017-.289-.041-.434-.072v.018l-4.115-.496c.067.045.142.107.209.166l4.219.799v-.008l.291.072 1.18.258c.234.021.472.058.662.092 1.203.322 2.625.265 3.613 1.084-.258.481-1.7.209-2.416.146-.088-.017-.184-.03-.273-.045-.015-.002-.032-.008-.047 0-.978-.155-1.984-.162-2.926.121-.002 0-.008 0 0 0-.325.098-.641.238-.943.412-1.361.771-3.041 1.051-4.17 2.16-1.106 1.159-1.039 2.753-.85 4.236h.047v.377c.018.13.039.258.057.385.577 2.998 2.108 5.749 2.586 8.775.029.359.077.768.121 1.166a15 15 0 0 0 12.796-14.836 15 15 0 0 0-15-15zm2.316 7.23c-.454.012-.806.177-.906.459-.16.451.384 1.034 1.219 1.314.834.281 1.643.147 1.803-.305.16-.451-.384-1.042-1.219-1.322-.313-.105-.624-.153-.896-.146z" opacity=".1"/>
  <path d="m24 9a15 15 0 0 0-15 15 15 15 0 0 0  10.268 14.22c-1.388-3.85-2.453-9.797-3.098-12.654-.321-1.266-.13-2.526.088-3.795.44-1.318.585-2.691 1.187-3.96.919-.791.941-2.231 1.832-2.922.133.079.222.111.284.141l.093.01h.01c.128-.134-1.248-1.532.027-.98.05-.734 1.202-.173 1.219-.816v-.002c.56.464.455.27 1.21.184.855-.544 1.254 1.29 1.61.267 1.052.133 2.169.465 3.163.799 1.001.214 1.945.776 2.615 1.548h-.02l.491.64c.061.11.121.225.171.34.198 1.649 2.08 1.626 3.34 2.222 1.078.372 2.377.938 2.51 2.205-.272-.058-1.324-1.257-2.152-1.377-.498-.03-1.036-.167-1.538-.349l-2.908-.521v-.01c-.142-.02-.292-.04-.433-.07v.01l-4.115-.493c.067.045.141.106.206.166l4.22.799v-.008l.292.072 1.18.258c.234.021.468.058.662.096 1.203.318 2.626.26 3.616 1.08-.261.481-1.7.208-2.419.146-.088-.016-.184-.026-.271-.046-.02 0-.03-.01-.05-.01-.98-.15-1.98-.16-2.925.123-.002 0-.007-.001-.01 0-.325.098-.64.238-.943.412-1.362.77-3.04 1.051-4.172 2.16-1.1 1.155-1.04 2.753-.847 4.235h.046v.378c.018.13.039.258.057.385.574 2.998 2.108 5.749 2.584 8.775.03.362.08.769.12 1.166a15 15 0 0 0 12.8-14.824 15 15 0 0 0-15-15zm2.316 7.23c-.454.012-.806.177-.906.459-.16.451.385 1.034 1.219 1.311.834.285 1.641.15 1.803-.301.16-.451-.382-1.041-1.222-1.322-.31-.105-.621-.153-.894-.147z" fill="#ff8b3c"/>
</svg>
