<svg viewBox="0 0 48 48" xmlns="http://www.w3.org/2000/svg" xmlns:xlink="http://www.w3.org/1999/xlink">
  <linearGradient id="a" gradientUnits="userSpaceOnUse" x2="0" y1="47" y2="1">
    <stop offset="0" stop-color="#8b8bf1"/>
    <stop offset="1" stop-color="#9d9df3"/>
  </linearGradient>
  <path d="m24 1c22.703 0 23 .297 23 23 0 22.703-.297 23-23 23-22.703 0-23-.297-23-23 0-22.703.297-23 23-23z" fill="url(#a)"/>
  <path d="m10 25c0 .69.492 1.25 1.1 1.25.391 0 .752-.237.949-.621.29 1.941 1.859 3.37 3.701 3.371 1.463-.002 2.792-.912 3.402-2.33.41 2.364 1.661 4.593 3.422 6.152-.337.081-.574.382-.574.729 0 .414.336.75.75.75.414 0 .75-.336.75-.75v-.004c1.265.867 2.725 1.399 4.291 1.445-.487.278-.79.819-.791 1.408 0 .884.672 1.6 1.5 1.6.828 0 1.5-.716 1.5-1.6 0-.619-.336-1.182-.861-1.445 2.132-.184 3.741-.888 4.861-1.939.008.546.454.984 1 .984.552 0 1-.448 1-1 0-.552-.448-1-1-1-.048 0-.095.003-.143 0 .768-1.134 1.143-2.514 1.143-4.01 0-1.068-1.314-2.238-2.5-3 1.186-.762 2.5-1.932 2.5-3 0-1.497-.374-2.877-1.143-4.01.047.007.095.011.143.012.552 0 1-.448 1-1 0-.552-.448-1-1-1-.546 0-.991.438-1 .984-1.12-1.051-2.729-1.756-4.861-1.939.525-.264.86-.826.861-1.445 0-.884-.672-1.6-1.5-1.6-.828 0-1.5.716-1.5 1.6 0 .588.303 1.129.789 1.408-1.565.046-3.02.579-4.289 1.445-.105-.561-.485-.575-.75-.754-.414 0-.75.336-.75.75 0 .346.238.647.574.729-1.761 1.56-3.01 3.789-3.422 6.152-.611-1.418-1.939-2.328-3.402-2.33-1.843.003-3.411 1.433-3.699 3.375-.196-.386-.559-.624-.951-.625-.607 0-1.1.56-1.1 1.25" fill-opacity=".098"/>
  <g fill="#4d4d4d" transform="matrix(0 -1 1 0 -.99996543 48)">
    <path d="m24 19c-5 0-10 4-10.01 9 0 5.504 3.118 8 7.01 8 1.068 0 2.238-1.314 3-2.5.762 1.186 1.932 2.5 3 2.5 3.888 0 7.01-2.496 7.01-8-.006-5-5.01-9-10.01-9"/>
    <ellipse cx="450" cy="363.98" rx="31.731" ry="28.981" transform="matrix(.03939394 0 0 .0379562 6.2727272 -2.715324)"/>
    <ellipse cx="232.96" cy="670.91" rx="19.04" ry="19.76" transform="matrix(.03939394 0 0 .0379562 6.2727272 -2.715324)"/>
    <ellipse cx="667.04" cy="670.91" rx="19.04" ry="19.76" transform="matrix(.03939394 0 0 .0379562 6.2727272 -2.715324)"/>
    <ellipse cx="12.6" cy="28.5" rx="1.6" ry="1.5"/>
    <ellipse cx="35.4" cy="28.5" rx="1.6" ry="1.5"/>
    <circle cx="16" cy="35" r="1"/>
    <circle cx="32" cy="35" r="1"/>
    <ellipse cx="24" cy="15.75" rx="4" ry="3.75"/>
  </g>
</svg>
