<svg viewBox="0 0 48 48" xmlns="http://www.w3.org/2000/svg" xmlns:xlink="http://www.w3.org/1999/xlink">
  <linearGradient id="a" gradientTransform="matrix(0 -1 1 0 -.0000015 47.999998)" gradientUnits="userSpaceOnUse" x1="1" x2="47">
    <stop offset="0" stop-color="#7dbdff"/>
    <stop offset="1" stop-color="#91c8ff"/>
  </linearGradient>
  <path d="m47 24c0 22.703-.297 23-23 23-22.703 0-23-.297-23-23 0-22.703.297-23 23-23 22.703 0 23 .297 23 23z" fill="url(#a)"/>
  <g opacity=".1" transform="translate(1 1)">
    <path d="m23 30.5c0 3.039-2.461 5.5-5.5 5.5-3.039 0-5.5-2.461-5.5-5.5 0-3.039 2.461-5.5 5.5-5.5 3.039 0 5.5 2.461 5.5 5.5m0 0"/>
    <path d="m36 30.5c0 3.039-2.461 5.5-5.5 5.5-3.039 0-5.5-2.461-5.5-5.5 0-3.039 2.461-5.5 5.5-5.5 3.039 0 5.5 2.461 5.5 5.5m0 0"/>
    <path d="m23 17.5c0 3.039-2.461 5.5-5.5 5.5-3.039 0-5.5-2.461-5.5-5.5 0-3.039 2.461-5.5 5.5-5.5 3.039 0 5.5 2.461 5.5 5.5m0 0"/>
    <path d="m36 17.5c0 3.039-2.461 5.5-5.5 5.5-3.039 0-5.5-2.461-5.5-5.5 0-3.039 2.461-5.5 5.5-5.5 3.039 0 5.5 2.461 5.5 5.5m0 0"/>
  </g>
  <path d="m23 30.5c0 3.039-2.461 5.5-5.5 5.5-3.039 0-5.5-2.461-5.5-5.5 0-3.039 2.461-5.5 5.5-5.5 3.039 0 5.5 2.461 5.5 5.5m0 0" fill="#2d2d2d"/>
  <path d="m36 30.5c0 3.039-2.461 5.5-5.5 5.5-3.039 0-5.5-2.461-5.5-5.5 0-3.039 2.461-5.5 5.5-5.5 3.039 0 5.5 2.461 5.5 5.5m0 0" fill="#f9f9f9"/>
  <path d="m23 17.5c0 3.039-2.461 5.5-5.5 5.5-3.039 0-5.5-2.461-5.5-5.5 0-3.039 2.461-5.5 5.5-5.5 3.039 0 5.5 2.461 5.5 5.5m0 0" fill="#f9f9f9"/>
  <path d="m36 17.5c0 3.039-2.461 5.5-5.5 5.5-3.039 0-5.5-2.461-5.5-5.5 0-3.039 2.461-5.5 5.5-5.5 3.039 0 5.5 2.461 5.5 5.5m0 0" fill="#2d2d2d"/>
</svg>
