<svg viewBox="0 0 48 48" xmlns="http://www.w3.org/2000/svg" xmlns:xlink="http://www.w3.org/1999/xlink">
  <linearGradient id="a" gradientTransform="matrix(0 -1 1 0 -.0000015 47.999998)" gradientUnits="userSpaceOnUse" x1="1" x2="47">
    <stop offset="0" stop-color="#543577"/>
    <stop offset="1" stop-color="#5e3b85"/>
  </linearGradient>
  <path d="m47 24c0 22.703-.297 23-23 23-22.703 0-23-.297-23-23 0-22.703.297-23 23-23 22.703 0 23 .297 23 23z" fill="url(#a)"/>
  <path d="m25 12c-7.18 0-13 5.82-13 13h2a11 11 0 0 1 11-11zm1 .043v6.04c3.441.497 5.998 3.443 6 6.92 0 .818-.148 1.6-.406 2.33l-1.83-1.83-4.264 4.264 1.83 1.83c-.73.258-1.512.407-2.33.406-3.477-.002-6.425-2.558-6.922-6h-6.03c.522 6.768 6.163 11.997 12.951 12 2.496.001 4.82-.716 6.801-1.936l2.936 2.936 4.264-4.264-2.936-2.936c1.22-1.981 1.936-4.304 1.936-6.801-.001-6.79-5.23-12.435-12-12.957m-1 3.957a9 9 0 0 0-9 9h2c0-3.866 3.134-7 7-7z" opacity=".1"/>
  <path d="m24 11c-7.18 0-13 5.82-13 13h2c0-6.075 4.925-11 11-11zm0 4c-4.971 0-9 4.03-9 9h2c0-3.866 3.134-7 7-7z" fill="#aca3ed"/>
  <path d="m37.663-3.01h13.06v6.03h-13.06z" fill="#edebf9" transform="matrix(.70710678 .70710678 -.70710678 .70710678 0 0)"/>
  <path d="m25 11.04v6.04c3.441.497 5.998 3.443 6 6.92.002 3.866-3.134 7-7 7-3.477-.001-6.425-2.558-6.922-6h-6.03c.522 6.768 6.163 11.997 12.951 12 7.18.003 13-5.82 13-13 0-6.79-5.23-12.435-12-12.957z" fill="#edebf9"/>
</svg>
