<svg viewBox="0 0 48 48" xmlns="http://www.w3.org/2000/svg" xmlns:xlink="http://www.w3.org/1999/xlink">
  <linearGradient id="a" gradientTransform="matrix(0 -1 1 0 -.0000015 47.999998)" gradientUnits="userSpaceOnUse" x1="1" x2="47">
    <stop offset="0" stop-color="#78a3d4"/>
    <stop offset="1" stop-color="#87add9"/>
  </linearGradient>
  <path d="m47 24c0 22.703-.297 23-23 23-22.703 0-23-.297-23-23 0-22.703.297-23 23-23 22.703 0 23 .297 23 23z" fill="url(#a)"/>
  <path d="m35.25 12.999c-.447 0-.894.173-1.237.515l-5.41 5.409-1.238-1.237-4.949 4.949-4.728 4.728 1.238 1.237-5.41 5.41c-.686.686-.686 1.789 0 2.475.686.686 1.791.685 2.476 0l5.408-5.408 1.238 1.237 4.727-4.728 4.95-4.949-1.238-1.238 5.41-5.409c.686-.686.686-1.789 0-2.475-.343-.343-.791-.515-1.238-.515z" opacity=".1"/>
  <g transform="translate(-.00044328 -.00017671)">
    <rect fill="#1f314f" height="3.5" rx="1.75" transform="matrix(.70710678 -.70710678 .70710678 .70710678 0 0)" width="12" x="-16.243" y="32.19"/>
    <path d="m21.414 21.637l-4.729 4.727 4.951 4.951 4.727-4.729c-1.053-2.3-2.416-4.263-4.949-4.949z" fill="#1f314f"/>
    <g fill="#d02a3d" transform="matrix(-.70710678 .70710678 -.70710678 -.70710678 59.5982098 28.70764712)">
      <path d="m15 25h7v7h-7z"/>
      <rect height="3.5" rx="1.75" width="12" x="5.6" y="26.75"/>
    </g>
  </g>
</svg>
