<svg viewBox="0 0 48 48" xmlns="http://www.w3.org/2000/svg" xmlns:xlink="http://www.w3.org/1999/xlink">
  <linearGradient id="a" gradientTransform="matrix(0 -1 1 0 -.0000015 47.999998)" gradientUnits="userSpaceOnUse" x1="1" x2="47">
    <stop offset="0" stop-color="#3d3d3d"/>
    <stop offset="1" stop-color="#474747"/>
  </linearGradient>
  <path d="m47 24c0 22.703-.297 23-23 23-22.703 0-23-.297-23-23 0-22.703.297-23 23-23 22.703 0 23 .297 23 23z" fill="url(#a)"/>
  <path d="m24 1v7h-7v-5.906c-.337.108-.67.221-1 .344v5.563h-7v-1.438c-.346.298-.673.62-1 .938v.5h-.5c-.318.327-.64.654-.938 1h1.438v7h-5.563c-.123.33-.236.663-.344 1h5.906v7h-7c0 .334.017.669.031 1h6.969v7h-5.563c.127.342.264.666.406 1h5.156v7h-.5c.481.496.976.986 1.5 1.438v-.438h7v4.563c.33.123.663.236 1 .344v-4.906h7v6c .334 0 .669-.017 1-.031v-5.969h7v4.563c.342-.127.666-.264 1-.406v-4.156h6.5c.522-.476 1.024-.978 1.5-1.5v-6.5h4.156c.142-.334.279-.658.406-1h-4.563v-7h5.969c.014-.331.031-.666.031-1h-6v-7h4.906c-.108-.337-.221-.67-.344-1h-4.563v-7h .438c-.451-.524-.941-1.019-1.438-1.5v.5h-7v-5.156c-.334-.142-.658-.279-1-.406v5.563h-7v-6.969c-.331-.014-.666-.031-1-.031zm-15 8h7v7h-7zm8 0h7v7h-7zm8 0h7v7h-7zm8 0h7v7h-7zm-24 8h7v7h-7zm8 0h7v7h-7zm8 0h7v7h-7zm8 0h7v7h-7zm-24 8h7v7h-7zm8 0h7v7h-7zm8 0h7v7h-7zm8 0h7v7h-7zm-24 8h7v7h-7zm8 0h7v7h-7zm8 0h7v7h-7zm8 0h7v7h-7z" fill="#5e5753"/>
  <path d="m25 12c-1.112 0-2.212.195-3.281.563-1.073.367-2.028.863-2.875 1.5-.851.64-1.54 1.441-2.063 2.406-.519.965-.781 2.01-.781 3.125 0 1.75.602 3.254 1.813 4.531.528.551.965 1.039 1.313 1.469.344.425.679.977 1.031 1.625.346.641.539 1.227.594 1.781.017.001.034.017.051.027h-.037c-.551.317-.826.782-.826 1.391 0 .418.143.777.439 1.082-.293.305-.439.664-.439 1.082 0 .59.264 1.047.791 1.371-.157.262-.227.527-.227.797 0 .519.184.918.555 1.203.367.281.821.422 1.363.422.231.496.58.891 1.053 1.184.464.293.973.441 1.527.441.55 0 1.053-.148 1.525-.441.473-.293.825-.688 1.059-1.184.539 0 .987-.141 1.354-.422.371-.285.559-.683.559-1.203 0-.27-.077-.535-.229-.797.527-.324.787-.781.787-1.371 0-.418-.145-.777-.438-1.082.293-.305.438-.664.438-1.082 0-.61-.276-1.075-.822-1.391h-.051c.012-.001.026-.017.037-.027.051-.554.276-1.141.625-1.781.352-.648.683-1.199 1.031-1.625.348-.43.786-.918 1.313-1.469 1.207-1.277 1.813-2.781 1.813-4.531 0-1.121-.262-2.16-.781-3.125-.524-.965-1.211-1.765-2.063-2.406-.847-.637-1.802-1.133-2.875-1.5-1.069-.367-2.169-.563-3.281-.563z" opacity=".1" transform="matrix(1 0 0 1 .00000043 -.0000001)"/>
  <g transform="scale(3.543307)">
    <path d="m24 11c-1.112 0-2.212.194-3.281.563-1.073.367-2.028.863-2.875 1.5-.851.64-1.54 1.441-2.063 2.406-.519.965-.781 2.01-.781 3.125 0 1.75.601 3.254 1.813 4.531.528.551.966 1.039 1.314 1.469.344.425.677.977 1.029 1.625.346.641.541 1.227.596 1.781l2.25 2h3.998l2.219-2c .051-.554.276-1.141.625-1.781.352-.648.683-1.199 1.031-1.625.348-.43.785-.918 1.313-1.469 1.207-1.277 1.814-2.781 1.814-4.531 0-1.121-.262-2.16-.781-3.125-.524-.965-1.212-1.765-2.064-2.406-.847-.637-1.802-1.133-2.875-1.5-1.069-.367-2.167-.563-3.279-.563" fill="#efdf81" transform="scale(.28222223)"/>
    <path d="m7.968 7.91c.154.089.232.22.232.393 0 .118-.041.219-.124.305.083.086.124.187.124.305 0 .167-.074.295-.223.387.043.074.065.149.065.225 0 .147-.053.259-.158.34-.104.079-.23.119-.382.119-.066.14-.165.251-.299.334-.133.083-.276.124-.431.124-.157 0-.3-.042-.431-.124-.133-.083-.232-.194-.298-.334-.153 0-.281-.04-.384-.119-.105-.08-.157-.193-.157-.34 0-.076.02-.151.064-.225-.149-.091-.224-.22-.224-.387 0-.118.042-.219.124-.305-.084-.086-.124-.187-.124-.305 0-.172.078-.303.234-.393" fill="#c6caca"/>
    <path d="m5.556 9.313c-.037.068-.053.142-.053.212 0 .025.006.048.009.071h2.523c0-.023.009-.046.009-.071 0-.07-.017-.143-.053-.212h-2.434z" fill="#dde5e5"/>
    <path d="m5.379 8.749c-.021.051-.035.109-.035.168 0 .042.008.078.018.115h2.822c.009-.037.018-.073.018-.115 0-.059-.015-.117-.035-.168h-2.787z" fill="#dde5e5"/>
    <path d="m5.362 8.184c-.001.038-.018.072-.018.115 0 .059.006.117.027.168h2.796c.021-.051.035-.109.035-.168 0-.043-.008-.077-.018-.115z" fill="#dde5e5"/>
  </g>
  <path d="m24 15v4h-4v2h4v4h2v-4h4v-2h-4v-4z" fill-opacity=".098"/>
  <path d="m23 14v4h-4v2h4v4h2v-4h4v-2h-4v-4z" fill="#d5584f"/>
</svg>
