<svg xmlns="http://www.w3.org/2000/svg" viewBox="0 0 48 48">
 <defs>
  <linearGradient id="linearGradient5087" y1="47" x2="0" y2="1" gradientUnits="userSpaceOnUse">
   <stop style="stop-color:#374d3f;stop-opacity:1"/>
   <stop offset="1" style="stop-color:#3f5948;stop-opacity:1"/>
  </linearGradient>
  <linearGradient id="linearGradient4351" y1="34" x2="0" y2="14" gradientUnits="userSpaceOnUse" gradientTransform="translate(4.4,0)">
   <stop style="stop-color:#7fe9a5;stop-opacity:1"/>
   <stop offset="1" style="stop-color:#7fe9a5;stop-opacity:0.412"/>
  </linearGradient>
  <linearGradient id="linearGradient4404" y1="35" x2="0" y2="15" gradientUnits="userSpaceOnUse">
   <stop style="stop-color:#000;stop-opacity:1"/>
   <stop offset="1" style="stop-color:#000;stop-opacity:0.412"/>
  </linearGradient>
 </defs>
 <g>
  
  
  
 </g>
 <g>
  <path d="m 24 1 c 22.703 0 23 0.297 23 23 c 0 22.703 -0.297 23 -23 23 -22.703 0 -23 -0.297 -23 -23 0 -22.703 0.297 -23 23 -23 z" style="fill:url(#linearGradient5087);fill-opacity:1"/>
 </g>
 <path d="m 24 1 0 7 -7 0 0 -5.906 c -0.337 0.108 -0.67 0.221 -1 0.344 l 0 5.563 -7 0 0 -1.438 c -0.346 0.298 -0.673 0.62 -1 0.938 l 0 0.5 -0.5 0 c -0.318 0.327 -0.64 0.654 -0.938 1 l 1.438 0 l 0 7 -5.563 0 c -0.123 0.33 -0.236 0.663 -0.344 1 l 5.906 0 0 7 -7 0 c 0 0.334 0.017 0.669 0.031 1 l 6.969 0 0 7 -5.563 0 c 0.127 0.342 0.264 0.666 0.406 1 l 5.156 0 0 7 -0.5 0 c 0.481 0.496 0.976 0.986 1.5 1.438 l 0 -0.438 l 7 0 0 4.563 c 0.33 0.123 0.663 0.236 1 0.344 l 0 -4.906 l 7 0 0 6 c 0.334 0 0.669 -0.017 1 -0.031 l 0 -5.969 l 7 0 0 4.563 c 0.342 -0.127 0.666 -0.264 1 -0.406 l 0 -4.156 l 6.5 0 c 0.522 -0.476 1.024 -0.978 1.5 -1.5 l 0 -6.5 4.156 0 c 0.142 -0.334 0.279 -0.658 0.406 -1 l -4.563 0 l 0 -7 5.969 0 c 0.014 -0.331 0.031 -0.666 0.031 -1 l -6 0 0 -7 4.906 0 c -0.108 -0.337 -0.221 -0.67 -0.344 -1 l -4.563 0 l 0 -7 0.438 0 c -0.451 -0.524 -0.941 -1.019 -1.438 -1.5 l 0 0.5 -7 0 0 -5.156 c -0.334 -0.142 -0.658 -0.279 -1 -0.406 l 0 5.563 -7 0 0 -6.969 c -0.331 -0.014 -0.666 -0.031 -1 -0.031 z m -15 8 7 0 l 0 7 -7 0 0 -7 m 8 0 7 0 l 0 7 -7 0 0 -7 m 8 0 7 0 l 0 7 -7 0 0 -7 m 8 0 7 0 l 0 7 -7 0 0 -7 m -24 8 l 7 0 0 7 -7 0 0 -7 z m 8 0 7 0 0 7 -7 0 0 -7 z m 8 0 7 0 0 7 -7 0 0 -7 z m 8 0 7 0 0 7 -7 0 0 -7 z m -24 8 7 0 0 7 -7 0 0 -7 z m 8 0 7 0 0 7 -7 0 0 -7 z m 8 0 7 0 0 7 -7 0 0 -7 z m 8 0 7 0 0 7 -7 0 0 -7 z m -24 8 7 0 0 7 -7 0 0 -7 z m 8 0 7 0 0 7 -7 0 0 -7 z m 8 0 7 0 0 7 -7 0 0 -7 z m 8 0 7 0 0 7 -7 0 0 -7 z" style="fill:#466e4b;fill-opacity:1"/>
 <g>
  <g>
   <g transform="translate(1,1)">
    <g style="opacity:0.1">
     <!-- color: #555555 -->
    </g>
   </g>
  </g>
 </g>
 <g>
  <g>
   <!-- color: #555555 -->
  </g>
 </g>
 <g>
  
 </g>
 <path d="m 13 15 0 2 4 0 0 -2 -4 0 z m 0 3 0 2 4 0 0 -2 -4 0 z m 15 0 0 2 4 0 0 -2 -4 0 z m -15 3 0 2 4 0 0 -2 -4 0 z m 5 0 0 2 4 0 0 -2 -4 0 z m 10 0 0 2 4 0 0 -2 -4 0 z m 5 0 0 2 4 0 0 -2 -4 0 z m -20 3 0 2 4 0 0 -2 -4 0 z m 5 0 0 2 4 0 0 -2 -4 0 z m 10 0 0 2 4 0 0 -2 -4 0 z m 5 0 0 2 4 0 0 -2 -4 0 z m -20 3 0 2 4 0 0 -2 -4 0 z m 5 0 0 2 4 0 0 -2 -4 0 z m 5 0 0 2 4 0 0 -2 -4 0 z m 5 0 0 2 4 0 0 -2 -4 0 z m 5 0 0 2 4 0 0 -2 -4 0 z m -20 3 0 2 4 0 0 -2 -4 0 z m 5 0 0 2 4 0 0 -2 -4 0 z m 5 0 0 2 4 0 0 -2 -4 0 z m 5 0 0 2 4 0 0 -2 -4 0 z m 5 0 0 2 4 0 0 -2 -4 0 z m -20 3 0 2 4 0 0 -2 -4 0 z m 5 0 0 2 4 0 0 -2 -4 0 z m 5 0 0 2 4 0 0 -2 -4 0 z m 5 0 0 2 4 0 0 -2 -4 0 z m 5 0 0 2 4 0 0 -2 -4 0 z" style="fill:url(#linearGradient4404);opacity:0.1;fill-opacity:1;stroke:none"/>
 <path d="m 12 14 0 2 4 0 0 -2 -4 0 z m 0 3 0 2 4 0 0 -2 -4 0 z m 15 0 0 2 4 0 0 -2 -4 0 z m -15 3 0 2 4 0 0 -2 -4 0 z m 5 0 0 2 4 0 0 -2 -4 0 z m 10 0 0 2 4 0 0 -2 -4 0 z m 5 0 0 2 4 0 0 -2 -4 0 z m -20 3 0 2 4 0 0 -2 -4 0 z m 5 0 0 2 4 0 0 -2 -4 0 z m 10 0 0 2 4 0 0 -2 -4 0 z m 5 0 0 2 4 0 0 -2 -4 0 z m -20 3 0 2 4 0 0 -2 -4 0 z m 5 0 0 2 4 0 0 -2 -4 0 z m 5 0 0 2 4 0 0 -2 -4 0 z m 5 0 0 2 4 0 0 -2 -4 0 z m 5 0 0 2 4 0 0 -2 -4 0 z m -20 3 0 2 4 0 0 -2 -4 0 z m 5 0 0 2 4 0 0 -2 -4 0 z m 5 0 0 2 4 0 0 -2 -4 0 z m 5 0 0 2 4 0 0 -2 -4 0 z m 5 0 0 2 4 0 0 -2 -4 0 z m -20 3 0 2 4 0 0 -2 -4 0 z m 5 0 0 2 4 0 0 -2 -4 0 z m 5 0 0 2 4 0 0 -2 -4 0 z m 5 0 0 2 4 0 0 -2 -4 0 z m 5 0 0 2 4 0 0 -2 -4 0 z" style="fill:url(#linearGradient4351);opacity:1;fill-opacity:1;stroke:none"/>
</svg>
