<svg viewBox="0 0 48 48" xmlns="http://www.w3.org/2000/svg" xmlns:xlink="http://www.w3.org/1999/xlink">
  <linearGradient id="a" gradientTransform="matrix(0 1 -1 0 48 0)" gradientUnits="userSpaceOnUse" x1="1" x2="47">
    <stop offset="0" stop-color="#303b48"/>
    <stop offset="1" stop-color="#28313c"/>
  </linearGradient>
  <path d="m47 24c0 22.703-.297 23-23 23-22.703 0-23-.297-23-23 0-22.703.297-23 23-23 22.703 0 23 .297 23 23z" fill="url(#a)"/>
  <path d="m23.98 16.5c-.179.013-.286.204-.203.363l.631 1.352c-.093-.135-.248-.215-.408-.215-.276 0-.5.224-.5.5 0 .276.224.5.5.5v1h-.5c-1 0-1.5-2-2.5-2-7 0-9 2-9 4 0 1 2 2 3 2 0 1.086 1 2 3.6 2 .4 0 .4 1 0 1-2.6 0 .4 2 2.4 4v3.5c0 .277.223.5.5.5.277 0 .5-.223.5-.5v-2.781c.526.252.98.781 1.375.781.625 0 1.625-1.5 1.625-1.5 0 0 1 1.5 1.625 1.5.395 0 .849-.529 1.375-.781v2.781c0 .277.223.5.5.5.277 0 .5-.223.5-.5v-3.5c2-2 5-4 2.4-4-.4 0-.4-1 0-1 2.6 0 3.6-.91 3.6-2 1 0 3-1 3-2 0-2-2-4-9-4-1 0-1.5 2-2.5 2h-.5v-1c .276 0 .5-.224.5-.5 0-.276-.224-.5-.5-.5-.163.001-.315.081-.408.215l.631-1.352c.089-.171-.042-.374-.234-.363-.091.004-.173.058-.213.141l-.775 1.359-.775-1.359c-.044-.093-.142-.149-.244-.141" opacity=".1"/>
  <path d="m22.98 15.5c-.179.013-.286.204-.203.363l.631 1.352c-.093-.135-.248-.215-.408-.215-.276 0-.5.224-.5.5 0 .276.224.5.5.5v1h-.5c-1 0-1.5-2-2.5-2-7 0-9 2-9 4 0 1 2 2 3 2 0 1.086 1 2 3.6 2 .4 0 .4 1 0 1-2.6 0 .4 2 2.4 4v3.5c0 .277.223.5.5.5.277 0 .5-.223.5-.5v-2.781c.526.252.98.781 1.375.781.625 0 1.625-1.5 1.625-1.5 0 0 1 1.5 1.625 1.5.395 0 .849-.529 1.375-.781v2.781c0 .277.223.5.5.5.277 0 .5-.223.5-.5v-3.5c2-2 5-4 2.4-4-.4 0-.4-1 0-1 2.6 0 3.6-.91 3.6-2 1 0 3-1 3-2 0-2-2-4-9-4-1 0-1.5 2-2.5 2h-.5v-1c .276 0 .5-.224.5-.5 0-.276-.224-.5-.5-.5-.163.001-.315.081-.408.215l.631-1.352c.089-.171-.042-.374-.234-.363-.091.004-.173.058-.213.141l-.775 1.359-.775-1.359c-.044-.093-.142-.149-.244-.141" fill="#f9f9f9"/>
</svg>
