<svg viewBox="0 0 48 48" xmlns="http://www.w3.org/2000/svg" xmlns:xlink="http://www.w3.org/1999/xlink">
  <linearGradient id="a" gradientUnits="userSpaceOnUse" x2="0" y1="47" y2="1">
    <stop offset="0" stop-color="#f0e8cc"/>
    <stop offset="1" stop-color="#f5efdb"/>
  </linearGradient>
  <path d="m24 1c22.703 0 23 .297 23 23 0 22.703-.297 23-23 23-22.703 0-23-.297-23-23 0-22.703.297-23 23-23z" fill="url(#a)"/>
  <path d="m25 10c-8.284 0-15 6.716-15 15 .002 5.669 3.199 10.853 8.264 13.398l.953-7.875c-1.422-1.488-2.216-3.466-2.217-5.523 0-4.418 3.582-8 8-8 4.418 0 8 3.582 8 8-.004 2.055-.798 4.03-2.219 5.516l.953 7.869c5.061-2.543 8.259-7.72 8.266-13.385 0-8.284-6.716-15-15-15m0 10a5 5 0 0 0-5 5 5 5 0 0 0  2.393 4.26l-1.238 10.221a15 15 0 0 0 3.846.52 15 15 0 0 0  3.848-.51l-1.24-10.23a5 5 0 0 0 2.393-4.26 5 5 0 0 0-5-5" opacity=".1"/>
  <path d="m24 9c-8.284 0-15 6.716-15 15 .002 5.669 3.199 10.853 8.264 13.398l.953-7.875c-1.422-1.488-2.216-3.466-2.217-5.523 0-4.418 3.582-8 8-8 4.418 0 8 3.582 8 8-.004 2.055-.798 4.03-2.219 5.516l.953 7.869c5.061-2.543 8.259-7.72 8.266-13.385 0-8.284-6.716-15-15-15" fill="#f5984b"/>
  <path d="m24 19a5 5 0 0 0-5 5 5 5 0 0 0  2.393 4.26l-1.243 10.22a15 15 0 0 0 3.85.52 15 15 0 0 0  3.848-.51l-1.241-10.23a5 5 0 0 0 2.393-4.26 5 5 0 0 0-5-5" fill="#1356a1"/>
</svg>
