<svg xmlns="http://www.w3.org/2000/svg" viewBox="0 0 48 48">
 <defs>
  <linearGradient id="linearGradient3845" y1="47" x2="0" y2="1" gradientUnits="userSpaceOnUse">
   <stop style="stop-color:#f0e8cc;stop-opacity:1"/>
   <stop offset="1" style="stop-color:#f5efdb;stop-opacity:1"/>
  </linearGradient>
 </defs>
 <g>
  
  
  
 </g>
 <g>
  <path d="m 24 1 c 22.703 0 23 0.297 23 23 c 0 22.703 -0.297 23 -23 23 -22.703 0 -23 -0.297 -23 -23 0 -22.703 0.297 -23 23 -23 z" style="fill:url(#linearGradient3845);fill-opacity:1"/>
 </g>
 <g>
  
 </g>
 <path d="m 25 10 c -8.284 0 -15 6.716 -15 15 0.002 5.669 3.199 10.853 8.264 13.398 l 0.953 -7.875 c -1.422 -1.488 -2.216 -3.466 -2.217 -5.523 c 0 -4.418 3.582 -8 8 -8 4.418 0 8 3.582 8 8 -0.004 2.055 -0.798 4.03 -2.219 5.516 l 0.953 7.869 c 5.061 -2.543 8.259 -7.72 8.266 -13.385 0 -8.284 -6.716 -15 -15 -15 m 0 10 a 5 5 0 0 0 -5 5 5 5 0 0 0 2.393 4.26 l -1.238 10.221 a 15 15 0 0 0 3.846 0.52 15 15 0 0 0 3.848 -0.51 l -1.24 -10.23 a 5 5 0 0 0 2.393 -4.26 5 5 0 0 0 -5 -5" style="fill:#000;opacity:0.1;fill-opacity:1;stroke:none"/>
 <path d="m 24 9 c -8.284 0 -15 6.716 -15 15 c 0.002 5.669 3.199 10.853 8.264 13.398 l 0.953 -7.875 c -1.422 -1.488 -2.216 -3.466 -2.217 -5.523 c 0 -4.418 3.582 -8 8 -8 4.418 0 8 3.582 8 8 -0.004 2.055 -0.798 4.03 -2.219 5.516 l 0.953 7.869 c 5.061 -2.543 8.259 -7.72 8.266 -13.385 0 -8.284 -6.716 -15 -15 -15" style="fill:#f5984b;opacity:1;fill-opacity:1;stroke:none"/>
 <path d="m 24 19 a 5 5 0 0 0 -5 5 5 5 0 0 0 2.393 4.26 L 20.15 38.48 A 15 15 0 0 0 24 39 15 15 0 0 0 27.848 38.49 L 26.607 28.26 A 5 5 0 0 0 29 24 5 5 0 0 0 24 19" style="fill:#1356a1;opacity:1;fill-opacity:1;stroke:none"/>
</svg>
