<svg viewBox="0 0 48 48" xmlns="http://www.w3.org/2000/svg" xmlns:xlink="http://www.w3.org/1999/xlink">
  <linearGradient id="a" gradientUnits="userSpaceOnUse" x1="1" x2="47">
    <stop offset="0" stop-color="#1759a8"/>
    <stop offset="1" stop-color="#1963bb"/>
  </linearGradient>
  <path d="m24 1c22.703 0 23 .297 23 23 0 22.703-.297 23-23 23-22.703 0-23-.297-23-23 0-22.703.297-23 23-23z" fill="url(#a)" transform="matrix(0 -1 1 0 0 48)"/>
  <path d="m24.984 11c-7.67 0-11.984 6.04-11.984 13.48 0 7.445 4.314 13.48 11.984 13.48 1.88 0 3.541-.366 5-1.023l3.775 3.912c.177.184.446.208.629.03l2.457-2.407c.184-.178.207-.448.03-.632l-3.326-3.49c2.227-2.461 3.416-5.972 3.416-9.869 0-7.445-4.314-13.48-11.984-13.48zm0 4.814c4.383 0 6.861 3.88 6.861 8.666 0 4.786-2.478 8.666-6.861 8.666-4.383 0-6.861-3.88-6.861-8.666 0-4.786 2.478-8.666 6.861-8.666z" opacity=".1"/>
  <path d="m23.984 10c-7.67 0-11.984 6.04-11.984 13.48 0 7.445 4.314 13.48 11.984 13.48 1.88 0 3.541-.366 5-1.023l3.775 3.912c.177.184.446.208.629.03l2.457-2.407c.184-.178.207-.448.03-.632l-3.326-3.49c2.227-2.461 3.416-5.972 3.416-9.869 0-7.445-4.314-13.48-11.984-13.48zm0 4.814c4.383 0 6.861 3.88 6.861 8.666 0 4.786-2.478 8.666-6.861 8.666-4.383 0-6.861-3.88-6.861-8.666 0-4.786 2.478-8.666 6.861-8.666z" fill="#f9f9f9"/>
</svg>
