<svg xmlns="http://www.w3.org/2000/svg" viewBox="0 0 48 48">
 <defs>
  <linearGradient id="linearGradient3920" x1="1" x2="47" gradientUnits="userSpaceOnUse">
   <stop style="stop-color:#1759a8;stop-opacity:1"/>
   <stop offset="1" style="stop-color:#1963bb;stop-opacity:1"/>
  </linearGradient>
 </defs>
 <g>
  
  
  
 </g>
 <g transform="matrix(0,-1,1,0,0,48)" style="fill:url(#linearGradient3920);fill-opacity:1">
  <path d="M 24,1 C 46.703,1 47,1.297 47,24 47,46.703 46.703,47 24,47 1.297,47 1,46.703 1,24 1,1.297 1.297,1 24,1 z"/>
 </g>
 <g>
  
 </g>
 <path d="m 24.984 11 c -7.67 0 -11.984 6.04 -11.984 13.48 c 0 7.445 4.314 13.48 11.984 13.48 1.88 0 3.541 -0.366 5 -1.023 l 3.775 3.912 c 0.177 0.184 0.446 0.208 0.629 0.03 l 2.457 -2.407 c 0.184 -0.178 0.207 -0.448 0.03 -0.632 l -3.326 -3.49 c 2.227 -2.461 3.416 -5.972 3.416 -9.869 0 -7.445 -4.314 -13.48 -11.984 -13.48 z m 0 4.814 c 4.383 0 6.861 3.88 6.861 8.666 0 4.786 -2.478 8.666 -6.861 8.666 -4.383 0 -6.861 -3.88 -6.861 -8.666 0 -4.786 2.478 -8.666 6.861 -8.666 z" style="fill:#000;opacity:0.1;fill-opacity:1;stroke:none;fill-rule:nonzero"/>
 <path d="m 23.984 10 c -7.67 0 -11.984 6.04 -11.984 13.48 c 0 7.445 4.314 13.48 11.984 13.48 1.88 0 3.541 -0.366 5 -1.023 l 3.775 3.912 c 0.177 0.184 0.446 0.208 0.629 0.03 l 2.457 -2.407 c 0.184 -0.178 0.207 -0.448 0.03 -0.632 l -3.326 -3.49 c 2.227 -2.461 3.416 -5.972 3.416 -9.869 0 -7.445 -4.314 -13.48 -11.984 -13.48 z m 0 4.814 c 4.383 0 6.861 3.88 6.861 8.666 0 4.786 -2.478 8.666 -6.861 8.666 -4.383 0 -6.861 -3.88 -6.861 -8.666 0 -4.786 2.478 -8.666 6.861 -8.666 z" style="fill:#f9f9f9;opacity:1;fill-opacity:1;stroke:none;fill-rule:nonzero"/>
</svg>
