<svg viewBox="0 0 48 48" xmlns="http://www.w3.org/2000/svg" xmlns:xlink="http://www.w3.org/1999/xlink">
  <linearGradient id="a" gradientTransform="matrix(0 -1 1 0 -.0000015 47.999998)" gradientUnits="userSpaceOnUse" x1="1" x2="47">
    <stop offset="0" stop-color="#658dab"/>
    <stop offset="1" stop-color="#7297b2"/>
  </linearGradient>
  <path d="m47 24c0 22.703-.297 23-23 23-22.703 0-23-.297-23-23 0-22.703.297-23 23-23 22.703 0 23 .297 23 23z" fill="url(#a)"/>
  <g transform="translate(-1)">
    <path d="m18 11c-.554 0-1 .446-1 1v1h-2v24h17l5-5v-19h-2v-1c0-.554-.446-1-1-1-.554 0-1 .446-1 1v1h-2v-1c0-.554-.446-1-1-1-.554 0-1 .446-1 1v1h-2v-1c0-.554-.446-1-1-1-.554 0-1 .446-1 1v1h-2v-1c0-.554-.446-1-1-1-.554 0-1 .446-1 1v1h-2v-1c0-.554-.446-1-1-1z" fill-opacity=".098"/>
    <path d="m14 12h22v19l-5 5h-17z" fill="#32496a"/>
    <path d="m16.1 12v1.199c0 .665.534 1.201 1.199 1.201.665 0 1.199-.536 1.199-1.201v-1.199zm4 0v1.199c0 .665.534 1.201 1.199 1.201.665 0 1.199-.536 1.199-1.201v-1.199zm4 0v1.199c0 .665.534 1.201 1.199 1.201.665 0 1.199-.536 1.199-1.201v-1.199zm4 0v1.199c0 .665.534 1.201 1.199 1.201.665 0 1.199-.536 1.199-1.201v-1.199zm4 0v1.199c0 .665.534 1.201 1.199 1.201.665 0 1.199-.536 1.199-1.201v-1.199z" opacity=".1"/>
    <path d="m30 31v5l5-5z" opacity=".16" transform="translate(1)"/>
    <rect fill="#acacac" height="4" rx="1" width="2" x="16" y="10"/>
    <rect fill="#acacac" height="4" rx="1" width="2" x="20" y="10"/>
    <rect fill="#acacac" height="4" rx="1" width="2" x="28" y="10"/>
    <rect fill="#acacac" height="4" rx="1" width="2" x="32" y="10"/>
    <rect fill="#acacac" height="4" rx="1" width="2" x="24" y="10"/>
  </g>
  <path d="m24.15 19c-.917 0-1.713.521-2.125 1.291l-.046.096c-.143.296-.226.618-.247.947-.003.049-.005.099-.005.155l0 0 0 0 0 0c .006.548.179 1.026.502 1.497.724-.834 1.84-1.353 2.964-1.291.006 0 .013.001.019.002.46.028.898.143 1.297.33.078-.362.086-.699.007-1.069l-.024-.11c-.275-1.064-1.218-1.847-2.342-1.847zm-3.163 1.152c-.698 0-1.26.578-1.26 1.295l0 0c0 .224.069.438.176.632.434-.244 1.029-.405 1.559-.371-.006-.072-.009-.145-.009-.217 0 0 0 0 0-.001v-.001l0 0 0 0 0 0 0 0v-.001c0-.397.082-.774.229-1.115-.206-.141-.445-.22-.694-.221l0 0zm5.972.894c-.048 0-.096.006-.144.01.022.141.033.285.033.432 0 0 0 0 0 .001l0 0 0 0 0 0c0 .226-.028.451-.082.67.61.347 1.114.867 1.449 1.496.356-.192.746-.307 1.147-.336-.108-1.273-1.136-2.273-2.404-2.273zm-1.971.927c-.124 0-.248.007-.372.021-.021.002-.041.005-.062.008-.903.129-1.519.548-2.224 1.3l-.006.008c-.196.257-.357.542-.478.848-.001.004-.003.007-.004.011-.514 1.335-.168 2.747.791 3.788l.061.061 0 0c .604.573 1.412.923 2.3.923.869 0 1.66-.335 2.26-.886l.067-.065c.659-.649 1.067-1.581 1.066-2.534-.001-.536-.121-1.058-.352-1.546l-.004-.008c-.324-.666-.849-1.21-1.494-1.549-.478-.249-1.012-.38-1.55-.381zm-3.596.019c-.254-.005-.544.036-.822.103-.232.07-.45.172-.651.301l-.058.037c-.489.332-.863.828-1.049 1.412l-.006.02c-.02.064-.041.143-.058.217-.238 1.07.152 1.992.976 2.754.235-.458.675-.789 1.193-.864.004-.001.007-.001.011-.001.145-.017.285-.023.433.001-.016-.121-.027-.244-.031-.369-.002-.048-.004-.096-.004-.145.011-.819.249-1.472.718-2.238-.278-.356-.465-.776-.547-1.222-.035-.003-.07-.004-.106-.005zm8.186 1.603l-.058.001c-.42.015-.782.109-1.181.317.64 1.486.338 2.961-.728 4.181.497.569 1.2.905 1.949.906.671 0 1.282-.257 1.746-.681l0 0 .085-.085c.51-.507.798-1.205.8-1.934 0-.001 0-.002 0-.003l0 0 0 0v-.001c0-.096-.008-.213-.019-.323-.155-1.335-1.254-2.369-2.593-2.378zm-11.155.355c-1.34 0-2.423 1.113-2.423 2.49 0 1.377 1.083 2.49 2.423 2.49.491-.001.965-.162 1.368-.447-.138-.223-.226-.482-.245-.761 0-.002 0-.005-.001-.007-.002-.037-.004-.075-.004-.113v-.001l0 0 0 0c0-.172.026-.337.073-.493-.995-.758-1.391-1.945-1.119-3.154-.024-.001-.048-.004-.072-.004zm14.25 2.142c-.072 0-.142.015-.212.028.003.058.005.117.005.176v.001l0 0 0 0c0 .001 0 .002 0 .003-.001.789-.301 1.506-.789 2.04.25.298.609.478.996.478.734 0 1.327-.609 1.327-1.363 0-.754-.592-1.363-1.327-1.363zm-11.557.153c-.691.015-1.297.604-1.299 1.355l0 0 0 0c .002.308.098.57.279.833l.042.055c.243.291.603.475 1.01.475.551 0 1.032-.354 1.229-.876-.468-.493-.806-1.116-.957-1.812-.101-.023-.201-.032-.3-.03z" opacity=".1"/>
  <path d="m23.15 18c-.917 0-1.713.521-2.125 1.291l-.046.096c-.143.296-.226.618-.247.947-.003.049-.005.099-.005.155l0 0 0 0 0 0c .006.548.179 1.026.502 1.497.724-.834 1.84-1.353 2.964-1.291.006 0 .013.001.019.002.46.028.898.143 1.297.33.078-.362.086-.699.007-1.069l-.024-.11c-.275-1.064-1.218-1.847-2.342-1.847zm-3.163 1.152c-.698 0-1.26.578-1.26 1.295l0 0c0 .224.069.438.176.632.434-.244 1.029-.405 1.559-.371-.006-.072-.009-.145-.009-.217 0 0 0 0 0-.001v-.001l0 0 0 0 0 0 0 0v-.001c0-.397.082-.774.229-1.115-.206-.141-.445-.22-.694-.221l0 0zm5.972.894c-.048 0-.096.006-.144.01.022.141.033.285.033.432 0 0 0 0 0 .001l0 0 0 0 0 0c0 .226-.028.451-.082.67.61.347 1.114.867 1.449 1.496.356-.192.746-.307 1.147-.336-.108-1.273-1.136-2.273-2.404-2.273zm-1.971.927c-.124 0-.248.007-.372.021-.021.002-.041.005-.062.008-.903.129-1.519.548-2.224 1.3l-.006.008c-.196.257-.357.542-.478.848-.001.004-.003.007-.004.011-.514 1.335-.168 2.747.791 3.788l.061.061 0 0c .604.573 1.412.923 2.3.923.869 0 1.66-.335 2.26-.886l.067-.065c.659-.649 1.067-1.581 1.066-2.534-.001-.536-.121-1.058-.352-1.546l-.004-.008c-.324-.666-.849-1.21-1.494-1.549-.478-.249-1.012-.38-1.55-.381zm-3.596.019c-.254-.005-.544.036-.822.103-.232.07-.45.172-.651.301l-.058.037c-.489.332-.863.828-1.049 1.412l-.006.02c-.02.064-.041.143-.058.217-.238 1.07.152 1.992.976 2.754.235-.458.675-.789 1.193-.864.004-.001.007-.001.011-.001.145-.017.285-.023.433.001-.016-.121-.027-.244-.031-.369-.002-.048-.004-.096-.004-.145.011-.819.249-1.472.718-2.238-.278-.356-.465-.776-.547-1.222-.035-.003-.07-.004-.106-.005zm8.186 1.603l-.058.001c-.42.015-.782.109-1.181.317.64 1.486.338 2.961-.728 4.181.497.569 1.2.905 1.949.906.671 0 1.282-.257 1.746-.681l0 0 .085-.085c.51-.507.798-1.205.8-1.934 0-.001 0-.002 0-.003l0 0 0 0v-.001c0-.096-.008-.213-.019-.323-.155-1.335-1.254-2.369-2.593-2.378zm-11.155.355c-1.34 0-2.423 1.113-2.423 2.49 0 1.377 1.083 2.49 2.423 2.49.491-.001.965-.162 1.368-.447-.138-.223-.226-.482-.245-.761 0-.002 0-.005-.001-.007-.002-.037-.004-.075-.004-.113v-.001l0 0 0 0c0-.172.026-.337.073-.493-.995-.758-1.391-1.945-1.119-3.154-.024-.001-.048-.004-.072-.004zm14.25 2.142c-.072 0-.142.015-.212.028.003.058.006.117.006.176v.001l0 0 0 0c0 .001 0 .002 0 .003-.001.789-.301 1.506-.789 2.04.25.298.609.478.996.478.734 0 1.327-.609 1.327-1.363 0-.754-.592-1.363-1.327-1.363l0 0zm-11.558.153c-.691.015-1.297.604-1.299 1.355l0 0 0 0c .002.308.098.57.279.833l.042.055c.243.291.603.475 1.01.475.551 0 1.032-.354 1.229-.876-.468-.493-.806-1.116-.957-1.812-.101-.023-.201-.032-.3-.03z" fill="#f9f9f9"/>
</svg>
