<svg xmlns="http://www.w3.org/2000/svg" viewBox="0 0 48 48">
 <defs>
  <linearGradient id="linearGradient3764" x1="1" x2="47" gradientUnits="userSpaceOnUse" gradientTransform="matrix(0,-1,1,0,-1.5e-6,47.999998)">
   <stop style="stop-color:#f05d1c;stop-opacity:1"/>
   <stop offset="1" style="stop-color:#f16a30;stop-opacity:1"/>
  </linearGradient>
 </defs>
 <g>
  
  
  
 </g>
 <g>
  <path d="m 47,24 C 47,46.703 46.703,47 24,47 1.297,47 1,46.703 1,24 1,1.297 1.297,1 24,1 46.703,1 47,1.297 47,24 z" style="fill:url(#linearGradient3764);fill-opacity:1"/>
 </g>
 <g>
  <g>
   <!-- color: #f16a30 -->
   <g>
    <path d="M 15.836,12 34.16,12 C 36.281,12 38,13.715 38,15.836 L 38,34.16 C 38,36.281 36.281,38 34.16,38 L 15.836,38 C 13.715,38 12,36.281 12,34.16 L 12,15.836 C 12,13.715 13.715,12 15.836,12 m 0,0" style="fill:#000;opacity:0.1;fill-opacity:1;stroke:none;fill-rule:nonzero"/>
    <path d="m 14.836 11 l 18.324 0 c 2.121 0 3.84 1.715 3.84 3.836 l 0 18.324 c 0 2.121 -1.719 3.84 -3.84 3.84 l -18.324 0 c -2.121 0 -3.836 -1.719 -3.836 -3.84 l 0 -18.324 c 0 -2.121 1.715 -3.836 3.836 -3.836 m 0 0" style="fill:#f9f9f9;fill-opacity:1;stroke:none;fill-rule:nonzero"/>
   </g>
  </g>
 </g>
 <g>
  
 </g>
 <path d="m 14 14 0 7 7 0 0 -7 z m 8 0 0 1 1 0 0 1 1 0 0 -2 z m 2 2 0 1 2 0 0 1 -1 0 0 2 1 0 0 2 1 0 0 -6 -1 0 0 -1 -1 0 0 1 z m 2 -1 1 0 0 -1 -1 0 z m -1 5 -1 0 0 1 1 0 z m -1 -3 -1 0 0 2 1 0 z m -1 2 -1 0 0 2 1 0 z m 0 -2 0 -1 -1 0 0 1 z m 5 -3 0 7 7 0 0 -7 z m -13 1 5 0 0 5 -5 0 z m 14 0 5 0 0 5 -5 0 z m -13 1 0 3 3 0 0 -3 z m 14 0 0 3 3 0 0 -3 z m -14 6 0 1 1 0 0 -1 z m 0 1 -1 0 0 1 1 0 z m -1 1 -1 0 0 1 1 0 z m 5 -2 0 1 2 0 0 -1 z m 2 1 0 1 2 0 0 -1 0 -1 -1 0 0 1 z m 2 1 0 1 1 0 0 1 -1 0 0 1 -1 0 c 0 1 0 2 0 3 l 2 0 0 -1 -1 0 0 -1 1 0 0 -1 2 0 0 -1 -1 0 0 -3 -1 0 0 1 z m 3 2 1 0 0 -1 -1 0 z m 1 -1 1 0 0 1 c 1 0 2 0 3 0 l 0 -3 -2 0 0 1 c -0.667 0 -1.333 0 -2 0 z m 2 -2 0 -1 -1 0 0 1 z m 2 0 1 0 0 -1 -1 0 z m -10 1 -3 0 0 1 3 0 z m -3 1 -1 0 0 2 1 0 z m -1 0 0 -1 -1 0 0 1 z m -1 0 -1 0 0 2 1 0 z m 1 -1 1 0 0 -1 -1 0 z m 16 -2 0 3 1 0 0 -3 z m -14 4 0 1 1 0 0 -1 z m 14 0 0 3 -1 0 0 2 1 0 0 -1 1 0 0 -4 z m -1 5 -1 0 0 -1 -2 0 0 -1 c 1 0 2 0 3 0 l 0 -1 -1 0 0 -1 -2 0 0 1 -1 0 0 -1 -1 0 0 1 -1 0 0 1 -1 0 0 1 2 0 0 -1 1 0 0 2 1 0 0 3 -1 0 0 1 c 1 0 2 0 3 0 l 0 -3 1 0 z m 0 1 0 1 2 0 0 -1 z m -4 -1 -1 0 0 1 1 0 z m -1 1 -6 0 0 1 1 0 0 1 1 0 0 1 1 0 0 -1 1 0 0 -1 1 0 0 1 -1 0 0 1 2 0 0 -1 0 -1 z m -5 2 -1 0 0 1 1 0 z m -9 -6 0 7 7 0 0 -7 z m 1 1 5 0 0 5 -5 0 z m 1 1 0 3 3 0 0 -3 z m 18 4 0 1 1 0 0 -1 z" style="fill:#000;fill-opacity:0.098;stroke:none;fill-rule:evenodd"/>
 <path d="m 13 13 0 7 7 0 0 -7 z m 8 0 0 1 1 0 0 1 1 0 0 -2 z m 2 2 0 1 2 0 0 1 -1 0 0 2 1 0 0 2 1 0 0 -6 -1 0 0 -1 -1 0 0 1 z m 2 -1 1 0 0 -1 -1 0 z m -1 5 -1 0 0 1 1 0 z m -1 -3 -1 0 0 2 1 0 z m -1 2 -1 0 0 2 1 0 z m 0 -2 0 -1 -1 0 0 1 z m 5 -3 0 7 7 0 0 -7 z m -13 1 5 0 0 5 -5 0 z m 14 0 5 0 0 5 -5 0 z m -13 1 0 3 3 0 0 -3 z m 14 0 0 3 3 0 0 -3 z m -14 6 0 1 1 0 0 -1 z m 0 1 -1 0 0 1 1 0 z m -1 1 -1 0 0 1 1 0 z m 5 -2 0 1 2 0 0 -1 z m 2 1 0 1 2 0 0 -1 0 -1 -1 0 0 1 z m 2 1 0 1 1 0 0 1 -1 0 0 1 -1 0 c 0 1 0 2 0 3 l 2 0 0 -1 -1 0 0 -1 1 0 0 -1 2 0 0 -1 -1 0 0 -3 -1 0 0 1 z m 3 2 1 0 0 -1 -1 0 z m 1 -1 1 0 0 1 c 1 0 2 0 3 0 l 0 -3 -2 0 0 1 c -0.667 0 -1.333 0 -2 0 z m 2 -2 0 -1 -1 0 0 1 z m 2 0 1 0 0 -1 -1 0 z m -10 1 -3 0 0 1 3 0 z m -3 1 -1 0 0 2 1 0 z m -1 0 0 -1 -1 0 0 1 z m -1 0 -1 0 0 2 1 0 z m 1 -1 1 0 0 -1 -1 0 z m 16 -2 0 3 1 0 0 -3 z m -14 4 0 1 1 0 0 -1 z m 14 0 0 3 -1 0 0 2 1 0 0 -1 1 0 0 -4 z m -1 5 -1 0 0 -1 -2 0 0 -1 c 1 0 2 0 3 0 l 0 -1 -1 0 0 -1 -2 0 0 1 -1 0 0 -1 -1 0 0 1 -1 0 0 1 -1 0 0 1 2 0 0 -1 1 0 0 2 1 0 0 3 -1 0 0 1 c 1 0 2 0 3 0 l 0 -3 1 0 z m 0 1 0 1 2 0 0 -1 z m -4 -1 -1 0 0 1 1 0 z m -1 1 -6 0 0 1 1 0 0 1 1 0 0 1 1 0 0 -1 1 0 0 -1 1 0 0 1 -1 0 0 1 2 0 0 -1 0 -1 z m -5 2 -1 0 0 1 1 0 z m -9 -6 0 7 7 0 0 -7 z m 1 1 5 0 0 5 -5 0 z m 1 1 0 3 3 0 0 -3 z m 18 4 0 1 1 0 0 -1 z" style="fill:#242424;fill-opacity:1;stroke:none;fill-rule:evenodd"/>
</svg>
