<svg viewBox="0 0 48 48" xmlns="http://www.w3.org/2000/svg" xmlns:xlink="http://www.w3.org/1999/xlink">
  <linearGradient id="a" gradientTransform="matrix(0 -1 1 0 -.0000015 47.999998)" gradientUnits="userSpaceOnUse" x1="1" x2="47">
    <stop offset="0" stop-color="#f05d1c"/>
    <stop offset="1" stop-color="#f16a30"/>
  </linearGradient>
  <path d="m47 24c0 22.703-.297 23-23 23-22.703 0-23-.297-23-23 0-22.703.297-23 23-23 22.703 0 23 .297 23 23z" fill="url(#a)"/>
  <path d="m15.836 12h18.324c2.121 0 3.84 1.715 3.84 3.836v18.324c0 2.121-1.719 3.84-3.84 3.84h-18.324c-2.121 0-3.836-1.719-3.836-3.84v-18.324c0-2.121 1.715-3.836 3.836-3.836m0 0" opacity=".1"/>
  <path d="m14.836 11h18.324c2.121 0 3.84 1.715 3.84 3.836v18.324c0 2.121-1.719 3.84-3.84 3.84h-18.324c-2.121 0-3.836-1.719-3.836-3.84v-18.324c0-2.121 1.715-3.836 3.836-3.836m0 0" fill="#f9f9f9"/>
  <path d="m14 14v7h7v-7zm8 0v1h1v1h1v-2zm2 2v1h2v1h-1v2h1v2h1v-6h-1v-1h-1v1zm2-1h1v-1h-1zm-1 5h-1v1h1zm-1-3h-1v2h1zm-1 2h-1v2h1zm0-2v-1h-1v1zm5-3v7h7v-7zm-13 1h5v5h-5zm14 0h5v5h-5zm-13 1v3h3v-3zm14 0v3h3v-3zm-14 6v1h1v-1zm0 1h-1v1h1zm-1 1h-1v1h1zm5-2v1h2v-1zm2 1v1h2v-1-1h-1v1zm2 1v1h1v1h-1v1h-1c0 1 0 2 0 3h2v-1h-1v-1h1v-1h2v-1h-1v-3h-1v1zm3 2h1v-1h-1zm1-1h1v1c1 0 2 0 3 0v-3h-2v1c-.667 0-1.333 0-2 0zm2-2v-1h-1v1zm2 0h1v-1h-1zm-10 1h-3v1h3zm-3 1h-1v2h1zm-1 0v-1h-1v1zm-1 0h-1v2h1zm1-1h1v-1h-1zm16-2v3h1v-3zm-14 4v1h1v-1zm14 0v3h-1v2h1v-1h1v-4zm-1 5h-1v-1h-2v-1c1 0 2 0 3 0v-1h-1v-1h-2v1h-1v-1h-1v1h-1v1h-1v1h2v-1h1v2h1v3h-1v1c1 0 2 0 3 0v-3h1zm0 1v1h2v-1zm-4-1h-1v1h1zm-1 1h-6v1h1v1h1v1h1v-1h1v-1h1v1h-1v1h2v-1-1zm-5 2h-1v1h1zm-9-6v7h7v-7zm1 1h5v5h-5zm1 1v3h3v-3zm18 4v1h1v-1z" fill-opacity=".098" fill-rule="evenodd"/>
  <path d="m13 13v7h7v-7zm8 0v1h1v1h1v-2zm2 2v1h2v1h-1v2h1v2h1v-6h-1v-1h-1v1zm2-1h1v-1h-1zm-1 5h-1v1h1zm-1-3h-1v2h1zm-1 2h-1v2h1zm0-2v-1h-1v1zm5-3v7h7v-7zm-13 1h5v5h-5zm14 0h5v5h-5zm-13 1v3h3v-3zm14 0v3h3v-3zm-14 6v1h1v-1zm0 1h-1v1h1zm-1 1h-1v1h1zm5-2v1h2v-1zm2 1v1h2v-1-1h-1v1zm2 1v1h1v1h-1v1h-1c0 1 0 2 0 3h2v-1h-1v-1h1v-1h2v-1h-1v-3h-1v1zm3 2h1v-1h-1zm1-1h1v1c1 0 2 0 3 0v-3h-2v1c-.667 0-1.333 0-2 0zm2-2v-1h-1v1zm2 0h1v-1h-1zm-10 1h-3v1h3zm-3 1h-1v2h1zm-1 0v-1h-1v1zm-1 0h-1v2h1zm1-1h1v-1h-1zm16-2v3h1v-3zm-14 4v1h1v-1zm14 0v3h-1v2h1v-1h1v-4zm-1 5h-1v-1h-2v-1c1 0 2 0 3 0v-1h-1v-1h-2v1h-1v-1h-1v1h-1v1h-1v1h2v-1h1v2h1v3h-1v1c1 0 2 0 3 0v-3h1zm0 1v1h2v-1zm-4-1h-1v1h1zm-1 1h-6v1h1v1h1v1h1v-1h1v-1h1v1h-1v1h2v-1-1zm-5 2h-1v1h1zm-9-6v7h7v-7zm1 1h5v5h-5zm1 1v3h3v-3zm18 4v1h1v-1z" fill="#242424" fill-rule="evenodd"/>
</svg>
