<svg viewBox="0 0 48 48" xmlns="http://www.w3.org/2000/svg" xmlns:xlink="http://www.w3.org/1999/xlink">
  <linearGradient id="a" gradientTransform="matrix(0 -1 1 0 -.0000015 47.999998)" gradientUnits="userSpaceOnUse" x1="1" x2="47">
    <stop offset="0" stop-color="#5b4e47"/>
    <stop offset="1" stop-color="#665850"/>
  </linearGradient>
  <path d="m47 24c0 22.703-.297 23-23 23-22.703 0-23-.297-23-23 0-22.703.297-23 23-23 22.703 0 23 .297 23 23z" fill="url(#a)"/>
  <path d="m23.836 11c-2.977 4.063-13.09 15.523-8.785 22.14 3.336 5.125 14.668 5.152 17.961 0 4.289-6.699-6.641-18.08-9.176-22.14m0 0" opacity=".1" transform="translate(1 1)"/>
  <g transform="translate(.00045063)">
    <path d="m23.836 11c-2.977 4.063-13.09 15.523-8.785 22.14 3.336 5.125 14.668 5.152 17.961 0 4.289-6.699-6.641-18.08-9.176-22.14m0 0" fill="#f48e51"/>
    <path d="m22.82 19.406c-5.84.375-7.832 8.859-5.598 12.723 2.469 3.793 9.59 4.578 14 2.371-.773-.824-1.848-1.668-3.25-2.027-3.148-.813-7.859-5.688-5.496-8.938 2.363-3.25 6.281 0 6.281 0 0 0-.785-3.25-4.719-4.066-.246-.047-.527-.051-.781-.063-.16-.008-.277-.008-.434 0m-.004 0" fill="#ffc675"/>
  </g>
</svg>
