<svg viewBox="0 0 48 48" xmlns="http://www.w3.org/2000/svg" xmlns:xlink="http://www.w3.org/1999/xlink">
  <linearGradient id="a" gradientTransform="matrix(0 -1 1 0 -.0000015 47.999998)" gradientUnits="userSpaceOnUse" x1="1" x2="47">
    <stop offset="0" stop-color="#48a113"/>
    <stop offset="1" stop-color="#4fb215"/>
  </linearGradient>
  <path d="m47 24c0 22.703-.297 23-23 23-22.703 0-23-.297-23-23 0-22.703.297-23 23-23 22.703 0 23 .297 23 23z" fill="url(#a)"/>
  <g opacity=".1" transform="translate(1 1)">
    <use xlink:href="#b"/>
    <path d="m29.2 28.551c0-1.688 0-7.098 0-7.098h-1.434v-2.367c2.148 0 1.434 0 2.508-4.055h2.863v4.055h2.867v2.367h-2.867v6.082c0 .633.141 1.105.418 1.426.273.316.641.48 1.094.48.574.051 1.355-.215 1.355-.215v2.363c-.07.051-3.527 1.043-5.371 0-1.793-1.012-1.434-3.039-1.434-3.039m0 0"/>
    <path d="m19.2 12.01c-2.422 0-4.227.867-5.418 2.602-1.188 1.719-1.781 4.207-1.781 7.465 0 3.328.594 5.855 1.781 7.605.828 1.219 1.941 2.01 3.332 2.375 0 0 .281-.012.305.27.48 3.68 2.914 3.684 5.688 3.684 0 0 .359 0 .359-.336v-2.027c0-.34-.359-.34-.359-.34-1.387 0-1.746.086-2.113-1.227.477-.109.902-.258 1.316-.453.914-.449 1.668-1.102 2.258-1.965.598-.867 1.035-1.938 1.32-3.211.297-1.27.441-2.727.441-4.375 0-3.293-.602-5.797-1.813-7.5-1.207-1.711-2.984-2.566-5.316-2.566m-.02 1.648c.512 0 .895.168 1.223.52.191.199.359.457.52.77.086.227.176.473.242.75.191.746.324 1.648.402 2.723.078 1.074.109 2.293.109 3.656 0 1.371-.031 2.605-.109 3.695-.078 1.086-.215 2-.402 2.766-.07.285-.152.547-.242.785-.02.027-.027.063-.043.094-.148.273-.301.508-.477.695-.324.367-.715.539-1.223.539-.504 0-.898-.172-1.219-.539-.32-.375-.582-.918-.773-1.648-.191-.742-.324-1.645-.402-2.715-.074-1.078-.125-2.309-.125-3.676 0-1.355.043-2.563.125-3.625.078-1.059.211-1.953.402-2.672.191-.719.457-1.254.773-1.605.32-.348.711-.52 1.219-.52m0 .008"/>
  </g>
  <path id="b" d="m28.953 9c0 0 .797-.129 3.324 1.492 2.438 1.559 2.723 2.375 2.723 2.375l-14.832 21.938-7.168 4.195 1.121-8.06m14.832-21.941" fill-opacity=".392"/>
  <path d="m29.2 28.551c0-1.688 0-7.098 0-7.098h-1.434v-2.367c2.148 0 1.434 0 2.508-4.055h2.863v4.055h2.867v2.367h-2.867v6.082c0 .633.141 1.105.418 1.426.273.316.641.48 1.094.48.574.051 1.355-.215 1.355-.215v2.363c-.07.051-3.527 1.043-5.371 0-1.793-1.012-1.434-3.039-1.434-3.039m0 0" fill="#fff"/>
  <path d="m19.2 12.01c-2.422 0-4.227.867-5.418 2.602-1.188 1.719-1.781 4.207-1.781 7.465 0 3.328.594 5.855 1.781 7.605.828 1.219 1.941 2.01 3.332 2.375 0 0 .281-.012.305.27.48 3.68 2.914 3.684 5.688 3.684 0 0 .359 0 .359-.336v-2.027c0-.34-.359-.34-.359-.34-1.387 0-1.746.086-2.113-1.227.477-.109.902-.258 1.316-.453.914-.449 1.668-1.102 2.258-1.965.598-.867 1.035-1.938 1.32-3.211.297-1.27.441-2.727.441-4.375 0-3.293-.602-5.797-1.813-7.5-1.207-1.711-2.984-2.566-5.316-2.566m-.02 1.648c.512 0 .895.168 1.223.52.191.199.359.457.52.77.086.227.176.473.242.75.191.746.324 1.648.402 2.723.078 1.074.109 2.293.109 3.656 0 1.371-.031 2.605-.109 3.695-.078 1.086-.215 2-.402 2.766-.07.285-.152.547-.242.785-.02.027-.027.063-.043.094-.148.273-.301.508-.477.695-.324.367-.715.539-1.223.539-.504 0-.898-.172-1.219-.539-.32-.375-.582-.918-.773-1.648-.191-.742-.324-1.645-.402-2.715-.074-1.078-.125-2.309-.125-3.676 0-1.355.043-2.563.125-3.625.078-1.059.211-1.953.402-2.672.191-.719.457-1.254.773-1.605.32-.348.711-.52 1.219-.52m0 .008" fill="#fff"/>
</svg>
