<svg xmlns="http://www.w3.org/2000/svg" viewBox="0 0 48 48">
 <defs>
  <linearGradient id="linearGradient3764" x1="1" x2="47" gradientUnits="userSpaceOnUse" gradientTransform="matrix(0,-1,1,0,-1.5e-6,47.999998)">
   <stop style="stop-color:#e1e1e1;stop-opacity:1"/>
   <stop offset="1" style="stop-color:#ebebeb;stop-opacity:1"/>
  </linearGradient>
 </defs>
 <g>
  
  
  
 </g>
 <g>
  <path d="m 47,24 C 47,46.703 46.703,47 24,47 1.297,47 1,46.703 1,24 1,1.297 1.297,1 24,1 46.703,1 47,1.297 47,24 z" style="fill:url(#linearGradient3764);fill-opacity:1"/>
 </g>
 <g>
  <g>
   <g transform="translate(1,1)">
    <g style="opacity:0.1">
     <!-- color: #ebebeb -->
     <g>
      <path d="m 11.637 24 l 6.727 0 c 0.352 0 0.637 0.352 0.637 0.789 l 0 8.418 c 0 0.438 -0.285 0.789 -0.637 0.789 l -6.727 0 c -0.352 0 -0.637 -0.352 -0.637 -0.789 l 0 -8.418 c 0 -0.438 0.285 -0.789 0.637 -0.789 m 0 0" style="fill:#000;fill-opacity:1;stroke:none;fill-rule:nonzero"/>
      <path d="m 20.637 18 l 6.727 0 c 0.352 0 0.637 0.566 0.637 1.27 l 0 13.465 c 0 0.699 -0.285 1.266 -0.637 1.266 l -6.727 0 c -0.352 0 -0.637 -0.566 -0.637 -1.266 l 0 -13.465 c 0 -0.703 0.285 -1.27 0.637 -1.27 m 0 0" style="fill:#000;fill-opacity:1;stroke:none;fill-rule:nonzero"/>
      <path d="m 29.637 14 l 6.727 0 c 0.352 0 0.637 0.707 0.637 1.582 l 0 16.832 c 0 0.875 -0.285 1.582 -0.637 1.582 l -6.727 0 c -0.352 0 -0.637 -0.707 -0.637 -1.582 l 0 -16.832 c 0 -0.875 0.285 -1.582 0.637 -1.582 m 0 0" style="fill:#000;fill-opacity:1;stroke:none;fill-rule:nonzero"/>
     </g>
    </g>
   </g>
  </g>
 </g>
 <g>
  <g>
   <!-- color: #ebebeb -->
   <g>
    <path d="m 11.637 24 l 6.727 0 c 0.352 0 0.637 0.352 0.637 0.789 l 0 8.418 c 0 0.438 -0.285 0.789 -0.637 0.789 l -6.727 0 c -0.352 0 -0.637 -0.352 -0.637 -0.789 l 0 -8.418 c 0 -0.438 0.285 -0.789 0.637 -0.789 m 0 0" style="fill:#f14c4c;fill-opacity:1;stroke:none;fill-rule:nonzero"/>
    <path d="m 20.637 18 l 6.727 0 c 0.352 0 0.637 0.566 0.637 1.27 l 0 13.465 c 0 0.699 -0.285 1.266 -0.637 1.266 l -6.727 0 c -0.352 0 -0.637 -0.566 -0.637 -1.266 l 0 -13.465 c 0 -0.703 0.285 -1.27 0.637 -1.27 m 0 0" style="fill:#26b21e;fill-opacity:1;stroke:none;fill-rule:nonzero"/>
    <path d="m 29.637 14 l 6.727 0 c 0.352 0 0.637 0.707 0.637 1.582 l 0 16.832 c 0 0.875 -0.285 1.582 -0.637 1.582 l -6.727 0 c -0.352 0 -0.637 -0.707 -0.637 -1.582 l 0 -16.832 c 0 -0.875 0.285 -1.582 0.637 -1.582 m 0 0" style="fill:#209cc8;fill-opacity:1;stroke:none;fill-rule:nonzero"/>
   </g>
  </g>
 </g>
 <g>
  
 </g>
</svg>
