<svg viewBox="0 0 48 48" xmlns="http://www.w3.org/2000/svg" xmlns:xlink="http://www.w3.org/1999/xlink">
  <linearGradient id="a" gradientTransform="matrix(0 -1 1 0 -.0000015 47.999998)" gradientUnits="userSpaceOnUse" x1="1" x2="47">
    <stop offset="0" stop-color="#f5c755"/>
    <stop offset="1" stop-color="#f6cd68"/>
  </linearGradient>
  <path d="m47 24c0 22.703-.297 23-23 23-22.703 0-23-.297-23-23 0-22.703.297-23 23-23 22.703 0 23 .297 23 23z" fill="url(#a)"/>
  <path d="m22 13c-2.761 0-5 2.239-5 5 .001 1.576.747 3.058 2.01 4h-.01c-.554 0-1 .446-1 1v1.5l-7-2.5v13l7-2.5v1.5c0 .554.446 1 1 1h16c .554 0 1-.446 1-1v-11c0-.554-.446-1-1-1h-.01c1.263-.942 2.01-2.424 2.01-4 .002-2.761-2.239-5-5-5-2.761 0-5 2.239-5 5 .001 1.576.747 3.058 2.01 4h-4.02c1.263-.942 2.01-2.424 2.01-4 .002-2.761-2.239-5-5-5zm0 4c .552 0 1 .448 1 1 0 .552-.448 1-1 1-.552 0-1-.448-1-1 0-.552.448-1 1-1zm10 0c .552 0 1 .448 1 1 0 .552-.448 1-1 1-.552 0-1-.448-1-1 0-.552.448-1 1-1z" fill-rule="evenodd" opacity=".1"/>
  <path d="m21 12c-2.761 0-5 2.239-5 5 .001 1.576.747 3.058 2.01 4h-.01c-.554 0-1 .446-1 1v1.5l-7-2.5v13l7-2.5v1.5c0 .554.446 1 1 1h16c .554 0 1-.446 1-1v-11c0-.554-.446-1-1-1h-.01c1.263-.942 2.01-2.424 2.01-4 .002-2.761-2.239-5-5-5-2.761 0-5 2.239-5 5 .001 1.576.747 3.058 2.01 4h-4.02c1.263-.942 2.01-2.424 2.01-4 .002-2.761-2.239-5-5-5zm0 4c .552 0 1 .448 1 1 0 .552-.448 1-1 1-.552 0-1-.448-1-1 0-.552.448-1 1-1zm10 0c .552 0 1 .448 1 1 0 .552-.448 1-1 1-.552 0-1-.448-1-1 0-.552.448-1 1-1z" fill="#fbfaf5" fill-rule="evenodd"/>
</svg>
