<svg xmlns="http://www.w3.org/2000/svg" viewBox="0 0 48 48">
 <defs>
  <linearGradient id="linearGradient3764" x1="1" x2="47" gradientUnits="userSpaceOnUse" gradientTransform="matrix(0,-1,1,0,-1.5e-6,47.999998)">
   <stop style="stop-color:#3d3d3d;stop-opacity:1"/>
   <stop offset="1" style="stop-color:#474747;stop-opacity:1"/>
  </linearGradient>
 </defs>
 <g>
  
  
  
 </g>
 <g>
  <path d="m 47,24 C 47,46.703 46.703,47 24,47 1.297,47 1,46.703 1,24 1,1.297 1.297,1 24,1 46.703,1 47,1.297 47,24 z" style="fill:url(#linearGradient3764);fill-opacity:1"/>
 </g>
 <g>
  <g>
   <g transform="translate(1,1)">
    <g style="opacity:0.1">
     <!-- color: #474747 -->
     <g>
      <path d="m 13 14 l 0 6 l 18 0 l 0 5.996 l 6 0 l 0 -12 l -24 0 z m 8.25 10 l 0 6 l -8.25 0 l 0 5.996 l 24 0 l 0 -5.996 l -9 0 l 0 -6 l -6.75 0 z" transform="translate(-1,-1)" style="fill:#000;fill-opacity:1;stroke:none;fill-rule:nonzero"/>
     </g>
    </g>
   </g>
  </g>
 </g>
 <g>
  <g>
   <!-- color: #474747 -->
   <g>
    <path d="m 12 13 l 24 0 l 0 12 l -6 0 l 0 -5.996 l -18 0 m 0 -6" style="fill:#ff5f61;fill-opacity:1;stroke:none;fill-rule:nonzero"/>
    <path d="m 12 29 0 5.996 24 0 0 -5.996 -9 0 0 -6 -6 0 0 6" style="fill:#4cb7e5;fill-opacity:1;stroke:none;fill-rule:nonzero"/>
   </g>
  </g>
 </g>
 <g>
  
 </g>
</svg>
