<svg viewBox="0 0 48 48" xmlns="http://www.w3.org/2000/svg" xmlns:xlink="http://www.w3.org/1999/xlink">
  <linearGradient id="a" gradientTransform="matrix(0 -1 1 0 -.0000015 47.999998)" gradientUnits="userSpaceOnUse" x1="1" x2="47">
    <stop offset="0" stop-color="#3d3d3d"/>
    <stop offset="1" stop-color="#474747"/>
  </linearGradient>
  <path d="m47 24c0 22.703-.297 23-23 23-22.703 0-23-.297-23-23 0-22.703.297-23 23-23 22.703 0 23 .297 23 23z" fill="url(#a)"/>
  <path d="m31.29 212.12c-5.379 2.981-9 8.552-9 14.936 0 7.777 5.369 14.353 12.75 16.506v5.244l2.25 9 2.25-9v-4.518c.249.001.498.018.75.018.252 0 .501-.008.75-.018v4.518l2.25 9 2.25-9v-5.244c7.381-2.153 12.75-8.728 12.75-16.506 0-6.384-3.621-11.954-9-14.936v.686c3.644 2.737 6 7.092 6 12 0 6.437-4.056 11.928-9.75 14.06v-8.06c.478-.693 1.669-1.626 2.098-1.738-4.996-.006-10.279 0-14.584 0 .47.066 1.453.628 1.986 1.738v8.06c-5.694-2.129-9.75-7.62-9.75-14.06 0-4.908 2.356-9.263 6-12zm9 17.848c.23.211.58.485.75.838v8.982c-.248.012-.499.018-.75.018-.251 0-.502-.005-.75-.018v-8.982c.203-.295.402-.587.75-.838z" opacity=".12" transform="matrix(.61805556 0 0 .67855153 .09938336 -132.43165)"/>
  <path d="m31.29 212.12c-5.379 2.981-9 8.552-9 14.936 0 7.777 5.369 14.353 12.75 16.506v5.244l2.25 9 2.25-9v-4.518c.249.001.498.018.75.018.252 0 .501-.008.75-.018v4.518l2.25 9 2.25-9v-5.244c7.381-2.153 12.75-8.728 12.75-16.506 0-6.384-3.621-11.954-9-14.936v.686c3.644 2.737 6 7.092 6 12 0 6.437-4.056 11.928-9.75 14.06v-8.06c.478-.693 1.669-1.626 2.098-1.738h-2.098c-4.177-.001-8.294 0-12.486 0 .47.066 1.453.628 1.986 1.738v8.06c-5.694-2.129-9.75-7.62-9.75-14.06 0-4.908 2.356-9.263 6-12zm9 17.848c.23.211.58.485.75.838v8.982c-.248.012-.499.018-.75.018-.251 0-.502-.005-.75-.018v-8.982c.203-.295.402-.587.75-.838z" fill="#3f981e" transform="matrix(.61805556 0 0 .67855153 -.90061672 -133.43165)"/>
</svg>
