<svg xmlns="http://www.w3.org/2000/svg" viewBox="0 0 48 48">
 <defs>
  <linearGradient id="linearGradient3764" x1="1" x2="47" gradientUnits="userSpaceOnUse" gradientTransform="matrix(0,-1,1,0,-1.5e-6,47.999998)">
   <stop style="stop-color:#3d3d3d;stop-opacity:1"/>
   <stop offset="1" style="stop-color:#474747;stop-opacity:1"/>
  </linearGradient>
 </defs>
 <g>
  
  
  
 </g>
 <g>
  <path d="m 47,24 C 47,46.703 46.703,47 24,47 1.297,47 1,46.703 1,24 1,1.297 1.297,1 24,1 46.703,1 47,1.297 47,24 z" style="fill:url(#linearGradient3764);fill-opacity:1"/>
 </g>
 <g>
  
 </g>
 <g transform="matrix(0.61805556,0,0,0.67855153,0.09938336,-132.43165)" style="fill:#000;opacity:0.12;fill-opacity:1;stroke:none;display:inline">
  <path d="m 31.29 212.12 c -5.379 2.981 -9 8.552 -9 14.936 0 7.777 5.369 14.353 12.75 16.506 l 0 5.244 2.25 9 2.25 -9 0 -4.518 c 0.249 0.001 0.498 0.018 0.75 0.018 0.252 0 0.501 -0.008 0.75 -0.018 l 0 4.518 2.25 9 2.25 -9 0 -5.244 c 7.381 -2.153 12.75 -8.728 12.75 -16.506 0 -6.384 -3.621 -11.954 -9 -14.936 l 0 0.686 c 3.644 2.737 6 7.092 6 12 0 6.437 -4.056 11.928 -9.75 14.06 l 0 -8.06 c 0.478 -0.693 1.669 -1.626 2.098 -1.738 -4.996 -0.006 -10.279 0 -14.584 0 0.47 0.066 1.453 0.628 1.986 1.738 l 0 8.06 c -5.694 -2.129 -9.75 -7.62 -9.75 -14.06 0 -4.908 2.356 -9.263 6 -12 z m 9 17.848 c 0.23 0.211 0.58 0.485 0.75 0.838 l 0 8.982 c -0.248 0.012 -0.499 0.018 -0.75 0.018 -0.251 0 -0.502 -0.005 -0.75 -0.018 l 0 -8.982 c 0.203 -0.295 0.402 -0.587 0.75 -0.838 z" style="visibility:visible;stroke-dasharray:none;stroke-opacity:1;stroke-miterlimit:4;color:#000;fill-rule:nonzero;stroke-linecap:butt;stroke-linejoin:miter;stroke-width:1;stroke-dashoffset:0"/>
 </g>
 <g transform="matrix(0.61805556,0,0,0.67855153,-0.90061672,-133.43165)" style="fill:#3f981e;fill-opacity:1;stroke:none;display:inline">
  <path d="m 31.29 212.12 c -5.379 2.981 -9 8.552 -9 14.936 0 7.777 5.369 14.353 12.75 16.506 l 0 5.244 2.25 9 2.25 -9 0 -4.518 c 0.249 0.001 0.498 0.018 0.75 0.018 0.252 0 0.501 -0.008 0.75 -0.018 l 0 4.518 2.25 9 2.25 -9 0 -5.244 c 7.381 -2.153 12.75 -8.728 12.75 -16.506 0 -6.384 -3.621 -11.954 -9 -14.936 l 0 0.686 c 3.644 2.737 6 7.092 6 12 0 6.437 -4.056 11.928 -9.75 14.06 l 0 -8.06 c 0.478 -0.693 1.669 -1.626 2.098 -1.738 l -2.098 0 c -4.177 -0.001 -8.294 0 -12.486 0 0.47 0.066 1.453 0.628 1.986 1.738 l 0 8.06 c -5.694 -2.129 -9.75 -7.62 -9.75 -14.06 0 -4.908 2.356 -9.263 6 -12 z m 9 17.848 c 0.23 0.211 0.58 0.485 0.75 0.838 l 0 8.982 c -0.248 0.012 -0.499 0.018 -0.75 0.018 -0.251 0 -0.502 -0.005 -0.75 -0.018 l 0 -8.982 c 0.203 -0.295 0.402 -0.587 0.75 -0.838 z" style="visibility:visible;stroke-dasharray:none;stroke-opacity:1;stroke-miterlimit:4;color:#000;fill-rule:nonzero;stroke-linecap:butt;stroke-linejoin:miter;stroke-width:1;stroke-dashoffset:0"/>
 </g>
</svg>
