<svg xmlns="http://www.w3.org/2000/svg" viewBox="0 0 48 48">
 <defs>
  <linearGradient id="linearGradient3764" x1="1" x2="47" gradientUnits="userSpaceOnUse" gradientTransform="matrix(0,-1,1,0,-1.5e-6,47.999998)">
   <stop style="stop-color:#3d3d3d;stop-opacity:1"/>
   <stop offset="1" style="stop-color:#474747;stop-opacity:1"/>
  </linearGradient>
 </defs>
 <g>
  
  
  
 </g>
 <g>
  <path d="m 47,24 C 47,46.703 46.703,47 24,47 1.297,47 1,46.703 1,24 1,1.297 1.297,1 24,1 46.703,1 47,1.297 47,24 z" style="fill:url(#linearGradient3764);fill-opacity:1"/>
 </g>
 <g>
  <g>
   <g transform="translate(1,1)">
    <g style="opacity:0.1">
     <!-- color: #474747 -->
     <g>
      <path d="m 23.938 13 c 0 0 -1.246 3.188 -1.246 11.09 c 0.125 7.906 1.125 10.84 1.125 10.84 c 0 0 0.992 -1.785 1.246 -10.965 c 0.125 -9.05 -1.125 -10.969 -1.125 -10.969 m -4.082 4.02 c 0 0 -8.73 3.059 -8.852 7.648 c -0.125 4.594 8.977 5.863 8.977 5.863 l 1.121 4.465 l 0.5 -6.629 c 0 0 -8.109 0 -7.98 -3.578 c 0.125 -3.578 6.234 -7.777 6.234 -7.777 m 8.289 0.008 c 0 0 6.113 4.207 6.234 7.777 c 0.125 3.578 -7.977 3.578 -7.977 3.578 l 0.5 6.629 l 1.121 -4.465 c 0 0 9.102 -1.273 8.98 -5.863 c -0.125 -4.594 -8.855 -7.652 -8.855 -7.652 m -0.004 -0.004" style="fill:#000;fill-opacity:1;stroke:none;fill-rule:evenodd"/>
     </g>
    </g>
   </g>
  </g>
 </g>
 <g>
  <g>
   <!-- color: #474747 -->
   <g>
    <path d="m 23.938 13 c 0 0 -1.246 3.188 -1.246 11.09 c 0.125 7.906 1.125 10.84 1.125 10.84 c 0 0 0.992 -1.785 1.246 -10.965 c 0.125 -9.05 -1.125 -10.969 -1.125 -10.969 m -4.082 4.02 c 0 0 -8.73 3.059 -8.852 7.648 c -0.125 4.594 8.977 5.863 8.977 5.863 l 1.121 4.465 l 0.5 -6.629 c 0 0 -8.109 0 -7.98 -3.578 c 0.125 -3.578 6.234 -7.777 6.234 -7.777 m 8.289 0.008 c 0 0 6.113 4.207 6.234 7.777 c 0.125 3.578 -7.977 3.578 -7.977 3.578 l 0.5 6.629 l 1.121 -4.465 c 0 0 9.102 -1.273 8.98 -5.863 c -0.125 -4.594 -8.855 -7.652 -8.855 -7.652 m -0.004 -0.004" style="fill:#d62828;fill-opacity:1;stroke:none;fill-rule:evenodd"/>
   </g>
  </g>
 </g>
 <g>
  
 </g>
</svg>
