<svg viewBox="0 0 48 48" xmlns="http://www.w3.org/2000/svg" xmlns:xlink="http://www.w3.org/1999/xlink">
  <linearGradient id="a" gradientTransform="matrix(0 -1 1 0 -.0000015 47.999998)" gradientUnits="userSpaceOnUse" x1="1" x2="47">
    <stop offset="0" stop-color="#3d3d3d"/>
    <stop offset="1" stop-color="#474747"/>
  </linearGradient>
  <path d="m47 24c0 22.703-.297 23-23 23-22.703 0-23-.297-23-23 0-22.703.297-23 23-23 22.703 0 23 .297 23 23z" fill="url(#a)"/>
  <path d="m24.19 44.12c-.697-2.027-1.764-4.279-2.099-6.673l-.112-5.833c-.904-.066-.908-1.14-1.648-1.328l-.906.547c-1.27-.416-2.296-.968-3.234-1.672l-.078-.938c-.477-.339-.898-.697-1.25-1.078l-1.203.094c-1.148-1.243-1.58-1.982-2.078-2.828l.406-1.031c-4.046-8.63-.756-15.585 7.078-18.586-8.333 6.636-7.571 18.872 2.781 21.586l.141-2.766c.276-1.398 1.754-3.534 2.32-4.641.504.957 1.523 2.988 1.82 4.438l.016 3.109c11-3.342 11.217-15.911 2.648-21.844 8.171 2.786 11.343 11.958 7.336 18.703l.391.938c-.511 1.061-1.344 1.966-2.094 2.906l-1.125-.078c-.352.354-.778.708-1.297 1.062l-.078 1.078c-.906.638-2.02 1.19-3.188 1.563l-.937-.594c-.802.288-.729 1.028-1.531 1.109l-.029 6.404c-.29 2.258-1.357 4.067-2.05 6.353z" fill-rule="evenodd" opacity=".12" transform="matrix(.8059831 0 0 .78592493 5.6161053 7.828256)"/>
  <path d="m24.19 44.12c-.697-2.027-1.764-4.279-2.099-6.673l-.112-5.833c-.904-.066-.908-1.14-1.648-1.328l-.906.547c-1.27-.416-2.296-.968-3.234-1.672l-.078-.938c-.477-.339-.898-.697-1.25-1.078l-1.203.094c-1.148-1.243-1.58-1.982-2.078-2.828l.406-1.031c-4.046-8.63-.756-15.585 7.078-18.586-8.333 6.636-7.571 18.872 2.781 21.586l.141-2.766c.276-1.398 1.754-3.534 2.32-4.641.504.957 1.523 2.988 1.82 4.438l.016 3.109c11-3.342 11.217-15.911 2.648-21.844 8.171 2.786 11.343 11.958 7.336 18.703l.391.938c-.511 1.061-1.344 1.966-2.094 2.906l-1.125-.078c-.352.354-.778.708-1.297 1.062l-.078 1.078c-.906.638-2.02 1.19-3.188 1.563l-.937-.594c-.802.288-.729 1.028-1.531 1.109l-.029 6.404c-.29 2.258-1.357 4.067-2.05 6.353z" fill="#344b9e" fill-rule="evenodd" transform="matrix(.8059831 0 0 .78592493 4.6161054 6.828256)"/>
</svg>
