<svg viewBox="0 0 48 48" xmlns="http://www.w3.org/2000/svg" xmlns:xlink="http://www.w3.org/1999/xlink">
  <linearGradient id="a" gradientTransform="matrix(0 -1 1 0 -.0000015 47.999998)" gradientUnits="userSpaceOnUse" x1="1" x2="47">
    <stop offset="0" stop-color="#3d3d3d"/>
    <stop offset="1" stop-color="#474747"/>
  </linearGradient>
  <path d="m47 24c0 22.703-.297 23-23 23-22.703 0-23-.297-23-23 0-22.703.297-23 23-23 22.703 0 23 .297 23 23z" fill="url(#a)"/>
  <path d="m15 210.31c-5.379 2.981-9 8.552-9 14.936 0 8.796 6.872 16.05 15.75 17.12v4.635l2.25 9 2.25-9v-4.635c8.878-1.062 15.75-8.319 15.75-17.12 0-6.384-3.621-11.954-9-14.936v.686c3.644 2.737 6 7.092 6 12 0 7.52-5.533 13.751-12.75 14.836v-8.836c.478-.693 1.669-1.626 2.098-1.738h-8.584c.47.066 1.453.628 1.986 1.738v8.836c-7.217-1.085-12.75-7.316-12.75-14.836 0-4.908 2.356-9.263 6-12z" opacity=".12" transform="matrix(.61805556 0 0 .67855153 10.166667 -131.20919)"/>
  <path d="m15 210.31c-5.379 2.981-9 8.552-9 14.936 0 8.796 6.872 16.05 15.75 17.12v4.635l2.25 9 2.25-9v-4.635c8.878-1.062 15.75-8.319 15.75-17.12 0-6.384-3.621-11.954-9-14.936v.686c3.644 2.737 6 7.092 6 12 0 7.52-5.533 13.751-12.75 14.836v-8.836c.478-.693 1.669-1.626 2.098-1.738h-8.584c.47.066 1.453.628 1.986 1.738v8.836c-7.217-1.085-12.75-7.316-12.75-14.836 0-4.908 2.356-9.263 6-12z" fill="#b0b08a" transform="matrix(.61805556 0 0 .67855153 9.1666666 -132.20919)"/>
</svg>
