<svg xmlns="http://www.w3.org/2000/svg" viewBox="0 0 48 48">
 <defs>
  <linearGradient id="linearGradient3764" x1="1" x2="47" gradientUnits="userSpaceOnUse" gradientTransform="matrix(0,-1,1,0,-1.5e-6,47.999998)">
   <stop style="stop-color:#165fb2;stop-opacity:1"/>
   <stop offset="1" style="stop-color:#1869c4;stop-opacity:1"/>
  </linearGradient>
 </defs>
 <g>
  
  
  
 </g>
 <g>
  <path d="m 47,24 C 47,46.703 46.703,47 24,47 1.297,47 1,46.703 1,24 1,1.297 1.297,1 24,1 46.703,1 47,1.297 47,24 z" style="fill:url(#linearGradient3764);fill-opacity:1"/>
 </g>
 <g>
  
 </g>
 <path d="m 18.285 16.01 c -2.05 -0.08 -4.053 0.308 -5.977 1.408 c -1.154 1.124 -2.309 4.173 -2.309 7.604 c 0 5.622 2 7.996 2 7.996 c 15 -8.489 13 4.983 28 -0.5 -5.189 -0.843 -11.03 -6.662 -18.258 -7.249 6.325 -3.155 11.912 -2.749 15.258 -2.551 -6 -2.025 -12.563 -6.47 -18.715 -6.709" style="fill:#000;opacity:1;fill-opacity:0.098;stroke:none"/>
 <path d="m 39 31.517 c -15 5.483 -13 -7.989 -28 0.5 l 2 -6 c 11 -6 19.08 4.376 26 5.5 z" style="fill:#7ed1f3;opacity:1;fill-opacity:1;stroke:none"/>
 <path d="m 19.818 24.22 c -2.145 -0.024 -4.412 0.48 -6.818 1.793 l -1.832 5.496 c 0.049 0.113 0.099 0.235 0.146 0.334 c 1.274 -0.706 2.432 -1.265 3.479 -1.68 c 2.815 -2.611 5.595 -4.371 8.223 -5.508 c -1.038 -0.252 -2.098 -0.423 -3.197 -0.436 z" style="fill:#000;opacity:1;fill-opacity:0.098;stroke:none"/>
 <path d="m 36 21.717 c -5 -0.297 -15 -1.1 -25 10.3 0 0 -2 -2.374 -2 -7.996 0 -3.431 1.154 -6.479 2.308 -7.604 c 7.692 -4.4 16.692 2.6 24.692 5.3" style="fill:#f9f9f9;opacity:1;fill-opacity:1;stroke:none"/>
</svg>
