<svg viewBox="0 0 48 48" xmlns="http://www.w3.org/2000/svg" xmlns:xlink="http://www.w3.org/1999/xlink">
  <linearGradient id="a" gradientTransform="matrix(0 -1 1 0 -.0000015 47.999998)" gradientUnits="userSpaceOnUse" x1="1" x2="47">
    <stop offset="0" stop-color="#cfbcad"/>
    <stop offset="1" stop-color="#d6c6b9"/>
  </linearGradient>
  <radialGradient id="b" cx="24" cy="22" gradientTransform="matrix(1 0 0 .8 0 4.4)" gradientUnits="userSpaceOnUse" r="10">
    <stop offset="0" stop-color="#dad4c2"/>
    <stop offset="1" stop-color="#d6cfba"/>
  </radialGradient>
  <path d="m47 24c0 22.703-.297 23-23 23-22.703 0-23-.297-23-23 0-22.703.297-23 23-23 22.703 0 23 .297 23 23z" fill="url(#a)"/>
  <path d="m15.5 13c-1.385 0-2.5 1.115-2.5 2.5v15c0 1.385 1.115 2.5 2.5 2.5h1.5v4h4v-4h8v4h4v-4h1.5c1.385 0 2.5-1.115 2.5-2.5v-15c0-1.385-1.115-2.5-2.5-2.5z" opacity=".1" transform=""/>
  <path d="m16 28v8h4v-8zm12 0v8h4v-8z" fill="#323232"/>
  <path d="m16 32v1h4v-1zm12 0v1h4v-1z" opacity=".1"/>
  <rect fill="#6f6751" height="20" rx="2.5" width="24" x="12" y="12"/>
  <rect fill="url(#b)" height="16" rx="1" width="20" x="14" y="14"/>
</svg>
