<svg xmlns="http://www.w3.org/2000/svg" viewBox="0 0 48 48">
 <defs>
  <linearGradient id="linearGradient4174" y1="47" x2="0" y2="1" gradientUnits="userSpaceOnUse">
   <stop style="stop-color:#7bb432;stop-opacity:1"/>
   <stop offset="1" style="stop-color:#86c436;stop-opacity:1"/>
  </linearGradient>
  <linearGradient id="linearGradient4182" y1="47" x2="0" y2="1" gradientUnits="userSpaceOnUse">
   <stop style="stop-color:#8ec63e;stop-opacity:1"/>
   <stop offset="1" style="stop-color:#97cc4c;stop-opacity:1"/>
  </linearGradient>
 </defs>
 <g>
  
  
  
 </g>
 <path d="M 24,1 C 23,5 23,43 24,47 46.703,47 47,46.703 47,24 47,1.297 46.703,1 24,1 Z" style="fill:url(#linearGradient4174);fill-opacity:1;stroke:none;fill-rule:evenodd"/>
 <path d="M 24 1 C 1.297 1 1 1.297 1 24 C 1 46.703 1.297 47 24 47 L 24 1 z " style="fill:url(#linearGradient4182);fill-opacity:1;stroke:none;fill-rule:evenodd"/>
 <path d="m 14 12 c -1 0 -1.996 0.996 -1.996 1.996 l 0 22 c 0 1 0.996 2 1.996 2 l 22 0 c 1 0 2 -1 2 -2 l 0 -22 c 0 -1 -1 -1.996 -2 -1.996 l -22 0 z m 11 1.996 l 10 0 c 0.574 0 1 0.352 1 1 l 0 20 c 0 0.707 -0.352 0.996 -1 0.996 l -10 0 l 0 -5.992 l 8 -5 l -8 -5 l 0 9.998 l -6 4 l 0 -18 l 6 4 l 0 -6 z" style="fill:#000;opacity:0.1;fill-opacity:1;stroke:none;fill-rule:nonzero"/>
 <path d="m 13 11 c -1 0 -1.996 0.996 -1.996 1.996 l 0 22 c 0 1 0.996 2 1.996 2 l 22 0 c 1 0 2 -1 2 -2 l 0 -22 c 0 -1 -1 -1.996 -2 -1.996 l -22 0 z m 11 1.996 l 10 0 c 0.574 0 1 0.352 1 1 l 0 20 c 0 0.707 -0.352 0.996 -1 0.996 l -10 0 l 0 -5.992 l 8 -5 l -8 -5 l 0 9.998 l -6 4 l 0 -18 l 6 4 l 0 -6 z" style="fill:#f9f9f9;fill-opacity:1;stroke:none;fill-rule:nonzero"/>
 <g>
  
 </g>
</svg>
