<svg viewBox="0 0 48 48" xmlns="http://www.w3.org/2000/svg" xmlns:xlink="http://www.w3.org/1999/xlink">
  <linearGradient id="a" gradientTransform="matrix(0 -1 1 0 -.0000015 47.999998)" gradientUnits="userSpaceOnUse" x1="1" x2="47">
    <stop offset="0" stop-color="#e94d5f"/>
    <stop offset="1" stop-color="#eb5f6f"/>
  </linearGradient>
  <path d="m47 24c0 22.703-.297 23-23 23-22.703 0-23-.297-23-23 0-22.703.297-23 23-23 22.703 0 23 .297 23 23z" fill="url(#a)"/>
  <path d="m19 17l-7 6.4v3.199l7 6.4v-4.801l-3.5-3.195 3.5-3.203v-4.801m7.666 0l-6.666 16h3.334l6.666-16zm4.334 0v4.801l3.5 3.203-3.5 3.195v4.801l7-6.4v-3.199l-7-6.4" opacity=".1"/>
  <path d="m18 16l-7 6.4v3.2l7 6.4v-4.8l-3.5-3.196875 3.5-3.203125zm0 0" fill="#f9f9f9"/>
  <path d="m30 16l7 6.4v3.2l-7 6.4v-4.8l3.5-3.196875-3.5-3.203125zm0 0" fill="#f9f9f9"/>
  <path d="m25.666666 16h3.333334l-6.666666 16h-3.333334zm0 0" fill="#f9f9f9"/>
</svg>
