<svg xmlns="http://www.w3.org/2000/svg" viewBox="0 0 48 48">
 <defs>
  <linearGradient id="linearGradient3764" x1="1" x2="47" gradientUnits="userSpaceOnUse" gradientTransform="matrix(0,-1,1,0,-1.5e-6,47.999998)">
   <stop style="stop-color:#e94d5f;stop-opacity:1"/>
   <stop offset="1" style="stop-color:#eb5f6f;stop-opacity:1"/>
  </linearGradient>
 </defs>
 <g>
  
  
  
 </g>
 <g>
  <path d="m 47,24 C 47,46.703 46.703,47 24,47 1.297,47 1,46.703 1,24 1,1.297 1.297,1 24,1 46.703,1 47,1.297 47,24 z" style="fill:url(#linearGradient3764);fill-opacity:1"/>
 </g>
 <g>
  
 </g>
 <path d="m 19 17 -7 6.4 0 3.199 l 7 6.4 0 -4.801 -3.5 -3.195 3.5 -3.203 0 -4.801 m 7.666 0 -6.666 16 3.334 0 6.666 -16 -3.334 0 m 4.334 0 0 4.801 3.5 3.203 -3.5 3.195 0 4.801 7 -6.4 0 -3.199 -7 -6.4" style="fill:#000;opacity:0.1;fill-opacity:1;stroke:none;fill-rule:nonzero"/>
 <path d="m 18,16 -7,6.4 0,3.2 7,6.4 0,-4.8 L 14.5,24.003125 18,20.8 Z m 0,0" style="fill:#f9f9f9;fill-opacity:1;stroke:none;fill-rule:nonzero"/>
 <path d="m 30,16 7,6.4 0,3.2 -7,6.4 0,-4.8 3.5,-3.196875 L 30,20.8 Z m 0,0" style="fill:#f9f9f9;fill-opacity:1;stroke:none;fill-rule:nonzero"/>
 <path d="M 25.666666,16 29,16 22.333334,32 19,32 Z m 0,0" style="fill:#f9f9f9;fill-opacity:1;stroke:none;fill-rule:nonzero"/>
</svg>
