<svg viewBox="0 0 48 48" xmlns="http://www.w3.org/2000/svg" xmlns:xlink="http://www.w3.org/1999/xlink">
  <linearGradient id="a" gradientTransform="matrix(0 -1 1 0 -.0000015 47.799998)" gradientUnits="userSpaceOnUse" x1="1" x2="47">
    <stop offset="0" stop-color="#c8dae4"/>
    <stop offset="1" stop-color="#d6e4eb"/>
  </linearGradient>
  <path d="m24 .8c22.703 0 23 .297 23 23 0 22.703-.297 23-23 23-22.703 0-23-10.297-23-23 0-12.703.297-23 23-23z" fill="url(#a)"/>
  <g transform="translate(11 -26)">
    <path d="m2.332 40.38c-.885 1.024.213 6.589 1.653 8.675-.498 1.181-.372 3.677-.108 4.178-.704.284-1.531.437-1.831.966-.835 1.866 9.73 9.31 11.924 9.804 1.86-.221 12.76-7.859 11.825-9.804-.301-.626-.963-.784-1.863-.966.18-.655.59-2.957-.093-4.178 1.201-1.845 2.964-7.392 1.752-8.674-1.212-1.282-6.789 1.039-9.198 1.983-2.063-.521-4.062-.46-5.956.137-2.482-1.419-7.221-3.145-8.106-2.121z" opacity=".1"/>
    <path d="m1.332 39.38c-.885 1.024.213 6.589 1.653 8.675-.498 1.181-.372 3.677-.108 4.178-.704.284-1.531.437-1.831.966-.835 1.866 9.73 9.31 11.924 9.804 1.86-.221 12.76-7.859 11.825-9.804-.301-.626-.963-.784-1.863-.966.18-.655.59-2.957-.093-4.178 1.201-1.845 2.964-7.392 1.752-8.674-1.212-1.282-6.789 1.039-9.198 1.983-2.063-.521-4.062-.46-5.956.137-2.482-1.419-7.221-3.145-8.106-2.121z" fill="#828282"/>
    <path d="m7.383 41.467c.058.354-1.299 1.569-1.576 1.797-.277.227-1.736 1.318-2.072 1.191-.335-.127-.71-1.909-.768-2.263-.058-.354-.273-2.163.004-2.39.277-.227 2.01.34 2.344.467.335.127 2.01.845 2.068 1.199z" fill="#b5adb4" transform="matrix(.99369147 0 0 .95562664 -.01529679 2.7955218)"/>
    <path d="m9.267 45.723c-2.769 0-5.02 2.026-5.02 4.516 0 2.49 2.248 4.499 5.02 4.499h7.467c2.769 0 5.02-2.01 5.02-4.499 0-2.49-2.248-4.516-5.02-4.516-1.484 0-2.815.656-3.733 1.577-.918-.924-2.247-1.577-3.733-1.577z" fill="#43494d"/>
    <path d="m23.5 53.607c-.249 1.434-9.685 7.774-10.497 7.893-1.464-.484-10.971-7.132-10.497-7.893.402-.671 9.692-.605 10.497-.605.805 0 10.09-.066 10.497.605z" fill="#bebebe"/>
    <path d="m-11.427 21.753c.362.628-1.547 3.81-1.909 4.438-.362.628-2.164 3.872-2.889 3.872-.725 0-2.526-3.245-2.889-3.872-.362-.628-2.271-3.81-1.909-4.438.362-.628 4.073-.566 4.798-.566.725 0 4.435-.062 4.798.566z" fill="#333" transform="matrix(.43360681 0 0 .39428104 20.034966 44.146673)"/>
    <path d="m-23.05 35.627c3.92-1.854 7.404 2.632 7.881 6.05" fill="none" stroke="#333" stroke-linecap="round" stroke-width="1.966" transform="matrix(-.24465112 .44240329 -.49864945 -.2170552 28.322348 73.882937)"/>
    <g transform="matrix(.51859788 0 0 .49873222 6.2630906 25.840335)">
      <path d="m4.892 43.03c-2.658 0-4.821 2.772-4.821 6.174 0 1.466.429 2.593 1.097 3.651 2.641-.869 4.73-.815 7.255 0 .668-1.058 1.289-2.184 1.289-3.651 0-3.402-2.163-6.174-4.821-6.174z" fill="#f9f9f9"/>
      <ellipse cx="4.858" cy="47.64" fill="#3a9cbd" rx="3.085" ry="3.208"/>
      <ellipse cx="4.858" cy="47.64" fill="#333" rx="1.35" ry="1.404"/>
      <path d="m21.09 43.03c-2.658 0-4.821 2.772-4.821 6.174 0 1.466.429 2.593 1.097 3.651 2.494-.971 4.922-.815 7.447 0 .668-1.058 1.097-2.184 1.097-3.651 0-3.402-2.163-6.174-4.821-6.174z" fill="#f9f9f9"/>
      <ellipse cx="21.06" cy="47.64" fill="#3a9cbd" rx="3.085" ry="3.208"/>
      <ellipse cx="21.06" cy="47.64" fill="#333" rx="1.35" ry="1.404"/>
    </g>
    <path d="m7.383 41.467c.058.354-1.299 1.569-1.576 1.797-.277.227-1.736 1.318-2.072 1.191-.335-.127-.71-1.909-.768-2.263-.058-.354-.273-2.163.004-2.39.277-.227 2.01.34 2.344.467.335.127 2.01.845 2.068 1.199z" fill="#b5adb4" transform="matrix(-.99369147 0 0 .95562664 26.038325 2.7955218)"/>
  </g>
</svg>
