<svg viewBox="0 0 48 48" xmlns="http://www.w3.org/2000/svg" xmlns:xlink="http://www.w3.org/1999/xlink">
  <linearGradient id="a" gradientUnits="userSpaceOnUse" x2="0" y1="47" y2="1">
    <stop offset="0" stop-color="#2db3e5"/>
    <stop offset="1" stop-color="#40bae7"/>
  </linearGradient>
  <path d="m47 24c0 22.703-.297 23-23 23-22.703 0-23-.297-23-23 0-22.703.297-23 23-23 22.703 0 23 .297 23 23z" fill="url(#a)"/>
  <path d="m24 12c-.672 0-1.594.664-1.594.688l-1.406 2.313-7.75.938-2.781 2.656-1.469 13.06 4-8.656h7l3.219 6.125-4.219 6.875h2.781l1.438-3.344.563-1.281.219-.375.219.375.563 1.281 1.438 3.344h2.781l-4.219-6.875 3.219-6.125h7l4 8.656-1.469-13.06-2.781-2.656-7.75-.938-1.406-2.313c0-.012-.922-.688-1.594-.688m0 0" opacity=".1" transform="translate(1 1)"/>
  <path d="m24 12c-.672 0-1.594.664-1.594.688l-1.406 2.313-7.75.938-2.781 2.656-1.469 13.06 4-8.656h7l3.219 6.125-4.219 6.875h2.781l1.438-3.344.563-1.281.219-.375.219.375.563 1.281 1.438 3.344h2.781l-4.219-6.875 3.219-6.125h7l4 8.656-1.469-13.06-2.781-2.656-7.75-.938-1.406-2.313c0-.012-.922-.688-1.594-.688m0 0" fill="#e5efe7"/>
</svg>
