<svg xmlns="http://www.w3.org/2000/svg" viewBox="0 0 48 48">
 <defs>
  <linearGradient id="linearGradient3764" y1="47" x2="0" y2="1" gradientUnits="userSpaceOnUse">
   <stop style="stop-color:#2db3e5;stop-opacity:1"/>
   <stop offset="1" style="stop-color:#40bae7;stop-opacity:1"/>
  </linearGradient>
 </defs>
 <g>
  
  
  
 </g>
 <g>
  <path d="m 47,24 C 47,46.703 46.703,47 24,47 1.297,47 1,46.703 1,24 1,1.297 1.297,1 24,1 46.703,1 47,1.297 47,24 z" style="fill:url(#linearGradient3764);fill-opacity:1"/>
 </g>
 <g>
  <g>
   <g transform="translate(1,1)">
    <g style="opacity:0.1">
     <!-- color: #40bae7 -->
     <g>
      <path d="m 24 12 c -0.672 0 -1.594 0.664 -1.594 0.688 l -1.406 2.313 l -7.75 0.938 l -2.781 2.656 l -1.469 13.06 l 4 -8.656 l 7 0 l 3.219 6.125 l -4.219 6.875 l 2.781 0 l 1.438 -3.344 l 0.563 -1.281 l 0.219 -0.375 l 0.219 0.375 l 0.563 1.281 l 1.438 3.344 l 2.781 0 l -4.219 -6.875 l 3.219 -6.125 l 7 0 l 4 8.656 l -1.469 -13.06 l -2.781 -2.656 l -7.75 -0.938 l -1.406 -2.313 c 0 -0.012 -0.922 -0.688 -1.594 -0.688 m 0 0" style="fill:#000;fill-opacity:1;stroke:none;fill-rule:nonzero"/>
     </g>
    </g>
   </g>
  </g>
 </g>
 <g>
  <g>
   <!-- color: #40bae7 -->
   <g>
    <path d="m 24 12 c -0.672 0 -1.594 0.664 -1.594 0.688 l -1.406 2.313 l -7.75 0.938 l -2.781 2.656 l -1.469 13.06 l 4 -8.656 l 7 0 l 3.219 6.125 l -4.219 6.875 l 2.781 0 l 1.438 -3.344 l 0.563 -1.281 l 0.219 -0.375 l 0.219 0.375 l 0.563 1.281 l 1.438 3.344 l 2.781 0 l -4.219 -6.875 l 3.219 -6.125 l 7 0 l 4 8.656 l -1.469 -13.06 l -2.781 -2.656 l -7.75 -0.938 l -1.406 -2.313 c 0 -0.012 -0.922 -0.688 -1.594 -0.688 m 0 0" style="fill:#e5efe7;fill-opacity:1;stroke:none;fill-rule:nonzero"/>
   </g>
  </g>
 </g>
 <g>
  
 </g>
</svg>
