<svg xmlns="http://www.w3.org/2000/svg" viewBox="0 0 48 48">
 <defs>
  <linearGradient id="linearGradient3764" x1="1" x2="47" gradientUnits="userSpaceOnUse" gradientTransform="matrix(0,-1,1,0,-1.5e-6,47.999998)">
   <stop style="stop-color:#2c313c;stop-opacity:1"/>
   <stop offset="1" style="stop-color:#353b47;stop-opacity:1"/>
  </linearGradient>
 </defs>
 <g>
  
  
  
 </g>
 <g>
  <path d="m 47,24 C 47,46.703 46.703,47 24,47 1.297,47 1,46.703 1,24 1,1.297 1.297,1 24,1 46.703,1 47,1.297 47,24 z" style="fill:url(#linearGradient3764);fill-opacity:1"/>
 </g>
 <g>
  <g>
   <g transform="translate(1,1)">
    <g style="opacity:0.1">
     <!-- color: #353b47 -->
     <g>
      <path d="m 18.961 15.1 c -2.777 2.727 -2.789 7.18 -0.012 9.906 l 1.32 -1.309 c -2.059 -2.02 -2.051 -5.27 0.012 -7.305 m 7.434 -0.016 c 2.063 2.027 2.078 5.301 0.012 7.332 l 1.32 1.301 c 2.777 -2.73 2.766 -7.199 -0.008 -9.934 m -1.324 1.301" style="fill:#000;fill-opacity:1;stroke:none;fill-rule:nonzero"/>
      <path d="m 14.813 11.02 c -5.07 4.953 -5.086 13.01 -0.023 17.957 l 2.41 -2.355 c -3.758 -3.676 -3.742 -9.566 0.02 -13.246 m 13.559 -0.02 c 3.758 3.672 3.789 9.609 0.023 13.289 l 2.41 2.355 c 5.066 -4.953 5.04 -13.05 -0.023 -18 l -2.41 2.359 m 0 -0.004" style="fill:#000;fill-opacity:1;stroke:none;fill-rule:nonzero"/>
      <path d="m 23.969 20 c -0.547 0.008 -0.98 0.445 -0.969 0.977 l 0.016 16.01 c 0 0.531 0.441 0.961 0.992 0.961 c 0.547 0 0.988 -0.43 0.988 -0.961 l -0.016 -16.01 c 0.004 -0.262 -0.102 -0.512 -0.289 -0.695 c -0.191 -0.188 -0.453 -0.289 -0.723 -0.281 m 0 0" style="fill:#000;fill-opacity:1;stroke:none;fill-rule:nonzero"/>
     </g>
    </g>
   </g>
  </g>
 </g>
 <g>
  <g>
   <!-- color: #353b47 -->
   <g>
    <path d="m 18.961 15.1 c -2.777 2.727 -2.789 7.18 -0.012 9.906 l 1.32 -1.309 c -2.059 -2.02 -2.051 -5.27 0.012 -7.305 m 7.434 -0.016 c 2.063 2.027 2.078 5.301 0.012 7.332 l 1.32 1.301 c 2.777 -2.73 2.766 -7.199 -0.008 -9.934 m -1.324 1.301" style="fill:#7695d6;fill-opacity:1;stroke:none;fill-rule:nonzero"/>
    <path d="m 14.813 11.02 c -5.07 4.953 -5.086 13.01 -0.023 17.957 l 2.41 -2.355 c -3.758 -3.676 -3.742 -9.566 0.02 -13.246 m 13.559 -0.02 c 3.758 3.672 3.789 9.609 0.023 13.289 l 2.41 2.355 c 5.066 -4.953 5.04 -13.05 -0.023 -18 l -2.41 2.359 m 0 -0.004" style="fill:#7695d6;fill-opacity:1;stroke:none;fill-rule:nonzero"/>
    <path d="m 23.969 20 c -0.547 0.008 -0.98 0.445 -0.969 0.977 l 0.016 16.01 c 0 0.531 0.441 0.961 0.992 0.961 c 0.547 0 0.988 -0.43 0.988 -0.961 l -0.016 -16.01 c 0.004 -0.262 -0.102 -0.512 -0.289 -0.695 c -0.191 -0.188 -0.453 -0.289 -0.723 -0.281 m 0 0" style="fill:#eaeaea;fill-opacity:1;stroke:none;fill-rule:nonzero"/>
   </g>
  </g>
 </g>
 <g>
  
 </g>
</svg>
