<svg viewBox="0 0 48 48" xmlns="http://www.w3.org/2000/svg" xmlns:xlink="http://www.w3.org/1999/xlink">
  <linearGradient id="a" gradientTransform="matrix(0 -1 1 0 -.0000015 47.999998)" gradientUnits="userSpaceOnUse" x1="1" x2="47">
    <stop offset="0" stop-color="#2c313c"/>
    <stop offset="1" stop-color="#353b47"/>
  </linearGradient>
  <path d="m47 24c0 22.703-.297 23-23 23-22.703 0-23-.297-23-23 0-22.703.297-23 23-23 22.703 0 23 .297 23 23z" fill="url(#a)"/>
  <g opacity=".1" transform="translate(1 1)">
    <path d="m18.961 15.1c-2.777 2.727-2.789 7.18-.012 9.906l1.32-1.309c-2.059-2.02-2.051-5.27.012-7.305m7.434-.016c2.063 2.027 2.078 5.301.012 7.332l1.32 1.301c2.777-2.73 2.766-7.199-.008-9.934m-1.324 1.301"/>
    <path d="m14.813 11.02c-5.07 4.953-5.086 13.01-.023 17.957l2.41-2.355c-3.758-3.676-3.742-9.566.02-13.246m13.559-.02c3.758 3.672 3.789 9.609.023 13.289l2.41 2.355c5.066-4.953 5.04-13.05-.023-18l-2.41 2.359m0-.004"/>
    <path d="m23.969 20c-.547.008-.98.445-.969.977l.016 16.01c0 .531.441.961.992.961.547 0 .988-.43.988-.961l-.016-16.01c.004-.262-.102-.512-.289-.695-.191-.188-.453-.289-.723-.281m0 0"/>
  </g>
  <path d="m18.961 15.1c-2.777 2.727-2.789 7.18-.012 9.906l1.32-1.309c-2.059-2.02-2.051-5.27.012-7.305m7.434-.016c2.063 2.027 2.078 5.301.012 7.332l1.32 1.301c2.777-2.73 2.766-7.199-.008-9.934m-1.324 1.301" fill="#7695d6"/>
  <path d="m14.813 11.02c-5.07 4.953-5.086 13.01-.023 17.957l2.41-2.355c-3.758-3.676-3.742-9.566.02-13.246m13.559-.02c3.758 3.672 3.789 9.609.023 13.289l2.41 2.355c5.066-4.953 5.04-13.05-.023-18l-2.41 2.359m0-.004" fill="#7695d6"/>
  <path d="m23.969 20c-.547.008-.98.445-.969.977l.016 16.01c0 .531.441.961.992.961.547 0 .988-.43.988-.961l-.016-16.01c.004-.262-.102-.512-.289-.695-.191-.188-.453-.289-.723-.281m0 0" fill="#eaeaea"/>
</svg>
