<svg xmlns="http://www.w3.org/2000/svg" viewBox="0 0 48 48">
 <defs>
  <linearGradient id="linearGradient3764" y1="47" x2="0" y2="1" gradientUnits="userSpaceOnUse">
   <stop style="stop-color:#575757;stop-opacity:1"/>
   <stop offset="1" style="stop-color:#616161;stop-opacity:1"/>
  </linearGradient>
 </defs>
 <g style="fill:#e6e6e6">
  
  
  
 </g>
 <g>
  <path d="m 47,24 C 47,46.703 46.703,47 24,47 1.297,47 1,46.703 1,24 1,1.297 1.297,1 24,1 46.703,1 47,1.297 47,24 z" style="fill:url(#linearGradient3764);fill-opacity:1"/>
 </g>
 <path d="m 25 12 c -1.713 -0.017 -3.32 2.565 -4.23 4.348 -3.03 0.728 -4.77 2.61 -4.77 5.652 c -1.532 0.843 -2 2 -2 3 0.192 2.086 0.988 2.79 2 3 l 2.666 0 -0.666 2 -1.393 0 c -0.283 -0.242 -0.642 -0.375 -1.014 -0.375 -0.863 0 -1.563 0.7 -1.563 1.563 0 0.044 0.002 0.087 0.006 0.131 l -0.1 -0.066 c -0.242 0.366 -0.27 0.834 -0.074 1.227 0.196 0.393 0.587 0.651 1.025 0.678 0.336 0.019 0.665 -0.1 0.91 -0.33 0.09 0.471 0.215 0.918 0.248 1.68 c -1.344 0.231 -2.743 1.475 -3.234 3.494 l 6.187 0 c 0 -0.223 -0.022 -0.42 -0.041 -0.621 0.486 0.085 0.971 0.112 1.457 0.096 -0.047 0.171 -0.072 0.348 -0.072 0.525 5.885 0 11.771 0 17.656 0 l 1 -1 c -0.061 -0.044 -0.121 -0.078 -0.182 -0.117 0.088 -0.256 0.218 -0.7 -0.008 -0.852 -0.206 -0.138 -0.516 0.08 -0.748 0.271 0.067 -0.485 0.096 -1.136 -0.25 -1.301 -0.343 -0.163 -0.819 0.238 -1.166 0.6 0.247 -0.599 0.557 -1.55 0.129 -1.893 -0.245 -0.196 -0.634 -0.121 -1.027 0.051 0.538 -0.711 1.01 -1.566 0.707 -2.137 -0.225 -0.429 -0.822 -0.591 -1.479 -0.629 0.275 -0.642 0.348 -1.403 -0.123 -2.213 c -0.302 -0.52 -0.739 -0.763 -1.203 -0.869 0.98 -0.871 1.939 -1.996 1.645 -2.91 -0.253 -0.787 -1.416 -1.127 -2.551 -1.275 0.901 -0.862 1.693 -1.903 1.412 -2.758 -0.287 -0.873 -1.435 -1.312 -2.684 -1.541 0.996 -1.08 1.82 -2.496 1.127 -3.709 -0.788 -1.379 -3.125 -1.614 -5.252 -1.508 -0.62 -1.163 -1.419 -2.202 -2.348 -2.211 m 2 17.432 c -0.02 0.019 -0.038 0.04 -0.059 0.059 z" style="fill:#000;opacity:0.1;fill-opacity:1;stroke:none;fill-rule:evenodd"/>
 <path d="m 18 26 -1 3 8.438 0 2.969 -3 l -2.406 -1.438 -4 1.438 -4 0" style="fill:#f07778;opacity:1;fill-opacity:1;stroke:none;fill-rule:evenodd"/>
 <g>
  
 </g>
 <path d="m 31.599 14.719 c -1.563 -2.736 -9.234 -0.971 -9.237 -0.969 l 5.966 6.364 c 0.32 0.061 4.606 -3.058 3.271 -5.395 z" style="fill:#d88c00;opacity:1;fill-opacity:1;stroke:none;fill-rule:evenodd"/>
 <path d="m 24 11 c -2.603 -0.026 -5 6 -5 6 l 8.646 -0.558 c 0 0 -1.512 -5.421 -3.646 -5.442 z" style="fill:#efb70c;opacity:1;fill-opacity:1;stroke:none;fill-rule:evenodd"/>
 <path d="m 33.16 19.969 c 0.591 1.796 -3.531 4.438 -3.531 4.438 l -2.969 -6.188 c 0 0 5.799 -0.381 6.5 1.75 z" style="fill:#efb70c;opacity:1;fill-opacity:1;stroke:none;fill-rule:evenodd"/>
 <path d="m 29.345 22.633 1.503 5.657 c 0 0 4.01 -2.542 3.447 -4.287 -0.525 -1.629 -4.95 -1.37 -4.95 -1.37 z" style="fill:#d88c00;opacity:1;fill-opacity:1;stroke:none;fill-rule:evenodd"/>
 <path d="m 30.12 27.339 2.298 4.508 c 0 0 2.719 -1.859 1.436 -4.066 -1.063 -1.829 -3.734 -0.442 -3.734 -0.442 z" style="fill:#efb70c;opacity:1;fill-opacity:1;stroke:none;fill-rule:evenodd"/>
 <path d="m 31.676 30.21 1.947 3.811 c 0 0 2.427 -2.265 1.833 -3.396 -0.593 -1.131 -3.78 -0.416 -3.78 -0.416 z" style="fill:#d88c00;opacity:1;fill-opacity:1;stroke:none;fill-rule:evenodd"/>
 <path d="m 33.411 33.615 2.01 1.503 c 0 0 0.987 -1.901 0.354 -2.409 -0.659 -0.528 -2.364 0.906 -2.364 0.906 z" style="fill:#efb70c;opacity:1;fill-opacity:1;stroke:none;fill-rule:evenodd"/>
 <path d="m 35.22 35.08 1.748 0.761 c 0 0 0.399 -1.578 -0.157 -1.843 -0.579 -0.276 -1.591 1.081 -1.591 1.081 z" style="fill:#d88c00;opacity:1;fill-opacity:1;stroke:none;fill-rule:evenodd"/>
 <path d="m 36.797 35.524 0.949 0.589 c 0 0 0.365 -0.881 0.064 -1.082 -0.312 -0.209 -1.014 0.493 -1.014 0.493 z" style="fill:#efb70c;opacity:1;fill-opacity:1;stroke:none;fill-rule:evenodd"/>
 <rect width="2" height="2" x="19" y="26" style="fill:#f9f9f9;opacity:1;fill-opacity:1;stroke:none;fill-rule:nonzero"/>
 <path d="m 37 37 1 -1 c -2.289 -1.655 -4.492 -0.03 -7 -10 0 -5 -1 -11 -8 -11 -5 0 -8 2 -8 6 -1.532 0.843 -2 2 -2 3 0.192 2.086 0.988 2.79 2 3 l 10 0 c 0.986 -0.174 1.469 -0.599 2 -1 0.015 0.876 -0.486 2.594 -2 3 l -10 0 c -0.777 3.483 0.334 2.584 0 6 4 3.214 8 0.233 12 0 l 0 2 z" style="fill:#7972f1;opacity:1;fill-opacity:1;stroke:none;fill-rule:evenodd"/>
 <rect width="4.864" height="7.875" x="20.1" y="17.656" rx="2.344" style="fill:#f7f7f7;opacity:1;fill-opacity:1;stroke:none;fill-rule:nonzero"/>
 <rect width="3.295" height="7.809" x="16.35" y="17.612" ry="2.324" rx="1.647" style="fill:#f7f7f7;opacity:1;fill-opacity:1;stroke:none;fill-rule:nonzero"/>
 <circle cx="27.2" cy="23.627" r="1.967" style="fill:#ef9a00;opacity:1;fill-opacity:1;stroke:none;fill-rule:nonzero"/>
 <circle cx="26.627" cy="23.273" r="0.729" style="fill:#faf1ae;opacity:1;fill-opacity:1;stroke:none;fill-rule:nonzero"/>
 <circle cx="14.805" cy="24.07" r="1.282" style="fill:#ef9a00;opacity:1;fill-opacity:1;stroke:none;fill-rule:nonzero"/>
 <circle cx="14.429" cy="23.958" r="0.552" style="fill:#faf1ae;opacity:1;fill-opacity:1;stroke:none;fill-rule:nonzero"/>
 <path d="m 18.5 19 c -0.277 0 -0.5 0.223 -0.5 0.5 l 0 0.5 l 1 0 l 0 -0.5 c 0 -0.277 -0.223 -0.5 -0.5 -0.5 z m -0.5 2 l 0 2.5 c 0 0.277 0.223 0.5 0.5 0.5 c 0.277 0 0.5 -0.223 0.5 -0.5 l 0 -2.5 l -1 0 z" style="fill:#6b4100;opacity:1;fill-opacity:1;stroke:none;fill-rule:nonzero"/>
 <path d="m 22.5 19 c -0.277 0 -0.5 0.223 -0.5 0.5 l 0 0.5 l 1 0 l 0 1 l -1 0 l 0 2.5 c 0 0.277 0.223 0.5 0.5 0.5 l 1 0 c 0.277 0 0.5 -0.223 0.5 -0.5 l 0 -4 c 0 -0.277 -0.223 -0.5 -0.5 -0.5 l -1 0 z" style="fill:#6b4100;opacity:1;fill-opacity:1;stroke:none;fill-rule:nonzero"/>
 <circle cx="28.779" cy="29.902" r="2.748" style="fill:#f07778;opacity:1;fill-opacity:1;stroke:none;fill-rule:nonzero"/>
 <path d="m 18 30 4 0 c 5.893 0.938 -2.134 6.757 -4 5.604 c -2.946 -1.161 -3.073 -5.239 0 -5.604" style="fill:#f7f7f7;opacity:1;fill-opacity:1;stroke:none;fill-rule:evenodd"/>
 <circle cx="14.594" cy="30.19" r="1.563" style="fill:#f07778;opacity:1;fill-opacity:1;stroke:none;fill-rule:nonzero"/>
 <path d="m 29.928 18.11 a 1.229 1.229 0 0 1 -0.615 1.064 1.229 1.229 0 0 1 -1.229 0 1.229 1.229 0 0 1 -0.615 -1.064 l 1.229 0 z" transform="matrix(0.83432648,0.55127064,-0.55127064,0.83432648,0,0)" style="fill:#e4e2e4;opacity:1;fill-opacity:1;stroke:none;fill-rule:nonzero"/>
 <path d="m 29 37 c 0 -6 -8 -5 -9.625 0 z" style="fill:#f07778;opacity:1;fill-opacity:1;stroke:none;fill-rule:evenodd"/>
 <path d="m -22.531 -37 a 2 2 0 0 1 -1 1.732 2 2 0 0 1 -2 0 2 2 0 0 1 -1 -1.732 l 2 0 z" transform="scale(-1,-1)" style="fill:#d8d5d8;opacity:1;fill-opacity:1;stroke:none;fill-rule:nonzero"/>
 <path d="m -19.344 -37 a 2 2 0 0 1 -1 1.732 2 2 0 0 1 -2 0 2 2 0 0 1 -1 -1.732 l 2 0 z" transform="scale(-1,-1)" style="fill:#d8d5d8;opacity:1;fill-opacity:1;stroke:none;fill-rule:nonzero"/>
 <path d="m 18 37 c 0 -5.148 -5.143 -4.29 -6.188 0 z" style="fill:#f07778;opacity:1;fill-opacity:1;stroke:none;fill-rule:evenodd"/>
 <path d="m -12.02 -37 a 2 2 0 0 1 -1 1.732 2 2 0 0 1 -2 0 2 2 0 0 1 -1 -1.732 l 2 0 z" transform="scale(-1,-1)" style="fill:#d8d5d8;opacity:1;fill-opacity:1;stroke:none;fill-rule:nonzero"/>
 <path d="m 12.318 41.997 a 2 2 0 0 1 -1 1.732 2 2 0 0 1 -2 0 2 2 0 0 1 -1 -1.732 l 2 0 z" transform="matrix(0.87049112,-0.49218412,0.49218412,0.87049112,0,0)" style="fill:#d8d5d8;opacity:1;fill-opacity:1;stroke:none;fill-rule:nonzero"/>
</svg>
