<svg xmlns="http://www.w3.org/2000/svg" viewBox="0 0 48 48">
 <defs>
  <linearGradient gradientTransform="matrix(0,-1,1,0,-1.5e-6,47.999998)" gradientUnits="userSpaceOnUse" x2="47" x1="1" id="linearGradient3764">
   <stop style="stop-color:#31376f;stop-opacity:1"/>
   <stop offset="1" style="stop-color:#373e7d;stop-opacity:1"/>
  </linearGradient>
 </defs>
 <g>
  
  
  
 </g>
 <g>
  <path d="m 47,24 C 47,46.703 46.703,47 24,47 1.297,47 1,46.703 1,24 1,1.297 1.297,1 24,1 46.703,1 47,1.297 47,24 z" style="fill:url(#linearGradient3764);fill-opacity:1"/>
 </g>
 <g>
  
 </g>
 <circle r="15" cy="25" cx="25" style="fill:#000;opacity:0.1;fill-opacity:1;stroke:none"/>
 <circle cx="24" cy="24" r="15" style="fill:#2badc5;opacity:1;fill-opacity:1;stroke:none"/>
 <path d="m 26 15 c -1 0 -3 0.769 -3 4 -1 -0.505 -1 -1.366 -1 -3 -1.98 2.773 -2.509 7.225 -4.316 10.215 -1.644 2.72 -3.599 2.918 -7.436 3.732 a 15 15 0 0 0 13.752 9.05 15 15 0 0 0 3.08 -0.338 c 0.379 -1.842 -0.162 -4.02 -0.48 -5.412 c 0.91 0.299 3.095 0.355 3.4 -0.25 2 0 3.02 0 3.6 -2 0.788 0 0.9 -0.722 0.9 -1 0 -1 -1.789 -2.382 -2.5 -3 0 -1 0 -1.319 -0.25 -1.5 -0.557 -0.402 -1.25 0.25 -1.25 0.25 -0.5 -0.75 -0.301 -1.25 -0.301 -1.25 0 0 1.051 -0.159 1.051 -1.25 0 -0.854 -0.866 -1.25 -1.25 -1.25 -1 -1.518 -2 -1.5 -3 -1.5 -0.798 -2.269 1.013 -3.739 4.25 -4.25 -1.25 -0.881 -5.25 -0.942 -6.25 1.75 0 -1.364 0.505 -2.472 1 -3 z" style="fill:#000;opacity:0.1;fill-opacity:1;stroke:none"/>
 <path d="m 25 14 c -1 0 -3 0.769 -3 4 -1 -0.505 -1 -1.366 -1 -3 -1.98 2.773 -2.509 7.225 -4.316 10.215 -1.554 2.571 -3.434 2.897 -6.867 3.611 a 15 15 0 0 0 14.184 10.174 15 15 0 0 0 1.648 -0.109 c 1.091 -1.999 0.344 -4.921 -0.049 -6.641 0.91 0.299 3.095 0.355 3.4 -0.25 2 0 3.02 0 3.6 -2 0.788 0 0.9 -0.722 0.9 -1 0 -1 -1.789 -2.382 -2.5 -3 0 -1 0 -1.319 -0.25 -1.5 -0.557 -0.402 -1.25 0.25 -1.25 0.25 -0.5 -0.75 -0.301 -1.25 -0.301 -1.25 0 0 1.051 -0.159 1.051 -1.25 0 -0.854 -0.866 -1.25 -1.25 -1.25 -1 -1.518 -2 -1.5 -3 -1.5 -0.798 -2.269 1.013 -3.739 4.25 -4.25 -1.25 -0.881 -5.25 -0.942 -6.25 1.75 0 -1.364 0.505 -2.472 1 -3 z" style="fill:#e7eff9;opacity:1;fill-opacity:1;stroke:none"/>
</svg>
