<svg viewBox="0 0 48 48" xmlns="http://www.w3.org/2000/svg" xmlns:xlink="http://www.w3.org/1999/xlink">
  <linearGradient id="a" gradientTransform="matrix(0 -1 1 0 -.0000015 47.999998)" gradientUnits="userSpaceOnUse" x1="1" x2="47">
    <stop offset="0" stop-color="#31376f"/>
    <stop offset="1" stop-color="#373e7d"/>
  </linearGradient>
  <path d="m47 24c0 22.703-.297 23-23 23-22.703 0-23-.297-23-23 0-22.703.297-23 23-23 22.703 0 23 .297 23 23z" fill="url(#a)"/>
  <circle cx="25" cy="25" opacity=".1" r="15"/>
  <circle cx="24" cy="24" fill="#2badc5" r="15"/>
  <path d="m26 15c-1 0-3 .769-3 4-1-.505-1-1.366-1-3-1.98 2.773-2.509 7.225-4.316 10.215-1.644 2.72-3.599 2.918-7.436 3.732a15 15 0 0 0 13.752 9.05 15 15 0 0 0  3.08-.338c.379-1.842-.162-4.02-.48-5.412.91.299 3.095.355 3.4-.25 2 0 3.02 0 3.6-2 .788 0 .9-.722.9-1 0-1-1.789-2.382-2.5-3 0-1 0-1.319-.25-1.5-.557-.402-1.25.25-1.25.25-.5-.75-.301-1.25-.301-1.25 0 0 1.051-.159 1.051-1.25 0-.854-.866-1.25-1.25-1.25-1-1.518-2-1.5-3-1.5-.798-2.269 1.013-3.739 4.25-4.25-1.25-.881-5.25-.942-6.25 1.75 0-1.364.505-2.472 1-3z" opacity=".1"/>
  <path d="m25 14c-1 0-3 .769-3 4-1-.505-1-1.366-1-3-1.98 2.773-2.509 7.225-4.316 10.215-1.554 2.571-3.434 2.897-6.867 3.611a15 15 0 0 0 14.184 10.174 15 15 0 0 0  1.648-.109c1.091-1.999.344-4.921-.049-6.641.91.299 3.095.355 3.4-.25 2 0 3.02 0 3.6-2 .788 0 .9-.722.9-1 0-1-1.789-2.382-2.5-3 0-1 0-1.319-.25-1.5-.557-.402-1.25.25-1.25.25-.5-.75-.301-1.25-.301-1.25 0 0 1.051-.159 1.051-1.25 0-.854-.866-1.25-1.25-1.25-1-1.518-2-1.5-3-1.5-.798-2.269 1.013-3.739 4.25-4.25-1.25-.881-5.25-.942-6.25 1.75 0-1.364.505-2.472 1-3z" fill="#e7eff9"/>
</svg>
