<svg viewBox="0 0 48 48" xmlns="http://www.w3.org/2000/svg" xmlns:xlink="http://www.w3.org/1999/xlink">
  <linearGradient id="a" gradientTransform="matrix(0 -1 1 0 -.0000015 47.999998)" gradientUnits="userSpaceOnUse" x1="1" x2="47">
    <stop offset="0" stop-color="#46baa7"/>
    <stop offset="1" stop-color="#55bfae"/>
  </linearGradient>
  <path d="m47 24c0 22.703-.297 23-23 23-22.703 0-23-.297-23-23 0-22.703.297-23 23-23 22.703 0 23 .297 23 23z" fill="url(#a)"/>
  <g transform="matrix(3.543307 0 0 3.543307 -.00196934 .00157573)">
    <rect fill="#b3b3b3" height=".847" rx=".056" width=".282" x="9.313" y="5.08"/>
    <path d="m9.03 3.387l.847.847v1.693h-.169v.564h.169v3.951c0 .282-.282.282-.282.282h-5.08c0 0-.282 0-.282-.282v-3.104h.169v-1.129h-.113c-.031 0-.056-.025-.056-.056v-.734c0-.031.025-.056.056-.056h-.056v-1.693c0-.282.282-.282.282-.282h4.516z" fill-opacity=".098"/>
    <g transform="matrix(-1 0 0 1 13.546667 0)">
      <rect fill="#9e5452" height=".847" rx=".056" width=".282" x="9.313" y="5.08"/>
      <path d="m9.426 5.08h.169v-1.693c0-.282-.282-.282-.282-.282h-4.516l-.847.847v1.693h.169v.564h-.169v3.951c0 .282.282.282.282.282h5.08c0 0 .282 0 .282-.282v-3.104h-.169z" fill="#084150"/>
    </g>
    <rect fill="#9e5452" height="5.644" rx=".006" width="3.951" x="4.798" y="4.233"/>
    <path d="m7.338 8.184h-.564v.282h.282c0 0 .282 0 .282.282v.564c0 0 0 .282-.282.282h-.564v-.282h.564v-.564h-.282c0 0-.282 0-.282-.261v-.349c0-.236.282-.236.282-.236h.564z" fill="#ececec"/>
    <path d="m7.62 8.326h.282v.988h.282v-1.129h-.564v-.282h.564c.232 0 .282.145.282.282v1.129c0 .282-.282.282-.282.282h-.564z" fill="#ececec"/>
  </g>
</svg>
