<svg viewBox="0 0 48 48" xmlns="http://www.w3.org/2000/svg" xmlns:xlink="http://www.w3.org/1999/xlink">
  <linearGradient id="a" gradientUnits="userSpaceOnUse" x2="0" y1="46.996" y2=".998">
    <stop offset="0" stop-color="#5e9e35"/>
    <stop offset="1" stop-color="#68ae3a"/>
  </linearGradient>
  <path d="m24 1c22.703 0 23 .297 23 23 0 22.703-.297 23-23 23-22.703 0-23-.297-23-23 0-22.703.297-23 23-23z" fill="url(#a)"/>
  <g fill-rule="evenodd" opacity=".1" transform="matrix(.49932063 0 0 .48629585 78.065046 15.073424)">
    <path d="m-127.19 43.35c-3.302-6.73 20.434-9.388 26-2.244-4.477-.779-9-1.152-14.07.268-3.694 1.035-9.744 6.441-11.934 1.976z"/>
    <path d="m-102.5 6.02c-3.511-.16-29.431 12.13-25.375 21.301 2.789 6.307 14.625 5.244 22.361 4.589 5.591-.473 11-.065 17.264 4.954-2.53-4.481-5.393-10.229-11.459-10.662-12.607-.901-17.7-.502-17.1-4.175 1.155-7.12 8.343-11.304 14.313-16.01z"/>
    <path d="m-107.12 16.188c-2.124-3.807 3.65-5.286 5.375-2.625.755 1.165 3.133 1.754 3.438-.375.967-6.758 5.868-6.989 6.813-6.375-3.295 1.819-3.837 6.279-3.875 8-.132 6.06-9.423 5.544-11.75 1.375z"/>
    <path d="m-99.52 1.838c-3.199-5.639 4.662-11.224 8.374-6.202 3.712 5.02-5.175 11.84-8.374 6.202z"/>
  </g>
  <g fill="#f2f2f2" fill-rule="evenodd" transform="matrix(.49932063 0 0 .48629585 77.065046 14.073424)">
    <path d="m-127.19 43.35c-3.302-6.73 20.434-9.388 26-2.244-4.477-.779-9-1.152-14.07.268-3.694 1.035-9.744 6.441-11.934 1.976z"/>
    <path d="m-102.5 6.02c-3.511-.16-29.431 12.13-25.375 21.301 2.789 6.307 14.625 5.244 22.361 4.589 5.591-.473 11-.065 17.264 4.954-2.53-4.481-5.393-10.229-11.459-10.662-12.607-.901-17.7-.502-17.1-4.175 1.155-7.12 8.343-11.304 14.313-16.01z"/>
    <path d="m-107.12 16.188c-2.124-3.807 3.65-5.286 5.375-2.625.755 1.165 3.133 1.754 3.438-.375.967-6.758 5.868-6.989 6.813-6.375-3.295 1.819-3.837 6.279-3.875 8-.132 6.06-9.423 5.544-11.75 1.375z"/>
    <path d="m-99.52 1.838c-3.199-5.639 4.662-11.224 8.374-6.202 3.712 5.02-5.175 11.84-8.374 6.202z"/>
  </g>
</svg>
