<svg xmlns="http://www.w3.org/2000/svg" viewBox="0 0 48 48">
 <defs>
  <linearGradient id="linearGradient3009" gradientUnits="userSpaceOnUse" y1="46.996" x2="0" y2="0.998">
   <stop style="stop-color:#c9921e;stop-opacity:1"/>
   <stop offset="1" style="stop-color:#dba021;stop-opacity:1"/>
  </linearGradient>
 </defs>
 <g>
  
  
  
 </g>
 <path d="M 24,1 C 46.703,1 47,1.297 47,24 47,46.703 46.703,47 24,47 1.297,47 1,46.703 1,24 1,1.297 1.297,1 24,1 Z" style="fill:url(#linearGradient3009);fill-opacity:1;stroke:none"/>
 <g>
  
 </g>
 <g transform="matrix(0.49932063,0,0,0.48629585,78.065046,15.073424)" style="fill:#000;opacity:0.1;fill-opacity:1;stroke:none">
  <path d="m -127.19 43.35 c -3.302 -6.73 20.434 -9.388 26 -2.244 -4.477 -0.779 -9 -1.152 -14.07 0.268 -3.694 1.035 -9.744 6.441 -11.934 1.976 z" style="stroke-opacity:1;fill:#000;fill-rule:evenodd;stroke-linecap:butt;stroke-linejoin:miter;stroke-width:1"/>
  <path d="m -102.5 6.02 c -3.511 -0.16 -29.431 12.13 -25.375 21.301 2.789 6.307 14.625 5.244 22.361 4.589 5.591 -0.473 11 -0.065 17.264 4.954 -2.53 -4.481 -5.393 -10.229 -11.459 -10.662 -12.607 -0.901 -17.7 -0.502 -17.1 -4.175 1.155 -7.12 8.343 -11.304 14.313 -16.01 z" style="stroke-opacity:1;fill:#000;fill-rule:evenodd;stroke-linecap:butt;stroke-linejoin:miter;stroke-width:1"/>
  <path d="m -107.12 16.188 c -2.124 -3.807 3.65 -5.286 5.375 -2.625 0.755 1.165 3.133 1.754 3.438 -0.375 0.967 -6.758 5.868 -6.989 6.813 -6.375 -3.295 1.819 -3.837 6.279 -3.875 8 -0.132 6.06 -9.423 5.544 -11.75 1.375 z" style="stroke-opacity:1;fill:#000;fill-rule:evenodd;stroke-linecap:butt;stroke-linejoin:miter;stroke-width:1"/>
  <path d="m -99.52 1.838 c -3.199 -5.639 4.662 -11.224 8.374 -6.202 3.712 5.02 -5.175 11.84 -8.374 6.202 z" style="stroke-opacity:1;fill:#000;fill-rule:evenodd;stroke-linecap:butt;stroke-linejoin:miter;stroke-width:1"/>
 </g>
 <g transform="matrix(0.49932063,0,0,0.48629585,77.065046,14.073424)" style="fill:#f2f2f2;fill-opacity:1;stroke:none">
  <path d="m -127.19 43.35 c -3.302 -6.73 20.434 -9.388 26 -2.244 -4.477 -0.779 -9 -1.152 -14.07 0.268 -3.694 1.035 -9.744 6.441 -11.934 1.976 z" style="stroke-opacity:1;fill-rule:evenodd;stroke-linecap:butt;stroke-linejoin:miter;stroke-width:1"/>
  <path d="m -102.5 6.02 c -3.511 -0.16 -29.431 12.13 -25.375 21.301 2.789 6.307 14.625 5.244 22.361 4.589 5.591 -0.473 11 -0.065 17.264 4.954 -2.53 -4.481 -5.393 -10.229 -11.459 -10.662 -12.607 -0.901 -17.7 -0.502 -17.1 -4.175 1.155 -7.12 8.343 -11.304 14.313 -16.01 z" style="stroke-opacity:1;fill-rule:evenodd;stroke-linecap:butt;stroke-linejoin:miter;stroke-width:1"/>
  <path d="m -107.12 16.188 c -2.124 -3.807 3.65 -5.286 5.375 -2.625 0.755 1.165 3.133 1.754 3.438 -0.375 0.967 -6.758 5.868 -6.989 6.813 -6.375 -3.295 1.819 -3.837 6.279 -3.875 8 -0.132 6.06 -9.423 5.544 -11.75 1.375 z" style="stroke-opacity:1;fill-rule:evenodd;stroke-linecap:butt;stroke-linejoin:miter;stroke-width:1"/>
  <path d="m -99.52 1.838 c -3.199 -5.639 4.662 -11.224 8.374 -6.202 3.712 5.02 -5.175 11.84 -8.374 6.202 z" style="stroke-opacity:1;fill-rule:evenodd;stroke-linecap:butt;stroke-linejoin:miter;stroke-width:1"/>
 </g>
</svg>
