<svg viewBox="0 0 48 48" xmlns="http://www.w3.org/2000/svg" xmlns:xlink="http://www.w3.org/1999/xlink">
  <linearGradient id="a" gradientUnits="userSpaceOnUse" x1="1" x2="47">
    <stop offset="0" stop-color="#353535"/>
    <stop offset="1" stop-color="#3f3f3f"/>
  </linearGradient>
  <path d="m24 1c22.703 0 23 .297 23 23 0 22.703-.297 23-23 23-22.703 0-23-.297-23-23 0-22.703.297-23 23-23z" fill="url(#a)" transform="matrix(0 -1 1 0 0 48)"/>
  <path d="m25 13c-4 0-8 4-8 7 0 3.333 0 6.667 0 10 0 4 3 7 8 7 5 0 8-3 8-7 0-3.333 0-6.667 0-10 0-3-4-7-8-7z" opacity=".1" transform=""/>
  <path d="m24 12c-4 0-8 4-8 7v3 1 6c0 4 3 7 8 7 5 0 8-3 8-7v-6-1-3c0-3-4-7-8-7z" fill="#eaeced"/>
  <path d="m24 12v10h-8v-3c0-3 4-7 8-7" fill="#81c78b"/>
  <path d="m16 22h16v1h-16m0-1" fill="#b3ffbc"/>
  <path d="m24 12v10h8v-3c0-3-4-7-8-7m0 0" fill="#65bb72"/>
  <path d="m24 19c .551 0 1 .672 1 1.5v4c0 .828-.449 1.5-1 1.5-.551 0-1-.672-1-1.5v-4c0-.828.449-1.5 1-1.5m0 0" fill="#3a8245"/>
</svg>
