<svg viewBox="0 0 48 48" xmlns="http://www.w3.org/2000/svg" xmlns:xlink="http://www.w3.org/1999/xlink">
  <linearGradient id="a" gradientUnits="userSpaceOnUse" x2="0" y1="46.986" y2="1.014">
    <stop offset="0" stop-color="#ffc001"/>
    <stop offset="1" stop-color="#ffc515"/>
  </linearGradient>
  <path d="m36.31 5c5.859 4.062 9.688 10.831 9.688 18.5 0 12.426-10.07 22.5-22.5 22.5-7.669 0-14.438-3.828-18.5-9.688 1.037 1.822 2.306 3.499 3.781 4.969 4.085 3.712 9.514 5.969 15.469 5.969 22.703 0 23-10.298 23-23 0-5.954-2.256-11.384-5.969-15.469-1.469-1.475-3.147-2.744-4.969-3.781zm4.969 3.781c3.854 4.113 6.219 9.637 6.219 15.719 0 22.703-.297 23-23 23-6.081 0-11.606-2.364-15.719-6.219 4.16 4.144 9.883 6.719 16.219 6.719 22.703 0 23-10.298 23-23 0-6.335-2.575-12.06-6.719-16.219z" opacity=".05"/>
  <path d="m41.28 8.781c3.712 4.085 5.969 9.514 5.969 15.469 0 22.703-.297 23-23 23-5.954 0-11.384-2.256-15.469-5.969 4.113 3.854 9.637 6.219 15.719 6.219 22.703 0 23-10.298 23-23 0-6.081-2.364-11.606-6.219-15.719z" opacity=".1"/>
  <path d="m31.25 2.375c8.615 3.154 14.75 11.417 14.75 21.13 0 12.426-10.07 22.5-22.5 22.5-9.708 0-17.971-6.135-21.12-14.75a23 23 0 0 0 44.875-7 23 23 0 0 0-16-21.875z" opacity=".2"/>
  <path d="m24 1c22.703 0 23 .297 23 23s-.297 23-23 23-23-.297-23-23 .297-23 23-23z" fill="url(#a)"/>
  <path d="m26.12 12c-.597.04-1.234.571-1.773 1.777-.58 1.295-.797 2.596-.242 5.088l.244 1.092c-1.812 1.558-4.089 3.553-4.332 6.395-.306 3.595 3.525 6.265 6.965 5.43l.488 2.191c.241 1.082.08 2.57-.98 3.254-.52.336-2.346.565-2.822-.217a1.536 1.587 89.43 0 0  .203.018 1.536 1.587 89.43 0 0  1.617-1.506 1.536 1.587 89.43 0 0-1.557-1.564 1.536 1.587 89.43 0 0-1.615 1.508 1.536 1.587 89.43 0 0  .014.223c0 .001 0 .003 0 .004a1.536 1.587 89.43 0 0  .049.229c.205.887 1.088 2.03 2.59 2.076 2.256.069 3.697-1.573 3.03-4.254l-.482-2.121c2.178-.857 3.258-4.052 1.863-5.73-1.092-1.314-2.368-1.656-3.5-1.457l-.613-2.693c1.246-1.414 2.303-2.937 2.709-4.84.575-2.698-.537-4.988-1.85-4.9zm.533 1.846c.192-.014.345.039.432.16.198.278.678 1.576-.688 3.9-.297.506-.907 1.063-1.625 1.686l-.146-.643c-.401-1.761-.101-2.716.113-3.285.428-1.139 1.339-1.776 1.914-1.818zm-1.805 8.361l.523 2.348c-2.524.84-3.963 4.401.002 5.689-.643-.482-1.082-.855-1.164-1.311-.298-1.667.503-2.543 1.521-2.764l1.123 5.04c-1.265.381-2.905.149-4.02-.814-1.497-1.294-2.163-3.786-.496-5.576.821-.882 1.695-1.732 2.51-2.615zm1.408 3.906c1.595-.009 3.343 1.397 2.281 3.764-.222.495-.648.862-1.17 1.117z" opacity=".1"/>
  <g fill="#333" transform="matrix(.42501 0 0 .40452 4.4641 8.5278)">
    <path d="m25.12 10.953c-.597.04-1.234.569-1.773 1.775-.58 1.295-.797 2.596-.242 5.088l.244 1.094c-1.812 1.558-4.089 3.551-4.332 6.393-.306 3.595 3.525 6.265 6.965 5.43l.488 2.193c.241 1.082.08 2.57-.98 3.254-.525.339-2.385.571-2.84-.238l-1.309-1.654c-.167.846.761 2.605 2.627 2.662 2.256.069 3.697-1.573 3.03-4.254l-.482-2.123c2.178-.857 3.258-4.052 1.863-5.73-1.092-1.314-2.368-1.656-3.5-1.457l-.613-2.691c1.247-1.414 2.303-2.937 2.709-4.84.575-2.698-.537-4.988-1.85-4.9zm.533 1.844c.192-.014.345.039.432.16.198.278.678 1.576-.688 3.9-.297.506-.907 1.064-1.625 1.686l-.146-.641c-.401-1.761-.101-2.718.113-3.287.428-1.139 1.339-1.776 1.914-1.818zm-1.805 8.361l.523 2.348c-2.524.84-3.963 4.401.002 5.689-.643-.482-1.082-.855-1.164-1.311-.298-1.667.503-2.541 1.521-2.762l1.123 5.04c-1.265.381-2.905.151-4.02-.813-1.497-1.294-2.163-3.788-.496-5.578.821-.882 1.695-1.732 2.51-2.615zm1.408 3.906c1.595-.009 3.343 1.399 2.281 3.766-.222.495-.648.862-1.17 1.117z" transform="matrix(2.3528858 0 0 2.4720657 -10.503518 -21.081282)"/>
    <ellipse cx="44.809" cy="64.58" rx="3.44" ry="3.499" transform="matrix(-1.0851 -.020368 .020368 -1.0851 90.689 135.06)"/>
  </g>
</svg>
