<svg viewBox="0 0 48 48" xmlns="http://www.w3.org/2000/svg" xmlns:xlink="http://www.w3.org/1999/xlink">
  <linearGradient id="a" gradientTransform="matrix(0 -1 1 0 -.0000015 47.999998)" gradientUnits="userSpaceOnUse" x1="1" x2="47">
    <stop offset="0" stop-color="#f8d4d4"/>
    <stop offset="1" stop-color="#fbe5e5"/>
  </linearGradient>
  <path d="m47 24c0 22.703-.297 23-23 23-22.703 0-23-.297-23-23 0-22.703.297-23 23-23 22.703 0 23 .297 23 23z" fill="url(#a)"/>
  <g fill="#e84444" transform="scale(.94541012 1.057742)">
    <path d="m17.982 35.926h4.231v-9.454h4.231l5.569 9.454h5.01l-6.216-10.4c4.101-.945 5.158-3.137 5.158-6.618 0-4.866-3.03-7.563-9.847-7.563h-8.134zm13.751-17.02c0 3.303-3.173 3.782-7.179 3.782h-2.34v-7.563h3.442c3.963 0 6.078.762 6.078 3.782z" fill="#000" opacity=".1"/>
    <path d="m16.924 34.98h4.231v-9.454h4.231l5.569 9.454h5.01l-6.216-10.4c4.101-.945 5.158-3.137 5.158-6.618 0-4.866-3.03-7.563-9.847-7.563h-8.134zm13.751-17.02c0 3.303-3.173 3.782-7.179 3.782h-2.34v-7.563h3.442c3.963 0 6.078.762 6.078 3.782z"/>
  </g>
</svg>
