<svg xmlns="http://www.w3.org/2000/svg" viewBox="0 0 48 48">
 <defs>
  <linearGradient id="linearGradient3825" x1="1" x2="47" gradientUnits="userSpaceOnUse" gradientTransform="matrix(0,-1,1,0,0,48)">
   <stop style="stop-color:#f29696;stop-opacity:1"/>
   <stop offset="1" style="stop-color:#f4a8a8;stop-opacity:1"/>
  </linearGradient>
 </defs>
 <g>
  
  
  
 </g>
 <path d="M 1,24 C 1,1.297 1.297,1 24,1 46.703,1 47,1.297 47,24 47,46.703 46.703,47 24,47 1.297,47 1,46.703 1,24 z" style="fill:url(#linearGradient3825);fill-opacity:1"/>
 <path d="m 14 12 c -1.108 0 -2 0.892 -2 2 l 0 18 c 0 1.108 0.892 2 2 2 0 1.108 0.892 2 2 2 0 1.108 0.892 2 2 2 l 18 0 c 1.108 0 2 -0.892 2 -2 l 0 -18 c 0 -1.108 -0.892 -2 -2 -2 0 -1.108 -0.892 -2 -2 -2 0 -1.108 -0.892 -2 -2 -2 z" style="fill:#000;opacity:0.1;fill-opacity:1;stroke:none"/>
 <path d="m 35 15 c 1.108 0 2 0.892 2 2 l 0 18 c 0 1.108 -0.892 2 -2 2 l -18 0 c -1.108 0 -2 -0.892 -2 -2 l 19 -1 z" style="fill:#c7271d;opacity:1;fill-opacity:1;stroke:none"/>
 <g>
  
 </g>
 <path d="m 35 15 -1 19 -19 1 c 0 0.294 0.067 0.569 0.18 0.82 c 0.251 0.113 0.526 0.18 0.82 0.18 l 18 0 c 1.108 0 2 -0.892 2 -2 l 0 -18 c 0 -0.294 -0.067 -0.569 -0.18 -0.82 -0.251 -0.113 -0.526 -0.18 -0.82 -0.18" style="fill:#000;opacity:0.06;fill-opacity:1;stroke:none"/>
 <path d="m 33 13 c 1.108 0 2 0.892 2 2 l 0 18 c 0 1.108 -0.892 2 -2 2 l -18 0 c -1.108 0 -2 -0.892 -2 -2 z" style="fill:#db2a1f;opacity:1;fill-opacity:1;stroke:none"/>
 <path d="m 33 13 l -1 19 l -19 1 c 0 0.294 0.067 0.569 0.18 0.82 c 0.251 0.113 0.526 0.18 0.82 0.18 l 18 0 c 1.108 0 2 -0.892 2 -2 l 0 -18 c 0 -0.294 -0.067 -0.569 -0.18 -0.82 c -0.251 -0.113 -0.526 -0.18 -0.82 -0.18 z m -10 10 l 1 7 l 1 0 l 0 -5 l 5 0 l 0 -1 l -7 -1 z" style="fill:#000;opacity:0.08;fill-opacity:1;stroke:none"/>
 <path d="m 13 11 c -1.108 0 -2 0.892 -2 2 l 0 18 c 0 1.108 0.892 2 2 2 l 18 0 c 1.108 0 2 -0.892 2 -2 l 0 -18 c 0 -1.108 -0.892 -2 -2 -2 z m 11 13 6 0 0 6 -6 0 z" style="fill:#e34339;opacity:1;fill-opacity:1;stroke:none"/>
 <path d="m 28 13.199 -1 2.801 l -3.199 0 2.5 2 l -1.301 3.4 3 -2.15 3 2.15 -1.301 -3.4 l 2.5 -2 l -3.199 0 -1 -2.801 m -10 0.801 a 4 4 0 0 0 -4 4 4 4 0 0 0 4 4 4 4 0 0 0 4 -4 4 4 0 0 0 -4 -4 z m -3 10 0 8 7 -4 -7 -4 z" style="fill:#000;opacity:0.1;fill-opacity:1;stroke:none"/>
 <circle cx="17" cy="17" r="4" style="fill:#fce4e4;opacity:1;fill-opacity:1;stroke:none"/>
 <path d="m 30 20.4 -3 -2.15 -3 2.15 1.3 -3.4 -2.5 -2 l 3.2 0 1 -2.8 1 2.8 3.2 0 -2.5 2 z" style="fill:#fce4e4;opacity:1;fill-opacity:1;stroke:none"/>
 <path d="m 14 23 7 4 -7 4 z" style="fill:#fce4e4;opacity:1;fill-opacity:1;stroke:none"/>
</svg>
