<svg viewBox="0 0 48 48" xmlns="http://www.w3.org/2000/svg" xmlns:xlink="http://www.w3.org/1999/xlink">
  <linearGradient id="a" gradientTransform="matrix(0 -1 1 0 0 48)" gradientUnits="userSpaceOnUse" x1="1" x2="47">
    <stop offset="0" stop-color="#f29696"/>
    <stop offset="1" stop-color="#f4a8a8"/>
  </linearGradient>
  <path d="m1 24c0-22.703.297-23 23-23 22.703 0 23 .297 23 23 0 22.703-.297 23-23 23-22.703 0-23-.297-23-23z" fill="url(#a)"/>
  <path d="m14 12c-1.108 0-2 .892-2 2v18c0 1.108.892 2 2 2 0 1.108.892 2 2 2 0 1.108.892 2 2 2h18c1.108 0 2-.892 2-2v-18c0-1.108-.892-2-2-2 0-1.108-.892-2-2-2 0-1.108-.892-2-2-2z" opacity=".1"/>
  <path d="m35 15c1.108 0 2 .892 2 2v18c0 1.108-.892 2-2 2h-18c-1.108 0-2-.892-2-2l19-1z" fill="#c7271d"/>
  <path d="m35 15l-1 19-19 1c0 .294.067.569.18.82.251.113.526.18.82.18h18c1.108 0 2-.892 2-2v-18c0-.294-.067-.569-.18-.82-.251-.113-.526-.18-.82-.18" opacity=".06"/>
  <path d="m33 13c1.108 0 2 .892 2 2v18c0 1.108-.892 2-2 2h-18c-1.108 0-2-.892-2-2z" fill="#db2a1f"/>
  <path d="m33 13l-1 19-19 1c0 .294.067.569.18.82.251.113.526.18.82.18h18c1.108 0 2-.892 2-2v-18c0-.294-.067-.569-.18-.82-.251-.113-.526-.18-.82-.18zm-10 10l1 7h1v-5h5v-1z" opacity=".08"/>
  <path d="m13 11c-1.108 0-2 .892-2 2v18c0 1.108.892 2 2 2h18c1.108 0 2-.892 2-2v-18c0-1.108-.892-2-2-2zm11 13h6v6h-6z" fill="#e34339"/>
  <path d="m28 13.199l-1 2.801h-3.199l2.5 2-1.301 3.4 3-2.15 3 2.15-1.301-3.4 2.5-2h-3.199zm-10 .801a4 4 0 0 0-4 4 4 4 0 0 0  4 4 4 4 0 0 0  4-4 4 4 0 0 0-4-4zm-3 10v8l7-4z" opacity=".1"/>
  <circle cx="17" cy="17" fill="#fce4e4" r="4"/>
  <path d="m30 20.4l-3-2.15-3 2.15 1.3-3.4-2.5-2h3.2l1-2.8 1 2.8h3.2l-2.5 2z" fill="#fce4e4"/>
  <path d="m14 23l7 4-7 4z" fill="#fce4e4"/>
</svg>
