<svg viewBox="0 0 48 48" xmlns="http://www.w3.org/2000/svg" xmlns:xlink="http://www.w3.org/1999/xlink">
  <linearGradient id="a" gradientUnits="userSpaceOnUse" x1="1" x2="47">
    <stop offset="0" stop-color="#1f51b1"/>
    <stop offset="1" stop-color="#2259c2"/>
  </linearGradient>
  <path d="m24 1c22.703 0 23 .297 23 23 0 22.703-.297 23-23 23-22.703 0-23-.297-23-23 0-22.703.297-23 23-23z" fill="url(#a)" transform="matrix(0 -1 1 0 -.40677966 48)"/>
  <path d="m23.576 34.632c-2.719-2.609-5.461-5.155-7.124-6.612l-.802-.702.564-1.1c.717-1.399 1.484-2.825 2-3.722.223-.386.399-.709.391-.718-.042-.048-3.256 1.906-4.864 2.958-.341.223-.638.405-.659.405-.022 0-.247-.164-.5-.364-.616-.487-1.425-1.089-2.024-1.505-.269-.187-.518-.367-.552-.399-.05-.048.111-.16.863-.598 2.547-1.486 4.781-2.665 6.898-3.642l.84-.388 1.493.032c.821.018 1.85.052 2.287.076 1.696.094 2.543.159 2.509.192-.02.019-.346.173-.725.343-.769.344-2.929 1.42-3.79 1.888-1.162.631-1.656.91-1.68.949-.014.022.212.183.501.357 2.124 1.279 4.903 3.194 7.782 5.362 1.222.92 3.261 2.514 3.665 2.866l.169.147-1.252 1.194c-3.03 2.891-4.25 4.053-4.403 4.197l-.164.154m8.331-8.474c-1.842-.427-5.66-1.164-7.417-1.432-.463-.071-.842-.14-.841-.154.003-.044 1.732-1.25 3.193-2.227 1.418-.948 2.831-1.822 4-2.476.821-.458 2.492-1.292 2.589-1.292.091 0 1.397.676 2.485 1.287 1.096.615 2.576 1.477 2.648 1.543.045.041-.149.204-.84.706-1.497 1.089-3.529 2.717-4.841 3.878-.192.17-.36.308-.373.307-.013-.002-.286-.064-.607-.138zm-9.05-3.673c-.039-.008-.226-.039-.416-.07-1.092-.179-2.049-.747-2.381-1.413-.461-.926.178-1.883 1.592-2.386 1.739-.618 4.02-.284 5.056.739.319.316.458.61.482 1.015.016.283.002.351-.129.618-.353.718-1.39 1.298-2.637 1.472-.319.045-1.382.062-1.566.026zm6.51-2.463c-2.648-1.566-5.823-3.02-8.9-4.067-.249-.085-.443-.172-.43-.193.028-.046 1.914-.668 2.843-.939l.653-.19.35.083c.481.114 1.831.533 2.73.848.779.273 2.949 1.127 3.48 1.369l.307.14-.224 1.604c-.123.882-.23 1.621-.237 1.641-.007.02-.265-.113-.573-.295z" opacity=".1"/>
  <path d="m22.576 33.632c-2.719-2.609-5.461-5.155-7.124-6.612l-.802-.702.564-1.1c.717-1.399 1.484-2.825 2-3.722.223-.386.399-.709.391-.718-.042-.048-3.256 1.906-4.864 2.958-.341.223-.638.405-.659.405-.022 0-.247-.164-.5-.364-.616-.487-1.425-1.089-2.024-1.505-.269-.187-.518-.367-.552-.399-.05-.048.111-.16.863-.598 2.547-1.486 4.781-2.665 6.898-3.642l.84-.388 1.493.032c.821.018 1.85.052 2.287.076 1.696.094 2.543.159 2.509.192-.02.019-.346.173-.725.343-.769.344-2.929 1.42-3.79 1.888-1.162.631-1.656.91-1.68.949-.014.022.212.183.501.357 2.124 1.279 4.903 3.194 7.782 5.362 1.222.92 3.261 2.514 3.665 2.866l.169.147-1.252 1.194c-3.03 2.891-4.25 4.053-4.403 4.197l-.164.154m8.331-8.474c-1.842-.427-5.66-1.164-7.417-1.432-.463-.071-.842-.14-.841-.154.003-.044 1.732-1.25 3.193-2.227 1.418-.948 2.831-1.822 4-2.476.821-.458 2.492-1.292 2.589-1.292.091 0 1.397.676 2.485 1.287 1.096.615 2.576 1.477 2.648 1.543.045.041-.149.204-.84.706-1.497 1.089-3.529 2.717-4.841 3.878-.192.17-.36.308-.373.307-.013-.002-.286-.064-.607-.138zm-9.05-3.673c-.039-.008-.226-.039-.416-.07-1.092-.179-2.049-.747-2.381-1.413-.461-.926.178-1.883 1.592-2.386 1.739-.618 4.02-.284 5.056.739.319.316.458.61.482 1.015.016.283.002.351-.129.618-.353.718-1.39 1.298-2.637 1.472-.319.045-1.382.062-1.566.026zm6.51-2.463c-2.648-1.566-5.823-3.02-8.9-4.067-.249-.085-.443-.172-.43-.193.028-.046 1.914-.668 2.843-.939l.653-.19.35.083c.481.114 1.831.533 2.73.848.779.273 2.949 1.127 3.48 1.369l.307.14-.224 1.604c-.123.882-.23 1.621-.237 1.641-.007.02-.265-.113-.573-.295z" fill="#e6e6e6"/>
</svg>
