<svg viewBox="0 0 48 48" xmlns="http://www.w3.org/2000/svg" xmlns:xlink="http://www.w3.org/1999/xlink">
  <linearGradient id="a" gradientTransform="matrix(0 -1 1 0 -.0000015 47.999998)" gradientUnits="userSpaceOnUse" x1="1" x2="47">
    <stop offset="0" stop-color="#e7e7e7"/>
    <stop offset="1" stop-color="#f1f1f1"/>
  </linearGradient>
  <path d="m47 24c0 22.703-.297 23-23 23-22.703 0-23-.297-23-23 0-22.703.297-23 23-23 22.703 0 23 .297 23 23z" fill="url(#a)"/>
  <g transform="matrix(3.543307 0 0 3.543307 -.00118111 .00157624)">
    <path d="m3.387 3.387h.564v.564h-.564z" fill="#ff9f00"/>
    <path d="m4.516 3.387h.564v.564h-.564z" fill="#ff9f00"/>
    <path d="m5.644 3.387h.564v.564h-.564z" fill="#ff9f00"/>
    <path d="m6.773 3.387h.564v.564h-.564z" fill="#51bb50"/>
    <path d="m7.902 3.387h.564v.564h-.564z" fill="#51bb50"/>
    <path d="m9.03 3.387h.564v.564h-.564z" fill="#51bb50"/>
    <path d="m3.951 3.951h.564v.564h-.564z" fill="#ff9f00"/>
    <path d="m5.08 3.951h.564v.564h-.564z" fill="#ff9f00"/>
    <path d="m6.209 3.951h.564v.564h-.564z" fill="#ff9f00"/>
    <path d="m7.338 3.951h.564v.564h-.564z" fill="#51bb50"/>
    <path d="m8.467 3.951h.564v.564h-.564z" fill="#51bb50"/>
    <path d="m9.596 3.951h.564v.564h-.564z" fill="#51bb50"/>
    <path d="m3.387 4.516h.564v.564h-.564z" fill="#ff9f00"/>
    <path d="m5.644 4.516h.564v.564h-.564z" fill="#ff9f00"/>
    <path d="m6.773 4.516h.564v.564h-.564z" fill="#51bb50"/>
    <path d="m7.902 4.516h.564v.564h-.564z" fill="#51bb50"/>
    <path d="m9.03 4.516h.564v.564h-.564z" fill="#51bb50"/>
    <path d="m3.951 5.08h.564v.564h-.564z" fill="#ff9f00"/>
    <path d="m6.209 5.08h.564v.564h-.564z" fill="#ff9f00"/>
    <path d="m7.338 5.08h.564v.564h-.564z" fill="#51bb50"/>
    <path d="m8.467 5.08h.564v.564h-.564z" fill="#51bb50"/>
    <path d="m9.596 5.08h.564v.564h-.564z" fill="#51bb50"/>
    <path d="m3.387 5.644h.564v.564h-.564z" fill="#ff9f00"/>
    <path d="m6.773 5.644h.564v.564h-.564z" fill="#51bb50"/>
    <path d="m7.902 5.644h.564v.564h-.564z" fill="#51bb50"/>
    <path d="m9.03 5.644h.564v.564h-.564z" fill="#51bb50"/>
    <path d="m3.951 6.209h.564v.564h-.564z" fill="#ff9f00"/>
    <path d="m5.08 6.209h.564v.564h-.564z" fill="#ff9f00"/>
    <path d="m7.338 6.209h.564v.564h-.564z" fill="#51bb50"/>
    <path d="m8.467 6.209h.564v.564h-.564z" fill="#51bb50"/>
    <path d="m9.596 6.209h.564v.564h-.564z" fill="#51bb50"/>
    <path d="m3.387 6.773h.564v.564h-.564z" fill="#ff9f00"/>
    <path d="m7.902 6.773h.564v.564h-.564z" fill="#51bb50"/>
    <path d="m9.03 6.773h.564v.564h-.564z" fill="#51bb50"/>
    <path d="m3.951 7.338h.564v.564h-.564z" fill="#ff9f00"/>
    <path d="m6.209 7.338h.564v.564h-.564z" fill="#ff9f00"/>
    <path d="m7.338 7.338h.564v.564h-.564z" fill="#51bb50"/>
    <path d="m8.467 7.338h.564v.564h-.564z" fill="#51bb50"/>
    <path d="m9.596 7.338h.564v.564h-.564z" fill="#51bb50"/>
    <path d="m3.387 7.902h.564v.564h-.564z" fill="#ff9f00"/>
    <path d="m6.773 7.902h.564v.564h-.564z" fill="#51bb50"/>
    <path d="m7.902 7.902h.564v.564h-.564z" fill="#51bb50"/>
    <path d="m9.03 7.902h.564v.564h-.564z" fill="#51bb50"/>
    <path d="m3.951 8.467h.564v.564h-.564z" fill="#ff9f00"/>
    <path d="m5.08 8.467h.564v.564h-.564z" fill="#ff9f00"/>
    <path d="m7.338 8.467h.564v.564h-.564z" fill="#51bb50"/>
    <path d="m8.467 8.467h.564v.564h-.564z" fill="#51bb50"/>
    <path d="m9.596 8.467h.564v.564h-.564z" fill="#51bb50"/>
    <path d="m3.387 9.03h.564v.564h-.564z" fill="#ff9f00"/>
    <path d="m5.644 9.03h.564v.564h-.564z" fill="#ff9f00"/>
    <path d="m7.902 9.03h.564v.564h-.564z" fill="#51bb50"/>
    <path d="m9.03 9.03h.564v.564h-.564z" fill="#51bb50"/>
    <path d="m3.951 9.596h.564v.564h-.564z" fill="#ff9f00"/>
    <path d="m5.08 9.596h.564v.564h-.564z" fill="#ff9f00"/>
    <path d="m6.209 9.596h.564v.564h-.564z" fill="#ff9f00"/>
    <path d="m7.338 9.596h.564v.564h-.564z" fill="#51bb50"/>
    <path d="m8.467 9.596h.564v.564h-.564z" fill="#51bb50"/>
    <path d="m9.596 9.596h.564v.564h-.564z" fill="#51bb50"/>
    <path d="m5.08 7.338h.564v.564h-.564z" fill="#ff9f00"/>
    <path d="m4.516 7.902h.564v.564h-.564z" fill="#ff9f00"/>
    <path d="m5.644 7.902h.564v.564h-.564z" fill="#ff9f00"/>
    <path d="m6.209 8.467h.564v.564h-.564z" fill="#ff9f00"/>
    <path d="m6.773 9.03h.564v.564h-.564z" fill="#51bb50"/>
    <path d="m4.516 9.03h.564v.564h-.564z" fill="#ff9f00"/>
    <path d="m4.516 6.773h.564v.564h-.564z" fill="#ff9f00"/>
    <path d="m4.516 5.644h.564v.564h-.564z" fill="#ff9f00"/>
    <path d="m4.516 4.516h.564v.564h-.564z" fill="#ff9f00"/>
    <path d="m5.08 5.08h.564v.564h-.564z" fill="#ff9f00"/>
    <path d="m5.644 5.644h.564v.564h-.564z" fill="#ff9f00"/>
    <path d="m5.644 6.773h.564v.564h-.564z" fill="#ff9f00"/>
    <path d="m6.773 6.773h.564v.564h-.564z" fill="#51bb50"/>
    <path d="m6.209 6.209h.564v.564h-.564z" fill="#ff9f00"/>
    <path d="m5.644 4.516h.564v.564h-.564z" fill="#447299"/>
    <path d="m6.209 5.08h.564v.564h-.564z" fill="#447299"/>
    <path d="m5.644 5.644h.564v.564h-.564z" fill="#447299"/>
    <path d="m6.773 5.644h.564v.564h-.564z" fill="#447299"/>
    <path d="m7.338 6.209h.564v.564h-.564z" fill="#447299"/>
    <path d="m5.644 6.773h.564v.564h-.564z" fill="#447299"/>
    <path d="m6.209 7.338h.564v.564h-.564z" fill="#447299"/>
    <path d="m5.644 7.902h.564v.564h-.564z" fill="#447299"/>
    <path d="m6.773 7.902h.564v.564h-.564z" fill="#447299"/>
    <path d="m7.338 8.467h.564v.564h-.564z" fill="#447299"/>
    <path d="m5.644 9.03h.564v.564h-.564z" fill="#447299"/>
    <path d="m7.902 9.03h.564v.564h-.564z" fill="#447299"/>
    <path d="m6.773 6.773h.564v.564h-.564z" fill="#447299"/>
    <path d="m10.16 4.516h.564v.564h-.564z" opacity=".1"/>
    <path d="m10.16 5.644h.564v.564h-.564z" opacity=".1"/>
    <path d="m10.16 6.773h.564v.564h-.564z" opacity=".1"/>
    <path d="m10.16 7.902h.564v.564h-.564z" opacity=".1"/>
    <path d="m10.16 9.03h.564v.564h-.564z" opacity=".1"/>
    <path d="m4.516 10.16h.564v.564h-.564z" opacity=".1"/>
    <path d="m5.644 10.16h.564v.564h-.564z" opacity=".1"/>
    <path d="m6.773 10.16h.564v.564h-.564z" opacity=".1"/>
    <path d="m7.902 10.16h.564v.564h-.564z" opacity=".1"/>
    <path d="m9.03 10.16h.564v.564h-.564z" opacity=".1"/>
    <path d="m10.16 10.16h.564v.564h-.564z" opacity=".1"/>
  </g>
</svg>
