<svg viewBox="0 0 48 48" xmlns="http://www.w3.org/2000/svg" xmlns:xlink="http://www.w3.org/1999/xlink">
  <linearGradient id="a" gradientTransform="matrix(0 -1 1 0 -.0000015 47.999998)" gradientUnits="userSpaceOnUse" x1="1" x2="47">
    <stop offset="0" stop-color="#e4e4e4"/>
    <stop offset="1" stop-color="#eee"/>
  </linearGradient>
  <path d="m47 24c0 22.703-.297 23-23 23-22.703 0-23-.297-23-23 0-22.703.297-23 23-23 22.703 0 23 .297 23 23z" fill="url(#a)"/>
  <path d="m21.566 12c-2.512-.074-4.949.855-6.75 2.582-1.805 1.723-2.82 4.094-2.816 6.57.004 2.297.883 4.508 2.469 6.195.965 4.926 5.379 8.648 10.676 8.648 6 0 10.855-4.793 10.855-10.695v-.414c-.176-4.688-3.418-8.578-7.789-9.836-1.695-1.871-4.098-2.977-6.645-3.051m0 0" opacity=".1" transform="translate(1 1)"/>
  <g transform="translate(.00001178)">
    <path d="m21.566 12c-2.512-.074-4.949.855-6.75 2.582-1.805 1.723-2.82 4.094-2.816 6.57.004 2.297.883 4.508 2.469 6.195.965 4.926 5.379 8.648 10.676 8.648 6 0 10.855-4.793 10.855-10.695v-.414c-.176-4.688-3.418-8.578-7.789-9.836-1.695-1.871-4.098-2.977-6.645-3.051m0 0" fill="#e55858"/>
    <path d="m29.473 21.11c.035 2.91-1.496 5.613-4.01 7.078-2.523 1.465-5.621 1.465-8.145 0-2.516-1.465-4.047-4.168-4.02-7.078-.031-2.91 1.5-5.613 4.02-7.078 2.523-1.465 5.621-1.465 8.145 0 2.516 1.465 4.047 4.168 4.01 7.078m0 0" fill="#f9f9f9"/>
    <path d="m34.781 25.344c0 5.25-4.242 9.523-9.508 9.574-5.262.051-9.586-4.133-9.691-9.383-.105-5.25 4.047-9.605 9.309-9.766 5.262-.156 9.672 3.941 9.883 9.191" fill="#2d2d2d"/>
  </g>
</svg>
