<svg xmlns="http://www.w3.org/2000/svg" viewBox="0 0 48 48">
 <defs>
  <linearGradient id="linearGradient3764" x1="1" x2="47" gradientUnits="userSpaceOnUse" gradientTransform="matrix(0,-1,1,0,-1.5e-6,47.999998)">
   <stop style="stop-color:#e4e4e4;stop-opacity:1"/>
   <stop offset="1" style="stop-color:#eee;stop-opacity:1"/>
  </linearGradient>
 </defs>
 <g>
  
  
  
 </g>
 <g>
  <path d="m 47,24 C 47,46.703 46.703,47 24,47 1.297,47 1,46.703 1,24 1,1.297 1.297,1 24,1 46.703,1 47,1.297 47,24 z" style="fill:url(#linearGradient3764);fill-opacity:1"/>
 </g>
 <g>
  <g>
   <g transform="translate(1,1)">
    <g style="opacity:0.1">
     <!-- color: #eeeeee -->
     <g>
      <path d="m 21.566 12 c -2.512 -0.074 -4.949 0.855 -6.75 2.582 c -1.805 1.723 -2.82 4.094 -2.816 6.57 c 0.004 2.297 0.883 4.508 2.469 6.195 c 0.965 4.926 5.379 8.648 10.676 8.648 c 6 0 10.855 -4.793 10.855 -10.695 l 0 -0.414 c -0.176 -4.688 -3.418 -8.578 -7.789 -9.836 c -1.695 -1.871 -4.098 -2.977 -6.645 -3.051 m 0 0" style="fill:#000;fill-opacity:1;stroke:none;fill-rule:nonzero"/>
     </g>
    </g>
   </g>
  </g>
 </g>
 <g transform="translate(1.1777983e-5,0)">
  <g>
   <!-- color: #eeeeee -->
   <g>
    <path d="m 21.566,12 c -2.512,-0.074 -4.949,0.855 -6.75,2.582 -1.805,1.723 -2.82,4.094 -2.816,6.57 0.004,2.297 0.883,4.508 2.469,6.195 0.965,4.926 5.379,8.648 10.676,8.648 6,0 10.855,-4.793 10.855,-10.695 l 0,-0.414 C 35.824,20.198 32.582,16.308 28.211,15.05 26.516,13.179 24.113,12.073 21.566,11.999 m 0,0" style="fill:#e55858;fill-opacity:1;stroke:none;fill-rule:nonzero"/>
    <path d="m 29.473 21.11 c 0.035 2.91 -1.496 5.613 -4.01 7.078 -2.523 1.465 -5.621 1.465 -8.145 0 -2.516 -1.465 -4.047 -4.168 -4.02 -7.078 -0.031 -2.91 1.5 -5.613 4.02 -7.078 2.523 -1.465 5.621 -1.465 8.145 0 2.516 1.465 4.047 4.168 4.01 7.078 m 0 0" style="fill:#f9f9f9;fill-opacity:1;stroke:none;fill-rule:nonzero"/>
    <path d="m 34.781 25.344 c 0 5.25 -4.242 9.523 -9.508 9.574 -5.262 0.051 -9.586 -4.133 -9.691 -9.383 -0.105 -5.25 4.047 -9.605 9.309 -9.766 5.262 -0.156 9.672 3.941 9.883 9.191" style="fill:#2d2d2d;fill-opacity:1;stroke:none;fill-rule:nonzero"/>
   </g>
  </g>
 </g>
 <g>
  
 </g>
</svg>
