<svg viewBox="0 0 48 48" xmlns="http://www.w3.org/2000/svg" xmlns:xlink="http://www.w3.org/1999/xlink">
  <linearGradient id="a" gradientTransform="matrix(0 -1 1 0 -.0000015 47.999998)" gradientUnits="userSpaceOnUse" x1="1" x2="47">
    <stop offset="0" stop-color="#1c8dec"/>
    <stop offset="1" stop-color="#2f95ee"/>
  </linearGradient>
  <path d="m47 24c0 22.703-.297 23-23 23-22.703 0-23-.297-23-23 0-22.703.297-23 23-23 22.703 0 23 .297 23 23z" fill="url(#a)"/>
  <g opacity=".1" transform="translate(1 1)">
    <path d="m-24 24c0 1.101-1.123 2-2.5 2-1.377 0-2.5-.898-2.5-2 0-1.101 1.123-2 2.5-2 1.377 0 2.5.898 2.5 2m0 0" stroke="#e5ecf4" stroke-width="2.235" transform="matrix(.400055 0 0 .500069 24.101465 18.498343)"/>
    <path d="m9.387 31.867c-1.684-.395-1.832-1.48-.445-3.266.629-.816 3.848-3.262 4.281-3.262.094 0-.285.586-.84 1.297-1.203 1.551-1.242 1.945-.273 2.566.59.379 1.141.441 2.816.293 5.477-.465 13.949-3.813 18.887-7.453l1.398-1.027-1.156 1.191c-3.094 3.184-11.133 7.121-18.203 8.883-3.504.879-5.176 1.078-6.465.773m8.777-.535c.316-.145 2.656-.914 5.199-1.715 6.945-2.184 11.469-4.484 13.676-6.953 1.25-1.398 1.207-2.25-.145-2.949-.348-.18-.996-.328-1.449-.332-.742-.008-.762-.035-.254-.328.309-.176 1.695-.328 3.078-.344 2.895-.035 3.73.398 3.73 1.914 0 2.676-9.121 7.535-18.391 9.801-3.629.887-6.469 1.363-5.449.91m-3.23-5.34c-.84-.156-1.074-1.313-.684-3.398.645-3.441 2.617-6.02 5.84-7.637 2.18-1.094 5.477-1.27 8.277-.434 2.309.688 4.488 2.391 5.734 4.48l.75 1.258-.66.688c-.875.91-5.301 3.01-8.273 3.918-3.465 1.063-8.563 1.578-10.984 1.117m0 .004"/>
  </g>
  <path d="m-24 24c0 1.101-1.123 2-2.5 2-1.377 0-2.5-.898-2.5-2 0-1.101 1.123-2 2.5-2 1.377 0 2.5.898 2.5 2m0 0" fill="none" stroke="#e5ecf4" stroke-width="2.235" transform="matrix(.400055 0 0 .500069 24.101465 18.498343)"/>
  <path d="m9.387 31.867c-1.684-.395-1.832-1.48-.445-3.266.629-.816 3.848-3.262 4.281-3.262.094 0-.285.586-.84 1.297-1.203 1.551-1.242 1.945-.273 2.566.59.379 1.141.441 2.816.293 5.477-.465 13.949-3.813 18.887-7.453l1.398-1.027-1.156 1.191c-3.094 3.184-11.133 7.121-18.203 8.883-3.504.879-5.176 1.078-6.465.773m8.777-.535c.316-.145 2.656-.914 5.199-1.715 6.945-2.184 11.469-4.484 13.676-6.953 1.25-1.398 1.207-2.25-.145-2.949-.348-.18-.996-.328-1.449-.332-.742-.008-.762-.035-.254-.328.309-.176 1.695-.328 3.078-.344 2.895-.035 3.73.398 3.73 1.914 0 2.676-9.121 7.535-18.391 9.801-3.629.887-6.469 1.363-5.449.91m-3.23-5.34c-.84-.156-1.074-1.313-.684-3.398.645-3.441 2.617-6.02 5.84-7.637 2.18-1.094 5.477-1.27 8.277-.434 2.309.688 4.488 2.391 5.734 4.48l.75 1.258-.66.688c-.875.91-5.301 3.01-8.273 3.918-3.465 1.063-8.563 1.578-10.984 1.117m0 .004" fill="#fff"/>
</svg>
