<svg viewBox="0 0 48 48" xmlns="http://www.w3.org/2000/svg" xmlns:xlink="http://www.w3.org/1999/xlink">
  <linearGradient id="a" gradientTransform="matrix(0 -1 1 0 -.0000015 47.999998)" gradientUnits="userSpaceOnUse" x1="1" x2="47">
    <stop offset="0" stop-color="#f5d7c7"/>
    <stop offset="1" stop-color="#f8e3d8"/>
  </linearGradient>
  <path d="m47 24c0 22.703-.297 23-23 23-22.703 0-23-.297-23-23 0-22.703.297-23 23-23 22.703 0 23 .297 23 23z" fill="url(#a)"/>
  <path d="m25 10l-14 24h28zm0 4l4.688 8h-9.375l4.688-8m-5 8.533v9.467h-5.547zm10 0l5.547 9.467h-5.547z" fill-rule="evenodd" opacity=".1"/>
  <path d="m19 21h10v10h-10z" fill="#50c06a"/>
  <path d="m24 9l-14 24h28m-14-19.998l10.547 17.998h-21.09" fill="#cd855f" fill-rule="evenodd"/>
</svg>
