<svg viewBox="0 0 48 48" xmlns="http://www.w3.org/2000/svg" xmlns:xlink="http://www.w3.org/1999/xlink">
  <linearGradient id="a" gradientTransform="matrix(0 -1 1 0 -.0000015 47.999998)" gradientUnits="userSpaceOnUse" x1="1" x2="47">
    <stop offset="0" stop-color="#ce2c3f"/>
    <stop offset="1" stop-color="#d5394b"/>
  </linearGradient>
  <path d="m47 24c0 22.703-.297 23-23 23-22.703 0-23-.297-23-23 0-22.703.297-23 23-23 22.703 0 23 .297 23 23z" fill="url(#a)"/>
  <path d="m20 11.281l-1 6h-6.344l-.656 4h6.313l-.656 4h-5l-.656 4h5l-1 6h4l1-6h4l-1 6h4l1-6h6.344l.656-4h-6.313l.656-4h5l .656-4h-5l1-6h-4l-1 6h-4l1-6m-1.688 10h4.03l-.656 4h-4.03m.656-4" opacity=".1" transform="translate(1 1.719)"/>
  <path d="m20 12l-1 6h-6.344l-.656 4h6.313l-.656 4h-5l-.656 4h5l-1 6h4l1-6h4l-1 6h4l1-6h6.344l.656-4h-6.313l.656-4h5l .656-4h-5l1-6h-4l-1 6h-4l1-6m-1.688 10h4.03l-.656 4h-4.03m.656-4" fill="#f8e6e7"/>
</svg>
