<svg viewBox="0 0 48 48" xmlns="http://www.w3.org/2000/svg" xmlns:xlink="http://www.w3.org/1999/xlink">
  <linearGradient id="a" gradientTransform="matrix(0 -1 1 0 -.0000015 47.999998)" gradientUnits="userSpaceOnUse" x1="1" x2="47">
    <stop offset="0" stop-color="#e4e4e4"/>
    <stop offset="1" stop-color="#eee"/>
  </linearGradient>
  <path d="m47 24c0 22.703-.297 23-23 23-22.703 0-23-.297-23-23 0-22.703.297-23 23-23 22.703 0 23 .297 23 23z" fill="url(#a)"/>
  <path d="m22 10v6h6v-6zm-5.484 2.271l-4.244 4.244 4.244 4.242 4.242-4.242zm16.969 0l-4.242 4.244 4.242 4.242 4.244-4.242zm-12.484 8.729v8h8v-8zm-11 1v6h6v-6zm24 0v6h6v-6zm-17.484 7.242l-4.244 4.242 4.244 4.244 4.242-4.244zm16.969 0l-4.242 4.242 4.242 4.244 4.244-4.244zm-11.484 4.758v6h6v-6z" opacity=".1"/>
  <path d="m20 20h8v8h-8z" fill="#666db2"/>
  <path d="m9 21h6v6h-6z" fill="#56c256"/>
  <path d="m33 21h6v6h-6z" fill="#b7619d"/>
  <path d="m21 33h6v6h-6z" fill="#ba5e5e"/>
  <path d="m21 9h6v6h-6z" fill="#cacb4d"/>
  <path d="m18.941-3h6v6h-6z" fill="#61b6b7" transform="matrix(.70710678 .70710678 -.70710678 .70710678 0 0)"/>
  <path d="m42.941-3h6v6h-6z" fill="#7eba5e" transform="matrix(.70710678 .70710678 -.70710678 .70710678 0 0)"/>
  <path d="m30.941 9h6v6h-6z" fill="#cf8b49" transform="matrix(.70710678 .70710678 -.70710678 .70710678 0 0)"/>
  <path d="m30.941-15h6v6h-6z" fill="#905fcd" transform="matrix(.70710678 .70710678 -.70710678 .70710678 0 0)"/>
</svg>
