<svg viewBox="0 0 48 48" xmlns="http://www.w3.org/2000/svg" xmlns:xlink="http://www.w3.org/1999/xlink">
  <linearGradient id="a" gradientTransform="matrix(0 -1 1 0 -.0000015 47.999998)" gradientUnits="userSpaceOnUse" x1="1" x2="47">
    <stop offset="0" stop-color="#e4e4e4"/>
    <stop offset="1" stop-color="#eee"/>
  </linearGradient>
  <path d="m47 24c0 22.703-.297 23-23 23-22.703 0-23-.297-23-23 0-22.703.297-23 23-23 22.703 0 23 .297 23 23z" fill="url(#a)"/>
  <path d="m26.02 15v1.996h2.98v16h-2.98v2h2.98v.004h1.996v-.004h3.02v-2h-3.02v-16h3.02v-1.996h-8zm-14.02 4v12h16v-2h-14v-8h14v-2zm20 0v2h4v8h-4v2h6v-12zm-17 4v4h9v-4z" opacity=".1" transform=""/>
  <path d="m11 18v12h16v-2h-14v-8h14v-2m4 0v2h4v8h-4v2h6v-12m-6 0" fill="#777"/>
  <path d="m14 22h9v4h-9m0-4" fill="#282828"/>
  <path d="m28 34v-19.996h1.996v19.996m-1.996 0" fill="#ff9c36"/>
  <path d="m25.02 14h8v1.996h-8m0-1.996" fill="#ff9c36"/>
  <path d="m25.02 31.996h8v2h-8m0-2" fill="#ff9c36"/>
</svg>
