<svg viewBox="0 0 48 48" xmlns="http://www.w3.org/2000/svg" xmlns:xlink="http://www.w3.org/1999/xlink">
  <linearGradient id="a" gradientUnits="userSpaceOnUse" x2="0" y1="47" y2="1">
    <stop offset="0" stop-color="#d93f3f"/>
    <stop offset="1" stop-color="#dc5050"/>
  </linearGradient>
  <path d="m24 1c22.703 0 23 .297 23 23 0 22.703-.297 23-23 23-22.703 0-23-.297-23-23 0-22.703.297-23 23-23z" fill="url(#a)"/>
  <g opacity=".1" transform="matrix(1.0909091 0 0 1 -3.3636332 1)">
    <path d="m15.917 11v26h20.17v-26h-1.833v3c0 .552-.41 1-.917 1-.506 0-.917-.448-.917-1v-3h-1.833v3c0 .552-.41 1-.917 1-.506 0-.917-.448-.917-1v-3h-1.833v3c0 .552-.41 1-.917 1-.506 0-.917-.448-.917-1v-3h-1.833v3c0 .552-.41 1-.917 1-.506 0-.917-.448-.917-1v-3h-1.833v3c0 .552-.41 1-.917 1-.506 0-.917-.448-.917-1v-3z"/>
    <g opacity=".7" transform="matrix(.36 0 0 .36521738 21.52 20.878261)">
      <path d="m-35.797 18c0 2.64-2.413 4.78-5.39 4.78-2.977 0-5.39-2.14-5.39-4.78 0-2.64 2.413-4.78 5.39-4.78 2.977 0 5.39 2.14 5.39 4.78z" transform="matrix(.46383647 0 0 .52304963 46.603773 4.0851067)"/>
      <path d="m-35.797 18c0 2.64-2.413 4.78-5.39 4.78-2.977 0-5.39-2.14-5.39-4.78 0-2.64 2.413-4.78 5.39-4.78 2.977 0 5.39 2.14 5.39 4.78z" transform="matrix(.46383647 0 0 .52304963 39.603773 10.085107)"/>
      <path d="m-35.797 18c0 2.64-2.413 4.78-5.39 4.78-2.977 0-5.39-2.14-5.39-4.78 0-2.64 2.413-4.78 5.39-4.78 2.977 0 5.39 2.14 5.39 4.78z" transform="matrix(.46383647 0 0 .52304963 33.603773 16.085107)"/>
      <path d="m-35.797 18c0 2.64-2.413 4.78-5.39 4.78-2.977 0-5.39-2.14-5.39-4.78 0-2.64 2.413-4.78 5.39-4.78 2.977 0 5.39 2.14 5.39 4.78z" transform="matrix(.46383647 0 0 .52304963 42.603773 16.085107)"/>
      <path d="m-35.797 18c0 2.64-2.413 4.78-5.39 4.78-2.977 0-5.39-2.14-5.39-4.78 0-2.64 2.413-4.78 5.39-4.78 2.977 0 5.39 2.14 5.39 4.78z" transform="matrix(.46383647 0 0 .52304963 49.603773 10.085107)"/>
      <path d="m-35.797 18c0 2.64-2.413 4.78-5.39 4.78-2.977 0-5.39-2.14-5.39-4.78 0-2.64 2.413-4.78 5.39-4.78 2.977 0 5.39 2.14 5.39 4.78z" transform="matrix(.46383647 0 0 .52304963 51.603773 16.085107)"/>
      <path d="m-35.797 18c0 2.64-2.413 4.78-5.39 4.78-2.977 0-5.39-2.14-5.39-4.78 0-2.64 2.413-4.78 5.39-4.78 2.977 0 5.39 2.14 5.39 4.78z" transform="matrix(.46383647 0 0 .52304963 53.603773 22.085107)"/>
      <path d="m-35.797 18c0 2.64-2.413 4.78-5.39 4.78-2.977 0-5.39-2.14-5.39-4.78 0-2.64 2.413-4.78 5.39-4.78 2.977 0 5.39 2.14 5.39 4.78z" transform="matrix(.46383647 0 0 .52304963 44.603773 22.085107)"/>
      <path d="m-35.797 18c0 2.64-2.413 4.78-5.39 4.78-2.977 0-5.39-2.14-5.39-4.78 0-2.64 2.413-4.78 5.39-4.78 2.977 0 5.39 2.14 5.39 4.78z" transform="matrix(.46383647 0 0 .52304963 36.603773 22.085107)"/>
    </g>
    <path d="m18 16h15v1h-15z"/>
    <path d="m18 19h10v1h-10z"/>
    <path d="m18 22h15v1h-15z"/>
    <path d="m18 25h8v1h-8z"/>
    <g transform="matrix(.68965061 .68022132 -.66578267 .70460687 40.466817 18.228738)">
      <path d="m-8 5h2v19h-2z"/>
      <path d="m-8 2h2v3h-2z"/>
      <path d="m-8 24h2l-1 4z"/>
      <path d="m-8 4h2v1h-2z"/>
      <path d="m-7 5h1v19h-1z"/>
      <path d="m-6.481 26l-.519 2-.492-2c .353 0 .657 0 1.01 0z"/>
    </g>
  </g>
  <path d="m13 11v26h22v-26h-2v2c0 .552-.448 1-1 1-.552 0-1-.448-1-1v-2h-2v2c0 .552-.448 1-1 1-.552 0-1-.448-1-1v-2h-2v2c0 .552-.448 1-1 1-.552 0-1-.448-1-1v-2h-2v2c0 .552-.448 1-1 1-.552 0-1-.448-1-1v-2h-2v2c0 .552-.448 1-1 1-.552 0-1-.448-1-1v-2z" fill="#e3dedb" transform="matrix(.99999997 0 0 .99999996 -.00000021 -.00000006)"/>
  <path d="m19.5 18h2.5c3.14 0 4.677.524 5.313 1.031.635.507.688 1.054.688 1.969 0 .911-.048 1.46-.688 1.969-.639.509-2.184 1.031-5.313 1.031h-2.5v2c1.621 0 3.097.311 3.781.75.684.439 1.15 1.057 1.563 1.875.824 1.636 1.351 4.06 3.456 6.075.361.426 1.046.377 1.4 0 .399-.426.39-1.026-.012-1.419-1.629-1.559-2.07-3.593-3.063-5.563-.363-.721-.891-1.398-1.531-2 1.478-.228 2.698-.574 3.469-1.188 1.245-.991 1.438-2.442 1.438-3.531 0-1.086-.194-2.539-1.438-3.531-1.243-.993-3.217-1.469-6.563-1.469h-2.5z" fill="#212121"/>
  <path d="m18 16h3v15h-3z" fill="#b72727"/>
  <path d="m18 16h1.5v15h-1.5z" fill="#d93535"/>
  <path d="m18 31h3l-1.5 4z" fill="#ffe680"/>
  <path d="m20.25 33l-.75 2-.75-2z" fill="#212121"/>
</svg>
