<svg viewBox="0 0 48 48" xmlns="http://www.w3.org/2000/svg" xmlns:xlink="http://www.w3.org/1999/xlink">
  <linearGradient id="a" gradientUnits="userSpaceOnUse" x1="1" x2="47">
    <stop offset="0" stop-color="#204a87"/>
    <stop offset="1" stop-color="#245398"/>
  </linearGradient>
  <path d="m24 1c22.703 0 23 .297 23 23 0 22.703-.297 23-23 23-22.703 0-23-.297-23-23 0-22.703.297-23 23-23z" fill="url(#a)" transform="matrix(0 -1 1 0 0 48)"/>
  <path d="m21 13v3h-7v3h-2v10h26v-10h-2v-3h-7v-3zm-2 9h4v3h-4zm8 0h4v3h-4zm-8 7v3h-3v3h-4v3h4v-3h4v-3h3v-3zm4 3v3h4v-3zm4 0h3v3h4v-3h-3v-3h-4zm7 3v3h4v-3z" opacity=".1"/>
  <path d="m20 12v3h-7v3h-2v10h26v-10h-2v-3h-7v-3zm-2 9h4v3h-4zm8 0h4v3h-4zm-8 7v3h-3v3h-4v3h4v-3h4v-3h3v-3zm4 3v3h4v-3zm4 0h3v3h4v-3h-3v-3h-4zm7 3v3h4v-3z" fill="#ffc94d"/>
</svg>
