<svg xmlns="http://www.w3.org/2000/svg" viewBox="0 0 48 48">
 <defs>
  <linearGradient id="linearGradient3764" x1="1" x2="47" gradientUnits="userSpaceOnUse" gradientTransform="matrix(0,-1,1,0,-1.5e-6,47.999998)">
   <stop style="stop-color:#b5d9f3;stop-opacity:1"/>
   <stop offset="1" style="stop-color:#c6e2f6;stop-opacity:1"/>
  </linearGradient>
 </defs>
 <g>
  
  
  
 </g>
 <g>
  <path d="m 47,24 C 47,46.703 46.703,47 24,47 1.297,47 1,46.703 1,24 1,1.297 1.297,1 24,1 46.703,1 47,1.297 47,24 z" style="fill:url(#linearGradient3764);fill-opacity:1"/>
 </g>
 <g>
  
 </g>
 <path d="m 17 12 0 5 5 0 0 -5 -5 0 z m 7 0 0 5 5 0 0 -5 -5 0 z m 6 3 0 2 2 0 0 -2 -2 0 z m -13 4 0 5 5 0 0 -5 -5 0 z m 10 0 0 5 5 0 0 -5 -5 0 z m -10 7 0 5 5 0 0 -5 -5 0 z m 7 0 0 5 5 0 0 -5 -5 0 z m 6 2 0 3 3 0 0 -3 -3 0 z m -13 5 0 5 5 0 0 -5 -5 0 z m 13 0 0 5 5 0 0 -5 -5 0 z" style="fill:#000;opacity:0.1;fill-opacity:1;stroke:none"/>
 <path d="m 16 11 0 5 5 0 0 -5 -5 0 z m 7 0 0 5 5 0 0 -5 -5 0 z m 6 3 0 2 2 0 0 -2 -2 0 z m -13 4 0 5 5 0 0 -5 -5 0 z m 10 0 0 5 5 0 0 -5 -5 0 z m -10 7 0 5 5 0 0 -5 -5 0 z m 13 2 0 3 3 0 0 -3 -3 0 z m -13 5 0 5 5 0 0 -5 -5 0 z m 13 0 0 5 5 0 0 -5 -5 0 z" style="fill:#1888c4;opacity:1;fill-opacity:1;stroke:none"/>
 <rect y="25" x="23" height="5" width="5" style="fill:#ee8e52;opacity:1;fill-opacity:1;stroke:none"/>
</svg>
