<svg xmlns="http://www.w3.org/2000/svg" viewBox="0 0 48 48">
 <defs>
  <linearGradient id="linearGradient3764" x1="1" x2="47" gradientUnits="userSpaceOnUse" gradientTransform="matrix(0,-1,1,0,-1.5e-6,47.999998)">
   <stop style="stop-color:#e4e4e4;stop-opacity:1"/>
   <stop offset="1" style="stop-color:#eee;stop-opacity:1"/>
  </linearGradient>
  <linearGradient id="linearGradient4360" gradientUnits="userSpaceOnUse" gradientTransform="matrix(0.5,0.8660254,-0.8660254,0.5,14.174281,-20.338035)" x1="24" x2="48">
   <stop style="stop-color:#096473;stop-opacity:1"/>
   <stop offset="0.5" style="stop-color:#074853;stop-opacity:1"/>
   <stop offset="1" style="stop-color:#095e6d;stop-opacity:1"/>
  </linearGradient>
  <linearGradient id="linearGradient4501-5" gradientUnits="userSpaceOnUse" gradientTransform="matrix(0.5,-0.8660254,0.8660254,0.5,-7.055635,42.01579)" x1="24" x2="48">
   <stop style="stop-color:#0b8195;stop-opacity:1"/>
   <stop offset="0.5" style="stop-color:#075361;stop-opacity:1"/>
   <stop offset="1" style="stop-color:#0b879b;stop-opacity:1"/>
  </linearGradient>
  <linearGradient id="linearGradient4438-4" x1="24" x2="48" gradientUnits="userSpaceOnUse" gradientTransform="translate(-14.440676,4.7257821)">
   <stop style="stop-color:#0a788c;stop-opacity:1"/>
   <stop offset="0.5" style="stop-color:#0d91a7;stop-opacity:1"/>
   <stop offset="1" style="stop-color:#0a7486;stop-opacity:1"/>
  </linearGradient>
  <linearGradient id="linearGradient4362" gradientUnits="userSpaceOnUse" gradientTransform="matrix(0.5,0.8660254,-0.8660254,0.5,14.174281,-20.338035)" x1="24" x2="48">
   <stop style="stop-color:#2cadc0;stop-opacity:1"/>
   <stop offset="0.5" style="stop-color:#238a95;stop-opacity:1"/>
   <stop offset="1" style="stop-color:#2594a3;stop-opacity:1"/>
  </linearGradient>
  <linearGradient id="linearGradient4428-9" x1="24" x2="48" gradientUnits="userSpaceOnUse" gradientTransform="translate(-14.440676,4.7257821)">
   <stop style="stop-color:#2bb0c9;stop-opacity:1"/>
   <stop offset="0.5" style="stop-color:#28a6bc;stop-opacity:1"/>
   <stop offset="1" style="stop-color:#2ba4b1;stop-opacity:1"/>
  </linearGradient>
  <linearGradient id="linearGradient4499-9" gradientUnits="userSpaceOnUse" gradientTransform="matrix(0.5,-0.8660254,0.8660254,0.5,-7.055635,42.01579)" x1="24" x2="48">
   <stop style="stop-color:#2aacc2;stop-opacity:1"/>
   <stop offset="0.5" style="stop-color:#4cc8d4;stop-opacity:1"/>
   <stop offset="1" style="stop-color:#2aacc2;stop-opacity:1"/>
  </linearGradient>
 </defs>
 <g>
  
  
  
 </g>
 <g>
  <path d="m 47,24 C 47,46.703 46.703,47 24,47 1.297,47 1,46.703 1,24 1,1.297 1.297,1 24,1 46.703,1 47,1.297 47,24 z" style="fill:url(#linearGradient3764);fill-opacity:1"/>
 </g>
 <g>
  
 </g>
 <g transform="matrix(1.0833333,0,0,1.0833333,0.64441699,5.9386426)">
  <path d="m 19.273 5.961 c -0.1 0.014 -0.19 0.046 -0.274 0.092 l -4.349 2.504 c -0.723 0.417 -0.778 2.03 -0.236 4.258 -2.378 0.544 -3.932 1.306 -3.932 2.183 l 0 5.02 c 0 0.833 1.361 1.685 3.553 2.329 -0.713 2.319 -0.816 4.04 -0.067 4.475 l 4.347 2.515 c 0.774 0.448 2.359 -0.479 4.168 -2.299 1.808 1.818 3.393 2.744 4.166 2.297 l 4.356 -2.52 c 0.745 -0.431 0.633 -2.156 -0.078 -4.468 2.192 -0.644 3.553 -1.496 3.553 -2.329 l 0 -5.02 c 0 -0.868 -1.552 -1.638 -3.929 -2.181 0.542 -2.228 0.485 -3.84 -0.238 -4.257 l -4.356 -2.511 c -0.693 -0.4 -1.979 0.385 -3.476 1.911 -1.323 -1.348 -2.473 -2.102 -3.211 -1.999" style="fill:#000;opacity:0.1;fill-opacity:1;stroke:none"/>
  <path d="M 26.652,14.03 C 23.338,8.29 19.489,4.309 18.054,5.138 c -0.997,0.576 -0.628,3.391 0.84,6.94 1.044,1.328 2.201,2.826 3.212,4.578 1.01,1.751 1.731,3.503 2.359,5.07 2.339,3.045 4.593,4.773 5.59,4.197 1.435,-0.828 -0.088,-6.153 -3.402,-11.892 z" style="fill:url(#linearGradient4360);opacity:1;fill-opacity:1;stroke:none"/>
  <path d="m 16.467 14.03 c -3.314 5.74 -4.837 11.06 -3.402 11.892 0.997 0.576 3.251 -1.152 5.59 -4.197 0.628 -1.568 1.347 -3.319 2.359 -5.07 1.01 -1.751 2.168 -3.25 3.212 -4.578 1.468 -3.548 1.837 -6.364 0.84 -6.94 -1.435 -0.828 -5.284 3.153 -8.598 8.892 z" style="fill:url(#linearGradient4501-5);opacity:1;fill-opacity:1;stroke:none"/>
  <path d="m 21.559 11.1 c -6.627 0 -12 1.343 -12 3 0 1.151 2.623 2.339 6.43 2.842 1.672 -0.24 3.548 -0.592 5.57 -0.592 2.02 0 3.899 0.352 5.57 0.592 3.807 -0.503 6.43 -1.691 6.43 -2.842 0 -1.657 -5.373 -3 -12 -3 z" style="fill:url(#linearGradient4438-4);opacity:1;fill-opacity:1;stroke:none"/>
  <path d="m 18.1,5.11 -4.373,2.525 c -1.435,0.828 -0.258,6.353 3.055,12.09 3.314,5.74 7.51,9.521 8.945,8.692 L 30.1,25.892 C 28.665,26.72 24.816,22.739 21.502,17 18.188,11.26 16.665,5.94 18.1,5.108" style="fill:url(#linearGradient4362);opacity:1;fill-opacity:1;stroke:none"/>
  <path d="m 9.559 14.05 0 5.05 c 0 1.657 5.373 3.4 12 3.4 6.627 0 12 -1.743 12 -3.4 l 0 -5.05 c 0 1.657 -5.373 3 -12 3 -6.627 0 -12 -1.343 -12 -3 z" style="fill:url(#linearGradient4428-9);opacity:1;fill-opacity:1;stroke:none"/>
  <path d="m 13.02,25.895 4.373,2.525 c 1.435,0.828 5.631,-2.953 8.945,-8.692 3.314,-5.74 4.49,-11.264 3.055,-12.09 L 25.02,5.113 c 1.435,0.828 -0.088,6.153 -3.402,11.892 -3.314,5.74 -7.163,9.721 -8.598,8.892 z" style="fill:url(#linearGradient4499-9);opacity:1;fill-opacity:1;stroke:none"/>
 </g>
</svg>
