<svg viewBox="0 0 48 48" xmlns="http://www.w3.org/2000/svg" xmlns:xlink="http://www.w3.org/1999/xlink">
  <linearGradient id="a" gradientTransform="matrix(0 -1 1 0 -.0000015 47.999998)" gradientUnits="userSpaceOnUse" x1="1" x2="47">
    <stop offset="0" stop-color="#e4e4e4"/>
    <stop offset="1" stop-color="#eee"/>
  </linearGradient>
  <linearGradient id="b" gradientTransform="matrix(.5 .8660254 -.8660254 .5 14.174281 -20.338035)" gradientUnits="userSpaceOnUse" x1="24" x2="48">
    <stop offset="0" stop-color="#096473"/>
    <stop offset=".5" stop-color="#074853"/>
    <stop offset="1" stop-color="#095e6d"/>
  </linearGradient>
  <linearGradient id="c" gradientTransform="matrix(.5 -.8660254 .8660254 .5 -7.055635 42.01579)" gradientUnits="userSpaceOnUse" x1="24" x2="48">
    <stop offset="0" stop-color="#0b8195"/>
    <stop offset=".5" stop-color="#075361"/>
    <stop offset="1" stop-color="#0b879b"/>
  </linearGradient>
  <linearGradient id="d" gradientTransform="translate(-14.440676 4.7257821)" gradientUnits="userSpaceOnUse" x1="24" x2="48">
    <stop offset="0" stop-color="#0a788c"/>
    <stop offset=".5" stop-color="#0d91a7"/>
    <stop offset="1" stop-color="#0a7486"/>
  </linearGradient>
  <linearGradient id="e" gradientTransform="matrix(.5 .8660254 -.8660254 .5 14.174281 -20.338035)" gradientUnits="userSpaceOnUse" x1="24" x2="48">
    <stop offset="0" stop-color="#2cadc0"/>
    <stop offset=".5" stop-color="#238a95"/>
    <stop offset="1" stop-color="#2594a3"/>
  </linearGradient>
  <linearGradient id="f" gradientTransform="translate(-14.440676 4.7257821)" gradientUnits="userSpaceOnUse" x1="24" x2="48">
    <stop offset="0" stop-color="#2bb0c9"/>
    <stop offset=".5" stop-color="#28a6bc"/>
    <stop offset="1" stop-color="#2ba4b1"/>
  </linearGradient>
  <linearGradient id="g" gradientTransform="matrix(.5 -.8660254 .8660254 .5 -7.055635 42.01579)" gradientUnits="userSpaceOnUse" x1="24" x2="48">
    <stop offset="0" stop-color="#2aacc2"/>
    <stop offset=".5" stop-color="#4cc8d4"/>
    <stop offset="1" stop-color="#2aacc2"/>
  </linearGradient>
  <path d="m47 24c0 22.703-.297 23-23 23-22.703 0-23-.297-23-23 0-22.703.297-23 23-23 22.703 0 23 .297 23 23z" fill="url(#a)"/>
  <g transform="matrix(1.0833333 0 0 1.0833333 .64441699 5.9386426)">
    <path d="m19.273 5.961c-.1.014-.19.046-.274.092l-4.349 2.504c-.723.417-.778 2.03-.236 4.258-2.378.544-3.932 1.306-3.932 2.183v5.02c0 .833 1.361 1.685 3.553 2.329-.713 2.319-.816 4.04-.067 4.475l4.347 2.515c.774.448 2.359-.479 4.168-2.299 1.808 1.818 3.393 2.744 4.166 2.297l4.356-2.52c.745-.431.633-2.156-.078-4.468 2.192-.644 3.553-1.496 3.553-2.329v-5.02c0-.868-1.552-1.638-3.929-2.181.542-2.228.485-3.84-.238-4.257l-4.356-2.511c-.693-.4-1.979.385-3.476 1.911-1.323-1.348-2.473-2.102-3.211-1.999" opacity=".1"/>
    <path d="m26.652 14.03c-3.314-5.74-7.163-9.721-8.598-8.892-.997.576-.628 3.391.84 6.94 1.044 1.328 2.201 2.826 3.212 4.578 1.01 1.751 1.731 3.503 2.359 5.07 2.339 3.045 4.593 4.773 5.59 4.197 1.435-.828-.088-6.153-3.402-11.892z" fill="url(#b)"/>
    <path d="m16.467 14.03c-3.314 5.74-4.837 11.06-3.402 11.892.997.576 3.251-1.152 5.59-4.197.628-1.568 1.347-3.319 2.359-5.07 1.01-1.751 2.168-3.25 3.212-4.578 1.468-3.548 1.837-6.364.84-6.94-1.435-.828-5.284 3.153-8.598 8.892z" fill="url(#c)"/>
    <path d="m21.559 11.1c-6.627 0-12 1.343-12 3 0 1.151 2.623 2.339 6.43 2.842 1.672-.24 3.548-.592 5.57-.592 2.02 0 3.899.352 5.57.592 3.807-.503 6.43-1.691 6.43-2.842 0-1.657-5.373-3-12-3z" fill="url(#d)"/>
    <path d="m18.1 5.11l-4.373 2.525c-1.435.828-.258 6.353 3.055 12.09 3.314 5.74 7.51 9.521 8.945 8.692l4.373-2.525c-1.435.828-5.284-3.153-8.598-8.892-3.314-5.74-4.837-11.06-3.402-11.892" fill="url(#e)"/>
    <path d="m9.559 14.05v5.05c0 1.657 5.373 3.4 12 3.4 6.627 0 12-1.743 12-3.4v-5.05c0 1.657-5.373 3-12 3-6.627 0-12-1.343-12-3z" fill="url(#f)"/>
    <path d="m13.02 25.895l4.373 2.525c1.435.828 5.631-2.953 8.945-8.692 3.314-5.74 4.49-11.264 3.055-12.09l-4.373-2.525c1.435.828-.088 6.153-3.402 11.892-3.314 5.74-7.163 9.721-8.598 8.892z" fill="url(#g)"/>
  </g>
</svg>
