<svg xmlns="http://www.w3.org/2000/svg" viewBox="0 0 48 48">
 <defs>
  <linearGradient id="linearGradient3764" x1="1" x2="47" gradientUnits="userSpaceOnUse" gradientTransform="matrix(0,-1,1,0,-1.5e-6,47.999998)">
   <stop style="stop-color:#58b1b6;stop-opacity:1"/>
   <stop offset="1" style="stop-color:#66b6bc;stop-opacity:1"/>
  </linearGradient>
 </defs>
 <g>
  
  
  
 </g>
 <g>
  <path d="m 47,24 C 47,46.703 46.703,47 24,47 1.297,47 1,46.703 1,24 1,1.297 1.297,1 24,1 46.703,1 47,1.297 47,24 z" style="fill:url(#linearGradient3764);fill-opacity:1"/>
 </g>
 <g>
  <g>
   <g transform="translate(1,1)">
    <g style="opacity:0.1">
     <!-- color: #66b6bc -->
    </g>
   </g>
  </g>
 </g>
 <g>
  <g>
   <!-- color: #66b6bc -->
   <g>
    <path d="m 16 13 c -0.554 0 -1 0.446 -1 1 l 0 22 c 0 0.554 0.446 1 1 1 l 18 0 c 0.554 0 1 -0.446 1 -1 l 0 -22 c 0 -0.554 -0.446 -1 -1 -1 l -18 0 z m 0 1 18 0 0 17.82 l -5 -8.82 -3.377 4.643 -3.623 -6.643 -6 11 0 -18 m 13.5 2 c -1.383 0 -2.5 1.121 -2.5 2.5 0 1.379 1.117 2.5 2.5 2.5 1.379 0 2.5 -1.121 2.5 -2.5 0 -1.379 -1.121 -2.5 -2.5 -2.5" style="fill:#000;opacity:0.1;fill-opacity:1;stroke:none;fill-rule:nonzero"/>
   </g>
  </g>
 </g>
 <g>
  
 </g>
 <g>
  <path d="M 28.5 15 C 27.117 15 26 16.121 26 17.5 C 26 18.879 27.117 20 28.5 20 C 29.879 20 31 18.879 31 17.5 C 31 16.121 29.879 15 28.5 15 z " style="fill:#edb14c;fill-opacity:1;stroke:none;fill-rule:nonzero"/>
  <path d="m 28 22 l -4 5.5 l 3 4.5 l 6.102 -1 l -5.102 -9 z" style="fill:#212c3c;fill-opacity:1;stroke:none;fill-rule:nonzero"/>
  <path d="m 21 20 l -6 11 l 6 1 l 6 -1 l -6 -11 z" style="fill:#3c424c;fill-opacity:1;stroke:none;fill-rule:nonzero"/>
  <path d="m 15 12 c -0.554 0 -1 0.446 -1 1 l 0 22 c 0 0.554 0.446 1 1 1 l 18 0 c 0.554 0 1 -0.446 1 -1 l 0 -22 c 0 -0.554 -0.446 -1 -1 -1 l -18 0 z m 0 1 18 0 0 18 -18 0 0 -18 z" style="fill:#f9f9f9;opacity:1;fill-opacity:1;stroke:none"/>
 </g>
</svg>
