<svg viewBox="0 0 48 48" xmlns="http://www.w3.org/2000/svg" xmlns:xlink="http://www.w3.org/1999/xlink">
  <linearGradient id="a" gradientTransform="matrix(0 -1 1 0 -.0000015 47.999998)" gradientUnits="userSpaceOnUse" x1="1" x2="47">
    <stop offset="0" stop-color="#9db6d7"/>
    <stop offset="1" stop-color="#acc1dd"/>
  </linearGradient>
  <path d="m47 24c0 22.703-.297 23-23 23-22.703 0-23-.297-23-23 0-22.703.297-23 23-23 22.703 0 23 .297 23 23z" fill="url(#a)"/>
  <g opacity=".1" transform="translate(1 1)">
    <path d="m24 16c-6.629 0-12 3.582-12 8 0 4.418 5.371 8 12 8 6.629 0 12-3.582 12-8 0-4.418-5.371-8-12-8m1.5 2c5.246 0 9.5 2.688 9.5 6 0 3.313-4.254 6-9.5 6-5.246 0-9.5-2.688-9.5-6 0-3.313 4.254-6 9.5-6m0 0"/>
    <path d="m24.5 17c-5.801 0-10.5 3.133-10.5 7 0 3.867 4.699 7 10.5 7 5.172 0 9.441-2.5 10.313-5.781-.887 2.734-4.723 4.781-9.313 4.781-5.246 0-9.5-2.688-9.5-6 0-3.313 4.254-6 9.5-6 4.59 0 8.426 2.047 9.313 4.781-.867-3.281-5.141-5.781-10.313-5.781m10.313 5.781c.063.195.094.391.125.594-.027-.203-.074-.395-.125-.594m0 2.438c.051-.199.098-.391.125-.594-.031.203-.063.398-.125.594m0 0"/>
    <path d="m20.992 20v14.996h3v-5h1l3 5h3l-3-5-.219-.344c1.875-.719 3.215-2.523 3.215-4.656 0-2.758-2.238-4.996-5-4.996m-1.996 3h1.996c1.105 0 2 .895 2 1.996 0 1.109-.898 2-2 2h-1.996v-4m0 .004"/>
    <path d="m22 19v14.996h3v-4.996h1l3 4.996h3l-3-4.996-.223-.344c1.875-.723 3.219-2.527 3.219-4.656 0-2.762-2.238-5-5-5m-2 3h2c1.105 0 2 .898 2 2 0 1.105-.898 1.996-2 1.996h-2v-4m0 .004"/>
  </g>
  <path d="m24 16c-6.629 0-12 3.582-12 8 0 4.418 5.371 8 12 8 6.629 0 12-3.582 12-8 0-4.418-5.371-8-12-8m1.5 2c5.246 0 9.5 2.688 9.5 6 0 3.313-4.254 6-9.5 6-5.246 0-9.5-2.688-9.5-6 0-3.313 4.254-6 9.5-6m0 0" fill="#ececec"/>
  <path d="m24.5 17c-5.801 0-10.5 3.133-10.5 7 0 3.867 4.699 7 10.5 7 5.172 0 9.441-2.5 10.313-5.781-.887 2.734-4.723 4.781-9.313 4.781-5.246 0-9.5-2.688-9.5-6 0-3.313 4.254-6 9.5-6 4.59 0 8.426 2.047 9.313 4.781-.867-3.281-5.141-5.781-10.313-5.781m10.313 5.781c.063.195.094.391.125.594-.027-.203-.074-.395-.125-.594m0 2.438c.051-.199.098-.391.125-.594-.031.203-.063.398-.125.594m0 0" fill="#535453"/>
  <path d="m20.992 20v14.996h3v-5h1l3 5h3l-3-5-.219-.344c1.875-.719 3.215-2.523 3.215-4.656 0-2.758-2.238-4.996-5-4.996m-1.996 3h1.996c1.105 0 2 .895 2 1.996 0 1.109-.898 2-2 2h-1.996v-4m0 .004" fill="#ececec"/>
  <path d="m22 19v14.996h3v-4.996h1l3 4.996h3l-3-4.996-.223-.344c1.875-.723 3.219-2.527 3.219-4.656 0-2.762-2.238-5-5-5m-2 3h2c1.105 0 2 .898 2 2 0 1.105-.898 1.996-2 1.996h-2v-4m0 .004" fill="#535453"/>
</svg>
