<svg viewBox="0 0 48 48" xmlns="http://www.w3.org/2000/svg" xmlns:xlink="http://www.w3.org/1999/xlink">
  <linearGradient id="a" gradientTransform="matrix(0 -1 1 0 -.0000015 47.999998)" gradientUnits="userSpaceOnUse" x1="1" x2="47">
    <stop offset="0" stop-color="#053d5f"/>
    <stop offset="1" stop-color="#064972"/>
  </linearGradient>
  <path d="m47 24c0 22.703-.297 23-23 23-22.703 0-23-.297-23-23 0-22.703.297-23 23-23 22.703 0 23 .297 23 23z" fill="url(#a)"/>
  <path d="m37 24c0 4.418-5.373 8-12 8-1 0-11 3-11 3l2.515-5.343c-2.172-1.448-3.515-3.448-3.515-5.657 0-4.418 5.373-8 12-8 6.627 0 12 3.582 12 8z" fill="#f9f9f9"/>
  <path d="m17 13c-2.281 0-4 1-4 1 1.653 1.653 2.607 3.314 2.688 5.531a13 9 0 0 0-2.688 5.469 13 9 0 0 0  2.688 5.463c-.079 2.22-1.033 3.883-2.688 5.537 0 0 1.719 1 4 1 2.951 0 5.65-1.934 7.03-3.111a13 9 0 0 0 1.971.111 13 9 0 0 0  13-9 13 9 0 0 0-13-9 13 9 0 0 0-1.965.115c-1.377-1.176-4.08-3.115-7.04-3.115m9 5a11 7 0 0 1 11 7 11 7 0 0 1-11 7 11 7 0 0 1-2.686-.221c-1.372 1.161-4.07 3.221-6.01 3.221-.569 0-.9-.1-.9-.1 1.185-1.173 1.621-3.308 1.311-5.313a11 7 0 0 1-2.711-4.588 11 7 0 0 1  11-7m-5 5a2 2 0 0 0-2 2 2 2 0 0 0  2 2 2 2 0 0 0  2-2 2 2 0 0 0-2-2zm5 0a2 2 0 0 0-2 2 2 2 0 0 0  2 2 2 2 0 0 0  2-2 2 2 0 0 0-2-2zm5 0a2 2 0 0 0-2 2 2 2 0 0 0  2 2 2 2 0 0 0  2-2 2 2 0 0 0-2-2z" opacity=".1"/>
  <path d="m16 12c-2.281 0-4 1-4 1 1.653 1.653 2.607 3.314 2.688 5.531a13 9 0 0 0-2.688 5.469 13 9 0 0 0  2.688 5.463c-.079 2.22-1.033 3.883-2.688 5.537 0 0 1.719 1 4 1 2.951 0 5.65-1.934 7.03-3.111a13 9 0 0 0 1.971.111 13 9 0 0 0  13-9 13 9 0 0 0-13-9 13 9 0 0 0-1.965.115c-1.377-1.176-4.08-3.115-7.04-3.115m9 5a11 7 0 0 1 11 7 11 7 0 0 1-11 7 11 7 0 0 1-2.686-.221c-1.372 1.161-4.07 3.221-6.01 3.221-.569 0-.9-.1-.9-.1 1.185-1.173 1.621-3.308 1.311-5.313a11 7 0 0 1-2.711-4.588 11 7 0 0 1  11-7m-5 5a2 2 0 0 0-2 2 2 2 0 0 0  2 2 2 2 0 0 0  2-2 2 2 0 0 0-2-2zm5 0a2 2 0 0 0-2 2 2 2 0 0 0  2 2 2 2 0 0 0  2-2 2 2 0 0 0-2-2zm5 0a2 2 0 0 0-2 2 2 2 0 0 0  2 2 2 2 0 0 0  2-2 2 2 0 0 0-2-2z" fill="#d95b60"/>
</svg>
