<svg xmlns="http://www.w3.org/2000/svg" viewBox="0 0 48 48">
 <defs>
  <linearGradient id="linearGradient3764" x1="1" x2="47" gradientUnits="userSpaceOnUse" gradientTransform="matrix(0,-1,1,0,-1.5e-6,47.999998)">
   <stop style="stop-color:#053d5f;stop-opacity:1"/>
   <stop offset="1" style="stop-color:#064972;stop-opacity:1"/>
  </linearGradient>
 </defs>
 <g>
  
  
  
 </g>
 <g>
  <path d="m 47,24 C 47,46.703 46.703,47 24,47 1.297,47 1,46.703 1,24 1,1.297 1.297,1 24,1 46.703,1 47,1.297 47,24 z" style="fill:url(#linearGradient3764);fill-opacity:1"/>
 </g>
 <g>
  
 </g>
 <path d="m 37 24 c 0 4.418 -5.373 8 -12 8 -1 0 -11 3 -11 3 l 2.515 -5.343 c -2.172 -1.448 -3.515 -3.448 -3.515 -5.657 c 0 -4.418 5.373 -8 12 -8 6.627 0 12 3.582 12 8 z" style="fill:#f9f9f9;opacity:1;fill-opacity:1;stroke:none"/>
 <path d="m 17 13 c -2.281 0 -4 1 -4 1 1.653 1.653 2.607 3.314 2.688 5.531 a 13 9 0 0 0 -2.688 5.469 13 9 0 0 0 2.688 5.463 c -0.079 2.22 -1.033 3.883 -2.688 5.537 c 0 0 1.719 1 4 1 2.951 0 5.65 -1.934 7.03 -3.111 a 13 9 0 0 0 1.971 0.111 13 9 0 0 0 13 -9 13 9 0 0 0 -13 -9 13 9 0 0 0 -1.965 0.115 c -1.377 -1.176 -4.08 -3.115 -7.04 -3.115 m 9 5 a 11 7 0 0 1 11 7 11 7 0 0 1 -11 7 11 7 0 0 1 -2.686 -0.221 c -1.372 1.161 -4.07 3.221 -6.01 3.221 -0.569 0 -0.9 -0.1 -0.9 -0.1 c 1.185 -1.173 1.621 -3.308 1.311 -5.313 a 11 7 0 0 1 -2.711 -4.588 11 7 0 0 1 11 -7 m -5 5 a 2 2 0 0 0 -2 2 2 2 0 0 0 2 2 2 2 0 0 0 2 -2 2 2 0 0 0 -2 -2 z m 5 0 a 2 2 0 0 0 -2 2 2 2 0 0 0 2 2 2 2 0 0 0 2 -2 2 2 0 0 0 -2 -2 z m 5 0 a 2 2 0 0 0 -2 2 2 2 0 0 0 2 2 2 2 0 0 0 2 -2 2 2 0 0 0 -2 -2 z" style="fill:#000;opacity:0.1;fill-opacity:1;stroke:none"/>
 <path d="m 16 12 c -2.281 0 -4 1 -4 1 1.653 1.653 2.607 3.314 2.688 5.531 a 13 9 0 0 0 -2.688 5.469 13 9 0 0 0 2.688 5.463 c -0.079 2.22 -1.033 3.883 -2.688 5.537 c 0 0 1.719 1 4 1 2.951 0 5.65 -1.934 7.03 -3.111 a 13 9 0 0 0 1.971 0.111 13 9 0 0 0 13 -9 13 9 0 0 0 -13 -9 13 9 0 0 0 -1.965 0.115 c -1.377 -1.176 -4.08 -3.115 -7.04 -3.115 m 9 5 a 11 7 0 0 1 11 7 11 7 0 0 1 -11 7 11 7 0 0 1 -2.686 -0.221 c -1.372 1.161 -4.07 3.221 -6.01 3.221 -0.569 0 -0.9 -0.1 -0.9 -0.1 c 1.185 -1.173 1.621 -3.308 1.311 -5.313 a 11 7 0 0 1 -2.711 -4.588 11 7 0 0 1 11 -7 m -5 5 a 2 2 0 0 0 -2 2 2 2 0 0 0 2 2 2 2 0 0 0 2 -2 2 2 0 0 0 -2 -2 z m 5 0 a 2 2 0 0 0 -2 2 2 2 0 0 0 2 2 2 2 0 0 0 2 -2 2 2 0 0 0 -2 -2 z m 5 0 a 2 2 0 0 0 -2 2 2 2 0 0 0 2 2 2 2 0 0 0 2 -2 2 2 0 0 0 -2 -2 z" style="fill:#d95b60;opacity:1;fill-opacity:1;stroke:none"/>
</svg>
