<svg viewBox="0 0 48 48" xmlns="http://www.w3.org/2000/svg" xmlns:xlink="http://www.w3.org/1999/xlink">
  <linearGradient id="a">
    <stop offset="0" stop-color="#d6e7fa"/>
    <stop offset="1" stop-color="#c4ddf8"/>
  </linearGradient>
  <linearGradient id="b">
    <stop offset="0" stop-color="#ccf799"/>
    <stop offset="1" stop-color="#c3f686"/>
  </linearGradient>
  <linearGradient id="c" gradientTransform="matrix(0 -1 1 0 -.0000015 47.999998)" gradientUnits="userSpaceOnUse" x1="1" x2="47">
    <stop offset="0" stop-color="#333"/>
    <stop offset="1" stop-color="#3d3d3d"/>
  </linearGradient>
  <radialGradient id="d" cx="-31.5" cy="-27" gradientUnits="userSpaceOnUse" r="1.5" xlink:href="#a"/>
  <radialGradient id="e" cx="-31.5" cy="21" gradientUnits="userSpaceOnUse" r="1.5" xlink:href="#a"/>
  <radialGradient id="f" cx="16.5" cy="21" gradientUnits="userSpaceOnUse" r="1.5" xlink:href="#a"/>
  <radialGradient id="g" cx="-47.94" cy="0" gradientUnits="userSpaceOnUse" r="1.5" xlink:href="#b"/>
  <radialGradient id="h" cx="-31.5" cy="27" gradientUnits="userSpaceOnUse" r="1.5" xlink:href="#b"/>
  <radialGradient id="i" cx="-38" cy="24" gradientUnits="userSpaceOnUse" r="1.5" xlink:href="#b"/>
  <radialGradient id="j" cx="-13.999" cy="33.941" gradientUnits="userSpaceOnUse" r="1.5" xlink:href="#b"/>
  <radialGradient id="k" cx="10" cy="24" gradientUnits="userSpaceOnUse" r="1.5" xlink:href="#b"/>
  <radialGradient id="l" cx="16.5" cy="27" gradientUnits="userSpaceOnUse" r="1.5" xlink:href="#b"/>
  <path d="m47 24c0 22.703-.297 23-23 23-22.703 0-23-.297-23-23 0-22.703.297-23 23-23 22.703 0 23 .297 23 23z" fill="url(#c)"/>
  <path d="m25 9.5a1.5 1.5 0 0 0-1.5 1.5 1.5 1.5 0 0 0  .455 1.074l-1.816 3.934a1.5 1.5 0 0 0-.139-.008 1.5 1.5 0 0 0-1.162.553l-4.24-1.514a1.5 1.5 0 0 0-.436-.998 1.5 1.5 0 0 0-2.121 0 1.5 1.5 0 0 0  0 2.121 1.5 1.5 0 0 0  1 .438l1.512 4.238a1.5 1.5 0 0 0-.553 1.162h-1l-1.123.13-3.877.47v4.801l3.873.465a11.5 11.5 0 0 0 1.234 2.975l-2.41 3.07 3.393 3.393 3.07-2.41a11.5 11.5 0 0 0 2.975 1.23l.465 3.876h4.801l.465-3.873a11.5 11.5 0 0 0 2.975-1.234l3.07 2.41 3.393-3.393-2.41-3.07-.699-.891-.77-.77a1.5 1.5 0 0 0  .575-1.179 1.5 1.5 0 0 0-.008-.139l3.932-1.821a1.5 1.5 0 0 0 1.076.46 1.5 1.5 0 0 0  1.5-1.5 1.5 1.5 0 0 0-1.5-1.5 1.5 1.5 0 0 0-1.074.455l-3.934-1.815a1.5 1.5 0 0 0  .008-.14 1.5 1.5 0 0 0-.553-1.162l1.514-4.24a1.5 1.5 0 0 0  .998-.436 1.5 1.5 0 0 0  0-2.121 1.5 1.5 0 0 0-2.121 0 1.5 1.5 0 0 0-.438 1l-4.238 1.512a1.5 1.5 0 0 0-1.162-.553 1.5 1.5 0 0 0-.139.01l-1.811-3.94a1.5 1.5 0 0 0  .45-1.07 1.5 1.5 0 0 0-1.5-1.5m-.139 2.992a1.5 1.5 0 0 0  .139.008 1.5 1.5 0 0 0  .139-.008l1.814 3.934a1.5 1.5 0 0 0-.365.574h-3.176a1.5 1.5 0 0 0-.367-.572zm-8.559 3.504l4.197 1.5a1.5 1.5 0 0 0 0 .004 1.5 1.5 0 0 0  .148.645l-2.504 2.504a1.5 1.5 0 0 0-.643-.149 1.5 1.5 0 0 0-.004 0l-1.5-4.197a1.5 1.5 0 0 0  .166-.141 1.5 1.5 0 0 0  .141-.166zm17.395 0a1.5 1.5 0 0 0  .141.166 1.5 1.5 0 0 0  .166.141l-1.5 4.197a1.5 1.5 0 0 0-.004 0 1.5 1.5 0 0 0-.645.148l-2.503-2.508a1.5 1.5 0 0 0  .148-.64 1.5 1.5 0 0 0  0-.004zm-10.285 2.004h3.176a1.5 1.5 0 0 0 1.412 1 1.5 1.5 0 0 0  .645-.148l2.504 2.504a1.5 1.5 0 0 0-.149.644 1.5 1.5 0 0 0  1 1.412v3.176a1.5 1.5 0 0 0-1 1.412 1.5 1.5 0 0 0  .354.965 7.5 7.5 0 0 1-6.354 3.535 7.5 7.5 0 0 1-7.5-7.5 7.5 7.5 0 0 1  .158-1.51 1.5 1.5 0 0 0  1.342-1.49 1.5 1.5 0 0 0-.148-.645l2.504-2.504a1.5 1.5 0 0 0  .644.149 1.5 1.5 0 0 0  1.412-1m10.16 5.04l3.936 1.816a1.5 1.5 0 0 0-.008.144 1.5 1.5 0 0 0  .008.139l-3.934 1.814a1.5 1.5 0 0 0-.574-.365v-3.176a1.5 1.5 0 0 0  .572-.367z" fill-opacity=".098"/>
  <g transform="matrix(-1 0 0 -1 48 48)">
    <path d="m16.484 20.5a.5.5 0 0 0-.193.047l-6.5 3a .5.5 0 0 0 0 .906l6.084 2.807-2.346 6.572a.5.5 0 0 0  .639.639l6.57-2.346 2.809 6.084a.5.5 0 0 0  .906 0l2.809-6.084 6.57 2.346a.5.5 0 0 0  .639-.639l-2.5-7a .5.5 0 0 0-.821-.186l-4.357 4.354h-5.583l-4.21-4.207v-5.793a.5.5 0 0 0-.516-.5m-.484 1.281v4.439l-4.809-2.22zm.705 6.131l3.383 3.383-5.262 1.879zm14.59 0l1.879 5.262-5.262-1.879zm-9.514 4.088h4.439l-2.22 4.809z" fill="#909090" fill-rule="evenodd"/>
    <circle cx="16.5" cy="27" fill="url(#l)" r="1.5"/>
    <circle cx="10" cy="24" fill="url(#k)" r="1.5"/>
    <circle cx="-13.999" cy="33.941" fill="url(#j)" r="1.5" transform="matrix(.70710678 -.70710678 .70710678 .70710678 0 0)"/>
    <circle cx="-31.5" cy="21" fill="url(#e)" r="1.5" transform="rotate(-90)"/>
    <circle cx="-31.5" cy="27" fill="url(#h)" r="1.5" transform="rotate(-90)"/>
    <path d="m21.6 9l-.465 3.873a11.5 11.5 0 0 0-2.975 1.234l-3.07-2.41-3.393 3.393 2.41 3.07.699.891 2.217 2.217a7.5 7.5 0 0 1 6.977-4.768 7.5 7.5 0 0 1  7.5 7.5 7.5 7.5 0 0 1-.631 3h3.131l1.123-.135 3.877-.465v-4.801l-3.873-.465a11.5 11.5 0 0 0-1.234-2.975l2.41-3.07-3.393-3.393-3.07 2.41a11.5 11.5 0 0 0-2.975-1.23l-.465-3.877h-4.801" fill="#a6a6a6"/>
    <circle cx="16.5" cy="21" fill="url(#f)" r="1.5"/>
    <circle cx="-38" cy="24" fill="url(#i)" r="1.5" transform="rotate(-90)"/>
    <circle cx="-47.94" fill="url(#g)" r="1.5" transform="matrix(-.70710678 -.70710678 .70710678 -.70710678 0 0)"/>
    <circle cx="-31.5" cy="-27" fill="url(#d)" r="1.5" transform="scale(-1)"/>
  </g>
</svg>
