<svg viewBox="0 0 48 48" xmlns="http://www.w3.org/2000/svg" xmlns:xlink="http://www.w3.org/1999/xlink">
  <linearGradient id="a" gradientTransform="matrix(0 -1 1 0 -.0000015 47.999998)" gradientUnits="userSpaceOnUse" x1="1" x2="47">
    <stop offset="0" stop-color="#f9bca7"/>
    <stop offset="1" stop-color="#facaba"/>
  </linearGradient>
  <path d="m47 24c0 22.703-.297 23-23 23-22.703 0-23-.297-23-23 0-22.703.297-23 23-23 22.703 0 23 .297 23 23z" fill="url(#a)"/>
  <path d="m20 13c-1.108 0-2 .892-2 2v5h-5.5c-.831 0-1.5.669-1.5 1.5 0 .831.669 1.5 1.5 1.5h7.313l3.588 10-.826 2.18c-.215.595-.922.82-1.574.82h-2v3h2c2 0 3.679-1.143 4.311-2.891l5-13.11h7.189c.831 0 1.5-.669 1.5-1.5 0-.831-.669-1.5-1.5-1.5h-5.5v-5c0-1.108-.892-2-2-2h-10zm2.434 10h5.133l-2.566 7-2.566-7" opacity=".1"/>
  <path d="m18.1 20l4.305 12-.826 2.18c-.215.595-.923.82-1.575.82h-2v3h2c2 0 3.679-1.143 4.311-2.891l5.763-15.11h-2.773l-3.3 9-3.3-9" fill="#ef5a26"/>
  <rect fill="#ef5a26" height="3" rx="1.5" width="28" x="10" y="19"/>
  <rect fill="#ef5a26" height="9" rx="2" width="14" x="17" y="12"/>
  <path d="m17 17h14v2h-14z" fill="#f9f9f9"/>
</svg>
