<svg xmlns="http://www.w3.org/2000/svg" viewBox="0 0 48 48">
 <defs>
  <linearGradient id="linearGradient4189" y1="47" x2="0" y2="1" gradientUnits="userSpaceOnUse">
   <stop style="stop-color:#708a27;stop-opacity:1"/>
   <stop offset="1" style="stop-color:#708a27;stop-opacity:1"/>
  </linearGradient>
 </defs>
 <g>
  
  
  
 </g>
 <g>
  <path d="m 24 1 c 22.703 0 23 0.297 23 23 c 0 22.703 -0.297 23 -23 23 -22.703 0 -23 -0.297 -23 -23 0 -22.703 0.297 -23 23 -23 z" style="fill:url(#linearGradient4189);fill-opacity:1"/>
 </g>
 <g>
  
 </g>
 <path d="m 15 13 c -1.108 0 -2 0.892 -2 2 l 0 20 c 0 1.108 0.892 2 2 2 l 20 0 c 1.108 0 2 -0.892 2 -2 l 0 -20 c 0 -1.108 -0.892 -2 -2 -2 l -20 0 z m 5.324 4 c 1.13 0.018 2.618 2.08 2.709 3.758 0.05 0.926 -0.257 1.276 -1.4 1.58 -0.845 0.383 -0.973 0.713 -0.748 1.76 0.554 1.331 2.222 3.198 3.914 4.381 0.914 0.46 2.289 1.198 2.713 -0.135 0.34 -0.838 0.664 -1.127 1.291 -1.135 1.74 -0.024 4.234 1.692 4.197 2.889 -0.019 0.612 -1.032 1.894 -1.885 2.387 -1.112 0.643 -3.047 0.827 -5.24 -0.289 -4.491 -2.283 -8.998 -6.393 -8.873 -11.564 0.061 -1.266 0.449 -2.049 1.348 -2.721 0.673 -0.504 1.567 -0.916 1.975 -0.91 z" style="fill:#000;opacity:0.1;fill-opacity:1;stroke:none"/>
 <path d="m 14 12 c -1.108 0 -2 0.892 -2 2 l 0 20 c 0 1.108 0.892 2 2 2 l 20 0 c 1.108 0 2 -0.892 2 -2 l 0 -20 c 0 -1.108 -0.892 -2 -2 -2 l -20 0 z m 5.324 4 c 1.13 0.018 2.618 2.08 2.709 3.758 c 0.05 0.926 -0.257 1.276 -1.4 1.58 c -0.845 0.383 -0.973 0.713 -0.748 1.76 c 0.554 1.331 2.222 3.198 3.914 4.381 c 0.914 0.46 2.289 1.198 2.713 -0.135 c 0.34 -0.838 0.664 -1.127 1.291 -1.135 c 1.74 -0.024 4.234 1.692 4.197 2.889 c -0.019 0.612 -1.032 1.894 -1.885 2.387 c -1.112 0.643 -3.047 0.827 -5.24 -0.289 c -4.491 -2.283 -8.998 -6.393 -8.873 -11.564 c 0.061 -1.266 0.449 -2.049 1.348 -2.721 c 0.673 -0.504 1.567 -0.916 1.975 -0.91 z" style="fill:#bce742;opacity:1;fill-opacity:1;stroke:none"/>
</svg>
