<svg viewBox="0 0 48 48" xmlns="http://www.w3.org/2000/svg" xmlns:xlink="http://www.w3.org/1999/xlink">
  <linearGradient id="a" gradientTransform="matrix(0 -1 1 0 -.0000015 47.999998)" gradientUnits="userSpaceOnUse" x1="1" x2="47">
    <stop offset="0" stop-color="#0cbe82"/>
    <stop offset="1" stop-color="#0dd18f"/>
  </linearGradient>
  <path d="m47 24c0 22.703-.297 23-23 23-22.703 0-23-.297-23-23 0-22.703.297-23 23-23 22.703 0 23 .297 23 23z" fill="url(#a)"/>
  <path d="m24.84 12c-2.909 0-5.333 1.949-5.889 4.535-.213.811-.719 1.357-2.112 1.463l.014.007c-2.668.33-4.84 2.707-4.84 5.63 0 1.814.921 3.476 2.409 4.528.638.563.964 1.346.457 2.934l.028-.021c-.071.351-.124.705-.124 1.063 0 3.132 2.689 5.669 6.01 5.669.599 0 1.187-.103 1.75-.266l-.025.028c.071-.028.113-.039.181-.064.096-.032.191-.067.287-.103 1.244-.468 1.889-.379 3.38.174.705.269 1.463.418 2.236.418 3.32 0 6.01-2.541 6.01-5.673 0-.397-.06-.79-.149-1.173l.011.011c-.117-1.382.319-2.161 1.439-2.983h-.007c1.3-1.052 2.105-2.597 2.105-4.287 0-2.845-1.658-5.159-5.425-5.591-1.24-.39-1.552-.726-1.878-1.85-.592-2.544-2.994-4.454-5.871-4.45m.174 8.756c.255 0 .51.099.709.294 0 0 .535.78.95.95.415.17 1.343 0 1.343 0 .553 0 .999.446.999.999 0 0-.17.928 0 1.343.17.415.95.95.95.95.393.393.393 1.024 0 1.414 0 0-.78.535-.95.95-.17.415 0 1.343 0 1.343 0 .553-.446.999-.999.999 0 0-.928-.17-1.343 0-.415.17-.95.95-.95.95-.393.393-1.024.393-1.414 0 0 0-.535-.78-.95-.95-.415-.17-1.343 0-1.343 0-.553 0-.999-.446-.999-.999 0 0 .17-.928 0-1.343-.17-.415-.95-.95-.95-.95-.393-.393-.393-1.024 0-1.414 0 0 .78-.535.95-.95.17-.415 0-1.343 0-1.343 0-.553.446-.999.999-.999 0 0 .928.17 1.343 0 .415-.17.95-.95.95-.95.195-.195.45-.294.709-.294zm0 2.243a3 3 0 0 0-3 3 3 3 0 0 0  3 3 3 3 0 0 0  3-3 3 3 0 0 0-3-3" fill-opacity=".098"/>
  <g transform="matrix(3.543307 0 0 3.543307 .00099982 .0015635)">
    <g fill="#f2f192" transform="matrix(.28222223 0 0 -.28222223 .00000004 13.828889)">
      <path d="m23.826 11c-3.319 0-6.01 2.539-6.01 5.67 0 .154.009.309.023.463-.467-.109-.946-.165-1.428-.166-2.922.033-5.412 2.539-5.412 5.67 0 2.342 1.525 4.443 3.84 5.289-.694.946-1.066 2.068-1.068 3.219 0 3.131 2.69 5.669 6.01 5.67 1.382-.002 2.722-.452 3.793-1.275 1.102.938 2.531 1.458 4.02 1.461 3.321 0 6.01-2.541 6.01-5.674-.002-1.059-.319-2.096-.914-2.994 2.557-.71 4.312-2.925 4.313-5.439 0-3.132-2-5.627-6.613-5.67-.196 0-.393.011-.588.029.024-.193.04-.387.043-.582 0-3.133-2.695-5.671-6.02-5.67m.174 8.756c.256 0 .511.099.707.295 0 0 .536.778.949.949.414.171 1.344 0 1.344 0 .554 0 1 .446 1 1 0 0-.171.93 0 1.344.171.413.949.949.949.949.392.392.392 1.022 0 1.414 0 0-.778.536-.949.949-.171.414 0 1.344 0 1.344 0 .554-.446 1-1 1 0 0-.93-.171-1.344 0-.413.171-.949.949-.949.949-.392.392-1.022.392-1.414 0 0 0-.536-.778-.949-.949-.414-.171-1.344 0-1.344 0-.554 0-1-.446-1-1 0 0 .171-.93 0-1.344-.171-.413-.949-.949-.949-.949-.392-.392-.392-1.022 0-1.414 0 0 .778-.536.949-.949.171-.414 0-1.344 0-1.344 0-.554.446-1 1-1 0 0 .93.171 1.344 0 .413-.171.949-.949.949-.949.196-.196.451-.295.707-.295" transform="matrix(1 0 0 -1 0 49)"/>
      <path d="m33.462 18.836c-.116 1.383.321 2.16 1.439 2.984l-3.318-.602" fill-rule="evenodd"/>
      <path d="m21.508 12.424c1.696.722 2.182.629 4.058-.077l-2.047 2.132z" fill-rule="evenodd"/>
      <path d="m13.867 18.898c.597 1.87.043 2.627-.817 3.219l3.905-.612z" fill-rule="evenodd"/>
      <path d="m15.825 32c1.472.113 1.969.706 2.158 1.594l.66-2.75z" fill-rule="evenodd"/>
      <path d="m29.659 33.664c.409-1.448.627-1.636 2.612-2.18l-3.943-1.427z" fill-rule="evenodd"/>
    </g>
    <circle cx="6.773" cy="7.06" fill="#9f8e6b" r=".847"/>
  </g>
</svg>
