<svg xmlns="http://www.w3.org/2000/svg" viewBox="0 0 48 48">
 <defs>
  <linearGradient id="linearGradient3764" x1="1" x2="47" gradientUnits="userSpaceOnUse" gradientTransform="matrix(0,-1,1,0,-1.5e-6,47.999998)">
   <stop style="stop-color:#575757;stop-opacity:1"/>
   <stop offset="1" style="stop-color:#616161;stop-opacity:1"/>
  </linearGradient>
 </defs>
 <g>
  
  
  
 </g>
 <g>
  <path d="m 47,24 C 47,46.703 46.703,47 24,47 1.297,47 1,46.703 1,24 1,1.297 1.297,1 24,1 46.703,1 47,1.297 47,24 z" style="fill:url(#linearGradient3764);fill-opacity:1"/>
 </g>
 <g>
  <g>
   <g transform="translate(1,1)">
    <g style="opacity:0.1">
     <!-- color: #616161 -->
     <g>
      <path d="m 15.746 15 l -2.742 2.91 l 6.172 5.09 l -6.172 5.094 l 2.742 2.906 l 9.258 -8 l -9.258 -8 z m 9.254 16 l 0 4 l 12 0 l 0 -4 l -12 0 z" transform="translate(-1,-1)" style="fill:#000;fill-opacity:1;stroke:none;fill-rule:nonzero"/>
     </g>
    </g>
   </g>
  </g>
 </g>
 <g>
  <g>
   <!-- color: #616161 -->
   <g>
    <path d="m 14.746 14 l -2.742 2.91 l 6.172 5.09 l -6.172 5.094 l 2.742 2.906 l 9.258 -8 l -9.258 -8 z m 9.254 16 l 0 4 l 12 0 l 0 -4 l -12 0 z" style="fill:#70aaee;fill-opacity:1;stroke:none;fill-rule:nonzero"/>
   </g>
  </g>
 </g>
 <g>
  
 </g>
</svg>
