<svg viewBox="0 0 48 48" xmlns="http://www.w3.org/2000/svg" xmlns:xlink="http://www.w3.org/1999/xlink">
  <linearGradient id="a" gradientTransform="matrix(0 -1 1 0 -.0000015 47.999998)" gradientUnits="userSpaceOnUse" x1="1" x2="47">
    <stop offset="0" stop-color="#575757"/>
    <stop offset="1" stop-color="#616161"/>
  </linearGradient>
  <path d="m47 24c0 22.703-.297 23-23 23-22.703 0-23-.297-23-23 0-22.703.297-23 23-23 22.703 0 23 .297 23 23z" fill="url(#a)"/>
  <path d="m25 10a15 15 0 0 0-15 15 15 15 0 0 0  15 15 15 15 0 0 0  15-15 15 15 0 0 0-15-15m-.5 1h1c .277 0 .5.223.5.5v1c0 .277-.223.5-.5.5h-1c-.28 0-.5-.223-.5-.5v-1c0-.277.22-.5.5-.5m-5.879 1.563c.193-.024.39.066.494.246l.5.865c.139.24.058.545-.182.684l-.867.5c-.24.139-.543.056-.682-.184l-.5-.865c-.139-.24-.058-.545.182-.684l.867-.5c.06-.035.123-.054.188-.063zm12.758 0c .064.008.128.028.188.063l.867.5c.24.139.32.444.182.684l-.5.865c-.139.24-.442.322-.682.184l-.867-.5c-.24-.139-.32-.444-.182-.684l.5-.865c.104-.18.301-.27.494-.246zm-17.758 4.758c.064.008.128.03.188.064l.865.5c.24.139.322.442.184.682l-.5.867c-.139.24-.444.32-.684.182l-.865-.5c-.24-.139-.322-.443-.184-.682l.5-.867c.104-.18.303-.27.496-.246zm22.758 0c .193-.024.392.066.496.246l.5.867c.139.24.056.543-.184.682l-.865.5c-.24.139-.545.058-.684-.182l-.5-.867c-.139-.24-.056-.543.184-.682l.865-.5c.06-.035.123-.056.188-.064zm1.121 5.679h1c .277 0 .5.223.5.5v1c0 .277-.223.5-.5.5h-1c-.28 0-.5-.223-.5-.5v-1c0-.28.22-.5.5-.5m-26 1h1c .277 0 .5.223.5.5v1c0 .277-.223.5-.5.5h-1c-.277 0-.5-.223-.5-.5v-1c0-.28.223-.5.5-.5m25.14 5.455c.064.008.129.028.189.063l.865.5c.24.139.322.444.184.684l-.5.865c-.138.239-.447.322-.687.183l-.865-.5c-.24-.139-.322-.444-.184-.684l.5-.865c.104-.18.301-.27.494-.246zm-22.773.865c.193-.024.39.066.494.246l.5.867c.139.24.056.543-.184.682l-.865.5c-.24.139-.545.058-.684-.182l-.5-.867c-.139-.24-.056-.543.184-.682l.865-.5c.06-.035.125-.056.189-.064zm18.625 4.258c.193-.024.39.068.494.248l.5.865c.139.24.056.545-.184.684l-.865.5c-.247.135-.548.056-.687-.184l-.5-.865c-.139-.24-.056-.545.184-.684l.865-.5c.06-.035.125-.056.189-.064zm-14.11.5c.064.008.128.03.188.064l.867.5c.24.139.32.444.182.684l-.5.865c-.139.24-.442.322-.682.184l-.867-.5c-.24-.139-.32-.444-.182-.684l.5-.865c.104-.18.301-.272.494-.248zm6.118 1.922h1c .277 0 .5.223.5.5v1c0 .277-.223.5-.5.5h-1c-.28 0-.5-.223-.5-.5v-1c0-.28.22-.5.5-.5" opacity=".1"/>
  <path d="m24 9a15 15 0 0 0-15 15 15 15 0 0 0  15 15 15 15 0 0 0  15-15 15 15 0 0 0-15-15zm-.5 1h1c .277 0 .5.223.5.5v1c0 .277-.223.5-.5.5h-1c-.28 0-.5-.223-.5-.5v-1c0-.277.22-.5.5-.5zm-5.879 1.563c.193-.025.389.066.499.246l.495.865c.139.24.058.545-.181.683l-.868.5c-.239.139-.546.057-.681-.183l-.5-.865c-.139-.24-.058-.545.181-.679l.868-.505c.06-.035.123-.054.187-.062zm12.758 0c .064.008.127.027.187.062l.868.505c.239.134.32.439.181.679l-.495.865c-.143.24-.447.322-.686.183l-.868-.5c-.239-.138-.316-.443-.181-.683l.5-.865c.104-.18.305-.271.494-.246zm-17.758 4.757c.065.008.128.03.188.065l.865.5c.24.135.322.442.183.681l-.5.868c-.138.239-.443.32-.683.181l-.865-.495c-.24-.143-.322-.447-.184-.686l.505-.868c.099-.18.298-.27.491-.246zm22.759 0c .192-.024.391.066.495.246l.505.868c.134.239.051.543-.19.686l-.86.495c-.24.139-.549.058-.687-.181l-.503-.868c-.14-.239-.05-.546.19-.681l.86-.5c.06-.035.12-.057.19-.065zm1.12 5.68h1c .277 0 .5.22.5.5v1c0 .277-.223.5-.5.5h-1c-.28 0-.5-.223-.5-.5v-1c0-.28.22-.5.5-.5zm-26 1h1c .277 0 .5.22.5.5v1c0 .277-.223.5-.5.5h-1c-.277 0-.5-.223-.5-.5v-1c0-.28.223-.5.5-.5zm25.137 5.455c.064.008.129.028.189.063l.865.502c.24.14.319.441.184.681l-.495.865c-.14.24-.449.323-.689.184l-.865-.5c-.24-.14-.322-.444-.183-.684l.497-.865c.11-.18.303-.27.497-.246zm-22.774.865c.197-.02.391.066.494.246l.5.868c.139.239.057.543-.183.686l-.865.495c-.24.139-.545.058-.679-.181l-.505-.868c-.138-.236-.056-.546.184-.681l.865-.5c.06-.035.125-.057.189-.065zm18.625 4.258c.194-.024.391.068.494.248l.5.865c.139.24.057.549-.182.689l-.866.495c-.244.135-.545.056-.684-.184l-.5-.865c-.14-.24-.06-.546.184-.686l.866-.497c.059-.035.124-.057.188-.065zm-14.109.502c.064.01.127.03.187.06l.868.503c.239.138.32.447.181.687l-.495.86c-.143.241-.447.324-.686.19l-.868-.505c-.239-.138-.32-.444-.181-.685l.5-.86c.104-.18.305-.28.494-.25zm6.121 1.92h1c .277 0 .5.22.5.5v1c0 .277-.223.5-.5.5h-1c-.28 0-.5-.223-.5-.5v-1c0-.28.22-.5.5-.5z" fill="#d4d4d4"/>
  <path d="m24 13a11 11 0 0 1 10.163 6.79 11 11 0 0 1-2.385 11.988 11 11 0 0 1-11.988 2.384 11 11 0 0 1-6.79-10.162h11" fill="#29639f"/>
</svg>
