<svg xmlns="http://www.w3.org/2000/svg" viewBox="0 0 48 48">
 <defs>
  <linearGradient id="linearGradient3764" x1="1" x2="47" gradientUnits="userSpaceOnUse" gradientTransform="matrix(0,-1,1,0,-1.5e-6,47.999998)">
   <stop style="stop-color:#4694c6;stop-opacity:1"/>
   <stop offset="1" style="stop-color:#569dcb;stop-opacity:1"/>
  </linearGradient>
 </defs>
 <g>
  
  
  
 </g>
 <g>
  <path d="m 47,24 C 47,46.703 46.703,47 24,47 1.297,47 1,46.703 1,24 1,1.297 1.297,1 24,1 46.703,1 47,1.297 47,24 z" style="fill:url(#linearGradient3764);fill-opacity:1"/>
 </g>
 <g>
  <g>
   <g transform="translate(1,1)">
    <g style="opacity:0.1">
     <!-- color: #569dcb -->
     <g>
      <path d="m 19.2 12.871 c 1.262 -0.301 2.375 -0.449 3.637 -0.449 c 3.855 0 6.01 1.797 6.01 4.977 c 0 3.441 -2.707 5.609 -7.01 5.609 c -0.258 0 -0.594 0 -1.074 -0.035 c -0.074 0.148 -0.148 0.297 -0.223 0.449 c 3.426 4.527 7.04 9.05 10.469 13.578 c 1.742 -0.113 1.922 -0.113 2.328 -0.113 c 0.336 0 0.336 0 2.672 0.113 c 0 -0.375 0 -0.625 0 -1 c -1.188 -0.113 -1.781 -0.457 -2.262 -1.094 c -2.809 -3.691 -5.613 -7.383 -8.422 -11.07 c 2.078 -0.523 3.039 -0.934 4.266 -1.797 c 1.93 -1.383 2.969 -3.254 2.969 -5.422 c 0 -3.594 -2.598 -5.613 -7.199 -5.613 c -4.82 0 -5.414 0.113 -6.676 0.113 c -1.227 0 -1.484 0 -6.68 -0.113 c 0 0.375 0 0.625 0 1 c 0.508 0.039 1.551 0.199 2.055 0.234 c 1.707 0.113 1.945 0.449 1.945 3.367 c 0 5.598 0 11.199 0 16.797 c 0 2.957 -0.512 3.434 -2.219 3.547 c -0.594 0.039 -1.188 0.074 -1.777 0.113 c 0 0.371 0 0.57 0 0.941 c 2.188 -0.074 3.484 -0.109 5.414 -0.109 c 1.93 0 3.395 0.035 5.586 0.109 c 0 -0.371 -0.133 -0.57 -0.133 -0.941 c -0.594 -0.039 -1.188 -0.074 -1.781 -0.113 c -1.707 -0.113 -2.086 -0.59 -2.086 -3.547 c 0 -6.508 0.195 -13.02 0.195 -19.527" style="fill:#000;fill-opacity:1;stroke:none;fill-rule:nonzero"/>
     </g>
    </g>
   </g>
  </g>
 </g>
 <g>
  <g>
   <!-- color: #569dcb -->
   <g>
    <path d="m 19.2 12.871 c 1.262 -0.301 2.375 -0.449 3.637 -0.449 c 3.855 0 6.01 1.797 6.01 4.977 c 0 3.441 -2.707 5.609 -7.01 5.609 c -0.258 0 -0.594 0 -1.074 -0.035 c -0.074 0.148 -0.148 0.297 -0.223 0.449 c 3.426 4.527 7.04 9.05 10.469 13.578 c 1.742 -0.113 1.922 -0.113 2.328 -0.113 c 0.336 0 0.336 0 2.672 0.113 c 0 -0.375 0 -0.625 0 -1 c -1.188 -0.113 -1.781 -0.457 -2.262 -1.094 c -2.809 -3.691 -5.613 -7.383 -8.422 -11.07 c 2.078 -0.523 3.039 -0.934 4.266 -1.797 c 1.93 -1.383 2.969 -3.254 2.969 -5.422 c 0 -3.594 -2.598 -5.613 -7.199 -5.613 c -4.82 0 -5.414 0.113 -6.676 0.113 c -1.227 0 -1.484 0 -6.68 -0.113 c 0 0.375 0 0.625 0 1 c 0.508 0.039 1.551 0.199 2.055 0.234 c 1.707 0.113 1.945 0.449 1.945 3.367 c 0 5.598 0 11.199 0 16.797 c 0 2.957 -0.512 3.434 -2.219 3.547 c -0.594 0.039 -1.188 0.074 -1.777 0.113 c 0 0.371 0 0.57 0 0.941 c 2.188 -0.074 3.484 -0.109 5.414 -0.109 c 1.93 0 3.395 0.035 5.586 0.109 c 0 -0.371 -0.133 -0.57 -0.133 -0.941 c -0.594 -0.039 -1.188 -0.074 -1.781 -0.113 c -1.707 -0.113 -2.086 -0.59 -2.086 -3.547 c 0 -6.508 0.195 -13.02 0.195 -19.527" style="fill:#f9f9f9;fill-opacity:1;stroke:none;fill-rule:nonzero"/>
   </g>
  </g>
 </g>
 <g>
  
 </g>
</svg>
