<svg xmlns="http://www.w3.org/2000/svg" viewBox="0 0 48 48">
 <defs>
  <linearGradient id="linearGradient3764" x1="1" x2="47" gradientUnits="userSpaceOnUse" gradientTransform="matrix(0,-1,1,0,-1.5e-6,47.999998)">
   <stop style="stop-color:#575757;stop-opacity:1"/>
   <stop offset="1" style="stop-color:#616161;stop-opacity:1"/>
  </linearGradient>
 </defs>
 <g>
  
  
  
 </g>
 <g>
  <path d="m 47,24 C 47,46.703 46.703,47 24,47 1.297,47 1,46.703 1,24 1,1.297 1.297,1 24,1 46.703,1 47,1.297 47,24 z" style="fill:url(#linearGradient3764);fill-opacity:1"/>
 </g>
 <g>
  
 </g>
 <g transform="matrix(0.88888889,0,0,0.88888889,2.3333333,5.8888888)" style="fill:#000;opacity:0.1">
  <circle cx="13.5" cy="9.5" r="1.5" style="opacity:1;fill-opacity:1;stroke:none"/>
  <circle r="1.5" cy="9.5" cx="16.5" style="opacity:1;fill-opacity:1;stroke:none"/>
  <circle cx="19.5" cy="9.5" r="1.5" style="opacity:1;fill-opacity:1;stroke:none"/>
  <circle r="1.5" cy="9.5" cx="22.5" style="opacity:1;fill-opacity:1;stroke:none"/>
  <circle cx="25.5" cy="9.5" r="1.5" style="opacity:1;fill-opacity:1;stroke:none"/>
  <circle r="1.5" cy="9.5" cx="28.5" style="opacity:1;fill-opacity:1;stroke:none"/>
  <circle cx="31.5" cy="9.5" r="1.5" style="opacity:1;fill-opacity:1;stroke:none"/>
  <circle r="1.5" cy="9.5" cx="34.5" style="opacity:1;fill-opacity:1;stroke:none"/>
  <circle cx="37.5" cy="9.5" r="1.5" style="opacity:1;fill-opacity:1;stroke:none"/>
  <circle r="1.5" cy="12.5" cx="13.5" style="opacity:1;fill-opacity:1;stroke:none"/>
  <circle cx="16.5" cy="12.5" r="1.5" style="opacity:1;fill-opacity:1;stroke:none"/>
  <circle r="1.5" cy="12.5" cx="19.5" style="opacity:1;fill-opacity:1;stroke:none"/>
  <circle cx="22.5" cy="12.5" r="1.5" style="opacity:1;fill-opacity:1;stroke:none"/>
  <circle r="1.5" cy="12.5" cx="25.5" style="opacity:1;fill-opacity:1;stroke:none"/>
  <circle cx="28.5" cy="12.5" r="1.5" style="opacity:1;fill-opacity:1;stroke:none"/>
  <circle r="1.5" cy="12.5" cx="31.5" style="opacity:1;fill-opacity:1;stroke:none"/>
  <circle cx="34.5" cy="12.5" r="1.5" style="opacity:1;fill-opacity:1;stroke:none"/>
  <circle r="1.5" cy="12.5" cx="37.5" style="opacity:1;fill-opacity:1;stroke:none"/>
  <circle cx="13.5" cy="15.5" r="1.5" style="opacity:1;fill-opacity:1;stroke:none"/>
  <circle r="1.5" cy="15.5" cx="16.5" style="opacity:1;fill-opacity:1;stroke:none"/>
  <circle cx="19.5" cy="15.5" r="1.5" style="opacity:1;fill-opacity:1;stroke:none"/>
  <circle r="1.5" cy="15.5" cx="22.5" style="opacity:1;fill-opacity:1;stroke:none"/>
  <circle cx="25.5" cy="15.5" r="1.5" style="opacity:1;fill-opacity:1;stroke:none"/>
  <circle r="1.5" cy="15.5" cx="28.5" style="opacity:1;fill-opacity:1;stroke:none"/>
  <circle cx="31.5" cy="15.5" r="1.5" style="opacity:1;fill-opacity:1;stroke:none"/>
  <circle r="1.5" cy="15.5" cx="34.5" style="opacity:1;fill-opacity:1;stroke:none"/>
  <circle cx="37.5" cy="15.5" r="1.5" style="opacity:1;fill-opacity:1;stroke:none"/>
  <circle r="1.5" cy="18.5" cx="13.5" style="opacity:1;fill-opacity:1;stroke:none"/>
  <circle cx="16.5" cy="18.5" r="1.5" style="opacity:1;fill-opacity:1;stroke:none"/>
  <circle r="1.5" cy="18.5" cx="19.5" style="opacity:1;fill-opacity:1;stroke:none"/>
  <circle cx="22.5" cy="18.5" r="1.5" style="opacity:1;fill-opacity:1;stroke:none"/>
  <circle r="1.5" cy="18.5" cx="25.5" style="opacity:1;fill-opacity:1;stroke:none"/>
  <circle cx="28.5" cy="18.5" r="1.5" style="opacity:1;fill-opacity:1;stroke:none"/>
  <circle r="1.5" cy="18.5" cx="31.5" style="opacity:1;fill-opacity:1;stroke:none"/>
  <circle cx="34.5" cy="18.5" r="1.5" style="opacity:1;fill-opacity:1;stroke:none"/>
  <circle r="1.5" cy="18.5" cx="37.5" style="opacity:1;fill-opacity:1;stroke:none"/>
  <circle cx="13.5" cy="21.5" r="1.5" style="opacity:1;fill-opacity:1;stroke:none"/>
  <circle r="1.5" cy="21.5" cx="16.5" style="opacity:1;fill-opacity:1;stroke:none"/>
  <circle cx="19.5" cy="21.5" r="1.5" style="opacity:1;fill-opacity:1;stroke:none"/>
  <circle r="1.5" cy="21.5" cx="22.5" style="opacity:1;fill-opacity:1;stroke:none"/>
  <circle cx="25.5" cy="21.5" r="1.5" style="opacity:1;fill-opacity:1;stroke:none"/>
  <circle r="1.5" cy="21.5" cx="28.5" style="opacity:1;fill-opacity:1;stroke:none"/>
  <circle cx="31.5" cy="21.5" r="1.5" style="opacity:1;fill-opacity:1;stroke:none"/>
  <circle r="1.5" cy="21.5" cx="34.5" style="opacity:1;fill-opacity:1;stroke:none"/>
  <circle cx="37.5" cy="21.5" r="1.5" style="opacity:1;fill-opacity:1;stroke:none"/>
  <circle r="1.5" cy="24.5" cx="13.5" style="opacity:1;fill-opacity:1;stroke:none"/>
  <circle cx="16.5" cy="24.5" r="1.5" style="opacity:1;fill-opacity:1;stroke:none"/>
  <circle r="1.5" cy="24.5" cx="19.5" style="opacity:1;fill-opacity:1;stroke:none"/>
  <circle cx="22.5" cy="24.5" r="1.5" style="opacity:1;fill-opacity:1;stroke:none"/>
  <circle r="1.5" cy="24.5" cx="25.5" style="opacity:1;fill-opacity:1;stroke:none"/>
  <circle cx="28.5" cy="24.5" r="1.5" style="opacity:1;fill-opacity:1;stroke:none"/>
  <circle r="1.5" cy="24.5" cx="31.5" style="opacity:1;fill-opacity:1;stroke:none"/>
  <circle cx="34.5" cy="24.5" r="1.5" style="opacity:1;fill-opacity:1;stroke:none"/>
  <circle r="1.5" cy="24.5" cx="37.5" style="opacity:1;fill-opacity:1;stroke:none"/>
  <circle cx="13.5" cy="27.5" r="1.5" style="opacity:1;fill-opacity:1;stroke:none"/>
  <circle r="1.5" cy="27.5" cx="16.5" style="opacity:1;fill-opacity:1;stroke:none"/>
  <circle cx="19.5" cy="27.5" r="1.5" style="opacity:1;fill-opacity:1;stroke:none"/>
  <circle r="1.5" cy="27.5" cx="22.5" style="opacity:1;fill-opacity:1;stroke:none"/>
  <circle cx="25.5" cy="27.5" r="1.5" style="opacity:1;fill-opacity:1;stroke:none"/>
  <circle r="1.5" cy="27.5" cx="28.5" style="opacity:1;fill-opacity:1;stroke:none"/>
  <circle cx="31.5" cy="27.5" r="1.5" style="opacity:1;fill-opacity:1;stroke:none"/>
  <circle r="1.5" cy="27.5" cx="34.5" style="opacity:1;fill-opacity:1;stroke:none"/>
  <circle cx="37.5" cy="27.5" r="1.5" style="opacity:1;fill-opacity:1;stroke:none"/>
  <circle r="1.5" cy="30.5" cx="13.5" style="opacity:1;fill-opacity:1;stroke:none"/>
  <circle cx="16.5" cy="30.5" r="1.5" style="opacity:1;fill-opacity:1;stroke:none"/>
  <circle r="1.5" cy="30.5" cx="19.5" style="opacity:1;fill-opacity:1;stroke:none"/>
  <circle cx="22.5" cy="30.5" r="1.5" style="opacity:1;fill-opacity:1;stroke:none"/>
  <circle r="1.5" cy="30.5" cx="25.5" style="opacity:1;fill-opacity:1;stroke:none"/>
  <circle cx="28.5" cy="30.5" r="1.5" style="opacity:1;fill-opacity:1;stroke:none"/>
  <circle r="1.5" cy="30.5" cx="31.5" style="opacity:1;fill-opacity:1;stroke:none"/>
  <circle cx="34.5" cy="30.5" r="1.5" style="opacity:1;fill-opacity:1;stroke:none"/>
  <circle r="1.5" cy="30.5" cx="37.5" style="opacity:1;fill-opacity:1;stroke:none"/>
  <circle cx="13.5" cy="33.5" r="1.5" style="opacity:1;fill-opacity:1;stroke:none"/>
  <circle r="1.5" cy="33.5" cx="16.5" style="opacity:1;fill-opacity:1;stroke:none"/>
  <circle cx="19.5" cy="33.5" r="1.5" style="opacity:1;fill-opacity:1;stroke:none"/>
  <circle r="1.5" cy="33.5" cx="22.5" style="opacity:1;fill-opacity:1;stroke:none"/>
  <circle cx="25.5" cy="33.5" r="1.5" style="opacity:1;fill-opacity:1;stroke:none"/>
  <circle r="1.5" cy="33.5" cx="28.5" style="opacity:1;fill-opacity:1;stroke:none"/>
  <circle cx="31.5" cy="33.5" r="1.5" style="opacity:1;fill-opacity:1;stroke:none"/>
  <circle r="1.5" cy="33.5" cx="34.5" style="opacity:1;fill-opacity:1;stroke:none"/>
  <circle cx="37.5" cy="33.5" r="1.5" style="opacity:1;fill-opacity:1;stroke:none"/>
 </g>
 <g transform="matrix(0.88888889,0,0,0.88888889,1.3333333,4.8888889)" style="fill:#f9f983;fill-opacity:1">
  <circle r="1.5" cy="12.5" cx="22.5" style="opacity:1;stroke:none"/>
  <circle cx="25.5" cy="12.5" r="1.5" style="opacity:1;stroke:none"/>
  <circle r="1.5" cy="12.5" cx="28.5" style="opacity:1;stroke:none"/>
  <circle cx="22.5" cy="15.5" r="1.5" style="opacity:1;stroke:none"/>
  <circle r="1.5" cy="15.5" cx="25.5" style="opacity:1;stroke:none"/>
  <circle cx="28.5" cy="15.5" r="1.5" style="opacity:1;stroke:none"/>
  <circle r="1.5" cy="18.5" cx="22.5" style="opacity:1;stroke:none"/>
  <circle cx="25.5" cy="18.5" r="1.5" style="opacity:1;stroke:none"/>
  <circle r="1.5" cy="18.5" cx="28.5" style="opacity:1;stroke:none"/>
  <circle cx="16.5" cy="21.5" r="1.5" style="opacity:1;stroke:none"/>
  <circle r="1.5" cy="21.5" cx="19.5" style="opacity:1;stroke:none"/>
  <circle cx="22.5" cy="21.5" r="1.5" style="opacity:1;stroke:none"/>
  <circle r="1.5" cy="21.5" cx="25.5" style="opacity:1;stroke:none"/>
  <circle cx="28.5" cy="21.5" r="1.5" style="opacity:1;stroke:none"/>
  <circle r="1.5" cy="21.5" cx="31.5" style="opacity:1;stroke:none"/>
  <circle cx="34.5" cy="21.5" r="1.5" style="opacity:1;stroke:none"/>
  <circle cx="19.5" cy="24.5" r="1.5" style="opacity:1;stroke:none"/>
  <circle r="1.5" cy="24.5" cx="22.5" style="opacity:1;stroke:none"/>
  <circle cx="25.5" cy="24.5" r="1.5" style="opacity:1;stroke:none"/>
  <circle r="1.5" cy="24.5" cx="28.5" style="opacity:1;stroke:none"/>
  <circle cx="31.5" cy="24.5" r="1.5" style="opacity:1;stroke:none"/>
  <circle cx="22.5" cy="27.5" r="1.5" style="opacity:1;stroke:none"/>
  <circle r="1.5" cy="27.5" cx="25.5" style="opacity:1;stroke:none"/>
  <circle cx="28.5" cy="27.5" r="1.5" style="opacity:1;stroke:none"/>
  <circle cx="25.5" cy="30.5" r="1.5" style="opacity:1;stroke:none"/>
 </g>
 <g transform="matrix(0.88888889,0,0,0.88888889,1.3333333,4.8888889)" style="fill:#898967;fill-opacity:1">
  <circle r="1.5" cy="9.5" cx="13.5" style="opacity:1;stroke:none"/>
  <circle cx="16.5" cy="9.5" r="1.5" style="opacity:1;stroke:none"/>
  <circle r="1.5" cy="9.5" cx="19.5" style="opacity:1;stroke:none"/>
  <circle cx="22.5" cy="9.5" r="1.5" style="opacity:1;stroke:none"/>
  <circle r="1.5" cy="9.5" cx="25.5" style="opacity:1;stroke:none"/>
  <circle cx="28.5" cy="9.5" r="1.5" style="opacity:1;stroke:none"/>
  <circle r="1.5" cy="9.5" cx="31.5" style="opacity:1;stroke:none"/>
  <circle cx="34.5" cy="9.5" r="1.5" style="opacity:1;stroke:none"/>
  <circle r="1.5" cy="9.5" cx="37.5" style="opacity:1;stroke:none"/>
  <circle cx="13.5" cy="12.5" r="1.5" style="opacity:1;stroke:none"/>
  <circle r="1.5" cy="12.5" cx="16.5" style="opacity:1;stroke:none"/>
  <circle cx="19.5" cy="12.5" r="1.5" style="opacity:1;stroke:none"/>
  <circle cx="31.5" cy="12.5" r="1.5" style="opacity:1;stroke:none"/>
  <circle r="1.5" cy="12.5" cx="34.5" style="opacity:1;stroke:none"/>
  <circle cx="37.5" cy="12.5" r="1.5" style="opacity:1;stroke:none"/>
  <circle r="1.5" cy="15.5" cx="13.5" style="opacity:1;stroke:none"/>
  <circle cx="16.5" cy="15.5" r="1.5" style="opacity:1;stroke:none"/>
  <circle r="1.5" cy="15.5" cx="19.5" style="opacity:1;stroke:none"/>
  <circle r="1.5" cy="15.5" cx="31.5" style="opacity:1;stroke:none"/>
  <circle cx="34.5" cy="15.5" r="1.5" style="opacity:1;stroke:none"/>
  <circle r="1.5" cy="15.5" cx="37.5" style="opacity:1;stroke:none"/>
  <circle cx="13.5" cy="18.5" r="1.5" style="opacity:1;stroke:none"/>
  <circle r="1.5" cy="18.5" cx="16.5" style="opacity:1;stroke:none"/>
  <circle cx="19.5" cy="18.5" r="1.5" style="opacity:1;stroke:none"/>
  <circle cx="31.5" cy="18.5" r="1.5" style="opacity:1;stroke:none"/>
  <circle r="1.5" cy="18.5" cx="34.5" style="opacity:1;stroke:none"/>
  <circle cx="37.5" cy="18.5" r="1.5" style="opacity:1;stroke:none"/>
  <circle r="1.5" cy="21.5" cx="13.5" style="opacity:1;stroke:none"/>
  <circle r="1.5" cy="21.5" cx="37.5" style="opacity:1;stroke:none"/>
  <circle cx="13.5" cy="24.5" r="1.5" style="opacity:1;stroke:none"/>
  <circle r="1.5" cy="24.5" cx="16.5" style="opacity:1;stroke:none"/>
  <circle r="1.5" cy="24.5" cx="34.5" style="opacity:1;stroke:none"/>
  <circle cx="37.5" cy="24.5" r="1.5" style="opacity:1;stroke:none"/>
  <circle r="1.5" cy="27.5" cx="13.5" style="opacity:1;stroke:none"/>
  <circle cx="16.5" cy="27.5" r="1.5" style="opacity:1;stroke:none"/>
  <circle r="1.5" cy="27.5" cx="19.5" style="opacity:1;stroke:none"/>
  <circle r="1.5" cy="27.5" cx="31.5" style="opacity:1;stroke:none"/>
  <circle cx="34.5" cy="27.5" r="1.5" style="opacity:1;stroke:none"/>
  <circle r="1.5" cy="27.5" cx="37.5" style="opacity:1;stroke:none"/>
  <circle cx="13.5" cy="30.5" r="1.5" style="opacity:1;stroke:none"/>
  <circle r="1.5" cy="30.5" cx="16.5" style="opacity:1;stroke:none"/>
  <circle cx="19.5" cy="30.5" r="1.5" style="opacity:1;stroke:none"/>
  <circle r="1.5" cy="30.5" cx="22.5" style="opacity:1;stroke:none"/>
  <circle r="1.5" cy="30.5" cx="28.5" style="opacity:1;stroke:none"/>
  <circle cx="31.5" cy="30.5" r="1.5" style="opacity:1;stroke:none"/>
  <circle r="1.5" cy="30.5" cx="34.5" style="opacity:1;stroke:none"/>
  <circle cx="37.5" cy="30.5" r="1.5" style="opacity:1;stroke:none"/>
  <circle r="1.5" cy="33.5" cx="13.5" style="opacity:1;stroke:none"/>
  <circle cx="16.5" cy="33.5" r="1.5" style="opacity:1;stroke:none"/>
  <circle r="1.5" cy="33.5" cx="19.5" style="opacity:1;stroke:none"/>
  <circle cx="22.5" cy="33.5" r="1.5" style="opacity:1;stroke:none"/>
  <circle r="1.5" cy="33.5" cx="25.5" style="opacity:1;stroke:none"/>
  <circle cx="28.5" cy="33.5" r="1.5" style="opacity:1;stroke:none"/>
  <circle r="1.5" cy="33.5" cx="31.5" style="opacity:1;stroke:none"/>
  <circle cx="34.5" cy="33.5" r="1.5" style="opacity:1;stroke:none"/>
  <circle r="1.5" cy="33.5" cx="37.5" style="opacity:1;stroke:none"/>
 </g>
</svg>
