<svg viewBox="0 0 48 48" xmlns="http://www.w3.org/2000/svg" xmlns:xlink="http://www.w3.org/1999/xlink">
  <linearGradient id="a" gradientTransform="matrix(0 -1 1 0 -.0000015 47.999998)" gradientUnits="userSpaceOnUse" x1="1" x2="47">
    <stop offset="0" stop-color="#575757"/>
    <stop offset="1" stop-color="#616161"/>
  </linearGradient>
  <path d="m47 24c0 22.703-.297 23-23 23-22.703 0-23-.297-23-23 0-22.703.297-23 23-23 22.703 0 23 .297 23 23z" fill="url(#a)"/>
  <g opacity=".1" transform="matrix(.88888889 0 0 .88888889 2.3333333 5.8888888)">
    <circle cx="13.5" cy="9.5" opacity="1" r="1.5"/>
    <circle cx="16.5" cy="9.5" opacity="1" r="1.5"/>
    <circle cx="19.5" cy="9.5" opacity="1" r="1.5"/>
    <circle cx="22.5" cy="9.5" opacity="1" r="1.5"/>
    <circle cx="25.5" cy="9.5" opacity="1" r="1.5"/>
    <circle cx="28.5" cy="9.5" opacity="1" r="1.5"/>
    <circle cx="31.5" cy="9.5" opacity="1" r="1.5"/>
    <circle cx="34.5" cy="9.5" opacity="1" r="1.5"/>
    <circle cx="37.5" cy="9.5" opacity="1" r="1.5"/>
    <circle cx="13.5" cy="12.5" opacity="1" r="1.5"/>
    <circle cx="16.5" cy="12.5" opacity="1" r="1.5"/>
    <circle cx="19.5" cy="12.5" opacity="1" r="1.5"/>
    <circle cx="22.5" cy="12.5" opacity="1" r="1.5"/>
    <circle cx="25.5" cy="12.5" opacity="1" r="1.5"/>
    <circle cx="28.5" cy="12.5" opacity="1" r="1.5"/>
    <circle cx="31.5" cy="12.5" opacity="1" r="1.5"/>
    <circle cx="34.5" cy="12.5" opacity="1" r="1.5"/>
    <circle cx="37.5" cy="12.5" opacity="1" r="1.5"/>
    <circle cx="13.5" cy="15.5" opacity="1" r="1.5"/>
    <circle cx="16.5" cy="15.5" opacity="1" r="1.5"/>
    <circle cx="19.5" cy="15.5" opacity="1" r="1.5"/>
    <circle cx="22.5" cy="15.5" opacity="1" r="1.5"/>
    <circle cx="25.5" cy="15.5" opacity="1" r="1.5"/>
    <circle cx="28.5" cy="15.5" opacity="1" r="1.5"/>
    <circle cx="31.5" cy="15.5" opacity="1" r="1.5"/>
    <circle cx="34.5" cy="15.5" opacity="1" r="1.5"/>
    <circle cx="37.5" cy="15.5" opacity="1" r="1.5"/>
    <circle cx="13.5" cy="18.5" opacity="1" r="1.5"/>
    <circle cx="16.5" cy="18.5" opacity="1" r="1.5"/>
    <circle cx="19.5" cy="18.5" opacity="1" r="1.5"/>
    <circle cx="22.5" cy="18.5" opacity="1" r="1.5"/>
    <circle cx="25.5" cy="18.5" opacity="1" r="1.5"/>
    <circle cx="28.5" cy="18.5" opacity="1" r="1.5"/>
    <circle cx="31.5" cy="18.5" opacity="1" r="1.5"/>
    <circle cx="34.5" cy="18.5" opacity="1" r="1.5"/>
    <circle cx="37.5" cy="18.5" opacity="1" r="1.5"/>
    <circle cx="13.5" cy="21.5" opacity="1" r="1.5"/>
    <circle cx="16.5" cy="21.5" opacity="1" r="1.5"/>
    <circle cx="19.5" cy="21.5" opacity="1" r="1.5"/>
    <circle cx="22.5" cy="21.5" opacity="1" r="1.5"/>
    <circle cx="25.5" cy="21.5" opacity="1" r="1.5"/>
    <circle cx="28.5" cy="21.5" opacity="1" r="1.5"/>
    <circle cx="31.5" cy="21.5" opacity="1" r="1.5"/>
    <circle cx="34.5" cy="21.5" opacity="1" r="1.5"/>
    <circle cx="37.5" cy="21.5" opacity="1" r="1.5"/>
    <circle cx="13.5" cy="24.5" opacity="1" r="1.5"/>
    <circle cx="16.5" cy="24.5" opacity="1" r="1.5"/>
    <circle cx="19.5" cy="24.5" opacity="1" r="1.5"/>
    <circle cx="22.5" cy="24.5" opacity="1" r="1.5"/>
    <circle cx="25.5" cy="24.5" opacity="1" r="1.5"/>
    <circle cx="28.5" cy="24.5" opacity="1" r="1.5"/>
    <circle cx="31.5" cy="24.5" opacity="1" r="1.5"/>
    <circle cx="34.5" cy="24.5" opacity="1" r="1.5"/>
    <circle cx="37.5" cy="24.5" opacity="1" r="1.5"/>
    <circle cx="13.5" cy="27.5" opacity="1" r="1.5"/>
    <circle cx="16.5" cy="27.5" opacity="1" r="1.5"/>
    <circle cx="19.5" cy="27.5" opacity="1" r="1.5"/>
    <circle cx="22.5" cy="27.5" opacity="1" r="1.5"/>
    <circle cx="25.5" cy="27.5" opacity="1" r="1.5"/>
    <circle cx="28.5" cy="27.5" opacity="1" r="1.5"/>
    <circle cx="31.5" cy="27.5" opacity="1" r="1.5"/>
    <circle cx="34.5" cy="27.5" opacity="1" r="1.5"/>
    <circle cx="37.5" cy="27.5" opacity="1" r="1.5"/>
    <circle cx="13.5" cy="30.5" opacity="1" r="1.5"/>
    <circle cx="16.5" cy="30.5" opacity="1" r="1.5"/>
    <circle cx="19.5" cy="30.5" opacity="1" r="1.5"/>
    <circle cx="22.5" cy="30.5" opacity="1" r="1.5"/>
    <circle cx="25.5" cy="30.5" opacity="1" r="1.5"/>
    <circle cx="28.5" cy="30.5" opacity="1" r="1.5"/>
    <circle cx="31.5" cy="30.5" opacity="1" r="1.5"/>
    <circle cx="34.5" cy="30.5" opacity="1" r="1.5"/>
    <circle cx="37.5" cy="30.5" opacity="1" r="1.5"/>
    <circle cx="13.5" cy="33.5" opacity="1" r="1.5"/>
    <circle cx="16.5" cy="33.5" opacity="1" r="1.5"/>
    <circle cx="19.5" cy="33.5" opacity="1" r="1.5"/>
    <circle cx="22.5" cy="33.5" opacity="1" r="1.5"/>
    <circle cx="25.5" cy="33.5" opacity="1" r="1.5"/>
    <circle cx="28.5" cy="33.5" opacity="1" r="1.5"/>
    <circle cx="31.5" cy="33.5" opacity="1" r="1.5"/>
    <circle cx="34.5" cy="33.5" opacity="1" r="1.5"/>
    <circle cx="37.5" cy="33.5" opacity="1" r="1.5"/>
  </g>
  <g fill="#f9f983" transform="matrix(.88888889 0 0 .88888889 1.3333333 4.8888889)">
    <circle cx="22.5" cy="12.5" r="1.5"/>
    <circle cx="25.5" cy="12.5" r="1.5"/>
    <circle cx="28.5" cy="12.5" r="1.5"/>
    <circle cx="22.5" cy="15.5" r="1.5"/>
    <circle cx="25.5" cy="15.5" r="1.5"/>
    <circle cx="28.5" cy="15.5" r="1.5"/>
    <circle cx="22.5" cy="18.5" r="1.5"/>
    <circle cx="25.5" cy="18.5" r="1.5"/>
    <circle cx="28.5" cy="18.5" r="1.5"/>
    <circle cx="16.5" cy="21.5" r="1.5"/>
    <circle cx="19.5" cy="21.5" r="1.5"/>
    <circle cx="22.5" cy="21.5" r="1.5"/>
    <circle cx="25.5" cy="21.5" r="1.5"/>
    <circle cx="28.5" cy="21.5" r="1.5"/>
    <circle cx="31.5" cy="21.5" r="1.5"/>
    <circle cx="34.5" cy="21.5" r="1.5"/>
    <circle cx="19.5" cy="24.5" r="1.5"/>
    <circle cx="22.5" cy="24.5" r="1.5"/>
    <circle cx="25.5" cy="24.5" r="1.5"/>
    <circle cx="28.5" cy="24.5" r="1.5"/>
    <circle cx="31.5" cy="24.5" r="1.5"/>
    <circle cx="22.5" cy="27.5" r="1.5"/>
    <circle cx="25.5" cy="27.5" r="1.5"/>
    <circle cx="28.5" cy="27.5" r="1.5"/>
    <circle cx="25.5" cy="30.5" r="1.5"/>
  </g>
  <g fill="#898967" transform="matrix(.88888889 0 0 .88888889 1.3333333 4.8888889)">
    <circle cx="13.5" cy="9.5" r="1.5"/>
    <circle cx="16.5" cy="9.5" r="1.5"/>
    <circle cx="19.5" cy="9.5" r="1.5"/>
    <circle cx="22.5" cy="9.5" r="1.5"/>
    <circle cx="25.5" cy="9.5" r="1.5"/>
    <circle cx="28.5" cy="9.5" r="1.5"/>
    <circle cx="31.5" cy="9.5" r="1.5"/>
    <circle cx="34.5" cy="9.5" r="1.5"/>
    <circle cx="37.5" cy="9.5" r="1.5"/>
    <circle cx="13.5" cy="12.5" r="1.5"/>
    <circle cx="16.5" cy="12.5" r="1.5"/>
    <circle cx="19.5" cy="12.5" r="1.5"/>
    <circle cx="31.5" cy="12.5" r="1.5"/>
    <circle cx="34.5" cy="12.5" r="1.5"/>
    <circle cx="37.5" cy="12.5" r="1.5"/>
    <circle cx="13.5" cy="15.5" r="1.5"/>
    <circle cx="16.5" cy="15.5" r="1.5"/>
    <circle cx="19.5" cy="15.5" r="1.5"/>
    <circle cx="31.5" cy="15.5" r="1.5"/>
    <circle cx="34.5" cy="15.5" r="1.5"/>
    <circle cx="37.5" cy="15.5" r="1.5"/>
    <circle cx="13.5" cy="18.5" r="1.5"/>
    <circle cx="16.5" cy="18.5" r="1.5"/>
    <circle cx="19.5" cy="18.5" r="1.5"/>
    <circle cx="31.5" cy="18.5" r="1.5"/>
    <circle cx="34.5" cy="18.5" r="1.5"/>
    <circle cx="37.5" cy="18.5" r="1.5"/>
    <circle cx="13.5" cy="21.5" r="1.5"/>
    <circle cx="37.5" cy="21.5" r="1.5"/>
    <circle cx="13.5" cy="24.5" r="1.5"/>
    <circle cx="16.5" cy="24.5" r="1.5"/>
    <circle cx="34.5" cy="24.5" r="1.5"/>
    <circle cx="37.5" cy="24.5" r="1.5"/>
    <circle cx="13.5" cy="27.5" r="1.5"/>
    <circle cx="16.5" cy="27.5" r="1.5"/>
    <circle cx="19.5" cy="27.5" r="1.5"/>
    <circle cx="31.5" cy="27.5" r="1.5"/>
    <circle cx="34.5" cy="27.5" r="1.5"/>
    <circle cx="37.5" cy="27.5" r="1.5"/>
    <circle cx="13.5" cy="30.5" r="1.5"/>
    <circle cx="16.5" cy="30.5" r="1.5"/>
    <circle cx="19.5" cy="30.5" r="1.5"/>
    <circle cx="22.5" cy="30.5" r="1.5"/>
    <circle cx="28.5" cy="30.5" r="1.5"/>
    <circle cx="31.5" cy="30.5" r="1.5"/>
    <circle cx="34.5" cy="30.5" r="1.5"/>
    <circle cx="37.5" cy="30.5" r="1.5"/>
    <circle cx="13.5" cy="33.5" r="1.5"/>
    <circle cx="16.5" cy="33.5" r="1.5"/>
    <circle cx="19.5" cy="33.5" r="1.5"/>
    <circle cx="22.5" cy="33.5" r="1.5"/>
    <circle cx="25.5" cy="33.5" r="1.5"/>
    <circle cx="28.5" cy="33.5" r="1.5"/>
    <circle cx="31.5" cy="33.5" r="1.5"/>
    <circle cx="34.5" cy="33.5" r="1.5"/>
    <circle cx="37.5" cy="33.5" r="1.5"/>
  </g>
</svg>
