<svg viewBox="0 0 48 48" xmlns="http://www.w3.org/2000/svg" xmlns:xlink="http://www.w3.org/1999/xlink">
  <linearGradient id="a" gradientTransform="matrix(0 -1 1 0 -.0000015 47.999998)" gradientUnits="userSpaceOnUse" x1="1" x2="47">
    <stop offset="0" stop-color="#e4e4e4"/>
    <stop offset="1" stop-color="#eee"/>
  </linearGradient>
  <path d="m47 24c0 22.703-.297 23-23 23-22.703 0-23-.297-23-23 0-22.703.297-23 23-23 22.703 0 23 .297 23 23z" fill="url(#a)"/>
  <path d="m25 13l-10.40625 6v12l10.40625 6 10.40625-6v-12z" opacity=".1" transform="matrix(1.009009 0 0 1 .27477491 0)"/>
  <g transform="matrix(1.009009 0 0 1 .28378391 0)">
    <path d="m24 36v-12l-10.406-6v12m10.406 6" fill="#a92819"/>
    <path d="m34.406 18l-10.406 6v12l10.406-6m0-12" fill="#dd3d28"/>
    <path d="m24 12l-10.40625 6 10.40625 6 10.40625-6m-10.40625-6" fill="#e57f75"/>
    <path d="m24 16v8l-6.938 4v-8m6.938-4" fill="#dd3d28"/>
    <path d="m30.938 28l-6.938-4v-8l6.938 4m0 8" fill="#a92819"/>
    <path d="m24 32l-6.9375-4 6.9375-4 6.9375 4m-6.9375 4" fill="#d64936"/>
    <path d="m24 30v-6l-5.188-3v6m5.188 3" fill="#a92819"/>
    <path d="m26 22.848l-2 1.156v6l5.188-3v-1.844l-3.188 1.844m0-4.156" fill="#dd3d28"/>
    <path d="m26 23.316v3.688l3.188-1.844m-3.188-1.844" fill="#d64936"/>
    <path d="m25.594 22.629v-3.691l-3.188 1.848m3.188 1.844" fill="#dd3d28"/>
    <path d="m26.01 22.848l-2 1.156-5.195-3 5.191-2.996 1.598.922-3.191 1.84 3.602 2.074m-.004.004" fill="#e57f75"/>
  </g>
</svg>
