<svg viewBox="0 0 48 48" xmlns="http://www.w3.org/2000/svg" xmlns:xlink="http://www.w3.org/1999/xlink">
  <linearGradient id="a" gradientTransform="matrix(0 -1 1 0 -.0000015 47.999998)" gradientUnits="userSpaceOnUse" x1="1" x2="47">
    <stop offset="0" stop-color="#3d3d3d"/>
    <stop offset="1" stop-color="#474747"/>
  </linearGradient>
  <path d="m47 24c0 22.703-.297 23-23 23-22.703 0-23-.297-23-23 0-22.703.297-23 23-23 22.703 0 23 .297 23 23z" fill="url(#a)"/>
  <g transform="translate(0 -3)">
    <path d="m15 19c-1.105 0-2 .895-2 2 0 1.105.895 2 2 2 1.105 0 2-.895 2-2 0-1.105-.895-2-2-2zm6 0c-1.108 0-2 .892-2 2 0 1.108.892 2 2 2h14c1.108 0 2-.892 2-2 0-1.108-.892-2-2-2zm-6 7c-1.105 0-2 .895-2 2 0 1.105.895 2 2 2 1.105 0 2-.895 2-2 0-1.105-.895-2-2-2zm6 0c-1.108 0-2 .892-2 2 0 1.108.892 2 2 2h14c1.108 0 2-.892 2-2 0-1.108-.892-2-2-2zm-6 7c-1.105 0-2 .895-2 2 0 1.105.895 2 2 2 1.105 0 2-.895 2-2 0-1.105-.895-2-2-2zm6 0c-1.108 0-2 .892-2 2 0 1.108.892 2 2 2h14c1.108 0 2-.892 2-2 0-1.108-.892-2-2-2z" fill-rule="evenodd" opacity=".1"/>
    <circle cx="14" cy="34" fill="#f1993b" fill-rule="evenodd" r="2"/>
    <rect fill="#f1993b" height="4" rx="2" width="18" x="18" y="32"/>
  </g>
  <g fill="#f0f0f0" transform="translate(0 -10)">
    <circle cx="14" cy="34" fill-rule="evenodd" r="2"/>
    <rect height="4" rx="2" width="18" x="18" y="32"/>
  </g>
  <g fill="#f0f0f0" transform="translate(0 -17)">
    <circle cx="14" cy="34" fill-rule="evenodd" r="2"/>
    <rect height="4" rx="2" width="18" x="18" y="32"/>
  </g>
</svg>
