<svg viewBox="0 0 48 48" xmlns="http://www.w3.org/2000/svg" xmlns:xlink="http://www.w3.org/1999/xlink">
  <linearGradient id="a" gradientTransform="matrix(0 -1 1 0 -.0000015 47.999998)" gradientUnits="userSpaceOnUse" x1="1" x2="47">
    <stop offset="0" stop-color="#85a597"/>
    <stop offset="1" stop-color="#91ada1"/>
  </linearGradient>
  <path d="m47 24c0 22.703-.297 23-23 23-22.703 0-23-.297-23-23 0-22.703.297-23 23-23 22.703 0 23 .297 23 23z" fill="url(#a)"/>
  <path d="m13 13h24v24h-24z" fill-opacity=".098"/>
  <path d="m13 13l23-1v24h-24z" fill="#72c095"/>
  <path d="m12 12v24l3-3v-18h18l3-3zm21 3l-3 3v12h-12l-3 3h18zm-15 15l3-3v-6h6l3-3h-12zm9-9l-2 2v2h-2l-2 2h6zm-4 4l2-2h-2z" fill="#38925f"/>
</svg>
