<svg viewBox="0 0 48 48" xmlns="http://www.w3.org/2000/svg" xmlns:xlink="http://www.w3.org/1999/xlink">
  <linearGradient id="a" gradientTransform="matrix(0 -1 1 0 -.0000015 47.999998)" gradientUnits="userSpaceOnUse" x1="1" x2="47">
    <stop offset="0" stop-color="#3d3d3d"/>
    <stop offset="1" stop-color="#474747"/>
  </linearGradient>
  <path d="m47 24c0 22.703-.297 23-23 23-22.703 0-23-.297-23-23 0-22.703.297-23 23-23 22.703 0 23 .297 23 23z" fill="url(#a)"/>
  <path d="m12 12c0 8.08 0 16.898 0 24h24c0-24 0-14.242 0-24m-24 0" fill-rule="evenodd" opacity=".1" transform="translate(1 1)"/>
  <path d="m12 12c0 8.08 0 16.898 0 24h24c0-24 0-14.242 0-24m-24 0" fill="#c00" fill-rule="evenodd"/>
  <path d="m13 31c0 1.348 0 2.816 0 4h22c0-4 0-2.375 0-4m-22 0" fill="#f9f9f9" fill-rule="evenodd"/>
  <path d="m15.621 13.426c0 5.383 0 11.266 0 16h16.754c0-16 0-9.5 0-16m-16.754 0" fill="#ffe57f" fill-rule="evenodd"/>
  <path d="m12 12v18h24v-18m-17.594 3l5.594 4.406 5.594-4.406c0 4.215-1.043 5.699-2.656 6.719l2.719 2.125c.547.352.977.852 1.188 1.469l.156.188-.125-.031c.043.23.125.469.125.719 0 1.547-1.266 2.816-2.813 2.816-1.547 0-2.781-1.266-2.781-2.816 0-.621.188-1.16.531-1.625-.672-.543-1.305-.93-1.938-1.281-.629.355-1.262.738-1.938 1.281.344.465.531 1 .531 1.625 0 1.547-1.234 2.816-2.781 2.816-1.547 0-2.813-1.266-2.813-2.816 0-.25.063-.488.125-.719l-.125.031.156-.188c.207-.617.641-1.117 1.188-1.469l2.719-2.125c-1.613-1.02-2.656-2.504-2.656-6.719m1.406 9.813c-.77 0-1.406.605-1.406 1.375 0 .77.637 1.406 1.406 1.406.77 0 1.375-.637 1.375-1.406 0-.77-.605-1.375-1.375-1.375m8.375 0c-.77 0-1.375.605-1.375 1.375 0 .77.605 1.406 1.375 1.406.77 0 1.406-.637 1.406-1.406 0-.77-.637-1.375-1.406-1.375m0 0" fill="#a00" fill-rule="evenodd"/>
  <path d="m13 31.996c0 .336 0 .707 0 1h22c0-1 0-.598 0-1m-22 0" fill="#e5e5e5" fill-rule="evenodd"/>
  <path d="m13 34c0 .34 0 .707 0 1h22c0-1 0-.594 0-1m-22 0" fill="#e5e5e5" fill-rule="evenodd"/>
</svg>
