<svg xmlns="http://www.w3.org/2000/svg" viewBox="0 0 48 48">
 <defs>
  <linearGradient id="linearGradient3764" x1="1" x2="47" gradientUnits="userSpaceOnUse" gradientTransform="matrix(0,-1,1,0,-1.5e-6,47.999998)">
   <stop style="stop-color:#3d3d3d;stop-opacity:1"/>
   <stop offset="1" style="stop-color:#474747;stop-opacity:1"/>
  </linearGradient>
 </defs>
 <g>
  
  
  
 </g>
 <g>
  <path d="m 47,24 C 47,46.703 46.703,47 24,47 1.297,47 1,46.703 1,24 1,1.297 1.297,1 24,1 46.703,1 47,1.297 47,24 z" style="fill:url(#linearGradient3764);fill-opacity:1"/>
 </g>
 <g>
  <g>
   <g transform="translate(1,1)">
    <g style="opacity:0.1">
     <!-- color: #474747 -->
     <g>
      <path d="m 12 12 c 0 8.08 0 16.898 0 24 l 24 0 c 0 -24 0 -14.242 0 -24 m -24 0" style="fill:#000;fill-opacity:1;stroke:none;fill-rule:evenodd"/>
     </g>
    </g>
   </g>
  </g>
 </g>
 <g>
  <g>
   <!-- color: #474747 -->
   <g>
    <path d="m 12 12 c 0 8.08 0 16.898 0 24 l 24 0 c 0 -24 0 -14.242 0 -24 m -24 0" style="fill:#c00;fill-opacity:1;stroke:none;fill-rule:evenodd"/>
    <path d="m 13 31 c 0 1.348 0 2.816 0 4 l 22 0 c 0 -4 0 -2.375 0 -4 m -22 0" style="fill:#f9f9f9;fill-opacity:1;stroke:none;fill-rule:evenodd"/>
    <path d="m 15.621 13.426 c 0 5.383 0 11.266 0 16 l 16.754 0 c 0 -16 0 -9.5 0 -16 m -16.754 0" style="fill:#ffe57f;fill-opacity:1;stroke:none;fill-rule:evenodd"/>
    <path d="m 12,12 0,18 24,0 0,-18 M 18.406,15 24,19.406 29.594,15 c 0,4.215 -1.043,5.699 -2.656,6.719 l 2.719,2.125 c 0.547,0.352 0.977,0.852 1.188,1.469 l 0.156,0.188 -0.125,-0.031 c 0.043,0.23 0.125,0.469 0.125,0.719 0,1.547 -1.266,2.816 -2.813,2.816 -1.547,0 -2.781,-1.266 -2.781,-2.816 0,-0.621 0.188,-1.16 0.531,-1.625 -0.672,-0.543 -1.305,-0.93 -1.938,-1.281 -0.629,0.355 -1.262,0.738 -1.938,1.281 0.344,0.465 0.531,1 0.531,1.625 0,1.547 -1.234,2.816 -2.781,2.816 -1.547,0 -2.813,-1.266 -2.813,-2.816 0,-0.25 0.063,-0.488 0.125,-0.719 l -0.125,0.031 0.156,-0.188 c 0.207,-0.617 0.641,-1.117 1.188,-1.469 l 2.719,-2.125 C 19.449,20.699 18.406,19.215 18.406,15 m 1.406,9.813 c -0.77,0 -1.406,0.605 -1.406,1.375 0,0.77 0.637,1.406 1.406,1.406 0.77,0 1.375,-0.637 1.375,-1.406 0,-0.77 -0.605,-1.375 -1.375,-1.375 m 8.375,0 c -0.77,0 -1.375,0.605 -1.375,1.375 0,0.77 0.605,1.406 1.375,1.406 0.77,0 1.406,-0.637 1.406,-1.406 0,-0.77 -0.637,-1.375 -1.406,-1.375 m 0,0" style="fill:#a00;fill-opacity:1;stroke:none;fill-rule:evenodd"/>
    <path d="m 13 31.996 c 0 0.336 0 0.707 0 1 l 22 0 c 0 -1 0 -0.598 0 -1 m -22 0" style="fill:#e5e5e5;fill-opacity:1;stroke:none;fill-rule:evenodd"/>
    <path d="m 13 34 c 0 0.34 0 0.707 0 1 l 22 0 c 0 -1 0 -0.594 0 -1 m -22 0" style="fill:#e5e5e5;fill-opacity:1;stroke:none;fill-rule:evenodd"/>
   </g>
  </g>
 </g>
 <g>
  
 </g>
</svg>
