<svg viewBox="0 0 48 48" xmlns="http://www.w3.org/2000/svg" xmlns:xlink="http://www.w3.org/1999/xlink">
  <linearGradient id="a" gradientTransform="matrix(0 -1 1 0 -.0000015 47.999998)" gradientUnits="userSpaceOnUse" x1="1" x2="47">
    <stop offset="0" stop-color="#3d3d3d"/>
    <stop offset="1" stop-color="#474747"/>
  </linearGradient>
  <path d="m47 24c0 22.703-.297 23-23 23-22.703 0-23-.297-23-23 0-22.703.297-23 23-23 22.703 0 23 .297 23 23z" fill="url(#a)"/>
  <g opacity=".1" transform="translate(-.00000058 .99999965)">
    <path d="m-35.797 18c0 2.64-2.413 4.78-5.39 4.78-2.977 0-5.39-2.14-5.39-4.78 0-2.64 2.413-4.78 5.39-4.78 2.977 0 5.39 2.14 5.39 4.78z" transform="matrix(.46383647 0 0 .52304963 46.603773 4.0851067)"/>
    <path d="m-35.797 18c0 2.64-2.413 4.78-5.39 4.78-2.977 0-5.39-2.14-5.39-4.78 0-2.64 2.413-4.78 5.39-4.78 2.977 0 5.39 2.14 5.39 4.78z" transform="matrix(.46383647 0 0 .52304963 39.603773 10.085107)"/>
    <path d="m-35.797 18c0 2.64-2.413 4.78-5.39 4.78-2.977 0-5.39-2.14-5.39-4.78 0-2.64 2.413-4.78 5.39-4.78 2.977 0 5.39 2.14 5.39 4.78z" transform="matrix(.46383647 0 0 .52304963 33.603773 16.085107)"/>
    <path d="m-35.797 18c0 2.64-2.413 4.78-5.39 4.78-2.977 0-5.39-2.14-5.39-4.78 0-2.64 2.413-4.78 5.39-4.78 2.977 0 5.39 2.14 5.39 4.78z" transform="matrix(.46383647 0 0 .52304963 42.603773 16.085107)"/>
    <path d="m-35.797 18c0 2.64-2.413 4.78-5.39 4.78-2.977 0-5.39-2.14-5.39-4.78 0-2.64 2.413-4.78 5.39-4.78 2.977 0 5.39 2.14 5.39 4.78z" transform="matrix(.46383647 0 0 .52304963 49.603773 10.085107)"/>
    <path d="m-35.797 18c0 2.64-2.413 4.78-5.39 4.78-2.977 0-5.39-2.14-5.39-4.78 0-2.64 2.413-4.78 5.39-4.78 2.977 0 5.39 2.14 5.39 4.78z" transform="matrix(.46383647 0 0 .52304963 51.603773 16.085107)"/>
    <path d="m-35.797 18c0 2.64-2.413 4.78-5.39 4.78-2.977 0-5.39-2.14-5.39-4.78 0-2.64 2.413-4.78 5.39-4.78 2.977 0 5.39 2.14 5.39 4.78z" transform="matrix(.46383647 0 0 .52304963 53.603773 22.085107)"/>
    <path d="m-35.797 18c0 2.64-2.413 4.78-5.39 4.78-2.977 0-5.39-2.14-5.39-4.78 0-2.64 2.413-4.78 5.39-4.78 2.977 0 5.39 2.14 5.39 4.78z" transform="matrix(.46383647 0 0 .52304963 44.603773 22.085107)"/>
    <path d="m-35.797 18c0 2.64-2.413 4.78-5.39 4.78-2.977 0-5.39-2.14-5.39-4.78 0-2.64 2.413-4.78 5.39-4.78 2.977 0 5.39 2.14 5.39 4.78z" transform="matrix(.46383647 0 0 .52304963 36.603773 22.085107)"/>
  </g>
  <g transform="translate(-1.0000003)">
    <path d="m-35.797 18c0 2.64-2.413 4.78-5.39 4.78-2.977 0-5.39-2.14-5.39-4.78 0-2.64 2.413-4.78 5.39-4.78 2.977 0 5.39 2.14 5.39 4.78z" fill="#ff2a2a" transform="matrix(.46383647 0 0 .52304963 46.603773 4.0851067)"/>
    <path d="m-35.797 18c0 2.64-2.413 4.78-5.39 4.78-2.977 0-5.39-2.14-5.39-4.78 0-2.64 2.413-4.78 5.39-4.78 2.977 0 5.39 2.14 5.39 4.78z" fill="#ff2a2a" transform="matrix(.46383647 0 0 .52304963 39.603773 10.085107)"/>
    <path d="m-35.797 18c0 2.64-2.413 4.78-5.39 4.78-2.977 0-5.39-2.14-5.39-4.78 0-2.64 2.413-4.78 5.39-4.78 2.977 0 5.39 2.14 5.39 4.78z" fill="#d40000" transform="matrix(.46383647 0 0 .52304963 33.603773 16.085107)"/>
    <path d="m-35.797 18c0 2.64-2.413 4.78-5.39 4.78-2.977 0-5.39-2.14-5.39-4.78 0-2.64 2.413-4.78 5.39-4.78 2.977 0 5.39 2.14 5.39 4.78z" fill="#f55" transform="matrix(.46383647 0 0 .52304963 42.603773 16.085107)"/>
    <path d="m-35.797 18c0 2.64-2.413 4.78-5.39 4.78-2.977 0-5.39-2.14-5.39-4.78 0-2.64 2.413-4.78 5.39-4.78 2.977 0 5.39 2.14 5.39 4.78z" fill="#f55" transform="matrix(.46383647 0 0 .52304963 49.603773 10.085107)"/>
    <path d="m-35.797 18c0 2.64-2.413 4.78-5.39 4.78-2.977 0-5.39-2.14-5.39-4.78 0-2.64 2.413-4.78 5.39-4.78 2.977 0 5.39 2.14 5.39 4.78z" fill="#faa" transform="matrix(.46383647 0 0 .52304963 51.603773 16.085107)"/>
    <path d="m-35.797 18c0 2.64-2.413 4.78-5.39 4.78-2.977 0-5.39-2.14-5.39-4.78 0-2.64 2.413-4.78 5.39-4.78 2.977 0 5.39 2.14 5.39 4.78z" fill="#f9f9f9" transform="matrix(.46383647 0 0 .52304963 53.603773 22.085107)"/>
    <path d="m-35.797 18c0 2.64-2.413 4.78-5.39 4.78-2.977 0-5.39-2.14-5.39-4.78 0-2.64 2.413-4.78 5.39-4.78 2.977 0 5.39 2.14 5.39 4.78z" fill="#faa" transform="matrix(.46383647 0 0 .52304963 44.603773 22.085107)"/>
    <path d="m-35.797 18c0 2.64-2.413 4.78-5.39 4.78-2.977 0-5.39-2.14-5.39-4.78 0-2.64 2.413-4.78 5.39-4.78 2.977 0 5.39 2.14 5.39 4.78z" fill="#d40000" transform="matrix(.46383647 0 0 .52304963 36.603773 22.085107)"/>
  </g>
</svg>
