<svg xmlns="http://www.w3.org/2000/svg" viewBox="0 0 48 48">
 <defs>
  <linearGradient id="linearGradient3764" x1="1" x2="47" gradientUnits="userSpaceOnUse" gradientTransform="matrix(0,-1,1,0,-1.5e-6,47.999998)">
   <stop style="stop-color:#dfe3dd;stop-opacity:1"/>
   <stop offset="1" style="stop-color:#e9ece8;stop-opacity:1"/>
  </linearGradient>
 </defs>
 <g>
  
  
  
 </g>
 <g>
  <path d="m 47,24 C 47,46.703 46.703,47 24,47 1.297,47 1,46.703 1,24 1,1.297 1.297,1 24,1 46.703,1 47,1.297 47,24 z" style="fill:url(#linearGradient3764);fill-opacity:1"/>
 </g>
 <g>
  <g>
   <g transform="translate(1,1)">
    <g style="opacity:0.1">
     <!-- color: #e9ece8 -->
     <g>
      <path d="m 13 12.996 c 0 8 0 16 0 24 2 0 4 0 6 0 0.551 0 1 -0.445 1 -1 0 -0.551 -0.449 -1 -1 -1 l -4 0 0 -20 4 0 c 0.551 0 1 -0.445 1 -1 0 -0.551 -0.449 -1 -1 -1 -2 0 -4 0 -6 0 z m 18 0 c -0.551 0 -1 0.449 -1 1 0 0.555 0.449 1 1 1 l 4 0 0 20 -4 0 c -0.551 0 -1 0.449 -1 1 0 0.555 0.449 1 1 1 2 0 4 0 6 0 l 0 -24 c -2 0 -4 0 -6 0 z" transform="translate(-1,-1)"/>
     </g>
    </g>
   </g>
  </g>
 </g>
 <g>
  <g>
   <!-- color: #e9ece8 -->
   <g>
    <path d="m 12 11.996 l 2 0 l 0 24 l -2 0 m 0 -24" style="fill:#de7f19;fill-opacity:1;stroke:none;fill-rule:nonzero"/>
    <path d="m 34 11.996 l 2 0 l 0 24 l -2 0 m 0 -24" style="fill:#de7f19;fill-opacity:1;stroke:none;fill-rule:nonzero"/>
    <path d="m 13 11.996 l 5 0 c 0.551 0 1 0.449 1 1 c 0 0.555 -0.449 1 -1 1 l -5 0 c -0.551 0 -1 -0.445 -1 -1 c 0 -0.551 0.449 -1 1 -1 m 0 0" style="fill:#de7f19;fill-opacity:1;stroke:none;fill-rule:nonzero"/>
    <path d="m 13 33.996 l 5 0 c 0.551 0 1 0.449 1 1 c 0 0.555 -0.449 1 -1 1 l -5 0 c -0.551 0 -1 -0.445 -1 -1 c 0 -0.551 0.449 -1 1 -1 m 0 0" style="fill:#de7f19;fill-opacity:1;stroke:none;fill-rule:nonzero"/>
    <path d="m 35 33.996 l -5 0 c -0.551 0 -1 0.449 -1 1 c 0 0.555 0.449 1 1 1 l 5 0 c 0.551 0 1 -0.445 1 -1 c 0 -0.551 -0.449 -1 -1 -1 m 0 0" style="fill:#de7f19;fill-opacity:1;stroke:none;fill-rule:nonzero"/>
    <path d="m 35 11.996 l -5 0 c -0.551 0 -1 0.449 -1 1 c 0 0.555 0.449 1 1 1 l 5 0 c 0.551 0 1 -0.445 1 -1 c 0 -0.551 -0.449 -1 -1 -1 m 0 0" style="fill:#de7f19;fill-opacity:1;stroke:none;fill-rule:nonzero"/>
   </g>
  </g>
 </g>
 <g>
  
 </g>
</svg>
