<svg xmlns="http://www.w3.org/2000/svg" viewBox="0 0 48 48">
 <defs>
  <linearGradient id="linearGradient3764" x1="1" x2="47" gradientUnits="userSpaceOnUse" gradientTransform="matrix(0,-1,1,0,-1.5e-6,47.999998)">
   <stop style="stop-color:#555d67;stop-opacity:1"/>
   <stop offset="1" style="stop-color:#5e6772;stop-opacity:1"/>
  </linearGradient>
 </defs>
 <g>
  
  
  
 </g>
 <g>
  <path d="m 47,24 C 47,46.703 46.703,47 24,47 1.297,47 1,46.703 1,24 1,1.297 1.297,1 24,1 46.703,1 47,1.297 47,24 z" style="fill:url(#linearGradient3764);fill-opacity:1"/>
 </g>
 <rect y="13" x="13" height="24" width="24" rx="3" style="fill:#000;opacity:0.1;fill-opacity:1;stroke:none"/>
 <g>
  <g>
   <g transform="translate(1,1)">
    <g style="opacity:0.1">
     <!-- color: #5e6772 -->
    </g>
   </g>
  </g>
 </g>
 <g>
  <rect y="12" x="12" height="24" width="24" rx="3" style="fill:#af8566;opacity:1;fill-opacity:1;stroke:none"/>
  <rect y="13" x="13" height="22" width="22" rx="2" style="fill:#fff4ab;opacity:1;fill-opacity:1;stroke:none"/>
  <g>
   <g>
    <!-- color: #5e6772 -->
    <g>
     <path d="m 13 16 22 0 0 1 -22 0 m 0 -1" style="fill:#e4d66a;fill-opacity:1;stroke:none;fill-rule:nonzero"/>
     <path d="m 13 19 22 0 0 1 -22 0 m 0 -1" style="fill:#e4d66a;fill-opacity:1;stroke:none;fill-rule:nonzero"/>
     <path d="m 13 22 22 0 0 1 -22 0 m 0 -1" style="fill:#e4d66a;fill-opacity:1;stroke:none;fill-rule:nonzero"/>
     <path d="m 13 25 22 0 0 1 -22 0 m 0 -1" style="fill:#e4d66a;fill-opacity:1;stroke:none;fill-rule:nonzero"/>
     <path d="m 13 28 22 0 0 1 -22 0 m 0 -1" style="fill:#e4d66a;fill-opacity:1;stroke:none;fill-rule:nonzero"/>
     <path d="m 18 13 1 0 0 22 -1 0 m 0 -22" style="fill:#e6b2a9;fill-opacity:1;stroke:none;fill-rule:nonzero"/>
     <path d="m 18 34 1 0 0 1 -1 0 m 0 -1" style="fill:#b96e5f;fill-opacity:0.702;stroke:none;fill-rule:nonzero"/>
     <path d="m 18 32 1 0 0 2 -1 0 m 0 -2" style="fill:#c87f70;fill-opacity:0.702;stroke:none;fill-rule:nonzero"/>
    </g>
   </g>
  </g>
 </g>
 <g>
  
 </g>
</svg>
