<svg viewBox="0 0 48 48" xmlns="http://www.w3.org/2000/svg" xmlns:xlink="http://www.w3.org/1999/xlink">
  <linearGradient id="a" gradientTransform="matrix(0 -1 1 0 -.0000015 47.999998)" gradientUnits="userSpaceOnUse" x1="1" x2="47">
    <stop offset="0" stop-color="#555d67"/>
    <stop offset="1" stop-color="#5e6772"/>
  </linearGradient>
  <path d="m47 24c0 22.703-.297 23-23 23-22.703 0-23-.297-23-23 0-22.703.297-23 23-23 22.703 0 23 .297 23 23z" fill="url(#a)"/>
  <rect height="24" opacity=".1" rx="3" width="24" x="13" y="13"/>
  <rect fill="#af8566" height="24" rx="3" width="24" x="12" y="12"/>
  <rect fill="#fff4ab" height="22" rx="2" width="22" x="13" y="13"/>
  <path d="m13 16h22v1h-22m0-1" fill="#e4d66a"/>
  <path d="m13 19h22v1h-22m0-1" fill="#e4d66a"/>
  <path d="m13 22h22v1h-22m0-1" fill="#e4d66a"/>
  <path d="m13 25h22v1h-22m0-1" fill="#e4d66a"/>
  <path d="m13 28h22v1h-22m0-1" fill="#e4d66a"/>
  <path d="m18 13h1v22h-1m0-22" fill="#e6b2a9"/>
  <path d="m18 34h1v1h-1m0-1" fill="#b96e5f" fill-opacity=".702"/>
  <path d="m18 32h1v2h-1m0-2" fill="#c87f70" fill-opacity=".702"/>
</svg>
