<svg viewBox="0 0 48 48" xmlns="http://www.w3.org/2000/svg" xmlns:xlink="http://www.w3.org/1999/xlink">
  <linearGradient id="a" gradientTransform="matrix(0 -1 1 0 -.0000015 47.999998)" gradientUnits="userSpaceOnUse" x1="1" x2="47">
    <stop offset="0" stop-color="#d8b200"/>
    <stop offset="1" stop-color="#ecc400"/>
  </linearGradient>
  <path d="m47 24c0 22.703-.297 23-23 23-22.703 0-23-.297-23-23 0-22.703.297-23 23-23 22.703 0 23 .297 23 23z" fill="url(#a)"/>
  <path d="m8 14v12h1v-12zm3 0v6h1v-6zm3 0v6h1v-6zm3 0v6h1v-6zm3 0v6h1v-6zm3 0v9h1v-9zm3 0v6h1v-6zm3 0v6h1v-6zm3 0v6h1v-6zm3 0v6h1v-6zm3 0v12h1v-12zm3 0v6h1v-6zm3 0v6h1v-5.381c-.093-.207-.184-.415-.283-.619z" fill="#9d8502"/>
  <path d="m4.377 12c-.201.328-.395.661-.58 1h40.41c-.185-.339-.379-.672-.58-1zm4.623 3v12h1v-12zm3 0v6h1v-6zm3 0v6h1v-6zm3 0v6h1v-6zm3 0v6h1v-6zm3 0v9h1v-9zm3 0v6h1v-6zm3 0v6h1v-6zm3 0v6h1v-6zm3 0v6h1v-6zm3 0v12h1v-12zm3 0v6h1v-6zm3 0v6h1v-3.723c-.237-.777-.513-1.537-.828-2.277zm-37 14v1h3v-1zm3 1v6h1v-6zm0 6h-3v1h3zm-3 0v-6h-1v6zm30-7v1h1v6h-2v1h5v-1h-2v-7zm0 1h-1v1h1z" opacity=".1"/>
  <path d="m5.03 11c-.225.328-.442.661-.65 1h39.25c-.208-.339-.426-.672-.65-1h-37.945z" fill="#f2e586" fill-opacity=".459"/>
  <path d="m37 28v1h1v6h-2v1h5v-1h-2v-7m-2 1h-1v1h1m0-1" fill="#9d8502"/>
  <path d="m7 28v1h3v-1zm3 1v6h1v-6zm0 6h-3v1h3zm-3 0v-6h-1v6z" fill="#9d8502"/>
</svg>
