<svg xmlns="http://www.w3.org/2000/svg" viewBox="0 0 48 48">
 <defs>
  <linearGradient id="linearGradient3764" x1="1" x2="47" gradientUnits="userSpaceOnUse" gradientTransform="matrix(0,-1,1,0,-1.5e-6,47.999998)">
   <stop style="stop-color:#424b5a;stop-opacity:1"/>
   <stop offset="1" style="stop-color:#4b5465;stop-opacity:1"/>
  </linearGradient>
 </defs>
 <g>
  
  
  
 </g>
 <g>
  <path d="m 47,24 C 47,46.703 46.703,47 24,47 1.297,47 1,46.703 1,24 1,1.297 1.297,1 24,1 46.703,1 47,1.297 47,24 z" style="fill:url(#linearGradient3764);fill-opacity:1"/>
 </g>
 <g>
  <g>
   <g transform="translate(1,1)">
    <g style="opacity:0.1">
     <!-- color: #4b5465 -->
    </g>
   </g>
  </g>
 </g>
 <g>
  <g>
   <!-- color: #4b5465 -->
   <g>
    <path d="m 14 15 c -0.554 0 -1 0.446 -1 1 l 0 18 c 0 0.554 0.446 1 1 1 l 18 0 c 0.554 0 1 -0.446 1 -1 l 0 -7 6 4 0 -12 -6 4 0 -7 c 0 -0.554 -0.446 -1 -1 -1 l -18 0 z" style="fill:#000;opacity:0.1;fill-opacity:1;stroke:none;fill-rule:nonzero"/>
   </g>
  </g>
 </g>
 <g>
  
 </g>
 <g>
  <path d="m 38 18 -6 4 c -0.188 1.296 -0.448 2.577 0 4 l 6 4 z" style="fill:#f9f9f9;fill-opacity:1;stroke:none;fill-rule:nonzero"/>
  <rect y="14" x="12" height="20" width="20" rx="1" style="fill:#f9f9f9;opacity:1;fill-opacity:1;stroke:none"/>
  <circle r="5" cy="24" cx="22" style="fill:#ec535b;opacity:1;fill-opacity:1;stroke:none"/>
 </g>
</svg>
