<svg viewBox="0 0 48 48" xmlns="http://www.w3.org/2000/svg" xmlns:xlink="http://www.w3.org/1999/xlink">
  <linearGradient id="a" gradientTransform="matrix(0 -1 1 0 -.0000015 47.999998)" gradientUnits="userSpaceOnUse" x1="1" x2="47">
    <stop offset="0" stop-color="#f15f1f"/>
    <stop offset="1" stop-color="#f26c31"/>
  </linearGradient>
  <path d="m47 24c0 22.703-.297 23-23 23-22.703 0-23-.297-23-23 0-22.703.297-23 23-23 22.703 0 23 .297 23 23z" fill="url(#a)"/>
  <g opacity=".1" transform="translate(1 1)">
    <path d="m12 34v-6.957c3-.48 3.316-1.434 3.543-6.086-.219-3.613 4.672-7.02 9.449-6.953v6c-2.586.457-3.254 2.129-3.227 4.43.242 7.316-5.387 9.566-9.773 9.566m.008 0"/>
    <path d="m23 34v-7h3c2 0 3-2 3-3.434 0-1.566-1-3.578-3-3.578v-6c9 0 10 7 9.996 9.563.004 7.734-5.254 10.438-9.996 10.438-1 0-2.078.008-3 0m0 .012"/>
  </g>
  <path d="m12 34v-6.957c3-.48 3.316-1.434 3.543-6.086-.219-3.613 4.672-7.02 9.449-6.953v6c-2.586.457-3.254 2.129-3.227 4.43.242 7.316-5.387 9.566-9.773 9.566m.008 0" fill="#f9f9f9"/>
  <path d="m23 34v-7h3c2 0 3-2 3-3.434 0-1.566-1-3.578-3-3.578v-6c9 0 10 7 9.996 9.563.004 7.734-5.254 10.438-9.996 10.438-1 0-2.078.008-3 0m0 .012" fill="#f9f9f9"/>
</svg>
