<svg viewBox="0 0 48 48" xmlns="http://www.w3.org/2000/svg" xmlns:xlink="http://www.w3.org/1999/xlink">
  <linearGradient id="a" gradientTransform="matrix(0 -1 1 0 -.0000015 47.999998)" gradientUnits="userSpaceOnUse" x1="1" x2="47">
    <stop offset="0" stop-color="#43a0e7"/>
    <stop offset="1" stop-color="#55a7e9"/>
  </linearGradient>
  <path d="m47 24c0 22.703-.297 23-23 23-22.703 0-23-.297-23-23 0-22.703.297-23 23-23 22.703 0 23 .297 23 23z" fill="url(#a)"/>
  <path d="m29.22 12.06c-.569-.078-1.027-.079-1.446.021-.419.1-.808.344-1.039.65-.231.307-.303.608-.339.754-.813 1.946-1.775 3.88-2.655 5.534-.882 1.655-1.579 2.872-1.881 3.5-.397.612-.731 1.462-1.134 2.587-.402 1.125-.836 2.481-1.263 3.895-.887 2.961-1.687 5.921-2.464 8.896 1.266.107 1.266.098 2.243.107.719-1.609 1.912-3.14 2.91-4.257 1.727-1.921 4.218-3.885 6.597-4.323l.801-.145c.044-3.034.272-6.318 1.502-8.979.504-1.106 1.208-1.984 1.86-2.988.168-.165.036-.36.054-.54-.487-2.945-2.136-4.407-3.7-4.704-.014.006-.041-.007-.046-.008z" fill-opacity=".098" fill-rule="evenodd"/>
  <path d="m28.22 11.06c-.569-.078-1.027-.079-1.446.021-.419.1-.808.344-1.039.65-.231.307-.303.608-.339.754-.813 1.946-1.775 3.88-2.655 5.534-.882 1.655-1.579 2.872-1.881 3.5-.397.612-.731 1.462-1.134 2.587-.402 1.125-.836 2.481-1.263 3.895-.887 2.961-1.687 5.921-2.464 8.896 1.266.107 1.266.098 2.243.107.719-1.609 1.912-3.14 2.91-4.257 1.727-1.921 4.218-3.885 6.597-4.323l.801-.145c.044-3.034.272-6.318 1.502-8.979.504-1.106 1.208-1.984 1.86-2.988.168-.165.036-.36.054-.54-.487-2.945-2.136-4.407-3.7-4.704-.014.006-.041-.007-.046-.008z" fill="#f8f8f8" fill-rule="evenodd"/>
</svg>
