<svg xmlns="http://www.w3.org/2000/svg" viewBox="0 0 48 48">
 <defs>
  <linearGradient id="linearGradient3101" gradientUnits="userSpaceOnUse" gradientTransform="matrix(0,-1,1,0,-1.5e-6,47.999998)" x1="1" x2="47">
   <stop style="stop-color:#e4e4e4;stop-opacity:1"/>
   <stop offset="1" style="stop-color:#eee;stop-opacity:1"/>
  </linearGradient>
  <linearGradient id="linearGradient4168" y1="47" x2="0" y2="1" gradientUnits="userSpaceOnUse">
   <stop style="stop-color:#4a4a4a;stop-opacity:1"/>
   <stop offset="1" style="stop-color:#545454;stop-opacity:1"/>
  </linearGradient>
 </defs>
 <g>
  
  
  
 </g>
 <path d="m 24 1 l 0 11 l 4 0 l 5 4 l 0 3 l -4 0 l 0 -1 l -2 -2 l -3 0 l 0 6 l 5 0 l 4 4 l 0 6 l -5 4 l -4 0 l 0 11 c 22.703 0 23 -0.297 23 -23 c 0 -22.703 -0.297 -23 -23 -23 z m 0 35 l 0 -4 l -2 0 l -2 -2 l 0 -1 l -5 0 l 0 3 l 5 4 l 4 0 z m 0 -4 l 3 0 l 2 -2 l 0 -2 l -2 -2 l -3 0 l 0 6 z m 0 -6 l 0 -4 l -2 0 l -3 -2 l 0 -2 l 3 -2 l 2 0 l 0 -4 l -4 0 l -5 4 l 0 6 l 5 4 l 4 0 z" style="fill:url(#linearGradient3101);fill-opacity:1"/>
 <path d="m 24 1 l 0 11 l 1 0 l 0 -10.969 c -0.331 -0.014 -0.666 -0.031 -1 -0.031 z m 0 11 l -4 0 l -5 4 l 0 6 l 1 0.813 l 0 -5.813 l 5 -4 l 3 0 l 0 -1 z m 1 4 l 0 1 l 3 0 l -1 -1 l -2 0 z m 0 1 l -1 0 l 0 5 l 1 0 l 0 -5 z m -1 5 l -2 0 l -2 -1.344 l 0 0.344 l 3 2 l 1 0 l 0 -1 z m 9 -5.813 l 0 2.813 l -3 0 l 0 1 l 4 0 l 0 -3 l -1 -0.813 z m -8 9.813 l 0 1 l 3 0 l -1 -1 l -2 0 z m 0 1 l -1 0 l 0 5 l 1 0 l 0 -5 z m -1 5 l -2 0 l 1 1 l 1 0 l 0 -1 z m 9 -6 l 0 6 l -5 4 l -3 0 l 0 1 l 4 0 l 5 -4 l 0 -6 l -1 -1 z m -8 11 l -1 0 l 0 10 c 0.334 0 0.669 -0.017 1 -0.031 l 0 -9.969 z m -10 -8 l 0 3 l 1 0.813 l 0 -2.813 l 4 0 l 0 -1 l -5 0 z" style="fill:#000;opacity:0.1;fill-opacity:1;stroke:none;fill-rule:nonzero"/>
 <path d="m 24 1 c -22.703 0 -23 0.297 -23 23 c 0 22.703 0.297 23 23 23 l 0 -11 l -4 0 l -5 -4 l 0 -3 l 5 0 l 0 1 l 2 2 l 2 0 l 0 -6 l -4 0 l -5 -4 l 0 -6 l 5 -4 l 4 0 l 0 -11 z m 0 11 l 0 4 l 3 0 l 2 2 l 0 1 l 4 0 l 0 -3 l -5 -4 l -4 0 z m 0 4 l -2 0 l -3 2 l 0 2 l 3 2 l 2 0 l 0 -6 z m 0 6 l 0 4 l 3 0 l 2 2 l 0 2 l -2 2 l -3 0 l 0 4 l 4 0 l 5 -4 l 0 -6 l -4 -4 l -5 0 z" style="fill:url(#linearGradient4168);fill-opacity:1;stroke:none;fill-rule:nonzero"/>
 <g>
  
 </g>
</svg>
