<svg xmlns="http://www.w3.org/2000/svg" viewBox="0 0 48 48">
 <defs>
  <linearGradient id="linearGradient3764" x1="1" x2="47" gradientUnits="userSpaceOnUse" gradientTransform="matrix(0,-1,1,0,-1.5e-6,47.999998)">
   <stop style="stop-color:#43a0e7;stop-opacity:1"/>
   <stop offset="1" style="stop-color:#55a7e9;stop-opacity:1"/>
  </linearGradient>
 </defs>
 <g>
  
  
  
 </g>
 <g>
  <path d="m 47,24 C 47,46.703 46.703,47 24,47 1.297,47 1,46.703 1,24 1,1.297 1.297,1 24,1 46.703,1 47,1.297 47,24 z" style="fill:url(#linearGradient3764);fill-opacity:1"/>
 </g>
 <g>
  
 </g>
 <path d="m 29.22 12.06 c -0.569 -0.078 -1.027 -0.079 -1.446 0.021 -0.419 0.1 -0.808 0.344 -1.039 0.65 -0.231 0.307 -0.303 0.608 -0.339 0.754 -0.813 1.946 -1.775 3.88 -2.655 5.534 -0.882 1.655 -1.579 2.872 -1.881 3.5 -0.397 0.612 -0.731 1.462 -1.134 2.587 -0.402 1.125 -0.836 2.481 -1.263 3.895 -0.887 2.961 -1.687 5.921 -2.464 8.896 1.266 0.107 1.266 0.098 2.243 0.107 0.719 -1.609 1.912 -3.14 2.91 -4.257 1.727 -1.921 4.218 -3.885 6.597 -4.323 l 0.801 -0.145 c 0.044 -3.034 0.272 -6.318 1.502 -8.979 0.504 -1.106 1.208 -1.984 1.86 -2.988 0.168 -0.165 0.036 -0.36 0.054 -0.54 -0.487 -2.945 -2.136 -4.407 -3.7 -4.704 -0.014 0.006 -0.041 -0.007 -0.046 -0.008 z" mix-blend-mode="normal" isolation="auto" white-space="normal" solid-color="#000000" solid-opacity="1" style="visibility:visible;shape-rendering:auto;color-interpolation-filters:linearRGB;fill:#000;opacity:1;image-rendering:auto;fill-opacity:0.098;stroke:none;display:inline;color:#000;fill-rule:evenodd;color-rendering:auto;color-interpolation:sRGB"/>
 <path d="m 28.22 11.06 c -0.569 -0.078 -1.027 -0.079 -1.446 0.021 -0.419 0.1 -0.808 0.344 -1.039 0.65 -0.231 0.307 -0.303 0.608 -0.339 0.754 -0.813 1.946 -1.775 3.88 -2.655 5.534 -0.882 1.655 -1.579 2.872 -1.881 3.5 -0.397 0.612 -0.731 1.462 -1.134 2.587 -0.402 1.125 -0.836 2.481 -1.263 3.895 -0.887 2.961 -1.687 5.921 -2.464 8.896 1.266 0.107 1.266 0.098 2.243 0.107 0.719 -1.609 1.912 -3.14 2.91 -4.257 1.727 -1.921 4.218 -3.885 6.597 -4.323 l 0.801 -0.145 c 0.044 -3.034 0.272 -6.318 1.502 -8.979 0.504 -1.106 1.208 -1.984 1.86 -2.988 0.168 -0.165 0.036 -0.36 0.054 -0.54 -0.487 -2.945 -2.136 -4.407 -3.7 -4.704 -0.014 0.006 -0.041 -0.007 -0.046 -0.008 z" mix-blend-mode="normal" isolation="auto" white-space="normal" solid-color="#000000" solid-opacity="1" style="visibility:visible;shape-rendering:auto;color-interpolation-filters:linearRGB;fill:#f8f8f8;opacity:1;image-rendering:auto;fill-opacity:1;stroke:none;display:inline;color:#000;fill-rule:evenodd;color-rendering:auto;color-interpolation:sRGB"/>
</svg>
