<svg xmlns="http://www.w3.org/2000/svg" xmlns:xlink="http://www.w3.org/1999/xlink" viewBox="0 0 48 48">
 <defs>
  <linearGradient id="linearGradient3779">
   <stop style="stop-color:#ebd5ed;stop-opacity:1"/>
   <stop offset="1" style="stop-color:#f2e3f3;stop-opacity:1"/>
  </linearGradient>
  <linearGradient xlink:href="#linearGradient3779" id="linearGradient3785" x1="1" x2="47" gradientUnits="userSpaceOnUse"/>
  <linearGradient xlink:href="#linearGradient3779" id="linearGradient3789"/>
  <linearGradient xlink:href="#linearGradient3779" id="linearGradient3809" gradientUnits="userSpaceOnUse" y1="47" x2="0" y2="1"/>
 </defs>
 <g>
  
  
  
 </g>
 <g style="fill:url(#linearGradient3785);fill-opacity:1">
  <path d="m 24 1 c 22.703 0 23 0.297 23 23 c 0 22.703 -0.297 23 -23 23 -22.703 0 -23 -0.297 -23 -23 0 -22.703 0.297 -23 23 -23 z" style="fill:url(#linearGradient3809)"/>
 </g>
 <g transform="translate(3.0508475,-2.440678)" style="fill:url(#linearGradient3789);fill-opacity:1">
  <g>
   <!-- color: #ad51b3 -->
  </g>
 </g>
 <g>
  
 </g>
 <g transform="matrix(1.037037,0,0,1.1111111,0.6296301,-3.6666663)">
  <path d="m 23.23 8 c -3.722 0 -6.74 3.224 -6.74 7.201 0 0.669 0.119 1.523 0.291 2.166 c -0.506 -0.172 -1.25 -0.367 -1.781 -0.367 c -2.864 0 -5 2.401 -5 5.461 0 3.059 2.322 5.539 5.186 5.539 l 1.814 0 l 0 4 4 -4 10.777 0 c 3.437 0 6.223 -2.977 6.223 -6.648 0 -3.671 -2.564 -6.625 -6 -6.624 -0.615 0.002 -1.514 0.196 -2.102 0.39 c -0.102 -3.895 -3.02 -7.114 -6.668 -7.117 z" transform="matrix(0.96428575,0,0,0.90000001,0.35714251,7.7999997)" style="fill:#000;opacity:0.1;fill-opacity:1;stroke:none;fill-rule:evenodd"/>
 </g>
 <g transform="matrix(1.037037,0,0,1.1111111,-0.37036999,-4.6666663)">
  <path d="m 23.23 8 c -3.722 0 -6.73 3.224 -6.73 7.201 0 0.669 0.109 1.523 0.281 2.166 c -0.506 -0.172 -1.25 -0.367 -1.781 -0.367 c -2.864 0 -5 2.401 -5 5.461 0 3.059 2.322 5.539 5.186 5.539 l 1.814 0 l 0 4 4 -4 10.777 0 c 3.437 0 6.223 -2.977 6.223 -6.648 0 -3.671 -2.564 -6.552 -6 -6.552 -0.615 0.002 -1.514 0.124 -2.102 0.317 -0.102 -3.895 -3.02 -7.114 -6.668 -7.117 z" transform="matrix(0.96428575,0,0,0.90000001,0.35714251,7.7999997)" style="fill:#eee;fill-opacity:1;stroke:none;fill-rule:evenodd"/>
  <path d="m 22.737 15.9 c -3.038 0 -5.505 2.555 -5.505 5.583 0 0.886 0.161 2.164 0.574 2.948 -1.01 -0.236 -1.959 -0.377 -2.842 -0.406 -2.208 -0.072 -4 1.786 -4 3.988 0 2.202 1.65 4.164 3.857 4.087 l 2.893 0 0 2.25 2.411 -2.25 11.09 0 c 2.761 0 4.821 -2.331 4.821 -5.084 0 -2.753 -2.06 -4.996 -4.821 -4.996 -1.068 0.003 -2.357 0.357 -3.215 0.99 0.146 -0.496 0.221 -1.01 0.222 -1.528 0 -3.03 -2.447 -5.583 -5.484 -5.583 z m 3.656 12.6 c 0.533 0 0.964 0.403 0.964 0.9 0 0.497 -0.432 0.9 -0.964 0.9 -0.533 0 -0.964 -0.403 -0.964 -0.9 0 -0.497 0.432 -0.9 0.964 -0.9 z m 2.893 0 c 0.533 0 0.964 0.403 0.964 0.9 0 0.497 -0.432 0.9 -0.964 0.9 -0.533 0 -0.964 -0.403 -0.964 -0.9 0 -0.497 0.432 -0.9 0.964 -0.9 z m 2.893 0 c 0.533 0 0.964 0.403 0.964 0.9 0 0.497 -0.432 0.9 -0.964 0.9 -0.533 0 -0.964 -0.403 -0.964 -0.9 0 -0.497 0.432 -0.9 0.964 -0.9 z" style="fill:#ad51b3;fill-opacity:1;stroke:none;fill-rule:evenodd"/>
 </g>
</svg>
