<svg viewBox="0 0 48 48" xmlns="http://www.w3.org/2000/svg" xmlns:xlink="http://www.w3.org/1999/xlink">
  <linearGradient id="a" gradientTransform="matrix(0 -1 1 0 -.0000015 47.999998)" gradientUnits="userSpaceOnUse" x1="1" x2="47">
    <stop offset="0" stop-color="#ecc85c"/>
    <stop offset="1" stop-color="#eecf6d"/>
  </linearGradient>
  <path d="m47 24c0 22.703-.297 23-23 23-22.703 0-23-.297-23-23 0-22.703.297-23 23-23 22.703 0 23 .297 23 23z" fill="url(#a)"/>
  <path d="m20.551 15c-1.516 0-3.677 1.123-3.987 3.148-.204 1.334-.276 1.395-1.652 1.395-1.244 0-2.571 1.325-2.571 2.477 0 .418-.018.613-.699.613-.342 0-.643.243-.643.728 0 .661.375.581 2.48.581 2.34 0 2.458.044 2.851-.611 1.754-2.516 4.988-2.433 6.688-1.169.441-1.29 1.024-2.118 2-2.973-.495-2.824-2.627-4.141-4.469-4.189m8.565 3.927c-3.205.147-5.133 2.261-5.669 5.154-1.729-2.343-4.471-1.851-5.741-.74-1.27 1.111-1.754 2.895-1.344 4.085.287.831.286.924-.942 1.684-2.367 1.465-1.046 4.962 2.085 4.889 1.55-.036 2.044-.358 5.01-3.68 3.798-4.256 4.25-4.47 6.198-4.47 2.468.072 3.617 2.085 3.558 3.827-.075 2.201-2.167 2.415-2.839 1.548-1.108-1.252-.151-2.814.715-2.988-.866-.407-3.27.146-3.27 2.765 0 2.911 2.655 2.998 2.935 2.998h6.428c.559 0 1.149-.552 1.546-.966.988-1.029 1.449-2.4 1.103-3.679-.698-2.584-2.884-3.642-4.346-1.62 1.755-5.432-2.258-8.86-5.424-8.808z" fill-opacity=".098"/>
  <path d="m19.551 14c-1.516 0-3.677 1.123-3.987 3.148-.204 1.334-.276 1.395-1.652 1.395-1.244 0-2.571 1.325-2.571 2.477 0 .418-.018.613-.699.613-.342 0-.643.243-.643.728 0 .661.375.581 2.48.581 2.34 0 2.458.044 2.851-.611 1.754-2.516 4.988-2.433 6.688-1.169.441-1.29 1.024-2.118 2-2.973-.495-2.824-2.627-4.141-4.469-4.189m8.565 3.927c-3.205.147-5.133 2.261-5.669 5.154-1.729-2.343-4.471-1.851-5.741-.74-1.27 1.111-1.754 2.895-1.344 4.085.287.831.286.924-.942 1.684-2.367 1.465-1.046 4.962 2.085 4.889 1.55-.036 2.044-.358 5.01-3.68 3.798-4.256 4.25-4.47 6.198-4.47 2.468.072 3.617 2.085 3.558 3.827-.075 2.201-2.167 2.415-2.839 1.548-1.108-1.252-.151-2.814.715-2.988-.866-.407-3.27.146-3.27 2.765 0 2.911 2.655 2.998 2.935 2.998h6.428c.559 0 1.149-.552 1.546-.966.988-1.029 1.449-2.4 1.103-3.679-.698-2.584-2.884-3.642-4.346-1.62 1.755-5.432-2.258-8.86-5.424-8.808z" fill="#f9f9f9"/>
</svg>
