<svg xmlns="http://www.w3.org/2000/svg" viewBox="0 0 48 48">
 <defs>
  <linearGradient id="linearGradient3764" x1="1" x2="47" gradientUnits="userSpaceOnUse" gradientTransform="matrix(0,-1,1,0,-1.5e-6,47.999998)">
   <stop style="stop-color:#ecc85c;stop-opacity:1"/>
   <stop offset="1" style="stop-color:#eecf6d;stop-opacity:1"/>
  </linearGradient>
 </defs>
 <g>
  
  
  
 </g>
 <g>
  <path d="m 47,24 C 47,46.703 46.703,47 24,47 1.297,47 1,46.703 1,24 1,1.297 1.297,1 24,1 46.703,1 47,1.297 47,24 z" style="fill:url(#linearGradient3764);fill-opacity:1"/>
 </g>
 <g transform="translate(-44.440678,2.7457627)">
  <g>
   <!-- color: #eecf6d -->
  </g>
 </g>
 <g>
  
 </g>
 <path d="m 20.551 15 c -1.516 0 -3.677 1.123 -3.987 3.148 -0.204 1.334 -0.276 1.395 -1.652 1.395 -1.244 0 -2.571 1.325 -2.571 2.477 0 0.418 -0.018 0.613 -0.699 0.613 -0.342 0 -0.643 0.243 -0.643 0.728 0 0.661 0.375 0.581 2.48 0.581 2.34 0 2.458 0.044 2.851 -0.611 1.754 -2.516 4.988 -2.433 6.688 -1.169 0.441 -1.29 1.024 -2.118 2 -2.973 c -0.495 -2.824 -2.627 -4.141 -4.469 -4.189 m 8.565 3.927 c -3.205 0.147 -5.133 2.261 -5.669 5.154 -1.729 -2.343 -4.471 -1.851 -5.741 -0.74 -1.27 1.111 -1.754 2.895 -1.344 4.085 0.287 0.831 0.286 0.924 -0.942 1.684 -2.367 1.465 -1.046 4.962 2.085 4.889 1.55 -0.036 2.044 -0.358 5.01 -3.68 3.798 -4.256 4.25 -4.47 6.198 -4.47 2.468 0.072 3.617 2.085 3.558 3.827 -0.075 2.201 -2.167 2.415 -2.839 1.548 -1.108 -1.252 -0.151 -2.814 0.715 -2.988 -0.866 -0.407 -3.27 0.146 -3.27 2.765 0 2.911 2.655 2.998 2.935 2.998 l 6.428 0 c 0.559 0 1.149 -0.552 1.546 -0.966 0.988 -1.029 1.449 -2.4 1.103 -3.679 -0.698 -2.584 -2.884 -3.642 -4.346 -1.62 1.755 -5.432 -2.258 -8.86 -5.424 -8.808 z" style="fill:#000;fill-opacity:0.098"/>
 <path d="m 19.551 14 c -1.516 0 -3.677 1.123 -3.987 3.148 -0.204 1.334 -0.276 1.395 -1.652 1.395 -1.244 0 -2.571 1.325 -2.571 2.477 0 0.418 -0.018 0.613 -0.699 0.613 -0.342 0 -0.643 0.243 -0.643 0.728 0 0.661 0.375 0.581 2.48 0.581 2.34 0 2.458 0.044 2.851 -0.611 1.754 -2.516 4.988 -2.433 6.688 -1.169 0.441 -1.29 1.024 -2.118 2 -2.973 c -0.495 -2.824 -2.627 -4.141 -4.469 -4.189 m 8.565 3.927 c -3.205 0.147 -5.133 2.261 -5.669 5.154 -1.729 -2.343 -4.471 -1.851 -5.741 -0.74 -1.27 1.111 -1.754 2.895 -1.344 4.085 0.287 0.831 0.286 0.924 -0.942 1.684 -2.367 1.465 -1.046 4.962 2.085 4.889 1.55 -0.036 2.044 -0.358 5.01 -3.68 3.798 -4.256 4.25 -4.47 6.198 -4.47 2.468 0.072 3.617 2.085 3.558 3.827 -0.075 2.201 -2.167 2.415 -2.839 1.548 -1.108 -1.252 -0.151 -2.814 0.715 -2.988 -0.866 -0.407 -3.27 0.146 -3.27 2.765 0 2.911 2.655 2.998 2.935 2.998 l 6.428 0 c 0.559 0 1.149 -0.552 1.546 -0.966 0.988 -1.029 1.449 -2.4 1.103 -3.679 -0.698 -2.584 -2.884 -3.642 -4.346 -1.62 1.755 -5.432 -2.258 -8.86 -5.424 -8.808 z" style="fill:#f9f9f9;fill-opacity:1"/>
</svg>
