<svg viewBox="0 0 48 48" xmlns="http://www.w3.org/2000/svg" xmlns:xlink="http://www.w3.org/1999/xlink">
  <linearGradient id="a" gradientTransform="matrix(0 -1 1 0 -.0000015 47.999998)" gradientUnits="userSpaceOnUse" x1="1" x2="47">
    <stop offset="0" stop-color="#e4e4e4"/>
    <stop offset="1" stop-color="#eee"/>
  </linearGradient>
  <path d="m47 24c0 22.703-.297 23-23 23-22.703 0-23-.297-23-23 0-22.703.297-23 23-23 22.703 0 23 .297 23 23z" fill="url(#a)"/>
  <path d="m24 9c-8.285 0-15 6.715-15 15 0 6.246 3.816 11.59 9.25 13.844l4.125-9.375c-1.402-.621-2.375-2.023-2.375-3.656 0-2.207 1.789-4 4-4 2.211 0 4 1.793 4 4 0 1.633-.973 3.035-2.375 3.656l4.125 9.375c5.434-2.254 9.25-7.598 9.25-13.844 0-8.285-6.715-15-15-15m0 0" opacity=".1" transform="translate(1 1)"/>
  <path d="m24 9c-8.285 0-15 6.715-15 15 0 6.246 3.816 11.59 9.25 13.844l4.125-9.375c-1.402-.621-2.375-2.023-2.375-3.656 0-2.207 1.789-4 4-4 2.211 0 4 1.793 4 4 0 1.633-.973 3.035-2.375 3.656l4.125 9.375c5.434-2.254 9.25-7.598 9.25-13.844 0-8.285-6.715-15-15-15m0 0" fill="#535353"/>
</svg>
