<svg xmlns="http://www.w3.org/2000/svg" viewBox="0 0 48 48">
 <defs>
  <linearGradient id="linearGradient3764" x1="1" x2="47" gradientUnits="userSpaceOnUse" gradientTransform="matrix(0,-1,1,0,-1.5e-6,47.999998)">
   <stop style="stop-color:#e4e4e4;stop-opacity:1"/>
   <stop offset="1" style="stop-color:#eee;stop-opacity:1"/>
  </linearGradient>
 </defs>
 <g>
  
  
  
 </g>
 <g>
  <path d="m 47,24 C 47,46.703 46.703,47 24,47 1.297,47 1,46.703 1,24 1,1.297 1.297,1 24,1 46.703,1 47,1.297 47,24 z" style="fill:url(#linearGradient3764);fill-opacity:1"/>
 </g>
 <g>
  <g>
   <g transform="translate(1,1)">
    <g style="opacity:0.1">
     <!-- color: #eeeeee -->
     <g>
      <path d="m 24 9 c -8.285 0 -15 6.715 -15 15 c 0 6.246 3.816 11.59 9.25 13.844 l 4.125 -9.375 c -1.402 -0.621 -2.375 -2.023 -2.375 -3.656 c 0 -2.207 1.789 -4 4 -4 c 2.211 0 4 1.793 4 4 c 0 1.633 -0.973 3.035 -2.375 3.656 l 4.125 9.375 c 5.434 -2.254 9.25 -7.598 9.25 -13.844 c 0 -8.285 -6.715 -15 -15 -15 m 0 0" style="fill:#000;fill-opacity:1;stroke:none;fill-rule:nonzero"/>
     </g>
    </g>
   </g>
  </g>
 </g>
 <g>
  <g>
   <!-- color: #eeeeee -->
   <g>
    <path d="m 24 9 c -8.285 0 -15 6.715 -15 15 c 0 6.246 3.816 11.59 9.25 13.844 l 4.125 -9.375 c -1.402 -0.621 -2.375 -2.023 -2.375 -3.656 c 0 -2.207 1.789 -4 4 -4 c 2.211 0 4 1.793 4 4 c 0 1.633 -0.973 3.035 -2.375 3.656 l 4.125 9.375 c 5.434 -2.254 9.25 -7.598 9.25 -13.844 c 0 -8.285 -6.715 -15 -15 -15 m 0 0" style="fill:#535353;fill-opacity:1;stroke:none;fill-rule:nonzero"/>
   </g>
  </g>
 </g>
 <g>
  
 </g>
</svg>
