<svg viewBox="0 0 48 48" xmlns="http://www.w3.org/2000/svg" xmlns:xlink="http://www.w3.org/1999/xlink">
  <linearGradient id="a" gradientTransform="matrix(0 -1 1 0 -.0000015 47.999998)" gradientUnits="userSpaceOnUse" x1="1" x2="47">
    <stop offset="0" stop-color="#c4c5ab"/>
    <stop offset="1" stop-color="#cccdb6"/>
  </linearGradient>
  <path d="m47 24c0 22.703-.297 23-23 23-22.703 0-23-.297-23-23 0-22.703.297-23 23-23 22.703 0 23 .297 23 23z" fill="url(#a)"/>
  <g opacity=".1" transform="translate(1 1)">
    <path d="m28.09 10.898c-2.309 0-4.598.887-6.352 2.641-3.512 3.508-3.512 9.223 0 12.73 3.508 3.508 9.223 3.508 12.734 0 3.508-3.508 3.508-9.223 0-12.73-1.758-1.754-4.078-2.641-6.383-2.641"/>
    <path d="m17.879 32.27l-2.145-2.145-4.734 4.734 2.145 2.145m4.734-4.734"/>
    <path d="m22.422 27.07l-1.504-1.504-4.734 4.734 1.504 1.504m4.734-4.734"/>
  </g>
  <path d="m36.602 19.898c0 4.699-3.805 8.504-8.5 8.504-4.699 0-8.504-3.805-8.5-8.504-.004-4.695 3.801-8.504 8.5-8.504 4.695 0 8.5 3.809 8.5 8.504m0 0" fill="#82c3ec"/>
  <path d="m28.09 10.898c-2.309 0-4.598.887-6.352 2.641-3.512 3.508-3.512 9.223 0 12.73 3.508 3.508 9.223 3.508 12.734 0 3.508-3.508 3.508-9.223 0-12.73-1.758-1.754-4.078-2.641-6.383-2.641m0 1.48c1.922 0 3.84.727 5.313 2.199 2.941 2.941 2.941 7.68 0 10.621-2.945 2.941-7.684 2.941-10.629 0-2.941-2.941-2.941-7.68 0-10.621 1.473-1.473 3.391-2.199 5.316-2.199m0 0" fill="#e6e6e6"/>
  <path d="m17.879 32.27l-2.145-2.145-4.734 4.734 2.145 2.145m4.734-4.734" fill="#3f525b"/>
  <path d="m22.422 27.07l-1.504-1.504-4.734 4.734 1.504 1.504m4.734-4.734" fill="#d24c37"/>
  <path d="m33 22c0 1.656-1.344 3-3 3-1.656 0-3-1.344-3-3 0-1.656 1.344-3 3-3 1.656 0 3 1.344 3 3m0 0" fill="#b9def8"/>
  <path d="m31 17c0 .551-.449 1-1 1-.551 0-1-.449-1-1 0-.551.449-1 1-1 .551 0 1 .449 1 1m0 0" fill="#b9def8"/>
</svg>
