<svg xmlns="http://www.w3.org/2000/svg" viewBox="0 0 48 48">
 <defs>
  <linearGradient id="linearGradient3764" x1="1" x2="47" gradientUnits="userSpaceOnUse" gradientTransform="matrix(0,-1,1,0,-1.5e-6,47.999998)">
   <stop style="stop-color:#c4c5ab;stop-opacity:1"/>
   <stop offset="1" style="stop-color:#cccdb6;stop-opacity:1"/>
  </linearGradient>
 </defs>
 <g>
  
  
  
 </g>
 <g>
  <path d="m 47,24 C 47,46.703 46.703,47 24,47 1.297,47 1,46.703 1,24 1,1.297 1.297,1 24,1 46.703,1 47,1.297 47,24 z" style="fill:url(#linearGradient3764);fill-opacity:1"/>
 </g>
 <g>
  <g>
   <g transform="translate(1,1)">
    <g style="opacity:0.1">
     <!-- color: #cccdb6 -->
     <g>
      <path d="m 28.09 10.898 c -2.309 0 -4.598 0.887 -6.352 2.641 -3.512 3.508 -3.512 9.223 0 12.73 3.508 3.508 9.223 3.508 12.734 0 3.508 -3.508 3.508 -9.223 0 -12.73 -1.758 -1.754 -4.078 -2.641 -6.383 -2.641" style="fill:#000;fill-opacity:1;stroke:none;fill-rule:nonzero"/>
      <path d="m 17.879 32.27 l -2.145 -2.145 l -4.734 4.734 l 2.145 2.145 m 4.734 -4.734" style="fill:#000;fill-opacity:1;stroke:none;fill-rule:nonzero"/>
      <path d="m 22.422 27.07 l -1.504 -1.504 l -4.734 4.734 l 1.504 1.504 m 4.734 -4.734" style="fill:#000;fill-opacity:1;stroke:none;fill-rule:nonzero"/>
     </g>
    </g>
   </g>
  </g>
 </g>
 <g>
  <g>
   <!-- color: #cccdb6 -->
   <g>
    <path d="m 36.602 19.898 c 0 4.699 -3.805 8.504 -8.5 8.504 -4.699 0 -8.504 -3.805 -8.5 -8.504 -0.004 -4.695 3.801 -8.504 8.5 -8.504 4.695 0 8.5 3.809 8.5 8.504 m 0 0" style="fill:#82c3ec;fill-opacity:1;stroke:none;fill-rule:nonzero"/>
    <path d="m 28.09 10.898 c -2.309 0 -4.598 0.887 -6.352 2.641 -3.512 3.508 -3.512 9.223 0 12.73 3.508 3.508 9.223 3.508 12.734 0 3.508 -3.508 3.508 -9.223 0 -12.73 -1.758 -1.754 -4.078 -2.641 -6.383 -2.641 m 0 1.48 c 1.922 0 3.84 0.727 5.313 2.199 2.941 2.941 2.941 7.68 0 10.621 -2.945 2.941 -7.684 2.941 -10.629 0 -2.941 -2.941 -2.941 -7.68 0 -10.621 1.473 -1.473 3.391 -2.199 5.316 -2.199 m 0 0" style="fill:#e6e6e6;fill-opacity:1;stroke:none;fill-rule:nonzero"/>
    <path d="M 17.879,32.27 15.734,30.125 11,34.859 l 2.145,2.145 m 4.734,-4.734" style="fill:#3f525b;fill-opacity:1;stroke:none;fill-rule:nonzero"/>
    <path d="m 22.422 27.07 -1.504 -1.504 -4.734 4.734 1.504 1.504 m 4.734 -4.734" style="fill:#d24c37;fill-opacity:1;stroke:none;fill-rule:nonzero"/>
    <path d="m 33 22 c 0 1.656 -1.344 3 -3 3 -1.656 0 -3 -1.344 -3 -3 0 -1.656 1.344 -3 3 -3 1.656 0 3 1.344 3 3 m 0 0" style="fill:#b9def8;fill-opacity:1;stroke:none;fill-rule:nonzero"/>
    <path d="m 31 17 c 0 0.551 -0.449 1 -1 1 -0.551 0 -1 -0.449 -1 -1 0 -0.551 0.449 -1 1 -1 0.551 0 1 0.449 1 1 m 0 0" style="fill:#b9def8;fill-opacity:1;stroke:none;fill-rule:nonzero"/>
   </g>
  </g>
 </g>
 <g>
  
 </g>
</svg>
