<svg xmlns="http://www.w3.org/2000/svg" viewBox="0 0 48 48">
 <defs>
  <linearGradient id="linearGradient3764" x1="1" x2="47" gradientUnits="userSpaceOnUse" gradientTransform="matrix(0,-1,1,0,-1.5e-6,47.999998)">
   <stop style="stop-color:#e4e4e4;stop-opacity:1"/>
   <stop offset="1" style="stop-color:#eee;stop-opacity:1"/>
  </linearGradient>
  <linearGradient id="linear0" gradientUnits="userSpaceOnUse" x1="6.778" y1="3.487" x2="6.769" y2="10.518" gradientTransform="matrix(3.729797,0,0,3.401575,-1.263157,-2.03445e-6)">
   <stop style="stop-color:#e24571;stop-opacity:1"/>
   <stop offset="1" style="stop-color:#7f263e;stop-opacity:1"/>
  </linearGradient>
 </defs>
 <g>
  
  
  
 </g>
 <g>
  <path d="m 47,24 C 47,46.703 46.703,47 24,47 1.297,47 1,46.703 1,24 1,1.297 1.297,1 24,1 46.703,1 47,1.297 47,24 z" style="fill:url(#linearGradient3764);fill-opacity:1"/>
 </g>
 <g transform="translate(0,1)">
  <g>
   <g transform="translate(1,1)">
    <g style="opacity:0.1">
     <!-- color: #eeeeee -->
     <g>
      <path d="m 14.03 12 c -0.055 3.418 -0.051 6.832 0 10.25 0.047 3.289 0.219 5.867 1.656 7.875 1.727 2.422 4.602 4.16 8.313 5.875 3.703 -1.715 6.582 -3.457 8.313 -5.875 1.434 -2.01 1.609 -4.586 1.656 -7.875 0.047 -3.418 0.051 -6.832 0 -10.25 m -9.969 1 c 0.551 0 1 0.449 1 1 0 0.551 -0.449 1 -1 1 -0.555 0 -1 -0.449 -1 -1 0 -0.551 0.445 -1 1 -1 m 0 4 c 0.551 0 1 0.449 1 1 0 0.551 -0.449 1 -1 1 -0.555 0 -1 -0.449 -1 -1 0 -0.551 0.445 -1 1 -1 m -8 4 c 0.551 0 1 0.449 1 1 0 0.551 -0.449 1 -1 1 -0.555 0 -1 -0.449 -1 -1 0 -0.551 0.445 -1 1 -1 m 4 0 c 0.551 0 1 0.449 1 1 0 0.551 -0.449 1 -1 1 -0.555 0 -1 -0.449 -1 -1 0 -0.551 0.445 -1 1 -1 m 4 0 c 0.551 0 1 0.449 1 1 0 0.551 -0.449 1 -1 1 -0.555 0 -1 -0.449 -1 -1 0 -0.551 0.445 -1 1 -1 m 4 0 c 0.551 0 1 0.449 1 1 0 0.551 -0.449 1 -1 1 -0.555 0 -1 -0.449 -1 -1 0 -0.551 0.445 -1 1 -1 m 4 0 c 0.551 0 1 0.449 1 1 0 0.551 -0.449 1 -1 1 -0.555 0 -1 -0.449 -1 -1 0 -0.551 0.445 -1 1 -1 m -8 4 c 0.551 0 1 0.449 1 1 0 0.551 -0.449 1 -1 1 -0.555 0 -1 -0.449 -1 -1 0 -0.551 0.445 -1 1 -1 m 0 4 c 0.551 0 1 0.449 1 1 0 0.551 -0.449 1 -1 1 -0.555 0 -1 -0.449 -1 -1 0 -0.551 0.445 -1 1 -1 m 0 4 c 0.551 0 1 0.449 1 1 0 0.551 -0.449 1 -1 1 -0.555 0 -1 -0.449 -1 -1 0 -0.551 0.445 -1 1 -1 m 0 0" style="fill:#000;stroke:none;fill-rule:nonzero"/>
     </g>
    </g>
   </g>
  </g>
 </g>
 <g transform="translate(0,1)">
  <g>
   <!-- color: #eeeeee -->
   <g>
    <path d="m 14.03 12 c -0.055 3.418 -0.051 6.832 0 10.25 0.047 3.289 0.219 5.867 1.656 7.875 1.727 2.422 4.602 4.16 8.313 5.875 3.703 -1.715 6.582 -3.457 8.313 -5.875 1.434 -2.01 1.609 -4.586 1.656 -7.875 0.047 -3.418 0.051 -6.832 0 -10.25 m -9.969 1 c 0.551 0 1 0.449 1 1 0 0.551 -0.449 1 -1 1 -0.555 0 -1 -0.449 -1 -1 0 -0.551 0.445 -1 1 -1 m 0 4 c 0.551 0 1 0.449 1 1 0 0.551 -0.449 1 -1 1 -0.555 0 -1 -0.449 -1 -1 0 -0.551 0.445 -1 1 -1 m -8 4 c 0.551 0 1 0.449 1 1 0 0.551 -0.449 1 -1 1 -0.555 0 -1 -0.449 -1 -1 0 -0.551 0.445 -1 1 -1 m 4 0 c 0.551 0 1 0.449 1 1 0 0.551 -0.449 1 -1 1 -0.555 0 -1 -0.449 -1 -1 0 -0.551 0.445 -1 1 -1 m 4 0 c 0.551 0 1 0.449 1 1 0 0.551 -0.449 1 -1 1 -0.555 0 -1 -0.449 -1 -1 0 -0.551 0.445 -1 1 -1 m 4 0 c 0.551 0 1 0.449 1 1 0 0.551 -0.449 1 -1 1 -0.555 0 -1 -0.449 -1 -1 0 -0.551 0.445 -1 1 -1 m 4 0 c 0.551 0 1 0.449 1 1 0 0.551 -0.449 1 -1 1 -0.555 0 -1 -0.449 -1 -1 0 -0.551 0.445 -1 1 -1 m -8 4 c 0.551 0 1 0.449 1 1 0 0.551 -0.449 1 -1 1 -0.555 0 -1 -0.449 -1 -1 0 -0.551 0.445 -1 1 -1 m 0 4 c 0.551 0 1 0.449 1 1 0 0.551 -0.449 1 -1 1 -0.555 0 -1 -0.449 -1 -1 0 -0.551 0.445 -1 1 -1 m 0 4 c 0.551 0 1 0.449 1 1 0 0.551 -0.449 1 -1 1 -0.555 0 -1 -0.449 -1 -1 0 -0.551 0.445 -1 1 -1 m 0 0" style="fill:url(#linear0);stroke:none;fill-rule:nonzero"/>
   </g>
  </g>
 </g>
 <g>
  
 </g>
</svg>
