<svg viewBox="0 0 48 48" xmlns="http://www.w3.org/2000/svg" xmlns:xlink="http://www.w3.org/1999/xlink">
  <linearGradient gradientUnits="userSpaceOnUse" x1="1" x2="47">
    <stop offset="0" stop-color="#ffec91"/>
    <stop offset="1" stop-color="#ffe87d"/>
  </linearGradient>
  <linearGradient id="a" gradientUnits="userSpaceOnUse" x2="0" y1="1" y2="47">
    <stop offset="0" stop-color="#ffde41"/>
    <stop offset="1" stop-color="#ffda2d"/>
  </linearGradient>
  <path d="m24 1c22.703 0 23 .297 23 23 0 22.703-.297 23-23 23-22.703 0-23-.297-23-23 0-22.703.297-23 23-23z" fill="url(#a)"/>
  <rect height="22" opacity=".1" rx="1" transform="translate(1 1)" width="26" x="11" y="13"/>
  <rect fill="#999" height="22" rx="1" width="26" x="11" y="13"/>
  <path d="m12 14h24v20h-24z" fill="#333"/>
  <path d="m16 15h16v3h-16z" fill="#ffd42a"/>
  <path d="m17 16h9v1h-9z" fill="#333"/>
  <path d="m27 16h4v1h-4z" fill="#333"/>
  <path d="m14 21h15v1h-15z" fill="#ffd42a"/>
  <path d="m14 24h10v1h-10z" fill="#ffd42a"/>
  <path d="m14 27h17v1h-17z" fill="#ffd42a"/>
  <path d="m14 30h8v1h-8z" fill="#ffd42a"/>
  <g opacity=".1" transform="translate(4 4)">
    <path d="m28 18a5 5 0 0 0-5 5 5 5 0 0 0  5 5 5 5 0 0 0  5-5 5 5 0 0 0-5-5zm0 1a3.5 3.5 0 0 1 3.5 3.5 3.5 3.5 0 0 1-3.5 3.5 3.5 3.5 0 0 1-3.5-3.5 3.5 3.5 0 0 1  3.5-3.5"/>
    <rect height="10" rx="1.167" width="14" x="21" y="23"/>
  </g>
  <g transform="translate(3 3)">
    <path d="m28 18a5 5 0 0 0-5 5 5 5 0 0 0  5 5 5 5 0 0 0  5-5 5 5 0 0 0-5-5zm0 1a3.5 3.5 0 0 1 3.5 3.5 3.5 3.5 0 0 1-3.5 3.5 3.5 3.5 0 0 1-3.5-3.5 3.5 3.5 0 0 1  3.5-3.5" fill="#b3b3b3"/>
    <rect fill="#b3b3b3" height="10" rx="1.167" width="14" x="21" y="23"/>
    <circle cx="28" cy="28" fill="#808080" r="4"/>
    <path d="m27 28h2v3h-2z" fill="#333"/>
    <circle cx="28" cy="27" fill="#333" r="2"/>
  </g>
</svg>
