<svg viewBox="0 0 48 48" xmlns="http://www.w3.org/2000/svg" xmlns:xlink="http://www.w3.org/1999/xlink">
  <linearGradient id="a" gradientTransform="matrix(0 -1 1 0 -.0000015 47.999998)" gradientUnits="userSpaceOnUse" x1="1" x2="47">
    <stop offset="0" stop-color="#e4e4e4"/>
    <stop offset="1" stop-color="#eee"/>
  </linearGradient>
  <linearGradient id="b" gradientTransform="matrix(3.729797 0 0 3.401575 -1.263157 -.00000203)" gradientUnits="userSpaceOnUse" x1="6.778" x2="6.769" y1="3.487" y2="10.518">
    <stop offset="0" stop-color="#e24571"/>
    <stop offset="1" stop-color="#7f263e"/>
  </linearGradient>
  <path d="m47 24c0 22.703-.297 23-23 23-22.703 0-23-.297-23-23 0-22.703.297-23 23-23 22.703 0 23 .297 23 23z" fill="url(#a)"/>
  <path d="m14.03 12c-.055 3.418-.051 6.832 0 10.25.047 3.289.219 5.867 1.656 7.875 1.727 2.422 4.602 4.16 8.313 5.875 3.703-1.715 6.582-3.457 8.313-5.875 1.434-2.01 1.609-4.586 1.656-7.875.047-3.418.051-6.832 0-10.25m-9.969 1c .551 0 1 .449 1 1 0 .551-.449 1-1 1-.555 0-1-.449-1-1 0-.551.445-1 1-1m0 4c .551 0 1 .449 1 1 0 .551-.449 1-1 1-.555 0-1-.449-1-1 0-.551.445-1 1-1m-8 4c .551 0 1 .449 1 1 0 .551-.449 1-1 1-.555 0-1-.449-1-1 0-.551.445-1 1-1m4 0c .551 0 1 .449 1 1 0 .551-.449 1-1 1-.555 0-1-.449-1-1 0-.551.445-1 1-1m4 0c .551 0 1 .449 1 1 0 .551-.449 1-1 1-.555 0-1-.449-1-1 0-.551.445-1 1-1m4 0c .551 0 1 .449 1 1 0 .551-.449 1-1 1-.555 0-1-.449-1-1 0-.551.445-1 1-1m4 0c .551 0 1 .449 1 1 0 .551-.449 1-1 1-.555 0-1-.449-1-1 0-.551.445-1 1-1m-8 4c .551 0 1 .449 1 1 0 .551-.449 1-1 1-.555 0-1-.449-1-1 0-.551.445-1 1-1m0 4c .551 0 1 .449 1 1 0 .551-.449 1-1 1-.555 0-1-.449-1-1 0-.551.445-1 1-1m0 4c .551 0 1 .449 1 1 0 .551-.449 1-1 1-.555 0-1-.449-1-1 0-.551.445-1 1-1m0 0" opacity=".1" transform="translate(1 2)"/>
  <path d="m14.03 12c-.055 3.418-.051 6.832 0 10.25.047 3.289.219 5.867 1.656 7.875 1.727 2.422 4.602 4.16 8.313 5.875 3.703-1.715 6.582-3.457 8.313-5.875 1.434-2.01 1.609-4.586 1.656-7.875.047-3.418.051-6.832 0-10.25m-9.969 1c .551 0 1 .449 1 1 0 .551-.449 1-1 1-.555 0-1-.449-1-1 0-.551.445-1 1-1m0 4c .551 0 1 .449 1 1 0 .551-.449 1-1 1-.555 0-1-.449-1-1 0-.551.445-1 1-1m-8 4c .551 0 1 .449 1 1 0 .551-.449 1-1 1-.555 0-1-.449-1-1 0-.551.445-1 1-1m4 0c .551 0 1 .449 1 1 0 .551-.449 1-1 1-.555 0-1-.449-1-1 0-.551.445-1 1-1m4 0c .551 0 1 .449 1 1 0 .551-.449 1-1 1-.555 0-1-.449-1-1 0-.551.445-1 1-1m4 0c .551 0 1 .449 1 1 0 .551-.449 1-1 1-.555 0-1-.449-1-1 0-.551.445-1 1-1m4 0c .551 0 1 .449 1 1 0 .551-.449 1-1 1-.555 0-1-.449-1-1 0-.551.445-1 1-1m-8 4c .551 0 1 .449 1 1 0 .551-.449 1-1 1-.555 0-1-.449-1-1 0-.551.445-1 1-1m0 4c .551 0 1 .449 1 1 0 .551-.449 1-1 1-.555 0-1-.449-1-1 0-.551.445-1 1-1m0 4c .551 0 1 .449 1 1 0 .551-.449 1-1 1-.555 0-1-.449-1-1 0-.551.445-1 1-1m0 0" fill="url(#b)" transform="translate(0 1)"/>
</svg>
