<svg xmlns="http://www.w3.org/2000/svg" viewBox="0 0 48 48">
 <defs>
  <linearGradient id="linearGradient3764" x1="1" x2="47" gradientUnits="userSpaceOnUse" gradientTransform="matrix(0,-1,1,0,-1.5e-6,47.999998)">
   <stop style="stop-color:#efeea1;stop-opacity:1"/>
   <stop offset="1" style="stop-color:#f2f2b3;stop-opacity:1"/>
  </linearGradient>
 </defs>
 <g>
  
  
  
 </g>
 <g>
  <path d="m 47,24 C 47,46.703 46.703,47 24,47 1.297,47 1,46.703 1,24 1,1.297 1.297,1 24,1 46.703,1 47,1.297 47,24 z" style="fill:url(#linearGradient3764);fill-opacity:1"/>
 </g>
 <g>
  <g>
   <g transform="translate(1,1)">
    <g style="opacity:0.1">
     <!-- color: #f2f2b3 -->
     <g>
      <path d="m 24 12 c -6.629 0 -12 5.371 -12 12 l 7 0 c 0 -2.762 2.238 -5 5 -5 l 10 0 c 1.109 0 2 -0.891 2 -2 l 0 -3 c 0 -1.109 -0.891 -2 -2 -2 m -5 12 c 0 2.762 -2.238 5 -5 5 l -10 0 c -1.109 0 -2 0.891 -2 2 l 0 3 c 0 1.109 0.891 2 2 2 l 10 0 c 6.629 0 12 -5.371 12 -12 m -7 0" style="fill:#000;fill-opacity:0.835;stroke:none;fill-rule:nonzero"/>
     </g>
    </g>
   </g>
  </g>
 </g>
 <g>
  <g>
   <!-- color: #f2f2b3 -->
   <g>
    <path d="m 24 12 c -6.629 0 -12 5.371 -12 12 l 7 0 c 0 -2.762 2.238 -5 5 -5 l 10 0 c 1.109 0 2 -0.891 2 -2 l 0 -3 c 0 -1.109 -0.891 -2 -2 -2 m -5 12 c 0 2.762 -2.238 5 -5 5 l -10 0 c -1.109 0 -2 0.891 -2 2 l 0 3 c 0 1.109 0.891 2 2 2 l 10 0 c 6.629 0 12 -5.371 12 -12 m -7 0" style="fill:#2d2d2d;fill-opacity:0.835;stroke:none;fill-rule:nonzero"/>
   </g>
  </g>
 </g>
 <g>
  
 </g>
</svg>
