<svg viewBox="0 0 48 48" xmlns="http://www.w3.org/2000/svg" xmlns:xlink="http://www.w3.org/1999/xlink">
  <linearGradient id="a" gradientTransform="matrix(0 -1 1 0 -.0000015 47.999998)" gradientUnits="userSpaceOnUse" x1="1" x2="47">
    <stop offset="0" stop-color="#575757"/>
    <stop offset="1" stop-color="#616161"/>
  </linearGradient>
  <path d="m47 24c0 22.703-.297 23-23 23-22.703 0-23-.297-23-23 0-22.703.297-23 23-23 22.703 0 23 .297 23 23z" fill="url(#a)"/>
  <path d="m22.02 12c-8.516 3.609-7.527 13.355.051 15.91 9.453 5.445 4.03 5.898 3.578 8.094 5.434-1.883 11.11-10.852-.078-16.43-5.805-2.297-6.672-4.836-3.543-7.57m-.008-.004" opacity=".1" transform="translate(1 1)"/>
  <path d="m22.02 12c-8.516 3.609-7.527 13.355.051 15.91 9.453 5.445 4.03 5.898 3.578 8.094 5.434-1.883 11.11-10.852-.078-16.43-5.805-2.297-6.672-4.836-3.543-7.57m-.008-.004" fill="#87c810"/>
</svg>
