<svg xmlns="http://www.w3.org/2000/svg" viewBox="0 0 48 48">
 <defs>
  <linearGradient id="linearGradient3764" x1="1" x2="47" gradientUnits="userSpaceOnUse" gradientTransform="matrix(0,-1,1,0,-1.5e-6,47.999998)">
   <stop style="stop-color:#575757;stop-opacity:1"/>
   <stop offset="1" style="stop-color:#616161;stop-opacity:1"/>
  </linearGradient>
 </defs>
 <g>
  
  
  
 </g>
 <g>
  <path d="m 47,24 C 47,46.703 46.703,47 24,47 1.297,47 1,46.703 1,24 1,1.297 1.297,1 24,1 46.703,1 47,1.297 47,24 z" style="fill:url(#linearGradient3764);fill-opacity:1"/>
 </g>
 <g>
  <g>
   <g transform="translate(1,1)">
    <g style="opacity:0.1">
     <!-- color: #616161 -->
     <g>
      <path d="m 22.02 12 c -8.516 3.609 -7.527 13.355 0.051 15.91 c 9.453 5.445 4.03 5.898 3.578 8.094 c 5.434 -1.883 11.11 -10.852 -0.078 -16.43 c -5.805 -2.297 -6.672 -4.836 -3.543 -7.57 m -0.008 -0.004" style="fill:#000;fill-opacity:1;stroke:none;fill-rule:nonzero"/>
     </g>
    </g>
   </g>
  </g>
 </g>
 <g>
  <g>
   <!-- color: #616161 -->
   <g>
    <path d="m 22.02 12 c -8.516 3.609 -7.527 13.355 0.051 15.91 c 9.453 5.445 4.03 5.898 3.578 8.094 c 5.434 -1.883 11.11 -10.852 -0.078 -16.43 c -5.805 -2.297 -6.672 -4.836 -3.543 -7.57 m -0.008 -0.004" style="fill:#87c810;fill-opacity:1;stroke:none;fill-rule:nonzero"/>
   </g>
  </g>
 </g>
 <g>
  
 </g>
</svg>
