<svg xmlns="http://www.w3.org/2000/svg" viewBox="0 0 48 48">
 <defs>
  <linearGradient id="linearGradient3764" x1="1" x2="47" gradientUnits="userSpaceOnUse" gradientTransform="matrix(0,-1,1,0,-1.5e-6,47.999998)">
   <stop style="stop-color:#717171;stop-opacity:1"/>
   <stop offset="1" style="stop-color:#7b7b7b;stop-opacity:1"/>
  </linearGradient>
 </defs>
 <g>
  
  
  
 </g>
 <g>
  <path d="m 47,24 C 47,46.703 46.703,47 24,47 1.297,47 1,46.703 1,24 1,1.297 1.297,1 24,1 46.703,1 47,1.297 47,24 z" style="fill:url(#linearGradient3764);fill-opacity:1"/>
 </g>
 <g>
  <g>
   <g transform="translate(1,1)">
    <g style="opacity:0.1">
     <!-- color: #7b7b7b -->
     <g>
      <path d="m 24 9 c -8.309 0 -15 6.691 -15 15 c 0 8.309 6.691 15 15 15 c 3.383 0 6.496 -1.125 9 -3 c -0.504 -0.07 -0.969 -0.313 -1.313 -0.688 l -8.656 -8.656 c -1.98 0.773 -4.309 0.379 -5.906 -1.219 c -1.598 -1.598 -2.023 -3.957 -1.25 -5.938 l 3.313 3.313 c 0.863 0.863 2.262 0.863 3.125 0 c 0.863 -0.863 0.863 -2.262 0 -3.125 l -3.313 -3.313 c 0.617 -0.242 1.281 -0.367 1.938 -0.375 c 1.441 -0.023 2.902 0.492 4 1.594 c 1.598 1.598 1.992 3.957 1.219 5.938 l 8.656 8.656 c 0.406 0.383 0.652 0.91 0.688 1.469 c 2.188 -2.605 3.5 -5.973 3.5 -9.656 c 0 -8.309 -6.691 -15 -15 -15 m 9.219 23.969 c -0.414 0 -0.75 0.336 -0.75 0.75 c 0 0.414 0.336 0.75 0.75 0.75 c 0.414 0 0.75 -0.336 0.75 -0.75 c 0 -0.414 -0.336 -0.75 -0.75 -0.75 m 0 0" style="fill:#000;fill-opacity:1;stroke:none;fill-rule:evenodd"/>
     </g>
    </g>
   </g>
  </g>
 </g>
 <g>
  <g>
   <!-- color: #7b7b7b -->
   <g>
    <path d="m 24 9 c -8.309 0 -15 6.691 -15 15 c 0 8.309 6.691 15 15 15 c 3.383 0 6.496 -1.125 9 -3 c -0.504 -0.07 -0.969 -0.313 -1.313 -0.688 l -8.656 -8.656 c -1.98 0.773 -4.309 0.379 -5.906 -1.219 c -1.598 -1.598 -2.023 -3.957 -1.25 -5.938 l 3.313 3.313 c 0.863 0.863 2.262 0.863 3.125 0 c 0.863 -0.863 0.863 -2.262 0 -3.125 l -3.313 -3.313 c 0.617 -0.242 1.281 -0.367 1.938 -0.375 c 1.441 -0.023 2.902 0.492 4 1.594 c 1.598 1.598 1.992 3.957 1.219 5.938 l 8.656 8.656 c 0.406 0.383 0.652 0.91 0.688 1.469 c 2.188 -2.605 3.5 -5.973 3.5 -9.656 c 0 -8.309 -6.691 -15 -15 -15 m 9.219 23.969 c -0.414 0 -0.75 0.336 -0.75 0.75 c 0 0.414 0.336 0.75 0.75 0.75 c 0.414 0 0.75 -0.336 0.75 -0.75 c 0 -0.414 -0.336 -0.75 -0.75 -0.75 m 0 0" style="fill:#fbc134;fill-opacity:1;stroke:none;fill-rule:evenodd"/>
   </g>
  </g>
 </g>
 <g>
  
 </g>
</svg>
