<svg viewBox="0 0 48 48" xmlns="http://www.w3.org/2000/svg" xmlns:xlink="http://www.w3.org/1999/xlink">
  <linearGradient id="a" gradientTransform="matrix(0 -1 1 0 -.0000015 47.999998)" gradientUnits="userSpaceOnUse" x1="1" x2="47">
    <stop offset="0" stop-color="#717171"/>
    <stop offset="1" stop-color="#7b7b7b"/>
  </linearGradient>
  <path d="m47 24c0 22.703-.297 23-23 23-22.703 0-23-.297-23-23 0-22.703.297-23 23-23 22.703 0 23 .297 23 23z" fill="url(#a)"/>
  <path d="m24 9c-8.309 0-15 6.691-15 15 0 8.309 6.691 15 15 15 3.383 0 6.496-1.125 9-3-.504-.07-.969-.313-1.313-.688l-8.656-8.656c-1.98.773-4.309.379-5.906-1.219-1.598-1.598-2.023-3.957-1.25-5.938l3.313 3.313c.863.863 2.262.863 3.125 0 .863-.863.863-2.262 0-3.125l-3.313-3.313c.617-.242 1.281-.367 1.938-.375 1.441-.023 2.902.492 4 1.594 1.598 1.598 1.992 3.957 1.219 5.938l8.656 8.656c.406.383.652.91.688 1.469 2.188-2.605 3.5-5.973 3.5-9.656 0-8.309-6.691-15-15-15m9.219 23.969c-.414 0-.75.336-.75.75 0 .414.336.75.75.75.414 0 .75-.336.75-.75 0-.414-.336-.75-.75-.75m0 0" fill-rule="evenodd" opacity=".1" transform="translate(1 1)"/>
  <path d="m24 9c-8.309 0-15 6.691-15 15 0 8.309 6.691 15 15 15 3.383 0 6.496-1.125 9-3-.504-.07-.969-.313-1.313-.688l-8.656-8.656c-1.98.773-4.309.379-5.906-1.219-1.598-1.598-2.023-3.957-1.25-5.938l3.313 3.313c.863.863 2.262.863 3.125 0 .863-.863.863-2.262 0-3.125l-3.313-3.313c.617-.242 1.281-.367 1.938-.375 1.441-.023 2.902.492 4 1.594 1.598 1.598 1.992 3.957 1.219 5.938l8.656 8.656c.406.383.652.91.688 1.469 2.188-2.605 3.5-5.973 3.5-9.656 0-8.309-6.691-15-15-15m9.219 23.969c-.414 0-.75.336-.75.75 0 .414.336.75.75.75.414 0 .75-.336.75-.75 0-.414-.336-.75-.75-.75m0 0" fill="#fbc134" fill-rule="evenodd"/>
</svg>
