<svg viewBox="0 0 48 48" xmlns="http://www.w3.org/2000/svg" xmlns:xlink="http://www.w3.org/1999/xlink">
  <linearGradient id="a" gradientUnits="userSpaceOnUse" x1="1" x2="47">
    <stop offset="0" stop-color="#bc4b00"/>
    <stop offset="1" stop-color="#d05300"/>
  </linearGradient>
  <path d="m24 1c22.703 0 23 .297 23 23 0 22.703-.297 23-23 23-22.703 0-23-.297-23-23 0-22.703.297-23 23-23z" fill="url(#a)" transform="matrix(0 -1 1 0 0 48)"/>
  <path d="m14 16c-.5 0-1 .498-1 .998h-.002c0 5.669 0 11.337 0 17.01h23.998v-14.932c0-.531-.5-1.066-1-1.066h-.996c-2.987-.016-6-.008-9-.008l-1-1.998z" opacity=".1" transform="matrix(1 0 0 1 0 -.00000001)"/>
  <path d="m12 16v14h23v-7l-1-6h-9l-1-2h-11c-.5 0-1 .5-1 1z" fill="#ff8f00"/>
  <path d="m14 18h11v4h-11z" fill="#fffdf0"/>
  <path d="m36 18.07v14.933h-24v-14h12l1-2h10c .5 0 1 .533 1 1.067z" fill="#ffca28"/>
  <path d="m27.75 20c-1.238 0-2.25 1.01-2.25 2.25 0 .093.019.191.031.281l-3.719 1.844c-.41-.395-.953-.625-1.563-.625-1.234 0-2.25 1.01-2.25 2.25 0 1.238 1.012 2.25 2.25 2.25.613 0 1.157-.23 1.563-.625l3.719 1.844c-.011.09-.031.187-.031.281 0 1.238 1.01 2.25 2.25 2.25 1.238 0 2.25-1.01 2.25-2.25 0-1.238-1.01-2.25-2.25-2.25-.606 0-1.157.234-1.563.625l-3.719-1.844c.003-.09.031-.187.031-.281 0-.093-.019-.191-.031-.281l3.719-1.844c.407.391.957.625 1.563.625 1.238 0 2.25-1.01 2.25-2.25 0-1.238-1.01-2.25-2.25-2.25z" fill="#403018" opacity=".4"/>
</svg>
