<svg xmlns="http://www.w3.org/2000/svg" viewBox="0 0 48 48">
 <defs>
  <linearGradient id="linearGradient3764" x1="1" x2="47" gradientUnits="userSpaceOnUse" gradientTransform="matrix(0,-1,1,0,-1.5e-6,47.999998)">
   <stop style="stop-color:#e4e4e4;stop-opacity:1"/>
   <stop offset="1" style="stop-color:#eee;stop-opacity:1"/>
  </linearGradient>
 </defs>
 <g>
  
  
  
 </g>
 <g>
  <path d="m 47,24 C 47,46.703 46.703,47 24,47 1.297,47 1,46.703 1,24 1,1.297 1.297,1 24,1 46.703,1 47,1.297 47,24 z" style="fill:url(#linearGradient3764);fill-opacity:1"/>
 </g>
 <g>
  
 </g>
 <g transform="matrix(0,1,-1,0,49,0)">
  <path d="m 13 11 c -0.554 0 -1 0.446 -1 1 l 0 24 c 0 0.554 0.446 1 1 1 l 24 0 c 0.554 0 1 -0.446 1 -1 l 0 -24 c 0 -0.554 -0.446 -1 -1 -1 l -24 0 z m 1 2 4 0 0 4 -4 0 0 -4 z m 6 0 4 0 0 4 -4 0 0 -4 z m 6 0 4 0 0 4 -4 0 0 -4 z m 6 0 4 0 0 4 -4 0 0 -4 z m -18 18 4 0 0 4 -4 0 0 -4 z m 6 0 4 0 0 4 -4 0 0 -4 z m 6 0 4 0 0 4 -4 0 0 -4 z m 6 0 4 0 0 4 -4 0 0 -4 z" style="fill:#000;fill-opacity:0.098"/>
  <path d="m 12 12 c -0.554 0 -1 0.446 -1 1 l 0 24 c 0 0.554 0.446 1 1 1 l 24 0 c 0.554 0 1 -0.446 1 -1 l 0 -24 c 0 -0.554 -0.446 -1 -1 -1 l -24 0 z m 1 2 4 0 0 4 -4 0 0 -4 z m 6 0 4 0 0 4 -4 0 0 -4 z m 6 0 4 0 0 4 -4 0 0 -4 z m 6 0 4 0 0 4 -4 0 0 -4 z m -18 18 4 0 0 4 -4 0 0 -4 z m 6 0 4 0 0 4 -4 0 0 -4 z m 6 0 4 0 0 4 -4 0 0 -4 z m 6 0 4 0 0 4 -4 0 0 -4 z" style="fill:#464646;fill-opacity:1"/>
 </g>
 <rect width="10" height="6" x="19" y="11" style="fill:#175c76;fill-opacity:1;stroke:none;fill-rule:evenodd"/>
 <rect y="31" x="19" height="6" width="10" style="fill:#175c76;fill-opacity:1;stroke:none;fill-rule:evenodd"/>
 <rect width="10" height="10" x="19" y="19" style="fill:#175c76;fill-opacity:1;stroke:none;fill-rule:evenodd"/>
</svg>
