<svg viewBox="0 0 48 48" xmlns="http://www.w3.org/2000/svg" xmlns:xlink="http://www.w3.org/1999/xlink">
  <linearGradient id="a" gradientUnits="userSpaceOnUse" x2="0" y1="47" y2="1">
    <stop offset="0" stop-color="#72c4b6"/>
    <stop offset="1" stop-color="#80cabd"/>
  </linearGradient>
  <path d="m24 1c22.703 0 23 .297 23 23 0 22.703-.297 23-23 23-22.703 0-23-.297-23-23 0-22.703.297-23 23-23z" fill="url(#a)"/>
  <path d="m23 10v7c0 2.209-1.791 4-4 4h-3l-6 6h7c2.209 0 4 1.791 4 4v3l6 6v-7c0-2.209 1.791-4 4-4h3l6-6h-7c-2.209 0-4-1.791-4-4v-3zm2 13a2 2 0 0 1 2 2 2 2 0 0 1-2 2 2 2 0 0 1-2-2 2 2 0 0 1  2-2z" opacity=".1"/>
  <path d="m22 9v7c0 2.209-1.791 4-4 4h-3l-6 6h7c2.209 0 4 1.791 4 4v3l6 6v-7c0-2.209 1.791-4 4-4h3l6-6h-7c-2.209 0-4-1.791-4-4v-3zm2 13a2 2 0 0 1 2 2 2 2 0 0 1-2 2 2 2 0 0 1-2-2 2 2 0 0 1  2-2z" fill="#456c83"/>
  <path d="m22 9v3l6 6v-3zm-7 11l-6 6h3l6-6zm21 2l-6 6h3l6-6zm-16 8v3l6 6v-3z" fill="#fff" fill-opacity=".173"/>
</svg>
