<svg xmlns="http://www.w3.org/2000/svg" viewBox="0 0 48 48">
 <defs>
  <linearGradient id="linearGradient3845" y1="47" x2="0" y2="1" gradientUnits="userSpaceOnUse">
   <stop style="stop-color:#72c4b6;stop-opacity:1"/>
   <stop offset="1" style="stop-color:#80cabd;stop-opacity:1"/>
  </linearGradient>
 </defs>
 <g>
  
  
  
 </g>
 <g>
  <path d="m 24 1 c 22.703 0 23 0.297 23 23 c 0 22.703 -0.297 23 -23 23 -22.703 0 -23 -0.297 -23 -23 0 -22.703 0.297 -23 23 -23 z" style="fill:url(#linearGradient3845);fill-opacity:1"/>
 </g>
 <g>
  
 </g>
 <path d="m 23 10 0 7 c 0 2.209 -1.791 4 -4 4 l -3 0 -6 6 7 0 c 2.209 0 4 1.791 4 4 l 0 3 6 6 0 -7 c 0 -2.209 1.791 -4 4 -4 l 3 0 6 -6 -7 0 c -2.209 0 -4 -1.791 -4 -4 l 0 -3 -6 -6 z m 2 13 a 2 2 0 0 1 2 2 2 2 0 0 1 -2 2 2 2 0 0 1 -2 -2 2 2 0 0 1 2 -2 z" style="fill:#000;opacity:0.1;fill-opacity:1;stroke:none"/>
 <path d="m 22 9 0 7 c 0 2.209 -1.791 4 -4 4 l -3 0 -6 6 7 0 c 2.209 0 4 1.791 4 4 l 0 3 6 6 0 -7 c 0 -2.209 1.791 -4 4 -4 l 3 0 6 -6 -7 0 c -2.209 0 -4 -1.791 -4 -4 l 0 -3 -6 -6 z m 2 13 a 2 2 0 0 1 2 2 2 2 0 0 1 -2 2 2 2 0 0 1 -2 -2 2 2 0 0 1 2 -2 z" style="fill:#456c83;opacity:1;fill-opacity:1;stroke:none"/>
 <path d="m 22 9 0 3 6 6 0 -3 -6 -6 z m -7 11 -6 6 3 0 6 -6 -3 0 z m 21 2 -6 6 3 0 6 -6 -3 0 z m -16 8 0 3 6 6 0 -3 -6 -6 z" style="fill:#fff;opacity:1;fill-opacity:0.173;stroke:none"/>
</svg>
