<svg viewBox="0 0 48 48" xmlns="http://www.w3.org/2000/svg" xmlns:xlink="http://www.w3.org/1999/xlink">
  <linearGradient id="a" gradientTransform="matrix(0 -1 1 0 -.0000015 47.999998)" gradientUnits="userSpaceOnUse" x1="1" x2="47">
    <stop offset="0" stop-color="#d8e3a1"/>
    <stop offset="1" stop-color="#dee8b0"/>
  </linearGradient>
  <path d="m47 24c0 22.703-.297 23-23 23-22.703 0-23-.297-23-23 0-22.703.297-23 23-23 22.703 0 23 .297 23 23z" fill="url(#a)"/>
  <path d="m30 12c-5.446 0-10 3-10 7 0 6 8.5 7.658 8.5 12 0 2.485-2.5 5-6.5 5-3.314 0-6-2.01-6-4.5 0-1.349.808-2.546 2.063-3.371-1.01-1.098-2.396-2.371-4.25-1.457-1.899.937-2.813 2.785-2.813 4.527 0 3.756 4.925 6.801 11 6.801 3.5 0 7-1 9.625-2.75 2.625-1.75 4.375-4.25 4.375-7.25 0-6-9-8-9-11.5 0-1.5 1.753-2.5 4-2.5 2.247 0 4 1.142 4 2.5 0 .818-.711 1.677-1.77 2.067 2.131 1.609 4.77.433 4.77-2.167 0-2.745-4.223-4.4-8-4.4" opacity=".1"/>
  <path d="m29 11c-5.446 0-10 3-10 7 0 6 8.5 7.658 8.5 12 0 2.485-2.5 5-6.5 5-3.314 0-6-2.01-6-4.5 0-1.349.808-2.546 2.063-3.371-1.01-1.098-2.396-2.371-4.25-1.457-1.899.937-2.813 2.785-2.813 4.527 0 3.756 4.925 6.801 11 6.801 3.5 0 7-1 9.625-2.75 2.625-1.75 4.375-4.25 4.375-7.25 0-6-9-8-9-11.5 0-1.5 1.753-2.5 4-2.5 2.247 0 4 1.142 4 2.5 0 .818-.711 1.677-1.77 2.067 2.131 1.609 4.77.433 4.77-2.167 0-2.745-4.223-4.4-8-4.4" fill="#636b3d"/>
</svg>
