<svg xmlns="http://www.w3.org/2000/svg" viewBox="0 0 48 48">
 <g>
  
  
  
 </g>
 <g transform="matrix(0,-1,1,0,0,48)" style="fill:#ba6b22;fill-opacity:1">
  <path d="M 24,1 C 46.703,1 47,1.297 47,24 47,46.703 46.703,47 24,47 1.297,47 1,46.703 1,24 1,1.297 1.297,1 24,1 z"/>
 </g>
 <g>
  
 </g>
 <path d="m 38 12 -2 2 -2 5 -2 -2 -1 0 0 -3 -6 0 0 3 -6 0 0 -3 -6 0 0 3 0 2 2 0 0 1 -4 0 0 10 4 0 0 1 -2 0 0 2 0 3 6 0 0 -3 6 0 0 3 6 0 0 -3 1 0 2 -2 2 5 2 2 1 -1 -2 -2 0 -20 2 -2 -1 -1 z" style="fill:#000;opacity:0.1;fill-opacity:1;stroke:none;fill-rule:nonzero"/>
 <path d="m 35 13 l -2 5 l -2 -2 l -17 0 l 0 16 l 17 0 l 2 -2 l 2 5 l 0 -22 z" style="fill:#ff7b42;fill-opacity:1;stroke:none;fill-rule:nonzero"/>
 <rect width="14" height="14" x="14" y="17" style="fill:#ff0;fill-opacity:1;stroke:none;fill-rule:nonzero"/>
 <rect width="6" height="3" x="12" y="32" style="fill:#353535;fill-opacity:1;stroke:none;fill-rule:nonzero"/>
 <rect width="2" height="2" x="12" y="30" style="fill:#353535;fill-opacity:1;stroke:none;fill-rule:nonzero"/>
 <rect y="-16" x="12" height="3" width="6" transform="scale(1,-1)" style="fill:#353535;fill-opacity:1;stroke:none;fill-rule:nonzero"/>
 <rect y="-18" x="12" height="2" width="2" transform="scale(1,-1)" style="fill:#353535;fill-opacity:1;stroke:none;fill-rule:nonzero"/>
 <rect width="4" height="10" x="10" y="19" style="fill:#353535;fill-opacity:1;stroke:none;fill-rule:nonzero"/>
 <rect y="-16" x="12" height="3" width="6" transform="scale(1,-1)" style="fill:#353535;fill-opacity:1;stroke:none;fill-rule:nonzero"/>
 <path d="m 28 17 4 2 0 10 -4 2 z" style="fill:#93ddff;fill-opacity:1;stroke:none"/>
 <path d="m 35 35 2 2 1 -1 -2 -2 0 -20 2 -2 -1 -1 -2 2 z" style="fill:#e4e000;fill-opacity:1;stroke:none"/>
 <rect y="-16" x="24" height="3" width="6" transform="scale(1,-1)" style="fill:#353535;fill-opacity:1;stroke:none;fill-rule:nonzero"/>
 <rect y="-35" x="24" height="3" width="6" transform="scale(1,-1)" style="fill:#353535;fill-opacity:1;stroke:none;fill-rule:nonzero"/>
</svg>
