<svg viewBox="0 0 48 48" xmlns="http://www.w3.org/2000/svg">
  <path d="m24 1c22.703 0 23 .297 23 23 0 22.703-.297 23-23 23-22.703 0-23-.297-23-23 0-22.703.297-23 23-23z" fill="#ba6b22" transform="matrix(0 -1 1 0 0 48)"/>
  <path d="m38 12l-2 2-2 5-2-2h-1v-3h-6v3h-6v-3h-6v3 2h2v1h-4v10h4v1h-2v2 3h6v-3h6v3h6v-3h1l2-2 2 5 2 2 1-1-2-2v-20l2-2z" opacity=".1"/>
  <path d="m35 13l-2 5-2-2h-17v16h17l2-2 2 5z" fill="#ff7b42"/>
  <path d="m14 17h14v14h-14z" fill="#ff0"/>
  <path d="m12 32h6v3h-6z" fill="#353535"/>
  <path d="m12 30h2v2h-2z" fill="#353535"/>
  <path d="m12-16h6v3h-6z" fill="#353535" transform="scale(1 -1)"/>
  <path d="m12-18h2v2h-2z" fill="#353535" transform="scale(1 -1)"/>
  <path d="m10 19h4v10h-4z" fill="#353535"/>
  <path d="m12-16h6v3h-6z" fill="#353535" transform="scale(1 -1)"/>
  <path d="m28 17l4 2v10l-4 2z" fill="#93ddff"/>
  <path d="m35 35l2 2 1-1-2-2v-20l2-2-1-1-2 2z" fill="#e4e000"/>
  <path d="m24-16h6v3h-6z" fill="#353535" transform="scale(1 -1)"/>
  <path d="m24-35h6v3h-6z" fill="#353535" transform="scale(1 -1)"/>
</svg>
