<svg viewBox="0 0 48 48" xmlns="http://www.w3.org/2000/svg" xmlns:xlink="http://www.w3.org/1999/xlink">
  <linearGradient id="a" gradientTransform="matrix(0 -1 1 0 -.0000015 47.999998)" gradientUnits="userSpaceOnUse" x1="1" x2="47">
    <stop offset="0" stop-color="#e4e4e4"/>
    <stop offset="1" stop-color="#eee"/>
  </linearGradient>
  <path d="m47 24c0 22.703-.297 23-23 23-22.703 0-23-.297-23-23 0-22.703.297-23 23-23 22.703 0 23 .297 23 23z" fill="url(#a)"/>
  <path d="m25 10c-2 0-5 2-5 6 0 7 16 3 16 18 0 .413-.027.829-.068 1.244 2.607-2.775 4.066-6.437 4.068-10.244.005-8.284-6.716-15-15-15zm-10.939 4.764c-2.602 2.774-4.058 6.433-4.061 10.236-.005 8.284 6.716 15 15 15 2 0 5-2 5-6 0-10-16-5-16-18 0-.413.023-.825.061-1.236z" opacity=".1"/>
  <path d="m24 9c-2 0-5 2-5 6 0 7 16 3 16 18 0 .413-.027.829-.068 1.244 2.607-2.775 4.066-6.437 4.068-10.244.005-8.284-6.716-15-15-15zm-10.939 4.764c-2.602 2.774-4.058 6.433-4.061 10.236-.005 8.284 6.716 15 15 15 2 0 5-2 5-6 0-10-16-5-16-18 0-.413.023-.825.061-1.236z" fill="#4284ce"/>
</svg>
