<svg xmlns="http://www.w3.org/2000/svg" viewBox="0 0 48 48">
 <defs>
  <linearGradient id="linearGradient3764" x1="1" x2="47" gradientUnits="userSpaceOnUse" gradientTransform="matrix(0,-1,1,0,-1.5e-6,47.999998)">
   <stop style="stop-color:#e4e4e4;stop-opacity:1"/>
   <stop offset="1" style="stop-color:#eee;stop-opacity:1"/>
  </linearGradient>
 </defs>
 <g>
  
  
  
 </g>
 <g>
  <path d="m 47,24 C 47,46.703 46.703,47 24,47 1.297,47 1,46.703 1,24 1,1.297 1.297,1 24,1 46.703,1 47,1.297 47,24 z" style="fill:url(#linearGradient3764);fill-opacity:1"/>
 </g>
 <g>
  
 </g>
 <path d="m 25 10 c -2 0 -5 2 -5 6 0 7 16 3 16 18 0 0.413 -0.027 0.829 -0.068 1.244 2.607 -2.775 4.066 -6.437 4.068 -10.244 0.005 -8.284 -6.716 -15 -15 -15 z m -10.939 4.764 c -2.602 2.774 -4.058 6.433 -4.061 10.236 c -0.005 8.284 6.716 15 15 15 2 0 5 -2 5 -6 0 -10 -16 -5 -16 -18 0 -0.413 0.023 -0.825 0.061 -1.236 z" style="fill:#000;opacity:0.1;fill-opacity:1;stroke:none"/>
 <path d="m 24 9 c -2 0 -5 2 -5 6 0 7 16 3 16 18 0 0.413 -0.027 0.829 -0.068 1.244 2.607 -2.775 4.066 -6.437 4.068 -10.244 0.005 -8.284 -6.716 -15 -15 -15 z m -10.939 4.764 c -2.602 2.774 -4.058 6.433 -4.061 10.236 c -0.005 8.284 6.716 15 15 15 2 0 5 -2 5 -6 0 -10 -16 -5 -16 -18 0 -0.413 0.023 -0.825 0.061 -1.236 z" style="fill:#4284ce;opacity:1;fill-opacity:1;stroke:none"/>
</svg>
