<svg viewBox="0 0 48 48" xmlns="http://www.w3.org/2000/svg" xmlns:xlink="http://www.w3.org/1999/xlink">
  <linearGradient id="a" gradientTransform="matrix(0 -1 1 0 -.0000015 47.999998)" gradientUnits="userSpaceOnUse" x1="1" x2="47">
    <stop offset="0" stop-color="#e4e4e4"/>
    <stop offset="1" stop-color="#eee"/>
  </linearGradient>
  <path d="m47 24c0 22.703-.297 23-23 23-22.703 0-23-.297-23-23 0-22.703.297-23 23-23 22.703 0 23 .297 23 23z" fill="url(#a)"/>
  <g opacity=".1" transform="translate(1 1)">
    <path d="m20.531 13c-.48 0-.949.156-1.406.469-.457.313-.766.695-.941 1.121l-.688 2.406h-3.03c-.957 0-1.762.34-2.438 1-.68.664-1.031 1.473-1.031 2.406v11.219c0 .934.352 1.715 1.031 2.375.676.66 1.48.996 2.438.996h19.06c.957 0 1.793-.34 2.469-.996.676-.664 1-1.445 1-2.375v-11.219c0-.934-.324-1.742-1-2.406-.676-.664-1.512-1-2.469-1h-3.03l-.688-2.406c-.168-.43-.48-.809-.938-1.125-.457-.313-.93-.469-1.406-.469m-3.91 6c3.285-.242 6.445 2.707 6.438 5.996 0 3.145-2.859 6-5.996 6-3.145 0-6-2.859-6-6-.008-3 2.57-5.781 5.563-5.996m-.004 0"/>
    <path d="m28 25.02c0 2.211-1.793 4-4 4-2.211 0-4-1.789-4-4 0-2.211 1.789-4 4-4 2.207 0 4 1.789 4 4m0 0"/>
  </g>
  <path d="m20.531 13c-.48 0-.949.156-1.406.469-.457.313-.766.695-.941 1.121l-.688 2.406h-3.03c-.957 0-1.762.34-2.438 1-.68.664-1.031 1.473-1.031 2.406v11.219c0 .934.352 1.715 1.031 2.375.676.66 1.48.996 2.438.996h19.06c.957 0 1.793-.34 2.469-.996.676-.664 1-1.445 1-2.375v-11.219c0-.934-.324-1.742-1-2.406-.676-.664-1.512-1-2.469-1h-3.03l-.688-2.406c-.168-.43-.48-.809-.938-1.125-.457-.313-.93-.469-1.406-.469m-3.91 6c3.285-.242 6.445 2.707 6.438 5.996 0 3.145-2.859 6-5.996 6-3.145 0-6-2.859-6-6-.008-3 2.57-5.781 5.563-5.996m-.004 0" fill="#36609c"/>
  <path d="m28 25.02c0 2.211-1.793 4-4 4-2.211 0-4-1.789-4-4 0-2.211 1.789-4 4-4 2.207 0 4 1.789 4 4m0 0" fill="#f80069"/>
</svg>
