<svg viewBox="0 0 48 48" xmlns="http://www.w3.org/2000/svg" xmlns:xlink="http://www.w3.org/1999/xlink">
  <linearGradient id="a" gradientUnits="userSpaceOnUse" x2="0" y1="1" y2="47">
    <stop offset="0" stop-color="#ff8275"/>
    <stop offset="1" stop-color="#ff7061"/>
  </linearGradient>
  <path d="m24 1c22.703 0 23 .297 23 23 0 22.703-.297 23-23 23-22.703 0-23-.297-23-23 0-22.703.297-23 23-23z" fill="url(#a)"/>
  <rect fill-opacity=".098" fill-rule="evenodd" height="24" rx="2" width="24" x="13" y="13"/>
  <rect fill="#afafaf" fill-rule="evenodd" height="24" rx="2" width="24" x="12" y="12"/>
  <rect fill="#8e8e8e" height="6" rx="1" width="6" x="14" y="14"/>
  <rect fill="#ececec" height="6" rx="1" width="6" x="21" y="14"/>
  <rect fill="#ececec" height="6" rx="1" width="6" x="28" y="14"/>
  <rect fill="#8e8e8e" height="6" rx="1" width="6" x="14" y="21"/>
  <rect fill="#8e8e8e" height="6" rx="1" width="6" x="21" y="21"/>
  <rect fill="#ececec" height="6" rx="1" width="6" x="28" y="21"/>
  <rect fill="#ececec" height="6" rx="1" width="6" x="14" y="28"/>
  <rect fill="#ececec" height="6" rx="1" width="6" x="21" y="28"/>
  <rect fill="#8e8e8e" height="6" rx="1" width="6" x="28" y="28"/>
  <path d="m17.253 16.819c-.172 0-.302.056-.388.169-.085.111-.148.278-.148.501 0 .223.063.391.148.503.087.111.216.166.388.166.174 0 .303-.055.388-.166.087-.112.15-.28.15-.503 0-.223-.064-.39-.15-.501-.085-.112-.215-.169-.388-.169zm1.216-1.832v.705c-.162-.077-.314-.133-.457-.169-.143-.037-.283-.056-.419-.056-.293 0-.521.082-.685.245-.164.162-.259.403-.286.723.112-.083.234-.146.365-.187.131-.043.274-.064.429-.064.39 0 .704.114.943.342.24.228.36.527.36.897 0 .409-.134.737-.401.984-.267.245-.626.368-1.076.368-.496 0-.88-.167-1.152-.501-.271-.336-.406-.811-.406-1.426 0-.63.158-1.125.475-1.485.319-.361.755-.542 1.308-.542.175 0 .346.014.511.041.165.027.329.068.491.123z" fill="#292929" transform="scale(.98825176 1.0118879)"/>
  <path d="m15.536 21.949h3.01v.58l-1.556 3.411h-1l1.473-3.234h-1.922v-.756z" fill="#292929" transform="scale(.99766396 1.0023415)"/>
  <path d="m24.285 24.23q.396.102.601.357.207.252.207.643 0 .583-.446.887-.446.302-1.302.302-.302 0-.606-.05-.302-.047-.598-.144v-.779q.283.142.562.215.281.071.551.071.401 0 .614-.139.215-.139.215-.399 0-.268-.22-.404-.218-.139-.646-.139h-.404v-.651h.425q.381 0 .567-.118.186-.121.186-.365 0-.226-.181-.349-.181-.123-.512-.123-.244 0-.493.055-.249.055-.496.163v-.74q.299-.084.593-.126.294-.042.577-.042.764 0 1.142.252.381.249.381.753 0 .344-.181.564-.181.218-.535.307z" fill="#292929" transform="scale(1.016202 .98405631)"/>
  <path d="m29.934 33.06h1.772v.763h-2.927v-.763l1.47-1.297q.197-.178.291-.348.094-.17.094-.353 0-.283-.192-.456-.189-.173-.504-.173-.243 0-.531.105-.289.103-.618.308v-.885q.351-.116.693-.175.343-.062.672-.062.723 0 1.122.318.402.318.402.887 0 .329-.17.615-.17.283-.715.761l-.86.755z" fill="#292929" transform="scale(1.0250323 .97557902)"/>
</svg>
