<svg viewBox="0 0 48 48" xmlns="http://www.w3.org/2000/svg" xmlns:xlink="http://www.w3.org/1999/xlink">
  <linearGradient id="a" gradientUnits="userSpaceOnUse" x2="0" y1="47" y2="1">
    <stop offset="0" stop-color="#d07030"/>
    <stop offset="1" stop-color="#d47c41"/>
  </linearGradient>
  <path d="m24 1c22.703 0 23 .297 23 23 0 22.703-.297 23-23 23-22.703 0-23-.297-23-23 0-22.703.297-23 23-23z" fill="url(#a)"/>
  <path d="m12 14l13 25 13-25-9 4-4-4.5-4 4.5m4-1l3.5 4 4.5-2-8 16-8-16 4.5 2z" fill-opacity=".098"/>
  <path d="m11 13l13 25 13-25-9 4-4-4.5-4 4.5m4-1l3.5 4 4.5-2-8 16-8-16 4.5 2z" fill="#ececec"/>
  <path d="m25 21l1 2v6l-1 1-1-1v-6z" fill-opacity=".098"/>
  <path d="m24 20l1 2v6l-1 1-1-1v-6z" fill="#ececec"/>
</svg>
