<svg xmlns="http://www.w3.org/2000/svg" viewBox="0 0 48 48">
 <defs>
  <linearGradient id="linearGradient4189" y1="47" x2="0" y2="1" gradientUnits="userSpaceOnUse">
   <stop style="stop-color:#d07030;stop-opacity:1"/>
   <stop offset="1" style="stop-color:#d47c41;stop-opacity:1"/>
  </linearGradient>
 </defs>
 <g>
  
  
  
 </g>
 <g>
  <path d="m 24 1 c 22.703 0 23 0.297 23 23 c 0 22.703 -0.297 23 -23 23 -22.703 0 -23 -0.297 -23 -23 0 -22.703 0.297 -23 23 -23 z" style="fill:url(#linearGradient4189);fill-opacity:1"/>
 </g>
 <g>
  
 </g>
 <g>
  <path d="m 12 14 13 25 13 -25 -9 4 -4 -4.5 -4 4.5 m 4 -1 3.5 4 4.5 -2 -8 16 -8 -16 4.5 2 z" style="fill:#000;fill-opacity:0.098;stroke:none"/>
  <path d="m 11 13 13 25 13 -25 -9 4 -4 -4.5 -4 4.5 m 4 -1 3.5 4 4.5 -2 -8 16 -8 -16 4.5 2 z" style="fill:#ececec;fill-opacity:1;stroke:none"/>
  <path d="m 25 21 1 2 0 6 -1 1 -1 -1 0 -6 z" style="fill:#000;fill-opacity:0.098;stroke:none"/>
  <path d="m 24 20 1 2 0 6 -1 1 -1 -1 0 -6 z" style="fill:#ececec;fill-opacity:1;stroke:none"/>
 </g>
</svg>
