<svg viewBox="0 0 48 48" xmlns="http://www.w3.org/2000/svg" xmlns:xlink="http://www.w3.org/1999/xlink">
  <linearGradient id="a" gradientTransform="matrix(0 -1 1 0 -.0000015 47.999998)" gradientUnits="userSpaceOnUse" x1="1" x2="47">
    <stop offset="0" stop-color="#415164"/>
    <stop offset="1" stop-color="#485a70"/>
  </linearGradient>
  <linearGradient id="b" gradientTransform="matrix(.66548709 1.2757569 -1.2515993 .67833208 21.873437 -6.8605988)" gradientUnits="userSpaceOnUse" x2="0" y1="22" y2="10">
    <stop offset="0" stop-color="#c8c8c8" stop-opacity=".259"/>
    <stop offset="1" stop-color="#b4b4b4" stop-opacity="0"/>
  </linearGradient>
  <linearGradient id="c" gradientTransform="matrix(.66554528 1.2832529 -1.2517088 .68231777 21.874299 -7.1373548)" gradientUnits="userSpaceOnUse" x2="0" y1="21" y2="2">
    <stop offset="0" stop-color="#d2d2d2" stop-opacity=".706"/>
    <stop offset=".092" stop-color="#cecece" stop-opacity=".565"/>
    <stop offset="1" stop-color="#d7d7d7" stop-opacity=".259"/>
  </linearGradient>
  <linearGradient id="d" gradientTransform="matrix(.66548712 1.2814099 -1.2515994 .68133784 21.873437 -7.0665988)" gradientUnits="userSpaceOnUse" x2="0" y1="21" y2="4">
    <stop offset="0" stop-color="#fdfdfb" stop-opacity=".827"/>
    <stop offset=".254" stop-color="#fbfbf7" stop-opacity=".275"/>
    <stop offset="1" stop-color="#fafafa" stop-opacity=".196"/>
  </linearGradient>
  <linearGradient id="e" gradientTransform="matrix(.66554528 1.2832529 -1.2517088 .68231777 22.873861 -16.137414)" gradientUnits="userSpaceOnUse" x2="0" y1="21" y2="2">
    <stop offset="0" stop-opacity=".063"/>
    <stop offset=".092" stop-opacity=".055"/>
    <stop offset="1" stop-opacity=".008"/>
  </linearGradient>
  <linearGradient id="f" gradientTransform="matrix(.66548712 1.2814099 -1.2515994 .68133784 22.873394 -16.066826)" gradientUnits="userSpaceOnUse" x2="0" y1="21" y2="4">
    <stop offset="0" stop-opacity=".047"/>
    <stop offset=".254" stop-opacity=".024"/>
    <stop offset="1" stop-opacity=".004"/>
  </linearGradient>
  <linearGradient id="g" gradientTransform="matrix(.66548709 1.2757569 -1.2515993 .67833208 22.873437 -15.860599)" gradientUnits="userSpaceOnUse" x2="0" y1="22" y2="10">
    <stop offset="0" stop-opacity=".047"/>
    <stop offset="1" stop-opacity="0"/>
  </linearGradient>
  <path d="m47 24c0 22.703-.297 23-23 23-22.703 0-23-.297-23-23 0-22.703.297-23 23-23 22.703 0 23 .297 23 23z" fill="url(#a)"/>
  <g transform="translate(.00015728)">
    <path d="m45.5 27.515c0 0-29.611 7.866-32.27 2.763-2.662-5.103 17.773-27.28 17.773-27.28" fill="url(#g)"/>
    <path d="m19.565 30.11c-2.78 1.515-5.672 1.446-6.338.163-.829-1.598.896-3.78 3.676-5.296 2.78-1.515 19.679-8.493 20.11-7.668.428.825-14.664 11.286-17.445 12.801" fill="url(#e)"/>
    <path d="m19.232 29.473c-2.049 1.115-4.915 1.665-5.504.531-.61-1.175 1.459-3.26 3.508-4.375 2.049-1.115 15.782-6.708 16.02-6.254.236.454-11.972 8.983-14.02 10.1z" fill="url(#f)"/>
  </g>
  <g transform="translate(0 -9.9999998)">
    <path d="m44.5 36.515c0 0-29.611 7.866-32.27 2.763-2.662-5.103 17.773-26.28 17.773-26.28" fill="url(#b)"/>
    <path d="m18.565 39.11c-2.78 1.515-5.672 1.446-6.338.163-.829-1.598.896-3.78 3.676-5.296 2.78-1.515 19.679-8.493 20.11-7.668.428.825-14.664 11.286-17.445 12.801z" fill="url(#c)"/>
    <path d="m18.232 38.474c-2.049 1.115-4.915 1.665-5.504.531-.61-1.175 1.459-3.26 3.508-4.375 2.049-1.115 15.782-6.708 16.02-6.254.236.454-11.972 8.983-14.02 10.1z" fill="url(#d)"/>
  </g>
  <circle cx="29.5" cy="11.5" fill="#d3e5e9" fill-opacity=".757" r=".5"/>
  <circle cx="35.5" cy="9.5" fill="#d3e5e9" fill-opacity=".757" r=".5"/>
  <circle cx="14.5" cy="16.5" fill="#f1f0d1" fill-opacity=".758" r=".5"/>
  <circle cx="22.5" cy="18.5" fill="#f1f0d1" fill-opacity=".757" r=".5"/>
  <circle cx="38.5" cy="20.5" fill="#f1f0d1" fill-opacity=".757" r=".5"/>
  <circle cx="27.5" cy="29.5" fill="#d3e5e9" fill-opacity=".758" r=".5"/>
  <circle cx="11.5" cy="23.5" fill="#d3e5e9" fill-opacity=".758" r=".5"/>
  <circle cx="21.5" cy="9.5" fill="#d3e5e9" fill-opacity=".758" r=".5"/>
  <circle cx="9.5" cy="15.5" fill="#d3e5e9" fill-opacity=".758" r=".5"/>
  <circle cx="37.5" cy="14.5" fill="#f1f0d1" fill-opacity=".757" r=".5"/>
  <circle cx="36.5" cy="29.5" fill="#d3e5e9" fill-opacity=".758" r=".5"/>
  <circle cx="26.5" cy="34.5" fill="#d3e5e9" fill-opacity=".758" r=".5"/>
  <circle cx="6.5" cy="28.5" fill="#d3e5e9" fill-opacity=".758" r=".5"/>
  <circle cx="7.5" cy="20.5" fill="#d3e5e9" fill-opacity=".758" r=".5"/>
  <circle cx="42.5" cy="22.5" fill="#d3e5e9" fill-opacity=".758" r=".5"/>
  <circle cx="11.5" cy="10.5" fill="#d3e5e9" fill-opacity=".758" r=".5"/>
  <circle cx="15.5" cy="10.5" fill="#d3e5e9" fill-opacity=".758" r=".5"/>
  <circle cx="15.5" cy="5.5" fill="#f1f0d1" fill-opacity=".757" r=".5"/>
  <circle cx="6.5" cy="13.5" fill="#ece1d0" fill-opacity=".757" r=".5"/>
  <circle cx="32.5" cy="25.5" fill="#f1f0d1" fill-opacity=".757" r=".5"/>
  <circle cx="16.5" cy="20.5" fill="#ece1d0" fill-opacity=".758" r=".5"/>
  <circle cx="25.5" cy="6.5" fill="#d3e5e9" fill-opacity=".757" r=".5"/>
  <circle cx="22.5" cy="3.5" fill="#ece1d0" fill-opacity=".757" r=".5"/>
  <circle cx="40.5" cy="16.5" fill="#d3e5e9" fill-opacity=".757" r=".5"/>
  <circle cx="25.5" cy="15.5" fill="#d3e5e9" fill-opacity=".757" r=".5"/>
  <circle cx="40.5" cy="28.5" fill="#d3e5e9" fill-opacity=".757" r=".5"/>
  <circle cx="5.5" cy="24.5" fill="#f1f0d1" fill-opacity=".757" r=".5"/>
  <circle cx="9.5" cy="30.5" fill="#d3e5e9" fill-opacity=".758" r=".5"/>
  <path d="m23.5 4c-.276 0-.5.224-.5.5 0 .276.224.5.5.5.276 0 .5-.224.5-.5 0-.276-.224-.5-.5-.5zm-7 2c-.276 0-.5.224-.5.5 0 .276.224.5.5.5.276 0 .5-.224.5-.5 0-.276-.224-.5-.5-.5zm10 1c-.276 0-.5.224-.5.5 0 .276.224.5.5.5.276 0 .5-.224.5-.5 0-.276-.224-.5-.5-.5zm-4 3c-.276 0-.5.224-.5.5 0 .276.224.5.5.5.276 0 .5-.224.5-.5 0-.276-.224-.5-.5-.5m14 0c-.276 0-.5.224-.5.5 0 .276.224.5.5.5.276 0 .5-.224.5-.5 0-.276-.224-.5-.5-.5m-24 1c-.276 0-.5.224-.5.5 0 .276.224.5.5.5.276 0 .5-.224.5-.5 0-.276-.224-.5-.5-.5m4 0c-.276 0-.5.224-.5.5 0 .276.224.5.5.5.276 0 .5-.224.5-.5 0-.276-.224-.5-.5-.5m14 1c-.276 0-.5.224-.5.5 0 .276.224.5.5.5.276 0 .5-.224.5-.5 0-.276-.224-.5-.5-.5m-23 2c-.276 0-.5.224-.5.5 0 .276.224.5.5.5.276 0 .5-.224.5-.5 0-.276-.224-.5-.5-.5m14 1c-.276 0-.5.224-.5.5 0 .276.224.5.5.5.276 0 .5-.224.5-.5 0-.276-.224-.5-.5-.5m17 0c-.276 0-.5.224-.5.5 0 .276.224.5.5.5.276 0 .5-.224.5-.5 0-.276-.224-.5-.5-.5m-28 1c-.276 0-.5.224-.5.5 0 .276.224.5.5.5.276 0 .5-.224.5-.5 0-.276-.224-.5-.5-.5m16 0c-.276 0-.5.224-.5.5 0 .276.224.5.5.5.276 0 .5-.224.5-.5 0-.276-.224-.5-.5-.5m-11 1c-.276 0-.5.224-.5.5 0 .276.224.5.5.5.276 0 .5-.224.5-.5 0-.276-.224-.5-.5-.5m26 0c-.276 0-.5.224-.5.5 0 .276.224.5.5.5.276 0 .5-.224.5-.5 0-.276-.224-.5-.5-.5m-18 2c-.276 0-.5.224-.5.5 0 .276.224.5.5.5.276 0 .5-.224.5-.5 0-.276-.224-.5-.5-.5m-15 2c-.276 0-.5.224-.5.5 0 .276.224.5.5.5.276 0 .5-.224.5-.5 0-.276-.224-.5-.5-.5m9 0c-.276 0-.5.224-.5.5 0 .276.224.5.5.5.276 0 .5-.224.5-.5 0-.276-.224-.5-.5-.5m22 0c-.276 0-.5.224-.5.5 0 .276.224.5.5.5.276 0 .5-.224.5-.5 0-.276-.224-.5-.5-.5m4 2c-.276 0-.5.224-.5.5 0 .276.224.5.5.5.276 0 .5-.224.5-.5 0-.276-.224-.5-.5-.5m-31 1c-.276 0-.5.224-.5.5 0 .276.224.5.5.5.276 0 .5-.224.5-.5 0-.276-.224-.5-.5-.5m-6 1c-.276 0-.5.224-.5.5 0 .276.224.5.5.5.276 0 .5-.224.5-.5 0-.276-.224-.5-.5-.5m27 1c-.276 0-.5.224-.5.5 0 .276.224.5.5.5.276 0 .5-.224.5-.5 0-.276-.224-.5-.5-.5m-26 3c-.276 0-.5.224-.5.5 0 .276.224.5.5.5.276 0 .5-.224.5-.5 0-.276-.224-.5-.5-.5m34 0c-.276 0-.5.224-.5.5 0 .276.224.5.5.5.276 0 .5-.224.5-.5 0-.276-.224-.5-.5-.5m-13 1c-.276 0-.5.224-.5.5 0 .276.224.5.5.5.276 0 .5-.224.5-.5 0-.276-.224-.5-.5-.5m9 0c-.276 0-.5.224-.5.5 0 .276.224.5.5.5.276 0 .5-.224.5-.5 0-.276-.224-.5-.5-.5m-27 1c-.276 0-.5.224-.5.5 0 .276.224.5.5.5.276 0 .5-.224.5-.5 0-.276-.224-.5-.5-.5m12 4c-.276 0-.5.224-.5.5 0 .276.224.5.5.5.276 0 .5-.224.5-.5 0-.276-.224-.5-.5-.5m5 0c-.276 0-.5.224-.5.5 0 .276.224.5.5.5.276 0 .5-.224.5-.5 0-.276-.224-.5-.5-.5m-16 1c-.276 0-.5.224-.5.5 0 .276.224.5.5.5.276 0 .5-.224.5-.5 0-.276-.224-.5-.5-.5m6 0c-.276 0-.5.224-.5.5 0 .276.224.5.5.5.276 0 .5-.224.5-.5 0-.276-.224-.5-.5-.5m21 0c-.276 0-.5.224-.5.5 0 .276.224.5.5.5.276 0 .5-.224.5-.5 0-.276-.224-.5-.5-.5m-5 2c-.276 0-.5.224-.5.5 0 .276.224.5.5.5.276 0 .5-.224.5-.5 0-.276-.224-.5-.5-.5m-10 2c-.276 0-.5.224-.5.5 0 .276.224.5.5.5.276 0 .5-.224.5-.5 0-.276-.224-.5-.5-.5m-7 1c-.276 0-.5.224-.5.5 0 .276.224.5.5.5.276 0 .5-.224.5-.5 0-.276-.224-.5-.5-.5m12 1c-.276 0-.5.224-.5.5 0 .276.224.5.5.5.276 0 .5-.224.5-.5 0-.276-.224-.5-.5-.5" opacity=".1"/>
  <circle cx="21.5" cy="34.5" fill="#b0c2ca" r=".5"/>
  <circle cx="32.5" cy="37.5" fill="#c8cbb8" r=".5"/>
  <circle cx="10.5" cy="35.5" fill="#c8cbb8" r=".5"/>
  <circle cx="27.5" cy="41.5" fill="#b0c2ca" r=".5"/>
  <circle cx="20.5" cy="14.5" fill="#c8ccb9" r=".5"/>
  <circle cx="15.5" cy="40.5" fill="#b0c2ca" r=".5"/>
  <circle cx="16.5" cy="35.5" fill="#c8cbb8" r=".5"/>
  <circle cx="22.5" cy="39.5" fill="#c8cbb8" r=".5"/>
  <circle cx="37.5" cy="35.5" fill="#b0c2ca" r=".5"/>
</svg>
