<svg xmlns="http://www.w3.org/2000/svg" viewBox="0 0 48 48">
 <g>
  
  
  
 </g>
 <g transform="matrix(0,-1,1,0,0,48)" style="fill:#5a5daa;fill-opacity:1">
  <path d="M 24,1 C 46.703,1 47,1.297 47,24 47,46.703 46.703,47 24,47 1.297,47 1,46.703 1,24 1,1.297 1.297,1 24,1 z"/>
 </g>
 <path d="m 26.845 12.01 c -0.133 0.011 -0.274 0.055 -0.407 0.094 -1.061 0.309 -1.654 1.409 -1.345 2.469 l 0.845 2.876 -0.031 0 -5.755 1.688 -0.845 -2.876 c -0.309 -1.061 -1.41 -1.684 -2.471 -1.375 -1.061 0.309 -1.686 1.409 -1.376 2.469 l 0.845 2.907 -2.878 0.844 c -1.061 0.309 -1.654 1.409 -1.345 2.469 0.309 1.061 1.41 1.653 2.471 1.344 l 2.878 -0.844 1.689 5.782 -2.878 0.844 c -1.061 0.309 -1.686 1.409 -1.376 2.469 0.309 1.061 1.41 1.684 2.471 1.375 l 2.909 -0.844 0.845 2.876 c 0.309 1.061 1.41 1.653 2.471 1.344 1.061 -0.309 1.654 -1.409 1.345 -2.469 l -0.845 -2.876 5.787 -1.688 0.845 2.876 c 0.309 1.061 1.41 1.684 2.471 1.375 1.061 -0.309 1.686 -1.409 1.376 -2.469 l -0.845 -2.907 2.878 -0.844 c 1.061 -0.309 1.654 -1.409 1.345 -2.469 -0.309 -1.061 -1.41 -1.653 -2.471 -1.344 l -2.878 0.844 0 -0.031 -1.689 -5.751 2.878 -0.844 c 1.061 -0.309 1.686 -1.409 1.376 -2.469 c -0.309 -1.061 -1.41 -1.684 -2.471 -1.375 l -2.909 0.844 -0.845 -2.876 c -0.271 -0.928 -1.136 -1.514 -2.064 -1.438 z m 0.188 9.252 1.689 5.782 0 0.031 -5.755 1.657 -1.689 -5.751 0 -0.031 5.755 -1.688 z" style="fill:#000;opacity:0.1;fill-opacity:1;stroke:none;fill-rule:nonzero"/>
 <g>
  
 </g>
 <path d="m 25.844 11 c -0.132 0.011 -0.274 0.055 -0.406 0.094 c -1.06 0.309 -1.653 1.408 -1.344 2.469 l 0.844 2.875 l -0.031 0 l -5.75 1.688 l -0.844 -2.875 c -0.309 -1.06 -1.408 -1.684 -2.469 -1.375 c -1.06 0.309 -1.684 1.408 -1.375 2.469 l 0.844 2.906 l -2.875 0.844 c -1.06 0.309 -1.653 1.408 -1.344 2.469 c 0.309 1.06 1.408 1.653 2.469 1.344 l 2.875 -0.844 l 1.688 5.781 l -2.875 0.844 c -1.06 0.309 -1.684 1.408 -1.375 2.469 c 0.309 1.06 1.408 1.684 2.469 1.375 l 2.906 -0.844 l 0.844 2.875 c 0.309 1.06 1.408 1.653 2.469 1.344 c 1.06 -0.309 1.653 -1.408 1.344 -2.469 l -0.844 -2.875 l 5.781 -1.688 l 0.844 2.875 c 0.309 1.06 1.408 1.684 2.469 1.375 c 1.06 -0.309 1.684 -1.408 1.375 -2.469 l -0.844 -2.906 l 2.875 -0.844 c 1.06 -0.309 1.653 -1.408 1.344 -2.469 c -0.309 -1.06 -1.408 -1.653 -2.469 -1.344 l -2.875 0.844 l -1.688 -5.781 l 2.875 -0.844 c 1.06 -0.309 1.684 -1.408 1.375 -2.469 c -0.309 -1.06 -1.408 -1.684 -2.469 -1.375 l -2.906 0.844 l -0.844 -2.875 c -0.27 -0.928 -1.135 -1.514 -2.063 -1.438 z m 0.188 9.281 l 0.031 0 l 1.656 5.75 l 0 0.031 l -5.75 1.656 l -0.031 0 l -1.656 -5.75 l 0 -0.031 l 5.75 -1.656 z" style="fill:#f8f8fb;opacity:1;fill-opacity:1;stroke:none;fill-rule:nonzero"/>
</svg>
