<svg viewBox="0 0 48 48" xmlns="http://www.w3.org/2000/svg" xmlns:xlink="http://www.w3.org/1999/xlink">
  <linearGradient id="a" gradientTransform="matrix(0 -1 1 0 -.0000015 47.999998)" gradientUnits="userSpaceOnUse" x1="1" x2="47">
    <stop offset="0" stop-color="#e4e4e4"/>
    <stop offset="1" stop-color="#eee"/>
  </linearGradient>
  <path d="m47 24c0 22.703-.297 23-23 23-22.703 0-23-.297-23-23 0-22.703.297-23 23-23 22.703 0 23 .297 23 23z" fill="url(#a)"/>
  <g opacity=".1" transform="translate(1 1)">
    <path d="m30 14c-.277.277-.472.796-.617 1.447-.121-.147-.228-.29-.383-.447-1.192-.857-3.276-.969-5.107.271-1.017-.568-2.163-.888-3.893-.771.389.395.728.811 1.041 1.238-.513-.246-1.108-.454-1.877-.59-.058-.061-.102-.115-.164-.178-1.391-1-3-1.555-5 0 3 1 3 4.02 3 7.03h-.939l-.064 6c-.012 1.082.945 2 2 2h4c0 2-1 4-1 6 0 1.082 1.828 2 4 2 1.945 0 4-.918 4-2 0-2-1-4-1-6h4c1.055 0 2-.918 2-2v-6h-.996c0-5 0-7-3-8zm-5 20c .555 0 1 .449 1 1 0 .551-.445 1-1 1-.551 0-1-.449-1-1 0-.551.449-1 1-1z" transform="translate(-1 -1)"/>
    <path d="m23.938 33.988h.012c.004 0 .004.004.008.004.004 0 .004.004.004.008 0 .004 0 .004-.004.008-.004 0-.004 0-.008 0h-.004v.012h-.008v-.031m.008.004v.012h.004c0 0 0 0 0-.004.004 0 .004 0 .004-.004 0 0 0 0-.004 0 0-.004 0-.004 0-.004zm.035 0c-.004 0-.004 0-.008.004 0 0 0 .004 0 .008 0 0 0 .004 0 .004.004.004.004.004.008.004 0 0 .004 0 .004-.004 0 0 0-.004 0-.004 0-.004 0-.008 0-.008 0-.004-.004-.004-.004-.004m0-.004c.004 0 .008 0 .008.004.004.004.004.004.004.012 0 .004 0 .008-.004.012 0 0-.004.004-.008.004-.008 0-.008-.004-.012-.004-.004-.004-.004-.008-.004-.012 0-.008 0-.008.004-.012.004-.004.004-.004.012-.004m.02 0h .008l.008.02v-.02h.008v.031h-.008l-.008-.023v.023h-.008zm.027 0h .008l.008.012.008-.012h.008l-.012.02v.012h-.008v-.012z"/>
  </g>
  <path d="m15.06 21l-.063 6c-.012 1.082.945 2 2 2h4c0 2-1 4-1 6 0 1.082 1.828 2 4 2 1.945 0 4-.918 4-2 0-2-1-4-1-6h4c1.055 0 2-.918 2-2v-6m-9 12c .555 0 1 .449 1 1 0 .551-.445 1-1 1-.551 0-1-.449-1-1 0-.551.449-1 1-1m0 0" fill="#d4a319"/>
  <path d="m20 21c .004-4 .004-5-2-7.03-1.391-1-3-1.555-5 0 3 1 3 4.02 3 7.03m4 0" fill="#9ab9dd"/>
  <path d="m23 21c0-2-.438-4-1-5-1.391-1-2.469-2-6-2.031 3 1 3 4.02 3 7.03m4 0" fill="#9add9c"/>
  <path d="m26 21c .004-4 .004-3.969-2-6-1.348-1-2.625-1.66-5-1.5 2 2.031 3 4.488 3 7.5m4 0" fill="#f3f284"/>
  <path d="m29 21c .004-4 1-4.969-1-7-1.391-1-4-1-6 1 4-.516 3 2.988 3 6m4 0" fill="#edb968"/>
  <path d="m32 21c0-5 0-7-3-8-1 1-1 4.988-1 8m4 0" fill="#ed8e68"/>
  <path d="m23.938 33.988h.012c.004 0 .004.004.008.004.004 0 .004.004.004.008 0 .004 0 .004-.004.008-.004 0-.004 0-.008 0h-.004v.012h-.008v-.031m.008.004v.012h.004c0 0 0 0 0-.004.004 0 .004 0 .004-.004 0 0 0 0-.004 0 0-.004 0-.004 0-.004zm.035 0c-.004 0-.004 0-.008.004 0 0 0 .004 0 .008 0 0 0 .004 0 .004.004.004.004.004.008.004 0 0 .004 0 .004-.004 0 0 0-.004 0-.004 0-.004 0-.008 0-.008 0-.004-.004-.004-.004-.004m0-.004c.004 0 .008 0 .008.004.004.004.004.004.004.012 0 .004 0 .008-.004.012 0 0-.004.004-.008.004-.008 0-.008-.004-.012-.004-.004-.004-.004-.008-.004-.012 0-.008 0-.008.004-.012.004-.004.004-.004.012-.004m.02 0h .008l.008.02v-.02h.008v.031h-.008l-.008-.023v.023h-.008zm.027 0h .008l.008.012.008-.012h.008l-.012.02v.012h-.008v-.012z" fill="#4a4a4a"/>
</svg>
