<svg viewBox="0 0 48 48" xmlns="http://www.w3.org/2000/svg" xmlns:xlink="http://www.w3.org/1999/xlink">
  <linearGradient id="a" gradientTransform="matrix(0 -1 1 0 0 48)" gradientUnits="userSpaceOnUse" x1="1" x2="47">
    <stop offset="0" stop-color="#ff5252"/>
    <stop offset="1" stop-color="#ff6565"/>
  </linearGradient>
  <path d="m1 24c0-22.703.297-23 23-23 22.703 0 23 .297 23 23 0 22.703-.297 23-23 23-22.703 0-23-.297-23-23z" fill="url(#a)"/>
  <path d="m25 18c-7.732 0-14 6.268-14 14h28c0-7.732-6.268-14-14-14z" opacity=".1"/>
  <path d="m38 31c0-7.732-6.268-14-14-14-7.732 0-14 6.268-14 14z" fill="#353535"/>
  <path d="m33 23.466a3.508 3.508 0 1 1-7.02 0 3.508 3.508 0 1 1  7.02 0z" fill="#f9f9f9" transform="matrix(.99758454 0 0 .99758454 .07971002 .09057889)"/>
  <path d="m31 23a1 1 0 1 1-2 0 1 1 0 1 1  2 0z" transform="matrix(1.5 0 0 1.5 -14.5 -12)"/>
</svg>
