<svg xmlns="http://www.w3.org/2000/svg" viewBox="0 0 48 48">
 <defs>
  <linearGradient id="linearGradient3764" x1="1" x2="47" gradientUnits="userSpaceOnUse" gradientTransform="matrix(0,-1,1,0,-1.5e-6,47.999998)">
   <stop style="stop-color:#b4b4b4;stop-opacity:1"/>
   <stop offset="1" style="stop-color:#bebebe;stop-opacity:1"/>
  </linearGradient>
 </defs>
 <g>
  
  
  
 </g>
 <g>
  <path d="m 47,24 C 47,46.703 46.703,47 24,47 1.297,47 1,46.703 1,24 1,1.297 1.297,1 24,1 46.703,1 47,1.297 47,24 z" style="fill:url(#linearGradient3764);fill-opacity:1"/>
 </g>
 <g>
  
 </g>
 <path d="m 35.603 15 c 0.839 0.015 1.631 0.104 2.429 0.381 0.251 1.701 -0.163 3.466 -0.619 5.096 -1.161 3.739 -3.316 7.288 -6.477 9.668 -0.116 0.11 -0.281 0.136 -0.238 0.333 0.017 0.828 0.002 1.694 0 2.524 -0.034 1.452 -0.909 2.84 -2.191 3.524 -1.522 0.801 -3.04 1.544 -4.572 2.334 -0.705 0.374 -1.684 -0.055 -1.905 -0.81 -0.135 -0.496 -0.04 -1.018 -0.048 -1.524 0.005 -1.067 0.137 -2.138 0.095 -3.191 -1.395 -0.173 -2.797 -0.849 -3.62 -2 -0.734 -0.983 -0.995 -2.254 -0.905 -3.477 -1.492 -0.266 -3.03 -0.492 -4.525 -0.762 -0.885 -0.177 -1.269 -1.328 -0.714 -2.048 1.088 -1.378 2.181 -2.728 3.286 -4.096 0.893 -1.067 2.291 -1.658 3.667 -1.476 0.934 0.149 1.889 0.35 2.81 0.524 2.973 -2.832 6.969 -4.401 11 -4.858 0.828 -0.075 1.686 -0.156 2.524 -0.143 z m -5.05 3.096 c -0.974 -0.088 -1.952 0.182 -2.762 0.857 -1.621 1.35 -1.874 3.76 -0.524 5.382 1.35 1.621 3.76 1.874 5.382 0.524 1.621 -1.35 1.874 -3.76 0.524 -5.382 -0.675 -0.811 -1.645 -1.292 -2.619 -1.381 z m -0.095 1.286 c 0.649 0.059 1.264 0.364 1.715 0.905 0.901 1.082 0.749 2.671 -0.333 3.572 -1.082 0.901 -2.671 0.749 -3.572 -0.333 -0.901 -1.082 -0.749 -2.671 0.333 -3.572 0.541 -0.451 1.208 -0.631 1.857 -0.572 z m -15.479 10.383 c 0.334 -0.03 0.666 0.222 0.714 0.572 0.425 1.932 1.799 3.611 3.62 4.382 0.474 0.149 0.58 0.784 0.191 1.095 -0.799 0.665 -1.722 1.434 -2.524 2.096 -0.39 0.332 -0.898 -0.015 -0.905 -0.524 0.012 -0.405 0.059 -0.838 0.095 -1.238 -0.995 0.213 -1.969 0.497 -2.953 0.714 -0.464 0.096 -0.903 -0.463 -0.714 -0.905 0.389 -0.933 0.791 -1.834 1.191 -2.762 -0.403 -0.047 -0.79 -0.082 -1.191 -0.143 -0.496 -0.098 -0.69 -0.82 -0.286 -1.143 0.804 -0.676 1.615 -1.329 2.429 -2 0.095 -0.075 0.222 -0.133 0.333 -0.143 z" style="fill:#000;fill-opacity:0.118;stroke:none;fill-rule:nonzero"/>
 <path d="m 34.603 14 c 0.839 0.015 1.631 0.104 2.429 0.381 0.251 1.701 -0.163 3.466 -0.619 5.096 -1.161 3.739 -3.316 7.288 -6.477 9.668 -0.116 0.11 -0.281 0.136 -0.238 0.333 0.017 0.828 0.002 1.694 0 2.524 -0.034 1.452 -0.909 2.84 -2.191 3.524 -1.522 0.801 -3.04 1.544 -4.572 2.334 -0.705 0.374 -1.684 -0.055 -1.905 -0.81 -0.135 -0.496 -0.04 -1.018 -0.048 -1.524 0.005 -1.067 0.137 -2.138 0.095 -3.191 -1.395 -0.173 -2.797 -0.849 -3.62 -2 -0.734 -0.983 -0.995 -2.254 -0.905 -3.477 -1.492 -0.266 -3.03 -0.492 -4.525 -0.762 -0.885 -0.177 -1.269 -1.328 -0.714 -2.048 1.088 -1.378 2.181 -2.728 3.286 -4.096 0.893 -1.067 2.291 -1.658 3.667 -1.476 0.934 0.149 1.889 0.35 2.81 0.524 2.973 -2.832 6.969 -4.401 11 -4.858 0.828 -0.075 1.686 -0.156 2.524 -0.143 z m -5.05 3.096 c -0.974 -0.088 -1.952 0.182 -2.762 0.857 -1.621 1.35 -1.874 3.76 -0.524 5.382 1.35 1.621 3.76 1.874 5.382 0.524 1.621 -1.35 1.874 -3.76 0.524 -5.382 -0.675 -0.811 -1.645 -1.292 -2.619 -1.381 z m -0.095 1.286 c 0.649 0.059 1.264 0.364 1.715 0.905 0.901 1.082 0.749 2.671 -0.333 3.572 -1.082 0.901 -2.671 0.749 -3.572 -0.333 -0.901 -1.082 -0.749 -2.671 0.333 -3.572 0.541 -0.451 1.208 -0.631 1.857 -0.572 z m -15.479 10.383 c 0.334 -0.03 0.666 0.222 0.714 0.572 0.425 1.932 1.799 3.611 3.62 4.382 0.474 0.149 0.58 0.784 0.191 1.095 -0.799 0.665 -1.722 1.434 -2.524 2.096 -0.39 0.332 -0.898 -0.015 -0.905 -0.524 0.012 -0.405 0.059 -0.838 0.095 -1.238 -0.995 0.213 -1.969 0.497 -2.953 0.714 -0.464 0.096 -0.903 -0.463 -0.714 -0.905 0.389 -0.933 0.791 -1.834 1.191 -2.762 -0.403 -0.047 -0.79 -0.082 -1.191 -0.143 -0.496 -0.098 -0.69 -0.82 -0.286 -1.143 0.804 -0.676 1.615 -1.329 2.429 -2 0.095 -0.075 0.222 -0.133 0.333 -0.143 z" style="fill:#58595d;fill-opacity:1;stroke:none;fill-rule:nonzero"/>
</svg>
