<svg viewBox="0 0 48 48" xmlns="http://www.w3.org/2000/svg" xmlns:xlink="http://www.w3.org/1999/xlink">
  <linearGradient id="a" gradientTransform="matrix(0 -1 1 0 -.0000015 47.999998)" gradientUnits="userSpaceOnUse" x1="1" x2="47">
    <stop offset="0" stop-color="#b4b4b4"/>
    <stop offset="1" stop-color="#bebebe"/>
  </linearGradient>
  <path d="m47 24c0 22.703-.297 23-23 23-22.703 0-23-.297-23-23 0-22.703.297-23 23-23 22.703 0 23 .297 23 23z" fill="url(#a)"/>
  <path d="m35.603 15c .839.015 1.631.104 2.429.381.251 1.701-.163 3.466-.619 5.096-1.161 3.739-3.316 7.288-6.477 9.668-.116.11-.281.136-.238.333.017.828.002 1.694 0 2.524-.034 1.452-.909 2.84-2.191 3.524-1.522.801-3.04 1.544-4.572 2.334-.705.374-1.684-.055-1.905-.81-.135-.496-.04-1.018-.048-1.524.005-1.067.137-2.138.095-3.191-1.395-.173-2.797-.849-3.62-2-.734-.983-.995-2.254-.905-3.477-1.492-.266-3.03-.492-4.525-.762-.885-.177-1.269-1.328-.714-2.048 1.088-1.378 2.181-2.728 3.286-4.096.893-1.067 2.291-1.658 3.667-1.476.934.149 1.889.35 2.81.524 2.973-2.832 6.969-4.401 11-4.858.828-.075 1.686-.156 2.524-.143zm-5.05 3.096c-.974-.088-1.952.182-2.762.857-1.621 1.35-1.874 3.76-.524 5.382 1.35 1.621 3.76 1.874 5.382.524 1.621-1.35 1.874-3.76.524-5.382-.675-.811-1.645-1.292-2.619-1.381zm-.095 1.286c.649.059 1.264.364 1.715.905.901 1.082.749 2.671-.333 3.572-1.082.901-2.671.749-3.572-.333-.901-1.082-.749-2.671.333-3.572.541-.451 1.208-.631 1.857-.572zm-15.479 10.383c.334-.03.666.222.714.572.425 1.932 1.799 3.611 3.62 4.382.474.149.58.784.191 1.095-.799.665-1.722 1.434-2.524 2.096-.39.332-.898-.015-.905-.524.012-.405.059-.838.095-1.238-.995.213-1.969.497-2.953.714-.464.096-.903-.463-.714-.905.389-.933.791-1.834 1.191-2.762-.403-.047-.79-.082-1.191-.143-.496-.098-.69-.82-.286-1.143.804-.676 1.615-1.329 2.429-2 .095-.075.222-.133.333-.143z" fill-opacity=".118"/>
  <path d="m34.603 14c .839.015 1.631.104 2.429.381.251 1.701-.163 3.466-.619 5.096-1.161 3.739-3.316 7.288-6.477 9.668-.116.11-.281.136-.238.333.017.828.002 1.694 0 2.524-.034 1.452-.909 2.84-2.191 3.524-1.522.801-3.04 1.544-4.572 2.334-.705.374-1.684-.055-1.905-.81-.135-.496-.04-1.018-.048-1.524.005-1.067.137-2.138.095-3.191-1.395-.173-2.797-.849-3.62-2-.734-.983-.995-2.254-.905-3.477-1.492-.266-3.03-.492-4.525-.762-.885-.177-1.269-1.328-.714-2.048 1.088-1.378 2.181-2.728 3.286-4.096.893-1.067 2.291-1.658 3.667-1.476.934.149 1.889.35 2.81.524 2.973-2.832 6.969-4.401 11-4.858.828-.075 1.686-.156 2.524-.143zm-5.05 3.096c-.974-.088-1.952.182-2.762.857-1.621 1.35-1.874 3.76-.524 5.382 1.35 1.621 3.76 1.874 5.382.524 1.621-1.35 1.874-3.76.524-5.382-.675-.811-1.645-1.292-2.619-1.381zm-.095 1.286c.649.059 1.264.364 1.715.905.901 1.082.749 2.671-.333 3.572-1.082.901-2.671.749-3.572-.333-.901-1.082-.749-2.671.333-3.572.541-.451 1.208-.631 1.857-.572zm-15.479 10.383c.334-.03.666.222.714.572.425 1.932 1.799 3.611 3.62 4.382.474.149.58.784.191 1.095-.799.665-1.722 1.434-2.524 2.096-.39.332-.898-.015-.905-.524.012-.405.059-.838.095-1.238-.995.213-1.969.497-2.953.714-.464.096-.903-.463-.714-.905.389-.933.791-1.834 1.191-2.762-.403-.047-.79-.082-1.191-.143-.496-.098-.69-.82-.286-1.143.804-.676 1.615-1.329 2.429-2 .095-.075.222-.133.333-.143z" fill="#58595d"/>
</svg>
