<svg viewBox="0 0 48 48" xmlns="http://www.w3.org/2000/svg" xmlns:xlink="http://www.w3.org/1999/xlink">
  <linearGradient id="a" gradientTransform="matrix(0 -1 1 0 0 48)" gradientUnits="userSpaceOnUse" x1="1" x2="47">
    <stop offset="0" stop-color="#f0b662"/>
    <stop offset="1" stop-color="#f2bf74"/>
  </linearGradient>
  <path d="m1 24c0-22.703.297-23 23-23 22.703 0 23 .297 23 23 0 22.703-.297 23-23 23-22.703 0-23-.297-23-23z" fill="url(#a)"/>
  <path d="m16.5 14c-2.485 0-4.5 2.01-4.5 4.5 0 2.485 2.01 4.5 4.5 4.5h4.156l-6.344 6.313c-1.757 1.757-1.757 4.618 0 6.375 1.757 1.757 4.618 1.757 6.375 0l6.313-6.344v4.156c0 2.485 2.01 4.5 4.5 4.5 2.485 0 4.5-2.01 4.5-4.5v-15c0-2.485-2.01-4.5-4.5-4.5z" opacity=".1"/>
  <path d="m15.5 13c-2.485 0-4.5 2.01-4.5 4.5 0 2.485 2.01 4.5 4.5 4.5h4.156l-6.344 6.313c-1.757 1.757-1.757 4.618 0 6.375 1.757 1.757 4.618 1.757 6.375 0l6.313-6.344v4.156c0 2.485 2.01 4.5 4.5 4.5 2.485 0 4.5-2.01 4.5-4.5v-15c0-2.485-2.01-4.5-4.5-4.5z" fill="#ff5326"/>
</svg>
