<svg xmlns="http://www.w3.org/2000/svg" viewBox="0 0 48 48">
 <defs>
  <linearGradient id="linearGradient3953" x1="1" x2="47" gradientUnits="userSpaceOnUse" gradientTransform="matrix(0,-1,1,0,0,48)">
   <stop style="stop-color:#f0b662;stop-opacity:1"/>
   <stop offset="1" style="stop-color:#f2bf74;stop-opacity:1"/>
  </linearGradient>
 </defs>
 <g>
  
  
  
 </g>
 <path d="M 1,24 C 1,1.297 1.297,1 24,1 46.703,1 47,1.297 47,24 47,46.703 46.703,47 24,47 1.297,47 1,46.703 1,24 z" style="fill:url(#linearGradient3953);fill-opacity:1"/>
 <g>
  
 </g>
 <path d="m 16.5 14 c -2.485 0 -4.5 2.01 -4.5 4.5 0 2.485 2.01 4.5 4.5 4.5 l 4.156 0 -6.344 6.313 c -1.757 1.757 -1.757 4.618 0 6.375 1.757 1.757 4.618 1.757 6.375 0 l 6.313 -6.344 0 4.156 c 0 2.485 2.01 4.5 4.5 4.5 2.485 0 4.5 -2.01 4.5 -4.5 l 0 -15 c 0 -2.485 -2.01 -4.5 -4.5 -4.5 l -15 0 z" style="fill:#000;opacity:0.1;fill-opacity:1;stroke:none;fill-rule:nonzero"/>
 <path d="m 15.5 13 c -2.485 0 -4.5 2.01 -4.5 4.5 0 2.485 2.01 4.5 4.5 4.5 l 4.156 0 -6.344 6.313 c -1.757 1.757 -1.757 4.618 0 6.375 1.757 1.757 4.618 1.757 6.375 0 l 6.313 -6.344 0 4.156 c 0 2.485 2.01 4.5 4.5 4.5 2.485 0 4.5 -2.01 4.5 -4.5 l 0 -15 c 0 -2.485 -2.01 -4.5 -4.5 -4.5 l -15 0 z" style="fill:#ff5326;fill-opacity:1;stroke:none;fill-rule:nonzero"/>
</svg>
