<svg viewBox="0 0 48 48" xmlns="http://www.w3.org/2000/svg" xmlns:xlink="http://www.w3.org/1999/xlink">
  <linearGradient id="a" gradientTransform="matrix(0 -1 1 0 -.0000015 47.999998)" gradientUnits="userSpaceOnUse" x1="1" x2="47">
    <stop offset="0" stop-color="#e4e4e4"/>
    <stop offset="1" stop-color="#eee"/>
  </linearGradient>
  <path d="m47 24c0 22.703-.297 23-23 23-22.703 0-23-.297-23-23 0-22.703.297-23 23-23 22.703 0 23 .297 23 23z" fill="url(#a)"/>
  <path d="m12 13v5l10 7-10 7v5l16-12zm16 12l10 8v-4l-5-4 5-4v-4z" opacity=".1"/>
  <path d="m11 36l16-12-16-12v5l10 7-10 7z" fill="#d8ab6b"/>
  <path d="m37 16l-10 8 10 8v-4l-5-4 5-4z" fill="#b26303"/>
</svg>
