<svg xmlns="http://www.w3.org/2000/svg" viewBox="0 0 48 48">
 <defs>
  <linearGradient id="linearGradient3764" x1="1" x2="47" gradientUnits="userSpaceOnUse" gradientTransform="matrix(0,-1,1,0,-1.5e-6,47.999998)">
   <stop style="stop-color:#e4e4e4;stop-opacity:1"/>
   <stop offset="1" style="stop-color:#eee;stop-opacity:1"/>
  </linearGradient>
 </defs>
 <g>
  
  
  
 </g>
 <g>
  <path d="m 47,24 C 47,46.703 46.703,47 24,47 1.297,47 1,46.703 1,24 1,1.297 1.297,1 24,1 46.703,1 47,1.297 47,24 z" style="fill:url(#linearGradient3764);fill-opacity:1"/>
 </g>
 <g>
  
 </g>
 <path d="m 12,13 0,5 10,7 -10,7 0,5 L 28,25 12,13 z m 16,12 10,8 0,-4 -5,-4 5,-4 0,-4 -10,8 z" style="fill:#000;opacity:0.1;fill-opacity:1;stroke:none"/>
 <path d="M 11,36 27,24 11,12 l 0,5 10,7 -10,7 z" style="fill:#d8ab6b;fill-opacity:1;stroke:none"/>
 <path d="m 37 16 -10 8 10 8 0 -4 -5 -4 5 -4 z" style="fill:#b26303;fill-opacity:1;stroke:none"/>
</svg>
