<svg viewBox="0 0 48 48" xmlns="http://www.w3.org/2000/svg" xmlns:xlink="http://www.w3.org/1999/xlink">
  <linearGradient id="a" gradientTransform="matrix(0 -1 1 0 -.0000015 47.999998)" gradientUnits="userSpaceOnUse" x1="1" x2="47">
    <stop offset="0" stop-color="#3d3d3d"/>
    <stop offset="1" stop-color="#474747"/>
  </linearGradient>
  <path d="m47 24c0 22.703-.297 23-23 23-22.703 0-23-.297-23-23 0-22.703.297-23 23-23 22.703 0 23 .297 23 23z" fill="url(#a)"/>
  <g opacity=".1" transform="translate(1 1)">
    <path d="m36 23c0 6.629-5.371 12-12 12-6.629 0-12-5.371-12-12 0-6.629 5.371-12 12-12 6.629 0 12 5.371 12 12m0 0"/>
    <path d="m18.773 25.02h10.457c.977 0 1.77.793 1.77 1.773v8.457c0 .977-.793 1.77-1.77 1.77h-10.457c-.98 0-1.773-.793-1.773-1.77v-8.457c0-.98.793-1.773 1.773-1.773m0 0"/>
  </g>
  <path d="m36 23c0 6.629-5.371 12-12 12-6.629 0-12-5.371-12-12 0-6.629 5.371-12 12-12 6.629 0 12 5.371 12 12m0 0" fill="#45b2e6"/>
  <path d="m18.773 25.02h10.457c.977 0 1.77.793 1.77 1.773v8.457c0 .977-.793 1.77-1.77 1.77h-10.457c-.98 0-1.773-.793-1.773-1.77v-8.457c0-.98.793-1.773 1.773-1.773m0 0" fill="#f9f9f9"/>
  <path d="m20 25.02h1.996v5h-1.996m0-5" fill="#2d2d2d"/>
  <path d="m26 25.02h2v5h-2m0-5" fill="#2d2d2d"/>
  <path d="m27 33v1c-2 1.332-4 1.328-6 0v-1c2 1.324 4 1.332 6 0m0 0" fill="#2d2d2d"/>
  <path d="m14 19c-.523 0-1.012.137-1.438.375-.367 1.148-.566 2.355-.566 3.625 0 .434.02.855.066 1.281.523.449 1.195.719 1.938.719 1.656 0 3-1.34 3-3 0-1.656-1.344-3-3-3m0 0" fill="#f9f9f9"/>
  <path d="m34 19c-1.656 0-3 1.344-3 3 0 1.66 1.344 3 3 3 .742 0 1.414-.27 1.941-.719.043-.426.063-.848.063-1.281 0-1.27-.199-2.477-.563-3.625-.43-.234-.914-.375-1.441-.375m0 0" fill="#f9f9f9"/>
  <path d="m19.938 11.719c-1.844.664-3.48 1.77-4.777 3.188.387 1.207 1.508 2.094 2.844 2.094 1.656 0 3-1.344 3-3 0-.918-.414-1.734-1.063-2.281m-.004 0" fill="#f9f9f9"/>
  <path d="m28.06 11.719c-.648.547-1.063 1.363-1.063 2.281 0 1.656 1.344 3 3 3 1.336 0 2.457-.887 2.848-2.094-1.297-1.418-2.938-2.523-4.781-3.188m-.004 0" fill="#f9f9f9"/>
  <path d="m27 20c0 1.656-1.344 3-3 3-1.656 0-3-1.344-3-3 0-1.656 1.344-3 3-3 1.656 0 3 1.344 3 3m0 0" fill="#f9f9f9"/>
</svg>
