<svg xmlns="http://www.w3.org/2000/svg" viewBox="0 0 48 48">
 <defs>
  <linearGradient id="linearGradient3764" x1="1" x2="47" gradientUnits="userSpaceOnUse" gradientTransform="matrix(0,-1,1,0,-1.5e-6,47.999998)">
   <stop style="stop-color:#3d3d3d;stop-opacity:1"/>
   <stop offset="1" style="stop-color:#474747;stop-opacity:1"/>
  </linearGradient>
 </defs>
 <g>
  
  
  
 </g>
 <g>
  <path d="m 47,24 C 47,46.703 46.703,47 24,47 1.297,47 1,46.703 1,24 1,1.297 1.297,1 24,1 46.703,1 47,1.297 47,24 z" style="fill:url(#linearGradient3764);fill-opacity:1"/>
 </g>
 <g>
  <g>
   <g transform="translate(1,1)">
    <g style="opacity:0.1">
     <!-- color: #474747 -->
     <g>
      <path d="m 36 23 c 0 6.629 -5.371 12 -12 12 c -6.629 0 -12 -5.371 -12 -12 c 0 -6.629 5.371 -12 12 -12 c 6.629 0 12 5.371 12 12 m 0 0" style="fill:#000;fill-opacity:1;stroke:none;fill-rule:nonzero"/>
      <path d="m 18.773 25.02 l 10.457 0 c 0.977 0 1.77 0.793 1.77 1.773 l 0 8.457 c 0 0.977 -0.793 1.77 -1.77 1.77 l -10.457 0 c -0.98 0 -1.773 -0.793 -1.773 -1.77 l 0 -8.457 c 0 -0.98 0.793 -1.773 1.773 -1.773 m 0 0" style="fill:#000;fill-opacity:1;stroke:none;fill-rule:nonzero"/>
     </g>
    </g>
   </g>
  </g>
 </g>
 <g>
  <g>
   <!-- color: #474747 -->
   <g>
    <path d="m 36 23 c 0 6.629 -5.371 12 -12 12 -6.629 0 -12 -5.371 -12 -12 0 -6.629 5.371 -12 12 -12 6.629 0 12 5.371 12 12 m 0 0" style="fill:#45b2e6;fill-opacity:1;stroke:none;fill-rule:nonzero"/>
    <path d="m 18.773,25.02 10.457,0 c 0.977,0 1.77,0.793 1.77,1.773 l 0,8.457 c 0,0.977 -0.793,1.77 -1.77,1.77 l -10.457,0 C 17.793,37.02 17,36.227 17,35.25 l 0,-8.457 c 0,-0.98 0.793,-1.773 1.773,-1.773 m 0,0" style="fill:#f9f9f9;fill-opacity:1;stroke:none;fill-rule:nonzero"/>
    <path d="m 20 25.02 1.996 0 0 5 -1.996 0 m 0 -5" style="fill:#2d2d2d;fill-opacity:1;stroke:none;fill-rule:nonzero"/>
    <path d="m 26 25.02 2 0 0 5 -2 0 m 0 -5" style="fill:#2d2d2d;fill-opacity:1;stroke:none;fill-rule:nonzero"/>
    <path d="m 27 33 0 1 c -2 1.332 -4 1.328 -6 0 l 0 -1 c 2 1.324 4 1.332 6 0 m 0 0" style="fill:#2d2d2d;fill-opacity:1;stroke:none;fill-rule:nonzero"/>
    <path d="m 14,19 c -0.523,0 -1.012,0.137 -1.438,0.375 -0.367,1.148 -0.566,2.355 -0.566,3.625 0,0.434 0.02,0.855 0.066,1.281 C 12.585,24.73 13.257,25 14,25 c 1.656,0 3,-1.34 3,-3 0,-1.656 -1.344,-3 -3,-3 m 0,0" style="fill:#f9f9f9;fill-opacity:1;stroke:none;fill-rule:nonzero"/>
    <path d="m 34,19 c -1.656,0 -3,1.344 -3,3 0,1.66 1.344,3 3,3 0.742,0 1.414,-0.27 1.941,-0.719 0.043,-0.426 0.063,-0.848 0.063,-1.281 0,-1.27 -0.199,-2.477 -0.563,-3.625 C 35.011,19.141 34.527,19 34,19 m 0,0" style="fill:#f9f9f9;fill-opacity:1;stroke:none;fill-rule:nonzero"/>
    <path d="m 19.938 11.719 c -1.844 0.664 -3.48 1.77 -4.777 3.188 0.387 1.207 1.508 2.094 2.844 2.094 1.656 0 3 -1.344 3 -3 0 -0.918 -0.414 -1.734 -1.063 -2.281 m -0.004 0" style="fill:#f9f9f9;fill-opacity:1;stroke:none;fill-rule:nonzero"/>
    <path d="m 28.06 11.719 c -0.648 0.547 -1.063 1.363 -1.063 2.281 0 1.656 1.344 3 3 3 1.336 0 2.457 -0.887 2.848 -2.094 -1.297 -1.418 -2.938 -2.523 -4.781 -3.188 m -0.004 0" style="fill:#f9f9f9;fill-opacity:1;stroke:none;fill-rule:nonzero"/>
    <path d="m 27 20 c 0 1.656 -1.344 3 -3 3 -1.656 0 -3 -1.344 -3 -3 0 -1.656 1.344 -3 3 -3 1.656 0 3 1.344 3 3 m 0 0" style="fill:#f9f9f9;fill-opacity:1;stroke:none;fill-rule:nonzero"/>
   </g>
  </g>
 </g>
 <g>
  
 </g>
</svg>
