<svg viewBox="0 0 48 48" xmlns="http://www.w3.org/2000/svg" xmlns:xlink="http://www.w3.org/1999/xlink">
  <linearGradient id="a" gradientTransform="matrix(0 -1 1 0 -.0000015 47.999998)" gradientUnits="userSpaceOnUse" x1="1" x2="47">
    <stop offset="0" stop-color="#f6b042"/>
    <stop offset="1" stop-color="#f7b754"/>
  </linearGradient>
  <path d="m24 1c22.703 0 23 .297 23 23 0 22.703-.297 23-23 23-22.703 0-23-.297-23-23 0-22.703.297-23 23-23z" fill="url(#a)"/>
  <path d="m25 11c-4.144 0-6.855 2.38-8.137 5.174-1.596-.05-3.192-.1-4.783-.174-.586-.031-1.145.648-1.066 1.098 1.01 6.68 1.063 12.918 0 19.801-.074.453.48 1.121 1.066 1.098h25.836c.598.023 1.148-.645 1.078-1.098-1.063-6.879-1.078-13.199 0-19.801.078-.453-.48-1.133-1.078-1.098-1.598.087-3.185.136-4.773.188-1.28-2.8-3.995-5.188-8.143-5.188zm0 1c3.2 0 5.576 1.981 6.875 4.236-4.613.123-9.19.108-13.74-.016 1.301-2.249 3.672-4.221 6.865-4.221z" opacity=".1" transform=""/>
  <g transform="translate(.00048846)">
    <path d="m11.08 15c-.586-.031-1.145.648-1.066 1.098 1.01 6.68 1.063 12.918 0 19.801-.074.453.48 1.121 1.066 1.098 8.617 0 17.227 0 25.836 0 .598.023 1.148-.645 1.078-1.098-1.063-6.879-1.078-13.199 0-19.801.078-.453-.48-1.133-1.078-1.098-8.738.473-17.32.395-25.836 0m0 0" fill="#f8ecde"/>
    <path d="m17 19.5c0 .828-.672 1.5-1.5 1.5-.828 0-1.5-.672-1.5-1.5 0-.828.672-1.5 1.5-1.5.828 0 1.5.672 1.5 1.5m0 0" fill="#a9946f"/>
    <path d="m34 19.5c0 .828-.672 1.5-1.5 1.5-.828 0-1.5-.672-1.5-1.5 0-.828.672-1.5 1.5-1.5.828 0 1.5.672 1.5 1.5m0 0" fill="#a9946f"/>
    <path d="m15.5 20c-.5 0-.5-.578-.5-1 0-4.01 3-9 9-9 5.996 0 9 4.988 9 9 0 .422 0 1-.5 1-.5 0-.5-.578-.5-1 0-3.168-3-8-8-8-5 0-8 4.832-8 8 0 .422 0 1-.496 1m0 0" fill="#e5d6be"/>
  </g>
</svg>
