<svg xmlns="http://www.w3.org/2000/svg" viewBox="0 0 48 48">
 <defs>
  <linearGradient id="linearGradient3764-0" x1="1" x2="47" gradientUnits="userSpaceOnUse" gradientTransform="matrix(0,-1,1,0,-1.5e-6,47.999998)">
   <stop style="stop-color:#f6b042;stop-opacity:1"/>
   <stop offset="1" style="stop-color:#f7b754;stop-opacity:1"/>
  </linearGradient>
 </defs>
 <g>
  
  
  
 </g>
 <g>
  <path d="M 24,1 C 46.703,1 47,1.297 47,24 47,46.703 46.703,47 24,47 1.297,47 1,46.703 1,24 1,1.297 1.297,1 24,1 z" style="fill:url(#linearGradient3764-0);fill-opacity:1"/>
 </g>
 <g>
  <g>
   <g transform="translate(1,1)">
    <g style="opacity:0.1">
     <!-- color: #f7b754 -->
     <g>
      <path d="m 25 11 c -4.144 0 -6.855 2.38 -8.137 5.174 c -1.596 -0.05 -3.192 -0.1 -4.783 -0.174 c -0.586 -0.031 -1.145 0.648 -1.066 1.098 c 1.01 6.68 1.063 12.918 0 19.801 c -0.074 0.453 0.48 1.121 1.066 1.098 l 25.836 0 c 0.598 0.023 1.148 -0.645 1.078 -1.098 c -1.063 -6.879 -1.078 -13.199 0 -19.801 c 0.078 -0.453 -0.48 -1.133 -1.078 -1.098 c -1.598 0.087 -3.185 0.136 -4.773 0.188 c -1.28 -2.8 -3.995 -5.188 -8.143 -5.188 z m 0 1 c 3.2 0 5.576 1.981 6.875 4.236 c -4.613 0.123 -9.19 0.108 -13.74 -0.016 c 1.301 -2.249 3.672 -4.221 6.865 -4.221 z" transform="translate(-1,-1)" style="fill:#000;fill-opacity:1;stroke:none;fill-rule:nonzero"/>
     </g>
    </g>
   </g>
  </g>
 </g>
 <g transform="translate(4.8845858e-4,0)">
  <path d="m 11.08 15 c -0.586 -0.031 -1.145 0.648 -1.066 1.098 1.01 6.68 1.063 12.918 0 19.801 -0.074 0.453 0.48 1.121 1.066 1.098 8.617 0 17.227 0 25.836 0 0.598 0.023 1.148 -0.645 1.078 -1.098 -1.063 -6.879 -1.078 -13.199 0 -19.801 0.078 -0.453 -0.48 -1.133 -1.078 -1.098 -8.738 0.473 -17.32 0.395 -25.836 0 m 0 0" style="fill:#f8ecde;fill-opacity:1;stroke:none;fill-rule:nonzero"/>
  <path d="M 17,19.5 C 17,20.328 16.328,21 15.5,21 14.672,21 14,20.328 14,19.5 14,18.672 14.672,18 15.5,18 c 0.828,0 1.5,0.672 1.5,1.5 m 0,0" style="fill:#a9946f;fill-opacity:1;stroke:none;fill-rule:nonzero"/>
  <path d="M 34,19.5 C 34,20.328 33.328,21 32.5,21 31.672,21 31,20.328 31,19.5 31,18.672 31.672,18 32.5,18 c 0.828,0 1.5,0.672 1.5,1.5 m 0,0" style="fill:#a9946f;fill-opacity:1;stroke:none;fill-rule:nonzero"/>
  <path d="M 15.5,20 C 15,20 15,19.422 15,19 c 0,-4.01 3,-9 9,-9 5.996,0 9,4.988 9,9 0,0.422 0,1 -0.5,1 C 32,20 32,19.422 32,19 c 0,-3.168 -3,-8 -8,-8 -5,0 -8,4.832 -8,8 0,0.422 0,1 -0.496,1 m 0,0" style="fill:#e5d6be;fill-opacity:1;stroke:none;fill-rule:nonzero"/>
 </g>
 <g>
  
 </g>
</svg>
