<svg viewBox="0 0 48 48" xmlns="http://www.w3.org/2000/svg" xmlns:xlink="http://www.w3.org/1999/xlink">
  <linearGradient id="a" gradientTransform="matrix(0 -1 1 0 -.0000015 47.999998)" gradientUnits="userSpaceOnUse" x1="1" x2="47">
    <stop offset="0" stop-color="#3d3d3d"/>
    <stop offset="1" stop-color="#474747"/>
  </linearGradient>
  <path d="m47 24c0 22.703-.297 23-23 23-22.703 0-23-.297-23-23 0-22.703.297-23 23-23 22.703 0 23 .297 23 23z" fill="url(#a)"/>
  <path d="m23.355 12.11c-1.918.645-.234 3.625-2.984 5.082-3.133 1.672-4.691-2.543-6.574.465-1.879 3.01 2.594 2.543 2.473 6.086-.125 3.543-4.563 2.789-2.898 5.914 1.668 3.121 3.516-.98 6.523.895 3.01 1.867.129 5.332 3.68 5.449 3.543.109.914-3.523 4.055-5.191 3.129-1.668 4.691 2.543 6.57-.465 1.883-3.01-2.594-2.543-2.473-6.078.129-3.543 4.563-2.789 2.898-5.918-1.664-3.121-3.516.977-6.523-.891-3.01-1.875-.129-5.336-3.676-5.449-.445-.016-.801.012-1.07.102m.031 9.02c1.586-.348 3.137.672 3.477 2.27.336 1.586-.676 3.152-2.254 3.484-1.59.34-3.141-.672-3.477-2.273-.336-1.59.672-3.145 2.254-3.48m0 0" opacity=".1" transform="translate(1 1)"/>
  <path d="m23.355 12.11c-1.918.645-.234 3.625-2.984 5.082-3.133 1.672-4.691-2.543-6.574.465-1.879 3.01 2.594 2.543 2.473 6.086-.125 3.543-4.563 2.789-2.898 5.914 1.668 3.121 3.516-.98 6.523.895 3.01 1.867.129 5.332 3.68 5.449 3.543.109.914-3.523 4.055-5.191 3.129-1.668 4.691 2.543 6.57-.465 1.883-3.01-2.594-2.543-2.473-6.078.129-3.543 4.563-2.789 2.898-5.918-1.664-3.121-3.516.977-6.523-.891-3.01-1.875-.129-5.336-3.676-5.449-.445-.016-.801.012-1.07.102m.031 9.02c1.586-.348 3.137.672 3.477 2.27.336 1.586-.676 3.152-2.254 3.484-1.59.34-3.141-.672-3.477-2.273-.336-1.59.672-3.145 2.254-3.48m0 0" fill="#3dd0ff"/>
</svg>
