<svg viewBox="0 0 48 48" xmlns="http://www.w3.org/2000/svg" xmlns:xlink="http://www.w3.org/1999/xlink">
  <linearGradient id="a" gradientUnits="userSpaceOnUse" x2="0" y1="1" y2="47">
    <stop offset="0" stop-color="#fffccd"/>
    <stop offset="1" stop-color="#fffbb9"/>
  </linearGradient>
  <linearGradient id="b" gradientUnits="userSpaceOnUse" x1="35.02" x2="12.06" y1="36.604" y2="11.149">
    <stop offset="0" stop-color="#3f3953"/>
    <stop offset="1" stop-color="#766b99"/>
  </linearGradient>
  <path d="m24 1c22.703 0 23 .297 23 23 0 22.703-.297 23-23 23-22.703 0-23-.297-23-23 0-22.703.297-23 23-23z" fill="url(#a)"/>
  <g fill="#999">
    <path d="m1 23h45.979l.031 1h-46.01z"/>
    <path d="m1.367 20h45.28l.165 1h-45.614z"/>
    <path d="m1.107 26h45.785l-.073 1-45.623.017z"/>
    <path d="m2.136 17h43.77l.307 1h-44.39z"/>
    <path d="m1.567 29l44.891-.019-.253 1.031-44.39-.011z"/>
  </g>
  <g opacity=".1" transform="translate(47 3)">
    <path d="m-15 31c0 2.761-3.134 5-7 5-3.866 0-7-2.239-7-5 0-2.761 3.134-5 7-5 3.866 0 7 2.239 7 5z" transform="translate(-5 -2)"/>
    <path d="m-20 29l-2-15c0 0 4 0 6 1 3.225 1.612 5 5 5 5v-7c0 0-3-2-7-3-4-1-7-1-7-1l4 20z"/>
  </g>
  <path d="m21 11l3.344 16.781c-1.284-1.086-3.198-1.781-5.344-1.781-3.866 0-7 2.239-7 5 0 2.761 3.134 5 7 5 3.866 0 7-2.239 7-5 0-.279-.032-.546-.094-.813l-1.906-14.188c0 0 4 0 6 1 3.225 1.612 5 5 5 5v-7c0 0-3-2-7-3-4-1-7-1-7-1z" fill="url(#b)"/>
</svg>
