<svg viewBox="0 0 48 48" xmlns="http://www.w3.org/2000/svg" xmlns:xlink="http://www.w3.org/1999/xlink">
  <linearGradient id="a" gradientTransform="matrix(0 -1 1 0 -.0000015 47.999998)" gradientUnits="userSpaceOnUse" x1="1" x2="47">
    <stop offset="0" stop-color="#e4e4e4"/>
    <stop offset="1" stop-color="#eee"/>
  </linearGradient>
  <path d="m47 24c0 22.703-.297 23-23 23-22.703 0-23-.297-23-23 0-22.703.297-23 23-23 22.703 0 23 .297 23 23z" fill="url(#a)"/>
  <path d="m36 13.977c0 0-2 3.01-5 3.01-2.797-.539-3.906-.082-4 0v12.11c-.133 2.551-2.223 5.109-5.336 6.285-3.949 1.492-8.125.195-9.332-2.91-1.211-3.098 1-6.855 4.953-8.348 3.059-1.152 5.867-.867 7.715.867v-12.01c4-2.664 7.719.957 11 1m0-.004" opacity=".1" transform="translate(1 1)"/>
  <path d="m36 13.977c0 0-2 3.01-5 3.01-2.797-.539-3.906-.082-4 0v12.11c-.133 2.551-2.223 5.109-5.336 6.285-3.949 1.492-8.125.195-9.332-2.91-1.211-3.098 1-6.855 4.953-8.348 3.059-1.152 5.867-.867 7.715.867v-12.01c4-2.664 7.719.957 11 1m0-.004" fill="#1086b9"/>
</svg>
