<svg viewBox="0 0 48 48" xmlns="http://www.w3.org/2000/svg" xmlns:xlink="http://www.w3.org/1999/xlink">
  <linearGradient id="a" gradientTransform="matrix(0 -1 1 0 -.0000015 47.999998)" gradientUnits="userSpaceOnUse" x1="1" x2="47">
    <stop offset="0" stop-color="#7eb3c6"/>
    <stop offset="1" stop-color="#8cbbcd"/>
  </linearGradient>
  <path d="m47 24c0 22.703-.297 23-23 23-22.703 0-23-.297-23-23 0-22.703.297-23 23-23 22.703 0 23 .297 23 23z" fill="url(#a)"/>
  <path d="m19.379 34.32c-.254-.422-.469-.836-.469-.93 0-.09-.52-.23-1.156-.313-.727-.098-1.148-.266-1.148-.461 0-.172.613-.719 1.359-1.227 1.703-1.156 2.84-2.48 2.57-2.984-.109-.203-1.066-.871-2.121-1.492-2.18-1.273-3.699-2.402-4.648-3.441-1.32-1.453-2.285-4.273-1.457-4.273.176 0 1.184.402 2.246.898 2.02.938 5.184 1.855 6.414 1.855 1.344 0 1.492-1.797.227-2.73-.582-.434-.672-.645-.672-1.617 0-1.012-.082-1.184-.844-1.793l-1.68-1.309 1.832.082c.629.027 1.031-.762 1.168-1.016.141-.25-.031-1.512 0-1.566.031-.051.777.805 1 1 .223.199.625.789 1.082.977 1.043.43 1.66 1.09 2.297 2.438.27.578.855 1.563 1.297 2.172.961 1.344.793 1.648-.676 1.211-1.273-.383-1.559-.195-1.559 1.035 0 1.043.262 1.254.813.652.234-.262.707-.457 1.098-.457 1.063 0 5.148-1.332 7.121-2.324 7.582-1.102-4.086 7.883-7.03 9.04-1.672.609-3.195 2.203-4.895 5.145-.641 1.109-1.289 2.059-1.438 2.105-.148.051-.484-.254-.738-.672m5.688-16.867c.168-.43-.465-1.137-.824-.914-.27.172-.34.883-.098 1.125.277.277.781.16.922-.211m0 0" opacity=".1" transform="translate(1 1)"/>
  <path d="m19.379 34.32c-.254-.422-.469-.836-.469-.93 0-.09-.52-.23-1.156-.313-.727-.098-1.148-.266-1.148-.461 0-.172.613-.719 1.359-1.227 1.703-1.156 2.84-2.48 2.57-2.984-.109-.203-1.066-.871-2.121-1.492-2.18-1.273-3.699-2.402-4.648-3.441-1.32-1.453-2.285-4.273-1.457-4.273.176 0 1.184.402 2.246.898 2.02.938 5.184 1.855 6.414 1.855 1.344 0 1.492-1.797.227-2.73-.582-.434-.672-.645-.672-1.617 0-1.012-.082-1.184-.844-1.793l-1.68-1.309 1.832.082c.629.027 1.031-.762 1.168-1.016.141-.25-.031-1.512 0-1.566.031-.051.777.805 1 1 .223.199.625.789 1.082.977 1.043.43 1.66 1.09 2.297 2.438.27.578.855 1.563 1.297 2.172.961 1.344.793 1.648-.676 1.211-1.273-.383-1.559-.195-1.559 1.035 0 1.043.262 1.254.813.652.234-.262.707-.457 1.098-.457 1.063 0 5.148-1.332 7.121-2.324 7.582-1.102-4.086 7.883-7.03 9.04-1.672.609-3.195 2.203-4.895 5.145-.641 1.109-1.289 2.059-1.438 2.105-.148.051-.484-.254-.738-.672m5.688-16.867c.168-.43-.465-1.137-.824-.914-.27.172-.34.883-.098 1.125.277.277.781.16.922-.211m0 0" fill="#2d2d2d"/>
</svg>
