<svg viewBox="0 0 48 48" xmlns="http://www.w3.org/2000/svg" xmlns:xlink="http://www.w3.org/1999/xlink">
  <linearGradient id="a" gradientTransform="matrix(0 -1 1 0 -.0000015 47.999998)" gradientUnits="userSpaceOnUse" x1="1" x2="47">
    <stop offset="0" stop-color="#3d3d3d"/>
    <stop offset="1" stop-color="#474747"/>
  </linearGradient>
  <path d="m47 24c0 22.703-.297 23-23 23-22.703 0-23-.297-23-23 0-22.703.297-23 23-23 22.703 0 23 .297 23 23z" fill="url(#a)"/>
  <path d="m23 14l-8.5 7h-1.816c-.379 0-.684.321-.684.719v6.563c0 .395.305.719.684.719h1.816l8.5 7v-9l1.5-2-1.5-2m9.5-6c0 0-5.5 8.515-5.5 11 0 2.485 2.462 5 5.5 5 3.038 0 5.5-2.515 5.5-5 0-2.485-5.5-11-5.5-11z" opacity=".1"/>
  <path d="m22 13l-8.5 7h-1.816c-.379 0-.684.321-.684.719v6.563c0 .395.305.719.684.719h1.816l8.5 7v-9l1.5-2-1.5-2" fill="#c1be67"/>
  <path d="m37 27c0 2.485-2.462 5-5.5 5-3.038 0-5.5-2.515-5.5-5 0-2.485 5.5-11 5.5-11 0 0 5.5 8.515 5.5 11z" fill="#fbab00"/>
</svg>
