<svg xmlns="http://www.w3.org/2000/svg" viewBox="0 0 48 48">
 <defs>
  <linearGradient id="linearGradient3764" x1="1" x2="47" gradientUnits="userSpaceOnUse" gradientTransform="matrix(0,-1,1,0,-1.5e-6,47.999998)">
   <stop style="stop-color:#51b8df;stop-opacity:1"/>
   <stop offset="1" style="stop-color:#62bee2;stop-opacity:1"/>
  </linearGradient>
 </defs>
 <g>
  
  
  
 </g>
 <g>
  <path d="m 47,24 C 47,46.703 46.703,47 24,47 1.297,47 1,46.703 1,24 1,1.297 1.297,1 24,1 46.703,1 47,1.297 47,24 z" style="fill:url(#linearGradient3764);fill-opacity:1"/>
 </g>
 <g>
  <g>
   <g transform="translate(1,1)">
    <g style="opacity:0.1">
     <!-- color: #62bee2 -->
     <g>
      <path d="m 34.36 13.62 c 3.488 3.488 3.488 9.166 0 12.654 -3.488 3.488 -9.167 3.49 -12.656 0 -3.488 -3.488 -3.487 -9.167 0 -12.656 3.488 -3.488 9.166 -3.488 12.654 0 z m -1.042 1.042 c -2.925 -2.925 -7.646 -2.927 -10.572 0 -2.925 2.925 -2.925 7.647 0 10.573 2.925 2.925 7.647 2.925 10.573 0 2.925 -2.925 2.924 -7.646 0 -10.572 z" mix-blend-mode="normal" isolation="auto" white-space="normal" solid-opacity="1" solid-color="#000000" style="visibility:visible;shape-rendering:auto;color-interpolation-filters:linearRGB;fill:#000;opacity:1;image-rendering:auto;fill-opacity:1;stroke:none;display:inline;color:#000;fill-rule:nonzero;color-rendering:auto;color-interpolation:sRGB"/>
      <path d="m 17.852 32.26 l -2.145 -2.148 l -4.734 4.734 l 2.145 2.145 m 4.734 -4.73" style="fill:#000;fill-opacity:1;stroke:none;fill-rule:nonzero"/>
      <path d="m 22.406 27.08 l -1.504 -1.504 l -4.734 4.734 l 1.504 1.504 m 4.734 -4.734" style="fill:#000;fill-opacity:1;stroke:none;fill-rule:nonzero"/>
     </g>
    </g>
   </g>
  </g>
 </g>
 <g>
  <g>
   <!-- color: #62bee2 -->
   <g>
    <path d="m 34.36 13.62 c 3.488 3.488 3.488 9.166 0 12.654 -3.488 3.488 -9.167 3.49 -12.656 0 -3.488 -3.488 -3.487 -9.167 0 -12.656 3.488 -3.488 9.166 -3.488 12.654 0 z m -1.042 1.042 c -2.925 -2.925 -7.646 -2.927 -10.572 0 -2.925 2.925 -2.925 7.647 0 10.573 2.925 2.925 7.647 2.925 10.573 0 2.925 -2.925 2.924 -7.646 0 -10.572 z" mix-blend-mode="normal" isolation="auto" white-space="normal" solid-opacity="1" solid-color="#000000" style="visibility:visible;shape-rendering:auto;color-interpolation-filters:linearRGB;fill:#f9f9f9;opacity:1;image-rendering:auto;fill-opacity:1;stroke:none;display:inline;color:#000;fill-rule:nonzero;color-rendering:auto;color-interpolation:sRGB"/>
    <path d="m 17.852 32.26 l -2.145 -2.148 l -4.734 4.734 l 2.145 2.145 m 4.734 -4.73" style="fill:#f9f9f9;fill-opacity:1;stroke:none;fill-rule:nonzero"/>
    <path d="m 22.406 27.08 l -1.504 -1.504 l -4.734 4.734 l 1.504 1.504 m 4.734 -4.734" style="fill:#f9f9f9;fill-opacity:1;stroke:none;fill-rule:nonzero"/>
   </g>
  </g>
 </g>
 <g>
  
 </g>
</svg>
