<svg viewBox="0 0 48 48" xmlns="http://www.w3.org/2000/svg" xmlns:xlink="http://www.w3.org/1999/xlink">
  <linearGradient id="a" gradientTransform="matrix(0 -1 1 0 -.0000015 47.999998)" gradientUnits="userSpaceOnUse" x1="1" x2="47">
    <stop offset="0" stop-color="#c8dae4"/>
    <stop offset="1" stop-color="#d6e4eb"/>
  </linearGradient>
  <path d="m47 24c0 22.703-.297 23-23 23-22.703 0-23-.297-23-23 0-22.703.297-23 23-23 22.703 0 23 .297 23 23z" fill="url(#a)"/>
  <g transform="translate(-.49999973 -.49984944)">
    <path d="m16.5 3.344c-8.731 1.076-12.364 5.485-12 10.938 0 3.571 3.358 6.469 7.5 6.469 4.142 0 7.5-2.898 7.5-6.469 0-3.106-2.55-5.721-5.938-6.344.47-1.233 1.358-2.673 2.938-4.594z" opacity=".1" transform="matrix(1.6639197 0 0 1.6639197 5.05356571 4.9546658)"/>
    <g transform="matrix(1.6639197 0 0 1.6639197 -13.490361 -11.962825)">
      <path d="m16.5 3.344c-8.731 1.076-12.364 5.485-12 10.938 0 3.571 3.358 6.469 7.5 6.469 4.142 0 7.5-2.898 7.5-6.469 0-3.106-2.55-5.721-5.937-6.344.47-1.233 1.358-2.673 2.937-4.594z" fill="#fec355" transform="translate(10.543734 9.5664429)"/>
      <path d="m24.524 20.692c-4.802.592-6.8 3.02-6.6 6.02 0 1.964 1.847 3.558 4.125 3.558 2.278 0 4.125-1.594 4.125-3.558 0-1.708-1.403-3.146-3.266-3.489.259-.678.747-1.47 1.616-2.527z" fill="#eb7413"/>
    </g>
  </g>
</svg>
