<svg viewBox="0 0 48 48" xmlns="http://www.w3.org/2000/svg" xmlns:xlink="http://www.w3.org/1999/xlink">
  <linearGradient id="a" gradientTransform="matrix(0 -1 1 0 -.0000015 47.999998)" gradientUnits="userSpaceOnUse" x1="1" x2="47">
    <stop offset="0" stop-color="#f15f1f"/>
    <stop offset="1" stop-color="#f26e32"/>
  </linearGradient>
  <path d="m47 24c0 22.703-.297 23-23 23-22.703 0-23-.297-23-23 0-22.703.297-23 23-23 22.703 0 23 .297 23 23z" fill="url(#a)"/>
  <path d="m24.855 13c-1.172.054-1.815.937-2.076 1.737-.631 1.936-1.183 3.832-1.862 5.619h-5.557c-.751 0-1.353.361-1.779.9-.929 1.119-.773 2.707.443 3.543 1.531 1.166 3.068 2.351 4.588 3.529l-1.82 5.536c-.005.016 0 .032-.014.048-.288 1.029.224 1.974.9 2.498.676.524 1.747.781 2.657.201 1.554-1.1 3.112-2.219 4.664-3.329 1.567 1.114 3.176 2.179 4.671 3.308.93.641 2.103.522 2.914-.221l.014-.007c.681-.644.924-1.571.657-2.464-.004-.012-.009-.023-.014-.035l-1.848-5.536c1.448-1.077 3.172-2.422 4.623-3.523 1.217-.84 1.397-2.454.45-3.571-.418-.504-1.025-.856-1.751-.879-1.923 0-3.853 0-5.779 0-.256-.885-1.073-3.733-1.716-5.633-.129-.381-.345-.772-.727-1.121-.382-.349-.982-.632-1.64-.602zm.152 2.561l1.917 6.305c.145.507.608.857 1.135.858h6.588c0 0-3.685 2.999-5.343 4.215-.42.303-.594.845-.429 1.336l2.111 6.305c-1.68-1.177-3.548-2.505-5.315-3.723-.41-.281-.952-.275-1.356.014l-5.253 3.751c0 0 1.423-4.418 2.062-6.353.156-.473-.002-.994-.394-1.301l-5.322-4.242h6.36c.479 0 .911-.29 1.093-.734.886-2.175 2.145-6.429 2.145-6.429z" opacity=".1"/>
  <path d="m23.855 12c-1.172.054-1.815.937-2.076 1.737-.631 1.936-1.183 3.832-1.862 5.619h-5.557c-.751 0-1.353.361-1.779.9-.929 1.119-.773 2.707.443 3.543 1.531 1.166 3.068 2.351 4.588 3.529l-1.82 5.536c-.005.016 0 .032-.014.048-.288 1.029.224 1.974.9 2.498.676.524 1.747.781 2.657.201 1.554-1.1 3.112-2.219 4.664-3.329 1.567 1.114 3.176 2.179 4.671 3.308.93.641 2.103.522 2.914-.221l.014-.007c.681-.644.924-1.571.657-2.464-.004-.012-.009-.023-.014-.035l-1.848-5.536c1.448-1.077 3.172-2.422 4.623-3.523 1.217-.84 1.397-2.454.45-3.571-.418-.504-1.025-.856-1.751-.879-1.923 0-3.853 0-5.779 0-.256-.885-1.073-3.733-1.716-5.633-.129-.381-.345-.772-.727-1.121-.382-.349-.982-.632-1.64-.602zm.152 2.561l1.917 6.305c.145.507.608.857 1.135.858h6.588c0 0-3.685 2.999-5.343 4.215-.42.303-.594.845-.429 1.336l2.111 6.305c-1.68-1.177-3.548-2.505-5.315-3.723-.41-.281-.952-.275-1.356.014l-5.253 3.751c0 0 1.423-4.418 2.062-6.353.156-.473-.002-.994-.394-1.301l-5.322-4.242h6.36c.479 0 .911-.29 1.093-.734.886-2.175 2.145-6.429 2.145-6.429z" fill="#f9f9f9"/>
</svg>
