<svg xmlns="http://www.w3.org/2000/svg" viewBox="0 0 48 48">
 <defs>
  <linearGradient id="linearGradient3764" x1="1" x2="47" gradientUnits="userSpaceOnUse" gradientTransform="matrix(0,-1,1,0,-1.5e-6,47.999998)">
   <stop style="stop-color:#c8dae4;stop-opacity:1"/>
   <stop offset="1" style="stop-color:#d6e4eb;stop-opacity:1"/>
  </linearGradient>
 </defs>
 <g>
  
  
  
 </g>
 <g>
  <path d="m 47,24 C 47,46.703 46.703,47 24,47 1.297,47 1,46.703 1,24 1,1.297 1.297,1 24,1 46.703,1 47,1.297 47,24 z" style="fill:url(#linearGradient3764);fill-opacity:1"/>
 </g>
 <g>
  
 </g>
 <g transform="translate(-0.49999973,-0.49984944)">
  <g transform="matrix(1.6639197,0,0,1.6639197,-12.490361,-10.963127)" style="fill:#000;opacity:0.1;fill-opacity:1">
   <g transform="translate(10.543734,9.5664429)">
    <path d="m 16.5 3.344 c -8.731 1.076 -12.364 5.485 -12 10.938 0 3.571 3.358 6.469 7.5 6.469 c 4.142 0 7.5 -2.898 7.5 -6.469 c 0 -3.106 -2.55 -5.721 -5.938 -6.344 0.47 -1.233 1.358 -2.673 2.938 -4.594 z" style="stroke:none"/>
   </g>
  </g>
  <g transform="matrix(1.6639197,0,0,1.6639197,-13.490361,-11.962825)">
   <g transform="translate(10.543734,9.5664429)">
    <path d="m 16.5 3.344 c -8.731 1.076 -12.364 5.485 -12 10.938 c 0 3.571 3.358 6.469 7.5 6.469 4.142 0 7.5 -2.898 7.5 -6.469 0 -3.106 -2.55 -5.721 -5.937 -6.344 0.47 -1.233 1.358 -2.673 2.937 -4.594 z" style="fill:#fec355;fill-opacity:1;stroke:none"/>
   </g>
   <path d="m 24.524 20.692 c -4.802 0.592 -6.8 3.02 -6.6 6.02 0 1.964 1.847 3.558 4.125 3.558 2.278 0 4.125 -1.594 4.125 -3.558 0 -1.708 -1.403 -3.146 -3.266 -3.489 0.259 -0.678 0.747 -1.47 1.616 -2.527 z" style="fill:#eb7413;fill-opacity:1;stroke:none"/>
  </g>
 </g>
</svg>
