<svg viewBox="0 0 48 48" xmlns="http://www.w3.org/2000/svg" xmlns:xlink="http://www.w3.org/1999/xlink">
  <linearGradient id="a" gradientTransform="matrix(0 -1 1 0 -.0000015 47.999998)" gradientUnits="userSpaceOnUse" x1="1" x2="47">
    <stop offset="0" stop-color="#3d3d3d"/>
    <stop offset="1" stop-color="#474747"/>
  </linearGradient>
  <path d="m47 24c0 22.703-.297 23-23 23-22.703 0-23-.297-23-23 0-22.703.297-23 23-23 22.703 0 23 .297 23 23z" fill="url(#a)"/>
  <path d="m23.734 12.02c-2.645.059-3.051.109-3.5.457-.613.477-1.309 1.895-1.227 2.496.094.68 1.246 1.016 2.969.867 1.668-.145 1.91.037 1.129.869-.387.414-.793.609-1.453.703-.5.07-1.034.148-1.188.172-.191.031-.133.137.184.332.053.032.154.06.246.088h-5.688c-1.769 0-3.207 1.281-3.207 2.855v.289c0 1.578 1.437 2.854 3.207 2.854h3.604c-.217.51-.389 1.039-.52 1.582l-4.592 2.67c-1.523.887-2.133 2.73-1.363 4.117l.141.25c.769 1.387 2.633 1.793 4.156.91l2.277-1.324c.844 1.866 2.237 3.469 4.066 4.535 3.105 1.805 6.942 1.805 10.05 0 3.106-1.808 5.01-5.144 4.973-8.738.017-1.604-.373-3.148-1.064-4.537.038-.189.064-.378.064-.564 0-.934-.469-2.445-1.297-4.203-.875-1.855-3.355-4.414-5.207-5.375-2.254-1.168-3.324-1.379-6.762-1.305z" opacity=".1" transform=""/>
  <path d="m22.867 12.766c.004.449-.273.867-.727 1.094-.453.223-1.016.223-1.469 0-.453-.227-.73-.645-.727-1.094-.004-.449.273-.867.727-1.094.453-.223 1.016-.223 1.469 0 .453.227.73.645.727 1.094m0 0" fill="#f9f9f9"/>
  <path d="m34.539 24.578c.844-.52 1.461-1.652 1.461-2.68 0-.934-.469-2.445-1.297-4.203-.875-1.855-3.355-4.414-5.207-5.375-2.254-1.168-3.324-1.379-6.762-1.305-2.645.059-3.051.109-3.5.457-.613.477-1.309 1.895-1.227 2.496.094.68 1.246 1.016 2.969.867 1.668-.145 1.91.039 1.129.871-.387.414-.793.609-1.453.703-.5.07-1.035.148-1.188.172-.191.031-.133.137.184.332.316.191 1.309.313 3.16.387 2.391.094 2.809.164 3.715.613 1.094.547 2.449 1.855 2.918 2.816.156.324.445 1.082.641 1.684.57 1.762 1.535 2.598 2.988 2.59.469-.004 1.078-.176 1.473-.422m-13.93-11.07c-.547-.586-.016-1.934.766-1.934.883 0 1.379 1.207.762 1.863-.348.367-1.211.406-1.527.074m0-.004" fill="#3c9d17"/>
  <path d="m37 27c .035 3.594-1.867 6.93-4.973 8.738-3.109 1.805-6.945 1.805-10.05 0-3.105-1.809-5-5.145-4.973-8.738-.031-3.594 1.867-6.93 4.973-8.738 3.109-1.805 6.945-1.805 10.05 0 3.105 1.809 5.01 5.145 4.973 8.738m0 0" fill="#dc9d00"/>
  <path d="m14.207 17h13.578c1.773 0 3.211 1.281 3.211 2.855v.289c0 1.578-1.438 2.855-3.211 2.855h-13.578c-1.77 0-3.207-1.277-3.207-2.855v-.289c0-1.574 1.438-2.855 3.207-2.855m0 0" fill="#dc9d00"/>
  <path d="m12.699 27.25l11.668-6.781c1.527-.887 3.387-.48 4.156.906l.141.25c.773 1.387.16 3.23-1.363 4.117l-11.668 6.785c-1.523.883-3.387.477-4.156-.91l-.141-.25c-.77-1.387-.16-3.23 1.363-4.117m0 0" fill="#dc9d00"/>
  <path d="m32 27c .016 1.797-.934 3.465-2.488 4.367-1.551.906-3.473.906-5.02 0-1.555-.902-2.504-2.57-2.488-4.367-.016-1.797.934-3.465 2.488-4.367 1.551-.906 3.473-.906 5.02 0 1.555.902 2.504 2.57 2.488 4.367m0 0" fill="#0070b9"/>
</svg>
