<svg viewBox="0 0 48 48" xmlns="http://www.w3.org/2000/svg" xmlns:xlink="http://www.w3.org/1999/xlink">
  <linearGradient id="a" gradientTransform="matrix(0 -1 1 0 -.0000015 47.999998)" gradientUnits="userSpaceOnUse" x1="1" x2="47">
    <stop offset="0" stop-color="#d75d5d"/>
    <stop offset="1" stop-color="#db6d6d"/>
  </linearGradient>
  <path d="m47 24c0 22.703-.297 23-23 23-22.703 0-23-.297-23-23 0-22.703.297-23 23-23 22.703 0 23 .297 23 23z" fill="url(#a)"/>
  <g opacity=".1" transform="translate(1 1)">
    <path d="m36.04 27c0 4.969-5.371 9-12 9-6.625 0-12-4.03-12-9 0-4.973 5.375-9 12-9 6.629 0 12 4.03 12 9m0 0"/>
    <path d="m15.06 31.996v-9.738c0 0-4.063 0-4.063 4.867 0 4.871 4.063 4.871 4.063 4.871m0 0"/>
    <path d="m32.938 31.996v-9.738c0 0 4.066 0 4.066 4.867 0 4.871-4.066 4.871-4.066 4.871m0 0"/>
    <path d="m24.01 11c-5.574-.055-8.402 3.082-9.605 6.109-1.191 3.035-.977 6.02-.977 6.02l1.625-.113c0 0-.172-2.688.859-5.313 1.039-2.621 3.074-5.113 8.06-5.07 4.992.051 7.05 2.559 8.09 5.156 1.039 2.598.863 5.223.863 5.223l1.629.113c0 0 .219-2.938-.98-5.941-1.195-3-4-6.133-9.574-6.188m0 .008"/>
  </g>
  <path d="m36.04 27c0 4.969-5.371 9-12 9-6.625 0-12-4.03-12-9 0-4.973 5.375-9 12-9 6.629 0 12 4.03 12 9m0 0" fill="#ffdec6"/>
  <path d="m15.06 31.996v-9.738c0 0-4.063 0-4.063 4.867 0 4.871 4.063 4.871 4.063 4.871m0 0" fill="#2d2d2d"/>
  <path d="m32.938 31.996v-9.738c0 0 4.066 0 4.066 4.867 0 4.871-4.066 4.871-4.066 4.871m0 0" fill="#2d2d2d"/>
  <path d="m24.01 11c-5.574-.055-8.402 3.082-9.605 6.109-1.191 3.035-.977 6.02-.977 6.02l1.625-.113c0 0-.172-2.688.859-5.313 1.039-2.621 3.074-5.113 8.06-5.07 4.992.051 7.05 2.559 8.09 5.156 1.039 2.598.863 5.223.863 5.223l1.629.113c0 0 .219-2.938-.98-5.941-1.195-3-4-6.133-9.574-6.188m0 .008" fill="#2d2d2d"/>
  <path d="m22 24.996c0 1.105-.895 2-2 2-1.105 0-2-.895-2-2 0-1.102.895-2 2-2 1.105 0 2 .898 2 2m0 0" fill="#2d2d2d"/>
  <path d="m30 24.996c0 1.105-.895 2-2 2-1.105 0-2-.895-2-2 0-1.102.895-2 2-2 1.105 0 2 .898 2 2m0 0" fill="#2d2d2d"/>
  <path d="m28 30.996c0 2.207-1.789 4-4 4-2.211 0-4-1.793-4-4 0-2.211 1.789-4 4-4 2.211 0 4 1.789 4 4m0 0" fill="#ffaba2"/>
  <path d="m23 31c0 .551-.449 1-1 1-.551 0-1-.449-1-1 0-.555.449-1 1-1 .551 0 1 .445 1 1m0 0" fill="#a42828"/>
  <path d="m27 31c0 .551-.449 1-1 1-.551 0-1-.449-1-1 0-.555.449-1 1-1 .551 0 1 .445 1 1m0 0" fill="#a42828"/>
  <path d="m28 21c-1.105 0-2 .898-2 2 0 .086.023.168.031.25.125-.984.949-1.75 1.973-1.75 1.02 0 1.844.766 1.969 1.75.012-.082.031-.16.031-.25 0-1.105-.895-2-1.996-2m-.008 0" fill="#2d2d2d"/>
  <path d="m20 21c-1.105 0-2 .898-2 2 0 .086.02.168.031.25.125-.984.949-1.75 1.973-1.75 1.02 0 1.844.766 1.969 1.75.012-.082.031-.16.031-.25 0-1.105-.895-2-2-2m-.004 0" fill="#2d2d2d"/>
</svg>
