<svg xmlns="http://www.w3.org/2000/svg" viewBox="0 0 48 48">
 <defs>
  <linearGradient id="linearGradient3764" x1="1" x2="47" gradientUnits="userSpaceOnUse" gradientTransform="matrix(0,-1,1,0,-1.5e-6,47.999998)">
   <stop style="stop-color:#e4e4e4;stop-opacity:1"/>
   <stop offset="1" style="stop-color:#eee;stop-opacity:1"/>
  </linearGradient>
 </defs>
 <g>
  
  
  
 </g>
 <g>
  <path d="m 47,24 C 47,46.703 46.703,47 24,47 1.297,47 1,46.703 1,24 1,1.297 1.297,1 24,1 46.703,1 47,1.297 47,24 z" style="fill:url(#linearGradient3764);fill-opacity:1"/>
 </g>
 <g>
  <g>
   <g transform="translate(1,1)">
    <g style="opacity:0.1">
     <!-- color: #eeeeee -->
     <g>
      <path d="m 27.305 13 l -2.125 7.305 l -1.695 -7.293 l -4.07 0.938 l 1.172 5.162 l -3.098 -3.643 l -3.141 2.906 l 3.578 4.066 l -4.992 -1.281 l -0.934 4.27 l 4.994 1.283 l -4.787 1.566 l 1.25 4.182 l 8.543 -2.818 l 0 7.357 l 6 0 l 0 -7.461 l 8.746 2.246 l 0.914 -4.277 l -5.166 -1.326 l 5.506 -1.816 l -1.332 -4.094 l -2.766 0.906 l 2.262 -2.064 l -2.809 -3.254 l -3.582 3.414 l 1.512 -4.98 l -3.98 -1.293 z" transform="translate(-1,-1)" style="fill:#000;fill-opacity:1;stroke:none;fill-rule:nonzero"/>
     </g>
    </g>
   </g>
  </g>
 </g>
 <g>
  <g>
   <!-- color: #eeeeee -->
   <g>
    <path d="m 11.207 27.28 l 1.25 4.18 l 24.543 -8.094 l -1.332 -4.094 m -24.461 8.01" style="fill:#d06920;fill-opacity:1;stroke:none;fill-rule:nonzero"/>
    <path d="m 11.934 20.16 l -0.934 4.27 l 24.746 6.355 l 0.914 -4.277 m -24.727 -6.348" style="fill:#ea7c1e;fill-opacity:1;stroke:none;fill-rule:nonzero"/>
    <path d="m 13.348 17.375 l 3.141 -2.906 l 10.484 12.328 l -3.078 2.566 m -10.547 -11.988" style="fill:#de8719;fill-opacity:1;stroke:none;fill-rule:nonzero"/>
    <path d="m 32.355 14.859 l 2.809 3.254 l -11.902 10.863 l -1.922 -3.621 m 11.02 -10.496" style="fill:#ffc808;fill-opacity:1;stroke:none;fill-rule:nonzero"/>
    <path d="m 18.414 12.949 l 4.07 -0.938 l 3.188 13.707 l -4.137 0.984 m -3.121 -13.754" style="fill:#f4aa17;fill-opacity:1;stroke:none;fill-rule:nonzero"/>
    <path d="m 26.305 12 l 3.98 1.293 l -4.105 13.52 l -3.809 -1.289 m 3.934 -13.523" style="fill:#ecb90a;fill-opacity:1;stroke:none;fill-rule:nonzero"/>
    <path d="m 21 24 6 0 0 12 -6 0" style="fill:#d11b22;fill-opacity:1;stroke:none;fill-rule:nonzero"/>
   </g>
  </g>
 </g>
 <g>
  
 </g>
</svg>
