<svg viewBox="0 0 48 48" xmlns="http://www.w3.org/2000/svg">
  <path d="m24 1c22.703 0 23 .297 23 23 0 22.703-.297 23-23 23-22.703 0-23-.297-23-23 0-22.703.297-23 23-23z" fill="#c3e242"/>
  <path d="m29 28c-5 0-6 9-12 9-3 0-5-2-5-6 0-8 8.221-7.942 15-6 0-4-9-5-9-9 0-2 1.916-3 4-3 7 0 8 9 8 12 1.416 1 9 6 6 9-1.439 1.515-5.52-6-7-6z" opacity=".1"/>
  <path d="m28 27c-5 0-6 9-12 9-3 0-5-2-5-6 0-8 8.221-7.942 15-6 0-4-9-5-9-9 0-2 1.916-3 4-3 7 0 8 9 8 12 1.416 1 9 6 6 9-1.439 1.515-5.52-6-7-6z" fill="#0197fd"/>
  <path d="m33 25c-.314-9.504 11.4-1.581 0 0" opacity=".1"/>
  <path d="m32 24c-.314-9.504 11.4-1.581 0 0" fill="#0197fd"/>
</svg>
