<svg xmlns="http://www.w3.org/2000/svg" viewBox="0 0 48 48">
 <defs>
  <linearGradient id="linearGradient3845" y1="47" x2="0" y2="1" gradientUnits="userSpaceOnUse">
   <stop style="stop-color:#1a71a8;stop-opacity:1"/>
   <stop offset="1" style="stop-color:#1d7db9;stop-opacity:1"/>
  </linearGradient>
 </defs>
 <g>
  
  
  
 </g>
 <g>
  <path d="m 24 1 c 22.703 0 23 0.297 23 23 c 0 22.703 -0.297 23 -23 23 -22.703 0 -23 -0.297 -23 -23 0 -22.703 0.297 -23 23 -23 z" style="fill:url(#linearGradient3845);fill-opacity:1"/>
 </g>
 <g>
  
 </g>
 <path d="m 16.341 14.788 c -0.968 0.876 -1.046 2.374 -0.174 3.346 0.871 0.973 2.362 1.051 3.329 0.175 0.968 -0.876 1.046 -2.374 0.174 -3.346 -0.871 -0.973 -2.362 -1.051 -3.329 -0.175 z m -3.959 5.496 c -0.582 0.527 -0.488 1.58 0.211 2.36 l 2.524 2.817 c 0.699 0.78 1.731 0.984 2.313 0.457 l 3.153 -2.854 4.417 4.931 -2.803 2.537 c -0.776 0.703 -0.979 1.74 -0.455 2.325 0.028 0.031 0.062 0.051 0.092 0.078 0.273 0.377 0.735 0.682 1.305 0.804 l 5.533 1.183 c 1.022 0.218 1.976 -0.226 2.139 -0.996 0.163 -0.77 -0.528 -1.567 -1.55 -1.786 l -3.733 -0.797 3.467 -3.138 6.31 7.04 c 0.699 0.78 1.731 0.984 2.313 0.457 0.582 -0.527 0.488 -1.58 -0.211 -2.36 l -12.619 -14.09 2.102 -1.903 1.893 2.113 c 0.699 0.78 1.731 0.984 2.313 0.457 0.582 -0.527 0.488 -1.58 -0.211 -2.36 l -2.524 -2.817 c -0.699 -0.78 -1.731 -0.984 -2.313 -0.457 -1.073 0.971 -2.145 1.941 -3.218 2.912 -0.512 -0.28 -1.159 -0.226 -1.618 0.189 l -2.102 1.903 c -0.459 0.415 -0.579 1.057 -0.356 1.597 l -2.167 1.961 -1.893 -2.113 c -0.699 -0.78 -1.731 -0.984 -2.313 -0.457 z" style="fill:#000;fill-opacity:0.098"/>
 <path d="m 15.341 13.788 c -0.968 0.876 -1.046 2.374 -0.174 3.346 0.871 0.973 2.362 1.051 3.329 0.175 0.968 -0.876 1.046 -2.374 0.174 -3.346 -0.871 -0.973 -2.362 -1.051 -3.329 -0.175 z m -3.959 5.496 c -0.582 0.527 -0.488 1.58 0.211 2.36 l 2.524 2.817 c 0.699 0.78 1.731 0.984 2.313 0.457 l 3.153 -2.854 4.417 4.931 -2.803 2.537 c -0.776 0.703 -0.979 1.74 -0.455 2.325 0.028 0.031 0.062 0.051 0.092 0.078 0.273 0.377 0.735 0.682 1.305 0.804 l 5.533 1.183 c 1.022 0.218 1.976 -0.226 2.139 -0.996 0.163 -0.77 -0.528 -1.567 -1.55 -1.786 l -3.733 -0.797 3.467 -3.138 6.31 7.04 c 0.699 0.78 1.731 0.984 2.313 0.457 0.582 -0.527 0.488 -1.58 -0.211 -2.36 l -12.619 -14.09 2.102 -1.903 1.893 2.113 c 0.699 0.78 1.731 0.984 2.313 0.457 0.582 -0.527 0.488 -1.58 -0.211 -2.36 l -2.524 -2.817 c -0.699 -0.78 -1.731 -0.984 -2.313 -0.457 -1.073 0.971 -2.145 1.941 -3.218 2.912 -0.512 -0.28 -1.159 -0.226 -1.618 0.189 l -2.102 1.903 c -0.459 0.415 -0.579 1.057 -0.356 1.597 l -2.167 1.961 -1.893 -2.113 c -0.699 -0.78 -1.731 -0.984 -2.313 -0.457 z" style="fill:#ececec;fill-opacity:1"/>
</svg>
