<svg viewBox="0 0 48 48" xmlns="http://www.w3.org/2000/svg" xmlns:xlink="http://www.w3.org/1999/xlink">
  <linearGradient id="a" gradientUnits="userSpaceOnUse" x2="0" y1="47" y2="1">
    <stop offset="0" stop-color="#1a71a8"/>
    <stop offset="1" stop-color="#1d7db9"/>
  </linearGradient>
  <path d="m24 1c22.703 0 23 .297 23 23 0 22.703-.297 23-23 23-22.703 0-23-.297-23-23 0-22.703.297-23 23-23z" fill="url(#a)"/>
  <path d="m16.341 14.788c-.968.876-1.046 2.374-.174 3.346.871.973 2.362 1.051 3.329.175.968-.876 1.046-2.374.174-3.346-.871-.973-2.362-1.051-3.329-.175zm-3.959 5.496c-.582.527-.488 1.58.211 2.36l2.524 2.817c.699.78 1.731.984 2.313.457l3.153-2.854 4.417 4.931-2.803 2.537c-.776.703-.979 1.74-.455 2.325.028.031.062.051.092.078.273.377.735.682 1.305.804l5.533 1.183c1.022.218 1.976-.226 2.139-.996.163-.77-.528-1.567-1.55-1.786l-3.733-.797 3.467-3.138 6.31 7.04c.699.78 1.731.984 2.313.457.582-.527.488-1.58-.211-2.36l-12.619-14.09 2.102-1.903 1.893 2.113c.699.78 1.731.984 2.313.457.582-.527.488-1.58-.211-2.36l-2.524-2.817c-.699-.78-1.731-.984-2.313-.457-1.073.971-2.145 1.941-3.218 2.912-.512-.28-1.159-.226-1.618.189l-2.102 1.903c-.459.415-.579 1.057-.356 1.597l-2.167 1.961-1.893-2.113c-.699-.78-1.731-.984-2.313-.457z" fill-opacity=".098"/>
  <path d="m15.341 13.788c-.968.876-1.046 2.374-.174 3.346.871.973 2.362 1.051 3.329.175.968-.876 1.046-2.374.174-3.346-.871-.973-2.362-1.051-3.329-.175zm-3.959 5.496c-.582.527-.488 1.58.211 2.36l2.524 2.817c.699.78 1.731.984 2.313.457l3.153-2.854 4.417 4.931-2.803 2.537c-.776.703-.979 1.74-.455 2.325.028.031.062.051.092.078.273.377.735.682 1.305.804l5.533 1.183c1.022.218 1.976-.226 2.139-.996.163-.77-.528-1.567-1.55-1.786l-3.733-.797 3.467-3.138 6.31 7.04c.699.78 1.731.984 2.313.457.582-.527.488-1.58-.211-2.36l-12.619-14.09 2.102-1.903 1.893 2.113c.699.78 1.731.984 2.313.457.582-.527.488-1.58-.211-2.36l-2.524-2.817c-.699-.78-1.731-.984-2.313-.457-1.073.971-2.145 1.941-3.218 2.912-.512-.28-1.159-.226-1.618.189l-2.102 1.903c-.459.415-.579 1.057-.356 1.597l-2.167 1.961-1.893-2.113c-.699-.78-1.731-.984-2.313-.457z" fill="#ececec"/>
</svg>
