<svg viewBox="0 0 48 48" xmlns="http://www.w3.org/2000/svg" xmlns:xlink="http://www.w3.org/1999/xlink">
  <linearGradient id="a" gradientTransform="matrix(0 -1 1 0 -.0000015 47.999998)" gradientUnits="userSpaceOnUse" x1="1" x2="47">
    <stop offset="0" stop-color="#9e1916"/>
    <stop offset="1" stop-color="#b01a18"/>
  </linearGradient>
  <path d="m47 24c0 22.703-.297 23-23 23-22.703 0-23-.297-23-23 0-22.703.297-23 23-23 22.703 0 23 .297 23 23z" fill="url(#a)"/>
  <path d="m24 15.996l-3.75 6-5.25-3 .996 5.75-4.996 1.25 4.996 4c0-4.418 3.582-8 8-8 4.418 0 8 3.578 8 8l5-4-5-1.25 1-5.75-5.254 3" opacity=".1" transform="translate(1 1)"/>
  <path d="m24 15.996l-3.75 6-5.25-3 .996 5.75-4.996 1.25 4.996 4c0-4.418 3.582-8 8-8 4.418 0 8 3.578 8 8l5-4-5-1.25 1-5.75-5.254 3" fill="#f9f9f9"/>
</svg>
