<svg xmlns="http://www.w3.org/2000/svg" viewBox="0 0 48 48">
 <defs>
  <linearGradient id="linearGradient3764" x1="1" x2="47" gradientUnits="userSpaceOnUse" gradientTransform="matrix(0,-1,1,0,-1.5e-6,47.999998)">
   <stop style="stop-color:#313034;stop-opacity:1"/>
   <stop offset="1" style="stop-color:#3b3a3f;stop-opacity:1"/>
  </linearGradient>
 </defs>
 <g>
  
  
  
 </g>
 <g>
  <path d="m 47,24 C 47,46.703 46.703,47 24,47 1.297,47 1,46.703 1,24 1,1.297 1.297,1 24,1 46.703,1 47,1.297 47,24 z" style="fill:url(#linearGradient3764);fill-opacity:1"/>
 </g>
 <g>
  <g>
   <g transform="translate(1,1)">
    <g style="opacity:0.1">
     <!-- color: #3b3a3f -->
     <g>
      <path d="m 37.41 11.148 c 0 0.007 0 0.015 0 0.021 c 0 -0.005 0.004 -0.016 0.004 -0.021 l -0.004 0 z m 0 0.021 c -0.074 0.813 -0.751 4.067 -6.715 6.26 c -3.825 1.648 -7.082 4.01 -8.832 7.359 c -1.262 2.413 -0.859 4.207 -1.859 5.207 c -1.09 0.953 -2.609 -3.105 -4 -5 c -0.559 -0.941 -4 -2 -4 -1 c 0 0.379 6 12 8 13 c 0.999 0 0.495 -0.361 3.445 -6.725 c 0 0 0.008 0.01 0.008 0.01 c 1.813 -4.918 3.055 -8.84 7.953 -10.504 c 1 0.5 1.129 0.371 0.379 1.09 c -3.01 2.773 -4.684 5.948 -6.438 9.563 c 9.663 0.246 12.492 -11.502 12.06 -19.26 z" transform="translate(-1,-1)" style="fill:#000;fill-opacity:1;stroke:none;fill-rule:nonzero"/>
     </g>
    </g>
   </g>
  </g>
 </g>
 <g>
  <g>
   <!-- color: #3b3a3f -->
   <g>
    <path d="m 36.41 10.148 c -0.066 0.785 -0.715 4.074 -6.719 6.281 c -13.723 5.707 -7.238 12.852 -7.238 12.852 c 1.813 -4.918 3.055 -8.84 7.953 -10.504 c 1 0.5 1.129 0.371 0.379 1.09 c -3.01 2.773 -4.684 5.949 -6.438 9.563 c 9.672 0.246 12.5 -11.523 12.06 -19.281 m 0.004 0" style="fill:#00ce9b;fill-opacity:1;stroke:none;fill-rule:nonzero"/>
    <path d="m 19 35.996 c -2 -1 -8 -12.621 -8 -13 c 0 -1 3.441 0.059 4 1 c 1.391 1.895 2.91 5.953 4 5 c 1 -1 0.676 -2.754 1.859 -5.207 c 1.121 -2.781 5.059 -4.04 1.594 5.465 c -2.961 6.383 -2.453 6.742 -3.453 6.742 m 0 0" style="fill:#00ce9b;fill-opacity:1;stroke:none;fill-rule:nonzero"/>
   </g>
  </g>
 </g>
 <g>
  
 </g>
</svg>
