<svg viewBox="0 0 48 48" xmlns="http://www.w3.org/2000/svg" xmlns:xlink="http://www.w3.org/1999/xlink">
  <linearGradient id="a" gradientTransform="matrix(0 -1 1 0 -.0000015 47.999998)" gradientUnits="userSpaceOnUse" x1="1" x2="47">
    <stop offset="0" stop-color="#e4e4e4"/>
    <stop offset="1" stop-color="#eee"/>
  </linearGradient>
  <path d="m47 24c0 22.703-.297 23-23 23-22.703 0-23-.297-23-23 0-22.703.297-23 23-23 22.703 0 23 .297 23 23z" fill="url(#a)"/>
  <path d="m25 14l-3.594 5.75c-.11.048-.215.104-.322.156l-5.084-2.906 1.014 5.746-5.01 1.254 4.03 3.361c-.015.212-.033.423-.033.639 0 4.97 4.03 9 9 9 4.97 0 9-4.03 9-9 0-.216-.018-.427-.033-.639l4.03-3.361-5.01-1.254 1.014-5.746-5.086 2.906c-.106-.051-.21-.107-.318-.154l-3.596-5.752z" opacity=".1" transform=""/>
  <path d="m17 28l-6-5 8-2z" fill="#eb805f"/>
  <path d="m31 28l6-5-8-2 1.996 7" fill="#eb805f"/>
  <path d="m15 16l1.234 7 5.766-3z" fill="#eb805f"/>
  <path d="m33 16l-1.234 7-5.766-3z" fill="#eb805f"/>
  <path d="m24 13l-5 8h10z" fill="#eb805f"/>
  <path d="m33 27c0 4.969-4.03 9-9 9-4.969 0-9-4.03-9-9 0-4.969 4.03-9 9-9 4.969 0 9 4.03 9 9m0 0" fill="#fc0"/>
  <path d="m21.992 25c0 .551-.445 1-.996 1-.551 0-.996-.449-.996-1 0-.551.445-1 .996-1 .551 0 .996.449.996 1m0 0" fill="#2d2d2d"/>
  <path d="m27 24c-.551 0-1 .449-1 1h2c0-.551-.449-1-1-1m0 0" fill="#2d2d2d"/>
  <path d="m28.28 27.447l-.997.014c.003.349-.029.693-.097 1.031v.007c-.122.666-.395 1.305-.817 1.792-.49.575-1.206.963-1.965 1.093-.753.13-1.569.011-2.242-.325v-.007c-.685-.338-1.265-.904-1.619-1.585l-.886.464c.454.871 1.181 1.586 2.062 2.02.872.436 1.882.583 2.851.415.976-.167 1.903-.654 2.561-1.426.562-.651.89-1.45 1.038-2.256v-.007c.08-.404.115-.818.111-1.232z" fill="#2d2d2d"/>
  <path d="m20.898 20.76c-.44.091-.859.289-1.205.588-.123.104-.231.214-.328.324l-.004.004-.002.002c-.553.644-.862 1.475-.857 2.324l1-.004c-.003-.597.224-1.21.617-1.668.072-.081.145-.156.223-.221l.002-.002.002-.002c.208-.179.478-.308.756-.365l-.203-.98z" fill="#2d2d2d"/>
</svg>
