<svg viewBox="0 0 48 48" xmlns="http://www.w3.org/2000/svg" xmlns:xlink="http://www.w3.org/1999/xlink">
  <linearGradient id="a" gradientTransform="matrix(0 -1 1 0 -.0000015 47.999998)" gradientUnits="userSpaceOnUse" x1="1" x2="47">
    <stop offset="0" stop-color="#535353"/>
    <stop offset="1" stop-color="#5d5d5d"/>
  </linearGradient>
  <path d="m47 24c0 22.703-.297 23-23 23-22.703 0-23-.297-23-23 0-22.703.297-23 23-23 22.703 0 23 .297 23 23z" fill="url(#a)"/>
  <path d="m30.824 12l .002.002.002-.002zm.002.002c0 .002-.466.679-1.318 2.031l-8.639-.023c-.089-.578-.162-1.023-.26-1.686l-1.238.184c.138.932.205 1.286.32 2.031l-5.182 6.602c-1.562.019-2.299-.074-2.299-.074l-.215 1.23c0 0 .669.102 2.102.107l.592 2.67-.475.479.748.752.9 4.064c-1.56 1.3-2.527 1.836-2.527 1.836l.59 1.104c0 0 .93-.52 2.418-1.727.017 0 .033.019.051.027l7.855 3.861c-.15 1.598-.24 2.385-.24 2.385l1.236.148c0 0 .096-.833.25-2.475l8-3.824c.03-.015.059-.033.086-.053.88.91 1.469 1.395 1.469 1.395l.779-.975c0 0-.718-.589-1.764-1.729l.973-4.213c.617-.215 1.178-.586 1.684-1.092.531-.539.922-1.137 1.125-1.805.141-.464.182-1.044-.012-1.574l.16-.066-.48-1.156h.004c0 0-.535.225-.557.234-.574-.291-1.237-.245-1.752-.084-.068.021-.132.053-.199.078l-4.5-5.863c.867-1.377 1.348-2.078 1.348-2.078z" fill-opacity=".098"/>
  <path d="m52.979-9.388l30.507 45.785-15.994 51.89-50.553 19.84-47.03-27.14-8.08-53.698 36.968-40.586z" fill="#2d2d2d" stroke="#dedede" stroke-linecap="round" stroke-linejoin="round" stroke-width="7.842" transform="matrix(.168475 -.0117646 .011881 .169667 19.791437 15.916182)"/>
  <path d="m52.906-8.477l29.94 67.21-54.7 49.24-63.706-36.793 15.286-71.934zm0-.001" fill="#2d2d2d" stroke="#dedede" stroke-linecap="round" stroke-linejoin="round" stroke-width="18.471" transform="matrix(.0715256 -.00499456 .00504439 .0720313 21.914891 19.988136)"/>
  <path d="m29.828 11c0 0-1.781 2.582-4.852 7.926l1.086.621c3.055-5.309 4.797-7.832 4.797-7.832l-1.035-.715m-10.215.324l-1.238.184c.789 5.332 1.199 7.438 1.348 8.156-6.176.773-8.508.402-8.508.402l-.215 1.23c0 0 2.695.453 9.551-.465l-.078-.621.609-.137c0 0-.523-2.344-1.469-8.754m16.91 8.109c0 0-2.559 1.059-8.566 3.598l-.641.27.336.609c2.973 5.398 6.402 8.141 6.402 8.141l.781-.973c0 0-2.957-2.383-5.73-7.164 5.059-2.137 7.895-3.316 7.895-3.316l-.48-1.156m-17.11 5.398c-4.105 4.777-7.07 6.371-7.07 6.371l.59 1.102c0 0 3.211-1.754 7.422-6.66l-.949-.813m4.434 2.477c-.473 6.57-.824 9.543-.824 9.543l1.238.148c0 0 .355-3.01.836-9.605l-1.246-.086m-.004 0" fill="#dedede"/>
  <path d="m20.383 19.17c-1.137.008-2.266.441-3.105 1.293l-4.063 4.09 1.789 1.801 3.836-3.863.223-.227c.621-.625 2-.68 2.68.008l2.082 2.098 1.785-1.809-2.082-2.09c-.871-.879-2.01-1.313-3.148-1.301m.004 0" fill="#ff2020"/>
  <path d="m34.28 20.426l-4.059 4.09c-.621.625-2 .68-2.688-.008l-2.074-2.098-1.801 1.805 2.082 2.098c1.742 1.758 4.578 1.703 6.266.008l4.059-4.094m-1.785-1.801" fill="#ff2020"/>
  <path d="m36.434 20c-.648-.656-1.559-.629-2.223-.422-.664.207-1.254.598-1.789 1.137-.531.535-.922 1.133-1.125 1.801-.207.668-.234 1.586.418 2.238.648.656 1.555.625 2.219.418.66-.207 1.254-.598 1.789-1.133.531-.539.922-1.137 1.125-1.805.203-.668.234-1.582-.414-2.234m0 0" fill="#ff2020"/>
</svg>
