<svg viewBox="0 0 48 48" xmlns="http://www.w3.org/2000/svg" xmlns:xlink="http://www.w3.org/1999/xlink">
  <linearGradient id="a" gradientUnits="userSpaceOnUse" x2="0" y1="48" y2=".135">
    <stop offset="0" stop-color="#657a93"/>
    <stop offset="1" stop-color="#70849c"/>
  </linearGradient>
  <path d="m24 1c22.703 0 23 .297 23 23 0 22.703-.297 23-23 23-22.703 0-23-.297-23-23 0-22.703.297-23 23-23z" fill="url(#a)"/>
  <g transform="translate(0 -.5000002)">
    <path d="m36 12.5c-1.672 0-3.476.634-5.309 1.721-1.618-.44-3.574-.721-5.693-.721-5.521 0-9.998 1.889-9.998 3.605v3.791c0 .451.318.915.877 1.354-.56.439-.877.903-.877 1.355v3.791c0 .452.319.915.879 1.354-.56.439-.879.904-.879 1.357v3.791c0 .242.098.487.268.73-.575 1.492-1.035 2.872-1.268 3.871l.5-.021c.467-1.348.953-2.385 1.434-3.186 1.589 1.205 5.05 2.207 9.06 2.207 5.524 0 10-1.889 10-3.602v-3.791c0-.453-.318-.918-.879-1.357.56-.439.879-.902.879-1.354v-3.791c0-.453-.317-.917-.877-1.355.559-.438.877-.902.877-1.354v-3.084c.68-1.882 1.01-3.684 1-5.313" opacity=".1"/>
    <path d="m23.998 12.491c-5.521 0-9.998 1.901-9.998 3.628v3.814c0 1.723 4.478 3.624 9.998 3.624 5.524 0 10-1.901 10-3.624v-3.814c0-1.727-4.478-3.628-10-3.628" fill="#afafaf" transform="matrix(1 0 0 .99398638 0 .08419065)"/>
    <path d="m23.998 19.03c-5.521 0-9.998 1.901-9.998 3.628v3.814c0 1.723 4.478 3.624 9.998 3.624 5.524 0 10-1.901 10-3.624v-3.814c0-1.727-4.478-3.628-10-3.628" fill="#afafaf" transform="matrix(1 0 0 .99398638 0 .08419065)"/>
    <path d="m23.998 25.57c-5.521 0-9.998 1.901-9.998 3.628v3.815c0 1.723 4.478 3.624 9.998 3.624 5.524 0 10-1.901 10-3.624v-3.814c0-1.727-4.478-3.628-10-3.628" fill="#afafaf" transform="matrix(1 0 0 .99398638 0 .08419065)"/>
    <path d="m33 16.2c0 1.657-4.03 3.3-9 3.3-4.971 0-9-1.643-9-3.3 0-1.657 4.03-3.1 9-3.1 4.971 0 9 1.443 9 3.1z" fill="#d2d2d2"/>
    <path d="m15.563 21.688c-.349.327-.563.64-.563 1 0 1.657 4.03 3.313 9 3.313 4.971 0 9-1.656 9-3.313 0-.365-.204-.7-.563-1.032-1.774 1.043-4.871 1.844-8.438 1.844-3.541 0-6.658-.778-8.438-1.812z" fill="#d2d2d2"/>
    <path d="m15.563 28.19c-.349.327-.563.64-.563 1 0 1.657 4.03 3.313 9 3.313 4.971 0 9-1.656 9-3.313 0-.365-.204-.7-.563-1.032-1.774 1.043-4.871 1.844-8.438 1.844-3.541 0-6.658-.778-8.438-1.812z" fill="#d2d2d2"/>
    <path d="m31.422 13.318c-5.415 2.852-11.201 9.968-14.641 17.252-.547 1.158-1.042 2.345-1.48 3.477.243.154.542.298.844.441 1.362-2.08 2.663-2.37 3.389-2.49 3.646-.606 6.439-1.779 9.133-4.998-3.667 0-5.967-.614-5.967-1h6.604c.917-.957 1.855-2.055 2.566-3-3.203 0-5.869-.406-5.869-1h6.6c.244-.362.46-.738.676-1.111-.053-.046-.096-.093-.154-.139.221-.173.392-.35.533-.529.108-.203.205-.4.305-.6.017-.075.039-.15.039-.225v-.404c-2.7-.041-4.498-.65-4.498-.992h4.498v-2.395c0-.796-.992-1.622-2.576-2.287z" opacity=".1" transform="translate(0 .5000002)"/>
  </g>
  <path d="m35 11c-6.416 0-14.774 9.162-19.218 18.57-1.284 2.718-2.37 5.657-2.782 7.43l.5-.021c1.864-5.376 4.01-5.811 5.03-5.98 3.646-.606 6.44-1.779 9.134-4.998-3.667 0-5.967-.614-5.967-1h6.602c.917-.957 1.856-2.055 2.567-3-3.203 0-5.87-.406-5.87-1h6.6c.663-.983 1.218-2.039 1.676-3-2.859 0-4.776-.646-4.776-1h5.254c.866-2.134 1.254-4.172 1.246-6z" fill="#e68282"/>
</svg>
