<svg xmlns="http://www.w3.org/2000/svg" viewBox="0 0 48 48">
 <defs>
  <linearGradient id="linearGradient3764" x1="1" x2="47" gradientUnits="userSpaceOnUse" gradientTransform="matrix(0,-1,1,0,-1.5e-6,47.999998)">
   <stop style="stop-color:#3c4350;stop-opacity:1"/>
   <stop offset="1" style="stop-color:#454d5b;stop-opacity:1"/>
  </linearGradient>
 </defs>
 <g>
  
  
  
 </g>
 <g>
  <path d="m 47,24 C 47,46.703 46.703,47 24,47 1.297,47 1,46.703 1,24 1,1.297 1.297,1 24,1 46.703,1 47,1.297 47,24 z" style="fill:url(#linearGradient3764);fill-opacity:1"/>
 </g>
 <g>
  
 </g>
 <path d="m 18 16 1.195 6.203 0 0.002 c -0.642 0.812 -1.195 1.795 -1.195 2.795 c 0 1 0.395 1.988 1.195 2.795 0.004 0.003 0.01 0.005 0.014 0.008 l -1.209 6.197 l 4 0 5 -4.5 11 -0.5 0 -1 -5 0 c 2 -0.7 4.7 -1.7 5 -2.998 -0.3 -1.302 -3 -2.302 -5 -3.01 l 5 0 0 -1 l -11 -0.494 -5 -4.5 -4 0 m -4.699 6 1.699 1.5 -3 1.5 3 1.5 -1.699 1.5 4.699 0 c -0.742 -0.868 -1.301 -2 -1.301 -3 0 -1 0.625 -2.267 1.301 -3 l -4.699 0 z" style="fill:#000;opacity:0.1;fill-opacity:1;stroke:none;fill-rule:nonzero"/>
 <path d="m 21 15 -4 0 1.195 6.203 0.018 5.574 l -1.213 6.223 l 4 0 5 -4.5 11 -0.5 0 -1 -5 0 c 2 -0.7 4.7 -1.7 5 -2.998 c -0.3 -1.302 -3 -2.302 -5 -3.01 l 5 0 0 -1 l -11 -0.494" style="fill:#aaa;fill-opacity:1;stroke:none;fill-rule:nonzero"/>
 <path d="m 34,24 c 0,1 -4,3 -4.8,3 -1,0 -2.2,0.5 -3.2,1.5 -2,0 -6,-0.5 -7.80451,-1.704452 C 17.39518,25.988517 17,25 17,24 17,23 17.553808,22.016478 18.19549,21.204452 20,20 24,19.5 26,19.5 c 1,1 2.2,1.5 3.2,1.5 0.8,0 4.8,2 4.8,3 z" style="fill:#696969;opacity:1;fill-opacity:1;stroke:none"/>
 <path d="m 31 24 c 0 0.995 -3.868 2.262 -7.237 2.25 -1.763 -0.255 -1.763 -4.255 0 -4.5 3.368 0.002 7.237 1.245 7.237 2.25" style="fill:#d0baac;fill-opacity:1;stroke:none;fill-rule:nonzero"/>
 <path d="m 12.301 21 1.699 1.5 -3 1.5 3 1.5 -1.699 1.5 4.699 0 c -0.742 -0.868 -1.3 -2 -1.3 -3 0 -1 0.624 -2.267 1.3 -3 z" style="fill:#f0c382;opacity:1;fill-opacity:1;stroke:none"/>
</svg>
