<svg xmlns="http://www.w3.org/2000/svg" viewBox="0 0 48 48">
 <defs>
  <linearGradient id="linearGradient3764" x1="1" x2="47" gradientUnits="userSpaceOnUse" gradientTransform="matrix(0,-1,1,0,-1.5e-6,47.999998)">
   <stop style="stop-color:#434343;stop-opacity:1"/>
   <stop offset="1" style="stop-color:#4d4d4d;stop-opacity:1"/>
  </linearGradient>
 </defs>
 <g>
  
  
  
 </g>
 <g>
  <path d="m 47,24 C 47,46.703 46.703,47 24,47 1.297,47 1,46.703 1,24 1,1.297 1.297,1 24,1 46.703,1 47,1.297 47,24 z" style="fill:url(#linearGradient3764);fill-opacity:1"/>
  <path d="m 24 1 l -0.01 0.004 l 0.01 0 l 0 -0.004 z m 0 0.004 l 0 45.996 c 0.674 0 1.34 -0.035 2 -0.092 l 0 -8.969 c 0.156 0.055 0.34 0.075 0.594 0.064 c 0.438 -0.02 0.773 -0.191 1.031 -0.531 c 0.086 -0.113 0.855 -1.801 1.719 -3.75 c 1.543 -3.484 1.563 -3.543 1.563 -3.875 c 0 -0.402 -0.113 -0.742 -0.375 -1 c -0.098 -0.098 -1.023 -0.758 -2.063 -1.469 c -1.039 -0.715 -1.922 -1.328 -1.938 -1.375 c -0.02 -0.059 0.43 -0.817 1.281 -2.189 c 0.715 -1.152 1.332 -2.14 1.375 -2.188 c 0.051 -0.066 0.109 -0.066 0.156 -0.031 c 0.039 0.02 0.316 0.586 0.625 1.281 c 0.32 0.719 0.633 1.348 0.719 1.438 c 0.277 0.297 0.406 0.32 2.875 0.625 c 1.809 0.223 2.363 0.285 2.531 0.25 c 0.535 -0.121 0.904 -0.582 0.904 -1.125 c -0.004 -0.598 -0.355 -1.051 -0.938 -1.156 c -0.098 -0.02 -1 -0.129 -1.969 -0.25 c -0.98 -0.121 -1.773 -0.234 -1.781 -0.25 c -0.023 -0.02 -0.41 -0.895 -0.875 -1.938 c -0.469 -1.047 -0.898 -1.945 -0.941 -2 c -0.105 -0.156 -2.476 -1.758 -2.688 -1.816 c -0.23 -0.059 -0.992 -0.195 -1.816 -0.375 l 0 -15.188 c -0.605 -0.052 -1.215 -0.084 -1.832 -0.088 l -0.158 0 z m 7.557 10.994 c -1.164 0 -2.109 0.786 -2.281 1.939 c -0.18 1.203 0.637 2.395 1.816 2.625 c 1.563 0.309 2.98 -1.047 2.75 -2.625 c -0.172 -1.152 -1.113 -1.939 -2.281 -1.939 l -0.004 0 z m -5.563 17.09 c 0.055 0.035 0.078 0.063 0.125 0.094 c 1.176 0.805 1.566 1.108 1.566 1.188 c 0 0.059 -0.547 1.391 -1.25 2.969 c -0.191 0.43 -0.297 0.68 -0.441 1 l 0 -5.25 z" style="fill:#000;fill-opacity:0.098"/>
  <path d="m 24 1 c -0.335 0 -0.668 0.011 -1 0.025 l 0 45.949 c 0.332 0.014 0.665 0.025 1 0.025 c 0.335 0 0.668 -0.011 1 -0.025 l 0 -10.04 c 0.156 0.055 0.34 0.075 0.594 0.064 c 0.438 -0.02 0.773 -0.191 1.031 -0.531 c 0.086 -0.113 0.855 -1.801 1.719 -3.75 c 1.543 -3.484 1.563 -3.543 1.563 -3.875 c 0 -0.402 -0.113 -0.742 -0.375 -1 c -0.098 -0.098 -1.023 -0.758 -2.063 -1.469 c -1.039 -0.715 -1.922 -1.328 -1.938 -1.375 c -0.02 -0.059 0.43 -0.817 1.281 -2.189 c 0.715 -1.152 1.332 -2.14 1.375 -2.188 c 0.051 -0.066 0.109 -0.066 0.156 -0.031 c 0.039 0.02 0.316 0.586 0.625 1.281 c 0.32 0.719 0.633 1.348 0.719 1.438 c 0.277 0.297 0.406 0.32 2.875 0.625 c 1.809 0.223 2.363 0.285 2.531 0.25 c 0.535 -0.121 0.904 -0.582 0.904 -1.125 c -0.004 -0.598 -0.355 -1.051 -0.938 -1.156 c -0.098 -0.02 -1 -0.129 -1.969 -0.25 c -0.98 -0.121 -1.773 -0.234 -1.781 -0.25 c -0.023 -0.02 -0.41 -0.895 -0.875 -1.938 c -0.469 -1.047 -0.898 -1.945 -0.941 -2 c -0.105 -0.156 -2.476 -1.758 -2.688 -1.816 c -0.23 -0.059 -0.992 -0.195 -1.816 -0.375 l 0 -14.254 c -0.329 -0.014 -0.658 -0.025 -0.99 -0.025 z m 6.557 9.998 c -1.164 0 -2.109 0.786 -2.281 1.939 c -0.18 1.203 0.637 2.395 1.816 2.625 c 1.563 0.309 2.98 -1.047 2.75 -2.625 c -0.172 -1.152 -1.113 -1.939 -2.281 -1.939 l -0.004 0 z m -5.563 17.09 c 0.055 0.035 0.078 0.063 0.125 0.094 c 1.176 0.805 1.566 1.108 1.566 1.188 c 0 0.059 -0.547 1.391 -1.25 2.969 c -0.191 0.43 -0.297 0.68 -0.441 1 l 0 -5.25 z" style="fill:#17c0e6;fill-opacity:1"/>
 </g>
 <g>
  <g>
   <g transform="translate(1,1)">
    <g style="opacity:0.1">
     <!-- color: #4d4d4d -->
    </g>
   </g>
  </g>
 </g>
 <g>
  <g>
   <!-- color: #4d4d4d -->
  </g>
 </g>
 <g>
  
 </g>
</svg>
