<svg viewBox="0 0 48 48" xmlns="http://www.w3.org/2000/svg" xmlns:xlink="http://www.w3.org/1999/xlink">
  <linearGradient id="a" gradientTransform="matrix(0 -1 1 0 -.0000015 47.999998)" gradientUnits="userSpaceOnUse" x1="1" x2="47">
    <stop offset="0" stop-color="#9eb6b0"/>
    <stop offset="1" stop-color="#aabeb9"/>
  </linearGradient>
  <path d="m47 24c0 22.703-.297 23-23 23-22.703 0-23-.297-23-23 0-22.703.297-23 23-23 22.703 0 23 .297 23 23z" fill="url(#a)"/>
  <path d="m24.04 12.11c-1.335.017-2.679.132-3.883.654-1.555.675-2.853 1.927-3.906 3.256-.602.761-.951 1.7-1.303 2.605-.573 1.473-1.162 2.983-1.303 4.557-.195 2.173.35 4.814.652 6.512.108.602-1.293 1.297-1.301 1.301.003.001 2.15.721 3.254.652.771-.048 1.774-.353 2.744-.693v2.043l1 2-1 3h2l1-3-1-2v-2.811c.58-.25.992-.435 1.051-.463 1.999-.255 5.224-.69 7.949-1.309v2.582l-1 2 1 3h2l-1-3 1-2v-3.137c2.647-.901 6.95-2.842 6.98-2.855.676-.002 1.354-.001 2.02-.01 0 0-2.1-.991-2.885-1.813-.442-.463-.709-1.077-.947-1.672-.368-.921-.275-2-.725-2.887-.769-1.511-1.968-2.803-3.256-3.906-.961-.823-2.063-1.53-3.256-1.953-1.446-.513-3.02-.639-4.559-.652-.438-.004-.881-.008-1.326-.002z" fill-rule="evenodd" opacity=".1" transform=""/>
  <g fill-rule="evenodd" transform="translate(2 -1)">
    <path d="m29 27v4l-1 2 1 3h-2l-1-3 1-2v-4z" fill="#615d4b"/>
    <path d="m17 30c0 0 7.791-.912 11.139-1.86 2.433-.689 7.84-3.131 7.84-3.131-6-3-3.979-3.01-8.979-5.01" fill="#31362e"/>
    <path d="m16 29v4l1 2-1 3h2l1-3-1-2v-4z" fill="#6c6753"/>
    <path d="m10 31c0 0 1.41-.698 1.302-1.302-.302-1.698-.846-4.339-.651-6.512.141-1.574.729-3.085 1.302-4.558.352-.905.7-1.844 1.302-2.605 1.053-1.329 2.352-2.581 3.907-3.256 1.605-.697 3.459-.667 5.209-.651 1.535.013 3.112.138 4.558.651 1.193.423 2.295 1.13 3.256 1.953 1.288 1.103 2.487 2.396 3.256 3.907.45.884.357 1.965.725 2.886.238.595.505 1.209.947 1.672.785.822 2.886 1.814 2.886 1.814-2 .025-4.156-.032-5.86.14-2.414.253-4.878.485-7.163 1.302-2.104.753-5.86 3.256-5.86 3.256 0 0-3.805 1.826-5.86 1.953-1.105.069-3.256-.651-3.256-.651" fill="#5d6c53"/>
    <path d="m19.07 12.27c-.657.096-1.303.235-1.908.498-1.555.675-2.854 1.927-3.906 3.256-.603.761-.951 1.699-1.303 2.604-.573 1.473-1.162 2.985-1.303 4.559-.195 2.173.35 4.814.652 6.512.108.604-1.303 1.303-1.303 1.303 0 0 2.151.719 3.256.65 2.055-.128 5.861-1.953 5.861-1.953 0 0 2.02-1.339 3.92-2.354 0 0-7.04 2.656-8.04-3.344-2-7 4.07-11.73 4.07-11.73" fill="#4a5642"/>
  </g>
</svg>
