<svg viewBox="0 0 48 48" xmlns="http://www.w3.org/2000/svg" xmlns:xlink="http://www.w3.org/1999/xlink">
  <linearGradient id="a" gradientTransform="matrix(0 -1 1 0 -.0000015 47.999998)" gradientUnits="userSpaceOnUse" x1="1" x2="47">
    <stop offset="0" stop-color="#4f4f4f"/>
    <stop offset="1" stop-color="#595959"/>
  </linearGradient>
  <path d="m47 24c0 22.703-.297 23-23 23-22.703 0-23-.297-23-23 0-22.703.297-23 23-23 22.703 0 23 .297 23 23z" fill="url(#a)"/>
  <path d="m24 9c-8.281 0-15 6.715-15 15 0 8.281 6.719 14.996 15 14.996 8.285 0 15-6.715 15-14.996 0-8.285-6.715-15-15-15m0 3c6.629 0 12 5.371 12 12 0 6.625-5.371 11.996-12 11.996-6.625 0-12-5.371-12-11.996 0-6.629 5.375-12 12-12m-3.563 4.125v2.398h2.047c.195.695.555 1.219.707 1.953-1.75 2.992-3.762 6.25-5.508 9.145-.227.375-.559.828-.531 1.25h3.02c1.539-2.195 2.867-4.602 4.445-6.75.879 2.496 1.926 4.824 2.754 7.371 1.684-.422 3.379-.828 4.793-1.512-.398-.668-.457-1.668-.883-2.309-.672.273-1.367.527-2.133.707-1.438-4.191-3.18-8.07-4.617-12.258h-4.09m-.004.004" opacity=".1" transform="translate(1 1)"/>
  <path d="m24 9c-8.281 0-15 6.715-15 15 0 8.281 6.719 14.996 15 14.996 8.285 0 15-6.715 15-14.996 0-8.285-6.715-15-15-15m0 3c6.629 0 12 5.371 12 12 0 6.625-5.371 11.996-12 11.996-6.625 0-12-5.371-12-11.996 0-6.629 5.375-12 12-12m-3.563 4.125v2.398h2.047c.195.695.555 1.219.707 1.953-1.75 2.992-3.762 6.25-5.508 9.145-.227.375-.559.828-.531 1.25h3.02c1.539-2.195 2.867-4.602 4.445-6.75.879 2.496 1.926 4.824 2.754 7.371 1.684-.422 3.379-.828 4.793-1.512-.398-.668-.457-1.668-.883-2.309-.672.273-1.367.527-2.133.707-1.438-4.191-3.18-8.07-4.617-12.258h-4.09m-.004.004" fill="#71cf71"/>
</svg>
