<svg viewBox="0 0 48 48" xmlns="http://www.w3.org/2000/svg" xmlns:xlink="http://www.w3.org/1999/xlink">
  <linearGradient id="a" gradientTransform="matrix(0 -1 1 0 -.0000015 47.999998)" gradientUnits="userSpaceOnUse" x1="1" x2="47">
    <stop offset="0" stop-color="#424a56"/>
    <stop offset="1" stop-color="#4b5461"/>
  </linearGradient>
  <path d="m47 24c0 22.703-.297 23-23 23-22.703 0-23-.297-23-23 0-22.703.297-23 23-23 22.703 0 23 .297 23 23z" fill="url(#a)"/>
  <g transform="scale(3.543307)">
    <path d="m13 13.01l4-.012 7 15 7-15h4l-11 24m-11-23.988" opacity=".1" transform="matrix(.28222223 0 0 .28222223 .28222222 .28278664)"/>
    <path d="m13 13.01l4-.012 7 15 7-15h4l-11 24m-11-23.988" fill="#f4d22a" transform="matrix(.28222223 0 0 .28222223 -.00000001 .00056441)"/>
  </g>
</svg>
