<svg viewBox="0 0 48 48" xmlns="http://www.w3.org/2000/svg" xmlns:xlink="http://www.w3.org/1999/xlink">
  <linearGradient id="a" gradientTransform="matrix(0 -1 1 0 -.0000015 47.999998)" gradientUnits="userSpaceOnUse" x1="1" x2="47">
    <stop offset="0" stop-color="#a5afa5"/>
    <stop offset="1" stop-color="#b0b9b0"/>
  </linearGradient>
  <path d="m47 24c0 22.703-.297 23-23 23-22.703 0-23-.297-23-23 0-22.703.297-23 23-23 22.703 0 23 .297 23 23z" fill="url(#a)"/>
  <path d="m15.244 2.729c-1.724.71-3.341 1.624-4.824 2.711l-.127 11.473c-2.056.703-2.305 1.867-2.551 2.373l.641 1.016c.022-.027.055-.064.078-.092-.027.384-.043.795-.063 1.258 0 1.976.682 3.208 1.801 3.914l-.188 16.873c1.756 1.348 3.712 2.446 5.816 3.246l-.271-19.922c1.155-.618 1.875-1.8 1.939-3.832.003-.875-.126-1.573-.352-2.145.117.15.219.292.295.42l.039-1.758c-.337-.691-1.045-1.243-2.043-1.563l-.191-13.973zm19.445.906l-.145 13.02c-1.051.297-1.778.838-2.219 1.596l.016 1.773c.057-.084.127-.172.186-.258-.151.551-.233 1.226-.23 2.066.072 2.138.877 3.327 2.148 3.916l-.209 18.852c2.038-1.015 3.904-2.324 5.543-3.871l-.18-15.232c1.153-.701 1.854-1.942 1.854-3.945l-.002.002c-.021-.476-.037-.896-.066-1.289.197-.219.435-.642.623-.938-.521-1.363-1.441-2.01-2.508-2.387l-.117-10.03c-1.416-1.275-2.993-2.373-4.693-3.268zm-9.834 27.945c-2.761.013-5.559.147-8.395.412 3.566 9.305 14.578 8.266 16.574-.105-2.694-.213-5.419-.32-8.18-.307z" fill-opacity=".098"/>
  <path d="m33.684 3.139l-.463 41.934c2.03-.89 3.907-2.064 5.58-3.473l-.418-35.543c-1.435-1.152-3.01-2.133-4.699-2.918zm-19.42.023c-1.752.82-3.386 1.851-4.863 3.066l-.391 35.21c1.737 1.494 3.698 2.734 5.828 3.66z" fill="#947f62"/>
  <path d="m7.398 20.465c0 3.301 1.871 4.559 4.574 4.68 2.609-.043 4.422-1.113 4.527-4.398.012-3.688-2.25-4.359-4.703-4.781-4.52.625-4.289 1.934-4.398 4.5m0 0" fill="#f9f9f9"/>
  <path d="m15.461 30.992c3.566 9.305 14.578 8.266 16.574-.105-5.387-.426-10.902-.426-16.574.105m0 0" fill="#2d2d2d"/>
  <path d="m40.449 20.547c0 3.301-1.883 4.559-4.602 4.68-2.621-.043-4.445-1.113-4.555-4.398-.012-4.387 2.266-4.359 4.73-4.781 4.547.629 4.313 1.934 4.426 4.5m0 0" fill="#f9f9f9"/>
  <path d="m34.719 17.5c-.246 0-.469.402-.625 1.031.086-.055.172-.125.281-.125.301 0 .531.262.531.563 0 .301-.23.531-.531.531-.184 0-.34-.078-.438-.219-.063.457-.094.949-.094 1.5 0 1.824.398 3.313.875 3.313.477 0 .844-1.488.844-3.313 0-1.824-.367-3.281-.844-3.281m-.156 2.844c.16 0 .313.121.313.281 0 .16-.148.313-.313.313-.16 0-.281-.152-.281-.313 0-.16.121-.281.281-.281m.594.906c.125 0 .219.094.219.219 0 .125-.09.25-.219.25-.125 0-.25-.125-.25-.25 0-.125.125-.219.25-.219m0 0" fill="#2d2d2d"/>
  <path d="m12.785 17.406c-.246 0-.469.398-.625 1.031.086-.055.176-.125.281-.125.301 0 .531.262.531.563 0 .301-.23.531-.531.531-.184 0-.34-.078-.438-.219-.063.457-.09.945-.09 1.5 0 1.824.395 3.313.875 3.313.477 0 .844-1.488.844-3.313 0-1.828-.367-3.281-.844-3.281m-.16 2.844c.164 0 .313.121.313.281 0 .16-.152.309-.313.309-.164 0-.281-.152-.281-.309 0-.164.121-.281.281-.281m.594.906c.129 0 .219.094.219.219 0 .129-.09.254-.219.254-.125 0-.25-.125-.25-.254 0-.125.125-.219.25-.219m0 0" fill="#2d2d2d"/>
  <path d="m7.383 19.301c.832-1.039 2.266-2.789 4.664-2.914 2.168.047 3.844 1.703 4.395 2.633l.039-1.758c-.578-1.184-2.227-1.98-4.602-1.848-4.496.383-4.813 2.203-5.137 2.871m.641 1.016" fill="#2d2d2d"/>
  <path d="m31.34 19.02l-.016-1.773c.75-1.289 2.305-1.969 4.93-1.844 1.922.363 3.883.656 4.75 2.922l-.609.953c-1.281-1.684-2.691-2.715-4.266-2.859-3.176.035-4.01 1.461-4.789 2.602m0 0" fill="#2d2d2d"/>
</svg>
