<svg viewBox="0 0 48 48" xmlns="http://www.w3.org/2000/svg" xmlns:xlink="http://www.w3.org/1999/xlink">
  <linearGradient id="a" gradientUnits="userSpaceOnUse" x1="24.25" x2="24" y1="47.25" y2="1">
    <stop offset="0" stop-color="#32316f"/>
    <stop offset="1" stop-color="#38377d"/>
  </linearGradient>
  <path d="m24 1c22.703 0 23 .297 23 23 0 22.703-.297 23-23 23-22.703 0-23-.297-23-23 0-22.703.297-23 23-23z" fill="url(#a)"/>
  <path d="m-10.5 20.5c-.5 8.537-1 14.634-5 14.634-4 0-4.5-6.098-5-14.634-.5-8.537.5-13.415 5-13.415 4.5 0 5.5 4.878 5 13.415z" opacity=".1" transform="matrix(2 0 0 .82 56.2340208 8.1900003)"/>
  <g transform="translate(.23402082)">
    <path d="m-10.5 20.5c-.5 8.537-1 14.634-5 14.634-4 0-4.5-6.098-5-14.634-.5-8.537.5-13.415 5-13.415 4.5 0 5.5 4.878 5 13.415z" fill="#808080" transform="matrix(2 0 0 .82 55 7.19)"/>
    <path d="m24 13c-9 0-11 4-10 11 .736 5.155 2 10 5 11 3 1-1-17 10-21 1.329-.483-2.573-1-5-1z" fill="#ccc"/>
    <path d="m14 19c0-1 20-1 20 0 0 4.01-.834 9.468-1.587 12.1-.827 2.896-15.94 2.786-16.861-.084-.968-3.02-1.553-7.98-1.553-12.02" fill="#87aade"/>
    <path d="m34 19c0 0-18-2-20 0 0 11 1.814 12.452 1.814 12.452 0 0 1.771-6.44 4.186-8.452 3.729-3.107 14-4 14-4z" fill="#d5f6ff"/>
    <path d="m16 32c0 0 10 3 16 0 2-4 2-13 2-13 0 0-.971 8.541-4 11-3.66 2.971-14 2-14 2z" fill="#3771c8"/>
  </g>
</svg>
