<svg viewBox="0 0 48 48" xmlns="http://www.w3.org/2000/svg" xmlns:xlink="http://www.w3.org/1999/xlink">
  <linearGradient id="a" gradientTransform="matrix(0 -1 1 0 -.0000015 47.999998)" gradientUnits="userSpaceOnUse" x1="1" x2="47">
    <stop offset="0" stop-color="#333"/>
    <stop offset="1" stop-color="#3d3d3d"/>
  </linearGradient>
  <path d="m47 24c0 22.703-.297 23-23 23-22.703 0-23-.297-23-23 0-22.703.297-23 23-23 22.703 0 23 .297 23 23z" fill="url(#a)"/>
  <path d="m33.04 2.846c-2.615 2.337-4.26 5.675-4.26 9.373 0 2.383.688 4.617 1.875 6.531v7.521l-4.73-4.73c1.082-2.77.512-6.06-1.723-8.301-1.539-1.539-3.582-2.273-5.594-2.25v.01c-.918.012-1.84.188-2.711.523l4.652 4.652c.805.777 1.129 1.926.844 3-.281 1.082-1.125 1.926-2.207 2.207-1.078.285-2.23-.041-3-.846l-4.652-4.65c-1.082 2.77-.512 6.07 1.727 8.301 2.234 2.238 5.531 2.805 8.301 1.727l7.172 7.166c-.721.312-1.4.701-2.02 1.17l-13.03-5.656c-.035-4.988-4.272-9.09-9.437-9.09-1.013 0-1.975.161-2.891.451-.223 1.255-.347 2.543-.357 3.859.852-.433 1.921-.654 3.217-.654 3.094 0 4.91 1.239 5.469 3.689l-3.375-1.469c-1.895-.777-4.02-.086-5.125 1.516.256 2.036.773 3.99 1.525 5.824.105.054.205.115.316.16l2.625 1.154c-.438.066-.93.096-1.438.096-.311 0-.606-.015-.891-.041.622 1.272 1.357 2.479 2.193 3.605 1.654-.222 3.174-.863 4.447-1.803l13.13 5.719c.043 2.01.775 3.863 1.965 5.363 1.365-.062 2.697-.249 3.99-.539-1.205-.783-2.115-1.949-2.527-3.344l4.531 1.969c.475.195.966.285 1.453.307 1.324-.528 2.586-1.174 3.775-1.928.109-.172.219-.344.303-.535.596-1.351.352-2.84-.48-3.959.188-.014.378-.039.564-.088.453-.118.86-.339 1.207-.631.586.922.928 2.01.928 3.18 0 .067-.008.131-.01.197 1-.846 1.934-1.776 2.781-2.779-.325-1.048-.835-2.02-1.508-2.881h.031l6.889-11.623c.001-.107.008-.213.008-.32 0-1.551-.155-3.065-.447-4.529-1.33.788-2.888 1.252-4.57 1.252-4.883 0-8.781-3.777-8.781-8.5 0-2.989 1.565-5.583 3.949-7.088-1.282-.895-2.655-1.667-4.109-2.289zm6.67 4.365c-2.01.852-3.4 2.776-3.396 5.01.133 2.93 2.629 5.234 5.656 5.234 1.394 0 2.659-.505 3.648-1.316-1.248-3.432-3.294-6.478-5.908-8.926zm-8.541 28.3l1.188 1.188-2.113-.92c.298-.111.61-.195.926-.268z" opacity=".1"/>
  <path d="m31.578 2.283c-2.343 2.308-3.797 5.462-3.797 8.936 0 2.383.688 4.617 1.875 6.531v13.719c-1.461.293-2.8.914-3.938 1.781l-13.03-5.656c-.035-4.988-4.272-9.09-9.437-9.09-.553 0-1.092.048-1.617.137-.293 1.228-.489 2.493-.576 3.789.636-.172 1.35-.27 2.162-.27 3.094 0 4.91 1.239 5.469 3.689l-3.375-1.469c-1.485-.609-3.122-.32-4.291.604.105 2.484.604 4.865 1.436 7.084l2.197.967c-.438.066-.93.096-1.438.096-.118 0-.224-.012-.338-.016.537 1.243 1.181 2.427 1.92 3.545 1.547-.255 2.966-.881 4.168-1.768l13.13 5.719c.054 2.487 1.159 4.734 2.891 6.363 1.683-.071 3.32-.322 4.891-.736-2.108-.55-3.753-2.114-4.354-4.146l4.531 1.969c2.141.879 4.625-.086 5.531-2.156.91-2.063-.109-4.465-2.25-5.344l-4.096-1.781c.711-.266 1.473-.438 2.281-.438l.002.004c3.492 0 6.281 2.689 6.281 6.06 0 .828-.171 1.614-.477 2.33 1.308-.933 2.517-1.996 3.602-3.176-.167-1.722-.83-3.297-1.861-4.617h.031l7.094-11.969c.259-.109.509-.231.758-.355-.093-1.576-.345-3.109-.74-4.584-1.459 1.054-3.26 1.688-5.232 1.688-4.883 0-8.781-3.777-8.781-8.5 0-2.878 1.452-5.388 3.688-6.914-1.352-.818-2.796-1.497-4.311-2.025zm7.04 3.961c-1.959.871-3.308 2.776-3.305 4.975.133 2.93 2.629 5.234 5.656 5.234 1.609 0 3.053-.663 4.086-1.711-1.46-3.316-3.678-6.223-6.438-8.498z" fill="#535353"/>
  <path d="m17.609 10c-.918.012-1.84.188-2.711.523l4.652 4.652c.805.777 1.129 1.926.844 3-.281 1.082-1.125 1.926-2.207 2.207-1.078.285-2.23-.039-3-.844l-4.652-4.652c-1.082 2.77-.512 6.07 1.727 8.301 2.234 2.238 5.531 2.805 8.301 1.727l12.11 12.1c.773.805 1.922 1.129 3 .844 1.078-.281 1.926-1.125 2.207-2.207.281-1.078-.039-2.23-.844-3l-12.11-12.11c1.082-2.77.512-6.06-1.723-8.301-1.539-1.539-3.582-2.273-5.594-2.25m17.215 23.773c.578 0 1.047.473 1.047 1.051 0 .578-.465 1.047-1.047 1.047-.578 0-1.051-.469-1.051-1.047 0-.578.469-1.051 1.051-1.051m0 0" fill="#f9f9f9"/>
</svg>
