<svg xmlns="http://www.w3.org/2000/svg" viewBox="0 0 48 48">
 <defs>
  <linearGradient id="linearGradient4288" x1="1" x2="47" gradientUnits="userSpaceOnUse" gradientTransform="matrix(0,-1,1,0,0,48)">
   <stop style="stop-color:#0b4d15;stop-opacity:1"/>
   <stop offset="1" style="stop-color:#0d5f1a;stop-opacity:1"/>
  </linearGradient>
 </defs>
 <g>
  
  
  
 </g>
 <path d="M 1,24 C 1,1.297 1.297,1 24,1 46.703,1 47,1.297 47,24 47,46.703 46.703,47 24,47 1.297,47 1,46.703 1,24 Z" style="fill:url(#linearGradient4288);fill-opacity:1"/>
 <path d="m 20 1.354 c -0.336 0.059 -0.669 0.124 -1 0.197 l 0 22.449 -10 0 0 -17.428 c -0.342 0.295 -0.676 0.598 -1 0.912 l 0 16.516 -7 0 c 0 0.335 0.011 0.668 0.025 1 l 13.975 0 0 13 -9.244 0 c 0.262 0.341 0.535 0.674 0.816 1 l 8.428 0 l 1 0 0 -14 3 0 0 21.449 c 0.331 0.073 0.664 0.138 1 0.197 l 0 -21.646 l 8 0 0 21.646 c 0.336 -0.059 0.669 -0.124 1 -0.197 l 0 -21.449 l 3 0 0 14 1 0 8.428 0 c 0.281 -0.326 0.554 -0.659 0.816 -1 l -9.244 0 0 -13 13.975 0 c 0.014 -0.332 0.025 -0.665 0.025 -1 l -7 0 0 -16.516 c -0.324 -0.314 -0.658 -0.617 -1 -0.912 l 0 17.428 -10 0 l 0 -22.449 c -0.331 -0.073 -0.664 -0.138 -1 -0.197 l 0 22.646 -8 0 0 -22.646" style="fill:#fff;opacity:0.1;fill-opacity:1"/>
 <g>
  
 </g>
 <path d="M 24 11 A 13 13 0 0 0 11 24 A 13 13 0 0 0 24 37 A 13 13 0 0 0 37 24 A 13 13 0 0 0 24 11 z M 24 14 A 10 10 0 0 1 34 24 A 10 10 0 0 1 24 34 A 10 10 0 0 1 14 24 A 10 10 0 0 1 24 14 z" style="fill:#d5e692;opacity:1;fill-opacity:1;stroke:none;fill-rule:nonzero"/>
 <path d="m 19.269 11.152 c -3.674 1.518 -6.595 4.433 -8.121 8.104 l 1.867 0.734 a 13 13 0 0 0 -1.016 5.01 a 13 13 0 0 0 13 13 13 13 0 0 0 13 -13 13 13 0 0 0 -13 -13 13 13 0 0 0 -5.02 1.01 l -0.715 -1.855 m 5.73 3.848 a 10 10 0 0 1 10 10 10 10 0 0 1 -10 10 10 10 0 0 1 -10 -10 10 10 0 0 1 10 -10 z m 0 1 a 9 9 0 0 0 -9 9 9 9 0 0 0 9 9 9 9 0 0 0 9 -9 9 9 0 0 0 -9 -9 z m -5 3 10 0 0 1 -2 0 0 10 2 0 0 1 -10 0 0 -1 2 0 0 -10 -2 0 0 -1 z m 4 1 0 10 2 0 0 -10 -2 0 z" style="fill:#000;opacity:0.1;fill-opacity:1;stroke:none;fill-rule:nonzero"/>
 <path d="m 18.27 10.152 c -3.674 1.518 -6.595 4.433 -8.121 8.104 l 4.564 1.797 c 1.323 -3.181 2.025 -4.299 5.209 -5.615 z" style="fill:#daf27a;opacity:1;fill-opacity:1;stroke:none;fill-rule:nonzero"/>
 <path d="M 24 15 A 9 9 0 0 0 15 24 A 9 9 0 0 0 24 33 A 9 9 0 0 0 33 24 A 9 9 0 0 0 24 15 z M 19 18 L 29 18 L 29 19 L 27 19 L 27 29 L 29 29 L 29 30 L 19 30 L 19 29 L 21 29 L 21 19 L 19 19 L 19 18 z M 23 19 L 23 29 L 25 29 L 25 19 L 23 19 z" style="fill:#daf27a;opacity:1;fill-opacity:1;stroke:none;fill-rule:nonzero"/>
 <path d="M 24 11 A 13 13 0 0 0 11 24 A 13 13 0 0 0 24 37 A 13 13 0 0 0 37 24 A 13 13 0 0 0 24 11 z M 24 14 A 10 10 0 0 1 34 24 A 10 10 0 0 1 24 34 A 10 10 0 0 1 14 24 A 10 10 0 0 1 24 14 z" style="fill:#daf27a;opacity:1;fill-opacity:1;stroke:none;fill-rule:nonzero"/>
</svg>
