<svg xmlns="http://www.w3.org/2000/svg" viewBox="0 0 48 48">
 <defs>
  <linearGradient id="linearGradient3764" x1="1" x2="47" gradientUnits="userSpaceOnUse" gradientTransform="matrix(0,-1,1,0,-1.5e-6,47.999998)">
   <stop style="stop-color:#333;stop-opacity:1"/>
   <stop offset="1" style="stop-color:#3d3d3d;stop-opacity:1"/>
  </linearGradient>
  <radialGradient id="radial0" gradientUnits="userSpaceOnUse" cx="-65.797" cy="22.983" r="14.339" gradientTransform="matrix(1.046099,0,0,1.046099,92.829786,-0.0425541)">
   <stop style="stop-color:#ffe562;stop-opacity:1"/>
   <stop offset="1" style="stop-color:#e4c000;stop-opacity:1"/>
  </radialGradient>
 </defs>
 <g>
  
  
  
 </g>
 <g>
  <path d="m 47,24 C 47,46.703 46.703,47 24,47 1.297,47 1,46.703 1,24 1,1.297 1.297,1 24,1 46.703,1 47,1.297 47,24 z" style="fill:url(#linearGradient3764);fill-opacity:1"/>
 </g>
 <g>
  <g>
   <g transform="translate(1,1)">
    <g style="opacity:0.1">
     <!-- color: #3d3d3d -->
     <g>
      <path d="m 38.996 24 c 0 8.285 -6.715 15 -15 15 c -8.281 0 -15 -6.715 -15 -15 c 0 -8.285 6.719 -15 15 -15 c 8.285 0 15 6.715 15 15 m 0 0" style="fill:#000;stroke:none;fill-rule:nonzero"/>
     </g>
    </g>
   </g>
  </g>
 </g>
 <g>
  <g>
   <!-- color: #3d3d3d -->
   <g>
    <path d="m 38.996 24 c 0 8.285 -6.715 15 -15 15 c -8.281 0 -15 -6.715 -15 -15 c 0 -8.285 6.719 -15 15 -15 c 8.285 0 15 6.715 15 15 m 0 0" style="fill:url(#radial0);stroke:none;fill-rule:nonzero"/>
   </g>
  </g>
 </g>
 <g>
  
 </g>
</svg>
