<svg viewBox="0 0 48 48" xmlns="http://www.w3.org/2000/svg" xmlns:xlink="http://www.w3.org/1999/xlink">
  <linearGradient id="a" gradientTransform="matrix(0 -1 1 0 -.0000015 47.999998)" gradientUnits="userSpaceOnUse" x1="1" x2="47">
    <stop offset="0" stop-color="#f2c352"/>
    <stop offset="1" stop-color="#f3ca66"/>
  </linearGradient>
  <path d="m47 24c0 22.703-.297 23-23 23-22.703 0-23-.297-23-23 0-22.703.297-23 23-23 22.703 0 23 .297 23 23z" fill="url(#a)"/>
  <path d="m23 14c-6.075 0-11 4.925-11 11 0 6.075 4.925 11 11 11 4.44-.001 8.443-2.671 10.15-6.77l4.445-10.73c.264-.455.403-.974.404-1.5 0-1.657-1.343-3-3-3h-12zm0 2a9 9 0 0 1 9 9 9 9 0 0 1-9 9 9 9 0 0 1-9-9 9 9 0 0 1  9-9zm-.262 2.385l.004.02c-.184.012-.39.057-.604.139-.574.211-.426.967-.375 1.486-.035.047-.102.031-.148.031-.621.031-.898.675-1.027 1.188.027.473-.035.985-.117 1.439-.082.453-.242.809-.258 1.242-.035.387.109.838.078 1.189-.344 1-.59 1.662-.77 2.729-.133.238-.586.758-.766.871-.051.078.025.258-.053.367-.148.211-.379.324-.508.555.031.047-.195.094-.176.172.016.082.129.293.176.34.016.035.182-.047.182 0 .066.195.215.598.379.691.719.078.719.078 1.012 0 .16-.469-.555-.26-.488-.889.98-.188 1.289-.468 1.684-1.479.18-.742.422-1.473.801-2.18.063-.051.047-.178.16-.229.438.727 1.238 1.242 1.637 2 .098.98.293 1.516.633 1.695.082.027 0 .336.066.398 0 .102.031.207-.02.32-.027.082-.012.176-.012.258v.098c.016.145.047.148.195.262.422.273.991.711 1.563.387.262-.418-.289-.949-.684-1.223-.129-.102-.359-.34-.328-.5.215-.211.359-1.129.277-1.84-.031-.16-.065-.324-.131-.453-.195-.371-.637-.883-1.012-1.254.047-.055.113-.117.195-.148 0-.352-.148-.465-.344-.723-.164-.258-.539-.766-.816-.922 0 0-.004-.02-.281-.02-.016-.176.035-.324.086-.516 0-.145.117-.063.148-.387.082-.273.043-.115.109-.393.066-.125.105-.258.105-.465.242.078.734.063.945 0l .047.031c.063.016.082-.082.129-.098.375-.191.508-.531.813-.563 0 0 .168-.082.41 0 .102 0 .184.02.184-.078.016-.148.016-.262.098-.355.066.387.246.82.57 1.238l.328-.223c-.316-.371-.512-.789-.539-1.273.016.031.026.063.063.094.117 0 .181-.238.314-.223.016-.031.051-.18.082-.293h1.223l.441-.098v-.229l-.324-.029v-.26h-.086v-.293h-.195v.273l-.504-.031v-.18h-.195v.164l-.52-.051v-.242h-.199v.227l-.766-.051v-.078h-.574v-.145h-.311v.074c-.035.02-.066.051-.098.066h-.035c-.539-.418-.57.438-.93.242-.035-.176-.02-.336-.02-.547.621-.016.398-.182.219-.389-.066-.082-.105-.211-.117-.289-.109-.398-.48-.682-1.027-.654zm1.104 2.482c.078 0 .121.027.121.027.195-.031.375.016.688 0-.051.531-.438.305-.863.598-.109-.016-.246-.02-.426-.02-.035-.355.102-.418.16-.48.133-.098.242-.125.32-.125z" opacity=".1"/>
  <path d="m22 13c-6.075 0-11 4.925-11 11 0 6.075 4.925 11 11 11 4.44-.001 8.443-2.671 10.15-6.77l4.445-10.73c.264-.455.403-.974.404-1.5 0-1.657-1.343-3-3-3h-12zm0 2a9 9 0 0 1 9 9 9 9 0 0 1-9 9 9 9 0 0 1-9-9 9 9 0 0 1  9-9zm-.262 2.385l.004.02c-.184.012-.39.057-.604.139-.574.211-.426.967-.375 1.486-.035.047-.102.031-.148.031-.621.031-.898.675-1.027 1.188.027.473-.035.985-.117 1.439-.082.453-.242.809-.258 1.242-.035.387.109.838.078 1.189-.344 1-.59 1.662-.77 2.729-.133.238-.586.758-.766.871-.051.078.025.258-.053.367-.148.211-.379.324-.508.555.031.047-.195.094-.176.172.016.082.129.293.176.34.016.035.182-.047.182 0 .066.195.215.598.379.691.719.078.719.078 1.012 0 .16-.469-.555-.26-.488-.889.98-.188 1.289-.468 1.684-1.479.18-.742.422-1.473.801-2.18.063-.051.047-.178.16-.229.438.727 1.238 1.242 1.637 2 .098.98.293 1.516.633 1.695.082.027 0 .336.066.398 0 .102.031.207-.02.32-.027.082-.012.176-.012.258v.098c.016.145.047.148.195.262.422.273.991.711 1.563.387.262-.418-.289-.949-.684-1.223-.129-.102-.359-.34-.328-.5.215-.211.359-1.129.277-1.84-.031-.16-.065-.324-.131-.453-.195-.371-.637-.883-1.012-1.254.047-.055.113-.117.195-.148 0-.352-.148-.465-.344-.723-.164-.258-.539-.766-.816-.922 0 0-.004-.02-.281-.02-.016-.176.035-.324.086-.516 0-.145.117-.063.148-.387.082-.273.043-.115.109-.393.066-.125.105-.258.105-.465.242.078.734.063.945 0l .047.031c.063.016.082-.082.129-.098.375-.191.508-.531.813-.563 0 0 .168-.082.41 0 .102 0 .184.02.184-.078.016-.148.016-.262.098-.355.066.387.246.82.57 1.238l.328-.223c-.316-.371-.512-.789-.539-1.273.016.031.026.063.063.094.117 0 .181-.238.314-.223.016-.031.051-.18.082-.293h1.223l.441-.098v-.229l-.324-.029v-.26h-.086v-.293h-.195v.273l-.504-.031v-.18h-.195v.164l-.52-.051v-.242h-.199v.227l-.766-.051v-.078h-.574v-.145h-.311v.074c-.035.02-.066.051-.098.066h-.035c-.539-.418-.57.438-.93.242-.035-.176-.02-.336-.02-.547.621-.016.398-.182.219-.389-.066-.082-.105-.211-.117-.289-.109-.398-.48-.682-1.027-.654zm1.104 2.482c.078 0 .121.027.121.027.195-.031.375.016.688 0-.051.531-.438.305-.863.598-.109-.016-.246-.02-.426-.02-.035-.355.102-.418.16-.48.133-.098.242-.125.32-.125z" fill="#2d2d2d"/>
</svg>
