<svg xmlns="http://www.w3.org/2000/svg" viewBox="0 0 48 48">
 <defs>
  <linearGradient id="linearGradient3764" x1="1" x2="47" gradientUnits="userSpaceOnUse" gradientTransform="matrix(0,-1,1,0,-1.5e-6,47.999998)">
   <stop style="stop-color:#e4e4e4;stop-opacity:1"/>
   <stop offset="1" style="stop-color:#eee;stop-opacity:1"/>
  </linearGradient>
 </defs>
 <g>
  
  
  
 </g>
 <g>
  <path d="m 47,24 C 47,46.703 46.703,47 24,47 1.297,47 1,46.703 1,24 1,1.297 1.297,1 24,1 46.703,1 47,1.297 47,24 z" style="fill:url(#linearGradient3764);fill-opacity:1"/>
 </g>
 <g>
  <g>
   <g transform="translate(1,1)">
    <g style="opacity:0.1">
     <!-- color: #eeeeee -->
    </g>
   </g>
  </g>
 </g>
 <g>
  <g>
   <!-- color: #eeeeee -->
  </g>
 </g>
 <g>
  
 </g>
 <path d="m 23 14 c -6.075 0 -11 4.925 -11 11 0 6.075 4.925 11 11 11 4.44 -0.001 8.443 -2.671 10.15 -6.77 l 4.445 -10.73 c 0.264 -0.455 0.403 -0.974 0.404 -1.5 0 -1.657 -1.343 -3 -3 -3 l -12 0 z m 0 2 a 9 9 0 0 1 9 9 9 9 0 0 1 -9 9 9 9 0 0 1 -9 -9 9 9 0 0 1 9 -9 z m -0.262 2.385 0.004 0.02 c -0.184 0.012 -0.39 0.057 -0.604 0.139 -0.574 0.211 -0.426 0.967 -0.375 1.486 -0.035 0.047 -0.102 0.031 -0.148 0.031 -0.621 0.031 -0.898 0.675 -1.027 1.188 0.027 0.473 -0.035 0.985 -0.117 1.439 -0.082 0.453 -0.242 0.809 -0.258 1.242 -0.035 0.387 0.109 0.838 0.078 1.189 -0.344 1 -0.59 1.662 -0.77 2.729 -0.133 0.238 -0.586 0.758 -0.766 0.871 -0.051 0.078 0.025 0.258 -0.053 0.367 -0.148 0.211 -0.379 0.324 -0.508 0.555 0.031 0.047 -0.195 0.094 -0.176 0.172 0.016 0.082 0.129 0.293 0.176 0.34 0.016 0.035 0.182 -0.047 0.182 0 0.066 0.195 0.215 0.598 0.379 0.691 0.719 0.078 0.719 0.078 1.012 0 0.16 -0.469 -0.555 -0.26 -0.488 -0.889 0.98 -0.188 1.289 -0.468 1.684 -1.479 0.18 -0.742 0.422 -1.473 0.801 -2.18 0.063 -0.051 0.047 -0.178 0.16 -0.229 0.438 0.727 1.238 1.242 1.637 2 0.098 0.98 0.293 1.516 0.633 1.695 0.082 0.027 0 0.336 0.066 0.398 0 0.102 0.031 0.207 -0.02 0.32 -0.027 0.082 -0.012 0.176 -0.012 0.258 l 0 0.098 c 0.016 0.145 0.047 0.148 0.195 0.262 0.422 0.273 0.991 0.711 1.563 0.387 0.262 -0.418 -0.289 -0.949 -0.684 -1.223 -0.129 -0.102 -0.359 -0.34 -0.328 -0.5 0.215 -0.211 0.359 -1.129 0.277 -1.84 -0.031 -0.16 -0.065 -0.324 -0.131 -0.453 -0.195 -0.371 -0.637 -0.883 -1.012 -1.254 0.047 -0.055 0.113 -0.117 0.195 -0.148 0 -0.352 -0.148 -0.465 -0.344 -0.723 -0.164 -0.258 -0.539 -0.766 -0.816 -0.922 0 0 -0.004 -0.02 -0.281 -0.02 -0.016 -0.176 0.035 -0.324 0.086 -0.516 0 -0.145 0.117 -0.063 0.148 -0.387 0.082 -0.273 0.043 -0.115 0.109 -0.393 0.066 -0.125 0.105 -0.258 0.105 -0.465 0.242 0.078 0.734 0.063 0.945 0 l 0.047 0.031 c 0.063 0.016 0.082 -0.082 0.129 -0.098 0.375 -0.191 0.508 -0.531 0.813 -0.563 0 0 0.168 -0.082 0.41 0 0.102 0 0.184 0.02 0.184 -0.078 0.016 -0.148 0.016 -0.262 0.098 -0.355 0.066 0.387 0.246 0.82 0.57 1.238 l 0.328 -0.223 c -0.316 -0.371 -0.512 -0.789 -0.539 -1.273 0.016 0.031 0.026 0.063 0.063 0.094 0.117 0 0.181 -0.238 0.314 -0.223 0.016 -0.031 0.051 -0.18 0.082 -0.293 l 1.223 0 0.441 -0.098 0 -0.229 -0.324 -0.029 0 -0.26 -0.086 0 0 -0.293 -0.195 0 0 0.273 -0.504 -0.031 0 -0.18 -0.195 0 0 0.164 -0.52 -0.051 0 -0.242 -0.199 0 0 0.227 -0.766 -0.051 0 -0.078 -0.574 0 0 -0.145 -0.311 0 0 0.074 c -0.035 0.02 -0.066 0.051 -0.098 0.066 l -0.035 0 c -0.539 -0.418 -0.57 0.438 -0.93 0.242 -0.035 -0.176 -0.02 -0.336 -0.02 -0.547 0.621 -0.016 0.398 -0.182 0.219 -0.389 -0.066 -0.082 -0.105 -0.211 -0.117 -0.289 -0.109 -0.398 -0.48 -0.682 -1.027 -0.654 z m 1.104 2.482 c 0.078 0 0.121 0.027 0.121 0.027 0.195 -0.031 0.375 0.016 0.688 0 -0.051 0.531 -0.438 0.305 -0.863 0.598 -0.109 -0.016 -0.246 -0.02 -0.426 -0.02 -0.035 -0.355 0.102 -0.418 0.16 -0.48 0.133 -0.098 0.242 -0.125 0.32 -0.125 z" style="fill:#000;opacity:0.1;fill-opacity:1;stroke:none;fill-rule:nonzero"/>
 <path d="m 22 13 c -6.075 0 -11 4.925 -11 11 0 6.075 4.925 11 11 11 4.44 -0.001 8.443 -2.671 10.15 -6.77 l 4.445 -10.73 c 0.264 -0.455 0.403 -0.974 0.404 -1.5 0 -1.657 -1.343 -3 -3 -3 l -12 0 z m 0 2 a 9 9 0 0 1 9 9 9 9 0 0 1 -9 9 9 9 0 0 1 -9 -9 9 9 0 0 1 9 -9 z m -0.262 2.385 0.004 0.02 c -0.184 0.012 -0.39 0.057 -0.604 0.139 -0.574 0.211 -0.426 0.967 -0.375 1.486 -0.035 0.047 -0.102 0.031 -0.148 0.031 -0.621 0.031 -0.898 0.675 -1.027 1.188 0.027 0.473 -0.035 0.985 -0.117 1.439 -0.082 0.453 -0.242 0.809 -0.258 1.242 -0.035 0.387 0.109 0.838 0.078 1.189 -0.344 1 -0.59 1.662 -0.77 2.729 -0.133 0.238 -0.586 0.758 -0.766 0.871 -0.051 0.078 0.025 0.258 -0.053 0.367 -0.148 0.211 -0.379 0.324 -0.508 0.555 0.031 0.047 -0.195 0.094 -0.176 0.172 0.016 0.082 0.129 0.293 0.176 0.34 0.016 0.035 0.182 -0.047 0.182 0 0.066 0.195 0.215 0.598 0.379 0.691 0.719 0.078 0.719 0.078 1.012 0 0.16 -0.469 -0.555 -0.26 -0.488 -0.889 0.98 -0.188 1.289 -0.468 1.684 -1.479 0.18 -0.742 0.422 -1.473 0.801 -2.18 0.063 -0.051 0.047 -0.178 0.16 -0.229 0.438 0.727 1.238 1.242 1.637 2 0.098 0.98 0.293 1.516 0.633 1.695 0.082 0.027 0 0.336 0.066 0.398 0 0.102 0.031 0.207 -0.02 0.32 -0.027 0.082 -0.012 0.176 -0.012 0.258 l 0 0.098 c 0.016 0.145 0.047 0.148 0.195 0.262 0.422 0.273 0.991 0.711 1.563 0.387 0.262 -0.418 -0.289 -0.949 -0.684 -1.223 -0.129 -0.102 -0.359 -0.34 -0.328 -0.5 0.215 -0.211 0.359 -1.129 0.277 -1.84 -0.031 -0.16 -0.065 -0.324 -0.131 -0.453 -0.195 -0.371 -0.637 -0.883 -1.012 -1.254 0.047 -0.055 0.113 -0.117 0.195 -0.148 0 -0.352 -0.148 -0.465 -0.344 -0.723 -0.164 -0.258 -0.539 -0.766 -0.816 -0.922 0 0 -0.004 -0.02 -0.281 -0.02 -0.016 -0.176 0.035 -0.324 0.086 -0.516 0 -0.145 0.117 -0.063 0.148 -0.387 0.082 -0.273 0.043 -0.115 0.109 -0.393 0.066 -0.125 0.105 -0.258 0.105 -0.465 0.242 0.078 0.734 0.063 0.945 0 l 0.047 0.031 c 0.063 0.016 0.082 -0.082 0.129 -0.098 0.375 -0.191 0.508 -0.531 0.813 -0.563 0 0 0.168 -0.082 0.41 0 0.102 0 0.184 0.02 0.184 -0.078 0.016 -0.148 0.016 -0.262 0.098 -0.355 0.066 0.387 0.246 0.82 0.57 1.238 l 0.328 -0.223 c -0.316 -0.371 -0.512 -0.789 -0.539 -1.273 0.016 0.031 0.026 0.063 0.063 0.094 0.117 0 0.181 -0.238 0.314 -0.223 0.016 -0.031 0.051 -0.18 0.082 -0.293 l 1.223 0 0.441 -0.098 0 -0.229 -0.324 -0.029 0 -0.26 -0.086 0 0 -0.293 -0.195 0 0 0.273 -0.504 -0.031 0 -0.18 -0.195 0 0 0.164 -0.52 -0.051 0 -0.242 -0.199 0 0 0.227 -0.766 -0.051 0 -0.078 -0.574 0 0 -0.145 -0.311 0 0 0.074 c -0.035 0.02 -0.066 0.051 -0.098 0.066 l -0.035 0 c -0.539 -0.418 -0.57 0.438 -0.93 0.242 -0.035 -0.176 -0.02 -0.336 -0.02 -0.547 0.621 -0.016 0.398 -0.182 0.219 -0.389 -0.066 -0.082 -0.105 -0.211 -0.117 -0.289 -0.109 -0.398 -0.48 -0.682 -1.027 -0.654 z m 1.104 2.482 c 0.078 0 0.121 0.027 0.121 0.027 0.195 -0.031 0.375 0.016 0.688 0 -0.051 0.531 -0.438 0.305 -0.863 0.598 -0.109 -0.016 -0.246 -0.02 -0.426 -0.02 -0.035 -0.355 0.102 -0.418 0.16 -0.48 0.133 -0.098 0.242 -0.125 0.32 -0.125 z" style="fill:#055197;fill-opacity:1;stroke:none;fill-rule:nonzero"/>
</svg>
