<svg viewBox="0 0 48 48" xmlns="http://www.w3.org/2000/svg" xmlns:xlink="http://www.w3.org/1999/xlink">
  <linearGradient id="a" gradientTransform="matrix(0 -1 1 0 -.0000015 47.999998)" gradientUnits="userSpaceOnUse" x1="1" x2="47">
    <stop offset="0" stop-color="#3a3a3a"/>
    <stop offset="1" stop-color="#444"/>
  </linearGradient>
  <path d="m47 24c0 22.703-.297 23-23 23-22.703 0-23-.297-23-23 0-22.703.297-23 23-23 22.703 0 23 .297 23 23z" fill="url(#a)"/>
  <g opacity=".1" transform="translate(1 1)">
    <path d="m24 11c-1.152.703-1.996 1.844-2.75 2.938-1.672 2.578-2.715 5.648-2.563 8.75-.008.125.047.27-.094.344-.508.406-1 .832-1.5 1.25-.859.75-1.262 1.977-1.031 3.094.281 1.32.582 2.617.875 3.938.129.613.871.996 1.438.75.367-.168.629-.5.938-.75.641-.539 1.219-1.152 1.875-1.656.805.754 1.922 1.238 3.03 1.156.961-.051 1.871-.52 2.563-1.188.91.766 1.805 1.578 2.719 2.344.551.445 1.469.102 1.625-.594.285-1.348.543-2.676.813-4.03.195-1.074-.168-2.23-.969-2.969-.559-.488-1.152-.973-1.719-1.441.215-3.215-.844-6.398-2.594-9.06-.742-1.074-1.52-2.191-2.656-2.875m0 4.996c1.656 0 3 1.344 3 3 0 1.656-1.344 3-3 3-1.656 0-3-1.344-3-3 0-1.656 1.344-3 3-3m0 0"/>
    <path d="m21 32.434c-.008-.391.414-.641.742-.43 1.379.711 3.094.691 4.473-.023.313-.195.773.039.785.418.004.828.004 1.656 0 2.48.008.406-.516.66-.824.41-.238-.211-.453-.449-.684-.668-.359.707-.699 1.426-1.066 2.129-.172.336-.723.336-.898.008-.363-.703-.703-1.426-1.074-2.133-.223.223-.438.457-.676.668-.313.254-.785.113-.781-.289-.004-.816 0-1.754 0-2.57m.004 0"/>
    <path d="m26 19c0 1.105-.895 2-2 2-1.105 0-2-.895-2-2 0-1.105.895-2 2-2 1.105 0 2 .895 2 2m0 0"/>
  </g>
  <path d="m24 11c-1.152.703-1.996 1.844-2.75 2.938-1.672 2.578-2.715 5.648-2.563 8.75-.008.125.047.27-.094.344-.508.406-1 .832-1.5 1.25-.859.75-1.262 1.977-1.031 3.094.281 1.32.582 2.617.875 3.938.129.613.871.996 1.438.75.367-.168.629-.5.938-.75.641-.539 1.219-1.152 1.875-1.656.805.754 1.922 1.238 3.03 1.156.961-.051 1.871-.52 2.563-1.188.91.766 1.805 1.578 2.719 2.344.551.445 1.469.102 1.625-.594.285-1.348.543-2.676.813-4.03.195-1.074-.168-2.23-.969-2.969-.559-.488-1.152-.973-1.719-1.441.215-3.215-.844-6.398-2.594-9.06-.742-1.074-1.52-2.191-2.656-2.875m0 4.996c1.656 0 3 1.344 3 3 0 1.656-1.344 3-3 3-1.656 0-3-1.344-3-3 0-1.656 1.344-3 3-3m0 0" fill="#3ec8db"/>
  <path d="m21 32.434c-.008-.391.414-.641.742-.43 1.379.711 3.094.691 4.473-.023.313-.195.773.039.785.418.004.828.004 1.656 0 2.48.008.406-.516.66-.824.41-.238-.211-.453-.449-.684-.668-.359.707-.699 1.426-1.066 2.129-.172.336-.723.336-.898.008-.363-.703-.703-1.426-1.074-2.133-.223.223-.438.457-.676.668-.313.254-.785.113-.781-.289-.004-.816 0-1.754 0-2.57m.004 0" fill="#ff5858"/>
  <path d="m26 19c0 1.105-.895 2-2 2-1.105 0-2-.895-2-2 0-1.105.895-2 2-2 1.105 0 2 .895 2 2m0 0" fill="#70cf2f"/>
</svg>
