<svg xmlns="http://www.w3.org/2000/svg" viewBox="0 0 48 48">
 <defs>
  <linearGradient id="linearGradient3020" x1="24.25" y1="47.25" x2="24" y2="1" gradientUnits="userSpaceOnUse">
   <stop style="stop-color:#32316f;stop-opacity:1"/>
   <stop offset="1" style="stop-color:#38377d;stop-opacity:1"/>
  </linearGradient>
 </defs>
 <g>
  
  
  
 </g>
 <g>
  <path d="m 24 1 c 22.703 0 23 0.297 23 23 c 0 22.703 -0.297 23 -23 23 -22.703 0 -23 -0.297 -23 -23 0 -22.703 0.297 -23 23 -23 z" style="fill:url(#linearGradient3020);fill-opacity:1"/>
 </g>
 <g>
  
 </g>
 <g transform="translate(1.2340208,1.0000003)" style="fill:#000;opacity:0.1">
  <g>
   <path transform="matrix(2,0,0,0.82,55,7.19)" d="m -10.5 20.5 c -0.5 8.537 -1 14.634 -5 14.634 -4 0 -4.5 -6.098 -5 -14.634 -0.5 -8.537 0.5 -13.415 5 -13.415 4.5 0 5.5 4.878 5 13.415 z" style="fill-opacity:1;stroke:none;fill-rule:nonzero"/>
  </g>
 </g>
 <g transform="translate(0.23402082,0)">
  <g>
   <path d="m -10.5 20.5 c -0.5 8.537 -1 14.634 -5 14.634 -4 0 -4.5 -6.098 -5 -14.634 -0.5 -8.537 0.5 -13.415 5 -13.415 4.5 0 5.5 4.878 5 13.415 z" transform="matrix(2,0,0,0.82,55,7.19)" style="fill:#808080;fill-opacity:1;stroke:none;fill-rule:nonzero"/>
  </g>
  <path d="m 24 13 c -9 0 -11 4 -10 11 0.736 5.155 2 10 5 11 3 1 -1 -17 10 -21 1.329 -0.483 -2.573 -1 -5 -1 z" style="fill:#ccc;stroke:none"/>
  <path d="m 14 19 c 0 -1 20 -1 20 0 0 4.01 -0.834 9.468 -1.587 12.1 c -0.827 2.896 -15.94 2.786 -16.861 -0.084 -0.968 -3.02 -1.553 -7.98 -1.553 -12.02" style="fill:#87aade;stroke:none"/>
  <path d="m 34 19 c 0 0 -18 -2 -20 0 0 11 1.814 12.452 1.814 12.452 0 0 1.771 -6.44 4.186 -8.452 3.729 -3.107 14 -4 14 -4 z" style="fill:#d5f6ff;stroke:none"/>
  <path d="m 16 32 c 0 0 10 3 16 0 2 -4 2 -13 2 -13 0 0 -0.971 8.541 -4 11 -3.66 2.971 -14 2 -14 2 z" style="fill:#3771c8;stroke:none"/>
 </g>
</svg>
