<svg viewBox="0 0 48 48" xmlns="http://www.w3.org/2000/svg" xmlns:xlink="http://www.w3.org/1999/xlink">
  <linearGradient id="a" gradientUnits="userSpaceOnUse" x1="1" x2="47">
    <stop offset="0" stop-color="#6b4161"/>
    <stop offset="1" stop-color="#77496c"/>
  </linearGradient>
  <path d="m24 1c22.703 0 23 .297 23 23 0 22.703-.297 23-23 23-22.703 0-23-.297-23-23 0-22.703.297-23 23-23z" fill="url(#a)" transform="matrix(0 -1 1 0 0 48)"/>
  <path d="m25 11l-6 4.154v-2.154c0-.554-.446-1-1-1h-1c-.554 0-1 .446-1 1v4c0 .072.027.135.041.203l-4.04 2.797h1v16h24v-16h1l-13-9z" fill-opacity=".098"/>
  <path d="m12 19h24v16h-24z" fill="#595b92"/>
  <path d="m16 11h1c .554 0 1 .446 1 1v4c0 .554-.446 1-1 1h-1c-.554 0-1-.446-1-1v-4c0-.554.446-1 1-1z" fill="#2d2d2d"/>
  <path d="m11 19h26l-13-9z" fill="#2d2d2d"/>
  <path d="m22 29c1.333-1.333 2.667-1.333 4 0v6h-4z" fill="#2d2d2d"/>
  <path d="m30 21h3c .554 0 1 .446 1 1v3c0 .554-.446 1-1 1h-3c-.554 0-1-.446-1-1v-3c0-.554.446-1 1-1z" fill="#2d2d2d"/>
  <path d="m15 21h3c .554 0 1 .446 1 1v3c0 .554-.446 1-1 1h-3c-.554 0-1-.446-1-1v-3c0-.554.446-1 1-1z" fill="#f8c678"/>
  <path d="m30 28h3c .554 0 1 .446 1 1v3c0 .554-.446 1-1 1h-3c-.554 0-1-.446-1-1v-3c0-.554.446-1 1-1z" fill="#2d2d2d"/>
  <path d="m15 28h3c .554 0 1 .446 1 1v3c0 .554-.446 1-1 1h-3c-.554 0-1-.446-1-1v-3c0-.554.446-1 1-1z" fill="#2d2d2d"/>
  <path d="m20 27h8l-4-3z" fill="#2d2d2d"/>
  <path d="m20 27h1v8h-1z" fill="#2d2d2d"/>
  <path d="m27 27h1v8h-1z" fill="#2d2d2d"/>
</svg>
