<svg xmlns="http://www.w3.org/2000/svg" viewBox="0 0 48 48">
 <defs>
  <linearGradient id="linearGradient4223" x1="1" x2="47" gradientUnits="userSpaceOnUse">
   <stop style="stop-color:#d555c3;stop-opacity:1"/>
   <stop offset="1" style="stop-color:#d965c9;stop-opacity:1"/>
  </linearGradient>
 </defs>
 <g>
  
  
  
 </g>
 <g transform="matrix(0,-1,1,0,0,48)" style="fill:url(#linearGradient4223);fill-opacity:1">
  <path d="M 24,1 C 46.703,1 47,1.297 47,24 47,46.703 46.703,47 24,47 1.297,47 1,46.703 1,24 1,1.297 1.297,1 24,1 Z"/>
 </g>
 <path d="m 36.996,34 c 0.551,0 1,-0.445 1,-0.996 l 0,-16 c 0,-0.551 -0.449,-1 -1,-1 l -4,0 c -0.551,0 -1,0.449 -1,1 l 0,16 c 0,0.551 0.449,0.996 1,0.996 l 4,0 z M 29,34 c 0.551,0 0.996,-0.445 0.996,-0.996 l 0,-16 c 0,-0.551 -0.445,-1 -0.996,-1 -3,0 -5.998,-0.004 -9,-0.004 -4.97,0 -9,4.03 -9,9 0,4.97 4.03,9 9,9 l 9,0 z" style="fill:#000;fill-opacity:0.098"/>
 <g transform="matrix(-1,0,0,-1,48.996,48)" style="fill:#003b3e;fill-opacity:1">
  <path d="m 13,15 4,0 c 0.551,0 1,0.445 1,0.996 l 0,16 c 0,0.551 -0.449,1 -1,1 l -4,0 c -0.551,0 -1,-0.449 -1,-1 l 0,-16 C 12,15.445 12.449,15 13,15 m 0,0"/>
  <path d="M 20.996,15 C 20.445,15 20,15.445 20,15.996 l 0,16 c 0,0.551 0.445,1 0.996,1 3,0 5.998,0.004 9,0.004 4.97,0 9,-4.03 9,-9 0,-4.97 -4.03,-9 -9,-9 -3,0 -6,0 -9,0 z"/>
 </g>
 <g>
  
 </g>
</svg>
