<svg viewBox="0 0 48 48" xmlns="http://www.w3.org/2000/svg" xmlns:xlink="http://www.w3.org/1999/xlink">
  <linearGradient id="a" gradientTransform="matrix(0 -1 1 0 -.0000015 47.999998)" gradientUnits="userSpaceOnUse" x1="1" x2="47">
    <stop offset="0" stop-color="#e4e4e4"/>
    <stop offset="1" stop-color="#eee"/>
  </linearGradient>
  <path d="m47 24c0 22.703-.297 23-23 23-22.703 0-23-.297-23-23 0-22.703.297-23 23-23 22.703 0 23 .297 23 23z" fill="url(#a)"/>
  <path d="m21.574 13l-8.574 7v17h17l7-7v-17c-5.142 0-10.284 0-15.426 0z" opacity=".1" transform=""/>
  <path d="m12 19h17v17h-17m0-17" fill="#267fc1"/>
  <path d="m29 12v24l7-7v-17m-7 .004" fill="#69be49"/>
  <path d="m20.574 12l-8.574 7h17l7-7m-15.43 0" fill="#e54d51"/>
</svg>
