<svg xmlns="http://www.w3.org/2000/svg" viewBox="0 0 48 48">
 <defs>
  <linearGradient id="linearGradient3764" x1="1" x2="47" gradientUnits="userSpaceOnUse" gradientTransform="matrix(0,-1,1,0,-1.5e-6,47.999998)">
   <stop style="stop-color:#921616;stop-opacity:1"/>
   <stop offset="1" style="stop-color:#a31919;stop-opacity:1"/>
  </linearGradient>
 </defs>
 <g>
  
  
  
 </g>
 <g>
  <path d="m 47,24 C 47,46.703 46.703,47 24,47 1.297,47 1,46.703 1,24 1,1.297 1.297,1 24,1 46.703,1 47,1.297 47,24 z" style="fill:url(#linearGradient3764);fill-opacity:1"/>
 </g>
 <g>
  <g>
   <g transform="translate(1,1)">
    <g style="opacity:0.1">
     <!-- color: #a31919 -->
     <g>
      <path d="m 20.21 30.785 l -7.18 5.207 c -1.148 0.156 -1.305 -2.191 -0.66 -2.645 l 5.945 -3.961 l -0.07 -1.23 l 1.191 0.457 c 4.223 -3.273 11.09 -10.262 16.04 -16.57 c 0.195 -0.293 0.613 0.98 0.5 1.402 c -5.086 6.59 -9.523 11.04 -15.02 16.68 l 0.445 1.133 m -1.188 -0.473" style="fill:#000;fill-opacity:1;stroke:none;fill-rule:nonzero"/>
     </g>
    </g>
   </g>
  </g>
 </g>
 <g>
  <g>
   <!-- color: #a31919 -->
   <g>
    <path d="m 20.21 30.785 l -7.18 5.207 c -1.148 0.156 -1.305 -2.191 -0.66 -2.645 l 5.945 -3.961 l -0.07 -1.23 l 1.191 0.457 c 4.223 -3.273 11.09 -10.262 16.04 -16.57 c 0.195 -0.293 0.613 0.98 0.5 1.402 c -5.086 6.59 -9.523 11.04 -15.02 16.68 l 0.445 1.133 m -1.188 -0.473" style="fill:#f9f9f9;fill-opacity:1;stroke:none;fill-rule:nonzero"/>
   </g>
  </g>
 </g>
 <g>
  
 </g>
</svg>
