<svg viewBox="0 0 48 48" xmlns="http://www.w3.org/2000/svg" xmlns:xlink="http://www.w3.org/1999/xlink">
  <linearGradient id="a" gradientTransform="matrix(0 -1 1 0 -.0000015 47.999998)" gradientUnits="userSpaceOnUse" x1="1" x2="47">
    <stop offset="0" stop-color="#cc612c"/>
    <stop offset="1" stop-color="#d46d38"/>
  </linearGradient>
  <path d="m47 24c0 22.703-.297 23-23 23-22.703 0-23-.297-23-23 0-22.703.297-23 23-23 22.703 0 23 .297 23 23z" fill="url(#a)"/>
  <path d="m16.5 12c0 0-1.047 1.77-1.496 6l1.496 3 6 1.5v7.5c-2.336 1.188-3.492.996-6 0l-1.496 3c2.563.676 5.04-.352 7.5 0 0 .527-.234 3 1.5 3 1.496 0 1.496-2.469 1.496-3 0-.156.059-.855 0-1.5 2.02-.801 4.91-.684 6-.281v-2.715c-.645-1.223-4.625-.488-6 0v-6l6-1.5c.898-2.113 1.5-3 1.5-3-.453-4.234-1.5-6-1.5-6h-15m0-.008" opacity=".1" transform="translate(1 1)"/>
  <path d="m16.5 12c0 0-1.047 1.77-1.496 6l1.496 3 6 1.5v7.5c-2.336 1.188-3.492.996-6 0l-1.496 3c2.563.676 5.04-.352 7.5 0 0 .527-.234 3 1.5 3 1.496 0 1.496-2.469 1.496-3 0-.156.059-.855 0-1.5 2.02-.801 4.91-.684 6-.281v-2.715c-.645-1.223-4.625-.488-6 0v-6l6-1.5c.898-2.113 1.5-3 1.5-3-.453-4.234-1.5-6-1.5-6h-15m0-.008" fill="#2d2d2d"/>
</svg>
