<svg viewBox="0 0 48 48" xmlns="http://www.w3.org/2000/svg" xmlns:xlink="http://www.w3.org/1999/xlink">
  <linearGradient id="a" gradientTransform="matrix(0 -1 1 0 -.0000015 47.999998)" gradientUnits="userSpaceOnUse" x1="1" x2="47">
    <stop offset="0" stop-color="#ac1400"/>
    <stop offset="1" stop-color="#c01800"/>
  </linearGradient>
  <path d="m47 24c0 22.703-.297 23-23 23-22.703 0-23-.297-23-23 0-22.703.297-23 23-23 22.703 0 23 .297 23 23z" fill="url(#a)"/>
  <path d="m34.424 18.16c-1.185-.106-2.385.604-3.01 1.576-.855 1.746-.27 2.637.051 3.543v.012c1.934.031.305-.043 5 .258.789-.48 1.344-2.352-.051-4.195-.574-.772-1.279-1.13-1.99-1.193zm-18.635.422c-1.185-.106-2.381.604-3.01 1.576-.839 1.712-.632 2.799.109 3.467-.033.044-.061.092-.096.135v.063c-.023.078-.023.164 0 .242.023.098.078.176.137.254.219.27.555.44.898.479.348.039.703-.043 1.012-.211.27-.145.504-.348.773-.496.262-.137.543-.211.844-.23.43-.02.859.09 1.297.043.215-.02.426-.082.602-.211.086-.063.166-.141.221-.227.063-.102.097-.2.104-.314.012-.132-.024-.26-.078-.381 0 0 0 0 0-.002.277-.763.351-1.437-.822-2.992-.576-.772-1.283-1.13-1.994-1.193zm9.186 6.06c-3.998.024-7.988.166-11.975.354.748 3.661 4.927 5.585 9.305 6.133-1.946.165-3.314.49-3.314.877 0 .547 2.705.992 6.04.992 3.337 0 6.04-.445 6.04-.992 0-.344-1.122-.632-2.725-.811 3.966-.209 7.547-1.081 8.654-6.199-4.02-.283-8.03-.377-12.03-.354z" fill-opacity=".098"/>
  <g transform="translate(.00027778)">
    <path d="m30.465 22.297c1.934.031.305-.043 5 .258.789-.48 1.344-2.352-.051-4.195-1.531-2.059-4-1.172-5 .383-.855 1.746-.27 2.637.051 3.543m0 .012"/>
    <path d="m11.934 22.672c1.988-.176 1.98-.195 5.512-.457.383-.992.73-1.586-.664-3.434-1.535-2.059-4-1.172-5 .383-.855 1.746-.625 2.844.152 3.508m0 0"/>
    <path d="m11.797 22.766v.063c-.023.078-.023.164 0 .242.023.098.078.176.137.254.219.27.555.438.898.477.348.039.703-.043 1.012-.211.27-.145.504-.348.773-.496.262-.137.543-.211.844-.23.43-.02.859.09 1.297.043.215-.02.426-.082.602-.211.086-.063.164-.141.219-.227.063-.102.098-.199.105-.313.012-.133-.023-.262-.078-.383-.055-.117-.141-.223-.234-.313-.191-.184-.422-.316-.641-.465-.117-.082-.238-.172-.383-.215-.168-.051-.355-.016-.535-.039-.191-.02-.363-.098-.543-.148-.367-.109-.758-.117-1.137-.047-.375.066-.73.223-1.055.43-.309.195-.594.453-.734.785-.027.066-.047.137-.078.203-.109.293-.273.563-.469.801" fill="#952f51"/>
    <path d="m13.719 18.68c0 .246-.262.449-.586.449-.324 0-.586-.203-.586-.449 0-.246.262-.449.586-.449.324 0 .586.203.586.449m0 0" fill="#deffff"/>
    <path d="m32.23 18.898c0 .25-.262.449-.586.449-.32 0-.582-.199-.582-.449 0-.246.262-.449.582-.449.324 0 .586.203.586.449m0 0" fill="#deffff"/>
    <path d="m30.07 31.01c0 .547-2.703.992-6.04.992-3.336 0-6.04-.445-6.04-.992 0-.551 2.699-.996 6.04-.996 3.332 0 6.04.445 6.04.996m0 0" fill="#a31200"/>
    <path d="m28.824 31.01c0 .426-1.977.77-4.41.77-2.434 0-4.406-.348-4.406-.77 0-.438 1.973-.777 4.406-.777 2.434 0 4.41.348 4.41.777m0 0" fill="#8e0f00"/>
    <path d="m26.773 31.01c0 .227-1.055.414-2.359.414-1.305 0-2.359-.191-2.359-.414 0-.23 1.055-.414 2.359-.414 1.305 0 2.359.184 2.359.414m0 0" fill="#660800"/>
    <path d="m12 24c7.973-.375 15.961-.566 24 0-1.324 6.117-6.172 6.184-11 6.281-5.43.266-12.04-1.582-13-6.281m0 0"/>
    <path d="m14.14 25.891c.09.449-.176 1.113.227 1.398 2.496 1.758 7.18 2.539 10.359 2.605 4.207.023 7.523-.348 8.652-1.879.246-.336.004-1.27.023-1.77l-2.281-.059 2.289-.227-.23-1.832h-10.906l-.027 2.086-2.441-.078.102-1.906-5.789-.195.031 1.656 1.793.063m-1.801.137" fill="#fff4f3"/>
  </g>
</svg>
