<svg viewBox="0 0 48 48" xmlns="http://www.w3.org/2000/svg" xmlns:xlink="http://www.w3.org/1999/xlink">
  <linearGradient id="a" gradientUnits="userSpaceOnUse" x1="24.25" x2="24" y1="47.25" y2="1">
    <stop offset="0" stop-color="#e1e1e1"/>
    <stop offset="1" stop-color="#ebebeb"/>
  </linearGradient>
  <path d="m24 1c22.703 0 23 .297 23 23 0 22.703-.297 23-23 23-22.703 0-23-.297-23-23 0-22.703.297-23 23-23z" fill="url(#a)"/>
  <path d="m23.563 10.25c-.543.009-1.214.044-1.844.156-.63.112-1.293.2-1.719.875-.164.261-.152.596.031.844l.281.375-.656-.406c-.147-.1-.324-.144-.5-.125-1.024.129-1.829.742-2.438 1.281-.609.54-1.031 1.063-1.031 1.063-.334.416-.138 1.039.375 1.188 0 0 .38.104.781.25l-1.063.188c-.225.038-.42.176-.531.375-.633 1.096-.802 2.058-.781 2.75.021.692.281 1.188.281 1.188.167.333.553.493.906.375 0 0 .088-.029.094-.031-.164.198-.337.385-.438.656-.081.203-.07.431.031.625.338.614.821 1.521 1.688 2.5.389.443 1.113.284 1.281-.281.126-.403.369-.598.594-.844.959.655 2.02 1.164 3.125 1.406.031.012.062.023.094.031 1.15.08 1.572.207 2.188.5-.061-.007-.087-.025-.156-.031-.518-.046-1.252-.091-2.063 0-1.609.181-3.635.865-4.781 2.781-.008.013-.023.018-.031.031-.615 1-.875 2.293-.781 3.594.094 1.315.574 2.683 1.531 3.688 2.207 2.198 5.936 2.512 9.219 2.25.031.002.063.002.094 0 4.04-.79 5.328-3.157 5.938-4.344.011 0 .021-.02.031-.031 1.602-3.63.702-7.503-2.125-10.344 0 0-.021 0-.031 0-1.927-1.823-4.122-2.658-6.406-3.344.232-.246.645-.405.938-.563.277-.095.463-.048.438-.063.077.046.162.078.25.094 2.515.331 4.375.875 4.375.875.32.095.664-.032.844-.313l.406-.625c.263.054.575.437.75.594.254.331.656 1.188.656 1.188.247.572 1.044.609 1.344.063.917-1.551.951-4.072-1.438-6.125 0-.011-.02-.021-.031-.031-1.115-.854-2.324-1.351-3.531-1.719 0-.587.031-1.313.031-1.313-.004-.277-.16-.529-.406-.656-.777-.421-1.635-.547-2.344-.594-.709-.047-1.281 0-1.281 0-.502.046-.817.565-.625 1.031 0 0 .138.352.281.75.008.022.023.04.031.063-.191.011-.362.013-.531.031l-.656-1.438c-.123-.269-.392-.441-.688-.438m1.874 15.501c.63.3 1.411.692 2.063 1.188.732.557 1.2 1.181 1.25 1.563.009.021.02.043.031.063.352 1.608-.183 2.75-1.781 3.594 0 0-.021 0-.031 0-.81.485-2.128.744-3.344.625-1.216-.119-2.296-.607-2.781-1.219-.821-1.07-.557-2.864.531-3.656.045-.027.087-.058.125-.094-.043.049.194-.152.531-.281.337-.129.763-.262 1.188-.375.424-.113.865-.204 1.188-.281.313-.033.54-.163.813-.25 0 0 .053-.069.094-.125.089-.121.187-.281.188-.281 0 0-.046-.319-.063-.469z" opacity=".1" transform="matrix(.9506741 0 0 .9506741 2.24656946 2.27551651)"/>
  <g transform="matrix(.9506741 0 0 .9506741 1.4735293 1.1017132)">
    <path d="m23.549 10.252c-.543.009-1.215.039-1.846.15-.63.112-1.286.211-1.711.887-.164.261-.152.596.031.844l.256.346-.633-.395c-.146-.091-.319-.129-.49-.107-1.024.129-1.841.743-2.449 1.283-.609.54-1.016 1.059-1.016 1.059-.324.413-.134 1.022.367 1.178 0 0 .399.129.809.279l-1.08.172c-.222.036-.416.17-.529.365-.633 1.096-.797 2.054-.775 2.746.021.692.256 1.188.256 1.188.169.333.559.491.912.369 0 0 .094-.033.102-.035-.168.2-.351.383-.453.658-.076.204-.06.432.045.623.338.614.823 1.531 1.689 2.51.386.436 1.1.284 1.275-.271.125-.4.375-.601.598-.846.959.656 2.01 1.172 3.121 1.414.035.008.071.013.107.016 1.147.08 1.578.195 2.189.486-.066-.007-.103-.017-.178-.023-.518-.046-1.243-.068-2.053.023-1.617.182-3.652.847-4.795 2.785-.626 1-.881 2.304-.787 3.615.094 1.315.551 2.66 1.508 3.664.005.005.009.011.014.016 2.207 2.198 5.932 2.508 9.215 2.246.028-.002.055-.007.082-.012 4.04-.79 5.352-3.144 5.961-4.33.007-.013.014-.026.02-.039 1.602-3.63.704-7.49-2.123-10.33-.006-.005-.012-.011-.018-.016-1.922-1.818-4.128-2.657-6.406-3.342.231-.244.639-.394.928-.547.277-.095.446-.052.42-.066.081.044.169.072.26.084 2.515.331 4.387.883 4.387.883.317.093.658-.034.838-.311l.406-.625c.234.006.594.448.756.594.255.339.65 1.176.65 1.176.246.557 1.02.603 1.33.078.917-1.551.951-4.084-1.438-6.137-.011-.009-.022-.017-.033-.025-1.112-.852-2.306-1.345-3.51-1.713 0-.584.021-1.307.021-1.307.005-.279-.146-.537-.391-.67-.777-.421-1.659-.537-2.367-.584-.709-.047-1.266-.004-1.266-.004-.505.039-.826.557-.637 1.027 0 0 .144.358.287.756.007.02.012.037.02.057-.185.011-.359.015-.523.033l-.66-1.439c-.124-.27-.396-.441-.693-.436zm2.242 2.93c.105.153.238.325.26.338.031.019-.163-.066-.271-.322l.012-.016zm-.338 12.559c.629.3 1.392.696 2.041 1.189.732.557 1.214 1.193 1.264 1.574.003.021.007.042.012.063.352 1.608-.177 2.74-1.775 3.584-.012.006-.024.013-.035.02-.81.485-2.118.72-3.334.602-1.213-.118-2.296-.591-2.783-1.201-.817-1.07-.55-2.861.537-3.652.043-.032.083-.068.119-.109-.043.049.202-.136.539-.266.337-.129.771-.258 1.195-.371.424-.113.839-.21 1.162-.287.318-.016.541-.174.812-.266.02-.025.038-.054.054-.077.074-.101.244-.334.244-.334 0 0-.037-.328-.053-.469z" fill="#87cdde" transform="translate(-.2386832 .18282113)"/>
    <g fill="#373e48" transform="translate(-.2386832 .18282113)">
      <path d="m20.372 14.27c1.498-1.328 3.577-1.546 5.494-1.452 2.597.141 4.884.723 6.961 2.314 2.174 1.868 2.032 3.883 1.272 5.169 0 0-.373-.845-.741-1.323-1.526-1.81-3.226-1.551-4.851-1.963-.24.427-.142.095-.381.522l3.235.905-.399.632c0 0-1.917-.572-4.491-.911-1.069-.582-3.786 1.654-2.417 1.811 2.427.702 4.657 1.509 6.591 3.339 2.651 2.664 3.453 6.129 1.968 9.494-.612 1.193-1.612 3.193-5.432 3.939-3.18.254-6.715-.117-8.631-2.025-1.61-1.691-1.635-4.721-.6-6.371 1.965-3.35 7.05-2.35 6.833-2.345-.099.105-3.258.639-3.84 1.299-1.451 1.056-1.797 3.294-.701 4.721 1.361 1.714 5.102 1.999 7.114.793 1.821-.961 2.552-2.527 2.141-4.405-.196-1.491-2.609-2.867-3.999-3.496-1.451-.802-1.69-.884-3.301-.996-2.153-.47-4.4-1.764-5.197-3.922-.555-1.728.735-3.306 1.916-4.409.476-.451.945-.91 1.456-1.321zm7.291 1.152c1.499-.217-.516-1.395-1.347-1.134-2.227.324.697 1.43 1.347 1.134z"/>
      <path d="m28.995 13.363c.012-.705.042-1.856.042-1.856-1.202-.652-3.24-.508-3.24-.508 0 0 .605 1.488.599 1.856.249.915 1.799.338 2.599.507z"/>
      <path d="m24.493 13.03c-.312-.678-.623-1.355-.935-2.033-1.048.018-2.58.116-2.935.68l1.377 1.857c.522-.023 1.972-.48 2.493-.504z"/>
      <path d="m21.18 13.92l-1.935-1.197c-1.499.188-2.96 2.045-2.96 2.045 0 0 1.757.57 1.979.87.28.186.57 1.248.876.758.515-.478 1.525-1.998 2.04-2.477z"/>
      <path d="m18.251 16.305c-.777.126-1.553.252-2.33.378-1.137 1.969-.511 3.216-.511 3.216 0 0 1.833-.669 2.59-.899.084-.898.168-1.797.251-2.695z"/>
      <path d="m18.264 19.812c-.833.495-1.9.707-2.264 1.686.344.624.781 1.483 1.586 2.393.311-.99 1.111-1.588 1.414-1.891-.167-.495-.569-1.693-.736-2.188"/>
    </g>
  </g>
</svg>
