<svg viewBox="0 0 48 48" xmlns="http://www.w3.org/2000/svg" xmlns:xlink="http://www.w3.org/1999/xlink">
  <linearGradient id="a" gradientTransform="matrix(0 -1 1 0 -.0000015 47.999998)" gradientUnits="userSpaceOnUse" x1="1" x2="47">
    <stop offset="0" stop-color="#3575c3"/>
    <stop offset="1" stop-color="#427ecb"/>
  </linearGradient>
  <path d="m47 24c0 22.703-.297 23-23 23-22.703 0-23-.297-23-23 0-22.703.297-23 23-23 22.703 0 23 .297 23 23z" fill="url(#a)"/>
  <path d="m25 12.998c-5.922 0-10.86 4.344-11.82 10h-3.18v4h3.18c.96 5.658 5.899 10 11.82 10 5.922 0 10.86-4.344 11.82-10h3.18v-4h-3.18c-.96-5.658-5.899-10-11.82-10zm0 4.16c3.663 0 6.701 2.467 7.578 5.842h-15.16c.877-3.374 3.914-5.842 7.578-5.842zm-7.578 9.842h15.16c-.877 3.374-3.914 5.842-7.578 5.842-3.663 0-6.701-2.467-7.578-5.842z" opacity=".1" transform=""/>
  <path d="m24 11.999c-6.604 0-12 5.398-12 12 0 6.604 5.398 12 12 12 6.604 0 12-5.398 12-12 0-6.604-5.398-12-12-12zm0 4.158c4.357 0 7.843 3.485 7.843 7.843 0 4.357-3.485 7.843-7.843 7.843-4.357 0-7.843-3.485-7.843-7.843 0-4.357 3.485-7.843 7.843-7.843z" fill="#f9f9f9"/>
  <path d="m9 22h30v4h-30m0-4" fill="#f9f9f9"/>
</svg>
