<svg xmlns="http://www.w3.org/2000/svg" viewBox="0 0 48 48">
 <defs>
  <linearGradient id="linearGradient3890" x1="1" x2="47" gradientUnits="userSpaceOnUse">
   <stop style="stop-color:#6b4161;stop-opacity:1"/>
   <stop offset="1" style="stop-color:#77496c;stop-opacity:1"/>
  </linearGradient>
 </defs>
 <g>
  
  
  
 </g>
 <g transform="matrix(0,-1,1,0,0,48)" style="fill:url(#linearGradient3890);fill-opacity:1">
  <path d="M 24,1 C 46.703,1 47,1.297 47,24 47,46.703 46.703,47 24,47 1.297,47 1,46.703 1,24 1,1.297 1.297,1 24,1 z"/>
 </g>
 <g>
  
 </g>
 <path d="m 25 11 -6 4.154 0 -2.154 c 0 -0.554 -0.446 -1 -1 -1 l -1 0 c -0.554 0 -1 0.446 -1 1 l 0 4 c 0 0.072 0.027 0.135 0.041 0.203 l -4.04 2.797 l 1 0 0 16 24 0 0 -16 1 0 -13 -9 z" style="fill:#000;fill-opacity:0.098;stroke:none"/>
 <path d="m 12 19 24 0 0 16 -24 0 z" style="fill:#595b92;fill-opacity:1;stroke:none"/>
 <path d="m 16 11 1 0 c 0.554 0 1 0.446 1 1 l 0 4 c 0 0.554 -0.446 1 -1 1 l -1 0 c -0.554 0 -1 -0.446 -1 -1 l 0 -4 c 0 -0.554 0.446 -1 1 -1 z" style="fill:#2d2d2d;fill-opacity:1;stroke:none"/>
 <path d="m 11 19 26 0 -13 -9 z" style="fill:#2d2d2d;fill-opacity:1;stroke:none"/>
 <path d="m 22 29 c 1.333 -1.333 2.667 -1.333 4 0 l 0 6 -4 0 z" style="fill:#2d2d2d;fill-opacity:1;stroke:none"/>
 <path d="m 30 21 3 0 c 0.554 0 1 0.446 1 1 l 0 3 c 0 0.554 -0.446 1 -1 1 l -3 0 c -0.554 0 -1 -0.446 -1 -1 l 0 -3 c 0 -0.554 0.446 -1 1 -1 z" style="fill:#2d2d2d;fill-opacity:1;stroke:none"/>
 <path d="m 15 21 3 0 c 0.554 0 1 0.446 1 1 l 0 3 c 0 0.554 -0.446 1 -1 1 l -3 0 c -0.554 0 -1 -0.446 -1 -1 l 0 -3 c 0 -0.554 0.446 -1 1 -1 z" style="fill:#f8c678;fill-opacity:1;stroke:none"/>
 <path d="m 30 28 3 0 c 0.554 0 1 0.446 1 1 l 0 3 c 0 0.554 -0.446 1 -1 1 l -3 0 c -0.554 0 -1 -0.446 -1 -1 l 0 -3 c 0 -0.554 0.446 -1 1 -1 z" style="fill:#2d2d2d;fill-opacity:1;stroke:none"/>
 <path d="m 15 28 3 0 c 0.554 0 1 0.446 1 1 l 0 3 c 0 0.554 -0.446 1 -1 1 l -3 0 c -0.554 0 -1 -0.446 -1 -1 l 0 -3 c 0 -0.554 0.446 -1 1 -1 z" style="fill:#2d2d2d;fill-opacity:1;stroke:none"/>
 <path d="m 20 27 8 0 -4 -3 z" style="fill:#2d2d2d;opacity:1;fill-opacity:1;stroke:none"/>
 <rect width="1" height="8" x="20" y="27" style="fill:#2d2d2d;opacity:1;fill-opacity:1;stroke:none;fill-rule:nonzero"/>
 <rect width="1" height="8" x="27" y="27" style="fill:#2d2d2d;opacity:1;fill-opacity:1;stroke:none;fill-rule:nonzero"/>
</svg>
