<svg xmlns="http://www.w3.org/2000/svg" viewBox="0 0 48 48">
 <g>
  
  
  
 </g>
 <g style="fill:#f6d8a3;fill-opacity:1">
  <path d="m 24 1 c 22.703 0 23 0.297 23 23 c 0 22.703 -0.297 23 -23 23 -22.703 0 -23 -0.297 -23 -23 0 -22.703 0.297 -23 23 -23 z"/>
 </g>
 <path d="m 41.1 14.674 l -11.48 4.824 l -0.641 -1.053 l -2.104 1.279 l 0 -0.002 l -5.447 -0.5 l 0 -0.001 l -12.328 0.037 l 12.03 2.482 l 0 0.004 l 0.031 0.002 l 0.033 0.008 l 0 -0.004 l 2.057 0.189 l -2.676 1.627 c -2.88 -0.926 -4.954 1 -6.186 2.916 c 1.779 -0.678 2.957 -1.284 4.881 -0.852 l -0.172 0.275 l 1.922 3.156 l 0.307 -0.025 c -0.511 1.841 -1.578 2.605 -2.975 3.854 c 2.243 -0.212 4.875 -1.148 5.416 -4.059 l 2.674 -1.627 l -0.791 1.945 l -0.002 -0.002 l -0.002 0.012 l -0.004 0.001 l 0.002 0 l -1.809 0.297 l 4.168 -9.363 l -0.008 -0.004 l 2.076 -5.104 l 2.107 -1.283 l -0.639 -1.051 l 9.561 -7.98 z" style="fill:#000;opacity:0.1;fill-opacity:1;stroke:none;fill-rule:evenodd"/>
 <g>
  
 </g>
 <path d="m 40.1 13.675 -11.481 4.823 1.92 3.156 z" style="fill:#fba295;fill-opacity:1;stroke:none;fill-rule:evenodd"/>
 <path d="m 13.391 25.474 c 2.175 -0.828 3.431 -1.577 6.279 -0.412 l 0.799 -2.142 c -3.351 -1.688 -5.722 0.447 -7.078 2.554 z" style="fill:#a78d9b;fill-opacity:1;stroke:none;fill-rule:evenodd"/>
 <path d="m 17.353 31.882 c 1.735 -1.551 2.977 -2.322 3.253 -5.387 l 2.27 0.275 c -0.041 3.752 -3.03 4.876 -5.522 5.112 z" style="fill:#a78d9b;fill-opacity:1;stroke:none;fill-rule:evenodd"/>
 <rect transform="matrix(-0.92632423,-0.37672726,-0.37672726,0.92632423,0,0)" y="11.262" x="-35.969" height="5.541" width="2.531" style="fill:#a8bb8d;opacity:1;fill-opacity:1;stroke:none;fill-rule:nonzero"/>
 <rect width="2.531" height="5.541" x="16.282" y="-27.48" transform="matrix(-0.09127511,0.99582571,-0.99582571,-0.09127511,0,0)" style="fill:#a8bb8d;opacity:1;fill-opacity:1;stroke:none;fill-rule:nonzero"/>
 <path d="m 27.981 17.445 -8.417 5.121 -1.052 0.64 0.32 0.526 -0.732 1.166 1.92 3.156 1.372 -0.114 0.32 0.526 1.052 -0.64 8.417 -5.121 -3.2 -5.261 z" style="fill:#dc765f;opacity:1;fill-opacity:1;stroke:none;fill-rule:nonzero"/>
 <path d="m 22.837 38.459 1.812 -10.318 2.357 0.955 z" style="fill:#a78d9b;fill-opacity:1;stroke:none;fill-rule:evenodd"/>
 <path d="m 8.103 18.251 12.09 2.495 0.235 -2.532 z" style="fill:#a78d9b;fill-opacity:1;stroke:none;fill-rule:evenodd"/>
</svg>
