<svg viewBox="0 0 48 48" xmlns="http://www.w3.org/2000/svg" xmlns:xlink="http://www.w3.org/1999/xlink">
  <linearGradient id="a" gradientTransform="matrix(0 -1 1 0 -.0000015 47.999998)" gradientUnits="userSpaceOnUse" x1="1" x2="47">
    <stop offset="0" stop-color="#e7b60b"/>
    <stop offset="1" stop-color="#f4c211"/>
  </linearGradient>
  <path d="m47 24c0 22.703-.297 23-23 23-22.703 0-23-.297-23-23 0-22.703.297-23 23-23 22.703 0 23 .297 23 23z" fill="url(#a)"/>
  <path d="m28.346 9.457l-2.83.088-.383.086v3.178c-6.673.074-12.332 5.495-12.332 12.191 0 6.737 5.462 12.199 12.199 12.199 6.737 0 12.199-5.462 12.199-12.199v-.473c-.02-.663-.045-1.304-.064-1.863-.031-.637-.09-1.217-.182-1.66l2.951-.859-.336-3.064-6.254.561.086.242c.052.148.121.631.17 1.232.049.601.087 1.339.117 2.08.061 1.482.091 2.973.111 3.439v.367c0 4.865-3.939 8.799-8.801 8.799-1.122 0-2.191-.218-3.178-.6h5.381v-3.754c1.152-.194 2.387-.282 3.469-.676 1.133-.412 2.096-1.188 2.523-2.717l.004-.012.002-.012c.194-1.309.198-3.174-.541-4.691-.392-.804-1.334-.909-2.057-1.078-.144-.264-.359-.572-.688-.934l.973-1.316v-.016c0-.589-.352-1.152-.756-1.627-.404-.475-.867-.865-1.096-1.096-.302-1.844-.476-3.905-.69-5.816zm-4.152 6.305c-.024.078-.048.155-.049.232h-.004c-.068.341.162.613.256.887.164.197.395.349.648.484-.551 1.059-1.169 2.288-1.553 3.289.11-.369-.019-.736-.277-1-.268-.277-.651-.485-1.055-.619-.404-.134-.83-.193-1.201-.133-.371.06-.713.269-.809.646v-.004c-.228.82-.664 1.79-1 2.707-.34.917-.603 1.78-.4 2.465.187.647.417 1.085.684 1.391.267.305.571.47.869.564.592.188 1.127.152 1.572.49-.244 2.503-.082 4.706-.07 5.846l.002.191c-3.28-1.278-5.604-4.459-5.604-8.193 0-4.593 3.521-8.785 7.994-9.24zm4.941 6.105l-.311 2.609c-.154-.018-.309-.027-.467-.033.124-.693.507-1.707.777-2.576z" fill="#2d2d2d" opacity=".1" transform=""/>
  <path d="m25 15.406c-1.359 1.727-2.277 3.734-2.875 5.75l.188-1.531c.426-1.211-2.676-2.191-2.969-1.031-.469 1.688-1.754 3.887-1.406 5.063.727 2.512 2.043 1.559 3.063 2.344l.07.051c-.266 2.551-.082 4.766-.07 5.949h5v-3.719c2.426-.434 5.176-.336 6-3.281.188-1.266.027-3.039-.531-4.594-1.094-1.645-2.805-.926-3.094.125l-.375 3.156c-.301-.039-.609-.074-.906-.063.23-1.406.777-3.148 1.594-5.281m-3.688-2.938" fill="#802020" stroke="#2d2d2d" stroke-width=".4"/>
  <path d="m24.27 12c-6.625 0-12.27 5.371-12.27 12 0 6.629 5.371 12 12 12 6.629 0 12-5.371 12-12v-.469c-.035-.871-.051-2.859-.262-3.672l2.949-.859-.297-2.703-5.801.52c.289.824.371 5.895.41 6.809v.375c0 4.973-4.03 9-9 9-4.973 0-9-4.03-9-9 0-4.973 4.03-9.484 9-9.484l3.797-.242-.629-5.613-2.645.082m-.254 3.266" fill="#802020" stroke="#2d2d2d" stroke-width=".4"/>
  <path d="m23.19 15c-.145 1.422 1.871 1.52 2.809 2.277l1.738-1.672-1.223-.883c-2.031-1.457-3.32-.488-3.324.277m0 0" fill="#f9f9f9" stroke="#2d2d2d" stroke-width=".1"/>
  <path d="m25.781 15.16c.688-.309.75-.902 2.219-.852.465.469 1.836 1.551 1.836 2.688l-1.105 1.496-2.289-1.496m-.66-1.836" fill="#f9f9f9" stroke="#2d2d2d" stroke-width=".1"/>
  <path d="m25.797 15.1c-.305.137-.629.414-.797.586l.719.938c.492.102.918.199 1.281.344-.609-.535-.949-1.203-1.203-1.867m0 0" fill="#2d2d2d"/>
  <path d="m24 14.492c.836-.141 1.391.23 2 .508l.301-.164c-1.488-.672-1.984-.578-2.301-.344m0 0" fill="#2d2d2d"/>
  <path d="m27.367 14.566c.52.391 1.129.648 1.727.918-.148-.238-.402-.461-.633-.688-.328-.023-.672-.078-1.035-.176m-.059-.055" fill="#2d2d2d"/>
  <path d="m24.06 16.313c.996.652 1.531 1.246 2.473 1.906 1.082.797 1.293 1.879 1.906 2.156.195-.461.672-.813 1.219-.906-.227-.469-.621-1.078-1.645-1.938-.77-.641-1.941-1.012-3.941-1.219m-.004 0" fill="#f9f9f9" stroke="#2d2d2d" stroke-width=".1"/>
</svg>
