<svg viewBox="0 0 48 48" xmlns="http://www.w3.org/2000/svg" xmlns:xlink="http://www.w3.org/1999/xlink">
  <linearGradient id="a" gradientUnits="userSpaceOnUse" x2="0" y1="47" y2="1">
    <stop offset="0" stop-color="#ff6905"/>
    <stop offset="1" stop-color="#ff7519"/>
  </linearGradient>
  <path d="m24 1c22.703 0 23 .297 23 23 0 22.703-.297 23-23 23-22.703 0-23-.297-23-23 0-22.703.297-23 23-23z" fill="url(#a)"/>
  <path d="m25.16 12c-1.448.012-3.03.218-4.51.713-3.034 1.01-4.403 4.253-5.057 7.078-.463 1.997 1.012 6.068 1.012 6.068l-1.012 5.05 1.104.367-1.104 1.656 3.447-.861-.033.779-.158 1.035.115.006-.002.051h1.191l.629.027v-1.178h-.133v-.871c1.01 2.02 5.05 4.045 5.05 4.045h.834l-.002.781c.356-.039.477-.39.242-.781h.658l.039 1.854c.481-.07.632-1.01.322-1.854h.533l-.002 1.176c.373-.061.531-.573.344-1.176h.066c0 0 .765-1.278 1.602-3.201.421-.969 1.022-1.706 1.217-2.674.195-.968-.016-1.495-.205-2.721-.219-1.422-.181-2.342-.148-3.373l.117-.018-.107-.436c.002-.073.005-.134.006-.209.753.118 1.53.179 2.158.578 1.748 1.111 4.04 4.717 4.04 4.717 0 0 .758-3.346.609-5.03-.108-1.22-1.072-3.514-1.072-3.514l1.219.543c0 0-1.349-2.153-2.359-2.867-.876-.62-2.406-1.148-3.654-1.516-.312-.753-.984-2.197-1.906-3.119-.632-.632-2.682-1.155-5.096-1.135z" opacity=".1" transform="matrix(1 0 0 1 .00000004 0)"/>
  <g transform="matrix(1.011172 0 0 1.011172 .4334408 -.42059766)">
    <path d="m28.652 25.904c.129.924.272 1.321.139 2.051-.132.729-.54 1.283-.827 2.01-.569 1.449-1.089 2.412-1.089 2.412h-2.064c0 0-2.749-1.524-3.436-3.048-.812-1.801-1.375-3.124-1.375-5.333 0-4.418 3.837-8.381 6.875-8.381 1.519 0 1.672 1.425 1.599 3.375-.037.975.098 2.589.09 3.715-.008 1.126-.103 1.827.088 3.196z" fill="#f0ca9e" transform="matrix(1.4545455 0 0 1.3125 -12.09091 -7.5)"/>
    <path d="m14 30l1-5c0 0-1.457-4.02-1-6 .647-2.794 2-6 5-7 3.912-1.304 8.501-.584 9.501.416 1.269 1.269 2.083 3.584 2.083 3.584l-12.584 2-1 13" fill="#6c5353"/>
    <circle cx="22.5" cy="23.5" fill="#f9f9f9" r="1.5" transform="matrix(1 0 0 1.1666667 0 -3.4179945)"/>
    <circle cx="22.5" cy="23.5" fill="#f9f9f9" r="1.5" transform="matrix(.72000001 0 0 .9 11.876315 2.8180203)"/>
    <ellipse cx="23.5" cy="24" rx=".5" ry="1" transform="matrix(.7 0 0 .35 6.4219387 15.851588)"/>
    <ellipse cx="23.5" cy="24" rx=".5" ry="1" transform="matrix(.6 0 0 .3 14.15966 16.920494)"/>
    <path d="m19.751 23.16c0 0 .749-1.398 1.435-1.627.49-.164 1.518.314 1.518.314 0 0 .751.294 1.146.376.661.137 2.02.186 2.02.186l-1.11 1c0 0-.598.127-.899.109-.792-.049-1.519-.526-2.311-.575-.603-.037-1.798.217-1.798.217z" fill="#502d16"/>
    <path d="m29.22 21.785l-2.227.5.009 1.227 2.553-.367z" fill="#502d16"/>
    <path d="m27 21.789l-.166 6.236-1.083.974" fill="none" opacity=".5" stroke="#000" stroke-width=".284"/>
    <path d="m23.418 32.582c0 0 1.548-.508 2.333-.418.42.048 1.166.501 1.166.501l0 0" fill="none" opacity=".5" stroke="#000" stroke-width=".3"/>
    <path d="m18 25l-4 5 2-1-2 3 4-1v-3z" fill="#502d16"/>
    <path d="m17.885 24.13c0 0-1.085-1.993-1.913-1.747-.741.22-.582 2.246-.582 2.246 0 0 .407 1.653 1.081 1.996.374.19 1.248-.166 1.248-.166z" fill="#f0ca9e"/>
    <path d="m18 17l-.667 16h1.667v-16" fill="#6c5353"/>
    <path d="m17.221 31.862h1.911v1.165l-2.078-.083z" fill="#fc0"/>
    <path d="m27.1 11.75c0 0 1.438.69 1.834 1.334.457.743.416 2.584.416 2.584h-3l-.919-1.834c0 0-.19-1.239.169-1.665.334-.397 1.5-.419 1.5-.419z" fill="#fc0"/>
    <path d="m23 13l5.5 2c0 0 3.907.873 5.5 2 .999.707 2.332 2.835 2.332 2.835l-1.205-.537c0 0 .955 2.268 1.061 3.475.147 1.663-.602 4.972-.602 4.972 0 0-2.272-3.565-4-4.664-1.01-.641-2.413-.375-3.456-.959-1.509-.846-3.796-3.54-3.796-3.54l-.002 2.832c0 0-1.098-.699-1.541-1.166-.461-.486-1.125-1.665-1.125-1.665l-2.667 3.919-3.25 6.414c0 0 .487-7.645 2.25-10.915 1.118-2.075 5-5 5-5z" fill="#502d16"/>
    <path d="m19.917 12.08c0 0-1.546.409-2 1-.673.877-1.247 2.309-.665 3.25.62 1 3.416.915 3.416.915 0 0 2.462-1.573 2.499-2.832.024-.811-1.5-1.915-1.5-1.915z" fill="#fc0"/>
    <path d="m20.362 25.581c-.203.583.61 1.166 1.762.923" fill="none" opacity=".5" stroke="#000" stroke-width=".207"/>
    <path d="m29.373 25.44c-.093.538-.54 1.076-1.388.827" fill="none" opacity=".5" stroke="#000" stroke-width=".18"/>
    <path d="m25.75 36.834c.611-.089.694-1.597-.053-2.507" fill="none" opacity=".5" stroke="#000" stroke-width=".347"/>
    <path d="m26.593 36.16c.501-.081.617-.988.005-1.821" fill="none" opacity=".5" stroke="#000" stroke-width=".301"/>
    <path d="m24.821 35.773c.441-.048.544-.581.004-1.071" fill="none" opacity=".5" stroke="#000" stroke-width=".216"/>
  </g>
</svg>
