<svg viewBox="0 0 48 48" xmlns="http://www.w3.org/2000/svg">
  <path d="m24 1c22.703 0 23 .297 23 23 0 22.703-.297 23-23 23-22.703 0-23-.297-23-23 0-22.703.297-23 23-23z" fill="#ecc92a"/>
  <path d="m19 13c-1.108 0-2 .892-2 2v2c-.554 0-1 .446-1 1h-1c-.554 0-1 .446-1 1v4c0 .554.446 1 1 1h1v9 2 1c0 .554.446 1 1 1h1v2h3v-2h8v2h3v-2h1c .554 0 1-.446 1-1v-1-2-9h1c .554 0 1-.446 1-1v-4c0-.554-.446-1-1-1h-1c0-.554-.446-1-1-1v-2c0-1.108-.892-2-2-2z" opacity=".1"/>
  <rect fill="#556177" height="6" rx="2" width="16" x="16" y="12"/>
  <rect fill="#8793a9" height="20" rx="1" width="18" x="15" y="16"/>
  <path d="m15 34v-2h3v1c0 .569-.421 1-1 1z" fill="#f9f9f9"/>
  <path d="m33 34v-2h-3v1c0 .569.421 1 1 1z" fill="#f9f9f9"/>
  <path d="m18 25v1c0 .554.446 1 1 1h10c .554 0 1-.446 1-1v-1z" fill="#353535"/>
  <path d="m19 29c0 .554.446 1 1 1h8c .554 0 1-.446 1-1v-1h-10z" fill="#353535"/>
  <path d="m20 32c0 .554.446 1 1 1h6c .554 0 1-.446 1-1v-1h-8z" fill="#353535"/>
  <path d="m16 17l1 6h14l1-6z" fill="#6b6c73"/>
  <path d="m27 23l2-3h1l-2 3z" fill="#353535"/>
  <path d="m19 23l2-3h1l-2 3z" fill="#353535"/>
  <path d="m14 17c-.554 0-1 .446-1 1v4c0 .554.446 1 1 1h1v-6z" fill="#353535"/>
  <path d="m14 18h1v4h-1z" fill="#838383" opacity=".526"/>
  <path d="m34 17c .554 0 1 .446 1 1v4c0 .554-.446 1-1 1h-1v-6z" fill="#353535"/>
  <path d="m-34 18h1v4h-1z" fill="#838383" opacity=".526" transform="scale(-1 1)"/>
  <path d="m17 36h3v2h-3z" fill="#171717"/>
  <path d="m28 36h3v2h-3z" fill="#171717"/>
  <path d="m22 34h4v1h-4z" fill="#c3c9d3"/>
  <path d="m22 34h1v1h-1z" fill="#566bd4"/>
  <g fill="#353535">
    <path d="m23.06 34.27h.151l.191.36v-.36h.128v.525h-.151l-.191-.36v.36h-.128z"/>
    <path d="m23.667 34.27h.135v.314c0 .043.007.074.021.093.014.019.037.028.07.028.032 0 .056-.009.07-.028.014-.019.021-.05.021-.093v-.314h.135v.314c0 .074-.019.13-.056.166-.037.036-.094.054-.17.054-.076 0-.133-.018-.17-.054-.037-.036-.056-.092-.056-.166z"/>
    <path d="m24.25 34.27h.172l.119.281.12-.281h.172v.525h-.128v-.384l-.121.283h-.086l-.121-.283v.384h-.128v-.525"/>
    <path d="m24.987 34.696h.119v-.339l-.123.025v-.092l.122-.025h.129v.431h.119v.093h-.367v-.093"/>
    <path d="m25.761 34.522l.182.268h-.141l-.123-.179-.122.179h-.142l.182-.268-.175-.257h.141l.115.169.115-.169h.142l-.175.257"/>
  </g>
</svg>
