<svg viewBox="0 0 48 48" xmlns="http://www.w3.org/2000/svg" xmlns:xlink="http://www.w3.org/1999/xlink">
  <linearGradient id="a" gradientTransform="matrix(0 -1 1 0 -.0000015 47.999998)" gradientUnits="userSpaceOnUse" x1="1" x2="47">
    <stop offset="0" stop-color="#66da3e"/>
    <stop offset="1" stop-color="#73dd4f"/>
  </linearGradient>
  <path d="m47 24c0 22.703-.297 23-23 23-22.703 0-23-.297-23-23 0-22.703.297-23 23-23 22.703 0 23 .297 23 23z" fill="url(#a)"/>
  <g transform="scale(3.543307)">
    <path d="m13 16h9v-4h4v4h9v4h-9v4h4v12h-4v-8h-4v8h-4v-12h4v-4h-9m0-4" opacity=".1" transform="matrix(.28222223 0 0 .28222223 .28222222 .2822222)"/>
    <path d="m13 16h9v-4h4v4h9v4h-9v4h4v12h-4v-8h-4v8h-4v-12h4v-4h-9m0-4" fill="#2d2d2d" transform="matrix(.28222223 0 0 .28222223 -.00000001 -.00000003)"/>
  </g>
</svg>
