<svg xmlns="http://www.w3.org/2000/svg" viewBox="0 0 48 48">
 <defs>
  <linearGradient id="linearGradient3764" x1="1" x2="47" gradientUnits="userSpaceOnUse" gradientTransform="matrix(0,-1,1,0,-1.5e-6,47.999998)">
   <stop style="stop-color:#f0eab8;stop-opacity:1"/>
   <stop offset="1" style="stop-color:#f3eec8;stop-opacity:1"/>
  </linearGradient>
 </defs>
 <g>
  
  
  
 </g>
 <g>
  <path d="m 47,24 C 47,46.703 46.703,47 24,47 1.297,47 1,46.703 1,24 1,1.297 1.297,1 24,1 46.703,1 47,1.297 47,24 z" style="fill:url(#linearGradient3764);fill-opacity:1"/>
 </g>
 <g>
  <g>
   <g transform="translate(1,1)">
    <g style="opacity:0.1">
     <!-- color: #f3eec8 -->
    </g>
   </g>
  </g>
 </g>
 <g>
  <g>
   <!-- color: #f3eec8 -->
   <g>
    <path d="m 25 10 c -8.285 0 -15 6.715 -15 15 0 8.285 6.715 15 15 15 8.285 0 15 -6.715 15 -15 0 -8.285 -6.715 -15 -15 -15 z m 0 2 c 5.408 0 10.04 3.303 12 8 l -24 0 c 1.959 -4.697 6.592 -8 12 -8 z m -4.75 2 0 5 0.738 0 0 -1.748 0.938 -0.818 2.029 2.564 0.867 0 l -2.371 -2.959 2.35 -2.039 -0.949 0 -2.863 2.531 0 -2.531 -0.738 0 m 5.441 0.004 2.305 3.041 0 1.959 0.76 0 0 -1.959 -0.004 0 2.252 -3.041 -0.908 0 -1.707 2.396 -1.76 -2.396 -0.938 0 z m -13.33 7.996 25.277 0 c 0.228 0.965 0.361 1.965 0.361 3 0 7.18 -5.82 13 -13 13 -7.18 0 -13 -5.82 -13 -13 c 0 -1.035 0.133 -2.035 0.361 -3 z m 12.482 1.5 c -2.902 0 -5.25 2.813 -5.25 6.281 0 3.469 2.348 6.281 5.25 6.281 2.902 0 5.25 -2.813 5.25 -6.281 0 -3.469 -2.348 -6.281 -5.25 -6.281 z m 0 1.438 c 0.974 0 1.854 0.433 2.551 1.125 l -6.111 5.934 c -0.29 -0.665 -0.469 -1.411 -0.469 -2.215 0 -2.664 1.804 -4.844 4.03 -4.844 z m 3.438 2.354 c 0.368 0.731 0.592 1.577 0.592 2.49 0 2.664 -1.804 4.814 -4.03 4.814 -1.063 0 -2.022 -0.501 -2.742 -1.303 l 6.18 -6 z" style="fill:#000;opacity:0.1;fill-opacity:1;stroke:none;fill-rule:nonzero"/>
    <path d="m 11 21 l 26 0 l 0 -2 l -26 0 m 0 2" style="fill:#2d2d2d;fill-opacity:1;stroke:none;fill-rule:nonzero"/>
    <path d="m 24 9 c -8.285 0 -15 6.715 -15 15 c 0 8.285 6.715 15 15 15 c 8.285 0 15 -6.715 15 -15 c 0 -8.285 -6.715 -15 -15 -15 z m 0 2 c 7.18 0 13 5.82 13 13 c 0 7.18 -5.82 13 -13 13 c -7.18 0 -13 -5.82 -13 -13 c 0 -7.18 5.82 -13 13 -13 z" style="fill:#2d2d2d;fill-opacity:1;stroke:none;fill-rule:nonzero"/>
    <path d="m 23.844 22.5 c -2.902 0 -5.25 2.813 -5.25 6.281 c 0 3.469 2.348 6.281 5.25 6.281 c 2.902 0 5.25 -2.813 5.25 -6.281 c 0 -3.469 -2.348 -6.281 -5.25 -6.281 m 0 1.438 c 2.227 0 4.03 2.18 4.03 4.844 c 0 2.664 -1.805 4.813 -4.03 4.813 c -2.227 0 -4.03 -2.148 -4.03 -4.813 c 0 -2.664 1.805 -4.844 4.03 -4.844 m 0 0" style="fill:#2d2d2d;fill-opacity:1;stroke:none;fill-rule:nonzero"/>
    <path d="m 26.992 24.482 -7.436 7.219 1.045 1.076 7.436 -7.219 -1.045 -1.076 z" mix-blend-mode="normal" isolation="auto" white-space="normal" solid-opacity="1" solid-color="#000000" style="visibility:visible;shape-rendering:auto;color-interpolation-filters:linearRGB;fill:#2d2d2d;opacity:1;image-rendering:auto;fill-opacity:1;stroke:none;display:inline;color:#000;fill-rule:nonzero;color-rendering:auto;color-interpolation:sRGB"/>
    <path d="m 19.25 13 l 0 5 l 0.738 0 l 0 -1.748 l 0.938 -0.818 l 2.029 2.564 l 0.867 0 l -2.371 -2.959 l 2.35 -2.039 l -0.949 0 l -2.863 2.531 l 0 -2.531 l -0.738 0 z m 5.441 0.004 l 2.305 3.041 l 0 1.959 l 0.76 0 l 0 -1.959 l -0.004 0 l 2.252 -3.041 l -0.908 0 l -1.707 2.396 l -1.76 -2.396 l -0.938 0 z" style="fill:#2d2d2d;fill-opacity:1;stroke:none;fill-rule:nonzero"/>
   </g>
  </g>
 </g>
 <g>
  
 </g>
</svg>
