<svg xmlns="http://www.w3.org/2000/svg" viewBox="0 0 48 48">
 <defs>
  <linearGradient id="linearGradient3764" x1="1" x2="47" gradientUnits="userSpaceOnUse" gradientTransform="matrix(0,-1,1,0,-1.5e-6,47.999998)">
   <stop style="stop-color:#4f4f4f;stop-opacity:1"/>
   <stop offset="1" style="stop-color:#595959;stop-opacity:1"/>
  </linearGradient>
 </defs>
 <g>
  
  
  
 </g>
 <g>
  <path d="m 47,24 C 47,46.703 46.703,47 24,47 1.297,47 1,46.703 1,24 1,1.297 1.297,1 24,1 46.703,1 47,1.297 47,24 z" style="fill:url(#linearGradient3764);fill-opacity:1"/>
 </g>
 <g>
  <g>
   <g transform="translate(1,1)">
    <g style="opacity:0.1">
     <!-- color: #595959 -->
    </g>
   </g>
  </g>
 </g>
 <path d="m 23 14 c -6.075 0 -11 4.925 -11 11 0 6.075 4.925 11 11 11 4.44 -0.001 8.443 -2.671 10.15 -6.77 l 4.445 -10.73 c 0.264 -0.455 0.403 -0.974 0.404 -1.5 0 -1.657 -1.343 -3 -3 -3 l -12 0 z m 10.617 1 c 0.751 0.036 1.383 0.64 1.383 1.799 c 0 1.377 -1.305 2.327 -1.828 3.227 l 1.828 -0.027 l 0 1 -3 0 c 0 -2.367 2.02 -2.799 2.02 -4.408 c 0 -0.706 -1.02 -0.862 -1.02 0.121 l -0.984 0 c -0.02 -1.2 0.851 -1.747 1.602 -1.711 z m -10.617 0.998 c 4.971 0 9 4.03 9 9 0 4.971 -4.03 9 -9 9 -4.971 0 -9 -4.03 -9 -9 0 -4.971 4.03 -9 9 -9 z m -3 2 0 2 1.664 0 0.605 2 l -5.27 8 l 2.879 0 3.52 -5.219 2.184 6.02 3.803 -1.434 l -0.703 -1.867 -1.682 0.5 -3.662 -10 -3.338 0" style="fill:#000;opacity:0.1;fill-opacity:1;stroke:none;fill-rule:nonzero"/>
 <path d="m 22 13 c -6.075 0 -11 4.925 -11 11 c 0 6.075 4.925 11 11 11 c 4.44 -0.001 8.443 -2.671 10.15 -6.77 l 4.445 -10.73 c 0.264 -0.455 0.403 -0.974 0.404 -1.5 c 0 -1.657 -1.343 -3 -3 -3 l -12 0 z m 10.617 1 c 0.751 0.036 1.383 0.64 1.383 1.799 c 0 1.377 -1.305 2.327 -1.828 3.227 l 1.828 -0.027 l 0 1 l -3 0 c 0 -2.367 2.02 -2.799 2.02 -4.408 c 0 -0.706 -1.02 -0.862 -1.02 0.121 l -0.984 0 c -0.02 -1.2 0.851 -1.747 1.602 -1.711 z m -10.617 0.998 c 4.971 0 9 4.03 9 9 c 0 4.971 -4.03 9 -9 9 c -4.971 0 -9 -4.03 -9 -9 c 0 -4.971 4.03 -9 9 -9 z m -3 2 l 0 2 l 1.664 0 l 0.605 2 l -5.27 8 l 2.879 0 l 3.52 -5.219 l 2.184 6.02 l 3.803 -1.434 l -0.703 -1.867 l -1.682 0.5 l -3.662 -10 l -3.338 0 z" style="fill:#eca30a;fill-opacity:1;stroke:none;fill-rule:nonzero"/>
 <g>
  
 </g>
 <g>
  <!-- color: #595959 -->
 </g>
</svg>
