<svg xmlns="http://www.w3.org/2000/svg" xmlns:xlink="http://www.w3.org/1999/xlink" viewBox="0 0 48 48">
 <defs>
  <linearGradient id="linearGradient3053">
   <stop style="stop-color:#729cd9;stop-opacity:1"/>
   <stop offset="1" style="stop-color:#87aade;stop-opacity:1"/>
  </linearGradient>
  <linearGradient xlink:href="#linearGradient3053" id="linearGradient3877" x1="1" x2="47" gradientUnits="userSpaceOnUse"/>
  <linearGradient xlink:href="#linearGradient3053" id="linearGradient3879" gradientUnits="userSpaceOnUse" x1="24.817" y1="47.15" x2="24" y2="1"/>
 </defs>
 <g>
  
  
  
 </g>
 <g style="fill:url(#linearGradient3877);fill-opacity:1">
  <path d="m 24 1 c 22.703 0 23 0.297 23 23 c 0 22.703 -0.297 23 -23 23 -22.703 0 -23 -0.297 -23 -23 0 -22.703 0.297 -23 23 -23 z" style="fill:url(#linearGradient3879)"/>
 </g>
 <g transform="matrix(0.85759961,0,0,0.85759961,5.3529911,3.0842181)" style="fill:#000;opacity:0.1">
  <path d="m 14.385 30.1 c 5.932 9.712 12.866 9.712 18.84 0 0.207 -1.647 0 -15.76 0 -15.76 l -18.84 0 c 0 0 -0.302 14.569 0 15.76 z" style="stroke:none"/>
  <path d="m 16.09 29.618 c 4.854 8.25 10.526 8.25 15.415 0 0.169 -1.399 0 -13.387 0 -13.387 l -15.415 0 c 0 0 -0.247 12.376 0 13.387 z" style="stroke:none"/>
 </g>
 <g transform="matrix(0.85759961,0,0,0.85759961,4.4953915,2.2266185)">
  <path d="m 14.385 30.1 c 5.932 9.712 12.866 9.712 18.84 0 0.207 -1.647 0 -15.76 0 -15.76 l -18.84 0 c 0 0 -0.302 14.569 0 15.76 z" style="fill:#784421;stroke:none"/>
  <path d="m 16.09 29.618 c 4.854 8.25 10.526 8.25 15.415 0 0.169 -1.399 0 -13.387 0 -13.387 l -15.415 0 c 0 0 -0.247 12.376 0 13.387 z" style="fill:#502d16;stroke:none"/>
 </g>
 <g transform="matrix(0.85759961,0,0,0.85759961,5.3417481,3.4112183)" style="fill:#000;opacity:0.1">
  <rect y="16.02" x="-0.347" height="36.1" width="1.96" transform="matrix(0.71163866,-0.70254567,0.68359622,0.7298604,0,0)" rx="0.684" style="stroke:none"/>
  <rect y="18.16" x="-5.706" height="7.696" width="12.813" transform="matrix(0.71163866,-0.70254567,0.68359622,0.7298604,0,0)" rx="1.01" style="stroke:none"/>
 </g>
 <g transform="matrix(0.85759961,0,0,0.85759961,4.4841485,2.5536152)">
  <rect transform="matrix(0.71163866,-0.70254567,0.68359622,0.7298604,0,0)" width="1.96" height="36.1" x="-0.347" y="16.02" rx="0.684" style="fill:#784421;stroke:none"/>
  <rect transform="matrix(0.71163866,-0.70254567,0.68359622,0.7298604,0,0)" width="12.813" height="7.696" x="-5.706" y="18.16" rx="1.01" style="fill:#808080;stroke:none"/>
 </g>
 <g transform="matrix(0.92620749,0,0,0.92620749,3.9827863,1.4651535)" style="fill:#000;opacity:0.1">
  <g>
   <path d="m 35.508 11.647 -0.671 3.02 -18.434 18.905 -2.272 -2.336 18.434 -18.905 2.943 -0.686 -19.897 20.406 z" style="stroke:none"/>
   <path d="m 15.539 32.05 19.921 -20.421 -2.883 0.68 -18.17 18.638 z" style="stroke:none"/>
  </g>
  <rect transform="matrix(0.6973088,0.71677084,-0.69817875,0.71592349,0,0)" y="11.165" x="32.752" height="6.902" width="1.629" rx="0.697" style="stroke:none"/>
  <path d="m 12.917 29.991 4.699 4.83 0 0" style="stroke:#502d16;stroke-width:0.896"/>
 </g>
 <g transform="matrix(0.92620749,0,0,0.92620749,3.1251867,0.60755393)">
  <g>
   <path d="m 35.508 11.647 -0.671 3.02 -18.434 18.905 -2.272 -2.336 18.434 -18.905 2.943 -0.686 -19.897 20.406 z" style="fill:#666;stroke:none"/>
   <path d="m 15.539 32.05 19.921 -20.421 -2.883 0.68 -18.17 18.638 z" style="fill:#999;stroke:none"/>
  </g>
  <rect width="1.629" height="6.902" x="32.752" y="11.165" transform="matrix(0.6973088,0.71677084,-0.69817875,0.71592349,0,0)" rx="0.697" style="fill:#784421;stroke:none"/>
  <path d="m 12.917 29.991 4.699 4.83 0 0" style="fill:#502d16;stroke:#502d16;stroke-width:0.896"/>
 </g>
 <g>
  
 </g>
</svg>
