<svg viewBox="0 0 48 48" xmlns="http://www.w3.org/2000/svg" xmlns:xlink="http://www.w3.org/1999/xlink">
  <linearGradient id="a" gradientTransform="matrix(0 -1 1 0 -.0000015 47.999998)" gradientUnits="userSpaceOnUse" x1="1" x2="47">
    <stop offset="0" stop-color="#fbd28b"/>
    <stop offset="1" stop-color="#fcda9e"/>
  </linearGradient>
  <path d="m47 24c0 22.703-.297 23-23 23-22.703 0-23-.297-23-23 0-22.703.297-23 23-23 22.703 0 23 .297 23 23z" fill="url(#a)"/>
  <path d="m18.35 16.852c-2.467.051-4.913.429-7.35.789v15.166c2.399-.358 4.805-.873 7.232-.807 2.07.056 4.03.231 5.439.4v-.006c.001 0 .003.002.004.002 2.21.285 4.433.538 6.713.664 2.28.126 4.615.123 7.06-.107-.197-.022-.868-.194-.463-.396.23-.023.205-.382.393-.309.206.049-.216-.329-.285-.447-.309-.246-.333-.37-.311-.504.023-.134.09-.277-.039-.564-.156-.062-.114-.111-.254-.217.569-.464 1.08-.68 1.758-.789-.265-.074-.517-.198-.766-.318-.006 0-.014 0-.02 0-.019-.009-.038-.018-.057-.027-1.051-.073-2.141-.451-2.232-.836.095-.217.782-.055 1.025-.115.563-.123.696-.498 1.074-.82.242-.082.553-.024.742-.205.176-.168.338-.275.557-.309.221-.068.156-.17.156-.17-.878.176-3.565-.46-2.563-.811.29-.115.726-.312.92-.477-.157-.083-.976-.203-1.4-.213-.578-.013-.464-.158-.188-.311.163-.09.367-.183.557-.258-.568-.572-1.05-.62-1-1.018.098-.754 1.833-.825 2.939-.895-.118-.108-.279-.157-.412-.184-.401-.08-.709-.385-1.176-.289-.218.076-.433.289-.723.205-.288-.187-.636-.177-1.01-.332-.106-.54.176-.579.385-.732.002 0 .004 0 .006 0 .029-.021.06-.038.084-.066-.874-.06-.035-.343.268-.412-1-.414.65-.35 1.012-.309.243-.054.286-.169.453-.309-.194-.086-.963-.025-1.566-.221-.124-.232-.462-.103-.684-.193-.652-.231-1.435-.157-2.137-.102.523-.48 1.401-.674 1.912-1.154.583-.224 1.012-.265 1.576 0 1.184-.097 2.17-.58 3.02-1.176-3.805.264-7.584.487-11.438.014-4.309-.529-5.719-.782-9.213-.83zm15.482 9.758c.321.017.662.105.887.125.607.01.805.233.777.502.131.017-.66.238-.783.537-.491-.017-.431-.42-.865-.207-.404-.182-.763-.322-.781-.656.145-.264.445-.318.766-.301z" fill-rule="evenodd" opacity=".1"/>
  <path d="m17.35 15.852c-2.467.051-4.913.429-7.35.789v3.754l24.06.219c.002 0 .004 0 .006 0 .029-.021.06-.038.084-.066-.874-.06-.035-.343.268-.412-1-.414.65-.35 1.012-.309.243-.054.286-.169.453-.309-.194-.086-.963-.025-1.566-.221-.124-.232-.462-.103-.684-.193-.652-.231-1.435-.157-2.137-.102.523-.48 1.401-.674 1.912-1.154.583-.224 1.012-.265 1.576 0 1.184-.097 2.17-.58 3.02-1.176-3.805.264-7.584.487-11.438.014-4.309-.529-5.719-.782-9.213-.83zm-7.35 7.977l1 4.361c8.487.073 17.04.71 25.461.219-.019-.009-.038-.018-.057-.027-1.051-.073-2.141-.451-2.232-.836.095-.217.782-.055 1.025-.115.563-.123.696-.498 1.074-.82.242-.082.553-.024.742-.205.176-.168.338-.275.557-.309.221-.068.156-.17.156-.17-.878.176-3.565-.46-2.563-.811.29-.115.726-.312.92-.477-.157-.083-.976-.203-1.4-.213-.578-.013-.464-.158-.188-.311-11.615-2.735-17.534-2.127-24.496-.287m22.832 1.781c.321.017.662.105.887.125.607.01.805.233.777.502.131.017-.66.238-.783.537-.491-.017-.431-.42-.865-.207-.404-.182-.763-.322-.781-.656.145-.264.445-.318.766-.301z" fill="#e32e36" fill-rule="evenodd"/>
  <path d="m17.467 19.576v.002c-2.506.058-4.991.448-7.467.816v3.434c3.445-.494 6.03-.903 7.846-.805 2.168.121 11.275 1.18 16.65 1.092.163-.09.367-.183.557-.258-.568-.572-1.05-.62-1-1.018.098-.754 1.833-.825 2.939-.895-.118-.108-.279-.157-.412-.184-.401-.08-.709-.385-1.176-.289-.218.076-.433.289-.723.205-.288-.187-.636-.177-1.01-.332-.106-.54.176-.579.385-.732-5.534-.277-12.73-.962-16.59-1.037zm5.205 8.05c-1.297 1.255-.514 2.51 0 3.766.001 0 .003.002.004.002 2.21.285 4.433.538 6.713.664 2.28.126 4.615.123 7.06-.107-.197-.022-.868-.194-.463-.396.23-.023.205-.382.393-.309.206.049-.216-.329-.285-.447-.309-.246-.333-.37-.311-.504.023-.134.09-.277-.039-.564-.156-.062-.114-.111-.254-.217.569-.464 1.08-.68 1.758-.789-.265-.074-.517-.198-.766-.318-3.837.077-9.145-.161-13.809-.779z" fill="#e6eed6" fill-rule="evenodd"/>
  <path d="m17.613 22.991c-2.436-.075-5.753.526-7.613.847v7.969c2.399-.358 4.805-.873 7.232-.807 2.07.056 4.03.232 5.44.401v-8c-1.675-.245-3.366-.401-5.06-.408" fill="#5a618a" fill-rule="evenodd"/>
  <path d="m20.617 28.5l-.618-.325-.618.325.118-.688-.5-.488.691-.1.309-.626.309.626.691.101-.5.487z" fill="#e6eed6" fill-rule="evenodd"/>
  <path d="m17.426 28.5l-.927-.488-.927.487.178-1.032-.75-.732 1.037-.15.464-.939.463.939 1.036.151-.75.731z" fill="#e6eed6" fill-rule="evenodd"/>
  <path d="m13.617 28.5l-.618-.325-.618.325.118-.688-.5-.488.691-.1.309-.626.309.626.691.101-.5.487" fill="#e6eed6" fill-rule="evenodd"/>
</svg>
