<svg viewBox="0 0 48 48" xmlns="http://www.w3.org/2000/svg" xmlns:xlink="http://www.w3.org/1999/xlink">
  <linearGradient id="a" gradientTransform="matrix(0 -1 1 0 -.0000015 47.999998)" gradientUnits="userSpaceOnUse" x1="1" x2="47">
    <stop offset="0" stop-color="#e4e4e4"/>
    <stop offset="1" stop-color="#eee"/>
  </linearGradient>
  <path d="m47 24c0 22.703-.297 23-23 23-22.703 0-23-.297-23-23 0-22.703.297-23 23-23 22.703 0 23 .297 23 23z" fill="url(#a)"/>
  <g opacity=".1" transform="translate(1 1)">
    <path d="m33.08 20.938c0 4.934-4 8.934-8.934 8.934-4.938 0-8.938-4-8.938-8.934 0-4.938 4-8.938 8.938-8.938 4.797 0 8.734 3.785 8.93 8.578"/>
    <path d="m17.59 26.805l.141-.043c1.613-.52 3.344.371 3.859 1.984l1.027 3.199c.516 1.613-.371 3.344-1.988 3.859l-.141.047c-1.613.516-3.34-.371-3.859-1.984l-1.023-3.203c-.52-1.613.371-3.34 1.984-3.859m0 0"/>
    <path d="m30.441 26.805l-.141-.043c-1.613-.52-3.34.371-3.859 1.984l-1.023 3.199c-.52 1.613.371 3.344 1.984 3.859l.141.047c1.613.516 3.344-.371 3.859-1.988l1.027-3.199c.516-1.613-.371-3.34-1.988-3.859m0 0"/>
    <path d="m10.91 26.19l.051-.141c.57-1.602 2.328-2.434 3.922-1.855l3.164 1.133c1.598.57 2.426 2.328 1.855 3.926l-.051.137c-.57 1.598-2.328 2.426-3.922 1.855l-3.164-1.133c-1.594-.57-2.426-2.324-1.855-3.922m0 0"/>
    <path d="m37.09 26.19l-.051-.137c-.57-1.605-2.328-2.438-3.922-1.859l-3.164 1.133c-1.598.57-2.426 2.328-1.855 3.926l.051.137c.57 1.598 2.328 2.426 3.922 1.855l3.164-1.129c1.594-.574 2.426-2.328 1.855-3.926m0 0"/>
  </g>
  <g transform="translate(.00010867)">
    <path d="m33.08 20.938c0 4.934-4 8.934-8.934 8.934-4.938 0-8.938-4-8.938-8.934 0-4.938 4-8.938 8.938-8.938 4.797 0 8.734 3.785 8.93 8.578" fill="#2d2d2d"/>
    <path d="m17.59 26.805l.141-.043c1.613-.52 3.344.371 3.859 1.984l1.027 3.199c.516 1.613-.371 3.344-1.988 3.859l-.141.047c-1.613.516-3.34-.371-3.859-1.984l-1.023-3.203c-.52-1.613.371-3.34 1.984-3.859m0 0" fill="#2d2d2d"/>
    <path d="m30.441 26.805l-.141-.043c-1.613-.52-3.34.371-3.859 1.984l-1.023 3.199c-.52 1.613.371 3.344 1.984 3.859l.141.047c1.613.516 3.344-.371 3.859-1.988l1.027-3.199c.516-1.613-.371-3.34-1.988-3.859m0 0" fill="#2d2d2d"/>
    <path d="m10.91 26.19l.051-.141c.57-1.602 2.328-2.434 3.922-1.855l3.164 1.133c1.598.57 2.426 2.328 1.855 3.926l-.051.137c-.57 1.598-2.328 2.426-3.922 1.855l-3.164-1.133c-1.594-.57-2.426-2.324-1.855-3.922m0 0" fill="#2d2d2d"/>
    <path d="m37.09 26.19l-.051-.137c-.57-1.605-2.328-2.438-3.922-1.859l-3.164 1.133c-1.598.57-2.426 2.328-1.855 3.926l.051.137c.57 1.598 2.328 2.426 3.922 1.855l3.164-1.129c1.594-.574 2.426-2.328 1.855-3.926m0 0" fill="#2d2d2d"/>
    <path d="m24.14 13.883c-3.898 0-7.05 3.156-7.05 7.05 0 3.895 3.156 7.05 7.05 7.05 3.895 0 7.05-3.156 7.05-7.05l-.004-.285c-.152-3.781-3.262-6.77-7.05-6.77m0 .898c3.301 0 6.02 2.605 6.148 5.906l.004.25c0 3.395-2.754 6.152-6.156 6.152-3.398 0-6.152-2.762-6.152-6.152 0-3.402 2.754-6.156 6.152-6.156m.004 0" fill="#f9f9f9"/>
    <path d="m18.352 29.414l.238-.078c.609-.195 1.262.141 1.457.754l.766 2.379c.195.609-.141 1.262-.754 1.457l-.238.078c-.609.195-1.262-.141-1.457-.75l-.766-2.379c-.195-.613.141-1.266.754-1.461m0 0" fill="#f9f9f9"/>
    <path d="m29.645 29.414l-.238-.078c-.609-.195-1.266.141-1.461.754l-.762 2.379c-.195.609.141 1.262.75 1.457l.238.078c.613.195 1.266-.141 1.461-.75l.762-2.379c.199-.613-.141-1.266-.75-1.461m0 0" fill="#f9f9f9"/>
    <path d="m12.855 26.969c.184-.672.879-1.066 1.547-.883l2.215.613c.672.184 1.063.879.879 1.547-.184.672-.879 1.066-1.547.879l-2.215-.609c-.672-.184-1.066-.879-.879-1.547m0 0" fill="#f9f9f9"/>
    <path d="m35.21 26.965c-.184-.668-.879-1.063-1.547-.879l-2.215.613c-.672.184-1.066.879-.879 1.547.184.672.879 1.063 1.547.879l2.215-.609c.672-.184 1.063-.879.879-1.551m0 0" fill="#f9f9f9"/>
    <path d="m24.02 18.617h.117c.625.004 1.133.512 1.129 1.137l-.012 2.602c-.004.625-.512 1.133-1.137 1.129h-.117c-.625-.004-1.129-.512-1.129-1.137l.012-2.605c.004-.625.512-1.129 1.137-1.125m0 0" fill="#f9f9f9"/>
    <path d="m21.551 24.1c-.02 0-.039 0-.059 0-.281.012-.555.125-.77.336l-.578.57c.586.578 1.301 1.02 2.094 1.309l.172-.168c.457-.453.461-1.188.012-1.645l-.059-.063c-.223-.227-.52-.344-.813-.348m-1.996 1.488l-.125.121c.582.574 1.27 1.043 2.027 1.375l.129-.129c-.762-.324-1.449-.793-2.031-1.367m-.801.832c-.277.445-.223 1.035.16 1.426l.059.059c.449.457 1.184.461 1.641.012l.102-.098c-.727-.363-1.387-.836-1.961-1.395m0 0" fill="#f9f9f9"/>
    <path d="m26.508 24.1c-.297.004-.594.117-.816.348l-.059.055c-.449.461-.445 1.191.016 1.645l.23.227c.809-.258 1.539-.691 2.145-1.254l-.691-.684c-.23-.227-.527-.336-.824-.336m2.109 1.602c-.598.563-1.305 1.016-2.082 1.32l.133.129c.773-.313 1.473-.766 2.07-1.328m.637.746c-.574.535-1.234.984-1.957 1.324l.023.023c.457.453 1.191.445 1.645-.012l.055-.059c.344-.355.422-.855.234-1.277m0 0" fill="#f9f9f9"/>
  </g>
</svg>
