<svg xmlns="http://www.w3.org/2000/svg" viewBox="0 0 48 48">
 <g>
  
  
  
 </g>
 <g style="fill:#a1d4e5;fill-opacity:1">
  <path d="m 24 1 c 22.703 0 23 0.297 23 23 c 0 22.703 -0.297 23 -23 23 -22.703 0 -23 -0.297 -23 -23 0 -22.703 0.297 -23 23 -23 z"/>
 </g>
 <g>
  
 </g>
 <path d="m 30.864 8 a 1.382 1.375 0 0 0 -1.157 0.62 l -2.16 3.276 a 1.382 1.375 0 0 0 -0.201 1.012 l 1.308 6.863 -0.397 10.281 c -0.452 -0.539 -0.838 -1.167 -1.162 -1.944 l 0.159 -0.22 a 1.382 1.375 0 0 0 0.226 -1.098 l -0.668 -3.02 a 1.382 1.375 0 0 0 -0.995 -1.032 l -0.771 -0.206 a 1.382 1.375 0 0 0 -1.609 0.751 c -0.867 1.866 -1.747 3.618 -2.677 4.897 -0.245 0.337 -0.488 0.634 -0.732 0.895 0.637 -3.543 1.787 -7.114 2.758 -10.803 a 1.382 1.375 0 0 0 -2.518 -1.062 l -2.467 4.04 a 1.382 1.375 0 0 0 -0.109 0.217 l -1.953 5.02 a 1.382 1.375 0 0 0 -0.042 0.122 c -1.014 3.553 -1.221 6.566 -1.682 9.588 a 1.382 1.375 0 0 0 1.137 1.563 l 0.618 0.103 a 1.382 1.375 0 0 0 1.607 -1.274 c 0 0.007 0.365 -0.749 1.425 -1.602 0.807 -0.649 1.972 -1.387 3.258 -2.15 0.789 1.357 1.673 2.605 2.694 3.565 0.667 0.628 1.404 1.145 2.272 1.418 0.867 0.273 1.885 0.246 2.78 -0.172 a 1.382 1.375 0 0 0 0.112 -0.061 c 1.099 -0.643 2.168 -1.396 2.825 -2.714 0.657 -1.318 0.913 -2.982 1.039 -5.623 0.278 -5.819 0.339 -12.639 -0.103 -17.194 a 1.382 1.375 0 0 0 -0.142 -0.492 l -1.442 -2.814 a 1.382 1.375 0 0 0 -1.229 -0.751 z m 0 1.374 1.439 2.817 c 0.428 4.408 0.373 11.217 0.098 16.993 -0.245 5.14 -1.086 5.991 -3.183 7.219 -2.365 1.107 -4.798 -1.946 -6.636 -5.478 -3.711 2.088 -6.487 4.04 -6.583 5.581 l -0.617 -0.103 c 0.472 -3.092 0.675 -6.02 1.646 -9.419 l 1.953 -5.02 2.47 -4.04 c -1.208 4.593 -2.774 9.131 -3.188 13.821 2.831 -0.616 4.677 -4.112 6.429 -7.884 l 0.771 0.206 0.668 3.02 -0.592 0.818 c 0.844 2.482 2.262 3.869 3.987 5.069 l 0.514 -13.312 -1.336 -7.01 2.16 -3.276 z" style="visibility:visible;fill:#000;opacity:0.1;fill-opacity:1;stroke:none;display:inline;color:#000"/>
 <path d="m 29.864 7 a 1.382 1.375 0 0 0 -1.157 0.62 l -2.16 3.276 a 1.382 1.375 0 0 0 -0.201 1.012 l 1.308 6.863 -0.397 10.281 c -0.452 -0.539 -0.838 -1.167 -1.162 -1.944 l 0.159 -0.22 a 1.382 1.375 0 0 0 0.226 -1.098 l -0.668 -3.02 a 1.382 1.375 0 0 0 -0.995 -1.032 l -0.771 -0.206 a 1.382 1.375 0 0 0 -1.609 0.751 c -0.867 1.866 -1.747 3.618 -2.677 4.897 -0.245 0.337 -0.488 0.634 -0.732 0.895 0.637 -3.543 1.787 -7.114 2.758 -10.803 a 1.382 1.375 0 0 0 -2.518 -1.062 l -2.467 4.04 a 1.382 1.375 0 0 0 -0.109 0.217 l -1.953 5.02 a 1.382 1.375 0 0 0 -0.042 0.122 c -1.014 3.553 -1.221 6.566 -1.682 9.588 a 1.382 1.375 0 0 0 1.137 1.563 l 0.618 0.103 a 1.382 1.375 0 0 0 1.607 -1.274 c 0 0.007 0.365 -0.749 1.425 -1.602 0.807 -0.649 1.972 -1.387 3.258 -2.15 0.789 1.357 1.673 2.605 2.694 3.565 0.667 0.628 1.404 1.145 2.272 1.418 0.867 0.273 1.885 0.246 2.78 -0.172 a 1.382 1.375 0 0 0 0.112 -0.061 c 1.099 -0.643 2.168 -1.396 2.825 -2.714 0.657 -1.318 0.913 -2.982 1.039 -5.623 0.278 -5.819 0.339 -12.639 -0.103 -17.194 a 1.382 1.375 0 0 0 -0.142 -0.492 l -1.442 -2.814 a 1.382 1.375 0 0 0 -1.229 -0.751 z m 0 1.374 1.439 2.817 c 0.428 4.408 0.373 11.217 0.098 16.993 -0.245 5.14 -1.086 5.991 -3.183 7.219 -2.365 1.107 -4.798 -1.946 -6.636 -5.478 -3.711 2.088 -6.487 4.04 -6.583 5.581 l -0.617 -0.103 c 0.472 -3.092 0.675 -6.02 1.646 -9.419 l 1.953 -5.02 2.47 -4.04 c -1.208 4.593 -2.774 9.131 -3.188 13.821 2.831 -0.616 4.677 -4.112 6.429 -7.884 l 0.771 0.206 0.668 3.02 -0.592 0.818 c 0.844 2.482 2.262 3.869 3.987 5.069 l 0.514 -13.312 -1.336 -7.01 2.16 -3.276 z" style="visibility:visible;fill:#f9f9f9;fill-opacity:1;stroke:none;display:inline;color:#000"/>
 <path d="m 20.451 16.923 -2.469 4.04 -1.955 5.02 c -0.971 3.402 -1.174 6.327 -1.646 9.419 l 0.617 0.102 c 0.096 -1.545 2.873 -3.492 6.584 -5.58 1.838 3.532 4.27 6.584 6.635 5.477 2.096 -1.228 2.939 -2.079 3.184 -7.219 0.276 -5.777 0.331 -12.587 -0.098 -16.995 l -1.44 -2.816 -2.16 3.276 1.337 7.01 -0.514 13.31 c -1.725 -1.2 -3.142 -2.586 -3.986 -5.068 l 0.592 -0.819 -0.669 -3.02 -0.772 -0.205 c -1.752 3.771 -3.598 7.268 -6.43 7.883 0.414 -4.689 1.981 -9.229 3.189 -13.822 z" style="fill:#215f5a;fill-opacity:1;stroke:none"/>
</svg>
