<svg viewBox="0 0 48 48" xmlns="http://www.w3.org/2000/svg" xmlns:xlink="http://www.w3.org/1999/xlink">
  <linearGradient id="a" gradientTransform="matrix(0 -1 1 0 -.0000015 47.999998)" gradientUnits="userSpaceOnUse" x1="1" x2="47">
    <stop offset="0" stop-color="#239cf1"/>
    <stop offset="1" stop-color="#36a5f2"/>
  </linearGradient>
  <path d="m47 24c0 22.703-.297 23-23 23-22.703 0-23-.297-23-23 0-22.703.297-23 23-23 22.703 0 23 .297 23 23z" fill="url(#a)"/>
  <path d="m23.266 12c-2.539.031-5.02 1.621-6.05 3.965-.953 1.93-.898 4.355-.68 6.227.219 1.871.66 3.379 1.914 4.523 1.297 1.371 3.223 1.98 5.063 2.039 1.535-.137 3.406-.559 4.078-2.121-.082 1.199.281 2.484-.191 3.629-1.117 2.035-4.133 2.594-5.949 1.258-.809-.563-.98-1.652-1.148-2.516h-3.941c-.176 2.789 1.742 5.484 4.316 6.406 2.93 1.059 6.477.723 8.965-1.23 1.508-1.18 2.395-3.082 2.375-4.98v-16.695c-1.426-.027-2.855 0-4.273 0 0 .672 0 1.367.027 2.039-.699-1.512-2.355-2.484-3.992-2.543-.168 0-.34 0-.504 0m1.055 3.742c1.23 0 2.457.699 2.93 1.871.672 1.734.785 3.715.141 5.477-.563 1.172-1.676 2.289-3.074 2.148-1.785.141-3.07-1.59-3.379-3.18-.254-1.484-.223-3.102.418-4.496.531-1.203 1.703-1.789 2.957-1.816m.008-.004" opacity=".1" transform="translate(1 1)"/>
  <path d="m23.266 12c-2.539.031-5.02 1.621-6.05 3.965-.953 1.93-.898 4.355-.68 6.227.219 1.871.66 3.379 1.914 4.523 1.297 1.371 3.223 1.98 5.063 2.039 1.535-.137 3.406-.559 4.078-2.121-.082 1.199.281 2.484-.191 3.629-1.117 2.035-4.133 2.594-5.949 1.258-.809-.563-.98-1.652-1.148-2.516h-3.941c-.176 2.789 1.742 5.484 4.316 6.406 2.93 1.059 6.477.723 8.965-1.23 1.508-1.18 2.395-3.082 2.375-4.98v-16.695c-1.426-.027-2.855 0-4.273 0 0 .672 0 1.367.027 2.039-.699-1.512-2.355-2.484-3.992-2.543-.168 0-.34 0-.504 0m1.055 3.742c1.23 0 2.457.699 2.93 1.871.672 1.734.785 3.715.141 5.477-.563 1.172-1.676 2.289-3.074 2.148-1.785.141-3.07-1.59-3.379-3.18-.254-1.484-.223-3.102.418-4.496.531-1.203 1.703-1.789 2.957-1.816m.008-.004" fill="#fff"/>
</svg>
