<svg viewBox="0 0 48 48" xmlns="http://www.w3.org/2000/svg" xmlns:xlink="http://www.w3.org/1999/xlink">
  <linearGradient id="a">
    <stop offset="0" stop-color="#729cd9"/>
    <stop offset="1" stop-color="#87aade"/>
  </linearGradient>
  <linearGradient gradientUnits="userSpaceOnUse" x1="1" x2="47" xlink:href="#a"/>
  <linearGradient id="b" gradientUnits="userSpaceOnUse" x1="24.817" x2="24" xlink:href="#a" y1="47.15" y2="1"/>
  <path d="m24 1c22.703 0 23 .297 23 23 0 22.703-.297 23-23 23-22.703 0-23-.297-23-23 0-22.703.297-23 23-23z" fill="url(#b)"/>
  <g opacity=".1" transform="matrix(.85759961 0 0 .85759961 5.3529911 3.0842181)">
    <path d="m14.385 30.1c5.932 9.712 12.866 9.712 18.84 0 .207-1.647 0-15.76 0-15.76h-18.84c0 0-.302 14.569 0 15.76z"/>
    <path d="m16.09 29.618c4.854 8.25 10.526 8.25 15.415 0 .169-1.399 0-13.387 0-13.387h-15.415c0 0-.247 12.376 0 13.387z"/>
  </g>
  <g transform="matrix(.85759961 0 0 .85759961 4.4953915 2.2266185)">
    <path d="m14.385 30.1c5.932 9.712 12.866 9.712 18.84 0 .207-1.647 0-15.76 0-15.76h-18.84c0 0-.302 14.569 0 15.76z" fill="#784421"/>
    <path d="m16.09 29.618c4.854 8.25 10.526 8.25 15.415 0 .169-1.399 0-13.387 0-13.387h-15.415c0 0-.247 12.376 0 13.387z" fill="#502d16"/>
  </g>
  <g opacity=".1" transform="matrix(.85759961 0 0 .85759961 5.3417481 3.4112183)">
    <rect height="36.1" rx=".684" transform="matrix(.71163866 -.70254567 .68359622 .7298604 0 0)" width="1.96" x="-.347" y="16.02"/>
    <rect height="7.696" rx="1.01" transform="matrix(.71163866 -.70254567 .68359622 .7298604 0 0)" width="12.813" x="-5.706" y="18.16"/>
  </g>
  <g transform="matrix(.85759961 0 0 .85759961 4.4841485 2.5536152)">
    <rect fill="#784421" height="36.1" rx=".684" transform="matrix(.71163866 -.70254567 .68359622 .7298604 0 0)" width="1.96" x="-.347" y="16.02"/>
    <rect fill="#808080" height="7.696" rx="1.01" transform="matrix(.71163866 -.70254567 .68359622 .7298604 0 0)" width="12.813" x="-5.706" y="18.16"/>
  </g>
  <g opacity=".1" transform="matrix(.92620749 0 0 .92620749 3.9827863 1.4651535)">
    <path d="m35.508 11.647l-.671 3.02-18.434 18.905-2.272-2.336 18.434-18.905 2.943-.686-19.897 20.406z"/>
    <path d="m15.539 32.05l19.921-20.421-2.883.68-18.17 18.638z"/>
    <rect height="6.902" rx=".697" transform="matrix(.6973088 .71677084 -.69817875 .71592349 0 0)" width="1.629" x="32.752" y="11.165"/>
    <path d="m12.917 29.991l4.699 4.83 0 0" stroke="#502d16" stroke-width=".896"/>
  </g>
  <g transform="matrix(.92620749 0 0 .92620749 3.1251867 .60755393)">
    <path d="m35.508 11.647l-.671 3.02-18.434 18.905-2.272-2.336 18.434-18.905 2.943-.686-19.897 20.406z" fill="#666"/>
    <path d="m15.539 32.05l19.921-20.421-2.883.68-18.17 18.638z" fill="#999"/>
    <rect fill="#784421" height="6.902" rx=".697" transform="matrix(.6973088 .71677084 -.69817875 .71592349 0 0)" width="1.629" x="32.752" y="11.165"/>
    <path d="m12.917 29.991l4.699 4.83 0 0" fill="#502d16" stroke="#502d16" stroke-width=".896"/>
  </g>
</svg>
