<svg xmlns="http://www.w3.org/2000/svg" viewBox="0 0 48 48">
 <defs>
  <linearGradient id="linearGradient3764" x1="1" x2="47" gradientUnits="userSpaceOnUse" gradientTransform="matrix(0,-1,1,0,-1.5e-6,47.999998)">
   <stop style="stop-color:#eee1ab;stop-opacity:1"/>
   <stop offset="1" style="stop-color:#f2e7bc;stop-opacity:1"/>
  </linearGradient>
 </defs>
 <g>
  
  
  
 </g>
 <g>
  <path d="m 47,24 C 47,46.703 46.703,47 24,47 1.297,47 1,46.703 1,24 1,1.297 1.297,1 24,1 46.703,1 47,1.297 47,24 z" style="fill:url(#linearGradient3764);fill-opacity:1"/>
 </g>
 <g>
  
 </g>
 <path d="m 22.998 11 -0.965 2.895 c -0.974 0.263 -1.909 0.653 -2.781 1.16 l -2.738 -1.369 -2.83 2.83 1.367 2.734 c -0.503 0.873 -0.889 1.808 -1.148 2.781 l -2.904 0.969 0 4 2.895 0.965 c 0.263 0.974 0.653 1.909 1.16 2.781 l -1.369 2.738 2.83 2.83 2.734 -1.367 c 0.873 0.503 1.808 0.889 2.781 1.148 l 0.969 2.904 4 0 0.965 -2.895 c 0.974 -0.263 1.909 -0.653 2.781 -1.16 l 2.738 1.369 2.83 -2.83 -1.367 -2.734 c 0.503 -0.873 0.889 -1.808 1.148 -2.781 l 2.904 -0.969 0 -4 -2.895 -0.965 c -0.263 -0.974 -0.653 -1.909 -1.16 -2.781 l 1.369 -2.738 -2.83 -2.83 -2.734 1.367 c -0.873 -0.503 -1.808 -0.889 -2.781 -1.148 l -0.969 -2.904 -4 0" style="fill:#000;opacity:0.1;fill-opacity:0.983;stroke:none"/>
 <path d="m 21.998 10 -0.965 2.895 c -0.974 0.263 -1.909 0.653 -2.781 1.16 l -2.738 -1.369 -2.83 2.83 1.367 2.734 c -0.503 0.873 -0.889 1.808 -1.148 2.781 l -2.902 0.969 l 0 4 2.895 0.965 c 0.263 0.974 0.653 1.909 1.16 2.781 l -1.369 2.738 2.83 2.83 l 2.734 -1.367 c 0.873 0.503 1.806 0.889 2.779 1.148 l 0.971 2.902 l 4 0 0.965 -2.895 c 0.974 -0.263 1.907 -0.653 2.779 -1.16 l 2.738 1.369 2.83 -2.83 -1.367 -2.734 c 0.503 -0.873 0.889 -1.806 1.148 -2.779 l 2.904 -0.971 0 -4 -2.895 -0.965 c -0.263 -0.974 -0.653 -1.907 -1.16 -2.779 l 1.369 -2.738 -2.83 -2.83 -2.734 1.367 c -0.873 -0.503 -1.808 -0.889 -2.781 -1.148 l -0.969 -2.904 -4 0 z" style="fill:#9c967c;opacity:1;fill-opacity:0.983;stroke:none"/>
 <circle r="4" cy="25" cx="24.998" style="fill:#000;opacity:0.1;fill-opacity:1;stroke:none;fill-rule:nonzero"/>
 <circle cx="23.998" cy="24" r="4" style="fill:#ccae74;opacity:1;fill-opacity:1;stroke:none;fill-rule:nonzero"/>
</svg>
