<svg viewBox="0 0 48 48" xmlns="http://www.w3.org/2000/svg" xmlns:xlink="http://www.w3.org/1999/xlink">
  <linearGradient id="a" gradientUnits="userSpaceOnUse" x1="1" x2="47">
    <stop offset="0" stop-color="#4c340c"/>
    <stop offset="1" stop-color="#5d400f"/>
  </linearGradient>
  <path d="m24 1c22.703 0 23 .297 23 23 0 22.703-.297 23-23 23-22.703 0-23-.297-23-23 0-22.703.297-23 23-23z" fill="url(#a)" transform="matrix(0 -1 1 0 0 48)"/>
  <path d="m13 14v2l6 7 6 8 6-7v12h6v-22h-6l-6 8-6-8zm0 3v19h6v-12z" opacity=".1"/>
  <path d="m12 13v2l6 7 6 8 6-7v12h6v-22h-6l-6 8-6-8zm0 3v19h6v-12z" fill="#dea024"/>
</svg>
