<svg viewBox="0 0 48 48" xmlns="http://www.w3.org/2000/svg" xmlns:xlink="http://www.w3.org/1999/xlink">
  <linearGradient id="a" gradientTransform="matrix(0 -1 1 0 -.0000015 47.999998)" gradientUnits="userSpaceOnUse" x1="1" x2="47">
    <stop offset="0" stop-color="#e4e4e4"/>
    <stop offset="1" stop-color="#eee"/>
  </linearGradient>
  <path d="m47 24c0 22.703-.297 23-23 23-22.703 0-23-.297-23-23 0-22.703.297-23 23-23 22.703 0 23 .297 23 23z" fill="url(#a)"/>
  <path d="m37 18v14l-12 6-12-6v-14l12-6" opacity=".1"/>
  <path d="m36 17v14l-12 6-12-6v-14l12-6" fill="#bababa"/>
  <path d="m35 19l-4 2v6l4 2z"/>
  <path d="m34.3 30.735l-3.708-2.553-5.588 2.818v4.4z"/>
  <path d="m35 19l-4 2v6l4 2z"/>
  <path d="m34.3 17.247l-3.708 2.553-5.588-2.8v-4.418z"/>
  <path d="m13 19l4 2v6l-4 2z"/>
  <path d="m13.704 30.735l3.708-2.553 5.588 2.818v4.4z" fill="#000877"/>
  <path d="m13 19l4 2v6l-4 2z"/>
  <path d="m13.704 17.247l3.708 2.553 5.588-2.8v-4.418z"/>
  <path d="m20 15c-1.657 0-3 1.343-3 3 0 .645.216 1.229.563 1.719l.125-.063c-.175-.378-.281-.803-.281-1.25 0-1.657 1.343-3 3-3 .744 0 1.413.27 1.938.719-.55-.686-1.396-1.125-2.344-1.125z" fill="#f9f9f9"/>
  <path d="m29 24a5 5 0 1 1-10 0 5 5 0 1 1  10 0z"/>
  <path d="m29.406 28.781l-4.406 2.219v4.406l5.781-2.906c-.258-1.33-.744-2.567-1.375-3.719z" fill="#000877"/>
  <path d="m19.406 22.06c-.253.598-.406 1.247-.406 1.938 0 2.761 2.239 5 5 5 1.702 0 3.222-.857 4.125-2.156-2.109-2.619-5.194-4.406-8.719-4.781z" fill="#000877"/>
  <path d="m17 22.03c-1.409.106-2.752.449-4 .969v6l4-2z" fill="#000877"/>
</svg>
