<svg xmlns="http://www.w3.org/2000/svg" viewBox="0 0 48 48">
 <defs>
  <linearGradient id="linearGradient3764" x1="1" x2="47" gradientUnits="userSpaceOnUse" gradientTransform="matrix(0,-1,1,0,-1.5e-6,47.999998)">
   <stop style="stop-color:#708290;stop-opacity:1"/>
   <stop offset="1" style="stop-color:#7b8c99;stop-opacity:1"/>
  </linearGradient>
 </defs>
 <g>
  
  
  
 </g>
 <g>
  <path d="m 47,24 C 47,46.703 46.703,47 24,47 1.297,47 1,46.703 1,24 1,1.297 1.297,1 24,1 46.703,1 47,1.297 47,24 z" style="fill:url(#linearGradient3764);fill-opacity:1"/>
 </g>
 <path d="m 31.969 12.156 -9.625 0.719 c -1.569 2.046 -1.832 4.434 -1.844 6.094 l -5.5 0.438 0 17.219 14 1.375 l 5 -2.625 0 -14 -4.125 -2.563 0.219 0 c 0.051 -2.622 0.929 -4.618 1.875 -6.656 z" style="fill:#000;fill-opacity:0.098;stroke:none"/>
 <g>
  
 </g>
 <path d="m 19.16 18.237 c -0.014 -1.661 0.203 -4.214 1.855 -6.368 l 9.634 -0.706 c -0.946 2.038 -1.846 4.02 -1.896 6.644 z" style="stroke-dasharray:none;stroke-opacity:1;fill:#f9dfbd;stroke-miterlimit:4;fill-opacity:1;stroke:#d7a16c;stroke-linecap:butt;stroke-linejoin:miter;stroke-width:0.327"/>
 <path d="m 14 35.618 14 1.382 5 -2.619 0 -13.994 -5 -3.1 -14 1.114 z" style="fill:#252525;fill-opacity:1;stroke:none"/>
 <path d="m 20 18.199 2 -0.199 0 2.896 -2 0.104 z" style="fill:#adadae;fill-opacity:1;stroke:none"/>
 <path d="m 14.238 20.712 14.263 -1.132 4.324 2.559" style="stroke-dasharray:none;stroke-opacity:0.235;fill:none;stroke-miterlimit:4;stroke:#000;stroke-linecap:butt;stroke-linejoin:miter;stroke-width:0.218"/>
 <path d="m 21.04 18.513 c -0.259 0 -0.513 0.19 -0.513 0.449 0.007 0.182 0.087 0.37 0.192 0.385 l 0 1.218 0.577 0 0 -1.218 c 0.112 -0.086 0.192 -0.233 0.192 -0.385 0 -0.259 -0.19 -0.449 -0.449 -0.449 z" style="fill:#5c5c5c;fill-opacity:1;stroke:none"/>
 <path d="m 23.21 16.16 2.589 -2.727" style="stroke-dasharray:none;stroke-opacity:1;fill:none;stroke-miterlimit:4;stroke:#2d2d2d;stroke-linecap:butt;stroke-linejoin:miter;stroke-width:0.871"/>
 <path d="m 23.01 13.613 2.27 2.63" style="stroke-dasharray:none;stroke-opacity:1;fill:none;stroke-miterlimit:4;stroke:#2d2d2d;stroke-linecap:butt;stroke-linejoin:miter;stroke-width:0.871"/>
 <path d="m 32.846 20.79 -4.846 -2.989 -13.768 1.198" style="stroke-dasharray:none;stroke-opacity:0.235;fill:none;stroke-miterlimit:4;stroke:#000;stroke-linecap:butt;stroke-linejoin:miter;stroke-width:0.218"/>
 <path d="m 19 29.718 1.351 0 c -0.004 1.62 0.283 1.719 0.763 1.732 0.622 -0.013 0.696 -0.862 0.675 -1.762 0.005 -1.312 -0.002 -1.772 -1.126 -1.742 l 0 -1.341 c 0.899 0.023 1.197 -0.173 1.184 -1.693 0 -0.82 0.003 -1.486 -0.705 -1.478 -0.869 0.005 -0.697 1.049 -0.715 1.684 l -1.37 0.02 c -0.022 -1.428 0.261 -3.26 2.173 -3.259 2.038 0 2.055 1.793 2.036 3.093 0.017 0.9 0.048 1.872 -0.881 2.349 0.974 0.34 0.852 1.669 0.852 2.604 0.066 2.725 -1.351 3.135 -2.144 3.142 -0.521 0.011 -2.081 -0.5 -2.085 -2.222 z" style="fill:#f9f9f9;fill-opacity:1;stroke:none"/>
</svg>
