<svg viewBox="0 0 48 48" xmlns="http://www.w3.org/2000/svg" xmlns:xlink="http://www.w3.org/1999/xlink">
  <linearGradient id="a" gradientTransform="matrix(0 -1 1 0 -.0000015 47.999998)" gradientUnits="userSpaceOnUse" x1="1" x2="47">
    <stop offset="0" stop-color="#3a3a3a"/>
    <stop offset="1" stop-color="#444"/>
  </linearGradient>
  <linearGradient id="b" gradientTransform="matrix(0 -1 1 0 -.0000015 47.999998)" gradientUnits="userSpaceOnUse" x1="1" x2="47" xlink:href="#a"/>
  <path d="m47 24c0 22.703-.297 23-23 23-22.703 0-23-.297-23-23 0-22.703.297-23 23-23 22.703 0 23 .297 23 23z" fill="url(#a)"/>
  <path d="m5.73 10.03c-.489.639-.948 1.303-1.369 1.992 13.965 9.07 23.904 23.826 28.752 33.1.544-.235 1.075-.491 1.596-.766-1.955-3.778-4.433-8.285-5.803-10.516.07-.039.148-.055.219-.094l3.03 2.313-1.344-3.563c.742-.668 1.398-1.414 1.906-2.281l3.813.469-2.969-2.438c.285-.91.465-1.871.469-2.875l3.469-1.406-3.688-.688c-.211-.98-.551-1.906-1.031-2.75.754-.961 2.309-2.922 2.375-3 .063-.078-2.395.82-3.656 1.281-.66-.723-1.428-1.348-2.279-1.844l.5-3.75-2.471 2.875c-.902-.285-1.852-.435-2.844-.439l-1.406-3.531-.625 3.75c-.996.207-1.956.543-2.813 1.031l-3-2.375 1.313 3.625c-.313.281-.598.614-.875.939-1.763-1.711-6.941-5.966-11.268-9.06zm18.613 7.561c4.277 0 7.75 3.441 7.75 7.719 0 3.02-1.73 5.629-4.25 6.906-2.617-4.01-5.723-7.941-9.5-11.781 1.418-1.75 3.57-2.844 6-2.844z" opacity=".1"/>
  <path d="m5.871 9.855c-.486.622-.94 1.269-1.361 1.939 13.967 9.529 23.724 24.589 28.19 33.496.555-.227 1.097-.476 1.629-.744-2.01-3.953-4.914-9.246-6.426-11.707.07-.039.148-.055.219-.094l3.03 2.313-1.344-3.563c.742-.668 1.398-1.414 1.906-2.281l3.813.469-2.969-2.438c.285-.91.465-1.871.469-2.875l3.469-1.406-3.688-.688c-.211-.98-.551-1.906-1.031-2.75.754-.961 2.309-2.922 2.375-3 .063-.078-2.395.82-3.656 1.281-.66-.723-1.428-1.348-2.279-1.844l.5-3.75-2.471 2.875c-.902-.285-1.852-.435-2.844-.439l-1.406-3.531-.625 3.75c-.996.207-1.956.543-2.813 1.031l-3-2.375 1.313 3.625c-.313.281-.598.614-.875.939-1.609-1.561-6.07-5.25-10.127-8.234zm17.473 6.738c4.277 0 7.75 3.441 7.75 7.719 0 3.02-1.73 5.629-4.25 6.906-2.617-4.01-5.723-7.941-9.5-11.781 1.418-1.75 3.57-2.844 6-2.844z" fill="#fdec9e"/>
  <path d="m24 1c12.703 0 23 10.297 23 23 0 12.703-10.297 23-23 23-12.703 0-23-10.297-23-23 0-12.703 10.297-23 23-23z" fill="url(#b)"/>
  <g opacity=".1" transform="translate(1 2)">
    <path d="m24 11l-.658 1.115a13.5 13.5 0 0 0-11.842 13.385 13.5 13.5 0 0 0  .975 5.01l-1.475 2.494v2h4.422a13.5 13.5 0 0 0 9.578 4 13.5 13.5 0 0 0  9.584-4h4.416v-2l-1.471-2.488a13.5 13.5 0 0 0  .971-5.01 13.5 13.5 0 0 0-2.074-7.158l-2.596 1.295a10.607 10.607 0 0 1 1.777 5.863 10.607 10.607 0 0 1-.127 1.545l-6.77-11.459a10.607 10.607 0 0 1 1.822.881l2.939-1.471a13.5 13.5 0 0 0-6.811-2.875l-.662-1.121h-2zm-2.697 4.564l-6.787 11.486a10.607 10.607 0 0 1-.123-1.551 10.607 10.607 0 0 1  6.91-9.936zm3.697 1.436l8 14h-16zm0 5l-3 2v3l3 2 3-2v-3zm-4.695 13h9.41a10.607 10.607 0 0 1-4.715 1.109 10.607 10.607 0 0 1-4.695-1.109z" opacity="1" transform="translate(-1 -2)"/>
    <path d="m14.772 13.668a13.5 13.5 0 0 0-4.272 9.832 13.5 13.5 0 0 0  12.248 13.43l-1.058-3.086a10.607 10.607 0 0 1-8.297-10.344 10.607 10.607 0 0 1  2.433-6.756l-1.055-3.076z" opacity="1"/>
  </g>
  <g transform="translate(0 1)">
    <path d="m24 11c-7.456-.001-13.5 6.04-13.5 13.5 0 7.456 6.04 13.5 13.5 13.5 7.456 0 13.5-6.04 13.5-13.5-.006-2.534-.725-5.01-2.074-7.158l-2.596 1.295c1.156 1.737 1.775 3.777 1.777 5.863.002 5.859-4.748 10.609-10.607 10.609-5.859 0-10.608-4.75-10.607-10.609.001-5.858 4.749-10.611 10.607-10.607 1.954.001 3.869.55 5.533 1.574l2.939-1.471c-2.399-1.937-5.389-2.996-8.473-2.996" fill="#ccc" transform="translate(0 -1)"/>
    <g fill-rule="evenodd" transform="translate(0 1)">
      <path d="m21 21v3l3 2 3-2v-3z" fill="#ccc"/>
      <path d="m21 21l3-2 3 2-3 2z" fill="#f9f9f9"/>
    </g>
    <path d="m23 9l-13 22v2h28v-2l-13-22zm1 6l8 14h-16z" fill="#ececec" fill-rule="evenodd"/>
    <path d="m14.772 13.668a13.5 13.5 0 0 0-4.272 9.832 13.5 13.5 0 0 0  12.248 13.43l-1.058-3.086a10.607 10.607 0 0 1-8.297-10.344 10.607 10.607 0 0 1  2.433-6.756l-1.055-3.076z" fill="#ccc"/>
  </g>
</svg>
