<svg viewBox="0 0 48 48" xmlns="http://www.w3.org/2000/svg" xmlns:xlink="http://www.w3.org/1999/xlink">
  <linearGradient id="a" gradientTransform="matrix(0 -1 1 0 -.0000015 47.999998)" gradientUnits="userSpaceOnUse" x1="1" x2="47">
    <stop offset="0" stop-color="#774e80"/>
    <stop offset="1" stop-color="#82568c"/>
  </linearGradient>
  <path d="m47 24c0 22.703-.297 23-23 23-22.703 0-23-.297-23-23 0-22.703.297-23 23-23 22.703 0 23 .297 23 23z" fill="url(#a)"/>
  <path d="m24 12v5h-8v4h-4v6h2v-4h2v9h4v2h-4v2h6v-4h10v-1h2v4h2v-6h-4v-3h4v-6h-2v4h-2v-12m-8 0" opacity=".1" transform="translate(1 1)"/>
  <path d="m24 12v5h-8v4h-4v6h2v-4h2v9h4v2h-4v2h6v-4h10v-1h2v4h2v-6h-4v-3h4v-6h-2v4h-2v-12m-8 0" fill="#ffcc01"/>
</svg>
