<svg viewBox="0 0 48 48" xmlns="http://www.w3.org/2000/svg" xmlns:xlink="http://www.w3.org/1999/xlink">
  <linearGradient id="a" gradientUnits="userSpaceOnUse" x2="0" y1="1" y2="47">
    <stop offset="0" stop-color="#3c3c3c"/>
    <stop offset="1" stop-color="#323232"/>
  </linearGradient>
  <path d="m24 1c22.703 0 23 .297 23 23 0 22.703-.297 23-23 23-22.703 0-23-.297-23-23 0-22.703.297-23 23-23z" fill="url(#a)"/>
  <path d="m28 12l-3 3h3l1 1 2-3-1-1zm4 1l-2 3 1 3 3-3v1l-3 3 1 2 4-4v1l-4 4h2 2l2-2v-2l-1-1v-2l-2-1-1-2zm-9 3l-1 1 2 7-9 10v-1h-2c0 0 6.65-6.02 10-9l-2-6 1 5v1l-10 9 9 6 9-12h2l1-1 2-1 1-1h-5l-1-3h-1l-1 3h-2l1-3-2-2 1-1 2 2h2v-1l-2-3h-4zm5 11h1l-5 6z" fill-rule="evenodd" opacity=".1" transform=""/>
  <g fill="#ececec" fill-rule="evenodd">
    <path d="m22 15l-1 1 2 7-9 10v-1h-2c0 0 6.65-6.02 10-9l-2-6 1 5v1l-10 9 9 6 9-12h2l1-1 2-1 1-1h-5l-1-3h-1l-1 3h-2l1-3-2-2 1-1 2 2h2v-1l-2-3h-4zm5 11h1l-5 6z"/>
    <path d="m24 14l3-3h2l1 1-2 3-1-1z"/>
    <path d="m31 12l-2 3 1 3 3-3v1l-3 3 1 2 4-4v1l-4 4h2 2l2-2v-2l-1-1v-2l-2-1-1-2z"/>
  </g>
</svg>
