<svg viewBox="0 0 48 48" xmlns="http://www.w3.org/2000/svg" xmlns:xlink="http://www.w3.org/1999/xlink">
  <linearGradient id="a" gradientTransform="matrix(0 -1 1 0 -.0000015 47.999998)" gradientUnits="userSpaceOnUse" x1="1" x2="47">
    <stop offset="0" stop-color="#162b3c"/>
    <stop offset="1" stop-color="#1b354a"/>
  </linearGradient>
  <path d="m47 24c0 22.703-.297 23-23 23-22.703 0-23-.297-23-23 0-22.703.297-23 23-23 22.703 0 23 .297 23 23z" fill="url(#a)"/>
  <path d="m20 14v3h1v2h1v2h-1v-2h-2v5h1v1h2v1h-2v1h-1v6h1v1h8v-1h1v-6h-1v-1h-2v-1h2v-1h1v-5h-2v2h-1v-2h1v-2h1v-3h-3v4h-2v-4m0 13h4v1h1v1h-6v-1h1m-1 2h2v2h-2m4-2h2v2h-2" opacity=".1" transform="translate(1 1)"/>
  <path d="m20 14v3h1v2h1v2h-1v-2h-2v5h1v1h2v1h-2v1h-1v6h1v1h8v-1h1v-6h-1v-1h-2v-1h2v-1h1v-5h-2v2h-1v-2h1v-2h1v-3h-3v4h-2v-4m0 13h4v1h1v1h-6v-1h1m-1 2h2v2h-2m4-2h2v2h-2" fill="#9cf"/>
</svg>
