<svg viewBox="0 0 48 48" xmlns="http://www.w3.org/2000/svg" xmlns:xlink="http://www.w3.org/1999/xlink">
  <linearGradient id="a" gradientTransform="matrix(0 -1 1 0 0 48)" gradientUnits="userSpaceOnUse" x1="1" x2="47">
    <stop offset="0" stop-color="#0b4d15"/>
    <stop offset="1" stop-color="#0d5f1a"/>
  </linearGradient>
  <path d="m1 24c0-22.703.297-23 23-23 22.703 0 23 .297 23 23 0 22.703-.297 23-23 23-22.703 0-23-.297-23-23z" fill="url(#a)"/>
  <path d="m20 1.354c-.336.059-.669.124-1 .197v22.449h-10v-17.428c-.342.295-.676.598-1 .912v16.516h-7c0 .335.011.668.025 1h13.975v13h-9.244c.262.341.535.674.816 1h8.428 1v-14h3v21.449c.331.073.664.138 1 .197v-21.646h8v21.646c.336-.059.669-.124 1-.197v-21.449h3v14h1 8.428c.281-.326.554-.659.816-1h-9.244v-13h13.975c.014-.332.025-.665.025-1h-7v-16.516c-.324-.314-.658-.617-1-.912v17.428h-10v-22.449c-.331-.073-.664-.138-1-.197v22.646h-8z" fill="#fff" opacity=".1"/>
  <path d="m24 11a13 13 0 0 0-13 13 13 13 0 0 0  13 13 13 13 0 0 0  13-13 13 13 0 0 0-13-13zm0 3a10 10 0 0 1 10 10 10 10 0 0 1-10 10 10 10 0 0 1-10-10 10 10 0 0 1  10-10z" fill="#d5e692"/>
  <path d="m19.269 11.152c-3.674 1.518-6.595 4.433-8.121 8.104l1.867.734a13 13 0 0 0-1.016 5.01 13 13 0 0 0  13 13 13 13 0 0 0  13-13 13 13 0 0 0-13-13 13 13 0 0 0-5.02 1.01l-.715-1.855m5.73 3.848a10 10 0 0 1 10 10 10 10 0 0 1-10 10 10 10 0 0 1-10-10 10 10 0 0 1  10-10zm0 1a9 9 0 0 0-9 9 9 9 0 0 0  9 9 9 9 0 0 0  9-9 9 9 0 0 0-9-9zm-5 3h10v1h-2v10h2v1h-10v-1h2v-10h-2zm4 1v10h2v-10z" opacity=".1"/>
  <path d="m18.27 10.152c-3.674 1.518-6.595 4.433-8.121 8.104l4.564 1.797c1.323-3.181 2.025-4.299 5.209-5.615z" fill="#daf27a"/>
  <path d="m24 15a9 9 0 0 0-9 9 9 9 0 0 0  9 9 9 9 0 0 0  9-9 9 9 0 0 0-9-9zm-5 3h10v1h-2v10h2v1h-10v-1h2v-10h-2zm4 1v10h2v-10z" fill="#daf27a"/>
  <path d="m24 11a13 13 0 0 0-13 13 13 13 0 0 0  13 13 13 13 0 0 0  13-13 13 13 0 0 0-13-13zm0 3a10 10 0 0 1 10 10 10 10 0 0 1-10 10 10 10 0 0 1-10-10 10 10 0 0 1  10-10z" fill="#daf27a"/>
</svg>
