<svg viewBox="0 0 48 48" xmlns="http://www.w3.org/2000/svg" xmlns:xlink="http://www.w3.org/1999/xlink">
  <linearGradient id="a" gradientUnits="userSpaceOnUse" x1="1" x2="47">
    <stop offset="0" stop-color="#2662af"/>
    <stop offset="1" stop-color="#296bbf"/>
  </linearGradient>
  <path d="m24 1c22.703 0 23 .297 23 23 0 22.703-.297 23-23 23-22.703 0-23-.297-23-23 0-22.703.297-23 23-23z" fill="url(#a)" transform="matrix(0 -1 1 0 0 48)"/>
  <g opacity=".1" transform="translate(1 1)">
    <path d="m36 23c0 4.418-4.926 8-11 8-6.074 0-11-3.582-11-8 0-4.418 4.926-8 11-8 6.074 0 11 3.582 11 8m0 0"/>
    <path d="m19 22c0 .551-.449 1-1 1-.551 0-1-.449-1-1 0-.551.449-1 1-1 .551 0 1 .449 1 1m0 0"/>
    <path d="m19 27v3.883c0 2.816 3 2.816 3 .027v-3.715m-3-.195"/>
    <path d="m27 27v3.883c0 2.816 3 2.816 3 .027v-3.715m-3-.195"/>
    <path d="m21.711 17.824c2.84-1.09 4.734-1.09 7.578 0 .945.363.945 1.523 0 1.086-2.844-1.086-4.738-1.086-7.578 0-.945.391-.945-.699 0-1.086m0 0"/>
    <path d="m16 19c-.996-.758-1.996-2-1.996-3 3-.996 4-.301 5 1m-3 2"/>
    <path d="m14 23c-1 0-2 .457-2 1 0 1.25 0 3 1.5 3 1.086 0 2.5-.27 2.5-1m-2-3"/>
  </g>
  <path d="m36 23c0 4.418-4.926 8-11 8-6.074 0-11-3.582-11-8 0-4.418 4.926-8 11-8 6.074 0 11 3.582 11 8m0 0" fill="#353535"/>
  <path d="m19 22c0 .551-.449 1-1 1-.551 0-1-.449-1-1 0-.551.449-1 1-1 .551 0 1 .449 1 1m0 0" fill="#f9f9f9"/>
  <path d="m19 27v3.883c0 2.816 3 2.816 3 .027v-3.715m-3-.195" fill="#353535"/>
  <path d="m27 27v3.883c0 2.816 3 2.816 3 .027v-3.715m-3-.195" fill="#353535"/>
  <path d="m16 19c-.996-.758-1.996-2-1.996-3 3-.996 4-.301 5 1m-3 2" fill="#353535"/>
  <path d="m14 23c-1 0-2 .457-2 1 0 1.25 0 3 1.5 3 1.086 0 2.5-.27 2.5-1m-2-3" fill="#353535"/>
</svg>
