<svg viewBox="0 0 48 48" xmlns="http://www.w3.org/2000/svg" xmlns:xlink="http://www.w3.org/1999/xlink">
  <linearGradient id="a" gradientUnits="userSpaceOnUse" x1="1" x2="47">
    <stop offset="0" stop-color="#ff9710"/>
    <stop offset="1" stop-color="#ffa025"/>
  </linearGradient>
  <path d="m24 1c22.703 0 23 .297 23 23 0 22.703-.297 23-23 23-22.703 0-23-.297-23-23 0-22.703.297-23 23-23z" fill="url(#a)" transform="matrix(0 -1 1 0 0 48)"/>
  <path d="m16 37h4v-8h6l3 8h5l-4-9c6 0 6-15-1-15h-13v8h4v-4h6c6 0 6 8 0 8h-10z" opacity=".1"/>
  <path d="m15 36h4v-8h6l3 8h5l-4-9c6 0 6-15-1-15h-13v8h4v-4h6c6 0 6 8 0 8h-10z" fill="#f9f9f9"/>
</svg>
