<svg xmlns="http://www.w3.org/2000/svg" viewBox="0 0 48 48">
 <defs>
  <linearGradient id="linearGradient4316" y1="1" x2="0" y2="47" gradientUnits="userSpaceOnUse">
   <stop style="stop-color:#3c3c3c;stop-opacity:1"/>
   <stop offset="1" style="stop-color:#323232;stop-opacity:1"/>
  </linearGradient>
 </defs>
 <g>
  
  
  
 </g>
 <g style="fill:url(#linearGradient4316);fill-opacity:1">
  <path d="m 24 1 c 22.703 0 23 0.297 23 23 c 0 22.703 -0.297 23 -23 23 -22.703 0 -23 -0.297 -23 -23 0 -22.703 0.297 -23 23 -23 z"/>
 </g>
 <g>
  
 </g>
 <g transform="translate(1,1)" style="fill:#000;opacity:0.1">
  <path d="m 28 12 l -3 3 l 3 0 l 1 1 l 2 -3 l -1 -1 l -2 0 z m 4 1 l -2 3 l 1 3 l 3 -3 l 0 1 l -3 3 l 1 2 l 4 -4 l 0 1 l -4 4 l 2 0 l 2 0 l 2 -2 l 0 -2 l -1 -1 l 0 -2 l -2 -1 l -1 -2 l -2 0 z m -9 3 l -1 1 l 2 7 l -9 10 l 0 -1 l -2 0 c 0 0 6.65 -6.02 10 -9 l -2 -6 l 1 5 l 0 1 l -10 9 l 9 6 l 9 -12 l 2 0 l 1 -1 l 2 -1 l 1 -1 l -5 0 l -1 -3 l -1 0 l -1 3 l -2 0 l 1 -3 l -2 -2 l 1 -1 l 2 2 l 2 0 l 0 -1 l -2 -3 l -4 0 l -1 0 z m 5 11 l 1 0 l -5 6 l 4 -6 z" transform="translate(-1,-1)" style="fill:#000;stroke:none;fill-rule:evenodd"/>
 </g>
 <g style="fill:#ececec">
  <path d="m 22 15 -1 1 2 7 -9 10 0 -1 -2 0 c 0 0 6.65 -6.02 10 -9 l -2 -6 1 5 0 1 -10 9 9 6 9 -12 2 0 1 -1 2 -1 1 -1 -5 0 -1 -3 -1 0 -1 3 -2 0 1 -3 -2 -2 1 -1 2 2 2 0 0 -1 -2 -3 -4 0 z m 5 11 1 0 -5 6 z" style="stroke:none;fill-rule:evenodd"/>
  <path d="m 24 14 3 -3 2 0 1 1 -2 3 -1 -1 z" style="stroke:none;fill-rule:evenodd"/>
  <path d="m 31 12 -2 3 1 3 3 -3 0 1 -3 3 1 2 4 -4 0 1 -4 4 2 0 2 0 2 -2 0 -2 -1 -1 0 -2 -2 -1 -1 -2 z" style="stroke:none;fill-rule:evenodd"/>
 </g>
</svg>
