<svg viewBox="0 0 48 48" xmlns="http://www.w3.org/2000/svg" xmlns:xlink="http://www.w3.org/1999/xlink">
  <linearGradient id="a" gradientTransform="matrix(0 -1 1 0 -.0000015 47.999998)" gradientUnits="userSpaceOnUse" x1="1" x2="47">
    <stop offset="0" stop-color="#eb9b29"/>
    <stop offset="1" stop-color="#eda63c"/>
  </linearGradient>
  <path d="m47 24c0 22.703-.297 23-23 23-22.703 0-23-.297-23-23 0-22.703.297-23 23-23 22.703 0 23 .297 23 23z" fill="url(#a)"/>
  <g opacity=".1" transform="translate(1 1)">
    <path d="m18.418 34.543c0 .582-.793 1.059-1.773 1.059-.98 0-1.773-.477-1.773-1.059 0-.586.793-1.059 1.773-1.059.98 0 1.773.473 1.773 1.059m0 0"/>
    <path d="m34.402 34.578c0 .586-.793 1.059-1.773 1.059-.977 0-1.77-.473-1.77-1.059 0-.582.793-1.055 1.77-1.055.98 0 1.773.473 1.773 1.055m0 0"/>
    <path d="m23.629 25.449c-.078 0-.141.063-.141.141v1.258c0 .078.063.141.141.141h1.258c.078 0 .141-.063.141-.141v-1.258c0-.078-.063-.141-.141-.141m-1.254.008h1.246c.078 0 .137.063.137.137v1.246c0 .078-.059.137-.137.137h-1.246c-.074 0-.137-.059-.137-.137v-1.246c0-.074.063-.137.137-.137m0 0" fill-opacity=".051"/>
    <path d="m23.633 25.457c-.074 0-.137.063-.137.137v1.246c0 .078.063.137.137.137h1.246c.078 0 .137-.059.137-.137v-1.246c0-.074-.059-.137-.137-.137m-1.238.008h1.23c.078 0 .137.063.137.137v1.23c0 .078-.059.137-.137.137h-1.23c-.074 0-.137-.059-.137-.137v-1.23c0-.074.063-.137.137-.137m0 0" fill-opacity=".102"/>
    <path d="m23.641 25.465c-.074 0-.137.063-.137.137v1.23c0 .078.063.137.137.137h1.23c.078 0 .137-.059.137-.137v-1.23c0-.074-.059-.137-.137-.137m-1.227.004h1.227c.074 0 .133.063.133.137v1.223c0 .078-.059.137-.133.137h-1.227c-.074 0-.137-.059-.137-.137v-1.223c0-.074.063-.137.137-.137m0 0" fill-opacity=".2"/>
    <path d="m23.645 25.469c-.074 0-.137.063-.137.137v1.223c0 .078.063.137.137.137h1.227c.074 0 .133-.059.133-.137v-1.223c0-.074-.059-.137-.133-.137m-1.223.004h1.219c.074 0 .133.063.133.137v1.219c0 .074-.059.133-.133.133h-1.219c-.074 0-.137-.059-.137-.133v-1.219c0-.074.063-.137.137-.137m0 0" fill-opacity=".302"/>
    <path d="m23.648 25.473c-.074 0-.137.063-.137.137v1.219c0 .074.063.133.137.133h1.219c.074 0 .133-.059.133-.133v-1.219c0-.074-.059-.137-.133-.137m-1.215.004h1.211c.074 0 .133.063.133.137v1.211c0 .074-.059.133-.133.133h-1.211c-.074 0-.137-.059-.137-.133v-1.211c0-.074.063-.137.137-.137m0 0" fill-opacity=".4"/>
    <path d="m23.652 25.477h1.211c.074 0 .133.063.133.137v1.211c0 .074-.059.133-.133.133h-1.211c-.074 0-.137-.059-.137-.133v-1.211c0-.074.063-.137.137-.137m0 0" fill-opacity=".502"/>
    <path d="m23.656 25.48h1.203c.074 0 .133.063.133.137v1.203c0 .074-.059.133-.133.133h-1.203c-.074 0-.137-.059-.137-.133v-1.203c0-.074.063-.137.137-.137m0 0"/>
    <path d="m24.586 12c-.762 0-1.484.156-2.145.438l.742 1.043c0 0 1.379-.703 2.652 0l .871-1.055c-.652-.273-1.367-.426-2.117-.426m-.004 0"/>
    <path d="m24.16 35.992c-1.805-.016-10.316-.605-11.383-3.832-.238-.711-.867-1-.746-1.563l4.387-8.656c.203-.316.539-.52 1.039-.578h13.773c.543.023 1.074.078 1.422.617l4.387 8.309c.25.938-.578 2.074-1.516 3.117-.992 1.109-6.762 2.719-11.363 2.586m0 0"/>
    <path d="m26.746 12.246l-.871 1.055c-1.273-.699-2.652 0-2.652 0l-.742-1.043c-1.961.836-3.336 2.781-3.336 5.05 0 3.03 2.453 5.48 5.484 5.48 3.03 0 5.48-2.453 5.48-5.48 0-2.277-1.387-4.23-3.363-5.059m0-.004"/>
  </g>
  <g transform="translate(-.00042564)">
    <path d="m18.418 34.543c0 .582-.793 1.059-1.773 1.059-.98 0-1.773-.477-1.773-1.059 0-.586.793-1.059 1.773-1.059.98 0 1.773.473 1.773 1.059m0 0" fill="#2d2d2d"/>
    <path d="m34.402 34.578c0 .586-.793 1.059-1.773 1.059-.977 0-1.77-.473-1.77-1.059 0-.582.793-1.055 1.77-1.055.98 0 1.773.473 1.773 1.055m0 0" fill="#2d2d2d"/>
    <path d="m23.629 25.449c-.078 0-.141.063-.141.141v1.258c0 .078.063.141.141.141h1.258c.078 0 .141-.063.141-.141v-1.258c0-.078-.063-.141-.141-.141m-1.254.008h1.246c.078 0 .137.063.137.137v1.246c0 .078-.059.137-.137.137h-1.246c-.074 0-.137-.059-.137-.137v-1.246c0-.074.063-.137.137-.137m0 0" fill="#fcf" fill-opacity=".051"/>
    <path d="m23.633 25.457c-.074 0-.137.063-.137.137v1.246c0 .078.063.137.137.137h1.246c.078 0 .137-.059.137-.137v-1.246c0-.074-.059-.137-.137-.137m-1.238.008h1.23c.078 0 .137.063.137.137v1.23c0 .078-.059.137-.137.137h-1.23c-.074 0-.137-.059-.137-.137v-1.23c0-.074.063-.137.137-.137m0 0" fill="#fcf" fill-opacity=".102"/>
    <path d="m23.641 25.465c-.074 0-.137.063-.137.137v1.23c0 .078.063.137.137.137h1.23c.078 0 .137-.059.137-.137v-1.23c0-.074-.059-.137-.137-.137m-1.227.004h1.227c.074 0 .133.063.133.137v1.223c0 .078-.059.137-.133.137h-1.227c-.074 0-.137-.059-.137-.137v-1.223c0-.074.063-.137.137-.137m0 0" fill="#fcf" fill-opacity=".2"/>
    <path d="m23.645 25.469c-.074 0-.137.063-.137.137v1.223c0 .078.063.137.137.137h1.227c.074 0 .133-.059.133-.137v-1.223c0-.074-.059-.137-.133-.137m-1.223.004h1.219c.074 0 .133.063.133.137v1.219c0 .074-.059.133-.133.133h-1.219c-.074 0-.137-.059-.137-.133v-1.219c0-.074.063-.137.137-.137m0 0" fill="#fcf" fill-opacity=".302"/>
    <path d="m23.648 25.473c-.074 0-.137.063-.137.137v1.219c0 .074.063.133.137.133h1.219c.074 0 .133-.059.133-.133v-1.219c0-.074-.059-.137-.133-.137m-1.215.004h1.211c.074 0 .133.063.133.137v1.211c0 .074-.059.133-.133.133h-1.211c-.074 0-.137-.059-.137-.133v-1.211c0-.074.063-.137.137-.137m0 0" fill="#fcf" fill-opacity=".4"/>
    <path d="m23.652 25.477h1.211c.074 0 .133.063.133.137v1.211c0 .074-.059.133-.133.133h-1.211c-.074 0-.137-.059-.137-.133v-1.211c0-.074.063-.137.137-.137m0 0" fill="#fcf" fill-opacity=".502"/>
    <path d="m23.656 25.48h1.203c.074 0 .133.063.133.137v1.203c0 .074-.059.133-.133.133h-1.203c-.074 0-.137-.059-.137-.133v-1.203c0-.074.063-.137.137-.137m0 0" fill="#fcf"/>
    <path d="m24.586 12c-.762 0-1.484.156-2.145.438l.742 1.043c0 0 1.379-.703 2.652 0l .871-1.055c-.652-.273-1.367-.426-2.117-.426m-.004 0" fill="#2d2d2d"/>
    <path d="m24.16 35.992c-1.805-.016-10.316-.605-11.383-3.832-.238-.711-.867-1-.746-1.563l4.387-8.656c.203-.316.539-.52 1.039-.578h13.773c.543.023 1.074.078 1.422.617l4.387 8.309c.25.938-.578 2.074-1.516 3.117-.992 1.109-6.762 2.719-11.363 2.586m0 0" fill="#b2b9c5"/>
    <path d="m24.18 35.31c-3.957-.227-12.738-2.055-12.156-4.715l4.387-8.656c.203-.316.539-.516 1.039-.578h13.773c.543.023 1.074.078 1.422.617l4.387 8.309c.914 3.402-9.102 4.934-12.852 5.02m0 0" fill="#ecf2f4"/>
    <path d="m24.801 33.867c-3.957-.227-7.914-.441-12.773-3.27l4.387-8.656c.203-.316.539-.516 1.039-.578h13.773c.543.023 1.074.078 1.422.617l4.387 8.309c-4.656 3.125-8.484 3.48-12.234 3.578m0 0" fill="#c6cfdb"/>
    <path d="m27.566 25.895c0 .82-1.316 1.484-2.941 1.484-1.629 0-2.945-.664-2.945-1.484 0-.82 1.316-1.484 2.945-1.484 1.625 0 2.941.664 2.941 1.484m0 0" fill="#b2b9c5"/>
    <path d="m22.395 22.301l.352 1.359.652.324.027.219c-.609.207-.816.469-.801.762.016.508.191.453.313.602v.898l3.211.039-.027-.883c.363-.09.41-.348.395-.641.016-.344-.191-.621-.762-.789l-.016-.23.68-.34.301-1.617-4.273-.234m-.051.531" fill="#606262"/>
    <path d="m22.617 30.699v-1.082l5.113.078.004 1c .094 1.27-1.297 2.32-2.531 2.273-1.148.047-2.613-.672-2.586-2.273m0 .004" fill="#b22d2f"/>
    <path d="m27.715 29.707c0 1.258-1.141 2.277-2.547 2.277-1.41 0-2.551-1.02-2.551-2.277 0-1.254 1.141-2.273 2.551-2.273 1.406 0 2.547 1.02 2.547 2.273m0 0" fill="#d04c51"/>
    <path d="m27.902 29.19v1.168c.031 1.203 1.57 1.605 2.172 1.605 1.238 0 2.176-.902 2.176-1.813v-.973m-4.348.004" fill="#b22d2f"/>
    <path d="m32.25 29.27c0 1.098-.973 1.984-2.172 1.984-1.203 0-2.176-.887-2.176-1.984 0-1.094.973-1.98 2.176-1.98 1.199 0 2.172.887 2.172 1.98m0 0" fill="#d04c51"/>
    <path d="m26.746 12.246l-.871 1.055c-1.273-.699-2.652 0-2.652 0l-.742-1.043c-1.961.836-3.336 2.781-3.336 5.05 0 3.03 2.453 5.48 5.484 5.48 3.03 0 5.48-2.453 5.48-5.48 0-2.277-1.387-4.23-3.363-5.059m0-.004" fill="#d04c51"/>
  </g>
</svg>
