<svg viewBox="0 0 48 48" xmlns="http://www.w3.org/2000/svg">
  <path d="m24 1c22.703 0 23 .297 23 23 0 22.703-.297 23-23 23-22.703 0-23-.297-23-23 0-22.703.297-23 23-23z" fill="#f6d8a3"/>
  <path d="m41.1 14.674l-11.48 4.824-.641-1.053-2.104 1.279v-.002l-5.447-.5v-.001l-12.328.037 12.03 2.482v.004l.031.002.033.008v-.004l2.057.189-2.676 1.627c-2.88-.926-4.954 1-6.186 2.916 1.779-.678 2.957-1.284 4.881-.852l-.172.275 1.922 3.156.307-.025c-.511 1.841-1.578 2.605-2.975 3.854 2.243-.212 4.875-1.148 5.416-4.059l2.674-1.627-.791 1.945-.002-.002-.002.012-.004.001h.002l-1.809.297 4.168-9.363-.008-.004 2.076-5.104 2.107-1.283-.639-1.051 9.561-7.98z" fill-rule="evenodd" opacity=".1"/>
  <path d="m40.1 13.675l-11.481 4.823 1.92 3.156z" fill="#fba295" fill-rule="evenodd"/>
  <path d="m13.391 25.474c2.175-.828 3.431-1.577 6.279-.412l.799-2.142c-3.351-1.688-5.722.447-7.078 2.554z" fill="#a78d9b" fill-rule="evenodd"/>
  <path d="m17.353 31.882c1.735-1.551 2.977-2.322 3.253-5.387l2.27.275c-.041 3.752-3.03 4.876-5.522 5.112z" fill="#a78d9b" fill-rule="evenodd"/>
  <path d="m-35.969 11.262h2.531v5.541h-2.531z" fill="#a8bb8d" transform="matrix(-.92632423 -.37672726 -.37672726 .92632423 0 0)"/>
  <path d="m16.282-27.48h2.531v5.541h-2.531z" fill="#a8bb8d" transform="matrix(-.09127511 .99582571 -.99582571 -.09127511 0 0)"/>
  <path d="m27.981 17.445l-8.417 5.121-1.052.64.32.526-.732 1.166 1.92 3.156 1.372-.114.32.526 1.052-.64 8.417-5.121-3.2-5.261z" fill="#dc765f"/>
  <path d="m22.837 38.459l1.812-10.318 2.357.955z" fill="#a78d9b" fill-rule="evenodd"/>
  <path d="m8.103 18.251l12.09 2.495.235-2.532z" fill="#a78d9b" fill-rule="evenodd"/>
</svg>
