<svg viewBox="0 0 48 48" xmlns="http://www.w3.org/2000/svg">
  <path d="m24 1c22.703 0 23 .297 23 23 0 22.703-.297 23-23 23-22.703 0-23-.297-23-23 0-22.703.297-23 23-23z" fill="#4a5860"/>
  <path d="m25 10a15 15 0 0 0-15 15 15 15 0 0 0  15 15 15 15 0 0 0  15-15 15 15 0 0 0-15-15m-4 4h2v1h1v3h-8.734a12 12 0 0 1 3.113-3h2.621zm4 0h1 3.783a12 12 0 0 1 4.945 4h-5.728v-1h-2v1h-2zm0 5h2v3 3h-4v-5h2zm4 0h5v3h2v-1.76a12 12 0 0 1 1 4.76h-9v-3h1zm-14.89 1h5.89v3h1v2h-8a12 12 0 0 1  .182-2h .818v-2.78a12 12 0 0 1  .11-.22m-.94 7h7.83v1h1v2h-7.893a12 12 0 0 1-.938-3zm9.83 0h6v2h2v-2h5.818a12 12 0 0 1-1.438 4h-10.38v-1h-2zm-6.93 6h5.93v2h1v-2h6v2h1v-2h3.928a12 12 0 0 1-4.168 3h-1.76v.609a12 12 0 0 1-3 .391 12 12 0 0 1-3-.395v-.605h-1.78a12 12 0 0 1-2.22-1.266v-.734h-.92a12 12 0 0 1-1-1z" opacity=".1"/>
  <path d="m24 9a15 15 0 0 0-15 15 15 15 0 0 0  15 15 15 15 0 0 0  15-15 15 15 0 0 0-15-15zm-4 4h2v1h1v3h-8.734a12 12 0 0 1 3.113-3h2.621zm4 0h1 3.783a12 12 0 0 1 4.946 4h-5.729v-1h-2v1h-2zm0 5h2v3 3h-4v-5h2zm4 0h5v3h2v-1.76a12 12 0 0 1 1 4.76h-9v-3h1zm-14.89 1h5.89v3h1v2h-8a12 12 0 0 1  .182-2h .818v-2.783a12 12 0 0 1  .11-.217zm-.94 7h7.83v1h1v2h-7.89a12 12 0 0 1-.94-3zm9.83 0h6v2h2v-2h5.818a12 12 0 0 1-1.437 4h-10.381v-1h-2zm-6.93 6h5.93v2h1v-2h6v2h1v-2h3.928a12 12 0 0 1-4.168 3h-1.76v.609a12 12 0 0 1-3 .391 12 12 0 0 1-3-.395v-.605h-1.783a12 12 0 0 1-2.217-1.266v-.734h-.92a12 12 0 0 1-1.01-1z" fill="#ff8040"/>
</svg>
