<svg viewBox="0 0 48 48" xmlns="http://www.w3.org/2000/svg" xmlns:xlink="http://www.w3.org/1999/xlink">
  <linearGradient id="a" gradientTransform="matrix(0 -1 1 0 -.0000015 47.999998)" gradientUnits="userSpaceOnUse" x1="1" x2="47">
    <stop offset="0" stop-color="#6b6b6b"/>
    <stop offset="1" stop-color="#757575"/>
  </linearGradient>
  <path d="m47 24c0 22.703-.297 23-23 23-22.703 0-23-.297-23-23 0-22.703.297-23 23-23 22.703 0 23 .297 23 23z" fill="url(#a)"/>
  <path d="m11 15v15h3v3h20v-3h3v-15m-26 0" opacity=".1" transform="translate(1 1)"/>
  <path d="m11 15v15h3v3h20v-3h3v-15m-26 0" fill="#2d2d2d"/>
  <path d="m14 18v12h20v-12m-18 2h5v3h-5m11-3h5v3h-5m0-3" fill="#f9f9f9"/>
</svg>
