<svg viewBox="0 0 48 48" xmlns="http://www.w3.org/2000/svg" xmlns:xlink="http://www.w3.org/1999/xlink">
  <linearGradient id="a" gradientTransform="matrix(0 -1 1 0 -.0000015 47.999998)" gradientUnits="userSpaceOnUse" x1="1" x2="47">
    <stop offset="0" stop-color="#eee1ab"/>
    <stop offset="1" stop-color="#f2e7bc"/>
  </linearGradient>
  <path d="m47 24c0 22.703-.297 23-23 23-22.703 0-23-.297-23-23 0-22.703.297-23 23-23 22.703 0 23 .297 23 23z" fill="url(#a)"/>
  <path d="m22.998 11l-.965 2.895c-.974.263-1.909.653-2.781 1.16l-2.738-1.369-2.83 2.83 1.367 2.734c-.503.873-.889 1.808-1.148 2.781l-2.904.969v4l2.895.965c.263.974.653 1.909 1.16 2.781l-1.369 2.738 2.83 2.83 2.734-1.367c.873.503 1.808.889 2.781 1.148l.969 2.904h4l .965-2.895c.974-.263 1.909-.653 2.781-1.16l2.738 1.369 2.83-2.83-1.367-2.734c.503-.873.889-1.808 1.148-2.781l2.904-.969v-4l-2.895-.965c-.263-.974-.653-1.909-1.16-2.781l1.369-2.738-2.83-2.83-2.734 1.367c-.873-.503-1.808-.889-2.781-1.148l-.969-2.904z" fill-opacity=".983" opacity=".1"/>
  <path d="m21.998 10l-.965 2.895c-.974.263-1.909.653-2.781 1.16l-2.738-1.369-2.83 2.83 1.367 2.734c-.503.873-.889 1.808-1.148 2.781l-2.902.969v4l2.895.965c.263.974.653 1.909 1.16 2.781l-1.369 2.738 2.83 2.83 2.734-1.367c.873.503 1.806.889 2.779 1.148l.971 2.902h4l .965-2.895c.974-.263 1.907-.653 2.779-1.16l2.738 1.369 2.83-2.83-1.367-2.734c.503-.873.889-1.806 1.148-2.779l2.904-.971v-4l-2.895-.965c-.263-.974-.653-1.907-1.16-2.779l1.369-2.738-2.83-2.83-2.734 1.367c-.873-.503-1.808-.889-2.781-1.148l-.969-2.904z" fill="#9c967c" fill-opacity=".983"/>
  <circle cx="24.998" cy="25" opacity=".1" r="4"/>
  <circle cx="23.998" cy="24" fill="#ccae74" r="4"/>
</svg>
