<svg viewBox="0 0 48 48" xmlns="http://www.w3.org/2000/svg" xmlns:xlink="http://www.w3.org/1999/xlink">
  <linearGradient id="a" gradientUnits="userSpaceOnUse" x1="24" x2="24.817" y1="1" y2="47.15">
    <stop offset="0" stop-color="#e42020"/>
    <stop offset="1" stop-color="#d61a1a"/>
  </linearGradient>
  <path d="m24 1c22.703 0 23 .297 23 23 0 22.703-.297 23-23 23-22.703 0-23-.297-23-23 0-22.703.297-23 23-23z" fill="url(#a)"/>
  <path d="m10.613 7.747c-4.207 3.513-7.104 8.595-7.554 14.408-.844 10.915 7.394 20.963 18.413 21.792 10.306.775 19.796-7.01 20.554-17.421.706-9.697-6.628-18.628-16.43-19.316-9.09-.638-17.442 6.268-18.06 15.461-.569 8.478 5.866 16.252 14.451 16.798 7.869.501 15.09-5.483 15.56-13.46.432-7.259-5.099-13.919-12.468-14.322-6.65-.364-12.735 4.739-13.07 11.5-.296 6.04 4.337 11.546 10.49 11.804 5.43.227 10.383-3.952 10.566-9.498.159-4.82-3.568-9.221-8.507-9.328-4.21-.092-8.04 3.206-8.07 7.539-.024 3.599 2.82 6.887 6.547 6.834 2.988-.042 5.719-2.456 5.577-5.579-.108-2.377-2.09-4.565-4.611-4.32l-.042-.005c-.868.094-1.678.517-2.257 1.156-.588.648-.937 1.554-.746 2.515.115.58.433 1.118.922 1.486.488.367 1.217.547 1.87.228.39-.191.584-.511.696-.902.056-.196.073-.438-.052-.687-.125-.249-.422-.408-.697-.439l-.084.949c.061.007-.026-.011-.056-.07-.03-.059-.027-.057-.042-.005-.03.105-.216.316-.182.299-.312.152-.598.072-.879-.14-.281-.211-.498-.575-.561-.892-.128-.644.087-1.246.508-1.711.421-.464 1.038-.776 1.668-.838 1.919-.186 3.497 1.548 3.582 3.419.115 2.539-2.135 4.543-4.615 4.578l-.084-.009c-3.112-.008-5.548-2.789-5.528-5.848.026-3.766 3.399-6.684 7.095-6.603 4.378.095 7.737 4.03 7.595 8.333-.165 4.989-4.658 8.792-9.571 8.586-5.599-.234-9.848-5.287-9.578-10.809.303-6.195 5.914-10.904 12.03-10.593l.042.005c6.819.373 11.958 6.588 11.556 13.327l-.005.042c-.466 7.399-7.194 12.963-14.518 12.51l-.023.019c-8.04-.512-14.09-7.87-13.558-15.826.581-8.648 8.475-15.13 17.04-14.531 9.258.65 16.214 9.09 15.546 18.26-.719 9.867-9.738 17.291-19.522 16.556-10.476-.788-18.351-10.367-17.547-20.759.857-11.09 10.996-19.41 21.997-18.539 11.12.88 20.13 11.755 19.993 22.84v.008c.139-11.587-8.274-22.876-19.909-23.797l-.126-.014c-5.716-.417-11.175 1.523-15.35 5.01z" fill="#800000" opacity=".15"/>
  <g opacity=".1" transform="translate(1 1.000001)">
    <g transform="matrix(1 0 0 1.1666667 32.5 -12.479167)">
      <path d="m-14 26.982h12v .857h-12z"/>
      <path d="m-13 20.12h10l-1 6.875h-8z"/>
    </g>
    <path d="m17 20h15v14h-15z"/>
    <path d="m18.364 34h12.273l1.364 3h-15z"/>
  </g>
  <g fill="#502d16" transform="matrix(1 0 0 1.1666667 32.5 -12.479167)">
    <path d="m-14 26.982h12v .857h-12z"/>
    <path d="m-13 20.12h10l-1 6.875h-8z"/>
  </g>
  <path d="m20.335 18h8.302l-.137 1h-8z" fill="#c87137"/>
  <path d="m23 19v-2h3v2h-1v-1l-1 .027v.973" fill="#fc0"/>
  <path d="m17 20h15v14h-15z" fill="#f9f9f9"/>
  <path d="m30.846 20h1.154v14h-1.154z" opacity=".1"/>
  <path d="m18.875 29.31h1.875v4.687h-1.875z" fill="#afdde9"/>
  <path d="m28.25 29.31h1.875v4.687h-1.875z" fill="#afdde9"/>
  <path d="m17 31.656v.469h15v-.469z" fill="#4d4d4d"/>
  <ellipse cx="-17.5" cy="22" fill="#333" rx="1.5" ry="4" transform="matrix(.62499994 0 0 .23437499 30.75 24.156248)"/>
  <ellipse cx="-17.5" cy="22" fill="#333" rx="1.5" ry="4" transform="matrix(.62499994 0 0 .23437499 40.124999 24.156248)"/>
  <path d="m19.561 29.379c.193.236.649.228.43.408-.22.18-.554.135-.747-.1-.193-.236-.171-.572.049-.753.22-.18.076.209.269.445z" fill="#f9f9f9"/>
  <path d="m28.936 29.379c.193.236.649.228.43.408-.22.18-.554.135-.747-.1-.193-.236-.171-.572.049-.753.22-.18.076.209.269.445z" fill="#f9f9f9"/>
  <path d="m18.364 34h12.273l1.364 3h-15z" fill="#502d16"/>
  <path d="m21.773 34h-3.409l6.136 3z" fill="#c87137"/>
  <path d="m27.23 34h3.409l-6.136 3z" fill="#c87137"/>
  <path d="m24.5 37l0 0 2.727-3h-5.455z" fill="#e9c6af"/>
  <path d="m23.14 34c1.364 2.25 1.364 2.25 2.727 0z" fill="#f00"/>
  <path d="m21.09 34.75l-1.364 1.5h3.409z" fill="#c87137"/>
  <path d="m27.909 34.75l1.364 1.5h-3.409z" fill="#c87137"/>
</svg>
