<svg viewBox="0 0 48 48" xmlns="http://www.w3.org/2000/svg" xmlns:xlink="http://www.w3.org/1999/xlink">
  <linearGradient id="a" gradientUnits="userSpaceOnUse" x1="1" x2="47">
    <stop offset="0" stop-color="#dc9c89"/>
    <stop offset="1" stop-color="#e1aa99"/>
  </linearGradient>
  <path d="m24 1c22.703 0 23 .297 23 23 0 22.703-.297 23-23 23-22.703 0-23-.297-23-23 0-22.703.297-23 23-23z" fill="url(#a)" transform="matrix(0 -1 1 0 0 48)"/>
  <path d="m24.906 11.344c-.191-.006-.375.031-.375.031l-.969.906-1.313-.563-4 15.25 14.938.938-3.625-16.03-.281 1.219-.25-.5-.875-.656c0 0-.41.609-.563.813-.153.203-.406-.406-.406-.406l-.625-.656-.688.813c0 0-.43-.715-.531-.969-.051-.127-.247-.181-.438-.188zm12 12.13l-.531.375.438.969-1.531 2.313 1.469.188.875-.344c0 0-.148-1.635-.25-1.813-.102-.178.779-.043.906-.094.127-.051.156-1.121.156-1.375 0-.254-.563-.219-.563-.219l.188.875-.438.406.125-.5-.594-.094-.313.313zm-22.531.688c0 0-.688.265-.688.469 0 .203-.719 1.281-.719 1.281 0 0 .07 1.199-.031 1.25-.102.051-.688.125-.688.125l.125-1.969-.844-.063-.75 2.469 1.594.438 2.25-1.031-.406-1.625.156-1.344zm25.75 1.094c-.114-.102-.5 1-.5 1 0 0-.145-.558-.094-.813.051-.254-.438.529-.438.656 0 .127.375.875.375.875l-.844.375c0 0 .828.892 1.031.969.203.076.586-.396.688-.625.102-.229.02-.978-.031-1.156-.051-.178-.131-.597-.156-1.156-.003-.07-.015-.11-.031-.125z" opacity=".1"/>
  <path d="m37.627 26.339l.839-.381c0 0-.381-.737-.381-.864 0-.127.483-.915.432-.661-.051.254.102.814.102.814 0 0 .508-1.424.534-.864.025.559.102.966.153 1.144.051.178.153.941.051 1.169-.102.229-.483.686-.686.61-.203-.076-1.042-.966-1.042-.966z" fill="#6e7ea2"/>
  <path d="m34.3 26.14l1.525-2.314-.458-.966.534-.381-.051.992.305-.305.585.076-.102.508.432-.407-.178-.864c0 0 .534-.051.534.203 0 .254-.025 1.322-.153 1.373-.127.051-.992-.076-.89.102.102.178.229 1.831.229 1.831l-.864.331z" fill="#6e7ea2"/>
  <path d="m9.788 26.72l.737-2.466.864.051-.153 1.983c0 0 .61-.076.712-.127.102-.051.025-1.246.025-1.246 0 0 .712-1.093.712-1.297 0-.203.686-.458.686-.458l-.153 1.347.407 1.602-2.237 1.042z" fill="#6e7ea2"/>
  <path d="m17.237 25.983l4.02-15.254 1.322.559.966-.915c0 0 .712-.102.814.153.102.254.508.966.508.966l.712-.814.61.661c0 0 .254.61.407.407.153-.203.559-.814.559-.814l.864.661.254.508.305-1.22 3.61 16.02z" fill="#6e7ea2"/>
  <path d="m23.19 23.5c-12.359 1.016-17.812 5.32-21.06 7.625 2.999 9.216 11.658 15.875 21.875 15.875 5.899 0 11.273-2.225 15.344-5.875.095-.089.187-.162.281-.25 2.844-2.635 5.02-5.977 6.25-9.75-5.723-2.938-7.511-6.731-22.688-7.625z" fill="#7b83a8"/>
  <path d="m24.406 28.28c-11.545.949-17.05 4.742-20.375 7.125 3.962 6.93 11.414 11.594 19.969 11.594 8.967 0 16.706-5.139 20.5-12.625-4.084-2.6-7.432-5.348-20.09-6.094z" fill="#6a708d"/>
</svg>
