<svg viewBox="0 0 48 48" xmlns="http://www.w3.org/2000/svg" xmlns:xlink="http://www.w3.org/1999/xlink">
  <linearGradient id="a" gradientTransform="matrix(0 -1 1 0 -.0000015 47.999998)" gradientUnits="userSpaceOnUse" x1="1" x2="47">
    <stop offset="0" stop-color="#771705"/>
    <stop offset="1" stop-color="#8a1b06"/>
  </linearGradient>
  <path d="m47 24c0 22.703-.297 23-23 23-22.703 0-23-.297-23-23 0-22.703.297-23 23-23 22.703 0 23 .297 23 23z" fill="url(#a)"/>
  <path d="m25 9c0 0-2.199 4.261-5.58 8.611 0 0-2.158-1.219-3.59-1.219-1.152 0-1.168.673-1.168.93 0 .498.166 2.052 1.813 3.945 0 0-1.105 1.407-3.475 3.732 0 0 1.696 1.655 2.066 2.168 0 0-.396.24-.371.529.025.289 1.9 1.18 1.9 1.18l.617.771c0 0-.173.914.789.986 0 0 4.26 5.169 6.998 10.365 0 0 2.975-5.34 6.727-10.1 0 0 1.309.145 1.926.145.617 0 2.297-.191 2.297-.793 0-.601-1.68-1.926-1.68-1.926 0 0 .594-.241.594-.578 0-.265-.125-.336-.125-.336 0 0 1.423-1.654 2.262-2.412 0 0-7.358-7.249-12-16zm-.002 2h .002c.477 1.042 2.188 3.693 2.188 3.693l-1.795 5.82-2.039-.111-2.635-2.68c2.189-2.71 4.279-6.723 4.279-6.723zm2.453 4.189l3.03 4.219.623 3.287-5.232-.227zm-11.336 1.787c2.584 0 10.578 6.631 10.578 6.631 0 0 1.163-.377 1.311-.377.181-.076.441-.19.545-.236.025-.011.058-.001.072.021l.061.096c.014.023.008.048-.018.059l-.604.244c-.074.064-.939.539-.939.539l.855.648c0 0 3.555-1.531 4.115-1.531.189 0 .361.064.361.064 0 0-1.562-3.127-1.422-3.199.767.94 1.45 2.102 1.904 3.184h.408c1.078 0 .902.48.902.48 0 0 .434-.064.434.068 0 .285-.771.379-.771.379l-.551.607c0 0 .199-.164.199 1.586 0 1.401-.072 1.643-.104 1.68l.854-.248c.067-.02.089.083.063.096l-1.207.572c0 0 2.123 1.283 2.123 1.828 0 .369-1.334.385-1.334.385-4.065 0-7.852-1.67-8.346-1.67-.494 0-3.783.561-3.783.561 0 0 .131.081.131.242 0 .16-.247.271-.559.271-.313 0-1.285-.24-1.285-.24-.198.08-1.466.273-1.779.273-.313 0-.428-.163-.428-.451 0-.289.1-.687.1-.688 0 0-.229-.015-.344-.031-.321-.104-2.033-.924-2.033-1.197 0-.136.09-.311.805-.311.716 0 1.828.271 1.828.271 0 0 .237-.994.797-.994.56 0 .584 1.209.773 1.354.189.144 1.818-.897 2.797-1.242-.658-.433-7.24-6.343-7.24-9.01 0-.064-.076-.715.73-.715zm.315.273c-.329 0-.566.184-.582.393-.016.208.297.738.297.738-.155-.994.641-.914.641-.914 1.728 0 7.04 4.475 7.04 4.475l.246-.096c-5.05-4.266-7.314-4.596-7.643-4.596zm-.729.678c-.01-.025-.019-.022-.016.004.039.429.724 1.904 1.529 2.936l.643.127c0 0-.233-.383-.266-.592 0 0-1.306-.961-1.891-2.475zm1.242.941v.031c.016.922.624.962.773 1.277.106.535.451 1.056.813 1.232.362.176 1.039.127 1.039.127zm.418 2.223c0 0 .625.881.789.994.165.112.807.063.807.063l-.951-.977c-.28.016-.645-.08-.645-.08zm1.424.631c0 0 1.357 1.251 1.736 1.523 0 0 .808.136 1.17.031 0 0-1.571-1.13-1.9-1.555zm5.521.365l-.113.068c-.023.014-.026.04-.006.059l.131.115c.02.018.058.026.082.014l.146-.074c.024-.012.025-.032.004-.049l-.164-.129c-.021-.017-.056-.018-.08-.004zm-5.506.217c-.191-.002-.393.02-.434.068l1.398 1.457c0 0 .657.26 1.365.18l-1.957-1.701zm-1.736.053l3.936 3.641-4.873.576-1.578-1.57c.774-.625 2.516-2.646 2.516-2.646zm7.74.139l-.127.051c-.025.01-.029.036-.01.053l1.459 1.281c.02.018.032.055.031.082-.003.09.008.283.146.4.139.117.34.144.432.15.027.002.066.015.086.033l.814.707c.02.018.055.022.08.01l.234-.113c.024-.012.026-.034.006-.053l-.766-.684c-.02-.018-.037-.051-.035-.078.052-.053-.038-.098-.039-.102-.117.03-.418.097-.537-.008-.135-.121-.188-.277-.188-.445 0-.027-.016-.063-.037-.08l-1.473-1.195c-.02-.016-.054-.019-.078-.01zm7.291.66c-.121 0-.605.195-.756.256-.025.01-.028.035-.01.053.041.04.104.112.104.176 0 .225-.493.353-.674.561-.181.208-1.096 1.089-1.096 1.803 0 .19.023.249.066.32.014.023.036.024.055.004.257-.276 1.433-.818 1.656-.975.224-.157.763-.708 1.076-.883.024-.013.036-.043.027-.068-.052-.151-.207-.652-.133-1.039.005-.026-.005-.06-.027-.076-.061-.047-.186-.131-.289-.131zm1.363.074l.002.002c-.254-.007-.514.031-.514.031 0 0-.031.27-.393.158 0 0-.124.595.246.916 0 0 1.125-.506 1.15-.867.012-.18-.237-.233-.492-.24zm-11.563.184l-1.135.057c.693.598 3.316 2.447 3.316 2.447-.181-.706.418-1.26.418-1.26-1.456-.257-2.6-1.244-2.6-1.244zm9.06.057l-.311.131c-.026.011-.029.031-.008.049l.219.189c.021.018.06.023.086.014l.354-.121c.026-.009.029-.028.008-.045l-.262-.203c-.022-.017-.06-.024-.086-.014zm-.574.227l-.334.139c-.028.012-.032.034-.01.053.079.067.236.201.236.201.023.019.062.029.09.02l.379-.131c.028-.01.032-.031.01-.049l-.279-.219c-.023-.018-.065-.025-.092-.014zm-.623.264l-.354.143c-.029.012-.033.036-.01.057.083.071.167.142.25.213.024.02.068.028.098.018l.398-.135c.03-.01.034-.034.01-.053l-.297-.23c-.025-.019-.067-.023-.096-.012zm-8.43.158c-.227.097-.953.086-1.15.082-.027-.001-.033.013-.012.029l.355.275 1.021-.193zm9.207.063c-.182.079-.862.371-1.033.371-.143 0-.284-.078-.35-.121-.023-.015-.061-.019-.086-.01l-.729.281c-.025.01-.031.035-.014.055.102.116.423.473.564.551.024.013.061.003.082-.016.606-.523 1.058-.382 1.584-1.092.016-.022.007-.031-.018-.02zm4.223.1l.689.723-1.283 1.281-.279-1.412zm-13.18.076l-.867.293c-.026.009-.033.03-.014.049.012.012.88.913 1.121 1.021.241.108 1.337.419 1.723.217.024-.013.044-.048.029-.07-.163-.245-1.641-1.31-1.904-1.498-.022-.016-.062-.02-.088-.012zm3.717.311c-.896 0-.825 1.016-.797 1.25.003.026.013.027.023.002.094-.256.601-1.473 1.439-.631.019.019.032.013.029-.014-.014-.151-.104-.607-.695-.607zm4.619.238c-.007-.002-.015.001-.018.002-.241.124-.535.374-.744.541-.021.017-.011.056.01.074l.289.252c.02.018.046.013.055-.012.046-.125.195-.484.41-.834.009-.015.005-.022-.002-.023zm2.838.449c-.313.609-1.813 1.486-1.813 1.486.444.337 1.813 1.223 1.813 1.223l.5-.127c-.403-.545-.5-2.582-.5-2.582zm-4.484.035c-.105.015-.342.054-.303.125.08.229 1.197.613 1.271 1.232 0 0 .086-.151.086-.295 0-.141-.333-.622-.967-1.043-.023-.015-.061-.023-.088-.02zm-6.139.596c-.02-.008-.032 0-.014.018l.232.215c.019.018.053.028.078.018l.221-.09c.025-.01.023-.02-.004-.023-.148-.017-.418-.1-.514-.137zm1.451.125c0 0-.723.207-1.02.271 0 0 .807.609.906.754 0 0 .129-.367.113-1.025zm2.494.031c-1.093-.071-2.179.891-2.146.979.033.088-.019.08.359.08.379 0 1.021-.238 1.293-.238.272 0 1.319.697 1.5.729.181.032.328-.506.328-.506 0 0-.132.305-.322.305-.189 0-1.046-.64-1.096-.744-.049-.104.084-.604.084-.604zm-7.08.633c-.263 0-.503.606-.594.775-.013.024-.004.056.02.068.015.008.045.027.07.035.026.009.069.002.09-.014.128-.095.449-.443.635-.498.026-.008.044-.028.037-.053-.029-.101-.123-.314-.258-.314zm3.662.125c-.368.158-1.096.508-1.096.508-.131.107-.561.486-.676.98-.006.026.011.04.037.031.743-.305 1.88-.608 2.539-.52.027.004.041-.012.029-.037-.07-.155-.375-.724-.744-.957zm8.102.117l-.385.168 1.957 1.307c0 0 .048.425.369.441.321.016.463-.096.463-.096l.779.271-.73-.465c0 0-.107.117-.379.117-.272 0-.287-.453-.287-.453zm-11.525.219l-.533.42c-.024.019-.023.045.006.057l.77.277c.029.012.04.003.025-.023-.134-.114-.21-.442-.229-.709zm1.973.316c-.478.218-1.023.513-1.367.578-.505.096-.84.674-.84.674.181.064 1.465-.225 1.465-.225.082-.321.742-1.027.742-1.027zm6.236 1.211c-.156-.016-.987.102-.996.15-.008.048.517.275.781.307.263.032.848-.119.848-.119 0 0-.477-.322-.633-.338zm1.096.508c-.101-.005-.633.102-.637.133-.004.031.345.159.516.172.171.012.543-.107.543-.107 0 0-.32-.191-.422-.197zm.83.262l-.408.162c0 0 1.757.395 2.135.395zm-4.871.088l1.762.035c.477.369 3.174 2.42 3.174 2.42-2.057 2.71-4.441 6.924-4.441 6.924l-2.307-3.924zm3.588.578l2.434.387c-.23.225-.902 1.201-.902 1.201zm-4.773.578l-.807 4.01c-.708-1.123-2.768-3.881-2.768-3.881z" opacity=".1"/>
  <path d="m24 8c0 0-2.199 4.261-5.58 8.611 0 0-2.158-1.219-3.59-1.219-1.152 0-1.168.673-1.168.93 0 .498.166 2.052 1.813 3.945 0 0-1.105 1.407-3.475 3.732 0 0 1.696 1.655 2.066 2.168 0 0-.396.24-.371.529.025.289 1.9 1.18 1.9 1.18l.617.771c0 0-.173.914.789.986 0 0 4.26 5.169 6.998 10.365 0 0 2.975-5.34 6.727-10.1 0 0 1.309.145 1.926.145.617 0 2.297-.191 2.297-.793 0-.601-1.68-1.926-1.68-1.926 0 0 .594-.241.594-.578 0-.265-.125-.336-.125-.336 0 0 1.423-1.654 2.262-2.412 0 0-7.358-7.249-12-16m-.002 2h .002c.477 1.042 2.188 3.693 2.188 3.693l-1.795 5.82-2.039-.111-2.635-2.68c2.189-2.71 4.279-6.723 4.279-6.723m2.453 4.189l3.03 4.219.623 3.287-5.232-.227m-9.758-5.492c2.584 0 10.578 6.631 10.578 6.631 0 0 1.163-.377 1.311-.377.181-.076.441-.19.545-.236.025-.011.058-.001.072.021l.061.096c.014.023.008.048-.018.059l-.604.244c-.074.064-.939.539-.939.539l.855.648c0 0 3.555-1.531 4.115-1.531.189 0 .361.064.361.064 0 0-1.562-3.127-1.422-3.199.767.94 1.45 2.102 1.904 3.184h.408c1.078 0 .902.48.902.48 0 0 .434-.064.434.068 0 .285-.771.379-.771.379l-.551.607c0 0 .199-.164.199 1.586 0 1.401-.072 1.643-.104 1.68l.854-.248c.067-.02.089.083.063.096l-1.207.572c0 0 2.123 1.283 2.123 1.828 0 .369-1.334.385-1.334.385-4.065 0-7.852-1.67-8.346-1.67-.494 0-3.783.561-3.783.561 0 0 .131.081.131.242 0 .16-.247.271-.559.271-.313 0-1.285-.24-1.285-.24-.198.08-1.466.273-1.779.273-.313 0-.428-.163-.428-.451 0-.289.1-.687.1-.688 0 0-.229-.015-.344-.031-.321-.104-2.033-.924-2.033-1.197 0-.136.09-.311.805-.311.716 0 1.828.271 1.828.271 0 0 .237-.994.797-.994.56 0 .584 1.209.773 1.354.189.144 1.818-.897 2.797-1.242-.658-.433-7.24-6.343-7.24-9.01 0-.064-.076-.715.73-.715zm.315.273c-.329 0-.566.184-.582.393-.016.208.297.738.297.738-.155-.994.641-.914.641-.914 1.728 0 7.04 4.475 7.04 4.475l.246-.096c-5.05-4.266-7.314-4.596-7.643-4.596m-.729.678c-.01-.025-.019-.022-.016.004.039.429.724 1.904 1.529 2.936l.643.127c0 0-.233-.383-.266-.592 0 0-1.306-.961-1.891-2.475zm1.242.941v.031c.016.922.624.962.773 1.277.106.535.451 1.056.813 1.232.362.176 1.039.127 1.039.127zm.418 2.223c0 0 .625.881.789.994.165.112.807.063.807.063l-.951-.977c-.28.016-.645-.08-.645-.08zm1.424.631c0 0 1.357 1.251 1.736 1.523 0 0 .808.136 1.17.031 0 0-1.571-1.13-1.9-1.555zm5.521.365l-.113.068c-.023.014-.026.04-.006.059l.131.115c.02.018.058.026.082.014l.146-.074c.024-.012.025-.032.004-.049l-.164-.129c-.021-.017-.056-.018-.08-.004zm-5.506.217c-.191-.002-.393.02-.434.068l1.398 1.457c0 0 .657.26 1.365.18l-1.957-1.701m-2.109.049l3.936 3.641-4.873.576-1.578-1.57c.774-.625 2.516-2.646 2.516-2.646zm7.74.139l-.127.051c-.025.01-.029.036-.01.053l1.459 1.281c.02.018.032.055.031.082-.003.09.008.283.146.4.139.117.34.144.432.15.027.002.066.015.086.033l.814.707c.02.018.055.022.08.01l.234-.113c.024-.012.026-.034.006-.053l-.766-.684c-.02-.018-.037-.051-.035-.078.052-.053-.038-.098-.039-.102-.117.03-.418.097-.537-.008-.135-.121-.188-.277-.188-.445 0-.027-.016-.063-.037-.08l-1.473-1.195c-.02-.016-.054-.019-.078-.01zm7.291.66c-.121 0-.605.195-.756.256-.025.01-.028.035-.01.053.041.04.104.112.104.176 0 .225-.493.353-.674.561-.181.208-1.096 1.089-1.096 1.803 0 .19.023.249.066.32.014.023.036.024.055.004.257-.276 1.433-.818 1.656-.975.224-.157.763-.708 1.076-.883.024-.013.036-.043.027-.068-.052-.151-.207-.652-.133-1.039.005-.026-.005-.06-.027-.076-.061-.047-.186-.131-.289-.131zm1.363.074l.002.002c-.254-.007-.514.031-.514.031 0 0-.031.27-.393.158 0 0-.124.595.246.916 0 0 1.125-.506 1.15-.867.012-.18-.237-.233-.492-.24zm-11.563.184l-1.135.057c.693.598 3.316 2.447 3.316 2.447-.181-.706.418-1.26.418-1.26-1.456-.257-2.6-1.244-2.6-1.244zm9.06.057l-.311.131c-.026.011-.029.031-.008.049l.219.189c.021.018.06.023.086.014l.354-.121c.026-.009.029-.028.008-.045l-.262-.203c-.022-.017-.06-.024-.086-.014zm-.574.227l-.334.139c-.028.012-.032.034-.01.053.079.067.236.201.236.201.023.019.062.029.09.02l.379-.131c.028-.01.032-.031.01-.049l-.279-.219c-.023-.018-.065-.025-.092-.014zm-.623.264l-.354.143c-.029.012-.033.036-.01.057.083.071.167.142.25.213.024.02.068.028.098.018l.398-.135c.03-.01.034-.034.01-.053l-.297-.23c-.025-.019-.067-.023-.096-.012zm-8.43.158c-.227.097-.953.086-1.15.082-.027-.001-.033.013-.012.029l.355.275 1.021-.193zm9.207.063c-.182.079-.862.371-1.033.371-.143 0-.284-.078-.35-.121-.023-.015-.061-.019-.086-.01l-.729.281c-.025.01-.031.035-.014.055.102.116.423.473.564.551.024.013.061.003.082-.016.606-.523 1.058-.382 1.584-1.092.016-.022.007-.031-.018-.02zm4.223.1l.689.723-1.283 1.281-.279-1.412zm-13.18.076l-.867.293c-.026.009-.033.03-.014.049.012.012.88.913 1.121 1.021.241.108 1.337.419 1.723.217.024-.013.044-.048.029-.07-.163-.245-1.641-1.31-1.904-1.498-.022-.016-.062-.02-.088-.012zm3.717.311c-.896 0-.825 1.016-.797 1.25.003.026.013.027.023.002.094-.256.601-1.473 1.439-.631.019.019.032.013.029-.014-.014-.151-.104-.607-.695-.607zm4.619.238c-.007-.002-.015.001-.018.002-.241.124-.535.374-.744.541-.021.017-.011.056.01.074l.289.252c.02.018.046.013.055-.012.046-.125.195-.484.41-.834.009-.015.005-.022-.002-.023zm2.838.449c-.313.609-1.813 1.486-1.813 1.486.444.337 1.813 1.223 1.813 1.223l.5-.127c-.403-.545-.5-2.582-.5-2.582zm-4.484.035c-.105.015-.342.054-.303.125.08.229 1.197.613 1.271 1.232 0 0 .086-.151.086-.295 0-.141-.333-.622-.967-1.043-.023-.015-.061-.023-.088-.02zm-6.139.596c-.02-.008-.032 0-.014.018l.232.215c.019.018.053.028.078.018l.221-.09c.025-.01.023-.02-.004-.023-.148-.017-.418-.1-.514-.137zm1.451.125c0 0-.723.207-1.02.271 0 0 .807.609.906.754 0 0 .129-.367.113-1.025zm2.494.031c-1.093-.071-2.179.891-2.146.979.033.088-.019.08.359.08.379 0 1.021-.238 1.293-.238.272 0 1.319.697 1.5.729.181.032.328-.506.328-.506 0 0-.132.305-.322.305-.189 0-1.046-.64-1.096-.744-.049-.104.084-.604.084-.604zm-7.08.633c-.263 0-.503.606-.594.775-.013.024-.004.056.02.068.015.008.045.027.07.035.026.009.069.002.09-.014.128-.095.449-.443.635-.498.026-.008.044-.028.037-.053-.029-.101-.123-.314-.258-.314m3.662.125c-.368.158-1.096.508-1.096.508-.131.107-.561.486-.676.98-.006.026.011.04.037.031.743-.305 1.88-.608 2.539-.52.027.004.041-.012.029-.037-.07-.155-.375-.724-.744-.957zm8.102.117l-.385.168 1.957 1.307c0 0 .048.425.369.441.321.016.463-.096.463-.096l.779.271-.73-.465c0 0-.107.117-.379.117-.272 0-.287-.453-.287-.453zm-11.525.219l-.533.42c-.024.019-.023.045.006.057l.77.277c.029.012.04.003.025-.023-.134-.114-.21-.442-.229-.709zm1.973.316c-.478.218-1.023.513-1.367.578-.505.096-.84.674-.84.674.181.064 1.465-.225 1.465-.225.082-.321.742-1.027.742-1.027zm6.236 1.211c-.156-.016-.987.102-.996.15-.008.048.517.275.781.307.263.032.848-.119.848-.119 0 0-.477-.322-.633-.338zm1.096.508c-.101-.005-.633.102-.637.133-.004.031.345.159.516.172.171.012.543-.107.543-.107 0 0-.32-.191-.422-.197zm.83.262l-.408.162c0 0 1.757.395 2.135.395zm-4.871.088l1.762.035c.477.369 3.174 2.42 3.174 2.42-2.057 2.71-4.441 6.924-4.441 6.924l-2.307-3.924zm3.588.578l2.434.387c-.23.225-.902 1.201-.902 1.201zm-4.773.578l-.807 4.01c-.708-1.123-2.768-3.881-2.768-3.881z" fill="#f4edec"/>
</svg>
