<svg xmlns="http://www.w3.org/2000/svg" viewBox="0 0 48 48">
 <defs>
  <linearGradient id="linearGradient3764" x1="1" x2="47" gradientUnits="userSpaceOnUse" gradientTransform="matrix(0,-1,1,0,-1.5e-6,47.999998)">
   <stop style="stop-color:#333;stop-opacity:1"/>
   <stop offset="1" style="stop-color:#3d3d3d;stop-opacity:1"/>
  </linearGradient>
 </defs>
 <g>
  
  
  
 </g>
 <g>
  <path d="m 47,24 C 47,46.703 46.703,47 24,47 1.297,47 1,46.703 1,24 1,1.297 1.297,1 24,1 46.703,1 47,1.297 47,24 z" style="fill:url(#linearGradient3764);fill-opacity:1"/>
 </g>
 <g>
  <g>
   <g transform="translate(1,1)">
    <g style="opacity:0.1">
     <!-- color: #3d3d3d -->
    </g>
   </g>
  </g>
 </g>
 <g transform="translate(-1,1)">
  <g>
   <!-- color: #3d3d3d -->
   <g>
    <path d="m 32 12 a 6 6 0 0 0 -6 6 6 6 0 0 0 1 3.309 l 0 6.824 a 4 4 0 0 0 -1.229 0.549 L 19.988 25.768 A 4 4 0 0 0 16 22 a 4 4 0 0 0 -4 4 4 4 0 0 0 4 4 4 4 0 0 0 2.229 -0.682 l 5.783 2.914 A 4 4 0 0 0 28 36 4 4 0 0 0 32 32 4 4 0 0 0 30.896 29.25 l 3.727 -5.859 A 6 6 0 0 0 38 18 6 6 0 0 0 32 12 m 0 2 a 4 4 0 0 1 4 4 4 4 0 0 1 -4 4 4 4 0 0 1 -4 -4 4 4 0 0 1 4 -4 z m 0 2 a 2 2 0 0 0 -2 2 2 2 0 0 0 2 2 2 2 0 0 0 2 -2 2 2 0 0 0 -2 -2 z m -16 7 a 3 3 0 0 1 2.895 2.217 l -1.996 -1.01 c -0.981 -0.494 -2.177 -0.105 -2.68 0.871 -0.503 0.976 -0.117 2.158 0.863 2.652 l 2.061 1.037 A 3 3 0 0 1 16 29 3 3 0 0 1 13 26 3 3 0 0 1 16 23 m 12 6 a 3 3 0 0 1 3 3 3 3 0 0 1 -3 3 3 3 0 0 1 -2.895 -2.217 l 1.996 1.01 c 0.981 0.494 2.175 0.105 2.678 -0.871 0.503 -0.976 0.119 -2.158 -0.861 -2.652 L 26.857 29.23 A 3 3 0 0 1 28 29" style="fill:#000;opacity:0.1;fill-opacity:1;stroke:none;fill-rule:nonzero"/>
   </g>
  </g>
 </g>
 <g>
  
 </g>
 <g transform="translate(-1,1)">
  <path d="m 26 18 0 9.625 3.684 0.957 4.287 -6.742 -3.625 0 l -4.346 -3.84" style="fill:#f9f9f9;fill-opacity:1;stroke:none;fill-rule:nonzero"/>
  <path d="m 31 11 a 6 6 0 0 0 -6 6 6 6 0 0 0 6 6 6 6 0 0 0 6 -6 6 6 0 0 0 -6 -6 z m 0 2 a 4 4 0 0 1 4 4 4 4 0 0 1 -4 4 4 4 0 0 1 -4 -4 4 4 0 0 1 4 -4 z m 0 2 a 2 2 0 0 0 -2 2 2 2 0 0 0 2 2 2 2 0 0 0 2 -2 2 2 0 0 0 -2 -2 z" style="fill:#f9f9f9;opacity:1;fill-opacity:1;stroke:none"/>
  <path d="m 15 21 a 4 4 0 0 0 -4 4 4 4 0 0 0 4 4 4 4 0 0 0 4 -4 4 4 0 0 0 -4 -4 z m 0 1 a 3 3 0 0 1 3 3 3 3 0 0 1 -3 3 3 3 0 0 1 -3 -3 3 3 0 0 1 3 -3 z" style="fill:#f9f9f9;opacity:1;fill-opacity:1;stroke:none"/>
  <rect transform="matrix(0.89310558,0.44984711,-0.45815213,0.8888738,0,0)" y="13.579" x="22.784" height="3.964" width="17.423" rx="1.982" style="fill:#f9f9f9;opacity:1;fill-opacity:1;stroke:none"/>
  <path d="m 27 27 a 4 4 0 0 0 -4 4 4 4 0 0 0 4 4 4 4 0 0 0 4 -4 4 4 0 0 0 -4 -4 z m 0 1 a 3 3 0 0 1 3 3 3 3 0 0 1 -3 3 3 3 0 0 1 -3 -3 3 3 0 0 1 3 -3 z" style="fill:#f9f9f9;opacity:1;fill-opacity:1;stroke:none"/>
 </g>
</svg>
