<svg xmlns="http://www.w3.org/2000/svg" xmlns:xlink="http://www.w3.org/1999/xlink" viewBox="0 0 48 48">
 <defs>
  <linearGradient id="linearGradient3764" x1="1" x2="47" gradientUnits="userSpaceOnUse" gradientTransform="matrix(0,-1,1,0,-1.5e-6,47.999998)">
   <stop style="stop-color:#3a3a3a;stop-opacity:1"/>
   <stop offset="1" style="stop-color:#444;stop-opacity:1"/>
  </linearGradient>
  <linearGradient xlink:href="#linearGradient3764" id="linearGradient4873" gradientUnits="userSpaceOnUse" gradientTransform="matrix(0,-1,1,0,-1.5e-6,47.999998)" x1="1" x2="47"/>
 </defs>
 <g>
  
  
  
 </g>
 <g>
  <path d="m 47,24 C 47,46.703 46.703,47 24,47 1.297,47 1,46.703 1,24 1,1.297 1.297,1 24,1 46.703,1 47,1.297 47,24 z" style="fill:url(#linearGradient3764);fill-opacity:1"/>
  <path d="m 5.73 10.03 c -0.489 0.639 -0.948 1.303 -1.369 1.992 c 13.965 9.07 23.904 23.826 28.752 33.1 c 0.544 -0.235 1.075 -0.491 1.596 -0.766 c -1.955 -3.778 -4.433 -8.285 -5.803 -10.516 c 0.07 -0.039 0.148 -0.055 0.219 -0.094 l 3.03 2.313 l -1.344 -3.563 c 0.742 -0.668 1.398 -1.414 1.906 -2.281 l 3.813 0.469 l -2.969 -2.438 c 0.285 -0.91 0.465 -1.871 0.469 -2.875 l 3.469 -1.406 l -3.688 -0.688 c -0.211 -0.98 -0.551 -1.906 -1.031 -2.75 c 0.754 -0.961 2.309 -2.922 2.375 -3 c 0.063 -0.078 -2.395 0.82 -3.656 1.281 c -0.66 -0.723 -1.428 -1.348 -2.279 -1.844 l 0.5 -3.75 l -2.471 2.875 c -0.902 -0.285 -1.852 -0.435 -2.844 -0.439 l -1.406 -3.531 l -0.625 3.75 c -0.996 0.207 -1.956 0.543 -2.813 1.031 l -3 -2.375 l 1.313 3.625 c -0.313 0.281 -0.598 0.614 -0.875 0.939 c -1.763 -1.711 -6.941 -5.966 -11.268 -9.06 z m 18.613 7.561 c 4.277 0 7.75 3.441 7.75 7.719 c 0 3.02 -1.73 5.629 -4.25 6.906 c -2.617 -4.01 -5.723 -7.941 -9.5 -11.781 c 1.418 -1.75 3.57 -2.844 6 -2.844 z" style="fill:#000;opacity:0.1;fill-opacity:1"/>
  <path d="m 5.871 9.855 c -0.486 0.622 -0.94 1.269 -1.361 1.939 c 13.967 9.529 23.724 24.589 28.19 33.496 c 0.555 -0.227 1.097 -0.476 1.629 -0.744 c -2.01 -3.953 -4.914 -9.246 -6.426 -11.707 c 0.07 -0.039 0.148 -0.055 0.219 -0.094 l 3.03 2.313 l -1.344 -3.563 c 0.742 -0.668 1.398 -1.414 1.906 -2.281 l 3.813 0.469 l -2.969 -2.438 c 0.285 -0.91 0.465 -1.871 0.469 -2.875 l 3.469 -1.406 l -3.688 -0.688 c -0.211 -0.98 -0.551 -1.906 -1.031 -2.75 c 0.754 -0.961 2.309 -2.922 2.375 -3 c 0.063 -0.078 -2.395 0.82 -3.656 1.281 c -0.66 -0.723 -1.428 -1.348 -2.279 -1.844 l 0.5 -3.75 l -2.471 2.875 c -0.902 -0.285 -1.852 -0.435 -2.844 -0.439 l -1.406 -3.531 l -0.625 3.75 c -0.996 0.207 -1.956 0.543 -2.813 1.031 l -3 -2.375 l 1.313 3.625 c -0.313 0.281 -0.598 0.614 -0.875 0.939 c -1.609 -1.561 -6.07 -5.25 -10.127 -8.234 z m 17.473 6.738 c 4.277 0 7.75 3.441 7.75 7.719 c 0 3.02 -1.73 5.629 -4.25 6.906 c -2.617 -4.01 -5.723 -7.941 -9.5 -11.781 c 1.418 -1.75 3.57 -2.844 6 -2.844 z" style="fill:#fdec9e;fill-opacity:1"/>
 </g>
 <g>
  <g>
   <g transform="translate(1,1)">
    <g style="opacity:0.1">
     <!-- color: #444444 -->
    </g>
   </g>
  </g>
 </g>
 <g>
  <g>
   <!-- color: #444444 -->
  </g>
 </g>
 <g>
  
 </g>
 <path d="M 24,1 C 36.703,1 47,11.297 47,24 47,36.703 36.703,47 24,47 11.297,47 1,36.703 1,24 1,11.297 11.297,1 24,1 Z" style="fill:url(#linearGradient4873);fill-opacity:1"/>
 <g transform="translate(1,2)" style="fill:#000;opacity:0.1">
  <path d="m 24 11 l -0.658 1.115 a 13.5 13.5 0 0 0 -11.842 13.385 a 13.5 13.5 0 0 0 0.975 5.01 l -1.475 2.494 l 0 2 l 4.422 0 a 13.5 13.5 0 0 0 9.578 4 a 13.5 13.5 0 0 0 9.584 -4 l 4.416 0 l 0 -2 l -1.471 -2.488 a 13.5 13.5 0 0 0 0.971 -5.01 a 13.5 13.5 0 0 0 -2.074 -7.158 l -2.596 1.295 a 10.607 10.607 0 0 1 1.777 5.863 a 10.607 10.607 0 0 1 -0.127 1.545 l -6.77 -11.459 a 10.607 10.607 0 0 1 1.822 0.881 l 2.939 -1.471 a 13.5 13.5 0 0 0 -6.811 -2.875 l -0.662 -1.121 l -2 0 z m -2.697 4.564 l -6.787 11.486 a 10.607 10.607 0 0 1 -0.123 -1.551 a 10.607 10.607 0 0 1 6.91 -9.936 z m 3.697 1.436 l 8 14 l -16 0 l 8 -14 z m 0 5 l -3 2 l 0 3 l 3 2 l 3 -2 l 0 -3 l -3 -2 z m -4.695 13 l 9.41 0 a 10.607 10.607 0 0 1 -4.715 1.109 a 10.607 10.607 0 0 1 -4.695 -1.109 z" transform="translate(-1,-2)" style="opacity:1;fill-opacity:1;stroke:none"/>
  <path d="M 14.772 13.668 A 13.5 13.5 0 0 0 10.5 23.5 13.5 13.5 0 0 0 22.748 36.93 L 21.69 33.844 A 10.607 10.607 0 0 1 13.393 23.5 10.607 10.607 0 0 1 15.826 16.744 l -1.055 -3.076 z" style="opacity:1;fill-opacity:1;stroke:none"/>
 </g>
 <g transform="translate(0,1)">
  <path d="m 24 11 c -7.456 -0.001 -13.5 6.04 -13.5 13.5 0 7.456 6.04 13.5 13.5 13.5 7.456 0 13.5 -6.04 13.5 -13.5 -0.006 -2.534 -0.725 -5.01 -2.074 -7.158 l -2.596 1.295 c 1.156 1.737 1.775 3.777 1.777 5.863 0.002 5.859 -4.748 10.609 -10.607 10.609 -5.859 0 -10.608 -4.75 -10.607 -10.609 0.001 -5.858 4.749 -10.611 10.607 -10.607 c 1.954 0.001 3.869 0.55 5.533 1.574 l 2.939 -1.471 c -2.399 -1.937 -5.389 -2.996 -8.473 -2.996" transform="translate(0,-1)" style="fill:#ccc;opacity:1;fill-opacity:1;stroke:none"/>
  <g transform="translate(0,1)">
   <path d="m 21 21 0 3 3 2 3 -2 0 -3 z" style="fill:#ccc;fill-opacity:1;stroke:none;fill-rule:evenodd"/>
   <path d="m 21 21 3 -2 3 2 -3 2 z" style="fill:#f9f9f9;stroke:none;fill-rule:evenodd"/>
  </g>
  <path d="m 23,9 -13,22 0,2 28,0 0,-2 L 25,9 Z m 1,6 8,14 -16,0 z" style="fill:#ececec;stroke:none;fill-rule:evenodd"/>
  <path d="M 14.772 13.668 A 13.5 13.5 0 0 0 10.5 23.5 13.5 13.5 0 0 0 22.748 36.93 L 21.69 33.844 A 10.607 10.607 0 0 1 13.393 23.5 10.607 10.607 0 0 1 15.826 16.744 l -1.055 -3.076 z" style="fill:#ccc;opacity:1;fill-opacity:1;stroke:none"/>
 </g>
</svg>
