<svg viewBox="0 0 48 48" xmlns="http://www.w3.org/2000/svg" xmlns:xlink="http://www.w3.org/1999/xlink">
  <linearGradient id="a" gradientUnits="userSpaceOnUse" x1="1" x2="47">
    <stop offset="0" stop-color="#3a3456"/>
    <stop offset="1" stop-color="#423b63"/>
  </linearGradient>
  <path d="m24 1c22.703 0 23 .297 23 23 0 22.703-.297 23-23 23-22.703 0-23-.297-23-23 0-22.703.297-23 23-23z" fill="url(#a)" transform="matrix(0 -1 1 0 0 48)"/>
  <path d="m15 14v1h-2v1h-1c0 6.667 0 13.333 0 20h26c0-6.667 0-13.333 0-20h-1v-1h-2v-1h-4v1h-4v-1h-4v1h-4v-1z" opacity=".1"/>
  <path d="m14 13v1h-2v1h-1v1h26v-1h-1v-1h-2v-1h-4v1h-4v-1h-4v1h-4v-1z" fill="#525c70"/>
  <path d="m14 14v2h-3v19h26v-19h-3v-2h-4v2h-4v-2h-4v2h-4v-2z" fill="#819193"/>
  <path d="m11 21h26v2h-26z" fill="#4a5064"/>
  <path d="m14 16h4v11h-4z" fill="#a9bfbc"/>
  <path d="m22 16h4v11h-4z" fill="#a9bfbc"/>
  <path d="m30 16h4v11h-4z" fill="#a9bfbc"/>
  <path d="m14 27h4v1h-4z" fill="#525c70"/>
  <path d="m22 27h4v1h-4z" fill="#525c70"/>
  <path d="m30 27h4v1h-4z" fill="#525c70"/>
  <path d="m11 34h26v1h-26z" fill="#4a5064"/>
  <path d="m11 31h26v2h-26z" fill="#a9bfbc"/>
  <path d="m15 24h2v2h-2z" fill="#eaeeed"/>
  <path d="m23 24h2v2h-2z" fill="#eaeeed"/>
  <path d="m31 24h2v2h-2z" fill="#eaeeed"/>
</svg>
