<svg xmlns="http://www.w3.org/2000/svg" viewBox="0 0 48 48">
 <defs>
  <linearGradient id="linearGradient3764" x1="1" x2="47" gradientUnits="userSpaceOnUse" gradientTransform="matrix(0,-1,1,0,-1.5e-6,47.999998)">
   <stop style="stop-color:#432715;stop-opacity:1"/>
   <stop offset="1" style="stop-color:#523019;stop-opacity:1"/>
  </linearGradient>
  <linearGradient id="linear0" gradientUnits="userSpaceOnUse" x1="26.937" y1="13.252" x2="27.03" y2="42.16">
   <stop style="stop-color:#c0a336;stop-opacity:1"/>
   <stop offset="1" style="stop-color:#522f19;stop-opacity:1"/>
  </linearGradient>
  <linearGradient id="linear1" gradientUnits="userSpaceOnUse" x1="29.804" y1="14.365" x2="29.333" y2="42.625">
   <stop style="stop-color:#92772c;stop-opacity:0.459"/>
   <stop offset="1" style="stop-color:#361908;stop-opacity:0.459"/>
  </linearGradient>
 </defs>
 <g>
  
  
  
 </g>
 <g>
  <path d="m 47,24 C 47,46.703 46.703,47 24,47 1.297,47 1,46.703 1,24 1,1.297 1.297,1 24,1 46.703,1 47,1.297 47,24 z" style="fill:url(#linearGradient3764);fill-opacity:1"/>
 </g>
 <g>
  <g>
   <g transform="translate(1,1)">
    <g style="opacity:0.1">
     <!-- color: #523019 -->
     <g>
      <path d="m 27 13 l -12 6 l 0 23.969 c 2.727 1.289 5.773 2.031 9 2.031 c 3.227 0 6.273 -0.742 9 -2.031 l 0 -26.969 m -6 -3" style="fill:#000;stroke:none;fill-rule:evenodd"/>
      <path d="m 27 13 l 0 31.781 c 2.113 -0.309 4.141 -0.934 6 -1.813 l 0 -26.969 m -6 -3" style="fill:#000;stroke:none;fill-rule:nonzero"/>
     </g>
    </g>
   </g>
  </g>
 </g>
 <g>
  <g>
   <!-- color: #523019 -->
   <g>
    <path d="m 27 13 l -12 6 l 0 23.969 c 2.727 1.289 5.773 2.031 9 2.031 c 3.227 0 6.273 -0.742 9 -2.031 l 0 -26.969 m -6 -3" style="fill:url(#linear0);stroke:none;fill-rule:evenodd"/>
    <path d="m 27 13 l 0 31.781 c 2.113 -0.309 4.141 -0.934 6 -1.813 l 0 -26.969 m -6 -3" style="fill:url(#linear1);stroke:none;fill-rule:nonzero"/>
   </g>
  </g>
 </g>
 <g>
  
 </g>
</svg>
