<svg viewBox="0 0 48 48" xmlns="http://www.w3.org/2000/svg" xmlns:xlink="http://www.w3.org/1999/xlink">
  <linearGradient id="a" gradientTransform="matrix(0 -1 1 0 -.0000015 47.999998)" gradientUnits="userSpaceOnUse" x1="1" x2="47">
    <stop offset="0" stop-color="#333"/>
    <stop offset="1" stop-color="#3d3d3d"/>
  </linearGradient>
  <path d="m47 24c0 22.703-.297 23-23 23-22.703 0-23-.297-23-23 0-22.703.297-23 23-23 22.703 0 23 .297 23 23z" fill="url(#a)"/>
  <path d="m22 9.125c-6.684.891-11.984 6.191-12.875 12.875h11.438c.352-.605.832-1.086 1.438-1.438m4-11.438v11.438c.605.352 1.086.832 1.438 1.438h11.441c-.895-6.684-6.191-11.984-12.875-12.875m-16.875 16.875c.891 6.684 6.188 11.984 12.875 12.875v-11.438c-.605-.352-1.09-.832-1.441-1.438m6.875 0c-.352.605-.832 1.086-1.438 1.438v11.438c6.684-.891 11.984-6.191 12.875-12.875m-11.438 0" opacity=".1" transform="translate(1 1)"/>
  <path d="m22 9.125c-6.684.891-11.984 6.191-12.875 12.875h11.438c.352-.605.832-1.086 1.438-1.438m4-11.438v11.438c.605.352 1.086.832 1.438 1.438h11.441c-.895-6.684-6.191-11.984-12.875-12.875m-16.875 16.875c.891 6.684 6.188 11.984 12.875 12.875v-11.438c-.605-.352-1.09-.832-1.441-1.438m6.875 0c-.352.605-.832 1.086-1.438 1.438v11.438c6.684-.891 11.984-6.191 12.875-12.875m-11.438 0" fill="#e6c11e"/>
</svg>
