<svg xmlns="http://www.w3.org/2000/svg" viewBox="0 0 48 48">
 <defs>
  <linearGradient id="linearGradient3764" x1="1" x2="47" gradientUnits="userSpaceOnUse" gradientTransform="matrix(0,-1,1,0,-1.5e-6,47.999998)">
   <stop style="stop-color:#333;stop-opacity:1"/>
   <stop offset="1" style="stop-color:#3d3d3d;stop-opacity:1"/>
  </linearGradient>
 </defs>
 <g>
  
  
  
 </g>
 <g>
  <path d="m 47,24 C 47,46.703 46.703,47 24,47 1.297,47 1,46.703 1,24 1,1.297 1.297,1 24,1 46.703,1 47,1.297 47,24 z" style="fill:url(#linearGradient3764);fill-opacity:1"/>
 </g>
 <g>
  <g>
   <g transform="translate(1,1)">
    <g style="opacity:0.1">
     <!-- color: #3d3d3d -->
     <g>
      <path d="m 22 9.125 c -6.684 0.891 -11.984 6.191 -12.875 12.875 l 11.438 0 c 0.352 -0.605 0.832 -1.086 1.438 -1.438 m 4 -11.438 l 0 11.438 c 0.605 0.352 1.086 0.832 1.438 1.438 l 11.441 0 c -0.895 -6.684 -6.191 -11.984 -12.875 -12.875 m -16.875 16.875 c 0.891 6.684 6.188 11.984 12.875 12.875 l 0 -11.438 c -0.605 -0.352 -1.09 -0.832 -1.441 -1.438 m 6.875 0 c -0.352 0.605 -0.832 1.086 -1.438 1.438 l 0 11.438 c 6.684 -0.891 11.984 -6.191 12.875 -12.875 m -11.438 0" style="fill:#000;fill-opacity:1;stroke:none;fill-rule:nonzero"/>
     </g>
    </g>
   </g>
  </g>
 </g>
 <g>
  <g>
   <!-- color: #3d3d3d -->
   <g>
    <path d="m 22 9.125 c -6.684 0.891 -11.984 6.191 -12.875 12.875 l 11.438 0 c 0.352 -0.605 0.832 -1.086 1.438 -1.438 m 4 -11.438 l 0 11.438 c 0.605 0.352 1.086 0.832 1.438 1.438 l 11.441 0 c -0.895 -6.684 -6.191 -11.984 -12.875 -12.875 m -16.875 16.875 c 0.891 6.684 6.188 11.984 12.875 12.875 l 0 -11.438 c -0.605 -0.352 -1.09 -0.832 -1.441 -1.438 m 6.875 0 c -0.352 0.605 -0.832 1.086 -1.438 1.438 l 0 11.438 c 6.684 -0.891 11.984 -6.191 12.875 -12.875 m -11.438 0" style="fill:#eb8619;fill-opacity:1;stroke:none;fill-rule:nonzero"/>
   </g>
  </g>
 </g>
 <g>
  
 </g>
</svg>
