<svg viewBox="0 0 48 48" xmlns="http://www.w3.org/2000/svg" xmlns:xlink="http://www.w3.org/1999/xlink">
  <linearGradient gradientUnits="userSpaceOnUse" x1="1" x2="47">
    <stop offset="0" stop-color="#dc9c89"/>
    <stop offset="1" stop-color="#e1aa99"/>
  </linearGradient>
  <linearGradient id="a" gradientUnits="userSpaceOnUse" x1="1" x2="47">
    <stop offset="0" stop-color="#5d93e3"/>
    <stop offset="1" stop-color="#6e9ee6"/>
  </linearGradient>
  <path d="m24 1c22.703 0 23 .297 23 23 0 22.703-.297 23-23 23-22.703 0-23-.297-23-23 0-22.703.297-23 23-23z" fill="url(#a)" transform="matrix(0 -1 1 0 0 48)"/>
  <g fill-rule="evenodd" opacity=".1" transform="translate(.50068619 1)">
    <g transform="translate(.9996 -1)">
      <path d="m23 23l-4-13h4z"/>
      <path d="m24 23l4-13h-4z"/>
    </g>
    <g transform="matrix(.80901699 .58778525 -.58778525 .80901699 20.18237 -10.038496)">
      <path d="m23 23l-4-13h4z"/>
      <path d="m24 23l4-13h-4z"/>
    </g>
    <g transform="matrix(.30901699 .95105652 -.95105652 .30901699 41.014252 -6.075443)">
      <path d="m23 23l-4-13h4z"/>
      <path d="m24 23l4-13h-4z"/>
    </g>
    <g transform="matrix(-.30901699 .95105652 -.95105652 -.30901699 55.538174 9.375407)">
      <path d="m23 23l-4-13h4z"/>
      <path d="m24 23l4-13h-4z"/>
    </g>
    <g transform="matrix(-.80901699 .58778525 -.58778525 -.80901699 58.206492 30.412354)">
      <path d="m23 23l-4-13h4z"/>
      <path d="m24 23l4-13h-4z"/>
    </g>
    <g transform="matrix(-1 0 0 -1 48 49)">
      <path d="m23 23l-4-13h4z"/>
      <path d="m24 23l4-13h-4z"/>
    </g>
    <g transform="matrix(-.80901699 -.58778525 .58778525 -.80901699 28.817229 58.038496)">
      <path d="m23 23l-4-13h4z"/>
      <path d="m24 23l4-13h-4z"/>
    </g>
    <g transform="matrix(-.30901699 -.95105652 .95105652 -.30901699 7.985348 54.075443)">
      <path d="m23 23l-4-13h4z"/>
      <path d="m24 23l4-13h-4z"/>
    </g>
    <g transform="matrix(.30901699 -.95105652 .95105652 .30901699 -6.5385742 38.624593)">
      <path d="m23 23l-4-13h4z"/>
      <path d="m24 23l4-13h-4z"/>
    </g>
    <g transform="matrix(.80901699 -.58778525 .58778525 .80901699 -9.206893 17.587646)">
      <path d="m23 23l-4-13h4z"/>
      <path d="m24 23l4-13h-4z"/>
    </g>
  </g>
  <g fill-rule="evenodd" transform="translate(-.5001999)">
    <g fill="#fc0" transform="translate(1 -1)">
      <path d="m23 23l-4-13h4z"/>
      <path d="m24 23l4-13h-4z"/>
    </g>
    <g fill="#f60" transform="matrix(.80901699 .58778525 -.58778525 .80901699 20.18277 -10.038496)">
      <path d="m23 23l-4-13h4z"/>
      <path d="m24 23l4-13h-4z"/>
    </g>
    <g fill="#05cdff" transform="matrix(.30901699 .95105652 -.95105652 .30901699 41.014652 -6.075443)">
      <path d="m23 23l-4-13h4z"/>
      <path d="m24 23l4-13h-4z"/>
    </g>
    <g fill="#e580ff" transform="matrix(-.30901699 .95105652 -.95105652 -.30901699 55.538574 9.375407)">
      <path d="m23 23l-4-13h4z"/>
      <path d="m24 23l4-13h-4z"/>
    </g>
    <g fill="#cf0" transform="matrix(-.80901699 .58778525 -.58778525 -.80901699 58.206892 30.412354)">
      <path d="m23 23l-4-13h4z"/>
      <path d="m24 23l4-13h-4z"/>
    </g>
    <g fill="#fc0" transform="matrix(-1 0 0 -1 48.0004 49)">
      <path d="m23 23l-4-13h4z"/>
      <path d="m24 23l4-13h-4z"/>
    </g>
    <g fill="#e65c00" transform="matrix(-.80901699 -.58778525 .58778525 -.80901699 28.817629 58.038496)">
      <path d="m23 23l-4-13h4z"/>
      <path d="m24 23l4-13h-4z"/>
    </g>
    <g fill="#5df" transform="matrix(-.30901699 -.95105652 .95105652 -.30901699 7.985748 54.075443)">
      <path d="m23 23l-4-13h4z"/>
      <path d="m24 23l4-13h-4z"/>
    </g>
    <g fill="#e069ff" transform="matrix(.30901699 -.95105652 .95105652 .30901699 -6.5381742 38.624593)">
      <path d="m23 23l-4-13h4z"/>
      <path d="m24 23l4-13h-4z"/>
    </g>
    <g fill="#b0dc00" transform="matrix(.80901699 -.58778525 .58778525 .80901699 -9.206493 17.587646)">
      <path d="m23 23l-4-13h4z"/>
      <path d="m24 23l4-13h-4z"/>
    </g>
  </g>
</svg>
