<svg xmlns="http://www.w3.org/2000/svg" viewBox="0 0 48 48">
 <defs>
  <linearGradient id="linearGradient3764" x1="1" x2="47" gradientUnits="userSpaceOnUse" gradientTransform="matrix(0,-1,1,0,-1.5e-6,47.999998)">
   <stop style="stop-color:#424a56;stop-opacity:1"/>
   <stop offset="1" style="stop-color:#4b5461;stop-opacity:1"/>
  </linearGradient>
 </defs>
 <g>
  
  
  
 </g>
 <g>
  <path d="m 47,24 C 47,46.703 46.703,47 24,47 1.297,47 1,46.703 1,24 1,1.297 1.297,1 24,1 46.703,1 47,1.297 47,24 z" style="fill:url(#linearGradient3764);fill-opacity:1"/>
 </g>
 <g>
  
 </g>
 <g transform="scale(3.543307,3.543307)">
  <g transform="matrix(0.28222223,0,0,0.28222223,0.28222222,0.28278664)">
   <g>
    <g style="opacity:0.1">
     <!-- color: #4a5361 -->
     <g>
      <path d="m 13,13.01 4,-0.012 7,15 7,-15 4,0 -11,24 M 13,13.01" style="fill:#000;fill-opacity:1;stroke:none;fill-rule:nonzero"/>
     </g>
    </g>
   </g>
  </g>
  <g transform="matrix(0.28222223,0,0,0.28222223,-1.0833333e-8,0.28278664)">
   <g>
    <g transform="translate(0,-1)">
     <!-- color: #4a5361 -->
     <g>
      <path d="m 13,13.01 4,-0.012 7,15 7,-15 4,0 -11,24 M 13,13.01" style="fill:#f4d22a;fill-opacity:1;stroke:none;fill-rule:nonzero"/>
     </g>
    </g>
   </g>
  </g>
 </g>
</svg>
