<svg xmlns="http://www.w3.org/2000/svg" viewBox="0 0 48 48">
 <g>
  
  
  
 </g>
 <path d="M 24,1 C 46.703,1 47,1.297 47,24 47,46.703 46.703,47 24,47 1.297,47 1,46.703 1,24 1,1.297 1.297,1 24,1 z" style="fill:#ecc92a;fill-opacity:1"/>
 <path d="m 19 13 c -1.108 0 -2 0.892 -2 2 l 0 2 c -0.554 0 -1 0.446 -1 1 l -1 0 c -0.554 0 -1 0.446 -1 1 l 0 4 c 0 0.554 0.446 1 1 1 l 1 0 0 9 0 2 0 1 c 0 0.554 0.446 1 1 1 l 1 0 0 2 3 0 0 -2 8 0 0 2 3 0 0 -2 1 0 c 0.554 0 1 -0.446 1 -1 l 0 -1 0 -2 0 -9 1 0 c 0.554 0 1 -0.446 1 -1 l 0 -4 c 0 -0.554 -0.446 -1 -1 -1 l -1 0 c 0 -0.554 -0.446 -1 -1 -1 l 0 -2 c 0 -1.108 -0.892 -2 -2 -2 l -12 0 z" style="fill:#000;opacity:0.1;fill-opacity:1;stroke:none;fill-rule:nonzero"/>
 <g transform="translate(76.677966,-9.7627119)">
  <g>
   <!-- color: #eea63b -->
  </g>
 </g>
 <g>
  
 </g>
 <rect width="16" height="6" x="16" y="12" rx="2" style="fill:#556177;fill-opacity:1;stroke:none;fill-rule:nonzero"/>
 <rect width="18" height="20" x="15" y="16" rx="1" style="fill:#8793a9;fill-opacity:1;stroke:none;fill-rule:nonzero"/>
 <path d="m 15 34 0 -2 3 0 0 1 c 0 0.569 -0.421 1 -1 1 z" style="fill:#f9f9f9;fill-opacity:1;stroke:none"/>
 <path d="m 33 34 0 -2 -3 0 0 1 c 0 0.569 0.421 1 1 1 z" style="fill:#f9f9f9;fill-opacity:1;stroke:none"/>
 <path d="m 18 25 0 1 c 0 0.554 0.446 1 1 1 l 10 0 c 0.554 0 1 -0.446 1 -1 l 0 -1 -12 0 z" style="fill:#353535;fill-opacity:1;stroke:none;fill-rule:nonzero"/>
 <path d="m 19 29 c 0 0.554 0.446 1 1 1 l 8 0 c 0.554 0 1 -0.446 1 -1 l 0 -1 -10 0 z" style="fill:#353535;fill-opacity:1;stroke:none;fill-rule:nonzero"/>
 <path d="m 20 32 c 0 0.554 0.446 1 1 1 l 6 0 c 0.554 0 1 -0.446 1 -1 l 0 -1 -8 0 z" style="fill:#353535;fill-opacity:1;stroke:none;fill-rule:nonzero"/>
 <path d="m 16 17 1 6 14 0 1 -6 z" style="fill:#6b6c73;fill-opacity:1;stroke:none"/>
 <path d="m 27 23 2 -3 1 0 -2 3 z" style="fill:#353535;fill-opacity:1;stroke:none"/>
 <path d="m 19 23 2 -3 1 0 -2 3 z" style="fill:#353535;fill-opacity:1;stroke:none"/>
 <path d="m 14 17 c -0.554 0 -1 0.446 -1 1 l 0 4 c 0 0.554 0.446 1 1 1 l 1 0 0 -6 z" style="fill:#353535;fill-opacity:1;stroke:none;fill-rule:nonzero"/>
 <rect width="1" height="4" x="14" y="18" style="fill:#838383;opacity:0.526;fill-opacity:1;stroke:none;fill-rule:nonzero"/>
 <path d="m 34 17 c 0.554 0 1 0.446 1 1 l 0 4 c 0 0.554 -0.446 1 -1 1 l -1 0 0 -6 z" style="fill:#353535;fill-opacity:1;stroke:none;fill-rule:nonzero"/>
 <rect y="18" x="-34" height="4" width="1" transform="scale(-1,1)" style="fill:#838383;opacity:0.526;fill-opacity:1;stroke:none;fill-rule:nonzero"/>
 <rect width="3" height="2" x="17" y="36" style="fill:#171717;fill-opacity:1;stroke:none;fill-rule:nonzero"/>
 <rect width="3" height="2" x="28" y="36" style="fill:#171717;fill-opacity:1;stroke:none;fill-rule:nonzero"/>
 <rect width="4" height="1" x="22" y="34" style="fill:#c3c9d3;opacity:1;fill-opacity:1;stroke:none;fill-rule:nonzero"/>
 <rect width="1" height="1" x="22" y="34" style="fill:#566bd4;fill-opacity:1;stroke:none;fill-rule:nonzero"/>
 <g style="fill:#353535;fill-opacity:1;stroke:none">
  <path d="m 23.06 34.27 0.151 0 0.191 0.36 0 -0.36 0.128 0 0 0.525 -0.151 0 -0.191 -0.36 0 0.36 -0.128 0 0 -0.525"/>
  <path d="m 23.667 34.27 0.135 0 0 0.314 c 0 0.043 0.007 0.074 0.021 0.093 0.014 0.019 0.037 0.028 0.07 0.028 0.032 0 0.056 -0.009 0.07 -0.028 0.014 -0.019 0.021 -0.05 0.021 -0.093 l 0 -0.314 0.135 0 0 0.314 c 0 0.074 -0.019 0.13 -0.056 0.166 -0.037 0.036 -0.094 0.054 -0.17 0.054 -0.076 0 -0.133 -0.018 -0.17 -0.054 -0.037 -0.036 -0.056 -0.092 -0.056 -0.166 l 0 -0.314"/>
  <path d="m 24.25 34.27 0.172 0 0.119 0.281 0.12 -0.281 0.172 0 0 0.525 -0.128 0 0 -0.384 -0.121 0.283 -0.086 0 -0.121 -0.283 0 0.384 -0.128 0 0 -0.525"/>
  <path d="m 24.987 34.696 0.119 0 0 -0.339 -0.123 0.025 0 -0.092 0.122 -0.025 0.129 0 0 0.431 0.119 0 0 0.093 -0.367 0 0 -0.093"/>
  <path d="m 25.761 34.522 0.182 0.268 -0.141 0 -0.123 -0.179 -0.122 0.179 -0.142 0 0.182 -0.268 -0.175 -0.257 0.141 0 0.115 0.169 0.115 -0.169 0.142 0 -0.175 0.257"/>
 </g>
</svg>
