<svg viewBox="0 0 48 48" xmlns="http://www.w3.org/2000/svg" xmlns:xlink="http://www.w3.org/1999/xlink">
  <linearGradient id="a" gradientUnits="userSpaceOnUse" x2="0" y1="47" y2="1">
    <stop offset="0" stop-color="#cb396c"/>
    <stop offset="1" stop-color="#cf4978"/>
  </linearGradient>
  <path d="m24 1c22.703 0 23 .297 23 23 0 22.703-.297 23-23 23-22.703 0-23-.297-23-23 0-22.703.297-23 23-23z" fill="url(#a)"/>
  <g opacity=".1" transform="translate(0 1)">
    <path d="m25 10l-8 3-3 18 6 5h10l6-5-3-18zm0 1l7 3 3 17-6 4h-8l-6-4 3-17z"/>
    <path d="m25 10l-8 3-3 18 6 5h10l6-5-3-18z"/>
  </g>
  <g transform="translate(-1)">
    <path d="m18 14l7-4 7 4 3 17-6 5h-8l-6-5z" fill="#0055d4"/>
    <path d="m18 32l7 1 7-1-1.4-4h-11.2z" fill="#0fc"/>
    <path d="m20 31h10l-1-2h-8z" fill="#333"/>
    <path d="m17 14l8 2 8-2 1 7-9 2-9-2z" fill="#0fc"/>
    <path d="m22 26l3 1 3-1v-1h-2v-3l-1-2-1 2v3h-2z" fill="#333"/>
    <path d="m19 17l4 1 1 2h-5z" fill="#333"/>
    <path d="m31 17l-4 1-1 2h5z" fill="#333"/>
    <g fill="#fc0">
      <path d="m25 10l-8 3-3 18 6 5h10l6-5-3-18zm0 1l7 3 3 17-6 4h-8l-6-4 3-17z"/>
      <path d="m24 11v4h-2v-1h1v-3z"/>
      <path d="m26 11v4h2v-1h-1v-3z"/>
      <path d="m34 23l-5 1v2h1v-1h5z"/>
      <path d="m16 23c1.642.398 3.377 1 5 1v2h-1v-1h-5z"/>
    </g>
    <g fill="#fc0">
      <path d="m25 10l-8 3-3 18 6 5h10l6-5-3-18zm0 1l7 3 3 17-6 4h-8l-6-4 3-17z"/>
      <path d="m24 11v4h-2v-1h1v-3z"/>
      <path d="m26 11v4h2v-1h-1v-3z"/>
      <path d="m34 23l-5 1v2h1v-1h5z"/>
      <path d="m16 23c1.642.398 3.377 1 5 1v2h-1v-1h-5z"/>
    </g>
  </g>
</svg>
