<svg viewBox="0 0 48 48" xmlns="http://www.w3.org/2000/svg" xmlns:xlink="http://www.w3.org/1999/xlink">
  <linearGradient id="a" gradientTransform="matrix(0 -1 1 0 -.0000015 47.999998)" gradientUnits="userSpaceOnUse" x1="1" x2="47">
    <stop offset="0" stop-color="#e4e4e4"/>
    <stop offset="1" stop-color="#eee"/>
  </linearGradient>
  <path d="m47 24c0 22.703-.297 23-23 23-22.703 0-23-.297-23-23 0-22.703.297-23 23-23 22.703 0 23 .297 23 23z" fill="url(#a)"/>
  <g opacity=".1" transform="translate(1 1)">
    <path d="m36 24c0 6.629-5.371 12-12 12-6.629 0-12-5.371-12-12 0-6.629 5.371-12 12-12 6.629 0 12 5.371 12 12m0 0"/>
    <path d="m28.309 13l2.395-2.676 4.906 4.676-2.605 2m-4.695-4"/>
    <path d="m35 22v5h4v-5m-4 0"/>
    <path d="m25 34l2 4 5-3-2-3m-5 2"/>
    <path d="m14 28l-3 2 3 4 2-2m-2-4"/>
  </g>
  <path d="m36 24c0 6.629-5.371 12-12 12-6.629 0-12-5.371-12-12 0-6.629 5.371-12 12-12 6.629 0 12 5.371 12 12m0 0" fill="#267fc1"/>
  <path d="m30.75 22c0 4.969-4.03 9-9 9-4.969 0-9-4.03-9-9 0-4.969 4.03-9 9-9 4.969 0 9 4.03 9 9m0 0" fill="#202020"/>
  <path d="m28.309 13l2.395-2.676 4.906 4.676-2.605 2m-4.695-4" fill="#267fc1"/>
  <path d="m35 22v5h4v-5m-4 0" fill="#267fc1"/>
  <path d="m25 34l2 4 5-3-2-3m-5 2" fill="#267fc1"/>
  <path d="m14 28l-3 2 3 4 2-2m-2-4" fill="#267fc1"/>
  <path d="m21 24.5c0 .828-.895 1.496-1.996 1.496-1.105 0-2-.672-2-1.496 0-.832-.164-1.219.941-1.219 1.105 0 3.059.387 3.059 1.219m-.004 0" fill="#19ccb0"/>
  <path d="m26.668 23.715c-1.105 0-1.672-.387-1.672-1.215.383-1.582 3.113-2.258 4.539-1.641-.02 1.43-1.828 2.828-2.867 2.855m0 0" fill="#19ccb0"/>
  <path d="m20.5 13.906c.871-.273 1.723.016 2.59.594.344.563 0 .828-.223 1.066-.219.238-.203.223-.559.434l-1.949-.066c-1.156-.441-.566-1.602.141-2.027m0 0" fill="#de3d3d"/>
  <path d="m20.04 17h1.531c1.754.055 2.996 1.523 2.156 2-1.23-.125-2.457-.125-3.688 0-1.57-.242-1.199-1.711 0-2m0 0" fill="#de3d3d"/>
  <path d="m21.508 20l1 .262c.824.355.5.734 0 .734l-1-.09c-.66-.266-.656-.77 0-.906m0 0" fill="#de3d3d"/>
  <path d="m24 30l1 2 2-1-1-2m-2 1" fill="#202020"/>
  <path d="m19 29v3h3v-3m-3 0" fill="#202020"/>
</svg>
