<svg viewBox="0 0 48 48" xmlns="http://www.w3.org/2000/svg" xmlns:xlink="http://www.w3.org/1999/xlink">
  <linearGradient id="a" gradientTransform="matrix(0 -1 1 0 -.0000015 47.999998)" gradientUnits="userSpaceOnUse" x1="1" x2="47">
    <stop offset="0" stop-color="#333"/>
    <stop offset="1" stop-color="#3d3d3d"/>
  </linearGradient>
  <path d="m47 24c0 22.703-.297 23-23 23-22.703 0-23-.297-23-23 0-22.703.297-23 23-23 22.703 0 23 .297 23 23z" fill="url(#a)"/>
  <path d="m23 16c-.554 0-1 .446-1 1v4c0 .554.446 1 1 1h4c .554 0 1-.446 1-1v-4c0-.554-.446-1-1-1zm-9 2c-.47 0-1 .458-1 1v15c0 .516.514 1 1 1h18c3 0 5-2 5-5v-11c0-.513-.45-1-1-1h-3c-.51 0-1 .457-1 1v9c0 2-1 3-3 3h-10c-.542 0-1-.419-1-1v-11c0-.56-.422-1-1-1z" opacity=".1"/>
  <path d="m22 15c-.554 0-1 .446-1 1v4c0 .554.446 1 1 1h4c .554 0 1-.446 1-1v-4c0-.554-.446-1-1-1zm-9 2c-.47 0-1 .458-1 1v15c0 .516.514 1 1 1h18c3 0 5-2 5-5v-11c0-.513-.45-1-1-1h-3c-.51 0-1 .457-1 1v9c0 2-1 3-3 3h-10c-.542 0-1-.419-1-1v-11c0-.56-.422-1-1-1z" fill="#71809b"/>
  <path d="m23 16c-.554 0-1 .446-1 1v2c0 .554.446 1 1 1h2c .554 0 1-.446 1-1v-2c0-.554-.446-1-1-1zm-9 2c-.47 0-1 .458-1 1v13c0 .516.514 1 1 1h18c1.533 0 3-1.605 3-3v-11c0-.513-.45-1-1-1h-1c-.51 0-1 .457-1 1v10c0 1-2 2-3 2h-12c-.542 0-1-.419-1-1v-11c0-.56-.422-1-1-1z" fill="#264f8f"/>
</svg>
