<svg xmlns="http://www.w3.org/2000/svg" viewBox="0 0 48 48">
 <defs>
  <linearGradient id="linearGradient3764" x1="1" x2="47" gradientUnits="userSpaceOnUse" gradientTransform="matrix(0,-1,1,0,-1.5e-6,47.999998)">
   <stop style="stop-color:#333;stop-opacity:1"/>
   <stop offset="1" style="stop-color:#3d3d3d;stop-opacity:1"/>
  </linearGradient>
 </defs>
 <g>
  
  
  
 </g>
 <g>
  <path d="m 47,24 C 47,46.703 46.703,47 24,47 1.297,47 1,46.703 1,24 1,1.297 1.297,1 24,1 46.703,1 47,1.297 47,24 z" style="fill:url(#linearGradient3764);fill-opacity:1"/>
 </g>
 <g>
  <g>
   <g transform="translate(1,1)">
    <g style="opacity:0.1">
     <!-- color: #3d3d3d -->
     <g>
      <path d="m 24 16 l 0 10 l 4 0 l 0 -9.313 c -1.25 -0.445 -2.594 -0.688 -4 -0.688 m -1.313 0.066 c -1.301 0.145 -2.547 0.504 -3.688 1.031 l 0 8.906 l 4 0 l 0 -9.941 c -0.102 0.008 -0.211 -0.012 -0.313 0 m 6.316 1.031 l 0 8.902 l 6.813 0 c -0.672 -3.965 -3.27 -7.27 -6.813 -8.902 m -11 0.5 c -3.03 1.758 -5.207 4.82 -5.816 8.398 l 5.816 0 m 0 -8.398" style="fill:#000;fill-opacity:1;stroke:none;fill-rule:nonzero"/>
      <path d="m 11 26 l 26 0 l 0 4 l -26 0 m 0 -4" style="fill:#000;fill-opacity:1;stroke:none;fill-rule:nonzero"/>
     </g>
    </g>
   </g>
  </g>
 </g>
 <g>
  <g>
   <!-- color: #3d3d3d -->
   <g>
    <path d="m 24 16 l 0 10 l 4 0 l 0 -9.313 c -1.25 -0.445 -2.594 -0.688 -4 -0.688 m -1.313 0.066 c -1.301 0.145 -2.547 0.504 -3.688 1.031 l 0 8.906 l 4 0 l 0 -9.941 c -0.102 0.008 -0.211 -0.012 -0.313 0 m 6.316 1.031 l 0 8.902 l 6.813 0 c -0.672 -3.965 -3.27 -7.27 -6.813 -8.902 m -11 0.5 c -3.03 1.758 -5.207 4.82 -5.816 8.398 l 5.816 0 m 0 -8.398" style="fill:#e6c11e;fill-opacity:1;stroke:none;fill-rule:nonzero"/>
    <path d="m 11 26 l 26 0 l 0 4 l -26 0 m 0 -4" style="fill:#e6c11e;fill-opacity:1;stroke:none;fill-rule:nonzero"/>
   </g>
  </g>
 </g>
 <g>
  
 </g>
</svg>
