<svg viewBox="0 0 48 48" xmlns="http://www.w3.org/2000/svg">
  <path d="m24 1c22.703 0 23 .297 23 23 0 22.703-.297 23-23 23-22.703 0-23-.297-23-23 0-22.703.297-23 23-23z" fill="#d35f5f"/>
  <path d="m15 12v25l1 1h20v-25l-1-1z" fill-rule="evenodd" opacity=".1" transform=""/>
  <g transform="translate(1)">
    <path d="m34 12l-1-1v1zm-20 25l-1-1h1zm0-25h20v25h-20z" fill="#e9ddaf" fill-rule="evenodd"/>
    <path d="m13 11h20v25h-20z" fill="#483737"/>
  </g>
  <path d="m16 18l7 7v1l1 1 1-1v-1l7-7h-5l-1 1v1.459h-1.25l-.046-.754.593-.539-.417-.007-.391.33-.108-.269.842-.694-.539-.377-.851.658-.597.164.013 1.487h-1.25v-1.459l-1-1" fill="#a00" fill-rule="evenodd"/>
  <path d="m15 18l0 0 2 2h-2z" fill="#666" fill-rule="evenodd"/>
  <path d="m15 21h3l2 2h-5z" fill="#666" fill-rule="evenodd"/>
  <path d="m15 24h6l1 1v1h-7z" fill="#666" fill-rule="evenodd"/>
  <path d="m33 18l0 0-2 2h2z" fill="#666" fill-rule="evenodd"/>
  <path d="m33 21h-3l-2 2h5z" fill="#666" fill-rule="evenodd"/>
  <path d="m33 24h-6l-1 1v1h7z" fill="#666" fill-rule="evenodd"/>
  <path d="m23.03 21h2v2l-1 1-1-1z" fill="#483737"/>
  <path d="m-32.923.311h.5v2h-.5z" fill="#a00" transform="matrix(-.70710678 -.70710678 .70710678 -.70710678 0 0)"/>
</svg>
