<svg viewBox="0 0 48 48" xmlns="http://www.w3.org/2000/svg" xmlns:xlink="http://www.w3.org/1999/xlink">
  <linearGradient id="a" gradientUnits="userSpaceOnUse" x2="0" y1="47" y2="1">
    <stop offset="0" stop-color="#2d2d2d"/>
    <stop offset="1" stop-color="#373737"/>
  </linearGradient>
  <linearGradient id="b" gradientUnits="userSpaceOnUse" x1="9" x2="39">
    <stop offset="0" stop-color="#ec6d00"/>
    <stop offset="1" stop-color="#3c3127"/>
  </linearGradient>
  <path d="m24 1c22.703 0 23 .297 23 23 0 22.703-.297 23-23 23-22.703 0-23-.297-23-23 0-22.703.297-23 23-23z" fill="url(#a)"/>
  <circle cx="25" cy="25" fill-opacity=".11" r="15"/>
  <circle cx="24" cy="24" fill="url(#b)" r="15" transform="matrix(-.36528536 .93060792 -.93060792 -.36528536 55.101439 10.432259)"/>
  <path d="m23 6.5a.5.5 0 1 1-1 0 .5.5 0 1 1  1 0z" fill="#f9f9f9"/>
  <path d="m23 6.5a.5.5 0 1 1-1 0 .5.5 0 1 1  1 0z" fill="#f9f9f9" transform="translate(8 -2)"/>
  <path d="m23 6.5a.5.5 0 1 1-1 0 .5.5 0 1 1  1 0z" fill="#f9f9f9" transform="translate(-18 10)"/>
  <path d="m23 6.5a.5.5 0 1 1-1 0 .5.5 0 1 1  1 0z" fill="#f9f9f9" transform="translate(-7)"/>
  <path d="m23 6.5a.5.5 0 1 1-1 0 .5.5 0 1 1  1 0z" fill="#f9f9f9" transform="translate(-12 6)"/>
  <path d="m23 6.5a.5.5 0 1 1-1 0 .5.5 0 1 1  1 0z" fill="#f9f9f9" transform="translate(-16 17)"/>
  <path d="m23 6.5a.5.5 0 1 1-1 0 .5.5 0 1 1  1 0z" fill="#f9f9f9" transform="translate(-18 22)"/>
  <path d="m23 6.5a.5.5 0 1 1-1 0 .5.5 0 1 1  1 0z" fill="#f9f9f9" transform="translate(-13 28)"/>
  <path d="m23 6.5a.5.5 0 1 1-1 0 .5.5 0 1 1  1 0z" fill="#f9f9f9" transform="translate(10 3)"/>
  <path d="m23 6.5a.5.5 0 1 1-1 0 .5.5 0 1 1  1 0z" fill="#f9f9f9" transform="translate(18 5)"/>
  <path d="m23 6.5a.5.5 0 1 1-1 0 .5.5 0 1 1  1 0z" fill="#f9f9f9" transform="translate(20 10)"/>
  <path d="m23 6.5a.5.5 0 1 1-1 0 .5.5 0 1 1  1 0z" fill="#f9f9f9" transform="translate(18 17)"/>
  <path d="m23 6.5a.5.5 0 1 1-1 0 .5.5 0 1 1  1 0z" fill="#f9f9f9" transform="translate(22 20)"/>
  <path d="m23 6.5a.5.5 0 1 1-1 0 .5.5 0 1 1  1 0z" fill="#f9f9f9" transform="translate(19 25)"/>
  <path d="m23 6.5a.5.5 0 1 1-1 0 .5.5 0 1 1  1 0z" fill="#f9f9f9" transform="translate(14 29)"/>
  <path d="m23 6.5a.5.5 0 1 1-1 0 .5.5 0 1 1  1 0z" fill="#f9f9f9" transform="translate(11 36)"/>
  <path d="m23 6.5a.5.5 0 1 1-1 0 .5.5 0 1 1  1 0z" fill="#f9f9f9" transform="translate(3 34)"/>
  <path d="m23 6.5a.5.5 0 1 1-1 0 .5.5 0 1 1  1 0z" fill="#f9f9f9" transform="translate(-10 34)"/>
  <path d="m23 6.5a.5.5 0 1 1-1 0 .5.5 0 1 1  1 0z" fill="#f9f9f9" transform="translate(-5 33)"/>
  <path d="m23 6.5a.5.5 0 1 1-1 0 .5.5 0 1 1  1 0z" fill="#f9f9f9" transform="translate(-1 38)"/>
</svg>
