<svg viewBox="0 0 48 48" xmlns="http://www.w3.org/2000/svg" xmlns:xlink="http://www.w3.org/1999/xlink">
  <linearGradient id="a" gradientTransform="matrix(0 -1 1 0 -.0000015 47.999998)" gradientUnits="userSpaceOnUse" x1="1" x2="47">
    <stop offset="0" stop-color="#e4e4e4"/>
    <stop offset="1" stop-color="#eee"/>
  </linearGradient>
  <path d="m47 24c0 22.703-.297 23-23 23-22.703 0-23-.297-23-23 0-22.703.297-23 23-23 22.703 0 23 .297 23 23z" fill="url(#a)"/>
  <g opacity=".1" transform="translate(1 1)">
    <path d="m22.17 16.473c-.02 2.785-2.324 5.03-5.18 5.03-2.848-.008-5.145-2.262-5.145-5.05 0-2.781 2.305-5.04 5.145-5.04 2.855-.008 5.16 2.242 5.18 5.02"/>
    <path d="m35.11 17.04c-.012 3.098-2.539 5.598-5.645 5.594-3.109-.008-5.625-2.52-5.625-5.613 0-3.098 2.516-5.609 5.625-5.613 3.105-.008 5.633 2.492 5.645 5.59"/>
    <path d="m24.01 11c-1.691 0-3.297.328-4.773.914-.773-.445-1.668-.715-2.621-.715-2.91 0-5.285 2.375-5.285 5.289 0 .922.242 1.785.66 2.539-.641 1.539-.992 3.215-.992 4.98 0 7.172 5.836 12.988 13.01 12.988 7.172 0 12.988-5.816 12.988-12.988 0-2.141-.559-4.141-1.473-5.918.039-.285.074-.57.074-.867 0-3.398-2.773-6.176-6.176-6.176-.742 0-1.445.164-2.105.41-.008-.004-.02.004-.027 0-.027-.02-.043-.043-.078-.051-1.02-.258-2.09-.406-3.203-.406"/>
  </g>
  <path d="m24.01 11c-1.691 0-3.297.328-4.773.914-.773-.445-1.668-.715-2.621-.715-2.91 0-5.285 2.375-5.285 5.289 0 .922.242 1.785.66 2.539-.641 1.539-.992 3.215-.992 4.98 0 7.172 5.836 12.988 13.01 12.988 7.172 0 12.988-5.816 12.988-12.988 0-2.141-.559-4.141-1.473-5.918.039-.285.074-.57.074-.867 0-3.398-2.773-6.176-6.176-6.176-.742 0-1.445.164-2.105.41-.008-.004-.02.004-.027 0-.027-.02-.043-.043-.078-.051-1.02-.258-2.09-.406-3.203-.406" fill="#2d2d2d"/>
  <path d="m17.5 13a4.5 4.5 0 0 0-4.5 4.5 4.5 4.5 0 0 0  4.5 4.5 4.5 4.5 0 0 0  4.5-4.5 4.5 4.5 0 0 0-4.5-4.5zm13.5 0a5 5 0 0 0-5 5 5 5 0 0 0  5 5 5 5 0 0 0  4.906-4.057c-.124-.286-.241-.577-.383-.853.039-.285.075-.57.075-.867 0-.574-.085-1.133-.228-1.657a5 5 0 0 0-4.37-2.566z" opacity=".1"/>
  <circle cx="16.5" cy="16.5" fill="#f9f9f9" r="4.5"/>
  <circle cx="30" cy="17" fill="#f9f9f9" r="5"/>
  <path d="m16.996 14c-1.101 0-1.996.891-1.996 1.996 0 1.105.891 2 1.996 2 1.102 0 2-.895 2-2 0-1.101-.895-1.996-2-1.996z" fill="#02abc8"/>
  <path d="m30.492 12.996c-1.379 0-2.5 1.121-2.5 2.504 0 1.379 1.121 2.5 2.5 2.5 1.383 0 2.504-1.121 2.504-2.5 0-1.383-1.121-2.504-2.504-2.504z" fill="#02abc8"/>
</svg>
