<svg viewBox="0 0 48 48" xmlns="http://www.w3.org/2000/svg" xmlns:xlink="http://www.w3.org/1999/xlink">
  <linearGradient id="a" gradientTransform="matrix(0 -1 1 0 -.0000015 47.999998)" gradientUnits="userSpaceOnUse" x1="1" x2="47">
    <stop offset="0" stop-color="#8daedb"/>
    <stop offset="1" stop-color="#9bb8e0"/>
  </linearGradient>
  <path d="m47 24c0 22.703-.297 23-23 23-22.703 0-23-.297-23-23 0-22.703.297-23 23-23 22.703 0 23 .297 23 23z" fill="url(#a)"/>
  <path d="m20.718 12.999c-.371-.004-.793.059-1.082.184-.938.727-1.293.883-.914 1.715.047.055.293.773.422.797.168.027.395.199.703.523.422.453.461.469.664.379.113-.059.316-.098.453-.098h.242l-.184.32c-.559.188-.453 1.379-.18 1.977l.066.496c-.145.02-.297.438-.285.707.02.516.277.664.184.707-.297.137-.969-.02-1.777-.137-.344-.359-.496-.633-.715-.738-.309-.152-.477-.066-.688.055-.117.063.27.379.176.426-.129.063-.656-.738-.711-.641-.078.133-.277.273.355 1.238.168.16.477.336.598.371.129.031.402.016.445.047.25.184 1.453.621 2.773.793.688.094.633-.008.934-.547.137-.238.313-.566.336-.648.039-.117.254-.676.449-.703.242-.031.441.559.613.773.43.68.668 1.434.629 1.926.051.223-.008.348-.566 1.168-.895.98-1.266 2.125-1.602 2.32-.551 1.199-.18 1.742-.438 2.508-.145.41-.168.609-.113.668.129.133.113.355-.074 1.094-.086.344-.176 1-.199 1.438-.063.992-.188 1.895-.293 1.957-.043.027-.063.078-.063.141l-.152.039c.059.012.113.027.16.039.016.074.051.156.102.227.078.09.152.238.188.395-.02.051-.027.078-.047.109-.141.207-.73.379-.832.457-.406.23-.863.547-.73.953.148.281.305.566.801.566l1.125-.359.453-.191c.25-.102.602-.273.773-.395.078-.051.18-.109.277-.164 0 0 .008 0 .008 0 .031-.02.063-.035.09-.051.098-.059.191-.105.27-.141.172-.082.309-.188.293-.23 0 0-.004-.004-.004-.004.004 0 .008 0 .008 0 0 0-.004 0-.008-.004-.016-.039-.086-.133-.184-.234-.016-.023-.023-.039-.031-.066l.512-.422c-.098.066-.051-.27-.141-.211-.355.25-.531.188-.57.188-.141 0-.129-.441-.027-.621.051-.098.273-.328.293-.434.016-.09.082-.496.145-.887.066-.387.105-.809.082-.934-.023-.129-.008-.254.031-.289.133-.082.43-.801.43-1.031 0-.117-.031-.23-.082-.258-.047-.023-.008-.172.09-.355.141-.254.156-.395.105-.891l-.047-.578.426-.43c.238-.242.496-.434.578-.434.086 0 .313.258.602.723.258.402.613.883.801 1.074.313.328.355.355.766.355.352 0 .543-.066 1.125-.391.453-.258.984-.465 1.586-.621.488-.129.949-.297 1.02-.379.074-.074.195-.305.27-.512.078-.207.184-.398.234-.43.176-.117.516-.066.656.09.16.18.172.805.219.938.113.461.297.988.719.961.301-.07.609-.156.738-.648l-.051-1.203-.063-.496c-.031-.27-.113-.66-.184-.867-.063-.207-.137-.527-.168-.727-.027-.191-.098-.348-.145-.348-.059 0-.316.133-.582.297-.793.488-.875.523-1.66.613-.93.105-1.887.297-2.105.414-.234.133-.719.156-.719.031 0-.051-.066-.113-.148-.133-.113-.031-.168-.18-.234-.625-.098-.645-.055-.977.227-1.688.324-.82.172-2.051-.266-2.051-.145 0-.156-.031-.113-.273.039-.223.016-.32-.145-.496-.133-.148-.18-.273-.156-.422.031-.141.008-.215-.055-.215-.059 0-.082-.059-.051-.133.059-.156-.242-.691-.391-.691-.121 0-.289-.348-.289-.59 0-.082-.074-.223-.164-.297-.086-.082-.16-.176-.16-.215 0-.043-.105-.32-.234-.621-.129-.305-.25-.727-.277-.934-.055-.445.008-.527.594-.777.199-.09.5-.238.664-.348l.301-.188.227.352c.129.191.461.504.742.711.277.195.633.527.777.742.242.34.27.422.227.77-.039.344-.016.441.219.813.246.391.406.52.406.332 0-.039.195.063.43.25.23.18.453.316.492.305.051-.016.113-.133.156-.258.055-.172.031-.363-.105-.777-.098-.305-.227-.609-.277-.676-.063-.066-.266-.422-.453-.785-.191-.363-.535-.953-.777-1.297-.238-.355-.406-.695-.383-.762.059-.148-.777-1.027-1.215-1.281-.324-.191-.742-.191-1.668-.008-.566.117-1.746.305-2.508.414-.387.055-.773.156-.867.215-.148.09-.191.098-.191.016 0-.059-.113-.184-.242-.273-.137-.09-.371-.414-.527-.727-.156-.309-.387-.621-.496-.695-.129-.086-.383-.129-.668-.133m.004 0" fill-opacity=".098"/>
  <path d="m19.719 12c-.371-.004-.793.059-1.082.184-.938.727-1.293.883-.914 1.715.047.055.293.773.422.797.168.027.395.199.703.523.422.453.461.469.664.379.113-.059.316-.098.453-.098h.242l-.184.32c-.559.188-.453 1.379-.18 1.977l.066.496c-.145.02-.297.438-.285.707.02.516.277.664.184.707-.297.137-.969-.02-1.777-.137-.344-.359-.496-.633-.715-.738-.309-.152-.477-.066-.688.055-.117.063.27.379.176.426-.129.063-.656-.738-.711-.641-.078.133-.277.273.355 1.238.168.16.477.336.598.371.129.031.402.016.445.047.25.184 1.453.621 2.773.793.688.094.633-.008.934-.547.137-.238.313-.566.336-.648.039-.117.254-.676.449-.703.242-.031.441.559.613.773.43.68.668 1.434.629 1.926.051.223-.008.348-.566 1.168-.895.98-1.266 2.125-1.602 2.32-.551 1.199-.18 1.742-.438 2.508-.145.41-.168.609-.113.668.129.133.113.355-.074 1.094-.086.344-.176 1-.199 1.438-.063.992-.188 1.895-.293 1.957-.043.027-.063.078-.063.141l-.152.039c.059.012.113.027.16.039.016.074.051.156.102.227.078.09.152.238.188.395-.02.051-.027.078-.047.109-.141.207-.73.379-.832.457-.406.23-.863.547-.73.953.148.281.305.566.801.566l1.125-.359.453-.191c.25-.102.602-.273.773-.395.078-.051.18-.109.277-.164 0 0 .008 0 .008 0 .031-.02.063-.035.09-.051.098-.059.191-.105.27-.141.172-.082.309-.188.293-.23 0 0-.004-.004-.004-.004.004 0 .008 0 .008 0 0 0-.004 0-.008-.004-.016-.039-.086-.133-.184-.234-.016-.023-.023-.039-.031-.066l.512-.422c-.098.066-.051-.27-.141-.211-.355.25-.531.188-.57.188-.141 0-.129-.441-.027-.621.051-.098.273-.328.293-.434.016-.09.082-.496.145-.887.066-.387.105-.809.082-.934-.023-.129-.008-.254.031-.289.133-.082.43-.801.43-1.031 0-.117-.031-.23-.082-.258-.047-.023-.008-.172.09-.355.141-.254.156-.395.105-.891l-.047-.578.426-.43c.238-.242.496-.434.578-.434.086 0 .313.258.602.723.258.402.613.883.801 1.074.313.328.355.355.766.355.352 0 .543-.066 1.125-.391.453-.258.984-.465 1.586-.621.488-.129.949-.297 1.02-.379.074-.074.195-.305.27-.512.078-.207.184-.398.234-.43.176-.117.516-.066.656.09.16.18.172.805.219.938.113.461.297.988.719.961.301-.07.609-.156.738-.648l-.051-1.203-.063-.496c-.031-.27-.113-.66-.184-.867-.063-.207-.137-.527-.168-.727-.027-.191-.098-.348-.145-.348-.059 0-.316.133-.582.297-.793.488-.875.523-1.66.613-.93.105-1.887.297-2.105.414-.234.133-.719.156-.719.031 0-.051-.066-.113-.148-.133-.113-.031-.168-.18-.234-.625-.098-.645-.055-.977.227-1.688.324-.82.172-2.051-.266-2.051-.145 0-.156-.031-.113-.273.039-.223.016-.32-.145-.496-.133-.148-.18-.273-.156-.422.031-.141.008-.215-.055-.215-.059 0-.082-.059-.051-.133.059-.156-.242-.691-.391-.691-.121 0-.289-.348-.289-.59 0-.082-.074-.223-.164-.297-.086-.082-.16-.176-.16-.215 0-.043-.105-.32-.234-.621-.129-.305-.25-.727-.277-.934-.055-.445.008-.527.594-.777.199-.09.5-.238.664-.348l.301-.188.227.352c.129.191.461.504.742.711.277.195.633.527.777.742.242.34.27.422.227.77-.039.344-.016.441.219.813.246.391.406.52.406.332 0-.039.195.063.43.25.23.18.453.316.492.305.051-.016.113-.133.156-.258.055-.172.031-.363-.105-.777-.098-.305-.227-.609-.277-.676-.063-.066-.266-.422-.453-.785-.191-.363-.535-.953-.777-1.297-.238-.355-.406-.695-.383-.762.059-.148-.777-1.027-1.215-1.281-.324-.191-.742-.191-1.668-.008-.566.117-1.746.305-2.508.414-.387.055-.773.156-.867.215-.148.09-.191.098-.191.016 0-.059-.113-.184-.242-.273-.137-.09-.371-.414-.527-.727-.156-.309-.387-.621-.496-.695-.129-.086-.383-.129-.668-.133m.004 0" fill="#1d242b"/>
</svg>
