<svg viewBox="0 0 48 48" xmlns="http://www.w3.org/2000/svg" xmlns:xlink="http://www.w3.org/1999/xlink">
  <linearGradient id="a" gradientTransform="matrix(0 -1 1 0 -.0000015 47.999998)" gradientUnits="userSpaceOnUse" x1="1" x2="47">
    <stop offset="0" stop-color="#79acc3"/>
    <stop offset="1" stop-color="#86b4c9"/>
  </linearGradient>
  <path d="m47 24c0 22.703-.297 23-23 23-22.703 0-23-.297-23-23 0-22.703.297-23 23-23 22.703 0 23 .297 23 23z" fill="url(#a)"/>
  <path d="m24 12c-.625.001-1.992.102-2.912.182-2.145.186-4.326.369-6.438.373-1.512.003-1.691.039-1.619.781.058.597.306.727.951.727.547 0 .98.18 1.133.492.227.426.354 1.918.457 5.18.171 5.395.008 13.09-.293 14.07-.125.395-.613.633-1.492.727-.352.039-.668.113-.695.168-.145.199-.082 1.066.066 1.191.109.102.842.109 3.578.109h7.264c9 0 13.01-6 13.01-12.06 0-7.939-6.01-11.954-13.01-11.939m0 .492c4.525-.159 8.704 2.37 10.615 5.115.129.211.273.41.332.445.043.039.066.082.043.105-.207.007-.326-.264-.402-.326-.294-.198-.629-.35-.939-.605-.638-.538-1.248-1.017-1.789-1.463-2.468-2.037-5.929-3.144-8.512-3.154-2.129 0-3.741.296-5.109.926-.475.219-.641.246-1.234.217-.703-.034-1.279-.33-1.914-.559-.656-.172-.398-.27.742-.27 1.285 0 3.887-.168 5.191-.328.77-.095 1.87-.128 2.977-.104zm-1 1.186c5.973.271 10 4.322 10 10.322 0 7-6.406 12.08-13.625 9.654l-.176-.133c-.2-6.521-.2-12.521 0-18.82.066-.313.188-.438 1.332-.727.707-.185 1.575-.337 2.469-.297zm6.932 19.19c.046-.028.037.076.037.086.004.215-1.843 1.211-2.781 1.504-1.64.512-4.224.627-6.633.293-1.259-.174-1.789-.328-2.098-.625-.285-.266-.012-.313.648-.113 2.453.75 2.602.778 4.391.785 2.27.009 3.438-.227 5.02-1.023.75-.378.875-.453 1.133-.688.074-.07.142-.076.184-.059.061.026.045-.128.1-.16z" opacity=".1" transform="translate(.990108 1)"/>
  <path d="m24 12c-.625.001-1.992.102-2.912.182-2.145.186-4.326.369-6.438.373-1.512.003-1.691.039-1.619.781.058.597.306.727.951.727.547 0 .98.18 1.133.492.227.426.354 1.918.457 5.18.171 5.395.008 13.09-.293 14.07-.125.395-.613.633-1.492.727-.352.039-.668.113-.695.168-.145.199-.082 1.066.066 1.191.109.102.842.109 3.578.109h7.264c9 0 13.01-6 13.01-12.06 0-7.939-6.01-11.954-13.01-11.939m0 .492c4.525-.159 8.704 2.37 10.615 5.115.129.211.273.41.332.445.043.039.066.082.043.105-.207.007-.326-.264-.402-.326-.294-.198-.629-.35-.939-.605-.638-.538-1.248-1.017-1.789-1.463-2.468-2.037-5.929-3.144-8.512-3.154-2.129 0-3.741.296-5.109.926-.475.219-.641.246-1.234.217-.703-.034-1.279-.33-1.914-.559-.656-.172-.398-.27.742-.27 1.285 0 3.887-.168 5.191-.328.77-.095 1.87-.128 2.977-.104zm-1 1.186c5.973.271 10 4.322 10 10.322 0 7-6.406 12.08-13.625 9.654l-.176-.133c-.2-6.521-.2-12.521 0-18.82.066-.313.188-.438 1.332-.727.707-.185 1.575-.337 2.469-.297zm6.932 19.19c.046-.028.037.076.037.086.004.215-1.843 1.211-2.781 1.504-1.64.512-4.224.627-6.633.293-1.259-.174-1.789-.328-2.098-.625-.285-.266-.012-.313.648-.113 2.453.75 2.602.778 4.391.785 2.27.009 3.438-.227 5.02-1.023.75-.378.875-.453 1.133-.688.074-.07.142-.076.184-.059.061.026.045-.128.1-.16z" fill="#f9f9f9" transform="translate(-.009892)"/>
</svg>
