<svg xmlns="http://www.w3.org/2000/svg" viewBox="0 0 48 48">
 <defs>
  <linearGradient id="linearGradient3764" x1="1" x2="47" gradientUnits="userSpaceOnUse" gradientTransform="matrix(0,-1,1,0,-1.5e-6,47.999998)">
   <stop style="stop-color:#b0cde4;stop-opacity:1"/>
   <stop offset="1" style="stop-color:#c0d7e9;stop-opacity:1"/>
  </linearGradient>
  <linearGradient id="linear0" gradientUnits="userSpaceOnUse" x1="9.01" y1="13.547" x2="9.05" y2="0.025" gradientTransform="matrix(3.543307,0,0,3.543307,0,0)">
   <stop style="stop-color:#3d8ee5;stop-opacity:1"/>
   <stop offset="1" style="stop-color:#86d4ec;stop-opacity:1"/>
  </linearGradient>
 </defs>
 <g>
  
  
  
 </g>
 <g>
  <path d="m 47,24 C 47,46.703 46.703,47 24,47 1.297,47 1,46.703 1,24 1,1.297 1.297,1 24,1 46.703,1 47,1.297 47,24 z" style="fill:url(#linearGradient3764);fill-opacity:1"/>
 </g>
 <g>
  <g>
   <g transform="translate(1,1)">
    <g style="opacity:0.1">
     <!-- color: #c0d7e9 -->
     <g>
      <path d="m 22.668 12.996 c -3.863 0 -7 3.215 -7 7.16 c 0 0.121 0.051 0.234 0.051 0.355 c -2.742 0.871 -4.715 3.25 -4.715 6.07 c 0 3.563 3.125 6.43 7 6.43 l 9.512 0 l 4.984 3.988 l 7.5 -6 l -2.906 0 c 1.182 -1.148 1.91 -2.697 1.91 -4.418 c 0 -2.191 -1.191 -4.125 -3 -5.289 l 0 -2.293 l -0.936 0 c -0.237 -1.767 -1.857 -3.141 -3.842 -3.141 c -0.945 0 -1.804 0.336 -2.48 0.848 c -1.195 -2.187 -3.445 -3.707 -6.074 -3.707 l 0 -0.004 z" transform="translate(-1,-1)"/>
     </g>
    </g>
   </g>
  </g>
 </g>
 <g>
  <g>
   <!-- color: #c0d7e9 -->
   <g>
    <path d="m 21.668 12 c 2.629 0 4.879 1.52 6.074 3.707 c 0.676 -0.512 1.535 -0.848 2.48 -0.848 c 2.148 0 3.891 1.602 3.891 3.578 c 0 0.445 -0.078 0.859 -0.242 1.254 c 2.441 1 4.133 3.27 4.133 5.891 c 0 3.578 -3.125 6.43 -7 6.43 l -14 0 c -3.875 0 -7 -2.867 -7 -6.43 c 0 -2.82 1.973 -5.199 4.715 -6.07 c 0 -0.121 -0.051 -0.234 -0.051 -0.355 c 0 -3.945 3.137 -7.16 7 -7.16 m 0 0.004" style="fill:#f9f9f9;fill-opacity:1;stroke:none;fill-rule:evenodd"/>
    <path d="m 28 18 l 7 0 l 0 12 l 4 0 l -7.5 6 l -7.5 -6 l 4 0 m 0 -12" style="fill:url(#linear0);stroke:none;fill-rule:nonzero"/>
   </g>
  </g>
 </g>
 <g>
  
 </g>
</svg>
