<svg viewBox="0 0 48 48" xmlns="http://www.w3.org/2000/svg" xmlns:xlink="http://www.w3.org/1999/xlink">
  <linearGradient id="a" gradientTransform="matrix(0 -1 1 0 -.0000015 47.999998)" gradientUnits="userSpaceOnUse" x1="1" x2="47">
    <stop offset="0" stop-color="#60d0a7"/>
    <stop offset="1" stop-color="#70d5b0"/>
  </linearGradient>
  <path d="m47 24c0 22.703-.297 23-23 23-22.703 0-23-.297-23-23 0-22.703.297-23 23-23 22.703 0 23 .297 23 23z" fill="url(#a)"/>
  <g transform="matrix(.35244722 0 0 .35244722 -91.427674 33.615513)">
    <path d="m333.67-64.16c-4.081.148-13.328 1.843-17.412 5.392-4.784 4.157-10.512 11.03-11.754 18.12-1.473 8.423-.482 12.342.743 14.231-1.828-.365-3.768-.507-4.843-.332-.766-.491-.78-.723-2.433-.881-.727.753-1.364 1.752-1.541 2.932-.213 1.423.29 2.897.809 4.239 1.12 1.774 2.096 3.819 2.943 5.547.559.991 1.445 1.962 1.834 2.937 1.158.539 2.089 1.394 3.203 1.962 2.049.679 4.01 1.881 5.553 2.987.004-.028.002-.044.006-.072.067.334.147.859.211 1.153.693 1.842 3.214 5.098 3.214 5.098l2.533-2.433c2.712 3.939.549 12.574.549 12.574 0 0 5.097 6.763 17.888 5.907 4.635-.311 11.156-3.888 11.632-5.198-.798-.755-1.586-7.549-1.668-8.263 2.235-1.53 4.094-3.481 5.996-5.503l1.829 2.754c0 0 1.838-3.273 2.388-5.087-.187-.842-.236-2.151-.238-3.258.286-.111 3.043-1.226 5.087-4.101.893-1.256 1.035-3.796 1.801-5.209.806-1.484 1.905-2.809 2.206-5.01.469-3.431-.964-3.508-.964-3.508-.638.287-1.398.315-1.906.864 0 0-1.583.07-3.01.382-.784.171-1.434.474-1.829.621.256-.513.237-1.128.332-1.585.207-.13 1.239-.792 1.502-1.391.465-1.059.613-2.341.399-3.447-.245-.673-.8-1.438-1.441-2.211 1.254-2.412 3.03-8.42-2.045-18.891-2.844-5.87-13.305-11.615-21.568-11.316l-.006-.005z" fill-rule="evenodd" opacity=".1"/>
    <path d="m330.84-66.993c8.263-.299 18.723 5.444 21.567 11.314 6.839 14.11 1.237 20.15 1.237 20.15l-48.967 8.04c0 0-5.744-.363-3.01-15.998 1.242-7.092 6.972-13.963 11.756-18.12 4.084-3.549 13.332-5.244 17.413-5.392z" fill="#382d1e" fill-rule="evenodd"/>
    <path d="m353.36-28.04c.275-.043 1.164-.521 2.127-.731 1.426-.312 3.01-.383 3.01-.383.508-.549 1.267-.576 1.905-.863 0 0 1.434.074.965 3.505-.301 2.201-1.396 3.526-2.202 5.01-.766 1.413-.913 3.951-1.806 5.207-2.155 3.03-5.19 4.146-5.19 4.146l-1.438 1.402 1.01-17.04z" fill="#d58070" fill-rule="evenodd"/>
    <path d="m360.25-26.14c0 0-1.393.343-2.073.568-.678.225-1.994.779-1.994.779 0 0-.736.407-1.01.719-.437.507-.558 1.352-.964 2.148-.793 1.554-1.742 3.133-1.742 3.133 0 0 2.135-3.855 4.206-4.746 3.217-1.384 3.574-2.602 3.574-2.602z" fill="#9b5c4b" fill-rule="evenodd"/>
    <path d="m354.1-30.926c0 0-.053 1.196-.161 1.782-.08.436-.361 1.279-.361 1.279 0 0 .805 5.521.955 8.186.098 1.749-.987 3.482-1.67 4.505-.399.598-.544.936-.544.936 0 0-.184 3.605.194 5.306-.55 1.814-2.387 5.085-2.387 5.085l-2.883-4.334 3.741-27.856 2.837 2.356z" fill="#4b3222" fill-rule="evenodd"/>
    <path d="m22.762 18.916l-4.094 2.092-.684 1.85c-1.693 2.441-.282 5.662 1.066 7.633-.138.168-.176.419.051.82 1.121 1.308.297 4.58.297 4.58 0 0 1.797 2.384 6.305 2.082 1.634-.11 3.932-1.37 4.1-1.832-.281-.266-.559-2.661-.588-2.912.203-.155.41-.308.607-.459.637-.49 1.709-1.701 1.709-1.701 0 0 1.068-1.965 1.316-3.256.253-1.319-.348-2.592-.365-3.193-.016-.555.288-1.079.33-1.633.056-.73-.104-2.193-.104-2.193l-4.182-1.787-5.766-.09z" fill="#d58070" transform="matrix(2.8373043 0 0 2.8373043 259.40813 -95.377438)"/>
    <path d="m304.14-31.979l.035-.014c.059-.148.049-.147.111-.301-.041.1-.106.216-.146.314z" fill="#4b3222" fill-rule="evenodd"/>
    <path d="m304.08-31.824c.021-.051.042-.103.063-.154l-.037.016-.025.139z" fill="#4b3222" fill-rule="evenodd"/>
    <path d="m302.81-28.375c0 0 .644-1.742 1.232-3.271l.033-.178c-.781 1.938-1.266 3.449-1.266 3.449z" fill="#4b3222" fill-rule="evenodd"/>
    <path d="m307.95-33.535l-3.104 3.297-1.34 1.426-.016.086 3.955 2.48-1.777 3.104c0 0 1.508 9.842 2.482 14.355.693 1.842 3.215 5.102 3.215 5.102l3.344-3.217c0 0 1.312-8.481-4.854-13.16.046-1.01.206-2.02.408-3.02.226-1.111.666-2.171.898-3.281.339-1.618.675-3.104.721-4.908 1.096-1.613 2.623-4.947 2.623-4.947l-6.557 2.68z" fill="#4b3222" fill-rule="evenodd"/>
    <path d="m335.27-55.21c-6.361.079-13.148 2.74-19.02 6.074-12.366 5.93-12.904 19.977-12.904 19.977l15.733-12.02 26.373.298 8.187 5.358c0 0 2.267-2.472 2.143-7.916-1.238-.061-3.02-1.276-5.59-4.635-4.03-5.262-9.311-7.204-14.924-7.135z" fill="#31271a" fill-rule="evenodd"/>
    <path d="m302.81-28.375c0 0 2.594-8.281 5.813-11.25 3.219-2.969 9.844-9.09 25.469-9.5 15.625-.406 18.844 7.188 18.969 11.188.125 4-9.156-4.188-9.156-4.188l-9.188-.344-18.281 2.5-12.987 11.217z" fill="#41413d" fill-rule="evenodd"/>
    <path d="m307.38-20.313c-.786-1.95-1.017-3.402.179-6.113 0 0-.878-1.444-2.719-2.169-2.197-.865-5.687-1.252-7.275-.994-.766-.491-.775-.723-2.428-.881-.727.753-1.366 1.752-1.543 2.932-.213 1.423.288 2.898.807 4.24 1.12 1.774 2.096 3.821 2.943 5.549.559.991 1.449 1.963 1.838 2.938 1.158.539 2.087 1.391 3.201 1.959 2.049.679 4.01 1.879 5.553 2.985 1.131-8.696-.974-5.412-.556-10.446z" fill="#d58070" fill-rule="evenodd"/>
    <path d="m295.12-24.2c-.488-.782-1.187-2.733.971-2.589 2.157.144 7.622 1.402 8.02 3.452-3.38-.971-7.359-2.085-8.989-.863z" fill="#9b5c4b" fill-rule="evenodd"/>
    <path d="m307.45-15.305c-.449-.945-1.576-2.797-1.271-3.712.314-.941.203-1.78.203-1.78 0 0-3.661 1.297-4.525 2.441 2.421.456 3.512 1.42 5.593 3.051z" fill="#9b5c4b" fill-rule="evenodd"/>
    <path d="m330.31-16.323c0 0 .155-2.385 4.602-.971 2.93.932 4.437-1.752 3.865-3.02-1.799-2-2.391-6.795-1.169-9.42 1.222-2.625 9.744-5.645 11.973-.611 2.229 5.03-2.085 5.142-2.085 5.142l-7.299.395c0 0-1.546 1.726 0 4.243 1.546 2.517 2.984 3.2.971 4.746-2.01 1.546-3.701 1.371-4.243 1.151-.11.543-1.752 1.529-2.198.011-.868-.214-1.274-.191-2.142-.196-2.448-.17-2.276-1.468-2.276-1.468z" fill="#9b5c4b" fill-rule="evenodd"/>
    <path d="m322.3-31.927c-.556.228-2.445 2.481-1.618 3.272 1.47 1.406 5.03 1.726 5.03 1.726 0 0 4.063 2.984 2.697 4.782-1.366 1.798 3.452-.072 3.452-1.582 0-1.51.579-5.288-2.115-7.35-1.18-.903-2.972-2.687-7.449-.847z" fill="#9b5c4b" fill-rule="evenodd"/>
    <path d="m23.75 23.936l.004 1.545c.697-.089.994-.564 1.059-.734-.034-.201-.268-.724-1.063-.811zm-1.092.1c-.768.173-.991.48-1.15.836.15.172.188.239.514.369.193.077.431.13.666.17z" fill="#eee" fill-rule="evenodd" transform="matrix(2.8373043 0 0 2.8373043 259.40831 -95.377438)"/>
    <path d="m29.779 23.959c-.025-.001-.054.009-.08.01l.18 1.504c.072.007.153.024.217.023.411-.002 1.061-.283 1.039-.662.029-.556-.653-.851-1.355-.875zm-.883.211c-.289.145-.524.355-.588.59.074.138.24.256.432.363z" fill="#eee" fill-rule="evenodd" transform="matrix(2.8373043 0 0 2.8373043 259.40831 -95.377438)"/>
    <path d="m324.17-11.613l10.682 2.616 6.386-.797 2.671-1.028c0 0-4.067.113-6.076-1.151-1.406.264-2.934.143-4.03-.252-2.859.433-9.636.611-9.636.611z" fill="#3e2620" fill-rule="evenodd"/>
    <path d="m324.71-11.469c3.438.718 5.343 1.204 8.126.971 1.929.489 2.88.595 4.386.467 2.775.523 5.501-.467 5.501-.467 0 0-1.067 2.575-4.351 2.265-1.515.182-1.676.061-3.38.108-2.359-.391-9.28-1.315-10.283-3.344z" fill="#a45548" fill-rule="evenodd"/>
    <path d="m326.61-27.5c-.346-.025-.728-.021-1.148.018-.688.063-1.243.157-1.744.266a2.589 2.589 0 0 0-.881 1.941 2.589 2.589 0 0 0  .955 2.01c.766.128 1.525.199 2.098.225.325.014.626 0 .904-.035a2.589 2.589 0 0 0 1.221-2.195 2.589 2.589 0 0 0-1.221-2.195c-.065-.007-.116-.024-.184-.029z" fill="#3f481b" fill-rule="evenodd"/>
    <path d="m343.64-27.387c-.733.023-1.535.232-2.23.578a2.337 2.337 0 0 0-.709 1.678 2.337 2.337 0 0 0  .26 1.07c.927.512 2.155.873 3.184.984a2.337 2.337 0 0 0 1.23-2.055 2.337 2.337 0 0 0-1.734-2.256z" fill="#3f481b" fill-rule="evenodd"/>
    <path d="m326.4-25.24a.935.935 0 0 1-.935.935.935.935 0 0 1-.935-.935.935.935 0 0 1  .935-.935.935.935 0 0 1  .935.935z" fill="#151602" fill-rule="evenodd"/>
    <path d="m343.83-25.24a.899.899 0 0 1-.899.899.899.899 0 0 1-.899-.899.899.899 0 0 1  .899-.899.899.899 0 0 1  .899.899z" fill="#151602" fill-rule="evenodd"/>
    <path d="m352.74-17.568c0 0-1.476 3.628-4.116 6.985-1.562 1.986-3.315 3.856-4.938 5.336-.954.87-2.781 1.739-5.708 3.32-3.33 1.304-7.03.916-9.9-.181-1.044-.534-2.957-1.766-2.957-1.766 0 0-.602.402-.949.447-2.161.279-6.537-1.219-6.537-1.219 0 0 .833 3.01 1.639 4.326.721 1.178 1.659 2.27 2.785 3.07 3.524 2.502 7.616 5.125 11.938 5.063 3.096-.045 8.08-3.465 8.84-3.994-.34-2.092-.514-4.225-.563-4.875.589-.449 1.169-.907 1.74-1.346 1.808-1.39 4.85-4.824 4.85-4.824 0 0 3.03-5.578 3.734-9.24.071-.37.113-.736.141-1.102z" fill="#9b5c4b" fill-rule="evenodd"/>
    <path d="m330.42-31.09c-1.353.063-3.058-1.819-5.104-1.613-3.357.338-5.323 2.314-6.342 2.386 1.658-1.678 3.618-4.718 7.535-4.662 2.375.034 4.318 2.588 3.911 3.889z" fill="#4b3222" fill-rule="evenodd"/>
    <path d="m339.54-31.505c-.522-.056-.533-4.159 4.419-3.624 2.352.254 5.558 2.945 5.568 4.486-.492.289-.482-2.51-5.502-2.353-1.733.054-3.056 1.615-4.486 1.492z" fill="#4b3222" fill-rule="evenodd"/>
    <path d="m353.86-29.649c0 0-1.682-9-16.57-10.216-11.882-.97-23.309 5.911-32.75 9.951 1.487-3.059 4.446-7.533 8.159-10.202 4.241-3.049 9.489-4.527 14.589-5.469 4.447-.822 9.629-1.199 13.974.057 4.102 1.186 6.669 2.671 9.91 5.451 1.834 1.573 4.106 3.816 4.719 5.502.214 1.106.067 2.388-.398 3.447-.29.66-1.633 1.479-1.633 1.479z" fill="#382d1e" fill-rule="evenodd"/>
  </g>
</svg>
