<svg viewBox="0 0 48 48" xmlns="http://www.w3.org/2000/svg" xmlns:xlink="http://www.w3.org/1999/xlink">
  <linearGradient id="a" gradientTransform="matrix(0 -1 1 0 -.0000015 47.999998)" gradientUnits="userSpaceOnUse" x1="1" x2="47">
    <stop offset="0" stop-color="#708290"/>
    <stop offset="1" stop-color="#7b8c99"/>
  </linearGradient>
  <path d="m47 24c0 22.703-.297 23-23 23-22.703 0-23-.297-23-23 0-22.703.297-23 23-23 22.703 0 23 .297 23 23z" fill="url(#a)"/>
  <path d="m31.969 12.156l-9.625.719c-1.569 2.046-1.832 4.434-1.844 6.094l-5.5.438v17.219l14 1.375 5-2.625v-14l-4.125-2.563h.219c.051-2.622.929-4.618 1.875-6.656z" fill-opacity=".098"/>
  <path d="m19.16 18.237c-.014-1.661.203-4.214 1.855-6.368l9.634-.706c-.946 2.038-1.846 4.02-1.896 6.644z" fill="#f9dfbd" stroke="#d7a16c" stroke-width=".327"/>
  <path d="m14 35.618l14 1.382 5-2.619v-13.994l-5-3.1-14 1.114z" fill="#252525"/>
  <path d="m20 18.199l2-.199v2.896l-2 .104z" fill="#adadae"/>
  <path d="m14.238 20.712l14.263-1.132 4.324 2.559" fill="none" stroke="#000" stroke-opacity=".235" stroke-width=".218"/>
  <path d="m21.04 18.513c-.259 0-.513.19-.513.449.007.182.087.37.192.385v1.218h.577v-1.218c.112-.086.192-.233.192-.385 0-.259-.19-.449-.449-.449z" fill="#5c5c5c"/>
  <path d="m23.21 16.16l2.589-2.727" fill="none" stroke="#2d2d2d" stroke-width=".871"/>
  <path d="m23.01 13.613l2.27 2.63" fill="none" stroke="#2d2d2d" stroke-width=".871"/>
  <path d="m32.846 20.79l-4.846-2.989-13.768 1.198" fill="none" stroke="#000" stroke-opacity=".235" stroke-width=".218"/>
  <path d="m19 29.718h1.351c-.004 1.62.283 1.719.763 1.732.622-.013.696-.862.675-1.762.005-1.312-.002-1.772-1.126-1.742v-1.341c.899.023 1.197-.173 1.184-1.693 0-.82.003-1.486-.705-1.478-.869.005-.697 1.049-.715 1.684l-1.37.02c-.022-1.428.261-3.26 2.173-3.259 2.038 0 2.055 1.793 2.036 3.093.017.9.048 1.872-.881 2.349.974.34.852 1.669.852 2.604.066 2.725-1.351 3.135-2.144 3.142-.521.011-2.081-.5-2.085-2.222z" fill="#f9f9f9"/>
</svg>
