<svg viewBox="0 0 48 48" xmlns="http://www.w3.org/2000/svg" xmlns:xlink="http://www.w3.org/1999/xlink">
  <linearGradient id="a" gradientUnits="userSpaceOnUse" x1="24.08" x2="23.914" y1="46.924" y2="1.165">
    <stop offset="0" stop-color="#ffe57d"/>
    <stop offset="1" stop-color="#ffe991"/>
  </linearGradient>
  <path d="m24 1c22.703 0 23 .297 23 23 0 22.703-.297 23-23 23-22.703 0-23-.297-23-23 0-22.703.297-23 23-23z" fill="url(#a)"/>
  <g fill-rule="evenodd" opacity=".1" transform="matrix(1.1538462 0 0 1.1538462 -2.6923082 -2.6923094)">
    <path d="m14.808 14.808l5.745 9.192-5.745 9.192 9.192-5.745 9.192 5.745-5.745-9.192 5.745-9.192-9.192 5.745z"/>
    <path d="m24 11v13l2.4375-2.4375z"/>
    <path d="m24 24v13l-2.4375-10.5625z"/>
    <path d="m24 24h13l-10.5625 2.4375z"/>
    <path d="m24 24l-2.4375-2.4375-10.5625 2.4375z"/>
    <path d="m24 11l-2.4375 10.5625-10.5625 2.4375 10.5625 2.4375 2.4375 10.5625 2.4375-10.5625 10.5625-2.4375-10.5625-2.4375z"/>
  </g>
  <g fill-rule="evenodd" transform="matrix(1.1538462 0 0 1.1538462 -3.6923082 -3.6923088)">
    <path d="m14.808 14.808l5.745 9.192-5.745 9.192 9.192-5.745 9.192 5.745-5.745-9.192 5.745-9.192-9.192 5.745z" fill="#6c5353"/>
    <path d="m24 11v13l2.4375-2.4375z" fill="#917c6f"/>
    <path d="m24 24v13l-2.4375-10.5625z" fill="#917c6f"/>
    <path d="m24 24h13l-10.5625 2.4375z" fill="#917c6f"/>
    <path d="m24 24l-2.4375-2.4375-10.5625 2.4375z" fill="#917c6f"/>
    <path d="m24 11l-2.4375 10.5625-10.5625 2.4375 10.5625 2.4375 2.4375 10.5625 2.4375-10.5625 10.5625-2.4375-10.5625-2.4375z" fill="#c8beb7"/>
    <path d="m24 11v13l2.4375-2.4375z" fill="#917c6f"/>
    <path d="m24 24v13l-2.4375-10.5625z" fill="#917c6f"/>
    <path d="m24 24h13l-10.5625 2.4375z" fill="#917c6f"/>
    <path d="m24 24l-2.4375-2.4375-10.5625 2.4375z" fill="#917c6f"/>
  </g>
</svg>
