<svg xmlns="http://www.w3.org/2000/svg" viewBox="0 0 48 48">
 <defs>
  <linearGradient id="linearGradient3764" x1="1" x2="47" gradientUnits="userSpaceOnUse" gradientTransform="matrix(0,-1,1,0,-1.5e-6,47.999998)">
   <stop style="stop-color:#f4c830;stop-opacity:1"/>
   <stop offset="1" style="stop-color:#f5ce44;stop-opacity:1"/>
  </linearGradient>
 </defs>
 <g>
  
  
  
 </g>
 <g>
  <path d="m 47,24 C 47,46.703 46.703,47 24,47 1.297,47 1,46.703 1,24 1,1.297 1.297,1 24,1 46.703,1 47,1.297 47,24 z" style="fill:url(#linearGradient3764);fill-opacity:1"/>
 </g>
 <g>
  <g>
   <g transform="translate(1,1)">
    <g style="opacity:0.1">
     <!-- color: #f5ce44 -->
     <g>
      <path d="m 24 9 c -8.285 0 -15 6.715 -15 15 c 0 8.285 6.715 15 15 15 c 8.285 0 15 -6.715 15 -15 c 0 -8.285 -6.715 -15 -15 -15 m 0 1.5 c 7.449 0 13.5 6.05 13.5 13.5 c 0 7.449 -6.05 13.5 -13.5 13.5 c -7.449 0 -13.5 -6.05 -13.5 -13.5 c 0 -7.449 6.05 -13.5 13.5 -13.5 m 0 0" style="fill:#000;fill-opacity:1;stroke:none;fill-rule:nonzero"/>
      <path d="m 24.738 33.33 c 1.332 0.398 3.996 -0.797 5.391 -2.586" style="stroke-opacity:1;fill:#000;stroke-miterlimit:4;stroke:#2d2d2d;stroke-linecap:butt;stroke-linejoin:miter;stroke-width:1"/>
      <path d="m 11.375 20.598 c 1.422 -0.656 3.48 -1.105 5.559 -1.172 c 2.289 0.055 5.113 0.023 6.277 0.887 l 2.289 -0.023 c 0.629 -1.01 2.582 -1.246 4.957 -1.246 l -0.352 1.039 l 0.84 0.078 l -2.164 3.281 l 0.027 0.586 l 3.543 -2.465 l -0.484 -0.84 c 1.238 -1.242 1.148 -1.254 1.781 -1.984 c 0.855 0.07 1.688 0.195 2.414 0.535 c -0.016 1.813 0.199 3.652 -0.914 5.34 c -1.539 1.063 -3.578 1.809 -8.184 0.863 c -0.52 -0.141 -1.242 -1.809 -1.625 -2.883 c -0.191 -0.777 -2.047 -0.754 -2.211 0.063 c -0.492 1.016 -0.898 2.652 -1.477 2.949 c -2.645 1.406 -7.363 1.262 -8.516 0.582 c -1.297 -0.605 -1.855 -3.992 -1.773 -5.586 m 0.012 -0.004" style="fill:#000;fill-opacity:1;stroke:none;fill-rule:nonzero"/>
     </g>
    </g>
   </g>
  </g>
 </g>
 <g>
  <g>
   <!-- color: #f5ce44 -->
   <g>
    <path d="m 24 9 c -8.285 0 -15 6.715 -15 15 c 0 8.285 6.715 15 15 15 c 8.285 0 15 -6.715 15 -15 c 0 -8.285 -6.715 -15 -15 -15 m 0 1.5 c 7.449 0 13.5 6.05 13.5 13.5 c 0 7.449 -6.05 13.5 -13.5 13.5 c -7.449 0 -13.5 -6.05 -13.5 -13.5 c 0 -7.449 6.05 -13.5 13.5 -13.5 m 0 0" style="fill:#2d2d2d;fill-opacity:1;stroke:none;fill-rule:nonzero"/>
    <path d="m 24.738 33.33 c 1.332 0.398 3.996 -0.797 5.391 -2.586" style="stroke-opacity:1;fill:none;stroke-miterlimit:4;stroke:#2d2d2d;stroke-linecap:butt;stroke-linejoin:miter;stroke-width:1"/>
    <path d="m 11.375 20.598 c 1.422 -0.656 3.48 -1.105 5.559 -1.172 c 2.289 0.055 5.113 0.023 6.277 0.887 l 2.289 -0.023 c 0.629 -1.01 2.582 -1.246 4.957 -1.246 l -0.352 1.039 l 0.84 0.078 l -2.164 3.281 l 0.027 0.586 l 3.543 -2.465 l -0.484 -0.84 c 1.238 -1.242 1.148 -1.254 1.781 -1.984 c 0.855 0.07 1.688 0.195 2.414 0.535 c -0.016 1.813 0.199 3.652 -0.914 5.34 c -1.539 1.063 -3.578 1.809 -8.184 0.863 c -0.52 -0.141 -1.242 -1.809 -1.625 -2.883 c -0.191 -0.777 -2.047 -0.754 -2.211 0.063 c -0.492 1.016 -0.898 2.652 -1.477 2.949 c -2.645 1.406 -7.363 1.262 -8.516 0.582 c -1.297 -0.605 -1.855 -3.992 -1.773 -5.586 m 0.012 -0.004" style="fill:#2d2d2d;fill-opacity:1;stroke:none;fill-rule:nonzero"/>
   </g>
  </g>
 </g>
 <g>
  
 </g>
</svg>
