<svg xmlns="http://www.w3.org/2000/svg" viewBox="0 0 48 48">
 <defs>
  <linearGradient id="linearGradient3847" x1="1" x2="47" gradientUnits="userSpaceOnUse">
   <stop style="stop-color:#2662af;stop-opacity:1"/>
   <stop offset="1" style="stop-color:#296bbf;stop-opacity:1"/>
  </linearGradient>
 </defs>
 <g>
  
  
  
 </g>
 <g transform="matrix(0,-1,1,0,0,48)" style="fill:url(#linearGradient3847);fill-opacity:1">
  <path d="M 24,1 C 46.703,1 47,1.297 47,24 47,46.703 46.703,47 24,47 1.297,47 1,46.703 1,24 1,1.297 1.297,1 24,1 z"/>
 </g>
 <g>
  <g>
   <g transform="translate(1,1)">
    <g style="opacity:0.1">
     <!-- color: #4f7389 -->
     <g>
      <path d="m 36 23 c 0 4.418 -4.926 8 -11 8 c -6.074 0 -11 -3.582 -11 -8 c 0 -4.418 4.926 -8 11 -8 c 6.074 0 11 3.582 11 8 m 0 0" style="fill:#000;fill-opacity:1;stroke:none;fill-rule:nonzero"/>
      <path d="m 19 22 c 0 0.551 -0.449 1 -1 1 c -0.551 0 -1 -0.449 -1 -1 c 0 -0.551 0.449 -1 1 -1 c 0.551 0 1 0.449 1 1 m 0 0" style="fill:#000;fill-opacity:1;stroke:none;fill-rule:nonzero"/>
      <path d="m 19 27 l 0 3.883 c 0 2.816 3 2.816 3 0.027 l 0 -3.715 m -3 -0.195" style="fill:#000;fill-opacity:1;stroke:none;fill-rule:nonzero"/>
      <path d="m 27 27 l 0 3.883 c 0 2.816 3 2.816 3 0.027 l 0 -3.715 m -3 -0.195" style="fill:#000;fill-opacity:1;stroke:none;fill-rule:nonzero"/>
      <path d="m 21.711 17.824 c 2.84 -1.09 4.734 -1.09 7.578 0 c 0.945 0.363 0.945 1.523 0 1.086 c -2.844 -1.086 -4.738 -1.086 -7.578 0 c -0.945 0.391 -0.945 -0.699 0 -1.086 m 0 0" style="fill:#000;fill-opacity:1;stroke:none;fill-rule:nonzero"/>
      <path d="m 16 19 c -0.996 -0.758 -1.996 -2 -1.996 -3 c 3 -0.996 4 -0.301 5 1 m -3 2" style="fill:#000;fill-opacity:1;stroke:none;fill-rule:nonzero"/>
      <path d="m 14 23 c -1 0 -2 0.457 -2 1 c 0 1.25 0 3 1.5 3 c 1.086 0 2.5 -0.27 2.5 -1 m -2 -3" style="fill:#000;fill-opacity:1;stroke:none;fill-rule:nonzero"/>
     </g>
    </g>
   </g>
  </g>
 </g>
 <path d="m 36 23 c 0 4.418 -4.926 8 -11 8 -6.074 0 -11 -3.582 -11 -8 0 -4.418 4.926 -8 11 -8 6.074 0 11 3.582 11 8 m 0 0" style="fill:#353535;fill-opacity:1;stroke:none;fill-rule:nonzero"/>
 <path d="m 19 22 c 0 0.551 -0.449 1 -1 1 -0.551 0 -1 -0.449 -1 -1 0 -0.551 0.449 -1 1 -1 0.551 0 1 0.449 1 1 m 0 0" style="fill:#f9f9f9;fill-opacity:1;stroke:none;fill-rule:nonzero"/>
 <path d="m 19,27 0,3.883 c 0,2.816 3,2.816 3,0.027 l 0,-3.715 M 19,27" style="fill:#353535;fill-opacity:1;stroke:none;fill-rule:nonzero"/>
 <path d="m 27,27 0,3.883 c 0,2.816 3,2.816 3,0.027 l 0,-3.715 M 27,27" style="fill:#353535;fill-opacity:1;stroke:none;fill-rule:nonzero"/>
 <path d="m 16 19 c -0.996 -0.758 -1.996 -2 -1.996 -3 3 -0.996 4 -0.301 5 1 m -3 2" style="fill:#353535;fill-opacity:1;stroke:none;fill-rule:nonzero"/>
 <path d="m 14 23 c -1 0 -2 0.457 -2 1 0 1.25 0 3 1.5 3 1.086 0 2.5 -0.27 2.5 -1 m -2 -3" style="fill:#353535;fill-opacity:1;stroke:none;fill-rule:nonzero"/>
 <g>
  
 </g>
</svg>
