<svg viewBox="0 0 48 48" xmlns="http://www.w3.org/2000/svg" xmlns:xlink="http://www.w3.org/1999/xlink">
  <linearGradient id="a" gradientTransform="matrix(0 -1 1 0 -.0000015 47.999998)" gradientUnits="userSpaceOnUse" x1="1" x2="47">
    <stop offset="0" stop-color="#f4c830"/>
    <stop offset="1" stop-color="#f5ce44"/>
  </linearGradient>
  <path d="m47 24c0 22.703-.297 23-23 23-22.703 0-23-.297-23-23 0-22.703.297-23 23-23 22.703 0 23 .297 23 23z" fill="url(#a)"/>
  <g opacity=".1" transform="translate(1 1)">
    <path d="m24 9c-8.285 0-15 6.715-15 15 0 8.285 6.715 15 15 15 8.285 0 15-6.715 15-15 0-8.285-6.715-15-15-15m0 1.5c7.449 0 13.5 6.05 13.5 13.5 0 7.449-6.05 13.5-13.5 13.5-7.449 0-13.5-6.05-13.5-13.5 0-7.449 6.05-13.5 13.5-13.5m0 0"/>
    <path d="m24.738 33.33c1.332.398 3.996-.797 5.391-2.586" stroke="#2d2d2d"/>
    <path d="m11.375 20.598c1.422-.656 3.48-1.105 5.559-1.172 2.289.055 5.113.023 6.277.887l2.289-.023c.629-1.01 2.582-1.246 4.957-1.246l-.352 1.039.84.078-2.164 3.281.027.586 3.543-2.465-.484-.84c1.238-1.242 1.148-1.254 1.781-1.984.855.07 1.688.195 2.414.535-.016 1.813.199 3.652-.914 5.34-1.539 1.063-3.578 1.809-8.184.863-.52-.141-1.242-1.809-1.625-2.883-.191-.777-2.047-.754-2.211.063-.492 1.016-.898 2.652-1.477 2.949-2.645 1.406-7.363 1.262-8.516.582-1.297-.605-1.855-3.992-1.773-5.586m.012-.004"/>
  </g>
  <path d="m24 9c-8.285 0-15 6.715-15 15 0 8.285 6.715 15 15 15 8.285 0 15-6.715 15-15 0-8.285-6.715-15-15-15m0 1.5c7.449 0 13.5 6.05 13.5 13.5 0 7.449-6.05 13.5-13.5 13.5-7.449 0-13.5-6.05-13.5-13.5 0-7.449 6.05-13.5 13.5-13.5m0 0" fill="#2d2d2d"/>
  <path d="m24.738 33.33c1.332.398 3.996-.797 5.391-2.586" fill="none" stroke="#2d2d2d"/>
  <path d="m11.375 20.598c1.422-.656 3.48-1.105 5.559-1.172 2.289.055 5.113.023 6.277.887l2.289-.023c.629-1.01 2.582-1.246 4.957-1.246l-.352 1.039.84.078-2.164 3.281.027.586 3.543-2.465-.484-.84c1.238-1.242 1.148-1.254 1.781-1.984.855.07 1.688.195 2.414.535-.016 1.813.199 3.652-.914 5.34-1.539 1.063-3.578 1.809-8.184.863-.52-.141-1.242-1.809-1.625-2.883-.191-.777-2.047-.754-2.211.063-.492 1.016-.898 2.652-1.477 2.949-2.645 1.406-7.363 1.262-8.516.582-1.297-.605-1.855-3.992-1.773-5.586m.012-.004" fill="#2d2d2d"/>
</svg>
