<svg xmlns="http://www.w3.org/2000/svg" viewBox="0 0 48 48">
 <defs>
  <linearGradient id="linearGradient3829" x1="1" x2="47" gradientUnits="userSpaceOnUse">
   <stop style="stop-color:#ff9710;stop-opacity:1"/>
   <stop offset="1" style="stop-color:#ffa025;stop-opacity:1"/>
  </linearGradient>
 </defs>
 <g>
  
  
  
 </g>
 <g transform="matrix(0,-1,1,0,0,48)" style="fill:url(#linearGradient3829);fill-opacity:1">
  <path d="M 24,1 C 46.703,1 47,1.297 47,24 47,46.703 46.703,47 24,47 1.297,47 1,46.703 1,24 1,1.297 1.297,1 24,1 z"/>
 </g>
 <g>
  
 </g>
 <path d="m 16 37 4 0 0 -8 6 0 3 8 5 0 -4 -9 c 6 0 6 -15 -1 -15 l -13 0 0 8 4 0 0 -4 6 0 c 6 0 6 8 0 8 l -10 0 z" style="fill:#000;opacity:0.1;fill-opacity:1;stroke:none"/>
 <path d="m 15 36 4 0 0 -8 6 0 3 8 5 0 -4 -9 c 6 0 6 -15 -1 -15 l -13 0 0 8 4 0 0 -4 6 0 c 6 0 6 8 0 8 l -10 0 z" style="fill:#f9f9f9;fill-opacity:1;stroke:none"/>
</svg>
