<svg viewBox="0 0 48 48" xmlns="http://www.w3.org/2000/svg">
  <path d="m24 1c22.703 0 23 .297 23 23 0 22.703-.297 23-23 23-22.703 0-23-.297-23-23 0-22.703.297-23 23-23z" fill="#a1d4e5"/>
  <path d="m30.864 8a1.382 1.375 0 0 0-1.157.62l-2.16 3.276a1.382 1.375 0 0 0-.201 1.012l1.308 6.863-.397 10.281c-.452-.539-.838-1.167-1.162-1.944l.159-.22a1.382 1.375 0 0 0  .226-1.098l-.668-3.02a1.382 1.375 0 0 0-.995-1.032l-.771-.206a1.382 1.375 0 0 0-1.609.751c-.867 1.866-1.747 3.618-2.677 4.897-.245.337-.488.634-.732.895.637-3.543 1.787-7.114 2.758-10.803a1.382 1.375 0 0 0-2.518-1.062l-2.467 4.04a1.382 1.375 0 0 0-.109.217l-1.953 5.02a1.382 1.375 0 0 0-.042.122c-1.014 3.553-1.221 6.566-1.682 9.588a1.382 1.375 0 0 0 1.137 1.563l.618.103a1.382 1.375 0 0 0 1.607-1.274c0 .007.365-.749 1.425-1.602.807-.649 1.972-1.387 3.258-2.15.789 1.357 1.673 2.605 2.694 3.565.667.628 1.404 1.145 2.272 1.418.867.273 1.885.246 2.78-.172a1.382 1.375 0 0 0  .112-.061c1.099-.643 2.168-1.396 2.825-2.714.657-1.318.913-2.982 1.039-5.623.278-5.819.339-12.639-.103-17.194a1.382 1.375 0 0 0-.142-.492l-1.442-2.814a1.382 1.375 0 0 0-1.229-.751zm0 1.374l1.439 2.817c.428 4.408.373 11.217.098 16.993-.245 5.14-1.086 5.991-3.183 7.219-2.365 1.107-4.798-1.946-6.636-5.478-3.711 2.088-6.487 4.04-6.583 5.581l-.617-.103c.472-3.092.675-6.02 1.646-9.419l1.953-5.02 2.47-4.04c-1.208 4.593-2.774 9.131-3.188 13.821 2.831-.616 4.677-4.112 6.429-7.884l.771.206.668 3.02-.592.818c.844 2.482 2.262 3.869 3.987 5.069l.514-13.312-1.336-7.01 2.16-3.276z" opacity=".1"/>
  <path d="m29.864 7a1.382 1.375 0 0 0-1.157.62l-2.16 3.276a1.382 1.375 0 0 0-.201 1.012l1.308 6.863-.397 10.281c-.452-.539-.838-1.167-1.162-1.944l.159-.22a1.382 1.375 0 0 0  .226-1.098l-.668-3.02a1.382 1.375 0 0 0-.995-1.032l-.771-.206a1.382 1.375 0 0 0-1.609.751c-.867 1.866-1.747 3.618-2.677 4.897-.245.337-.488.634-.732.895.637-3.543 1.787-7.114 2.758-10.803a1.382 1.375 0 0 0-2.518-1.062l-2.467 4.04a1.382 1.375 0 0 0-.109.217l-1.953 5.02a1.382 1.375 0 0 0-.042.122c-1.014 3.553-1.221 6.566-1.682 9.588a1.382 1.375 0 0 0 1.137 1.563l.618.103a1.382 1.375 0 0 0 1.607-1.274c0 .007.365-.749 1.425-1.602.807-.649 1.972-1.387 3.258-2.15.789 1.357 1.673 2.605 2.694 3.565.667.628 1.404 1.145 2.272 1.418.867.273 1.885.246 2.78-.172a1.382 1.375 0 0 0  .112-.061c1.099-.643 2.168-1.396 2.825-2.714.657-1.318.913-2.982 1.039-5.623.278-5.819.339-12.639-.103-17.194a1.382 1.375 0 0 0-.142-.492l-1.442-2.814a1.382 1.375 0 0 0-1.229-.751zm0 1.374l1.439 2.817c.428 4.408.373 11.217.098 16.993-.245 5.14-1.086 5.991-3.183 7.219-2.365 1.107-4.798-1.946-6.636-5.478-3.711 2.088-6.487 4.04-6.583 5.581l-.617-.103c.472-3.092.675-6.02 1.646-9.419l1.953-5.02 2.47-4.04c-1.208 4.593-2.774 9.131-3.188 13.821 2.831-.616 4.677-4.112 6.429-7.884l.771.206.668 3.02-.592.818c.844 2.482 2.262 3.869 3.987 5.069l.514-13.312-1.336-7.01 2.16-3.276z" fill="#f9f9f9"/>
  <path d="m20.451 16.923l-2.469 4.04-1.955 5.02c-.971 3.402-1.174 6.327-1.646 9.419l.617.102c.096-1.545 2.873-3.492 6.584-5.58 1.838 3.532 4.27 6.584 6.635 5.477 2.096-1.228 2.939-2.079 3.184-7.219.276-5.777.331-12.587-.098-16.995l-1.44-2.816-2.16 3.276 1.337 7.01-.514 13.31c-1.725-1.2-3.142-2.586-3.986-5.068l.592-.819-.669-3.02-.772-.205c-1.752 3.771-3.598 7.268-6.43 7.883.414-4.689 1.981-9.229 3.189-13.822z" fill="#215f5a"/>
</svg>
