<svg xmlns="http://www.w3.org/2000/svg" viewBox="0 0 48 48">
 <defs>
  <linearGradient id="linearGradient3764" x1="1" x2="47" gradientUnits="userSpaceOnUse" gradientTransform="matrix(0,-1,1,0,-1.5e-6,47.999998)">
   <stop style="stop-color:#eda10f;stop-opacity:1"/>
   <stop offset="1" style="stop-color:#f1ab1e;stop-opacity:1"/>
  </linearGradient>
  <linearGradient id="linear0" gradientUnits="userSpaceOnUse" x1="12" x2="36" gradientTransform="matrix(1,0,0,1,-0.0011793,0.00236185)">
   <stop style="stop-color:#282828;stop-opacity:1"/>
   <stop offset="1" style="stop-color:#424242;stop-opacity:1"/>
  </linearGradient>
 </defs>
 <g>
  
  
  
 </g>
 <g>
  <path d="m 47,24 C 47,46.703 46.703,47 24,47 1.297,47 1,46.703 1,24 1,1.297 1.297,1 24,1 46.703,1 47,1.297 47,24 z" style="fill:url(#linearGradient3764);fill-opacity:1"/>
 </g>
 <g>
  <g>
   <g transform="translate(1,1)">
    <g style="opacity:0.1">
     <!-- color: #f1ab1e -->
     <g>
      <path d="m 11.996 12 l 0 6 l 3 0 l 0 18 l 18 0 l 0 -18 l 3 0 l 0 -6 m -24 0" style="fill:#000;stroke:none;fill-rule:evenodd"/>
     </g>
    </g>
   </g>
  </g>
 </g>
 <g>
  <g>
   <!-- color: #f1ab1e -->
   <g>
    <path d="m 11.996 12 l 0 6 l 3 0 l 0 18 l 18 0 l 0 -18 l 3 0 l 0 -6 m -24 0" style="fill:url(#linear0);stroke:none;fill-rule:evenodd"/>
   </g>
  </g>
 </g>
 <g>
  
 </g>
</svg>
