<svg viewBox="0 0 48 48" xmlns="http://www.w3.org/2000/svg" xmlns:xlink="http://www.w3.org/1999/xlink">
  <linearGradient id="a" gradientUnits="userSpaceOnUse" x2="0" y1="47" y2="1">
    <stop offset="0" stop-color="#fc0"/>
    <stop offset="1" stop-color="#ffd015"/>
  </linearGradient>
  <path d="m24 1c22.703 0 23 .297 23 23 0 22.703-.297 23-23 23-22.703 0-23-.297-23-23 0-22.703.297-23 23-23z" fill="url(#a)"/>
  <path d="m24.15 10.314c-1.431-.002-2.844.216-4.143.686-2.216.802-5 5-5 5 0 0-1.09 4.645-1 7 .118 3.071 2 9 2 9l7 6h9.994l2-8-.426-1.277 1.432-3.723v-7c0 0-2.695-4.79-5-6-2.038-1.069-4.472-1.682-6.857-1.686z" fill-rule="evenodd" opacity=".1" transform=""/>
  <g fill-rule="evenodd" transform="translate(.00028169)">
    <path d="m15.01 31c0 0-1.882-5.929-2-9-.09-2.355 1-7 1-7 0 0 2.784-4.198 5-5 3.462-1.253 7.74-.711 11 1 2.305 1.21 5 6 5 6v7l-5 13h-8z" fill="#93aca7"/>
    <path d="m23.15 9.314c-1.431-.002-2.844.216-4.143.686-2.216.802-5 5-5 5 0 0-1.09 4.645-1 7 .118 3.071 2 9 2 9l3.818 3.271c0 0-.979-13.856 1.18-20.271.6-1.783 3.145-4.686 3.145-4.686z" fill="#f9f9f9" opacity=".2"/>
    <path d="m16 23l15 3 4-2 .006-3-3.006 1-10.5-3.5z" fill="#6f918a"/>
    <path d="m21.01 21l .997 2 7.07 1.157-.073-2.157" fill="#57e0ff"/>
    <path d="m15.01 31l .994-8 3 6 8 2-5 6z" fill="#536c67"/>
    <path d="m21 19l8 1h5.994v-3l-1 1h-5l-7.5-1.5-4.5.5-1.86-3.545-1.14 1.545 2 6z" fill="#6f918a"/>
    <path d="m21 21l8 1h3l3-1-.006-3-1 2h-5l-7.5-1.5-5.5.5-2-4-.601 3.03 2.601 4.968" fill="#536c67"/>
    <path d="m23.15 9.314c-.097 0 5.616 3.744 6.855 6.686 2.719 6.45 0 21 0 21l5-13v-7c0 0-2.695-4.79-5-6-2.037-1.069-4.472-1.682-6.857-1.686" opacity=".3"/>
    <path d="m35.01 21l-.003 2-3 1 .003-2z" fill="#57e0ff"/>
    <path d="m22 37l1-4 4.994-7h4l-8.994 11" fill="#6f918a"/>
    <path d="m23 37l .994-4 5.01-7h4l1 3-2 8z" fill="#536c67"/>
  </g>
</svg>
