<svg viewBox="0 0 48 48" xmlns="http://www.w3.org/2000/svg" xmlns:xlink="http://www.w3.org/1999/xlink">
  <linearGradient id="a" gradientTransform="matrix(0 -1 1 0 -.0000015 47.999998)" gradientUnits="userSpaceOnUse" x1="1" x2="47">
    <stop offset="0" stop-color="#61c963"/>
    <stop offset="1" stop-color="#70ce72"/>
  </linearGradient>
  <path d="m47 24c0 22.703-.297 23-23 23-22.703 0-23-.297-23-23 0-22.703.297-23 23-23 22.703 0 23 .297 23 23z" fill="url(#a)"/>
  <path d="m25.559 11v .002c-1.626-.085-2.544 1.259-3.242 3.082a2.738 2.738 0 0 0-1.729-.617 2.738 2.738 0 0 0-2.738 2.738 2.738 2.738 0 0 0  2.738 2.738 2.738 2.738 0 0 0  .184-.008c-.69 1.968-1.256 2.942-1.5 4.678-.062.442-.055.897-.031 1.355-.394.112-.721.297-.906.555-.388.541-.188 1.714-.199 3.107-.009 1.134.109 2.3.076 3.557-.009.334-.005.624-.002.918-.172 1.313-.348 2.754-.539 4.221 2.156 1.07 4.584 1.672 7.154 1.672 2.712 0 5.266-.671 7.51-1.854-.353-1.259-.697-2.438-.994-3.34-1.214-3.681-1.941-11.303-1.941-11.303 0 0 .016-.881-.031-1.951-.002-.047-.006-.108-.008-.156a3.22 3.084 0 0 0 2.867-3.063 3.22 3.084 0 0 0-3.221-3.084 3.22 3.084 0 0 0-.459.035c-.536-1.796-1.433-3.202-2.988-3.283z" fill-rule="evenodd" opacity=".1" transform="matrix(.99999999 0 0 .99999999 .00000012 0)"/>
  <path d="m22.326 15.311a2.738 2.738 0 0 1-2.738 2.739 2.738 2.738 0 0 1-2.738-2.739 2.738 2.738 0 0 1  2.738-2.738 2.738 2.738 0 0 1  2.738 2.738z" fill="#eee" fill-rule="evenodd"/>
  <path d="m20.936 12.93c.52.52.814 1.229.814 1.965-.001 1.532-1.243 2.774-2.775 2.773-.375-.001-.759-.079-1.104-.227a2.738 2.738 0 0 0 1.717.607 2.738 2.738 0 0 0  2.738-2.738 2.738 2.738 0 0 0-1.391-2.381z" fill="#ddd" fill-rule="evenodd"/>
  <g fill-rule="evenodd" transform="matrix(.59175505 0 0 .59175505 -24.197456 1.7997378)">
    <path d="m18.313 13.02c-.098-.015-.214.038-.326.078a2.738 2.738 0 0 0-.002 0 2.738 2.738 0 0 0-.783.879c0 0 0 .002 0 .002-.027.165-.064.341.055.441.313.264.823.175 1.141-.201.317-.376.319-.894.006-1.158-.028-.023-.057-.036-.09-.041z" fill="#5d502d" transform="matrix(1.6898884 0 0 1.6898884 40.891 -3.041356)"/>
    <ellipse cx="66.01" cy="-32.867" fill="#333" rx=".367" ry=".484" transform="matrix(.7397866 .67284158 -.67284158 .7397866 0 0)"/>
  </g>
  <path d="m24.557 10.11c-2.545-.133-3.363 3.222-4.304 6.464-.907 3.128-1.683 4.01-1.983 6.145-.191 1.356.185 2.849.134 4.105-.055 1.338-.8 2.6-.986 3.809-.239 1.553-.481 3.727-.75 5.799 2.156 1.07 4.584 1.673 7.154 1.673 2.712 0 5.266-.672 7.509-1.855-.353-1.259-.697-2.439-.994-3.34-1.214-3.681-1.94-11.298-1.94-11.298 0 0 .015-.882-.031-1.953-.141-3.206-.495-9.378-3.809-9.551z" fill="#b53060" fill-rule="evenodd"/>
  <path d="m26.291 10.855c.129.698.398 2.277.502 4.762.153 3.639-.016 8.412.301 11.408.352 3.332 1.418 9.02 1.643 10.209.902-.289 1.77-.654 2.596-1.09-.353-1.259-.697-2.439-.994-3.34-1.214-3.681-1.941-11.297-1.941-11.297 0 0 .016-.883-.031-1.953-.111-2.523-.36-6.872-2.074-8.699z" fill="#953061" fill-rule="evenodd"/>
  <g fill-rule="evenodd" transform="matrix(.59175505 0 0 .59175505 -24.197456 1.7997378)">
    <path d="m93.66 24.737a5.441 5.212 0 0 1-5.441 5.212 5.441 5.212 0 0 1-5.441-5.212 5.441 5.212 0 0 1  5.441-5.212 5.441 5.212 0 0 1  5.441 5.212z" fill="#eee"/>
    <path d="m90.73 20.12c1.175.988 1.867 2.397 1.868 3.895 0 2.884-2.459 5.221-5.492 5.221-.732-.002-1.588-.155-2.281-.426a5.441 5.212 0 0 0 3.39 1.139 5.441 5.212 0 0 0  5.443-5.212 5.441 5.212 0 0 0-2.928-4.617z" fill="#ddd"/>
    <ellipse cx="60.29" cy="65.943" fill="#5d502d" rx="1.238" ry="1.418" transform="matrix(.86029072 -.50980376 .50980376 .86029072 0 0)"/>
    <ellipse cx="39.41" cy="80.1" fill="#333" rx=".508" ry=".585" transform="matrix(.68336057 -.73008105 .73008105 .68336057 0 0)"/>
  </g>
  <path d="m19.996 22.661c-.509-.026-1.081.002-1.726.092-.057.427-.012.872.009 1.314.019-.005.024-.022.044-.027.437-.107.959-.118 1.496-.014.536.104 1.088.322 1.585.676.497.354.938.843 1.256 1.486.858 1.736 1.504 2.702 2.121 3.7-.078-.829-.084-1.601-.17-1.941-.579-2.292-1.051-5.106-4.615-5.288z" fill="#352322" fill-rule="evenodd"/>
  <path d="m25.717 31.523c0 0-1.82-2.831-3.057-5.333-1.272-2.573-4.528-2.673-5.326-1.56-.388.541-.187 1.714-.198 3.107-.009 1.134.107 2.3.075 3.556-.193 7.376 2.655 4.507 2.655 4.507l5.298-.106 1.191-1.787z" fill="#b53060" fill-rule="evenodd"/>
</svg>
