<svg xmlns="http://www.w3.org/2000/svg" viewBox="0 0 48 48">
 <defs>
  <linearGradient id="linearGradient3764" x1="1" x2="47" gradientUnits="userSpaceOnUse" gradientTransform="matrix(0,-1,1,0,-1.5e-6,47.999998)">
   <stop style="stop-color:#3a3a3a;stop-opacity:1"/>
   <stop offset="1" style="stop-color:#444;stop-opacity:1"/>
  </linearGradient>
 </defs>
 <g>
  
  
  
 </g>
 <g>
  <path d="m 47,24 C 47,46.703 46.703,47 24,47 1.297,47 1,46.703 1,24 1,1.297 1.297,1 24,1 46.703,1 47,1.297 47,24 z" style="fill:url(#linearGradient3764);fill-opacity:1"/>
  <path d="m 5.73 10.03 c -0.489 0.639 -0.948 1.303 -1.369 1.992 c 13.965 9.07 23.904 23.826 28.752 33.1 c 0.544 -0.235 1.075 -0.491 1.596 -0.766 c -1.955 -3.778 -4.433 -8.285 -5.803 -10.516 c 0.07 -0.039 0.148 -0.055 0.219 -0.094 l 3.03 2.313 l -1.344 -3.563 c 0.742 -0.668 1.398 -1.414 1.906 -2.281 l 3.813 0.469 l -2.969 -2.438 c 0.285 -0.91 0.465 -1.871 0.469 -2.875 l 3.469 -1.406 l -3.688 -0.688 c -0.211 -0.98 -0.551 -1.906 -1.031 -2.75 c 0.754 -0.961 2.309 -2.922 2.375 -3 c 0.063 -0.078 -2.395 0.82 -3.656 1.281 c -0.66 -0.723 -1.428 -1.348 -2.279 -1.844 l 0.5 -3.75 l -2.471 2.875 c -0.902 -0.285 -1.852 -0.435 -2.844 -0.439 l -1.406 -3.531 l -0.625 3.75 c -0.996 0.207 -1.956 0.543 -2.813 1.031 l -3 -2.375 l 1.313 3.625 c -0.313 0.281 -0.598 0.614 -0.875 0.939 c -1.763 -1.711 -6.941 -5.966 -11.268 -9.06 z m 18.613 7.561 c 4.277 0 7.75 3.441 7.75 7.719 c 0 3.02 -1.73 5.629 -4.25 6.906 c -2.617 -4.01 -5.723 -7.941 -9.5 -11.781 c 1.418 -1.75 3.57 -2.844 6 -2.844 z" style="fill:#000;opacity:0.1;fill-opacity:1"/>
  <path d="m 5.871 9.855 c -0.486 0.622 -0.94 1.269 -1.361 1.939 c 13.967 9.529 23.724 24.589 28.19 33.496 c 0.555 -0.227 1.097 -0.476 1.629 -0.744 c -2.01 -3.953 -4.914 -9.246 -6.426 -11.707 c 0.07 -0.039 0.148 -0.055 0.219 -0.094 l 3.03 2.313 l -1.344 -3.563 c 0.742 -0.668 1.398 -1.414 1.906 -2.281 l 3.813 0.469 l -2.969 -2.438 c 0.285 -0.91 0.465 -1.871 0.469 -2.875 l 3.469 -1.406 l -3.688 -0.688 c -0.211 -0.98 -0.551 -1.906 -1.031 -2.75 c 0.754 -0.961 2.309 -2.922 2.375 -3 c 0.063 -0.078 -2.395 0.82 -3.656 1.281 c -0.66 -0.723 -1.428 -1.348 -2.279 -1.844 l 0.5 -3.75 l -2.471 2.875 c -0.902 -0.285 -1.852 -0.435 -2.844 -0.439 l -1.406 -3.531 l -0.625 3.75 c -0.996 0.207 -1.956 0.543 -2.813 1.031 l -3 -2.375 l 1.313 3.625 c -0.313 0.281 -0.598 0.614 -0.875 0.939 c -1.609 -1.561 -6.07 -5.25 -10.127 -8.234 z m 17.473 6.738 c 4.277 0 7.75 3.441 7.75 7.719 c 0 3.02 -1.73 5.629 -4.25 6.906 c -2.617 -4.01 -5.723 -7.941 -9.5 -11.781 c 1.418 -1.75 3.57 -2.844 6 -2.844 z" style="fill:#fdec9e;fill-opacity:1"/>
 </g>
 <g>
  <g>
   <g transform="translate(1,1)">
    <g style="opacity:0.1">
     <!-- color: #444444 -->
    </g>
   </g>
  </g>
 </g>
 <g>
  <g>
   <!-- color: #444444 -->
  </g>
 </g>
 <g>
  
 </g>
</svg>
