<svg viewBox="0 0 48 48" xmlns="http://www.w3.org/2000/svg" xmlns:xlink="http://www.w3.org/1999/xlink">
  <linearGradient id="a" gradientTransform="matrix(0 -1 1 0 -.0000015 47.999998)" gradientUnits="userSpaceOnUse" x1="1" x2="47">
    <stop offset="0" stop-color="#7b2525"/>
    <stop offset="1" stop-color="#8a2a2b"/>
  </linearGradient>
  <path d="m47 24c0 22.703-.297 23-23 23-22.703 0-23-.297-23-23 0-22.703.297-23 23-23 22.703 0 23 .297 23 23z" fill="url(#a)"/>
  <path d="m26.896 12.17c-.21.003-.338.012-.338.012 0 0 .606 1.487.6 1.855 0 .002 0 .004.002.006-.178-.014-.353-.033-.533-.043-.483-.024-.977-.025-1.469.004-.28-.608-.56-1.216-.84-1.824-1.048.018-2.579.116-2.934.68l1.246 1.682c-.304.125-.6.268-.879.447l-1.746-1.082c-1.499.188-2.959 2.045-2.959 2.045 0 0 1.757.569 1.979.869.087.058.174.201.264.355-.103.105-.205.205-.305.316-.768.125-1.535.249-2.303.373-1.137 1.969-.51 3.217-.51 3.217 0 0 .821-.281 1.471-.51.017.201.053.404.119.609.047.128.115.243.172.365-.504.257-.96.564-1.172 1.135.344.624.781 1.483 1.586 2.393.246-.783.749-1.263 1.119-1.604 1 .816 2.26 1.364 3.492 1.633 1.611.112 1.85.194 3.301.996 1.39.629 3.802 2.01 3.998 3.496.411 1.878-.32 3.443-2.141 4.404-2.01 1.206-5.752.921-7.113-.793-1.096-1.427-.75-3.665.701-4.721.582-.66 3.741-1.194 3.84-1.299.217-.005-4.869-1-6.834 2.346-1.035 1.65-1.01 4.68.6 6.371 1.916 1.908 5.451 2.279 8.631 2.025 3.82-.746 4.822-2.746 5.434-3.939 1.485-3.365.682-6.83-1.969-9.494-1.934-1.83-4.165-2.638-6.592-3.34-1.369-.157 1.349-2.393 2.418-1.811 2.574.339 4.49.91 4.49.91l.4-.631-3.236-.904c.239-.427.141-.096.381-.523 1.625.412 3.326.153 4.852 1.963.368.478.74 1.324.74 1.324.76-1.286.903-3.302-1.271-5.17-1.2-.919-2.471-1.494-3.83-1.85.013-.709.041-1.775.041-1.775-.901-.489-2.273-.529-2.902-.52zm.539 3.266c.922.054 2.3.98.988 1.17-.65.296-3.573-.811-1.346-1.135.104-.033.226-.043.357-.035z" opacity=".1" transform=""/>
  <g fill="#fc0" transform="translate(-.23907038 .18282113)">
    <path d="m20.372 14.27c1.498-1.328 3.577-1.546 5.494-1.452 2.597.141 4.884.723 6.961 2.314 2.174 1.868 2.032 3.883 1.272 5.169 0 0-.373-.845-.741-1.323-1.526-1.81-3.226-1.551-4.851-1.963-.24.427-.142.095-.381.522l3.235.905-.399.632c0 0-1.917-.572-4.491-.911-1.069-.582-3.786 1.654-2.417 1.811 2.427.702 4.657 1.509 6.591 3.339 2.651 2.664 3.453 6.129 1.968 9.494-.612 1.193-1.612 3.193-5.432 3.939-3.18.254-6.715-.117-8.631-2.025-1.61-1.691-1.635-4.721-.6-6.371 1.965-3.35 7.05-2.35 6.833-2.345-.099.105-3.258.639-3.84 1.299-1.451 1.056-1.797 3.294-.701 4.721 1.361 1.714 5.102 1.999 7.114.793 1.821-.961 2.552-2.527 2.141-4.405-.196-1.491-2.609-2.867-3.999-3.496-1.451-.802-1.69-.884-3.301-.996-2.153-.47-4.4-1.764-5.197-3.922-.555-1.728.735-3.306 1.916-4.409.476-.451.945-.91 1.456-1.321zm7.291 1.152c1.499-.217-.516-1.395-1.347-1.134-2.227.324.697 1.43 1.347 1.134z"/>
    <path d="m28.995 13.363c.012-.705.042-1.856.042-1.856-1.202-.652-3.24-.508-3.24-.508 0 0 .605 1.488.599 1.856.249.915 1.799.338 2.599.507z"/>
    <path d="m24.493 13.03c-.312-.678-.623-1.355-.935-2.033-1.048.018-2.58.116-2.935.68l1.377 1.857c.522-.023 1.972-.48 2.493-.504z"/>
    <path d="m21.18 13.92l-1.935-1.197c-1.499.188-2.96 2.045-2.96 2.045 0 0 1.757.57 1.979.87.28.186.57 1.248.876.758.515-.478 1.525-1.998 2.04-2.477z"/>
    <path d="m18.251 16.305c-.777.126-1.553.252-2.33.378-1.137 1.969-.511 3.216-.511 3.216 0 0 1.833-.669 2.59-.899.084-.898.168-1.797.251-2.695z"/>
    <path d="m18.264 19.812c-.833.495-1.9.707-2.264 1.686.344.624.781 1.483 1.586 2.393.311-.99 1.111-1.588 1.414-1.891-.167-.495-.569-1.693-.736-2.188z"/>
  </g>
</svg>
