<svg viewBox="0 0 48 48" xmlns="http://www.w3.org/2000/svg" xmlns:xlink="http://www.w3.org/1999/xlink">
  <linearGradient id="a" gradientTransform="matrix(0 -1 1 0 -.0000015 47.999998)" gradientUnits="userSpaceOnUse" x1="1" x2="47">
    <stop offset="0" stop-color="#3a3a3a"/>
    <stop offset="1" stop-color="#444"/>
  </linearGradient>
  <path d="m47 24c0 22.703-.297 23-23 23-22.703 0-23-.297-23-23 0-22.703.297-23 23-23 22.703 0 23 .297 23 23z" fill="url(#a)"/>
  <path d="m5.73 10.03c-.489.639-.948 1.303-1.369 1.992 13.965 9.07 23.904 23.826 28.752 33.1.544-.235 1.075-.491 1.596-.766-1.955-3.778-4.433-8.285-5.803-10.516.07-.039.148-.055.219-.094l3.03 2.313-1.344-3.563c.742-.668 1.398-1.414 1.906-2.281l3.813.469-2.969-2.438c.285-.91.465-1.871.469-2.875l3.469-1.406-3.688-.688c-.211-.98-.551-1.906-1.031-2.75.754-.961 2.309-2.922 2.375-3 .063-.078-2.395.82-3.656 1.281-.66-.723-1.428-1.348-2.279-1.844l.5-3.75-2.471 2.875c-.902-.285-1.852-.435-2.844-.439l-1.406-3.531-.625 3.75c-.996.207-1.956.543-2.813 1.031l-3-2.375 1.313 3.625c-.313.281-.598.614-.875.939-1.763-1.711-6.941-5.966-11.268-9.06zm18.613 7.561c4.277 0 7.75 3.441 7.75 7.719 0 3.02-1.73 5.629-4.25 6.906-2.617-4.01-5.723-7.941-9.5-11.781 1.418-1.75 3.57-2.844 6-2.844z" opacity=".1"/>
  <path d="m5.871 9.855c-.486.622-.94 1.269-1.361 1.939 13.967 9.529 23.724 24.589 28.19 33.496.555-.227 1.097-.476 1.629-.744-2.01-3.953-4.914-9.246-6.426-11.707.07-.039.148-.055.219-.094l3.03 2.313-1.344-3.563c.742-.668 1.398-1.414 1.906-2.281l3.813.469-2.969-2.438c.285-.91.465-1.871.469-2.875l3.469-1.406-3.688-.688c-.211-.98-.551-1.906-1.031-2.75.754-.961 2.309-2.922 2.375-3 .063-.078-2.395.82-3.656 1.281-.66-.723-1.428-1.348-2.279-1.844l.5-3.75-2.471 2.875c-.902-.285-1.852-.435-2.844-.439l-1.406-3.531-.625 3.75c-.996.207-1.956.543-2.813 1.031l-3-2.375 1.313 3.625c-.313.281-.598.614-.875.939-1.609-1.561-6.07-5.25-10.127-8.234zm17.473 6.738c4.277 0 7.75 3.441 7.75 7.719 0 3.02-1.73 5.629-4.25 6.906-2.617-4.01-5.723-7.941-9.5-11.781 1.418-1.75 3.57-2.844 6-2.844z" fill="#fdec9e"/>
</svg>
