<svg viewBox="0 0 48 48" xmlns="http://www.w3.org/2000/svg" xmlns:xlink="http://www.w3.org/1999/xlink">
  <linearGradient id="a" gradientUnits="userSpaceOnUse" x1="24" x2="24.498" y1="1" y2="47.5">
    <stop offset="0" stop-color="#505050"/>
    <stop offset="1" stop-color="#464646"/>
  </linearGradient>
  <path d="m24 1c22.703 0 23 .297 23 23 0 22.703-.297 23-23 23-22.703 0-23-.297-23-23 0-22.703.297-23 23-23z" fill="url(#a)"/>
  <ellipse cx="24" cy="23.502" opacity=".1" rx="11" ry="10.498" transform="matrix(1.0454545 0 0 1.0001977 -.0909085 1.9932782)"/>
  <g transform="matrix(1.0454545 0 0 1.0478261 -1.0909085 -.6260874)">
    <ellipse cx="24" cy="23.502" fill="#f4d7d7" rx="11" ry="10.498"/>
    <path d="m17.381 24.605h3.31v8.926c0 0-1.212-.441-1.788-.727-.528-.261-1.521-.899-1.521-.899z" fill="#afdde9"/>
    <g transform="matrix(1.1032047 0 0 1.1032047 -2.2535524 -.13719532)">
      <circle cx="19.298" cy="21.01" fill="#1a1a1a" r="2.5"/>
      <ellipse cx="18.37" cy="20.321" fill="#f9f9f9" rx=".827" ry=".869"/>
    </g>
    <path d="m30.622 24.599h-3.31v8.926c0 0 1.212-.441 1.788-.727.528-.261 1.521-.899 1.521-.899z" fill="#afdde9"/>
    <g transform="matrix(1.1032047 0 0 1.1032047 7.6752899 -.13719532)">
      <circle cx="19.298" cy="21.01" fill="#1a1a1a" r="2.5"/>
      <ellipse cx="18.37" cy="20.321" fill="#f9f9f9" rx=".827" ry=".869"/>
    </g>
    <path d="m21.238 28.01h5.516c0 0-.48-1.788-1.078-2.205-1.037-.722-2.5-.752-3.519 0-.551.407-.919 2.205-.919 2.205z" fill="#1a1a1a" fill-rule="evenodd"/>
    <path d="m22.08 26.546h3.677l.442 1.103h-4.491z" fill="#f9f9f9"/>
  </g>
</svg>
