<svg viewBox="0 0 48 48" xmlns="http://www.w3.org/2000/svg" xmlns:xlink="http://www.w3.org/1999/xlink">
  <linearGradient id="a" gradientUnits="userSpaceOnUse" x1="1" x2="47">
    <stop offset="0" stop-color="#077495"/>
    <stop offset="1" stop-color="#0883a8"/>
  </linearGradient>
  <path d="m24 1c22.703 0 23 .297 23 23 0 22.703-.297 23-23 23-22.703 0-23-.297-23-23 0-22.703.297-23 23-23z" fill="url(#a)" transform="matrix(0 -1 1 0 0 48)"/>
  <rect height="24" opacity=".1" rx="1" width="24" x="13" y="13"/>
  <rect fill="#353535" height="24" rx="1" width="24" x="12" y="12"/>
  <rect fill="#feda00" height="22" rx="1" width="22" x="13" y="13"/>
  <path d="m18 19h5v5h-5z" opacity=".1"/>
  <path d="m17 18h5v5h-5z" fill="#353535"/>
  <path d="m18 19h3v3h-3z" fill="#64fefe"/>
  <path d="m27 19h5v5h-5z" opacity=".1"/>
  <path d="m26 18h5v5h-5z" fill="#353535"/>
  <path d="m27 19h3v3h-3z" fill="#64fefe"/>
  <path d="m17 26h16v4h-16z" opacity=".1"/>
  <path d="m16 25h16v4h-16z" fill="#353535"/>
  <path d="m17 26h14v2h-14z" fill="#64fefe"/>
</svg>
