<svg viewBox="0 0 48 48" xmlns="http://www.w3.org/2000/svg" xmlns:xlink="http://www.w3.org/1999/xlink">
  <linearGradient id="a" gradientTransform="matrix(0 -1 1 0 -.0000015 47.999998)" gradientUnits="userSpaceOnUse" x1="1" x2="47">
    <stop offset="0" stop-color="#e4e4e4"/>
    <stop offset="1" stop-color="#eee"/>
  </linearGradient>
  <path d="m47 24c0 22.703-.297 23-23 23-22.703 0-23-.297-23-23 0-22.703.297-23 23-23 22.703 0 23 .297 23 23z" fill="url(#a)"/>
  <g transform="translate(.0004377)">
    <path d="m24.999 11.11c-.916 1.597-1.493 3.246-3.164 3.898-1.565.611-3.127-.584-4.711-1.225.145 1.843.604 3.529-.373 5.05-.906 1.414-2.829 1.445-4.471 1.896 1.167 1.39 2.482 2.49 2.551 4.268.066 1.716-1.471 2.901-2.551 4.268 1.736.405 3.409.517 4.469 1.895 1.064 1.383.466 3.282.375 5.05 1.632-.731 2.972-1.16 4.713-1.219h.002c1.726 0 2.231 2.405 3.16 3.896.918-1.598 1.495-3.247 3.168-3.898 1.566-.61 3.13.581 4.715 1.221-.148-1.843-.61-3.529.369-5.05.906-1.411 2.826-1.444 4.467-1.896-1.166-1.389-2.479-2.49-2.547-4.266-.066-1.715 1.469-2.901 2.547-4.268-1.737-.406-3.41-.519-4.469-1.898-1.062-1.384-.46-3.282-.367-5.05-1.633.731-2.972 1.164-4.713 1.225h-.002c-1.728 0-2.237-2.405-3.168-3.898z" opacity=".1"/>
    <path d="m24 11.996c0 0-1.57 2.523-2.844 2.953-1.27.43-3.953-.656-3.953-.656 0 0 .152 2.992-.633 4.113-.785 1.121-3.57 1.887-3.57 1.887 0 0 1.832 2.316 1.832 3.703 0 1.387-1.832 3.703-1.832 3.703 0 0 2.785.766 3.57 1.887.785 1.125.633 4.113.633 4.113 0 0 2.68-1.082 3.953-.656 1.273.43 2.844 2.953 2.844 2.953 0 0 1.57-2.523 2.848-2.953 1.27-.426 3.953.656 3.953.656 0 0-.156-2.988.629-4.113.785-1.117 3.57-1.887 3.57-1.887 0 0-1.828-2.316-1.828-3.703 0-1.387 1.828-3.703 1.828-3.703 0 0-2.781-.766-3.57-1.887-.785-1.121-.629-4.113-.629-4.113 0 0-2.684 1.086-3.953.656-1.277-.43-2.848-2.953-2.848-2.953m0 0" fill="#de4243"/>
    <path d="m23.999 10.11c-.916 1.597-1.493 3.246-3.164 3.898-1.565.611-3.127-.584-4.711-1.225.145 1.843.604 3.529-.373 5.05-.906 1.414-2.829 1.445-4.471 1.896 1.167 1.39 2.482 2.49 2.551 4.268.066 1.716-1.471 2.901-2.551 4.268 1.736.405 3.409.517 4.469 1.895 1.064 1.383.466 3.282.375 5.05 1.632-.731 2.972-1.16 4.713-1.219h.002c1.726 0 2.231 2.405 3.16 3.896.918-1.598 1.495-3.247 3.168-3.898 1.566-.61 3.13.581 4.715 1.221-.148-1.843-.61-3.529.369-5.05.906-1.411 2.826-1.444 4.467-1.896-1.166-1.389-2.479-2.49-2.547-4.266-.066-1.715 1.469-2.901 2.547-4.268-1.737-.406-3.41-.519-4.469-1.898-1.062-1.384-.46-3.282-.367-5.05-1.633.731-2.972 1.164-4.713 1.225h-.002c-1.728 0-2.237-2.405-3.168-3.898zm0 3.604c.087.115.07.111.168.232.596.738 1.282 1.593 2.363 1.957 1.079.365 2.127.089 3.03-.146.146-.038.129-.046.264-.086.005.165-.008.152.004.332.064.954.139 2.056.789 2.984v.002c.651.925 1.655 1.352 2.514 1.711.167.07.159.052.313.109-.1.151-.105.131-.209.303-.492.811-1.059 1.758-1.059 2.891 0 1.133.566 2.08 1.059 2.891.105.172.109.154.209.305-.155.058-.147.039-.314.109-.859.359-1.862.786-2.512 1.711l-.002.002c-.648.929-.724 2.029-.787 2.982-.012.18.002.167-.004.332-.135-.04-.118-.047-.266-.086-.898-.235-1.945-.508-3.02-.146-1.082.364-1.768 1.219-2.363 1.957-.098.121-.08.117-.168.232-.087-.115-.068-.111-.166-.232-.595-.738-1.277-1.592-2.357-1.957h-.002l-.002-.002c-1.078-.361-2.125-.086-3.02.148-.147.039-.13.046-.266.086-.006-.165.008-.151-.004-.332-.065-.953-.142-2.055-.789-2.982l-.002-.002c-.65-.928-1.652-1.354-2.512-1.713-.167-.07-.159-.052-.313-.109.099-.15.103-.132.207-.303.493-.811 1.061-1.757 1.061-2.891 0-1.133-.568-2.08-1.061-2.891-.104-.171-.108-.153-.207-.303.154-.058.146-.04.313-.109.859-.359 1.862-.785 2.512-1.713.65-.928.726-2.03.791-2.984.012-.181-.002-.167.004-.332.135.04.118.047.266.086.899.236 1.947.512 3.03.146 1.081-.365 1.763-1.219 2.357-1.957.097-.121.079-.117.166-.232z" fill="#2e1414"/>
  </g>
  <path d="m26.883 20c-.838.019-1.657.249-2.383.668-2.391 1.381-3.211 4.439-1.83 6.83 1.381 2.391 4.439 3.211 6.83 1.83 2.391-1.381 3.211-4.439 1.83-6.83-.914-1.583-2.62-2.541-4.447-2.498m-2.627.999c.052 0 .102.016.145.045l1.482.984c.284.189.001.615-.283.426l-1.482-.984c-.216-.138-.117-.472.139-.471zm4.48 0c .26-.009.366.331.146.471l-1.482.984c-.284.189-.567-.237-.283-.426l1.482-.984c.04-.028.088-.043.137-.045zm-3.736 2c .552 0 1 .448 1 1 0 .552-.448 1-1 1-.552 0-1-.448-1-1 0-.552.448-1 1-1zm3 0c .552 0 1 .448 1 1 0 .552-.448 1-1 1-.552 0-1-.448-1-1 0-.552.448-1 1-1zm2 3v2c-2 0-4-1-7-1 3 0 5-1 7-1z" fill="#2e1414"/>
  <path d="m21.539 17.559c-.297-.012-.579.064-.826.23-.494.334-.824.974-.984 1.863-.16.889-.15 2.042.082 3.451.244 1.483.472 2.599.51 3.379.019.39-.01.693-.09.912-.08.219-.198.361-.41.479-.191.106-.362.13-.535.09-.173-.04-.356-.153-.541-.373-.37-.44-.717-1.302-.885-2.621a.25.25 0 1 0-.496.063c.175 1.375.524 2.318.998 2.881.237.281.514.469.813.539.299.07.611.014.891-.141.306-.169.522-.43.637-.746.115-.316.142-.679.121-1.104-.042-.852-.275-1.966-.518-3.439-.225-1.368-.228-2.471-.082-3.281.146-.811.443-1.316.77-1.537.328-.221.708-.221 1.197.074.382.23.81.658 1.236 1.281l-1.623.938 1.25 2.164c.38-1.64 1.516-2.315 3.896-2.25l-1.25-2.164-1.84 1.063c-.46-.682-.936-1.171-1.412-1.457-.3-.181-.612-.279-.908-.291v-.002zm-4.373 5.553a.184.184 0 0 0-.168.23l.236.971a.185.185 0 1 0  .359-.088l-.238-.971a.184.184 0 0 0-.189-.143zm1.357.156a.184.184 0 0 0-.16.1l-.473.879a.186.186 0 1 0  .326.178l.473-.881a.184.184 0 0 0-.166-.273v-.002zm-2.461.779a.184.184 0 0 0-.068.348l.881.473a.184.184 0 1 0  .174-.322l-.879-.475a.184.184 0 0 0-.107-.021v-.002zm3.357.309a.184.184 0 0 0-.014.002.184.184 0 0 0-.047.012l-.939.338a.186.186 0 1 0  .125.35l.938-.338a.184.184 0 0 0-.063-.361v-.002zm-2.51.754a.184.184 0 0 0-.049.012l-.938.34a.184.184 0 1 0  .125.346l.938-.338a.184.184 0 0 0-.076-.357v-.002zm1.428.264a.184.184 0 0 0-.066.35l.879.473a.184.184 0 1 0  .176-.324l-.881-.473a.184.184 0 0 0-.107-.023v-.002zm-1.16.305a.184.184 0 0 0-.143.1l-.473.881a.185.185 0 1 0  .326.174l.473-.881a.184.184 0 0 0-.166-.273.184.184 0 0 0-.018 0z" fill="#2e1414"/>
</svg>
