<svg viewBox="0 0 48 48" xmlns="http://www.w3.org/2000/svg" xmlns:xlink="http://www.w3.org/1999/xlink">
  <linearGradient id="a" gradientTransform="matrix(0 -1 1 0 -.0000015 47.999998)" gradientUnits="userSpaceOnUse" x1="1" x2="47">
    <stop offset="0" stop-color="#8ac23a"/>
    <stop offset="1" stop-color="#93c849"/>
  </linearGradient>
  <path d="m47 24c0 22.703-.297 23-23 23-22.703 0-23-.297-23-23 0-22.703.297-23 23-23 22.703 0 23 .297 23 23z" fill="url(#a)"/>
  <path d="m11.461 13.996c-.824.019-1.473.703-1.461 1.523.013.675.468 1.231 1.084 1.41l.729 8.01c-.514.548-.826 1.286-.813 2.096.025 1.477 1.119 2.68 2.533 2.902 1.507 4.087 6.07 7.06 11.471 7.06 5.398 0 9.963-2.972 11.469-7.06 1.427-.226 2.524-1.45 2.527-2.939l-.004-.121c-.025-.751-.335-1.418-.811-1.928l.73-8.02c.622-.181 1.081-.748 1.084-1.43v-.059c-.031-.824-.719-1.468-1.539-1.445-.824.019-1.473.703-1.461 1.523.011.586.356 1.081.848 1.32l-1.385 7.191c-1.517-4.074-6.074-7.03-11.459-7.03-5.393 0-9.951 2.963-11.465 7.04l-1.387-7.199c.498-.243.845-.749.848-1.342v-.059c-.031-.824-.719-1.468-1.539-1.445z" opacity=".1" transform=""/>
  <g transform="translate(.00016375)">
    <path d="m11 26l-1-10.996h1l1.996 10.996m-1.996 0" fill="#ab9caa"/>
    <path d="m16 26c-.004 1.645-1.336 2.98-2.98 2.988-1.645.012-2.992-1.305-3.02-2.949-.027-1.645 1.277-3 2.922-3.047 1.645-.047 3.02 1.242 3.074 2.887" fill="#8b1928"/>
    <path d="m37 26l1-10.996h-1l-2 10.996m2 0" fill="#ab9caa"/>
    <path d="m38 26c-.004 1.645-1.336 2.98-2.98 2.988-1.645.012-2.992-1.305-3.02-2.949-.027-1.645 1.277-3 2.922-3.047 1.645-.047 3.02 1.242 3.074 2.887" fill="#8b1928"/>
    <path d="m36 26c0 5.523-5.371 10-11.996 10-6.629 0-12-4.477-12-10 0-5.523 5.371-10 12-10 6.625 0 11.996 4.477 11.996 10m0 0" fill="#9c4534"/>
    <path d="m33 26c0 3.867-4.03 7-9 7-4.969 0-8.996-3.133-8.996-7 0-3.867 4.03-7 8.996-7 4.973 0 9 3.133 9 7m0 0" fill="#ecab58"/>
    <path d="m28 22h .004c1.102 0 1.996.895 1.996 2v5c0 1.102-.895 1.996-1.996 1.996h-.004c-1.105 0-2-.895-2-1.996v-5c0-1.105.895-2 2-2m0 0" fill="#94625b"/>
    <path d="m20 22h .004c1.102 0 1.996.895 1.996 2v5c0 1.102-.895 1.996-1.996 1.996h-.004c-1.105 0-2-.895-2-1.996v-5c0-1.105.895-2 2-2m0 0" fill="#94625b"/>
    <path d="m28 24c .551 0 1 .445 1 .996v3c0 .551-.449 1-1 1-.551 0-1-.449-1-1v-3c0-.551.449-.996 1-.996m0 0" fill="#f9f9f9"/>
    <path d="m20 24c .551 0 .996.445.996.996v3c0 .551-.445 1-.996 1-.555 0-1-.449-1-1v-3c0-.551.445-.996 1-.996m0 0" fill="#f9f9f9"/>
    <path d="m20.496 26c .277 0 .5.223.5.5v1c0 .277-.223.5-.5.5-.273 0-.496-.223-.496-.5v-1c0-.277.223-.5.496-.5m0 0" fill="#2d2d2d"/>
    <path d="m27.5 26c .277 0 .5.223.5.5v1c0 .277-.223.5-.5.5-.277 0-.5-.223-.5-.5v-1c0-.277.223-.5.5-.5m0 0" fill="#2d2d2d"/>
    <path d="m39 14.5c-.004.824-.668 1.488-1.488 1.496-.824.004-1.496-.652-1.512-1.477-.012-.82.637-1.504 1.461-1.523.82-.023 1.508.621 1.539 1.445" fill="#8b1928"/>
    <path d="m12 14.5c-.004.824-.668 1.488-1.488 1.496-.824.004-1.496-.652-1.512-1.477-.012-.82.637-1.504 1.461-1.523.82-.023 1.508.621 1.539 1.445" fill="#8b1928"/>
  </g>
</svg>
