<svg viewBox="0 0 48 48" xmlns="http://www.w3.org/2000/svg" xmlns:xlink="http://www.w3.org/1999/xlink">
  <linearGradient id="a" gradientTransform="matrix(0 -1 1 0 -.0000015 47.999998)" gradientUnits="userSpaceOnUse" x1="1" x2="47">
    <stop offset="0" stop-color="#f0eab8"/>
    <stop offset="1" stop-color="#f3eec8"/>
  </linearGradient>
  <path d="m47 24c0 22.703-.297 23-23 23-22.703 0-23-.297-23-23 0-22.703.297-23 23-23 22.703 0 23 .297 23 23z" fill="url(#a)"/>
  <path d="m25 10c-8.285 0-15 6.715-15 15 0 8.285 6.715 15 15 15 8.285 0 15-6.715 15-15 0-8.285-6.715-15-15-15zm0 2c5.408 0 10.04 3.303 12 8h-24c1.959-4.697 6.592-8 12-8zm-4.75 2v5h .738v-1.748l.938-.818 2.029 2.564h.867l-2.371-2.959 2.35-2.039h-.949l-2.863 2.531v-2.531h-.738m5.441.004l2.305 3.041v1.959h.76v-1.959h-.004l2.252-3.041h-.908l-1.707 2.396-1.76-2.396zm-13.33 7.996h25.277c.228.965.361 1.965.361 3 0 7.18-5.82 13-13 13-7.18 0-13-5.82-13-13 0-1.035.133-2.035.361-3zm12.482 1.5c-2.902 0-5.25 2.813-5.25 6.281 0 3.469 2.348 6.281 5.25 6.281 2.902 0 5.25-2.813 5.25-6.281 0-3.469-2.348-6.281-5.25-6.281zm0 1.438c.974 0 1.854.433 2.551 1.125l-6.111 5.934c-.29-.665-.469-1.411-.469-2.215 0-2.664 1.804-4.844 4.03-4.844zm3.438 2.354c.368.731.592 1.577.592 2.49 0 2.664-1.804 4.814-4.03 4.814-1.063 0-2.022-.501-2.742-1.303l6.18-6z" opacity=".1"/>
  <path d="m11 21h26v-2h-26m0 2" fill="#2d2d2d"/>
  <path d="m24 9c-8.285 0-15 6.715-15 15 0 8.285 6.715 15 15 15 8.285 0 15-6.715 15-15 0-8.285-6.715-15-15-15zm0 2c7.18 0 13 5.82 13 13 0 7.18-5.82 13-13 13-7.18 0-13-5.82-13-13 0-7.18 5.82-13 13-13z" fill="#2d2d2d"/>
  <path d="m23.844 22.5c-2.902 0-5.25 2.813-5.25 6.281 0 3.469 2.348 6.281 5.25 6.281 2.902 0 5.25-2.813 5.25-6.281 0-3.469-2.348-6.281-5.25-6.281m0 1.438c2.227 0 4.03 2.18 4.03 4.844 0 2.664-1.805 4.813-4.03 4.813-2.227 0-4.03-2.148-4.03-4.813 0-2.664 1.805-4.844 4.03-4.844m0 0" fill="#2d2d2d"/>
  <path d="m26.992 24.482l-7.436 7.219 1.045 1.076 7.436-7.219z" fill="#2d2d2d"/>
  <path d="m19.25 13v5h .738v-1.748l.938-.818 2.029 2.564h.867l-2.371-2.959 2.35-2.039h-.949l-2.863 2.531v-2.531h-.738zm5.441.004l2.305 3.041v1.959h.76v-1.959h-.004l2.252-3.041h-.908l-1.707 2.396-1.76-2.396z" fill="#2d2d2d"/>
</svg>
