<svg xmlns="http://www.w3.org/2000/svg" viewBox="0 0 48 48">
 <defs>
  <linearGradient id="linearGradient3764" x1="1" x2="47" gradientUnits="userSpaceOnUse" gradientTransform="matrix(0,-1,1,0,-1.5e-6,47.999998)">
   <stop style="stop-color:#66da3e;stop-opacity:1"/>
   <stop offset="1" style="stop-color:#73dd4f;stop-opacity:1"/>
  </linearGradient>
 </defs>
 <g>
  
  
  
 </g>
 <g>
  <path d="m 47,24 C 47,46.703 46.703,47 24,47 1.297,47 1,46.703 1,24 1,1.297 1.297,1 24,1 46.703,1 47,1.297 47,24 z" style="fill:url(#linearGradient3764);fill-opacity:1"/>
 </g>
 <g>
  
 </g>
 <g transform="scale(3.543307,3.543307)">
  <g transform="matrix(0.28222223,0,0,0.28222223,0.28222222,0.2822222)">
   <g>
    <g style="opacity:0.1">
     <!-- color: #75de4f -->
     <g>
      <path d="m 13 16 9 0 0 -4 4 0 0 4 9 0 0 4 -9 0 0 4 4 0 0 12 -4 0 0 -8 -4 0 0 8 -4 0 0 -12 4 0 0 -4 -9 0 m 0 -4" style="fill:#000;fill-opacity:1;stroke:none;fill-rule:nonzero"/>
     </g>
    </g>
   </g>
  </g>
  <g transform="matrix(0.28222223,0,0,0.28222223,-1.0833333e-8,0.2822222)">
   <g>
    <g transform="translate(0,-1)">
     <!-- color: #75de4f -->
     <g>
      <path d="m 13 16 9 0 0 -4 4 0 0 4 9 0 0 4 -9 0 0 4 4 0 0 12 -4 0 0 -8 -4 0 0 8 -4 0 0 -12 4 0 0 -4 -9 0 m 0 -4" style="fill:#2d2d2d;fill-opacity:1;stroke:none;fill-rule:nonzero"/>
     </g>
    </g>
   </g>
  </g>
 </g>
</svg>
