<svg viewBox="0 0 48 48" xmlns="http://www.w3.org/2000/svg" xmlns:xlink="http://www.w3.org/1999/xlink">
  <linearGradient id="a" gradientTransform="matrix(0 -1 1 0 -.0000015 47.999998)" gradientUnits="userSpaceOnUse" x1="1" x2="47">
    <stop offset="0" stop-color="#d76c1d"/>
    <stop offset="1" stop-color="#e27425"/>
  </linearGradient>
  <path d="m47 24c0 22.703-.297 23-23 23-22.703 0-23-.297-23-23 0-22.703.297-23 23-23 22.703 0 23 .297 23 23z" fill="url(#a)"/>
  <g>
    <path d="m33.368 16.497l-1.68-.375-.254 1.391c-5.539-4.691-9.06-6.563-11.996-4.938 2.762.551 8.03 3.813 9.113 6.262l-1.285 1.902-13.266 13.617.832.824.832.82 13.512-13.375 1.895-1.301c2.469 1.055 5.797 6.27 6.371 9.02 1.602-2.941-.309-6.438-5.074-11.906l1.391-.27-.395-1.672m.004 0" fill-opacity=".098"/>
    <path d="m32.367 15.496l-1.68-.375-.254 1.391c-5.539-4.691-9.06-6.563-11.996-4.938 2.762.551 8.03 3.813 9.113 6.262l-1.285 1.902-13.266 13.617.832.824.832.82 13.512-13.375 1.895-1.301c2.469 1.055 5.797 6.27 6.371 9.02 1.602-2.941-.309-6.438-5.074-11.906l1.391-.27-.395-1.672m.004 0" fill="#41210a"/>
  </g>
</svg>
