<svg xmlns="http://www.w3.org/2000/svg" xmlns:xlink="http://www.w3.org/1999/xlink" viewBox="0 0 48 48">
 <defs>
  <linearGradient id="linearGradient3764" x1="1" x2="47" gradientUnits="userSpaceOnUse" gradientTransform="matrix(0,-1,1,0,-1.5e-6,47.999998)">
   <stop style="stop-color:#6fc1e3;stop-opacity:1"/>
   <stop offset="1" style="stop-color:#80c7e6;stop-opacity:1"/>
  </linearGradient>
 </defs>
 <g>
  
  
  
 </g>
 <g>
  <path d="m 47,24 C 47,46.703 46.703,47 24,47 1.297,47 1,46.703 1,24 1,1.297 1.297,1 24,1 46.703,1 47,1.297 47,24 z" style="fill:url(#linearGradient3764);fill-opacity:1"/>
 </g>
 <path id="path3853" d="m 36 34 a 10 3 0 1 1 -20 0 10 3 0 1 1 20 0 z" transform="matrix(1.45,0,0,1,-7.2,0)" style="fill:none;opacity:0.359;stroke:none"/>
 <path d="m 11.438 4.75 c -1.821 1.189 -3.461 2.608 -4.875 4.25 l 15.5 18.375 l -12.219 14.75 c 1.33 1.041 2.771 1.925 4.313 2.656 l 9.844 -14.781 l 9.844 14.781 c 1.541 -0.731 2.983 -1.615 4.313 -2.656 l -12.219 -14.75 l 15.5 -18.375 c -1.414 -1.642 -3.054 -3.061 -4.875 -4.25 l -12.563 20.375 l -12.563 -20.375 z" style="fill:#000;opacity:0.15;fill-opacity:1;stroke:none"/>
 <g>
  
 </g>
 <use xlink:href="#path3853" transform="translate(1,1)" width="48" height="48"/>
 <path d="M 25 10 A 15 15 0 0 0 10 25 15 15 0 0 0 25 40 15 15 0 0 0 40 25 15 15 0 0 0 25 10 M 24 12.04 24 18 18.434 18 C 18.755 16.329 19.19 14.697 19.75 13.13 A 13 13 0 0 1 24 12.04 m 2 0.006 a 13 13 0 0 1 4.246 1.064 c 0.559 1.575 0.998 3.212 1.32 4.887 l -5.566 0 0 -5.951 z m -8.832 2.59 c -0.311 1.103 -0.573 2.225 -0.781 3.361 l -2.324 0 a 13 13 0 0 1 3.105 -3.361 z m 15.666 0.008 a 13 13 0 0 1 3.119 3.354 l -2.34 0 C 33.405 16.866 33.14 15.747 32.834 14.646 m -19.832 5.354 3.07 0 c -0.171 1.324 -0.267 2.661 -0.301 4 l -3.723 0 a 13 13 0 0 1 0.953 -4 z m 5.1 0 5.898 0 0 4 -6.215 0 c 0.036 -1.341 0.138 -2.678 0.316 -4 z m 7.898 0 5.898 0 c 0.178 1.322 0.281 2.659 0.316 4 l -6.215 0 0 -4 z m 7.928 0 3.061 0 a 13 13 0 0 1 0.969 4 l -3.729 0 c -0.034 -1.339 -0.13 -2.676 -0.301 -4 z m -21.885 6 3.729 0 c 0.034 1.339 0.13 2.676 0.301 4 l -3.061 0 a 13 13 0 0 1 -0.969 -4 z m 5.742 0 6.215 0 0 4 -5.898 0 c -0.178 -1.322 -0.281 -2.659 -0.316 -4 z m 8.215 0 6.215 0 c -0.036 1.341 -0.138 2.678 -0.316 4 l -5.898 0 0 -4 z m 8.229 0 3.723 0 a 13 13 0 0 1 -0.953 4 l -3.07 0 c 0.17 -1.324 0.267 -2.661 0.301 -4 z m -20.18 6 2.34 0 c 0.208 1.134 0.469 2.253 0.779 3.354 a 13 13 0 0 1 -3.119 -3.354 z m 4.387 0 5.566 0 0 5.951 a 13 13 0 0 1 -4.246 -1.064 c -0.559 -1.575 -0.998 -3.212 -1.32 -4.887 z m 7.566 0 5.566 0 c -0.322 1.671 -0.76 3.303 -1.316 4.875 A 13 13 0 0 1 26 37.957 l 0 -5.957 z m 7.613 0 2.324 0 a 13 13 0 0 1 -3.105 3.361 c 0.311 -1.103 0.573 -2.225 0.781 -3.361 z" style="fill:#000;opacity:0.1;fill-opacity:1;stroke:none"/>
 <path d="M 24 9 A 15 15 0 0 0 9 24 15 15 0 0 0 24 39 15 15 0 0 0 39 24 15 15 0 0 0 24 9 M 23 11.04 23 17 17.434 17 C 17.755 15.329 18.19 13.697 18.75 12.13 A 13 13 0 0 1 23 11.04 m 2 0.006 a 13 13 0 0 1 4.246 1.064 c 0.559 1.575 0.998 3.212 1.32 4.887 l -5.566 0 0 -5.951 z m -8.832 2.59 c -0.311 1.103 -0.573 2.225 -0.781 3.361 l -2.324 0 a 13 13 0 0 1 3.105 -3.361 z m 15.666 0.008 a 13 13 0 0 1 3.119 3.354 l -2.34 0 C 32.405 15.866 32.14 14.747 31.834 13.646 m -19.832 5.354 3.07 0 c -0.171 1.324 -0.267 2.661 -0.301 4 l -3.723 0 a 13 13 0 0 1 0.953 -4 z m 5.1 0 5.898 0 0 4 -6.215 0 c 0.036 -1.341 0.138 -2.678 0.316 -4 z m 7.898 0 5.898 0 c 0.178 1.322 0.281 2.659 0.316 4 l -6.215 0 0 -4 z m 7.928 0 3.061 0 a 13 13 0 0 1 0.969 4 l -3.729 0 c -0.034 -1.339 -0.13 -2.676 -0.301 -4 z m -21.885 6 3.729 0 c 0.034 1.339 0.13 2.676 0.301 4 l -3.061 0 a 13 13 0 0 1 -0.969 -4 z m 5.742 0 6.215 0 0 4 -5.898 0 c -0.178 -1.322 -0.281 -2.659 -0.316 -4 z m 8.215 0 6.215 0 c -0.036 1.341 -0.138 2.678 -0.316 4 l -5.898 0 0 -4 z m 8.229 0 3.723 0 a 13 13 0 0 1 -0.953 4 l -3.07 0 c 0.17 -1.324 0.267 -2.661 0.301 -4 z m -20.18 6 2.34 0 c 0.208 1.134 0.469 2.253 0.779 3.354 a 13 13 0 0 1 -3.119 -3.354 z m 4.387 0 5.566 0 0 5.951 a 13 13 0 0 1 -4.246 -1.064 c -0.559 -1.575 -0.998 -3.212 -1.32 -4.887 z m 7.566 0 5.566 0 c -0.322 1.671 -0.76 3.303 -1.316 4.875 A 13 13 0 0 1 25 36.957 l 0 -5.957 z m 7.613 0 2.324 0 a 13 13 0 0 1 -3.105 3.361 c 0.311 -1.103 0.573 -2.225 0.781 -3.361 z" style="fill:#2d2d2d;opacity:1;fill-opacity:1;stroke:none"/>
</svg>
