<svg viewBox="0 0 48 48" xmlns="http://www.w3.org/2000/svg" xmlns:xlink="http://www.w3.org/1999/xlink">
  <linearGradient id="a" gradientUnits="userSpaceOnUse" x2="0" y1="47" y2="1">
    <stop offset="0" stop-color="#353535"/>
    <stop offset="1" stop-color="#3f3f3f"/>
  </linearGradient>
  <linearGradient id="b" gradientUnits="userSpaceOnUse" x2="0" y1="47" y2="1">
    <stop offset="0" stop-color="#e1e1e1"/>
    <stop offset="1" stop-color="#e1e1e1"/>
  </linearGradient>
  <path d="m24 1v46c22.703 0 23-.297 23-23 0-22.703-.297-23-23-23z" fill="url(#b)"/>
  <path d="m24 1c-22.703 0-23 .297-23 23 0 22.703.297 23 23 23z" fill="url(#a)"/>
  <path d="m13 13v24h6c2 0 4-2 4-4v-16c0-2-2-4-4-4zm4 4h1c .567 0 1 .466 1 1v14c0 .501-.466 1-1 1h-1z" opacity=".1"/>
  <path d="m12 12v24h6c2 0 4-2 4-4v-16c0-2-2-4-4-4zm4 4h1c .567 0 1 .466 1 1v14c0 .501-.466 1-1 1h-1z" fill="#e6d329"/>
  <path d="m29 13l-3 24h4l .344-4h3.313l.344 4h4l-3-24h-.469-2.531-2.531-.469zm2.406 7h1.188l.75 9h-2.688z" opacity=".1"/>
  <path d="m28 12l-3 24h4l .344-4h3.313l.344 4h4l-3-24h-.469-2.531-2.531-.469zm2.406 7h1.188l.75 9h-2.688z" fill="#353535"/>
</svg>
