<svg viewBox="0 0 48 48" xmlns="http://www.w3.org/2000/svg" xmlns:xlink="http://www.w3.org/1999/xlink">
  <linearGradient id="a" gradientUnits="userSpaceOnUse" x2="0" y1="38.592" y2="4.201">
    <stop offset="0" stop-color="#dfcdcd"/>
    <stop offset="1" stop-color="#e6dada"/>
  </linearGradient>
  <linearGradient id="b" gradientUnits="userSpaceOnUse" x2="0" y1="46.996" y2=".998">
    <stop offset="0" stop-color="#28b4e4"/>
    <stop offset="1" stop-color="#3abbe6"/>
  </linearGradient>
  <g fill="url(#a)">
    <path d="m24 1c22.703 0 23 .297 23 23 0 22.703-.297 23-23 23-22.703 0-23-.297-23-23 0-22.703.297-23 23-23z" fill="url(#b)"/>
    <g fill-rule="evenodd" transform="matrix(.89655739 0 0 .92308072 2.1464411 2.3592461)">
      <path d="m26.09 29.678c1.956 5.223 1.82 3.173 1.314-.429 5.436 8.717 18.07.369 7.187-6.467 4.81-7.911 2.981-21.836-8.771-2.688-.341-1.111-2.19-2.265-2.357.506-13.842-8.788-18.729-.519-6.955 6.857-4.896 12.618 10.298 10.604 9.582 2.221z" fill="#000" opacity=".1"/>
      <path d="m24.973 28.595c1.956 5.223 1.82 3.173 1.314-.429 5.436 8.717 18.07.369 7.187-6.467 4.81-7.911 2.981-21.836-8.771-2.688-.341-1.111-2.19-2.265-2.357.506-13.842-8.788-18.729-.519-6.955 6.857-4.896 12.618 10.298 10.604 9.582 2.221" fill="#f9f9f9"/>
    </g>
  </g>
</svg>
