<svg viewBox="0 0 48 48" xmlns="http://www.w3.org/2000/svg" xmlns:xlink="http://www.w3.org/1999/xlink">
  <linearGradient id="a" gradientTransform="matrix(0 -1 1 0 -.0000015 47.999998)" gradientUnits="userSpaceOnUse" x1="1" x2="47">
    <stop offset="0" stop-color="#cb3131"/>
    <stop offset="1" stop-color="#d14040"/>
  </linearGradient>
  <path d="m47 24c0 22.703-.297 23-23 23-22.703 0-23-.297-23-23 0-22.703.297-23 23-23 22.703 0 23 .297 23 23z" fill="url(#a)"/>
  <g opacity=".1" transform="translate(1 1)">
    <path d="m17 16h14c2 0 2-.199 2 2v14c0 2 0 2-2 2h-14c-2 0-2 0-2-2v-14c0-2 0-2 2-2m0 0" fill-rule="evenodd"/>
    <path d="m20 14v4h8v-4m-8 0"/>
  </g>
  <path d="m17 16h14c2 0 2-.199 2 2v14c0 2 0 2-2 2h-14c-2 0-2 0-2-2v-14c0-2 0-2 2-2m0 0" fill="#e6b07f" fill-rule="evenodd"/>
  <path d="m30 16h-12v14h12m0-14" fill="#fff"/>
  <path d="m20 14v4h8v-4m-8 0" fill="#aaa"/>
  <path d="m20 20v2h8v-2m-8 0" fill="#868686"/>
  <path d="m20 24v2h8v-2m-8 0" fill="#868686"/>
</svg>
