<svg xmlns="http://www.w3.org/2000/svg" viewBox="0 0 48 48">
 <defs>
  <linearGradient id="linearGradient3764" x1="1" x2="47" gradientUnits="userSpaceOnUse" gradientTransform="matrix(0,-1,1,0,-1.5e-6,47.999998)">
   <stop style="stop-color:#cb3131;stop-opacity:1"/>
   <stop offset="1" style="stop-color:#d14040;stop-opacity:1"/>
  </linearGradient>
 </defs>
 <g>
  
  
  
 </g>
 <g>
  <path d="m 47,24 C 47,46.703 46.703,47 24,47 1.297,47 1,46.703 1,24 1,1.297 1.297,1 24,1 46.703,1 47,1.297 47,24 z" style="fill:url(#linearGradient3764);fill-opacity:1"/>
 </g>
 <g>
  <g>
   <g transform="translate(1,1)">
    <g style="opacity:0.1">
     <!-- color: #d14040 -->
     <g>
      <path d="m 17 16 l 14 0 c 2 0 2 -0.199 2 2 l 0 14 c 0 2 0 2 -2 2 l -14 0 c -2 0 -2 0 -2 -2 l 0 -14 c 0 -2 0 -2 2 -2 m 0 0" style="fill:#000;fill-opacity:1;stroke:none;fill-rule:evenodd"/>
      <path d="m 20 14 l 0 4 l 8 0 l 0 -4 m -8 0" style="fill:#000;fill-opacity:1;stroke:none;fill-rule:nonzero"/>
     </g>
    </g>
   </g>
  </g>
 </g>
 <g>
  <g>
   <!-- color: #d14040 -->
   <g>
    <path d="m 17 16 14 0 c 2 0 2 -0.199 2 2 l 0 14 c 0 2 0 2 -2 2 l -14 0 c -2 0 -2 0 -2 -2 l 0 -14 c 0 -2 0 -2 2 -2 m 0 0" style="fill:#e6b07f;fill-opacity:1;stroke:none;fill-rule:evenodd"/>
    <path d="m 30 16 -12 0 0 14 12 0 m 0 -14" style="fill:#fff;fill-opacity:1;stroke:none;fill-rule:nonzero"/>
    <path d="m 20 14 0 4 8 0 0 -4 m -8 0" style="fill:#aaa;fill-opacity:1;stroke:none;fill-rule:nonzero"/>
    <path d="m 20 20 0 2 8 0 0 -2 m -8 0" style="fill:#868686;fill-opacity:1;stroke:none;fill-rule:nonzero"/>
    <path d="m 20 24 0 2 8 0 0 -2 m -8 0" style="fill:#868686;fill-opacity:1;stroke:none;fill-rule:nonzero"/>
   </g>
  </g>
 </g>
 <g>
  
 </g>
</svg>
