<svg viewBox="0 0 48 48" xmlns="http://www.w3.org/2000/svg" xmlns:xlink="http://www.w3.org/1999/xlink">
  <linearGradient id="a" gradientTransform="matrix(0 -1 1 0 -.0000015 47.999998)" gradientUnits="userSpaceOnUse" x1="1" x2="47">
    <stop offset="0" stop-color="#833ebe"/>
    <stop offset="1" stop-color="#8d4cc4"/>
  </linearGradient>
  <path d="m47 24c0 22.703-.297 23-23 23-22.703 0-23-.297-23-23 0-22.703.297-23 23-23 22.703 0 23 .297 23 23z" fill="url(#a)"/>
  <path d="m22 14c-4.971-.001-9 4.03-9 9 0 3.937 2.532 7.274 6.05 8.496l.701-1.871c-2.763-.936-4.754-3.546-4.754-6.625 0-3.866 3.134-7 7-7 2.074.001 4.04.925 5.367 2.518.438.525.797 1.111 1.064 1.74.506-.169 1.035-.257 1.568-.258.161 0 .322.01.482.025 2.562.249 4.517 2.401 4.518 4.975 0 2.025-1.209 3.759-2.939 4.545l-1.705 2.438c3.7-.186 6.645-3.237 6.645-6.982 0-3.866-3.134-7-7-7-.169 0-.338.011-.506.025-1.666-2.512-4.48-4.02-7.494-4.03m2 10l-3 8h4l-2 7 7-9.998h-4l3.141-5z" opacity=".1"/>
  <path d="m21 13c-4.971-.001-9 4.03-9 9 0 3.937 2.532 7.274 6.05 8.496l.701-1.871c-2.763-.936-4.754-3.546-4.754-6.625 0-3.866 3.134-7 7-7 2.074.001 4.04.925 5.367 2.518.438.525.797 1.111 1.064 1.74.506-.169 1.035-.257 1.568-.258.161 0 .322.01.482.025 2.562.249 4.517 2.401 4.518 4.975 0 2.025-1.209 3.759-2.939 4.545l-1.705 2.438c3.7-.186 6.645-3.237 6.645-6.982 0-3.866-3.134-7-7-7-.169 0-.338.011-.506.025-1.666-2.512-4.48-4.02-7.494-4.03m2 10l-3 8h4l-2 7 7-9.998h-4l3.141-5z" fill="#f9f9f9"/>
</svg>
