<svg viewBox="0 0 48 48" xmlns="http://www.w3.org/2000/svg" xmlns:xlink="http://www.w3.org/1999/xlink">
  <linearGradient id="a" gradientTransform="matrix(0 -1 1 0 -.0000015 47.999998)" gradientUnits="userSpaceOnUse" x1="1" x2="47">
    <stop offset="0" stop-color="#cb3131"/>
    <stop offset="1" stop-color="#d14040"/>
  </linearGradient>
  <path d="m47 24c0 22.703-.297 23-23 23-22.703 0-23-.297-23-23 0-22.703.297-23 23-23 22.703 0 23 .297 23 23z" fill="url(#a)"/>
  <g transform="matrix(.12356538 0 0 .12356538 -8.8711615 -87.563552)">
    <path d="m757.86 370.2h160.23v160.23h-160.23z" fill-opacity=".11" transform="matrix(.70710678 .70710678 -.70710678 .70710678 0 0)"/>
    <path d="m746.42 370.2h160.23v160.23h-160.23z" fill="#282828" transform="matrix(.70710678 .70710678 -.70710678 .70710678 0 0)"/>
    <path d="m752.14 375.93h148.79v148.79h-148.79z" fill="#f1f13b" transform="matrix(.70710678 .70710678 -.70710678 .70710678 0 0)"/>
    <path d="m233.65 930.09c0-20.845 44.46-17.536 44.511-29.18.125-6.905-21.865-12.246-21.851-33.35-6.474 0-21.987 8.766-22.66 4.169-.396-3.376 27.314-41.583 32.372-41.69 5.057-.108 33.61 38.853 32.372 41.69-1.792 4.106-16.186-4.169-22.66-4.169.527 16.677 22.66 20.324 22.66 33.35 0 21.366-42.03 20.01-42.08 29.18-.044 8.338 25.897 9.225 25.897 27.1v10.421h-24.279v-10.524c-2.516-12.721-24.279-10.614-24.279-26.994z" fill="#282828"/>
  </g>
</svg>
