<svg viewBox="0 0 48 48" xmlns="http://www.w3.org/2000/svg" xmlns:xlink="http://www.w3.org/1999/xlink">
  <linearGradient id="a" gradientTransform="matrix(0 -1 1 0 -.0000015 47.999998)" gradientUnits="userSpaceOnUse" x1="1" x2="47">
    <stop offset="0" stop-color="#e7e7e5"/>
    <stop offset="1" stop-color="#f0f0ef"/>
  </linearGradient>
  <path d="m47 24c0 22.703-.297 23-23 23-22.703 0-23-.297-23-23 0-22.703.297-23 23-23 22.703 0 23 .297 23 23z" fill="url(#a)"/>
  <path d="m28.891 12c-2.692.043-5.336 2.103-6.398 5.252-.16.473-.281.957-.359 1.43v.016c-.754.852-1.375 1.867-1.77 3.043-.049.146-.086.293-.127.439-.251-.03-.511-.017-.77.053l-1.297.348c-1.097.293-1.742 1.418-1.449 2.512l.42 1.57c-.13.139-.241.296-.35.455-.044.001-.087.001-.131.021l-1.832.488c-1.543.414-2.461 2-2.047 3.547l1.254 4.68c.414 1.547 2 2.461 3.547 2.047l1.832-.488c.567-.152 1.047-.464 1.41-.873 1.206.071 2.736.139 4.5.139 1.468 0 2.779-.087 3.938-.188.353.364.798.648 1.326.789l1.832.488c1.543.414 3.133-.5 3.547-2.047l1.25-4.68c.364-1.355-.298-2.746-1.512-3.346l.354-1.318c.293-1.094-.355-2.219-1.449-2.512l-.484-.129c.035-.718-.001-1.425-.148-2.098.059-.148.117-.293.168-.449 1.293-3.84-.266-7.84-3.484-8.926-.402-.137-.82-.211-1.23-.246-.179-.015-.36-.02-.539-.018z" opacity=".1" transform=""/>
  <g transform="translate(.00033941)">
    <path d="m34.17 26.496l-1.832-.488c-1.543-.414-3.141.504-3.555 2.047l-1.254 4.68c-.402 1.543.504 3.133 2.059 3.547l1.832.488c1.543.414 3.133-.5 3.547-2.047l1.25-4.68c.414-1.543-.5-3.133-2.047-3.547m0 0" fill="#2e3436"/>
    <path d="m33.609 22.867l-1.297-.348c-1.094-.293-2.215.359-2.508 1.449l-.891 3.313c-.293 1.094.359 2.219 1.453 2.512l1.293.348c1.094.293 2.219-.355 2.512-1.449l.887-3.313c.293-1.094-.355-2.219-1.449-2.512m0 0" fill="#2e3436"/>
    <path d="m17.17 21.582l1.297-.348c1.094-.293 2.219.359 2.512 1.449l.887 3.313c.293 1.094-.355 2.219-1.449 2.512l-1.297.348c-1.094.293-2.219-.355-2.512-1.449l-.887-3.313c-.293-1.094.352-2.219 1.449-2.512m0 0" fill="#2e3436"/>
    <path d="m28.43 11.02c-2.871-.246-5.805 1.875-6.938 5.234-.16.473-.281.957-.359 1.43 0 .004 0 .008 0 .016-.754.852-1.375 1.867-1.77 3.043-1.414 4.191.426 8.594 4.098 9.832 3.672 1.238 7.785-1.148 9.195-5.34.527-1.559.617-3.148.32-4.594.059-.148.117-.293.168-.449 1.293-3.84-.266-7.84-3.484-8.926-.402-.137-.82-.211-1.23-.246m0 0" fill="#121919"/>
    <path d="m26.512 12.836c-.961.023-1.91.758-2.301 1.883-.336.977-.168 1.973.363 2.621-1.844.621-3.492 2.242-4.266 4.477-1.211 3.492.172 7.137 3.082 8.145 2.91 1.012 6.25-1 7.461-4.492.895-2.586.367-5.25-1.145-6.875 1.078.211 2.105-.254 2.371-1.113.289-.938-.441-1.977-1.617-2.344-.699-.215-1.395-.141-1.91.152.051-1.074-.469-2.039-1.379-2.355-.219-.078-.434-.105-.656-.098m1.336 4.297c.035.09.078.176.125.266-.066-.027-.137-.059-.207-.086-.023-.008-.047-.02-.07-.027.051-.051.105-.098.152-.145m0 0" fill="#ececec"/>
    <path d="m27.895 16.32c-.059.301-.227.563-.438.676-.211.117-.434.066-.578-.129-.141-.195-.184-.5-.105-.801.102-.449.434-.758.742-.688.313.07.48.488.379.941m0 0" fill="#2e3436"/>
    <path d="m29.367 16.766c-.059.305-.227.563-.438.68-.211.113-.434.066-.574-.129-.145-.195-.184-.5-.105-.801.098-.449.43-.758.742-.691.309.07.477.492.375.941m0 0" fill="#2e3436"/>
    <path d="m25.344 17.418c0 0 1.539-.32 2.438.063.895.387 1.473 1.348 1.473 1.348 0 0-1.539 2.211-2.883 1.555-1.344-.66-1.023-2.965-1.023-2.965m-.004 0" fill="#ffb30a"/>
    <path d="m21.246 17.938c0 0 .125 1.512.512 2.836.383 1.328.641 3.441-.449 2.355-1.09-1.09-1.664-2.438-1.09-3.59.578-1.152 1.027-1.602 1.027-1.602m0 0" fill="#121919"/>
    <path d="m32.578 20.19c0 0-1.277 1.508-2.691 2.625-1.41 1.117-3.281 3.168-1.305 2.836 1.984-.332 3.613-1.324 3.871-2.984.262-1.66.125-2.477.125-2.477m0 0" fill="#121919"/>
    <path d="m24.891 21.289c-1.832 0-3.332 1.48-3.332 3.316 0 1.836 1.5 3.332 3.332 3.332 1.836 0 3.32-1.496 3.32-3.332 0-1.836-1.484-3.316-3.32-3.316m.043.891c.324.008.645.086.934.207 2.52.941 1.406 5.105-1.254 4.629-2.801-.141-2.789-4.66 0-4.824.105-.016.215-.016.32-.012m0 0" fill="#2e3436"/>
    <path d="m26.496 24.633c0 .902-.73 1.633-1.633 1.633-.902 0-1.633-.73-1.633-1.633 0-.902.73-1.637 1.633-1.637.902 0 1.633.734 1.633 1.637m0 0" fill="#2e3436"/>
    <path d="m13.828 26.629l1.832-.488c1.543-.414 3.133.504 3.547 2.047l1.254 4.68c.414 1.543-.504 3.133-2.047 3.547l-1.832.488c-1.547.414-3.133-.5-3.547-2.047l-1.254-4.68c-.414-1.543.504-3.133 2.047-3.547m0 0" fill="#2e3436"/>
    <path d="m22.27 28.379c0 2.121-1.605 3.844-3.59 3.844-1.98 0-3.586-1.723-3.586-3.844 0-2.125 1.605-3.844 3.586-3.844 1.984 0 3.59 1.719 3.59 3.844m0 0" fill="#ffb30a"/>
    <path d="m33.28 29.535c0 2.125-1.605 3.844-3.586 3.844-1.98 0-3.59-1.719-3.59-3.844 0-2.121 1.609-3.844 3.59-3.844 1.98 0 3.586 1.723 3.586 3.844m0 0" fill="#ffb30a"/>
    <path d="m17.953 23.969c-.113-.004-.207 0-.293.012-.68.094-.406 1.313-.406 1.313 0 0 1.043-.043 1.996-.043.652 0 .914.23 1.016.375-1.336 1.078-3.191 3.32-3.191 4.742 0 1.473.32 4.992.32 4.992 0 0 3.02.32 6.93.32 3.91 0 7.238-.57 7.238-.57 0 0 .191-2.117.32-3.305.129-1.191-.773-3.621-1.477-4.52-.387-.492-1.176-1.129-1.828-1.629.09-.145.34-.406 1.031-.406.953 0 1.996.043 1.996.043 0 0 .273-1.219-.406-1.313-.68-.09-2.355.309-2.355.309l-.629 1.086c-.344-.254-.625-.457-.625-.457 0 0-1.152-.578-2.816-.645-1.668-.063-3.01.195-3.01.195l-1.148.879-.602-1.059c0 0-1.289-.305-2.063-.32m-.004 0" fill="#e25136"/>
    <path d="m20.715 28.828h7.449c1.133 0 2.051.918 2.051 2.051v1.664c0 1.133-.918 2.051-2.051 2.051h-7.449c-1.133 0-2.051-.918-2.051-2.051v-1.664c0-1.133.918-2.051 2.051-2.051m0 0" fill="#2e3436" fill-opacity=".675"/>
  </g>
</svg>
