<svg viewBox="0 0 48 48" xmlns="http://www.w3.org/2000/svg" xmlns:xlink="http://www.w3.org/1999/xlink">
  <linearGradient id="a" gradientTransform="matrix(0 -1 1 0 -.0000015 47.999998)" gradientUnits="userSpaceOnUse" x1="1" x2="47">
    <stop offset="0" stop-color="#c3cfdd"/>
    <stop offset="1" stop-color="#d0d9e4"/>
  </linearGradient>
  <path d="m47 24c0 22.703-.297 23-23 23-22.703 0-23-.297-23-23 0-22.703.297-23 23-23 22.703 0 23 .297 23 23z" fill="url(#a)"/>
  <g opacity=".1" transform="translate(1 1)">
    <path d="m22.48 12.156c-3.207.719-5.664 3.992-5.734 7.984-.008.566.023 1.121.109 1.656 0 .004.004.008.004.016-.523 1.176-.848 2.477-.871 3.879-.086 4.98 3.438 9.08 7.852 9.152 4.414.078 8.06-3.891 8.16-8.879.031-1.852-.418-3.59-1.238-5.04.012-.188.023-.355.027-.543.074-4.566-3-8.328-6.871-8.398-.484-.008-.961.055-1.418.156m-.02.008"/>
    <path d="m17.941 33.3c-.465 1.109.262 2.277 1.621 2.609 1.359.328 2.84-.301 3.305-1.414.465-1.109-.262-2.277-1.621-2.609-1.359-.328-2.84.305-3.305 1.414m0 0"/>
    <path d="m29.988 33.31c.445 1-.25 2.059-1.559 2.359-1.305.297-2.727-.273-3.172-1.277-.445-1 .254-2.063 1.559-2.359 1.305-.301 2.727.273 3.172 1.277m0 0"/>
  </g>
  <g transform="translate(-.00045881)">
    <path d="m22.48 12.156c-3.207.719-5.664 3.992-5.734 7.984-.008.566.023 1.121.109 1.656 0 .004.004.008.004.016-.523 1.176-.848 2.477-.871 3.879-.086 4.98 3.438 9.08 7.852 9.152 4.414.078 8.06-3.891 8.16-8.879.031-1.852-.418-3.59-1.238-5.04.012-.188.023-.355.027-.543.074-4.566-3-8.328-6.871-8.398-.484-.008-.961.055-1.418.156m-.02.008" fill="#121919"/>
    <path d="m21.04 14.762c-1.035.352-1.813 1.465-1.848 2.805-.027 1.16.496 2.176 1.301 2.691-1.793 1.297-3.02 3.602-3.086 6.262-.109 4.164 2.652 7.602 6.164 7.691 3.508.086 6.441-3.207 6.551-7.371.082-3.082-1.418-5.766-3.617-6.988 1.242-.145 2.195-.996 2.188-2.01-.012-1.109-1.164-1.98-2.57-1.965-.832.008-1.563.32-2.02.813-.316-1.168-1.215-2.031-2.316-2.059-.266-.012-.508.031-.75.121m2.945 4.148c.07.09.148.164.23.246-.09-.008-.172-.016-.258-.02-.023 0-.055-.004-.086-.008.039-.074.082-.141.113-.219m0 0" fill="#ececec"/>
    <path d="m23.742 18.03c.047.516-.207.961-.566.992-.363.031-.691-.363-.738-.883-.043-.523.211-.965.57-.996.359-.027.691.367.734.887m0 0" fill="#2e3436"/>
    <path d="m25.496 18c .047.352-.043.695-.234.895-.191.199-.453.223-.676.059-.223-.164-.375-.484-.391-.836-.047-.348.043-.691.234-.891.191-.199.453-.223.676-.063.227.164.375.488.391.836m0 0" fill="#2e3436"/>
    <path d="m21.355 20.09c0 0 1.559-.871 2.668-.762 1.105.105 2.063.941 2.063.941 0 0-.906 2.902-2.594 2.656-1.688-.25-2.141-2.836-2.141-2.836m.004 0" fill="#ffb30a"/>
    <path d="m17.08 22.04c0 0 .664 1.574 1.539 2.867.875 1.297 1.895 3.48.328 2.68-1.559-.797-2.645-2.043-2.426-3.48.227-1.438.566-2.07.566-2.07m-.008.004" fill="#121919"/>
    <path d="m30.17 20.586c0 0-.871 2.051-2.023 3.734-1.145 1.688-2.473 4.527-.438 3.492 2.031-1.031 3.465-2.652 3.172-4.523-.293-1.875-.727-2.703-.727-2.703m.004 0" fill="#121919"/>
    <path d="m17.941 33.3c-.465 1.109.262 2.277 1.621 2.609 1.359.328 2.84-.301 3.305-1.414.465-1.109-.262-2.277-1.621-2.609-1.359-.328-2.84.305-3.305 1.414m0 0" fill="#ffb30a"/>
    <path d="m29.988 33.31c.445 1-.25 2.059-1.559 2.359-1.305.297-2.727-.273-3.172-1.277-.445-1 .254-2.063 1.559-2.359 1.305-.301 2.727.273 3.172 1.277m0 0" fill="#ffb30a"/>
  </g>
</svg>
