<svg viewBox="0 0 48 48" xmlns="http://www.w3.org/2000/svg" xmlns:xlink="http://www.w3.org/1999/xlink">
  <linearGradient id="a" gradientTransform="matrix(0 -1 1 0 -.0000015 47.999998)" gradientUnits="userSpaceOnUse" x1="1" x2="47">
    <stop offset="0" stop-color="#e4e4e4"/>
    <stop offset="1" stop-color="#eee"/>
  </linearGradient>
  <path d="m47 24c0 22.703-.297 23-23 23-22.703 0-23-.297-23-23 0-22.703.297-23 23-23 22.703 0 23 .297 23 23z" fill="url(#a)"/>
  <g opacity=".1">
    <path d="m14 20h20v16h-20z"/>
    <path d="m34 36l3-1v-16l-3 1z"/>
    <path d="m24 11l3-1 11 9-3 1z"/>
    <path d="m18 12h1c .554 0 1 .446 1 1v4c0 .554-.446 1-1 1h-1c-.554 0-1-.446-1-1v-4c0-.554.446-1 1-1z"/>
    <path d="m13 20h22l-11-9z"/>
  </g>
  <g fill="#decd87" transform="translate(-1 -1)">
    <path d="m26 9l-3 1-11 9h1v16h20l3-1v-15.65625l1-.34375z" transform="translate(1 1)"/>
    <path d="m18 12h1c .554 0 1 .446 1 1v4c0 .554-.446 1-1 1h-1c-.554 0-1-.446-1-1v-4c0-.554.446-1 1-1z"/>
    <path d="m17 27c2-2 4-2 6 0v9h-6z"/>
    <path d="m27 22h3c .554 0 1 .446 1 1v3c0 .554-.446 1-1 1h-3c-.554 0-1-.446-1-1v-3c0-.554.446-1 1-1z"/>
  </g>
  <ellipse cx="31.5" cy="16" fill="#aca793" rx="7.5" ry="9" transform="matrix(.55893792 -.86911801 .74762842 .48080683 -4.6398567 43.859491)"/>
  <path d="m24 16a7.5 9 0 0 1 3.844-7.858 7.5 9 0 0 1  7.592.198 7.5 9 0 0 1  3.557 8.05" fill="#784421" transform="matrix(.55893792 -.86911801 .74762842 .48080683 -4.6398562 43.859491)"/>
</svg>
