<svg viewBox="0 0 48 48" xmlns="http://www.w3.org/2000/svg" xmlns:xlink="http://www.w3.org/1999/xlink">
  <linearGradient id="a" gradientTransform="matrix(0 -1 1 0 -.0000015 47.999998)" gradientUnits="userSpaceOnUse" x1="1" x2="47">
    <stop offset="0" stop-color="#e1e1e1"/>
    <stop offset="1" stop-color="#ebebeb"/>
  </linearGradient>
  <linearGradient gradientUnits="userSpaceOnUse" x1="1" x2="47" xlink:href="#a"/>
  <linearGradient id="b" gradientUnits="userSpaceOnUse" x2="0" xlink:href="#a" y1="47" y2="1"/>
  <path d="m24 1c22.703 0 23 .297 23 23 0 22.703-.297 23-23 23-22.703 0-23-.297-23-23 0-22.703.297-23 23-23z" fill="url(#b)"/>
  <g opacity=".1">
    <path d="m14 20h20v16h-20z"/>
    <path d="m34 36l3-1v-16l-3 1z"/>
    <path d="m24 11l3-1 11 9-3 1z"/>
    <path d="m18 12h1c .554 0 1 .446 1 1v4c0 .554-.446 1-1 1h-1c-.554 0-1-.446-1-1v-4c0-.554.446-1 1-1z"/>
    <path d="m13 20h22l-11-9z"/>
  </g>
  <g fill="#c8b7b7" transform="translate(-1 -1)">
    <path d="m26 9l-3 1-11 9h1v16h20l3-1v-15.65625l1-.34375z" transform="translate(1 1)"/>
    <path d="m18 12h1c .554 0 1 .446 1 1v4c0 .554-.446 1-1 1h-1c-.554 0-1-.446-1-1v-4c0-.554.446-1 1-1z"/>
    <path d="m17 27c2-2 4-2 6 0v9h-6z"/>
    <path d="m27 22h3c .554 0 1 .446 1 1v3c0 .554-.446 1-1 1h-3c-.554 0-1-.446-1-1v-3c0-.554.446-1 1-1z"/>
  </g>
  <path d="m19 27h1v6h-1z" fill="#d38d5f"/>
  <path d="m26 26h1v7h-1z" fill="#d38d5f"/>
  <path d="m21 16h1v15h-1z" fill="#d38d5f"/>
  <path d="m28 16h1v15h-1z" fill="#d38d5f"/>
  <path d="m19 26h8l2-2h-8z" fill="#a40"/>
  <path d="m21 17h8v7h-8z" fill="#803300"/>
  <path d="m19 26v1h8l2-2v-1l-2 2z" fill="#501616"/>
</svg>
