<svg viewBox="0 0 48 48" xmlns="http://www.w3.org/2000/svg" xmlns:xlink="http://www.w3.org/1999/xlink">
  <linearGradient id="a" gradientTransform="matrix(0 -1 1 0 -.0000015 47.999998)" gradientUnits="userSpaceOnUse" x1="1" x2="47">
    <stop offset="0" stop-color="#575757"/>
    <stop offset="1" stop-color="#616161"/>
  </linearGradient>
  <path d="m47 24c0 22.703-.297 23-23 23-22.703 0-23-.297-23-23 0-22.703.297-23 23-23 22.703 0 23 .297 23 23z" fill="url(#a)"/>
  <g opacity=".1" transform="translate(1 1)">
    <path d="m26.402 12h7.203c1.324 0 2.398 1.074 2.398 2.398v7.207c0 1.324-1.074 2.398-2.398 2.398h-7.203c-1.324 0-2.398-1.074-2.398-2.398v-7.207c0-1.324 1.074-2.398 2.398-2.398m0 0"/>
    <path d="m14.398 12h7.207c1.324 0 2.398 1.074 2.398 2.398v7.207c0 1.324-1.074 2.398-2.398 2.398h-7.207c-1.324 0-2.398-1.074-2.398-2.398v-7.207c0-1.324 1.074-2.398 2.398-2.398m0 0"/>
    <path d="m26.402 24h7.203c1.324 0 2.398 1.074 2.398 2.398v7.203c0 1.324-1.074 2.398-2.398 2.398h-7.203c-1.324 0-2.398-1.074-2.398-2.398v-7.203c0-1.324 1.074-2.398 2.398-2.398m0 0"/>
    <path d="m14.398 24h7.207c1.324 0 2.398 1.074 2.398 2.398v7.203c0 1.324-1.074 2.398-2.398 2.398h-7.207c-1.324 0-2.398-1.074-2.398-2.398v-7.203c0-1.324 1.074-2.398 2.398-2.398m0 0"/>
  </g>
  <path d="m26.402 12h7.203c1.324 0 2.398 1.074 2.398 2.398v7.207c0 1.324-1.074 2.398-2.398 2.398h-7.203c-1.324 0-2.398-1.074-2.398-2.398v-7.207c0-1.324 1.074-2.398 2.398-2.398m0 0" fill="#68b0e3"/>
  <path d="m14.398 12h7.207c1.324 0 2.398 1.074 2.398 2.398v7.207c0 1.324-1.074 2.398-2.398 2.398h-7.207c-1.324 0-2.398-1.074-2.398-2.398v-7.207c0-1.324 1.074-2.398 2.398-2.398m0 0" fill="#68b0e3"/>
  <path d="m26.402 24h7.203c1.324 0 2.398 1.074 2.398 2.398v7.203c0 1.324-1.074 2.398-2.398 2.398h-7.203c-1.324 0-2.398-1.074-2.398-2.398v-7.203c0-1.324 1.074-2.398 2.398-2.398m0 0" fill="#68b0e3"/>
  <path d="m14.398 24h7.207c1.324 0 2.398 1.074 2.398 2.398v7.203c0 1.324-1.074 2.398-2.398 2.398h-7.207c-1.324 0-2.398-1.074-2.398-2.398v-7.203c0-1.324 1.074-2.398 2.398-2.398m0 0" fill="#d5e56a"/>
</svg>
