<svg xmlns="http://www.w3.org/2000/svg" xmlns:xlink="http://www.w3.org/1999/xlink" viewBox="0 0 48 48">
 <defs>
  <linearGradient id="linearGradient3764" x1="1" x2="47" gradientUnits="userSpaceOnUse" gradientTransform="matrix(0,-1,1,0,-1.5e-6,47.999998)">
   <stop style="stop-color:#6398c9;stop-opacity:1"/>
   <stop offset="1" style="stop-color:#72a2cf;stop-opacity:1"/>
  </linearGradient>
 </defs>
 <g>
  
  
  
 </g>
 <g>
  <path d="m 47,24 C 47,46.703 46.703,47 24,47 1.297,47 1,46.703 1,24 1,1.297 1.297,1 24,1 46.703,1 47,1.297 47,24 z" style="fill:url(#linearGradient3764);fill-opacity:1"/>
 </g>
 <g>
  <g>
   <g transform="translate(1,1)">
    <g style="opacity:0.1">
     <!-- color: #72a2cf -->
     <g>
      <path d="m 16 13 c -1 0 -1 0.461 -1.25 1 l -1.75 7 l -0.004 0 l 0 15.11 c 0 0.492 0.395 0.887 0.887 0.887 l 22.23 0 c 0.492 0 0.887 -0.395 0.887 -0.887 l 0 -15.11 l -1.75 -7 c -0.25 -0.48 -0.25 -1 -1.25 -1 l -18 0 z" transform="translate(-1,-1)" style="fill:#000;fill-opacity:1;stroke:none;fill-rule:nonzero"/>
      <path d="m 21.5 12 l 5.102 0 l 0.398 13 l -3 -3 l -3 3 m 0.5 -13" style="fill:#000;fill-opacity:0.8;stroke:none;fill-rule:nonzero"/>
      <use xlink:href="#SVGCleanerId_0"/>
     </g>
    </g>
   </g>
  </g>
 </g>
 <g>
  <g>
   <!-- color: #72a2cf -->
   <g>
    <path d="M 15 12 C 14 12 14 12.461 13.75 13 L 12 20 L 24 23 L 36 20 L 34.25 13 C 34 12.52 34 12 33 12 L 15 12 z " style="fill:#f4d653;fill-opacity:1;stroke:none;fill-rule:nonzero"/>
    <path d="m 11.996 20 l 0 15.11 c 0 0.492 0.395 0.887 0.887 0.887 l 22.23 0 c 0.492 0 0.887 -0.395 0.887 -0.887 l 0 -15.11 l -24 0 z" style="fill:#f4ba3d;fill-opacity:1;stroke:none;fill-rule:nonzero"/>
    <path d="m 21.5 12 l -0.5 13 l 3 -3 l 3 3 l -0.398 -13 l -5.102 0 z" style="fill:#fff4d6;fill-opacity:0.8;stroke:none;fill-rule:nonzero"/>
    <path d="m 21.19 20 l -0.188 5 l 3 -3 l 3 3 l -0.156 -5 m -5.656 0" id="SVGCleanerId_0" style="fill:#000;fill-opacity:0.051;stroke:none;fill-rule:nonzero"/>
   </g>
  </g>
 </g>
 <g>
  
 </g>
</svg>
