<svg xmlns="http://www.w3.org/2000/svg" viewBox="0 0 48 48">
 <defs>
  <linearGradient id="linearGradient3764" x1="1" x2="47" gradientUnits="userSpaceOnUse" gradientTransform="matrix(0,-1,1,0,-1.5e-6,47.999998)">
   <stop style="stop-color:#d9d9d9;stop-opacity:1"/>
   <stop offset="1" style="stop-color:#e3e3e3;stop-opacity:1"/>
  </linearGradient>
 </defs>
 <g>
  
  
  
 </g>
 <g>
  <path d="m 47,24 C 47,46.703 46.703,47 24,47 1.297,47 1,46.703 1,24 1,1.297 1.297,1 24,1 46.703,1 47,1.297 47,24 z" style="fill:url(#linearGradient3764);fill-opacity:1"/>
 </g>
 <g>
  <g>
   <g transform="translate(1,1)">
    <g style="opacity:0.1">
     <!-- color: #e3e3e3 -->
    </g>
   </g>
  </g>
 </g>
 <g>
  <g>
   <!-- color: #e3e3e3 -->
  </g>
 </g>
 <g>
  
 </g>
 <path d="m 24 12 0 3.051 c -3.976 0.405 -7.329 3.137 -8.527 6.949 l 2.117 0 c 1.222 -3.02 4.152 -4.998 7.41 -5 3.258 0.002 6.19 1.979 7.412 5 l 2.125 0 c -1.203 -3.811 -4.56 -6.54 -8.537 -6.939 l 0 -3.061 z m 1 7 c -3.314 0 -6 2.686 -6 6 0.002 0.335 0.032 0.67 0.09 1 3.259 0 6.518 0 9.777 0 -0.455 1.764 -2.045 2.997 -3.867 3 -0.984 -0.001 -1.911 -0.37 -2.629 -1 l -2.547 0 c 1.057 1.826 3.01 2.997 5.176 3 3.314 0 6 -2.686 6 -6 -0.002 -0.335 -0.032 -0.67 -0.09 -1 l -9.777 0 c 0.455 -1.764 2.045 -2.997 3.867 -3 0.984 0.001 1.911 0.37 2.629 1 l 2.547 0 c -1.057 -1.826 -3.01 -2.997 -5.176 -3 z m -9.537 9 c 1.203 3.811 4.56 6.54 8.537 6.939 l 0 3.061 2 0 0 -3.051 c 3.976 -0.405 7.329 -3.137 8.527 -6.949 l -2.117 0 c -1.222 3.02 -4.152 4.998 -7.41 5 -3.258 -0.002 -6.19 -1.979 -7.412 -5 z" style="fill:#000;opacity:0.1;fill-opacity:1;stroke:none"/>
 <path d="m 23 11 0 3.051 c -3.976 0.405 -7.329 3.137 -8.527 6.949 l 2.117 0 c 1.222 -3.02 4.152 -4.998 7.41 -5 c 3.258 0.002 6.19 1.979 7.412 5 l 2.125 0 c -1.203 -3.811 -4.56 -6.54 -8.537 -6.939 l 0 -3.061 m -1 7 c -3.314 0 -6 2.686 -6 6 0.002 0.335 0.032 0.67 0.09 1 3.259 0 6.518 0 9.777 0 -0.455 1.764 -2.045 2.997 -3.867 3 -0.984 -0.001 -1.911 -0.37 -2.629 -1 l -2.547 0 c 1.057 1.826 3.01 2.997 5.176 3 3.314 0 6 -2.686 6 -6 -0.002 -0.335 -0.032 -0.67 -0.09 -1 l -9.777 0 c 0.455 -1.764 2.045 -2.997 3.867 -3 c 0.984 0.001 1.911 0.37 2.629 1 l 2.547 0 c -1.057 -1.826 -3.01 -2.997 -5.176 -3 m -9.537 9 c 1.203 3.811 4.56 6.54 8.537 6.939 l 0 3.061 l 2 0 0 -3.051 c 3.976 -0.405 7.329 -3.137 8.527 -6.949 l -2.117 0 c -1.222 3.02 -4.152 4.998 -7.41 5 -3.258 -0.002 -6.19 -1.979 -7.412 -5" style="fill:#199b8a;opacity:1;fill-opacity:1;stroke:none"/>
</svg>
