<svg xmlns="http://www.w3.org/2000/svg" viewBox="0 0 48 48">
 <defs>
  <linearGradient id="linearGradient3764" x1="1" x2="47" gradientUnits="userSpaceOnUse" gradientTransform="matrix(0,-1,1,0,-1.5e-6,47.999998)">
   <stop style="stop-color:#ec8724;stop-opacity:1"/>
   <stop offset="1" style="stop-color:#ee9237;stop-opacity:1"/>
  </linearGradient>
 </defs>
 <g>
  
  
  
 </g>
 <g>
  <path d="m 47,24 C 47,46.703 46.703,47 24,47 1.297,47 1,46.703 1,24 1,1.297 1.297,1 24,1 46.703,1 47,1.297 47,24 z" style="fill:url(#linearGradient3764);fill-opacity:1"/>
 </g>
 <g>
  <g>
   <g transform="translate(1,1)">
    <g style="opacity:0.1">
     <!-- color: #ee9237 -->
     <g>
      <path d="m 18.14 29.832 c -1.09 -3.805 2.602 -4.129 3.16 -3.914 c 4.695 1.219 0.207 9.961 -1.555 10.05 c -8.137 0.426 -7.973 -6.57 -7.621 -10.703 c 3.516 -10.457 17.691 -18.13 23.543 -9.621 c 0.902 3.438 -2.746 6.625 -5.965 7.121 c 7.746 -2.25 6.242 1.363 6.074 2.605 c -2 3.168 -4.691 4.219 -7.121 3.898 c 1.258 0.301 2.941 0.793 3.215 1.469 c -0.703 1.668 -4.871 6.797 -10.18 4.781 c 0 0 3.668 -7.301 1.184 -9.34 c -2.984 -2.316 -7.707 1.977 -4.723 3.633 m -0.012 0.016" style="fill:#000;fill-opacity:1;stroke:none;fill-rule:nonzero"/>
     </g>
    </g>
   </g>
  </g>
 </g>
 <g>
  <g>
   <!-- color: #ee9237 -->
   <g>
    <path d="m 18.14 29.832 c -1.09 -3.805 2.602 -4.129 3.16 -3.914 c 4.695 1.219 0.207 9.961 -1.555 10.05 c -8.137 0.426 -7.973 -6.57 -7.621 -10.703 c 3.516 -10.457 17.691 -18.13 23.543 -9.621 c 0.902 3.438 -2.746 6.625 -5.965 7.121 c 7.746 -2.25 6.242 1.363 6.074 2.605 c -2 3.168 -4.691 4.219 -7.121 3.898 c 1.258 0.301 2.941 0.793 3.215 1.469 c -0.703 1.668 -4.871 6.797 -10.18 4.781 c 0 0 3.668 -7.301 1.184 -9.34 c -2.984 -2.316 -7.707 1.977 -4.723 3.633 m -0.012 0.016" style="fill:#dedede;fill-opacity:1;stroke:none;fill-rule:nonzero"/>
   </g>
  </g>
 </g>
 <g>
  
 </g>
</svg>
