<svg viewBox="0 0 48 48" xmlns="http://www.w3.org/2000/svg" xmlns:xlink="http://www.w3.org/1999/xlink">
  <linearGradient id="a" gradientTransform="matrix(0 -1 1 0 -.0000015 47.999998)" gradientUnits="userSpaceOnUse" x1="1" x2="47">
    <stop offset="0" stop-color="#dbdbdb"/>
    <stop offset="1" stop-color="#e5e5e5"/>
  </linearGradient>
  <path d="m47 24c0 22.703-.297 23-23 23-22.703 0-23-.297-23-23 0-22.703.297-23 23-23 22.703 0 23 .297 23 23z" fill="url(#a)"/>
  <g opacity=".1" transform="translate(1 1)">
    <path d="m24 9c-8.219 0-15 6.703-15 15h3.969c0-6.02 4.863-10.906 11.03-10.906m0-4.094"/>
    <path d="m24 9v4.094c6.168 0 11.03 4.887 11.03 10.906h3.969c0-8.297-6.781-15-15-15m0 0"/>
    <path d="m35.03 24c0 6.02-4.863 10.906-11.03 10.906v4.09c8.215 0 14.996-6.703 14.996-14.996m-3.969 0"/>
    <path d="m9 24c0 8.297 6.781 15 15 15v-4.094c-6.168 0-11.03-4.887-11.03-10.906m-3.969 0"/>
  </g>
  <path d="m24 9c-8.219 0-15 6.703-15 15h3.969c0-6.02 4.863-10.906 11.03-10.906m0-4.094" fill="#4578c8"/>
  <path d="m24 9v4.094c6.168 0 11.03 4.887 11.03 10.906h3.969c0-8.297-6.781-15-15-15m0 0" fill="#116f4d"/>
  <path d="m35.03 24c0 6.02-4.863 10.906-11.03 10.906v4.09c8.215 0 14.996-6.703 14.996-14.996m-3.969 0" fill="#007895"/>
  <path d="m9 24c0 8.297 6.781 15 15 15v-4.094c-6.168 0-11.03-4.887-11.03-10.906m-3.969 0" fill="#70aa12"/>
</svg>
