<svg viewBox="0 0 48 48" xmlns="http://www.w3.org/2000/svg" xmlns:xlink="http://www.w3.org/1999/xlink">
  <linearGradient id="a" gradientTransform="matrix(0 -1 1 0 -.0000015 47.999998)" gradientUnits="userSpaceOnUse" x1="1" x2="47">
    <stop offset="0" stop-color="#3578c3"/>
    <stop offset="1" stop-color="#4183cc"/>
  </linearGradient>
  <path d="m47 24c0 22.703-.297 23-23 23-22.703 0-23-.297-23-23 0-22.703.297-23 23-23 22.703 0 23 .297 23 23z" fill="url(#a)"/>
  <path d="m24 11.652c-5.813 0-10.523 14.73-10.523 21.258 0 .363.016.734.043 1.09 1.18-.695 2.523-1.098 3.949-1.098 2.625 0 4.969 1.344 6.527 3.445 1.559-2.105 3.902-3.445 6.527-3.445 1.426 0 2.766.398 3.941 1.094.027-.355.043-.719.043-1.082 0-6.535-4.707-21.262-10.516-21.262m.008 0" fill-opacity=".8" opacity=".1" transform="translate(1 1)"/>
  <path d="m24 11.652c-5.813 0-10.523 14.73-10.523 21.258 0 .363.016.734.043 1.09 1.18-.695 2.523-1.098 3.949-1.098 2.625 0 4.969 1.344 6.527 3.445 1.559-2.105 3.902-3.445 6.527-3.445 1.426 0 2.766.398 3.941 1.094.027-.355.043-.719.043-1.082 0-6.535-4.707-21.262-10.516-21.262m.008 0" fill="#f9f9f9" fill-opacity=".8"/>
</svg>
