<svg xmlns="http://www.w3.org/2000/svg" viewBox="0 0 48 48">
 <defs>
  <linearGradient id="linearGradient3764" x1="1" x2="47" gradientUnits="userSpaceOnUse" gradientTransform="matrix(0,-1,1,0,-1.5e-6,47.999998)">
   <stop style="stop-color:#e0e0e0;stop-opacity:1"/>
   <stop offset="1" style="stop-color:#eaeaea;stop-opacity:1"/>
  </linearGradient>
 </defs>
 <g>
  
  
  
 </g>
 <g>
  <path d="m 47,24 C 47,46.703 46.703,47 24,47 1.297,47 1,46.703 1,24 1,1.297 1.297,1 24,1 46.703,1 47,1.297 47,24 z" style="fill:url(#linearGradient3764);fill-opacity:1"/>
 </g>
 <g>
  <g>
   <g transform="translate(1,1)">
    <g style="opacity:0.1">
     <!-- color: #eaeaea -->
    </g>
   </g>
  </g>
 </g>
 <g>
  <g>
   <!-- color: #eaeaea -->
   <g>
    <path d="m 16 13 c -1.66 0 -3 1.34 -3 3 l 0 18 c 0 1.66 1.34 3 3 3 l 18 0 c 1.66 0 3 -1.34 3 -3 l 0 -18 c 0 -1.66 -1.34 -3 -3 -3 l -18 0 z m 0 3 18 0 0 18 -18 0 0 -18 z m 2 13 0 3 14 0 0 -3 -14 0 z" style="fill:#000;fill-opacity:0.098"/>
    <path d="m 15 12 c -1.66 0 -3 1.34 -3 3 l 0 18 c 0 1.66 1.34 3 3 3 l 18 0 c 1.66 0 3 -1.34 3 -3 l 0 -18 c 0 -1.66 -1.34 -3 -3 -3 m -18 3 l 18 0 l 0 18 l -18 0 m 0 -18" style="fill:#636363;fill-opacity:1;stroke:none;fill-rule:nonzero"/>
    <path d="m 17 28 l 14 0 l 0 3 l -14 0 m 0 -3" style="fill:#636363;fill-opacity:1;stroke:none;fill-rule:nonzero"/>
   </g>
  </g>
 </g>
 <g>
  
 </g>
</svg>
