<svg xmlns="http://www.w3.org/2000/svg" viewBox="0 0 48 48">
 <defs>
  <linearGradient id="linearGradient3764" x1="1" x2="47" gradientUnits="userSpaceOnUse" gradientTransform="matrix(0,-1,1,0,-1.5e-6,47.999998)">
   <stop style="stop-color:#48a6cf;stop-opacity:1"/>
   <stop offset="1" style="stop-color:#59aed3;stop-opacity:1"/>
  </linearGradient>
 </defs>
 <g>
  
  
  
 </g>
 <g>
  <path d="m 47,24 C 47,46.703 46.703,47 24,47 1.297,47 1,46.703 1,24 1,1.297 1.297,1 24,1 46.703,1 47,1.297 47,24 z" style="fill:url(#linearGradient3764);fill-opacity:1"/>
 </g>
 <g>
  
 </g>
 <path d="m 39.07 33.35 -6.446 0.963 -2.066 6.182 -5.557 -3.407 -5.557 3.407 l -2.066 -6.182 -6.446 -0.963 2.391 -6.06 -4.32 -4.881 5.73 -3.109 -0.171 -6.516 6.387 1.301 4.056 -5.102 4.056 5.102 6.387 -1.301 -0.173 6.516 5.73 3.109 -4.32 4.881 z" style="fill:#000;opacity:0.1;fill-opacity:1;stroke:none;fill-rule:nonzero"/>
 <g transform="matrix(3.543307,0,0,3.543307,-0.00369489,0.0016976)">
  <path transform="matrix(0.50312194,0,0,0.50312194,13.313919,2.590201)" d="m -5.107 13 -3.616 0.54 -1.159 3.468 -3.117 -1.911 -3.117 1.911 -1.159 -3.468 -3.616 -0.54 1.341 -3.402 -2.423 -2.738 3.214 -1.744 -0.096 -3.655 3.583 0.73 2.275 -2.862 2.275 2.862 3.583 -0.73 -0.097 3.655 3.214 1.744 -2.423 2.738 z" style="fill:#f2f6f8;fill-opacity:1;stroke:none;fill-rule:nonzero"/>
  <path d="m 5.644 9.313 2.258 0 0 -2.822 1.27 0 -2.399 -2.399 -2.328 2.399 1.199 0" style="fill:#48cf8e;fill-opacity:1;stroke:none;fill-rule:nonzero"/>
 </g>
</svg>
