<svg viewBox="0 0 48 48" xmlns="http://www.w3.org/2000/svg" xmlns:xlink="http://www.w3.org/1999/xlink">
  <linearGradient id="a" gradientTransform="matrix(0 -1 1 0 -.0000015 47.999998)" gradientUnits="userSpaceOnUse" x1="1" x2="47">
    <stop offset="0" stop-color="#2cac5c"/>
    <stop offset="1" stop-color="#30bd65"/>
  </linearGradient>
  <path d="m47 24c0 22.703-.297 23-23 23-22.703 0-23-.297-23-23 0-22.703.297-23 23-23 22.703 0 23 .297 23 23z" fill="url(#a)"/>
  <g opacity=".1" transform="translate(1 1)">
    <path d="m34.559 19.613c-1.828-4.02-5.922-6.613-10.531-6.613-4.715 0-9.03 2.832-10.73 7.04l3.578 1.324c1.133-2.809 4.01-4.688 7.152-4.688 3.035 0 5.719 1.68 6.961 4.301l-2.609 1 6.672 3.688 1.953-6.977m-2.445.93"/>
    <path d="m24.03 31.33c-3.01 0-5.75-1.727-6.977-4.344l2.563-.945-6.598-3.602-2.02 6.793 2.461-.91c1.793 4.01 5.98 6.68 10.562 6.68 4.734 0 8.922-2.719 10.688-6.926l-3.566-1.355c-1.168 2.809-3.965 4.621-7.121 4.621m0-.004"/>
  </g>
  <path d="m34.559 19.613c-1.828-4.02-5.922-6.613-10.531-6.613-4.715 0-9.03 2.832-10.73 7.04l3.578 1.324c1.133-2.809 4.01-4.688 7.152-4.688 3.035 0 5.719 1.68 6.961 4.301l-2.609 1 6.672 3.688 1.953-6.977m-2.445.93" fill="#f9f9f9"/>
  <path d="m24.03 31.33c-3.01 0-5.75-1.727-6.977-4.344l2.563-.945-6.598-3.602-2.02 6.793 2.461-.91c1.793 4.01 5.98 6.68 10.562 6.68 4.734 0 8.922-2.719 10.688-6.926l-3.566-1.355c-1.168 2.809-3.965 4.621-7.121 4.621m0-.004" fill="#f9f9f9"/>
</svg>
