<svg viewBox="0 0 48 48" xmlns="http://www.w3.org/2000/svg" xmlns:xlink="http://www.w3.org/1999/xlink">
  <linearGradient id="a" gradientTransform="matrix(0 -1 1 0 -.0000015 47.999998)" gradientUnits="userSpaceOnUse" x1="1" x2="47">
    <stop offset="0" stop-color="#5d4b33"/>
    <stop offset="1" stop-color="#69553a"/>
  </linearGradient>
  <path d="m47 24c0 22.703-.297 23-23 23-22.703 0-23-.297-23-23 0-22.703.297-23 23-23 22.703 0 23 .297 23 23z" fill="url(#a)"/>
  <path d="m23.965 12c-1.32.023-2.371 1.105-2.355 2.426v3.797l-2.68-2.684c-.453-.461-1.078-.719-1.727-.719-.648 0-1.266.254-1.715.719-.918.949-.895 2.461.051 3.383l2.691 2.691h-3.797c-.867-.008-1.672.445-2.105 1.188-.438.746-.438 1.668 0 2.414.434.742 1.238 1.195 2.105 1.188h3.797l-2.684 2.68c-.617.605-.867 1.488-.648 2.324.223.836.871 1.484 1.707 1.707.836.219 1.719-.031 2.324-.648l2.68-2.684v3.789c-.008.863.445 1.668 1.188 2.105.746.434 1.668.434 2.414 0 .742-.438 1.199-1.242 1.188-2.105v-3.789l2.68 2.684c.605.617 1.488.867 2.328.648.836-.223 1.484-.871 1.703-1.707.219-.836-.027-1.73-.648-2.332l-2.672-2.672h3.789c.648.008 1.266-.25 1.723-.711.457-.457.711-1.074.699-1.723-.02-1.32-1.105-2.371-2.422-2.355h-3.801l2.695-2.691c.461-.449.719-1.066.719-1.715 0-.648-.262-1.266-.727-1.715-.945-.918-2.461-.895-3.383.047l-2.68 2.684v-3.797c.008-.648-.25-1.27-.711-1.727-.457-.457-1.074-.707-1.723-.699m-.004 0" opacity=".1" transform="translate(1 1)"/>
  <path d="m23.965 12c-1.32.023-2.371 1.105-2.355 2.426v3.797l-2.68-2.684c-.453-.461-1.078-.719-1.727-.719-.648 0-1.266.254-1.715.719-.918.949-.895 2.461.051 3.383l2.691 2.691h-3.797c-.867-.008-1.672.445-2.105 1.188-.438.746-.438 1.668 0 2.414.434.742 1.238 1.195 2.105 1.188h3.797l-2.684 2.68c-.617.605-.867 1.488-.648 2.324.223.836.871 1.484 1.707 1.707.836.219 1.719-.031 2.324-.648l2.68-2.684v3.789c-.008.863.445 1.668 1.188 2.105.746.434 1.668.434 2.414 0 .742-.438 1.199-1.242 1.188-2.105v-3.789l2.68 2.684c.605.617 1.488.867 2.328.648.836-.223 1.484-.871 1.703-1.707.219-.836-.027-1.73-.648-2.332l-2.672-2.672h3.789c.648.008 1.266-.25 1.723-.711.457-.457.711-1.074.699-1.723-.02-1.32-1.105-2.371-2.422-2.355h-3.801l2.695-2.691c.461-.449.719-1.066.719-1.715 0-.648-.262-1.266-.727-1.715-.945-.918-2.461-.895-3.383.047l-2.68 2.684v-3.797c.008-.648-.25-1.27-.711-1.727-.457-.457-1.074-.707-1.723-.699m-.004 0" fill="#f9f9f9"/>
</svg>
