<svg xmlns="http://www.w3.org/2000/svg" viewBox="0 0 48 48">
 <defs>
  <linearGradient id="linearGradient3764" y1="47" x2="0" y2="1" gradientUnits="userSpaceOnUse">
   <stop style="stop-color:#39cbc2;stop-opacity:1"/>
   <stop offset="1" style="stop-color:#48cfc7;stop-opacity:1"/>
  </linearGradient>
 </defs>
 <g>
  
  
  
 </g>
 <g>
  <path d="m 47,24 C 47,46.703 46.703,47 24,47 1.297,47 1,46.703 1,24 1,1.297 1.297,1 24,1 46.703,1 47,1.297 47,24 z" style="fill:url(#linearGradient3764);fill-opacity:1"/>
 </g>
 <g>
  <g>
   <g transform="translate(1,1)">
    <g style="opacity:0.1">
     <!-- color: #48cfc7 -->
     <g>
      <path d="m 38.07 32.355 l -6.445 0.965 l -2.066 6.18 l -5.559 -3.406 l -5.559 3.406 l -2.066 -6.18 l -6.445 -0.965 l 2.391 -6.06 l -4.32 -4.883 l 5.73 -3.105 l -0.172 -6.516 l 6.387 1.301 l 4.055 -5.105 l 4.055 5.105 l 6.387 -1.301 l -0.172 6.516 l 5.73 3.105 l -4.32 4.883 m 2.391 6.06" style="fill:#000;fill-opacity:1;stroke:none;fill-rule:nonzero"/>
     </g>
    </g>
   </g>
  </g>
 </g>
 <g>
  <g>
   <!-- color: #48cfc7 -->
   <g>
    <path d="M 38.07,32.355 31.625,33.32 29.559,39.5 24,36.094 18.441,39.5 16.375,33.32 9.93,32.355 l 2.391,-6.06 -4.32,-4.883 5.73,-3.105 -0.172,-6.516 6.387,1.301 4.055,-5.105 4.055,5.105 6.387,-1.301 -0.172,6.516 5.73,3.105 -4.32,4.883 m 2.391,6.06" style="fill:#f2f5f8;fill-opacity:1;stroke:none;fill-rule:nonzero"/>
    <path d="m 20 16 8 0 0 10 4 0 -8 8 -8 -8 4 0" style="fill:#e55b42;fill-opacity:1;stroke:none;fill-rule:nonzero"/>
   </g>
  </g>
 </g>
 <g>
  
 </g>
</svg>
