<svg xmlns="http://www.w3.org/2000/svg" viewBox="0 0 48 48">
 <defs>
  <linearGradient id="linearGradient3764" x1="1" x2="47" gradientUnits="userSpaceOnUse" gradientTransform="matrix(0,-1,1,0,-1.5e-6,47.999998)">
   <stop style="stop-color:#366ee0;stop-opacity:1"/>
   <stop offset="1" style="stop-color:#487ce3;stop-opacity:1"/>
  </linearGradient>
 </defs>
 <g>
  
  
  
 </g>
 <g>
  <path d="m 47,24 C 47,46.703 46.703,47 24,47 1.297,47 1,46.703 1,24 1,1.297 1.297,1 24,1 46.703,1 47,1.297 47,24 z" style="fill:url(#linearGradient3764);fill-opacity:1"/>
 </g>
 <g>
  <g>
   <g transform="translate(1,1)">
    <g style="opacity:0.1">
     <!-- color: #487ce3 -->
     <g>
      <path d="m 33 12.625 l 0 1.469 l -17 -0.031 l -2 2 l 0 8 c 0 2 2 2 2 2 l 14 0 c 1 0 1 1 1 1 l 0 1.938 c 0 1 -1 1 -1 1 l -14 0.063 l 0 -1.469 l -4.438 3.469 l 4.438 3.469 l 0 -1.469 l 17 -0.063 l 2 -2 l 0 -7.938 c 0 -2 -2 -2 -2 -2 l -14 0 l -1 -1 l 0 -2.063 c 0 -1 1 -1 1 -1 l 14 0.063 l 0 1.438 l 4.563 -3.469 m -4.563 -3.406" style="fill:#000;fill-opacity:1;stroke:none;fill-rule:nonzero"/>
     </g>
    </g>
   </g>
  </g>
 </g>
 <g>
  <g>
   <!-- color: #487ce3 -->
   <g>
    <path d="m 33 12.625 l 0 1.469 l -17 -0.031 l -2 2 l 0 8 c 0 2 2 2 2 2 l 14 0 c 1 0 1 1 1 1 l 0 1.938 c 0 1 -1 1 -1 1 l -14 0.063 l 0 -1.469 l -4.438 3.469 l 4.438 3.469 l 0 -1.469 l 17 -0.063 l 2 -2 l 0 -7.938 c 0 -2 -2 -2 -2 -2 l -14 0 l -1 -1 l 0 -2.063 c 0 -1 1 -1 1 -1 l 14 0.063 l 0 1.438 l 4.563 -3.469 m -4.563 -3.406" style="fill:#f2f2f2;fill-opacity:1;stroke:none;fill-rule:nonzero"/>
   </g>
  </g>
 </g>
 <g>
  
 </g>
</svg>
