<svg viewBox="0 0 48 48" xmlns="http://www.w3.org/2000/svg" xmlns:xlink="http://www.w3.org/1999/xlink">
  <linearGradient id="a" gradientUnits="userSpaceOnUse" x2="0" y1="47" y2="1">
    <stop offset="0" stop-color="#39cbc2"/>
    <stop offset="1" stop-color="#48cfc7"/>
  </linearGradient>
  <path d="m47 24c0 22.703-.297 23-23 23-22.703 0-23-.297-23-23 0-22.703.297-23 23-23 22.703 0 23 .297 23 23z" fill="url(#a)"/>
  <path d="m38.07 32.355l-6.445.965-2.066 6.18-5.559-3.406-5.559 3.406-2.066-6.18-6.445-.965 2.391-6.06-4.32-4.883 5.73-3.105-.172-6.516 6.387 1.301 4.055-5.105 4.055 5.105 6.387-1.301-.172 6.516 5.73 3.105-4.32 4.883m2.391 6.06" opacity=".1" transform="translate(1 1)"/>
  <path d="m38.07 32.355l-6.445.965-2.066 6.18-5.559-3.406-5.559 3.406-2.066-6.18-6.445-.965 2.391-6.06-4.32-4.883 5.73-3.105-.172-6.516 6.387 1.301 4.055-5.105 4.055 5.105 6.387-1.301-.172 6.516 5.73 3.105-4.32 4.883m2.391 6.06" fill="#f2f5f8"/>
  <path d="m20 16h8v10h4l-8 8-8-8h4" fill="#e55b42"/>
</svg>
