<svg viewBox="0 0 48 48" xmlns="http://www.w3.org/2000/svg" xmlns:xlink="http://www.w3.org/1999/xlink">
  <linearGradient id="a" gradientTransform="matrix(0 -1 1 0 -.0000015 47.999998)" gradientUnits="userSpaceOnUse" x1="1" x2="47">
    <stop offset="0" stop-color="#575757"/>
    <stop offset="1" stop-color="#616161"/>
  </linearGradient>
  <path d="m47 24c0 22.703-.297 23-23 23-22.703 0-23-.297-23-23 0-22.703.297-23 23-23 22.703 0 23 .297 23 23z" fill="url(#a)"/>
  <g opacity=".1" transform="translate(1 1)">
    <path d="m12.805 12c-.438.047-.809.461-.805.902v15.1c0 .473.527 1 1 1h9v6h4v-6h9c .473 0 1-.527 1-1v-15.1c0-.473-.43-.902-.898-.902m-20.1 2h18c .469 0 1 .586 1 1v11c0 .469-.566 1-1 1h-18c-.527 0-1-.48-1-1v-11c0-.406.512-1 1-1m0 19v3h18v-3m-18 0"/>
    <path d="m13.5 12.5v16h21v-16m-10.5 1.5c0 0 5 0 5 2.5v2.5c0 0 1 .398 1 1v6c0 .504-.438 1-1 1h-10c-.563 0-1-.496-1-1v-6c0-.602 1-1 1-1v-2.5c0-2.5 5-2.5 5-2.5m-3 3.5v1.5h6v-1.5c0-2.5-6-2.5-6 0m0 0"/>
  </g>
  <path d="m12.805 12c-.438.047-.809.461-.805.902v15.1c0 .473.527 1 1 1h9v6h4v-6h9c .473 0 1-.527 1-1v-15.1c0-.473-.43-.902-.898-.902m-20.1 2h18c .469 0 1 .586 1 1v11c0 .469-.566 1-1 1h-18c-.527 0-1-.48-1-1v-11c0-.406.512-1 1-1m0 19v3h18v-3m-18 0" fill="#eccf53"/>
  <path d="m13.5 12.5v16h21v-16m-10.5 1.5c0 0 5 0 5 2.5v2.5c0 0 1 .398 1 1v6c0 .504-.438 1-1 1h-10c-.563 0-1-.496-1-1v-6c0-.602 1-1 1-1v-2.5c0-2.5 5-2.5 5-2.5m-3 3.5v1.5h6v-1.5c0-2.5-6-2.5-6 0m0 0" fill="#eccf53"/>
</svg>
