<svg viewBox="0 0 48 48" xmlns="http://www.w3.org/2000/svg" xmlns:xlink="http://www.w3.org/1999/xlink">
  <linearGradient id="a" gradientTransform="matrix(0 -1 1 0 -.0000015 47.999998)" gradientUnits="userSpaceOnUse" x1="1" x2="47">
    <stop offset="0" stop-color="#366ee0"/>
    <stop offset="1" stop-color="#487ce3"/>
  </linearGradient>
  <path d="m47 24c0 22.703-.297 23-23 23-22.703 0-23-.297-23-23 0-22.703.297-23 23-23 22.703 0 23 .297 23 23z" fill="url(#a)"/>
  <path d="m33 12.625v1.469l-17-.031-2 2v8c0 2 2 2 2 2h14c1 0 1 1 1 1v1.938c0 1-1 1-1 1l-14 .063v-1.469l-4.438 3.469 4.438 3.469v-1.469l17-.063 2-2v-7.938c0-2-2-2-2-2h-14l-1-1v-2.063c0-1 1-1 1-1l14 .063v1.438l4.563-3.469m-4.563-3.406" opacity=".1" transform="translate(1 1)"/>
  <path d="m33 12.625v1.469l-17-.031-2 2v8c0 2 2 2 2 2h14c1 0 1 1 1 1v1.938c0 1-1 1-1 1l-14 .063v-1.469l-4.438 3.469 4.438 3.469v-1.469l17-.063 2-2v-7.938c0-2-2-2-2-2h-14l-1-1v-2.063c0-1 1-1 1-1l14 .063v1.438l4.563-3.469m-4.563-3.406" fill="#f2f2f2"/>
</svg>
