<svg xmlns="http://www.w3.org/2000/svg" viewBox="0 0 48 48">
 <defs>
  <linearGradient id="linearGradient3825" x1="1" x2="47" gradientUnits="userSpaceOnUse" gradientTransform="matrix(0,-1,1,0,0,48)">
   <stop style="stop-color:#fff19d;stop-opacity:1"/>
   <stop offset="1" style="stop-color:#fff4b1;stop-opacity:1"/>
  </linearGradient>
 </defs>
 <g>
  
  
  
 </g>
 <path d="M 1,24 C 1,1.297 1.297,1 24,1 46.703,1 47,1.297 47,24 47,46.703 46.703,47 24,47 1.297,47 1,46.703 1,24 z" style="fill:url(#linearGradient3825);fill-opacity:1"/>
 <g>
  <g>
   <g transform="translate(1,1)">
    <g style="opacity:0.1">
     <!-- color: #eeeeee -->
     <g>
      <path d="m 34.555 19.613 c -1.828 -4.03 -5.922 -6.617 -10.531 -6.617 c -4.715 0 -9.03 2.832 -10.734 7.04 l 3.578 1.324 c 1.129 -2.809 4.01 -4.691 7.156 -4.691 c 3.035 0 5.715 1.68 6.961 4.305 l -2.609 1 l 6.672 3.684 l 1.953 -6.977 m -2.445 0.934" style="fill:#000;fill-opacity:1;stroke:none;fill-rule:nonzero"/>
      <path d="m 24.02 31.34 c -3.01 0 -5.75 -1.734 -6.977 -4.344 l 2.57 -0.949 l -6.598 -3.605 l -2.02 6.793 l 2.461 -0.914 c 1.793 4.01 5.98 6.68 10.563 6.68 c 4.734 0 8.922 -2.715 10.664 -6.922 l -3.543 -1.359 c -1.168 2.809 -3.965 4.621 -7.121 4.621 m 0 0" style="fill:#000;fill-opacity:1;stroke:none;fill-rule:nonzero"/>
     </g>
    </g>
   </g>
  </g>
 </g>
 <path d="m 24.03 13 c -4.715 0 -9.05 2.823 -10.75 7.03 l 3.594 1.344 c 1.129 -2.809 4.01 -4.719 7.156 -4.719 c 3.035 0 5.723 1.688 6.969 4.313 l -2.625 1 l 6.688 3.688 l 1.938 -6.969 l -2.438 0.938 c -1.828 -4.03 -5.922 -6.625 -10.531 -6.625 z m -11.03 9.438 l -2 6.813 l 2.469 -0.938 c 1.793 4.01 5.98 6.688 10.563 6.688 c 4.734 0 8.914 -2.699 10.656 -6.906 l -3.563 -1.375 c -1.168 2.809 -3.938 4.625 -7.094 4.625 c -3.01 0 -5.773 -1.734 -7 -4.344 l 2.594 -0.938 l -6.625 -3.625 z" style="fill:#4e8746;fill-opacity:1;stroke:none;fill-rule:nonzero"/>
 <g>
  
 </g>
</svg>
