<svg viewBox="0 0 48 48" xmlns="http://www.w3.org/2000/svg" xmlns:xlink="http://www.w3.org/1999/xlink">
  <linearGradient id="a" gradientTransform="matrix(0 -1 1 0 -.0000015 47.999998)" gradientUnits="userSpaceOnUse" x1="1" x2="47">
    <stop offset="0" stop-color="#ffb821"/>
    <stop offset="1" stop-color="#ffbe34"/>
  </linearGradient>
  <path d="m47 24c0 22.703-.297 23-23 23-22.703 0-23-.297-23-23 0-22.703.297-23 23-23 22.703 0 23 .297 23 23z" fill="url(#a)"/>
  <path d="m24.04 17c-4.18 0-7.336 2.238-9.457 3.359-2.117 1.125-3.262 2.305-3.262 2.305-.313.316-.313.914 0 1.23 0 0 .426.414 1.164.965l-1.266 1.34c-.301.324-.297.906.008 1.223.305.32.855.309 1.152-.02l1.52-1.605c.215.129.441.273.684.402.594.316 1.293.625 2.047.91l-.48 1.93c-.109.434.168.93.578 1.043.41.113.883-.18.984-.617l.484-1.844c1.449.41 3.129.707 5.03.773v1.742c-.008.453.383.867.809.867.426 0 .813-.414.805-.867v-1.742c1.984-.07 3.723-.367 5.211-.805l.48 1.906c.109.434.59.727 1 .605.41-.121.684-.629.566-1.066l-.508-1.977c.699-.273 1.344-.566 1.898-.855.238-.129.469-.273.684-.402l1.418 1.5c.297.32.844.324 1.145.008.301-.316.309-.891.016-1.211l-1.16-1.234c.738-.551 1.16-.965 1.16-.965.313-.316.313-.914 0-1.23 0 0-1.141-1.18-3.262-2.305-2.121-1.125-5.277-3.359-9.457-3.359m.008 1.711c3.914 0 6.828 2.18 8.754 3.195 1.32.699 1.527 1.016 1.922 1.367-.398.352-.602.664-1.922 1.363-1.898 1-4.766 2.035-8.602 2.063-.098-.023-.199-.023-.305 0-3.832-.027-6.695-1.059-8.598-2.063-1.32-.699-1.527-1.016-1.922-1.363.398-.355.602-.668 1.922-1.367 1.926-1.02 4.84-3.195 8.75-3.195m0 0" opacity=".1" transform="translate(1 1)"/>
  <path d="m24.04 17c-4.18 0-7.336 2.238-9.457 3.359-2.117 1.125-3.262 2.305-3.262 2.305-.313.316-.313.914 0 1.23 0 0 .426.414 1.164.965l-1.266 1.34c-.301.324-.297.906.008 1.223.305.32.855.309 1.152-.02l1.52-1.605c.215.129.441.273.684.402.594.316 1.293.625 2.047.91l-.48 1.93c-.109.434.168.93.578 1.043.41.113.883-.18.984-.617l.484-1.844c1.449.41 3.129.707 5.03.773v1.742c-.008.453.383.867.809.867.426 0 .813-.414.805-.867v-1.742c1.984-.07 3.723-.367 5.211-.805l.48 1.906c.109.434.59.727 1 .605.41-.121.684-.629.566-1.066l-.508-1.977c.699-.273 1.344-.566 1.898-.855.238-.129.469-.273.684-.402l1.418 1.5c.297.32.844.324 1.145.008.301-.316.309-.891.016-1.211l-1.16-1.234c.738-.551 1.16-.965 1.16-.965.313-.316.313-.914 0-1.23 0 0-1.141-1.18-3.262-2.305-2.121-1.125-5.277-3.359-9.457-3.359m.008 1.711c3.914 0 6.828 2.18 8.754 3.195 1.32.699 1.527 1.016 1.922 1.367-.398.352-.602.664-1.922 1.363-1.898 1-4.766 2.035-8.602 2.063-.098-.023-.199-.023-.305 0-3.832-.027-6.695-1.059-8.598-2.063-1.32-.699-1.527-1.016-1.922-1.363.398-.355.602-.668 1.922-1.367 1.926-1.02 4.84-3.195 8.75-3.195m0 0" fill="#2d2d2d"/>
</svg>
