<svg viewBox="0 0 48 48" xmlns="http://www.w3.org/2000/svg" xmlns:xlink="http://www.w3.org/1999/xlink">
  <linearGradient id="a" gradientUnits="userSpaceOnUse" x1="1" x2="47">
    <stop offset="0" stop-color="#ccc"/>
    <stop offset="1" stop-color="#d6d6d6"/>
  </linearGradient>
  <path d="m24 1c22.703 0 23 .297 23 23 0 22.703-.297 23-23 23-22.703 0-23-.297-23-23 0-22.703.297-23 23-23z" fill="url(#a)" transform="matrix(0 -1 1 0 0 48)"/>
  <path d="m13 18v16h20l8-8-8-8zm3 3h15l5 5-5 5h-3v-8h-3v8h-1v-5h-3v5h-1v-3h-3v3h-1zm15 3c-1.105 0-2 .895-2 2 0 1.105.895 2 2 2 1.105 0 2-.895 2-2 0-1.105-.895-2-2-2z" opacity=".1"/>
  <path d="m12 17v16h20l8-8-8-8zm3 3h15l5 5-5 5h-15z" fill="#616577"/>
  <path d="m16 27h3v3h-3z" fill="#9d63a2"/>
  <path d="m20 25h3v5h-3z" fill="#f7901e"/>
  <path d="m24 22h3v8h-3z" fill="#33b5be"/>
  <path d="m32 25a2 2 0 1 1-4 0 2 2 0 1 1  4 0z" fill="#616577"/>
</svg>
