<svg xmlns="http://www.w3.org/2000/svg" viewBox="0 0 48 48">
 <defs>
  <linearGradient id="linearGradient3832" x1="1" x2="47" gradientUnits="userSpaceOnUse">
   <stop style="stop-color:#ffb13f;stop-opacity:1"/>
   <stop offset="1" style="stop-color:#ffb953;stop-opacity:1"/>
  </linearGradient>
 </defs>
 <g>
  
  
  
 </g>
 <g transform="matrix(0,-1,1,0,0,48)" style="fill:url(#linearGradient3832);fill-opacity:1">
  <path d="M 24,1 C 46.703,1 47,1.297 47,24 47,46.703 46.703,47 24,47 1.297,47 1,46.703 1,24 1,1.297 1.297,1 24,1 z"/>
 </g>
 <path d="m 36.398 12 a 1 1 0 0 0 -1.029 0.986 l -3.055 3.133 c -0.799 -0.627 -1.709 -1.099 -2.533 -1.34 l 0 0.002 -0.219 0.781 c 0.551 0.154 1.08 0.406 1.557 0.705 l -0.715 0.732 -13.404 0 0 13.746 -2.521 2.586 L 13.857 36.13 l 0 0.002 2.727 -0.635 2.434 -2.496 13.982 0 0 -14.342 0.232 -0.238 c 0.428 0.643 0.802 1.335 0.924 1.893 l 0.813 -0.189 c -0.224 -1.02 -0.882 -2.124 -1.574 -2.951 l 3.104 -3.18 a 1 1 0 0 0 0.871 -0.992 1 1 0 0 0 -0.971 -1 z" style="fill:#000;opacity:0.1;stroke:none"/>
 <rect y="16" x="16" height="16" width="16" style="fill:#691a1b;fill-opacity:1;stroke:none;fill-rule:nonzero"/>
 <path d="m 16 32 3.992 0 12.01 -12.316 0 -3.684" style="fill:#000;opacity:0.1;stroke:none"/>
 <g>
  
 </g>
 <g>
  <g transform="matrix(-0.92620749,0,0,-0.92620749,45.7452,45.916216)">
   <path d="m 35.508 11.647 -0.671 3.02 -18.434 18.905 -2.272 -2.336 18.434 -18.905 2.943 -0.686 -19.897 20.406 z" style="fill:#666;stroke:none"/>
   <path d="m 15.539 32.05 19.921 -20.421 -2.883 0.68 -18.17 18.638 z" style="fill:#999;stroke:none"/>
  </g>
  <rect rx="0.646" width="1.509" height="5.97" x="32.986" y="-17.18" transform="matrix(0.6973088,0.71677084,-0.69817875,0.71592349,0,0)" style="fill:#784421;stroke:none"/>
  <path d="m 36.37 12 a 1 1 0 0 1 -2 0 1 1 0 1 1 2 0 z" style="fill:#866c2d;fill-opacity:1;stroke:none;fill-rule:nonzero"/>
  <path d="m 28.781 13.781 -0.219 0.781 c 1.071 0.3 2.063 0.963 2.738 1.638 0.726 0.791 1.647 2.16 1.856 3.112 l 0.813 -0.188 c -0.277 -1.261 -1.215 -2.675 -2.063 -3.5 -0.911 -0.886 -2.09 -1.542 -3.125 -1.844 z" style="visibility:visible;fill:#866c2d;fill-opacity:1;stroke:none;display:inline;color:#000"/>
 </g>
</svg>
