<svg viewBox="0 0 48 48" xmlns="http://www.w3.org/2000/svg" xmlns:xlink="http://www.w3.org/1999/xlink">
  <linearGradient id="a" gradientTransform="matrix(0 -1 1 0 -.0000015 47.999998)" gradientUnits="userSpaceOnUse" x1="1" x2="47">
    <stop offset="0" stop-color="#10bfe4"/>
    <stop offset="1" stop-color="#1ac8ef"/>
  </linearGradient>
  <path d="m47 24c0 22.703-.297 23-23 23-22.703 0-23-.297-23-23 0-22.703.297-23 23-23 22.703 0 23 .297 23 23z" fill="url(#a)"/>
  <path d="m15 11.996h17.996c1.656 0 3 1.344 3 3v17.996c0 1.656-1.344 3-3 3h-17.996c-1.66 0-3-1.344-3-3v-17.996c0-1.66 1.344-3 3-3m0 0" opacity=".1" transform="translate(1 1)"/>
  <path d="m15 11.996h17.996c1.656 0 3 1.344 3 3v17.996c0 1.656-1.344 3-3 3h-17.996c-1.66 0-3-1.344-3-3v-17.996c0-1.66 1.344-3 3-3m0 0" fill="#f9f9f9"/>
  <path d="m27 24c0 1.656-1.344 3-3 3-1.66 0-3-1.344-3-3 0-1.66 1.34-3 3-3 1.656 0 3 1.34 3 3m0 0" fill="#333"/>
  <path d="m33 18c0 1.656-1.344 3-3 3-1.66 0-3-1.344-3-3 0-1.66 1.34-3 3-3 1.656 0 3 1.34 3 3m0 0" fill="#333"/>
  <path d="m21 30c0 1.656-1.344 3-3 3-1.66 0-3-1.344-3-3 0-1.66 1.34-3 3-3 1.656 0 3 1.34 3 3m0 0" fill="#333"/>
</svg>
