<svg xmlns="http://www.w3.org/2000/svg" viewBox="0 0 48 48">
 <defs>
  <linearGradient id="linearGradient3764" y1="47" x2="0" y2="1" gradientUnits="userSpaceOnUse">
   <stop style="stop-color:#575757;stop-opacity:1"/>
   <stop offset="1" style="stop-color:#616161;stop-opacity:1"/>
  </linearGradient>
 </defs>
 <g>
  
  
  
 </g>
 <g>
  <path d="m 47,24 C 47,46.703 46.703,47 24,47 1.297,47 1,46.703 1,24 1,1.297 1.297,1 24,1 46.703,1 47,1.297 47,24 z" style="fill:url(#linearGradient3764);fill-opacity:1"/>
 </g>
 <g>
  
 </g>
 <g transform="translate(-0.004,-0.01)">
  <g>
   <g transform="translate(1,1)">
    <g style="opacity:0.1">
     <!-- color: #eeeeee -->
     <g>
      <path d="m 22.996 12.99 l 0 1.029 l -6.05 0 c -0.523 0 -0.945 0.434 -0.945 0.973 l 0 20.03 c 0 0.539 0.422 0.977 0.945 0.977 l 16.11 0 c 0.523 0 0.945 -0.438 0.945 -0.977 l 0 -20.03 c 0 -0.539 -0.422 -0.973 -0.945 -0.973 l -6.06 0 l 0 -1.029 l -4 0 z" transform="translate(-0.996,-0.99)" style="fill:#000;fill-opacity:0.714;stroke:none;fill-rule:nonzero"/>
     </g>
    </g>
   </g>
  </g>
 </g>
 <g transform="translate(-0.004,-0.01)">
  <g>
   <!-- color: #eeeeee -->
   <g>
    <path d="m 15.949 13.03 16.11 0 c 0.523 0 0.945 0.434 0.945 0.973 l 0 20.03 c 0 0.539 -0.422 0.977 -0.945 0.977 l -16.11 0 c -0.523 0 -0.945 -0.438 -0.945 -0.977 l 0 -20.03 c 0 -0.539 0.422 -0.973 0.945 -0.973 m 0 0" style="fill:#b19e7b;fill-opacity:1;stroke:none;fill-rule:nonzero"/>
    <path d="m 17 15 14 0 0 13 -5 5 -9 0.027 m 0 -18.03" style="fill:#ececec;fill-opacity:1;stroke:none;fill-rule:nonzero"/>
    <path d="m 21.996 11.99 0 1 -3 0 0 3 10 0 0 -3 -3 0 0 -1 -4 0 z" transform="translate(0.004,0.01)" style="fill:#a8a9a8;fill-opacity:1;stroke:none;fill-rule:nonzero"/>
    <path d="m 26 28 0 5 5 -5 m -5 0" style="fill:#b4b4b4;fill-opacity:1;stroke:none;fill-rule:nonzero"/>
    <path d="m 19.15 24.566 2.211 2.926 c 0.66 0.672 1.406 0.672 1.66 0 1.066 -2.484 3.934 -7.109 5.824 -8.469 0.504 -0.547 -0.324 -1.293 -0.961 -0.93 -1.367 0.648 -5.305 6.242 -5.813 7.824 l -1.672 -2.309 c -0.613 -0.887 -1.82 0.105 -1.25 0.953 m 0 0.004" style="fill:#535353;fill-opacity:1;stroke:none;fill-rule:evenodd"/>
   </g>
  </g>
 </g>
</svg>
