<svg xmlns="http://www.w3.org/2000/svg" viewBox="0 0 48 48">
 <defs>
  <linearGradient id="linearGradient3764" x1="1" x2="47" gradientUnits="userSpaceOnUse" gradientTransform="matrix(0,-1,1,0,-1.5e-6,47.999998)">
   <stop style="stop-color:#4b89d5;stop-opacity:1"/>
   <stop offset="1" style="stop-color:#5b92d9;stop-opacity:1"/>
  </linearGradient>
 </defs>
 <g>
  
  
  
 </g>
 <g>
  <path d="m 47,24 C 47,46.703 46.703,47 24,47 1.297,47 1,46.703 1,24 1,1.297 1.297,1 24,1 46.703,1 47,1.297 47,24 z" style="fill:url(#linearGradient3764);fill-opacity:1"/>
 </g>
 <g>
  <g>
   <g transform="translate(1,1)">
    <g style="opacity:0.1">
     <!-- color: #5b92d9 -->
     <g>
      <path d="m 24 9 c -8.293 0 -15 6.707 -15 15 c 0 8.289 6.707 14.996 15 14.996 c 8.289 0 14.996 -6.707 14.996 -14.996 c 0 -8.293 -6.707 -15 -14.996 -15 m 0 0" style="fill:#000;fill-opacity:1;stroke:none;fill-rule:nonzero"/>
      <path d="m 20 19 l 0 3 l 8 0 l 0 -3 l 3.887 2.5 l 4.113 2.504 l -4.113 2.5 l -3.887 2.5 l 0 -3 l -8 0 l 0 3 l -3.887 -2.5 l -4.117 -2.5 l 4.117 -2.504 m 3.887 -2.5" style="fill:#000;fill-opacity:1;stroke:none;fill-rule:nonzero"/>
     </g>
    </g>
   </g>
  </g>
 </g>
 <g>
  <g>
   <!-- color: #5b92d9 -->
   <g>
    <path d="m 24 9 c -8.293 0 -15 6.707 -15 15 c 0 8.289 6.707 14.996 15 14.996 c 8.289 0 14.996 -6.707 14.996 -14.996 c 0 -8.293 -6.707 -15 -14.996 -15 m 0 0" style="fill:#f9f9f9;fill-opacity:1;stroke:none;fill-rule:nonzero"/>
    <path d="m 20 19 l 0 3 l 8 0 l 0 -3 l 3.887 2.5 l 4.113 2.504 l -4.113 2.5 l -3.887 2.5 l 0 -3 l -8 0 l 0 3 l -3.887 -2.5 l -4.117 -2.5 l 4.117 -2.504 m 3.887 -2.5" style="fill:#4a86d6;fill-opacity:1;stroke:none;fill-rule:nonzero"/>
   </g>
  </g>
 </g>
 <g>
  
 </g>
</svg>
