<svg xmlns="http://www.w3.org/2000/svg" viewBox="0 0 48 48">
 <defs>
  <linearGradient id="linearGradient3764" x1="1" x2="47" gradientUnits="userSpaceOnUse" gradientTransform="matrix(0,-1,1,0,-1.5e-6,47.999998)">
   <stop style="stop-color:#eac706;stop-opacity:1"/>
   <stop offset="1" style="stop-color:#f9d40b;stop-opacity:1"/>
  </linearGradient>
 </defs>
 <g>
  
  
  
 </g>
 <g>
  <path d="m 47,24 C 47,46.703 46.703,47 24,47 1.297,47 1,46.703 1,24 1,1.297 1.297,1 24,1 46.703,1 47,1.297 47,24 z" style="fill:url(#linearGradient3764);fill-opacity:1"/>
 </g>
 <g>
  <g>
   <g transform="translate(1,1)">
    <g style="opacity:0.1">
     <!-- color: #ffd000 -->
    </g>
   </g>
  </g>
 </g>
 <g>
  <g>
   <!-- color: #ffd000 -->
   <g>
    <path d="m 25 12 c -6.627 0 -12 5.373 -12 12 0.001 2.107 0.554 4.181 1.619 6 0.199 0.34 0.526 0.697 0.717 1.043 0 0.055 -0.281 0.395 -0.625 0.75 -0.781 0.809 -1.107 1.519 -1.199 2.582 c -0.197 2.265 0.914 3.625 3.488 3.625 l 13 0 c 4 0 4.174 -0.088 5.268 -0.719 0.689 -0.397 0.989 -0.81 1.184 -1.629 0.297 -1.247 -0.169 -2.434 -1.396 -3.508 l -0.729 -0.637 c 0.337 -0.484 0.767 -1.033 1.049 -1.508 c 1.075 -1.813 1.624 -3.892 1.625 -6 0.004 -6.627 -5.373 -12 -12 -12 z m 0 1 c 6.075 0 11 4.925 11 11 -0.001 2.131 -0.459 4.337 -1.793 6 -1.423 1.774 -3.804 3.48 -5.84 4.045 -1.23 0.312 -1.588 0.397 -1.955 -0.318 -0.633 -1.233 -2.441 -2.43 -4.551 -2.857 -1.265 -0.256 -3.131 -0.205 -4.242 0.002 l -0.734 0.137 c -0.327 -0.292 -0.874 -0.672 -1.1 -1.01 c -1.188 -1.769 -1.785 -3.869 -1.785 -6 -0.001 -6.075 4.925 -11 11 -11 z m -1.5 6 a 1.5 2.5 0 0 0 -1.5 2.5 1.5 2.5 0 0 0 1.5 2.5 1.5 2.5 0 0 0 1.5 -2.5 1.5 2.5 0 0 0 -1.5 -2.5 z m 5 0 a 1.5 2.5 0 0 0 -1.5 2.5 1.5 2.5 0 0 0 1.5 2.5 1.5 2.5 0 0 0 1.5 -2.5 1.5 2.5 0 0 0 -1.5 -2.5 z m -9.604 12.385 c 2.039 0.02 4.61 0.426 6.115 1.629 0.59 0.471 1.047 1.332 1.063 1.953 c 0.019 0.934 -1.074 2.033 -2.074 2.033 l -5.738 0 c -3.262 0 -3.666 -0.593 -3.664 -2.195 0.002 -1.281 0.793 -2.437 2.047 -2.98 0.614 -0.265 1.399 -0.448 2.252 -0.439 z m 14.275 0.818 c 0.286 0 1.489 0.941 1.852 1.445 0.587 0.883 0.582 1.777 0.02 2.328 c -1.043 1.023 -3.02 1.023 -4.863 1.023 l -2.082 0 c -2.023 0 -1.996 -0.146 -1.582 -0.943 0.133 -0.27 0.246 -0.547 0.246 -0.629 0 -0.157 0.207 -0.237 1.555 -0.604 1.109 -0.301 2.605 -1.059 3.73 -1.887 0.547 -0.406 1.051 -0.734 1.125 -0.734 z" style="fill:#000;opacity:0.1;fill-opacity:1;stroke:none;fill-rule:nonzero"/>
    <path d="m 24 11 c -6.627 0 -12 5.373 -12 12 c 0.001 2.107 0.554 4.181 1.619 6 c 0.199 0.34 0.526 0.697 0.717 1.043 c 0 0.055 -0.281 0.395 -0.625 0.75 c -0.781 0.809 -1.107 1.519 -1.199 2.582 c -0.197 2.265 0.914 3.625 3.488 3.625 l 13 0 c 4.01 0 4.174 -0.088 5.268 -0.719 c 0.689 -0.397 0.989 -0.81 1.184 -1.629 c 0.297 -1.247 -0.169 -2.434 -1.396 -3.508 l -0.729 -0.637 c 0.337 -0.484 0.767 -1.033 1.049 -1.508 c 1.075 -1.813 1.624 -3.892 1.625 -6 c 0.004 -6.627 -5.373 -12 -12 -12 z m 0 1 c 6.075 0 11 4.925 11 11 c -0.001 2.131 -0.459 4.337 -1.793 6 c -1.423 1.774 -3.804 3.48 -5.84 4.045 c -1.23 0.312 -1.588 0.397 -1.955 -0.318 c -0.633 -1.233 -2.441 -2.43 -4.551 -2.857 c -1.265 -0.256 -3.131 -0.205 -4.242 0.002 l -0.734 0.137 c -0.327 -0.292 -0.874 -0.672 -1.1 -1.01 c -1.188 -1.769 -1.785 -3.869 -1.785 -6 c -0.001 -6.075 4.925 -11 11 -11 z m -1.5 6 a 1.5 2.5 0 0 0 -1.5 2.5 a 1.5 2.5 0 0 0 1.5 2.5 a 1.5 2.5 0 0 0 1.5 -2.5 a 1.5 2.5 0 0 0 -1.5 -2.5 z m 5 0 a 1.5 2.5 0 0 0 -1.5 2.5 a 1.5 2.5 0 0 0 1.5 2.5 a 1.5 2.5 0 0 0 1.5 -2.5 a 1.5 2.5 0 0 0 -1.5 -2.5 z m -9.604 12.385 c 2.039 0.02 4.61 0.426 6.115 1.629 c 0.59 0.471 1.047 1.332 1.063 1.953 c 0.019 0.934 -1.074 2.033 -2.074 2.033 l -5.738 0 c -3.262 0 -3.666 -0.593 -3.664 -2.195 c 0.002 -1.281 0.793 -2.437 2.047 -2.98 c 0.614 -0.265 1.399 -0.448 2.252 -0.439 z m 14.275 0.818 c 0.286 0 1.489 0.941 1.852 1.445 c 0.587 0.883 0.582 1.777 0.02 2.328 c -1.043 1.023 -3.02 1.023 -4.863 1.023 l -2.082 0 c -2.023 0 -1.996 -0.146 -1.582 -0.943 c 0.133 -0.27 0.246 -0.547 0.246 -0.629 c 0 -0.157 0.207 -0.237 1.555 -0.604 c 1.109 -0.301 2.605 -1.059 3.73 -1.887 c 0.547 -0.406 1.051 -0.734 1.125 -0.734 z" style="fill:#333;fill-opacity:1;stroke:none;fill-rule:nonzero"/>
   </g>
  </g>
 </g>
 <g>
  
 </g>
</svg>
