<svg viewBox="0 0 48 48" xmlns="http://www.w3.org/2000/svg" xmlns:xlink="http://www.w3.org/1999/xlink">
  <linearGradient id="a" gradientTransform="matrix(0 -1 1 0 -.0000015 47.999998)" gradientUnits="userSpaceOnUse" x1="1" x2="47">
    <stop offset="0" stop-color="#eac706"/>
    <stop offset="1" stop-color="#f9d40b"/>
  </linearGradient>
  <path d="m47 24c0 22.703-.297 23-23 23-22.703 0-23-.297-23-23 0-22.703.297-23 23-23 22.703 0 23 .297 23 23z" fill="url(#a)"/>
  <path d="m25 12c-6.627 0-12 5.373-12 12 .001 2.107.554 4.181 1.619 6 .199.34.526.697.717 1.043 0 .055-.281.395-.625.75-.781.809-1.107 1.519-1.199 2.582-.197 2.265.914 3.625 3.488 3.625h13c4 0 4.174-.088 5.268-.719.689-.397.989-.81 1.184-1.629.297-1.247-.169-2.434-1.396-3.508l-.729-.637c.337-.484.767-1.033 1.049-1.508 1.075-1.813 1.624-3.892 1.625-6 .004-6.627-5.373-12-12-12zm0 1c6.075 0 11 4.925 11 11-.001 2.131-.459 4.337-1.793 6-1.423 1.774-3.804 3.48-5.84 4.045-1.23.312-1.588.397-1.955-.318-.633-1.233-2.441-2.43-4.551-2.857-1.265-.256-3.131-.205-4.242.002l-.734.137c-.327-.292-.874-.672-1.1-1.01-1.188-1.769-1.785-3.869-1.785-6-.001-6.075 4.925-11 11-11zm-1.5 6a1.5 2.5 0 0 0-1.5 2.5 1.5 2.5 0 0 0  1.5 2.5 1.5 2.5 0 0 0  1.5-2.5 1.5 2.5 0 0 0-1.5-2.5zm5 0a1.5 2.5 0 0 0-1.5 2.5 1.5 2.5 0 0 0  1.5 2.5 1.5 2.5 0 0 0  1.5-2.5 1.5 2.5 0 0 0-1.5-2.5zm-9.604 12.385c2.039.02 4.61.426 6.115 1.629.59.471 1.047 1.332 1.063 1.953.019.934-1.074 2.033-2.074 2.033h-5.738c-3.262 0-3.666-.593-3.664-2.195.002-1.281.793-2.437 2.047-2.98.614-.265 1.399-.448 2.252-.439zm14.275.818c.286 0 1.489.941 1.852 1.445.587.883.582 1.777.02 2.328-1.043 1.023-3.02 1.023-4.863 1.023h-2.082c-2.023 0-1.996-.146-1.582-.943.133-.27.246-.547.246-.629 0-.157.207-.237 1.555-.604 1.109-.301 2.605-1.059 3.73-1.887.547-.406 1.051-.734 1.125-.734z" opacity=".1"/>
  <path d="m24 11c-6.627 0-12 5.373-12 12 .001 2.107.554 4.181 1.619 6 .199.34.526.697.717 1.043 0 .055-.281.395-.625.75-.781.809-1.107 1.519-1.199 2.582-.197 2.265.914 3.625 3.488 3.625h13c4.01 0 4.174-.088 5.268-.719.689-.397.989-.81 1.184-1.629.297-1.247-.169-2.434-1.396-3.508l-.729-.637c.337-.484.767-1.033 1.049-1.508 1.075-1.813 1.624-3.892 1.625-6 .004-6.627-5.373-12-12-12zm0 1c6.075 0 11 4.925 11 11-.001 2.131-.459 4.337-1.793 6-1.423 1.774-3.804 3.48-5.84 4.045-1.23.312-1.588.397-1.955-.318-.633-1.233-2.441-2.43-4.551-2.857-1.265-.256-3.131-.205-4.242.002l-.734.137c-.327-.292-.874-.672-1.1-1.01-1.188-1.769-1.785-3.869-1.785-6-.001-6.075 4.925-11 11-11zm-1.5 6a1.5 2.5 0 0 0-1.5 2.5 1.5 2.5 0 0 0  1.5 2.5 1.5 2.5 0 0 0  1.5-2.5 1.5 2.5 0 0 0-1.5-2.5zm5 0a1.5 2.5 0 0 0-1.5 2.5 1.5 2.5 0 0 0  1.5 2.5 1.5 2.5 0 0 0  1.5-2.5 1.5 2.5 0 0 0-1.5-2.5zm-9.604 12.385c2.039.02 4.61.426 6.115 1.629.59.471 1.047 1.332 1.063 1.953.019.934-1.074 2.033-2.074 2.033h-5.738c-3.262 0-3.666-.593-3.664-2.195.002-1.281.793-2.437 2.047-2.98.614-.265 1.399-.448 2.252-.439zm14.275.818c.286 0 1.489.941 1.852 1.445.587.883.582 1.777.02 2.328-1.043 1.023-3.02 1.023-4.863 1.023h-2.082c-2.023 0-1.996-.146-1.582-.943.133-.27.246-.547.246-.629 0-.157.207-.237 1.555-.604 1.109-.301 2.605-1.059 3.73-1.887.547-.406 1.051-.734 1.125-.734z" fill="#333"/>
</svg>
