<svg xmlns="http://www.w3.org/2000/svg" viewBox="0 0 48 48">
 <defs>
  <linearGradient id="linearGradient3764" x1="1" x2="47" gradientUnits="userSpaceOnUse" gradientTransform="matrix(0,-1,1,0,-1.5e-6,47.999998)">
   <stop style="stop-color:#616c77;stop-opacity:1"/>
   <stop offset="1" style="stop-color:#697682;stop-opacity:1"/>
  </linearGradient>
 </defs>
 <g>
  
  
  
 </g>
 <g>
  <path d="m 47,24 C 47,46.703 46.703,47 24,47 1.297,47 1,46.703 1,24 1,1.297 1.297,1 24,1 46.703,1 47,1.297 47,24 z" style="fill:url(#linearGradient3764);fill-opacity:1"/>
 </g>
 <g>
  <g>
   <g transform="translate(1,1)">
    <g style="opacity:0.1">
     <!-- color: #697682 -->
     <g>
      <path d="m 15.543 12 l 16.914 0 c 1.957 0 3.543 1.586 3.543 3.543 l 0 16.914 c 0 1.957 -1.586 3.543 -3.543 3.543 l -16.914 0 c -1.957 0 -3.543 -1.586 -3.543 -3.543 l 0 -16.914 c 0 -1.957 1.586 -3.543 3.543 -3.543 m 0 0" style="fill:#000;fill-opacity:1;stroke:none;fill-rule:nonzero"/>
     </g>
    </g>
   </g>
  </g>
 </g>
 <g>
  <g>
   <!-- color: #697682 -->
   <g>
    <path d="m 15.543,12 16.914,0 C 34.414,12 36,13.586 36,15.543 l 0,16.914 C 36,34.414 34.414,36 32.457,36 L 15.543,36 C 13.586,36 12,34.414 12,32.457 L 12,15.543 C 12,13.586 13.586,12 15.543,12 m 0,0" style="fill:#f9f9f9;fill-opacity:1;stroke:none;fill-rule:nonzero"/>
    <path d="m 17 23 2 0 c 0.551 0 1 0.445 1 1 l 0 2 c 0 0.551 -0.449 1 -1 1 l -2 0 c -0.551 0 -1 -0.449 -1 -1 l 0 -2 c 0 -0.555 0.449 -1 1 -1 m 0 0" style="fill:#2d2d2d;fill-opacity:1;stroke:none;fill-rule:nonzero"/>
    <path d="m 23 23 2 0 c 0.555 0 1 0.445 1 1 l 0 2 c 0 0.551 -0.445 1 -1 1 l -2 0 c -0.551 0 -1 -0.449 -1 -1 l 0 -2 c 0 -0.555 0.449 -1 1 -1 m 0 0" style="fill:#2d2d2d;fill-opacity:1;stroke:none;fill-rule:nonzero"/>
    <path d="m 29 23 2 0 c 0.551 0 1 0.445 1 1 l 0 2 c 0 0.551 -0.449 1 -1 1 l -2 0 c -0.555 0 -1 -0.449 -1 -1 l 0 -2 c 0 -0.555 0.445 -1 1 -1 m 0 0" style="fill:#2d2d2d;fill-opacity:1;stroke:none;fill-rule:nonzero"/>
    <path d="m 14.91,29 18.18,0 c 0.504,0 0.91,0.445 0.91,0.996 l 0,2 c 0,0.551 -0.406,1 -0.91,1 l -18.18,0 c -0.504,0 -0.91,-0.449 -0.91,-1 l 0,-2 C 14,29.445 14.406,29 14.91,29 m 0,0" style="fill:#2d2d2d;fill-opacity:1;stroke:none;fill-rule:nonzero"/>
   </g>
  </g>
 </g>
 <g>
  
 </g>
</svg>
