<svg viewBox="0 0 48 48" xmlns="http://www.w3.org/2000/svg" xmlns:xlink="http://www.w3.org/1999/xlink">
  <linearGradient id="a" gradientUnits="userSpaceOnUse" x1="1" x2="47">
    <stop offset="0" stop-color="#e1e1bd"/>
    <stop offset="1" stop-color="#e7e7cb"/>
  </linearGradient>
  <path d="m24 1c22.703 0 23 .297 23 23 0 22.703-.297 23-23 23-22.703 0-23-.297-23-23 0-22.703.297-23 23-23z" fill="url(#a)" transform="matrix(0 -1 1 0 0 48)"/>
  <path d="m19 15l-5.994 10h-.006l6 10h12l6-10-6-10z" fill-rule="evenodd" opacity=".1"/>
  <path d="m12 24h12l6 10h-12z" fill="#483b32" fill-rule="evenodd"/>
  <path d="m18 14l-5.996 10.004 11.996-.004 6-10z" fill="#9a8471" fill-rule="evenodd"/>
  <path d="m30 14l6 10-6 10-6-10" fill="#796758" fill-rule="evenodd"/>
  <path d="m27.467 15.996l-8.27.004-4.197 7h8.424l4.04-7zm1.832.826l-4.145 7.178 4.145 7.18 4.307-7.184zm-14.301 8.178l4.203 7h8.264l-4.04-7h-8.426z" fill="#44e2ff"/>
</svg>
