<svg viewBox="0 0 48 48" xmlns="http://www.w3.org/2000/svg" xmlns:xlink="http://www.w3.org/1999/xlink">
  <linearGradient id="a" gradientTransform="matrix(0 -1 1 0 -.0000015 47.999998)" gradientUnits="userSpaceOnUse" x1="1" x2="47">
    <stop offset="0" stop-color="#f29d6a"/>
    <stop offset="1" stop-color="#f4a97c"/>
  </linearGradient>
  <path d="m47 24c0 22.703-.297 23-23 23-22.703 0-23-.297-23-23 0-22.703.297-23 23-23 22.703 0 23 .297 23 23z" fill="url(#a)"/>
  <path d="m25 10a15 15 0 0 0-15 15 15 15 0 0 0  15 15 15 15 0 0 0  15-15 15 15 0 0 0-15-15m0 3a12 12 0 0 1 11.516 8.648c-3.306-1.038-7.256-1.648-11.516-1.648-4.258 0-8.208.61-11.516 1.648a12 12 0 0 1 11.516-8.648m-10.5 11c1.105 0 2 1.567 2 3.5 0 1.865-.836 3.376-1.887 3.48a12 12 0 0 1-1.607-5.787c.366-.726.897-1.193 1.494-1.193m20.9 0c .647 0 1.214.546 1.58 1.379a12 12 0 0 1-1.598 5.617c-1.092-.017-1.982-1.574-1.982-3.496 0-1.933.895-3.5 2-3.5zm-10.4 5c4.153 0 7.566 2.175 7.961 4.959a12 12 0 0 1-7.961 3.041 12 12 0 0 1-7.96-3.037c.392-2.783 3.805-4.963 7.96-4.963" opacity=".1"/>
  <path d="m24 9a15 15 0 0 0-15 15 15 15 0 0 0  15 15 15 15 0 0 0  15-15 15 15 0 0 0-15-15m0 3a12 12 0 0 1 11.516 8.648c-3.306-1.038-7.256-1.648-11.516-1.648-4.258 0-8.208.61-11.516 1.648a12 12 0 0 1 11.516-8.648m-10.5 11c1.105 0 2 1.567 2 3.5 0 1.865-.836 3.376-1.887 3.48a12 12 0 0 1-1.607-5.787c.366-.726.897-1.193 1.494-1.193m20.9 0c .647 0 1.214.546 1.58 1.379a12 12 0 0 1-1.598 5.617c-1.092-.017-1.982-1.574-1.982-3.496 0-1.933.895-3.5 2-3.5zm-10.4 5c4.153 0 7.566 2.175 7.961 4.959a12 12 0 0 1-7.961 3.041 12 12 0 0 1-7.96-3.037c.392-2.783 3.805-4.963 7.96-4.963" fill="#606060"/>
  <path d="m24 19c-2.974 0-5.792.303-8.352.836a10 8.5 0 0 0-1.518 3.359c.793.464 1.369 1.76 1.369 3.305 0 .726-.131 1.394-.348 1.951a10 8.5 0 0 0 1.992 2.223c1.398-1.6 3.942-2.674 6.855-2.674 2.916 0 5.461 1.075 6.859 2.678a10 8.5 0 0 0 1.928-2.125c-.241-.577-.387-1.283-.387-2.053 0-1.608.623-2.949 1.467-3.359a10 8.5 0 0 0-1.514-3.303c-2.56-.534-5.379-.838-8.354-.838" fill-opacity=".125"/>
  <path d="m24 21a5 3 0 0 0-5 3 5 3 0 0 0  5 3 5 3 0 0 0  5-3 5 3 0 0 0-5-3zm-1.396 1v .896h.891v.641h-.891v1.195c0 .136.009.246.025.328h-.002c.016.078.038.134.063.172.026.036.056.058.096.074.043.017.095.029.16.029.12 0 .213-.017.273-.043.077-.035.131-.062.16-.076l.1-.047.121.627-.064.039c-.054.032-.128.063-.236.1-.116.043-.246.064-.389.064-.167 0-.31-.023-.43-.076l-.002-.002h-.002c-.116-.057-.212-.145-.285-.258-.073-.112-.125-.248-.154-.402v-.002c-.026-.154-.037-.327-.037-.521v-2.613l.604-.125zm3.396 0v3.844l-.063.021c-.089.03-.201.061-.336.09-.139.03-.295.045-.471.045-.17 0-.327-.033-.467-.1-.139-.066-.259-.163-.357-.285-.099-.123-.175-.271-.229-.441h-.002v-.002c-.051-.174-.074-.366-.074-.576 0-.199.02-.383.063-.553v-.002c.045-.17.11-.319.197-.445.087-.126.196-.224.322-.295.13-.071.277-.109.438-.109.128 0 .245.021.348.064.036.015.054.032.084.047v-1.189zm-.934 1.779c-.094 0-.167.02-.229.059v.002h-.002c-.061.037-.11.087-.15.158l-.002.002c-.041.068-.07.153-.09.256-.02.105-.029.218-.029.34 0 .277.055.479.158.617.104.137.231.199.408.199.098 0 .178-.007.238-.016.036-.007.056-.011.082-.018v-1.451c-.035-.03-.077-.061-.143-.094-.073-.036-.153-.055-.242-.055z" fill-opacity=".275"/>
  <path d="m24 21a5 3 0 0 0-5 3 5 3 0 0 0  .986 1.783 5 3 0 0 1-.486-1.283 5 3 0 0 1  5-3 5 3 0 0 1  4.01 1.215 5 3 0 0 0-4.51-1.715zm-.9 1.5l-.496.104v.292h.496zm3.4 0l-.5.104v3.24l-.049.017v.018c-.026.006-.045.011-.082.017-.016.003-.045.002-.064.004-.065.019-.122.037-.203.055-.14.03-.296.045-.472.045-.157 0-.3-.032-.431-.088.036.067.06.148.106.208.098.12.215.214.355.28.142.067.299.1.469.1.177 0 .333-.015.471-.045.14-.029.248-.059.338-.09l.062-.021zm-3.006.896v.141h-.89v1.195c0 .136.009.246.025.328h-.002c.016.08.037.13.062.17.026.04.056.061.096.077.043.017.095.029.16.029.075 0 .115-.015.165-.025 0-.03-.01-.051-.01-.081v-1.19h.894v-.644zm1.616.393c-.01.005-.02.007-.03.012-.124.07-.233.169-.32.299-.083.12-.145.261-.19.421-.001.026-.006.048-.006.075 0 .277.056.484.159.614.097.13.217.188.377.196-.02-.092-.04-.196-.04-.306 0-.127.01-.239.03-.344.02-.103.05-.188.09-.256l.01-.002c.04-.071.08-.121.146-.158h.002v-.002c.03-.019.076-.02.113-.029v-.381c-.035-.03-.077-.062-.142-.094-.059-.029-.129-.039-.199-.045zm-1.131 1.881l-.1.047c-.029.014-.084.041-.16.076-.034.014-.1.016-.153.023l-.031.02c-.054.032-.128.063-.236.1-.119.043-.249.064-.389.064-.118 0-.209-.027-.303-.053.027.073.045.153.084.213.074.12.17.205.286.262h.002l.001.002c.12.053.26.076.43.076.143 0 .273-.021.389-.064.108-.037.182-.068.241-.1l.06-.039z" fill-opacity=".098"/>
</svg>
