<svg viewBox="0 0 48 48" xmlns="http://www.w3.org/2000/svg" xmlns:xlink="http://www.w3.org/1999/xlink">
  <linearGradient id="a" gradientTransform="matrix(0 -1 1 0 -.0000015 47.999998)" gradientUnits="userSpaceOnUse" x1="1" x2="47">
    <stop offset="0" stop-color="#e4e4e4"/>
    <stop offset="1" stop-color="#eee"/>
  </linearGradient>
  <path d="m47 24c0 22.703-.297 23-23 23-22.703 0-23-.297-23-23 0-22.703.297-23 23-23 22.703 0 23 .297 23 23z" fill="url(#a)"/>
  <g transform="matrix(3.543307 0 0 3.543307 -.00551154 .00275676)">
    <path d="m4.798 5.362v-1.411h4.516v2.822h1.411v3.104h-1.693v-1.411h-1.129v1.411h-3.104v-1.411h-1.411v-3.104z" fill-opacity=".098" fill-rule="evenodd"/>
    <path d="m4.516 5.08v-1.411h4.516v2.822h1.411v3.104h-1.693v-1.411h-1.129v1.411h-3.104v-1.411h-1.411v-3.104z" fill="#555" fill-rule="evenodd"/>
    <path d="m16 14v4h-4v11h4v4h11v-4h4v4h5v-10h-4v-9z" fill="#64b3d2" transform="scale(.28222223)"/>
    <path d="m30.545 21.389l-12.783 11.611h9.238v-4h4v4h5v-6.334l-3.789-3.666h-.211v-.203z" fill="#43a63b" transform="scale(.28222223)"/>
    <path d="m19.2 15.584a3.818 3.694 0 0 0-3.2 1.536v.88h-.486a3.818 3.694 0 0 0-.24 1.277 3.818 3.694 0 0 0  7.635 0 3.818 3.694 0 0 0-3.705-3.693z" fill="#f3da4d" transform="scale(.28222223)"/>
    <path d="m20.727 20.334l-7.799 8.666h3.072v4h11v-4h .443l-6.717-8.666z" fill="#269542" transform="scale(.28222223)"/>
    <path d="m16 14v4h-4v1h4v4h-4v1h4v4h-4v1h4v4h1v-4h4v4h1v-4h4v4h1v-4h4v4h1v-4h4v-1h-4v-4h4v-1h-4v-9h-1v4h-4v-4h-1v4h-4v-4h-1v4h-4v-4zm1 5h4v4h-4zm5 0h4v4h-4zm5 0h4v4h-4zm-10 5h4v4h-4zm5 0h4v4h-4zm5 0h4v4h-4z" fill="#4d4d4d" fill-opacity=".216" transform="scale(.28222223)"/>
  </g>
</svg>
