<svg xmlns="http://www.w3.org/2000/svg" viewBox="0 0 48 48">
 <defs>
  <linearGradient id="linearGradient3764" x1="1" x2="47" gradientUnits="userSpaceOnUse" gradientTransform="matrix(0,-1,1,0,-1.5e-6,47.999998)">
   <stop style="stop-color:#e4e4e4;stop-opacity:1"/>
   <stop offset="1" style="stop-color:#eee;stop-opacity:1"/>
  </linearGradient>
 </defs>
 <g>
  
  
  
 </g>
 <g>
  <path d="m 47,24 C 47,46.703 46.703,47 24,47 1.297,47 1,46.703 1,24 1,1.297 1.297,1 24,1 46.703,1 47,1.297 47,24 z" style="fill:url(#linearGradient3764);fill-opacity:1"/>
 </g>
 <g>
  
 </g>
 <g transform="matrix(3.543307,0,0,3.543307,-0.00551154,0.00275676)">
  <g>
   <path d="m 4.798 5.362 0 -1.411 4.516 0 0 2.822 1.411 0 0 3.104 -1.693 0 0 -1.411 -1.129 0 0 1.411 -3.104 0 0 -1.411 -1.411 0 0 -3.104 z" style="fill:#000;fill-opacity:0.098;stroke:none;fill-rule:evenodd"/>
   <path d="m 4.516 5.08 0 -1.411 4.516 0 0 2.822 1.411 0 0 3.104 -1.693 0 0 -1.411 -1.129 0 0 1.411 -3.104 0 0 -1.411 -1.411 0 0 -3.104 z" style="fill:#555;fill-opacity:1;stroke:none;fill-rule:evenodd"/>
   <g>
    <g>
     <path transform="scale(0.28222223,0.28222223)" d="m 16 14 0 4 -4 0 0 11 4 0 0 4 11 0 0 -4 4 0 0 4 5 0 0 -10 -4 0 0 -9 -16 0 z" style="fill:#64b3d2;fill-opacity:1"/>
     <path transform="scale(0.28222223,0.28222223)" d="M 30.545,21.389 17.762,33 27,33 l 0,-4 4,0 0,4 5,0 0,-6.334 L 32.211,23 32,23 32,22.797 30.545,21.389" style="fill:#43a63b;fill-opacity:1"/>
     <path transform="scale(0.28222223,0.28222223)" d="M 19.2 15.584 A 3.818 3.694 0 0 0 16 17.12 l 0 0.88 -0.486 0 a 3.818 3.694 0 0 0 -0.24 1.277 3.818 3.694 0 0 0 7.635 0 3.818 3.694 0 0 0 -3.705 -3.693 z" style="fill:#f3da4d;fill-opacity:1"/>
     <path transform="scale(0.28222223,0.28222223)" d="M 20.727,20.334 12.928,29 16,29 l 0,4 11,0 0,-4 0.443,0 -6.717,-8.666 z" style="fill:#269542;fill-opacity:1"/>
    </g>
    <path d="m 16 14 0 4 -4 0 0 1 4 0 0 4 -4 0 0 1 4 0 0 4 -4 0 0 1 4 0 0 4 1 0 0 -4 4 0 0 4 1 0 0 -4 4 0 0 4 1 0 0 -4 4 0 0 4 1 0 0 -4 4 0 0 -1 -4 0 0 -4 4 0 0 -1 -4 0 0 -9 -1 0 0 4 -4 0 0 -4 -1 0 0 4 -4 0 0 -4 -1 0 0 4 -4 0 0 -4 z m 1 5 4 0 0 4 -4 0 z m 5 0 4 0 0 4 -4 0 z m 5 0 4 0 0 4 -4 0 z m -10 5 4 0 0 4 -4 0 z m 5 0 4 0 0 4 -4 0 z m 5 0 4 0 0 4 -4 0 z" transform="scale(0.28222223,0.28222223)" style="fill:#4d4d4d;fill-opacity:0.216;stroke:none"/>
   </g>
  </g>
 </g>
</svg>
