<svg xmlns="http://www.w3.org/2000/svg" xmlns:xlink="http://www.w3.org/1999/xlink" viewBox="0 0 48 48">
 <defs>
  <linearGradient id="linearGradient3764" x1="1" x2="47" gradientUnits="userSpaceOnUse" gradientTransform="matrix(0,-1,1,0,-1.5e-6,47.999998)">
   <stop style="stop-color:#a467af;stop-opacity:1"/>
   <stop offset="1" style="stop-color:#ac74b6;stop-opacity:1"/>
  </linearGradient>
 </defs>
 <g>
  
  
  
 </g>
 <g>
  <path d="m 47,24 C 47,46.703 46.703,47 24,47 1.297,47 1,46.703 1,24 1,1.297 1.297,1 24,1 46.703,1 47,1.297 47,24 z" style="fill:url(#linearGradient3764);fill-opacity:1"/>
 </g>
 <g transform="translate(-1,0)">
  <g>
   <g transform="translate(1,1)">
    <g style="opacity:0.1">
     <!-- color: #ac74b6 -->
     <g>
      <path d="M 15.875,11 C 15.383,11 15,11.383 15,11.875 l 0,24.25 C 15,36.617 15.383,37 15.875,37 l 18.25,0 C 34.617,37 35,36.617 35,36.125 l 0,-20.12 -5,-5 m -14.12,0" style="fill:#000;fill-opacity:1;stroke:none;fill-rule:nonzero"/>
      <use xlink:href="#SVGCleanerId_0" width="48" height="48"/>
     </g>
    </g>
   </g>
  </g>
 </g>
 <g transform="translate(-1,0)">
  <g>
   <!-- color: #ac74b6 -->
   <g>
    <path d="M 15.875,11 C 15.383,11 15,11.383 15,11.875 l 0,24.25 C 15,36.617 15.383,37 15.875,37 l 18.25,0 C 34.617,37 35,36.617 35,36.125 l 0,-20.12 -5,-5 m -14.12,0" style="fill:#ececde;fill-opacity:1;stroke:none;fill-rule:nonzero"/>
    <path d="m 17 29 10 0 0 -2 -10 0 m 0 2" style="fill:#8d758e;fill-opacity:1;stroke:none;fill-rule:nonzero"/>
    <path d="m 17 25 13 0 0 -2 -13 0 m 0 2" style="fill:#8d758e;fill-opacity:1;stroke:none;fill-rule:nonzero"/>
    <path d="m 17 21 8 0 0 -2 -8 0 m 0 2" style="fill:#8d758e;fill-opacity:1;stroke:none;fill-rule:nonzero"/>
    <path d="m 17 17 11 0 0 -2 -11 0 m 0 2" style="fill:#8d758e;fill-opacity:1;stroke:none;fill-rule:nonzero"/>
    <path d="m 17 34 16 0 0 -2 -16 0 m 0 2" style="fill:#8d758e;fill-opacity:1;stroke:none;fill-rule:nonzero"/>
    <path d="m 30 11 0 5 5 0 m -5 -5" style="fill:#fff;fill-opacity:1;stroke:none;fill-rule:nonzero"/>
    <path d="m 35 21 0 -5 -5 0 m 5 5" id="SVGCleanerId_0" style="fill:#000;fill-opacity:0.2;stroke:none;fill-rule:nonzero"/>
   </g>
  </g>
 </g>
 <g>
  
 </g>
</svg>
