<svg xmlns="http://www.w3.org/2000/svg" viewBox="0 0 48 48">
 <defs>
  <linearGradient id="linearGradient3764" x1="1" x2="47" gradientUnits="userSpaceOnUse" gradientTransform="matrix(0,-1,1,0,-1.5e-6,47.999998)">
   <stop style="stop-color:#e8e8e8;stop-opacity:1"/>
   <stop offset="1" style="stop-color:#f2f2f2;stop-opacity:1"/>
  </linearGradient>
 </defs>
 <g>
  
  
  
 </g>
 <g>
  <path d="m 47,24 C 47,46.703 46.703,47 24,47 1.297,47 1,46.703 1,24 1,1.297 1.297,1 24,1 46.703,1 47,1.297 47,24 z" style="fill:url(#linearGradient3764);fill-opacity:1"/>
 </g>
 <g>
  <g>
   <g transform="translate(1,1)">
    <g style="opacity:0.1">
     <!-- color: #f2f2f2 -->
     <g>
      <path d="m 15 13 l -1 8 l 2 0 c 0.461 -5.844 -1 -6 5 -6 l 1.996 0 c 1 0 1 0 1 1 l 0 11 l -5.04 0 l -3.965 2 l 3.965 2 c 0 0 3.382 -0.001 5.04 -0.002 l 0 2 c 0 1.996 0.035 1.996 -3 1.996 l -2 0 l 0 2 l 12 0 l 0 -2 l -1.996 0 c -2.992 0 -3 0 -3 -1.996 l 0 -2 c 3.369 -0.001 5.623 -0.002 8.426 -0.002 c 0 0 0.57 -0.324 0.57 -1.996 c 0 -1.613 -0.633 -2 -0.633 -2 l -8.363 0 l 0 -11 c 0 -0.781 0 -1 1 -1 l 2 0 c 5.996 0 4.648 0.199 5 6 l 1.996 0 l -1 -8 l -19.996 0 z" transform="translate(-1,-1)" style="fill:#000;fill-opacity:1;stroke:none;fill-rule:nonzero"/>
     </g>
    </g>
   </g>
  </g>
 </g>
 <g>
  <g>
   <!-- color: #f2f2f2 -->
   <g>
    <path d="m 17.965 26 0 0 l -3.965 2 l 3.965 2 c 0 0 10.32 -0.004 15.465 -0.004 0 0 0.57 -0.324 0.57 -1.996 0 -1.613 -0.633 -2 -0.633 -2 z" style="fill:#2d2d2d;fill-opacity:1;stroke:none;fill-rule:nonzero"/>
    <path d="m 34 12 l -19.996 0 l -1 8 l 2 0 c 0.461 -5.844 -1 -6 5 -6 l 1.996 0 c 1 0 1 0 1 1 l 0 17 c 0 1.996 0.035 1.996 -3 1.996 l -2 0 l 0 2 l 12 0 l 0 -2 l -1.996 0 c -2.992 0 -3 0 -3 -1.996 l 0 -17 c 0 -0.781 0 -1 1 -1 l 2 0 c 5.996 0 4.648 0.199 5 6 l 1.996 0" style="fill:#3686dd;fill-opacity:1;stroke:none;fill-rule:nonzero"/>
   </g>
  </g>
 </g>
 <g>
  
 </g>
</svg>
