<svg viewBox="0 0 48 48" xmlns="http://www.w3.org/2000/svg" xmlns:xlink="http://www.w3.org/1999/xlink">
  <linearGradient id="a" gradientTransform="matrix(0 -1 1 0 -.0000015 47.999998)" gradientUnits="userSpaceOnUse" x1="1" x2="47">
    <stop offset="0" stop-color="#d9d6c3"/>
    <stop offset="1" stop-color="#e1dfd0"/>
  </linearGradient>
  <path d="m47 24c0 22.703-.297 23-23 23-22.703 0-23-.297-23-23 0-22.703.297-23 23-23 22.703 0 23 .297 23 23z" fill="url(#a)"/>
  <g opacity=".1" transform="translate(1 1)">
    <path d="m26.355 12.584c-.526-.038-1.069.127-1.5.506-.797.707-.926 1.896-.346 2.764l.865 6.463 2.301-6.176c.741-.772.798-2.01.09-2.84-.373-.438-.884-.679-1.41-.717zm-5.146.973c-.521-.034-1.053.133-1.479.506-.847.75-.953 2.055-.234 2.934.232.285.53.495.857.621l3.662 4.762-.998-6.02c.003-.001.001-.017.014-.027.242-.719.082-1.515-.418-2.078-.375-.426-.884-.66-1.404-.693zm10.211.803c-.181-.016-.365-.007-.549.027-.73.141-1.336.672-1.574 1.391-.096.286-.111.582-.084.873l-2.479 6.01 5.16-4.205c.251-.084.491-.219.703-.406.851-.75.953-2.057.234-2.936-.358-.44-.869-.703-1.412-.75zm-14.262 2.734c-.526-.039-1.067.127-1.498.508-.859.762-.953 2.086-.207 2.965.43.506 1.044.743 1.652.715l6.234 2.029-4.334-4.621c-.075-.313-.214-.616-.436-.877-.373-.438-.886-.68-1.412-.719zm17.764 1.42c-.527-.038-1.068.129-1.494.51-.234.206-.406.454-.525.723l-5.01 3.809 6.318-.924c.647.187 1.372.052 1.912-.432.863-.762.957-2.09.211-2.965-.369-.439-.881-.683-1.408-.721zm-19.463 3.617c-.521-.033-1.055.135-1.479.51-.851.746-.953 2.051-.234 2.934.7.795 1.857.91 2.701.314.004.019.006.038.001.057l6.445-1.359-6.203-1.914c-.354-.324-.789-.512-1.24-.541zm7.529 3.744l-6.434 1.602c-.556-.067-1.137.088-1.594.492-.847.746-.953 2.047-.238 2.926.754.844 2.031.922 2.879.176.226-.201.395-.442.514-.703.006.006.001.013.016.02l4.857-4.512zm.531 1.172l-4.574 4.727c-.226.085-.442.209-.635.379-.836.738-.953 2.02-.262 2.898.758.82 2.02.884 2.852.146.507-.447.747-1.093.707-1.729.031.009.061.022.092.031l1.82-6.453z" transform="translate(-1 -1)"/>
    <path d="m29.574 24c-.344 0-.621.273-.621.617v.852c-.316.098-.625.215-.91.367l-.602-.598c-.238-.242-.648-.242-.887 0l-1.316 1.316c-.242.238-.242.648 0 .887l.598.602c-.152.285-.27.594-.367.91h-.852c-.344 0-.617.277-.617.621v1.855c0 .344.273.621.617.621h.852c.098.313.215.621.367.91l-.598.598c-.242.242-.242.648 0 .891l1.316 1.313c.238.242.648.242.887 0l .602-.598c.285.152.594.273.91.367v.852c0 .344.277.621.621.621h1.855c.344 0 .621-.277.621-.621v-.852c.313-.094.621-.215.91-.367l.598.598c.242.242.648.242.891 0l1.313-1.313c.242-.242.242-.648 0-.891l-.598-.598c.152-.289.273-.598.367-.91h.852c.344 0 .621-.277.621-.621v-1.855c0-.344-.277-.621-.621-.621h-.852c-.094-.316-.215-.625-.367-.91l.598-.602c.242-.238.242-.648 0-.887l-1.313-1.316c-.242-.242-.648-.242-.891 0l-.598.598c-.289-.152-.598-.27-.91-.367v-.852c0-.344-.277-.617-.621-.617m-.93 4.953c.855 0 1.551.695 1.551 1.547 0 .855-.695 1.551-1.551 1.551-.852 0-1.547-.695-1.547-1.551 0-.852.695-1.547 1.547-1.547m0 0"/>
  </g>
  <g transform="translate(.00048041)">
    <path d="m15.863 21.824c.719.879.613 2.184-.234 2.934-.852.75-2.133.668-2.883-.184-.719-.883-.617-2.188.234-2.934.848-.75 2.133-.668 2.883.184m0 0" fill="#19b271"/>
    <path d="m35.33 18.234c.746.875.652 2.203-.211 2.965-.852.762-2.164.664-2.902-.211-.746-.879-.652-2.207.211-2.965.852-.762 2.164-.668 2.902.211m0 0" fill="#eb60a4"/>
    <path d="m31.832 14.11c.719.879.617 2.184-.234 2.934-.848.75-2.133.668-2.883-.184-.5-.566-.66-1.363-.418-2.082.238-.719.844-1.25 1.574-1.391.734-.137 1.484.137 1.961.723m0 0" fill="#fb5336"/>
    <path d="m26.766 12.301c.746.879.652 2.207-.207 2.965-.863.762-2.164.668-2.91-.211-.746-.875-.652-2.203.207-2.965.863-.758 2.164-.664 2.91.211m0 0" fill="#ffa31e"/>
    <path d="m21.613 13.25c.5.563.66 1.359.418 2.078-.238.719-.84 1.254-1.574 1.391-.734.141-1.484-.137-1.961-.723-.719-.879-.613-2.184.234-2.934.852-.746 2.133-.664 2.883.188m0 0" fill="#ffd600"/>
    <path d="m17.57 16.813c.746.879.652 2.207-.207 2.965-.859.762-2.164.668-2.91-.211-.746-.879-.652-2.203.207-2.965.863-.762 2.164-.664 2.91.211m0 0" fill="#78be16"/>
    <path d="m16.836 27.14c.715.879.609 2.18-.234 2.93-.848.746-2.125.668-2.879-.176-.715-.879-.609-2.18.238-2.926.848-.75 2.125-.672 2.875.172m0 0" fill="#289cec"/>
    <path d="m20.17 31.3c.688.883.566 2.16-.27 2.898-.836.738-2.094.672-2.852-.148-.691-.883-.574-2.16.262-2.898.836-.738 2.094-.672 2.855.148m0 0" fill="#a24592"/>
    <path d="m29.574 24c-.344 0-.621.273-.621.617v.852c-.316.098-.625.215-.91.367l-.602-.598c-.238-.242-.648-.242-.887 0l-1.316 1.316c-.242.238-.242.648 0 .887l.598.602c-.152.285-.27.594-.367.91h-.852c-.344 0-.617.277-.617.621v1.855c0 .344.273.621.617.621h.852c.098.313.215.621.367.91l-.598.598c-.242.242-.242.648 0 .891l1.316 1.313c.238.242.648.242.887 0l .602-.598c.285.152.594.273.91.367v.852c0 .344.277.621.621.621h1.855c.344 0 .621-.277.621-.621v-.852c.313-.094.621-.215.91-.367l.598.598c.242.242.648.242.891 0l1.313-1.313c.242-.242.242-.648 0-.891l-.598-.598c.152-.289.273-.598.367-.91h.852c.344 0 .621-.277.621-.621v-1.855c0-.344-.277-.621-.621-.621h-.852c-.094-.316-.215-.625-.367-.91l.598-.602c.242-.238.242-.648 0-.887l-1.313-1.316c-.242-.242-.648-.242-.891 0l-.598.598c-.289-.152-.598-.27-.91-.367v-.852c0-.344-.277-.617-.621-.617m-.93 4.953c.855 0 1.551.695 1.551 1.547 0 .855-.695 1.551-1.551 1.551-.852 0-1.547-.695-1.547-1.551 0-.852.695-1.547 1.547-1.547m0 0" fill="#535353"/>
    <path d="m23.484 14.664c1.133-.16 2.273-.16 3.371-.008l-2.48 6.66m-.891-6.652" fill="#ffa31e"/>
    <path d="m28.29 15.465c1.055.453 2.039 1.047 2.902 1.746l-5.457 4.445m2.555-6.191" fill="#fb5336"/>
    <path d="m32.17 18.543c.684.934 1.23 1.953 1.637 3l-6.918 1.012m5.281-4.01" fill="#eb60a4"/>
    <path d="m18.949 16.09c.898-.719 1.883-1.309 2.902-1.742l1.164 7.03m-4.066-5.285" fill="#ffd600"/>
    <path d="m16.07 20.27c.344-1.109.836-2.164 1.441-3.105l4.828 5.145m-6.27-2.039" fill="#78be16"/>
    <path d="m15.457 24.945c-.23-1.141-.313-2.301-.238-3.422l6.684 2.063m-6.445 1.359" fill="#19b271"/>
    <path d="m17.13 29.387c-.77-.859-1.422-1.816-1.922-2.824l6.781-1.688m-4.859 4.512" fill="#289cec"/>
    <path d="m20.699 32.5c-1.098-.324-2.145-.793-3.086-1.383l4.906-5.07m-1.82 6.453" fill="#a24592"/>
  </g>
</svg>
