<svg viewBox="0 0 48 48" xmlns="http://www.w3.org/2000/svg" xmlns:xlink="http://www.w3.org/1999/xlink">
  <linearGradient id="a" gradientTransform="matrix(0 -1 1 0 -.0000015 47.999998)" gradientUnits="userSpaceOnUse" x1="1" x2="47">
    <stop offset="0" stop-color="#e4e4e4"/>
    <stop offset="1" stop-color="#eee"/>
  </linearGradient>
  <path d="m47 24c0 22.703-.297 23-23 23-22.703 0-23-.297-23-23 0-22.703.297-23 23-23 22.703 0 23 .297 23 23z" fill="url(#a)"/>
  <g opacity=".1" transform="translate(1 1)">
    <path d="m14.969 12c0 0-1.469 1.5-1.469 3v18c0 1.516-1.5 3-1.5 3h1.5c0 0 .648-.641 1.094-1.5h1.5c-.445.859-1.094 1.5-1.094 1.5h1.5c0 0 1.5-1.531 1.5-3v-3h1v-1.5h-1v-7.5h1v-.125c-.223-.211-.391-.461-.5-.719-.086-.207-.125-.434-.156-.656h-.344v-4.5c0-1.5 1.469-3 1.469-3m12.03 0c0 0-1.469 1.5-1.469 3v4.5h-.25c-.035.543-.215 1.035-.469 1.5h.719v7.5h-1.031v1.5h1.031v3c0 1.5-1.5 3-1.5 3h1.5c0 0 .648-.641 1.094-1.5h1.5c-.445.859-1.094 1.5-1.094 1.5h1.5c0 0 1.5-1.477 1.5-3v-18c0-1.5 1.469-3 1.469-3m-20.559 1.5h1.5c-.23.457-.441.977-.441 1.5h-1.5c0-.523.211-1.043.441-1.5m16.531 0h1.5c-.23.457-.441.977-.441 1.5h-1.5c0-.523.211-1.043.441-1.5m-16.98 3h1.5v1.5h-1.5m16.531-1.5h1.5v1.5h-1.5m-16.531 1.5h1.5v1.5h-1.5m16.531-1.5h1.5v1.5h-1.5m-16.531 1.5h1.5v1.5h-1.5m16.531-1.5h1.5v1.5h-1.5m-16.531 1.5h1.5v1.5h-1.5m16.531-1.5h1.5v1.5h-1.5m-16.531 1.5h1.5v1.5h-1.5m16.531-1.5h1.5v1.5h-1.5m-16.531 1.5h1.5v1.5h-1.5m16.531-1.5h1.5v1.5h-1.5m0-1.5"/>
    <path d="m24.57 27.18c-.043-1.453.289-2.859 1.684-3.855 1.469-1.133 2.887-2.543 2.738-4.207-.031-1.605-1.934-2.863-3.98-3.043-2.301-.316-5.086.461-5.859 2.23-.391.863-.027 2.406 1.285 2.406.77 0 1.121-.488 1.18-.934.043-.34-.094-.645-.18-.918-.098-.32.313-.938.75-1.188.371-.211.754-.281.813-.297 1.324-.309 2.645.383 3.191 1.223.551.844-.055 2.121-.926 3.363-.875 1.246-1.809 2.656-1.805 4.152 0 .57-.055.766-.016.996.027.184.648.164 1.125.074m-.605 1.949c-1.266-.066-2.145 1.348-1.383 2.246.68.984 2.582.75 2.91-.375.34-.875-.48-1.891-1.527-1.867m0-.004"/>
  </g>
  <path d="m14.969 12c0 0-1.469 1.5-1.469 3v18c0 1.516-1.5 3-1.5 3h1.5c0 0 .648-.641 1.094-1.5h1.5c-.445.859-1.094 1.5-1.094 1.5h1.5c0 0 1.5-1.531 1.5-3v-3h1v-1.5h-1v-7.5h1v-.125c-.223-.211-.391-.461-.5-.719-.086-.207-.125-.434-.156-.656h-.344v-4.5c0-1.5 1.469-3 1.469-3m12.03 0c0 0-1.469 1.5-1.469 3v4.5h-.25c-.035.543-.215 1.035-.469 1.5h.719v7.5h-1.031v1.5h1.031v3c0 1.5-1.5 3-1.5 3h1.5c0 0 .648-.641 1.094-1.5h1.5c-.445.859-1.094 1.5-1.094 1.5h1.5c0 0 1.5-1.477 1.5-3v-18c0-1.5 1.469-3 1.469-3m-20.559 1.5h1.5c-.23.457-.441.977-.441 1.5h-1.5c0-.523.211-1.043.441-1.5m16.531 0h1.5c-.23.457-.441.977-.441 1.5h-1.5c0-.523.211-1.043.441-1.5m-16.98 3h1.5v1.5h-1.5m16.531-1.5h1.5v1.5h-1.5m-16.531 1.5h1.5v1.5h-1.5m16.531-1.5h1.5v1.5h-1.5m-16.531 1.5h1.5v1.5h-1.5m16.531-1.5h1.5v1.5h-1.5m-16.531 1.5h1.5v1.5h-1.5m16.531-1.5h1.5v1.5h-1.5m-16.531 1.5h1.5v1.5h-1.5m16.531-1.5h1.5v1.5h-1.5m-16.531 1.5h1.5v1.5h-1.5m16.531-1.5h1.5v1.5h-1.5m0-1.5" fill="#2d2d2d"/>
  <path d="m24.57 27.18c-.043-1.453.289-2.859 1.684-3.855 1.469-1.133 2.887-2.543 2.738-4.207-.031-1.605-1.934-2.863-3.98-3.043-2.301-.316-5.086.461-5.859 2.23-.391.863-.027 2.406 1.285 2.406.77 0 1.121-.488 1.18-.934.043-.34-.094-.645-.18-.918-.098-.32.313-.938.75-1.188.371-.211.754-.281.813-.297 1.324-.309 2.645.383 3.191 1.223.551.844-.055 2.121-.926 3.363-.875 1.246-1.809 2.656-1.805 4.152 0 .57-.055.766-.016.996.027.184.648.164 1.125.074m-.605 1.949c-1.266-.066-2.145 1.348-1.383 2.246.68.984 2.582.75 2.91-.375.34-.875-.48-1.891-1.527-1.867m0-.004" fill="#e4a226"/>
</svg>
