<svg xmlns="http://www.w3.org/2000/svg" viewBox="0 0 48 48">
 <defs>
  <linearGradient id="linearGradient3137" y1="1" x2="0" y2="46.746" gradientUnits="userSpaceOnUse">
   <stop style="stop-color:#f95;stop-opacity:1"/>
   <stop offset="1" style="stop-color:#ff8d41;stop-opacity:1"/>
  </linearGradient>
 </defs>
 <g>
  
  
  
 </g>
 <g style="fill:#f95">
  <path d="m 24 1 c 22.703 0 23 0.297 23 23 c 0 22.703 -0.297 23 -23 23 -22.703 0 -23 -0.297 -23 -23 0 -22.703 0.297 -23 23 -23 z" style="fill:url(#linearGradient3137);fill-opacity:1"/>
 </g>
 <g>
  
 </g>
 <g transform="translate(1,1)" style="fill:#000;opacity:0.1">
  <path d="m 25.56 27.739 1.04 2.261 l -3.12 0 0 -2.261 z" style="fill-opacity:1;stroke:none"/>
  <path d="m 18.28 27.739 -1.04 2.261 l 3.12 0 0 -2.261 z" style="fill-opacity:1;stroke:none"/>
  <path d="m 15.16 24.348 -4.16 3.391 4.16 -1.696 z" style="fill-opacity:1;stroke:none"/>
  <path d="m 14.12 26.609 c 0 0 0.858 -4.059 2.08 -5.652 1.391 -1.814 3.425 -3.858 5.6 -3.957 2.503 -0.113 6.72 3.957 6.72 3.957 l 2.24 5.275 -5.6 2.638 -5.6 0 z" style="stroke:none"/>
  <path d="m 15.16 26.609 -2.08 3.391 l 3 0 1.16 -2.261 c 0 0 -0.544 -1.76 -1.29 -1.845 c -0.353 -0.04 -0.79 0.715 -0.79 0.715 z" style="fill-opacity:1;stroke:none"/>
  <path d="m 27.557 25.561 c -0.1 -0.484 0.395 -1.429 0.395 -1.429 0 0 2.602 -1.778 2.808 -3.176 0.121 -0.821 -1.164 -1.429 -1.04 -2.261 0.079 -0.526 0.587 -0.927 1.04 -1.13 0.961 -0.433 2.159 -0.433 3.12 0 1.359 0.612 3.12 1.793 3.12 3.391 0 1.066 -1.112 2.09 -2.08 2.261 -0.765 0.135 -2.08 -1.13 -2.08 -1.13 0 1.13 -2.08 4.272 -2.08 4.272 0 0 -1.476 0.721 -2.176 0.474 -0.514 -0.181 -0.916 -0.739 -1.027 -1.272 z" style="fill-opacity:1;stroke:none"/>
  <path d="m 24.52 27.739 1.04 2.261 l 3.12 0 -1.04 -2.261 c 0 0 -1.315 -1.265 -2.08 -1.13 -0.484 0.085 -1.04 1.13 -1.04 1.13 z" style="fill-opacity:1;stroke:none"/>
 </g>
 <g>
  <path d="m 25.56 27.739 1.04 2.261 l -3.12 0 0 -2.261 z" style="fill:#5aa02c;fill-opacity:1;stroke:none"/>
  <path d="m 18.28 27.739 -1.04 2.261 l 3.12 0 0 -2.261 z" style="fill:#5aa02c;fill-opacity:1;stroke:none"/>
  <path d="m 15.16 24.348 -4.16 3.391 4.16 -1.696" style="fill:#8dd35f;fill-opacity:1;stroke:none"/>
  <path d="m 14.12 26.609 c 0 0 0.858 -4.059 2.08 -5.652 1.391 -1.814 3.425 -3.858 5.6 -3.957 2.503 -0.113 6.72 3.957 6.72 3.957 l 2.24 5.275 -5.6 2.638 -5.6 0 z" style="fill:#ccc;stroke:none"/>
  <path d="m 24.69 22.249 3.254 -0.778 1.415 3.679 -4.174 1.344 z" style="fill:#ececec;stroke:none"/>
  <path d="m 14.12 26.609 6.24 1.13 4.16 0 5.2 -2.261 0 1.13 -4.16 2.261 -6.24 0 z" style="fill:#808080;fill-opacity:1;stroke:none"/>
  <path d="m 15.16 26.609 -2.08 3.391 l 3 0 1.16 -2.261 c 0 0 -0.544 -1.76 -1.29 -1.845 c -0.353 -0.04 -0.79 0.715 -0.79 0.715" style="fill:#8dd35f;fill-opacity:1;stroke:none"/>
  <path d="m 27.557 25.561 c -0.1 -0.484 0.395 -1.429 0.395 -1.429 0 0 2.602 -1.778 2.808 -3.176 0.121 -0.821 -1.164 -1.429 -1.04 -2.261 0.079 -0.526 0.587 -0.927 1.04 -1.13 0.961 -0.433 2.159 -0.433 3.12 0 1.359 0.612 3.12 1.793 3.12 3.391 0 1.066 -1.112 2.09 -2.08 2.261 -0.765 0.135 -2.08 -1.13 -2.08 -1.13 0 1.13 -2.08 4.272 -2.08 4.272 0 0 -1.476 0.721 -2.176 0.474 -0.514 -0.181 -0.916 -0.739 -1.027 -1.272 z" style="fill:#8dd35f;fill-opacity:1;stroke:none"/>
  <path d="m 24.52 27.739 1.04 2.261 l 3.12 0 -1.04 -2.261 c 0 0 -1.315 -1.265 -2.08 -1.13 -0.484 0.085 -1.04 1.13 -1.04 1.13 z" style="fill:#8dd35f;fill-opacity:1;stroke:none"/>
  <ellipse transform="matrix(0.60106384,0,0,0.41934687,36.494677,12.374837)" cx="-5.906" cy="16.514" rx="1.248" ry="1.788" style="fill:#4d4d4d;fill-opacity:1;stroke:none;fill-rule:nonzero"/>
  <path d="m 16.271 21.754 -1.415 3.466 3.325 1.132 1.203 -4.174 z" style="fill:#ececec;stroke:none"/>
  <path d="m 18.606 18.783 -2.122 2.405 2.971 0.354 1.415 -2.83 z" style="fill:#ececec;stroke:none"/>
  <path d="m 21.365 18.783 -1.203 2.759 3.537 -0.071 -0.637 -2.759 z" style="fill:#ececec;stroke:none"/>
  <path d="m 20.233 22.249 3.608 0 0.566 4.54 -5.306 -0.153 z" style="fill:#ececec;stroke:none"/>
  <path d="m 19.242 18.287 5.094 -0.071 c 0 0 -1.033 -0.703 -1.627 -0.849 -0.55 -0.135 -1.148 -0.134 -1.698 0 -0.645 0.158 -1.769 0.92 -1.769 0.92 z" style="fill:#ececec;stroke:none"/>
  <path d="m 23.77 18.712 1.203 -0.071 2.618 2.193 -3.113 0.707 z" style="fill:#ececec;stroke:none"/>
 </g>
</svg>
