<svg viewBox="0 0 48 48" xmlns="http://www.w3.org/2000/svg" xmlns:xlink="http://www.w3.org/1999/xlink">
  <linearGradient id="a" gradientTransform="matrix(0 -1 1 0 -.0000015 47.999998)" gradientUnits="userSpaceOnUse" x1="1" x2="47">
    <stop offset="0" stop-color="#4877c6"/>
    <stop offset="1" stop-color="#5782cb"/>
  </linearGradient>
  <linearGradient id="b" gradientTransform="matrix(.153409 0 0 .15 1.909134 .600007)" gradientUnits="userSpaceOnUse" x2="0" y1="272" y2="37">
    <stop offset="0" stop-color="#ffc87f"/>
    <stop offset="1" stop-color="#ffecd6"/>
  </linearGradient>
  <path d="m47 24c0 22.703-.297 23-23 23-22.703 0-23-.297-23-23 0-22.703.297-23 23-23 22.703 0 23 .297 23 23z" fill="url(#a)"/>
  <path d="m33 26.801c.051 4.945-3.254 9.199-8.797 9.199-5.539 0-9.238-2.805-9.203-9.598.035-6.813 4.617-14.316 8.793-14.402 4.453-.105 9.125 7.277 9.207 14.801m0 0" fill-rule="evenodd" opacity=".1" transform="translate(1 1)"/>
  <g transform="translate(.00024625)">
    <path d="m33 26.801c.051 4.945-3.254 9.199-8.797 9.199-5.539 0-9.238-2.805-9.203-9.598.035-6.813 4.617-14.316 8.793-14.402 4.453-.105 9.125 7.277 9.207 14.801m0 0" fill="url(#b)" fill-rule="evenodd"/>
    <path d="m28.875 14.938l-1.969 1.973-.125.09.09.094.813.906-1.531.75-.125.094c-.004-.004-.023.004-.031 0-.086-.063-.176-.133-.313-.188-.09-.039-.203-.082-.309-.125-.414-.191-.797-.355-1.285-.625-.012-.004-.016-.023-.031-.031l-.09.125-.125.094c.012.016.047.012.063.031.098.109.211.199.375.277.191.098.43.191.656.281.215.086.422.176.594.25.008.004.027 0 .035 0 .07.035.074.039.121.066l-1.184.531.063.156.063.125c.238-.098.602-.215.906-.344.129-.055.219-.109.313-.156v.652h.313c.004-.422.039-.578.066-.84l1.906-.941.188-.09-.121-.156-.844-.91c.566-.594.855-.969 1.75-1.871-.203-.188-.137-.137-.219-.223m-.008.004" fill="#2f2f2f"/>
  </g>
</svg>
