<svg xmlns="http://www.w3.org/2000/svg" viewBox="0 0 48 48">
 <defs>
  <linearGradient id="linearGradient3764" x1="1" x2="47" gradientUnits="userSpaceOnUse" gradientTransform="matrix(0,-1,1,0,-1.5e-6,47.999998)">
   <stop style="stop-color:#4877c6;stop-opacity:1"/>
   <stop offset="1" style="stop-color:#5782cb;stop-opacity:1"/>
  </linearGradient>
  <linearGradient id="linear0" gradientUnits="userSpaceOnUse" y1="272" x2="0" y2="37" gradientTransform="matrix(0.153409,0,0,0.15,1.909134,0.600007)">
   <stop style="stop-color:#ffc87f;stop-opacity:1"/>
   <stop offset="1" style="stop-color:#ffecd6;stop-opacity:1"/>
  </linearGradient>
 </defs>
 <g>
  
  
  
 </g>
 <g>
  <path d="m 47,24 C 47,46.703 46.703,47 24,47 1.297,47 1,46.703 1,24 1,1.297 1.297,1 24,1 46.703,1 47,1.297 47,24 z" style="fill:url(#linearGradient3764);fill-opacity:1"/>
 </g>
 <g>
  <g>
   <g transform="translate(1,1)">
    <g style="opacity:0.1">
     <!-- color: #5782cb -->
     <g>
      <path d="m 33 26.801 c 0.051 4.945 -3.254 9.199 -8.797 9.199 c -5.539 0 -9.238 -2.805 -9.203 -9.598 c 0.035 -6.813 4.617 -14.316 8.793 -14.402 c 4.453 -0.105 9.125 7.277 9.207 14.801 m 0 0" style="fill:#000;stroke:none;fill-rule:evenodd"/>
     </g>
    </g>
   </g>
  </g>
 </g>
 <g transform="translate(2.4624513e-4,0)">
  <g>
   <!-- color: #5782cb -->
   <g>
    <path d="M 33,26.801 C 33.051,31.746 29.746,36 24.203,36 18.664,36 14.965,33.195 15,26.402 15.035,19.589 19.617,12.086 23.793,12 28.246,11.895 32.918,19.277 33,26.801 m 0,0" style="fill:url(#linear0);stroke:none;fill-rule:evenodd"/>
    <path d="m 28.875 14.938 -1.969 1.973 -0.125 0.09 0.09 0.094 0.813 0.906 -1.531 0.75 -0.125 0.094 c -0.004 -0.004 -0.023 0.004 -0.031 0 -0.086 -0.063 -0.176 -0.133 -0.313 -0.188 -0.09 -0.039 -0.203 -0.082 -0.309 -0.125 -0.414 -0.191 -0.797 -0.355 -1.285 -0.625 -0.012 -0.004 -0.016 -0.023 -0.031 -0.031 l -0.09 0.125 -0.125 0.094 c 0.012 0.016 0.047 0.012 0.063 0.031 0.098 0.109 0.211 0.199 0.375 0.277 0.191 0.098 0.43 0.191 0.656 0.281 0.215 0.086 0.422 0.176 0.594 0.25 0.008 0.004 0.027 0 0.035 0 0.07 0.035 0.074 0.039 0.121 0.066 l -1.184 0.531 0.063 0.156 0.063 0.125 c 0.238 -0.098 0.602 -0.215 0.906 -0.344 0.129 -0.055 0.219 -0.109 0.313 -0.156 l 0 0.652 0.313 0 c 0.004 -0.422 0.039 -0.578 0.066 -0.84 l 1.906 -0.941 0.188 -0.09 -0.121 -0.156 -0.844 -0.91 c 0.566 -0.594 0.855 -0.969 1.75 -1.871 -0.203 -0.188 -0.137 -0.137 -0.219 -0.223 m -0.008 0.004" style="fill:#2f2f2f;fill-opacity:1;stroke:none;fill-rule:nonzero"/>
   </g>
  </g>
 </g>
 <g>
  
 </g>
</svg>
