<svg viewBox="0 0 48 48" xmlns="http://www.w3.org/2000/svg" xmlns:xlink="http://www.w3.org/1999/xlink">
  <linearGradient id="a" gradientTransform="matrix(0 -1 1 0 0 48)" gradientUnits="userSpaceOnUse" x1="1" x2="47" y1="24" y2="24">
    <stop offset="0" stop-color="#ffd59a"/>
    <stop offset="1" stop-color="#ffdeaf"/>
  </linearGradient>
  <path d="m1 24c0-22.703.297-23 23-23 22.703 0 23 .297 23 23 0 22.703-.297 23-23 23-22.703 0-23-.297-23-23z" fill="url(#a)"/>
  <g opacity=".1" transform="translate(1 1)">
    <path d="m18.887 28h4.227c.488 0 .887.395.887.887v.227c0 .488-.398.883-.887.883h-4.227c-.488 0-.887-.395-.887-.883v-.227c0-.492.398-.887.887-.887m0 0"/>
    <path d="m35.998 10.99c-2.5-.043-4.979 2.105-4.979 2.105-.8.305-1.738 2.973-1.738 2.973-.141-.886.336-1.906.336-1.906-1.018.624-1.969 1.431-2.783 2.213l-1.834-1.375-2.666 2h-6.447c-.492 0-.887.399-.887.887v4.613l-2 1.5c0 4.667 0 9.333 0 14h24v-14l-2-1.502v-4.611c0-.489-.395-.887-.883-.887h-3.664c2.466-3.036 5.549-6.01 5.549-6.01z" transform="translate(-1 -1)"/>
  </g>
  <path d="m18.887 28h4.227c.488 0 .887.395.887.887v.227c0 .488-.398.883-.887.883h-4.227c-.488 0-.887-.395-.887-.883v-.227c0-.492.398-.887.887-.887m0 0" fill="#e55353"/>
  <path d="m12 23l12-9 12 9v3h-24m-.004-3" fill="#c83e44"/>
  <path d="m14.887 16h18.227c.488 0 .883.398.883.887v18.227c0 .488-.395.887-.883.887h-18.227c-.492 0-.887-.398-.887-.887v-18.227c0-.488.395-.887.887-.887m0 0" fill="#f3f3f3"/>
  <path d="m19 30c0 0 1.461-3.5 1.801-4.137 0 0-1.012-2.977 1.031-5.594l.84-1.336c0 0-.461 1.234.129 2.238 0 0 .02-2.09.531-3.02 0 0 2.406-3.223 5.285-4.988 0 0-.477 1.02-.336 1.906 0 0 .938-2.668 1.738-2.973 0 0 2.48-2.148 4.98-2.105 0 0-4.164 4.01-6.684 7.473 0 0-1.547 2.219-2.25 2.457 0 0-1.047.488-1.402.504 0 0 1.027.035 1.625-.141 0 0-1.023 1.527-1.348 2.379 0 0-.871 1.648-1.539 2.16 0 0-1.133.918-1.98 1.156l-.84 1.918c0 0-.988 1.066-1.582 2.09m0 .004" fill="#26a3cf"/>
  <path d="m12 23v14h24v-14l-12 6m-12-6" fill="#fa535a"/>
</svg>
