<svg xmlns="http://www.w3.org/2000/svg" viewBox="0 0 48 48">
 <defs>
  <linearGradient id="linearGradient3764" y1="47" x2="0" y2="1" gradientUnits="userSpaceOnUse">
   <stop style="stop-color:#edb76b;stop-opacity:1"/>
   <stop offset="1" style="stop-color:#efc07d;stop-opacity:1"/>
  </linearGradient>
 </defs>
 <g>
  
  
  
 </g>
 <g>
  <path d="m 47,24 C 47,46.703 46.703,47 24,47 1.297,47 1,46.703 1,24 1,1.297 1.297,1 24,1 46.703,1 47,1.297 47,24 z" style="fill:url(#linearGradient3764);fill-opacity:1"/>
  <path d="m 38.646 6.266 l -3.729 2.17 l -1.023 -1.771 l -5.875 3.396 l 1.035 1.791 l -5.863 3.416 l -1.047 -1.811 l -5.875 3.395 l 1.057 1.83 l -5.859 3.412 l -1.068 -1.848 l -5.875 3.395 l 1.08 1.867 l -4.252 2.477 c 0.138 0.787 0.314 1.561 0.529 2.318 l 4.863 -2.82 l 6.807 11.775 l -4.221 2.457 c 0.654 0.542 1.342 1.045 2.055 1.514 l 3.338 -1.941 l 1.117 1.932 l 5.875 -3.395 l -1.127 -1.949 l 5.861 -3.41 l 1.137 1.965 l 5.875 -3.395 l -1.146 -1.982 l 5.867 -3.414 l 1.158 2 l 5.871 -3.398 l -1.166 -2.02 l 2.904 -1.689 c -0.054 -0.861 -0.158 -1.708 -0.305 -2.541 l -3.773 2.197 l -6.783 -11.734 l 4.361 -2.529 c -0.572 -0.585 -1.172 -1.142 -1.803 -1.664 z m -8.428 7.6 l 6.787 11.74 l -5.865 3.414 l -6.793 -11.75 l 5.871 -3.404 z m -11.74 6.809 l 6.797 11.76 l -5.861 3.41 l -6.801 -11.768 l 5.865 -3.402 z" style="fill:#000;opacity:0.1;fill-opacity:1"/>
 </g>
 <g>
  <g>
   <g transform="translate(1,1)">
    <g style="opacity:0.1">
     <!-- color: #efc07d -->
    </g>
   </g>
  </g>
 </g>
 <g>
  <g>
   <!-- color: #efc07d -->
   <g>
    <path d="m 3.523 22.641 l 5.875 -3.395 l 11.316 19.578 l -5.875 3.395 m -11.316 -19.578" style="fill:#853009;fill-opacity:1;stroke:none;fill-rule:nonzero"/>
    <path d="m 15.27 15.852 l 5.875 -3.395 l 11.316 19.578 l -5.875 3.395 m -11.316 -19.578" style="fill:#853009;fill-opacity:1;stroke:none;fill-rule:nonzero"/>
    <path d="m 27.02 9.06 l 5.875 -3.395 l 11.316 19.578 l -5.871 3.398 m -11.32 -19.582" style="fill:#853009;fill-opacity:1;stroke:none;fill-rule:nonzero"/>
   </g>
  </g>
 </g>
 <g>
  
 </g>
 <path d="m 46.35 18.584 -38.1 22.17 c 0.604 0.568 1.237 1.107 1.9 1.607 l 36.648 -21.326 c -0.107 -0.833 -0.257 -1.652 -0.451 -2.455" style="fill:#7f7f7f;fill-opacity:1"/>
 <path d="m 37.475 5.365 -36.33 21.16 c 0.089 0.813 0.221 1.613 0.393 2.398 l 37.895 -21.98 c -0.62 -0.561 -1.274 -1.086 -1.953 -1.578" style="fill:#7f7f7f;fill-opacity:1"/>
</svg>
