<svg xmlns="http://www.w3.org/2000/svg" viewBox="0 0 48 48">
 <defs>
  <linearGradient id="linearGradient3764" x1="1" x2="47" gradientUnits="userSpaceOnUse" gradientTransform="matrix(0,-1,1,0,-1.5e-6,47.999998)">
   <stop style="stop-color:#734115;stop-opacity:1"/>
   <stop offset="1" style="stop-color:#834a18;stop-opacity:1"/>
  </linearGradient>
 </defs>
 <g>
  
  
  
 </g>
 <g>
  <path d="m 47,24 C 47,46.703 46.703,47 24,47 1.297,47 1,46.703 1,24 1,1.297 1.297,1 24,1 46.703,1 47,1.297 47,24 z" style="fill:url(#linearGradient3764);fill-opacity:1"/>
 </g>
 <path d="m 20 13 0 7 -7 0 0 1 7 0 0 8 -7 0 0 1 7 0 0 7 1 0 0 -7 8 0 0 7 1 0 0 -7 7 0 0 -1 -7 0 0 -8 7 0 0 -1 -7 0 0 -7 -1 0 0 7 -8 0 0 -7 -1 0 z m -5.656 0.656 -0.688 0.688 2.156 2.156 -2.156 2.156 0.688 0.688 2.156 -2.156 2.156 2.156 0.688 -0.688 l -2.156 -2.156 2.156 -2.156 -0.688 -0.688 -2.156 2.156 -2.156 -2.156 z m 6.656 7.344 l 8 0 0 8 -8 0 0 -8 z m 4 1 c -1.657 0 -3 1.343 -3 3 0 1.657 1.343 3 3 3 1.657 0 3 -1.343 3 -3 0 -1.657 -1.343 -3 -3 -3 z m 0 1 c 1.105 0 2 0.895 2 2 0 1.105 -0.895 2 -2 2 -1.105 0 -2 -0.895 -2 -2 0 -1.105 0.895 -2 2 -2 z m -10.656 7.656 -0.688 0.688 2.156 2.156 -2.156 2.156 0.688 0.688 2.156 -2.156 2.156 2.156 0.688 -0.688 l -2.156 -2.156 2.156 -2.156 -0.688 -0.688 -2.156 2.156 -2.156 -2.156 z m 19.656 0.344 c -1.657 0 -3 1.343 -3 3 0 1.657 1.343 3 3 3 1.657 0 3 -1.343 3 -3 0 -1.657 -1.343 -3 -3 -3 z m 0 1 c 1.105 0 2 0.895 2 2 0 1.105 -0.895 2 -2 2 -1.105 0 -2 -0.895 -2 -2 0 -1.105 0.895 -2 2 -2 z" style="fill:#000;fill-opacity:0.118;stroke:none;fill-rule:nonzero"/>
 <g>
  
 </g>
 <path d="m 19 12 l 0 7 l -7 0 l 0 1 l 7 0 l 0 8 l -7 0 l 0 1 l 7 0 l 0 7 l 1 0 l 0 -7 l 8 0 l 0 7 l 1 0 l 0 -7 l 7 0 l 0 -1 l -7 0 l 0 -8 l 7 0 l 0 -1 l -7 0 l 0 -7 l -1 0 l 0 7 l -8 0 l 0 -7 l -1 0 z m -5.656 0.656 l -0.688 0.688 l 2.156 2.156 l -2.156 2.156 l 0.688 0.688 l 2.156 -2.156 l 2.156 2.156 l 0.688 -0.688 l -2.156 -2.156 l 2.156 -2.156 l -0.688 -0.688 l -2.156 2.156 l -2.156 -2.156 z m 6.656 7.344 l 8 0 l 0 8 l -8 0 l 0 -8 z m 4 1 c -1.657 0 -3 1.343 -3 3 c 0 1.657 1.343 3 3 3 c 1.657 0 3 -1.343 3 -3 c 0 -1.657 -1.343 -3 -3 -3 z m 0 1 c 1.105 0 2 0.895 2 2 c 0 1.105 -0.895 2 -2 2 c -1.105 0 -2 -0.895 -2 -2 c 0 -1.105 0.895 -2 2 -2 z m -10.656 7.656 l -0.688 0.688 l 2.156 2.156 l -2.156 2.156 l 0.688 0.688 l 2.156 -2.156 l 2.156 2.156 l 0.688 -0.688 l -2.156 -2.156 l 2.156 -2.156 l -0.688 -0.688 l -2.156 2.156 l -2.156 -2.156 z m 19.656 0.344 c -1.657 0 -3 1.343 -3 3 c 0 1.657 1.343 3 3 3 c 1.657 0 3 -1.343 3 -3 c 0 -1.657 -1.343 -3 -3 -3 z m 0 1 c 1.105 0 2 0.895 2 2 c 0 1.105 -0.895 2 -2 2 c -1.105 0 -2 -0.895 -2 -2 c 0 -1.105 0.895 -2 2 -2 z" style="fill:#e4d9cf;fill-opacity:1;stroke:none;fill-rule:nonzero"/>
</svg>
