<svg viewBox="0 0 48 48" xmlns="http://www.w3.org/2000/svg" xmlns:xlink="http://www.w3.org/1999/xlink">
  <linearGradient id="a" gradientUnits="userSpaceOnUse" x2="0" y1="48" y2=".27">
    <stop offset="0" stop-color="#ed7826"/>
    <stop offset="1" stop-color="#ef8439"/>
  </linearGradient>
  <linearGradient id="b" gradientTransform="translate(.14 .3451602)" gradientUnits="userSpaceOnUse" x1="16.16" x2="26.554">
    <stop offset="0" stop-color="#94c94a"/>
    <stop offset="1" stop-color="#9dcc58"/>
  </linearGradient>
  <path d="m24 1c22.703 0 23 .297 23 23 0 22.703-.297 23-23 23-22.703 0-23-.297-23-23 0-22.703.297-23 23-23z" fill="url(#a)"/>
  <path d="m16.473 2.268c-1.448.501-2.829 1.142-4.129 1.908.329 1.308.702 2.674.957 3.539.38 1.25 1.519 4.721 2.049 4.781.35.04-.279-4.711-.189-6.281.071-1.218.606-2.679 1.314-3.947zm6.326 2.674c-.457-.032-.882.475-.908 1.783-.05 2.55-1.621 4.849-2.891 6.939-1.25 2.07-.02 2.712 1.5 1.172 1.64-1.66 3.27-5.311 3.43-7.641.096-1.277-.543-2.212-1.131-2.254zm-15.799 3.557v.006c-.823.902-1.57 1.872-2.242 2.896 1.444 1.698 2.764 3.513 2.668 6.06-.14 3.44-2.84 7.479-.65 10.779 1.38 2.08 11.251 7.338 18.881 7.238.14 0 .06-.06-.18-.16 2.49 0 4.77-.609 7.05-2.639 3.43-3.06 3.48-8.04 7.73-10.4 8.45-4.69 3.547-7.178-1.973-8.04 1.43.04 2.35-.021 1.99-.541-1.87-2.67-18.548-.451-17.12 2.119.29.52.771.742 1.391.762-1.1.42-2.23.779-3.42.949-4.7.66-9.151-1.219-12.221 1.311.13-.76.229-1.56.199-2.49-.089-2.672-1.309-5.21-2.105-7.852zm39.38 20.813c-.093.104-.203.223-.287.318-5.7 6.58-9.702 14.621-31.682 8.881-5.8-1.52-8.08-1.91-2.908.92 11.345 6.219 20.299 5.665 26.471 2.842 4.141-3.172 7.168-7.72 8.406-12.961z" fill-opacity=".098"/>
  <path d="m14.744 2.943c-1.052.463-2.061 1-3.02 1.613.219.811.45 1.664.609 2.209.39 1.24 1.531 4.71 2.061 4.77.35.04-.281-4.709-.191-6.279.042-.711.246-1.515.545-2.313z" fill="#2d2d2d"/>
  <path d="m46.828 26.76c-.653.66-1.268 1.329-1.738 1.865-5.7 6.58-9.7 14.621-31.68 8.881-5.8-1.52-8.08-1.91-2.91.92 15.586 8.544 26.675 4.325 32.2-1.039 2.199-3.066 3.658-6.693 4.129-10.627z" fill="#2d2d2d"/>
  <path d="m8.25 26.915c1.15 4.05 12.47 6.04 15.93 7.32 4.17 1.54 8.51-3.18 10.16-6.39.89-1.73 1.67-3.56 3.02-4.99 1.75-1.86 4.47-2.51 5.98-4.63 1.89-2.67-2.04-4.04-3.99-4.53-4.96-1.23-12.51-.91-13.67 1.54-4.18.75-9.28.87-14.24 1.34-5.42.5-4.3 6.46-3.19 10.34.75 2.65-.88-3.08 0 0z" fill="#fff"/>
  <path d="m6.53 9.05c-.672.784-1.291 1.614-1.854 2.484 1.05 1.403 1.87 2.957 1.785 4.973-.13 3.44-2.831 7.479-.641 10.779 1.38 2.08 11.249 7.34 18.879 7.24.14 0 .06-.06-.18-.16-2.01-.84-15.51-4.799-16.27-7.449-.18-.61-.12-1.122 1.57-1.092 4.97.09 3.351 4.191 11.811 3.961 1.85-.079 3.753-.775 4.889-2.029 1.37-1.4 2.041-3.121 2.951-3.781 4.58-3.33 4.25-2.669 6.02-3.639 3.48-1.9 1.29-4.611 0-3.191-1.54 1.7-4.181.402-7.721.352-2.62-.26-7.559 1.399-10.199 3.059-4.23 2.66-3.639-.34-4.359-2.91-.05.35-.46 3.08 0 4.84-1.98.69-2.34.741-4 .701-.58 0-1.85.119-1.82-1.461.03-1.48.339-2.63.549-3.85.13-.76.231-1.56.201-2.49-.069-2.157-.882-4.229-1.611-6.336" fill="#2d2d2d"/>
  <path d="m26.61 25.295c.05-.3.08-.6.08-.91 0-2.29-1.49-4.24-3.55-4.93-2.29.74-4.32 1.88-6.19 3.39-.19.15-.37.29-.54.4-.08.37-.13.75-.13 1.14 0 1.18.39 2.27 1.05 3.14 2.3.89 6.46.36 9.28-2.23zm-5.12-2.21c.72 0 1.3.58 1.3 1.3 0 .72-.58 1.3-1.3 1.3-.72 0-1.3-.58-1.3-1.3 0-.72.59-1.3 1.3-1.3z" fill="url(#b)"/>
  <path d="m30.78 13.475c1.85-.46 4.65-.23 6.55-.19 1.43.04 2.35-.02 1.99-.54-1.87-2.67-18.55-.45-17.12 2.12.29.52.77.74 1.39.76 1.77.05 4.65-1.52 7.19-2.15z" fill="#2d2d2d"/>
  <path d="m20.93 5.765c-.05 2.55-1.63 4.85-2.89 6.94-1.25 2.07-.02 2.71 1.5 1.17 1.64-1.66 3.27-5.31 3.43-7.64.17-2.27-1.98-3.46-2.04-.47z" fill="#2d2d2d"/>
</svg>
