<svg xmlns="http://www.w3.org/2000/svg" viewBox="0 0 48 48">
 <defs>
  <linearGradient id="linearGradient7796" y1="48" x2="0" y2="0.27" gradientUnits="userSpaceOnUse">
   <stop style="stop-color:#ed7826;stop-opacity:1"/>
   <stop offset="1" style="stop-color:#ef8439;stop-opacity:1"/>
  </linearGradient>
  <linearGradient gradientTransform="translate(0.14,0.3451602)" id="SVGID_1_" gradientUnits="userSpaceOnUse" x1="16.16" x2="26.554">
   <stop style="stop-color:#94c94a"/>
   <stop offset="1" style="stop-color:#9dcc58"/>
  </linearGradient>
 </defs>
 <g>
  
  
  
 </g>
 <g>
  <path d="m 24 1 c 22.703 0 23 0.297 23 23 c 0 22.703 -0.297 23 -23 23 -22.703 0 -23 -0.297 -23 -23 0 -22.703 0.297 -23 23 -23 z" style="fill:url(#linearGradient7796);fill-opacity:1"/>
  <path d="m 16.473 2.268 c -1.448 0.501 -2.829 1.142 -4.129 1.908 c 0.329 1.308 0.702 2.674 0.957 3.539 c 0.38 1.25 1.519 4.721 2.049 4.781 c 0.35 0.04 -0.279 -4.711 -0.189 -6.281 c 0.071 -1.218 0.606 -2.679 1.314 -3.947 l -0.002 0 z m 6.326 2.674 c -0.457 -0.032 -0.882 0.475 -0.908 1.783 c -0.05 2.55 -1.621 4.849 -2.891 6.939 c -1.25 2.07 -0.02 2.712 1.5 1.172 c 1.64 -1.66 3.27 -5.311 3.43 -7.641 c 0.096 -1.277 -0.543 -2.212 -1.131 -2.254 z m -15.799 3.557 l 0 0.006 c -0.823 0.902 -1.57 1.872 -2.242 2.896 c 1.444 1.698 2.764 3.513 2.668 6.06 c -0.14 3.44 -2.84 7.479 -0.65 10.779 c 1.38 2.08 11.251 7.338 18.881 7.238 c 0.14 0 0.06 -0.06 -0.18 -0.16 c 2.49 0 4.77 -0.609 7.05 -2.639 c 3.43 -3.06 3.48 -8.04 7.73 -10.4 c 8.45 -4.69 3.547 -7.178 -1.973 -8.04 c 1.43 0.04 2.35 -0.021 1.99 -0.541 c -1.87 -2.67 -18.548 -0.451 -17.12 2.119 c 0.29 0.52 0.771 0.742 1.391 0.762 c -1.1 0.42 -2.23 0.779 -3.42 0.949 c -4.7 0.66 -9.151 -1.219 -12.221 1.311 c 0.13 -0.76 0.229 -1.56 0.199 -2.49 c -0.089 -2.672 -1.309 -5.21 -2.105 -7.852 z m 39.38 20.813 c -0.093 0.104 -0.203 0.223 -0.287 0.318 c -5.7 6.58 -9.702 14.621 -31.682 8.881 c -5.8 -1.52 -8.08 -1.91 -2.908 0.92 c 11.345 6.219 20.299 5.665 26.471 2.842 c 4.141 -3.172 7.168 -7.72 8.406 -12.961 z" style="fill:#000;fill-opacity:0.098"/>
  <path d="m 14.744 2.943 c -1.052 0.463 -2.061 1 -3.02 1.613 c 0.219 0.811 0.45 1.664 0.609 2.209 c 0.39 1.24 1.531 4.71 2.061 4.77 c 0.35 0.04 -0.281 -4.709 -0.191 -6.279 c 0.042 -0.711 0.246 -1.515 0.545 -2.313 z" style="fill:#2d2d2d;fill-opacity:1"/>
  <path d="m 46.828 26.76 c -0.653 0.66 -1.268 1.329 -1.738 1.865 c -5.7 6.58 -9.7 14.621 -31.68 8.881 c -5.8 -1.52 -8.08 -1.91 -2.91 0.92 c 15.586 8.544 26.675 4.325 32.2 -1.039 c 2.199 -3.066 3.658 -6.693 4.129 -10.627 z" style="fill:#2d2d2d;fill-opacity:1"/>
 </g>
 <g>
  <g>
   <g transform="translate(1,1)">
    <g style="opacity:0.1">
     <!-- color: #ce5952 -->
    </g>
   </g>
  </g>
 </g>
 <g>
  <g>
   <!-- color: #ce5952 -->
  </g>
 </g>
 <g>
  
 </g>
 <path d="m 8.25 26.915 c 1.15 4.05 12.47 6.04 15.93 7.32 4.17 1.54 8.51 -3.18 10.16 -6.39 0.89 -1.73 1.67 -3.56 3.02 -4.99 1.75 -1.86 4.47 -2.51 5.98 -4.63 1.89 -2.67 -2.04 -4.04 -3.99 -4.53 -4.96 -1.23 -12.51 -0.91 -13.67 1.54 -4.18 0.75 -9.28 0.87 -14.24 1.34 -5.42 0.5 -4.3 6.46 -3.19 10.34 0.75 2.65 -0.88 -3.08 0 0 z" style="fill:#fff"/>
 <path d="m 6.53 9.05 c -0.672 0.784 -1.291 1.614 -1.854 2.484 1.05 1.403 1.87 2.957 1.785 4.973 -0.13 3.44 -2.831 7.479 -0.641 10.779 1.38 2.08 11.249 7.34 18.879 7.24 0.14 0 0.06 -0.06 -0.18 -0.16 -2.01 -0.84 -15.51 -4.799 -16.27 -7.449 -0.18 -0.61 -0.12 -1.122 1.57 -1.092 4.97 0.09 3.351 4.191 11.811 3.961 1.85 -0.079 3.753 -0.775 4.889 -2.029 1.37 -1.4 2.041 -3.121 2.951 -3.781 4.58 -3.33 4.25 -2.669 6.02 -3.639 3.48 -1.9 1.29 -4.611 0 -3.191 -1.54 1.7 -4.181 0.402 -7.721 0.352 -2.62 -0.26 -7.559 1.399 -10.199 3.059 -4.23 2.66 -3.639 -0.34 -4.359 -2.91 -0.05 0.35 -0.46 3.08 0 4.84 -1.98 0.69 -2.34 0.741 -4 0.701 -0.58 0 -1.85 0.119 -1.82 -1.461 0.03 -1.48 0.339 -2.63 0.549 -3.85 0.13 -0.76 0.231 -1.56 0.201 -2.49 c -0.069 -2.157 -0.882 -4.229 -1.611 -6.336" style="fill:#2d2d2d;fill-opacity:1"/>
 <path d="m 26.61 25.295 c 0.05 -0.3 0.08 -0.6 0.08 -0.91 0 -2.29 -1.49 -4.24 -3.55 -4.93 -2.29 0.74 -4.32 1.88 -6.19 3.39 -0.19 0.15 -0.37 0.29 -0.54 0.4 -0.08 0.37 -0.13 0.75 -0.13 1.14 0 1.18 0.39 2.27 1.05 3.14 2.3 0.89 6.46 0.36 9.28 -2.23 z m -5.12 -2.21 c 0.72 0 1.3 0.58 1.3 1.3 0 0.72 -0.58 1.3 -1.3 1.3 -0.72 0 -1.3 -0.58 -1.3 -1.3 0 -0.72 0.59 -1.3 1.3 -1.3 z" style="fill:url(#SVGID_1_)"/>
 <path d="m 30.78 13.475 c 1.85 -0.46 4.65 -0.23 6.55 -0.19 1.43 0.04 2.35 -0.02 1.99 -0.54 -1.87 -2.67 -18.55 -0.45 -17.12 2.12 0.29 0.52 0.77 0.74 1.39 0.76 1.77 0.05 4.65 -1.52 7.19 -2.15 z" style="fill:#2d2d2d"/>
 <path d="m 20.93 5.765 c -0.05 2.55 -1.63 4.85 -2.89 6.94 -1.25 2.07 -0.02 2.71 1.5 1.17 1.64 -1.66 3.27 -5.31 3.43 -7.64 0.17 -2.27 -1.98 -3.46 -2.04 -0.47 z" style="fill:#2d2d2d"/>
</svg>
