<svg viewBox="0 0 48 48" xmlns="http://www.w3.org/2000/svg" xmlns:xlink="http://www.w3.org/1999/xlink">
  <linearGradient id="a" gradientTransform="matrix(0 -1 1 0 -.0000015 47.999998)" gradientUnits="userSpaceOnUse" x1="1" x2="47">
    <stop offset="0" stop-color="#e4e4e4"/>
    <stop offset="1" stop-color="#eee"/>
  </linearGradient>
  <path d="m47 24c0 22.703-.297 23-23 23-22.703 0-23-.297-23-23 0-22.703.297-23 23-23 22.703 0 23 .297 23 23z" fill="url(#a)"/>
  <g opacity=".1" transform="translate(1 1)">
    <path d="m12 13h6v6h-6m0-6"/>
    <path d="m21 13h6v6h-6m0-6"/>
    <path d="m30 13h6v6h-6m0-6"/>
    <path d="m21 21h6v6h-6m0-6"/>
    <path d="m21 29h6v5.996h-6m0-5.996"/>
  </g>
  <path d="m12 13h6v6h-6m0-6" fill="#1295d6"/>
  <path d="m21 13h6v6h-6m0-6" fill="#1295d6"/>
  <path d="m30 13h6v6h-6m0-6" fill="#1295d6"/>
  <path d="m21 21h6v6h-6m0-6" fill="#1295d6"/>
  <path d="m21 29h6v5.996h-6m0-5.996" fill="#1295d6"/>
</svg>
