<svg viewBox="0 0 48 48" xmlns="http://www.w3.org/2000/svg" xmlns:xlink="http://www.w3.org/1999/xlink">
  <linearGradient id="a" gradientTransform="matrix(0 -1 1 0 -.0000015 47.999998)" gradientUnits="userSpaceOnUse" x1="1" x2="47">
    <stop offset="0" stop-color="#e1412b"/>
    <stop offset="1" stop-color="#e3503c"/>
  </linearGradient>
  <path d="m47 24c0 22.703-.297 23-23 23-22.703 0-23-.297-23-23 0-22.703.297-23 23-23 22.703 0 23 .297 23 23z" fill="url(#a)"/>
  <path d="m14 13c-.554 0-1 .446-1 1v22c0 .554.446 1 1 1h22c .554 0 1-.446 1-1v-22c0-.554-.446-1-1-1-7.333 0-14.667 0-22 0zm10 2h2v11.09c1.197.212 2 .777 2 1.412 0 .635-.803 1.2-2 1.412v2.088h-2v-2.088c-1.197-.212-2-.777-2-1.412 0-.635.803-1.2 2-1.412zm-6 1h2v3.088c1.197.212 2 .777 2 1.412 0 .635-.803 1.2-2 1.412v8.09h-2v-8.09c-1.197-.212-2-.777-2-1.412 0-.635.803-1.2 2-1.412zm12 0h2v3.088c1.197.212 2 .777 2 1.412 0 .635-.803 1.2-2 1.412v8.09h-2v-8.09c-1.197-.212-2-.777-2-1.412 0-.635.803-1.2 2-1.412z" opacity=".1"/>
  <path d="m13 12c-.554 0-1 .446-1 1v19c3 1 21 1 24 0v-19c0-.554-.446-1-1-1zm10 2h2v11.09c1.197.212 2 .777 2 1.412 0 .635-.803 1.2-2 1.412v2.088h-2v-2.088c-1.197-.212-2-.777-2-1.412 0-.635.803-1.2 2-1.412zm-6 1h2v3.088c1.197.212 2 .777 2 1.412 0 .635-.803 1.2-2 1.412v8.09h-2v-8.09c-1.197-.212-2-.777-2-1.412 0-.635.803-1.2 2-1.412zm12 0h2v3.088c1.197.212 2 .777 2 1.412 0 .635-.803 1.2-2 1.412v8.09h-2v-8.09c-1.197-.212-2-.777-2-1.412 0-.635.803-1.2 2-1.412z" fill="#e1e1e1"/>
  <path d="m36 32v3c0 .554-.446 1-1 1h-22c-.554 0-1-.446-1-1v-3z" fill="#343434"/>
</svg>
