<svg viewBox="0 0 48 48" xmlns="http://www.w3.org/2000/svg" xmlns:xlink="http://www.w3.org/1999/xlink">
  <linearGradient id="a" gradientTransform="matrix(0 -1 1 0 -.000001 47.999998)" gradientUnits="userSpaceOnUse" x1="1" x2="47">
    <stop offset="0" stop-color="#e4e4e4"/>
    <stop offset="1" stop-color="#eee"/>
  </linearGradient>
  <path d="m24 1c22.703 0 23 .297 23 23 0 22.703-.297 23-23 23-22.703 0-23-.297-23-23 0-22.703.297-23 23-23" fill="url(#a)"/>
  <path d="m13 12.969v2.031h10l-7.846 19.867.277.084-.645.732 1.285 1.086 7.928-8.66v8.891h2v-11.08l2.631-2.873 5.295 12.18 1.605-.543-5.639-13.01 6.107-6.674h1v-2.031h-24zm14 2.031h6l-4.02 4.566-1.979-4.566m-3 2v8.221l-5.578 6.336zm2 0l1.732 3.982-1.732 1.967z" fill-opacity=".098"/>
  <path d="m14.15 33.868l7.847-19.868h4l8.531 19.687-1.606.543-7.925-18.23h-2l-7.06 18.412z" fill="#c9371b"/>
  <path d="m13.786 34.683l1.285 1.087 19.929-21.77h-3z" fill="#4dcb32"/>
  <path d="m33.705 35.544l1.239-1.132-18.944-20.412h-3z" fill="#4dcb32"/>
  <path d="m12 11.969v2.031h11v22h2v-22h11v-2.031z" fill="#1d8af3"/>
</svg>
