<svg viewBox="0 0 48 48" xmlns="http://www.w3.org/2000/svg" xmlns:xlink="http://www.w3.org/1999/xlink">
  <linearGradient id="a" gradientTransform="matrix(0 -1 1 0 -.0000015 47.999998)" gradientUnits="userSpaceOnUse" x1="1" x2="47">
    <stop offset="0" stop-color="#575757"/>
    <stop offset="1" stop-color="#616161"/>
  </linearGradient>
  <path d="m47 24c0 22.703-.297 23-23 23-22.703 0-23-.297-23-23 0-22.703.297-23 23-23 22.703 0 23 .297 23 23z" fill="url(#a)"/>
  <path d="m25 12c-1.112 0-2.212.195-3.281.563-1.073.367-2.028.863-2.875 1.5-.851.64-1.54 1.441-2.063 2.406-.519.965-.781 2.01-.781 3.125 0 1.75.602 3.254 1.813 4.531.528.551.965 1.039 1.313 1.469.344.425.679.977 1.031 1.625.346.641.539 1.227.594 1.781.017.001.034.017.051.027h-.037c-.551.317-.826.782-.826 1.391 0 .418.143.777.439 1.082-.293.305-.439.664-.439 1.082 0 .59.264 1.047.791 1.371-.157.262-.227.527-.227.797 0 .519.184.918.555 1.203.367.281.821.422 1.363.422.231.496.58.891 1.053 1.184.464.293.973.441 1.527.441.55 0 1.053-.148 1.525-.441.473-.293.825-.688 1.059-1.184.539 0 .987-.141 1.354-.422.371-.285.559-.683.559-1.203 0-.27-.077-.535-.229-.797.527-.324.787-.781.787-1.371 0-.418-.145-.777-.438-1.082.293-.305.438-.664.438-1.082 0-.61-.276-1.075-.822-1.391h-.051c.012-.001.026-.017.037-.027.051-.554.276-1.141.625-1.781.352-.648.683-1.199 1.031-1.625.348-.43.786-.918 1.313-1.469 1.207-1.277 1.813-2.781 1.813-4.531 0-1.121-.262-2.16-.781-3.125-.524-.965-1.211-1.765-2.063-2.406-.847-.637-1.802-1.133-2.875-1.5-1.069-.367-2.169-.563-3.281-.563z" opacity=".1" transform="matrix(1 0 0 1 -.00000001 -.0000001)"/>
  <g transform="scale(3.543307)">
    <path d="m24 11c-1.112 0-2.212.194-3.281.563-1.073.367-2.028.863-2.875 1.5-.851.64-1.54 1.441-2.063 2.406-.519.965-.781 2.01-.781 3.125 0 1.75.601 3.254 1.813 4.531.528.551.966 1.039 1.314 1.469.344.425.677.977 1.029 1.625.346.641.541 1.227.596 1.781l2.25 2h3.998l2.219-2c .051-.554.276-1.141.625-1.781.352-.648.683-1.199 1.031-1.625.348-.43.785-.918 1.313-1.469 1.207-1.277 1.814-2.781 1.814-4.531 0-1.121-.262-2.16-.781-3.125-.524-.965-1.212-1.765-2.064-2.406-.847-.637-1.802-1.133-2.875-1.5-1.069-.367-2.167-.563-3.279-.563" fill="#6d9db3" transform="scale(.28222223)"/>
    <path d="m6.209 7.902h1.129m.63.008c.154.089.232.22.232.393 0 .118-.041.219-.124.305.083.086.124.187.124.305 0 .167-.074.295-.223.387.043.074.065.149.065.225 0 .147-.053.259-.158.34-.104.079-.23.119-.382.119-.066.14-.165.251-.299.334-.133.083-.276.124-.431.124-.157 0-.3-.042-.431-.124-.133-.083-.232-.194-.298-.334-.153 0-.281-.04-.384-.119-.105-.08-.157-.193-.157-.34 0-.076.02-.151.064-.225-.149-.091-.224-.22-.224-.387 0-.118.042-.219.124-.305-.084-.086-.124-.187-.124-.305 0-.172.078-.303.234-.393" fill="#c6caca"/>
    <path d="m5.556 9.313c-.037.068-.053.142-.053.212 0 .025.006.048.009.071h2.523c0-.023.009-.046.009-.071 0-.07-.017-.143-.053-.212h-2.434z" fill="#dde5e5"/>
    <path d="m5.379 8.749c-.021.051-.035.109-.035.168 0 .042.008.078.018.115h2.822c.009-.037.018-.073.018-.115 0-.059-.015-.117-.035-.168h-2.787z" fill="#dde5e5"/>
    <path d="m5.362 8.184c-.001.038-.018.072-.018.115 0 .059.006.117.027.168h2.796c.021-.051.035-.109.035-.168 0-.043-.008-.077-.018-.115z" fill="#dde5e5"/>
    <path d="m26.1 11.238c-.336.241-.053 1.036.137.199.053-.016.165-.059.234-.119-.123-.032-.247-.053-.371-.08zm.906.24c-.606.453-1.244 1.01-1.84 1.635l.182-.486c-.821-1.021-2.717 1.621-1.266 1.541-.111-.758.266-.694.646-.557-1.019 1.172-1.829 2.476-1.91 3.602.741.373.629-1.872 2.129-.645-.688-.862-.011-.413.404-.226.353-.436.636-2.01 1.305-.949-.548.257-1.183 1.052-.123.98.248.885-1.369 1.079-1.98.713-1.523-.018-2.202 2.119-1.631 3.449.58 1.435 1.887.407 2.756.721 1.091 1.043.791 3.128 2.145 3.939 1.44.289 1.153-2.115 1.07-3.117-.542-1.04.7-2.454-.211-3.154-.55.171-1.63-.925-1.49-1.416.276 1.257 2.472 1.358 2.061-.225-.592-.059-1.645-.831-.42-.553 1.138-.372 2.035.781 2.609 1.357.178-.714.101-2.243 1.236-1.477-.039-.291-.325-.846-.454-1.142-.524-.965-1.212-1.765-2.064-2.406-.989-.685-2.01-1.251-3.154-1.584m-3.396.289c-.538.098-.179.886.289.008-.116-.021-.212-.022-.289-.008zm-2.684.832c-.415.137-.83.278-1.248.402-.916.352-.434.739-.475 1.152-.06.782.616 1.79.979.574.484-.844 1.973-1.832.744-2.128zm-2.164.754c-.532.041-2.057 1.347-.764.828.16-.179.292-.388.477-.539zm2.834.691c-.06-.033-.168.001-.338.174.272.628.518-.074.338-.174zm5.727.498c.568.184.701 1.561.018.668-.255-.106-.269-.548-.02-.664zm-9.566.084c-.135-.005-.266.008-.369.033l.004.002c.352.594.405 1.505 1.064.684.152-.519-.293-.702-.699-.719zm4.906.004c-.482.57.976 1.185.297.348-.115-.103-.198-.232-.297-.348zm-6.316.379c.104.774-.305.968-.832 1.045-.334.799-.51 1.645-.51 2.539 0 .958.187 1.84.549 2.654.257-.576.992-.963 1.512-.404-.227-1.371 1.077-2.539 1.311-3.639 1.645.444-.276-1.819-.99-.896-.168.549-.393 1.48-.977.654-.511-.955.832-.977.803-1.461-.153-.333-.531-.546-.865-.492zm6.16.275c-.199.14.18.447.152.121zm-6.557.096c-.022-.005-.087.006-.12.006-.074.124-.131.257-.191.369.268-.128.492-.331.311-.375zm8.242.854c-.283.168.278.689.143.188zm.545.428c-.186.129.279.364.223.111zm-8.356 1.27c.38-.037.773 1.123.219.604-.067.95-.641-.229-.379-.508.032-.056.118-.071.16-.096zm15.449.227c-.347.339.447.525.072.055zm-14.602 3.232c-.082.014-.182.047-.301.107l.002.002c.577.652.872-.208.299-.109zm12.639.504l-.119.039c-.661.366.249 2.249.271.834.016-.296.004-.615-.152-.873zm-13.59.188c-.08-.008-.162.009-.248.053.218.333.472.652.76.959.366.164 1.1.215 1.18.026-.712-.164-1.115-.74-1.692-1.037m2.404.505c-.241-.076-.457-.056-.621.08-.321.577-.304 1.059-.176 1.65.569.566.943 1.332 1.275 1.9.013.024.017.045.029.068.112.115.225.247.332.35.231.421.407.893.588 1.363h1.477c.22-1.394 1.081-2.994.26-4.256-1.036-.35-2.081-1.08-3.164-1.156z" fill="#9ace9a" transform="scale(.28222223)"/>
  </g>
</svg>
