<svg viewBox="0 0 48 48" xmlns="http://www.w3.org/2000/svg" xmlns:xlink="http://www.w3.org/1999/xlink">
  <linearGradient id="a" gradientUnits="userSpaceOnUse" x2="0" y1="47" y2="1">
    <stop offset="0" stop-color="#747474"/>
    <stop offset="1" stop-color="#7e7e7e"/>
  </linearGradient>
  <path d="m47 24c0 22.703-.297 23-23 23-22.703 0-23-.297-23-23 0-22.703.297-23 23-23 22.703 0 23 .297 23 23z" fill="url(#a)"/>
  <path d="m25 10c-8.262 0-15 6.738-15 15 0 8.262 6.738 15 15 15 8.262 0 15-6.738 15-15 0-8.262-6.738-15-15-15zm .002 4.252c.266 0 .525.001.783.029-.129.082-.246.186-.344.307-.387.469-.525 1.133-.564 1.852-.07 1.313.219 2.828.391 3.844-1.301-.289-2.77-1.496-3.41-2.75-.34-.66-.445-1.316-.246-1.852.203-.535.719-1 1.77-1.271.043-.008.078-.023.109-.051.496-.07 1-.107 1.512-.107zm7.736 4.643h.002.109c.57.027 1.172.379 1.75 1.293.016.02.031.039.051.055v.004c.324.656.586 1.355.773 2.082-.129-.105-.27-.191-.422-.25-.285-.105-.6-.141-.924-.125-.328.016-.668.078-1.016.176-1.246.348-2.566 1.09-3.477 1.574-.086-1.313.605-3.03 1.574-4 .496-.496 1.043-.797 1.578-.809zm-17.695 2.059c.043.156.105.3.191.438.324.512.91.855 1.582 1.113 1.23.473 2.77.66 3.785.813-.656 1.16-2.25 2.211-3.641 2.457-.73.129-1.389.04-1.842-.313-.449-.352-.744-.98-.693-2.066 0-.039-.008-.078-.027-.113.129-.809.344-1.586.645-2.328zm14.287 7.645h.004.002c.924-.022 1.895.159 2.641.525.668.332 1.145.795 1.301 1.346.156.547.02 1.23-.664 2.074-.023.027-.039.063-.047.102-.555.547-1.168 1.035-1.828 1.449.055-.145.086-.297.098-.453.035-.605-.238-1.223-.633-1.828-.715-1.098-1.84-2.152-2.574-2.875.486-.21 1.082-.323 1.701-.34zm-7.225.107c.852 1.01 1.309 2.811 1.098 4.174-.113.734-.41 1.328-.887 1.645-.48.313-1.168.387-2.18-.008-.047-.02-.098-.02-.148-.008-.648-.344-1.262-.75-1.828-1.215.184.016.359-.006.531-.053.59-.16 1.086-.617 1.531-1.184.805-1.023 1.438-2.422 1.883-3.352z" opacity=".1" transform=""/>
  <path d="m22.324 13.188c-2.805.313-5.918 2.074-7.82 5.367-1.527 2.84 3.438 3.254 5.449 3.582.926-1.965 2.77-2.734 4.504-2.582-2.918-.414-6.52-5.242-2.133-6.367m3.406.047c-2.488.063-1.469 4.445-1.18 6.332 2.152.277 3.457 1.793 3.844 3.492-.504-2.906 2.977-7.82 5.402-3.996-1.164-2.57-3.797-4.988-7.52-5.781-.199-.039-.379-.055-.547-.047m-1.727 6.328c-2.453 0-4.438 1.984-4.438 4.438 0 .516.086 1.012.246 1.469-.391-1.082-.313-2.234.098-3.242-1.254 2.668-6.93 4.684-6.715.16-.527 2.773.234 6.266 2.824 9.05 2.254 2.293 4.117-2.301 5.02-4.133.008.008.02.016.027.023 2.109 2.059 2.188 8.05-2.02 6.398 2.457 1.391 6.02 1.793 9.484.238 2.906-1.402-.875-4.652-2.313-6.094-1.219.668-2.457.719-3.535.371.418.129.859.199 1.316.199 2.457 0 4.445-1.992 4.445-4.445 0-2.453-1.988-4.438-4.445-4.438m9.25 1.617c-.055 0-.109 0-.168.004-1.512.07-3.59 1.316-4.723 1.902.426 2.129-.594 3.852-2.078 4.762 2.59-1.406 8.363.32 5.512 3.84 2.066-1.922 3.516-5.195 3.078-8.973-.164-1.121-.793-1.527-1.621-1.535m0 0" fill="#f9f9f9"/>
  <path d="m24 9c-8.262 0-15 6.738-15 15 0 8.262 6.738 15 15 15 8.262 0 15-6.738 15-15 0-8.262-6.738-15-15-15m0 3.789c6.215 0 11.211 4.996 11.211 11.211 0 6.215-4.996 11.211-11.211 11.211-6.215 0-11.211-4.996-11.211-11.211 0-6.215 4.996-11.211 11.211-11.211m0 0" fill="#2d2d2d"/>
  <path d="m24 12.777c-1.449 0-2.836.277-4.109.781-.031.012-.059.023-.086.035-.07.027-.145.055-.215.086-.063.027-.125.055-.184.082-.012.004-.02.012-.031.016-.035.016-.074.031-.113.051-.043.016-.082.039-.121.059-.063.027-.125.059-.188.09-.02.012-.039.02-.059.027-.059.031-.117.063-.176.094-.02.012-.043.023-.063.035-.07.035-.133.074-.203.113-3.387 1.93-5.672 5.578-5.672 9.754 0 6.195 5.02 11.223 11.219 11.223 6.199 0 11.227-5.03 11.227-11.223 0-2.258-.668-4.359-1.816-6.121-.703-1.125-1.684-2.176-2.91-3.03-.051-.035-.098-.07-.148-.102-.023-.02-.051-.035-.074-.051-1.793-1.211-3.953-1.918-6.277-1.918m0 .473c.266 0 .527.012.785.031-.129.082-.246.184-.344.305-.387.469-.527 1.133-.566 1.852-.07 1.313.219 2.828.391 3.844-1.301-.289-2.77-1.496-3.41-2.75-.34-.66-.445-1.316-.246-1.852.203-.535.719-1 1.77-1.27.043-.008.078-.023.109-.051.496-.07 1-.109 1.512-.109m1.734.211c.148-.004.313.012.5.047 1.246.266 2.363.719 3.344 1.301.023.012.047.027.07.043.051.031.102.063.152.094.004 0 .008.004.012.004.066.047.133.09.203.137 1.043.703 1.953 1.59 2.691 2.605-.277-.145-.559-.246-.844-.258-.746-.039-1.449.352-2.031.938-.863.863-1.5 2.168-1.672 3.418-.637-1.199-1.789-2.152-3.41-2.418-.164-1.031-.48-2.621-.414-3.906.035-.672.184-1.242.465-1.582.215-.258.496-.418.938-.422m-5.04.32c-.23.219-.414.465-.52.734-.262.703-.109 1.488.266 2.227.555 1.082 1.598 2.09 2.734 2.641-1.336.234-2.598 1.043-3.348 2.5-1.031-.16-2.645-.348-3.848-.809-.629-.242-1.121-.559-1.359-.934-.238-.371-.273-.813.082-1.469 0-.004 0-.004 0-.004 0 0 0-.004 0-.004 1.07-1.848 2.523-3.191 4.082-4.063.02-.012.035-.02.055-.031.059-.035.121-.063.184-.098.07-.035.137-.07.207-.105.07-.035.141-.066.207-.102.051-.02.094-.043.141-.063.023-.012.047-.02.066-.031.141-.059.277-.121.418-.172.211-.082.422-.156.633-.219m11.04 4.113c.039 0 .074 0 .109 0 .57.027 1.172.379 1.75 1.293.016.02.031.039.051.055 0 0 0 0 0 .004.324.656.586 1.355.773 2.082-.129-.105-.27-.191-.422-.25-.285-.105-.598-.141-.922-.125-.328.016-.668.078-1.016.176-1.246.348-2.566 1.09-3.477 1.574-.086-1.313.605-3.03 1.574-4 .496-.496 1.043-.797 1.578-.809m-7.777 1.871c.156 0 .313.004.465.016.008 0 .012 0 .016 0 .008.004.02.004.031 0 .016.008.031.012.047.016 2.02.258 3.23 1.637 3.625 3.211-.012.039-.016.082-.008.125.406 2.031-.555 3.645-1.961 4.512 0 0-.004 0-.004 0-.02.008-.039.016-.055.027-1.805.988-3.617.566-4.871-.5-.012-.016-.023-.035-.039-.047-1.527-1.402-1.707-3.266-1.086-4.801 0-.004.004-.008.004-.012.004-.008.008-.02.008-.031.012-.016.023-.031.027-.047.805-1.695 2.301-2.445 3.801-2.469m-9.918.188c.043.156.105.301.191.438.324.512.91.855 1.582 1.113 1.23.473 2.77.66 3.785.813-.656 1.16-2.25 2.211-3.641 2.457-.73.129-1.387.039-1.84-.313-.449-.352-.746-.98-.695-2.066 0-.039-.008-.078-.027-.113.129-.809.344-1.586.645-2.328m19.258 1.461c.195.004.379.039.531.098.414.156.707.492.813 1.23.004 0 0 .004 0 .008.344 2.965-.516 5.594-1.898 7.488.051-.316.059-.617-.023-.895-.203-.723-.797-1.266-1.539-1.633-1.09-.539-2.527-.727-3.766-.492.934-.984 1.461-2.383 1.195-4 .922-.488 2.332-1.297 3.574-1.641.324-.094.629-.148.91-.16.07-.004.137-.008.203-.004m-13.93 1.984c-.168 1.348.23 2.789 1.402 3.938-.457.938-1.113 2.422-1.91 3.434-.418.527-.863.91-1.293 1.027-.426.117-.855.02-1.379-.512-.004 0-.004 0-.004-.004 0 0-.004 0-.004 0-2.027-2.191-2.891-4.816-2.895-7.164.141.285.32.531.547.711.594.457 1.391.547 2.207.402 1.199-.211 2.469-.91 3.328-1.832m8.961 4.199c.926-.023 1.898.16 2.645.527.668.332 1.145.793 1.301 1.344.156.547.02 1.23-.664 2.074-.023.027-.039.063-.047.102-.555.547-1.168 1.035-1.828 1.449.055-.145.086-.297.098-.453.035-.605-.238-1.223-.633-1.828-.715-1.098-1.84-2.152-2.574-2.875.488-.211 1.086-.324 1.707-.34m-7.23.109c.852 1.01 1.309 2.809 1.098 4.172-.113.734-.41 1.328-.887 1.645-.48.313-1.168.387-2.18-.008-.047-.02-.098-.02-.148-.008-.648-.344-1.262-.75-1.828-1.215.184.016.359-.004.531-.051.59-.16 1.086-.617 1.531-1.184.805-1.023 1.438-2.422 1.883-3.352m5.07.441c.738.734 1.938 1.836 2.641 2.914.367.566.582 1.109.555 1.551-.027.441-.258.82-.93 1.145 0 0-.004 0-.004.004-2.727 1.219-5.496 1.191-7.719.441.316-.047.609-.133.852-.293.625-.41.965-1.141 1.094-1.957.184-1.203-.07-2.633-.668-3.742 1.223.594 2.715.68 4.18-.063m0 0" fill="#b2b2b2"/>
</svg>
