<svg xmlns="http://www.w3.org/2000/svg" viewBox="0 0 48 48">
 <defs>
  <linearGradient id="linearGradient3764" x1="1" x2="47" gradientUnits="userSpaceOnUse" gradientTransform="matrix(0,-1,1,0,-1.5e-6,47.999998)">
   <stop style="stop-color:#18cbe0;stop-opacity:1"/>
   <stop offset="1" style="stop-color:#25d3e8;stop-opacity:1"/>
  </linearGradient>
  <linearGradient id="linear0" gradientUnits="userSpaceOnUse" x1="-26.468" y1="66.3" x2="-176.39" y2="2.033" gradientTransform="matrix(0.189487,0,0,0.18661,38.746625,18.717954)">
   <stop style="stop-color:#e31200;stop-opacity:1"/>
   <stop offset="1" style="stop-color:#faa300;stop-opacity:1"/>
  </linearGradient>
 </defs>
 <g>
  
  
  
 </g>
 <g>
  <path d="m 47,24 C 47,46.703 46.703,47 24,47 1.297,47 1,46.703 1,24 1,1.297 1.297,1 24,1 46.703,1 47,1.297 47,24 z" style="fill:url(#linearGradient3764);fill-opacity:1"/>
 </g>
 <g>
  <g>
   <g transform="translate(1,1)">
    <g style="opacity:0.1">
     <!-- color: #25d3e8 -->
     <g>
      <path d="m 18.973 17.895 c -14.04 12.75 5.05 25.813 15.184 12.598 c 6.645 -12.27 -6.172 -22.02 -15.184 -12.598 m 0 0" style="fill:#000;stroke:none;fill-rule:nonzero"/>
      <path d="m 18.246 19.17 c -2.02 2.508 -1.836 5.391 -1.543 8.09 c 0.27 -2.488 1.234 -4.906 1.852 -7.48 c -0.438 3.785 0.125 5.48 0.883 7.703 c -0.086 -3.059 -0.18 -5.629 0.539 -9.184 c 3.598 -0.531 7.461 -0.379 10.559 1.02 c -2.172 -1.555 -3.145 -3.453 -8.477 -2.844 m -3.813 2.691" style="fill:#000;fill-opacity:1;stroke:none;fill-rule:nonzero"/>
      <path d="m 13.465 18.945 c 0 0 1.965 0.57 1.965 0.418 c -0.672 -1.305 -1.117 -3.395 -0.746 -3.305 c 0.617 0.148 0.422 1.609 1.789 2.434 c -0.023 -0.695 -0.09 -1.391 -0.309 -2.086 l 2.199 1.48 c -0.477 -0.961 -0.492 -1.813 -2.973 -2.313 c -0.449 -0.672 -0.977 -1.152 -1.578 -1.445 l -1.813 -0.039 l 0.578 -1.367 c 0.949 -0.16 1.398 -0.023 1.813 0.531 c 2 0.113 2.313 0.762 2.543 1.484 c 1.426 0.289 1.809 1.109 2.695 2.01 c -0.141 -1.328 -0.629 -2.621 -1.461 -3.988 c 1.191 0.645 2.156 1.367 2.891 2.395 l -0.465 -3.145 c 3.641 2.602 2.688 4.102 -0.387 7.086 c -3.543 2.332 -5.707 1.438 -6.742 -0.152 m 0 0.008" style="fill:#000;fill-opacity:1;stroke:none;fill-rule:nonzero"/>
     </g>
    </g>
   </g>
  </g>
 </g>
 <g>
  <g>
   <!-- color: #25d3e8 -->
   <g>
    <path d="m 18.973 17.895 c -14.04 12.75 5.05 25.813 15.184 12.598 6.645 -12.27 -6.172 -22.02 -15.184 -12.598 m 0 0" style="fill:url(#linear0);stroke:none;fill-rule:nonzero"/>
    <path d="m 23.484 19.25 c 0.008 0.914 -0.488 1.762 -1.305 2.223 -0.813 0.457 -1.82 0.457 -2.633 0 -0.816 -0.461 -1.313 -1.309 -1.305 -2.223 -0.008 -0.914 0.488 -1.762 1.305 -2.223 0.813 -0.461 1.82 -0.461 2.633 0 0.816 0.461 1.313 1.309 1.305 2.223 m 0 0" style="fill:#fbd678;fill-opacity:1;stroke:none;fill-rule:nonzero"/>
    <path d="m 18.246 19.17 c -2.02 2.508 -1.836 5.391 -1.543 8.09 0.27 -2.488 1.234 -4.906 1.852 -7.48 -0.438 3.785 0.125 5.48 0.883 7.703 -0.086 -3.059 -0.18 -5.629 0.539 -9.184 3.598 -0.531 7.461 -0.379 10.559 1.02 -2.172 -1.555 -3.145 -3.453 -8.477 -2.844 m -3.813 2.691" style="fill:#b90303;fill-opacity:1;stroke:none;fill-rule:nonzero"/>
    <path d="m 13.465,18.945 c 0,0 1.965,0.57 1.965,0.418 -0.672,-1.305 -1.117,-3.395 -0.746,-3.305 0.617,0.148 0.422,1.609 1.789,2.434 -0.023,-0.695 -0.09,-1.391 -0.309,-2.086 l 2.199,1.48 C 17.886,16.925 17.871,16.073 15.39,15.573 14.941,14.901 14.413,14.421 13.812,14.128 l -1.813,-0.039 0.578,-1.367 c 0.949,-0.16 1.398,-0.023 1.813,0.531 2,0.113 2.313,0.762 2.543,1.484 1.426,0.289 1.809,1.109 2.695,2.01 -0.141,-1.328 -0.629,-2.621 -1.461,-3.988 1.191,0.645 2.156,1.367 2.891,2.395 l -0.465,-3.145 c 3.641,2.602 2.688,4.102 -0.387,7.086 -3.543,2.332 -5.707,1.438 -6.742,-0.152 m 0,0.008" style="fill:#093b0f;fill-opacity:1;stroke:none;fill-rule:nonzero"/>
   </g>
  </g>
 </g>
 <g>
  
 </g>
</svg>
