<svg viewBox="0 0 48 48" xmlns="http://www.w3.org/2000/svg" xmlns:xlink="http://www.w3.org/1999/xlink">
  <linearGradient id="a" gradientTransform="matrix(0 -1 1 0 -.0000015 47.999998)" gradientUnits="userSpaceOnUse" x1="1" x2="47">
    <stop offset="0" stop-color="#18cbe0"/>
    <stop offset="1" stop-color="#25d3e8"/>
  </linearGradient>
  <linearGradient id="b" gradientTransform="matrix(.189487 0 0 .18661 38.746625 18.717954)" gradientUnits="userSpaceOnUse" x1="-26.468" x2="-176.39" y1="66.3" y2="2.033">
    <stop offset="0" stop-color="#e31200"/>
    <stop offset="1" stop-color="#faa300"/>
  </linearGradient>
  <path d="m47 24c0 22.703-.297 23-23 23-22.703 0-23-.297-23-23 0-22.703.297-23 23-23 22.703 0 23 .297 23 23z" fill="url(#a)"/>
  <g opacity=".1" transform="translate(1 1)">
    <path d="m18.973 17.895c-14.04 12.75 5.05 25.813 15.184 12.598 6.645-12.27-6.172-22.02-15.184-12.598m0 0"/>
    <path d="m18.246 19.17c-2.02 2.508-1.836 5.391-1.543 8.09.27-2.488 1.234-4.906 1.852-7.48-.438 3.785.125 5.48.883 7.703-.086-3.059-.18-5.629.539-9.184 3.598-.531 7.461-.379 10.559 1.02-2.172-1.555-3.145-3.453-8.477-2.844m-3.813 2.691"/>
    <path d="m13.465 18.945c0 0 1.965.57 1.965.418-.672-1.305-1.117-3.395-.746-3.305.617.148.422 1.609 1.789 2.434-.023-.695-.09-1.391-.309-2.086l2.199 1.48c-.477-.961-.492-1.813-2.973-2.313-.449-.672-.977-1.152-1.578-1.445l-1.813-.039.578-1.367c.949-.16 1.398-.023 1.813.531 2 .113 2.313.762 2.543 1.484 1.426.289 1.809 1.109 2.695 2.01-.141-1.328-.629-2.621-1.461-3.988 1.191.645 2.156 1.367 2.891 2.395l-.465-3.145c3.641 2.602 2.688 4.102-.387 7.086-3.543 2.332-5.707 1.438-6.742-.152m0 .008"/>
  </g>
  <path d="m18.973 17.895c-14.04 12.75 5.05 25.813 15.184 12.598 6.645-12.27-6.172-22.02-15.184-12.598m0 0" fill="url(#b)"/>
  <path d="m23.484 19.25c.008.914-.488 1.762-1.305 2.223-.813.457-1.82.457-2.633 0-.816-.461-1.313-1.309-1.305-2.223-.008-.914.488-1.762 1.305-2.223.813-.461 1.82-.461 2.633 0 .816.461 1.313 1.309 1.305 2.223m0 0" fill="#fbd678"/>
  <path d="m18.246 19.17c-2.02 2.508-1.836 5.391-1.543 8.09.27-2.488 1.234-4.906 1.852-7.48-.438 3.785.125 5.48.883 7.703-.086-3.059-.18-5.629.539-9.184 3.598-.531 7.461-.379 10.559 1.02-2.172-1.555-3.145-3.453-8.477-2.844m-3.813 2.691" fill="#b90303"/>
  <path d="m13.465 18.945c0 0 1.965.57 1.965.418-.672-1.305-1.117-3.395-.746-3.305.617.148.422 1.609 1.789 2.434-.023-.695-.09-1.391-.309-2.086l2.199 1.48c-.477-.961-.492-1.813-2.973-2.313-.449-.672-.977-1.152-1.578-1.445l-1.813-.039.578-1.367c.949-.16 1.398-.023 1.813.531 2 .113 2.313.762 2.543 1.484 1.426.289 1.809 1.109 2.695 2.01-.141-1.328-.629-2.621-1.461-3.988 1.191.645 2.156 1.367 2.891 2.395l-.465-3.145c3.641 2.602 2.688 4.102-.387 7.086-3.543 2.332-5.707 1.438-6.742-.152m0 .008" fill="#093b0f"/>
</svg>
