<svg viewBox="0 0 48 48" xmlns="http://www.w3.org/2000/svg" xmlns:xlink="http://www.w3.org/1999/xlink">
  <linearGradient id="a" gradientTransform="matrix(0 -1 1 0 -.0000015 47.999998)" gradientUnits="userSpaceOnUse" x1="1" x2="47">
    <stop offset="0" stop-color="#08982b"/>
    <stop offset="1" stop-color="#09ab30"/>
  </linearGradient>
  <path d="m47 24c0 22.703-.297 23-23 23-22.703 0-23-.297-23-23 0-22.703.297-23 23-23 22.703 0 23 .297 23 23z" fill="url(#a)"/>
  <path d="m14.875 12c-.492 0-.875.383-.875.875v24.25c0 .492.383.875.875.875h20.25c.492 0 .875-.383.875-.875v-19.12l-6-6z" opacity=".1"/>
  <g transform="scale(3.543307)">
    <path d="m4.198 3.104c-.139 0-.247.108-.247.247v6.844c0 .139.108.247.247.247h5.151c.139 0 .247-.108.247-.247v-5.398l-1.693-1.693" fill="#e8e8d9"/>
    <path d="m7.902 3.104v1.693h1.693" fill="#fff"/>
    <path d="m9.596 6.491v-1.693h-1.693" fill-opacity=".2"/>
  </g>
  <circle cx="24" cy="26" fill="#909090" r="6"/>
  <path d="m16 24h3v4h-3z" fill="#909090"/>
  <path d="m29 24h3v4h-3z" fill="#909090"/>
  <path d="m-21 22h3v4h-3z" fill="#909090" transform="rotate(-90)"/>
  <path d="m-34 22h3v4h-3z" fill="#909090" transform="rotate(-90)"/>
  <g transform="scale(3.543307)">
    <path d="m13.875 10.998c-.493 0-.875.382-.875.875v24.25c0 .493.382.877.875.877h20.25c.493 0 .875-.384.875-.877v-19.12l-5.998-6h-15.13z" fill="#e8e8d9" transform="scale(.28222223)"/>
    <path d="m8.184 3.104v1.693h1.693" fill="#fff"/>
    <path d="m9.878 6.491v-1.693h-1.693" fill-opacity=".2"/>
  </g>
  <path d="m24 18c-4.418 0-8 3.582-8 8 .001 1.695.545 3.345 1.547 4.713-.351-.834-.547-1.751-.547-2.713 0-3.854 3.159-7 7-7 .276 0 .5.224.5.5 0 .276-.224.5-.5.5-3.314 0-6 2.686-6 6 0 3.314 2.686 6 6 6 1.348-.001 2.674-.347 3.854-1h-3.854c-2.761 0-5-2.239-5-5 0-2.761 2.239-5 5-5 .291 0 .584.01.867.076.801.186.613 1.163-.174.988-.227-.05-.461-.064-.693-.064-2.209-.001-4 1.791-4 4 0 2.209 1.791 4 4 4h5.277c.348-.305.669-.64.959-1h-6.236c-1.657 0-3-1.343-3-3 0-1.657 1.343-3 3-3 .526 0 1.055.12 1.498.404.596.382.074 1.203-.498.865-.302-.178-.649-.269-1-.27-1.105 0-2 .895-2 2 0 1.105.895 2 2 2h6.92c.705-1.215 1.079-2.595 1.08-4 .002-4.418-3.582-8-8-8z" fill="#808080"/>
</svg>
