<svg xmlns="http://www.w3.org/2000/svg" viewBox="0 0 48 48">
 <defs>
  <linearGradient id="linearGradient3764" x1="1" x2="47" gradientUnits="userSpaceOnUse" gradientTransform="matrix(0,-1,1,0,-1.5e-6,47.999998)">
   <stop style="stop-color:#5b5b5b;stop-opacity:1"/>
   <stop offset="1" style="stop-color:#656565;stop-opacity:1"/>
  </linearGradient>
 </defs>
 <g>
  
  
  
 </g>
 <g>
  <path d="m 47,24 C 47,46.703 46.703,47 24,47 1.297,47 1,46.703 1,24 1,1.297 1.297,1 24,1 46.703,1 47,1.297 47,24 z" style="fill:url(#linearGradient3764);fill-opacity:1"/>
 </g>
 <g>
  <g>
   <!-- color: #656565 -->
   <g>
    <path d="m 19.215 13 c -3.42 0 -6.207 2.784 -6.207 6.207 l 0 7.793 -0.008 0 0 2 0.008 0 0 1.771 c 0 3.423 2.786 6.215 6.207 6.215 l 11.564 0 c 3.424 0 6.221 -2.791 6.221 -6.215 l 0 -11.564 c 0 -3.424 -2.798 -6.207 -6.221 -6.207 l -11.564 0 z m 0 1.799 11.564 0 c 2.452 0 4.414 1.957 4.414 4.408 l 0 7.793 -20.381 0 0 -7.793 c 0 -2.452 1.954 -4.408 4.402 -4.408 z m -4.402 14.201 9.188 0 0 6.188 -4.785 0 c -2.447 0 -4.402 -1.964 -4.402 -4.416 l 0 -1.771 z m 11.184 0 9.197 0 0 1.771 c 0 2.451 -1.963 4.416 -4.414 4.416 l -4.783 0 0 -6.188 z" mix-blend-mode="normal" isolation="auto" white-space="normal" solid-opacity="1" solid-color="#000000" style="visibility:visible;shape-rendering:auto;color-interpolation-filters:linearRGB;fill:#000;opacity:1;image-rendering:auto;fill-opacity:0.098;stroke:none;display:inline;color:#000;fill-rule:nonzero;color-rendering:auto;color-interpolation:sRGB"/>
    <path d="m 18.215 12 c -3.42 0 -6.208 2.785 -6.208 6.208 l 0 11.564 c 0 3.423 2.787 6.215 6.208 6.215 l 11.564 0 c 3.424 0 6.222 -2.791 6.222 -6.215 l 0 -11.564 c 0 -3.424 -2.799 -6.208 -6.222 -6.208 l -11.564 0 z m 0 1.799 11.564 0 c 2.452 0 4.415 1.958 4.415 4.408 l 0 11.564 c 0 2.451 -1.964 4.415 -4.415 4.415 l -11.564 0 c -2.447 0 -4.401 -1.963 -4.401 -4.415 l 0 -11.564 c 0 -2.452 1.953 -4.408 4.401 -4.408 z" mix-blend-mode="normal" isolation="auto" white-space="normal" solid-opacity="1" solid-color="#000000" style="visibility:visible;shape-rendering:auto;color-interpolation-filters:linearRGB;fill:#f9f9f9;opacity:1;image-rendering:auto;fill-opacity:1;stroke:none;display:inline;color:#000;fill-rule:nonzero;color-rendering:auto;color-interpolation:sRGB"/>
    <path d="m 13 26 22 0 0 2 -22 0 m 0 -2" style="fill:#f9f9f9;fill-opacity:1;stroke:none;fill-rule:nonzero"/>
    <path d="m 23 35 l 0 -8 l 1.996 0 l 0 8 m -1.996 0" style="fill:#f9f9f9;fill-opacity:1;stroke:none;fill-rule:nonzero"/>
   </g>
  </g>
 </g>
 <g>
  
 </g>
</svg>
