<svg viewBox="0 0 48 48" xmlns="http://www.w3.org/2000/svg" xmlns:xlink="http://www.w3.org/1999/xlink">
  <linearGradient id="a" gradientTransform="matrix(0 -1 1 0 -.0000015 47.999998)" gradientUnits="userSpaceOnUse" x1="1" x2="47">
    <stop offset="0" stop-color="#e4e4e4"/>
    <stop offset="1" stop-color="#eee"/>
  </linearGradient>
  <path d="m47 24c0 22.703-.297 23-23 23-22.703 0-23-.297-23-23 0-22.703.297-23 23-23 22.703 0 23 .297 23 23z" fill="url(#a)"/>
  <g opacity=".1" transform="translate(1 1)">
    <path d="m24.03 13c-1.07 0-2.125.133-3.125.406l6.313 3.938c.063.027.125.063.188.094.523.246 1.02.551 1.469.906.055.043.105.082.156.125l6.844 4.219 1.125-4-2.438.938c-1.828-4.02-5.922-6.625-10.531-6.625m-7.03 2.313c-1.633 1.207-2.949 2.82-3.719 4.719l3.594 1.352c.035-.094.086-.164.125-.25m0-5.816"/>
    <path d="m13.03 22.438l-2.031 6.781 2.469-.906c.777 1.742 2.01 3.219 3.531 4.344v-8.06l-3.969-2.156m19.75 4.871l-11.563 7.344c.895.223 1.852.344 2.813.344 4.734 0 8.93-2.73 10.688-6.938m-1.938-.75"/>
    <path d="m19 14v19.996094l14.996094-9.996094m-14.996094-10"/>
  </g>
  <path d="m24.03 13c-1.07 0-2.125.133-3.125.406l6.313 3.938c.063.027.125.063.188.094.523.246 1.02.551 1.469.906.055.043.105.082.156.125l6.844 4.219 1.125-4-2.438.938c-1.828-4.02-5.922-6.625-10.531-6.625m-7.03 2.313c-1.633 1.207-2.949 2.82-3.719 4.719l3.594 1.352c.035-.094.086-.164.125-.25m0-5.816" fill="#048dc0"/>
  <path d="m13.03 22.438l-2.031 6.781 2.469-.906c.777 1.742 2.01 3.219 3.531 4.344v-8.06l-3.969-2.156m19.75 4.871l-11.563 7.344c.895.223 1.852.344 2.813.344 4.734 0 8.93-2.73 10.688-6.938m-1.938-.75" fill="#ea3653"/>
  <path d="m19 14v19.996094l14.996094-9.996094m-14.996094-10" fill="#1f1f1f"/>
</svg>
