<svg viewBox="0 0 48 48" xmlns="http://www.w3.org/2000/svg" xmlns:xlink="http://www.w3.org/1999/xlink">
  <linearGradient id="a" gradientTransform="matrix(0 -1 1 0 -.0000015 47.999998)" gradientUnits="userSpaceOnUse" x1="1" x2="47">
    <stop offset="0" stop-color="#366"/>
    <stop offset="1" stop-color="#397373"/>
  </linearGradient>
  <path d="m47 24c0 22.703-.297 23-23 23-22.703 0-23-.297-23-23 0-22.703.297-23 23-23 22.703 0 23 .297 23 23z" fill="url(#a)"/>
  <path d="m13 13v6h2v16h4v-2h-2v-6h2v-2h-2v-6h2v-6zm8 10v6h6v-6zm8 2v2h8v-2zm-7.998 6v6h6v-6zm7.998 2v2h8v-2z" opacity=".1"/>
  <path d="m12 12v6h2v16h4v-2h-2v-6h2v-2h-2v-6h2v-6zm8 10v6h6v-6zm8 2v2h8v-2zm-7.998 6v6h6v-6zm7.998 2v2h8v-2z" fill="#39e7a1"/>
</svg>
