<svg viewBox="0 0 48 48" xmlns="http://www.w3.org/2000/svg" xmlns:xlink="http://www.w3.org/1999/xlink">
  <linearGradient id="a" gradientTransform="matrix(0 -1 1 0 -.0000015 47.999998)" gradientUnits="userSpaceOnUse" x1="1" x2="47">
    <stop offset="0" stop-color="#eb4545"/>
    <stop offset="1" stop-color="#ed5656"/>
  </linearGradient>
  <path d="m47 24c0 22.703-.297 23-23 23-22.703 0-23-.297-23-23 0-22.703.297-23 23-23 22.703 0 23 .297 23 23z" fill="url(#a)"/>
  <path d="m22.516 12c-1.191.023-2.313.605-2.891 1.574-.355.605-.508 1.633-.34 2.367.207.934.832 1.711 1.715 2.125.66.305 1.035.383 1.754.359.535-.023.672-.047 1.328-.262 1.137-.375 1.281-.375 1.918.02 1.172.711 2.172.742 3.184.078.395-.254.785-.723.961-1.152.18-.426.188-1.188.008-1.684-.316-.871-1.105-1.48-2.125-1.637-.258-.043-.461-.035-.855.027-.566.086-1.059.063-1.313-.066-.086-.039-.453-.348-.82-.684-.691-.629-1-.824-1.551-.957-.281-.07-.574-.105-.855-.109-.039 0-.078 0-.113 0m4.527 8.246c-.547 0-1.23 0-2.098 0-2.32 0-4.109.023-4.207.055-.352.098-.359.125-.398 2.602-.035 1.965-.051 2.301-.156 2.871-.379 2.051-1.246 3.906-2.875 6.164-.32.441-.633.902-.699 1.023l-.105.215.184.367c.434.871 1.727 2.324 2.164 2.457h.117c.34-.102 1.344-.949 2.102-1.789 1.867-2.07 2.98-4.156 3.719-6.965.238-.914.344-1.129.559-1.152.133-.016.164.012.258.203.051.125.199.688.324 1.258.27 1.25.379 1.672.586 2.25.52 1.457 1.176 2.691 1.418 2.691.145 0 .785-.246 1.301-.496 1.152-.563 2.27-1.371 2.27-1.641 0-.063-.086-.254-.195-.426-1.242-1.969-1.77-4.133-1.855-7.605-.031-1.352-.051-1.57-.137-1.742-.051-.109-.152-.23-.215-.273-.066-.047-.418-.07-2.051-.074m0 .004" opacity=".1" transform="translate(1 1)"/>
  <path d="m22.516 12c-1.191.023-2.313.605-2.891 1.574-.355.605-.508 1.633-.34 2.367.207.934.832 1.711 1.715 2.125.66.305 1.035.383 1.754.359.535-.023.672-.047 1.328-.262 1.137-.375 1.281-.375 1.918.02 1.172.711 2.172.742 3.184.078.395-.254.785-.723.961-1.152.18-.426.188-1.188.008-1.684-.316-.871-1.105-1.48-2.125-1.637-.258-.043-.461-.035-.855.027-.566.086-1.059.063-1.313-.066-.086-.039-.453-.348-.82-.684-.691-.629-1-.824-1.551-.957-.281-.07-.574-.105-.855-.109-.039 0-.078 0-.113 0m4.527 8.246c-.547 0-1.23 0-2.098 0-2.32 0-4.109.023-4.207.055-.352.098-.359.125-.398 2.602-.035 1.965-.051 2.301-.156 2.871-.379 2.051-1.246 3.906-2.875 6.164-.32.441-.633.902-.699 1.023l-.105.215.184.367c.434.871 1.727 2.324 2.164 2.457h.117c.34-.102 1.344-.949 2.102-1.789 1.867-2.07 2.98-4.156 3.719-6.965.238-.914.344-1.129.559-1.152.133-.016.164.012.258.203.051.125.199.688.324 1.258.27 1.25.379 1.672.586 2.25.52 1.457 1.176 2.691 1.418 2.691.145 0 .785-.246 1.301-.496 1.152-.563 2.27-1.371 2.27-1.641 0-.063-.086-.254-.195-.426-1.242-1.969-1.77-4.133-1.855-7.605-.031-1.352-.051-1.57-.137-1.742-.051-.109-.152-.23-.215-.273-.066-.047-.418-.07-2.051-.074m0 .004" fill="#f9f9f9"/>
</svg>
