<svg viewBox="0 0 48 48" xmlns="http://www.w3.org/2000/svg" xmlns:xlink="http://www.w3.org/1999/xlink">
  <linearGradient id="a" gradientTransform="matrix(0 -1 1 0 -.0000015 47.999998)" gradientUnits="userSpaceOnUse" x1="1" x2="47">
    <stop offset="0" stop-color="#ecb200"/>
    <stop offset="1" stop-color="#ffbf00"/>
  </linearGradient>
  <path d="m47 24c0 22.703-.297 23-23 23-22.703 0-23-.297-23-23 0-22.703.297-23 23-23 22.703 0 23 .297 23 23z" fill="url(#a)"/>
  <path d="m28.11 35.68c-2.84-.766-5.01-2.391-6.223-4.66-.613-1.145-.691-1.559-.695-3.695-.004-2.715.23-2.441-2.418-2.785-1.652-.211-4.074-1.41-5.516-2.727-3.824-3.5-2.629-8.484 2.281-9.516 3.336-.699 6.277-.086 8.08 1.684 1.734 1.699 2.145 3.633 1.355 6.555-.211.781-.379 1.527-.379 1.66 0 .133.711.238 1.578.242 4.684.012 8.441 1.879 10.03 4.984 1.301 2.547.992 4.957-.863 6.773-1.727 1.695-4.426 2.246-7.234 1.488m5.285-3.582c1.316-.66 1.926-1.727 1.742-3.066-.074-.543-.316-1.16-.531-1.375-.363-.355-.398-.34-.398.18 0 .316-.172.93-.383 1.363-1.203 2.484-6.105 2.25-7.879-.379-.598-.883-.641-1.117-.5-2.719l.148-1.758-.777.152c-.43.082-.949.152-1.16.152-.566 0-.27 3.32.414 4.637 1.559 2.992 6.184 4.383 9.332 2.809m-1.273-5.02c1.195-1.168-2.051-3.988-3.359-2.918-1.172.949.297 3.211 2.078 3.211.539 0 1.117-.133 1.281-.297m-9.102-5.84c.199-.586.305-1.121.234-1.191-.07-.066-.598 0-1.176.152-3.328.879-7.73-3.121-6.309-5.723.398-.73.156-.793-.645-.176-3.02 2.332-.246 6.625 5.02 7.766 2.215.477 2.449.414 2.871-.828m-.07-4.41c.566-.559.301-1.523-.66-2.391-.629-.57-.957-.691-1.816-.621-.887.063-1.09.18-1.293.754-.59 1.648 2.504 3.492 3.77 2.254m0 .004" opacity=".1" transform="translate(1 1)"/>
  <path d="m28.11 35.68c-2.84-.766-5.01-2.391-6.223-4.66-.613-1.145-.691-1.559-.695-3.695-.004-2.715.23-2.441-2.418-2.785-1.652-.211-4.074-1.41-5.516-2.727-3.824-3.5-2.629-8.484 2.281-9.516 3.336-.699 6.277-.086 8.08 1.684 1.734 1.699 2.145 3.633 1.355 6.555-.211.781-.379 1.527-.379 1.66 0 .133.711.238 1.578.242 4.684.012 8.441 1.879 10.03 4.984 1.301 2.547.992 4.957-.863 6.773-1.727 1.695-4.426 2.246-7.234 1.488m5.285-3.582c1.316-.66 1.926-1.727 1.742-3.066-.074-.543-.316-1.16-.531-1.375-.363-.355-.398-.34-.398.18 0 .316-.172.93-.383 1.363-1.203 2.484-6.105 2.25-7.879-.379-.598-.883-.641-1.117-.5-2.719l.148-1.758-.777.152c-.43.082-.949.152-1.16.152-.566 0-.27 3.32.414 4.637 1.559 2.992 6.184 4.383 9.332 2.809m-1.273-5.02c1.195-1.168-2.051-3.988-3.359-2.918-1.172.949.297 3.211 2.078 3.211.539 0 1.117-.133 1.281-.297m-9.102-5.84c.199-.586.305-1.121.234-1.191-.07-.066-.598 0-1.176.152-3.328.879-7.73-3.121-6.309-5.723.398-.73.156-.793-.645-.176-3.02 2.332-.246 6.625 5.02 7.766 2.215.477 2.449.414 2.871-.828m-.07-4.41c.566-.559.301-1.523-.66-2.391-.629-.57-.957-.691-1.816-.621-.887.063-1.09.18-1.293.754-.59 1.648 2.504 3.492 3.77 2.254m0 .004" fill="#0253a9"/>
</svg>
