<svg viewBox="0 0 48 48" xmlns="http://www.w3.org/2000/svg" xmlns:xlink="http://www.w3.org/1999/xlink">
  <linearGradient id="a" gradientTransform="matrix(0 -1 1 0 -.0000015 47.999998)" gradientUnits="userSpaceOnUse" x1="1" x2="47">
    <stop offset="0" stop-color="#6e6e6e"/>
    <stop offset="1" stop-color="#787878"/>
  </linearGradient>
  <path d="m47 24c0 22.703-.297 23-23 23-22.703 0-23-.297-23-23 0-22.703.297-23 23-23 22.703 0 23 .297 23 23z" fill="url(#a)"/>
  <path d="m35.584 36.582c-2.057 2.06-24.805-4.02-25.56-6.834-.755-2.811 15.885-19.476 18.697-18.724 2.812.752 8.92 23.498 6.863 25.558z" opacity=".1"/>
  <path d="m30.382 14.34c-7.976 4.051-12.979 10.283-17.461 16.896 2.086.867 4.79 1.754 7.588 2.529 5.139-2.713 10.192-5.532 12.332-11.936-.749-2.729-1.609-5.383-2.459-7.49z" fill="#9cc7f4"/>
  <path d="m27.417 10c-3.531.297-19.12 16.02-18.393 18.744.185.689 1.7 1.575 3.896 2.488l17.461-16.896c-.976-2.42-1.931-4.119-2.662-4.314-.088-.023-.189-.031-.303-.021z" fill="#63a8d3"/>
  <path d="m32.841 21.83l-12.332 11.936c6.283 1.741 13 2.892 14.07 1.816 1.056-1.057-.045-7.565-1.742-13.752z" fill="#cde4fd"/>
</svg>
