<svg xmlns="http://www.w3.org/2000/svg" viewBox="0 0 48 48">
 <defs>
  <linearGradient id="linearGradient3764" x1="1" x2="47" gradientUnits="userSpaceOnUse" gradientTransform="matrix(0,-1,1,0,-1.5e-6,47.999998)">
   <stop style="stop-color:#6e6e6e;stop-opacity:1"/>
   <stop offset="1" style="stop-color:#787878;stop-opacity:1"/>
  </linearGradient>
 </defs>
 <g>
  
  
  
 </g>
 <g>
  <path d="m 47,24 C 47,46.703 46.703,47 24,47 1.297,47 1,46.703 1,24 1,1.297 1.297,1 24,1 46.703,1 47,1.297 47,24 z" style="fill:url(#linearGradient3764);fill-opacity:1"/>
 </g>
 <g>
  <g>
   <g transform="translate(1,1)">
    <g style="opacity:0.1">
     <!-- color: #b6b6b6 -->
    </g>
   </g>
  </g>
 </g>
 <g>
  
 </g>
 <path d="m 35.584 36.582 c -2.057 2.06 -24.805 -4.02 -25.56 -6.834 -0.755 -2.811 15.885 -19.476 18.697 -18.724 c 2.812 0.752 8.92 23.498 6.863 25.558 z" style="fill:#000;opacity:0.1;fill-opacity:1;stroke:none"/>
 <path d="m 30.382 14.34 c -7.976 4.051 -12.979 10.283 -17.461 16.896 2.086 0.867 4.79 1.754 7.588 2.529 5.139 -2.713 10.192 -5.532 12.332 -11.936 -0.749 -2.729 -1.609 -5.383 -2.459 -7.49 z" style="fill:#9cc7f4;opacity:1;fill-opacity:1;stroke:none"/>
 <path d="m 27.417 10 c -3.531 0.297 -19.12 16.02 -18.393 18.744 0.185 0.689 1.7 1.575 3.896 2.488 l 17.461 -16.896 c -0.976 -2.42 -1.931 -4.119 -2.662 -4.314 -0.088 -0.023 -0.189 -0.031 -0.303 -0.021 z" style="fill:#63a8d3;opacity:1;fill-opacity:1;stroke:none"/>
 <path d="m 32.841 21.83 -12.332 11.936 c 6.283 1.741 13 2.892 14.07 1.816 1.056 -1.057 -0.045 -7.565 -1.742 -13.752 z" style="fill:#cde4fd;opacity:1;fill-opacity:1;stroke:none"/>
</svg>
