<svg viewBox="0 0 48 48" xmlns="http://www.w3.org/2000/svg" xmlns:xlink="http://www.w3.org/1999/xlink">
  <linearGradient id="a" gradientUnits="userSpaceOnUse" x2="0" y1="47" y2="1">
    <stop offset="0" stop-color="#534547"/>
    <stop offset="1" stop-color="#5e4e50"/>
  </linearGradient>
  <path d="m47 24c0 22.703-.297 23-23 23-22.703 0-23-.297-23-23 0-22.703.297-23 23-23 22.703 0 23 .297 23 23z" fill="url(#a)"/>
  <path d="m21.54 36.492v-.84c1.156-.473 1.379-1.051 1.84-2.109.73-5.227.387-11.11-.188-15.586-2.805-1.07-5.602.188-4.676 1.828.246.398 1.262.211 1.145-.262-.555-.262.023-.617.262-.547.23.047.445.637-.113 1.313-.352.328-.703.41-1.125.438-.656.023-1.32-.086-1.578-.438-.344-.609-.266-1.086-.188-1.746.297-.746.285-1.414.223-2.188-.035-.684-.344-1.246-.637-1.855 6.414 1.672 11.01 2.473 16.941 1.566-.324 1.453-.027 2.402.527 3.711l-1.203.055c-.125-1.156-.711-1.645-1.203-1.656l-3.867-.07c-1.066 5.27-.852 9.461-.453 14.742.121.949.703 2.223 1.73 2.406l.109.473c-3.07-.277-5.094-.02-7.547.766" opacity=".1"/>
  <path d="m20.54 35.492v-.84c1.156-.473 1.379-1.051 1.84-2.109.73-5.227.387-11.11-.188-15.586-2.805-1.07-5.602.188-4.676 1.828.246.398 1.262.211 1.145-.262-.555-.262.023-.617.262-.547.23.047.445.637-.113 1.313-.352.328-.703.41-1.125.438-.656.023-1.32-.086-1.578-.438-.344-.609-.266-1.086-.188-1.746.297-.746.285-1.414.223-2.188-.035-.684-.344-1.246-.637-1.855 6.414 1.672 11.01 2.473 16.941 1.566-.324 1.453-.027 2.402.527 3.711l-1.203.055c-.125-1.156-.711-1.645-1.203-1.656l-3.867-.07c-1.066 5.27-.852 9.461-.453 14.742.121.949.703 2.223 1.73 2.406l.109.473c-3.07-.277-5.094-.02-7.547.766" fill="#cc9727"/>
</svg>
