<svg viewBox="0 0 48 48" xmlns="http://www.w3.org/2000/svg" xmlns:xlink="http://www.w3.org/1999/xlink">
  <linearGradient id="a" gradientUnits="userSpaceOnUse" x2="0" y1="47" y2="1">
    <stop offset="0" stop-color="#534547"/>
    <stop offset="1" stop-color="#5e4e50"/>
  </linearGradient>
  <path d="m47 24c0 22.703-.297 23-23 23-22.703 0-23-.297-23-23 0-22.703.297-23 23-23 22.703 0 23 .297 23 23z" fill="url(#a)"/>
  <g opacity=".1" transform="translate(1 1)">
    <path d="m17.04 33.992v-.84c1.156-.473 1.379-1.051 1.84-2.109.73-5.227.387-11.11-.188-15.586-2.805-1.07-5.602.188-4.676 1.828.246.398 1.262.211 1.145-.262-.555-.262.023-.617.262-.547.23.047.445.637-.113 1.313-.352.328-.703.41-1.125.438-.656.023-1.32-.086-1.578-.438-.344-.609-.266-1.086-.188-1.746.297-.746.285-1.414.223-2.188-.035-.684-.344-1.246-.637-1.855 6.414 1.672 11.01 2.473 16.941 1.566-.324 1.453-.027 2.402.527 3.711l-1.203.055c-.125-1.156-.711-1.645-1.203-1.656l-3.867-.07c-1.066 5.27-.852 9.461-.453 14.742.121.949.703 2.223 1.73 2.406l.109.473c-3.07-.277-5.094-.02-7.547.766"/>
    <path d="m27.367 21.559c.707-2.098 3.078-2.559 4.227-.824 1.438 2.758-.414 5.969-1.754 8.03-1.316 2.293-3.164 3.684-4.969 5.277l.16 1.262c2.598-.797 5.852-.371 8.02.695.305-1.332 3.48-3.176 2.867-4.453-.82-1.109-2.539-.668-2.711.539-.227.695.371.613.598.117.223-.496.73-.496 1.023-.195.172.891-.719 1.344-1.301 1.625-1.883.648-4.059.301-5.656-.387 3.762-3.965 9.824-9.08 6.508-13.156-1.711-1.684-3.891-1.938-6-1.57-1.117.352-1.727.957-2.469 1.777-.699 1.492-.281 2.211 1.23 2.578 0 0 .078-.809.227-1.316m0 0"/>
  </g>
  <path d="m17.04 33.992v-.84c1.156-.473 1.379-1.051 1.84-2.109.73-5.227.387-11.11-.188-15.586-2.805-1.07-5.602.188-4.676 1.828.246.398 1.262.211 1.145-.262-.555-.262.023-.617.262-.547.23.047.445.637-.113 1.313-.352.328-.703.41-1.125.438-.656.023-1.32-.086-1.578-.438-.344-.609-.266-1.086-.188-1.746.297-.746.285-1.414.223-2.188-.035-.684-.344-1.246-.637-1.855 6.414 1.672 11.01 2.473 16.941 1.566-.324 1.453-.027 2.402.527 3.711l-1.203.055c-.125-1.156-.711-1.645-1.203-1.656l-3.867-.07c-1.066 5.27-.852 9.461-.453 14.742.121.949.703 2.223 1.73 2.406l.109.473c-3.07-.277-5.094-.02-7.547.766" fill="#cc9727"/>
  <path d="m27.367 21.559c.707-2.098 3.078-2.559 4.227-.824 1.438 2.758-.414 5.969-1.754 8.03-1.316 2.293-3.164 3.684-4.969 5.277l.16 1.262c2.598-.797 5.852-.371 8.02.695.305-1.332 3.48-3.176 2.867-4.453-.82-1.109-2.539-.668-2.711.539-.227.695.371.613.598.117.223-.496.73-.496 1.023-.195.172.891-.719 1.344-1.301 1.625-1.883.648-4.059.301-5.656-.387 3.762-3.965 9.824-9.08 6.508-13.156-1.711-1.684-3.891-1.938-6-1.57-1.117.352-1.727.957-2.469 1.777-.699 1.492-.281 2.211 1.23 2.578 0 0 .078-.809.227-1.316m0 0" fill="#cc9727"/>
</svg>
