<svg xmlns="http://www.w3.org/2000/svg" viewBox="0 0 48 48">
 <defs>
  <linearGradient id="linearGradient3764" x1="1" x2="47" gradientUnits="userSpaceOnUse" gradientTransform="matrix(0,-1,1,0,-1.5e-6,47.999998)">
   <stop style="stop-color:#bbb;stop-opacity:1"/>
   <stop offset="1" style="stop-color:#c5c5c5;stop-opacity:1"/>
  </linearGradient>
 </defs>
 <g>
  
  
  
 </g>
 <g>
  <path d="m 47,24 C 47,46.703 46.703,47 24,47 1.297,47 1,46.703 1,24 1,1.297 1.297,1 24,1 46.703,1 47,1.297 47,24 z" style="fill:url(#linearGradient3764);fill-opacity:1"/>
 </g>
 <g>
  <g>
   <g transform="translate(1,1)">
    <g style="opacity:0.1">
     <!-- color: #c5c5c5 -->
     <g>
      <path d="m 12 34 l 2.523 0 l 8.863 -18.996 l 7.613 0 l 1 -3 l -17.406 0 l -1.594 3 l 7.625 0 m -8.625 18.996" style="fill:#000;fill-opacity:1;stroke:none;fill-rule:nonzero"/>
      <path d="m 27.25 18.555 l -8.246 17.445 l 1.996 0 l 2.434 -5 l 7.57 0 l 3 5 l 2 0 m -8.695 -13.566 l 2.965 6.566 l -5.945 0 c 0 0 2.707 -6.207 2.98 -6.566 m 0 0" style="fill:#000;fill-opacity:1;stroke:none;fill-rule:nonzero"/>
     </g>
    </g>
   </g>
  </g>
 </g>
 <g>
  <g>
   <!-- color: #c5c5c5 -->
   <g>
    <path d="m 12 34 l 2.523 0 l 8.863 -18.996 l 7.613 0 l 1 -3 l -17.406 0 l -1.594 3 l 7.625 0 m -8.625 18.996" style="fill:#b22028;fill-opacity:1;stroke:none;fill-rule:nonzero"/>
    <path d="m 27.25 18.555 l -8.246 17.445 l 1.996 0 l 2.434 -5 l 7.57 0 l 3 5 l 2 0 m -8.695 -13.566 l 2.965 6.566 l -5.945 0 c 0 0 2.707 -6.207 2.98 -6.566 m 0 0" style="fill:#b22028;fill-opacity:1;stroke:none;fill-rule:nonzero"/>
   </g>
  </g>
 </g>
 <g>
  
 </g>
</svg>
