<svg viewBox="0 0 48 48" xmlns="http://www.w3.org/2000/svg" xmlns:xlink="http://www.w3.org/1999/xlink">
  <linearGradient id="a" gradientUnits="userSpaceOnUse" x2="0" y1="47" y2="1">
    <stop offset="0" stop-color="#c9c9df"/>
    <stop offset="1" stop-color="#d5d5e7"/>
  </linearGradient>
  <path d="m24 1c22.703 0 23 .297 23 23 0 22.703-.297 23-23 23-22.703 0-23-.297-23-23 0-22.703.297-23 23-23z" fill="url(#a)"/>
  <path d="m25.01 11l-3.105 1.996h-6.895v4.43l-2 1.285v14.57c0 1.714 0 1.715 1.777 1.715h.002 20.443c1.777 0 1.777 0 1.777-1.715v-14.57l-2-1.287v-4.428h-6.891l-3.105-1.996z" opacity=".1" transform=""/>
  <g transform="translate(.006)">
    <path d="m35.992 32.28l.002-14.57-11.995-7.711-12 7.711v14.57" fill="#157ebd"/>
    <path d="m14 12v20h19.996v-20m-19.996 0" fill="#f9f9f9"/>
    <path d="m11.994 32.32v-14.316l24 14.316" fill="#1392dd"/>
    <path d="m13.777 34h20.445c1.777 0 1.777 0 1.777-1.68v-14.316l-24 14.316c0 1.68.005 1.68 1.786 1.68" fill="#1eaaec"/>
  </g>
</svg>
