<svg viewBox="0 0 48 48" xmlns="http://www.w3.org/2000/svg" xmlns:xlink="http://www.w3.org/1999/xlink">
  <linearGradient id="a" gradientTransform="matrix(0 -1 1 0 -.0000015 47.999998)" gradientUnits="userSpaceOnUse" x1="1" x2="47">
    <stop offset="0" stop-color="#c4ccd2"/>
    <stop offset="1" stop-color="#cfd6db"/>
  </linearGradient>
  <path d="m47 24c0 22.703-.297 23-23 23-22.703 0-23-.297-23-23 0-22.703.297-23 23-23 22.703 0 23 .297 23 23z" fill="url(#a)"/>
  <path d="m21.967 13.01c-1.087.033-2.167.163-3.219.4-.252.057-.497.141-.748.199-.949.221-1.559.71-1.699 1.393l-1.078 5.242c-1.34.525-2.222 1.818-2.223 3.258 0 1.933 1.567 3.5 3.5 3.5 1.933 0 3.5-1.567 3.5-3.5-.002-1.35-.78-2.579-2-3.158v-5.795c1.291-.358 2.641-.543 4-.547 7.18 0 13 4.925 13 11 0 6.075-5.82 11-13 11-2.179.001-4.322-.462-6.234-1.346l-.516.738c5.684 2.716 12.864 1.933 17.504-1.908 4.64-3.841 5.584-9.781 2.303-14.484-2.491-3.571-7.02-5.834-12-5.992-.363-.011-.726-.011-1.088 0zm-.98 1.561c-.445 0-.363.105-.363.105.777.621 3.125 2.734 3.941 6.27 2.875 3.328 1.951 7.545-.098 10.266.093.649-.056 1.183-.223 1.789 0 0 .738.023 1.172-.141 4.629-1.23 7.584-4.718 7.584-8.859 0-4.617-3.775-8.472-9.244-9.23v.002c-.016-.004-.027-.008-.043-.012-.707-.113-2.285-.189-2.727-.189zm-1.986.295v5.355c.07.07.375.164.445.219 2.079 1.563 2.76 4.174 2.797 6.04.049 2.483-.84 4.93-2.621 6.469-.039.035-.123.066-.111.137 1.207.242 3.812.557 4.105-.582.27-1.048-.232-1.519.17-2.363.148-.145.148-.151.148-.188 0-.035-.191-.145-.191-.145-.098-.074-.188-.141-.188-.285 0-.316.493-.332.496-.574.004-.314-.17-.613-.27-.887-.035-.199-.043-.43.273-.602.48-.141.995-.288 1.344-.555.15-.115-.058-.5-.164-.652h.006c-.66-.957-1.289-1.824-1.844-2.855-.098-.176-.223-.367-.191-.598.043-.293.32-.441.445-.656.289-.512.09-1.188-.09-1.727-.363-1.098-.82-2.055-1.375-2.906-.762-1.172-1.658-2.235-3.186-2.645z" fill-rule="evenodd" opacity=".1"/>
  <path d="m22.757 13.769c-.016-.004-.027-.008-.043-.012-.707-.113-2.285-.188-2.727-.188-.445 0-.363.105-.363.105.777.621 3.125 2.734 3.941 6.27 0 0 .039.102.059.262v.008c.027.25.039.633-.082.996-.109.266-.379.684-.379.684-.074.098-.148.27.016.477.763.978 1.407 1.958 2.073 2.964 0 0 .086.109.141.262.188.66-.586.922-.883.996-.031.008-.109.023-.109.023-.41.102-.992.34-.59.848v.004c.008.008.016.016.023.027.031.035.086.105.168.234.078.164.145.43-.094.617-.125.082-.536.266-.333.473l-.012-.016c0 0 .027.035.051.102.094.352.063.598-.03.68-.012.008-.02.02-.031.027l-.004.004.004-.004c-.246.227-.102.516-.102.516v.004c.004.023.012.051.016.078.093.649-.055 1.183-.222 1.789 0 0 .738.023 1.172-.141 4.629-1.23 7.583-4.72 7.583-8.861 0-4.617-3.774-8.471-9.243-9.229" fill="#e1e6ef" fill-rule="evenodd"/>
  <path d="m21 15c1 1 2.123 2.846 2.611 5.32 1.389.09 2.977 1.862 2.938 3.539-.046 1.965-1.311 3.878-2.711 4.803-.027.016-.059.03-.094.051-.063.079-.093.179-.02.285.043.008.093-.012.15-.031.768-.254 1.486-.623 2.102-1.025 1.807-1.182 3.057-2.145 3.715-3.994.33-.928.432-2.087.123-3.148-1.137-3.915-5.59-5.507-8.814-5.799" fill="#8595b9" fill-rule="evenodd"/>
  <path d="m24.24 25.25c-.66-.957-1.289-1.824-1.844-2.855-.098-.176-.223-.367-.191-.598.043-.293.32-.441.445-.656.289-.512.09-1.188-.09-1.727-.363-1.098-.82-2.055-1.375-2.906-.762-1.172-1.657-2.235-3.185-2.645v5.355c.07.07.376.164.446.219 2.079 1.563 2.76 4.174 2.797 6.04.049 2.483-.84 4.931-2.621 6.469-.039.035-.125.066-.113.137 1.207.242 3.812.557 4.106-.582.27-1.048-.231-1.518.171-2.363.148-.145.148-.152.148-.188 0-.035-.191-.145-.191-.145-.098-.074-.188-.141-.188-.285 0-.316.493-.332.496-.574.004-.314-.17-.613-.27-.887-.035-.199-.043-.43.273-.602.48-.141.996-.287 1.344-.554.15-.115-.058-.5-.164-.652" fill="#445277" fill-rule="evenodd"/>
  <path d="m20.967 12.01c-1.087.033-2.167.163-3.219.4-.252.057-.497.141-.748.199-.949.221-1.559.71-1.699 1.393l-1.301 6.322 3-.322v-6.453c1.291-.358 2.641-.543 4-.547 7.18 0 13 4.925 13 11 0 6.075-5.82 11-13 11-2.179.001-4.322-.462-6.234-1.346l-.516.738c5.684 2.716 12.864 1.933 17.504-1.908 4.64-3.841 5.584-9.781 2.303-14.484-2.491-3.571-7.02-5.834-12-5.992-.363-.011-.726-.011-1.088 0z" fill="#445277"/>
  <circle cx="15.5" cy="22.5" fill="#445277" r="3.5"/>
  <circle cx="15" cy="23" fill="#4cba36" r="2"/>
</svg>
