<svg viewBox="0 0 48 48" xmlns="http://www.w3.org/2000/svg" xmlns:xlink="http://www.w3.org/1999/xlink">
  <linearGradient id="a" gradientTransform="matrix(0 -1 1 0 0 48)" gradientUnits="userSpaceOnUse" x1="1" x2="47">
    <stop offset="0" stop-color="#ffdfdf"/>
    <stop offset="1" stop-color="#fff3f3"/>
  </linearGradient>
  <path d="m1 24c0-22.703.297-23 23-23 22.703 0 23 .297 23 23 0 22.703-.297 23-23 23-22.703 0-23-.297-23-23z" fill="url(#a)"/>
  <g opacity=".1" transform="matrix(-1 0 0 -1 49.02 49.02)">
    <path d="m34 14v9h-9v-9m9 0"/>
    <path d="m14 14h9v9h-9m0-9"/>
    <path d="m23 25.02v9h-9v-9m9 0"/>
    <path d="m25.02 25.02h9l-9 9"/>
  </g>
  <path d="m14.02 34.02v-9h9v9m-9 0" fill="#00abec"/>
  <path d="m34.02 34.02h-9v-9h9m0 9" fill="#f15119"/>
  <path d="m25.02 23v-9h9v9m-9 0" fill="#7fcc28"/>
  <path d="m23 23h-9l9-9" fill="#fbb909"/>
  <path d="m15 26h7v7h-7z" fill="#fff" opacity=".632"/>
  <path d="m26 26h7v7h-7z" fill="#fff" opacity=".632"/>
  <path d="m26 15h7v7h-7z" fill="#fff" opacity=".632"/>
  <path d="m22 16.4v5.6h-5.6z" fill="#fff" opacity=".632"/>
</svg>
