<svg viewBox="0 0 48 48" xmlns="http://www.w3.org/2000/svg" xmlns:xlink="http://www.w3.org/1999/xlink">
  <linearGradient id="a" gradientTransform="matrix(0 -1 1 0 -.0000015 47.999998)" gradientUnits="userSpaceOnUse" x1="1" x2="47">
    <stop offset="0" stop-color="#c8cdd4"/>
    <stop offset="1" stop-color="#d3d7dc"/>
  </linearGradient>
  <path d="m47 24c0 22.703-.297 23-23 23-22.703 0-23-.297-23-23 0-22.703.297-23 23-23 22.703 0 23 .297 23 23z" fill="url(#a)"/>
  <path d="m32.956 12.211c-.519.221-1.107.585-1.755 1.054-1.297.938-2.832 2.291-4.332 3.672-1.499 1.38-2.958 2.791-4.067 3.838-.554.523-1.023.953-1.358 1.239-.122.003-.035-.635-.032-.76.071-.825.235-1.917.398-3.01.163-1.091.329-2.184.398-3.052.034-.434.05-.807.019-1.124-.015-.158-.045-.301-.101-.447-.056-.146-.155-.319-.36-.415-.26-.124-.543-.071-.758.032-.217.104-.409.257-.613.453-.407.393-.853.967-1.345 1.686-.984 1.437-2.145 3.459-3.315 5.677-2.341 4.436-4.713 9.637-5.715 12.433l-.107.294 2.286 2.02.24-.6c.601-1.502 1.752-2.135 3.321-2.324 1.569-.19 3.514.135 5.412.651 1.898.516 3.749 1.216 5.178 1.737.714.261 1.324.477 1.8.607.238.065.437.109.631.121.194.013.451.033.663-.236.221-.195.022-.469.032-.671-.068-.139-.154-.251-.259-.37-.21-.24-.499-.505-.852-.805-.707-.599-1.665-1.324-2.621-2.05-.955-.726-1.91-1.452-2.589-2.031-.27-.23-.446-.409-.606-.575.376.03.938.134 1.598.294 1.32.32 3.055.854 4.793 1.398 1.738.544 3.477 1.096 4.824 1.469.674.186 1.246.331 1.692.402.223.036.414.053.594.045.276.062.45-.227.606-.307v-.006h.006c.125-.22.07-.432.019-.568-.051-.136-.118-.245-.202-.364-.169-.237-.402-.494-.688-.785-.573-.583-1.354-1.284-2.141-1.986-.787-.702-1.584-1.403-2.166-1.96-.291-.279-.525-.524-.676-.702-.08-.072.101-.116.133-.153.262-.16.639-.362 1.086-.587.894-.451 2.072-.999 3.233-1.552 1.161-.553 2.308-1.114 3.17-1.603.431-.245.785-.466 1.055-.683.135-.109.252-.213.347-.345.096-.131.195-.322.139-.575l-.006-.038-.013-.038c-.221-.544-.778-.815-1.37-.894-.593-.079-1.289-.008-2.084.14-1.59.297-3.554.939-5.5 1.641-1.946.702-3.873 1.464-5.342 1.992-.672.242-1.215.409-1.642.524.287-.321.656-.705 1.143-1.181 1.1-1.075 2.606-2.462 4.086-3.857 1.48-1.395 2.937-2.796 3.966-3.927.514-.566.919-1.058 1.181-1.482.131-.212.23-.406.278-.626.048-.219.035-.594-.221-.741-.535-.307-.988-.13-1.491.011z" opacity=".1" transform="translate(1 1)"/>
  <g fill="#209cff" stroke="#283d70" transform="translate(-.00004104)">
    <path d="m9.803 3.153c-.535-.398-3.888 3.202-4.04 3.13-.25-.147.412-2.681.145-2.804-.505-.245-2.832 4.442-3.441 6.123l.484.423c.822-2.03 5.07.399 5.28.135.124-.208-2.357-1.767-2.247-1.994.175-.355 4.319 1.28 4.467 1.031.116-.202-1.897-1.711-1.874-1.92.098-.233 2.948-1.325 2.884-1.608-.353-.859-4.867 1.41-5.076 1.151-.121-.225 3.776-3.373 3.414-3.667m.004 0" stroke-width=".282" transform="matrix(3.233046 0 0 3.269549 2.47496 2.248699)"/>
    <path d="m19.438 24.813c-6.687 3.179-9.877 9.906-9.877 9.906 1.995-3.264 3.677-6.511 9.877-9.906m0 0" transform="matrix(.912437 0 0 .922739 2.47496 2.248699)"/>
  </g>
</svg>
