<svg viewBox="0 0 48 48" xmlns="http://www.w3.org/2000/svg" xmlns:xlink="http://www.w3.org/1999/xlink">
  <linearGradient id="a" gradientTransform="matrix(0 -1 1 0 -.0000015 47.999998)" gradientUnits="userSpaceOnUse" x1="1" x2="47">
    <stop offset="0" stop-color="#a31d23"/>
    <stop offset="1" stop-color="#b42026"/>
  </linearGradient>
  <path d="m47 24c0 22.703-.297 23-23 23-22.703 0-23-.297-23-23 0-22.703.297-23 23-23 22.703 0 23 .297 23 23z" fill="url(#a)"/>
  <path d="m23.41 35.887c-.039-.063-.176-.074-.305-.027-.527.195-3.418-2.934-5.336-5.773-1.383-2.043-3.465-6.07-4.07-7.859-.934-2.758-.93-4.508.012-6.375.547-1.074 1.93-2.453 2.922-2.906 2.113-.957 8.363-1.262 11.668-.563 3.211.68 5.066 1.945 6.191 4.254.457.938.512 1.215.504 2.512-.008 1.242-.098 1.723-.629 3.242-.902 2.574-3.039 6.648-4.527 8.645-1.738 2.32-3.578 4.355-4.195 4.684-.531.27-2.098.391-2.238.176m.004 0" opacity=".1" transform="translate(1 1)"/>
  <path d="m23.41 35.887c-.039-.063-.176-.074-.305-.027-.527.195-3.418-2.934-5.336-5.773-1.383-2.043-3.465-6.07-4.07-7.859-.934-2.758-.93-4.508.012-6.375.547-1.074 1.93-2.453 2.922-2.906 2.113-.957 8.363-1.262 11.668-.563 3.211.68 5.066 1.945 6.191 4.254.457.938.512 1.215.504 2.512-.008 1.242-.098 1.723-.629 3.242-.902 2.574-3.039 6.648-4.527 8.645-1.738 2.32-3.578 4.355-4.195 4.684-.531.27-2.098.391-2.238.176m.004 0" fill="#f1f1f1"/>
</svg>
