<svg xmlns="http://www.w3.org/2000/svg" viewBox="0 0 48 48">
 <defs>
  <linearGradient id="linearGradient3764" x1="1" x2="47" gradientUnits="userSpaceOnUse" gradientTransform="matrix(0,-1,1,0,-1.5e-6,47.999998)">
   <stop style="stop-color:#a31d23;stop-opacity:1"/>
   <stop offset="1" style="stop-color:#b42026;stop-opacity:1"/>
  </linearGradient>
 </defs>
 <g>
  
  
  
 </g>
 <g>
  <path d="m 47,24 C 47,46.703 46.703,47 24,47 1.297,47 1,46.703 1,24 1,1.297 1.297,1 24,1 46.703,1 47,1.297 47,24 z" style="fill:url(#linearGradient3764);fill-opacity:1"/>
 </g>
 <g>
  <g>
   <g transform="translate(1,1)">
    <g style="opacity:0.1">
     <!-- color: #b42026 -->
     <g>
      <path d="m 23.41 35.887 c -0.039 -0.063 -0.176 -0.074 -0.305 -0.027 c -0.527 0.195 -3.418 -2.934 -5.336 -5.773 c -1.383 -2.043 -3.465 -6.07 -4.07 -7.859 c -0.934 -2.758 -0.93 -4.508 0.012 -6.375 c 0.547 -1.074 1.93 -2.453 2.922 -2.906 c 2.113 -0.957 8.363 -1.262 11.668 -0.563 c 3.211 0.68 5.066 1.945 6.191 4.254 c 0.457 0.938 0.512 1.215 0.504 2.512 c -0.008 1.242 -0.098 1.723 -0.629 3.242 c -0.902 2.574 -3.039 6.648 -4.527 8.645 c -1.738 2.32 -3.578 4.355 -4.195 4.684 c -0.531 0.27 -2.098 0.391 -2.238 0.176 m 0.004 0" style="fill:#000;fill-opacity:1;stroke:none;fill-rule:nonzero"/>
     </g>
    </g>
   </g>
  </g>
 </g>
 <g>
  <g>
   <!-- color: #b42026 -->
   <g>
    <path d="m 23.41 35.887 c -0.039 -0.063 -0.176 -0.074 -0.305 -0.027 c -0.527 0.195 -3.418 -2.934 -5.336 -5.773 c -1.383 -2.043 -3.465 -6.07 -4.07 -7.859 c -0.934 -2.758 -0.93 -4.508 0.012 -6.375 c 0.547 -1.074 1.93 -2.453 2.922 -2.906 c 2.113 -0.957 8.363 -1.262 11.668 -0.563 c 3.211 0.68 5.066 1.945 6.191 4.254 c 0.457 0.938 0.512 1.215 0.504 2.512 c -0.008 1.242 -0.098 1.723 -0.629 3.242 c -0.902 2.574 -3.039 6.648 -4.527 8.645 c -1.738 2.32 -3.578 4.355 -4.195 4.684 c -0.531 0.27 -2.098 0.391 -2.238 0.176 m 0.004 0" style="fill:#f1f1f1;fill-opacity:1;stroke:none;fill-rule:nonzero"/>
   </g>
  </g>
 </g>
 <g>
  
 </g>
</svg>
