<svg viewBox="0 0 48 48" xmlns="http://www.w3.org/2000/svg" xmlns:xlink="http://www.w3.org/1999/xlink">
  <linearGradient id="a" gradientTransform="matrix(0 -1 1 0 -.0000015 47.999998)" gradientUnits="userSpaceOnUse" x1="1" x2="47">
    <stop offset="0" stop-color="#dbdbdb"/>
    <stop offset="1" stop-color="#e5e5e5"/>
  </linearGradient>
  <path d="m47 24c0 22.703-.297 23-23 23-22.703 0-23-.297-23-23 0-22.703.297-23 23-23 22.703 0 23 .297 23 23z" fill="url(#a)"/>
  <path d="m21 13c-.551 0-1 .449-1 1 0 .551.449 1 1 1 .071 0 .134-.027.201-.041l.73 1.463.961-.959.705 2.113c-.368.363-.598.866-.598 1.424h-6c-1.656 0-3 1.344-3 3v8.996c0 1.656 1.344 3 3 3h16c1.656 0 3-1.34 3-3v-8.996c0-1.656-1.344-3-3-3h-6c0-.528-.208-1-.541-1.361l1.34-2.68c.067.014.13.041.201.041.551 0 1-.449 1-1 0-.551-.449-1-1-1-.551 0-1 .449-1 1 0 .3.14.561.35.744l-1.283 2.568c-.309-.195-.674-.313-1.066-.313-.359 0-.691.102-.982.268l-.908-2.73-1.043 1.041-.416-.832c.21-.184.35-.446.35-.746 0-.551-.449-1-1-1z" opacity=".1" transform=""/>
  <path d="m16 18h16c1.656 0 3 1.344 3 3v8.996c0 1.66-1.344 3-3 3h-16c-1.656 0-3-1.344-3-3v-8.996c0-1.656 1.344-3 3-3m0 0" fill="#2d2d2d"/>
  <path d="m16.457 20h15.09c.805 0 1.457.652 1.457 1.453v8.09c0 .805-.652 1.457-1.457 1.457h-15.09c-.805 0-1.457-.652-1.457-1.457v-8.09c0-.801.652-1.453 1.457-1.453m0 0" fill="#868686"/>
  <path d="m26 18c0 1.105-.895 2-2 2-1.105 0-2-.895-2-2 0-1.105.895-2 2-2 1.105 0 2 .895 2 2m0 0" fill="#2d2d2d"/>
  <path d="m23 17l-1-3-1 1-1-2" fill="none" stroke="#2d2d2d" stroke-width=".5"/>
  <path d="m25 17l2-4z" fill="none" stroke="#2d2d2d" stroke-width=".5"/>
  <path d="m21 13c0 .551-.449 1-1 1-.551 0-1-.449-1-1 0-.551.449-1 1-1 .551 0 1 .449 1 1m0 0" fill="#2d2d2d"/>
  <path d="m28 13c0 .551-.449 1-1 1-.551 0-1-.449-1-1 0-.551.449-1 1-1 .551 0 1 .449 1 1m0 0" fill="#2d2d2d"/>
  <path d="m22 24.5c0 1.379-.672 2.5-1.5 2.5-.828 0-1.5-1.121-1.5-2.5 0-1.379.672-2.5 1.5-2.5.828 0 1.5 1.121 1.5 2.5m0 0" fill="#f9f9f9"/>
  <path d="m29 24.5c0 1.379-.672 2.5-1.5 2.5-.828 0-1.5-1.121-1.5-2.5 0-1.379.672-2.5 1.5-2.5.828 0 1.5 1.121 1.5 2.5m0 0" fill="#f9f9f9"/>
  <path d="m21 25c0 .551-.223 1-.5 1-.277 0-.5-.449-.5-1 0-.551.223-1 .5-1 .277 0 .5.449.5 1m0 0" fill="#444"/>
  <path d="m28 25c0 .551-.223 1-.5 1-.277 0-.5-.449-.5-1 0-.551.223-1 .5-1 .277 0 .5.449.5 1m0 0" fill="#444"/>
  <path d="m20.969 28.531l-.5.781c1.043.414 2.23.688 3.531.688 1.301 0 2.488-.273 3.531-.688l-.5-.781c-.922.297-1.941.469-3.03.469-1.09 0-2.109-.172-3.03-.469m-.004 0" fill="#2d2d2d"/>
</svg>
