<svg xmlns="http://www.w3.org/2000/svg" viewBox="0 0 48 48">
 <defs>
  <linearGradient id="linearGradient3764" x1="1" x2="47" gradientUnits="userSpaceOnUse" gradientTransform="matrix(0,-1,1,0,-1.5e-6,47.999998)">
   <stop style="stop-color:#dbdbdb;stop-opacity:1"/>
   <stop offset="1" style="stop-color:#e5e5e5;stop-opacity:1"/>
  </linearGradient>
 </defs>
 <g>
  
  
  
 </g>
 <g>
  <path d="m 47,24 C 47,46.703 46.703,47 24,47 1.297,47 1,46.703 1,24 1,1.297 1.297,1 24,1 46.703,1 47,1.297 47,24 z" style="fill:url(#linearGradient3764);fill-opacity:1"/>
 </g>
 <g>
  <g>
   <g transform="translate(1,1)">
    <g style="opacity:0.1">
     <!-- color: #e5e5e5 -->
     <g>
      <path d="m 21 13 c -0.551 0 -1 0.449 -1 1 c 0 0.551 0.449 1 1 1 c 0.071 0 0.134 -0.027 0.201 -0.041 l 0.73 1.463 l 0.961 -0.959 l 0.705 2.113 c -0.368 0.363 -0.598 0.866 -0.598 1.424 l -6 0 c -1.656 0 -3 1.344 -3 3 l 0 8.996 c 0 1.656 1.344 3 3 3 l 16 0 c 1.656 0 3 -1.34 3 -3 l 0 -8.996 c 0 -1.656 -1.344 -3 -3 -3 l -6 0 c 0 -0.528 -0.208 -1 -0.541 -1.361 l 1.34 -2.68 c 0.067 0.014 0.13 0.041 0.201 0.041 c 0.551 0 1 -0.449 1 -1 c 0 -0.551 -0.449 -1 -1 -1 c -0.551 0 -1 0.449 -1 1 c 0 0.3 0.14 0.561 0.35 0.744 l -1.283 2.568 c -0.309 -0.195 -0.674 -0.313 -1.066 -0.313 c -0.359 0 -0.691 0.102 -0.982 0.268 l -0.908 -2.73 l -1.043 1.041 l -0.416 -0.832 c 0.21 -0.184 0.35 -0.446 0.35 -0.746 c 0 -0.551 -0.449 -1 -1 -1 z" transform="translate(-1,-1)"/>
     </g>
    </g>
   </g>
  </g>
 </g>
 <g>
  <g>
   <!-- color: #e5e5e5 -->
   <g>
    <path d="m 16,18 16,0 c 1.656,0 3,1.344 3,3 l 0,8.996 c 0,1.66 -1.344,3 -3,3 l -16,0 c -1.656,0 -3,-1.344 -3,-3 L 13,21 c 0,-1.656 1.344,-3 3,-3 m 0,0" style="fill:#2d2d2d;fill-opacity:1;stroke:none;fill-rule:nonzero"/>
    <path d="m 16.457,20 15.09,0 c 0.805,0 1.457,0.652 1.457,1.453 l 0,8.09 c 0,0.805 -0.652,1.457 -1.457,1.457 l -15.09,0 C 15.652,31 15,30.348 15,29.543 l 0,-8.09 C 15,20.652 15.652,20 16.457,20 m 0,0" style="fill:#868686;fill-opacity:1;stroke:none;fill-rule:nonzero"/>
    <path d="m 26 18 c 0 1.105 -0.895 2 -2 2 -1.105 0 -2 -0.895 -2 -2 0 -1.105 0.895 -2 2 -2 1.105 0 2 0.895 2 2 m 0 0" style="fill:#2d2d2d;fill-opacity:1;stroke:none;fill-rule:nonzero"/>
    <path d="m 23 17 -1 -3 -1 1 -1 -2" style="stroke-opacity:1;fill:none;stroke-miterlimit:4;stroke:#2d2d2d;stroke-linecap:butt;stroke-linejoin:miter;stroke-width:0.5"/>
    <path d="m 25 17 2 -4 -2 4" style="stroke-opacity:1;fill:none;stroke-miterlimit:4;stroke:#2d2d2d;stroke-linecap:butt;stroke-linejoin:miter;stroke-width:0.5"/>
    <path d="m 21 13 c 0 0.551 -0.449 1 -1 1 -0.551 0 -1 -0.449 -1 -1 0 -0.551 0.449 -1 1 -1 0.551 0 1 0.449 1 1 m 0 0" style="fill:#2d2d2d;fill-opacity:1;stroke:none;fill-rule:nonzero"/>
    <path d="m 28 13 c 0 0.551 -0.449 1 -1 1 -0.551 0 -1 -0.449 -1 -1 0 -0.551 0.449 -1 1 -1 0.551 0 1 0.449 1 1 m 0 0" style="fill:#2d2d2d;fill-opacity:1;stroke:none;fill-rule:nonzero"/>
    <path d="M 22,24.5 C 22,25.879 21.328,27 20.5,27 19.672,27 19,25.879 19,24.5 19,23.121 19.672,22 20.5,22 c 0.828,0 1.5,1.121 1.5,2.5 m 0,0" style="fill:#f9f9f9;fill-opacity:1;stroke:none;fill-rule:nonzero"/>
    <path d="M 29,24.5 C 29,25.879 28.328,27 27.5,27 26.672,27 26,25.879 26,24.5 26,23.121 26.672,22 27.5,22 c 0.828,0 1.5,1.121 1.5,2.5 m 0,0" style="fill:#f9f9f9;fill-opacity:1;stroke:none;fill-rule:nonzero"/>
    <path d="m 21 25 c 0 0.551 -0.223 1 -0.5 1 -0.277 0 -0.5 -0.449 -0.5 -1 0 -0.551 0.223 -1 0.5 -1 0.277 0 0.5 0.449 0.5 1 m 0 0" style="fill:#444;fill-opacity:1;stroke:none;fill-rule:nonzero"/>
    <path d="m 28 25 c 0 0.551 -0.223 1 -0.5 1 -0.277 0 -0.5 -0.449 -0.5 -1 0 -0.551 0.223 -1 0.5 -1 0.277 0 0.5 0.449 0.5 1 m 0 0" style="fill:#444;fill-opacity:1;stroke:none;fill-rule:nonzero"/>
    <path d="m 20.969,28.531 -0.5,0.781 C 21.512,29.726 22.699,30 24,30 c 1.301,0 2.488,-0.273 3.531,-0.688 l -0.5,-0.781 C 26.109,28.828 25.09,29 24.001,29 c -1.09,0 -2.109,-0.172 -3.03,-0.469 m -0.004,0" style="fill:#2d2d2d;fill-opacity:1;stroke:none;fill-rule:nonzero"/>
   </g>
  </g>
 </g>
 <g>
  
 </g>
</svg>
