<svg viewBox="0 0 48 48" xmlns="http://www.w3.org/2000/svg" xmlns:xlink="http://www.w3.org/1999/xlink">
  <linearGradient id="a" gradientTransform="matrix(0 -1 1 0 -.0000015 47.999998)" gradientUnits="userSpaceOnUse" x1="1" x2="47">
    <stop offset="0" stop-color="#4b4b4b"/>
    <stop offset="1" stop-color="#555"/>
  </linearGradient>
  <path d="m47 24c0 22.703-.297 23-23 23-22.703 0-23-.297-23-23 0-22.703.297-23 23-23 22.703 0 23 .297 23 23z" fill="url(#a)"/>
  <path d="m13.453 32.988h8.16l2.387 3.01 2.379-3.01h8.05c.914 0 1.563-.688 1.563-1.352v-18.293c0-.617-.59-1.348-1.547-1.348h-20.855c-.766 0-1.602.551-1.602 1.402v18.313c0 .746.914 1.273 1.457 1.273m.004.004" opacity=".1" transform="translate(1 1)"/>
  <path d="m13.453 32.988h8.16l2.387 3.01 2.379-3.01h8.05c.914 0 1.563-.688 1.563-1.352v-18.293c0-.617-.59-1.348-1.547-1.348h-20.855c-.766 0-1.602.551-1.602 1.402v18.313c0 .746.914 1.273 1.457 1.273m.004.004" fill="#17baff"/>
  <path d="m26.27 16.16c-1.625.555-2.652 1.992-2.535 3.563l.039.605-.648-.074c-2.367-.285-4.438-1.25-6.191-2.871l-.859-.801-.219.594c-.469 1.32-.172 2.719.805 3.66.523.52.402.594-.484.281-.316-.098-.586-.172-.613-.133-.09.086.223 1.211.469 1.656.34.617 1.027 1.223 1.781 1.582l.637.285-.754.012c-.727 0-.754.012-.676.273.262.801 1.289 1.656 2.434 2.027l.805.258-.703.398c-1.039.563-2.262.887-3.484.914-.586.012-1.066.063-1.066.098 0 .125 1.586.816 2.508 1.09 2.773.805 6.06.457 8.531-.918 1.758-.977 3.512-2.918 4.332-4.797.441-1 .883-2.832.883-3.711 0-.566.039-.641.77-1.32.43-.398.832-.828.91-.953.129-.234.117-.234-.547-.023-1.105.371-1.262.32-.715-.238.402-.395.883-1.109.883-1.32 0-.039-.195.023-.414.137-.234.121-.754.309-1.145.418l-.703.211-.637-.406c-.352-.223-.848-.473-1.105-.547-.664-.172-1.68-.148-2.277.051m0 0" fill="#007fb2"/>
</svg>
