<svg viewBox="0 0 48 48" xmlns="http://www.w3.org/2000/svg" xmlns:xlink="http://www.w3.org/1999/xlink">
  <linearGradient id="a" gradientTransform="matrix(0 -1 1 0 -.0000015 47.999998)" gradientUnits="userSpaceOnUse" x1="1" x2="47">
    <stop offset="0" stop-color="#4b4b4b"/>
    <stop offset="1" stop-color="#555"/>
  </linearGradient>
  <path d="m47 24c0 22.703-.297 23-23 23-22.703 0-23-.297-23-23 0-22.703.297-23 23-23 22.703 0 23 .297 23 23z" fill="url(#a)"/>
  <path d="m21.19 15c-.57.016-1.148.109-1.719.313-2.445.863-4.301 3.363-4.844 6.469-1.605.402-2.996 1.855-3.48 3.969-.672 3 .738 6.125 3.125 6.969.039.012.066.023.105.031.32.148.719.25 1.094.25h17.313c.617 0 1.172-.234 1.656-.625 1.934-1.16 3.01-3.941 2.406-6.625-.445-1.98-1.691-3.402-3.156-3.906-.016-.066-.02-.121-.031-.188.32-4.484-4.07-5.449-6.813-3.656-1.316-2.219-3.426-3.063-5.656-3m3.781 4h2.875l1.156 12h-2.316l-.191-2.844h-3.688l-1.316 2.844h-2.5m7.102-10.188c-.23.656-.508 1.332-.848 2.063l-1.438 3.156h2.563l-.188-2.875c-.051-.715-.094-1.398-.094-2.063m.004-.281" opacity=".1" transform="translate(1 1)"/>
  <path d="m21.19 15c-.57.016-1.148.109-1.719.313-2.445.863-4.301 3.363-4.844 6.469-1.605.402-2.996 1.855-3.48 3.969-.672 3 .738 6.125 3.125 6.969.039.012.066.023.105.031.32.148.719.25 1.094.25h17.313c.617 0 1.172-.234 1.656-.625 1.934-1.16 3.01-3.941 2.406-6.625-.445-1.98-1.691-3.402-3.156-3.906-.016-.066-.02-.121-.031-.188.32-4.484-4.07-5.449-6.813-3.656-1.316-2.219-3.426-3.063-5.656-3m3.781 4h2.875l1.156 12h-2.316l-.191-2.844h-3.688l-1.316 2.844h-2.5m7.102-10.188c-.23.656-.508 1.332-.848 2.063l-1.438 3.156h2.563l-.188-2.875c-.051-.715-.094-1.398-.094-2.063m.004-.281" fill="#e5e5e5"/>
</svg>
