<svg xmlns="http://www.w3.org/2000/svg" viewBox="0 0 48 48">
 <defs>
  <linearGradient id="linearGradient3764" x1="1" x2="47" gradientUnits="userSpaceOnUse" gradientTransform="matrix(0,-1,1,0,-1.5e-6,47.999998)">
   <stop style="stop-color:#4b4b4b;stop-opacity:1"/>
   <stop offset="1" style="stop-color:#555;stop-opacity:1"/>
  </linearGradient>
 </defs>
 <g>
  
  
  
 </g>
 <g>
  <path d="m 47,24 C 47,46.703 46.703,47 24,47 1.297,47 1,46.703 1,24 1,1.297 1.297,1 24,1 46.703,1 47,1.297 47,24 z" style="fill:url(#linearGradient3764);fill-opacity:1"/>
 </g>
 <g>
  <g>
   <g transform="translate(1,1)">
    <g style="opacity:0.1">
     <!-- color: #555555 -->
     <g>
      <path d="m 21.19 15 c -0.57 0.016 -1.148 0.109 -1.719 0.313 c -2.445 0.863 -4.301 3.363 -4.844 6.469 c -1.605 0.402 -2.996 1.855 -3.48 3.969 c -0.672 3 0.738 6.125 3.125 6.969 c 0.039 0.012 0.066 0.023 0.105 0.031 c 0.32 0.148 0.719 0.25 1.094 0.25 l 17.313 0 c 0.617 0 1.172 -0.234 1.656 -0.625 c 1.934 -1.16 3.01 -3.941 2.406 -6.625 c -0.445 -1.98 -1.691 -3.402 -3.156 -3.906 c -0.016 -0.066 -0.02 -0.121 -0.031 -0.188 c 0.32 -4.484 -4.07 -5.449 -6.813 -3.656 c -1.316 -2.219 -3.426 -3.063 -5.656 -3 m 3.781 4 l 2.875 0 l 1.156 12 l -2.316 0 l -0.191 -2.844 l -3.688 0 l -1.316 2.844 l -2.5 0 m 7.102 -10.188 c -0.23 0.656 -0.508 1.332 -0.848 2.063 l -1.438 3.156 l 2.563 0 l -0.188 -2.875 c -0.051 -0.715 -0.094 -1.398 -0.094 -2.063 m 0.004 -0.281" style="fill:#000;fill-opacity:1;stroke:none;fill-rule:nonzero"/>
     </g>
    </g>
   </g>
  </g>
 </g>
 <g>
  <g>
   <!-- color: #555555 -->
   <g>
    <path d="m 21.19 15 c -0.57 0.016 -1.148 0.109 -1.719 0.313 c -2.445 0.863 -4.301 3.363 -4.844 6.469 c -1.605 0.402 -2.996 1.855 -3.48 3.969 c -0.672 3 0.738 6.125 3.125 6.969 c 0.039 0.012 0.066 0.023 0.105 0.031 c 0.32 0.148 0.719 0.25 1.094 0.25 l 17.313 0 c 0.617 0 1.172 -0.234 1.656 -0.625 c 1.934 -1.16 3.01 -3.941 2.406 -6.625 c -0.445 -1.98 -1.691 -3.402 -3.156 -3.906 c -0.016 -0.066 -0.02 -0.121 -0.031 -0.188 c 0.32 -4.484 -4.07 -5.449 -6.813 -3.656 c -1.316 -2.219 -3.426 -3.063 -5.656 -3 m 3.781 4 l 2.875 0 l 1.156 12 l -2.316 0 l -0.191 -2.844 l -3.688 0 l -1.316 2.844 l -2.5 0 m 7.102 -10.188 c -0.23 0.656 -0.508 1.332 -0.848 2.063 l -1.438 3.156 l 2.563 0 l -0.188 -2.875 c -0.051 -0.715 -0.094 -1.398 -0.094 -2.063 m 0.004 -0.281" style="fill:#e5e5e5;fill-opacity:1;stroke:none;fill-rule:nonzero"/>
   </g>
  </g>
 </g>
 <g>
  
 </g>
</svg>
