<svg viewBox="0 0 48 48" xmlns="http://www.w3.org/2000/svg" xmlns:xlink="http://www.w3.org/1999/xlink">
  <linearGradient id="a" gradientTransform="matrix(0 -1 1 0 -.0000015 47.999998)" gradientUnits="userSpaceOnUse" x1="1" x2="47">
    <stop offset="0" stop-color="#cdc2b7"/>
    <stop offset="1" stop-color="#d5ccc2"/>
  </linearGradient>
  <path d="m47 24c0 22.703-.297 23-23 23-22.703 0-23-.297-23-23 0-22.703.297-23 23-23 22.703 0 23 .297 23 23z" fill="url(#a)"/>
  <path d="m32 12v26h2v-26zm-18 6v9.348c0 1.133.118 2.166.348 3.107.231.917.583 1.736 1.133 2.4 1.375 1.662 3.397 2.142 5.254 2.145 2.266.003 4.266-.245 6.266-1v-15.996h-3v13.996c-1 .259-2 .364-2.949.373-1.489.014-2.547-.437-3.18-1.311-.629-.874-.871-2.326-.871-4.352v-8.711h-3z" opacity=".1" transform=""/>
  <path d="m13 17v9.348c0 1.133.118 2.165.348 3.107.231.917.583 1.735 1.133 2.4 1.375 1.662 3.397 2.143 5.254 2.145 2.266.003 4.266-.245 6.266-1v-15.996h-3v13.996c-1 .259-2 .365-2.949.374-1.489.014-2.547-.437-3.18-1.311-.629-.874-.871-2.326-.871-4.352v-8.71" fill="#f60"/>
  <path d="m31 11h2v26h-2m0-26" fill="#2d2d2d"/>
</svg>
