<svg xmlns="http://www.w3.org/2000/svg" viewBox="0 0 48 48">
 <defs>
  <linearGradient id="linearGradient3764" x1="1" x2="47" gradientUnits="userSpaceOnUse" gradientTransform="matrix(0,-1,1,0,-1.5e-6,47.999998)">
   <stop style="stop-color:#3c3c3c;stop-opacity:1"/>
   <stop offset="1" style="stop-color:#464646;stop-opacity:1"/>
  </linearGradient>
 </defs>
 <g>
  
  
  
 </g>
 <g>
  <path d="m 47,24 C 47,46.703 46.703,47 24,47 1.297,47 1,46.703 1,24 1,1.297 1.297,1 24,1 46.703,1 47,1.297 47,24 z" style="fill:url(#linearGradient3764);fill-opacity:1"/>
 </g>
 <path d="m 9 26 c 0 0 0 -6 10 -12 2.304 -1.383 5 -2 5 -2 0 0 -3 2.596 -3 5 0 2 2 1 2 1 l 0 14 c 2.951 1.998 5 -2 5 -2 l 0 -11 -1 -2 2 1 c 3 -4 8 -5 8 -5 0 0 -3 3 -4 5 l 0 14 c 0 0 1 2 6 -3 0 0 -3 5.691 -7 8 l -4 -3 -2 4 c 0 0 -8 0 -10 -5 1.62 1.29 2 1 2 -1 l 0 -12 c -2 -2 -9 6 -9 6 z" style="fill:#000;opacity:0.1;stroke:none;fill-rule:evenodd"/>
 <g>
  
 </g>
 <path d="m 8 25 c 0 0 0 -6 10 -12 2.304 -1.383 5 -2 5 -2 0 0 -3 2.596 -3 5 0 2 2 1 2 1 l 0 14 c 2.951 1.998 5 -2 5 -2 l 0 -11 -1 -2 2 1 c 3 -4 8 -5 8 -5 0 0 -3 3 -4 5 l 0 14 c 0 0 1 2 6 -3 0 0 -3 5.691 -7 8 l -4 -3 -2 4 c 0 0 -8 0 -10 -5 1.62 1.29 2 1 2 -1 l 0 -12 c -2 -2 -9 6 -9 6 z" style="fill:#f2f2f2;stroke:none;fill-rule:evenodd"/>
</svg>
