<svg viewBox="0 0 48 48" xmlns="http://www.w3.org/2000/svg" xmlns:xlink="http://www.w3.org/1999/xlink">
  <linearGradient id="a" gradientTransform="matrix(0 -1 1 0 -.0000015 47.999998)" gradientUnits="userSpaceOnUse" x1="1" x2="47">
    <stop offset="0" stop-color="#3c3c3c"/>
    <stop offset="1" stop-color="#464646"/>
  </linearGradient>
  <path d="m47 24c0 22.703-.297 23-23 23-22.703 0-23-.297-23-23 0-22.703.297-23 23-23 22.703 0 23 .297 23 23z" fill="url(#a)"/>
  <path d="m9 26c0 0 0-6 10-12 2.304-1.383 5-2 5-2 0 0-3 2.596-3 5 0 2 2 1 2 1v14c2.951 1.998 5-2 5-2v-11l-1-2 2 1c3-4 8-5 8-5 0 0-3 3-4 5v14c0 0 1 2 6-3 0 0-3 5.691-7 8l-4-3-2 4c0 0-8 0-10-5 1.62 1.29 2 1 2-1v-12c-2-2-9 6-9 6z" fill-rule="evenodd" opacity=".1"/>
  <path d="m8 25c0 0 0-6 10-12 2.304-1.383 5-2 5-2 0 0-3 2.596-3 5 0 2 2 1 2 1v14c2.951 1.998 5-2 5-2v-11l-1-2 2 1c3-4 8-5 8-5 0 0-3 3-4 5v14c0 0 1 2 6-3 0 0-3 5.691-7 8l-4-3-2 4c0 0-8 0-10-5 1.62 1.29 2 1 2-1v-12c-2-2-9 6-9 6z" fill="#f2f2f2" fill-rule="evenodd"/>
</svg>
