<svg xmlns="http://www.w3.org/2000/svg" viewBox="0 0 48 48">
 <defs>
  <linearGradient id="linearGradient4206" x1="1" x2="47" gradientUnits="userSpaceOnUse">
   <stop style="stop-color:#4d6977;stop-opacity:1"/>
   <stop offset="1" style="stop-color:#557483;stop-opacity:1"/>
  </linearGradient>
 </defs>
 <g>
  
  
  
 </g>
 <g transform="matrix(0,-1,1,0,0,48)" style="fill:url(#linearGradient4206);fill-opacity:1">
  <path d="M 24,1 C 46.703,1 47,1.297 47,24 47,46.703 46.703,47 24,47 1.297,47 1,46.703 1,24 1,1.297 1.297,1 24,1 Z"/>
 </g>
 <g transform="translate(1,1.001)" style="fill:#000;opacity:0.1;fill-opacity:1">
  <g>
   <!-- color: #f9f9f9 -->
  </g>
 </g>
 <g transform="translate(0,10e-4)" style="fill:#ded9d5;fill-opacity:1">
  <g>
   <!-- color: #f9f9f9 -->
  </g>
 </g>
 <g>
  
 </g>
 <path d="m 16 15 0 15 c 0 4 3 7 9 7 6 0 9 -3 9 -7 l 0 -15 -4 0 0 14 c 0 3 -1.565 5 -5 5 -3.435 0 -5 -2 -5 -5 l 0 -14 z" style="fill:#000;opacity:0.1;fill-opacity:1;stroke:none"/>
 <path d="m 15 14 0 15 c 0 4 3 7 9 7 6 0 9 -3 9 -7 l 0 -15 -4 0 0 14 c 0 3 -1.565 5 -5 5 -3.435 0 -5 -2 -5 -5 l 0 -14 z" style="fill:#ded9d5;opacity:1;fill-opacity:1;stroke:none"/>
</svg>
