<svg viewBox="0 0 48 48" xmlns="http://www.w3.org/2000/svg" xmlns:xlink="http://www.w3.org/1999/xlink">
  <linearGradient id="a" gradientUnits="userSpaceOnUse" x2="0" y1="47" y2="1">
    <stop offset="0" stop-color="#f0e8cc"/>
    <stop offset="1" stop-color="#f5efdb"/>
  </linearGradient>
  <path d="m24 1c22.703 0 23 .297 23 23 0 22.703-.297 23-23 23-22.703 0-23-.297-23-23 0-22.703.297-23 23-23z" fill="url(#a)"/>
  <path d="m25 12c-.552 0-1 .448-1 1l-12 10v2h12.5v9h-.5v3.5c0 .277.223.5.5.5h1c .277 0 .5-.223.5-.5v-3.5h-.5v-9h12.5v-2l-12-10c0-.552-.448-1-1-1z" fill-opacity=".098"/>
  <g transform="translate(0 1)">
    <path d="m27 20.5h6v2.5h-6z" fill="#d8dee0"/>
    <path d="m23.5 18h1v15h-1z" fill="#7d7d7d"/>
    <path d="m25 32v3.5c0 .277-.223.5-.5.5h-1c-.277 0-.5-.223-.5-.5v-3.5z" fill="#424242"/>
    <circle cx="24" cy="11" fill="#8c8c8c" r="1"/>
    <path d="m15 21c2.032-.416 4.03-.349 6 0v2h-6z" fill="#d8dee0"/>
    <path d="m35 21h-22l10-10h2z" fill="#e1e9eb" fill-rule="evenodd"/>
    <path d="m20.5 21c .5-1 6.5-1 7 0v2h-7z" fill="#3d7389"/>
    <path d="m27.5 21h-7l3.25-10h .5z" fill="#3f839f" fill-rule="evenodd"/>
    <path d="m11 21l4.25-.5v2.5h-4.25z" fill="#3d7389"/>
    <path d="m15.25 21h-4.25l12-10h .25z" fill="#3f839f" fill-rule="evenodd"/>
    <path d="m32.75 20.5l4.25.5v2h-4.25z" fill="#3d7389"/>
    <path d="m32.75 21h4.25l-12-10h-.25" fill="#3f839f" fill-rule="evenodd"/>
  </g>
</svg>
