<svg viewBox="0 0 48 48" xmlns="http://www.w3.org/2000/svg" xmlns:xlink="http://www.w3.org/1999/xlink">
  <linearGradient id="a" gradientTransform="matrix(0 -1 1 0 -.0000015 47.999998)" gradientUnits="userSpaceOnUse" x1="1" x2="47">
    <stop offset="0" stop-color="#efefef"/>
    <stop offset="1" stop-color="#f9f9f9"/>
  </linearGradient>
  <path d="m47 24c0 22.703-.297 23-23 23-22.703 0-23-.297-23-23 0-22.703.297-23 23-23 22.703 0 23 .297 23 23z" fill="url(#a)"/>
  <path d="m18 12l-4 4h2l .105 12.402c.02 2.355.637 4.215 2.043 5.574 1.406 1.352 3.379 2.023 5.922 2.023 1.684 0 3.148-.301 4.383-.91 1.238-.609 1.875-1.492 2.523-2.637.66-1.145.918-2.473.918-3.996l.105-12.457h2l-4-4-4 4h2v13c0 1.594-.527 2.918-1.152 3.668-.613.738-1.297 1.113-2.668 1.113-1.414 0-2.43-.371-3.043-1.113-.613-.742-1.137-2.082-1.137-3.668v-13h2m-4-4" opacity=".1" transform="translate(1 1)"/>
  <path d="m18 12l-4 4h2l .105 12.402c.02 2.355.637 4.215 2.043 5.574 1.406 1.352 3.379 2.023 5.922 2.023 1.684 0 3.148-.301 4.383-.91 1.238-.609 1.875-1.492 2.523-2.637.66-1.145.918-2.473.918-3.996l.105-12.457h2l-4-4-4 4h2v13c0 1.594-.527 2.918-1.152 3.668-.613.738-1.297 1.113-2.668 1.113-1.414 0-2.43-.371-3.043-1.113-.613-.742-1.137-2.082-1.137-3.668v-13h2m-4-4" fill="#f2a900"/>
</svg>
