<svg viewBox="0 0 48 48" xmlns="http://www.w3.org/2000/svg" xmlns:xlink="http://www.w3.org/1999/xlink">
  <linearGradient id="a" gradientTransform="matrix(0 -1 1 0 -.0000015 47.999998)" gradientUnits="userSpaceOnUse" x1="1" x2="47">
    <stop offset="0" stop-color="#785048"/>
    <stop offset="1" stop-color="#845950"/>
  </linearGradient>
  <path d="m24 1c22.703 0 23 .297 23 23-22 14-22 14-46 0 0-22.703.297-23 23-23z" fill="url(#a)"/>
  <path d="m14 3.283c-1.421.687-2.76 1.52-4 2.473v19.244h4z" opacity=".1"/>
  <path d="m13 3.797c-.339.185-.672.379-1 .58v19.623h1v-20.2z" fill="#4c9cff"/>
  <path d="m12 4.377c-.339.208-.672.426-1 .65v18.973h1z" fill="#7de5a8"/>
  <path d="m11 5.03c-.34.234-.673.477-1 .729v18.244h1z" fill="#ffd468"/>
  <path d="m10 5.756c-.341.262-.674.536-1 .816v17.428h1z" fill="#ff2f6e"/>
  <path d="m35 25c0 5.523-4.477 10-10 10-5.523 0-10-4.477-10-10 0-5.523 4.477-10 10-10 5.523 0 10 4.477 10 10m0 0" opacity=".1"/>
  <path d="m31.887 10h4.227c.488 0 .887.398.887.887v4.227c0 .488-.398.887-.887.887h-4.227c-.488 0-.887-.398-.887-.887v-4.227c0-.488.398-.887.887-.887m0 0" opacity=".1"/>
  <path d="m1 24c0 22.703.297 23 23 23 22.703 0 23-.297 23-23z" fill="#dbc1ab"/>
  <path d="m34 24c0 5.523-4.477 10-10 10-5.523 0-10-4.477-10-10 0-5.523 4.477-10 10-10 5.523 0 10 4.477 10 10m0 0" fill="#e5d6c8"/>
  <path d="m32 24c0 4.418-3.582 8-8 8-4.418 0-8-3.582-8-8 0-4.418 3.582-8 8-8 4.418 0 8 3.582 8 8m0 0" fill="#5b5b5b"/>
  <path d="m30 24c0 3.313-2.688 6-6 6-3.313 0-6-2.688-6-6 0-3.313 2.688-6 6-6 3.313 0 6 2.688 6 6m0 0" fill="#84b295"/>
  <path d="m27 24c0 1.656-1.344 3-3 3-1.656 0-3-1.344-3-3 0-1.656 1.344-3 3-3 1.656 0 3 1.344 3 3m0 0" fill="#3c3c3c"/>
  <path d="m28 21c0 .551-.449 1-1 1-.551 0-1-.449-1-1 0-.551.449-1 1-1 .551 0 1 .449 1 1m0 0" fill="#fff" fill-opacity=".302"/>
  <path d="m22 25c0 .551-.445 1-1 1-.551 0-1-.449-1-1 0-.551.449-1 1-1 .555 0 1 .449 1 1m0 0" fill="#fff" fill-opacity=".302"/>
  <path d="m30.887 9h4.227c.488 0 .887.398.887.887v4.227c0 .488-.398.887-.887.887h-4.227c-.488 0-.887-.398-.887-.887v-4.227c0-.488.398-.887.887-.887m0 0" fill="#2f353d"/>
  <path d="m35 12c0 1.105-.895 2-2 2-1.105 0-2-.895-2-2 0-1.105.895-2 2-2 1.105 0 2 .895 2 2m0 0" fill="#282828"/>
</svg>
