<svg xmlns="http://www.w3.org/2000/svg" viewBox="0 0 48 48">
 <defs>
  <linearGradient id="linearGradient3764" x1="1" x2="47" gradientUnits="userSpaceOnUse" gradientTransform="matrix(0,-1,1,0,-1.5e-6,47.999998)">
   <stop style="stop-color:#1687b6;stop-opacity:1"/>
   <stop offset="1" style="stop-color:#1893c8;stop-opacity:1"/>
  </linearGradient>
 </defs>
 <g>
  
  
  
 </g>
 <g>
  <path d="m 47,24 C 47,46.703 46.703,47 24,47 1.297,47 1,46.703 1,24 1,1.297 1.297,1 24,1 46.703,1 47,1.297 47,24 z" style="fill:url(#linearGradient3764);fill-opacity:1"/>
 </g>
 <g>
  <g>
   <g transform="translate(1,1)">
    <g style="opacity:0.1">
     <!-- color: #1893c8 -->
     <g>
      <path d="m 17 35 l 0 -16 l -5 0 l 0 16 m 5 0" style="fill:#000;fill-opacity:1;stroke:none;fill-rule:evenodd"/>
      <path d="m 25 35 l 0 -9 c 0 -2 1 -3 3 -3 c 2 0 3 1 3 3 l 0 9 l 5 0 l 0 -9 c 0 -4.766 -2.613 -7 -6 -7 c -2.164 0.066 -3.734 1.523 -5 3 l 0 -3 l -5 0 c 0.066 1.457 0 16 0 16 m 5 0" style="fill:#000;fill-opacity:1;stroke:none;fill-rule:evenodd"/>
      <path d="m 17 15.5 c 0 1.379 -1.121 2.5 -2.5 2.5 c -1.379 0 -2.5 -1.121 -2.5 -2.5 c 0 -1.379 1.121 -2.5 2.5 -2.5 c 1.379 0 2.5 1.121 2.5 2.5 m 0 0" style="fill:#000;fill-opacity:1;stroke:none;fill-rule:nonzero"/>
     </g>
    </g>
   </g>
  </g>
 </g>
 <g>
  <g>
   <!-- color: #1893c8 -->
   <g>
    <path d="m 17 35 l 0 -16 l -5 0 l 0 16 m 5 0" style="fill:#f9f9f9;fill-opacity:1;stroke:none;fill-rule:evenodd"/>
    <path d="m 25 35 l 0 -9 c 0 -2 1 -3 3 -3 c 2 0 3 1 3 3 l 0 9 l 5 0 l 0 -9 c 0 -4.766 -2.613 -7 -6 -7 c -2.164 0.066 -3.734 1.523 -5 3 l 0 -3 l -5 0 c 0.066 1.457 0 16 0 16 m 5 0" style="fill:#f9f9f9;fill-opacity:1;stroke:none;fill-rule:evenodd"/>
    <path d="m 17 15.5 c 0 1.379 -1.121 2.5 -2.5 2.5 c -1.379 0 -2.5 -1.121 -2.5 -2.5 c 0 -1.379 1.121 -2.5 2.5 -2.5 c 1.379 0 2.5 1.121 2.5 2.5 m 0 0" style="fill:#f9f9f9;fill-opacity:1;stroke:none;fill-rule:nonzero"/>
   </g>
  </g>
 </g>
 <g>
  
 </g>
</svg>
