<svg xmlns="http://www.w3.org/2000/svg" viewBox="0 0 48 48">
 <defs>
  <linearGradient id="linearGradient4244" y1="1" x2="0" y2="47" gradientUnits="userSpaceOnUse">
   <stop style="stop-color:#2a3644;stop-opacity:1"/>
   <stop offset="1" style="stop-color:#222c38;stop-opacity:1"/>
  </linearGradient>
 </defs>
 <path d="M 24,1 C 46.703,1 47,1.297 47,24 47,46.703 46.703,47 24,47 1.297,47 1,46.703 1,24 1,1.297 1.297,1 24,1 Z" style="fill:url(#linearGradient4244);fill-opacity:1"/>
 <path d="m 26.908 25 5.202 -9.07 2.514 9.07 -2.514 9.06 -5.202 -9.06 z m -2.535 1.472 5.203 9.06 -9.06 -2.343 -6.546 -6.721 10.404 0 z m 5.201 -12.01 -5.201 9.07 -10.404 0 6.546 -6.722 9.06 -2.344 z m 7.426 7.454 -3.174 -11.916 -11.845 3.193 -1.753 3.111 -3.558 -0.026 -8.67 8.723 l 8.67 8.721 0 0 3.556 -0.027 1.756 3.111 l 11.844 3.193 3.174 -11.914 -1.802 -3.086 1.802 -3.085" style="fill:#000;opacity:0.1;fill-opacity:1;stroke:none;fill-rule:nonzero"/>
 <path d="m 25.908 24 5.202 -9.07 2.514 9.07 -2.514 9.06 -5.202 -9.06 z m -2.535 1.472 5.203 9.06 -9.06 -2.343 -6.546 -6.721 10.404 0 z m 5.201 -12.01 -5.201 9.07 -10.404 0 6.546 -6.722 9.06 -2.344 z m 7.426 7.454 -3.174 -11.916 -11.845 3.193 -1.753 3.111 -3.558 -0.026 -8.67 8.723 l 8.67 8.721 0 0 3.556 -0.027 1.756 3.111 l 11.844 3.193 3.174 -11.914 -1.802 -3.086 1.802 -3.085" style="fill:#e8eef2;fill-opacity:1;stroke:none;fill-rule:nonzero"/>
</svg>
