<svg viewBox="0 0 48 48" xmlns="http://www.w3.org/2000/svg" xmlns:xlink="http://www.w3.org/1999/xlink">
  <linearGradient id="a" gradientTransform="matrix(0 -1 1 0 -.0000015 47.999998)" gradientUnits="userSpaceOnUse" x1="1" x2="47">
    <stop offset="0" stop-color="#ede9ce"/>
    <stop offset="1" stop-color="#f3f0dd"/>
  </linearGradient>
  <path d="m47 24c0 22.703-.297 23-23 23-22.703 0-23-.297-23-23 0-22.703.297-23 23-23 22.703 0 23 .297 23 23z" fill="url(#a)"/>
  <g transform="scale(3.543307)">
    <g fill-opacity=".098" transform="matrix(.28222223 0 0 .28222223 .28222231 .28222228)">
      <path d="m21 12h15v3h-15z" fill-rule="evenodd"/>
      <path d="m21 33h15v3h-15z" fill-rule="evenodd"/>
      <path d="m26 26h10v3h-10z" fill-rule="evenodd"/>
      <path d="m26 19.1h10v3h-10z" fill-rule="evenodd"/>
      <path d="m12 14v20h2c1-5 4-8 9-10-5-2-8-6-9-10z"/>
    </g>
    <g transform="scale(.28222223)">
      <path d="m21 12h15v3h-15z" fill="#8989cb" fill-rule="evenodd"/>
      <path d="m21 33h15v3h-15z" fill="#8989cb" fill-rule="evenodd"/>
      <path d="m26 26h10v3h-10z" fill="#49a749" fill-rule="evenodd"/>
      <path d="m26 19.1h10v3h-10z" fill="#49a749" fill-rule="evenodd"/>
      <path d="m12 14v20h2c1-5 4-8 9-10-5-2-8-6-9-10z" fill="#49a749"/>
    </g>
  </g>
</svg>
