<svg viewBox="0 0 48 48" xmlns="http://www.w3.org/2000/svg" xmlns:xlink="http://www.w3.org/1999/xlink">
  <linearGradient id="a" gradientUnits="userSpaceOnUse" x2="0" y1="47" y2="1">
    <stop offset="0" stop-color="#2483cc"/>
    <stop offset="1" stop-color="#50a7e9"/>
  </linearGradient>
  <path d="m24 1c22.703 0 23 .297 23 23 0 22.703-.297 23-23 23-22.703 0-23-.297-23-23 0-22.703.297-23 23-23z" fill="url(#a)"/>
  <g opacity=".1" transform="translate(0 2)">
    <path d="m11 27l12 6h7l7-6z"/>
    <path d="m11 27h26l-1 1h-24z"/>
    <path d="m25 27v-10c0 0-8.299 2.68-8 6 .268 2.969 8 4 8 4z"/>
    <path d="m30 13v14c0 0-9-3.199-9-7 0-3.801 9-7 9-7z"/>
    <path d="m30 13v-2l-3 1z"/>
  </g>
  <g transform="translate(-1 1)">
    <path d="m11 27l12 6h7l7-6z" fill="#784421"/>
    <path d="m11 27h26l-1 1h-24z" fill="#d4aa00"/>
    <path d="m25 27v-10c0 0-8.299 2.68-8 6 .268 2.969 8 4 8 4z" fill="#ccc"/>
    <path d="m30 13v14c0 0-9-3.199-9-7 0-3.801 9-7 9-7z" fill="#ececec"/>
    <path d="m30 13v-2l-3 1z" fill="#c83737"/>
  </g>
</svg>
