<svg xmlns="http://www.w3.org/2000/svg" viewBox="0 0 48 48">
 <defs>
  <linearGradient id="linearGradient3797" y1="47" x2="0" y2="1" gradientUnits="userSpaceOnUse">
   <stop style="stop-color:#e2a8db;stop-opacity:1"/>
   <stop offset="1" style="stop-color:#e7b7e1;stop-opacity:1"/>
  </linearGradient>
 </defs>
 <g>
  
  
  
 </g>
 <path d="M 24,1 C 46.703,1 47,1.297 47,24 47,46.703 46.703,47 24,47 1.297,47 1,46.703 1,24 1,1.297 1.297,1 24,1 z" style="fill:url(#linearGradient3797);fill-opacity:1"/>
 <g>
  
 </g>
 <g transform="translate(0,1.621354e-4)">
  <path d="m 17.609 10 c -0.918 0.016 -1.845 0.189 -2.712 0.524 l 4.656 4.656 c 0.793 0.793 1.15 1.928 0.869 3.02 -0.281 1.094 -1.133 1.941 -2.223 2.223 -1.09 0.281 -2.224 -0.072 -3.02 -0.87 l -4.655 -4.655 c -1.082 2.77 -0.504 6.068 1.735 8.299 2.238 2.238 5.527 2.813 8.297 1.731 l 12.1 12.11 c 0.773 0.82 1.942 1.148 3.02 0.871 1.09 -0.273 1.938 -1.133 2.223 -2.223 0.281 -1.09 -0.047 -2.254 -0.867 -3.02 l -12.1 -12.1 c 1.082 -2.77 0.508 -6.07 -1.731 -8.297 -1.535 -1.539 -3.57 -2.285 -5.59 -2.254 m 18.2 25.806 c -0.548 0.549 -1.737 0.451 -2.377 -0.19 -0.64 -0.641 -0.738 -1.829 -0.19 -2.378 0.548 -0.549 1.731 -0.457 2.377 0.19 0.646 0.647 0.738 1.829 0.19 2.378 z" transform="matrix(0.4571437,0.38958561,-0.45701485,0.38947587,24.999544,4.0974988)" style="fill:#000;opacity:0.1;stroke:none;fill-rule:nonzero"/>
  <g transform="matrix(0.90795448,0,0,0.96488326,2.3785102,1.1316485)" style="fill:#000;fill-opacity:1;stroke:none">
   <path d="m 24.915 38.21 c -1.898 0 -3.546 -0.293 -4.942 -0.879 -1.396 -0.586 -2.541 -1.382 -3.434 -2.387 -0.893 -1.033 -1.563 -2.247 -2.01 -3.643 -0.419 -1.396 -0.628 -2.904 -0.628 -4.523 l 0 -13.441 4.406 0 0 12.98 c 0 2.904 0.299 5.01 1.583 6.323 1.284 1.312 2.959 1.954 5.03 1.968 2.083 0.014 3.635 -0.623 5.03 -1.968 1.327 -1.285 1.546 -4.202 1.583 -6.323 l 0 -12.98 4.406 0 0 13.441 c 0 1.619 -0.223 3.127 -0.67 4.523 -0.419 1.396 -1.089 2.61 -2.01 3.643 -0.893 1.01 -2.038 1.801 -3.434 2.387 -1.368 0.586 -3 0.879 -4.9 0.879 z" style="opacity:0.1"/>
  </g>
 </g>
 <g transform="translate(0,1.621354e-4)">
  <path d="m 17.609 10 c -0.918 0.016 -1.845 0.189 -2.712 0.524 l 4.656 4.656 c 0.793 0.793 1.15 1.928 0.869 3.02 -0.281 1.094 -1.133 1.941 -2.223 2.223 -1.09 0.281 -2.224 -0.072 -3.02 -0.87 l -4.655 -4.655 c -1.082 2.77 -0.504 6.068 1.735 8.299 2.238 2.238 5.527 2.813 8.297 1.731 l 12.1 12.11 c 0.773 0.82 1.942 1.148 3.02 0.871 1.09 -0.273 1.938 -1.133 2.223 -2.223 0.281 -1.09 -0.047 -2.254 -0.867 -3.02 l -12.1 -12.1 c 1.082 -2.77 0.508 -6.07 -1.731 -8.297 -1.535 -1.539 -3.57 -2.285 -5.59 -2.254 m 18.2 25.806 c -0.548 0.549 -1.737 0.451 -2.377 -0.19 -0.64 -0.641 -0.738 -1.829 -0.19 -2.378 0.548 -0.549 1.731 -0.457 2.377 0.19 0.646 0.647 0.738 1.829 0.19 2.378 z" transform="matrix(0.4571437,0.38958561,-0.45701485,0.38947587,23.999544,3.0974988)" style="fill:#77216f;fill-opacity:1;stroke:none;fill-rule:nonzero"/>
  <path d="M 24,37 C 22.276,37 20.781,36.717 19.513,36.151 18.246,35.585 17.206,34.818 16.395,33.848 15.584,32.851 14.975,31.679 14.57,30.333 14.19,28.986 14,27.531 14,25.969 L 14,13 l 4,0 0,12.524 c 0,2.802 0.271,4.835 1.437,6.101 1.166,1.266 2.687,1.885 4.563,1.899 1.891,0.014 3.301,-0.601 4.563,-1.899 1.205,-1.239 1.404,-4.054 1.437,-6.101 L 30,13 l 4,0 0,12.969 c 0,1.562 -0.203,3.02 -0.608,4.364 -0.38,1.347 -0.989,2.519 -1.825,3.515 -0.811,0.97 -1.85,1.737 -3.118,2.303 C 27.207,36.717 25.724,37 24,37" style="fill:#77216f;fill-opacity:1;stroke:none"/>
 </g>
</svg>
