<svg viewBox="0 0 48 48" xmlns="http://www.w3.org/2000/svg" xmlns:xlink="http://www.w3.org/1999/xlink">
  <linearGradient id="a" gradientTransform="matrix(0 -1 1 0 -.0000015 47.999998)" gradientUnits="userSpaceOnUse" x1="1" x2="47">
    <stop offset="0" stop-color="#343a44"/>
    <stop offset="1" stop-color="#3c4350"/>
  </linearGradient>
  <radialGradient id="b" cx="24" cy="18" gradientUnits="userSpaceOnUse" r="4.5">
    <stop offset="0" stop-color="#f5f5af"/>
    <stop offset="1" stop-color="#f1f18b"/>
  </radialGradient>
  <path d="m47 24c0 22.703-.297 23-23 23-22.703 0-23-.297-23-23 0-22.703.297-23 23-23 22.703 0 23 .297 23 23z" fill="url(#a)"/>
  <path d="m25 12l-8 3h3.076l1.5 9h2.424v11c-.554 0-1 .446-1 1v2h4v-2c0-.554-.446-1-1-1v-11h2.424l1.5-9h3.076z" fill-opacity=".098" fill-rule="evenodd"/>
  <path d="m21 22.5h6l1.5-9h-9z" fill="url(#b)" fill-rule="evenodd"/>
  <path d="m23 22.5h2v13h-2z" fill="#858585"/>
  <path d="m18.91 13l1.666 10c2.283 0 4.565 0 6.848 0l1.666-10zm1.182 1h7.816l-1.332 8h-5.152z" fill="#858585" fill-rule="evenodd"/>
  <path d="m24 11l8 3h-16z" fill="#858585"/>
  <path d="m23 34h2c .554 0 1 .446 1 1v2h-4v-2c0-.554.446-1 1-1z" fill="#858585"/>
  <path d="m19.09 14l .166 1h9.484l.166-1z" fill-opacity=".098"/>
  <path d="m23 23h2v1h-2z" fill-opacity=".098"/>
</svg>
