<svg viewBox="0 0 48 48" xmlns="http://www.w3.org/2000/svg" xmlns:xlink="http://www.w3.org/1999/xlink">
  <linearGradient id="a" gradientUnits="userSpaceOnUse" x1="1" x2="47">
    <stop offset="0" stop-color="#53b556"/>
    <stop offset="1" stop-color="#61bb64"/>
  </linearGradient>
  <path d="m24 1c22.703 0 23 .297 23 23 0 22.703-.297 23-23 23-22.703 0-23-.297-23-23 0-22.703.297-23 23-23z" fill="url(#a)" transform="matrix(0 -1 1 0 0 48)"/>
  <path d="m13 12v5h3a17 17 0 0 1 17 17v3h5v-3a22 22 0 0 0-22-22zm0 10v5h2.5c4.142 0 7.5 3.358 7.5 7.5v2.5h5v-2.5c0-6.904-5.596-12.5-12.5-12.5zm3 9a3 3 0 0 0-3 3 3 3 0 0 0  3 3 3 3 0 0 0  3-3 3 3 0 0 0-3-3z" opacity=".1"/>
  <circle cx="15" cy="33" fill="#1e4821" r="3"/>
  <path d="m12 21v5h2.5c4.142 0 7.5 3.358 7.5 7.5v2.5h5v-2.5c0-6.904-5.596-12.5-12.5-12.5" fill="#1e4821"/>
  <path d="m12 11v5h3a17 17 0 0 1 17 17v3h5v-3a22 22 0 0 0-22-22z" fill="#1e4821"/>
</svg>
