<svg xmlns="http://www.w3.org/2000/svg" viewBox="0 0 48 48">
 <defs>
  <linearGradient id="linearGradient3764" x1="1" x2="47" gradientUnits="userSpaceOnUse" gradientTransform="matrix(0,-1,1,0,-1.5e-6,47.999998)">
   <stop style="stop-color:#2a5794;stop-opacity:1"/>
   <stop offset="1" style="stop-color:#2f61a3;stop-opacity:1"/>
  </linearGradient>
 </defs>
 <g>
  
  
  
 </g>
 <g>
  <path d="m 47,24 C 47,46.703 46.703,47 24,47 1.297,47 1,46.703 1,24 1,1.297 1.297,1 24,1 46.703,1 47,1.297 47,24 z" style="fill:url(#linearGradient3764);fill-opacity:1"/>
 </g>
 <g>
  
 </g>
 <path d="m 25 12 c -1.657 0 -3 1.343 -3 3 0 1.27 0.803 2.401 2 2.824 l 0 3.676 -4.592 3.82 c -0.223 0.152 -0.408 0.418 -0.408 0.68 l 0 1.992 -1 0.008 0 4 4 0 0 -4 -1 0 0 -1.5 3 -2.5 0 10 -2 0 3 5 3 -5 -2 0 0 -12.5 3 2.5 0 2.271 c -0.618 0.357 -1 1.015 -1 1.729 -0.001 1.105 0.895 2 2 2 1.105 0 2 -0.895 2 -2 0 -0.714 -0.382 -1.373 -1 -1.73 l 0 -2.77 c 0 -0.246 -0.144 -0.519 -0.34 -0.68 l -4.66 -3.82 0 -1.174 c 1.198 -0.424 2 -1.556 2 -2.826 0.001 -1.657 -1.343 -3 -3 -3 z" style="fill:#000;opacity:0.1;fill-opacity:1;stroke:none;fill-rule:nonzero"/>
 <path d="m 24 11 c -1.657 0 -3 1.343 -3 3 0 1.27 0.803 2.401 2 2.824 l 0 3.676 -4.592 3.82 c -0.223 0.152 -0.408 0.418 -0.408 0.68 l 0 1.992 -1 0.008 0 4 4 0 0 -4 -1 0 0 -1.5 3 -2.5 0 10 -2 0 3 5 3 -5 -2 0 0 -12.5 3 2.5 0 2.271 c -0.618 0.357 -1 1.015 -1 1.729 -0.001 1.105 0.895 2 2 2 1.105 0 2 -0.895 2 -2 0 -0.714 -0.382 -1.373 -1 -1.73 l 0 -2.77 c 0 -0.246 -0.144 -0.519 -0.34 -0.68 l -4.66 -3.82 0 -1.174 c 1.198 -0.424 2 -1.556 2 -2.826 0.001 -1.657 -1.343 -3 -3 -3 z" style="fill:#f9f9f9;fill-opacity:1;stroke:none;fill-rule:nonzero"/>
</svg>
