<svg viewBox="0 0 48 48" xmlns="http://www.w3.org/2000/svg" xmlns:xlink="http://www.w3.org/1999/xlink">
  <linearGradient id="a" gradientTransform="matrix(0 -1 1 0 -.0000015 47.999998)" gradientUnits="userSpaceOnUse" x1="1" x2="47">
    <stop offset="0" stop-color="#71cc66"/>
    <stop offset="1" stop-color="#7fd175"/>
  </linearGradient>
  <path d="m47 24c0 22.703-.297 23-23 23-22.703 0-23-.297-23-23 0-22.703.297-23 23-23 22.703 0 23 .297 23 23z" fill="url(#a)"/>
  <g transform="matrix(3.543307 0 0 3.543307 -.00000003 .00315058)">
    <path d="m7.06 2.822c-2.338 0-4.233 1.895-4.233 4.233 0 2.338 1.895 4.233 4.233 4.233 2.338 0 4.233-1.895 4.233-4.233 0-2.338-1.895-4.233-4.233-4.233z" opacity=".1"/>
    <ellipse cx="-15.542" cy="20.04" fill="#51c3c9" rx="9.218" ry="9.52" transform="matrix(.42864748 0 0 .41501558 13.435426 -1.5453886)"/>
    <path d="m6.491 5.644v3.387h.564v-3.387z" fill="#eee"/>
    <path d="m7.06 4.798c0 .156-.126.282-.282.282-.156 0-.282-.126-.282-.282 0-.156.126-.282.282-.282.156 0 .282.126.282.282z" fill="#eee"/>
    <path d="m24 9c-8.284 0-15 6.716-15 15 0 8.284 6.716 15 15 15 8.284 0 15-6.716 15-15 0-8.284-6.716-15-15-15m0 2c7.18 0 13 5.82 13 13 0 7.18-5.82 13-13 13-7.18 0-13-5.82-13-13 0-7.18 5.82-13 13-13z" fill="#eee" transform="scale(.28222223)"/>
  </g>
</svg>
