<svg viewBox="0 0 48 48" xmlns="http://www.w3.org/2000/svg" xmlns:xlink="http://www.w3.org/1999/xlink">
  <linearGradient id="a" gradientTransform="matrix(0 -1 1 0 -.0000015 47.999998)" gradientUnits="userSpaceOnUse" x1="1" x2="47">
    <stop offset="0" stop-color="#1eb697"/>
    <stop offset="1" stop-color="#21c7a6"/>
  </linearGradient>
  <path d="m47 24c0 22.703-.297 23-23 23-22.703 0-23-.297-23-23 0-22.703.297-23 23-23 22.703 0 23 .297 23 23z" fill="url(#a)"/>
  <path d="m20 11l-5.125 12h-10.875v1.996h12.566l3.438-8 2.559 6 6 14 5.129-12h10.309v-2h-12l-3.438 8-3.438-8-5.121-12m-.004.004" opacity=".1" transform="translate(1 1)"/>
  <path d="m20 11l-5.125 12h-10.875v1.996h12.566l3.438-8 2.559 6 6 14 5.129-12h10.309v-2h-12l-3.438 8-3.438-8-5.121-12m-.004.004" fill="#ffdec8"/>
</svg>
