<svg xmlns="http://www.w3.org/2000/svg" viewBox="0 0 48 48">
 <defs>
  <linearGradient id="linearGradient3764" x1="1" x2="47" gradientUnits="userSpaceOnUse" gradientTransform="matrix(0,-1,1,0,-1.5e-6,47.999998)">
   <stop style="stop-color:#1eb697;stop-opacity:1"/>
   <stop offset="1" style="stop-color:#21c7a6;stop-opacity:1"/>
  </linearGradient>
 </defs>
 <g>
  
  
  
 </g>
 <g>
  <path d="m 47,24 C 47,46.703 46.703,47 24,47 1.297,47 1,46.703 1,24 1,1.297 1.297,1 24,1 46.703,1 47,1.297 47,24 z" style="fill:url(#linearGradient3764);fill-opacity:1"/>
 </g>
 <g>
  <g>
   <g transform="translate(1,1)">
    <g style="opacity:0.1">
     <!-- color: #21c7a6 -->
     <g>
      <path d="m 20 11 l -5.125 12 l -10.875 0 l 0 1.996 l 12.566 0 l 3.438 -8 l 2.559 6 l 6 14 l 5.129 -12 l 10.309 0 l 0 -2 l -12 0 l -3.438 8 l -3.438 -8 l -5.121 -12 m -0.004 0.004" style="fill:#000;fill-opacity:1;stroke:none;fill-rule:nonzero"/>
     </g>
    </g>
   </g>
  </g>
 </g>
 <g>
  <g>
   <!-- color: #21c7a6 -->
   <g>
    <path d="m 20 11 l -5.125 12 l -10.875 0 l 0 1.996 l 12.566 0 l 3.438 -8 l 2.559 6 l 6 14 l 5.129 -12 l 10.309 0 l 0 -2 l -12 0 l -3.438 8 l -3.438 -8 l -5.121 -12 m -0.004 0.004" style="fill:#ffdec8;fill-opacity:1;stroke:none;fill-rule:nonzero"/>
   </g>
  </g>
 </g>
 <g>
  
 </g>
</svg>
