<svg viewBox="0 0 48 48" xmlns="http://www.w3.org/2000/svg" xmlns:xlink="http://www.w3.org/1999/xlink">
  <linearGradient id="a" gradientTransform="matrix(0 -1 1 0 -.0000015 47.999998)" gradientUnits="userSpaceOnUse" x1="1" x2="47">
    <stop offset="0" stop-color="#cfcfcf"/>
    <stop offset="1" stop-color="#d9d9d9"/>
  </linearGradient>
  <path d="m47 24c0 22.703-.297 23-23 23-22.703 0-23-.297-23-23 0-22.703.297-23 23-23 22.703 0 23 .297 23 23z" fill="url(#a)"/>
  <g transform="translate(0 -1.0000003)">
    <path d="m17 38c-1 0-2-1-2-2 0-1 0-12 0-13 0-1 1-2 2-2 1 0 2 0 2 0 0 0 0-2.806 0-4 0-3 3-4.999 6-5 3 0 6 2 6 5 0 2.183 0 4 0 4 0 0 1 0 2 0 1 0 2 1 2 2 0 1 0 12 0 13 0 1-1 2-2 2-1 0-15 0-16 0z" fill-opacity=".118"/>
    <path d="m100.39 511.96c-19.458 0-38.916-19.695-38.916-39.39 0-19.695 0-236.34 0-256.03 0-19.695 19.458-39.39 38.916-39.39 19.458 0 38.916 0 38.916 0 0 0 0-55.26 0-78.78 0-59.08 58.37-98.46 116.75-98.47 58.37-.006 116.75 39.38 116.75 98.47 0 43 0 78.78 0 78.78 0 0 19.458 0 38.916 0 19.458 0 38.916 19.695 38.916 39.39 0 19.695 0 236.34 0 256.03 0 19.695-19.458 39.39-38.916 39.39-19.458 0-291.87 0-311.33 0z" fill="#232323" transform="matrix(.0513929 0 0 .05077477 10.840808 11.00548)"/>
    <path d="m24 13.5c-2.071 0-3.75 1.455-3.75 3.25.019 2.25 1.563 3.25 3.75 3.25.338 0 .688-.052 1-.125-.077.814-.463 1.533-1 2.125 2.779-1.177 3.767-3 3.75-5.25 0-1.795-1.679-3.25-3.75-3.25zm0 14.7c-.293 0-4 .8-4 3.8v1c0 .731.442 1 1 1h6c .551 0 1-.389 1-1v-1c0-3-3.707-3.8-4-3.8z" fill="#f2f2f2"/>
    <path d="m26 26c0 1.105-.895 2-2 2-1.105 0-2-.895-2-2 0-1.105.895-2 2-2 1.105 0 2 .895 2 2z" fill="#f2f2f2" transform="matrix(1.5 0 0 1.45 -12 -11.8)"/>
  </g>
</svg>
