<svg viewBox="0 0 48 48" xmlns="http://www.w3.org/2000/svg" xmlns:xlink="http://www.w3.org/1999/xlink">
  <linearGradient id="a" gradientTransform="matrix(0 -1 1 0 0 48)" gradientUnits="userSpaceOnUse" x1="1" x2="47">
    <stop offset="0" stop-color="#2f3549"/>
    <stop offset="1" stop-color="#373e55"/>
  </linearGradient>
  <path d="m24 47c-22.703 0-23-.297-23-23 0-22.703.297-23 23-23 22.703 0 23 .297 23 23 0 22.703-.297 23-23 23z" fill="url(#a)"/>
  <path d="m11 16l7-2 8 20 6-10c1.755-3 0-3.565 0-6 0-2.402 1-4 2.516-4 1.484 0 2.484 1.765 2.484 4 0 4-2 3.343-4 7l-9 15-9-22z" opacity=".1"/>
  <path d="m10 15l7-2 8 20 6-10c1.755-3 0-3.565 0-6 0-2.402 1-4 2.516-4 1.484 0 2.484 1.765 2.484 4 0 4-2 3.343-4 7l-9 15-9-22z" fill="#fbf6dc"/>
</svg>
