<svg viewBox="0 0 48 48" xmlns="http://www.w3.org/2000/svg" xmlns:xlink="http://www.w3.org/1999/xlink">
  <linearGradient id="a" gradientTransform="matrix(0 -1 1 0 -.0000015 47.999998)" gradientUnits="userSpaceOnUse" x1="1" x2="47">
    <stop offset="0" stop-color="#474747"/>
    <stop offset="1" stop-color="#515151"/>
  </linearGradient>
  <path d="m47 24c0 22.703-.297 23-23 23-22.703 0-23-.297-23-23 0-22.703.297-23 23-23 22.703 0 23 .297 23 23z" fill="url(#a)"/>
  <g opacity=".1" transform="translate(1 1)">
    <path d="m33.34 13c-2.066 0-3.113.723-3.938 1.723-.824 1-1.316 2.332-1.879 3.477-.379.77-1.227 3.629-2.01 6.328-.391 1.352-.777 2.691-1.145 3.809-.363 1.117-.641 1.953-1.063 2.594-.695 1.055-1.813 1.652-2.938 1.652-.395 0-.789-.074-1.168-.219 1.336 1.879 4.414 4.926 8.01-.152 2.484-3.52 3.316-11.1 5.086-13.953 2.23-3.629 3.355-2.773 3.633-2.469.051-.297.078-.605.063-.902-.023-.547-.16-.965-.48-1.273-.32-.313-.922-.605-2.176-.605m0 0"/>
    <path d="m16.523 16.199c.531.609.957 1.383 1.215 2.293.574 2.039.684 4.57.813 6.797.066 1.117.133 2.152.238 2.965.105.813.309 1.418.371 1.508.34.52.777.715 1.211.715.434 0 .871-.195 1.211-.715.09-.137.418-.895.742-1.852-.547-.234-1.34-1.531-1.953-6.5-.352-2.867-2.422-4.449-3.848-5.211m0 0"/>
    <path d="m13.25 16.711c-.262 0-.484.074-.66.199-.234.164-.438.434-.531.992l-.059-.012c.039 1.531 1.035 2.543 1.035 2.543 0 0 0-1.055 1.035-1.578.563-.285 1.258.176 1.785.66-.035-.152-.074-.301-.113-.445-.422-1.496-1.43-2.211-2.211-2.336-.098-.016-.191-.023-.281-.023m0 0"/>
  </g>
  <path d="m33.34 13c-2.066 0-3.113.723-3.938 1.723-.824 1-1.316 2.332-1.879 3.477-.379.77-1.227 3.629-2.01 6.328-.391 1.352-.777 2.691-1.145 3.809-.363 1.117-.641 1.953-1.063 2.594-.695 1.055-1.813 1.652-2.938 1.652-.395 0-.789-.074-1.168-.219 1.336 1.879 4.414 4.926 8.01-.152 2.484-3.52 3.316-11.1 5.086-13.953 2.23-3.629 3.355-2.773 3.633-2.469.051-.297.078-.605.063-.902-.023-.547-.16-.965-.48-1.273-.32-.313-.922-.605-2.176-.605m0 0" fill="#fff"/>
  <path d="m16.523 16.199c.531.609.957 1.383 1.215 2.293.574 2.039.684 4.57.813 6.797.066 1.117.133 2.152.238 2.965.105.813.309 1.418.371 1.508.34.52.777.715 1.211.715.434 0 .871-.195 1.211-.715.09-.137.418-.895.742-1.852-.547-.234-1.34-1.531-1.953-6.5-.352-2.867-2.422-4.449-3.848-5.211m0 0" fill="#fff"/>
  <path d="m13.25 16.711c-.262 0-.484.074-.66.199-.234.164-.438.434-.531.992l-.059-.012c.039 1.531 1.035 2.543 1.035 2.543 0 0 0-1.055 1.035-1.578.563-.285 1.258.176 1.785.66-.035-.152-.074-.301-.113-.445-.422-1.496-1.43-2.211-2.211-2.336-.098-.016-.191-.023-.281-.023m0 0" fill="#fff"/>
</svg>
