<svg xmlns="http://www.w3.org/2000/svg" viewBox="0 0 48 48">
 <defs>
  <linearGradient id="linearGradient4283" y1="47" x2="0" y2="1" gradientUnits="userSpaceOnUse">
   <stop style="stop-color:#28365c;stop-opacity:1"/>
   <stop offset="1" style="stop-color:#2e3e6a;stop-opacity:1"/>
  </linearGradient>
 </defs>
 <g>
  
  
  
 </g>
 <g>
  <path d="m 24 1 c 22.703 0 23 0.297 23 23 c 0 22.703 -0.297 23 -23 23 -22.703 0 -23 -0.297 -23 -23 0 -22.703 0.297 -23 23 -23 z" style="fill:url(#linearGradient4283);fill-opacity:1"/>
 </g>
 <g>
  <g>
   <!-- color: #7dc06d -->
  </g>
 </g>
 <g>
  
 </g>
 <g>
  <g>
   <circle r="14.5" cy="25" cx="25" style="stroke-dasharray:3 3;stroke-opacity:0.098;fill:none;stroke-miterlimit:4;fill-opacity:1;stroke:#000;stroke-linecap:round;stroke-width:1;stroke-dashoffset:9"/>
   <path d="m 24.724 16.05 c -2.649 0.019 -5.586 1.75 -6.794 3.654 -3.112 3.88 0.243 12.154 2.884 9.02 0.507 -0.606 0.191 -0.586 -0.361 -1.401 -2.914 -4.298 -1.097 -7.68 3.547 -9 l 0 16.16 c 0.946 0.939 2.868 0.567 4.158 -0.665 1.882 -1.798 3.539 -4.602 4 -9.06 0.404 -3.904 -0.404 -8.427 -1.171 -8.553 -0.236 -0.039 -1.403 -0.091 -1.688 -0.116 -0.904 0.172 0.57 1.915 0.5 5.604 -0.106 5.614 -1.421 8.7 -3.8 10.838 l 0 -13.2 c 0 -3 0 -3.298 -1.276 -3.271 z" style="fill:#000;fill-opacity:0.098"/>
  </g>
  <circle r="14.5" cy="24" cx="24" style="stroke-dasharray:3 3;stroke-opacity:1;fill:none;stroke-miterlimit:4;fill-opacity:1;stroke:#9e998e;stroke-linecap:round;stroke-width:1;stroke-dashoffset:9"/>
  <path d="m 23.724 15.05 c -2.649 0.019 -5.586 1.75 -6.794 3.654 -3.112 3.88 0.243 12.154 2.884 9.02 0.507 -0.606 0.191 -0.586 -0.361 -1.401 -2.914 -4.298 -1.097 -7.68 3.547 -9 l 0 16.16 c 0.946 0.939 2.868 0.567 4.158 -0.665 1.882 -1.798 3.539 -4.602 4 -9.06 0.404 -3.904 -0.404 -8.427 -1.171 -8.553 -0.236 -0.039 -1.403 -0.091 -1.688 -0.116 -0.904 0.172 0.57 1.915 0.5 5.604 -0.106 5.614 -1.421 8.7 -3.8 10.838 l 0 -13.2 c 0 -3 0 -3.298 -1.276 -3.271 z" style="fill:#dedede;fill-opacity:1"/>
 </g>
</svg>
