<svg xmlns="http://www.w3.org/2000/svg" viewBox="0 0 48 48">
 <defs>
  <linearGradient id="linearGradient3764" x1="1" x2="47" gradientUnits="userSpaceOnUse" gradientTransform="matrix(0,-1,1,0,-1.5e-6,47.999998)">
   <stop style="stop-color:#8fdb45;stop-opacity:1"/>
   <stop offset="1" style="stop-color:#9ade56;stop-opacity:1"/>
  </linearGradient>
 </defs>
 <g>
  
  
  
 </g>
 <g>
  <path d="m 47,24 C 47,46.703 46.703,47 24,47 1.297,47 1,46.703 1,24 1,1.297 1.297,1 24,1 46.703,1 47,1.297 47,24 z" style="fill:url(#linearGradient3764);fill-opacity:1"/>
 </g>
 <g>
  <g>
   <g transform="translate(1,1)">
    <g style="opacity:0.1">
     <!-- color: #9ade56 -->
     <g>
      <path d="m 16 36 l 16 0 l 0 -2 l -7 0 l 0 -4.5 l -2 0 l 0 4.5 l -7 0 m 0 2" style="fill:#000;fill-opacity:1;stroke:none;fill-rule:nonzero"/>
      <path d="m 12 12 l 0 18 l 24 0 l 0 -18 m -22 2 l 19.996 0 l 0 14 l -19.996 0 m 0 -14" style="fill:#000;fill-opacity:1;stroke:none;fill-rule:nonzero"/>
      <path d="m 12.5 23 l 4.5 -7 l 6 9 l 4 -4 l 4 4 l 4.25 -4 l 0.5 8.5 l -23.25 0 m 0 -6.5" style="fill:#000;fill-opacity:1;stroke:none;fill-rule:nonzero"/>
     </g>
    </g>
   </g>
  </g>
 </g>
 <g>
  <g>
   <!-- color: #9ade56 -->
   <g>
    <path d="m 16 36 l 16 0 l 0 -2 l -7 0 l 0 -4.5 l -2 0 l 0 4.5 l -7 0 m 0 2" style="fill:#161616;fill-opacity:1;stroke:none;fill-rule:nonzero"/>
    <path d="m 12 12 l 0 18 l 24 0 l 0 -18 m -22 2 l 19.996 0 l 0 14 l -19.996 0 m 0 -14" style="fill:#161616;fill-opacity:1;stroke:none;fill-rule:nonzero"/>
    <path d="m 12.5 23 l 4.5 -7 l 6 9 l 4 -4 l 4 4 l 4.25 -4 l 0.5 8.5 l -23.25 0 m 0 -6.5" style="fill:#161616;fill-opacity:1;stroke:none;fill-rule:nonzero"/>
   </g>
  </g>
 </g>
 <g>
  
 </g>
</svg>
