<svg viewBox="0 0 48 48" xmlns="http://www.w3.org/2000/svg" xmlns:xlink="http://www.w3.org/1999/xlink">
  <linearGradient id="a" gradientTransform="matrix(0 -1 1 0 -.0000015 48)" gradientUnits="userSpaceOnUse" x1="1" x2="47">
    <stop offset="0" stop-color="#8fdb45"/>
    <stop offset="1" stop-color="#9ade56"/>
  </linearGradient>
  <path d="m36.31 5c5.859 4.062 9.688 10.831 9.688 18.5 0 12.426-10.07 22.5-22.5 22.5-7.669 0-14.438-3.828-18.5-9.688 1.037 1.822 2.306 3.499 3.781 4.969 4.085 3.712 9.514 5.969 15.469 5.969 22.703 0 23-10.298 23-23 0-5.954-2.256-11.384-5.969-15.469-1.469-1.475-3.147-2.744-4.969-3.781zm4.969 3.781c3.854 4.113 6.219 9.637 6.219 15.719 0 22.703-.297 23-23 23-6.081 0-11.606-2.364-15.719-6.219 4.16 4.144 9.883 6.719 16.219 6.719 22.703 0 23-10.298 23-23 0-6.335-2.575-12.06-6.719-16.219z" opacity=".05"/>
  <path d="m41.28 8.781c3.712 4.085 5.969 9.514 5.969 15.469 0 22.703-.297 23-23 23-5.954 0-11.384-2.256-15.469-5.969 4.113 3.854 9.637 6.219 15.719 6.219 22.703 0 23-10.298 23-23 0-6.081-2.364-11.606-6.219-15.719z" opacity=".1"/>
  <path d="m31.25 2.375c8.615 3.154 14.75 11.417 14.75 21.13 0 12.426-10.07 22.5-22.5 22.5-9.708 0-17.971-6.135-21.12-14.75a23 23 0 0 0 44.875-7 23 23 0 0 0-16-21.875z" opacity=".2"/>
  <path d="m24 1c22.703 0 23 .297 23 23s-.297 23-23 23-23-.297-23-23 .297-23 23-23z" fill="url(#a)"/>
  <g opacity=".1" transform="translate(30.601 10.635)">
    <path d="m-20 12v18h11v4h-7v2h16v-2h-7v-4h11v-18zm2 2h19.996v8.1797l-2.996 2.82-4-4-4 4-6-9-3 4.666v-6.666z" opacity="1" transform="translate(2.399 -9.635)"/>
    <path d="m-1.601 11.365l-8 4v-8z" opacity="1"/>
  </g>
  <path d="m12 12v18h11v4h-7v2h16v-2h-7v-4h11v-18zm2 2h19.996v14h-19.996z" fill="#161616"/>
  <path d="m17 16l-4.5 7v6.5h23.25l-.5-8.5-4.25 4-2.941-2.941-4.659 2.541-.4.4-.09-.133-3.91 2.133v-8z" fill="#161616"/>
  <path d="m28 21l-8 4v-8z" fill="#ff2a2a"/>
</svg>
