<svg xmlns="http://www.w3.org/2000/svg" viewBox="0 0 48 48">
 <defs>
  <linearGradient id="linearGradient3764" x1="1" x2="47" gradientUnits="userSpaceOnUse" gradientTransform="matrix(0,-1,1,0,-1.5e-6,47.999998)">
   <stop style="stop-color:#10a3e0;stop-opacity:1"/>
   <stop offset="1" style="stop-color:#16afef;stop-opacity:1"/>
  </linearGradient>
 </defs>
 <g>
  
  
  
 </g>
 <g>
  <path d="m 47,24 C 47,46.703 46.703,47 24,47 1.297,47 1,46.703 1,24 1,1.297 1.297,1 24,1 46.703,1 47,1.297 47,24 z" style="fill:url(#linearGradient3764);fill-opacity:1"/>
 </g>
 <g>
  <g>
   <g transform="translate(1,1)">
    <g style="opacity:0.1">
     <!-- color: #16afef -->
     <g>
      <path d="m 13 12 c -1 0 -1 0 -1 1 l 0 22 c 0 0.984 0 1 1 1 l 22 0 c 1 0 1 0 1 -1 l 0 -22 c 0 -1 0 -1 -1 -1 m -22 0" style="fill:#000;fill-opacity:0.392;stroke:none;fill-rule:nonzero"/>
      <path d="m 13 12 c -1 0 -1 0 -1 1 l 0 22 c 0 0.984 0 1 1 1 l 22 0 c 1 0 1 0 1 -1 l 0 -22 c 0 -1 0 -1 -1 -1 m -21 2 l 9.938 -0.031 c -1.277 4.891 -2.602 9.77 -3.902 14.652 c -2.031 -5.625 -0.031 -0.027 -2.031 -5.625 c -1 0 -3 0 -4 0 m 10.121 -9.03 l 9.875 0.031 l 0 8 l -3 0 c -2.559 -7.641 0 0 -2.563 -7.813 c -0.707 2.637 -1.418 5.273 -2.125 7.906 c -0.715 -2.711 -1.445 -5.422 -2.188 -8.125 m -0.09 5.969 c 0.773 2.82 1.531 5.645 2.281 8.469 c 0.703 -2.656 1.418 -5.313 2.125 -7.969 c 1.563 3.578 -0.031 -0.016 1.563 3.578 c 1.637 0 2.363 0 4 0 l 0 10 l -13.617 0 c 1.02 -4.734 2.398 -9.387 3.648 -14.06 m -10.03 5.05 l 3 0 c 3 9 0 0 3 9 l -5.996 0 m -0.004 -9" style="fill:#000;fill-opacity:1;stroke:none;fill-rule:nonzero"/>
     </g>
    </g>
   </g>
  </g>
 </g>
 <g>
  <g>
   <!-- color: #16afef -->
   <g>
    <path d="m 13 12 c -1 0 -1 0 -1 1 l 0 22 c 0 0.984 0 1 1 1 l 22 0 c 1 0 1 0 1 -1 l 0 -22 c 0 -1 0 -1 -1 -1 m -22 0" style="fill:#fff;fill-opacity:0.392;stroke:none;fill-rule:nonzero"/>
    <path d="m 13 12 c -1 0 -1 0 -1 1 l 0 22 c 0 0.984 0 1 1 1 l 22 0 c 1 0 1 0 1 -1 l 0 -22 c 0 -1 0 -1 -1 -1 m -21 2 l 9.938 -0.031 c -1.277 4.891 -2.602 9.77 -3.902 14.652 c -2.031 -5.625 -0.031 -0.027 -2.031 -5.625 c -1 0 -3 0 -4 0 m 10.121 -9.03 l 9.875 0.031 l 0 8 l -3 0 c -2.559 -7.641 0 0 -2.563 -7.813 c -0.707 2.637 -1.418 5.273 -2.125 7.906 c -0.715 -2.711 -1.445 -5.422 -2.188 -8.125 m -0.09 5.969 c 0.773 2.82 1.531 5.645 2.281 8.469 c 0.703 -2.656 1.418 -5.313 2.125 -7.969 c 1.563 3.578 -0.031 -0.016 1.563 3.578 c 1.637 0 2.363 0 4 0 l 0 10 l -13.617 0 c 1.02 -4.734 2.398 -9.387 3.648 -14.06 m -10.03 5.05 l 3 0 c 3 9 0 0 3 9 l -5.996 0 m -0.004 -9" style="fill:#fff;fill-opacity:1;stroke:none;fill-rule:nonzero"/>
   </g>
  </g>
 </g>
 <g>
  
 </g>
</svg>
