<svg viewBox="0 0 48 48" xmlns="http://www.w3.org/2000/svg" xmlns:xlink="http://www.w3.org/1999/xlink">
  <linearGradient id="a" gradientTransform="matrix(0 -1 1 0 0 48)" gradientUnits="userSpaceOnUse" x1="1" x2="47">
    <stop offset="0" stop-color="#eb1a19"/>
    <stop offset="1" stop-color="#ed2c2b"/>
  </linearGradient>
  <path d="m24 1c22.703 0 23 .297 23 23 0 22.703-.297 23-23 23-22.703 0-23-.297-23-23 0-22.703.297-23 23-23z" fill="url(#a)"/>
  <path d="m46.813 21.09c-.207-1.641-.59-3.235-1.125-4.75l-1.688-.844-3 1.5v4l3 1.5zm-5.063 17.531l-.75.375v.5c.258-.283.506-.58.75-.875zm-.75-30.12c-1.204-1.32-2.551-2.489-4.03-3.5l-1.969 1v4l3 1.5 3-1.5v-1.5zm0 19.5l-3-1.5-3 1.5v4l3 1.5 3-1.5zm-6-11l-3-1.5-3 1.5v4l3 1.5 3-1.5zm0 22l-3-1.5-3 1.5v4l3 1.5 3-1.5zm-6-33l-3-1.5-3 1.5v4l3 1.5 3-1.5zm0 22l-3-1.5-3 1.5v4l3 1.5 3-1.5zm-6-11l-3-1.5-3 1.5v4l3 1.5 3-1.5zm0 22l-3-1.5-3 1.5v4l3 1.5 3-1.5zm-6-33l-3-1.5-3 1.5v4l3 1.5 3-1.5zm0 22l-3-1.5-3 1.5v4l3 1.5 3-1.5zm-6-11l-3-1.5-3 1.5v4l3 1.5 3-1.5zm0 22l-3-1.5-1.906.938c1.406 1.74 3.057 3.263 4.906 4.531zm-6-11l-3-1.5-.813.406c.273 2.163.856 4.223 1.688 6.156l2.125-1.063v-4z" fill="#d0faff"/>
</svg>
