<svg xmlns="http://www.w3.org/2000/svg" viewBox="0 0 48 48">
 <defs>
  <linearGradient id="linearGradient4414" x1="1" x2="47" gradientUnits="userSpaceOnUse" gradientTransform="matrix(0,-1,1,0,0,48)">
   <stop style="stop-color:#eb1a19;stop-opacity:1"/>
   <stop offset="1" style="stop-color:#ed2c2b;stop-opacity:1"/>
  </linearGradient>
 </defs>
 
 
 
 
 <path d="M 24,1 C 46.703,1 47,1.297 47,24 47,46.703 46.703,47 24,47 1.297,47 1,46.703 1,24 1,1.297 1.297,1 24,1 z" style="fill:url(#linearGradient4414);fill-opacity:1"/>
 <path d="m 46.813 21.09 c -0.207 -1.641 -0.59 -3.235 -1.125 -4.75 l -1.688 -0.844 -3 1.5 l 0 4 3 1.5 2.813 -1.406 z m -5.063 17.531 -0.75 0.375 l 0 0.5 c 0.258 -0.283 0.506 -0.58 0.75 -0.875 z m -0.75 -30.12 c -1.204 -1.32 -2.551 -2.489 -4.03 -3.5 l -1.969 1 l 0 4 3 1.5 3 -1.5 0 -1.5 z m 0 19.5 -3 -1.5 -3 1.5 0 4 3 1.5 3 -1.5 0 -4 z m -6 -11 -3 -1.5 -3 1.5 0 4 3 1.5 3 -1.5 0 -4 z m 0 22 -3 -1.5 -3 1.5 0 4 3 1.5 3 -1.5 0 -4 z m -6 -33 -3 -1.5 -3 1.5 l 0 4 3 1.5 3 -1.5 0 -4 z m 0 22 -3 -1.5 -3 1.5 0 4 3 1.5 3 -1.5 0 -4 z m -6 -11 -3 -1.5 -3 1.5 0 4 3 1.5 3 -1.5 0 -4 z m 0 22 -3 -1.5 -3 1.5 0 4 3 1.5 3 -1.5 0 -4 z m -6 -33 -3 -1.5 -3 1.5 l 0 4 3 1.5 3 -1.5 0 -4 z m 0 22 -3 -1.5 -3 1.5 0 4 3 1.5 3 -1.5 0 -4 z m -6 -11 -3 -1.5 -3 1.5 0 4 3 1.5 3 -1.5 0 -4 z m 0 22 -3 -1.5 -1.906 0.938 c 1.406 1.74 3.057 3.263 4.906 4.531 l 0 -3.969 z m -6 -11 -3 -1.5 -0.813 0.406 c 0.273 2.163 0.856 4.223 1.688 6.156 l 2.125 -1.063 0 -4 z" style="fill:#d0faff;fill-opacity:1;stroke:none;fill-rule:nonzero"/>
</svg>
