<svg viewBox="0 0 48 48" xmlns="http://www.w3.org/2000/svg" xmlns:xlink="http://www.w3.org/1999/xlink">
  <linearGradient id="a" gradientTransform="matrix(0 -1 1 0 -.0000015 47.999998)" gradientUnits="userSpaceOnUse" x1="1" x2="47">
    <stop offset="0" stop-color="#5ebd51"/>
    <stop offset="1" stop-color="#6bc260"/>
  </linearGradient>
  <path d="m47 24c0 22.703-.297 23-23 23-22.703 0-23-.297-23-23 0-22.703.297-23 23-23 22.703 0 23 .297 23 23z" fill="url(#a)"/>
  <g transform="matrix(1 0 0 .99805069 .003906 .06822604)">
    <path d="m25 10.953c-3.232 0-5.953 2.628-5.953 6.01 0 1.569.699 2.965 1.649 4.01h-5.915c-.984 0-1.785.717-1.785 1.592v12.875c0 .871.801 1.564 1.785 1.564h20.438c.98 0 1.781-.692 1.781-1.564v-12.875c0-.875-.801-1.592-1.781-1.592h-5.923c.95-1.043 1.659-2.439 1.659-4.01 0-3.384-2.724-6.01-5.955-6.01zm0 2c2.293 0 4.047 1.869 4.047 4.01 0 2.139-1.753 4.01-4.047 4.01-2.293 0-4.045-1.869-4.045-4.01 0-2.139 1.751-4.01 4.045-4.01zm-1 10.02h2c3 0 3 2.525 3 2.525v2.484c0 1-2 2.516-2 2.516v1.5l3 1v1.996h-10v-1.996l3-1v-1.5c0 0-2-1.512-2-2.516v-2.484c0 0 0-2.525 3-2.525z" fill-opacity=".098"/>
    <path d="m24 9.951c-3.232 0-5.953 2.628-5.953 6.01 0 1.569.699 2.965 1.649 4.01h-5.915c-.984 0-1.785.717-1.785 1.592v12.875c0 .871.801 1.564 1.785 1.564h20.438c.98 0 1.781-.692 1.781-1.564v-12.875c0-.875-.801-1.592-1.781-1.592h-5.923c.95-1.043 1.659-2.439 1.659-4.01 0-3.384-2.724-6.01-5.955-6.01zm0 2c2.293 0 4.047 1.869 4.047 4.01 0 2.139-1.753 4.01-4.047 4.01-2.293 0-4.045-1.869-4.045-4.01 0-2.139 1.751-4.01 4.045-4.01zm-1 10.02h2c3 0 3 2.525 3 2.525v2.484c0 1-2 2.516-2 2.516v1.5l3 1v1.996h-10v-1.996l3-1v-1.5c0 0-2-1.512-2-2.516v-2.484c0 0 0-2.525 3-2.525z" fill="#f9f9f9"/>
  </g>
</svg>
