<svg xmlns="http://www.w3.org/2000/svg" viewBox="0 0 48 48">
 <defs>
  <linearGradient id="linearGradient3764" x1="1" x2="47" gradientUnits="userSpaceOnUse" gradientTransform="matrix(0,-1,1,0,-1.5e-6,47.999998)">
   <stop style="stop-color:#5ebd51;stop-opacity:1"/>
   <stop offset="1" style="stop-color:#6bc260;stop-opacity:1"/>
  </linearGradient>
 </defs>
 <g>
  
  
  
 </g>
 <g>
  <path d="m 47,24 C 47,46.703 46.703,47 24,47 1.297,47 1,46.703 1,24 1,1.297 1.297,1 24,1 46.703,1 47,1.297 47,24 z" style="fill:url(#linearGradient3764);fill-opacity:1"/>
 </g>
 <g>
  <g>
   <g transform="translate(1,1)">
    <g style="opacity:0.1">
     <!-- color: #6bc260 -->
    </g>
   </g>
  </g>
 </g>
 <g transform="matrix(1,0,0,0.99805069,0.003906,0.06822604)">
  <g>
   <!-- color: #6bc260 -->
   <g>
    <path d="m 25 10.953 c -3.232 0 -5.953 2.628 -5.953 6.01 0 1.569 0.699 2.965 1.649 4.01 l -5.915 0 c -0.984 0 -1.785 0.717 -1.785 1.592 l 0 12.875 c 0 0.871 0.801 1.564 1.785 1.564 l 20.438 0 c 0.98 0 1.781 -0.692 1.781 -1.564 l 0 -12.875 c 0 -0.875 -0.801 -1.592 -1.781 -1.592 l -5.923 0 c 0.95 -1.043 1.659 -2.439 1.659 -4.01 0 -3.384 -2.724 -6.01 -5.955 -6.01 z m 0 2 c 2.293 0 4.047 1.869 4.047 4.01 0 2.139 -1.753 4.01 -4.047 4.01 -2.293 0 -4.045 -1.869 -4.045 -4.01 0 -2.139 1.751 -4.01 4.045 -4.01 z m -1 10.02 2 0 c 3 0 3 2.525 3 2.525 l 0 2.484 c 0 1 -2 2.516 -2 2.516 l 0 1.5 3 1 0 1.996 -10 0 0 -1.996 3 -1 0 -1.5 c 0 0 -2 -1.512 -2 -2.516 l 0 -2.484 c 0 0 0 -2.525 3 -2.525 z" style="fill:#000;fill-opacity:0.098;stroke:none;fill-rule:nonzero"/>
    <path d="m 24 9.951 c -3.232 0 -5.953 2.628 -5.953 6.01 0 1.569 0.699 2.965 1.649 4.01 l -5.915 0 c -0.984 0 -1.785 0.717 -1.785 1.592 l 0 12.875 c 0 0.871 0.801 1.564 1.785 1.564 l 20.438 0 c 0.98 0 1.781 -0.692 1.781 -1.564 l 0 -12.875 c 0 -0.875 -0.801 -1.592 -1.781 -1.592 l -5.923 0 c 0.95 -1.043 1.659 -2.439 1.659 -4.01 0 -3.384 -2.724 -6.01 -5.955 -6.01 z m 0 2 c 2.293 0 4.047 1.869 4.047 4.01 0 2.139 -1.753 4.01 -4.047 4.01 -2.293 0 -4.045 -1.869 -4.045 -4.01 0 -2.139 1.751 -4.01 4.045 -4.01 z m -1 10.02 2 0 c 3 0 3 2.525 3 2.525 l 0 2.484 c 0 1 -2 2.516 -2 2.516 l 0 1.5 3 1 0 1.996 -10 0 0 -1.996 3 -1 0 -1.5 c 0 0 -2 -1.512 -2 -2.516 l 0 -2.484 c 0 0 0 -2.525 3 -2.525 z" style="fill:#f9f9f9;fill-opacity:1;stroke:none;fill-rule:nonzero"/>
   </g>
  </g>
 </g>
 <g>
  
 </g>
</svg>
