<svg xmlns="http://www.w3.org/2000/svg" viewBox="0 0 48 48">
 <defs>
  <linearGradient gradientUnits="userSpaceOnUse" y2="1" x2="0" y1="47" id="linearGradient4388">
   <stop style="stop-color:#164b6e;stop-opacity:1"/>
   <stop offset="1" style="stop-color:#19567f;stop-opacity:1"/>
  </linearGradient>
 </defs>
 <g>
  
  
  
 </g>
 <g style="fill:#164b6e;fill-opacity:1">
  <path d="m 24 1 c 22.703 0 23 0.297 23 23 c 0 22.703 -0.297 23 -23 23 -22.703 0 -23 -0.297 -23 -23 0 -22.703 0.297 -23 23 -23 z" style="fill:url(#linearGradient4388)"/>
 </g>
 <g>
  
 </g>
 <g transform="matrix(0.36024369,0,0,0.34178977,12.06727,21.055787)">
  <g transform="translate(-2.7003263,1.1333895e-6)">
   <g transform="translate(2.7758987,-2.925775)">
    <g transform="translate(-2.8949203,-2.700325)">
     <path d="m -5.695 -3.303 27 46.801 13.505 0 6.685 -11.703 6.815 11.703 27.01 0 -6.75 -11.692 -13.505 0 -6.75 -11.703 6.75 -11.703 -0.027 0 0.027 -0.011 13.505 0 6.75 -11.692 -27.01 0 l -20.695 35.1 -19.811 -35.1" style="fill:#000;opacity:0.1;fill-opacity:1"/>
    </g>
    <g transform="translate(-2.8949203,-2.7003253)">
     <path d="m 72.54 40.572 -13.502 0 0 -8.101 6.751 -3.592 z" style="fill:#2bac8f"/>
     <path d="m 65.787 28.879 -13.501 0 1.351 6.292 5.4 5.4 z" style="fill:#2e997c"/>
     <path d="m 59.04 40.572 -13.502 0 2.701 -8.101 4.05 -3.592 z" style="fill:#278768"/>
     <path d="m 45.535 17.18 -5.4 -3.618 -8.102 3.618 6.751 11.692 z" style="fill:#21674f"/>
     <path d="m 52.29 28.879 -6.75 -1.809 -6.751 1.809 6.751 11.692 z" style="fill:#2a8d70"/>
     <path d="m 52.29 28.869 -13.501 0 3.318 -5.747 3.432 -5.945 z" style="fill:#2f9f81"/>
     <path d="m 72.54 -6.229 -13.501 0 0 6.267 6.75 5.425 z" style="fill:#96cfba"/>
     <path d="m 65.788 5.463 -13.502 0 1.35 -8.126 5.4 -3.566 z" style="fill:#85c8b1"/>
     <path d="m 59.04 -6.229 -13.501 0 0 6.267 6.75 5.425 z" style="fill:#6bbfa4"/>
     <path d="m 52.29 5.465 -6.75 2.675 -6.751 -2.675 6.751 -11.692 z" style="fill:#52b99b"/>
     <path d="m 52.29 5.474 -13.501 0 1.351 5.375 5.4 6.317 z" style="fill:#44b799"/>
     <path d="m 45.535 17.17 -13.501 0 6.751 -11.692 z" style="fill:#33b394"/>
     <path d="m 38.784 28.87 -6.75 3.592 -6.752 -3.592 6.751 -11.692 z" style="fill:#2da4ad"/>
     <path d="m 38.785 28.879 -13.502 0 0.216 7.607 6.535 4.086 z" style="fill:#2f98af"/>
     <path d="m 32.03 40.572 -13.502 0 0.001 -8.101 6.75 -3.592 3.328 5.763 z" style="fill:#0d657a"/>
     <path d="m 25.282 28.879 -6.75 -1.809 -6.752 1.809 6.751 11.692" style="fill:#2a69b1"/>
     <path d="m 25.282 28.869 -13.501 0 1.351 -7.209 5.4 -4.483 z" style="fill:#2077bc"/>
     <path d="m 18.531 17.18 -8.1 -3.618 -5.402 3.618 6.751 11.692" style="fill:#2886c7"/>
     <path d="m 18.532 17.17 -13.502 0 0.001 -9.02 6.75 -2.674 z" style="fill:#238dcd"/>
     <path d="m 11.82 5.439 -6.79 -2.726 -6.752 2.726 6.771 11.727" style="fill:#1a9cd1"/>
     <path d="m 11.78 5.463 -13.501 0 1.351 -5.426 5.4 -6.266 z" style="fill:#0ea6d3;stroke:none"/>
     <path d="m 5.03 -6.229 -13.501 0 6.751 11.692 z" style="fill:#08abd8;stroke:none"/>
    </g>
   </g>
  </g>
 </g>
</svg>
