<svg viewBox="0 0 48 48" xmlns="http://www.w3.org/2000/svg" xmlns:xlink="http://www.w3.org/1999/xlink">
  <linearGradient id="a" gradientUnits="userSpaceOnUse" x2="0" y1="47" y2="1">
    <stop offset="0" stop-color="#164b6e"/>
    <stop offset="1" stop-color="#19567f"/>
  </linearGradient>
  <path d="m24 1c22.703 0 23 .297 23 23 0 22.703-.297 23-23 23-22.703 0-23-.297-23-23 0-22.703.297-23 23-23z" fill="url(#a)"/>
  <g transform="matrix(.36024369 0 0 .34178977 12.09449448 20.05578742)">
    <path d="m-5.695-3.303l27 46.801h13.505l6.685-11.703 6.815 11.703h27.01l-6.75-11.692h-13.505l-6.75-11.703 6.75-11.703h-.027l.027-.011h13.505l6.75-11.692h-27.01l-20.695 35.1-19.811-35.1" opacity=".1" transform="translate(-2.8949203 -2.700325)"/>
    <g transform="translate(-2.8949203 -2.7003253)">
      <path d="m72.54 40.572h-13.502v-8.101l6.751-3.592z" fill="#2bac8f"/>
      <path d="m65.787 28.879h-13.501l1.351 6.292 5.4 5.4z" fill="#2e997c"/>
      <path d="m59.04 40.572h-13.502l2.701-8.101 4.05-3.592z" fill="#278768"/>
      <path d="m45.535 17.18l-5.4-3.618-8.102 3.618 6.751 11.692z" fill="#21674f"/>
      <path d="m52.29 28.879l-6.75-1.809-6.751 1.809 6.751 11.692z" fill="#2a8d70"/>
      <path d="m52.29 28.869h-13.501l3.318-5.747 3.432-5.945z" fill="#2f9f81"/>
      <path d="m72.54-6.229h-13.501v6.267l6.75 5.425z" fill="#96cfba"/>
      <path d="m65.788 5.463h-13.502l1.35-8.126 5.4-3.566z" fill="#85c8b1"/>
      <path d="m59.04-6.229h-13.501v6.267l6.75 5.425z" fill="#6bbfa4"/>
      <path d="m52.29 5.465l-6.75 2.675-6.751-2.675 6.751-11.692z" fill="#52b99b"/>
      <path d="m52.29 5.474h-13.501l1.351 5.375 5.4 6.317z" fill="#44b799"/>
      <path d="m45.535 17.17h-13.501l6.751-11.692z" fill="#33b394"/>
      <path d="m38.784 28.87l-6.75 3.592-6.752-3.592 6.751-11.692z" fill="#2da4ad"/>
      <path d="m38.785 28.879h-13.502l.216 7.607 6.535 4.086z" fill="#2f98af"/>
      <path d="m32.03 40.572h-13.502l.001-8.101 6.75-3.592 3.328 5.763z" fill="#0d657a"/>
      <path d="m25.282 28.879l-6.75-1.809-6.752 1.809 6.751 11.692" fill="#2a69b1"/>
      <path d="m25.282 28.869h-13.501l1.351-7.209 5.4-4.483z" fill="#2077bc"/>
      <path d="m18.531 17.18l-8.1-3.618-5.402 3.618 6.751 11.692" fill="#2886c7"/>
      <path d="m18.532 17.17h-13.502l.001-9.02 6.75-2.674z" fill="#238dcd"/>
      <path d="m11.82 5.439l-6.79-2.726-6.752 2.726 6.771 11.727" fill="#1a9cd1"/>
      <path d="m11.78 5.463h-13.501l1.351-5.426 5.4-6.266z" fill="#0ea6d3"/>
      <path d="m5.03-6.229h-13.501l6.751 11.692z" fill="#08abd8"/>
    </g>
  </g>
</svg>
