<svg viewBox="0 0 48 48" xmlns="http://www.w3.org/2000/svg" xmlns:xlink="http://www.w3.org/1999/xlink">
  <linearGradient id="a" gradientTransform="matrix(0 -1 1 0 -.0000015 47.999998)" gradientUnits="userSpaceOnUse" x1="1" x2="47">
    <stop offset="0" stop-color="#c3d9e5"/>
    <stop offset="1" stop-color="#d1e2eb"/>
  </linearGradient>
  <path d="m47 24c0 22.703-.297 23-23 23-22.703 0-23-.297-23-23 0-22.703.297-23 23-23 22.703 0 23 .297 23 23z" fill="url(#a)"/>
  <path d="m32 14c-.551 0-1 .449-1 1v3h-21v2h21v3c0 .551.449 1 1 1h2c .551 0 1-.449 1-1v-3h5v-2h-5v-3c0-.551-.449-1-1-1zm-10 13c-.551 0-.996.449-.996 1v3h-11v2h11v3c0 .551.445 1 .996 1h2c .551 0 1-.449 1-1v-3h15v-2h-15v-3c0-.551-.449-1-1-1z" opacity=".1" transform=""/>
  <path d="m9 17h30v2h-30m0-2" fill="#2d2d2d"/>
  <path d="m9 30h30v2h-30m0-2" fill="#2d2d2d"/>
  <path d="m31 13h2c .551 0 1 .449 1 1v8c0 .551-.449 1-1 1h-2c-.551 0-1-.449-1-1v-8c0-.551.449-1 1-1m0 0" fill="#2d2d2d"/>
  <path d="m20.996 26h2c .551 0 1 .449 1 1v8c0 .551-.449 1-1 1h-2c-.551 0-.996-.449-.996-1v-8c0-.551.445-1 .996-1m0 0" fill="#2d2d2d"/>
  <path d="m21.418 27h1.164c.23 0 .418.246.418.551v6.902c0 .301-.188.547-.418.547h-1.164c-.23 0-.418-.246-.418-.547v-6.902c0-.305.188-.551.418-.551m0 0" fill="#b9d6e5"/>
  <path d="m31.418 14h1.164c.23 0 .418.246.418.547v6.906c0 .301-.188.547-.418.547h-1.164c-.23 0-.418-.246-.418-.547v-6.906c0-.301.188-.547.418-.547m0 0" fill="#b9d6e5"/>
</svg>
