<svg xmlns="http://www.w3.org/2000/svg" viewBox="0 0 48 48">
 <defs>
  <linearGradient id="linearGradient3764" x1="1" x2="47" gradientUnits="userSpaceOnUse" gradientTransform="matrix(0,-1,1,0,-1.5e-6,47.999998)">
   <stop style="stop-color:#c3d9e5;stop-opacity:1"/>
   <stop offset="1" style="stop-color:#d1e2eb;stop-opacity:1"/>
  </linearGradient>
 </defs>
 <g>
  
  
  
 </g>
 <g>
  <path d="m 47,24 C 47,46.703 46.703,47 24,47 1.297,47 1,46.703 1,24 1,1.297 1.297,1 24,1 46.703,1 47,1.297 47,24 z" style="fill:url(#linearGradient3764);fill-opacity:1"/>
 </g>
 <g>
  <g>
   <g transform="translate(1,1)">
    <g style="opacity:0.1">
     <!-- color: #d1e2eb -->
     <g>
      <path d="m 32 14 c -0.551 0 -1 0.449 -1 1 l 0 3 l -21 0 l 0 2 l 21 0 l 0 3 c 0 0.551 0.449 1 1 1 l 2 0 c 0.551 0 1 -0.449 1 -1 l 0 -3 l 5 0 l 0 -2 l -5 0 l 0 -3 c 0 -0.551 -0.449 -1 -1 -1 l -2 0 z m -10 13 c -0.551 0 -0.996 0.449 -0.996 1 l 0 3 l -11 0 l 0 2 l 11 0 l 0 3 c 0 0.551 0.445 1 0.996 1 l 2 0 c 0.551 0 1 -0.449 1 -1 l 0 -3 l 15 0 l 0 -2 l -15 0 l 0 -3 c 0 -0.551 -0.449 -1 -1 -1 l -2 0 z" transform="translate(-1,-1)"/>
     </g>
    </g>
   </g>
  </g>
 </g>
 <g>
  <g>
   <!-- color: #d1e2eb -->
   <g>
    <path d="m 9 17 30 0 0 2 -30 0 m 0 -2" style="fill:#2d2d2d;fill-opacity:1;stroke:none;fill-rule:nonzero"/>
    <path d="m 9 30 30 0 0 2 -30 0 m 0 -2" style="fill:#2d2d2d;fill-opacity:1;stroke:none;fill-rule:nonzero"/>
    <path d="m 31 13 2 0 c 0.551 0 1 0.449 1 1 l 0 8 c 0 0.551 -0.449 1 -1 1 l -2 0 c -0.551 0 -1 -0.449 -1 -1 l 0 -8 c 0 -0.551 0.449 -1 1 -1 m 0 0" style="fill:#2d2d2d;fill-opacity:1;stroke:none;fill-rule:nonzero"/>
    <path d="m 20.996,26 2,0 c 0.551,0 1,0.449 1,1 l 0,8 c 0,0.551 -0.449,1 -1,1 l -2,0 C 20.445,36 20,35.551 20,35 l 0,-8 c 0,-0.551 0.445,-1 0.996,-1 m 0,0" style="fill:#2d2d2d;fill-opacity:1;stroke:none;fill-rule:nonzero"/>
    <path d="m 21.418,27 1.164,0 C 22.812,27 23,27.246 23,27.551 l 0,6.902 C 23,34.754 22.812,35 22.582,35 l -1.164,0 C 21.188,35 21,34.754 21,34.453 l 0,-6.902 C 21,27.246 21.188,27 21.418,27 m 0,0" style="fill:#b9d6e5;fill-opacity:1;stroke:none;fill-rule:nonzero"/>
    <path d="m 31.418,14 1.164,0 C 32.812,14 33,14.246 33,14.547 l 0,6.906 C 33,21.754 32.812,22 32.582,22 l -1.164,0 C 31.188,22 31,21.754 31,21.453 l 0,-6.906 C 31,14.246 31.188,14 31.418,14 m 0,0" style="fill:#b9d6e5;fill-opacity:1;stroke:none;fill-rule:nonzero"/>
   </g>
  </g>
 </g>
 <g>
  
 </g>
</svg>
