<svg viewBox="0 0 48 48" xmlns="http://www.w3.org/2000/svg" xmlns:xlink="http://www.w3.org/1999/xlink">
  <linearGradient id="a" gradientTransform="matrix(0 -1 1 0 -.0000015 47.999998)" gradientUnits="userSpaceOnUse" x1="1" x2="47">
    <stop offset="0" stop-color="#f2cc1a"/>
    <stop offset="1" stop-color="#f3ce2d"/>
  </linearGradient>
  <path d="m47 24c0 22.703-.297 23-23 23-22.703 0-23-.297-23-23 0-22.703.297-23 23-23 22.703 0 23 .297 23 23z" fill="url(#a)"/>
  <path d="m11 12l10.527 26h4.941c-.953-1.379-.301-2.805.965-3.656-.707-.434-1.152-1.035-1.152-1.719 0-.805.617-1.531 1.559-1.969-.195-.473-.223-.934-.035-1.375.34-.789 1.27-1.27 2.402-1.313-.551-1.172.148-2.039 1-1.66l5.789-14.316h-4.504c-3.449 8.855-5.672 14.609-6.668 17.25-.98 2.625-1.574 4.348-1.762 5.188h-.203c-.234-1.078-1.016-3.426-2.371-7.03l-5.988-15.406m-4.5.004" opacity=".1" transform="translate(1 1)"/>
  <path d="m11 12l10.527 26h4.941c-.953-1.379-.301-2.805.965-3.656-.707-.434-1.152-1.035-1.152-1.719 0-.805.617-1.531 1.559-1.969-.195-.473-.223-.934-.035-1.375.34-.789 1.27-1.27 2.402-1.313-.551-1.172.148-2.039 1-1.66l5.789-14.316h-4.504c-3.449 8.855-5.672 14.609-6.668 17.25-.98 2.625-1.574 4.348-1.762 5.188h-.203c-.234-1.078-1.016-3.426-2.371-7.03l-5.988-15.406m-4.5.004" fill="#db3d2f"/>
</svg>
