<svg viewBox="0 0 48 48" xmlns="http://www.w3.org/2000/svg" xmlns:xlink="http://www.w3.org/1999/xlink">
  <linearGradient id="a" gradientTransform="matrix(0 -1 1 0 -.0000015 47.999998)" gradientUnits="userSpaceOnUse" x1="1" x2="47">
    <stop offset="0" stop-color="#e4e4e4"/>
    <stop offset="1" stop-color="#eee"/>
  </linearGradient>
  <path d="m47 24c0 22.703-.297 23-23 23-22.703 0-23-.297-23-23 0-22.703.297-23 23-23 22.703 0 23 .297 23 23z" fill="url(#a)"/>
  <path d="m33.393 12.996l.002.004c-.961.016-1.91.656-2.063 1.844-.242 1.902 1.577 1.188 3.03 1.188 1.453 0 1.941 3.09 1.574 4.754-.198.904-1.442 2.473-3.936 3.088v1.215c1.197.212 1.998.777 2 1.412-.002.635-.803 1.2-2 1.412v6.469c3.602-2.851 5.996-7.605 5.996-12.11 0-.809-.039-1.621-.24-2.375-.256-.956-.605-1.922-.91-2.793-.71-1.551-1.791-3.03-2.85-4.04-.004-.008-.025.012-.029 0-.188-.043-.383-.065-.574-.061zm-3.971 1.43c-.286 0-.516.227-.516.508 0 .277.231.504.516.504.286 0 .516-.227.516-.504 0-.281-.231-.508-.516-.508zm1.246 2.379c-.402 0-.73.316-.73.711 0 .395.328.715.73.715.399 0 .727-.32.727-.715 0-.395-.329-.711-.727-.711zm-12.668 4.449c-3.889-.042-5.872 2.288-6.01 2.352.426 3.983 2.722 8.171 6.01 10.781v-6.475c-1.197-.212-1.998-.777-2-1.412.002-.635.803-1.2 2-1.412zm2 .227v3.607c1.197.212 1.998.777 2 1.412-.002.635-.803 1.2-2 1.412v7.787c1.248.665 2.592 1.097 4 1.236v-2.023c-1.197-.212-1.998-.777-2-1.412.002-.635.803-1.2 2-1.412v-9.219c-.341-.135-.676-.263-1.033-.424-1.072-.482-2.054-.779-2.967-.965zm6 2.084v8.523c1.197.212 1.998.777 2 1.412-.002.635-.803 1.2-2 1.412v2.02c1.407-.145 2.753-.566 4-1.225v-7.791c-1.197-.212-1.998-.777-2-1.412.002-.635.803-1.2 2-1.412v-.963c-1.152.024-2.476-.13-4-.561z" opacity=".1" transform=""/>
  <path d="m32.393 11.996l.002.004c-.961.016-1.91.656-2.063 1.844-.242 1.902 1.577 1.188 3.03 1.188 1.453 0 1.941 3.09 1.574 4.754-.198.904-1.442 2.473-3.936 3.088v1.215c1.197.212 1.998.777 2 1.412-.002.635-.803 1.2-2 1.412v6.469c3.602-2.851 5.996-7.605 5.996-12.11 0-.809-.039-1.621-.24-2.375-.256-.956-.605-1.922-.91-2.793-.71-1.551-1.791-3.03-2.85-4.04-.004-.008-.025.012-.029 0-.188-.043-.383-.065-.574-.061zm-15.393 8.258c-3.889-.042-5.872 2.288-6.01 2.352.426 3.983 2.722 8.171 6.01 10.781v-6.475c-1.197-.212-1.998-.777-2-1.412.002-.635.803-1.2 2-1.412zm2 .227v3.607c1.197.212 1.998.777 2 1.412-.002.635-.803 1.2-2 1.412v7.787c1.248.665 2.592 1.097 4 1.236v-2.023c-1.197-.212-1.998-.777-2-1.412.002-.635.803-1.2 2-1.412v-9.219c-.341-.135-.676-.263-1.033-.424-1.072-.482-2.054-.779-2.967-.965m6 2.084v8.523c1.197.212 1.998.777 2 1.412-.002.635-.803 1.2-2 1.412v2.02c1.407-.145 2.753-.566 4-1.225v-7.791c-1.197-.212-1.998-.777-2-1.412.002-.635.803-1.2 2-1.412v-.963c-1.152.024-2.476-.13-4-.561z" fill="#494c86"/>
  <path d="m30.395 16.516c0 .395-.328.715-.727.715-.402 0-.73-.32-.73-.715 0-.395.328-.711.73-.711.398 0 .727.316.727.711m0 0" fill="#434a8e"/>
  <path d="m28.938 13.934c0 .277-.23.504-.516.504-.285 0-.516-.227-.516-.504 0-.281.23-.508.516-.508.285 0 .516.227.516.508m0 0" fill="#434a8e"/>
</svg>
