<svg viewBox="0 0 48 48" xmlns="http://www.w3.org/2000/svg" xmlns:xlink="http://www.w3.org/1999/xlink">
  <linearGradient id="a" gradientTransform="matrix(0 -1 1 0 -.0000015 47.999998)" gradientUnits="userSpaceOnUse" x1="1" x2="47">
    <stop offset="0" stop-color="#e4e4e4"/>
    <stop offset="1" stop-color="#eee"/>
  </linearGradient>
  <path d="m47 24c0 22.703-.297 23-23 23-22.703 0-23-.297-23-23 0-22.703.297-23 23-23 22.703 0 23 .297 23 23z" fill="url(#a)"/>
  <g opacity=".1" transform="translate(1 1)">
    <path d="m32.395 12c-.961.016-1.91.656-2.063 1.844-.242 1.902 1.578 1.188 3.03 1.188 1.453 0 1.941 3.09 1.574 4.754-.363 1.66-4.227 5.59-12.969 1.66-7.195-3.234-10.789 1.074-10.977 1.16.688 6.426 6.234 13.391 12.977 13.391 7.188 0 13.03-7.68 13.03-14.73 0-.809-.094-1.609-.242-2.375-.133-.391-.266-.777-.363-1.129-.176-.633-.375-1.168-.547-1.664-.008-.016.008-.043 0-.063-.688-1.5-1.652-2.852-2.848-3.98-.004-.008-.027.012-.031 0-.188-.043-.383-.063-.574-.059m0 .004"/>
    <path d="m30.395 16.516c0 .395-.328.715-.727.715-.402 0-.73-.32-.73-.715 0-.395.328-.711.73-.711.398 0 .727.316.727.711m0 0"/>
    <path d="m28.938 13.934c0 .277-.23.504-.516.504-.285 0-.516-.227-.516-.504 0-.281.23-.508.516-.508.285 0 .516.227.516.508m0 0"/>
  </g>
  <path d="m32.395 12c-.961.016-1.91.656-2.063 1.844-.242 1.902 1.578 1.188 3.03 1.188 1.453 0 1.941 3.09 1.574 4.754-.363 1.66-4.227 5.59-12.969 1.66-7.195-3.234-10.789 1.074-10.977 1.16.688 6.426 6.234 13.391 12.977 13.391 7.188 0 13.03-7.68 13.03-14.73 0-.809-.094-1.609-.242-2.375-.133-.391-.266-.777-.363-1.129-.176-.633-.375-1.168-.547-1.664-.008-.016.008-.043 0-.063-.688-1.5-1.652-2.852-2.848-3.98-.004-.008-.027.012-.031 0-.188-.043-.383-.063-.574-.059m0 .004" fill="#494c86"/>
  <path d="m30.395 16.516c0 .395-.328.715-.727.715-.402 0-.73-.32-.73-.715 0-.395.328-.711.73-.711.398 0 .727.316.727.711m0 0" fill="#434a8e"/>
  <path d="m28.938 13.934c0 .277-.23.504-.516.504-.285 0-.516-.227-.516-.504 0-.281.23-.508.516-.508.285 0 .516.227.516.508m0 0" fill="#434a8e"/>
</svg>
