<svg viewBox="0 0 48 48" xmlns="http://www.w3.org/2000/svg" xmlns:xlink="http://www.w3.org/1999/xlink">
  <linearGradient id="a" gradientTransform="matrix(0 -1 1 0 -.0000015 48)" gradientUnits="userSpaceOnUse" x1="1" x2="47">
    <stop offset="0" stop-color="#e4e4e4"/>
    <stop offset="1" stop-color="#eee"/>
  </linearGradient>
  <path d="m36.31 5c5.859 4.062 9.688 10.831 9.688 18.5 0 12.426-10.07 22.5-22.5 22.5-7.669 0-14.438-3.828-18.5-9.688 1.037 1.822 2.306 3.499 3.781 4.969 4.085 3.712 9.514 5.969 15.469 5.969 22.703 0 23-10.298 23-23 0-5.954-2.256-11.384-5.969-15.469-1.469-1.475-3.147-2.744-4.969-3.781zm4.969 3.781c3.854 4.113 6.219 9.637 6.219 15.719 0 22.703-.297 23-23 23-6.081 0-11.606-2.364-15.719-6.219 4.16 4.144 9.883 6.719 16.219 6.719 22.703 0 23-10.298 23-23 0-6.335-2.575-12.06-6.719-16.219z" opacity=".05"/>
  <path d="m41.28 8.781c3.712 4.085 5.969 9.514 5.969 15.469 0 22.703-.297 23-23 23-5.954 0-11.384-2.256-15.469-5.969 4.113 3.854 9.637 6.219 15.719 6.219 22.703 0 23-10.298 23-23 0-6.081-2.364-11.606-6.219-15.719z" opacity=".1"/>
  <path d="m31.25 2.375c8.615 3.154 14.75 11.417 14.75 21.13 0 12.426-10.07 22.5-22.5 22.5-9.708 0-17.971-6.135-21.12-14.75a23 23 0 0 0 44.875-7 23 23 0 0 0-16-21.875z" opacity=".2"/>
  <path d="m24 1c22.703 0 23 .297 23 23s-.297 23-23 23-23-.297-23-23 .297-23 23-23z" fill="url(#a)"/>
  <path d="m12.531 14c-.297.031-.531.297-.531.594v10.816c0 .316.277.594.594.594h5.406v2h-4v2h7v-6h-6.559c-.211 0-.41-.195-.41-.41v-7.184c-.004-.188.129-.371.313-.406h11.219c.207 0 .438.191.438.406v2.875h2v-4.691c0-.313-.281-.594-.594-.594h-14.875zm10 6c-.293.031-.539.305-.539.598v10.809c0 .313.289.6.602.6h5.398v1.994h-3.996v2h12v-2h-4v-1.994h5.402c.313 0 .598-.287.598-.6v-10.809c0-.316-.289-.598-.598-.598h-14.863zm1.813 2h11.219c.211 0 .402.191.402.402v7.203c0 .207-.191.398-.402.398h-11.145c-.211 0-.402-.191-.402-.398v-7.203c-.004-.188.145-.367.328-.402zm.652 1.834l1.666 4.166h1.668l1.041-2.916h.416l1.043 2.916h.832l1.043-2.916h.416l1.041 2.916h.834l-1.666-4.166h-.834l-1.25 3.125-1.25-3.125h-1.664l-1.045 2.916h-.416l-1.041-2.916z" fill-opacity=".098"/>
  <path d="m11.531 13c-.297.031-.531.297-.531.594v10.816c0 .316.277.594.594.594h5.406v2h-4v2h7v-6h-6.559c-.211 0-.41-.195-.41-.41v-7.184c-.004-.188.129-.371.313-.406h11.219c.207 0 .437.191.437.406v2.875h2v-4.691c0-.313-.281-.594-.594-.594" fill="#621628"/>
  <path d="m21.535 19c-.293.031-.539.305-.539.598v10.809c0 .313.289.6.602.6h5.398v1.994h-3.996v2h12v-2h-4v-1.994h5.402c.313 0 .598-.287.598-.6v-10.809c0-.316-.289-.598-.598-.598h-14.863zm1.813 2h11.219c.211 0 .402.191.402.402v7.203c0 .207-.191.398-.402.398h-11.145c-.211 0-.402-.191-.402-.398v-7.203c-.004-.188.145-.367.328-.402z" fill="#283751"/>
  <g transform="matrix(.41667 0 0 .41667 19 14.917)">
    <path d="m12 19h2l2.5 7h1l2.504-7h1.996l-4 10h-2z" fill="#621628"/>
    <path d="m18 29h2l2.5-7h1l2.5 7h2l-4-10h-2.063z" fill="#3e4545"/>
    <path d="m26 29h2l2.5-7h1l2.5 7h2l-4-10h-2z" fill="#3e4545"/>
  </g>
</svg>
