<svg xmlns="http://www.w3.org/2000/svg" viewBox="0 0 48 48">
 <defs>
  <linearGradient id="linearGradient3764" x1="1" x2="47" gradientUnits="userSpaceOnUse" gradientTransform="matrix(0,-1,1,0,-1.5e-6,47.999998)">
   <stop style="stop-color:#e4e4e4;stop-opacity:1"/>
   <stop offset="1" style="stop-color:#eee;stop-opacity:1"/>
  </linearGradient>
 </defs>
 <g>
  
  
  
 </g>
 <g>
  <path d="m 47,24 C 47,46.703 46.703,47 24,47 1.297,47 1,46.703 1,24 1,1.297 1.297,1 24,1 46.703,1 47,1.297 47,24 z" style="fill:url(#linearGradient3764);fill-opacity:1"/>
 </g>
 <g>
  <g>
   <g transform="translate(1,1)">
    <g style="opacity:0.1">
     <!-- color: #eeeeee -->
     <g>
      <path d="m 12 19 l 2 0 l 2.5 7 l 1 0 l 2.504 -7 l 1.996 0 l -4 10 l -2 0 m -4 -10" style="fill:#000;fill-opacity:1;stroke:none;fill-rule:nonzero"/>
      <path d="m 18 29 l 2 0 l 2.5 -7 l 1 0 l 2.5 7 l 2 0 l -4 -10 l -2.063 0 m -3.938 10" style="fill:#000;fill-opacity:1;stroke:none;fill-rule:nonzero"/>
      <path d="m 26 29 l 2 0 l 2.5 -7 l 1 0 l 2.5 7 l 2 0 l -4 -10 l -2 0 m -4 10" style="fill:#000;fill-opacity:1;stroke:none;fill-rule:nonzero"/>
     </g>
    </g>
   </g>
  </g>
 </g>
 <g>
  <g>
   <!-- color: #eeeeee -->
   <g>
    <path d="m 12 19 l 2 0 l 2.5 7 l 1 0 l 2.504 -7 l 1.996 0 l -4 10 l -2 0 m -4 -10" style="fill:#621628;fill-opacity:1;stroke:none;fill-rule:nonzero"/>
    <path d="m 18 29 l 2 0 l 2.5 -7 l 1 0 l 2.5 7 l 2 0 l -4 -10 l -2.063 0 m -3.938 10" style="fill:#3e4545;fill-opacity:1;stroke:none;fill-rule:nonzero"/>
    <path d="m 26 29 l 2 0 l 2.5 -7 l 1 0 l 2.5 7 l 2 0 l -4 -10 l -2 0 m -4 10" style="fill:#3e4545;fill-opacity:1;stroke:none;fill-rule:nonzero"/>
   </g>
  </g>
 </g>
 <g>
  
 </g>
</svg>
