<svg xmlns="http://www.w3.org/2000/svg" xmlns:xlink="http://www.w3.org/1999/xlink" viewBox="0 0 48 48">
 <defs>
  <linearGradient id="linearGradient4220">
   <stop style="stop-color:#d1973f;stop-opacity:1"/>
   <stop offset="1" style="stop-color:#cf9337;stop-opacity:1"/>
  </linearGradient>
  <linearGradient id="linearGradient3764" x1="1" x2="47" gradientUnits="userSpaceOnUse" gradientTransform="matrix(0,-1,1,0,-1.5e-6,47.999998)">
   <stop style="stop-color:#3d3d3d;stop-opacity:1"/>
   <stop offset="1" style="stop-color:#474747;stop-opacity:1"/>
  </linearGradient>
  <radialGradient xlink:href="#linearGradient4220" id="radialGradient4218" cx="24" cy="24" r="8" gradientUnits="userSpaceOnUse"/>
  <radialGradient xlink:href="#linearGradient4220" id="radialGradient4226" cx="24" cy="24.952" r="7.465" gradientTransform="matrix(1.0716752,6.7755112e-8,-6.7755105e-8,1.0716751,-1.7202016,-2.7408471)" gradientUnits="userSpaceOnUse"/>
 </defs>
 <g>
  
  
  
 </g>
 <g>
  <path d="m 47,24 C 47,46.703 46.703,47 24,47 1.297,47 1,46.703 1,24 1,1.297 1.297,1 24,1 46.703,1 47,1.297 47,24 z" style="fill:url(#linearGradient3764);fill-opacity:1"/>
 </g>
 <g>
  
 </g>
 <path d="m 33.799 16.01 c -1.802 -0.008 -4.03 0.466 -6.434 1.359 -0.767 -0.238 -1.565 -0.359 -2.367 -0.359 -3.773 0.002 -7.03 2.64 -7.82 6.33 -4.099 3.491 -6 7.05 -4.848 9.07 1.165 2.039 5.214 2.132 10.301 0.244 0.767 0.237 1.565 0.358 2.367 0.357 3.772 -0.002 7.03 -2.639 7.818 -6.328 4.099 -3.491 6 -7.05 4.848 -9.07 -0.588 -1.034 -1.937 -1.595 -3.865 -1.604 z m -3.03 3.047 c 1.107 -0.038 1.86 0.231 2.17 0.773 0.314 0.555 0.152 1.372 -0.467 2.35 -0.45 -1.183 -1.174 -2.243 -2.113 -3.092 0.141 -0.015 0.278 -0.025 0.41 -0.031 z m -13.563 7.742 c 0.282 1.231 0.852 2.377 1.662 3.346 -1.166 0.061 -1.96 -0.204 -2.283 -0.762 -0.34 -0.6 -0.122 -1.505 0.621 -2.584 z" style="fill:#000;fill-opacity:0.098;stroke:none;fill-rule:evenodd"/>
 <g transform="translate(2.6443663e-4,-1.8774963e-4)">
  <circle r="8" cy="24" cx="24" style="fill:url(#radialGradient4218);fill-opacity:1;stroke:none;fill-rule:evenodd"/>
 </g>
 <path d="m 21.08 18.875 a 5.901 14.67 59.6 0 0 -9.742 12.524 5.901 14.67 59.6 0 0 15.592 -2.273 5.901 14.67 59.6 0 0 9.742 -12.524 5.901 14.67 59.6 0 0 -15.592 2.273 z m 1.078 1.888 a 3.261 9.471 59.63 0 1 9.794 -1.943 3.261 9.471 59.63 0 1 -6.561 7.607 3.261 9.471 59.63 0 1 -9.793 1.945 3.261 9.471 59.63 0 1 6.56 -7.609 z" style="fill:#e3c789;fill-opacity:1;stroke:none"/>
 <path d="m 26.07 16.271 c -3.979 0.828 -5.759 1.693 -9.799 5.658 c -0.53 1.978 -0.304 4.157 0.801 6.07 l 13.855 -8 c -0.552 -0.956 -1.273 -1.757 -2.102 -2.383 -0.829 -0.626 -1.767 -1.081 -2.756 -1.346 z" style="fill:url(#radialGradient4226);fill-opacity:1;stroke:none;fill-rule:evenodd"/>
</svg>
