<svg xmlns="http://www.w3.org/2000/svg" viewBox="0 0 48 48">
 <defs>
  <linearGradient id="linearGradient3764" x1="1" x2="47" gradientUnits="userSpaceOnUse" gradientTransform="matrix(0,-1,1,0,-1.5e-6,47.999998)">
   <stop style="stop-color:#e51f32;stop-opacity:1"/>
   <stop offset="1" style="stop-color:#e73245;stop-opacity:1"/>
  </linearGradient>
 </defs>
 <g>
  
  
  
 </g>
 <g>
  <path d="m 47,24 C 47,46.703 46.703,47 24,47 1.297,47 1,46.703 1,24 1,1.297 1.297,1 24,1 46.703,1 47,1.297 47,24 z" style="fill:url(#linearGradient3764);fill-opacity:1"/>
 </g>
 <g>
  
 </g>
 <path d="m 19.961 32.505 -4.992 -4.995 0.762 -0.762 0.762 -0.762 4.254 4.256 4.254 4.256 4.242 -4.245 4.242 -4.245 0.75 0.75 0.75 0.75 -4.992 4.995 c -2.746 2.747 -5 4.995 -5.02 4.995 c -0.013 0 -2.27 -2.248 -5.02 -4.995 z m -0.211 -4.245 -5.25 -5.253 5.25 -5.253 5.25 -5.253 l 5.25 5.253 5.25 5.253 -2.754 2.756 -2.754 2.756 -2 -2 -2 -2 1.476 -1.478 1.476 -1.478 -1.992 -1.993 -1.992 -1.993 -1.969 1.97 -1.969 1.97 3.996 3.999 3.996 3.999 -2 2 -2 2 z" style="fill:#000;opacity:0.12;fill-opacity:1"/>
 <path d="m 18.961 31.505 -4.992 -4.995 0.762 -0.762 0.762 -0.762 4.254 4.256 4.254 4.256 4.242 -4.245 4.242 -4.245 0.75 0.75 0.75 0.75 -4.992 4.995 c -2.746 2.747 -5 4.995 -5.02 4.995 c -0.013 0 -2.27 -2.248 -5.02 -4.995 z m -0.211 -4.245 -5.25 -5.253 5.25 -5.253 5.25 -5.253 l 5.25 5.253 5.25 5.253 -2.754 2.756 -2.754 2.756 -2 -2 -2 -2 1.476 -1.478 1.476 -1.478 -1.992 -1.993 -1.992 -1.993 -1.969 1.97 -1.969 1.97 3.996 3.999 3.996 3.999 -2 2 -2 2 z" style="fill:#e6e6e6;fill-opacity:1"/>
</svg>
