<svg viewBox="0 0 48 48" xmlns="http://www.w3.org/2000/svg" xmlns:xlink="http://www.w3.org/1999/xlink">
  <linearGradient id="a" gradientTransform="matrix(0 -1 1 0 -.0000015 47.999998)" gradientUnits="userSpaceOnUse" x1="1" x2="47">
    <stop offset="0" stop-color="#e51f32"/>
    <stop offset="1" stop-color="#e73245"/>
  </linearGradient>
  <path d="m47 24c0 22.703-.297 23-23 23-22.703 0-23-.297-23-23 0-22.703.297-23 23-23 22.703 0 23 .297 23 23z" fill="url(#a)"/>
  <path d="m19.961 32.505l-4.992-4.995.762-.762.762-.762 4.254 4.256 4.254 4.256 4.242-4.245 4.242-4.245.75.75.75.75-4.992 4.995c-2.746 2.747-5 4.995-5.02 4.995-.013 0-2.27-2.248-5.02-4.995zm-.211-4.245l-5.25-5.253 5.25-5.253 5.25-5.253 5.25 5.253 5.25 5.253-2.754 2.756-2.754 2.756-2-2-2-2 1.476-1.478 1.476-1.478-1.992-1.993-1.992-1.993-1.969 1.97-1.969 1.97 3.996 3.999 3.996 3.999-2 2-2 2z" opacity=".12"/>
  <path d="m18.961 31.505l-4.992-4.995.762-.762.762-.762 4.254 4.256 4.254 4.256 4.242-4.245 4.242-4.245.75.75.75.75-4.992 4.995c-2.746 2.747-5 4.995-5.02 4.995-.013 0-2.27-2.248-5.02-4.995zm-.211-4.245l-5.25-5.253 5.25-5.253 5.25-5.253 5.25 5.253 5.25 5.253-2.754 2.756-2.754 2.756-2-2-2-2 1.476-1.478 1.476-1.478-1.992-1.993-1.992-1.993-1.969 1.97-1.969 1.97 3.996 3.999 3.996 3.999-2 2-2 2z" fill="#e6e6e6"/>
</svg>
