<svg viewBox="0 0 48 48" xmlns="http://www.w3.org/2000/svg" xmlns:xlink="http://www.w3.org/1999/xlink">
  <linearGradient id="a" gradientUnits="userSpaceOnUse" x2="0" y1="1" y2="47">
    <stop offset="0" stop-color="#fc5858"/>
    <stop offset="1" stop-color="#fc4444"/>
  </linearGradient>
  <path d="m24 1c22.703 0 23 .297 23 23 0 22.703-.297 23-23 23-22.703 0-23-.297-23-23 0-22.703.297-23 23-23z" fill="url(#a)"/>
  <path d="m12.482 18.536l10.457 18.475c0 0 .566.989 1.991.989 1.424 0 1.991-.989 1.991-.989 0 0 7.268-11.132 10.233-17.07.298-.596.619-1.199.754-1.853.092-.444.136-.92.03-1.361-.129-.538-.378-1.088-.784-1.463-.469-.433-1.12-.699-1.754-.765-.682-.072-1.409.092-2.02.411-.429.226-.81.587-1.05 1.01-.238.419-.299.927-.326 1.408-.018.331.047.664.115.988.023.111.061.219.099.325.097.271.229.528.328.798.082.222.196.44.222.676.042.38.032.786-.108 1.141-.683 1.728-1.857 3.39-3.409 4.405-.643.42-1.466.525-2.233.558-.875.037-1.883-.032-2.593-.418-.71-.386-1.044-1.056-1.489-1.647-2.042-2.71-5.38-8.646-5.38-8.646 0 0-1.451-2.565-4.062-1.01-2.61 1.556-1.015 4.04-1.015 4.04z" fill-rule="evenodd" opacity=".1"/>
  <path d="m11.482 17.536l10.457 18.475c0 0 .566.989 1.991.989 1.424 0 1.991-.989 1.991-.989 0 0 7.268-11.132 10.233-17.07.298-.596.619-1.199.754-1.853.092-.444.136-.92.03-1.361-.129-.538-.378-1.088-.784-1.463-.469-.433-1.12-.699-1.754-.765-.682-.072-1.409.092-2.02.411-.429.226-.81.587-1.05 1.01-.238.419-.299.927-.326 1.408-.018.331.047.664.115.988.023.111.061.219.099.325.097.271.229.528.328.798.082.222.196.44.222.676.042.38.032.786-.108 1.141-.683 1.728-1.857 3.39-3.409 4.405-.643.42-1.466.525-2.233.558-.875.037-1.883-.032-2.593-.418-.71-.386-1.044-1.056-1.489-1.647-2.042-2.71-5.38-8.646-5.38-8.646 0 0-1.451-2.565-4.062-1.01-2.61 1.556-1.015 4.04-1.015 4.04z" fill="#f9f9f9" fill-rule="evenodd"/>
</svg>
