<svg xmlns="http://www.w3.org/2000/svg" viewBox="0 0 48 48">
 <defs>
  <linearGradient id="linearGradient3481" y1="1" x2="0" y2="47" gradientUnits="userSpaceOnUse">
   <stop style="stop-color:#fc5858;stop-opacity:1"/>
   <stop offset="1" style="stop-color:#fc4444;stop-opacity:1"/>
  </linearGradient>
 </defs>
 <g>
  
  
  
 </g>
 <g style="fill:url(#linearGradient3481);fill-opacity:1">
  <path d="m 24 1 c 22.703 0 23 0.297 23 23 c 0 22.703 -0.297 23 -23 23 -22.703 0 -23 -0.297 -23 -23 0 -22.703 0.297 -23 23 -23 z"/>
 </g>
 <g>
  
 </g>
 <path d="m 12.482 18.536 10.457 18.475 c 0 0 0.566 0.989 1.991 0.989 1.424 0 1.991 -0.989 1.991 -0.989 0 0 7.268 -11.132 10.233 -17.07 0.298 -0.596 0.619 -1.199 0.754 -1.853 0.092 -0.444 0.136 -0.92 0.03 -1.361 -0.129 -0.538 -0.378 -1.088 -0.784 -1.463 -0.469 -0.433 -1.12 -0.699 -1.754 -0.765 -0.682 -0.072 -1.409 0.092 -2.02 0.411 -0.429 0.226 -0.81 0.587 -1.05 1.01 -0.238 0.419 -0.299 0.927 -0.326 1.408 -0.018 0.331 0.047 0.664 0.115 0.988 0.023 0.111 0.061 0.219 0.099 0.325 0.097 0.271 0.229 0.528 0.328 0.798 0.082 0.222 0.196 0.44 0.222 0.676 0.042 0.38 0.032 0.786 -0.108 1.141 -0.683 1.728 -1.857 3.39 -3.409 4.405 -0.643 0.42 -1.466 0.525 -2.233 0.558 -0.875 0.037 -1.883 -0.032 -2.593 -0.418 -0.71 -0.386 -1.044 -1.056 -1.489 -1.647 -2.042 -2.71 -5.38 -8.646 -5.38 -8.646 0 0 -1.451 -2.565 -4.062 -1.01 -2.61 1.556 -1.015 4.04 -1.015 4.04 z" style="fill:#000;opacity:0.1;stroke:none;fill-rule:evenodd"/>
 <path d="m 11.482 17.536 10.457 18.475 c 0 0 0.566 0.989 1.991 0.989 1.424 0 1.991 -0.989 1.991 -0.989 0 0 7.268 -11.132 10.233 -17.07 0.298 -0.596 0.619 -1.199 0.754 -1.853 0.092 -0.444 0.136 -0.92 0.03 -1.361 -0.129 -0.538 -0.378 -1.088 -0.784 -1.463 -0.469 -0.433 -1.12 -0.699 -1.754 -0.765 -0.682 -0.072 -1.409 0.092 -2.02 0.411 -0.429 0.226 -0.81 0.587 -1.05 1.01 -0.238 0.419 -0.299 0.927 -0.326 1.408 -0.018 0.331 0.047 0.664 0.115 0.988 0.023 0.111 0.061 0.219 0.099 0.325 0.097 0.271 0.229 0.528 0.328 0.798 0.082 0.222 0.196 0.44 0.222 0.676 0.042 0.38 0.032 0.786 -0.108 1.141 -0.683 1.728 -1.857 3.39 -3.409 4.405 -0.643 0.42 -1.466 0.525 -2.233 0.558 -0.875 0.037 -1.883 -0.032 -2.593 -0.418 -0.71 -0.386 -1.044 -1.056 -1.489 -1.647 -2.042 -2.71 -5.38 -8.646 -5.38 -8.646 0 0 -1.451 -2.565 -4.062 -1.01 -2.61 1.556 -1.015 4.04 -1.015 4.04 z" style="fill:#f9f9f9;stroke:none;fill-rule:evenodd"/>
</svg>
