<svg xmlns="http://www.w3.org/2000/svg" viewBox="0 0 48 48">
 <defs>
  <linearGradient id="linearGradient3764" x1="1" x2="47" gradientUnits="userSpaceOnUse" gradientTransform="matrix(0,-1,1,0,-1.5e-6,47.999998)">
   <stop style="stop-color:#d5d5d5;stop-opacity:1"/>
   <stop offset="1" style="stop-color:#dfdfdf;stop-opacity:1"/>
  </linearGradient>
  <linearGradient id="linear0" gradientUnits="userSpaceOnUse" x1="24.737" y1="38.11" x2="24.701" y2="9.03">
   <stop style="stop-color:#fbbf19;stop-opacity:1"/>
   <stop offset="1" style="stop-color:#ffeb37;stop-opacity:1"/>
  </linearGradient>
 </defs>
 <g>
  
  
  
 </g>
 <g>
  <path d="m 47,24 C 47,46.703 46.703,47 24,47 1.297,47 1,46.703 1,24 1,1.297 1.297,1 24,1 46.703,1 47,1.297 47,24 z" style="fill:url(#linearGradient3764);fill-opacity:1"/>
 </g>
 <g>
  <g>
   <g transform="translate(1,1)">
    <g style="opacity:0.1">
     <!-- color: #dfdfdf -->
     <g>
      <path d="m 14 12 c -1 0 -2 1 -2 2 l 0 7 c 0 1 1 2 2 2 c 1 0 2 -1 2 -2 l 0 -3 l 2 2 l 0 3 l 3 0 l 0 -1 c -0.031 -0.664 0.301 -0.996 1 -1 l 1 0 l 0 -3 l -3 0 l -2 -2 l 3 0 c 1 0 2 -1 2 -2 c 0 -1 -1 -2 -2 -2 m 6 0 c -1 0 -2 1 -2 2 c 0 1 1 2 2 2 l 3 0 l -2 2 l -3 0 l 0 3 l 1 0 c 0.664 -0.031 0.996 0.301 1 1 l 0 1 l 3 0 l 0 -3 l 2 -2 l 0 3 c 0 1 1 2 2 2 c 1 0 2 -1 2 -2 l 0 -7 c 0 -1 -1 -2 -2 -2 m -16 13 l 0 3 c 0 1 1 2 2 2 l 3 0 l 0 -3 l -1 0 c -0.664 0.031 -0.996 -0.301 -1 -1 l 0 -1 m 6 0 l 0 1 c 0.031 0.664 -0.301 0.996 -1 1 l -1 0 l 0 3 l 3 0 l 2 2 l -3 0 c -1 0 -2 1 -2 2 c 0 1 1 2 2 2 l 7 0 c 1 0 2 -1 2 -2 l 0 -7 c 0 -1 -1 -2 -2 -2 c -1 0 -2 1 -2 2 l 0 3 l -2 -2 l 0 -3 m -3 0" style="fill:#000;stroke:none;fill-rule:nonzero"/>
     </g>
    </g>
   </g>
  </g>
 </g>
 <g>
  <g>
   <!-- color: #dfdfdf -->
   <g>
    <path d="m 14 12 c -1 0 -2 1 -2 2 l 0 7 c 0 1 1 2 2 2 c 1 0 2 -1 2 -2 l 0 -3 l 2 2 l 0 3 l 3 0 l 0 -1 c -0.031 -0.664 0.301 -0.996 1 -1 l 1 0 l 0 -3 l -3 0 l -2 -2 l 3 0 c 1 0 2 -1 2 -2 c 0 -1 -1 -2 -2 -2 m 6 0 c -1 0 -2 1 -2 2 c 0 1 1 2 2 2 l 3 0 l -2 2 l -3 0 l 0 3 l 1 0 c 0.664 -0.031 0.996 0.301 1 1 l 0 1 l 3 0 l 0 -3 l 2 -2 l 0 3 c 0 1 1 2 2 2 c 1 0 2 -1 2 -2 l 0 -7 c 0 -1 -1 -2 -2 -2 m -16 13 l 0 3 c 0 1 1 2 2 2 l 3 0 l 0 -3 l -1 0 c -0.664 0.031 -0.996 -0.301 -1 -1 l 0 -1 m 6 0 l 0 1 c 0.031 0.664 -0.301 0.996 -1 1 l -1 0 l 0 3 l 3 0 l 2 2 l -3 0 c -1 0 -2 1 -2 2 c 0 1 1 2 2 2 l 7 0 c 1 0 2 -1 2 -2 l 0 -7 c 0 -1 -1 -2 -2 -2 c -1 0 -2 1 -2 2 l 0 3 l -2 -2 l 0 -3 m -3 0" style="fill:url(#linear0);stroke:none;fill-rule:nonzero"/>
   </g>
  </g>
 </g>
 <g>
  
 </g>
</svg>
