<svg xmlns="http://www.w3.org/2000/svg" viewBox="0 0 48 48">
 <defs>
  <linearGradient id="linearGradient3764" x1="1" x2="47" gradientUnits="userSpaceOnUse" gradientTransform="matrix(0,-1,1,0,-1.5e-6,47.999998)">
   <stop style="stop-color:#d5d5d5;stop-opacity:1"/>
   <stop offset="1" style="stop-color:#dfdfdf;stop-opacity:1"/>
  </linearGradient>
 </defs>
 <g>
  
  
  
 </g>
 <g>
  <path d="m 47,24 C 47,46.703 46.703,47 24,47 1.297,47 1,46.703 1,24 1,1.297 1.297,1 24,1 46.703,1 47,1.297 47,24 z" style="fill:url(#linearGradient3764);fill-opacity:1"/>
 </g>
 <g>
  <g>
   <g transform="translate(1,1)">
    <g style="opacity:0.1">
     <!-- color: #dfdfdf -->
     <g>
      <path d="m 11.531 13 c -0.297 0.031 -0.531 0.297 -0.531 0.594 l 0 10.816 c 0 0.316 0.277 0.594 0.594 0.594 l 5.406 0 l 0 2 l -4 0 l 0 2 l 7.281 0 l 0 -6 l -6.84 0 c -0.211 0 -0.41 -0.195 -0.41 -0.41 l 0 -7.184 c -0.004 -0.188 0.129 -0.371 0.313 -0.406 c 0.023 -0.004 0.066 -0.004 0.094 0 l 11.125 0 c 0.207 0 0.406 0.191 0.406 0.406 l 0 2.875 l 2.031 0 l 0 -4.691 c 0 -0.313 -0.281 -0.594 -0.594 -0.594 m -14.875 0" style="fill:#000;fill-opacity:1;stroke:none;fill-rule:nonzero"/>
      <path d="m 21.781 19 l 3.125 2 l 9.656 0 c 0.207 0 0.406 0.195 0.406 0.406 l 0 7.188 c 0 0.211 -0.199 0.406 -0.406 0.406 l -11.125 0 c -0.211 0 -0.406 -0.195 -0.406 -0.406 l 0 -4.469 l -2.031 -1.313 l 0 7.594 c 0 0.313 0.281 0.594 0.594 0.594 l 5.406 0 l 0 2 l -4 0 l 0 2 l 12 0 l 0 -2 l -4 0 l 0 -2 l 5.406 0 c 0.313 0 0.594 -0.277 0.594 -0.594 l 0 -10.813 c 0 -0.316 -0.281 -0.594 -0.594 -0.594 m -14.625 0" style="fill:#000;fill-opacity:1;stroke:none;fill-rule:nonzero"/>
      <path d="m 19.906 19.277 c 0 0 -0.326 -0.017 -0.775 0.688 -0.438 0.676 -0.277 1.012 -0.277 1.012 2.158 1.39 6.479 4.164 6.479 4.164 l 2.207 0.227 -1.133 -1.908 c 0 0 -4.503 -2.902 -6.5 -4.182 z" transform="translate(-1,-1)" style="fill:#000;fill-opacity:1;stroke:none;fill-rule:nonzero"/>
     </g>
    </g>
   </g>
  </g>
 </g>
 <g>
  <g>
   <!-- color: #dfdfdf -->
   <g>
    <path d="M 11.531,13 C 11.234,13.031 11,13.297 11,13.594 l 0,10.816 c 0,0.316 0.277,0.594 0.594,0.594 l 5.406,0 0,2 -4,0 0,2 7.281,0 0,-6 -6.84,0 c -0.211,0 -0.41,-0.195 -0.41,-0.41 l 0,-7.184 c -0.004,-0.188 0.129,-0.371 0.313,-0.406 0.023,-0.004 0.066,-0.004 0.094,0 l 11.125,0 c 0.207,0 0.406,0.191 0.406,0.406 l 0,2.875 2.031,0 0,-4.691 C 27,13.281 26.719,13 26.406,13 m -14.875,0" style="fill:#2fa32f;fill-opacity:1;stroke:none;fill-rule:nonzero"/>
    <path d="m 21.781,19 3.125,2 9.656,0 c 0.207,0 0.406,0.195 0.406,0.406 l 0,7.188 c 0,0.211 -0.199,0.406 -0.406,0.406 l -11.125,0 c -0.211,0 -0.406,-0.195 -0.406,-0.406 l 0,-4.469 L 21,22.812 21,30.406 C 21,30.719 21.281,31 21.594,31 l 5.406,0 0,2 -4,0 0,2 12,0 0,-2 -4,0 0,-2 5.406,0 C 36.719,31 37,30.723 37,30.406 l 0,-10.813 c 0,-0.316 -0.281,-0.594 -0.594,-0.594 m -14.625,0" style="fill:#3692b3;fill-opacity:1;stroke:none;fill-rule:nonzero"/>
    <path d="m 24.332 24.14 -5.793 -3.723 1.078 -1.684 5.793 3.723 m -1.078 1.684" style="fill:#ff6f03;fill-opacity:1;stroke:none;fill-rule:nonzero"/>
    <path d="m 18.848 20.617 1.082 -1.684 -1.023 -0.656 c 0 0 -0.328 -0.016 -0.777 0.688 -0.438 0.676 -0.277 1.012 -0.277 1.012 l 0.996 0.641 m 0 0.004" style="fill:#ff2d5b;fill-opacity:1;stroke:none;fill-rule:nonzero"/>
    <path d="m 24.316 24.13 2.223 0.238 -1.141 -1.922 m -1.082 1.684" style="fill:#ffc13d;fill-opacity:1;stroke:none;fill-rule:nonzero"/>
    <path d="m 25.426 24.26 1.113 0.105 -0.566 -0.969 m -0.547 0.855" style="fill:#2d2d2d;fill-opacity:1;stroke:none;fill-rule:nonzero"/>
   </g>
  </g>
 </g>
 <g>
  
 </g>
</svg>
