<svg viewBox="0 0 48 48" xmlns="http://www.w3.org/2000/svg" xmlns:xlink="http://www.w3.org/1999/xlink">
  <linearGradient id="a" gradientTransform="matrix(0 -1 1 0 -.0000015 47.999998)" gradientUnits="userSpaceOnUse" x1="1" x2="47">
    <stop offset="0" stop-color="#e4e4e4"/>
    <stop offset="1" stop-color="#eee"/>
  </linearGradient>
  <path d="m47 24c0 22.703-.297 23-23 23-22.703 0-23-.297-23-23 0-22.703.297-23 23-23 22.703 0 23 .297 23 23z" fill="url(#a)"/>
  <path d="m19 13c-1.108 0-2 .892-2 2v2h-2c-1.108 0-2 .892-2 2v16c0 1.108.892 2 2 2h16c1.108 0 2-.892 2-2v-2h2c1.108 0 2-.892 2-2v-16c0-1.108-.892-2-2-2zm0 2h16v16h-2v-12c0-1.108-.892-2-2-2h-12zm-4 4h2v12c0 1.108.892 2 2 2h12v2h-16zm4 0h12v12h-12z" opacity=".1"/>
  <path d="m14 16c-1.108 0-2 .892-2 2v16c0 1.108.892 2 2 2h16c1.108 0 2-.892 2-2v-16c0-1.108-.892-2-2-2zm0 2h16v16h-16z" fill="#f4a300"/>
  <path d="m18 12c-1.108 0-2 .892-2 2v16c0 1.108.892 2 2 2h16c1.108 0 2-.892 2-2v-16c0-1.108-.892-2-2-2zm0 2h16v16h-16z" fill="#45abe4"/>
  <path d="m18 16h1v2h-1z" opacity=".1"/>
  <path d="m30 32h2v1h-2z" opacity=".1"/>
</svg>
