<svg xmlns="http://www.w3.org/2000/svg" viewBox="0 0 48 48">
 <defs>
  <linearGradient id="linearGradient3764" x1="1" x2="47" gradientUnits="userSpaceOnUse" gradientTransform="matrix(0,-1,1,0,-1.5e-6,47.999998)">
   <stop style="stop-color:#b1c9c9;stop-opacity:1"/>
   <stop offset="1" style="stop-color:#bdd1d1;stop-opacity:1"/>
  </linearGradient>
 </defs>
 <g>
  
  
  
 </g>
 <g>
  <path d="m 47,24 C 47,46.703 46.703,47 24,47 1.297,47 1,46.703 1,24 1,1.297 1.297,1 24,1 46.703,1 47,1.297 47,24 z" style="fill:url(#linearGradient3764);fill-opacity:1"/>
 </g>
 <g>
  
 </g>
 <g transform="matrix(3.543307,0,0,3.543307,-0.00118111,1.7010157e-6)">
  <g transform="translate(0.2822222,0.28222215)" style="opacity:0.1">
   <path d="m 18.541 13 c -1.776 0 -3.225 1.296 -3.488 2.996 l -1.521 0 c -0.294 0 -0.531 0.239 -0.531 0.533 l 0 0.934 c 0 0.294 0.237 0.533 0.531 0.533 l 1.467 0 l 0 2 l -1.467 0 c -0.294 0 -0.531 0.237 -0.531 0.531 l 0 0.936 c 0 0.294 0.237 0.531 0.531 0.531 l 1.467 0 l 0 2 l -1.467 0 c -0.294 0 -0.531 0.237 -0.531 0.531 l 0 0.936 c 0 0.294 0.237 0.531 0.531 0.531 l 1.467 0 l 0 2 l -1.467 0 c -0.294 0 -0.531 0.237 -0.531 0.531 l 0 0.936 c 0 0.294 0.237 0.531 0.531 0.531 l 1.467 0 l 0 2 l -1.467 0 c -0.294 0 -0.531 0.237 -0.531 0.531 l 0 0.936 c 0 0.294 0.237 0.531 0.531 0.531 l 1.521 0 c 0.261 1.702 1.711 3 3.488 3 l 12.912 0 c 1.777 0 3.229 -1.3 3.49 -3 l 1.17 0 c 0.491 0 0.885 -0.394 0.885 -0.885 l 0 -2.229 c 0 -0.491 -0.394 -0.887 -0.885 -0.887 l -1.117 0 l 0 -2.998 l 1.117 0 c 0.491 0 0.885 -0.394 0.885 -0.885 l 0 -2.229 c 0 -0.491 -0.394 -0.887 -0.885 -0.887 l -1.117 0 l 0 -3 l 1.117 0 c 0.491 0 0.885 -0.396 0.885 -0.887 l 0 -2.229 c 0 -0.491 -0.394 -0.887 -0.885 -0.887 l -1.17 0 c -0.263 -1.7 -1.714 -2.996 -3.49 -2.996 l -12.912 0 z" transform="matrix(0.28222223,0,0,0.28222223,-0.28188886,-0.28222263)" style="fill:#000;fill-opacity:1;stroke:none"/>
  </g>
  <rect width="0.847" height="1.129" x="9.313" y="8.184" rx="0.25" style="fill:#4747d8;fill-opacity:1;stroke:none"/>
  <rect rx="0.25" y="6.209" x="9.313" height="1.129" width="0.847" style="fill:#49d74a;fill-opacity:1;stroke:none"/>
  <rect width="0.847" height="1.129" x="9.313" y="4.233" rx="0.25" style="fill:#f13e3e;fill-opacity:1;stroke:none"/>
  <rect width="5.644" height="6.773" x="3.951" y="3.387" rx="1" style="fill:#f9f9f9;fill-opacity:1;stroke:none"/>
  <path d="m 4.948 3.387 c -0.554 0 -0.997 0.443 -0.997 0.997 l 0 4.78 c 0 0.554 0.443 0.997 0.997 0.997 l 0.132 0 0 -6.773 z" style="fill:#3a3a3a;fill-opacity:1;stroke:none"/>
  <rect rx="0.15" y="5.362" x="3.387" height="0.564" width="1.129" style="fill:#81584a;fill-opacity:1;stroke:none"/>
  <rect width="1.129" height="0.564" x="3.387" y="6.491" rx="0.15" style="fill:#81584a;fill-opacity:1;stroke:none"/>
  <rect rx="0.15" y="7.62" x="3.387" height="0.564" width="1.129" style="fill:#81584a;fill-opacity:1;stroke:none"/>
  <rect width="1.129" height="0.564" x="3.387" y="8.749" rx="0.15" style="fill:#81584a;fill-opacity:1;stroke:none"/>
  <rect width="1.129" height="0.564" x="3.387" y="4.233" rx="0.15" style="fill:#81584a;fill-opacity:1;stroke:none"/>
  <g transform="matrix(0,-0.51162791,0.51162791,0,4.3227028,4.5067992)" style="fill:#000;opacity:0.12;fill-opacity:1">
   <path d="m -8.933,3.411 1.055,0 1.444,4.324 1.421,-4.324 1.066,0 -1.981,5.692 C -6.008,9.336 -6.187,9.477 -6.431,9.479 -6.677,9.481 -6.861,9.338 -6.942,9.103 L -8.933,3.411" style="stroke:none;fill-rule:evenodd"/>
   <path d="m -3.888 6.294 0 -1.619 c 0 -0.71 0.7 -1.274 1.446 -1.264 0.736 0.011 1.408 0.562 1.408 1.264 l 0 1.619 -0.697 0 0 -1.514 c 0 -0.371 -0.337 -0.64 -0.711 -0.644 -0.379 -0.007 -0.734 0.266 -0.734 0.644 l 0 1.514 -0.711 0" style="stroke:none;fill-rule:evenodd"/>
   <path d="m -1.031 9.479 -1.607 0 c -0.703 0 -1.265 -0.705 -1.254 -1.458 0.001 -0.74 0.558 -1.417 1.254 -1.417 l 1.607 0 0 0.7 -1.503 0 c -0.368 0 -0.633 0.341 -0.64 0.717 -0.007 0.384 0.264 0.741 0.64 0.741 l 1.503 0 0 0.717" style="stroke:none;fill-rule:evenodd"/>
  </g>
  <g transform="matrix(0,-0.51162791,0.51162791,0,4.0404805,4.2245181)">
   <path d="m -8.933,3.411 1.055,0 1.444,4.324 1.421,-4.324 1.066,0 -1.981,5.692 C -6.008,9.336 -6.187,9.477 -6.431,9.479 -6.677,9.481 -6.861,9.338 -6.942,9.103 L -8.933,3.411" style="fill:#f13e3e;fill-opacity:1;stroke:none;fill-rule:evenodd"/>
   <path d="m -3.888 6.294 0 -1.619 c 0 -0.71 0.7 -1.274 1.446 -1.264 0.736 0.011 1.408 0.562 1.408 1.264 l 0 1.619 -0.697 0 0 -1.514 c 0 -0.371 -0.337 -0.64 -0.711 -0.644 -0.379 -0.007 -0.734 0.266 -0.734 0.644 l 0 1.514 -0.711 0" style="fill:#49d74a;fill-opacity:1;stroke:none;fill-rule:evenodd"/>
   <path d="m -1.031 9.479 -1.607 0 c -0.703 0 -1.265 -0.705 -1.254 -1.458 0.001 -0.74 0.558 -1.417 1.254 -1.417 l 1.607 0 0 0.7 -1.503 0 c -0.368 0 -0.633 0.341 -0.64 0.717 -0.007 0.384 0.264 0.741 0.64 0.741 l 1.503 0 0 0.717" style="fill:#4747d8;fill-opacity:1;stroke:none;fill-rule:evenodd"/>
  </g>
 </g>
</svg>
