<svg xmlns="http://www.w3.org/2000/svg" viewBox="0 0 48 48">
 <defs>
  <linearGradient id="linearGradient3764" x1="1" x2="47" gradientUnits="userSpaceOnUse" gradientTransform="matrix(0,-1,1,0,-1.5e-6,47.999998)">
   <stop style="stop-color:#f8ee4c;stop-opacity:1"/>
   <stop offset="1" style="stop-color:#f9f05f;stop-opacity:1"/>
  </linearGradient>
 </defs>
 <g>
  
  
  
 </g>
 <g>
  <path d="m 47,24 C 47,46.703 46.703,47 24,47 1.297,47 1,46.703 1,24 1,1.297 1.297,1 24,1 46.703,1 47,1.297 47,24 z" style="fill:url(#linearGradient3764);fill-opacity:1"/>
 </g>
 <g>
  
 </g>
 <g transform="matrix(3.543307,0,0,3.543307,2.2e-7,-1.0026248)">
  <g transform="translate(0.28222224,0.2822227)" style="fill:#000;opacity:0.12;fill-opacity:1">
   <path d="m 10 13.996 l 7.05 20.641 c 0.287 0.85 0.939 1.368 1.811 1.361 c 0.865 -0.004 1.5 -0.518 1.783 -1.361 l 7.02 -20.641 l -3.775 0 l -5.04 15.68 l -5.117 -15.68 l -3.738 0 z m 23 0.004 c -2.77 0 -5 2.23 -5 5 l 0 5 l 3 0 l 0 -5 c 0 -1.108 0.892 -2 2 -2 c 1.108 0 2 0.892 2 2 l 0 5 l 3 0 l 0 -5 c 0 -2.77 -2.23 -5 -5 -5 z m -0.299 12 c -0.842 0.042 -1.663 0.292 -2.355 0.76 c -1.846 1.244 -2.481 3.512 -1.514 5.596 l -4.209 4.213 c -1.403 1.403 -1.325 2.911 -0.701 3.51 c 0.624 0.599 2.105 0.702 3.508 -0.701 l 2.105 0.701 l -1.404 -2.809 l 3.508 0.701 l -0.701 -2.105 l 0.701 -0.701 c 2.066 1 4.27 0.397 5.549 -1.424 c 1.279 -1.825 1 -4.631 -0.613 -6.275 l 0 -0.004 c -1.01 -1.028 -2.47 -1.532 -3.873 -1.461 z m 1.066 3.24 c 0.26 0 0.519 0.103 0.725 0.309 c 0.411 0.411 0.411 1.038 0 1.449 c -0.411 0.411 -1.038 0.411 -1.449 0 c -0.411 -0.411 -0.411 -1.038 0 -1.449 c 0.206 -0.206 0.465 -0.309 0.725 -0.309 z" transform="matrix(0.28222223,0,0,0.28222223,-0.2822223,7.4030603e-4)" style="color:#000"/>
  </g>
  <g>
   <path d="M 10.04,7.752 C 9.584,7.288 8.803,7.202 8.282,7.554 7.761,7.905 7.582,8.545 7.855,9.133 l -1.188,1.189 c -0.396,0.396 -0.374,0.822 -0.198,0.991 0.176,0.169 0.594,0.198 0.99,-0.198 L 8.053,11.313 7.657,10.52 8.647,10.718 8.449,10.124 8.647,9.926 C 9.23,10.209 9.852,10.038 10.213,9.524 10.574,9.009 10.496,8.217 10.04,7.753 M 9.452,8.341 c 0.116,0.116 0.116,0.293 0,0.409 -0.116,0.116 -0.293,0.116 -0.409,0 -0.116,-0.116 -0.116,-0.293 0,-0.409 0.116,-0.116 0.293,-0.116 0.409,0 z" style="fill:#5b5bd1;fill-opacity:1;color:#000"/>
   <path d="m 2.54,3.951 1.055,0 1.444,4.425 1.421,-4.425 1.066,0 -1.981,5.825 C 5.465,10.014 5.286,10.159 5.042,10.16 4.796,10.162 4.612,10.016 4.531,9.776 L 2.54,3.951" style="fill:#e94646;fill-opacity:1;stroke:none;fill-rule:evenodd"/>
  </g>
 </g>
 <path d="m 32 13 c -2.77 0 -5 2.23 -5 5 l 0 5 3 0 0 -5 c 0 -1.108 0.892 -2 2 -2 1.108 0 2 0.892 2 2 l 0 5 3 0 0 -5 c 0 -2.77 -2.23 -5 -5 -5 z" style="fill:#45c546;opacity:1;fill-opacity:1;stroke:none"/>
</svg>
