<svg xmlns="http://www.w3.org/2000/svg" viewBox="0 0 48 48">
 <defs>
  <linearGradient id="linearGradient3764" x1="1" x2="47" gradientUnits="userSpaceOnUse" gradientTransform="matrix(0,-1,1,0,-1.5e-6,47.999998)">
   <stop style="stop-color:#e4e4e4;stop-opacity:1"/>
   <stop offset="1" style="stop-color:#eee;stop-opacity:1"/>
  </linearGradient>
 </defs>
 <g>
  
  
  
 </g>
 <g>
  <path d="m 47,24 C 47,46.703 46.703,47 24,47 1.297,47 1,46.703 1,24 1,1.297 1.297,1 24,1 46.703,1 47,1.297 47,24 z" style="fill:url(#linearGradient3764);fill-opacity:1"/>
 </g>
 <g>
  
 </g>
 <path d="m 10.01 15 l 7.05 20.639 c 0.288 0.85 0.94 1.366 1.811 1.359 c 0.865 -0.005 1.498 -0.515 1.781 -1.359 l 7.02 -20.639 l -3.779 0 l -5.04 15.68 l -5.117 -15.68 l -3.729 0 z m 22.99 0 c -2.77 0 -5 2.23 -5 5 l 0 5 l 3 0 l 0 -5 c 0 -1.108 0.892 -2 2 -2 c 1.108 0 2 0.892 2 2 l 0 5 l 3 0 l 0 -5 c 0 -2.77 -2.23 -5 -5 -5 z m 0 12 c -2.77 0 -5 2.23 -5 5 c 0 2.77 2.23 5 5 5 l 5 0 l 0 -3 l -5 0 c -1.108 0 -2 -0.892 -2 -2 c 0 -1.108 0.892 -2 2 -2 l 5 0 l 0 -3 l -5 0 z" style="fill:#000;opacity:0.1;fill-opacity:1;stroke:none;fill-rule:evenodd"/>
 <path d="m 9 14 3.738 0 5.117 15.679 l 5.04 -15.679 3.778 0 -7.02 20.638 c -0.283 0.844 -0.917 1.356 -1.782 1.361 -0.871 0.007 -1.523 -0.511 -1.811 -1.361 l -7.05 -20.638" style="fill:#49d74a;fill-opacity:1;stroke:none;fill-rule:evenodd"/>
 <path d="m 32 14 c -2.77 0 -5 2.23 -5 5 l 0 5 3 0 0 -5 c 0 -1.108 0.892 -2 2 -2 1.108 0 2 0.892 2 2 l 0 5 3 0 0 -5 c 0 -2.77 -2.23 -5 -5 -5 z" style="fill:#5252da;opacity:1;fill-opacity:1;stroke:none"/>
 <path d="m 27 31 c 0 2.77 2.23 5 5 5 l 5 0 0 -3 -5 0 c -1.108 0 -2 -0.892 -2 -2 0 -1.108 0.892 -2 2 -2 l 5 0 0 -3 -5 0 c -2.77 0 -5 2.23 -5 5 z" style="fill:#f13e3e;opacity:1;fill-opacity:1;stroke:none"/>
</svg>
