<svg xmlns="http://www.w3.org/2000/svg" viewBox="0 0 48 48">
 <defs>
  <linearGradient id="linearGradient3764" x1="1" x2="47" gradientUnits="userSpaceOnUse" gradientTransform="matrix(0,-1,1,0,-1.5e-6,47.999998)">
   <stop style="stop-color:#c25fc3;stop-opacity:1"/>
   <stop offset="1" style="stop-color:#c975cb;stop-opacity:1"/>
  </linearGradient>
 </defs>
 <g>
  
  
  
 </g>
 <g>
  <path d="m 47,24 C 47,46.703 46.703,47 24,47 1.297,47 1,46.703 1,24 1,1.297 1.297,1 24,1 46.703,1 47,1.297 47,24 z" style="fill:url(#linearGradient3764);fill-opacity:1"/>
 </g>
 <g>
  
 </g>
 <g transform="scale(3.543307,3.543307)">
  <g transform="translate(-10.724445,0)">
   <path d="m 17.78 2.822 c -2.338 0 -4.233 1.895 -4.233 4.233 0 2.338 1.895 4.233 4.233 4.233 2.338 0 4.233 -1.895 4.233 -4.233 0 -2.338 -1.895 -4.233 -4.233 -4.233 z m -0.001 0.282 c 2.182 0 3.952 1.769 3.952 3.951 0 2.182 -1.77 3.951 -3.952 3.951 -2.182 0 -3.951 -1.769 -3.951 -3.951 0 -2.182 1.769 -3.951 3.951 -3.951 z m 0 0.565 c -1.87 0 -3.387 1.516 -3.387 3.387 0 1.87 1.516 3.387 3.387 3.387 1.87 0 3.387 -1.516 3.387 -3.387 0 -1.87 -1.516 -3.387 -3.387 -3.387 z m 0 0.282 c 1.715 0 3.104 1.39 3.104 3.104 0 1.715 -1.39 3.104 -3.104 3.104 -1.715 0 -3.104 -1.39 -3.104 -3.104 0 -1.715 1.39 -3.104 3.104 -3.104 z m 0.001 0.847 c -0.468 0 -0.847 0.282 -0.847 0.706 l 0 0.141 0.564 0 0 0.282 -0.564 0 0 0.282 0.564 0 0 0.282 -0.564 0 0 0.282 0.564 0 0 0.282 -0.564 0 0 0.141 c 0 0.333 0.236 0.576 0.564 0.666 l 0 0.284 a 1.129 1.129 0 0 1 -0.846 -1.091 l 0 -0.706 c 0 -0.078 -0.063 -0.141 -0.141 -0.141 -0.078 0 -0.141 0.063 -0.141 0.141 l 0 0.706 a 1.411 1.411 0 0 0 1.128 1.381 l 0 0.312 -0.846 0 0 0.282 0.846 0 0.564 0 0.848 0 0 -0.282 -0.848 0 0 -0.31 a 1.411 1.411 0 0 0 1.13 -1.383 l 0 -0.706 c 0 -0.078 -0.063 -0.141 -0.141 -0.141 -0.078 0 -0.141 0.063 -0.141 0.141 l 0 0.706 a 1.129 1.129 0 0 1 -0.848 1.093 l 0 -0.285 c 0.329 -0.089 0.566 -0.333 0.566 -0.666 l 0 -0.141 -0.566 0 0 -0.282 0.566 0 0 -0.282 -0.566 0 0 -0.282 0.566 0 0 -0.282 -0.566 0 0 -0.282 0.566 0 0 -0.141 c 0 -0.423 -0.379 -0.706 -0.847 -0.706 z" style="fill:#000;opacity:0.1;fill-opacity:1;stroke:none"/>
   <path d="m 17.215 5.08 0 2.785 a 1.129 1.129 0 0 1 -0.846 -1.091 l 0 -0.706 c 0 -0.078 -0.063 -0.141 -0.141 -0.141 -0.078 0 -0.141 0.063 -0.141 0.141 l 0 0.706 a 1.411 1.411 0 0 0 1.128 1.381 l 0 0.312 -0.846 0 0 0.282 0.846 0 0.564 0 0.848 0 0 -0.282 -0.848 0 0 -0.31 a 1.411 1.411 0 0 0 1.13 -1.383 l 0 -0.706 c 0 -0.078 -0.063 -0.141 -0.141 -0.141 -0.078 0 -0.141 0.063 -0.141 0.141 l 0 0.706 a 1.129 1.129 0 0 1 -0.848 1.093 l 0 -2.786 -0.564 0 z" style="fill:#f9f9f9;fill-opacity:1;stroke:none"/>
   <path d="m 17.498 2.54 c -2.338 0 -4.233 1.895 -4.233 4.233 0 2.338 1.895 4.233 4.233 4.233 2.338 0 4.233 -1.895 4.233 -4.233 0 -2.338 -1.895 -4.233 -4.233 -4.233 z m -0.001 0.282 c 2.182 0 3.952 1.769 3.952 3.951 0 2.182 -1.77 3.951 -3.952 3.951 -2.182 0 -3.951 -1.769 -3.951 -3.951 0 -2.182 1.769 -3.951 3.951 -3.951 z" style="fill:#f9f9f9;fill-opacity:1;stroke:none"/>
   <path d="m 17.497 3.387 c -1.87 0 -3.387 1.516 -3.387 3.387 0 1.87 1.516 3.387 3.387 3.387 1.87 0 3.387 -1.516 3.387 -3.387 0 -1.87 -1.516 -3.387 -3.387 -3.387 z m 0 0.282 c 1.715 0 3.104 1.39 3.104 3.104 0 1.715 -1.39 3.104 -3.104 3.104 -1.715 0 -3.104 -1.39 -3.104 -3.104 0 -1.715 1.39 -3.104 3.104 -3.104 z" style="fill:#f9f9f9;fill-opacity:1;stroke:none"/>
  </g>
 </g>
 <path d="m 24 16 c -1.657 0 -3 1 -3 2.5 l 0 0.5 l 6 0 l 0 -0.5 c 0 -1.5 -1.343 -2.5 -3 -2.5 z m -3 4 l 0 1 l 6 0 l 0 -1 l -6 0 z m 0 2 l 0 1 l 6 0 l 0 -1 l -6 0 z m 0 2 l 0 0.5 c 0 1.5 1.343 2.5 3 2.5 c 1.657 0 3 -1 3 -2.5 l 0 -0.5 l -6 0 z" style="fill:#f9f9f9;opacity:1;fill-opacity:1;stroke:none"/>
</svg>
