<svg viewBox="0 0 48 48" xmlns="http://www.w3.org/2000/svg" xmlns:xlink="http://www.w3.org/1999/xlink">
  <linearGradient id="a" gradientTransform="matrix(0 -1 1 0 -.0000015 47.999998)" gradientUnits="userSpaceOnUse" x1="1" x2="47">
    <stop offset="0" stop-color="#c25fc3"/>
    <stop offset="1" stop-color="#c975cb"/>
  </linearGradient>
  <path d="m47 24c0 22.703-.297 23-23 23-22.703 0-23-.297-23-23 0-22.703.297-23 23-23 22.703 0 23 .297 23 23z" fill="url(#a)"/>
  <g transform="matrix(3.543307 0 0 3.543307 -38.00000104 0)">
    <path d="m17.78 2.822c-2.338 0-4.233 1.895-4.233 4.233 0 2.338 1.895 4.233 4.233 4.233 2.338 0 4.233-1.895 4.233-4.233 0-2.338-1.895-4.233-4.233-4.233zm-.001.282c2.182 0 3.952 1.769 3.952 3.951 0 2.182-1.77 3.951-3.952 3.951-2.182 0-3.951-1.769-3.951-3.951 0-2.182 1.769-3.951 3.951-3.951zm0 .565c-1.87 0-3.387 1.516-3.387 3.387 0 1.87 1.516 3.387 3.387 3.387 1.87 0 3.387-1.516 3.387-3.387 0-1.87-1.516-3.387-3.387-3.387zm0 .282c1.715 0 3.104 1.39 3.104 3.104 0 1.715-1.39 3.104-3.104 3.104-1.715 0-3.104-1.39-3.104-3.104 0-1.715 1.39-3.104 3.104-3.104zm.001.847c-.468 0-.847.282-.847.706v.141h.564v.282h-.564v.282h.564v.282h-.564v.282h.564v.282h-.564v.141c0 .333.236.576.564.666v.284a1.129 1.129 0 0 1-.846-1.091v-.706c0-.078-.063-.141-.141-.141-.078 0-.141.063-.141.141v.706a1.411 1.411 0 0 0 1.128 1.381v.312h-.846v.282h.846.564.848v-.282h-.848v-.31a1.411 1.411 0 0 0 1.13-1.383v-.706c0-.078-.063-.141-.141-.141-.078 0-.141.063-.141.141v.706a1.129 1.129 0 0 1-.848 1.093v-.285c.329-.089.566-.333.566-.666v-.141h-.566v-.282h.566v-.282h-.566v-.282h.566v-.282h-.566v-.282h.566v-.141c0-.423-.379-.706-.847-.706z" opacity=".1"/>
    <path d="m17.215 5.08v2.785a1.129 1.129 0 0 1-.846-1.091v-.706c0-.078-.063-.141-.141-.141-.078 0-.141.063-.141.141v.706a1.411 1.411 0 0 0 1.128 1.381v.312h-.846v.282h.846.564.848v-.282h-.848v-.31a1.411 1.411 0 0 0 1.13-1.383v-.706c0-.078-.063-.141-.141-.141-.078 0-.141.063-.141.141v.706a1.129 1.129 0 0 1-.848 1.093v-2.786h-.564z" fill="#f9f9f9"/>
    <path d="m17.498 2.54c-2.338 0-4.233 1.895-4.233 4.233 0 2.338 1.895 4.233 4.233 4.233 2.338 0 4.233-1.895 4.233-4.233 0-2.338-1.895-4.233-4.233-4.233zm-.001.282c2.182 0 3.952 1.769 3.952 3.951 0 2.182-1.77 3.951-3.952 3.951-2.182 0-3.951-1.769-3.951-3.951 0-2.182 1.769-3.951 3.951-3.951z" fill="#f9f9f9"/>
    <path d="m17.497 3.387c-1.87 0-3.387 1.516-3.387 3.387 0 1.87 1.516 3.387 3.387 3.387 1.87 0 3.387-1.516 3.387-3.387 0-1.87-1.516-3.387-3.387-3.387zm0 .282c1.715 0 3.104 1.39 3.104 3.104 0 1.715-1.39 3.104-3.104 3.104-1.715 0-3.104-1.39-3.104-3.104 0-1.715 1.39-3.104 3.104-3.104z" fill="#f9f9f9"/>
  </g>
  <path d="m24 16c-1.657 0-3 1-3 2.5v.5h6v-.5c0-1.5-1.343-2.5-3-2.5zm-3 4v1h6v-1zm0 2v1h6v-1zm0 2v .5c0 1.5 1.343 2.5 3 2.5 1.657 0 3-1 3-2.5v-.5z" fill="#f9f9f9"/>
</svg>
