<svg xmlns="http://www.w3.org/2000/svg" viewBox="0 0 48 48">
 <defs>
  <linearGradient id="linearGradient3764" x1="1" x2="47" gradientUnits="userSpaceOnUse" gradientTransform="matrix(0,-1,1,0,-1.5e-6,47.999998)">
   <stop style="stop-color:#2c9a4b;stop-opacity:1"/>
   <stop offset="1" style="stop-color:#30aa53;stop-opacity:1"/>
  </linearGradient>
 </defs>
 <g>
  
  
  
 </g>
 <g>
  <path d="m 47,24 C 47,46.703 46.703,47 24,47 1.297,47 1,46.703 1,24 1,1.297 1.297,1 24,1 46.703,1 47,1.297 47,24 z" style="fill:url(#linearGradient3764);fill-opacity:1"/>
 </g>
 <g>
  
 </g>
 <g transform="matrix(1.009009,0,0,1,0.28378391,0)">
  <g>
   <!-- color: #eeeeee -->
  </g>
 </g>
 <g transform="translate(-3.885669e-7,-1.4547813e-6)">
  <g transform="matrix(0.97764644,0,0,0.98777777,-0.8564059,-4.9133331)" style="fill:#000;opacity:0.1;fill-opacity:1">
   <path d="m 25 11 -12 7 0 14 12 7 12 -7 0 -14 z" transform="matrix(1.0228647,0,0,1.0123735,0.87598734,4.974128)" style="stroke:none;fill-rule:evenodd"/>
  </g>
  <g transform="matrix(0.97764644,0,0,0.98777777,-1.8564059,-5.913333)">
   <path d="m 24 10 -12 7 12 21 12 -21" transform="matrix(1.0228647,0,0,1.0123735,1.898852,5.9865014)" style="fill:#c4c4c4;fill-opacity:1;stroke:none;fill-rule:evenodd"/>
   <path d="m 36 17 -12 7 c -1.306 4.667 -0.648 9.333 0 14 l 12 -7 z" transform="matrix(1.0228647,0,0,1.0123735,1.898852,5.9865014)" style="fill:#a0a0a0;fill-opacity:1;stroke:none;fill-rule:evenodd"/>
   <path d="m 12 17 0 13.996 12 7 0 -14" transform="matrix(1.0228647,0,0,1.0123735,1.898852,5.9865014)" style="fill:#b4b4b4;fill-opacity:1;stroke:none;fill-rule:evenodd"/>
   <path d="m 24 12.316 -8.03 4.684 8.03 4.686 8.03 -4.686 -8.03 -4.684 m -10 8.17 0 9.365 8 4.666 0 -9.369 -8 -4.662 z m 20 0 -8 4.662 0 9.369 8 -4.666 0 -9.365 z" transform="matrix(1.0228647,0,0,1.0123735,1.898852,5.9865014)" style="fill:#000;opacity:1;fill-opacity:0.098;stroke:none;fill-rule:evenodd"/>
  </g>
 </g>
</svg>
