<svg viewBox="0 0 48 48" xmlns="http://www.w3.org/2000/svg" xmlns:xlink="http://www.w3.org/1999/xlink">
  <linearGradient id="a" gradientTransform="matrix(0 -1 1 0 -.0000015 47.999998)" gradientUnits="userSpaceOnUse" x1="1" x2="47">
    <stop offset="0" stop-color="#3d3d3d"/>
    <stop offset="1" stop-color="#474747"/>
  </linearGradient>
  <path d="m47 24c0 22.703-.297 23-23 23-22.703 0-23-.297-23-23 0-22.703.297-23 23-23 22.703 0 23 .297 23 23z" fill="url(#a)"/>
  <path d="m19.234 35.69c-.211-2.499 2.746-7.657 4.905-5.587 1.676 1.607 2.445 6.579.697 7.574-1.695.965-5.467-.393-5.602-1.988zm8.586.991c-1.465-1.292-.426-6.177 1.583-6.454 2.441-.338 4.843 3.572 4 4.952-1.152 1.894-4.179 2.745-5.586 1.503zm-14.82-5.658c.137-3.108 5.283-5.718 6.753-3.574 1.394 2.032-1.066 6.134-2.899 6.765-1.853.638-3.872-1.721-3.854-3.191zm7.721-4.423c-1.598-2.808-7-1.752-7.02-5.209-.019-4.616 5.693-9.871 9.882-9.355 3.487.44 11.193 1.287 11.887 4.955.405 1.958.754 3.912 1.322 5.85 1.054 3.601-2.16 5.916-5.4 5.812-3.359-.128-8.832.995-10.675-2.054zm9.567-3.123c3.2-2.16.883-8.04-2.129-6.347-1.252.772-2.47 4.082-1.602 5.3.61 1.432 2.462 1.821 3.731 1.047zm-6.982-6.749c-1.062-1.017-2.791-.612-3.558.627-.726 1.174-1.666 4.778.873 5.238 3.259.59 4.359-4.575 2.684-5.866z" fill-opacity=".098"/>
  <path d="m18.234 34.69c-.211-2.499 2.746-7.657 4.905-5.587 1.676 1.607 2.445 6.579.697 7.574-1.695.965-5.467-.393-5.602-1.988zm8.586.991c-1.465-1.292-.426-6.177 1.583-6.454 2.441-.338 4.843 3.572 4 4.952-1.152 1.894-4.179 2.745-5.586 1.503zm-14.82-5.658c.137-3.108 5.283-5.718 6.753-3.574 1.394 2.032-1.066 6.134-2.899 6.765-1.853.638-3.872-1.721-3.854-3.191zm7.721-4.423c-1.598-2.808-7-1.752-7.02-5.209-.019-4.616 5.693-9.871 9.882-9.355 3.487.44 11.193 1.287 11.887 4.955.405 1.958.754 3.912 1.322 5.85 1.054 3.601-2.16 5.916-5.4 5.812-3.359-.128-8.832.995-10.675-2.054zm9.567-3.123c3.2-2.16.883-8.04-2.129-6.347-1.252.772-2.47 4.082-1.602 5.3.61 1.432 2.462 1.821 3.731 1.047zm-6.982-6.749c-1.062-1.017-2.791-.612-3.558.627-.726 1.174-1.666 4.778.873 5.238 3.259.59 4.359-4.575 2.684-5.866z" fill="#e6e6e6"/>
</svg>
