<svg xmlns="http://www.w3.org/2000/svg" viewBox="0 0 48 48">
 <defs>
  <linearGradient id="linearGradient3764" x1="1" x2="47" gradientUnits="userSpaceOnUse" gradientTransform="matrix(0,-1,1,0,-1.5e-6,47.999998)">
   <stop style="stop-color:#813f91;stop-opacity:1"/>
   <stop offset="1" style="stop-color:#8c459f;stop-opacity:1"/>
  </linearGradient>
 </defs>
 <g>
  
  
  
 </g>
 <g>
  <path d="m 47,24 C 47,46.703 46.703,47 24,47 1.297,47 1,46.703 1,24 1,1.297 1.297,1 24,1 46.703,1 47,1.297 47,24 z" style="fill:url(#linearGradient3764);fill-opacity:1"/>
  <path d="m 13 13 l 0 3 l 6 3 l 0 12 l 6 0 l 6 3 l -27.717 0 c 0.506 1.047 1.091 2.049 1.744 3 l 31.973 0 l 0 -3 l -6 -3 l 0 -1 l 0 -11 l -6 0 l -6 -3 l 26.568 0 c -0.385 -1.037 -0.841 -2.039 -1.365 -3 l -31.2 0 z m 9 9 l 6 0 l 0 6 l -6 0 l 0 -6 z" style="fill:#000;opacity:0.1;fill-opacity:1"/>
  <path d="m 12 12 l 0 3 l 6 3 l 0 1 l 6 0 l 0 -1 l -6 -3 l 27.17 0 c -0.444 -1.042 -0.963 -2.044 -1.549 -3 l -31.623 0 z" style="fill:#faa656;fill-opacity:1"/>
  <path d="m 24 29 l 0 1 l 6 3 l -27.17 0 c 0.444 1.042 0.963 2.044 1.549 3 l 31.623 0 l 0 -3 l -6 -3 l 0 -1 l -6 0 z" style="fill:#faa656;fill-opacity:1"/>
 </g>
 <g>
  <g>
   <g transform="translate(1,1)">
    <g style="opacity:0.1">
     <!-- color: #8c459f -->
    </g>
   </g>
  </g>
 </g>
 <g>
  <g>
   <!-- color: #8c459f -->
   <g>
    <path d="m 18 18 l 0 12 l 12 0 l 0 -12 m -9 3 l 6 0 l 0 6 l -6 0 m 0 -6" style="fill:#faa656;fill-opacity:1;stroke:none;fill-rule:nonzero"/>
   </g>
  </g>
 </g>
 <g>
  
 </g>
</svg>
