<svg xmlns="http://www.w3.org/2000/svg" viewBox="0 0 48 48">
 <defs>
  <linearGradient id="linearGradient4238" y1="47" x2="0" y2="1" gradientUnits="userSpaceOnUse">
   <stop style="stop-color:#258ed0;stop-opacity:1"/>
   <stop offset="1" style="stop-color:#2e98da;stop-opacity:1"/>
  </linearGradient>
  <linearGradient id="linearGradient4246" y1="47" x2="0" y2="1" gradientUnits="userSpaceOnUse">
   <stop style="stop-color:#e33500;stop-opacity:1"/>
   <stop offset="1" style="stop-color:#e33500;stop-opacity:1"/>
  </linearGradient>
 </defs>
 <g>
  
  
  
 </g>
 <path d="M 24 1 L 24 47 C 46.703 47 47 46.703 47 24 C 47 1.297 46.703 1 24 1 z " style="fill:url(#linearGradient4246);fill-opacity:1"/>
 <path d="M 24 1 C 1.297 1 1 1.297 1 24 C 1 46.703 1.297 47 24 47 L 24 1 z " style="fill:url(#linearGradient4238);fill-opacity:1;stroke:none;fill-rule:nonzero"/>
 <path d="m 24.996 7 c 0.001 0.001 0.001 0.003 0.002 0.004 c 0.001 -0.001 0.001 -0.003 0.002 -0.004 l -0.004 0 z m 0.002 0.004 c -2.559 4.532 -3.688 9.01 -5.01 13.496 c 2.583 -1.458 3.01 1.068 2.287 2.746 c -0.944 2.2 -1.914 4.288 -3.66 1.398 l -1.619 11.354 c 1.263 -1.966 2.132 -3.991 4.365 -5.635 c 1.362 -1 1.475 0.061 1.635 1.635 c 0.034 0.332 0.068 0.666 0.102 1 l 3.797 0 c 0.033 -0.334 0.068 -0.668 0.102 -1 c 0.16 -1.573 0.274 -2.637 1.637 -1.635 c 2.233 1.644 3.1 3.668 4.363 5.635 l -1.617 -11.354 c -1.746 2.889 -2.716 0.802 -3.66 -1.398 c -0.72 -1.678 -0.295 -4.204 2.287 -2.746 c -1.318 -4.486 -2.449 -8.964 -5.01 -13.496 z m -1.898 25.996 c 0.154 1.545 0.183 3.048 -1.102 4 l 1 1 l 0.002 0 l 0 8.949 a 23 23 0 0 0 1 0.051 a 23 23 0 0 0 3 -0.223 l 0 -8.777 l 0.998 -1 c -1.284 -0.952 -1.256 -2.455 -1.102 -4 l -3.797 0 z" style="fill:#000;opacity:0.1;fill-opacity:1;stroke:none;fill-rule:nonzero"/>
 <path d="m 22 39 l 0 7.908 c 0.66 0.057 1.326 0.092 2 0.092 c 0.674 0 1.34 -0.035 2 -0.092 l 0 -7.908 l -2 0 l -2 0 z" style="fill:#c5904b;opacity:1;fill-opacity:1;stroke:none;fill-rule:nonzero"/>
 <g>
  
 </g>
 <path d="m 22 37 l 0 2 l 2 0 l 2 0 l 0 -2 l -2 0 l -2 0 z" style="fill:#c95de6;opacity:1;fill-opacity:1;stroke:none;fill-rule:nonzero"/>
 <path d="m 24,6 c -2.56,4.533 -3.69,9.01 -5.01,13.5 2.583,-1.458 3.01,1.068 2.287,2.746 -0.944,2.2 -1.914,4.288 -3.66,1.398 l -1.619,11.355 c 1.263,-1.966 2.132,-3.991 4.365,-5.635 1.362,-1 1.475,0.061 1.635,1.635 0.034,0.332 0.068,0.666 0.102,1 l 3.797,0 c 0.033,-0.334 0.068,-0.668 0.102,-1 0.16,-1.573 0.272,-2.637 1.635,-1.635 2.233,1.644 3.102,3.668 4.365,5.635 L 30.38,23.644 C 28.634,26.533 27.664,24.446 26.72,22.246 26,20.568 26.425,18.042 29.007,19.5 27.689,15.013 26.559,10.533 23.997,6 Z" style="fill:#c5dbee;opacity:1;fill-opacity:1;stroke:none;fill-rule:evenodd"/>
 <path d="m 24 8 c -1.16 3.756 -2.411 7.106 -3.523 11.08 c 1.232 0.122 1.352 1.89 0.803 3.17 c -0.646 1.506 -1.306 2.956 -2.217 2.797 c -0.394 2.02 -0.745 4.226 -1.031 6.729 c 0.612 -0.851 1.332 -1.669 2.334 -2.406 c 1.362 -1 1.475 0.061 1.635 1.635 c 0.034 0.332 0.068 0.666 0.102 1 l 3.797 0 c 0.033 -0.334 0.068 -0.668 0.102 -1 c 0.16 -1.573 0.272 -2.637 1.635 -1.635 c 0.991 0.729 1.705 1.536 2.313 2.377 c -0.49 -2.267 -0.92 -4.494 -1.35 -6.721 c -0.74 -0.201 -1.314 -1.464 -1.877 -2.775 c -0.526 -1.225 -0.437 -2.895 0.65 -3.145 c -0.801 -3.485 -1.809 -7.109 -3.371 -11.1 z" style="fill:#a8c8e1;fill-opacity:1;stroke:none;fill-rule:evenodd"/>
 <path d="m 22.1 32 c 0.154 1.545 0.183 3.048 -1.102 4 l 1 1 l 4 0 l 1 -1 c -1.284 -0.952 -1.256 -2.455 -1.102 -4 l -3.797 0 z" style="fill:#c5904b;opacity:1;fill-opacity:1;stroke:none;fill-rule:nonzero"/>
 <path d="m 24 33 c -0.333 0.667 -1 1.548 -1 2 0 1 0.536 1.01 1 1 0.464 -0.007 1 0 1 -1 0 -0.418 -0.667 -1.333 -1 -2 z" style="fill:#f393dc;fill-opacity:1;stroke:none;fill-rule:evenodd"/>
</svg>
