<svg viewBox="0 0 48 48" xmlns="http://www.w3.org/2000/svg">
  <path d="m24 1c22.703 0 23 .297 23 23 0 22.703-.297 23-23 23-22.703 0-23-.297-23-23 0-22.703.297-23 23-23z" fill="#f1544b"/>
  <path d="m25 12a13 13 0 0 0-13 13 13 13 0 0 0  13 13v-4a9 9 0 0 1-9-9 9 9 0 0 1  9-9 9 9 0 0 1  9 9h4a13 13 0 0 0-13-13m0 6a7 7 0 0 0-7 7 7 7 0 0 0  7 7v-3a4 4 0 0 1-4-4 4 4 0 0 1  4-4 4 4 0 0 1  4 4h3a7 7 0 0 0-7-7z" opacity=".1"/>
  <path d="m24 11a13 13 0 0 0-13 13 13 13 0 0 0  13 13v-4a9 9 0 0 1-9-9 9 9 0 0 1  9-9 9 9 0 0 1  9 9h4a13 13 0 0 0-13-13m0 6a7 7 0 0 0-7 7 7 7 0 0 0  7 7v-3a4 4 0 0 1-4-4 4 4 0 0 1  4-4 4 4 0 0 1  4 4h3a7 7 0 0 0-7-7z" fill="#f9f9f9"/>
</svg>
