<svg xmlns="http://www.w3.org/2000/svg" viewBox="0 0 48 48">
 <defs>
  <linearGradient id="linearGradient3764" x1="1" x2="47" gradientUnits="userSpaceOnUse" gradientTransform="matrix(0,-1,1,0,-1.5e-6,47.999998)">
   <stop style="stop-color:#f6e3be;stop-opacity:1"/>
   <stop offset="1" style="stop-color:#f8ebd0;stop-opacity:1"/>
  </linearGradient>
 </defs>
 <g>
  
  
  
 </g>
 <g>
  <path d="m 47,24 C 47,46.703 46.703,47 24,47 1.297,47 1,46.703 1,24 1,1.297 1.297,1 24,1 46.703,1 47,1.297 47,24 z" style="fill:url(#linearGradient3764);fill-opacity:1"/>
 </g>
 <g>
  <g>
   <!-- color: #eeeeee -->
  </g>
 </g>
 <g>
  
 </g>
 <path d="m 16 21 -4 8 10 0 4 -8 -10 0 z m 11 0 0 8 1 0 0 -1 c 0.398 0.653 1 1 2 1 1 0 2.301 -0.811 2.301 -3 c 0 -2.189 -1.301 -3 -2.301 -3 c -1 0 -1.522 0.473 -2 1 l 0 -3 -1 0 z m 8.5 2 c -1.7 0 -2.699 1.274 -2.699 3 0 1.726 0.999 3 2.699 3 1.418 0 2.5 -1 2.5 -2 l -1.199 0 c -0.001 0.471 -0.44 1 -1.188 1 c -0.891 0 -1.613 -0.533 -1.613 -2 c 0 -1.467 0.722 -2 1.613 -2 0.724 0 1.188 0.541 1.188 1 l 1.199 0 c 0 -1 -1.082 -2 -2.5 -2 z m -6 1 c 0.828 0 1.5 0.686 1.5 2 0 1.314 -0.672 2 -1.5 2 -0.828 0 -1.5 -0.895 -1.5 -2 0 -1.105 0.672 -2 1.5 -2 z" style="fill:#000;opacity:0.1;fill-opacity:1;stroke:none"/>
 <path d="m 15 20 10 0 -4 8 -10 0 z" style="fill:#639daa;opacity:1;fill-opacity:1;stroke:none"/>
 <path d="m 26 20 0 8 1 0 0 -1 c 0.398 0.653 1 1 2 1 1 0 2.3 -0.811 2.3 -3 0 -2.189 -1.3 -3 -2.3 -3 -1 0 -1.522 0.473 -2 1 l 0 -3 z m 2.5 3 c 0.828 0 1.5 0.686 1.5 2 0 1.314 -0.672 2 -1.5 2 -0.828 0 -1.5 -0.895 -1.5 -2 0 -1.105 0.672 -2 1.5 -2 z" style="fill:#333;opacity:1;fill-opacity:1;stroke:none"/>
 <path d="m 34.5 22 c -1.7 0 -2.7 1.274 -2.7 3 0 1.726 1 3 2.7 3 1.418 0 2.5 -1 2.5 -2 l -1.2 0 c -0.001 0.471 -0.439 1 -1.187 1 c -0.891 0 -1.613 -0.533 -1.613 -2 c 0 -1.467 0.722 -2 1.613 -2 0.724 0 1.188 0.541 1.187 1 l 1.2 0 c 0 -1 -1.082 -2 -2.5 -2 z" style="fill:#333;opacity:1;fill-opacity:1;stroke:none"/>
</svg>
