<svg xmlns="http://www.w3.org/2000/svg" viewBox="0 0 48 48">
 <g>
  
  
  
 </g>
 <g style="fill:#f1544b;fill-opacity:1">
  <path d="m 24 1 c 22.703 0 23 0.297 23 23 c 0 22.703 -0.297 23 -23 23 -22.703 0 -23 -0.297 -23 -23 0 -22.703 0.297 -23 23 -23 z"/>
 </g>
 <g>
  
 </g>
 <path d="M 25 12 A 13 13 0 0 0 12 25 13 13 0 0 0 25 38 l 0 -4 a 9 9 0 0 1 -9 -9 9 9 0 0 1 9 -9 9 9 0 0 1 9 9 l 4 0 A 13 13 0 0 0 25 12 m 0 6 a 7 7 0 0 0 -7 7 7 7 0 0 0 7 7 l 0 -3 a 4 4 0 0 1 -4 -4 4 4 0 0 1 4 -4 4 4 0 0 1 4 4 l 3 0 a 7 7 0 0 0 -7 -7 z" style="fill:#000;opacity:0.1;fill-opacity:1;stroke:none"/>
 <path d="M 24 11 A 13 13 0 0 0 11 24 13 13 0 0 0 24 37 l 0 -4 a 9 9 0 0 1 -9 -9 9 9 0 0 1 9 -9 9 9 0 0 1 9 9 l 4 0 A 13 13 0 0 0 24 11 m 0 6 a 7 7 0 0 0 -7 7 7 7 0 0 0 7 7 l 0 -3 a 4 4 0 0 1 -4 -4 4 4 0 0 1 4 -4 4 4 0 0 1 4 4 l 3 0 a 7 7 0 0 0 -7 -7 z" style="fill:#f9f9f9;opacity:1;fill-opacity:1;stroke:none"/>
</svg>
