<svg viewBox="0 0 48 48" xmlns="http://www.w3.org/2000/svg" xmlns:xlink="http://www.w3.org/1999/xlink">
  <linearGradient id="a" gradientTransform="matrix(0 -1 1 0 -.0000015 47.999998)" gradientUnits="userSpaceOnUse" x1="1" x2="47">
    <stop offset="0" stop-color="#4d8ff1"/>
    <stop offset="1" stop-color="#5f9af3"/>
  </linearGradient>
  <path d="m47 24c0 22.703-.297 23-23 23-22.703 0-23-.297-23-23 0-22.703.297-23 23-23 22.703 0 23 .297 23 23z" fill="url(#a)"/>
  <path d="m27.961 12.227c.191.16.414.379.672.648.258.25.504.57.738.957.234.363.438.797.609 1.297.172.5.258 1.07.258 1.707 0 .637-.078 1.191-.227 1.672-.148.477-.352.91-.609 1.297-.258.363-.543.703-.867 1.023-.32.293-.648.578-.992.852-.215.227-.418.465-.609.715-.191.254-.289.57-.289.957 0 .387.098.695.289.922.191.203.375.387.547.547l1.152.953c.344.32.672.637.996.957.34.316.629.66.863 1.023.258.363.461.773.609 1.227.148.457.227.98.227 1.57 0 .797-.184 1.582-.547 2.355-.363.773-.898 1.457-1.602 2.047-.707.613-1.594 1.102-2.664 1.469-1.047.387-2.254.578-3.621.578-1.156 0-2.172-.137-3.047-.41-.855-.273-1.57-.637-2.148-1.09-.578-.457-1-.98-1.281-1.57-.277-.57-.418-1.172-.418-1.809 0-.613.184-1.32.547-2.117.34-.773.98-1.453 1.922-2.047.492-.316 1.016-.578 1.57-.785.578-.18 1.145-.328 1.699-.441.559-.113 1.082-.195 1.574-.238.488-.047.918-.082 1.281-.105-.234-.316-.461-.648-.676-.988-.191-.363-.285-.809-.285-1.332 0-.293.031-.531.094-.715.066-.203.141-.41.227-.613-.172.023-.344.043-.516.066-.168 0-.34 0-.512 0-.855 0-1.613-.148-2.277-.441-.66-.313-1.219-.727-1.668-1.227-.449-.5-.789-1.066-1.023-1.703-.234-.66-.355-1.32-.355-1.98 0-.797.172-1.594.516-2.391.34-.816.855-1.547 1.539-2.184.918-.793 1.879-1.309 2.887-1.535 1.023-.23 1.977-.34 2.852-.34h6.605l-2.051 1.227h-1.988m-3.527 9.625c.406 0 .801-.094 1.188-.27.402-.188.734-.41.992-.688.363-.387.586-.82.672-1.297.086-.48.129-.875.129-1.195 0-.609-.086-1.285-.254-2.01-.172-.727-.43-1.41-.77-2.047-.344-.637-.77-1.16-1.285-1.57-.492-.43-1.066-.648-1.727-.648-.434 0-.848.102-1.25.309-.406.203-.738.477-.996.82-.277.363-.473.762-.574 1.191-.086.434-.129.875-.129 1.332 0 .566.074 1.207.223 1.91.172.707.418 1.363.738 1.98.344.613.758 1.137 1.25 1.566.512.41 1.113.617 1.797.617m4.746 10.03c0-.438-.074-.832-.23-1.195-.129-.34-.332-.684-.602-1.02-.277-.344-.648-.695-1.09-1.063-.449-.363-.98-.77-1.57-1.227-.129-.023-.246-.035-.352-.035-.094 0-.223 0-.395 0-.063 0-.215 0-.449 0-.227.02-.512.047-.832.063-.313.055-.656.105-1.02.18-.363.09-.715.188-1.066.309-.172.066-.414.168-.73.305-.297.16-.605.375-.898.648-.301.27-.563.617-.805 1.02-.211.41-.32.922-.32 1.535 0 1.23.504 2.23 1.508 3 1.027.773 2.406 1.16 4.141 1.16 1.539 0 2.703-.352 3.496-1.059.813-.684 1.219-1.563 1.219-2.625" opacity=".1" transform="translate(1 1)"/>
  <path d="m27.961 12.227c.191.16.414.379.672.648.258.25.504.57.738.957.234.363.438.797.609 1.297.172.5.258 1.07.258 1.707 0 .637-.078 1.191-.227 1.672-.148.477-.352.91-.609 1.297-.258.363-.543.703-.867 1.023-.32.293-.648.578-.992.852-.215.227-.418.465-.609.715-.191.254-.289.57-.289.957 0 .387.098.695.289.922.191.203.375.387.547.547l1.152.953c.344.32.672.637.996.957.34.316.629.66.863 1.023.258.363.461.773.609 1.227.148.457.227.98.227 1.57 0 .797-.184 1.582-.547 2.355-.363.773-.898 1.457-1.602 2.047-.707.613-1.594 1.102-2.664 1.469-1.047.387-2.254.578-3.621.578-1.156 0-2.172-.137-3.047-.41-.855-.273-1.57-.637-2.148-1.09-.578-.457-1-.98-1.281-1.57-.277-.57-.418-1.172-.418-1.809 0-.613.184-1.32.547-2.117.34-.773.98-1.453 1.922-2.047.492-.316 1.016-.578 1.57-.785.578-.18 1.145-.328 1.699-.441.559-.113 1.082-.195 1.574-.238.488-.047.918-.082 1.281-.105-.234-.316-.461-.648-.676-.988-.191-.363-.285-.809-.285-1.332 0-.293.031-.531.094-.715.066-.203.141-.41.227-.613-.172.023-.344.043-.516.066-.168 0-.34 0-.512 0-.855 0-1.613-.148-2.277-.441-.66-.313-1.219-.727-1.668-1.227-.449-.5-.789-1.066-1.023-1.703-.234-.66-.355-1.32-.355-1.98 0-.797.172-1.594.516-2.391.34-.816.855-1.547 1.539-2.184.918-.793 1.879-1.309 2.887-1.535 1.023-.23 1.977-.34 2.852-.34h6.605l-2.051 1.227h-1.988m-3.527 9.625c.406 0 .801-.094 1.188-.27.402-.188.734-.41.992-.688.363-.387.586-.82.672-1.297.086-.48.129-.875.129-1.195 0-.609-.086-1.285-.254-2.01-.172-.727-.43-1.41-.77-2.047-.344-.637-.77-1.16-1.285-1.57-.492-.43-1.066-.648-1.727-.648-.434 0-.848.102-1.25.309-.406.203-.738.477-.996.82-.277.363-.473.762-.574 1.191-.086.434-.129.875-.129 1.332 0 .566.074 1.207.223 1.91.172.707.418 1.363.738 1.98.344.613.758 1.137 1.25 1.566.512.41 1.113.617 1.797.617m4.746 10.03c0-.438-.074-.832-.23-1.195-.129-.34-.332-.684-.602-1.02-.277-.344-.648-.695-1.09-1.063-.449-.363-.98-.77-1.57-1.227-.129-.023-.246-.035-.352-.035-.094 0-.223 0-.395 0-.063 0-.215 0-.449 0-.227.02-.512.047-.832.063-.313.055-.656.105-1.02.18-.363.09-.715.188-1.066.309-.172.066-.414.168-.73.305-.297.16-.605.375-.898.648-.301.27-.563.617-.805 1.02-.211.41-.32.922-.32 1.535 0 1.23.504 2.23 1.508 3 1.027.773 2.406 1.16 4.141 1.16 1.539 0 2.703-.352 3.496-1.059.813-.684 1.219-1.563 1.219-2.625" fill="#fff"/>
</svg>
