<svg viewBox="0 0 48 48" xmlns="http://www.w3.org/2000/svg" xmlns:xlink="http://www.w3.org/1999/xlink">
  <linearGradient id="a" gradientTransform="matrix(0 -1 1 0 -.0000015 47.999998)" gradientUnits="userSpaceOnUse" x1="1" x2="47">
    <stop offset="0" stop-color="#ffc321"/>
    <stop offset="1" stop-color="#ffc934"/>
  </linearGradient>
  <path d="m47 24c0 22.703-.297 23-23 23-22.703 0-23-.297-23-23 0-22.703.297-23 23-23 22.703 0 23 .297 23 23z" fill="url(#a)"/>
  <g opacity=".1" transform="translate(1 1)">
    <path d="m14.781 11c-.98 0-1.781.801-1.781 1.781v22.438c0 .98.801 1.781 1.781 1.781h20.438c.98 0 1.781-.801 1.781-1.781v-19.219l-5-5m-17.219 0"/>
    <path d="m32 11v5h5m-5-5"/>
    <use xlink:href="#b"/>
    <path d="m18.13 18c-1.18 0-2.125.945-2.125 2.125v7.75c0 1.18.945 2.125 2.125 2.125h7.75c1.18 0 2.125-.945 2.125-2.125v-7.75c0-1.18-.945-2.125-2.125-2.125m-7.875 2h8v8h-8m0-8"/>
    <path d="m27 22v2h5v8h-8v-3h-2v2.875c0 1.18.945 2.125 2.125 2.125h7.75c1.18 0 2.125-.945 2.125-2.125v-7.75c0-1.18-.945-2.125-2.125-2.125m-4.875 0"/>
  </g>
  <path d="m14.781 11c-.98 0-1.781.801-1.781 1.781v22.438c0 .98.801 1.781 1.781 1.781h20.438c.98 0 1.781-.801 1.781-1.781v-19.219l-5-5m-17.219 0" fill="#f2efec"/>
  <path d="m32 11v5h5m-5-5" fill="#fff"/>
  <path id="b" d="m37 21v-5h-5m5 5" fill-opacity=".2"/>
  <path d="m18.13 18c-1.18 0-2.125.945-2.125 2.125v7.75c0 1.18.945 2.125 2.125 2.125h7.75c1.18 0 2.125-.945 2.125-2.125v-7.75c0-1.18-.945-2.125-2.125-2.125m-7.875 2h8v8h-8m0-8" fill="#ffc522"/>
  <path d="m27 22v2h5v8h-8v-3h-2v2.875c0 1.18.945 2.125 2.125 2.125h7.75c1.18 0 2.125-.945 2.125-2.125v-7.75c0-1.18-.945-2.125-2.125-2.125m-4.875 0" fill="#ffc522"/>
</svg>
