<svg viewBox="0 0 48 48" xmlns="http://www.w3.org/2000/svg" xmlns:xlink="http://www.w3.org/1999/xlink">
  <linearGradient id="a" gradientTransform="matrix(0 -1 1 0 -.0000015 47.999998)" gradientUnits="userSpaceOnUse" x1="1" x2="47">
    <stop offset="0" stop-color="#00acec"/>
    <stop offset="1" stop-color="#01b9ff"/>
  </linearGradient>
  <path d="m47 24c0 22.703-.297 23-23 23-22.703 0-23-.297-23-23 0-22.703.297-23 23-23 22.703 0 23 .297 23 23z" fill="url(#a)"/>
  <path d="m27.29 13.258c-2.348.875-3.832 3.129-3.664 5.594l.055.953-.938-.117c-3.418-.445-6.406-1.961-8.941-4.504l-1.242-1.266-.316.934c-.68 2.078-.246 4.273 1.164 5.75.75.813.582.93-.715.445-.449-.156-.848-.273-.883-.215-.133.137.316 1.906.676 2.602.488.973 1.484 1.926 2.574 2.488l.918.445-1.086.02c-1.055 0-1.09.02-.98.426.379 1.266 1.863 2.605 3.523 3.188l1.164.41-1.023.617c-1.5.895-3.266 1.398-5.03 1.438-.848.02-1.543.098-1.543.156 0 .195 2.293 1.281 3.625 1.707 4 1.266 8.754.719 12.324-1.434 2.535-1.535 5.074-4.586 6.258-7.535.637-1.574 1.277-4.449 1.277-5.828 0-.891.055-1.01 1.109-2.078.617-.621 1.199-1.301 1.313-1.492.188-.371.168-.371-.789-.039-1.598.578-1.824.504-1.031-.371.582-.621 1.273-1.746 1.273-2.078 0-.059-.281.039-.598.215-.34.191-1.09.484-1.652.66l-1.016.328-.922-.641c-.516-.348-1.227-.738-1.605-.855-.957-.27-2.422-.23-3.285.078m0 0" opacity=".1" transform="translate(1 1)"/>
  <path d="m27.29 13.258c-2.348.875-3.832 3.129-3.664 5.594l.055.953-.938-.117c-3.418-.445-6.406-1.961-8.941-4.504l-1.242-1.266-.316.934c-.68 2.078-.246 4.273 1.164 5.75.75.813.582.93-.715.445-.449-.156-.848-.273-.883-.215-.133.137.316 1.906.676 2.602.488.973 1.484 1.926 2.574 2.488l.918.445-1.086.02c-1.055 0-1.09.02-.98.426.379 1.266 1.863 2.605 3.523 3.188l1.164.41-1.023.617c-1.5.895-3.266 1.398-5.03 1.438-.848.02-1.543.098-1.543.156 0 .195 2.293 1.281 3.625 1.707 4 1.266 8.754.719 12.324-1.434 2.535-1.535 5.074-4.586 6.258-7.535.637-1.574 1.277-4.449 1.277-5.828 0-.891.055-1.01 1.109-2.078.617-.621 1.199-1.301 1.313-1.492.188-.371.168-.371-.789-.039-1.598.578-1.824.504-1.031-.371.582-.621 1.273-1.746 1.273-2.078 0-.059-.281.039-.598.215-.34.191-1.09.484-1.652.66l-1.016.328-.922-.641c-.516-.348-1.227-.738-1.605-.855-.957-.27-2.422-.23-3.285.078m0 0" fill="#f9f9f9"/>
</svg>
