<svg viewBox="0 0 48 48" xmlns="http://www.w3.org/2000/svg" xmlns:xlink="http://www.w3.org/1999/xlink">
  <linearGradient id="a" gradientTransform="matrix(0 -1 1 0 -.0000015 47.999998)" gradientUnits="userSpaceOnUse" x1="1" x2="47">
    <stop offset="0" stop-color="#098cc3"/>
    <stop offset="1" stop-color="#0a99d6"/>
  </linearGradient>
  <path d="m47 24c0 22.703-.297 23-23 23-22.703 0-23-.297-23-23 0-22.703.297-23 23-23 22.703 0 23 .297 23 23z" fill="url(#a)"/>
  <path d="m9 24c0-8.285 6.715-15 15-15 8.281 0 14.996 6.715 14.996 15 0 8.281-6.715 14.996-14.996 14.996-4.742 0-9.254-2.563-12-5.996h10v5l8-7.504-8-7.5v5h-12.531c-.277-1.141-.469-2.773-.469-4m .004.004" opacity=".1" transform="translate(1 1)"/>
  <path d="m9 24c0-8.285 6.715-15 15-15 8.281 0 14.996 6.715 14.996 15 0 8.281-6.715 14.996-14.996 14.996-4.742 0-9.254-2.563-12-5.996h10v5l8-7.504-8-7.5v5h-12.531c-.277-1.141-.469-2.773-.469-4m .004.004" fill="#f9f9f9"/>
</svg>
