<svg xmlns="http://www.w3.org/2000/svg" viewBox="0 0 48 48">
 <defs>
  <linearGradient gradientTransform="matrix(0,-1,1,0,-1.5e-6,47.999998)" gradientUnits="userSpaceOnUse" x2="47" x1="1" id="linearGradient3764">
   <stop style="stop-color:#3d3d3d;stop-opacity:1"/>
   <stop offset="1" style="stop-color:#474747;stop-opacity:1"/>
  </linearGradient>
 </defs>
 <g>
  
  
  
 </g>
 <g>
  <path d="m 47,24 C 47,46.703 46.703,47 24,47 1.297,47 1,46.703 1,24 1,1.297 1.297,1 24,1 46.703,1 47,1.297 47,24 z" style="fill:url(#linearGradient3764);fill-opacity:1"/>
 </g>
 <g>
  
 </g>
 <g transform="matrix(0.16144419,0,0,0.16011203,4.3520952,4.5137196)" style="fill:#000;opacity:0.1;fill-opacity:1">
  <path d="m 59.99,88.74 c 22.67,-13.06 45.34,-26.1 68.02,-39.11 22.67,13.02 45.37,26 68.01,39.07 -0.03,26.11 -0.04,52.22 0.01,78.33 -22.63,13.09 -45.36,25.98 -68.03,38.99 -22.73,-13.12 -45.58,-26.03 -68.24,-39.26 9.04,-5.15 18.07,-10.31 27.13,-15.43 13.7,7.9 27.44,15.75 41.11,23.7 13.64,-8.01 27.46,-15.71 41.05,-23.8 -0.12,-10.45 -0.01,-20.89 -0.06,-31.34 -13.65,7.92 -27.32,15.82 -40.99,23.71 -22.69,-12.91 -45.31,-25.95 -68,-38.88 0,-5.33 0.01,-10.66 -0.01,-15.98 m 40.28,7.84 c 9.2,5.4 18.5,10.66 27.73,16.02 9.29,-5.33 18.57,-10.67 27.88,-15.99 C 146.57,91.32 137.3,85.95 128,80.64 c -9.25,5.3 -18.46,10.68 -27.73,15.94 z"/>
 </g>
 <g transform="matrix(0.16144419,0,0,0.16011203,3.3520952,3.5137196)" style="fill:#f9f9f9;fill-opacity:1">
  <path d="m 59.99,88.74 c 22.67,-13.06 45.34,-26.1 68.02,-39.11 22.67,13.02 45.37,26 68.01,39.07 -0.03,26.11 -0.04,52.22 0.01,78.33 -22.63,13.09 -45.36,25.98 -68.03,38.99 -22.73,-13.12 -45.58,-26.03 -68.24,-39.26 9.04,-5.15 18.07,-10.31 27.13,-15.43 13.7,7.9 27.44,15.75 41.11,23.7 13.64,-8.01 27.46,-15.71 41.05,-23.8 -0.12,-10.45 -0.01,-20.89 -0.06,-31.34 -13.65,7.92 -27.32,15.82 -40.99,23.71 -22.69,-12.91 -45.31,-25.95 -68,-38.88 0,-5.33 0.01,-10.66 -0.01,-15.98 m 40.28,7.84 c 9.2,5.4 18.5,10.66 27.73,16.02 9.29,-5.33 18.57,-10.67 27.88,-15.99 C 146.57,91.32 137.3,85.95 128,80.64 c -9.25,5.3 -18.46,10.68 -27.73,15.94 z"/>
 </g>
</svg>
