<svg viewBox="0 0 48 48" xmlns="http://www.w3.org/2000/svg" xmlns:xlink="http://www.w3.org/1999/xlink">
  <linearGradient id="a" gradientUnits="userSpaceOnUse" x2="0" y1="47" y2="1">
    <stop offset="0" stop-color="#5ba547"/>
    <stop offset="1" stop-color="#64b34e"/>
  </linearGradient>
  <path d="m47 24c0 22.703-.297 23-23 23-22.703 0-23-.297-23-23 0-22.703.297-23 23-23 22.703 0 23 .297 23 23z" fill="url(#a)"/>
  <path d="m14 16c-.551 0-1 .445-1 .996v16c0 .551.449 1 1 1h4c .551 0 1-.449 1-1v-16c0-.551-.449-.996-1-.996zm7.996 0c-.551 0-.996.445-.996.996v16c0 .551.445 1 .996 1 3 0 5.998.004 9 .004 4.97 0 9-4.03 9-9 0-4.97-4.03-9-9-9z" fill-opacity=".098"/>
  <path d="m13 15h4c .551 0 1 .445 1 .996v16c0 .551-.449 1-1 1h-4c-.551 0-1-.449-1-1v-16c0-.551.449-.996 1-.996m0 0" fill="#f9f9f9"/>
  <path d="m20.996 15c-.551 0-.996.445-.996.996v16c0 .551.445 1 .996 1 3 0 5.998.004 9 .004 4.97 0 9-4.03 9-9 0-4.97-4.03-9-9-9-3 0-6 0-9 0z" fill="#f9f9f9"/>
</svg>
