<svg viewBox="0 0 48 48" xmlns="http://www.w3.org/2000/svg" xmlns:xlink="http://www.w3.org/1999/xlink">
  <linearGradient id="a" gradientTransform="matrix(0 -1 1 0 -.0000015 47.999998)" gradientUnits="userSpaceOnUse" x1="1" x2="47">
    <stop offset="0" stop-color="#3d3d3d"/>
    <stop offset="1" stop-color="#474747"/>
  </linearGradient>
  <path d="m47 24c0 22.703-.297 23-23 23-22.703 0-23-.297-23-23 0-22.703.297-23 23-23 22.703 0 23 .297 23 23z" fill="url(#a)"/>
  <path d="m59.99 88.74c22.67-13.06 45.34-26.1 68.02-39.11 22.67 13.02 45.37 26 68.01 39.07-.03 26.11-.04 52.22.01 78.33-22.63 13.09-45.36 25.98-68.03 38.99-22.73-13.12-45.58-26.03-68.24-39.26 9.04-5.15 18.07-10.31 27.13-15.43 13.7 7.9 27.44 15.75 41.11 23.7 13.64-8.01 27.46-15.71 41.05-23.8-.12-10.45-.01-20.89-.06-31.34-13.65 7.92-27.32 15.82-40.99 23.71-22.69-12.91-45.31-25.95-68-38.88 0-5.33.01-10.66-.01-15.98m40.28 7.84c9.2 5.4 18.5 10.66 27.73 16.02 9.29-5.33 18.57-10.67 27.88-15.99-9.31-5.29-18.58-10.66-27.88-15.97-9.25 5.3-18.46 10.68-27.73 15.94z" opacity=".1" transform="matrix(.16144419 0 0 .16011203 4.3520952 4.5137196)"/>
  <path d="m59.99 88.74c22.67-13.06 45.34-26.1 68.02-39.11 22.67 13.02 45.37 26 68.01 39.07-.03 26.11-.04 52.22.01 78.33-22.63 13.09-45.36 25.98-68.03 38.99-22.73-13.12-45.58-26.03-68.24-39.26 9.04-5.15 18.07-10.31 27.13-15.43 13.7 7.9 27.44 15.75 41.11 23.7 13.64-8.01 27.46-15.71 41.05-23.8-.12-10.45-.01-20.89-.06-31.34-13.65 7.92-27.32 15.82-40.99 23.71-22.69-12.91-45.31-25.95-68-38.88 0-5.33.01-10.66-.01-15.98m40.28 7.84c9.2 5.4 18.5 10.66 27.73 16.02 9.29-5.33 18.57-10.67 27.88-15.99-9.31-5.29-18.58-10.66-27.88-15.97-9.25 5.3-18.46 10.68-27.73 15.94z" fill="#f9f9f9" transform="matrix(.16144419 0 0 .16011203 3.3520952 3.5137196)"/>
</svg>
