<svg viewBox="0 0 48 48" xmlns="http://www.w3.org/2000/svg" xmlns:xlink="http://www.w3.org/1999/xlink">
  <linearGradient id="a" gradientTransform="matrix(0 -1 1 0 -.0000015 47.999998)" gradientUnits="userSpaceOnUse" x1="1" x2="47">
    <stop offset="0" stop-color="#16aaf6"/>
    <stop offset="1" stop-color="#29b3f7"/>
  </linearGradient>
  <path d="m47 24c0 22.703-.297 23-23 23-22.703 0-23-.297-23-23 0-22.703.297-23 23-23 22.703 0 23 .297 23 23z" fill="url(#a)"/>
  <path d="m41 31.785c0-.316-.07-.371-.609-.473-.789-.152-1.816-.512-2.547-.887-1.902-.977-3.387-2.598-4.074-4.434-.355-.961-.48-1.621-.559-3.035-.039-.676-.121-1.48-.184-1.785-.711-3.387-3.215-6-6.613-6.922-.984-.266-2.762-.332-3.781-.145-3.195.594-5.723 2.672-6.898 5.668-.121.32-.25.711-.281.871-.063.32.016.313-.914.121-.637-.133-1.852-.066-2.52.145-1.09.352-1.98.941-2.695 1.785-1.465 1.75-1.742 4.203-.695 6.23.582 1.125 1.824 2.254 2.941 2.672 1.066.395.418.383 15.438.391l13.996.008m-.004-.211" opacity=".1" transform="translate(1 1)"/>
  <path d="m41 31.785c0-.316-.07-.371-.609-.473-.789-.152-1.816-.512-2.547-.887-1.902-.977-3.387-2.598-4.074-4.434-.355-.961-.48-1.621-.559-3.035-.039-.676-.121-1.48-.184-1.785-.711-3.387-3.215-6-6.613-6.922-.984-.266-2.762-.332-3.781-.145-3.195.594-5.723 2.672-6.898 5.668-.121.32-.25.711-.281.871-.063.32.016.313-.914.121-.637-.133-1.852-.066-2.52.145-1.09.352-1.98.941-2.695 1.785-1.465 1.75-1.742 4.203-.695 6.23.582 1.125 1.824 2.254 2.941 2.672 1.066.395.418.383 15.438.391l13.996.008m-.004-.211" fill="#fff"/>
</svg>
