<svg xmlns="http://www.w3.org/2000/svg" xmlns:xlink="http://www.w3.org/1999/xlink" viewBox="0 0 48 48">
 <defs>
  <linearGradient id="linearGradient3764" x1="1" x2="47" gradientUnits="userSpaceOnUse" gradientTransform="matrix(0,-1,1,0,-1.5e-6,47.999998)">
   <stop style="stop-color:#ffc321;stop-opacity:1"/>
   <stop offset="1" style="stop-color:#ffc934;stop-opacity:1"/>
  </linearGradient>
 </defs>
 <g>
  
  
  
 </g>
 <g>
  <path d="m 47,24 C 47,46.703 46.703,47 24,47 1.297,47 1,46.703 1,24 1,1.297 1.297,1 24,1 46.703,1 47,1.297 47,24 z" style="fill:url(#linearGradient3764);fill-opacity:1"/>
 </g>
 <g>
  <g>
   <g transform="translate(1,1)">
    <g style="opacity:0.1">
     <!-- color: #ffc934 -->
     <g>
      <path d="m 14.781 11 c -0.98 0 -1.781 0.801 -1.781 1.781 l 0 22.438 c 0 0.98 0.801 1.781 1.781 1.781 l 20.438 0 c 0.98 0 1.781 -0.801 1.781 -1.781 l 0 -19.219 l -5 -5 m -17.219 0" style="fill:#000;fill-opacity:1;stroke:none;fill-rule:nonzero"/>
      <path d="m 32 11 l 0 5 l 5 0 m -5 -5" style="fill:#000;fill-opacity:1;stroke:none;fill-rule:nonzero"/>
      <use xlink:href="#SVGCleanerId_0"/>
      <path d="m 18.13 18 c -1.18 0 -2.125 0.945 -2.125 2.125 l 0 7.75 c 0 1.18 0.945 2.125 2.125 2.125 l 7.75 0 c 1.18 0 2.125 -0.945 2.125 -2.125 l 0 -7.75 c 0 -1.18 -0.945 -2.125 -2.125 -2.125 m -7.875 2 l 8 0 l 0 8 l -8 0 m 0 -8" style="fill:#000;fill-opacity:1;stroke:none;fill-rule:nonzero"/>
      <path d="m 27 22 l 0 2 l 5 0 l 0 8 l -8 0 l 0 -3 l -2 0 l 0 2.875 c 0 1.18 0.945 2.125 2.125 2.125 l 7.75 0 c 1.18 0 2.125 -0.945 2.125 -2.125 l 0 -7.75 c 0 -1.18 -0.945 -2.125 -2.125 -2.125 m -4.875 0" style="fill:#000;fill-opacity:1;stroke:none;fill-rule:nonzero"/>
     </g>
    </g>
   </g>
  </g>
 </g>
 <g>
  <g>
   <!-- color: #ffc934 -->
   <g>
    <path d="m 14.781 11 c -0.98 0 -1.781 0.801 -1.781 1.781 l 0 22.438 c 0 0.98 0.801 1.781 1.781 1.781 l 20.438 0 c 0.98 0 1.781 -0.801 1.781 -1.781 l 0 -19.219 l -5 -5 m -17.219 0" style="fill:#f2efec;fill-opacity:1;stroke:none;fill-rule:nonzero"/>
    <path d="m 32 11 l 0 5 l 5 0 m -5 -5" style="fill:#fff;fill-opacity:1;stroke:none;fill-rule:nonzero"/>
    <path d="m 37 21 l 0 -5 l -5 0 m 5 5" id="SVGCleanerId_0" style="fill:#000;fill-opacity:0.2;stroke:none;fill-rule:nonzero"/>
    <path d="m 18.13 18 c -1.18 0 -2.125 0.945 -2.125 2.125 l 0 7.75 c 0 1.18 0.945 2.125 2.125 2.125 l 7.75 0 c 1.18 0 2.125 -0.945 2.125 -2.125 l 0 -7.75 c 0 -1.18 -0.945 -2.125 -2.125 -2.125 m -7.875 2 l 8 0 l 0 8 l -8 0 m 0 -8" style="fill:#ffc522;fill-opacity:1;stroke:none;fill-rule:nonzero"/>
    <path d="m 27 22 l 0 2 l 5 0 l 0 8 l -8 0 l 0 -3 l -2 0 l 0 2.875 c 0 1.18 0.945 2.125 2.125 2.125 l 7.75 0 c 1.18 0 2.125 -0.945 2.125 -2.125 l 0 -7.75 c 0 -1.18 -0.945 -2.125 -2.125 -2.125 m -4.875 0" style="fill:#ffc522;fill-opacity:1;stroke:none;fill-rule:nonzero"/>
   </g>
  </g>
 </g>
 <g>
  
 </g>
</svg>
