<svg xmlns="http://www.w3.org/2000/svg" viewBox="0 0 48 48">
 <defs>
  <linearGradient id="linearGradient3764" x1="1" x2="47" gradientUnits="userSpaceOnUse" gradientTransform="matrix(0,-1,1,0,-1.5e-6,47.999998)">
   <stop style="stop-color:#e4e4e4;stop-opacity:1"/>
   <stop offset="1" style="stop-color:#eee;stop-opacity:1"/>
  </linearGradient>
 </defs>
 <g>
  
  
  
 </g>
 <g>
  <path d="m 47,24 C 47,46.703 46.703,47 24,47 1.297,47 1,46.703 1,24 1,1.297 1.297,1 24,1 46.703,1 47,1.297 47,24 z" style="fill:url(#linearGradient3764);fill-opacity:1"/>
 </g>
 <g>
  <g>
   <g transform="translate(1,1)">
    <g style="opacity:0.1">
     <!-- color: #eeeeee -->
     <g>
      <path d="m 18 13 c -1.105 0 -2 0.895 -2 2 l 0 4 c 0 1.105 0.895 2 2 2 -1.333 0 -2.667 0 -4 0 -1.105 0 -2 0.895 -2 2 l 0 4 c 0 1.105 0.895 2 2 2 1.333 0 2.667 0 4 0 -1.105 0 -2 0.895 -2 2 l 0 4 c 0 1.105 0.895 2 2 2 6 0 12 0 18 0 l 0 -8 -4.01 0 0 -8 4.01 0 0 -8 c -6 0 -12 0 -18 0" transform="translate(-1,-1)"/>
     </g>
    </g>
   </g>
  </g>
 </g>
 <g>
  <g>
   <!-- color: #eeeeee -->
   <g>
    <path d="m 18.05 28 16.953 0 0 8 -16.953 0 m 0 -8" style="fill:#de4b28;fill-opacity:1;stroke:none;fill-rule:nonzero"/>
    <path d="m 17,28 2.027,0 c 1.105,0 2,0.895 2,2 l 0,4 c 0,1.105 -0.895,2 -2,2 L 17,36 c -1.105,0 -2,-0.895 -2,-2 l 0,-4 c 0,-1.105 0.895,-2 2,-2 m 0,0" style="fill:#de4b28;fill-opacity:1;stroke:none;fill-rule:nonzero"/>
    <path d="m 31.465 29 c -1.371 0 -2.469 1.098 -2.469 2.469 l 0 1.063 c 0 1.371 1.098 2.469 2.469 2.469 l 3.531 0 0 -6 m -3.531 0" style="fill:#ebddb7;fill-opacity:1;stroke:none;fill-rule:nonzero"/>
    <path d="m 31.465 29 c -0.809 0 -1.52 0.402 -1.969 1 l 5.5 0 0 -1 m -5.938 2 c -0.027 0.148 -0.063 0.305 -0.063 0.469 l 0 0.531 6 0 0 -1 m -5.938 2 c 0.074 0.375 0.219 0.703 0.438 1 l 5.5 0 0 -1 m -5.938 0" style="fill:#e3cc92;fill-opacity:1;stroke:none;fill-rule:nonzero"/>
    <path d="m 14.05 20 16.949 0 0 8 -16.949 0 m 0 -8" style="fill:#dd7f2d;fill-opacity:1;stroke:none;fill-rule:nonzero"/>
    <path d="m 13,20 2.031,0 c 1.102,0 1.996,0.895 1.996,2 l 0,4 c 0,1.105 -0.895,2 -1.996,2 L 13,28 c -1.105,0 -2,-0.895 -2,-2 l 0,-4 c 0,-1.105 0.895,-2 2,-2 m 0,0" style="fill:#dd7f2d;fill-opacity:1;stroke:none;fill-rule:nonzero"/>
    <path d="m 27.465 21 c -1.371 0 -2.469 1.098 -2.469 2.469 l 0 1.063 c 0 1.371 1.098 2.469 2.469 2.469 l 3.531 0 0 -6 m -3.531 0" style="fill:#ebddb7;fill-opacity:1;stroke:none;fill-rule:nonzero"/>
    <path d="m 27.465 21 c -0.809 0 -1.52 0.402 -1.969 1 l 5.5 0 0 -1 m -5.938 2 c -0.027 0.148 -0.063 0.305 -0.063 0.469 l 0 0.531 6 0 0 -1 m -5.938 2 c 0.074 0.375 0.219 0.703 0.438 1 l 5.5 0 0 -1 m -5.938 0" style="fill:#e3cc92;fill-opacity:1;stroke:none;fill-rule:nonzero"/>
    <path d="m 18.05 12 16.953 0 0 8 -16.953 0 m 0 -8" style="fill:#537f95;fill-opacity:1;stroke:none;fill-rule:nonzero"/>
    <path d="m 17,12 2.027,0 c 1.105,0 2,0.895 2,2 l 0,4 c 0,1.105 -0.895,2 -2,2 L 17,20 c -1.105,0 -2,-0.895 -2,-2 l 0,-4 c 0,-1.105 0.895,-2 2,-2 m 0,0" style="fill:#537f95;fill-opacity:1;stroke:none;fill-rule:nonzero"/>
    <path d="m 31.465 13 c -1.371 0 -2.469 1.098 -2.469 2.469 l 0 1.063 c 0 1.371 1.098 2.469 2.469 2.469 l 3.531 0 0 -6 m -3.531 0" style="fill:#ebddb7;fill-opacity:1;stroke:none;fill-rule:nonzero"/>
    <path d="m 31.465 13 c -0.809 0 -1.52 0.402 -1.969 1 l 5.5 0 0 -1 m -5.938 2 c -0.027 0.148 -0.063 0.305 -0.063 0.469 l 0 0.531 6 0 0 -1 m -5.938 2 c 0.074 0.375 0.219 0.703 0.438 1 l 5.5 0 0 -1 m -5.938 0" style="fill:#e3cc92;fill-opacity:1;stroke:none;fill-rule:nonzero"/>
   </g>
  </g>
 </g>
 <g>
  
 </g>
</svg>
