<svg viewBox="0 0 48 48" xmlns="http://www.w3.org/2000/svg" xmlns:xlink="http://www.w3.org/1999/xlink">
  <linearGradient id="a" gradientTransform="matrix(0 -1 1 0 -.0000015 47.999998)" gradientUnits="userSpaceOnUse" x1="1" x2="47">
    <stop offset="0" stop-color="#f6e3be"/>
    <stop offset="1" stop-color="#f8ebd0"/>
  </linearGradient>
  <path d="m47 24c0 22.703-.297 23-23 23-22.703 0-23-.297-23-23 0-22.703.297-23 23-23 22.703 0 23 .297 23 23z" fill="url(#a)"/>
  <path d="m16 21l-4 8h10l4-8zm11 0v8h1v-1c .398.653 1 1 2 1 1 0 2.301-.811 2.301-3 0-2.189-1.301-3-2.301-3-1 0-1.522.473-2 1v-3zm8.5 2c-1.7 0-2.699 1.274-2.699 3 0 1.726.999 3 2.699 3 1.418 0 2.5-1 2.5-2h-1.199c-.001.471-.44 1-1.188 1-.891 0-1.613-.533-1.613-2 0-1.467.722-2 1.613-2 .724 0 1.188.541 1.188 1h1.199c0-1-1.082-2-2.5-2zm-6 1c .828 0 1.5.686 1.5 2 0 1.314-.672 2-1.5 2-.828 0-1.5-.895-1.5-2 0-1.105.672-2 1.5-2z" opacity=".1"/>
  <path d="m15 20h10l-4 8h-10z" fill="#639daa"/>
  <path d="m26 20v8h1v-1c .398.653 1 1 2 1 1 0 2.3-.811 2.3-3 0-2.189-1.3-3-2.3-3-1 0-1.522.473-2 1v-3zm2.5 3c .828 0 1.5.686 1.5 2 0 1.314-.672 2-1.5 2-.828 0-1.5-.895-1.5-2 0-1.105.672-2 1.5-2z" fill="#333"/>
  <path d="m34.5 22c-1.7 0-2.7 1.274-2.7 3 0 1.726 1 3 2.7 3 1.418 0 2.5-1 2.5-2h-1.2c-.001.471-.439 1-1.187 1-.891 0-1.613-.533-1.613-2 0-1.467.722-2 1.613-2 .724 0 1.188.541 1.187 1h1.2c0-1-1.082-2-2.5-2z" fill="#333"/>
</svg>
