<svg xmlns="http://www.w3.org/2000/svg" viewBox="0 0 48 48">
 <defs>
  <linearGradient id="linearGradient3764" y1="47" x2="0" y2="1" gradientUnits="userSpaceOnUse">
   <stop style="stop-color:#5ba547;stop-opacity:1"/>
   <stop offset="1" style="stop-color:#64b34e;stop-opacity:1"/>
  </linearGradient>
 </defs>
 <g>
  
  
  
 </g>
 <g>
  <path d="m 47,24 C 47,46.703 46.703,47 24,47 1.297,47 1,46.703 1,24 1,1.297 1.297,1 24,1 46.703,1 47,1.297 47,24 z" style="fill:url(#linearGradient3764);fill-opacity:1"/>
 </g>
 <g>
  <g>
   <!-- color: #64b34e -->
   <g>
    <path d="m 14 16 c -0.551 0 -1 0.445 -1 0.996 l 0 16 c 0 0.551 0.449 1 1 1 l 4 0 c 0.551 0 1 -0.449 1 -1 l 0 -16 c 0 -0.551 -0.449 -0.996 -1 -0.996 l -4 0 z m 7.996 0 c -0.551 0 -0.996 0.445 -0.996 0.996 l 0 16 c 0 0.551 0.445 1 0.996 1 c 3 0 5.998 0.004 9 0.004 c 4.97 0 9 -4.03 9 -9 0 -4.97 -4.03 -9 -9 -9 l -9 0 z" style="fill:#000;fill-opacity:0.098"/>
    <path d="m 13 15 l 4 0 c 0.551 0 1 0.445 1 0.996 l 0 16 c 0 0.551 -0.449 1 -1 1 l -4 0 c -0.551 0 -1 -0.449 -1 -1 l 0 -16 c 0 -0.551 0.449 -0.996 1 -0.996 m 0 0" style="fill:#f9f9f9"/>
    <path d="m 20.996 15 c -0.551 0 -0.996 0.445 -0.996 0.996 l 0 16 c 0 0.551 0.445 1 0.996 1 c 3 0 5.998 0.004 9 0.004 c 4.97 0 9 -4.03 9 -9 0 -4.97 -4.03 -9 -9 -9 -3 0 -6 0 -9 0 z" style="fill:#f9f9f9"/>
   </g>
  </g>
 </g>
 <g>
  
 </g>
</svg>
