<svg xmlns="http://www.w3.org/2000/svg" viewBox="0 0 48 48">
 <defs>
  <linearGradient id="linearGradient3764" x1="1" x2="47" gradientUnits="userSpaceOnUse" gradientTransform="matrix(0,-1,1,0,-1.5e-6,47.999998)">
   <stop style="stop-color:#efefef;stop-opacity:1"/>
   <stop offset="1" style="stop-color:#f9f9f9;stop-opacity:1"/>
  </linearGradient>
 </defs>
 <g>
  
  
  
 </g>
 <g>
  <path d="m 47,24 C 47,46.703 46.703,47 24,47 1.297,47 1,46.703 1,24 1,1.297 1.297,1 24,1 46.703,1 47,1.297 47,24 z" style="fill:url(#linearGradient3764);fill-opacity:1"/>
 </g>
 <g>
  <g>
   <g transform="translate(1,1)">
    <g style="opacity:0.1">
     <!-- color: #f9f9f9 -->
     <g>
      <path d="m 17.656 25.297 l -0.652 4 l -1 6 l 4 0 l 1 -6 l 0.652 -4 m -4 0" style="fill:#000;fill-opacity:1;stroke:none;fill-rule:nonzero"/>
      <path d="m 12.656 25.297 l -0.652 4 l 23.344 0 l 0.656 -4 m -23.348 0" style="fill:#000;fill-opacity:1;stroke:none;fill-rule:nonzero"/>
      <path d="m 28 11.297 l 4 0 l -4 24 l -4 0 m 4 -24" style="fill:#000;fill-opacity:1;stroke:none;fill-rule:nonzero"/>
      <path d="m 12.656 17.297 l -0.652 4 l 23.344 0 l 0.656 -4 m -23.348 0" style="fill:#000;fill-opacity:1;stroke:none;fill-rule:nonzero"/>
      <path d="m 20 11.297 l -2.344 14 l 4 0 l 2.344 -14 m -4 0" style="fill:#000;fill-opacity:1;stroke:none;fill-rule:nonzero"/>
     </g>
    </g>
   </g>
  </g>
 </g>
 <g>
  <g>
   <!-- color: #f9f9f9 -->
   <g>
    <path d="m 17.656 25.297 l -0.652 4 l -1 6 l 4 0 l 1 -6 l 0.652 -4 m -4 0" style="fill:#3d7fe6;fill-opacity:1;stroke:none;fill-rule:nonzero"/>
    <path d="m 12.656 25.297 l -0.652 4 l 23.344 0 l 0.656 -4 m -23.348 0" style="fill:#0f8e52;fill-opacity:1;stroke:none;fill-rule:nonzero"/>
    <path d="m 28 11.297 l 4 0 l -4 24 l -4 0 m 4 -24" style="fill:#e3a400;fill-opacity:1;stroke:none;fill-rule:nonzero"/>
    <path d="m 12.656 17.297 l -0.652 4 l 23.344 0 l 0.656 -4 m -23.348 0" style="fill:#d74336;fill-opacity:1;stroke:none;fill-rule:nonzero"/>
    <path d="m 20 11.297 l -2.344 14 l 4 0 l 2.344 -14 m -4 0" style="fill:#3d7fe6;fill-opacity:1;stroke:none;fill-rule:nonzero"/>
   </g>
  </g>
 </g>
 <g>
  
 </g>
</svg>
