<svg viewBox="0 0 48 48" xmlns="http://www.w3.org/2000/svg" xmlns:xlink="http://www.w3.org/1999/xlink">
  <linearGradient id="a" gradientTransform="matrix(0 -1 1 0 -.0000015 47.999998)" gradientUnits="userSpaceOnUse" x1="1" x2="47">
    <stop offset="0" stop-color="#7547bb"/>
    <stop offset="1" stop-color="#8056c0"/>
  </linearGradient>
  <path d="m47 24c0 22.703-.297 23-23 23-22.703 0-23-.297-23-23 0-22.703.297-23 23-23 22.703 0 23 .297 23 23z" fill="url(#a)"/>
  <g opacity=".1" transform="translate(1 1)">
    <path d="m9 15l .004.996h3.961l7.496 9.957.227 4.754c-.199.824-.84 1.117-1.297 1.289h-2.773l.031 1h12.34v-1h-3.633c-.453.074-.418-.934-.457-1.211l-.23-4.52c.059-.363.133-.727.613-1.09l7.188-5.844 3.359-.336.535-1h-11.188l.18 1 3.211.102c.191.16.57.145.152.859l-4.664 4.125c-.246.152-.434.07-.613-.074l-5.195-6.938c-.387-.551-.012-1.027.457-1.074h3.359v-1h-13.06m0 .004"/>
    <path d="m31.824 30.27l1.488.938-1 1.789-1.516-.965 1.027-1.766m0 .004"/>
    <path d="m32.539 28.629l1.262.82 5.195-8.688-2.941-1.715-3.52 9.582m.004 0"/>
  </g>
  <path d="m9 15l .004.996h3.961l7.496 9.957.227 4.754c-.199.824-.84 1.117-1.297 1.289h-2.773l.031 1h12.34v-1h-3.633c-.453.074-.418-.934-.457-1.211l-.23-4.52c.059-.363.133-.727.613-1.09l7.188-5.844 3.359-.336.535-1h-11.188l.18 1 3.211.102c.191.16.57.145.152.859l-4.664 4.125c-.246.152-.434.07-.613-.074l-5.195-6.938c-.387-.551-.012-1.027.457-1.074h3.359v-1h-13.06m0 .004" fill="#f9f9f9"/>
  <path d="m31.824 30.27l1.488.938-1 1.789-1.516-.965 1.027-1.766m0 .004" fill="#f9f9f9"/>
  <path d="m32.539 28.629l1.262.82 5.195-8.688-2.941-1.715-3.52 9.582m.004 0" fill="#f9f9f9"/>
</svg>
