<svg xmlns="http://www.w3.org/2000/svg" viewBox="0 0 48 48">
 <defs>
  <linearGradient id="linearGradient3764" x1="1" x2="47" gradientUnits="userSpaceOnUse" gradientTransform="matrix(0,-1,1,0,-1.5e-6,47.999998)">
   <stop style="stop-color:#7ec91d;stop-opacity:1"/>
   <stop offset="1" style="stop-color:#88db1f;stop-opacity:1"/>
  </linearGradient>
 </defs>
 <g>
  
  
  
 </g>
 <g>
  <path d="m 47,24 C 47,46.703 46.703,47 24,47 1.297,47 1,46.703 1,24 1,1.297 1.297,1 24,1 46.703,1 47,1.297 47,24 z" style="fill:url(#linearGradient3764);fill-opacity:1"/>
 </g>
 <g>
  <g>
   <g transform="translate(1,1)">
    <g style="opacity:0.1">
     <!-- color: #83d21e -->
     <g>
      <path d="m 25 25 c 0.063 2.586 -2.535 4.883 -5 5 l 5 2.5 5 -2.5 c -2.754 -0.18 -4.938 -2.414 -5 -5 m 0 0" style="fill:#000;fill-opacity:0.102;stroke:none;fill-rule:nonzero"/>
      <path d="m 9.994 14 c 0 0 0.006 0.002 0.006 0.002 c 0 0 0 -0.002 0 -0.002 l -0.006 0 z m 0.006 0.002 c 0 0.003 0 7.999 0.316 12.275 c 0.641 3.77 3.281 7.172 7.328 7.172 c 1.622 0 3.13 -0.541 4.365 -1.439 l 2.99 2.99 l 2.988 -2.988 c 1.236 0.899 2.746 1.438 4.369 1.438 c 4.04 0 7.04 -3.359 7.324 -7.172 c 0.313 -4.277 0.313 -12.277 0.313 -12.277 c 0 0 -7.793 1.926 -10.727 4.309 c -1.797 1.418 -3.738 3.379 -4.273 6.148 c -0.527 -2.77 -2.473 -4.73 -4.27 -6.148 c -2.938 -2.38 -10.706 -4.302 -10.725 -4.307 z m 12.766 17.381 l 2.234 1.117 l 2.234 -1.117 c 0.116 0.11 0.232 0.22 0.355 0.322 l -2.59 1.295 l -2.59 -1.295 c 0.123 -0.102 0.239 -0.212 0.355 -0.322 z" transform="translate(-1,-1)" style="fill:#000;fill-opacity:1;stroke:none;fill-rule:nonzero"/>
      <path d="m 24 24 c 0.063 2.59 -2.535 4.887 -5 5 l 5 2.5 l 5 -2.5 c -2.754 -0.176 -4.938 -2.41 -5 -5 m 0 0" style="fill:#000;fill-opacity:1;stroke:none;fill-rule:nonzero"/>
     </g>
    </g>
   </g>
  </g>
 </g>
 <g>
  <g>
   <!-- color: #83d21e -->
   <g>
    <path d="m 9,13 c 0,0 0,8 0.316,12.277 0.641,3.77 3.281,7.172 7.328,7.172 3.609,0 6.676,-2.656 7.355,-6.05 0.68,3.391 3.746,6.05 7.359,6.05 4.04,0 7.04,-3.359 7.324,-7.172 C 38.995,21 38.995,13 38.995,13 c 0,0 -7.793,1.926 -10.727,4.309 -1.797,1.418 -3.738,3.379 -4.273,6.148 -0.527,-2.77 -2.473,-4.73 -4.27,-6.148 C 16.784,14.926 8.995,13 8.995,13 m 0,0" style="fill:#5ea10b;fill-opacity:1;stroke:none;fill-rule:nonzero"/>
    <path d="m 24 24 c 0.063 2.59 -2.535 4.887 -5 5 l 5 2.5 l 5 -2.5 c -2.754 -0.176 -4.938 -2.41 -5 -5 z m -4 6 l 4 4 l 4 -4 l -4 2 l -4 -2 z" style="fill:#f8cf28;fill-opacity:1;stroke:none;fill-rule:nonzero"/>
    <path d="m 16 21 c -2.207 0 -4 1.793 -4 4 c 0 2.207 1.793 4 4 4 c 2.211 0 4 -1.789 4 -4 c 0 -2.207 -1.789 -4 -4 -4 z m 16 0 c -2.207 0 -4 1.793 -4 4 c 0 2.207 1.793 4 4 4 c 2.211 0 4 -1.789 4 -4 c 0 -2.207 -1.789 -4 -4 -4 z" style="fill:#f9f9f9;fill-opacity:1;stroke:none;fill-rule:nonzero"/>
    <path d="m 16 23 c -1.105 0 -2 0.898 -2 2 c 0 1.102 0.895 2 2 2 c 1.105 0 2 -0.895 2 -2 c 0 -1.102 -0.895 -2 -2 -2 z m 16 0 c -1.105 0 -2 0.898 -2 2 c 0 1.102 0.895 2 2 2 c 1.105 0 2 -0.895 2 -2 c 0 -1.102 -0.895 -2 -2 -2 z" style="fill:#2d2d2d;fill-opacity:1;stroke:none;fill-rule:nonzero"/>
   </g>
  </g>
 </g>
 <g>
  
 </g>
</svg>
