<svg viewBox="0 0 48 48" xmlns="http://www.w3.org/2000/svg" xmlns:xlink="http://www.w3.org/1999/xlink">
  <linearGradient id="a" gradientTransform="matrix(0 -1 1 0 -.0000015 47.999998)" gradientUnits="userSpaceOnUse" x1="1" x2="47">
    <stop offset="0" stop-color="#d04520"/>
    <stop offset="1" stop-color="#de4d26"/>
  </linearGradient>
  <linearGradient id="b" gradientTransform="matrix(.25142474 0 0 -.25142474 -45.774891 -127.85359)" gradientUnits="userSpaceOnUse" x1="255.51" x2="264.08" xlink:href="#c"/>
  <linearGradient id="c" gradientTransform="matrix(.25142474 0 0 -.25142474 -45.774891 -127.85359)" gradientUnits="userSpaceOnUse" x1="282.46" x2="290.27">
    <stop offset=".006" stop-color="#6176b9"/>
    <stop offset=".691" stop-color="#394a9f"/>
  </linearGradient>
  <linearGradient id="d" gradientTransform="matrix(.25142474 0 0 -.25142474 -45.774891 -127.85359)" gradientUnits="userSpaceOnUse" x1="282.46" x2="290.27" xlink:href="#c"/>
  <path d="m47 24c0 22.703-.297 23-23 23-22.703 0-23-.297-23-23 0-22.703.297-23 23-23 22.703 0 23 .297 23 23z" fill="url(#a)"/>
  <path d="m25 9.997c-8.284 0-15 6.716-15 15 0 6.89 4.64 12.678 10.969 14.438 1.318.402 2.687.534 4.03.563.875.019 1.626-.107 2.406-.219 7.139-1.153 12.594-7.317 12.594-14.781 0-8.284-6.716-15-15-15m0 1c7.732 0 14 6.268 14 14 0 6.676-4.685 12.255-10.938 13.656-.296-.584-.538-1.077-.781-1.563.757.296 2.255.856 2.625.719.473-.18.343-3.974-.188-4.094-.475-.105-2.267 1.218-2.688 1.531-.022-.089-.045-.207-.063-.25-.042-.104-.366-.112-.719-.094-.783-1.809-1.407-3.91-1.063-5.406.447.312 3.425 1.309 4.906 1.281 1.484-.029 3.924-.928 3.656-1.656-.266-.728-2.695.64-5.219.406-1.869-.174-2.195-1.014-1.781-1.625.52-.769 1.468.155 3.03-.313 1.566-.467 3.781-1.326 4.594-1.781 1.878-1.047-.808-1.478-1.438-1.188-.604.279-2.678.803-3.625 1.031.544-1.904-.769-5.206-2.219-6.656-.472-.472-1.181-.781-2-.938-.315-.432-.843-.837-1.563-1.219-1.017-.54-2.213-.848-3.406-.844-.398.002-.798.054-1.188.125-.166.039-.295.102-.438.125.201.018.919.338 1.344.5-.197.079-.432.139-.656.219-.125.015-.236.045-.344.094-.217.098-.408.479-.406.656 1.08-.109 2.693-.048 3.844.313-.83.11-1.607.304-2.156.594-.048.025-.079.067-.125.094-.036.016-.093.014-.125.031-1.722.907-2.485 3.02-2.031 5.563.429 2.393 2.172 10.508 2.906 14.03-5.65-1.802-9.75-7.096-9.75-13.344 0-7.732 6.268-14 14-14" opacity=".1"/>
  <g transform="translate(0 -.00291436)">
    <path d="m24 9c-8.284 0-15 6.716-15 15 0 8.284 6.716 15 15 15 8.284 0 15-6.716 15-15 0-8.284-6.716-15-15-15zm0 1c7.732 0 14 6.268 14 14 0 7.732-6.268 14-14 14-7.732 0-14-6.268-14-14 0-7.732 6.268-14 14-14z" fill="#fff"/>
    <path d="m18.16 15.09c-.317.008-.456.123-.656.156.249.022 1.426.591 1.656.625-.23.156-.881-.006-1.313.188-.217.098-.408.479-.406.656 1.234-.125 3.175-.007 4.313.5-.906.103-2.283.22-2.875.531-1.722.907-2.485 3.02-2.031 5.563.454 2.533 2.459 11.788 3.094 14.875.018.085.018.167.031.25 1.281.356 2.636.563 4.03.563.981 0 1.946-.101 2.875-.281-.631-1.228-1.314-2.504-1.688-3.25-.997-1.994-1.986-4.812-1.531-6.625.082-.33-.866-2.853-.594-3.03 2.116-1.38 2.653.15 3.5-.469.437-.32 1.036.28 1.188-.25.543-1.903-.739-5.206-2.188-6.656-.474-.472-1.212-.78-2.031-.938-.315-.431-.811-.837-1.531-1.219-.802-.427-2.565-1.01-3.469-1.156-.157-.026-.269-.034-.375-.031z" fill="#d5d7d8"/>
    <path d="m19.13 15c-.398.002-.798.054-1.188.125.249.023.833.528 1.063.563-.347.235-1.256.196-1.25.719 1.236-.124 2.58.088 3.719.594-.906.103-1.751.312-2.344.625-1.723.906-2.172 2.741-1.719 5.281.454 2.538 2.43 11.762 3.063 14.844.06.289.078.574.094.844 1.102.258 2.257.406 3.438.406 1.215 0 2.4-.165 3.531-.438-.683-1.338-1.379-2.727-1.781-3.531-.998-1.995-2.02-4.781-1.563-6.594.084-.329.101-1.696.375-1.875 2.114-1.381 1.964-.037 2.813-.656.437-.319.785-.72.938-1.25.544-1.904-.769-5.206-2.219-6.656-.472-.472-1.181-.781-2-.938-.315-.432-.843-.837-1.563-1.219-1.017-.54-2.213-.848-3.406-.844z" fill="#fff"/>
    <path d="m20.35 22.07c-.527 0-.953.425-.953.951 0 .526.426.953.953.953.526 0 .953-.427.953-.953 0-.526-.428-.951-.953-.951zm.422.387c.137 0 .246.111.246.248 0 .137-.11.246-.246.246-.135 0-.246-.11-.246-.246 0-.137.111-.248.246-.248z" fill="#2d4f8e"/>
    <path d="m26.713 21.639c-.451 0-.818.365-.818.816 0 .453.368.818.818.818.453 0 .818-.365.818-.818 0-.451-.365-.816-.818-.816zm.363.33c.12 0 .211.094.211.211 0 .118-.091.213-.211.213-.115 0-.211-.095-.211-.213 0-.116.095-.211.211-.211z" fill="#2d4f8e"/>
    <path d="m20.62 20.261c0 0-.718-.325-1.415.114-.696.438-.671.886-.671.886 0 0-.37-.825.617-1.23.988-.405 1.469.23 1.469.23z" fill="url(#b)"/>
    <path d="m27.21 20.2c0 0-.516-.295-.916-.29-.822.011-1.046.374-1.046.374 0 0 .138-.866 1.19-.692.57.095.772.608.772.608z" fill="url(#d)"/>
    <path d="m23.264 26.692c.095-.576 1.584-1.666 2.637-1.732 1.056-.066 1.385-.052 2.265-.262.882-.211 3.152-.776 3.78-1.067.63-.291 3.294.144 1.416 1.191-.813.455-3 1.29-4.569 1.757-1.564.468-2.512-.447-3.03.322-.414.611-.084 1.449 1.785 1.622 2.524.234 4.943-1.136 5.209-.409.268.728-2.169 1.636-3.652 1.665-1.481.028-4.469-.98-4.916-1.292-.449-.312-1.047-1.038-.923-1.797z" fill="#fdd20a"/>
    <path d="m24.406 34.561c0 0-3.545-1.891-3.603-1.124-.06.768 0 3.899.413 4.136.414.236 3.368-1.536 3.368-1.536l-.178-1.477" fill="#65bc46"/>
    <path d="m25.764 34.441c0 0 2.422-1.832 2.955-1.713.531.12.649 3.9.176 4.079-.473.175-3.245-.959-3.245-.959l.114-1.406z" fill="#65bc46"/>
    <path d="m23.548 34.761c0 1.24-.178 1.772.355 1.89.531.119 1.535 0 1.89-.236.355-.236.058-1.831-.059-2.128-.119-.294-2.186-.057-2.186.474z" fill="#43a244"/>
    <path d="m23.773 34.485c0 1.24-.178 1.773.355 1.89.53.119 1.535 0 1.89-.236.355-.237.058-1.83-.06-2.129-.118-.295-2.185-.057-2.185.474z" fill="#65bc46"/>
  </g>
</svg>
