<svg viewBox="0 0 48 48" xmlns="http://www.w3.org/2000/svg" xmlns:xlink="http://www.w3.org/1999/xlink">
  <linearGradient id="a" gradientTransform="matrix(0 -1 1 0 -.0000015 47.999998)" gradientUnits="userSpaceOnUse" x1="1" x2="47">
    <stop offset="0" stop-color="#4b5d4f"/>
    <stop offset="1" stop-color="#546959"/>
  </linearGradient>
  <path d="m47 24c0 22.703-.297 23-23 23-22.703 0-23-.297-23-23 0-22.703.297-23 23-23 22.703 0 23 .297 23 23z" fill="url(#a)"/>
  <path d="m25 9.996c-8.275 0-15 6.729-15 15 0 8.271 6.729 14.998 15 14.998 8.272 0 14.998-6.726 14.998-14.998 0-8.275-6.727-15-14.998-15zm0 2c6.08 0 11.154 4.158 12.582 9.789-1.588-.938-3.574-1.706-5.689-2.15-3.484-.867-7.266-.816-11.125-.195-.141.023-.297.043-.43.066l-1.289-2.521.002.016c-1.254.18-2.418.449-3.508.816l1.229 2.711c-1.94.797-3.54 1.927-4.715 3.281.6-6.634 6.15-11.813 12.943-11.813zm1.199 9.152c3.849.111 6.227 1.569 7.689 3.092l-4.98 1.273-2.059-3.523c-1.191-.074-2.566.004-4.148.293l2.221 4.246 1.012 1.926.43.816 9.16-2.645 2.428-.727c-.462 6.768-6.06 12.1-12.951 12.1-4.294 0-8.08-2.077-10.449-5.273l1.756-.51 5.07-1.469 4.059-1.176-1.414-2.809-2.609-5.129c.137-.027.287-.072.428-.1 1.631-.309 3.076-.422 4.359-.385zm-8.379 1.723l2.242 4.936-4.977 1.271c-.453-2.18-.105-4.594 2.734-6.207z" fill-opacity=".098"/>
  <path d="m24 8.997c-8.275 0-15 6.729-15 15 0 8.271 6.729 14.997 15 14.997 8.272 0 14.997-6.725 14.997-14.997 0-8.275-6.726-15-14.997-15zm0 2c7.192 0 12.997 5.808 12.997 13 0 7.191-5.805 12.997-12.997 12.997-7.195 0-13-5.805-13-12.997 0-7.196 5.808-13 13-13z" fill="#b9cf1f"/>
  <path d="m18.05 16c-1.254.18-2.418.449-3.508.816l1.23 2.711c-1.996.82-3.641 1.988-4.824 3.395-.367.441-.676.926-.953 1.402.172 2.859 1.129 5.48 2.609 7.676l2.703-.785 5.07-1.469 4.059-1.176-1.414-2.809-2.609-5.129c.137-.027.285-.07.426-.098 6.523-1.238 10.1.676 12.05 2.707l-4.98 1.273-2.059-3.523c-1.191-.074-2.566.004-4.148.293l2.219 4.246 1.012 1.926.43.816 9.16-2.645 3.41-1.02c.112-.996.038-2.01-.031-2.934-1.719-1.336-4.258-2.461-7.01-3.039-3.484-.867-7.266-.816-11.125-.195-.141.023-.297.043-.43.066l-1.289-2.52m-1.227 5.887l2.242 4.934-4.977 1.273c-.453-2.18-.105-4.594 2.734-6.207" fill="#b9cf1f" fill-rule="evenodd"/>
</svg>
