<svg viewBox="0 0 48 48" xmlns="http://www.w3.org/2000/svg" xmlns:xlink="http://www.w3.org/1999/xlink">
  <linearGradient id="a" gradientTransform="matrix(0 -1 1 0 -.0000015 47.999998)" gradientUnits="userSpaceOnUse" x1="1" x2="47">
    <stop offset="0" stop-color="#ec3e3e"/>
    <stop offset="1" stop-color="#ee5150"/>
  </linearGradient>
  <path d="m47 24c0 22.703-.297 23-23 23-22.703 0-23-.297-23-23 0-22.703.297-23 23-23 22.703 0 23 .297 23 23z" fill="url(#a)"/>
  <path d="m12 13c-.551 0-.996.445-.996 1v19.996c0 .555.445 1 .996 1h24c .555 0 1-.445 1-1v-19.996c0-.555-.445-1-1-1m-22 3h4v4h-4m16-4h4v4h-4m-16 1.996h4v4h-4m16-4h4v4h-4m-16 2h4v4h-4m16-4h4v4h-4m0-4" opacity=".1" transform="translate(1 1)"/>
  <path d="m12 13c-.551 0-.996.445-.996 1v19.996c0 .555.445 1 .996 1h24c .555 0 1-.445 1-1v-19.996c0-.555-.445-1-1-1m-22 3h4v4h-4m16-4h4v4h-4m-16 1.996h4v4h-4m16-4h4v4h-4m-16 2h4v4h-4m16-4h4v4h-4m0-4" fill="#f9f9f9"/>
</svg>
