<svg viewBox="0 0 48 48" xmlns="http://www.w3.org/2000/svg" xmlns:xlink="http://www.w3.org/1999/xlink">
  <linearGradient id="a" gradientTransform="matrix(0 -1 1 0 -.0000015 47.999998)" gradientUnits="userSpaceOnUse" x1="1" x2="47">
    <stop offset="0" stop-color="#e4e4e4"/>
    <stop offset="1" stop-color="#eee"/>
  </linearGradient>
  <path d="m47 24c0 22.703-.297 23-23 23-22.703 0-23-.297-23-23 0-22.703.297-23 23-23 22.703 0 23 .297 23 23z" fill="url(#a)"/>
  <path d="m25 13l-10 6 10 6-10 6 10 6 10-6v-12z" opacity=".1" transform=""/>
  <path d="m24 24l-10-6 10-6m0 12" fill="#f4b235"/>
  <path d="m24 12v12l10-6m-10-6" fill="#f37d3b"/>
  <path d="m24 24l10-6v12m-10-6" fill="#de2851"/>
  <path d="m24 36v-12l10 6m-10 6" fill="#862058"/>
  <path d="m24 36l-10-6 10-6m0 12" fill="#2c61a9"/>
</svg>
