<svg viewBox="0 0 48 48" xmlns="http://www.w3.org/2000/svg" xmlns:xlink="http://www.w3.org/1999/xlink">
  <linearGradient id="a" gradientTransform="matrix(0 -1 1 0 -.0000015 47.999998)" gradientUnits="userSpaceOnUse" x1="1" x2="47">
    <stop offset="0" stop-color="#098cc3"/>
    <stop offset="1" stop-color="#0a99d6"/>
  </linearGradient>
  <path d="m47 24c0 22.703-.297 23-23 23-22.703 0-23-.297-23-23 0-22.703.297-23 23-23 22.703 0 23 .297 23 23z" fill="url(#a)"/>
  <path d="m17.977 14.207c-6.695 3.48-8.04 12.531-2.629 17.688 3.109 2.965 7.285 3.844 11.633 2.434 4.16-1.352 7.02-5.547 7.02-9.855 0-1.648.188-2.133 1.648-2.59 1.355-.418 2.355-1.895 2.355-2.902-2.52.109-7-1.996-9-4.5v5c0 5.348-.914 6.531-3.03 8.03-1.707 1.207-4.813 1.418-6.348.438-2.34-1.496-2.32-4.355.059-6.777 2.254-1.789 3.895-1.902 6.313-1.738v-6.04c-2.602-.77-5.68-.363-8.02.813m.004 0" opacity=".1" transform="translate(1 1)"/>
  <path d="m17.977 14.207c-6.695 3.48-8.04 12.531-2.629 17.688 3.109 2.965 7.285 3.844 11.633 2.434 4.16-1.352 7.02-5.547 7.02-9.855 0-1.648.188-2.133 1.648-2.59 1.355-.418 2.355-1.895 2.355-2.902-2.52.109-7-1.996-9-4.5v5c0 5.348-.914 6.531-3.03 8.03-1.707 1.207-4.813 1.418-6.348.438-2.34-1.496-2.32-4.355.059-6.777 2.254-1.789 3.895-1.902 6.313-1.738v-6.04c-2.602-.77-5.68-.363-8.02.813m.004 0" fill="#f9f9f9"/>
</svg>
