<svg xmlns="http://www.w3.org/2000/svg" viewBox="0 0 48 48">
 <defs>
  <linearGradient id="linearGradient3764" x1="1" x2="47" gradientUnits="userSpaceOnUse" gradientTransform="matrix(0,-1,1,0,-1.5e-6,47.999998)">
   <stop style="stop-color:#e4e4e4;stop-opacity:1"/>
   <stop offset="1" style="stop-color:#eee;stop-opacity:1"/>
  </linearGradient>
 </defs>
 <g>
  
  
  
 </g>
 <g>
  <path d="m 47,24 C 47,46.703 46.703,47 24,47 1.297,47 1,46.703 1,24 1,1.297 1.297,1 24,1 46.703,1 47,1.297 47,24 z" style="fill:url(#linearGradient3764);fill-opacity:1"/>
 </g>
 <g>
  <g>
   <g transform="translate(1,1)">
    <g style="opacity:0.1">
     <!-- color: #eeeeee -->
     <g>
      <path d="m 34 14 l 0 9 l -9 0 l 0 -9 m 9 0" style="fill:#000;fill-opacity:1;stroke:none;fill-rule:nonzero"/>
      <path d="m 14 14 l 9 0 l 0 9 l -9 0 m 0 -9" style="fill:#000;fill-opacity:1;stroke:none;fill-rule:nonzero"/>
      <path d="m 23 25.02 l 0 9 l -9 0 l 0 -9 m 9 0" style="fill:#000;fill-opacity:1;stroke:none;fill-rule:nonzero"/>
      <path d="m 25.02 25.02 l 9 0 l 0 9 l -9 0 m 0 -9" style="fill:#000;fill-opacity:1;stroke:none;fill-rule:nonzero"/>
     </g>
    </g>
   </g>
  </g>
 </g>
 <g>
  <g>
   <!-- color: #eeeeee -->
   <g>
    <path d="m 34 14 l 0 9 l -9 0 l 0 -9 m 9 0" style="fill:#7fcc28;fill-opacity:1;stroke:none;fill-rule:nonzero"/>
    <path d="m 14 14 l 9 0 l 0 9 l -9 0 m 0 -9" style="fill:#f15119;fill-opacity:1;stroke:none;fill-rule:nonzero"/>
    <path d="m 23 25.02 l 0 9 l -9 0 l 0 -9 m 9 0" style="fill:#00abec;fill-opacity:1;stroke:none;fill-rule:nonzero"/>
    <path d="m 25.02 25.02 l 9 0 l 0 9 l -9 0 m 0 -9" style="fill:#fbb909;fill-opacity:1;stroke:none;fill-rule:nonzero"/>
   </g>
  </g>
 </g>
 <g>
  
 </g>
</svg>
