<svg viewBox="0 0 48 48" xmlns="http://www.w3.org/2000/svg" xmlns:xlink="http://www.w3.org/1999/xlink">
  <linearGradient id="a" gradientTransform="matrix(0 -1 1 0 -.0000015 47.999998)" gradientUnits="userSpaceOnUse" x1="1" x2="47">
    <stop offset="0" stop-color="#e4e4e4"/>
    <stop offset="1" stop-color="#eee"/>
  </linearGradient>
  <path d="m47 24c0 22.703-.297 23-23 23-22.703 0-23-.297-23-23 0-22.703.297-23 23-23 22.703 0 23 .297 23 23z" fill="url(#a)"/>
  <path d="m18 13c-1.105 0-2 .895-2 2v4c0 1.105.895 2 2 2-1.333 0-2.667 0-4 0-1.105 0-2 .895-2 2v4c0 1.105.895 2 2 2 1.333 0 2.667 0 4 0-1.105 0-2 .895-2 2v4c0 1.105.895 2 2 2 6 0 12 0 18 0v-8h-4.01v-8h4.01v-8c-6 0-12 0-18 0" opacity=".1" transform=""/>
  <path d="m18.05 28h16.953v8h-16.953m0-8" fill="#de4b28"/>
  <path d="m17 28h2.027c1.105 0 2 .895 2 2v4c0 1.105-.895 2-2 2h-2.027c-1.105 0-2-.895-2-2v-4c0-1.105.895-2 2-2m0 0" fill="#de4b28"/>
  <path d="m31.465 29c-1.371 0-2.469 1.098-2.469 2.469v1.063c0 1.371 1.098 2.469 2.469 2.469h3.531v-6m-3.531 0" fill="#ebddb7"/>
  <path d="m31.465 29c-.809 0-1.52.402-1.969 1h5.5v-1m-5.938 2c-.027.148-.063.305-.063.469v.531h6v-1m-5.938 2c .074.375.219.703.438 1h5.5v-1m-5.938 0" fill="#e3cc92"/>
  <path d="m14.05 20h16.949v8h-16.949m0-8" fill="#dd7f2d"/>
  <path d="m13 20h2.031c1.102 0 1.996.895 1.996 2v4c0 1.105-.895 2-1.996 2h-2.031c-1.105 0-2-.895-2-2v-4c0-1.105.895-2 2-2m0 0" fill="#dd7f2d"/>
  <path d="m27.465 21c-1.371 0-2.469 1.098-2.469 2.469v1.063c0 1.371 1.098 2.469 2.469 2.469h3.531v-6m-3.531 0" fill="#ebddb7"/>
  <path d="m27.465 21c-.809 0-1.52.402-1.969 1h5.5v-1m-5.938 2c-.027.148-.063.305-.063.469v.531h6v-1m-5.938 2c .074.375.219.703.438 1h5.5v-1m-5.938 0" fill="#e3cc92"/>
  <path d="m18.05 12h16.953v8h-16.953m0-8" fill="#537f95"/>
  <path d="m17 12h2.027c1.105 0 2 .895 2 2v4c0 1.105-.895 2-2 2h-2.027c-1.105 0-2-.895-2-2v-4c0-1.105.895-2 2-2m0 0" fill="#537f95"/>
  <path d="m31.465 13c-1.371 0-2.469 1.098-2.469 2.469v1.063c0 1.371 1.098 2.469 2.469 2.469h3.531v-6m-3.531 0" fill="#ebddb7"/>
  <path d="m31.465 13c-.809 0-1.52.402-1.969 1h5.5v-1m-5.938 2c-.027.148-.063.305-.063.469v.531h6v-1m-5.938 2c .074.375.219.703.438 1h5.5v-1m-5.938 0" fill="#e3cc92"/>
</svg>
