<svg viewBox="0 0 48 48" xmlns="http://www.w3.org/2000/svg" xmlns:xlink="http://www.w3.org/1999/xlink">
  <linearGradient id="a" gradientTransform="matrix(0 -1 1 0 -.0000015 47.999998)" gradientUnits="userSpaceOnUse" x1="1" x2="47">
    <stop offset="0" stop-color="#efefef"/>
    <stop offset="1" stop-color="#f9f9f9"/>
  </linearGradient>
  <path d="m47 24c0 22.703-.297 23-23 23-22.703 0-23-.297-23-23 0-22.703.297-23 23-23 22.703 0 23 .297 23 23z" fill="url(#a)"/>
  <g opacity=".1" transform="translate(1 1)">
    <path d="m17.656 25.297l-.652 4-1 6h4l1-6 .652-4m-4 0"/>
    <path d="m12.656 25.297l-.652 4h23.344l.656-4m-23.348 0"/>
    <path d="m28 11.297h4l-4 24h-4m4-24"/>
    <path d="m12.656 17.297l-.652 4h23.344l.656-4m-23.348 0"/>
    <path d="m20 11.297l-2.344 14h4l2.344-14m-4 0"/>
  </g>
  <path d="m17.656 25.297l-.652 4-1 6h4l1-6 .652-4m-4 0" fill="#3d7fe6"/>
  <path d="m12.656 25.297l-.652 4h23.344l.656-4m-23.348 0" fill="#0f8e52"/>
  <path d="m28 11.297h4l-4 24h-4m4-24" fill="#e3a400"/>
  <path d="m12.656 17.297l-.652 4h23.344l.656-4m-23.348 0" fill="#d74336"/>
  <path d="m20 11.297l-2.344 14h4l2.344-14m-4 0" fill="#3d7fe6"/>
</svg>
