<svg viewBox="0 0 48 48" xmlns="http://www.w3.org/2000/svg" xmlns:xlink="http://www.w3.org/1999/xlink">
  <linearGradient id="a" gradientTransform="matrix(0 -1 1 0 -.0000015 47.999998)" gradientUnits="userSpaceOnUse" x1="1" x2="47">
    <stop offset="0" stop-color="#9b437f"/>
    <stop offset="1" stop-color="#a84a8b"/>
  </linearGradient>
  <path d="m47 24c0 22.703-.297 23-23 23-22.703 0-23-.297-23-23 0-22.703.297-23 23-23 22.703 0 23 .297 23 23z" fill="url(#a)"/>
  <path d="m16.908 15c-.055 1.135-.102 2.275-.145 3.416-1.202.773-1.998 2.1-1.998 3.611 0 .38.062.747.156 1.098-1.765 1.163-2.922 3.143-2.922 5.389 0 3.594 2.961 6.486 6.639 6.486h12.723c3.678 0 6.639-2.893 6.639-6.486 0-2.87-1.896-5.289-4.529-6.148.071-.373.104-.755.104-1.148 0-.788-.156-1.54-.43-2.234.115-.834.239-1.653.355-2.492l-2.445-.221c-1.068-.793-2.397-1.27-3.842-1.27-2.463 0-4.595 1.379-5.652 3.379-.241-.149-.503-.268-.771-.371.096-.879.2-1.772.285-2.635l-4.166-.373z" opacity=".1"/>
  <g fill="#fff" transform="matrix(1.1660964 .1046825 -.07256344 .85104789 0 0)">
    <path d="m26.21 14c-2.463 0-4.596 1.378-5.653 3.378-.685-.425-1.496-.676-2.368-.676-2.444 0-4.426 1.936-4.426 4.324 0 .38.061.747.156 1.098-1.765 1.163-2.922 3.143-2.922 5.388 0 3.594 2.961 6.487 6.638 6.487h12.723c3.678 0 6.638-2.893 6.638-6.487 0-2.87-1.896-5.289-4.529-6.149.071-.373.104-.755.104-1.149 0-3.433-2.848-6.216-6.362-6.216" fill="#c587b1" transform="matrix(.85104789 -.1046825 .07256344 1.1660964 0 0)"/>
    <path d="m29.334 16.12c-.359 4.23-.522 8.512-.875 12.85-.674-2.364-1.478-4.783-2.072-7.229l-3.289-.295c-1.129 2.295-2.244 4.45-3.373 6.738.313-3.655.795-7.585 1.195-11.383-.128.188-.253.38-.359.582-.685-.425-1.497-.676-2.369-.676-.479 0-.933.093-1.365.23-.207 4.845-.304 9.742.025 14.697l3.729.336c1.257-2.321 2.511-4.618 3.912-7.01.873 2.453 1.619 5.01 2.594 7.598l3.727.334c.844-3.736 1.426-7.545 1.973-11.389-.106-.041-.205-.095-.314-.131.071-.373.104-.755.104-1.148 0-1.495-.541-2.867-1.441-3.939l-1.799-.162z" fill="#000" opacity=".1" transform="matrix(.85104789 -.1046825 .07256344 1.1660964 0 0)"/>
    <path d="m23.11 21.524c.683 2.79 1.542 5.525 2.288 8.211-.014-5.095-.186-10.11-.188-15.08h3.573c-.257 6.58-.456 13.03-1.097 19.4h-3.197c-1.018-2.916-1.837-5.818-2.758-8.587-1.018 2.94-1.919 5.75-2.821 8.587h-3.197c-.725-6.507-.987-12.991-1.16-19.4h3.573c-.05 4.966-.218 10.247-.219 15.08.794-2.786 1.588-5.417 2.382-8.211z" fill="#f9f9f9"/>
  </g>
</svg>
