<svg viewBox="0 0 48 48" xmlns="http://www.w3.org/2000/svg" xmlns:xlink="http://www.w3.org/1999/xlink">
  <linearGradient id="a" gradientTransform="matrix(0 -1 1 0 -.0000015 47.999998)" gradientUnits="userSpaceOnUse" x1="1" x2="47">
    <stop offset="0" stop-color="#55b155"/>
    <stop offset="1" stop-color="#63b763"/>
  </linearGradient>
  <path d="m47 24c0 22.703-.297 23-23 23-22.703 0-23-.297-23-23 0-22.703.297-23 23-23 22.703 0 23 .297 23 23z" fill="url(#a)"/>
  <path d="m25 12c-5.523 0-10 4.477-10 10 0 3.967 2.315 7.383 5.662 9h-4.063c-.924 0-1.604.623-1.604 1.57v3.43h20v-3.43c0-.949-.469-1.57-1.391-1.57h-4.268c3.347-1.617 5.662-5.03 5.662-9 0-5.523-4.477-10-10-10" opacity=".1" transform=""/>
  <path d="m15.6 30c-.926 0-1.604.621-1.604 1.57v3.43h20v-3.43c0-.949-.469-1.57-1.391-1.57h-17.01z" fill="#f9f9f9"/>
  <path d="m24 11c-5.523 0-10 4.477-10 10 0 5.523 4.477 10 10 10 5.523 0 10-4.477 10-10 0-5.523-4.477-10-10-10z" fill="#f9f9f9"/>
  <path d="m24 15c-3.312 0-6 2.687-6 6 0 3.312 2.687 6 6 6 3.316 0 6-2.687 6-6 0-3.312-2.684-6-6-6z" fill="#dcdcdc"/>
  <path d="m24 18c-1.656 0-3 1.344-3 3 0 1.656 1.344 3 3 3 1.656 0 3-1.344 3-3 0-1.656-1.344-3-3-3z" fill="#999"/>
</svg>
