<svg viewBox="0 0 48 48" xmlns="http://www.w3.org/2000/svg" xmlns:xlink="http://www.w3.org/1999/xlink">
  <linearGradient id="a" gradientTransform="matrix(0 -1 1 0 -.0000015 47.999998)" gradientUnits="userSpaceOnUse" x1="1" x2="47">
    <stop offset="0" stop-color="#3d454f"/>
    <stop offset="1" stop-color="#464f5a"/>
  </linearGradient>
  <path d="m47 24c0 22.703-.297 23-23 23-22.703 0-23-.297-23-23 0-22.703.297-23 23-23 22.703 0 23 .297 23 23z" fill="url(#a)"/>
  <path d="m25 11l-12 7v14l12 7 12-7v-14zm0 2.25l10 5.75v12l-10 5.75-10-5.75v-12m7 1c-1.657 0-3 1.343-3 3 0 3.3 4.3 5 6 8 1.7-3 6-4.7 6-8 0-1.657-1.343-3-3-3-1.657 0-3 1.343-3 3 0-1.657-1.343-3-3-3z" fill-rule="evenodd" opacity=".1"/>
  <path d="m24 10l-12 7v14l12 7 12-7v-14zm0 2.25l10 5.75v12l-10 5.75-10-5.75v-12m7 1c-1.657 0-3 1.343-3 3 0 3.3 4.3 5 6 8 1.7-3 6-4.7 6-8 0-1.657-1.343-3-3-3-1.657 0-3 1.343-3 3 0-1.657-1.343-3-3-3z" fill="#f15769" fill-rule="evenodd"/>
</svg>
