<svg viewBox="0 0 48 48" xmlns="http://www.w3.org/2000/svg" xmlns:xlink="http://www.w3.org/1999/xlink">
  <linearGradient id="a" gradientTransform="matrix(0 -1 1 0 -.0000015 47.999998)" gradientUnits="userSpaceOnUse" x1="1" x2="47">
    <stop offset="0" stop-color="#3d505b"/>
    <stop offset="1" stop-color="#455b68"/>
  </linearGradient>
  <path d="m47 24c0 22.703-.297 23-23 23-22.703 0-23-.297-23-23 0-22.703.297-23 23-23 22.703 0 23 .297 23 23z" fill="url(#a)"/>
  <path d="m24 11c-4 1.172-8 2.348-12 3.523.293 8.723 2.531 19.363 12 22.477 9.57-3.02 11.594-13.848 12-22.477-4-1.176-8-2.352-12-3.523m0 0" fill-rule="evenodd" opacity=".1" transform="translate(1 1)"/>
  <path d="m24 11c-4 1.172-8 2.348-12 3.523.293 8.723 2.531 19.363 12 22.477 9.57-3.02 11.594-13.848 12-22.477-4-1.176-8-2.352-12-3.523m0 0" fill="#f4d68e" fill-rule="evenodd"/>
  <path d="m26.754 27.82h-.004l.445-.367c-.184-.148-.52-.594-.746-1.059-.207-.051-.633-.188-.813-.344l-.367.25-.004.004-.371.242c.145.184.215.555.234.734.5.281.953.648 1.086.828l.527-.285v.004l.008-.004m.004-.004" fill="#2d2d2d" fill-rule="evenodd"/>
  <path d="m17.727 17.852c2.809 2.789 5.539 5.594 8.285 8.402.047.34.539.723.867 1.043l-.777.523c-.367-.344-.629-.789-1.055-.887-2.75-2.785-5.508-5.57-8.223-8.41-.73-.801-1.215-1.684-1.824-2.523.91.617 1.902 1.09 2.727 1.852m0 0" fill="#2d2d2d" fill-rule="evenodd"/>
  <path d="m29.82 30.04c-.043-.031-.082-.012-.141-.082-.773-.691-1.402-1.309-2.055-2.02-.039-.047-.09-.109-.098-.176l-.5.32-.484.336c.078.023.145.078.191.117.691.68 1.285 1.32 1.941 2.09.063.066.035.094.063.133l.531-.367m.547-.355" fill="#2d2d2d" fill-rule="evenodd"/>
  <path d="m27.05 28.1l.488-.332c0 0-.152-.055-.125-.129.023-.074.453-.34.602-.426-.031-.066-.137-.152-.211-.203-.285.215-.895.012-1.266.352.008-.117-.109-.281-.293-.344.051.164.145.383.129.418-.047.008-.262-.125-.441-.199.031.16.199.289.34.309-.477.23-.367.766-.68.953.043.07.129.176.195.211.133-.102.535-.391.629-.395.09-.008.117.109.117.109 0 0 .516-.324.516-.324m0 0" fill="#2d2d2d" fill-rule="evenodd"/>
  <path d="m29.797 30.03c.031.043 0 .07.066.133.277.27.543.211.98.641.617.637-.746 1.617-1.398 1-.473-.457-.332-.715-.582-.973-.063-.07-.102-.047-.145-.078l.547-.355m.531-.371" fill="#2d2d2d" fill-rule="evenodd"/>
  <path d="m20.223 26.797l.414.391c.141-.18.59-.527 1.07-.77.043-.195.16-.602.316-.785l-.285-.328-.004-.004-.281-.332c-.184.152-.57.242-.762.27-.266.488-.629.938-.813 1.074l.332.477.008.008m.004 0" fill="#2d2d2d" fill-rule="evenodd"/>
  <path d="m30.21 17.68c-2.777 2.813-5.574 5.559-8.379 8.32-.355.07-.73.555-1.051.883l-.594-.695c.336-.363.793-.641.871-1.047 2.77-2.762 5.551-5.531 8.387-8.266.805-.738 1.707-1.25 2.559-1.875-.602.895-1.039 1.859-1.793 2.684m0-.004" fill="#2d2d2d" fill-rule="evenodd"/>
  <path d="m18.06 29.82c.027-.039.008-.074.078-.141.688-.766 1.301-1.398 2-2.059.051-.035.109-.086.18-.102l-.371-.445-.379-.434c-.02.078-.074.141-.113.188-.676.695-1.313 1.293-2.09 1.957-.063.066-.098.039-.137.066l.422.477.406.488m0 .004" fill="#2d2d2d" fill-rule="evenodd"/>
  <path d="m19.945 27.09l.379.441c0 0 .051-.148.129-.129.078.016.387.402.484.535.063-.031.152-.137.199-.211-.242-.254-.066-.84-.445-1.164.129 0 .293-.121.348-.293-.168.055-.395.16-.43.145-.008-.043.117-.25.184-.426-.168.039-.297.203-.309.34-.27-.43-.824-.297-1.043-.578-.074.047-.18.137-.215.195.113.121.445.48.457.566.012.086-.109.117-.109.117 0 0 .371.461.371.461m0 0" fill="#2d2d2d" fill-rule="evenodd"/>
  <path d="m18.07 29.797c-.039.031-.07.004-.133.074-.27.273-.195.523-.617.957-.637.625-1.75-.59-1.141-1.242.453-.477.738-.359.988-.613.07-.063.047-.098.078-.137l.406.488m.418.473" fill="#2d2d2d" fill-rule="evenodd"/>
</svg>
