<svg viewBox="0 0 48 48" xmlns="http://www.w3.org/2000/svg" xmlns:xlink="http://www.w3.org/1999/xlink">
  <linearGradient id="a" gradientUnits="userSpaceOnUse" x2="0" y1="47" y2="1">
    <stop offset="0" stop-color="#67ac5e"/>
    <stop offset="1" stop-color="#74b36b"/>
  </linearGradient>
  <path d="m24 1c22.703 0 23 .297 23 23 0 22.703-.297 23-23 23-22.703 0-23-.297-23-23 0-22.703.297-23 23-23z" fill="url(#a)"/>
  <path d="m25 11c-7.72 0-14 6.28-14 14v .002c.006 2.313.634 4.567 1.73 6.598l-1.527 6.865 6.701-1.482c2.152 1.277 4.585 2.01 7.094 2.02h.002c7.72 0 14-6.28 14-14 0-7.72-6.28-14-14-14m-7 11a3 3 0 0 1 3 3 3 3 0 0 1-3 3 3 3 0 0 1-3-3 3 3 0 0 1  3-3zm7 0a3 3 0 0 1 3 3 3 3 0 0 1-3 3 3 3 0 0 1-3-3 3 3 0 0 1  3-3zm7 0a3 3 0 0 1 3 3 3 3 0 0 1-3 3 3 3 0 0 1-3-3 3 3 0 0 1  3-3z" opacity=".1"/>
  <path d="m24 10c-7.72 0-14 6.28-14 14v .002c.006 2.313.634 4.567 1.73 6.598l-1.527 6.865 6.701-1.482c2.152 1.277 4.585 2.01 7.094 2.02h.002c7.72 0 14-6.28 14-14 0-7.72-6.28-14-14-14zm-7 11a3 3 0 0 1 3 3 3 3 0 0 1-3 3 3 3 0 0 1-3-3 3 3 0 0 1  3-3zm7 0a3 3 0 0 1 3 3 3 3 0 0 1-3 3 3 3 0 0 1-3-3 3 3 0 0 1  3-3zm7 0a3 3 0 0 1 3 3 3 3 0 0 1-3 3 3 3 0 0 1-3-3 3 3 0 0 1  3-3z" fill="#f9f9f9"/>
</svg>
