<svg xmlns="http://www.w3.org/2000/svg" viewBox="0 0 48 48">
 <defs>
  <linearGradient id="linearGradient3764" y1="47" x2="0" y2="1" gradientUnits="userSpaceOnUse">
   <stop style="stop-color:#67ac5e;stop-opacity:1"/>
   <stop offset="1" style="stop-color:#74b36b;stop-opacity:1"/>
  </linearGradient>
 </defs>
 
 
 
 <path d="M 24,1 C 46.703,1 47,1.297 47,24 47,46.703 46.703,47 24,47 1.297,47 1,46.703 1,24 1,1.297 1.297,1 24,1 Z" style="fill:url(#linearGradient3764);fill-opacity:1"/>
 
 <path d="m 25 11 c -7.72 0 -14 6.28 -14 14 l 0 0.002 c 0.006 2.313 0.634 4.567 1.73 6.598 l -1.527 6.865 6.701 -1.482 c 2.152 1.277 4.585 2.01 7.094 2.02 l 0.002 0 c 7.72 0 14 -6.28 14 -14 0 -7.72 -6.28 -14 -14 -14 m -7 11 a 3 3 0 0 1 3 3 3 3 0 0 1 -3 3 3 3 0 0 1 -3 -3 3 3 0 0 1 3 -3 z m 7 0 a 3 3 0 0 1 3 3 3 3 0 0 1 -3 3 3 3 0 0 1 -3 -3 3 3 0 0 1 3 -3 z m 7 0 a 3 3 0 0 1 3 3 3 3 0 0 1 -3 3 3 3 0 0 1 -3 -3 3 3 0 0 1 3 -3 z" style="fill:#000;opacity:0.1;fill-opacity:1;stroke:none"/>
 <path d="m 24 10 c -7.72 0 -14 6.28 -14 14 l 0 0.002 c 0.006 2.313 0.634 4.567 1.73 6.598 l -1.527 6.865 l 6.701 -1.482 c 2.152 1.277 4.585 2.01 7.094 2.02 l 0.002 0 c 7.72 0 14 -6.28 14 -14 c 0 -7.72 -6.28 -14 -14 -14 z m -7 11 a 3 3 0 0 1 3 3 a 3 3 0 0 1 -3 3 a 3 3 0 0 1 -3 -3 a 3 3 0 0 1 3 -3 z m 7 0 a 3 3 0 0 1 3 3 a 3 3 0 0 1 -3 3 a 3 3 0 0 1 -3 -3 a 3 3 0 0 1 3 -3 z m 7 0 a 3 3 0 0 1 3 3 a 3 3 0 0 1 -3 3 a 3 3 0 0 1 -3 -3 a 3 3 0 0 1 3 -3 z" style="fill:#f9f9f9;opacity:1;fill-opacity:1;stroke:none"/>
</svg>
