<svg viewBox="0 0 48 48" xmlns="http://www.w3.org/2000/svg" xmlns:xlink="http://www.w3.org/1999/xlink">
  <linearGradient id="a" gradientTransform="matrix(0 -1 1 0 -.0000015 47.999998)" gradientUnits="userSpaceOnUse" x1="1" x2="47">
    <stop offset="0" stop-color="#e4e4e4"/>
    <stop offset="1" stop-color="#eee"/>
  </linearGradient>
  <path d="m47 24c0 22.703-.297 23-23 23-22.703 0-23-.297-23-23 0-22.703.297-23 23-23 22.703 0 23 .297 23 23z" fill="url(#a)"/>
  <path d="m23.07 5.256c-.004 0-.019.039-.031.086-.046.18-.242.852-.398 1.34-.547 1.727-1.168 3.289-1.762 4.426-.36.676-.641 1.117-1.02 1.574-.191.219-.23.281-.273.367-.067.133-.031.192.121.172.137-.015.477-.128 1.301-.441.723-.269.828-.308.828-.285 0 .039.16.617.238.836.555 1.692 1.445 2.897 2.789 3.799.575.383 1.122.658 2.145 1.076 1.5.613 1.785.746 2.258 1.039.207.132.477.332.477.355-.258.268-.785.805-.785.805l-.902-.871-.91 3.277 3.314-.879-.863-.902c0 0 .774-.801.797-.801.024 0 .227.238.422.492.969 1.247 1.582 2.753 1.742 4.313.046.426.046.48.023.492-.031.027-1.129-.004-1.129-.004v-1.246l-3 1.703 3 1.719v-1.262h1.141v.137c-.016.304-.093.871-.188 1.281-.265 1.226-.804 2.383-1.566 3.371-.141.18-.399.492-.43.512-.02.015-.813-.801-.813-.801l.859-.906-3.305-.887.891 3.305.914-.859c0 0 .809.778.793.805-.012.027-.332.301-.547.461-.973.746-2.121 1.277-3.336 1.547-.402.086-.976.169-1.273.189l-.148.004v-1.145h1.262l-1.711-3.01-1.711 3.01h1.268v1.145l-.148-.004c-.293-.02-.867-.103-1.273-.189-1.215-.27-2.36-.801-3.34-1.547-.211-.16-.535-.434-.543-.461-.012-.028.793-.805.793-.805l.914.859.895-3.305-3.309.887.863.906c0 0-.793.817-.816.801-.032-.024-.289-.332-.43-.512-.754-.988-1.297-2.141-1.57-3.371-.09-.41-.168-.968-.18-1.281l-.004-.137h1.15v1.262l2.984-1.719-2.984-1.703v1.246c0 0-1.108.027-1.143.004-.02-.012-.02-.066.023-.492.164-1.551.777-3.067 1.746-4.313.192-.254.399-.492.422-.492.02 0 .797.801.797.801l-.869.902 3.324.879-.91-3.277-.902.871-3.211-3.188c-.039 0-.676.648-.922.938-1.91 2.239-2.914 4.948-2.91 7.854 0 2.852 1.027 5.625 2.859 7.77 2.223 2.59 5.348 4.098 8.758 4.219l-.01-.004c.938.031 1.992-.067 2.926-.266 1.75-.379 3.377-1.14 4.807-2.242 2.535-1.955 4.197-4.887 4.572-8.06.425-3.649-.793-7.237-3.352-9.846-1.06-.962-2.323-1.808-3.828-2.332-1.438-.574-2-.873-2.473-1.322-.469-.445-.816-1.07-1.043-1.875-.059-.215-.059-.211.078-.199.148.016.441.078.582.129.355.125.543.246.914.605.234.223.312.275.359.244.156-.102-.469-1.387-1.875-3.848-.687-1.207-2.176-3.727-2.203-3.727zm.932 16.744a4 4 0 0 0-4 4 4 4 0 0 0  4 4 4 4 0 0 0  4-4 4 4 0 0 0-4-4z" opacity=".1" transform="translate(1.0039179 1.0021546)"/>
  <path d="m23.613 37.996c-3.41-.121-6.535-1.629-8.758-4.219-1.832-2.145-2.859-4.918-2.859-7.77-.004-2.906 1-5.613 2.91-7.852.246-.289.883-.938.922-.938l3.211 3.188.903-.871.91 3.277-3.324-.879.868-.902c0 0-.777-.801-.797-.801-.023 0-.23.238-.422.492-.969 1.246-1.582 2.762-1.746 4.313-.043.426-.043.48-.023.492.035.023 1.142-.004 1.142-.004v-1.246l2.986 1.703-2.986 1.719v-1.262h-1.15l.004.137c.012.313.09.871.18 1.281.273 1.23.816 2.383 1.57 3.371.141.18.398.488.43.512.023.016.816-.801.816-.801l-.863-.906 3.309-.887-.895 3.305-.914-.86c0 0-.805.777-.793.805.008.027.332.301.543.461.98.746 2.125 1.277 3.34 1.547.406.086.98.168 1.273.188l.148.004v-1.143h-1.266l1.711-3.01 1.711 3.01h-1.262v1.143l.148-.004c.297-.02.871-.102 1.273-.188 1.215-.27 2.363-.801 3.336-1.547.215-.16.535-.434.547-.461.016-.027-.793-.805-.793-.805l-.914.86-.891-3.305 3.305.887-.86.906c0 0 .793.816.813.801.031-.02.289-.332.43-.512.762-.988 1.301-2.145 1.566-3.371.094-.41.172-.977.188-1.281v-.137h-1.14v1.262l-3-1.719 3-1.703v1.246c0 0 1.097.031 1.128.004.023-.012.023-.066-.023-.492-.16-1.559-.773-3.066-1.742-4.313-.195-.254-.398-.492-.422-.492-.023 0-.797.801-.797.801l.864.902-3.316.879.91-3.277.903.871c0 0 .528-.537.786-.805 0-.023-.27-.223-.477-.355-.473-.293-.758-.426-2.258-1.039-1.023-.418-1.57-.695-2.145-1.078-1.344-.902-2.234-2.105-2.789-3.797-.078-.219-.238-.797-.238-.836 0-.023-.105.016-.828.285-.824.313-1.164.426-1.301.441-.152.02-.188-.039-.121-.172.043-.086.082-.148.273-.367.379-.457.66-.898 1.02-1.574.594-1.137 1.215-2.699 1.762-4.426.156-.488.352-1.16.398-1.34.012-.047.027-.086.031-.086.027 0 1.516 2.52 2.203 3.727 1.406 2.461 2.031 3.746 1.875 3.848-.047.031-.125-.023-.359-.246-.371-.359-.559-.48-.914-.605-.141-.051-.434-.113-.582-.129-.137-.012-.137-.016-.078.199.227.805.574 1.43 1.043 1.875.469.449 1.035.75 2.473 1.324 1.505.524 2.768 1.37 3.828 2.332 2.559 2.609 3.777 6.195 3.352 9.844-.375 3.172-2.039 6.105-4.574 8.06-1.43 1.102-3.055 1.863-4.805 2.242-.934.199-1.988.297-2.926.266" fill="#2d2d2d"/>
  <circle cx="24" cy="26" fill="#2d2d2d" r="4"/>
</svg>
