<svg xmlns="http://www.w3.org/2000/svg" viewBox="0 0 48 48">
 <path d="M 24 1 C 1.297 1 1 1.297 1 24 L 24 24 L 24 1 z " style="fill:#f15119;fill-opacity:1;stroke:none;fill-rule:evenodd"/>
 <path d="M 24 1 L 24 24 L 47 24 C 47 1.297 46.703 1 24 1 z " style="fill:#7fcc28;fill-opacity:1;stroke:none;fill-rule:evenodd"/>
 <path d="m 24 24 l 0 23 c 22.703 0 23 -1.297 23 -23 l -23 0 z" style="fill:#fbb909;fill-opacity:1;stroke:none;fill-rule:evenodd"/>
 <path d="m 1 24 c 0 22.703 1.297 23 23 23 l 0 -23 l -23 0 z" style="fill:#00abec;fill-opacity:1;stroke:none;fill-rule:evenodd"/>
 <path d="m 33.395 13.01 c -0.961 0.02 -1.91 0.648 -2.063 1.844 -0.242 1.902 1.578 1.188 3.03 1.188 1.453 0 1.941 3.09 1.574 4.754 -0.363 1.664 -4.227 5.59 -12.969 1.664 -7.195 -3.234 -10.789 1.07 -10.977 1.156 0.688 6.426 6.234 13.391 12.977 13.391 7.188 0 13.03 -7.68 13.03 -14.73 0 -0.809 -0.094 -1.609 -0.242 -2.375 -0.133 -0.391 -0.266 -0.777 -0.363 -1.129 -0.176 -0.633 -0.375 -1.168 -0.547 -1.664 -0.008 -0.016 0.008 -0.043 0 -0.059 -0.688 -1.5 -1.652 -2.852 -2.848 -3.98 -0.004 -0.012 -0.027 0.008 -0.031 0 -0.188 -0.047 -0.383 -0.063 -0.574 -0.063 m 0 0.004" style="fill:#000;opacity:0.1;fill-opacity:1;stroke:none;fill-rule:nonzero"/>
 <path d="m 31.395 17.527 c 0 0.395 -0.328 0.715 -0.727 0.715 -0.402 0 -0.73 -0.32 -0.73 -0.715 0 -0.391 0.328 -0.711 0.73 -0.711 0.398 0 0.727 0.32 0.727 0.711 m 0 0" style="fill:#000;opacity:0.1;fill-opacity:1;stroke:none;fill-rule:nonzero"/>
 <path d="m 29.938 14.945 c 0 0.277 -0.23 0.504 -0.516 0.504 -0.285 0 -0.516 -0.227 -0.516 -0.504 0 -0.281 0.23 -0.508 0.516 -0.508 0.285 0 0.516 0.227 0.516 0.508 m 0 0" style="fill:#000;opacity:0.1;fill-opacity:1;stroke:none;fill-rule:nonzero"/>
 <path d="m 32.395 12.01 c -0.961 0.02 -1.91 0.648 -2.063 1.844 -0.242 1.902 1.578 1.188 3.03 1.188 1.453 0 1.941 3.09 1.574 4.754 -0.363 1.664 -4.227 5.59 -12.969 1.664 -7.195 -3.234 -10.789 1.07 -10.977 1.156 0.688 6.426 6.234 13.391 12.977 13.391 7.188 0 13.03 -7.68 13.03 -14.73 0 -0.809 -0.094 -1.609 -0.242 -2.375 -0.133 -0.391 -0.266 -0.777 -0.363 -1.129 -0.176 -0.633 -0.375 -1.168 -0.547 -1.664 -0.008 -0.016 0.008 -0.043 0 -0.059 -0.688 -1.5 -1.652 -2.852 -2.848 -3.98 -0.004 -0.012 -0.027 0.008 -0.031 0 -0.188 -0.047 -0.383 -0.063 -0.574 -0.063 m 0 0.004" style="fill:#8e0317;fill-opacity:1;stroke:none;fill-rule:nonzero"/>
 <path d="m 30.395 16.527 c 0 0.395 -0.328 0.715 -0.727 0.715 -0.402 0 -0.73 -0.32 -0.73 -0.715 0 -0.391 0.328 -0.711 0.73 -0.711 0.398 0 0.727 0.32 0.727 0.711 m 0 0" style="fill:#8e0317;fill-opacity:1;stroke:none;fill-rule:nonzero"/>
 <path d="m 28.938 13.945 c 0 0.277 -0.23 0.504 -0.516 0.504 -0.285 0 -0.516 -0.227 -0.516 -0.504 0 -0.281 0.23 -0.508 0.516 -0.508 0.285 0 0.516 0.227 0.516 0.508 m 0 0" style="fill:#8e0317;fill-opacity:1;stroke:none;fill-rule:nonzero"/>
</svg>
