<svg viewBox="0 0 48 48" xmlns="http://www.w3.org/2000/svg">
  <path d="m24 1c-22.703 0-23 .297-23 23h23z" fill="#f15119" fill-rule="evenodd"/>
  <path d="m24 1v23h23c0-22.703-.297-23-23-23z" fill="#7fcc28" fill-rule="evenodd"/>
  <path d="m1 24c0 22.703.297 23 23 23v-23z" fill="#00abec" fill-rule="evenodd"/>
  <path d="m24 24v23c22.703 0 23-.297 23-23z" fill="#fbb909" fill-rule="evenodd"/>
  <path d="m27.5 33.5c0 .828-1.117 1.5-2.5 1.5-1.383 0-2.5-.672-2.5-1.5 0-.828 1.117-1.5 2.5-1.5 1.383 0 2.5.672 2.5 1.5m0 0" opacity=".1"/>
  <path d="m22 26.5c0 .828-1.117 1.5-2.5 1.5-1.383 0-2.5-.672-2.5-1.5 0-.828 1.117-1.5 2.5-1.5 1.383 0 2.5.672 2.5 1.5m0 0" opacity=".1"/>
  <path d="m33 26.5c0 .828-1.117 1.5-2.5 1.5-1.383 0-2.5-.672-2.5-1.5 0-.828 1.117-1.5 2.5-1.5 1.383 0 2.5.672 2.5 1.5m0 0" opacity=".1"/>
  <path d="m33.392 12.996l.002.004c-.961.016-1.91.656-2.063 1.844-.242 1.902 1.577 1.188 3.03 1.188 1.453 0 1.941 3.09 1.574 4.754-.198.904-1.442 2.473-3.936 3.088v-1.873h-2v2.125c-1.152.024-2.476-.13-4-.561v-2.564h-2v1.869c-.341-.135-.676-.263-1.033-.424-7.195-3.234-10.789 1.074-10.977 1.16.426 3.983 2.722 8.171 6.01 10.781v1.613h2v-.301c1.248.665 2.592 1.097 4 1.236v.064h2v-.072c1.407-.145 2.753-.566 4-1.225v.297h2v-1.619c3.602-2.851 5.996-7.605 5.996-12.11 0-.809-.038-1.622-.24-2.375-.256-.955-.536-1.943-.91-2.793-.688-1.56-1.791-3.03-2.85-4.04-.182-.039-.429-.044-.604-.061zm-3.893 1c-.277 0-.5.224-.5.502 0 .274.224.498.5.498.277 0 .5-.224.5-.498 0-.278-.224-.502-.5-.502zm1 2.801c-.414 0-.752.321-.752.723 0 .402.338.727.752.727.411 0 .748-.325.748-.727 0-.402-.338-.723-.748-.723z" opacity=".1"/>
  <path d="m32.395 12c-.961.016-1.91.656-2.063 1.844-.242 1.902 1.578 1.188 3.03 1.188 1.453 0 1.941 3.09 1.574 4.754-.363 1.66-4.227 5.59-12.969 1.66-7.195-3.234-10.789 1.074-10.977 1.16.688 6.426 6.234 13.391 12.977 13.391 7.188 0 13.03-7.68 13.03-14.73 0-.809-.04-1.622-.242-2.375-.256-.955-.536-1.943-.91-2.793-.688-1.56-1.789-3.03-2.848-4.04-.182-.039-.431-.042-.605-.059" fill="#8e0317"/>
  <path d="m29.502 15.8c-.414 0-.752.321-.752.723 0 .402.338.727.752.727.411 0 .748-.325.748-.727 0-.402-.338-.723-.748-.723" fill="#8e0317"/>
  <path d="m29 13.502c0 .274-.223.498-.5.498-.276 0-.5-.224-.5-.498 0-.278.223-.502.5-.502.276 0 .5.224.5.502m0 0" fill="#8e0317"/>
  <path d="m23 20v16h2v-16m-2 0" fill="#f9f9f9"/>
  <path d="m24 31c-1.66 0-3 .672-3 1.5 0 .828 1.34 1.5 3 1.5 1.66 0 3-.672 3-1.5 0-.828-1.34-1.5-3-1.5" fill="#f9f9f9"/>
  <path d="m19 35v-14h-2v14m2 0" fill="#f9f9f9"/>
  <path d="m18 24c-1.66 0-3 .672-3 1.5 0 .828 1.34 1.5 3 1.5 1.66 0 3-.672 3-1.5 0-.828-1.34-1.5-3-1.5" fill="#f9f9f9"/>
  <path d="m31 35v-14h-2v14m2 0" fill="#f9f9f9"/>
  <path d="m30 24c-1.66 0-3 .672-3 1.5 0 .828 1.34 1.5 3 1.5 1.66 0 3-.672 3-1.5 0-.828-1.34-1.5-3-1.5" fill="#f9f9f9"/>
</svg>
