<svg viewBox="0 0 48 48" xmlns="http://www.w3.org/2000/svg">
  <path d="m1 24c0 22.703.297 23 23 23v-23z" fill="#00abec" fill-rule="evenodd"/>
  <path d="m24 1v23h23c0-22.703-.297-23-23-23z" fill="#7fcc28" fill-rule="evenodd"/>
  <path d="m24 24v23c22.703 0 23-.297 23-23z" fill="#fbb909" fill-rule="evenodd"/>
  <path d="m33.395 13c-.961.016-1.91.656-2.063 1.844-.242 1.902 1.578 1.188 3.03 1.188 1.453 0 1.941 3.09 1.574 4.754-.363 1.66-4.227 5.59-12.969 1.66-7.195-3.234-10.789 1.074-10.977 1.16.688 6.426 6.234 13.391 12.977 13.391 7.188 0 13.03-7.68 13.03-14.73 0-.809-.094-1.609-.242-2.375-.133-.391-.266-.777-.363-1.129-.176-.633-.375-1.168-.547-1.664-.008-.016.008-.043 0-.063-.688-1.5-1.652-2.852-2.848-3.98-.004-.008-.027.012-.031 0-.188-.043-.383-.063-.574-.059m0 .004" opacity=".1"/>
  <path d="m31.395 17.516c0 .395-.328.715-.727.715-.402 0-.73-.32-.73-.715 0-.395.328-.711.73-.711.398 0 .727.316.727.711m0 0" opacity=".1"/>
  <path d="m29.938 14.934c0 .277-.23.504-.516.504-.285 0-.516-.227-.516-.504 0-.281.23-.508.516-.508.285 0 .516.227.516.508m0 0" opacity=".1"/>
  <path d="m24 1c-22.703 0-23 .297-23 23h23z" fill="#f15119" fill-rule="evenodd"/>
  <path d="m12.785 12.781c-.68.676-1.125 1.336-.449 2.02l22.801 22.813c.676.676 1.516.406 2.195-.27.68-.676.953-1.512.277-2.188l-22.801-22.813c-.676-.68-1.344-.23-2.02.441m4.34 4.348c.348-.348.672-.559 1.02-.211l18.84 18.844c.348.348.074.613-.273.961-.344.348-.613.613-.957.27l-18.84-18.848c-.348-.348-.133-.668.215-1.016m-.004 0" opacity=".1"/>
  <path d="m18.5 25.805l-.813 2.43-2.438.813 2.438.809.813 2.434.813-2.434 2.438-.809-2.438-.813m-.813-2.43" opacity=".1"/>
  <path d="m32.719 12.438l-1.219 3.645-3.656 1.219 3.656 1.215 1.219 3.645 1.219-3.645 3.656-1.215-3.656-1.219m-1.219-3.645" opacity=".1"/>
  <path d="m22.563 12.03l-.813 2.43-2.438.813 2.438.809.813 2.434.809-2.434 2.438-.809-2.438-.813m-.809-2.43" opacity=".1"/>
  <path d="m32.395 12c-.961.016-1.91.656-2.063 1.844-.242 1.902 1.578 1.188 3.03 1.188 1.453 0 1.941 3.09 1.574 4.754-.363 1.66-4.227 5.59-12.969 1.66-7.195-3.234-10.789 1.074-10.977 1.16.688 6.426 6.234 13.391 12.977 13.391 7.188 0 13.03-7.68 13.03-14.73 0-.809-.094-1.609-.242-2.375-.133-.391-.266-.777-.363-1.129-.176-.633-.375-1.168-.547-1.664-.008-.016.008-.043 0-.063-.688-1.5-1.652-2.852-2.848-3.98-.004-.008-.027.012-.031 0-.188-.043-.383-.063-.574-.059m0 .004" fill="#8e0317"/>
  <path d="m30.395 16.516c0 .395-.328.715-.727.715-.402 0-.73-.32-.73-.715 0-.395.328-.711.73-.711.398 0 .727.316.727.711m0 0" fill="#8e0317"/>
  <path d="m28.938 13.934c0 .277-.23.504-.516.504-.285 0-.516-.227-.516-.504 0-.281.23-.508.516-.508.285 0 .516.227.516.508m0 0" fill="#8e0317"/>
  <path d="m11.785 11.781c-.68.676-1.125 1.336-.449 2.02l22.801 22.813c.676.676 1.516.406 2.195-.27.68-.676.953-1.512.277-2.188l-22.801-22.813c-.676-.68-1.344-.23-2.02.441m4.34 4.348c.348-.348.672-.559 1.02-.211l18.84 18.844c.348.348.074.613-.273.961-.344.348-.613.613-.957.27l-18.84-18.848c-.348-.348-.133-.668.215-1.016m-.004 0" fill="#f9f9f9"/>
  <path d="m17.5 24.805l-.813 2.43-2.438.813 2.438.809.813 2.434.813-2.434 2.438-.809-2.438-.813m-.813-2.43" fill="#f9f9f9"/>
  <path d="m31.719 11.438l-1.219 3.645-3.656 1.219 3.656 1.215 1.219 3.645 1.219-3.645 3.656-1.215-3.656-1.219m-1.219-3.645" fill="#f9f9f9"/>
  <path d="m21.563 11.03l-.813 2.43-2.438.813 2.438.809.813 2.434.809-2.434 2.438-.809-2.438-.813m-.809-2.43" fill="#f9f9f9"/>
</svg>
