<svg viewBox="0 0 48 48" xmlns="http://www.w3.org/2000/svg">
  <path d="m24 1c-22.703 0-23 .297-23 23h23z" fill="#f15119" fill-rule="evenodd"/>
  <path d="m24 1v23h23c0-22.703-.297-23-23-23z" fill="#7fcc28" fill-rule="evenodd"/>
  <path d="m24 24v23c22.703 0 23-.297 23-23z" fill="#fbb909" fill-rule="evenodd"/>
  <path d="m1 24c0 22.703.297 23 23 23v-23z" fill="#00abec" fill-rule="evenodd"/>
  <path d="m33.406 13c-.965.02-1.91.645-2.063 1.844-.242 1.898 1.575 1.188 3.03 1.188 1.457 0 1.922 3.09 1.563 4.75-.188.849-1.299 2.287-3.5 2.969l-2.75-2.75-2.781 2.781c-1.186-.266-2.49-.693-3.938-1.344-.669-.301-1.299-.508-1.906-.688l-.75-.75-.438.438c-5.123-.981-7.723 2.115-7.875 2.188.381 3.601 2.302 7.348 5.094 9.969l-.094.094 3.313 3.313.781-.781c1.227.501 2.522.781 3.875.781 1.372 0 2.695-.279 3.938-.781l.781.781 3.313-3.313-.094-.094c3.087-2.894 5.094-7.2 5.094-11.313 0-.813-.106-1.605-.25-2.375-.133-.387-.247-.769-.344-1.125-.18-.633-.391-1.192-.563-1.688-.008-.02.008-.043 0-.063-.688-1.5-1.652-2.844-2.844-3.969-.008-.012-.027.008-.031 0-.188-.047-.371-.063-.563-.063z" opacity=".1"/>
  <path d="m31.395 17.531c0 .391-.324.711-.727.711-.398 0-.727-.32-.727-.711 0-.395.328-.715.727-.715.402 0 .727.32.727.715m0 0" opacity=".1"/>
  <path d="m29.938 14.941c0 .281-.23.508-.512.508-.285 0-.516-.227-.516-.508 0-.277.23-.504.516-.504.281 0 .512.227.512.504m0 0" opacity=".1"/>
  <path d="m32.395 12.01c-.965.02-1.91.645-2.063 1.844-.242 1.898 1.574 1.188 3.03 1.188 1.457 0 1.938 3.09 1.578 4.75-.367 1.66-4.23 5.59-12.969 1.66-7.195-3.234-10.789 1.074-10.969 1.16.68 6.426 6.227 13.398 12.969 13.398 7.188 0 13.03-7.688 13.03-14.734 0-.813-.098-1.609-.242-2.379-.133-.387-.266-.773-.363-1.129-.18-.633-.375-1.164-.547-1.66-.008-.02.008-.043 0-.063-.688-1.5-1.656-2.855-2.848-3.98-.008-.012-.027.008-.031 0-.188-.047-.383-.063-.574-.063m.004.004" fill="#8e0317"/>
  <path d="m30.395 16.531c0 .391-.324.711-.727.711-.398 0-.727-.32-.727-.711 0-.395.328-.715.727-.715.402 0 .727.32.727.715m0 0" fill="#8e0317"/>
  <path d="m28.938 13.941c0 .281-.23.508-.512.508-.285 0-.516-.227-.516-.508 0-.277.23-.504.516-.504.281 0 .512.227.512.504m0 0" fill="#8e0317"/>
  <path d="m28.68 20l-4.68 4.68-4.684-4.68-3.32 3.32 4.684 4.68-4.684 4.68 3.32 3.32 4.684-4.68 4.68 4.68 3.32-3.32-4.68-4.68 4.68-4.68m-3.32-3.32" fill="#f9f9f9"/>
</svg>
