<svg viewBox="0 0 48 48" xmlns="http://www.w3.org/2000/svg">
  <path d="m24 1c-22.703 0-23 .297-23 23h23z" fill="#f15119" fill-rule="evenodd"/>
  <path d="m24 1v23h23c0-22.703-.297-23-23-23z" fill="#7fcc28" fill-rule="evenodd"/>
  <path d="m24 24v23c22.703 0 23-1.297 23-23z" fill="#fbb909" fill-rule="evenodd"/>
  <path d="m1 24c0 22.703 1.297 23 23 23v-23z" fill="#00abec" fill-rule="evenodd"/>
  <path d="m33.395 13.01c-.961.02-1.91.648-2.063 1.844-.242 1.902 1.578 1.188 3.03 1.188 1.453 0 1.941 3.09 1.574 4.754-.363 1.664-4.227 5.59-12.969 1.664-7.195-3.234-10.789 1.07-10.977 1.156.688 6.426 6.234 13.391 12.977 13.391 7.188 0 13.03-7.68 13.03-14.73 0-.809-.094-1.609-.242-2.375-.133-.391-.266-.777-.363-1.129-.176-.633-.375-1.168-.547-1.664-.008-.016.008-.043 0-.059-.688-1.5-1.652-2.852-2.848-3.98-.004-.012-.027.008-.031 0-.188-.047-.383-.063-.574-.063m0 .004" opacity=".1"/>
  <path d="m31.395 17.527c0 .395-.328.715-.727.715-.402 0-.73-.32-.73-.715 0-.391.328-.711.73-.711.398 0 .727.32.727.711m0 0" opacity=".1"/>
  <path d="m29.938 14.945c0 .277-.23.504-.516.504-.285 0-.516-.227-.516-.504 0-.281.23-.508.516-.508.285 0 .516.227.516.508m0 0" opacity=".1"/>
  <path d="m32.395 12.01c-.961.02-1.91.648-2.063 1.844-.242 1.902 1.578 1.188 3.03 1.188 1.453 0 1.941 3.09 1.574 4.754-.363 1.664-4.227 5.59-12.969 1.664-7.195-3.234-10.789 1.07-10.977 1.156.688 6.426 6.234 13.391 12.977 13.391 7.188 0 13.03-7.68 13.03-14.73 0-.809-.094-1.609-.242-2.375-.133-.391-.266-.777-.363-1.129-.176-.633-.375-1.168-.547-1.664-.008-.016.008-.043 0-.059-.688-1.5-1.652-2.852-2.848-3.98-.004-.012-.027.008-.031 0-.188-.047-.383-.063-.574-.063m0 .004" fill="#8e0317"/>
  <path d="m30.395 16.527c0 .395-.328.715-.727.715-.402 0-.73-.32-.73-.715 0-.391.328-.711.73-.711.398 0 .727.32.727.711m0 0" fill="#8e0317"/>
  <path d="m28.938 13.945c0 .277-.23.504-.516.504-.285 0-.516-.227-.516-.504 0-.281.23-.508.516-.508.285 0 .516.227.516.508m0 0" fill="#8e0317"/>
</svg>
