<svg xmlns="http://www.w3.org/2000/svg" viewBox="0 0 48 48">
 <path d="M 24 1 C 1.297 1 1 1.297 1 24 L 24 24 L 24 1 z " style="fill:#f15119;fill-opacity:1;stroke:none;fill-rule:evenodd"/>
 <path d="M 24 1 L 24 24 L 47 24 C 47 1.297 46.703 1 24 1 z " style="fill:#7fcc28;fill-opacity:1;stroke:none;fill-rule:evenodd"/>
 <path d="m 1 24 c 0 22.703 0.297 23 23 23 l 0 -23 l -23 0 z" style="fill:#00abec;fill-opacity:1;stroke:none;fill-rule:evenodd"/>
 <path d="m 24 24 l 0 23 c 22.703 0 23 -0.297 23 -23 l -23 0 z" style="fill:#fbb909;fill-opacity:1;stroke:none;fill-rule:evenodd"/>
 <path d="m 27.5 33.5 c 0 0.828 -1.117 1.5 -2.5 1.5 -1.383 0 -2.5 -0.672 -2.5 -1.5 0 -0.828 1.117 -1.5 2.5 -1.5 1.383 0 2.5 0.672 2.5 1.5 m 0 0" style="fill:#000;opacity:0.1;fill-opacity:1;stroke:none;fill-rule:nonzero"/>
 <path d="M 22,26.5 C 22,27.328 20.883,28 19.5,28 18.117,28 17,27.328 17,26.5 17,25.672 18.117,25 19.5,25 c 1.383,0 2.5,0.672 2.5,1.5 m 0,0" style="fill:#000;opacity:0.1;fill-opacity:1;stroke:none;fill-rule:nonzero"/>
 <path d="M 33,26.5 C 33,27.328 31.883,28 30.5,28 29.117,28 28,27.328 28,26.5 28,25.672 29.117,25 30.5,25 c 1.383,0 2.5,0.672 2.5,1.5 m 0,0" style="fill:#000;opacity:0.1;fill-opacity:1;stroke:none;fill-rule:nonzero"/>
 <path d="m 33.392 12.996 0.002 0.004 c -0.961 0.016 -1.91 0.656 -2.063 1.844 -0.242 1.902 1.577 1.188 3.03 1.188 1.453 0 1.941 3.09 1.574 4.754 -0.198 0.904 -1.442 2.473 -3.936 3.088 l 0 -1.873 -2 0 0 2.125 c -1.152 0.024 -2.476 -0.13 -4 -0.561 l 0 -2.564 -2 0 0 1.869 c -0.341 -0.135 -0.676 -0.263 -1.033 -0.424 -7.195 -3.234 -10.789 1.074 -10.977 1.16 c 0.426 3.983 2.722 8.171 6.01 10.781 l 0 1.613 2 0 0 -0.301 c 1.248 0.665 2.592 1.097 4 1.236 l 0 0.064 2 0 0 -0.072 c 1.407 -0.145 2.753 -0.566 4 -1.225 l 0 0.297 2 0 0 -1.619 c 3.602 -2.851 5.996 -7.605 5.996 -12.11 0 -0.809 -0.038 -1.622 -0.24 -2.375 -0.256 -0.955 -0.536 -1.943 -0.91 -2.793 -0.688 -1.56 -1.791 -3.03 -2.85 -4.04 -0.182 -0.039 -0.429 -0.044 -0.604 -0.061 z m -3.893 1 c -0.277 0 -0.5 0.224 -0.5 0.502 0 0.274 0.224 0.498 0.5 0.498 0.277 0 0.5 -0.224 0.5 -0.498 0 -0.278 -0.224 -0.502 -0.5 -0.502 z m 1 2.801 c -0.414 0 -0.752 0.321 -0.752 0.723 0 0.402 0.338 0.727 0.752 0.727 0.411 0 0.748 -0.325 0.748 -0.727 0 -0.402 -0.338 -0.723 -0.748 -0.723 z" style="fill:#000;opacity:0.1;fill-opacity:1;stroke:none;fill-rule:nonzero"/>
 <path d="m 32.395 12 c -0.961 0.016 -1.91 0.656 -2.063 1.844 -0.242 1.902 1.578 1.188 3.03 1.188 1.453 0 1.941 3.09 1.574 4.754 -0.363 1.66 -4.227 5.59 -12.969 1.66 -7.195 -3.234 -10.789 1.074 -10.977 1.16 0.688 6.426 6.234 13.391 12.977 13.391 7.188 0 13.03 -7.68 13.03 -14.73 0 -0.809 -0.04 -1.622 -0.242 -2.375 -0.256 -0.955 -0.536 -1.943 -0.91 -2.793 -0.688 -1.56 -1.789 -3.03 -2.848 -4.04 -0.182 -0.039 -0.431 -0.042 -0.605 -0.059" style="fill:#8e0317;fill-opacity:1;stroke:none;fill-rule:nonzero"/>
 <path d="m 29.502 15.8 c -0.414 0 -0.752 0.321 -0.752 0.723 0 0.402 0.338 0.727 0.752 0.727 0.411 0 0.748 -0.325 0.748 -0.727 0 -0.402 -0.338 -0.723 -0.748 -0.723" style="fill:#8e0317;fill-opacity:1;stroke:none;fill-rule:nonzero"/>
 <path d="m 29 13.502 c 0 0.274 -0.223 0.498 -0.5 0.498 -0.276 0 -0.5 -0.224 -0.5 -0.498 0 -0.278 0.223 -0.502 0.5 -0.502 c 0.276 0 0.5 0.224 0.5 0.502 m 0 0" style="fill:#8e0317;fill-opacity:1;stroke:none;fill-rule:nonzero"/>
 <path d="m 23 20 0 16 2 0 0 -16 m -2 0" style="fill:#f9f9f9;fill-opacity:1;stroke:none;fill-rule:nonzero"/>
 <path d="m 24 31 c -1.66 0 -3 0.672 -3 1.5 0 0.828 1.34 1.5 3 1.5 1.66 0 3 -0.672 3 -1.5 c 0 -0.828 -1.34 -1.5 -3 -1.5" style="fill:#f9f9f9;fill-opacity:1;stroke:none;fill-rule:nonzero"/>
 <path d="m 19 35 0 -14 -2 0 0 14 m 2 0" style="fill:#f9f9f9;fill-opacity:1;stroke:none;fill-rule:nonzero"/>
 <path d="m 18 24 c -1.66 0 -3 0.672 -3 1.5 0 0.828 1.34 1.5 3 1.5 1.66 0 3 -0.672 3 -1.5 c 0 -0.828 -1.34 -1.5 -3 -1.5" style="fill:#f9f9f9;fill-opacity:1;stroke:none;fill-rule:nonzero"/>
 <path d="m 31 35 0 -14 -2 0 0 14 m 2 0" style="fill:#f9f9f9;fill-opacity:1;stroke:none;fill-rule:nonzero"/>
 <path d="m 30 24 c -1.66 0 -3 0.672 -3 1.5 0 0.828 1.34 1.5 3 1.5 1.66 0 3 -0.672 3 -1.5 c 0 -0.828 -1.34 -1.5 -3 -1.5" style="fill:#f9f9f9;fill-opacity:1;stroke:none;fill-rule:nonzero"/>
 
</svg>
