<svg viewBox="0 0 48 48" xmlns="http://www.w3.org/2000/svg" xmlns:xlink="http://www.w3.org/1999/xlink">
  <linearGradient id="a" gradientTransform="matrix(0 -1 1 0 -.0000015 47.999998)" gradientUnits="userSpaceOnUse" x1="1" x2="47">
    <stop offset="0" stop-color="#e0412c"/>
    <stop offset="1" stop-color="#e2513d"/>
  </linearGradient>
  <path d="m47 24c0 22.703-.297 23-23 23-22.703 0-23-.297-23-23 0-22.703.297-23 23-23 22.703 0 23 .297 23 23z" fill="url(#a)"/>
  <path d="m12.984 12h22.04c.543 0 .98.516.98 1.148v21.703c0 .633-.438 1.148-.98 1.148h-22.04c-.543 0-.984-.516-.984-1.148v-21.703c0-.633.441-1.148.984-1.148m0 0" opacity=".1" transform="translate(1 1)"/>
  <path d="m36.004 15.9v18.951c0 .633-.438 1.148-.98 1.148h-22.04c-.543 0-.984-.516-.984-1.148v-18.951" fill="#dedede"/>
  <path d="m12.969 12c-.543 0-.969.52-.969 1.156v2.844h24v-2.844c0-.637-.426-1.156-.969-1.156m-22.06 0" fill="#2d2d2d"/>
</svg>
