<svg viewBox="0 0 48 48" xmlns="http://www.w3.org/2000/svg" xmlns:xlink="http://www.w3.org/1999/xlink">
  <linearGradient id="a" gradientTransform="matrix(0 -1 1 0 -.0000015 47.999998)" gradientUnits="userSpaceOnUse" x1="1" x2="47">
    <stop offset="0" stop-color="#2788bb"/>
    <stop offset="1" stop-color="#2b94cb"/>
  </linearGradient>
  <path d="m47 24c0 22.703-.297 23-23 23-22.703 0-23-.297-23-23 0-22.703.297-23 23-23 22.703 0 23 .297 23 23z" fill="url(#a)"/>
  <path d="m34.656 12.969c-9.316.141-14.531 5.453-17.281 10.625-2.516 4.734-2.895 8.648-2.969 9.406h-11.578c.291.685.615 1.351.969 2h11.391c.285 0 .563-.129.75-.344.105-.125.184-.276.219-.438.004-.043.004-.086 0-.125 0 0 .469-4.738 3-9.5 2.363-4.441 6.564-8.734 14.06-9.406-4.461 8.93.223 19.25.223 19.25.035.043.078.086.125.125.172.254.469.422.777.438h9.861c.354-.649.677-1.315.969-2h-10.08c-.383-.855-4.695-10.719.473-18.5.133-.234.168-.523.094-.781-.035-.16-.113-.313-.219-.438-.199-.211-.492-.328-.781-.313h-.002z" opacity=".1"/>
  <path d="m33.656 11.969c-9.316.141-14.531 5.453-17.281 10.625-2.516 4.734-2.895 8.648-2.969 9.406h-10.975c.253.683.537 1.35.852 2h10.904c.285 0 .563-.129.75-.344.105-.125.184-.276.219-.438.004-.043.004-.086 0-.125 0 0 .469-4.738 3-9.5 2.363-4.441 6.564-8.734 14.06-9.406-4.461 8.93.223 19.25.223 19.25.035.043.078.086.125.125.172.254.469.422.777.438h11.375c.315-.65.598-1.317.852-2h-11.477c-.383-.855-4.695-10.719.473-18.5.133-.234.168-.523.094-.781-.035-.16-.113-.313-.219-.438-.199-.211-.492-.328-.781-.313h-.002z" fill="#19536f"/>
</svg>
