<svg xmlns="http://www.w3.org/2000/svg" viewBox="0 0 48 48">
 <defs>
  <linearGradient id="linearGradient3764" x1="1" x2="47" gradientUnits="userSpaceOnUse" gradientTransform="matrix(0,-1,1,0,-1.5e-6,47.999998)">
   <stop style="stop-color:#494953;stop-opacity:1"/>
   <stop offset="1" style="stop-color:#52525d;stop-opacity:1"/>
  </linearGradient>
 </defs>
 <g>
  
  
  
 </g>
 <g>
  <path d="m 47,24 C 47,46.703 46.703,47 24,47 1.297,47 1,46.703 1,24 1,1.297 1.297,1 24,1 46.703,1 47,1.297 47,24 z" style="fill:url(#linearGradient3764);fill-opacity:1"/>
 </g>
 <g>
  <g>
   <g transform="translate(1,1)">
    <g style="opacity:0.1">
     <!-- color: #52525d -->
     <g>
      <path d="m 12.809 13 c -0.438 0.047 -0.809 0.48 -0.805 0.941 l 0 20.12 c 0 0.492 0.43 0.941 0.898 0.941 l 22.2 0 c 0.469 0 0.898 -0.449 0.898 -0.941 l 0 -20.12 c 0 -0.492 -0.43 -0.941 -0.898 -0.941 l -22.2 0 c -0.031 0 -0.063 0 -0.094 0 m 19.2 1.215 c 0.332 0 0.75 0.438 0.75 0.785 c 0 0.348 -0.418 0.785 -0.75 0.785 c -0.332 0 -0.75 -0.438 -0.75 -0.785 c 0 -0.348 0.418 -0.785 0.75 -0.785 m -18 2.703 l 20 0 l 0 16.484 l -20 0 m 0 -16.484" style="fill:#000;fill-opacity:1;stroke:none;fill-rule:nonzero"/>
      <path d="m 21.52 21.52 c -2.48 0 -4.5 2.02 -4.5 4.5 c 0 2.48 2.02 4.5 4.5 4.5 c 0.741 0 1.431 -0.197 2.049 -0.516 l 6.545 0 c 1.59 0 2.883 -1.293 2.883 -2.887 l 0 -2.23 c 0 -1.594 -1.293 -2.887 -2.883 -2.887 l -6.611 0 c -0.6 -0.297 -1.268 -0.48 -1.982 -0.48 z" transform="translate(-1,-1)"/>
     </g>
    </g>
   </g>
  </g>
 </g>
 <g transform="translate(3.2046879e-5,0)">
  <g>
   <!-- color: #52525d -->
   <g>
    <path d="M 12.809,13 C 12.371,13.047 12,13.48 12.004,13.941 l 0,20.12 c 0,0.492 0.43,0.941 0.898,0.941 l 22.2,0 c 0.469,0 0.898,-0.449 0.898,-0.941 l 0,-20.12 C 36,13.449 35.57,13 35.102,13 l -22.2,0 c -0.031,0 -0.063,0 -0.094,0 m 19.2,1.215 c 0.332,0 0.75,0.438 0.75,0.785 0,0.348 -0.418,0.785 -0.75,0.785 -0.332,0 -0.75,-0.438 -0.75,-0.785 0,-0.348 0.418,-0.785 0.75,-0.785 m -18,2.703 20,0 0,16.484 -20,0 m 0,-16.484" style="fill:#dedede;fill-opacity:1;stroke:none;fill-rule:nonzero"/>
    <path d="m 21.551,21 7.563,0 c 1.59,0 2.883,1.293 2.883,2.887 l 0,2.23 c 0,1.594 -1.293,2.887 -2.883,2.887 l -7.563,0 c -1.594,0 -2.883,-1.293 -2.883,-2.887 l 0,-2.23 C 18.668,22.293 19.957,21 21.551,21 m 0,0" style="fill:#f9f9f9;fill-opacity:1;stroke:none;fill-rule:nonzero"/>
    <path d="m 25.02 25.02 c 0 2.484 -2.02 4.5 -4.5 4.5 -2.484 0 -4.5 -2.02 -4.5 -4.5 0 -2.484 2.02 -4.5 4.5 -4.5 2.484 0 4.5 2.02 4.5 4.5 m 0 0" style="fill:#5bceb9;fill-opacity:1;stroke:none;fill-rule:nonzero"/>
    <path d="m 23 25.02 c -0.051 1.344 -1.156 2.406 -2.5 2.406 -1.344 0 -2.449 -1.063 -2.5 -2.406 -0.035 -0.914 0.434 -1.777 1.223 -2.246 0.785 -0.465 1.766 -0.465 2.555 0 0.789 0.469 1.258 1.332 1.223 2.246 m 0 0" style="fill:#177868;fill-opacity:1;stroke:none;fill-rule:nonzero"/>
   </g>
  </g>
 </g>
 <g>
  
 </g>
</svg>
