<svg viewBox="0 0 48 48" xmlns="http://www.w3.org/2000/svg" xmlns:xlink="http://www.w3.org/1999/xlink">
  <linearGradient id="a" gradientTransform="matrix(0 -1 1 0 -.0000015 47.999998)" gradientUnits="userSpaceOnUse" x1="1" x2="47">
    <stop offset="0" stop-color="#494953"/>
    <stop offset="1" stop-color="#52525d"/>
  </linearGradient>
  <path d="m47 24c0 22.703-.297 23-23 23-22.703 0-23-.297-23-23 0-22.703.297-23 23-23 22.703 0 23 .297 23 23z" fill="url(#a)"/>
  <g opacity=".1" transform="translate(1 1)">
    <path d="m12.809 13c-.438.047-.809.48-.805.941v20.12c0 .492.43.941.898.941h22.2c.469 0 .898-.449.898-.941v-20.12c0-.492-.43-.941-.898-.941h-22.2c-.031 0-.063 0-.094 0m19.2 1.215c.332 0 .75.438.75.785 0 .348-.418.785-.75.785-.332 0-.75-.438-.75-.785 0-.348.418-.785.75-.785m-18 2.703h20v16.484h-20m0-16.484"/>
    <path d="m21.52 21.52c-2.48 0-4.5 2.02-4.5 4.5 0 2.48 2.02 4.5 4.5 4.5.741 0 1.431-.197 2.049-.516h6.545c1.59 0 2.883-1.293 2.883-2.887v-2.23c0-1.594-1.293-2.887-2.883-2.887h-6.611c-.6-.297-1.268-.48-1.982-.48z" transform="translate(-1 -1)"/>
  </g>
  <g transform="translate(.00003205)">
    <path d="m12.809 13c-.438.047-.809.48-.805.941v20.12c0 .492.43.941.898.941h22.2c.469 0 .898-.449.898-.941v-20.12c0-.492-.43-.941-.898-.941h-22.2c-.031 0-.063 0-.094 0m19.2 1.215c.332 0 .75.438.75.785 0 .348-.418.785-.75.785-.332 0-.75-.438-.75-.785 0-.348.418-.785.75-.785m-18 2.703h20v16.484h-20m0-16.484" fill="#dedede"/>
    <path d="m21.551 21h7.563c1.59 0 2.883 1.293 2.883 2.887v2.23c0 1.594-1.293 2.887-2.883 2.887h-7.563c-1.594 0-2.883-1.293-2.883-2.887v-2.23c0-1.594 1.289-2.887 2.883-2.887m0 0" fill="#f9f9f9"/>
    <path d="m25.02 25.02c0 2.484-2.02 4.5-4.5 4.5-2.484 0-4.5-2.02-4.5-4.5 0-2.484 2.02-4.5 4.5-4.5 2.484 0 4.5 2.02 4.5 4.5m0 0" fill="#5bceb9"/>
    <path d="m23 25.02c-.051 1.344-1.156 2.406-2.5 2.406-1.344 0-2.449-1.063-2.5-2.406-.035-.914.434-1.777 1.223-2.246.785-.465 1.766-.465 2.555 0 .789.469 1.258 1.332 1.223 2.246m0 0" fill="#177868"/>
  </g>
</svg>
