<svg viewBox="0 0 48 48" xmlns="http://www.w3.org/2000/svg" xmlns:xlink="http://www.w3.org/1999/xlink">
  <linearGradient id="a" gradientTransform="matrix(0 -1 1 0 -.0000015 47.999998)" gradientUnits="userSpaceOnUse" x1="1" x2="47">
    <stop offset="0" stop-color="#ecccd0"/>
    <stop offset="1" stop-color="#f2dbde"/>
  </linearGradient>
  <path d="m47 24c0 22.703-.297 23-23 23-22.703 0-23-.297-23-23 0-22.703.297-23 23-23 22.703 0 23 .297 23 23z" fill="url(#a)"/>
  <path d="m25.844 11.996c-2.43 7.797-3.57 5.668-8.77 1.945 1.123 2.808 1.767 4.417 1.848 5.318-.163-.091-.307-.167-.477-.264.152.296.284.575.408.846-.35.808-1.994.339-5.279.096 5.285 3.996 4.344 5.355-1.574 8.324 1.194.008 2.188.005 3.07.025-.026.017-.048.031-.074.049.501-.005.912.004 1.346.008 2.577.234 3.073 1.197 1.166 5.223 3.03-1.54 4.206-2.236 4.926-1.381.17.776.312 1.697.449 2.811.127-.253.234-.454.354-.689.23.937.477 2.113.838 3.689 2.699-7.316 2.602-6.566 8.262-3.055-1.186-3.261-1.743-4.77-.822-5.223.169.042.304.061.482.109-.069-.073-.119-.134-.186-.205.871-.191 2.552.136 5.4.736-6.05-5.105-4.762-5.469.789-9.01-7.855.285-6.914-.273-4.684-6.605-6.425 4.94-5.93 3.363-7.473-2.748z" opacity=".1" transform=""/>
  <path d="m24.844 10.996c-2.43 7.797-3.57 5.668-8.77 1.945 3.09 7.727 2.609 6.449-3.5 5.996 5.285 3.996 4.344 5.355-1.574 8.324 6.094.043 8.219-.418 5.508 5.305 5.551-2.824 4.898-2.852 6.566 4.43 2.699-7.316 2.602-6.566 8.262-3.055-2.156-5.926-2.262-6.086 4.875-4.582-6.05-5.105-4.762-5.469.789-9.01-7.855.285-6.914-.273-4.684-6.605-6.426 4.941-5.93 3.363-7.473-2.75m0 0" fill="#ec4c45"/>
  <path d="m17.445 17.996c2.727 5.324.902 6.469-3.449 9.34 6.285-.059 7.109.363 7.887 6.66 2.664-5.305 3.465-6.68 9.113-5.168-3.582-3.816-4.379-5.379-2.613-10.371-4.438 2.875-6.438 2.102-10.938-.461m0 0" fill="#ff6f7f"/>
  <path d="m23.605 19.996c1.594 2.543 1.672 2.574 4.398 3.586-2.727 1.18-2.289 1.16-2.098 4.219-2.215-1.844-2.922-1.563-5.344.195 1.168-3.137.969-3.297-1.559-5.242 3.03-.098 3.445-.055 4.602-2.758m0 0" fill="#ffb2cd"/>
</svg>
