<svg viewBox="0 0 48 48" xmlns="http://www.w3.org/2000/svg" xmlns:xlink="http://www.w3.org/1999/xlink">
  <linearGradient id="a" gradientTransform="matrix(0 -1 1 0 -.0000015 47.999998)" gradientUnits="userSpaceOnUse" x1="1" x2="47">
    <stop offset="0" stop-color="#2290ee"/>
    <stop offset="1" stop-color="#359bef"/>
  </linearGradient>
  <path d="m47 24c0 22.703-.297 23-23 23-22.703 0-23-.297-23-23 0-22.703.297-23 23-23 22.703 0 23 .297 23 23z" fill="url(#a)"/>
  <path d="m30 26v2h4c0 0 0 1.572 0-2" fill-opacity=".102"/>
  <path d="m18 12c-5 2-6 7 0 10-1-1-3-4 0-5 0 5.667 0 17 0 17l-3 3h8l3-3v3h5l4-4v-14l-5-5c-5 2.555-5 7 0 10-1-1-3-4 0-5v11l-1 1v-6h-5v4l-1 1v-13z" fill-opacity=".098"/>
  <path d="m23 28l-1 1v-1h-5v5l-3 3h8l3-3v3h5l4-4v-4h-5v1l-1 1v-2" fill="#af0505"/>
  <path d="m17 26v2h5v-2" fill="#1a1a1a"/>
  <path d="m23 26v2h5v-2" fill="#1a1a1a"/>
  <path d="m29 26v2h5v-2" fill="#1a1a1a"/>
  <path d="m23 24v2h5v-2" fill="#ececec"/>
  <path d="m17 11c-5 2-6 7 0 10-1-1-3-4 0-5v10h5v-10" fill="#ececec"/>
  <path d="m29 13c-5 2.555-5 7 0 10-1-1-3-4 0-5v8h5v-8" fill="#ececec"/>
</svg>
