<svg viewBox="0 0 48 48" xmlns="http://www.w3.org/2000/svg" xmlns:xlink="http://www.w3.org/1999/xlink">
  <linearGradient id="a" gradientTransform="matrix(0 -1 1 0 -.0000015 47.999998)" gradientUnits="userSpaceOnUse" x1="1" x2="47">
    <stop offset="0" stop-color="#005b90"/>
    <stop offset="1" stop-color="#0067a4"/>
  </linearGradient>
  <path d="m47 24c0 22.703-.297 23-23 23-22.703 0-23-.297-23-23 0-22.703.297-23 23-23 22.703 0 23 .297 23 23z" fill="url(#a)"/>
  <path d="m24 9c-8.284 0-15 6.716-15 15 0 8.284 6.716 15 15 15 8.284 0 15-6.716 15-15 0-8.284-6.716-15-15-15m0 1c7.732 0 14 6.268 14 14 0 7.732-6.268 14-14 14-7.732 0-14-6.268-14-14 0-7.732 6.268-14 14-14zm0 1.1c-4.539 0-8.527 2.357-10.824 5.9h4.824v1h-2l4.789 13.98 2.85-8.609-1.961-5.371h-1.678v-1h8v1h-2.275l4.666 13.824 1.695-5.156c2.047-6.23-1.75-6.89-1.66-9.984.051-1.535 1.168-2.207 2.297-2.172-2.297-2.117-5.36-3.412-8.723-3.412zm11.332 6.758c.074 1.922-.504 4.297-1.129 6.07l-4.02 11.395c4-2.195 6.711-6.435 6.711-11.314 0-2.223-.563-4.319-1.555-6.143l-.008-.008zm-23.08.789c-.746 1.625-1.156 3.445-1.156 5.355 0 5.14 3.02 9.589 7.375 11.652l-6.219-17.01zm11.961 6.313l-3.975 11.387c1.187.36 2.441.555 3.75.555 1.515 0 2.968-.262 4.32-.742l-4.096-11.199" opacity=".1" transform="translate(1 1)"/>
  <path d="m24 9c-8.284 0-15 6.716-15 15 0 8.284 6.716 15 15 15 8.284 0 15-6.716 15-15 0-8.284-6.716-15-15-15zm0 1c7.732 0 14 6.268 14 14 0 7.732-6.268 14-14 14-7.732 0-14-6.268-14-14 0-7.732 6.268-14 14-14zm0 1.1c-4.539 0-8.527 2.357-10.824 5.9h4.824v1h-2l4.789 13.98 2.85-8.609-1.961-5.371h-1.678v-1h8v1h-2.275l4.666 13.824 1.695-5.156c2.047-6.23-1.75-6.89-1.66-9.984.051-1.535 1.168-2.207 2.297-2.172-2.297-2.117-5.36-3.412-8.723-3.412zm11.332 6.758c.074 1.922-.504 4.297-1.129 6.07l-4.02 11.395c4-2.195 6.711-6.435 6.711-11.314 0-2.223-.563-4.319-1.555-6.143l-.008-.008zm-23.08.789c-.746 1.625-1.156 3.445-1.156 5.355 0 5.14 3.02 9.589 7.375 11.652l-6.219-17.01zm11.961 6.313l-3.975 11.387c1.187.36 2.441.555 3.75.555 1.515 0 2.968-.262 4.32-.742l-4.096-11.199z" fill="#f9f9f9"/>
</svg>
