<svg viewBox="0 0 48 48" xmlns="http://www.w3.org/2000/svg" xmlns:xlink="http://www.w3.org/1999/xlink">
  <linearGradient id="a" gradientTransform="matrix(0 -1 1 0 -.0000015 47.999998)" gradientUnits="userSpaceOnUse" x1="1" x2="47">
    <stop offset="0" stop-color="#313028"/>
    <stop offset="1" stop-color="#3a392f"/>
  </linearGradient>
  <path d="m24 1c22.703 0 23 .297 23 23 0 22.703-.297 23-23 23-22.703 0-23-.297-23-23 0-22.703.297-23 23-23z" fill="url(#a)"/>
  <path d="m20 13l-5 5v12l10 9 10-9v-12l-5-5zm .5 1h9l4.5 4.5v11l-9 8-9-8v-11zm .5 1l-4 4h6v15l2 2 2-2v-15h6l-4-4zm-4 6v8l3 2.6 2.5-2.6-1.5-1.5v-6.5m8 0v6.5l-1.5 1.5 2.5 2.6 3-2.6v-8" opacity=".1"/>
  <path d="m19 12l-5 5v12l10 9 10-9v-12l-5-5zm .5 1h9l4.5 4.5v11l-9 8-9-8v-11zm .5 1l-4 4h6v15l2 2 2-2v-15h6l-4-4zm-4 6v8l3 2.6 2.5-2.6-1.5-1.5v-6.5m8 0v6.5l-1.5 1.5 2.5 2.6 3-2.6v-8" fill="#f9f6dd"/>
</svg>
