<svg xmlns="http://www.w3.org/2000/svg" viewBox="0 0 48 48">
 <defs>
  <linearGradient id="linearGradient3764" y1="47" x2="0" y2="1" gradientUnits="userSpaceOnUse">
   <stop style="stop-color:#ffb81f;stop-opacity:1"/>
   <stop offset="1" style="stop-color:#ffbe33;stop-opacity:1"/>
  </linearGradient>
 </defs>
 <g>
  
  
  
 </g>
 <g>
  <path d="m 47,24 C 47,46.703 46.703,47 24,47 1.297,47 1,46.703 1,24 1,1.297 1.297,1 24,1 46.703,1 47,1.297 47,24 z" style="fill:url(#linearGradient3764);fill-opacity:1"/>
 </g>
 <g>
  <g>
   <g transform="translate(1,1)">
    <g style="opacity:0.1">
     <!-- color: #ffbe33 -->
    </g>
   </g>
  </g>
 </g>
 <g>
  <g>
   <!-- color: #ffbe33 -->
  </g>
 </g>
 <g>
  
 </g>
 <path d="M 24.646 10 A 15 15 0 0 0 17.5 12.01 l 5 8.666 A 5 5 0 0 1 25 20 5 5 0 0 1 27.498 20.674 L 32.5 12.01 a 15 15 0 0 0 -7.854 -2.01 z M 25 22 a 3 3 0 0 0 -3 3 3 3 0 0 0 3 3 3 3 0 0 0 3 -3 3 3 0 0 0 -3 -3 z m -15 3 A 15 15 0 0 0 17.5 37.99 l 5 -8.664 A 5 5 0 0 1 20 25 l -10 0 z m 20 0 a 5 5 0 0 1 -2.504 4.324 L 32.5 37.99 A 15 15 0 0 0 40 25 l -10 0 z" style="fill:#000;opacity:0.1;fill-opacity:1;stroke:none"/>
 <path d="M 23.646 9 A 15 15 0 0 0 16.5 11.01 L 21.504 19.676 A 5 5 0 0 1 24 19 A 5 5 0 0 1 26.498 19.674 L 31.5 11.01 A 15 15 0 0 0 23.646 9 z M 24 21 A 3 3 0 0 0 21 24 A 3 3 0 0 0 24 27 A 3 3 0 0 0 27 24 A 3 3 0 0 0 24 21 z M 9 24 A 15 15 0 0 0 16.5 36.99 L 21.502 28.326 A 5 5 0 0 1 19 24 L 9 24 z M 29 24 A 5 5 0 0 1 26.496 28.324 L 31.5 36.99 A 15 15 0 0 0 39 24 L 29 24 z" style="fill:#2d2d2d;opacity:1;fill-opacity:1;stroke:none"/>
</svg>
