<svg viewBox="0 0 48 48" xmlns="http://www.w3.org/2000/svg" xmlns:xlink="http://www.w3.org/1999/xlink">
  <linearGradient id="a" gradientUnits="userSpaceOnUse" x2="0" y1="47" y2="1">
    <stop offset="0" stop-color="#ffb81f"/>
    <stop offset="1" stop-color="#ffbe33"/>
  </linearGradient>
  <path d="m47 24c0 22.703-.297 23-23 23-22.703 0-23-.297-23-23 0-22.703.297-23 23-23 22.703 0 23 .297 23 23z" fill="url(#a)"/>
  <path d="m24.646 10a15 15 0 0 0-7.146 2.01l5 8.666a5 5 0 0 1 2.5-.676 5 5 0 0 1  2.498.674l5.002-8.664a15 15 0 0 0-7.854-2.01zm.354 12a3 3 0 0 0-3 3 3 3 0 0 0  3 3 3 3 0 0 0  3-3 3 3 0 0 0-3-3zm-15 3a15 15 0 0 0 7.5 12.99l5-8.664a5 5 0 0 1-2.5-4.326zm20 0a5 5 0 0 1-2.504 4.324l5.004 8.666a15 15 0 0 0 7.5-12.99z" opacity=".1"/>
  <path d="m23.646 9a15 15 0 0 0-7.146 2.01l5.004 8.666a5 5 0 0 1 2.496-.676 5 5 0 0 1  2.498.674l5.002-8.664a15 15 0 0 0-7.854-2.01zm.354 12a3 3 0 0 0-3 3 3 3 0 0 0  3 3 3 3 0 0 0  3-3 3 3 0 0 0-3-3zm-15 3a15 15 0 0 0 7.5 12.99l5.002-8.664a5 5 0 0 1-2.502-4.326zm20 0a5 5 0 0 1-2.504 4.324l5.004 8.666a15 15 0 0 0 7.5-12.99z" fill="#2d2d2d"/>
</svg>
