<svg viewBox="0 0 48 48" xmlns="http://www.w3.org/2000/svg" xmlns:xlink="http://www.w3.org/1999/xlink">
  <linearGradient id="a" gradientUnits="userSpaceOnUse" x2="0" y1="47" y2="1">
    <stop offset="0" stop-color="#3d1105"/>
    <stop offset="1" stop-color="#561901"/>
  </linearGradient>
  <path d="m24 1c22.703 0 23 .297 23 23 0 22.703-.297 23-23 23-22.703 0-23-.297-23-23 0-22.703.297-23 23-23z" fill="url(#a)"/>
  <g transform="matrix(3.543307 0 0 3.543307 .00000022 -.03228249)">
    <path d="m7.06 2.831c-.76 0-1.465.205-2.081.556h-1.588v1.57c-.357.621-.564 1.34-.564 2.108 0 .768.207 1.487.564 2.108v1.552h1.552c.624.363 1.343.573 2.117.573.774 0 1.501-.21 2.125-.573h1.543v-1.543c.361-.623.564-1.345.564-2.117 0-.772-.204-1.494-.564-2.117v-1.561h-1.579c-.617-.351-1.33-.556-2.09-.556zm.018.714c1.94 0 3.51 1.57 3.51 3.51 0 1.94-1.57 3.519-3.51 3.519-1.94 0-3.51-1.579-3.51-3.519 0-1.94 1.57-3.51 3.51-3.51z" fill-opacity=".157"/>
    <path d="m6.773 2.549c-.76 0-1.465.205-2.081.556h-1.588v1.57c-.357.621-.564 1.34-.564 2.108 0 .768.207 1.487.564 2.108v1.552h1.552c.624.363 1.343.573 2.117.573.774 0 1.501-.21 2.125-.573h1.543v-1.543c.361-.623.564-1.345.564-2.117 0-.772-.204-1.494-.564-2.117v-1.561h-1.579c-.617-.351-1.33-.556-2.09-.556zm.018.714c1.94 0 3.51 1.57 3.51 3.51 0 1.94-1.57 3.519-3.51 3.519-1.94 0-3.51-1.579-3.51-3.519 0-1.94 1.57-3.51 3.51-3.51z" fill="#d59326"/>
    <path d="m8.05 4.917l.185.256-.415 2.743c-.305-1.235-.704-2.872-.706-2.875l-.67 2.866-.52-2.496.106-.485-1.508-.018c.121.092.213.247.309.37l.952 3.872c-.078.145-.196.283-.291.406.509.003 1.028.006 1.464.009l-.106-.459.291-1.332.247 1.446-.044.344 1.438-.009-.009-.009-.194-.37.582-3.634.441-.644c-.517.006-1.035.012-1.552.018z" fill-opacity=".157"/>
    <path d="m7.764 4.649l.185.256-.415 2.743c-.305-1.235-.704-2.872-.706-2.875l-.67 2.866-.52-2.496.106-.485-1.508-.018c.121.092.213.247.309.37l.952 3.872c-.078.145-.196.283-.291.406.509.003 1.028.006 1.464.009l-.106-.459.291-1.332.247 1.446-.044.344 1.438-.009-.009-.009-.194-.37.582-3.634.441-.644c-.517.006-1.035.012-1.552.018z" fill="#d59326"/>
  </g>
</svg>
