<svg xmlns="http://www.w3.org/2000/svg" viewBox="0 0 48 48">
 <defs>
  <linearGradient id="linearGradient3764" x1="1" x2="47" gradientUnits="userSpaceOnUse" gradientTransform="matrix(0,-1,1,0,-1.5e-6,47.999998)">
   <stop style="stop-color:#ee3e36;stop-opacity:1"/>
   <stop offset="1" style="stop-color:#f04f48;stop-opacity:1"/>
  </linearGradient>
 </defs>
 <g>
  
  
  
 </g>
 <g>
  <path d="m 47,24 C 47,46.703 46.703,47 24,47 1.297,47 1,46.703 1,24 1,1.297 1.297,1 24,1 46.703,1 47,1.297 47,24 z" style="fill:url(#linearGradient3764);fill-opacity:1"/>
 </g>
 <g>
  <g>
   <g transform="translate(1,1)">
    <g style="opacity:0.1">
     <!-- color: #f04f48 -->
     <g>
      <path d="m 11 14 l 2.809 0 l 4.316 16.906 l 4.309 -16.906 l 3.121 0 l 4.32 16.906 l 4.305 -16.906 l 2.82 0 l -5.16 20 l -3.492 0 l -4.332 -17.359 l -4.375 17.359 l -3.496 0 l -5.145 -20" style="fill:#000;fill-opacity:1;stroke:none;fill-rule:nonzero"/>
     </g>
    </g>
   </g>
  </g>
 </g>
 <g>
  <g>
   <!-- color: #f04f48 -->
   <g>
    <path d="m 11 14 l 2.809 0 l 4.316 16.906 l 4.309 -16.906 l 3.121 0 l 4.32 16.906 l 4.305 -16.906 l 2.82 0 l -5.16 20 l -3.492 0 l -4.332 -17.359 l -4.375 17.359 l -3.496 0 l -5.145 -20" style="fill:#fff;fill-opacity:1;stroke:none;fill-rule:nonzero"/>
   </g>
  </g>
 </g>
 <g>
  
 </g>
</svg>
