<svg viewBox="0 0 48 48" xmlns="http://www.w3.org/2000/svg" xmlns:xlink="http://www.w3.org/1999/xlink">
  <linearGradient id="a" gradientTransform="matrix(0 -1 1 0 -.0000015 47.999998)" gradientUnits="userSpaceOnUse" x1="1" x2="47">
    <stop offset="0" stop-color="#ee3e36"/>
    <stop offset="1" stop-color="#f04f48"/>
  </linearGradient>
  <path d="m47 24c0 22.703-.297 23-23 23-22.703 0-23-.297-23-23 0-22.703.297-23 23-23 22.703 0 23 .297 23 23z" fill="url(#a)"/>
  <path d="m11 14h2.809l4.316 16.906 4.309-16.906h3.121l4.32 16.906 4.305-16.906h2.82l-5.16 20h-3.492l-4.332-17.359-4.375 17.359h-3.496z" opacity=".1" transform="translate(1 1)"/>
  <path d="m11 14h2.809l4.316 16.906 4.309-16.906h3.121l4.32 16.906 4.305-16.906h2.82l-5.16 20h-3.492l-4.332-17.359-4.375 17.359h-3.496z" fill="#fff"/>
</svg>
