<svg viewBox="0 0 48 48" xmlns="http://www.w3.org/2000/svg" xmlns:xlink="http://www.w3.org/1999/xlink">
  <linearGradient id="a" gradientTransform="matrix(0 -1 1 0 -.0000015 47.999998)" gradientUnits="userSpaceOnUse" x1="1" x2="47">
    <stop offset="0" stop-color="#e7e7e7"/>
    <stop offset="1" stop-color="#f1f1f1"/>
  </linearGradient>
  <path d="m47 24c0 22.703-.297 23-23 23-22.703 0-23-.297-23-23 0-22.703.297-23 23-23 22.703 0 23 .297 23 23z" fill="url(#a)"/>
  <path d="m21 16c-1.108 0-2 .892-2 2v5h-5c-1.108 0-2 .892-2 2v7c0 1.108.892 2 2 2h7c1.108 0 2-.892 2-2v-5h4v3c0 1.108.892 2 2 2h7c1.108 0 2-.892 2-2v-7c0-1.108-.892-2-2-2h-6v-3c0-1.108-.892-2-2-2z" fill-opacity=".098" fill-rule="evenodd"/>
  <rect fill="#ee7070" fill-rule="evenodd" height="11" rx="2" width="11" x="11" y="22"/>
  <path d="m19 22v3c0 1.108.892 2 2 2h1v-3c0-1.108-.892-2-2-2z" fill-opacity=".098" fill-rule="evenodd"/>
  <rect fill="#8ca5d2" fill-rule="evenodd" height="11" rx="2" width="11" x="18" y="15"/>
  <rect fill="#eef270" fill-rule="evenodd" height="11" rx="2" width="11" x="26" y="20"/>
</svg>
