<svg xmlns="http://www.w3.org/2000/svg" viewBox="0 0 48 48">
 <defs>
  <linearGradient id="linearGradient3764" x1="1" x2="47" gradientUnits="userSpaceOnUse" gradientTransform="matrix(0,-1,1,0,-1.5e-6,47.999998)">
   <stop style="stop-color:#e7e7e7;stop-opacity:1"/>
   <stop offset="1" style="stop-color:#f1f1f1;stop-opacity:1"/>
  </linearGradient>
 </defs>
 <g>
  
  
  
 </g>
 <g>
  <path d="m 47,24 C 47,46.703 46.703,47 24,47 1.297,47 1,46.703 1,24 1,1.297 1.297,1 24,1 46.703,1 47,1.297 47,24 z" style="fill:url(#linearGradient3764);fill-opacity:1"/>
 </g>
 <rect y="13" x="12" height="24" width="26" style="fill:#000;fill-opacity:0.098;stroke:none;fill-rule:nonzero"/>
 <g>
  
 </g>
 <rect width="26" height="24" x="11" y="12" style="fill:#424242;fill-opacity:1;stroke:none;fill-rule:nonzero"/>
 <rect width="7" height="13" x="12" y="13" style="fill:#f5f5f5;fill-opacity:1;stroke:none;fill-rule:nonzero"/>
 <rect width="10" height="11" x="20" y="19" style="fill:#f5f5f5;fill-opacity:1;stroke:none;fill-rule:nonzero"/>
 <rect y="31" x="20" height="4" width="16" style="fill:#f5f5f5;fill-opacity:1;stroke:none;fill-rule:nonzero"/>
 <rect y="13" x="20" height="5" width="10" style="fill:#94b2d4;fill-opacity:1;stroke:none;fill-rule:nonzero"/>
 <rect y="19" x="31" height="11" width="5" style="fill:#f3f275;fill-opacity:1;stroke:none;fill-rule:nonzero"/>
 <rect width="7" height="8" x="12" y="27" style="fill:#eb7459;fill-opacity:1;stroke:none;fill-rule:evenodd"/>
 <rect y="13" x="31" height="5" width="5" style="fill:#f5f5f5;fill-opacity:1;stroke:none;fill-rule:nonzero"/>
</svg>
