<svg viewBox="0 0 48 48" xmlns="http://www.w3.org/2000/svg" xmlns:xlink="http://www.w3.org/1999/xlink">
  <linearGradient id="a" gradientUnits="userSpaceOnUse" x2="0" y1="47" y2="1">
    <stop offset="0" stop-color="#d7c1f7"/>
    <stop offset="1" stop-color="#e2d1fa"/>
  </linearGradient>
  <path d="m24 1c22.703 0 23 .297 23 23 0 22.703-.297 23-23 23-22.703 0-23-.297-23-23 0-22.703.297-23 23-23z" fill="url(#a)"/>
  <path d="m26.1 15.996v2.453l1.283 2.053-2.469 6.365-3.051-8.02c.397-.135.811-.267 1.242-.395v-2.451h-9.684v2.451h4.266v.422c-.74.352-1.455.72-2.115 1.125-.916.56-1.717 1.189-2.4 1.889-.684.699-1.217 1.459-1.598 2.281-.381.821-.57 1.727-.57 2.715 0 1.985.628 3.487 1.883 4.51 1.264 1.023 3.01 1.587 5.244 1.691l.004-.002c.623.035 1.123.144 1.504.328.381.192.572.502.572.93 0 .376-.129.669-.389.879-.26.219-.699.367-1.313.445l.313 2.334c.692-.017 1.292-.135 1.803-.354.519-.21.95-.485 1.287-.826.338-.341.584-.729.74-1.166.156-.429.232-.866.232-1.313 0-1.023-.362-1.852-1.09-2.49-.299-.269-.684-.48-1.121-.652v-.012l-.047-.008c-.487-.186-1.061-.311-1.715-.379v-10.73c.077-.039.159-.077.238-.115l4.605 12.05h.539.002l3.947-10.123.994 1.59v2.207l-3.139 4.998v2.438h10.904v-5.795h-2.428v3.355h-2.254v-4.832l.773-1.268-.773-1.271v-4.852h2.254v3.332h2.428v-5.783h-10.904zm-8.412 4.76v9.91c-2.651-.34-3.992-1.594-3.992-3.785 0-.821.164-1.625.492-2.412.329-.796.865-1.553 1.609-2.27.519-.504 1.154-.985 1.891-1.443z" opacity=".1" transform="matrix(.99999999 0 0 1 .00000001 0)"/>
  <g fill="#9191ff" transform="scale(.99501774 1.0050072)">
    <path d="m17.212 31.924c-2.244-.104-4-.665-5.27-1.683-1.261-1.018-1.892-2.513-1.892-4.488 0-.983.191-1.883.574-2.7.383-.818.918-1.574 1.605-2.27.687-.696 1.492-1.322 2.413-1.879.931-.565 1.939-1.078 3.03-1.539h-5.192v-2.44h9.732v2.44c-1.748.513-3.222 1.083-4.422 1.709-1.2.626-2.174 1.3-2.922 2.02-.748.713-1.287 1.465-1.618 2.257-.33.783-.496 1.583-.496 2.4 0 2.383 1.592 3.666 4.775 3.848 1.522.087 2.644.452 3.366 1.096.731.635 1.096 1.461 1.096 2.479 0 .444-.078.878-.235 1.305-.157.435-.404.822-.744 1.161-.339.339-.77.613-1.292.822-.513.217-1.118.335-1.813.352l-.313-2.322c.617-.078 1.057-.226 1.318-.444.261-.209.391-.5.391-.874 0-.426-.191-.735-.574-.926-.383-.183-.887-.291-1.513-.326"/>
    <path d="m36.18 31.95h-10.958v-2.426l3.848-6.07-3.848-6.092v-2.44h10.958v5.753h-2.44v-3.314h-5.231l3.744 6.092-3.744 6.07h5.231v-3.34h2.44v5.766"/>
  </g>
  <path d="m24.898 28.999h-.575l-5.179-11.855v10.809l1.883.283v.764h-4.991v-.764l1.8-.283v-11.949l-1.8-.272v-.764h5.514l4.01 9.229 4.091-9.229h5.629v.764l-1.8.272v11.949l1.8.283v.764h-6.979v-.764l1.883-.283v-10.809l-5.284 11.855" fill="#c83737" transform="scale(.93543619 1.06902)"/>
</svg>
