<svg viewBox="0 0 48 48" xmlns="http://www.w3.org/2000/svg" xmlns:xlink="http://www.w3.org/1999/xlink">
  <linearGradient id="a" gradientTransform="matrix(0 -1 1 0 -.0000015 47.999998)" gradientUnits="userSpaceOnUse" x1="1" x2="47">
    <stop offset="0" stop-color="#ce411c"/>
    <stop offset="1" stop-color="#e0491e"/>
  </linearGradient>
  <path d="m47 24c0 22.703-.297 23-23 23-22.703 0-23-.297-23-23 0-22.703.297-23 23-23 22.703 0 23 .297 23 23z" fill="url(#a)"/>
  <path d="m18 13c-3.866-.002-7 3.134-7 7 .001 1.685.614 3.312 1.721 4.582-1.108 1.364-1.72 3.11-1.721 4.918-.001 4.142 3.134 7.502 7 7.5 3.163-.002 6.178-1.728 7-5 .852 3.274 3.473 4.999 6.75 5 4 .001 7.252-3.358 7.25-7.5-.001-1.625-.514-3.204-1.459-4.502.944-1.297 1.458-2.875 1.459-4.498.002-4.142-3.246-7.501-7.25-7.5-3.213.001-5.841 1.812-6.75 5-.75-3.15-3.762-4.998-7-5zm .5 5c1.381 0 2.5 1.119 2.5 2.5v2.5h-2.5c-1.381 0-2.5-1.119-2.5-2.5 0-1.381 1.119-2.5 2.5-2.5zm13.471 0c1.127-.017 2.036.873 2.029 2-.009 1.4-.14 2.578-.572 3.643-.214.526-.522 1.015-.893 1.438.845.234 1.465.999 1.465 1.92v3c0 1.108-.892 2-2 2-1.108 0-2-.892-2-2v-3c0-.13.016-.256.039-.379-1.537.47-3.157.379-5.04.379-4 0-5.01 0-5 2.971.013 2.705-4.01 2.705-4 0 .015-4.302 2-6.971 6-6.971h3c5 0 5.01 0 5-3-.002-1.104.867-1.984 1.971-2z" opacity=".1"/>
  <path d="m17 12c-3.866-.002-7 3.134-7 7 .001 1.685.614 3.312 1.721 4.582-1.108 1.364-1.72 3.11-1.721 4.918-.001 4.142 3.134 7.502 7 7.5 3.163-.002 6.178-1.728 7-5 .852 3.274 3.473 4.999 6.75 5 4 .001 7.252-3.358 7.25-7.5-.001-1.625-.514-3.204-1.459-4.502.944-1.297 1.458-2.875 1.459-4.498.002-4.142-3.246-7.501-7.25-7.5-3.213.001-5.841 1.812-6.75 5-.75-3.15-3.762-4.998-7-5zm .5 5c1.381 0 2.5 1.119 2.5 2.5v2.5h-2.5c-1.381 0-2.5-1.119-2.5-2.5 0-1.381 1.119-2.5 2.5-2.5zm13.471 0c1.127-.017 2.036.873 2.029 2-.009 1.4-.14 2.578-.572 3.643-.214.526-.522 1.015-.893 1.438.845.234 1.465.999 1.465 1.92v3c0 1.108-.892 2-2 2-1.108 0-2-.892-2-2v-3c0-.13.016-.256.039-.379-1.537.47-3.157.379-5.04.379-4 0-5.01 0-5 2.971.013 2.705-4.01 2.705-4 0 .015-4.302 2-6.971 6-6.971h3c5 0 5.01 0 5-3-.002-1.104.867-1.984 1.971-2z" fill="#f9f9f9"/>
</svg>
