<svg viewBox="0 0 48 48" xmlns="http://www.w3.org/2000/svg" xmlns:xlink="http://www.w3.org/1999/xlink">
  <linearGradient id="a" gradientTransform="matrix(0 -1 1 0 -.0000015 47.999998)" gradientUnits="userSpaceOnUse" x1="1" x2="47">
    <stop offset="0" stop-color="#43557f"/>
    <stop offset="1" stop-color="#4a5e8c"/>
  </linearGradient>
  <path d="m47 24c0 22.703-.297 23-23 23-22.703 0-23-.297-23-23 0-22.703.297-23 23-23 22.703 0 23 .297 23 23z" fill="url(#a)"/>
  <g opacity=".1" transform="translate(1 1)">
    <path d="m37.453 29.996c.395-.191.77-.594 1.141-1.156-7.641.129-19.234.129-29.457.109.031.063.063.129.09.191.707 0 1.402 0 2.082 0 10.703-.023 20.395-.023 26.14.859" fill-rule="evenodd"/>
    <path d="m18.332 18l-.219 1.641h-1.328c-.809 0-1.555.309-2.242.926-.184.16-.344.328-.488.508-.078-.18-.18-.348-.305-.508-.469-.617-1.109-.926-1.918-.926h-1.719c-.063.348 0 .641.18.887.184.242.434.367.754.367h.566c.48 0 .855.188 1.125.563.273.375.359.828.273 1.348-.094.52-.336.965-.742 1.336-.402.367-.848.555-1.328.555h-.563c-.324 0-.617.121-.887.367-.27.242-.434.539-.496.887h1.723c.809 0 1.551-.305 2.238-.918.18-.16.344-.336.484-.512.082.18.188.352.313.512.473.613 1.105.918 1.914.918h1.723c.059-.348 0-.645-.184-.887-.184-.246-.438-.367-.758-.367h-.559c-.48 0-.859-.188-1.133-.555-.273-.371-.363-.816-.273-1.336.094-.52.34-.973.746-1.348.402-.375.848-.563 1.328-.563h.563c.313 0 .602-.121.863-.355l-.305 2.246c-.117.887.074 1.641.582 2.262.496.633 1.168.941 1.977.941.828 0 1.574-.309 2.246-.941.676-.621 1.078-1.375 1.199-2.262.121-.887-.074-1.641-.57-2.262-.512-.617-1.184-.934-2.01-.934h-1.754l.027-.246c.059-.367-.016-.688-.242-.953-.195-.266-.473-.398-.813-.398m.855 2.879h1.77c.477 0 .867.18 1.168.555.27.375.375.836.316 1.359-.074.531-.301.98-.688 1.359-.391.383-.828.578-1.32.578-.496 0-.883-.195-1.168-.578-.285-.379-.391-.828-.328-1.359l.254-1.918m-.004.004"/>
    <path d="m27 19.594c-.824 0-1.574.313-2.23.938-.676.633-1.078 1.379-1.199 2.27l-.438 3.188c.344 0 .66-.121.93-.387.285-.262.449-.578.496-.949l.254-1.852c.074-.531.301-.984.688-1.371.391-.375.84-.563 1.32-.563.496 0 .883.188 1.168.563.285.387.391.84.316 1.371l-.242 1.852c-.059.367.027.676.242.941.207.266.477.398.824.398l.438-3.188c.059-.531.301-.984.688-1.371.387-.375.824-.563 1.316-.563.48 0 .867.188 1.156.563.281.387.402.84.328 1.371l-.254 1.852c-.047.367.027.676.242.941.207.266.477.398.824.398l.207-1.492c.09.195.195.383.344.559.512.621 1.172.934 1.98.934h1.754c.043-.352-.031-.652-.227-.902-.191-.246-.461-.367-.777-.367h-.57c-.496 0-.883-.191-1.168-.566-.305-.379-.406-.82-.344-1.352.074-.531.313-.984.703-1.371.391-.375.84-.563 1.316-.563h.574c.328 0 .629-.133.898-.379.254-.25.402-.543.449-.898h-1.734c-.828 0-1.559.313-2.234.938-.328.316-.598.648-.793 1.023-.09-.371-.27-.715-.512-1.023-.508-.625-1.168-.938-1.988-.938-.453 0-.902.113-1.352.34-.449.223-.855.523-1.184.918-.242-.395-.559-.699-.938-.926-.387-.215-.805-.328-1.27-.328m-.012-.008"/>
  </g>
  <path d="m37.453 29.996c.395-.191.77-.594 1.141-1.156-7.641.129-19.234.129-29.457.109.031.063.063.129.09.191.707 0 1.402 0 2.082 0 10.703-.023 20.395-.023 26.14.859" fill="#d67f28" fill-rule="evenodd"/>
  <path d="m18.332 18l-.219 1.641h-1.328c-.809 0-1.555.309-2.242.926-.184.16-.344.328-.488.508-.078-.18-.18-.348-.305-.508-.469-.617-1.109-.926-1.918-.926h-1.719c-.063.348 0 .641.18.887.184.242.434.367.754.367h.566c.48 0 .855.188 1.125.563.273.375.359.828.273 1.348-.094.52-.336.965-.742 1.336-.402.367-.848.555-1.328.555h-.563c-.324 0-.617.121-.887.367-.27.242-.434.539-.496.887h1.723c.809 0 1.551-.305 2.238-.918.18-.16.344-.336.484-.512.082.18.188.352.313.512.473.613 1.105.918 1.914.918h1.723c.059-.348 0-.645-.184-.887-.184-.246-.438-.367-.758-.367h-.559c-.48 0-.859-.188-1.133-.555-.273-.371-.363-.816-.273-1.336.094-.52.34-.973.746-1.348.402-.375.848-.563 1.328-.563h.563c.313 0 .602-.121.863-.355l-.305 2.246c-.117.887.074 1.641.582 2.262.496.633 1.168.941 1.977.941.828 0 1.574-.309 2.246-.941.676-.621 1.078-1.375 1.199-2.262.121-.887-.074-1.641-.57-2.262-.512-.617-1.184-.934-2.01-.934h-1.754l.027-.246c.059-.367-.016-.688-.242-.953-.195-.266-.473-.398-.813-.398m.855 2.879h1.77c.477 0 .867.18 1.168.555.27.375.375.836.316 1.359-.074.531-.301.98-.688 1.359-.391.383-.828.578-1.32.578-.496 0-.883-.195-1.168-.578-.285-.379-.391-.828-.328-1.359l.254-1.918m-.004.004" fill="#7fc120"/>
  <path d="m27 19.594c-.824 0-1.574.313-2.23.938-.676.633-1.078 1.379-1.199 2.27l-.438 3.188c.344 0 .66-.121.93-.387.285-.262.449-.578.496-.949l.254-1.852c.074-.531.301-.984.688-1.371.391-.375.84-.563 1.32-.563.496 0 .883.188 1.168.563.285.387.391.84.316 1.371l-.242 1.852c-.059.367.027.676.242.941.207.266.477.398.824.398l.438-3.188c.059-.531.301-.984.688-1.371.387-.375.824-.563 1.316-.563.48 0 .867.188 1.156.563.281.387.402.84.328 1.371l-.254 1.852c-.047.367.027.676.242.941.207.266.477.398.824.398l.207-1.492c.09.195.195.383.344.559.512.621 1.172.934 1.98.934h1.754c.043-.352-.031-.652-.227-.902-.191-.246-.461-.367-.777-.367h-.57c-.496 0-.883-.191-1.168-.566-.305-.379-.406-.82-.344-1.352.074-.531.313-.984.703-1.371.391-.375.84-.563 1.316-.563h.574c.328 0 .629-.133.898-.379.254-.25.402-.543.449-.898h-1.734c-.828 0-1.559.313-2.234.938-.328.316-.598.648-.793 1.023-.09-.371-.27-.715-.512-1.023-.508-.625-1.168-.938-1.988-.938-.453 0-.902.113-1.352.34-.449.223-.855.523-1.184.918-.242-.395-.559-.699-.938-.926-.387-.215-.805-.328-1.27-.328m-.012-.008" fill="#bacfe3"/>
</svg>
