<svg xmlns="http://www.w3.org/2000/svg" viewBox="0 0 48 48">
 <defs>
  <linearGradient id="linearGradient3764" x1="1" x2="47" gradientUnits="userSpaceOnUse" gradientTransform="matrix(0,-1,1,0,-1.5e-6,47.999998)">
   <stop style="stop-color:#e33e23;stop-opacity:1"/>
   <stop offset="1" style="stop-color:#e54e35;stop-opacity:1"/>
  </linearGradient>
 </defs>
 <g>
  
  
  
 </g>
 <g>
  <path d="m 47,24 C 47,46.703 46.703,47 24,47 1.297,47 1,46.703 1,24 1,1.297 1.297,1 24,1 46.703,1 47,1.297 47,24 z" style="fill:url(#linearGradient3764);fill-opacity:1"/>
 </g>
 <g>
  <g>
   <g transform="translate(1,1)">
    <g style="opacity:0.1">
     <!-- color: #e54e35 -->
     <g>
      <path d="m 24 11.984 c -7.18 0 -13 5.188 -13 11.586 c 0 3.859 2.129 7.258 5.383 9.352 c -0.117 0.441 -0.27 0.91 -0.508 1.395 c -0.809 1.656 -1.625 1.656 -1.625 1.656 c 0 0 2.438 0 4.063 -0.828 c 0.344 -0.176 0.645 -0.461 0.918 -0.801 c 1.48 0.523 3.07 0.801 4.773 0.801 c 7.18 0 13 -5.188 13 -11.59 c 0 -6.395 -5.82 -11.586 -13 -11.586 m -4.445 4.156 l 4.441 4.551 l 4.441 -4.551 l 2.871 2.922 l -4.441 4.523 l 4.441 4.555 l -2.871 2.895 l -4.441 -4.523 l -4.441 4.523 l -2.871 -2.895 l 4.441 -4.555 l -4.441 -4.523 m 2.871 -2.922" style="fill:#000;fill-opacity:1;stroke:none;fill-rule:nonzero"/>
     </g>
    </g>
   </g>
  </g>
 </g>
 <g>
  <g>
   <!-- color: #e54e35 -->
   <g>
    <path d="m 24 11.984 c -7.18 0 -13 5.188 -13 11.586 c 0 3.859 2.129 7.258 5.383 9.352 c -0.117 0.441 -0.27 0.91 -0.508 1.395 c -0.809 1.656 -1.625 1.656 -1.625 1.656 c 0 0 2.438 0 4.063 -0.828 c 0.344 -0.176 0.645 -0.461 0.918 -0.801 c 1.48 0.523 3.07 0.801 4.773 0.801 c 7.18 0 13 -5.188 13 -11.59 c 0 -6.395 -5.82 -11.586 -13 -11.586 m -4.445 4.156 l 4.441 4.551 l 4.441 -4.551 l 2.871 2.922 l -4.441 4.523 l 4.441 4.555 l -2.871 2.895 l -4.441 -4.523 l -4.441 4.523 l -2.871 -2.895 l 4.441 -4.555 l -4.441 -4.523 m 2.871 -2.922" style="fill:#fff;fill-opacity:1;stroke:none;fill-rule:nonzero"/>
   </g>
  </g>
 </g>
 <g>
  
 </g>
</svg>
