<svg viewBox="0 0 48 48" xmlns="http://www.w3.org/2000/svg" xmlns:xlink="http://www.w3.org/1999/xlink">
  <linearGradient id="a" gradientTransform="matrix(0 -1 1 0 -.0000015 47.999998)" gradientUnits="userSpaceOnUse" x1="1" x2="47">
    <stop offset="0" stop-color="#e4e4e4"/>
    <stop offset="1" stop-color="#eee"/>
  </linearGradient>
  <path d="m47 24c0 22.703-.297 23-23 23-22.703 0-23-.297-23-23 0-22.703.297-23 23-23 22.703 0 23 .297 23 23z" fill="url(#a)"/>
  <path d="m24 1v7h-7v-5.906c-.337.108-.67.221-1 .344v5.563h-7v-1.438c-.346.298-.673.62-1 .938v.5h-.5c-.318.327-.64.654-.938 1h1.438v7h-5.563c-.123.33-.236.663-.344 1h5.906v7h-7c0 .334.017.669.031 1h6.969v7h-5.563c.127.342.264.666.406 1h5.156v7h-.5c.481.496.976.986 1.5 1.438v-.438h7v4.563c.33.123.663.236 1 .344v-4.906h7v6c .334 0 .669-.017 1-.031v-5.969h7v4.563c.342-.127.666-.264 1-.406v-4.156h6.5c.522-.476 1.024-.978 1.5-1.5v-6.5h4.156c.142-.334.279-.658.406-1h-4.563v-7h5.969c.014-.331.031-.666.031-1h-6v-7h4.906c-.108-.337-.221-.67-.344-1h-4.563v-7h .438c-.451-.524-.941-1.019-1.438-1.5v.5h-7v-5.156c-.334-.142-.658-.279-1-.406v5.563h-7v-6.969c-.331-.014-.666-.031-1-.031zm-15 8h7v7h-7zm8 0h7v7h-7zm8 0h7v7h-7zm8 0h7v7h-7zm-24 8h7v7h-7zm8 0h7v7h-7zm8 0h7v7h-7zm8 0h7v7h-7zm-24 8h7v7h-7zm8 0h7v7h-7zm8 0h7v7h-7zm8 0h7v7h-7zm-24 8h7v7h-7zm8 0h7v7h-7zm8 0h7v7h-7zm8 0h7v7h-7z" fill="#a0dad0" fill-opacity=".863"/>
  <g transform="translate(.00000001 2.0000003)">
    <g transform="matrix(.92943428 0 0 .9240382 1.69495198 -6.43486494)">
      <path d="m17.543 21.03v2.164h-5.38v14.07h11.835v1.623h1.076v-4.329h-1.076v1.623h-10.759v-11.904h4.304v2.164h15.06v-2.164h4.304v11.904h-9.683v-3.247h-1.076v7.575h1.076v-3.247h10.759v-14.07h-5.38v-2.164h-15.06zm1.076 1.082h12.911v3.247h-12.911z" opacity=".1"/>
      <path d="m17 14v2h-5v13h11v1.5h1v-4h-1v1.5h-10v-11h4v2h14v-2h4v11h-9v-3h-1v7h1v-3h10v-13h-5v-2zm1 1h12v3h-12z" fill="#373737" transform="matrix(1.0759233 0 0 1.0822063 -1.8236383 4.7994384)"/>
    </g>
    <g transform="matrix(.99980004 0 0 .74925073 -.00019996 25.743756)">
      <path d="m34.444 13.685c0 0 .563-.324.563-1.996 0-1.613-.633-2-.633-2h-15.366l-4 1.996 4 2" opacity=".1"/>
      <path d="m33.444 12.35c0 0 .563-.324.563-1.996 0-1.613-.633-2-.633-2h-15.366l-4 1.996 4 2" fill="#e04c4c"/>
      <path d="m18 8.354l-4 2 4 2" fill="#dcbc78"/>
      <path d="m16 9.354l-2 .994 2 1.01" fill="#373737"/>
    </g>
  </g>
</svg>
