<svg xmlns="http://www.w3.org/2000/svg" viewBox="0 0 48 48">
 <defs>
  <linearGradient id="linearGradient3764" x1="1" x2="47" gradientUnits="userSpaceOnUse" gradientTransform="matrix(0,-1,1,0,-1.5e-6,47.999998)">
   <stop style="stop-color:#e4e4e4;stop-opacity:1"/>
   <stop offset="1" style="stop-color:#eee;stop-opacity:1"/>
  </linearGradient>
 </defs>
 <g>
  
  
  
 </g>
 <g>
  <path d="m 47,24 C 47,46.703 46.703,47 24,47 1.297,47 1,46.703 1,24 1,1.297 1.297,1 24,1 46.703,1 47,1.297 47,24 z" style="fill:url(#linearGradient3764);fill-opacity:1"/>
 </g>
 <path d="m 24 1 0 7 -7 0 0 -5.906 c -0.337 0.108 -0.67 0.221 -1 0.344 l 0 5.563 -7 0 0 -1.438 c -0.346 0.298 -0.673 0.62 -1 0.938 l 0 0.5 -0.5 0 c -0.318 0.327 -0.64 0.654 -0.938 1 l 1.438 0 0 7 -5.563 0 c -0.123 0.33 -0.236 0.663 -0.344 1 l 5.906 0 0 7 -7 0 c 0 0.334 0.017 0.669 0.031 1 l 6.969 0 0 7 -5.563 0 c 0.127 0.342 0.264 0.666 0.406 1 l 5.156 0 0 7 -0.5 0 c 0.481 0.496 0.976 0.986 1.5 1.438 l 0 -0.438 l 7 0 0 4.563 c 0.33 0.123 0.663 0.236 1 0.344 l 0 -4.906 l 7 0 0 6 c 0.334 0 0.669 -0.017 1 -0.031 l 0 -5.969 l 7 0 0 4.563 c 0.342 -0.127 0.666 -0.264 1 -0.406 l 0 -4.156 l 6.5 0 c 0.522 -0.476 1.024 -0.978 1.5 -1.5 l 0 -6.5 4.156 0 c 0.142 -0.334 0.279 -0.658 0.406 -1 l -4.563 0 l 0 -7 5.969 0 c 0.014 -0.331 0.031 -0.666 0.031 -1 l -6 0 0 -7 4.906 0 c -0.108 -0.337 -0.221 -0.67 -0.344 -1 l -4.563 0 0 -7 0.438 0 c -0.451 -0.524 -0.941 -1.019 -1.438 -1.5 l 0 0.5 -7 0 0 -5.156 c -0.334 -0.142 -0.658 -0.279 -1 -0.406 l 0 5.563 -7 0 0 -6.969 c -0.331 -0.014 -0.666 -0.031 -1 -0.031 z m -15 8 7 0 0 7 -7 0 0 -7 z m 8 0 7 0 0 7 -7 0 0 -7 z m 8 0 7 0 0 7 -7 0 0 -7 z m 8 0 7 0 0 7 -7 0 0 -7 z m -24 8 7 0 0 7 -7 0 0 -7 z m 8 0 7 0 0 7 -7 0 0 -7 z m 8 0 7 0 0 7 -7 0 0 -7 z m 8 0 7 0 0 7 -7 0 0 -7 z m -24 8 7 0 0 7 -7 0 0 -7 z m 8 0 7 0 0 7 -7 0 0 -7 z m 8 0 7 0 0 7 -7 0 0 -7 z m 8 0 7 0 0 7 -7 0 0 -7 z m -24 8 7 0 0 7 -7 0 0 -7 z m 8 0 7 0 0 7 -7 0 0 -7 z m 8 0 7 0 0 7 -7 0 0 -7 z m 8 0 7 0 0 7 -7 0 0 -7 z" style="fill:#a0dad0;fill-opacity:0.863"/>
 <g>
  
 </g>
 <g transform="translate(1.2712141e-8,2.0000003)">
  <g transform="matrix(1.0001111,0,0,0.99429473,-0.00127825,-9.8636753)">
   <g transform="matrix(0.92933103,0,0,0.92934034,1.6960418,3.4484849)">
    <path d="m 17.543 21.03 0 2.164 -5.38 0 0 14.07 11.835 0 0 1.623 1.076 0 0 -4.329 -1.076 0 0 1.623 -10.759 0 0 -11.904 4.304 0 0 2.164 15.06 0 0 -2.164 4.304 0 0 11.904 -9.683 0 0 -3.247 -1.076 0 0 7.575 1.076 0 0 -3.247 10.759 0 0 -14.07 -5.38 0 0 -2.164 -15.06 0 z m 1.076 1.082 12.911 0 0 3.247 -12.911 0 0 -3.247 z" style="visibility:visible;fill:#000;opacity:0.1;fill-opacity:1;stroke:none;display:inline;color:#000"/>
    <path d="m 17 14 0 2 -5 0 0 13 11 0 0 1.5 1 0 0 -4 -1 0 0 1.5 -10 0 0 -11 4 0 0 2 14 0 0 -2 4 0 0 11 -9 0 0 -3 -1 0 0 7 1 0 0 -3 10 0 0 -13 -5 0 0 -2 -14 0 z m 1 1 12 0 0 3 -12 0 0 -3 z" transform="matrix(1.0759233,0,0,1.0822063,-1.8236383,4.7994384)" style="visibility:visible;fill:#373737;fill-opacity:1;stroke:none;display:inline;color:#000"/>
   </g>
  </g>
  <g transform="matrix(0.99980004,0,0,0.74925073,-1.9996012e-4,25.743756)">
   <path d="m 34.444 13.685 c 0 0 0.563 -0.324 0.563 -1.996 0 -1.613 -0.633 -2 -0.633 -2 l -15.366 0 -4 1.996 4 2" style="fill:#000;opacity:0.1;fill-opacity:1;stroke:none;fill-rule:nonzero"/>
   <path d="m 33.444 12.35 c 0 0 0.563 -0.324 0.563 -1.996 0 -1.613 -0.633 -2 -0.633 -2 l -15.366 0 -4 1.996 l 4 2" style="fill:#e04c4c;fill-opacity:1;stroke:none;fill-rule:nonzero"/>
   <path d="m 18 8.354 -4 2 4 2" style="fill:#dcbc78;fill-opacity:1;stroke:none;fill-rule:nonzero"/>
   <path d="m 16 9.354 -2 0.994 2 1.01" style="fill:#373737;fill-opacity:1;stroke:none;fill-rule:nonzero"/>
  </g>
 </g>
</svg>
