<svg xmlns="http://www.w3.org/2000/svg" viewBox="0 0 48 48">
 <defs>
  <linearGradient id="linearGradient3764" x1="1" x2="47" gradientUnits="userSpaceOnUse" gradientTransform="matrix(0,-1,1,0,-1.5e-6,47.999998)">
   <stop style="stop-color:#d7d7d7;stop-opacity:1"/>
   <stop offset="1" style="stop-color:#e1e1e1;stop-opacity:1"/>
  </linearGradient>
 </defs>
 <g>
  
  
  
 </g>
 <g>
  <path d="m 47,24 C 47,46.703 46.703,47 24,47 1.297,47 1,46.703 1,24 1,1.297 1.297,1 24,1 46.703,1 47,1.297 47,24 z" style="fill:url(#linearGradient3764);fill-opacity:1"/>
 </g>
 <g>
  <g>
   <!-- color: #e1e1e1 -->
   <g>
    <path d="m 20.937 12 c -4.939 0.008 -8.954 4.02 -8.951 8.953 l 0 0.002 c 0.011 4.937 4.02 8.95 8.955 8.953 l 0.002 0 c 4.937 -0.005 8.951 -4.02 8.951 -8.953 0.105 -4.955 -3.749 -8.796 -8.955 -8.955 l -0.002 0 z m 0.002 1.475 c 4.136 0 7.473 3.336 7.48 7.48 l 0 0.002 c 0 4.135 -3.336 7.471 -7.477 7.477 -4.134 -0.002 -7.473 -3.339 -7.482 -7.482 -0.002 -4.133 3.334 -7.469 7.479 -7.477 z m -0.76 2.475 -3.814 10 1.406 0 0.941 -2.563 4.5 0 0.904 2.563 1.406 0 -3.813 -10 -1.531 0 z m 0.752 1.344 1.842 4.969 -3.656 0 1.814 -4.969 z m 7.146 9.283 -1.504 1.504 4.734 4.734 1.504 -1.504 -4.734 -4.734 z m 5.187 4.549 -2.146 2.145 4.738 4.734 2.146 -2.145 -4.738 -4.734 z" style="fill:#000;fill-opacity:0.098"/>
    <path d="m 19.18 14.949 l 1.531 0 l 3.813 10 l -1.406 0 l -0.906 -2.563 l -4.5 0 l -0.941 2.563 l -1.406 0 m 4.566 -8.656 l -1.813 4.969 l 3.656 0 m -1.844 -4.969" style="fill:#5170ec;fill-opacity:1;stroke:none;fill-rule:nonzero"/>
    <path d="m 30.12 32.27 l 2.145 -2.145 l 4.738 4.734 l -2.145 2.145 m -4.738 -4.734" style="fill:#5170ec;fill-opacity:1;stroke:none;fill-rule:nonzero"/>
    <path d="m 25.574 27.08 l 1.504 -1.504 l 4.734 4.734 l -1.504 1.504 m -4.734 -4.734" style="fill:#5170ec;fill-opacity:1;stroke:none;fill-rule:nonzero"/>
    <path d="m 19.938 11 c -4.939 0.008 -8.954 4.02 -8.951 8.953 l 0 0.002 c 0.011 4.937 4.02 8.95 8.955 8.953 l 0.002 0 c 4.937 -0.005 8.951 -4.02 8.951 -8.953 c 0.105 -4.955 -3.749 -8.796 -8.955 -8.955 l -0.002 0 z m 0.002 1.475 c 4.136 0 7.473 3.336 7.48 7.48 l 0 0.002 c 0 4.135 -3.336 7.471 -7.477 7.477 -4.134 -0.002 -7.473 -3.339 -7.482 -7.482 -0.002 -4.133 3.334 -7.469 7.479 -7.477 z" mix-blend-mode="normal" isolation="auto" white-space="normal" solid-opacity="1" solid-color="#000000" style="visibility:visible;shape-rendering:auto;color-interpolation-filters:linearRGB;fill:#5170ec;opacity:1;image-rendering:auto;fill-opacity:1;stroke:none;display:inline;color:#000;fill-rule:nonzero;color-rendering:auto;color-interpolation:sRGB"/>
   </g>
  </g>
 </g>
 <g>
  
 </g>
</svg>
