<svg viewBox="0 0 48 48" xmlns="http://www.w3.org/2000/svg" xmlns:xlink="http://www.w3.org/1999/xlink">
  <linearGradient id="a" gradientUnits="userSpaceOnUse" x1="1" x2="47">
    <stop offset="0" stop-color="#606163"/>
    <stop offset="1" stop-color="#6a6b6e"/>
  </linearGradient>
  <path d="m24 1c22.703 0 23 .297 23 23 0 22.703-.297 23-23 23-22.703 0-23-.297-23-23 0-22.703.297-23 23-23z" fill="url(#a)" transform="matrix(0 -1 1 0 0 48)"/>
  <rect height="12" opacity=".1" rx="1" width="19" x="15" y="12"/>
  <rect fill="#ba4c4c" height="12" rx="1" width="19" x="14" y="11"/>
  <path d="m13 25h9c .554 0 1 .446 1 1v9c0 .554-.446 1-1 1h-9c-.554 0-1-.446-1-1v-9c0-.554.446-1 1-1z" opacity=".1"/>
  <path d="m12 24h9c .554 0 1 .446 1 1v9c0 .554-.446 1-1 1h-9c-.554 0-1-.446-1-1v-9c0-.554.446-1 1-1z" fill="#dfb914"/>
  <rect height="13" opacity=".1" rx="1" width="14" x="24" y="25"/>
  <rect fill="#507bff" height="13" rx="1" width="14" x="23" y="24"/>
  <path d="m18.75 26.09c-.854 0-1.499.18-1.906.531-.407.347-.594.895-.594 1.625v.469h-1.063v1.531h1.063v4.75h2.125v-4.75h1.844v-1.531h-1.844v-.469c0-.271.068-.486.188-.594.12-.112.353-.156.656-.156h1.156v-1.406z" opacity=".1"/>
  <path d="m19.389 25.1v1.406h-1.185c-.303 0-.515.056-.634.168-.12.108-.18.297-.18.569v.467h1.831v1.532h-1.831v5.17h-2.142v-5.17h-1.065v-1.532h1.065v-.467c0-.73.203-1.269.61-1.616.407-.351 1.037-.527 1.891-.527z" fill="#f9f9f9"/>
  <path d="m28.553 27.708v5.649h.856c.976 0 1.72-.242 2.232-.726.517-.484.775-1.186.775-2.108 0-.918-.256-1.616-.769-2.096-.513-.48-1.259-.719-2.239-.719h-.856m-2.387-1.804h2.518c1.406 0 2.451.101 3.138.304.69.198 1.282.537 1.773 1.017.434.418.757.899.967 1.445.211.546.316 1.164.316 1.854 0 .699-.105 1.323-.316 1.873-.211.546-.533 1.027-.967 1.445-.496.48-1.091.821-1.786 1.023-.695.198-1.736.298-3.125.298h-2.518v-9.258" opacity=".1" transform="translate(1 1)"/>
  <path d="m28.553 27.708v5.649h.856c.976 0 1.72-.242 2.232-.726.517-.484.775-1.186.775-2.108 0-.918-.256-1.616-.769-2.096-.513-.48-1.259-.719-2.239-.719h-.856m-2.387-1.804h2.518c1.406 0 2.451.101 3.138.304.69.198 1.282.537 1.773 1.017.434.418.757.899.967 1.445.211.546.316 1.164.316 1.854 0 .699-.105 1.323-.316 1.873-.211.546-.533 1.027-.967 1.445-.496.48-1.091.821-1.786 1.023-.695.198-1.736.298-3.125.298h-2.518v-9.258" fill="#f9f9f9"/>
  <path d="m24.808 16.916l2.88 4.237h-2.23l-1.94-2.836-1.924 2.836h-2.241l2.88-4.237-2.769-4.064h2.235l1.818 2.674 1.813-2.674h2.246l-2.769 4.064" opacity=".1" transform="translate(1 1)"/>
  <path d="m24.808 16.916l2.88 4.237h-2.23l-1.94-2.836-1.924 2.836h-2.241l2.88-4.237-2.769-4.064h2.235l1.818 2.674 1.813-2.674h2.246l-2.769 4.064" fill="#f9f9f9"/>
</svg>
