<svg xmlns="http://www.w3.org/2000/svg" viewBox="0 0 48 48">
 <defs>
  <linearGradient id="linearGradient3796" x1="1" x2="47" gradientUnits="userSpaceOnUse">
   <stop style="stop-color:#606163;stop-opacity:1"/>
   <stop offset="1" style="stop-color:#6a6b6e;stop-opacity:1"/>
  </linearGradient>
 </defs>
 <g>
  
  
  
 </g>
 <g transform="matrix(0,-1,1,0,0,48)" style="fill:url(#linearGradient3796);fill-opacity:1">
  <path d="M 24,1 C 46.703,1 47,1.297 47,24 47,46.703 46.703,47 24,47 1.297,47 1,46.703 1,24 1,1.297 1.297,1 24,1 z"/>
 </g>
 <rect rx="1" y="12" x="15" height="12" width="19" style="fill:#000;opacity:0.1;fill-opacity:1;stroke:none;fill-rule:nonzero"/>
 <g>
  
 </g>
 <rect width="19" height="12" x="14" y="11" rx="1" style="fill:#ba4c4c;opacity:1;fill-opacity:1;stroke:none;fill-rule:nonzero"/>
 <path d="m 13 25 9 0 c 0.554 0 1 0.446 1 1 l 0 9 c 0 0.554 -0.446 1 -1 1 l -9 0 c -0.554 0 -1 -0.446 -1 -1 l 0 -9 c 0 -0.554 0.446 -1 1 -1 z" style="fill:#000;opacity:0.1;fill-opacity:1;stroke:none;fill-rule:nonzero"/>
 <path d="m 12 24 9 0 c 0.554 0 1 0.446 1 1 l 0 9 c 0 0.554 -0.446 1 -1 1 l -9 0 c -0.554 0 -1 -0.446 -1 -1 l 0 -9 c 0 -0.554 0.446 -1 1 -1 z" style="fill:#dfb914;fill-opacity:1;stroke:none;fill-rule:nonzero"/>
 <rect rx="1" y="25" x="24" height="13" width="14" style="fill:#000;opacity:0.1;fill-opacity:1;stroke:none;fill-rule:nonzero"/>
 <rect width="14" height="13" x="23" y="24" rx="1" style="fill:#507bff;opacity:1;fill-opacity:1;stroke:none;fill-rule:nonzero"/>
 <path d="m 18.75 26.09 c -0.854 0 -1.499 0.18 -1.906 0.531 c -0.407 0.347 -0.594 0.895 -0.594 1.625 l 0 0.469 l -1.063 0 l 0 1.531 l 1.063 0 l 0 4.75 l 2.125 0 l 0 -4.75 l 1.844 0 l 0 -1.531 l -1.844 0 l 0 -0.469 c 0 -0.271 0.068 -0.486 0.188 -0.594 c 0.12 -0.112 0.353 -0.156 0.656 -0.156 l 1.156 0 l 0 -1.406 l -1.625 0 z" style="fill:#000;opacity:0.1;fill-opacity:1;stroke:none"/>
 <g style="fill:#f9f9f9;fill-opacity:1;stroke:none">
  <path d="m 19.389 25.1 0 1.406 -1.185 0 c -0.303 0 -0.515 0.056 -0.634 0.168 -0.12 0.108 -0.18 0.297 -0.18 0.569 l 0 0.467 1.831 0 0 1.532 -1.831 0 0 5.17 -2.142 0 0 -5.17 -1.065 0 0 -1.532 1.065 0 0 -0.467 c 0 -0.73 0.203 -1.269 0.61 -1.616 0.407 -0.351 1.037 -0.527 1.891 -0.527 l 1.64 0"/>
 </g>
 <g transform="translate(1,1)" style="fill:#000;opacity:0.1;fill-opacity:1;stroke:none">
  <path d="m 28.553 27.708 0 5.649 0.856 0 c 0.976 0 1.72 -0.242 2.232 -0.726 0.517 -0.484 0.775 -1.186 0.775 -2.108 0 -0.918 -0.256 -1.616 -0.769 -2.096 -0.513 -0.48 -1.259 -0.719 -2.239 -0.719 l -0.856 0 m -2.387 -1.804 2.518 0 c 1.406 0 2.451 0.101 3.138 0.304 0.69 0.198 1.282 0.537 1.773 1.017 0.434 0.418 0.757 0.899 0.967 1.445 0.211 0.546 0.316 1.164 0.316 1.854 0 0.699 -0.105 1.323 -0.316 1.873 -0.211 0.546 -0.533 1.027 -0.967 1.445 -0.496 0.48 -1.091 0.821 -1.786 1.023 -0.695 0.198 -1.736 0.298 -3.125 0.298 l -2.518 0 0 -9.258"/>
 </g>
 <g style="fill:#f9f9f9;fill-opacity:1;stroke:none">
  <path d="m 28.553 27.708 0 5.649 0.856 0 c 0.976 0 1.72 -0.242 2.232 -0.726 0.517 -0.484 0.775 -1.186 0.775 -2.108 0 -0.918 -0.256 -1.616 -0.769 -2.096 -0.513 -0.48 -1.259 -0.719 -2.239 -0.719 l -0.856 0 m -2.387 -1.804 2.518 0 c 1.406 0 2.451 0.101 3.138 0.304 0.69 0.198 1.282 0.537 1.773 1.017 0.434 0.418 0.757 0.899 0.967 1.445 0.211 0.546 0.316 1.164 0.316 1.854 0 0.699 -0.105 1.323 -0.316 1.873 -0.211 0.546 -0.533 1.027 -0.967 1.445 -0.496 0.48 -1.091 0.821 -1.786 1.023 -0.695 0.198 -1.736 0.298 -3.125 0.298 l -2.518 0 0 -9.258"/>
 </g>
 <g transform="translate(1,1)" style="fill:#000;opacity:0.1;fill-opacity:1;stroke:none">
  <path d="m 24.808 16.916 2.88 4.237 -2.23 0 -1.94 -2.836 -1.924 2.836 -2.241 0 2.88 -4.237 -2.769 -4.064 2.235 0 1.818 2.674 1.813 -2.674 2.246 0 -2.769 4.064"/>
 </g>
 <g style="fill:#f9f9f9;fill-opacity:1;stroke:none">
  <path d="m 24.808 16.916 2.88 4.237 -2.23 0 -1.94 -2.836 -1.924 2.836 -2.241 0 2.88 -4.237 -2.769 -4.064 2.235 0 1.818 2.674 1.813 -2.674 2.246 0 -2.769 4.064"/>
 </g>
</svg>
