<svg viewBox="0 0 48 48" xmlns="http://www.w3.org/2000/svg" xmlns:xlink="http://www.w3.org/1999/xlink">
  <linearGradient id="a" gradientTransform="matrix(0 -1 1 0 -.0000015 47.999998)" gradientUnits="userSpaceOnUse" x1="1" x2="47">
    <stop offset="0" stop-color="#dc342c"/>
    <stop offset="1" stop-color="#df443c"/>
  </linearGradient>
  <path d="m47 24c0 22.703-.297 23-23 23-22.703 0-23-.297-23-23 0-22.703.297-23 23-23 22.703 0 23 .297 23 23z" fill="url(#a)"/>
  <path d="m18.363 16c-.059 0-.129.008-.207.012-.301.02-5.977 1.035-6.34 1.137-.383.109-.707.332-.785.543-.137.363.258 1.535.773 2.324.895 1.359 2.195 2.223 4.93 3.277 1.504.578 1.816.727 2.01.945.27.293.047.43-1.938 1.273-3.098 1.316-4.496 2.434-5.086 4.086-.18.488-.258 1.781-.137 2.105.16.422.258.418 3.254-.129 3.01-.547 3.148-.578 3.402-.809.203-.191.215-.23.305-1.109.047-.5.16-1.129.234-1.387.18-.605.633-1.234 1.129-1.57 1.879-1.266 5.41-.633 7.324 1.309.719.727 1.172 1.508 1.535 2.641.207.656.422.941.746 1 .301.059.309.059 4.141-.641 2.129-.387 3.01-.574 3.141-.672.27-.199.27-.688.004-1.5-.461-1.398-1.258-2.41-2.738-3.484-.734-.531-1.656-1.031-3.223-1.75-1.488-.684-1.793-.867-1.793-1.078 0-.172.184-.25 1.363-.59 2.586-.742 3.594-1.781 3.594-3.707 0-.844-.164-1.527-.426-1.746-.344-.297-.711-.305-2.156-.055-4.633.801-4.504.773-4.715 1.105-.113.18-.109.219.098 1.02.121.461.215.949.215 1.082 0 .285-.199.758-.387.93-.461.414-1.508.695-2.582.695-1.297 0-2.27-.426-3.242-1.414-.699-.719-1.059-1.32-1.535-2.59-.418-1.117-.48-1.262-.91-1.258m0 0" opacity=".1" transform="translate(1 1)"/>
  <path d="m18.363 16c-.059 0-.129.008-.207.012-.301.02-5.977 1.035-6.34 1.137-.383.109-.707.332-.785.543-.137.363.258 1.535.773 2.324.895 1.359 2.195 2.223 4.93 3.277 1.504.578 1.816.727 2.01.945.27.293.047.43-1.938 1.273-3.098 1.316-4.496 2.434-5.086 4.086-.18.488-.258 1.781-.137 2.105.16.422.258.418 3.254-.129 3.01-.547 3.148-.578 3.402-.809.203-.191.215-.23.305-1.109.047-.5.16-1.129.234-1.387.18-.605.633-1.234 1.129-1.57 1.879-1.266 5.41-.633 7.324 1.309.719.727 1.172 1.508 1.535 2.641.207.656.422.941.746 1 .301.059.309.059 4.141-.641 2.129-.387 3.01-.574 3.141-.672.27-.199.27-.688.004-1.5-.461-1.398-1.258-2.41-2.738-3.484-.734-.531-1.656-1.031-3.223-1.75-1.488-.684-1.793-.867-1.793-1.078 0-.172.184-.25 1.363-.59 2.586-.742 3.594-1.781 3.594-3.707 0-.844-.164-1.527-.426-1.746-.344-.297-.711-.305-2.156-.055-4.633.801-4.504.773-4.715 1.105-.113.18-.109.219.098 1.02.121.461.215.949.215 1.082 0 .285-.199.758-.387.93-.461.414-1.508.695-2.582.695-1.297 0-2.27-.426-3.242-1.414-.699-.719-1.059-1.32-1.535-2.59-.418-1.117-.48-1.262-.91-1.258m0 0" fill="#f9f9f9"/>
</svg>
