<svg viewBox="0 0 48 48" xmlns="http://www.w3.org/2000/svg" xmlns:xlink="http://www.w3.org/1999/xlink">
  <linearGradient id="a" gradientTransform="matrix(0 -1 1 0 -.0000015 47.999998)" gradientUnits="userSpaceOnUse" x1="1" x2="47">
    <stop offset="0" stop-color="#545454"/>
    <stop offset="1" stop-color="#5e5e5e"/>
  </linearGradient>
  <path d="m47 24c0 22.703-.297 23-23 23-22.703 0-23-.297-23-23 0-22.703.297-23 23-23 22.703 0 23 .297 23 23z" fill="url(#a)"/>
  <g opacity=".1" transform="translate(1 1)">
    <path d="m95.47-100.05l14.07.013-.005 49.54h-14.04m-.024-49.548" stroke="#000" stroke-linecap="round" stroke-linejoin="round" stroke-width="7.552" transform="matrix(.113819 -.0523196 .0504808 .117966 8.660622 32.973342)"/>
    <path d="m-129.65-200.19l14.07.013-.005 49.54-14.07-.013m.005-49.54" stroke="#000" stroke-linecap="round" stroke-linejoin="round" stroke-width="7.552" transform="matrix(-.113819 -.0523196 -.0504808 .117966 8.660622 32.973342)"/>
    <path d="m124.69-109.77l15.03-.012-.027 36.549-14.998.021m-.003-36.558" stroke="#000" stroke-linecap="round" stroke-linejoin="round" stroke-width="7.552" transform="matrix(.118563 -.0394136 .0380284 .122881 8.660622 32.973342)"/>
    <path d="m-112.15-185.7l15.02.017.003 36.558-15.02-.017m-.003-36.558" stroke="#000" stroke-linecap="round" stroke-linejoin="round" stroke-width="7.552" transform="matrix(-.118563 -.0394136 -.0380284 .122881 8.660622 32.973342)"/>
    <path d="m36.727 24.801c-.273-.332-.57-.637-.871-.941-1.621-1.641-3.48-3.105-5.52-4.168-1.297-.676-2.691-1.227-4.133-1.488-.734-.137-1.453-.203-2.207-.207-.734 0-1.469.07-2.203.207-1.441.262-2.828.813-4.129 1.488-2.039 1.063-3.898 2.527-5.52 4.168-.301.305-.598.609-.871.941-.359.438-.359.961 0 1.398.832 1 1.82 1.895 2.82 2.711 2.164 1.758 4.637 3.227 7.363 3.82.844.184 1.691.273 2.543.27.855 0 1.699-.09 2.543-.27 2.727-.594 5.203-2.063 7.371-3.82 1-.816 1.992-1.707 2.82-2.711.359-.438.359-.961 0-1.398m-.008 0"/>
  </g>
  <g transform="translate(.00025)">
    <path d="m95.47-100.05l14.07.013-.005 49.54h-14.04m-.024-49.548" fill="#f16959" stroke="#f16959" stroke-linecap="round" stroke-linejoin="round" stroke-width="7.552" transform="matrix(.113819 -.0523196 .0504808 .117966 8.660622 32.973342)"/>
    <path d="m-129.65-200.19l14.07.013-.005 49.54-14.07-.013m.005-49.54" fill="#f16959" stroke="#f16959" stroke-linecap="round" stroke-linejoin="round" stroke-width="7.552" transform="matrix(-.113819 -.0523196 -.0504808 .117966 8.660622 32.973342)"/>
    <path d="m124.69-109.77l15.03-.012-.027 36.549-14.998.021m-.003-36.558" fill="#f16959" stroke="#f16959" stroke-linecap="round" stroke-linejoin="round" stroke-width="7.552" transform="matrix(.118563 -.0394136 .0380284 .122881 8.660622 32.973342)"/>
    <path d="m-112.15-185.7l15.02.017.003 36.558-15.02-.017m-.003-36.558" fill="#f16959" stroke="#f16959" stroke-linecap="round" stroke-linejoin="round" stroke-width="7.552" transform="matrix(-.118563 -.0394136 -.0380284 .122881 8.660622 32.973342)"/>
    <path d="m36.727 24.801c-.273-.332-.57-.637-.871-.941-1.621-1.641-3.48-3.105-5.52-4.168-1.297-.676-2.691-1.227-4.133-1.488-.734-.137-1.453-.203-2.207-.207-.734 0-1.469.07-2.203.207-1.441.262-2.828.813-4.129 1.488-2.039 1.063-3.898 2.527-5.52 4.168-.301.305-.598.609-.871.941-.359.438-.359.961 0 1.398.832 1 1.82 1.895 2.82 2.711 2.164 1.758 4.637 3.227 7.363 3.82.844.184 1.691.273 2.543.27.855 0 1.699-.09 2.543-.27 2.727-.594 5.203-2.063 7.371-3.82 1-.816 1.992-1.707 2.82-2.711.359-.438.359-.961 0-1.398m-.008 0" fill="#f4845b"/>
    <path d="m29 25.516c0 2.762-2.242 5-5 5-2.762 0-5-2.238-5-5 0-2.762 2.238-5 5-5 2.758 0 5 2.238 5 5m0 0" fill="#f9f9f9"/>
    <path d="m24 22.5c-1.66 0-3 1.344-3 3 0 1.66 1.344 3 3 3 1.656 0 3-1.344 3-3 0-1.656-1.344-3-3-3m0 0" fill="#f4845b"/>
    <path d="m25.02 24.5h5v1.996h-5c0-1 0-1 0-1.996m0 0" fill="#f4845b"/>
  </g>
</svg>
