<svg viewBox="0 0 48 48" xmlns="http://www.w3.org/2000/svg" xmlns:xlink="http://www.w3.org/1999/xlink">
  <linearGradient id="a" gradientTransform="matrix(0 -1 1 0 -.0000015 47.999998)" gradientUnits="userSpaceOnUse" x1="1" x2="47">
    <stop offset="0" stop-color="#f1bb8b"/>
    <stop offset="1" stop-color="#f3c59d"/>
  </linearGradient>
  <path d="m47 24c0 22.703-.297 23-23 23-22.703 0-23-.297-23-23 0-22.703.297-23 23-23 22.703 0 23 .297 23 23z" fill="url(#a)"/>
  <path d="m9 14.996c-.551 0-1 .449-1 1v2c0 .555.449 1 1 1h2c .551 0 1-.445 1-1v-2c0-.551-.449-1-1-1zm6 0c-.551 0-1 .449-1 1v2c0 .555.449 1 1 1h2c .551 0 1-.445 1-1v-2c0-.551-.449-1-1-1zm6 0c-.551 0-1 .449-1 1v2c0 .555.449 1 1 1h2c .551 0 1-.445 1-1v-2c0-.551-.449-1-1-1zm6 0c-.551 0-1 .449-1 1v2c0 .555.449 1 1 1h2c .551 0 1-.445 1-1v-2c0-.551-.449-1-1-1zm6 0c-.551 0-1 .449-1 1v2c0 .555.449 1 1 1h2c .551 0 1-.445 1-1v-2c0-.551-.449-1-1-1zm6 0c-.551 0-1 .449-1 1v2c0 .555.449 1 1 1h2c .551 0 1-.445 1-1v-2c0-.551-.449-1-1-1zm-30 6c-.551 0-1 .449-1 1v2c0 .555.449 1 1 1h2c .551 0 1-.445 1-1v-2c0-.551-.449-1-1-1zm6 0c-.551 0-1 .449-1 1v2c0 .555.449 1 1 1h2c .551 0 1-.445 1-1v-2c0-.551-.449-1-1-1zm6 0c-.551 0-1 .449-1 1v2c0 .555.449 1 1 1h2c .551 0 1-.445 1-1v-2c0-.551-.449-1-1-1zm6 0c-.551 0-1 .449-1 1v2c0 .555.449 1 1 1h2c .551 0 1-.445 1-1v-2c0-.551-.449-1-1-1zm6 0c-.551 0-1 .449-1 1v2c0 .555.449 1 1 1h2c .551 0 1-.445 1-1v-2c0-.551-.449-1-1-1zm6 0c-.551 0-1 .449-1 1v2c0 .555.449 1 1 1h2c .551 0 1-.445 1-1v-2c0-.551-.449-1-1-1zm-30 6c-.551 0-1 .449-1 1v2c0 .555.449 1 1 1h2c .551 0 1-.445 1-1v-2c0-.551-.449-1-1-1zm6 0c-.551 0-1 .449-1 1v2c0 .555.449 1 1 1h2c .551 0 1-.445 1-1v-2c0-.551-.449-1-1-1zm6 0c-.551 0-1 .449-1 1v2c0 .555.449 1 1 1h2c .551 0 1-.445 1-1v-2c0-.551-.449-1-1-1zm6 0c-.551 0-1 .449-1 1v2c0 .555.449 1 1 1h2c .551 0 1-.445 1-1v-2c0-.551-.449-1-1-1zm6 0c-.551 0-1 .449-1 1v2c0 .555.449 1 1 1h2c .551 0 1-.445 1-1v-2c0-.551-.449-1-1-1zm6 0c-.551 0-1 .449-1 1v2c0 .555.449 1 1 1h2c .551 0 1-.445 1-1v-2c0-.551-.449-1-1-1zm-24 6c-.551 0-1 .449-1 1v2c0 .555.449 1 1 1h20c .551 0 1-.445 1-1v-2c0-.551-.449-1-1-1z" opacity=".1" transform=""/>
  <path d="m8 13.996c-.551 0-1 .449-1 1v2c0 .555.449 1 1 1h2c .551 0 1-.445 1-1v-2c0-.551-.449-1-1-1zm6 0c-.551 0-1 .449-1 1v2c0 .555.449 1 1 1h2c .551 0 1-.445 1-1v-2c0-.551-.449-1-1-1zm6 0c-.551 0-1 .449-1 1v2c0 .555.449 1 1 1h2c .551 0 1-.445 1-1v-2c0-.551-.449-1-1-1zm6 0c-.551 0-1 .449-1 1v2c0 .555.449 1 1 1h2c .551 0 1-.445 1-1v-2c0-.551-.449-1-1-1zm6 0c-.551 0-1 .449-1 1v2c0 .555.449 1 1 1h2c .551 0 1-.445 1-1v-2c0-.551-.449-1-1-1zm6 0c-.551 0-1 .449-1 1v2c0 .555.449 1 1 1h2c .551 0 1-.445 1-1v-2c0-.551-.449-1-1-1zm-30 6c-.551 0-1 .449-1 1v2c0 .555.449 1 1 1h2c .551 0 1-.445 1-1v-2c0-.551-.449-1-1-1zm6 0c-.551 0-1 .449-1 1v2c0 .555.449 1 1 1h2c .551 0 1-.445 1-1v-2c0-.551-.449-1-1-1zm6 0c-.551 0-1 .449-1 1v2c0 .555.449 1 1 1h2c .551 0 1-.445 1-1v-2c0-.551-.449-1-1-1zm6 0c-.551 0-1 .449-1 1v2c0 .555.449 1 1 1h2c .551 0 1-.445 1-1v-2c0-.551-.449-1-1-1zm6 0c-.551 0-1 .449-1 1v2c0 .555.449 1 1 1h2c .551 0 1-.445 1-1v-2c0-.551-.449-1-1-1zm6 0c-.551 0-1 .449-1 1v2c0 .555.449 1 1 1h2c .551 0 1-.445 1-1v-2c0-.551-.449-1-1-1zm-30 6c-.551 0-1 .449-1 1v2c0 .555.449 1 1 1h2c .551 0 1-.445 1-1v-2c0-.551-.449-1-1-1zm6 0c-.551 0-1 .449-1 1v2c0 .555.449 1 1 1h2c .551 0 1-.445 1-1v-2c0-.551-.449-1-1-1zm6 0c-.551 0-1 .449-1 1v2c0 .555.449 1 1 1h2c .551 0 1-.445 1-1v-2c0-.551-.449-1-1-1zm6 0c-.551 0-1 .449-1 1v2c0 .555.449 1 1 1h2c .551 0 1-.445 1-1v-2c0-.551-.449-1-1-1zm6 0c-.551 0-1 .449-1 1v2c0 .555.449 1 1 1h2c .551 0 1-.445 1-1v-2c0-.551-.449-1-1-1zm6 0c-.551 0-1 .449-1 1v2c0 .555.449 1 1 1h2c .551 0 1-.445 1-1v-2c0-.551-.449-1-1-1zm-24 6c-.551 0-1 .449-1 1v2c0 .555.449 1 1 1h20c .551 0 1-.445 1-1v-2c0-.551-.449-1-1-1z" fill="#e47b1c"/>
</svg>
