<svg viewBox="0 0 48 48" xmlns="http://www.w3.org/2000/svg" xmlns:xlink="http://www.w3.org/1999/xlink">
  <linearGradient id="a" gradientTransform="matrix(0 -1 1 0 -.0000015 47.999998)" gradientUnits="userSpaceOnUse" x1="1" x2="47">
    <stop offset="0" stop-color="#db3771"/>
    <stop offset="1" stop-color="#de487e"/>
  </linearGradient>
  <path d="m47 24c0 22.703-.297 23-23 23-22.703 0-23-.297-23-23 0-22.703.297-23 23-23 22.703 0 23 .297 23 23z" fill="url(#a)"/>
  <path d="m15.02 16c-2.699 0-2.699 4 0 4h1.097c.605 0 .998.181 1.51.617.512.437 1.055 1.152 1.576 1.965.498.777.973 1.62 1.561 2.418-.588.798-1.063 1.641-1.561 2.418-.521.813-1.064 1.528-1.576 1.965-.512.437-.905.617-1.51.617h-1.097c-2.699 0-2.699 4 0 4h1.097c1.64 0 3.068-.694 4.096-1.57 1.028-.876 1.709-1.934 2.346-2.848.773-1.108 1.442-2.582 2.437-2.582.995 0 1.918 1.71 2.499 2.598.613.937 1.344 1.968 2.379 2.84 1.035.871 2.462 1.563 4.102 1.563h.995c2.699 0 2.699-4 0-4h-.995c-.605 0-1.012-.184-1.536-.625-.524-.441-1.078-1.159-1.612-1.973-.507-.773-.991-1.612-1.582-2.402.592-.791 1.075-1.629 1.582-2.402.534-.814 1.088-1.532 1.612-1.973.524-.441.93-.625 1.536-.625h.995c2.699 0 2.699-4 0-4h-.995c-1.64 0-3.067.691-4.102 1.563-1.035.871-1.73 1.928-2.379 2.84-.789 1.107-1.505 2.598-2.499 2.598-.995 0-1.87-1.698-2.437-2.582-.601-.938-1.318-1.972-2.346-2.848-1.028-.876-2.456-1.57-4.096-1.57" fill-rule="evenodd" opacity=".1"/>
  <path d="m14.02 15c-2.699 0-2.699 4 0 4h1.097c.605 0 .998.181 1.51.617.512.437 1.055 1.152 1.576 1.965.498.777.973 1.62 1.561 2.418-.588.798-1.063 1.641-1.561 2.418-.521.813-1.064 1.528-1.576 1.965-.512.437-.905.617-1.51.617h-1.097c-2.699 0-2.699 4 0 4h1.097c1.64 0 3.068-.694 4.096-1.57 1.028-.876 1.709-1.934 2.346-2.848.773-1.108 1.442-2.582 2.437-2.582.995 0 1.918 1.71 2.499 2.598.613.937 1.344 1.968 2.379 2.84 1.035.871 2.462 1.563 4.102 1.563h.995c2.699 0 2.699-4 0-4h-.995c-.605 0-1.012-.184-1.536-.625-.524-.441-1.078-1.159-1.612-1.973-.507-.773-.991-1.612-1.582-2.402.592-.791 1.075-1.629 1.582-2.402.534-.814 1.088-1.532 1.612-1.973.524-.441.93-.625 1.536-.625h.995c2.699 0 2.699-4 0-4h-.995c-1.64 0-3.067.691-4.102 1.563-1.035.871-1.73 1.928-2.379 2.84-.789 1.107-1.505 2.598-2.499 2.598-.995 0-1.87-1.698-2.437-2.582-.601-.938-1.318-1.972-2.346-2.848-1.028-.876-2.456-1.57-4.096-1.57" fill="#f9f9f9" fill-rule="evenodd"/>
</svg>
