<svg xmlns="http://www.w3.org/2000/svg" viewBox="0 0 48 48">
 <defs>
  <linearGradient id="linearGradient3764" x1="1" x2="47" gradientUnits="userSpaceOnUse" gradientTransform="matrix(0,-1,1,0,-1.5e-6,47.999998)">
   <stop style="stop-color:#444;stop-opacity:1"/>
   <stop offset="1" style="stop-color:#4e4e4e;stop-opacity:1"/>
  </linearGradient>
 </defs>
 <g>
  
  
  
 </g>
 <g>
  <path d="m 47,24 C 47,46.703 46.703,47 24,47 1.297,47 1,46.703 1,24 1,1.297 1.297,1 24,1 46.703,1 47,1.297 47,24 z" style="fill:url(#linearGradient3764);fill-opacity:1"/>
 </g>
 <g>
  <g>
   <g transform="translate(1,1)">
    <g style="opacity:0.1">
     <!-- color: #4e4e4e -->
     <g>
      <path d="m 18.688 11.402 l 0 0.004 c -5.129 2.379 -8.688 7.566 -8.688 13.594 c 0 8.281 6.715 14.996 15 14.996 c 8.281 0 14.996 -6.715 14.996 -14.996 c 0 -5.953 -3.473 -11.09 -8.5 -13.5 l -0.156 0.156 c 3.969 2.227 6.66 6.465 6.66 11.34 c 0 3.478 -1.373 6.621 -3.596 8.947 c -3.658 0.05 -6.828 -0.536 -7.18 -4.783 c -0.094 -0.531 0.043 -4.217 5.344 -5.904 c -0.535 -0.367 -2.328 -0.121 -3.594 -0.125 c -0.055 -0.5 0.254 -2.664 4.344 -2.906 c -1.027 -1.055 -2.32 -1.138 -4.156 -0.564 c -0.195 -0.188 -0.309 -0.168 -0.5 -0.5 l -0.006 0 c -4.602 1.227 -8.141 5.34 -12.219 8.188 c 1.738 -0.711 3.922 -1.828 4.813 -1.906 l -2.875 3.189 l 2.219 -0.971 c -0.949 2.821 -2.069 5.461 -4.67 6.629 c -2.42 -2.355 -3.924 -5.643 -3.924 -9.293 c 0 -4.926 2.746 -9.199 6.781 -11.406 c -0.027 -0.059 -0.066 -0.124 -0.094 -0.188 z m 8.912 7.354 c 0.262 0.113 0.297 0.285 0.344 0.469 c -0.457 0.094 -1.102 0.313 -1.281 0.063 c -0.082 -0.086 0.477 -0.402 0.941 -0.523 l -0.004 -0.008 z" transform="translate(-1,-1)" style="fill:#000;fill-opacity:1;stroke:none;fill-rule:nonzero"/>
     </g>
    </g>
   </g>
  </g>
 </g>
 <g>
  <g>
   <!-- color: #4e4e4e -->
   <g>
    <path d="m 27.656,16.16 c -4.602,1.227 -8.141,5.34 -12.219,8.188 1.738,-0.711 3.922,-1.828 4.813,-1.906 l -2.875,3.188 2.219,-0.969 c -0.992,2.949 -2.168,5.703 -5.03,6.781 L 24,38.7 33.88,30.942 c -3.859,0.105 -7.289,-0.348 -7.656,-4.781 -0.094,-0.531 0.043,-4.219 5.344,-5.906 -0.535,-0.367 -2.328,-0.121 -3.594,-0.125 -0.055,-0.5 0.254,-2.664 4.344,-2.906 -1.027,-1.055 -2.32,-1.137 -4.156,-0.563 -0.195,-0.188 -0.309,-0.168 -0.5,-0.5 m -1.063,1.594 c 0.262,0.113 0.297,0.285 0.344,0.469 -0.457,0.094 -1.102,0.313 -1.281,0.063 -0.082,-0.086 0.477,-0.402 0.941,-0.523" style="fill:#fab268;fill-opacity:1;stroke:none;fill-rule:nonzero"/>
    <path d="m 17.688 10.406 c -5.129 2.379 -8.688 7.566 -8.688 13.594 c 0 8.281 6.715 14.996 15 14.996 c 8.281 0 14.996 -6.715 14.996 -14.996 c 0 -5.953 -3.473 -11.09 -8.5 -13.5 l -0.156 0.156 c 3.969 2.227 6.66 6.465 6.66 11.34 c 0 6.547 -4.832 11.938 -11.125 12.844 l -1.875 3.16 l -1.875 -3.16 c -6.293 -0.906 -11.125 -6.297 -11.125 -12.844 c 0 -4.926 2.746 -9.199 6.781 -11.406 c -0.027 -0.059 -0.066 -0.125 -0.094 -0.188 m 0 0.004" style="fill:#7799b9;fill-opacity:1;stroke:none;fill-rule:nonzero"/>
   </g>
  </g>
 </g>
 <g>
  
 </g>
</svg>
