<svg viewBox="0 0 48 48" xmlns="http://www.w3.org/2000/svg" xmlns:xlink="http://www.w3.org/1999/xlink">
  <linearGradient id="a" gradientTransform="matrix(0 -1 1 0 -.0000015 47.999998)" gradientUnits="userSpaceOnUse" x1="1" x2="47">
    <stop offset="0" stop-color="#e8a20c"/>
    <stop offset="1" stop-color="#f3ac16"/>
  </linearGradient>
  <path d="m47 24c0 22.703-.297 23-23 23-22.703 0-23-.297-23-23 0-22.703.297-23 23-23 22.703 0 23 .297 23 23z" fill="url(#a)"/>
  <path d="m15 12l7.03 12.906-6.04 11.09h.984l8.008-14.711-5.059-9.293h-4.922m16.02.004l-8.008 14.711 5.059 9.289h4.922l-7.03-12.906 6.04-11.09" opacity=".1" transform="translate(1 1)"/>
  <path d="m15 12l7.03 12.906-6.04 11.09h.984l8.008-14.711-5.059-9.293h-4.922m16.02.004l-8.008 14.711 5.059 9.289h4.922l-7.03-12.906 6.04-11.09" fill="#2d2d2d"/>
</svg>
