<svg viewBox="0 0 48 48" xmlns="http://www.w3.org/2000/svg" xmlns:xlink="http://www.w3.org/1999/xlink">
  <linearGradient id="a" gradientTransform="matrix(0 -1 1 0 -.0000015 47.999998)" gradientUnits="userSpaceOnUse" x1="1" x2="47">
    <stop offset="0" stop-color="#dbdbdb"/>
    <stop offset="1" stop-color="#e5e5e5"/>
  </linearGradient>
  <path d="m47 24c0 22.703-.297 23-23 23-22.703 0-23-.297-23-23 0-22.703.297-23 23-23 22.703 0 23 .297 23 23z" fill="url(#a)"/>
  <path d="m32.602 13c-.842-.062-2.08.626-3.404 2.615h.016l-3.492 3.969-5.123-5.842c-1.27-1.01-5.092-.234-3.197 1.844l5.924 6.783-7.553 10.91c-2.045 4.684.397 4.078 1.898 2.775.655.457 1.312.224 1.967.018.016-.091.031-.181.047-.271l3.686-1.088c0 0 3.399-3.152 5.934-5.498l2.504 2.867c.832.211 4.639-.141 2.604-2.59l-2.424-2.764c1.301-1.206 2.087-1.928 3-2.777 0 0 .192-.637-.979-1.883-.85-.899-1.478-1.043-1.738-1.059l-2.979 2.645-1.74-1.984 5.688-5.895c.877-1.378.446-2.696-.637-2.775m-7.549 11.348l1.563 1.789c-2.546 2.363-6.04 5.607-6.04 5.607l-1.203 3.266c-.247.16-.772.012-.816.012z" opacity=".1" transform=""/>
  <path d="m19.598 12.742l13.813 15.75c2.035 2.449-1.773 2.801-2.605 2.59l-14.406-16.496c-1.895-2.078 1.93-2.852 3.199-1.844m0 0" fill="#2d2d2d"/>
  <path d="m28.21 14.617l-5.676 6.453-7.762 11.211c-2.559 5.863 1.937 3.457 2.781 1.742l6.645-10.91 8.04-8.336c1.559-2.449-1.012-4.707-4.04-.16m0 0" fill="#2d2d2d"/>
  <path d="m16.555 33.922c1.168.223 1.582.313 2.305-.133-.074.43-.148.855-.223 1.285-.707.223-1.418.488-2.125-.133m.043-1.02" fill="#2d2d2d"/>
  <path d="m31.27 20.01l-11.697 10.734-1.57 4.258 4.367-1.289.012.012.023-.023h.004l11.578-10.75c0 0 .192-.637-.979-1.883-.85-.899-1.478-1.043-1.738-1.059z" fill="#3686dd"/>
</svg>
