<svg viewBox="0 0 48 48" xmlns="http://www.w3.org/2000/svg" xmlns:xlink="http://www.w3.org/1999/xlink">
  <linearGradient id="a" gradientTransform="matrix(0 -1 1 0 -.0000015 47.999998)" gradientUnits="userSpaceOnUse" x1="1" x2="47">
    <stop offset="0" stop-color="#436769"/>
    <stop offset="1" stop-color="#4b7376"/>
  </linearGradient>
  <path d="m47 24c0 22.703-.297 23-23 23-22.703 0-23-.297-23-23 0-22.703.297-23 23-23 22.703 0 23 .297 23 23z" fill="url(#a)"/>
  <path d="m25 10a15 15 0 0 0-15 15 15 15 0 0 0  15 15 15 15 0 0 0  15-15 15 15 0 0 0-15-15m0 2a13 13 0 0 1 8.129 2.871l-2.135 2.135a10 10 0 0 0-5.994-2.006 10 10 0 0 0-5.99 2.01l-2.145-2.145a13 13 0 0 1 8.135-2.865m10.135 4.865a13 13 0 0 1 2.865 8.135 13 13 0 0 1-2.87 8.13l-2.136-2.138a10 10 0 0 0 2.006-5.992 10 10 0 0 0-2.008-5.99l2.143-2.143zm-20.264.006l2.135 2.135a10 10 0 0 0-2.006 5.994 10 10 0 0 0  2.01 5.99l-2.145 2.145a13 13 0 0 1-2.865-8.135 13 13 0 0 1  2.871-8.129m10.129.129a8 8 0 0 1 4.566 1.434l-2.18 2.18a5 5 0 0 0-2.386-.614 5 5 0 0 0-2.391.609l-2.17-2.17a8 8 0 0 1 4.561-1.439m-6.566 3.434l2.18 2.18a5 5 0 0 0-.614 2.386 5 5 0 0 0  .609 2.391l-2.171 2.17a8 8 0 0 1-1.438-4.561 8 8 0 0 1  1.434-4.566m13.13.006a8 8 0 0 1 1.436 4.56 8 8 0 0 1-1.434 4.566l-2.179-2.179a5 5 0 0 0  .613-2.387 5 5 0 0 0-.609-2.391l2.17-2.17zm-6.564 2.56l1.998 2-1.998 2-2-2zm-2.387 6.387a5 5 0 0 0 2.387.613 5 5 0 0 0  2.391-.609l2.172 2.17a8 8 0 0 1-4.563 1.439 8 8 0 0 1-4.566-1.434l2.18-2.18zm8.379 3.604l2.145 2.145a13 13 0 0 1-8.137 2.864 13 13 0 0 1-8.131-2.87l2.137-2.137a10 10 0 0 0 5.994 2.007 10 10 0 0 0  5.992-2.01" opacity=".1"/>
  <path d="m24 9a15 15 0 0 0-15 15 15 15 0 0 0  15 15 15 15 0 0 0  15-15 15 15 0 0 0-15-15zm0 2a13 13 0 0 1 13 13 13 13 0 0 1-13 13 13 13 0 0 1-13-13 13 13 0 0 1  13-13zm0 3a10 10 0 0 0-10 10 10 10 0 0 0  10 10 10 10 0 0 0  10-10 10 10 0 0 0-10-10zm0 2a8 8 0 0 1 8 8 8 8 0 0 1-8 8 8 8 0 0 1-8-8 8 8 0 0 1  8-8zm0 3a5 5 0 0 0-5 5 5 5 0 0 0  5 5 5 5 0 0 0  5-5 5 5 0 0 0-5-5zm0 3l2 2-2 2-2-2z" fill="#f9f9f9"/>
  <path d="m14.746 13.33c-.361 0-.723.139-1 .416-.554.554-.554 1.446 0 2l8.254 8.254 2-2-8.254-8.254c-.277-.277-.639-.416-1-.416zm11.252 10.67l-1.998 2 8.254 8.252c.554.554 1.446.554 2 0 .554-.554.554-1.446 0-2z" fill="#f95357"/>
  <path d="m33.25 13.33c-.361 0-.723.139-1 .416l-8.254 8.254 2 2 8.254-8.254c.554-.554.554-1.446 0-2-.277-.277-.639-.416-1-.416zm-11.254 10.67l-8.254 8.252c-.554.554-.554 1.446 0 2 .554.554 1.446.554 2 0l8.254-8.252" fill="#45da26"/>
</svg>
