<svg viewBox="0 0 48 48" xmlns="http://www.w3.org/2000/svg" xmlns:xlink="http://www.w3.org/1999/xlink">
  <linearGradient id="a" gradientTransform="matrix(0 -1 1 0 -.0000015 47.999998)" gradientUnits="userSpaceOnUse" x1="1" x2="47">
    <stop offset="0" stop-color="#5d8ec5"/>
    <stop offset="1" stop-color="#6c99ca"/>
  </linearGradient>
  <path d="m47 24c0 22.703-.297 23-23 23-22.703 0-23-.297-23-23 0-22.703.297-23 23-23 22.703 0 23 .297 23 23z" fill="url(#a)"/>
  <g opacity=".1" transform="translate(1 1)">
    <path d="m17 22h14c .539 0 1 .453 1 1v8c0 .547-.461 1-1 1h-14c-.539 0-1-.453-1-1v-8c0-.547.461-1 1-1m0 0"/>
    <path d="m18.5 17.598l-2.504 3.398h7v-5h-3c-.5 0-1.5 1.602-1.5 1.602m6.496-1.602v5h7l-2.504-3.398c0 0-.996-1.602-1.496-1.602m-3 0"/>
    <path d="m37 11v1c-.969.078-1.805.164-2.52.77-.688.574-1.602 1.727-2.75 3.457l-5.73 8.777v10c .457.422 2.293.973 4 1v .996h-12v-.996c1.727-.082 3.59-.582 4-1v-10l-4.777-7.09c-1.984-2.828-3.293-4.555-3.934-5.184-.637-.629-1.289-.73-2.293-.73v-1h11v1c-.281.023-.598.039-.953.039-1.172.078-2.066.191-2.066.844 0 .574.215 1.156.648 1.73l5.375 8.387 5.738-8.504c.383-.602.574-1.152.574-1.492 0-.496-.383-.816-.789-1h-1.523v-1h8"/>
  </g>
  <path d="m17 22h14c .539 0 1 .453 1 1v8c0 .547-.461 1-1 1h-14c-.539 0-1-.453-1-1v-8c0-.547.461-1 1-1m0 0" fill="#ccc"/>
  <path d="m18.5 17.598l-2.504 3.398h7v-5h-3c-.5 0-1.5 1.602-1.5 1.602m6.496-1.602v5h7l-2.504-3.398c0 0-.996-1.602-1.496-1.602m-3 0" fill="#ccc"/>
  <path d="m37 11v1c-.969.078-1.805.164-2.52.77-.688.574-1.602 1.727-2.75 3.457l-5.73 8.777v10c .457.422 2.293.973 4 1v .996h-12v-.996c1.727-.082 3.59-.582 4-1v-10l-4.777-7.09c-1.984-2.828-3.293-4.555-3.934-5.184-.637-.629-1.289-.73-2.293-.73v-1h11v1c-.281.023-.598.039-.953.039-1.172.078-2.066.191-2.066.844 0 .574.215 1.156.648 1.73l5.375 8.387 5.738-8.504c.383-.602.574-1.152.574-1.492 0-.496-.383-.816-.789-1h-1.523v-1h8" fill="#f9f9f9"/>
</svg>
