<svg viewBox="0 0 48 48" xmlns="http://www.w3.org/2000/svg" xmlns:xlink="http://www.w3.org/1999/xlink">
  <linearGradient id="a" gradientTransform="matrix(0 -1 1 0 -.0000015 47.999998)" gradientUnits="userSpaceOnUse" x1="1" x2="47">
    <stop offset="0" stop-color="#edd88f"/>
    <stop offset="1" stop-color="#f0dea0"/>
  </linearGradient>
  <path d="m47 24c0 22.703-.297 23-23 23-22.703 0-23-.297-23-23 0-22.703.297-23 23-23 22.703 0 23 .297 23 23z" fill="url(#a)"/>
  <path d="m18 13c-1.105 0-2 .895-2 2v4c0 1.105.895 2 2 2-1.333 0-2.667 0-4 0-1.105 0-2 .895-2 2v4c0 1.105.895 2 2 2 1.333 0 2.667 0 4 0-1.105 0-2 .895-2 2v4c0 1.105.895 2 2 2 6 0 12 0 18 0v-8h-4.01v-8h4.01v-8c-6 0-12 0-18 0" opacity=".1" transform=""/>
  <path d="m17 28c-1.105 0-2 .895-2 2v4c0 1.105.895 2 2 2 6 0 12 0 18 0v-8c-6 0-12 0-18 0" fill="#537f95"/>
  <path d="m31.465 29c-1.371-.001-2.469 1.098-2.469 2.469v1.063c0 1.371 1.098 2.471 2.469 2.471h3.531v-6z" fill="#e1e1e1"/>
  <path d="m31.465 29c-.809 0-1.52.402-1.969 1h5.5v-1zm-2.406 2c-.027.148-.064.305-.064.469v.531h6v-1zm-.002 2c .074.375.219.703.438 1h5.5v-1z" fill="#c4c4c4"/>
  <path d="m13 20c-1.105 0-2 .895-2 2v4c0 1.105.895 2 2 2h17.998v-8z" fill="#75744b"/>
  <path d="m27.465 21c-1.371-.001-2.469 1.098-2.469 2.469v1.063c0 1.371 1.098 2.471 2.469 2.471h3.531v-6z" fill="#e1e1e1"/>
  <path d="m27.465 21c-.809 0-1.52.402-1.969 1h5.5v-1zm-2.406 2c-.027.148-.064.305-.064.469v.531h6v-1zm-.002 2c .074.375.219.703.438 1h5.5v-1z" fill="#c4c4c4"/>
  <path d="m17 12c-1.105 0-2 .895-2 2v4c0 1.105.895 2 2 2 6 0 12 0 18 0v-8c-6 0-12 0-18 0" fill="#c49422"/>
  <path d="m31.465 13c-1.371 0-2.469 1.098-2.469 2.469v1.063c0 1.371 1.098 2.471 2.469 2.471h3.531v-6l-3.531-.002z" fill="#e1e1e1"/>
  <path d="m31.465 13c-.809 0-1.52.402-1.969 1h5.5v-1zm-2.406 2c-.027.148-.064.305-.064.469v.531h6v-1zm-.002 2c .074.375.219.703.438 1h5.5v-1z" fill="#c4c4c4"/>
</svg>
