<svg viewBox="0 0 48 48" xmlns="http://www.w3.org/2000/svg" xmlns:xlink="http://www.w3.org/1999/xlink">
  <linearGradient id="a" gradientTransform="matrix(0 -1 1 0 -.0000015 47.999998)" gradientUnits="userSpaceOnUse" x1="1" x2="47">
    <stop offset="0" stop-color="#edd88f"/>
    <stop offset="1" stop-color="#f0dea0"/>
  </linearGradient>
  <path d="m47 24c0 22.703-.297 23-23 23-22.703 0-23-.297-23-23 0-22.703.297-23 23-23 22.703 0 23 .297 23 23z" fill="url(#a)"/>
  <path d="m28 13c-9 0-16 3-16 12 0 5.821 4.666 6.925 11.402 7.137.904 1.977-.745 4.537-2.402 5.863 4.04 0 7.252-3.874 8.463-5.908 5.059-.585 8.537-3.772 8.537-9.807 0-5.681-2.741-9.285-10-9.285" opacity=".1"/>
  <path d="m27 12c-9 0-16 3-16 12 0 5.821 4.666 6.925 11.402 7.137.904 1.977-.745 4.537-2.402 5.863 4.04 0 7.252-3.874 8.463-5.908 5.059-.585 8.537-3.772 8.537-9.807 0-5.681-2.741-9.285-10-9.285" fill="#b28f16"/>
</svg>
