<svg xmlns="http://www.w3.org/2000/svg" viewBox="0 0 48 48">
 <defs>
  <linearGradient id="linearGradient3764" x1="1" x2="47" gradientUnits="userSpaceOnUse" gradientTransform="matrix(0,-1,1,0,-1.5e-6,47.999998)">
   <stop style="stop-color:#1c6843;stop-opacity:1"/>
   <stop offset="1" style="stop-color:#20794f;stop-opacity:1"/>
  </linearGradient>
 </defs>
 <g>
  
  
  
 </g>
 <g>
  <path d="m 47,24 C 47,46.703 46.703,47 24,47 1.297,47 1,46.703 1,24 1,1.297 1.297,1 24,1 46.703,1 47,1.297 47,24 z" style="fill:url(#linearGradient3764);fill-opacity:1"/>
 </g>
 <g>
  <g>
   <g transform="translate(1,1)">
    <g style="opacity:0.1">
     <!-- color: #20794f -->
     <g>
      <path d="m 18.664 10 c 1.332 1.34 1.324 2.406 1.324 4.02 l 0 3.336 c -4.66 1.563 -7.992 5.77 -7.992 10.734 c 0 4.258 2.469 7.973 6.117 9.926 l 11.77 0 c 3.648 -1.953 6.117 -5.668 6.117 -9.926 c 0 -4.953 -3.344 -9.156 -8 -10.734 l 0 -3.336 c 0 -1.605 -0.008 -2.676 1.324 -4.02 l -10.664 0 m 0.008 0" style="fill:#000;fill-opacity:1;stroke:none;fill-rule:nonzero"/>
     </g>
    </g>
   </g>
  </g>
 </g>
 <g>
  <g>
   <!-- color: #20794f -->
   <g>
    <path d="m 18.664 10 c 1.332 1.34 1.324 2.406 1.324 4.02 l 0 3.336 c -2.941 0.986 -5.349 3.03 -6.729 5.645 1.74 1 19.74 1 21.471 0 -1.383 -2.611 -3.796 -4.65 -6.73 -5.645 l 0 -3.336 c 0 -1.605 -0.008 -2.676 1.324 -4.02" style="fill:#95dee4;fill-opacity:1;stroke:none;fill-rule:nonzero"/>
    <path d="M 13.25,23 C 12.449,24.523 12,26.242 12,28.063 c 0,4.254 2.477,7.984 6.125,9.938 l 11.75,0 C 33.523,36.048 36,32.317 36,28.063 36,26.243 35.551,24.524 34.75,23 m -21.5,0" style="fill:#25a368;fill-opacity:1;stroke:none;fill-rule:nonzero"/>
    <path d="M 26.5 35 C 26.223 35 26 35.223 26 35.5 C 26 35.773 26.223 36 26.5 36 C 26.777 36 27 35.777 27 35.5 C 27 35.223 26.777 35 26.5 35 z " style="fill:#f9f9f9;fill-opacity:1;stroke:none;fill-rule:nonzero"/>
    <path d="m 24.75 32.5 c -0.414 0 -0.75 0.336 -0.75 0.75 c 0 0.414 0.336 0.75 0.75 0.75 c 0.414 0 0.75 -0.336 0.75 -0.75 c 0 -0.414 -0.336 -0.75 -0.75 -0.75 z" style="fill:#f9f9f9;fill-opacity:1;stroke:none;fill-rule:nonzero"/>
    <path d="m 26 29 c -0.551 0 -1 0.445 -1 1 c 0 0.551 0.449 1 1 1 c 0.551 0 1 -0.449 1 -1 c 0 -0.551 -0.449 -1 -1 -1 z" style="fill:#f9f9f9;fill-opacity:1;stroke:none;fill-rule:nonzero"/>
    <path d="M 25.5 21 C 24.672 21 24 21.672 24 22.5 C 24 23.324 24.672 24 25.5 24 C 26.328 24 27 23.328 27 22.5 C 27 21.672 26.328 21 25.5 21 z " style="fill:#f9f9f9;fill-opacity:1;stroke:none;fill-rule:nonzero"/>
    <path d="m 23.25 25.5 c -0.691 0 -1.25 0.559 -1.25 1.25 c 0 0.687 0.559 1.25 1.25 1.25 c 0.691 0 1.25 -0.559 1.25 -1.25 c 0 -0.687 -0.559 -1.25 -1.25 -1.25 z" style="fill:#f9f9f9;fill-opacity:1;stroke:none;fill-rule:nonzero"/>
   </g>
  </g>
 </g>
 <g>
  
 </g>
</svg>
