<svg xmlns="http://www.w3.org/2000/svg" viewBox="0 0 48 48">
 <defs>
  <linearGradient id="linearGradient3845" y1="47" x2="0" y2="1" gradientUnits="userSpaceOnUse">
   <stop style="stop-color:#d2bd24;stop-opacity:1"/>
   <stop offset="1" style="stop-color:#dbc62f;stop-opacity:1"/>
  </linearGradient>
 </defs>
 <g>
  
  
  
 </g>
 <g>
  <path d="m 24 1 c 22.703 0 23 0.297 23 23 c 0 22.703 -0.297 23 -23 23 -22.703 0 -23 -0.297 -23 -23 0 -22.703 0.297 -23 23 -23 z" style="fill:url(#linearGradient3845);fill-opacity:1"/>
 </g>
 <g>
  
 </g>
 <g>
  <g>
   <g>
    <g>
     <path d="m 38 12 -26 0 0 26 26 0" style="fill:#000;opacity:0.1;fill-opacity:1;stroke:none;fill-rule:evenodd"/>
     <path d="m 37 11 -26 0 0 26 26 0" style="fill:#f5efef;fill-opacity:1;stroke:none;fill-rule:evenodd"/>
    </g>
    <g>
     <g>
      <g transform="translate(0,-0.004)">
       <g>
        <g transform="translate(1,1)">
         <g style="opacity:0.1">
          <!-- color: #cccdb6 -->
         </g>
        </g>
       </g>
      </g>
     </g>
    </g>
   </g>
  </g>
  <path d="m 12 13 24 0 0 1 -24 0 z" style="fill:#bfbfbf;fill-opacity:0.853;stroke:none;fill-rule:nonzero"/>
  <path d="m 12 15 24 0 0 1 -24 0 z" style="fill:#bfbfbf;fill-opacity:0.853;stroke:none;fill-rule:nonzero"/>
  <path d="m 12 17 24 0 0 1 -24 0 z" style="fill:#bfbfbf;fill-opacity:0.853;stroke:none;fill-rule:nonzero"/>
  <path d="m 12 19 24 0 0 1 -24 0 z" style="fill:#bfbfbf;fill-opacity:0.853;stroke:none;fill-rule:nonzero"/>
  <path d="m 12 21 24 0 0 1 -24 0 z" style="fill:#bfbfbf;fill-opacity:0.853;stroke:none;fill-rule:nonzero"/>
  <path d="m 12 23 24 0 0 1 -24 0 z" style="fill:#bfbfbf;fill-opacity:0.853;stroke:none;fill-rule:nonzero"/>
  <path d="m 12 25 24 0 0 1 -24 0 z" style="fill:#bfbfbf;fill-opacity:0.853;stroke:none;fill-rule:nonzero"/>
  <path d="m 12 27 24 0 0 1 -24 0 z" style="fill:#bfbfbf;fill-opacity:0.853;stroke:none;fill-rule:nonzero"/>
  <path d="m 12 29 24 0 0 1 -24 0 z" style="fill:#bfbfbf;fill-opacity:0.853;stroke:none;fill-rule:nonzero"/>
  <path d="m 12 31 24 0 0 1 -24 0 z" style="fill:#bfbfbf;fill-opacity:0.853;stroke:none;fill-rule:nonzero"/>
  <path d="m 12 33 24 0 0 1 -24 0 z" style="fill:#bfbfbf;fill-opacity:0.853;stroke:none;fill-rule:nonzero"/>
 </g>
 <g>
  <path d="m 29 12 a 9 9 0 0 0 -9 9 9 9 0 0 0 1.928 5.551 l -4.682 4.684 -0.313 -0.313 L 12 35.855 13.145 37 l 2 0 3.934 -3.934 L 18.75 32.738 23.424 28.06 A 9 9 0 0 0 29 30 9 9 0 0 0 37 25.12 l 0 -8.223 A 9 9 0 0 0 29 12 m 0 2 a 7 7 0 0 1 7 7 7 7 0 0 1 -7 7 7 7 0 0 1 -7 -7 7 7 0 0 1 7 -7 z" style="fill:#000;opacity:0.1;fill-opacity:1;stroke:none;fill-rule:evenodd"/>
  <path d="m 36.602 19.898 c 0 4.697 -3.805 8.5 -8.5 8.5 -4.699 0 -8.504 -3.803 -8.5 -8.5 -0.004 -4.693 3.801 -8.5 8.5 -8.5 4.695 0 8.5 3.807 8.5 8.5 m 0 0" style="fill:#f5efef;fill-opacity:1;stroke:none;fill-rule:nonzero"/>
  <path d="m 22.622 26.866 -1.504 -1.504 -4.934 4.934 1.504 1.504" style="fill:#d24c37;fill-opacity:1;stroke:none;fill-rule:nonzero"/>
  <path d="M 18.079,32.066 15.934,29.921 11,34.855 13.145,37" style="fill:#222b30;fill-opacity:1;stroke:none;fill-rule:nonzero"/>
  <path d="M 30.801,24 30,22 26,22 25.199,24 23,24 l 4,-10 2,0 4,10 -2.199,0 M 28,17 l -1.2,3 2.4,0" style="fill:#606060;fill-opacity:1;stroke:none"/>
  <path d="M 28.5 11.5 A 9 9 0 0 0 19.701 18.654 C 19.642 19.06 19.601 19.475 19.602 19.898 C 19.598 24.595 23.403 28.398 28.1 28.398 C 32.797 28.398 36.602 24.595 36.602 19.898 C 36.602 15.93 33.876 12.603 30.2 11.668 A 9 9 0 0 0 28.5 11.5 z M 28.5 13.5 A 7 7 0 0 1 35.5 20.5 A 7 7 0 0 1 28.5 27.5 A 7 7 0 0 1 21.5 20.5 A 7 7 0 0 1 28.5 13.5 z" style="fill:#000;opacity:0.1;fill-opacity:1;stroke:none"/>
  <path d="M 28 11 A 9 9 0 0 0 19 20 A 9 9 0 0 0 28 29 A 9 9 0 0 0 37 20 A 9 9 0 0 0 28 11 z M 28 13 A 7 7 0 0 1 35 20 A 7 7 0 0 1 28 27 A 7 7 0 0 1 21 20 A 7 7 0 0 1 28 13 z" style="fill:#b19b9b;opacity:1;fill-opacity:1;stroke:none"/>
 </g>
</svg>
