<svg xmlns="http://www.w3.org/2000/svg" viewBox="0 0 48 48">
 <defs>
  <linearGradient id="linearGradient3764" x1="1" x2="47" gradientUnits="userSpaceOnUse" gradientTransform="matrix(0,-1,1,0,-1.5e-6,47.999998)">
   <stop style="stop-color:#e1e1e1;stop-opacity:1"/>
   <stop offset="1" style="stop-color:#ebebeb;stop-opacity:1"/>
  </linearGradient>
 </defs>
 <g>
  
  
  
 </g>
 <g>
  <path d="m 47,24 C 47,46.703 46.703,47 24,47 1.297,47 1,46.703 1,24 1,1.297 1.297,1 24,1 46.703,1 47,1.297 47,24 z" style="fill:url(#linearGradient3764);fill-opacity:1"/>
 </g>
 <g>
  
 </g>
 <path d="m 15.437 13.06 -3.857 4.596 l 10.42 8.742 0 13.602 6 0 0 -13.602 10.42 -8.742 -3.857 -4.596 -9.563 8.02 -9.563 -8.02 z" style="fill:#000;opacity:0.1;fill-opacity:1;stroke:none;fill-rule:nonzero"/>
 <path d="m 21 24 l 0 15 l 6 0 l 0 -15 l -6 0 z" style="fill:#df3434;opacity:1;fill-opacity:1;stroke:none;fill-rule:nonzero"/>
 <path d="m 14.438 12.06 l -3.857 4.596 l 11.492 9.643 l 3.855 -4.598 l -11.49 -9.641 z" style="fill:#df3434;opacity:1;fill-opacity:1;stroke:none;fill-rule:nonzero"/>
 <path d="m 33.563 12.06 l -11.49 9.641 l 3.855 4.598 l 11.492 -9.643 l -3.857 -4.596 z" style="fill:#df3434;opacity:1;fill-opacity:1;stroke:none;fill-rule:nonzero"/>
</svg>
