<svg viewBox="0 0 48 48" xmlns="http://www.w3.org/2000/svg" xmlns:xlink="http://www.w3.org/1999/xlink">
  <linearGradient id="a" gradientTransform="matrix(0 -1 1 0 -.0000015 47.999998)" gradientUnits="userSpaceOnUse" x1="1" x2="47">
    <stop offset="0" stop-color="#e1e1e1"/>
    <stop offset="1" stop-color="#ebebeb"/>
  </linearGradient>
  <path d="m47 24c0 22.703-.297 23-23 23-22.703 0-23-.297-23-23 0-22.703.297-23 23-23 22.703 0 23 .297 23 23z" fill="url(#a)"/>
  <path d="m15.437 13.06l-3.857 4.596 10.42 8.742v13.602h6v-13.602l10.42-8.742-3.857-4.596-9.563 8.02z" opacity=".1"/>
  <path d="m21 24v15h6v-15z" fill="#df3434"/>
  <path d="m14.438 12.06l-3.857 4.596 11.492 9.643 3.855-4.598z" fill="#df3434"/>
  <path d="m33.563 12.06l-11.49 9.641 3.855 4.598 11.492-9.643z" fill="#df3434"/>
</svg>
