<svg viewBox="0 0 48 48" xmlns="http://www.w3.org/2000/svg" xmlns:xlink="http://www.w3.org/1999/xlink">
  <linearGradient id="a" gradientTransform="matrix(0 -1 1 0 -.0000015 47.999998)" gradientUnits="userSpaceOnUse" x1="1" x2="47">
    <stop offset="0" stop-color="#494953"/>
    <stop offset="1" stop-color="#52525d"/>
  </linearGradient>
  <path d="m47 24c0 22.703-.297 23-23 23-22.703 0-23-.297-23-23 0-22.703.297-23 23-23 22.703 0 23 .297 23 23z" fill="url(#a)"/>
  <g opacity=".1" transform="translate(1 1)">
    <path d="m16.313 26h15.371c2.938 0 5.316 2.238 5.316 5 0 2.762-2.379 5-5.316 5h-15.371c-2.934 0-5.313-2.238-5.313-5 0-2.762 2.379-5 5.313-5m0 0"/>
    <path d="m16.313 12h15.371c2.938 0 5.316 2.238 5.316 5 0 2.762-2.379 5-5.316 5h-15.371c-2.934 0-5.313-2.238-5.313-5 0-2.762 2.379-5 5.313-5m0 0"/>
  </g>
  <path d="m16.313 26h15.371c2.938 0 5.316 2.238 5.316 5 0 2.762-2.379 5-5.316 5h-15.371c-2.934 0-5.313-2.238-5.313-5 0-2.762 2.379-5 5.313-5m0 0" fill="#f9f9f9"/>
  <path d="m16.313 12h15.371c2.938 0 5.316 2.238 5.316 5 0 2.762-2.379 5-5.316 5h-15.371c-2.934 0-5.313-2.238-5.313-5 0-2.762 2.379-5 5.313-5m0 0" fill="#f9f9f9"/>
  <path d="m27.25 27h4.496c2.352 0 4.254 1.793 4.254 4 0 2.211-1.902 4-4.254 4h-4.496c-2.348 0-4.25-1.789-4.25-4 0-2.207 1.902-4 4.25-4m0 0" fill="#999"/>
  <path d="m16.254 13h4.496c2.348 0 4.25 1.793 4.25 4 0 2.211-1.902 4-4.25 4h-4.496c-2.348 0-4.254-1.789-4.254-4 0-2.207 1.906-4 4.254-4m0 0" fill="#4c9a0a"/>
</svg>
