<svg xmlns="http://www.w3.org/2000/svg" viewBox="0 0 48 48">
 <defs>
  <linearGradient id="linearGradient3764" x1="1" x2="47" gradientUnits="userSpaceOnUse" gradientTransform="matrix(0,-1,1,0,-1.5e-6,47.999998)">
   <stop style="stop-color:#35b9e9;stop-opacity:1"/>
   <stop offset="1" style="stop-color:#47bfeb;stop-opacity:1"/>
  </linearGradient>
 </defs>
 <g>
  
  
  
 </g>
 <g>
  <path d="m 47,24 C 47,46.703 46.703,47 24,47 1.297,47 1,46.703 1,24 1,1.297 1.297,1 24,1 46.703,1 47,1.297 47,24 z" style="fill:url(#linearGradient3764);fill-opacity:1"/>
 </g>
 <g>
  
 </g>
 <g transform="scale(3.543307,3.543307)">
  <g transform="matrix(0.34493828,0,0,0.34493828,-25.368643,-39.511112)" style="fill:#000;opacity:0.1;fill-opacity:1;stroke:none">
   <g transform="translate(85,126)">
    <path d="m 3.6,7.8 c 1.4,2.8 3.8,5.1 6.6,6.6 l 2.2,-2.2 c 0.3,-0.3 0.7,-0.4 1,-0.2 1.1,0.4 2.3,0.6 3.6,0.6 0.6,0 1,0.4 1,1 l 0,3.4 c 0,0.6 -0.4,1 -1,1 C 7.6,18 0,10.4 0,1 0,0.4 0.4,0 1,0 l 3.5,0 c 0.6,0 1,0.4 1,1 0,1.2 0.2,2.4 0.6,3.6 0.1,0.3 0,0.7 -0.2,1 l -2.3,2.2 0,0 z"/>
   </g>
  </g>
  <g transform="matrix(0.34493828,0,0,0.34493828,-25.650865,-39.793334)" style="fill:#e9eef1;fill-opacity:1;stroke:none">
   <g transform="translate(85,126)">
    <path d="m 3.6,7.8 c 1.4,2.8 3.8,5.1 6.6,6.6 l 2.2,-2.2 c 0.3,-0.3 0.7,-0.4 1,-0.2 1.1,0.4 2.3,0.6 3.6,0.6 0.6,0 1,0.4 1,1 l 0,3.4 c 0,0.6 -0.4,1 -1,1 C 7.6,18 0,10.4 0,1 0,0.4 0.4,0 1,0 l 3.5,0 c 0.6,0 1,0.4 1,1 0,1.2 0.2,2.4 0.6,3.6 0.1,0.3 0,0.7 -0.2,1 l -2.3,2.2 0,0 z" style="fill:#f6f8fa"/>
   </g>
  </g>
 </g>
</svg>
