<svg viewBox="0 0 48 48" xmlns="http://www.w3.org/2000/svg" xmlns:xlink="http://www.w3.org/1999/xlink">
  <linearGradient id="a" gradientTransform="matrix(0 -1 1 0 -.0000015 47.999998)" gradientUnits="userSpaceOnUse" x1="1" x2="47">
    <stop offset="0" stop-color="#739bd7"/>
    <stop offset="1" stop-color="#82a5dc"/>
  </linearGradient>
  <path d="m47 24c0 22.703-.297 23-23 23-22.703 0-23-.297-23-23 0-22.703.297-23 23-23 22.703 0 23 .297 23 23z" fill="url(#a)"/>
  <path d="m21.523 13.359c-.719.797-1.035 1.867-1.188 2.316-.461 1.25.77 1.148 1.586-.148 1.281-1.945 1.793-.25 1.844 5.887.051 5.191-.102 6.191-1.176 8.285-1.488 2.996-3.176 4.195-4.867 3.445-.922-.398-1.434-.348-2.098.102-.77.547-.82.746-.203 1.695 1.84 2.844 6.297-.148 11.52-7.785 3.352-4.84 4.484-11.141 4.777-12.08.254-1.01.547-2.98-.168-2.98-2.453 1.602-4.211 12.875-5.387 13.01-.125-4.984-.066-17.15-4.645-11.738m.004.004" opacity=".1" transform="translate(1 1)"/>
  <path d="m21.523 13.359c-.719.797-1.035 1.867-1.188 2.316-.461 1.25.77 1.148 1.586-.148 1.281-1.945 1.793-.25 1.844 5.887.051 5.191-.102 6.191-1.176 8.285-1.488 2.996-3.176 4.195-4.867 3.445-.922-.398-1.434-.348-2.098.102-.77.547-.82.746-.203 1.695 1.84 2.844 6.297-.148 11.52-7.785 3.352-4.84 4.484-11.141 4.777-12.08.254-1.01.547-2.98-.168-2.98-2.453 1.602-4.211 12.875-5.387 13.01-.125-4.984-.066-17.15-4.645-11.738m.004.004" fill="#2d2d2d"/>
</svg>
