<svg xmlns="http://www.w3.org/2000/svg" viewBox="0 0 48 48">
 <defs>
  <linearGradient id="linearGradient3764" y1="47" x2="0" y2="1" gradientUnits="userSpaceOnUse">
   <stop style="stop-color:#ff8585;stop-opacity:1"/>
   <stop offset="1" style="stop-color:#f99;stop-opacity:1"/>
  </linearGradient>
 </defs>
 <g>
  
  
  
 </g>
 <g>
  <path d="m 47,24 C 47,46.703 46.703,47 24,47 1.297,47 1,46.703 1,24 1,1.297 1.297,1 24,1 46.703,1 47,1.297 47,24 z" style="fill:url(#linearGradient3764);fill-opacity:1"/>
 </g>
 <g>
  <g>
   <g transform="translate(1,1)">
    <g style="opacity:0.1">
     <!-- color: #ff9999 -->
     <g>
      <path d="m 17.5 12 c -3.039 0 -5.5 2.461 -5.5 5.5 c 0 3.039 2.461 5.5 5.5 5.5 c 3.039 0 5.5 -2.461 5.5 -5.5 c 0 -3.039 -2.461 -5.5 -5.5 -5.5 m 0 0" style="fill:#000;fill-opacity:1;stroke:none;fill-rule:nonzero"/>
      <path d="m 30.5 12 c -3.039 0 -5.5 2.461 -5.5 5.5 c 0 3.039 2.461 5.5 5.5 5.5 c 3.039 0 5.5 -2.461 5.5 -5.5 c 0 -3.039 -2.461 -5.5 -5.5 -5.5 m 0 0" style="fill:#000;fill-opacity:1;stroke:none;fill-rule:nonzero"/>
      <path d="m 12 26 l 0 4 l 4 0 l 0 -4 m 1 0 l 0 4 l 4 0 l 0 -4 m 1 0 l 0 4 l 4 0 l 0 -4 m 1 0 l 0 4 l 4 0 l 0 -4 m 1 0 l 0 4 l 4 0 l 0 -4 m -24 5 l 0 5 l 4 0 l 0 -5 m 1 0 l 0 5 l 4 0 l 0 -5 m 1 0 l 0 5 l 4 0 l 0 -5 m 1 0 l 0 5 l 4 0 l 0 -5 m 1 0 l 0 5 l 4 0 l 0 -5 m -4 0" style="fill:#000;fill-opacity:1;stroke:none;fill-rule:nonzero"/>
     </g>
    </g>
   </g>
  </g>
 </g>
 <g>
  <g>
   <!-- color: #ff9999 -->
   <g>
    <path d="M 17.5,12 C 14.461,12 12,14.461 12,17.5 12,20.539 14.461,23 17.5,23 20.539,23 23,20.539 23,17.5 23,14.461 20.539,12 17.5,12 m 0,0" style="fill:#f65f44;fill-opacity:1;stroke:none;fill-rule:nonzero"/>
    <path d="M 30.5,12 C 27.461,12 25,14.461 25,17.5 25,20.539 27.461,23 30.5,23 33.539,23 36,20.539 36,17.5 36,14.461 33.539,12 30.5,12 m 0,0" style="fill:#f65f44;fill-opacity:1;stroke:none;fill-rule:nonzero"/>
    <path d="M 19,17.5 C 19,18.328 18.328,19 17.5,19 16.672,19 16,18.328 16,17.5 16,16.672 16.672,16 17.5,16 c 0.828,0 1.5,0.672 1.5,1.5 m 0,0" style="fill:#2d2d2d;fill-opacity:0.502;stroke:none;fill-rule:nonzero"/>
    <path d="M 32,17.5 C 32,18.328 31.328,19 30.5,19 29.672,19 29,18.328 29,17.5 29,16.672 29.672,16 30.5,16 c 0.828,0 1.5,0.672 1.5,1.5 m 0,0" style="fill:#2d2d2d;fill-opacity:0.502;stroke:none;fill-rule:nonzero"/>
    <path d="m 12 26 0 4 4 0 0 -4 m 1 0 0 4 4 0 0 -4 m 1 0 0 4 4 0 0 -4 m 1 0 0 4 4 0 0 -4 m 1 0 0 4 4 0 0 -4 m -24 5 0 5 4 0 0 -5 m 1 0 0 5 4 0 0 -5 m 1 0 0 5 4 0 0 -5 m 1 0 0 5 4 0 0 -5 m 1 0 0 5 4 0 0 -5 m -4 0" style="fill:#fff;fill-opacity:1;stroke:none;fill-rule:nonzero"/>
   </g>
  </g>
 </g>
 <g>
  
 </g>
</svg>
