<svg viewBox="0 0 48 48" xmlns="http://www.w3.org/2000/svg" xmlns:xlink="http://www.w3.org/1999/xlink">
  <linearGradient id="a" gradientUnits="userSpaceOnUse" x2="0" y1="47" y2="1">
    <stop offset="0" stop-color="#ff8585"/>
    <stop offset="1" stop-color="#f99"/>
  </linearGradient>
  <path d="m47 24c0 22.703-.297 23-23 23-22.703 0-23-.297-23-23 0-22.703.297-23 23-23 22.703 0 23 .297 23 23z" fill="url(#a)"/>
  <g opacity=".1" transform="translate(1 1)">
    <path d="m17.5 12c-3.039 0-5.5 2.461-5.5 5.5 0 3.039 2.461 5.5 5.5 5.5 3.039 0 5.5-2.461 5.5-5.5 0-3.039-2.461-5.5-5.5-5.5m0 0"/>
    <path d="m30.5 12c-3.039 0-5.5 2.461-5.5 5.5 0 3.039 2.461 5.5 5.5 5.5 3.039 0 5.5-2.461 5.5-5.5 0-3.039-2.461-5.5-5.5-5.5m0 0"/>
    <path d="m12 26v4h4v-4m1 0v4h4v-4m1 0v4h4v-4m1 0v4h4v-4m1 0v4h4v-4m-24 5v5h4v-5m1 0v5h4v-5m1 0v5h4v-5m1 0v5h4v-5m1 0v5h4v-5m-4 0"/>
  </g>
  <path d="m17.5 12c-3.039 0-5.5 2.461-5.5 5.5 0 3.039 2.461 5.5 5.5 5.5 3.039 0 5.5-2.461 5.5-5.5 0-3.039-2.461-5.5-5.5-5.5m0 0" fill="#f65f44"/>
  <path d="m30.5 12c-3.039 0-5.5 2.461-5.5 5.5 0 3.039 2.461 5.5 5.5 5.5 3.039 0 5.5-2.461 5.5-5.5 0-3.039-2.461-5.5-5.5-5.5m0 0" fill="#f65f44"/>
  <path d="m19 17.5c0 .828-.672 1.5-1.5 1.5-.828 0-1.5-.672-1.5-1.5 0-.828.672-1.5 1.5-1.5.828 0 1.5.672 1.5 1.5m0 0" fill="#2d2d2d" fill-opacity=".502"/>
  <path d="m32 17.5c0 .828-.672 1.5-1.5 1.5-.828 0-1.5-.672-1.5-1.5 0-.828.672-1.5 1.5-1.5.828 0 1.5.672 1.5 1.5m0 0" fill="#2d2d2d" fill-opacity=".502"/>
  <path d="m12 26v4h4v-4m1 0v4h4v-4m1 0v4h4v-4m1 0v4h4v-4m1 0v4h4v-4m-24 5v5h4v-5m1 0v5h4v-5m1 0v5h4v-5m1 0v5h4v-5m1 0v5h4v-5m-4 0" fill="#fff"/>
</svg>
