<svg xmlns="http://www.w3.org/2000/svg" viewBox="0 0 48 48">
 <defs>
  <linearGradient id="linearGradient4202" x1="1" x2="47" gradientUnits="userSpaceOnUse" gradientTransform="matrix(0,1,-1,0,48,0)">
   <stop style="stop-color:#30b2f5;stop-opacity:1"/>
   <stop offset="1" style="stop-color:#1cabf4;stop-opacity:1"/>
  </linearGradient>
 </defs>
 <path d="m 47 24 c 0 22.703 -0.297 23 -23 23 -22.703 0 -23 -0.297 -23 -23 0 -22.703 0.297 -23 23 -23 22.703 0 23 0.297 23 23" style="fill:url(#linearGradient4202);fill-opacity:1"/>
 <path d="m 21 14 c -3.866 0 -7 3.134 -7 7 0 3.866 3.134 7 7 7 1.281 -0.001 2.537 -0.356 3.631 -1.023 l 2.699 3.02 c 0.104 0.104 0.273 0.104 0.377 0 0 0 0.486 -0.359 1.193 -1.066 0.707 -0.707 1.066 -1.195 1.066 -1.195 0.103 -0.104 0.104 -0.273 0 -0.377 l -3.01 -2.695 c 0.679 -1.1 1.042 -2.367 1.043 -3.66 0.002 -3.866 -3.134 -7 -7 -7 m 8.959 1.027 c 0 0 -1.179 1.833 -1.385 2.152 0.608 1.041 0.869 2.395 0.869 2.395 l 0.932 -1.648 3.58 1.35 c -1.914 4.981 -1.848 10.145 -1.848 10.145 l -2.684 2.684 c 0 0 -5.161 -0.066 -10.139 1.85 l -1.348 -3.582 1.648 -0.934 c 0 0 -1.354 -0.261 -2.395 -0.869 -0.319 0.205 -2.15 1.387 -2.15 1.387 l 2.697 8.04 c 0 0 3.805 -3.85 13.262 -3 l 4 -4 c -0.849 -9.462 3 -13.273 3 -13.273 m -17 -0.727 c 2.209 0 4 1.791 4 4 0 2.209 -1.791 4 -4 4 -2.209 0 -4 -1.791 -4 -4 0 -2.209 1.791 -4 4 -4 z" style="fill:#000;opacity:0.1;fill-opacity:1"/>
 <path d="m 20 13 c -3.866 0 -7 3.134 -7 7 0 3.866 3.134 7 7 7 1.281 -0.001 2.537 -0.356 3.631 -1.023 l 2.699 3.02 c 0.104 0.104 0.273 0.104 0.377 0 0 0 0.486 -0.359 1.193 -1.066 0.707 -0.707 1.066 -1.195 1.066 -1.195 0.103 -0.104 0.104 -0.273 0 -0.377 l -3.01 -2.695 c 0.679 -1.1 1.042 -2.367 1.043 -3.66 0.002 -3.866 -3.134 -7 -7 -7 m 8.959 1.027 c 0 0 -1.179 1.833 -1.385 2.152 0.608 1.041 0.869 2.395 0.869 2.395 l 0.932 -1.648 3.58 1.35 c -1.914 4.981 -1.848 10.145 -1.848 10.145 l -2.684 2.684 c 0 0 -5.161 -0.066 -10.139 1.85 l -1.348 -3.582 1.648 -0.934 c 0 0 -1.354 -0.261 -2.395 -0.869 -0.319 0.205 -2.15 1.387 -2.15 1.387 l 2.697 8.04 c 0 0 3.805 -3.85 13.262 -3 l 4 -4 c -0.849 -9.462 3 -13.273 3 -13.273 m -17 -0.727 c 2.209 0 4 1.791 4 4 0 2.209 -1.791 4 -4 4 -2.209 0 -4 -1.791 -4 -4 0 -2.209 1.791 -4 4 -4 z" style="fill:#fff"/>
</svg>
