<svg viewBox="0 0 48 48" xmlns="http://www.w3.org/2000/svg" xmlns:xlink="http://www.w3.org/1999/xlink">
  <linearGradient id="a" gradientTransform="matrix(0 1 -1 0 48 0)" gradientUnits="userSpaceOnUse" x1="1" x2="47">
    <stop offset="0" stop-color="#30b2f5"/>
    <stop offset="1" stop-color="#1cabf4"/>
  </linearGradient>
  <path d="m47 24c0 22.703-.297 23-23 23-22.703 0-23-.297-23-23 0-22.703.297-23 23-23 22.703 0 23 .297 23 23" fill="url(#a)"/>
  <path d="m21 14c-3.866 0-7 3.134-7 7 0 3.866 3.134 7 7 7 1.281-.001 2.537-.356 3.631-1.023l2.699 3.02c.104.104.273.104.377 0 0 0 .486-.359 1.193-1.066.707-.707 1.066-1.195 1.066-1.195.103-.104.104-.273 0-.377l-3.01-2.695c.679-1.1 1.042-2.367 1.043-3.66.002-3.866-3.134-7-7-7m8.959 1.027c0 0-1.179 1.833-1.385 2.152.608 1.041.869 2.395.869 2.395l.932-1.648 3.58 1.35c-1.914 4.981-1.848 10.145-1.848 10.145l-2.684 2.684c0 0-5.161-.066-10.139 1.85l-1.348-3.582 1.648-.934c0 0-1.354-.261-2.395-.869-.319.205-2.15 1.387-2.15 1.387l2.697 8.04c0 0 3.805-3.85 13.262-3l4-4c-.849-9.462 3-13.273 3-13.273m-17-.727c2.209 0 4 1.791 4 4 0 2.209-1.791 4-4 4-2.209 0-4-1.791-4-4 0-2.209 1.791-4 4-4z" opacity=".1"/>
  <path d="m20 13c-3.866 0-7 3.134-7 7 0 3.866 3.134 7 7 7 1.281-.001 2.537-.356 3.631-1.023l2.699 3.02c.104.104.273.104.377 0 0 0 .486-.359 1.193-1.066.707-.707 1.066-1.195 1.066-1.195.103-.104.104-.273 0-.377l-3.01-2.695c.679-1.1 1.042-2.367 1.043-3.66.002-3.866-3.134-7-7-7m8.959 1.027c0 0-1.179 1.833-1.385 2.152.608 1.041.869 2.395.869 2.395l.932-1.648 3.58 1.35c-1.914 4.981-1.848 10.145-1.848 10.145l-2.684 2.684c0 0-5.161-.066-10.139 1.85l-1.348-3.582 1.648-.934c0 0-1.354-.261-2.395-.869-.319.205-2.15 1.387-2.15 1.387l2.697 8.04c0 0 3.805-3.85 13.262-3l4-4c-.849-9.462 3-13.273 3-13.273m-17-.727c2.209 0 4 1.791 4 4 0 2.209-1.791 4-4 4-2.209 0-4-1.791-4-4 0-2.209 1.791-4 4-4z" fill="#fff"/>
</svg>
