<svg xmlns="http://www.w3.org/2000/svg" viewBox="0 0 48 48">
 <defs>
  <linearGradient id="linearGradient3764" x1="1" x2="47" gradientUnits="userSpaceOnUse" gradientTransform="matrix(0,-1,1,0,-1.5e-6,47.999998)">
   <stop style="stop-color:#e1281f;stop-opacity:1"/>
   <stop offset="1" style="stop-color:#e33a31;stop-opacity:1"/>
  </linearGradient>
 </defs>
 <g>
  
  
  
 </g>
 <g>
  <path d="m 47,24 C 47,46.703 46.703,47 24,47 1.297,47 1,46.703 1,24 1,1.297 1.297,1 24,1 46.703,1 47,1.297 47,24 z" style="fill:url(#linearGradient3764);fill-opacity:1"/>
 </g>
 <g>
  <g>
   <g transform="translate(1,1)">
    <g style="opacity:0.1">
     <!-- color: #e33a31 -->
     <g>
      <path d="m 24.16 15 c -3.039 0 -7.5 0.176 -8.844 0.219 c -1.461 0.129 -2.01 0.203 -2.813 0.875 c -1.219 1.066 -1.5 3.172 -1.5 6.375 l 0 3.063 c 0 3.66 0.5 5.508 1.313 6.188 c 0.938 0.793 1.563 0.844 2.188 0.938 c 0.242 0.035 1.949 0.355 9.563 0.355 c 4.746 0 8.828 -0.23 9.25 -0.281 c 0.68 -0.086 1.641 -0.195 2.375 -1 c 1.09 -1.219 1.313 -3.258 1.313 -6.191 l 0 -3.527 c 0 -1.898 -0.113 -4.598 -1.313 -5.723 c -0.906 -0.754 -1.246 -0.969 -3.125 -1.063 c -0.531 -0.023 -5.168 -0.219 -8.406 -0.219 m -3.156 3 l 6 0 l 0 7 l 2.469 0 l -5.469 5.625 l -5.469 -5.625 l 2.469 0 m 0 -7" style="fill:#000;fill-opacity:1;stroke:none;fill-rule:nonzero"/>
     </g>
    </g>
   </g>
  </g>
 </g>
 <g>
  <g>
   <!-- color: #e33a31 -->
   <g>
    <path d="m 24.16 15 c -3.039 0 -7.5 0.176 -8.844 0.219 c -1.461 0.129 -2.01 0.203 -2.813 0.875 c -1.219 1.066 -1.5 3.172 -1.5 6.375 l 0 3.063 c 0 3.66 0.5 5.508 1.313 6.188 c 0.938 0.793 1.563 0.844 2.188 0.938 c 0.242 0.035 1.949 0.355 9.563 0.355 c 4.746 0 8.828 -0.23 9.25 -0.281 c 0.68 -0.086 1.641 -0.195 2.375 -1 c 1.09 -1.219 1.313 -3.258 1.313 -6.191 l 0 -3.527 c 0 -1.898 -0.113 -4.598 -1.313 -5.723 c -0.906 -0.754 -1.246 -0.969 -3.125 -1.063 c -0.531 -0.023 -5.168 -0.219 -8.406 -0.219 m -3.156 3 l 6 0 l 0 7 l 2.469 0 l -5.469 5.625 l -5.469 -5.625 l 2.469 0 m 0 -7" style="fill:#f9f9f9;fill-opacity:1;stroke:none;fill-rule:nonzero"/>
   </g>
  </g>
 </g>
 <g>
  
 </g>
</svg>
