<svg viewBox="0 0 48 48" xmlns="http://www.w3.org/2000/svg" xmlns:xlink="http://www.w3.org/1999/xlink">
  <linearGradient id="a" gradientTransform="matrix(0 -1 1 0 -.0000015 47.999998)" gradientUnits="userSpaceOnUse" x1="1" x2="47">
    <stop offset="0" stop-color="#e1281f"/>
    <stop offset="1" stop-color="#e33a31"/>
  </linearGradient>
  <path d="m47 24c0 22.703-.297 23-23 23-22.703 0-23-.297-23-23 0-22.703.297-23 23-23 22.703 0 23 .297 23 23z" fill="url(#a)"/>
  <path d="m24.16 15c-3.039 0-7.5.176-8.844.219-1.461.129-2.01.203-2.813.875-1.219 1.066-1.5 3.172-1.5 6.375v3.063c0 3.66.5 5.508 1.313 6.188.938.793 1.563.844 2.188.938.242.035 1.949.355 9.563.355 4.746 0 8.828-.23 9.25-.281.68-.086 1.641-.195 2.375-1 1.09-1.219 1.313-3.258 1.313-6.191v-3.527c0-1.898-.113-4.598-1.313-5.723-.906-.754-1.246-.969-3.125-1.063-.531-.023-5.168-.219-8.406-.219m3.469 2c1.688-.066 3.25 1.137 4.688 1.148 0 0-1.152 1.75-2.906 1.75-1.633-.313-2.352.047-2.398.102v7c-.074 1.48-1.211 2.938-3.03 3.625-2.309.863-4.766.113-5.469-1.691-.707-1.809.598-4 2.902-4.875 1.789-.676 3.516-.473 4.598.535v-7.04c.582-.387 1.063-.543 1.625-.563m-.004.004" opacity=".1" transform="translate(1 1)"/>
  <path d="m24.16 15c-3.039 0-7.5.176-8.844.219-1.461.129-2.01.203-2.813.875-1.219 1.066-1.5 3.172-1.5 6.375v3.063c0 3.66.5 5.508 1.313 6.188.938.793 1.563.844 2.188.938.242.035 1.949.355 9.563.355 4.746 0 8.828-.23 9.25-.281.68-.086 1.641-.195 2.375-1 1.09-1.219 1.313-3.258 1.313-6.191v-3.527c0-1.898-.113-4.598-1.313-5.723-.906-.754-1.246-.969-3.125-1.063-.531-.023-5.168-.219-8.406-.219m3.469 2c1.688-.066 3.25 1.137 4.688 1.148 0 0-1.152 1.75-2.906 1.75-1.633-.313-2.352.047-2.398.102v7c-.074 1.48-1.211 2.938-3.03 3.625-2.309.863-4.766.113-5.469-1.691-.707-1.809.598-4 2.902-4.875 1.789-.676 3.516-.473 4.598.535v-7.04c.582-.387 1.063-.543 1.625-.563m-.004.004" fill="#f9f9f9"/>
</svg>
