<svg viewBox="0 0 48 48" xmlns="http://www.w3.org/2000/svg" xmlns:xlink="http://www.w3.org/1999/xlink">
  <linearGradient id="a" gradientTransform="matrix(0 -1 1 0 -.0000015 47.999998)" gradientUnits="userSpaceOnUse" x1="1" x2="47">
    <stop offset="0" stop-color="#e1281f"/>
    <stop offset="1" stop-color="#e33a31"/>
  </linearGradient>
  <path d="m47 24c0 22.703-.297 23-23 23-22.703 0-23-.297-23-23 0-22.703.297-23 23-23 22.703 0 23 .297 23 23z" fill="url(#a)"/>
  <path d="m24.17 15c-3.039 0-7.523.184-8.867.227-1.461.129-2 .203-2.797.875-1.227 1.066-1.516 3.16-1.516 6.367v3.051c0 3.656.492 5.516 1.313 6.195.938.793 1.559.855 2.18.949.242.035 1.961.336 9.574.336 4.746 0 8.824-.223 9.246-.273.68-.086 1.645-.207 2.391-1.012 1.09-1.219 1.305-3.242 1.305-6.176v-3.551c0-1.898-.105-4.578-1.305-5.703-.91-.758-1.242-.969-3.121-1.063-.531-.023-5.164-.223-8.402-.223m-3.172 5l7 4-7 4m0-8" opacity=".1" transform="translate(1 1)"/>
  <path d="m24.17 15c-3.039 0-7.523.184-8.867.227-1.461.129-2 .203-2.797.875-1.227 1.066-1.516 3.16-1.516 6.367v3.051c0 3.656.492 5.516 1.313 6.195.938.793 1.559.855 2.18.949.242.035 1.961.336 9.574.336 4.746 0 8.824-.223 9.246-.273.68-.086 1.645-.207 2.391-1.012 1.09-1.219 1.305-3.242 1.305-6.176v-3.551c0-1.898-.105-4.578-1.305-5.703-.91-.758-1.242-.969-3.121-1.063-.531-.023-5.164-.223-8.402-.223m-3.172 5l7 4-7 4m0-8" fill="#f9f9f9"/>
</svg>
