<svg viewBox="0 0 48 48" xmlns="http://www.w3.org/2000/svg" xmlns:xlink="http://www.w3.org/1999/xlink">
  <linearGradient id="a" gradientUnits="userSpaceOnUse" x2="0" y1="47" y2="1">
    <stop offset="0" stop-color="#01ab62"/>
    <stop offset="1" stop-color="#01bf6d"/>
  </linearGradient>
  <path d="m24 1c22.703 0 23 .297 23 23 0 22.703-.297 23-23 23-22.703 0-23-.297-23-23 0-22.703.297-23 23-23z" fill="url(#a)"/>
  <path d="m23 14c-4 0-6 3-6 6v6l4 9.5h8l4-9.5v-6c0-3-2-6-6-6" fill-opacity=".102"/>
  <path d="m22 13c-4 0-6 3-6 6v6l4 9h8l4-9v-6c0-3-2-6-6-6" fill="#424242"/>
  <path d="m18 23c2 1 3 2 4 5 0-2 1-3 2-3 1 0 2 1.215 2 3 1-3 2-4 4-5" fill="#0ff"/>
</svg>
