<svg xmlns="http://www.w3.org/2000/svg" viewBox="0 0 48 48">
 <defs>
  <linearGradient id="linearGradient3764" y1="47" x2="0" y2="1" gradientUnits="userSpaceOnUse">
   <stop style="stop-color:#d0d0f0;stop-opacity:1"/>
   <stop offset="1" style="stop-color:#dfdff5;stop-opacity:1"/>
  </linearGradient>
 </defs>
 <g>
  
  
  
 </g>
 <g>
  <path d="M 24,1 C 46.703,1 47,1.297 47,24 47,46.703 46.703,47 24,47 1.297,47 1,46.703 1,24 1,1.297 1.297,1 24,1 Z" style="fill:url(#linearGradient3764);fill-opacity:1"/>
 </g>
 <g>
  
 </g>
 <g transform="translate(0.99999992,3)" style="fill:#000;opacity:0.1;fill-opacity:1">
  <g transform="translate(0,1)">
   <path transform="matrix(0.052,0,0,0.05,19.212033,2.500226)" d="m -57.924 370 c 0 0 300 0 300 0 0 0 100 200 100 200 0 0 -500 0 -500 0 0 0 100 -200 100 -200" style="opacity:1;stroke:none"/>
   <path d="m 25.24 21 -2.48 0 c 0 0 0 0 0.24 -1 0.169 -0.705 0.355 -2 1 -2 0.642 0 0.833 1.303 1 2 z" style="opacity:1;stroke:none"/>
   <path d="m 26 16 a 2 2 0 0 1 -2 2 2 2 0 0 1 -2 -2 2 2 0 0 1 2 -2 2 2 0 0 1 2 2 z" style="opacity:1;stroke:none"/>
  </g>
  <circle r="2.5" cy="10.5" cx="24" style="opacity:1;stroke:none"/>
 </g>
 <g>
  <path d="m 16.2 24 c 0 0 15.6 0 15.6 0 0 0 5.2 10 5.2 10 0 0 -26 0 -26 0 0 0 5.2 -10 5.2 -10" style="fill:#9090f8;opacity:1;fill-opacity:1;stroke:none"/>
  <path d="m 31.977 27.75 c 0.458 1.076 0.008 2.23 -1.383 3.17 -1.521 1.029 -3.935 1.651 -6.595 1.651 -2.66 0 -5.073 -0.622 -6.595 -1.651 -1.391 -0.941 -1.84 -2.095 -1.383 -3.17 0.41 -0.965 1.526 -1.801 3.049 -2.369 c 1.424 -0.531 3.172 -0.815 4.928 -0.815 c 1.756 0 3.504 0.284 4.928 0.815 1.523 0.568 2.639 1.404 3.049 2.369 0 0 0 0 0 0" style="fill:#4e4eb0;opacity:1;fill-opacity:1;stroke:none"/>
  <path d="m 29.32 27.75 c 0.2 0.704 -0.198 1.43 -1.156 2 -1.015 0.604 -2.529 0.96 -4.162 0.96 -1.633 0 -3.147 -0.355 -4.162 -0.96 -0.959 -0.571 -1.356 -1.297 -1.156 -2 0.186 -0.654 0.875 -1.241 1.888 -1.649 0.967 -0.39 2.189 -0.601 3.43 -0.601 1.241 0 2.463 0.211 3.43 0.601 1.013 0.408 1.703 0.995 1.888 1.649 0 0 0 0 0 0" style="fill:#2c2f6e;opacity:1;fill-opacity:1;stroke:none"/>
  <path d="m 25.24 24 -2.48 0 c 0 0 0 0 0.24 -1 0.169 -0.705 0.355 -2 1 -2 0.642 0 0.833 1.303 1 2 z" style="fill:#4e4eb0;opacity:1;fill-opacity:1;stroke:none"/>
  <path d="m 26.2 26.5 c 0.261 0.487 0.8 1.5 2.8 2.5 l -10 0 c 2 -1 2.545 -2.01 2.8 -2.5 c 0.779 -1.5 0.815 -3.5 2.2 -3.5 c 1.393 0 1.395 2 2.2 3.5 z" style="fill:#2c2f6e;opacity:1;fill-opacity:1;stroke:none"/>
  <path d="m 26 19 a 2 2 0 0 1 -2 2 2 2 0 0 1 -2 -2 2 2 0 0 1 2 -2 2 2 0 0 1 2 2 z" style="fill:#9090f8;opacity:1;fill-opacity:1;stroke:none"/>
  <path d="M 26.5 12.5 A 2.5 2.5 0 0 1 24 15 2.5 2.5 0 0 1 21.5 12.5 2.5 2.5 0 0 1 24 10 a 2.5 2.5 0 0 1 2.5 2.5 z" style="fill:#2c2f6e;opacity:1;fill-opacity:1;stroke:none"/>
 </g>
</svg>
