<svg viewBox="0 0 48 48" xmlns="http://www.w3.org/2000/svg" xmlns:xlink="http://www.w3.org/1999/xlink">
  <linearGradient id="a" gradientUnits="userSpaceOnUse" x2="0" y1="48" y2=".135">
    <stop offset="0" stop-color="#c9c9df"/>
    <stop offset="1" stop-color="#d5d5e7"/>
  </linearGradient>
  <path d="m24 1c22.703 0 23 .297 23 23 0 22.703-.297 23-23 23-22.703 0-23-.297-23-23 0-22.703.297-23 23-23z" fill="url(#a)"/>
  <g transform="translate(10 -123.00039)">
    <path d="m11.6 136c-.886 0-1.6.669-1.6 1.5v9.5h1v-9h8v9h1v-9.5c0-.831-.713-1.5-1.6-1.5h-6.801zm2.9 3.5v.809a2.25 2.25 0 0 0-.695.289l-.572-.572-.707.707.57.57a2.25 2.25 0 0 0-.287.697h-.809v1h .809a2.25 2.25 0 0 0  .289.695l-.572.572.707.707.572-.572a2.25 2.25 0 0 0  .695.289v.809h1v-.809a2.25 2.25 0 0 0  .695-.289l.572.572.707-.707-.57-.57a2.25 2.25 0 0 0  .287-.697h.809v-1h-.809a2.25 2.25 0 0 0-.289-.695l.572-.572-.707-.707-.57.57a2.25 2.25 0 0 0-.697-.287v-.809zm-11 .5a1 1 0 0 0-1 1 1 1 0 0 0  .5.865v7.738a2.5 2.5 0 0 0-.5 1.496 2.5 2.5 0 0 0  2.5 2.5v4.873c4 2.042 16 2.041 20-.029v-4.844a2.5 2.5 0 0 0 2.5-2.5 2.5 2.5 0 0 0-.5-1.496v-7.738a1 1 0 0 0  .5-.865 1 1 0 0 0-1-1 1 1 0 0 0-1 1 1 1 0 0 0  .5.863v6.947a2.5 2.5 0 0 0-1-.211v-2.1c0-1.385-1.115-2.5-2.5-2.5h-1.5v2c .554 0 1 .446 1 1 0 .554-.446 1-1 1h-12c-.554 0-1-.446-1-1 0-.554.446-1 1-1v-2h-1.5c-1.385 0-2.5 1.115-2.5 2.5v2.1a2.5 2.5 0 0 0-1 .211v-6.947a1 1 0 0 0  .5-.863 1 1 0 0 0-1-1m11.5 1.25a1.25 1.25 0 0 1 1.25 1.25 1.25 1.25 0 0 1-1.25 1.25 1.25 1.25 0 0 1-1.25-1.25 1.25 1.25 0 0 1  1.25-1.25m-4 8.75c1.381 0 2.5 1.119 2.5 2.5 0 1.381-1.119 2.5-2.5 2.5-1.381 0-2.5-1.119-2.5-2.5 0-1.381 1.119-2.5 2.5-2.5zm8 0c1.381 0 2.5 1.119 2.5 2.5 0 1.381-1.119 2.5-2.5 2.5-1.381 0-2.5-1.119-2.5-2.5 0-1.381 1.119-2.5 2.5-2.5z" fill-opacity=".098" fill-rule="evenodd"/>
    <path d="m6.5 143c-1.385 0-2.5 1.115-2.5 2.5v5.973 1.027 4.973c4 2.042 16 2.041 20-.029v-4.944-1-6c0-1.385-1.115-2.5-2.5-2.5h-1.5v2c .554 0 1 .446 1 1 0 .554-.446 1-1 1h-12c-.554 0-1-.446-1-1 0-.554.446-1 1-1v-2zm3.5 6c1.381 0 2.5 1.119 2.5 2.5 0 1.381-1.119 2.5-2.5 2.5-1.381 0-2.5-1.119-2.5-2.5 0-1.381 1.119-2.5 2.5-2.5zm8 0c1.381 0 2.5 1.119 2.5 2.5 0 1.381-1.119 2.5-2.5 2.5-1.381 0-2.5-1.119-2.5-2.5 0-1.381 1.119-2.5 2.5-2.5z" fill="#3c3c3c" fill-rule="evenodd"/>
    <path d="m12.5 16a1 1 0 0 0-1 1 1 1 0 0 0  .5.865v7.739a2.5 2.5 0 0 0-.5 1.496 2.5 2.5 0 0 0  2.5 2.5 2.5 2.5 0 0 0  2.5-2.5 2.5 2.5 0 0 0-2.5-2.5 2.5 2.5 0 0 0-1 .211v-6.948a1 1 0 0 0  .5-.863 1 1 0 0 0-1-1zm23 0a1 1 0 0 0-1 1 1 1 0 0 0  .5.863v6.948a2.5 2.5 0 0 0-1-.211 2.5 2.5 0 0 0-2.5 2.5 2.5 2.5 0 0 0  2.5 2.5 2.5 2.5 0 0 0  2.5-2.5 2.5 2.5 0 0 0-.5-1.496v-7.739a1 1 0 0 0  .5-.865 1 1 0 0 0-1-1z" fill="#3c3c3c" transform="translate(-10 123.00039)"/>
    <path d="m10.6 135c-.886 0-1.6.669-1.6 1.5v9.5h1v-9h8v9h1v-9.5c0-.831-.713-1.5-1.6-1.5h-6.801z" fill="#3c3c3c"/>
    <path d="m23.5 15.5v.809a2.25 2.25 0 0 0-.699.291l-.568-.568-.707.707.568.568a2.25 2.25 0 0 0-.285.693h-.809v1h .809a2.25 2.25 0 0 0  .289.695l-.572.572.707.707.572-.572a2.25 2.25 0 0 0  .695.289v.809h1v-.809a2.25 2.25 0 0 0  .691-.287l.576.576.707-.707-.574-.574a2.25 2.25 0 0 0  .291-.699h.809v-1h-.809a2.25 2.25 0 0 0-.285-.693l.568-.568-.707-.707-.566.566a2.25 2.25 0 0 0-.701-.289v-.809zm.5 1.75a1.25 1.25 0 0 1 1.25 1.25 1.25 1.25 0 0 1-1.25 1.25 1.25 1.25 0 0 1-1.25-1.25 1.25 1.25 0 0 1  1.25-1.25z" fill="#b56533" transform="translate(-10 123.00039)"/>
  </g>
</svg>
