<svg viewBox="0 0 48 48" xmlns="http://www.w3.org/2000/svg" xmlns:xlink="http://www.w3.org/1999/xlink">
  <linearGradient id="a" gradientTransform="matrix(0 -1 1 0 -.0000015 47.999998)" gradientUnits="userSpaceOnUse" x1="1" x2="47">
    <stop offset="0" stop-color="#e4e4e4"/>
    <stop offset="1" stop-color="#eee"/>
  </linearGradient>
  <path d="m47 24c0 22.703-.297 23-23 23-22.703 0-23-.297-23-23 0-22.703.297-23 23-23 22.703 0 23 .297 23 23z" fill="url(#a)"/>
  <path d="m24 1v7h-7v-5.906c-.337.108-.67.221-1 .344v5.563h-7v-1.438c-.346.298-.673.62-1 .938v.5h-.5c-.318.327-.64.654-.938 1h1.438v7h-5.563c-.123.33-.236.663-.344 1h5.906v7h-7c0 .334.017.669.031 1h6.969v7h-5.563c.127.342.264.666.406 1h5.156v7h-.5c.481.496.976.986 1.5 1.438v-.438h7v4.563c.33.123.663.236 1 .344v-4.906h7v6c .334 0 .669-.017 1-.031v-5.969h7v4.563c.342-.127.666-.264 1-.406v-4.156h6.5c.522-.476 1.024-.978 1.5-1.5v-6.5h4.156c.142-.334.279-.658.406-1h-4.563v-7h5.969c.014-.331.031-.666.031-1h-6v-7h4.906c-.108-.337-.221-.67-.344-1h-4.563v-7h .438c-.451-.524-.941-1.019-1.438-1.5v.5h-7v-5.156c-.334-.142-.658-.279-1-.406v5.563h-7v-6.969c-.331-.014-.666-.031-1-.031zm-15 8h7v7h-7zm8 0h7v7h-7zm8 0h7v7h-7zm8 0h7v7h-7zm-24 8h7v7h-7zm8 0h7v7h-7zm8 0h7v7h-7zm8 0h7v7h-7zm-24 8h7v7h-7zm8 0h7v7h-7zm8 0h7v7h-7zm8 0h7v7h-7zm-24 8h7v7h-7zm8 0h7v7h-7zm8 0h7v7h-7zm8 0h7v7h-7z" fill="#a0dad0"/>
  <path d="m25 12c-.531 0-.806.338-.922.51-.116.172-.163.301-.209.436-.092.269-.152.556-.215.91-.727 5.382-1.024 11.458-1.416 16.35-.573-4.734-.632-8.716-1.395-13.03-.066-.31-.13-.565-.232-.818-.051-.127-.106-.255-.236-.418-.13-.163-.417-.436-.875-.436-.354 0-.629.175-.777.314-.149.139-.224.263-.287.377-.126.229-.196.442-.27.691-.822 3.553-1.197 7.623-1.67 10.875-.261-1.698-.408-3.493-.621-5.166-.068-.527-.134-.971-.209-1.326-.037-.178-.071-.328-.141-.506-.035-.089-.071-.184-.18-.328-.109-.144-.372-.432-.846-.432-.365 0-.575.146-.711.25-.136.104-.217.198-.293.291-.151.185-.267.373-.389.584-.244.423-.495.931-.742 1.43-.248.499-.493.99-.684 1.314-.04.067-.053.081-.086.131h-10.596c0 .674.035 1.34.092 2h10.908c.694 0 .846-.34 1-.527.157-.187.277-.379.402-.592.196-.333.392-.732.588-1.123.289 2.28.446 4.493.859 6.709.103.543.209 1 .355 1.404.073.2.149.386.301.594.152.208.469.535.99.535.354 0 .629-.175.777-.314.149-.139.224-.263.287-.377.126-.229.196-.442.27-.691.147-.498.274-1.124.402-1.869.447-2.91.784-5.549 1.156-8.211.692 5.414.701 9.916 1.563 14.791.066.31.13.565.232.818.051.127.106.255.236.418.13.163.419.436.877.436.531 0 .804-.338.92-.51.116-.172.163-.301.209-.436.092-.269.154-.556.217-.91.69-5.118.991-10.89 1.354-15.559.571 5.669.596 10.385 1.354 15.559.063.354.124.641.217.91.046.135.093.264.209.436.116.172.389.51.92.51.458 0 .747-.272.877-.436.13-.163.185-.291.236-.418.103-.253.166-.508.232-.818.796-4.866 1.109-10.385 1.563-14.791.427 2.74.698 5.515 1.156 8.211.128.745.255 1.371.402 1.869.073.249.144.463.27.691.063.114.138.237.287.377.149.139.423.314.777.314.521 0 .838-.327.99-.535.152-.208.227-.394.301-.594.744-2.654.94-5.75 1.225-8.199.198.414.395.836.592 1.189.118.212.232.4.383.59.151.189.299.549 1.01.549h8.908c.057-.66.092-1.326.092-2h-8.574c-.028-.045-.038-.054-.07-.111-.633-1.238-1.125-2.379-1.844-3.389-.177-.195-.413-.5-1.012-.5-.474 0-.737.287-.846.432-.109.144-.145.239-.18.328-.069.178-.103.328-.141.506-.379 2.133-.55 4.536-.83 6.492-.68-3.965-.82-7.32-1.67-10.875-.073-.249-.144-.463-.27-.691-.063-.114-.138-.237-.287-.377-.149-.139-.423-.314-.777-.314-.458 0-.745.272-.875.436-.13.163-.185.291-.236.418-.103.253-.166.508-.232.818-.701 4.277-1.024 9.116-1.395 13.03-.618-5.978-.616-10.924-1.416-16.35-.063-.354-.122-.641-.215-.91-.046-.135-.093-.264-.209-.436-.116-.172-.391-.51-.922-.51" fill-opacity=".098"/>
  <path d="m24 11c-.531 0-.806.338-.922.51-.116.172-.163.301-.209.436-.092.269-.152.556-.215.91-.727 5.382-1.024 11.458-1.416 16.35-.573-4.734-.632-8.716-1.395-13.03-.066-.31-.13-.565-.232-.818-.051-.127-.106-.255-.236-.418-.13-.163-.417-.436-.875-.436-.354 0-.629.175-.777.314-.149.139-.224.263-.287.377-.126.229-.196.442-.27.691-.822 3.553-1.197 7.623-1.67 10.875-.261-1.698-.408-3.493-.621-5.166-.068-.527-.134-.971-.209-1.326-.037-.178-.071-.328-.141-.506-.035-.089-.071-.184-.18-.328-.109-.144-.372-.432-.846-.432-.365 0-.575.146-.711.25-.136.104-.217.198-.293.291-.151.185-.267.373-.389.584-.244.423-.495.931-.742 1.43-.248.499-.493.99-.684 1.314-.04.067-.053.081-.086.131h-9.57c-.014.332-.025.665-.025 1 0 .335.011.668.025 1h9.975c.694 0 .846-.34 1-.527.157-.187.277-.379.402-.592.196-.333.392-.732.588-1.123.289 2.28.446 4.493.859 6.709.103.543.209 1 .355 1.404.073.2.149.386.301.594.152.208.469.535.99.535.354 0 .629-.175.777-.314.149-.139.224-.263.287-.377.126-.229.196-.442.27-.691.147-.498.274-1.124.402-1.869.447-2.91.784-5.549 1.156-8.211.692 5.414.701 9.916 1.563 14.791.066.31.13.565.232.818.051.127.106.255.236.418.13.163.419.436.877.436.531 0 .804-.338.92-.51.116-.172.163-.301.209-.436.092-.269.154-.556.217-.91.69-5.118.991-10.89 1.354-15.559.571 5.669.596 10.385 1.354 15.559.063.354.124.641.217.91.046.135.093.264.209.436.116.172.389.51.92.51.458 0 .747-.272.877-.436.13-.163.185-.291.236-.418.103-.253.166-.508.232-.818.796-4.866 1.109-10.385 1.563-14.791.427 2.74.698 5.515 1.156 8.211.128.745.255 1.371.402 1.869.073.249.144.463.27.691.063.114.138.237.287.377.149.139.423.314.777.314.521 0 .838-.327.99-.535.152-.208.227-.394.301-.594.744-2.654.94-5.75 1.225-8.199.198.414.395.836.592 1.189.118.212.232.4.383.59.151.189.299.549 1.01.549h9.975c.014-.332.025-.665.025-1 0-.335-.011-.668-.025-1h-9.549c-.028-.045-.038-.054-.07-.111-.633-1.238-1.125-2.379-1.844-3.389-.177-.195-.413-.5-1.012-.5-.474 0-.737.287-.846.432-.109.144-.145.239-.18.328-.069.178-.103.328-.141.506-.379 2.133-.55 4.536-.83 6.492-.68-3.965-.82-7.32-1.67-10.875-.073-.249-.144-.463-.27-.691-.063-.114-.138-.237-.287-.377-.149-.139-.423-.314-.777-.314-.458 0-.745.272-.875.436-.13.163-.185.291-.236.418-.103.253-.166.508-.232.818-.701 4.277-1.024 9.116-1.395 13.03-.618-5.978-.616-10.924-1.416-16.35-.063-.354-.122-.641-.215-.91-.046-.135-.093-.264-.209-.436-.116-.172-.391-.51-.922-.51" fill="#e04c4c"/>
</svg>
