<svg viewBox="0 0 48 48" xmlns="http://www.w3.org/2000/svg" xmlns:xlink="http://www.w3.org/1999/xlink">
  <linearGradient id="a" gradientTransform="matrix(0 -1 1 0 -.0000015 47.999998)" gradientUnits="userSpaceOnUse" x1="1" x2="47">
    <stop offset="0" stop-color="#dbdbdb"/>
    <stop offset="1" stop-color="#e5e5e5"/>
  </linearGradient>
  <path d="m47 24c0 22.703-.297 23-23 23-22.703 0-23-.297-23-23 0-22.703.297-23 23-23 22.703 0 23 .297 23 23z" fill="url(#a)"/>
  <g transform="translate(.00025)">
    <path d="m25 17c-5.01-.023-9.641 3.645-12.727 7.254-.359.469-.359 1.023 0 1.492 3.34 3.951 7.857 7.268 12.727 7.254 5.15-.015 9.813-3.521 12.732-7.254.359-.469.359-1.023 0-1.492-3.36-3.99-7.723-7.231-12.732-7.254zm1 3.102a5 5 0 0 1 3.789 3.473c.014.056.035.108.047.164a5 5 0 0 1  .059.262h-.895c-.554 0-1 .446-1 1 0 .554.446 1 1 1h .896c-.001.007-.001.014-.002.021a5 5 0 0 1-.102.396c-.007.028-.016.054-.023.082a5 5 0 0 1-3.77 3.395v-.895c0-.554-.446-1-1-1-.554 0-1 .446-1 1v .898a5 5 0 0 1-3.894-3.898h.895c.554 0 1-.446 1-1 0-.554-.446-1-1-1h-.898a5 5 0 0 1 3.898-3.895v.895c0 .554.446 1 1 1 .554 0 1-.446 1-1zm-1 2.898a2 2 0 0 0-2 2 2 2 0 0 0  2 2 2 2 0 0 0  2-2 2 2 0 0 0-2-2z" opacity=".1"/>
    <path d="m24 16c-5.01-.023-9.641 3.645-12.727 7.254-.359.469-.359 1.023 0 1.492 3.34 3.951 7.857 7.268 12.727 7.254 5.15-.015 9.813-3.521 12.732-7.254.359-.469.359-1.023 0-1.492-3.36-3.99-7.723-7.231-12.732-7.254zm-.008 2.555c2.785 0 4.99 2.441 4.99 5.449 0 3-2.209 5.446-4.99 5.445-2.762 0-4.992-2.441-4.992-5.445 0-3.01 2.234-5.449 4.992-5.449z" fill="#2f93b7"/>
  </g>
  <rect fill="#e34445" height="2" rx="1" width="5" x="16" y="23"/>
  <rect fill="#e34445" height="2" rx="1" width="5" x="27" y="23"/>
  <rect fill="#e34445" height="5" rx="1" width="2" x="23" y="27"/>
  <rect fill="#e34445" height="5" rx="1" width="2" x="23" y="16"/>
  <path d="m24 17a7 7 0 0 0-7 7 7 7 0 0 0  7 7 7 7 0 0 0  7-7 7 7 0 0 0-7-7zm0 2a5 5 0 0 1 5 5 5 5 0 0 1-5 5 5 5 0 0 1-5-5 5 5 0 0 1  5-5zm0 3a2 2 0 0 0-2 2 2 2 0 0 0  2 2 2 2 0 0 0  2-2 2 2 0 0 0-2-2z" fill="#e34445"/>
</svg>
