<svg xmlns="http://www.w3.org/2000/svg" viewBox="0 0 48 48">
 <defs>
  <linearGradient id="linearGradient3764" x1="1" x2="47" gradientUnits="userSpaceOnUse" gradientTransform="matrix(0,-1,1,0,-1.5e-6,47.999998)">
   <stop style="stop-color:#dbdbdb;stop-opacity:1"/>
   <stop offset="1" style="stop-color:#e5e5e5;stop-opacity:1"/>
  </linearGradient>
 </defs>
 <g>
  
  
  
 </g>
 <g>
  <path d="m 47,24 C 47,46.703 46.703,47 24,47 1.297,47 1,46.703 1,24 1,1.297 1.297,1 24,1 46.703,1 47,1.297 47,24 z" style="fill:url(#linearGradient3764);fill-opacity:1"/>
 </g>
 <g>
  <g>
   <g transform="translate(1,1)">
    <g style="opacity:0.1">
     <!-- color: #e5e5e5 -->
    </g>
   </g>
  </g>
 </g>
 <g transform="translate(2.5e-4,0)">
  <!-- color: #e5e5e5 -->
  <g>
   <path d="m 25 17 c -5.01 -0.023 -9.641 3.645 -12.727 7.254 -0.359 0.469 -0.359 1.023 0 1.492 3.34 3.951 7.857 7.268 12.727 7.254 5.15 -0.015 9.813 -3.521 12.732 -7.254 0.359 -0.469 0.359 -1.023 0 -1.492 -3.36 -3.99 -7.723 -7.231 -12.732 -7.254 z m 1 3.102 a 5 5 0 0 1 3.789 3.473 c 0.014 0.056 0.035 0.108 0.047 0.164 a 5 5 0 0 1 0.059 0.262 l -0.895 0 c -0.554 0 -1 0.446 -1 1 0 0.554 0.446 1 1 1 l 0.896 0 c -0.001 0.007 -0.001 0.014 -0.002 0.021 a 5 5 0 0 1 -0.102 0.396 c -0.007 0.028 -0.016 0.054 -0.023 0.082 a 5 5 0 0 1 -3.77 3.395 l 0 -0.895 c 0 -0.554 -0.446 -1 -1 -1 -0.554 0 -1 0.446 -1 1 l 0 0.898 a 5 5 0 0 1 -3.894 -3.898 l 0.895 0 c 0.554 0 1 -0.446 1 -1 0 -0.554 -0.446 -1 -1 -1 l -0.898 0 a 5 5 0 0 1 3.898 -3.895 l 0 0.895 c 0 0.554 0.446 1 1 1 0.554 0 1 -0.446 1 -1 l 0 -0.898 z m -1 2.898 a 2 2 0 0 0 -2 2 2 2 0 0 0 2 2 2 2 0 0 0 2 -2 2 2 0 0 0 -2 -2 z" style="fill:#000;opacity:0.1;fill-opacity:1;stroke:none;fill-rule:nonzero"/>
   <path d="m 24 16 c -5.01 -0.023 -9.641 3.645 -12.727 7.254 -0.359 0.469 -0.359 1.023 0 1.492 3.34 3.951 7.857 7.268 12.727 7.254 5.15 -0.015 9.813 -3.521 12.732 -7.254 0.359 -0.469 0.359 -1.023 0 -1.492 -3.36 -3.99 -7.723 -7.231 -12.732 -7.254 z m -0.008 2.555 c 2.785 0 4.99 2.441 4.99 5.449 0 3 -2.209 5.446 -4.99 5.445 -2.762 0 -4.992 -2.441 -4.992 -5.445 0 -3.01 2.234 -5.449 4.992 -5.449 z" style="fill:#2f93b7;fill-opacity:1;stroke:none;fill-rule:nonzero"/>
  </g>
 </g>
 <g>
  
 </g>
 <rect width="5" height="2" x="16" y="23" rx="1" style="fill:#e34445;opacity:1;fill-opacity:1;stroke:none"/>
 <rect y="23" x="27" height="2" width="5" rx="1" style="fill:#e34445;opacity:1;fill-opacity:1;stroke:none"/>
 <rect width="2" height="5" x="23" y="27" rx="1" style="fill:#e34445;opacity:1;fill-opacity:1;stroke:none"/>
 <rect width="2" height="5" x="23" y="16" rx="1" style="fill:#e34445;opacity:1;fill-opacity:1;stroke:none"/>
 <path d="m 24 17 a 7 7 0 0 0 -7 7 7 7 0 0 0 7 7 7 7 0 0 0 7 -7 7 7 0 0 0 -7 -7 z m 0 2 a 5 5 0 0 1 5 5 5 5 0 0 1 -5 5 5 5 0 0 1 -5 -5 5 5 0 0 1 5 -5 z m 0 3 a 2 2 0 0 0 -2 2 2 2 0 0 0 2 2 2 2 0 0 0 2 -2 2 2 0 0 0 -2 -2 z" style="fill:#e34445;opacity:1;fill-opacity:1;stroke:none"/>
</svg>
