<svg viewBox="0 0 48 48" xmlns="http://www.w3.org/2000/svg" xmlns:xlink="http://www.w3.org/1999/xlink">
  <linearGradient id="a" gradientTransform="matrix(0 -1 1 0 -.0000015 47.999998)" gradientUnits="userSpaceOnUse" x1="1" x2="47">
    <stop offset="0" stop-color="#a0a0a0"/>
    <stop offset="1" stop-color="#aaa"/>
  </linearGradient>
  <path d="m47 24c0 22.703-.297 23-23 23-22.703 0-23-.297-23-23 0-22.703.297-23 23-23 22.703 0 23 .297 23 23z" fill="url(#a)"/>
  <path d="m25 10a15 15 0 0 0-15 15 15 15 0 0 0  15 15 15 15 0 0 0  15-15 15 15 0 0 0-15-15zm0 2a13 13 0 0 1 13 13 13 13 0 0 1-13 13 13 13 0 0 1-13-13 13 13 0 0 1  13-13zm .451 1.754c-1.06 0-2.119.406-2.931 1.217l-7.54 7.525c-1.625 1.624-1.625 4.232 0 5.854 1.625 1.621 4.239 1.621 5.864 0l7.539-7.528c1.627-1.622 1.627-4.229 0-5.851-.811-.811-1.872-1.217-2.932-1.217zm.002.594c.91 0 1.817.347 2.514 1.041 1.391 1.387 1.391 3.631 0 5.019-1.395 1.387-3.644 1.387-5.029 0-1.387-1.378-1.387-3.628 0-5.019.695-.694 1.605-1.041 2.515-1.041zm6.697 6.09c-1.06 0-2.11.406-2.93 1.216l-7.54 7.526c-1.63 1.621-1.63 4.229 0 5.85 1.625 1.622 4.242 1.622 5.867 0l7.543-7.52c1.621-1.621 1.621-4.235 0-5.856-.82-.81-1.88-1.216-2.94-1.216zm0 .602c.91 0 1.825.341 2.522 1.03 1.388 1.397 1.388 3.635 0 5.02-1.392 1.385-3.642 1.385-5.031 0-1.391-1.393-1.391-3.631 0-5.02.693-.689 1.599-1.03 2.509-1.03zm-14.24.835c.91 0 1.821.345 2.518 1.039 1.387 1.383 1.387 3.631 0 5.022-1.398 1.387-3.648 1.387-5.03 0-1.388-1.387-1.388-3.635 0-5.022.692-.694 1.602-1.039 2.512-1.039zm6.703 6.684c.909 0 1.817.347 2.507 1.041 1.392 1.387 1.392 3.63 0 5.019-1.386 1.391-3.635 1.391-5.02 0-1.389-1.379-1.389-3.628 0-5.019.695-.694 1.605-1.041 2.513-1.041z" fill-opacity=".098"/>
  <path d="m24.451 12.754c-1.06 0-2.119.404-2.932 1.215l-7.539 7.527c-1.625 1.621-1.625 4.23 0 5.852 1.625 1.621 4.238 1.621 5.863 0l7.539-7.527c1.625-1.621 1.625-4.23 0-5.852-.81-.81-1.872-1.215-2.932-1.215zm.002.594c.91 0 1.819.346 2.514 1.039 1.391 1.387 1.391 3.633 0 5.02-1.395 1.387-3.644 1.387-5.03 0-1.387-1.383-1.387-3.629 0-5.02.695-.694 1.606-1.039 2.516-1.039zm6.701 6.09c-1.06 0-2.119.406-2.932 1.217l-7.543 7.525c-1.625 1.621-1.625 4.23 0 5.852 1.625 1.621 4.242 1.621 5.867 0l7.539-7.521c1.625-1.621 1.625-4.234 0-5.855-.813-.811-1.872-1.217-2.932-1.217zm0 .598c.91 0 1.821.346 2.518 1.037 1.387 1.395 1.387 3.633 0 5.02-1.391 1.383-3.642 1.383-5.03 0-1.387-1.395-1.387-3.633 0-5.02.694-.691 1.604-1.037 2.514-1.037zm-14.244.838c.91 0 1.821.348 2.518 1.041 1.387 1.383 1.387 3.629 0 5.02-1.398 1.387-3.647 1.387-5.03 0-1.391-1.387-1.391-3.633 0-5.02.694-.694 1.602-1.041 2.512-1.041zm6.703 6.686c.909 0 1.816.348 2.508 1.041 1.391 1.387 1.391 3.633 0 5.02-1.387 1.395-3.637 1.395-5.02 0-1.391-1.383-1.391-3.629 0-5.02.694-.694 1.603-1.041 2.512-1.041z" fill="#f9f9f9"/>
  <path d="m24 9a15 15 0 0 0-15 15 15 15 0 0 0  15 15 15 15 0 0 0  15-15 15 15 0 0 0-15-15m0 2a13 13 0 0 1 13 13 13 13 0 0 1-13 13 13 13 0 0 1-13-13 13 13 0 0 1  13-13" fill="#f9f9f9"/>
</svg>
