<svg viewBox="0 0 48 48" xmlns="http://www.w3.org/2000/svg" xmlns:xlink="http://www.w3.org/1999/xlink">
  <linearGradient id="a" gradientTransform="matrix(0 -1 1 0 -.0000015 47.999998)" gradientUnits="userSpaceOnUse" x1="1" x2="47">
    <stop offset="0" stop-color="#4b4b4b"/>
    <stop offset="1" stop-color="#555"/>
  </linearGradient>
  <linearGradient id="b" gradientUnits="userSpaceOnUse" x2="0" y1="34" y2="20">
    <stop offset="0" stop-color="#db4ddb"/>
    <stop offset="1" stop-color="#db4ddb" stop-opacity=".6"/>
  </linearGradient>
  <linearGradient id="c" gradientUnits="userSpaceOnUse" x2="0" y1="34" y2="14">
    <stop offset="0" stop-color="#c52f2f"/>
    <stop offset="1" stop-color="#c52f2f" stop-opacity=".4"/>
  </linearGradient>
  <linearGradient id="d" gradientTransform="translate(10)" gradientUnits="userSpaceOnUse" x2="0" y1="34" y2="26">
    <stop offset="0" stop-color="#7fcf5b"/>
    <stop offset="1" stop-color="#7fcf5b" stop-opacity=".8"/>
  </linearGradient>
  <linearGradient id="e" gradientUnits="userSpaceOnUse" x2="0" y1="34" y2="17">
    <stop offset="0" stop-color="#3e8ded"/>
    <stop offset="1" stop-color="#3e8ded" stop-opacity=".502"/>
  </linearGradient>
  <linearGradient id="f" gradientTransform="translate(5)" gradientUnits="userSpaceOnUse" x2="0" xlink:href="#b" y1="34" y2="20"/>
  <linearGradient id="g" gradientTransform="translate(5)" gradientUnits="userSpaceOnUse" x2="0" xlink:href="#e" y1="34" y2="17"/>
  <linearGradient id="h" gradientTransform="translate(5)" gradientUnits="userSpaceOnUse" x2="0" y1="34" y2="20">
    <stop offset="0" stop-color="#e4c82f"/>
    <stop offset="1" stop-color="#e4c82f" stop-opacity=".6"/>
  </linearGradient>
  <linearGradient id="i" gradientUnits="userSpaceOnUse" x2="0" y1="34" y2="23">
    <stop offset="0" stop-color="#ec8e19"/>
    <stop offset="1" stop-color="#ec8e19" stop-opacity=".51"/>
  </linearGradient>
  <linearGradient id="j" gradientUnits="userSpaceOnUse" x2="0" xlink:href="#c" y1="34" y2="14"/>
  <path d="m47 24c0 22.703-.297 23-23 23-22.703 0-23-.297-23-23 0-22.703.297-23 23-23 22.703 0 23 .297 23 23z" fill="url(#a)"/>
  <path d="m13 15v2h4v-2zm30 0v2h2.912c-.217-.681-.463-1.349-.74-2zm-40 3v2h4v-2zm10 0v2h4v-2zm20 0v2h4v-2zm10 0v2h3.646c-.119-.677-.265-1.345-.441-2zm-40 3v2h4v-2zm5 0v2h4v-2zm5 0v2h4v-2zm10 0v2h4v-2zm10 0v2h4v-2zm5 0v2h4v-2zm5 0v2h3.975c-.029-.67-.089-1.332-.174-1.986-.001-.005-.001-.009-.002-.014zm-40 3v2h4v-2zm5 0v2h4v-2zm5 0v2h4v-2zm5 0v2h4v-2zm5 0v2h4v-2zm10 0v2h4v-2zm5 0v2h4v-2zm5 0v2h3.908c0-.003 0-.007 0-.01.057-.657.092-1.32.092-1.99zm-40 3v2h4v-2zm5 0v2h4v-2zm5 0v2h4v-2zm5 0v2h4v-2zm5 0v2h4v-2zm5 0v2h4v-2zm5 0v2h4v-2zm5 0v2h4v-2zm5 0v2h3.449c.001-.003.001-.007.002-.01.144-.65.257-1.31.346-1.979.001-.004.001-.008.002-.012h-3.799zm-40 3v2h4v-2zm5 0v2h4v-2zm5 0v2h4v-2zm5 0v2h4v-2zm5 0v2h4v-2zm5 0v2h4v-2zm5 0v2h4v-2zm5 0v2h4v-2zm5 0v2h2.568c.001-.004.002-.008.004-.012.236-.639.443-1.291.623-1.955.001-.003.001-.005.002-.008zm-40 3v .381c.002.003.004.006.006.01.245.547.505 1.086.791 1.609h3.203v-2zm5 0v2h4v-2zm5 0v2h4v-2zm5 0v2h4v-2zm5 0v2h4v-2zm5 0v2h4v-2zm5 0v2h4v-2zm5 0v2h4v-2zm5 0v2h1.203c.147-.27.285-.544.422-.82.028-.056.059-.11.086-.166.002-.003.002-.007.004-.01.16-.33.312-.665.457-1h-2.172z" opacity=".1"/>
  <path d="m2.088 17c-.029.092-.06.184-.088.277v1.723h4v-2m-4 3v2h4v-2zm0 3v2h4v-2zm0 3v2h4v-2zm0 3v1.723c.028.093.058.185.088.277h3.912v-2m-3.568 3c .253.683.537 1.35.852 2h2.717v-2" fill="url(#e)"/>
  <path d="m42 14v2h3.568c-.253-.683-.537-1.35-.852-2h-2.717zm0 3v2h4v-1.723c-.028-.093-.058-.185-.088-.277zm0 3v2h4v-2zm0 3v2h4v-2zm0 3v2h4v-2zm0 3v2h3.912c.029-.092.06-.184.088-.277v-1.723zm0 3v2h2.717c.315-.65.598-1.317.852-2h-3.568z" fill="url(#j)"/>
  <path d="m7 20v2h4v-2m-4 3v2h4v-2m-4 3v2h4v-2m-4 3v2h4v-2m-4 3v2h4v-2" fill="url(#b)"/>
  <path d="m12 14v2h4v-2zm0 3v2h4v-2zm0 3v2h4v-2zm0 3v2h4v-2zm0 3v2h4v-2zm0 3v2h4v-2zm0 3v2h4v-2z" fill="url(#c)"/>
  <path d="m17 23v2h4v-2m-4 3v2h4v-2m-4 3v2h4v-2m-4 3v2h4v-2" fill="url(#i)"/>
  <path d="m27 26v2h4v-2m-4 3v2h4v-2m-4 3v2h4v-2" fill="url(#d)"/>
  <path d="m32 17v2h4v-2m-4 3v2h4v-2m-4 3v2h4v-2m-4 3v2h4v-2m-4 3v2h4v-2m-4 3v2h4v-2" fill="url(#g)"/>
  <path d="m37 20v2h4v-2m-4 3v2h4v-2m-4 3v2h4v-2m-4 3v2h4v-2m-4 3v2h4v-2" fill="url(#f)"/>
  <path d="m22 20v2h4v-2m-4 3v2h4v-2m-4 3v2h4v-2m-4 3v2h4v-2m-4 3v2h4v-2" fill="url(#h)"/>
  <path d="m8.406 16.09c-1.43 0-2.688.797-3.875 1.5-1.01.596-1.927 1.165-2.961 1.326-.032.143-.07.285-.1.43 1.226-.127 2.287-.725 3.342-1.35 1.188-.703 2.316-1.344 3.594-1.344 1.281 0 2.469.641 3.656 1.344 1.188.703 2.384 1.375 3.814 1.375 1.43 0 2.656-.672 3.844-1.375 1.188-.703 2.379-1.344 3.656-1.344 1.281 0 2.406.641 3.594 1.344 1.188.703 2.383 1.375 3.813 1.375 1.441 0 2.625-.672 3.816-1.375 1.188-.703 2.405-1.344 3.688-1.344 1.277 0 2.371.641 3.566 1.344 1.188.703 2.383 1.375 3.813 1.375.287 0 .57-.03.85-.08-.029-.137-.063-.272-.094-.408-.25.047-.501.082-.756.082-1.273 0-2.344-.672-3.527-1.375-1.191-.703-2.414-1.5-3.848-1.5-1.43 0-2.652.797-3.844 1.5-1.188.703-2.379 1.375-3.656 1.375-1.273 0-2.344-.672-3.527-1.375-1.191-.703-2.445-1.5-3.875-1.5-1.434 0-2.723.797-3.906 1.5-1.191.703-2.316 1.375-3.594 1.375-1.277 0-2.473-.672-3.656-1.375-1.191-.703-2.382-1.5-3.811-1.5zm-5.906 7.223c-.557 0-1.04.227-1.496.529 0 .053-.004.105-.004.158 0 .134.008.267.01.4.497-.383.981-.682 1.49-.682.785 0 1.522.672 2.313 1.375.758.676 1.668 1.316 2.625 1.375.039.004.086 0 .125 0 .957-.059 1.836-.699 2.594-1.375.789-.703 1.528-1.375 2.314-1.375.785 0 1.522.672 2.313 1.375.789.703 1.582 1.375 2.605 1.375 1.012 0 1.836-.672 2.625-1.375.777-.703 1.52-1.375 2.313-1.375.785 0 1.523.672 2.313 1.375.789.703 1.707 1.375 2.719 1.375 1.012 0 1.805-.672 2.594-1.375.789-.703 1.561-1.375 2.346-1.375.785 0 1.523.672 2.313 1.375.789.703 1.582 1.375 2.594 1.375 1.012 0 1.836-.672 2.625-1.375.789-.703 1.526-1.375 2.313-1.375.785 0 1.523.672 2.313 1.375.708.631 1.522 1.234 2.416 1.352.015-.146.026-.294.039-.441-.712-.122-1.506-.693-2.205-1.316-.789-.703-1.547-1.375-2.563-1.375-1.012 0-1.836.672-2.625 1.375-.789.703-1.526 1.344-2.313 1.344-.785 0-1.523-.641-2.313-1.344-.789-.703-1.582-1.375-2.594-1.375-1.012 0-1.836.672-2.625 1.375-.789.703-1.528 1.344-2.314 1.344-.785 0-1.68-.641-2.469-1.344-.789-.703-1.55-1.375-2.563-1.375-1.016 0-1.805.672-2.594 1.375-.789.703-1.566 1.344-2.344 1.344-.785 0-1.527-.641-2.316-1.344-.789-.703-1.578-1.375-2.594-1.375-1.012 0-1.773.672-2.566 1.375-.754.672-1.594 1.293-2.344 1.344-.031 0-.09.004-.125 0-.75-.051-1.555-.672-2.313-1.344-.789-.703-1.613-1.375-2.625-1.375h-.006zm1.842 7.938c-.702 0-1.376.173-2.025.422.05.142.101.285.154.426.612-.26 1.232-.441 1.873-.441 1.277 0 2.375.672 3.563 1.375 1.188.703 2.384 1.5 3.814 1.5 1.43 0 2.656-.797 3.844-1.5 1.191-.703 2.379-1.375 3.656-1.375 1.281 0 2.375.672 3.563 1.375 1.191.703 2.414 1.5 3.855 1.5 1.43 0 2.746-.797 3.938-1.5 1.188-.703 2.281-1.375 3.563-1.375 1.277 0 2.469.672 3.656 1.375 1.188.703 2.414 1.5 3.844 1.5 1.254 0 2.348-.613 3.4-1.238.111-.25.216-.503.318-.758-.052.031-.104.059-.156.09-1.188.703-2.285 1.344-3.563 1.344-1.281 0-2.5-.641-3.691-1.344-1.188-.703-2.383-1.375-3.813-1.375-1.438 0-2.658.672-3.854 1.375-1.188.703-2.373 1.344-3.646 1.344-1.277 0-2.408-.641-3.604-1.344-1.188-.703-2.383-1.375-3.813-1.375-1.43 0-2.625.672-3.813 1.375-1.188.703-2.409 1.344-3.688 1.344-1.281 0-2.376-.641-3.564-1.344-1.187-.703-2.381-1.374-3.811-1.375h-.002z" opacity=".1"/>
  <path d="m7.406 15.09c-1.43 0-2.688.797-3.875 1.5-.543.321-1.06.628-1.584.875-.054.181-.105.364-.154.547.699-.261 1.363-.627 2.02-1.016 1.188-.703 2.316-1.344 3.594-1.344 1.281 0 2.469.641 3.656 1.344 1.188.703 2.384 1.375 3.814 1.375 1.43 0 2.656-.672 3.844-1.375 1.188-.703 2.379-1.344 3.656-1.344 1.281 0 2.406.641 3.594 1.344 1.188.703 2.383 1.375 3.813 1.375 1.441 0 2.625-.672 3.816-1.375 1.188-.703 2.405-1.344 3.688-1.344 1.277 0 2.371.641 3.566 1.344 1.188.703 2.383 1.375 3.813 1.375.537 0 1.059-.106 1.568-.264-.037-.139-.078-.276-.117-.414-.477.16-.959.271-1.451.271-1.273 0-2.344-.672-3.527-1.375-1.191-.703-2.414-1.5-3.848-1.5-1.43 0-2.652.797-3.844 1.5-1.188.703-2.379 1.375-3.656 1.375-1.273 0-2.344-.672-3.527-1.375-1.191-.703-2.445-1.5-3.875-1.5-1.434 0-2.723.797-3.906 1.5-1.191.703-2.316 1.375-3.594 1.375-1.277 0-2.473-.672-3.656-1.375-1.191-.703-2.382-1.5-3.811-1.5h-.016zm-5.906 7.223c-.15 0-.295.019-.436.049-.01.149-.028.296-.035.445.155-.051.312-.088.471-.088.785 0 1.523.672 2.313 1.375.758.676 1.668 1.316 2.625 1.375.039.004.086 0 .125 0 .957-.059 1.836-.699 2.594-1.375.789-.703 1.528-1.375 2.314-1.375.785 0 1.523.672 2.313 1.375.789.703 1.582 1.375 2.605 1.375 1.012 0 1.836-.672 2.625-1.375.777-.703 1.52-1.375 2.313-1.375.785 0 1.523.672 2.313 1.375.789.703 1.707 1.375 2.719 1.375 1.012 0 1.805-.672 2.594-1.375.789-.703 1.561-1.375 2.346-1.375.785 0 1.523.672 2.313 1.375.789.703 1.582 1.375 2.594 1.375 1.012 0 1.836-.672 2.625-1.375.789-.703 1.526-1.375 2.313-1.375.785 0 1.523.672 2.313 1.375.789.703 1.709 1.375 2.725 1.375.277 0 .534-.066.783-.16.009-.164.014-.329.02-.494-.264.129-.53.217-.803.217-.777 0-1.686-.641-2.475-1.344-.789-.703-1.547-1.375-2.563-1.375-1.012 0-1.836.672-2.625 1.375-.789.703-1.526 1.344-2.313 1.344-.785 0-1.523-.641-2.313-1.344-.789-.703-1.582-1.375-2.594-1.375-1.012 0-1.836.672-2.625 1.375-.789.703-1.528 1.344-2.314 1.344-.785 0-1.68-.641-2.469-1.344-.789-.703-1.55-1.375-2.563-1.375-1.016 0-1.805.672-2.594 1.375-.789.703-1.566 1.344-2.344 1.344-.785 0-1.527-.641-2.316-1.344-.789-.703-1.578-1.375-2.594-1.375-1.012 0-1.773.672-2.566 1.375-.754.672-1.594 1.293-2.344 1.344-.031 0-.09.004-.125 0-.75-.051-1.555-.672-2.313-1.344-.789-.703-1.613-1.375-2.625-1.375h-.006zm1.842 7.938c-.484 0-.953.091-1.412.221.041.14.078.281.121.42.425-.135.853-.234 1.293-.234 1.277 0 2.375.672 3.562 1.375 1.188.703 2.384 1.5 3.814 1.5 1.43 0 2.656-.797 3.844-1.5 1.191-.703 2.379-1.375 3.656-1.375 1.281 0 2.375.672 3.563 1.375 1.191.703 2.414 1.5 3.855 1.5 1.43 0 2.746-.797 3.938-1.5 1.188-.703 2.281-1.375 3.563-1.375 1.277 0 2.469.672 3.656 1.375 1.188.703 2.414 1.5 3.844 1.5 1.43 0 2.656-.797 3.844-1.5.457-.27.895-.523 1.334-.748.067-.202.135-.403.197-.607-.624.256-1.22.598-1.813.949-1.188.703-2.285 1.344-3.563 1.344-1.281 0-2.5-.641-3.691-1.344-1.188-.703-2.383-1.375-3.813-1.375-1.438 0-2.658.672-3.854 1.375-1.188.703-2.373 1.344-3.646 1.344-1.277 0-2.408-.641-3.604-1.344-1.188-.703-2.383-1.375-3.813-1.375-1.43 0-2.624.672-3.813 1.375-1.188.703-2.409 1.344-3.688 1.344-1.281 0-2.376-.641-3.564-1.344-1.187-.703-2.381-1.374-3.811-1.375h-.002z" fill="#f9f9f9"/>
</svg>
